<?xml version="1.0" encoding="UTF-8" standalone="no"?>
<!-- Created with Inkscape (http://www.inkscape.org/) -->

<svg
   width="169.33333mm"
   height="127mm"
   viewBox="0 0 169.33333 127"
   version="1.1"
   id="svg5"
   inkscape:version="1.1.2 (08b2f3d93c, 2022-04-05)"
   sodipodi:docname="CamadaEscamosa.svg"
   xmlns:inkscape="http://www.inkscape.org/namespaces/inkscape"
   xmlns:sodipodi="http://sodipodi.sourceforge.net/DTD/sodipodi-0.dtd"
   xmlns="http://www.w3.org/2000/svg"
   xmlns:svg="http://www.w3.org/2000/svg">
  <sodipodi:namedview
     id="namedview7"
     pagecolor="#ffffff"
     bordercolor="#666666"
     borderopacity="1.0"
     inkscape:pageshadow="2"
     inkscape:pageopacity="0.0"
     inkscape:pagecheckerboard="0"
     inkscape:document-units="mm"
     showgrid="false"
     inkscape:zoom="0.71996537"
     inkscape:cx="470.85598"
     inkscape:cy="259.04024"
     inkscape:window-width="1366"
     inkscape:window-height="704"
     inkscape:window-x="0"
     inkscape:window-y="27"
     inkscape:window-maximized="1"
     inkscape:current-layer="layer2" />
  <defs
     id="defs2">
    <inkscape:path-effect
       effect="simplify"
       id="path-effect89"
       is_visible="true"
       lpeversion="1"
       steps="1"
       threshold="0.000408163"
       smooth_angles="360"
       helper_size="0"
       simplify_individual_paths="false"
       simplify_just_coalesce="false" />
    <inkscape:path-effect
       effect="simplify"
       id="path-effect85"
       is_visible="true"
       lpeversion="1"
       steps="1"
       threshold="0.000408163"
       smooth_angles="360"
       helper_size="0"
       simplify_individual_paths="false"
       simplify_just_coalesce="false" />
    <inkscape:path-effect
       effect="simplify"
       id="path-effect81"
       is_visible="true"
       lpeversion="1"
       steps="1"
       threshold="0.000408163"
       smooth_angles="360"
       helper_size="0"
       simplify_individual_paths="false"
       simplify_just_coalesce="false" />
    <inkscape:path-effect
       effect="simplify"
       id="path-effect77"
       is_visible="true"
       lpeversion="1"
       steps="1"
       threshold="0.000408163"
       smooth_angles="360"
       helper_size="0"
       simplify_individual_paths="false"
       simplify_just_coalesce="false" />
    <inkscape:path-effect
       effect="simplify"
       id="path-effect73"
       is_visible="true"
       lpeversion="1"
       steps="1"
       threshold="0.000408163"
       smooth_angles="360"
       helper_size="0"
       simplify_individual_paths="false"
       simplify_just_coalesce="false" />
    <inkscape:path-effect
       effect="simplify"
       id="path-effect69"
       is_visible="true"
       lpeversion="1"
       steps="1"
       threshold="0.000408163"
       smooth_angles="360"
       helper_size="0"
       simplify_individual_paths="false"
       simplify_just_coalesce="false" />
    <inkscape:path-effect
       effect="simplify"
       id="path-effect65"
       is_visible="true"
       lpeversion="1"
       steps="1"
       threshold="0.000408163"
       smooth_angles="360"
       helper_size="0"
       simplify_individual_paths="false"
       simplify_just_coalesce="false" />
    <inkscape:path-effect
       effect="simplify"
       id="path-effect61"
       is_visible="true"
       lpeversion="1"
       steps="1"
       threshold="0.000408163"
       smooth_angles="360"
       helper_size="0"
       simplify_individual_paths="false"
       simplify_just_coalesce="false" />
    <inkscape:path-effect
       effect="simplify"
       id="path-effect57"
       is_visible="true"
       lpeversion="1"
       steps="1"
       threshold="0.000408163"
       smooth_angles="360"
       helper_size="0"
       simplify_individual_paths="false"
       simplify_just_coalesce="false" />
  </defs>
  <g
     inkscape:groupmode="layer"
     id="layer2"
     inkscape:label="Camada Escamosa">
    <path
       style="fill:none;stroke:#000000;stroke-width:0.264583px;stroke-linecap:butt;stroke-linejoin:miter;stroke-opacity:1"
       d="m 168.86806,76.260179 c -1.09666,-0.581426 -2.35305,-0.801431 -3.58556,-0.801057 -0.83122,2.52e-4 -1.65593,0.137152 -2.46017,0.341847 -0.88135,0.224322 -1.76526,0.461294 -2.67771,0.525802 -1.93872,0.137064 -3.89883,-0.05875 -5.82283,0.27856 -1.43786,0.252085 -2.83419,0.703567 -4.28708,0.884569 -1.048,0.13056 -2.10923,0.112818 -3.15452,0.269393 -0.81366,0.121879 -1.59026,0.414807 -2.32625,0.779326 -0.89924,0.445372 -1.86006,0.743907 -2.79486,1.107429 -0.48443,0.188383 -0.79751,0.640136 -1.28458,0.834358 -1.54627,0.616581 -3.14801,1.118741 -4.59929,1.952363 -1.70584,0.979839 -3.28116,2.164486 -4.92804,3.236427 -1.21999,0.794081 -2.61682,1.284775 -3.7998,2.136431 -0.6601,0.475223 -1.16693,1.13426 -1.84,1.590665 -0.55147,0.373947 -1.19274,0.616522 -1.67325,1.094495 -0.37339,0.371417 -0.70551,0.788292 -1.14585,1.088707 -0.57138,0.389816 -1.17034,0.736442 -1.76719,1.085146 -0.85161,0.497549 -1.69661,1.017245 -2.60335,1.406489 -0.46138,0.198061 -0.9747,0.222229 -1.42924,0.452233 -0.54974,0.278174 -1.02863,0.687667 -1.59689,0.925869 -0.57146,0.239544 -1.21403,0.271473 -1.75359,0.604578 -2.06806,1.276741 -3.92045,2.885461 -6.08808,4.007021 -0.49819,0.25777 -1.02824,0.4481 -1.51257,0.73454 -0.49902,0.29513 -0.99452,0.59569 -1.50463,0.87229 -1.52099,0.82474 -3.03899,1.65781 -4.511805,2.56535 -0.893161,0.55036 -1.641935,1.36191 -2.651979,1.69701 -0.285771,0.0948 -0.573453,0.18453 -0.850683,0.30348 -0.361166,0.15496 -0.740493,0.26127 -1.129014,0.32453 -0.624578,0.10169 -1.260818,0.18887 -1.84399,0.46013 -0.501828,0.23342 -1.006198,0.46172 -1.52808,0.65256 -0.156123,0.0571 -0.319902,0.007 -0.457422,-0.0722 -0.128028,-0.0738 -0.436844,-0.1734 -0.432883,-0.0217 0.0034,0.13045 0.167936,0.21218 0.231236,0.31747"
       id="path55"
       inkscape:path-effect="#path-effect57"
       inkscape:original-d="m 168.86806,76.260179 c -1.48281,-0.794555 -3.44014,-0.958546 -5.10455,-0.665623 -1.13171,0.199173 -2.18913,0.608486 -3.34869,0.710747 -1.92124,0.169434 -3.84585,-0.03236 -5.76927,0.248201 -1.3852,0.202057 -2.7191,0.661487 -4.1012,0.868695 -2.35906,0.353674 -3.73043,-0.01413 -5.83199,1.037924 -0.96948,0.485325 -1.86459,0.843423 -2.88463,1.162018 -0.49706,0.15525 -0.79877,0.634878 -1.26674,0.823571 -1.47353,0.594164 -3.07659,1.080966 -4.46492,1.861487 -1.71661,0.965089 -3.3562,2.144392 -4.97913,3.249149 -1.19846,0.815811 -2.59074,1.338347 -3.80019,2.132248 -0.66953,0.439486 -1.18571,1.055497 -1.80604,1.556885 -0.47049,0.380291 -1.03038,0.582967 -1.51757,0.936384 -0.43272,0.31391 -0.74568,0.761016 -1.14131,1.116894 -0.41941,0.377269 -1.32838,0.874046 -1.79349,1.162024 -0.70567,0.436917 -2.14335,1.241062 -2.92227,1.602007 -0.38934,0.180422 -0.89857,0.1974 -1.29181,0.383582 -0.55988,0.265073 -1.05181,0.627705 -1.59282,0.925102 -0.55552,0.305374 -1.25592,0.280326 -1.83112,0.631778 -2.34482,1.432703 -4.37253,3.328932 -6.93567,4.411168 -0.68476,0.28913 -1.3016,0.74403 -1.95654,1.09433 -1.57806,0.84403 -3.11189,1.74548 -4.665585,2.63993 -1.014058,0.58379 -1.868839,1.52207 -3.035139,1.86149 -0.443087,0.12895 -0.853612,0.35556 -1.304358,0.46256 -0.652418,0.15487 -1.351585,0.16855 -1.994162,0.41741 -0.333052,0.12899 -1.710034,0.87338 -2.031789,0.80101 -0.261567,-0.0588 -0.336187,-0.22637 -0.639638,-0.13538 -0.125629,0.0377 0.124638,0.23159 0.200671,0.33845" />
    <path
       style="fill:none;stroke:#000000;stroke-width:0.264583px;stroke-linecap:butt;stroke-linejoin:miter;stroke-opacity:1"
       d="m 91.05811,107.89429 c 0.171311,-0.0739 0.381679,-0.0404 0.535208,-0.14997 0.09946,-0.071 -0.01277,-0.19577 -0.120577,-0.13461 -0.168144,0.0954 -0.29855,0.24743 -0.489908,0.30923 -0.701107,0.22641 -1.410753,0.43447 -2.080326,0.7478 -0.583074,0.27285 -1.191838,0.50695 -1.827793,0.61625 -0.261587,0.045 -0.532034,0.0665 -0.793789,0.002 -0.233997,-0.0578 -0.469525,-0.11784 -0.714327,-0.11159 -0.705795,0.018 -1.409515,0.10506 -2.100414,0.24592 -0.726485,0.14812 -1.428149,0.43862 -2.175371,0.46794 -0.437582,0.0172 -0.848676,-0.15914 -1.284814,-0.17781 -1.845785,-0.079 -3.685304,0.23968 -5.529008,0.17165 -0.582139,-0.0215 -1.139507,-0.23167 -1.726367,-0.22333 -0.609668,0.009 -1.224125,-0.0527 -1.829379,0.0319 -0.476684,0.0666 -0.916362,0.2897 -1.401565,0.32382 -1.345789,0.0946 -2.697478,0.0603 -4.04269,-0.0259 -1.361437,-0.0872 -2.721991,-0.23451 -4.058971,-0.50621 -1.012052,-0.20567 -1.976914,-0.61129 -3.008762,-0.72989 -0.71455,-0.0821 -1.432969,0.0325 -2.128984,0.19101 -0.725605,0.16528 -1.450081,0.34706 -2.19429,0.41427 -2.898481,0.26177 -5.821975,0.20703 -8.708965,0.58783 -1.25958,0.16614 -2.437106,0.66684 -3.634816,1.06282 -0.646861,0.21386 -1.30285,0.43215 -1.983149,0.49244 -0.567567,0.0503 -1.132008,-0.0892 -1.70078,-0.0333 -0.720018,0.0709 -1.417697,0.28561 -2.144907,0.31528 -0.526796,0.0215 -1.06714,-0.0195 -1.577986,0.11365 -0.09671,0.0252 -0.233472,0.0207 -0.263076,0.15049 -0.04409,0.19333 0.03622,0.38158 0.0792,0.56684"
       id="path59"
       inkscape:path-effect="#path-effect61"
       inkscape:original-d="m 91.05811,107.89429 c 0.186793,-0.0856 0.645999,-0.0701 0.560379,-0.25686 -0.08562,-0.18679 -0.365209,0.19259 -0.560379,0.25686 -0.809744,0.26664 -1.3979,0.41217 -2.173753,0.78106 -0.603449,0.28692 -1.570585,0.64148 -2.257542,0.65434 -0.325908,0.006 -0.631983,-0.16164 -0.965729,-0.15794 -0.671211,0.007 -1.358127,0.10157 -2.019242,0.21435 -0.749432,0.12786 -1.499301,0.43956 -2.257544,0.4964 -0.510727,0.0383 -0.81974,-0.14648 -1.291812,-0.16923 -1.845111,-0.0889 -3.689935,0.16923 -5.530979,0.16923 -0.604412,0 -1.133827,-0.23581 -1.755865,-0.22563 -0.585693,0.01 -1.210252,-0.0269 -1.793492,0.0226 -0.488764,0.0415 -0.911886,0.28806 -1.404694,0.32717 -1.491739,0.1184 -3.31235,0.0532 -4.791009,-0.0677 -1.065545,-0.0871 -2.195075,-0.23709 -3.24835,-0.42871 -1.170953,-0.21302 -2.180796,-0.70717 -3.398856,-0.77844 -1.359588,-0.0795 -2.573621,0.48349 -3.913071,0.60922 -2.903834,0.27256 -5.845675,0.26102 -8.741706,0.58665 -1.960179,0.2204 -3.688263,1.25938 -5.631315,1.55688 -0.529058,0.081 -1.063863,-0.0537 -1.592821,-0.0338 -0.765685,0.0287 -1.488337,0.30056 -2.257541,0.32717 -0.21581,0.007 -1.899367,0.0559 -1.943994,0.20307 -0.07226,0.23834 0.0062,0.39214 0.06271,0.63178" />
    <path
       style="fill:none;stroke:#000000;stroke-width:0.264583px;stroke-linecap:butt;stroke-linejoin:miter;stroke-opacity:1"
       d="m 34.151503,112.61282 c 0.188493,0.54134 0.712076,1.06704 0.56592,1.62444 -0.01833,0.0699 -0.123573,0.0104 -0.175759,0.004 -0.08504,-0.0103 -0.171218,0.007 -0.255116,0.0206 -0.140575,0.0227 -0.271942,0.0814 -0.414249,0.0987 -0.167615,0.0203 -0.336686,0.0417 -0.505606,0.0347 -0.235803,-0.01 -0.447643,-0.12722 -0.64008,-0.25411 -0.193374,-0.12751 -0.403619,-0.23922 -0.638124,-0.26931 -0.705881,-0.0906 -1.419967,-0.0476 -2.126799,-0.14013 -0.747414,-0.0978 -1.507708,-0.0164 -2.252259,-0.15038 -0.800659,-0.14402 -1.563552,-0.4462 -2.290043,-0.80272 -0.508289,-0.24944 -0.91021,-0.66282 -1.276842,-1.08515 -0.458465,-0.52811 -0.867582,-1.10523 -1.400357,-1.56389 -0.349407,-0.3008 -0.763775,-0.52416 -1.207231,-0.65151 -0.488239,-0.14021 -0.997878,-0.1949 -1.479419,-0.3606 -0.380984,-0.1311 -0.742438,-0.31133 -1.104876,-0.48568 -0.630793,-0.30344 -1.265651,-0.62241 -1.954943,-0.76877 -0.488538,-0.10373 -0.986858,-0.0146 -1.478008,0.0141 -0.52819,0.0308 -1.048404,-0.0911 -1.556744,-0.2174 -0.168632,-0.0419 -0.343893,-0.06 -0.508091,-0.11637 -0.230111,-0.079 -0.364062,-0.29984 -0.57379,-0.41412 -0.386652,-0.21069 -0.797408,-0.37293 -1.209282,-0.52644 -0.401729,-0.14973 -0.802614,-0.30415 -1.214168,-0.42428 -0.6918167,-0.20194 -1.4178637,-0.21364 -2.1311783,-0.2689 -0.6446293,-0.0499 -1.3077144,-0.1208 -1.8942319,-0.40983 -0.1853942,-0.0914 -0.375678,-0.18638 -0.5247764,-0.33069 -0.2223606,-0.21522 -0.3455443,-0.50541 -0.4849489,-0.77597 -0.1224937,-0.23774 -0.2598313,-0.48026 -0.4851735,-0.63782 -0.2418771,-0.16912 -0.5183933,-0.28649 -0.7312929,-0.49869 -0.5325395,-0.53078 -1.0247176,-1.11055 -1.6389326,-1.55179 -0.1713564,-0.1231 -0.355734,-0.22724 -0.5524477,-0.30561 -0.3133111,-0.12482 -0.655348,-0.20289 -0.9258478,-0.41266 -0.08124,-0.063 -0.15150232,-0.13785 -0.23370763,-0.20037 -0.40140504,-0.30528 -0.7952803,-0.62162 -1.21534965,-0.900902 -0.0443698,-0.0295 -0.14480954,-0.135233 -0.0397783,-0.136004 0.0906043,-6.65e-4 0.17577718,0.04016 0.26551055,0.04736"
       id="path63"
       inkscape:path-effect="#path-effect65"
       inkscape:original-d="m 34.151503,112.61282 c 0.18864,0.54148 0.448398,1.06321 0.56592,1.62444 0.01543,0.0737 -0.15078,-0.006 -0.225758,0 -0.513122,0.044 -0.253124,0.11393 -1.003348,0.15794 -0.60212,0.0353 -0.824703,-0.44521 -1.36707,-0.51896 -0.698892,-0.095 -1.394788,-0.032 -2.094495,-0.13537 -0.693486,-0.10243 -1.403545,-0.0293 -2.094494,-0.12411 -0.870522,-0.11945 -1.666627,-0.45078 -2.45822,-0.81228 -1.173309,-0.53583 -1.865883,-2.02523 -2.884631,-2.79788 -0.979287,-0.74271 -1.765177,-0.55622 -2.809387,-0.99279 -0.898984,-0.37586 -1.824607,-0.9467 -2.7843,-1.15074 -0.61187,-0.1301 -1.236233,0.0547 -1.856206,0.0113 -0.53212,-0.0372 -1.106696,-0.20881 -1.630447,-0.31589 -0.24812,-0.0507 -0.384296,-0.28672 -0.589466,-0.40614 -0.561313,-0.32671 -1.767753,-0.74266 -2.345336,-0.93639 -1.4349914,-0.48132 -3.2861828,-0.0284 -4.5903354,-0.98151 -0.3878424,-0.28346 -0.541601,-0.9581 -0.8653936,-1.31997 -0.2289228,-0.25584 -0.6159402,-0.36366 -0.8653894,-0.60921 -0.5985462,-0.5892 -1.2013102,-1.32211 -1.9314541,-1.75996 -0.3958873,-0.2374 -1.0191846,-0.31557 -1.34198438,-0.65434 -0.1294104,-0.13581 -1.42377213,-1.0187 -1.42977638,-1.094329 -0.008271,-0.10419 0.2091983,-0.0059 0.31355023,0" />
    <path
       style="fill:none;stroke:#000000;stroke-width:0.264583px;stroke-linecap:butt;stroke-linejoin:miter;stroke-opacity:1"
       d="M 1.9328938,63.696796 C 1.7280429,63.576457 1.4833159,63.506744 1.3183412,63.33578 c -0.125798,-0.130365 -0.1930776,0.164608 -0.048941,0.2382 0.2040577,0.104186 0.5351198,-0.06069 0.6634929,0.122819 0.1469883,0.210118 0.079625,0.474342 0.059109,0.709119 -0.01608,0.184006 0.048504,0.368999 0.1790681,0.501097 0.132885,0.134446 0.2509949,0.280809 0.3632915,0.433313 0.9713427,1.319128 2.173736,2.45848 3.0728824,3.830531 0.2509456,0.38293 0.4637105,0.807562 0.8338696,1.093443 0.4373948,0.337809 0.9138878,0.621346 1.3927713,0.895348 0.6130597,0.350773 1.2218378,0.719562 1.8803321,0.97721 0.879045,0.343943 1.837702,0.35259 2.749735,0.560759 0.38265,0.08734 0.759801,0.213938 1.093917,0.427084 0.462484,0.295037 0.874498,0.702451 1.41877,0.841504 0.487614,0.124578 0.992357,0.05111 1.489146,0.103878 0.148303,0.01575 0.289203,0.05848 0.429627,0.115315 0.415167,0.168024 0.862962,0.23761 1.308878,0.256829 0.468252,0.02018 0.941314,0.05673 1.388178,0.213408 0.550316,0.192949 1.073937,0.459072 1.641418,0.604699 1.121518,0.287804 2.28472,0.366076 3.438243,0.383225 0.809592,0.01204 1.622238,0.03435 2.428431,-0.03977 0.62812,-0.05775 1.217256,-0.296406 1.825648,-0.446826 1.415824,-0.350052 2.80057,-0.809826 4.187167,-1.26376 0.43189,-0.141389 0.890588,-0.04057 1.332688,-0.131286 0.924791,-0.189768 1.810958,-0.586108 2.762749,-0.624737 0.534161,-0.02168 1.082336,0.05737 1.602626,-0.110805 0.36521,-0.118049 0.727887,-0.255953 1.118604,-0.276823 1.028795,-0.05495 2.077079,2.05e-4 3.083009,-0.237823 0.420945,-0.09961 0.804803,-0.320927 1.24049,-0.370843 0.451894,-0.05177 0.911238,-0.03722 1.355651,-0.158275 0.578046,-0.15745 1.155426,-0.337075 1.758541,-0.374814 1.008006,-0.06307 2.029494,0.0627 3.027165,-0.143566 0.674346,-0.139417 1.288136,-0.501873 1.777676,-0.981801 0.549374,-0.538587 0.993604,-1.173948 1.557051,-1.699813 0.41725,-0.38942 0.833459,-0.782116 1.193786,-1.22716 0.4927,-0.608539 0.856153,-1.311469 1.127639,-2.043586 0.203882,-0.54981 0.411553,-1.100089 0.5638,-1.666196 0.08447,-0.314103 0.165778,-0.632324 0.334186,-0.916632 0.524428,-0.885345 1.319484,-1.572141 1.82787,-2.47059 0.684484,-1.209658 1.050793,-2.559685 1.501471,-3.865914 0.212174,-0.614957 0.606688,-1.168413 0.70174,-1.820564 0.120084,-0.823893 -0.130915,-1.636328 -0.173855,-2.455961 -0.01946,-0.37149 0.03157,-0.747219 0.172734,-1.094026 0.18496,-0.454391 0.452295,-0.889143 0.492093,-1.390334 0.07894,-0.994147 -0.07587,-2.002591 0.105557,-2.987368 0.04553,-0.247149 0.116121,-0.488209 0.144475,-0.739245 0.05898,-0.522215 0.122285,-1.043559 0.146248,-1.569784 0.02018,-0.443088 0.01185,-0.91338 0.230323,-1.313641 0.125907,-0.230673 0.216873,-0.480959 0.239281,-0.745373 0.06017,-0.710049 -0.172659,-1.420269 -0.02273,-2.128696 0.03195,-0.150972 0.210951,-0.556648 0.09273,-0.455462 -0.0742,0.06351 -0.13448,0.190445 -0.197519,0.270847 -0.0641,0.08175 -0.135015,0.16566 -0.200856,0.248322"
       id="path67"
       inkscape:path-effect="#path-effect69"
       inkscape:original-d="M 1.9328938,63.696796 C 1.7280429,63.576458 1.523192,63.456118 1.3183412,63.33578 c -0.00645,-0.0029 -0.050871,-0.06309 -0.075253,-0.03384 -0.32825185,0.393687 0.6810888,0.383159 0.6898054,0.394859 0.1940166,0.260401 -0.013542,0.661715 0.087792,0.97023 0.068241,0.207764 0.2738024,0.341323 0.4013422,0.518962 0.9503993,1.323726 2.1161714,2.470774 3.0602238,3.801954 0.4118239,0.580702 0.5150011,0.939556 1.0284343,1.331248 0.6336798,0.483423 2.6538055,1.633776 3.3486913,1.872774 1.0230688,0.351872 2.1583428,0.30276 3.1981818,0.676899 0.663214,0.238628 1.164207,0.856877 1.831118,1.071769 0.46828,0.150887 0.950638,0.06178 1.429777,0.112818 0.715643,0.07624 0.253817,0.07768 1.053521,0.282041 0.624433,0.15957 1.279757,0.06679 1.906371,0.225639 0.56619,0.143531 1.085789,0.433991 1.642987,0.609211 1.734842,0.54555 4.235668,0.506892 6.070281,0.439992 0.579387,-0.02114 1.187011,-0.269672 1.743318,-0.406146 1.487641,-0.364953 2.884874,-0.761124 4.339506,-1.2974 0.414858,-0.152946 0.845187,-0.04427 1.266729,-0.124098 0.896377,-0.169754 1.759501,-0.538035 2.671421,-0.631777 0.464185,-0.04772 0.93549,0.02408 1.4047,-0.03384 0.478316,-0.05906 0.906936,-0.33374 1.39215,-0.361024 1.027626,-0.05779 2.095873,-0.05256 3.110389,-0.225632 0.333869,-0.05696 0.640709,-0.220628 0.965729,-0.315891 0.523523,-0.153448 1.046414,-0.06283 1.567733,-0.191788 0.555831,-0.137499 1.09393,-0.336553 1.668073,-0.394859 1.303983,-0.132422 2.776702,0.167378 4.000868,-0.406146 1.062744,-0.497898 1.549345,-1.353013 2.320253,-2.154815 0.37755,-0.392678 0.781047,-0.718314 1.153851,-1.128178 1.157837,-1.272939 1.447482,-2.375966 1.981626,-3.971178 0.08022,-0.239586 0.146743,-0.624973 0.275915,-0.868696 0.488164,-0.921068 1.298678,-1.586574 1.831118,-2.481985 0.726641,-1.222005 1.131411,-2.610541 1.567743,-3.948613 0.176427,-0.541043 0.483198,-1.02666 0.652177,-1.568164 0.331766,-1.063159 -0.226981,-2.271265 -0.07525,-3.35068 0.09532,-0.678157 0.582805,-1.196661 0.639638,-1.895335 0.07785,-0.957072 -0.03893,-1.938258 0.08779,-2.888134 0.02899,-0.217305 0.09197,-0.428707 0.137959,-0.643059 0.04599,-0.387342 0.09435,-0.774406 0.137957,-1.162023 0.0543,-0.482659 0.009,-1.14268 0.137967,-1.624568 0.06864,-0.256466 0.226031,-0.460267 0.301003,-0.710753 0.166227,-0.555384 0.0079,-1.211117 -0.01254,-1.782517 -0.01021,-0.285025 0.0081,-0.54891 0.08779,-0.823568 0.02954,-0.101844 0.09973,-0.401841 0.03763,-0.315892 -0.385474,0.533451 0.04316,-0.01106 -0.376256,0.507678" />
    <path
       style="fill:none;stroke:#000000;stroke-width:0.264583px;stroke-linecap:butt;stroke-linejoin:miter;stroke-opacity:1"
       d="m 62.008599,40.411257 c 0.192075,-0.0649 0.39037,-0.08931 0.585193,-0.165522 0.08771,-0.03431 0.04174,-0.119388 0.01317,-0.180706 -0.180905,-0.388271 -0.391607,-0.761764 -0.596391,-1.137715 -0.33058,-0.606892 -0.661245,-1.213718 -0.993935,-1.81953 -0.148914,-0.271165 -0.184688,-0.586435 -0.195148,-0.890647 -0.01355,-0.393944 0.0021,-0.793428 -0.09827,-1.179622 -0.302457,-1.163894 -0.734874,-2.287844 -1.161452,-3.410251 -0.247423,-0.651017 -0.499488,-1.30469 -0.845678,-1.910483 -0.312027,-0.546012 -0.73713,-1.024991 -0.987658,-1.606315 -0.216813,-0.503092 -0.302482,-1.049885 -0.369452,-1.58993 -0.08506,-0.685901 -0.122169,-1.387925 -0.350609,-2.04501 C 56.872917,24.085903 56.634925,23.743804 56.48405,23.360382 56.203849,22.648302 56.026646,21.902047 55.847443,21.160076 55.685672,20.490281 55.722613,19.78249 55.499974,19.126707 55.375658,18.760534 55.116018,18.466584 54.88385,18.165714 54.7098,17.94016 54.572926,17.687632 54.474105,17.420289 54.315393,16.990919 54.214,16.533427 53.961551,16.144804 53.582548,15.561363 53.010076,15.144565 52.580147,14.602931 52.15885,14.072171 51.829534,13.468539 51.348346,12.985314 50.907468,12.54257 50.381463,12.197985 49.916484,11.783056 49.330512,11.260158 48.778964,10.69809 48.268091,10.101925 47.780184,9.5325608 47.302099,8.9425409 46.962519,8.2712717 46.791568,7.9333421 46.638302,7.5686066 46.637565,7.1836181 c -3.58e-4,-0.187092 0.0644,-0.3684103 0.168674,-0.5244968 0.144671,-0.2165535 0.309936,-0.4334964 0.546049,-0.557302 0.160757,-0.084293 0.331725,-0.1468681 0.496406,-0.2227912"
       id="path71"
       inkscape:path-effect="#path-effect73"
       inkscape:original-d="m 62.008599,40.411257 c 0.213177,-0.07104 0.486325,-0.04875 0.639534,-0.213125 0.07131,-0.07651 -1.593614,-2.939486 -1.705694,-3.249147 -0.217104,-0.599813 -0.05007,-1.242859 -0.200671,-1.838925 -0.223083,-0.882925 -0.55736,-1.819373 -0.877935,-2.673776 -0.321437,-0.856713 -0.64857,-1.790205 -1.078603,-2.594806 -0.386035,-0.722281 -0.904076,-1.213911 -1.166397,-2.019432 -0.342545,-1.051883 -0.259675,-2.22986 -0.589468,-3.282994 -0.122642,-0.391635 -0.345564,-0.699632 -0.501679,-1.071763 -0.291825,-0.695628 -0.475448,-1.515418 -0.664718,-2.245073 -0.171598,-0.661531 -0.146854,-1.365337 -0.338632,-2.019433 -0.16169,-0.551467 -0.575823,-0.873224 -0.85285,-1.353808 -0.311558,-0.540485 -0.355478,-1.144765 -0.702345,-1.692267 -0.322222,-0.5086 -0.850455,-0.928077 -1.241649,-1.376374 -0.405416,-0.464593 -0.702535,-1.002717 -1.091147,-1.47791 -0.456004,-0.557597 -1.054534,-0.96674 -1.605362,-1.421501 -0.691886,-0.571217 -4.102328,-3.8775244 -3.260895,-5.1670443 0.393589,-0.6031846 0.524717,-0.5857316 1.078606,-0.8348506" />
    <path
       style="fill:none;stroke:#000000;stroke-width:0.264583px;stroke-linecap:butt;stroke-linejoin:miter;stroke-opacity:1"
       d="m 47.848694,5.8790281 c 0.05261,-0.036104 0.08468,-0.097635 0.08734,-0.1611803 0.0041,-0.098108 -0.03368,-0.192462 -0.0785,-0.2775995 C 47.765956,5.2662739 47.643555,5.1106631 47.514893,4.9629661 47.253139,4.6624878 46.963915,4.3871851 46.6665,4.1225099 46.241124,3.7439603 45.800956,3.3817326 45.344444,3.0414425 45.218294,2.9474086 45.094307,2.849806 44.96124,2.7657593 44.754974,2.635479 44.522908,2.5520438 44.319036,2.4174171 44.260244,2.3785939 44.207959,2.3311448 44.158135,2.2814622 43.91706,2.0410729 43.70232,1.7764842 43.470975,1.526976 43.231364,1.2685533 43.038913,0.9712161 42.861344,0.66797269 c -0.02891,-0.0493625 -0.05701,-0.0992486 -0.09399,-0.14348121 -0.06883,-0.0823331 -0.151837,-0.15281816 -0.213188,-0.241059 -0.01462,-0.021025 -0.04881,-0.0737469 -0.0093,-0.0798333 0.04391,-0.006772 0.08901,-0.002288 0.133255,-3.159e-5 0.2173,0.0110834 0.433578,0.0514102 0.651837,0.0365976 0.04747,-0.003222 0.09478,-0.008837 0.141657,-0.0169541"
       id="path75"
       inkscape:path-effect="#path-effect77"
       inkscape:original-d="M 47.848694,5.8790281 C 48.4692,5.4303271 45.619606,3.2133418 44.989141,2.784168 44.755874,2.6253772 44.395294,2.5117763 44.199,2.3216201 43.948008,2.0784779 43.73296,1.8045361 43.49665,1.5544579 43.220512,1.262231 43.017884,0.94071357 42.819388,0.59550945 42.741659,0.46033171 42.41262,0.20064982 42.568553,0.20064982 c 0.318029,0 0.57546,0.0792245 0.903015,0.0225613" />
    <path
       style="fill:none;stroke:#000000;stroke-width:0.264583px;stroke-linecap:butt;stroke-linejoin:miter;stroke-opacity:1"
       d="m 66.862216,1.4867696 c -0.0093,0.2437989 -0.05721,0.4842913 -0.07076,0.7274886 -0.01108,0.1988529 0.08906,0.3797606 0.166845,0.5558326 0.65035,1.4720949 1.637038,2.7704784 2.233875,4.2694854 0.500799,1.2577992 0.586559,2.6343484 1.074955,3.8966058 0.159709,0.412767 0.381505,0.798884 0.643066,1.155969 0.766266,1.046113 1.770622,1.907019 2.441335,3.02348 0.411343,0.684717 0.742379,1.413551 1.070634,2.140553 0.548697,1.215227 1.088176,2.44883 1.87335,3.535713 0.392237,0.542957 0.870643,1.015825 1.372577,1.456641 0.483362,0.424506 0.97462,0.840651 1.431232,1.294767 0.503447,0.500695 1.011336,0.998886 1.570053,1.439376 0.625796,0.493375 1.292719,0.959413 1.778859,1.600504 0.502536,0.662713 0.782672,1.474358 1.34584,2.092911 0.181279,0.199107 0.383368,0.37766 0.574959,0.566694 0.529529,0.522461 1.060993,1.045976 1.655917,1.496317 0.508337,0.384797 1.029895,0.75408 1.505514,1.180364 0.290431,0.260305 0.493383,0.602155 0.637755,0.9617 0.225491,0.561565 0.341423,1.171285 0.671659,1.68802 0.148161,0.231834 0.353433,0.41857 0.56895,0.587342 0.574991,0.450277 1.187833,0.873613 1.879567,1.120715 0.504247,0.180128 1.046303,0.253023 1.524576,0.506313 0.676223,0.358123 1.212185,0.931037 1.890137,1.283964 0.47503,0.24729 1.004178,0.385701 1.450978,0.688269 0.156522,0.105995 0.284725,0.253618 0.355363,0.430499 0.147002,0.368102 0.152893,0.772082 0.152596,1.162728 -3.8e-5,0.05002 -2.75e-4,0.100039 -2.81e-4,0.150059"
       id="path79"
       inkscape:path-effect="#path-effect81"
       inkscape:original-d="m 66.862216,1.4867696 c -0.04672,0.850976 -0.16288,0.6866121 0.0627,1.2071446 0.70625,1.6296515 1.79614,2.9646496 2.382967,4.6593656 0.501555,1.4484527 0.554408,3.2102142 1.442316,4.5127022 0.833262,1.222326 2.003499,2.174308 2.734135,3.474783 1.069975,1.90447 1.717812,4.191049 3.148015,5.877797 0.697918,0.823109 1.521235,1.400762 2.282627,2.143531 0.495106,0.482998 0.957754,0.969984 1.49249,1.410222 0.649066,0.534365 1.371444,1.010449 1.918909,1.658419 0.63295,0.749147 0.929024,1.753709 1.642989,2.425576 0.549055,0.516684 1.100148,1.112099 1.680612,1.59073 0.54419,0.448721 1.661364,1.186831 2.081956,1.680978 0.749223,0.880255 0.581528,2.137391 1.530114,2.910692 0.614823,0.501208 1.380509,1.029755 2.132121,1.274839 0.435129,0.141885 0.873848,0.207102 1.291821,0.406148 0.684299,0.325872 1.251484,0.896422 1.906362,1.286119 0.50369,0.29973 1.329058,0.489744 1.730788,0.891259 0.361484,0.361294 0.338627,1.138942 0.338627,1.602005" />
    <path
       style="fill:none;stroke:#000000;stroke-width:0.264583px;stroke-linecap:butt;stroke-linejoin:miter;stroke-opacity:1"
       d="m 96.661765,40.49908 c 0.268931,0.05163 0.561555,0.03354 0.804303,0.177922 0.220453,0.131124 0.385126,0.334449 0.607666,0.464822 0.637811,0.373655 1.386975,0.516721 2.006716,0.922263 0.39231,0.256717 0.64913,0.681267 1.06613,0.90328 0.29241,0.155682 0.63287,0.168184 0.95669,0.176083 0.33771,0.0082 0.69644,0.01065 0.99678,0.183558 0.18241,0.105011 0.34207,0.244287 0.50245,0.379321 0.64516,0.543217 1.25331,1.1392 1.97032,1.588947 0.32536,0.204084 0.68144,0.376317 1.06888,0.423016 0.83089,0.100149 1.66924,-0.04211 2.47063,-0.259875 0.66093,-0.179597 1.30019,-0.428703 1.95443,-0.629559 0.46556,-0.142931 0.95573,-0.152319 1.43467,-0.219052 0.48359,-0.06738 0.95664,-0.236643 1.35574,-0.521645 0.53759,-0.383904 0.95337,-0.903514 1.40261,-1.380981 0.22208,-0.236035 0.46593,-0.450324 0.72265,-0.648186 1.00716,-0.776252 2.14923,-1.367519 3.1012,-2.21746 0.69244,-0.618224 1.21113,-1.395226 1.8189,-2.090629 0.40989,-0.468989 0.88098,-0.889871 1.42534,-1.199743 0.67997,-0.387064 1.36245,-0.789359 1.93051,-1.334983 0.29166,-0.28014 0.53313,-0.608341 0.73577,-0.957565 0.28897,-0.498006 0.52146,-1.02634 0.81789,-1.520456 0.32841,-0.547418 0.67307,-1.091055 1.10329,-1.5649 0.21403,-0.235733 0.50385,-0.409821 0.65217,-0.699471 0.2008,-0.392127 0.32924,-0.82743 0.58938,-1.18294 0.14618,-0.199772 0.31731,-0.379765 0.48261,-0.563573 0.44322,-0.492856 0.91613,-0.961792 1.31712,-1.490014 0.0824,-0.108598 0.1872,-0.209368 0.22783,-0.340732 0.0271,-0.08753 -0.10895,-0.08888 -0.16634,-0.09171 -0.19766,-0.0097 -0.36503,0.12535 -0.48515,0.268827 -0.17894,0.213743 -0.29758,0.468264 -0.4228,0.715079"
       id="path83"
       inkscape:path-effect="#path-effect85"
       inkscape:original-d="m 96.661765,40.49908 c 0.243308,0.04652 0.503844,0.03832 0.729922,0.139567 0.233998,0.104797 0.396491,0.327698 0.614553,0.462553 0.635976,0.393303 1.387446,0.549987 2.03179,0.936387 0.45673,0.273894 0.7729,0.835742 1.27927,1.004075 0.64358,0.213947 1.34802,-0.04993 1.91891,0.372298 0.85227,0.630346 2.24887,2.138455 3.29852,2.290201 1.52148,0.219957 3.03714,-0.377486 4.43984,-0.846134 0.87876,-0.293601 1.62149,-0.08888 2.546,-0.564089 0.88038,-0.452523 1.47334,-1.42525 2.21992,-2.041999 1.19671,-0.9886 2.67561,-1.656826 3.75003,-2.809158 0.91105,-0.977109 1.57797,-2.17492 2.77175,-2.854283 0.79895,-0.45467 1.6272,-0.924517 2.245,-1.635852 0.53827,-0.619755 0.81234,-1.370372 1.21657,-2.06456 0.33458,-0.574577 0.75911,-1.238072 1.19149,-1.714828 0.20443,-0.225419 0.51278,-0.425929 0.65217,-0.699471 0.1945,-0.381717 0.37872,-0.779015 0.57693,-1.162021 0.13157,-0.254225 2.23898,-2.385988 2.03178,-2.470705 -0.53781,-0.219895 -0.88944,0.606097 -1.06606,0.947668" />
    <path
       style="fill:none;stroke:#000000;stroke-width:0.264583px;stroke-linecap:butt;stroke-linejoin:miter;stroke-opacity:1"
       d="m 129.11015,27.788724 c 0.1507,-0.07848 0.34267,-0.0985 0.45303,-0.236935 0.0962,-0.120708 0.12824,-0.27741 0.1586,-0.424938 0.0568,-0.275941 0.0545,-0.566598 0.15416,-0.830992 0.0824,-0.218636 0.17075,-0.435156 0.25516,-0.653105 0.37883,-0.978095 0.74749,-1.970427 1.30781,-2.862744 0.16852,-0.26837 0.35447,-0.527129 0.57651,-0.754592 0.52983,-0.542781 1.2006,-0.936718 1.67949,-1.529892 0.16426,-0.20346 0.31279,-0.419019 0.46437,-0.631935 0.52693,-0.740125 1.04574,-1.490014 1.65866,-2.163406 0.42687,-0.468988 0.8678,-0.928653 1.23038,-1.451657 0.67593,-0.975002 1.18025,-2.058251 1.85905,-3.030266 0.24458,-0.350227 0.61621,-0.606891 0.7983,-0.999212 0.0646,-0.139101 0.12568,-0.280294 0.17501,-0.425888 0.0175,-0.05159 -0.0194,-0.08159 0.008,-0.142359 0.1842,-0.412444 0.49415,-0.747425 0.75404,-1.111508 0.10924,-0.153033 0.23311,-0.303255 0.29394,-0.481673 0.0634,-0.1858789 0.0544,-0.3906511 0.12285,-0.5737204 0.31562,-0.8435936 0.7211,-1.6544499 0.95937,-2.5264067 0.0671,-0.2457384 0.11079,-0.4973075 0.18783,-0.7405727 0.19346,-0.6108886 0.48434,-1.1880205 0.82998,-1.7263304 0.31869,-0.496341 0.72966,-0.9291238 1.01563,-1.4474141 0.11904,-0.2157482 0.20162,-0.450454 0.24574,-0.6938151 0.18855,-1.039948 0.269,-2.09533245 0.32746,-3.15062131 0.01,-0.17599596 0.006,-0.35558759 0.0498,-0.52678889 0.0168,-0.066073 0.0959,-0.1352321 0.0597,-0.1964203 -0.037,-0.062406 -0.11895,-0.014276 -0.1506,0.031998 -0.0947,0.1384195 -0.13535,0.3052541 -0.17019,0.4669117 -0.002,0.00956 -0.004,0.019147 -0.006,0.0287113"
       id="path87"
       inkscape:path-effect="#path-effect89"
       inkscape:original-d="m 129.11015,27.788724 c 0.14939,-0.07715 0.33497,-0.107124 0.44816,-0.231449 0.20938,-0.229966 0.20328,-0.985153 0.33863,-1.319963 0.52151,-1.290078 0.9592,-2.667479 1.78096,-3.813233 0.58137,-0.810603 1.54015,-1.269493 2.13212,-2.075843 0.53899,-0.734198 1.03824,-1.493855 1.6179,-2.199946 0.49405,-0.601793 1.07753,-1.136138 1.53011,-1.771233 0.70712,-0.992276 1.25547,-2.099245 1.91891,-3.113767 0.25416,-0.388651 0.65475,-0.660734 0.85285,-1.094329 0.33138,-0.725312 -0.005,-0.211472 0.22576,-0.654343 0.2638,-0.506234 0.70417,-0.903905 0.96572,-1.421501 0.066,-0.1306796 0.1133,-0.5435424 0.13797,-0.6092154 0.37464,-0.9975119 0.81451,-1.8062889 1.04097,-2.8655668 0.16075,-0.751894 0.56618,-1.5711609 0.99082,-2.2112242 0.38734,-0.5838542 1.0583,-1.2558723 1.19147,-1.9743066 0.18832,-1.0159295 0.30676,-2.07854743 0.33863,-3.12504567 0.004,-0.12985522 0.0178,-0.45036453 0.0502,-0.62049853 0.015,-0.078547 0.11287,-0.2098409 0.0376,-0.2369133 -0.18514,-0.066614 -0.29878,0.5450542 -0.301,0.55280609" />
  </g>
</svg>
