<?xml version="1.0" encoding="UTF-8" standalone="no"?>
<!-- Created with Inkscape (http://www.inkscape.org/) -->

<svg
   width="169.33333mm"
   height="127mm"
   viewBox="0 0 169.33333 127"
   version="1.1"
   id="svg5"
   inkscape:version="1.1.2 (08b2f3d93c, 2022-04-05)"
   sodipodi:docname="CamadaCornea.svg"
   xmlns:inkscape="http://www.inkscape.org/namespaces/inkscape"
   xmlns:sodipodi="http://sodipodi.sourceforge.net/DTD/sodipodi-0.dtd"
   xmlns="http://www.w3.org/2000/svg"
   xmlns:svg="http://www.w3.org/2000/svg">
  <sodipodi:namedview
     id="namedview7"
     pagecolor="#ffffff"
     bordercolor="#666666"
     borderopacity="1.0"
     inkscape:pageshadow="2"
     inkscape:pageopacity="0.0"
     inkscape:pagecheckerboard="0"
     inkscape:document-units="mm"
     showgrid="false"
     inkscape:zoom="0.58326888"
     inkscape:cx="411.47404"
     inkscape:cy="321.46409"
     inkscape:window-width="1366"
     inkscape:window-height="704"
     inkscape:window-x="0"
     inkscape:window-y="27"
     inkscape:window-maximized="1"
     inkscape:current-layer="layer2" />
  <defs
     id="defs2">
    <inkscape:path-effect
       effect="simplify"
       id="path-effect211"
       is_visible="true"
       lpeversion="1"
       steps="1"
       threshold="0.000408163"
       smooth_angles="360"
       helper_size="0"
       simplify_individual_paths="false"
       simplify_just_coalesce="false" />
    <inkscape:path-effect
       effect="simplify"
       id="path-effect207"
       is_visible="true"
       lpeversion="1"
       steps="1"
       threshold="0.000408163"
       smooth_angles="360"
       helper_size="0"
       simplify_individual_paths="false"
       simplify_just_coalesce="false" />
    <inkscape:path-effect
       effect="simplify"
       id="path-effect57"
       is_visible="true"
       lpeversion="1"
       steps="1"
       threshold="0.000408163"
       smooth_angles="360"
       helper_size="0"
       simplify_individual_paths="false"
       simplify_just_coalesce="false" />
  </defs>
  <g
     inkscape:groupmode="layer"
     id="layer2"
     inkscape:label="Camada Cornea">
    <path
       style="fill:none;stroke:#000000;stroke-width:0.264583px;stroke-linecap:butt;stroke-linejoin:miter;stroke-opacity:1"
       d="m 109.79782,127.41414 c 0.23756,-0.71098 0.56757,-1.42244 1.13183,-1.93564 0.49337,-0.44872 1.13282,-0.67413 1.74375,-0.91114 0.66802,-0.25916 1.32052,-0.57206 1.90016,-1 0.37513,-0.27695 0.74736,-0.56254 1.16804,-0.77223 0.12904,-0.0643 0.244,0.0959 0.37181,0.0357 0.21932,-0.10335 0.36267,-0.30839 0.53319,-0.47298 0.11686,-0.11279 0.26783,-0.17785 0.42736,-0.21358 2.63243,-0.58961 5.31041,-0.97314 7.9225,-1.64826 0.87991,-0.22742 1.6345,-0.80463 2.525,-0.98639 0.39532,-0.0807 0.8088,-0.0123 1.19728,-0.1491 0.92718,-0.3264 1.77237,-0.83451 2.6319,-1.30207 0.78807,-0.42869 1.33834,-1.1606 2.05358,-1.68783 0.60744,-0.44776 1.15173,-0.99235 1.82835,-1.33738 0.32777,-0.16714 0.71624,-0.18866 1.01871,-0.41335 0.50984,-0.37873 0.97202,-0.8172 1.42442,-1.26141 0.73157,-0.71832 1.47499,-1.43196 2.11201,-2.23584 0.12923,-0.16308 0.28637,-0.31856 0.32864,-0.53132 0.0787,-0.39613 0.0138,-0.80118 -0.0145,-1.19909 -0.0203,-0.28646 -0.0292,-0.58414 0.0871,-0.85612 0.11976,-0.27997 0.33288,-0.50967 0.45577,-0.78651 0.0894,-0.2014 9e-5,-0.47623 0.17608,-0.63118 0.1774,-0.15619 0.3932,-0.27649 0.63289,-0.2996 0.32351,-0.0312 0.64679,-0.0915 0.94506,-0.22712 0.28464,-0.12939 0.58142,-0.26558 0.90342,-0.25304 0.55141,0.0215 1.078,0.24557 1.63046,0.24009 0.51599,-0.005 1.00005,-0.24998 1.51866,-0.22562 0.32685,0.0153 0.61663,0.20821 0.82276,0.45401 0.36252,0.43228 0.66362,0.93367 0.79332,1.48365 0.0436,0.18493 -0.0204,0.37273 -0.0413,0.55676 -0.0165,0.14483 -0.0806,0.32225 0.017,0.44053 0.2758,0.33416 0.66961,0.54101 1.07157,0.68493 0.40084,0.14352 0.81834,0.29336 1.12633,0.5987 0.13499,0.13383 0.26583,0.28349 0.45238,0.34813 0.3147,0.10904 0.65272,-0.0197 0.91952,-0.18846 0.52928,-0.33474 0.95361,-0.80689 1.34887,-1.28605 0.54519,-0.66091 1.02145,-1.37388 1.5012,-2.08242 0.27392,-0.40455 0.78094,-0.56426 1.07895,-0.93942 0.25668,-0.32313 0.5163,-0.66234 0.86428,-0.88486 0.10038,-0.0642 0.22275,-0.2171 0.34062,-0.14979 0.20341,0.11617 0.27455,0.359 0.34816,0.56616 0.0764,0.21489 0.0954,0.46875 0.25555,0.63815 0.2018,0.2135 0.50771,0.25337 0.78169,0.30908 0.22757,0.0463 0.48572,0.0571 0.66443,0.21899 0.14347,0.12995 0.10968,0.34567 0.0616,0.51024 -0.13078,0.44765 -0.35326,0.86061 -0.52913,1.29099 -0.18488,0.45244 -0.36224,0.92747 -0.35118,1.42409 0.005,0.23809 0.0975,0.46217 0.21914,0.66604 0.16535,0.27704 0.35629,0.55475 0.64852,0.7144 0.2877,0.15718 0.61362,0.24704 0.88023,0.43783 0.30347,0.21717 0.45542,0.56924 0.62571,0.8876 0.1037,0.19387 0.24907,0.35947 0.4145,0.50486 0.51029,0.44847 1.00438,0.91247 1.50408,1.37611 0.26716,0.24788 0.634,0.33576 0.97585,0.42951 0.3222,0.0884 0.66637,0.14032 0.95102,0.32451 0.11705,0.0757 0.17918,0.20851 0.2919,0.29428 0.0948,0.0721 0.22598,0.0585 0.33936,0.0678 0.20821,0.017 0.44314,-0.0579 0.6255,0.0432 0.11485,0.0637 0.0865,0.22454 0.0743,0.33166 -0.016,0.14048 0.018,0.2814 0.10844,0.39478 0.16024,0.2008 0.34665,0.38684 0.56518,0.52178 0.32272,0.19927 0.72206,0.21213 1.05489,0.38293 0.29927,0.15358 0.44978,0.47356 0.61579,0.74889 0.11365,0.18849 0.23058,0.38327 0.41957,0.51184 0.11155,0.0759 0.22218,0.15978 0.27512,0.2969 0.10121,0.26212 0.0584,0.55988 0.15977,0.81897 0.0363,0.0928 -0.002,0.33398 0.1458,0.27971 0.1694,-0.062 0.14086,0.15048 0.12133,0.25076 -0.0248,0.12757 -0.0522,0.47666 -0.13009,0.36993 -0.0505,-0.0692 0.006,-0.2114 0.0292,-0.30271 0.0229,-0.0913 0.0485,-0.18187 0.0752,-0.27211"
       id="path209"
       inkscape:path-effect="#path-effect211"
       inkscape:original-d="m 109.79782,127.41414 c 0.92218,-2.78051 2.29841,-2.34519 4.25686,-3.49411 0.56373,-0.33071 1.08334,-0.85418 1.66728,-1.11683 0.2153,-0.0968 0.23925,0.15805 0.49662,-0.0319 0.2613,-0.19286 0.44584,-0.53502 0.76269,-0.60628 2.6365,-0.59293 5.26981,-1.03423 7.91067,-1.64335 0.89719,-0.20694 1.65582,-0.73716 2.53638,-0.98919 0.39529,-0.11314 0.81911,-0.017 1.20611,-0.1436 0.89947,-0.29424 1.79288,-0.86761 2.6428,-1.29234 0.78918,-0.39436 1.37882,-1.18695 2.05749,-1.67526 0.59016,-0.42462 1.25626,-1.05824 1.89785,-1.38807 0.31794,-0.16344 0.66824,-0.17028 0.97554,-0.38291 0.89976,-0.62258 3.17331,-2.9722 3.79569,-3.79725 0.32626,-0.4325 -0.002,-1.53847 0.10642,-2.07412 0.0698,-0.34527 0.34398,-0.69598 0.51438,-0.9892 0.1203,-0.20702 0.0275,-0.53449 0.21284,-0.68606 0.40294,-0.32949 0.54455,-0.25565 0.99327,-0.33505 0.51778,-0.0916 0.70159,-0.28416 1.13516,-0.39887 0.53682,-0.14203 1.44335,0.23635 2.02201,0.20742 0.80975,-0.0405 1.5537,-0.59444 2.25259,0.19145 0.35971,0.40448 0.69446,1.00501 0.83363,1.54762 0.0566,0.2208 -0.1711,0.81673 -0.0177,0.98919 0.72656,0.81701 1.57312,0.59172 2.3058,1.38807 1.19416,1.29794 3.5234,-2.52573 4.11496,-3.3505 0.31587,-0.4404 0.85386,-0.62559 1.13517,-1.00516 0.16605,-0.22406 0.94277,-1.03582 1.11742,-0.95728 0.3697,0.16626 0.39734,0.9613 0.62079,1.21256 0.3589,0.40353 1.29972,0.23221 1.50764,0.60629 0.31639,0.56922 -1.39032,2.56816 -0.72722,3.7015 0.48967,0.83692 0.5444,0.73121 1.50765,1.21257 0.48572,0.24274 0.63142,0.99878 1.011,1.34021 0.55085,0.4955 1.12125,0.92176 1.57858,1.43594 0.428,0.48119 1.4878,0.47793 1.96881,0.79774 0.57851,0.38462 -0.15736,0.31317 1.22385,0.39886 0.1955,0.0121 0.0599,0.38935 0.12415,0.57438 0.0671,0.19314 0.388,0.48011 0.54984,0.60628 0.31466,0.2453 0.73423,0.29928 1.09969,0.43078 0.45338,0.16313 0.63414,0.82074 0.94007,1.16471 0.094,0.10566 0.35827,0.21694 0.40795,0.351 0.1854,0.50037 0.12028,0.63696 0.23058,1.13279 0.0217,0.0978 0.22021,-0.0414 0.23057,0.0798 0.0358,0.41784 -0.34947,1.05918 -0.0355,0" />
  </g>
</svg>
