<?xml version="1.0" encoding="UTF-8" standalone="no"?>
<!-- Created with Inkscape (http://www.inkscape.org/) -->

<svg
   width="169.33333mm"
   height="127mm"
   viewBox="0 0 169.33333 127"
   version="1.1"
   id="svg5"
   inkscape:version="1.1.2 (08b2f3d93c, 2022-04-05)"
   sodipodi:docname="CamadaGranulosa.svg"
   xmlns:inkscape="http://www.inkscape.org/namespaces/inkscape"
   xmlns:sodipodi="http://sodipodi.sourceforge.net/DTD/sodipodi-0.dtd"
   xmlns="http://www.w3.org/2000/svg"
   xmlns:svg="http://www.w3.org/2000/svg">
  <sodipodi:namedview
     id="namedview7"
     pagecolor="#ffffff"
     bordercolor="#666666"
     borderopacity="1.0"
     inkscape:pageshadow="2"
     inkscape:pageopacity="0.0"
     inkscape:pagecheckerboard="0"
     inkscape:document-units="mm"
     showgrid="false"
     inkscape:zoom="0.70910507"
     inkscape:cx="527.42536"
     inkscape:cy="334.92921"
     inkscape:window-width="1366"
     inkscape:window-height="704"
     inkscape:window-x="0"
     inkscape:window-y="27"
     inkscape:window-maximized="1"
     inkscape:current-layer="layer2" />
  <defs
     id="defs2">
    <inkscape:path-effect
       effect="simplify"
       id="path-effect304"
       is_visible="true"
       lpeversion="1"
       steps="1"
       threshold="0.000408163"
       smooth_angles="360"
       helper_size="0"
       simplify_individual_paths="false"
       simplify_just_coalesce="false" />
    <inkscape:path-effect
       effect="simplify"
       id="path-effect300"
       is_visible="true"
       lpeversion="1"
       steps="1"
       threshold="0.000408163"
       smooth_angles="360"
       helper_size="0"
       simplify_individual_paths="false"
       simplify_just_coalesce="false" />
    <inkscape:path-effect
       effect="simplify"
       id="path-effect296"
       is_visible="true"
       lpeversion="1"
       steps="1"
       threshold="0.000408163"
       smooth_angles="360"
       helper_size="0"
       simplify_individual_paths="false"
       simplify_just_coalesce="false" />
    <inkscape:path-effect
       effect="simplify"
       id="path-effect77"
       is_visible="true"
       lpeversion="1"
       steps="1"
       threshold="0.000408163"
       smooth_angles="360"
       helper_size="0"
       simplify_individual_paths="false"
       simplify_just_coalesce="false" />
    <inkscape:path-effect
       effect="simplify"
       id="path-effect73"
       is_visible="true"
       lpeversion="1"
       steps="1"
       threshold="0.000408163"
       smooth_angles="360"
       helper_size="0"
       simplify_individual_paths="false"
       simplify_just_coalesce="false" />
    <inkscape:path-effect
       effect="simplify"
       id="path-effect69"
       is_visible="true"
       lpeversion="1"
       steps="1"
       threshold="0.000408163"
       smooth_angles="360"
       helper_size="0"
       simplify_individual_paths="false"
       simplify_just_coalesce="false" />
    <inkscape:path-effect
       effect="simplify"
       id="path-effect65"
       is_visible="true"
       lpeversion="1"
       steps="1"
       threshold="0.000408163"
       smooth_angles="360"
       helper_size="0"
       simplify_individual_paths="false"
       simplify_just_coalesce="false" />
    <inkscape:path-effect
       effect="simplify"
       id="path-effect61"
       is_visible="true"
       lpeversion="1"
       steps="1"
       threshold="0.000408163"
       smooth_angles="360"
       helper_size="0"
       simplify_individual_paths="false"
       simplify_just_coalesce="false" />
    <inkscape:path-effect
       effect="simplify"
       id="path-effect57"
       is_visible="true"
       lpeversion="1"
       steps="1"
       threshold="0.000408163"
       smooth_angles="360"
       helper_size="0"
       simplify_individual_paths="false"
       simplify_just_coalesce="false" />
    <clipPath
       clipPathUnits="userSpaceOnUse"
       id="clipPath247">
      <path
         id="path249"
         style="fill:#ff0000;fill-opacity:1;fill-rule:nonzero;stroke:none;stroke-width:0.264583"
         d="m 102.38807,103.85723 c 0,7.74578 -7.74578,23.23733 0,23.23733 20.66161,0 61.98484,20.66161 61.98484,0 0,-7.74578 7.74578,-23.23733 0,-23.23733 -14.57034,0 -37.7642,-13.301504 -43.71103,0 -0.29767,0.66581 -0.61846,1.32129 -0.95307,1.9693 -0.2329,0.45104 -0.58391,0.82341 -0.87833,1.2333 -0.0841,0.11714 -0.1976,0.20738 -0.29338,0.3154 -0.10246,0.11556 -0.23639,0.20196 -0.39438,0.22698 -0.32925,0.0521 -0.69547,0.0761 -0.99261,-0.10301 -0.25681,-0.15476 -0.34822,-0.46906 -0.36098,-0.75213 -0.0269,-0.59591 0.12114,-1.17691 0.2418,-1.75483 0.0176,-0.0844 -0.11916,0.0174 -0.19352,-0.001 -0.2572,-0.0639 -0.47737,-0.74537 -0.55353,-0.50769 -0.10381,0.32398 -0.22182,0.64326 -0.29119,0.97801 -0.0682,0.32935 -0.14709,0.68628 -0.41125,0.92308 -0.1258,0.11277 -0.36627,0.16515 -0.38174,0.33339 -0.0144,0.15628 -0.0232,0.31044 -0.007,0.46942 0.0139,0.13859 -0.10852,-0.0631 -0.13949,-0.0982 -0.0668,-0.0757 -0.0985,-0.17271 -0.21533,-0.0727 -0.11553,0.0989 -0.2398,0.17887 -0.32377,0.31427 -0.27482,0.44314 -0.58151,0.87437 -0.97306,1.22171 -0.10585,0.0939 -0.25167,0.14279 -0.39568,0.10025 -0.43065,-0.12721 -1.12194,-0.28751 -1.09443,-0.72343 0.0197,-0.31269 0.0148,-0.63033 0.10777,-0.93408 0.20374,-0.66593 0.48931,-1.30295 0.77575,-1.93645 0.18169,-0.40183 0.99455,-1.20157 0.55356,-1.20157 -3.69989,2e-5 -7.39977,3e-5 -11.09966,5e-5 z m 16.38917,0.71778 c -0.0859,0.0472 -0.15541,0.0537 -0.16393,0.17854 -0.004,0.0536 -0.0314,0.21632 -0.0219,0.19678 0.0607,-0.12572 0.12233,-0.25112 0.18585,-0.37532 z m -6.21047,2.73472 c -0.0259,0.0761 0.17612,0.0223 0.0945,0.0119 -0.0315,-0.004 -0.0633,-0.008 -0.0945,-0.0119 z"
         inkscape:original-d="m 102.38807,103.85723 v 23.23733 h 61.98484 v -23.23733 h -43.71103 c -0.21007,0.47419 -0.43489,0.94188 -0.66611,1.40611 -0.15802,0.31728 -0.31279,0.63828 -0.50694,0.93483 -0.21843,0.33365 -0.48471,0.63365 -0.72709,0.95033 -0.18292,0.14711 -0.31802,0.39841 -0.5488,0.44131 -0.3696,0.0688 -0.82303,0.0993 -1.12035,-0.13074 -0.56152,-0.4345 -0.19717,-1.61267 -0.10697,-2.17248 0.0181,-0.112 0.0346,-0.22427 0.0517,-0.33641 -0.0807,0.0417 -0.16366,0.0591 -0.2465,0.0289 -0.22519,-0.082 -0.36823,-0.28556 -0.50694,-0.49557 -0.0589,0.17678 -0.11819,0.35347 -0.1788,0.52968 -0.15561,0.45232 -0.14049,1.02676 -0.4961,1.34668 -0.14772,0.1329 -0.28174,0.24923 -0.40928,0.35812 -0.008,0.0832 -0.0174,0.17276 -0.0263,0.27389 -0.007,0.0803 0.051,0.30474 5.3e-4,0.24184 -0.0778,-0.0969 -0.16238,-0.19239 -0.24753,-0.28835 -0.12068,0.0975 -0.23249,0.18461 -0.33279,0.25683 -0.004,0.007 -0.009,0.0145 -0.0134,0.0217 -0.23453,0.38031 -0.4838,0.75779 -0.79169,1.08158 -0.15733,0.16546 -0.35822,0.41107 -0.58136,0.36277 -0.44707,-0.0968 -0.77106,-0.4927 -1.15651,-0.73897 0.0189,-0.24407 0.007,-0.49261 0.0568,-0.73226 0.16302,-0.7824 1.05997,-2.63557 1.27692,-3.1135 0.0552,-0.12161 0.0582,-0.12698 0.10336,-0.22634 z m 16.38917,0.71778 c -0.0185,0.0104 -0.0363,0.0212 -0.0558,0.031 -0.0296,0.0149 -0.0599,0.0239 -0.0909,0.0289 -0.0204,0.14066 -0.0333,0.22882 -0.0486,0.33486 0.0504,-0.10367 0.10046,-0.20771 0.15244,-0.31006 0.0143,-0.0282 0.0285,-0.0565 0.0429,-0.0847 z m -6.21047,2.73472 c -0.0268,-0.003 0.019,0.0911 0.0377,0.0718 0.0191,-0.0197 0.0377,-0.0401 0.0568,-0.0599 -0.0314,-0.004 -0.063,-0.008 -0.0946,-0.0119 z" />
    </clipPath>
    <clipPath
       clipPathUnits="userSpaceOnUse"
       id="clipPath257">
      <path
         id="path259"
         style="fill:#ff0000;fill-opacity:1;fill-rule:nonzero;stroke:none;stroke-width:0.264583"
         d="m 54.734643,97.576473 c 0,7.537697 -7.5377,22.613087 0,22.613087 23.924636,0 71.773907,23.92464 71.773907,0 0,-6.98183 2.49232,-27.467319 0,-20.945489 -0.12076,0.316001 -0.32008,0.594696 -0.47882,0.892379 -0.17634,0.33068 -0.34761,0.66552 -0.56447,0.97231 -0.1289,0.18236 -0.26918,0.4073 -0.51409,0.43243 -0.15415,0.0158 -0.26272,0.14341 -0.3578,0.265 -0.24103,0.30822 -0.42602,0.67532 -0.73543,0.91536 -0.11485,0.0891 -0.21298,0.20048 -0.34088,0.27432 -0.16928,0.0977 -0.33589,0.30204 -0.52591,0.25717 -0.22332,-0.0527 -0.46955,0.022 -0.68047,-0.0903 -0.12857,-0.0684 -0.0927,-0.25875 -0.28612,-0.24898 -0.15601,0.008 -0.2651,-0.1188 -0.29262,-0.26377 -0.0187,-0.0987 -0.0152,-0.18609 -0.11189,-0.0734 -0.10366,0.12076 -0.23429,0.21565 -0.38666,0.24881 -0.19911,0.0433 -0.23887,0.22165 -0.30383,0.38979 -0.32866,0.85076 -0.74515,1.66378 -1.15088,2.47957 -0.19774,0.39759 -0.44896,0.76669 -0.73828,1.10231 -0.12697,0.14729 -0.2438,0.30168 -0.37777,0.44356 -0.14473,0.15327 -0.29314,0.32607 -0.52023,0.36204 -0.33955,0.0538 -0.72506,0.0817 -1.0218,-0.12233 -0.26519,-0.18232 -0.3341,-0.52556 -0.33472,-0.82724 -0.001,-0.57763 0.73606,-2.00921 0.25113,-1.70246 -0.1366,0.0864 -0.30064,0.0243 -0.41873,-0.0666 -0.13932,-0.10725 -0.28131,-0.56554 -0.33471,-0.40011 -0.10692,0.33122 -0.22605,0.65833 -0.29595,1.00107 -0.0669,0.3281 -0.15689,0.67675 -0.42013,0.91225 -0.12136,0.10857 -0.35317,0.15902 -0.36809,0.32117 -0.0144,0.15627 -0.005,0.30967 -0.007,0.46942 -0.002,0.13811 -0.16835,-0.1135 -0.20236,-0.17015 -0.0943,-0.15714 -0.23897,0.0721 -0.33883,0.14277 -0.11236,0.0795 -0.16531,0.21611 -0.23892,0.33016 -0.25284,0.39173 -0.5372,0.76976 -0.88978,1.07684 -0.10794,0.094 -0.25649,0.12451 -0.39779,0.0797 -0.42036,-0.13338 -1.09984,-0.288 -1.07409,-0.71742 0.0192,-0.32036 0.017,-0.64545 0.11419,-0.95614 0.24119,-0.77101 0.57508,-1.50922 0.91795,-2.2391 0.28786,-0.61277 1.28645,-1.33057 0.84729,-1.8458 -0.11183,-0.1312 -0.24617,-0.28073 -0.21982,-0.47071 0.0345,-0.24907 0.11937,-0.48662 0.23149,-0.71144 0.17044,-0.34175 0.34968,-0.6785 0.54842,-1.00538 0.13961,-0.22963 0.27858,-0.46105 0.4277,-0.68381 0.0508,-0.07592 0.0634,-0.08754 0.1282,-0.18263 0.0954,-0.139961 0.21086,-0.268728 0.26977,-0.429332 0.0609,-0.166066 0.24536,-0.102771 0.37513,-0.09086 0.24972,0.02291 0.69261,0.314398 0.74909,0.06999 0.0478,-0.206791 0.0755,-0.419076 0.15619,-0.61616 0.0493,-0.12032 0.0885,-0.206968 0.0605,-0.347347 -0.0444,-0.222497 0.21582,-0.188013 0.35459,-0.209651 0.23773,-0.03707 0.63014,0.168229 0.72013,-0.05726 0.0777,-0.194593 0.45807,-0.577225 0.24856,-0.577226 -21.081676,-1.29e-4 -42.163351,-2.58e-4 -63.245027,-3.87e-4 z m 65.127287,0 c -0.11401,0.393631 -0.73648,1.0912 -0.33693,1.182357 0.1093,0.02494 0.31598,0.192946 0.33835,0.110223 0.11648,-0.430816 0.79523,-1.29258 0.34895,-1.29258 -0.11679,0 -0.23358,0 -0.35037,0 z m -1.08469,6.998537 c -0.10394,0.0409 -0.15626,0.072 -0.16701,0.19971 -0.006,0.0677 -0.0666,0.27496 0.009,0.11726 0.0513,-0.10625 0.104,-0.21195 0.15753,-0.31697 z m -6.21047,2.73472 c -0.0476,0.11873 0.13874,0.0175 0.0709,0.009 -0.0236,-0.003 -0.0476,-0.006 -0.0709,-0.009 z"
         inkscape:original-d="M 54.734643,97.576473 V 120.18956 H 126.50855 V 99.244071 c -0.0177,0.04626 -0.0349,0.09272 -0.0537,0.138493 -0.12576,0.261469 -0.25199,0.508209 -0.41238,0.729156 -0.13567,0.26394 -0.27839,0.52466 -0.42788,0.78238 -0.24195,0.33081 -0.40003,0.67223 -0.72192,0.64647 -0.0543,0.0401 -0.11124,0.0738 -0.17156,0.0946 -0.15014,0.2036 -0.30497,0.40385 -0.46199,0.60203 -0.18056,0.22787 -0.3545,0.46825 -0.58136,0.65009 -0.002,0.001 -0.003,0.002 -0.005,0.004 -0.0401,0.0563 -0.0845,0.0976 -0.13952,0.0951 -0.17193,0.10207 -0.36503,0.17236 -0.54209,0.26665 -0.25264,-0.0578 -0.6287,0.0518 -0.75757,-0.17312 -0.0327,-0.0571 -0.0609,-0.11337 -0.0853,-0.16898 -0.17154,0.0165 -0.32313,-0.0128 -0.37827,-0.14831 -0.0346,-0.0849 -0.0557,-0.17198 -0.0682,-0.26045 -0.0719,0.0668 -0.14705,0.13076 -0.216,0.19999 -0.15159,0.0669 -0.29814,0.14918 -0.44752,0.22272 -0.0954,0.25861 -0.19289,0.51607 -0.30231,0.76895 -0.22978,0.531 -0.48257,1.05203 -0.74052,1.56992 -0.15803,0.31728 -0.3128,0.63828 -0.50695,0.93483 -0.21843,0.33365 -0.48471,0.63365 -0.72709,0.95033 -0.18291,0.14711 -0.31802,0.39842 -0.5488,0.44132 -0.3696,0.0688 -0.82302,0.0993 -1.12034,-0.13074 -0.56152,-0.4345 -0.19717,-1.61267 -0.10697,-2.17248 0.018,-0.112 0.0345,-0.22427 0.0517,-0.33641 -0.0807,0.0417 -0.16366,0.0591 -0.24649,0.0289 -0.22519,-0.082 -0.36824,-0.28556 -0.50695,-0.49558 -0.0589,0.17678 -0.11819,0.35348 -0.1788,0.52968 -0.1556,0.45232 -0.14048,1.02677 -0.49609,1.34669 -0.14772,0.1329 -0.28174,0.24922 -0.40928,0.35812 -0.008,0.0832 -0.0174,0.17275 -0.0263,0.27388 -0.007,0.0803 0.051,0.30475 5.3e-4,0.24185 -0.0778,-0.097 -0.16239,-0.19239 -0.24753,-0.28836 -0.12068,0.0975 -0.2325,0.18462 -0.3328,0.25684 -0.004,0.007 -0.009,0.0145 -0.0134,0.0217 -0.23453,0.38031 -0.48379,0.7578 -0.79168,1.08159 -0.15733,0.16546 -0.35822,0.41107 -0.58136,0.36277 -0.44707,-0.0968 -0.77106,-0.49271 -1.15652,-0.73897 0.0189,-0.24407 0.007,-0.49261 0.0568,-0.73226 0.16302,-0.7824 1.05997,-2.63557 1.27693,-3.1135 0.29152,-0.6422 0.43078,-0.94786 0.5457,-1.19528 -0.0773,-0.0847 -0.14764,-0.17381 -0.19844,-0.27595 -0.0592,-0.11895 -0.004,-0.26761 0.0186,-0.39843 0.0375,-0.21284 0.18609,-0.49881 0.28009,-0.68419 0.2735,-0.53947 0.21162,-0.42257 0.4718,-0.84853 0.13315,-0.21169 0.26706,-0.42749 0.40567,-0.63924 0.0135,-0.0333 0.0267,-0.06675 0.0398,-0.10025 0.007,-0.02013 0.0133,-0.04038 0.0202,-0.06046 0.002,-0.025 -0.003,-0.05971 0.0145,-0.05271 0.0178,0.007 0.0355,0.0141 0.0532,0.02119 0.0563,-0.08219 0.11355,-0.163489 0.1726,-0.24288 0.0805,-0.108204 0.12153,-0.32568 0.2558,-0.31316 0.46762,0.04359 0.77333,0.06228 0.97616,0.09043 0.0309,-0.120996 0.062,-0.241398 0.10181,-0.359669 0.0444,-0.132165 0.0384,-0.335886 0.13539,-0.417544 -0.0259,-0.172972 -0.0468,-0.346731 0.0599,-0.357601 0.3111,-0.03168 0.6825,-0.131381 0.99426,-0.0956 0.0788,-0.19744 0.16252,-0.389795 0.24856,-0.577226 z m 65.127287,0 c -0.0611,0.211117 -0.12215,0.422119 -0.18242,0.633553 -0.0892,0.313185 -0.12511,0.442833 -0.15451,0.548804 0.11152,0.04113 0.22263,0.08475 0.3328,0.130741 0.11833,-0.437718 0.2371,-0.875212 0.3545,-1.313098 z m -1.08469,6.998537 c -0.0185,0.0104 -0.0363,0.0212 -0.0558,0.031 -0.0296,0.0149 -0.0599,0.0239 -0.0909,0.0289 -0.0204,0.14066 -0.0333,0.22882 -0.0486,0.33486 0.0504,-0.10367 0.10046,-0.20771 0.15244,-0.31006 0.0143,-0.0282 0.0285,-0.0565 0.0429,-0.0847 z m -6.21047,2.73472 c -0.0268,-0.003 0.019,0.0911 0.0377,0.0718 0.0191,-0.0197 0.0377,-0.0401 0.0568,-0.0599 -0.0314,-0.004 -0.063,-0.008 -0.0946,-0.0119 z" />
    </clipPath>
  </defs>
  <g
     inkscape:groupmode="layer"
     id="layer2"
     inkscape:label="Camada Granulosa">
    <path
       style="fill:none;stroke:#000000;stroke-width:0.264583px;stroke-linecap:butt;stroke-linejoin:miter;stroke-opacity:1"
       d="m 102.41328,126.94321 c 0.28466,0.0552 0.58084,-0.0146 0.82635,-0.16548 0.27675,-0.17003 0.55074,-0.35434 0.86902,-0.44128 0.32443,-0.0886 0.64091,-0.19104 0.9505,-0.3417 0.10626,-0.0517 0.16734,-0.15968 0.26852,-0.21502 0.13552,-0.0741 0.27769,-0.13806 0.43424,-0.15253 0.11405,-0.0105 0.21691,-0.0587 0.30466,-0.13704 0.52273,-0.46697 1.01349,-0.99983 1.66441,-1.29023 0.41283,-0.18418 0.90197,-0.0213 1.30225,-0.24546 0.59935,-0.33561 1.06504,-0.8887 1.71533,-1.13321 0.65093,-0.24475 1.35802,-0.17601 2.03616,-0.26277 0.31867,-0.0408 0.63611,-0.12742 0.90801,-0.30625 0.31636,-0.20807 0.60461,-0.45717 0.94248,-0.63379 0.87977,-0.4599 1.88843,-0.58793 2.78106,-1.01245 0.315,-0.14981 0.6049,-0.3857 0.95947,-0.42507 0.26703,-0.0297 0.53964,0.0337 0.80323,-0.0552 0.52727,-0.17787 0.99924,-0.49895 1.55591,-0.60043 0.43011,-0.0784 0.88041,-0.0819 1.28996,-0.24 0.19239,-0.0743 0.3622,-0.19461 0.53932,-0.29869 0.51808,-0.30444 1.10521,-0.46089 1.68214,-0.61013 0.70298,-0.18184 1.40691,-0.3733 2.06989,-0.67927 0.28195,-0.13012 0.54884,-0.30286 0.84859,-0.38567 0.17446,-0.0482 0.35758,-0.0451 0.52866,-0.11773 2.4003,-1.01895 4.65462,-2.35793 6.77367,-3.86889 0.26188,-0.18673 0.46299,-0.44458 0.61753,-0.72416 0.082,-0.14833 0.20254,-0.26735 0.33509,-0.3733 0.67178,-0.53696 1.40344,-0.99955 2.0464,-1.5713 0.10608,-0.0943 0.12549,-0.25189 0.25725,-0.32894 0.16165,-0.0945 0.32492,-0.18819 0.45076,-0.33453 0.62556,-0.72745 1.14573,-1.56164 1.90887,-2.15756 0.79733,-0.62262 1.79658,-0.88969 2.66042,-1.39597 0.33736,-0.19772 0.6807,-0.40823 0.93574,-0.70412 0.10637,-0.12341 0.17193,-0.28208 0.32609,-0.3649 0.6806,-0.36563 1.42023,-0.60617 2.16254,-0.81028 0.79278,-0.21799 1.61118,-0.72121 2.40933,-0.52352 0.15023,0.0372 0.27897,0.13797 0.44258,0.14432 0.31567,0.0123 0.66968,-0.13531 0.94886,0.0257 0.11412,0.0658 0.17249,0.19423 0.33744,0.19543 0.31536,0.002 0.62221,-0.0849 0.92987,-0.14365 0.3251,-0.0621 0.65225,-0.11313 0.98505,-0.13643 0.1404,-0.01 0.20366,0.12934 0.27556,0.22326 0.22809,0.29795 0.43559,0.63206 0.7544,0.83816 0.265,0.17131 0.59592,0.13186 0.89372,0.11127 0.26243,-0.0181 0.53705,0.0261 0.75449,0.18809 0.38304,0.28532 0.53603,0.75741 0.81105,1.13042 0.33964,0.46066 0.7544,0.87133 0.99948,1.39813 0.17208,0.36989 0.23362,0.79875 0.47766,1.12619 0.12741,0.17095 0.34252,0.23944 0.53949,0.28726 0.16246,0.0394 0.3138,0.11934 0.42591,0.24669 0.36465,0.41424 0.54577,0.94635 0.82538,1.41473 0.3408,0.57087 0.60584,1.18292 0.82675,1.80923 0.13598,0.38553 0.29622,0.77674 0.58828,1.07322 0.40893,0.41511 0.93554,0.68629 1.45188,0.94213 0.47163,0.23369 0.96,0.43072 1.45977,0.59802 0.19229,0.0644 0.40051,0.0891 0.58091,0.18084 0.1071,0.0545 0.17252,0.23219 0.29565,0.20194 0.0833,-0.0205 0.0418,-0.15461 0.0627,-0.21831"
       id="path55"
       inkscape:path-effect="#path-effect57"
       inkscape:original-d="m 102.41328,126.94321 c 0.65661,0.10856 0.91274,-0.28981 1.43126,-0.51499 0.36762,-0.15964 0.77779,-0.16743 1.123,-0.37633 0.45083,-0.27281 0.0913,-0.15508 0.57251,-0.37633 0.12588,-0.0579 0.35487,-0.0346 0.46241,-0.12875 0.54904,-0.48053 1.04555,-1.03971 1.72852,-1.34688 0.40087,-0.18029 0.90762,-0.0296 1.28814,-0.23769 0.60224,-0.32928 1.15168,-0.94804 1.8056,-1.16861 0.78206,-0.2638 1.66957,-0.10009 2.44417,-0.33672 0.42392,-0.12951 0.74396,-0.46407 1.11198,-0.69326 0.88358,-0.55024 2.00114,-0.71874 2.95061,-1.11909 0.29464,-0.12424 0.66604,-0.39713 0.99088,-0.45557 0.28837,-0.0519 0.51547,0.046 0.81472,-0.0495 0.44864,-0.1432 0.83879,-0.40477 1.28814,-0.54469 0.40478,-0.12603 1.40453,-0.17908 1.72852,-0.36643 0.27629,-0.15975 0.53924,-0.33309 0.83675,-0.45556 0.94944,-0.39084 2.04148,-0.52433 2.98364,-0.92103 0.36905,-0.1554 0.72121,-0.34899 1.08996,-0.50508 0.22375,-0.0947 0.38582,-0.0497 0.57251,-0.12875 2.42741,-1.02754 4.58783,-2.3437 6.75998,-3.84257 0.62558,-0.43168 0.63305,-0.83741 0.92482,-1.06958 0.69955,-0.55666 1.39141,-1.12276 2.12488,-1.63409 0.11134,-0.0776 0.13168,-0.24445 0.22019,-0.30701 0.14836,-0.10485 0.32749,-0.16514 0.4514,-0.30701 0.60263,-0.6899 1.12478,-1.49452 1.81662,-2.09955 0.77465,-0.67747 1.83855,-1.00157 2.73041,-1.47563 0.33247,-0.17672 0.7012,-0.46239 0.97986,-0.71305 0.13124,-0.11805 0.16024,-0.2865 0.31929,-0.37634 1.1603,-0.65535 3.33776,-1.15824 4.61308,-1.35678 0.0431,-0.007 0.26003,0.12975 0.35232,0.13865 0.31521,0.0304 0.6957,-0.0573 1.00188,0.0198 0.22152,0.0558 0.0569,0.21252 0.44039,0.20798 0.45145,-0.005 1.64423,-0.3865 1.95974,-0.2575 0.0762,0.0312 0.63785,0.94777 1.03491,1.0993 0.45844,0.17495 0.96746,-0.0861 1.40925,0.15845 0.4003,0.22159 0.57108,0.64143 0.7927,1.00026 0.28197,0.45655 0.71132,0.84568 0.99088,1.31717 0.2452,0.41357 0.40801,0.98377 0.61654,1.3964 0.11217,0.22196 0.58256,0.29838 0.74866,0.37634 0.42107,0.19761 0.76228,1.10505 1.00189,1.50534 1.50375,2.51209 0.34656,2.76543 3.49008,4.17929 0.45921,0.20654 0.95089,0.3535 1.43127,0.49517 0.13541,0.0399 0.26938,0.29248 0.37434,0.19808 0.008,-0.007 0.0208,-0.19048 0.022,-0.19808"
       clip-path="url(#clipPath247)" />
    <path
       style="fill:none;stroke:#000000;stroke-width:0.264583px;stroke-linecap:butt;stroke-linejoin:miter;stroke-opacity:1"
       d="m 164.24401,115.67298 c -0.026,0.45222 -0.0947,0.90337 -0.078,1.35679 0.002,0.0456 0.0531,0.0622 0.0894,0.0718 0.0457,0.0121 0.0853,0.0365 0.12346,0.065 0.18521,0.13815 0.38732,0.25961 0.61038,0.32528 0.1484,0.0437 0.30509,0.0549 0.45896,0.0405 0.21715,-0.0203 0.42704,-0.0907 0.64587,-0.098 0.15929,-0.005 0.31905,0.03 0.46275,0.0986 0.15931,0.076 0.30867,0.17102 0.45566,0.26821 0.45241,0.29915 0.88652,0.62664 1.35474,0.90127 0.19003,0.11146 0.38421,0.21944 0.59293,0.29156 0.11877,0.041 0.24395,0.0749 0.3706,0.0662 0.0448,-0.003 0.0895,-0.0122 0.13098,-0.0299"
       id="path59"
       inkscape:path-effect="#path-effect61"
       inkscape:original-d="m 164.24401,115.67298 c -0.026,0.45226 -0.0848,0.90383 -0.078,1.35679 0.001,0.069 0.12148,0.0668 0.17616,0.10893 1.05092,0.81029 1.40591,0.0943 2.12489,0.35653 0.652,0.23777 2.36044,1.80529 2.99464,1.53505" />
    <path
       style="fill:none;stroke:#000000;stroke-width:0.264583px;stroke-linecap:butt;stroke-linejoin:miter;stroke-opacity:1"
       d="m 125.21355,98.432727 c 0.38559,-0.200739 1.23557,-1.03071 1.15627,-0.603329 -0.0176,0.09501 -0.16465,0.212753 -0.24483,0.303819 -0.11705,0.132946 -0.38614,0.585472 -0.31132,0.433547 0.0806,-0.163753 0.26732,-0.340684 0.19742,-0.514248 -0.0668,-0.165916 -0.28291,-1.67e-4 -0.37679,0.06498 -0.16242,0.112709 -0.35967,0.200565 -0.46831,0.365793 -0.14199,0.215953 0.0275,0.550198 -0.17251,0.720499 -0.23408,0.199329 -0.5115,0.340085 -0.78207,0.482685 -0.74232,0.391226 -1.47575,0.813736 -2.26619,1.095516 -0.2937,0.1047 -0.5977,0.1792 -0.89861,0.26088 -0.90523,0.24571 -1.80434,0.51438 -2.68686,0.8344 -0.93454,0.33889 -1.86812,0.70698 -2.85257,0.87506 -0.30901,0.0528 -0.62464,0.0307 -0.93034,-0.0398 -0.4285,-0.0987 -0.8804,-0.0556 -1.2935,0.0929 -0.66804,0.24013 -1.37481,0.34085 -2.07471,0.43568 -0.43368,0.0588 -0.8638,0.15582 -1.3007,0.17933 -0.288,0.0155 -0.57851,0.024 -0.85738,0.11294 -0.55301,0.17641 -1.06363,0.47083 -1.6423,0.57709 -0.91931,0.16881 -1.85452,0.28884 -2.74351,0.58314 -0.46661,0.15447 -0.9272,0.33709 -1.41988,0.40019 -1.14008,0.14602 -2.29678,0.0871 -3.433423,0.27802 -1.329822,0.2234 -2.634673,0.63617 -3.987852,0.68527 -0.741311,0.0269 -1.485912,-0.0969 -2.224613,0.0219 -0.64676,0.10396 -1.284268,0.25741 -1.921211,0.40866 -1.216103,0.28878 -2.436858,0.58687 -3.599342,1.04888 -0.747269,0.29699 -1.407836,0.81686 -2.207602,0.97062 -1.295743,0.24912 -2.626179,0.21341 -3.921668,0.47485 -1.522513,0.30726 -2.989002,0.83178 -4.48758,1.23119 -0.852929,0.22733 -1.75674,0.11431 -2.610661,0.31797 -0.383611,0.0915 -0.716646,0.31167 -1.084198,0.44854 -0.721796,0.26878 -1.465701,0.47333 -2.186241,0.7459 -0.382328,0.14463 -0.780029,0.26544 -1.130143,0.47848 -0.482256,0.29345 -0.835625,0.77412 -1.379477,0.97674 -0.162064,0.0604 -0.330029,0.0116 -0.499377,0.0447 -0.29925,0.0585 -0.588199,0.15851 -0.86316,0.2912 -0.808608,0.39023 -1.482263,1.02765 -2.334238,1.33198 -0.734558,0.26239 -1.538286,0.26667 -2.254797,0.59325 -1.002573,0.45697 -1.796523,1.31075 -2.85909,1.63351 -0.274366,0.0833 -0.550722,0.1643 -0.808457,0.29385 -0.979888,0.49255 -1.679492,1.37663 -2.623505,1.92723 -0.268289,0.15648 -0.563741,0.25726 -0.865915,0.32584 -0.286746,0.0651 -0.550312,0.19353 -0.825083,0.30378 -0.07599,0.0305 -0.289559,0.15674 -0.271627,0.12674 0.04292,-0.0718 0.119268,-0.0966 0.194622,-0.11934"
       id="path67"
       inkscape:path-effect="#path-effect69"
       inkscape:original-d="m 125.21355,98.432727 c 0.37825,-0.198006 0.75454,-0.399817 1.13476,-0.594016 0.14468,-0.0739 -0.2054,0.252243 -0.29726,0.386242 -0.82095,1.197509 0.86786,-1.184955 -0.8375,0.207774 -0.19847,0.162087 -0.065,0.523579 -0.19742,0.742963 -0.16174,0.267984 -2.93187,1.57533 -3.17081,1.64399 -0.8457,0.24301 -1.71792,0.46242 -2.55426,0.73286 -1.1125,0.35974 -2.18349,0.83988 -3.32494,1.1092 -1.26104,0.29753 -1.18548,-0.0414 -2.01478,0 -0.44971,0.0225 -0.67848,0.17431 -1.16704,0.29711 -0.75609,0.19003 -1.92596,0.32505 -2.73041,0.44565 -0.25778,0.0387 -0.5261,0.0131 -0.7817,0.0693 -0.59803,0.1315 -1.13477,0.50321 -1.73953,0.61402 -0.88333,0.16185 -1.7968,0.30677 -2.66436,0.54469 -0.48706,0.13357 -0.93754,0.35866 -1.44228,0.43576 -1.10321,0.16851 -2.22543,0.0939 -3.32494,0.25749 -1.373575,0.20438 -2.740042,0.62076 -4.128652,0.72296 -0.63495,0.0467 -1.27149,-0.0539 -1.904685,-0.0198 -0.533334,0.0287 -1.165696,0.18146 -1.684491,0.2971 -1.388772,0.30954 -2.856289,0.68315 -4.194715,1.16862 -0.784508,0.28455 -1.536637,0.8655 -2.356083,1.02006 -1.195559,0.2255 -2.419895,0.18782 -3.622204,0.41595 -1.598173,0.30324 -3.069989,0.78882 -4.624094,1.24785 -0.886047,0.26171 -1.769988,0.19482 -2.653347,0.33672 -0.352467,0.0566 -0.664848,0.26522 -0.990878,0.39614 -0.621617,0.24962 -1.258998,0.42459 -1.882664,0.64373 -0.462206,0.16241 -1.023292,0.36127 -1.453287,0.5645 -0.569256,0.26905 -0.957292,0.89824 -1.563383,1.06959 -0.116584,0.033 -0.242216,0.007 -0.363324,0.01 -0.190836,0.0495 -0.386992,0.0818 -0.572505,0.14856 -0.881242,0.31707 -1.542891,0.93952 -2.367095,1.34688 -0.874228,0.43208 -1.689711,0.34338 -2.543251,0.71305 -1.10186,0.47722 -2.000126,1.42314 -3.148785,1.73312 -1.42893,0.38561 -2.184276,1.71409 -3.523118,2.30753 -0.394152,0.1747 -0.852715,0.19654 -1.233093,0.39614 -0.246457,0.12932 -0.453599,0.24561 -0.440389,0.22778 0.08189,-0.1105 0.09255,-0.0967 0.209185,-0.13865"
       clip-path="url(#clipPath257)" />
    <path
       style="fill:none;stroke:#000000;stroke-width:0.264583px;stroke-linecap:butt;stroke-linejoin:miter;stroke-opacity:1"
       d="m 55.060222,119.93356 c 0.585479,-0.34662 2.291049,-0.61743 1.756595,-1.03992 -0.05137,-0.0406 -0.131426,-0.033 -0.195593,-0.0296 -0.399213,0.0215 -0.793932,0.10765 -1.170047,0.24349 -0.428863,0.15489 -0.85794,0.32415 -1.312822,0.38564 -0.450755,0.0609 -0.906494,0.0608 -1.360131,0.0816 -0.343029,0.0158 -0.683849,0.0605 -1.021811,0.12097 -0.763729,0.13673 -1.52132,0.32966 -2.298785,0.3707 -0.214839,0.0113 -0.430843,-0.0227 -0.63218,-0.0985 -0.198535,-0.0747 -0.403296,-0.13336 -0.614224,-0.1618 -0.595645,-0.0803 -1.197681,-0.0353 -1.796261,-0.0687 -0.659082,-0.0367 -1.312956,-0.13583 -1.971654,-0.17589 -0.696929,-0.0424 -1.403932,-0.004 -2.089989,-0.15529 -0.61902,-0.13669 -1.165522,-0.4865 -1.77555,-0.64763 -0.334253,-0.0883 -0.697526,-0.0356 -1.017319,-0.18484 -0.256104,-0.11955 -0.479479,-0.29548 -0.740265,-0.4094 -0.669312,-0.29238 -1.300695,-0.66814 -1.986375,-0.92388 -0.240824,-0.0898 -0.491934,-0.15048 -0.748108,-0.17821 -0.490641,-0.0531 -0.990007,-0.0639 -1.467738,-0.2018 -0.310674,-0.0897 -0.621301,-0.19203 -0.947431,-0.2107 -0.482561,-0.0276 -0.981752,0.0421 -1.447706,-0.10608 -0.279472,-0.0889 -0.536545,-0.23825 -0.816496,-0.32425 -0.767399,-0.23575 -1.587927,-0.16178 -2.361122,-0.37077 -1.394081,-0.37682 -2.729853,-0.95619 -4.143589,-1.25833 -1.286529,-0.27495 -2.584141,-0.50437 -3.85607,-0.84169 -0.262212,-0.0695 -0.537275,-0.11154 -0.780077,-0.23398 -0.03125,-0.0158 -0.0682,-0.0285 -0.08908,-0.0583"
       id="path71"
       inkscape:path-effect="#path-effect73"
       inkscape:original-d="m 55.060222,119.93356 c 0.585531,-0.34664 1.194319,-0.65671 1.756595,-1.03992 0.007,-0.005 -0.03658,-0.0584 -0.429381,-0.01 -0.318286,0.0393 -0.577067,0.0954 -0.891789,0.20797 -0.638855,0.22856 -1.00039,0.38842 -1.684491,0.43576 -0.591008,0.0409 -1.173475,0.0264 -1.761559,0.11884 -0.834276,0.1312 -1.665044,0.35747 -2.510221,0.41595 -0.603911,0.0418 -0.711956,-0.15078 -1.211072,-0.23768 -0.449752,-0.0783 -0.953331,-0.0648 -1.409245,-0.0693 -0.779372,-0.008 -1.499605,-0.11164 -2.268008,-0.17826 -0.740968,-0.0642 -1.4556,-0.0111 -2.190938,-0.14855 -0.656783,-0.12277 -1.203052,-0.45429 -1.827617,-0.65364 -0.290338,-0.0927 -0.606168,-0.0586 -0.902801,-0.13865 -0.313303,-0.0846 -0.552135,-0.32426 -0.847749,-0.44566 -0.742698,-0.30499 -1.864714,-1.00321 -2.64234,-1.10919 -0.465873,-0.0635 -0.963322,-0.0637 -1.420255,-0.16837 -0.364056,-0.0834 -0.690356,-0.2281 -1.067948,-0.25749 -0.489976,-0.0381 -1.03587,0.0215 -1.519341,-0.10894 -0.192227,-0.0519 -0.693269,-0.28563 -0.82573,-0.32681 -0.7449,-0.23163 -1.580202,-0.16003 -2.345076,-0.36643 -1.369552,-0.36959 -2.668275,-0.90165 -4.051585,-1.23795 -0.529949,-0.12883 -4.721821,-0.93815 -4.833278,-1.15871" />
    <path
       style="fill:none;stroke:#000000;stroke-width:0.264583px;stroke-linecap:butt;stroke-linejoin:miter;stroke-opacity:1"
       d="m 20.176394,113.4564 c -0.0086,0.0812 -0.08011,0.1372 -0.147844,0.17122 -0.156208,0.0785 -0.332883,0.10504 -0.505731,0.1111 -0.33366,0.0117 -0.670575,-0.0542 -0.972738,-0.19824 -0.522282,-0.24891 -0.935658,-0.6704 -1.445913,-0.93973 -0.197925,-0.10447 -0.413194,-0.17428 -0.63475,-0.20847 -0.581471,-0.0897 -1.171278,-0.0465 -1.756748,-0.0442 -0.266445,0.001 -0.534291,0.002 -0.798714,-0.0337 -0.445466,-0.0598 -0.874119,-0.21871 -1.325028,-0.2423 -0.333894,-0.0175 -0.66179,0.0644 -0.982314,0.14759 -0.291265,0.0756 -0.586813,0.1466 -0.889432,0.15324 -0.469368,0.0103 -0.9352985,-0.0884 -1.4044033,-0.0638 -0.3393762,0.0178 -0.6554078,0.1689 -0.9968948,0.17806 -1.2591419,0.0338 -2.5130675,-0.17013 -3.7723964,-0.10521 -0.3561507,0.0184 -0.7093371,0.0707 -1.0605237,0.13301 -0.2717074,0.0482 -0.5499168,0.0179 -0.8183256,-0.0369 -0.2871665,-0.0586 -0.5700185,-0.14758 -0.8633957,-0.16801 -0.2987521,-0.0208 -0.5885162,0.0697 -0.8767708,0.13419 -0.0954261,0.0213 -0.19044118,0.0533 -0.2883362,0.055 -0.13216975,0.002 -0.25745419,-0.0527 -0.36924276,-0.11798 -0.10855001,-0.0634 -0.19684652,-0.1553 -0.30040589,-0.22725 -0.01630806,-0.0113 -0.04392814,-0.0589 -0.0028554,-0.0457 0.0234999,0.008 0.04532911,0.0194 0.06693816,0.0311"
       id="path75"
       inkscape:path-effect="#path-effect77"
       inkscape:original-d="m 20.176394,113.4564 c -0.02048,0.22866 -0.613867,0.36748 -1.220076,0.22798 -0.914451,-0.21043 -1.48743,-1.11336 -2.400123,-1.27756 -0.821048,-0.14771 -1.692239,-0.01 -2.521232,-0.0792 -0.514393,-0.0431 -1.054338,-0.26789 -1.574394,-0.25749 -0.556437,0.0111 -1.064985,0.25881 -1.618431,0.29711 -0.480985,0.0333 -1.0072597,-0.0717 -1.4973262,-0.0594 -0.3426283,0.009 -0.6545273,0.16818 -0.9908757,0.17826 -1.6237424,0.0487 -3.2241336,-0.30203 -4.8222664,0.0198 -0.5967635,0.12018 -1.0814282,-0.11491 -1.6514606,-0.18817 -0.4239003,-0.0545 -0.8022969,0.11337 -1.21107312,0.17826 -0.34385596,0.0546 -0.96112276,-0.53508 -0.63856639,-0.35653" />
    <path
       style="fill:none;stroke:#000000;stroke-width:0.264583px;stroke-linecap:butt;stroke-linejoin:miter;stroke-opacity:1"
       d="m 114.25419,103.02326 c 0.11621,-0.22316 0.18692,-0.47718 0.35132,-0.66922 0.11657,-0.13617 0.3159,-0.12795 0.44019,-0.26249 0.42608,-0.46122 0.7928,-0.97176 1.18211,-1.46485 0.28972,-0.36695 0.72929,-0.57142 1.01907,-0.943058 0.53051,-0.680368 0.88451,-1.48477 1.43533,-2.147559 0.277,-0.333308 0.67741,-0.536078 0.9378,-0.888369 0.34678,-0.469169 0.54154,-1.03839 0.94796,-1.467032 0.34077,-0.359406 0.73253,-0.666718 1.05329,-1.04682 0.72189,-0.855441 1.26037,-1.855537 2.06085,-2.647955 0.55314,-0.547572 1.20537,-1.004617 1.66971,-1.63297 0.10098,-0.136649 0.0829,-0.312525 0.15469,-0.464698 0.33679,-0.713495 0.75241,-1.389574 1.05277,-2.119518 0.17462,-0.424363 0.30762,-0.894628 0.65742,-1.212628 1.03406,-0.940046 2.21759,-1.700491 3.26247,-2.626048 0.2035,-0.180261 0.36708,-0.40386 0.60174,-0.551079 1.03392,-0.648641 2.10742,-1.229837 3.18018,-1.810586 0.60913,-0.329758 1.33549,-0.396546 1.91348,-0.783818 0.3424,-0.229418 0.6121,-0.552545 0.98362,-0.745409 1.66186,-0.862704 3.47992,-1.350148 5.24996,-1.938927 0.34368,-0.11432 0.70096,-0.178672 1.06052,-0.220009 0.35278,-0.04056 0.71484,-0.03853 1.05717,-0.135926 0.31857,-0.09064 0.61871,-0.272275 0.95199,-0.287158 0.40752,-0.0182 0.77605,0.207648 1.18424,0.208259 0.8745,0.0013 1.73357,-0.239606 2.60591,-0.231267 0.48799,0.0047 0.97127,0.08674 1.45112,0.167609 0.363,0.06117 0.72997,0.09902 1.09098,0.170852 0.10948,0.02178 0.22026,0.05365 0.29055,0.164655 0.11447,0.180787 0.33509,0.241217 0.52209,0.31547 0.34298,0.136187 0.67448,0.315078 1.03534,0.392849 0.51382,0.110735 1.04034,-0.09514 1.5512,-0.0026 0.31816,0.05766 0.53852,0.349574 0.86432,0.386689 0.80157,0.09131 1.62051,0.114555 2.41415,-0.05105 0.75492,-0.157526 1.47814,-0.516417 2.25702,-0.511594 0.16603,0.001 0.34944,-0.02311 0.49719,0.06055 0.21146,0.119745 0.30105,0.387955 0.5475,0.462677 0.39981,0.12122 0.82157,0.133547 1.23502,0.169052 0.35931,0.03086 0.73096,0.01991 1.07467,0.133994 0.42962,0.142592 0.77489,0.446097 1.12334,0.721565 0.17921,0.141675 0.38774,0.237736 0.60583,0.305689 0.22279,0.06942 0.50153,0.07653 0.65237,0.259807 0.12898,0.156718 0.14883,0.367086 0.21958,0.55182 0.0723,0.188669 0.25831,0.298616 0.4281,0.386646 0.28674,0.148666 0.58999,0.263113 0.89578,0.36453 0.42625,0.141367 0.88061,0.05178 1.3057,-0.05577 0.21483,-0.05436 0.43153,-0.156314 0.65547,-0.122939 0.0265,0.0039 0.0526,0.01062 0.0773,0.0209"
       id="path294"
       inkscape:path-effect="#path-effect296"
       inkscape:original-d="m 114.25419,103.02326 c 0.0991,-0.19808 0.18542,-0.40306 0.29727,-0.59422 0.13902,-0.2376 0.32152,-0.14975 0.48442,-0.32681 0.41924,-0.45569 0.80566,-0.91398 1.15603,-1.42612 0.24506,-0.35821 0.71463,-0.566 0.99087,-0.911121 0.55322,-0.691155 0.94284,-1.461005 1.45329,-2.168874 0.23698,-0.328629 0.62552,-0.51635 0.89179,-0.831901 0.34241,-0.40578 0.51805,-0.907155 0.82573,-1.327073 0.3013,-0.411205 0.73476,-0.716444 1.07896,-1.08939 0.68731,-0.744723 1.18976,-1.668126 1.84963,-2.43627 0.62389,-0.726263 1.43304,-1.292878 2.04782,-2.030225 0.12697,-0.152286 0.0779,-0.283485 0.15413,-0.445658 0.31707,-0.674159 0.68469,-1.321637 1.00189,-2.000518 0.23662,-0.50642 0.33358,-1.023014 0.77068,-1.416206 1.02144,-0.918826 2.10684,-1.699725 3.18182,-2.555113 0.22316,-0.177577 0.33916,-0.392956 0.59452,-0.554598 1.02001,-0.645665 2.11882,-1.196549 3.1598,-1.802448 0.57747,-0.336116 1.28485,-0.436088 1.88267,-0.762571 0.36153,-0.197443 0.61633,-0.558567 1.00188,-0.762572 1.72015,-0.910185 3.67044,-1.483484 5.52689,-2.04013 0.62928,-0.188685 1.21438,-0.164992 1.83863,-0.277299 0.21971,-0.03953 0.76309,-0.286631 1.03492,-0.30701 0.3457,-0.0259 0.75877,0.204526 1.12299,0.207976 0.87154,0.0083 1.72298,-0.167973 2.58728,-0.227782 0.53176,-0.0368 1.86228,0.233651 2.43316,0.307012 0.68789,0.08839 0.27764,0.148563 0.69362,0.37633 0.10702,0.0586 1.21334,0.497588 1.34318,0.524891 0.4973,0.104574 0.98918,-0.0383 1.48632,-0.0099 0.35444,0.02024 0.56804,0.355656 0.94684,0.39614 0.82779,0.08847 1.55619,0.110995 2.3781,-0.04952 0.78324,-0.152961 1.83589,-0.621961 2.65335,-0.495178 0.28315,0.04391 0.36293,0.388196 0.61655,0.485272 0.51757,0.19812 1.62464,0.161666 2.268,0.297108 0.49088,0.103341 0.97186,0.600226 1.39824,0.871514 0.32691,0.208002 0.722,0.211987 1.04592,0.415946 0.1651,0.103955 0.1819,0.558208 0.3303,0.713058 0.26998,0.281704 0.77678,0.431591 1.134,0.574402 0.92939,0.371555 1.76231,-0.278506 2.1469,-0.118843" />
    <path
       style="fill:none;stroke:#000000;stroke-width:0.264583px;stroke-linecap:butt;stroke-linejoin:miter;stroke-opacity:1"
       d="m 114.25419,103.02326 c 0.002,-0.0488 0.0139,-0.0965 0.0262,-0.14355 0.0169,-0.0649 0.0389,-0.12869 0.0488,-0.19507 0.006,-0.0375 0.0129,-0.079 -0.005,-0.11437 -0.0149,-0.0301 -0.0556,-0.0403 -0.0846,-0.0282 -0.0233,0.01 -0.0262,0.0386 -0.0242,0.0604 0.004,0.0427 0.0172,0.0838 0.0298,0.12457 0.0166,0.0536 0.0363,0.10675 0.0453,0.16231 0.006,0.0368 0.0126,0.0796 -0.0101,0.11175 -0.0179,0.0254 -0.0506,0.0333 -0.0793,0.0387 -0.0549,0.0103 -0.1113,0.009 -0.16668,0.004 -0.0967,-0.009 -0.19219,-0.028 -0.28696,-0.0489 -0.13253,-0.0292 -0.2636,-0.0647 -0.39644,-0.0923 -0.0586,-0.0122 -0.11743,-0.0257 -0.17732,-0.0282 -0.033,-0.001 -0.0685,-0.003 -0.0988,0.0123 -0.0172,0.009 -0.0241,0.0299 -0.0198,0.0481 0.004,0.0171 0.008,0.0374 0.0233,0.0475 0.0179,0.0117 0.0402,0.002 0.0567,-0.007 0.0356,-0.02 0.0667,-0.0468 0.10093,-0.069 0.033,-0.0214 0.0697,-0.0435 0.11115,-0.0397 0.22875,0.0212 0.45367,0.0697 0.6786,0.11465 0.0759,0.0152 0.15178,0.0299 0.22799,0.0431"
       id="path302"
       inkscape:path-effect="#path-effect304"
       inkscape:original-d="m 114.25419,103.02326 c 0.004,-0.16176 0.17277,-0.48161 0.011,-0.48528 -0.16177,-0.004 0.13545,0.41654 -0.011,0.48528 -0.28153,0.13213 -1.31549,-0.34053 -1.18905,-0.0594 0.04,0.0889 0.17813,-0.10778 0.27524,-0.099 0.30791,0.0277 0.60921,0.10564 0.91381,0.15846" />
  </g>
</svg>
