<?xml version="1.0" encoding="UTF-8" standalone="no"?>
<!-- Created with Inkscape (http://www.inkscape.org/) -->

<svg
   width="353.56799mm"
   height="264.16mm"
   viewBox="0 0 353.56799 264.16"
   version="1.1"
   id="svg5"
   inkscape:version="1.1.2 (08b2f3d93c, 2022-04-05)"
   sodipodi:docname="CanalDeHarvers.svg"
   xmlns:inkscape="http://www.inkscape.org/namespaces/inkscape"
   xmlns:sodipodi="http://sodipodi.sourceforge.net/DTD/sodipodi-0.dtd"
   xmlns="http://www.w3.org/2000/svg"
   xmlns:svg="http://www.w3.org/2000/svg">
  <sodipodi:namedview
     id="namedview7"
     pagecolor="#ffffff"
     bordercolor="#666666"
     borderopacity="1.0"
     inkscape:pageshadow="2"
     inkscape:pageopacity="0.0"
     inkscape:pagecheckerboard="0"
     inkscape:document-units="mm"
     showgrid="false"
     inkscape:zoom="0.38254353"
     inkscape:cx="185.59979"
     inkscape:cy="735.86397"
     inkscape:window-width="1366"
     inkscape:window-height="704"
     inkscape:window-x="0"
     inkscape:window-y="27"
     inkscape:window-maximized="1"
     inkscape:current-layer="layer2" />
  <defs
     id="defs2">
    <inkscape:path-effect
       effect="simplify"
       id="path-effect183"
       is_visible="true"
       lpeversion="1"
       steps="1"
       threshold="0.000408163"
       smooth_angles="360"
       helper_size="0"
       simplify_individual_paths="false"
       simplify_just_coalesce="false" />
    <inkscape:path-effect
       effect="simplify"
       id="path-effect179"
       is_visible="true"
       lpeversion="1"
       steps="1"
       threshold="0.000408163"
       smooth_angles="360"
       helper_size="0"
       simplify_individual_paths="false"
       simplify_just_coalesce="false" />
    <inkscape:path-effect
       effect="simplify"
       id="path-effect175"
       is_visible="true"
       lpeversion="1"
       steps="1"
       threshold="0.000408163"
       smooth_angles="360"
       helper_size="0"
       simplify_individual_paths="false"
       simplify_just_coalesce="false" />
    <inkscape:path-effect
       effect="simplify"
       id="path-effect171"
       is_visible="true"
       lpeversion="1"
       steps="1"
       threshold="0.000408163"
       smooth_angles="360"
       helper_size="0"
       simplify_individual_paths="false"
       simplify_just_coalesce="false" />
    <inkscape:path-effect
       effect="simplify"
       id="path-effect167"
       is_visible="true"
       lpeversion="1"
       steps="1"
       threshold="0.000408163"
       smooth_angles="360"
       helper_size="0"
       simplify_individual_paths="false"
       simplify_just_coalesce="false" />
    <inkscape:path-effect
       effect="simplify"
       id="path-effect163"
       is_visible="true"
       lpeversion="1"
       steps="1"
       threshold="0.000408163"
       smooth_angles="360"
       helper_size="0"
       simplify_individual_paths="false"
       simplify_just_coalesce="false" />
    <inkscape:path-effect
       effect="simplify"
       id="path-effect159"
       is_visible="true"
       lpeversion="1"
       steps="1"
       threshold="0.000408163"
       smooth_angles="360"
       helper_size="0"
       simplify_individual_paths="false"
       simplify_just_coalesce="false" />
    <inkscape:path-effect
       effect="simplify"
       id="path-effect89"
       is_visible="true"
       lpeversion="1"
       steps="1"
       threshold="0.000408163"
       smooth_angles="360"
       helper_size="0"
       simplify_individual_paths="false"
       simplify_just_coalesce="false" />
    <inkscape:path-effect
       effect="simplify"
       id="path-effect85"
       is_visible="true"
       lpeversion="1"
       steps="1"
       threshold="0.000408163"
       smooth_angles="360"
       helper_size="0"
       simplify_individual_paths="false"
       simplify_just_coalesce="false" />
    <inkscape:path-effect
       effect="simplify"
       id="path-effect81"
       is_visible="true"
       lpeversion="1"
       steps="1"
       threshold="0.000408163"
       smooth_angles="360"
       helper_size="0"
       simplify_individual_paths="false"
       simplify_just_coalesce="false" />
    <inkscape:path-effect
       effect="simplify"
       id="path-effect77"
       is_visible="true"
       lpeversion="1"
       steps="1"
       threshold="0.000408163"
       smooth_angles="360"
       helper_size="0"
       simplify_individual_paths="false"
       simplify_just_coalesce="false" />
    <inkscape:path-effect
       effect="simplify"
       id="path-effect73"
       is_visible="true"
       lpeversion="1"
       steps="1"
       threshold="0.000408163"
       smooth_angles="360"
       helper_size="0"
       simplify_individual_paths="false"
       simplify_just_coalesce="false" />
    <inkscape:path-effect
       effect="simplify"
       id="path-effect69"
       is_visible="true"
       lpeversion="1"
       steps="1"
       threshold="0.000408163"
       smooth_angles="360"
       helper_size="0"
       simplify_individual_paths="false"
       simplify_just_coalesce="false" />
    <inkscape:path-effect
       effect="simplify"
       id="path-effect65"
       is_visible="true"
       lpeversion="1"
       steps="1"
       threshold="0.000408163"
       smooth_angles="360"
       helper_size="0"
       simplify_individual_paths="false"
       simplify_just_coalesce="false" />
    <inkscape:path-effect
       effect="simplify"
       id="path-effect61"
       is_visible="true"
       lpeversion="1"
       steps="1"
       threshold="0.000408163"
       smooth_angles="360"
       helper_size="0"
       simplify_individual_paths="false"
       simplify_just_coalesce="false" />
    <inkscape:path-effect
       effect="simplify"
       id="path-effect57"
       is_visible="true"
       lpeversion="1"
       steps="1"
       threshold="0.000408163"
       smooth_angles="360"
       helper_size="0"
       simplify_individual_paths="false"
       simplify_just_coalesce="false" />
  </defs>
  <g
     inkscape:groupmode="layer"
     id="layer2"
     inkscape:label="Canal de HArvers">
    <path
       style="fill:none;stroke:#000000;stroke-width:0.264583px;stroke-linecap:butt;stroke-linejoin:miter;stroke-opacity:1"
       d="m 318.53608,87.159853 c 0.0857,0.104287 0.1497,0.368543 0.33713,0.194054 0.29952,-0.278835 0.44294,-0.677344 0.5799,-1.052511 0.17836,-0.488566 0.26865,-1.012105 0.50862,-1.475308 0.51,-0.984432 1.01678,-1.972128 1.58564,-2.923687 0.3184,-0.532603 0.81529,-0.990568 0.95299,-1.601246 0.0525,-0.232704 -0.0249,-0.4678 0.0353,-0.704971 0.12377,-0.487895 0.43286,-0.910358 0.54492,-1.39915 0.0979,-0.427029 0.006,-0.864249 0.0708,-1.297588 0.25839,-1.730351 0.53072,-3.485306 0.38338,-5.231369 -0.0345,-0.40931 -0.21403,-0.802157 -0.15605,-1.22117 0.0478,-0.345643 0.13386,-0.702409 0.0259,-1.048785 -0.12248,-0.392865 -0.37034,-0.761265 -0.34295,-1.189539 0.0266,-0.415736 0.41613,-0.733917 0.37741,-1.154975 -0.021,-0.228585 -0.0962,-0.44656 -0.0845,-0.682218 0.0347,-0.697249 0.15984,-1.412579 -0.043,-2.098146 -0.15339,-0.518302 -0.37403,-1.016388 -0.45517,-1.556766 -0.13688,-0.911577 -0.14829,-1.870081 -0.55736,-2.713512 -0.15743,-0.324591 -0.35488,-0.6529 -0.68032,-0.836269 -0.29145,-0.16422 -0.61149,-0.292597 -0.84009,-0.551714 -0.47253,-0.535615 -0.76293,-1.222004 -1.34235,-1.668594 -0.88516,-0.682238 -1.74404,-1.397065 -2.55075,-2.170956 -0.60505,-0.580436 -1.18269,-1.188881 -1.76187,-1.794944 -0.18345,-0.191966 -0.40844,-0.386296 -0.46466,-0.64892 -0.0546,-0.255088 -0.24786,-0.445783 -0.41634,-0.632039 -0.50273,-0.555784 -1.22158,-0.82042 -1.84819,-1.201749 -0.29431,-0.179106 -0.58555,-0.391464 -0.74369,-0.709613 -0.24575,-0.4944 -0.27214,-1.06905 -0.55568,-1.549979 -0.40559,-0.687952 -1.06628,-1.169498 -1.71531,-1.61124 -1.23788,-0.842528 -2.66255,-1.337978 -3.99643,-1.99953 -0.76077,-0.377313 -1.55686,-0.757114 -2.13669,-1.384392 -0.35679,-0.385989 -0.53424,-0.898565 -0.66482,-1.397087 -0.37157,-1.418601 -0.4488,-2.888702 -0.62554,-4.33855 -0.0569,-0.466944 -0.18876,-0.923519 -0.39812,-1.345672 -0.36907,-0.74419 -0.85141,-1.440403 -1.45248,-2.009662 -0.34643,-0.328097 -0.86587,-0.392957 -1.18234,-0.766796 -0.80306,-0.948635 -1.57459,-1.932448 -2.51048,-2.758003 -1.51018,-1.332146 -3.25913,-2.352001 -5.00555,-3.339751 -0.60098,-0.339905 -1.21621,-0.654987 -1.85364,-0.921986 -1.25697,-0.526509 -2.5875,-0.85055 -3.8581,-1.338207 -0.66358,-0.254683 -1.23185,-0.697467 -1.90164,-0.945358 -1.09276,-0.404434 -2.19961,-0.777515 -3.24774,-1.294922 -0.99898,-0.493145 -2.06692,-0.883327 -2.96114,-1.551992 -0.55141,-0.412325 -1.02789,-0.915729 -1.6022,-1.30258 -0.21676,-0.146007 -0.4841,-0.15837 -0.73401,-0.140239 -0.33297,0.02416 -0.65435,-0.0506 -0.98695,-0.07909 -0.0682,-0.0058 -0.21761,0.0737 -0.062,0.06468 0.23059,-0.01337 0.5085,-0.188488 0.69204,-0.04577 0.10868,0.08451 -0.13764,0.221804 -0.21563,0.275457 -0.32343,0.222502 -0.70582,0.33402 -1.04465,0.528465"
       id="path157"
       inkscape:path-effect="#path-effect159"
       inkscape:original-d="m 318.53608,87.159853 c 0.0843,0.08601 0.15195,0.323723 0.25286,0.258011 0.61677,-0.401632 0.85267,-1.970715 1.17279,-2.591776 0.47596,-0.923462 0.98595,-1.851914 1.4913,-2.761091 0.32554,-0.58565 0.76581,-1.084406 1.02799,-1.70615 0.0849,-0.201248 -0.0122,-0.446514 0.029,-0.651193 0.0952,-0.475178 0.37904,-0.957188 0.5357,-1.393573 0.14814,-0.412668 0.023,-0.864764 0.0869,-1.289373 0.26799,-1.783964 0.44601,-3.461099 0.40539,-5.287756 -0.008,-0.368176 -0.17849,-0.722164 -0.17375,-1.09401 0.005,-0.348483 0.13946,-0.697397 0.0869,-1.041921 -0.0684,-0.448188 -0.36139,-0.785051 -0.39092,-1.26333 -0.0294,-0.475348 0.32665,-0.767178 0.37645,-1.185185 0.0249,-0.207896 -0.0922,-0.437499 -0.0869,-0.651203 0.0172,-0.692431 0.16819,-1.392179 0,-2.083837 -0.12586,-0.517615 -0.37328,-0.979863 -0.46331,-1.510787 -0.1959,-1.155168 -0.16076,-2.392161 -0.86874,-3.386241 -0.32379,-0.454668 -0.81171,-0.458803 -1.17276,-0.833538 -0.48117,-0.499409 -0.77796,-1.264179 -1.34655,-1.693121 -0.88852,-0.67033 -1.66925,-1.498923 -2.5772,-2.188036 -0.18528,-0.140623 -1.90619,-1.932225 -1.95463,-1.992669 -0.5656,-0.705702 -0.0617,-0.359955 -0.69498,-1.080995 -0.6164,-0.701723 -1.52572,-0.929323 -2.2442,-1.484736 -0.58034,-0.44862 -0.53816,-1.158076 -0.81084,-1.771266 -0.38603,-0.868143 -1.28781,-1.494666 -2.05597,-1.992675 -1.77218,-1.148922 -4.28271,-1.768563 -5.84941,-3.177858 -1.12549,-1.012393 -1.13109,-4.853064 -1.43341,-6.251522 -0.22278,-1.030621 -1.01277,-2.085649 -1.72296,-2.852261 -0.34148,-0.368594 -0.87953,-0.403783 -1.20174,-0.781439 -0.63775,-0.747522 -1.24188,-1.525093 -1.94016,-2.227106 -1.69553,-1.704634 -4.04792,-3.056819 -6.15347,-4.206754 -1.55665,-0.850151 -3.36452,-1.360896 -5.03862,-1.91453 -0.67794,-0.224207 -1.20274,-0.677638 -1.85328,-0.924707 -1.05457,-0.400523 -2.1949,-0.74812 -3.19979,-1.250304 -1.04978,-0.52461 -2.11955,-0.992172 -3.11293,-1.614977 -0.47463,-0.297555 -1.44438,-1.390874 -1.9836,-1.471714 -0.26168,-0.03923 -0.53287,0.004 -0.79632,-0.03907 -0.17656,-0.02887 -0.56473,-0.111976 -0.72395,-0.02605 -0.22561,0.121767 0.93879,-0.138557 0.76737,0.0521 -0.33068,0.367794 -0.85786,0.4925 -1.28678,0.73875" />
    <path
       style="fill:none;stroke:#000000;stroke-width:0.264583px;stroke-linecap:butt;stroke-linejoin:miter;stroke-opacity:1"
       d="m 93.878222,223.25919 c -0.67882,-0.31636 -1.34788,-0.65563 -2.047296,-0.92604 -0.292192,-0.11297 -0.580132,-0.27016 -0.780201,-0.51342 -0.134692,-0.16377 -0.220081,-0.38292 -0.422396,-0.47933 -0.354849,-0.16909 -0.741548,-0.25853 -1.125668,-0.33097 -0.766166,-0.14449 -1.544483,-0.22622 -2.323926,-0.24497 -0.367157,-0.009 -0.735974,0.0128 -1.09595,0.0905 -0.788236,0.16996 -1.541503,0.46841 -2.280937,0.78421 -0.834566,0.35643 -1.642577,0.77114 -2.471082,1.14076 -0.738485,0.32946 -1.587885,0.45798 -2.23341,0.94611 -0.142468,0.10773 -0.248874,0.25496 -0.359671,0.39321 -0.316793,0.39528 -0.600434,0.82088 -0.962832,1.17618 -0.164644,0.16142 -0.353631,0.29519 -0.536279,0.43508 -0.849755,0.65082 -1.740966,1.25589 -2.513095,1.99995 -0.253039,0.24384 -0.508725,0.49374 -0.682264,0.80378 -0.253272,0.45249 -0.393222,0.96863 -0.727691,1.37504 -0.187516,0.22785 -0.450151,0.3813 -0.616869,0.62953 -0.333213,0.49612 -0.634114,1.01324 -0.926465,1.53411 -0.271292,0.48335 -0.554497,0.96164 -0.786451,1.46534 -0.221175,0.48029 -0.257331,1.01678 -0.287061,1.53709 -0.02411,0.42196 -0.07885,0.84429 -0.210491,1.24845 -0.207724,0.63773 -0.536587,1.24594 -0.6147,1.91735 -0.03775,0.32444 -0.05639,0.65091 -0.07614,0.97687 -0.05534,0.91325 -0.118803,1.82905 -0.07873,2.74368 0.01619,0.36943 0.03356,0.74778 0.173976,1.09602 0.244028,0.60522 0.676165,1.12211 0.853512,1.75711 0.145075,0.51945 0.141771,1.07299 0.321887,1.58209 0.114318,0.32312 0.338563,0.59185 0.444064,0.92109 0.517734,1.61569 0.98125,3.26141 1.749765,4.78155 0.477708,0.94492 1.12441,1.79227 1.841266,2.57412 0.224871,0.24526 0.273937,0.59608 0.466028,0.86037 0.122311,0.16828 0.400099,0.19845 0.458508,0.40338 0.07232,0.25373 0.122353,0.51251 0.187494,0.76914 0.0212,0.0835 0.11766,0.0721 0.183784,0.0939 0.38941,0.12848 0.719004,0.42257 1.134273,0.4684 0.386362,0.0426 0.773516,-0.0229 1.157254,-0.0635 0.250711,-0.0265 0.503823,-0.0726 0.756089,-0.0452 0.21609,0.0235 0.357552,0.20673 0.50776,0.34383 0.07738,0.0706 0.150025,0.17095 0.256206,0.18644 0.125636,0.0183 0.264658,-0.12203 0.369471,-0.0377 0.112428,0.0904 0.188956,0.21772 0.257608,0.34235 0.04166,0.0756 0.07202,0.14762 0.183798,0.13752 0.483654,-0.0437 0.964014,-0.11934 1.441881,-0.20424 0.439751,-0.0781 0.886923,-0.13329 1.313034,-0.2686 0.198484,-0.063 0.38273,-0.16449 0.560624,-0.27108 0.533738,-0.31981 1.020072,-0.72163 1.42739,-1.19264 0.193034,-0.22322 0.349141,-0.4751 0.481173,-0.73908 0.194238,-0.38835 0.366579,-0.80001 0.673296,-1.1179 0.616535,-0.63899 1.378289,-1.13586 1.916061,-1.84831 0.288841,-0.38266 0.42432,-0.8523 0.698426,-1.24547 0.661374,-0.94866 1.521288,-1.73301 2.231407,-2.64291 0.763588,-0.97841 1.494275,-1.98497 2.144932,-3.04138 0.350943,-0.56979 0.491468,-1.2505 0.904352,-1.78525 0.949983,-1.23037 1.699738,-2.59668 2.4652,-3.94546 0.328964,-0.57965 0.813862,-1.06647 1.05832,-1.69467 0.215518,-0.55383 0.417065,-1.11999 0.50045,-1.71084 0.03189,-0.22594 0.02391,-0.45586 -0.02198,-0.68028 -0.08294,-0.40567 -0.231801,-0.8077 -0.201969,-1.22711 0.0159,-0.22358 0.01,-0.45383 0.07469,-0.66837 0.01428,-0.0473 0.05665,-0.0686 0.0748,-0.13659 0.09459,-0.35439 0.167981,-0.71473 0.221264,-1.07733 0.08485,-0.57745 0.07275,-1.16382 0.0394,-1.7446 -0.01861,-0.32417 -0.02419,-0.65003 -0.06713,-0.97187 -0.03225,-0.24168 -0.110217,-0.48894 -0.28914,-0.66598 -0.215269,-0.213 -0.486922,-0.37532 -0.637413,-0.65036 -0.449392,-0.82131 -0.787934,-1.71171 -1.36582,-2.4558 -0.146605,-0.18877 -0.299435,-0.37891 -0.504015,-0.5091 -0.393364,-0.25032 -0.841527,-0.39452 -1.281899,-0.53754 -0.606633,-0.19701 -1.234143,-0.34639 -1.807665,-0.63031 -0.233313,-0.1155 -0.668496,-0.20101 -0.628435,-0.46259 0.0098,-0.064 0.145278,0.002 0.188452,0.0297 0.08625,0.0559 0.107618,0.16677 0.137935,0.25798 0.04185,0.12592 0.04762,0.27357 0.136077,0.3758 0.0742,0.0858 0.170727,-0.0211 0.227731,-0.0732 0.272257,-0.24865 0.401141,-0.60431 0.544947,-0.93389 0.06015,-0.13785 0.122982,-0.27502 0.200482,-0.40414"
       id="path161"
       inkscape:path-effect="#path-effect163"
       inkscape:original-d="m 93.878222,223.25919 c -0.536456,-0.25001 -1.065197,-0.5173 -1.609368,-0.75004 -0.478698,-0.20473 -0.766342,-0.25654 -1.158306,-0.62515 -0.170254,-0.16011 -0.2447,-0.42076 -0.463318,-0.53398 -0.794959,-0.41171 -3.067809,-0.64842 -4.039576,-0.57306 -1.450472,0.11248 -3.804089,1.32138 -5.111001,1.92755 -0.783471,0.36339 -1.61122,0.63691 -2.388994,1.01587 -0.210254,0.10245 -1.036259,1.35243 -1.462352,1.69312 -0.991669,0.79292 -2.500908,1.80649 -3.33012,2.73505 -0.436002,0.48824 -0.526272,1.09688 -0.897681,1.628 -0.20215,0.28907 -0.374502,0.37384 -0.59363,0.5991 -0.267854,0.27537 -1.660102,2.72919 -1.867757,3.22996 -0.346094,0.8346 -0.167852,1.67076 -0.405405,2.51363 -0.202404,0.71816 -0.63618,1.53871 -0.694981,2.2792 -0.07134,0.89842 -0.250444,3.53561 -0.05791,4.36305 0.147788,0.63514 0.680019,1.24671 0.897684,1.88848 0.181932,0.53642 0.197342,1.1207 0.347485,1.66707 0.09564,0.34805 0.339622,0.59675 0.448842,0.93773 0.864041,2.69745 1.547405,5.36092 3.590734,7.39763 0.223052,0.22233 0.309203,0.5847 0.463323,0.84657 0.1153,0.19591 0.373467,0.24209 0.477797,0.42979 0.03979,0.0716 0.14927,0.81707 0.231662,0.83354 0.443378,0.0886 0.82791,0.45105 1.288605,0.50793 0.58193,0.0718 1.557293,-0.17725 1.940158,-0.10419 0.27804,0.053 0.435618,0.36598 0.680503,0.50794 0.117152,0.0679 0.278844,-0.0742 0.405402,-0.0261 0.10178,0.0387 0.341085,0.47647 0.347494,0.48188 0.06558,0.0554 2.593363,-0.34392 2.968143,-0.50792 0.783397,-0.34283 1.705094,-1.09791 2.157333,-1.79733 0.267129,-0.41312 0.464489,-1.05012 0.825288,-1.43263 0.611902,-0.64872 1.353082,-1.15158 1.925678,-1.84941 0.298706,-0.36404 0.418859,-0.822 0.680503,-1.21124 0.619704,-0.92191 1.478528,-1.70567 2.171811,-2.57875 0.777917,-0.97965 1.539946,-2.08396 2.229731,-3.13878 0.364749,-0.55778 0.515173,-1.2897 0.926639,-1.82337 0.964732,-1.25124 1.693638,-2.55203 2.461393,-3.93325 0.319465,-0.57473 0.814239,-1.07192 1.056949,-1.6801 0.230508,-0.5776 0.627229,-1.66882 0.521235,-2.29222 -0.09501,-0.5588 -0.28071,-0.9394 -0.217186,-1.51078 0.144997,-1.3042 -0.02117,0.36412 0.347493,-1.66708 0.137028,-0.75497 0.05043,-1.89935 0,-2.63085 -0.01442,-0.20918 -0.0511,-0.42455 -0.144788,-0.61213 -0.154715,-0.30977 -0.587542,-0.48396 -0.767376,-0.80749 -0.512705,-0.92238 -0.917591,-2.00697 -1.636099,-2.80016 -0.727017,-0.80259 -3.351548,-0.99922 -3.981656,-1.84941 -0.04776,-0.0644 0.183898,8e-4 0.231658,0.0651 0.139708,0.1885 0.153033,0.74342 0.347493,0.61213 0.459307,-0.31009 0.570982,-0.94998 0.856473,-1.42497" />
    <path
       style="fill:none;stroke:#000000;stroke-width:0.264583px;stroke-linecap:butt;stroke-linejoin:miter;stroke-opacity:1"
       d="m 23.40854,263.12737 c -0.462102,0.0941 -0.924349,0.16793 -1.385596,0.2901 -0.08812,0.0233 -0.08287,-0.0777 -0.06909,-0.13667 0.01714,-0.0733 0.02258,-0.14755 0.01208,-0.22372 -0.05017,-0.36383 -0.129245,-0.72727 -0.285123,-1.06225 -0.08687,-0.18669 -0.194115,-0.36299 -0.270829,-0.55492 -0.170928,-0.42764 -0.208385,-0.89659 -0.172806,-1.35276 0.0471,-0.6039 0.219455,-1.19233 0.252032,-1.797 0.02243,-0.41639 -0.103545,-0.8194 -0.197882,-1.21985 -0.08068,-0.34248 -0.128537,-0.70067 -0.06307,-1.05043 0.101894,-0.54438 0.401993,-1.02102 0.563948,-1.54651 0.05617,-0.18227 0.07883,-0.37202 0.09877,-0.56116 0.05453,-0.5172 0.101373,-1.04079 0.256163,-1.53928 0.07112,-0.22903 0.171194,-0.45399 0.334929,-0.63487 0.666345,-0.73612 1.421983,-1.40023 1.980255,-2.22665 0.06833,-0.10115 0.162683,-0.19153 0.198654,-0.30809 0.08204,-0.26585 0.140516,-0.5389 0.237172,-0.80055 0.03299,-0.0893 0.108176,-0.15143 0.17091,-0.21945 0.27847,-0.30192 0.577503,-0.60427 0.733887,-0.99031 0.289332,-0.71422 0.463045,-1.46794 0.723816,-2.19219 0.140998,-0.3916 0.280722,-0.7941 0.526046,-1.13164 0.216486,-0.29786 0.455288,-0.57959 0.659458,-0.8863 0.101043,-0.15179 0.219862,-0.30057 0.266487,-0.47834 0.115369,-0.43987 0.08425,-0.89872 0.05843,-1.3476 -0.02255,-0.392 -0.03003,-0.79741 0.106884,-1.17194 0.08733,-0.2389 0.204224,-0.4852 0.406316,-0.63892 0.132757,-0.10098 0.285982,-0.17069 0.436996,-0.23937 0.130629,-0.0594 0.257081,-0.1266 0.384096,-0.19365 0.275181,-0.14527 0.569044,-0.28191 0.885042,-0.29707 0.282652,-0.0136 0.547242,0.1011 0.815239,0.17188 0.242107,0.0639 0.492348,0.0898 0.743072,0.095 0.228336,0.005 0.456007,0.0478 0.684524,0.0357 0.0722,-0.004 0.10133,0.0653 0.13019,0.11819 0.215657,0.39533 0.405108,0.80453 0.623744,1.19825 0.102254,0.18414 0.18893,0.38186 0.329482,0.53969 0.18292,0.2054 0.446782,0.30438 0.693734,0.40939 0.128658,0.0547 0.287231,0.0802 0.374131,0.19028 0.115308,0.14608 0.213109,0.30528 0.311426,0.46304 0.141447,0.22697 0.306019,0.44276 0.412911,0.68801 0.110461,0.25344 0.151499,0.5306 0.180254,0.80339 0.07864,0.74601 0.05164,1.4974 0.09299,2.24548 0.01168,0.21124 0.04564,0.42108 0.108185,0.62369 0.112133,0.36325 0.265662,0.71633 0.312633,1.09773 0.12404,1.00719 0.243872,2.02341 0.16967,3.03981 -0.02174,0.29776 -0.07116,0.5925 -0.134253,0.88432 -0.06676,0.30878 -0.15483,0.61944 -0.145497,0.9372 0.01349,0.45926 0.223252,0.87972 0.300246,1.32794 0.04465,0.25996 0.01268,0.5247 -0.02496,0.78313 -0.116069,0.79687 -0.395725,1.56539 -0.444157,2.37277 -0.04587,0.76463 0.111433,1.52015 0.144188,2.28198 0.0342,0.79554 0.196158,1.58248 0.451573,2.33583 0.211448,0.62367 0.464952,1.23299 0.752296,1.82508 0.138041,0.28444 0.280226,0.56911 0.463818,0.82773 0.03726,0.0525 0.08352,0.098 0.146313,0.12189 0.08652,0.033 0.209729,0.0106 0.263049,0.0899 0.04784,0.0711 0.0072,0.16476 -0.0078,0.24196 -0.105415,0.54445 -0.32177,1.05961 -0.555409,1.55987 -0.240463,0.51487 -0.524043,1.00803 -0.774185,1.51798 -0.021,0.0428 -0.04161,0.0858 -0.06139,0.12923"
       id="path165"
       inkscape:path-effect="#path-effect167"
       inkscape:original-d="m 23.40854,263.12737 c -0.473174,0.0967 -0.936572,0.29335 -1.419522,0.2902 -0.09997,-5.3e-4 -7.14e-4,-0.20054 -0.01448,-0.29956 -0.07315,-0.52637 -0.151117,-0.88398 -0.405404,-1.34147 -0.643862,-1.15836 -0.212404,-2.2136 -0.08687,-3.39927 0.07894,-0.74565 -0.359798,-1.43313 -0.275093,-2.21408 0.0789,-0.72743 0.582008,-1.3281 0.666021,-2.08384 0.06633,-0.59669 0.154871,-1.83513 0.564672,-2.29223 0.7523,-0.83912 1.614299,-1.5927 2.21525,-2.56572 0.03455,-0.0559 0.190933,-0.78775 0.289574,-0.89866 0.33501,-0.37669 0.693896,-0.70625 0.883207,-1.18519 0.411376,-1.04074 0.618549,-2.26819 1.201736,-3.22995 0.120298,-0.19839 0.870424,-1.07484 0.955596,-1.41962 0.281257,-1.13854 -0.353018,-2.15083 0.550196,-3.12576 0.102235,-0.11035 0.608732,-0.32004 0.709459,-0.3777 1.260327,-0.72144 1.326001,-0.17636 2.388994,-0.10419 0.05575,0.004 0.763887,-0.003 0.926642,0.0521 0.07093,0.0242 0.794256,1.60533 1.042469,1.86243 0.292778,0.30326 0.704255,0.35275 1.042472,0.57306 0.05926,0.0386 0.682082,1.04186 0.738415,1.17216 0.316161,0.73132 0.187264,2.48439 0.289578,3.28205 0.06163,0.48047 0.328962,0.918 0.390922,1.41961 0.141944,1.14914 0.293513,2.35839 0.130313,3.51649 -0.06011,0.42654 -0.205021,0.85805 -0.231661,1.28938 -0.03606,0.58381 0.345178,1.15887 0.318529,1.75824 -0.03996,0.89875 -0.39193,1.78183 -0.477798,2.68295 -0.07757,0.81401 0.09758,1.5738 0.130313,2.38339 0.05833,1.44293 0.471193,2.58843 1.071424,3.92022 0.152046,0.33736 0.428917,0.92771 0.651545,1.18519 0.09381,0.10849 0.394031,0.066 0.376449,0.20838 -0.142983,1.15758 -1.106106,2.69981 -1.418918,3.38624" />
    <path
       style="fill:none;stroke:#000000;stroke-width:0.264583px;stroke-linecap:butt;stroke-linejoin:miter;stroke-opacity:1"
       d="m 19.74103,219.53498 c -0.121418,0.41884 -0.149683,0.86541 -0.330779,1.26544 -0.02957,0.0653 -0.0484,0.14038 -0.09907,0.19127 -0.04458,0.0448 -0.09687,-0.0166 -0.124425,-0.0509 -0.0916,-0.11399 -0.14136,-0.26936 -0.266546,-0.34861 -0.300194,-0.19004 -0.582652,-0.40629 -0.860219,-0.62778 -0.134915,-0.10766 -0.262573,-0.22451 -0.40101,-0.32755 -0.300412,-0.2236 -0.671231,-0.31159 -0.996561,-0.49005 -0.370439,-0.20321 -0.767169,-0.38125 -1.192363,-0.42419 -0.347691,-0.0351 -0.696765,0.0412 -1.020453,0.16466 -0.291933,0.11135 -0.576163,0.2437 -0.849051,0.39549 -0.723215,0.40227 -1.319073,1.00303 -1.792811,1.67593 -0.603131,0.85669 -1.023965,1.82458 -1.38949,2.80235 -0.07896,0.21121 -0.140983,0.42868 -0.225147,0.6378 -0.09328,0.23177 -0.240668,0.44597 -0.2849216,0.69367 -0.042292,0.23672 -0.056033,0.47762 -0.064469,0.71762 -0.017702,0.5036 0.016793,1.01261 -0.06864,1.51064 -0.060791,0.35438 -0.2020493,0.68795 -0.2833483,1.03737 -0.05488,0.23587 -0.076636,0.48503 -0.015054,0.72317 0.1654699,0.63986 0.5135695,1.21687 0.6574226,1.86384 0.11244,0.50569 0.0045,1.03138 0.123606,1.53677 0.148392,0.62972 0.337607,1.24971 0.557845,1.85777 0.213456,0.58934 0.440438,1.17852 0.756842,1.72087 0.141713,0.24291 0.284566,0.49785 0.504795,0.67608 0.164492,0.13312 0.362236,0.2171 0.55842,0.29105 0.526987,0.19864 1.074069,0.33838 1.622712,0.46198 0.691107,0.15569 1.384251,0.31378 2.088272,0.39337 0.295808,0.0334 0.578292,0.13311 0.85457,0.23948 0.278587,0.10726 0.560506,0.21309 0.857291,0.25816 0.43775,0.0665 0.88217,0.0784 1.324045,0.067 0.428212,-0.011 0.857605,-0.0363 1.280066,-0.10975 0.91719,-0.15952 1.766883,-0.60425 2.479873,-1.19468 0.896266,-0.7422 1.604436,-1.6901 2.160082,-2.70684 0.671386,-1.22853 1.14906,-2.56366 1.406654,-3.93929 0.182259,-0.97332 0.255889,-1.97344 0.143704,-2.96042 -0.05709,-0.50226 -0.122296,-1.00527 -0.242868,-1.49683 -0.02756,-0.11238 -0.05817,-0.22764 -0.131234,-0.32078 -0.105154,-0.13405 -0.273789,-0.20749 -0.361277,-0.35642 -0.06298,-0.10721 -0.117479,-0.21925 -0.178883,-0.32749 -0.525809,-0.92688 -1.249357,-1.75234 -2.142888,-2.33891 -0.519392,-0.34096 -1.107325,-0.55219 -1.680403,-0.78231 -0.188914,-0.0759 -0.372509,-0.16406 -0.559564,-0.24425 -0.287419,-0.12322 -0.615834,-0.15676 -0.876707,-0.33179 -0.1274,-0.0855 -0.228883,-0.20354 -0.324524,-0.3218 -0.06614,-0.0818 -0.258728,-0.33183 -0.190671,-0.2516 0.0832,0.0981 0.122614,0.2238 0.155496,0.34549 0.02143,0.0793 0.119889,0.28929 0.05313,0.24098 -0.02588,-0.0187 -0.04188,-0.0832 -0.05737,-0.12328 -0.215116,-0.55597 -0.381259,-1.12904 -0.574075,-1.69276"
       id="path169"
       inkscape:path-effect="#path-effect171"
       inkscape:original-d="m 19.74103,219.53498 c -0.138701,0.47911 -0.169424,1.00382 -0.416103,1.43734 -0.09455,0.16617 -0.258101,-0.28885 -0.419885,-0.39072 -0.422742,-0.26619 -0.803405,-0.57993 -1.187261,-0.89866 -0.309554,-0.25703 -0.685801,-0.3299 -1.027989,-0.52096 -1.172238,-0.65449 -1.772083,-0.54402 -2.910233,0.026 -1.939415,0.9714 -2.910869,3.22066 -3.561774,5.14448 -0.07664,0.22652 -0.2809252,0.55942 -0.3185323,0.80749 -0.1032094,0.6808 -0.028258,1.42521 -0.1158303,2.12292 -0.068348,0.54454 -0.453208,1.21399 -0.3185327,1.77126 0.162423,0.67208 0.5497073,1.28685 0.6805023,1.96662 0.09024,0.46902 -0.0016,0.96983 0.101352,1.43264 0.224851,1.01129 1.024977,3.55275 1.809843,4.28491 0.558561,0.52104 3.467506,1.0532 4.343631,1.17216 0.532878,0.0724 0.975842,0.34317 1.47683,0.45584 0.688528,0.15484 2.002421,0.12163 2.736485,0 4.190463,-0.69437 6.646921,-6.96348 6.254827,-10.66666 -0.05739,-0.54202 -0.145203,-1.23879 -0.289575,-1.75825 -0.09215,-0.33157 -0.353512,-0.34167 -0.492278,-0.61213 -0.526789,-1.02671 -1.299359,-1.9501 -2.258687,-2.59177 -0.683204,-0.45698 -1.464176,-0.66881 -2.200774,-1.01588 -0.302227,-0.1424 -0.630802,-0.20084 -0.926639,-0.35164 -0.221446,-0.11288 -0.654747,-0.74671 -0.506754,-0.54701 0.108119,0.14589 0.226572,0.68961 0.159262,0.52096 -0.233614,-0.58535 -0.407923,-1.19266 -0.611885,-1.78899" />
    <path
       style="fill:none;stroke:#000000;stroke-width:0.264583px;stroke-linecap:butt;stroke-linejoin:miter;stroke-opacity:1"
       d="m 56.326589,179.64105 c -0.615956,-0.10487 -1.222579,-0.31171 -1.848791,-0.31194 -0.408389,-1.5e-4 -0.814866,0.0514 -1.219036,0.10452 -0.793845,0.10439 -1.584014,0.23584 -2.371403,0.3822 -0.188457,0.035 -0.370905,0.0949 -0.543211,0.17986 -0.637287,0.31419 -1.224737,0.71952 -1.796451,1.1384 -1.195075,0.8756 -2.348099,1.81273 -3.415757,2.83991 -0.488366,0.46985 -0.982408,0.94207 -1.383632,1.49029 -0.123737,0.16907 -0.238192,0.35292 -0.269118,0.56564 -0.03544,0.24374 -0.03154,0.4947 -0.127663,0.72885 -0.199138,0.48507 -0.31741,1.01007 -0.600217,1.45494 -0.183292,0.28833 -0.485605,0.47325 -0.665363,0.76709 -0.341104,0.55758 -0.515019,1.1965 -0.643877,1.83112 -0.06133,0.30203 -0.14096,0.60163 -0.176063,0.90783 -0.06454,0.56294 0.06027,1.12206 0.153945,1.6743 0.07471,0.44039 0.171743,0.89287 0.09194,1.33716 -0.04698,0.26158 -0.154062,0.50724 -0.211855,0.76651 -0.126331,0.56675 -0.162089,1.15217 -0.13325,1.73025 0.01133,0.22715 -1.79e-4,0.46028 0.05962,0.68042 0.09827,0.3618 0.305296,0.681 0.511568,0.98933 0.375156,0.56078 0.801187,1.0871 1.146814,1.66789 0.162694,0.27339 0.255829,0.58174 0.303708,0.89549 0.08481,0.55577 0.04067,1.14374 0.269438,1.66716 0.24107,0.55156 0.762413,0.92828 0.993193,1.48275 0.311557,0.74854 0.66559,1.47952 1.070237,2.1828 0.107917,0.18756 0.238706,0.36213 0.336741,0.55486 0.08813,0.17325 0.103441,0.38269 0.246781,0.52918 0.153821,0.1572 0.38554,0.17484 0.593451,0.17243 0.19095,-0.002 0.448238,-0.0307 0.553998,0.14305 0.05864,0.0964 0.0049,0.21211 -0.02446,0.30958 -0.03148,0.10447 -0.130177,0.21917 -0.07965,0.31922 0.038,0.0752 0.118626,0.12195 0.186543,0.16966 0.437475,0.3073 0.930048,0.5279 1.4308,0.70871 0.576171,0.20804 1.171369,0.3773 1.782553,0.44138 0.242654,0.0254 0.486808,0.002 0.725746,-0.0468 0.456371,-0.0936 0.90973,-0.24899 1.379744,-0.23364 0.364709,0.0119 0.701998,0.18429 0.994793,0.39017 0.276599,0.19449 0.55401,0.3957 0.876789,0.50975 0.627957,0.22188 1.310298,0.15784 1.950469,0.31872 0.656557,0.165 1.235312,0.58245 1.915007,0.65633 0.655626,0.0713 1.312017,-0.0902 1.921624,-0.32195 0.790135,-0.30031 1.512798,-0.75577 2.307364,-1.04288 0.43681,-0.15784 0.908451,-0.18383 1.340599,-0.36277 0.807948,-0.33454 1.60033,-0.7047 2.407232,-1.04208 2.684856,-1.12259 5.384385,-2.25077 7.872764,-3.77374 0.584823,-0.35793 1.441586,-0.51026 1.711092,-1.14079 0.102784,-0.24047 0.180704,-0.49132 0.268424,-0.73776 0.03953,-0.11106 0.115338,-0.20478 0.180275,-0.30218 0.488824,-0.73321 1.043784,-1.42051 1.506635,-2.1717 0.370321,-0.60102 0.666786,-1.2428 0.968117,-1.88038 0.276543,-0.58513 0.705912,-1.09799 0.8807,-1.72961 0.110617,-0.39973 0.136051,-0.81782 0.136752,-1.2306 0.0022,-1.2705 -0.285039,-2.52411 -0.229914,-3.79781 0.03014,-0.69642 -0.02358,-1.39367 -0.0041,-2.08997 0.01237,-0.44107 0.182301,-0.87886 0.08374,-1.32134 -0.07523,-0.33776 -0.344878,-0.59354 -0.404646,-0.93811 -0.04138,-0.23856 -0.04871,-0.48249 -0.128863,-0.715 -0.20682,-0.59996 -0.601976,-1.11579 -1.060909,-1.54714 -0.603712,-0.56743 -1.326809,-0.99512 -1.913885,-1.57954 -0.491232,-0.48901 -0.722881,-1.17993 -1.23905,-1.64758 -0.435517,-0.39458 -0.987243,-0.62518 -1.535334,-0.817 -0.462002,-0.16169 -0.940936,-0.27158 -1.400114,-0.4407 -0.93663,-0.34498 -1.713002,-1.00572 -2.640577,-1.37203 -0.677417,-0.26752 -1.388148,-0.44763 -2.043464,-0.77263 -0.962777,-0.47749 -1.825732,-1.14905 -2.842503,-1.51874 -0.418213,-0.15206 -0.860052,-0.22571 -1.303729,-0.25655 -1.168145,-0.0812 -2.361457,-0.34871 -3.511158,-0.11802 -0.235381,0.0472 -0.410953,0.23528 -0.634195,0.31122 -0.756147,0.25723 -1.564782,0.33003 -2.303985,0.6443 -0.55332,0.23524 -1.094837,0.49292 -1.656111,0.71495 -0.182771,0.0723 -0.718228,0.3193 -0.536232,0.24521 0.202916,-0.0826 0.407552,-0.20932 0.632169,-0.19211 0.202159,0.0155 0.346839,0.17549 0.484221,0.30629 0.199639,0.19007 0.405318,0.37395 0.622932,0.54333 0,0 5e-6,0 5e-6,0 z"
       id="path173"
       inkscape:path-effect="#path-effect175"
       inkscape:original-d="m 56.326589,179.64105 c -0.596439,-0.10279 -1.186918,-0.24991 -1.789318,-0.30837 -0.55939,-0.0543 -3.571415,0.4188 -3.952703,0.56003 -1.568694,0.58105 -6.254666,4.47997 -7.007723,5.83475 -0.174191,0.31339 -0.07091,0.66428 -0.2027,0.97681 -0.193939,0.45992 -0.362794,1.05719 -0.608107,1.48474 -0.152776,0.26626 -0.446736,0.44387 -0.622591,0.70329 -0.503069,0.74214 -0.684552,1.82814 -0.854245,2.68295 -0.172725,0.87008 0.246142,1.94322 0.246142,2.82621 0,0.48026 -0.107267,0.56502 -0.231661,1.08099 -0.156599,0.64954 -0.170937,1.62882 -0.101354,2.29223 0.0825,0.78655 1.377955,2.11157 1.79537,3.00854 0.329777,0.70865 0.169262,1.55057 0.434361,2.2792 0.205846,0.56578 0.803825,1.02951 1.042469,1.60196 0.395518,0.94875 0.79402,1.75134 1.361003,2.64387 0.08456,0.13312 0.120224,0.38826 0.202706,0.49491 0.345731,0.44705 0.853733,0.0855 1.201737,0.3777 0.146278,0.12281 -0.179049,0.58131 -0.0724,0.67724 0.697492,0.62738 2.80771,1.36881 3.778954,1.28938 0.489365,-0.04 1.382598,-0.3826 1.925677,-0.26048 0.600183,0.13497 0.906544,0.51436 1.375481,0.7554 0.647518,0.33283 1.373076,0.27828 2.070468,0.40374 0.750022,0.13494 1.450073,0.66348 2.21525,0.7033 1.45728,0.0758 2.786769,-0.85943 4.025091,-1.3545 0.434046,-0.17352 0.887444,-0.17691 1.317566,-0.35165 0.719471,-0.29228 1.412304,-0.62511 2.128377,-0.9247 3.441243,-1.43976 6.91655,-2.85976 9.946905,-5.06634 0.02127,-0.0155 0.279175,-0.7779 0.289584,-0.79446 0.312473,-0.49729 0.69688,-1.0057 1.042469,-1.48474 0.67919,-0.94146 1.085384,-1.69196 1.549228,-2.72202 0.353822,-0.78573 0.869079,-1.28363 0.999032,-2.17501 0.222432,-1.52569 -0.244181,-3.0509 -0.173747,-4.57143 0.03388,-0.73139 0.01513,-1.38857 0,-2.10989 -0.0092,-0.43987 0.168834,-0.87838 0.101349,-1.31542 -0.05072,-0.32849 -0.219281,-0.49617 -0.347485,-0.78144 -0.13116,-0.29185 -0.07837,-0.57708 -0.173749,-0.87261 -0.486958,-1.50888 -1.841577,-2.16449 -2.924707,-3.13879 -0.583375,-0.52475 -0.78495,-1.29038 -1.418918,-1.81034 -0.707766,-0.58047 -1.796164,-0.84001 -2.649612,-1.10704 -0.891201,-0.27883 -1.61327,-0.8674 -2.432434,-1.26333 -0.616069,-0.29776 -1.264449,-0.45579 -1.896715,-0.70329 -1.581558,-0.61912 -2.74492,-1.88086 -4.53185,-2.0057 -1.199232,-0.0838 -2.446287,-0.17941 -3.648652,-0.13024 -0.181107,0.007 -0.49254,0.25832 -0.651547,0.31258 -0.609687,0.20802 -1.253757,0.28783 -1.867754,0.48189 -0.705485,0.22297 -1.320726,0.63128 -2.041512,0.85958 -0.191704,0.0607 -0.733581,0.32994 -0.550185,0.24745 0.869143,-0.39091 0.686284,-0.12278 1.702445,0.67305" />
    <path
       style="fill:none;stroke:#000000;stroke-width:0.264583px;stroke-linecap:butt;stroke-linejoin:miter;stroke-opacity:1"
       d="m 2.04758,207.51366 c -0.2878356,0.0351 -0.5899795,0.20405 -0.8639948,0.10564 -0.082254,-0.0295 -0.1041807,-0.2123 -0.21039191,-0.14213 -0.11510531,0.0761 -0.18206965,0.20662 -0.22933263,0.33132 -0.0365741,0.0965 -0.13878151,0.2226 -0.0705476,0.30336 0.0828468,0.0981 0.22618165,0.14439 0.34591593,0.19209 0.561449,0.22369 1.1882445,0.20231 1.7696352,0.076 0.878826,-0.19094 1.6997262,-0.57237 2.5096067,-0.95207 0.4469649,-0.20955 0.9030383,-0.3983 1.355569,-0.59598 0.6112298,-0.26701 1.1988473,-0.59476 1.8393229,-0.78995 0.2478673,-0.0755 0.510961,-0.11355 0.7690312,-0.0675 0.2428282,0.0434 0.4822445,0.12007 0.732696,0.10795 0.493955,-0.0239 0.972795,-0.1725 1.428773,-0.35485 0.69521,-0.27802 1.361965,-0.62828 1.985325,-1.04251 1.130147,-0.75099 2.132255,-1.68555 3.006032,-2.7206 0.397883,-0.47132 0.790929,-0.95129 1.113007,-1.47756 0.287612,-0.46995 0.420324,-1.01854 0.742331,-1.47091 0.424221,-0.59597 1.025174,-1.0617 1.362408,-1.71688 0.201801,-0.39206 0.221095,-0.84364 0.386364,-1.24987 0.276084,-0.67862 0.711278,-1.27959 0.965677,-1.96904 0.44995,-1.21942 0.627076,-2.52344 0.658162,-3.81739 0.01252,-0.5211 0.0388,-1.04581 -0.02276,-1.56345 -0.05722,-0.48116 -0.176167,-0.95263 -0.300454,-1.41998 -0.349174,-1.31299 -0.75321,-2.61285 -1.241523,-3.88067 -0.253747,-0.65881 -0.495458,-1.32978 -0.860434,-1.93563 -0.115309,-0.19141 -0.222161,-0.40504 -0.409462,-0.53358 -0.195126,-0.13391 -0.44109,-0.14234 -0.668757,-0.15914 -0.252186,-0.0186 -0.512559,-0.0536 -0.732977,-0.19255 -0.736319,-0.46427 -1.331031,-1.10987 -1.920478,-1.74174 -0.284607,-0.30509 -0.556928,-0.62388 -0.869125,-0.90103 -0.383298,-0.34027 -0.877418,-0.50899 -1.289658,-0.80843 -0.672338,-0.48837 -1.334974,-0.99427 -1.94118,-1.56315 -0.520335,-0.4883 -0.925447,-1.11562 -1.5450236,-1.48285 -0.1951701,-0.11568 -0.4037438,-0.20723 -0.6098367,-0.30149 -0.9674761,-0.4425 -1.9358325,-0.88637 -2.9303709,-1.26436 -0.2476177,-0.0941 -0.4881294,-0.22272 -0.7505259,-0.26288 -1.0415495,-0.15941 -2.1042556,-0.16697 -3.1502459,-0.0394 -0.7697356,0.0938 -1.5237376,0.27973 -2.28282734,0.43377 -0.15227053,0.0309 -0.30043845,0.0857 -0.45526301,0.1 -0.20707273,0.019 -0.83114735,5.2e-4 -0.62362802,0.0105 0.19249063,0.009 0.37607292,-0.0687 0.53317771,-0.17314 0.0774891,-0.0515 0.17774765,-0.0892 0.21333616,-0.17916 0.0253607,-0.0641 0.16182387,-0.14029 0.14640002,-0.0268 -0.01248329,0.0918 -0.02683312,0.18164 0.04264225,0.26623 0.08768895,0.10677 0.24427716,0.1728 0.27641687,0.30902 0.0231976,0.0983 -0.11767585,0.10683 -0.18345074,0.1298 -0.52128867,0.18207 -1.06625997,0.28062 -1.5975969,0.42714"
       id="path177"
       inkscape:path-effect="#path-effect179"
       inkscape:original-d="m 2.04758,207.51366 c -0.283354,0.0357 -0.564508,0.10222 -0.8500619,0.10717 -0.077887,10e-4 -0.096033,-0.15092 -0.1737457,-0.15629 -0.17368944,-0.012 -0.42621912,0.62136 -0.33301078,0.67725 1.70994278,1.02531 4.11870238,-0.59228 5.84941948,-1.26333 0.5713336,-0.22152 1.7399434,-0.89611 2.4179522,-0.92471 0.3734374,-0.0157 0.6176602,0.13025 0.9555977,0.13025 0.979899,0 2.404618,-0.71642 3.243244,-1.23729 1.660989,-1.03164 3.22115,-2.65432 4.314669,-4.27187 0.313655,-0.46397 0.429032,-1.01334 0.738415,-1.47171 0.42346,-0.62739 0.996087,-1.08622 1.389961,-1.74522 0.210679,-0.35249 0.235467,-0.81777 0.376448,-1.19821 0.251271,-0.67807 0.691735,-1.2665 0.9556,-1.94058 0.660125,-1.68638 0.776747,-3.64124 0.694978,-5.43101 -0.05259,-1.15106 -1.90732,-7.13117 -2.794397,-7.84045 -0.336236,-0.26885 -0.959077,-0.0839 -1.375486,-0.33863 -1.078496,-0.6597 -1.883562,-1.74154 -2.765441,-2.6048 -0.391984,-0.38371 -0.874071,-0.52481 -1.303086,-0.83354 -0.650814,-0.46833 -1.328783,-0.99991 -1.925677,-1.53683 -0.548217,-0.49313 -1.016985,-1.15448 -1.6360997,-1.56288 -0.2581796,-0.17031 -3.8376336,-1.75589 -4.3001911,-1.82337 -1.5976552,-0.23305 -2.9324469,-0.13089 -4.473937,0.19537 -0.40246218,0.0852 -0.89033092,0.18882 -1.28861097,0.28652 -0.22046245,0.0541 -0.90749913,0.0261 -0.68049978,0.0261 0.23446213,0 0.43479683,-0.13378 0.62258699,-0.26048 0.0729815,-0.0492 0.13725293,-0.22819 0.20270212,-0.16931 0.06142622,0.0553 -0.0248281,0.17478 0.01447818,0.24746 0.08563548,0.15834 0.45753471,0.39107 0.2895762,0.45584 -0.56244153,0.2169 -1.1622626,0.32044 -1.74339394,0.48066" />
  </g>
</svg>
