<?xml version="1.0" encoding="UTF-8" standalone="no"?>
<!-- Created with Inkscape (http://www.inkscape.org/) -->

<svg
   width="353.56799mm"
   height="264.16mm"
   viewBox="0 0 353.56799 264.16"
   version="1.1"
   id="svg5"
   inkscape:version="1.1.2 (08b2f3d93c, 2022-04-05)"
   sodipodi:docname="CelulasMuscularesLisas.svg"
   xmlns:inkscape="http://www.inkscape.org/namespaces/inkscape"
   xmlns:sodipodi="http://sodipodi.sourceforge.net/DTD/sodipodi-0.dtd"
   xmlns="http://www.w3.org/2000/svg"
   xmlns:svg="http://www.w3.org/2000/svg">
  <sodipodi:namedview
     id="namedview7"
     pagecolor="#ffffff"
     bordercolor="#666666"
     borderopacity="1.0"
     inkscape:pageshadow="2"
     inkscape:pageopacity="0.0"
     inkscape:pagecheckerboard="0"
     inkscape:document-units="mm"
     showgrid="false"
     inkscape:zoom="0.35998268"
     inkscape:cx="119.45019"
     inkscape:cy="473.63389"
     inkscape:window-width="1366"
     inkscape:window-height="704"
     inkscape:window-x="0"
     inkscape:window-y="27"
     inkscape:window-maximized="1"
     inkscape:current-layer="layer2" />
  <defs
     id="defs2">
    <inkscape:path-effect
       effect="simplify"
       id="path-effect497"
       is_visible="true"
       lpeversion="1"
       steps="1"
       threshold="0.000408163"
       smooth_angles="360"
       helper_size="0"
       simplify_individual_paths="false"
       simplify_just_coalesce="false" />
    <inkscape:path-effect
       effect="simplify"
       id="path-effect493"
       is_visible="true"
       lpeversion="1"
       steps="1"
       threshold="0.000408163"
       smooth_angles="360"
       helper_size="0"
       simplify_individual_paths="false"
       simplify_just_coalesce="false" />
    <inkscape:path-effect
       effect="simplify"
       id="path-effect366"
       is_visible="true"
       lpeversion="1"
       steps="1"
       threshold="0.000408163"
       smooth_angles="360"
       helper_size="0"
       simplify_individual_paths="false"
       simplify_just_coalesce="false" />
    <inkscape:path-effect
       effect="simplify"
       id="path-effect362"
       is_visible="true"
       lpeversion="1"
       steps="1"
       threshold="0.000408163"
       smooth_angles="360"
       helper_size="0"
       simplify_individual_paths="false"
       simplify_just_coalesce="false" />
    <inkscape:path-effect
       effect="simplify"
       id="path-effect325"
       is_visible="true"
       lpeversion="1"
       steps="1"
       threshold="0.000408163"
       smooth_angles="360"
       helper_size="0"
       simplify_individual_paths="false"
       simplify_just_coalesce="false" />
    <inkscape:path-effect
       effect="simplify"
       id="path-effect321"
       is_visible="true"
       lpeversion="1"
       steps="1"
       threshold="0.000408163"
       smooth_angles="360"
       helper_size="0"
       simplify_individual_paths="false"
       simplify_just_coalesce="false" />
    <inkscape:path-effect
       effect="simplify"
       id="path-effect317"
       is_visible="true"
       lpeversion="1"
       steps="1"
       threshold="0.000408163"
       smooth_angles="360"
       helper_size="0"
       simplify_individual_paths="false"
       simplify_just_coalesce="false" />
    <inkscape:path-effect
       effect="simplify"
       id="path-effect313"
       is_visible="true"
       lpeversion="1"
       steps="1"
       threshold="0.000408163"
       smooth_angles="360"
       helper_size="0"
       simplify_individual_paths="false"
       simplify_just_coalesce="false" />
    <inkscape:path-effect
       effect="simplify"
       id="path-effect309"
       is_visible="true"
       lpeversion="1"
       steps="1"
       threshold="0.000408163"
       smooth_angles="360"
       helper_size="0"
       simplify_individual_paths="false"
       simplify_just_coalesce="false" />
    <inkscape:path-effect
       effect="simplify"
       id="path-effect305"
       is_visible="true"
       lpeversion="1"
       steps="1"
       threshold="0.000408163"
       smooth_angles="360"
       helper_size="0"
       simplify_individual_paths="false"
       simplify_just_coalesce="false" />
    <inkscape:path-effect
       effect="simplify"
       id="path-effect301"
       is_visible="true"
       lpeversion="1"
       steps="1"
       threshold="0.000408163"
       smooth_angles="360"
       helper_size="0"
       simplify_individual_paths="false"
       simplify_just_coalesce="false" />
    <inkscape:path-effect
       effect="simplify"
       id="path-effect264"
       is_visible="true"
       lpeversion="1"
       steps="1"
       threshold="0.000408163"
       smooth_angles="360"
       helper_size="0"
       simplify_individual_paths="false"
       simplify_just_coalesce="false" />
    <inkscape:path-effect
       effect="simplify"
       id="path-effect260"
       is_visible="true"
       lpeversion="1"
       steps="1"
       threshold="0.000408163"
       smooth_angles="360"
       helper_size="0"
       simplify_individual_paths="false"
       simplify_just_coalesce="false" />
    <inkscape:path-effect
       effect="simplify"
       id="path-effect256"
       is_visible="true"
       lpeversion="1"
       steps="1"
       threshold="0.000408163"
       smooth_angles="360"
       helper_size="0"
       simplify_individual_paths="false"
       simplify_just_coalesce="false" />
    <inkscape:path-effect
       effect="simplify"
       id="path-effect252"
       is_visible="true"
       lpeversion="1"
       steps="1"
       threshold="0.000408163"
       smooth_angles="360"
       helper_size="0"
       simplify_individual_paths="false"
       simplify_just_coalesce="false" />
    <inkscape:path-effect
       effect="simplify"
       id="path-effect248"
       is_visible="true"
       lpeversion="1"
       steps="1"
       threshold="0.000408163"
       smooth_angles="360"
       helper_size="0"
       simplify_individual_paths="false"
       simplify_just_coalesce="false" />
    <inkscape:path-effect
       effect="simplify"
       id="path-effect244"
       is_visible="true"
       lpeversion="1"
       steps="1"
       threshold="0.000408163"
       smooth_angles="360"
       helper_size="0"
       simplify_individual_paths="false"
       simplify_just_coalesce="false" />
    <inkscape:path-effect
       effect="simplify"
       id="path-effect240"
       is_visible="true"
       lpeversion="1"
       steps="1"
       threshold="0.000408163"
       smooth_angles="360"
       helper_size="0"
       simplify_individual_paths="false"
       simplify_just_coalesce="false" />
    <inkscape:path-effect
       effect="simplify"
       id="path-effect236"
       is_visible="true"
       lpeversion="1"
       steps="1"
       threshold="0.000408163"
       smooth_angles="360"
       helper_size="0"
       simplify_individual_paths="false"
       simplify_just_coalesce="false" />
    <inkscape:path-effect
       effect="simplify"
       id="path-effect232"
       is_visible="true"
       lpeversion="1"
       steps="1"
       threshold="0.000408163"
       smooth_angles="360"
       helper_size="0"
       simplify_individual_paths="false"
       simplify_just_coalesce="false" />
    <inkscape:path-effect
       effect="simplify"
       id="path-effect228"
       is_visible="true"
       lpeversion="1"
       steps="1"
       threshold="0.000408163"
       smooth_angles="360"
       helper_size="0"
       simplify_individual_paths="false"
       simplify_just_coalesce="false" />
    <inkscape:path-effect
       effect="simplify"
       id="path-effect224"
       is_visible="true"
       lpeversion="1"
       steps="1"
       threshold="0.000408163"
       smooth_angles="360"
       helper_size="0"
       simplify_individual_paths="false"
       simplify_just_coalesce="false" />
    <inkscape:path-effect
       effect="simplify"
       id="path-effect220"
       is_visible="true"
       lpeversion="1"
       steps="1"
       threshold="0.000408163"
       smooth_angles="360"
       helper_size="0"
       simplify_individual_paths="false"
       simplify_just_coalesce="false" />
    <inkscape:path-effect
       effect="simplify"
       id="path-effect118"
       is_visible="true"
       lpeversion="1"
       steps="1"
       threshold="0.000408163"
       smooth_angles="360"
       helper_size="0"
       simplify_individual_paths="false"
       simplify_just_coalesce="false" />
    <inkscape:path-effect
       effect="simplify"
       id="path-effect114"
       is_visible="true"
       lpeversion="1"
       steps="1"
       threshold="0.000408163"
       smooth_angles="360"
       helper_size="0"
       simplify_individual_paths="false"
       simplify_just_coalesce="false" />
    <inkscape:path-effect
       effect="simplify"
       id="path-effect77"
       is_visible="true"
       lpeversion="1"
       steps="1"
       threshold="0.000408163"
       smooth_angles="360"
       helper_size="0"
       simplify_individual_paths="false"
       simplify_just_coalesce="false" />
    <inkscape:path-effect
       effect="simplify"
       id="path-effect73"
       is_visible="true"
       lpeversion="1"
       steps="1"
       threshold="0.000408163"
       smooth_angles="360"
       helper_size="0"
       simplify_individual_paths="false"
       simplify_just_coalesce="false" />
    <inkscape:path-effect
       effect="simplify"
       id="path-effect69"
       is_visible="true"
       lpeversion="1"
       steps="1"
       threshold="0.000408163"
       smooth_angles="360"
       helper_size="0"
       simplify_individual_paths="false"
       simplify_just_coalesce="false" />
    <inkscape:path-effect
       effect="simplify"
       id="path-effect65"
       is_visible="true"
       lpeversion="1"
       steps="1"
       threshold="0.000408163"
       smooth_angles="360"
       helper_size="0"
       simplify_individual_paths="false"
       simplify_just_coalesce="false" />
    <inkscape:path-effect
       effect="simplify"
       id="path-effect61"
       is_visible="true"
       lpeversion="1"
       steps="1"
       threshold="0.000408163"
       smooth_angles="360"
       helper_size="0"
       simplify_individual_paths="false"
       simplify_just_coalesce="false" />
    <inkscape:path-effect
       effect="simplify"
       id="path-effect57"
       is_visible="true"
       lpeversion="1"
       steps="1"
       threshold="0.000408163"
       smooth_angles="360"
       helper_size="0"
       simplify_individual_paths="false"
       simplify_just_coalesce="false" />
    <clipPath
       clipPathUnits="userSpaceOnUse"
       id="clipPath442">
      <path
         id="path444"
         style="fill:#ff0000;fill-opacity:1;fill-rule:nonzero;stroke:none;stroke-width:0.264583"
         d="m -3.3532837,0.26716715 c 0,28.28509585 -26.4476783,94.88359485 0,84.85528685 0.7752139,-0.293942 1.6741935,-0.07906 2.297759,0.451659 0.82377462,0.701118 1.20710815,1.780972 1.33159797,2.828803 0.10914667,0.918688 0.0216284,1.845435 0.0749766,2.766938 0.0131382,0.226941 -0.0837775,0.449112 -0.0703336,0.672799 0.0147644,0.245658 -0.022682,0.484692 -0.0581404,0.724878 -0.0276831,0.187518 -0.0650549,0.482603 -0.0936576,0.743526 -0.0103652,0.09455 -0.1080176,0.425276 -0.09275908,0.356328 0.02103325,-0.09504 0.05579155,-0.27564 -0.0085272,-0.07329 -0.08149418,0.256382 -0.27271673,0.487752 -0.27981341,0.756729 -0.003695,0.140039 -0.0244377,-0.09021 -0.008269,0.01862 0.0223888,0.150702 -0.08689,0.35915 0.15865697,0.35915 28.09096038,0 84.27288238,28.090958 84.27288238,0 0,-31.487142 31.487141,-94.46142485 0,-94.46142485 -29.174791,0 -58.349582,0 -87.5243727,0 z M 0.07027995,93.274928 c -0.02075668,0.09073 -0.14805943,0.551383 -0.04410107,0.256592 0.0298865,-0.08475 0.05666689,-0.165701 0.04410107,-0.256592 z m -0.42633056,1.304311 c -0.0604239,0.107126 0.12787723,0.189007 -0.002238,0.04502 -0.001252,-0.0014 0.024011,-0.04207 0.002238,-0.04502 z"
         inkscape:original-d="M -3.3532837,0.26716715 V 85.122454 c 0.248067,-0.08868 0.5037445,-0.133848 0.7596436,-0.133842 1.4621007,1.8e-5 2.92389304,1.447559 2.92385251,4.34237 -6.4e-7,0.04502 -3.52e-6,0.08986 0,0.134874 2.49e-6,0.08462 1.558e-5,0.16963 0,0.254249 8.863e-5,0.107249 1.6886e-4,0.214178 0,0.321427 -1.3425e-4,0.166737 0.001651,0.333512 -5.1594e-4,0.500229 -0.001588,0.02994 -0.001378,0.02114 -0.002585,0.04186 0.002095,0.007 0.003504,0.04645 0.004134,0.156062 0.0142904,0.324421 0.0580317,0.746934 -0.0506429,1.061952 9.5514e-4,0.214096 -0.003321,0.510469 -0.0294556,0.524516 -0.004611,0.02532 -0.009339,0.05064 -0.0139526,0.07596 -8.7657e-4,0.02548 -0.001874,0.05099 -0.002584,0.07648 -0.008225,0.05933 -0.0155987,0.118586 -0.0248047,0.177768 -0.003148,0.02024 -0.003192,0.01005 -0.00155,-0.01551 -0.0211943,0.286097 0.00329,0.129723 -0.0392741,0.257866 -0.008415,0.276262 -0.0512225,0.55081 -0.14159343,0.81752 0.0991852,-0.55354 0.01871337,-0.05907 -0.27956949,0.634587 -4.6117e-4,0.04372 -9.2737e-4,0.08755 -0.002584,0.13126 9.6705e-4,-0.03993 -5.9135e-4,-0.07938 -0.003101,-0.11834 -8.0698e-4,0.0019 -0.001773,0.0038 -0.002584,0.0057 0.001887,0.119721 0.003801,0.239432 0.005684,0.35915 H 84.171089 V 0.26716715 Z M 0.07027995,93.274928 c -0.02425639,0.101883 -0.05112795,0.216477 -0.08578288,0.373102 -0.01982872,0.08962 0.05822807,-0.173916 0.08733317,-0.260967 -3.4396e-4,-0.03734 -0.0010626,-0.0748 -0.0015503,-0.112135 z m -0.42633056,1.304311 c -0.0234421,0.04933 -0.0488479,0.09933 -0.0744141,0.149347 h 0.006718 c 0.0576031,-0.08228 0.0943864,-0.14613 0.0676961,-0.149347 z" />
    </clipPath>
    <clipPath
       clipPathUnits="userSpaceOnUse"
       id="clipPath452">
      <path
         id="path454"
         style="fill:#ff0000;fill-opacity:1;fill-rule:nonzero;stroke:none;stroke-width:0.264583"
         d="M -3.3822225,-0.00465088 V 85.132788 c 0.2570607,-0.09571 0.5227402,-0.144182 0.7885824,-0.144176 1.1393144,1.3e-5 2.27851222,0.879276 2.72593176,2.637046 V -0.00465088 Z M 0.07027995,93.274928 c -0.02425639,0.101883 -0.05112795,0.216477 -0.08578288,0.373102 -0.01982872,0.08962 0.05822807,-0.173916 0.08733317,-0.260967 -3.4396e-4,-0.03734 -0.0010626,-0.0748 -0.0015503,-0.112135 z m 0.06201171,0.0088 c -0.0231376,0.145762 -0.05670951,0.290298 -0.10490315,0.43253 0.0991852,-0.55354 0.01871337,-0.05907 -0.2795695,0.634587 -4.6117e-4,0.04372 -9.2736e-4,0.08755 -0.002584,0.13126 9.6705e-4,-0.03993 -5.9134e-4,-0.07938 -0.003101,-0.11834 -8.0698e-4,0.0019 -0.001773,0.0038 -0.002584,0.0057 0.001477,0.09371 0.003178,0.187412 0.004651,0.281119 h 0.38809001 z m -0.48834227,1.295527 c -0.0112014,0.02357 -0.0239435,0.04758 -0.0356568,0.07132 h 0.0196371 c 0.0230553,-0.04057 0.0335176,-0.06921 0.0160197,-0.07132 z" />
    </clipPath>
  </defs>
  <g
     inkscape:groupmode="layer"
     id="layer2"
     inkscape:label="CelulasMuscularesLisas">
    <path
       style="fill:none;stroke:#000000;stroke-width:0.264583px;stroke-linecap:butt;stroke-linejoin:miter;stroke-opacity:1"
       d="m -3.2498038,94.646183 c 0.4703468,-0.590895 1.0610395,-1.070089 1.5925952,-1.603149 0.6519696,-0.653815 1.38073755,-1.317544 1.67757519,-2.208102 0.19277694,-0.57836 0.27296376,-1.188179 0.34744914,-1.790998 C 0.56023542,87.486658 0.63649365,85.901729 1.1143424,84.39306 1.7863836,82.271284 2.8179127,80.284878 3.452194,78.147293 4.6195847,74.213082 5.5020077,70.17315 7.1612564,66.403328 c 1.4272458,-3.24271 3.4913776,-6.147158 5.0247516,-9.337523 1.01565,-2.11318 2.051302,-4.232823 3.444561,-6.133302 3.658729,-4.990698 8.036871,-9.387809 12.399064,-13.757762 1.036037,-1.03788 2.110122,-2.038426 3.120014,-3.101912 1.86037,-1.959097 3.482643,-4.153577 5.577476,-5.882559 2.763257,-2.28067 5.997678,-3.867978 8.984569,-5.81925 3.256853,-2.127633 6.262683,-4.63688 9.629468,-6.589613 1.392981,-0.807928 3.030506,-1.117323 4.34262,-2.083396 2.086394,-1.536154 3.797985,-3.505006 5.822788,-5.1166425 3.652748,-2.9073956 7.882688,-5.0048837 12.24272,-6.6245985 1.098665,-0.4081447 2.197637,-0.8193988 3.319012,-1.15968408 0.710712,-0.2156682 1.446539,-0.44670199 2.197858,-0.38822602 0.334132,0.0260058 0.69881,0.19472708 0.775676,0.55361522"
       id="path55"
       inkscape:original-d="m -3.2498038,94.646183 c 0.6680444,-0.903804 2.99321098,-2.534148 3.36122623,-4.106567 0.43153066,-1.843799 0.35353258,-3.844266 0.85285011,-5.640868 0.60347036,-2.171359 1.70282056,-4.157261 2.35787916,-6.31779 1.2433691,-4.100909 2.1780415,-8.520745 3.9632397,-12.455051 1.3479037,-2.970575 3.2453046,-5.653948 4.6655926,-8.574143 1.001913,-2.059993 2.005651,-4.306438 3.361226,-6.182395 4.50905,-6.239991 9.822512,-11.325685 15.250953,-16.697009 1.752442,-1.734003 3.249362,-3.756994 5.016762,-5.460363 2.785893,-2.684965 6.322349,-4.404307 9.53184,-6.453165 3.428148,-2.188443 6.585415,-4.693055 10.033529,-6.859311 1.378852,-0.866254 3.066735,-1.151625 4.364574,-2.075848 1.864379,-1.327667 3.425653,-3.069526 5.167257,-4.5578246 4.359479,-3.7254174 9.76667,-6.2421173 15.250954,-8.0777343 0.921602,-0.30846454 3.79327,-1.47484729 4.113755,-0.22563898"
       inkscape:path-effect="#path-effect57"
       clip-path="url(#clipPath442)" />
    <path
       style="fill:none;stroke:#000000;stroke-width:0.264583px;stroke-linecap:butt;stroke-linejoin:miter;stroke-opacity:1"
       d="m 210.16318,264.14312 c 2.05614,-1.68459 4.71157,-2.27872 7.23529,-2.8796 2.16277,-0.51494 4.32906,-1.22503 6.13557,-2.57761 2.0662,-1.54701 3.78049,-3.60401 6.14525,-4.71983 1.98349,-0.93592 4.3116,-0.71628 6.28936,-1.62416 1.66269,-0.76325 2.89655,-2.16158 4.42485,-3.14036 2.5126,-1.60916 5.13965,-3.00766 7.74664,-4.46738 0.83688,-0.46859 1.82749,-0.45344 2.68642,-0.90566 1.55537,-0.8189 3.12167,-1.62118 4.63069,-2.52236 1.97089,-1.17701 3.6837,-2.722 5.63231,-3.93862 2.43898,-1.52279 5.14744,-2.70591 7.24264,-4.69333 1.15002,-1.09086 1.80841,-2.60089 3.09196,-3.58352 1.20611,-0.92334 2.77882,-1.44438 3.67223,-2.70712 0.52601,-0.74346 0.7365,-1.6797 1.45041,-2.30668 1.07864,-0.94729 2.32715,-1.67187 3.40173,-2.62994 2.34857,-2.09392 4.51339,-4.3867 6.55939,-6.77053 1.70765,-1.98961 2.45004,-4.57386 3.02457,-7.07598 0.15413,-0.67125 0.31785,-1.35535 0.78149,-1.90119 0.69116,-0.81369 1.57055,-1.49456 1.99277,-2.51564 0.56402,-1.36401 0.77954,-2.88278 1.72046,-4.08668 1.29565,-1.65777 3.16446,-2.84819 4.17185,-4.72588 0.71011,-1.32358 0.81145,-2.93671 1.70656,-4.14921 0.83879,-1.13621 2.22165,-1.7705 2.86565,-3.08625 1.0425,-2.12992 1.0605,-4.62897 2.3599,-6.66332 0.91214,-1.42805 2.5679,-2.04647 3.80917,-3.11778 1.01847,-0.87902 1.59246,-2.18845 1.80556,-3.49567 0.14258,-0.87463 -0.0402,-1.87241 -0.76427,-2.45729 -0.43351,-0.35018 -0.84537,-0.78109 -0.91476,-1.37373 -0.212,-1.81056 0.0933,-3.63702 0.49107,-5.3993 0.60968,-2.70137 1.48291,-5.35116 2.68838,-7.85137 0.54424,-1.12878 1.40734,-2.05073 1.9943,-3.15848 1.33727,-2.52377 1.59001,-5.40255 2.11117,-8.15972 0.37266,-1.97152 2.01846,-3.40431 2.3366,-5.4047 0.8898,-5.5949 1.6007,-11.28858 0.99155,-16.96067 -0.12653,-1.17819 -0.56603,-2.32003 -0.58513,-3.50251 -0.0243,-1.50659 0.28695,-2.99275 0.50145,-4.47807 0.1603,-1.11 0.30058,-2.26234 -0.0711,-3.35513 -0.36033,-1.05941 -0.74034,-2.12644 -0.78406,-3.26193 -0.0659,-1.71218 0.17004,-3.43929 -0.21119,-5.13883 -0.53736,-2.39559 -1.1882,-4.773393 -2.05869,-7.067465 -0.31592,-0.832568 -0.92923,-1.697493 -0.7245,-2.590994 0.1565,-0.683025 1.02387,-0.502963 1.54354,-0.343023 0.51869,0.159638 1.53984,1.237481 1.47271,0.910303 -0.95846,-4.671266 -3.23309,-8.910391 -5.2398,-13.192743 -0.57519,-1.227466 -1.21719,-2.43127 -1.59787,-3.739111 -0.22962,-0.788872 -0.67428,-1.481116 -1.19614,-2.11407 -1.92725,-2.337503 -4.46022,-4.209746 -5.98926,-6.831653 -0.4423,-0.75843 -0.23551,-1.655147 -0.42387,-2.485675 -0.65869,-2.90427 -1.10906,-5.982433 -2.81716,-8.492296 -0.68301,-1.003606 -1.48644,-1.973844 -2.57063,-2.564751 -0.68289,-0.372189 -1.29745,-0.884456 -1.67269,-1.577391 -0.33324,-0.615383 -0.82698,-1.108067 -1.32397,-1.594745 -3.32842,-3.259386 -6.42123,-7.017624 -10.6488,-9.065343 -1.04255,-0.504983 -2.24585,-0.512882 -3.26035,-1.130313 -1.52513,-0.928204 -3.09547,-1.834912 -4.3972,-3.056687 -1.15944,-1.088228 -1.6328,-2.737095 -2.97523,-3.674193 -1.89879,-1.325474 -4.27191,-1.783584 -6.07006,-3.291343 -1.76247,-1.477845 -3.26556,-3.281988 -5.30828,-4.415114 -2.78705,-1.546018 -6.03118,-1.745784 -9.03572,-2.646001 -3.94088,-1.180762 -7.43803,-3.387527 -11.06984,-5.254412 -1.30767,-0.67219 -2.79108,-1.230543 -3.7079,-2.411978 -1.38251,-1.781527 -3.17853,-3.2766 -5.30914,-4.081451 -2.07456,-0.783678 -4.32265,-1.132416 -6.22948,-2.348526 -1.24822,-0.7960727 -2.22203,-1.9464191 -2.96711,-3.2167762 -0.9695,-1.6529954 -1.81217,-3.4182771 -3.22518,-4.7679692 -1.26419,-1.20754 -3.08103,-1.83397328 -4.10063,-3.24688387 -0.41294,-0.57223193 -1.0564,-0.77841733 -1.7906,-0.52863963 -1.04032,0.3539199 -2.03959,0.81458037 -3.06416,1.20954528"
       id="path59"
       inkscape:path-effect="#path-effect61"
       inkscape:original-d="m 210.16318,264.14312 c 3.60923,-2.92846 8.56997,-2.42635 12.3914,-4.78346 2.49231,-1.53729 4.6941,-4.36335 7.37463,-5.5055 1.72725,-0.73596 3.82371,-0.78865 5.6188,-1.35383 1.51041,-0.47555 2.85938,-1.93452 4.16389,-2.84297 2.60977,-1.81745 5.63824,-3.02416 8.27766,-4.82862 0.79578,-0.54403 1.71212,-0.42791 2.55853,-0.8574 1.48763,-0.75488 2.93414,-1.62339 4.41474,-2.39174 1.76233,-0.91454 3.47867,-2.4799 5.11712,-3.56504 2.6646,-1.76473 5.57849,-3.17464 8.07697,-5.18959 0.95327,-0.76878 1.60063,-2.12356 2.45822,-3.02353 1.22195,-1.28239 3.04594,-1.90643 4.26424,-3.15888 0.63614,-0.65398 0.77346,-1.62917 1.35453,-2.25636 0.77962,-0.84144 2.03264,-1.54373 2.90973,-2.25635 2.45309,-1.99309 4.91704,-4.84372 7.07364,-7.13007 2.13376,-2.26216 2.81609,-5.335 3.51171,-8.21311 0.28556,-1.18158 1.58406,-1.91431 2.20739,-2.88814 0.83907,-1.31091 0.87876,-3.11916 1.80602,-4.42245 1.17686,-1.65409 2.87075,-2.81683 4.06357,-4.46758 0.93687,-1.2965 1.18407,-3.03822 1.90641,-4.46756 0.59594,-1.17926 2.22575,-1.84715 2.90967,-3.11378 1.33554,-2.47337 1.02857,-5.33567 2.95992,-7.53621 1.12914,-1.2865 3.07719,-1.91903 4.06355,-3.29427 0.8454,-1.17869 1.64066,-3.44781 0.75253,-4.73833 -0.43931,-0.63838 -1.14861,-0.82913 -1.30437,-1.6697 -0.62053,-3.34903 1.88166,-12.03187 4.01344,-14.80167 2.55934,-3.32535 2.33974,-6.32939 3.31105,-10.1987 0.47119,-1.87707 1.94294,-3.07357 2.25755,-5.05423 1.08186,-6.81142 1.96768,-13.48768 0.45152,-20.30716 -0.24122,-1.08491 0.65217,-5.04629 0.65217,-6.58855 0,-1.28728 -0.65892,-2.34161 -0.90303,-3.56504 -0.38224,-1.91571 0.14936,-3.92255 -0.25085,-5.86651 -0.49188,-2.38909 -1.2796,-4.934905 -2.05687,-7.265455 -0.16306,-0.488979 -1.20073,-2.565813 -0.70233,-3.113765 0.70583,-0.77601 2.41043,0.40853 2.9097,0.902539 -1.10716,-5.480322 -3.98596,-10.418836 -6.32109,-15.520172 -0.44821,-0.979156 -0.62084,-2.202273 -1.30436,-3.068631 -1.96582,-2.491674 -4.41085,-4.680188 -6.32113,-7.220327 -0.52478,-0.697816 -0.26926,-1.55422 -0.45151,-2.346601 -0.8893,-3.866327 -1.37844,-7.658764 -4.36459,-10.559729 -0.5964,-0.579386 -1.43082,-0.880943 -2.05685,-1.444061 -0.6109,-0.549497 -0.88138,-1.383314 -1.45487,-1.940454 -3.48024,-3.381013 -6.84005,-7.005136 -11.03688,-9.521814 -0.95756,-0.574206 -2.13073,-0.483061 -3.11039,-1.037915 -1.3783,-0.780631 -3.27286,-2.110885 -4.51507,-3.068649 -1.18301,-0.912128 -1.67596,-2.678552 -2.85957,-3.610155 -1.72949,-1.361272 -3.94331,-1.78435 -5.66894,-2.978386 -1.57663,-1.090933 -3.02748,-2.881476 -4.61541,-4.061433 -3.54667,-2.635439 -7.29612,-2.457211 -11.18736,-3.790663 -3.29905,-1.130518 -5.92507,-2.8132 -9.03019,-4.377317 -1.56115,-0.786382 -4.08135,-1.872528 -5.06693,-3.11378 -4.66616,-5.876601 -8.52985,-3.566713 -12.64222,-7.2654407 -2.10231,-1.8908464 -2.69714,-4.731993 -4.6656,-6.7239348 -1.31893,-1.334664 -2.82787,-2.34870867 -4.3144,-3.47477836 -0.43996,-0.33327414 -0.79852,-1.02667704 -1.50506,-0.81227634 -1.20048,0.3642938 -2.34114,0.90253305 -3.51171,1.35379958" />
    <path
       style="fill:none;stroke:#000000;stroke-width:0.264583px;stroke-linecap:butt;stroke-linejoin:miter;stroke-opacity:1"
       d="m 130.56237,262.5069 c -0.62259,0.30038 -1.42026,0.52725 -2.04114,0.10917 -0.74552,-0.50201 -1.18087,-1.32536 -1.89498,-1.87352 -0.36246,-0.27823 -0.80031,-0.45447 -1.26266,-0.45131 -0.5717,0.004 -1.08171,-0.2781 -1.60287,-0.47349 -1.76983,-0.66353 -3.50555,-1.41198 -5.26351,-2.10798 -1.13497,-0.44935 -2.31175,-0.80133 -3.37715,-1.42011 -0.86605,-0.503 -1.78646,-0.94787 -2.79979,-1.07499 -1.65932,-0.20816 -3.34126,-0.23853 -4.9778,-0.63252 -0.99947,-0.24062 -2.00396,-0.50111 -3.04281,-0.50223 -0.98723,-0.001 -1.91324,-0.41237 -2.78319,-0.83613 -1.762535,-0.85855 -3.364224,-2.11667 -5.292064,-2.57727 -0.991889,-0.23698 -2.081101,-0.0631 -3.000701,-0.59121 -0.595834,-0.34221 -1.193335,-0.68782 -1.866392,-0.87116 -0.972622,-0.26494 -2.072873,-0.28897 -2.891402,-0.9171 -0.607881,-0.46648 -0.863307,-1.23348 -1.46491,-1.71764 -1.123268,-0.90398 -2.399559,-1.60855 -3.723339,-2.17063 -2.038245,-0.86545 -4.254353,-1.24203 -6.274151,-2.14332 -1.019117,-0.45476 -1.868597,-1.21727 -2.908904,-1.63142 -0.615819,-0.24516 -1.052125,-0.75782 -1.527723,-1.19498 -1.673664,-1.5384 -3.430439,-3.0025 -4.932746,-4.71073 -0.925086,-1.05189 -1.468099,-2.43102 -2.576456,-3.31267 -0.718672,-0.57167 -1.568319,-0.95943 -2.197566,-1.65906 -2.235453,-2.48551 -4.571238,-4.87712 -6.964363,-7.21426 -1.155297,-1.12827 -2.292912,-2.27931 -3.57957,-3.26489 -2.207168,-1.69069 -4.595622,-3.26538 -6.255617,-5.52075 -0.629663,-0.8555 -0.962263,-1.8745 -1.486884,-2.79294 -1.45514,-2.54747 -2.890456,-5.14026 -4.789666,-7.38329 -1.172535,-1.3848 -2.695387,-2.43447 -3.747878,-3.93488 -0.749226,-1.06808 -1.333211,-2.30329 -2.371603,-3.12354 -0.872461,-0.68918 -2.093534,-0.96677 -2.712864,-1.93918 -0.308795,-0.48484 -0.347752,-1.07848 -0.682572,-1.5623 -1.219006,-1.76148 -2.871395,-3.16965 -4.147039,-4.88199 -1.194388,-1.60327 -1.762325,-3.54887 -2.731177,-5.2812 -1.412873,-2.52625 -3.230342,-4.85228 -4.183325,-7.6155 -0.801521,-2.32405 -1.239146,-4.76634 -1.391327,-7.21994 -0.116352,-1.87593 0.237714,-3.73049 0.360642,-5.59631 0.11565,-1.75535 -0.114872,-3.53331 -0.733764,-5.18915 -0.973131,-2.6036 -1.895281,-5.28706 -3.531043,-7.55661 -0.709889,-0.98494 -1.662703,-1.75431 -2.389359,-2.73083 -1.336893,-1.79659 -2.7239062,-3.63127 -3.4348647,-5.77363 -0.690002,-2.07921 -0.2918967,-4.30655 -0.6111787,-6.43833 -0.3519728,-2.35005 -0.9413483,-4.66617 -1.7556038,-6.89924 -0.4487974,-1.23081 -1.1261304,-2.36855 -1.5606418,-3.60334 -0.4708996,-1.3382 -0.8466603,-2.71352 -1.0995512,-4.10803 -0.1092294,-0.60232 -0.3820306,-1.22823 -0.2297706,-1.82593 0.1029824,-0.40426 0.5958488,-0.45315 0.9449732,-0.47522 0.2555996,-0.0162 0.5151651,-0.0139 0.7652719,-0.0759"
       id="path222"
       inkscape:path-effect="#path-effect224"
       inkscape:original-d="m 130.56237,262.5069 c -2.58084,1.21141 -2.54682,-1.1898 -4.46492,-2.07583 -0.44939,-0.20758 -0.93135,-0.0754 -1.37962,-0.2482 -1.9302,-0.74416 -3.96023,-1.46528 -5.86961,-2.32404 -1.04672,-0.47077 -2.3228,-0.77568 -3.31105,-1.33126 -0.87659,-0.49281 -1.83946,-1.11061 -2.85955,-1.26355 -1.26792,-0.19011 -2.56614,-0.21411 -3.83782,-0.38358 -1.1997,-0.15987 -2.3464,-0.56614 -3.53683,-0.7446 -0.61582,-0.0923 -1.27391,2.2e-4 -1.88128,-0.15794 -2.46292,-0.6413 -4.597498,-2.55515 -7.048546,-3.27171 -0.789971,-0.23095 -1.634807,-0.13898 -2.433132,-0.33846 -0.730549,-0.18254 -1.329653,-0.73517 -2.031791,-0.99278 -1.036497,-0.3803 -2.286859,-0.42785 -3.260894,-0.97025 -0.688078,-0.38315 -0.890553,-1.16208 -1.454864,-1.6697 -0.787805,-0.70865 -1.964211,-1.39508 -2.909708,-1.87276 -2.232229,-1.12777 -4.644755,-1.61949 -6.973308,-2.48198 -0.956177,-0.35416 -1.680702,-0.96151 -2.558542,-1.44408 -0.433893,-0.23852 -0.98399,-0.40202 -1.354524,-0.74459 -1.857655,-1.71743 -3.75717,-3.38982 -5.54352,-5.23474 -0.958599,-0.99002 -1.574472,-2.35465 -2.533462,-3.31682 -0.660353,-0.66255 -1.650937,-0.99672 -2.25755,-1.66971 -2.149186,-2.38435 -4.381984,-4.83594 -6.747539,-7.03981 -1.112385,-1.03636 -2.254488,-2.29966 -3.43648,-3.22659 -2.413092,-1.89235 -4.609877,-3.36455 -6.672294,-5.77625 -0.644787,-0.75399 -0.939376,-1.74983 -1.429776,-2.61737 -1.429835,-2.52945 -3.011877,-5.19312 -4.791004,-7.49109 -1.045308,-1.35016 -2.512983,-2.30739 -3.561897,-3.65529 -0.859833,-1.10492 -1.462974,-2.37376 -2.458218,-3.38452 -0.861589,-0.87502 -2.25109,-1.1505 -2.98497,-2.16611 -0.308227,-0.42654 -0.304242,-1.00246 -0.602015,-1.44406 -1.14559,-1.6989 -2.693101,-3.18525 -4.013405,-4.73834 -1.069933,-1.25857 -1.655974,-2.93417 -2.35788,-4.39988 -1.297077,-2.70854 -3.236754,-5.03563 -4.414747,-7.80697 -1.21749,-2.86427 -2.031114,-7.29048 -1.730779,-10.42435 0.2874,-2.99888 0.746685,-5.43093 -0.351176,-8.39362 -0.943837,-2.54704 -2.004211,-5.40385 -3.536819,-7.64904 -0.639935,-0.93747 -1.554835,-1.62331 -2.232453,-2.52711 -1.328409,-1.77182 -2.6367492,-3.55999 -3.4866528,-5.61832 -0.9768189,-2.36568 -0.429528,-4.9638 -0.8528458,-7.40083 -0.621407,-3.57743 -1.5550491,-6.56006 -3.1856465,-9.86025 -0.347622,-0.70356 -1.6370891,-5.65149 -1.3545235,-6.15984 0.2818101,-0.50699 1.1188218,-0.30689 1.6806129,-0.45127" />
    <path
       style="fill:none;stroke:#000000;stroke-width:0.264583px;stroke-linecap:butt;stroke-linejoin:miter;stroke-opacity:1"
       d="m 135.50387,265.36798 c 0.0229,-0.20965 0.0465,-0.4208 0.035,-0.63176 -0.005,-0.0854 -0.0108,-0.17308 -0.0431,-0.25315 -0.0164,-0.0406 -0.046,-0.083 -0.0922,-0.0906 -0.0492,-0.008 -0.097,0.0153 -0.13683,0.0415 -0.0885,0.0582 -0.16266,0.13504 -0.23393,0.21258 -0.175,0.19039 -0.32706,0.40127 -0.50926,0.58495 -0.0578,0.0583 -0.11707,0.11762 -0.18958,0.15748 -0.0379,0.0208 -0.0914,0.0392 -0.12689,0.008 -0.079,-0.0704 -0.16512,-0.13279 -0.25613,-0.18685 -0.23107,-0.13726 -0.48537,-0.22973 -0.74198,-0.30665 -0.14858,-0.0445 -0.30259,-0.0706 -0.44903,-0.12163 -0.0403,-0.014 -0.0899,-0.017 -0.11947,-0.0496 -0.27131,-0.2991 -0.52084,-0.61883 -0.81492,-0.8966 -0.0685,-0.0647 -0.13421,-0.13433 -0.21359,-0.18517 -0.051,-0.0327 -0.10672,-0.0573 -0.16178,-0.0824 -0.26193,-0.11898 -0.52633,-0.23267 -0.78486,-0.35898 -0.21952,-0.10725 -0.43937,-0.21667 -0.64137,-0.35466 -0.0941,-0.0643 -0.18915,-0.13127 -0.26096,-0.22058 -0.0358,-0.0446 -0.0699,-0.0981 -0.0665,-0.15746 0.004,-0.0624 0.0531,-0.11414 0.11003,-0.13477 0.0729,-0.0264 0.15289,-0.0214 0.22791,-0.009 0.17332,0.0296 0.33581,0.0995 0.49875,0.16305 0.01,0.004 0.0194,0.007 0.0292,0.0109"
       id="path230"
       inkscape:path-effect="#path-effect232"
       inkscape:original-d="m 135.50387,265.36798 c 0.26657,-2.34676 -0.98708,0.308 -1.30436,0.0225 -0.51688,-0.46501 -1.48864,-0.58119 -1.5552,-0.65434 -0.3241,-0.35632 -0.6558,-0.78981 -1.02842,-1.08305 -0.15091,-0.11877 -2.22469,-0.87741 -1.88129,-1.26356 0.1653,-0.18587 0.69615,0.0714 0.82777,0.1173" />
    <path
       style="fill:none;stroke:#000000;stroke-width:0.264583px;stroke-linecap:butt;stroke-linejoin:miter;stroke-opacity:1"
       d="m -0.60083779,113.48619 c 0.4650565,0.34978 0.91603896,0.71896 1.39540296,1.04906 0.16162616,0.1113 0.33933683,0.19628 0.51690803,0.2786 0.2639973,0.12238 0.5343414,0.23334 0.7853147,0.38163 0.1351062,0.0798 0.2633046,0.17333 0.3707962,0.28867 0.2158603,0.23162 0.3829742,0.50223 0.5507192,0.76921 0.1605379,0.25551 0.3213516,0.51461 0.5317723,0.73268 0.039958,0.0414 0.07804,0.0857 0.1245431,0.11959 0.057937,0.0423 0.1289995,0.0609 0.1983818,0.074 0.1513401,0.0285 0.3057519,0.0344 0.4593101,0.0397 0.162143,0.006 0.3250147,7e-4 0.4864301,0.018 0.056669,0.006 0.115504,0.01 0.1678993,0.0339 0.050531,0.0232 0.051386,0.0951 0.027942,0.13809 -0.030838,0.0565 -0.08587,0.0938 -0.1392614,0.12685 -0.1005561,0.0622 -0.2119215,0.10707 -0.3058673,0.1796 -0.00969,0.007 -0.019116,0.0153 -0.028112,0.0236"
       id="path238"
       inkscape:path-effect="#path-effect240"
       inkscape:original-d="m -0.60083779,113.48619 c 0.45987024,0.34597 0.91148204,0.7032 1.37961072,1.03792 0.44472687,0.31798 1.27454207,0.53344 1.65553027,0.9251 0.4786442,0.49205 0.7266609,1.19517 1.2291054,1.64714 0.2261121,0.20339 1.296276,0.0622 1.3545278,0.20307 0.082644,0.1998 -0.3177302,0.29333 -0.4765951,0.44" />
    <path
       style="fill:none;stroke:#000000;stroke-width:0.264583px;stroke-linecap:butt;stroke-linejoin:miter;stroke-opacity:1"
       d="M 3.3813477e-8,264.16 C -0.20027924,213.9354 -0.40055852,163.71079 -0.60083779,113.48619"
       id="path242"
       inkscape:path-effect="#path-effect244"
       inkscape:original-d="M 3.3813477e-8,264.16 -0.60083779,113.48619" />
    <path
       style="fill:none;stroke:#000000;stroke-width:0.264583px;stroke-linecap:butt;stroke-linejoin:miter;stroke-opacity:1"
       d="M 135.50387,265.36798 C 90.335913,264.96532 45.167957,264.56266 3.3813477e-8,264.16"
       id="path246"
       inkscape:path-effect="#path-effect248"
       inkscape:original-d="M 135.50387,265.36798 3.3813477e-8,264.16" />
    <path
       style="fill:none;stroke:#000000;stroke-width:0.264583px;stroke-linecap:butt;stroke-linejoin:miter;stroke-opacity:1"
       d="M 212.7719,-0.25260862 C 141.84793,-0.16840586 70.923967,-0.0842031 3.3813477e-8,-3.4375e-7"
       id="path258"
       inkscape:path-effect="#path-effect260"
       inkscape:original-d="M 212.7719,-0.25260862 3.3813477e-8,-3.4375e-7" />
    <path
       inkscape:path-effect="#path-effect301"
       inkscape:original-d="M 212.7719,-0.25260862 353.568,-3.4375e-7"
       style="fill:none;stroke:#000000;stroke-width:0.264583px;stroke-linecap:butt;stroke-linejoin:miter;stroke-opacity:1"
       d="M 212.7719,-0.25260862 C 259.70393,-0.16840586 306.63597,-0.0842031 353.568,-3.4375e-7"
       id="path299" />
    <path
       style="fill:none;stroke:#000000;stroke-width:0.264583px;stroke-linecap:butt;stroke-linejoin:miter;stroke-opacity:1"
       d="M 212.7719,-0.25260862 C 259.70393,-0.16840586 306.63597,-0.0842031 353.568,-3.4375e-7"
       id="path311"
       inkscape:path-effect="#path-effect313"
       inkscape:original-d="M 212.7719,-0.25260862 353.568,-3.4375e-7" />
    <path
       style="fill:none;stroke:#000000;stroke-width:0.264583px;stroke-linecap:butt;stroke-linejoin:miter;stroke-opacity:1"
       d="m 353.568,264.16 c 0,-88.05333 0,-176.106667 0,-264.16000034374997"
       id="path315"
       inkscape:path-effect="#path-effect317"
       inkscape:original-d="M 353.568,264.16 V -3.4374997e-7" />
    <path
       style="fill:none;stroke:#000000;stroke-width:0.264583px;stroke-linecap:butt;stroke-linejoin:miter;stroke-opacity:1"
       d="m 353.568,264.16 c -47.80161,-0.006 -95.60321,-0.0113 -143.40482,-0.0169"
       id="path319"
       inkscape:path-effect="#path-effect321"
       inkscape:original-d="M 353.568,264.16 210.16318,264.1431" />
    <path
       style="fill:none;stroke:#000000;stroke-width:0.264583px;stroke-linecap:butt;stroke-linejoin:miter;stroke-opacity:1"
       d="M 84.041834,0.9624751 C 56.027889,0.64164995 28.013945,0.3208248 3.3813477e-8,-3.4375e-7"
       id="path360"
       inkscape:path-effect="#path-effect362"
       inkscape:original-d="M 84.041834,0.9624751 3.3813477e-8,-3.4375e-7" />
    <path
       style="fill:none;stroke:#000000;stroke-width:0.264583px;stroke-linecap:butt;stroke-linejoin:miter;stroke-opacity:1"
       d="M 0.07027995,93.274927 C 0.04685331,62.183285 0.02342667,31.091642 3.3813477e-8,-3.4375e-7"
       id="path491"
       inkscape:path-effect="#path-effect493"
       inkscape:original-d="M 0.07027995,93.274927 3.3813477e-8,-3.4375e-7" />
  </g>
</svg>
