<?xml version="1.0" encoding="UTF-8" standalone="no"?>
<!-- Created with Inkscape (http://www.inkscape.org/) -->

<svg
   width="169.33333mm"
   height="127mm"
   viewBox="0 0 169.33333 127"
   version="1.1"
   id="svg5"
   inkscape:version="1.1.2 (08b2f3d93c, 2022-04-05)"
   sodipodi:docname="CelulasCaliciformes.svg"
   xmlns:inkscape="http://www.inkscape.org/namespaces/inkscape"
   xmlns:sodipodi="http://sodipodi.sourceforge.net/DTD/sodipodi-0.dtd"
   xmlns="http://www.w3.org/2000/svg"
   xmlns:svg="http://www.w3.org/2000/svg">
  <sodipodi:namedview
     id="namedview7"
     pagecolor="#ffffff"
     bordercolor="#666666"
     borderopacity="1.0"
     inkscape:pageshadow="2"
     inkscape:pageopacity="0.0"
     inkscape:pagecheckerboard="0"
     inkscape:document-units="mm"
     showgrid="false"
     inkscape:zoom="0.94786756"
     inkscape:cx="285.90492"
     inkscape:cy="216.80244"
     inkscape:window-width="1366"
     inkscape:window-height="704"
     inkscape:window-x="0"
     inkscape:window-y="27"
     inkscape:window-maximized="1"
     inkscape:current-layer="layer2" />
  <defs
     id="defs2">
    <inkscape:path-effect
       effect="simplify"
       id="path-effect312"
       is_visible="true"
       lpeversion="1"
       steps="1"
       threshold="0.000408163"
       smooth_angles="360"
       helper_size="0"
       simplify_individual_paths="false"
       simplify_just_coalesce="false" />
    <inkscape:path-effect
       effect="simplify"
       id="path-effect245"
       is_visible="true"
       lpeversion="1"
       steps="1"
       threshold="0.000408163"
       smooth_angles="360"
       helper_size="0"
       simplify_individual_paths="false"
       simplify_just_coalesce="false" />
    <inkscape:path-effect
       effect="simplify"
       id="path-effect241"
       is_visible="true"
       lpeversion="1"
       steps="1"
       threshold="0.000408163"
       smooth_angles="360"
       helper_size="0"
       simplify_individual_paths="false"
       simplify_just_coalesce="false" />
    <inkscape:path-effect
       effect="simplify"
       id="path-effect237"
       is_visible="true"
       lpeversion="1"
       steps="1"
       threshold="0.000408163"
       smooth_angles="360"
       helper_size="0"
       simplify_individual_paths="false"
       simplify_just_coalesce="false" />
    <inkscape:path-effect
       effect="simplify"
       id="path-effect233"
       is_visible="true"
       lpeversion="1"
       steps="1"
       threshold="0.000408163"
       smooth_angles="360"
       helper_size="0"
       simplify_individual_paths="false"
       simplify_just_coalesce="false" />
    <inkscape:path-effect
       effect="simplify"
       id="path-effect229"
       is_visible="true"
       lpeversion="1"
       steps="1"
       threshold="0.000408163"
       smooth_angles="360"
       helper_size="0"
       simplify_individual_paths="false"
       simplify_just_coalesce="false" />
    <inkscape:path-effect
       effect="simplify"
       id="path-effect225"
       is_visible="true"
       lpeversion="1"
       steps="1"
       threshold="0.000408163"
       smooth_angles="360"
       helper_size="0"
       simplify_individual_paths="false"
       simplify_just_coalesce="false" />
    <inkscape:path-effect
       effect="simplify"
       id="path-effect221"
       is_visible="true"
       lpeversion="1"
       steps="1"
       threshold="0.000408163"
       smooth_angles="360"
       helper_size="0"
       simplify_individual_paths="false"
       simplify_just_coalesce="false" />
    <inkscape:path-effect
       effect="simplify"
       id="path-effect217"
       is_visible="true"
       lpeversion="1"
       steps="1"
       threshold="0.000408163"
       smooth_angles="360"
       helper_size="0"
       simplify_individual_paths="false"
       simplify_just_coalesce="false" />
    <inkscape:path-effect
       effect="simplify"
       id="path-effect213"
       is_visible="true"
       lpeversion="1"
       steps="1"
       threshold="0.000408163"
       smooth_angles="360"
       helper_size="0"
       simplify_individual_paths="false"
       simplify_just_coalesce="false" />
    <inkscape:path-effect
       effect="simplify"
       id="path-effect209"
       is_visible="true"
       lpeversion="1"
       steps="1"
       threshold="0.000408163"
       smooth_angles="360"
       helper_size="0"
       simplify_individual_paths="false"
       simplify_just_coalesce="false" />
    <inkscape:path-effect
       effect="simplify"
       id="path-effect205"
       is_visible="true"
       lpeversion="1"
       steps="1"
       threshold="0.000408163"
       smooth_angles="360"
       helper_size="0"
       simplify_individual_paths="false"
       simplify_just_coalesce="false" />
    <inkscape:path-effect
       effect="simplify"
       id="path-effect201"
       is_visible="true"
       lpeversion="1"
       steps="1"
       threshold="0.000408163"
       smooth_angles="360"
       helper_size="0"
       simplify_individual_paths="false"
       simplify_just_coalesce="false" />
    <inkscape:path-effect
       effect="simplify"
       id="path-effect197"
       is_visible="true"
       lpeversion="1"
       steps="1"
       threshold="0.000408163"
       smooth_angles="360"
       helper_size="0"
       simplify_individual_paths="false"
       simplify_just_coalesce="false" />
    <inkscape:path-effect
       effect="simplify"
       id="path-effect193"
       is_visible="true"
       lpeversion="1"
       steps="1"
       threshold="0.000408163"
       smooth_angles="360"
       helper_size="0"
       simplify_individual_paths="false"
       simplify_just_coalesce="false" />
    <inkscape:path-effect
       effect="simplify"
       id="path-effect189"
       is_visible="true"
       lpeversion="1"
       steps="1"
       threshold="0.000408163"
       smooth_angles="360"
       helper_size="0"
       simplify_individual_paths="false"
       simplify_just_coalesce="false" />
    <inkscape:path-effect
       effect="simplify"
       id="path-effect185"
       is_visible="true"
       lpeversion="1"
       steps="1"
       threshold="0.000408163"
       smooth_angles="360"
       helper_size="0"
       simplify_individual_paths="false"
       simplify_just_coalesce="false" />
    <inkscape:path-effect
       effect="simplify"
       id="path-effect181"
       is_visible="true"
       lpeversion="1"
       steps="1"
       threshold="0.000408163"
       smooth_angles="360"
       helper_size="0"
       simplify_individual_paths="false"
       simplify_just_coalesce="false" />
    <inkscape:path-effect
       effect="simplify"
       id="path-effect177"
       is_visible="true"
       lpeversion="1"
       steps="1"
       threshold="0.000408163"
       smooth_angles="360"
       helper_size="0"
       simplify_individual_paths="false"
       simplify_just_coalesce="false" />
    <inkscape:path-effect
       effect="simplify"
       id="path-effect173"
       is_visible="true"
       lpeversion="1"
       steps="1"
       threshold="0.000408163"
       smooth_angles="360"
       helper_size="0"
       simplify_individual_paths="false"
       simplify_just_coalesce="false" />
    <inkscape:path-effect
       effect="simplify"
       id="path-effect169"
       is_visible="true"
       lpeversion="1"
       steps="1"
       threshold="0.000408163"
       smooth_angles="360"
       helper_size="0"
       simplify_individual_paths="false"
       simplify_just_coalesce="false" />
    <inkscape:path-effect
       effect="simplify"
       id="path-effect165"
       is_visible="true"
       lpeversion="1"
       steps="1"
       threshold="0.000408163"
       smooth_angles="360"
       helper_size="0"
       simplify_individual_paths="false"
       simplify_just_coalesce="false" />
    <inkscape:path-effect
       effect="simplify"
       id="path-effect161"
       is_visible="true"
       lpeversion="1"
       steps="1"
       threshold="0.000408163"
       smooth_angles="360"
       helper_size="0"
       simplify_individual_paths="false"
       simplify_just_coalesce="false" />
    <inkscape:path-effect
       effect="simplify"
       id="path-effect157"
       is_visible="true"
       lpeversion="1"
       steps="1"
       threshold="0.000408163"
       smooth_angles="360"
       helper_size="0"
       simplify_individual_paths="false"
       simplify_just_coalesce="false" />
    <inkscape:path-effect
       effect="simplify"
       id="path-effect153"
       is_visible="true"
       lpeversion="1"
       steps="1"
       threshold="0.000408163"
       smooth_angles="360"
       helper_size="0"
       simplify_individual_paths="false"
       simplify_just_coalesce="false" />
    <inkscape:path-effect
       effect="simplify"
       id="path-effect149"
       is_visible="true"
       lpeversion="1"
       steps="1"
       threshold="0.000408163"
       smooth_angles="360"
       helper_size="0"
       simplify_individual_paths="false"
       simplify_just_coalesce="false" />
    <inkscape:path-effect
       effect="simplify"
       id="path-effect145"
       is_visible="true"
       lpeversion="1"
       steps="1"
       threshold="0.000408163"
       smooth_angles="360"
       helper_size="0"
       simplify_individual_paths="false"
       simplify_just_coalesce="false" />
    <inkscape:path-effect
       effect="simplify"
       id="path-effect141"
       is_visible="true"
       lpeversion="1"
       steps="1"
       threshold="0.000408163"
       smooth_angles="360"
       helper_size="0"
       simplify_individual_paths="false"
       simplify_just_coalesce="false" />
    <inkscape:path-effect
       effect="simplify"
       id="path-effect137"
       is_visible="true"
       lpeversion="1"
       steps="1"
       threshold="0.000408163"
       smooth_angles="360"
       helper_size="0"
       simplify_individual_paths="false"
       simplify_just_coalesce="false" />
  </defs>
  <g
     inkscape:groupmode="layer"
     id="layer2"
     inkscape:label="Celulas Caliciformes">
    <path
       style="fill:none;stroke:#000000;stroke-width:0.264583px;stroke-linecap:butt;stroke-linejoin:miter;stroke-opacity:1"
       d="M 6.5673826e-7,-2.0629883e-7 C 0.71316471,1.8887462 1.562496,3.7291915 2.129106,5.6709327 c 0.385911,1.3224956 0.6166799,2.6981752 0.5834269,4.0808011 -0.028475,1.1839492 0.1498922,2.3605222 0.3746536,3.5196772 0.2392332,1.23379 0.5282577,2.462519 0.637144,3.716997 0.1354809,1.560874 0.0065,3.136627 0.2147831,4.69177 0.1931714,1.44231 0.7578685,2.80548 0.9550642,4.246422 0.1467739,1.072501 0.027697,2.169716 0.245725,3.232946 0.1175172,0.573081 0.2717994,1.137988 0.4345685,1.699651 0.2076121,0.716402 0.4843372,1.412776 0.6644947,2.136449 0.1004565,0.403523 0.1764361,0.81269 0.2691958,1.217996 0.077455,0.338432 0.096057,0.701512 0.2567923,1.009748 0.024129,0.04627 0.075579,0.20092 0.1017419,0.140947 0.036789,-0.08433 0.03358,-0.180108 0.03576,-0.270395 8.895e-4,-0.03684 0.00123,-0.07369 0.00123,-0.110536"
       id="path135"
       inkscape:path-effect="#path-effect137"
       inkscape:original-d="M 6.5673826e-7,-2.0629883e-7 C 1.1200609,2.9822211 2.8140705,6.2698653 2.7146866,9.6671438 c -0.070513,2.4103812 0.6533621,4.4541242 0.9531855,6.7916182 0.2141707,1.669724 0.064973,3.382381 0.2508369,5.054226 0.1587061,1.427564 0.7215553,2.832049 0.9531856,4.264506 0.1863513,1.15244 0.048584,2.407179 0.3010066,3.542466 0.2588707,1.164289 0.6763359,2.460644 1.0535171,3.63273 0.1205347,0.37456 0.6772662,3.502128 0.6772662,2.030716" />
    <path
       style="fill:none;stroke:#000000;stroke-width:0.264583px;stroke-linecap:butt;stroke-linejoin:miter;stroke-opacity:1"
       d="M 6.5673826e-7,-2.0629883e-7 C 1.2343774,1.0144249 2.2708331,2.3243627 3.7023812,3.0456334 3.778925,3.0841992 3.8642326,3.0203673 3.9313678,2.9833026 4.3335597,2.7612561 4.7118706,2.4991778 5.0939773,2.2449343 5.7405578,1.8147171 6.3723816,1.359968 7.0451573,0.97121818 7.230757,0.86397315 7.4222678,0.76463711 7.6321727,0.71053527 8.3555143,0.52409794 9.1052701,0.46652676 9.8492904,0.44410832 c 1.5649856,-0.0471553 3.1333046,0.047407 4.6843576,0.25415807 1.240149,0.16530838 2.483608,0.36991621 3.67343,0.76308651 0.554796,0.1833294 1.11488,0.3891674 1.591693,0.7343737 0.547423,0.3963267 0.974981,0.9425828 1.27061,1.5477975 0.305785,0.6260058 0.508535,1.2995021 0.633318,1.9825005 0.127134,0.6958681 0.08535,1.4078665 0.03338,2.1090985 -0.04227,0.5703395 -0.115233,1.1397918 -0.112286,1.7123837 0.0041,0.7877922 0.127774,1.5776542 0.02866,2.3638802 -0.07355,0.583437 -0.31387,1.129029 -0.578877,1.648306 -0.311041,0.609479 -0.673735,1.194586 -0.916809,1.837045 -0.21116,0.558109 -0.386517,1.129513 -0.629306,1.675869 -0.820532,1.846473 -2.066669,3.46952 -2.849189,5.335077 -0.28867,0.6882 -0.481902,1.412293 -0.616535,2.146876 -0.222845,1.215881 -0.596357,2.396524 -0.926985,3.58569 -0.345388,1.242252 -0.678637,2.498887 -0.77846,3.78883 -0.05061,0.65397 -0.01794,1.31453 0.109367,1.959409 0.125167,0.634041 0.278679,1.271661 0.257524,1.923186 -0.0074,0.228608 -0.05899,0.451963 -0.109001,0.674468 -0.06834,0.304027 -0.179158,0.603366 -0.193384,0.914829 -0.0043,0.09382 0.04455,-0.05723 0.05289,-0.08582 0.04155,-0.14246 0.05123,-0.291433 0.08055,-0.43641"
       id="path139"
       inkscape:path-effect="#path-effect141"
       inkscape:original-d="M 6.5673826e-7,-2.0629883e-7 C 1.2393478,1.0186774 2.3808723,2.1696568 3.7180422,3.0560327 3.8899872,3.1700107 6.8404027,0.95544247 7.4806105,0.75455475 9.9665175,-0.02548579 17.681768,0.67211362 19.771672,2.1760554 c 1.161778,0.8360419 1.608641,2.090595 1.906371,3.4296555 0.251403,1.1307037 -0.0071,2.5541829 -0.05017,3.6778517 -0.03706,0.9670044 0.191886,2.0799904 -0.05017,3.0235134 -0.231077,0.900715 -0.773909,1.701293 -1.178931,2.527108 -0.316463,0.645249 -0.477635,1.303649 -0.752519,1.963028 -1.096149,2.629393 -3.077918,4.724181 -3.561897,7.626465 -0.463266,2.778077 -2.175545,6.467146 -1.655535,9.273608 0.158305,0.854364 0.427386,1.770991 0.225759,2.617364 -0.08337,0.349975 -0.325684,1.397839 -0.200672,1.06049 0.05866,-0.158295 0.06689,-0.330935 0.100332,-0.496401" />
    <path
       style="fill:none;stroke:#000000;stroke-width:0.264583px;stroke-linecap:butt;stroke-linejoin:miter;stroke-opacity:1"
       d="m 19.947256,1.5217169 c 1.173715,0.1993179 2.378037,0.1000143 3.537494,-0.1437846 1.532238,-0.3221836 2.995889,-0.89634321 4.510782,-1.28273549 1.703476,-0.43449283 3.481685,-0.47708612 5.226962,-0.34058314 1.19625,0.093562 2.381483,0.28606584 3.565914,0.47344463 0.719064,0.11375706 1.451663,0.16559626 2.153673,0.3692356 0.496609,0.14405651 0.965739,0.4031744 1.319711,0.784946 0.403857,0.4355748 0.679247,0.9802263 0.842979,1.5461955 0.202532,0.7000901 0.315631,1.4225092 0.412022,2.1435157 0.231421,1.7310407 0.375462,3.4744024 0.42267,5.2199299 0.02694,0.996189 0.03275,1.995117 -0.05043,2.989356 -0.04696,0.561345 -0.200209,1.106565 -0.374804,1.639685 -0.523668,1.599 -1.350777,3.088756 -1.769632,4.722897 -0.258334,1.007877 -0.260908,2.056167 -0.26829,3.089803 -0.0056,0.788483 -0.0044,1.581109 -0.125151,2.362703 -0.135096,0.874647 -0.346685,1.734562 -0.525924,2.600667 -0.437126,2.112251 -0.950996,4.221278 -1.086641,6.380952 -0.0695,1.106481 -7.49e-4,2.219221 0.188011,3.313713 0.155143,0.899571 0.0474,1.813727 0.06546,2.720058 0.007,0.350124 -0.02055,0.714924 0.0948,1.045967 0.0327,0.09385 0.160943,0.168337 0.230104,0.04035 0.161271,-0.298455 0.20772,-0.63996 0.317724,-0.957323"
       id="path143"
       inkscape:path-effect="#path-effect145"
       inkscape:original-d="m 19.947256,1.5217169 c 2.736168,0.4561044 5.230931,-0.64156759 7.775981,-1.35381233 2.899968,-0.81156964 5.947603,-0.45973429 8.829495,0.0225613 2.028063,0.33940399 3.625826,0.16213281 4.49,2.54967843 0.666213,1.8406128 1.198237,9.1641577 0.75252,11.1689357 -0.431477,1.940728 -1.510548,3.741066 -2.031791,5.663445 -0.411675,1.518289 -0.222996,3.207692 -0.326088,4.760899 -0.0664,1.000454 -0.352563,2.082752 -0.551839,3.068641 -0.633452,3.133875 -1.598483,6.659321 -0.97827,9.882819 0.250724,1.30311 -0.05518,2.550618 0.175585,3.858358 0.01333,0.07557 0.160642,0.17829 0.200671,0.112821 0.186814,-0.305538 0.234111,-0.676904 0.351168,-1.015359" />
    <path
       style="fill:none;stroke:#000000;stroke-width:0.264583px;stroke-linecap:butt;stroke-linejoin:miter;stroke-opacity:1"
       d="m 42.071176,3.3719214 c 0.159627,-0.049854 0.331329,0.0114 0.453355,0.1190602 0.285754,0.2521136 0.437762,0.6236091 0.740391,0.8599203 0.152188,0.1188376 0.351249,0.1413976 0.535847,0.1666308 0.496414,0.067856 1.005278,-0.044255 1.44778,-0.2733333 0.631108,-0.3267172 1.143549,-0.829881 1.658549,-1.3099097 0.462824,-0.4313959 0.92626,-0.88284 1.497406,-1.1682044 0.199495,-0.099675 0.422775,-0.1380132 0.640422,-0.1747646 0.843049,-0.1423557 1.695967,-0.2174211 2.548275,-0.2762217 1.189253,-0.082046 2.381655,-0.1600617 3.573693,-0.1288112 0.348355,0.00913 0.702725,-0.0041 1.043742,0.072858 0.337312,0.076118 0.617597,0.291111 0.883635,0.5002856 0.18299,0.1438773 0.382275,0.2646781 0.587912,0.3736068 0.523817,0.2774734 1.079785,0.5140224 1.532117,0.90655 0.294523,0.255583 0.514858,0.5945013 0.624731,0.9703001 0.392046,1.3409148 0.500568,2.7508332 0.446887,4.1419909 -0.04979,1.2902514 -0.208937,2.5806593 -0.531039,3.8307633 -0.228352,0.886254 -0.697841,1.690251 -0.899641,2.585425 -0.30348,1.346221 -0.271973,2.745534 -0.61788,4.084385 -0.44833,1.735284 -1.199903,3.368387 -1.869346,5.024721 -0.330745,0.818329 -0.63051,1.649682 -0.871858,2.499245 -0.76016,2.675819 -1.009613,5.478566 -1.901302,8.117284 -0.144047,0.426269 -0.261497,0.860823 -0.382887,1.293902 -0.203795,0.727074 -0.494199,1.436898 -0.598861,2.184777 -0.0047,0.03391 -0.02592,0.147649 -0.01706,0.125044 0.09015,-0.230051 0.158878,-0.468221 0.236083,-0.702795"
       id="path147"
       inkscape:path-effect="#path-effect149"
       inkscape:original-d="m 42.071176,3.3719214 c 0.618625,-0.1685668 0.832053,0.9358794 1.404688,1.0830507 2.183395,0.561146 3.343524,-1.9214745 4.966597,-2.7076205 0.806786,-0.3907723 6.937788,-0.7306917 7.826148,-0.473835 0.484145,0.1399839 0.780113,0.5019409 1.204018,0.7445966 0.874911,0.5008251 2.023861,0.8431192 2.357879,1.9630237 0.731113,2.4513072 0.518277,5.4428313 -0.05016,7.8972311 -0.206891,0.893293 -0.687721,1.694785 -0.903025,2.594801 -0.322464,1.347957 -0.280781,2.769805 -0.627092,4.129129 -0.545515,2.141241 -1.557639,4.113291 -2.307706,6.182395 -1.152335,3.178794 -1.368568,6.59476 -2.433132,9.770009 -0.05235,0.156139 -1.484323,5.180819 -0.677265,2.639928" />
    <path
       style="fill:none;stroke:#000000;stroke-width:0.264583px;stroke-linecap:butt;stroke-linejoin:miter;stroke-opacity:1"
       d="m 69.18676,4.2067718 c -0.860845,1.2375013 -1.450291,2.6390358 -1.929353,4.0619405 -0.440092,1.3071557 -0.758901,2.6527707 -1.213284,3.9547387 -0.257539,0.73794 -0.728861,1.387754 -0.926211,2.148162 -0.153188,0.590248 -0.153452,1.204429 -0.169034,1.80975 -0.009,0.349434 -0.03987,0.697786 -0.08519,1.044477 -0.196576,1.503577 -0.487646,2.992071 -0.709724,4.492112 -0.249618,1.686059 -0.912674,3.27841 -1.162889,4.964871 -0.159244,1.073314 -0.06848,2.166671 0.118113,3.230202 0.213033,1.214216 0.528227,2.406634 0.800806,3.608126 0.29357,1.294019 0.719104,2.562383 0.866343,3.886431 0.05006,0.45013 0.06203,0.904775 0.02316,1.356526 -0.06831,0.793895 -0.233627,1.577146 -0.261242,2.37545 -0.02067,0.597484 0.06587,1.226635 -0.149481,1.788605 -0.06576,0.171606 -0.17456,0.328311 -0.311656,0.448701 -0.06722,0.05903 -0.146483,0.149027 -0.239811,0.125845 -0.09024,-0.02242 -0.09114,-0.14186 -0.09372,-0.215929"
       id="path151"
       inkscape:path-effect="#path-effect153"
       inkscape:original-d="m 69.18676,4.2067718 c -1.656331,2.3875359 -2.25148,5.2156793 -3.110389,7.9197962 -0.263736,0.830326 -0.829532,1.565745 -1.003355,2.436855 -0.159552,0.799591 -0.08093,1.597082 -0.175583,2.391732 -0.183269,1.538626 -0.520875,3.099661 -0.727432,4.648087 -0.261165,1.957763 -1.175713,3.912663 -1.254194,5.889075 -0.07837,1.973725 0.541375,3.938815 0.953191,5.843955 0.341669,1.580621 0.901284,3.081941 0.953182,4.715774 0.03065,0.965105 -0.229502,1.927657 -0.275926,2.888123 -0.03155,0.652868 -0.0031,1.322425 -0.150495,1.963029 -0.05817,0.252875 -0.652179,0.95319 -0.652179,0.383582" />
    <path
       style="fill:none;stroke:#000000;stroke-width:0.264583px;stroke-linecap:butt;stroke-linejoin:miter;stroke-opacity:1"
       d="m 69.18676,4.2067718 c 0.916098,0.2612644 1.819222,0.5727079 2.748655,0.7828227 0.547907,0.1238641 1.120652,0.06935 1.664242,0.2234146 1.229996,0.3486054 2.37497,0.9488329 3.621262,1.247423 0.427994,0.10254 0.867784,0.1402938 1.306719,0.1584633 0.427763,0.017707 0.868791,0.026897 1.270555,0.1939484 0.368492,0.1532169 0.710559,0.4015879 0.921091,0.7359131 0.104975,0.1667005 0.143056,0.3646422 0.175768,0.5559398 0.07715,0.4511821 0.05698,0.9135833 0.126558,1.3651255 0.117688,0.7637488 0.127283,1.5422568 0.04501,2.3103308 -0.149506,1.39571 -0.58269,2.737409 -0.893612,4.10098 -0.232897,1.021387 -0.439622,2.048582 -0.643165,3.076151 -0.598731,3.022646 -1.064852,6.073728 -1.783707,9.070466 -0.151269,0.630605 -0.47713,1.197983 -0.789402,1.759702 -0.212688,0.382586 -0.408035,0.775508 -0.560829,1.186532 -0.453898,1.221009 -0.699203,2.506077 -0.911991,3.787154 -0.131224,0.790027 -0.261134,1.580276 -0.403578,2.3684 -0.161192,0.891854 -0.300845,1.787359 -0.42371,2.685547 -0.03534,0.258371 -0.06644,0.517684 -0.113251,0.77423 -0.0096,0.05271 -0.0493,0.198872 -0.03885,0.170348 0.260603,-0.7112 0.59542,-1.393755 0.983581,-2.043964 0.175095,-0.293302 0.359198,-0.581123 0.546534,-0.866726"
       id="path155"
       inkscape:path-effect="#path-effect157"
       inkscape:original-d="m 69.18676,4.2067718 c 0.894657,0.2557205 1.782771,0.5355473 2.68397,0.767162 0.551302,0.1416891 1.120178,0.071598 1.680613,0.2256348 1.3742,0.3777019 2.754492,1.152109 4.163912,1.3538081 1.254021,0.1794605 2.037683,-0.1659565 2.98497,0.9702313 0.277152,0.3324195 0.291934,1.7602739 0.326089,1.9855894 0.373528,2.4640146 -0.437002,4.4306816 -0.95318,6.8141806 -0.837983,3.869448 -1.475507,7.770402 -2.307714,11.620209 -0.22315,1.032288 -0.889897,1.830515 -1.279271,2.797879 -0.719979,1.788718 -0.969132,3.936743 -1.304359,5.821386 -0.185254,1.041509 -0.367551,2.002928 -0.501674,3.068633 -0.03793,0.301363 -0.07871,0.602421 -0.125418,0.902546 -0.01185,0.07613 -0.07695,0.297879 -0.05017,0.225632 0.412023,-1.111864 0.866611,-1.899378 1.530115,-2.91069" />
    <path
       style="fill:none;stroke:#000000;stroke-width:0.264583px;stroke-linecap:butt;stroke-linejoin:miter;stroke-opacity:1"
       d="m 81.628328,6.7113231 c 0.540534,-0.2203921 1.097708,-0.4287358 1.685156,-0.474509 0.539794,-0.04206 1.081549,0.081953 1.575645,0.2942184 0.819146,0.3519078 1.542735,0.9160508 2.104244,1.6059163 0.499756,0.6139965 0.8798,1.3466693 0.987956,2.1381612 0.04499,0.329269 0.02057,0.663041 -0.03101,0.990853 -0.21606,1.373259 -0.562893,2.724746 -1.021697,4.036943 -0.528228,1.510753 -1.20914,2.961674 -1.798358,4.448429 -0.5837,1.472831 -0.980197,3.010656 -1.351096,4.548187 -0.400118,1.658657 -0.781852,3.321999 -1.240189,4.966464 -0.423737,1.520324 -0.524051,3.109814 -0.496839,4.681553 0.02965,1.712494 0.185437,3.418861 0.272504,5.128793 0.03937,0.773258 0.120879,1.545466 0.116519,2.319947 -8.74e-4,0.155244 -0.01253,0.310093 -0.02431,0.465656 -0.0043,0.0573 -0.03571,0.05282 -0.04885,-6.2e-5 -0.06677,-0.268799 -0.110447,-0.543037 -0.145739,-0.81748 -0.01313,-0.102104 -0.02855,-0.204298 -0.0321,-0.307297"
       id="path159"
       inkscape:path-effect="#path-effect161"
       inkscape:original-d="m 81.628328,6.7113231 c 0.840076,-0.3433985 1.575284,-0.5971738 2.45821,-0.4287081 2.00211,0.3820107 4.218609,2.6725888 3.887996,4.828595 -0.509217,3.320726 -1.483656,5.393503 -2.734143,8.371062 -1.193747,2.842452 -1.766123,6.582972 -2.658883,9.634623 -0.9296,3.177585 -0.41493,6.550139 -0.275915,9.770002 0.04091,0.947483 0.209002,2.963341 0.07524,3.023507 -0.03862,0.01738 -0.200663,-0.994116 -0.200663,-1.173308" />
    <path
       style="fill:none;stroke:#000000;stroke-width:0.264583px;stroke-linecap:butt;stroke-linejoin:miter;stroke-opacity:1"
       d="m 91.03475,7.3431002 c 0.686528,0.7592037 1.268346,1.6126687 2.021643,2.311144 0.480012,0.4450788 1.047869,0.8210558 1.694525,0.9688588 0.313542,0.07166 0.636449,0.06944 0.955954,0.08184 0.710984,0.02758 1.423834,0.06097 2.134431,0.01966 0.367998,-0.02139 0.700525,-0.194861 1.053547,-0.281808 0.196143,-0.04831 0.401366,-0.04011 0.598942,0.004 0.421246,0.09395 0.859858,0.07077 1.280248,-0.01833 0.44767,-0.09488 0.89395,-0.241332 1.35795,-0.213621 0.45601,0.02723 0.89282,0.210201 1.26307,0.4693 0.20708,0.144912 0.34014,0.383258 0.36207,0.634835 0.0314,0.360493 -0.0912,0.71365 -0.2415,1.035421 -0.23873,0.511018 -0.57989,0.963322 -0.91173,1.416124 -0.7053,0.962404 -1.39852,1.938981 -2.20478,2.820105 -0.873505,0.954609 -1.915373,1.730845 -2.863012,2.607009 -0.727413,0.672548 -1.414743,1.415585 -1.864992,2.307666 -0.286087,0.566826 -0.440704,1.193537 -0.484612,1.825744 -0.07744,1.115041 0.128916,2.221116 0.212508,3.329467 0.04715,0.625205 0.06123,1.260011 -0.06042,1.878723 -0.174689,0.888452 -0.52962,1.731731 -0.666739,2.629468 -0.153581,1.005517 -0.133759,2.041139 -0.419498,3.022632 -0.494461,1.698438 -0.812415,3.440458 -1.153723,5.174174 -0.352075,1.788409 -0.71596,3.586357 -1.358699,5.296298 -0.485428,1.291431 -1.234728,2.47842 -1.629072,3.801034 -0.01424,0.04776 -0.06708,0.190409 -0.05438,0.171534 0.388775,-0.578006 0.765208,-1.16506 1.099849,-1.77658 0.153005,-0.2796 0.303081,-0.560791 0.455348,-0.840792"
       id="path163"
       inkscape:path-effect="#path-effect165"
       inkscape:original-d="m 91.03475,7.3431002 c 1.12341,1.2276593 2.287606,3.2505688 4.163909,3.3394018 0.838425,0.0397 1.745893,0.07204 2.583638,0.04513 0.635783,-0.02043 1.063244,-0.430816 1.655527,-0.293327 1.603196,0.372155 2.241606,-0.8221989 3.887996,0.203073 1.03354,0.643627 -0.0332,2.192716 -0.4766,2.797879 -0.746,1.018138 -1.50497,2.073437 -2.3328,3.023508 -1.642601,1.885164 -4.406062,3.315669 -5.142176,5.798822 -0.532513,1.796334 0.151213,3.800841 0.05017,5.618315 -0.06042,1.086771 -0.546981,2.069645 -0.727432,3.136329 -0.188383,1.113573 -0.16174,2.20183 -0.476594,3.294268 -0.955823,3.31638 -1.241213,6.812241 -2.382959,10.085896 -0.472824,1.355701 -1.206225,2.655234 -1.7057,4.016301 -0.02731,0.07443 -0.119409,0.291491 -0.07525,0.225639 0.838573,-1.250566 0.938364,-1.481217 1.555197,-2.617372" />
    <path
       style="fill:none;stroke:#000000;stroke-width:0.264583px;stroke-linecap:butt;stroke-linejoin:miter;stroke-opacity:1"
       d="m 104.85593,9.779959 c 0.26313,0.4637 0.66524,0.844392 1.1406,1.086346 0.62565,0.318449 1.3307,0.421321 2.02015,0.501992 0.77173,0.0903 1.55832,0.136356 2.30131,0.382107 0.50565,0.167248 0.97828,0.459887 1.31052,0.881354 0.23045,0.292338 0.40073,0.62727 0.54574,0.968512 0.30811,0.725062 0.43497,1.513364 0.46968,2.296559 0.0406,0.916901 -0.003,1.834269 -0.0125,2.751375 -0.008,0.781379 -0.12531,1.565757 -0.032,2.344587 0.0212,0.176798 0.032,0.363716 0.13153,0.518155 0.0793,0.123104 0.17773,0.239212 0.21046,0.386455 0.0449,0.20197 0.009,0.410287 -0.0108,0.612664 -0.10725,1.099028 -0.40719,2.182126 -0.91399,3.165663 -0.55891,1.084663 -1.36077,2.021717 -2.2247,2.875099 -0.44628,0.440832 -0.92213,0.850065 -1.38376,1.274474 -0.74064,0.680926 -1.31226,1.525406 -2.08498,2.174695 -0.16812,0.141266 -0.35358,0.259199 -0.53353,0.384481 -0.44995,0.313261 -0.78898,0.750517 -1.14238,1.162874 -0.19335,0.225609 -0.38231,0.46062 -0.61816,0.642349 -0.24307,0.187289 -0.55423,0.238329 -0.84698,0.297372 -0.25479,0.05139 -0.51067,0.123449 -0.7295,0.270897 -0.45155,0.304259 -0.8389,0.693979 -1.1917,1.105792 -0.46526,0.543082 -0.88575,1.126956 -1.23183,1.753252 -0.472511,0.855089 -0.691325,1.819754 -1.132264,2.689755 -0.08702,0.171686 -0.188636,0.335469 -0.266327,0.512101 -0.120306,0.273518 -0.268415,0.541288 -0.328726,0.834102 -0.0147,0.07138 0.03639,-0.04433 0.0471,-0.06678 0.271935,-0.569908 0.558118,-1.144198 0.97951,-1.621073 0.175742,-0.198881 0.372924,-0.378583 0.586036,-0.536695"
       id="path167"
       inkscape:path-effect="#path-effect169"
       inkscape:original-d="m 104.85593,9.779959 c 1.53257,2.647934 5.50539,0.629786 6.99837,3.181455 1.02807,1.757083 0.77761,3.513248 0.77761,5.595753 0,0.858702 -0.13626,1.847536 0,2.685059 0.0675,0.414995 0.36557,0.391339 0.32609,0.94767 -0.24573,3.462931 -1.98815,5.377782 -4.43985,7.53621 -0.95164,0.837814 -1.56018,1.904992 -2.63379,2.594806 -0.74915,0.481343 -1.15622,1.243126 -1.80603,1.827644 -0.41028,0.369057 -1.07794,0.26688 -1.55519,0.564089 -0.99867,0.621911 -2.18765,2.224643 -2.658895,3.22658 -0.406077,0.863381 -0.612262,1.770124 -1.10368,2.617365 -0.191162,0.329575 -0.590299,1.404448 -0.426422,1.060489 0.419548,-0.880565 0.786522,-1.598834 1.580275,-2.188659" />
    <path
       style="fill:none;stroke:#000000;stroke-width:0.264583px;stroke-linecap:butt;stroke-linejoin:miter;stroke-opacity:1"
       d="m 113.45967,13.164492 c 0.87846,0.22172 1.7399,0.53494 2.64857,0.614368 1.19477,0.104437 2.39205,-0.147222 3.58555,-0.0095 0.55896,0.06451 1.11719,0.211961 1.60548,0.494948 0.34174,0.198056 0.59012,0.517242 0.79392,0.849348 0.23323,0.380065 0.42282,0.799161 0.75436,1.107423 0.15727,0.146228 0.34813,0.265025 0.56583,0.294398 0.36841,0.04971 0.73199,-0.133203 1.09673,-0.06498 0.0952,0.01781 0.21204,0.03079 0.26919,0.114489 0.0595,0.08721 -0.018,0.185287 -0.0513,0.269218 -0.0249,0.06263 -0.16234,0.203123 -0.0689,0.212335 0.11378,0.01122 0.22719,-0.02277 0.33336,-0.0597 0.0929,-0.03232 0.22319,-0.05712 0.29058,0.03179 0.0813,0.107251 0.0733,0.253501 0.0563,0.379024 -0.0457,0.337204 -0.14757,0.666946 -0.2927,0.973305 -0.28012,0.591306 -0.61268,1.155852 -0.94068,1.721373 -0.67968,1.171855 -1.40252,2.321528 -2.00098,3.537761 -0.21306,0.432997 -0.43826,0.867914 -0.55354,1.338416 -0.0595,0.242964 -0.0762,0.493916 -0.0917,0.742748 -0.0482,0.773401 -0.0101,1.558214 -0.18156,2.318737 -0.11585,0.513988 -0.29144,1.013279 -0.49298,1.499288 -0.61295,1.478095 -1.48272,2.828793 -2.34258,4.171874 -0.40042,0.625449 -0.83819,1.230311 -1.18172,1.888879 -0.19816,0.379883 -0.24835,0.814065 -0.28064,1.235231 -0.0391,0.509536 -0.011,1.030332 -0.13886,1.5277 -0.27384,1.065543 -0.70036,2.082568 -1.10319,3.103714 -0.29095,0.737539 -0.55482,1.485987 -0.77153,2.249369 -0.47372,1.668719 -1.14482,3.284154 -2.03445,4.776431 -0.21936,0.367957 -0.46578,0.71849 -0.70245,1.075269 -0.45011,0.67853 -0.80413,1.432777 -1.36259,2.028105 -0.0672,0.07165 -0.12395,0.200266 -0.22437,0.194482 -0.0722,-0.0042 -0.051,-0.109535 -0.0514,-0.162745 -0.003,-0.393146 0.17535,-0.765903 0.41462,-1.068723 0.23511,-0.297559 0.53111,-0.552573 0.87339,-0.718705"
       id="path171"
       inkscape:path-effect="#path-effect173"
       inkscape:original-d="m 113.45967,13.164492 c 0.74415,0.188027 1.47441,0.443749 2.23245,0.56408 1.87459,0.297571 3.66989,-0.437424 5.49337,0.473835 1.00713,0.5033 1.06423,1.667076 1.88128,2.188667 0.53441,0.341157 1.14642,-0.104887 1.63045,0.112811 0.41359,0.186017 -0.57425,0.743789 0.32609,0.473835 0.64797,-0.194285 0.15047,1.128242 0,1.444062 -0.77433,1.625251 -3.33749,5.44036 -3.51173,6.746492 -0.14166,1.061827 -0.003,2.065923 -0.30101,3.136329 -0.71665,2.578473 -2.5753,4.97055 -3.91308,7.220326 -0.46453,0.781222 -0.24416,2.041377 -0.47659,2.910689 -0.46358,1.733846 -1.32284,3.360798 -1.80603,5.099357 -0.5811,2.090827 -1.39241,4.000807 -2.6338,5.798823 -0.50391,0.729866 -0.9284,1.516647 -1.47994,2.211223 -0.0753,0.09479 -0.28617,0.323197 -0.30101,0.203073 -0.0981,-0.794282 0.64148,-1.615945 1.27928,-1.917896" />
    <path
       style="fill:none;stroke:#000000;stroke-width:0.264583px;stroke-linecap:butt;stroke-linejoin:miter;stroke-opacity:1"
       d="m 125.57514,15.488527 c 0.55869,0.317011 0.98406,0.809744 1.40577,1.283476 0.40155,0.451081 0.8181,0.916283 1.36553,1.190058 0.25753,0.128794 0.52583,0.236121 0.79811,0.328594 0.12973,0.04406 0.27937,0.195086 0.39446,0.119164 0.0526,-0.0347 -0.0718,-0.100993 -0.10527,-0.126566 -0.0942,-0.07204 -0.35152,-0.116254 -0.28434,-0.21447 0.0306,-0.04469 0.14308,0.01552 0.19894,0.03674 0.46572,0.176905 0.92777,0.365392 1.37718,0.580029 0.58248,0.278189 1.04941,0.73419 1.55714,1.122535 0.22861,0.174856 0.45872,0.354302 0.72231,0.473876 0.44764,0.203066 0.96311,0.218877 1.38791,0.47906 0.31794,0.194732 0.50776,0.526941 0.70463,0.83199 0.13555,0.210036 0.26698,0.437955 0.47566,0.581041 0.19931,0.136663 0.45181,0.12448 0.68256,0.124771 0.18884,2.38e-4 0.40882,-0.0071 0.55165,0.132599 0.32296,0.315889 0.44677,0.777366 0.77173,1.093029 0.0909,0.08829 0.20164,0.156105 0.32829,0.181011 0.30266,0.05952 0.6211,0.01902 0.91612,0.121025 0.11764,0.04067 0.21275,0.140384 0.23525,0.266645 0.0422,0.236985 -0.0593,0.470596 -0.17912,0.668509 -0.25046,0.413751 -0.59086,0.763325 -0.93642,1.097826 -0.25093,0.242897 -0.50612,0.481013 -0.75768,0.72345 -0.61638,0.594037 -1.28977,1.135133 -1.83012,1.802906 -0.20888,0.258135 -0.39561,0.543396 -0.48244,0.868292 -0.0783,0.292891 -0.10815,0.609158 -0.27697,0.868207 -0.15315,0.235008 -0.32241,0.459249 -0.484,0.688553 -1.63737,2.323454 -3.1838,4.722277 -5.05892,6.866847 -0.50503,0.577603 -1.06076,1.107606 -1.5912,1.661847 -0.36505,0.381429 -0.65869,0.823183 -0.95048,1.261128 -0.28286,0.424537 -0.53752,0.869161 -0.85004,1.272869 -1.55653,2.01069 -2.97179,4.133454 -4.66805,6.034298 -1.14254,1.280337 -2.22626,2.621313 -3.12322,4.088943 -0.17598,0.287942 -0.32927,0.588891 -0.49903,0.880335 -0.13474,0.231316 -0.34646,0.410334 -0.47554,0.64412 -0.0431,0.07803 0.1046,-0.0168 0.13821,-0.03425 0.0879,-0.04565 0.17562,-0.09167 0.26374,-0.136904"
       id="path175"
       inkscape:path-effect="#path-effect177"
       inkscape:original-d="m 125.57514,15.488527 c 1.16174,0.6596 1.73071,2.061003 2.98498,2.57224 2.75392,1.122489 -1.45016,-0.960164 2.08196,0.586654 0.79806,0.349492 1.39487,1.047538 2.13212,1.511759 0.54137,0.34088 1.12908,0.291854 1.63045,0.609211 0.50976,0.32267 0.67449,0.957308 1.10368,1.353808 0.38206,0.35296 1.01506,0.0058 1.32944,0.338459 0.33772,0.357394 0.45626,0.888825 0.87794,1.1733 0.30583,0.206324 1.19453,-0.01856 1.32945,0.406147 0.23566,0.74185 -1.34685,2.019574 -1.7308,2.414289 -0.64024,0.658187 -2.06799,1.767419 -2.38296,2.617371 -0.15599,0.420963 -0.11939,0.75764 -0.40134,1.150742 -2.24627,3.131894 -4.2016,6.375008 -6.99838,9.047962 -0.65837,0.629218 -1.41464,2.014328 -1.88129,2.617372 -1.50776,1.948447 -2.90149,4.057726 -4.54015,5.889074 -1.43055,1.598764 -2.66537,3.104169 -3.66224,4.963972 -0.43432,0.810282 -0.95192,1.021162 -0.15051,0.609219" />
    <path
       style="fill:none;stroke:#000000;stroke-width:0.264583px;stroke-linecap:butt;stroke-linejoin:miter;stroke-opacity:1"
       d="m 141.22744,27.560005 c 0.0399,-0.184592 -0.0179,-0.374647 -0.0869,-0.544452 -0.133,-0.327245 -0.33148,-0.636222 -0.60811,-0.859891 -0.18315,-0.148084 -0.43667,-0.257143 -0.66666,-0.168102 -0.0712,0.02757 -0.1675,0.04586 -0.19943,0.117651 -0.0545,0.122473 -0.0291,0.26298 -0.001,0.388521 0.0527,0.237364 0.13281,0.470517 0.25011,0.684606 0.0488,0.08899 0.15561,0.114875 0.24588,0.138705 0.30616,0.08082 0.64357,0.01672 0.93268,0.158789 0.15307,0.07522 0.27262,0.202187 0.38503,0.327126 0.51745,0.575127 0.77117,1.329748 1.27047,1.918771 0.19277,0.227411 0.43918,0.398246 0.66779,0.586441 0.79075,0.650951 1.56186,1.333223 2.22938,2.113476 0.18093,0.211485 0.33611,0.442756 0.50213,0.665653 0.22923,0.307765 0.50791,0.581593 0.83832,0.779846 0.29371,0.176231 0.59283,0.347358 0.85499,0.570128 0.67197,0.571001 1.16354,1.316113 1.61507,2.064969 0.52914,0.877566 0.99219,1.810076 1.68211,2.575447 0.41144,0.456437 0.91968,0.80879 1.36948,1.224435 0.31402,0.290178 0.59544,0.62438 0.77082,1.019695 0.32349,0.729161 0.39409,1.538278 0.39741,2.327411 0.004,0.990939 -0.0912,1.987384 0.0516,2.974143 0.0386,0.266989 0.12221,0.52381 0.19026,0.784115 0.25106,0.960304 0.46254,1.931116 0.63721,2.90801 0.1561,0.873051 0.32455,1.750509 0.34433,2.638463 0.007,0.30347 0.0212,0.61688 -0.0714,0.909587 -0.031,0.09797 -0.097,0.182916 -0.19761,0.22601 -0.56518,0.242127 -1.02639,0.660719 -1.47287,1.072698 -0.44581,0.411358 -0.89733,0.856864 -1.47473,1.065255 -0.24615,0.08884 -0.51232,0.0436 -0.76518,0.01752 -0.2488,-0.02566 -0.50868,-0.0297 -0.74497,0.07211 -0.4467,0.192478 -0.81464,0.53273 -1.28298,0.685108 -0.14041,0.04568 -0.29164,0.03908 -0.43275,-0.0038 -0.27165,-0.08257 -0.51597,-0.262794 -0.80716,-0.273676 -0.20114,-0.0075 -0.37649,0.111587 -0.534,0.220933 -0.51674,0.358725 -0.88956,0.895001 -1.44689,1.201356 -0.16773,0.0922 -0.35494,0.141997 -0.54613,0.155191 -0.35901,0.02477 -0.71947,-0.04827 -1.0769,-0.0095 -0.50831,0.05519 -1.01267,0.142104 -1.51601,0.230711 -0.87228,0.153554 -1.74194,0.322348 -2.60825,0.507608 -0.23883,0.05107 -0.46827,0.135182 -0.69606,0.222002 -1.6034,0.611112 -3.08711,1.516626 -4.73439,2.012037 -0.30995,0.09322 -0.61873,0.190103 -0.92538,0.293883 -1.14638,0.387976 -2.30085,0.756289 -3.42546,1.203625 -0.17493,0.06958 -0.41159,0.06393 -0.52214,0.216651 -0.0717,0.09906 -0.0224,0.233152 0.0557,0.313736 0.17598,0.18156 0.41059,0.290135 0.64096,0.384572 0.3497,0.143358 0.71244,0.253865 1.07895,0.345035"
       id="path179"
       inkscape:path-effect="#path-effect181"
       inkscape:original-d="m 141.22744,27.560005 c 0.13028,-0.46918 -0.73463,-2.025846 -1.5301,-1.489184 -0.19798,0.133566 0.14362,1.100691 0.27591,1.173301 0.37794,0.207433 0.92261,0.04035 1.25419,0.315883 0.80007,0.664856 1.02598,1.809044 1.80603,2.436863 0.99572,0.801402 2.24203,1.84142 2.98498,2.910692 0.76092,1.095142 1.16126,0.907184 1.98161,1.6697 1.30809,1.215867 1.95349,3.123422 3.11039,4.46758 0.60472,0.702598 1.68864,1.286277 2.10704,2.143535 0.92214,1.88935 0.0658,4.147949 0.65218,6.047018 0.24361,0.788923 1.56151,6.521719 0.80269,6.836745 -1.17528,0.487919 -1.7915,1.62759 -2.95989,2.143536 -0.40517,0.178921 -1.0023,-0.100315 -1.45486,0.06769 -0.51771,0.192188 -0.93644,0.646811 -1.47994,0.744596 -0.45509,0.08188 -0.90792,-0.476065 -1.37961,-0.248203 -0.74415,0.359481 -1.17399,1.194149 -1.95654,1.466635 -0.35898,0.125 -1.03048,0.0172 -1.37961,0.04512 -0.62748,0.05017 -3.94677,0.643639 -4.49,0.834851 -1.85749,0.653822 -3.46789,1.679654 -5.39302,2.233789 -0.47745,0.137436 -4.51214,1.529001 -4.56525,1.624571 -0.3009,0.541494 1.75841,1.033095 1.78095,1.037924" />
    <path
       style="fill:none;stroke:#000000;stroke-width:0.264583px;stroke-linecap:butt;stroke-linejoin:miter;stroke-opacity:1"
       d="m 156.00179,54.749046 c 0.18874,0.841882 0.18206,1.709201 0.2385,2.565832 0.0485,0.736074 0.14234,1.484013 0.44062,2.165849 0.24971,0.570801 0.66042,1.047474 1.05114,1.525174 0.30965,0.378582 0.68439,0.738519 0.83559,1.206284 0.0881,0.27247 0.15117,0.55243 0.21518,0.831291 0.28718,1.251071 0.54685,2.51013 0.72159,3.782005 0.0877,0.638127 0.18871,1.280664 0.16493,1.925568 -0.008,0.220788 -0.0173,0.449032 -0.1028,0.656692 -0.0306,0.07445 -0.0978,0.121128 -0.16963,0.153882 -0.30514,0.139067 -0.63721,0.200851 -0.96098,0.280341 -0.34466,0.08462 -0.70172,0.164578 -1.00276,0.359552 -0.33407,0.216368 -0.56452,0.549631 -0.80021,0.862513 -0.16458,0.218485 -0.31543,0.470324 -0.55672,0.603143 -0.17237,0.09488 -0.36311,0.150321 -0.55076,0.205897 -0.89815,0.265998 -1.81295,0.469619 -2.71871,0.707184 -0.13911,0.03649 -0.27382,0.08629 -0.40543,0.144811 -0.99915,0.444289 -1.94985,0.998155 -2.98505,1.361002 -0.19145,0.0671 -0.3885,0.119547 -0.59112,0.139142 -0.51357,0.04967 -1.03046,0.0055 -1.54205,-0.04558 -0.71096,-0.07103 -1.41649,-0.196286 -2.12993,-0.239669 -0.40746,-0.02478 -0.81627,-0.01709 -1.22398,-0.004 -1.55657,0.04999 -3.09818,0.29765 -4.65125,0.39352 -1.01411,0.0626 -2.03151,0.07518 -3.04667,0.03774 -0.70945,-0.02617 -1.4198,-0.07058 -2.12221,-0.17958 -0.362,-0.05618 -0.71299,-0.174345 -1.03796,-0.34352 -0.54412,-0.283259 -1.02322,-0.677527 -1.58594,-0.929053 -0.20718,-0.09261 -0.42678,-0.154684 -0.65062,-0.190225 -0.21437,-0.03404 -0.43312,-0.06569 -0.65058,-0.04237 -0.0573,0.0061 -0.16211,0.03956 -0.12538,0.112197 0.0589,0.116541 0.18822,0.174664 0.30687,0.210018 0.29448,0.08775 0.60502,0.09897 0.91012,0.102282 0.5114,0.0055 1.02105,-0.04758 1.53193,-0.05865 0.0391,-8.46e-4 0.0781,-0.0012 0.11719,-2.69e-4"
       id="path183"
       inkscape:path-effect="#path-effect185"
       inkscape:original-d="m 156.00179,54.749046 c 0.34656,1.522817 0.0298,3.314239 0.70236,4.783465 0.44741,0.977403 1.37084,1.694397 1.8562,2.662492 0.1342,0.267671 1.6522,6.928834 0.90302,7.333138 -0.54876,0.296146 -1.57918,0.316294 -2.13212,0.744596 -0.50806,0.393539 -0.7389,0.98184 -1.22911,1.376376 -0.30874,0.248489 -3.19845,0.859676 -3.5619,1.015357 -1.07529,0.460594 -2.20417,1.149779 -3.33615,1.489194 -0.98455,0.295209 -3.2097,-0.205356 -4.31442,-0.225631 -1.84202,-0.03381 -3.55241,0.235106 -5.36793,0.383571 -1.41058,0.115353 -4.25201,0.117541 -5.59368,-0.15794 -1.12925,-0.231868 -1.66745,-0.986195 -2.68397,-1.331251 -0.36428,-0.123656 -1.40021,-0.272897 -1.15385,0.02257 0.36791,0.441259 2.29197,0.189129 2.83447,0.203076" />
    <path
       style="fill:none;stroke:#000000;stroke-width:0.264583px;stroke-linecap:butt;stroke-linejoin:miter;stroke-opacity:1"
       d="m 154.99845,89.180963 c -0.13487,0.173516 -0.34207,0.313004 -0.39878,0.525647 -0.0144,0.05407 0.0701,-0.03465 0.0884,-0.05262 0.37484,-0.366913 0.72748,-0.755671 1.09018,-1.134424 0.32483,-0.33921 0.6519,-0.676345 0.98456,-1.008186 0.0343,-0.03417 0.1459,-0.155768 0.10035,-0.01779 -0.89413,2.708504 -2.16675,5.297734 -3.82423,7.622057 -0.9371,1.314114 -1.97153,2.565723 -3.14718,3.671554 -0.43021,0.40466 -0.99223,0.638407 -1.40571,1.063456 -0.52147,0.53606 -0.81131,1.24641 -1.31381,1.79799 -0.19514,0.2142 -0.43393,0.38919 -0.7041,0.49765 -0.42166,0.16928 -0.88488,0.22173 -1.28733,0.44276 -0.86472,0.47491 -1.63666,1.09649 -2.49468,1.58355 -1.02724,0.58312 -2.00227,1.26486 -3.09208,1.73317 -0.32887,0.14132 -0.67214,0.2437 -1.0124,0.35362 -0.5088,0.16436 -1.0219,0.34155 -1.47435,0.63077 -0.1114,0.0712 -0.2223,0.1479 -0.29919,0.25942 -0.1293,0.18755 -0.20189,0.40841 -0.34043,0.59039 -0.0547,0.0719 -0.14877,0.11498 -0.24166,0.0848 -0.11029,-0.0358 -0.16583,-0.15312 -0.16612,-0.26408 -7.5e-4,-0.28806 0.16073,-0.56455 0.11171,-0.85107 -0.0274,-0.16026 -0.0794,-0.31566 -0.13291,-0.46887 -0.19011,-0.54397 -0.51238,-1.02584 -0.7758,-1.53466 -0.13972,-0.26988 -0.26895,-0.54773 -0.34137,-0.84466 -0.13642,-0.55933 -0.13454,-1.15391 -0.35989,-1.68882 -0.10589,-0.25135 -0.23331,-0.49316 -0.36166,-0.73358 -0.56574,-1.05967 -1.21409,-2.071681 -1.85231,-3.088238 -0.58368,-0.929686 -1.42205,-1.669571 -1.97928,-2.618549 -0.21663,-0.368926 -0.36771,-0.772486 -0.47479,-1.185942 -0.27328,-1.055172 -0.3654,-2.146704 -0.60856,-3.207943 -0.076,-0.331864 -0.17312,-0.661601 -0.33424,-0.964518 -0.52719,-0.99117 -1.19327,-1.900806 -1.74296,-2.878396 -0.23578,-0.419322 -0.19161,-0.970161 -0.504,-1.338 -0.15746,-0.185411 -0.3297,-0.358043 -0.50057,-0.531078 -0.17507,-0.177286 -0.28011,-0.502855 -0.52785,-0.529393 -0.0783,-0.0084 -0.08,0.107228 -0.0862,0.162772 -0.01,0.08744 -1.2e-4,0.350548 -0.0105,0.26334 -0.0776,-0.652929 -0.15251,-1.307093 -0.22944,-1.960441"
       id="path191"
       inkscape:path-effect="#path-effect193"
       inkscape:original-d="m 154.99845,89.180963 c -1.58354,1.973384 1.982,-2.043153 1.88128,-1.73739 -1.40667,4.270285 -3.64166,8.048864 -6.92313,11.28176 -0.4587,0.451908 -0.96335,0.641432 -1.40469,1.060489 -0.63473,0.602688 -0.9586,1.557668 -1.63045,2.098408 -0.53256,0.42863 -1.14913,0.38142 -1.73078,0.69945 -0.83919,0.45886 -1.58465,1.07142 -2.40805,1.53433 -1.37868,0.77508 -2.46378,1.61863 -3.98833,2.07585 -0.58298,0.17483 -1.37169,0.4491 -1.85618,0.81227 -0.29083,0.21801 -0.39593,0.96133 -0.72744,0.8123 -0.35704,-0.16052 0.0437,-0.79328 -0.0502,-1.17331 -0.23867,-0.96614 -0.72949,-1.50363 -1.10368,-2.36916 -0.29077,-0.67258 -0.22584,-1.54961 -0.55185,-2.2338 -0.58545,-1.2287 -1.39646,-2.4383 -2.10704,-3.610155 -0.70512,-1.162857 -1.79713,-1.985724 -2.3077,-3.271713 -0.51987,-1.309397 -0.61983,-3.786312 -1.0786,-4.670645 -0.5121,-0.987134 -1.19254,-2.003187 -1.78096,-2.955829 -0.24969,-0.404257 -0.27825,-0.974027 -0.52677,-1.376374 -0.0465,-0.07524 -1.00772,-1.05116 -1.02842,-1.060471 -0.12718,-0.05721 -0.0845,0.54468 -0.10035,0.40613 -0.0738,-0.64699 -0.15053,-1.29364 -0.22579,-1.940459" />
    <path
       style="fill:none;stroke:#000000;stroke-width:0.264583px;stroke-linecap:butt;stroke-linejoin:miter;stroke-opacity:1"
       d="m 137.64045,106.48718 c -0.56972,-0.10809 -1.16885,-0.0626 -1.71197,0.14504 -0.66857,0.25564 -1.22999,0.72052 -1.73744,1.21432 -0.74809,0.72796 -1.40102,1.55845 -2.233,2.19635 -0.33121,0.25395 -0.69101,0.47846 -1.08901,0.61267 -0.7485,0.25241 -1.55055,0.25738 -2.30961,0.46565 -0.24798,0.068 -0.48313,0.17459 -0.70815,0.29934 -0.4221,0.23401 -0.82669,0.4996 -1.25972,0.71377 -0.37884,0.18737 -0.79115,0.28972 -1.20224,0.38444 -0.34369,0.0792 -0.67996,0.18703 -1.02102,0.27643 -0.32541,0.0853 -0.65086,0.19039 -0.98765,0.20953 -0.10046,0.006 -0.21109,0.0196 -0.30173,-0.0324 -0.0641,-0.0367 -0.0142,-0.11111 0.0245,-0.14888 0.12143,-0.11836 0.2743,-0.19988 0.38753,-0.32785 0.0457,-0.0516 0.0239,-0.12175 0.0174,-0.18224 -0.071,-0.66453 -0.26661,-1.32249 -0.61246,-1.89525 -1.10066,-1.82277 -2.38939,-3.52984 -3.39499,-5.41004 -0.12444,-0.23267 -0.25237,-0.4656 -0.33201,-0.71867 -0.17304,-0.54987 -0.21148,-1.12883 -0.26573,-1.69919 -0.038,-0.39971 -0.0943,-0.79813 -0.19215,-1.18859 -0.25782,-1.02899 -0.63005,-2.027726 -1.09296,-2.982059 -0.37649,-0.776165 -0.82327,-1.515002 -1.25064,-2.263712 -0.5683,-0.995599 -0.8999,-2.108512 -1.09779,-3.233058 -0.12196,-0.693067 -0.18009,-1.394956 -0.24289,-2.09542 -0.0422,-0.470812 -0.11966,-0.954198 -0.007,-1.419257 0.0298,-0.123219 0.10376,-0.239106 0.10059,-0.367111 -0.002,-0.07783 -0.0949,-0.02967 -0.13162,-0.0049 -0.10931,0.07354 -0.13389,0.216886 -0.1301,0.339438 0.006,0.204605 0.0676,0.402302 0.13141,0.59517"
       id="path195"
       inkscape:path-effect="#path-effect197"
       inkscape:original-d="m 137.64045,106.48718 c -2.89719,-0.52915 -4.0944,2.72493 -6.27095,3.94862 -1.05012,0.59038 -2.43244,0.3832 -3.41138,0.92509 -1.03455,0.57268 -1.44221,0.9441 -2.53347,1.15075 -0.47562,0.0901 -2.12061,0.66468 -2.35788,0.45127 -0.13975,-0.12571 0.46464,-0.37616 0.4515,-0.54153 -0.0562,-0.70746 -0.28473,-1.44729 -0.65218,-2.05327 -1.14693,-1.89148 -2.50821,-3.68833 -3.53681,-5.68602 -0.45329,-0.88036 -0.34373,-2.15236 -0.57692,-3.11376 -0.49688,-2.04852 -1.24231,-3.49093 -2.30771,-5.27986 -0.95895,-1.610196 -1.26604,-3.456459 -1.4047,-5.30243 -0.0392,-0.521094 -0.1268,-1.038423 -0.0251,-1.556882 0.0277,-0.141185 0.18799,-0.470043 0.0502,-0.428702 -0.37193,0.111569 -0.14197,0.766188 -0.0752,0.970227" />
    <path
       style="fill:none;stroke:#000000;stroke-width:0.264583px;stroke-linecap:butt;stroke-linejoin:miter;stroke-opacity:1"
       d="m 124.54672,112.06037 c -1.13568,0.1984 -2.20592,0.64561 -3.26028,1.09649 -1.0648,0.45534 -2.14315,0.90697 -3.28624,1.12717 -0.27607,0.0532 -0.55543,0.0858 -0.83596,0.1048 -1.50843,0.10232 -3.01783,0.1965 -4.52891,0.24673 -0.58634,0.0195 -1.17491,0.0765 -1.76001,0.0295 -0.0834,-0.007 -0.1803,0.0154 -0.25012,-0.0325 -0.15352,-0.10536 -0.23839,-0.28162 -0.30473,-0.44918 -0.18204,-0.45975 -0.279,-0.94792 -0.35892,-1.43398 -0.20414,-1.24159 -0.29778,-2.49776 -0.38842,-3.75177 -0.0314,-0.43482 -0.0548,-0.87137 -0.13546,-1.30096 -0.2183,-1.16244 -0.71619,-2.26105 -0.84873,-3.44004 -0.0812,-0.72277 -0.11271,-1.45022 -0.13258,-2.17693 -0.0499,-1.82566 -0.006,-3.660554 -0.25665,-5.474497 -0.056,-0.404899 -0.1302,-0.807927 -0.24512,-1.200775 -0.26705,-0.912912 -0.66123,-1.780642 -0.96947,-2.679576 -0.20265,-0.591003 -0.41343,-1.181145 -0.54985,-1.791954 -0.0459,-0.205419 -0.0888,-0.411692 -0.1057,-0.62222 -0.0781,-0.972666 -0.12627,-1.947496 -0.20203,-2.920347 -0.068,-0.873846 -0.10995,-1.753276 -0.26732,-2.616123 -0.0411,-0.22557 -0.10199,-0.446963 -0.16648,-0.668752 -0.0186,-0.0638 -0.0997,-0.134862 -0.15361,-0.05957 -0.0885,0.123655 -0.12305,0.276654 -0.15787,0.421852 -0.0765,0.318918 -0.12721,0.64341 -0.17516,0.967622"
       id="path199"
       inkscape:path-effect="#path-effect201"
       inkscape:original-d="m 124.54672,112.06037 c -2.48739,0.43824 -4.49362,1.98984 -7.04855,2.30146 -0.36648,0.0447 -6.62077,0.42957 -6.87297,0.27078 -0.80171,-0.50478 -1.01756,-5.37963 -1.10368,-6.34035 -0.12703,-1.41703 -0.81632,-2.79128 -0.95319,-4.21938 -0.25232,-2.63263 0.0109,-5.387981 -0.4515,-7.987475 -0.19028,-1.069756 -0.73248,-2.17769 -1.07862,-3.204025 -0.28772,-0.853115 -0.5015,-1.395095 -0.67725,-2.301486 -0.13671,-0.705019 -0.43974,-10.069129 -1.15386,-5.144479" />
    <path
       style="fill:none;stroke:#000000;stroke-width:0.264583px;stroke-linecap:butt;stroke-linejoin:miter;stroke-opacity:1"
       d="m 115.94296,113.18854 c -1.39811,-0.10142 -2.79542,0.0916 -4.17217,0.3185 -1.50955,0.24876 -3.02107,0.55807 -4.55663,0.56216 -1.31311,0.004 -2.61464,-0.27942 -3.92895,-0.20265 -0.31756,0.0185 -0.63955,0.0381 -0.94563,0.12597 -0.31984,0.0918 -0.57637,0.32663 -0.90298,0.40505 -0.14831,0.0356 -0.29854,-0.0199 -0.42593,-0.0933 -0.2604,-0.14999 -0.50536,-0.33245 -0.79508,-0.4267 -0.12775,-0.0416 -0.311762,0.044 -0.3957,-0.0597 -0.03831,-0.0474 0.03967,-0.1084 0.07094,-0.14682 0.05775,-0.0709 0.114834,-0.14485 0.134724,-0.23868 0.1217,-0.57418 0.17861,-1.15892 0.26965,-1.73827 0.26699,-1.69906 0.48246,-3.40969 0.54069,-5.13025 0.0224,-0.66309 -0.002,-1.32634 0.002,-1.9896 0.0138,-2.49027 0.21721,-4.984999 0.0271,-7.471689 -0.0602,-0.787444 -0.2656,-1.553826 -0.46762,-2.314311 -0.22766,-0.857017 -0.487923,-1.711618 -0.588177,-2.595252 -0.05346,-0.471158 -0.05951,-0.955682 0.06214,-1.418165 0.106463,-0.404733 0.257823,-0.796436 0.342183,-1.207685 0.3682,-1.794899 0.57764,-3.617309 0.76109,-5.438709 0.0524,-0.520654 0.15394,-1.05201 0.0639,-1.567872 -0.01,-0.05733 -0.005,-0.225815 -0.0426,-0.177397 -0.10489,0.134071 -0.17095,0.305057 -0.23057,0.465958 -0.11684,0.315325 -0.1627,0.677624 -0.0285,0.995878 0.13895,0.329526 0.43882,0.558092 0.75049,0.712774 0.51943,0.257791 1.09129,0.383218 1.65705,0.492502 0.6326,0.122195 1.27555,0.191024 1.90211,0.34304 0.0539,0.01307 0.10754,0.02696 0.16089,0.04204"
       id="path203"
       inkscape:path-effect="#path-effect205"
       inkscape:original-d="m 115.94296,113.18854 c -2.9049,-0.21043 -5.78694,0.84148 -8.65391,0.87999 -1.59596,0.0214 -3.2973,-0.42115 -4.89134,-0.0903 -0.35684,0.0741 -0.66621,0.39613 -1.02843,0.42871 -0.40752,0.0366 -0.80263,-0.58666 -1.530115,-0.58666 -0.127093,0 0.148,-0.21438 0.175585,-0.33844 0.11732,-0.52762 0.16514,-1.06834 0.25084,-1.60201 0.31671,-1.97234 0.60975,-4.24173 0.57692,-6.2501 -0.0459,-2.80625 0.20113,-5.6865 0.0251,-8.483881 -0.11604,-1.844085 -1.251859,-4.219761 -1.078599,-5.9342 0.05315,-0.525968 0.292799,-1.016936 0.401329,-1.534324 0.32846,-1.565957 0.53054,-3.193928 0.70235,-4.783465 0.0705,-0.65246 0.1505,-1.306759 0.1505,-1.963018 0,-0.1748 0.01,-0.671748 -0.0752,-0.518967 -1.469357,2.643399 2.59606,2.558957 4.23916,3.023455" />
    <path
       style="fill:none;stroke:#000000;stroke-width:0.264583px;stroke-linecap:butt;stroke-linejoin:miter;stroke-opacity:1"
       d="m 115.94296,113.18854 c -1.6812,1.16073 -3.18717,2.56956 -4.956,3.60295 -0.3758,0.21955 -0.75239,0.44533 -1.15921,0.6006 -0.36713,0.14012 -0.77075,0.072 -1.13953,-0.0244 -0.45542,-0.11904 -0.90378,-0.27806 -1.37818,-0.31104 -1.27229,-0.0885 -2.54512,0.16551 -3.81638,0.0261 -0.49673,-0.0545 -0.98234,-0.18961 -1.44193,-0.38442 -0.62486,-0.26486 -1.26518,-0.4985 -1.9295,-0.64472 -0.662446,-0.14581 -1.347107,-0.17162 -2.021423,-0.10757 -0.763583,0.0725 -1.520056,0.21126 -2.286171,0.2584 -0.361294,0.0222 -0.72361,0.034 -1.086013,0.0283 -0.149949,-0.002 -0.285335,-0.0697 -0.424299,-0.11779 -0.275308,-0.0953 -0.563179,-0.15305 -0.852111,-0.18624 -0.819255,-0.0941 -1.647281,0.10873 -2.462279,-0.0153 -0.357175,-0.0543 -0.689351,-0.20406 -1.028121,-0.32219 -0.362102,-0.12627 -0.73865,-0.2117 -1.122055,-0.24084 -0.627585,-0.0477 -1.269124,-0.0351 -1.877538,-0.21801 -0.343345,-0.10324 -0.623243,-0.33757 -0.86696,-0.6114 -0.07228,-0.0812 -0.0238,-0.19183 0.02063,-0.27378 0.06139,-0.11323 0.139031,-0.21545 0.193297,-0.3336 0.260842,-0.56792 0.293934,-1.20296 0.323499,-1.81808 0.01816,-0.37777 0.02136,-0.75594 0.0153,-1.13413 -0.0111,-0.69294 -0.03454,-1.39981 0.151557,-2.07443 0.325007,-1.17818 1.042431,-2.20879 1.334116,-3.39737 0.233944,-0.95329 0.255525,-1.93956 0.356943,-2.91162 0.05925,-0.56786 0.103431,-1.14987 0.307897,-1.68447 0.132337,-0.34601 0.372539,-0.63484 0.59292,-0.927437 0.214883,-0.285297 0.429158,-0.578993 0.54704,-0.921504 0.220221,-0.63986 0.293565,-1.322698 0.561217,-1.948339 0.310648,-0.726146 0.785388,-1.374139 1.039261,-2.126005 0.173426,-0.513616 0.252996,-1.05347 0.318602,-1.589484 0.172929,-1.412872 0.245791,-2.835928 0.292349,-4.257775 0.04428,-1.35231 0.07987,-2.705581 0.06206,-4.058536 -0.01066,-0.809458 -0.0093,-1.620466 -0.07582,-2.42716 -0.02193,-0.265777 -0.06091,-0.5286 -0.102229,-0.792802 -0.01696,-0.10846 0.07275,-0.08949 0.140717,-0.03454 0.259927,0.210139 0.479282,0.463763 0.688722,0.723186 0.03422,0.04238 0.06845,0.08476 0.102874,0.126975"
       id="path207"
       inkscape:path-effect="#path-effect209"
       inkscape:original-d="m 115.94296,113.18854 c -2.01507,1.39142 -3.8186,3.15504 -6.04519,4.17426 -0.74279,0.34001 -1.61989,-0.21582 -2.43312,-0.29333 -1.46251,-0.1394 -3.0243,0.24428 -4.46492,-0.0677 -0.66988,-0.14507 -0.99603,-0.34343 -1.65553,-0.58665 -2.620595,-0.9665 -3.600151,-0.25609 -6.120445,-0.18051 -1.001136,0.03 -0.497779,-0.0851 -1.530115,-0.27077 -0.896987,-0.16137 -1.779667,0.0428 -2.65889,-0.0451 -0.475419,-0.0475 -1.033497,-0.38221 -1.780953,-0.51896 -0.912132,-0.16689 -2.62522,0.0832 -3.185644,-0.92511 -0.0637,-0.1146 0.156874,-0.39349 0.175601,-0.42871 0.371822,-0.69933 0.36997,-1.50335 0.401326,-2.27891 0.03802,-0.94033 -0.09972,-1.94649 0.150505,-2.86557 0.336582,-1.23625 1.106916,-2.33039 1.379612,-3.5876 0.307596,-1.41811 0.19872,-2.95545 0.602022,-4.35476 0.160269,-0.55607 0.881346,-1.204419 1.103678,-1.759943 0.236796,-0.591669 0.30744,-1.280911 0.526769,-1.872782 0.354042,-0.955405 0.966886,-1.647221 1.229103,-2.68506 0.496324,-1.964386 0.576927,-7.068108 0.576927,-9.296157 0,-0.88705 -0.05554,-1.775708 -0.07525,-2.662494 -0.0067,-0.300773 -0.232894,-1.092993 0,-0.902546 0.393483,0.321767 0.537126,0.523462 0.827765,0.879983" />
    <path
       style="fill:none;stroke:#000000;stroke-width:0.264583px;stroke-linecap:butt;stroke-linejoin:miter;stroke-opacity:1"
       d="m 92.640117,117.34022 c -0.558069,0.23813 -1.170325,0.30952 -1.772509,0.31349 -0.693906,0.005 -1.388558,-0.0399 -2.081866,0.0225 -0.69533,0.0626 -1.381925,0.22447 -2.027795,0.49216 -0.477104,0.19774 -0.947041,0.43406 -1.463562,0.51216 -0.684444,0.10349 -1.379235,-0.0154 -2.045741,-0.17203 -0.605888,-0.14241 -1.19429,-0.34749 -1.789177,-0.52878 -0.385503,-0.11748 -0.793403,-0.12858 -1.193308,-0.096 -0.309396,0.0252 -0.633142,0.0865 -0.932495,-0.0277 -0.299224,-0.11418 -0.537114,-0.3588 -0.682569,-0.63417 -0.10897,-0.2063 -0.109917,-0.44979 -0.09273,-0.67608 0.04376,-0.57598 0.192751,-1.13747 0.347903,-1.69171 0.21806,-0.77896 0.487012,-1.54259 0.705705,-2.32132 0.104195,-0.37102 0.156141,-0.75407 0.202829,-1.13568 0.127716,-1.04389 0.173809,-2.10006 0.102542,-3.14988 -0.09778,-1.44037 -0.463563,-2.84952 -0.955776,-4.20274 -0.676944,-1.86109 -1.55982,-3.64622 -2.106372,-5.554838 -0.464904,-1.623494 -0.624704,-3.317668 -0.653153,-5.000576 -0.01272,-0.752573 -0.01454,-1.506056 0.02429,-2.257793 0.08463,-1.638425 0.469257,-3.243054 0.930482,-4.811898 0.459349,-1.562462 1.024438,-3.098152 1.358146,-4.693632 0.120347,-0.575387 0.0525,-1.167001 -0.03112,-1.742333 -0.08277,-0.569528 -0.162992,-1.148957 -0.08242,-1.724468 0.04411,-0.315019 0.06313,-0.640365 0.178243,-0.938078 0.02419,-0.06256 0.08729,-0.22882 0.154254,-0.14638 0.09284,0.114303 0.109387,0.268918 0.122289,0.410604 0.02797,0.307151 0.0028,0.615777 0.01289,0.923414"
       id="path211"
       inkscape:path-effect="#path-effect213"
       inkscape:original-d="m 92.640117,117.34022 c -1.19892,0.50337 -2.361046,0.22763 -3.612062,0.3159 -3.551489,0.25059 -2.530057,2.02053 -7.449892,0.36102 -1.470382,-0.49597 -2.07401,0.48575 -2.909728,-0.76716 -0.515049,-0.77217 0.843592,-4.05536 1.028443,-5.07679 0.229407,-1.26764 0.319206,-2.86804 0.20067,-4.17426 -0.346741,-3.82095 -2.287743,-6.49599 -3.160564,-9.950513 -0.515689,-2.04104 -0.578943,-4.319124 -0.526759,-6.408033 0.08779,-3.514199 1.472954,-6.440559 2.282627,-9.815124 0.292097,-1.217409 -0.252198,-2.313379 -0.100333,-3.497344 0.04953,-0.386131 0.187127,-1.445877 0.376256,-1.105612 0.150048,0.269954 0.0838,0.958837 0.10033,1.286118" />
    <path
       style="fill:none;stroke:#000000;stroke-width:0.264583px;stroke-linecap:butt;stroke-linejoin:miter;stroke-opacity:1"
       d="m 82.23034,117.99456 c -1.278005,0.0542 -2.520106,0.38869 -3.750132,0.71513 -0.651934,0.17302 -1.299002,0.37928 -1.966927,0.47593 -0.582074,0.0842 -1.171502,0.10288 -1.758665,0.1133 -1.474399,0.0262 -2.951997,0.003 -4.420624,-0.13242 -0.690219,-0.0636 -1.390436,-0.10921 -2.057774,-0.30229 -0.218958,-0.0633 -0.452948,-0.12465 -0.623176,-0.2867 -0.295814,-0.2816 -0.519278,-0.62701 -0.773986,-0.94396 -0.120454,-0.14989 -0.296814,-0.2326 -0.464006,-0.3174 -0.160012,-0.0812 -0.255414,-0.23934 -0.347629,-0.38563 -0.29647,-0.47033 -0.4223,-1.02079 -0.518117,-1.56193 -0.07973,-0.45029 -0.120808,-0.91334 -0.279327,-1.3438 -0.140485,-0.38149 -0.409318,-0.6956 -0.565164,-1.07125 -0.370243,-0.89242 -0.496492,-1.86708 -0.490669,-2.82775 0.0032,-0.52574 0.009,-1.05488 0.09098,-1.57405 0.06889,-0.436 0.325223,-0.80704 0.550547,-1.17532 0.149291,-0.24401 0.273365,-0.50413 0.348161,-0.78186 0.204681,-0.76001 0.193129,-1.56552 0.467726,-2.30983 0.503998,-1.36612 1.233523,-2.64515 1.622119,-4.05438 0.136403,-0.494662 0.229877,-1.002313 0.254098,-1.515696 0.03551,-0.7527 0.01222,-1.510876 -0.104895,-2.255287 -0.04818,-0.306244 -0.09378,-0.617387 -0.206626,-0.907237 -0.102486,-0.263237 -0.265177,-0.518085 -0.256038,-0.81138 0.0088,-0.283929 0.204191,-0.508453 0.30095,-0.763857 0.083,-0.219079 0.09018,-0.458624 0.08587,-0.689871 -0.01375,-0.73686 -0.190295,-1.457076 -0.216393,-2.194335 -0.03376,-0.953715 -0.260292,-1.88746 -0.537218,-2.796768 -0.330824,-1.086286 -0.707682,-2.166307 -0.875389,-3.294013 -0.136837,-0.920127 -0.20683,-1.850686 -0.412028,-2.760475 -0.251029,-1.11299 -0.628061,-2.192181 -1.031466,-3.258051 -0.110596,-0.292215 -0.227264,-0.582205 -0.315015,-0.882769 -0.0954,-0.326775 -0.122652,-0.723409 -0.38645,-0.945995 -0.06392,-0.05393 -0.164378,-0.0232 -0.22418,0.02152 -0.07829,0.05854 0.01776,0.138082 0.05421,0.191948 0.224513,0.331807 0.483468,0.638219 0.721817,0.959832"
       id="path219"
       inkscape:path-effect="#path-effect221"
       inkscape:original-d="m 82.23034,117.99456 c -1.960512,0.0859 -3.7441,0.79254 -5.618774,1.17331 -1.282036,0.2604 -7.583297,0.18523 -8.804415,-0.47383 -0.295375,-0.15942 -0.841433,-0.95936 -0.928095,-1.06049 -0.231997,-0.27073 -0.485767,-0.25865 -0.652179,-0.47384 -0.710253,-0.91841 -0.628925,-1.99948 -0.928103,-3.04607 -0.109987,-0.38476 -0.392557,-0.69329 -0.551846,-1.06047 -0.613797,-1.41486 -0.590897,-2.91774 -0.451509,-4.42245 0.06289,-0.67896 0.647985,-1.22826 0.85285,-1.85021 0.259487,-0.78778 0.215667,-1.65151 0.501673,-2.43686 0.611304,-1.67859 1.53301,-3.1405 1.831118,-4.963974 0.159017,-0.972677 0.0772,-2.758294 -0.20067,-3.700417 -0.08971,-0.304184 -0.301004,-0.585404 -0.301004,-0.902539 0,-0.388398 0.289415,-0.622998 0.351179,-0.970246 0.139052,-0.781809 -0.158279,-1.778047 -0.175593,-2.572239 -0.04414,-2.024766 -0.842288,-3.545634 -1.279271,-5.482921 -0.241607,-1.071123 -0.265891,-2.206151 -0.501674,-3.294279 -0.309713,-1.429308 -0.727866,-2.573348 -1.254191,-3.926046 -0.178131,-0.457809 -0.241131,-0.976704 -0.526762,-1.376373 -0.05167,-0.0723 -0.298484,0.01524 -0.250838,0.09025 0.240953,0.379296 0.535125,0.722032 0.802685,1.083048" />
    <path
       style="fill:none;stroke:#000000;stroke-width:0.264583px;stroke-linecap:butt;stroke-linejoin:miter;stroke-opacity:1"
       d="m 67.782071,117.40791 c -0.581206,-0.28775 -1.126243,-0.66159 -1.746798,-0.85828 -0.382409,-0.12121 -0.78946,-0.10565 -1.18537,-0.0963 -0.480253,0.0113 -0.972734,0.0332 -1.438202,-0.10914 -0.255808,-0.0782 -0.483943,-0.22741 -0.678451,-0.4108 -0.683743,-0.64467 -1.177345,-1.45879 -1.601831,-2.2896 -0.456991,-0.89443 -0.816437,-1.83623 -1.291379,-2.7213 -0.389447,-0.72575 -1.011198,-1.29873 -1.692073,-1.7482 -0.975449,-0.64393 -2.065883,-1.08031 -3.13952,-1.52945 -0.535313,-0.22394 -1.085766,-0.42078 -1.591295,-0.7063 -0.217213,-0.12268 -0.336259,-0.35676 -0.413265,-0.58507 -0.09488,-0.28131 -0.147838,-0.57934 -0.299703,-0.83943 -0.169689,-0.29062 -0.411252,-0.54495 -0.506342,-0.87464 -0.06112,-0.21192 -0.07036,-0.43471 -0.08013,-0.65359 -0.04399,-0.98595 0.17673,-1.96059 0.464019,-2.89765 0.32908,-1.07337 0.768688,-2.11496 1.007582,-3.214088 0.154586,-0.711236 0.161422,-1.453296 0.400776,-2.145578 0.156694,-0.453206 0.394383,-0.873106 0.644131,-1.280451 0.360609,-0.588163 0.743228,-1.165495 1.031981,-1.794633 0.734527,-1.600396 1.188625,-3.307274 1.697307,-4.987812 0.111959,-0.36988 0.203724,-0.747047 0.342892,-1.107599 0.164487,-0.426147 0.390031,-0.825167 0.611406,-1.223544 0.372955,-0.671152 0.788252,-1.321069 1.107548,-2.020003 0.102346,-0.224034 0.189975,-0.455472 0.249769,-0.696605 0.0094,-0.03798 0.0038,-0.191806 -0.03816,-0.09633 -0.0856,0.19465 -0.139449,0.401905 -0.186091,0.608754 -0.01879,0.08331 -0.0367,0.167035 -0.0468,0.251915"
       id="path223"
       inkscape:path-effect="#path-effect225"
       inkscape:original-d="m 67.782071,117.40791 c -0.560205,-0.27828 -1.096388,-0.61134 -1.680612,-0.83483 -0.929177,-0.35546 -2.384385,0.24689 -3.285982,-0.5641 -1.417688,-1.27522 -2.094865,-3.3624 -2.934806,-5.0091 -1.132319,-2.21992 -4.273796,-2.97627 -6.42145,-4.03886 -0.462331,-0.22875 -0.483587,-0.8327 -0.65218,-1.241 -0.192579,-0.46639 -0.584224,-0.73601 -0.652179,-1.28613 -0.279522,-2.2629 0.888886,-4.31688 1.404691,-6.430587 0.207029,-0.848378 0.173919,-1.701932 0.526759,-2.527128 0.399939,-0.935336 1.063331,-1.73084 1.50503,-2.662483 0.92375,-1.948403 1.435293,-4.123955 2.081955,-6.159839 0.310865,-0.978691 2.006704,-3.407508 2.006704,-4.106563 0,-0.29309 -0.243541,0.543557 -0.275924,0.83485" />
    <path
       style="fill:none;stroke:#000000;stroke-width:0.264583px;stroke-linecap:butt;stroke-linejoin:miter;stroke-opacity:1"
       d="m 67.782071,117.40791 c -1.029986,0.75142 -2.089133,1.4837 -3.261464,1.99799 -0.806907,0.35398 -1.676075,0.55162 -2.552858,0.62356 -1.095733,0.0899 -2.196379,0.0684 -3.29453,0.0629 -0.686873,-0.003 -1.378021,-0.0371 -2.060592,0.0498 -0.346919,0.0442 -0.681268,0.15429 -1.012079,0.26334 -0.900264,0.29678 -1.785123,0.67643 -2.733515,0.79304 -0.432106,0.0531 -0.873072,0.0276 -1.295432,-0.0829 -0.636771,-0.16665 -1.2422,-0.43818 -1.893001,-0.55835 -1.470544,-0.27154 -2.962774,-0.39683 -4.452273,-0.50537 -1.990687,-0.14506 -4.003367,0.0335 -5.9792,-0.29813 -0.464477,-0.078 -0.937851,-0.1474 -1.375528,-0.32252 -0.3563,-0.14256 -0.581248,-0.47293 -0.790056,-0.77753 -0.208612,-0.30431 -0.406653,-0.66585 -0.75918,-0.80873 -0.531878,-0.21557 -1.097133,-0.36625 -1.588571,-0.66589 -0.09335,-0.0569 -0.19022,-0.11961 -0.231978,-0.23201 -0.223169,-0.60071 -0.68184,-1.08654 -0.85484,-1.71073 -0.263032,-0.94903 -0.206525,-1.95061 -0.07355,-2.91577 0.170298,-1.23611 0.504837,-2.44614 0.621444,-3.68984 0.254634,-2.71586 -0.04864,-5.4499 0.251003,-8.16546 0.06307,-0.571601 0.210153,-1.141912 0.159797,-1.721533 -0.03488,-0.401523 -0.266153,-0.746166 -0.51036,-1.05263 C 33.894624,97.439298 33.705349,97.176975 33.56877,96.882097 33.020218,95.697759 32.419326,94.533389 31.684516,93.451801 31.226693,92.777918 30.693897,92.159345 30.210835,91.503962 29.858,91.025261 29.636686,90.45535 29.215374,90.025311 28.73723,89.537263 28.119663,89.210392 27.66908,88.69056 27.185653,88.132836 26.988438,87.387938 26.510633,86.828707 26.156045,86.413691 25.629047,86.203489 25.26268,85.798696 c -0.429635,-0.474697 -0.614443,-1.15834 -1.131169,-1.541518 -0.213526,-0.15834 -0.486439,-0.189586 -0.732648,-0.272984 -0.124637,-0.04222 -0.291662,-0.05654 -0.358595,-0.178694 -0.05363,-0.09788 0.04018,-0.190456 0.09382,-0.263621 0.177951,-0.2427 0.40448,-0.492937 0.715067,-0.544114 0.293881,-0.04842 0.565668,0.129142 0.765783,0.326406 0.22668,0.223451 0.407344,0.488182 0.574836,0.757475"
       id="path227"
       inkscape:path-effect="#path-effect229"
       inkscape:original-d="m 67.782071,117.40791 c -3.825382,2.81645 -5.015216,2.68506 -8.98,2.68506 -0.48178,0 -1.879685,-0.0393 -2.433132,0.0903 -1.316731,0.30815 -2.754993,1.11712 -4.16391,1.03792 -0.802269,-0.0451 -1.572609,-0.47821 -2.357879,-0.63177 -1.435949,-0.28081 -2.933197,-0.39219 -4.38966,-0.51897 -2.46064,-0.21419 -5.088477,0.1139 -7.500059,-0.60921 -0.754298,-0.22617 -0.934897,-1.22988 -1.605369,-1.60201 -0.144905,-0.0804 -1.750553,-0.61587 -1.83111,-0.85741 -0.19557,-0.5864 -0.671216,-1.08331 -0.85285,-1.69227 -0.619265,-2.07623 0.332105,-4.60262 0.526761,-6.67879 0.265909,-2.83617 -0.120692,-5.71112 0.301001,-8.52901 0.07391,-0.493915 0.206161,-1.163809 0.05017,-1.647147 -0.188085,-0.582768 -0.682258,-0.935849 -0.928106,-1.466619 -1.054401,-2.276388 -1.737008,-3.424278 -3.336139,-5.392693 -0.389673,-0.47966 -0.589878,-1.083463 -1.053521,-1.55688 -0.54978,-0.561371 -1.147064,-0.808437 -1.655534,-1.466619 -0.402381,-0.520859 -0.611021,-1.14803 -1.003345,-1.669701 -0.303935,-0.404138 -0.763949,-0.596943 -1.128776,-0.925113 -0.538547,-0.484436 -0.778542,-1.177502 -1.27927,-1.692259 -0.295578,-0.303858 -1.336429,-0.277477 -1.103687,-0.631778 0.818222,-1.245565 1.543553,-0.524272 2.132121,0.428705" />
    <path
       style="fill:none;stroke:#000000;stroke-width:0.264583px;stroke-linecap:butt;stroke-linejoin:miter;stroke-opacity:1"
       d="m 35.348714,119.75453 c -0.23121,-0.34104 -0.48466,-0.66782 -0.771576,-0.96367 -0.08934,-0.0921 -0.159534,-0.2083 -0.157627,-0.34275 0.0022,-0.15244 0.0087,-0.59952 0.05127,-0.45355 0.01735,0.0594 0.03274,0.19615 -0.03727,0.2188 -0.138761,0.0449 -0.286967,0.0564 -0.431778,0.0711 -0.833278,0.0845 -1.666103,0.17781 -2.491658,0.32438 -2.553239,0.4533 -5.163641,0.25283 -7.72899,0.59211 -0.892517,0.11804 -1.774986,0.32061 -2.67869,0.3503 -0.522044,0.0172 -1.039823,-0.064 -1.554807,-0.13949 -0.428191,-0.0628 -0.863579,-0.15856 -1.294603,-0.10419 -0.338024,0.0426 -0.64955,0.20065 -0.988272,0.24096 -0.0942,0.0112 -0.231544,-0.0122 -0.24453,-0.12238 -0.02443,-0.20737 -0.0033,-0.41916 0.03476,-0.62368 0.131481,-0.70741 0.489754,-1.34117 0.803537,-1.97957 0.28309,-0.57595 0.552844,-1.18265 0.582171,-1.83381 0.02531,-0.56192 -0.14592,-1.13531 -0.486751,-1.58013 -0.351921,-0.45929 -0.828339,-0.80236 -1.30674,-1.11811 -0.880868,-0.58138 -1.840136,-1.04039 -2.69024,-1.66756 -0.339161,-0.25022 -0.680661,-0.52251 -0.897837,-0.89093 -0.099,-0.16795 -0.135934,-0.3631 -0.136964,-0.55798 -0.0029,-0.55624 0.169302,-1.09798 0.415286,-1.59217 0.349558,-0.70227 0.78891,-1.35805 1.06948,-2.09682 0.08926,-0.23504 0.11096,-0.48751 0.116785,-0.73718 0.0078,-0.33548 -0.03716,-0.67535 0.02622,-1.00696 0.114324,-0.59812 0.500023,-1.10129 0.618004,-1.69939 0.119435,-0.60547 0.0999,-1.22706 0.06743,-1.83965 -0.01816,-0.342635 -0.02149,-0.685844 -0.03797,-1.028516 -0.06845,-1.423974 -0.402023,-2.820567 -0.421295,-4.250898 -0.0045,-0.330797 0.06663,-0.657501 0.177052,-0.968212 0.151277,-0.425668 0.339656,-0.840872 0.418107,-1.290102 0.170733,-0.977656 0.398833,-1.946685 0.518109,-2.93194 0.03791,-0.313131 -0.08356,-0.613651 -0.163874,-0.910257 -0.05785,-0.213631 -0.09337,-0.443931 -0.02028,-0.661221 0.148885,-0.442626 0.492915,-0.773107 0.769353,-1.136226 0.214632,-0.281933 0.365771,-0.612934 0.42095,-0.965834 0.121688,-0.778259 0.262236,-1.57609 0.133553,-2.359171 -0.0754,-0.458811 -0.215303,-0.903686 -0.339616,-1.350797 -0.229238,-0.824488 -0.47828,-1.653167 -0.54502,-2.509347 -0.03216,-0.41254 -0.0485,-0.85047 0.12478,-1.234042 0.05395,-0.119435 0.08986,-0.309743 0.221273,-0.325549 0.09535,-0.01147 0.07992,0.143736 0.08045,0.208403 0.0016,0.195228 -0.01962,0.389651 -0.03503,0.58402"
       id="path231"
       inkscape:path-effect="#path-effect233"
       inkscape:original-d="m 35.348714,119.75453 c -0.927912,-1.35354 -1.01445,-0.83893 -0.877935,-1.75997 0.0113,-0.0762 0.02394,0.20459 -0.05017,0.22564 -0.148579,0.0422 -0.487778,0.0708 -0.677256,0.0903 -0.698363,0.0718 -1.390981,0.14098 -2.081956,0.27075 -2.581685,0.48487 -5.209906,0.27186 -7.801069,0.60921 -1.134729,0.14773 -1.935858,0.38119 -3.035137,0.36102 -0.855035,-0.0157 -1.663954,-0.26629 -2.508376,-0.2482 -0.435271,0.009 -1.287684,0.50274 -1.304358,0.0677 -0.07556,-1.97153 2.304803,-3.59564 1.078599,-5.75369 -0.928441,-1.63401 -5.118375,-2.83697 -5.167261,-4.33219 -0.05197,-1.58948 1.109486,-2.51928 1.530111,-3.94863 0.124648,-0.42357 0.03736,-1.01228 0.07525,-1.44406 0.05189,-0.59119 0.452739,-1.12162 0.602005,-1.69226 0.216749,-0.82863 0.09004,-1.91441 0.07525,-2.752745 -0.02747,-1.557026 -0.484148,-3.112532 -0.426421,-4.670645 0.02818,-0.760603 0.45337,-1.326835 0.576926,-2.030717 0.174497,-0.994084 0.342059,-1.981541 0.526761,-2.978385 0.09207,-0.496919 -0.325786,-1.084173 -0.200671,-1.534324 0.217489,-0.782511 1.053394,-1.172541 1.204018,-2.120964 0.120265,-0.757264 0.236806,-1.570325 0.150505,-2.346608 -0.120199,-1.081204 -1.542411,-4.418195 -0.576926,-5.460373 0.174622,-0.188491 0.09489,0.510966 0.07525,0.767162" />
    <path
       style="fill:none;stroke:#000000;stroke-width:0.264583px;stroke-linecap:butt;stroke-linejoin:miter;stroke-opacity:1"
       d="m 15.40709,119.41607 c 0.242422,-0.15602 0.487826,-0.32237 0.6655,-0.5524 0.08373,-0.1084 0.159831,-0.24012 0.147135,-0.3823 -0.01018,-0.114 -0.09801,-0.20627 -0.200552,-0.24898 -0.120291,-0.0501 -0.267378,-0.0553 -0.381707,0.0137 -0.09029,0.0545 -0.116585,0.16628 -0.121869,0.26427 -0.01227,0.22751 0.06024,0.44979 0.05533,0.67674 -0.0017,0.0763 -0.02161,0.16231 -0.09181,0.20775 -0.08595,0.0556 -0.174096,-0.0252 -0.251416,-0.0604 -0.406877,-0.18569 -0.799603,-0.39999 -1.195846,-0.60724 -0.143868,-0.0752 -0.291252,-0.16626 -0.458222,-0.16972 -0.162842,-0.003 -0.321866,0.0401 -0.478765,0.0779 -0.481589,0.11591 -0.965271,0.22571 -1.456318,0.29469 -1.216366,0.17088 -2.4548049,0.15834 -3.6618442,0.39595 -0.2679638,0.0527 -0.5373132,0.10663 -0.7955633,0.19678 -0.6567729,0.22926 -1.2272752,0.64542 -1.8760285,0.89312 -0.386403,0.14753 -0.802102,0.19183 -1.2126965,0.20867 -0.4230919,0.0173 -0.8497449,0.005 -1.2686168,0.0753 -0.4042369,0.0675 -0.7994383,0.20001 -1.2111035,0.2135 -0.09095,0.003 -0.1858651,0.0153 -0.2728688,-0.012 -0.090085,-0.0283 -0.1525834,-0.10715 -0.2026636,-0.18249 -0.13988865,-0.21045 -0.23540806,-0.44663 -0.32096866,-0.68312 -0.17020456,-0.47045 -0.30293122,-0.95369 -0.41871443,-1.44019 -0.0472103,-0.19837 -0.0750108,-0.40053 -0.11725576,-0.6 -0.26455708,-1.2492 -0.72968841,-2.44645 -0.9776462,-3.6998 -0.083914,-0.42416 -0.12846505,-0.85551 -0.13926155,-1.28772 -0.0224951,-0.90054 0.0707716,-1.80411 -0.025483,-2.70211 -0.0997571,-0.93068 -0.2862694,-1.8545 -0.306349,-2.79143 -0.00235,-0.10962 -0.013561,-0.21886 -0.036073,-0.32628 -0.05209,-0.24854 -0.1137677,-0.49742 -0.2159037,-0.72997 -0.027213,-0.062 -0.029824,-0.16063 -0.095714,-0.17992 -0.044295,-0.013 -0.033325,0.0655 -0.03271,0.094 0.00185,0.0858 0.058401,0.16291 0.1357689,0.19817 0.1287241,0.0587 0.2741354,0.0592 0.4127025,0.0543 0.26129429,-0.009 0.51924779,-0.059 0.78033311,-0.07"
       id="path239"
       inkscape:path-effect="#path-effect241"
       inkscape:original-d="m 15.40709,119.41607 c 1.628903,-1.02969 0.343883,-1.46876 0.150505,-1.08305 -0.163355,0.32583 0.211806,1.0433 -0.150505,1.08305 -2.276513,-1.02388 -1.218776,-1.00105 -3.060224,-0.60921 -1.610119,0.34261 -3.4025263,0.23226 -4.966591,0.65434 -0.7135437,0.19256 -1.3652479,0.68104 -2.0568724,0.94767 -0.7806505,0.30095 -1.5451757,0.17644 -2.3578751,0.27075 -0.4930311,0.0572 -1.1100527,0.28505 -1.6053646,0.22564 -0.43252594,-0.0519 -0.95656841,-2.222 -1.0033513,-2.50455 -0.25900969,-1.56432 -0.99084515,-3.22133 -1.15385679,-4.76091 -0.11843245,-1.11854 0.0563972,-2.26236 -0.0752485,-3.42964 -0.10941182,-0.97014 -0.25942121,-1.82528 -0.30100661,-2.79788 -0.016023,-0.37474 -0.3762594,-1.43558 -0.3762594,-1.06049 0,0.44829 0.88133302,0.21567 1.32944501,0.20308" />
    <path
       style="fill:none;stroke:#000000;stroke-width:0.264583px;stroke-linecap:butt;stroke-linejoin:miter;stroke-opacity:1"
       d="m 158.00851,70.769138 c -0.10112,0.643265 -0.11465,1.304851 -0.30439,1.930066 -0.0498,0.163964 -0.1739,0.288096 -0.27615,0.420317 -0.0755,0.09766 -0.13078,0.210385 -0.15589,0.332972 -0.3057,1.49237 -0.40547,3.015375 -0.55325,4.528719 -0.0385,0.394784 -0.0676,0.791036 -0.12738,1.183198 -0.0794,0.520448 -0.27782,1.01177 -0.46833,1.499327 -0.13191,0.337594 -0.28223,0.671791 -0.35859,1.02672 -0.0573,0.266164 -0.0719,0.539369 -0.0812,0.810657 -0.0258,0.75686 -0.005,1.514367 0.0198,2.27093 0.0177,0.529901 0.0304,1.059993 0.0536,1.589678 0.0362,0.823867 0.12487,1.645085 0.13569,2.470135 0.009,0.718755 -0.0282,1.446874 -0.22319,2.142386 -0.14939,0.532941 -0.40686,1.046171 -0.80353,1.437838 -0.15386,0.151919 -0.31775,0.295772 -0.49895,0.413374 -0.0571,0.03708 -0.11186,0.09344 -0.18122,0.09695 -0.0566,0.0029 -0.0316,-0.06916 -0.0186,-0.100464 0.0647,-0.155931 0.15613,-0.298882 0.24215,-0.443547 0.17859,-0.300341 0.36814,-0.596375 0.50682,-0.918033 0.0468,-0.108523 0.0779,-0.223224 0.0906,-0.341324 0.0695,-0.644639 -0.008,-1.292345 -0.008,-1.93807"
       id="path310"
       inkscape:path-effect="#path-effect312"
       inkscape:original-d="m 158.00851,70.769138 c -0.10034,0.639299 -0.13689,1.291931 -0.30102,1.917898 -0.0684,0.260861 -0.36737,0.43879 -0.42642,0.72203 -0.38604,1.851974 -0.45809,3.823451 -0.67725,5.663445 -0.10381,0.871551 -0.5986,1.737353 -0.82777,2.57224 -0.2035,0.741373 -0.0504,3.487322 -0.0251,4.535268 0.046,1.902724 0.66289,4.968525 -1.07859,6.408033 -1.30835,1.081474 0.24419,-0.746469 0.32608,-1.398931 0.0834,-0.664176 0,-1.338773 0,-2.008158" />
  </g>
</svg>
