<?xml version="1.0" encoding="UTF-8" standalone="no"?>
<!-- Created with Inkscape (http://www.inkscape.org/) -->

<svg
   width="169.33333mm"
   height="127mm"
   viewBox="0 0 169.33333 127"
   version="1.1"
   id="svg5"
   inkscape:version="1.1.2 (08b2f3d93c, 2022-04-05)"
   sodipodi:docname="CelulasMusculares.svg"
   xmlns:inkscape="http://www.inkscape.org/namespaces/inkscape"
   xmlns:sodipodi="http://sodipodi.sourceforge.net/DTD/sodipodi-0.dtd"
   xmlns="http://www.w3.org/2000/svg"
   xmlns:svg="http://www.w3.org/2000/svg">
  <sodipodi:namedview
     id="namedview7"
     pagecolor="#ffffff"
     bordercolor="#666666"
     borderopacity="1.0"
     inkscape:pageshadow="2"
     inkscape:pageopacity="0.0"
     inkscape:pagecheckerboard="0"
     inkscape:document-units="mm"
     showgrid="false"
     inkscape:zoom="1.1525841"
     inkscape:cx="334.03204"
     inkscape:cy="284.14414"
     inkscape:window-width="1366"
     inkscape:window-height="704"
     inkscape:window-x="0"
     inkscape:window-y="27"
     inkscape:window-maximized="1"
     inkscape:current-layer="layer2" />
  <defs
     id="defs2">
    <inkscape:path-effect
       effect="simplify"
       id="path-effect109"
       is_visible="true"
       lpeversion="1"
       steps="1"
       threshold="0.000408163"
       smooth_angles="360"
       helper_size="0"
       simplify_individual_paths="false"
       simplify_just_coalesce="false" />
    <inkscape:path-effect
       effect="simplify"
       id="path-effect105"
       is_visible="true"
       lpeversion="1"
       steps="1"
       threshold="0.000408163"
       smooth_angles="360"
       helper_size="0"
       simplify_individual_paths="false"
       simplify_just_coalesce="false" />
    <inkscape:path-effect
       effect="simplify"
       id="path-effect101"
       is_visible="true"
       lpeversion="1"
       steps="1"
       threshold="0.000408163"
       smooth_angles="360"
       helper_size="0"
       simplify_individual_paths="false"
       simplify_just_coalesce="false" />
    <inkscape:path-effect
       effect="simplify"
       id="path-effect97"
       is_visible="true"
       lpeversion="1"
       steps="1"
       threshold="0.000408163"
       smooth_angles="360"
       helper_size="0"
       simplify_individual_paths="false"
       simplify_just_coalesce="false" />
    <inkscape:path-effect
       effect="simplify"
       id="path-effect93"
       is_visible="true"
       lpeversion="1"
       steps="1"
       threshold="0.000408163"
       smooth_angles="360"
       helper_size="0"
       simplify_individual_paths="false"
       simplify_just_coalesce="false" />
    <inkscape:path-effect
       effect="simplify"
       id="path-effect89"
       is_visible="true"
       lpeversion="1"
       steps="1"
       threshold="0.000408163"
       smooth_angles="360"
       helper_size="0"
       simplify_individual_paths="false"
       simplify_just_coalesce="false" />
    <inkscape:path-effect
       effect="simplify"
       id="path-effect85"
       is_visible="true"
       lpeversion="1"
       steps="1"
       threshold="0.000408163"
       smooth_angles="360"
       helper_size="0"
       simplify_individual_paths="false"
       simplify_just_coalesce="false" />
    <inkscape:path-effect
       effect="simplify"
       id="path-effect81"
       is_visible="true"
       lpeversion="1"
       steps="1"
       threshold="0.000408163"
       smooth_angles="360"
       helper_size="0"
       simplify_individual_paths="false"
       simplify_just_coalesce="false" />
    <inkscape:path-effect
       effect="simplify"
       id="path-effect77"
       is_visible="true"
       lpeversion="1"
       steps="1"
       threshold="0.000408163"
       smooth_angles="360"
       helper_size="0"
       simplify_individual_paths="false"
       simplify_just_coalesce="false" />
    <inkscape:path-effect
       effect="simplify"
       id="path-effect73"
       is_visible="true"
       lpeversion="1"
       steps="1"
       threshold="0.000408163"
       smooth_angles="360"
       helper_size="0"
       simplify_individual_paths="false"
       simplify_just_coalesce="false" />
    <inkscape:path-effect
       effect="simplify"
       id="path-effect69"
       is_visible="true"
       lpeversion="1"
       steps="1"
       threshold="0.000408163"
       smooth_angles="360"
       helper_size="0"
       simplify_individual_paths="false"
       simplify_just_coalesce="false" />
    <inkscape:path-effect
       effect="simplify"
       id="path-effect65"
       is_visible="true"
       lpeversion="1"
       steps="1"
       threshold="0.000408163"
       smooth_angles="360"
       helper_size="0"
       simplify_individual_paths="false"
       simplify_just_coalesce="false" />
    <inkscape:path-effect
       effect="simplify"
       id="path-effect61"
       is_visible="true"
       lpeversion="1"
       steps="1"
       threshold="0.000408163"
       smooth_angles="360"
       helper_size="0"
       simplify_individual_paths="false"
       simplify_just_coalesce="false" />
    <inkscape:path-effect
       effect="simplify"
       id="path-effect57"
       is_visible="true"
       lpeversion="1"
       steps="1"
       threshold="0.000408163"
       smooth_angles="360"
       helper_size="0"
       simplify_individual_paths="false"
       simplify_just_coalesce="false" />
  </defs>
  <g
     inkscape:groupmode="layer"
     id="layer2"
     inkscape:label="Celulas Musculares">
    <path
       style="fill:none;stroke:#000000;stroke-width:0.264583px;stroke-linecap:butt;stroke-linejoin:miter;stroke-opacity:1"
       d="m 55.784294,124.78933 c 0.09336,-0.12135 0.247204,-0.17626 0.397667,-0.17971 0.22602,-0.005 0.458542,0.0898 0.677985,0.0147 0.141127,-0.0483 0.264763,-0.1374 0.379275,-0.23084 0.281987,-0.23009 0.515826,-0.52967 0.853513,-0.68311 0.238417,-0.10833 0.497429,-0.16356 0.730349,-0.28652 0.520592,-0.27482 0.965524,-0.66534 1.422563,-1.03083 0.453281,-0.36248 0.956285,-0.65571 1.465896,-0.93063 0.271657,-0.14655 0.537448,-0.30435 0.813576,-0.44222 0.356642,-0.17807 0.750375,-0.25585 1.12308,-0.39209 1.176179,-0.42993 2.334202,-0.90932 3.472188,-1.43076 0.772156,-0.35381 1.395258,-0.94755 2.121262,-1.37822 0.248145,-0.1472 0.514424,-0.25988 0.785385,-0.35883 0.728233,-0.26593 1.417714,-0.63539 2.162667,-0.85379 0.378748,-0.11104 0.778139,-0.0375 1.162919,-0.11013 0.571334,-0.10783 1.09652,-0.3684 1.623921,-0.60251 0.228296,-0.10134 0.45368,-0.21297 0.692773,-0.28629 0.327257,-0.10035 0.678197,-0.0891 1.000989,-0.21015 0.474477,-0.17801 0.86292,-0.5139 1.291804,-0.77387 0.1904,-0.11541 0.386276,-0.23183 0.603049,-0.28713 0.243255,-0.0621 0.504882,-0.0373 0.737917,-0.14417 0.338021,-0.15506 0.654556,-0.35264 0.966717,-0.55344 0.659752,-0.42439 1.303205,-0.87431 1.928652,-1.34793 0.130168,-0.0986 0.244281,-0.21816 0.379665,-0.30917 0.219715,-0.1477 0.477054,-0.2209 0.707622,-0.35031 0.752292,-0.42224 1.518995,-0.81824 2.272318,-1.23861 0.469639,-0.26207 0.938984,-0.5257 1.392078,-0.81615 0.110447,-0.0708 0.208088,-0.1595 0.325607,-0.21997 0.286814,-0.14759 0.581447,-0.28989 0.895176,-0.36581 0.08286,-0.02 0.179899,-0.078 0.255012,-0.0333 0.04821,0.0286 0.06309,0.0926 0.07805,0.14372 0.07434,0.254 0.03487,0.52318 -0.01352,0.7777 -0.09207,0.4842 -0.154282,0.97559 -0.291462,1.45004 -0.07435,0.25715 -0.198623,0.50254 -0.383913,0.69802 -0.250703,0.26449 -0.549435,0.47671 -0.842662,0.69038 -0.365589,0.2664 -0.722368,0.54457 -1.086434,0.813 -0.355208,0.2619 -0.7395,0.4873 -1.152792,0.64419 -0.783007,0.29724 -1.593801,0.54728 -2.312776,0.98486 -0.659436,0.40134 -1.200155,0.96967 -1.871349,1.35413 -0.212026,0.12145 -0.442303,0.20646 -0.678048,0.27053 -1.194978,0.32477 -2.441405,0.41562 -3.625686,0.78889 -0.521406,0.16434 -0.974064,0.48125 -1.421927,0.78519 -0.421254,0.28588 -0.841651,0.59307 -1.329036,0.75438 -0.359025,0.11883 -0.738177,0.15479 -1.112141,0.19572 -0.380016,0.0416 -0.763135,0.0694 -1.136971,0.15457 -0.137876,0.0314 -0.264313,0.0952 -0.389247,0.16012 -0.551125,0.28624 -1.093494,0.58941 -1.649998,0.86521 -0.40811,0.20226 -0.876243,0.26334 -1.262675,0.51365 -0.226665,0.14682 -0.377217,0.37534 -0.541456,0.58337 -0.137444,0.17409 -0.321492,0.30942 -0.529927,0.38764 -1.609359,0.60395 -3.332658,0.81743 -4.953518,1.38154 -0.443175,0.15424 -0.834132,0.42367 -1.267993,0.59846 -0.586409,0.23625 -1.221153,0.31905 -1.848369,0.353 -0.300783,0.0163 -0.602081,0.0202 -0.903254,0.0202"
       id="path55"
       inkscape:path-effect="#path-effect57"
       inkscape:original-d="m 55.784294,124.78933 c 0.308806,-0.37581 0.798589,-0.0167 1.152139,-0.19509 0.40712,-0.20543 0.646917,-0.58339 1.030147,-0.81691 0.240181,-0.14636 0.509188,-0.18582 0.759061,-0.30482 0.642278,-0.30587 1.231556,-0.88347 1.802757,-1.29242 0.602313,-0.43123 1.279059,-0.76069 1.924753,-1.12173 0.337828,-0.1889 0.725136,-0.26091 1.084366,-0.39017 1.18055,-0.42478 2.362994,-0.94319 3.510635,-1.43873 1.033613,-0.4463 1.794279,-1.35145 2.87357,-1.73136 0.750287,-0.26411 1.469494,-0.63389 2.222953,-0.87787 0.385064,-0.1247 0.747921,-0.0513 1.125032,-0.10975 0.786775,-0.12202 1.555456,-0.58361 2.290725,-0.86567 0.360659,-0.13836 0.687044,-0.10723 1.030148,-0.21947 0.686636,-0.22462 1.206703,-0.80687 1.884087,-1.06076 0.237286,-0.0889 0.510334,-0.0579 0.731946,-0.13412 0.613876,-0.21114 2.815989,-1.75271 3.33443,-2.21908 0.142645,-0.12831 0.493305,-0.23405 0.677727,-0.3414 0.767213,-0.44658 3.363222,-1.7771 3.903718,-2.21906 0.182095,-0.14889 1.255501,-0.60658 1.328354,-0.47552 0.176856,0.3182 0.05726,0.78695 0,1.12173 -0.334999,1.9588 -0.335973,1.75161 -2.019636,3.02379 -0.616778,0.46604 -1.022728,0.79966 -1.748538,1.07296 -0.740961,0.27901 -1.501087,0.53032 -2.195846,0.92664 -0.810895,0.46256 -1.574988,1.36143 -2.466933,1.62163 -1.266542,0.36949 -2.636081,0.43068 -3.876614,0.86568 -0.925047,0.32437 -1.759312,1.21002 -2.670252,1.51189 -0.727342,0.24103 -2.002708,0.18113 -2.494042,0.43894 -0.58398,0.30642 -1.154049,0.58818 -1.721432,0.90226 -0.432482,0.2394 -1.059645,0.29477 -1.450342,0.64621 -0.348382,0.31339 -0.420759,0.67285 -0.935263,0.86569 -1.599353,0.59945 -3.295864,0.83176 -4.906761,1.36558 -0.400529,0.13272 -0.761079,0.35536 -1.138584,0.53647 -0.867296,0.41608 -2.000896,0.45113 -2.927789,0.45113" />
    <path
       style="fill:none;stroke:#000000;stroke-width:0.264583px;stroke-linecap:butt;stroke-linejoin:miter;stroke-opacity:1"
       d="m 80.684062,120.27803 c 0.498336,-0.01 0.9954,0.0471 1.493797,0.0352 0.357329,-0.009 0.719864,-0.0536 1.052155,-0.19248 0.349967,-0.14624 0.654041,-0.37714 0.961915,-0.59419 0.198765,-0.14013 0.405126,-0.26998 0.623458,-0.37816 1.332244,-0.66008 2.724819,-1.19188 4.14256,-1.64032 0.154438,-0.0489 0.311752,-0.0874 0.468986,-0.12599 0.385169,-0.0946 0.774262,-0.18443 1.141098,-0.3373 0.154926,-0.0646 0.312215,-0.13463 0.438868,-0.24698 0.06674,-0.0592 0.133784,-0.14092 0.123165,-0.23405 -0.0046,-0.04 -0.01121,-0.0781 -0.0031,-0.11953 0.02799,-0.14307 0.06561,-0.2839 0.102403,-0.4249 0.0098,-0.0377 -0.04705,-0.0291 -0.07165,-0.0317 -0.263798,-0.0284 -0.522435,0.0571 -0.786395,0.0464 -0.487842,-0.0198 -0.969408,-0.10617 -1.45349,-0.16357 -0.413145,-0.049 -0.833159,-0.0919 -1.247206,-0.0351 -0.230473,0.0316 -0.458417,0.0802 -0.684138,0.13596 -0.858002,0.21199 -1.691239,0.52135 -2.484406,0.90702 -0.09356,0.0455 -0.199684,0.0498 -0.301632,0.0552 -0.124613,0.007 -0.25127,-0.0106 -0.374094,0.0119 -0.128358,0.0235 -0.251043,0.0713 -0.369895,0.12405 -0.241103,0.10699 -0.472809,0.23498 -0.722761,0.32236 -0.438877,0.15343 -0.89537,0.25375 -1.356915,0.30828 -0.54115,0.0639 -1.086551,0.0802 -1.627878,0.14311 -0.320675,0.0373 -0.639318,0.0915 -0.954028,0.16375 -0.46242,0.10613 -0.922869,0.23193 -1.397284,0.27345 -0.234671,0.0205 -0.469118,0.0522 -0.704672,0.053 -0.01678,6e-5 -0.02731,0.009 -0.0055,0.006 0.04315,-0.007 0.07969,0.0169 0.114254,0.0394 0.201935,0.13093 0.394971,0.27499 0.588814,0.41744 0.583183,0.42857 1.157713,0.86894 1.746129,1.29035 0.106495,0.0763 0.218388,0.1447 0.325186,0.22055 0.16073,0.11416 0.32149,0.22805 0.481881,0.34309 0.03448,0.0247 0.07042,0.0341 0.113638,0.0107 0.215257,-0.1168 0.417518,-0.25555 0.626724,-0.3824 z"
       id="path59"
       inkscape:path-effect="#path-effect61"
       inkscape:original-d="m 80.684062,120.27803 c 0.748932,-0.0177 1.646251,0.14429 2.38561,-0.0975 0.6364,-0.20816 1.095767,-0.70745 1.680769,-0.9998 1.38385,-0.69159 2.875377,-1.28381 4.364574,-1.71917 0.431705,-0.12621 2.155735,-0.4395 2.006074,-0.95104 -0.01524,-0.0521 0.126285,-0.50859 0.108442,-0.51208 -0.279345,-0.0546 -0.548741,0.0449 -0.826831,0.0366 -0.890249,-0.0267 -1.967328,-0.33252 -2.846462,-0.1829 -1.059865,0.18038 -2.107244,0.60026 -3.076892,1.03638 -0.157967,0.071 -0.563245,0.0352 -0.677728,0.061 -0.338738,0.0762 -0.664215,0.29752 -0.989483,0.41456 -1.348325,0.48513 -2.1902,0.3191 -3.551301,0.54867 -0.603853,0.10185 -1.120503,0.28152 -1.721432,0.35359 -0.270251,0.0324 -1.085461,0.0731 -0.813276,0.0731 0.103184,0 2.293969,1.7008 2.710918,1.95083 0.07735,0.0464 0.538488,0.41351 0.582845,0.39017 0.229076,-0.12052 0.44278,-0.26824 0.664173,-0.40236 z" />
    <path
       style="fill:none;stroke:#000000;stroke-width:0.264583px;stroke-linecap:butt;stroke-linejoin:miter;stroke-opacity:1"
       d="m 36.22503,125.27703 c 0.884736,-0.53391 1.867339,-0.89822 2.877355,-1.10789 0.731487,-0.15185 1.481391,-0.22123 2.228795,-0.1885 0.578264,0.0253 1.159719,0.0939 1.73713,0.0257 0.786649,-0.0929 1.525477,-0.4285 2.316912,-0.48999 0.619754,-0.0482 1.23811,0.0459 1.848693,0.14322 0.431472,0.0687 0.865348,0.15239 1.303238,0.14226 0.40126,-0.009 0.774293,-0.19954 1.177687,-0.1954 0.231933,0.002 0.448387,0.12612 0.684146,0.0934 0.421918,-0.0586 0.815972,-0.22979 1.217891,-0.36219 0.206271,-0.0679 0.41329,-0.14504 0.632579,-0.15817 0.198303,-0.0119 0.399892,-0.0194 0.589243,-0.0918 0.608697,-0.23254 1.201573,-0.51934 1.84023,-0.66212 0.306891,-0.0686 0.637644,-0.0222 0.930554,-0.14445 0.671083,-0.28011 1.27768,-0.68659 1.889073,-1.07502 0.586549,-0.37265 1.168379,-0.75347 1.733446,-1.15794 0.303873,-0.21751 0.623143,-0.41982 0.890247,-0.68193 0.05374,-0.0527 0.13639,-0.0972 0.146549,-0.17322 0.0091,-0.0684 -0.09696,-0.0543 -0.141222,-0.0542 -0.299054,4.8e-4 -0.597056,0.0332 -0.893378,0.0703 -0.219675,0.0275 -0.44242,0.0413 -0.657658,0.0934 -0.826766,0.20022 -1.639805,0.45346 -2.468149,0.64749 -0.629545,0.14746 -1.268199,0.27311 -1.916294,0.29903 -0.264537,0.0106 -0.527169,-0.026 -0.789388,-0.056 -0.256093,-0.0293 -0.516187,-0.0687 -0.773444,-0.0321 -0.399728,0.0568 -0.758417,0.287 -1.164785,0.30497 -0.293681,0.013 -0.58743,-0.0626 -0.880889,-0.005 -1.089673,0.21244 -2.089134,0.74343 -3.184667,0.93342 -0.399652,0.0693 -0.808888,0.084 -1.212359,0.0353 -0.481738,-0.0582 -0.962033,-0.15928 -1.450574,-0.13348 -0.443287,0.0234 -0.895739,0.13724 -1.33309,0.0312 -0.300246,-0.0728 -0.612102,-0.0769 -0.918697,-0.0528 -0.312699,0.0246 -0.625505,0.0545 -0.934557,0.10718 -0.186667,0.0319 -0.374968,0.0594 -0.555476,0.11734 -0.04336,0.0139 -0.04367,-0.001 -0.02504,-0.0503 0.02548,-0.0668 0.0214,-0.14157 0.02123,-0.21216 -9.54e-4,-0.39209 -0.02653,-0.78571 -0.09875,-1.17108 -0.03683,-0.19656 -0.07301,-0.39846 -0.167009,-0.57686 -0.03596,-0.0683 -0.09448,-0.14093 -0.180852,-0.13942 -0.171619,0.003 -0.335522,0.0649 -0.491706,0.13021 -0.461548,0.19286 -0.897606,0.44031 -1.330566,0.68925 -0.292905,0.16841 -0.584777,0.33953 -0.8924,0.48065 -0.685848,0.31462 -1.41902,0.51867 -2.090204,0.86541 -0.488402,0.25231 -0.936,0.57431 -1.427645,0.82237 -0.460458,0.23232 -0.901199,0.51665 -1.402435,0.65711 -0.535706,0.15012 -1.110227,0.15489 -1.624277,0.37678 -0.279095,0.12047 -0.54326,0.27225 -0.809523,0.41812 -0.559819,0.30669 -1.107201,0.64073 -1.693337,0.89481 -0.165609,0.0718 -0.336328,0.13191 -0.512157,0.17843 -0.03696,0.01 -0.118424,0.0186 -0.07184,-0.047 0.02474,-0.0348 0.09246,-0.0994 0.104662,-0.0132 0.0172,0.12154 -0.0068,0.24362 -0.0067,0.36537"
       id="path63"
       inkscape:path-effect="#path-effect65"
       inkscape:original-d="m 36.22503,125.27703 c 1.292743,-0.78482 2.970789,-1.26191 4.513678,-1.30462 0.721391,-0.02 1.44654,0.0975 2.168731,0.0488 0.857216,-0.0578 1.727044,-0.47127 2.588927,-0.51209 1.088935,-0.0516 1.983597,0.26403 2.968453,0.29263 0.445143,0.0129 0.809471,-0.20498 1.260578,-0.19509 0.215267,0.005 0.41965,0.12101 0.637064,0.0975 0.517257,-0.0558 1.130434,-0.35186 1.640104,-0.4877 0.261321,-0.0696 0.531752,-0.0138 0.786164,-0.10973 0.607896,-0.22932 1.262663,-0.54 1.897642,-0.68279 0.292066,-0.0657 0.688764,-0.04 0.962377,-0.15851 0.739087,-0.3201 1.333701,-0.73494 2.006079,-1.15831 0.04707,-0.0296 2.676337,-1.7216 2.616036,-1.93863 -0.02931,-0.1055 -1.545789,0.099 -1.694323,0.13412 -1.323586,0.3133 -3.409976,1.03613 -4.744103,0.93883 -0.337188,-0.0246 -0.834663,-0.12505 -1.165696,-0.0854 -0.401553,0.0482 -0.744117,0.25882 -1.138587,0.30482 -0.265224,0.0309 -0.617601,-0.0603 -0.881047,-0.0122 -1.357204,0.24771 -2.572409,1.012 -3.9986,1.012 -0.556477,0 -1.141616,-0.1707 -1.70788,-0.1707 -0.548619,0 -1.072716,0.14284 -1.599441,0.0244 -0.554188,-0.12462 -1.185431,1.8e-4 -1.748541,0.061 -0.208052,0.0225 -0.779119,0.21307 -0.623509,0.0731 0.06817,-0.0613 -0.01744,-2.04888 -0.393084,-2.09714 -0.436046,-0.056 -1.882732,0.8449 -2.344944,1.09734 -0.747521,0.40827 -1.589243,0.63734 -2.358498,0.9998 -0.524989,0.24737 -0.972804,0.60101 -1.491004,0.8535 -0.43031,0.20966 -0.834289,0.4754 -1.287684,0.63401 -0.57943,0.2027 -1.216825,0.2061 -1.789206,0.42675 -0.555926,0.21431 -2.707597,1.57343 -3.117553,1.4997 -0.04785,-0.009 0.09788,-0.145 0.108437,-0.0975 0.02911,0.13092 0,0.26823 0,0.40235" />
    <path
       style="fill:none;stroke:#000000;stroke-width:0.264583px;stroke-linecap:butt;stroke-linejoin:miter;stroke-opacity:1"
       d="m 24.893398,123.78953 c 0.15808,-0.25826 0.351728,-0.52229 0.642079,-0.63842 0.261769,-0.1047 0.545681,-0.12713 0.81972,-0.1837 0.555379,-0.11464 1.110044,-0.27841 1.679541,-0.27655 0.263806,8.6e-4 0.524941,0.087 0.790728,0.0288 0.61499,-0.13465 1.236866,-0.30777 1.870909,-0.26764 0.466765,0.0295 0.921798,0.17383 1.393424,0.15193 0.193,-0.009 0.379036,-0.0677 0.563023,-0.12163 0.311637,-0.0913 0.638486,-0.1621 0.915699,-0.33342 0.06811,-0.0421 0.198207,-0.0819 0.17879,-0.16695 -0.01772,-0.0776 -0.09074,-0.13127 -0.145056,-0.18645 -0.269464,-0.27374 -0.626391,-0.44224 -0.993625,-0.54176 -0.505106,-0.13689 -1.014404,-0.24432 -1.520787,-0.39042 -0.171492,-0.0495 -0.351294,-0.0609 -0.527606,-0.0849 -0.186872,-0.0254 -0.399333,0.0167 -0.560041,-0.0827 -0.06845,-0.0423 0.07364,-0.0542 0.108181,-0.0527 0.30224,0.0131 0.59493,0.10309 0.893985,0.13977 0.364551,0.0447 0.716051,-0.0848 1.065239,-0.16639 0.175543,-0.041 0.356089,-0.044 0.535687,-0.0474 0.927699,-0.0177 1.834028,-0.24435 2.722626,-0.49321 0.545497,-0.15277 1.094319,-0.29273 1.644065,-0.43009 0.536908,-0.13415 1.018961,-0.41845 1.478854,-0.718 0.333559,-0.21726 0.644031,-0.48308 1.014019,-0.63152 0.328178,-0.13167 0.668386,-0.23062 1.00604,-0.33456 0.808731,-0.24894 1.609288,-0.52931 2.431615,-0.72878 0.08583,-0.0208 0.15549,-0.0673 0.225414,-0.12245 0.381178,-0.30071 0.818813,-0.52061 1.261362,-0.7147 0.751814,-0.32973 1.529059,-0.6074 2.328392,-0.79487 0.225592,-0.0529 0.451356,-0.12433 0.683274,-0.12912 0.165999,-0.003 0.320164,0.10858 0.490138,0.0571 0.310487,-0.0941 0.616412,-0.20157 0.916893,-0.32545 0.392708,-0.1619 0.778212,-0.36408 1.197024,-0.4374 0.06032,-0.0106 0.187781,-0.0842 0.164867,0.04 -0.04058,0.21994 -0.180269,0.40246 -0.308664,0.57896 -0.218454,0.3003 -0.46221,0.5977 -0.567438,0.96105 -0.07003,0.24182 -0.03333,0.5095 0.0973,0.72479 0.09877,0.16278 0.220707,0.32021 0.38156,0.42234 0.245359,0.15579 0.545168,0.19129 0.829027,0.19758 0.639006,0.0142 1.27462,-0.0906 1.895411,-0.23204 0.722081,-0.16452 1.431406,-0.38406 2.123948,-0.64807 0.139262,-0.0531 0.269531,-0.1264 0.406778,-0.18366 0.137875,-0.0575 0.288073,-0.0332 0.432711,-0.0371 0.206143,-0.006 0.358914,-0.16306 0.496982,-0.29887 0.291143,-0.28639 0.612224,-0.54855 0.973488,-0.74009 0.117334,-0.0622 0.235532,-0.157 0.368756,-0.15111 0.214334,0.009 0.425848,0.0519 0.638681,0.0773 0.120007,0.0143 0.239258,0.0504 0.360058,0.0448 0.447804,-0.0206 0.889925,-0.16318 1.33957,-0.11257 0.225954,0.0254 0.436118,0.11983 0.646113,0.20093 0.366162,0.14141 0.718606,0.32573 1.099475,0.42237 0.264334,0.0671 0.535925,0.10064 0.806179,0.13362 0.601503,0.0734 1.205442,0.13438 1.811525,0.1519 0.149799,0.004 0.298556,-0.0194 0.448247,-0.021 0.320171,-0.003 0.63838,0.0405 0.957344,0.0624 0.33173,0.0228 0.669546,0.067 0.998202,0.007 0.11869,-0.0217 0.279236,-0.0384 0.329935,-0.15988 0.03427,-0.0821 0.01415,-0.17658 -0.008,-0.25919 -0.04651,-0.17375 -0.206736,-0.28454 -0.369902,-0.33963 -0.321032,-0.1084 -0.665744,-0.1155 -0.983009,-0.24626 -0.573472,-0.23636 -1.199771,-0.29954 -1.814073,-0.3245 -0.909571,-0.037 -1.819577,0.0308 -2.729259,-0.006 -0.558114,-0.0225 -1.101737,-0.16401 -1.638175,-0.3091 -0.515231,-0.13935 -1.02051,-0.31524 -1.539411,-0.44015 -0.711708,-0.17132 -1.453747,-0.0726 -2.168323,-0.23871 -0.605937,-0.14086 -1.232359,-0.18231 -1.833295,-0.34207 -0.30179,-0.0802 -0.580862,-0.23839 -0.897246,-0.26814 -0.687913,-0.0647 -1.375745,0.11182 -2.06252,0.0313 -0.993624,-0.11645 -1.928448,-0.51581 -2.921914,-0.63357 -0.560758,-0.0665 -1.142973,-0.0135 -1.665017,0.20929 -0.278462,0.11885 -0.543424,0.26635 -0.812581,0.40447 -1.113452,0.57138 -2.203698,1.18578 -3.296704,1.79632 -0.574898,0.32113 -1.230811,0.45661 -1.806859,0.77743 -0.954338,0.53151 -1.698216,1.37206 -2.670132,1.87449 -0.231899,0.11988 -0.469207,0.23775 -0.723629,0.30045 -0.347361,0.0856 -0.713846,0.0684 -1.054581,0.18657 -0.338103,0.11725 -0.656149,0.28728 -1.005907,0.37423 -0.932675,0.23185 -1.891823,0.32786 -2.832407,0.51914 -0.930705,0.18927 -1.828146,0.52302 -2.773168,0.64881 -1.076418,0.14328 -2.165239,0.2125 -3.227757,0.44462 -0.304816,0.0666 -0.608712,0.14521 -0.897392,0.26519"
       id="path67"
       inkscape:path-effect="#path-effect69"
       inkscape:original-d="m 24.893398,123.78953 c 0.453842,-0.7438 0.752271,-0.67482 1.436787,-0.81691 0.532923,-0.11062 1.109085,-0.25162 1.653659,-0.28044 0.272296,-0.0144 0.530249,0.0951 0.799719,0.0366 0.596442,-0.1295 1.171683,-0.28044 1.789205,-0.28044 0.528743,0 1.037571,0.21255 1.62655,0.14632 0.133315,-0.015 1.726213,-0.42508 1.53167,-0.65841 -0.716783,-0.85966 -1.705541,-0.68366 -2.643145,-1.07295 -0.15249,-0.0633 -1.111478,-0.12941 -1.111478,-0.18289 0,-0.12153 0.945327,0.0909 0.989486,0.0975 0.520817,0.0781 0.974336,-0.20728 1.491004,-0.20728 1.569199,0 2.902119,-0.56111 4.418796,-0.90226 1.017021,-0.22876 1.680871,-0.87966 2.54826,-1.35339 0.326594,-0.17837 3.557371,-1.07841 3.619077,-1.13392 0.835686,-0.75179 3.268331,-1.57131 4.32391,-1.70697 0.171434,-0.022 0.334733,0.11178 0.501518,0.061 0.891106,-0.2715 0.608068,-0.21529 1.450343,-0.53647 0.511921,-0.19521 0.853937,-0.29065 0.853937,-0.25605 0,0.6677 -1.694786,1.59688 -0.474411,2.69458 0.810244,0.7288 4.291158,-0.28454 5.232069,-0.76814 0.430689,-0.22136 0.544185,0.12593 0.989484,-0.34139 0.291081,-0.30547 0.925999,-0.81278 1.369012,-0.92665 0.07047,-0.0181 0.935445,0.12293 0.975934,0.12193 0.447471,-0.011 1.035151,-0.18596 1.477449,-0.0975 0.328824,0.0657 1.332931,0.53515 1.69432,0.62182 0.446567,0.10712 2.430799,0.33259 2.941347,0.25605 0.426892,-0.064 2.37205,0.32737 2.37205,-0.17069 0,-0.68987 -0.844425,-0.53221 -1.314791,-0.74376 -1.331029,-0.59863 -3.464764,-0.24092 -4.879649,-0.37797 -0.787297,-0.0763 -2.03971,-0.49323 -2.819355,-0.70718 -0.723734,-0.19861 -1.464443,-0.0717 -2.182286,-0.24386 -0.604827,-0.14508 -1.220182,-0.21674 -1.829869,-0.34139 -0.321604,-0.0658 -0.583713,-0.2432 -0.921713,-0.28043 -0.70847,-0.078 -1.460281,0.10629 -2.128071,0.0244 -1.660292,-0.20364 -3.147697,-1.16726 -4.825431,-0.30481 -1.292476,0.66441 -2.552356,1.303 -3.795283,2.04837 -0.505868,0.30336 -1.135589,0.44332 -1.667214,0.70717 -1.237141,0.61401 -2.068452,1.73255 -3.42931,2.23126 -0.28073,0.10289 -0.625594,0.11095 -0.921713,0.15851 -0.415041,0.0667 -0.798557,0.32194 -1.206357,0.42675 -0.913159,0.23468 -1.836941,0.3451 -2.765134,0.51209 -0.931481,0.16758 -1.851456,0.52671 -2.778691,0.6584 -1.326057,0.18833 -3.262099,0.30291 -4.283248,0.73157" />
    <path
       style="fill:none;stroke:#000000;stroke-width:0.264583px;stroke-linecap:butt;stroke-linejoin:miter;stroke-opacity:1"
       d="m 93.19494,119.59524 c 0.242358,-0.15781 0.454629,-0.37884 0.739305,-0.45772 0.269462,-0.0747 0.549619,-0.004 0.812178,0.0647 0.210455,0.0549 0.424647,0.10143 0.644362,0.10022 0.675313,-0.004 1.350709,-0.0276 2.026149,0.004 0.902757,0.0423 1.800819,-0.1317 2.702516,-0.10039 0.31595,0.011 0.61951,0.15299 0.9376,0.11461 0.70363,-0.0849 1.38413,-0.29746 2.0866,-0.39099 0.65909,-0.0877 1.32565,-0.0334 1.98704,-0.0858 0.49956,-0.0395 0.98147,-0.1935 1.44066,-0.39717 0.1435,-0.0636 0.25431,-0.17802 0.35351,-0.29685 0.0872,-0.10446 0.20825,-0.20723 0.21116,-0.35249 0.002,-0.11172 -0.10367,-0.18338 -0.19711,-0.21789 -0.23135,-0.0855 -0.48063,-0.10011 -0.72461,-0.11238 -0.26019,-0.0131 -0.52292,-0.0106 -0.77845,-0.071 -0.3035,-0.0716 -0.59865,-0.18927 -0.91351,-0.20406 -0.20582,-0.01 -0.4127,0.0143 -0.61085,0.0772 -0.16349,0.0519 -0.33042,0.12891 -0.50563,0.10228 -0.0892,-0.0136 -0.15739,-0.0786 -0.20475,-0.15287 -0.12888,-0.20211 -0.2561,-0.4127 -0.31564,-0.64546 -0.019,-0.0743 -0.072,-0.17754 -0.011,-0.23229 0.22327,-0.20056 0.4942,-0.34713 0.77993,-0.43768 0.54188,-0.17172 1.12071,-0.14364 1.67848,-0.0827 0.63561,0.0695 1.26849,0.21363 1.91038,0.18409 0.7474,-0.0344 1.46683,-0.25679 2.19009,-0.42845 0.51309,-0.12178 1.03779,-0.20839 1.56699,-0.20211 0.61525,0.007 1.23079,0.035 1.84291,0.0967 0.16101,0.0162 0.32869,0.007 0.48217,0.0583 0.16022,0.0538 0.30022,0.15171 0.44771,0.23212 0.19024,0.10372 0.39748,0.18185 0.61623,0.19701 0.48498,0.0336 0.96984,-0.0262 1.45493,-0.0264 0.38133,-1.9e-4 0.77501,0.023 1.12884,0.17912 0.1386,0.0611 0.25848,0.15601 0.39896,0.21451 0.3762,0.15665 0.79001,0.17488 1.19196,0.18962 0.37957,0.0139 0.76453,0.007 1.13645,0.0948 0.18677,0.044 0.35153,0.14869 0.49865,0.26871 0.10153,0.0828 0.21867,0.14403 0.34505,0.18087 0.43875,0.1279 0.89879,0.17519 1.35436,0.16703 0.38783,-0.007 0.78872,-0.0243 1.14937,-0.17321 0.59917,-0.24732 1.36486,-0.094 1.86475,-0.50622 0.0649,-0.0535 0.10703,-0.12958 0.15391,-0.1986 0.0506,-0.0745 0.1107,-0.14098 0.1865,-0.19271 0.33036,-0.22547 0.73464,-0.29997 1.12555,-0.3329 0.28481,-0.024 0.56945,-0.0497 0.85498,-0.0652 0.40972,-0.0223 0.82844,-0.046 1.21649,-0.18997 0.21835,-0.081 0.43761,-0.21739 0.53284,-0.43922 0.0551,-0.12828 0.096,-0.28219 0.0439,-0.41134 -0.0791,-0.19636 -0.18018,-0.38383 -0.29267,-0.5627 -0.0514,-0.0817 -0.0766,-0.19481 -0.16177,-0.24095 -0.32585,-0.1765 -0.70418,-0.20398 -1.04774,-0.33251 -0.23746,-0.0888 -0.45037,-0.23058 -0.66058,-0.36961 -0.38133,-0.25221 -0.76818,-0.51684 -1.21719,-0.63339 -0.28577,-0.0742 -0.59875,-0.11237 -0.88,0.001 -0.25658,0.10376 -0.47205,0.28261 -0.71868,0.40633 -0.27655,0.13873 -0.58084,0.20707 -0.88078,0.27357 -0.90101,0.19976 -1.82014,0.30013 -2.73795,0.37883 -0.43605,0.0374 -0.86438,-0.0791 -1.28173,-0.1895 -0.29832,-0.0789 -0.6013,-0.14133 -0.90964,-0.16855 -1.34875,-0.11906 -2.7054,-0.0643 -4.05608,-0.13826 -0.55994,-0.0307 -1.11403,-0.1248 -1.66236,-0.23614 -0.35232,-0.0715 -0.65333,-0.30959 -1.01512,-0.34166 -1.00553,-0.0891 -2.01619,0.0346 -3.00439,0.21812 -1.46088,0.27134 -2.88155,0.73607 -4.34991,0.96391 -0.26617,0.0413 -0.5296,0.0989 -0.78799,0.17546 -0.42977,0.12737 -0.85494,0.27427 -1.29733,0.3548 -0.86267,0.15703 -1.73339,0.26754 -2.593506,0.43904 -0.65172,0.12995 -1.303197,0.28095 -1.922612,0.52699 -0.189341,0.0752 -0.364303,0.17991 -0.543661,0.27562 -0.525482,0.28041 -1.074483,0.5131 -1.613234,0.76621 -0.346269,0.16268 -0.699323,0.31505 -1.026029,0.5152 -0.09923,0.0608 -0.200072,0.13386 -0.241785,0.24885 -0.06205,0.17106 -0.06155,0.35502 -0.111599,0.53013 -0.02407,0.0842 -0.170424,0.27883 -0.0891,0.24682 0.05721,-0.0225 0.121242,-0.0548 0.18645,-0.0684 0.03795,-0.008 0.07654,-0.0125 0.115228,-0.0147"
       id="path71"
       inkscape:path-effect="#path-effect73"
       inkscape:original-d="m 93.19494,119.59524 c 0.216874,-0.14225 0.411544,-0.3262 0.650624,-0.42674 0.468728,-0.19713 1.008481,0.13412 1.463892,0.13412 0.696108,0 1.337003,-0.0409 2.033185,0 0.905396,0.0531 1.820701,-0.0975 2.724479,-0.0975 0.37649,0 0.65642,0.16134 1.0437,0.10974 0.69778,-0.093 1.37322,-0.30613 2.07385,-0.39017 1.2082,-0.14492 2.21388,0.13792 3.42932,-0.4999 0.17262,-0.0906 0.24913,-0.20838 0.37952,-0.35358 0.57673,-0.64231 -0.75352,-0.59166 -1.20636,-0.62184 -0.60792,-0.0405 -0.91634,-0.33096 -1.62655,-0.24385 -0.29773,0.0365 -0.67158,0.29816 -0.8946,0.0975 -0.0928,-0.0835 -0.52542,-0.85189 -0.37953,-0.97541 1.281,-1.08452 3.06612,-0.22588 4.47302,-0.3292 1.14541,-0.0841 2.23198,-0.58552 3.4022,-0.62184 0.58867,-0.0182 2.01448,0.0664 2.5347,0.14632 0.19757,0.0303 0.58474,0.3785 1.00304,0.42674 0.83773,0.0966 2.10826,-0.22687 2.84646,0.25605 0.6793,0.4444 1.71758,0.22899 2.49405,0.39017 0.44649,0.0927 0.54524,0.34395 0.82683,0.43894 0.71618,0.24158 1.95379,0.27019 2.62958,0 0.56134,-0.22444 1.2554,-0.25481 1.81632,-0.48771 0.0465,-0.0193 0.19434,-0.28271 0.27109,-0.3414 0.4868,-0.3722 1.10746,-0.36907 1.69432,-0.42674 0.55974,-0.055 2.27397,0.0323 2.15518,-1.03638 -0.0111,-0.1 -0.40681,-0.79901 -0.46085,-0.82911 -0.35894,-0.19987 -0.85296,-0.21321 -1.23347,-0.41455 -0.5723,-0.30283 -1.03103,-0.74489 -1.66721,-0.91445 -1.06743,-0.28449 -1.10374,0.2904 -2.00608,0.54867 -1.02418,0.29314 -2.13592,0.38193 -3.18533,0.4999 -0.72392,0.0814 -1.4046,-0.27416 -2.11452,-0.34139 -1.36144,-0.12892 -2.73728,-0.10698 -4.09348,-0.14632 -0.5464,-0.0158 -1.16677,-0.1453 -1.70787,-0.23165 -0.38508,-0.0615 -0.68901,-0.31938 -1.09792,-0.35359 -2.40619,-0.20136 -5.16805,0.82926 -7.50925,1.21927 -0.58589,0.0976 -1.13861,0.34349 -1.72143,0.46331 -1.2683,0.26078 -3.915788,0.50468 -5.110082,1.20709 -0.734074,0.43174 -2.650191,1.18021 -2.927787,1.47531 -0.131022,0.13928 -0.114144,0.39366 -0.162658,0.57306 -0.143581,0.53096 -0.211055,0.26638 0.189773,0.24385" />
    <path
       style="fill:none;stroke:#000000;stroke-width:0.264583px;stroke-linecap:butt;stroke-linejoin:miter;stroke-opacity:1"
       d="m 123.06925,121.86308 c 0.20312,-0.1057 0.53052,-0.0994 0.60996,-0.31701 0.017,-0.0466 -0.0181,-0.0963 -0.0373,-0.13815 -0.0458,-0.0998 -0.0907,-0.19973 -0.12754,-0.30419 -0.0167,-0.0474 0.0209,-0.0816 0.053,-0.1104 0.21578,-0.19358 0.44123,-0.37601 0.66339,-0.56212 0.18923,-0.15852 0.39009,-0.30423 0.56708,-0.47634 0.35915,-0.34924 0.76677,-0.6529 1.2218,-0.86621 0.52075,-0.24412 1.08602,-0.36534 1.63544,-0.52556 0.26076,-0.076 0.5227,-0.15058 0.77597,-0.24928 0.45177,-0.17605 0.8771,-0.4219 1.34671,-0.54969 0.19021,-0.0518 0.38426,-0.0881 0.57762,-0.12574 1.4209,-0.27659 2.86857,-0.3636 4.30377,-0.53528 0.58586,-0.0701 1.14225,-0.27796 1.71832,-0.39548 0.37711,-0.0769 0.76989,-0.10045 1.14939,-0.0217 0.17516,0.0363 0.34052,0.10591 0.5068,0.17093 0.26148,0.10225 0.55244,0.097 0.80892,0.21788 0.10291,0.0485 0.18325,0.13395 0.24073,0.2311 0.12049,0.20363 0.17138,0.44336 0.31741,0.63316 0.079,0.10268 0.19813,0.16019 0.31139,0.216 0.36402,0.17938 0.74948,0.31565 1.10163,0.51791 0.0831,0.0477 0.16806,0.0961 0.23575,0.16565 0.0329,0.0339 0.0187,0.0838 0.006,0.12288 -0.0452,0.13829 -0.15781,0.24016 -0.26993,0.32601 -0.13493,0.10332 -0.27959,0.19246 -0.4156,0.29466 -0.43349,0.32574 -0.94553,0.53743 -1.4754,0.64571 -0.70622,0.14432 -1.43196,0.1239 -2.14799,0.0914 -0.78049,-0.0354 -1.59296,-0.21874 -2.34472,0.006 -0.031,0.009 -0.12287,4e-4 -0.0991,0.0202 0.0481,0.0401 0.1068,0.0654 0.16285,0.0924 0.24834,0.11949 0.49662,0.24089 0.75488,0.33698 0.33967,0.12638 0.68843,0.24298 0.99431,0.44069 0.13448,0.0869 0.26846,0.18936 0.34452,0.33417 0.0509,0.097 0.0514,0.21617 0.005,0.31512 -0.076,0.1608 -0.22289,0.27168 -0.3637,0.37335 -0.34822,0.25143 -0.61722,0.59041 -0.89661,0.91209 -0.23714,0.27303 -0.49378,0.53647 -0.80627,0.72395 -0.50081,0.30047 -1.07376,0.46128 -1.64913,0.53876 -0.73209,0.0986 -1.47777,0.0814 -2.20741,-0.0255 -1.99371,-0.2921 -3.95096,-0.78473 -5.89299,-1.31356 -0.3514,-0.0957 -0.7057,-0.18148 -1.05404,-0.28777 -0.20591,-0.0628 -0.39655,-0.16924 -0.60453,-0.22463 -0.0744,-0.0198 -0.15937,-0.0458 -0.23231,-0.0103 -0.0646,0.0314 -0.0787,0.11102 -0.0787,0.17607 -4e-5,0.0578 0.009,0.11529 0.02,0.17187"
       id="path75"
       inkscape:path-effect="#path-effect77"
       inkscape:original-d="m 123.06925,121.86308 c 0.20332,-0.10567 0.43037,-0.1747 0.60996,-0.31701 0.0481,-0.0381 -0.20554,-0.3952 -0.16266,-0.4999 0.023,-0.0562 1.16717,-0.98101 1.28768,-1.09734 1.17035,-1.12982 2.01462,-1.08652 3.45642,-1.57286 0.53572,-0.18071 1.09947,-0.52378 1.65366,-0.64621 1.57274,-0.34748 3.09331,-0.44327 4.70344,-0.62183 1.17979,-0.13083 2.18252,-0.8046 3.37509,-0.26824 0.28746,0.12929 0.6364,0.0971 0.90816,0.26824 0.29987,0.18882 0.30113,0.68772 0.58285,0.91445 0.25321,0.20379 1.601,0.67523 1.58588,0.86568 -0.0232,0.29242 -0.43916,0.49193 -0.63707,0.64621 -1.77888,1.38677 -4.08728,0.49904 -6.12666,0.80472 -0.0798,0.012 0.87115,0.42022 0.9217,0.43894 0.62937,0.23312 2.0372,0.71522 1.00304,1.43874 -0.65602,0.45897 -1.01075,1.20812 -1.69432,1.63382 -1.10587,0.68869 -2.72139,0.71375 -3.98505,0.52428 -2.30099,-0.345 -4.55901,-0.95972 -6.8044,-1.57286 -0.50201,-0.13708 -1.08465,-0.57438 -0.94881,0.0975" />
    <path
       style="fill:none;stroke:#000000;stroke-width:0.264583px;stroke-linecap:butt;stroke-linejoin:miter;stroke-opacity:1"
       d="m 99.741809,123.8261 c 0.244144,-0.0656 0.479771,-0.18128 0.735971,-0.1868 0.31353,-0.007 0.61874,0.10271 0.9317,0.0908 0.39764,-0.0151 0.79287,-0.0694 1.1845,-0.13787 0.72021,-0.12592 1.43373,-0.29344 2.16159,-0.37335 0.71926,-0.079 1.44627,-0.11407 2.15348,-0.27944 1.5736,-0.36796 3.19835,-0.46363 4.76406,-0.87132 0.7002,-0.18232 1.3594,-0.49217 2.06285,-0.66547 1.14346,-0.2817 2.30334,-0.52195 3.40317,-0.95202 0.29092,-0.11376 0.59539,-0.20851 0.85635,-0.38032 0.1209,-0.0796 0.21872,-0.18832 0.31933,-0.29109 0.12838,-0.13113 0.24464,-0.27707 0.39291,-0.38617 0.17787,-0.13088 0.40763,-0.17606 0.57147,-0.32787 0.10119,-0.0938 0.16616,-0.23995 0.129,-0.3778 -0.0398,-0.14753 -0.15591,-0.2595 -0.27615,-0.34557 -0.2307,-0.16514 -0.49535,-0.27699 -0.76462,-0.36161 -0.1755,-0.0551 -0.35543,-0.0967 -0.53936,-0.11456 -1.63331,-0.15844 -3.27613,-0.0864 -4.91408,-0.11659 -0.24924,-0.005 -0.49915,-0.005 -0.74705,-0.0367 -0.51905,-0.0658 -1.02913,-0.2087 -1.55531,-0.2135 -0.19274,-0.002 -0.38361,0.0296 -0.57182,0.0695 -0.48706,0.10325 -0.95884,0.27761 -1.39467,0.51887 -0.5059,0.28005 -0.96837,0.6301 -1.46739,0.92166 -0.37511,0.21916 -0.76646,0.40945 -1.16314,0.586 -0.77595,0.34535 -1.59139,0.60267 -2.42716,0.75648 -0.57896,0.10655 -1.1665,0.163 -1.75487,0.17784 -0.64775,0.0163 -1.29835,0.0145 -1.94192,-0.0597 -0.294619,-0.034 -0.580061,-0.11997 -0.873334,-0.16252 -0.195683,-0.0284 -0.396787,-0.0313 -0.591539,0.0148 -0.314047,0.0744 -0.634037,0.13196 -0.937291,0.24318 -0.06138,0.0225 -0.149794,0.0213 -0.179638,0.0805 -0.02027,0.0402 0.03414,0.0817 0.05861,0.11349 0.151851,0.19693 0.341606,0.36719 0.453878,0.59271 0.08991,0.1806 0.121119,0.38204 0.159167,0.5781 0.0407,0.20973 0.07847,0.42254 0.163214,0.62034 0.05076,0.11848 0.141977,0.21434 0.247214,0.28708 0.231932,0.16032 0.529331,0.20484 0.743158,0.3926 0.167224,0.14684 0.247339,0.36691 0.414913,0.51341 0.06315,0.0552 0.145828,0.0818 0.229822,0.0853 0.282606,0.0117 0.554446,-0.085 0.813206,-0.18789 0.29335,-0.1166 0.58622,-0.25481 0.90436,-0.28453 0.0295,-0.003 0.0592,-0.005 0.0888,-0.005"
       id="path83"
       inkscape:path-effect="#path-effect85"
       inkscape:original-d="m 99.741809,123.8261 c 0.225909,-0.061 0.444921,-0.15933 0.677731,-0.18289 0.30379,-0.0307 0.72098,0.10243 1.0437,0.0854 1.0809,-0.0572 2.04833,-0.35623 3.104,-0.48771 0.76328,-0.0951 1.55239,-0.11465 2.30427,-0.29262 1.60123,-0.37901 3.24397,-0.46412 4.83899,-0.89007 0.65689,-0.17542 1.28178,-0.4711 1.93831,-0.63401 1.48799,-0.36924 2.94356,-0.6514 4.32391,-1.3412 0.18713,-0.0935 0.56044,-0.57319 0.75905,-0.70718 0.20506,-0.13834 0.49238,-0.19263 0.62352,-0.40236 0.38118,-0.60959 -1.06548,-1.06021 -1.42323,-1.09734 -1.77375,-0.18409 -3.61294,-0.0919 -5.39473,-0.13412 -0.76565,-0.0181 -1.56826,-0.35095 -2.33139,-0.20728 -1.6131,0.3037 -2.12849,1.02618 -3.42931,1.69479 -1.28938,0.66274 -2.48358,1.06527 -3.93082,1.23146 -0.92386,0.10609 -1.98355,0.0856 -2.914239,0.0122 -0.43097,-0.034 -1.042464,-0.27589 -1.477444,-0.15851 -0.08963,0.0242 -1.210458,0.2672 -1.15215,0.35359 0.181655,0.26914 0.407922,0.42963 0.54219,0.73157 0.159575,0.35885 0.148992,1.0371 0.406635,1.31681 0.239118,0.25959 0.608603,0.29363 0.867498,0.4999 0.22734,0.18112 0.33365,0.5879 0.623509,0.60963 0.632811,0.0474 1.209011,-0.46049 1.843421,-0.47552" />
    <path
       style="fill:none;stroke:#000000;stroke-width:0.264583px;stroke-linecap:butt;stroke-linejoin:miter;stroke-opacity:1"
       d="m 135.83206,114.52308 c 0.12046,-0.14471 0.23237,-0.29642 0.35521,-0.43912 0.0624,-0.0725 0.13544,-0.14374 0.23069,-0.16896 0.11238,-0.0298 0.22986,-0.0264 0.34501,-0.0353 0.11255,-0.009 0.22608,-0.003 0.33682,0.0197 0.2685,0.0546 0.51808,0.17208 0.76766,0.28097 0.31041,0.13543 0.63101,0.26345 0.97091,0.297 0.16777,0.0166 0.33672,0.009 0.50483,0.004 1.07403,-0.0354 2.13729,-0.23075 3.17332,-0.50815 0.22812,-0.0611 0.4583,-0.11633 0.6819,-0.19241 0.3114,-0.10595 0.61119,-0.24308 0.90668,-0.38669 0.61404,-0.29843 1.21615,-0.6232 1.79265,-0.98906 0.31497,-0.19989 0.63211,-0.40151 0.91036,-0.65089 0.11207,-0.10044 0.2285,-0.20361 0.30034,-0.33776 0.10597,-0.19788 0.1503,-0.42418 0.15469,-0.64686 0.003,-0.16806 -0.006,-0.34119 -0.0663,-0.49874 -0.0457,-0.11869 -0.16195,-0.19147 -0.27723,-0.23096 -0.21291,-0.0729 -0.44123,-0.0844 -0.66426,-0.0811 -0.47227,0.007 -0.94123,0.0744 -1.40598,0.15388 -0.79926,0.13664 -1.58618,0.33509 -2.38122,0.49281 -0.1973,0.0391 -0.39391,0.0956 -0.59536,0.1 -0.23086,0.005 -0.46147,0.0187 -0.69147,0.0394 -0.74022,0.0669 -1.47669,0.19181 -2.2219,0.19195 -0.26124,5e-5 -0.52158,-0.0257 -0.78026,-0.0607 -0.44043,-0.0595 -0.88112,-0.13865 -1.32743,-0.1313 -0.1506,0.002 -0.29986,0.024 -0.44833,0.048 -0.62136,0.10057 -1.24259,0.21008 -1.87042,0.25987 -0.21109,0.0167 -0.42454,0.0414 -0.6353,0.0155 -0.0641,-0.008 -0.13746,-0.008 -0.18757,-0.0514 -0.12564,-0.10885 -0.26809,-0.19607 -0.41128,-0.27948 -0.20855,-0.12148 -0.40855,-0.26998 -0.64017,-0.33811 -0.0384,-0.0113 -0.0806,-0.0511 -0.12007,-0.0116 -0.0611,0.0613 -0.065,0.15515 -0.0517,0.2356 0.0257,0.15531 0.0933,0.29985 0.16524,0.43842 0.10312,0.19856 0.23822,0.37842 0.34719,0.5735 0.22318,0.39956 0.46124,0.79313 0.75016,1.14936 0.28862,0.35586 0.63587,0.66516 1.02963,0.90096 0.16477,0.0987 0.33981,0.17852 0.50618,0.27435 0.1543,0.0889 0.31245,0.17737 0.44088,0.30175 0.053,0.0513 0.11033,0.10872 0.12339,0.1842 0.01,0.0565 -0.0315,0.10449 -0.0711,0.13855 -0.0872,0.075 -0.20811,0.088 -0.31875,0.0865 -0.20622,-0.003 -0.41043,-0.0573 -0.61709,-0.0377"
       id="path87"
       inkscape:path-effect="#path-effect89"
       inkscape:original-d="m 135.83206,114.52308 c 0.53368,-0.65043 0.41001,-0.61725 0.98948,-0.64621 0.65508,-0.0327 1.33457,0.60963 2.19585,0.60963 1.38955,0 2.78841,-0.29729 4.10704,-0.68279 0.85115,-0.24883 3.59374,-1.71978 3.97149,-2.36538 0.1816,-0.31038 0.21261,-0.80871 0.10843,-1.14611 -0.29027,-0.94007 -4.65562,0.40269 -5.36762,0.41455 -1.04771,0.0175 -2.13806,0.2858 -3.18532,0.21946 -0.66729,-0.0423 -1.41507,-0.253 -2.0874,-0.1585 -0.37917,0.0533 -2.61603,0.46333 -2.86002,0.24385 -0.25188,-0.22657 -1.11238,-0.66389 -1.13859,-0.64621 -0.3168,0.21373 0.35458,1.12562 0.4473,1.29243 0.48867,0.87915 1.00778,1.62436 1.9112,2.10933 0.17207,0.0924 1.06624,0.51896 0.90816,0.75595 -0.18414,0.27607 -0.65966,0.0732 -0.98949,0.10973" />
    <path
       style="fill:none;stroke:#000000;stroke-width:0.264583px;stroke-linecap:butt;stroke-linejoin:miter;stroke-opacity:1"
       d="m 135.00523,108.86567 c 0.62172,-0.25359 1.26699,-0.46807 1.93671,-0.54538 0.34476,-0.0398 0.69594,-0.0299 1.03599,0.0431 0.23727,0.0509 0.47942,0.10306 0.72352,0.076 0.5031,-0.0558 0.968,-0.27387 1.41758,-0.49353 0.49197,-0.24037 0.99034,-0.49708 1.53843,-0.57829 0.53338,-0.079 1.06738,0.0334 1.59634,0.0939 0.20062,0.023 0.40349,0.0388 0.60516,0.0113 0.33383,-0.0455 0.66357,-0.16324 1.00466,-0.12297 0.44051,0.052 0.84802,0.2513 1.29192,0.29193 0.76938,0.0704 1.54468,0.0995 2.31575,0.0476 0.31181,-0.021 0.62604,-0.0412 0.93103,-0.11177 0.51746,-0.11965 0.97171,-0.40731 1.42144,-0.67726 0.43014,-0.25819 0.88329,-0.4998 1.38233,-0.59037 0.65764,-0.11936 1.3313,-0.0517 1.98447,0.0634 0.78524,0.13844 1.56892,0.33062 2.37191,0.32151 1.00687,-0.0114 1.99954,-0.21915 3.00671,-0.23022 0.97056,-0.0107 1.94118,0.0329 2.90884,0.10427 0.75042,0.0553 1.4991,0.13421 2.24434,0.24124 0.33123,0.0476 0.6769,0.0645 0.98321,0.21064 0.22751,0.10853 0.39104,0.3377 0.63956,0.39665 0.17868,0.0424 0.36401,0.0201 0.54546,0.0144 0.19669,-0.006 0.40437,-0.0314 0.59013,0.0433 0.13766,0.0553 0.24267,0.16449 0.36798,0.24157 0.0984,0.0606 0.23017,0.10464 0.33815,0.0395 0.18001,-0.10865 0.36734,-0.23271 0.45965,-0.43033 0.0657,-0.14071 0.1886,-0.28229 0.16386,-0.43535 -0.0193,-0.11914 -0.0599,-0.23435 -0.0936,-0.35029 -0.15906,-0.54728 -0.32695,-1.09544 -0.40791,-1.66062 -0.0315,-0.22018 -0.0503,-0.44775 0.007,-0.66617 0.0999,-0.37949 0.26067,-0.7394 0.37394,-1.11473 0.0848,-0.2809 0.16397,-0.5734 0.13816,-0.86977 -0.0156,-0.17962 -0.0989,-0.36431 -0.25811,-0.45716 -0.33931,-0.19789 -0.7245,-0.30318 -1.10873,-0.37008 -0.8031,-0.13983 -1.622,-0.13917 -2.43455,-0.12717 -0.7216,0.0107 -1.44343,0.0604 -2.16498,0.0313 -0.99758,-0.0403 -1.93806,-0.44498 -2.93338,-0.50138 -0.85872,-0.0487 -1.71723,0.0659 -2.55911,0.22554 -0.52776,0.10006 -1.05744,0.19652 -1.57514,0.33954 -0.41971,0.11595 -0.77243,0.38425 -1.11519,0.64105 -0.24831,0.18604 -0.50818,0.3578 -0.78784,0.4937 -0.68049,0.33068 -1.41775,0.52084 -2.15267,0.68667 -0.37891,0.0855 -0.7596,0.16583 -1.14685,0.20443 -1.46343,0.14588 -2.92786,-0.10735 -4.39303,-0.0474 -0.76,0.0311 -1.5095,0.17608 -2.25194,0.33258 -1.32397,0.27908 -2.64276,0.62642 -3.99909,0.7056 -0.59322,0.0346 -1.18889,-0.003 -1.77629,-0.0948 -0.66836,-0.10476 -1.34174,-0.21945 -2.01994,-0.19892 -0.29599,0.009 -0.60709,0.0202 -0.8745,0.15593 -0.30656,0.1556 -0.58613,0.38238 -0.92454,0.45954 -0.3696,0.0843 -0.75484,0.12318 -1.10412,0.27574 -0.0964,0.0421 -0.20692,0.0951 -0.23916,0.20576 -0.0599,0.20556 -0.0688,0.42187 -0.0744,0.63445 -0.0154,0.57882 -7e-4,1.15923 0.0572,1.73516 0.0191,0.18953 0.034,0.38221 0.10716,0.56121 0.16335,0.39969 0.45934,0.73099 0.61352,1.13419 0.0372,0.0974 0.0654,0.20108 0.0593,0.30622"
       id="path91"
       inkscape:path-effect="#path-effect93"
       inkscape:original-d="m 135.00523,108.86567 c 0.7736,-0.31794 1.81753,-0.65659 2.69736,-0.54867 0.41113,0.0504 0.6614,0.17829 1.09792,0.10974 1.04117,-0.16353 1.90437,-0.9666 2.96845,-1.07296 0.59905,-0.0599 1.18384,0.097 1.77565,0.13412 0.40773,0.0256 0.81064,-0.15904 1.20637,-0.14632 0.43591,0.014 0.88365,0.24746 1.32834,0.29263 0.9184,0.0933 2.23526,0.12212 3.15822,-0.0244 1.09916,-0.17448 1.83988,-1.10794 2.99556,-1.30463 1.48031,-0.25193 2.80411,0.39017 4.24258,0.39017 0.92707,0 1.81261,-0.17514 2.72448,-0.21946 1.30648,-0.0635 4.15575,0.10945 5.40828,0.317 0.36516,0.0605 0.82377,0.0756 1.15214,0.25605 0.17824,0.098 0.41773,0.33968 0.62351,0.37797 0.30811,0.0573 0.87329,-0.0773 1.15214,0.0732 0.1589,0.0858 0.42867,0.38913 0.65062,0.25604 0.46689,-0.27997 0.4466,-0.38827 0.62351,-0.86568 0.0192,-0.0517 -0.59131,-1.81061 -0.52863,-2.4873 0.0615,-0.66389 1.03556,-2.22646 0.24398,-2.65801 -1.35613,-0.73932 -4.1194,-0.38148 -5.65227,-0.43894 -0.99056,-0.0371 -1.93458,-0.43581 -2.91423,-0.4999 -1.31099,-0.0858 -2.82511,0.25551 -4.10704,0.54867 -0.62182,0.14221 -1.13233,0.68153 -1.68076,0.99981 -0.82767,0.48032 -1.91135,0.72549 -2.84646,0.92664 -1.88063,0.40453 -3.89217,-0.1172 -5.80137,0.12193 -2.34,0.29308 -4.78415,1.28664 -7.18393,0.91445 -0.79224,-0.12288 -2.41905,-0.41389 -3.10399,-0.0488 -0.27729,0.1478 -0.53847,0.3249 -0.84039,0.42674 -0.17861,0.0602 -1.20013,0.19387 -1.35546,0.42674 -0.20556,0.30819 -0.0741,2.50713 0,2.81652 0.13032,0.54426 0.75978,1.17105 0.73195,1.62162" />
    <path
       style="fill:none;stroke:#000000;stroke-width:0.264583px;stroke-linecap:butt;stroke-linejoin:miter;stroke-opacity:1"
       d="m 158.50888,119.96102 c -0.79543,-0.41412 -1.57015,-0.87776 -2.41468,-1.18826 -0.28445,-0.10458 -0.57663,-0.18888 -0.87514,-0.24312 -0.44564,-0.081 -0.90123,-0.12523 -1.33108,-0.27726 -0.74352,-0.26297 -1.46115,-0.60042 -2.22666,-0.80082 -0.12556,-0.0329 -0.25431,-0.0512 -0.38046,-0.0811 -0.26005,-0.0617 -0.49095,-0.2015 -0.71969,-0.33422 -0.18758,-0.10884 -0.3851,-0.2061 -0.59906,-0.25092 -0.34944,-0.0732 -0.70794,-0.086 -1.06375,-0.0939 -0.56911,-0.0126 -1.1392,0.008 -1.70752,-0.0313 -0.22877,-0.0158 -0.45507,-0.0543 -0.68372,-0.0724 -0.85801,-0.0677 -1.73456,0.001 -2.55557,0.26699 -0.29233,0.0947 -0.58084,0.20736 -0.84771,0.36022 -0.13244,0.0759 -0.2495,0.18498 -0.31343,0.32569 -0.0711,0.15648 -0.1131,0.32327 -0.1777,0.4829 -0.0545,0.13462 -0.17843,0.22184 -0.29845,0.29403 -0.20818,0.12522 -0.43965,0.20861 -0.64055,0.34602 -0.1035,0.0708 -0.18303,0.17006 -0.26036,0.26714 -0.29284,0.36765 -0.46339,0.82701 -0.49488,1.29535 -0.034,0.50585 0.0168,1.05927 0.3158,1.46702 0.0639,0.0872 0.15323,0.15178 0.24023,0.21382 0.34795,0.24813 0.71764,0.46402 1.08972,0.67339 0.63114,0.35515 1.26689,0.7047 1.92643,1.00409 0.17767,0.0807 0.35123,0.17708 0.54083,0.22493 0.33111,0.0836 0.6767,0.0581 1.00897,0.14868 0.10988,0.0299 0.18503,0.12254 0.24733,0.21193 0.0663,0.0951 0.12618,0.19594 0.21197,0.27571 0.18093,0.16824 0.39939,0.28991 0.62159,0.39426 0.38036,0.17863 0.7788,0.31702 1.1831,0.43009 1.04227,0.2915 2.12217,0.40034 3.18596,0.583 0.1442,0.0248 0.28014,0.091 0.38864,0.18967 0.10231,0.093 0.19473,0.20366 0.32582,0.25771 0.17195,0.0709 0.36463,0.0604 0.54431,0.0327 0.18441,-0.0285 0.36894,-0.065 0.54481,-0.12731 0.30329,-0.10743 0.56745,-0.3085 0.77797,-0.54875 0.21935,-0.25033 0.39179,-0.55245 0.44696,-0.88398 0.0343,-0.20599 0.008,-0.42177 -0.0811,-0.61165 -0.12712,-0.27201 -0.3514,-0.4801 -0.5723,-0.67724 -0.0721,-0.0643 -0.1437,-0.12896 -0.21277,-0.19718 -0.0438,-0.0433 0.013,-0.0692 0.0539,-0.0816 0.59712,-0.18095 1.18629,-0.39383 1.79916,-0.5181 0.58581,-0.11878 1.18959,-0.072 1.77703,-0.1803 0.46074,-0.0849 0.87648,-0.31594 1.32781,-0.43315 0.31224,-0.0811 0.63479,-0.10889 0.9535,-0.1531 0.38334,-0.0532 0.77246,-0.1153 1.12747,-0.2769 0.24624,-0.11209 0.463,-0.29253 0.60398,-0.527 0.043,-0.0716 0.0244,-0.15966 0.006,-0.23554 -0.0162,-0.0681 -0.0263,-0.13706 -0.032,-0.20716 -0.018,-0.22157 -0.11441,-0.43637 -0.27447,-0.59208 -0.208,-0.20234 -0.48589,-0.31148 -0.76094,-0.38795 -0.44628,-0.12407 -0.90939,-0.16494 -1.36171,-0.26034 -0.20814,-0.0439 -0.40604,-0.12663 -0.59093,-0.23136 -0.29553,-0.1674 -0.55545,-0.39171 -0.85843,-0.5466 -0.18499,-0.0946 -0.39633,-0.14797 -0.60483,-0.11836 -0.0854,0.0121 -0.16878,0.0368 -0.24823,0.0702"
       id="path95"
       inkscape:path-effect="#path-effect97"
       inkscape:original-d="m 158.50888,119.96102 c -0.9276,-0.48272 -1.86727,-1.05723 -2.88713,-1.34119 -0.55703,-0.1551 -1.1463,-0.16245 -1.69432,-0.35359 -0.84158,-0.29354 -1.68888,-0.72083 -2.56182,-0.87787 -0.52721,-0.0948 -0.85318,-0.46314 -1.32835,-0.58526 -0.78059,-0.20061 -2.24601,-0.0519 -3.11755,-0.1707 -1.24361,-0.16949 -2.62805,-0.0391 -3.75462,0.54867 -0.4603,0.24016 -0.38083,0.49644 -0.56929,0.87788 -0.14548,0.29444 -0.79327,0.4532 -1.0166,0.68278 -0.80182,0.82432 -0.82974,1.99385 -0.35242,2.93844 0.17824,0.35271 3.3505,2.02203 3.82239,2.13373 0.33823,0.0801 0.69961,0.0289 1.03015,0.1585 0.15199,0.0596 0.25801,0.29317 0.35242,0.40236 0.27972,0.32351 0.92129,0.57993 1.31479,0.71937 1.21398,0.43016 2.47515,0.54135 3.72752,0.75595 0.70611,0.121 0.34184,0.77069 1.74854,0.37797 0.67543,-0.18857 1.40386,-1.0415 1.30123,-1.78013 -0.10321,-0.74289 -1.0792,-1.16391 -0.85393,-1.23146 0.6261,-0.18775 1.37592,-0.46438 2.01964,-0.56086 0.57601,-0.0863 1.17506,-0.0396 1.74853,-0.1829 0.4295,-0.10731 0.83817,-0.32872 1.28768,-0.42674 0.80626,-0.17582 2.11382,-0.10843 2.57538,-0.93884 0.0549,-0.0987 -0.0221,-0.27399 -0.0271,-0.37797 -0.0578,-1.19444 -1.75469,-1.0902 -2.57537,-1.3412 -0.82725,-0.25302 -1.31085,-1.12338 -2.12807,-0.78033" />
    <path
       style="fill:none;stroke:#000000;stroke-width:0.264583px;stroke-linecap:butt;stroke-linejoin:miter;stroke-opacity:1"
       d="m 24.893398,123.78953 c -0.160117,0.15026 -0.322367,0.30155 -0.509348,0.41781 -0.09068,0.0564 -0.188508,0.10912 -0.296304,0.12166 -0.074,0.009 -0.148781,-0.016 -0.207896,-0.0607 -0.09389,-0.0709 -0.166247,-0.16829 -0.269812,-0.22716 -0.08776,-0.0499 -0.192858,-0.0592 -0.29147,-0.0444 -0.235904,0.0356 -0.456001,0.13473 -0.666523,0.243 -0.260774,0.13411 -0.511531,0.29252 -0.790355,0.38722 -0.345376,0.1173 -0.707782,0.17191 -1.068395,0.21797 -0.440938,0.0563 -0.886275,0.1 -1.315326,0.22217 -0.257239,0.0733 -0.493379,0.20216 -0.726937,0.32962 -0.161102,0.0879 -0.321144,0.17977 -0.492336,0.24659 -0.177257,0.0692 -0.372446,0.0849 -0.542712,0.17347 -0.07889,0.041 -0.146331,0.1 -0.213883,0.15689 -0.323908,0.27288 -0.604732,0.59179 -0.878468,0.91368 -0.193842,0.22794 -0.38346,0.45958 -0.583878,0.68185"
       id="path99"
       inkscape:path-effect="#path-effect101"
       inkscape:original-d="m 24.893398,123.78953 c -1.202555,1.13999 -0.91602,0.1085 -1.57483,0.20727 -0.527977,0.0792 -0.994653,0.48295 -1.504558,0.64621 -0.752013,0.24077 -1.585306,0.20512 -2.344946,0.42674 -0.427011,0.12458 -0.773354,0.38562 -1.179248,0.56087 -0.220017,0.095 -0.468558,0.0938 -0.664175,0.24385 -0.591483,0.45381 -1.098795,1.15553 -1.585886,1.69479" />
    <path
       style="fill:none;stroke:#000000;stroke-width:0.264583px;stroke-linecap:butt;stroke-linejoin:miter;stroke-opacity:1"
       d="m 25.001798,120.63159 c -0.896309,0.1733 -1.811255,0.25541 -2.692018,0.50515 -0.343043,0.0973 -0.676367,0.22699 -0.997217,0.38258 -0.471617,0.2287 -0.927113,0.49919 -1.429703,0.65625 -0.456832,0.14276 -0.935508,0.18741 -1.405023,0.26993 -0.361864,0.0636 -0.723331,0.15399 -1.052484,0.322 -0.56187,0.2868 -1.02771,0.72901 -1.595197,1.00631 -0.329558,0.16104 -0.692848,0.22874 -1.047442,0.31129 -0.182039,0.0424 -0.366091,0.082 -0.540099,0.15109 -0.305957,0.12157 -0.566522,0.33559 -0.876127,0.44817 -0.225917,0.0821 -0.470645,0.0787 -0.70731,0.0654 -0.255071,-0.0143 -0.513355,-0.0361 -0.766806,0.013 -0.44757,0.0868 -0.8636,0.28965 -1.2454,0.534 -0.37602,0.24065 -0.7108933,0.53956 -1.0808716,0.78843 -0.173236,0.11653 -0.3565871,0.21707 -0.5386182,0.31895 -0.4208586,0.23555 -0.8539383,0.44938 -1.2688422,0.69525 -0.03677,0.0218 -0.090055,0.0292 -0.1091721,0.0675 -0.023564,0.0472 -0.011351,0.10407 -0.00729,0.15463 0.00239,0.0297 0.00642,0.0594 0.00729,0.0892"
       id="path103"
       inkscape:path-effect="#path-effect105"
       inkscape:original-d="m 25.001798,120.63159 c -1.176952,0.22724 -2.375355,0.29304 -3.485991,0.79256 -0.530564,0.23862 -1.017512,0.54302 -1.57233,0.73155 -0.734713,0.24967 -1.627115,0.21928 -2.3585,0.53648 -0.628571,0.27261 -1.141055,0.78539 -1.762094,1.08515 -0.474072,0.22882 -0.998495,0.26853 -1.491006,0.42675 -0.319719,0.1027 -0.613134,0.33521 -0.92171,0.46332 -0.464054,0.19266 -0.988473,0.002 -1.463896,0.0854 -0.92401,0.16261 -1.63502,0.77337 -2.3584974,1.3168 -0.2777964,0.20867 -1.8769272,1.036 -1.9383057,1.09734 -0.027655,0.0277 0,0.19977 0,0.24386" />
  </g>
</svg>
