<?xml version="1.0" encoding="UTF-8" standalone="no"?>
<!-- Created with Inkscape (http://www.inkscape.org/) -->

<svg
   width="169.33333mm"
   height="127mm"
   viewBox="0 0 169.33333 127"
   version="1.1"
   id="svg5"
   inkscape:version="1.1.2 (08b2f3d93c, 2022-04-05)"
   sodipodi:docname="CélulaAlongada,.svg"
   xmlns:inkscape="http://www.inkscape.org/namespaces/inkscape"
   xmlns:sodipodi="http://sodipodi.sourceforge.net/DTD/sodipodi-0.dtd"
   xmlns="http://www.w3.org/2000/svg"
   xmlns:svg="http://www.w3.org/2000/svg">
  <sodipodi:namedview
     id="namedview7"
     pagecolor="#ffffff"
     bordercolor="#666666"
     borderopacity="1.0"
     inkscape:pageshadow="2"
     inkscape:pageopacity="0.0"
     inkscape:pagecheckerboard="0"
     inkscape:document-units="mm"
     showgrid="false"
     inkscape:zoom="0.87055056"
     inkscape:cx="345.7582"
     inkscape:cy="255.58538"
     inkscape:window-width="1366"
     inkscape:window-height="704"
     inkscape:window-x="0"
     inkscape:window-y="27"
     inkscape:window-maximized="1"
     inkscape:current-layer="layer2" />
  <defs
     id="defs2">
    <inkscape:path-effect
       effect="simplify"
       id="path-effect85"
       is_visible="true"
       lpeversion="1"
       steps="1"
       threshold="0.000408163"
       smooth_angles="360"
       helper_size="0"
       simplify_individual_paths="false"
       simplify_just_coalesce="false" />
    <inkscape:path-effect
       effect="simplify"
       id="path-effect81"
       is_visible="true"
       lpeversion="1"
       steps="1"
       threshold="0.000408163"
       smooth_angles="360"
       helper_size="0"
       simplify_individual_paths="false"
       simplify_just_coalesce="false" />
    <inkscape:path-effect
       effect="simplify"
       id="path-effect77"
       is_visible="true"
       lpeversion="1"
       steps="1"
       threshold="0.000408163"
       smooth_angles="360"
       helper_size="0"
       simplify_individual_paths="false"
       simplify_just_coalesce="false" />
    <inkscape:path-effect
       effect="simplify"
       id="path-effect73"
       is_visible="true"
       lpeversion="1"
       steps="1"
       threshold="0.000408163"
       smooth_angles="360"
       helper_size="0"
       simplify_individual_paths="false"
       simplify_just_coalesce="false" />
    <inkscape:path-effect
       effect="simplify"
       id="path-effect69"
       is_visible="true"
       lpeversion="1"
       steps="1"
       threshold="0.000408163"
       smooth_angles="360"
       helper_size="0"
       simplify_individual_paths="false"
       simplify_just_coalesce="false" />
    <inkscape:path-effect
       effect="simplify"
       id="path-effect65"
       is_visible="true"
       lpeversion="1"
       steps="1"
       threshold="0.000408163"
       smooth_angles="360"
       helper_size="0"
       simplify_individual_paths="false"
       simplify_just_coalesce="false" />
    <inkscape:path-effect
       effect="simplify"
       id="path-effect61"
       is_visible="true"
       lpeversion="1"
       steps="1"
       threshold="0.000408163"
       smooth_angles="360"
       helper_size="0"
       simplify_individual_paths="false"
       simplify_just_coalesce="false" />
    <inkscape:path-effect
       effect="simplify"
       id="path-effect57"
       is_visible="true"
       lpeversion="1"
       steps="1"
       threshold="0.000408163"
       smooth_angles="360"
       helper_size="0"
       simplify_individual_paths="false"
       simplify_just_coalesce="false" />
  </defs>
  <g
     inkscape:groupmode="layer"
     id="layer2"
     inkscape:label=" célula alongada">
    <path
       style="fill:none;stroke:#000000;stroke-width:0.264583px;stroke-linecap:butt;stroke-linejoin:miter;stroke-opacity:1"
       d="m 167.2076,100.55966 c 0.13268,0.11157 0.29433,0.44782 -0.0146,0.28826 -0.45429,-0.23462 -0.78235,-0.64591 -1.00894,-1.100743 -0.17656,-0.354402 -0.24997,-0.798732 -0.56242,-1.050568 -0.40208,-0.324077 -0.8849,-0.525654 -1.34772,-0.746132 -1.29109,-0.615054 -2.61256,-1.21296 -3.73587,-2.114433 -0.3464,-0.27799 -0.62539,-0.624549 -0.90563,-0.967854 -0.91755,-1.124023 -2.2271,-1.804282 -3.34978,-2.69106 -0.91313,-0.721262 -1.51249,-1.783595 -2.46263,-2.449586 -0.56449,-0.395673 -1.2175,-0.638524 -1.8577,-0.881856 -1.19634,-0.454718 -2.43732,-0.78382 -3.62949,-1.248037 -0.89377,-0.348024 -2.12467,-0.275065 -2.67402,-1.066054 -0.1262,-0.18171 0.19545,-0.333104 0.22206,-0.516146 0.032,-0.21996 -0.20249,-0.371259 -0.36082,-0.479424 -0.90264,-0.616666 -1.96946,-0.915461 -3.00956,-1.206324 -3.21872,-0.900111 -6.5562,-1.243966 -9.81189,-1.973674 -2.40776,-0.539658 -4.77727,-1.257208 -7.22212,-1.626922 -2.30597,-0.348713 -4.65335,-0.553806 -6.87898,-1.297197 -0.56418,-0.188444 -1.12401,-0.45211 -1.51856,-0.919906 -0.35253,-0.417977 -0.6352,-0.911403 -1.07377,-1.242689 -0.61175,-0.4621 -1.37033,-0.671292 -2.11067,-0.813866 -0.57091,-0.109946 -1.15182,-0.231691 -1.73631,-0.158849 -0.39892,0.04972 -0.80009,0.04507 -1.20204,0.01923 -3.89061,-0.250138 -7.80892,0.244907 -11.683725,-0.29329 -1.079171,-0.149893 -2.144616,-0.38316 -3.20693,-0.621639 -0.774356,-0.173835 -1.60547,-0.196902 -2.31733,-0.548553 -1.002269,-0.49511 -1.95915,-1.12458 -3.05011,-1.403644 -1.870246,-0.478402 -3.853633,-0.468509 -5.666697,-1.166615 -0.485583,-0.18697 -0.889575,-0.567068 -1.418392,-0.640342 -2.155038,-0.298608 -4.327,-0.480092 -6.46761,-0.883208 -3.242993,-0.610715 -6.244836,-2.102035 -9.494886,-2.685133 -1.732989,-0.310919 -3.468331,0.178345 -5.2374,0.229147 -0.926873,0.02662 -1.911183,-0.05494 -2.711404,-0.570254 -0.740431,-0.476813 -1.128662,-1.312674 -1.377437,-2.129657 -0.165148,-0.542351 -0.08471,-1.173875 -0.380901,-1.65526 -0.09483,-0.154119 -0.242968,-0.294432 -0.177413,-0.5059 0.139887,-0.451247 0.608582,-0.656341 0.895084,-0.999344 0.24574,-0.294202 0.253153,-0.700765 0.271092,-1.06348 0.03088,-0.624449 0.01697,-1.304228 0.401682,-1.835637 0.446648,-0.616968 1.164837,-0.929107 1.714273,-1.440156 0.686035,-0.638104 1.292875,-1.406218 2.164935,-1.804397 0.686776,-0.313579 1.476836,-0.251026 2.182841,-0.03275 0.517507,0.159997 1.04278,0.303602 1.590465,0.327455 1.542908,0.0672 3.091607,-0.06496 4.630995,0.07196 2.574112,0.228941 4.964127,1.405616 7.545044,1.580633 4.240131,0.287531 8.437777,-0.840235 12.679887,-0.496301 2.073979,0.16815 4.037839,0.978947 6.122809,1.084258 1.285106,0.06491 2.575308,0.03126 3.855308,0.205203 3.27716,0.445338 6.52178,1.109933 9.80186,1.529772 1.14803,0.146944 2.33668,0.04602 3.45112,0.394219 1.0458,0.326754 1.73203,1.285696 2.75574,1.654752 2.1855,0.787889 4.45086,1.366713 6.75899,1.65744 2.174,0.273833 4.38413,0.380864 6.50538,0.962733 2.26329,0.620833 4.28217,1.861994 6.25694,3.091952 1.72954,1.077222 3.4917,2.124717 5.40341,2.856784 2.87011,1.099076 5.85131,1.936514 8.62002,3.272171 0.4793,0.23122 0.88151,0.589687 1.38433,0.786759 2.51472,0.985596 5.24695,1.412626 7.63287,2.707322 0.34043,0.184731 0.68854,0.352267 1.05019,0.493202 1.7689,0.689337 3.55113,1.359595 5.38504,1.852063 0.65577,0.176097 1.3475,0.20443 1.99635,0.416199 0.15571,0.05082 0.56063,-0.130657 0.28394,-0.253209 -0.16777,-0.07431 -0.35295,-0.09713 -0.53329,-0.120467"
       id="path55"
       inkscape:path-effect="#path-effect57"
       inkscape:original-d="m 167.2076,100.55966 c 0.52864,0.68682 -0.2474,0.17049 -0.46429,-0.0246 -0.57125,-0.51386 -0.64441,-1.154474 -1.03784,-1.744296 -0.42942,-0.643752 -4.51925,-1.835264 -5.92663,-3.734258 -0.86877,-1.172247 -2.18556,-1.886968 -3.332,-2.75155 -1.02326,-0.771684 -1.62604,-1.683729 -2.53999,-2.505882 -0.83823,-0.754036 -4.56113,-1.80441 -5.59887,-2.211072 -0.71,-0.278226 -1.89628,-0.637138 -2.64921,-1.056405 -0.1966,-0.109477 0.3278,-0.442063 0.21848,-0.638749 -0.26446,-0.475792 -1.53763,-0.987184 -1.8845,-1.105535 -3.39068,-1.156896 -6.98964,-1.560978 -10.48765,-2.260214 -2.37483,-0.474715 -4.73513,-1.225335 -7.10101,-1.646023 -2.39214,-0.425355 -4.84309,-0.563449 -7.18295,-1.252934 -2.15422,-0.634783 -1.84801,-0.881827 -3.00428,-2.161942 -0.67095,-0.742818 -2.26678,-1.019112 -3.14083,-1.154669 -0.75,-0.116305 -1.15772,0.07497 -1.82988,0.02458 -4.12225,-0.309028 -8.36279,0.276283 -12.508707,-0.393078 -0.765493,-0.123589 -4.755156,-0.968827 -5.025332,-1.105535 -0.854252,-0.432247 -2.107721,-1.161571 -3.058901,-1.400344 -1.793806,-0.450303 -3.745283,-0.495343 -5.489625,-1.105538 -0.740527,-0.259045 -0.89367,-0.606679 -1.693318,-0.712457 -2.279194,-0.301498 -4.546642,-0.474763 -6.800593,-0.958135 -4.779108,-1.024909 -9.231878,-3.871857 -14.256644,-2.358472 -3.355319,0.111309 -3.949461,-1.58818 -4.451796,-4.299306 -0.02862,-0.154486 -0.226801,-0.260752 -0.218494,-0.417648 0.03425,-0.646917 0.935568,-0.862483 1.092468,-1.474054 0.176371,-0.687471 0.03189,-1.46473 0.273114,-2.137363 0.309454,-0.862901 1.152911,-1.159916 1.775254,-1.719724 1.184832,-1.065777 2.016341,-2.422449 3.878244,-2.137373 0.704948,0.107935 1.290416,0.429752 2.021062,0.466779 1.445974,0.07328 2.895885,-0.0093 4.342546,0.04914 2.810029,0.113605 5.405179,1.454018 8.166159,1.621455 4.251804,0.257846 8.452407,-0.897815 12.699892,-0.491349 1.702198,0.162893 3.343102,0.759408 4.998026,0.982697 1.477525,0.199353 3.002875,0.04894 4.479105,0.24567 3.33555,0.444503 6.64038,1.043531 9.94141,1.547754 1.12487,0.171821 2.35817,0.09609 3.46857,0.368509 1.21809,0.298834 1.84036,1.306163 2.97697,1.719724 1.77572,0.646099 3.92542,1.241347 5.81737,1.523184 2.28829,0.34088 4.64688,0.437414 6.90983,0.958137 4.3992,1.012289 7.69996,4.354736 11.82592,5.945319 2.94171,1.134047 5.95498,2.171306 8.87627,3.365748 0.48259,0.197318 0.81477,0.563218 1.31096,0.761588 2.7656,1.105655 5.64164,1.56954 8.22078,2.99723 0.55735,0.308522 8.38467,3.228587 8.38467,2.383051 0,-0.157736 -0.60501,-0.217903 -0.62818,-0.221109" />
    <path
       style="fill:none;stroke:#000000;stroke-width:0.264583px;stroke-linecap:butt;stroke-linejoin:miter;stroke-opacity:1"
       d="m 167.99964,110.31292 c -0.60744,-0.15148 -1.22912,-0.29829 -1.77558,-0.6164 -0.41926,-0.24406 -0.75037,-0.62081 -0.97153,-1.0513 -0.35597,-0.69289 -0.43659,-1.49021 -0.39966,-2.25892 0.0602,-1.25345 0.40512,-2.4801 0.3901,-3.73904 -0.008,-0.69169 -0.17011,-1.39521 -0.55651,-1.97771 -0.5427,-0.818121 -1.272,-1.496228 -2.05812,-2.075711 -0.31973,-0.235687 -0.63087,-0.492024 -0.98773,-0.666555 -0.33569,-0.164178 -0.73806,-0.206804 -1.02674,-0.449732 -0.13013,-0.109507 -0.23499,-0.245916 -0.34677,-0.373577 -1.27296,-1.453875 -2.44324,-3.000592 -3.83825,-4.346477 -0.46043,-0.444216 -1.00682,-0.784114 -1.56014,-1.099386 -0.62077,-0.353705 -1.24912,-0.702887 -1.80276,-1.160511 -1.56402,-1.292782 -3.37581,-2.265907 -5.2817,-2.95199 -2.07167,-0.745761 -4.23812,-1.199055 -6.41567,-1.492459 -0.98044,-0.132105 -1.98328,-0.229242 -2.96634,-0.06276 -0.73916,0.125174 -1.44194,0.446867 -2.02129,0.923308 -0.61718,0.507551 -1.12681,1.14072 -1.52266,1.830882 -0.4543,0.792059 -0.76421,1.662416 -0.9617,2.551517 -0.20091,0.904494 -0.3135,1.846556 -0.17072,2.767217 0.0815,0.525711 0.23735,1.064888 0.58457,1.477442 0.35042,0.416359 0.86259,0.631826 1.3247,0.894756 0.32213,0.183286 0.61902,0.425805 0.80983,0.750752 0.36034,0.613658 0.46395,1.342667 0.86049,1.94031 0.48536,0.731511 1.1667,1.296689 1.80172,1.891849 0.2833,0.26552 0.59563,0.51216 0.81323,0.83437 0.10939,0.16198 0.21481,0.32715 0.31085,0.49739 0.1608,0.28504 0.32882,0.57358 0.57741,0.79336 0.59408,0.52523 1.38957,0.74523 1.98649,1.2673 0.21134,0.18484 0.37255,0.42108 0.48185,0.67941 0.24894,0.58837 0.4103,1.20891 0.5693,1.82617 0.26758,1.03875 0.48499,2.08972 0.7558,3.12766 0.0588,0.22517 0.13375,0.44551 0.23195,0.65712 0.35135,0.75712 0.72276,1.50551 1.12665,2.23583 0.15072,0.27253 0.29661,0.55118 0.51089,0.78202 0.4093,0.44093 0.93846,0.77124 1.26919,1.28292 0.1755,0.27152 0.24703,0.59275 0.30909,0.90539 0.12089,0.60905 0.1305,1.24477 0.36058,1.82898 0.15693,0.39847 0.44847,0.7289 0.78772,0.98712 1.22642,0.9335 2.48668,1.81854 3.69346,2.78299 0.19347,0.15462 0.29806,0.38962 0.39479,0.61074 0.22877,0.52297 0.39037,1.07249 0.635,1.58941 0.10098,0.21338 0.27275,0.38141 0.46065,0.5193 0.49335,0.36204 1.06134,0.60397 1.62566,0.83134 0.95731,0.38571 1.95316,0.67512 2.89099,1.10759 0.25606,0.11808 0.53459,0.21504 0.74181,0.40764 0.11182,0.10393 0.063,0.27623 -0.002,0.39123 -0.0994,0.17541 -0.23822,0.33459 -0.41289,0.43975 -0.0907,0.0546 -0.20285,0.004 -0.24279,-0.0918 -0.0968,-0.23144 -0.10618,-0.48559 -0.15385,-0.72954 -0.0308,-0.15752 -0.10054,-0.30781 -0.22008,-0.41951 -0.17193,-0.16066 -0.39134,-0.25579 -0.57784,-0.39676"
       id="path59"
       inkscape:path-effect="#path-effect61"
       inkscape:original-d="m 167.99964,110.31292 c -1.31523,-0.32029 -2.29546,-0.5984 -2.8404,-1.86713 -1.05541,-2.45717 1.00293,-5.51964 -0.4643,-7.76332 -0.72158,-1.103451 -1.89963,-2.036949 -3.00428,-2.726993 -0.23928,-0.149474 -0.94076,-0.312049 -1.14709,-0.540477 -1.39324,-1.542468 -2.69639,-3.383606 -4.26061,-4.790663 -0.94976,-0.854342 -2.18465,-1.267288 -3.14082,-2.063665 -3.24626,-2.703745 -7.07387,-3.777006 -11.19775,-4.422143 -3.14239,-0.491593 -5.12065,-0.450794 -6.96447,2.407611 -1.04617,1.62183 -1.90506,5.121793 -0.79202,6.829755 0.54176,0.831335 1.66867,0.921184 2.18492,1.695154 0.40399,0.605676 0.48813,1.358024 0.87397,1.965404 0.7052,1.110117 1.78356,1.791807 2.6219,2.751557 0.0971,0.11121 0.16388,0.24567 0.24581,0.3685 0.17298,0.27025 0.30743,0.56945 0.51892,0.81074 0.66567,0.75944 1.93348,0.96051 2.48536,1.81799 0.58357,0.90672 1.21511,4.46903 1.58408,5.60138 0.13157,0.4038 1.31645,2.72042 1.55675,3.07093 0.44056,0.64263 1.37635,1.10013 1.6387,1.86713 0.42812,1.25165 0.0633,2.46203 1.25633,3.36573 1.23947,0.9389 2.39272,1.96845 3.71438,2.8007 0.48537,0.30563 0.79482,2.00629 1.22903,2.48132 0.9673,1.05826 4.3379,1.75848 5.51694,2.57958 0.2971,0.20691 -0.20343,0.78565 -0.40968,0.85985 -0.38654,0.13907 -0.2533,-0.79548 -0.4916,-1.13009 -0.16548,-0.23236 -0.4552,-0.34395 -0.6828,-0.51592" />
    <path
       style="fill:none;stroke:#000000;stroke-width:0.264583px;stroke-linecap:butt;stroke-linejoin:miter;stroke-opacity:1"
       d="m 167.99964,110.31292 c -0.12581,0.50261 -0.33255,0.98094 -0.45416,1.48474 -0.0554,0.22968 -0.0827,0.46523 -0.0921,0.70176 -0.002,0.0579 0.0374,0.10746 0.0855,0.13578 0.0615,0.0362 0.13113,0.0546 0.19907,0.0746 0.0764,0.0224 0.15458,0.0432 0.22418,0.0831 0.0418,0.0239 0.0775,0.0594 0.0977,0.10352 0.0298,0.0649 0.0305,0.13866 0.0229,0.2083 -0.0177,0.16273 -0.0762,0.3181 -0.0927,0.48092 -0.007,0.068 -0.007,0.13995 0.0236,0.20277 0.0339,0.0702 0.0931,0.12293 0.15116,0.17292 0.0612,0.0527 0.12438,0.10434 0.17339,0.16963 0.0368,0.049 0.0438,0.11102 0.0502,0.17034 0.007,0.0677 0.0323,0.2704 0.0216,0.20315 -0.007,-0.0456 -0.012,-0.092 -0.0174,-0.13798 -0.0731,-0.62848 -0.1417,-1.25747 -0.20566,-1.88694 -0.058,-0.57081 -0.11511,-1.14181 -0.15811,-1.71397 -0.0113,-0.15075 -0.0218,-0.30158 -0.0291,-0.45258 z"
       id="path63"
       inkscape:path-effect="#path-effect65"
       inkscape:original-d="m 167.99964,110.31292 c -0.18208,0.72883 -0.54623,1.43526 -0.54623,2.1865 0,0.21091 0.38296,0.18586 0.54623,0.31937 0.23026,0.1883 -0.079,0.67297 0,0.93358 0.0602,0.1986 0.35943,0.28508 0.38236,0.49134 0.14543,1.30839 -0.31881,-2.61588 -0.38236,-3.93079" />
    <path
       style="fill:none;stroke:#000000;stroke-width:0.264583px;stroke-linecap:butt;stroke-linejoin:miter;stroke-opacity:1"
       d="m 1.0711904,68.32711 c 0.6014587,-0.197405 1.2516006,-0.231496 1.8732013,-0.113413 0.8689091,0.165063 1.6646121,0.566316 2.4778089,0.896212 0.4468022,0.181258 0.907774,0.328996 1.382076,0.419974 1.4443724,0.277052 2.9264606,0.210964 4.3741424,0.479826 0.168712,0.03133 0.335932,0.08304 0.478246,0.183093 0.283906,0.199601 0.480881,0.521861 0.813561,0.646994 1.032043,0.38819 2.096857,0.68021 3.161492,0.963647 0.617648,0.164436 1.243999,0.293143 1.872864,0.406173 0.547285,0.09837 1.084237,0.24731 1.60961,0.4291 0.188804,0.06533 0.376095,0.134588 0.553854,0.227793 0.383347,0.201002 0.759896,0.425019 1.175596,0.553932 0.19961,0.0619 0.410915,0.05196 0.617117,0.063 1.703781,0.09129 3.415834,0.175483 5.11821,0.0284 0.804275,-0.06949 1.615133,-0.173817 2.380023,-0.443025 0.620661,-0.218446 1.169104,-0.608774 1.622479,-1.081714 0.454829,-0.474457 0.850835,-1.00103 1.306222,-1.475361 0.988018,-1.029118 2.107852,-1.935078 2.983841,-3.069267 0.269203,-0.348551 0.497551,-0.725954 0.710978,-1.110901 0.340226,-0.613647 0.735828,-1.195754 1.055039,-1.82107 0.227919,-0.44648 0.392136,-0.940931 0.368815,-1.44855 -0.02856,-0.621685 -0.312775,-1.193562 -0.611384,-1.72855 -0.227604,-0.407776 -0.570624,-0.737711 -0.947969,-1.007285 -0.577115,-0.412289 -1.218358,-0.720033 -1.81628,-1.099944 -1.019757,-0.647939 -2.083993,-1.253513 -3.246936,-1.604729 -1.013253,-0.306009 -2.063372,-0.460209 -3.106589,-0.622439 -0.578003,-0.08989 -1.154689,-0.190915 -1.722597,-0.333 -1.831931,-0.45833 -3.590545,-1.152973 -5.386978,-1.727568 -0.650358,-0.208019 -1.192969,-0.666893 -1.860167,-0.830045 -0.276494,-0.06761 -0.561186,-0.09197 -0.843343,-0.124883 -0.357324,-0.04168 -0.718415,-0.01882 -1.075325,-0.06773 -0.391128,-0.0536 -0.781348,-0.119027 -1.165188,-0.210854 -0.844927,-0.202134 -1.5784,-0.717117 -2.429944,-0.898418 -0.355006,-0.07558 -0.718691,-0.09632 -1.079,-0.133069 C 10.556041,52.555261 9.3877372,52.48986 8.2454899,52.249587 7.3720941,52.065867 6.5245064,51.734503 5.7870497,51.225715 4.9911754,50.676623 4.3600859,49.930493 3.7757071,49.166301 3.3626154,48.626101 2.7681257,48.25039 2.1351238,48.017652 1.3493625,47.728748 0.5097265,47.641699 -0.31972488,47.574978 -0.82963372,47.533961 -1.339755,47.445728 -1.8509708,47.469836 c -0.1130257,0.0053 -0.2224428,0.03134 -0.3377587,0.03586 -0.076665,0.003 -0.038964,-0.211021 -0.090425,-0.10299 -0.1133662,0.237986 -0.1879642,0.492196 -0.2900128,0.735122 -0.038027,0.09052 -0.07667,0.181475 -0.1286437,0.265063"
       id="path67"
       inkscape:path-effect="#path-effect69"
       inkscape:original-d="m 1.0711904,68.32711 c 1.8733633,-0.599458 3.2175091,0.413875 4.8887748,0.982708 1.6671425,0.567428 3.6615549,0.320757 5.3803828,0.737018 0.497403,0.120459 0.690618,0.631341 1.174399,0.810726 0.972826,0.360722 1.974327,0.642109 2.976964,0.908997 2.034815,0.541639 2.181755,0.342781 3.932869,0.982697 0.265288,0.09695 1.173125,0.687072 1.638696,0.712456 2.141733,0.116772 6.410954,0.37696 8.302725,-0.565046 1.107836,-0.551649 1.581882,-1.383732 2.403419,-2.260214 1.252487,-1.336249 2.805917,-2.471462 3.714372,-4.127325 1.208262,-2.202331 2.261494,-2.991194 0.846669,-5.282012 -0.570063,-0.923018 -1.692201,-1.353995 -2.567292,-1.916264 -2.854814,-1.834284 -3.798945,-1.868249 -7.073701,-2.40761 -2.142333,-0.352848 -4.350244,-1.312558 -6.44554,-1.940825 -0.82335,-0.246877 -1.334351,-0.78365 -2.212241,-0.908994 -1.476904,-0.210873 -0.867405,0.04439 -2.676534,-0.319381 -1.0309,-0.207286 -1.810848,-0.86079 -2.895027,-0.982697 C 8.621478,52.319726 6.2746902,52.59511 3.8296603,49.238198 2.9224541,47.992646 1.3133714,47.700162 -0.10320866,47.592173 -0.68259501,47.548006 -1.2444413,47.487951 -1.8238369,47.469334 c -0.1367336,-0.0044 -0.4096764,0.112234 -0.4096764,-0.02458 0,-0.354902 -0.2729713,0.659222 -0.4642977,0.958135" />
    <path
       style="fill:none;stroke:#000000;stroke-width:0.264583px;stroke-linecap:butt;stroke-linejoin:miter;stroke-opacity:1"
       d="m 121.89767,45.84788 c -0.55265,-0.317742 -1.10544,-0.635002 -1.64902,-0.968466 -0.73598,-0.45149 -1.50885,-0.869076 -2.13091,-1.475775 -0.64794,-0.631938 -0.92238,-1.539355 -1.56837,-2.175582 -0.23319,-0.229665 -0.53552,-0.361809 -0.82537,-0.503199 -2.027,-0.988787 -4.08513,-1.977744 -5.85328,-3.391877 -0.57464,-0.459586 -1.34858,-0.639323 -1.84734,-1.189247 -0.15686,-0.172952 -0.14587,-0.425202 -0.14234,-0.643792 0.006,-0.343506 0.11415,-0.710165 -0.0224,-1.032194 -0.20585,-0.4853 -0.49011,-0.933416 -0.78157,-1.371056 -0.81701,-1.226767 -1.76502,-2.379866 -2.38655,-3.725522 -0.36022,-0.779897 -0.52044,-1.646514 -0.4528,-2.51728 0.0235,-0.302668 0.25206,-0.535789 0.49102,-0.695834 0.54575,-0.365521 1.17883,-0.574156 1.80722,-0.744895 1.50145,-0.407956 3.04581,-0.640787 4.59248,-0.787208 1.11296,-0.105362 2.23238,-0.216732 3.35008,-0.160207 0.28025,0.01417 0.56291,0.03824 0.82994,0.140972 1.38742,0.533736 2.60196,1.414377 3.77326,2.312833 0.72584,0.556764 1.42884,1.146374 2.19183,1.652052 0.82888,0.549344 1.73746,0.992587 2.46863,1.678936 0.36016,0.338082 0.72645,0.685997 1.1831,0.891966 1.00677,0.454092 2.10424,0.632894 3.17948,0.848318 0.61053,0.12232 1.23226,0.2278 1.80967,0.463804 0.66479,0.271718 1.19108,0.788699 1.86402,1.05147 2.16817,0.846628 4.40121,1.563038 6.46296,2.643614 0.47223,0.247499 0.90741,0.559086 1.33377,0.877187 0.55922,0.417223 1.11355,0.843614 1.62812,1.315662 0.36264,0.332671 0.4796,0.893249 0.91818,1.137571 0.25116,0.139914 0.52129,0.243903 0.79064,0.343267 1.08771,0.401256 2.24224,0.564133 3.35785,0.864991 0.47501,0.128101 0.85611,0.46684 1.32481,0.611738 0.35864,0.110874 0.72883,0.179009 1.09528,0.258565 2.36724,0.513923 4.73574,1.0199 7.08444,1.621625 0.76676,0.19644 1.58455,-0.05124 2.33995,0.183882 0.29979,0.09331 0.59271,0.207764 0.88993,0.309413 1.39808,0.478141 2.82828,0.893896 4.14284,1.582525 0.75719,0.396651 1.41534,0.949293 2.13589,1.404543 0.47039,0.297197 0.95073,0.639222 1.50399,0.721162 0.29323,0.04343 0.58301,-0.05749 0.85802,-0.146358 0.0635,-0.02052 0.12681,-0.04168 0.1907,-0.06096"
       id="path71"
       inkscape:path-effect="#path-effect73"
       inkscape:original-d="m 121.89767,45.84788 c -0.46429,-0.270242 -0.93725,-0.526113 -1.39288,-0.810728 -0.76454,-0.477583 -1.69176,-0.980704 -2.34881,-1.596885 -0.8251,-0.773787 -1.04811,-2.041024 -2.103,-2.555009 -2.15975,-1.052325 -4.31855,-2.108536 -6.22704,-3.586848 -0.5456,-0.422624 -1.31163,-0.668922 -1.80256,-1.154676 -0.31707,-0.313738 0.0214,-1.281348 -0.19117,-1.744295 -1.02513,-2.232512 -4.09529,-4.94048 -3.57782,-7.640473 0.35238,-1.838579 9.90394,-2.573323 10.89732,-2.211072 2.24082,0.817151 3.95573,2.473192 5.84468,3.832518 0.77759,0.55957 1.65482,0.97173 2.40342,1.572323 0.53881,0.432284 0.88277,0.907119 1.55677,1.203807 1.60055,0.704548 3.21639,0.72055 4.83414,1.252934 0.66632,0.219276 1.219,0.797158 1.8845,1.056407 2.20194,0.857787 4.35064,1.722332 6.50016,2.653282 0.66254,0.286946 2.67456,1.842688 3.11352,2.309341 0.29513,0.313754 0.50221,0.904629 0.9286,1.105535 1.28128,0.603708 2.6029,0.803074 3.96017,1.130107 0.67708,0.163139 0.88781,0.529407 1.69332,0.712457 2.71325,0.616582 5.16095,1.027459 7.86575,1.793425 0.80162,0.227007 1.78597,-0.03497 2.53998,0.245679 1.77333,0.660061 3.99255,1.194914 5.57155,2.2602 0.89415,0.603242 1.84655,1.380779 2.89504,1.695157 0.30093,0.09023 0.82507,-0.116362 1.09246,-0.196541" />
    <path
       style="fill:none;stroke:#000000;stroke-width:0.264583px;stroke-linecap:butt;stroke-linejoin:miter;stroke-opacity:1"
       d="m 121.89767,45.84788 c 0.56711,-0.23743 1.21021,-0.291184 1.80669,-0.133642 0.76186,0.201222 1.41584,0.674971 1.99731,1.190434 1.01808,0.902506 1.85482,1.989933 2.88655,2.877506 0.40858,0.351492 0.8661,0.64897 1.37012,0.849399 0.36829,0.146453 0.75593,0.23536 1.14665,0.298135 0.50824,0.08166 1.0248,0.157704 1.50451,0.345683 0.079,0.03094 0.13263,0.07639 0.1934,0.163317 0.0606,0.08671 0.16948,0.12171 0.26432,0.156982 0.53479,0.198894 1.0883,0.343545 1.64358,0.472231 1.3182,0.305492 2.67599,0.448585 3.96731,0.858321 0.54354,0.172465 1.02073,0.505409 1.5759,0.650957 2.49707,0.65466 5.06188,1.047179 7.52131,1.841605 1.77479,0.573279 3.34947,1.607533 5.08414,2.278844 1.64685,0.637327 3.38113,1.001421 5.11075,1.331291 1.26002,0.240308 2.51966,0.487139 3.76368,0.801445 1.02064,0.257868 2.02991,0.562081 3.01891,0.926285 0.24673,0.09086 0.47787,0.217907 0.69608,0.364127 0.63934,0.428424 1.20715,0.965722 1.89196,1.323094 0.27328,0.142612 0.57704,0.258591 0.89346,0.234295 0.1113,-0.0085 0.13959,-0.135866 0.15926,-0.225377 0.018,-0.08214 0.0282,-0.168681 0.0704,-0.243"
       id="path75"
       inkscape:path-effect="#path-effect77"
       inkscape:original-d="m 121.89767,45.84788 c 3.29611,-1.340699 5.40031,3.690824 7.89305,4.716952 0.99542,0.409761 1.24461,0.287888 2.40342,0.58963 1.1913,0.3102 0.003,0.174053 1.22903,0.565046 1.71216,0.54605 3.44644,0.708459 5.16189,1.179238 0.57336,0.15735 1.02863,0.509683 1.61138,0.663326 2.45519,0.647322 5.04246,1.073595 7.45607,1.817984 1.75124,0.54011 3.30028,1.556906 4.99801,2.235642 2.5479,1.018619 5.06269,1.31268 7.70188,1.891694 1.35295,0.296825 3.27994,0.772782 4.58835,1.326644 0.93621,0.396309 2.35545,1.984889 3.3047,1.842564 0.1699,-0.02548 0.13087,-0.319011 0.21848,-0.466788" />
    <path
       style="fill:none;stroke:#000000;stroke-width:0.264583px;stroke-linecap:butt;stroke-linejoin:miter;stroke-opacity:1"
       d="m -0.45825944,33.269343 c 0.56471117,-0.134233 1.10143173,-0.41811 1.69189414,-0.418186 0.6189194,-8e-5 1.2023491,0.2457 1.7488558,0.513125 0.5617615,0.27489 1.1191754,0.568177 1.7247561,0.740293 1.8202459,0.517344 3.7167991,0.693952 5.6011604,0.764065 2.054555,0.07644 4.115763,0.0879 6.164937,-0.103942 2.344438,-0.219479 4.708166,-0.621995 6.872285,-1.559648 0.740128,-0.320677 1.231804,-1.044326 1.994444,-1.315791 0.658545,-0.234412 1.326274,-0.442667 1.992451,-0.654328 1.908915,-0.60651 3.874644,-1.118163 5.640735,-2.072465 0.391491,-0.211541 0.632068,-0.609527 0.815167,-1.000627 0.310021,-0.662206 0.484881,-1.387504 0.878627,-2.009662 0.180217,-0.284761 0.437691,-0.516848 0.743607,-0.666408 1.534198,-0.750057 3.270525,-1.02841 4.756796,-1.867516 0.297569,-0.167999 0.479952,-0.474051 0.775834,-0.649016 1.139454,-0.673796 2.346826,-1.220043 3.551082,-1.764351 0.835168,-0.377485 1.714963,-0.641537 2.574565,-0.95575 1.022806,-0.373869 2.055394,-0.772998 2.945805,-1.412112 0.581043,-0.417058 1.097763,-0.976175 1.307275,-1.675011 0.212258,-0.707994 0.07445,-1.474906 -0.213837,-2.140719 -0.292789,-0.676219 -0.834345,-1.225885 -1.477881,-1.577611 -0.867924,-0.474366 -1.85886,-0.657038 -2.832893,-0.753776 -1.228888,-0.122049 -2.4647,-0.112591 -3.697307,-0.169709 -1.794996,-0.08318 -3.595339,0.106557 -5.349627,0.481474 -0.466243,0.09964 -0.937124,0.184837 -1.393873,0.322009 -0.677721,0.203535 -1.324596,0.520268 -2.034382,0.611371 -0.811341,0.104138 -1.642516,0.127821 -2.423713,0.3985 -1.581565,0.548 -3.085386,1.324272 -4.717607,1.7197 -0.651686,0.15788 -1.32703,0.263512 -1.999302,0.19327 -0.699056,-0.07304 -1.395694,-0.222561 -2.103735,-0.165755 -1.909311,0.153184 -3.76024,0.67911 -5.599391,1.185084 -0.972362,0.267509 -1.947637,0.527296 -2.938049,0.721414 -1.620312,0.317577 -3.275292,0.51009 -4.8450219,1.038472 -1.1867259,0.39946 -2.2261181,1.115051 -3.2844747,1.765051 -0.7810787,0.479707 -1.5995743,0.909841 -2.4797688,1.181953 -1.6981321,0.524978 -3.41286677,1.005539 -5.0752826,1.636144 -0.4037325,0.153148 -0.7962933,0.333599 -1.192693,0.50786 -0.070251,0.03088 -0.062853,0.03924 0.010254,0.04575 0.2640588,0.02351 0.5281938,0.0798 0.7929011,0.06515 0.86211606,-0.0477 1.71149236,-0.210675 2.5665044,-0.32171 2.0488343,-0.266068 4.1096908,-0.521408 6.1013675,-1.095432 0.6822625,-0.196636 1.3454688,-0.451036 2.0064648,-0.708933 1.1232862,-0.438266 2.2690962,-0.83325 3.4576312,-1.057723 1.901584,-0.359144 3.80488,-0.8174 5.565373,-1.641316 1.223823,-0.572753 2.335805,-1.361869 3.339075,-2.26291 1.257615,-1.129469 2.432921,-2.346215 3.590878,-3.575799 0.435119,-0.462034 0.926319,-0.867744 1.352262,-1.33866 0.282126,-0.311914 0.564968,-0.6372 0.733614,-1.027012 0.08072,-0.186589 0.09663,-0.405987 -0.0044,-0.595371 C 26.898312,10.084182 26.398018,9.7283519 25.873302,9.4892796 25.019103,9.1000875 24.080219,8.9746472 23.181018,8.7303685 22.220435,8.4694146 21.202166,8.5784841 20.250125,8.8202232 18.42125,9.2846054 16.739961,10.16708 14.9634,10.783625 c -0.553607,0.192126 -1.126692,0.318561 -1.703252,0.41971 -1.393471,0.244464 -2.812825,0.334253 -4.193776,0.64746 -1.35788,0.307974 -2.6400788,0.917599 -4.0287791,1.090382 -0.8426404,0.104842 -1.6939099,0.06639 -2.5406205,0.05971 -1.0520522,-0.0083 -2.12662555,-0.0091 -3.14194208,0.298195 -0.2777895,0.08409 -0.60418532,0.117379 -0.80763092,0.324606 -0.3048089,0.310474 -0.585738,0.643574 -0.8781294,0.965694 -0.2620188,0.288659 -0.5150967,0.586304 -0.7934885,0.859461 0,0 -0.010575,0.0091 -0.010575,0.0091"
       id="path79"
       inkscape:path-effect="#path-effect81"
       inkscape:original-d="m -0.45825944,33.269343 c 0.58264779,-0.139216 1.1490885,-0.432893 1.74794334,-0.417648 1.1549111,0.0294 2.1434674,0.871998 3.2500782,1.203804 2.3747944,0.712066 5.0611449,0.818611 7.5379979,0.859859 3.824402,0.06369 7.56227,-0.297415 11.170442,-1.670584 0.844687,-0.321464 1.339052,-1.103617 2.212241,-1.400345 2.480655,-0.842978 5.042157,-1.510466 7.456067,-2.653292 1.231072,-0.582829 1.141058,-3.029677 2.403417,-3.660547 1.545675,-0.772457 3.238151,-1.155485 4.806839,-1.891693 0.294714,-0.138314 0.471427,-0.462871 0.764723,-0.638758 1.103103,-0.661519 2.334688,-1.176608 3.495886,-1.744288 2.232269,-1.091298 7.736255,-1.908078 6.964461,-5.478546 -0.762329,-3.526674 -5.213829,-3.080927 -7.974992,-3.242909 -2.369621,-0.139012 -4.528299,0.182054 -6.827901,0.737027 -0.616167,0.148703 -1.390446,0.540118 -2.048367,0.638753 -0.845513,0.126759 -1.692222,0.118134 -2.512663,0.393079 -1.901523,0.637237 -4.181726,1.865915 -6.172419,1.965398 -0.833933,0.04167 -1.714603,-0.260551 -2.621913,-0.196539 -2.468774,0.174174 -4.934158,1.020665 -7.319509,1.621454 -1.981007,0.498948 -4.045721,0.676448 -6.0085483,1.277506 -2.0865018,0.638929 -3.7042937,2.300012 -5.7627488,2.948094 -1.1921537,0.375337 -5.7256587,1.713114 -6.500156,2.235638 -0.00215,0.0015 0.7705558,0.07751 0.8466588,0.07371 0.72764446,-0.03637 1.4676745,-0.175167 2.18492574,-0.270249 2.85176426,-0.378039 5.33106426,-0.615192 8.02961076,-1.670584 1.2789466,-0.500191 2.4902138,-0.977787 3.8509328,-1.228371 7.153108,-1.317286 8.375557,-3.242889 12.89107,-7.812457 0.391223,-0.395906 2.1495,-1.877389 1.802565,-2.579581 -0.688883,-1.3942856 -2.7869,-1.6051595 -4.042112,-1.9408335 -2.908158,-0.777712 -6.487894,1.7731495 -9.285941,2.3584765 -1.507775,0.315414 -3.049873,0.416956 -4.561039,0.712458 -1.5449761,0.302112 -3.0249285,1.053447 -4.6156601,1.179241 -1.9099244,0.151034 -4.33651939,-0.290876 -6.1451055,0.638752 -0.077914,0.04005 -1.4862866,1.671429 -1.6933177,1.842559" />
    <path
       style="fill:none;stroke:#000000;stroke-width:0.264583px;stroke-linecap:butt;stroke-linejoin:miter;stroke-opacity:1"
       d="m 67.957276,35.612363 c -0.34419,-0.480068 -0.630261,-1.045983 -1.168772,-1.345509 -0.261874,-0.145657 -0.561295,-0.05282 -0.819971,0.05021 -1.242687,0.494953 -2.437558,1.101388 -3.626329,1.711847 -1.62956,0.836814 -3.256225,1.681187 -4.850997,2.583018 -0.562761,0.318237 -1.066468,0.740179 -1.450874,1.265508 -0.263564,0.360187 -0.516713,0.736803 -0.626901,1.178907 -0.180201,0.723014 -0.244231,1.46347 -0.373827,2.198302 -0.198769,1.127052 0.445149,2.551123 -0.304091,3.412346 -0.194162,0.223182 -0.594359,0.265733 -0.892628,0.343749 -1.977626,0.517271 -4.032572,0.684524 -6.063297,0.64298 -0.850333,-0.0174 -1.678572,-0.287171 -2.437267,-0.651477 -0.460791,-0.22126 -0.966895,-0.417923 -1.308416,-0.804211 -0.304733,-0.344678 -0.438546,-0.807153 -0.808232,-1.109819 -0.660465,-0.54073 -1.341459,-1.048402 -2.029671,-1.558876 -0.591801,-0.438962 -1.35446,-0.465649 -2.040801,-0.659933 -0.311259,-0.08811 -0.55561,-0.313602 -0.715316,-0.596038 -0.294415,-0.520665 -0.885213,-0.749857 -1.417491,-0.945423 -0.335744,-0.123357 -0.756344,-0.13871 -0.992366,-0.408997 -0.317752,-0.363881 -0.568619,-0.782318 -0.834837,-1.184815 -0.527996,-0.798281 -1.053122,-1.597343 -1.624846,-2.366949 -0.466544,-0.628022 -1.006805,-1.210467 -1.365039,-1.911992 -0.24393,-0.477685 -0.211209,-1.047547 -0.01023,-1.536072 0.365766,-0.889074 1.022551,-1.61212 1.534595,-2.415175 0.492593,-0.77255 0.722386,-1.71179 1.397636,-2.365824 0.969555,-0.939093 2.196248,-1.559753 3.429835,-2.072447 2.593274,-1.077797 5.325134,-1.791743 8.078918,-2.313072 2.073199,-0.392485 4.179548,-0.559095 6.277542,-0.808323 0.369356,-0.04388 0.681455,0.17757 0.983464,0.357201 0.472811,0.281222 1.048475,0.276759 1.576567,0.231573 1.112396,-0.09518 2.237136,-0.231695 3.290738,-0.624956 0.83434,-0.311421 1.509956,-0.909849 2.145046,-1.51495 0.700591,-0.667509 1.511255,-1.19899 2.305728,-1.751826 0.40649,-0.282857 0.717559,-0.717588 1.218937,-0.850399 0.779019,-0.206356 1.592575,-0.229787 2.393457,-0.242636 2.278522,-0.03656 4.562941,0.0329 6.826674,0.288336 0.717067,0.08091 1.455807,0.09276 2.143034,0.32169 0.527578,0.175748 1.03888,0.414403 1.60165,0.472732 3.815322,0.395443 7.723884,0.114775 11.459436,1.05563 1.030413,0.259525 2.135642,0.19277 3.124643,0.609054 0.378755,0.159423 0.652959,0.475842 0.96517,0.732233 0.780299,0.64079 1.654196,1.198804 2.280456,1.99927 0.425434,0.543776 0.798865,1.146823 1.390108,1.53934 1.494365,0.992086 3.316402,1.386184 4.749338,2.474527 1.24176,0.943141 2.23999,2.165177 3.48178,3.107774 0.28257,0.214489 0.60674,0.357738 0.95418,0.445487 0.8121,0.205106 1.60073,0.491774 2.41613,0.69707 0.30075,0.07572 0.33144,0.382898 0.36811,0.643754 0.0843,0.599378 0.1222,1.288234 0.59753,1.718984 0.37371,0.338661 0.8306,0.570669 1.27482,0.80175 2.24005,1.165249 4.72475,1.747565 6.97565,2.893308 1.60961,0.819316 3.19391,1.69228 4.71538,2.663501 1.01275,0.646484 1.72077,1.640407 2.71072,2.330059 0.88045,0.613371 1.5369,1.50011 2.50242,2.011736 5.6037,2.969371 11.70661,4.810946 17.49695,7.357673 1.78599,0.78552 3.27472,2.0942 5.05488,2.897882 2.50776,1.132169 5.26102,1.72816 7.60754,3.198009 0.41084,0.257348 0.82395,0.518514 1.15033,0.889414 0.38807,0.441009 0.67355,0.975392 1.11837,1.361308 0.43405,0.376574 1.19461,0.614183 1.23179,1.222539 0.026,0.426229 -0.12158,0.841524 -0.25885,1.23821 -0.3157,0.912345 -0.62131,1.842111 -1.11293,2.673531 -0.21359,0.361221 -0.67564,0.441165 -1.05632,0.491509 -0.9931,0.131337 -1.98981,-0.02216 -2.98769,0.03856 -0.88434,0.05381 -1.78625,0.23507 -2.66115,0.05413 -1.32622,-0.274281 -2.47795,-1.044028 -3.7934,-1.365416 -3.68573,-0.900486 -7.45675,-1.374498 -11.16223,-2.182523 -6.49797,-1.416963 -12.88182,-3.30091 -19.2218,-5.291007 -3.0951,-0.971541 -5.80311,-2.84929 -8.88325,-3.866293 -3.1604,-1.043503 -6.47452,-1.639189 -9.51537,-3.028072 -3.034814,-1.386127 -5.694441,-3.516168 -8.843919,-4.655611 -1.301984,-0.471042 -2.675998,-0.677342 -4.00284,-1.066008 -2.780041,-0.814345 -5.529859,-1.751382 -8.359651,-2.377629 -2.169855,-0.4802 -4.435065,-0.548537 -6.536531,-1.312642 -0.343661,-0.124957 -0.67908,-0.268713 -0.983941,-0.478113 -1.632461,-1.121291 -3.50488,-1.969221 -4.868902,-3.405066 -0.745429,-0.78468 -1.158324,-1.852611 -2.049379,-2.51145 -0.838305,-0.619836 -1.84361,-1.036276 -2.553916,-1.806037 -0.473909,-0.513577 -0.78567,-1.166911 -1.308429,-1.633464 -0.314906,-0.281048 -0.764449,-0.148014 -1.128627,-0.06132 -0.134743,0.03208 -0.270422,0.063 -0.408689,0.07504"
       id="path83"
       inkscape:path-effect="#path-effect85"
       inkscape:original-d="m 67.957276,35.612363 c -0.259398,-0.33188 -0.795028,-1.447689 -1.529445,-1.424905 -0.779944,0.02418 -7.656304,3.678827 -8.848955,4.373004 -0.954879,0.555784 -1.26823,0.884341 -1.884506,1.817994 -0.454189,0.688094 -0.408045,1.873065 -0.60085,2.62872 -0.27309,1.070325 -0.289578,3.700868 -0.382365,3.734258 -2.145223,0.771948 -4.565309,0.781783 -6.827893,0.908987 -1.08259,0.06086 -2.928316,-0.710785 -3.71438,-1.326637 -0.398565,-0.312261 -0.46056,-0.82518 -0.846658,-1.154674 -0.684718,-0.584337 -1.411153,-0.968959 -2.048368,-1.572315 -0.530703,-0.502502 -1.564142,-0.507206 -2.212242,-0.761598 -0.63863,-0.250674 -0.500544,-0.595786 -0.955899,-0.958125 -0.606346,-0.482489 -1.410425,-0.595932 -2.075686,-0.958128 -0.145444,-0.07919 -1.625777,-2.415071 -1.829874,-2.70243 -2.190819,-3.084571 -3.24938,-3.018419 -0.628174,-6.485808 0.59857,-0.7918 0.763204,-1.750335 1.447517,-2.48131 2.976068,-3.178994 13.735624,-5.190091 17.943719,-5.306573 0.638937,-0.01769 0.795591,0.42108 1.392888,0.540479 0.651336,0.130202 1.446607,0.02902 2.102998,-0.04913 4.021439,-0.478776 3.588266,-1.889763 6.664029,-3.734257 0.511739,-0.306884 0.670176,-0.710239 1.310952,-0.908997 1.786329,-0.554092 9.42725,-0.07115 11.08851,0.294809 0.695905,0.153302 1.034585,0.4573 1.829874,0.540483 3.962093,0.414418 7.926086,0.253105 11.825918,1.130106 0.771823,0.173569 2.558703,0.21339 3.168141,0.761593 0.83084,0.747355 1.789465,1.378038 2.594608,2.186502 0.613915,0.616446 0.847521,1.302658 1.611381,1.817993 1.408409,0.950177 3.06142,1.381475 4.479104,2.284773 1.40165,0.89308 3.26724,3.215171 4.39717,3.685116 0.26375,0.109697 2.99828,0.636286 3.08621,1.031838 0.19409,0.87312 0.0782,1.791034 0.95589,2.35848 1.95318,1.262801 4.29023,1.878896 6.41824,2.751551 2.03491,0.834474 4.21729,2.215663 6.11778,3.292038 1.04755,0.593299 1.68901,1.669177 2.73117,2.333913 0.89683,0.572043 1.50428,1.493687 2.43074,1.989963 5.56695,2.982042 11.70021,4.995863 17.53404,7.394813 1.70277,0.700204 3.13744,1.976848 4.80684,2.776122 2.87815,1.378003 6.09843,2.009201 8.7397,3.857096 0.44485,0.311227 1.15939,1.435973 1.50214,1.744284 0.43671,0.392838 1.0004,0.63872 1.25633,1.203804 0.22891,0.505436 -1.17738,3.718886 -1.39288,4.029067 -0.43684,0.628753 -2.3393,0.463749 -2.94967,0.442219 -1.13632,-0.04008 -2.23224,0.197012 -3.38663,0.122839 -1.1409,-0.07331 -2.69262,-1.046859 -3.7963,-1.326645 -2.79497,-0.708538 -5.71633,-1.14608 -8.54854,-1.670595 -7.40469,-1.371314 -14.64108,-3.688659 -21.87658,-5.797918 -3.07371,-0.896032 -5.74678,-2.775947 -8.73971,-3.807957 -3.05476,-1.053328 -6.2626,-1.640541 -9.25863,-2.874391 -3.289257,-1.354606 -6.115303,-3.638547 -9.422504,-4.913492 -1.153748,-0.444778 -2.495606,-0.635524 -3.687064,-0.982708 -2.786412,-0.81194 -5.570816,-1.702213 -8.384651,-2.40761 -2.408958,-0.603899 -5.313321,-0.645451 -7.592624,-1.670585 -0.161174,-0.07249 -5.150805,-3.565054 -5.21652,-3.635986 -0.674851,-0.728445 -1.12758,-1.813565 -1.911813,-2.407613 -0.828606,-0.62766 -1.775859,-1.114629 -2.567281,-1.793423 -0.421198,-0.361256 -1.142542,-1.609164 -1.529455,-1.817994 -0.41759,-0.225388 -0.947402,0.05777 -1.420202,0.09827" />
  </g>
</svg>
