<?xml version="1.0" encoding="UTF-8" standalone="no"?>
<!-- Created with Inkscape (http://www.inkscape.org/) -->

<svg
   width="353.56799mm"
   height="264.16mm"
   viewBox="0 0 353.56799 264.16"
   version="1.1"
   id="svg5"
   inkscape:version="1.1.2 (08b2f3d93c, 2022-04-05)"
   sodipodi:docname="CelulasCondrogenicas.svg"
   xmlns:inkscape="http://www.inkscape.org/namespaces/inkscape"
   xmlns:sodipodi="http://sodipodi.sourceforge.net/DTD/sodipodi-0.dtd"
   xmlns="http://www.w3.org/2000/svg"
   xmlns:svg="http://www.w3.org/2000/svg">
  <sodipodi:namedview
     id="namedview7"
     pagecolor="#ffffff"
     bordercolor="#666666"
     borderopacity="1.0"
     inkscape:pageshadow="2"
     inkscape:pageopacity="0.0"
     inkscape:pagecheckerboard="0"
     inkscape:document-units="mm"
     showgrid="false"
     inkscape:zoom="0.27049912"
     inkscape:cx="1208.8764"
     inkscape:cy="907.58151"
     inkscape:window-width="1366"
     inkscape:window-height="704"
     inkscape:window-x="0"
     inkscape:window-y="27"
     inkscape:window-maximized="1"
     inkscape:current-layer="layer2" />
  <defs
     id="defs2">
    <inkscape:path-effect
       effect="simplify"
       id="path-effect254"
       is_visible="true"
       lpeversion="1"
       steps="1"
       threshold="0.000408163"
       smooth_angles="360"
       helper_size="0"
       simplify_individual_paths="false"
       simplify_just_coalesce="false" />
    <inkscape:path-effect
       effect="simplify"
       id="path-effect250"
       is_visible="true"
       lpeversion="1"
       steps="1"
       threshold="0.000408163"
       smooth_angles="360"
       helper_size="0"
       simplify_individual_paths="false"
       simplify_just_coalesce="false" />
    <inkscape:path-effect
       effect="simplify"
       id="path-effect246"
       is_visible="true"
       lpeversion="1"
       steps="1"
       threshold="0.000408163"
       smooth_angles="360"
       helper_size="0"
       simplify_individual_paths="false"
       simplify_just_coalesce="false" />
    <inkscape:path-effect
       effect="simplify"
       id="path-effect242"
       is_visible="true"
       lpeversion="1"
       steps="1"
       threshold="0.000408163"
       smooth_angles="360"
       helper_size="0"
       simplify_individual_paths="false"
       simplify_just_coalesce="false" />
    <inkscape:path-effect
       effect="simplify"
       id="path-effect238"
       is_visible="true"
       lpeversion="1"
       steps="1"
       threshold="0.000408163"
       smooth_angles="360"
       helper_size="0"
       simplify_individual_paths="false"
       simplify_just_coalesce="false" />
    <inkscape:path-effect
       effect="simplify"
       id="path-effect234"
       is_visible="true"
       lpeversion="1"
       steps="1"
       threshold="0.000408163"
       smooth_angles="360"
       helper_size="0"
       simplify_individual_paths="false"
       simplify_just_coalesce="false" />
    <inkscape:path-effect
       effect="simplify"
       id="path-effect230"
       is_visible="true"
       lpeversion="1"
       steps="1"
       threshold="0.000408163"
       smooth_angles="360"
       helper_size="0"
       simplify_individual_paths="false"
       simplify_just_coalesce="false" />
    <inkscape:path-effect
       effect="simplify"
       id="path-effect226"
       is_visible="true"
       lpeversion="1"
       steps="1"
       threshold="0.000408163"
       smooth_angles="360"
       helper_size="0"
       simplify_individual_paths="false"
       simplify_just_coalesce="false" />
    <inkscape:path-effect
       effect="simplify"
       id="path-effect222"
       is_visible="true"
       lpeversion="1"
       steps="1"
       threshold="0.000408163"
       smooth_angles="360"
       helper_size="0"
       simplify_individual_paths="false"
       simplify_just_coalesce="false" />
    <inkscape:path-effect
       effect="simplify"
       id="path-effect218"
       is_visible="true"
       lpeversion="1"
       steps="1"
       threshold="0.000408163"
       smooth_angles="360"
       helper_size="0"
       simplify_individual_paths="false"
       simplify_just_coalesce="false" />
    <inkscape:path-effect
       effect="simplify"
       id="path-effect214"
       is_visible="true"
       lpeversion="1"
       steps="1"
       threshold="0.000408163"
       smooth_angles="360"
       helper_size="0"
       simplify_individual_paths="false"
       simplify_just_coalesce="false" />
    <inkscape:path-effect
       effect="simplify"
       id="path-effect210"
       is_visible="true"
       lpeversion="1"
       steps="1"
       threshold="0.000408163"
       smooth_angles="360"
       helper_size="0"
       simplify_individual_paths="false"
       simplify_just_coalesce="false" />
    <inkscape:path-effect
       effect="simplify"
       id="path-effect206"
       is_visible="true"
       lpeversion="1"
       steps="1"
       threshold="0.000408163"
       smooth_angles="360"
       helper_size="0"
       simplify_individual_paths="false"
       simplify_just_coalesce="false" />
    <inkscape:path-effect
       effect="simplify"
       id="path-effect202"
       is_visible="true"
       lpeversion="1"
       steps="1"
       threshold="0.000408163"
       smooth_angles="360"
       helper_size="0"
       simplify_individual_paths="false"
       simplify_just_coalesce="false" />
    <inkscape:path-effect
       effect="simplify"
       id="path-effect198"
       is_visible="true"
       lpeversion="1"
       steps="1"
       threshold="0.000408163"
       smooth_angles="360"
       helper_size="0"
       simplify_individual_paths="false"
       simplify_just_coalesce="false" />
    <inkscape:path-effect
       effect="simplify"
       id="path-effect81"
       is_visible="true"
       lpeversion="1"
       steps="1"
       threshold="0.000408163"
       smooth_angles="360"
       helper_size="0"
       simplify_individual_paths="false"
       simplify_just_coalesce="false" />
    <inkscape:path-effect
       effect="simplify"
       id="path-effect77"
       is_visible="true"
       lpeversion="1"
       steps="1"
       threshold="0.000408163"
       smooth_angles="360"
       helper_size="0"
       simplify_individual_paths="false"
       simplify_just_coalesce="false" />
    <inkscape:path-effect
       effect="simplify"
       id="path-effect73"
       is_visible="true"
       lpeversion="1"
       steps="1"
       threshold="0.000408163"
       smooth_angles="360"
       helper_size="0"
       simplify_individual_paths="false"
       simplify_just_coalesce="false" />
    <inkscape:path-effect
       effect="simplify"
       id="path-effect69"
       is_visible="true"
       lpeversion="1"
       steps="1"
       threshold="0.000408163"
       smooth_angles="360"
       helper_size="0"
       simplify_individual_paths="false"
       simplify_just_coalesce="false" />
    <inkscape:path-effect
       effect="simplify"
       id="path-effect65"
       is_visible="true"
       lpeversion="1"
       steps="1"
       threshold="0.000408163"
       smooth_angles="360"
       helper_size="0"
       simplify_individual_paths="false"
       simplify_just_coalesce="false" />
    <inkscape:path-effect
       effect="simplify"
       id="path-effect61"
       is_visible="true"
       lpeversion="1"
       steps="1"
       threshold="0.000408163"
       smooth_angles="360"
       helper_size="0"
       simplify_individual_paths="false"
       simplify_just_coalesce="false" />
    <inkscape:path-effect
       effect="simplify"
       id="path-effect57"
       is_visible="true"
       lpeversion="1"
       steps="1"
       threshold="0.000408163"
       smooth_angles="360"
       helper_size="0"
       simplify_individual_paths="false"
       simplify_just_coalesce="false" />
  </defs>
  <g
     inkscape:groupmode="layer"
     id="layer2"
     inkscape:label="Celulas condrogenicas"
     transform="translate(147.19565,12.610077)"
     style="display:inline">
    <path
       style="fill:none;stroke:#000000;stroke-width:0.264583px;stroke-linecap:butt;stroke-linejoin:miter;stroke-opacity:1"
       d="m -49.546822,250.37831 c -0.205861,-1.60613 -0.321717,-3.22857 -0.654265,-4.81372 -0.139164,-0.66335 -0.464475,-1.26495 -0.657123,-1.91276 -0.466381,-1.56828 -0.740424,-3.20391 -1.409374,-4.7031 -0.321346,-0.72017 -0.850958,-1.33393 -1.096827,-2.09092 -0.214125,-0.65926 -0.362867,-1.34109 -0.434904,-2.02881 -0.04495,-0.42911 0.05838,-0.86309 -0.04652,-1.29014 -0.128196,-0.5219 -0.385743,-0.99685 -0.602701,-1.48471 -0.234589,-0.5275 -0.576494,-1.005 -0.77271,-1.5484 -0.236368,-0.6546 -0.341998,-1.34704 -0.427851,-2.03468 -0.0642,-0.51424 -0.141041,-1.02765 -0.179222,-1.54444 -0.05174,-0.70029 0.0193,-1.41022 -0.138073,-2.10273 -0.171848,-0.75619 -0.357206,-1.51015 -0.586158,-2.25078 -0.180338,-0.58337 -0.527297,-1.12294 -0.552702,-1.7484 -0.02103,-0.51777 0.164697,-1.01088 0.18582,-1.52746 0.0346,-0.84609 -0.120678,-1.69285 -0.400859,-2.48717 -0.220823,-0.62604 -0.476744,-1.24208 -0.796646,-1.82458 -0.173691,-0.31627 -0.427581,-0.57681 -0.666326,-0.84354 -0.811401,-0.90652 -1.692378,-1.76777 -2.317723,-2.823 -0.182294,-0.30761 -0.307553,-0.64396 -0.466617,-0.96355 -0.132953,-0.26713 -0.287931,-0.53162 -0.32253,-0.83646 -0.09496,-0.83668 0.123074,-1.66729 0.369285,-2.45986 0.288663,-0.92922 0.651785,-1.85058 0.725755,-2.83049 0.0936,-1.23998 -0.180744,-2.46407 -0.29627,-3.69266 -0.15387,-1.63637 -0.30257,-3.28325 -0.177297,-4.92741 0.143372,-1.88171 0.501895,-3.75523 0.4032,-5.64925 -0.04003,-0.76828 -0.188983,-1.52824 -0.427235,-2.26094 -0.525888,-1.61727 -1.010187,-3.25529 -1.713286,-4.80628 -0.246689,-0.54418 -0.520798,-1.07573 -0.759418,-1.62361 -0.117803,-0.27048 -0.500553,-0.57021 -0.339625,-0.81802 0.05199,-0.0801 0.221189,-0.0608 0.297217,0.0143 0.08697,0.0859 0.162111,0.18368 0.256538,0.26218"
       id="path55"
       inkscape:path-effect="#path-effect57"
       inkscape:original-d="m -49.546822,250.37831 c -0.202014,-1.5838 -0.384021,-3.16201 -0.639209,-4.73054 -0.09591,-0.58955 -0.43615,-1.22288 -0.610153,-1.79029 -0.488513,-1.59299 -0.799182,-3.2428 -1.423689,-4.79588 -0.279109,-0.69412 -0.780269,-1.27103 -1.060502,-1.97324 -0.250905,-0.62872 -0.397899,-1.50606 -0.508458,-2.18232 -0.06701,-0.4099 0.05173,-0.83661 -0.02905,-1.24145 -0.109138,-0.54694 -0.352102,-0.95292 -0.566571,-1.46359 -0.221874,-0.52831 -0.510958,-0.98686 -0.755428,-1.5028 -0.403402,-0.85134 -0.550037,-2.61036 -0.668266,-3.56751 -0.08944,-0.72411 0.02495,-1.46458 -0.130744,-2.18232 -0.164647,-0.75904 -0.385132,-1.51155 -0.581099,-2.26073 -0.161337,-0.61679 -0.530661,-1.13245 -0.581093,-1.79029 -0.03995,-0.52109 0.14605,-0.94155 0.174326,-1.43746 0.05006,-0.87792 -0.07693,-1.58074 -0.319606,-2.41754 -0.166929,-0.57561 -0.727499,-1.94486 -1.075029,-2.36527 -1.183349,-1.43153 -2.481966,-2.44146 -3.196037,-4.20784 -0.127265,-0.31482 -0.315108,-0.52955 -0.363188,-0.87554 -0.221425,-1.59334 0.747728,-3.25921 1.016921,-4.80895 0.250179,-1.44028 -0.0993,-2.86227 -0.232434,-4.29931 -0.145055,-1.56574 -0.287713,-3.05624 -0.188857,-4.63907 0.157644,-2.52416 0.865619,-5.46347 0.05811,-7.94522 -0.556424,-1.71006 -1.246767,-3.96085 -2.033842,-5.55381 -0.05261,-0.10649 -0.906878,-1.89873 -0.842595,-1.92097 0.284078,-0.0983 0.285367,0.0699 0.552046,0.30056" />
    <path
       style="fill:none;stroke:#000000;stroke-width:0.264583px;stroke-linecap:butt;stroke-linejoin:miter;stroke-opacity:1"
       d="m -63.551268,180.72692 c 0.02429,-0.45327 -0.346102,-0.78186 -0.654422,-1.05597 -0.2921,-0.25969 -0.559396,-0.56276 -0.668816,-0.95576 -0.470517,-1.68993 -0.443951,-3.45733 -0.691398,-5.18392 -0.228901,-1.59718 -0.207757,-3.21603 -0.340303,-4.82152 -0.0642,-0.77767 -0.155195,-1.55712 -0.05906,-2.34067 0.129877,-1.05859 0.487159,-2.13658 0.265376,-3.19451 -0.114001,-0.5438 -0.406804,-1.02585 -0.507616,-1.57857 -0.246039,-1.34896 -0.236978,-2.75465 -0.693939,-4.05585 -0.219718,-0.62565 -0.506664,-1.23617 -0.55522,-1.91229 -0.08943,-1.24529 0.085,-2.49686 -0.07645,-3.73996 -0.103773,-0.79901 -0.175253,-1.61695 -0.454526,-2.37638 -0.126474,-0.34392 -0.398047,-0.60787 -0.480189,-0.98008 -0.174866,-0.79236 -0.328595,-1.60751 -0.704047,-2.33167 -0.395648,-0.76311 -0.977454,-1.41922 -1.271807,-2.24083 -0.247083,-0.68967 -0.271995,-1.46661 -0.644321,-2.0995 -0.177423,-0.30159 -0.440465,-0.54679 -0.541064,-0.89904 -0.184406,-0.6457 -0.291573,-1.31691 -0.609515,-1.92203 -0.546591,-1.04029 -1.090964,-2.1048 -1.292881,-3.28139 -0.125778,-0.73292 -0.387088,-1.4848 -0.225156,-2.2262 0.256924,-1.17632 0.868471,-2.27242 0.876866,-3.50331 0.0071,-1.03497 -0.382295,-2.05172 -0.26266,-3.08289 0.08269,-0.71273 0.506712,-1.34601 0.485868,-2.082 -0.0344,-1.21463 -0.396292,-2.38924 -0.770558,-3.53431 -0.236581,-0.72382 -0.439591,-1.45785 -0.664816,-2.18512 -0.152736,-0.4932 -0.469799,-0.91117 -0.680505,-1.38348 -0.246781,-0.55317 -0.249163,-1.18617 -0.560217,-1.72201 -0.315689,-0.54382 -0.777142,-1.06299 -0.802386,-1.71752 -0.02677,-0.69406 0.203556,-1.35938 0.286014,-2.04338 0.166429,-1.38055 0.108312,-2.79764 -0.278852,-4.14091 -0.25135,-0.87206 -0.516374,-1.7413 -0.669239,-2.63896 -0.145144,-0.85232 -0.333636,-1.69684 -0.619756,-2.51806 -0.204522,-0.58702 0.213349,-2.06653 -0.353508,-1.81634 -0.100077,0.0442 0.08459,0.64651 0.03442,0.26078 -0.141373,-1.08692 -0.325878,-2.262282 -1.035947,-3.102945 -0.189042,-0.22381 -0.400508,-0.434039 -0.477655,-0.734509 -0.108718,-0.42343 -0.198203,-0.862575 -0.484312,-1.219452 -0.689909,-0.860555 -1.521792,-1.639197 -1.933364,-2.694653 -0.211839,-0.543251 -0.431112,-1.093385 -0.462152,-1.686255 -0.03672,-0.701401 0.0086,-1.447789 -0.35843,-2.082344 -0.574659,-0.993484 -1.57908,-1.690021 -2.043456,-2.747358 -0.362326,-0.824979 -0.291534,-1.754238 -0.197216,-2.626546 0.105786,-0.978366 0.257475,-1.968391 0.09444,-2.9526 -0.121422,-0.733006 -0.27674,-1.470146 -0.215108,-2.219247 0.05129,-0.623451 0.0914,-1.251711 -0.01738,-1.875047 -0.165372,-0.947706 -0.478155,-1.90394 -0.305312,-2.877093 0.146147,-0.822848 0.418639,-1.616201 0.514545,-2.452169 0.157796,-1.375437 0.294101,-2.754143 0.497454,-4.12352 0.231549,-1.559245 0.814493,-3.114475 0.590138,-4.698608 -0.137234,-0.968984 -0.158234,-1.953485 -0.336835,-2.91576 -0.147423,-0.794292 -0.502911,-1.527602 -0.654904,-2.324276 -0.284144,-1.489344 -0.451001,-3.001846 -0.79775,-4.477879 -0.221794,-0.944128 -0.722189,-1.789261 -1.059591,-2.691768 -0.09394,-0.251267 -0.226874,-1.044335 -0.202067,-0.777432 0.02953,0.317757 0.157061,0.609515 0.27602,0.901678"
       id="path59"
       inkscape:path-effect="#path-effect61"
       inkscape:original-d="m -63.551268,180.72692 c 0.0401,-0.78589 -1.05914,-1.13509 -1.278421,-1.85833 -0.494816,-1.63201 -0.444352,-3.40151 -0.69732,-5.0703 -0.247531,-1.63292 -0.30012,-3.1639 -0.363183,-4.80895 -0.02852,-0.74394 -0.18529,-1.5021 -0.116221,-2.24766 0.106048,-1.14471 0.409993,-2.19828 0.334132,-3.35843 -0.0371,-0.56725 -0.390012,-1.0423 -0.493935,-1.56813 -0.263631,-1.33392 -0.299006,-2.70003 -0.653738,-4.01182 -0.168235,-0.62213 -0.537075,-1.2563 -0.610147,-1.89483 -0.137158,-1.19854 0.04619,-2.3796 -0.05811,-3.58058 -0.06339,-0.72985 -0.270332,-2.27969 -0.522986,-2.87491 -0.126902,-0.29897 -0.366794,-0.49589 -0.435821,-0.82328 -0.147714,-0.70059 -0.301154,-1.36153 -0.552045,-2.03858 -0.323559,-0.87313 -0.967722,-1.47497 -1.321999,-2.31299 -0.31718,-0.75028 -0.428122,-1.55024 -0.711843,-2.29994 -0.125722,-0.33219 -0.437226,-0.52814 -0.552042,-0.87554 -0.197885,-0.59875 -0.263652,-1.3089 -0.552046,-1.8687 -0.535664,-1.03976 -1.182364,-2.13194 -1.365575,-3.30615 -0.110178,-0.70614 -0.405257,-1.71869 -0.24697,-2.43061 0.214805,-0.96612 0.685482,-1.86428 0.828064,-2.86185 0.169539,-1.18618 -0.232439,-2.32605 -0.232439,-3.4891 0,-0.72478 0.463878,-1.36221 0.493932,-2.05165 0.07059,-1.61924 -0.868439,-3.91212 -1.307468,-5.52768 -0.180477,-0.66413 -0.393491,-1.24313 -0.769956,-1.75108 -0.193828,-0.26153 -0.270581,-1.15501 -0.464875,-1.542 -0.276718,-0.55117 -0.816137,-1.16641 -0.915229,-1.79029 -0.09054,-0.57003 0.134229,-1.26492 0.217909,-1.82949 0.181993,-1.22785 0.210944,-2.56641 -0.04358,-3.7766 -0.195966,-0.93176 -0.557045,-1.86075 -0.740896,-2.77037 -0.199605,-0.98755 -0.304914,-2.05778 -0.682792,-2.99253 -0.232757,-0.57577 -0.205756,-1.19574 -0.34866,-1.79029 -0.08549,-0.35566 -0.133567,-0.11244 0,0.26136 -0.137856,-1.16111 -0.431622,-2.178892 -1.002399,-3.182416 -0.132522,-0.232996 -0.366153,-0.360457 -0.46488,-0.614189 -0.165411,-0.425114 -0.159099,-0.912638 -0.45035,-1.293708 -0.707718,-0.92597 -1.606326,-1.649432 -2.019313,-2.783448 -0.155826,-0.427882 -0.365954,-0.867334 -0.435826,-1.319846 -0.120809,-0.782408 0.04434,-1.608 -0.319601,-2.339136 -0.531684,-1.068129 -1.872668,-2.067005 -2.222698,-3.14934 -0.451352,-1.395632 0.144843,-3.18851 0.07264,-4.639069 -0.03868,-0.777025 -0.274741,-1.53596 -0.305077,-2.299933 -0.02712,-0.683088 0.13071,-1.359381 0.05811,-2.051647 -0.09508,-0.906576 -0.457457,-1.898491 -0.421291,-2.809576 0.03502,-0.882301 0.441412,-1.784108 0.537511,-2.665831 0.146992,-1.348678 0.322063,-2.693371 0.479409,-4.037954 0.204957,-1.751421 0.861026,-3.541453 0.610149,-5.318593 -0.120079,-0.850604 -0.167773,-1.711762 -0.290547,-2.561289 -0.107704,-0.745251 -0.481236,-1.440401 -0.624678,-2.182322 -0.290391,-1.501978 -0.515067,-3.00594 -0.799011,-4.508394 -0.173408,-0.917568 -0.638602,-1.886992 -1.03145,-2.731171 -0.214991,-0.461987 -0.28496,-1.024315 -0.27602,-0.953949 0.04988,0.392623 0.132597,0.536139 0.27602,0.901678" />
    <path
       style="fill:none;stroke:#000000;stroke-width:0.264583px;stroke-linecap:butt;stroke-linejoin:miter;stroke-opacity:1"
       d="m -86.344833,51.045485 c 0.374965,-1.780245 0.340115,-3.609713 0.326992,-5.418831 -0.0083,-1.138592 0.01652,-2.278301 0.124349,-3.41293 0.126365,-1.32972 0.220398,-2.67312 0.06086,-4.005687 -0.04693,-0.391985 -0.124755,-0.781802 -0.270635,-1.150636 -0.413827,-1.046292 -1.232169,-1.884895 -1.585358,-2.958143 -0.108397,-0.32939 -0.172017,-0.670984 -0.25811,-1.00659 -0.413352,-1.611323 -0.92737,-3.202892 -1.151126,-4.857703 -0.24511,-1.812737 -0.384667,-3.64872 -0.853761,-5.422832 -0.385716,-1.458776 -0.951948,-2.869038 -1.214233,-4.360385 -0.170935,-0.971931 -0.30139,-1.956407 -0.617134,-2.896793 -0.230915,-0.687739 -0.557602,-1.36106 -0.617656,-2.088947 -0.03564,-0.431931 0.08809,-0.855869 0.06538,-1.289392 -0.03983,-0.760607 -0.132396,-1.517266 -0.237123,-2.2710636 -0.139318,-1.0027705 -0.427207,-1.9821281 -0.474955,-2.9994422 -0.05108,-1.0883296 -0.09518,-2.1845288 -0.31553,-3.2533122 -0.225128,-1.0919605 -0.715915,-2.1091399 -0.917031,-3.20818776 -0.207979,-1.13654978 -0.29379,-2.28972334 -0.43673,-3.43530874 -0.127271,-1.0200073 -0.04798,-2.0527982 -0.16476,-3.0734091 -0.03153,-0.2755447 -0.360221,-0.6298371 -0.155337,-0.8157206 0.09069,-0.08228 0.367814,0.1779975 0.347615,0.1208859 -0.07603,-0.2149766 -0.207428,-0.409986 -0.26094,-0.6313526 -0.05804,-0.2400773 -0.04499,-0.489874 -0.04379,-0.7348652 0.0024,-0.4929652 -0.01754,-0.9972507 0.109459,-1.4748342 0.06629,-0.2493052 0.214424,-0.4687437 0.248269,-0.7307197 0.01453,-0.112445 0.132618,-0.273194 0.03969,-0.339148 -0.100154,-0.07108 -0.132098,-0.193543 -0.13447,-0.312092 -0.007,-0.349774 0.0117,-0.700365 0.05427,-1.048656 0.0083,-0.06774 0.06567,-0.202418 0.123788,-0.07671"
       id="path63"
       inkscape:path-effect="#path-effect65"
       inkscape:original-d="m -86.344833,51.045485 c 0.590349,-2.808724 0.15712,-5.689335 0.421296,-8.511273 0.151305,-1.616244 0.304789,-3.113701 0.02905,-4.743611 -0.258487,-1.527982 -1.55716,-2.571599 -1.888567,-4.024881 -0.396047,-1.736738 -1.029994,-3.503465 -1.278414,-5.266325 -0.243879,-1.730629 -0.383553,-3.566119 -0.784484,-5.266324 -0.314817,-1.335024 -0.824706,-2.623033 -1.147667,-3.946475 -0.253741,-1.039788 -0.332946,-2.116277 -0.610153,-3.14934 -0.231823,-0.863923 -0.636746,-1.688432 -0.784482,-2.574358 -0.06859,-0.411299 0.07355,-0.850756 0.05811,-1.267575 -0.02674,-0.721587 -0.137539,-1.480462 -0.217911,-2.195392 -0.117023,-1.0409409 -0.448588,-2.0104195 -0.493935,-3.0709356 -0.04467,-1.0447126 -0.114361,-2.1924426 -0.290549,-3.2146801 -0.169699,-0.9845865 -0.626655,-1.9674991 -0.857118,-2.94025072 -0.261699,-1.10459324 -0.344236,-2.56100438 -0.50846,-3.72432478 -0.141068,-0.9992947 -0.07637,-1.9847425 -0.159803,-2.9925266 -0.05075,-0.6129983 -0.208783,-1.0546191 -0.174329,-1.0584934 0.120026,-0.013496 0.271335,0.1104442 0.34866,0.1568133 -0.237257,-0.6230441 -0.294522,-0.5484915 -0.305074,-0.985139 -0.01354,-0.5604582 -0.0058,-1.2330139 0.08716,-1.7902865 0.04897,-0.293656 0.233925,-0.4864986 0.261493,-0.7840716 0.0038,-0.04132 0.06623,-0.345527 0.04358,-0.365898 -0.07616,-0.06851 -0.120195,-0.115402 -0.130746,-0.248286 -0.02262,-0.284821 -0.0035,-1.509025 0.17433,-1.189171" />
    <path
       style="fill:none;stroke:#000000;stroke-width:0.264583px;stroke-linecap:butt;stroke-linejoin:miter;stroke-opacity:1"
       d="m -54.587843,249.42931 c 0.08001,-0.58259 -0.05992,-1.16575 -0.229853,-1.71978 -0.171149,-0.55799 -0.360433,-1.11634 -0.411666,-1.70235 -0.07561,-0.86482 0.02642,-1.74167 -0.144417,-2.59921 -0.149409,-0.75 -0.42332,-1.47626 -0.466508,-2.24645 -0.0317,-0.56535 0.0065,-1.13929 -0.134635,-1.69474 -0.122816,-0.48345 -0.379529,-0.91819 -0.663432,-1.32351 -0.570409,-0.81435 -1.253995,-1.54522 -1.790598,-2.3837 -0.148429,-0.23193 -0.280211,-0.47927 -0.335365,-0.75233 -0.08692,-0.43034 -0.05522,-0.87512 -0.167602,-1.30307 -0.232216,-0.88426 -0.321885,-1.80574 -0.249191,-2.72066 0.0304,-0.38265 0.05736,-0.77159 -0.03131,-1.15196 -0.04353,-0.18672 -0.144409,-0.35092 -0.247266,-0.51095 -0.144323,-0.22454 -0.120384,-0.50481 -0.09352,-0.75679 0.03943,-0.3698 0.106745,-0.7372 0.228497,-1.09028 0.206217,-0.59802 0.51827,-1.17209 0.576873,-1.81086 0.0326,-0.35537 -0.04454,-0.71206 -0.157926,-1.04693 -0.139129,-0.41091 -0.41538,-0.7718 -0.779964,-1.01146 -0.395919,-0.26026 -0.866103,-0.36285 -1.285725,-0.57453 -0.235664,-0.11888 -0.433837,-0.3143 -0.535173,-0.56289 -0.224977,-0.55189 -0.396288,-1.1285 -0.482409,-1.71887 -0.04191,-0.28732 -0.03757,-0.58096 0.0251,-0.86626 0.09118,-0.41504 0.268539,-0.82474 0.23409,-1.2558 -0.01924,-0.2408 -0.113111,-0.4677 -0.20401,-0.68864 -0.208634,-0.5071 -0.45895,-1.00923 -0.516001,-1.56386 -0.04563,-0.4436 0.02605,-0.90434 -0.10554,-1.33395 -0.104388,-0.34079 -0.393813,-0.56974 -0.597825,-0.84824 -0.143893,-0.19643 -0.222111,-0.44191 -0.195864,-0.68837 0.02216,-0.20806 0.07284,-0.43193 -0.02907,-0.62923 -0.153225,-0.29664 -0.430211,-0.499 -0.684194,-0.70357 -0.238702,-0.19226 -0.467637,-0.40203 -0.631807,-0.6667 -0.553013,-0.89156 -0.857332,-1.90874 -1.081229,-2.9266 -0.147727,-0.67158 -0.211462,-1.36267 -0.403593,-2.02279 -0.08114,-0.27878 -0.285777,-0.4981 -0.368187,-0.77909 -0.515331,-1.75708 -0.776132,-3.583 -0.828696,-5.41464 -0.0365,-1.27173 -0.139431,-2.54158 -0.319456,-3.79979 -0.05387,-0.37653 -0.25866,-1.49909 -0.196347,-1.12394 0.0034,0.0207 0.0074,0.0413 0.01121,0.062"
       id="path71"
       inkscape:path-effect="#path-effect73"
       inkscape:original-d="m -54.587843,249.42931 c 0.14787,-1.11003 -0.4606,-2.10302 -0.610153,-3.14934 -0.118679,-0.8303 -0.01016,-1.67075 -0.116221,-2.50901 -0.09018,-0.71269 -0.344911,-1.3693 -0.464876,-2.06472 -0.177331,-1.02797 0.08227,-1.69305 -0.363188,-2.7181 -0.462404,-1.06405 -1.867622,-2.42523 -2.45514,-3.51524 -0.309144,-0.57355 -0.162552,-1.11855 -0.319601,-1.71188 -0.214106,-0.8089 -0.33301,-1.60348 -0.290552,-2.44368 0.01516,-0.29996 0.100309,-0.90867 0.04359,-1.25451 -0.168844,-1.02938 -0.585777,-0.40884 -0.319604,-1.99937 0.155435,-0.9288 0.862309,-1.87501 0.726374,-2.82264 -0.336005,-2.34241 -2.267611,-1.65897 -2.731161,-2.73118 -0.257821,-0.59635 -0.589738,-1.71573 -0.522986,-2.3522 0.057,-0.54355 0.396158,-1.20121 0.246965,-1.73802 -0.171501,-0.61707 -0.537118,-1.17656 -0.653733,-1.81642 -0.08924,-0.48964 -0.02416,-0.97971 -0.116221,-1.47667 -0.100888,-0.54452 -0.720643,-0.80024 -0.813538,-1.38518 -0.04168,-0.26243 0.09233,-0.54798 0,-0.79714 -0.188235,-0.50797 -0.967653,-0.85008 -1.278414,-1.33291 -0.983183,-1.52758 -1.179282,-3.25323 -1.539909,-5.00497 -0.05811,-0.28227 -0.281519,-0.49553 -0.363183,-0.771 -0.507622,-1.71232 -0.811551,-3.51862 -0.842595,-5.30553 -0.02283,-1.31401 -0.215392,-2.62114 -0.3196,-3.93341 -0.01648,-0.20756 -0.253807,-1.4482 -0.188857,-1.09769" />
    <path
       style="fill:none;stroke:#000000;stroke-width:0.264583px;stroke-linecap:butt;stroke-linejoin:miter;stroke-opacity:1"
       d="m -67.880451,195.49852 c -0.216669,-0.39811 -0.498855,-0.75719 -0.66596,-1.18656 -0.03861,-0.0992 -0.02024,-0.20828 0.03189,-0.30078 0.0779,-0.13822 0.177882,-0.26508 0.211822,-0.42654 0.188513,-0.89679 0.207611,-1.81841 0.191212,-2.73062 -0.0063,-0.34895 0.01325,-0.6999 -0.04065,-1.0465 -0.149895,-0.96395 -0.641766,-1.84166 -0.752781,-2.81368 -0.08387,-0.73438 0.07937,-1.46505 0.122794,-2.19628 0.01229,-0.20695 0.04441,-0.41778 0.0091,-0.62245 -0.0482,-0.27975 -0.161077,-0.54296 -0.228763,-0.81751 -0.250526,-1.0162 -0.484065,-2.03766 -0.81021,-3.03393 -0.100423,-0.30676 -0.22957,-0.60354 -0.325751,-0.91154 -0.242764,-0.77741 -0.245994,-1.60529 -0.442287,-2.39184 -0.108215,-0.43362 -0.371023,-0.80308 -0.534352,-1.21573 -0.428353,-1.08223 -0.841932,-2.17237 -1.156865,-3.29425 -0.288626,-1.02817 -0.566259,-2.0685 -0.65402,-3.13577 -0.04952,-0.60217 -0.03448,-1.20728 -0.0234,-1.81065 0.02081,-1.13359 0.07095,-2.27747 -0.118814,-3.40039 -0.192599,-1.13969 -0.656444,-2.21408 -0.858841,-3.35037 -0.132624,-0.74457 -0.05108,-1.50229 -0.02535,-2.25183 0.02337,-0.68077 0.180376,-1.36073 0.09669,-2.0418 -0.06246,-0.50836 -0.291844,-0.97827 -0.551508,-1.41294 -0.504064,-0.84378 -1.144722,-1.59538 -1.648402,-2.44021 -0.170898,-0.28665 -0.275587,-0.60708 -0.338467,-0.93403 -0.112768,-0.58635 -0.09037,-1.19142 -0.219148,-1.77448 -0.09011,-0.40802 -0.250478,-0.79528 -0.372994,-1.19385 -0.04356,-0.1417 -0.25708,-0.33533 -0.1375,-0.42306 0.07126,-0.0523 0.190267,-0.0679 0.284967,-0.0819 0.244714,-0.0361 0.490342,0.0201 0.735002,0.029"
       id="path75"
       inkscape:path-effect="#path-effect77"
       inkscape:original-d="m -67.880451,195.49852 c -0.227598,-0.41701 -0.573974,-0.78857 -0.682792,-1.25101 -0.04962,-0.21087 0.1993,-0.3898 0.246965,-0.60112 0.236998,-1.0507 0.203388,-2.26882 0.203388,-3.34536 0,-1.21311 -0.767774,-2.34548 -0.813541,-3.58057 -0.03093,-0.83479 0.182134,-1.65941 0.159803,-2.48289 -0.0051,-0.18754 -0.20878,-0.77323 -0.217911,-0.8102 -0.370245,-1.49872 -0.522068,-2.33723 -1.075034,-3.78966 -0.299977,-0.78793 -0.352174,-1.73537 -0.508458,-2.56129 -0.07555,-0.39926 -0.358161,-0.79586 -0.508463,-1.1761 -0.403428,-1.02064 -0.815467,-2.06803 -1.11861,-3.12321 -0.339596,-1.18205 -0.717942,-2.59249 -0.755428,-3.82886 -0.04606,-1.51911 0.133652,-3.1883 -0.10169,-4.69134 -0.178462,-1.13977 -0.618964,-2.2397 -0.857123,-3.35843 -0.15413,-0.72402 -0.05798,-1.56119 -0.04358,-2.28687 0.0141,-0.71059 0.21703,-1.63728 0.05811,-2.32606 -0.298643,-1.29433 -1.631641,-2.58108 -2.251752,-3.78966 -0.359154,-0.69998 -0.314045,-1.61155 -0.435827,-2.37834 -0.06854,-0.43154 -0.235974,-0.81467 -0.363186,-1.22838 -0.09409,-0.306 -0.197591,-0.55467 -0.174326,-0.56191 0.423339,-0.13182 0.520607,-0.0696 1.016921,-0.0392" />
    <path
       style="fill:none;stroke:#000000;stroke-width:0.264583px;stroke-linecap:butt;stroke-linejoin:miter;stroke-opacity:1"
       d="m -76.103037,148.28803 c -0.399887,-0.34957 -0.725369,-0.79248 -0.895656,-1.29914 -0.204326,-0.60793 -0.216916,-1.25584 -0.295863,-1.88688 -0.129477,-1.03494 -0.102132,-2.08088 -0.046,-3.12027 0.02287,-0.42353 0.07777,-0.84581 0.08035,-1.26989 0.004,-0.65058 -0.230027,-1.28039 -0.207406,-1.93083 0.0107,-0.30755 0.09558,-0.63271 -0.03238,-0.92647 -0.133386,-0.30621 -0.397315,-0.53304 -0.51041,-0.85353 -0.418219,-1.18517 -0.899193,-2.34978 -1.465369,-3.47128 -0.404579,-0.8014 -0.933402,-1.53839 -1.260056,-2.37977 -0.355749,-0.91632 -0.6339,-1.87417 -0.707707,-2.85696 -0.04209,-0.56046 -0.0207,-1.13293 -0.176437,-1.6778 -0.06987,-0.24447 -0.08019,-0.52389 -0.235431,-0.72624 -0.06622,-0.0863 -0.133686,-0.16881 -0.170456,-0.27705 -0.537822,-1.58323 -0.819589,-3.255 -1.513782,-4.78159 -0.09336,-0.2053 -0.178819,-0.41484 -0.226578,-0.63662 -0.10205,-0.47389 -0.11905,-0.96665 -0.301433,-1.42358 -0.406929,-1.0195 -0.782021,-2.06796 -0.909537,-3.16224 -0.06942,-0.59571 -0.01754,-1.19863 -0.114141,-1.79312 -0.165975,-1.02141 -0.45668,-2.02931 -0.462925,-3.07165 -0.0037,-0.61571 0.141669,-1.22248 0.356912,-1.79628 0.14768,-0.39369 0.282317,-0.80145 0.288279,-1.22658 0.0054,-0.38636 -0.04725,-0.77576 -0.165766,-1.14251 -0.175112,-0.5419 -0.566292,-0.97616 -0.963464,-1.3697 -0.410647,-0.40689 -0.870673,-0.76899 -1.223367,-1.23071 -0.266611,-0.34903 -0.397181,-0.77839 -0.504991,-1.19728 -0.258607,-1.0048 -0.39963,-2.03585 -0.505022,-3.066423 -0.107941,-1.055495 -0.207324,-2.114569 -0.209613,-3.175831 -0.0014,-0.646374 0.13549,-1.304511 -0.02104,-1.941219 -0.0739,-0.300621 -0.131287,-0.614298 -0.286067,-0.882173 -0.04208,-0.07283 -0.06883,-0.126076 0.05205,-0.123092 0.134066,0.0033 0.267402,0.01903 0.401258,0.02611"
       id="path79"
       inkscape:path-effect="#path-effect81"
       inkscape:original-d="m -76.103037,148.28803 c -1.108612,-0.98506 -1.047808,-1.93421 -1.205725,-3.31414 -0.161396,-1.41034 -0.05129,-2.72141 0.04358,-4.12943 0.04199,-0.62319 -0.189466,-1.32817 -0.20338,-1.96017 -0.0069,-0.31355 0.08579,-0.63922 0,-0.94089 -0.09202,-0.32358 -0.40803,-0.55957 -0.522989,-0.8886 -0.400994,-1.14771 -0.884086,-2.26399 -1.409162,-3.3715 -0.391594,-0.82596 -0.930133,-1.53508 -1.278414,-2.39141 -0.349361,-0.85898 -0.632603,-1.83187 -0.7409,-2.7573 -0.08212,-0.70175 -0.0182,-1.26775 -0.217913,-1.98631 -0.308123,-1.10865 -0.22697,-0.44627 -0.421294,-1.03236 -0.541176,-1.6322 -0.866134,-3.32791 -1.568965,-4.88735 -0.251439,-0.55789 -0.181997,-1.22121 -0.406768,-1.77722 -0.399307,-0.98775 -0.770985,-2.06393 -0.929754,-3.14934 -0.08386,-0.57327 -0.01905,-1.15499 -0.101695,-1.72495 -0.181946,-1.25474 -0.641887,-2.60975 -0.435822,-3.90727 0.226809,-1.42815 0.864833,-1.7035 0.464878,-3.35843 -0.310263,-1.28381 -1.930905,-2.07599 -2.411555,-3.03173 -0.695283,-1.38252 -0.998387,-5.450537 -1.031449,-7.05661 -0.01492,-0.724906 0.156972,-1.509406 -0.07264,-2.208459 -0.07231,-0.220144 -0.168987,-0.464272 -0.232442,-0.692594 -0.0019,-0.0068 -0.05654,-0.130334 -0.04358,-0.130678 0.164817,-0.0044 0.32929,0.01744 0.493935,0.02614" />
    <path
       style="fill:none;stroke:#000000;stroke-width:0.264583px;stroke-linecap:butt;stroke-linejoin:miter;stroke-opacity:1"
       d="m -88.335093,93.617429 c -0.323883,-0.180125 -0.685044,-0.289466 -0.992045,-0.500034 -0.07529,-0.05164 -0.170484,-0.09181 -0.212205,-0.173137 -0.02506,-0.04885 -0.02679,-0.105757 -0.02905,-0.159486 -0.0093,-0.221514 0.003,-0.443212 0.01186,-0.664534 0.01487,-0.371305 0.03807,-0.742982 0.0252,-1.114656 -0.0046,-0.133794 -0.01964,-0.267231 -0.05043,-0.397951 -0.120757,-0.512696 -0.35696,-0.990507 -0.463699,-1.507292 -0.06981,-0.337991 -0.07535,-0.688352 -0.02017,-1.029218 0.07057,-0.435922 0.217451,-0.858232 0.250457,-1.300356 0.01159,-0.155251 0.0072,-0.312421 -0.02539,-0.465214 -0.07862,-0.368968 -0.277851,-0.70258 -0.336858,-1.076125 -0.02506,-0.158644 -0.0429,-0.318376 -0.06122,-0.477914 -0.107992,-0.940273 -0.143871,-1.886735 -0.213297,-2.83029 -0.02432,-0.330503 -0.136486,-0.645659 -0.253439,-0.953004 -0.114093,-0.299828 -0.222756,-0.603024 -0.284554,-0.919561 -0.04664,-0.238875 -0.09144,-0.478833 -0.160218,-0.712361 -0.01947,-0.06611 -0.021,-0.144436 -0.0676,-0.195729 -0.03288,-0.0362 -0.09656,-0.01227 -0.135616,0.0041 -0.112035,0.04706 -0.194731,0.142421 -0.261075,0.240828 -0.121145,0.179693 -0.206975,0.380838 -0.276024,0.58542 -0.0091,0.02711 -0.01796,0.05434 -0.0262,0.08174"
       id="path196"
       inkscape:path-effect="#path-effect198"
       inkscape:original-d="m -88.335093,93.617429 c -0.399693,-0.222277 -0.870982,-0.348211 -1.199073,-0.666824 -0.115274,-0.111946 0.08213,-1.738437 -0.02906,-2.260733 -0.167391,-0.786328 -0.582977,-1.379804 -0.537514,-2.299933 0.03066,-0.620583 0.310399,-1.22655 0.290547,-1.842561 -0.01535,-0.476218 -0.313846,-0.904716 -0.377711,-1.385186 -0.140849,-1.05964 -0.203862,-2.138815 -0.261496,-3.201612 -0.03653,-0.67369 -0.430443,-1.244708 -0.537514,-1.894829 -0.01431,-0.08698 -0.186293,-0.936686 -0.246968,-0.940882 -0.405807,-0.02808 -0.68214,0.926711 -0.682789,0.927814" />
    <path
       style="fill:none;stroke:#000000;stroke-width:0.264583px;stroke-linecap:butt;stroke-linejoin:miter;stroke-opacity:1"
       d="m -91.916668,80.052654 c 0.45281,-0.453767 0.937524,-0.875144 1.376283,-1.343014 0.101042,-0.107746 0.188681,-0.227966 0.294373,-0.331166 0.01145,-0.01118 0.0089,-0.02992 -0.003,-0.04019 -0.03896,-0.03357 -0.08957,-0.04821 -0.133702,-0.07356 -0.03736,-0.02146 -0.0578,-0.06104 -0.08238,-0.09469 -0.03534,-0.04838 -0.07267,-0.09679 -0.121583,-0.132415 -0.03355,-0.02443 -0.08001,-0.04073 -0.118891,-0.02173 -0.05006,0.02446 -0.09559,0.05763 -0.139622,0.09155 -0.142176,0.109523 -0.258573,0.24931 -0.354467,0.400278 -0.121081,0.190621 -0.212643,0.397942 -0.298154,0.60638 -0.106658,0.259984 -0.202587,0.524992 -0.329886,0.775943 -0.02796,0.05512 -0.05746,0.109468 -0.089,0.162622 z"
       id="path200"
       inkscape:path-effect="#path-effect202"
       inkscape:original-d="m -91.916668,80.052654 c 0.556885,-0.558059 1.164601,-1.069647 1.670656,-1.67418 0.04417,-0.05276 -0.109484,-0.08374 -0.159803,-0.13068 -0.05016,-0.04679 -0.177514,-0.307364 -0.319603,-0.22215 -0.672105,0.40309 -0.791282,1.353042 -1.19125,2.02701" />
    <path
       style="fill:none;stroke:#000000;stroke-width:0.264583px;stroke-linecap:butt;stroke-linejoin:miter;stroke-opacity:1"
       d="m -91.91667,80.052654 c -0.04621,-0.511094 0.165728,-0.992409 0.315989,-1.468548 0.08745,-0.2771 0.122802,-0.566916 0.123158,-0.857817 0.0017,-1.392232 -0.409077,-2.756977 -0.323953,-4.152324 0.109585,-1.796311 0.121007,-3.605989 0.413905,-5.383861 0.09652,-0.585876 0.248159,-1.163115 0.277346,-1.760093 0.07652,-1.56501 0.232858,-3.133325 0.151286,-4.698173 -0.01459,-0.279812 -0.214599,-0.516589 -0.207054,-0.800335 0.0074,-0.277387 0.0441,-0.553414 0.06908,-0.829795 0.138694,-1.534568 0.240371,-3.075503 0.207187,-4.61706 -0.0019,-0.09017 0.005,-0.338564 -0.14935,-0.223097 -0.132251,0.0989 -0.238257,-0.07547 -0.281964,-0.182968 -0.163531,-0.402205 -0.07517,-0.844387 -0.102473,-1.265384 -0.01081,-0.166636 -0.04465,-0.33757 -0.173362,-0.467023 -0.219053,-0.22032 -0.252511,-0.545812 -0.291932,-0.837152 -0.07475,-0.55242 -0.127464,-1.107443 -0.204184,-1.659759 -0.122266,-0.880209 -0.220333,-1.7656 -0.213941,-2.656867 0.0083,-1.158794 -0.03913,-2.330364 -0.344722,-3.457581 -0.228181,-0.841671 -0.38954,-1.719199 -0.817122,-2.487827 -0.292558,-0.525907 -0.740193,-0.959129 -0.938881,-1.540814 -0.06998,-0.204864 -0.105931,-0.41788 -0.107735,-0.637794 -0.0029,-0.351266 -0.09608,-0.69442 -0.190237,-1.03014 -0.188709,-0.672873 -0.408748,-1.33585 -0.582478,-2.013857 -0.23953,-0.934803 -0.710499,-1.796946 -0.874509,-2.754905 -0.205413,-1.199789 -0.06955,-2.421826 0.09149,-3.618358 0.119113,-0.88503 0.287166,-1.77055 0.27929,-2.665187 -0.0077,-0.87839 -0.306277,-1.71768 -0.598901,-2.535042 -0.194859,-0.544283 -0.430212,-1.08045 -0.53672,-1.649897 -0.08429,-0.45066 -0.06403,-0.913799 -0.182156,-1.361166 -0.268198,-1.015687 -0.653651,-2.00081 -0.800294,-3.049447 -0.06524,-0.466515 5.65e-4,-0.935347 0.02632,-1.401875 0.02104,-0.381034 -0.02207,-0.769315 -0.174592,-1.124394 -0.481971,-1.122022 -1.050705,-2.212343 -1.419833,-3.377672 -0.07667,-0.242061 -0.229434,-0.492069 -0.175829,-0.743256 0.03631,-0.170151 0.192973,-0.287616 0.314879,-0.401488 0.120071,-0.112158 0.245679,-0.218399 0.361964,-0.33459"
       id="path204"
       inkscape:path-effect="#path-effect206"
       inkscape:original-d="m -91.91667,80.052654 c -0.06769,-0.7214 0.413186,-1.39555 0.435824,-2.118487 0.0464,-1.481878 -0.40939,-2.883522 -0.319603,-4.377708 0.10315,-1.716538 0.161819,-3.52456 0.392242,-5.22713 0.08087,-0.597548 0.260043,-1.147381 0.290549,-1.751078 0.07982,-1.579478 0.142915,-3.216138 0.159801,-4.795883 0.0039,-0.36876 -0.248121,-0.528129 -0.203383,-0.993156 0.167156,-1.737516 0.296204,-3.374623 0.276021,-5.135647 -0.01064,-0.92719 -0.175437,0.0236 -0.435824,-0.574982 -0.178189,-0.409625 -0.05638,-0.980715 -0.116218,-1.411324 -0.05107,-0.367507 -0.173773,-0.202997 -0.334132,-0.601118 -0.101319,-0.251544 -0.180525,-1.069398 -0.203385,-1.280644 -0.119557,-1.10477 -0.343977,-2.229424 -0.334132,-3.34536 0.01032,-1.169188 0.0145,-2.417625 -0.305075,-3.567509 -0.232005,-0.834774 -0.415592,-1.769652 -0.813538,-2.548218 -0.285179,-0.55794 -0.752065,-0.952262 -0.95881,-1.55507 -0.240607,-0.701537 -0.05363,-0.495663 -0.174332,-1.123831 -0.161612,-0.841108 -0.507161,-1.656257 -0.697314,-2.495949 -0.202002,-0.891998 -0.674368,-1.743033 -0.857121,-2.62663 -0.448344,-2.167732 0.222242,-4.205338 0.319606,-6.35095 0.06548,-1.443093 -0.753131,-2.891414 -1.104085,-4.247036 -0.113387,-0.43797 -0.06487,-0.907016 -0.174331,-1.345986 -0.298331,-1.196419 -0.767509,-2.150181 -0.85712,-3.423761 -0.04945,-0.702744 0.181033,-1.435788 -0.05811,-2.116984 -0.182925,-0.52106 -1.885431,-4.041714 -1.641599,-4.377714 0.180954,-0.249353 0.435824,-0.435594 0.653735,-0.653391" />
    <path
       style="fill:none;stroke:#000000;stroke-width:0.264583px;stroke-linecap:butt;stroke-linejoin:miter;stroke-opacity:1"
       d="m -98.977,12.007108 c -0.487998,-0.380369 -1.018428,-0.707657 -1.46628,-1.139001 -0.091,-0.08769 -0.13145,-0.212395 -0.16311,-0.331033 -0.0847,-0.3175 -0.11842,-0.6455141 -0.15981,-0.9706965 -0.032,-0.2512634 -0.0425,-0.5076114 -0.11024,-0.7521167 -0.0533,-0.1922785 -0.12479,-0.3791416 -0.19958,-0.5639225 -0.30376,-0.7504778 -0.69808,-1.4645111 -0.93265,-2.2429195 -0.12216,-0.4053789 -0.10347,-0.8402888 -0.24046,-1.2417229 -0.2052,-0.6012999 -0.45202,-1.188165 -0.72904,-1.7596433 -0.20642,-0.425837 -0.41733,-0.8524172 -0.68477,-1.2434576 -0.26902,-0.3933457 -0.64691,-0.7004343 -0.89414,-1.1105531 -0.11846,-0.196508 -0.18043,-0.42014314 -0.22879,-0.64245985 -0.12885,-0.5923678 -0.13532,-1.20111915 -0.21721,-1.80023945 -0.26478,-1.9371101 -0.38091,-3.8930381 -0.38455,-5.8473733 -0.003,-1.4245346 0.006,-2.8537613 0.16575,-4.2689743 0.0254,-0.225235 0.35432,-0.802629 0.18693,-0.64493 -0.0297,0.02794 -0.0484,0.0751 -0.068,0.113634 -0.0668,0.130829 -0.13217,0.262508 -0.19345,0.396008"
       id="path208"
       inkscape:path-effect="#path-effect210"
       inkscape:original-d="m -98.977,12.007108 c -0.493934,-0.38487 -1.04164,-0.709247 -1.4818,-1.154609 -0.27806,-0.281335 -0.30154,-1.681123 -0.43583,-2.1039181 -0.30396,-0.9569884 -0.86839,-1.8343227 -1.13314,-2.8095755 -0.0959,-0.3531449 -0.10076,-0.8133696 -0.21791,-1.1630379 -0.29305,-0.8746996 -0.89492,-2.2143511 -1.39464,-2.9794578 -0.31659,-0.4847389 -0.85671,-0.8650137 -1.04597,-1.42438889 -0.22363,-0.66096012 -0.20999,-1.39352261 -0.30508,-2.07778001 -0.25201,-1.8135351 -0.36535,-3.6113717 -0.39224,-5.4492734 -0.0232,-1.5843503 0.0545,-3.1827274 0.15981,-4.7305474 0.0157,-0.230366 0.18885,-0.435556 0.18885,-0.666455 0,-0.03946 -0.25856,0.497493 -0.26149,0.509642" />
    <path
       style="fill:none;stroke:#000000;stroke-width:0.264583px;stroke-linecap:butt;stroke-linejoin:miter;stroke-opacity:1"
       d="m 189.28582,249.89904 c -0.0957,-1.76987 -0.79442,-3.43352 -0.93643,-5.20098 -0.0238,-0.29672 0.007,-0.59428 0.078,-0.88333 0.0897,-0.36515 0.16409,-0.73747 0.13459,-1.11847 -0.0772,-0.99645 -0.63866,-1.87555 -0.74747,-2.86506 -0.0828,-0.75308 -0.1004,-1.50736 -0.10799,-2.26691 -0.002,-0.19406 -0.18603,-0.29389 -0.3385,-0.3705 -0.18655,-0.0937 -0.38916,-0.18243 -0.4986,-0.37865 -0.34776,-0.62354 -0.60526,-1.29224 -0.85799,-1.95885 -0.17801,-0.46953 -0.26055,-0.96679 -0.32235,-1.4636 -0.0496,-0.39891 -0.0521,-0.80792 -0.16031,-1.19589 -0.22364,-0.80167 -0.82759,-1.43803 -1.02051,-2.25272 -0.1583,-0.6685 -0.16918,-1.36565 -0.39826,-2.02051 -0.3199,-0.91448 -0.7527,-1.78254 -1.15205,-2.66805 -0.0641,-0.14211 -0.2118,-0.19996 -0.31093,-0.31133 -0.22006,-0.24724 -0.38873,-0.53675 -0.54191,-0.82845 -0.42492,-0.80917 -0.77631,-1.66396 -0.97754,-2.55517 -0.0946,-0.41906 -0.10965,-0.85237 -0.0506,-1.28667 0.0172,-0.12621 0.10426,-0.31239 -0.009,-0.3933 -0.11752,-0.0837 -0.32135,-0.0393 -0.3819,-0.20537 -0.22171,-0.60802 -0.11473,-1.26494 -0.16023,-1.89632 -0.024,-0.33321 -0.0744,-0.68209 -0.28067,-0.9607 -0.25785,-0.34821 -0.63042,-0.61111 -0.79574,-1.02731 -0.21354,-0.5376 -0.185,-1.15046 -0.48215,-1.65902 -0.11707,-0.20036 -0.31405,-0.33772 -0.53001,-0.41466 -0.29826,-0.10626 -0.53121,-0.33926 -0.68496,-0.61086 -0.33977,-0.60022 -0.46926,-1.28776 -0.59931,-1.95683 -0.26927,-1.38531 -0.48914,-2.80495 -0.34112,-4.21654 0.0546,-0.52022 0.14667,-1.04151 0.35083,-1.52733 0.1755,-0.41761 0.35754,-0.85265 0.33586,-1.31688 -0.0363,-0.77785 -0.40912,-1.50145 -0.38653,-2.28835 0.0177,-0.61759 0.13572,-1.24089 -0.008,-1.85683 -0.14585,-0.62378 -0.41366,-1.21823 -0.50175,-1.85429 -0.0674,-0.48655 -0.0725,-0.98352 -0.2312,-1.45649 -0.62909,-1.87427 -1.58033,-3.64237 -2.02986,-5.57104 -0.16692,-0.71616 -0.007,-1.44892 0.0807,-2.16356 0.0524,-0.42522 0.0444,-0.85587 -0.0221,-1.28016 -0.29537,-1.88457 -1.23001,-3.60563 -1.47101,-5.50255 -0.22125,-1.74149 0.14001,-3.50698 -0.14607,-5.24272 -0.16903,-1.02555 -0.15309,-2.09745 -0.49703,-3.07842 -0.0686,-0.19566 0.11228,-0.34139 0.25903,-0.43399 0.17964,-0.11335 0.38027,-0.18632 0.57275,-0.27388"
       id="path220"
       inkscape:path-effect="#path-effect222"
       inkscape:original-d="m 189.28582,249.89904 c -0.0977,-1.84355 -0.92528,-3.59876 -0.94427,-5.46235 -0.005,-0.51547 0.24632,-1.01361 0.23243,-1.52893 -0.031,-1.14909 -0.60994,-1.94693 -0.75543,-3.0448 -0.0889,-0.67116 0.0138,-1.75203 -0.13076,-2.3914 -0.0585,-0.25881 -0.62034,-0.33078 -0.76994,-0.57499 -0.33925,-0.55383 -0.79145,-1.66191 -1.0024,-2.32606 -0.22881,-0.72035 -0.23175,-1.45937 -0.34867,-2.1954 -0.12104,-0.76219 -0.79404,-1.5053 -1.01692,-2.2738 -0.19363,-0.66769 -0.16796,-1.37837 -0.39222,-2.03857 -0.28599,-0.84188 -0.65151,-1.80592 -1.07506,-2.58743 -0.45124,-0.83264 -0.1919,-0.0535 -0.79899,-1.04542 -0.31231,-0.51029 -0.66333,-1.30999 -0.85711,-1.88176 -0.20164,-0.59488 -0.4399,-1.30644 -0.40677,-1.94711 0.0114,-0.21943 0.11226,-0.4351 0.0872,-0.65339 -0.018,-0.1556 -0.34864,-0.0898 -0.40677,-0.23522 -0.31575,-0.79034 -0.0326,-1.75838 -0.27601,-2.56128 -0.12534,-0.41342 -0.62077,-0.75218 -0.8426,-1.0977 -0.37597,-0.58564 -0.26278,-1.46138 -0.66825,-1.99937 -0.24064,-0.31928 -0.4657,-0.2835 -0.75544,-0.48351 -0.60008,-0.41426 -0.83434,-1.56831 -0.97332,-2.26073 -0.34177,-1.70267 -0.61603,-3.63666 -0.21792,-5.33167 0.12695,-0.54054 0.4648,-1.04477 0.52298,-1.59427 0.0832,-0.78547 -0.35245,-1.58328 -0.37772,-2.37834 -0.0196,-0.61976 0.15452,-1.29297 0.0291,-1.89483 -0.12398,-0.59481 -0.35467,-1.18232 -0.49392,-1.77722 -0.12086,-0.51648 -0.0669,-1.06546 -0.23244,-1.56814 -0.62153,-1.88693 -1.49788,-3.68734 -2.04838,-5.60609 -0.29728,-1.03626 0.19968,-2.18723 0.0727,-3.25388 -0.22561,-1.89413 -1.16221,-3.6224 -1.46728,-5.48847 -0.30085,-1.84018 0.0849,-3.62266 -0.17433,-5.44928 -0.0274,-0.19277 -0.55978,-3.24957 -0.52297,-3.33229 0.12422,-0.27936 0.59343,-0.43264 0.84256,-0.54884" />
    <path
       style="fill:none;stroke:#000000;stroke-width:0.264583px;stroke-linecap:butt;stroke-linejoin:miter;stroke-opacity:1"
       d="m 173.1175,173.0865 c -0.25258,-0.68832 -0.54278,-1.36499 -0.73482,-2.074 -0.14701,-0.54277 -0.17258,-1.11366 -0.0985,-1.67011 0.0528,-0.39626 0.11522,-0.79421 0.23331,-1.17619 0.1465,-0.47389 0.55123,-0.90531 0.48589,-1.40652 -0.0132,-0.10125 0.0508,-0.35041 -0.069,-0.33214 -0.12452,0.019 -0.23831,-0.0128 -0.3592,-0.0526 -0.21188,-0.0697 -0.41413,-0.18262 -0.55135,-0.3645 -0.28738,-0.38092 -0.39921,-0.85583 -0.52534,-1.30734 -0.0848,-0.30344 -0.12673,-0.62989 -0.29183,-0.90057 -0.11826,-0.19389 -0.39691,-0.28103 -0.4288,-0.52244 -0.0613,-0.46433 0.11166,-0.91592 0.28952,-1.33564 0.23059,-0.54416 0.53077,-1.06575 0.66065,-1.64731 0.0705,-0.31558 0.0416,-0.65863 -0.12826,-0.94165 -0.32401,-0.53997 -0.84899,-0.91053 -1.25291,-1.38397 -0.11906,-0.13955 -0.53312,-0.46304 -0.35402,-0.42247 0.0457,0.0104 0.10323,0.0183 0.0549,-0.0571 -0.1951,-0.30437 -0.43265,-0.57899 -0.66029,-0.85911 -0.29246,-0.35989 -0.63951,-0.67009 -0.94222,-1.02047 -0.38123,-0.44127 -0.6305,-0.98022 -0.8122,-1.52813 -0.24906,-0.75105 -0.50211,-1.50391 -0.66839,-2.27765 -0.0428,-0.19921 -0.0981,-0.40127 -0.0654,-0.60814 0.0227,-0.14429 -0.008,-0.33319 0.10927,-0.42696 0.15256,-0.12194 0.17765,-0.3281 0.20478,-0.50772 0.1005,-0.66547 -0.0547,-1.34857 0.0999,-2.00749 0.13295,-0.56668 0.46568,-1.08669 0.47116,-1.68061 0.003,-0.34669 -0.12459,-0.67875 -0.27167,-0.98635 -0.47785,-0.99934 -1.25657,-1.80641 -1.83133,-2.7461 -0.16509,-0.26991 -0.29168,-0.56577 -0.33735,-0.88081 -0.093,-0.64138 -0.38685,-1.22527 -0.64778,-1.81035 -0.16544,-0.37097 -0.28284,-0.76058 -0.37217,-1.15733 -0.14007,-0.6221 -0.30226,-1.24719 -0.31024,-1.88924 -0.003,-0.22218 0.0568,-0.43793 0.14474,-0.64156 0.29521,-0.68396 0.70309,-1.32995 0.85319,-2.06842 0.0565,-0.27793 0.0733,-0.58393 -0.0588,-0.83705 -0.0356,-0.0681 -0.0835,-0.29065 -0.12843,-0.22479 -0.0387,0.0567 -0.0339,0.28381 -0.0497,0.23319 -0.0687,-0.21978 -0.11766,-0.44685 -0.1499,-0.67473 -0.0826,-0.58398 0.15978,-1.16253 0.062,-1.74495 -0.0657,-0.39131 -0.28663,-0.7412 -0.5519,-1.02782 -0.24722,-0.26711 -0.54341,-0.50125 -0.70005,-0.84015 -0.20002,-0.43275 -0.21957,-0.91693 -0.25436,-1.38405 -0.0927,-1.24456 -0.1,-2.4976 0.01,-3.74033 0.0791,-0.89428 0.36712,-1.76472 0.32725,-2.672 -0.0292,-0.66377 -0.30937,-1.27581 -0.45761,-1.91531 -0.11157,-0.48131 -0.053,-0.97691 -0.1005,-1.46601 -0.0186,-0.19173 -0.10254,-0.36541 -0.18344,-0.53788 -0.7594,-1.61906 -1.15542,-3.37228 -1.60348,-5.09461 -0.14673,-0.56403 -0.26076,-1.13981 -0.46654,-1.68515 -0.11214,-0.29719 -0.3793,-0.50947 -0.45338,-0.82743 -0.0907,-0.38952 -0.0581,-0.80482 -0.22995,-1.17711 -0.22884,-0.49568 -0.53871,-0.96072 -0.68751,-1.48704 -0.0185,-0.0653 -0.0494,-0.13492 -0.0341,-0.20378"
       id="path224"
       inkscape:path-effect="#path-effect226"
       inkscape:original-d="m 173.1175,173.0865 c -0.81716,-2.17165 -1.13114,-2.68391 -0.63995,-4.77532 0.14568,-0.62026 0.6335,-1.2178 0.50848,-1.84255 -0.0172,-0.0864 -0.17907,-0.008 -0.26149,-0.0392 -0.19624,-0.0743 -0.41055,-0.13408 -0.56658,-0.27442 -0.55906,-0.50289 -0.64873,-1.71716 -0.92977,-2.313 -0.10237,-0.21711 -0.41563,-0.3244 -0.45035,-0.56192 -0.17436,-1.19374 1.39375,-2.7312 0.8862,-3.80273 -0.2494,-0.52651 -0.83106,-0.96731 -1.22031,-1.39825 -1.11234,-1.23146 0.35592,0.28148 -0.97335,-1.34599 -0.90331,-1.10596 -1.20232,-1.00849 -1.78686,-2.50901 -0.15436,-0.39623 -0.82691,-2.59942 -0.79902,-2.88799 0.089,-0.9202 0.18645,-0.3006 0.31962,-1.01929 0.10385,-0.56059 -0.01,-1.28345 0.0726,-1.8687 0.10506,-0.74753 0.66471,-1.45022 0.46487,-2.23459 -0.3215,-1.26197 -1.51538,-2.37635 -2.13553,-3.50217 -0.30869,-0.56037 -0.20781,-0.72301 -0.39225,-1.30678 -0.2517,-0.7966 -0.68344,-1.42752 -0.85712,-2.26073 -0.1217,-0.58395 -0.49434,-1.87187 -0.27601,-2.48288 0.28797,-0.80591 1.18462,-2.07789 0.91522,-2.96639 -0.33369,-1.10064 -0.0645,0.73066 -0.34867,-0.66646 -0.17004,-0.83622 0.29255,-1.53125 -0.10168,-2.313 -0.51003,-1.01144 -1.15543,-0.85797 -1.30746,-2.20846 -0.15198,-1.3499 -0.14888,-2.87363 -0.0581,-4.2209 0.0758,-1.12496 0.49265,-2.04089 0.29054,-3.20161 -0.10192,-0.58532 -0.36442,-1.14332 -0.45035,-1.73802 -0.0572,-0.39558 0.0351,-1.21094 -0.15981,-1.60734 -1.04481,-2.12483 -1.44976,-4.62213 -2.13553,-6.8998 -0.0903,-0.29997 -0.34555,-0.49801 -0.43582,-0.75793 -0.13015,-0.37462 -0.0683,-0.79882 -0.21791,-1.18917 -0.11962,-0.31205 -0.84193,-1.63074 -0.76997,-1.80335" />
    <path
       style="fill:none;stroke:#000000;stroke-width:0.264583px;stroke-linecap:butt;stroke-linejoin:miter;stroke-opacity:1"
       d="m 159.30133,107.08851 c -0.37894,-0.24318 -0.85436,-0.4051 -1.0973,-0.80319 -0.19975,-0.32732 -0.13584,-0.73246 -0.20489,-1.09977 -0.0421,-0.22379 -0.11379,-0.53286 -0.3295,-0.59543 -0.16373,-0.0475 -0.27601,-0.10581 -0.35131,-0.30364 -0.10343,-0.27174 -0.16286,-0.558 -0.14459,-0.85156 0.0179,-0.28765 -0.0175,-0.60741 -0.26419,-0.8087 -0.1565,-0.12772 -0.36144,0.11522 -0.48312,-0.149 -0.19796,-0.42987 -0.29782,-0.89902 -0.38129,-1.36194 -0.0783,-0.43447 -0.22522,-0.87252 -0.18245,-1.315138 0.0424,-0.438234 0.2829,-0.883685 0.10752,-1.323425 -0.10346,-0.259405 -0.21325,-0.5156 -0.24477,-0.800246 -0.0769,-0.694859 -0.25412,-1.386984 -0.21144,-2.088383 0.0423,-0.695225 0.46467,-1.404381 0.23555,-2.074059 -0.0741,-0.216644 -0.11991,-0.4372 -0.16642,-0.662552 -0.15238,-0.738315 -0.0437,-1.496694 -0.12461,-2.24235 -0.041,-0.378049 -0.1047,-0.77177 -0.34929,-1.080342 -0.55012,-0.694022 -1.30592,-1.186457 -1.87461,-1.865359 -0.31449,-0.375441 -0.54037,-0.836467 -0.55957,-1.337713 -0.0126,-0.328399 0.10355,-0.769169 -0.1584,-0.975182 -0.15713,-0.123575 -0.17666,-0.368088 -0.21467,-0.557706 -0.12236,-0.610409 -0.11409,-1.243618 -0.33197,-1.837598 -0.40828,-1.113024 -1.12934,-2.133728 -1.25098,-3.33275 -0.0984,-0.969586 -0.098,-1.946047 -0.1137,-2.921088 -0.005,-0.29386 0.11809,-0.564167 0.17846,-0.846589 0.0825,-0.386023 -0.17258,-0.729143 -0.27499,-1.0851 -0.12951,-0.450135 -0.1757,-0.919955 -0.25466,-1.380864 -0.0847,-0.49443 -0.12033,-1.004002 -0.28376,-1.479298 -0.16981,-0.493861 -0.66277,-0.771945 -0.87518,-1.24341 -0.33226,-0.73749 -0.27442,-1.585289 -0.63568,-2.316488 -0.19667,-0.398069 -0.35425,-0.812578 -0.46717,-1.243704 -0.40493,-1.54605 -0.80518,-3.105224 -0.95405,-4.697357 -0.0741,-0.792143 -0.12189,-1.586458 -0.23882,-2.376602 -0.0339,-0.228939 -0.24365,-0.3494 -0.39008,-0.508699 -0.23492,-0.25556 -0.38871,-0.57619 -0.53171,-0.889229 -0.4256,-0.931649 -0.78133,-1.911813 -0.90748,-2.930424 -0.0751,-0.606338 -0.034,-1.219641 -6.7e-4,-1.82732 0.0655,-1.195272 0.14017,-2.394613 0.0273,-3.590978 -0.1375,-1.457783 -0.41059,-2.899292 -0.504,-4.36248 -0.0382,-0.598553 -0.22493,-1.178578 -0.26487,-1.777116 -0.0874,-1.309014 0.0895,-2.672157 -0.30743,-3.925098 -0.0559,-0.176368 -0.0399,-0.625689 -0.22963,-0.544065 -0.0882,0.03795 -0.1078,0.200459 -0.1092,0.01995 -0.0235,-3.042438 -0.49751,-6.06699 -0.46514,-9.108972 0.0109,-1.028095 0.14704,-2.089042 -0.19986,-3.084925 -0.38079,-1.093173 -1.02187,-2.081027 -1.36308,-3.187127 -0.28867,-0.93577 -0.22753,-1.932374 -0.46845,-2.87916 -0.0976,-0.383753 -0.12084,-0.786077 -0.24398,-1.161789 -0.11381,-0.34725 -0.48294,-0.518901 -0.58541,-0.884524 -0.16395,-0.585017 -0.0604,-1.211486 -0.28555,-1.788084 -0.13494,-0.345531 -0.27579,-0.700161 -0.25751,-1.079927 0.0118,-0.244677 -0.0665,-0.45934 -0.15358,-0.690954 -0.33011,-0.877889 -0.52694,-1.800578 -0.67904,-2.72346 -0.0749,-0.454209 -0.13866,-0.911939 -0.0823,-1.376864 0.0602,-0.49722 0.26697,-1.001125 0.15039,-1.500484 -0.25516,-1.0929265 -0.80607,-2.1183238 -0.83337,-3.2625328 -0.0194,-0.8119194 0.0579,-1.6346426 -0.13839,-2.4344612 -0.36192,-1.4746782 -0.85836,-2.9126299 -1.23342,-4.38375107 -0.21297,-0.83533481 -0.48457,-1.67531353 -0.48691,-2.54159063 -0.001,-0.4889373 0.14219,-0.9641821 0.27293,-1.430484 0.19815,-0.7067088 0.35413,-1.4291275 0.37019,-2.1672761 0.0269,-1.2388506 -0.0524,-2.4750844 0.13049,-3.7192732 0.0885,-0.601758 -0.0985,-1.20715 -0.33509,-1.750409 -0.1094,-0.251163 -0.19293,-0.517563 -0.37873,-0.729453 -0.085,-0.0969 -0.15814,-0.314821 0.0609,-0.279542"
       id="path232"
       inkscape:path-effect="#path-effect234"
       inkscape:original-d="m 159.30133,107.08851 c -0.89194,-0.52784 -1.23534,-0.63231 -1.30762,-1.58164 -0.0116,-0.15232 0.0388,-0.3205 -0.029,-0.45738 -0.53399,-1.07711 -0.41236,0.0881 -0.75544,-1.11076 -0.11023,-0.38516 0.08,-0.87963 -0.17434,-1.18917 -0.37528,-0.45674 -0.3988,0.20735 -0.65373,-0.3659 -0.16354,-0.36779 -0.50488,-1.95311 -0.52297,-2.430606 -0.0156,-0.408954 0.20965,-0.807583 0.17433,-1.215303 -0.0276,-0.318733 -0.2571,-0.596572 -0.29057,-0.914744 -0.0644,-0.612881 -0.2141,-1.392912 -0.23243,-1.986312 -0.0233,-0.75788 0.3184,-1.513474 0.24696,-2.273794 -0.0124,-0.131549 -0.0775,-0.252646 -0.11621,-0.378966 -0.0436,-0.296203 -0.11805,-0.589486 -0.13075,-0.888608 -0.0334,-0.787395 0.0354,-1.473721 -0.14526,-2.260732 -0.22812,-0.993508 -2.19541,-1.882691 -2.61496,-3.21468 -0.11496,-0.364985 -0.0483,-0.76603 -0.13073,-1.136896 -0.14933,-0.671608 -0.0826,0.0021 -0.27604,-0.718733 -0.16359,-0.609618 -0.10681,-1.219911 -0.30506,-1.816422 -0.3909,-1.176121 -1.17576,-2.313969 -1.32202,-3.554442 -0.0836,-0.70875 -0.17629,-2.440821 -0.0872,-3.162408 0.0323,-0.261501 0.18349,-0.507672 0.17433,-0.771002 -0.0106,-0.302484 -0.28519,-0.761097 -0.34866,-1.084624 -0.15868,-0.808821 -0.24974,-1.643203 -0.4213,-2.443684 -0.14108,-0.658291 -0.4907,-0.746977 -0.84259,-1.293707 -0.37209,-0.578112 -0.35293,-1.529363 -0.59561,-2.169258 -0.16978,-0.447606 -0.39214,-0.785489 -0.523,-1.267576 -0.42555,-1.567683 -0.79473,-3.249234 -1.01692,-4.848154 -0.0724,-0.520808 -0.0984,-2.333601 -0.33412,-2.731172 -0.0976,-0.164602 -0.29792,-0.247726 -0.40677,-0.405103 -0.63185,-0.913421 -1.36864,-3.044955 -1.38012,-4.181695 -0.0122,-1.205865 0.13076,-2.416778 0.13076,-3.632851 0,-1.506235 -0.31332,-3.066671 -0.4794,-4.560662 -0.10742,-0.966182 -0.0878,-1.89716 -0.34867,-2.835712 -0.0559,-0.201189 -0.1615,-5.400103 -0.65373,-4.403849 -0.0171,-2.999978 -0.40654,-5.958621 -0.46488,-8.950729 -0.0182,-0.931428 0.13573,-1.933355 -0.0581,-2.848778 -0.21061,-0.994577 -1.08334,-2.499779 -1.45274,-3.528307 -0.30395,-0.846274 -0.26597,-1.690673 -0.4213,-2.561289 -0.0938,-0.525789 -0.24298,-0.977517 -0.3196,-1.528936 -0.0578,-0.416028 -0.45225,-0.524978 -0.5811,-0.901677 -0.16895,-0.493904 -0.0969,-0.954346 -0.18886,-1.450527 -0.0811,-0.437951 -0.31928,-0.794629 -0.37771,-1.241443 -0.001,-0.0098 -0.008,-0.6418 -0.0291,-0.679524 -0.39556,-0.7116 -0.80623,-2.80437 -0.91523,-3.711253 -0.0862,-0.717327 0.30839,-1.593077 0.17433,-2.169258 -0.19606,-0.8426315 -0.58974,-1.6644652 -0.75543,-2.509018 -0.18446,-0.9402809 0.0261,-1.9043962 -0.14527,-2.8487776 -0.2958,-1.6297535 -1.99185,-6.2595675 -1.77235,-7.5923936 0.14565,-0.8843873 0.48157,-1.727575 0.5811,-2.6004936 0.16123,-1.4140019 -0.18503,-2.9296458 0.15981,-4.3254423 0.1639,-0.6634179 -0.26056,-1.6929119 -0.52299,-2.2999339 -0.0682,-0.157739 -0.2615,-0.272455 -0.2615,-0.444304 0,-0.08981 0.0618,-0.06171 0.14528,-0.07841" />
    <path
       style="fill:none;stroke:#000000;stroke-width:0.264583px;stroke-linecap:butt;stroke-linejoin:miter;stroke-opacity:1"
       d="m 120.94873,-11.789001 c -0.22779,0.130965 -0.54106,0.171393 -0.684,0.39285 -0.10947,0.169601 -0.11494,0.382629 -0.13841,0.57748 -0.0416,0.345585 -0.0359,0.696583 -0.1317,1.0356352 -0.1551,0.5488979 -0.3681,1.0881956 -0.38999,1.6681136 -0.0534,1.4155679 0.1823,2.818426 0.24132,4.230208 0.0562,1.343857 0.11117,2.6893465 0.082,4.03421405 -0.0201,0.92553655 -0.12787,1.86453075 0.0573,2.77949095 0.27022,1.3348285 1.0056,2.5145486 1.35441,3.8240419 0.24136,0.9061182 0.23481,1.8614696 0.51025,2.7591836 0.2496,0.8134817 0.73664,1.5458127 0.89493,2.3861477 0.0935,0.49647 0.0673,1.006159 0.18532,1.501047 0.27935,1.171018 0.65391,2.318052 0.88079,3.5023 0.31227,1.629952 0.51018,3.293238 1.07149,4.865004 0.94014,2.632534 2.22464,5.147997 2.88881,7.873482 0.18561,0.761664 0.36194,1.531504 0.41552,2.315285 0.11593,1.695908 -0.24943,3.370472 -0.36702,5.055556 -0.0581,0.83273 -0.022,1.667877 -0.001,2.501191 0.0237,0.94697 -0.008,1.897631 0.0799,2.840749 0.0458,0.492756 0.30548,0.967662 0.2017,1.470693 -0.15229,0.738133 -0.35276,1.466886 -0.59782,2.17912 -0.14422,0.419148 -0.26331,0.855815 -0.49572,1.235466 -0.66436,1.085253 -1.84143,1.823216 -2.31728,3.009788 -0.14129,0.352316 -0.1519,0.738217 -0.18197,1.111949 -0.0316,0.393392 -0.0417,0.792883 -0.16548,1.17331 -0.2735,0.840397 -0.70136,1.632401 -0.8395,2.515216 -0.14191,0.906899 -0.2091,1.828471 -0.16606,2.745257 0.0245,0.522935 0.0802,1.052732 0.27879,1.544349 0.59408,1.470978 1.62551,2.723364 2.19865,4.201089 0.18552,0.478328 0.2246,0.997333 0.36446,1.488018 0.0494,0.173349 0.23109,0.356859 0.13111,0.532089 -0.0322,0.05642 -0.21556,0.202353 -0.0498,0.147236 0.0368,-0.01223 0.0708,-0.03148 0.10793,-0.0427"
       id="path236"
       inkscape:path-effect="#path-effect238"
       inkscape:original-d="m 120.94873,-11.789001 c -0.22275,0.126322 -0.45783,0.23305 -0.66825,0.378966 -0.17312,0.12002 -0.17992,1.156798 -0.21792,1.345985 -0.12149,0.6046324 -0.41555,1.1717696 -0.45037,1.790289 -0.0763,1.35631 0.15481,2.6894411 0.21791,4.0379485 0.0637,1.3614903 0.10171,2.7271988 0.10171,4.09022496 0,0.94480484 -0.14153,2.13930414 0.0581,3.09706904 0.26016,1.2480893 0.89897,2.3546199 1.27841,3.5544397 0.27684,0.8753113 0.29419,1.7877229 0.49395,2.6789002 0.19818,0.8841936 0.70538,1.6715006 0.94428,2.5482196 0.1371,0.503209 0.0751,1.012641 0.18886,1.515867 0.24214,1.070992 0.59996,2.125187 0.82806,3.21468 0.35338,1.687968 0.52845,3.51862 1.10408,5.148712 1.1657,3.301066 2.7251,6.155963 3.28322,9.670172 0.34959,2.201463 -0.34547,4.480676 -0.31962,6.690717 0.0167,1.422072 0.0618,2.864046 0.10171,4.286234 0.014,0.499028 0.29826,0.996744 0.21791,1.502804 -0.096,0.604298 -0.73782,2.878831 -1.10411,3.47603 -0.65797,1.072779 -1.67984,1.859108 -2.29531,2.966394 -0.24374,0.438444 -0.18018,1.675043 -0.30509,2.116982 -0.21403,0.757282 -0.59574,1.46128 -0.79902,2.221524 -0.26472,0.990105 -0.43405,3.611459 -0.0726,4.586803 0.55187,1.489294 1.55885,2.780318 2.22271,4.273166 0.21077,0.473967 0.31118,1.059482 0.40675,1.568143 0.0373,0.198438 0.22733,0.403559 0.14528,0.588053 -0.0265,0.05945 -0.18103,0.150976 -0.1162,0.156808 0.0604,0.0054 0.1162,-0.03485 0.1743,-0.05227" />
    <path
       style="fill:none;stroke:#000000;stroke-width:0.264583px;stroke-linecap:butt;stroke-linejoin:miter;stroke-opacity:1"
       d="m 126.36766,65.663856 c 0.0223,0.958089 -0.17899,1.943653 0.13978,2.879918 0.13297,0.390544 0.34414,0.756696 0.66735,1.022303 0.31706,0.260556 0.58063,0.580139 0.74175,0.964684 0.29921,0.714111 0.51593,1.468854 0.97433,2.110791 0.93695,1.312087 2.27852,2.288293 3.17482,3.625113 0.56569,0.843724 0.4773,2.029152 1.24237,2.741007 1.05666,0.983161 2.28714,1.767375 3.28182,2.822845 0.56213,0.596484 0.75611,1.413056 0.92429,2.190019 0.14756,0.681722 0.43044,1.323737 0.70089,1.963307 0.17631,0.41695 0.44468,0.785193 0.76989,1.098365 0.28913,0.278428 0.4999,0.635521 0.55569,1.039511 0.0629,0.455436 0.13076,0.918899 0.37592,1.323958 0.48946,0.8087 1.39794,1.307893 1.80612,2.154999 0.29801,0.618461 0.34637,1.318919 0.42277,1.990438 0.0596,0.523953 0.17919,1.038892 0.39465,1.524872 0.45019,1.015417 1.02895,1.996644 1.1737,3.124865 0.23114,1.801629 -0.11379,3.617839 -0.0143,5.421309 0.0299,0.5425 0.12907,1.0757 0.13239,1.6233 0.007,1.19205 -0.18298,2.40581 0.0479,3.57743 0.11064,0.56146 0.19047,1.14972 0.46739,1.65494 0.14117,0.25755 0.27588,-0.33668 0.26691,-0.19027 -0.0348,0.567 -0.0831,1.14235 0.0667,1.70082 0.20067,0.74817 0.13435,1.53039 0.12551,2.29538 -0.0118,1.01875 -0.11767,2.05306 0.0703,3.05865 0.21976,1.17553 0.77827,2.24828 1.03316,3.41814 0.17065,0.78323 0.16097,1.62774 0.51121,2.3512 0.38735,0.80012 0.89758,1.5361 1.44637,2.2313 0.2818,0.35698 0.49486,0.77962 0.84139,1.07614 0.44222,0.3784 0.96052,0.64584 1.40102,1.03395 0.95735,0.84348 1.63893,1.95956 2.05849,3.16348 0.60572,1.73809 1.15618,3.57584 0.96469,5.42635 -0.12288,1.18745 -0.71074,2.27269 -0.73323,3.48869 -0.006,0.33418 0.17838,0.61318 0.36308,0.87329 0.28182,0.39689 0.37908,0.87677 0.4859,1.34257 0.2957,1.28942 0.70408,2.55693 0.90306,3.86479 0.15903,1.04528 -0.41074,2.0991 -0.16797,3.11836 0.0903,0.37921 0.47585,0.60171 0.53267,1.0033 0.0284,0.20108 0.1663,0.78642 0.0945,0.65187 -0.0617,-0.11574 -0.28958,-0.52532 -0.23906,-0.16207 0.0705,0.50719 0.0986,1.03773 0.30168,1.50751 0.26658,0.61661 0.75233,1.08191 1.06926,1.68395 0.20116,0.38212 0.46968,0.72746 0.58329,1.15651 0.18272,0.69003 0.24801,1.39925 0.41291,2.09681 0.13138,0.55576 0.049,1.21884 0.4064,1.66532 0.10923,0.13645 -0.0193,-0.40202 0.0932,-0.0834 0.45899,1.30022 0.32743,2.70886 0.10558,4.04188 -0.14001,0.84128 -0.29272,1.68415 -0.28241,2.54192 0.0122,1.01889 0.0712,2.04019 -0.0473,3.05684 -0.096,0.82313 -0.15295,1.65512 -0.0491,2.48205 0.24817,1.97562 1.06084,3.82124 1.55931,5.74162 0.20595,0.79344 -0.0677,1.64706 0.18057,2.42459 0.14304,0.44801 0.59892,0.66401 0.93987,0.94224 0.47745,0.38961 0.55439,1.04047 0.57515,1.61435 0.0196,0.54059 0.13565,1.10122 0.4985,1.52467 0.41038,0.47891 1.06879,0.67238 1.42729,1.20975 0.54283,0.81367 0.6074,1.83626 0.58702,2.78693 -0.0272,1.26996 -0.4715,2.47369 -0.90351,3.65335 -0.2153,0.5879 -0.52312,1.15807 -0.60476,1.77973 -0.0715,0.54416 0.046,1.10343 -0.0996,1.63886 -0.0655,0.24088 -0.15434,0.48419 -0.22654,0.72345 -0.1511,0.50074 -0.30387,1.01393 -0.32134,1.53588 -0.0136,0.40657 0.0393,0.8114 -0.053,1.21871 -0.16773,0.73985 -0.57443,1.46673 -0.48119,2.22834 0.0441,0.36037 0.1285,0.71267 0.10766,1.08322 -0.0501,0.89045 -0.18206,1.77227 -0.16979,2.67331 0.004,0.27615 0.23348,0.42546 0.3264,0.67296 0.31491,0.83877 0.18611,1.75426 0.15902,2.62925 -0.01,0.3198 -0.20162,0.70455 -0.0137,0.9631 0.17722,0.24381 0.46152,0.37718 0.56586,0.69669 0.27315,0.83641 0.5465,1.6843 0.65057,2.5584 0.24345,2.04471 -0.1979,4.09846 -0.11773,6.14421 0.0446,1.13786 0.32481,2.27222 0.22379,3.409 -0.007,0.0835 -0.0126,0.17028 -0.048,0.24765"
       id="path244"
       inkscape:path-effect="#path-effect246"
       inkscape:original-d="m 126.36766,65.663856 c -1.3e-4,1.499558 -0.26117,2.160913 0.34846,3.356388 0.25588,0.501766 0.81235,0.722913 1.07503,1.241438 0.35999,0.710607 0.49228,1.483476 0.9443,2.15619 0.92755,1.380503 2.22864,2.437855 3.23961,3.724322 0.6804,0.865815 0.56745,2.158294 1.40917,2.940254 0.92419,0.85861 2.91698,2.157899 3.54468,3.201612 0.52342,0.870296 0.48635,1.707822 0.84259,2.600492 0.22648,0.567488 0.43762,1.209958 0.78449,1.711883 0.21029,0.30431 0.65757,0.655677 0.82806,1.006223 0.23916,0.491715 0.15314,1.027817 0.3632,1.515867 0.38454,0.893591 1.34477,1.607257 1.91762,2.391407 0.43122,0.590296 0.42172,2.38936 0.68278,3.123203 0.41601,1.169419 1.15951,2.139688 1.33652,3.38456 0.27157,1.909718 0.0562,3.677075 0.0146,5.514615 -0.0103,0.46072 0.1248,0.93241 0.13076,1.39825 0.0161,1.26297 -0.0587,2.51355 0.0291,3.7766 0.0177,0.25491 0.3624,1.92096 0.61015,1.92096 0.11129,0 0.075,-0.21431 0.14529,-0.30056 -0.0146,0.3221 -0.047,0.64389 -0.0437,0.96631 0.005,0.50544 0.21182,0.96103 0.23244,1.47666 0.0552,1.37993 -0.0819,2.76238 0.0145,4.14249 0.0787,1.12631 0.63045,2.14829 0.92976,3.21468 0.26616,0.94828 0.35589,1.94045 0.62468,2.88799 0.18333,0.64628 1.67946,2.61859 2.13553,3.22774 0.30507,0.40748 0.92786,0.67573 1.30747,0.99315 1.08231,0.90501 1.80303,1.87761 2.28081,3.21468 0.62418,1.74678 1.14527,3.63891 1.04598,5.51462 -0.0657,1.24167 -1.00489,2.72333 -0.68279,3.95954 0.0632,0.24267 0.52469,0.69845 0.66826,1.33292 0.32029,1.41552 0.67632,2.79356 0.98786,4.19476 0.23591,1.06099 -0.18351,2.14677 -0.14527,3.20162 0.0158,0.437 0.42069,0.5931 0.52299,1.01928 0.53377,2.22381 -0.60645,-1.45266 0.13075,1.93404 0.12727,0.5847 0.83524,1.12022 1.0605,1.71188 0.14174,0.37231 0.41986,0.64496 0.55204,1.00622 0.27697,0.75701 0.2384,1.55519 0.47941,2.28687 0.0468,0.14206 0.52459,2.57147 0.4794,1.55507 0.64898,1.74126 0.25886,3.46666 -0.029,5.23906 -0.19865,1.2229 -0.0467,2.23161 -0.0726,3.47603 -0.0177,0.84718 -0.2138,1.85442 -0.18886,2.7181 0.0563,1.95028 0.88491,4.62976 1.58349,6.44243 0.29089,0.75479 -0.0295,2.29024 0.31961,2.75731 0.2993,0.40039 0.85217,0.60602 1.11861,1.04542 0.43703,0.72073 0.15742,1.62321 0.50846,2.36527 0.42796,0.90466 1.06753,0.87263 1.61255,1.52894 0.73788,0.88855 0.76829,2.52614 0.62468,3.65898 -0.2026,1.5981 -0.95203,2.99605 -1.40916,4.52146 -0.12781,0.42651 -0.0181,1.0714 -0.0872,1.5028 -0.33594,2.09942 -0.0769,-0.32989 -0.5811,2.43061 -0.065,0.35569 0.0466,0.72826 -0.0145,1.08463 -0.11688,0.68128 -0.50482,1.6559 -0.53752,2.3914 -0.0125,0.28118 0.10674,0.55505 0.11622,0.83635 0.0287,0.85101 -0.37843,2.47201 -0.13075,3.21467 0.036,0.10801 0.13559,0.18295 0.20339,0.27442 0.063,0.18731 0.1471,0.36878 0.18885,0.56193 0.2314,1.07046 0.004,2.09885 0.0145,3.17546 0.002,0.16758 0.41137,0.36524 0.49393,0.53579 0.2121,0.43809 0.68266,2.28746 0.74091,2.78344 0.24038,2.04701 1.7e-4,4.04793 -0.11622,6.08959 -0.0292,0.51204 0.37161,3.33099 0.17432,3.71127" />
    <path
       style="fill:none;stroke:#000000;stroke-width:0.264583px;stroke-linecap:butt;stroke-linejoin:miter;stroke-opacity:1"
       d="m 161.72724,220.51342 c 0.26258,0.81521 0.59446,1.60683 0.79824,2.44283 0.0282,0.11577 0.0321,0.23724 0.003,0.35364 -0.0794,0.31642 -0.3141,0.57858 -0.34962,0.90729 -0.0618,0.57173 0.0432,1.14325 0.14775,1.70339 0.0926,0.49627 0.18125,0.997 0.17471,1.50414 -0.0146,1.13423 -0.32457,2.24277 -0.32756,3.37763 -7e-4,0.26596 -0.0504,0.55353 0.0621,0.79473 0.11229,0.24067 0.2358,0.47611 0.3577,0.71208 0.28365,0.54906 0.54743,1.10921 0.85732,1.64392 0.40905,0.70581 0.81874,1.41525 1.1282,2.17201 0.25014,0.6117 0.36042,1.26682 0.47729,1.91381 0.0673,0.37274 0.12609,0.74874 0.23456,1.112 0.0995,0.33325 0.35028,0.59547 0.44605,0.93082 0.0514,0.17995 0.0551,0.36819 0.0693,0.55352 0.0351,0.45839 0.071,0.92271 0.003,1.37918 -0.0232,0.15576 0.036,0.43024 -0.11998,0.45699 -0.0357,0.006 -0.0134,-0.0961 -0.007,-0.13329 0.005,-0.0315 0.0138,-0.114 -0.003,-0.0385 -0.0915,0.41137 -0.25544,0.81242 -0.26121,1.23822 -0.007,0.49865 0.15056,0.97949 0.31592,1.44385 0.17277,0.48518 0.35848,0.97418 0.4036,1.49233 0.0837,0.96117 -0.0446,1.92262 -0.1549,2.87601 -0.0589,0.50885 -0.10194,1.01954 -0.12137,1.53162 -0.009,0.24224 -0.0795,0.54971 0.10084,0.72015 0.053,0.0501 0.13327,-0.0605 0.17013,0.0486 0.11694,0.34611 0.0982,0.71686 0.0992,1.07675 5e-4,0.17906 0.004,0.35878 0.0289,0.53634"
       id="path248"
       inkscape:path-effect="#path-effect250"
       inkscape:original-d="m 161.72724,220.51342 c 0.27117,0.84141 0.65712,1.65415 0.81357,2.52424 0.0733,0.40792 -0.31956,0.77701 -0.36319,1.18917 -0.10221,0.96523 0.28045,1.96258 0.31959,2.92718 0.0582,1.43408 -0.50697,3.02978 -0.26149,4.44306 0.008,0.0456 1.12313,2.19814 1.22031,2.36527 0.44749,0.76956 1.01775,1.75057 1.27841,2.60049 0.25308,0.82519 0.32216,1.68829 0.5375,2.52209 0.12431,0.48123 0.46369,0.69525 0.50848,1.24144 0.0448,0.54676 0.14838,1.53589 -0.0726,2.10391 -0.082,0.21082 0.0114,-0.31202 -0.0291,-0.13067 -0.0899,0.40431 -0.26149,0.85078 -0.26149,1.26757 0,0.98282 0.61629,1.87735 0.71186,2.82265 0.14515,1.43626 -0.21016,2.89373 -0.26152,4.32545 -0.0106,0.29391 -0.0403,0.60037 0.0872,0.87554 0.0316,0.0683 0.14441,-0.0262 0.15979,0.0131 0.1929,0.49161 0.0685,1.12471 0.14528,1.65959" />
  </g>
</svg>
