<?xml version="1.0" encoding="UTF-8" standalone="no"?>
<!-- Created with Inkscape (http://www.inkscape.org/) -->

<svg
   width="353.56799mm"
   height="264.16mm"
   viewBox="0 0 353.56799 264.16"
   version="1.1"
   id="svg5"
   inkscape:version="1.1.2 (08b2f3d93c, 2022-04-05)"
   sodipodi:docname="CistosDeRathke..svg"
   xmlns:inkscape="http://www.inkscape.org/namespaces/inkscape"
   xmlns:sodipodi="http://sodipodi.sourceforge.net/DTD/sodipodi-0.dtd"
   xmlns="http://www.w3.org/2000/svg"
   xmlns:svg="http://www.w3.org/2000/svg">
  <sodipodi:namedview
     id="namedview7"
     pagecolor="#ffffff"
     bordercolor="#666666"
     borderopacity="1.0"
     inkscape:pageshadow="2"
     inkscape:pageopacity="0.0"
     inkscape:pagecheckerboard="0"
     inkscape:document-units="mm"
     showgrid="false"
     inkscape:zoom="0.44319067"
     inkscape:cx="737.83142"
     inkscape:cy="535.88673"
     inkscape:window-width="1366"
     inkscape:window-height="704"
     inkscape:window-x="0"
     inkscape:window-y="27"
     inkscape:window-maximized="1"
     inkscape:current-layer="layer2" />
  <defs
     id="defs2">
    <inkscape:path-effect
       effect="simplify"
       id="path-effect69"
       is_visible="true"
       lpeversion="1"
       steps="1"
       threshold="0.000408163"
       smooth_angles="360"
       helper_size="0"
       simplify_individual_paths="false"
       simplify_just_coalesce="false" />
    <inkscape:path-effect
       effect="simplify"
       id="path-effect65"
       is_visible="true"
       lpeversion="1"
       steps="1"
       threshold="0.000408163"
       smooth_angles="360"
       helper_size="0"
       simplify_individual_paths="false"
       simplify_just_coalesce="false" />
    <inkscape:path-effect
       effect="simplify"
       id="path-effect61"
       is_visible="true"
       lpeversion="1"
       steps="1"
       threshold="0.000408163"
       smooth_angles="360"
       helper_size="0"
       simplify_individual_paths="false"
       simplify_just_coalesce="false" />
    <inkscape:path-effect
       effect="simplify"
       id="path-effect57"
       is_visible="true"
       lpeversion="1"
       steps="1"
       threshold="0.000408163"
       smooth_angles="360"
       helper_size="0"
       simplify_individual_paths="false"
       simplify_just_coalesce="false" />
  </defs>
  <g
     inkscape:groupmode="layer"
     id="layer2"
     inkscape:label="Cistos de Rathke">
    <path
       style="fill:none;stroke:#000000;stroke-width:0.264583px;stroke-linecap:butt;stroke-linejoin:miter;stroke-opacity:1"
       d="m 154.71512,191.23425 c -0.86103,-1.93827 -1.83937,-3.84808 -3.16856,-5.5107 -0.69411,-0.86823 -1.49361,-1.66078 -2.42465,-2.27593 -1.44254,-0.95311 -2.97589,-1.76209 -4.5361,-2.50267 -1.68293,-0.79883 -3.39356,-1.55606 -5.17547,-2.10652 -0.69132,-0.21356 -1.40218,-0.36832 -2.12753,-0.41281 -1.86391,-0.11433 -3.71017,0.23848 -5.53814,0.55246 -1.49305,0.25645 -3.00808,0.4459 -4.52683,0.36562 -1.95221,-0.10319 -3.89264,-0.51731 -5.85382,-0.37128 -1.39581,0.10393 -2.76429,0.48034 -4.04791,1.03112 -2.28937,0.98233 -4.24889,2.56119 -6.45269,3.7027 -1.23723,0.64085 -2.52226,1.18244 -3.79751,1.74165 -1.62511,0.71263 -3.23018,1.49329 -4.69477,2.50246 -0.5239,0.36099 -1.053,0.72985 -1.46359,1.22419 -0.58328,0.70226 -0.973519,1.54895 -1.608131,2.21045 -1.193886,1.24448 -2.216038,2.64205 -3.135155,4.09886 -0.888679,1.40857 -1.670527,2.88513 -2.617321,4.25578 -0.763258,1.10495 -1.744838,2.05712 -2.359436,3.26526 -0.792594,1.55804 -1.135527,3.29574 -1.33165,5.02008 -0.242125,2.1288 -0.249033,4.30605 -0.852042,6.37461 -0.24359,0.83561 -0.755571,1.59635 -0.814088,2.48052 -0.03136,0.47388 0.05331,0.94641 0.140244,1.4099 0.30002,1.59964 0.775877,3.168 1.420706,4.66121 0.450739,1.04376 0.9453,2.09219 1.683931,2.96425 0.84025,0.99204 1.969043,1.69001 3.143251,2.22148 1.401224,0.63422 2.870337,1.11779 4.220677,1.86489 3.350884,1.85394 6.507864,4.07552 10.037784,5.59242 1.74509,0.74991 3.58023,1.38211 5.48232,1.5058 1.24176,0.0807 2.46126,-0.40552 3.69684,-0.2606 1.45204,0.17031 2.89573,0.41844 4.35543,0.52151 1.26718,0.0895 2.56045,0.14402 3.80344,-0.12235 0.77933,-0.16701 1.48608,-0.5623 2.15985,-0.97273 1.84043,-1.12111 3.48965,-2.53565 5.36492,-3.5987 0.57485,-0.32587 1.17051,-0.65662 1.83009,-0.76783 0.36083,-0.0608 0.71978,0.0393 1.07356,0.0979 1.69123,0.27998 3.39914,0.61202 5.12177,0.49171 1.13147,-0.079 2.28047,-0.40318 3.17659,-1.12172 0.77537,-0.62172 1.35052,-1.45182 1.86084,-2.29348 1.09148,-1.80015 1.94959,-3.72883 2.7704,-5.66361 0.76633,-1.80635 1.41082,-3.66341 2.20928,-5.45557 0.58113,-1.30435 1.72576,-2.26212 2.27039,-3.58856 0.41939,-1.02142 0.41427,-2.14266 0.59356,-3.21696 0.22981,-1.37703 0.54675,-2.73757 0.83219,-4.1037 0.58595,-2.80436 1.19512,-5.61486 1.45505,-8.47093 0.11258,-1.23699 0.21052,-2.49381 0.0168,-3.72707 -0.0752,-0.479 -0.23494,-0.94587 -0.50348,-1.35577 -0.51582,-0.78735 -1.13135,-1.50203 -1.69107,-2.2573 z"
       id="path55"
       inkscape:path-effect="#path-effect57"
       inkscape:original-d="m 154.71512,191.23425 c -1.09216,-2.47119 -2.63549,-5.37864 -4.76591,-7.17521 -2.0878,-1.76063 -9.52725,-5.32954 -12.19074,-5.59576 -3.40041,-0.33988 -6.40747,0.90255 -9.73251,0.90255 -2.56277,0 -5.03376,-0.73074 -7.67565,-0.27077 -4.3174,0.75169 -6.6059,3.27591 -10.28435,5.00911 -3.1426,1.48071 -5.5738,2.25494 -8.37798,4.33218 -1.18418,0.8772 -1.4503,1.95917 -2.45823,3.0235 -2.486837,2.62601 -3.640391,5.09852 -5.518428,8.03264 -0.761005,1.18895 -1.797137,2.11764 -2.458209,3.38452 -1.895909,3.63331 -1.234914,7.62308 -2.207374,11.372 -0.280379,1.08088 -0.95773,1.93674 -0.852858,3.06865 0.225899,2.43818 1.747118,7.04565 3.461573,8.84489 1.953329,2.04993 4.559914,2.42746 6.97329,3.74554 4.856086,2.65218 9.882186,6.5435 15.501796,7.17519 1.33875,0.15049 2.81041,-0.38674 4.06357,-0.22563 2.78381,0.35788 4.89304,0.78306 7.82615,0.40616 2.59535,-0.3335 7.8689,-5.67952 9.93317,-5.37012 2.84698,0.42671 6.75145,1.46313 9.18069,-0.72203 2.51295,-2.26048 5.19848,-9.83734 6.57194,-13.13197 0.5075,-1.21737 1.57473,-2.16037 2.15722,-3.3394 0.58846,-1.1911 0.55277,-2.35236 0.75251,-3.61016 0.49949,-3.14538 3.58146,-14.7403 1.90636,-17.41904 -0.53606,-0.85724 -1.20402,-1.62456 -1.80603,-2.43684 z" />
    <path
       style="fill:none;stroke:#000000;stroke-width:0.264583px;stroke-linecap:butt;stroke-linejoin:miter;stroke-opacity:1"
       d="m 257.88798,103.48782 c -0.41121,0.40236 -0.72594,0.93705 -1.26369,1.18742 -0.32337,0.15056 -0.52482,-0.22186 -0.73143,-0.40294 -0.3775,-0.33086 -0.74584,-0.70959 -1.25325,-0.84137 -0.79474,-0.2064 -1.62216,-0.21636 -2.41817,-0.43251 -1.46336,-0.39737 -2.91176,-0.91198 -4.44437,-0.98559 -1.31633,-0.0632 -2.62569,0.13047 -3.9363,0.22495 -1.70251,0.12273 -3.4625,-0.27556 -5.11581,0.24867 -0.62142,0.19704 -1.17567,0.55889 -1.83701,0.66301 -2.33442,0.36752 -4.68026,0.83306 -7.04231,0.79541 -1.24776,-0.0199 -2.49235,-0.14239 -3.73034,-0.29087 -0.65992,-0.0791 -1.32429,-0.14724 -1.96241,-0.34986 -0.74399,-0.23624 -1.52259,-0.40917 -2.31391,-0.31478 -3.07114,0.36632 -6.00694,1.38983 -9.04772,1.92664 -1.21714,0.21487 -2.42753,0.72937 -3.66127,0.60135 -0.39627,-0.0411 -0.66382,-0.44655 -1.10188,-0.36209 -1.64102,0.31641 -3.21285,0.92905 -4.70421,1.67031 -1.32044,0.65631 -2.8908,1.15169 -3.73068,2.37081 -0.68833,0.99914 -1.37758,2.00155 -1.98162,3.05386 -0.77144,1.34394 -2.00208,2.31218 -3.03857,3.4376 -1.60371,1.74131 -4.01514,2.4936 -5.53917,4.31703 -1.02844,1.23048 -1.81003,2.63971 -2.62727,4.01282 -0.83592,1.4045 -1.64924,2.83372 -2.68255,4.10749 -0.41959,0.51723 -0.94623,0.93271 -1.52314,1.26488 -1.6327,0.94006 -3.4662,1.51412 -5.0312,2.56242 -0.28477,0.19075 -0.62746,0.37307 -0.73366,0.73424 -0.31793,1.0812 -0.37198,2.22854 -0.27195,3.34633 0.0339,0.37827 0.1382,0.74131 0.26042,1.10244 0.12946,0.38252 -0.0323,0.78328 -0.15299,1.1447 -0.34619,1.03628 -1.00123,2.04503 -0.87493,3.17124 0.0916,0.81706 0.41124,1.58135 0.56465,2.38815 0.41782,2.19733 0.84776,4.45697 0.5223,6.68787 -0.19759,1.35442 -0.54202,2.68687 -0.98476,3.98066 -0.25191,0.73614 -0.57164,1.45704 -1.07013,2.06663 -0.75963,0.92894 -1.68233,1.72647 -2.28807,2.77988 -0.67205,1.16873 -1.16169,2.44072 -1.99262,3.51876 -0.70078,0.90918 -1.43308,1.80524 -1.94326,2.84403 -0.72773,1.48176 -1.50776,2.96522 -1.91433,4.56587 -0.21699,0.85429 -0.11161,1.74307 -0.11978,2.61415 -0.006,0.628 -0.0254,1.28467 -0.36998,1.84538 -0.29474,0.47954 -1.14231,0.84072 -0.97354,1.37695 0.66014,2.09751 0.60822,4.31878 0.861,6.48202 0.11372,0.97319 0.11657,2.02231 0.60246,2.8757 0.31903,0.56033 0.82768,0.97869 1.30026,1.40477 0.86419,0.77917 1.84651,1.44154 2.59816,2.33307 1.11072,1.31743 1.51279,3.08687 2.6778,4.36684 0.35995,0.39547 0.78098,0.77268 1.33592,0.87109 0.31258,0.0554 0.63521,0.0569 0.92488,0.23409 2.04682,1.25234 4.39103,1.86559 6.70014,2.49435 0.86641,0.23592 1.54576,0.93882 2.43597,1.08766 0.78918,0.13195 1.60288,-0.051 2.38511,0.10538 0.77179,0.15433 1.4504,0.64964 2.26104,0.65067 0.87235,0.001 1.77713,0.0799 2.61074,-0.17767 0.50117,-0.15488 0.81734,-0.60659 1.28035,-0.84105 0.82186,-0.41618 1.73382,-0.64275 2.49298,-1.1888 1.10988,-0.79832 2.03471,-1.8579 3.2927,-2.44815 1.92941,-0.90527 4.08416,-1.11346 6.18161,-1.28097 0.73436,-0.0587 1.46812,-0.0973 2.2069,-0.0998 0.57808,-0.002 1.20092,0.10003 1.73413,-0.14385 0.67432,-0.30842 1.28054,-0.73712 1.94079,-1.07558 1.37508,-0.70491 2.84583,-1.35383 4.41563,-1.37662 1.76953,-0.0257 3.48477,0.49556 5.24067,0.63565 1.62723,0.12982 3.27328,0.13629 4.87114,0.53002 2.23815,0.55151 4.45726,1.23127 6.7644,1.45074 1.8163,0.17278 3.65299,0.072 5.46203,0.30188 0.83405,0.10598 1.66921,0.34816 2.52349,0.17791 2.36287,-0.47091 4.70373,-1.15182 7.1233,-1.25078 2.17892,-0.0891 4.37137,0.16704 6.53993,-0.0984 0.82503,-0.10099 1.64001,-0.27897 2.44269,-0.49101 0.92929,-0.24549 2.19493,-0.2579 2.65922,-1.11268 0.14534,-0.26758 0.21297,-0.54634 0.49492,-0.75723 0.83131,-0.6218 1.49483,-1.42836 2.26853,-2.11386 0.98021,-0.86847 2.18107,-1.45425 3.415,-1.86196 1.53761,-0.50805 3.1488,-0.76918 4.64877,-1.40513 0.95971,-0.40689 2.01897,-0.65873 2.84443,-1.30954 0.45424,-0.35813 0.84242,-0.81087 1.40921,-1.01678 0.94459,-0.34316 2.0249,-0.40251 2.84077,-1.02757 0.5562,-0.42612 0.77411,-1.14589 1.38385,-1.53925 0.40189,-0.25927 0.86918,-0.45127 1.18614,-0.8129 0.29344,-0.33479 0.082,-0.78739 0.25114,-1.1795 0.70482,-1.6337 1.76175,-3.11982 2.19313,-4.86975 0.39471,-1.60117 0.50731,-3.30634 1.31683,-4.77713 0.92902,-1.68791 2.55482,-2.83484 3.61023,-4.42766 0.82788,-1.24944 1.17009,-2.73576 1.85916,-4.05366 0.8012,-1.53235 2.09448,-2.81751 2.55533,-4.51258 0.45666,-1.67967 0.5532,-3.44167 0.44763,-5.17248 -0.18604,-3.05018 -0.91485,-6.05984 -2.0588,-8.88686 -0.4044,-0.99939 -1.15474,-1.85849 -1.3697,-2.92601 -0.24323,-1.20792 0.0615,-2.43417 -0.0675,-3.65335 -0.1685,-1.59274 -0.85208,-3.114 -0.84495,-4.71915 0.002,-0.52676 0.0661,-1.06456 -0.11646,-1.57652 -0.39935,-1.11988 -1.25167,-1.9906 -2.04624,-2.84327 -0.89427,-0.95966 -1.88843,-1.89701 -2.38098,-3.1436 -0.62497,-1.58171 -0.69997,-3.3625 -1.59015,-4.83929 -0.44024,-0.73035 -1.06189,-1.32928 -1.67877,-1.90871 -1.3787,-1.295 -2.8578,-2.48118 -4.39496,-3.58499 -0.67077,-0.48167 -1.42353,-0.82534 -2.18478,-1.1372 -1.31001,-0.53667 -2.85313,-0.71323 -3.91029,-1.6612 -0.75984,-0.68136 -1.36563,-1.53077 -2.17573,-2.15371 -1.45299,-1.11731 -3.23159,-1.67481 -4.97897,-2.13829 -0.91864,-0.24366 -1.80889,-0.61073 -2.74519,-0.77038 -0.31952,-0.0545 -0.82692,0.1836 -0.96605,-0.11282 -0.11809,-0.2516 0.30328,-0.49943 0.50137,-0.64099 0.65198,-0.46594 1.43063,-0.70286 2.11231,-1.11709"
       id="path63"
       inkscape:path-effect="#path-effect65"
       inkscape:original-d="m 257.88798,103.48782 c -0.39421,0.38682 -1.00473,1.29343 -1.50504,1.21843 -0.082,-0.0123 -1.04118,-1.02351 -1.42977,-1.1733 -0.73212,-0.28223 -1.5503,-0.25289 -2.3077,-0.42872 -1.28746,-0.29886 -2.61935,-0.83515 -3.98833,-1.01535 -1.40416,-0.18484 -3.03643,-0.0555 -4.43984,0.11282 -1.77794,0.21326 -3.66139,-0.21012 -5.44317,0.27076 -0.5228,0.14109 -1.10084,0.54927 -1.60537,0.63177 -2.397,0.39202 -4.77467,0.62716 -7.19905,0.83485 -0.73401,0.0629 -4.73733,-0.34886 -5.24251,-0.47383 -0.88663,-0.21932 -1.70146,-0.60692 -2.70907,-0.49639 -3.06136,0.33583 -5.92268,1.39439 -8.92982,1.89533 -1.2567,0.20934 -2.65901,0.58064 -3.888,0.65434 -0.37785,0.0227 -0.70989,-0.43978 -1.05352,-0.38358 -2.50706,0.41008 -6.61573,2.31829 -8.55357,4.06143 -0.0881,0.0792 -1.85994,2.84433 -2.03179,3.13633 -0.72552,1.23277 -1.92754,2.12091 -2.83446,3.18146 -1.61352,1.88684 -4.15886,2.64892 -5.76928,4.58039 -1.93083,2.31575 -3.95927,7.03302 -5.89469,8.70952 -1.34281,1.16317 -6.2934,2.97126 -6.57196,3.72298 -0.40688,1.09799 -0.47756,3.0191 -0.22576,4.15168 0.0615,0.27635 0.24958,0.52711 0.20068,0.83485 -0.20418,1.28571 -1.07861,2.40981 -1.07861,3.74555 0,0.66517 0.36924,1.54114 0.50168,2.21123 0.44202,2.23652 0.86167,4.73686 0.60201,6.99468 -0.14978,1.3024 -0.95715,4.46172 -1.65553,5.55062 -0.61383,0.95706 -1.52913,1.69293 -2.20738,2.59481 -0.87221,1.15979 -1.33574,2.66647 -2.18228,3.85836 -0.69329,0.97612 -1.49394,1.81207 -2.05688,2.88813 -0.69835,1.33489 -1.60603,3.44667 -2.08196,4.87372 -0.36806,1.10377 0.10539,3.38487 -0.35116,4.24194 -0.31293,0.58745 -0.75252,1.09809 -1.12878,1.64713 0.96114,3.09253 0.43028,6.17671 1.42978,9.2736 0.27787,0.86098 3.21041,2.90576 4.03849,3.94863 1.16048,1.46149 1.53284,3.45096 3.11039,4.76089 0.61651,0.51192 1.26497,0.29787 1.58028,0.49641 2.00375,1.26166 4.40715,2.1234 6.69738,2.54967 0.76682,0.14272 1.5804,0.81435 2.33279,1.06049 0.59796,0.19561 1.73337,0.0848 2.40805,0.13537 0.80906,0.0606 1.49469,0.64257 2.35788,0.67692 0.64504,0.0257 1.88894,-0.0486 2.65888,-0.15795 0.42854,-0.0609 0.78818,-0.53177 1.15386,-0.7446 0.72178,-0.42011 1.56808,-0.61224 2.25754,-1.01536 1.21457,-0.71016 2.09957,-1.87809 3.4114,-2.57224 2.26892,-1.2006 5.11682,-1.32473 7.65055,-1.53431 0.72543,-0.06 1.93592,0.0851 2.68397,-0.11282 0.33258,-0.088 1.37483,-0.76771 1.50502,-0.83485 1.80577,-0.93128 3.47848,-1.77398 5.5937,-1.64714 1.38898,0.0833 2.80731,0.44042 4.18899,0.58665 1.62785,0.17229 3.28581,0.0994 4.89134,0.47384 2.13605,0.49814 4.23392,1.19825 6.42146,1.46663 1.97562,0.24239 4.00102,0.22978 5.99502,0.36102 0.72089,0.0474 1.73578,0.39437 2.48331,0.24819 2.13266,-0.41704 4.33233,-1.02281 6.49669,-1.24099 2.34517,-0.23642 6.08057,0.15732 8.15224,-0.27077 1.35089,-0.27916 3.21666,-0.64031 4.33949,-1.46662 0.15485,-0.11396 0.12234,-0.47908 0.32609,-0.63179 2.1556,-1.6156 2.09844,-2.59836 5.21743,-3.88092 1.63886,-0.67391 3.46247,-0.84926 5.09203,-1.55688 0.92004,-0.39953 2.01335,-0.74704 2.85955,-1.26356 0.58196,-0.35523 0.81707,-0.84408 1.47994,-1.1056 0.92669,-0.3656 2.23903,-0.49877 3.01006,-1.10562 0.47797,-0.3762 0.63975,-1.02272 1.20401,-1.42151 0.0951,-0.0672 1.15794,-0.6854 1.32945,-0.90254 0.28959,-0.36662 0.0513,-0.70207 0.20067,-1.06047 0.53041,-1.2723 1.32017,-2.45936 1.8562,-3.76812 0.70973,-1.73287 0.68529,-3.7911 1.47994,-5.55062 0.80547,-1.78348 2.39634,-2.96986 3.56191,-4.49014 0.87864,-1.14603 1.29814,-2.54545 1.8562,-3.85836 0.83114,-1.95534 2.44898,-3.35748 2.93479,-5.48293 0.98295,-4.30047 -0.0796,-9.50283 -1.6806,-13.58324 -0.36004,-0.91762 -0.96786,-1.73425 -1.30436,-2.66249 -0.37389,-1.03139 -0.0728,-2.38604 -0.12543,-3.47478 -0.0843,-1.74356 -0.72618,-3.37031 -0.87792,-5.07679 -0.04,-0.45038 0.0649,-0.93119 -0.0251,-1.37638 -0.40238,-1.99109 -2.99629,-3.71876 -4.11374,-5.52806 -1.04137,-1.68611 -0.94261,-3.95405 -2.08196,-5.79882 -0.87963,-1.42424 -5.37189,-5.19602 -7.09872,-6.02446 -1.62987,-0.78193 -3.36033,-1.25408 -4.96658,-2.12097 -0.2315,-0.12494 -1.74746,-1.83993 -2.28262,-2.23379 -1.54184,-1.13475 -3.25625,-1.62524 -5.06695,-2.12097 -0.81871,-0.22415 -1.64489,-0.46597 -2.45821,-0.69947 -0.36588,-0.10504 -1.3428,0.003 -1.10368,-0.29332 0.64548,-0.79955 1.75587,-1.068 2.6338,-1.60201" />
  </g>
</svg>
