<?xml version="1.0" encoding="UTF-8" standalone="no"?>
<!-- Created with Inkscape (http://www.inkscape.org/) -->

<svg
   width="353.56799mm"
   height="264.16mm"
   viewBox="0 0 353.56799 264.16"
   version="1.1"
   id="svg5"
   inkscape:version="1.1.2 (08b2f3d93c, 2022-04-05)"
   sodipodi:docname="CondrócitosEmFileira.svg"
   xmlns:inkscape="http://www.inkscape.org/namespaces/inkscape"
   xmlns:sodipodi="http://sodipodi.sourceforge.net/DTD/sodipodi-0.dtd"
   xmlns="http://www.w3.org/2000/svg"
   xmlns:svg="http://www.w3.org/2000/svg">
  <sodipodi:namedview
     id="namedview7"
     pagecolor="#ffffff"
     bordercolor="#666666"
     borderopacity="1.0"
     inkscape:pageshadow="2"
     inkscape:pageopacity="0.0"
     inkscape:pagecheckerboard="0"
     inkscape:document-units="mm"
     showgrid="false"
     inkscape:zoom="0.47393378"
     inkscape:cx="700.5198"
     inkscape:cy="486.35486"
     inkscape:window-width="1366"
     inkscape:window-height="704"
     inkscape:window-x="0"
     inkscape:window-y="27"
     inkscape:window-maximized="1"
     inkscape:current-layer="layer2" />
  <defs
     id="defs2">
    <inkscape:path-effect
       effect="simplify"
       id="path-effect441"
       is_visible="true"
       lpeversion="1"
       steps="1"
       threshold="0.000408163"
       smooth_angles="360"
       helper_size="0"
       simplify_individual_paths="false"
       simplify_just_coalesce="false" />
    <inkscape:path-effect
       effect="simplify"
       id="path-effect437"
       is_visible="true"
       lpeversion="1"
       steps="1"
       threshold="0.000408163"
       smooth_angles="360"
       helper_size="0"
       simplify_individual_paths="false"
       simplify_just_coalesce="false" />
    <inkscape:path-effect
       effect="simplify"
       id="path-effect433"
       is_visible="true"
       lpeversion="1"
       steps="1"
       threshold="0.000408163"
       smooth_angles="360"
       helper_size="0"
       simplify_individual_paths="false"
       simplify_just_coalesce="false" />
    <inkscape:path-effect
       effect="simplify"
       id="path-effect429"
       is_visible="true"
       lpeversion="1"
       steps="1"
       threshold="0.000408163"
       smooth_angles="360"
       helper_size="0"
       simplify_individual_paths="false"
       simplify_just_coalesce="false" />
    <inkscape:path-effect
       effect="simplify"
       id="path-effect425"
       is_visible="true"
       lpeversion="1"
       steps="1"
       threshold="0.000408163"
       smooth_angles="360"
       helper_size="0"
       simplify_individual_paths="false"
       simplify_just_coalesce="false" />
    <inkscape:path-effect
       effect="simplify"
       id="path-effect421"
       is_visible="true"
       lpeversion="1"
       steps="1"
       threshold="0.000408163"
       smooth_angles="360"
       helper_size="0"
       simplify_individual_paths="false"
       simplify_just_coalesce="false" />
    <inkscape:path-effect
       effect="simplify"
       id="path-effect417"
       is_visible="true"
       lpeversion="1"
       steps="1"
       threshold="0.000408163"
       smooth_angles="360"
       helper_size="0"
       simplify_individual_paths="false"
       simplify_just_coalesce="false" />
    <inkscape:path-effect
       effect="simplify"
       id="path-effect413"
       is_visible="true"
       lpeversion="1"
       steps="1"
       threshold="0.000408163"
       smooth_angles="360"
       helper_size="0"
       simplify_individual_paths="false"
       simplify_just_coalesce="false" />
    <inkscape:path-effect
       effect="simplify"
       id="path-effect409"
       is_visible="true"
       lpeversion="1"
       steps="1"
       threshold="0.000408163"
       smooth_angles="360"
       helper_size="0"
       simplify_individual_paths="false"
       simplify_just_coalesce="false" />
    <inkscape:path-effect
       effect="simplify"
       id="path-effect335"
       is_visible="true"
       lpeversion="1"
       steps="1"
       threshold="0.000408163"
       smooth_angles="360"
       helper_size="0"
       simplify_individual_paths="false"
       simplify_just_coalesce="false" />
    <inkscape:path-effect
       effect="simplify"
       id="path-effect331"
       is_visible="true"
       lpeversion="1"
       steps="1"
       threshold="0.000408163"
       smooth_angles="360"
       helper_size="0"
       simplify_individual_paths="false"
       simplify_just_coalesce="false" />
    <inkscape:path-effect
       effect="simplify"
       id="path-effect327"
       is_visible="true"
       lpeversion="1"
       steps="1"
       threshold="0.000408163"
       smooth_angles="360"
       helper_size="0"
       simplify_individual_paths="false"
       simplify_just_coalesce="false" />
    <inkscape:path-effect
       effect="simplify"
       id="path-effect323"
       is_visible="true"
       lpeversion="1"
       steps="1"
       threshold="0.000408163"
       smooth_angles="360"
       helper_size="0"
       simplify_individual_paths="false"
       simplify_just_coalesce="false" />
    <inkscape:path-effect
       effect="simplify"
       id="path-effect319"
       is_visible="true"
       lpeversion="1"
       steps="1"
       threshold="0.000408163"
       smooth_angles="360"
       helper_size="0"
       simplify_individual_paths="false"
       simplify_just_coalesce="false" />
    <inkscape:path-effect
       effect="simplify"
       id="path-effect315"
       is_visible="true"
       lpeversion="1"
       steps="1"
       threshold="0.000408163"
       smooth_angles="360"
       helper_size="0"
       simplify_individual_paths="false"
       simplify_just_coalesce="false" />
    <inkscape:path-effect
       effect="simplify"
       id="path-effect311"
       is_visible="true"
       lpeversion="1"
       steps="1"
       threshold="0.000408163"
       smooth_angles="360"
       helper_size="0"
       simplify_individual_paths="false"
       simplify_just_coalesce="false" />
    <inkscape:path-effect
       effect="simplify"
       id="path-effect307"
       is_visible="true"
       lpeversion="1"
       steps="1"
       threshold="0.000408163"
       smooth_angles="360"
       helper_size="0"
       simplify_individual_paths="false"
       simplify_just_coalesce="false" />
    <inkscape:path-effect
       effect="simplify"
       id="path-effect303"
       is_visible="true"
       lpeversion="1"
       steps="1"
       threshold="0.000408163"
       smooth_angles="360"
       helper_size="0"
       simplify_individual_paths="false"
       simplify_just_coalesce="false" />
    <inkscape:path-effect
       effect="simplify"
       id="path-effect299"
       is_visible="true"
       lpeversion="1"
       steps="1"
       threshold="0.000408163"
       smooth_angles="360"
       helper_size="0"
       simplify_individual_paths="false"
       simplify_just_coalesce="false" />
    <inkscape:path-effect
       effect="simplify"
       id="path-effect295"
       is_visible="true"
       lpeversion="1"
       steps="1"
       threshold="0.000408163"
       smooth_angles="360"
       helper_size="0"
       simplify_individual_paths="false"
       simplify_just_coalesce="false" />
    <inkscape:path-effect
       effect="simplify"
       id="path-effect291"
       is_visible="true"
       lpeversion="1"
       steps="1"
       threshold="0.000408163"
       smooth_angles="360"
       helper_size="0"
       simplify_individual_paths="false"
       simplify_just_coalesce="false" />
    <inkscape:path-effect
       effect="simplify"
       id="path-effect287"
       is_visible="true"
       lpeversion="1"
       steps="1"
       threshold="0.000408163"
       smooth_angles="360"
       helper_size="0"
       simplify_individual_paths="false"
       simplify_just_coalesce="false" />
    <inkscape:path-effect
       effect="simplify"
       id="path-effect283"
       is_visible="true"
       lpeversion="1"
       steps="1"
       threshold="0.000408163"
       smooth_angles="360"
       helper_size="0"
       simplify_individual_paths="false"
       simplify_just_coalesce="false" />
    <inkscape:path-effect
       effect="simplify"
       id="path-effect279"
       is_visible="true"
       lpeversion="1"
       steps="1"
       threshold="0.000408163"
       smooth_angles="360"
       helper_size="0"
       simplify_individual_paths="false"
       simplify_just_coalesce="false" />
    <inkscape:path-effect
       effect="simplify"
       id="path-effect275"
       is_visible="true"
       lpeversion="1"
       steps="1"
       threshold="0.000408163"
       smooth_angles="360"
       helper_size="0"
       simplify_individual_paths="false"
       simplify_just_coalesce="false" />
    <inkscape:path-effect
       effect="simplify"
       id="path-effect271"
       is_visible="true"
       lpeversion="1"
       steps="1"
       threshold="0.000408163"
       smooth_angles="360"
       helper_size="0"
       simplify_individual_paths="false"
       simplify_just_coalesce="false" />
    <inkscape:path-effect
       effect="simplify"
       id="path-effect267"
       is_visible="true"
       lpeversion="1"
       steps="1"
       threshold="0.000408163"
       smooth_angles="360"
       helper_size="0"
       simplify_individual_paths="false"
       simplify_just_coalesce="false" />
    <inkscape:path-effect
       effect="simplify"
       id="path-effect263"
       is_visible="true"
       lpeversion="1"
       steps="1"
       threshold="0.000408163"
       smooth_angles="360"
       helper_size="0"
       simplify_individual_paths="false"
       simplify_just_coalesce="false" />
    <inkscape:path-effect
       effect="simplify"
       id="path-effect188"
       is_visible="true"
       lpeversion="1"
       steps="1"
       threshold="0.000408163"
       smooth_angles="360"
       helper_size="0"
       simplify_individual_paths="false"
       simplify_just_coalesce="false" />
    <inkscape:path-effect
       effect="simplify"
       id="path-effect121"
       is_visible="true"
       lpeversion="1"
       steps="1"
       threshold="0.000408163"
       smooth_angles="360"
       helper_size="0"
       simplify_individual_paths="false"
       simplify_just_coalesce="false" />
    <inkscape:path-effect
       effect="simplify"
       id="path-effect117"
       is_visible="true"
       lpeversion="1"
       steps="1"
       threshold="0.000408163"
       smooth_angles="360"
       helper_size="0"
       simplify_individual_paths="false"
       simplify_just_coalesce="false" />
    <inkscape:path-effect
       effect="simplify"
       id="path-effect113"
       is_visible="true"
       lpeversion="1"
       steps="1"
       threshold="0.000408163"
       smooth_angles="360"
       helper_size="0"
       simplify_individual_paths="false"
       simplify_just_coalesce="false" />
    <inkscape:path-effect
       effect="simplify"
       id="path-effect109"
       is_visible="true"
       lpeversion="1"
       steps="1"
       threshold="0.000408163"
       smooth_angles="360"
       helper_size="0"
       simplify_individual_paths="false"
       simplify_just_coalesce="false" />
    <inkscape:path-effect
       effect="simplify"
       id="path-effect105"
       is_visible="true"
       lpeversion="1"
       steps="1"
       threshold="0.000408163"
       smooth_angles="360"
       helper_size="0"
       simplify_individual_paths="false"
       simplify_just_coalesce="false" />
    <inkscape:path-effect
       effect="simplify"
       id="path-effect101"
       is_visible="true"
       lpeversion="1"
       steps="1"
       threshold="0.000408163"
       smooth_angles="360"
       helper_size="0"
       simplify_individual_paths="false"
       simplify_just_coalesce="false" />
    <inkscape:path-effect
       effect="simplify"
       id="path-effect97"
       is_visible="true"
       lpeversion="1"
       steps="1"
       threshold="0.000408163"
       smooth_angles="360"
       helper_size="0"
       simplify_individual_paths="false"
       simplify_just_coalesce="false" />
    <inkscape:path-effect
       effect="simplify"
       id="path-effect93"
       is_visible="true"
       lpeversion="1"
       steps="1"
       threshold="0.000408163"
       smooth_angles="360"
       helper_size="0"
       simplify_individual_paths="false"
       simplify_just_coalesce="false" />
    <inkscape:path-effect
       effect="simplify"
       id="path-effect89"
       is_visible="true"
       lpeversion="1"
       steps="1"
       threshold="0.000408163"
       smooth_angles="360"
       helper_size="0"
       simplify_individual_paths="false"
       simplify_just_coalesce="false" />
    <inkscape:path-effect
       effect="simplify"
       id="path-effect85"
       is_visible="true"
       lpeversion="1"
       steps="1"
       threshold="0.000408163"
       smooth_angles="360"
       helper_size="0"
       simplify_individual_paths="false"
       simplify_just_coalesce="false" />
    <inkscape:path-effect
       effect="simplify"
       id="path-effect81"
       is_visible="true"
       lpeversion="1"
       steps="1"
       threshold="0.000408163"
       smooth_angles="360"
       helper_size="0"
       simplify_individual_paths="false"
       simplify_just_coalesce="false" />
    <inkscape:path-effect
       effect="simplify"
       id="path-effect77"
       is_visible="true"
       lpeversion="1"
       steps="1"
       threshold="0.000408163"
       smooth_angles="360"
       helper_size="0"
       simplify_individual_paths="false"
       simplify_just_coalesce="false" />
    <inkscape:path-effect
       effect="simplify"
       id="path-effect73"
       is_visible="true"
       lpeversion="1"
       steps="1"
       threshold="0.000408163"
       smooth_angles="360"
       helper_size="0"
       simplify_individual_paths="false"
       simplify_just_coalesce="false" />
    <inkscape:path-effect
       effect="simplify"
       id="path-effect69"
       is_visible="true"
       lpeversion="1"
       steps="1"
       threshold="0.000408163"
       smooth_angles="360"
       helper_size="0"
       simplify_individual_paths="false"
       simplify_just_coalesce="false" />
    <inkscape:path-effect
       effect="simplify"
       id="path-effect65"
       is_visible="true"
       lpeversion="1"
       steps="1"
       threshold="0.000408163"
       smooth_angles="360"
       helper_size="0"
       simplify_individual_paths="false"
       simplify_just_coalesce="false" />
    <inkscape:path-effect
       effect="simplify"
       id="path-effect61"
       is_visible="true"
       lpeversion="1"
       steps="1"
       threshold="0.000408163"
       smooth_angles="360"
       helper_size="0"
       simplify_individual_paths="false"
       simplify_just_coalesce="false" />
    <inkscape:path-effect
       effect="simplify"
       id="path-effect57"
       is_visible="true"
       lpeversion="1"
       steps="1"
       threshold="0.000408163"
       smooth_angles="360"
       helper_size="0"
       simplify_individual_paths="false"
       simplify_just_coalesce="false" />
  </defs>
  <g
     inkscape:groupmode="layer"
     id="layer2"
     inkscape:label="Condrócitos em fileira">
    <path
       style="fill:none;stroke:#000000;stroke-width:0.264583px;stroke-linecap:butt;stroke-linejoin:miter;stroke-opacity:1"
       d="m 0,264.16 c 5.1685538,-1.26125 9.767634,-4.09072 14.044951,-7.14836 4.499955,-3.21679 9.436539,-5.76722 14.484723,-7.98494 3.990031,-1.75286 8.467938,-2.28329 12.204068,-4.6427 2.95036,-1.86319 5.604075,-4.16213 8.743839,-5.75238 2.685237,-1.36004 5.258859,-3.02547 8.219085,-3.76731 1.535456,-0.38479 3.057202,-0.88434 4.38124,-1.80167 2.927495,-2.02825 5.443932,-4.63001 8.630333,-6.29336 3.069189,-1.60216 6.314068,-2.83215 9.354892,-4.50046 4.543552,-2.49277 8.622556,-5.85626 13.390736,-7.88847 1.213298,-0.51711 2.545704,-0.64613 3.738901,-1.25072 2.290748,-1.16071 4.373062,-2.71765 6.860332,-3.51271 3.16889,-1.01294 5.72055,-3.37405 8.89765,-4.336 2.21936,-0.67197 4.62561,-0.82556 6.64185,-2.09918 2.83169,-1.78872 5.22104,-4.19132 8.1984,-5.78498 7.16677,-3.83609 14.76648,-6.86256 21.69635,-11.12713 3.18545,-1.96029 6.30762,-4.02679 9.66164,-5.70771 2.63516,-1.32065 5.472,-2.28545 7.92965,-3.91746 1.53747,-1.02096 2.95762,-2.21626 4.64886,-3.00913 5.68392,-2.66467 11.85013,-4.08317 17.53142,-6.7712 11.56241,-5.47062 21.85975,-13.2817 33.64266,-18.33903 4.56079,-1.95753 9.38716,-3.41686 13.621,-6.02319 3.03443,-1.86798 5.10138,-4.95869 8.26095,-6.66943 2.35488,-1.27504 4.8844,-2.22322 7.09483,-3.76741 1.9501,-1.36232 3.87023,-2.79365 5.57369,-4.45189 1.53642,-1.49564 2.87652,-3.20207 4.6945,-4.40112 2.74934,-1.81333 6.04934,-2.65237 8.71608,-4.5741 1.49614,-1.07816 2.65586,-2.53916 4.25267,-3.51675 4.41397,-2.7023 8.44509,-6.02802 13.03309,-8.43104 3.15542,-1.65269 6.63998,-2.51639 9.82836,-4.11268 3.77169,-1.88833 7.57672,-3.744169 11.13819,-6.002831 2.68622,-1.703583 4.68689,-4.257651 7.19761,-6.173735 2.45695,-1.875049 5.52646,-2.69504 7.99064,-4.573944 1.5627,-1.191536 3.17076,-2.347214 5.02151,-3.077548 2.517,-0.993246 5.10095,-1.958381 7.21943,-3.718136 2.00675,-1.666948 3.94212,-3.446273 6.24486,-4.722142 2.19173,-1.214362 4.36046,-2.464227 6.53073,-3.721365 2.33488,-1.352491 4.92034,-2.241338 7.60819,-2.656794 1.74863,-0.270283 3.47745,-0.654595 5.18248,-1.227295 0.51918,-0.174386 0.57318,-0.529499 -0.0961,-0.503151 -0.40974,0.01613 -0.81763,0.0674 -1.22203,0.133706"
       id="path115"
       inkscape:path-effect="#path-effect117"
       inkscape:original-d="m 0,264.16 c 5.73778,-1.4315 10.288146,-4.57073 15.187601,-7.93121 3.921561,-2.68975 8.524131,-4.90539 12.792734,-6.94956 3.884443,-1.86019 8.254246,-2.29653 12.040233,-4.46759 3.083554,-1.76825 5.614193,-4.30314 8.829495,-5.86651 2.235012,-1.08673 4.424277,-2.49665 6.722453,-3.42967 1.690661,-0.68637 4.094446,-0.93751 5.719107,-1.94045 2.839725,-1.75302 5.176184,-4.28791 8.076983,-6.047 2.8283,-1.71513 5.862822,-2.75399 8.779338,-4.24196 5.152278,-2.62862 9.913852,-5.98372 15.000118,-8.75463 1.077121,-0.5868 2.269651,-0.61255 3.361226,-1.08305 2.467579,-1.06359 4.504242,-2.93005 7.123792,-3.70042 3.02069,-0.88833 5.29849,-2.72616 8.12716,-4.01632 2.53571,-1.15653 5.10405,-0.90038 7.5753,-2.39173 2.75999,-1.6656 4.92959,-4.03454 7.72581,-5.55061 6.90567,-3.74413 14.17653,-6.83452 21.02024,-10.69512 2.75387,-1.55349 5.32696,-3.40644 8.07698,-4.96397 3.3019,-1.8701 6.83178,-3.29523 10.18401,-5.05422 1.60829,-0.8439 2.94102,-2.23628 4.61543,-3.06863 5.45554,-2.71195 11.27103,-3.96369 16.80613,-6.45316 10.6871,-4.80663 20.10975,-11.81959 30.60225,-16.96777 5.80548,-2.84847 11.88701,-4.82435 17.65899,-7.80698 2.68422,-1.38704 4.82911,-4.32081 7.37464,-6.09214 2.04558,-1.42345 4.41699,-2.21811 6.57198,-3.42965 2.44957,-1.37716 4.66894,-3.25522 6.82276,-5.05424 1.61596,-1.34975 2.77608,-3.09214 4.41475,-4.3322 2.79057,-2.11176 6.21515,-3.22299 9.23085,-4.96397 1.54389,-0.89131 2.60392,-2.53338 4.1639,-3.47478 4.37394,-2.63956 8.40436,-5.71053 12.84291,-8.3485 2.95119,-1.75398 6.44805,-2.51836 9.53188,-4.0163 3.86535,-1.87757 7.79002,-4.041205 11.53853,-6.137269 2.55193,-1.426985 5.07185,-4.064881 7.22415,-6.047033 1.95337,-1.798945 4.7638,-2.661243 7.02345,-4.016301 2.05692,-1.23348 3.51189,-2.823721 5.76926,-3.790664 2.37639,-1.017913 5.07953,-1.801979 7.17397,-3.384532 1.98268,-1.498097 3.94179,-3.53804 6.12045,-4.828595 2.27782,-1.349306 4.54279,-2.413479 6.77264,-3.835794 1.87738,-1.197497 4.073,-2.206332 6.22078,-2.752746 1.68455,-0.428573 6.25613,-0.573477 7.67564,-1.850211 0.42331,-0.380743 -1.14451,-0.186414 -1.70569,-0.09026" />
    <path
       style="fill:none;stroke:#000000;stroke-width:0.264583px;stroke-linecap:butt;stroke-linejoin:miter;stroke-opacity:1"
       d="m 8.8664824,246.5716 c 1.052822,-1.43169 1.8505336,-3.16365 3.4421046,-4.10159 1.969476,-1.16065 4.237853,-1.67609 6.158917,-2.96182 6.922739,-4.63325 14.486075,-8.17072 21.989892,-11.7902 1.624604,-0.78363 3.044215,-1.91089 4.716777,-2.62969 5.814224,-2.49873 11.344136,-5.59028 16.998269,-8.41979 7.354113,-3.68023 15.146534,-6.39492 22.525109,-10.01677 6.017156,-2.95358 11.731667,-6.5915 18.169259,-8.64503 10.56845,-3.37124 20.98915,-7.20624 31.22901,-11.45999 7.46413,-3.10068 14.11578,-7.75595 21.10953,-11.74095 6.37167,-3.63054 13.06294,-6.68397 19.37606,-10.41229 1.87034,-1.10456 3.51109,-2.54546 5.43067,-3.58573 5.34786,-2.89815 10.9988,-5.19386 16.27306,-8.23981 4.22363,-2.4392 8.44648,-4.89337 12.92017,-6.87153 3.91501,-1.73113 7.81066,-3.51434 11.85389,-4.94205 3.55253,-1.25444 7.06101,-2.69881 10.24452,-4.76439 3.72664,-2.41799 7.59974,-4.61497 11.1396,-7.31915 3.00267,-2.29381 5.77328,-4.99724 9.18362,-6.65603 1.54091,-0.7495 3.17461,-1.27695 4.67868,-2.12114 3.03006,-1.70067 5.9556,-3.57783 8.87059,-5.46578 2.81792,-1.82508 5.24883,-4.21304 8.1717,-5.87129 1.41121,-0.80063 3.03992,-1.35005 4.10919,-2.63993 0.85747,-1.03438 2.12047,-1.5871 3.29656,-2.16418 5.01657,-2.46152 10.59765,-3.71403 15.34412,-6.718385 3.55959,-2.253098 5.98224,-5.791937 8.90644,-8.743673 1.64429,-1.659776 4.3605,-1.827278 5.76222,-3.743953 0.71873,-0.982772 0.62261,-2.415726 1.70218,-3.186074 1.88943,-1.348243 4.1337,-2.033875 6.08858,-3.291433 2.9206,-1.878795 6.23834,-3.230986 8.79671,-5.586253 0.83267,-0.766566 1.49626,-1.705838 2.5019,-2.295819 3.841,-2.2534 8.04466,-3.81786 12.29544,-5.086788 2.49475,-0.744724 5.38123,-0.395175 7.6041,-1.744209 0.71137,-0.431723 1.54481,-0.963866 1.7738,-1.766138 0.18868,-0.661041 -0.95705,-0.04953 -1.17177,0.0062"
       id="path119"
       inkscape:path-effect="#path-effect121"
       inkscape:original-d="m 8.8664824,246.5716 c 0.7357914,-1.03792 1.3670996,-2.15845 2.2073736,-3.11376 1.527107,-1.73617 4.918685,-2.27459 6.822792,-3.56504 6.940315,-4.70358 14.569878,-8.86101 22.274409,-12.04892 1.543228,-0.63855 2.817823,-1.82495 4.364591,-2.48196 5.459576,-2.31906 10.637012,-5.04809 15.903133,-7.807 7.357488,-3.85458 15.243098,-6.74008 22.776089,-10.1987 6.360539,-2.92031 12.247716,-7.01713 18.91319,-9.11565 10.51163,-3.30942 20.81287,-7.33501 31.05374,-11.32689 7.11239,-2.7724 13.71096,-7.30973 20.2677,-11.10125 6.7984,-3.93126 13.74174,-7.54241 20.71923,-11.19151 1.78014,-0.93099 3.29876,-2.39279 5.06692,-3.38452 4.12428,-2.31323 8.52506,-4.17772 12.74257,-6.31779 5.48399,-2.7827 10.58568,-6.36788 16.25432,-8.79976 3.77004,-1.61738 7.5758,-3.50356 11.43821,-4.87373 3.65609,-1.29698 7.73594,-2.65633 10.98669,-4.8286 2.74856,-1.83666 5.6172,-3.44782 8.37802,-5.27985 4.12092,-2.73457 7.87184,-6.31509 12.09039,-8.8449 1.3144,-0.78823 2.81799,-1.14723 4.16389,-1.8502 3.1117,-1.62526 6.07287,-3.68236 9.08035,-5.5055 2.8959,-1.7555 5.45659,-4.09242 8.27763,-5.95677 1.2164,-0.80388 2.60652,-1.2863 3.81276,-2.12096 0.76565,-0.52979 1.22309,-1.36464 2.0067,-1.85021 4.87389,-3.02023 11.67715,-4.54284 16.90648,-7.536213 3.9456,-2.258523 6.51592,-5.774076 9.48169,-9.025406 1.55969,-1.70987 4.04209,-1.955874 5.66893,-3.610171 0.96449,-0.980733 0.75195,-2.537282 1.70569,-3.294271 1.66899,-1.324679 3.95412,-1.931416 5.76927,-3.113762 2.96137,-1.928974 6.16532,-3.648337 9.0302,-5.686005 0.90308,-0.642318 1.4746,-1.723556 2.408,-2.301486 3.53592,-2.189273 7.96449,-3.803038 11.93993,-5.099346 2.74474,-0.895006 5.56493,-1.381315 8.37798,-1.985587 0.40516,-0.08703 3.45882,-2.988971 0.60203,-1.759963" />
    <path
       style="fill:none;stroke:#000000;stroke-width:0.264583px;stroke-linecap:butt;stroke-linejoin:miter;stroke-opacity:1"
       d="m 8.0789694,115.78326 c 1.2846585,-1.28418 2.4629536,-2.6998 3.9924906,-3.71363 2.616199,-1.7341 5.580499,-2.82724 8.468533,-4.012 2.809796,-1.15266 5.705721,-2.24531 8.14714,-4.09141 0.998152,-0.75476 1.845673,-1.67792 2.83279,-2.4522 2.482169,-1.946976 5.628878,-2.656806 8.395958,-4.073891 1.493632,-0.764923 2.899989,-1.686939 4.313593,-2.587851 4.05227,-2.582574 7.901251,-5.506435 12.139145,-7.776394 1.822389,-0.976133 3.823058,-1.535693 5.661296,-2.493682 3.830451,-1.996221 8.096692,-2.893467 12.037558,-4.633703 3.314781,-1.463765 6.451423,-3.342182 9.879038,-4.535618 1.720209,-0.598947 3.561028,-0.602803 5.320688,-1.04799 5.671855,-1.434957 10.953741,-4.100963 16.689591,-5.331713 2.74206,-0.588368 5.50037,-1.173023 8.10745,-2.255112 9.29833,-3.859341 19.04117,-6.644733 28.03596,-11.23146 10.80655,-5.5106 21.00893,-12.095307 31.56975,-18.046839 8.6079,-4.850969 17.0437,-10.026314 25.87386,-14.465525 3.54466,-1.782016 7.30692,-3.144804 10.63594,-5.345119 3.05581,-2.01974 5.93812,-4.322442 9.23773,-5.959355 4.28469,-2.1256065 8.6809,-4.0032567 13.0523,-5.9451988 2.46624,-1.0955967 4.90988,-2.2983336 7.51142,-3.0218405 0.45146,-0.1255543 1.10308,-0.6753644 1.38299,-0.2905001 0.34187,0.4700645 -0.64051,0.867875 -0.85871,1.215496"
       id="path313"
       inkscape:path-effect="#path-effect315"
       inkscape:original-d="m 8.0789694,115.78326 c 1.0367965,-1.02288 1.9703896,-2.1622 3.1103896,-3.06864 4.201385,-3.34059 11.959999,-5.06525 16.605477,-8.12286 2.080802,-1.36957 1.854795,-1.69665 4.013406,-3.29427 2.736874,-2.025605 6.309252,-2.721433 9.230836,-4.467582 5.088123,-3.041028 9.920359,-6.547879 15.000118,-9.566929 1.736561,-1.032086 3.811498,-1.493398 5.618774,-2.481992 3.162406,-1.729865 6.625119,-2.583752 9.983348,-3.835794 4.038759,-1.505765 7.755083,-3.745024 11.739221,-5.324989 2.082626,-0.825891 3.368379,-0.653806 5.367938,-1.128175 4.927807,-1.169059 9.578089,-3.395739 14.448273,-4.783466 3.42624,-0.976286 7.03716,-1.319254 10.33451,-2.707616 9.08245,-3.824195 18.88266,-6.587924 27.69253,-11.011005 10.70336,-5.37373 20.68369,-11.888235 31.10391,-17.734915 8.81467,-4.945822 17.54528,-10.135965 26.48849,-14.846793 2.8097,-1.480011 5.7747,-2.597911 8.57867,-4.061433 3.96703,-2.070577 7.27428,-5.183144 11.23755,-7.220327 4.45366,-2.2892523 9.12967,-4.0037959 13.59541,-6.2275252 0.83916,-0.4178596 9.23082,-4.0689798 9.23082,-3.3394018 0,0.4923064 -0.64702,0.7426337 -0.95316,1.1281776" />
    <path
       style="fill:none;stroke:#000000;stroke-width:0.264583px;stroke-linecap:butt;stroke-linejoin:miter;stroke-opacity:1"
       d="m 1.4066741,105.99069 c 0.5218508,-0.79367 0.8589831,-1.74555 1.565388,-2.38335 0.9658853,-0.87208 2.083596,-1.55438 3.1611501,-2.27716 1.3761018,-0.92303 2.7762759,-1.81205 4.0660298,-2.860523 4.59011,-3.731415 9.096139,-7.648133 14.284076,-10.541062 3.707237,-2.067252 7.737452,-3.43992 11.624739,-5.114975 2.693156,-1.160497 5.257671,-2.58864 7.871848,-3.911635 3.718236,-1.881743 7.528818,-3.629831 11.553767,-4.76019 2.322221,-0.652168 4.638776,-1.335111 6.872847,-2.262141 10.764965,-4.466935 21.710984,-8.490393 32.430061,-13.066327 9.40139,-4.013418 18.0822,-9.601118 27.69643,-13.117204 3.26425,-1.193792 6.65685,-1.98525 9.93135,-3.151669 4.43278,-1.579015 8.74978,-3.45861 13.17318,-5.064818 6.29798,-2.286899 12.65479,-4.517918 18.55705,-7.733341 5.2497,-2.859923 10.225,-6.19174 15.50508,-9.00104 4.76496,-2.535227 9.73839,-4.700206 14.31874,-7.562083 2.62862,-1.642403 4.75169,-3.9635336 7.4274,-5.5475797 2.03943,-1.207364 4.32855,-1.9867626 6.25914,-3.3624604 1.04849,-0.7471316 1.55117,-2.1978434 2.8003,-2.6161236 1.34225,-0.4494637 2.6339,-1.15983377 4.05219,-1.28117402 0.36613,-0.0313238 0.49193,-0.72769852 0.0465,-0.37768157 -0.37544,0.29499227 -0.67629,0.67211357 -1.03842,0.98194726"
       id="path317"
       inkscape:path-effect="#path-effect319"
       inkscape:original-d="m 1.4066741,105.99069 c 0.4849545,-0.75212 0.9250912,-1.5351 1.4548634,-2.25636 0.5931289,-0.8075 5.424398,-3.71706 6.5217899,-4.602952 5.3356086,-4.30726 11.0667006,-9.379283 17.2576556,-12.319674 4.081259,-1.938394 8.344596,-3.310806 12.391392,-5.370119 4.41969,-2.249069 8.718865,-4.619664 13.394756,-6.317771 3.062835,-1.112305 6.206498,-1.674529 9.230839,-2.933255 10.6435,-4.42981 21.396285,-8.511096 32.057102,-12.906346 9.599738,-3.957788 18.422218,-9.506273 28.093858,-13.31246 2.80304,-1.103111 5.67243,-1.792213 8.52848,-2.707632 4.67697,-1.499063 9.18882,-3.539318 13.79609,-5.234733 5.81784,-2.140892 11.84097,-4.158203 17.40817,-6.904435 4.98011,-2.456632 9.60121,-5.529494 14.3981,-8.303373 5.7688,-3.335909 11.88922,-6.049951 17.659,-9.38642 2.59072,-1.498124 4.5582,-3.7114226 7.07362,-5.3249872 2.17209,-1.3933241 4.60002,-2.3883001 6.82279,-3.7004172 1.14703,-0.6771016 1.82131,-2.2180986 3.01007,-2.7527473 0.52346,-0.235428 4.41475,-1.04922676 4.41475,-1.62456972 0,-0.55103672 -0.92795,0.59882991 -1.35452,0.94766139" />
    <path
       style="fill:none;stroke:#000000;stroke-width:0.264583px;stroke-linecap:butt;stroke-linejoin:miter;stroke-opacity:1"
       d="m 271.50906,258.97132 c 0.47627,-1.96821 1.50225,-3.74261 2.60166,-5.42311 1.0355,-1.5828 2.12482,-3.13673 2.97184,-4.83502 0.78825,-1.58046 1.52751,-3.21096 2.66973,-4.58118 2.3864,-2.86277 4.88735,-5.63177 7.5099,-8.2793 1.77283,-1.78972 3.53069,-3.6189 5.55082,-5.12912 1.89361,-1.41564 3.79747,-2.81836 5.65502,-4.28164 4.11501,-3.24159 8.07645,-6.74517 11.32527,-10.87519 2.1505,-2.7338 4.15283,-5.58969 5.91702,-8.588 1.02878,-1.74845 1.95697,-3.56219 2.65032,-5.47383 1.47265,-4.06025 2.4201,-8.3153 4.29144,-12.227 0.64669,-1.35179 1.44513,-2.62188 2.21725,-3.90358 1.34737,-2.23661 2.66274,-4.4991 4.17831,-6.6258 1.08122,-1.51721 2.68025,-2.60692 3.64172,-4.21165 0.58725,-0.98014 0.90531,-2.11019 1.64791,-3.00348 1.88584,-2.26852 4.46895,-3.86959 6.20735,-6.26672 0.52593,-0.72522 0.99882,-1.48703 1.50196,-2.22813 1.66364,-2.45045 3.36726,-4.89098 5.37291,-7.07529 1.1332,-1.23414 2.46087,-2.30582 3.39347,-3.71202 0.47844,-0.7214 0.83105,-1.60156 0.6464,-2.48022 -0.0398,-0.1892 -0.10252,-0.37332 -0.18382,-0.54865"
       id="path407"
       inkscape:path-effect="#path-effect409"
       inkscape:original-d="m 271.50906,258.97132 c 0.82844,-3.3654 3.01821,-5.82724 4.76592,-8.75464 1.10688,-1.85403 1.8928,-4.14774 3.26091,-5.82139 2.98873,-3.65628 9.82808,-11.13654 13.69576,-13.98938 5.31968,-3.92388 10.77015,-8.09354 15.15057,-13.13197 3.01474,-3.46759 7.93459,-10.48368 9.63218,-14.84678 1.90026,-4.88396 2.88808,-10.35314 5.56863,-14.89193 1.69117,-2.86354 3.48266,-5.82295 5.31776,-8.57413 1.02081,-1.53041 2.55703,-2.64446 3.61206,-4.15169 0.65969,-0.94248 0.95253,-2.18785 1.65553,-3.06864 2.03475,-2.54936 4.96966,-4.28977 6.77264,-7.03981 1.85068,-2.82281 4.11903,-6.1005 6.37127,-8.61926 1.80092,-2.01401 5.10834,-4.38739 3.96325,-6.85931" />
    <path
       style="fill:none;stroke:#000000;stroke-width:0.264583px;stroke-linecap:butt;stroke-linejoin:miter;stroke-opacity:1"
       d="m 351.27554,149.22239 c -1.114,-1.27185 -1.82186,-3.06999 -3.34229,-3.81661 -0.27628,-0.13567 -0.58633,0.0414 -0.822,0.1828 -0.96579,0.57928 -1.79584,1.35336 -2.61255,2.12126 -0.82691,0.77749 -1.5785,1.62898 -2.39365,2.41908 -3.39172,3.28749 -7.16816,6.14101 -10.56978,9.42232 -2.95013,2.84579 -6.48506,4.96357 -9.76317,7.39365 -4.1399,3.06893 -7.89766,6.62788 -11.38403,10.414 -1.37115,1.48904 -2.76083,2.96793 -4.00362,4.56586 -1.33369,1.71481 -1.85661,3.87808 -3.02717,5.69099 -1.33611,2.06931 -3.13404,3.81362 -4.30539,5.99584 -1.27507,2.37546 -2.00689,4.99179 -3.24223,7.38791 -2.43377,4.72064 -5.79606,8.86515 -9.08405,13.00516 -2.27939,2.87005 -4.4937,5.79759 -6.45699,8.8978 -2.96178,4.67691 -5.88749,9.44512 -9.68381,13.48603 -0.41769,0.4446 -0.77334,0.94401 -1.04555,1.49103 -0.82927,1.66644 -1.36205,3.46255 -1.81415,5.26146 -0.7279,2.89634 -1.31059,5.83928 -1.56442,8.81621 -0.1048,1.2291 -0.1672,2.48032 0.0924,3.69812 0.30783,1.4438 0.82255,2.83495 1.05448,4.29902 0.26143,1.65028 0.34728,3.33404 0.12831,4.99891 -0.19772,1.50331 -0.99931,2.92585 -0.93677,4.43903 0.008,0.18969 -0.14914,0.74324 0.0496,0.66161 0.59551,-0.24454 0.99845,-0.78916 1.32859,-1.31545 0.89799,-1.43152 1.51327,-3.01811 2.06896,-4.60669 0.59357,-1.69688 1.11022,-3.42071 1.5627,-5.16041"
       id="path411"
       inkscape:path-effect="#path-effect413"
       inkscape:original-d="m 351.27554,149.22239 c -1.10368,-1.26356 -2.11627,-2.61289 -3.31105,-3.79068 -0.62405,-0.61517 -3.99166,2.7744 -4.26426,3.06864 -3.69097,3.98407 -8.08106,7.00519 -11.93988,10.83049 -3.1809,3.15328 -7.23831,5.49714 -10.78603,8.21311 -5.16581,3.9547 -10.16669,9.10958 -14.34793,14.07964 -1.53511,1.82472 -1.92897,3.85433 -3.16058,5.82138 -1.14673,1.83147 -2.64909,3.33888 -3.81273,5.14447 -1.57541,2.44455 -2.28332,5.26439 -3.5619,7.85212 -3.9389,7.97202 -10.68874,14.3456 -15.40145,21.79634 -3.27297,5.17452 -6.38733,9.89708 -10.43487,14.53091 -2.28037,2.61071 -4.46768,14.36441 -4.16393,17.82517 0.14893,1.69687 0.88013,3.28655 1.15387,4.96399 0.51178,3.13623 0.45561,4.80132 -0.30099,7.76184 -0.55409,2.16818 -0.52657,2.77527 -0.45151,2.75275 2.40951,-0.72239 5.01062,-11.08425 5.01676,-11.10124" />
    <path
       style="fill:none;stroke:#000000;stroke-width:0.264583px;stroke-linecap:butt;stroke-linejoin:miter;stroke-opacity:1"
       d="m 248.83331,263.21324 c -0.3894,-2.66379 0.0508,-5.38005 0.88065,-7.92056 1.29828,-3.97467 3.35838,-7.65243 4.57528,-11.6598 1.40201,-4.61697 2.10471,-9.44517 3.98111,-13.91714 1.26061,-3.00437 3.24524,-5.63955 5.43588,-8.02711 3.62376,-3.94951 8.13947,-7.08205 11.30743,-11.4179 0.61816,-0.84605 0.9314,-1.86511 1.56344,-2.70841 1.31003,-1.74792 2.7597,-3.38356 4.2153,-5.00938 1.13597,-1.26881 2.5009,-2.32945 3.43325,-3.78428 1.87364,-2.92362 4.17568,-5.53939 6.17704,-8.37094 2.09482,-2.96378 3.30045,-6.41548 4.82627,-9.67918 0.67879,-1.45192 1.4933,-2.83463 2.37835,-4.17156 3.90644,-5.90092 7.67096,-11.89855 11.72492,-17.69914 2.43288,-3.48107 5.45409,-6.48643 8.34019,-9.58314 1.77213,-1.90145 3.44472,-3.8927 5.03048,-5.95497 1.68832,-2.19566 3.91496,-3.88114 6.12244,-5.51918 1.9469,-1.44468 3.98056,-2.85467 5.50316,-4.75688 0.65844,-0.8226 1.05193,-1.85061 1.87813,-2.53847 1.57392,-1.31038 3.39853,-2.27212 4.95312,-3.61538 0.49235,-0.42542 0.98406,-0.91392 1.14035,-1.5724 0.11318,-0.47684 0.15713,-0.99845 0.51068,-1.38311 1.2883,-1.40164 2.92719,-2.40517 4.44227,-3.53701 0.54612,-0.40798 1.20992,-0.71499 1.59978,-1.28005 0.13861,-0.2009 -0.0139,-0.3856 0.25709,-0.59675 0.72277,-0.56308 1.62743,-0.78225 2.44812,-1.15701 0.67719,-0.30923 1.38357,-0.63977 1.87487,-1.22551 0.42877,-0.51119 0.0995,-1.43573 -0.57045,-1.5093 -0.69469,-0.0763 -1.34873,0.26468 -1.93397,0.59444 -0.72193,0.40678 -1.38574,0.90481 -2.06098,1.38243"
       id="path415"
       inkscape:path-effect="#path-effect417"
       inkscape:original-d="m 248.83331,263.21324 c -0.90108,-6.40604 2.64941,-11.74623 4.76591,-17.50927 2.29459,-6.24792 2.65079,-13.14584 6.17062,-18.90821 3.8677,-6.33188 10.51563,-10.85227 15.20079,-16.47137 0.45739,-0.54857 0.9697,-1.87473 1.30435,-2.34662 1.25899,-1.77527 2.91994,-3.51713 4.3144,-5.18959 1.05476,-1.26505 2.58114,-2.35283 3.46157,-3.74557 1.85473,-2.93403 3.99341,-5.48257 6.07031,-8.25824 3.05927,-4.08861 4.24645,-9.34141 7.02344,-13.5381 3.94782,-5.96606 7.889,-11.96268 11.88971,-17.96056 3.56878,-5.35038 9.4346,-10.23261 13.39477,-15.61395 3.30005,-4.48428 7.96253,-6.33086 11.63887,-10.33409 1.00319,-1.09239 1.12093,-2.05813 2.35788,-3.02352 1.95842,-1.52849 3.27549,-2.025 5.16726,-3.83579 1.05699,-1.01173 0.56097,-1.80318 1.15385,-2.48198 1.34435,-1.53911 3.68184,-2.97572 5.31778,-4.19682 1.84902,-1.38013 -0.1162,-0.60223 1.5552,-1.62457 0.84346,-0.51594 4.45579,-1.3817 3.96322,-2.88813 -0.61791,-1.88967 -3.77984,0.66886 -4.71573,1.30869" />
    <path
       style="fill:none;stroke:#000000;stroke-width:0.264583px;stroke-linecap:butt;stroke-linejoin:miter;stroke-opacity:1"
       d="m 290.47241,262.85222 c 2.88363,-2.38621 5.16419,-5.39129 7.30072,-8.43942 2.41258,-3.44196 4.67177,-7.03633 7.6385,-10.0394 2.29722,-2.32536 5.10423,-4.03683 7.70295,-5.99038 1.83251,-1.37756 3.56628,-2.92433 4.92516,-4.78424 1.34907,-1.84648 2.35374,-3.91768 3.72213,-5.75185 1.79317,-2.40354 4.07161,-4.40752 5.7913,-6.8669 1.37363,-1.96446 2.17897,-4.23961 3.18342,-6.39777 0.64988,-1.39633 1.45859,-2.71053 2.26341,-4.02085 2.25273,-3.66766 4.76074,-7.1854 6.76462,-11.00012 2.42639,-4.61905 3.92953,-9.6423 6.10842,-14.37296 0.99581,-2.16204 2.19787,-4.22351 3.54084,-6.19177 2.00751,-2.94221 3.39035,-6.2809 5.60679,-9.08439 0.83703,-1.05873 3.92435,-3.70039 2.92229,-2.78956 -0.40736,0.37027 -0.85112,0.7038 -1.28163,1.04858 -0.0394,0.0316 -0.0788,0.0632 -0.11817,0.0948"
       id="path419"
       inkscape:path-effect="#path-effect421"
       inkscape:original-d="m 290.47241,262.85222 c 6.09717,-5.05473 9.31323,-12.57912 14.69911,-18.23129 3.38667,-3.55412 7.99809,-5.6447 11.43821,-9.29618 2.21845,-2.35474 3.1143,-4.61601 4.86627,-7.08493 1.71174,-2.41226 4.00417,-4.49225 5.81943,-6.90445 1.88116,-2.4998 2.70433,-5.59243 4.21407,-8.25824 2.45295,-4.3313 5.44197,-8.4365 7.8763,-12.81606 3.66263,-6.58937 5.25037,-14.50638 9.83287,-20.98408 2.79863,-3.95604 4.61978,-9.32003 8.62886,-12.09406 0.46471,-0.32156 -0.86413,0.72873 -1.30437,1.08307" />
    <path
       style="fill:none;stroke:#000000;stroke-width:0.264583px;stroke-linecap:butt;stroke-linejoin:miter;stroke-opacity:1"
       d="m 309.78694,260.46049 c 5.92304,-6.36744 11.08804,-13.37932 16.3124,-20.31632 3.46603,-4.60226 7.19139,-8.99962 10.75444,-13.53019 0.47149,-0.59952 0.80757,-1.29062 1.13097,-1.97717 0.572,-1.21431 1.03313,-2.48164 1.67357,-3.66247 0.32508,-0.59938 0.69469,-1.17345 1.06123,-1.74794 2.24832,-3.5238 4.78929,-6.90597 7.89361,-9.71451 0.93357,-0.84462 1.93975,-1.60366 2.92824,-2.38176 1.24044,-0.97642 2.51928,-1.9146 3.65162,-3.01674 0.39786,-0.38725 0.82897,-0.76732 1.08936,-1.263 0.0746,-0.14201 0.14634,-0.30459 0.11028,-0.46838"
       id="path423"
       inkscape:path-effect="#path-effect425"
       inkscape:original-d="m 309.78694,260.46049 c 9.83218,-10.56809 17.61609,-22.98055 26.99015,-33.755 1.0918,-1.2549 2.13841,-4.52672 3.11039,-6.13729 2.39487,-3.96835 5.26092,-7.77685 8.62883,-10.96584 2.00186,-1.89552 8.16991,-6.03168 7.87635,-7.22035" />
    <path
       style="fill:none;stroke:#000000;stroke-width:0.264583px;stroke-linecap:butt;stroke-linejoin:miter;stroke-opacity:1"
       d="m 322.17833,265.60497 c -0.0165,-0.57206 -0.0327,-1.15438 0.1025,-1.71517 0.10058,-0.41719 0.334,-0.78941 0.61795,-1.10641 0.33108,-0.36962 0.68843,-0.71562 1.05935,-1.04477 1.32653,-1.17715 2.85466,-2.10685 4.1438,-3.32828 0.50471,-0.4782 0.94594,-1.01714 1.4039,-1.53881 3.43756,-3.91579 6.79222,-7.91215 9.85053,-12.13578 0.64503,-0.89081 1.24072,-1.81637 1.795,-2.76629 1.58308,-2.71305 2.89758,-5.58181 4.64281,-8.1998 0.54487,-0.81735 1.15281,-1.59061 1.79731,-2.3321 2.35473,-2.70908 4.76436,-5.37367 7.00168,-8.18152 0.70665,-0.88685 1.43209,-1.7657 2.02767,-2.7321 0.16021,-0.25996 0.32209,-0.52379 0.424,-0.81315"
       id="path427"
       inkscape:path-effect="#path-effect429"
       inkscape:original-d="m 322.17833,265.60497 c -0.0744,-1.97965 0.19526,-2.35427 1.4047,-3.51989 1.55803,-1.50155 3.69388,-2.68667 5.06693,-4.24196 3.83387,-4.3427 7.8237,-8.97186 11.13721,-13.71859 2.64843,-3.794 4.52858,-8.899 7.52512,-12.36482 2.87462,-3.3248 9.15258,-10.30997 9.73254,-12.04892" />
    <path
       style="fill:none;stroke:#000000;stroke-width:0.264583px;stroke-linecap:butt;stroke-linejoin:miter;stroke-opacity:1"
       d="m 229.66926,262.762 c 0.0492,-0.92417 -0.0608,-1.85813 0.0824,-2.77436 0.14284,-0.91374 0.52309,-1.77548 0.98233,-2.57 0.93957,-1.62552 2.27838,-2.99146 3.07766,-4.70716 3.40261,-7.30388 5.99416,-14.94901 8.38608,-22.64237 0.8176,-2.62972 2.52045,-4.9125 3.14277,-7.60831 1.94091,-8.4078 3.86366,-16.83827 6.65197,-25.02101 0.5369,-1.57562 1.21722,-3.09685 1.95136,-4.58938 0.85257,-1.7333 1.68711,-3.47478 2.4563,-5.24876 1.10813,-2.55566 2.60385,-4.92447 4.22922,-7.17808 0.85305,-1.18277 1.69107,-2.38376 2.66356,-3.47072 0.75922,-0.84859 1.76277,-1.54833 2.1718,-2.64923 0.41588,-1.11934 0.58764,-2.30957 0.75331,-3.48628 0.27739,-1.97028 0.38168,-3.96129 0.66824,-5.92977 0.65179,-4.47744 2.27371,-8.73681 4.04145,-12.87896 0.60921,-1.42749 1.2971,-2.82127 1.87791,-4.26037 0.93549,-2.31789 1.28457,-4.8814 2.58237,-7.03688 0.5802,-0.96364 1.52598,-1.64018 2.06132,-2.64359 0.62918,-1.17929 0.75234,-2.57138 1.44043,-3.71732 0.70705,-1.17752 2.10778,-1.78534 2.7048,-3.02892 0.26196,-0.54566 0.44392,-1.12596 0.65254,-1.69361 0.66225,-1.802 1.44641,-3.57026 2.52089,-5.17141 0.97783,-1.45713 1.65557,-3.08663 2.23295,-4.74569 0.15278,-0.439 0.24144,-0.94062 0.57258,-1.27824 0.24938,-0.25426 0.33393,0.10641 0.18027,0.33042 -0.19733,0.28767 -0.40701,0.56638 -0.52185,0.90566 -0.21131,0.62427 -0.37864,1.26213 -0.57227,1.89186"
       id="path431"
       inkscape:path-effect="#path-effect433"
       inkscape:original-d="m 229.66926,262.762 c 0.0811,-2.3344 -0.18519,-2.73196 0.70237,-4.64809 0.88814,-1.91736 2.45794,-3.30498 3.36121,-5.23474 3.36708,-7.19348 6.22556,-14.91195 8.37798,-22.51841 0.78863,-2.78694 2.61359,-5.21836 3.26089,-8.0326 1.97901,-8.60398 3.92225,-17.62418 6.97331,-25.85777 1.08599,-2.93066 2.73947,-5.63977 3.91308,-8.52903 1.47023,-3.61951 4.39519,-7.72824 6.8228,-10.74022 0.73162,-0.90774 1.72254,-1.56739 2.25755,-2.61737 0.9261,-1.81755 1.24174,-7.63282 1.55517,-9.74744 0.86902,-5.86312 3.28303,-11.19398 5.66896,-16.51648 1.08469,-2.41976 1.52109,-5.15755 2.75921,-7.4911 0.4518,-0.85154 1.32157,-1.49154 1.85618,-2.30147 0.79603,-1.20594 0.96952,-2.60138 1.55522,-3.88092 0.66622,-1.45543 2.46944,-2.19643 3.01004,-3.65529 0.84732,-2.28657 1.53693,-4.31901 2.90972,-6.36292 0.99688,-1.48421 1.59809,-2.67775 2.15721,-4.28707 0.0817,-0.23498 0.5566,-2.10447 0.95318,-1.98559 0.37468,0.11231 -0.31914,0.715 -0.45151,1.08305 -0.25032,0.69601 -0.43479,1.41399 -0.65217,2.12098" />
    <path
       style="fill:none;stroke:#000000;stroke-width:0.264583px;stroke-linecap:butt;stroke-linejoin:miter;stroke-opacity:1"
       d="m 206.9935,259.15181 c -0.0568,-2.23097 0.63365,-4.41295 1.63031,-6.38737 1.31248,-2.60006 3.0352,-4.95648 4.60564,-7.40075 2.6143,-4.06897 6.27392,-7.36827 8.73485,-11.53973 1.21297,-2.05607 1.73157,-4.40927 2.42388,-6.66826 0.53663,-1.751 1.26678,-3.44626 2.24813,-4.99884 2.47467,-3.91515 5.76506,-7.2604 8.02452,-11.32166 0.63984,-1.15008 1.1397,-2.37246 1.52691,-3.62998 0.48812,-1.58525 0.91869,-3.19191 1.5677,-4.72343 1.24703,-2.94273 2.98684,-5.68941 3.83661,-8.78807 0.4942,-1.80209 0.91986,-3.62227 1.37069,-5.43557 0.8472,-3.40752 1.64835,-6.8453 2.93177,-10.11758 1.00304,-2.55741 2.89889,-4.66116 3.83948,-7.24358 0.61739,-1.69507 0.97456,-3.4961 1.86636,-5.08283 1.19409,-2.12459 2.87592,-3.949 3.88239,-6.18557 1.22708,-2.7268 2.32543,-5.50959 3.5443,-8.24001 0.80365,-1.80028 1.5844,-3.61955 2.58598,-5.32082 0.39212,-0.66605 0.90427,-1.25087 1.40603,-1.83643 0.17129,-0.1999 0.37532,-0.17524 0.54195,-0.42708 1.07769,-1.62882 2.21526,-3.22386 3.1494,-4.94222 0.34371,-0.63226 0.63861,-1.29548 0.78821,-2.00449 0.23289,-1.10376 0.32016,-2.25996 0.85733,-3.27953 0.79912,-1.51676 2.00628,-2.83019 2.49256,-4.50073 0.18103,-0.6219 0.22972,-1.26991 0.3533,-1.90456 0.2616,-1.34351 0.76155,-2.68384 0.657,-4.05672 -0.0564,-0.74024 -0.20417,-1.46503 -0.29184,-2.20604 -0.0457,-0.38591 0.36273,-0.39023 0.63521,-0.2354 0.30771,0.17485 0.5735,0.41144 0.86206,0.61419"
       id="path435"
       inkscape:path-effect="#path-effect437"
       inkscape:original-d="m 206.9935,259.15181 c -0.10579,-5.11934 3.38241,-9.22327 6.02012,-13.44784 2.60502,-4.17221 6.18059,-7.4502 8.77934,-11.59764 2.1473,-3.42696 2.10881,-7.41751 4.51509,-11.41716 2.74899,-4.56928 6.87654,-8.4273 9.08032,-13.31245 0.85344,-1.89186 1.26408,-4.06246 2.00673,-6.00189 1.34023,-3.50001 3.4012,-6.54695 4.36455,-10.28899 1.25779,-4.88577 2.315,-9.86156 4.01342,-14.62115 0.99268,-2.78184 3.13166,-5.14379 4.06358,-7.85209 0.5835,-1.69572 0.89354,-3.26703 1.80604,-4.87373 1.11556,-1.96426 2.68091,-3.68489 3.66222,-5.73113 1.43345,-2.98911 5.07176,-12.46125 6.8228,-14.71141 1.83226,-2.35454 0.65209,-0.29912 1.70571,-1.89534 1.07516,-1.62885 2.53032,-3.68011 3.31105,-5.41523 0.59833,-1.3297 0.44474,-2.86311 1.10371,-4.19683 0.89305,-1.80751 2.49124,-3.41158 2.75918,-5.46036 0.22336,-1.70799 0.78679,-3.37598 0.85288,-5.09935 0.0209,-0.54304 -0.43915,-2.10375 -0.25085,-2.52713 0.21246,-0.47777 1.02405,0.29031 1.45484,0.58666" />
  </g>
</svg>
