<?xml version="1.0" encoding="UTF-8" standalone="no"?>
<!-- Created with Inkscape (http://www.inkscape.org/) -->

<svg
   width="353.56799mm"
   height="264.16mm"
   viewBox="0 0 353.56799 264.16"
   version="1.1"
   id="svg5"
   inkscape:version="1.1.2 (08b2f3d93c, 2022-04-05)"
   sodipodi:docname="CondrócitosArredondados.svg"
   xmlns:inkscape="http://www.inkscape.org/namespaces/inkscape"
   xmlns:sodipodi="http://sodipodi.sourceforge.net/DTD/sodipodi-0.dtd"
   xmlns="http://www.w3.org/2000/svg"
   xmlns:svg="http://www.w3.org/2000/svg">
  <sodipodi:namedview
     id="namedview7"
     pagecolor="#ffffff"
     bordercolor="#666666"
     borderopacity="1.0"
     inkscape:pageshadow="2"
     inkscape:pageopacity="0.0"
     inkscape:pagecheckerboard="0"
     inkscape:document-units="mm"
     showgrid="false"
     inkscape:zoom="0.31256605"
     inkscape:cx="620.66881"
     inkscape:cy="433.50837"
     inkscape:window-width="1366"
     inkscape:window-height="704"
     inkscape:window-x="0"
     inkscape:window-y="27"
     inkscape:window-maximized="1"
     inkscape:current-layer="layer2" />
  <defs
     id="defs2">
    <inkscape:path-effect
       effect="simplify"
       id="path-effect153"
       is_visible="true"
       lpeversion="1"
       steps="1"
       threshold="0.000408163"
       smooth_angles="360"
       helper_size="0"
       simplify_individual_paths="false"
       simplify_just_coalesce="false" />
    <inkscape:path-effect
       effect="simplify"
       id="path-effect149"
       is_visible="true"
       lpeversion="1"
       steps="1"
       threshold="0.000408163"
       smooth_angles="360"
       helper_size="0"
       simplify_individual_paths="false"
       simplify_just_coalesce="false" />
    <inkscape:path-effect
       effect="simplify"
       id="path-effect145"
       is_visible="true"
       lpeversion="1"
       steps="1"
       threshold="0.000408163"
       smooth_angles="360"
       helper_size="0"
       simplify_individual_paths="false"
       simplify_just_coalesce="false" />
    <inkscape:path-effect
       effect="simplify"
       id="path-effect141"
       is_visible="true"
       lpeversion="1"
       steps="1"
       threshold="0.000408163"
       smooth_angles="360"
       helper_size="0"
       simplify_individual_paths="false"
       simplify_just_coalesce="false" />
    <inkscape:path-effect
       effect="simplify"
       id="path-effect137"
       is_visible="true"
       lpeversion="1"
       steps="1"
       threshold="0.000408163"
       smooth_angles="360"
       helper_size="0"
       simplify_individual_paths="false"
       simplify_just_coalesce="false" />
    <inkscape:path-effect
       effect="simplify"
       id="path-effect133"
       is_visible="true"
       lpeversion="1"
       steps="1"
       threshold="0.000408163"
       smooth_angles="360"
       helper_size="0"
       simplify_individual_paths="false"
       simplify_just_coalesce="false" />
    <inkscape:path-effect
       effect="simplify"
       id="path-effect129"
       is_visible="true"
       lpeversion="1"
       steps="1"
       threshold="0.000408163"
       smooth_angles="360"
       helper_size="0"
       simplify_individual_paths="false"
       simplify_just_coalesce="false" />
    <inkscape:path-effect
       effect="simplify"
       id="path-effect125"
       is_visible="true"
       lpeversion="1"
       steps="1"
       threshold="0.000408163"
       smooth_angles="360"
       helper_size="0"
       simplify_individual_paths="false"
       simplify_just_coalesce="false" />
    <inkscape:path-effect
       effect="simplify"
       id="path-effect121"
       is_visible="true"
       lpeversion="1"
       steps="1"
       threshold="0.000408163"
       smooth_angles="360"
       helper_size="0"
       simplify_individual_paths="false"
       simplify_just_coalesce="false" />
    <inkscape:path-effect
       effect="simplify"
       id="path-effect117"
       is_visible="true"
       lpeversion="1"
       steps="1"
       threshold="0.000408163"
       smooth_angles="360"
       helper_size="0"
       simplify_individual_paths="false"
       simplify_just_coalesce="false" />
    <inkscape:path-effect
       effect="simplify"
       id="path-effect113"
       is_visible="true"
       lpeversion="1"
       steps="1"
       threshold="0.000408163"
       smooth_angles="360"
       helper_size="0"
       simplify_individual_paths="false"
       simplify_just_coalesce="false" />
    <inkscape:path-effect
       effect="simplify"
       id="path-effect109"
       is_visible="true"
       lpeversion="1"
       steps="1"
       threshold="0.000408163"
       smooth_angles="360"
       helper_size="0"
       simplify_individual_paths="false"
       simplify_just_coalesce="false" />
    <inkscape:path-effect
       effect="simplify"
       id="path-effect105"
       is_visible="true"
       lpeversion="1"
       steps="1"
       threshold="0.000408163"
       smooth_angles="360"
       helper_size="0"
       simplify_individual_paths="false"
       simplify_just_coalesce="false" />
    <inkscape:path-effect
       effect="simplify"
       id="path-effect101"
       is_visible="true"
       lpeversion="1"
       steps="1"
       threshold="0.000408163"
       smooth_angles="360"
       helper_size="0"
       simplify_individual_paths="false"
       simplify_just_coalesce="false" />
    <inkscape:path-effect
       effect="simplify"
       id="path-effect97"
       is_visible="true"
       lpeversion="1"
       steps="1"
       threshold="0.000408163"
       smooth_angles="360"
       helper_size="0"
       simplify_individual_paths="false"
       simplify_just_coalesce="false" />
    <inkscape:path-effect
       effect="simplify"
       id="path-effect93"
       is_visible="true"
       lpeversion="1"
       steps="1"
       threshold="0.000408163"
       smooth_angles="360"
       helper_size="0"
       simplify_individual_paths="false"
       simplify_just_coalesce="false" />
    <inkscape:path-effect
       effect="simplify"
       id="path-effect89"
       is_visible="true"
       lpeversion="1"
       steps="1"
       threshold="0.000408163"
       smooth_angles="360"
       helper_size="0"
       simplify_individual_paths="false"
       simplify_just_coalesce="false" />
    <inkscape:path-effect
       effect="simplify"
       id="path-effect85"
       is_visible="true"
       lpeversion="1"
       steps="1"
       threshold="0.000408163"
       smooth_angles="360"
       helper_size="0"
       simplify_individual_paths="false"
       simplify_just_coalesce="false" />
    <inkscape:path-effect
       effect="simplify"
       id="path-effect81"
       is_visible="true"
       lpeversion="1"
       steps="1"
       threshold="0.000408163"
       smooth_angles="360"
       helper_size="0"
       simplify_individual_paths="false"
       simplify_just_coalesce="false" />
    <inkscape:path-effect
       effect="simplify"
       id="path-effect77"
       is_visible="true"
       lpeversion="1"
       steps="1"
       threshold="0.000408163"
       smooth_angles="360"
       helper_size="0"
       simplify_individual_paths="false"
       simplify_just_coalesce="false" />
    <inkscape:path-effect
       effect="simplify"
       id="path-effect73"
       is_visible="true"
       lpeversion="1"
       steps="1"
       threshold="0.000408163"
       smooth_angles="360"
       helper_size="0"
       simplify_individual_paths="false"
       simplify_just_coalesce="false" />
    <inkscape:path-effect
       effect="simplify"
       id="path-effect69"
       is_visible="true"
       lpeversion="1"
       steps="1"
       threshold="0.000408163"
       smooth_angles="360"
       helper_size="0"
       simplify_individual_paths="false"
       simplify_just_coalesce="false" />
    <inkscape:path-effect
       effect="simplify"
       id="path-effect65"
       is_visible="true"
       lpeversion="1"
       steps="1"
       threshold="0.000408163"
       smooth_angles="360"
       helper_size="0"
       simplify_individual_paths="false"
       simplify_just_coalesce="false" />
    <inkscape:path-effect
       effect="simplify"
       id="path-effect61"
       is_visible="true"
       lpeversion="1"
       steps="1"
       threshold="0.000408163"
       smooth_angles="360"
       helper_size="0"
       simplify_individual_paths="false"
       simplify_just_coalesce="false" />
    <inkscape:path-effect
       effect="simplify"
       id="path-effect57"
       is_visible="true"
       lpeversion="1"
       steps="1"
       threshold="0.000408163"
       smooth_angles="360"
       helper_size="0"
       simplify_individual_paths="false"
       simplify_just_coalesce="false" />
  </defs>
  <g
     inkscape:groupmode="layer"
     id="layer2"
     inkscape:label="Condróctos Arredondados">
    <path
       style="fill:none;stroke:#000000;stroke-width:0.264583px;stroke-linecap:butt;stroke-linejoin:miter;stroke-opacity:1"
       d="m 171.56946,172.69708 c 0.41095,-0.27689 0.74732,-0.64652 1.06729,-1.02096 0.37374,-0.43737 0.72433,-0.89981 1.15933,-1.27946 0.15474,-0.13505 0.30298,-0.29492 0.49673,-0.36416 0.028,-0.01 0.1035,-0.0577 0.0991,-0.0167 -0.005,0.045 -0.0293,0.0857 -0.0551,0.12152 -0.0109,0.0151 -0.0415,0.0783 -7.3e-4,0.0528 0.0834,-0.0521 0.15804,-0.11702 0.23201,-0.18144 0.0882,-0.0768 0.18256,-0.14736 0.26304,-0.23227 0.16532,-0.17441 0.28776,-0.3843 0.39646,-0.59697 0.25133,-0.49171 0.44345,-1.01166 0.60665,-1.53839 0.22998,-0.74226 0.41438,-1.501 0.51159,-2.27241 0.0554,-0.43953 0.0967,-0.88581 0.0483,-1.3275 -0.0245,-0.22375 -0.0419,-0.46909 -0.18037,-0.65013 -0.0469,-0.0613 -0.11215,-0.10513 -0.17573,-0.14716 -0.22962,-0.15179 -0.4724,-0.28285 -0.71906,-0.40443 -0.19156,-0.0944 -0.38584,-0.18371 -0.58475,-0.26208 -0.0946,-0.0373 -0.19764,-0.043 -0.29801,-0.0465 -0.383,-0.0134 -0.76268,0.0693 -1.12559,0.18473 -0.59319,0.18872 -1.15545,0.46134 -1.70423,0.75249 -0.34009,0.18043 -0.66848,0.38225 -1.00934,0.5611 -0.3034,0.1592 -0.62915,0.26896 -0.95175,0.3817 -0.37236,0.13013 -0.75169,0.24952 -1.10017,0.43654 -0.25466,0.13667 -0.49508,0.29925 -0.72307,0.47652 -0.8331,0.64775 -1.47157,1.53894 -1.82572,2.53292 -0.30102,0.84487 -0.37675,1.76169 -0.25832,2.65096 0.0635,0.47687 0.0653,0.95883 0.0941,1.43837 0.0288,0.47789 0.0746,0.96063 0.22409,1.41805 0.11131,0.34055 0.2959,0.66078 0.55867,0.9082 0.21188,0.1995 0.48648,0.31604 0.7614,0.39873 0.48337,0.14539 0.98813,0.20725 1.49091,0.23035 0.75188,0.0345 1.50871,-0.006 2.24958,-0.13966 0.48394,-0.087 0.96863,-0.20165 1.41524,-0.41106 0.2427,-0.1138 0.48641,-0.24971 0.65816,-0.45951 0.34985,-0.42736 0.5763,-0.94192 0.73103,-1.46843 0.2168,-0.7377 0.3082,-1.50404 0.39277,-2.26596 0.0471,-0.42408 0.0943,-0.84827 0.15828,-1.27028 0.027,-0.17831 0.0743,-0.35787 0.0593,-0.53782 -0.008,-0.0939 -0.037,-0.18457 -0.0687,-0.27269 -0.0512,-0.14226 -0.10299,-0.28869 -0.19552,-0.40916 -0.0298,-0.0388 -0.062,-0.0894 -0.1135,-0.0955 -0.0532,-0.006 -0.0804,0.0509 -0.0954,0.0924 -0.0102,0.0284 -0.0175,0.0577 -0.0235,0.0873"
       id="path55"
       inkscape:path-effect="#path-effect57"
       inkscape:original-d="m 171.56946,172.69708 c 0.99858,-0.67025 1.63417,-1.97393 2.6428,-2.61659 0.54195,-0.34531 -0.4116,0.60403 0.56758,-0.25528 0.86718,-0.76103 2.11991,-5.26894 1.43669,-6.42979 -0.10939,-0.18586 -1.35991,-0.81202 -1.57859,-0.8456 -1.1971,-0.18385 -3.01543,0.90353 -3.9908,1.45189 -0.60037,0.33752 -1.58172,0.53666 -2.21712,0.90942 -1.95201,1.14514 -3.01521,3.35956 -2.69601,5.56823 0.17433,1.20624 -0.0951,2.9729 0.94005,3.84511 1.13319,0.95481 5.59524,0.70596 6.5272,-0.44674 0.98506,-1.21838 1.02405,-3.19209 1.22384,-4.67476 0.0379,-0.28154 0.0944,-0.56176 0.10643,-0.8456 0.007,-0.1716 -0.37777,-1.19433 -0.49664,-0.60629" />
    <path
       style="fill:none;stroke:#000000;stroke-width:0.264583px;stroke-linecap:butt;stroke-linejoin:miter;stroke-opacity:1"
       d="m 164.90037,168.82006 c -0.56167,-0.20741 -1.09312,-0.53195 -1.68501,-0.62224 -0.25966,-0.0396 -0.52515,-0.0495 -0.77815,-0.12646 -0.42141,-0.12816 -0.80791,-0.34398 -1.19832,-0.54337 -0.37505,-0.19155 -0.76012,-0.37759 -1.17585,-0.46147 -0.29997,-0.0605 -0.61424,-0.0534 -0.90943,0.0304 -0.70939,0.20149 -1.38264,0.54425 -1.94146,1.0288 -0.54851,0.47561 -0.97202,1.08672 -1.25424,1.75407 -0.34747,0.82164 -0.4881,1.71909 -0.48893,2.60792 -3.7e-4,0.39552 0.0342,0.79002 0.0817,1.1825 0.0576,0.47545 0.10937,0.95632 0.25992,1.41349 0.11095,0.33691 0.28668,0.65383 0.52567,0.91716 0.15757,0.17362 0.33965,0.32294 0.52329,0.46772 0.55155,0.43482 1.18321,0.77668 1.86571,0.95352 0.62994,0.16322 1.29351,0.17295 1.93383,0.0665 0.80124,-0.13318 1.56519,-0.43123 2.29171,-0.78726 0.47332,-0.23195 0.9191,-0.51541 1.38514,-0.76126 0.37664,-0.19869 0.75489,-0.39508 1.11998,-0.61456 0.22257,-0.1338 0.44963,-0.26467 0.64691,-0.43431 0.0658,-0.0566 0.1401,-0.11173 0.17704,-0.19159 0.10816,-0.23379 0.13235,-0.49676 0.12314,-0.75125 -0.0171,-0.47244 -0.13585,-0.93238 -0.21615,-1.39622 -0.0182,-0.10542 -0.0345,-0.21127 -0.0449,-0.3178"
       id="path59"
       inkscape:path-effect="#path-effect61"
       inkscape:original-d="m 164.90037,168.82006 c -0.56167,-0.20741 -1.12334,-0.41483 -1.68501,-0.62224 -0.2424,-0.0372 -0.49102,-0.0456 -0.72721,-0.11168 -1.08761,-0.30408 -2.11458,-1.33838 -3.33454,-0.9892 -2.97938,0.85274 -3.96513,3.6142 -3.61834,6.44574 0.12149,0.99195 0.18554,1.92859 0.99327,2.6485 2.56845,2.28919 5.12327,1.35208 7.78652,-0.23932 0.1183,-0.0707 1.81142,-0.91296 1.96879,-1.26043 0.31277,-0.69055 -0.0734,-1.74801 -0.14189,-2.45704" />
    <path
       style="fill:none;stroke:#000000;stroke-width:0.264583px;stroke-linecap:butt;stroke-linejoin:miter;stroke-opacity:1"
       d="m 177.29849,129.06291 c -0.13864,-0.10662 -0.27789,-0.21274 -0.42355,-0.3097 -0.19496,-0.12978 -0.39609,-0.25558 -0.61732,-0.33492 -0.11546,-0.0414 -0.23936,-0.0716 -0.36316,-0.0547 -0.5915,0.0808 -1.16124,0.29015 -1.68146,0.5796 -0.59611,0.33168 -1.13841,0.76855 -1.56313,1.30411 -0.34298,0.43249 -0.6061,0.937 -0.71346,1.48159 -0.0788,0.39953 -0.0622,0.81777 0.0534,1.20886 0.13443,0.45494 0.39522,0.86313 0.70713,1.21668 0.40472,0.45875 0.8875,0.84125 1.38942,1.18747 0.3646,0.2515 0.73388,0.49666 1.11363,0.72475 0.57209,0.34362 1.17156,0.65232 1.81305,0.84392 0.50964,0.15222 1.05026,0.22555 1.57985,0.15332 0.15904,-0.0217 0.31956,-0.0464 0.47049,-0.10142 0.20044,-0.073 0.37396,-0.20372 0.53161,-0.34429 0.32786,-0.29233 0.60866,-0.63347 0.86549,-0.9885 0.42995,-0.59433 0.8043,-1.22962 1.11031,-1.89617 0.2205,-0.48029 0.41748,-0.97609 0.52452,-1.49481 0.0606,-0.29343 0.0999,-0.59787 0.0522,-0.89611 -0.0272,-0.17008 -0.094,-0.33686 -0.21072,-0.4661 -0.15439,-0.17101 -0.36065,-0.28441 -0.57053,-0.37311 -0.3211,-0.1357 -0.66228,-0.21317 -0.99105,-0.32679 -0.34959,-0.12082 -0.66563,-0.31731 -0.98013,-0.50822 -0.31209,-0.18945 -0.62538,-0.38479 -0.97176,-0.50589 -0.28549,-0.0998 -0.59142,-0.13575 -0.89274,-0.12298 -0.50645,0.0215 -0.99656,0.18852 -1.44287,0.42181 -0.57762,0.30193 -1.09479,0.70552 -1.58325,1.1339 -0.39828,0.34929 -0.77665,0.72027 -1.1613,1.08428"
       id="path63"
       inkscape:path-effect="#path-effect65"
       inkscape:original-d="m 177.29849,129.06291 c -0.0373,-0.0224 -0.92409,-0.76105 -1.38348,-0.70201 -1.75229,0.22518 -3.78754,1.74664 -4.00855,3.55792 -0.19955,1.63542 1.18356,2.75956 2.44769,3.60579 1.31615,0.88105 3.01519,1.9156 4.66481,1.45189 1.24658,-0.35042 3.87076,-4.86985 2.96207,-6.04688 -0.3601,-0.46644 -1.18071,-0.58986 -1.68501,-0.78178 -0.71056,-0.27042 -1.37892,-0.89441 -2.11069,-1.05302 -1.88023,-0.40754 -3.62402,1.43503 -4.84219,2.58468" />
    <path
       style="fill:none;stroke:#000000;stroke-width:0.264583px;stroke-linecap:butt;stroke-linejoin:miter;stroke-opacity:1"
       d="m 212.00965,217.86534 c -0.5108,-0.0314 -1.02774,0.0294 -1.51537,0.18658 -0.52626,0.16961 -1.01096,0.4501 -1.44952,0.78394 -0.40617,0.30918 -0.78186,0.65732 -1.13165,1.02836 -0.24933,0.26448 -0.43893,0.58938 -0.5231,0.94485 -0.086,0.36315 -0.0547,0.74747 0.0589,1.10108 0.14496,0.45153 0.40954,0.85828 0.73297,1.20209 0.36738,0.39052 0.81057,0.71394 1.30485,0.92322 0.24752,0.1048 0.50634,0.18226 0.7695,0.23638 0.41114,0.0846 0.83512,0.0987 1.25225,0.0559 0.36114,-0.037 0.71838,-0.10882 1.06776,-0.20636 0.54799,-0.15299 1.08026,-0.36774 1.57271,-0.6533 0.42555,-0.24677 0.82604,-0.54737 1.1439,-0.92549 0.253,-0.30097 0.44648,-0.65799 0.52576,-1.04527 0.0511,-0.24939 0.0618,-0.50933 0.0147,-0.75944 -0.0389,-0.20646 -0.13554,-0.39666 -0.24481,-0.5741 -0.16303,-0.26475 -0.365,-0.50253 -0.53799,-0.76041 -0.17695,-0.26379 -0.3371,-0.54117 -0.5499,-0.77882 -0.14926,-0.16669 -0.32871,-0.30772 -0.53129,-0.4036 -0.26814,-0.12691 -0.55429,-0.21584 -0.84764,-0.26104 -0.32584,-0.0502 -0.65627,-0.0542 -0.98419,-0.0832 -0.46947,-0.0416 -0.93814,-0.0944 -1.40892,-0.11958 -0.29989,-0.016 -0.60029,-0.0194 -0.90055,-0.0194"
       id="path67"
       inkscape:path-effect="#path-effect69"
       inkscape:original-d="m 212.00965,217.86534 c -1.70651,-0.10112 -2.90423,0.77246 -4.06176,1.96244 -1.50791,1.55019 0.0644,3.70496 1.75596,4.29185 0.92386,0.32054 1.74625,0.28153 2.69602,0.0479 1.4774,-0.36347 3.69433,-1.49413 3.44095,-3.38242 -0.0675,-0.50318 -0.54957,-1.015 -0.8159,-1.41998 -0.31759,-0.48294 -0.55412,-0.91932 -1.09968,-1.16469 -0.7037,-0.3165 -1.17294,-0.26387 -1.91559,-0.33506 -1.01344,-0.0971 -1.30951,-0.12763 -2.18164,-0.12763" />
    <path
       style="fill:none;stroke:#000000;stroke-width:0.264583px;stroke-linecap:butt;stroke-linejoin:miter;stroke-opacity:1"
       d="m 205.10998,215.96672 c -0.56343,-0.20101 -1.1426,-0.37078 -1.73854,-0.43939 -0.46722,-0.0538 -0.94645,-0.0331 -1.40096,0.0946 -0.45593,0.1281 -0.8746,0.36537 -1.24817,0.65321 -0.46537,0.35857 -0.87333,0.78477 -1.2624,1.22312 -0.0987,0.11119 -0.19581,0.2237 -0.297,0.33271 -0.15101,0.16268 -0.30297,0.32907 -0.40999,0.52504 -0.0619,0.11339 -0.10566,0.24104 -0.0986,0.37209 0.01,0.17812 0.0669,0.34989 0.1361,0.51278 0.13117,0.3087 0.30461,0.59714 0.48534,0.87889 0.13594,0.21192 0.27587,0.42118 0.41406,0.63165 0.30433,0.46352 0.68495,0.88244 1.14513,1.19572 0.40143,0.27328 0.86092,0.45498 1.33536,0.55403 0.60781,0.1269 1.23411,0.131 1.85111,0.0873 0.35091,-0.0248 0.70141,-0.059 1.04943,-0.11025 0.37888,-0.0557 0.75521,-0.14026 1.11381,-0.27609 0.24022,-0.091 0.47138,-0.20923 0.67647,-0.36547 0.22023,-0.16777 0.41978,-0.37009 0.55197,-0.6158 0.12462,-0.23165 0.1803,-0.49307 0.20748,-0.75266 0.0299,-0.28553 0.0401,-0.57273 0.0446,-0.85956 0.005,-0.33071 -0.0289,-0.66366 -0.11811,-0.98254 -0.0744,-0.26582 -0.18894,-0.52567 -0.3701,-0.73681 -0.0937,-0.10921 -0.20879,-0.19853 -0.33418,-0.26877 -0.24923,-0.13962 -0.51565,-0.24602 -0.78506,-0.33942 -0.53936,-0.18699 -1.09551,-0.32888 -1.66105,-0.40758 -0.42,-0.0584 -0.8481,-0.0905 -1.27017,-0.0375 -0.26911,0.0338 -0.54073,0.10189 -0.77169,0.24943 -0.17146,0.10953 -0.30758,0.27445 -0.37604,0.46707 -0.0195,0.055 -0.0339,0.11173 -0.0438,0.16923"
       id="path71"
       inkscape:path-effect="#path-effect73"
       inkscape:original-d="m 205.10998,215.96672 c -2.80842,-1.00788 -4.0114,-0.36594 -5.81771,1.72311 -0.17545,0.20291 -0.63024,0.61631 -0.63853,0.98921 -0.013,0.5866 0.72884,1.58743 0.97553,1.97839 1.28394,2.03489 3.09138,2.12175 5.33882,1.83481 0.57385,-0.0733 1.34211,-0.25427 1.8269,-0.60629 0.82877,-0.60179 0.83416,-1.15872 0.86911,-2.23367 0.0199,-0.61285 -0.12136,-1.56059 -0.70948,-1.96245 -0.83799,-0.57259 -4.72849,-1.66966 -5.01955,0.0319" />
    <path
       style="fill:none;stroke:#000000;stroke-width:0.264583px;stroke-linecap:butt;stroke-linejoin:miter;stroke-opacity:1"
       d="m 216.14235,207.49471 c -0.39143,-0.14662 -0.80671,-0.24118 -1.22669,-0.2366 -0.38208,0.004 -0.75764,0.0952 -1.11659,0.22105 -0.34937,0.12245 -0.69047,0.26732 -1.02825,0.41833 -0.45729,0.20444 -0.91208,0.42276 -1.32411,0.71007 -0.30558,0.21308 -0.57828,0.47469 -0.79475,0.7786 -0.28583,0.40128 -0.48096,0.85826 -0.64807,1.31912 -0.13068,0.3604 -0.25173,0.7244 -0.36004,1.0921 -0.0685,0.23244 -0.12864,0.47264 -0.11691,0.71704 0.0119,0.24747 0.0984,0.48543 0.21117,0.70353 0.20436,0.39515 0.5345,0.71339 0.9073,0.9502 0.48378,0.30731 1.03216,0.49904 1.58829,0.62602 0.7819,0.17853 1.58673,0.24269 2.38741,0.23363 0.77401,-0.009 1.54969,-0.0746 2.30784,-0.2327 0.40431,-0.0843 0.80817,-0.18723 1.18616,-0.35674 0.54838,-0.24592 1.04494,-0.60034 1.47366,-1.01976 0.12808,-0.1253 0.25839,-0.25013 0.36665,-0.39295 0.097,-0.12792 0.13844,-0.28744 0.16165,-0.44365 0.0383,-0.25793 0.0206,-0.51961 0.0331,-0.77912 0.0154,-0.31856 0.0486,-0.63928 0.008,-0.95727 -0.0211,-0.16334 -0.0663,-0.32568 -0.15248,-0.46777 -0.17623,-0.29071 -0.39598,-0.55262 -0.62842,-0.79953 -0.41431,-0.4401 -0.8695,-0.8422 -1.35899,-1.19661 -0.36635,-0.26525 -0.74935,-0.51358 -1.16626,-0.69144 -0.23044,-0.0983 -0.47248,-0.18472 -0.72453,-0.19638 -0.16214,-0.007 -0.31671,0.0568 -0.45469,0.13638 -0.20943,0.12074 -0.39575,0.28276 -0.62165,0.37359 -0.10635,0.0428 -0.21914,0.0669 -0.33097,0.0901 -0.47356,0.0986 -0.96264,0.0878 -1.44087,0.0275 -0.19682,-0.0248 -0.39067,-0.072 -0.58831,-0.0889 -0.057,-0.005 -0.11647,-0.0136 -0.17203,0.005 -0.0462,0.0151 -0.0365,0.0713 -0.0198,0.1061 0.046,0.0959 0.11526,0.17819 0.18279,0.25937 0.0183,0.0219 0.0367,0.0437 0.0553,0.0654"
       id="path75"
       inkscape:path-effect="#path-effect77"
       inkscape:original-d="m 216.14235,207.49471 c -1.20243,-0.44805 -1.94786,-0.20569 -3.06849,0.27124 -2.23962,0.95314 -2.63811,1.4917 -3.38776,3.89297 -0.18186,0.58255 -0.24469,0.90947 0,1.45189 1.04865,2.32454 6.02979,2.15272 8.07031,1.46784 0.83762,-0.28114 1.61022,-0.86647 2.18164,-1.53166 0.2543,-0.29603 0.1967,-0.91657 0.21285,-1.26043 0.0187,-0.39757 0.0895,-0.99941 -0.12416,-1.37212 -0.59157,-1.032 -2.71241,-2.84084 -3.88439,-2.91973 -0.43446,-0.0292 -0.7691,0.42491 -1.18837,0.54246 -1.681,0.47131 -3.05525,-0.54489 -2.21712,0.43079" />
    <path
       style="fill:none;stroke:#000000;stroke-width:0.264583px;stroke-linecap:butt;stroke-linejoin:miter;stroke-opacity:1"
       d="m 228.80652,211.1005 c -0.39351,-0.2678 -0.74922,-0.59278 -1.1699,-0.81879 -0.0901,-0.0484 -0.18012,-0.10079 -0.28129,-0.12256 -0.1834,-0.0395 -0.37404,-0.0124 -0.55281,0.0359 -0.29949,0.0808 -0.58078,0.21597 -0.85425,0.36016 -0.23237,0.12252 -0.45917,0.25502 -0.69084,0.37895 -0.43356,0.23194 -0.86492,0.4741 -1.25418,0.77609 -0.28337,0.21984 -0.54764,0.47631 -0.72253,0.79308 -0.1357,0.24579 -0.20154,0.5271 -0.20059,0.80734 0.001,0.3748 0.10264,0.74138 0.23347,1.08983 0.11794,0.31412 0.26996,0.6137 0.41812,0.91441 0.16195,0.32869 0.30745,0.66731 0.50716,0.97559 0.0813,0.12547 0.17511,0.2436 0.2888,0.34204 0.4088,0.35399 0.89504,0.60906 1.40027,0.79517 0.71685,0.26406 1.47897,0.40418 2.2423,0.41761 0.66312,0.0117 1.33462,-0.0681 1.96005,-0.29594 0.4861,-0.17708 0.94368,-0.45476 1.28639,-0.84716 0.28369,-0.32482 0.47152,-0.7281 0.55428,-1.1506 0.0578,-0.29502 0.0884,-0.60058 0.0439,-0.89754 -0.0197,-0.13147 -0.0725,-0.25534 -0.12886,-0.3746 -0.15908,-0.33657 -0.35421,-0.65476 -0.55831,-0.9655 -0.42563,-0.648 -0.88976,-1.27086 -1.38892,-1.86391 -0.37426,-0.44466 -0.76091,-0.88202 -1.19655,-1.26765 -0.20979,-0.18571 -0.42561,-0.3713 -0.67635,-0.49889 -0.11805,-0.0601 -0.24835,-0.12397 -0.38278,-0.10627 -0.0834,0.011 -0.1642,0.0376 -0.24341,0.0651 -0.37538,0.13072 -0.71521,0.34782 -1.02102,0.59875 -0.41378,0.33953 -0.77649,0.73956 -1.08611,1.17547 -0.16637,0.23423 -0.31824,0.47933 -0.44588,0.7369"
       id="path79"
       inkscape:path-effect="#path-effect81"
       inkscape:original-d="m 228.80652,211.1005 c -0.43751,-0.29782 -0.83709,-0.66095 -1.31254,-0.89347 -0.58733,-0.28724 -1.68003,0.43532 -2.12843,0.6701 -2.33488,1.22257 -2.8619,2.05711 -1.66727,4.37162 0.18427,0.35702 0.47203,1.05981 0.78043,1.3402 2.06071,1.87359 7.82624,1.97204 7.53819,-1.91457 -0.0621,-0.8379 -3.41075,-5.32353 -4.38102,-5.08958 -1.11569,0.269 -2.25334,1.56505 -2.74922,2.56872" />
    <path
       style="fill:none;stroke:#000000;stroke-width:0.264583px;stroke-linecap:butt;stroke-linejoin:miter;stroke-opacity:1"
       d="m 194.75162,174.94209 c -0.36364,-0.18396 -0.73493,-0.35345 -1.08732,-0.55918 -0.32389,-0.18909 -0.63963,-0.39707 -0.98913,-0.53735 -0.24717,-0.0992 -0.51406,-0.15388 -0.78131,-0.142 -0.1712,0.008 -0.33921,0.0464 -0.5023,0.0978 -0.39764,0.12517 -0.7873,0.27632 -1.16439,0.45389 -0.31038,0.14616 -0.61485,0.30821 -0.89483,0.50754 -0.11967,0.0852 -0.22938,0.18334 -0.33332,0.28698 -0.31621,0.31527 -0.60736,0.65546 -0.87515,1.01254 -0.28967,0.38625 -0.56049,0.79046 -0.76361,1.2294 -0.12587,0.27201 -0.2321,0.55884 -0.26049,0.85914 -0.0196,0.20746 0.006,0.42628 0.11431,0.60817 0.0803,0.13523 0.20019,0.24078 0.31533,0.34518 0.53373,0.48395 1.18648,0.82325 1.86939,1.04271 0.8639,0.27763 1.78282,0.37961 2.68677,0.30941 0.79056,-0.0614 1.5775,-0.25402 2.2849,-0.61775 0.57556,-0.29594 1.09263,-0.71712 1.46555,-1.24948 0.32926,-0.47004 0.53003,-1.0238 0.60524,-1.59168 0.0253,-0.19127 0.0371,-0.38412 0.0409,-0.57689 0.003,-0.15857 -0.002,-0.32225 -0.0629,-0.47126 -0.0297,-0.0733 -0.0793,-0.1363 -0.1367,-0.19038 -0.20569,-0.19369 -0.45884,-0.32666 -0.71454,-0.44168 -0.29683,-0.13352 -0.6019,-0.25068 -0.88462,-0.4139 -0.48522,-0.28013 -0.93488,-0.62123 -1.44093,-0.86507 -0.33938,-0.16353 -0.70226,-0.27578 -1.07111,-0.34928 -0.45314,-0.0903 -0.92095,-0.12827 -1.38054,-0.0693 -0.34219,0.0439 -0.68354,0.14561 -0.971,0.34147 -0.22874,0.15585 -0.40997,0.37863 -0.51861,0.63336 -0.0582,0.13646 -0.0966,0.2809 -0.11903,0.4274"
       id="path83"
       inkscape:path-effect="#path-effect85"
       inkscape:original-d="m 194.75162,174.94209 c -0.32517,-0.16486 -0.65853,-0.3145 -0.97553,-0.49459 -0.73821,-0.41939 -1.38283,-0.94391 -2.3058,-0.67011 -0.6522,0.19348 -1.82136,0.66683 -2.35901,1.1647 -0.74586,0.69066 -2.6722,3.02553 -1.79143,3.9568 2.44638,2.58666 8.94562,2.09958 9.15226,-2.24963 0.0139,-0.29175 0.0477,-0.65584 -0.15964,-0.86156 -0.42004,-0.41679 -1.04478,-0.55609 -1.56085,-0.84561 -0.58372,-0.32746 -1.11697,-0.7561 -1.73822,-1.00515 -1.27936,-0.51286 -3.56239,-0.66806 -3.83118,1.08493" />
    <path
       style="fill:none;stroke:#000000;stroke-width:0.264583px;stroke-linecap:butt;stroke-linejoin:miter;stroke-opacity:1"
       d="m 227.2634,173.68167 c -0.25742,-0.19801 -0.45874,-0.46334 -0.73575,-0.63642 -0.0763,-0.0477 -0.1545,-0.12343 -0.24413,-0.11415 -0.0538,0.006 -0.10482,0.0263 -0.15511,0.0452 -0.26277,0.0988 -0.51983,0.21199 -0.77723,0.32385 -0.13346,0.058 -0.26285,0.12604 -0.39942,0.17621 -0.18161,0.0667 -0.3768,0.0858 -0.56925,0.0823 -0.23083,-0.004 -0.46363,-0.032 -0.69305,0.007 -0.26134,0.0446 -0.50314,0.16477 -0.7241,0.30737 -0.2929,0.18903 -0.5587,0.41536 -0.83204,0.63069 -0.32059,0.25255 -0.64234,0.50751 -0.9204,0.80763 -0.21161,0.2284 -0.38947,0.49266 -0.49181,0.78859 -0.12127,0.35068 -0.13114,0.72865 -0.10095,1.09538 0.025,0.30431 0.0859,0.6038 0.14137,0.90355 0.0751,0.40584 0.15702,0.81542 0.32645,1.19428 0.12601,0.28177 0.31066,0.53939 0.55027,0.73591 0.22705,0.18622 0.49627,0.31357 0.77058,0.41306 0.52232,0.18944 1.07528,0.28374 1.62824,0.32 0.69925,0.0459 1.40583,0.008 2.09275,-0.13182 0.47387,-0.0966 0.94364,-0.23715 1.37074,-0.46742 0.3979,-0.21453 0.74037,-0.51874 1.04343,-0.85104 0.46067,-0.50512 0.84546,-1.07685 1.16321,-1.68112 0.3142,-0.59751 0.57319,-1.22833 0.72387,-1.88745 0.0945,-0.4132 0.20648,-0.84864 0.11367,-1.26399 -0.0108,-0.0485 -0.0485,-0.0854 -0.0827,-0.11891 -0.14064,-0.13793 -0.29927,-0.25595 -0.45857,-0.37109 -0.4888,-0.3533 -0.99499,-0.68183 -1.50537,-1.00281 -0.55708,-0.35035 -1.11345,-0.70299 -1.68897,-1.02227 -0.10464,-0.058 -0.20555,-0.1248 -0.3169,-0.16895 -0.12791,-0.0507 -0.26504,-0.0727 -0.40082,-0.0895 -0.35061,-0.0435 -0.70424,-0.0546 -1.05714,-0.0604 -0.22651,-0.004 -0.45318,-0.01 -0.67868,-0.0343 -0.14353,-0.0157 -0.28369,-0.0532 -0.42673,-0.0719 -0.042,-0.005 -0.0959,-0.0237 -0.12857,0.01 -0.0328,0.0334 -0.0384,0.083 -0.0453,0.12698 -0.0139,0.0888 -0.0246,0.17806 -0.039,0.26677"
       id="path87"
       inkscape:path-effect="#path-effect89"
       inkscape:original-d="m 227.2634,173.68167 c -0.32517,-0.24996 -0.58448,-0.62619 -0.97553,-0.74988 -0.0748,-0.0237 -1.31583,0.5372 -1.33027,0.54246 -0.49835,0.18192 -0.89863,-0.004 -1.36574,0.11169 -0.51819,0.12795 -0.96969,0.5381 -1.36574,0.8456 -1.33914,1.03976 -1.85316,1.57602 -1.52538,3.33456 0.17582,0.94329 0.2928,1.93792 1.22385,2.45704 1.45315,0.81021 4.3462,0.71962 5.74676,-0.15955 1.50748,-0.94628 3.03278,-3.81146 2.87339,-5.58419 -0.0277,-0.30785 -3.66139,-2.51296 -4.04402,-2.68041 -0.35595,-0.15576 -1.4372,-0.14911 -1.75596,-0.15954 -1.08855,-0.0356 -0.92449,-0.35323 -1.02874,0.30314" />
    <path
       style="fill:none;stroke:#000000;stroke-width:0.264583px;stroke-linecap:butt;stroke-linejoin:miter;stroke-opacity:1"
       d="m 213.32218,171.63945 c -0.40664,-0.16551 -0.85383,-0.24593 -1.29221,-0.19008 -0.42313,0.0539 -0.82171,0.24277 -1.15241,0.50909 -0.42558,0.34273 -0.75022,0.79639 -0.99504,1.28132 -0.32097,0.63577 -0.52213,1.32975 -0.61129,2.03528 -0.0755,0.59712 -0.0785,1.20861 0.043,1.79971 0.0866,0.42147 0.24107,0.83635 0.50277,1.18217 0.24477,0.32345 0.57885,0.57407 0.94961,0.73633 0.46738,0.20454 0.98155,0.28045 1.48873,0.28395 0.66672,0.005 1.33023,-0.10339 1.97352,-0.27279 0.62615,-0.16489 1.23363,-0.39498 1.82266,-0.66415 0.39633,-0.18111 0.79474,-0.36371 1.15773,-0.60684 0.24604,-0.1648 0.48038,-0.35581 0.65514,-0.59723 0.0992,-0.13708 0.17016,-0.29356 0.21106,-0.45819 0.0808,-0.32506 0.0656,-0.67039 -0.0293,-0.9909 -0.12091,-0.40833 -0.35419,-0.77442 -0.62691,-1.09764 -0.37785,-0.44783 -0.82888,-0.82762 -1.29879,-1.17499 -0.47166,-0.34866 -0.97257,-0.65465 -1.46587,-0.97125 -0.30989,-0.19889 -0.57396,-0.46274 -0.89546,-0.64447 -0.1459,-0.0825 -0.30598,-0.14017 -0.47244,-0.16476 -0.44396,-0.0656 -0.90323,-0.0791 -1.34196,0.0283 -0.32675,0.08 -0.63926,0.23972 -0.8724,0.48607 -0.22295,0.23558 -0.35695,0.54626 -0.40088,0.86601 -0.0574,0.41808 0.0237,0.84573 0.18165,1.23374 0.19051,0.46803 0.49185,0.88695 0.85502,1.23644"
       id="path91"
       inkscape:path-effect="#path-effect93"
       inkscape:original-d="m 213.32218,171.63945 c -3.40435,-1.37468 -5.00829,4.40994 -3.58286,6.50956 1.28735,1.89625 4.60118,0.99753 6.2434,0.22337 0.56034,-0.26415 1.83654,-0.77835 2.07522,-1.62739 0.5366,-1.90878 -2.13194,-3.50111 -3.38775,-4.29185 -0.44414,-0.27966 -0.82949,-0.73246 -1.34801,-0.81369 -3.03858,-0.47602 -3.34583,2.1799 -1.61405,3.84511" />
    <path
       style="fill:none;stroke:#000000;stroke-width:0.264583px;stroke-linecap:butt;stroke-linejoin:miter;stroke-opacity:1"
       d="m 231.6799,183.89275 c -0.14047,-0.0124 -0.27847,-0.0701 -0.37786,-0.172 -0.12455,-0.12766 -0.18881,-0.29884 -0.24273,-0.46544 -0.068,-0.21015 -0.11548,-0.42958 -0.22232,-0.6249 -0.0668,-0.12214 -0.16677,-0.2328 -0.29836,-0.28346 -0.1368,-0.0527 -0.28061,-0.0864 -0.42508,-0.10963 -0.50236,-0.0808 -1.01808,-0.006 -1.49988,0.1451 -0.62525,0.1967 -1.20707,0.51024 -1.75603,0.86444 -0.76543,0.49387 -1.45846,1.08772 -2.16287,1.66317 -0.23494,0.19193 -0.49459,0.35015 -0.74443,0.52136 -0.22671,0.15536 -0.45614,0.31291 -0.64342,0.51574 -0.11434,0.12383 -0.21584,0.27056 -0.24313,0.44055 -0.0189,0.11773 0.0124,0.23708 0.0636,0.34357 0.24774,0.51518 0.60969,0.96802 1.01691,1.36581 0.51822,0.50622 1.10923,0.93428 1.73476,1.29784 0.43783,0.25447 0.89542,0.47391 1.36176,0.67049 0.72364,0.30504 1.47962,0.55112 2.26198,0.64481 0.62321,0.0746 1.26504,0.0386 1.86565,-0.15282 0.5671,-0.18072 1.08212,-0.50575 1.51253,-0.9146 0.5224,-0.49623 0.94807,-1.09267 1.2597,-1.73919 0.1056,-0.21908 0.15622,-0.46008 0.18786,-0.69966 0.0581,-0.44002 0.0594,-0.88548 0.0407,-1.3282 -0.0155,-0.36642 -0.0521,-0.73147 -0.0919,-1.09599 -0.0437,-0.40053 -0.0609,-0.80672 -0.16441,-1.19809 -0.0802,-0.3035 -0.22631,-0.59244 -0.44528,-0.82028 -0.24752,-0.25755 -0.58315,-0.41563 -0.92961,-0.48895 -0.46749,-0.0989 -0.95244,-0.073 -1.42069,0.005 -0.70317,0.11709 -1.38469,0.34091 -2.04139,0.61436 -0.712,0.29648 -1.40336,0.64507 -2.05682,1.05494 -0.23457,0.14713 -0.4655,0.30098 -0.68301,0.4726"
       id="path95"
       inkscape:path-effect="#path-effect97"
       inkscape:original-d="m 231.6799,183.89275 c -0.83843,-0.0846 -0.49444,-1.33428 -1.18838,-1.56358 -1.98886,-0.65718 -4.44265,1.44001 -5.78223,2.56873 -0.61383,0.51721 -1.93603,1.07564 -1.59633,1.80289 0.60791,1.30147 2.08323,2.38014 3.33455,2.99951 3.10961,1.53918 5.8558,1.71193 7.68009,-1.77099 0.37742,-0.72058 0.24085,-2.38669 0.15963,-3.06332 -0.0678,-0.56442 -0.0671,-1.16576 -0.31927,-1.67526 -1.17257,-2.36939 -6.08473,0.15938 -7.43178,1.22852" />
    <path
       style="fill:none;stroke:#000000;stroke-width:0.264583px;stroke-linecap:butt;stroke-linejoin:miter;stroke-opacity:1"
       d="m 231.55573,189.36524 c -0.69408,-0.24143 -1.42927,-0.35614 -2.16283,-0.367 -0.82442,-0.0122 -1.65555,0.10217 -2.43342,0.3805 -0.64218,0.22978 -1.24854,0.58031 -1.73096,1.0669 -0.39441,0.39782 -0.69564,0.88864 -0.86343,1.4232 -0.11819,0.37653 -0.22438,0.76142 -0.24715,1.15739 -0.0178,0.30954 0.0252,0.62231 0.12704,0.9152 0.0869,0.25003 0.20551,0.48974 0.35633,0.70736 0.30058,0.43369 0.7232,0.77056 1.18326,1.02224 0.58552,0.32031 1.23025,0.52063 1.88401,0.64402 0.75498,0.14249 1.52763,0.19344 2.29444,0.14878 0.43611,-0.0254 0.87443,-0.0698 1.2965,-0.18462 0.31285,-0.0851 0.60336,-0.23794 0.87192,-0.41702 0.37779,-0.25192 0.72124,-0.55474 1.02289,-0.89384 0.21878,-0.24594 0.4124,-0.51533 0.5621,-0.80928 0.42721,-0.83886 0.52239,-1.84565 0.23918,-2.74564 -0.16691,-0.53042 -0.4762,-1.0181 -0.89973,-1.38111 -0.38503,-0.33001 -0.86268,-0.53856 -1.35766,-0.64205 -0.11335,-0.0237 -0.22865,-0.0391 -0.34473,-0.0374 -0.28734,0.004 -0.57249,0.0514 -0.85198,0.1152 -0.49446,0.11296 -0.98023,0.27371 -1.43315,0.50298 -0.31212,0.158 -0.61504,0.34584 -0.85997,0.59823 -0.17446,0.17978 -0.31725,0.40161 -0.36002,0.65223 -0.0289,0.16929 -0.007,0.34488 0.0536,0.50507"
       id="path99"
       inkscape:path-effect="#path-effect101"
       inkscape:original-d="m 231.55573,189.36524 c -2.43501,-0.85323 -6.31349,-0.30788 -7.20118,2.53683 -0.27476,0.88049 -0.3953,1.58712 0.0887,2.48894 1.1143,2.07628 4.89743,2.35601 6.77551,1.89862 0.86694,-0.21113 1.90134,-1.13554 2.359,-1.88266 1.15594,-1.88703 0.44377,-4.66085 -2.02201,-5.04173 -0.85768,-0.13248 -4.23139,0.80258 -3.6538,2.36131" />
    <path
       style="fill:none;stroke:#000000;stroke-width:0.264583px;stroke-linecap:butt;stroke-linejoin:miter;stroke-opacity:1"
       d="m 247.9624,186.17428 c -0.48425,-0.28307 -0.99548,-0.53307 -1.54258,-0.66669 -0.39519,-0.0965 -0.81661,-0.12694 -1.21308,-0.0178 -0.32381,0.0891 -0.61332,0.28572 -0.82689,0.544 -0.26892,0.32522 -0.42806,0.72752 -0.5198,1.13569 -0.13388,0.59566 -0.14474,1.21346 -0.0856,1.819 0.0778,0.79611 0.26664,1.58275 0.57077,2.32265 0.22028,0.5359 0.49642,1.0554 0.87153,1.49952 0.26385,0.31239 0.58201,0.59099 0.96273,0.75059 0.28454,0.11928 0.60427,0.15329 0.90727,0.0915 0.38999,-0.0795 0.73701,-0.29937 1.02857,-0.5634 0.40769,-0.3692 0.73247,-0.82007 1.01508,-1.28921 0.34938,-0.57997 0.64426,-1.1979 0.8259,-1.8516 0.12071,-0.43442 0.19377,-0.88698 0.1659,-1.33868 -0.017,-0.27503 -0.0735,-0.54731 -0.16072,-0.80839 -0.12949,-0.38747 -0.34898,-0.74926 -0.65708,-1.02107 -0.30146,-0.26595 -0.68387,-0.43192 -1.07982,-0.49332 -0.52904,-0.082 -1.07618,0.008 -1.56704,0.21498 -0.59734,0.25169 -1.12368,0.68256 -1.46337,1.23758 -0.24782,0.40491 -0.38446,0.87696 -0.38874,1.35182 0,0 -2.2e-4,0.0345 -2.2e-4,0.0345"
       id="path103"
       inkscape:path-effect="#path-effect105"
       inkscape:original-d="m 247.9624,186.17428 c -7.82876,-4.60318 -3.21402,13.7001 1.38348,5.24913 0.47412,-0.87151 0.91467,-2.06322 0.74495,-3.09523 -0.57051,-3.46914 -5.28561,-2.14985 -5.28561,0.79775" />
    <path
       style="fill:none;stroke:#000000;stroke-width:0.264583px;stroke-linecap:butt;stroke-linejoin:miter;stroke-opacity:1"
       d="m 165.46948,143.11486 c -0.48986,-0.24872 -1.03913,-0.37793 -1.58871,-0.37507 -0.65708,0.003 -1.30619,0.19439 -1.87799,0.51399 -0.6865,0.38371 -1.27581,0.94321 -1.68706,1.61261 -0.15051,0.24499 -0.23545,0.53192 -0.22796,0.82065 0.009,0.33593 0.13746,0.6584 0.31833,0.93771 0.24154,0.37301 0.56554,0.68628 0.91789,0.95378 0.45057,0.34206 0.94861,0.62233 1.4756,0.82744 0.34048,0.13252 0.69414,0.23879 1.0582,0.2804 0.19579,0.0224 0.39339,0.0123 0.58934,-0.001 0.72995,-0.0512 1.45195,-0.25089 2.09432,-0.60431 0.58325,-0.32089 1.09507,-0.77029 1.48862,-1.30691 0.11091,-0.15123 0.21838,-0.30594 0.30696,-0.47135 0.19863,-0.37091 0.27331,-0.79733 0.26788,-1.21485 -0.007,-0.56169 -0.14413,-1.11748 -0.367,-1.63126 -0.23377,-0.5389 -0.5609,-1.04246 -0.98763,-1.44841 -0.32789,-0.31192 -0.72196,-0.56451 -1.16193,-0.68325 -0.26653,-0.0719 -0.54719,-0.0856 -0.82048,-0.0475 -0.345,0.0481 -0.68323,0.13655 -1.0148,0.2417 -0.53736,0.17042 -1.06337,0.38079 -1.56084,0.64645 -0.33883,0.18094 -0.66951,0.38371 -0.95716,0.63986 -0.14574,0.12978 -0.27578,0.27774 -0.37951,0.44373 -0.25311,0.40503 -0.43662,0.84767 -0.65731,1.27008"
       id="path107"
       inkscape:path-effect="#path-effect109"
       inkscape:original-d="m 165.46948,143.11486 c -1.86434,-0.94072 -4.0134,-0.0164 -5.12598,1.70716 -1.22159,1.89247 2.23854,3.89457 3.76023,3.87702 1.73734,-0.02 3.27862,-0.80921 4.18591,-2.31345 1.05434,-1.74804 -0.69168,-5.32924 -2.90885,-5.12149 -1.02583,0.0961 -3.36483,0.96274 -3.99081,1.93054 -0.27047,0.41816 -0.46116,0.88283 -0.69174,1.32424" />
    <path
       style="fill:none;stroke:#000000;stroke-width:0.264583px;stroke-linecap:butt;stroke-linejoin:miter;stroke-opacity:1"
       d="m 154.89826,143.7371 c -0.35124,-0.0717 -0.68931,-0.22425 -1.04976,-0.23369 -0.0538,-0.001 -0.11022,-0.0153 -0.16233,0.002 -0.10336,0.035 -0.20021,0.0865 -0.29601,0.13808 -0.25895,0.1395 -0.51561,0.28404 -0.76222,0.44424 -0.56259,0.36547 -1.07373,0.81501 -1.48836,1.34342 -0.36161,0.46084 -0.64821,0.98847 -0.78735,1.56029 -0.11289,0.46393 -0.11235,0.95325 -0.006,1.41915 0.0403,0.17693 0.0996,0.34981 0.18237,0.51154 0.17034,0.33269 0.416,0.62112 0.68747,0.87539 0.26746,0.25052 0.55795,0.47652 0.86533,0.67583 0.7982,0.51757 1.72493,0.84595 2.67688,0.90637 0.75911,0.0482 1.53122,-0.0861 2.22343,-0.40486 0.63411,-0.29199 1.19073,-0.74128 1.62937,-1.2829 0.34856,-0.43039 0.63433,-0.91775 0.79427,-1.45059 0.16124,-0.53717 0.17962,-1.11481 0.0592,-1.66253 -0.14711,-0.66902 -0.49104,-1.28409 -0.93859,-1.79824 -0.57915,-0.66533 -1.32492,-1.18008 -2.14187,-1.50876 -0.76675,-0.30848 -1.60578,-0.43908 -2.432,-0.36354 -0.12829,0.0117 -0.25571,0.0362 -0.37721,0.0798 -0.28314,0.10167 -0.53408,0.27074 -0.79247,0.42103 -0.27513,0.16003 -0.55208,0.32227 -0.79451,0.5297 -0.13402,0.11467 -0.2633,0.24425 -0.33652,0.40755 -0.052,0.11595 -0.0589,0.24953 -0.0241,0.37147 0.0505,0.17687 0.15834,0.3306 0.27354,0.47102 0.2078,0.25328 0.44311,0.4821 0.67649,0.71137 0.0347,0.034 0.0694,0.068 0.10407,0.10205"
       id="path111"
       inkscape:path-effect="#path-effect113"
       inkscape:original-d="m 154.89826,143.7371 c -0.39021,-0.0798 -0.77237,-0.23547 -1.17063,-0.23933 -0.14343,-0.001 -1.08237,0.57913 -1.09969,0.59033 -1.4104,0.91233 -2.79737,2.61151 -2.23486,4.49927 0.19528,0.65533 0.76438,1.20018 1.27707,1.59547 2.28596,1.76252 5.51244,1.7004 7.23666,-0.89347 2.19551,-3.30287 -1.72865,-6.83151 -5.07276,-6.36597 -0.36708,0.0511 -0.68914,0.27895 -1.01101,0.46269 -1.76053,1.00501 -1.43739,1.34767 -0.14189,2.61659" />
    <path
       style="fill:none;stroke:#000000;stroke-width:0.264583px;stroke-linecap:butt;stroke-linejoin:miter;stroke-opacity:1"
       d="m 166.5869,134.83431 c -0.4606,-0.0854 -0.94421,-0.0764 -1.3928,0.0675 -0.40955,0.13146 -0.77765,0.38319 -1.05481,0.71184 -0.35492,0.42086 -0.5583,0.95696 -0.61385,1.50212 -0.0701,0.6881 0.098,1.39531 0.46002,1.98398 0.21693,0.35272 0.49915,0.66637 0.83122,0.91354 0.31443,0.23404 0.69218,0.37348 1.07837,0.43053 0.48585,0.0718 0.98207,0.0279 1.46048,-0.0723 0.64183,-0.13443 1.26023,-0.36372 1.8555,-0.63592 0.47263,-0.21612 0.92794,-0.46759 1.37809,-0.72703 0.34963,-0.20151 0.69746,-0.41409 0.99393,-0.69011 0.17238,-0.16049 0.3306,-0.34324 0.42777,-0.55994 0.072,-0.16053 0.0983,-0.34269 0.0637,-0.51638 -0.0335,-0.16791 -0.13294,-0.31407 -0.24443,-0.44013 -0.19693,-0.22267 -0.43425,-0.40564 -0.67984,-0.57108 -0.44297,-0.2984 -0.91646,-0.54915 -1.40083,-0.77288 -0.52049,-0.24042 -1.0526,-0.45856 -1.60095,-0.62665 -0.23994,-0.0735 -0.48289,-0.14015 -0.73126,-0.17914 -0.12134,-0.019 -0.24571,-0.015 -0.36594,0.01 -0.24427,0.0506 -0.47095,0.16363 -0.68037,0.29611 -0.32181,0.20358 -0.61369,0.45146 -0.88386,0.71886 -0.13985,0.13842 -0.27792,0.27938 -0.40197,0.43222 -0.081,0.0998 -0.1245,0.22703 -0.12752,0.35517 -0.005,0.21466 0.0781,0.41756 0.13949,0.61937"
       id="path115"
       inkscape:path-effect="#path-effect117"
       inkscape:original-d="m 166.5869,134.83431 c -3.05209,-0.55991 -4.14471,3.26364 -1.84464,5.1215 1.56901,1.26735 4.34159,-0.0597 5.78224,-0.90943 0.4182,-0.24668 1.75664,-0.96176 1.54311,-1.8348 -0.25756,-1.05309 -3.76345,-2.48993 -4.73576,-2.56872 -0.82954,-0.0672 -1.93314,1.09303 -2.23485,1.45188 -0.26209,0.31172 -0.0922,0.68525 0,0.9892" />
    <path
       style="fill:none;stroke:#000000;stroke-width:0.264583px;stroke-linecap:butt;stroke-linejoin:miter;stroke-opacity:1"
       d="m 214.03318,110.7585 c -0.58618,0.17543 -1.15513,0.43522 -1.63285,0.82275 -0.37928,0.30768 -0.68711,0.70203 -0.89386,1.1448 -0.2474,0.52982 -0.34859,1.11668 -0.36626,1.69814 -0.0114,0.37414 0.0181,0.74794 0.0592,1.11961 0.0574,0.51913 0.13781,1.04028 0.3144,1.53403 0.15073,0.42145 0.36805,0.81979 0.64492,1.17109 0.39125,0.49643 0.89584,0.89413 1.43883,1.21225 0.74026,0.43369 1.55684,0.73747 2.40021,0.89307 0.69414,0.12807 1.41337,0.16066 2.10934,0.0279 0.54868,-0.10463 1.08348,-0.32533 1.51268,-0.68898 0.36711,-0.31104 0.63779,-0.72811 0.79256,-1.18242 0.13518,-0.39679 0.19795,-0.81772 0.19311,-1.23634 -0.008,-0.67286 -0.21711,-1.33299 -0.54929,-1.91464 -0.42242,-0.73965 -1.02524,-1.36638 -1.71012,-1.86743 -0.71584,-0.5237 -1.525,-0.92752 -2.38534,-1.14795 -0.61352,-0.15719 -1.25915,-0.22337 -1.88761,-0.12144 -0.48968,0.0794 -0.96515,0.27814 -1.34332,0.60388 -0.37146,0.31996 -0.62756,0.75718 -0.77565,1.2215 -0.0627,0.19674 -0.10755,0.39897 -0.13811,0.60312"
       id="path119"
       inkscape:path-effect="#path-effect121"
       inkscape:original-d="m 214.03318,110.7585 c -2.27086,0.67952 -3.09423,2.24689 -2.85565,4.57903 0.10746,1.05047 0.24356,1.86683 0.8691,2.76018 1.82594,2.60764 8.21844,3.86097 8.54921,-0.51055 0.33836,-4.47168 -8.02529,-7.97701 -8.77978,-2.93568" />
    <path
       style="fill:none;stroke:#000000;stroke-width:0.264583px;stroke-linecap:butt;stroke-linejoin:miter;stroke-opacity:1"
       d="m 188.72258,51.742144 c -0.43405,-0.481467 -1.00796,-0.820793 -1.61651,-1.032872 -0.76993,-0.268319 -1.59638,-0.355176 -2.40756,-0.302535 -0.8273,0.05369 -1.65123,0.243856 -2.40069,0.602057 -0.56043,0.267855 -1.08424,0.634731 -1.47347,1.123905 -0.29776,0.374217 -0.4988,0.827267 -0.55904,1.303314 -0.0668,0.527528 0.0413,1.064918 0.24645,1.551293 0.1411,0.334465 0.31246,0.658992 0.53215,0.947805 0.24079,0.316555 0.55814,0.566208 0.89178,0.777916 0.56307,0.357287 1.17962,0.624168 1.81178,0.832148 0.87168,0.286783 1.77857,0.474294 2.69505,0.528704 0.68771,0.04083 1.38654,0.01444 2.05641,-0.156409 0.48869,-0.124637 0.96602,-0.333352 1.34707,-0.670268 0.30182,-0.266865 0.52405,-0.620735 0.63623,-1.007668 0.10058,-0.346925 0.12495,-0.713648 0.0898,-1.072374 -0.0325,-0.331768 -0.1333,-0.654186 -0.27695,-0.954196 -0.18349,-0.383226 -0.42252,-0.735795 -0.65394,-1.090875 -0.39278,-0.602667 -0.7913,-1.204868 -1.25947,-1.75241 -0.3657,-0.427702 -0.77962,-0.824027 -1.2704,-1.105879 -0.39076,-0.224411 -0.83152,-0.35974 -1.28093,-0.394808 -0.57414,-0.0448 -1.15036,0.06142 -1.69505,0.237668 -0.27259,0.08821 -0.54051,0.190513 -0.805,0.300426 -0.3832,0.159244 -0.76211,0.343599 -1.0844,0.608948 -0.25168,0.207211 -0.45641,0.470475 -0.59512,0.765765 -0.10569,0.22499 -0.17466,0.465884 -0.21809,0.710224"
       id="path139"
       inkscape:path-effect="#path-effect141"
       inkscape:original-d="m 188.72258,51.742144 c -2.72299,-3.014655 -10.97644,-0.688608 -7.7333,4.116342 1.47518,2.185591 9.72888,3.878032 9.59569,-0.494596 -0.0262,-0.859761 -0.43086,-1.448591 -0.88686,-2.153902 -1.62342,-2.511007 -2.90843,-4.111281 -5.90639,-2.983552 -1.19795,0.450625 -2.11233,0.878673 -2.35901,2.265587" />
    <path
       style="fill:none;stroke:#000000;stroke-width:0.264583px;stroke-linecap:butt;stroke-linejoin:miter;stroke-opacity:1"
       d="m 158.30375,52.476066 c -0.34879,-0.135055 -0.67679,-0.324435 -1.04017,-0.420898 -0.10305,-0.02736 -0.20971,-0.04621 -0.31689,-0.03595 -0.20844,0.01994 -0.39725,0.129131 -0.55312,0.263541 -0.23208,0.200132 -0.41463,0.450988 -0.571,0.712635 -0.24247,0.405707 -0.43413,0.84081 -0.58372,1.288588 -0.0897,0.268423 -0.16897,0.54145 -0.21523,0.821061 -0.0164,0.09943 -0.0199,0.200278 -0.0188,0.301082 0.007,0.593127 0.15464,1.186345 0.44505,1.705295 0.31993,0.571693 0.80855,1.039315 1.37155,1.369594 0.74277,0.435736 1.60768,0.651756 2.46691,0.645359 0.72343,-0.0054 1.45246,-0.17205 2.08585,-0.527922 0.49735,-0.279436 0.92338,-0.686334 1.2172,-1.176611 0.2678,-0.446867 0.41809,-0.956686 0.47406,-1.472923 0.0469,-0.433055 0.0583,-0.869632 0.0441,-1.304761 -0.015,-0.460719 -0.0514,-0.922894 -0.14879,-1.374031 -0.0546,-0.252751 -0.11873,-0.50818 -0.2435,-0.735882 -0.0679,-0.123902 -0.17839,-0.217985 -0.29371,-0.296053 -0.21189,-0.143449 -0.44759,-0.247061 -0.68527,-0.339551 -0.20959,-0.08156 -0.42594,-0.143925 -0.6378,-0.219035 -0.0917,-0.03251 -0.18064,-0.07219 -0.2705,-0.109347 -0.3686,-0.152427 -0.73755,-0.306921 -1.11986,-0.421647 -0.1525,-0.04576 -0.30654,-0.09461 -0.46591,-0.105749 -0.15179,-0.01061 -0.30466,0.01047 -0.45154,0.04787 -0.33735,0.08589 -0.65026,0.249291 -0.93747,0.442928 -0.40335,0.271936 -0.76789,0.60121 -1.08194,0.972247 -0.22063,0.260665 -0.42341,0.540553 -0.56793,0.851037 -0.0238,0.0512 -0.0459,0.103236 -0.0655,0.156189"
       id="path143"
       inkscape:path-effect="#path-effect145"
       inkscape:original-d="m 158.30375,52.476066 c -0.3843,-0.14891 -0.74849,-0.367289 -1.1529,-0.446733 -1.17466,-0.230759 -2.13859,2.59616 -2.14616,3.270737 -0.0511,4.554706 7.34653,5.297519 8.03483,0.845605 0.13362,-0.864277 0.12302,-2.75114 -0.31927,-3.605789 -0.24965,-0.482404 -1.47591,-0.800579 -1.66727,-0.87752 -0.30683,-0.123359 -1.43105,-0.617669 -1.86238,-0.622233 -1.13024,-0.01196 -2.67923,1.470421 -3.05075,2.472996" />
    <path
       style="fill:none;stroke:#000000;stroke-width:0.264583px;stroke-linecap:butt;stroke-linejoin:miter;stroke-opacity:1"
       d="m 151.88299,53.68863 c -0.74654,-0.352653 -1.58721,-0.478457 -2.40736,-0.426838 -1.00861,0.06348 -2.00251,0.379862 -2.85617,0.921688 -0.68098,0.432225 -1.27234,1.020865 -1.65647,1.734567 -0.30725,0.570865 -0.46581,1.220206 -0.4564,1.868405 0.0123,0.843714 0.26989,1.682122 0.73426,2.387389 0.46264,0.702643 1.11904,1.263568 1.85048,1.671637 0.91628,0.51119 1.94596,0.804652 2.98762,0.905698 1.01884,0.09883 2.06109,0.02355 3.04231,-0.274909 0.54248,-0.165004 1.08193,-0.377517 1.53734,-0.717001 0.15254,-0.11371 0.26277,-0.274329 0.34993,-0.441052 0.12883,-0.246427 0.2227,-0.511356 0.27827,-0.783386 0.0872,-0.426938 0.12111,-0.864815 0.10231,-1.300181 -0.0281,-0.651034 -0.1891,-1.290467 -0.42531,-1.895913 -0.32714,-0.838511 -0.78314,-1.617181 -1.19975,-2.412598 -0.12495,-0.238563 -0.2571,-0.474051 -0.36479,-0.720926 -0.1283,-0.294124 -0.18933,-0.610894 -0.26876,-0.920239 -0.0647,-0.252027 -0.13508,-0.507417 -0.26935,-0.732717 -0.0945,-0.15864 -0.23219,-0.295419 -0.40346,-0.368922 -0.18304,-0.07856 -0.38677,-0.09132 -0.58323,-0.083 -0.37697,0.01596 -0.74841,0.09888 -1.10703,0.212394 -0.43141,0.136551 -0.85442,0.309773 -1.23925,0.548967 -0.20103,0.124951 -0.40065,0.262303 -0.55085,0.447345 -0.0392,0.04833 -0.0774,0.100101 -0.0907,0.162558 -0.0272,0.127368 -0.0182,0.259279 -0.003,0.387469 0.0363,0.311197 0.10914,0.616765 0.18936,0.919162 0.0251,0.09451 0.0522,0.188432 0.0788,0.28252"
       id="path147"
       inkscape:path-effect="#path-effect149"
       inkscape:original-d="m 151.88299,53.68863 c -3.01904,-1.426871 -7.82431,0.775994 -7.34309,4.579033 0.55554,4.390374 6.89342,5.63939 10.09231,3.510057 0.3789,-0.252214 0.60313,-0.947073 0.67401,-1.340201 0.44332,-2.459175 -0.87648,-4.113999 -1.88012,-6.174513 -0.33778,-0.693473 -0.27702,-1.803733 -0.99327,-2.090078 -0.81787,-0.32698 -3.03707,0.4905 -3.51191,1.212561 -0.19119,0.290727 0.21826,1.622989 0.23058,1.675254" />
    <path
       style="fill:none;stroke:#000000;stroke-width:0.264583px;stroke-linecap:butt;stroke-linejoin:miter;stroke-opacity:1"
       d="m 222.2631,98.845554 c -0.0292,-0.265744 -0.0855,-0.53511 -0.21907,-0.769766 -0.0937,-0.164622 -0.23718,-0.302583 -0.41234,-0.377935 -0.21477,-0.09239 -0.45644,-0.09568 -0.68437,-0.06255 -0.33796,0.04913 -0.66249,0.163716 -0.97622,0.295072 -0.55269,0.231405 -1.12489,0.42336 -1.64757,0.720128 -0.16612,0.09432 -0.33155,0.193079 -0.47698,0.317276 -0.20489,0.17498 -0.37008,0.390893 -0.52132,0.612253 -0.31547,0.461747 -0.5797,0.955567 -0.84765,1.445667 -0.18782,0.34354 -0.36383,0.69479 -0.58018,1.02146 -0.079,0.11931 -0.15736,0.24272 -0.26555,0.33781 -0.0406,0.0357 -0.0899,0.0647 -0.14629,0.0676 -0.26047,0.0134 -0.52062,-0.0133 -0.78074,-0.0228 -0.26124,-0.01 -0.52802,-0.0129 -0.78186,0.0572 -0.13411,0.037 -0.26878,0.0903 -0.37273,0.18446 -0.13393,0.12126 -0.23182,0.27653 -0.31577,0.43478 -0.17829,0.33606 -0.30732,0.69727 -0.39603,1.06659 -0.0806,0.3355 -0.13892,0.68116 -0.11868,1.02688 0.0113,0.19289 0.044,0.39185 0.14583,0.55954 0.059,0.0971 0.15088,0.17131 0.25646,0.21451 0.27051,0.11067 0.55173,0.1932 0.83487,0.26428 0.42509,0.10672 0.85645,0.19569 1.29364,0.23123 0.22115,0.018 0.44596,0.0311 0.66546,-0.007 0.16062,-0.028 0.3117,-0.0938 0.45781,-0.16358 0.36518,-0.17448 0.71321,-0.38237 1.05671,-0.5957 0.53214,-0.33048 0.9908,-0.79297 1.56899,-1.03371 0.0392,-0.0163 0.0833,-0.0153 0.12512,-0.0159 0.28878,-0.004 0.57764,0.02 0.86629,0.007 0.0799,-0.004 0.15981,-0.0118 0.23726,-0.0341 0.48277,-0.13914 0.96236,-0.30885 1.39326,-0.57158 0.32091,-0.19567 0.60419,-0.45253 0.82867,-0.75429 0.29639,-0.39843 0.4971,-0.85835 0.6604,-1.32455 0.12877,-0.36763 0.24339,-0.74454 0.27978,-1.13386 0.0192,-0.20543 0.0297,-0.41842 -0.0297,-0.61682 -0.026,-0.0868 -0.0966,-0.15064 -0.16803,-0.20121 -0.15538,-0.11002 -0.33222,-0.184908 -0.50948,-0.251713 -0.24732,-0.09321 -0.50639,-0.150184 -0.7569,-0.233728 -0.006,-0.002 -0.0122,-0.0033 -0.0178,-0.0064"
       id="path151"
       inkscape:path-effect="#path-effect153"
       inkscape:original-d="m 222.2631,98.845554 c -0.15644,-1.480767 -1.12851,-1.401636 -2.30579,-0.909429 -0.68333,0.285695 -1.45761,0.536885 -2.05748,0.989198 -0.9067,0.683662 -1.95409,3.495537 -2.39449,3.526017 -0.55956,0.0387 -1.39084,-0.16657 -1.89784,0.1755 -0.60702,0.40955 -1.35692,2.96965 -0.51437,3.33456 0.60187,0.26067 2.17071,0.63151 2.85563,0.4946 0.643,-0.12853 2.48255,-1.40361 3.05076,-1.78694 0.0726,-0.049 0.96338,0.0315 1.18838,-0.0319 1.7271,-0.48666 2.40414,-1.12714 2.96206,-2.77614 0.16497,-0.48759 0.32824,-1.10843 0.21285,-1.62739 -0.0855,-0.384499 -1.43986,-0.685621 -1.45444,-0.702012" />
  </g>
</svg>
