<?xml version="1.0" encoding="UTF-8" standalone="no"?>
<!-- Created with Inkscape (http://www.inkscape.org/) -->

<svg
   width="169.33333mm"
   height="127mm"
   viewBox="0 0 169.33333 127"
   version="1.1"
   id="svg5"
   inkscape:version="1.1.2 (08b2f3d93c, 2022-04-05)"
   sodipodi:docname="Condrócito.svg"
   xmlns:inkscape="http://www.inkscape.org/namespaces/inkscape"
   xmlns:sodipodi="http://sodipodi.sourceforge.net/DTD/sodipodi-0.dtd"
   xmlns="http://www.w3.org/2000/svg"
   xmlns:svg="http://www.w3.org/2000/svg">
  <sodipodi:namedview
     id="namedview7"
     pagecolor="#ffffff"
     bordercolor="#666666"
     borderopacity="1.0"
     inkscape:pageshadow="2"
     inkscape:pageopacity="0.0"
     inkscape:pagecheckerboard="0"
     inkscape:document-units="mm"
     showgrid="false"
     inkscape:zoom="0.54563172"
     inkscape:cx="339.05654"
     inkscape:cy="294.15445"
     inkscape:window-width="1366"
     inkscape:window-height="704"
     inkscape:window-x="0"
     inkscape:window-y="27"
     inkscape:window-maximized="1"
     inkscape:current-layer="layer2" />
  <defs
     id="defs2">
    <inkscape:path-effect
       effect="simplify"
       id="path-effect149"
       is_visible="true"
       lpeversion="1"
       steps="1"
       threshold="0.000408163"
       smooth_angles="360"
       helper_size="0"
       simplify_individual_paths="false"
       simplify_just_coalesce="false" />
    <inkscape:path-effect
       effect="simplify"
       id="path-effect145"
       is_visible="true"
       lpeversion="1"
       steps="1"
       threshold="0.000408163"
       smooth_angles="360"
       helper_size="0"
       simplify_individual_paths="false"
       simplify_just_coalesce="false" />
    <inkscape:path-effect
       effect="simplify"
       id="path-effect141"
       is_visible="true"
       lpeversion="1"
       steps="1"
       threshold="0.000408163"
       smooth_angles="360"
       helper_size="0"
       simplify_individual_paths="false"
       simplify_just_coalesce="false" />
    <inkscape:path-effect
       effect="simplify"
       id="path-effect137"
       is_visible="true"
       lpeversion="1"
       steps="1"
       threshold="0.000408163"
       smooth_angles="360"
       helper_size="0"
       simplify_individual_paths="false"
       simplify_just_coalesce="false" />
    <inkscape:path-effect
       effect="simplify"
       id="path-effect133"
       is_visible="true"
       lpeversion="1"
       steps="1"
       threshold="0.000408163"
       smooth_angles="360"
       helper_size="0"
       simplify_individual_paths="false"
       simplify_just_coalesce="false" />
    <inkscape:path-effect
       effect="simplify"
       id="path-effect129"
       is_visible="true"
       lpeversion="1"
       steps="1"
       threshold="0.000408163"
       smooth_angles="360"
       helper_size="0"
       simplify_individual_paths="false"
       simplify_just_coalesce="false" />
    <inkscape:path-effect
       effect="simplify"
       id="path-effect125"
       is_visible="true"
       lpeversion="1"
       steps="1"
       threshold="0.000408163"
       smooth_angles="360"
       helper_size="0"
       simplify_individual_paths="false"
       simplify_just_coalesce="false" />
    <inkscape:path-effect
       effect="simplify"
       id="path-effect121"
       is_visible="true"
       lpeversion="1"
       steps="1"
       threshold="0.000408163"
       smooth_angles="360"
       helper_size="0"
       simplify_individual_paths="false"
       simplify_just_coalesce="false" />
    <inkscape:path-effect
       effect="simplify"
       id="path-effect117"
       is_visible="true"
       lpeversion="1"
       steps="1"
       threshold="0.000408163"
       smooth_angles="360"
       helper_size="0"
       simplify_individual_paths="false"
       simplify_just_coalesce="false" />
    <inkscape:path-effect
       effect="simplify"
       id="path-effect113"
       is_visible="true"
       lpeversion="1"
       steps="1"
       threshold="0.000408163"
       smooth_angles="360"
       helper_size="0"
       simplify_individual_paths="false"
       simplify_just_coalesce="false" />
    <inkscape:path-effect
       effect="simplify"
       id="path-effect109"
       is_visible="true"
       lpeversion="1"
       steps="1"
       threshold="0.000408163"
       smooth_angles="360"
       helper_size="0"
       simplify_individual_paths="false"
       simplify_just_coalesce="false" />
    <inkscape:path-effect
       effect="simplify"
       id="path-effect105"
       is_visible="true"
       lpeversion="1"
       steps="1"
       threshold="0.000408163"
       smooth_angles="360"
       helper_size="0"
       simplify_individual_paths="false"
       simplify_just_coalesce="false" />
    <inkscape:path-effect
       effect="simplify"
       id="path-effect101"
       is_visible="true"
       lpeversion="1"
       steps="1"
       threshold="0.000408163"
       smooth_angles="360"
       helper_size="0"
       simplify_individual_paths="false"
       simplify_just_coalesce="false" />
    <inkscape:path-effect
       effect="simplify"
       id="path-effect97"
       is_visible="true"
       lpeversion="1"
       steps="1"
       threshold="0.000408163"
       smooth_angles="360"
       helper_size="0"
       simplify_individual_paths="false"
       simplify_just_coalesce="false" />
    <inkscape:path-effect
       effect="simplify"
       id="path-effect93"
       is_visible="true"
       lpeversion="1"
       steps="1"
       threshold="0.000408163"
       smooth_angles="360"
       helper_size="0"
       simplify_individual_paths="false"
       simplify_just_coalesce="false" />
    <inkscape:path-effect
       effect="simplify"
       id="path-effect89"
       is_visible="true"
       lpeversion="1"
       steps="1"
       threshold="0.000408163"
       smooth_angles="360"
       helper_size="0"
       simplify_individual_paths="false"
       simplify_just_coalesce="false" />
    <inkscape:path-effect
       effect="simplify"
       id="path-effect85"
       is_visible="true"
       lpeversion="1"
       steps="1"
       threshold="0.000408163"
       smooth_angles="360"
       helper_size="0"
       simplify_individual_paths="false"
       simplify_just_coalesce="false" />
    <inkscape:path-effect
       effect="simplify"
       id="path-effect81"
       is_visible="true"
       lpeversion="1"
       steps="1"
       threshold="0.000408163"
       smooth_angles="360"
       helper_size="0"
       simplify_individual_paths="false"
       simplify_just_coalesce="false" />
    <inkscape:path-effect
       effect="simplify"
       id="path-effect77"
       is_visible="true"
       lpeversion="1"
       steps="1"
       threshold="0.000408163"
       smooth_angles="360"
       helper_size="0"
       simplify_individual_paths="false"
       simplify_just_coalesce="false" />
    <inkscape:path-effect
       effect="simplify"
       id="path-effect73"
       is_visible="true"
       lpeversion="1"
       steps="1"
       threshold="0.000408163"
       smooth_angles="360"
       helper_size="0"
       simplify_individual_paths="false"
       simplify_just_coalesce="false" />
    <inkscape:path-effect
       effect="simplify"
       id="path-effect69"
       is_visible="true"
       lpeversion="1"
       steps="1"
       threshold="0.000408163"
       smooth_angles="360"
       helper_size="0"
       simplify_individual_paths="false"
       simplify_just_coalesce="false" />
    <inkscape:path-effect
       effect="simplify"
       id="path-effect65"
       is_visible="true"
       lpeversion="1"
       steps="1"
       threshold="0.000408163"
       smooth_angles="360"
       helper_size="0"
       simplify_individual_paths="false"
       simplify_just_coalesce="false" />
    <inkscape:path-effect
       effect="simplify"
       id="path-effect61"
       is_visible="true"
       lpeversion="1"
       steps="1"
       threshold="0.000408163"
       smooth_angles="360"
       helper_size="0"
       simplify_individual_paths="false"
       simplify_just_coalesce="false" />
    <inkscape:path-effect
       effect="simplify"
       id="path-effect57"
       is_visible="true"
       lpeversion="1"
       steps="1"
       threshold="0.000408163"
       smooth_angles="360"
       helper_size="0"
       simplify_individual_paths="false"
       simplify_just_coalesce="false" />
  </defs>
  <g
     inkscape:groupmode="layer"
     id="layer2"
     inkscape:label="Condrocitos">
    <path
       style="fill:none;stroke:#000000;stroke-width:0.264583px;stroke-linecap:butt;stroke-linejoin:miter;stroke-opacity:1"
       d="m 44.028608,74.071961 c -0.04564,-0.280766 -0.042,-0.585623 0.103339,-0.839169 0.140363,-0.244873 0.336012,-0.446767 0.492666,-0.683809 0.04866,-0.07364 0.05728,-0.14607 0.01155,-0.232277 -0.141254,-0.266304 -0.329889,-0.50919 -0.439789,-0.790096 -0.03485,-0.08909 -0.03787,-0.18724 -0.04759,-0.281564 -0.06496,-0.630108 0.04953,-1.261581 0.207873,-1.869975 0.124925,-0.479988 0.299342,-0.94828 0.38762,-1.436576 0.08409,-0.465151 -0.12848,-0.930712 -0.03291,-1.394242 0.0403,-0.195458 0.12144,-0.379707 0.202117,-0.56115 0.470033,-1.05711 1.209549,-1.964297 1.701346,-3.010787 0.653917,-1.391464 1.264027,-2.816139 2.137476,-4.088664 0.555042,-0.808639 1.22272,-1.565952 2.070458,-2.075346 0.486218,-0.292162 1.028736,-0.497425 1.593565,-0.569249 0.772877,-0.09828 1.555343,-0.03423 2.328849,-0.131649 0.7363,-0.09273 1.473361,-0.230386 2.21854,-0.199827 0.281328,0.01154 0.559734,0.06412 0.828222,0.151017 0.903167,0.292312 1.793693,0.668363 2.555862,1.243524 0.530833,0.400586 0.980387,0.911505 1.293281,1.500959 0.2497,0.470404 0.45287,0.974101 0.801531,1.38418 0.149427,0.175749 0.33495,0.315871 0.531011,0.436667 0.316891,0.195242 0.613457,0.436165 0.962232,0.56741 0.05176,0.01948 0.220859,0.09631 0.184743,7.1e-5 -0.02463,-0.06562 0.02415,-0.118139 0.09649,-0.105038 0.185494,0.03359 0.355177,0.1221 0.526302,0.197395 0.315436,0.138792 0.602962,0.336588 0.850781,0.575836 0.535221,0.516709 0.897365,1.174586 1.343358,1.763186 0.0934,0.123266 0.190247,0.244906 0.312477,0.342287 0.237773,0.189435 0.518346,0.327019 0.727714,0.549711 0.111949,0.119073 0.180593,0.271468 0.247559,0.418279 0.313561,0.687426 0.355183,1.466995 0.262788,2.20755 -0.12948,1.037795 -0.480651,2.032076 -0.874493,2.99566 -0.37312,0.912886 -0.82647,1.79101 -1.193935,2.705996 -0.37851,0.942488 -0.731028,1.895153 -1.097726,2.842258 -0.611626,1.579706 -1.212224,3.166022 -1.924466,4.703533 -0.264317,0.570579 -0.533257,1.141795 -0.868459,1.675253 -0.10119,0.161039 -0.227845,0.303157 -0.362762,0.436902 -0.862926,0.855436 -1.83689,1.591312 -2.848826,2.26017 -0.400264,0.264562 -0.784045,0.562843 -1.218771,0.765799 -0.150855,0.07043 -0.321014,0.0074 -0.4603,-0.06084 -0.288396,-0.141304 -0.53651,-0.371777 -0.851553,-0.450753 -0.146512,-0.03673 -0.299301,-0.03709 -0.449406,-0.03909 -0.875496,-0.01165 -1.741744,0.240632 -2.616324,0.151435 -0.40638,-0.04145 -0.802761,-0.149277 -1.193236,-0.264709 -1.070769,-0.316541 -2.121558,-0.70341 -3.137902,-1.165187 -0.684361,-0.31094 -1.374411,-0.62861 -1.984181,-1.071225 -0.240155,-0.174322 -0.494682,-0.354392 -0.645169,-0.615032 -0.142546,-0.246887 -0.19147,-0.5418 -0.147828,-0.823576 0.06028,-0.389171 0.249706,-0.754106 0.254936,-1.151486 0.0034,-0.255826 -0.133925,-0.479871 -0.232046,-0.706857 -0.0897,-0.207499 -0.113656,-0.440769 -0.06727,-0.6633 0.0724,-0.347325 0.201291,-0.68652 0.397428,-0.981366 0.182366,-0.274144 0.351466,-0.565153 0.592501,-0.79064 0.05352,-0.05006 0.106696,-0.138981 0.182652,-0.126667 0.07447,0.01207 0.05116,0.117764 0.05024,0.170638"
       id="path55"
       inkscape:path-effect="#path-effect57"
       inkscape:original-d="m 44.028608,74.071961 c -0.153318,-0.972508 0.406228,-1.020305 0.65218,-1.647135 0.01855,-0.04729 -0.482548,-0.830098 -0.501674,-0.947669 -0.203211,-1.249055 0.275362,-2.314217 0.551839,-3.474788 0.129976,-0.545608 -0.168281,-1.076661 0.02508,-1.624568 0.417179,-1.182082 1.269958,-2.169113 1.806033,-3.294272 1.121738,-2.354392 2.488247,-5.89053 5.267597,-6.723925 0.832628,-0.249666 1.821222,-0.137784 2.683978,-0.225639 0.906526,-0.09231 2.255795,-0.396719 3.160546,-0.112821 1.4351,0.450315 2.889877,1.1264 3.737491,2.391733 0.470374,0.702183 0.693637,1.662364 1.454862,2.143535 2.352288,1.486887 0.32421,-0.03338 2.006711,0.789728 1.033065,0.505391 1.515528,1.609392 2.207374,2.459421 0.209555,0.257466 0.812014,0.538115 0.97827,0.812284 1.447178,2.386518 -0.819658,6.185998 -1.680623,8.32594 -0.72617,1.804903 -3.112606,8.428128 -4.088659,9.431549 -1.154975,1.187363 -2.740938,2.282984 -4.163909,3.136329 -0.380267,0.228044 -0.967354,-0.473599 -1.454864,-0.518965 -0.982091,-0.09139 -1.956205,0.205807 -2.934806,0.135385 -1.263804,-0.09095 -6.399779,-1.984079 -6.998375,-3.158895 -0.35166,-0.690171 0.05356,-1.182248 0.125418,-1.850207 0.056,-0.520613 -0.421058,-0.790213 -0.301011,-1.421506 0.0648,-0.34077 0.20279,-0.669843 0.376264,-0.970227 0.02013,-0.03486 0.924859,-1.43746 0.852842,-0.78972" />
    <path
       style="fill:none;stroke:#000000;stroke-width:0.264583px;stroke-linecap:butt;stroke-linejoin:miter;stroke-opacity:1"
       d="m 55.24106,40.858469 c -0.0128,0.706323 -0.238978,1.384819 -0.473586,2.043813 -0.254694,0.715415 -0.535441,1.432308 -0.624591,2.19242 -0.04291,0.365867 -0.01597,0.736095 0.04869,1.097794 0.1597,0.893374 0.501214,1.749995 0.964225,2.528036 0.392713,0.659913 0.845198,1.310923 1.464266,1.769776 0.249073,0.184613 0.516342,0.342962 0.770135,0.520878 0.235927,0.165392 0.483816,0.32471 0.669907,0.546705 0.39221,0.467883 0.629275,1.036565 0.902835,1.576005 0.234479,0.462375 0.512117,0.916715 0.911628,1.255689 0.531214,0.45072 1.19395,0.714625 1.86275,0.882605 1.005319,0.252502 2.046385,0.325289 3.079618,0.331115 0.708743,0.004 1.417992,-0.01112 2.125204,-0.05727 0.985816,-0.06434 1.978562,-0.198425 2.910176,-0.539464 0.664832,-0.243377 1.323927,-0.584077 1.784634,-1.129343 0.242348,-0.286829 0.372519,-0.644638 0.516562,-0.985886 0.08457,-0.200352 0.19335,-0.388658 0.306412,-0.574568 0.328936,-0.540876 0.652402,-1.09235 0.864288,-1.691575 0.12298,-0.347795 0.179054,-0.717927 0.166786,-1.086626 -0.014,-0.420876 -0.05885,-0.840381 -0.05603,-1.262014 0.0038,-0.567987 0.05532,-1.136994 0.168493,-1.693278 0.167824,-0.824934 0.581494,-1.568988 0.829151,-2.368846 0.195846,-0.632524 0.233377,-1.302095 0.201442,-1.960093 -0.0348,-0.716998 -0.129007,-1.430098 -0.140649,-2.148569 -0.02817,-1.738306 0.0094,-3.478609 -0.08471,-5.21502 -0.02492,-0.459791 -0.0389,-0.92298 -0.124155,-1.376318 -0.02225,-0.118288 -0.0616,-0.232392 -0.127806,-0.335836 -0.300121,-0.468898 -0.749077,-0.827013 -1.24538,-1.071404 C 72.206079,31.759898 71.430149,31.60112 70.670374,31.421148 70.165542,31.301566 69.65508,31.188414 69.174812,30.988977 68.727019,30.803026 68.348382,30.483273 68.035,30.116785 67.770088,29.806981 67.561007,29.453958 67.294365,29.145768 67.141372,28.968936 66.94958,28.816936 66.718274,28.754624 66.13705,28.598047 65.525988,28.504562 64.925172,28.595282 c -0.625118,0.09439 -1.215115,0.349438 -1.755509,0.665412 -0.155855,0.09113 -0.325781,0.152533 -0.491533,0.222621 -0.205468,0.08688 -0.425472,0.161216 -0.593673,0.31116 -0.09257,0.08252 -0.152739,0.193695 -0.21559,0.298849 -0.158442,0.265083 -0.293846,0.553275 -0.529902,0.761596 -0.214504,0.189301 -0.480148,0.317355 -0.761097,0.372255 -0.518805,0.101379 -1.057478,0.03676 -1.571392,0.174801 -0.227364,0.06107 -0.435133,0.177797 -0.623006,0.319039 -0.717697,0.539562 -1.33951,1.194815 -1.916599,1.879362 -0.39468,0.468172 -0.783818,0.94234 -1.137202,1.442359 -0.468605,0.66305 -0.819883,1.39795 -1.199679,2.112985 -0.378031,0.711712 -0.764716,1.432794 -1.311213,2.031176 -0.221819,0.242879 -0.461525,0.478396 -0.748406,0.641617 -0.379851,0.216117 -0.813826,0.265104 -1.230767,0.381067 -0.05462,0.01519 -0.03855,0.0406 0.01439,0.0352 0.259755,-0.02646 0.515485,-0.08224 0.771316,-0.132932 0.03467,-0.0069 0.06934,-0.01376 0.104026,-0.02055"
       id="path59"
       inkscape:path-effect="#path-effect61"
       inkscape:original-d="m 55.24106,40.858469 c -0.02795,1.667584 -1.2719,3.257907 -1.103678,4.941405 0.165291,1.654175 1.190403,3.608332 2.458209,4.670653 0.240213,0.201279 1.160092,0.718307 1.479942,1.105612 0.695732,0.842457 0.904467,2.036638 1.780955,2.797871 1.536518,1.334471 4.689568,1.273701 6.622122,1.195866 1.676931,-0.06754 3.874809,-0.343445 5.117099,-1.647137 0.360328,-0.378137 0.500812,-1.024914 0.77759,-1.466625 1.896144,-3.026098 0.686186,-2.594732 1.204026,-5.731134 0.167325,-1.013445 0.742825,-1.899913 0.95319,-2.888126 0.243605,-1.144368 0.02867,-2.203095 -0.02508,-3.339401 -0.06014,-1.271482 0.03306,-6.691969 -0.301011,-7.242892 -0.998644,-1.646905 -3.203866,-1.597602 -4.891342,-2.211224 -1.514565,-0.550746 -1.739466,-2.055646 -2.558542,-2.278912 -1.553347,-0.423418 -2.333797,-0.174696 -3.712411,0.564089 -0.209407,0.112218 -0.862285,0.30665 -1.028443,0.541523 -0.348819,0.493075 -0.399418,0.876739 -0.978268,1.195867 -0.754896,0.416181 -1.757495,0.01021 -2.558542,0.586652 -1.140484,0.820719 -2.215999,2.153709 -3.060216,3.271705 -1.070536,1.417715 -1.761699,3.828103 -3.260902,4.851162 -0.398923,0.272225 -0.884976,0.240073 -1.304359,0.428702 -0.269086,0.121031 0.58837,-0.05619 0.877938,-0.112818" />
    <path
       style="fill:none;stroke:#000000;stroke-width:0.264583px;stroke-linecap:butt;stroke-linejoin:miter;stroke-opacity:1"
       d="m 100.51733,31.494605 c -1.23306,-0.283483 -2.5108,-0.444055 -3.774498,-0.306857 -0.955563,0.103744 -1.906019,0.406329 -2.687334,0.980029 -0.69969,0.513765 -1.219068,1.246988 -1.536247,2.050776 -0.388636,0.984871 -0.53609,2.055228 -0.504182,3.107389 0.02161,0.712678 0.317135,1.380556 0.375115,2.088465 0.13207,1.612503 0.117496,3.24174 0.415014,4.837047 0.126253,0.676975 0.282774,1.356509 0.569446,1.983425 0.19178,0.419399 0.52532,0.750825 0.861463,1.057256 0.433717,0.39538 0.906203,0.754063 1.279058,1.211655 0.164492,0.201875 0.282878,0.436017 0.37659,0.678182 0.274915,0.710421 0.317943,1.488999 0.625833,2.189087 0.161462,0.367137 0.412202,0.688066 0.702024,0.96399 0.385972,0.367463 0.871142,0.633033 1.396049,0.737764 0.636637,0.127024 1.287383,0.03021 1.922749,-0.05418 0.58331,-0.07748 1.18634,-0.157093 1.76522,-0.0125 0.33608,0.08394 0.65363,0.228929 0.96115,0.385353 0.9614,0.489029 1.83523,1.126472 2.73955,1.709807 0.66067,0.426167 1.32663,0.868827 2.07429,1.122808 0.24643,0.08371 0.49904,0.175722 0.76333,0.172687 0.29629,-0.0034 0.5728,-0.145041 0.79419,-0.334497 0.38472,-0.329228 0.65732,-0.760957 0.99182,-1.13684 0.69933,-0.785847 1.18875,-1.72536 1.67997,-2.6478 0.47124,-0.884923 0.96597,-1.770842 1.64555,-2.517422 0.24928,-0.273858 0.53667,-0.510343 0.84457,-0.715683 0.66537,-0.443743 1.41737,-0.754003 2.03939,-1.261515 0.16345,-0.133361 0.33254,-0.268109 0.45285,-0.442333 0.17553,-0.25418 0.25382,-0.558241 0.3303,-0.853291 0.0924,-0.356592 0.15108,-0.728794 0.32051,-1.058741 0.10016,-0.195051 0.23572,-0.369196 0.36217,-0.54747 0.37848,-0.533601 0.80696,-1.029248 1.19099,-1.558606 0.29172,-0.402117 0.53808,-0.849526 0.63298,-1.342324 0.12188,-0.632931 0.0255,-1.285455 -0.13541,-1.901408 -0.0798,-0.305493 -0.15863,-0.61294 -0.27445,-0.906836 -0.15489,-0.393039 -0.46315,-0.693198 -0.68821,-1.043736 -0.3317,-0.516634 -0.3646,-1.169088 -0.71086,-1.676471 -0.41316,-0.605418 -1.00828,-1.065273 -1.64745,-1.411316 -0.8895,-0.481566 -1.86775,-0.784607 -2.86068,-0.960086 -0.50619,-0.08946 -1.01822,-0.156958 -1.53352,-0.157046 -0.63029,-1.08e-4 -1.26821,0.0652 -1.89162,-0.06345 -0.31277,-0.06455 -0.60741,-0.193454 -0.88847,-0.3439 -0.88817,-0.475415 -1.7925,-0.932117 -2.75108,-1.249929 -0.15695,-0.05204 -0.31621,-0.09712 -0.48075,-0.119363 -0.35339,-0.04777 -0.71174,-0.09654 -1.06748,-0.06577 -0.10216,0.0088 -0.22605,-0.0095 -0.30341,0.0621 -0.0693,0.06412 0.0406,0.134596 0.0906,0.166456 0.0238,0.01512 0.0482,0.02914 0.073,0.04252"
       id="path63"
       inkscape:path-effect="#path-effect65"
       inkscape:original-d="m 100.51733,31.494605 c -4.791301,-1.111774 -8.50341,0.262287 -8.50341,5.753701 0,0.737767 0.316513,1.427059 0.376264,2.166101 0.187812,2.323013 0.08907,4.560393 0.953172,6.746484 0.419438,1.061135 1.945621,1.738659 2.433132,2.752756 0.522134,1.086112 0.340564,2.229916 1.229106,3.204014 1.820103,1.995358 3.803386,0.320649 5.568596,0.970227 1.94303,0.715013 4.08703,2.815887 5.94487,3.271716 1.00385,0.246298 1.51348,-0.780285 2.05687,-1.376376 1.49126,-1.635894 2.02038,-3.940936 3.61208,-5.46037 0.87508,-0.835361 2.24798,-1.229429 3.03513,-2.098405 0.43228,-0.477208 0.42935,-1.585719 0.80269,-2.143535 1.60192,-2.393484 2.83999,-2.645701 1.73078,-6.001895 -0.1557,-0.471107 -0.46613,-0.747792 -0.72744,-1.150745 -0.33933,-0.523279 -0.38483,-1.224743 -0.75251,-1.737389 -1.11978,-1.561285 -3.5598,-2.248167 -5.34286,-2.436855 -1.19926,-0.12691 -2.21506,0.221483 -3.33612,-0.383579 -0.9541,-0.514946 -2.04115,-1.071113 -3.08532,-1.376376 -0.33583,-0.09818 -2.23992,-0.265753 -1.45486,0.157943" />
    <path
       style="fill:none;stroke:#000000;stroke-width:0.264583px;stroke-linecap:butt;stroke-linejoin:miter;stroke-opacity:1"
       d="m 126.80515,52.817127 c -0.28209,-0.44642 -0.61391,-0.87601 -1.05202,-1.180242 -0.31754,-0.220505 -0.6912,-0.347243 -1.07077,-0.408573 -0.50196,-0.08111 -1.01106,-0.0958 -1.51737,-0.132664 -0.26738,-0.01947 -0.53232,-0.06221 -0.79922,-0.08586 -0.76077,-0.06743 -1.52498,-0.09291 -2.28849,-0.09213 -0.90931,9.25e-4 -1.82244,0.02007 -2.7232,0.15106 -0.42433,0.06171 -0.85325,0.133837 -1.25112,0.298936 -0.17482,0.07254 -0.34086,0.172685 -0.46867,0.315651 -0.32209,0.360286 -0.55803,0.787985 -0.76318,1.222518 -0.42001,0.889646 -0.7341,1.825426 -1.00369,2.770112 -0.41633,1.458893 -0.74453,2.943973 -0.96427,4.44502 -0.12167,0.831142 -0.22053,1.668027 -0.23336,2.508908 -0.005,0.349218 0.0229,0.69883 0.0896,1.041853 0.13603,0.699361 0.36403,1.380051 0.66227,2.026275 0.2591,0.561424 0.5614,1.111155 0.96955,1.578414 0.20648,0.236383 0.43652,0.463614 0.71885,0.605859 0.26052,0.131256 0.55677,0.154316 0.8431,0.173264 0.29341,0.01942 0.59673,0.03518 0.86776,0.160644 0.35051,0.162255 0.67157,0.379903 0.98976,0.596873 0.63546,0.433308 1.24668,0.906638 1.92102,1.278926 0.28483,0.157249 0.57993,0.311655 0.9021,0.372831 0.16931,0.03215 0.34287,0.02403 0.51402,0.0189 1.07495,-0.03225 2.14151,-0.311614 3.09633,-0.805458 0.59385,-0.307145 1.13301,-0.713731 1.60821,-1.185228 0.35777,-0.354979 0.77342,-0.658685 1.06585,-1.073494 0.081,-0.114896 0.17331,-0.228888 0.21025,-0.366149 0.0124,-0.04615 0.0479,-0.175827 0.0104,-0.143739 -0.0257,0.02207 0.0429,0.01588 0.0646,0.0098 0.19137,-0.05318 0.37157,-0.140125 0.54601,-0.23359 0.44841,-0.240261 0.88673,-0.519339 1.233,-0.892018 0.13851,-0.149075 0.22865,-0.334561 0.31116,-0.518428 0.14081,-0.313771 0.2566,-0.637523 0.38685,-0.955808 0.21563,-0.526917 0.3525,-1.083025 0.44923,-1.642835 0.10662,-0.617059 0.15945,-1.243042 0.16505,-1.869835 0.002,-0.181423 -0.0244,-0.361992 -0.0699,-0.537503 -0.10935,-0.422023 -0.31187,-0.821522 -0.35417,-1.259026 -0.0394,-0.407581 0.004,-0.816636 0.0168,-1.224411 0.0125,-0.390232 0.006,-0.791197 -0.12499,-1.163598 -0.0907,-0.257308 -0.26124,-0.476189 -0.43648,-0.681163 -0.333,-0.389509 -0.71869,-0.731317 -1.04099,-1.130055 -0.13883,-0.171758 -0.25679,-0.358914 -0.38438,-0.538931 -0.36293,-0.512054 -0.73433,-1.024514 -1.18802,-1.460387 -0.22859,-0.219611 -0.47659,-0.431021 -0.77247,-0.553507 -0.1857,-0.07687 -0.4043,-0.0998 -0.59128,-0.01252 -0.16717,0.07803 -0.29099,0.223404 -0.3919,0.373479 -0.11564,0.171979 -0.17955,0.385791 -0.14215,0.593156 0.0438,0.242696 0.20278,0.446673 0.38324,0.606584 0.15892,0.140823 0.33945,0.255822 0.52842,0.35186"
       id="path67"
       inkscape:path-effect="#path-effect69"
       inkscape:original-d="m 126.80515,52.817127 c -1.22666,-1.953337 -2.23621,-1.522635 -4.21407,-1.782511 -1.06403,-0.139806 -5.99876,-0.326663 -6.89805,0.586647 -1.67292,1.69898 -3.18179,9.051764 -3.01006,11.484832 0.10111,1.4325 1.13564,4.014325 2.35788,4.738333 0.53148,0.314831 1.20239,0.1201 1.75587,0.361014 1.02753,0.447249 2.98827,2.253998 4.01341,2.278922 1.7923,0.04358 3.74631,-0.670885 4.99167,-1.940462 0.42914,-0.437486 0.93072,-0.788125 1.25418,-1.331251 0.13824,-0.232116 0.0753,-0.347565 0.0753,-0.293328 0,0.06895 0.95055,-0.276674 1.83113,-1.105611 0.28771,-0.270844 0.51423,-1.03233 0.67725,-1.39894 0.44224,-0.994513 0.69061,-2.651037 0.65218,-3.722976 -0.0206,-0.57305 -0.37888,-1.138724 -0.42642,-1.737389 -0.0598,-0.7533 0.16402,-1.66851 -0.12543,-2.39173 -0.24378,-0.609124 -1.18122,-1.339588 -1.58027,-1.917906 -0.71343,-1.033926 -2.16858,-3.143208 -3.03514,-2.233782 -0.74857,0.785601 -0.0361,1.437082 0.60201,1.759955" />
    <path
       style="fill:none;stroke:#000000;stroke-width:0.264583px;stroke-linecap:butt;stroke-linejoin:miter;stroke-opacity:1"
       d="m 141.88052,80.570249 c -0.0699,-0.20517 -0.1612,-0.417185 -0.33314,-0.558264 -0.12397,-0.101719 -0.29436,-0.12599 -0.44862,-0.0955 -0.27461,0.05428 -0.51537,0.205334 -0.77077,0.312219 -0.1673,0.07002 -0.35278,0.139271 -0.53555,0.09577 -0.11027,-0.02625 -0.20236,-0.09603 -0.29903,-0.151656 -0.64794,-0.372819 -1.30856,-0.73867 -2.02361,-0.965295 -0.39691,-0.125795 -0.81698,-0.22028 -1.23478,-0.169965 -0.33215,0.04 -0.63617,0.191133 -0.92725,0.347162 -0.29926,0.160413 -0.60156,0.322512 -0.93241,0.410646 -1.53938,0.410067 -3.12255,0.662644 -4.62562,1.203435 -0.89661,0.322593 -1.75753,0.762966 -2.50209,1.362661 -1.26382,1.017927 -2.21855,2.393204 -2.81354,3.897226 -0.61555,1.555994 -0.86316,3.273074 -0.61012,4.932487 0.10901,0.714873 0.29249,1.42585 0.61212,2.07529 0.18691,0.379778 0.49356,0.682568 0.81448,0.951433 0.31521,0.264084 0.66498,0.490657 0.9463,0.791854 0.21792,0.233314 0.37007,0.516677 0.54374,0.782225 0.1481,0.226456 0.31232,0.450555 0.54213,0.602764 0.30468,0.201797 0.67595,0.279038 1.03768,0.272219 0.59082,-0.01114 1.16041,-0.186169 1.73979,-0.281741 0.42445,-0.07002 0.87362,-0.105861 1.28604,0.03895 0.1669,0.0586 0.33513,0.134157 0.45816,0.265949 0.20357,0.218076 0.32121,0.496757 0.48036,0.7456 0.10196,0.159418 0.22071,0.33111 0.40603,0.394056 0.13358,0.04537 0.27697,0.05567 0.417,0.05594 0.47035,9.08e-4 0.92735,-0.137524 1.3645,-0.299065 0.66957,-0.24743 1.30275,-0.588833 1.98462,-0.802173 0.25681,-0.08035 0.52159,-0.156693 0.79344,-0.152406 0.21048,0.0033 0.41294,0.07691 0.5947,0.179484 0.19902,0.112314 0.39763,0.239841 0.62677,0.280303 0.19307,0.03409 0.39108,0.01768 0.58453,-0.0017 0.74239,-0.07419 1.46477,-0.289355 2.15307,-0.5708 0.96574,-0.394893 1.88722,-0.912591 2.69295,-1.577343 0.57146,-0.471474 1.09545,-1.019433 1.45063,-1.675163 0.16473,-0.304119 0.27337,-0.636004 0.33379,-0.976432 0.17678,-0.996108 0.0239,-2.018662 0.1965,-3.014333 0.13075,-0.75447 0.27086,-1.508091 0.35526,-2.26954 0.0671,-0.605622 0.12411,-1.218208 0.0664,-1.826394 -0.0254,-0.26757 -0.0496,-0.547284 -0.17631,-0.786568 -0.0949,-0.179208 -0.27336,-0.290978 -0.44123,-0.393722 -0.20344,-0.124513 -0.43575,-0.218235 -0.59513,-0.399549 -0.23685,-0.269445 -0.41015,-0.585771 -0.61282,-0.880107 -0.15341,-0.222797 -0.33499,-0.427108 -0.55074,-0.593092 -0.30434,-0.23414 -0.63511,-0.42994 -0.96114,-0.631584 -0.31155,-0.192686 -0.60258,-0.418929 -0.86007,-0.680124 -0.0782,-0.07933 -0.15373,-0.161307 -0.22702,-0.245209 z"
       id="path71"
       inkscape:path-effect="#path-effect73"
       inkscape:original-d="m 141.88052,80.570249 c -0.50011,-1.518439 -1.55067,0.08779 -2.20738,-0.293328 -0.91364,-0.530227 -2.57324,-1.495734 -3.66223,-1.195866 -0.56794,0.15639 -1.01855,0.547883 -1.58028,0.699474 -2.35633,0.635896 -4.97502,0.904184 -6.99838,2.436854 -3.18382,2.411709 -4.66864,7.265191 -3.03514,10.965868 0.35431,0.802688 1.15542,1.209342 1.75586,1.782519 0.37922,0.362006 0.64049,1.074507 1.05352,1.376376 1.29245,0.944607 3.06068,-0.546473 4.41475,0.203073 0.49168,0.272174 0.61864,1.205516 1.15385,1.308685 1.25709,0.242321 2.92845,-0.969061 4.16393,-1.195867 0.86773,-0.159295 1.03086,0.451271 1.73078,0.451271 2.25785,0 6.41592,-2.163043 6.97329,-4.602956 0.24697,-1.081138 0.0628,-2.201418 0.25083,-3.29428 0.19145,-1.112742 0.70047,-3.691448 0.25084,-4.783463 -0.15635,-0.379732 -0.8115,-0.541639 -1.0786,-0.857408 -0.37184,-0.439598 -0.61346,-1.038249 -1.0786,-1.39894 -0.8446,-0.654947 -1.33564,-0.71887 -2.10704,-1.602012 z" />
    <path
       style="fill:none;stroke:#000000;stroke-width:0.264583px;stroke-linecap:butt;stroke-linejoin:miter;stroke-opacity:1"
       d="m 93.870125,94.356559 c 0.370068,-0.457862 0.807392,-0.868039 1.107803,-1.376026 0.189322,-0.320138 0.28292,-0.686224 0.356059,-1.047303 0.182088,-0.898953 0.255636,-1.816129 0.296627,-2.730934 0.05851,-1.305683 0.07394,-2.6156 -0.01455,-3.919747 -0.01966,-0.289728 -0.02297,-0.582651 -0.07796,-0.867978 -0.0959,-0.497621 -0.488352,-0.872733 -0.595324,-1.367338 -0.04857,-0.224586 -0.0051,-0.456855 0.07652,-0.668704 0.192469,-0.49926 0.503538,-0.939229 0.786087,-1.389766 0.277682,-0.442777 0.559002,-0.89931 0.678203,-1.413957 0.05722,-0.247038 0.06356,-0.501797 0.07363,-0.753972 0.029,-0.726688 -0.0098,-1.454675 -0.08973,-2.178414 -0.0153,-0.138539 -0.0567,-0.276985 -0.149017,-0.385999 -0.101656,-0.120036 -0.268857,-0.18285 -0.341505,-0.322337 -0.07482,-0.143656 -0.08832,-0.309756 -0.09883,-0.468569 -0.03645,-0.550976 -0.01034,-1.104015 0.03209,-1.653463 0.04937,-0.639224 0.28697,-1.240939 0.497115,-1.840102 0.148477,-0.423336 0.271317,-0.857701 0.323235,-1.304738 0.09951,-0.856875 0.0878,-1.723412 0.02571,-2.582297 -0.08377,-1.15885 -0.238561,-2.319271 -0.562674,-3.436559 -0.177323,-0.611271 -0.408179,-1.212297 -0.746303,-1.756154 -0.114723,-0.184527 -0.279929,-0.335558 -0.476169,-0.431059 -0.375316,-0.182648 -0.827812,-0.175144 -1.171426,-0.42343 -0.256503,-0.185342 -0.444268,-0.444414 -0.639071,-0.689469 -0.164918,-0.207461 -0.383274,-0.366964 -0.625022,-0.4761 -0.419636,-0.189442 -0.894237,-0.236211 -1.347524,-0.167438 -0.682951,0.103618 -1.313786,0.412387 -1.904486,0.757825 -0.714648,0.417922 -1.366537,0.933547 -2.075725,1.359455 -0.555204,0.333432 -1.171172,0.545313 -1.778068,0.762648 -0.691971,0.247801 -1.401916,0.470276 -2.037312,0.846038 -0.300119,0.177485 -0.59421,0.385234 -0.802739,0.668802 -0.205044,0.278829 -0.277567,0.627764 -0.314584,0.965594 -0.04281,0.390721 -0.06817,0.792208 -0.226661,1.158133 -0.185504,0.428296 -0.517021,0.765596 -0.819695,1.112016 -0.266554,0.305079 -0.531334,0.639835 -0.620802,1.0412 -0.07276,0.326405 0.04084,0.672274 -0.07357,0.991679 -0.706079,1.971325 -1.701446,3.828436 -2.369084,5.81308 -0.208528,0.619878 -0.210922,1.282514 -0.19863,1.92919 0.01297,0.682109 0.03787,1.378851 -0.151715,2.041709 -0.208402,0.728631 -0.595736,1.385452 -0.952451,2.048178 -0.306346,0.569148 -0.576721,1.169562 -0.67798,1.812882 -0.05194,0.329966 -0.06945,0.668398 -0.0066,0.998853 0.123969,0.652288 0.380746,1.271191 0.669482,1.865596 0.571341,1.176188 1.266016,2.291166 2.046344,3.339083 0.583208,0.783201 1.196027,1.554124 1.925271,2.206438 0.332478,0.297404 0.692836,0.575019 1.110896,0.744528 1.069323,0.433574 2.192699,0.729464 3.33167,0.907133 0.589875,0.09202 1.184776,0.168564 1.782118,0.173594 0.901953,0.0076 1.789569,-0.19928 2.694608,-0.168081 0.207965,0.0072 0.411893,0.07457 0.583551,0.192681 0.201926,0.138934 0.382243,0.306758 0.593601,0.433356 0.337953,0.202426 0.661956,0.430165 1.015761,0.604744 0.197194,0.0973 0.425703,0.167313 0.644755,0.103183 0.252624,-0.07396 0.458729,-0.249666 0.649716,-0.422967 0.223344,-0.202662 0.433753,-0.419059 0.644385,-0.634717 z"
       id="path75"
       inkscape:path-effect="#path-effect77"
       inkscape:original-d="m 93.870125,94.356559 c 0.359535,-0.443748 0.755047,-0.860621 1.078601,-1.331251 0.840875,-1.223108 0.805714,-6.787814 0.602004,-8.529002 -0.08265,-0.706427 -0.828882,-1.17615 -0.576924,-1.985595 0.318547,-1.023385 1.465259,-2.093791 1.555194,-3.22658 0.06723,-0.846866 0.05951,-1.898926 -0.07525,-2.730183 -0.05082,-0.313452 -0.258762,-0.391618 -0.451501,-0.586655 -0.229192,-0.231926 -0.10677,-1.816987 -0.10033,-2.008151 0.0355,-1.053597 0.589362,-1.939993 0.777589,-2.955821 0.353111,-1.905683 -0.05626,-6.528999 -1.304358,-8.213119 -0.432245,-0.583248 -1.201317,-0.40372 -1.680604,-0.834851 -0.540049,-0.485788 -0.543336,-0.870823 -1.329455,-1.150734 -1.75305,-0.624199 -3.753686,1.151001 -5.14218,2.008151 -1.277241,0.788471 -3.542159,1.104289 -4.515077,2.143535 -0.590455,0.630711 -0.334722,1.432536 -0.627102,2.18866 -0.327613,0.847243 -1.173038,1.278834 -1.454846,2.166093 -0.110366,0.347483 0.03308,0.712983 -0.100349,1.083053 -0.702029,1.947072 -1.626433,3.765029 -2.332783,5.708568 -0.486236,1.337892 0.01976,2.769899 -0.401341,4.129122 -0.480502,1.550935 -1.597301,2.558333 -1.655527,4.287062 -0.07062,2.09668 3.842686,7.82365 5.668933,8.596702 1.51438,0.641038 3.443192,1.053277 5.066924,1.128178 0.977998,0.04511 1.965367,-0.245147 2.934806,-0.157943 0.485886,0.04371 0.67459,0.35574 1.053521,0.586647 1.595897,0.972481 1.558552,1.176301 3.010058,-0.315886 z" />
    <path
       style="fill:none;stroke:#000000;stroke-width:0.264583px;stroke-linecap:butt;stroke-linejoin:miter;stroke-opacity:1"
       d="M 0.93463657,61.571771 C 1.8968163,61.430734 2.8454253,61.206382 3.7790963,60.936916 c 1.327606,-0.383159 2.63655,-0.84679 3.8766683,-1.458793 0.8213734,-0.405351 1.6263528,-0.86441 2.3208948,-1.465868 0.4009606,-0.347223 0.8541016,-0.70776 1.0225816,-1.214188 0.04309,-0.12952 0.05254,-0.267598 0.06292,-0.402729 0.05021,-0.653597 0.05951,-1.309584 0.06409,-1.964786 0.01186,-1.699474 -0.0083,-3.399532 -0.07903,-5.097552 -0.03207,-0.769881 -0.04488,-1.542702 -0.141736,-2.307429 -0.02309,-0.182284 -0.03344,-0.369503 -0.0939,-0.544052 C 10.575882,45.800918 10.252437,45.15362 9.8909258,44.532017 9.4427151,43.761338 8.944657,43.016291 8.3648226,42.338435 8.173404,42.114657 7.9815353,41.889096 7.7618128,41.692613 7.4045549,41.373141 6.977325,41.14656 6.5493378,40.937751 6.2293899,40.781653 5.9085358,40.627511 5.5924881,40.463361 4.7260557,40.013351 3.7857455,39.73237 2.8911735,39.346711 2.7645885,39.292139 2.6327354,39.234255 2.536555,39.135978 c -0.024664,-0.0252 -0.113717,-0.09008 -0.077503,-0.08655 0.057238,0.0056 0.1124718,0.02636 0.1672651,0.04361 0.2767148,0.08711 0.541436,0.207571 0.8167046,0.298799"
       id="path79"
       inkscape:path-effect="#path-effect81"
       inkscape:original-d="M 0.93463657,61.571771 C 3.6591525,61.183871 9.6060576,59.38453 10.993245,56.810872 11.252199,56.330434 11.112524,47.370864 10.817653,46.499348 10.303627,44.980105 8.9716524,42.896869 7.8577688,41.783574 7.2900698,41.216175 6.398887,40.891208 5.7005606,40.520019 4.7779553,40.029616 3.8662027,39.719461 2.8911735,39.346711 2.7363959,39.287539 2.3296402,39.011002 2.4898313,39.053383 c 0.3259508,0.08624 0.6331413,0.232394 0.95319,0.338458" />
    <path
       style="fill:none;stroke:#000000;stroke-width:0.264583px;stroke-linecap:butt;stroke-linejoin:miter;stroke-opacity:1"
       d="m 16.285922,11.864355 c 0.03972,0.538696 0.209876,1.074022 0.5324,1.5123 0.346998,0.471536 0.84134,0.804365 1.340495,1.096397 0.620949,0.363287 1.277915,0.685294 1.809239,1.180403 0.376093,0.350459 0.653393,0.80179 0.804583,1.293729 0.167155,0.543885 0.172251,1.118622 0.154796,1.68219 -0.0315,1.017025 -0.177965,2.032392 -0.110761,3.050952 0.022,0.333393 0.07023,0.665736 0.160755,0.988084 0.147421,0.524938 0.364366,1.033241 0.43415,1.577998 0.03629,0.283283 0.0072,0.570304 -0.05055,0.848878 -0.09627,0.464249 -0.262777,0.916779 -0.285272,1.394336 -0.0064,0.135086 0.0041,0.271252 0.04207,0.401715 0.09092,0.312593 0.238874,0.605973 0.407623,0.882922 0.16885,0.277115 0.356707,0.545394 0.584928,0.777645 0.122086,0.124242 0.277067,0.213862 0.444851,0.260498 0.30231,0.08403 0.621067,0.0644 0.92884,0.02854 0.223189,-0.026 0.446918,-0.0471 0.669918,-0.07469 1.076194,-0.133112 2.092472,-0.593653 2.964089,-1.228845 1.091155,-0.795181 1.985326,-1.839128 2.689239,-2.985642 0.721316,-1.17486 1.260316,-2.465437 1.559145,-3.812881 0.102847,-0.463746 0.15725,-0.936152 0.19973,-1.40891 0.199295,-2.21795 0.326506,-4.452765 0.147969,-6.676511 C 31.58003,10.982902 31.256538,9.3184071 30.643568,7.7527213 30.41306,7.163944 30.04025,6.6401923 29.610571,6.1806598 29.157964,5.6966061 28.629467,5.2839846 28.046869,4.9656215 27.079806,4.4371656 25.978864,4.1582848 24.87603,4.164483 c -1.334404,0.0075 -2.646209,0.422644 -3.795062,1.0889486 -1.473413,0.8545413 -2.71323,2.0997885 -3.586823,3.5595153 -0.175931,0.2939712 -0.336789,0.5969995 -0.480792,0.9078722"
       id="path83"
       inkscape:path-effect="#path-effect85"
       inkscape:original-d="m 16.285922,11.864355 c 0.269261,3.366271 4.487002,2.318732 4.640505,6.047022 0.058,1.408613 -0.269614,2.927854 -0.05016,4.309629 0.121853,0.767263 0.551839,1.511052 0.551839,2.301478 0,0.723759 -0.389179,1.425493 -0.351168,2.143536 0.02789,0.52695 0.745418,1.709177 1.178939,2.008151 0.468774,0.323286 1.181271,0.159993 1.705692,0.112818 4.12089,-0.370684 7.221878,-5.358418 7.575311,-9.138223 C 31.898719,15.778992 32.106703,11.29523 30.608772,7.6675413 30.203955,6.6871571 29.255587,5.6895372 28.351234,5.1404287 24.040132,2.5227996 18.945185,5.5502513 17.013353,9.7208191" />
    <path
       style="fill:none;stroke:#000000;stroke-width:0.264583px;stroke-linecap:butt;stroke-linejoin:miter;stroke-opacity:1"
       d="m 10.466485,17.685738 c -1.0612542,-0.159626 -2.1565034,-0.0094 -3.1568404,0.36984 -1.2782554,0.484602 -2.4104213,1.315176 -3.3188862,2.33024 -0.983011,1.098357 -1.7260648,2.422974 -2.0887274,3.855212 -0.2288907,0.903942 -0.2857844,1.85137 -0.1569622,2.776469 0.128321,0.9215 0.428443,1.817612 0.8765001,2.633191 0.5278804,0.960878 1.2522041,1.797784 2.0344248,2.559952 0.349625,0.340662 0.7180533,0.661087 1.0820284,0.986183 0.3727886,0.332968 0.7007638,0.715179 1.0980632,1.02081 0.4201761,0.323229 0.9286142,0.529291 1.4558956,0.589043 0.6687821,0.07579 1.3474164,-0.04708 1.9757521,-0.275543 0.786657,-0.286025 1.518025,-0.726214 2.13622,-1.290196 0.445632,-0.406552 0.832268,-0.885731 1.09043,-1.434421 0.352555,-0.749311 0.567108,-1.552729 0.776525,-2.350959 0.189663,-0.722933 0.378745,-1.448151 0.649018,-2.146376 0.267354,-0.690685 0.563832,-1.375047 0.727238,-2.100331 0.06641,-0.294776 0.09787,-0.596596 0.101141,-0.898658 0.0079,-0.730555 -0.09637,-1.458688 -0.259065,-2.169373 -0.187968,-0.821069 -0.443422,-1.629723 -0.800615,-2.393188 -0.114607,-0.244961 -0.221616,-0.497285 -0.379535,-0.71703 -0.135142,-0.18805 -0.297193,-0.355142 -0.462559,-0.516391 -0.415057,-0.404725 -0.861043,-0.782897 -1.357109,-1.084316 -0.303687,-0.184526 -0.627166,-0.352181 -0.979472,-0.417774 -0.224064,-0.04172 -0.471172,-0.02701 -0.666341,0.101834 -0.209087,0.138036 -0.32857,0.375449 -0.388042,0.611873 -0.05924,0.235499 -0.01405,0.482081 0.05845,0.709319 0.106383,0.333454 0.273223,0.646088 0.353811,0.987984"
       id="path87"
       inkscape:path-effect="#path-effect89"
       inkscape:original-d="m 10.466485,17.685738 c -4.673724,-0.691668 -9.2648669,4.420023 -8.7542511,9.070534 0.309391,2.817826 1.9357151,4.620721 3.9381611,6.362912 0.6923646,0.602379 1.0799861,1.207058 1.9816154,1.534316 2.0024331,0.72681 4.8972206,-0.926661 5.7943586,-2.707616 0.659876,-1.309955 0.884784,-2.952364 1.37961,-4.332198 0.312465,-0.871315 0.852581,-1.972953 0.928103,-2.978383 0.126612,-1.68559 -0.573381,-4.184433 -1.404698,-5.573187 -0.294623,-0.492183 -3.270861,-3.36854 -3.862899,-1.376378 -0.169322,0.569755 0.267561,1.158262 0.401342,1.737394" />
    <path
       style="fill:none;stroke:#000000;stroke-width:0.264583px;stroke-linecap:butt;stroke-linejoin:miter;stroke-opacity:1"
       d="m 9.4380507,124.34346 c -0.290138,-1.17481 -0.356177,-2.39126 -0.3498413,-3.59724 0.00824,-1.56811 0.1347037,-3.13472 0.084664,-4.70342 -0.037801,-1.18504 -0.1764797,-2.37057 -0.1099835,-3.55549 0.019208,-0.34227 0.1143553,-0.6757 0.2318147,-0.99578 0.2343493,-0.6386 0.5557316,-1.24642 0.9578285,-1.79489 0.323956,-0.44188 0.699415,-0.85694 1.161161,-1.15775 0.332992,-0.21693 0.72558,-0.36258 1.128502,-0.34506 0.288365,0.0125 0.562044,0.12439 0.805897,0.27396 0.379753,0.23293 0.676851,0.57642 0.922379,0.94379 0.373172,0.55836 0.63965,1.18638 1.067565,1.70766 0.121795,0.14837 0.250723,0.294 0.404122,0.41016 0.170076,0.12879 0.378596,0.18772 0.581456,0.24271 0.188616,0.0511 0.387537,0.10592 0.531983,0.24479 0.647331,0.62236 1.117154,1.40552 1.478695,2.22139 0.485117,1.09474 0.800126,2.25523 1.068791,3.41925 0.323295,1.40071 0.561041,2.81975 0.892616,4.2186 0.125531,0.52959 0.295161,1.04707 0.446298,1.57013 0.08639,0.29898 0.06815,0.61573 0.03163,0.92096 -0.06237,0.52127 -0.202869,1.03266 -0.224974,1.55844 -0.01107,0.26324 0.0072,0.54047 0.136922,0.77582 0.06862,0.12447 0.170553,0.22941 0.291018,0.30447"
       id="path91"
       inkscape:path-effect="#path-effect93"
       inkscape:original-d="m 9.4380507,124.34346 c -0.5960946,-2.4153 -0.2508454,-4.99495 -0.2508454,-7.49108 0,-1.43082 -0.1575996,-2.91393 -0.1254183,-4.3322 0.031405,-1.38405 2.071103,-5.13013 4.063579,-4.17425 1.330127,0.63812 1.546746,2.25015 2.558551,3.13633 0.376579,0.32983 0.87105,0.2448 1.178931,0.54153 2.605506,2.51111 2.756805,8.18817 3.862908,11.372 0.369578,1.06381 -0.756638,2.97577 0.250837,3.61017" />
    <path
       style="fill:none;stroke:#000000;stroke-width:0.264583px;stroke-linecap:butt;stroke-linejoin:miter;stroke-opacity:1"
       d="m 115.92805,114.77653 c 0.34348,-0.61926 0.81743,-1.15254 1.30754,-1.65879 0.57653,-0.59552 1.18701,-1.16641 1.66705,-1.84636 0.42046,-0.59556 0.89243,-1.15393 1.39566,-1.6808 0.65125,-0.68184 1.35166,-1.32399 2.13667,-1.84901 0.52598,-0.35178 1.09159,-0.66043 1.70653,-0.82297 0.45441,-0.12011 0.94621,-0.15328 1.39815,-0.007 0.11927,0.0385 0.21695,0.12767 0.27696,0.23701 0.094,0.17126 0.12298,0.37875 0.25778,0.52584 0.0921,0.1005 0.20356,0.18099 0.30696,0.26934 0.34486,0.29466 0.70108,0.57735 1.02594,0.8943 0.18204,0.17761 0.36547,0.37096 0.44908,0.61654 0.0768,0.22562 0.0831,0.46683 0.092,0.70248 0.0193,0.50792 0.0476,1.01654 0.12225,1.51947 0.0326,0.21976 0.0486,0.44514 0.12475,0.65602 0.057,0.15767 0.13962,0.30709 0.1672,0.47458 0.0373,0.22653 0.001,0.45664 -0.0257,0.68175 -0.13901,1.15299 -0.44763,2.28838 -0.93763,3.34209 -0.43161,0.92815 -1.02419,1.78298 -1.76038,2.49941 -0.23516,0.22885 -0.5224,0.39393 -0.81166,0.5439 -0.61803,0.32042 -1.26978,0.56846 -1.89838,0.86636 -0.24319,0.11525 -0.47581,0.25094 -0.71324,0.3773 -0.60331,0.32108 -1.21765,0.63107 -1.87094,0.83751 -0.37671,0.11904 -0.76944,0.17705 -1.16541,0.20036 -0.2059,0.0121 -0.40526,0.0709 -0.60267,0.1266 -0.32901,0.0928 -0.65602,0.20615 -0.99772,0.23959 -0.17522,0.0172 -0.36207,0.0152 -0.52241,-0.0674 -0.11025,-0.0568 -0.18466,-0.16039 -0.2605,-0.25434 -0.36879,-0.45682 -0.59252,-1.01508 -0.71234,-1.58601 -0.15933,-0.75922 -0.16197,-1.54014 -0.13842,-2.3122 0.0272,-0.89218 0.10981,-1.78424 0.0708,-2.67722 -0.0124,-0.28407 -0.0378,-0.56803 -0.0879,-0.8481 z"
       id="path95"
       inkscape:path-effect="#path-effect97"
       inkscape:original-d="m 115.92805,114.77653 c 0.76184,-1.37016 2.10036,-2.25994 2.98498,-3.5199 1.10528,-1.57424 4.29596,-5.02867 6.59704,-4.35476 0.43311,0.12684 0.32991,0.5828 0.62709,0.83485 2.43082,2.06165 1.51939,1.16866 1.98163,4.28707 0.0777,0.52389 0.30452,0.55188 0.25084,1.15073 -0.19923,2.22235 -1.12044,4.70836 -2.8094,6.22754 -0.60556,0.54469 -2.16666,1.07548 -2.88463,1.46662 -1.01921,0.55526 -2.35368,1.28613 -3.46156,1.28613 -0.58137,0 -1.83801,0.68721 -2.28262,0.20307 -1.72927,-1.883 -0.59197,-5.28695 -1.00337,-7.58135 z" />
    <path
       style="fill:none;stroke:#000000;stroke-width:0.264583px;stroke-linecap:butt;stroke-linejoin:miter;stroke-opacity:1"
       d="m 170.33482,22.637017 c -1.22702,-0.365047 -2.42985,-0.817324 -3.68265,-1.091163 -0.87606,-0.19149 -1.78375,-0.304687 -2.67749,-0.185602 -0.19962,0.0266 -0.40503,0.04156 -0.5936,0.112548 -0.14258,0.05368 -0.24459,0.175121 -0.33479,0.292464 -0.13984,0.181916 -0.24454,0.390241 -0.39939,0.560081 -0.0803,0.08806 -0.17549,0.16091 -0.26774,0.235772 -0.69727,0.56583 -1.4761,1.025558 -2.13979,1.634817 -0.17717,0.16264 -0.33285,0.347865 -0.46414,0.549383 -0.31433,0.482479 -0.52212,1.022748 -0.73496,1.554789 -0.11162,0.279013 -0.23393,0.553549 -0.36571,0.823746 -0.52124,1.068773 -1.07808,2.128782 -1.43162,3.268482 -0.24682,0.795668 -0.38303,1.636652 -0.30062,2.470483 0.0812,0.821616 0.39219,1.615292 0.87483,2.284437 0.52485,0.727659 1.23113,1.304604 1.98649,1.779121 1.07589,0.675878 2.25951,1.149605 3.4201,1.656826 0.59254,0.258963 1.13809,0.621844 1.75582,0.823676 0.26004,0.08496 0.53233,0.127656 0.80583,0.137004 0.7839,0.02679 1.55733,-0.125437 2.33328,-0.210119 0.49466,-0.05398 0.99556,-0.07198 1.49087,-0.01154 0.78364,0.09564 1.55617,0.288493 2.34695,0.317595 0.34816,0.01281 0.70855,0.0027 1.03721,-0.125296"
       id="path99"
       inkscape:path-effect="#path-effect101"
       inkscape:original-d="m 170.33482,22.637017 c -2.11633,-0.624126 -4.65624,-1.724427 -6.92313,-1.1733 -0.32878,0.07993 -0.58478,0.71261 -0.82776,0.925104 -0.78145,0.683404 -1.72228,1.178685 -2.45821,1.917897 -0.66261,0.665563 -0.96641,1.808881 -1.35453,2.617372 -1.01739,2.119307 -2.49267,4.61011 -1.5552,7.107507 0.93085,2.479744 3.77236,3.596285 5.96994,4.535268 0.8076,0.345067 1.54748,0.913333 2.45822,0.970227 1.2068,0.07538 2.37383,-0.307719 3.58698,-0.248198 1.08762,0.05336 2.82847,0.599096 3.76257,0.225632" />
    <path
       style="fill:none;stroke:#000000;stroke-width:0.264583px;stroke-linecap:butt;stroke-linejoin:miter;stroke-opacity:1"
       d="m 170.33482,22.637017 c -0.005,-0.463724 -0.12081,-0.933996 -0.3817,-1.322632 -0.27494,-0.40957 -0.69238,-0.699947 -1.13277,-0.908545 -0.76563,-0.362651 -1.605,-0.518932 -2.40271,-0.79163 -0.37366,-0.127736 -0.74586,-0.282239 -1.05931,-0.529326 -0.13087,-0.103162 -0.18615,-0.267831 -0.22894,-0.422733 -0.0501,-0.18145 -0.0868,-0.37749 -0.21307,-0.524579 -0.14,-0.163045 -0.33983,-0.255472 -0.53239,-0.34079 -0.24322,-0.107764 -0.50093,-0.205698 -0.69529,-0.393648 -0.12984,-0.125559 -0.22179,-0.284333 -0.30018,-0.445393 -0.17513,-0.359806 -0.28007,-0.753951 -0.50352,-1.089773 -0.302,-0.45387 -0.61126,-0.905105 -0.86386,-1.389176 -0.17959,-0.344154 -0.30897,-0.713936 -0.38347,-1.094971 -0.10392,-0.531487 -0.1423,-1.072871 -0.18212,-1.612046 -0.0192,-0.260675 -0.0353,-0.521993 -0.0788,-0.780225 -0.1105,-0.65516 -0.33041,-1.29163 -0.37078,-1.9582583 -0.0211,-0.3479361 0.0173,-0.7008344 0.13236,-1.0312399 0.19521,-0.5604678 0.52904,-1.0620006 0.90435,-1.5168724 0.61759,-0.7485171 1.34757,-1.3999434 2.13391,-1.9657605 0.72824,-0.5240116 1.50247,-0.9956097 2.33956,-1.3229359 0.45889,-0.1794389 0.93903,-0.3418442 1.43504,-0.3470137 0.48734,-0.00508 0.96708,-0.1170191 1.42599,-0.275789 0.34898,-0.1207384 0.67516,-0.3036392 1.02864,-0.4095865 0.15016,-0.045007 0.30977,-0.035877 0.46327,-0.061522 0.0602,-0.010052 0.13776,-0.00403 0.17637,-0.054647 0.0374,-0.049067 -0.0232,-0.099503 -0.0508,-0.1360684 C 170.48517,1.2371162 169.88567,0.63829042 169.33333,-2.3925776e-8"
       id="path103"
       inkscape:path-effect="#path-effect105"
       inkscape:original-d="m 170.33482,22.637017 c -0.0463,-2.874381 -3.70548,-2.458384 -4.99167,-3.565032 -0.24958,-0.214743 -0.20345,-0.639395 -0.40134,-0.902539 -0.29979,-0.398642 -1.00907,-0.421252 -1.35453,-0.879982 -0.31702,-0.420967 -0.40388,-0.977488 -0.70234,-1.421496 -1.23363,-1.835232 -1.28293,-2.047633 -1.45486,-4.445014 -0.0717,-0.999119 -0.54948,-1.9655856 -0.40134,-2.978386 0.33739,-2.3067779 4.75171,-5.5527931 6.9482,-5.5957485 0.87524,-0.017116 1.61463,-0.3438485 2.40806,-0.6769084 0.20994,-0.088128 0.78788,-0.020236 0.65218,-0.2030648 C 170.5199,1.2719272 169.90128,0.65628207 169.33333,-2.3925776e-8" />
    <path
       style="fill:none;stroke:#000000;stroke-width:0.264583px;stroke-linecap:butt;stroke-linejoin:miter;stroke-opacity:1"
       d="m 158.84644,-0.26494345 c -0.34177,0.11929925 -0.71098,0.15538231 -1.03818,0.31593047 -0.13985,0.06862051 -0.27678,0.15761165 -0.35872,0.29469412 -0.1226,0.20511413 -0.1388,0.45417409 -0.12026,0.68664856 0.0336,0.4208537 0.15668,0.828589 0.29776,1.2243051 0.27984,0.7849277 0.65996,1.5282276 0.99139,2.2915591 0.0926,0.2133191 0.17881,0.4300883 0.23266,0.6576565 0.29422,1.2432942 0.47844,2.5219301 0.4297,3.801947 -0.0397,1.0438936 -0.24844,2.0922576 -0.70408,3.0377946 -0.38236,0.79346 -0.95348,1.489937 -1.63923,2.04219 -0.27252,0.219469 -0.56888,0.406162 -0.86771,0.587483 -0.49131,0.298117 -0.97688,0.615139 -1.51482,0.824567 -0.25094,0.09769 -0.51534,0.160385 -0.7845,0.180938 -0.61094,0.04665 -1.21929,-0.07937 -1.80308,-0.249238 -0.79383,-0.230983 -1.56495,-0.547344 -2.3819,-0.693763 -0.26865,-0.04815 -0.54156,-0.06556 -0.81431,-0.06859 -0.84176,-0.0093 -1.69012,-0.01234 -2.51974,-0.16914 -0.39459,-0.07458 -0.79177,-0.176633 -1.14255,-0.377909 -0.20534,-0.117824 -0.38657,-0.283362 -0.50234,-0.492823 -0.14418,-0.260863 -0.19547,-0.55929 -0.22926,-0.85191 -0.0356,-0.308412 -0.0655,-0.620652 -0.16704,-0.916691 -0.41117,-1.198379 -0.6829,-2.4445193 -0.80323,-3.7061299 -0.15075,-1.5805485 -0.0394,-3.1698856 0.0784,-4.7496032 0.0149,-0.2002895 0.0439,-0.3998894 0.0413,-0.6013381 -0.005,-0.3517987 -0.0425,-0.7070681 0.0154,-1.0560275 0.0253,-0.1526981 0.0661,-0.313625 0.17496,-0.4291477 0.13622,-0.1445158 0.32986,-0.2178042 0.52215,-0.2503394 0.3511,-0.059405 0.71022,-0.016656 1.06193,-0.0695125"
       id="path107"
       inkscape:path-effect="#path-effect109"
       inkscape:original-d="m 158.84644,-0.26494345 c -0.4097,0.14290125 -0.87691,0.1752578 -1.2291,0.42870375 -1.03972,0.74819975 1.00228,4.0939766 1.20402,4.9188487 0.85605,3.5002427 0.82904,7.461165 -2.63379,9.521805 -0.66116,0.393436 -1.47927,0.963918 -2.25755,1.060481 -1.70518,0.211565 -3.30919,-0.954482 -4.99167,-0.992793 -1.0187,-0.0232 -3.64926,0.05337 -4.28934,-0.970235 -0.3496,-0.559071 -0.22145,-1.208547 -0.42642,-1.805078 -1.05862,-3.0808346 -1.01027,-5.6361309 -0.70236,-8.8674617 0.0401,-0.420891 -0.12558,-1.3794151 0.20068,-1.7148237 0.37456,-0.38505832 1.04944,-0.2335645 1.58028,-0.31589285" />
    <path
       style="fill:none;stroke:#000000;stroke-width:0.264583px;stroke-linecap:butt;stroke-linejoin:miter;stroke-opacity:1"
       d="m 145.30114,0.99860768 c -1.43663,0.60990942 -2.94838,1.03431322 -4.35337,1.71981762 -0.35179,0.1716414 -0.72525,0.3189947 -1.02738,0.5680329 -0.0767,0.063189 -0.11283,0.1612168 -0.1392,0.2535965 -0.0714,0.2499566 -0.0953,0.5103456 -0.11596,0.7684711 -0.0374,0.4668747 -0.0385,0.936073 -0.082,1.4024432 -0.013,0.1396384 -0.0352,0.2788035 -0.0808,0.4123345 -0.15043,0.4407591 -0.34489,0.8654033 -0.55636,1.2797653 -0.34353,0.6731365 -0.72617,1.3306682 -1.19537,1.9243059 -0.27782,0.3515021 -0.58036,0.6932043 -0.95375,0.9453033 -0.23091,0.155901 -0.50072,0.287097 -0.78489,0.271093 -0.35593,-0.02005 -0.70199,-0.120735 -1.03548,-0.240754 -0.69982,-0.251855 -1.36716,-0.5860959 -2.01433,-0.9504032 -0.93695,-0.5274282 -1.84413,-1.110562 -2.69669,-1.7658828 -0.45555,-0.3501604 -0.90594,-0.7121175 -1.30009,-1.1314573 -0.15782,-0.1679071 -0.30899,-0.3486226 -0.40117,-0.5627421 -0.0939,-0.2181579 -0.11381,-0.4579789 -0.12402,-0.6926107 -0.0106,-0.2434779 -0.003,-0.4991276 -0.10278,-0.7236855 -0.0599,-0.1352179 -0.15081,-0.2539933 -0.24075,-0.3701993 -0.33751,-0.4360623 -0.70568,-0.8470923 -1.06569,-1.2644296 -0.28392,-0.3291282 -0.5863,-0.6444879 -0.83917,-0.998303 -0.0547,-0.076607 -0.11597,-0.1513643 -0.15107,-0.2397022 -0.0244,-0.061479 0.0533,-0.038791 0.0848,-0.023446 0.0927,0.045102 0.17755,0.1048409 0.26233,0.1630523"
       id="path111"
       inkscape:path-effect="#path-effect113"
       inkscape:original-d="m 145.30114,0.99860768 c -1.7893,0.75963852 -3.72176,1.24505442 -5.36789,2.27891542 -0.3714,0.2332572 -0.25471,2.2628476 -0.40134,2.7527559 -0.31975,1.0683264 -2.08744,4.594194 -3.53681,4.512702 -1.75327,-0.09858 -6.10646,-2.9222228 -7.22413,-4.3096372 C 128.2908,5.6372844 128.53995,5.1287804 128.34453,4.4959547 128.18088,3.9659909 124.99582,0.76916009 126.388,1.7432073" />
    <path
       style="fill:none;stroke:#000000;stroke-width:0.264583px;stroke-linecap:butt;stroke-linejoin:miter;stroke-opacity:1"
       d="m 101.25403,-0.76134401 c -0.78807,1.51428171 -1.499659,3.07502061 -2.014251,4.70467191 -0.362576,1.1482338 -0.639394,2.333539 -0.695268,3.5396026 -0.03886,0.838838 0.02654,1.6942116 0.295356,2.4937389 0.270515,0.8045716 0.724839,1.5281516 1.055036,2.3072926 0.181107,0.427345 0.325897,0.868549 0.480487,1.305863 0.10436,0.295221 0.21986,0.597521 0.43396,0.832765 0.2353,0.258533 0.55068,0.42499 0.86414,0.569106 0.35712,0.16419 0.73151,0.286407 1.09511,0.43484 0.42389,0.173045 0.81075,0.421751 1.2225,0.619987 0.30311,0.145931 0.62403,0.282226 0.96406,0.293948 0.47825,0.01649 0.9521,-0.09274 1.4014,-0.247771 0.74223,-0.256103 1.44096,-0.626787 2.09723,-1.054848 0.59891,-0.390649 1.17916,-0.817823 1.6853,-1.324001 0.0981,-0.09811 0.21347,-0.184396 0.28597,-0.302747 0.0641,-0.104623 0.0945,-0.225416 0.12407,-0.343237 0.0766,-0.305306 0.13083,-0.615415 0.18595,-0.925071 0.0164,-0.09185 0.066,-0.172325 0.10961,-0.25313 0.37627,-0.696654 0.95683,-1.261835 1.30915,-1.9722216 0.30877,-0.622569 0.53865,-1.2796512 0.77874,-1.9305581 0.1,-0.271107 0.21152,-0.5377443 0.31595,-0.8071384 0.29918,-0.7717951 0.43724,-1.5920004 0.57417,-2.4046123 0.11083,-0.6577043 0.26632,-1.3060939 0.4328,-1.9533392 0.0492,-0.1914003 0.059,-0.3898715 0.0843,-0.5851987 0.0187,-0.1442198 0.0314,-0.2922915 0.087,-0.4279691 0.0204,-0.049641 0.0623,-0.1098017 0.12335,-0.098816 0.0853,0.015342 0.13392,0.095165 0.17869,0.161011 0.0516,0.075869 0.0982,0.1548985 0.14565,0.2333995"
       id="path115"
       inkscape:path-effect="#path-effect117"
       inkscape:original-d="M 101.25403,-0.76134401 C 99.786089,2.0529133 97.856743,6.5160204 98.770738,9.7532533 c 0.247012,0.8748897 0.751596,1.6485117 1.103693,2.4819857 0.884529,2.093813 0.339909,2.263187 2.809379,3.158894 0.71998,0.261147 1.53264,0.929321 2.30771,0.94767 1.74288,0.04126 4.38432,-1.748312 5.41811,-2.910698 0.16592,-0.186565 0.29047,-1.248979 0.35116,-1.376374 0.37828,-0.793962 1.04678,-1.417342 1.42977,-2.2112239 0.38667,-0.8014985 0.66205,-1.7013266 1.00337,-2.5271084 0.60148,-1.4552239 0.58039,-2.9881112 1.05352,-4.4675792 0.11858,-0.3707936 0.0603,-1.332989 0.37625,-1.1056122 0.07,0.050365 0.21425,0.3017781 0.25083,0.3610155" />
    <path
       style="fill:none;stroke:#000000;stroke-width:0.264583px;stroke-linecap:butt;stroke-linejoin:miter;stroke-opacity:1"
       d="m 76.044813,2.149354 c 0.0875,1.0641009 0.232334,2.1230914 0.414464,3.1748557 0.244076,1.4094884 0.542355,2.8131682 0.976834,4.1770504 0.264318,0.8297269 0.564696,1.6548069 0.995726,2.4136649 0.254034,0.447245 0.554749,0.876716 0.947363,1.214896 0.185728,0.159978 0.407057,0.274596 0.640706,0.346697 0.422722,0.130446 0.867979,0.149011 1.305846,0.185516 0.285501,0.0238 0.575428,0.04107 0.850685,0.124035 0.299442,0.09025 0.558655,0.273119 0.808586,0.45519 0.333495,0.242947 0.665589,0.499213 1.053428,0.651569 0.18975,0.07454 0.392845,0.104923 0.594883,0.123716 0.828568,0.07707 1.664532,-0.08671 2.437392,-0.381592 0.954109,-0.364034 1.831803,-0.911374 2.615972,-1.561737 0.55799,-0.462778 1.082599,-0.971284 1.525486,-1.545743 0.183182,-0.237601 0.3097,-0.513092 0.406731,-0.795623 0.104842,-0.305273 0.192244,-0.617576 0.329028,-0.9109074 0.388548,-0.8332378 0.634053,-1.7274046 0.777161,-2.6341885 0.238651,-1.5121773 0.209327,-3.0531562 0.468019,-4.5630096 0.07174,-0.418716 0.164889,-0.8339638 0.284929,-1.2415517"
       id="path119"
       inkscape:path-effect="#path-effect121"
       inkscape:original-d="m 76.044813,2.149354 c 0.199734,2.538203 1.269151,9.506692 3.461565,11.078678 0.710795,0.509647 1.796817,0.344909 2.608715,0.541531 0.751371,0.181964 1.368872,1.081444 2.282626,1.218424 2.505567,0.375604 5.272112,-1.545372 6.772627,-3.407091 0.459658,-0.570304 0.4836,-1.12525 0.777597,-1.7599544 1.352386,-2.9196363 0.676759,-5.5388223 1.530109,-8.4387498" />
    <path
       style="fill:none;stroke:#000000;stroke-width:0.264583px;stroke-linecap:butt;stroke-linejoin:miter;stroke-opacity:1"
       d="m 55.074753,2.9165076 c -0.280207,0.3848756 -0.492531,0.8143036 -0.682495,1.2491392 -0.407173,0.9320355 -0.726507,1.9005297 -0.994858,2.8807258 -0.30073,1.0984652 -0.554353,2.2130802 -0.690425,3.3444904 -0.07105,0.590759 -0.13469,1.189303 -0.07623,1.78299 0.01709,0.17353 0.02977,0.351125 0.08765,0.516461 0.08747,0.249865 0.268684,0.45263 0.458956,0.630476 0.351272,0.328331 0.757164,0.592088 1.103239,0.926619 0.156725,0.151497 0.275283,0.335864 0.397047,0.515084 0.323038,0.475468 0.5926,0.984033 0.894787,1.472416 0.228198,0.368804 0.485776,0.733632 0.844029,0.988159 0.322736,0.229293 0.716611,0.337585 1.10783,0.365934 0.570493,0.04134 1.142114,-0.0406 1.699442,-0.155912 0.531896,-0.110053 1.064817,-0.261048 1.535776,-0.539062 0.31758,-0.187472 0.590657,-0.450186 0.784387,-0.764851 0.260703,-0.423445 0.394461,-0.906359 0.576183,-1.365326 0.163905,-0.413968 0.380473,-0.808737 0.661289,-1.155593 0.417322,-0.515464 0.900746,-0.972219 1.386936,-1.421438 0.748126,-0.691237 1.5306,-1.348099 2.227715,-2.092114 0.345086,-0.3683023 0.671141,-0.7594942 0.923225,-1.1993694 0.138677,-0.2419848 0.204491,-0.5191259 0.221528,-0.7958435 0.02922,-0.4746734 -0.0537,-0.9464623 -0.135314,-1.4121359 -0.07072,-0.4035206 -0.149073,-0.8088299 -0.145892,-1.2205682 0.0054,-0.6950378 0.16379,-1.3801075 0.38512,-2.0357609 0.196868,-0.5831892 0.437799,-1.1513829 0.714514,-1.7008366 0.101311,-0.2011664 0.183579,-0.4135726 0.30746,-0.6017321 0.01017,-0.01545 0.01844,-0.04823 -0.0047,-0.017833 -0.0058,0.00764 -0.01137,0.015485 -0.01686,0.02337"
       id="path123"
       inkscape:path-effect="#path-effect125"
       inkscape:original-d="m 55.074753,2.9165076 c -1.265116,1.7059039 -2.831475,7.6624794 -2.382959,9.6797474 0.164362,0.739237 1.330198,1.251066 1.780953,1.872774 1.533003,2.1144 1.361199,3.667795 4.791003,2.955821 3.02273,-0.627472 2.21824,-2.142498 3.461568,-3.74554 1.171726,-1.510729 3.88325,-3.347941 4.640495,-4.8737265 0.439261,-0.8850706 -0.05181,-2.196379 -0.10033,-3.0911974 -0.07116,-1.3121809 0.504388,-2.7673763 1.053521,-3.9034905 0.108989,-0.2254917 0.468995,-0.88257691 0.326088,-0.6768998" />
    <path
       style="fill:none;stroke:#000000;stroke-width:0.264583px;stroke-linecap:butt;stroke-linejoin:miter;stroke-opacity:1"
       d="M 32.75017,-0.03931304 C 32.353481,0.46312692 32.055694,1.0434046 31.882717,1.66024 c -0.198884,0.7092208 -0.230352,1.4561847 -0.162584,2.186914 0.09237,0.9959865 0.356317,1.9844829 0.841246,2.8635699 0.407932,0.7395059 0.98195,1.3870574 1.671684,1.875783 0.745801,0.5284529 1.620593,0.8508599 2.515391,1.0235054 0.241667,0.046628 0.48684,0.069178 0.730426,0.1027167 0.485534,0.066852 0.967465,0.1773937 1.459713,0.1817573 0.343255,0.00304 0.689542,-0.057032 1.003567,-0.1976017 0.134296,-0.060116 0.269777,-0.1246173 0.379508,-0.2251071 0.189101,-0.1731757 0.322357,-0.3969459 0.437831,-0.6232798 0.217382,-0.4260768 0.368482,-0.8818232 0.576268,-1.3122494 0.06816,-0.1412012 0.150275,-0.2752249 0.244617,-0.4008809 0.783353,-1.0433659 1.708416,-1.9671217 2.596827,-2.9190246 0.336994,-0.3610779 0.680778,-0.7173475 0.988489,-1.1037877 0.131113,-0.1646588 0.193133,-0.3711952 0.227815,-0.5764537 0.0198,-0.1171998 0.02305,-0.2373944 0.05453,-0.3524457 0.0138,-0.050427 0.04624,-0.1056126 0.102552,-0.1131283 0.07938,-0.010593 0.155727,0.024541 0.224706,0.059112 0.102574,0.051408 0.19918,0.1138603 0.294369,0.1776563"
       id="path131"
       inkscape:path-effect="#path-effect133"
       inkscape:original-d="M 32.75017,-0.03931304 C 31.850433,1.1061198 31.583254,2.4109166 31.721737,3.8641776 c 0.312237,3.2767 2.327285,5.4597588 5.543521,5.8213876 1.023151,0.1150416 1.891503,0.4511718 2.884638,-0.090254 0.670086,-0.3653091 0.959966,-1.8255228 1.379604,-2.391732 1.081209,-1.4588603 2.441061,-2.6803796 3.61207,-4.0614327 0.53213,-0.6275762 -0.06044,-1.501762 0.928103,-0.8348504" />
    <path
       style="fill:none;stroke:#000000;stroke-width:0.264583px;stroke-linecap:butt;stroke-linejoin:miter;stroke-opacity:1"
       d="m 50.559673,30.850136 c 0.347219,-0.83214 0.492734,-1.733216 0.542648,-2.629319 0.07914,-1.420769 -0.05663,-2.849297 0.115556,-4.265762 0.137677,-1.132574 0.432974,-2.245773 0.473095,-3.389503 0.02167,-0.617639 -0.101202,-1.22702 -0.215385,-1.830598 -0.08727,-0.461309 -0.152448,-0.927528 -0.168035,-1.397449 -0.03718,-1.121002 0.166929,-2.233061 0.429831,-3.318256 0.141531,-0.584205 0.317749,-1.159538 0.457905,-1.743982 0.136488,-0.569148 0.246275,-1.147111 0.285193,-1.731432 0.02289,-0.343656 0.04081,-0.6958439 -0.043,-1.032346 -0.04045,-0.1624031 -0.10819,-0.3370369 -0.257276,-0.4290599 -0.111826,-0.069025 -0.248996,-0.058199 -0.374368,-0.062309 -0.964011,-0.031606 -1.919863,0.2305048 -2.778264,0.6578413 -1.030715,0.5131196 -1.941365,1.2467946 -2.720007,2.0910896 -0.258537,0.280336 -0.487672,0.585522 -0.724954,0.883833 -0.379688,0.477344 -0.869302,0.847545 -1.325982,1.246034 -0.38754,0.338159 -0.747604,0.713289 -1.024697,1.150046 -1.021718,1.610442 -1.649068,3.450948 -1.943195,5.329738 -0.338214,2.160406 -0.242961,4.374795 0.160705,6.521287 0.07686,0.408676 0.178153,0.812739 0.309584,1.207467 0.382559,1.148942 0.983192,2.217407 1.310238,3.384527 0.101519,0.362288 0.05759,0.744897 -0.0096,1.109078 -0.09643,0.522957 -0.265598,1.039642 -0.258417,1.575546 0.002,0.146053 -6.64e-4,0.297584 0.04859,0.435766 0.07194,0.201834 0.225872,0.361504 0.38407,0.49929 0.370562,0.322748 0.795661,0.576288 1.229701,0.802936 0.591388,0.308812 1.202511,0.585252 1.839223,0.78566 0.287955,0.09063 0.584516,0.171017 0.890096,0.16281 0.482215,-0.01295 0.937558,-0.22295 1.320427,-0.505429 0.537575,-0.39662 0.971094,-0.913209 1.375679,-1.439968 0.426434,-0.555206 0.81731,-1.136438 1.244996,-1.690923 0.09991,-0.129527 0.218814,-0.244125 0.30279,-0.385972 0.127798,-0.215868 0.247942,-0.441899 0.306724,-0.686031 0.01591,-0.06608 0.04735,-0.138737 0.02193,-0.2042 -0.01857,-0.04783 -0.07469,-0.01415 -0.102146,0.0052"
       id="path135"
       inkscape:path-effect="#path-effect137"
       inkscape:original-d="m 50.559673,30.850136 c 0.885597,-2.137373 0.41339,-4.400441 0.627092,-6.611106 0.117414,-1.214585 0.443494,-2.389045 0.501673,-3.610164 0.04301,-0.902611 -0.214624,-1.712464 -0.326088,-2.594805 -0.242856,-1.922415 0.308507,-3.803532 0.802685,-5.640871 0.164047,-0.60993 0.734121,-3.2956486 -0.150506,-3.3619677 -2.54736,-0.1909707 -4.9844,1.6711517 -6.371285,3.5424757 -0.633034,0.854154 -1.715305,1.396259 -2.35788,2.391731 -2.295024,3.555444 -2.649045,8.229481 -1.755864,12.319674 0.308168,1.411216 1.098952,2.778032 1.530117,4.174254 0.285768,0.925394 -0.413745,2.076614 -0.225759,3.091196 0.160938,0.868622 3.210195,2.202704 4.088657,2.301478 1.950117,0.219271 3.320738,-2.638787 4.38967,-3.835794 0.248028,-0.277746 0.656288,-1.273955 0.351176,-1.060489" />
    <path
       style="fill:none;stroke:#000000;stroke-width:0.264583px;stroke-linecap:butt;stroke-linejoin:miter;stroke-opacity:1"
       d="m 28.310334,37.077671 c -0.49745,-0.0017 -0.998153,0.100943 -1.444153,0.326043 -0.522545,0.263733 -0.950703,0.671055 -1.376644,1.064323 -0.267584,0.247058 -0.548199,0.479266 -0.834184,0.704885 -1.236599,0.975575 -2.436072,2.017413 -3.428354,3.246957 -0.599269,0.742559 -1.144758,1.540412 -1.521307,2.418094 -0.229556,0.535062 -0.374974,1.102062 -0.492436,1.670736 -0.216983,1.050491 -0.353078,2.118683 -0.393991,3.190405 -0.02564,0.67152 -0.02921,1.348397 0.0722,2.0142 0.03504,0.23008 0.08624,0.459794 0.186198,0.671581 0.20479,0.433903 0.509661,0.812682 0.841748,1.1551 0.477069,0.49191 1.012582,0.929631 1.599084,1.284386 0.320104,0.19362 0.661214,0.355545 1.024295,0.453188 0.698943,0.187965 1.434492,0.18712 2.148256,0.09454 1.20391,-0.15615 2.369415,-0.539404 3.583274,-0.631392 0.986773,-0.07478 1.98583,-0.04376 2.960005,-0.241653 0.585356,-0.11891 1.165396,-0.335143 1.6289,-0.721637 0.284237,-0.237012 0.519874,-0.533482 0.675642,-0.870305 0.23658,-0.511565 0.348787,-1.06751 0.482186,-1.611872 0.127613,-0.520751 0.254436,-1.053662 0.528385,-1.519568 0.133665,-0.227325 0.2976,-0.445419 0.515278,-0.598023 0.25045,-0.175579 0.554311,-0.239415 0.841623,-0.327813 0.253048,-0.07786 0.499707,-0.194795 0.691996,-0.380294 0.234888,-0.226593 0.40472,-0.510751 0.556256,-0.796778 0.363518,-0.686148 0.645318,-1.412433 0.895389,-2.146323 0.34188,-1.003323 0.64487,-2.022658 0.848423,-3.063253 0.08185,-0.418451 0.169516,-0.840309 0.172637,-1.26777 0.0036,-0.4946 -0.04054,-0.995521 -0.198844,-1.466998 -0.148757,-0.443046 -0.363955,-0.859252 -0.561098,-1.28176 -0.281802,-0.603945 -0.531974,-1.222098 -0.813521,-1.826086 -0.185495,-0.397933 -0.394582,-0.799547 -0.724319,-1.098706 -0.346424,-0.314298 -0.774838,-0.517287 -1.19836,-0.704942 -0.493702,-0.218751 -1.004428,-0.397103 -1.498244,-0.615196 -0.617119,-0.272549 -1.228419,-0.568636 -1.877934,-0.755218 -0.200579,-0.05762 -0.405807,-0.122725 -0.616288,-0.114885 -0.07786,0.0029 -0.181967,0.01956 -0.206096,0.104851 -0.02687,0.09498 0.02063,0.191677 0.06496,0.273012 0.0095,0.01734 0.01936,0.03444 0.0296,0.05133"
       id="path139"
       inkscape:path-effect="#path-effect141"
       inkscape:original-d="m 28.310334,37.077671 c -1.715868,0.003 -2.323264,1.053041 -3.486643,1.963028 -2.057537,1.609389 -3.921623,3.303627 -5.066927,5.686002 -0.732453,1.523595 -1.210033,5.600631 -0.802684,7.31058 0.285939,1.200303 2.290949,2.834772 3.386313,3.181453 1.922251,0.608386 3.750198,-0.245692 5.643853,-0.451271 1.735296,-0.188386 4.102618,0.130702 5.292685,-1.421505 0.810559,-1.057214 0.633455,-3.105259 1.655535,-4.061431 0.497724,-0.465632 1.18201,-0.296595 1.730777,-0.879975 1.037532,-1.102971 2.408045,-5.828067 2.408045,-7.242884 0,-1.258168 -0.279951,-1.67095 -0.777598,-2.752754 -1.392332,-3.026725 -0.891926,-2.887181 -4.138821,-4.174244 -0.38685,-0.153347 -3.372371,-1.609106 -2.68397,-0.473834" />
    <path
       style="fill:none;stroke:#000000;stroke-width:0.264583px;stroke-linecap:butt;stroke-linejoin:miter;stroke-opacity:1"
       d="m 70.70196,125.72169 c -0.127609,0.0619 -0.497181,0.10068 -0.383086,0.18567 0.02978,0.0222 0.0905,0.007 0.131197,0.002 0.411904,-0.0497 0.8203,-0.12431 1.229908,-0.18958 0.302493,-0.0482 0.614465,-0.0534 0.908222,-0.14053 0.02425,-0.007 0.08272,-0.003 0.0308,0.0138 -0.102354,0.0332 -0.205039,0.0696 -0.311671,0.0834 -0.595607,0.0768 -1.210421,0.1 -1.797663,-0.0477 -0.416611,-0.10481 -0.804015,-0.3203 -1.11191,-0.62053 -0.400882,-0.3909 -0.677158,-0.88602 -0.929858,-1.37986 -0.247218,-0.48313 -0.48953,-0.96871 -0.748312,-1.44599 -0.321633,-0.5932 -0.540701,-1.24075 -0.648837,-1.90695 -0.142754,-0.87947 -0.107103,-1.77352 -0.144517,-2.66056 -0.01144,-0.27125 -0.01398,-0.54383 -0.0492,-0.81314 -0.06409,-0.49003 -0.27136,-0.94387 -0.455423,-1.39744 -0.182545,-0.44983 -0.344716,-0.91896 -0.362134,-1.40855 -0.0086,-0.24311 0.0017,-0.49178 0.0738,-0.72459 0.08116,-0.26224 0.231686,-0.49592 0.389668,-0.71766 0.161677,-0.22693 0.330673,-0.4484 0.496685,-0.67221 0.91299,-1.23085 2.128078,-2.24234 3.524191,-2.88143 1.218471,-0.55777 2.57256,-0.82323 3.910463,-0.74427 0.280585,0.0166 0.560103,-0.0278 0.840688,-0.0244 0.210229,0.003 0.438149,0.0133 0.613474,0.13841 0.117072,0.0836 0.218577,0.1874 0.315645,0.29292 0.372284,0.40471 0.617058,0.90452 0.83328,1.40502 0.237133,0.54891 0.462324,1.10864 0.805425,1.60424 0.102308,0.14778 0.235536,0.27243 0.387683,0.3683 0.347325,0.21885 0.762692,0.30216 1.101027,0.53781 0.186371,0.12981 0.325028,0.32153 0.399127,0.53634 0.105912,0.30704 0.08416,0.63662 0.07033,0.95537 -0.0088,0.20191 5e-5,0.4044 0.0309,0.60445 0.09512,0.61682 0.279418,1.21511 0.467797,1.80855 0.11795,0.37157 0.226725,0.74594 0.342957,1.11809 0.176373,0.5647 0.499575,1.06635 0.818874,1.55886 0.309084,0.47675 0.616433,0.96343 0.797937,1.50595 0.240285,0.71822 0.328981,1.47582 0.385712,2.22772 0.05217,0.69149 0.0056,1.39373 0.129139,2.07619 0.06067,0.33518 0.134437,0.66786 0.203924,1.0013 0.126996,0.6094 0.282947,1.21357 0.379179,1.82861 0.0081,0.052 0.01948,0.10333 0.0091,0.15714 -0.07165,0.37132 -0.339297,0.66807 -0.418528,1.03693"
       id="path147"
       inkscape:path-effect="#path-effect149"
       inkscape:original-d="m 70.70196,125.72169 c -0.125418,0.0602 -0.256955,0.10901 -0.376253,0.18051 -0.204912,0.12288 3.421025,-0.57747 1.981623,-0.22564 -3.126296,0.41332 -3.38788,-1.33405 -4.540173,-3.40709 -1.035683,-1.86324 -0.727087,-3.31225 -0.877929,-5.34754 -0.0848,-1.14423 -1.071058,-2.13954 -0.777597,-3.56504 0.0931,-0.45222 0.555739,-0.98636 0.802676,-1.33124 1.777983,-2.48319 4.559082,-3.9377 7.575311,-3.76811 0.426672,0.024 1.125663,-0.14689 1.479942,0.15793 1.066204,0.91737 1.166389,2.33788 1.956537,3.33941 0.497999,0.63122 1.488439,0.49243 1.80604,1.30868 0.186792,0.48006 0.04197,0.97669 0.100331,1.46664 0.111351,0.93484 0.544716,2.06465 0.802685,2.97837 0.31946,1.13151 1.20722,1.95373 1.60536,3.04607 0.489143,1.34201 0.429825,3.04614 0.551848,4.39989 0.01373,0.15234 0.612,2.88841 0.602005,2.95583 -0.05896,0.39774 -0.338039,0.68554 -0.426421,1.08305" />
  </g>
</svg>
