<?xml version="1.0" encoding="UTF-8" standalone="no"?>
<!-- Created with Inkscape (http://www.inkscape.org/) -->

<svg
   width="353.56799mm"
   height="264.16mm"
   viewBox="0 0 353.56799 264.16"
   version="1.1"
   id="svg5"
   inkscape:version="1.1.2 (08b2f3d93c, 2022-04-05)"
   sodipodi:docname="Condr贸citosOv贸ies.svg"
   xmlns:inkscape="http://www.inkscape.org/namespaces/inkscape"
   xmlns:sodipodi="http://sodipodi.sourceforge.net/DTD/sodipodi-0.dtd"
   xmlns="http://www.w3.org/2000/svg"
   xmlns:svg="http://www.w3.org/2000/svg">
  <sodipodi:namedview
     id="namedview7"
     pagecolor="#ffffff"
     bordercolor="#666666"
     borderopacity="1.0"
     inkscape:pageshadow="2"
     inkscape:pageopacity="0.0"
     inkscape:pagecheckerboard="0"
     inkscape:document-units="mm"
     showgrid="false"
     inkscape:zoom="0.47670982"
     inkscape:cx="673.36562"
     inkscape:cy="475.13181"
     inkscape:window-width="1366"
     inkscape:window-height="704"
     inkscape:window-x="0"
     inkscape:window-y="27"
     inkscape:window-maximized="1"
     inkscape:current-layer="layer2" />
  <defs
     id="defs2">
    <inkscape:path-effect
       effect="simplify"
       id="path-effect149"
       is_visible="true"
       lpeversion="1"
       steps="1"
       threshold="0.000408163"
       smooth_angles="360"
       helper_size="0"
       simplify_individual_paths="false"
       simplify_just_coalesce="false" />
    <inkscape:path-effect
       effect="simplify"
       id="path-effect145"
       is_visible="true"
       lpeversion="1"
       steps="1"
       threshold="0.000408163"
       smooth_angles="360"
       helper_size="0"
       simplify_individual_paths="false"
       simplify_just_coalesce="false" />
    <inkscape:path-effect
       effect="simplify"
       id="path-effect141"
       is_visible="true"
       lpeversion="1"
       steps="1"
       threshold="0.000408163"
       smooth_angles="360"
       helper_size="0"
       simplify_individual_paths="false"
       simplify_just_coalesce="false" />
    <inkscape:path-effect
       effect="simplify"
       id="path-effect137"
       is_visible="true"
       lpeversion="1"
       steps="1"
       threshold="0.000408163"
       smooth_angles="360"
       helper_size="0"
       simplify_individual_paths="false"
       simplify_just_coalesce="false" />
    <inkscape:path-effect
       effect="simplify"
       id="path-effect133"
       is_visible="true"
       lpeversion="1"
       steps="1"
       threshold="0.000408163"
       smooth_angles="360"
       helper_size="0"
       simplify_individual_paths="false"
       simplify_just_coalesce="false" />
    <inkscape:path-effect
       effect="simplify"
       id="path-effect129"
       is_visible="true"
       lpeversion="1"
       steps="1"
       threshold="0.000408163"
       smooth_angles="360"
       helper_size="0"
       simplify_individual_paths="false"
       simplify_just_coalesce="false" />
    <inkscape:path-effect
       effect="simplify"
       id="path-effect125"
       is_visible="true"
       lpeversion="1"
       steps="1"
       threshold="0.000408163"
       smooth_angles="360"
       helper_size="0"
       simplify_individual_paths="false"
       simplify_just_coalesce="false" />
    <inkscape:path-effect
       effect="simplify"
       id="path-effect121"
       is_visible="true"
       lpeversion="1"
       steps="1"
       threshold="0.000408163"
       smooth_angles="360"
       helper_size="0"
       simplify_individual_paths="false"
       simplify_just_coalesce="false" />
    <inkscape:path-effect
       effect="simplify"
       id="path-effect117"
       is_visible="true"
       lpeversion="1"
       steps="1"
       threshold="0.000408163"
       smooth_angles="360"
       helper_size="0"
       simplify_individual_paths="false"
       simplify_just_coalesce="false" />
    <inkscape:path-effect
       effect="simplify"
       id="path-effect113"
       is_visible="true"
       lpeversion="1"
       steps="1"
       threshold="0.000408163"
       smooth_angles="360"
       helper_size="0"
       simplify_individual_paths="false"
       simplify_just_coalesce="false" />
    <inkscape:path-effect
       effect="simplify"
       id="path-effect109"
       is_visible="true"
       lpeversion="1"
       steps="1"
       threshold="0.000408163"
       smooth_angles="360"
       helper_size="0"
       simplify_individual_paths="false"
       simplify_just_coalesce="false" />
    <inkscape:path-effect
       effect="simplify"
       id="path-effect105"
       is_visible="true"
       lpeversion="1"
       steps="1"
       threshold="0.000408163"
       smooth_angles="360"
       helper_size="0"
       simplify_individual_paths="false"
       simplify_just_coalesce="false" />
    <inkscape:path-effect
       effect="simplify"
       id="path-effect101"
       is_visible="true"
       lpeversion="1"
       steps="1"
       threshold="0.000408163"
       smooth_angles="360"
       helper_size="0"
       simplify_individual_paths="false"
       simplify_just_coalesce="false" />
    <inkscape:path-effect
       effect="simplify"
       id="path-effect97"
       is_visible="true"
       lpeversion="1"
       steps="1"
       threshold="0.000408163"
       smooth_angles="360"
       helper_size="0"
       simplify_individual_paths="false"
       simplify_just_coalesce="false" />
    <inkscape:path-effect
       effect="simplify"
       id="path-effect93"
       is_visible="true"
       lpeversion="1"
       steps="1"
       threshold="0.000408163"
       smooth_angles="360"
       helper_size="0"
       simplify_individual_paths="false"
       simplify_just_coalesce="false" />
    <inkscape:path-effect
       effect="simplify"
       id="path-effect89"
       is_visible="true"
       lpeversion="1"
       steps="1"
       threshold="0.000408163"
       smooth_angles="360"
       helper_size="0"
       simplify_individual_paths="false"
       simplify_just_coalesce="false" />
    <inkscape:path-effect
       effect="simplify"
       id="path-effect85"
       is_visible="true"
       lpeversion="1"
       steps="1"
       threshold="0.000408163"
       smooth_angles="360"
       helper_size="0"
       simplify_individual_paths="false"
       simplify_just_coalesce="false" />
    <inkscape:path-effect
       effect="simplify"
       id="path-effect81"
       is_visible="true"
       lpeversion="1"
       steps="1"
       threshold="0.000408163"
       smooth_angles="360"
       helper_size="0"
       simplify_individual_paths="false"
       simplify_just_coalesce="false" />
    <inkscape:path-effect
       effect="simplify"
       id="path-effect77"
       is_visible="true"
       lpeversion="1"
       steps="1"
       threshold="0.000408163"
       smooth_angles="360"
       helper_size="0"
       simplify_individual_paths="false"
       simplify_just_coalesce="false" />
    <inkscape:path-effect
       effect="simplify"
       id="path-effect73"
       is_visible="true"
       lpeversion="1"
       steps="1"
       threshold="0.000408163"
       smooth_angles="360"
       helper_size="0"
       simplify_individual_paths="false"
       simplify_just_coalesce="false" />
    <inkscape:path-effect
       effect="simplify"
       id="path-effect69"
       is_visible="true"
       lpeversion="1"
       steps="1"
       threshold="0.000408163"
       smooth_angles="360"
       helper_size="0"
       simplify_individual_paths="false"
       simplify_just_coalesce="false" />
    <inkscape:path-effect
       effect="simplify"
       id="path-effect65"
       is_visible="true"
       lpeversion="1"
       steps="1"
       threshold="0.000408163"
       smooth_angles="360"
       helper_size="0"
       simplify_individual_paths="false"
       simplify_just_coalesce="false" />
    <inkscape:path-effect
       effect="simplify"
       id="path-effect61"
       is_visible="true"
       lpeversion="1"
       steps="1"
       threshold="0.000408163"
       smooth_angles="360"
       helper_size="0"
       simplify_individual_paths="false"
       simplify_just_coalesce="false" />
    <inkscape:path-effect
       effect="simplify"
       id="path-effect57"
       is_visible="true"
       lpeversion="1"
       steps="1"
       threshold="0.000408163"
       smooth_angles="360"
       helper_size="0"
       simplify_individual_paths="false"
       simplify_just_coalesce="false" />
  </defs>
  <g
     inkscape:groupmode="layer"
     id="layer2"
     inkscape:label="Condr贸citos Ov贸ides">
    <path
       style="fill:none;stroke:#000000;stroke-width:0.264583px;stroke-linecap:butt;stroke-linejoin:miter;stroke-opacity:1"
       d="m 234.07887,180.10403 c 0.26037,-0.032 0.52128,-0.0593 0.782,-0.0883 0.0966,-0.0108 0.19285,-0.0279 0.28519,-0.0591 0.16619,-0.0562 0.33166,-0.11458 0.49815,-0.16999 0.19576,-0.0651 0.39369,-0.12352 0.58973,-0.18775 0.5712,-0.18716 1.11061,-0.46167 1.68979,-0.626 0.15712,-0.0446 0.3175,-0.0761 0.47837,-0.10428 0.22308,-0.0391 0.43851,-0.13268 0.61029,-0.28213 0.18205,-0.15838 0.30712,-0.37335 0.38417,-0.60012 0.0994,-0.29246 0.13605,-0.60396 0.1273,-0.91134 -0.003,-0.0998 -0.002,-0.19992 -0.013,-0.29919 -0.0117,-0.10187 -0.0468,-0.20541 -0.12228,-0.27862 -0.0754,-0.0731 -0.17764,-0.10765 -0.27725,-0.13339 -0.11434,-0.0295 -0.23681,-0.0501 -0.33279,-0.12287 -0.30835,-0.2337 -0.66471,-0.40359 -1.04116,-0.49413 -0.46128,-0.11094 -0.94415,-0.10255 -1.41,-0.0252 -0.58148,0.0966 -1.14136,0.29161 -1.68465,0.51596 -0.37675,0.15558 -0.74361,0.33362 -1.11587,0.4994 -0.31215,0.13901 -0.63018,0.26485 -0.93809,0.41329 -0.29108,0.14032 -0.57874,0.29448 -0.83092,0.49814 -0.17594,0.14209 -0.33187,0.31363 -0.43421,0.51779 -0.027,0.0539 -0.0167,0.11716 -0.002,0.17297 0.0289,0.11282 0.0812,0.21751 0.13009,0.32253 0.11081,0.23799 0.26422,0.45909 0.46587,0.62937 0.19593,0.16545 0.43219,0.27483 0.67387,0.35539 0.30135,0.10045 0.61079,0.17316 0.91767,0.25423 0.16303,0.0431 0.32202,0.10001 0.47775,0.16448 0.29983,0.12412 0.59132,0.27403 0.90682,0.35508 0.0538,0.0138 0.10709,0.0324 0.16246,0.037 0.0798,0.007 0.15382,-0.0363 0.21213,-0.0865 0.11225,-0.0968 0.19552,-0.22101 0.27999,-0.34142 0.0359,-0.0512 0.0706,-0.10338 0.11128,-0.1509"
       id="path55"
       inkscape:path-effect="#path-effect57"
       inkscape:original-d="m 234.07887,180.10403 c 1.41754,-0.17001 0.53042,-0.002 2.05687,-0.47383 0.76566,-0.23643 1.43751,-0.63043 2.23246,-0.75588 0.97332,-0.1536 1.17924,-1.08489 1.15386,-1.88405 -0.005,-0.16036 10e-4,-0.35699 -0.12542,-0.48512 -0.17084,-0.17288 -0.43672,-0.12805 -0.6271,-0.27076 -1.5877,-1.19014 -3.59095,-0.26459 -5.17981,0.47383 -0.65162,0.30285 -1.93488,0.72655 -2.27008,1.46663 -0.0513,0.11331 0.0714,0.35081 0.10034,0.41743 0.43849,1.00975 1.17507,1.0462 2.16974,1.33125 0.50249,0.14399 0.9183,0.41992 1.44232,0.53024 0.25336,0.0533 0.4911,-0.41967 0.6271,-0.57537" />
    <path
       style="fill:none;stroke:#000000;stroke-width:0.264583px;stroke-linecap:butt;stroke-linejoin:miter;stroke-opacity:1"
       d="m 243.0965,172.61294 c -0.24295,0.21236 -0.42305,0.49295 -0.52321,0.79935 -0.12668,0.38752 -0.133,0.80606 -0.0653,1.20542 0.0876,0.51663 0.28839,1.01122 0.5658,1.45436 0.25698,0.41051 0.5797,0.78461 0.97128,1.07184 0.3,0.22006 0.64565,0.38783 1.01605,0.44413 0.29626,0.045 0.60348,0.005 0.88041,-0.11052 0.23465,-0.0975 0.44478,-0.25396 0.60218,-0.45405 0.19748,-0.25104 0.30992,-0.55899 0.36667,-0.87072 0.0748,-0.41102 0.0669,-0.83292 0.0199,-1.24654 -0.0657,-0.57914 -0.20208,-1.14856 -0.37915,-1.70316 -0.11875,-0.37194 -0.26916,-0.73255 -0.41539,-1.09467 -0.0535,-0.13251 -0.0663,-0.27664 -0.0766,-0.41785 -0.0126,-0.17427 -0.0151,-0.35105 -0.0589,-0.52122 -0.029,-0.11268 -0.0831,-0.22232 -0.17209,-0.29979 -0.0656,-0.0571 -0.14646,-0.095 -0.23121,-0.11396 -0.14271,-0.0319 -0.28884,-0.0449 -0.43444,-0.0551 -0.30854,-0.0215 -0.6179,-0.0286 -0.92706,-0.029 -0.25955,-3.6e-4 -0.52327,0.0331 -0.76406,0.13484 -0.19873,0.084 -0.37354,0.21781 -0.51873,0.3764 -0.19154,0.20922 -0.34324,0.45153 -0.47513,0.70142 -0.0383,0.0725 -0.0789,0.14357 -0.11872,0.21522 -0.0459,0.0827 -0.0933,0.16739 -0.11012,0.26163 -0.01,0.054 -2.1e-4,0.11439 0.0389,0.15543 0.063,0.0661 0.15376,0.0973 0.24291,0.10643 0.18865,0.0193 0.3774,-0.0298 0.56594,-0.01 z"
       id="path59"
       inkscape:path-effect="#path-effect61"
       inkscape:original-d="m 243.0965,172.61294 c -1.85854,1.63902 0.77173,5.90873 2.94734,4.81732 1.69281,-0.84921 0.63772,-4.11411 0.10034,-5.30243 -0.18551,-0.4102 0.0505,-1.12602 -0.45151,-1.34253 -0.25112,-0.1083 -1.16647,-0.10759 -1.37961,-0.11282 -0.95945,-0.0236 -1.39065,0.36568 -1.88129,1.29741 -0.0885,0.16804 -0.27445,0.42075 -0.13796,0.5528 0.19352,0.18721 0.53513,0.0602 0.80269,0.0902 z" />
    <path
       style="fill:none;stroke:#000000;stroke-width:0.264583px;stroke-linecap:butt;stroke-linejoin:miter;stroke-opacity:1"
       d="m 241.13996,167.88589 c 0.32765,-0.43039 0.74034,-0.78629 1.16418,-1.11847 0.60657,-0.47539 1.25119,-0.90472 1.81627,-1.43112 0.36977,-0.34446 0.7084,-0.73502 0.9261,-1.19434 0.0483,-0.10197 0.1008,-0.20378 0.1287,-0.31324 0.031,-0.12181 0.0244,-0.24917 0.0162,-0.37339 -0.0109,-0.16473 -0.0418,-0.32832 -0.0406,-0.49359 6.9e-4,-0.0943 0.018,-0.18761 0.037,-0.27964 0.054,-0.26145 0.14285,-0.51792 0.15349,-0.78657 0.005,-0.12772 -0.006,-0.25856 -0.0508,-0.37868 -0.0421,-0.11176 -0.1314,-0.19607 -0.22252,-0.26928 -0.10224,-0.0821 -0.22299,-0.15777 -0.27603,-0.28103 -0.0185,-0.0429 -0.0454,-0.0812 -0.0754,-0.11682 -0.1216,-0.14451 -0.25586,-0.27789 -0.39346,-0.40698 -0.16096,-0.15101 -0.32155,-0.30453 -0.50297,-0.43063 -0.0551,-0.0383 -0.10785,-0.0898 -0.17483,-0.10049 -0.37522,-0.06 -0.76448,-0.0454 -1.13052,0.0616 -0.33392,0.0976 -0.63815,0.27237 -0.9293,0.45909 -0.3263,0.20926 -0.6494,0.42969 -1.01056,0.57627 -0.34963,0.1419 -0.72732,0.19169 -1.10049,0.22612 -0.47271,0.0436 -0.9511,0.0578 -1.41483,0.16799 -0.31299,0.0744 -0.61693,0.20355 -0.86895,0.40698 -0.13278,0.10718 -0.24464,0.23732 -0.34576,0.3743 -0.27415,0.37137 -0.51316,0.77292 -0.6719,1.20752 -0.12398,0.33944 -0.19915,0.70386 -0.16488,1.06621 0.0232,0.24559 0.095,0.4905 0.23058,0.69736 0.16878,0.2575 0.4325,0.4329 0.60907,0.68429 0.0608,0.0866 0.10649,0.1824 0.15983,0.2736 0.16723,0.28596 0.36824,0.55757 0.62788,0.76681 0.23069,0.18591 0.50521,0.31391 0.79215,0.38384 0.30466,0.0743 0.61677,0.1179 0.92995,0.13285 0.53034,0.0253 1.06249,-0.0466 1.57351,-0.18785 0.67851,-0.18753 1.31924,-0.48635 1.9523,-0.78932"
       id="path63"
       inkscape:path-effect="#path-effect65"
       inkscape:original-d="m 241.13996,167.88589 c 1.09917,-1.44883 3.38532,-2.24644 4.02595,-4.02759 0.0873,-0.24276 -0.034,-0.73952 -0.0125,-0.95894 0.043,-0.43971 0.28051,-0.89035 0.1505,-1.34254 -0.0848,-0.29493 -0.40865,-0.35489 -0.52676,-0.62049 -0.0676,-0.1521 -0.95126,-0.99815 -1.14132,-1.02664 -1.59427,-0.23901 -2.14528,0.85209 -3.31106,1.18458 -1.122,0.32001 -2.61058,-0.0467 -3.42393,1.01536 -0.59662,0.77902 -1.23353,2.00628 -0.70235,2.97838 0.17854,0.32675 0.53201,0.51927 0.71489,0.85742 0.37857,0.69999 0.79611,1.16576 1.6179,1.34253 1.66534,0.35822 2.93297,-0.18791 4.35204,-0.8687" />
    <path
       style="fill:none;stroke:#000000;stroke-width:0.264583px;stroke-linecap:butt;stroke-linejoin:miter;stroke-opacity:1"
       d="m 213.53523,117.72804 c 0.10288,0.19428 0.15702,0.41264 0.28109,0.59589 0.0489,0.0722 0.10985,0.1372 0.18485,0.18311 0.14158,0.0867 0.2976,0.14665 0.45418,0.19981 0.37843,0.12848 0.76779,0.22259 1.15968,0.2992 0.44964,0.0879 0.90357,0.16091 1.36129,0.18611 0.21194,0.0117 0.42643,0.0224 0.63672,-0.0109 0.0919,-0.0145 0.18794,-0.0349 0.26203,-0.0954 0.097,-0.0792 0.16453,-0.18747 0.22145,-0.29737 0.12824,-0.24758 0.20626,-0.51649 0.30846,-0.77498 0.0294,-0.0743 0.0627,-0.14694 0.0872,-0.22317 0.08,-0.24938 0.1329,-0.50656 0.17769,-0.76424 0.0899,-0.51742 0.15092,-1.04035 0.17308,-1.56507 0.0147,-0.34785 0.0212,-0.69821 -0.0245,-1.04391 -0.0218,-0.165 -0.0469,-0.3338 -0.1199,-0.48458 -0.14269,-0.29469 -0.36922,-0.54095 -0.62107,-0.7463 -0.3612,-0.2945 -0.77458,-0.5194 -1.20304,-0.69927 -0.54736,-0.22979 -1.12215,-0.39549 -1.70841,-0.4882 -0.39111,-0.0618 -0.78904,-0.0968 -1.18474,-0.0671 -0.16441,0.0123 -0.32861,0.0375 -0.4861,0.0876 -0.26453,0.0842 -0.51305,0.21311 -0.74548,0.3636 -0.13364,0.0865 -0.26536,0.17711 -0.38588,0.28123 -0.22636,0.19556 -0.37824,0.46454 -0.47005,0.74647 -0.12335,0.37878 -0.15604,0.78169 -0.14032,1.17783 0.0208,0.525 0.11822,1.04663 0.28247,1.54527 0.11462,0.34797 0.25588,0.69056 0.45646,0.99819 0.0886,0.13584 0.18421,0.27066 0.3087,0.37548 0.0997,0.084 0.22908,0.11928 0.35456,0.14368 0.12671,0.0246 0.25598,0.0384 0.37961,0.077 z"
       id="path67"
       inkscape:path-effect="#path-effect69"
       inkscape:original-d="m 213.53523,117.72804 c 0.12542,0.23691 0.18454,0.52339 0.37626,0.71075 0.41935,0.40981 3.24954,0.9497 3.87545,0.69947 0.32646,-0.13052 0.50997,-0.88736 0.65218,-1.20715 0.28007,-0.62983 0.62183,-3.27187 0.25084,-4.01631 -0.69038,-1.38533 -3.58371,-2.19096 -4.96659,-1.95174 -0.45671,0.079 -0.96755,0.38743 -1.3169,0.66562 -1.23684,0.9849 -0.50226,4.03995 0.37625,4.86244 0.19197,0.17973 0.50168,0.15795 0.75251,0.23692 z" />
    <path
       style="fill:none;stroke:#000000;stroke-width:0.264583px;stroke-linecap:butt;stroke-linejoin:miter;stroke-opacity:1"
       d="m 224.3589,145.14271 c -0.0505,0.32391 -0.19793,0.62442 -0.38263,0.89242 -0.32256,0.46804 -0.75154,0.85414 -1.05129,1.33893 -0.11791,0.1907 -0.21036,0.3982 -0.26161,0.6171 -0.0895,0.38247 -0.1145,0.77545 -0.16727,1.16374 -0.0222,0.16336 -0.0763,0.31965 -0.12285,0.47708 -0.0862,0.29132 -0.17762,0.58429 -0.20791,0.88749 -0.0134,0.13441 -0.0191,0.27396 0.0222,0.40463 0.0228,0.0723 0.0747,0.13183 0.138,0.1724 0.13231,0.0849 0.28573,0.12721 0.43522,0.17042 0.11237,0.0325 0.22428,0.0678 0.32907,0.1212 0.32791,0.16693 0.60305,0.41526 0.88827,0.64362 0.25069,0.20072 0.51596,0.39495 0.82354,0.49869 0.21335,0.072 0.44368,0.0853 0.66592,0.0504 0.38981,-0.0612 0.76824,-0.18451 1.12818,-0.34419 0.41617,-0.18463 0.81686,-0.41467 1.15835,-0.71778 0.21925,-0.19461 0.41064,-0.42564 0.53373,-0.69416 0.18657,-0.40702 0.32438,-0.83271 0.51791,-1.23856 0.0336,-0.0704 0.11238,-0.1024 0.18608,-0.10837 0.13842,-0.0112 0.27575,0.0222 0.40799,0.0591 0.27677,0.0773 0.53912,0.20002 0.81704,0.27259 0.0772,0.0202 0.15967,0.0569 0.23758,0.0339 0.0596,-0.0177 0.11485,-0.0484 0.16993,-0.0768 0.36103,-0.18658 0.69434,-0.42217 1.01387,-0.67194 0.48656,-0.38034 0.95082,-0.78981 1.3846,-1.22919 0.15406,-0.15605 0.30919,-0.31416 0.4304,-0.49795 0.064,-0.0971 0.1091,-0.208 0.11792,-0.32479 0.008,-0.11139 0.0172,-0.22357 0.0486,-0.3315 0.0541,-0.18621 0.14706,-0.35792 0.24315,-0.52497 0.0517,-0.0899 0.0979,-0.18584 0.17082,-0.26043 0.036,-0.0369 0.0825,-0.0619 0.11341,-0.10455 0.0782,-0.10779 0.13634,-0.22831 0.19631,-0.3467 0.0784,-0.15471 0.15125,-0.31271 0.20285,-0.4787 0.13434,-0.43213 0.17248,-0.89569 0.10107,-1.34279 -0.0587,-0.36747 -0.19938,-0.73017 -0.44928,-1.01103 -0.19771,-0.22221 -0.46759,-0.37581 -0.75711,-0.44145 -0.36362,-0.0824 -0.74263,-0.0573 -1.10641,0.009 -0.56325,0.10308 -1.10486,0.29581 -1.639,0.49766 -0.36839,0.13921 -0.73589,0.2808 -1.108,0.41008 -0.58303,0.20256 -1.15261,0.44402 -1.74202,0.62732 -0.34982,0.10879 -0.72137,0.12711 -1.06796,0.24888 -0.13377,0.047 -0.25509,0.12149 -0.38021,0.18688 -0.66617,0.34815 -1.35321,0.65393 -2.03843,0.9621 z"
       id="path71"
       inkscape:path-effect="#path-effect73"
       inkscape:original-d="m 224.3589,145.14271 c -0.17262,1.07667 -1.27291,1.66379 -1.63045,2.62865 -0.15567,0.42009 -0.1747,1.1036 -0.25084,1.48919 -0.0601,0.30435 -0.50456,1.42982 -0.23829,1.75996 0.14496,0.17973 0.56516,0.23896 0.76505,0.32717 0.81864,0.36124 1.39115,1.37437 2.40804,1.24098 0.93059,-0.12206 2.41731,-0.81282 2.84702,-1.70354 0.20634,-0.42772 0.31455,-0.89365 0.55184,-1.30869 0.20571,-0.35979 1.43247,0.36421 1.66808,0.25949 0.80804,-0.35916 1.91918,-1.34474 2.55854,-1.9856 0.83866,-0.84061 0.3342,-0.7137 0.70234,-1.43277 0.47141,-0.92076 0.21529,-0.13535 0.67727,-1.09434 0.5057,-1.04974 0.35221,-2.86925 -1.04097,-3.13632 -1.10974,-0.21274 -2.6196,0.53092 -3.67479,0.89126 -0.6098,0.20824 -1.20911,0.44639 -1.81857,0.65434 -0.3984,0.13593 -0.90805,0.13809 -1.27927,0.33845 -0.73295,0.39559 -1.48222,0.7287 -2.245,1.07177 z" />
    <path
       style="fill:none;stroke:#000000;stroke-width:0.264583px;stroke-linecap:butt;stroke-linejoin:miter;stroke-opacity:1"
       d="m 230.49796,72.369383 c -0.2182,-0.05602 -0.42041,-0.167262 -0.64532,-0.19845 -0.12306,-0.01707 -0.24788,0.0017 -0.36817,0.02746 -0.36281,0.07756 -0.69482,0.260304 -0.98918,0.481505 -0.4027,0.302616 -0.75003,0.67363 -1.05527,1.072746 -0.27399,0.358258 -0.52641,0.735896 -0.72207,1.142565 -0.0825,0.171447 -0.10006,0.364355 -0.10943,0.551854 -0.01,0.196205 -0.006,0.395629 -0.0549,0.587319 -0.0229,0.08887 -0.0644,0.171678 -0.11552,0.247997 -0.53591,0.800073 -1.15215,1.546223 -1.63643,2.380618 -0.30047,0.517698 -0.5398,1.075213 -0.66342,1.663429 -0.0278,0.132187 -0.0408,0.266714 -0.0609,0.400123 -0.0454,0.30111 -0.11481,0.601701 -0.10626,0.907898 0.005,0.167978 0.0333,0.342899 0.12862,0.484722 0.0465,0.06922 0.10459,0.135213 0.1798,0.172012 0.0968,0.04739 0.20393,0.06834 0.30948,0.08591 0.27841,0.04636 0.56165,0.04968 0.84206,0.07818 0.397,0.04034 0.80508,-0.0049 1.1774,-0.152777 0.39154,-0.155495 0.73044,-0.421101 1.01412,-0.729078 0.3714,-0.403207 0.66219,-0.871482 0.93749,-1.34317 0.24165,-0.414036 0.46145,-0.841589 0.72701,-1.240991 0.20002,-0.300832 0.44206,-0.570247 0.67751,-0.843201 0.27623,-0.320231 0.55562,-0.642516 0.76816,-1.009901 0.14855,-0.25678 0.26854,-0.540301 0.28399,-0.839237 0.0111,-0.215294 0.006,-0.431091 -0.002,-0.646386 -0.013,-0.359715 -0.0273,-0.72019 -0.0732,-1.077317 -0.0142,-0.110215 -0.0254,-0.221857 -0.058,-0.328486 -0.0269,-0.08809 -0.0859,-0.164425 -0.1633,-0.215051 -0.0855,-0.05599 -0.19143,-0.08418 -0.25908,-0.164909 -0.0633,-0.07555 -0.0834,-0.17902 -0.0762,-0.274269 0.009,-0.124351 0.0325,-0.247146 0.0523,-0.370139 0.0343,-0.213274 0.0791,-0.425925 0.09,-0.641876 0.003,-0.05867 0.008,-0.118712 -0.005,-0.176556 -0.012,-0.05218 -0.078,-0.04423 -0.11909,-0.05071 -0.1875,-0.0296 -0.38399,-0.0039 -0.55537,0.07937 -0.2107,0.10233 -0.37573,0.277053 -0.5124,0.463734 -0.17512,0.239197 -0.30548,0.506416 -0.45538,0.761182"
       id="path75"
       inkscape:path-effect="#path-effect77"
       inkscape:original-d="m 230.49796,72.369383 c -0.26338,-0.06769 -0.51894,-0.223232 -0.79013,-0.203073 -1.27485,0.09477 -2.49104,1.729951 -2.98497,2.718903 -0.21248,0.425424 -0.0192,0.997503 -0.26339,1.365097 -0.90921,1.368665 -2.17282,2.700223 -2.37042,4.388604 -0.0561,0.47912 -0.31077,1.306509 0.16305,1.635852 0.20806,0.144619 1.09258,0.172048 1.17893,0.180507 2.12654,0.20833 2.88277,-1.925204 3.82529,-3.418372 0.51256,-0.812011 1.64658,-1.680202 1.75586,-2.685055 0.037,-0.340421 -0.0293,-1.786266 -0.12542,-2.09841 -0.11572,-0.375904 -0.49387,-0.1865 -0.50168,-0.64306 -0.003,-0.186332 0.23061,-1.213625 0.11288,-1.240993 -0.91695,-0.213159 -1.30238,0.757909 -1.61791,1.286121" />
    <path
       style="fill:none;stroke:#000000;stroke-width:0.264583px;stroke-linecap:butt;stroke-linejoin:miter;stroke-opacity:1"
       d="m 217.00288,28.179844 c 0.16227,0.213411 0.31799,0.431703 0.47944,0.645722 0.11197,0.148428 0.2312,0.292945 0.37291,0.414258 0.16743,0.143334 0.35466,0.26105 0.54246,0.375369 0.23695,0.144241 0.47083,0.294375 0.71602,0.424085 0.10698,0.05659 0.22343,0.09268 0.34011,0.122996 0.19489,0.05064 0.39337,0.08895 0.5938,0.108472 0.20982,0.02044 0.42241,0.01766 0.63101,-0.01367 0.27757,-0.04169 0.54949,-0.143375 0.77294,-0.316047 0.20565,-0.158917 0.36084,-0.378539 0.4529,-0.620964 0.11598,-0.305419 0.13732,-0.640848 0.093,-0.962686 -0.0634,-0.460446 -0.25133,-0.9014 -0.52852,-1.272875 -0.0675,-0.09041 -0.13691,-0.180397 -0.22148,-0.255795 -0.16013,-0.142771 -0.34215,-0.258728 -0.52861,-0.363596 -0.35891,-0.201852 -0.7373,-0.367959 -1.1246,-0.50693 -0.42324,-0.151865 -0.85775,-0.277415 -1.30264,-0.345734 -0.27242,-0.04183 -0.55019,-0.06754 -0.82512,-0.03821 -0.1783,0.01902 -0.36496,0.05177 -0.51274,0.156792 -0.023,0.01631 -0.0897,0.03394 -0.0677,0.0516 0.0264,0.02116 0.0643,0.0179 0.0944,0.0381 0.0811,0.05443 0.16539,0.104761 0.2417,0.165942 0.0701,0.05617 0.12738,0.125809 0.18797,0.191581 0.0188,0.02045 0.0377,0.04083 0.0567,0.06112"
       id="path79"
       inkscape:path-effect="#path-effect81"
       inkscape:original-d="m 217.00288,28.179844 c 0.84768,1.121339 0.5941,0.970011 2.09449,1.850208 0.22496,0.131969 0.76874,0.231875 1.04098,0.2482 2.09187,0.12545 2.34698,-1.983621 1.21657,-3.339401 -0.58529,-0.701971 -3.60736,-1.856262 -4.46492,-1.162021 -0.0214,0.01731 0.0523,0.0187 0.0753,0.03384 0.33183,0.218887 0.25569,0.165946 0.50168,0.428708" />
    <path
       style="fill:none;stroke:#000000;stroke-width:0.264583px;stroke-linecap:butt;stroke-linejoin:miter;stroke-opacity:1"
       d="m 230.43526,27.322433 c -0.35195,-0.07033 -0.70756,-0.121037 -1.06357,-0.16553 -0.76461,-0.09556 -1.53358,-0.166796 -2.30439,-0.175058 -0.45733,-0.0049 -0.91791,9.54e-4 -1.36941,0.07895 -0.22746,0.03929 -0.45905,0.0881 -0.66221,0.201183 -0.0813,0.04524 -0.16974,0.09401 -0.21639,0.175492 -0.0387,0.06759 -0.0534,0.145767 -0.0656,0.221655 -0.034,0.211799 -0.0448,0.426581 -0.05,0.64081 -0.007,0.285492 0.0613,0.572134 0.19738,0.823577 0.1685,0.311318 0.42776,0.562641 0.70744,0.774706 0.43403,0.329095 0.92386,0.57189 1.38519,0.858553 0.44396,0.275872 0.85223,0.607976 1.31542,0.853052 0.2282,0.120743 0.47056,0.214055 0.72054,0.278838 0.46955,0.121684 0.95237,0.184355 1.43514,0.222676 0.77556,0.06156 1.55541,0.06714 2.33196,0.0232 0.51516,-0.02915 1.03166,-0.06852 1.53866,-0.166322 0.1726,-0.03329 0.32512,-0.127891 0.46416,-0.231253 0.0872,-0.06482 0.17588,-0.127608 0.2625,-0.193188 0.16619,-0.125824 0.32368,-0.273059 0.42003,-0.46085 0.0918,-0.178822 0.12725,-0.378729 0.16829,-0.573458 0.0439,-0.20827 0.0983,-0.414177 0.16199,-0.617372 0.0576,-0.183798 0.11313,-0.37489 0.0952,-0.569924 -0.014,-0.152197 -0.0846,-0.294329 -0.18242,-0.410253 -0.16317,-0.193262 -0.38735,-0.32371 -0.61795,-0.420271 -0.35461,-0.148491 -0.7318,-0.23201 -1.10743,-0.307582 -0.34563,-0.06954 -0.69427,-0.125198 -1.03659,-0.210561 -0.32722,-0.0816 -0.63046,-0.233214 -0.93003,-0.384235 -0.31362,-0.158105 -0.63162,-0.315686 -0.97471,-0.400593 -0.0511,-0.01264 -0.10399,-0.02277 -0.15677,-0.01116 -0.13427,0.02952 -0.24199,0.12982 -0.37892,0.151073 -0.0653,0.01013 -0.12759,-0.01716 -0.18737,-0.03899 -0.28244,-0.103166 -0.52787,-0.280639 -0.78192,-0.437096 -0.22958,-0.141389 -0.47487,-0.259984 -0.73573,-0.331661 -0.27195,-0.07472 -0.55702,-0.09654 -0.83783,-0.07336 -0.47136,0.0389 -0.92805,0.182133 -1.36106,0.366991 -0.65008,0.277529 -1.25713,0.645012 -1.84369,1.03699 -0.1503,0.100441 -0.29933,0.202763 -0.44784,0.305834"
       id="path83"
       inkscape:path-effect="#path-effect85"
       inkscape:original-d="m 230.43526,27.322433 c -0.84322,-0.175638 -4.91717,-0.724916 -5.60624,0.101537 -0.10648,0.127709 -0.12753,0.786116 -0.12542,0.936381 0.0179,1.273482 1.37438,1.826599 2.28263,2.391733 0.64184,0.39937 1.15346,0.870265 1.89382,1.094332 1.37554,0.416301 4.01739,0.380606 5.44319,0.124101 0.26189,-0.04712 0.45761,-0.224663 0.66472,-0.372301 0.66277,-0.472443 0.54652,-0.734343 0.76506,-1.511752 0.10061,-0.357889 0.28666,-0.731668 0.0251,-1.105615 -0.52988,-0.75752 -2.18816,-0.793972 -2.99752,-1.060484 -0.61116,-0.20125 -1.15054,-0.615717 -1.78095,-0.744596 -0.19044,-0.03893 -0.37779,0.201136 -0.56438,0.146664 -0.62126,-0.18138 -0.99662,-0.720643 -1.88129,-0.857417 -1.40039,-0.216505 -3.14954,0.944859 -4.22662,1.692267" />
    <path
       style="fill:none;stroke:#000000;stroke-width:0.264583px;stroke-linecap:butt;stroke-linejoin:miter;stroke-opacity:1"
       d="m 228.37838,39.879023 c -0.48039,-0.127437 -0.96185,-0.26012 -1.45624,-0.321153 -0.38402,-0.04741 -0.77754,-0.04243 -1.15551,0.0472 -0.36381,0.08627 -0.70452,0.254528 -1.00931,0.469503 -0.21046,0.148444 -0.4233,0.29553 -0.61364,0.469729 -0.13785,0.126161 -0.25974,0.274214 -0.33301,0.447719 -0.0868,0.205453 -0.10608,0.431277 -0.1122,0.65198 -0.005,0.164752 0.004,0.329402 0.003,0.49419 -0.002,0.217139 -0.005,0.438691 0.0566,0.649259 0.0297,0.101397 0.0813,0.194706 0.1419,0.281082 0.27322,0.389458 0.6457,0.700289 1.0505,0.945331 0.52286,0.316506 1.10067,0.536308 1.69376,0.678689 0.59225,0.142179 1.20358,0.215247 1.81268,0.189103 0.40294,-0.01729 0.80777,-0.07548 1.18844,-0.21306 0.40918,-0.147885 0.79623,-0.355352 1.1507,-0.606906 0.35194,-0.249759 0.6784,-0.542712 0.93148,-0.894018 0.19343,-0.2685 0.34185,-0.577015 0.38593,-0.907806 0.0358,-0.269017 -0.008,-0.547326 -0.12223,-0.793086 -0.18528,-0.39804 -0.4706,-0.745463 -0.81116,-1.021094 -0.39658,-0.320971 -0.85995,-0.549175 -1.33738,-0.722864 -0.52196,-0.189887 -1.06274,-0.322153 -1.60585,-0.434994 -0.58368,-0.121271 -1.17127,-0.224904 -1.76239,-0.302194 -0.34236,-0.04476 -0.68589,-0.08626 -1.03121,-0.09728 -0.0415,-0.0013 -0.0831,-0.0021 -0.12465,-0.0021"
       id="path87"
       inkscape:path-effect="#path-effect89"
       inkscape:original-d="m 228.37838,39.879023 c -1.30547,-0.348757 -2.41477,-0.645802 -3.59952,0.18051 -0.92492,0.645088 -1.10784,0.847272 -1.0786,1.872773 0.0102,0.358503 -0.0474,0.765744 0.16304,1.083046 1.00997,1.523042 3.80253,2.159989 5.46827,1.748676 1.27953,-0.315947 3.39073,-1.830848 2.63379,-3.350678 -0.65887,-1.322943 -2.1734,-1.779601 -3.49919,-2.075849 -0.94011,-0.210069 -2.42902,-0.451268 -3.14801,-0.451268" />
    <path
       style="fill:none;stroke:#000000;stroke-width:0.264583px;stroke-linecap:butt;stroke-linejoin:miter;stroke-opacity:1"
       d="m 216.95271,12.238723 c -0.10524,0.315833 -0.16778,0.655061 -0.11592,0.987694 0.0395,0.253442 0.15992,0.491428 0.33449,0.678906 0.22916,0.246105 0.52994,0.411841 0.83804,0.53816 0.38466,0.157706 0.79024,0.254277 1.19316,0.352873 0.33971,0.08313 0.66784,0.208199 1.00951,0.283806 0.25322,0.05603 0.51823,0.07161 0.77364,0.01812 0.31111,-0.06515 0.5932,-0.225964 0.84385,-0.416781 0.34688,-0.264078 0.65535,-0.578393 0.9163,-0.927151 0.21553,-0.28805 0.4061,-0.600398 0.51983,-0.943369 0.0635,-0.191429 0.0934,-0.394463 0.0784,-0.596641 -0.0208,-0.279704 -0.12388,-0.548965 -0.27721,-0.78258 -0.21365,-0.32551 -0.50618,-0.586947 -0.78717,-0.852448 -0.22841,-0.215823 -0.45945,-0.434717 -0.63357,-0.6982779 -0.056,-0.084704 -0.0899,-0.1826653 -0.10056,-0.2837763 -0.0108,-0.1019377 -0.0203,-0.2075302 -0.0659,-0.3004145 -0.0363,-0.073912 -0.11446,-0.109157 -0.18334,-0.1453984 -0.06,-0.031574 -0.10917,-0.084191 -0.12942,-0.1505917 -0.0474,-0.1554675 -0.0354,-0.3246762 0.0198,-0.4766243 0.081,-0.2232308 0.22936,-0.4120033 0.36204,-0.6060287 0.10958,-0.1602393 0.22504,-0.3271692 0.26013,-0.521076 0.0201,-0.1109467 0.0239,-0.2242209 0.0253,-0.3366998 0.003,-0.2750114 -0.01,-0.5498663 0.003,-0.825048 0.007,-0.1468532 0.0213,-0.2975442 -0.0178,-0.4414862 -0.0278,-0.1022734 -0.10096,-0.1870918 -0.19155,-0.2411252 -0.10096,-0.06022 -0.21683,-0.0846 -0.3277,-0.119476 -0.32303,-0.1016126 -0.64518,-0.216717 -0.98243,-0.2600872 -0.15992,-0.020566 -0.32421,-0.024092 -0.4823,0.014193 -0.27456,0.066491 -0.5448,0.1493973 -0.81532,0.2304238 -0.25458,0.076251 -0.50626,0.1623922 -0.76263,0.232354 -1.18107,0.3223105 -2.40251,0.4939344 -3.56285,0.8883598 -0.29709,0.1009872 -0.57228,0.2572456 -0.83286,0.4298896 -0.4805,0.3183464 -0.92493,0.6921876 -1.3176,1.1139206 -0.29927,0.321417 -0.57912,0.668157 -0.77615,1.0624144 -0.12201,0.2441409 -0.2268,0.5117997 -0.21227,0.7878098 0.01,0.188639 0.0431,0.376383 0.0978,0.557177 0.0805,0.265599 0.22883,0.514566 0.44489,0.69233 0.23611,0.194258 0.53523,0.293721 0.83371,0.340074 0.42548,0.06608 0.85826,0.04931 1.2861,0.02146 0.28356,-0.01846 0.56737,-0.03287 0.85088,-0.05199 0.18803,-0.01268 0.37651,-0.06693 0.56368,-0.04441 0.048,0.0058 0.0609,-0.04302 0.0793,-0.07632 0.0954,-0.172822 0.17601,-0.356036 0.30388,-0.508769 0.0228,-0.02723 0.0468,-0.05349 0.0717,-0.07876"
       id="path91"
       inkscape:path-effect="#path-effect93"
       inkscape:original-d="m 216.95271,12.238723 c -0.57172,1.708092 0.7666,2.213842 2.16975,2.538396 0.86114,0.199184 1.47386,0.601774 2.33279,0.146663 0.80667,-0.427419 1.9106,-1.700672 1.89383,-2.606088 -0.0208,-1.121754 -1.13259,-1.614273 -1.68062,-2.4030145 -0.17099,-0.2460934 -0.0902,-0.3408397 -0.17558,-0.58665 -0.0624,-0.1795984 -0.27044,-0.1369311 -0.32609,-0.3271713 -0.19104,-0.6530195 0.5921,-1.1022891 0.65218,-1.669701 0.0349,-0.3291176 -0.002,-0.6621455 0.0125,-0.9927926 0.0177,-0.4076763 0.0845,-0.7220842 -0.37625,-0.8574161 -0.4402,-0.1292937 -1.04557,-0.3704754 -1.50503,-0.3158885 -0.24604,0.02923 -1.53163,0.4410501 -1.69316,0.4851178 -1.16932,0.3189986 -2.38291,0.5182658 -3.53682,0.8799774 -1.10215,0.3454924 -3.27941,2.2529202 -3.16055,3.4747778 0.18051,1.855736 1.83395,1.578362 3.27343,1.500476 0.15443,-0.0084 0.82834,-0.0475 0.84031,-0.06769 0.14292,-0.241046 0.20556,-0.443524 0.41388,-0.654343" />
    <path
       style="fill:none;stroke:#000000;stroke-width:0.264583px;stroke-linecap:butt;stroke-linejoin:miter;stroke-opacity:1"
       d="m 219.49872,1.6338719 c 0.07,0.206022 0.13113,0.4149637 0.20183,0.6207291 0.0199,0.058032 0.0366,0.1204538 0.0803,0.166035 0.059,0.061552 0.11663,0.1244104 0.17009,0.1908695 0.15563,0.1934625 0.30159,0.394932 0.43479,0.6042836 0.0829,0.1303378 0.15436,0.2674747 0.22968,0.4022321 0.12594,0.2253276 0.25317,0.4519475 0.41497,0.6538059 0.0861,0.1074509 0.17992,0.2134359 0.29944,0.2840214 0.16459,0.0972 0.3441,0.1662536 0.52514,0.225732 0.39467,0.1296661 0.80188,0.2191303 1.21239,0.2806223 0.48516,0.072674 0.97736,0.1126734 1.46772,0.08516 0.31076,-0.017436 0.62376,-0.057279 0.91861,-0.1605072 0.20426,-0.071513 0.40315,-0.1762299 0.55043,-0.3382188 0.0743,-0.081766 0.1283,-0.1799235 0.16672,-0.2834007 0.0935,-0.2519492 0.18069,-0.506798 0.24693,-0.7673503 0.036,-0.1417661 0.0701,-0.2851619 0.0796,-0.4315272 0.005,-0.083069 -0.006,-0.166041 -0.0193,-0.2478694 -0.0342,-0.2175225 -0.11193,-0.4283423 -0.23068,-0.6141595 -0.14085,-0.220401 -0.33348,-0.4015901 -0.53485,-0.5659812 -0.1475,-0.1204148 -0.30056,-0.2337677 -0.45194,-0.3492127 -0.082,-0.062495 -0.18215,-0.1208791 -0.21837,-0.217816 -0.0171,-0.04568 -0.0233,-0.096654 -0.0506,-0.1374372 -0.0142,-0.021277 -0.0375,0.00546 -0.0518,0.015016 -0.0911,0.060873 -0.16445,0.143468 -0.24876,0.212675"
       id="path95"
       inkscape:path-effect="#path-effect97"
       inkscape:original-d="m 219.49872,1.6338719 c 0.43206,1.2825532 -0.002,0.2582851 0.87793,1.5681642 0.19134,0.2850063 0.55331,1.1128833 0.95318,1.3538124 0.87454,0.5269179 4.34717,1.1007126 4.82864,-0.1579465 0.0994,-0.259965 0.36319,-1.0130261 0.33863,-1.3199639 -0.0628,-0.7849682 -0.52219,-1.1448981 -1.09115,-1.579447 -0.14394,-0.1099358 -0.26098,-0.1834231 -0.36372,-0.3271713 -0.005,-0.00669 -0.0445,-0.1567223 -0.0627,-0.1466636 -0.10886,0.060261 -0.19231,0.157945 -0.28847,0.2369174" />
    <path
       style="fill:none;stroke:#000000;stroke-width:0.264583px;stroke-linecap:butt;stroke-linejoin:miter;stroke-opacity:1"
       d="m 200.53536,6.5639992 c 0.38417,0.080733 0.76622,0.181129 1.15889,0.2116909 0.19866,0.015462 0.39898,0.00836 0.59602,-0.022451 0.50421,-0.078855 0.98704,-0.2668947 1.42969,-0.5176954 0.56281,-0.3188821 1.07002,-0.7361763 1.49069,-1.2273837 0.35378,-0.4131005 0.64773,-0.8817581 0.83604,-1.3936414 0.0507,-0.13779 0.0876,-0.2799661 0.12382,-0.422151 0.15588,-0.6126039 0.42371,-1.1912873 0.57555,-1.8043925 0.0268,-0.1081349 0.0283,-0.2208552 0.0216,-0.3313875 -0.007,-0.1227113 -0.0122,-0.24892574 -0.055,-0.36444534 -0.0103,-0.0277228 -0.0106,-0.0872863 -0.0411,-0.0805433 -0.0292,0.006464 -0.0295,0.0484591 -0.0325,0.0727613 -0.0144,0.11469597 -0.0126,0.23071625 -0.0103,0.34603192 5e-4,0.024415 0.001,0.048828 0.002,0.073237"
       id="path99"
       inkscape:path-effect="#path-effect101"
       inkscape:original-d="m 200.53536,6.5639992 c 0.54343,0.1142539 1.09553,0.2722136 1.65553,0.2030735 1.69308,-0.2090325 3.55317,-1.8118246 3.96324,-3.5086269 0.15155,-0.6270698 0.41218,-1.2380614 0.58947,-1.8614914 0.10758,-0.378263 -0.14654,-1.38353168 -0.11287,-0.293325" />
    <path
       style="fill:none;stroke:#000000;stroke-width:0.264583px;stroke-linecap:butt;stroke-linejoin:miter;stroke-opacity:1"
       d="m 200.53536,6.5639992 c 0.37733,-0.072476 0.75647,-0.1458294 1.14057,-0.1668516 0.14931,-0.00817 0.30232,-0.020226 0.44868,0.014694 0.0514,0.012271 0.10849,0.02797 0.14209,0.07185 0.0295,0.038539 0.0155,0.09107 -0.008,0.128666 -0.0499,0.079569 -0.12447,0.1401016 -0.20041,0.1933736 -0.15927,0.111734 -0.33295,0.2047211 -0.51716,0.2670565 -0.0893,0.030232 -0.18188,0.056449 -0.27721,0.05813 -0.0433,7.639e-4 -0.0819,-0.021389 -0.11584,-0.04601 -0.11464,-0.083035 -0.19275,-0.2035515 -0.28205,-0.3110349 -0.065,-0.078238 -0.13743,-0.158296 -0.23566,-0.1936827 -0.0716,-0.025801 -0.15006,-0.017924 -0.22304,-0.00413 -0.17461,0.033003 -0.32975,0.1250829 -0.47694,0.2204323 -0.17232,0.1116301 -0.34014,0.2346268 -0.53282,0.3100411 -0.1033,0.040431 -0.21599,0.046984 -0.3256,0.04884 -0.27387,0.00464 -0.54732,-0.021207 -0.81866,-0.055758 -0.48178,-0.061349 -0.96113,-0.1456305 -1.43234,-0.2633205 -0.23537,-0.058787 -0.47275,-0.1165856 -0.69645,-0.2113597 -0.0756,-0.032033 -0.15808,-0.059055 -0.217,-0.1173462 -0.0578,-0.057153 -0.10799,-0.1214021 -0.15855,-0.184861 -0.22838,-0.2866616 -0.45179,-0.5773641 -0.66797,-0.8733045 -0.0552,-0.075621 -0.11786,-0.1466023 -0.16429,-0.2279543 -0.0848,-0.1486008 -0.10863,-0.3234114 -0.10866,-0.4919299 -5e-5,-0.2766973 0.0522,-0.5505022 0.11917,-0.8178988 0.15217,-0.6077813 0.38513,-1.1906649 0.58605,-1.7830551 0.0657,-0.1935636 0.12761,-0.3891021 0.16473,-0.5905815 0.0478,-0.2596291 0.0408,-0.5251258 0.0104,-0.78946552 -0.006,-0.0564039 -0.0436,-0.10141099 -0.0799,-0.14182599 -0.0286,-0.0318235 -0.0575,-0.0815871 -0.0172,-0.12238555 0.12291,-0.12449163 0.24887,-0.24929482 0.39824,-0.34183055 0.0912,-0.05648623 0.19552,-0.10287323 0.30523,-0.09512636 0.0956,0.0067514 0.17886,0.06523891 0.23872,0.1372216 0.0599,0.0719796 0.10302,0.15622409 0.13912,0.24213118"
       id="path103"
       inkscape:path-effect="#path-effect105"
       inkscape:original-d="m 200.53536,6.5639992 c 3.28831,-0.6434741 0.9892,0.7201452 0.66472,0.5528061 -0.25613,-0.1320917 -0.37654,-0.5528061 -0.66472,-0.5528061 -0.43025,0 -0.75949,0.4130047 -1.16639,0.5528061 -0.52634,0.1808332 -3.11462,-0.3037634 -3.46157,-0.6092158 -0.11452,-0.1008185 -0.94943,-1.2145346 -0.99081,-1.2861198 -0.43759,-0.7569673 0.57662,-2.8082432 0.73998,-3.5763171 0.0645,-0.3031058 0.0989,-0.6216674 0.0251,-0.92510431 -0.0194,-0.0799814 -0.15773,-0.16663175 -0.10034,-0.22563468 0.41976,-0.43153093 0.82188,-0.71360494 1.09114,-0.0676904" />
    <path
       style="fill:none;stroke:#000000;stroke-width:0.264583px;stroke-linecap:butt;stroke-linejoin:miter;stroke-opacity:1"
       d="m 259.13977,210.8117 c -0.2701,-0.16163 -0.58048,-0.24981 -0.89395,-0.26996 -0.41727,-0.0268 -0.83191,0.0489 -1.23953,0.12879 -0.42423,0.0831 -0.85035,0.16664 -1.2833,0.18763 -0.65989,0.032 -1.32302,-0.0448 -1.98078,0.0321 -0.43197,0.0505 -0.85765,0.14658 -1.2757,0.26481 -0.70094,0.19824 -1.38877,0.45293 -2.03212,0.79601 -0.45241,0.24126 -0.89104,0.52184 -1.25286,0.88809 -0.2354,0.23828 -0.45083,0.51376 -0.54645,0.83771 -0.0401,0.13585 -0.009,0.28115 0.0451,0.40846 0.0911,0.21597 0.23174,0.40536 0.35679,0.60212 0.0956,0.15047 0.19773,0.30345 0.23946,0.47857 0.0435,0.18246 0.0402,0.37159 0.0396,0.55791 -7e-4,0.23511 -0.009,0.4739 0.0466,0.70426 0.0284,0.11841 0.0822,0.23002 0.15666,0.32705 0.24352,0.3172 0.56373,0.56496 0.89751,0.78069 0.36753,0.23755 0.76489,0.42881 1.11775,0.68811 0.17133,0.1259 0.3283,0.26983 0.48901,0.40868 0.2249,0.19431 0.44956,0.39133 0.70022,0.55226 0.11646,0.0748 0.24234,0.13591 0.37725,0.16992 0.30755,0.0775 0.63076,0.0577 0.94002,0.003 0.49009,-0.0873 0.96143,-0.25537 1.42162,-0.44159 0.46724,-0.18907 0.92189,-0.40706 1.38255,-0.6112 0.38181,-0.1692 0.78156,-0.29187 1.17262,-0.43696 0.34497,-0.12799 0.68346,-0.28437 0.97793,-0.50759 0.11556,-0.0876 0.22941,-0.17937 0.32676,-0.28699 0.13693,-0.15138 0.20747,-0.34897 0.34535,-0.50042 0.32998,-0.36247 0.6711,-0.71794 0.95425,-1.1193 0.20459,-0.29 0.37755,-0.61212 0.44061,-0.96511 0.0532,-0.29809 0.0119,-0.60796 -0.0959,-0.88959 -0.14205,-0.37133 -0.37514,-0.70086 -0.63712,-0.99663 -0.17741,-0.20029 -0.37034,-0.39069 -0.59438,-0.53749 -0.18235,-0.11948 -0.39498,-0.18027 -0.60494,-0.23063 -0.26403,-0.0633 -0.5365,-0.0966 -0.79236,-0.18956 -0.29088,-0.10566 -0.59376,-0.18644 -0.86735,-0.33132 -0.0824,-0.0437 -0.16346,-0.0929 -0.23202,-0.15604 -0.0299,-0.0275 0.0209,-5e-5 0.0318,0.006 0.0787,0.0431 0.15046,0.0973 0.22626,0.14499"
       id="path107"
       inkscape:path-effect="#path-effect109"
       inkscape:original-d="m 259.13977,210.8117 c -0.99846,-0.5899 -2.05549,-0.0639 -3.22327,0.0338 -0.74793,0.0626 -1.5286,-0.0424 -2.27008,0.0564 -1.45225,0.19353 -4.46035,1.19614 -5.00422,2.75275 -0.16516,0.4727 0.53237,1.04617 0.63964,1.53432 0.0994,0.45215 -0.08,1.1407 0.21321,1.53432 0.51216,0.6875 1.32083,1.01519 2.00671,1.47791 0.33882,0.22858 1.02574,0.95173 1.47994,1.11689 1.10147,0.40054 3.07148,-0.68794 4.00086,-1.07177 0.85508,-0.35313 1.62071,-0.46529 2.30772,-1.13945 0.15955,-0.15657 0.2183,-0.36014 0.36371,-0.51897 1.18426,-1.29354 2.13963,-2.26091 0.72743,-3.92605 -0.18151,-0.21401 -0.38725,-0.4108 -0.61455,-0.57537 -0.37722,-0.2731 -1.01427,-0.29096 -1.45486,-0.45126 -0.27753,-0.10098 -0.55567,-0.20107 -0.82777,-0.31589 -0.0898,-0.0379 -0.32523,-0.21322 -0.2383,-0.16923 0.0882,0.0446 0.16723,0.1053 0.25084,0.15794" />
    <path
       style="fill:none;stroke:#000000;stroke-width:0.264583px;stroke-linecap:butt;stroke-linejoin:miter;stroke-opacity:1"
       d="m 249.33201,177.76743 c 0.57619,0.71574 1.26257,1.33025 1.9216,1.96698 0.55867,0.53977 1.10619,1.10075 1.53726,1.75013 0.093,0.1401 0.18864,0.27961 0.26294,0.43054 0.1014,0.20598 0.13546,0.43702 0.15433,0.66342 0.0387,0.46489 0.006,0.93488 0.0784,1.39687 0.0361,0.22975 0.10048,0.46291 0.24153,0.65218 0.11222,0.15059 0.2801,0.25214 0.46,0.30266 0.10963,0.0308 0.22332,0.0406 0.33576,0.0557 0.22785,0.0307 0.45744,0.0651 0.6876,0.055 0.0904,-0.004 0.18829,-0.001 0.26786,-0.0474 0.19567,-0.11376 0.35327,-0.285 0.46839,-0.4787 0.17555,-0.29537 0.26876,-0.62837 0.39829,-0.9444 0.12465,-0.30412 0.33989,-0.56293 0.45003,-0.87359 0.0259,-0.0731 0.0503,-0.14862 0.0481,-0.22743 -0.004,-0.15741 -0.0523,-0.30936 -0.10087,-0.4578 -0.0502,-0.15329 -0.12155,-0.30032 -0.15586,-0.45807 -0.0572,-0.26296 -0.10155,-0.52852 -0.15393,-0.79247 -0.083,-0.41808 -0.18809,-0.83677 -0.38023,-1.21956 -0.0642,-0.128 -0.13682,-0.25244 -0.22825,-0.36342 -0.16728,-0.20303 -0.37801,-0.37136 -0.51288,-0.59996 -0.0943,-0.15977 -0.14304,-0.33993 -0.20401,-0.51368 -0.0485,-0.1381 -0.12134,-0.26886 -0.22375,-0.37435 -0.1,-0.10301 -0.21546,-0.18946 -0.33239,-0.27212 -0.27337,-0.19325 -0.57,-0.35808 -0.81136,-0.59283 -0.2125,-0.20668 -0.36128,-0.46633 -0.50897,-0.72051 -0.14716,-0.25326 -0.2946,-0.51183 -0.50341,-0.72064 -0.10508,-0.10508 -0.2299,-0.18807 -0.36229,-0.25545 -0.41142,-0.20938 -0.86204,-0.32991 -1.31636,-0.40243 -0.49527,-0.0791 -0.99932,-0.0835 -1.49529,-0.15454 -0.17642,-0.0253 -0.34763,-0.0768 -0.52134,-0.11529 -0.11414,-0.0253 -0.22912,-0.0594 -0.34661,-0.0559 -0.0397,0.001 -0.1033,0.002 -0.11169,0.0486 -0.008,0.0453 0.0189,0.0878 0.044,0.12291 0.0856,0.11988 0.19443,0.22089 0.30306,0.31939 0.0806,0.0731 0.16317,0.14394 0.24664,0.2137"
       id="path111"
       inkscape:path-effect="#path-effect113"
       inkscape:original-d="m 249.33201,177.76743 c 1.15778,1.43873 2.77474,2.47789 3.69986,4.10656 0.48724,0.85779 -0.27493,2.92972 1.14131,3.0912 0.13351,0.0152 0.90834,0.14879 1.11623,0.0226 0.55011,-0.33401 0.64543,-0.94378 0.87793,-1.46663 0.14346,-0.32261 0.36961,-0.58595 0.46405,-0.93638 0.0747,-0.27712 -0.20127,-0.82268 -0.25084,-1.06049 -0.15389,-0.73831 -0.22912,-1.49309 -0.62709,-2.1661 -0.18516,-0.31312 -0.51897,-0.52574 -0.67727,-0.84613 -0.17388,-0.35193 -0.14289,-0.61391 -0.47658,-0.90254 -0.32602,-0.28197 -0.72644,-0.47243 -1.04098,-0.76716 -0.51813,-0.48549 -0.68803,-1.34004 -1.32944,-1.68098 -0.89883,-0.47776 -1.861,-0.49214 -2.84702,-0.58665 -0.46072,-0.0442 -1.76396,-0.59743 -0.41388,0.53024" />
    <path
       style="fill:none;stroke:#000000;stroke-width:0.264583px;stroke-linecap:butt;stroke-linejoin:miter;stroke-opacity:1"
       d="m 114.14199,94.862387 c 0.27628,0.611047 0.67029,1.162313 1.11362,1.662648 0.57346,0.647192 1.22065,1.228168 1.91688,1.739106 0.21345,0.156643 0.44761,0.282723 0.68522,0.398171 0.47862,0.232544 0.97545,0.429645 1.48728,0.575381 0.3412,0.09715 0.68978,0.180789 1.04519,0.197736 0.19758,0.0094 0.40125,-0.003 0.58588,-0.08091 0.24074,-0.101548 0.4597,-0.248124 0.66641,-0.406218 0.41461,-0.3171 0.79297,-0.682398 1.12192,-1.087466 0.26229,-0.322983 0.50335,-0.670071 0.65979,-1.057375 0.10018,-0.248022 0.16719,-0.518531 0.13377,-0.787611 -0.0253,-0.203568 -0.12765,-0.39294 -0.27557,-0.534994 -0.11769,-0.113019 -0.26368,-0.192755 -0.41821,-0.242978 -0.26076,-0.08475 -0.53622,-0.10748 -0.80835,-0.12422 -0.2799,-0.01722 -0.56183,-0.01552 -0.83944,-0.05848 -0.18111,-0.02803 -0.35722,-0.08136 -0.53049,-0.139725 -0.37683,-0.126941 -0.74606,-0.2771 -1.10328,-0.451539 -0.13415,-0.06551 -0.27002,-0.128899 -0.39643,-0.208532 -0.27021,-0.170224 -0.48532,-0.4127 -0.6762,-0.665504 -0.31654,-0.419222 -0.56604,-0.885931 -0.89661,-1.294608 -0.0915,-0.113182 -0.18456,-0.227168 -0.29663,-0.320712 -0.19532,-0.163029 -0.44029,-0.250994 -0.6848,-0.30944 -0.38172,-0.09125 -0.77756,-0.11111 -1.15602,-0.216779 -0.10519,-0.02937 -0.20972,-0.0651 -0.30313,-0.123319 -0.1389,-0.08657 -0.26194,-0.200302 -0.4178,-0.258513 -0.22433,-0.08378 -0.44799,-0.176295 -0.68392,-0.220072 -0.0726,-0.01347 -0.15059,-0.03849 -0.22177,-0.01416 -0.27445,0.09381 -0.54015,0.221384 -0.77079,0.398547 -0.18884,0.145056 -0.35576,0.329863 -0.44099,0.555557 -0.0692,0.183325 -0.0682,0.388209 -0.013,0.575325 0.007,0.02531 0.0158,0.05036 0.025,0.07511"
       id="path115"
       inkscape:path-effect="#path-effect117"
       inkscape:original-d="m 114.14199,94.862387 c 0.60003,1.332053 1.85519,2.512044 3.0226,3.395808 0.66836,0.505968 2.82105,1.378413 3.68732,1.139454 0.99374,-0.274121 3.74619,-3.007455 2.30771,-4.0163 -0.51626,-0.36207 -1.49877,-0.220255 -2.06941,-0.349737 -0.523,-0.118674 -1.36816,-0.477896 -1.83112,-0.733314 -0.78822,-0.434869 -1.2347,-1.618911 -1.86874,-2.256351 -0.50429,-0.506987 -1.4289,-0.407892 -2.06942,-0.643062 -0.2148,-0.07887 -0.3477,-0.252357 -0.55184,-0.32717 -0.13553,-0.04967 -0.75776,-0.295601 -0.9281,-0.236916 -0.71331,0.245734 -1.49141,0.792641 -1.19148,1.602007" />
    <path
       style="fill:none;stroke:#000000;stroke-width:0.264583px;stroke-linecap:butt;stroke-linejoin:miter;stroke-opacity:1"
       d="m 129.69395,103.4478 c -0.46424,-0.0161 -0.91856,-0.12207 -1.37098,-0.21891 -0.38625,-0.0827 -0.77562,-0.16976 -1.17178,-0.17656 -0.19876,-0.003 -0.39092,0.0618 -0.57016,0.14229 -0.23897,0.10738 -0.46349,0.2471 -0.71236,0.33215 -0.14137,0.0483 -0.2916,0.0613 -0.44014,0.0627 -0.14851,0.001 -0.29871,0.005 -0.44325,0.0434 -0.25122,0.067 -0.48305,0.19027 -0.70355,0.32542 -0.25983,0.15926 -0.50187,0.3453 -0.75673,0.51202 -0.0882,0.0577 -0.18981,0.0992 -0.26076,0.1802 -0.0302,0.0344 -0.0421,0.0794 -0.0504,0.12341 -0.0425,0.22406 -0.033,0.45395 -0.0147,0.68002 0.0241,0.29934 0.076,0.59645 0.0848,0.89688 0.005,0.15738 -0.005,0.31484 0.001,0.47224 0.006,0.16802 0.0177,0.33893 0.0742,0.49853 0.0255,0.0722 0.0657,0.13909 0.11925,0.19476 0.32143,0.33394 0.72867,0.57843 1.16483,0.73134 0.54933,0.19258 1.13684,0.25266 1.71614,0.2412 0.76103,-0.0151 1.51511,-0.14558 2.25355,-0.32395 0.37151,-0.0897 0.73822,-0.19773 1.10492,-0.3052 0.49543,-0.1452 1.00099,-0.26307 1.47864,-0.46244 0.33392,-0.13938 0.65364,-0.32664 0.90693,-0.58857 0.2102,-0.21737 0.36161,-0.48639 0.45962,-0.77171 0.1038,-0.30218 0.16324,-0.62763 0.11502,-0.9469 -0.0378,-0.25052 -0.15246,-0.4855 -0.3127,-0.68055 -0.211,-0.25684 -0.48407,-0.4535 -0.76432,-0.62784 -0.47106,-0.29305 -0.97071,-0.53847 -1.43012,-0.8508 -0.5382,-0.36589 -1.02763,-0.80148 -1.58895,-1.13362 -0.29364,-0.17375 -0.60392,-0.32574 -0.93383,-0.41417 -0.2903,-0.0778 -0.60798,-0.0153 -0.86053,0.14374 -0.2116,0.13322 -0.38004,0.3415 -0.44511,0.58495 -0.034,0.12728 -0.0467,0.26346 -0.0175,0.392 0.0265,0.11672 0.11131,0.20689 0.19002,0.29211 0.046,0.0498 0.0927,0.0995 0.13136,0.15542"
       id="path119"
       inkscape:path-effect="#path-effect121"
       inkscape:original-d="m 129.69395,103.4478 c -0.83842,-0.0281 -1.68764,-0.36155 -2.52092,-0.39486 -0.46686,-0.0187 -0.87874,0.33278 -1.30436,0.47383 -0.32643,0.10818 -0.55882,0.0253 -0.86539,0.10154 -0.51161,0.12729 -1.04904,0.5526 -1.4674,0.83485 -0.11448,0.0772 -0.2826,0.13619 -0.31355,0.27076 -0.11107,0.4829 0.0529,1.1574 0.0627,1.65842 0.005,0.24549 -0.0472,0.87136 0.17559,1.10561 1.50486,1.58221 4.38787,0.92376 6.14553,0.39487 1.18759,-0.35736 2.47699,-0.54416 2.9348,-1.7938 0.65131,-1.77779 -0.88515,-2.23193 -2.13212,-3.01223 -0.94637,-0.5922 -1.60103,-1.34244 -2.72159,-1.69227 -0.66626,-0.208 -1.46925,0.33238 -1.36707,1.08305 0.0259,0.18998 0.21739,0.31589 0.32609,0.47383" />
    <path
       style="fill:none;stroke:#000000;stroke-width:0.264583px;stroke-linecap:butt;stroke-linejoin:miter;stroke-opacity:1"
       d="m 94.112579,72.152207 c 0.610584,-0.04892 1.224086,-0.0091 1.834965,-0.05358 0.52732,-0.03838 1.056889,-0.12066 1.552945,-0.310125 0.387521,-0.148011 0.747014,-0.369719 1.0501,-0.653497 0.272371,-0.25502 0.50079,-0.554828 0.6872,-0.877312 0.138184,-0.239054 0.24847,-0.499518 0.282726,-0.77547 0.02019,-0.162643 0.0088,-0.327422 -0.01167,-0.489375 -0.04394,-0.348555 -0.158125,-0.682391 -0.26444,-1.015623 -0.06607,-0.207086 -0.137392,-0.414033 -0.173734,-0.628564 -0.03298,-0.194674 -0.02244,-0.393078 -0.01582,-0.589401 0.0078,-0.230323 0.02022,-0.463508 -0.02294,-0.691299 -0.02891,-0.152569 -0.09075,-0.304114 -0.203588,-0.41405 -0.22424,-0.218475 -0.490218,-0.389522 -0.766315,-0.534486 -0.418051,-0.219497 -0.862265,-0.388739 -1.318822,-0.507969 -0.298074,-0.07784 -0.601928,-0.14354 -0.910249,-0.156267 -0.360502,-0.01488 -0.719688,0.05081 -1.065426,0.147594 -0.595462,0.166688 -1.164622,0.420106 -1.700414,0.726945 -0.608825,0.348664 -1.185018,0.762422 -1.677722,1.26344 -0.343598,0.349396 -0.652787,0.742345 -0.852957,1.19247 -0.148969,0.334989 -0.226626,0.708261 -0.179824,1.074982 0.03514,0.275359 0.148472,0.53526 0.300122,0.766676 0.276604,0.422095 0.62608,0.794331 1.021152,1.107791 0.507997,0.403058 1.082888,0.709027 1.656169,1.007167 0.260205,0.135322 0.521006,0.269569 0.778533,0.40995 z"
       id="path123"
       inkscape:path-effect="#path-effect125"
       inkscape:original-d="m 94.112579,72.152207 c 0.566986,-0.04567 1.138462,-0.01175 1.705697,-0.04513 1.388798,-0.08172 2.459133,-0.425818 3.248353,-1.579441 0.249677,-0.364961 0.472652,-0.784439 0.46405,-1.240993 -0.01318,-0.699884 -0.30376,-1.230829 -0.451509,-1.895335 -0.113691,-0.511352 0.152755,-1.340324 -0.250838,-1.737394 -0.64771,-0.637249 -2.048661,-1.131195 -2.947347,-1.195867 -2.028923,-0.146005 -6.737218,2.814381 -5.255056,5.121918 0.87136,1.356598 2.137928,1.837317 3.48665,2.572239 z" />
    <path
       style="fill:none;stroke:#000000;stroke-width:0.264583px;stroke-linecap:butt;stroke-linejoin:miter;stroke-opacity:1"
       d="m 111.15702,59.95663 c -0.17067,-0.196461 -0.3229,-0.408096 -0.49376,-0.604426 -0.16447,-0.188987 -0.3425,-0.372975 -0.56137,-0.498462 -0.0806,-0.04623 -0.16437,-0.09388 -0.25633,-0.109025 -0.10614,-0.01749 -0.21423,-0.01704 -0.32149,-0.01843 -0.12458,-0.0016 -0.24937,0.0077 -0.37375,6.29e-4 -0.49784,-0.02828 -0.9979,-0.05709 -1.49601,-0.01706 -0.38387,0.03085 -0.76269,0.114241 -1.1265,0.240264 -0.36045,0.124861 -0.70771,0.285075 -1.04471,0.462868 -0.19836,0.104651 -0.39324,0.228758 -0.53432,0.406659 -0.0948,0.119609 -0.15267,0.263175 -0.2005,0.406626 -0.0927,0.277918 -0.14354,0.567025 -0.21987,0.849498 -0.0774,0.286414 -0.16011,0.574809 -0.17667,0.872682 -0.0121,0.217093 0.022,0.43776 0.10979,0.637606 0.0852,0.194078 0.21769,0.364088 0.36977,0.510509 0.26067,0.250965 0.55487,0.464465 0.85722,0.661887 0.58578,0.382484 1.20495,0.713537 1.84561,0.993966 0.56258,0.246254 1.14124,0.464121 1.74219,0.594923 0.34601,0.07531 0.70158,0.128866 1.05631,0.101635 0.19313,-0.01483 0.38633,-0.05977 0.55784,-0.152447 0.2079,-0.11234 0.40582,-0.242028 0.60203,-0.37338 0.40137,-0.268696 0.79363,-0.550696 1.18315,-0.836232 0.40218,-0.294815 0.80402,-0.597495 1.13937,-0.969162 0.24591,-0.272541 0.45276,-0.587609 0.5622,-0.940411 0.0536,-0.17273 0.0852,-0.354125 0.0717,-0.535651 -0.022,-0.294383 -0.15092,-0.571865 -0.32752,-0.804898 -0.23456,-0.309511 -0.54432,-0.557251 -0.88339,-0.743297 -0.30368,-0.166626 -0.63405,-0.293049 -0.97883,-0.337013 -0.11849,-0.01511 -0.23932,-0.02093 -0.3577,3.65e-4 -0.25618,0.04609 -0.49122,0.176782 -0.75221,0.200518 -0.30467,0.02771 -0.60567,-0.06468 -0.91069,-0.03637 -0.0928,0.0086 -0.18172,0.03781 -0.27097,0.06284 -0.44576,0.124991 -0.89048,0.256248 -1.32387,0.419404 -0.20556,0.07739 -0.41469,0.151678 -0.60347,0.264867 -0.064,0.0384 -0.13536,0.07483 -0.17678,0.138414 -0.0849,0.130393 -0.11496,0.287522 -0.12314,0.440799 -0.007,0.126228 -0.001,0.252735 -0.007,0.378989"
       id="path127"
       inkscape:path-effect="#path-effect129"
       inkscape:original-d="m 111.15702,59.95663 c -0.32995,-0.374951 -0.7396,-1.041572 -1.29182,-1.207148 -0.1213,-0.03637 -0.64721,-0.01855 -0.71488,-0.02257 -1.38464,-0.08212 -2.11613,-0.07993 -3.42394,0.564089 -0.3277,0.161372 -0.70547,0.33655 -0.87793,0.688187 -0.15704,0.320183 -0.20776,0.682429 -0.30101,1.026639 -0.18031,0.665551 -0.3726,1.262462 0.0878,1.872773 0.77664,1.029529 4.80856,3.115959 6.1957,2.44814 0.39554,-0.190426 1.40617,-0.918329 1.63045,-1.083048 0.77844,-0.571704 1.77082,-1.246442 1.96908,-2.278915 0.22356,-1.164293 -1.30968,-2.189236 -2.34534,-2.222505 -0.31735,-0.01019 -0.61214,0.182978 -0.9281,0.214352 -0.33289,0.03306 -0.67537,-0.08844 -1.00335,-0.02257 -0.0578,0.01161 -2.09853,0.561592 -2.29517,0.879978 -0.15431,0.249849 -0.11243,0.531982 -0.12542,0.812284" />
    <path
       style="fill:none;stroke:#000000;stroke-width:0.264583px;stroke-linecap:butt;stroke-linejoin:miter;stroke-opacity:1"
       d="m 117.51576,43.510782 c -0.71922,-0.292504 -1.51736,-0.380953 -2.2848,-0.26625 -0.80879,0.120883 -1.58259,0.47109 -2.20344,1.004019 -0.26581,0.228169 -0.52046,0.4777 -0.70712,0.774232 -0.0774,0.122941 -0.11187,0.266953 -0.13251,0.409065 -0.0424,0.291711 -0.024,0.587279 -0.0272,0.880936 -0.002,0.14087 -0.009,0.281602 -0.0116,0.422465 -0.005,0.281956 -0.008,0.565337 0.0264,0.845516 0.0153,0.123293 0.0293,0.250187 0.0815,0.363813 0.0753,0.163977 0.20977,0.294781 0.36234,0.387972 0.20679,0.126307 0.44164,0.195856 0.67501,0.254465 0.24797,0.06227 0.49952,0.110706 0.74351,0.188928 0.43135,0.138289 0.86449,0.276018 1.30956,0.363262 0.3397,0.06659 0.69173,0.09723 1.03503,0.03661 0.33455,-0.05907 0.64618,-0.206364 0.9351,-0.380606 0.37253,-0.224668 0.72297,-0.483406 1.07174,-0.742697 0.22097,-0.164278 0.44849,-0.320136 0.66276,-0.493053 0.17633,-0.142299 0.34524,-0.293538 0.51305,-0.445684 0.3593,-0.325763 0.7175,-0.653501 1.05494,-1.00198 0.1173,-0.121139 0.24778,-0.233465 0.33939,-0.375329 0.0221,-0.03429 0.0608,-0.06877 0.0545,-0.111962 -0.029,-0.19879 -0.11093,-0.386079 -0.21125,-0.558488 -0.15359,-0.263971 -0.34844,-0.504229 -0.5753,-0.708374 -0.15707,-0.141344 -0.32801,-0.273253 -0.52435,-0.354276 -0.15242,-0.0629 -0.31615,-0.09194 -0.4787,-0.11443 -0.21539,-0.0298 -0.43475,-0.04051 -0.64517,-0.09779 -0.25761,-0.07013 -0.48761,-0.218518 -0.74906,-0.276186 -0.10543,-0.02325 -0.22423,-0.04893 -0.32222,-0.0016 -0.0671,0.03242 -0.1281,0.07611 -0.18885,0.118916 -0.29758,0.20966 -0.58628,0.431715 -0.87066,0.658841 -0.305,0.243598 -0.61156,0.486524 -0.89528,0.754819 -0.0907,0.08573 -0.18521,0.169333 -0.25969,0.269889 -0.008,0.01092 -0.0159,0.02212 -0.0227,0.03388"
       id="path131"
       inkscape:path-effect="#path-effect133"
       inkscape:original-d="m 117.51576,43.510782 c -1.82807,-0.7404 -3.9941,-0.151683 -5.1798,1.489194 -0.22793,0.315428 -0.1707,1.01787 -0.17559,1.353809 -0.003,0.19513 -0.0678,1.287301 0.11288,1.624573 0.30603,0.571212 1.17484,0.605478 1.7057,0.778442 2.5328,0.825216 2.68581,0.572008 5.04184,-1.173303 0.28983,-0.214696 2.01501,-1.792391 1.99417,-1.951744 -0.0808,-0.617461 -0.82941,-1.475854 -1.39215,-1.658419 -0.3187,-0.103391 -0.66356,-0.09738 -0.99082,-0.169225 -0.37576,-0.08249 -0.74169,-0.381214 -1.11623,-0.293327 -0.13955,0.03275 -2.05584,1.512802 -2.245,1.838925" />
    <path
       style="fill:none;stroke:#000000;stroke-width:0.264583px;stroke-linecap:butt;stroke-linejoin:miter;stroke-opacity:1"
       d="m 110.46289,158.18292 c -0.10451,-0.18803 -0.13889,-0.4385 -0.31355,-0.56409 -0.0123,-0.009 -0.043,-0.0433 -0.0376,-0.0339 0.0526,0.0909 0.13202,0.1617 0.20388,0.23694 0.0598,0.0626 0.12259,0.12603 0.15923,0.20597 0.0226,0.0494 0.0188,0.10916 -0.0119,0.15503 -0.088,0.13125 -0.22082,0.22445 -0.35993,0.29515 -0.24221,0.12309 -0.50907,0.19292 -0.74229,0.33469 -0.0789,0.048 -0.14863,0.10918 -0.2139,0.17437 -0.4006,0.40009 -0.71645,0.87996 -0.95446,1.39217 -0.24984,0.53767 -0.41138,1.11474 -0.49087,1.70266 -0.0134,0.0994 -0.0187,0.19975 -0.0156,0.30002 0.008,0.25006 0.0382,0.49872 0.0716,0.74641 0.0292,0.21646 0.0574,0.43303 0.0879,0.6493 0.0433,0.30633 0.0968,0.61417 0.2068,0.90458 0.0811,0.21408 0.20239,0.4146 0.36628,0.57577 0.20645,0.20303 0.46769,0.33959 0.73467,0.44524 0.24138,0.0955 0.49034,0.17051 0.74128,0.23595 0.16316,0.0426 0.32759,0.0853 0.49596,0.0998 0.0603,0.005 0.12162,0.004 0.18078,-0.0121 0.19974,-0.0531 0.37765,-0.16615 0.53683,-0.29505 0.23901,-0.19354 0.44364,-0.42417 0.65326,-0.64793 0.43389,-0.46315 0.82372,-0.97309 1.11404,-1.53905 0.24172,-0.47121 0.41021,-0.98598 0.44596,-1.51675 0.0295,-0.43777 -0.0387,-0.88215 -0.20228,-1.28935 -0.0785,-0.19556 -0.17226,-0.38608 -0.29012,-0.5611 -0.15143,-0.22486 -0.35439,-0.41481 -0.59052,-0.54873 -0.28114,-0.15945 -0.59896,-0.23857 -0.91545,-0.2913 -0.40754,-0.0679 -0.8455,-0.0231 -1.22508,-0.18797 -0.0115,-0.005 0.0204,0.001 0.0248,0.002 0.0802,0.0165 0.15925,0.0407 0.23353,0.0765 0.0395,0.019 0.0591,0.0595 0.0799,0.0954 0.11966,0.20599 0.17584,0.4402 0.22664,0.67073 0.0128,0.058 0.0253,0.11606 0.0385,0.17395"
       id="path139"
       inkscape:path-effect="#path-effect141"
       inkscape:original-d="m 110.46289,158.18292 c -0.10451,-0.18803 -0.20903,-0.37606 -0.31355,-0.56409 -0.0125,-0.0113 -0.0458,-0.0486 -0.0376,-0.0339 0.1123,0.20204 0.48066,0.40647 0.35117,0.59794 -0.27545,0.40731 -0.91223,0.41513 -1.26673,0.75588 -0.84896,0.81602 -1.39098,2.08659 -1.50503,3.23786 -0.0348,0.35132 0.0873,1.07573 0.13796,1.47791 0.16892,1.33988 0.46206,1.81959 1.80604,2.21122 0.16467,0.048 0.71032,0.21257 0.90301,0.16923 0.47017,-0.10573 0.87175,-0.58323 1.1664,-0.89126 1.2117,-1.2667 2.21292,-3.05929 1.21656,-4.81731 -0.63288,-1.1167 -1.77868,-0.94151 -2.80938,-1.1733 -0.10074,-0.0226 0.23162,0.0266 0.28847,0.11282 0.17843,0.27058 0.23083,0.59596 0.301,0.90254" />
    <path
       style="fill:none;stroke:#000000;stroke-width:0.264583px;stroke-linecap:butt;stroke-linejoin:miter;stroke-opacity:1"
       d="m 140.36279,189.83759 c -0.2246,-0.13576 -0.4296,-0.30388 -0.67215,-0.41075 -0.0395,-0.0174 -0.0839,-0.007 -0.12519,-0.003 -0.21165,0.0223 -0.42033,0.0698 -0.63244,0.0866 -0.6041,0.0477 -1.21087,-0.0523 -1.8141,0.0183 -0.3204,0.0375 -0.6402,0.12921 -0.91086,0.30725 -0.0725,0.0477 -0.14858,0.0935 -0.20494,0.1612 -0.12527,0.15051 -0.2294,0.3172 -0.33065,0.48431 -0.29804,0.49191 -0.57368,0.99727 -0.83301,1.51048 -0.13624,0.26962 -0.27037,0.54054 -0.39147,0.81745 -0.0285,0.0653 -0.0471,0.13398 -0.06,0.20413 -0.0594,0.32197 -0.0184,0.65533 0.0801,0.96545 0.14002,0.4408 0.37923,0.83984 0.60166,1.24245 0.1206,0.21829 0.24433,0.43625 0.33667,0.66838 0.15212,0.38241 0.22876,0.7925 0.41179,1.16306 0.0753,0.15241 0.17622,0.29083 0.29245,0.41502 0.23779,0.25408 0.53847,0.44662 0.86625,0.56313 0.4133,0.14691 0.85514,0.18196 1.29023,0.1984 0.43067,0.0163 0.86231,0.0229 1.29097,0.0741 0.29893,0.0356 0.59414,0.0959 0.89207,0.13827 0.30067,0.0427 0.60456,0.0663 0.90823,0.0622 0.80761,-0.011 1.60235,-0.25093 2.30717,-0.63903 0.85164,-0.46895 1.58687,-1.14554 2.13191,-1.9501 0.21491,-0.31724 0.39117,-0.6589 0.54347,-1.01048 0.19053,-0.43983 0.38795,-0.88218 0.48539,-1.35375 0.057,-0.27604 0.084,-0.56596 0.018,-0.84254 -0.0682,-0.28551 -0.23833,-0.53549 -0.4372,-0.74653 -0.29253,-0.31042 -0.64353,-0.55779 -0.99956,-0.78929 -0.25953,-0.16875 -0.52168,-0.33335 -0.77818,-0.50686 -0.75108,-0.50808 -1.50895,-1.01758 -2.33979,-1.38755 -0.52873,-0.23544 -1.09078,-0.41632 -1.67191,-0.45126 -0.45356,-0.0273 -0.91491,0.0536 -1.32672,0.24922 -0.24767,0.11767 -0.46902,0.28235 -0.6771,0.46003 -0.33755,0.28824 -0.69348,0.56119 -0.97739,0.90535 -0.16353,0.19823 -0.30062,0.42265 -0.37154,0.67124"
       id="path143"
       inkscape:path-effect="#path-effect145"
       inkscape:original-d="m 140.36279,189.83759 c -0.22994,-0.13914 -0.43763,-0.3245 -0.68981,-0.41743 -0.0483,-0.0178 -0.7172,0.0885 -0.73997,0.0903 -0.97018,0.0765 -1.98277,-0.2329 -2.85956,0.41742 -0.31755,0.23553 -1.6022,2.7158 -1.66807,3.00095 -0.23961,1.03729 0.53285,1.94521 0.94065,2.82044 0.24993,0.53641 0.30321,1.18779 0.6898,1.63585 0.90242,1.04591 2.174,0.76956 3.38631,0.90254 0.71062,0.0779 0.97913,0.18894 1.73078,0.21436 2.19472,0.0742 4.31864,-1.55842 5.15472,-3.51991 0.25169,-0.59047 0.67625,-1.47262 0.55185,-2.19994 -0.15564,-0.91002 -1.39163,-1.55089 -2.06942,-2.00816 -1.68807,-1.13885 -4.2173,-2.9369 -6.12044,-1.28611 -0.52329,0.4539 -1.20677,0.93464 -1.40469,1.62457" />
  </g>
</svg>
