<?xml version="1.0" encoding="UTF-8" standalone="no"?>
<!-- Created with Inkscape (http://www.inkscape.org/) -->

<svg
   width="169.33333mm"
   height="127mm"
   viewBox="0 0 169.33333 127"
   version="1.1"
   id="svg5"
   inkscape:version="1.1.2 (08b2f3d93c, 2022-04-05)"
   sodipodi:docname="CorteObliquo.svg"
   xmlns:inkscape="http://www.inkscape.org/namespaces/inkscape"
   xmlns:sodipodi="http://sodipodi.sourceforge.net/DTD/sodipodi-0.dtd"
   xmlns="http://www.w3.org/2000/svg"
   xmlns:svg="http://www.w3.org/2000/svg">
  <sodipodi:namedview
     id="namedview7"
     pagecolor="#ffffff"
     bordercolor="#666666"
     borderopacity="1.0"
     inkscape:pageshadow="2"
     inkscape:pageopacity="0.0"
     inkscape:pagecheckerboard="0"
     inkscape:document-units="mm"
     showgrid="false"
     inkscape:zoom="0.8840703"
     inkscape:cx="256.76691"
     inkscape:cy="287.87303"
     inkscape:window-width="1366"
     inkscape:window-height="704"
     inkscape:window-x="0"
     inkscape:window-y="27"
     inkscape:window-maximized="1"
     inkscape:current-layer="layer2" />
  <defs
     id="defs2">
    <inkscape:path-effect
       effect="simplify"
       id="path-effect85"
       is_visible="true"
       lpeversion="1"
       steps="1"
       threshold="0.000408163"
       smooth_angles="360"
       helper_size="0"
       simplify_individual_paths="false"
       simplify_just_coalesce="false" />
    <inkscape:path-effect
       effect="simplify"
       id="path-effect81"
       is_visible="true"
       lpeversion="1"
       steps="1"
       threshold="0.000408163"
       smooth_angles="360"
       helper_size="0"
       simplify_individual_paths="false"
       simplify_just_coalesce="false" />
    <inkscape:path-effect
       effect="simplify"
       id="path-effect77"
       is_visible="true"
       lpeversion="1"
       steps="1"
       threshold="0.000408163"
       smooth_angles="360"
       helper_size="0"
       simplify_individual_paths="false"
       simplify_just_coalesce="false" />
    <inkscape:path-effect
       effect="simplify"
       id="path-effect73"
       is_visible="true"
       lpeversion="1"
       steps="1"
       threshold="0.000408163"
       smooth_angles="360"
       helper_size="0"
       simplify_individual_paths="false"
       simplify_just_coalesce="false" />
    <inkscape:path-effect
       effect="simplify"
       id="path-effect69"
       is_visible="true"
       lpeversion="1"
       steps="1"
       threshold="0.000408163"
       smooth_angles="360"
       helper_size="0"
       simplify_individual_paths="false"
       simplify_just_coalesce="false" />
    <inkscape:path-effect
       effect="simplify"
       id="path-effect65"
       is_visible="true"
       lpeversion="1"
       steps="1"
       threshold="0.000408163"
       smooth_angles="360"
       helper_size="0"
       simplify_individual_paths="false"
       simplify_just_coalesce="false" />
    <inkscape:path-effect
       effect="simplify"
       id="path-effect61"
       is_visible="true"
       lpeversion="1"
       steps="1"
       threshold="0.000408163"
       smooth_angles="360"
       helper_size="0"
       simplify_individual_paths="false"
       simplify_just_coalesce="false" />
    <inkscape:path-effect
       effect="simplify"
       id="path-effect57"
       is_visible="true"
       lpeversion="1"
       steps="1"
       threshold="0.000408163"
       smooth_angles="360"
       helper_size="0"
       simplify_individual_paths="false"
       simplify_just_coalesce="false" />
  </defs>
  <g
     inkscape:groupmode="layer"
     id="layer2"
     inkscape:label="Corte Obliquo">
    <path
       style="fill:none;stroke:#000000;stroke-width:0.264583px;stroke-linecap:butt;stroke-linejoin:miter;stroke-opacity:1"
       d="m 59.961668,85.148186 c 0.06552,-0.155433 0.143942,-0.320588 0.122356,-0.493206 -0.01554,-0.124243 -0.136718,-0.191689 -0.244619,-0.227204 -0.211987,-0.06977 -0.434946,-0.136887 -0.59955,-0.297606 -0.200848,-0.196108 -0.277114,-0.479599 -0.305644,-0.752601 -0.02611,-0.249799 -0.0042,-0.519241 -0.124674,-0.745485 -0.09031,-0.169615 -0.218878,-0.314528 -0.294916,-0.494248 -0.385001,-0.909968 -0.944346,-1.730125 -1.419759,-2.593109 -0.12881,-0.23382 -0.14769,-0.516426 -0.315806,-0.731806 -0.239713,-0.307105 -0.603332,-0.470307 -0.906798,-0.702522 -0.29407,-0.225025 -0.466722,-0.56242 -0.630707,-0.884774 C 55.093276,76.934152 54.890222,76.676679 54.689965,76.420188 54.42464,76.080357 54.159616,75.738894 53.86345,75.425062 53.270241,74.796469 52.570169,74.26846 52.050398,73.571623 51.491833,72.822776 51.161795,71.936909 50.666282,71.15006 50.365618,70.672621 49.847465,70.357025 49.60605,69.843909 c -0.06883,-0.146299 -0.05244,-0.312737 -0.111324,-0.464027 -0.246191,-0.632529 -0.591052,-1.224492 -0.998091,-1.767024 -0.385332,-0.5136 -0.873032,-0.938545 -1.381537,-1.326265 -0.75785,-0.577838 -1.585781,-1.083625 -2.222395,-1.801895 -0.494682,-0.558133 -1.019407,-1.09504 -1.445136,-1.708699 -0.238931,-0.344403 -0.437459,-0.719242 -0.731751,-1.023522 -0.511575,-0.528938 -1.092921,-0.98243 -1.615854,-1.500341 -0.392255,-0.388488 -0.837299,-0.717245 -1.258609,-1.072518 -0.531995,-0.448609 -1.026571,-0.940948 -1.602033,-1.339873 -0.291266,-0.201913 -0.521413,-0.486695 -0.848805,-0.639223 -0.596122,-0.277725 -1.264768,-0.382708 -1.830064,-0.729328 -0.264059,-0.161912 -0.535004,-0.315407 -0.819676,-0.437251 -0.101999,-0.04366 -0.213484,-0.162316 -0.314193,-0.112987 -0.09235,0.04524 -0.02951,0.186981 -0.004,0.262025 0.08145,0.239972 0.221129,0.455433 0.313463,0.690501 0.205712,0.523712 0.25268,1.09089 0.272746,1.648374 0.02014,0.559626 0.02313,1.134361 0.219816,1.666888 0.156189,0.422889 0.43525,0.795988 0.546202,1.234636 0.07282,0.287889 0.04786,0.586678 0.085,0.879774 0.106815,0.843004 0.168296,1.699008 0.411387,2.516985 0.19623,0.660293 0.576078,1.242474 0.927297,1.827873 0.267802,0.446362 0.512505,0.909848 0.671426,1.408345 0.175725,0.551208 0.276402,1.136356 0.569299,1.641567 0.198563,0.342497 0.538122,0.568836 0.754137,0.899408 0.297642,0.455487 0.555449,0.936055 0.793822,1.424863 0.133234,0.27321 0.24419,0.557639 0.315365,0.853879 0.09885,0.411441 0.166268,0.832186 0.321915,1.228357 0.180279,0.458867 0.411053,0.902351 0.50247,1.392425 0.296701,1.590566 0.599086,3.185468 1.102628,4.727542 0.120278,0.368346 0.186794,0.757585 0.377122,1.100749 0.317335,0.572159 0.805445,1.018143 1.215431,1.520495 0.333203,0.408271 0.581484,0.876039 0.84577,1.329681 0.130193,0.223474 0.241426,0.460467 0.398951,0.665794 0.223396,0.291187 0.529511,0.50264 0.765045,0.783753 0.409041,0.488196 0.709906,1.056994 1.144467,1.526668 0.309144,0.334123 0.572558,0.711586 0.905,1.022373 0.163774,0.153106 0.39279,0.227529 0.524674,0.418236 0.113577,0.164235 0.161606,0.366276 0.302135,0.515198 0.232689,0.246586 0.573196,0.346859 0.804919,0.598475 0.193557,0.210173 0.314483,0.495712 0.558403,0.650353 0.427405,0.270967 0.883341,0.493421 1.321692,0.74581 0.267078,0.153775 0.434206,0.44114 0.708029,0.579881 0.08418,0.04265 0.192667,0.06706 0.277791,0.03031 0.101961,-0.04403 0.04505,0.106009 0.09157,0.12855 0.08838,0.04282 0.186511,0.06184 0.27971,0.09309 0.213622,0.07162 0.466655,0.07446 0.639907,0.218545 0.141321,0.117529 0.287375,0.238748 0.472162,0.283774 0.267739,0.06524 0.544619,0.08705 0.81882,0.08586 0.45061,-0.002 0.870262,-0.203846 1.321793,-0.210935 0.305014,-0.0048 0.620018,0.01317 0.911084,-0.104656 0.759677,-0.307533 1.413416,-0.818132 2.026927,-1.351164 0.287252,-0.249571 0.579871,-0.493291 0.859442,-0.751393 0.333153,-0.30757 0.536339,-0.736458 0.610367,-1.180514 0.100935,-0.605461 0.01402,-1.225852 -0.140369,-1.814073 -0.10269,-0.391256 -0.23715,-0.777825 -0.255483,-1.187251 -0.02857,-0.638069 -0.05984,-1.276999 -0.134711,-1.911322 -0.02547,-0.215777 -0.01333,-0.444338 -0.09867,-0.644918 -0.05037,-0.118388 -0.08088,0.0819 -0.0843,0.12792 0,0 -0.0016,0.01116 -0.0016,0.01116"
       id="path67"
       inkscape:path-effect="#path-effect69"
       inkscape:original-d="m 59.961668,85.148186 c 0.487151,-1.081304 -0.561099,-0.409281 -0.940062,-1.356156 -0.133662,-0.333973 -0.06689,-0.734674 -0.177366,-1.07695 -0.05874,-0.181983 -0.22575,-0.328789 -0.301527,-0.510553 -0.396735,-0.951645 -0.913807,-1.767046 -1.43669,-2.640523 -0.122182,-0.204099 -0.142185,-0.457848 -0.266057,-0.662125 -0.267261,-0.440735 -0.853676,-0.598712 -1.188374,-1.005152 -0.270078,-0.327975 -0.395803,-0.71179 -0.638526,-1.045041 -0.280485,-0.38509 -0.580544,-0.76812 -0.886849,-1.132792 -0.572884,-0.682043 -1.274443,-1.199277 -1.844641,-1.858735 -0.693719,-0.802315 -1.0599,-1.771198 -1.587455,-2.664455 -0.289888,-0.490839 -0.81057,-0.851979 -1.081953,-1.340202 -0.0679,-0.12216 -0.04957,-0.293322 -0.09755,-0.422804 -0.277564,-0.749022 -0.785008,-1.591969 -1.321398,-2.185807 -0.972193,-1.07632 -2.371815,-1.717559 -3.334541,-2.80007 -0.451197,-0.507336 -0.930421,-1.028829 -1.339141,-1.571551 -0.263742,-0.350215 -0.43675,-0.732422 -0.74495,-1.060997 -0.498055,-0.530979 -1.087176,-0.966063 -1.596321,-1.483794 -0.36842,-0.374632 -0.777621,-0.702239 -1.188377,-1.029089 -0.582292,-0.463346 -1.087411,-1.039588 -1.711613,-1.435934 -0.279149,-0.177249 -0.511201,-0.477943 -0.815898,-0.630213 -0.607184,-0.30343 -1.3741,-0.418108 -1.942195,-0.789763 -0.09819,-0.06424 -1.042464,-0.585957 -1.117426,-0.51853 -0.119845,0.107796 0.312198,0.892585 0.328134,0.933354 0.439695,1.124757 0.151085,2.184366 0.443426,3.167031 0.138903,0.466905 0.419814,0.862272 0.576445,1.316273 0.09739,0.282287 0.06008,0.579644 0.09755,0.869537 0.109884,0.850059 0.18269,1.798299 0.425688,2.616589 0.293529,0.988441 1.051201,1.862087 1.445559,2.80805 0.266399,0.639016 0.369041,1.404503 0.69174,2.010304 0.193009,0.362331 0.501539,0.550537 0.727213,0.869537 0.32141,0.454327 0.88583,1.506045 1.055346,1.986372 0.15871,0.449705 0.201565,0.917028 0.345871,1.364139 0.174422,0.540417 0.470453,1.006269 0.576451,1.571548 0.305067,1.626923 0.574235,3.195064 1.108559,4.770491 0.102592,0.302493 0.1646,0.664768 0.301527,0.957289 0.356473,0.761553 1.076769,1.315532 1.543113,2.010307 0.342424,0.510153 0.617959,1.057992 0.940057,1.579528 0.160147,0.25931 0.46283,0.482057 0.674002,0.702008 0.469308,0.488818 0.770845,1.132782 1.232715,1.627391 0.322027,0.344853 0.623885,0.705483 0.940062,1.060995 0.128318,0.144283 0.34811,0.214038 0.487762,0.366964 0.167751,0.183698 0.173569,0.367713 0.319265,0.542459 0.187444,0.224822 0.42768,0.309243 0.665136,0.478648 0.297167,0.212 0.512318,0.68023 0.780426,0.845603 0.40696,0.25102 0.82963,0.481925 1.250449,0.702011 0.243764,0.127486 0.424688,0.360378 0.638533,0.52651 0.136742,0.10623 0.162673,0.106722 0.328131,0.11168 0.04137,0.0013 0.107344,-0.03781 0.124161,0 0.0439,0.09872 -0.07138,0.107019 0.133024,0.159552 0.03749,0.0096 0.778772,0.248992 0.807032,0.271232 0.110046,0.08661 0.234061,0.212067 0.399082,0.263253 0.256611,0.0796 0.549624,0.08574 0.815895,0.103706 0.404765,0.02731 0.819513,-0.161809 1.223849,-0.199432 0.331319,-0.03083 0.70326,0.03431 1.019874,-0.08775 1.116475,-0.430422 2.004515,-1.314201 2.882251,-2.066147 0.869575,-0.744956 0.816256,-1.957057 0.549844,-3.015462 -0.111683,-0.443706 -0.258823,-0.773274 -0.266052,-1.228521 -0.0037,-0.232288 -0.184679,-3.385862 -0.319264,-2.417156" />
    <path
       style="fill:none;stroke:#000000;stroke-width:0.264583px;stroke-linecap:butt;stroke-linejoin:miter;stroke-opacity:1"
       d="m 13.335396,43.296067 c 0.698409,0.470641 1.01582,1.328912 1.715346,1.792978 0.872965,0.579126 1.791324,1.090199 2.738626,1.534353 0.241685,0.113317 0.468856,0.262192 0.723524,0.34453 0.263948,0.08534 0.55036,0.146555 0.756359,0.353726 0.51386,0.516783 0.80155,1.199381 1.079625,1.859521 0.143304,0.340199 0.318293,0.665874 0.523279,0.973237 0.223779,0.335541 0.428532,0.683655 0.588776,1.055613 0.369888,0.858581 0.640417,1.758245 1.033892,2.606103 0.374839,0.807701 1.088002,1.415679 1.38664,2.264424 0.201613,0.572995 0.161827,1.216955 0.4433,1.760855 0.146394,0.282882 0.35898,0.524957 0.487265,0.819955 0.270501,0.622032 0.420961,1.29606 0.776788,1.881059 0.211454,0.347642 0.425383,0.696215 0.567565,1.08045 0.148727,0.401922 0.282675,0.818987 0.548516,1.163668 0.174353,0.226061 0.340216,0.460729 0.44916,0.727653 0.319101,0.781829 0.45452,1.627189 0.499963,2.466175 0.01424,0.262904 0.01013,0.528911 0.08665,0.784884 0.122265,0.408965 0.315387,0.792252 0.429874,1.20457 0.134325,0.483763 0.259333,0.970859 0.449284,1.437654 0.147351,0.362107 0.351001,0.697407 0.518186,1.050804 0.12912,0.272934 0.185497,0.571607 0.304935,0.849498 0.273811,0.637065 0.576651,1.26874 0.981841,1.831791 0.24265,0.337186 0.656818,0.469585 0.966761,0.727187 0.191297,0.158992 0.289716,0.483639 0.536816,0.516092 0.173859,0.02283 0.199521,0.212418 0.300402,0.323519 0.064,0.07049 0.207556,0.340672 0.252954,0.212742 0.04523,-0.12745 -0.05995,-0.241192 -0.131815,-0.333684 -0.05811,-0.07479 -0.07335,-0.113325 0.03791,-0.07547 0.577442,0.196489 1.038831,0.62602 1.417135,1.09254 0.416046,0.513063 0.753297,1.095894 1.239021,1.548127 0.199679,0.185911 0.478777,0.247712 0.667365,0.455599 0.403976,0.445317 0.731923,0.953917 1.006153,1.488636 0.322522,0.628884 0.619677,1.299833 1.150641,1.78343 0.37262,0.339379 0.790016,0.622166 1.199793,0.913984 0.724457,0.515914 1.659393,0.64338 2.353729,1.207223 0.299666,0.243347 0.519814,0.567423 0.722411,0.891531 0.724689,1.159334 1.112408,2.499475 1.896011,3.625154 0.303377,0.435814 0.737024,0.790951 0.944952,1.28253 0.09518,0.22503 0.115228,0.503327 0.293128,0.67324 0.112523,0.107471 0.280381,0.06136 0.410945,0.151466 0.326714,0.22547 0.613985,0.519673 0.784556,0.88445 0.259385,0.55471 0.376055,1.160132 0.596095,1.730155 0.231511,0.59974 0.47342,1.195143 0.700663,1.796789 0.21356,0.56542 0.462829,1.131064 0.517922,1.740225 0.02897,0.320297 -0.06203,0.653778 -0.278306,0.897012 -0.320984,0.360991 -0.780702,0.550559 -1.222705,0.714751 -0.399696,0.148476 -0.695182,0.470613 -1.010923,0.742759 -0.292752,0.252331 -0.60933,0.527766 -1.00028,0.585871 -0.292205,0.04343 -0.584812,-0.02676 -0.880044,0.03059 -0.805653,0.156498 -1.653762,0.264847 -2.45726,0.04312 -0.573512,-0.158259 -1.071115,-0.50355 -1.545827,-0.851487 -0.234651,-0.171986 -0.436565,-0.381375 -0.643891,-0.584049 -0.32136,-0.314148 -0.776148,-0.409274 -1.200769,-0.499264 -0.340196,-0.0721 -0.715857,-0.0658 -1.014531,-0.246909 -0.143853,-0.08723 -0.258061,-0.218133 -0.424986,-0.272239 -0.328886,-0.106602 -0.675955,-0.137381 -1.001914,-0.260474 -0.850716,-0.321259 -1.670511,-0.763889 -2.577039,-0.902213 -0.614948,-0.09383 -1.253211,-8.48e-4 -1.854164,-0.202365 -0.256578,-0.08604 -0.452862,-0.279026 -0.635404,-0.472359 -0.319903,-0.338815 -0.722002,-0.582498 -1.079803,-0.877402 -0.283605,-0.233751 -0.577419,-0.488482 -0.724122,-0.828534 -0.116873,-0.270908 -0.111245,-0.579487 -0.259841,-0.841027 -0.226496,-0.398651 -0.550194,-0.735073 -0.901297,-1.02431 -0.394361,-0.324873 -0.829769,-0.613671 -1.310467,-0.785907 -0.213366,-0.07645 -0.420801,-0.172917 -0.593255,-0.326669 -0.513078,-0.457435 -0.897025,-1.038666 -1.419818,-1.487484 -0.323433,-0.277667 -0.622377,-0.59367 -0.990152,-0.810356 -0.161743,-0.0953 -0.358824,-0.105276 -0.508073,-0.23454 -0.328695,-0.284683 -0.43023,-0.757436 -0.800024,-1.004125 -0.216901,-0.144694 -0.453912,-0.264153 -0.625197,-0.471556 -0.432153,-0.52328 -0.766944,-1.137692 -1.311444,-1.560535 -0.605279,-0.470042 -1.323584,-0.7748 -1.902606,-1.282355 -0.389679,-0.341582 -0.768874,-0.699804 -1.093665,-1.10297 -0.382962,-0.475375 -0.566726,-1.074824 -0.957295,-1.547467 -0.32366,-0.391674 -0.687794,-0.763007 -0.887365,-1.242504 -0.400452,-0.962144 -1.026584,-1.818852 -1.77615,-2.539536 -0.741377,-0.712811 -1.919409,-1.011135 -2.414471,-1.909845 -0.06283,-0.114053 -0.06535,-0.252237 -0.08107,-0.379613 -0.02598,-0.210436 -0.04889,-0.421341 -0.118147,-0.624267 C 10.557692,72.947727 10.239815,72.310396 9.863942,71.712682 9.5507279,71.214609 9.1314347,70.797489 8.717156,70.384621 8.3269559,69.99575 7.9959773,69.542982 7.7818685,69.032941 7.5821035,68.557069 7.4611903,68.053412 7.3197972,67.558385 7.1913661,67.108739 7.1493357,66.627025 6.9425177,66.207334 6.8732138,66.066697 6.99802,65.967403 7.1277662,65.927559 7.3355093,65.863762 7.5478676,65.8162 7.7571319,65.757763"
       id="path71"
       inkscape:path-effect="#path-effect73"
       inkscape:original-d="m 13.335396,43.296067 c 0.714162,0.480838 1.05252,1.354704 1.764823,1.826826 0.907935,0.601787 2.231823,1.274175 3.228122,1.770981 0.290161,0.14469 0.656586,0.150608 0.895714,0.382918 0.651909,0.633322 0.910569,1.469773 1.285927,2.257605 0.242032,0.507994 0.632369,0.95541 0.860242,1.467842 0.393283,0.884396 0.702593,1.797558 1.073083,2.696366 0.349055,0.846807 1.079014,1.449266 1.410086,2.305468 0.209204,0.541033 0.207244,1.143955 0.407949,1.691211 0.121442,0.331132 0.340371,0.525193 0.487766,0.829652 0.279525,0.577384 0.409048,1.218498 0.709476,1.786937 0.188714,0.357066 0.431772,0.682152 0.59419,1.053021 0.158293,0.361447 0.258823,0.751599 0.443421,1.100881 0.170794,0.323164 0.426918,0.550651 0.585319,0.885491 0.401574,0.848871 0.566388,2.030865 0.585317,2.967593 0.0089,0.438174 0.233838,0.860867 0.381346,1.268408 0.182494,0.5042 0.271465,1.036716 0.461161,1.539639 0.157623,0.417896 0.366808,0.890815 0.594183,1.268407 0.129638,0.215286 0.181006,0.527871 0.274926,0.757854 0.26924,0.65931 0.616029,1.325174 1.002138,1.922555 0.228944,0.354225 0.569677,0.482214 0.904579,0.709994 0.237646,0.161629 0.39996,0.402614 0.620797,0.582345 0.05511,0.04485 0.151715,0.0416 0.186235,0.103709 0.02262,0.04072 0.297188,0.551929 0.372475,0.470664 0.111551,-0.120406 -0.117147,-0.306787 -0.168503,-0.462684 1.323137,0.409004 1.79867,1.708372 2.704885,2.629864 0.228472,0.232323 0.465384,0.238433 0.656268,0.438755 0.28526,0.299367 0.619843,0.751039 0.824763,1.10886 0.393122,0.686448 0.658581,1.407306 1.188373,2.018284 0.357947,0.412799 0.878664,0.701748 1.303669,1.04504 0.781599,0.631326 2.060309,0.75326 2.722616,1.547618 1.042683,1.250573 1.458587,3.056964 2.421091,4.355663 0.264278,0.356588 0.632651,0.75275 0.85137,1.140769 0.04344,0.07707 0.231214,0.657444 0.328137,0.725945 0.108575,0.07674 0.223267,0.02887 0.34587,0.103707 0.239753,0.146341 0.565441,0.444215 0.709473,0.686057 0.313457,0.526319 0.422982,1.152972 0.629662,1.72312 0.227649,0.627993 0.502997,1.234736 0.727213,1.86671 0.215583,0.607644 0.694701,1.596576 0.558717,2.281539 -0.140691,0.708673 -0.896303,1.007248 -1.525376,1.252454 -0.599109,0.233526 -1.10078,1.044105 -1.853508,1.284364 -0.302698,0.09662 -0.599518,-0.02162 -0.904587,0.03988 -0.942221,0.189969 -2.019686,0.326429 -2.94433,-0.07977 -0.47412,-0.208284 -1.012164,-0.584515 -1.401213,-0.917402 -0.235784,-0.201748 -0.409735,-0.449325 -0.691741,-0.598307 -0.528427,-0.279166 -1.289584,-0.304401 -1.86238,-0.502575 -0.141414,-0.04893 -0.243116,-0.203112 -0.390209,-0.263254 -0.301271,-0.123182 -0.658115,-0.134782 -0.966665,-0.247302 -0.868691,-0.316787 -1.611449,-0.714019 -2.536381,-0.917399 -0.686211,-0.150888 -1.44183,0.01875 -2.092955,-0.263255 -0.377665,-0.163569 -0.476577,-0.398058 -0.771557,-0.646169 -0.559704,-0.470773 -1.138483,-0.771399 -1.543116,-1.412002 -0.146292,-0.231605 -0.13244,-0.514584 -0.230577,-0.765832 -0.151937,-0.388986 -0.53922,-0.787476 -0.833636,-1.060994 -0.374258,-0.347692 -0.848281,-0.636746 -1.312533,-0.853583 -0.21215,-0.09909 -0.455484,-0.152208 -0.638529,-0.303143 -0.530038,-0.437058 -0.890129,-1.0081 -1.401216,-1.467843 -0.210619,-0.189458 -0.928084,-0.813942 -1.126295,-0.925377 -0.127278,-0.07156 -0.288903,-0.07501 -0.407952,-0.159548 -0.362308,-0.257293 -0.44568,-0.673106 -0.753818,-0.965268 -0.213872,-0.202783 -0.493346,-0.272065 -0.691741,-0.502575 -0.428056,-0.497349 -0.778932,-1.14776 -1.285926,-1.563571 -0.447419,-0.366951 -1.013159,-0.652052 -1.498771,-0.973243 -0.537169,-0.355292 -1.078188,-0.930888 -1.516507,-1.404024 -0.363055,-0.391895 -0.562294,-1.001113 -0.877978,-1.435933 -0.32973,-0.454168 -0.784956,-0.827541 -1.002135,-1.356161 -0.867337,-2.111131 -2.408408,-3.218527 -4.22139,-4.523189 -0.06544,-0.04709 -0.103449,-0.69132 -0.141896,-0.821674 -0.189428,-0.64226 -0.53745,-1.350386 -0.8779779,-1.922555 C 9.1037723,70.428728 8.1330485,70.310037 7.5886331,68.494014 7.4082552,67.892321 7.2415996,67.28287 7.0831309,66.675164 6.8795621,65.894506 6.6910414,66.046977 7.7571319,65.757763" />
    <path
       style="fill:none;stroke:#000000;stroke-width:0.264583px;stroke-linecap:butt;stroke-linejoin:miter;stroke-opacity:1"
       d="m 7.7571319,65.757763 c -0.2864838,0.112332 -0.5732895,0.216581 -0.8575828,0.343058 -0.048766,0.0217 -0.080017,-0.03051 -0.1026153,-0.06425 -0.1039441,-0.15518 -0.1875869,-0.322908 -0.2675084,-0.491314 -0.089746,-0.189107 -0.1913261,-0.374859 -0.2514301,-0.575524 -0.030764,-0.102711 -0.040095,-0.210552 -0.048259,-0.317023 -0.015446,-0.201444 0.01723,-0.418981 -0.070791,-0.602458 -0.023398,-0.04877 -0.084777,-0.05188 -0.1268787,-0.07695 -0.047751,-0.02843 -0.05884,-0.08944 -0.06731,-0.139512 -0.011228,-0.06638 -0.029623,-0.132395 -0.0721,-0.187499 C 5.7131296,63.413401 5.4698643,63.242912 5.2396484,63.064475 5.0344195,62.905405 4.8243894,62.74001 4.6856827,62.516668 4.5534096,62.303685 4.5130891,62.052029 4.4542343,61.812524 4.4144476,61.650615 4.3578627,61.491674 4.2675999,61.349426 4.0667013,61.032823 3.8675178,60.713775 3.7027575,60.376763 3.6396384,60.247655 3.5633744,60.119826 3.5398451,59.977307 3.4412927,59.380368 3.4352211,58.771685 3.3253575,58.176397 3.3052129,58.067245 3.2867633,57.956258 3.2366803,57.855576 3.0995425,57.579888 2.8439931,57.38057 2.7212203,57.097231 2.6722826,56.984291 2.6484897,56.862352 2.6279391,56.741659 2.5295104,56.163589 2.7700065,55.528716 2.5336087,54.993592 2.5137413,54.948619 2.4753513,54.914642 2.441231,54.880288 2.246131,54.683853 2.0336377,54.504605 1.84925,54.297697 1.7742993,54.213592 1.7210311,54.113113 1.6687444,54.01421 1.4379209,53.577594 1.2947277,53.099623 1.2007775,52.616339 1.1338405,52.272012 1.1032419,51.922022 1.0833313,51.571894 1.0179936,50.42293 0.67901261,49.307142 0.63559473,48.156337 c -0.007296,-0.193377 -0.0189717,-0.388289 0.003528,-0.580597 0.0154154,-0.131759 0.0608592,-0.264125 0.0380177,-0.396984 -0.0128411,-0.07469 -0.0659334,-0.132924 -0.10308205,-0.196503 -0.0242194,-0.04145 -0.0741901,-0.08381 -0.0610779,-0.131433 0.0138322,-0.05024 0.0816411,-0.01662 0.11412766,-0.0037 0.008681,0.0035 0.0174295,0.0068 0.0263861,0.0095"
       id="path75"
       inkscape:path-effect="#path-effect77"
       inkscape:original-d="m 7.7571319,65.757763 c -0.295615,0.116118 -0.573632,0.29573 -0.886845,0.348358 C 6.7771385,66.121785 6.297664,65.072701 6.2672308,64.933443 6.2043238,64.645587 6.2382129,64.340226 6.1608104,64.055928 6.1437501,63.993267 6.0342023,64.00016 6.0011783,63.944243 5.9528072,63.862338 5.9682059,63.750107 5.9124942,63.67301 5.5803267,63.213328 4.9152426,62.948758 4.6531701,62.460443 4.4762131,62.130722 4.4832627,61.682185 4.2895639,61.383494 4.1157342,61.115442 3.5828258,60.252062 3.535745,59.955538 3.4330584,59.308793 3.4300371,58.671637 3.2962955,58.025008 3.2190721,57.651641 2.7863977,57.36301 2.6843728,56.995922 2.5025801,56.341824 2.6207039,55.659514 2.5336087,54.993592 2.5243293,54.922642 1.9077746,54.406302 1.7886567,54.219784 1.3408985,53.518665 1.1229001,52.482151 1.0880483,51.667012 1.0301922,50.313835 0.57126848,48.977774 0.63575776,47.61449 c 0.006073,-0.128381 0.0811904,-0.363868 0.0266044,-0.486622 -0.0439266,-0.09878 -0.22339858,-0.303141 -0.11529007,-0.303141 0.0370343,0 0.070948,0.02127 0.10642195,0.03191" />
    <path
       style="fill:none;stroke:#000000;stroke-width:0.264583px;stroke-linecap:butt;stroke-linejoin:miter;stroke-opacity:1"
       d="m 0.78652028,73.668701 c 1.14823062,0.150045 2.30817412,0.262118 3.42725522,0.573315 0.3809986,0.105949 0.7559145,0.235352 1.1166106,0.398339 0.2436684,0.110106 0.4903837,0.214495 0.746791,0.292301 0.453178,0.137516 0.9235419,0.234063 1.3479016,0.452354 0.1987284,0.102226 0.3821976,0.233308 0.5424378,0.389564 0.1981462,0.19322 0.3804843,0.404436 0.6046827,0.569487 0.1817872,0.133829 0.3697769,0.262577 0.5206024,0.433485 0.4272053,0.484089 0.7177137,1.066452 1.0075364,1.63813 0.283738,0.559676 0.570202,1.130592 0.997483,1.59661 0.82632,0.901234 1.784197,1.672005 2.579707,2.604164 0.134198,0.15725 0.251232,0.328958 0.345564,0.513131 0.246367,0.481004 0.367315,1.01548 0.627959,1.490405 0.214498,0.390841 0.474952,0.754365 0.678943,1.151727 0.118287,0.230416 0.310397,0.416836 0.532929,0.547247 0.392862,0.23023 0.857144,0.310086 1.23957,0.558958 0.253877,0.165216 0.476064,0.372438 0.701055,0.573611 0.219843,0.19657 0.337835,0.473497 0.460936,0.734971 0.07429,0.157792 0.139587,0.3254 0.255112,0.457263 0.127379,0.145394 0.311263,0.220677 0.488318,0.286463 0.206172,0.07661 0.421677,0.130534 0.617262,0.233829 0.112495,0.05941 0.189248,0.163986 0.263388,0.263554 0.224375,0.301328 0.399248,0.643083 0.672676,0.905089 0.09798,0.09389 0.215723,0.289262 0.336852,0.226317 0.04401,-0.02287 -0.0086,-0.09531 -0.02793,-0.126357 -0.104897,-0.16885 -0.247907,-0.310809 -0.395652,-0.442187"
       id="path79"
       inkscape:path-effect="#path-effect81"
       inkscape:original-d="m 0.78652028,73.668701 c 1.38631172,0.181176 2.84574952,0.314854 4.16817802,0.813697 0.3323489,0.125368 0.6452216,0.2959 0.9843987,0.406845 0.6215904,0.203324 1.2246387,0.283583 1.7736928,0.670105 0.2857278,0.201144 0.4914665,0.490415 0.7626882,0.709988 0.1941869,0.157207 0.4057338,0.275741 0.5764501,0.46269 0.8808214,0.96457 1.1890519,2.351019 2.0663509,3.302643 0.850241,0.922274 1.872274,1.711065 2.651671,2.696366 0.412703,0.521732 0.521021,1.170138 0.807031,1.747054 0.21729,0.438301 0.517857,0.818751 0.736082,1.260427 0.355147,0.718797 1.100014,0.754354 1.711615,1.092907 0.253252,0.140187 0.530193,0.409712 0.753818,0.598302 0.362602,0.305792 0.452846,0.79755 0.709477,1.172681 0.25023,0.365779 1.01615,0.394716 1.259321,0.654148 0.352323,0.375883 0.633168,1.091433 1.144033,1.300313 0.07788,0.03184 -0.02611,-0.224189 -0.416817,-0.566396" />
    <path
       style="fill:none;stroke:#000000;stroke-width:0.264583px;stroke-linecap:butt;stroke-linejoin:miter;stroke-opacity:1"
       d="m 20.47451,89.990471 c 0.490464,0.748549 1.105059,1.403153 1.694599,2.072789 0.363936,0.413381 0.733115,0.825445 1.043805,1.280994 0.191344,0.280558 0.336859,0.59392 0.560136,0.850956 0.185457,0.213497 0.486676,0.293206 0.647755,0.531172 0.177889,0.262799 0.242551,0.59077 0.455759,0.831569 0.145136,0.163918 0.367173,0.219162 0.571185,0.271078 0.210628,0.0536 0.436179,0.08961 0.615342,0.222068 0.102989,0.07614 0.154305,0.198522 0.181789,0.321301 0.08871,0.396287 0.05095,0.805681 0.0013,1.204613 -0.04245,0.340826 -0.105888,0.684713 -0.07406,1.028202 0.02761,0.297976 0.17783,0.575436 0.165502,0.878504 -0.02252,0.553643 -0.205903,1.089793 -0.470434,1.573383 -0.254263,0.46482 -0.595002,0.87348 -0.90252,1.30313 -0.153504,0.21447 -0.263221,0.46797 -0.470537,0.63764 -0.110461,0.0904 -0.245427,0.1438 -0.376336,0.19654 -0.334069,0.13458 -0.679121,0.24413 -1.032505,0.31587 -0.150641,0.0306 -0.305585,0.0332 -0.457834,0.0117 -0.184906,-0.0261 -0.375516,-0.0478 -0.559632,0.002 -0.288666,0.0779 -0.548377,0.25504 -0.85144,0.27911 -0.10236,0.008 -0.212788,-0.003 -0.295671,-0.0704 -0.189849,-0.15533 -0.267317,-0.40494 -0.453221,-0.56486 -0.09995,-0.086 -0.251067,-0.10037 -0.367424,-0.0327 -0.124545,0.0724 -0.219332,0.21057 -0.370114,0.22537 -0.169191,0.0166 -0.319625,-0.0809 -0.477434,-0.12438 -0.161465,-0.0445 -0.324414,-0.0839 -0.484108,-0.13533 -0.323318,-0.10418 -0.629855,-0.26273 -0.894182,-0.47714 -0.285481,-0.23157 -0.546612,-0.49078 -0.826766,-0.72884 -0.108432,-0.0921 -0.222914,-0.17775 -0.351892,-0.24024 -0.278156,-0.13477 -0.597624,-0.19135 -0.843704,-0.38543 -0.113086,-0.0892 -0.203822,-0.20259 -0.294988,-0.31306 -0.30594,-0.37073 -0.580048,-0.77379 -0.954153,-1.082961 -0.180912,-0.149512 -0.394583,-0.253603 -0.616649,-0.326838 -0.247636,-0.08167 -0.499803,-0.148106 -0.746289,-0.23409 C 12.500686,99.054229 11.746455,98.816326 11.066812,98.41918 10.734094,98.224758 10.433577,97.978732 10.167924,97.699662 9.7243612,97.233697 9.3930006,96.676212 9.0965876,96.109148 8.7684638,95.481418 8.4383914,94.85472 8.1118559,94.226151 7.6255572,93.290043 7.1721664,92.331822 6.5917657,91.450396 6.3711119,91.1153 6.081891,90.832341 5.786562,90.563751 5.1769105,90.009298 4.5173599,89.514441 3.8745807,88.999961 3.4857232,88.68872 3.2160928,88.264168 2.9074306,87.880038 2.6352329,87.541288 2.288967,87.271394 1.9237602,87.039789 1.5179319,86.782423 1.0954208,86.552239 0.69886176,86.279659 0.4696128,86.122082 0.22271423,85.979386 0.03857348,85.768014 c -0.07192183,-0.08256 -0.1542535,-0.193402 -0.1167365,-0.306847 0.03899159,-0.117904 0.16058837,-0.178372 0.26848101,-0.220421 0.0182458,-0.0071 0.036673,-0.01375 0.0552275,-0.02001"
       id="path83"
       inkscape:path-effect="#path-effect85"
       inkscape:original-d="m 20.47451,89.990471 c 0.73363,1.127485 1.882384,2.174478 2.669407,3.255531 0.215387,0.295857 0.380084,0.627219 0.603056,0.917403 0.178899,0.232826 0.502046,0.319104 0.665134,0.550439 0.187311,0.265698 0.260379,0.646785 0.496633,0.877518 0.355756,0.34744 1.187036,0.178715 1.321402,0.717965 0.192147,0.771139 -0.07915,1.457812 -0.06208,2.225696 0.0075,0.336045 0.187512,0.622615 0.168499,0.973243 -0.06032,1.112294 -0.683198,1.967704 -1.339139,2.808054 -0.175448,0.22477 -0.340465,0.60815 -0.603053,0.74987 -0.354217,0.19118 -1.164555,0.46028 -1.534246,0.47067 -0.242127,0.007 -0.461065,-0.0778 -0.709477,-0.0319 -0.354174,0.0654 -0.699737,0.33995 -1.073082,0.29516 -0.359699,-0.0431 -0.436486,-0.73489 -0.842506,-0.70999 -0.19553,0.012 -0.316523,0.25282 -0.514369,0.27124 -0.175602,0.0163 -0.364123,-0.10402 -0.532108,-0.1436 -1.250153,-0.29453 -1.38608,-0.72613 -2.270329,-1.42795 -0.327801,-0.26018 -0.873352,-0.30052 -1.161767,-0.60629 -0.432935,-0.45898 -0.738468,-1.02622 -1.26819,-1.396041 C 14.138435,99.543228 13.735478,99.48697 13.344266,99.34872 12.357819,99.000121 11.235245,98.680121 10.435409,97.960652 9.6280432,97.234411 9.2381238,96.367742 8.7415335,95.431813 8.0462659,94.121432 7.3860897,92.770546 6.6219707,91.498953 6.1270104,90.675274 4.5683667,89.589873 3.8106672,88.946182 3.3775303,88.578215 3.0715534,88.009729 2.6577668,87.605977 2.0890113,87.051011 1.3995904,86.767844 0.75991592,86.321616 0.34834168,86.034508 -0.58063288,85.499413 0.24554551,85.220735" />
  </g>
</svg>
