<?xml version="1.0" encoding="UTF-8" standalone="no"?>
<!-- Created with Inkscape (http://www.inkscape.org/) -->

<svg
   width="169.33333mm"
   height="127mm"
   viewBox="0 0 169.33333 127"
   version="1.1"
   id="svg5"
   inkscape:version="1.1.2 (08b2f3d93c, 2022-04-05)"
   sodipodi:docname="CorteTransversal.svg"
   xmlns:inkscape="http://www.inkscape.org/namespaces/inkscape"
   xmlns:sodipodi="http://sodipodi.sourceforge.net/DTD/sodipodi-0.dtd"
   xmlns="http://www.w3.org/2000/svg"
   xmlns:svg="http://www.w3.org/2000/svg">
  <sodipodi:namedview
     id="namedview7"
     pagecolor="#ffffff"
     bordercolor="#666666"
     borderopacity="1.0"
     inkscape:pageshadow="2"
     inkscape:pageopacity="0.0"
     inkscape:pagecheckerboard="0"
     inkscape:document-units="mm"
     showgrid="false"
     inkscape:zoom="1.3404872"
     inkscape:cx="267.06709"
     inkscape:cy="226.41022"
     inkscape:window-width="1366"
     inkscape:window-height="704"
     inkscape:window-x="0"
     inkscape:window-y="27"
     inkscape:window-maximized="1"
     inkscape:current-layer="layer2" />
  <defs
     id="defs2">
    <inkscape:path-effect
       effect="simplify"
       id="path-effect61"
       is_visible="true"
       lpeversion="1"
       steps="1"
       threshold="0.000408163"
       smooth_angles="360"
       helper_size="0"
       simplify_individual_paths="false"
       simplify_just_coalesce="false" />
    <inkscape:path-effect
       effect="simplify"
       id="path-effect57"
       is_visible="true"
       lpeversion="1"
       steps="1"
       threshold="0.000408163"
       smooth_angles="360"
       helper_size="0"
       simplify_individual_paths="false"
       simplify_just_coalesce="false" />
  </defs>
  <g
     inkscape:groupmode="layer"
     id="layer2"
     inkscape:label="Corte Transversal">
    <path
       style="fill:none;stroke:#000000;stroke-width:0.264583px;stroke-linecap:butt;stroke-linejoin:miter;stroke-opacity:1"
       d="m 114.27081,58.583017 c 0.10715,-0.44 0.10003,-0.906303 -0.0221,-1.342958 -0.17044,-0.609442 -0.51781,-1.145688 -0.77672,-1.718074 -0.14526,-0.321131 -0.26171,-0.654126 -0.38837,-0.982797 -0.42778,-1.110027 -0.83843,-2.226477 -1.25915,-3.33932 -0.13531,-0.357907 -0.42698,-0.636348 -0.53042,-1.008715 -0.0511,-0.183876 -0.0545,-0.376082 -0.0752,-0.564756 -0.16708,-1.525441 -0.45713,-3.044523 -0.43794,-4.584331 0.007,-0.571975 0.0158,-1.15454 0.16859,-1.706396 0.0829,-0.29928 0.28926,-0.542629 0.49318,-0.768181 0.20284,-0.22436 0.41284,-0.444783 0.57185,-0.70463 0.29461,-0.481446 0.4672,-1.032077 0.8181,-1.480586 0.42573,-0.544157 1.01633,-0.929091 1.62507,-1.240561 0.82777,-0.423538 1.74591,-0.665833 2.53412,-1.160426 0.24275,-0.152322 0.46381,-0.338738 0.72224,-0.467675 0.10484,-0.05231 0.22529,-0.0241 0.32734,0.02338 0.15983,0.07437 0.3002,0.200291 0.48292,0.219109 0.28777,0.02964 0.57813,-0.0566 0.86477,0.01748 0.8555,0.221103 1.63796,0.651315 2.37981,1.12073 0.38411,0.24305 0.77609,0.47521 1.14434,0.741618 0.41527,0.300428 0.67837,0.772942 1.11599,1.043498 0.26839,0.165929 0.58955,0.202957 0.8956,0.246544 0.28295,0.0403 0.58037,0.05513 0.8387,0.184808 0.28799,0.144569 0.54838,0.337641 0.80319,0.533022 0.72636,0.556952 1.42484,1.1506 2.09211,1.776685 0.30599,0.287103 0.61959,0.568761 0.89112,0.889633 0.52976,0.626033 0.87146,1.385609 1.12501,2.159481 0.37511,1.144913 0.5822,2.346881 1.08405,3.448272 0.28982,0.636055 0.73351,1.18175 1.15127,1.735994 0.38194,0.506724 0.72106,1.050065 0.95565,1.642526 0.0709,0.178957 0.12772,0.363275 0.16115,0.553258 0.11342,0.644606 0.17997,1.296562 0.23493,1.948333 0.072,0.853808 0.15191,1.709889 0.135,2.566957 -0.004,0.227125 0.009,0.45963 -0.048,0.680767 -0.0974,0.379073 -0.37078,0.672933 -0.54679,1.014399 -0.11101,0.215368 -0.16854,0.460925 -0.13969,0.70373 0.0454,0.382145 0.21652,0.73277 0.36943,1.080979 0.15908,0.362256 0.32723,0.733144 0.3562,1.133376 0.0189,0.261823 -0.0548,0.526985 -0.20409,0.743484 -0.23919,0.34699 -0.53983,0.647015 -0.85222,0.927461 -0.52497,0.471292 -1.08529,0.912142 -1.70878,1.244519 -0.30449,0.162321 -0.62471,0.315673 -0.97067,0.359917 -0.14007,0.01791 -0.28153,-0.0069 -0.41295,-0.06068 -0.30329,-0.124047 -0.54744,-0.351771 -0.76432,-0.591877 -0.21665,-0.239852 -0.43019,-0.499008 -0.7277,-0.642801 -0.28513,-0.137809 -0.6134,-0.135346 -0.92062,-0.08912 -0.75125,0.113049 -1.44914,0.429712 -2.17353,0.642967 -0.18168,0.05348 -0.36171,0.121328 -0.55021,0.143228 -0.35007,0.04067 -0.69877,-0.04623 -1.05023,-0.01309 -1.27573,0.120301 -2.52149,0.471247 -3.8062,0.516717 -1.64972,0.05839 -3.30577,-0.65192 -4.40716,-1.879723 -0.43617,-0.486234 -0.80553,-1.046173 -1.00927,-1.667815 -0.16803,-0.512688 -0.18151,-1.05608 -0.21926,-1.589105 -0.0336,-0.473858 -0.15114,-0.935133 -0.24338,-1.399535 -0.0679,-0.34184 -0.11688,-0.690444 -0.0968,-1.039725 z"
       id="path55"
       inkscape:path-effect="#path-effect57"
       inkscape:original-d="m 114.27081,58.583017 c 0.33111,-1.408195 -0.48919,-2.212864 -0.94005,-3.398369 -0.49944,-1.313222 -1.01887,-2.613163 -1.48991,-3.940842 -0.16863,-0.4753 -0.53508,-0.733269 -0.58532,-1.260433 -0.20707,-2.173049 -0.73669,-4.399039 -0.31927,-6.589339 0.0954,-0.500573 0.65546,-0.93609 0.94007,-1.324245 0.37369,-0.509635 0.52687,-1.100248 0.88684,-1.595482 0.96691,-1.330219 2.85437,-1.742377 4.22139,-2.488954 0.15108,-0.08251 0.57077,-0.44005 0.79816,-0.494596 0.22774,-0.05463 0.46679,0.215339 0.67401,0.255278 0.28653,0.05523 0.59914,-0.05593 0.88684,0.01595 1.2976,0.324242 2.39758,1.11882 3.51191,1.834806 0.41526,0.266811 0.73364,0.786109 1.1529,1.068967 0.44066,0.297294 1.17625,0.222141 1.68501,0.41483 0.69475,0.263133 3.14489,2.445898 3.72476,3.079279 1.44989,1.583695 1.47518,3.783295 2.30579,5.679913 0.58877,1.344404 1.69932,2.07958 2.23485,3.717473 0.22368,0.684088 0.56506,4.806963 0.39022,5.48845 -0.12814,0.49947 -0.56652,0.840401 -0.67401,1.372113 -0.19432,0.961245 1.09428,2.133127 0.60306,3.143102 -0.40948,0.841941 -3.03257,2.996478 -3.95533,2.664452 -1.0428,-0.375213 -1.05457,-1.527241 -2.37675,-1.372113 -0.92608,0.108651 -1.81412,0.556749 -2.73148,0.781785 -0.33188,0.08141 -0.73938,-0.02935 -1.08196,0 -1.36057,0.116571 -2.70104,0.526508 -4.0795,0.526508 -2.20056,0 -4.35432,-1.352743 -5.17917,-3.43028 -0.25067,-0.631357 -0.20721,-1.396384 -0.30154,-2.058176 -0.10415,-0.73075 -0.34136,-1.373494 -0.30152,-2.090081 z" />
    <path
       style="fill:none;stroke:#000000;stroke-width:0.264583px;stroke-linecap:butt;stroke-linejoin:miter;stroke-opacity:1"
       d="m 132.22058,44.814018 c -0.12421,-0.701133 -0.24301,-1.416436 -0.16533,-2.13015 0.0669,-0.614847 0.27007,-1.20504 0.37424,-1.812898 0.0682,-0.397728 -0.0127,-0.808744 0.0918,-1.202572 0.0524,-0.19755 0.20284,-0.349151 0.36779,-0.461197 0.21345,-0.144994 0.4416,-0.273164 0.61457,-0.472353 0.51967,-0.598435 1.09151,-1.174619 1.79568,-1.554828 0.57271,-0.30923 1.2192,-0.444813 1.86036,-0.518928 0.72054,-0.08329 1.44473,-0.127965 2.16737,-0.188566 0.5821,-0.04882 1.17373,-0.07969 1.75079,0.0306 0.25885,0.04947 0.51959,0.105488 0.76231,0.20966 0.45934,0.197143 0.81634,0.557483 1.18922,0.878827 0.23179,0.199755 0.52415,0.30133 0.79739,0.428945 0.18862,0.08809 0.37363,0.196261 0.50644,0.361115 0.23585,0.29275 0.35238,0.658345 0.45512,1.014269 0.13187,0.456835 0.21312,0.931416 0.40619,1.368167 0.15615,0.35323 0.42611,0.639506 0.70392,0.900981 0.38597,0.363276 0.81615,0.692357 1.10579,1.144338 0.43456,0.678137 0.67774,1.458163 1.11482,2.135327 0.19677,0.304853 0.46395,0.559027 0.7647,0.760954 0.5651,0.379408 1.23889,0.574982 1.77221,1.003301 0.21069,0.169209 0.39875,0.364515 0.58576,0.55888 0.86117,0.895019 1.61508,1.891512 2.25711,2.955166 1.01742,1.685573 1.96534,3.430342 2.59101,5.303566 0.41604,1.245602 0.6671,2.550806 0.68609,3.866697 0.0176,1.217238 -0.0785,2.432638 -0.0521,3.650319 0.0211,0.972642 0.0613,1.956952 -0.12842,2.91672 -0.12168,0.615433 -0.35334,1.233215 -0.79581,1.691203 -0.22691,0.234867 -0.49563,0.442733 -0.80512,0.548502 -0.27484,0.09393 -0.58114,-0.0063 -0.84861,0.122585 -0.53729,0.258901 -0.91046,0.761334 -1.45768,1.006527 -0.17869,0.08007 -0.37486,0.09982 -0.56796,0.117873 -1.44552,0.135152 -2.89553,0.352544 -4.34954,0.25359 -0.2145,-0.0146 -0.43249,-0.01238 -0.64281,-0.05777 -0.37369,-0.08064 -0.63947,-0.382846 -1.00192,-0.499234 -0.13112,-0.0421 -0.26915,-0.0066 -0.39224,0.04382 -0.11984,0.04913 -0.2445,0.08597 -0.37541,0.09364 -0.49777,0.02916 -0.9981,-0.005 -1.49042,-0.07623 -0.17132,-0.02478 -0.34821,-0.02871 -0.51324,-0.08191 -0.32141,-0.103597 -0.62122,-0.263635 -0.91585,-0.426044 -0.87378,-0.481662 -1.72394,-1.00686 -2.54429,-1.574224 -0.34506,-0.238648 -0.69959,-0.467634 -1.01451,-0.745716 -0.46112,-0.407177 -0.90949,-0.838147 -1.26457,-1.342277 -0.18802,-0.266943 -0.37335,-0.554523 -0.42561,-0.88152 -0.0755,-0.472316 0.005,-0.962389 -0.13625,-1.425607 -0.13873,-0.455951 -0.4335,-0.853972 -0.51582,-1.32934 -0.0772,-0.445738 -0.002,-0.914655 -0.15926,-1.345989 -0.13941,-0.382564 -0.42977,-0.679353 -0.70836,-0.965249 -0.29318,-0.30087 -0.60977,-0.601228 -0.77634,-0.994262 -0.14598,-0.344458 -0.12763,-0.726029 -0.1372,-1.091858 -0.007,-0.260439 -0.05,-0.520328 -0.1461,-0.764195 -0.26546,-0.673513 -0.81138,-1.19295 -1.06918,-1.868946 -0.19564,-0.512992 -0.26838,-1.061606 -0.33666,-1.603156 -0.0963,-0.76362 -0.14381,-1.539432 -0.35368,-2.282806 -0.0669,-0.236889 -0.15052,-0.470765 -0.28066,-0.682017 -0.19751,-0.320603 -0.45666,-0.604408 -0.61406,-0.948152 -0.096,-0.20956 -0.12188,-0.443379 -0.13707,-0.670691 -0.0362,-0.541402 0.003,-1.089116 -0.11204,-1.624904 -0.10473,-0.487221 -0.1936,-0.978387 -0.33733,-1.457173 -0.0289,-0.0964 -0.0864,-0.178609 -0.15147,-0.255458 -0.0621,-0.07334 -0.20432,-0.201953 -0.11516,-0.268687 0.10381,-0.0777 0.22215,-0.135213 0.3354,-0.198348 0.33113,-0.184594 0.67004,-0.355905 0.99487,-0.551526"
       id="path59"
       inkscape:path-effect="#path-effect61"
       inkscape:original-d="m 132.22058,44.814018 c -0.32776,-1.807781 -0.21357,-2.181963 0.1951,-3.877021 0.0952,-0.394769 -0.0199,-0.935384 0.12417,-1.324253 0.155,-0.418296 0.64269,-0.502655 0.92232,-0.829649 1.77428,-2.07483 2.74457,-2.059569 5.32107,-2.265582 1.08215,-0.08652 1.83899,-0.192204 2.87339,0.127638 0.53756,0.166219 0.93577,0.566529 1.348,0.925383 0.35122,0.305744 0.70898,0.355478 1.08196,0.590328 0.76711,0.483023 0.75357,2.075571 1.22384,2.823998 0.42371,0.67433 1.17518,1.090314 1.61406,1.707166 0.53431,0.750977 0.83962,1.904436 1.43669,2.568726 0.69787,0.776419 1.76413,0.9296 2.46544,1.595479 0.93495,0.887709 1.86269,2.038046 2.53637,3.1431 1.65642,2.717053 3.29148,5.81198 3.40549,9.094245 0.0386,1.110419 -0.0532,2.240708 -0.0532,3.350508 0,1.871464 0.36869,4.794113 -1.64954,5.727777 -0.30349,0.140398 -0.61651,0.01011 -0.90459,0.143594 -0.65507,0.30356 -1.09983,1.046655 -1.8801,1.116838 -1.71838,0.154557 -3.34947,0.40575 -5.07277,0.22337 -0.43872,-0.04643 -0.71432,-0.45606 -1.1529,-0.526511 -0.20567,-0.03304 -0.40125,0.121807 -0.60306,0.14359 -0.55283,0.05967 -1.49265,-0.04396 -2.00426,-0.127638 -0.70348,-0.115057 -3.87478,-2.1659 -4.54066,-2.744224 -0.57817,-0.502142 -1.60505,-1.504175 -1.72048,-2.265587 -0.0661,-0.436097 -0.002,-0.873337 -0.10643,-1.308296 -0.11419,-0.476245 -0.43137,-0.878805 -0.5321,-1.372113 -0.0984,-0.481756 -0.003,-1.007131 -0.1951,-1.46784 -0.29286,-0.702521 -1.13376,-1.161502 -1.45443,-1.882666 -0.22045,-0.495787 -0.0673,-1.119555 -0.21285,-1.643348 -0.20911,-0.752399 -0.82566,-1.337292 -1.11743,-2.026262 -0.47756,-1.127683 -0.35355,-3.101858 -0.85136,-4.355663 -0.16457,-0.414472 -0.7068,-0.979495 -0.8159,-1.372113 -0.17373,-0.625205 -0.0269,-1.405755 -0.17738,-2.074125 -0.1019,-0.452572 -0.21506,-1.207267 -0.3902,-1.627391 -0.0627,-0.150331 -0.28717,-0.278058 -0.23059,-0.430784 0.0146,-0.03945 1.12765,-0.61668 1.33027,-0.749874" />
  </g>
</svg>
