<?xml version="1.0" encoding="UTF-8" standalone="no"?>
<!-- Created with Inkscape (http://www.inkscape.org/) -->

<svg
   width="169.33333mm"
   height="127mm"
   viewBox="0 0 169.33333 127"
   version="1.1"
   id="svg5"
   inkscape:version="1.1.2 (08b2f3d93c, 2022-04-05)"
   sodipodi:docname="CorteTransversal.svg"
   xmlns:inkscape="http://www.inkscape.org/namespaces/inkscape"
   xmlns:sodipodi="http://sodipodi.sourceforge.net/DTD/sodipodi-0.dtd"
   xmlns="http://www.w3.org/2000/svg"
   xmlns:svg="http://www.w3.org/2000/svg">
  <sodipodi:namedview
     id="namedview7"
     pagecolor="#ffffff"
     bordercolor="#666666"
     borderopacity="1.0"
     inkscape:pageshadow="2"
     inkscape:pageopacity="0.0"
     inkscape:pagecheckerboard="0"
     inkscape:document-units="mm"
     showgrid="false"
     inkscape:zoom="0.71377024"
     inkscape:cx="126.091"
     inkscape:cy="332.74013"
     inkscape:window-width="1366"
     inkscape:window-height="704"
     inkscape:window-x="0"
     inkscape:window-y="27"
     inkscape:window-maximized="1"
     inkscape:current-layer="layer2" />
  <defs
     id="defs2">
    <inkscape:path-effect
       effect="simplify"
       id="path-effect245"
       is_visible="true"
       lpeversion="1"
       steps="1"
       threshold="0.000408163"
       smooth_angles="360"
       helper_size="0"
       simplify_individual_paths="false"
       simplify_just_coalesce="false" />
    <inkscape:path-effect
       effect="simplify"
       id="path-effect241"
       is_visible="true"
       lpeversion="1"
       steps="1"
       threshold="0.000408163"
       smooth_angles="360"
       helper_size="0"
       simplify_individual_paths="false"
       simplify_just_coalesce="false" />
    <inkscape:path-effect
       effect="simplify"
       id="path-effect237"
       is_visible="true"
       lpeversion="1"
       steps="1"
       threshold="0.000408163"
       smooth_angles="360"
       helper_size="0"
       simplify_individual_paths="false"
       simplify_just_coalesce="false" />
    <inkscape:path-effect
       effect="simplify"
       id="path-effect233"
       is_visible="true"
       lpeversion="1"
       steps="1"
       threshold="0.000408163"
       smooth_angles="360"
       helper_size="0"
       simplify_individual_paths="false"
       simplify_just_coalesce="false" />
    <inkscape:path-effect
       effect="simplify"
       id="path-effect229"
       is_visible="true"
       lpeversion="1"
       steps="1"
       threshold="0.000408163"
       smooth_angles="360"
       helper_size="0"
       simplify_individual_paths="false"
       simplify_just_coalesce="false" />
    <inkscape:path-effect
       effect="simplify"
       id="path-effect225"
       is_visible="true"
       lpeversion="1"
       steps="1"
       threshold="0.000408163"
       smooth_angles="360"
       helper_size="0"
       simplify_individual_paths="false"
       simplify_just_coalesce="false" />
    <inkscape:path-effect
       effect="simplify"
       id="path-effect221"
       is_visible="true"
       lpeversion="1"
       steps="1"
       threshold="0.000408163"
       smooth_angles="360"
       helper_size="0"
       simplify_individual_paths="false"
       simplify_just_coalesce="false" />
    <inkscape:path-effect
       effect="simplify"
       id="path-effect217"
       is_visible="true"
       lpeversion="1"
       steps="1"
       threshold="0.000408163"
       smooth_angles="360"
       helper_size="0"
       simplify_individual_paths="false"
       simplify_just_coalesce="false" />
    <inkscape:path-effect
       effect="simplify"
       id="path-effect213"
       is_visible="true"
       lpeversion="1"
       steps="1"
       threshold="0.000408163"
       smooth_angles="360"
       helper_size="0"
       simplify_individual_paths="false"
       simplify_just_coalesce="false" />
    <inkscape:path-effect
       effect="simplify"
       id="path-effect209"
       is_visible="true"
       lpeversion="1"
       steps="1"
       threshold="0.000408163"
       smooth_angles="360"
       helper_size="0"
       simplify_individual_paths="false"
       simplify_just_coalesce="false" />
    <inkscape:path-effect
       effect="simplify"
       id="path-effect205"
       is_visible="true"
       lpeversion="1"
       steps="1"
       threshold="0.000408163"
       smooth_angles="360"
       helper_size="0"
       simplify_individual_paths="false"
       simplify_just_coalesce="false" />
    <inkscape:path-effect
       effect="simplify"
       id="path-effect201"
       is_visible="true"
       lpeversion="1"
       steps="1"
       threshold="0.000408163"
       smooth_angles="360"
       helper_size="0"
       simplify_individual_paths="false"
       simplify_just_coalesce="false" />
    <inkscape:path-effect
       effect="simplify"
       id="path-effect197"
       is_visible="true"
       lpeversion="1"
       steps="1"
       threshold="0.000408163"
       smooth_angles="360"
       helper_size="0"
       simplify_individual_paths="false"
       simplify_just_coalesce="false" />
    <inkscape:path-effect
       effect="simplify"
       id="path-effect193"
       is_visible="true"
       lpeversion="1"
       steps="1"
       threshold="0.000408163"
       smooth_angles="360"
       helper_size="0"
       simplify_individual_paths="false"
       simplify_just_coalesce="false" />
    <inkscape:path-effect
       effect="simplify"
       id="path-effect189"
       is_visible="true"
       lpeversion="1"
       steps="1"
       threshold="0.000408163"
       smooth_angles="360"
       helper_size="0"
       simplify_individual_paths="false"
       simplify_just_coalesce="false" />
    <inkscape:path-effect
       effect="simplify"
       id="path-effect185"
       is_visible="true"
       lpeversion="1"
       steps="1"
       threshold="0.000408163"
       smooth_angles="360"
       helper_size="0"
       simplify_individual_paths="false"
       simplify_just_coalesce="false" />
    <inkscape:path-effect
       effect="simplify"
       id="path-effect181"
       is_visible="true"
       lpeversion="1"
       steps="1"
       threshold="0.000408163"
       smooth_angles="360"
       helper_size="0"
       simplify_individual_paths="false"
       simplify_just_coalesce="false" />
    <inkscape:path-effect
       effect="simplify"
       id="path-effect177"
       is_visible="true"
       lpeversion="1"
       steps="1"
       threshold="0.000408163"
       smooth_angles="360"
       helper_size="0"
       simplify_individual_paths="false"
       simplify_just_coalesce="false" />
    <inkscape:path-effect
       effect="simplify"
       id="path-effect173"
       is_visible="true"
       lpeversion="1"
       steps="1"
       threshold="0.000408163"
       smooth_angles="360"
       helper_size="0"
       simplify_individual_paths="false"
       simplify_just_coalesce="false" />
    <inkscape:path-effect
       effect="simplify"
       id="path-effect169"
       is_visible="true"
       lpeversion="1"
       steps="1"
       threshold="0.000408163"
       smooth_angles="360"
       helper_size="0"
       simplify_individual_paths="false"
       simplify_just_coalesce="false" />
    <inkscape:path-effect
       effect="simplify"
       id="path-effect165"
       is_visible="true"
       lpeversion="1"
       steps="1"
       threshold="0.000408163"
       smooth_angles="360"
       helper_size="0"
       simplify_individual_paths="false"
       simplify_just_coalesce="false" />
    <inkscape:path-effect
       effect="simplify"
       id="path-effect161"
       is_visible="true"
       lpeversion="1"
       steps="1"
       threshold="0.000408163"
       smooth_angles="360"
       helper_size="0"
       simplify_individual_paths="false"
       simplify_just_coalesce="false" />
    <inkscape:path-effect
       effect="simplify"
       id="path-effect157"
       is_visible="true"
       lpeversion="1"
       steps="1"
       threshold="0.000408163"
       smooth_angles="360"
       helper_size="0"
       simplify_individual_paths="false"
       simplify_just_coalesce="false" />
    <inkscape:path-effect
       effect="simplify"
       id="path-effect153"
       is_visible="true"
       lpeversion="1"
       steps="1"
       threshold="0.000408163"
       smooth_angles="360"
       helper_size="0"
       simplify_individual_paths="false"
       simplify_just_coalesce="false" />
    <inkscape:path-effect
       effect="simplify"
       id="path-effect149"
       is_visible="true"
       lpeversion="1"
       steps="1"
       threshold="0.000408163"
       smooth_angles="360"
       helper_size="0"
       simplify_individual_paths="false"
       simplify_just_coalesce="false" />
    <inkscape:path-effect
       effect="simplify"
       id="path-effect145"
       is_visible="true"
       lpeversion="1"
       steps="1"
       threshold="0.000408163"
       smooth_angles="360"
       helper_size="0"
       simplify_individual_paths="false"
       simplify_just_coalesce="false" />
    <inkscape:path-effect
       effect="simplify"
       id="path-effect141"
       is_visible="true"
       lpeversion="1"
       steps="1"
       threshold="0.000408163"
       smooth_angles="360"
       helper_size="0"
       simplify_individual_paths="false"
       simplify_just_coalesce="false" />
    <inkscape:path-effect
       effect="simplify"
       id="path-effect137"
       is_visible="true"
       lpeversion="1"
       steps="1"
       threshold="0.000408163"
       smooth_angles="360"
       helper_size="0"
       simplify_individual_paths="false"
       simplify_just_coalesce="false" />
    <inkscape:path-effect
       effect="simplify"
       id="path-effect133"
       is_visible="true"
       lpeversion="1"
       steps="1"
       threshold="0.000408163"
       smooth_angles="360"
       helper_size="0"
       simplify_individual_paths="false"
       simplify_just_coalesce="false" />
    <inkscape:path-effect
       effect="simplify"
       id="path-effect129"
       is_visible="true"
       lpeversion="1"
       steps="1"
       threshold="0.000408163"
       smooth_angles="360"
       helper_size="0"
       simplify_individual_paths="false"
       simplify_just_coalesce="false" />
    <inkscape:path-effect
       effect="simplify"
       id="path-effect125"
       is_visible="true"
       lpeversion="1"
       steps="1"
       threshold="0.000408163"
       smooth_angles="360"
       helper_size="0"
       simplify_individual_paths="false"
       simplify_just_coalesce="false" />
    <inkscape:path-effect
       effect="simplify"
       id="path-effect121"
       is_visible="true"
       lpeversion="1"
       steps="1"
       threshold="0.000408163"
       smooth_angles="360"
       helper_size="0"
       simplify_individual_paths="false"
       simplify_just_coalesce="false" />
    <inkscape:path-effect
       effect="simplify"
       id="path-effect117"
       is_visible="true"
       lpeversion="1"
       steps="1"
       threshold="0.000408163"
       smooth_angles="360"
       helper_size="0"
       simplify_individual_paths="false"
       simplify_just_coalesce="false" />
    <inkscape:path-effect
       effect="simplify"
       id="path-effect113"
       is_visible="true"
       lpeversion="1"
       steps="1"
       threshold="0.000408163"
       smooth_angles="360"
       helper_size="0"
       simplify_individual_paths="false"
       simplify_just_coalesce="false" />
    <inkscape:path-effect
       effect="simplify"
       id="path-effect109"
       is_visible="true"
       lpeversion="1"
       steps="1"
       threshold="0.000408163"
       smooth_angles="360"
       helper_size="0"
       simplify_individual_paths="false"
       simplify_just_coalesce="false" />
    <inkscape:path-effect
       effect="simplify"
       id="path-effect105"
       is_visible="true"
       lpeversion="1"
       steps="1"
       threshold="0.000408163"
       smooth_angles="360"
       helper_size="0"
       simplify_individual_paths="false"
       simplify_just_coalesce="false" />
    <inkscape:path-effect
       effect="simplify"
       id="path-effect101"
       is_visible="true"
       lpeversion="1"
       steps="1"
       threshold="0.000408163"
       smooth_angles="360"
       helper_size="0"
       simplify_individual_paths="false"
       simplify_just_coalesce="false" />
    <inkscape:path-effect
       effect="simplify"
       id="path-effect97"
       is_visible="true"
       lpeversion="1"
       steps="1"
       threshold="0.000408163"
       smooth_angles="360"
       helper_size="0"
       simplify_individual_paths="false"
       simplify_just_coalesce="false" />
    <inkscape:path-effect
       effect="simplify"
       id="path-effect93"
       is_visible="true"
       lpeversion="1"
       steps="1"
       threshold="0.000408163"
       smooth_angles="360"
       helper_size="0"
       simplify_individual_paths="false"
       simplify_just_coalesce="false" />
    <inkscape:path-effect
       effect="simplify"
       id="path-effect89"
       is_visible="true"
       lpeversion="1"
       steps="1"
       threshold="0.000408163"
       smooth_angles="360"
       helper_size="0"
       simplify_individual_paths="false"
       simplify_just_coalesce="false" />
    <inkscape:path-effect
       effect="simplify"
       id="path-effect85"
       is_visible="true"
       lpeversion="1"
       steps="1"
       threshold="0.000408163"
       smooth_angles="360"
       helper_size="0"
       simplify_individual_paths="false"
       simplify_just_coalesce="false" />
    <inkscape:path-effect
       effect="simplify"
       id="path-effect81"
       is_visible="true"
       lpeversion="1"
       steps="1"
       threshold="0.000408163"
       smooth_angles="360"
       helper_size="0"
       simplify_individual_paths="false"
       simplify_just_coalesce="false" />
    <inkscape:path-effect
       effect="simplify"
       id="path-effect77"
       is_visible="true"
       lpeversion="1"
       steps="1"
       threshold="0.000408163"
       smooth_angles="360"
       helper_size="0"
       simplify_individual_paths="false"
       simplify_just_coalesce="false" />
    <inkscape:path-effect
       effect="simplify"
       id="path-effect73"
       is_visible="true"
       lpeversion="1"
       steps="1"
       threshold="0.000408163"
       smooth_angles="360"
       helper_size="0"
       simplify_individual_paths="false"
       simplify_just_coalesce="false" />
    <inkscape:path-effect
       effect="simplify"
       id="path-effect69"
       is_visible="true"
       lpeversion="1"
       steps="1"
       threshold="0.000408163"
       smooth_angles="360"
       helper_size="0"
       simplify_individual_paths="false"
       simplify_just_coalesce="false" />
    <inkscape:path-effect
       effect="simplify"
       id="path-effect65"
       is_visible="true"
       lpeversion="1"
       steps="1"
       threshold="0.000408163"
       smooth_angles="360"
       helper_size="0"
       simplify_individual_paths="false"
       simplify_just_coalesce="false" />
    <inkscape:path-effect
       effect="simplify"
       id="path-effect61"
       is_visible="true"
       lpeversion="1"
       steps="1"
       threshold="0.000408163"
       smooth_angles="360"
       helper_size="0"
       simplify_individual_paths="false"
       simplify_just_coalesce="false" />
    <inkscape:path-effect
       effect="simplify"
       id="path-effect57"
       is_visible="true"
       lpeversion="1"
       steps="1"
       threshold="0.000408163"
       smooth_angles="360"
       helper_size="0"
       simplify_individual_paths="false"
       simplify_just_coalesce="false" />
  </defs>
  <g
     inkscape:groupmode="layer"
     id="layer2"
     inkscape:label="Corte Transversal">
    <path
       style="fill:none;stroke:#000000;stroke-width:0.264583px;stroke-linecap:butt;stroke-linejoin:miter;stroke-opacity:1"
       d="m 71.097832,107.78607 c -0.0059,-0.0597 -0.0062,-0.12172 0.01461,-0.17881 0.01478,-0.0406 0.04474,-0.0753 0.08297,-0.0956 0.05171,-0.0275 0.111261,-0.0341 0.168841,-0.0375 0.08273,-0.005 0.166497,5.9e-4 0.248256,-0.0153 0.04601,-0.009 0.104366,-0.0199 0.123861,-0.0637 0.01419,-0.0319 0.01077,-0.0685 0.01075,-0.10272 -3.1e-5,-0.0544 -0.0094,-0.10913 -0.003,-0.16316 0.0047,-0.0398 0.01451,-0.0789 0.02164,-0.1184 0.02117,-0.11733 0.03476,-0.2378 0.01843,-0.35673 -0.01366,-0.0995 -0.05238,-0.19439 -0.106863,-0.2786 -0.04815,-0.0744 -0.115858,-0.13381 -0.187023,-0.18542 -0.123748,-0.0898 -0.260258,-0.16077 -0.401079,-0.2195 -0.181449,-0.0757 -0.370984,-0.13409 -0.565574,-0.16339 -0.12837,-0.0193 -0.259953,-0.0282 -0.388713,-0.008 -0.08907,0.014 -0.178218,0.0433 -0.249598,0.10017 -0.05566,0.0443 -0.09537,0.10716 -0.114194,0.17565 -0.02566,0.0934 -0.01837,0.19254 0.002,0.28611 0.02986,0.13741 0.08284,0.26907 0.148059,0.39313 0.03518,0.0669 0.09475,0.11725 0.158484,0.1559 0.09846,0.0597 0.2074,0.0986 0.312967,0.14341 0.08175,0.0347 0.165886,0.0692 0.234646,0.12632 0.09347,0.0777 0.18499,0.15844 0.266368,0.24886 0.05298,0.0589 0.100569,0.12292 0.137912,0.19328 0.0156,0.0294 0.01525,0.0671 0.03719,0.0921 0.0221,0.0251 0.05922,0.0237 0.0898,0.0255 0.08982,0.005 0.179772,0.008 0.269609,0.0134 0.09233,0.005 0.185485,0.004 0.276827,0.0188 0.02522,0.004 0.06496,-0.004 0.0745,0.021 0.0056,0.0148 -0.01346,0.0236 -0.02412,0.0286 -0.03249,0.0155 -0.135754,0.0443 -0.10421,0.0343 0.05025,-0.0159 0.101566,-0.0281 0.152704,-0.0408 0.0071,-0.002 0.01416,-0.003 0.02124,-0.005"
       id="path55"
       inkscape:path-effect="#path-effect57"
       inkscape:original-d="m 71.097832,107.78607 c -0.0516,-0.49386 0.475573,-0.20242 0.63853,-0.39089 0.02185,-0.0253 0.0026,-0.24876 0.0089,-0.27921 0.05461,-0.26668 0.09396,-0.50958 -0.07982,-0.75785 -0.355503,-0.50788 -2.513479,-1.13562 -1.747087,0.39089 0.117031,0.23311 0.519796,0.27248 0.718347,0.43876 0.820248,0.68694 -0.03056,0.50048 1.046475,0.58235 0.33262,0.0253 -0.328735,0.15534 0.141896,0.0399" />
    <path
       style="fill:none;stroke:#000000;stroke-width:0.264583px;stroke-linecap:butt;stroke-linejoin:miter;stroke-opacity:1"
       d="m 80.09932,106.00711 c -0.06263,-0.10344 -0.136118,-0.20235 -0.230171,-0.27947 -0.06844,-0.0561 -0.149327,-0.0966 -0.235213,-0.11838 -0.122543,-0.031 -0.249875,-0.0251 -0.374821,-0.0368 -0.09098,-0.008 -0.178921,-0.0357 -0.263367,-0.0718 -0.02098,-0.009 -0.03881,-0.0237 -0.04879,-0.045 -0.02079,-0.0445 -0.03106,-0.093 -0.04027,-0.14097 -0.02153,-0.11216 -0.039,-0.2252 -0.0489,-0.33889 -0.0039,-0.0446 -0.02446,-0.0846 -0.04148,-0.12523 -0.03927,-0.0936 -0.07761,-0.18895 -0.09514,-0.28934 -0.0087,-0.0498 -0.01364,-0.10202 -4.88e-4,-0.15157 0.0085,-0.0321 0.0289,-0.0617 0.05866,-0.0775 0.03939,-0.0209 0.0868,-0.0249 0.129289,-0.0153 0.04469,0.0101 0.07376,0.0491 0.100899,0.0826 0.02185,0.027 0.04999,0.0474 0.08261,0.061 0.126278,0.0528 0.256086,0.097 0.387964,0.13374 0.11262,0.0314 0.227367,0.0583 0.333879,0.10779 0.126195,0.0587 0.238745,0.14223 0.345364,0.23072 0.04832,0.0401 0.09672,0.0802 0.142171,0.12353 0.06377,0.0608 0.108652,0.13835 0.143887,0.2183 0.0541,0.12274 0.08894,0.25293 0.11757,0.38366 0.03706,0.1692 0.05953,0.34109 0.08955,0.51158 0.01107,0.0629 0.02034,0.12653 0.04042,0.18729 0.0028,0.008 0.0058,0.0168 0.0094,0.0249"
       id="path59"
       inkscape:path-effect="#path-effect61"
       inkscape:original-d="m 80.09932,106.00711 c -0.382347,-0.63447 -0.737852,-0.30015 -1.126295,-0.51853 -0.07552,-0.0425 -0.100861,-0.47669 -0.124155,-0.55842 -0.01865,-0.0654 -0.328496,-0.65718 0.05321,-0.61426 0.0709,0.008 0.108355,0.11016 0.168503,0.13562 0.619921,0.26242 0.657119,0.0885 1.223846,0.5983 0.304617,0.27402 0.325196,1.14613 0.407948,1.33223" />
    <path
       style="fill:none;stroke:#000000;stroke-width:0.264583px;stroke-linecap:butt;stroke-linejoin:miter;stroke-opacity:1"
       d="m 96.71882,106.90856 c 0.128513,-0.0598 0.256843,-0.12003 0.38671,-0.17685 0.108477,-0.0475 0.217073,-0.0951 0.328945,-0.13409 0.04863,-0.0169 0.09817,-0.0325 0.149631,-0.0382 0.09558,-0.0105 0.193342,0.009 0.287615,-0.01 0.04183,-0.009 0.07743,-0.0346 0.110603,-0.0601 0.07131,-0.0547 0.136033,-0.11782 0.194723,-0.18578 0.05405,-0.0626 0.105852,-0.12844 0.142507,-0.20285 0.01813,-0.0368 0.03303,-0.0762 0.03551,-0.11771 0.002,-0.0336 -0.0164,-0.0657 -0.04578,-0.0833 -0.07654,-0.0461 -0.164928,-0.0687 -0.252978,-0.0791 -0.129106,-0.0152 -0.259973,-0.008 -0.388196,0.0116 -0.18236,0.0272 -0.361396,0.0757 -0.533423,0.14174 -0.13455,0.0517 -0.266432,0.11234 -0.38738,0.19106 -0.06983,0.0455 -0.13796,0.0956 -0.192312,0.15925 -0.03226,0.0378 -0.0597,0.0812 -0.0704,0.13053 -0.01078,0.0497 0.01073,0.0981 0.03169,0.1418 0.05388,0.11238 0.138636,0.20568 0.202536,0.31195 z"
       id="path63"
       inkscape:path-effect="#path-effect65"
       inkscape:original-d="m 96.71882,106.90856 c 0.06409,-0.0288 0.648089,-0.30897 0.82477,-0.34303 0.107526,-0.0207 0.219517,-0.002 0.328131,-0.016 0.13087,-0.0168 0.62598,-0.53121 0.443428,-0.64617 -0.496964,-0.31293 -1.940393,0.25594 -1.826908,0.62224 0.04409,0.14232 0.15372,0.25528 0.230579,0.38292 z" />
    <path
       style="fill:none;stroke:#000000;stroke-width:0.264583px;stroke-linecap:butt;stroke-linejoin:miter;stroke-opacity:1"
       d="m 100.44357,106.1507 c -0.0997,-0.0168 -0.19798,-0.0409 -0.29562,-0.0672 -0.0467,-0.0126 -0.0933,-0.0279 -0.14186,-0.031 -0.04755,-0.003 -0.09359,0.0138 -0.135425,0.0348 -0.04046,0.0204 -0.08009,0.0426 -0.11745,0.0682 -0.05141,0.0352 -0.09806,0.0769 -0.142688,0.12017 -0.09006,0.0873 -0.173635,0.18213 -0.24277,0.28696 -0.04889,0.0741 -0.09211,0.15343 -0.115016,0.2397 -0.01709,0.0644 -0.02179,0.13499 0.0032,0.19784 0.02014,0.0507 0.05467,0.0996 0.103934,0.12384 0.04065,0.02 0.08591,0.0282 0.130531,0.0333 0.0973,0.0111 0.19554,0.009 0.293151,0.004 0.171367,-0.009 0.342129,-0.0286 0.511639,-0.0549 0.0599,-0.009 0.12001,-0.0178 0.17936,-0.0303 0.0692,-0.0145 0.13728,-0.038 0.19701,-0.0766 0.065,-0.0419 0.121,-0.0958 0.1779,-0.14778 0.0498,-0.0455 0.10174,-0.0886 0.15286,-0.13263 0.0838,-0.0722 0.16788,-0.14475 0.24207,-0.22694 0.0349,-0.0387 0.0686,-0.0794 0.0928,-0.12588 0.0167,-0.0319 0.0251,-0.0761 -0.003,-0.10452 -0.0315,-0.0316 -0.077,-0.0429 -0.11929,-0.0511 -0.0793,-0.0154 -0.16009,-0.021 -0.2406,-0.0257 -0.16437,-0.01 -0.32895,-0.0164 -0.49299,-0.0311 -0.0125,-0.001 -0.0251,-0.002 -0.0376,-0.003 z"
       id="path67"
       inkscape:path-effect="#path-effect69"
       inkscape:original-d="m 100.44357,106.1507 c -0.460964,-0.0786 -0.40226,-0.17528 -0.682862,0 -0.152982,0.0956 -0.752991,0.6839 -0.425688,0.9573 0.149704,0.12504 0.89464,0.0121 1.09969,-0.0239 0.25438,-0.0447 0.29145,-0.13225 0.52324,-0.32707 0.78217,-0.65745 0.29198,-0.52993 -0.51438,-0.60629 z" />
    <path
       style="fill:none;stroke:#000000;stroke-width:0.264583px;stroke-linecap:butt;stroke-linejoin:miter;stroke-opacity:1"
       d="m 78.813397,97.503196 c -0.05481,-0.125828 -0.129409,-0.242443 -0.215135,-0.349315 -0.105583,-0.131628 -0.227869,-0.250962 -0.367689,-0.345858 -0.107437,-0.07292 -0.226172,-0.132188 -0.353789,-0.159521 -0.100274,-0.02148 -0.206335,-0.0196 -0.304439,0.01192 -0.10079,0.03239 -0.189347,0.09602 -0.260375,0.17368 -0.04867,0.05321 -0.0941,0.110602 -0.126204,0.17512 -0.02284,0.04591 -0.02515,0.09898 -0.01986,0.149078 0.0068,0.06482 0.02697,0.127535 0.05348,0.186957 0.05971,0.133807 0.13138,0.263688 0.226081,0.376159 0.07484,0.08889 0.166008,0.164806 0.270126,0.217169 0.107318,0.05397 0.226757,0.08067 0.346288,0.08742 0.11701,0.0066 0.234112,-0.0063 0.349456,-0.02562 0.266471,-0.04463 0.531581,-0.09875 0.792265,-0.170108"
       id="path71"
       inkscape:path-effect="#path-effect73"
       inkscape:original-d="m 78.813397,97.503196 c -0.245867,-0.569183 -1.13352,-1.334148 -1.622928,-0.502574 -0.05292,0.08992 -0.01691,0.238819 0.01773,0.319096 0.23716,0.549732 0.569238,0.785016 1.170641,0.686056 0.277347,-0.04564 0.553662,-0.101285 0.824762,-0.175503" />
    <path
       style="fill:none;stroke:#000000;stroke-width:0.264583px;stroke-linecap:butt;stroke-linejoin:miter;stroke-opacity:1"
       d="m 82.431728,122.44057 c 0.04548,-0.21345 0.05889,-0.43533 0.02496,-0.65145 -0.02454,-0.15625 -0.07432,-0.31038 -0.15982,-0.44432 -0.06786,-0.10631 -0.160827,-0.19755 -0.272364,-0.25752 -0.107334,-0.0577 -0.230008,-0.0835 -0.35143,-0.0824 -0.157777,0.001 -0.312224,0.0448 -0.457113,0.10506 -0.08079,0.0336 -0.1579,0.075 -0.235642,0.11493 -0.08366,0.043 -0.168675,0.0855 -0.242217,0.14489 -0.05461,0.0441 -0.09957,0.10007 -0.130127,0.16335 -0.03829,0.0793 -0.05768,0.16642 -0.06718,0.25346 -0.01561,0.14297 0.01212,0.28825 0.06618,0.42064 0.06141,0.15038 0.154841,0.28811 0.273885,0.39869 0.08771,0.0815 0.190414,0.1495 0.305405,0.18531 0.08774,0.0273 0.183507,0.0322 0.272346,0.006 0.08772,-0.0255 0.164153,-0.0813 0.223919,-0.14948 0.04426,-0.0505 0.0804,-0.10772 0.110664,-0.16756"
       id="path75"
       inkscape:path-effect="#path-effect77"
       inkscape:original-d="m 82.431728,122.44057 c 0.201078,-0.93924 -0.298419,-1.81127 -1.34801,-1.26841 -0.309145,0.1599 -0.490165,0.21747 -0.54097,0.59831 -0.09133,0.68457 0.840039,1.52217 1.25045,0.70999" />
    <path
       style="fill:none;stroke:#000000;stroke-width:0.264583px;stroke-linecap:butt;stroke-linejoin:miter;stroke-opacity:1"
       d="m 89.898976,125.94265 c 0.045,-0.034 0.09317,-0.0655 0.147588,-0.0825 0.03877,-0.0121 0.08493,-0.006 0.113594,0.0253 0.03188,0.0345 0.04595,0.0812 0.05512,0.12617 0.02069,0.10147 0.02185,0.20544 0.03084,0.30829 0.0053,0.061 0.01196,0.12229 0.02935,0.18137 0.01095,0.0372 0.04095,0.0667 0.08507,0.071 0.0092,8.9e-4 0.01594,-0.009 0.0092,-0.0172 -0.0317,-0.0373 -0.07527,-0.0621 -0.115614,-0.0889 -0.05605,-0.0372 -0.111667,-0.0751 -0.167269,-0.11308 -0.03639,-0.0249 -0.051,-0.0688 -0.0614,-0.10955 -0.0179,-0.07 -0.02018,-0.14346 -0.04358,-0.21216 -0.01208,-0.0355 -0.03767,-0.0646 -0.07097,-0.0846 -0.01534,-0.009 -0.03244,4.1e-4 -0.04806,0.004 -0.107469,0.0247 -0.212294,0.0591 -0.317636,0.0914 -0.08714,0.0267 -0.177234,0.0495 -0.269151,0.0463 -0.07399,-0.003 -0.147709,-0.0186 -0.215617,-0.0475 -0.09393,-0.04 -0.187133,-0.0817 -0.28153,-0.12059 -0.184283,-0.0759 -0.370862,-0.1481 -0.563893,-0.19852 -0.103068,-0.0269 -0.208175,-0.051 -0.315044,-0.0529 -0.05739,-0.001 -0.116231,0.004 -0.169444,0.028 -0.04983,0.0221 -0.08345,0.0724 -0.08832,0.12659 -0.0052,0.0578 0.01302,0.11489 0.03706,0.16662 0.04307,0.0927 0.103722,0.17587 0.167743,0.255 0.06546,0.0809 0.133554,0.15988 0.207274,0.23325 0.05741,0.0571 0.119761,0.10905 0.182532,0.16014 0.198208,0.16131 0.403586,0.31385 0.615114,0.4572 0.19532,0.13237 0.394665,0.25996 0.605371,0.36653 0.11618,0.0588 0.235082,0.11492 0.361434,0.14774 0.06498,0.0169 0.132731,0.0281 0.200141,0.0205 0.03963,-0.004 0.0752,-0.0238 0.107926,-0.0456 0.08062,-0.0536 0.154899,-0.11595 0.228133,-0.17905 0.08893,-0.0766 0.175317,-0.15612 0.262385,-0.23483"
       id="path79"
       inkscape:path-effect="#path-effect81"
       inkscape:original-d="m 89.898976,125.94265 c 0.505841,-0.38842 0.227187,0.63022 0.452292,0.63022 0.113593,0 -0.254339,-0.18836 -0.292664,-0.2473 -0.07538,-0.11593 -0.02694,-0.344 -0.159628,-0.38292 -0.393735,0.0862 -0.520563,0.21316 -0.82477,0.10371 -0.113128,-0.0407 -1.332315,-0.63387 -1.427821,-0.2473 -0.0505,0.20442 0.285884,0.54584 0.399081,0.6701 0.167608,0.18399 1.65858,1.34369 2.039744,1.14077 0.136189,-0.0725 0.405705,-0.32505 0.532109,-0.43876" />
    <path
       style="fill:none;stroke:#000000;stroke-width:0.264583px;stroke-linecap:butt;stroke-linejoin:miter;stroke-opacity:1"
       d="M 61.670654,60.007798 C 61.499527,59.899667 61.321936,59.8 61.13336,59.725584 c -0.125254,-0.04943 -0.255689,-0.089 -0.390109,-0.102425 -0.102186,-0.01021 -0.207032,-0.0026 -0.304627,0.03144 -0.144168,0.05023 -0.276249,0.133593 -0.425731,0.167889 -0.0355,0.0081 -0.07327,0.02824 -0.108145,0.01728 -0.04074,-0.0128 -0.06722,-0.04955 -0.09716,-0.07773 -0.02837,-0.0267 -0.06325,-0.05121 -0.104882,-0.04962 -0.06102,0.0023 -0.119799,0.02329 -0.173571,0.05101 -0.07496,0.03865 -0.144223,0.09029 -0.197727,0.155754 -0.03624,0.04434 -0.06635,0.09634 -0.07335,0.15407 -0.0066,0.05432 0.01321,0.107934 0.04041,0.154017 0.04153,0.07037 0.09906,0.129868 0.160564,0.182962 0.105789,0.09133 0.224052,0.167337 0.346989,0.2333 0.14738,0.07908 0.301619,0.146504 0.462248,0.193484 0.09251,0.02706 0.18731,0.05002 0.283914,0.05366 0.05395,0.002 0.111189,0.0025 0.160097,-0.02205 0.04331,-0.0217 0.08041,-0.05397 0.116231,-0.08614 0.09979,-0.08962 0.184392,-0.19674 0.245678,-0.316127 0.0517,-0.100713 0.08719,-0.211581 0.08992,-0.32549 0.0022,-0.09207 -0.02132,-0.18522 -0.07117,-0.263104 -0.0303,-0.04733 -0.06744,-0.09139 -0.113403,-0.123663 -0.04139,-0.02906 -0.09036,-0.04491 -0.138928,-0.05701 -0.103407,-0.02577 -0.209765,-0.03663 -0.315708,-0.04596 -0.06332,-0.0056 -0.128117,-9.22e-4 -0.190109,-0.01502 -0.0089,-0.002 -0.03567,-0.0032 -0.02663,-0.0076 0.02486,-0.01212 0.0538,-0.01404 0.08104,-0.0178 0.04831,-0.0067 0.09748,-0.0058 0.145685,0.0017 0.03877,0.006 0.0772,0.01406 0.115916,0.02047"
       id="path83"
       inkscape:path-effect="#path-effect85"
       inkscape:original-d="m 61.670654,60.007798 c -0.281673,-0.178361 -0.828455,-0.486471 -1.214977,-0.358984 -0.182496,0.06019 -0.345464,0.171164 -0.540975,0.191458 -0.05221,0.0054 -0.118536,-0.123587 -0.195109,-0.127638 -0.176083,-0.0093 -0.488363,0.211072 -0.461158,0.406845 0.05416,0.389781 1.218411,0.918482 1.481034,0.733925 0.336561,-0.236522 0.621792,-0.784953 0.248314,-1.092907 -0.168315,-0.138789 -0.853239,-0.104965 -0.638527,-0.143592 0.130181,-0.02341 0.176745,-0.0051 0.301527,0.01595" />
    <path
       style="fill:none;stroke:#000000;stroke-width:0.264583px;stroke-linecap:butt;stroke-linejoin:miter;stroke-opacity:1"
       d="m 72.880394,71.894133 c -0.07257,-0.111684 -0.164235,-0.213279 -0.277889,-0.284319 -0.09412,-0.05883 -0.203895,-0.09254 -0.315056,-0.09506 -0.130644,-0.003 -0.259839,0.0364 -0.372614,0.100942 -0.147516,0.08443 -0.270432,0.209132 -0.359228,0.35353 -0.09045,0.147093 -0.145806,0.317485 -0.148326,0.490862 -0.0019,0.13417 0.03063,0.268793 0.09507,0.386595 0.03503,0.06403 0.07714,0.124781 0.128681,0.17649 0.06461,0.06482 0.143132,0.114314 0.225791,0.152681 0.102193,0.04743 0.211815,0.08046 0.324113,0.09125 0.08127,0.0078 0.165216,0.0047 0.242797,-0.02278 0.05609,-0.01987 0.107332,-0.05612 0.139873,-0.106644 0.03501,-0.05435 0.04593,-0.120557 0.04379,-0.18428 -3.39e-4,-0.01008 -9.93e-4,-0.02015 -0.0019,-0.03019"
       id="path87"
       inkscape:path-effect="#path-effect89"
       inkscape:original-d="m 72.880394,71.894133 c -0.676961,-1.041445 -1.976073,0.305337 -1.268193,1.108863 0.255624,0.290161 1.042233,0.448805 0.993272,-0.07978" />
    <path
       style="fill:none;stroke:#000000;stroke-width:0.264583px;stroke-linecap:butt;stroke-linejoin:miter;stroke-opacity:1"
       d="m 13.945235,47.491247 c -0.08519,-0.03003 -0.176414,-0.04856 -0.267033,-0.03903 -0.07047,0.0074 -0.138616,0.03546 -0.193406,0.0806 -0.06639,0.0547 -0.112337,0.130387 -0.143187,0.209827 -0.04178,0.107582 -0.06035,0.222926 -0.06584,0.337761 -0.0075,0.156762 0.0068,0.314548 0.04159,0.467499 0.02523,0.111015 0.05931,0.221092 0.113223,0.321689 0.03084,0.05754 0.06846,0.112499 0.117887,0.15593 0.03003,0.02639 0.06742,0.04203 0.105289,0.05366 0.100982,0.031 0.210267,0.02786 0.311797,0.0011 0.134657,-0.03555 0.257763,-0.109092 0.35874,-0.20427 0.112994,-0.106504 0.200061,-0.242467 0.240535,-0.393039 0.0302,-0.112353 0.03119,-0.23241 0.002,-0.345176 -0.03234,-0.124962 -0.1012,-0.238208 -0.187779,-0.333037 -0.109696,-0.120148 -0.24543,-0.21377 -0.388393,-0.289965 -0.01504,-0.008 -0.03019,-0.01585 -0.04542,-0.02349 z"
       id="path91"
       inkscape:path-effect="#path-effect93"
       inkscape:original-d="m 13.945235,47.491247 c -0.933299,-0.330202 -0.740827,1.403213 -0.337001,1.571546 0.639067,0.266396 1.656322,-0.909169 0.337001,-1.571546 z" />
    <path
       style="fill:none;stroke:#000000;stroke-width:0.264583px;stroke-linecap:butt;stroke-linejoin:miter;stroke-opacity:1"
       d="m 2.0792325,55.699998 c -0.1107944,-0.06461 -0.2193533,-0.133063 -0.3313358,-0.195614 -0.068996,-0.03854 -0.1389783,-0.07659 -0.2142192,-0.101528 -0.054462,-0.01805 -0.1136213,-0.02806 -0.1704849,-0.0153 -0.052396,0.01176 -0.098046,0.04366 -0.1345919,0.08208 -0.050716,0.05332 -0.089503,0.116607 -0.1234148,0.181511 -0.03967,0.07593 -0.075331,0.154062 -0.1049196,0.234462 -0.0329974,0.08966 -0.0597647,0.182721 -0.0666884,0.278384 -0.005377,0.07429 0.003093,0.151264 0.0361574,0.2189 0.0282718,0.05783 0.075458,0.104973 0.13026912,0.138075 0.072071,0.04353 0.1543892,0.06665 0.2368983,0.08016 0.1099521,0.01799 0.2217793,0.01583 0.3329704,0.01613 0.1204916,3.25e-4 0.2412004,-2.35e-4 0.361272,-0.01121 0.072693,-0.0066 0.1460589,-0.0141 0.2160685,-0.03536 0.038935,-0.01183 0.080015,-0.02557 0.1084107,-0.05618 0.021984,-0.0237 0.020636,-0.05835 0.020589,-0.08828 -1.129e-4,-0.07189 -0.014599,-0.143018 -0.034612,-0.211766 -0.035046,-0.120384 -0.08598,-0.235876 -0.147658,-0.34488 -0.061706,-0.109054 -0.1332457,-0.213445 -0.2204668,-0.303705 -0.056885,-0.05887 -0.1203897,-0.113055 -0.1942419,-0.149396 -0.052979,-0.02607 -0.1127533,-0.04133 -0.1721024,-0.03475 -0.055818,0.0062 -0.1075173,0.03349 -0.148692,0.07097"
       id="path95"
       inkscape:path-effect="#path-effect97"
       inkscape:original-d="m 2.0792325,55.699998 c -0.5863675,-0.34353 -0.7641576,-0.523245 -1.0287423,0.06382 -0.27041152,0.599993 -0.0823796,0.877917 0.6119242,0.853583 0.062454,-0.0021 0.6843351,0.01704 0.7094781,-0.135618 0.060308,-0.366178 -0.5235367,-1.379823 -0.9134523,-1.029086" />
    <path
       style="fill:none;stroke:#000000;stroke-width:0.264583px;stroke-linecap:butt;stroke-linejoin:miter;stroke-opacity:1"
       d="m 5.626618,43.997144 c -0.096145,0.01226 -0.1928137,0.03606 -0.2769598,0.08574 -0.061714,0.03644 -0.1139874,0.08995 -0.1448688,0.155096 -0.034755,0.07331 -0.041418,0.157021 -0.031719,0.236732 0.013324,0.109505 0.052696,0.214332 0.1032686,0.311741 0.069938,0.134709 0.160184,0.258721 0.2652172,0.368108 0.07778,0.081 0.162954,0.156388 0.2601757,0.213176 0.056477,0.03299 0.117416,0.06118 0.1827172,0.07038 0.044664,0.0063 0.091825,-3.7e-4 0.1312972,-0.0238 0.035877,-0.0213 0.056388,-0.05904 0.073084,-0.09585 0.033736,-0.07438 0.060295,-0.151769 0.085246,-0.229447 0.025344,-0.0789 0.051367,-0.157749 0.070887,-0.238298 0.032696,-0.134922 0.062634,-0.271925 0.064551,-0.411334 9.912e-4,-0.07208 -0.00748,-0.14441 -0.027473,-0.21383 -0.04265,-0.1481 -0.117437,-0.285727 -0.2104773,-0.408034 -0.086555,-0.113781 -0.1893534,-0.215458 -0.3054962,-0.299029 -0.047271,-0.03401 -0.1075542,-0.04158 -0.1644142,-0.03998 -0.064359,0.0018 -0.1275575,0.0159 -0.1917907,0.01926 -0.037891,0.002 -0.084402,-0.0041 -0.1045475,-0.04133 -0.00435,-0.008 -0.00729,-0.01679 -0.00928,-0.0257"
       id="path99"
       inkscape:path-effect="#path-effect101"
       inkscape:original-d="m 5.626618,43.997144 c -1.1497961,0.143814 0.1896882,1.759543 0.5232387,1.388065 0.068383,-0.07616 0.1880563,-0.505447 0.1951061,-0.534485 0.044042,-0.181406 0.093137,-0.407064 0.044344,-0.598305 -0.07317,-0.286782 -0.2864072,-0.565473 -0.52324,-0.733922 -0.1618131,-0.115089 -0.434985,0.06987 -0.4700283,-0.08775" />
    <path
       style="fill:none;stroke:#000000;stroke-width:0.264583px;stroke-linecap:butt;stroke-linejoin:miter;stroke-opacity:1"
       d="m 9.0764499,41.228981 c -0.2278603,0.0664 -0.4485791,0.15995 -0.6504212,0.28521 -0.1698162,0.105385 -0.3271966,0.233855 -0.4523729,0.39046 -0.1027724,0.128576 -0.1811295,0.277827 -0.2204634,0.438182 -0.037479,0.152795 -0.037391,0.313773 -0.0055,0.467504 0.018844,0.09083 0.045576,0.180366 0.083471,0.265074 0.031948,0.07141 0.071309,0.141544 0.1288862,0.195572 0.038014,0.03567 0.086725,0.0612 0.1392857,0.06604 0.05609,0.0052 0.1113275,-0.0148 0.1585109,-0.04379 0.078406,-0.04817 0.1432838,-0.1142 0.2111418,-0.175513 0.036444,-0.03293 0.076409,-0.06156 0.1168563,-0.08932 0.1035081,-0.07104 0.2136721,-0.131594 0.3193755,-0.199171 0.078167,-0.04997 0.1555552,-0.104323 0.2149198,-0.176622 0.046338,-0.05643 0.076644,-0.12537 0.088297,-0.197461 0.014397,-0.08907 0.00265,-0.179746 -0.015301,-0.267423 -0.016402,-0.08013 -0.039081,-0.160879 -0.084532,-0.229939 -0.047849,-0.0727 -0.1185365,-0.12614 -0.1911219,-0.172494 -0.038148,-0.02436 -0.083311,-0.03395 -0.1268367,-0.04371 -0.1126915,-0.02529 -0.2270676,-0.0424 -0.341644,-0.05637 -0.1475809,-0.018 -0.2958093,-0.03301 -0.4445098,-0.03586 -0.062196,-0.0012 -0.1253268,-0.0054 -0.1865137,0.0066 -0.022404,0.0044 -0.05343,0.0028 -0.065024,0.02408 -0.00913,0.01674 0.00988,0.03148 0.021943,0.03981 0.036735,0.02535 0.078215,0.04268 0.119464,0.05915 0.0214,0.0085 0.042981,0.01662 0.06466,0.02443"
       id="path103"
       inkscape:path-effect="#path-effect105"
       inkscape:original-d="m 9.0764499,41.228981 c -0.7600545,0.220432 -1.5583357,0.802147 -1.3036645,1.683234 0.040805,0.141173 0.1349391,0.394107 0.3103962,0.422801 C 8.2566718,43.36339 8.39305,43.166834 8.5354752,43.063787 8.9276818,42.780013 9.2926177,42.722731 9.2006096,42.226158 9.1614944,42.015052 9.113871,41.905007 8.9079482,41.779422 8.7500919,41.683154 7.198258,41.529627 7.9590248,41.803367" />
    <path
       style="fill:none;stroke:#000000;stroke-width:0.264583px;stroke-linecap:butt;stroke-linejoin:miter;stroke-opacity:1"
       d="m 9.0055019,39.210697 c -0.1218273,-0.03285 -0.2516006,-0.04293 -0.3756453,-0.01576 -0.1061462,0.02325 -0.2052314,0.07619 -0.2845862,0.150382 -0.1029796,0.09628 -0.1724533,0.224937 -0.20759,0.360706 -0.039339,0.152007 -0.038255,0.315396 0.0094,0.465436 0.03605,0.113499 0.101909,0.218412 0.1934971,0.295392 0.081514,0.06851 0.1824741,0.111693 0.2869751,0.130182 0.097755,0.01729 0.1985397,0.0162 0.2961053,-7.12e-4 0.1053511,-0.01826 0.2041985,-0.06406 0.293459,-0.121789 0.124384,-0.08045 0.2338829,-0.18318 0.325343,-0.299433 0.080521,-0.102348 0.1493604,-0.215447 0.1920297,-0.338879 0.029485,-0.08529 0.046634,-0.176644 0.036455,-0.267022 -0.00782,-0.06942 -0.035322,-0.136849 -0.080774,-0.190279 -0.053573,-0.06298 -0.1283697,-0.104329 -0.2061334,-0.129718 -0.1087045,-0.03549 -0.2240438,-0.04535 -0.3378171,-0.04467 -0.046963,2.83e-4 -0.093903,0.0025 -0.1407197,0.0062 z"
       id="path107"
       inkscape:path-effect="#path-effect109"
       inkscape:original-d="m 9.0055019,39.210697 c -1.0936428,-0.293328 -1.2553662,1.550802 -0.097554,1.38807 0.6690479,-0.09404 1.5100071,-1.49855 0.097554,-1.38807 z" />
    <path
       style="fill:none;stroke:#000000;stroke-width:0.264583px;stroke-linecap:butt;stroke-linejoin:miter;stroke-opacity:1"
       d="m 57.702383,16.473969 c 0.03022,-0.04255 0.06936,-0.07761 0.107938,-0.112372 0.0515,-0.0464 0.107433,-0.08873 0.151796,-0.142209 0.0243,-0.02929 0.0586,-0.06649 0.04531,-0.106293 -0.0097,-0.02914 -0.0399,-0.05394 -0.07034,-0.05235 -0.038,0.002 -0.06058,0.03906 -0.07609,0.0692 -0.029,0.05635 -0.04821,0.116945 -0.07088,0.17596 -0.01893,0.0493 -0.03692,0.100051 -0.06791,0.143147 -0.02262,0.03145 -0.05108,0.05807 -0.07817,0.08559 -0.134088,0.136241 -0.276537,0.264567 -0.402024,0.40902 -0.05672,0.06529 -0.111757,0.133186 -0.152168,0.209976 -0.0265,0.05035 -0.04732,0.105832 -0.0466,0.163578 5.87e-4,0.04723 0.02119,0.09283 0.05365,0.126837 0.04066,0.04259 0.09383,0.07033 0.146679,0.09455 0.130734,0.05992 0.277269,0.08133 0.420165,0.07011 0.180558,-0.01417 0.356103,-0.07618 0.509295,-0.17191 0.127107,-0.07943 0.241214,-0.182333 0.324377,-0.30763 0.06357,-0.09578 0.107767,-0.206454 0.115496,-0.321956 0.0063,-0.09466 -0.01524,-0.190413 -0.05912,-0.274438 -0.04954,-0.09488 -0.126428,-0.172162 -0.209476,-0.238645 -0.03864,-0.03093 -0.07395,-0.06685 -0.118277,-0.09011 -0.02684,-0.01409 -0.05823,-0.01362 -0.08727,-0.0047 -0.09037,0.02791 -0.1697,0.08161 -0.245036,0.137353 -0.06309,0.04668 -0.124487,0.09592 -0.191338,0.137242 z"
       id="path111"
       inkscape:path-effect="#path-effect113"
       inkscape:original-d="m 57.702383,16.473969 c 0.09164,-0.132957 0.407879,-0.30723 0.274921,-0.398871 -0.132956,-0.09164 -0.164563,0.280987 -0.274921,0.398871 -0.317082,0.338703 -0.912828,0.79483 -0.540978,1.021106 0.763535,0.464622 1.9963,-0.568961 1.188376,-1.19661 -0.05816,-0.04519 -0.12402,-0.122978 -0.195109,-0.103707 -0.171005,0.04636 -0.301527,0.186141 -0.452289,0.279211 z" />
    <path
       style="fill:none;stroke:#000000;stroke-width:0.264583px;stroke-linecap:butt;stroke-linejoin:miter;stroke-opacity:1"
       d="m 51.352563,16.282509 c -0.03253,-0.135582 -0.04964,-0.275355 -0.09755,-0.406847 -0.01452,-0.03985 -0.05924,-0.0538 -0.0962,-0.06341 -0.03924,-0.0102 -0.07658,-0.02668 -0.108465,-0.05273 -0.06937,-0.05668 -0.123993,-0.128716 -0.175255,-0.201518 -0.08197,-0.116408 -0.153992,-0.240351 -0.247392,-0.348285 -0.05327,-0.06156 -0.113448,-0.121422 -0.18933,-0.153205 -0.04467,-0.01871 -0.09052,-0.03471 -0.136864,-0.04871 -0.03908,-0.01181 -0.07815,-0.03139 -0.119191,-0.02892 -0.0155,9.36e-4 -0.03073,0.0048 -0.04651,4.87e-4 -0.04202,-0.01139 -0.08234,-0.02818 -0.122382,-0.04504 -0.07332,-0.03089 -0.139583,-0.07718 -0.21594,-0.10152 -0.05567,-0.01775 -0.116515,-0.01108 -0.170172,0.01027 -0.07686,0.03058 -0.139856,0.08804 -0.189976,0.152667 -0.06808,0.08778 -0.117147,0.189313 -0.150558,0.294899 -0.03177,0.1004 -0.0517,0.205572 -0.04922,0.311103 0.0017,0.07053 0.01262,0.142701 0.04558,0.20592 0.01964,0.03766 0.04965,0.06826 0.07833,0.099 0.05786,0.06201 0.120574,0.121194 0.194952,0.16297 0.05273,0.02962 0.113449,0.04732 0.17437,0.04268 0.0688,-0.0052 0.132498,-0.0366 0.188995,-0.07443 0.08889,-0.05952 0.165778,-0.134517 0.246828,-0.203866 0.13488,-0.115409 0.292142,-0.201578 0.424783,-0.319766 0.06935,-0.0618 0.131316,-0.134856 0.16664,-0.221787 0.03112,-0.07658 0.03956,-0.161973 0.02499,-0.242915 -0.0052,-0.02907 -0.0044,-0.06161 -0.0206,-0.08646 -0.02445,-0.03756 -0.06041,-0.06578 -0.09594,-0.09218 -0.0802,-0.05962 -0.166657,-0.111155 -0.257987,-0.151657 -0.06225,-0.02761 -0.126835,-0.05314 -0.194854,-0.06092 -0.0377,-0.0043 -0.07924,-0.0041 -0.112136,0.01742 -0.03311,0.02168 -0.04249,0.06418 -0.04143,0.101503 5.1e-4,0.01795 0.003,0.03579 0.0065,0.05337"
       id="path115"
       inkscape:path-effect="#path-effect117"
       inkscape:original-d="m 51.352563,16.282509 c -0.03252,-0.135616 -0.05063,-0.27552 -0.09755,-0.406847 -0.0226,-0.06327 -0.122016,-0.05765 -0.177369,-0.09573 -0.236188,-0.162469 -0.385223,-0.633208 -0.665134,-0.733923 -0.385751,-0.138798 -0.128214,-10e-6 -0.399081,-0.111682 -0.09003,-0.03712 -0.18919,-0.116582 -0.292658,-0.111685 -0.375045,0.01775 -0.612715,0.788224 -0.407951,1.029087 0.354156,0.416598 0.530024,0.273107 0.833636,0 0.282676,-0.254275 0.748752,-0.40067 0.620792,-0.877514 -0.02904,-0.108231 -0.785416,-0.563184 -0.700606,-0.143595" />
    <path
       style="fill:none;stroke:#000000;stroke-width:0.264583px;stroke-linecap:butt;stroke-linejoin:miter;stroke-opacity:1"
       d="m 57.791066,21.91456 c -0.04395,-0.01879 -0.0927,-0.02192 -0.139874,-0.02057 -0.09307,0.0027 -0.185033,0.02086 -0.274649,0.04511 -0.160428,0.04341 -0.315975,0.104894 -0.462983,0.182276 -0.124051,0.0653 -0.24413,0.140601 -0.347615,0.235671 -0.06643,0.06103 -0.127358,0.130499 -0.166365,0.212558 -0.02852,0.06 -0.0424,0.12826 -0.03144,0.19437 0.01049,0.06335 0.0412,0.123256 0.08725,0.168227 0.05787,0.05652 0.132243,0.09286 0.208134,0.118435 0.11871,0.04 0.243606,0.05838 0.368168,0.06721 0.195699,0.01386 0.392516,0.0064 0.58738,-0.01476 0.167601,-0.0182 0.334831,-0.04411 0.497933,-0.08714 0.07223,-0.01906 0.143906,-0.04116 0.212457,-0.07121 0.0507,-0.02222 0.09542,-0.05681 0.131348,-0.09878 0.06153,-0.07188 0.100118,-0.160762 0.123605,-0.251683 0.032,-0.123877 0.03974,-0.253741 0.02548,-0.380699 -0.01152,-0.102578 -0.03602,-0.205116 -0.08406,-0.296989 -0.03346,-0.064 -0.07989,-0.123453 -0.142918,-0.160664 -0.04921,-0.02905 -0.108127,-0.03893 -0.164653,-0.03198 -0.08391,0.01033 -0.161246,0.04768 -0.234523,0.0879 -0.06379,0.03501 -0.12599,0.07328 -0.19267,0.10272 z"
       id="path119"
       inkscape:path-effect="#path-effect121"
       inkscape:original-d="m 57.791066,21.91456 c -0.304048,-0.135704 -1.65821,0.419555 -1.392346,0.941333 0.227709,0.4469 1.697958,0.240874 1.977665,0.06382 0.381426,-0.241439 0.291502,-1.242734 -0.150765,-1.196609 -0.157432,0.01642 -0.289702,0.127638 -0.434554,0.191457 z" />
    <path
       style="fill:none;stroke:#000000;stroke-width:0.264583px;stroke-linecap:butt;stroke-linejoin:miter;stroke-opacity:1"
       d="m 57.791066,21.91456 c -0.361288,-0.444459 -0.696328,-0.910318 -1.075831,-1.339864 -0.04285,-0.0485 -0.08273,-0.100036 -0.130277,-0.143935 -0.03077,-0.02841 -0.07727,-0.02022 -0.114166,-0.01121 -0.07106,0.01735 -0.138085,0.04809 -0.202465,0.08218 -0.129765,0.06871 -0.252184,0.151172 -0.36581,0.244029 -0.09284,0.07587 -0.182514,0.157247 -0.25558,0.252651 -0.03937,0.0514 -0.07586,0.106878 -0.09441,0.16949 -0.01209,0.0408 -0.01376,0.08695 0.0065,0.125604 0.02205,0.04215 0.06472,0.06884 0.107991,0.08514 0.07284,0.02744 0.151289,0.03588 0.228531,0.03835 0.15352,0.0049 0.306918,-0.01074 0.458653,-0.03265 0.222031,-0.03207 0.442881,-0.07867 0.654541,-0.153161 0.100111,-0.03523 0.196624,-0.08111 0.286523,-0.137471 0.07462,-0.04679 0.146577,-0.100145 0.203459,-0.167943 0.04026,-0.04799 0.07214,-0.105493 0.07952,-0.168522 0.0055,-0.04687 -0.0087,-0.0947 -0.03584,-0.132996 -0.03765,-0.05306 -0.09227,-0.09112 -0.148289,-0.122576 -0.117811,-0.06616 -0.248552,-0.104156 -0.370409,-0.161507 -0.03444,-0.01621 -0.07122,-0.0307 -0.09903,-0.05719 -0.03598,-0.03428 -0.06244,-0.07686 -0.09231,-0.116265 -0.02357,-0.03109 -0.04214,-0.06846 -0.07514,-0.09032 -0.0058,-0.0039 -0.01596,-0.003 -0.01788,0.0054 -0.01117,0.04899 -0.0126,0.100088 -0.01181,0.150226 0.0023,0.142072 0.04088,0.281631 0.09986,0.410243 0.07517,0.163901 0.179799,0.31223 0.291613,0.452919 0.183471,0.230851 0.390022,0.442454 0.569404,0.67663 0.03564,0.04653 0.07012,0.09397 0.102686,0.142704 z"
       id="path123"
       inkscape:path-effect="#path-effect125"
       inkscape:original-d="m 57.791066,21.91456 c -0.402037,-0.4946 -0.77243,-1.016698 -1.206108,-1.483799 -0.182105,-0.19614 -2.078405,1.207186 -0.257186,0.95729 0.225285,-0.03091 0.448919,-0.08115 0.665134,-0.15157 0.164256,-0.0535 0.469214,-0.205378 0.558715,-0.390893 0.162205,-0.336227 -0.434192,-0.427985 -0.611926,-0.550444 -0.0783,-0.05395 -0.190886,-0.293617 -0.203975,-0.199432 -0.09647,0.694278 0.665911,1.236036 1.055346,1.818848" />
    <path
       style="fill:none;stroke:#000000;stroke-width:0.264583px;stroke-linecap:butt;stroke-linejoin:miter;stroke-opacity:1"
       d="m 75.403836,10.379229 c -0.160029,0.03928 -0.324797,0.06099 -0.480391,0.116988 -0.09312,0.03352 -0.180064,0.08264 -0.260605,0.139756 -0.106296,0.07539 -0.203725,0.16456 -0.282264,0.268804 -0.0595,0.07897 -0.108752,0.167472 -0.132523,0.264052 -0.01863,0.0757 -0.01829,0.156539 0.0052,0.231262 0.0257,0.08193 0.07889,0.15248 0.141257,0.210524 0.02731,0.02542 0.0573,0.04906 0.09327,0.06115 0.0564,0.01895 0.117356,0.01858 0.175702,0.01096 0.09809,-0.0128 0.192982,-0.04356 0.284089,-0.08125 0.153009,-0.0633 0.29796,-0.145179 0.434401,-0.238703 0.142218,-0.09748 0.277329,-0.206592 0.395211,-0.33267 0.07584,-0.08111 0.14662,-0.168674 0.197023,-0.268067 0.03313,-0.06534 0.0593,-0.137028 0.05792,-0.211066 -8.02e-4,-0.04328 -0.0084,-0.08868 -0.03341,-0.124783 -0.02758,-0.03979 -0.0734,-0.06206 -0.119244,-0.07336 -0.06662,-0.01642 -0.136159,-0.01619 -0.204052,-0.0099 -0.12087,0.01115 -0.239587,0.03952 -0.355113,0.07601 -0.14808,0.04677 -0.29278,0.105349 -0.429381,0.179305 -0.0798,0.0432 -0.1587,0.0898 -0.227306,0.149519 -0.0334,0.02907 -0.06504,0.06128 -0.08694,0.100241 -0.01683,0.02993 -0.02137,0.06991 0.0024,0.09766"
       id="path127"
       inkscape:path-effect="#path-effect129"
       inkscape:original-d="m 75.403836,10.379229 c -0.162589,0.03989 -0.330581,0.06206 -0.487767,0.119662 -0.390245,0.143014 -0.994889,0.731788 -0.487765,1.140769 0.336637,0.271489 1.772153,-0.682242 1.587455,-1.180657 -0.141261,-0.381191 -1.62597,0.248246 -1.436693,0.486622" />
    <path
       style="fill:none;stroke:#000000;stroke-width:0.264583px;stroke-linecap:butt;stroke-linejoin:miter;stroke-opacity:1"
       d="m 80.778121,11.687523 c -0.08618,-0.03377 -0.181005,-0.04684 -0.272878,-0.03285 -0.102178,0.01556 -0.196952,0.06441 -0.276495,0.129305 -0.102117,0.08331 -0.182873,0.1902 -0.247007,0.304641 -0.08553,0.152625 -0.145148,0.319483 -0.17864,0.491032 -0.02707,0.13866 -0.03897,0.281475 -0.02259,0.422152 0.01149,0.09868 0.03679,0.197573 0.08808,0.2835 0.03662,0.06136 0.08927,0.11347 0.152929,0.146726 0.0617,0.03223 0.132745,0.0445 0.201911,0.03881 0.08945,-0.0074 0.174885,-0.04078 0.252145,-0.08517 0.106973,-0.06146 0.201787,-0.142543 0.285108,-0.233098 0.08191,-0.08902 0.155087,-0.186908 0.211057,-0.294312 0.03522,-0.0676 0.06384,-0.139502 0.07533,-0.215336 0.0077,-0.05063 0.01438,-0.10165 0.0141,-0.15301 -1.96e-4,-0.03612 -0.01065,-0.07458 -0.0407,-0.09773 -0.03524,-0.02716 -0.06976,-0.05599 -0.0951,-0.09327 -0.03079,-0.04528 -0.05464,-0.09546 -0.06976,-0.147872 -0.01529,-0.05304 -0.01175,-0.109083 -0.0078,-0.16344 0.0045,-0.06237 0.01378,-0.124735 0.01031,-0.187409 -0.0022,-0.03974 -0.01404,-0.08687 -0.05377,-0.104834 -0.03582,-0.01619 -0.07735,-0.0096 -0.112496,0.0049 -0.05321,0.022 -0.09932,0.05778 -0.142126,0.09562 -0.0877,0.07752 -0.159254,0.171216 -0.243792,0.251839 -0.02825,0.02694 -0.05433,0.06067 -0.09242,0.0732 -0.01161,0.0038 -0.02293,-0.0053 -0.02544,-0.01639 -0.004,-0.01784 -0.0094,-0.04078 0.0058,-0.05512 0.02883,-0.02722 0.06881,-0.03825 0.105382,-0.0508"
       id="path131"
       inkscape:path-effect="#path-effect133"
       inkscape:original-d="m 80.778121,11.687523 c -0.816012,-0.315961 -1.32085,1.400528 -0.780422,1.731097 0.403063,0.246547 0.9902,-0.418685 1.046477,-0.757851 0.06475,-0.39025 -0.06588,-0.158449 -0.186235,-0.502578 -0.05254,-0.150208 0.07725,-0.445158 -0.07982,-0.470668 -0.232579,-0.03777 -0.594182,0.618544 -0.594182,0.382917 0,-0.03951 0.106738,-0.06838 0.115289,-0.0718" />
    <path
       style="fill:none;stroke:#000000;stroke-width:0.264583px;stroke-linecap:butt;stroke-linejoin:miter;stroke-opacity:1"
       d="m 74.85399,6.183114 c -0.157234,0.099704 -0.30991,0.2064528 -0.460433,0.3159523 -0.340561,0.2477442 -0.671821,0.5091374 -0.982328,0.7938337 -0.215243,0.1973514 -0.423592,0.4039299 -0.604217,0.6338252 -0.110973,0.1412439 -0.214636,0.2905666 -0.286179,0.4559809 -0.04934,0.114074 -0.08371,0.2380914 -0.07563,0.3635004 0.0063,0.097294 0.04426,0.1920829 0.1073,0.2664707 0.05129,0.060521 0.114276,0.1131205 0.188593,0.1428705 0.100203,0.040113 0.211579,0.042014 0.316967,0.02557 0.15197,-0.023711 0.297067,-0.079821 0.433956,-0.148465 0.209612,-0.1051113 0.404499,-0.2381707 0.584836,-0.3875806 0.16461,-0.1363799 0.320662,-0.2846745 0.453533,-0.4524266 0.07039,-0.088862 0.135797,-0.1829189 0.182533,-0.2866755 0.02341,-0.051965 0.03676,-0.1078574 0.04351,-0.1643191 0.01439,-0.120556 0.01171,-0.2426242 -1.5e-5,-0.3632412 -0.01494,-0.153641 -0.04246,-0.3069874 -0.09384,-0.452796 -0.03281,-0.093112 -0.07431,-0.1848815 -0.137268,-0.2617534 -0.03343,-0.04082 -0.07525,-0.07449 -0.122511,-0.098475 -0.182571,-0.092648 -0.399081,-0.1152349 -0.597136,-0.06325 -0.144571,0.037947 -0.279735,0.1175965 -0.375706,0.2333084 -0.07573,0.091311 -0.122554,0.2054549 -0.135161,0.3233563 -6.33e-4,0.00592 -0.0012,0.011848 -0.0017,0.017783"
       id="path135"
       inkscape:path-effect="#path-effect137"
       inkscape:original-d="M 74.85399,6.183114 C 74.378221,6.4812351 71.713171,8.3542851 72.636874,9.0948668 73.181529,9.5315449 74.591727,8.3632745 74.7387,7.834436 74.817591,7.5505777 74.729149,6.7388824 74.419435,6.5740068 73.947908,6.3229796 73.333546,6.5676515 73.293141,7.0765833" />
    <path
       style="fill:none;stroke:#000000;stroke-width:0.264583px;stroke-linecap:butt;stroke-linejoin:miter;stroke-opacity:1"
       d="m 94.311397,20.271213 c -0.233499,0.0854 -0.457417,0.204526 -0.644343,0.369957 -0.150541,0.13323 -0.275568,0.298591 -0.347586,0.487294 -0.06148,0.1611 -0.08185,0.339726 -0.04603,0.509284 0.02956,0.139953 0.100774,0.272269 0.207999,0.368157 0.09241,0.08264 0.211355,0.133273 0.334204,0.147952 0.145788,0.01742 0.293813,-0.01309 0.428559,-0.0685 0.180289,-0.07415 0.341283,-0.188849 0.485149,-0.319092 0.210822,-0.190858 0.390072,-0.414181 0.548716,-0.649443 0.03085,-0.04575 0.0554,-0.09845 0.05589,-0.154775 5.15e-4,-0.05828 -0.03434,-0.110687 -0.07897,-0.145758 -0.05517,-0.04336 -0.121653,-0.06968 -0.188707,-0.08819 -0.117056,-0.03232 -0.238884,-0.04464 -0.36001,-0.04562 -0.146398,-0.0012 -0.29361,0.0118 -0.435845,0.04708 -0.08714,0.02162 -0.174063,0.04987 -0.250703,0.0975 -0.0094,0.0058 -0.01863,0.01201 -0.02759,0.01853"
       id="path139"
       inkscape:path-effect="#path-effect141"
       inkscape:original-d="m 94.311397,20.271213 c -2.100789,0.767613 -0.689705,3.290638 0.966666,0.845605 0.332825,-0.491296 -0.913558,-0.542383 -1.28593,-0.27123" />
    <path
       style="fill:none;stroke:#000000;stroke-width:0.264583px;stroke-linecap:butt;stroke-linejoin:miter;stroke-opacity:1"
       d="m 96.280194,17.207889 c -0.149293,7e-4 -0.300055,0.0095 -0.444953,0.04795 -0.11378,0.03022 -0.222453,0.08244 -0.313116,0.158208 -0.101202,0.08458 -0.17747,0.195812 -0.231392,0.315396 -0.04699,0.1042 -0.06137,0.221122 -0.05039,0.334374 0.01383,0.142715 0.06401,0.280343 0.13562,0.403907 0.07785,0.134345 0.180376,0.255253 0.304113,0.349366 0.08938,0.06798 0.190569,0.123376 0.300642,0.148414 0.08257,0.01878 0.169568,0.01035 0.249576,-0.01587 0.1046,-0.03428 0.198868,-0.09428 0.284026,-0.163015 0.123007,-0.09929 0.230022,-0.216703 0.329683,-0.338975 0.07605,-0.0933 0.1449,-0.192138 0.21767,-0.287959 0.04451,-0.05861 0.08535,-0.12227 0.104524,-0.194069 0.01306,-0.04891 0.01237,-0.102644 -0.0093,-0.149163 -0.02551,-0.05475 -0.07466,-0.09418 -0.127092,-0.121718 -0.07548,-0.03965 -0.159047,-0.06133 -0.242754,-0.07497 -0.128349,-0.02091 -0.259162,-0.02562 -0.388795,-0.01717 -0.0821,0.0054 -0.164312,0.0148 -0.244144,0.03531 -0.04402,0.01131 -0.08555,0.03032 -0.126147,0.0504 -0.06841,0.03384 -0.131286,0.07884 -0.184664,0.133497 -0.06226,0.06375 -0.115777,0.135174 -0.172494,0.203722 -0.03251,0.0393 -0.0658,0.07796 -0.100082,0.115719"
       id="path143"
       inkscape:path-effect="#path-effect145"
       inkscape:original-d="m 96.280194,17.207889 c -0.426575,0.0013 -0.779688,0.07757 -0.984398,0.510553 -0.221163,0.467783 0.218929,1.130393 0.674007,1.244476 0.465577,0.116714 0.937686,-0.598188 1.099688,-0.813696 0.456628,-0.607443 -0.700286,-0.60266 -0.966666,-0.494599 -0.268248,0.108818 -0.299731,0.230562 -0.532104,0.486621" />
    <path
       style="fill:none;stroke:#000000;stroke-width:0.264583px;stroke-linecap:butt;stroke-linejoin:miter;stroke-opacity:1"
       d="m 94.728217,25.520346 c -0.110032,-0.04212 -0.211734,-0.106969 -0.293262,-0.192558 -0.09296,-0.09759 -0.156056,-0.218231 -0.215034,-0.338155 -0.06172,-0.125499 -0.123985,-0.252641 -0.213353,-0.361305 -0.05027,-0.06113 -0.107643,-0.116388 -0.16974,-0.165323 -0.07604,-0.05992 -0.1615,-0.111602 -0.256919,-0.13299 -0.06952,-0.01558 -0.144847,-0.0092 -0.208514,0.02424 -0.07433,0.03905 -0.127318,0.108962 -0.163043,0.18339 -0.04999,0.104139 -0.07115,0.219085 -0.08411,0.333077 -0.02254,0.198281 -0.02019,0.401251 0.02618,0.596196 0.0224,0.09421 0.05755,0.185022 0.101095,0.271418 0.08441,0.167477 0.190556,0.323306 0.307512,0.469565 0.165499,0.206964 0.352137,0.398057 0.561922,0.560275 0.159397,0.123255 0.332389,0.232088 0.521933,0.302413 0.146888,0.0545 0.306099,0.08523 0.462651,0.06469 0.07922,-0.0104 0.157693,-0.03222 0.228449,-0.06969 0.08407,-0.04453 0.151098,-0.117009 0.196348,-0.200114 0.05952,-0.109306 0.08702,-0.233177 0.09779,-0.356277 0.01477,-0.168855 0.002,-0.339369 -0.02847,-0.505756 -0.02268,-0.123681 -0.05328,-0.246475 -0.09988,-0.363435 -0.03971,-0.09968 -0.111372,-0.182927 -0.191119,-0.253156 -0.102614,-0.09037 -0.222647,-0.157637 -0.331671,-0.239482 -0.06338,-0.04758 -0.116032,-0.107639 -0.165839,-0.168807 -0.07756,-0.09526 -0.134971,-0.206059 -0.216284,-0.29798 -0.0086,-0.0097 -0.02075,-0.04198 -0.02627,-0.02977 -0.01725,0.03809 -0.02384,0.07991 -0.03061,0.12084 -0.01393,0.08424 -0.02252,0.169224 -0.03147,0.254097"
       id="path147"
       inkscape:path-effect="#path-effect149"
       inkscape:original-d="m 94.728217,25.520346 c -0.495951,-0.192043 -0.463487,-0.637431 -0.780423,-0.95729 -0.400751,-0.404445 -0.741802,-0.285961 -0.815904,0.247302 -0.03565,0.256551 -0.03364,0.527105 0.05321,0.773808 0.21644,0.614821 1.321096,1.836192 2.110693,1.499753 0.482234,-0.205478 0.349967,-1.079132 0.203975,-1.443912 -0.08935,-0.223263 -0.330224,-0.358844 -0.514366,-0.486622 -0.178943,-0.124171 -0.408358,-0.518646 -0.416822,-0.502575 -0.03335,0.06334 -0.05709,0.333052 -0.06208,0.374937" />
    <path
       style="fill:none;stroke:#000000;stroke-width:0.264583px;stroke-linecap:butt;stroke-linejoin:miter;stroke-opacity:1"
       d="m 94.78143,29.820168 c -0.110945,-0.05611 -0.226353,-0.106196 -0.348684,-0.13126 -0.09073,-0.01859 -0.185026,-0.0192 -0.275988,-0.0015 -0.118916,0.02313 -0.230862,0.07187 -0.339479,0.124095 -0.05956,0.02864 -0.118374,0.05879 -0.178217,0.08687 -0.193029,0.09055 -0.388927,0.177112 -0.570089,0.290231 -0.08013,0.05003 -0.159565,0.103539 -0.224705,0.172488 -0.05844,0.06186 -0.104793,0.13789 -0.120761,0.222404 -0.01355,0.0717 -0.0014,0.14678 0.02888,0.212777 0.04069,0.08856 0.108778,0.161915 0.185344,0.220864 0.112239,0.08641 0.243178,0.14677 0.379202,0.184713 0.171235,0.04777 0.35335,0.06209 0.528747,0.03028 0.08715,-0.01581 0.175078,-0.03846 0.251389,-0.08366 0.04869,-0.02884 0.09411,-0.06285 0.138836,-0.0974 0.136258,-0.105247 0.266378,-0.218737 0.386666,-0.341943 0.09783,-0.100206 0.191696,-0.205699 0.266438,-0.324479 0.04506,-0.07161 0.08496,-0.148383 0.102417,-0.231797 0.01207,-0.05765 0.01022,-0.119762 -0.01471,-0.174015 -0.02678,-0.05829 -0.07819,-0.101396 -0.13395,-0.130917 -0.09763,-0.05169 -0.20895,-0.07142 -0.318451,-0.07413 -0.14699,-0.0036 -0.293415,0.01915 -0.436047,0.05297 -0.213241,0.05056 -0.420191,0.124607 -0.622555,0.208096 -0.194544,0.08026 -0.384839,0.170387 -0.573273,0.263982"
       id="path151"
       inkscape:path-effect="#path-effect153"
       inkscape:original-d="m 94.78143,29.820168 c -0.440405,-0.224006 -0.642731,-0.171299 -1.046483,0.03191 -0.22324,0.112358 -0.731602,0.316392 -0.913447,0.534488 -0.437288,0.524457 0.611467,1.093303 1.26819,0.765831 0.140113,-0.06987 1.406967,-1.058204 0.69174,-1.332228 -0.503172,-0.19278 -1.443541,0.257855 -1.888985,0.478648" />
    <path
       style="fill:none;stroke:#000000;stroke-width:0.264583px;stroke-linecap:butt;stroke-linejoin:miter;stroke-opacity:1"
       d="m 92.89244,30.298837 c -0.03674,-0.01807 -0.08002,-0.01166 -0.117346,6.74e-4 -0.0732,0.02419 -0.13891,0.06649 -0.200229,0.112294 -0.134579,0.100533 -0.254627,0.219187 -0.366904,0.343693 -0.199821,0.221585 -0.378733,0.462116 -0.533476,0.717151 -0.13205,0.217634 -0.250098,0.445537 -0.330457,0.68755 -0.0531,0.159916 -0.09206,0.327064 -0.08985,0.496434 0.0016,0.122728 0.02904,0.247578 0.09502,0.352532 0.06054,0.09631 0.15403,0.168133 0.256816,0.215068 0.09754,0.04454 0.204277,0.06843 0.311554,0.06953 0.165286,0.0017 0.327833,-0.04532 0.475983,-0.116124 0.191363,-0.09146 0.363637,-0.219842 0.514848,-0.367814 0.15398,-0.150682 0.290042,-0.321266 0.392699,-0.510978 0.06587,-0.121726 0.120519,-0.251699 0.142566,-0.388969 0.01165,-0.07253 0.0076,-0.150313 -0.02703,-0.216564 -0.03268,-0.06249 -0.09158,-0.107195 -0.155285,-0.134861 -0.0913,-0.03965 -0.191457,-0.05377 -0.290159,-0.05786 -0.166133,-0.0069 -0.332374,0.01097 -0.495821,0.03949 -0.188375,0.03286 -0.375015,0.07734 -0.556397,0.137939 -0.05317,0.01776 -0.108145,0.03233 -0.157502,0.05898 -0.0235,0.01269 -0.07371,0.07405 -0.05741,0.05359 0.396121,-0.497252 0.792244,-0.994502 1.188368,-1.491752 0,0 4e-6,-5e-6 4e-6,-5e-6 z"
       id="path155"
       inkscape:path-effect="#path-effect157"
       inkscape:original-d="m 92.89244,30.298837 c -0.408202,-0.205325 -2.546499,2.526128 -1.197235,2.959594 0.711661,0.22863 1.636821,-0.701029 1.747084,-1.340204 0.123597,-0.716473 -1.34324,-0.328671 -1.676141,-0.183483 -0.02551,0.01114 -0.04138,0.03723 -0.06208,0.05585 0.39612,-0.49725 0.792244,-0.994502 1.188368,-1.491752" />
    <path
       style="fill:none;stroke:#000000;stroke-width:0.264583px;stroke-linecap:butt;stroke-linejoin:miter;stroke-opacity:1"
       d="m 113.2347,10.954536 c -0.11906,-0.01017 -0.23435,-0.04925 -0.35421,-0.05139 -0.0455,-8.15e-4 -0.0925,0.0013 -0.13526,0.01752 -0.0485,0.01844 -0.0893,0.05247 -0.12468,0.08959 -0.0607,0.0637 -0.1098,0.137511 -0.15249,0.214158 -0.062,0.111399 -0.11255,0.229317 -0.14968,0.351273 -0.0262,0.08599 -0.048,0.174132 -0.0534,0.264059 -0.003,0.05027 -0.004,0.102503 0.0137,0.1503 0.0145,0.0398 0.042,0.07329 0.0694,0.104844 0.0631,0.07263 0.1458,0.127784 0.23698,0.158557 0.11704,0.0395 0.24559,0.03892 0.36427,0.0066 0.14442,-0.03934 0.27641,-0.12628 0.36565,-0.247065 0.0624,-0.0845 0.10098,-0.185933 0.11225,-0.290402 0.007,-0.06718 0.002,-0.135015 -0.007,-0.20172 -0.0219,-0.161028 -0.0776,-0.31903 -0.1718,-0.452194 -0.0631,-0.08923 -0.14353,-0.167952 -0.24014,-0.220159 -0.0701,-0.03788 -0.14979,-0.06089 -0.22999,-0.05669 -0.0643,0.0034 -0.12714,0.02692 -0.17806,0.06637 -0.0605,0.04684 -0.10284,0.113399 -0.13095,0.183796 -0.0195,0.04886 -0.0327,0.10009 -0.0416,0.151892"
       id="path163"
       inkscape:path-effect="#path-effect165"
       inkscape:original-d="m 113.2347,10.954536 c -0.15668,-0.01329 -0.31736,-0.07751 -0.47003,-0.03988 -0.27533,0.06785 -0.60466,0.898941 -0.47003,1.108859 0.32632,0.508778 1.16601,0.216108 1.13517,-0.398871 -0.0415,-0.826719 -0.87727,-1.160828 -1.00214,-0.430781" />
    <path
       style="fill:none;stroke:#000000;stroke-width:0.264583px;stroke-linecap:butt;stroke-linejoin:miter;stroke-opacity:1"
       d="m 111.75367,13.977975 c -0.14557,0.05627 -0.28929,0.119363 -0.44004,0.159892 -0.045,0.0121 -0.0802,0.04384 -0.11758,0.06975 -0.0666,0.04612 -0.13582,0.08836 -0.20142,0.135985 -0.10126,0.07352 -0.19443,0.158125 -0.2772,0.251987 -0.0728,0.08261 -0.13979,0.170469 -0.20049,0.262332 -0.0654,0.09897 -0.12562,0.202931 -0.16301,0.315942 -0.0237,0.07161 -0.0388,0.1481 -0.0288,0.223671 0.007,0.05571 0.0326,0.109326 0.0734,0.148468 0.049,0.04706 0.11519,0.07203 0.18133,0.08282 0.0955,0.01559 0.19349,0.007 0.28746,-0.01369 0.15592,-0.03424 0.30428,-0.09961 0.43828,-0.185823 0.17279,-0.111168 0.32463,-0.258838 0.42737,-0.437581 0.0323,-0.05618 0.0595,-0.115003 0.0939,-0.170149 0.0491,-0.07881 0.1045,-0.154689 0.14015,-0.240981 0.0231,-0.05596 0.0369,-0.118965 0.0218,-0.178604 -0.0145,-0.05759 -0.0404,-0.111687 -0.0698,-0.163034 -0.0512,-0.08942 -0.11444,-0.171344 -0.16529,-0.260996 z"
       id="path167"
       inkscape:path-effect="#path-effect169"
       inkscape:original-d="m 111.75367,13.977975 c -0.67066,0.260026 -0.32995,0.08418 -0.65627,0.295165 -0.2204,0.142498 -0.36523,0.284926 -0.52324,0.502575 -0.87179,1.200801 0.76048,1.047204 1.19724,0.143594 0.0835,-0.172658 0.26872,-0.351038 0.21285,-0.534487 -0.0454,-0.149119 -0.15372,-0.271231 -0.23058,-0.406847 z" />
    <path
       style="fill:none;stroke:#000000;stroke-width:0.264583px;stroke-linecap:butt;stroke-linejoin:miter;stroke-opacity:1"
       d="m 118.02367,39.296765 c -0.0468,-0.126291 -0.0616,-0.264537 -0.1262,-0.383624 -0.0208,-0.03837 -0.0414,-0.08081 -0.0833,-0.101277 -0.0599,-0.02925 -0.12471,-0.0467 -0.18888,-0.06382 -0.0795,-0.02123 -0.16152,-0.03314 -0.24013,-0.05756 -0.0468,-0.01455 -0.0918,-0.03448 -0.13723,-0.0528 -0.0898,-0.03621 -0.17946,-0.07368 -0.27249,-0.101109 -0.0367,-0.01081 -0.0752,-0.01729 -0.11352,-0.01105 -0.068,0.01108 -0.13076,0.04105 -0.19287,0.0694 -0.0482,0.02201 -0.0967,0.04397 -0.1476,0.05931 -0.13285,0.03999 -0.26275,0.09979 -0.36639,0.193824 -0.0783,0.07102 -0.13652,0.164016 -0.16455,0.266161 -0.0343,0.125016 -0.025,0.25826 0.007,0.382619 0.0428,0.165103 0.1213,0.319159 0.2165,0.459879 0.11911,0.176055 0.26391,0.334819 0.42846,0.469375 0.12007,0.09818 0.25277,0.17995 0.39013,0.251436 0.17324,0.09016 0.35497,0.165943 0.54468,0.213385 0.13941,0.03486 0.2842,0.05641 0.42793,0.04307 0.0921,-0.0085 0.18473,-0.03054 0.26446,-0.07925 0.0921,-0.05629 0.16094,-0.144554 0.20679,-0.241233 0.062,-0.130766 0.0897,-0.27517 0.10026,-0.418652 0.0157,-0.214952 -0.003,-0.431406 -0.0425,-0.642838 -0.0415,-0.22188 -0.10312,-0.440875 -0.19415,-0.647627 -0.0527,-0.11969 -0.11272,-0.23788 -0.19535,-0.339819 -0.0438,-0.05406 -0.0866,-0.143259 -0.1567,-0.13734 -0.0448,0.0038 -0.0885,0.01707 -0.13194,0.02828 -0.26139,0.0674 -0.52007,0.145157 -0.78232,0.209121 -0.038,0.0093 -0.0758,0.01965 -0.11448,0.02585"
       id="path171"
       inkscape:path-effect="#path-effect173"
       inkscape:original-d="m 118.02367,39.296765 c -0.0562,-0.151569 -0.0746,-0.323127 -0.1685,-0.45471 -0.0463,-0.06493 -0.38479,-0.128566 -0.47003,-0.151572 -0.0686,-0.01852 -0.3753,-0.162348 -0.4789,-0.167523 -0.11412,-0.0057 -0.26438,0.09627 -0.37247,0.127637 -1.05952,0.307436 -0.42133,1.419927 0.23058,1.866713 0.3293,0.225686 0.95176,0.514027 1.38348,0.390892 0.8141,-0.232193 0.32202,-2.241933 -0.15964,-2.480971 -0.0231,-0.01148 -0.92847,0.250955 -1.02874,0.263252" />
    <path
       style="fill:none;stroke:#000000;stroke-width:0.264583px;stroke-linecap:butt;stroke-linejoin:miter;stroke-opacity:1"
       d="m 116.95928,38.690475 c -0.15471,-0.499199 -0.27782,-1.008257 -0.45483,-1.500446 -0.0191,-0.05319 -0.0417,-0.105167 -0.0594,-0.158846 -0.006,-0.01836 -0.0283,-0.01022 -0.0404,-0.0034 -0.0316,0.01785 -0.0611,0.03903 -0.0968,0.05005 -0.0691,0.02136 -0.13866,0.04266 -0.21068,0.05212 -0.0847,0.01112 -0.16989,0.0181 -0.25465,0.02885 -0.16633,0.0211 -0.33299,0.05035 -0.49078,0.10854 -0.12112,0.04466 -0.23716,0.108322 -0.33004,0.199151 -0.0773,0.07563 -0.12985,0.172517 -0.16776,0.27375 -0.0121,0.03234 -0.0156,0.06858 -0.004,0.101749 0.0169,0.04909 0.0557,0.08691 0.0968,0.116727 0.0725,0.05271 0.15534,0.08897 0.23845,0.121432 0.0842,0.03289 0.17136,0.05743 0.25611,0.08873 0.041,0.01513 0.0804,0.03402 0.12025,0.0518 0.14456,0.06446 0.29002,0.129487 0.44353,0.169566 0.0801,0.02091 0.16328,0.03984 0.24612,0.03072 0.0732,-0.0081 0.14601,-0.01927 0.21821,-0.03357 0.15822,-0.03132 0.3153,-0.07863 0.45553,-0.159958 0.10887,-0.06314 0.20199,-0.151822 0.27324,-0.256152 0.0298,-0.04358 0.0494,-0.09373 0.0564,-0.146139 0.0122,-0.09158 -0.004,-0.18564 -0.0394,-0.270572 -0.0202,-0.04867 -0.0489,-0.09346 -0.0836,-0.133202 -0.0981,-0.112452 -0.2052,-0.216906 -0.31701,-0.315648 -0.12329,-0.10888 -0.25171,-0.212748 -0.39044,-0.301368 -0.075,-0.0479 -0.1505,-0.149179 -0.2361,-0.124178 -0.0307,0.009 -0.0561,0.03095 -0.0812,0.05003 -0.0986,0.07494 -0.19119,0.15762 -0.27855,0.245309 -0.1029,0.103292 -0.20097,0.212719 -0.28015,0.335465 -0.049,0.07593 -0.0927,0.157168 -0.1135,0.2457 -0.0144,0.06143 -0.015,0.128017 0.01,0.187061 0.0169,0.04022 0.0465,0.07348 0.0795,0.101713 0.19247,0.165051 0.41023,0.297361 0.63259,0.417831 0.26655,0.144414 0.54164,0.272991 0.80287,0.427183"
       id="path175"
       inkscape:path-effect="#path-effect177"
       inkscape:original-d="m 116.95928,38.690475 c -0.1714,-0.553098 -0.30441,-1.119587 -0.5142,-1.659292 -0.0147,-0.0379 -0.0764,0.02788 -0.11529,0.03989 -0.16252,0.05025 -0.17537,0.05427 -0.34587,0.0718 -0.43616,0.04484 -0.99141,0.129336 -1.13516,0.614259 -0.0712,0.240054 0.49568,0.368567 0.62079,0.422807 0.19538,0.0847 0.56469,0.268584 0.79817,0.239318 0.3512,-0.04402 0.75736,-0.144158 0.94892,-0.478642 0.0845,-0.14759 0.0311,-0.381711 -0.0709,-0.502578 -0.19664,-0.232897 -0.64787,-0.64094 -0.95779,-0.757852 -0.0378,-0.01426 -1.06791,0.815242 -0.67401,1.156722 0.42279,0.366516 0.96359,0.569049 1.44539,0.853574" />
    <path
       style="fill:none;stroke:#000000;stroke-width:0.264583px;stroke-linecap:butt;stroke-linejoin:miter;stroke-opacity:1"
       d="m 126.51966,35.451655 c -0.15359,0.01899 -0.30851,0.02886 -0.46076,0.0574 -0.0602,0.01129 -0.11728,0.03735 -0.16635,0.07396 -0.0653,0.04873 -0.11759,0.111837 -0.17407,0.169956 -0.0478,0.04915 -0.0976,0.09633 -0.1425,0.148199 -0.0727,0.08391 -0.13841,0.17563 -0.18189,0.278256 -0.029,0.06847 -0.0484,0.142666 -0.0447,0.217546 0.003,0.05574 0.0212,0.111373 0.0565,0.155193 0.0361,0.0448 0.0886,0.07412 0.14388,0.08814 0.0748,0.01897 0.15376,0.01386 0.22832,-0.0033 0.11164,-0.02565 0.21622,-0.07619 0.31221,-0.137804 0.14664,-0.09413 0.27567,-0.213542 0.39098,-0.343638 0.0495,-0.05587 0.0985,-0.114105 0.13009,-0.182437 0.021,-0.04541 0.031,-0.09661 0.0222,-0.146641 -0.0158,-0.08931 -0.0433,-0.178099 -0.093,-0.254657 -0.0382,-0.05886 -0.0916,-0.108398 -0.15536,-0.138606 -0.0755,-0.03577 -0.16214,-0.04239 -0.24391,-0.02917 -0.0983,0.0159 -0.19158,0.05713 -0.27324,0.113521 -0.0811,0.05598 -0.15292,0.126974 -0.20338,0.211944 -0.005,0.0083 -0.01,0.0167 -0.0141,0.02524"
       id="path179"
       inkscape:path-effect="#path-effect181"
       inkscape:original-d="m 126.51966,35.451655 c -0.15076,0.0186 -0.30265,0.02972 -0.45229,0.05584 -0.18233,0.03182 -0.25891,0.159748 -0.39022,0.28719 -0.79235,0.769016 -0.006,1.307555 0.83364,0.327072 0.0678,-0.07922 0.14131,-0.184316 0.12416,-0.287189 -0.11506,-0.690007 -0.79515,-0.441524 -0.98441,-0.07977" />
    <path
       style="fill:none;stroke:#000000;stroke-width:0.264583px;stroke-linecap:butt;stroke-linejoin:miter;stroke-opacity:1"
       d="m 135.07772,32.507994 c -0.0284,-0.100181 -0.0686,-0.198881 -0.13236,-0.282058 -0.0478,-0.06226 -0.11159,-0.113508 -0.18616,-0.139837 -0.0756,-0.02669 -0.15881,-0.02545 -0.23586,-0.0057 -0.10321,0.02646 -0.19731,0.08138 -0.27889,0.14892 -0.10744,0.08895 -0.19727,0.199655 -0.26021,0.324162 -0.0486,0.09614 -0.0817,0.201909 -0.0839,0.31026 -0.002,0.08421 0.0188,0.169365 0.0629,0.241583 0.0345,0.05643 0.0837,0.102256 0.13753,0.140258 0.13957,0.09858 0.29886,0.171896 0.46782,0.201513 0.14444,0.02532 0.29564,0.01607 0.43439,-0.03275 0.12803,-0.04505 0.243,-0.125303 0.33095,-0.228655 0.0945,-0.11103 0.15647,-0.247412 0.18762,-0.389304 0.0246,-0.111889 0.0325,-0.227478 0.0236,-0.341581 -0.006,-0.07929 -0.0214,-0.159498 -0.0583,-0.230702 -0.0272,-0.05254 -0.0688,-0.09788 -0.12046,-0.127226 -0.064,-0.03634 -0.1387,-0.04827 -0.21141,-0.0484 -0.0983,-1.83e-4 -0.19546,0.0178 -0.29085,0.03986 -0.1427,0.03299 -0.28208,0.07901 -0.42513,0.110473 -0.044,0.0097 -0.0882,0.02058 -0.13328,0.02284 -0.0462,0.0023 -0.0925,-0.0027 -0.13843,-0.0074 -0.0478,-0.0049 -0.0953,-0.01218 -0.14319,-0.0168 0,0 -0.008,-2.48e-4 -0.008,-2.48e-4 0,0 -0.002,0.001 -0.002,0.001 0.0504,0.02083 0.10649,0.02117 0.15962,0.0306"
       id="path183"
       inkscape:path-effect="#path-effect185"
       inkscape:original-d="m 135.07772,32.507994 c -0.3223,-1.145781 -1.66122,0.240646 -0.99326,0.725942 0.69383,0.504095 1.48511,0.127702 1.46329,-0.725942 -0.0201,-0.784903 -0.80135,-0.337489 -1.23271,-0.287187 -0.0941,0.01098 -0.37455,-0.04316 -0.2838,-0.01595 0.046,0.01378 0.0946,0.01595 0.1419,0.02392" />
    <path
       style="fill:none;stroke:#000000;stroke-width:0.264583px;stroke-linecap:butt;stroke-linejoin:miter;stroke-opacity:1"
       d="m 139.96424,27.195041 c -0.10892,-0.02301 -0.21635,-0.05233 -0.32358,-0.08232 -0.0421,-0.01177 -0.0845,-0.02833 -0.12886,-0.0259 -0.0433,0.0024 -0.0846,0.01668 -0.12536,0.03029 -0.10751,0.03592 -0.21545,0.07087 -0.32036,0.113998 -0.15152,0.0623 -0.30048,0.135552 -0.43009,0.236716 -0.0837,0.06532 -0.16038,0.143263 -0.20918,0.238575 -0.0366,0.07153 -0.053,0.153965 -0.0419,0.233997 0.013,0.0938 0.0618,0.179342 0.12505,0.248472 0.0873,0.09544 0.19931,0.165574 0.31776,0.215659 0.18919,0.07999 0.39747,0.113243 0.60225,0.09999 0.20454,-0.01324 0.40655,-0.07737 0.5777,-0.191201 0.15197,-0.101072 0.27584,-0.241474 0.3649,-0.400278 0.0606,-0.107982 0.10891,-0.223312 0.13932,-0.343252 0.0167,-0.06591 0.0239,-0.136615 0.005,-0.202966 -0.0143,-0.05013 -0.0467,-0.09411 -0.0886,-0.124906 -0.0566,-0.04166 -0.12547,-0.06298 -0.194,-0.07468 -0.10751,-0.01836 -0.21738,-0.01717 -0.32572,-0.0084 -0.17065,0.01388 -0.33958,0.04483 -0.50573,0.08549 -0.0558,0.01365 -0.11194,0.02618 -0.16653,0.04395 -0.0852,0.02773 -0.16371,0.07259 -0.23741,0.122819 -0.12104,0.08249 -0.23227,0.178943 -0.33419,0.283952 -0.0617,0.06357 -0.12079,0.130012 -0.17261,0.201963"
       id="path187"
       inkscape:path-effect="#path-effect189"
       inkscape:original-d="m 139.96424,27.195041 c -0.52709,-0.112069 -0.34213,-0.156106 -0.69173,-0.03989 -2.36824,0.787276 0.66949,2.35267 1.23271,0.438758 0.20547,-0.698214 -1.02468,-0.37389 -1.25045,-0.311118 -0.26074,0.0725 -0.615,0.407601 -0.76269,0.614259" />
    <path
       style="fill:none;stroke:#000000;stroke-width:0.264583px;stroke-linecap:butt;stroke-linejoin:miter;stroke-opacity:1"
       d="m 162.01267,7.5880729 c -0.10841,0.1560256 -0.23894,0.2961715 -0.33733,0.4591912 -0.0238,0.039366 -0.0478,0.079003 -0.0646,0.1218301 -0.0173,0.04412 -0.01,0.093317 0.004,0.137022 0.0181,0.057624 0.0313,0.1167104 0.0515,0.1736585 0.0278,0.07867 0.0669,0.1553901 0.12667,0.2148313 0.0456,0.045348 0.10507,0.076611 0.16871,0.086933 0.08,0.012979 0.16199,-0.00432 0.23625,-0.034395 0.10324,-0.041809 0.19627,-0.1055681 0.28049,-0.1777399 0.12351,-0.1058375 0.23146,-0.2294958 0.32218,-0.3643165 0.076,-0.1129029 0.14245,-0.2335432 0.18482,-0.3631939 0.0265,-0.080941 0.045,-0.16621 0.0393,-0.2517788 -0.004,-0.053471 -0.019,-0.106692 -0.0491,-0.1516136 -0.039,-0.058332 -0.0835,-0.1145022 -0.14063,-0.1561021 -0.0417,-0.030376 -0.0925,-0.049623 -0.14459,-0.048993 -0.0608,7.357e-4 -0.11845,0.025268 -0.17013,0.055503 -0.0855,0.050022 -0.16175,0.1137468 -0.24285,0.1702736 -0.0757,0.052776 -0.1563,0.1026547 -0.24676,0.1247404 -0.11356,0.027726 -0.23267,0.025017 -0.34736,0.00503 -0.071,-0.012366 -0.13932,-0.036069 -0.20955,-0.051669 -0.0283,-0.00629 -0.0591,-0.020911 -0.087,-0.010064 -0.0212,0.00823 -0.0163,0.034914 -0.0114,0.051806 0.0126,0.043253 0.0336,0.083473 0.0545,0.1231981 0.0108,0.020592 0.022,0.041013 0.0332,0.061345"
       id="path191"
       inkscape:path-effect="#path-effect193"
       inkscape:original-d="m 162.01267,7.5880729 c -0.13303,0.1914573 -0.30126,0.3627551 -0.39909,0.574372 -0.0326,0.070459 0.007,0.1561315 0.0266,0.2313451 0.28612,1.1214393 1.65162,-0.4706893 1.33913,-0.9493118 -0.33578,-0.5142965 -0.58574,0.062693 -0.96665,0.1435947 -0.46854,0.099511 -0.81461,-0.3008162 -0.54986,0.175501" />
    <path
       style="fill:none;stroke:#000000;stroke-width:0.264583px;stroke-linecap:butt;stroke-linejoin:miter;stroke-opacity:1"
       d="m 161.49829,31.22513 c -0.004,-0.137941 -0.0108,-0.276953 -0.0424,-0.4118 -0.0232,-0.09925 -0.0645,-0.194095 -0.1211,-0.27895 -0.0526,-0.07888 -0.11839,-0.147701 -0.18482,-0.21501 -0.14867,-0.150627 -0.27668,-0.321091 -0.43535,-0.461924 -0.0707,-0.06277 -0.1478,-0.118314 -0.22983,-0.165447 -0.15512,-0.08913 -0.31424,-0.171484 -0.47737,-0.244936 -0.14491,-0.06525 -0.29239,-0.126822 -0.44637,-0.167113 -0.081,-0.0212 -0.1643,-0.03941 -0.24844,-0.03637 -0.0498,0.0018 -0.10197,0.01163 -0.14192,0.04347 -0.036,0.02869 -0.0521,0.07515 -0.0544,0.119964 -0.003,0.06202 0.0121,0.123127 0.0295,0.182083 0.0212,0.07192 0.0476,0.142717 0.0838,0.208663 0.0168,0.03062 0.0411,0.05591 0.0657,0.0803 0.10932,0.108338 0.24099,0.190516 0.37512,0.264406 0.1786,0.09839 0.36475,0.184623 0.53179,0.302711 0.0817,0.05776 0.15677,0.124817 0.22336,0.199581 0.11195,0.125698 0.19708,0.273407 0.26078,0.428864 0.0391,0.0954 0.0658,0.195184 0.0994,0.292511 0.014,0.04052 0.0236,0.08513 0.0523,0.11778 0.041,0.04677 0.10116,0.07485 0.16302,0.07961 0.0786,0.006 0.15676,-0.01787 0.22569,-0.05409 0.0835,-0.04386 0.1587,-0.104809 0.21559,-0.180221 0.0289,-0.03836 0.0506,-0.08203 0.063,-0.128713 0.029,-0.10949 0.022,-0.225327 -0.002,-0.334971 -0.0371,-0.16731 -0.10895,-0.323776 -0.17164,-0.482451 -0.0273,-0.06917 -0.0534,-0.139015 -0.0726,-0.210962"
       id="path195"
       inkscape:path-effect="#path-effect197"
       inkscape:original-d="m 161.49829,31.22513 c -0.0107,-0.425061 -0.0651,-0.623949 -0.32814,-0.885494 -0.21699,-0.215744 -0.36559,-0.446009 -0.62966,-0.61426 -0.147,-0.09366 -1.52334,-0.86537 -1.41895,-0.239326 0.0153,0.092 0.0745,0.285856 0.1419,0.358984 0.29577,0.320828 0.77894,0.417928 1.09969,0.733922 0.37576,0.370203 0.39344,0.819733 0.47889,0.909424 0.19907,0.208941 0.59182,-0.0567 0.65627,-0.26325 0.10912,-0.349681 -0.15413,-0.730692 -0.23945,-1.053021" />
    <path
       style="fill:none;stroke:#000000;stroke-width:0.264583px;stroke-linecap:butt;stroke-linejoin:miter;stroke-opacity:1"
       d="m 137.88157,104.12971 c -0.14615,-0.011 -0.28897,-0.049 -0.42614,-0.0996 -0.19197,-0.0709 -0.37509,-0.16602 -0.57345,-0.21922 -0.12752,-0.0342 -0.26095,-0.0509 -0.39255,-0.0382 -0.11456,0.0111 -0.22244,0.0555 -0.32516,0.10509 -0.1059,0.0511 -0.20959,0.10735 -0.32009,0.14842 -0.23381,0.0869 -0.48039,0.13357 -0.71403,0.22078 -0.1156,0.0432 -0.22972,0.0967 -0.32399,0.17777 -0.0721,0.062 -0.12791,0.14315 -0.15749,0.23381 -0.038,0.11656 -0.036,0.24248 -0.0152,0.36204 0.0186,0.10696 0.0469,0.2144 0.10367,0.30809 0.0463,0.0765 0.11548,0.13807 0.19536,0.178 0.05,0.025 0.10335,0.0437 0.15867,0.0527 0.10594,0.0173 0.21364,0.0205 0.32077,0.0202 0.25179,-5.4e-4 0.50328,-0.0187 0.75352,-0.0455 0.32495,-0.0348 0.6491,-0.0811 0.96843,-0.15101 0.17288,-0.0379 0.34597,-0.0788 0.51147,-0.14212 0.0755,-0.0289 0.15189,-0.0593 0.21718,-0.10759 0.043,-0.0318 0.0797,-0.0713 0.11269,-0.11314 0.0816,-0.1035 0.1418,-0.22585 0.16396,-0.35639 0.0177,-0.10399 0.005,-0.21396 -0.0418,-0.30907 -0.0471,-0.0949 -0.11188,-0.21166 -0.21596,-0.22505 -0.043,-0.006 -0.0866,-0.004 -0.12994,-0.004 -0.26613,-4.8e-4 -0.53224,0.003 -0.79837,0.005 -0.26194,0.001 -0.524,0.005 -0.78585,-0.002 -0.0706,-0.002 -0.1415,-0.002 -0.2116,-0.0112 -0.006,-7.1e-4 -0.011,-0.002 -0.0164,-0.003"
       id="path203"
       inkscape:path-effect="#path-effect205"
       inkscape:original-d="m 137.88157,104.12971 c -0.53264,-0.0419 -0.83845,-0.38608 -1.36574,-0.35898 -0.22642,0.0116 -0.42382,0.15742 -0.62966,0.23932 -0.59185,0.23548 -1.42352,0.218 -1.24159,1.06897 0.0485,0.22675 0.14269,0.38556 0.37248,0.46269 0.40229,0.13502 2.51667,-0.10991 2.87338,-0.43078 0.23231,-0.20896 0.44083,-0.70225 -0.009,-0.98122 -0.0274,-0.017 -1.74349,0.0224 -1.94219,-0.016" />
    <path
       style="fill:none;stroke:#000000;stroke-width:0.264583px;stroke-linecap:butt;stroke-linejoin:miter;stroke-opacity:1"
       d="m 137.33173,101.13818 c 0.0241,-0.0903 0.0503,-0.1811 0.0567,-0.27457 0.003,-0.0423 0.007,-0.0888 -0.0157,-0.12663 -0.0253,-0.0428 -0.082,-0.0384 -0.12392,-0.029 -0.0754,0.0169 -0.14709,0.0465 -0.21956,0.0727 -0.0788,0.0285 -0.15782,0.0573 -0.24011,0.0745 -0.14741,0.0309 -0.29894,0.041 -0.44388,0.0843 -0.0603,0.018 -0.11462,0.0506 -0.16836,0.0824 -0.16333,0.0968 -0.32238,0.20074 -0.47836,0.3089 -0.14453,0.10022 -0.28908,0.20119 -0.42309,0.31525 -0.0503,0.0428 -0.0969,0.0897 -0.1429,0.13747 -0.0342,0.0356 -0.0332,0.087 -0.0368,0.13279 -0.016,0.20809 0.0221,0.41863 0.0994,0.61182 0.0804,0.20116 0.2045,0.38725 0.37077,0.52754 0.12917,0.10899 0.2866,0.18548 0.45399,0.21302 0.10856,0.0179 0.21976,0.0124 0.32779,-0.007 0.20347,-0.0358 0.39978,-0.10436 0.58935,-0.18511 0.30816,-0.13126 0.60303,-0.29327 0.88136,-0.47934 0.22792,-0.15237 0.44876,-0.318 0.64241,-0.51262 0.10826,-0.1088 0.21244,-0.22499 0.28538,-0.36086 0.0427,-0.0796 0.0761,-0.16852 0.0711,-0.26037 -0.004,-0.0694 -0.0378,-0.13503 -0.0889,-0.18173 -0.0709,-0.0649 -0.16279,-0.1013 -0.25452,-0.12508 -0.17239,-0.0447 -0.35164,-0.0551 -0.52901,-0.0552 -0.20487,-9e-5 -0.40948,0.0149 -0.61312,0.0364 z"
       id="path207"
       inkscape:path-effect="#path-effect209"
       inkscape:original-d="m 137.33173,101.13818 c 0.16635,-0.6102 -0.0349,-0.44237 -0.43456,-0.31112 -0.18391,0.0604 -0.41826,0.0573 -0.59418,0.12764 -0.16015,0.064 -1.17392,0.73067 -1.19725,0.87752 -0.10224,0.6438 0.38127,1.5104 1.13517,1.44391 1.25066,-0.1103 4.44375,-2.4951 1.09082,-2.13795 z" />
    <path
       style="fill:none;stroke:#000000;stroke-width:0.264583px;stroke-linecap:butt;stroke-linejoin:miter;stroke-opacity:1"
       d="m 151.08671,91.341928 c -0.22699,-0.02687 -0.45639,-0.04481 -0.6848,-0.02886 -0.13086,0.0091 -0.26309,0.02672 -0.38603,0.07422 -0.076,0.02937 -0.14986,0.07152 -0.20195,0.135646 -0.0405,0.04987 -0.0616,0.114328 -0.06,0.178528 0.002,0.08279 0.0351,0.161737 0.0789,0.230769 0.0686,0.108136 0.16174,0.198851 0.26336,0.275777 0.17017,0.128819 0.36547,0.223603 0.57051,0.282071 0.23191,0.06613 0.47974,0.08393 0.71694,0.03529 0.19265,-0.03951 0.37517,-0.126237 0.52792,-0.250089 0.10304,-0.08355 0.1999,-0.17683 0.27499,-0.286713 0.0544,-0.07962 0.0977,-0.169394 0.10965,-0.266063 0.009,-0.07628 -0.006,-0.155193 -0.044,-0.22223 -0.0458,-0.08122 -0.11836,-0.143561 -0.19643,-0.192673 -0.0641,-0.04031 -0.13395,-0.06999 -0.20352,-0.09948 -0.0729,-0.03089 -0.14117,-0.07385 -0.21871,-0.09281 -0.0359,-0.0088 -0.0736,-0.0092 -0.10998,-0.0019 -0.0914,0.0185 -0.17314,0.06617 -0.25096,0.11553 -0.0612,0.03882 -0.12119,0.07991 -0.18581,0.112967 z"
       id="path211"
       inkscape:path-effect="#path-effect213"
       inkscape:original-d="m 151.08671,91.341928 c -2.82123,-0.34028 -0.48752,1.992712 0.82477,0.933355 0.44667,-0.360582 0.5982,-0.807032 -0.0443,-1.060992 -0.10668,-0.04217 -0.21493,-0.122222 -0.32813,-0.103709 -0.16712,0.02733 -0.30153,0.154231 -0.4523,0.231346 z" />
    <path
       style="fill:none;stroke:#000000;stroke-width:0.264583px;stroke-linecap:butt;stroke-linejoin:miter;stroke-opacity:1"
       d="m 148.61241,90.129362 c -0.20809,0.0088 -0.41704,0.04193 -0.612,0.117023 -0.13617,0.05245 -0.26662,0.125235 -0.37215,0.227017 -0.0729,0.07026 -0.13389,0.155361 -0.16516,0.252399 -0.024,0.07453 -0.0274,0.15656 -0.004,0.231728 0.0232,0.07346 0.0733,0.136536 0.13511,0.181706 0.0792,0.05782 0.17472,0.08925 0.2708,0.104196 0.14005,0.02178 0.28329,0.01264 0.42235,-0.01159 0.21025,-0.03664 0.41162,-0.11061 0.60926,-0.189992 0.0346,-0.0139 0.0691,-0.02969 0.0973,-0.0549 0.0474,-0.04244 0.084,-0.09564 0.11425,-0.15127 0.0454,-0.08358 0.0793,-0.174099 0.0944,-0.268107 0.0103,-0.06419 0.0129,-0.131315 -0.006,-0.194341 -0.0128,-0.04351 -0.0383,-0.08512 -0.0775,-0.108959 -0.0332,-0.02019 -0.0702,-0.033 -0.10637,-0.0468 -0.11395,-0.04349 -0.2336,-0.07539 -0.35609,-0.07975 -0.10519,-0.0038 -0.20966,0.01479 -0.3114,0.03988 -0.1135,0.02799 -0.22581,0.0606 -0.33929,0.08872 -0.0316,0.0078 -0.0632,0.01537 -0.0949,0.0226"
       id="path215"
       inkscape:path-effect="#path-effect217"
       inkscape:original-d="m 148.61241,90.129362 c -1.67134,0.06897 -1.54164,1.724294 0.32813,0.893471 0.18943,-0.08417 0.4133,-0.661355 0.15077,-0.773808 -0.49168,-0.210611 -0.65104,-0.08046 -1.17951,0.03989" />
    <path
       style="fill:none;stroke:#000000;stroke-width:0.264583px;stroke-linecap:butt;stroke-linejoin:miter;stroke-opacity:1"
       d="m 142.74149,86.188522 c -0.0992,0.02994 -0.18941,0.08448 -0.26975,0.149041 -0.11659,0.09369 -0.21599,0.207903 -0.29752,0.332994 -0.0794,0.121827 -0.14417,0.254492 -0.18083,0.395547 -0.0259,0.0995 -0.038,0.204183 -0.0221,0.306383 0.0124,0.07933 0.045,0.1561 0.0977,0.217228 0.0553,0.0641 0.13066,0.108131 0.21028,0.134938 0.0989,0.0333 0.20412,0.04595 0.30799,0.04332 0.0506,-0.0013 0.0979,-0.02395 0.13862,-0.05263 0.0585,-0.04122 0.10818,-0.09307 0.16042,-0.141587 0.10206,-0.09479 0.19975,-0.195975 0.27742,-0.312039 0.0493,-0.07369 0.0917,-0.153945 0.11058,-0.241218 0.0138,-0.06392 0.0118,-0.13238 -0.013,-0.193529 -0.0248,-0.06105 -0.072,-0.111023 -0.12732,-0.14584 -0.0689,-0.04334 -0.14915,-0.06776 -0.23011,-0.07284 -0.0559,-0.0035 -0.11368,7.19e-4 -0.16581,0.02259 -0.0359,0.01504 -0.0704,0.04356 -0.0763,0.08416"
       id="path219"
       inkscape:path-effect="#path-effect221"
       inkscape:original-d="m 142.74149,86.188522 c -0.62889,0.187804 -1.30027,1.579529 -0.15963,1.579529 0.11514,0 0.20768,-0.105789 0.29266,-0.183481 1.01219,-0.925425 -0.17018,-1.138264 -0.21284,-0.869537" />
    <path
       style="fill:none;stroke:#000000;stroke-width:0.264583px;stroke-linecap:butt;stroke-linejoin:miter;stroke-opacity:1"
       d="m 158.97964,115.90436 c -0.0876,0.0173 -0.17531,0.0357 -0.25987,0.0647 -0.0669,0.023 -0.13206,0.0544 -0.18513,0.10198 -0.0496,0.0444 -0.0857,0.10172 -0.11375,0.16154 -0.0361,0.0768 -0.0625,0.15763 -0.0886,0.23819 -0.0168,0.0516 -0.0215,0.10842 -0.006,0.16102 0.0148,0.0493 0.0479,0.0916 0.088,0.12304 0.0545,0.0427 0.12003,0.0692 0.18679,0.0857 0.0991,0.0245 0.20255,0.0296 0.30385,0.0189 0.0943,-0.01 0.18828,-0.0329 0.27305,-0.0761 0.061,-0.0311 0.11758,-0.0739 0.15655,-0.1309 0.0307,-0.045 0.0475,-0.099 0.0484,-0.15347 0.001,-0.0717 -0.0224,-0.14152 -0.0556,-0.20419 -0.0469,-0.0885 -0.11123,-0.1664 -0.18085,-0.23778 -0.0527,-0.054 -0.1089,-0.10449 -0.16703,-0.15257 z"
       id="path223"
       inkscape:path-effect="#path-effect225"
       inkscape:original-d="m 158.97964,115.90436 c -0.45119,0.0879 -0.51969,0.16776 -0.64739,0.5664 -0.21648,0.67581 1.91107,0.47814 0.64739,-0.5664 z" />
    <path
       style="fill:none;stroke:#000000;stroke-width:0.264583px;stroke-linecap:butt;stroke-linejoin:miter;stroke-opacity:1"
       d="m 166.0212,116.41491 c -0.13065,-0.0598 -0.24593,-0.15281 -0.3844,-0.1945 -0.0489,-0.0147 -0.10145,-0.0309 -0.15259,-0.0161 -0.0726,0.021 -0.13122,0.0711 -0.19888,0.10298 -0.20965,0.0988 -0.39712,0.24402 -0.54484,0.42275 -0.16963,0.20524 -0.2849,0.45192 -0.35022,0.7092 -0.0656,0.25831 -0.0882,0.52812 -0.0624,0.79299 0.007,0.0677 0.0457,0.12772 0.0944,0.17333 0.0727,0.0682 0.16254,0.11454 0.25333,0.15371 0.11419,0.0493 0.23453,0.0817 0.35168,0.12289 0.24465,0.086 0.49001,0.1723 0.74334,0.22939 0.215,0.0485 0.43677,0.0773 0.65727,0.0583 0.1745,-0.015 0.34713,-0.0645 0.49875,-0.15336 0.15708,-0.0921 0.28631,-0.22534 0.39324,-0.3713 0.14803,-0.20207 0.26043,-0.42982 0.33458,-0.66881 0.0647,-0.20853 0.10282,-0.42769 0.0906,-0.64647 -0.009,-0.16654 -0.0509,-0.3343 -0.14063,-0.47653 -0.0745,-0.11802 -0.18482,-0.2117 -0.31108,-0.27064 -0.16141,-0.0754 -0.34232,-0.0996 -0.51894,-0.0952 -0.17593,0.004 -0.34706,0.0493 -0.518,0.0867 -0.0912,0.0199 -0.18338,0.0347 -0.27617,0.0452 -0.18688,0.0211 -0.37441,0.0386 -0.55976,0.0711 -0.15301,0.0269 -0.30508,0.0683 -0.44318,0.14108 -0.15513,0.0818 -0.28685,0.20105 -0.40443,0.32978 -0.0871,0.0953 -0.16765,0.19629 -0.24558,0.29911"
       id="path227"
       inkscape:path-effect="#path-effect229"
       inkscape:original-d="m 166.0212,116.41491 c -0.15667,-0.0718 -0.29968,-0.18922 -0.47002,-0.21539 -0.0914,-0.014 -0.17344,0.0646 -0.25719,0.10371 -0.74072,0.34596 -1.02672,1.13379 -0.96666,1.92256 0.0211,0.27663 0.53214,0.39715 0.71835,0.46269 0.5904,0.20781 1.40069,0.49384 1.97766,0.0638 0.74932,-0.55848 1.25012,-2.47504 -0.23058,-2.46502 -0.26067,0.002 -0.51247,0.0989 -0.77156,0.12763 -0.88282,0.0981 -1.12753,0.0974 -1.69387,0.84561" />
    <path
       style="fill:none;stroke:#000000;stroke-width:0.264583px;stroke-linecap:butt;stroke-linejoin:miter;stroke-opacity:1"
       d="m 167.28053,120.54721 c -0.10995,-0.0808 -0.1992,-0.18754 -0.31502,-0.26047 -0.0436,-0.0274 -0.0895,-0.0562 -0.14082,-0.0637 -0.054,-0.008 -0.10726,0.0139 -0.15232,0.0417 -0.0664,0.0409 -0.12321,0.0957 -0.17385,0.15451 -0.0845,0.0982 -0.15494,0.20834 -0.21077,0.32514 -0.0499,0.1044 -0.0904,0.21457 -0.10747,0.32935 -0.0115,0.0769 -0.0129,0.15708 0.01,0.23215 0.0146,0.0482 0.0422,0.0919 0.0786,0.12687 0.11505,0.11056 0.2556,0.19199 0.40354,0.25 0.17382,0.0682 0.35912,0.1079 0.5457,0.11453 0.12881,0.005 0.25965,-0.005 0.38334,-0.0426 0.0804,-0.0247 0.15876,-0.062 0.22007,-0.12065 0.0465,-0.0445 0.0795,-0.10331 0.0909,-0.16691 0.0144,-0.0799 -0.003,-0.16217 -0.0334,-0.23629 -0.0434,-0.10606 -0.10982,-0.20111 -0.18325,-0.28837 -0.12331,-0.14653 -0.26665,-0.27495 -0.41523,-0.3952 z"
       id="path231"
       inkscape:path-effect="#path-effect233"
       inkscape:original-d="m 167.28053,120.54721 c -0.14485,-0.10636 -0.26387,-0.26287 -0.43456,-0.31909 -0.29568,-0.0974 -0.90032,0.88526 -0.58531,1.19661 0.69532,0.68724 2.66021,0.4443 1.01987,-0.87752 z" />
    <path
       style="fill:none;stroke:#000000;stroke-width:0.264583px;stroke-linecap:butt;stroke-linejoin:miter;stroke-opacity:1"
       d="M 3.1636935,88.459396 C 4.3525481,88.264186 5.5721842,88.33754 6.7529709,88.084155 7.2119023,87.985673 7.6727061,87.85338 8.0763802,87.6111 8.4868186,87.36476 8.8546793,87.054543 9.2104158,86.736403 10.126316,85.9173 10.980525,85.031347 11.800374,84.117052 c 0.907373,-1.011902 1.79255,-2.047999 2.577236,-3.158541 0.346961,-0.491043 0.685446,-0.992179 0.948465,-1.534453 0.226535,-0.467054 0.302058,-0.993827 0.281562,-1.509025 -0.03211,-0.807114 -0.256148,-1.588133 -0.409192,-2.376931 -0.101288,-0.522043 -0.195996,-1.057258 -0.13626,-1.588705 0.03717,-0.330653 0.221531,-0.616395 0.331636,-0.924243 0.103194,-0.288525 0.141709,-0.595585 0.16335,-0.899715 0.04599,-0.646358 0.0051,-1.299602 0.120537,-1.940602 0.0701,-0.389207 0.26027,-0.740081 0.419387,-1.097593 0.101598,-0.228275 0.169098,-0.469173 0.227184,-0.71299 0.05705,-0.239471 0.221712,-0.432622 0.379582,-0.613811 0.180141,-0.20675 0.394444,-0.394217 0.511806,-0.645273 0.161873,-0.346273 0.301144,-0.702953 0.427338,-1.063543 0.159898,-0.456897 0.322665,-0.918298 0.390215,-1.398737 0.02575,-0.183137 0.05055,-0.373999 0.003,-0.555874 -0.02208,-0.08443 -0.0858,-0.16777 -0.179278,-0.174331 -0.142691,-0.01002 -0.280675,0.04159 -0.41204,0.09064 -0.180666,0.06746 -0.353998,0.151745 -0.535576,0.217684 -0.437538,0.158889 -0.840657,0.414242 -1.162651,0.751959 -0.425369,0.44614 -0.714556,0.99573 -1.066521,1.496961 -0.246767,0.351419 -0.537415,0.669272 -0.838792,0.974071 -0.461029,0.466264 -0.980256,0.880346 -1.561465,1.186254 -0.216201,0.113793 -0.40238,0.290719 -0.642506,0.353663 -0.109168,0.02862 -0.234654,0.03158 -0.332041,-0.0362 -0.09563,-0.06656 -0.174992,-0.155877 -0.285266,-0.202196 -0.421738,-0.177143 -0.855709,-0.324289 -1.29361,-0.45553 -0.4919126,-0.147428 -0.9874375,-0.297919 -1.4982406,-0.358577 -0.1828221,-0.02171 -0.37608,-0.06208 -0.5532992,-0.0043 -0.708727,0.230913 -1.4350256,0.426421 -2.1015026,0.76701 -0.3956641,0.202196 -0.7847422,0.451946 -1.0494887,0.814567 -0.2042663,0.279782 -0.267643,0.640125 -0.4989686,0.903171 -0.3595648,0.40887 -0.7651857,0.77467 -1.1839776,1.121591 -0.3202991,0.265331 -0.6578276,0.508826 -1.0017944,0.742521 -0.4870249,0.33089 -1.2296509,0.511499 -1.39971507,1.078413 -0.0242412,0.08081 -0.0278721,0.166748 -0.0353425,0.25055 -0.0696913,0.781797 -0.10102937,1.566732 -0.17901167,2.347756 -0.024961,0.249994 -0.0775827,0.496207 -0.12676159,0.742263 -0.14417707,0.72136 -0.31050122,1.445793 -0.31317903,2.185527 -0.001329,0.367241 0.055657,0.733332 0.1607513,1.085191 0.18380855,0.615396 0.47866233,1.191648 0.63898102,1.815466 0.32067524,1.247784 0.59928591,2.514787 1.09724791,3.706711 0.057237,0.137002 0.1086256,0.277836 0.1935756,0.401244 0.2089054,0.303479 0.4534732,0.580356 0.6990205,0.85423 0.2981666,0.332564 0.8788169,0.532875 0.9158291,0.977958 0.00927,0.111507 -0.063915,0.206633 -0.1270139,0.290963 -0.080323,0.107349 -0.1677606,0.208439 -0.2466662,0.317886 -0.038618,0.05357 0.00347,0.107858 0.064805,0.124392 0.1608066,0.04335 0.3236156,-0.02719 0.4593801,-0.109793 0.2216259,-0.134852 0.4157945,-0.323722 0.6699166,-0.39878 0.1899056,-0.05609 0.3936154,-0.100477 0.5916714,-0.05656 0.071936,0.01595 0.1278445,0.07016 0.1966027,0.09242 0.060612,0.01963 0.094846,-0.05379 0.1175256,-0.09629 0.1262836,-0.23661 0.2355271,-0.481845 0.3518723,-0.723416 0.018145,-0.03768 0.036335,-0.07533 0.054572,-0.112965"
       id="path239"
       inkscape:path-effect="#path-effect241"
       inkscape:original-d="m 3.1636935,88.459396 c 1.578791,-0.261593 3.3189746,-0.04674 4.794605,-0.784161 1.5975081,-0.798328 6.7507875,-6.520691 7.4721195,-8.499713 0.594939,-1.632255 -0.483083,-3.492598 -0.373607,-5.167043 0.02777,-0.424788 0.284368,-0.747575 0.38917,-1.148233 0.225141,-0.860708 0.05279,-1.87574 0.249072,-2.758551 0.12968,-0.583266 0.516971,-1.076257 0.622678,-1.694344 0.08079,-0.472406 0.695214,-0.871813 0.902877,-1.302264 0.21756,-0.450963 1.205572,-2.912253 0.700513,-3.164639 -0.197127,-0.09851 -0.749106,0.200182 -0.902883,0.252053 -1.581512,0.533479 -1.75705,1.67599 -2.708642,2.758556 -0.609557,0.693458 -1.222408,1.255512 -2.039261,1.694342 -0.268996,0.14451 -0.537999,0.40491 -0.840612,0.364074 -0.14634,-0.01974 -0.238934,-0.177479 -0.373607,-0.238048 -0.582684,-0.262064 -2.838448,-1.015309 -3.409154,-0.826169 -0.9750205,0.323135 -2.4124121,0.677148 -3.0978125,1.540311 -0.2212795,0.27867 -0.2796421,0.653484 -0.5137063,0.924187 -0.4447029,0.514313 -1.1371098,1.112753 -1.6967926,1.526305 -0.6252668,0.462013 -1.35487747,0.868714 -1.89916237,1.428289 -0.0485532,0.04992 -0.17414187,2.390675 -0.2335077,2.758557 -0.1674953,1.037944 -0.52947905,2.189887 -0.38917067,3.262659 0.11041924,0.844243 0.54330043,1.535755 0.74720875,2.32447 0.35801588,1.384806 0.65243559,2.704944 1.21421889,4.018807 0.1956788,0.457642 1.7118373,1.998583 1.7123614,2.002403 0.036176,0.263586 -0.5813279,0.650338 -0.3269054,0.728152 0.3853924,0.117867 0.7222093,-0.36481 1.1052522,-0.490103 1.218824,-0.398675 0.5439997,0.762029 1.3543182,-0.910183" />
  </g>
</svg>
