<?xml version="1.0" encoding="UTF-8" standalone="no"?>
<!-- Created with Inkscape (http://www.inkscape.org/) -->

<svg
   width="169.33333mm"
   height="127mm"
   viewBox="0 0 169.33333 127"
   version="1.1"
   id="svg5"
   inkscape:version="1.1.2 (08b2f3d93c, 2022-04-05)"
   sodipodi:docname="CristasEpidermicas.svg"
   xmlns:inkscape="http://www.inkscape.org/namespaces/inkscape"
   xmlns:sodipodi="http://sodipodi.sourceforge.net/DTD/sodipodi-0.dtd"
   xmlns="http://www.w3.org/2000/svg"
   xmlns:svg="http://www.w3.org/2000/svg">
  <sodipodi:namedview
     id="namedview7"
     pagecolor="#ffffff"
     bordercolor="#666666"
     borderopacity="1.0"
     inkscape:pageshadow="2"
     inkscape:pageopacity="0.0"
     inkscape:pagecheckerboard="0"
     inkscape:document-units="mm"
     showgrid="false"
     inkscape:zoom="0.6176545"
     inkscape:cx="234.75908"
     inkscape:cy="314.90097"
     inkscape:window-width="1366"
     inkscape:window-height="704"
     inkscape:window-x="0"
     inkscape:window-y="27"
     inkscape:window-maximized="1"
     inkscape:current-layer="layer2" />
  <defs
     id="defs2">
    <inkscape:path-effect
       effect="simplify"
       id="path-effect93"
       is_visible="true"
       lpeversion="1"
       steps="1"
       threshold="0.000408163"
       smooth_angles="360"
       helper_size="0"
       simplify_individual_paths="false"
       simplify_just_coalesce="false" />
    <inkscape:path-effect
       effect="simplify"
       id="path-effect89"
       is_visible="true"
       lpeversion="1"
       steps="1"
       threshold="0.000408163"
       smooth_angles="360"
       helper_size="0"
       simplify_individual_paths="false"
       simplify_just_coalesce="false" />
    <inkscape:path-effect
       effect="simplify"
       id="path-effect85"
       is_visible="true"
       lpeversion="1"
       steps="1"
       threshold="0.000408163"
       smooth_angles="360"
       helper_size="0"
       simplify_individual_paths="false"
       simplify_just_coalesce="false" />
    <inkscape:path-effect
       effect="simplify"
       id="path-effect81"
       is_visible="true"
       lpeversion="1"
       steps="1"
       threshold="0.000408163"
       smooth_angles="360"
       helper_size="0"
       simplify_individual_paths="false"
       simplify_just_coalesce="false" />
    <inkscape:path-effect
       effect="simplify"
       id="path-effect77"
       is_visible="true"
       lpeversion="1"
       steps="1"
       threshold="0.000408163"
       smooth_angles="360"
       helper_size="0"
       simplify_individual_paths="false"
       simplify_just_coalesce="false" />
    <inkscape:path-effect
       effect="simplify"
       id="path-effect73"
       is_visible="true"
       lpeversion="1"
       steps="1"
       threshold="0.000408163"
       smooth_angles="360"
       helper_size="0"
       simplify_individual_paths="false"
       simplify_just_coalesce="false" />
    <inkscape:path-effect
       effect="simplify"
       id="path-effect69"
       is_visible="true"
       lpeversion="1"
       steps="1"
       threshold="0.000408163"
       smooth_angles="360"
       helper_size="0"
       simplify_individual_paths="false"
       simplify_just_coalesce="false" />
    <inkscape:path-effect
       effect="simplify"
       id="path-effect65"
       is_visible="true"
       lpeversion="1"
       steps="1"
       threshold="0.000408163"
       smooth_angles="360"
       helper_size="0"
       simplify_individual_paths="false"
       simplify_just_coalesce="false" />
    <inkscape:path-effect
       effect="simplify"
       id="path-effect61"
       is_visible="true"
       lpeversion="1"
       steps="1"
       threshold="0.000408163"
       smooth_angles="360"
       helper_size="0"
       simplify_individual_paths="false"
       simplify_just_coalesce="false" />
    <inkscape:path-effect
       effect="simplify"
       id="path-effect57"
       is_visible="true"
       lpeversion="1"
       steps="1"
       threshold="0.000408163"
       smooth_angles="360"
       helper_size="0"
       simplify_individual_paths="false"
       simplify_just_coalesce="false" />
  </defs>
  <g
     inkscape:groupmode="layer"
     id="layer2"
     inkscape:label="Crista Epidermica">
    <path
       style="fill:none;stroke:#000000;stroke-width:0.264583px;stroke-linecap:butt;stroke-linejoin:miter;stroke-opacity:1"
       d="m 33.48614,118.20337 c -0.435702,-0.0201 -0.879729,-0.009 -1.30329,-0.1289 -0.207241,-0.0586 -0.414471,-0.13817 -0.582868,-0.27288 -0.08013,-0.0641 -0.08123,-0.17598 -0.07781,-0.26974 0.0038,-0.10334 0.0098,-0.21278 -0.04362,-0.3077 -0.162787,-0.28951 -0.349832,-0.56522 -0.551711,-0.82862 -0.184987,-0.24136 -0.372775,-0.48586 -0.607952,-0.68028 -0.102226,-0.0845 -0.21914,-0.17095 -0.358511,-0.16998 -0.219437,0.002 -0.414519,0.11491 -0.620531,0.17429 -0.418984,0.12077 -0.842463,0.25393 -1.210601,0.49464 -0.174182,0.11389 -0.32933,0.25567 -0.459051,0.41879 -0.275412,0.34633 -0.477331,0.75076 -0.79972,1.05938 -0.17422,0.16678 -0.39394,0.28311 -0.63053,0.33604 -0.372082,0.0832 -0.745787,0.18111 -1.12891,0.18752 -0.414478,0.007 -0.820303,-0.14099 -1.23559,-0.0918 -0.139517,0.0165 -0.273683,0.0597 -0.410064,0.0918 -0.475975,0.11198 -0.962668,0.19328 -1.419143,0.37403 -0.479288,0.18978 -0.891904,0.50481 -1.319681,0.7853 -0.323997,0.21244 -0.670839,0.39664 -1.046703,0.49969 -0.712479,0.19534 -1.465147,0.18738 -2.171429,0.41118 -0.510121,0.16164 -0.947811,0.4807 -1.437892,0.68878 -1.177771,0.50005 -2.38278,0.94535 -3.510957,1.55331 -0.375958,0.2026 -0.755512,0.40816 -1.084953,0.6809 -0.199578,0.16523 -0.350054,0.38159 -0.564477,0.532 -0.370392,0.25981 -0.727769,0.53816 -1.0738543,0.82934 -0.3047127,0.25637 -0.6181142,0.50799 -0.8769864,0.81142 -0.080417,0.0943 -0.2267404,0.18305 -0.2102808,0.30786 0.00643,0.0487 0.05055,0.0857 0.090945,0.10732 0.057701,0.0309 0.0342,0.10657 0.0263,0.15805 -0.025153,0.16393 -0.081139,0.32081 -0.1307997,0.47838"
       id="path59"
       inkscape:path-effect="#path-effect61"
       inkscape:original-d="m 33.48614,118.20337 c -0.657969,-0.0294 -1.286545,0.004 -1.87053,-0.39017 -0.176496,-0.11907 -0.03362,-0.39195 -0.121992,-0.56087 -0.199773,-0.38185 -1.025337,-1.58903 -1.436785,-1.69478 -0.221914,-0.057 -0.497258,0.0988 -0.704839,0.15851 -0.518187,0.14916 -1.03582,0.31058 -1.450343,0.6706 -0.543885,0.47237 -0.798028,1.4475 -1.626548,1.63381 -0.371382,0.0835 -0.86062,0.20595 -1.247021,0.19509 -0.428969,-0.0121 -0.885486,-0.17455 -1.314794,-0.061 -0.559731,0.14809 -1.213478,0.24049 -1.734988,0.46333 -0.796303,0.34025 -1.368826,0.97942 -2.209396,1.23146 -0.758318,0.22738 -1.557747,0.1993 -2.304279,0.45113 -0.472477,0.15938 -0.874057,0.45118 -1.328351,0.64621 -1.392402,0.59779 -3.434148,1.34074 -4.622112,2.23126 -0.215579,0.16161 -0.352133,0.39302 -0.582847,0.54868 -0.433155,0.29223 -2.0583948,1.55437 -2.1822885,1.96302 -0.011411,0.0376 0.1209674,0.12675 0.1219911,0.13412 0.022889,0.1647 -0.1114089,0.5252 -0.1355452,0.60963" />
    <path
       style="fill:none;stroke:#000000;stroke-width:0.264583px;stroke-linecap:butt;stroke-linejoin:miter;stroke-opacity:1"
       d="m 33.48614,118.20337 c 0.169516,-0.45226 0.306695,-0.91799 0.508071,-1.35698 0.164839,-0.35934 0.339523,-0.71419 0.520991,-1.06538 0.170721,-0.33039 0.32769,-0.67036 0.536909,-0.97814 0.05259,-0.0774 0.103035,-0.16004 0.183754,-0.21315 0.233919,-0.15391 0.518549,-0.2008 0.793329,-0.21535 0.386456,-0.0205 0.774781,0.0279 1.160105,-0.0177 0.199426,-0.0236 0.390893,-0.0881 0.579663,-0.15338 0.355184,-0.12291 0.711047,-0.25554 1.032656,-0.45162 0.142793,-0.0871 0.287018,-0.18274 0.387142,-0.3197 0.04254,-0.0582 0.05786,-0.12975 0.06352,-0.20138 0.01607,-0.20345 -0.01655,-0.42487 -0.153584,-0.58473 -0.142062,-0.16572 -0.360558,-0.23868 -0.569877,-0.27006 -0.376063,-0.0564 -0.757381,-0.02 -1.134756,0.002 -0.27097,0.0158 -0.545383,0.0483 -0.814944,0.006 -0.120791,-0.0189 -0.266426,-0.0465 -0.330063,-0.15866 -0.06291,-0.11091 -0.100664,-0.23544 -0.131706,-0.35851 -0.05708,-0.2263 -0.0582,-0.47988 0.0606,-0.68785 0.128838,-0.22553 0.366745,-0.36224 0.605553,-0.44399 0.391463,-0.13401 0.808435,-0.16937 1.219401,-0.18144 0.63898,-0.0188 1.276514,0.0368 1.913858,0.0726 0.521128,0.0293 1.038919,-0.0604 1.548652,-0.15858 0.351599,-0.0677 0.701392,-0.1548 1.058666,-0.18267 0.276467,-0.0216 0.552602,0.0252 0.822589,0.0799 0.279111,0.0565 0.557084,0.11781 0.836707,0.17253 0.640129,0.12526 1.235062,0.41982 1.774101,0.78018 0.46697,0.31218 0.848268,0.73407 1.298707,1.06865 0.08556,0.0636 0.195466,0.079 0.298234,0.0924 0.217826,0.0284 0.439248,0.0193 0.656069,0.0559 0.105323,0.0178 0.194948,0.0804 0.285414,0.13292 0.178684,0.10375 0.350158,0.22888 0.548976,0.28919 0.06023,0.0183 0.137658,0.0518 0.190263,0.01 0.05715,-0.0455 0.0817,-0.11852 0.103151,-0.18548 0.06274,-0.19582 0.0789,-0.4025 0.121462,-0.60304 0.03434,-0.16182 0.154404,-0.28482 0.266034,-0.39936 0.08703,-0.0893 0.18868,-0.1703 0.246981,-0.28196 0.08044,-0.15406 0.07691,-0.33214 0.106113,-0.49943 0.01744,-0.0999 0.05936,-0.19401 0.120238,-0.27592 0.105493,-0.14194 0.23449,-0.26932 0.312099,-0.42967 0.02555,-0.0528 0.04524,-0.11962 0.0079,-0.17314 -0.086,-0.12328 -0.191925,-0.23095 -0.295208,-0.33959 -0.222541,-0.23408 -0.465083,-0.44925 -0.677998,-0.69211 -0.206335,-0.23535 -0.360877,-0.50922 -0.536414,-0.76697 -0.142303,-0.20895 -0.305423,-0.40655 -0.507715,-0.5614 -0.503662,-0.38555 -1.064937,-0.68568 -1.622884,-0.98361 -0.266416,-0.14226 -0.534332,-0.28235 -0.789451,-0.44463 -0.510997,-0.32505 -0.973805,-0.71857 -1.469902,-1.06472 -0.274597,-0.1916 -0.592148,-0.3052 -0.893777,-0.4454 -0.207273,-0.0963 -0.408055,-0.21085 -0.579186,-0.36454 -0.226099,-0.20306 -0.421735,-0.44225 -0.681195,-0.60674 -0.424507,-0.26913 -0.908203,-0.42179 -1.386655,-0.56379 -0.273156,-0.0811 -0.554662,-0.13936 -0.818046,-0.24828 -0.149873,-0.062 -0.244874,-0.20085 -0.335803,-0.32771 -0.09692,-0.13522 -0.211654,-0.26928 -0.370941,-0.33055 -0.247699,-0.0953 -0.518339,-0.0966 -0.779596,-0.0793 -0.289549,0.0192 -0.585658,0.0564 -0.871112,-0.0135 -0.262387,-0.0643 -0.50622,-0.1848 -0.74843,-0.30134 -0.297065,-0.14293 -0.587589,-0.30568 -0.903563,-0.4032 -0.122286,-0.0377 -0.250601,-0.0689 -0.379501,-0.0573"
       id="path63"
       inkscape:path-effect="#path-effect65"
       inkscape:original-d="m 33.48614,118.20337 c 0.167174,-0.44707 0.333206,-0.89456 0.50152,-1.3412 0.04189,-0.11116 0.99649,-2.09007 1.20636,-2.24345 0.587182,-0.42915 1.518576,-0.13872 2.168731,-0.29263 0.323808,-0.0766 1.832335,-0.57088 1.88409,-1.03638 0.190902,-1.71703 -2.729256,-0.4233 -3.022671,-1.10954 -0.9408,-2.20033 2.968712,-1.52912 3.957936,-1.54846 0.796179,-0.0156 1.510409,-0.24113 2.290723,-0.3414 0.479518,-0.0616 1.147276,0.15082 1.626553,0.23166 1.196554,0.20183 2.313871,1.04371 3.14466,1.85329 0.162462,0.15831 0.770771,0.1016 1.016592,0.1707 0.173197,0.0487 0.763778,0.5033 0.962377,0.42674 0.130892,-0.0504 0.215178,-0.62559 0.230431,-0.75594 0.03287,-0.28086 0.328933,-0.45601 0.487966,-0.67061 0.150357,-0.20289 0.07814,-0.51854 0.203316,-0.74375 0.08883,-0.15981 0.433999,-0.48673 0.393084,-0.64621 -0.03455,-0.1347 -0.872316,-0.92701 -1.016593,-1.09734 -0.328194,-0.38748 -0.56448,-0.94004 -0.962377,-1.25585 -0.602935,-0.47854 -1.386641,-0.86788 -2.060294,-1.23146 -0.638101,-0.34439 -1.262531,-0.84479 -1.843426,-1.28023 -0.374243,-0.28054 -0.914631,-0.41282 -1.314797,-0.68279 -0.302368,-0.204 -0.514935,-0.5181 -0.813274,-0.71937 -0.651666,-0.43964 -1.496472,-0.59474 -2.236504,-0.8413 -0.326787,-0.10887 -0.377854,-0.54962 -0.772612,-0.68279 -0.535946,-0.18079 -1.04951,0.0382 -1.585886,-0.0731 -0.609254,-0.12647 -1.55365,-0.81878 -2.060295,-0.76814" />
    <path
       style="fill:none;stroke:#000000;stroke-width:0.264583px;stroke-linecap:butt;stroke-linejoin:miter;stroke-opacity:1"
       d="m 35.87174,101.52369 c -0.02379,-0.20168 -0.14271,-0.37577 -0.271563,-0.52648 -0.187604,-0.21943 -0.415114,-0.40284 -0.587449,-0.63563 -0.06194,-0.0837 -0.105497,-0.17891 -0.13836,-0.27772 -0.05503,-0.165457 -0.169605,-0.323308 -0.16187,-0.4976 0.0014,-0.03215 0.02818,0.03663 0.03899,0.05253 0.01774,0.02609 0.06255,0.110235 0.05814,0.08787 -0.02253,-0.114374 -0.06683,-0.223323 -0.0971,-0.335713 -0.01909,-0.07089 -0.04847,-0.141203 -0.1032,-0.19262 -0.145742,-0.136909 -0.364333,-0.16074 -0.506381,-0.301166 -0.07112,-0.0703 -0.113006,-0.163872 -0.153143,-0.253781 -0.104398,-0.233854 -0.177578,-0.484724 -0.325597,-0.696733 -0.07957,-0.11397 -0.193409,-0.205166 -0.328225,-0.246438 -0.132457,-0.04055 -0.276759,-0.0628 -0.386523,-0.156663 -0.263941,-0.225713 -0.435247,-0.537169 -0.567808,-0.853474 -0.166508,-0.397305 -0.259285,-0.823301 -0.446005,-1.211787 -0.100948,-0.210031 -0.307844,-0.352665 -0.388777,-0.573389 -0.06652,-0.181431 -0.05271,-0.378295 -0.04999,-0.568054 0.0017,-0.116316 0.01284,-0.235244 -0.01386,-0.349192 -0.04913,-0.20968 -0.20851,-0.379004 -0.235688,-0.595185 -0.02478,-0.197117 0.029,-0.391658 0.0506,-0.586404 0.01583,-0.142715 -0.0014,-0.286132 -0.01187,-0.428521 -0.04708,-0.638531 -0.133283,-1.280119 -0.07126,-1.92036 0.02218,-0.228969 0.05527,-0.459734 0.133726,-0.676625 0.117885,-0.325897 0.345957,-0.605091 0.423823,-0.946417 0.06555,-0.28736 0.02735,-0.583719 0.0024,-0.873538 -0.02212,-0.256927 -0.04712,-0.524937 0.03764,-0.772765 0.0449,-0.131288 0.106507,-0.256241 0.167119,-0.380783 0.335433,-0.68923 0.748799,-1.339065 1.210661,-1.949931 0.292662,-0.38708 0.580787,-0.785031 0.942338,-1.109012 0.140771,-0.126143 0.314726,-0.205803 0.48511,-0.283297 0.250172,-0.113783 0.506338,-0.21677 0.73802,-0.368139 0.982608,-0.641985 1.888362,-1.398979 2.909981,-1.981614 0.35976,-0.205173 0.73967,-0.371201 1.121131,-0.532548 0.238548,-0.100899 0.469138,-0.229462 0.722229,-0.28754 0.05314,-0.0122 0.112746,-0.03869 0.164283,-0.01504 0.0072,0.0033 0.01359,0.0089 0.0166,0.01636"
       id="path71"
       inkscape:path-effect="#path-effect73"
       inkscape:original-d="m 35.87174,101.52369 c -0.0636,-0.54274 -0.816751,-0.91747 -0.975924,-1.3777 -0.474692,-1.372514 0.157588,0.29227 -0.203316,-0.816907 -0.08766,-0.269402 -0.490485,-0.270534 -0.637067,-0.487709 -0.206219,-0.305531 -0.288994,-0.902166 -0.650618,-1.097344 -0.14441,-0.07794 -0.342448,-0.07408 -0.474414,-0.182888 -0.601149,-0.495673 -0.73774,-1.415185 -1.030145,-2.072756 -0.09619,-0.216318 -0.334682,-0.384501 -0.406638,-0.621829 -0.0763,-0.25164 -0.01648,-0.555821 -0.04067,-0.816907 -0.02066,-0.223141 -0.207343,-0.415509 -0.24398,-0.646213 -0.03708,-0.233479 0.06659,-0.511169 0.05422,-0.755949 -0.04401,-0.870762 -0.226886,-1.902634 0.01355,-2.767742 0.09959,-0.358315 0.352695,-0.652651 0.447305,-1.011989 0.150606,-0.572016 -0.147455,-1.238748 0.08132,-1.767943 0.484468,-1.12063 1.400339,-2.432603 2.263616,-3.328604 0.240086,-0.249185 0.837539,-0.40966 1.165696,-0.621829 1.386703,-0.896565 2.522667,-1.953154 4.066373,-2.548268 0.180782,-0.06969 0.9007,-0.420246 0.94882,-0.304819" />
    <path
       style="fill:none;stroke:#000000;stroke-width:0.264583px;stroke-linecap:butt;stroke-linejoin:miter;stroke-opacity:1"
       d="m 40.249861,80.296289 c 0.362693,0.09078 0.744242,0.05804 1.105266,-0.02357 0.528717,-0.119511 1.025513,-0.342008 1.523152,-0.551341 0.707708,-0.297699 1.437834,-0.549893 2.111971,-0.920285 0.211659,-0.116292 0.398344,-0.278493 0.628266,-0.360812 0.248803,-0.08908 0.516153,-0.09204 0.777116,-0.09919 0.194459,-0.0053 0.389064,-0.02659 0.577379,-0.07813 0.279857,-0.07659 0.552341,-0.195854 0.845703,-0.210359 0.196197,-0.0097 0.374846,0.102541 0.569449,0.100293 0.107266,-0.0012 0.21363,-0.0208 0.318186,-0.04321 0.546142,-0.117066 1.042542,-0.398507 1.592108,-0.502282 0.238246,-0.04499 0.482161,-0.05128 0.723848,-0.045 0.778122,0.02023 1.542304,0.20217 2.321969,0.206699 0.208655,0.0012 0.416107,-0.02314 0.623786,-0.04005 0.494723,-0.04028 0.996534,-0.06093 1.488583,0.0206 0.339133,0.05619 0.66213,0.1784 0.97971,0.305996 0.407032,0.163536 0.822318,0.306002 1.244533,0.425875 0.143768,0.04082 0.289426,0.07725 0.438605,0.09212 0.366818,0.03657 0.734475,-0.03612 1.101142,-0.02098 0.116486,0.0048 0.232368,0.03246 0.338689,0.07894 0.04428,0.01936 0.09959,0.03269 0.124323,0.07554 0.02642,0.04576 -0.04102,0.06133 -0.07237,0.07207 -0.08993,0.03083 -0.190784,0.02575 -0.276545,0.06616 -0.189766,0.08941 -0.37953,0.178824 -0.569294,0.268237"
       id="path75"
       inkscape:path-effect="#path-effect77"
       inkscape:original-d="m 40.249861,80.296289 c 0.792276,0.199115 1.729118,-0.189275 2.480508,-0.512088 0.740815,-0.318273 1.507964,-0.589026 2.222947,-0.963224 0.266981,-0.139729 0.437981,-0.316809 0.731952,-0.402359 0.37026,-0.107755 0.715483,-0.04829 1.084365,-0.109731 0.348594,-0.05807 0.68784,-0.238742 1.043702,-0.256048 0.229886,-0.01119 0.412017,0.120034 0.637066,0.09754 0.711851,-0.07114 1.358519,-0.509934 2.0603,-0.573058 1.103085,-0.09922 2.121173,0.283842 3.253097,0.170701 2.250869,-0.224986 2.149422,0.28071 4.093485,0.780331 0.42386,0.108931 0.933961,0.03507 1.355456,0.02439 0.164277,-0.0042 0.597169,0.139864 0.447301,0.207272 -0.10224,0.04599 -0.216871,0.0569 -0.325307,0.08535 -0.189765,0.08941 -0.379529,0.178824 -0.569294,0.268237" />
    <path
       style="fill:none;stroke:#000000;stroke-width:0.264583px;stroke-linecap:butt;stroke-linejoin:miter;stroke-opacity:1"
       d="m 58.765434,79.113609 c 0.700288,0.280406 1.593999,1.400792 2.100966,0.841291 0.06017,-0.0664 -0.06868,-0.32435 0.155878,-0.213459 0.237626,0.117344 0.47315,0.229447 0.739411,0.283001 0.286418,0.05761 0.779222,-0.06311 0.851185,0.226279 0.09053,0.364041 0.493225,0.421432 0.779792,0.588563 0.342863,0.199964 0.575586,0.557661 0.926765,0.734707 0.307759,0.155156 0.680632,0.162086 0.908372,0.48933 0.313731,0.450807 0.419897,1.052111 0.831223,1.417647 0.354998,0.315479 1.043901,0.06177 1.274351,0.460434 0.191839,0.331872 0.199186,0.733023 0.256837,1.104415 0.101104,0.651317 -0.04085,1.301853 -0.07538,1.952363 -0.03059,0.576048 -0.05537,1.160788 0.06587,1.733631 0.05988,0.282921 0.393537,0.286298 0.597189,0.141425 0.284551,-0.202422 0.526977,-0.446851 0.82269,-0.644803 0.319479,-0.213861 0.772387,-0.379211 0.878636,-0.764988 0.06038,-0.219243 -0.09605,-0.434098 0.02555,-0.661993 0.245172,-0.459464 0.551166,-0.892228 0.629398,-1.434772 0.04223,-0.292852 -0.04833,-0.683852 0.194404,-0.875606 0.162116,-0.128066 0.480621,-0.39676 0.5882,-0.03905 0.19459,0.64703 0.293244,1.320989 0.500476,1.963542 0.158082,0.490155 0.331228,0.972811 0.377755,1.49795 0.0673,0.759578 0.46245,1.553769 0.212449,2.280016 -0.08333,0.242083 5.07e-4,0.505804 0.187684,0.677807 0.476324,0.43771 1.240907,0.399179 1.717856,0.812638 0.128458,0.111358 0.403673,0.304022 0.400349,-0.0099 -0.0039,-0.365025 0.192874,-0.689638 0.359958,-1.000638 0.258966,-0.482025 0.561496,-0.95856 1.024858,-1.277391 0.283251,-0.1949 0.515325,-0.614381 0.857529,-0.577066 0.283833,0.03095 0.73127,0.349601 0.860932,0.08079 0.07534,-0.1562 -0.09587,0.243264 -0.126884,0.322019 -0.157231,0.39919 -0.352605,0.78219 -0.618352,1.122001 -0.167976,0.214791 -0.301638,0.484567 -0.213767,0.765647 0.209003,0.668552 0.767496,1.142339 1.110844,1.734565 0.361916,0.624254 -0.06616,1.430578 0.2914,2.028285 0.190255,0.318038 0.592679,0.40153 0.92945,0.456685 1.385832,0.226967 2.842293,-0.241319 4.190389,0.123506 0.341335,0.09237 0.277199,-0.326989 0.415945,-0.556298 0.17449,-0.288384 0.443767,-0.528582 0.549043,-0.849262 0.09903,-0.301653 -0.217489,-0.512441 -0.402227,-0.696045 -0.462444,-0.459604 -0.953166,-0.945436 -1.109215,-1.616693 -0.0751,-0.323058 0.05533,-0.633049 0.130795,-0.942628 0.120732,-0.495294 0.122437,-1.061497 0.507652,-1.453335 0.28212,-0.286971 0.763333,-0.379647 0.948819,-0.732979 0.143981,-0.274269 0.357835,-0.250298 0.5241,0.08408 0.119831,0.240994 0.474513,0.350573 0.437999,0.667482 -0.03257,0.282636 0.0087,0.572724 0.212023,0.799368 0.193454,0.215621 0.43222,0.439388 0.417223,0.764394 -0.0289,0.626395 -0.463216,1.180799 -0.340565,1.836665 0.06608,0.353369 0.400475,0.59188 0.465556,0.935115 0.162311,0.856017 0.103445,1.735388 0.298595,2.590333 0.192472,0.843211 0.640734,1.611241 0.81302,2.455513 0.109837,0.538245 0.286214,1.182937 -0.02575,1.646544 -0.057,0.0847 -0.0088,-0.25447 0.22045,-0.2502 0.705619,0.0131 1.484661,0.0297 2.065972,0.47764 0.361528,0.27855 0.517037,0.73621 0.920348,0.98881 0.441442,0.27648 0.975685,0.10526 1.454665,0.0626 0.29105,-0.0259 0.701053,0.24213 0.87619,0.006 0.278722,-0.37501 0.200467,-0.88184 0.111964,-1.30708 -0.117504,-0.564577 -0.290866,-1.112928 -0.478015,-1.65799 -0.07036,-0.204934 0.06596,0.226362 0.114336,0.307211 0.400608,0.669488 1.153471,1.044989 1.499351,1.762399 0.15047,0.3121 -0.04521,0.6225 -0.118469,0.92196 -0.07109,0.2906 0.231279,0.41846 0.442373,0.52831 0.377375,0.19638 0.530986,0.61428 0.860977,0.87119 0.503709,0.39216 1.240174,0.5014 1.777784,0.21984 0.203063,-0.10635 0.51469,-0.0193 0.629354,-0.26379 0.300995,-0.64183 0.311977,-1.40156 0.725146,-1.99103 0.393564,-0.5615 0.396327,-1.27982 0.301236,-1.936885 -0.09511,-0.657204 -0.359378,-1.349209 -0.137066,-1.998087 0.107642,-0.314182 0.181407,-0.647047 0.09368,-0.983254 -0.169867,-0.651016 -0.454671,-1.28133 -0.418036,-1.979178 0.01814,-0.345462 0.233287,-0.750912 0.03808,-1.041541 -0.152784,-0.227463 0.06288,-0.472916 0.211483,-0.631642 0.241648,-0.258105 0.479504,-0.526333 0.760132,-0.741914 0.412139,-0.31661 0.964635,-0.277427 1.439205,-0.157048 0.47076,0.119412 0.95641,0.115893 1.44049,0.159872 0.25962,0.02359 0.62408,-0.08535 0.78408,0.138382 0.20097,0.281031 0.57878,0.27695 0.88585,0.275332 0.31246,-0.0016 0.64039,0.02688 0.90063,0.202953 0.29136,0.197135 0.50907,-0.17011 0.559,-0.428324 0.0712,-0.36803 -0.0361,-0.733027 -0.13653,-1.0939 -0.12245,-0.440035 -0.0311,-0.927223 -0.28301,-1.336973 -0.25445,-0.413899 -0.57741,-0.796058 -0.69505,-1.281055 -0.10402,-0.428849 -0.26805,-0.862897 -0.62598,-1.153875 -0.7471,-0.607351 -1.83238,-0.703394 -2.44652,-1.481917 -0.83735,-1.061473 -1.604735,-2.228781 -1.953402,-3.544179 -0.221333,-0.835012 -0.304053,-1.743434 -0.836264,-2.458677 -0.305707,-0.410842 -0.589514,-0.846042 -0.723389,-1.349297 -0.122889,-0.461957 -0.244165,-0.932299 -0.525794,-1.331351 -0.227436,-0.322264 -0.408144,-0.705982 -0.347052,-1.11328 0.05282,-0.35218 0.07646,-0.705033 0.0031,-1.06354 -0.146203,-0.714997 -0.755128,-1.487444 -0.438747,-2.145282 0.134001,-0.278623 0.502983,-0.348113 0.691525,-0.599712 0.20468,-0.273135 0.29842,-0.713442 0.6511,-0.803974 0.280221,-0.07193 0.556311,0.174517 0.637283,0.415518 0.09481,0.282189 0.405649,0.410712 0.662454,0.49851 0.509487,0.174186 1.339406,-0.04471 1.546776,0.4694 0.11594,0.287438 0.17384,0.606558 0.48416,0.795126 0.47224,0.286963 1.04126,0.446202 1.58599,0.399748 0.4944,-0.04216 1.06247,-0.07207 1.42853,-0.42218 0.2281,-0.218158 0.27979,-0.552872 0.36214,-0.844905 0.0725,-0.257246 0.0668,-0.531425 -0.0685,-0.773523 -0.13983,-0.250092 -0.30113,-0.499371 -0.30712,-0.799072 -0.003,-0.132049 -0.0172,-0.615512 0.005,-0.538456 0.0379,0.132371 0.0827,0.225297 -0.0891,0.117302 -0.63863,-0.401527 -1.16379,-0.994198 -1.42302,-1.709124 -0.3361,-0.926921 -0.4892,-1.915706 -0.92441,-2.808637 -0.19435,-0.398754 -0.33304,-0.827193 -0.33079,-1.278348 0.003,-0.543755 0.0227,-1.105212 -0.19641,-1.619491 -0.21915,-0.514472 -0.5509,-1.061379 -0.39468,-1.63567 0.18037,-0.663085 0.68839,-1.185842 0.7839,-1.887916 0.064,-0.470178 0.37305,-0.85434 0.64785,-1.222109 0.49414,-0.661322 1.14009,-1.186588 1.6796,-1.806613 0.28158,-0.323603 0.50538,-0.784694 0.93703,-0.8962 0.24714,-0.06384 0.49819,-0.05939 0.73664,-0.183428 1.02801,-0.53475 1.95892,-1.226518 2.95567,-1.817066 0.1987,-0.117725 0.22172,-0.344257 0.52583,-0.416985 0.30443,-0.0728 0.63693,-0.03687 0.92427,-0.158164 0.75439,-0.318436 1.45276,-0.799967 2.25588,-0.975541 0.41468,-0.09065 0.81609,0.16967 1.08497,0.466446 0.35381,0.390511 0.67473,0.905761 1.2308,1.004162 0.38501,0.06813 0.76518,0.17472 1.09855,0.392516 0.53758,0.351207 0.94498,0.879189 1.54193,1.147053 0.29478,0.132273 0.73512,0.635493 0.90649,0.357454 0.15699,-0.254714 0.40102,-0.451785 0.6002,-0.677809 0.31781,-0.360636 0.27413,-0.870868 0.31696,-1.316321 0.0265,-0.275426 0.21684,-0.486428 0.45254,-0.621546 0.53761,-0.308189 1.49831,-0.103106 1.70406,-0.702169 0.0763,-0.222039 0.0635,-0.501098 0.28754,-0.640288 0.2574,-0.159894 0.23016,-0.467958 -0.0794,-0.588527 -0.48751,-0.189903 -1.0065,-0.323822 -1.5283,-0.348791 -0.59014,-0.02824 -1.18768,-0.01709 -1.76204,-0.196217 -0.86905,-0.271033 -1.77098,-0.561349 -2.47829,-1.147997 -0.7975,-0.661448 -1.03927,-1.730574 -1.58663,-2.572881 -0.13146,-0.202297 -0.36046,-0.365821 -0.33378,-0.647059 0.0373,-0.392932 0.3627,-0.749126 0.21518,-1.158531 -0.20065,-0.556865 -0.65863,-0.988102 -0.77921,-1.582944 -0.0915,-0.4513 -0.19824,-0.897837 -0.32541,-1.341208 -0.0814,-0.283904 -0.12012,-0.695173 0.1935,-0.846681 0.30117,-0.145492 0.64559,-0.143859 0.97168,-0.185367 0.33896,-0.04315 0.71153,-0.04902 0.99523,0.171561 0.27059,0.210394 0.62134,0.186526 0.94523,0.130472 0.30919,-0.05351 0.87399,-0.418601 0.94075,-0.104316 0.044,0.20737 -0.10285,0.543932 0.20584,0.724113 0.33335,0.194578 0.71001,0.278557 1.08124,0.366234 0.23914,0.05648 0.44623,0.19058 0.55807,0.434832 0.13154,0.287283 0.41481,0.464178 0.65834,0.648186 0.77242,0.583627 1.58077,1.136349 2.46284,1.530408 0.58229,0.260136 1.71949,-0.274574 1.83808,0.35639 0.0457,0.243411 0.0651,0.496907 0.18453,0.742664 0.16758,0.344822 0.46736,0.604898 0.83158,0.743575 0.47374,0.180377 1.07668,0.135682 1.436,0.511262 0.24549,0.256602 0.28636,0.72563 0.6769,0.826263 0.5952,0.15337 1.21794,0.009 1.8037,-0.120134 0.53441,-0.117769 1.03521,-0.34328 1.55636,-0.505355 0.60565,-0.188354 1.23463,-0.379899 1.71671,-0.815287 0.30025,-0.271169 0.66181,-0.475539 1.06611,-0.543112 0.28749,-0.04805 0.54564,-0.183945 0.7556,-0.399218 0.48851,-0.50087 1.07729,-0.91079 1.75004,-1.124233 0.85398,-0.270943 1.7103,-0.605999 2.60387,-0.65762 0.36725,-0.02122 -0.0995,-0.309742 -0.0813,-0.55207 0.0287,-0.383351 -0.30826,-0.639933 -0.57598,-0.848689 -0.32222,-0.25125 -0.59463,-0.688826 -0.42856,-1.083699 0.1283,-0.305071 -0.17174,-0.848404 0.12352,-0.94169 0.37531,-0.118578 0.59536,-0.426323 0.82061,-0.748679 0.28689,-0.410571 0.69061,-0.719718 1.05441,-1.058813 0.68417,-0.637712 1.46474,-1.228288 1.91065,-2.060489 0.14304,-0.266957 0.36319,-0.646458 0.13615,-0.91552 -0.31853,-0.377481 -0.87857,-0.379602 -1.25779,-0.657867 -0.58314,-0.427899 -1.09796,-0.95264 -1.52586,-1.532297 -0.20917,-0.283351 -0.53478,-0.554913 -0.54176,-0.915007 -0.008,-0.436695 0.27725,-0.787364 0.46659,-1.159716 0.11019,-0.216696 0.1104,-0.72334 0.34109,-0.659442 0.46231,0.128052 0.90452,0.320009 1.34182,0.515965 0.75722,0.339317 1.37712,0.923656 2.17251,1.196452 0.97287,0.333666 1.99117,0.499029 2.97517,0.797822 0.88022,0.267281 1.70176,0.695064 2.57147,0.992422 0.37614,0.128604 0.78315,0.269358 1.17006,0.194034 0.29805,-0.05803 -0.10461,0.189898 -0.18712,0.259477 -0.15519,0.130869 -0.24129,0.201199 -0.0391,0.369218 0.24699,0.205228 0.43364,0.565359 0.75317,0.600865 0.2957,0.03286 0.58486,-0.102987 0.86061,-0.196693 0.71455,-0.242822 1.3871,-0.600348 2.10772,-0.821805 0.47316,-0.14541 1.0294,-0.56071 1.45364,-0.30377 0.10086,0.06108 -0.27576,0.193555 -0.37594,0.229365 -0.26709,0.09548 -0.61174,0.328907 -0.84782,0.147646 -0.25773,-0.197887 -0.0285,-0.580539 0.0974,-0.794998 0.13376,-0.227768 0.16064,-0.48125 0.16681,-0.744898 0.0108,-0.460784 -0.093,-0.926674 -0.35815,-1.313442 -0.34571,-0.504336 -0.61511,-1.05966 -0.78054,-1.648941 -0.12797,-0.455851 -0.45664,-0.827162 -0.87141,-1.054553 -0.8181,-0.44851 -1.80509,-0.489739 -2.57507,-1.046764 -0.96007,-0.694543 -1.81435,-1.530652 -2.57792,-2.435212 -0.39503,-0.467972 -0.7085,-1.012088 -0.83048,-1.621488 -0.19037,-0.951046 0.23282,-1.856529 0.40177,-2.774764 0.10122,-0.550137 -0.07,-1.096355 -0.096,-1.644207 -0.0267,-0.561639 0.28084,-1.133552 0.0379,-1.681745 -0.0547,-0.123514 -0.0647,-0.467506 -0.0628,-0.455016 0.0578,0.38628 -0.0216,-0.540699 0.0229,-0.09046 0.0359,0.362856 0.0794,0.725258 0.21786,1.068887 0.37031,0.919026 0.79571,1.823328 1.34524,2.649121 0.16665,0.250427 0.36627,0.5173 0.6832,0.575757 0.47214,0.08709 0.7754,0.49825 1.03934,0.858551 0.40817,0.557178 0.86817,1.075985 1.20808,1.682889 0.54827,0.978927 0.94509,2.097793 1.83058,2.840049 0.45167,0.378607 1.05867,0.588935 1.40622,1.070557 0.18576,0.257421 0.33596,0.558431 0.64817,0.699909 0.49954,0.226369 1.03845,0.390357 1.44994,0.778195 0.51468,0.485102 0.95392,1.054106 1.56054,1.438859 0.91808,0.582304 1.96963,0.888101 2.98113,1.261265 0.984,0.363018 2.09607,0.399788 3.00654,0.916816 0.35371,0.200862 0.35354,0.792727 0.7947,0.859906 0.44954,0.06846 0.85746,-0.236284 1.15373,-0.535003 0.37848,-0.381614 0.75917,-0.834216 0.8337,-1.380731 0.039,-0.286284 -0.1887,-0.510941 -0.34365,-0.723233 -0.38073,-0.521615 -0.65432,-1.174665 -1.19855,-1.524437 -0.67533,-0.43403 -1.5358,-0.492442 -2.14997,-1.045499 -0.601,-0.541202 -1.0347,-1.231409 -1.65111,-1.765745 -0.46782,-0.405529 -0.91447,-0.888282 -1.53604,-1.054856 -0.31797,-0.08521 -0.61837,-0.231427 -0.85081,-0.4763 -0.22983,-0.242125 -0.51625,-0.431216 -0.72067,-0.694165 -0.24518,-0.31538 -0.10825,-0.759133 -0.36978,-1.081263 -0.24333,-0.299709 -0.48945,-0.596457 -0.64742,-0.958023 -0.26818,-0.613821 -0.39676,-1.331237 -0.8765,-1.814042 -0.22017,-0.221578 -0.47329,-0.419667 -0.57261,-0.740824 -0.16987,-0.549295 -0.44118,-1.057952 -0.77772,-1.527113 -0.24866,-0.346645 -0.4766,-0.729389 -0.49664,-1.17769 -0.0133,-0.297071 -0.19898,-0.542137 -0.27972,-0.824397 -0.20735,-0.724894 -0.14468,-1.484274 -0.0587,-2.218361 0.0213,-0.181652 0.0273,-0.735094 0.25921,-0.570814 0.42574,0.301554 0.74853,0.723741 1.07043,1.128325 0.63488,0.79796 1.58439,1.325879 2.07233,2.242048 0.65763,1.23479 0.82487,2.811879 1.89337,3.749458 0.38441,0.337308 0.79459,0.67939 1.28318,0.845945 0.29748,0.101407 0.47944,-0.19994 0.5149,-0.441209 0.0599,-0.407599 -0.35125,-0.679458 -0.40893,-1.065567 -0.1421,-0.951151 -0.24055,-1.915564 -0.20383,-2.876296 0.012,-0.314978 0.0186,-0.646034 0.23548,-0.915778 0.20451,-0.25432 0.34613,-0.559312 0.45469,-0.86534 0.27695,-0.780713 0.28486,-1.681142 0.80869,-2.355921 0.4473,-0.576197 1.29581,-0.48822 1.78907,-1.014958 0.32991,-0.3523 0.61027,-0.76151 1.06982,-0.979981 0.50568,-0.240403 1.06543,-0.426447 1.45269,-0.858186 0.15808,-0.176238 0.13205,-0.441218 0.32892,-0.6087241 0.1941,-0.1651486 -0.31214,-0.1177622 -0.41779,-0.1105821 -0.57935,0.039375 -1.05316,-0.3912873 -1.38077,-0.834115 -0.52794,-0.7136115 -0.92022,-1.5687247 -1.6222,-2.1120955 -0.20899,-0.1617701 -0.56058,-0.1237087 -0.65492,-0.4345562 -0.0796,-0.2623781 -0.15073,-0.527029 -0.31166,-0.7592558 C 160.17263,5.0759584 159.50491,4.713782 159.16489,4.0923859 158.9354,3.6729901 159.129,3.1072354 158.82185,2.7383977 158.64201,2.52244 158.3153,2.4688114 158.21039,2.1748699 c -0.14752,-0.4133393 -0.0929,-0.9010726 -0.35428,-1.26537088 -0.0659,-0.0918987 -0.18705,-0.13116788 -0.29458,-0.0958762"
       id="path79"
       inkscape:path-effect="#path-effect81"
       inkscape:original-d="m 58.765434,79.113609 c 0.700323,0.280429 1.386782,0.598326 2.100966,0.841291 0.07802,0.02654 -0.04175,-0.243859 0.04066,-0.243859 0.11738,0 0.412967,0.191794 0.487963,0.219472 0.373041,0.137668 0.821076,0.119139 1.179251,0.292624 0.122637,0.0594 0.07231,0.242207 0.216871,0.304818 0.588862,0.25504 1.012528,0.560594 1.43679,0.975413 0.226415,0.221377 0.60647,0.155377 0.826826,0.353589 0.361336,0.325025 0.783643,1.481074 1.057259,1.6704 0.345128,0.23881 0.821079,0.187047 1.179251,0.377973 0.233166,0.12429 0.327588,1.3824 0.338862,1.646012 0.02212,0.517195 -0.470924,3.38432 0.203319,3.426145 0.365432,0.02268 0.62202,-0.387111 0.921711,-0.597442 0.167277,-0.117401 1.116856,-0.616196 1.138584,-0.987608 0.01019,-0.173968 -0.10644,-0.339632 -0.0271,-0.51209 0.197355,-0.429017 0.495884,-0.719153 0.623509,-1.207077 0.07118,-0.272134 0.04785,-0.950986 0.216874,-1.158306 0.104605,-0.128307 0.379941,-0.243919 0.528629,-0.26824 0.05178,-0.0085 0.490236,1.686796 0.515067,1.865482 0.07721,0.55558 0.408339,1.005935 0.433747,1.646015 0.024,0.604388 0.334844,1.996181 0.203325,2.548271 -0.178075,0.747512 1.426712,1.224828 1.870527,1.353391 0.141198,0.0409 0.325075,0.292997 0.406636,0.170694 0.08256,-0.123799 0.02962,-0.299405 0.08133,-0.438936 0.187947,-0.50719 0.701958,-1.512737 1.125035,-1.828901 0.07149,-0.05342 1.005763,-0.743754 1.08436,-0.743754 0.116128,0 0.894609,0.252929 0.894609,0.0122 0,-0.02521 -0.200739,0.53171 -0.433747,0.9998 -0.143957,0.289197 -0.43411,0.573921 -0.555742,0.865682 -0.24435,0.586118 0.835266,1.708275 1.070819,2.084951 0.415515,0.664462 0.09383,1.362276 0.311754,2.048373 0.293126,0.922861 4.362254,0.530106 5.286279,0.634018 0.08751,0.0098 0.09014,-0.266692 0.108443,-0.304818 0.0966,-0.201235 0.593701,-0.900489 0.637061,-0.975413 0.118684,-0.205087 0.139845,-0.303731 -0.01355,-0.487707 -0.580715,-0.696478 -1.450343,-1.192506 -1.450343,-2.243455 0,-0.265806 0.113739,-0.45779 0.162658,-0.707178 0.228219,-1.163397 0.102069,-1.208873 1.328349,-2.036178 0.160795,-0.108479 0.304173,-0.379008 0.487966,-0.31701 0.121343,0.04093 0.109175,0.232277 0.176209,0.341394 0.0784,0.127614 0.357431,0.310661 0.393084,0.438939 0.06859,0.246806 -0.04922,0.486978 0.06777,0.743754 0.135244,0.296839 0.559384,0.533064 0.582853,0.877872 0.04629,0.680132 -0.532347,1.255992 -0.338868,1.963025 0.118531,0.433147 0.262231,0.507016 0.43375,0.841296 0.121007,0.235836 0.15476,1.581354 0.189762,1.889866 0.124145,1.094314 0.528264,2.026629 0.894599,3.048174 0.172323,0.480529 0.233034,1.462125 0.01355,1.889859 -0.01699,0.0331 0.02114,-0.1968 0.09488,-0.29262 0.748257,0.002 1.949699,0.02 2.466943,0.74375 0.262736,0.36764 0.348365,0.58952 0.826832,0.80471 0.353435,0.15896 0.974708,-0.002 1.369012,-0.0244 0.102364,-0.006 0.753203,0.068 0.799719,0.0122 0.430828,-0.51671 0.01585,-1.747496 -0.18977,-2.328806 -0.04317,-0.12204 -0.229103,-0.861823 -0.203313,-0.707172 0.142379,0.853808 1.415824,1.371078 1.667215,2.219068 0.120279,0.40572 -0.222354,0.68065 -0.135545,1.03638 0.04963,0.20336 0.33068,0.257 0.501516,0.37797 0.357441,0.25312 0.341497,0.40362 0.596397,0.6584 0.682154,0.68185 1.52957,0.51925 2.304286,0.30482 0.08183,-0.0226 0.202729,0.001 0.243978,-0.0731 0.309643,-0.55707 0.337835,-1.20769 0.623509,-1.80452 0.185369,-0.38727 0.305659,-0.47038 0.420197,-0.8413 0.317061,-1.026754 -0.226212,-2.038211 -0.162658,-3.048169 0.0273,-0.433906 0.27578,-0.717337 0.18977,-1.170495 -0.101586,-0.535233 -0.380648,-1.059788 -0.447309,-1.609437 -0.06166,-0.508409 0.09253,-1.005031 0.05423,-1.487507 -0.0081,-0.101809 -0.109042,-0.188684 -0.06778,-0.292624 0.148625,-0.37437 0.492226,-0.646635 0.759054,-0.926648 0.796223,-0.835565 1.565846,-0.329956 2.480496,-0.243853 0.44023,0.04144 0.88078,-0.01693 1.31479,0.07316 0.13408,0.02783 0.19538,0.216871 0.35242,0.268237 0.41461,0.135619 0.83734,0.04887 1.23346,0.158506 0.0975,0.02698 0.47971,0.220729 0.55574,0.195082 0.45226,-0.152555 0.4126,-1.112725 0.25754,-1.426543 -0.20182,-0.408465 -0.0674,-0.874407 -0.24398,-1.292425 -0.15538,-0.367816 -0.44819,-0.663707 -0.62351,-1.024188 -0.31168,-0.64084 -0.19451,-1.146277 -0.82684,-1.63382 -0.83191,-0.64143 -1.81774,-0.687907 -2.48048,-1.536278 -0.72312,-0.925655 -1.375079,-1.975877 -1.775649,-3.096944 -0.277434,-0.776449 -0.31512,-1.64626 -0.691287,-2.401961 -0.241072,-0.484302 -0.631533,-0.848094 -0.840383,-1.353389 -0.166076,-0.401806 -0.229981,-0.834609 -0.379532,-1.231461 -0.161013,-0.427265 -0.525883,-0.755436 -0.62351,-1.207077 -0.09051,-0.418734 0.112045,-0.826353 0.04066,-1.243654 -0.04742,-0.277198 -0.522743,-2.376293 -0.487965,-2.426344 0.139099,-0.200184 0.464393,-0.307292 0.637071,-0.499901 0.285559,-0.31852 0.576057,-1.338768 1.206354,-0.658404 0.254109,0.274294 0.03465,0.313705 0.528629,0.585248 0.542374,0.298149 1.320627,0.228536 1.816312,0.585251 0.0781,0.05624 0.0926,0.338133 0.122,0.402356 0.2582,0.56405 1.23363,0.757955 1.76209,0.792527 0.41977,0.02746 1.51534,-0.16572 1.73499,-0.560865 0.13516,-0.243163 0.28374,-0.787765 0.2982,-1.060763 0.0165,-0.310636 -0.30628,-0.654395 -0.39308,-0.938839 -0.0555,-0.181807 -0.11108,-1.371066 0,-0.621827 -1.80055,-1.115825 -1.57063,-2.28282 -2.25692,-4.105452 -0.15115,-0.401417 -0.45591,-0.924355 -0.51507,-1.341196 -0.0715,-0.503764 0.0185,-1.023208 -0.0678,-1.524089 -0.12713,-0.738107 -0.67981,-1.277416 -0.56929,-2.072755 0.0625,-0.449936 0.5471,-1.074777 0.70484,-1.524084 0.10297,-0.293302 0.075,-0.610431 0.23042,-0.890071 0.53944,-0.970462 1.20313,-1.577761 1.97897,-2.353185 0.3495,-0.349302 0.56523,-0.75557 0.97593,-1.048572 0.20844,-0.148703 0.55373,-0.131011 0.5693,-0.134123 0.55852,-0.111633 2.3356,-1.433072 2.96846,-1.767937 0.81599,-0.431767 0.25929,-0.20888 0.60994,-0.524288 0.0969,-0.08714 1.04991,-0.18797 1.07082,-0.195083 0.45057,-0.153264 2.15864,-1.088183 2.56182,-1.036378 0.8648,0.111121 1.01972,0.878316 1.72143,1.341196 0.28279,0.186539 0.67742,0.180342 0.98948,0.292624 0.6861,0.24686 1.09499,0.79894 1.65367,1.194883 0.0888,0.06295 1.25295,0.664569 1.31479,0.548671 0.20008,-0.374968 0.42865,-0.438998 0.66418,-0.78033 0.26734,-0.387436 0.0772,-1.3253 0.43373,-1.646014 0.5383,-0.484185 1.46449,-0.439483 1.95187,-0.877872 0.0383,-0.03447 0.0695,-0.387454 0.13555,-0.475517 0.11646,-0.155204 0.31185,-0.273571 0.35242,-0.463324 0.0695,-0.324949 -1.10583,-0.52606 -1.3148,-0.573054 -0.64299,-0.144598 -1.35899,-0.01316 -1.97897,-0.182889 -0.82332,-0.225394 -1.83762,-0.593527 -2.54826,-1.072959 -0.92069,-0.621135 -1.31239,-1.722234 -1.77565,-2.694585 -0.0824,-0.173017 -0.33678,-0.339529 -0.35242,-0.536477 -0.0313,-0.394395 0.23775,-0.674676 0.25754,-1.048571 0.0222,-0.418952 -0.52248,-1.026207 -0.69129,-1.426544 -0.17437,-0.413514 -0.20556,-0.917397 -0.33886,-1.353389 -0.18487,-0.60469 -0.41311,-1.255111 0.46085,-1.353389 0.31649,-0.03559 0.95185,-0.158168 1.26058,-0.06097 0.35211,0.110861 0.46353,0.341395 0.88105,0.341395 0.32513,0 1.00783,-0.245004 1.32835,-0.158501 0.11021,0.02974 -0.0386,0.227816 -0.0271,0.341394 0.0327,0.323547 0.14306,0.341102 0.50151,0.51209 0.35866,0.171085 0.76571,0.175259 1.12504,0.353588 0.23485,0.116553 0.20734,0.362667 0.37953,0.524289 0.79973,0.750653 1.93599,1.37362 2.87357,1.914249 0.5983,0.344991 1.33827,0.110035 1.95186,0.414553 0.061,0.03026 0.0208,0.301944 0.0271,0.329201 0.0796,0.343586 0.33699,0.797932 0.63706,0.987612 0.50771,0.320922 1.16674,0.307631 1.69432,0.609631 0.2777,0.158964 0.3118,0.581953 0.56929,0.792524 0.57861,0.473172 2.71864,-0.175307 3.18534,-0.377971 0.56997,-0.247509 1.15723,-0.326029 1.70787,-0.670596 0.38697,-0.24215 0.60571,-0.542582 1.04371,-0.719371 0.33917,-0.136903 0.77305,-0.117796 1.03014,-0.377971 0.96545,-0.977044 1.43591,-1.181574 2.94135,-1.548472 0.51425,-0.125332 1.03023,-0.243486 1.54522,-0.365782 0.0498,-0.01182 0.13021,0.01098 0.1491,-0.03658 0.0177,-0.04445 -0.14872,-0.218772 -0.17621,-0.268241 -0.097,-0.174559 -0.0116,-0.392479 -0.12199,-0.573054 -0.27777,-0.454274 -0.76576,-0.562108 -0.93527,-1.133924 -0.0897,-0.30267 0.054,-0.64481 0.0949,-0.938836 0.0159,-0.114147 -0.0642,-0.393403 0.0271,-0.475513 0.11777,-0.105933 0.29052,-0.09677 0.4202,-0.207277 0.23394,-0.199359 0.36987,-0.558948 0.58284,-0.78033 0.82865,-0.861357 2.9558,-2.468195 3.00912,-3.523691 0.0272,-0.537562 -1.07194,-0.777643 -1.30124,-0.90226 -0.46647,-0.253512 -2.03642,-1.913027 -2.11451,-2.475114 -0.0374,-0.269411 0.22919,-0.662219 0.35242,-0.890066 0.0371,-0.06866 0.3442,-0.866237 0.43375,-0.926645 0.0613,-0.04137 1.01382,0.388617 1.09791,0.414551 0.72396,0.223277 1.30801,0.796546 2.00608,1.121727 0.57228,0.266583 1.35277,0.446085 1.96542,0.585251 1.29335,0.293789 2.65599,0.748067 3.86305,1.316812 0.39425,0.185761 0.83778,0.195991 1.26058,0.256043 0.0582,0.0083 0.22894,-0.02587 0.17621,0 -0.15897,0.07799 -0.47955,0.451016 -0.51508,0.487711 0.30845,0.247238 0.60136,0.515207 0.92534,0.741713 0.19173,0.134051 2.21263,-0.718842 2.6838,-0.914453 0.69973,-0.290497 1.95452,-0.485234 1.77565,-0.377972 -0.25404,0.15234 -1.06257,0.511478 -1.31478,0.317007 -0.22393,-0.172656 0.3047,-0.98656 0.31175,-1.170496 0.0607,-1.583741 -0.33315,-1.333851 -0.90816,-2.658008 -0.21545,-0.496144 -0.24584,-0.994364 -0.66417,-1.389966 -0.63044,-0.596171 -1.69417,-0.697728 -2.46694,-1.036378 -0.96871,-0.424515 -3.27483,-2.636358 -3.7275,-3.669998 -0.64186,-1.46562 0.0704,-2.294496 0.20331,-3.670002 0.0478,-0.494484 -0.0471,-0.863019 -0.10843,-1.341196 -0.0779,-0.60706 0.26621,-1.147067 0.0542,-1.719167 -0.0786,-0.212092 -0.0842,-0.332238 -0.0949,-0.573059 0.0676,0.490346 -0.0156,-0.258213 0,-0.195082 0.0641,0.259425 0.0502,0.530561 0.10843,0.792524 0.14267,0.641657 1.35125,3.168681 1.87054,3.523686 0.20167,0.137869 0.48189,0.135731 0.67773,0.280435 0.41364,0.305649 0.8811,1.025529 1.21991,1.426543 0.81113,0.96004 1.13905,2.170933 1.87053,3.157908 0.62019,0.836812 1.21131,0.981073 1.9112,1.597243 0.17984,0.158336 0.35554,0.594651 0.56929,0.719366 0.37674,0.219814 0.80351,0.317786 1.17925,0.536482 0.57839,0.336648 0.9726,0.935917 1.46389,1.365579 0.94164,0.823504 2.06136,1.098183 3.17178,1.536278 1.08607,0.42849 2.17691,0.693115 3.29376,1.024188 0.39306,0.116516 0.39778,0.74924 0.82683,0.877872 0.78498,0.235342 2.15431,-1.388433 2.01963,-2.084949 -0.0373,-0.192628 -1.36302,-1.962867 -1.55877,-2.084949 -0.58485,-0.364751 -1.37068,-0.457332 -1.9112,-0.853489 -0.69454,-0.509052 -1.06855,-1.281632 -1.72143,-1.816713 -0.38727,-0.317392 -0.81027,-0.774441 -1.24703,-1.01199 -0.35233,-0.191632 -0.83814,-0.216777 -1.13857,-0.499901 -0.27196,-0.256287 -0.48935,-0.51322 -0.78617,-0.755947 -0.34004,-0.27806 -0.15686,-0.721792 -0.37953,-1.060766 -0.1833,-0.279018 -0.46426,-0.51548 -0.60996,-0.816907 -0.30461,-0.630169 -0.51294,-1.441641 -0.93527,-1.999602 -0.10469,-0.138319 -0.49751,-0.427243 -0.55573,-0.597442 -0.14748,-0.431172 -0.27829,-0.858624 -0.52863,-1.268041 -0.25627,-0.41912 -0.62257,-0.795703 -0.77261,-1.268038 -0.0676,-0.212836 -0.001,-0.44447 -0.10844,-0.658406 -0.41152,-0.819683 -0.31487,-1.339382 -0.27109,-2.30442 0.0128,-0.28157 -0.0495,-0.767016 0.12199,-1.024183 0.15736,-0.235938 1.27549,1.235637 1.42323,1.389966 0.63661,0.665012 1.469,1.228545 1.89764,2.060561 0.62944,1.221799 0.93961,2.538086 1.81632,3.633422 0.13311,0.166299 1.21933,1.018349 1.50456,0.89007 0.0493,-0.02218 0.11071,-0.225082 0.1491,-0.268241 0.0801,-0.09007 0.21049,-0.09995 0.18976,-0.292624 -0.0306,-0.284303 -0.27822,-0.531297 -0.37953,-0.792524 -0.13146,-0.339005 -0.35714,-3.237107 -0.17621,-3.694386 0.0604,-0.152764 0.18977,-0.268239 0.28465,-0.402359 0.11295,-0.23979 0.24676,-0.470824 0.33886,-0.719371 0.27997,-0.755506 0.34086,-2.12283 1.08437,-2.609233 0.35026,-0.229134 0.83454,-0.29397 1.20636,-0.512094 0.45426,-0.266492 0.69404,-0.851834 1.13859,-1.109536 0.43186,-0.250349 1.41723,-0.526655 1.72143,-1.024184 0.0952,-0.155719 0.0983,-0.357505 0.20331,-0.5120942 0.0368,-0.054101 0.16266,-0.044331 0.16266,-0.1097351 0,-0.1058899 -0.4885,-0.050364 -0.51508,-0.048771 -0.47241,0.028321 -0.95741,-0.3004169 -1.21991,-0.6584016 -0.55849,-0.7616693 -1.12788,-1.5183654 -1.72143,-2.255649 -0.16448,-0.2043166 -0.42001,-0.1016809 -0.5964,-0.3170116 -0.15984,-0.1951162 -0.13613,-0.42665 -0.24398,-0.6462124 -0.32058,-0.652624 -1.05991,-1.1252837 -1.49101,-1.7069755 -0.31605,-0.4264614 -0.17076,-0.9761793 -0.37953,-1.4143515 -0.0826,-0.1734227 -0.39397,-0.2934114 -0.52863,-0.414553 -0.3283,-0.2953386 -0.18174,-1.73230104 -0.7726,-1.57285731" />
    <path
       style="fill:none;stroke:#000000;stroke-width:0.264583px;stroke-linecap:butt;stroke-linejoin:miter;stroke-opacity:1"
       d="m 12.350497,127.30263 c 0.143762,-0.2847 0.230565,-0.61078 0.490925,-0.82497 0.754349,-0.62059 1.430525,-1.38197 2.314875,-1.79645 0.233186,-0.10929 0.501544,-0.0975 0.753484,-0.10351 0.253823,-0.006 0.506265,-0.0274 0.750643,-0.11022 0.726796,-0.24616 1.422542,-0.57483 2.168737,-0.77003 0.738222,-0.19311 1.517639,-0.30487 2.188554,-0.68681 0.465309,-0.26489 0.829095,-0.71275 1.345592,-0.87308 0.356558,-0.11068 0.73642,-0.0819 1.090739,-0.22759 0.713946,-0.29352 1.391122,-0.70615 2.151531,-0.86125 0.838777,-0.17109 1.727879,0.0255 2.541945,-0.2981 0.794448,-0.31582 1.555022,-0.71081 2.305912,-1.11909 0.220165,-0.11971 0.409451,-0.28142 0.586845,-0.45905 0.193083,-0.19334 0.473433,-0.23123 0.724937,-0.29976 0.491616,-0.13395 0.989455,-0.31007 1.50113,-0.29598 0.404277,0.0111 0.800441,0.11029 1.207945,0.0938 0.692843,-0.028 1.395168,-0.13517 2.032554,-0.40553 0.826315,-0.3505 1.576501,-0.85484 2.289247,-1.39117 0.213717,-0.16082 0.383025,-0.37581 0.640499,-0.48346 0.919819,-0.38458 1.911181,-0.61078 2.757399,-1.16766 0.199381,-0.13121 0.310315,-0.34826 0.470019,-0.51999 0.23618,-0.25396 0.579432,-0.37027 0.903489,-0.45945 0.65212,-0.17947 1.348716,0.0218 1.99404,-0.2053 0.343492,-0.12088 0.706624,-0.19261 1.072542,-0.16268 0.418677,0.0343 0.838107,0.0743 1.259343,0.0227 0.426571,-0.0522 0.855723,-0.0972 1.288195,-0.0452 0.498373,0.0599 1.015915,0.32216 1.496058,0.17495 0.208195,-0.0638 0.393883,-0.19343 0.59074,-0.28826 0.28731,-0.1384 0.576041,-0.37561 0.898644,-0.33955 0.157894,0.0177 0.312833,0.1052 0.477322,0.0569 0.200155,-0.0588 0.393185,-0.19122 0.46869,-0.39841 0.132315,-0.36308 0.324977,-0.73205 0.307813,-1.1186 -0.0153,-0.34446 -0.236627,-0.63737 -0.232854,-0.99062 0.0041,-0.38391 -0.03477,-0.81165 0.178636,-1.1431 0.163419,-0.25382 0.451281,-0.45783 0.452663,-0.78943 0.0019,-0.45328 -0.327982,-0.81826 -0.640242,-1.10912 -0.297399,-0.27702 -0.665718,-0.46089 -0.983212,-0.71129 -0.668185,-0.52699 -0.917665,-1.38448 -1.499001,-1.99253 -0.426881,-0.4465 -0.754755,-0.99687 -1.296088,-1.3301 -0.951363,-0.58564 -1.851247,-1.25471 -2.825292,-1.80226 -0.557675,-0.31349 -1.200546,-0.49264 -1.691595,-0.90729 -0.244784,-0.2067 -0.485804,-0.43876 -0.815577,-0.50906 -0.499769,-0.10654 -1.033865,0.0108 -1.518658,-0.14435 -1.027133,-0.32866 -2.092489,-0.636604 -2.972527,-1.285069 -0.474687,-0.349778 -0.842071,-0.85835 -0.954742,-1.447222 -0.182706,-0.954904 -0.02268,-1.92893 0.095,-2.881868 0.09071,-0.734555 0.195234,-1.467709 0.342318,-2.193284 0.153009,-0.754805 0.325399,-1.507601 0.567069,-2.241453 0.07385,-0.224246 0.24289,-0.398943 0.447602,-0.511356 0.587792,-0.322773 1.256674,-0.448867 1.905782,-0.588058 0.447792,-0.09602 0.92039,-0.109466 1.34493,-0.282842 0.412338,-0.168393 0.704496,-0.524005 1.114115,-0.706862 1.029971,-0.459787 2.162441,-0.66083 3.148568,-1.228775 0.782102,-0.45044 1.448472,-1.105225 2.286301,-1.446799 0.331537,-0.135164 0.702296,-0.177926 0.995179,-0.406663 0.4382,-0.342227 0.761679,-0.830702 1.291112,-1.05762 1.03716,-0.444533 2.247059,-0.489997 3.191572,-1.10827 0.155177,-0.101578 0.195571,-0.288579 0.384522,-0.381734 0.441983,-0.217902 0.929543,-0.342913 1.419258,-0.388457 0.43416,-0.04038 0.884655,0.07786 1.219346,0.366939 0.3594,0.310424 0.688465,0.657277 1.095826,0.911997 1.812238,1.133181 3.370372,2.614963 5.097469,3.864576 0.805047,0.582479 1.807665,0.741073 2.74302,1.003358 0.679595,0.190567 1.361506,0.462274 1.874914,0.966758 0.263026,0.258454 0.548442,0.492837 0.870333,0.677764 0.357628,0.205458 0.718252,0.421618 0.975121,0.761222 0.654374,0.865142 1.087736,1.87043 1.682272,2.773083 0.292817,0.444569 0.772885,0.702342 1.131944,1.087386 0.606385,0.650268 1.046367,1.437374 1.671457,2.071209 0.416074,0.421895 0.96057,0.696902 1.533433,0.834935 0.52954,0.127594 1.063924,0.23956 1.602719,0.318411 0.972644,0.142344 2.13421,-0.317136 2.933734,0.255452 0.142225,0.101856 0.222662,0.237541 0.429292,0.295101 0.296385,0.08256 0.655146,0.07127 0.881567,0.286555 0.370517,0.352298 0.599801,0.860308 1.074707,1.093721 0.60889,0.299265 1.252822,0.530885 1.911233,0.690005 0.383536,0.0927 0.805252,0.0425 1.15681,0.26246 0.41956,0.26247 0.795986,0.6026 1.281561,0.75341 0.411513,0.12781 0.875845,0.13114 1.24117,0.3715 0.488675,0.32151 1.078143,0.53282 1.457651,0.97801 0.307657,0.3609 0.453279,0.86257 0.894605,1.11018 0.467012,0.26202 1.009188,0.35817 1.542921,0.32754 0.312976,-0.018 0.643758,-0.18161 0.937562,-0.0721 0.22191,0.0827 0.413042,0.23319 0.622705,0.34431 0.443937,0.23528 1.025403,0.55469 1.473937,0.28907 0.357888,-0.21194 0.662263,-0.50269 0.963978,-0.7859 0.607968,-0.57068 1.088241,-1.28368 1.761092,-1.77736 0.155824,-0.11433 0.05514,-0.3332 0.170803,-0.45905 0.225216,-0.24505 0.57354,-0.32188 0.783036,-0.59603 0.38052,-0.49796 0.4469,-1.1688 0.83726,-1.655256 0.28619,-0.356645 0.78945,-0.511872 0.96256,-0.962525 0.1431,-0.37253 0.0101,-0.798877 0.16202,-1.162294 0.11734,-0.280722 0.34583,-0.496617 0.40843,-0.811747 0.0821,-0.413029 -0.0395,-0.92013 0.23654,-1.242443 0.1606,-0.187557 0.42856,-0.219116 0.65712,-0.260464 0.38247,-0.06919 0.70915,-0.307188 1.08687,-0.388482 0.229,-0.04929 0.36129,0.181228 0.42283,0.366554 0.0403,0.121219 0.0677,0.246238 0.0912,0.371652"
       id="path83"
       inkscape:path-effect="#path-effect85"
       inkscape:original-d="m 12.350497,127.30263 c 0.108437,-0.22353 0.182548,-0.46726 0.325311,-0.67059 0.119309,-0.16992 2.383988,-1.88332 2.480489,-1.95083 0.196976,-0.13781 1.049313,-0.0773 1.287683,-0.14631 0.582116,-0.16862 1.121611,-0.43319 1.694324,-0.63402 0.847607,-0.29723 1.785588,-0.39578 2.616037,-0.75595 0.532665,-0.23101 0.923704,-0.65266 1.423228,-0.92664 0.402949,-0.22101 0.756836,-0.0964 1.179251,-0.26824 0.695601,-0.28306 1.297911,-0.60943 2.01963,-0.8413 0.797541,-0.25622 1.789985,-0.0252 2.588928,-0.29262 0.713047,-0.23866 2.297671,-1.02559 2.792241,-1.37778 0.190275,-0.13549 0.300286,-0.35194 0.542187,-0.42674 0.562094,-0.17381 1.222668,-0.36151 1.802759,-0.42675 0.344893,-0.0388 0.721734,0.0728 1.070812,0.0853 0.704902,0.0254 1.476906,-0.12917 2.155179,-0.34139 0.737441,-0.23073 1.791801,-1.01436 2.426269,-1.42655 0.226295,-0.14701 0.348541,-0.36788 0.596402,-0.47551 0.906005,-0.39343 1.961314,-0.59272 2.778689,-1.1583 0.721931,-0.49955 0.181303,-0.60223 1.396121,-1.012 0.43556,-0.14692 1.089824,-0.0695 1.531671,-0.10973 0.338558,-0.0308 0.572304,-0.14374 0.881049,-0.21948 0.589119,-0.14451 1.049599,0.0299 1.62655,0 0.433332,-0.0225 0.887187,-0.12805 1.314791,-0.10973 0.138882,0.006 1.749364,0.23914 1.829869,0.20727 0.263313,-0.10421 1.258131,-0.72984 1.558779,-0.60963 0.272624,0.109 0.480571,0.0591 0.745504,-0.1707 0.120851,-0.10482 0.411575,-1.16243 0.406635,-1.30461 -0.01111,-0.3197 -0.220162,-0.56688 -0.230426,-0.89007 -0.01056,-0.33243 -0.0056,-0.95163 0.176208,-1.24365 0.133199,-0.21396 0.37443,-0.39278 0.433744,-0.64622 0.178613,-0.76316 -0.924277,-1.54594 -1.477449,-1.87767 -0.70222,-0.4211 -0.999453,-1.46182 -1.572331,-2.02399 -0.382006,-0.37486 -0.768652,-1.02859 -1.219909,-1.30461 -0.925465,-0.56608 -1.818405,-1.19081 -2.738028,-1.75575 -0.571378,-0.35101 -1.211326,-0.58212 -1.77565,-0.93884 -0.303816,-0.19204 -0.46286,-0.46392 -0.826828,-0.57305 -0.489093,-0.14665 -1.402713,-0.0979 -1.667217,-0.18289 -1.305904,-0.41954 -3.431362,-1.007226 -3.849502,-2.5117 -0.309769,-1.114554 -0.0075,-2.587458 0.121994,-3.694385 0.06562,-0.560739 0.577207,-3.661976 0.989484,-4.121129 0.585856,-0.652467 2.789803,-0.878281 3.469973,-1.072954 0.378918,-0.108452 0.678265,-0.487968 1.030147,-0.658407 0.933977,-0.452382 1.970363,-0.630566 2.90068,-1.085149 0.91948,-0.449287 1.715625,-1.15628 2.602479,-1.621629 0.300233,-0.157538 0.656727,-0.165915 0.948822,-0.353589 0.485376,-0.311859 0.793964,-0.869196 1.328351,-1.10953 1.006933,-0.452858 2.202731,-0.680403 3.253097,-1.133925 0.193532,-0.08356 0.132498,-0.209894 0.284652,-0.317008 0.314291,-0.22125 0.984454,-0.401709 1.369013,-0.451128 1.361112,-0.174921 1.496451,0.638652 2.412709,1.207072 1.838997,1.140862 3.392588,2.525437 5.096528,3.852891 1.224817,0.954194 2.952581,0.829353 4.242583,1.658208 0.330743,0.21251 0.599305,0.533376 0.908161,0.78033 0.363792,0.29088 1.001377,0.525224 1.287682,0.890066 0.695251,0.885965 1.142199,1.826239 1.721432,2.804319 0.306174,0.516996 0.666478,0.659051 1.05726,1.048573 0.531796,0.530084 0.978834,1.23354 1.45034,1.816714 0.940138,1.162785 1.731973,1.220126 3.14466,1.499695 1.096764,0.217048 2.198285,0.145634 3.293766,0.317013 0.1061,0.01659 0.135723,0.192352 0.216876,0.231659 0.147614,0.0715 0.944174,0.195998 1.111472,0.365781 0.473221,0.480248 0.575937,0.863007 1.192803,1.146114 0.507862,0.233078 1.222931,0.477478 1.775648,0.621828 0.286623,0.0748 0.752081,0.0451 1.016595,0.18289 0.437666,0.22792 0.771276,0.60152 1.260578,0.78033 0.419386,0.15326 0.931193,0.19273 1.328349,0.37798 0.03694,0.0172 1.473136,0.95648 1.53167,1.02418 0.285406,0.33008 0.428704,0.84913 0.826823,1.07296 0.972412,0.54669 1.580626,0.34382 2.548265,0.29262 0.143383,-0.008 1.106491,0.85331 2.060298,0.64621 0.329189,-0.0715 2.570189,-2.27634 2.832907,-2.6702 0.08551,-0.12818 -0.01304,-0.25519 0.121994,-0.39016 0.205602,-0.2055 0.51132,-0.26406 0.704832,-0.4999 0.40875,-0.49815 0.51171,-1.12987 0.82684,-1.633821 0.25803,-0.412646 0.83289,-0.572529 1.01659,-1.024183 0.13244,-0.325615 0.0881,-0.707065 0.13555,-1.048573 0.0453,-0.32612 0.35047,-0.524542 0.42018,-0.829106 0.10414,-0.45493 0.0993,-0.873445 0.24399,-1.329002 0.0719,-0.226365 0.64952,-0.28271 0.79972,-0.3292 0.87993,-0.272352 1.25534,-0.821018 1.47744,0.37797" />
    <path
       style="fill:none;stroke:#000000;stroke-width:0.264583px;stroke-linecap:butt;stroke-linejoin:miter;stroke-opacity:1"
       d="m 105.03677,95.613854 c -0.25593,-0.440491 -0.6498,-0.824784 -0.72322,-1.356127 -0.0355,-0.256688 0.25055,-0.263213 0.45437,-0.278822 0.16073,-0.01231 0.47201,0.19444 0.5124,-0.0015 0.1482,-0.718991 0.2241,-1.450829 0.31462,-2.178809 0.074,-0.594853 0.10073,-1.193914 0.13698,-1.791883 0.0173,-0.284703 -0.0328,-0.566341 -0.12979,-0.835361 -0.31326,-0.869341 -0.97856,-1.620111 -1.06853,-2.554979 -0.0818,-0.849797 -0.10304,-1.705601 -0.0845,-2.558423 0.0116,-0.533379 -0.0652,-1.087669 0.0909,-1.599658 0.19312,-0.633108 0.67655,-1.167577 0.71591,-1.847689 0.042,-0.726378 -0.36603,-1.416543 -0.20767,-2.148471 0.20448,-0.94509 0.77046,-1.798682 0.83162,-2.770889 0.0241,-0.383423 -0.11401,-0.777834 0.0545,-1.15401 0.0781,-0.174342 0.23356,-0.405088 0.084,-0.578998 -0.21475,-0.249705 -0.64883,-0.331133 -0.73222,-0.656296 -0.0992,-0.386829 0.31487,-0.694471 0.27393,-1.064938 -0.0282,-0.254791 -0.16329,-0.474782 -0.19245,-0.73718 -0.0928,-0.834862 -0.21373,-1.670816 -0.15842,-2.515819 0.0898,-1.372704 0.15025,-2.768143 0.52908,-4.090381 0.15573,-0.543541 0.69141,-0.884691 0.80105,-1.453504 0.11918,-0.618305 -0.0781,-1.319228 0.23344,-1.870923 0.25459,-0.450915 0.57902,-0.858405 0.86336,-1.290591 0.20271,-0.308108 0.46679,-0.586742 0.59353,-0.935325 0.14434,-0.396981 0.17977,-0.828241 0.39091,-1.204214 0.32452,-0.577865 1.05937,-0.862457 1.30554,-1.468843 0.063,-0.15511 0.10682,-0.28174 0.29743,-0.366918 0.71734,-0.320556 1.52246,-0.282583 2.28628,-0.214794 0.68961,0.0612 1.38823,0.06924 2.07201,-0.07556 1.4994,-0.317512 3.01052,-0.798797 4.23125,-1.703263 0.40285,-0.29848 0.75249,-0.661825 1.11445,-1.007412 0.21077,-0.201234 0.46026,-0.364122 0.64812,-0.586716 0.0747,-0.08847 -0.15558,-0.06603 0.0114,-0.163891 0.4416,-0.258719 0.91443,-0.458499 1.34147,-0.745557 0.61398,-0.412721 1.23426,-0.81105 1.83956,-1.24173 0.25605,-0.182183 0.38146,-0.488116 0.66293,-0.653425 0.41939,-0.246311 0.89861,-0.395668 1.27739,-0.705117 0.3347,-0.273437 0.31939,-0.799887 0.71589,-1.022973 0.64159,-0.360979 1.38862,-0.429307 2.09935,-0.557138 0.44838,-0.08065 0.85384,-0.293535 1.24623,-0.516336 0.38807,-0.220346 0.7841,-0.431856 1.22233,-0.545175 0.4294,-0.111037 0.89824,-0.135085 1.28202,-0.360493 0.22491,-0.132099 0.40657,-0.322103 0.64516,-0.43908 0.98386,-0.482368 2.07596,-0.698809 3.02231,-1.277499 0.26974,-0.164946 0.5257,-0.405799 0.84555,-0.437796 0.38575,-0.03859 0.78009,0.07023 1.16029,-0.02753 0.20206,-0.05195 0.1613,-0.339756 0.44014,-0.347589 0.36689,-0.01031 0.73438,-0.07198 1.08372,-0.19325 0.6482,-0.225012 1.48915,-0.165261 1.93906,-0.691831 0.30315,-0.354807 0.52652,-0.797371 0.90987,-1.064913 0.34605,-0.241512 0.80126,-0.202713 1.15537,-0.444856 0.81654,-0.558359 1.5636,-1.220751 2.44552,-1.681989 0.50289,-0.263008 0.98917,-0.561027 1.41784,-0.937509 0.7501,-0.658783 1.34314,-1.479861 2.11164,-2.116647 0.76988,-0.637928 1.71532,-1.031405 2.4367,-1.735572 0.43033,-0.420062 0.81708,-0.899777 1.34875,-1.199816 0.92881,-0.524162 1.91717,-0.939899 2.92712,-1.27907 0.78866,-0.264856 1.59151,-0.519527 2.41888,-0.60745 0.23115,-0.02456 0.60408,-0.195761 0.70077,0.02424 0.0631,0.143573 0.11873,0.265543 0.31726,0.298203 0.5497,0.09043 1.11232,0.168192 1.6667,0.112263 0.52805,-0.05327 0.92235,-0.447425 1.38016,-0.674466 0.73757,-0.365779 1.72114,-0.462216 2.18209,-1.166596 0.14802,-0.226192 0.14531,-0.514371 0.14264,-0.774636 -0.007,-0.674829 -0.0703,-1.35385 -0.23397,-2.008989 -0.12305,-0.492604 -0.62296,-0.734746 -0.88699,-1.138368 -0.81633,-1.247905 -1.29731,-2.706325 -2.24917,-3.860751 -0.35448,-0.429917 -0.80971,-0.768798 -1.11181,-1.246003 -0.41652,-0.657956 -0.77786,-1.35258 -1.06844,-2.076056 -0.18692,-0.465383 -0.15431,-0.98078 -0.10041,-1.467062 0.12803,-1.155086 0.42982,-2.29295 0.89265,-3.357994 0.18938,-0.435793 0.42521,-0.853456 0.75626,-1.202718 0.21767,-0.229644 0.43335,-0.466282 0.55433,-0.768812 0.18131,-0.453413 0.24716,-0.962418 0.52845,-1.367914 0.33923,-0.489018 0.80991,-0.963172 1.3915,-1.0762439 0.0896,-0.01742 0.003,0.1462859 0.15442,0.065776 0.17318,-0.092001 0.65634,-0.422188 0.51246,-0.2895136 -0.13305,0.1226871 -0.29096,0.2144685 -0.43643,0.3212786"
       id="path87"
       inkscape:path-effect="#path-effect89"
       inkscape:original-d="m 105.03677,95.613854 c -0.23268,-0.396219 -0.58842,-0.742437 -0.69803,-1.188659 -0.20083,-0.81751 0.85126,-0.263417 0.92171,-0.390165 0.093,-0.167371 0.40445,-2.664119 0.42019,-3.145719 0.0129,-0.393589 0.10389,-1.089898 0.0136,-1.426543 -0.26016,-0.96951 -0.96832,-1.799985 -1.15214,-2.792132 -0.0915,-0.493768 -0.15973,-3.764405 0.0135,-4.267436 0.18403,-0.53422 0.5352,-0.981048 0.66418,-1.536282 0.1814,-0.780928 -0.33721,-1.565023 -0.18976,-2.316609 0.18488,-0.942438 0.70004,-1.821027 0.84038,-2.767738 0.0483,-0.326046 -0.0675,-0.636352 -0.0271,-0.975418 0.0335,-0.281525 0.34985,-0.595106 0.18976,-0.829101 -0.14301,-0.20905 -0.72745,-0.491932 -0.75905,-0.71937 -0.0514,-0.37011 0.24724,-0.651232 0.28465,-0.987608 0.0196,-0.176863 -0.15882,-0.434065 -0.17621,-0.621829 -0.0739,-0.797634 -0.23463,-1.582766 -0.18977,-2.389767 0.0819,-1.473713 0.26572,-2.872851 0.52863,-4.291822 0.0988,-0.533154 0.68404,-0.918464 0.79972,-1.438743 0.13975,-0.628536 0.0721,-1.320234 0.24398,-1.938637 0.0517,-0.18584 1.12639,-1.643067 1.36901,-2.048372 0.20302,-0.339153 0.20954,-0.761844 0.35242,-1.121725 0.27155,-0.683942 0.89507,-1.240321 1.40968,-1.719172 0.18363,-0.170871 -0.0275,-0.230773 0.23042,-0.353584 1.38113,-0.657728 2.71314,-0.004 4.18837,-0.280435 1.64898,-0.309028 2.88473,-0.995203 4.47302,-1.743554 0.24016,-0.113157 1.41,-1.317056 1.73498,-1.56066 0.19457,-0.145854 -0.0754,-0.121891 0,-0.170701 0.3398,-0.22007 0.72445,-0.363467 1.07081,-0.573059 0.84458,-0.511082 1.29094,-0.974727 2.12808,-1.426543 0.25605,-0.138192 0.36547,-0.469577 0.60995,-0.621824 0.41988,-0.261485 0.89366,-0.430334 1.30124,-0.707178 0.43419,-0.294915 0.34131,-0.797722 0.75906,-1.060765 0.68239,-0.429686 1.8239,-0.433126 2.60248,-0.707176 0.5322,-0.187333 1.26311,-0.730162 1.74854,-0.865682 0.48081,-0.134228 0.97862,-0.220432 1.45034,-0.390165 0.22419,-0.08067 0.3751,-0.292672 0.58285,-0.402357 0.86657,-0.457536 1.85181,-0.638795 2.72447,-1.085149 0.37076,-0.189643 0.81619,-0.552498 1.1928,-0.682792 0.28067,-0.0971 1.16513,0.10428 1.35545,-0.109736 0.0526,-0.05913 0.11988,-0.275174 0.21688,-0.292624 0.0535,-0.0096 0.10844,0.0081 0.16266,0.0122 0.22139,-0.02845 0.44764,-0.03114 0.66417,-0.08535 0.84257,-0.210966 1.43638,-0.637794 2.31784,-0.804717 0.28715,-0.340397 0.55385,-0.699155 0.86145,-1.021191 0.23857,-0.249761 0.80441,-0.223808 1.11148,-0.426743 0.65896,-0.43549 1.26209,-0.964204 1.92475,-1.389966 0.55143,-0.354297 1.17019,-0.604827 1.69432,-1.011994 0.82371,-0.6399 1.44645,-1.448814 2.23651,-2.206879 0.73153,-0.701903 1.70439,-1.069817 2.46693,-1.755748 0.68888,-0.619661 0.87569,-1.029317 1.7621,-1.499697 1.21856,-0.646632 2.83368,-1.271447 4.20192,-1.57286 0.33878,-0.07463 1.31422,-0.323895 1.613,-0.158505 0.0746,0.04129 0.0418,0.178418 0.10843,0.231664 0.15589,0.124648 1.61128,0.223211 1.95186,0.170695 0.41784,-0.06443 0.82715,-0.417767 1.19281,-0.609636 0.7888,-0.413904 1.59396,-0.592511 2.27716,-1.207073 0.35069,-0.315453 0.0352,-2.643648 -0.13554,-2.975019 -0.20225,-0.392583 -0.59193,-0.603427 -0.82683,-0.96322 -0.78976,-1.209629 -1.3184,-2.575232 -2.16873,-3.75535 -0.27779,-0.385512 -0.64836,-0.649441 -0.94882,-1.011995 -0.42297,-0.510389 -1.35808,-2.242559 -1.42324,-2.828703 -0.15643,-1.407138 0.54,-3.895216 1.24703,-5.096546 0.21598,-0.366969 0.54752,-0.622079 0.79972,-0.951027 0.21721,-0.283317 0.40153,-1.185691 0.62351,-1.585049 0.28303,-0.509186 0.90726,-0.986264 1.46389,-1.1948839 0.0938,-0.035147 0.0198,0.1355419 0.0949,0.097541 0.18325,-0.09272 0.7009,-0.4229724 0.54219,-0.2926258 -0.12905,0.1059899 -0.27109,0.1950842 -0.40664,0.2926258" />
    <path
       style="fill:none;stroke:#000000;stroke-width:0.264583px;stroke-linecap:butt;stroke-linejoin:miter;stroke-opacity:1"
       d="m 163.67461,10.066964 c -0.0272,0.31929 -0.01,0.645115 -0.0813,0.957998 -0.003,0.01488 0.008,0.03723 0.0248,0.02145 0.0356,-0.03438 0.0583,-0.07963 0.0794,-0.123735 0.0414,-0.08645 0.0771,-0.176697 0.0948,-0.271258 0.0155,-0.08294 -0.0136,-0.165491 -0.0425,-0.242078 -0.0366,-0.09699 -0.0897,-0.195212 -0.0805,-0.301295 0.005,-0.05731 0.0207,-0.1131014 0.0356,-0.1684641 0.0923,-0.3433608 0.2606,-0.658549 0.4074,-0.9803433 0.1187,-0.2601942 0.22366,-0.531486 0.25678,-0.8175402 0.0149,-0.1285274 0.0133,-0.2581512 0.016,-0.3872996 0.0294,-1.4040409 -0.0114,-2.809722 -0.13179,-4.2094043 -0.0282,-0.3278651 -0.0187,-0.6572693 -0.0329,-0.9857454 -0.0118,-0.2722326 -0.0388,-0.547642 -0.12725,-0.8059962 -0.0191,-0.055709 -0.0319,-0.1135854 -0.0346,-0.1726326 -0.009,-0.1915593 0.0602,-0.3818032 0.0228,-0.5728211"
       id="path91"
       inkscape:path-effect="#path-effect93"
       inkscape:original-d="m 163.67461,10.066964 c -0.0271,0.317013 -0.0757,0.632919 -0.0813,0.951038 -0.003,0.157543 0.21322,-0.269489 0.20331,-0.426745 -0.0113,-0.179082 -0.15823,-0.348541 -0.12205,-0.524293 0.15084,-0.7326943 0.68548,-1.3221738 0.70489,-2.0727504 0.0378,-1.4603068 0.0127,-2.9474755 -0.12198,-4.4015604 -0.0631,-0.6810142 0.0319,-1.2222181 -0.17621,-1.8776751 -0.0713,-0.2246695 0.0467,-0.4761219 0,-0.7071769" />
  </g>
</svg>
