<?xml version="1.0" encoding="UTF-8" standalone="no"?>
<!-- Created with Inkscape (http://www.inkscape.org/) -->

<svg
   width="169.33333mm"
   height="127mm"
   viewBox="0 0 169.33333 127"
   version="1.1"
   id="svg5"
   inkscape:version="1.1.2 (08b2f3d93c, 2022-04-05)"
   sodipodi:docname="Derme.svg"
   xmlns:inkscape="http://www.inkscape.org/namespaces/inkscape"
   xmlns:sodipodi="http://sodipodi.sourceforge.net/DTD/sodipodi-0.dtd"
   xmlns="http://www.w3.org/2000/svg"
   xmlns:svg="http://www.w3.org/2000/svg">
  <sodipodi:namedview
     id="namedview7"
     pagecolor="#ffffff"
     bordercolor="#666666"
     borderopacity="1.0"
     inkscape:pageshadow="2"
     inkscape:pageopacity="0.0"
     inkscape:pagecheckerboard="0"
     inkscape:document-units="mm"
     showgrid="false"
     inkscape:zoom="0.94221278"
     inkscape:cx="356.60735"
     inkscape:cy="277.53816"
     inkscape:window-width="1366"
     inkscape:window-height="704"
     inkscape:window-x="0"
     inkscape:window-y="27"
     inkscape:window-maximized="1"
     inkscape:current-layer="layer2" />
  <defs
     id="defs2">
    <inkscape:path-effect
       effect="simplify"
       id="path-effect138"
       is_visible="true"
       lpeversion="1"
       steps="1"
       threshold="0.000408163"
       smooth_angles="360"
       helper_size="0"
       simplify_individual_paths="false"
       simplify_just_coalesce="false" />
    <inkscape:path-effect
       effect="simplify"
       id="path-effect101"
       is_visible="true"
       lpeversion="1"
       steps="1"
       threshold="0.000408163"
       smooth_angles="360"
       helper_size="0"
       simplify_individual_paths="false"
       simplify_just_coalesce="false" />
    <inkscape:path-effect
       effect="simplify"
       id="path-effect97"
       is_visible="true"
       lpeversion="1"
       steps="1"
       threshold="0.000408163"
       smooth_angles="360"
       helper_size="0"
       simplify_individual_paths="false"
       simplify_just_coalesce="false" />
    <inkscape:path-effect
       effect="simplify"
       id="path-effect93"
       is_visible="true"
       lpeversion="1"
       steps="1"
       threshold="0.000408163"
       smooth_angles="360"
       helper_size="0"
       simplify_individual_paths="false"
       simplify_just_coalesce="false" />
    <inkscape:path-effect
       effect="simplify"
       id="path-effect89"
       is_visible="true"
       lpeversion="1"
       steps="1"
       threshold="0.000408163"
       smooth_angles="360"
       helper_size="0"
       simplify_individual_paths="false"
       simplify_just_coalesce="false" />
    <inkscape:path-effect
       effect="simplify"
       id="path-effect85"
       is_visible="true"
       lpeversion="1"
       steps="1"
       threshold="0.000408163"
       smooth_angles="360"
       helper_size="0"
       simplify_individual_paths="false"
       simplify_just_coalesce="false" />
    <inkscape:path-effect
       effect="simplify"
       id="path-effect81"
       is_visible="true"
       lpeversion="1"
       steps="1"
       threshold="0.000408163"
       smooth_angles="360"
       helper_size="0"
       simplify_individual_paths="false"
       simplify_just_coalesce="false" />
    <inkscape:path-effect
       effect="simplify"
       id="path-effect77"
       is_visible="true"
       lpeversion="1"
       steps="1"
       threshold="0.000408163"
       smooth_angles="360"
       helper_size="0"
       simplify_individual_paths="false"
       simplify_just_coalesce="false" />
    <inkscape:path-effect
       effect="simplify"
       id="path-effect73"
       is_visible="true"
       lpeversion="1"
       steps="1"
       threshold="0.000408163"
       smooth_angles="360"
       helper_size="0"
       simplify_individual_paths="false"
       simplify_just_coalesce="false" />
    <inkscape:path-effect
       effect="simplify"
       id="path-effect69"
       is_visible="true"
       lpeversion="1"
       steps="1"
       threshold="0.000408163"
       smooth_angles="360"
       helper_size="0"
       simplify_individual_paths="false"
       simplify_just_coalesce="false" />
    <inkscape:path-effect
       effect="simplify"
       id="path-effect65"
       is_visible="true"
       lpeversion="1"
       steps="1"
       threshold="0.000408163"
       smooth_angles="360"
       helper_size="0"
       simplify_individual_paths="false"
       simplify_just_coalesce="false" />
    <inkscape:path-effect
       effect="simplify"
       id="path-effect61"
       is_visible="true"
       lpeversion="1"
       steps="1"
       threshold="0.000408163"
       smooth_angles="360"
       helper_size="0"
       simplify_individual_paths="false"
       simplify_just_coalesce="false" />
    <inkscape:path-effect
       effect="simplify"
       id="path-effect57"
       is_visible="true"
       lpeversion="1"
       steps="1"
       threshold="0.000408163"
       smooth_angles="360"
       helper_size="0"
       simplify_individual_paths="false"
       simplify_just_coalesce="false" />
  </defs>
  <g
     inkscape:groupmode="layer"
     id="layer2"
     inkscape:label="Derme">
    <path
       style="fill:none;stroke:#000000;stroke-width:0.264583px;stroke-linecap:butt;stroke-linejoin:miter;stroke-opacity:1"
       d="m 8.9397648,127.26664 c -0.1463247,-0.65282 -0.075767,-1.34851 0.1959418,-1.96062 0.371236,-0.83632 0.9952054,-1.52047 1.5907964,-2.20052 0.713768,-0.81498 1.193874,-1.82399 1.987848,-2.56419 0.211355,-0.19704 0.504394,-0.26103 0.721569,-0.45791 1.083786,-0.98252 2.405806,-1.63545 3.679641,-2.33063 0.586124,-0.31987 1.172367,-0.64417 1.708625,-1.04518 0.55356,-0.41395 1.109913,-0.82997 1.734742,-1.13531 1.088267,-0.53182 2.300703,-0.71491 3.43498,-1.11691 0.458729,-0.16258 0.874834,-0.49248 1.378869,-0.48844 0.621113,0.005 1.236815,0.11144 1.842917,0.23675 0.359237,0.0743 0.726035,0.1174 1.078484,0.21981 0.616203,0.17904 1.147459,0.60228 1.78294,0.7064 0.377854,0.0619 0.774553,-0.11173 1.138412,0.0406 0.313626,0.1313 0.588936,0.37661 0.943359,0.38909 0.563869,0.0199 1.1024,-0.18044 1.643166,-0.31138 0.573255,-0.13881 1.088558,-0.49393 1.416725,-0.98607 0.458347,-0.68737 0.62599,-1.51115 0.826352,-2.29922 0.195865,-0.77038 0.398713,-1.57665 0.910519,-2.20548 0.141334,-0.17365 0.264858,-0.4461 0.488528,-0.45809 0.169558,-0.009 0.335923,0.0547 0.50062,0.0908 0.221028,0.0485 0.436445,0.15403 0.663149,0.15 1.458162,-0.0259 2.912992,-0.16401 4.371071,-0.17582 0.792572,-0.006 1.527085,0.34889 2.204313,0.72687 0.695723,0.3883 1.360088,0.86299 2.135228,1.08191 0.468416,0.13229 1.042739,0.20641 1.433742,-0.094 0.225794,-0.17346 0.293644,-0.46738 0.518492,-0.65261 0.195595,-0.16113 0.500455,-0.26533 0.563215,-0.51781 0.107028,-0.43057 -0.05256,-0.88735 -0.31091,-1.23451 -0.263816,-0.3545 -0.653925,-0.59515 -1.077211,-0.72716 -1.12746,-0.35161 -2.274127,-0.65373 -3.36856,-1.09753 -0.423719,-0.17182 -0.645659,-0.59558 -0.956814,-0.904 -0.243972,-0.24183 -0.588835,-0.31339 -0.905033,-0.41008 -1.094779,-0.33478 -2.37603,-0.29631 -3.288788,-0.99203 -0.135828,-0.10353 0.02543,-0.26864 -0.111212,-0.40883 -0.239784,-0.246 -0.498876,-0.48591 -0.805681,-0.64202 -1.103243,-0.56136 -2.489135,-0.50859 -3.463359,-1.2801 -0.151884,-0.12028 -0.186555,-0.32756 -0.254943,-0.49892 -0.128398,-0.32172 -0.364971,-0.58488 -0.587512,-0.84431 -0.265119,-0.30907 -0.499909,-0.65164 -0.620489,-1.046389 -0.249713,-0.817506 -0.146471,-1.7209 -0.5293,-2.499616 -0.387948,-0.789129 -0.938893,-1.496342 -1.230641,-2.333173 -0.201218,-0.577161 0.09179,-1.200836 -0.127896,-1.776016 -0.159922,-0.418702 -0.580392,-0.630243 -0.887012,-0.925461 -0.264445,-0.254611 -0.368432,-0.629821 -0.410373,-0.982113 -0.0947,-0.795451 0.130204,-1.581857 0.381947,-2.328326 0.167163,-0.495672 0.402681,-0.969861 0.5262,-1.478291 0.133823,-0.550843 0.08181,-1.140069 0.330158,-1.667335 0.213291,-0.45283 0.536858,-0.851637 0.942607,-1.146677 0.263881,-0.191881 0.507041,-0.414385 0.679163,-0.699222 0.347973,-0.575844 0.777834,-1.120595 1.354412,-1.483112 0.619182,-0.389304 1.302031,-0.663471 1.9232,-1.050048 0.258419,-0.160824 0.552814,-0.244323 0.850298,-0.304273 0.849874,-0.17127 1.63259,-0.574116 2.351891,-1.047535 0.689831,-0.454023 1.372906,-0.920582 2.101341,-1.312708 0.832069,-0.447914 1.674702,-0.875 2.513462,-1.310663 0.752507,-0.390862 1.608737,-0.511893 2.447314,-0.537903 1.021417,-0.03168 2.049533,-0.0049 3.062108,-0.198354 0.193109,-0.03689 0.338097,-0.178412 0.512819,-0.256032 0.459248,-0.204021 0.95501,-0.317119 1.450378,-0.389321 1.258561,-0.183441 2.54849,-0.15521 3.796828,0.07397 0.439897,0.08076 0.890116,0.145259 1.304602,0.317262 0.796912,0.330703 1.439089,0.931146 2.042715,1.529957 0.293094,0.290756 0.632191,0.539255 0.889794,0.861568 0.233529,0.292191 0.0768,0.791188 0.39597,1.006993 0.259716,0.175604 0.649584,0.0543 0.873185,0.264471 0.162239,0.152491 0.203599,0.411276 0.409924,0.525352 0.215499,0.119148 0.462055,0.155426 0.706649,0.170645 0.414302,0.02578 0.831033,0.04836 1.238919,0.145762 0.142942,0.03414 0.227211,0.167286 0.208152,0.31748 -0.02479,0.195321 -0.08537,0.386092 -0.04662,0.589197 0.174705,0.915681 0.675783,1.728239 0.893807,2.629721 0.192895,0.79758 -0.05612,1.720663 0.391535,2.423309 0.115262,0.180916 0.176755,0.460016 0.383379,0.517295 0.376254,0.104303 0.764151,0.01427 1.151647,0.152268 0.113681,0.04048 0.312606,0.315767 0.353832,0.193895 0.12082,-0.357171 0.185404,-0.73092 0.252128,-1.101228 0.04196,-0.232854 0.136185,-0.463349 0.122175,-0.699389 -0.0089,-0.150707 -0.190703,-0.324166 -0.08887,-0.44168 0.298168,-0.344077 0.603518,-0.70121 0.999252,-0.935911 0.513606,-0.304608 1.128386,-0.325721 1.696003,-0.462867 0.436568,-0.105482 1.312636,-0.794915 1.302898,-0.34338 -0.0088,0.408355 -0.118897,0.81751 -0.07668,1.224259 0.05053,0.48685 0.271851,0.963298 0.207293,1.454001 -0.05521,0.419623 -0.545736,0.76611 -0.441273,1.168982 0.0345,0.133037 0.197834,0.166071 0.194652,0.346731 -0.0076,0.434133 -0.02247,0.880547 0.15483,1.299318 0.06435,0.15199 0.242752,0.20302 0.394431,0.167138 0.383942,-0.09083 0.707855,-0.34004 0.990425,-0.603591 0.52504,-0.489701 0.980689,-1.081156 1.211718,-1.766507 0.135929,-0.403236 0.177086,-0.867481 -0.02841,-1.255651"
       id="path55"
       inkscape:path-effect="#path-effect57"
       inkscape:original-d="m 8.9397648,127.26664 c -0.3995343,-1.88644 0.8554596,-3.03208 1.9552472,-4.36251 0.635996,-0.76937 1.107723,-1.6071 1.801889,-2.34505 0.182697,-0.19422 0.477203,-0.23541 0.690085,-0.43107 1.387956,-1.27565 3.115235,-1.97977 4.715598,-2.93133 0.697941,-0.41499 1.290275,-0.97275 1.993584,-1.37944 1.231601,-0.71219 2.480574,-0.92383 3.795473,-1.32772 0.443686,-0.13628 0.787737,-0.40112 1.24599,-0.50005 0.544812,-0.11761 2.234607,0.25028 2.856195,0.36211 0.733394,0.13193 1.300568,0.56278 1.993583,0.7587 0.373938,0.10571 0.867931,-0.0872 1.207648,0.0517 0.441108,0.18036 0.60034,0.43874 1.188487,0.3966 0.482786,-0.0346 0.950003,-0.18881 1.418511,-0.31038 2.749666,-0.71349 1.632484,-4.52847 3.642124,-5.94886 0.06891,-0.0487 1.018831,0.24346 1.130975,0.2414 1.398593,-0.0257 2.874846,-0.0953 4.274709,-0.17243 2.214412,-0.12195 3.904152,2.54794 5.846559,1.74155 0.20883,-0.0867 0.303964,-0.4283 0.460065,-0.58627 0.145301,-0.14704 0.651187,-0.44532 0.690086,-0.65523 0.151837,-0.81934 -0.530981,-1.65436 -1.265168,-1.8795 -1.157076,-0.35482 -2.296708,-0.76576 -3.450429,-1.1208 -0.584041,-0.17972 -0.781973,-0.95439 -1.418516,-1.17252 -1.240808,-0.4252 -2.536375,-0.65489 -3.757136,-1.13805 -0.172829,-0.0684 -0.01188,-0.25014 -0.07667,-0.34486 -0.124627,-0.18216 -0.627668,-0.59459 -0.843441,-0.70696 -1.082329,-0.56365 -2.414514,-0.68293 -3.488772,-1.29323 -0.146662,-0.0833 -0.230304,-0.4833 -0.306705,-0.62075 -0.286727,-0.51584 -0.796896,-0.92797 -1.03513,-1.44842 -0.408395,-0.89218 -0.22357,-1.96288 -0.67092,-2.862352 -0.352639,-0.709039 -0.999132,-1.576967 -1.22682,-2.345053 -0.173577,-0.585546 0.128162,-1.199171 -0.13418,-1.776036 -0.231693,-0.509469 -0.856552,-0.699987 -1.073473,-1.155288 -0.644713,-1.353214 0.264276,-3.160492 0.67092,-4.37974 0.174725,-0.523875 0.07888,-1.173829 0.325871,-1.70706 0.575292,-1.241973 1.229963,-1.209781 1.610207,-1.845008 0.896064,-1.496947 1.465945,-1.609437 2.856195,-2.345061 0.452033,-0.239183 0.679146,-0.457451 1.188482,-0.551775 1.669672,-0.309213 2.618354,-1.237395 4.025498,-2.069171 0.94906,-0.560999 1.967381,-1.014251 2.932869,-1.551877 1.751124,-0.9751 3.524538,-0.415697 5.405684,-0.758692 0.63764,-0.116266 0.503904,-0.225182 0.920117,-0.379344 1.730552,-0.64098 4.334222,-0.496649 6.076593,-0.03449 1.237813,0.328329 2.305526,1.642758 3.201244,2.448515 0.271134,0.243903 0.167426,0.738555 0.402545,1.017344 0.185166,0.219559 0.846098,0.176424 0.958448,0.344861 0.244906,0.367164 0.177546,0.468278 0.728429,0.620749 0.258784,0.07162 1.690661,-0.0071 1.782728,0.344861 0.04912,0.187796 -0.08929,0.442661 -0.05751,0.637992 0.142759,0.877485 0.604092,1.71477 0.862611,2.551978 0.262244,0.849273 0.100687,1.787668 0.440888,2.603701 0.024,0.05754 0.372724,0.5143 0.383379,0.517295 0.307496,0.08644 0.657045,-0.01445 0.958448,0.06897 0.255553,0.07073 0.318571,0.210931 0.517562,0.310372 0.08562,0.04279 0.391702,-1.739728 0.402558,-1.81052 0.01746,-0.113874 -0.149715,-0.399814 -0.07667,-0.482803 0.920763,-1.046203 1.175936,-1.119021 2.511145,-1.344962 0.449876,-0.07613 1.001535,-0.325991 1.476023,-0.379349 0.01857,-0.0021 -0.08569,1.08386 -0.07668,1.224259 0.02222,0.346458 0.284855,1.166368 0.191688,1.551876 -0.105095,0.434869 -0.284613,0.661318 -0.421709,1.051827 -0.03709,0.105659 0.19169,0.163907 0.19169,0.275889 0,0.475682 -0.09505,1.03573 0.191688,1.448422 0.497391,0.715862 3.334237,-1.980962 2.530311,-3.517593" />
    <path
       style="fill:none;stroke:#000000;stroke-width:0.264583px;stroke-linecap:butt;stroke-linejoin:miter;stroke-opacity:1"
       d="m 74.210462,85.86599 c 0.846682,0.41034 1.891053,0.548664 2.540391,1.23093 0.105618,0.110974 0.153401,0.263216 0.198335,0.406153 0.0541,0.172107 0.173384,0.309564 0.251266,0.470874 0.265903,0.550738 0.262441,1.181024 0.208716,1.777606 -0.0573,0.636294 -0.195335,1.272884 -0.129454,1.914432 0.04213,0.410274 0.225504,0.80874 0.536565,1.085244 0.443059,0.393837 1.025569,0.572753 1.593854,0.69543 0.748984,0.161685 1.518218,0.271068 2.284643,0.221752 0.42054,-0.02706 0.863017,-0.07885 1.224612,-0.309217 0.146067,-0.09306 0.299124,-0.219731 0.31658,-0.404829 0.0257,-0.272529 -0.08488,-0.532871 -0.187863,-0.778419 -0.223752,-0.533518 -0.496575,-1.06321 -0.551555,-1.648511 -0.03378,-0.359632 0.07093,-0.723985 0.279272,-1.021642 0.252478,-0.360719 0.61345,-0.665511 1.050432,-0.76812 0.480443,-0.112814 0.977044,0.0054 1.434482,0.158814 0.357247,0.119817 0.685751,0.333061 1.055561,0.403 0.248405,0.04698 0.53117,0.02274 0.741058,0.16547 0.103502,0.07038 0.0591,0.230326 0.04167,0.334843 -0.02971,0.178159 -0.03387,0.358862 -0.01808,0.538978 0.06453,0.73597 0.431375,1.406953 0.478697,2.147171 0.04755,0.74374 -0.139073,1.495438 0.02398,2.232815 0.06514,0.294597 0.201338,0.570465 0.392679,0.804859 0.507586,0.621794 1.141388,1.131366 1.635385,1.763201 0.09866,0.126195 0.240202,0.244955 0.259927,0.407951 0.05419,0.447813 0.05288,0.900032 0.08957,1.349366 0.0451,0.552408 0.09996,1.116669 0.313174,1.633209 0.119011,0.28832 0.318026,0.56945 0.622601,0.6835 0.224878,0.0842 0.482501,0.0457 0.682553,-0.0844 0.32102,-0.20886 0.536048,-0.53814 0.732404,-0.85883 0.20804,-0.33977 0.347682,-0.723474 0.596553,-1.035193 0.06306,-0.07898 0.161261,-0.240093 0.260218,-0.170257 0.08778,0.06195 0.06746,0.18989 0.06543,0.283749 -0.0045,0.208385 -0.08154,0.426303 -0.01491,0.626561 0.07113,0.21377 0.234911,0.39585 0.453396,0.46949 0.239435,0.0807 0.516941,0.0513 0.733328,0.18575 0.250107,0.15542 0.454795,0.37115 0.668516,0.57126 0.321802,0.30131 0.627413,0.63291 1.012629,0.85224 0.147552,0.084 0.336308,0.19361 0.500993,0.10987 0.149599,-0.0761 0.209796,-0.24888 0.252051,-0.39922 0.129182,-0.45963 0.176468,-0.94012 0.173895,-1.41556 -0.0012,-0.22633 0.01014,-0.46711 -0.115709,-0.669721 -0.160139,-0.257816 -0.471883,-0.422314 -0.538798,-0.731115 -0.11767,-0.543028 -0.01385,-1.101023 0.10321,-1.634738 0.118788,-0.541592 0.36023,-1.103578 0.231018,-1.648827 -0.04949,-0.208846 -0.185942,-0.382291 -0.278159,-0.573117 -0.0462,-0.09561 -0.09362,-0.204858 -0.03649,-0.314053 0.196034,-0.374646 0.661938,-0.481026 0.878041,-0.842808 0.113524,-0.190053 0.06381,-0.419151 7.54e-4,-0.617131 -0.113318,-0.355783 -0.312067,-0.683393 -0.380241,-1.053278 -0.02513,-0.136362 0.0057,-0.283741 0.110713,-0.384711 0.278608,-0.267809 0.650256,-0.410608 1.01333,-0.520399 0.889216,-0.268893 1.815792,-0.375869 2.732655,-0.506791 0.40301,-0.05755 0.80464,-0.123845 1.2064,-0.194048 0.119,-0.02079 0.21753,-0.09151 0.2551,-0.216733 0.0993,-0.330922 0.1227,-0.678847 0.14343,-1.021764 0.0294,-0.4859 0.0435,-0.972873 0.0255,-1.459634 -0.035,-0.94399 -0.0826,-1.889694 -0.21167,-2.825671 -0.0486,-0.352196 -0.094,-0.713816 -0.26701,-1.032305 -0.31415,-0.57815 -0.87178,-0.997257 -1.11252,-1.618678 -0.13119,-0.338643 -0.13565,-0.708574 -0.14047,-1.066554 -0.009,-0.67307 0.0356,-1.353087 -0.10084,-2.019435 -0.0559,-0.273113 -0.21204,-0.514918 -0.41371,-0.704639 -0.496862,-0.467412 -1.157136,-0.71488 -1.645903,-1.193486 -0.100916,-0.09882 -0.184309,-0.221976 -0.188412,-0.370584 -0.0052,-0.188428 0.02885,-0.386576 -0.06978,-0.563307 -0.198841,-0.356323 -0.495566,-0.663194 -0.614387,-1.060173 -0.08201,-0.274005 0.09516,-0.583632 -0.05053,-0.837436 -0.171802,-0.299287 -0.558304,-0.46218 -0.651119,-0.792896 -0.03666,-0.13063 0.04286,-0.257072 0.08543,-0.377317 0.03264,-0.0922 0.146354,-0.185288 0.109222,-0.276066 -0.210092,-0.513625 -0.24694,-1.097137 -0.08464,-1.630857 0.155295,-0.510689 0.32503,-1.472519 0.837523,-1.339032 0.106275,0.02768 0.197993,0.105029 0.287209,0.168941 0.381226,0.273102 0.756535,0.555539 1.106605,0.868532 0.778005,0.695604 1.527315,1.432744 2.389145,2.024391 0.26164,0.179617 0.53284,0.353613 0.83545,0.459618 0.12586,0.04409 0.25876,0.0149 0.37776,-0.03749 0.42057,-0.185158 0.71689,-0.570255 0.91214,-0.97341 0.16888,-0.348711 0.33449,-0.729797 0.30278,-1.118098 -0.0238,-0.291762 -0.1158,-0.572669 -0.20333,-0.850248 -0.26492,-0.840175 -0.61177,-1.652884 -0.86484,-2.49653 -0.31494,-1.049893 -0.36217,-2.152153 -0.44926,-3.237664 -0.0617,-0.769305 -0.16452,-1.537769 -0.37077,-2.283802 -0.21328,-0.771476 -0.30113,-1.566529 -0.50746,-2.348596 -0.0398,-0.150857 0.13735,-0.190116 0.24584,-0.214713 0.31893,-0.07231 0.6419,-0.115147 0.96602,-0.163131 0.14064,-0.02082 0.0668,-0.156194 0.01,-0.236685 -0.0714,-0.101106 -0.20859,-0.210675 -0.16225,-0.345032 0.067,-0.194379 0.27491,-0.264997 0.42182,-0.385756 0.1296,-0.10653 0.14698,-0.283583 0.1689,-0.437806 0.0663,-0.466637 -0.0199,-0.958541 0.16011,-1.405239 0.10055,-0.249467 0.27594,-0.457697 0.43334,-0.672547 0.38142,-0.520638 0.89788,-0.9667 1.1398,-1.565392 0.027,-0.06692 0.16734,-0.252861 0.0934,-0.234281 -0.0243,0.0061 -0.0451,0.0214 -0.0656,0.03515"
       id="path59"
       inkscape:path-effect="#path-effect61"
       inkscape:original-d="m 74.210462,85.86599 c 0.843441,0.408099 1.711598,0.768633 2.530322,1.224299 0.10755,0.05986 0.210566,0.474413 0.287541,0.586266 1.317519,1.914461 -1.21884,4.612542 1.763551,5.603994 0.951518,0.316317 3.539887,0.745249 4.332205,-0.08622 0.589701,-0.618839 -1.285605,-2.319417 -0.383378,-3.638286 0.995153,-1.454708 2.321001,-0.734983 3.565445,-0.258643 0.01254,0.0048 0.7184,0.113734 0.785937,0.189672 0.05484,0.06166 -0.01773,0.483391 -0.01916,0.517295 -0.03489,0.816059 0.345387,1.450861 0.460055,2.224352 0.14723,0.993145 -0.256786,2.044676 0.230032,2.983052 0.330207,0.636498 2.050576,2.091579 2.108602,2.483004 0.123343,0.83204 -0.06133,3.564605 1.207645,3.707255 1.096849,0.1233 1.685515,-2.345577 2.089423,-2.18987 0.15861,0.06114 -0.02516,0.722866 0.05751,0.93113 0.223297,0.56245 0.644178,0.44854 1.111808,0.60351 0.441828,0.14642 1.790197,1.917 2.30029,1.53463 0.354047,-0.2654 0.405911,-1.84041 0.364215,-2.17263 -0.05747,-0.457844 -0.571638,-0.633858 -0.651756,-1.051828 -0.206635,-1.077998 0.397602,-2.137307 0.345048,-3.224451 -0.01024,-0.211897 -0.406019,-0.688218 -0.345048,-0.84491 0.180887,-0.464875 0.816848,-0.539202 0.958461,-1.034582 0.145925,-0.51046 -0.689719,-1.503034 -0.364215,-1.879499 0.875019,-1.012013 4.986575,-1.050002 5.194815,-1.362199 0.18761,-0.281252 0.21595,-1.468231 0.23004,-1.810525 0.0359,-0.872467 -0.14318,-3.560625 -0.32587,-4.259035 -0.23243,-0.888524 -1.21596,-1.405541 -1.36101,-2.345058 -0.13873,-0.898575 0.0845,-2.027232 -0.19169,-2.896838 -0.27396,-0.862552 -1.592316,-1.183778 -2.127769,-1.879492 -0.165436,-0.21495 -0.0049,-0.510333 -0.115017,-0.741455 -0.1637,-0.343588 -0.628428,-0.840211 -0.67092,-1.241499 -0.02323,-0.219382 0.0782,-0.540525 -0.03834,-0.741447 -0.143592,-0.24756 -0.466582,-0.509842 -0.632577,-0.758701 -0.100584,-0.150796 0.210804,-0.607946 0.191688,-0.655232 -0.454274,-1.12377 -0.0713,-2.141197 0.747596,-2.983053 0.03893,-0.04002 0.928741,0.639352 1.073478,0.758693 0.689473,0.568499 3.107451,2.956626 3.776301,2.776138 0.79824,-0.215406 1.32111,-1.349907 1.36101,-2.103655 0.0269,-0.508331 -0.92271,-2.835524 -1.11181,-3.534828 -0.42506,-1.57185 -0.29964,-3.134794 -0.61341,-4.707358 -0.20075,-1.006105 -0.67091,-2.045938 -0.67091,-3.086513 0,-0.207362 1.03268,-0.196932 1.26515,-0.327617 0.16697,-0.09386 -0.2488,-0.346787 -0.21087,-0.534533 0.0536,-0.265247 0.45956,-0.314423 0.53675,-0.569021 0.18805,-0.620318 -0.0306,-1.285906 0.3067,-1.862253 0.24501,-0.418719 1.99937,-2.598161 1.51435,-2.258844" />
    <path
       style="fill:none;stroke:#000000;stroke-width:0.264583px;stroke-linecap:butt;stroke-linejoin:miter;stroke-opacity:1"
       d="m 105.07276,54.949216 c 0.4263,-0.669129 0.69066,-1.47384 1.2791,-2.007516 0.11604,-0.105241 0.25825,-0.176686 0.39601,-0.248885 0.71707,-0.375825 1.45397,-0.712433 2.1933,-1.041609 0.54111,-0.24092 1.07611,-0.49752 1.62931,-0.709378 0.0694,-0.02656 0.17569,0.0039 0.18733,0.08994 0.0132,0.09792 0.12016,0.130107 0.20372,0.141941 0.34567,0.04895 0.69551,-0.01773 1.02414,-0.12578 0.36875,-0.121235 0.7362,-0.279045 1.13064,-0.284805 0.34294,-0.005 0.68998,0.09296 0.9699,0.295679 0.37746,0.273358 0.65093,0.673101 1.06462,0.90042 0.2045,0.112371 0.43821,0.15387 0.66998,0.166013 0.41304,0.02164 0.83292,0.07716 1.21164,0.248846 0.0991,0.04494 0.2125,0.07129 0.29355,0.144899 0.17068,0.155028 0.30175,0.347326 0.45596,0.517796 0.14426,0.159474 0.29282,0.327766 0.49184,0.420453 0.10072,0.04691 0.22878,0.02863 0.30342,-0.05729 0.14806,-0.17043 0.21912,-0.393245 0.26361,-0.610313 0.068,-0.331693 0.0882,-0.681743 -5.9e-4,-1.011096 -0.0448,-0.166174 -0.13862,-0.319646 -0.28023,-0.425324 -0.49609,-0.370223 -0.81688,-0.917107 -1.29714,-1.306369 -1.08176,-0.876794 -2.16431,-1.762134 -3.10869,-2.790726 -0.2031,-0.221212 -0.37771,-0.467708 -0.58526,-0.684464 -0.19593,-0.204622 -0.47645,-0.329774 -0.62168,-0.578355 -0.2493,-0.426704 -0.34118,-0.91868 -0.45256,-1.393722 -0.0767,-0.32717 -0.18024,-0.648398 -0.32803,-0.951983 -0.27478,-0.564429 -0.51445,-1.157596 -0.58834,-1.78618 -0.0631,-0.536861 0.0237,-1.075824 0.0415,-1.613589 0.005,-0.153549 -0.0789,-0.320547 -0.007,-0.461394 0.0629,-0.12341 0.1826,-0.204488 0.29464,-0.279209 0.23978,-0.159911 0.48436,-0.318248 0.75087,-0.426739 0.21819,-0.08882 0.46106,-0.08596 0.69148,-0.0673 0.58351,0.04725 1.15645,0.187062 1.71109,0.36921 0.45518,0.149484 0.90758,0.318084 1.3263,0.553694 0.14886,0.08376 0.28173,0.19538 0.3815,0.335585 0.2732,0.383936 0.3524,0.877969 0.66825,1.235069 0.26413,0.298624 0.63266,0.470284 0.98743,0.635728 0.341,0.159021 0.69571,0.324607 0.94691,0.614619 0.30168,0.348291 0.38071,0.828402 0.67449,1.182873 0.12871,0.155298 0.3433,0.188324 0.53435,0.185116 0.34492,-0.0058 0.68842,-0.104579 1.03411,-0.04765 0.13548,0.02231 0.25063,0.100564 0.35458,0.186721 0.51112,0.423623 0.82556,1.034402 1.32815,1.464062 0.12065,0.103143 0.24384,0.219202 0.40806,0.248019 0.21893,0.03842 0.45229,-0.03672 0.66227,0.05519 0.14657,0.06416 0.19188,0.231554 0.23074,0.372846 0.0355,0.128937 0.0555,0.294413 0.18578,0.36031 0.14141,0.07151 0.3022,0.009 0.44151,-0.03672 0.15403,-0.05056 0.31985,-0.144323 0.482,-0.09041 0.25315,0.08418 0.42847,0.34359 0.69799,0.372842 0.31756,0.03447 0.63991,1.49e-4 0.95073,-0.06859 0.75071,-0.166016 1.44581,-0.51748 2.20297,-0.663767 0.92256,-0.178243 1.83193,-0.43063 2.70492,-0.781375 0.29379,-0.118038 0.57606,-0.262516 0.86711,-0.386684 0.63904,-0.272626 1.28809,-0.529984 1.89212,-0.874442 0.1652,-0.09421 0.32991,-0.192389 0.47419,-0.318747 0.0691,-0.06054 0.0448,-0.158773 0.0215,-0.235213 -0.0626,-0.205405 -0.20624,-0.404778 -0.1724,-0.623141 0.0675,-0.435923 0.16925,-0.86596 0.27542,-1.293821 0.23286,-0.938382 0.47254,-1.877887 0.80317,-2.786845 0.11052,-0.303838 0.20061,-0.623026 0.38116,-0.892783 0.15105,-0.225684 0.34572,-0.417484 0.53167,-0.613889 0.37026,-0.391081 0.7664,-0.766356 1.06068,-1.21968 0.11545,-0.177848 0.23699,-0.370096 0.24742,-0.586913 0.007,-0.144213 -0.0624,-0.277294 -0.12173,-0.404005 -0.18039,-0.385375 -0.4967,-0.687383 -0.84503,-0.924559 -0.37014,-0.252023 -0.78852,-0.429884 -1.13621,-0.715333 -0.21312,-0.174969 -0.37426,-0.417629 -0.42688,-0.691292 -0.0829,-0.430998 -0.10709,-0.895145 0.0608,-1.309639 0.11128,-0.274725 0.33109,-0.530773 0.62848,-0.598933 0.11342,-0.026 0.26714,-0.03332 0.33974,0.07212 0.0627,0.09105 0.007,0.207013 -0.0514,0.284573"
       id="path63"
       inkscape:path-effect="#path-effect65"
       inkscape:original-d="m 105.07276,54.949216 c 0.42457,-0.666935 0.80846,-1.36159 1.27372,-2.000811 0.1999,-0.274637 4.21159,-2.019763 4.25553,-2.017437 0.32662,0.01728 -0.0873,0.258644 0.61342,0.258644 0.89897,0 1.47461,-0.651177 2.45364,-0.344861 0.81925,0.256326 1.06948,1.225034 2.07026,1.27599 0.58707,0.02989 1.00592,0.101846 1.53352,0.362104 0.25813,0.127333 0.93686,1.35936 1.32267,0.896638 0.33126,-0.39729 0.46965,-1.662221 0,-2.000192 -0.51001,-0.367016 -0.80395,-0.903282 -1.28433,-1.293233 -1.3764,-1.117311 -2.58636,-2.079286 -3.69963,-3.465856 -0.16721,-0.208259 -0.53377,-0.400743 -0.67092,-0.637995 -0.39259,-0.679114 -0.3894,-1.555443 -0.72842,-2.241598 -0.66136,-1.338551 -0.75738,-1.998638 -0.59424,-3.465856 0.0153,-0.137435 -0.06,-0.378637 0,-0.500052 0.11121,-0.225097 0.7813,-0.550632 0.99679,-0.672476 0.7012,-0.39647 3.5247,0.516822 4.0255,1.017344 0.37874,0.378527 0.43969,0.992132 0.80511,1.396688 0.54206,0.600117 1.46158,0.665398 1.95524,1.275988 0.27456,0.339582 0.36569,0.833636 0.65175,1.155282 0.39354,0.442494 1.32929,-0.127228 1.82106,0.241405 0.63831,0.478473 1.01894,1.267781 1.62938,1.707066 0.26422,0.190137 0.64707,-0.0011 0.90094,0.15518 0.25143,0.154755 0.15123,0.619877 0.40254,0.724213 0.25738,0.106852 0.6397,-0.216281 0.90096,-0.137946 0.23808,0.07139 0.48166,0.360947 0.74759,0.379351 1.10327,0.07635 1.99916,-0.525748 3.02871,-0.724212 1.29114,-0.248888 2.34689,-0.556429 3.58462,-1.155287 0.10453,-0.05057 2.41691,-0.991402 2.47282,-1.293225 0.0318,-0.171836 -0.23199,-0.55072 -0.1917,-0.810429 0.14947,-0.963605 0.99436,-4.204312 1.45685,-4.948762 0.32854,-0.528822 2.04003,-1.912649 1.82106,-2.569212 -0.51612,-1.547562 -2.28025,-1.409513 -2.51114,-2.586459 -0.42847,-2.183989 1.45788,-2.199896 0.97761,-1.551876" />
    <path
       style="fill:none;stroke:#000000;stroke-width:0.264583px;stroke-linecap:butt;stroke-linejoin:miter;stroke-opacity:1"
       d="m 137.09374,31.377323 c 1.24456,0.176861 2.50469,0.108391 3.75705,0.14599 1.00235,0.03009 2.01566,0.135582 2.96634,0.475289 0.67227,0.240223 1.26165,0.652228 1.85484,1.039672 0.39933,0.260826 0.78657,0.564525 1.24163,0.711296 0.21883,0.07058 0.44788,0.10324 0.67473,0.135806 0.89483,0.12846 1.79493,0.222253 2.69708,0.277282 0.41351,0.02522 0.82983,0.08329 1.24249,0.04172 0.064,-0.0064 0.14293,0.01066 0.19178,-0.03367 0.45665,-0.414457 0.88673,-0.860534 1.26482,-1.347876 0.067,-0.08636 0.18741,-0.154016 0.19606,-0.262947 0.005,-0.06677 -0.0715,-0.1046 -0.1212,-0.132591 -0.25605,-0.144299 -0.537,-0.236456 -0.81019,-0.3423 -0.1214,-0.04703 -0.25215,-0.07233 -0.36679,-0.134412 -0.22805,-0.123496 -0.39396,-0.329887 -0.56157,-0.522205 -0.18462,-0.21183 -0.35804,-0.447166 -0.60664,-0.587915 -0.35159,-0.199057 -0.75459,-0.304977 -1.07618,-0.556858 -0.11006,-0.0862 -0.18974,-0.203564 -0.24677,-0.331697 -0.17476,-0.392647 -0.30167,-0.811117 -0.53936,-1.171496 -0.0907,-0.137469 -0.14237,-0.295148 -0.19995,-0.448083 -0.40569,-1.077573 -0.78912,-2.163391 -1.1698,-3.249987 -0.10855,-0.309838 -0.29673,-0.602748 -0.32467,-0.929858 -0.0195,-0.227861 0.0439,-0.451546 0.0656,-0.676963 0.014,-0.144983 0.0439,-0.311205 -0.0411,-0.435718 -0.0715,-0.104708 -0.2068,-0.127167 -0.32086,-0.156173 -0.10916,-0.02776 -0.22318,-0.06995 -0.29051,-0.16929 -0.1166,-0.17203 -0.11606,-0.387232 -0.13131,-0.586277 -0.012,-0.157257 -0.0545,-0.316291 -0.15587,-0.441927 -0.21394,-0.265113 -0.55467,-0.400549 -0.74259,-0.688992 -0.0928,-0.14247 -0.12848,-0.31202 -0.16722,-0.474861 -0.14944,-0.628108 -0.25974,-1.26468 -0.36976,-1.900623 -0.0171,-0.09908 0.0472,-0.319601 -0.0508,-0.297331 -0.0522,0.01187 0.0216,0.0999 0.0431,0.128254 0.0713,0.09379 0.16876,0.163526 0.2611,0.235015 0.41643,0.322399 0.87776,0.581719 1.2831,0.92004 0.52539,0.438527 1.04401,0.906292 1.40817,1.491722 0.16816,0.270335 0.30834,0.562113 0.37752,0.874858 0.12766,0.57711 0.13886,1.177435 0.30994,1.744585 0.0585,0.193807 0.12191,0.406012 0.28276,0.53724 0.18919,0.15435 0.41146,0.259164 0.62379,0.376899 0.10434,0.05786 0.19741,0.13245 0.28161,0.217287 0.56991,0.57419 0.97905,1.289449 1.58117,1.834184 0.57961,0.524371 1.25152,0.935812 1.94376,1.292883 0.48968,0.252586 0.98575,0.496399 1.50164,0.689841 0.56839,0.213127 1.16085,0.350972 1.74402,0.516244 0.61283,0.173678 1.23154,0.352564 1.79563,0.654293 0.33356,0.178419 0.6468,0.415422 0.85134,0.740012 0.15444,0.245089 0.26585,0.518775 0.46767,0.73322 0.12222,0.129867 0.27671,0.220664 0.42526,0.316538 0.21203,0.136848 0.38007,0.327389 0.54247,0.518074 0.14574,0.171127 0.29674,0.347646 0.49295,0.459503 0.19321,0.110148 0.42346,0.09166 0.63747,0.08918 0.15388,-0.0018 0.39055,-0.06558 0.45525,0.07982 0.0526,0.118316 0.0896,0.243637 0.13712,0.364385 0.0966,0.245522 0.19286,0.498296 0.35859,0.7059 0.0725,0.09087 0.17293,0.20214 0.29866,0.181108 0.13612,-0.02277 0.22374,-0.152445 0.26269,-0.275816 0.0778,-0.246459 0.0748,-0.506534 0.10744,-0.760957 0.0359,-0.279377 0.0408,-0.582286 -0.0972,-0.837198 -0.1171,-0.216393 -0.34076,-0.347595 -0.56628,-0.426377 -0.3924,-0.137077 -0.80659,-0.196765 -1.19965,-0.332914 -0.20835,-0.07217 -0.40747,-0.170635 -0.58768,-0.29853 -0.42422,-0.301077 -0.82509,-0.633911 -1.21564,-0.976941 -0.25271,-0.22196 -0.51187,-0.438234 -0.74377,-0.682109 -0.19233,-0.202265 -0.30778,-0.465273 -0.36865,-0.735418 -0.0747,-0.331485 -0.11197,-0.677766 -0.2651,-0.985879 -0.11792,-0.237274 -0.29272,-0.440137 -0.46498,-0.638936 -0.59466,-0.686295 -1.26356,-1.307496 -1.82659,-2.020525 -0.14352,-0.181757 -0.30976,-0.357922 -0.38705,-0.578124 -0.0829,-0.236303 -0.10815,-0.48804 -0.13002,-0.736054 -0.0408,-0.462957 -0.0355,-0.936617 -0.16876,-1.385221 -0.064,-0.215345 -0.15943,-0.432957 -0.33105,-0.584396 -0.12762,-0.112612 -0.30246,-0.135766 -0.46394,-0.16435 -0.12672,-0.02243 -0.27743,-0.04602 -0.3521,-0.152948 -0.0425,-0.0608 -0.003,-0.135899 0.0187,-0.196639 0.0307,-0.08458 0.0782,-0.196513 0.009,-0.271551 -0.0644,-0.07001 -0.16114,-0.09765 -0.24961,-0.122826 -0.43331,-0.123294 -0.8939,-0.03561 -1.32832,-0.160485 -0.0887,-0.0255 -0.11793,-0.12399 -0.11575,-0.20796 0.002,-0.08722 0.0208,-0.178114 -0.0192,-0.261244 -0.0926,-0.192367 -0.23792,-0.352239 -0.36504,-0.521809 -0.14684,-0.195873 -0.30137,-0.395146 -0.37706,-0.632009 -0.0382,-0.119607 -0.005,-0.243543 -0.002,-0.365323 0.0158,-0.524863 -0.0714,-1.045846 -0.1647,-1.56042 -0.10371,-0.572247 -0.25555,-1.137421 -0.3127,-1.716604 -0.0253,-0.256823 0.0808,-0.503009 0.20277,-0.721928 0.15373,-0.275973 0.28947,-0.563269 0.47796,-0.818571 0.18526,-0.250931 0.43312,-0.472366 0.74031,-0.556547 0.32323,-0.08858 0.66471,-0.007 0.96674,0.120462 0.16673,0.07036 0.32412,0.163482 0.45741,0.287155 0.32786,0.304195 0.58325,0.676294 0.82167,1.051808 0.52121,0.820922 0.92368,1.709541 1.41154,2.549399 0.0878,0.151218 0.16305,0.314265 0.28311,0.442855 0.0489,0.05238 0.12586,0.05521 0.19199,0.06871 0.28616,0.05843 0.57803,0.124792 0.87021,0.101996 0.0902,-0.007 0.21071,0.0045 0.26325,-0.07647 0.24351,-0.375269 0.51893,-0.738219 0.68133,-1.157456 0.0566,-0.146039 0.12702,-0.307041 0.0861,-0.463997 -0.0407,-0.156329 -0.18982,-0.245151 -0.31846,-0.323233 -0.13274,-0.08057 -0.2645,-0.17285 -0.34454,-0.311947 -0.19735,-0.342978 -0.251,-0.747155 -0.2531,-1.136745 -0.003,-0.492777 0.0537,-0.984621 0.14538,-1.467497 0.0689,-0.36306 0.29941,-0.669649 0.55608,-0.925126 0.41021,-0.408305 0.90365,-0.721112 1.31185,-1.131927 0.14752,-0.148465 0.2606,-0.325872 0.35955,-0.509623 0.14139,-0.262572 0.31364,-0.5031284 0.48463,-0.7543822 0.0266,-0.039027 0.0601,-0.028029 0.0419,0.020972 -0.0813,0.2181521 -0.20423,0.4183613 -0.29107,0.6342663"
       id="path67"
       inkscape:path-effect="#path-effect69"
       inkscape:original-d="m 137.09374,31.377323 c 2.23612,0.323091 4.74768,-0.181832 6.9008,0.689732 1.00559,0.407054 1.88328,1.217758 2.89454,1.672577 0.46557,0.209391 4.65411,0.589838 4.8306,0.431078 0.48265,-0.434171 1.06284,-1.052299 1.45685,-1.603606 0.10718,-0.149979 -1.1536,-0.558326 -1.22682,-0.586266 -0.41381,-0.157917 -0.7629,-0.816351 -1.15015,-1.086316 -0.37682,-0.262694 -1.17592,-0.424886 -1.38017,-0.879393 -0.24689,-0.549388 -0.32238,-0.839253 -0.61341,-1.31047 -0.13785,-0.2232 -1.64699,-4.538653 -1.64854,-4.552174 -0.0357,-0.313099 0.15607,-0.810945 0.0383,-1.08631 -0.0851,-0.199067 -0.45763,-0.144496 -0.59423,-0.310377 -0.23825,-0.289319 -0.0772,-0.699241 -0.26836,-1.0001 -0.21721,-0.341934 -0.71601,-0.501033 -0.86261,-0.896637 -0.18938,-0.511032 -0.51452,-2.533596 -0.51758,-2.534731 -0.0664,-0.02461 0.0432,0.142297 0.0959,0.189672 0.43148,0.388117 0.95442,0.650474 1.39934,1.01734 0.71403,0.588763 1.43771,1.247982 1.78273,2.120898 0.2631,0.665639 0.2205,2.107425 0.65174,2.569217 0.17078,0.182881 0.69532,0.39269 0.86261,0.551777 0.56721,0.53937 0.98099,1.25818 1.5527,1.810527 0.89616,0.86582 2.28857,1.554996 3.43126,2.034681 1.11597,0.468466 3.25209,0.735459 4.19804,1.586359 0.54434,0.489643 0.42826,0.952302 1.1118,1.362205 0.53814,0.322712 0.59359,0.638424 1.07347,1.000098 0.34144,0.257329 0.84558,0.01857 1.15014,0.206918 0.0352,0.02175 0.48779,1.663316 0.95845,1.155282 0.17537,-0.189296 0.15381,-0.616136 0.19169,-0.844913 0.27722,-1.674328 -1.10235,-1.270301 -2.20444,-1.845003 -0.43909,-0.22897 -1.74971,-1.363877 -2.14693,-1.758791 -0.56258,-0.559329 -0.36132,-1.182254 -0.70926,-1.827771 -0.37824,-0.70173 -2.46747,-2.57996 -2.66449,-3.224453 -0.22261,-0.728142 -0.0344,-1.908589 -0.4984,-2.53473 -0.28277,-0.381547 -0.60198,-0.180656 -0.92012,-0.431075 -0.12539,-0.0987 0.21272,-0.403647 -0.0575,-0.534535 -0.45205,-0.218957 -1.02391,-0.07374 -1.49519,-0.224161 -0.17053,-0.05443 -0.11501,-0.245428 -0.11501,-0.362106 0,-0.294272 -0.83621,-0.97878 -0.78593,-1.431173 0.10675,-0.960376 -0.32615,-2.424864 -0.46006,-3.448613 -0.0487,-0.37256 0.18351,-0.703778 0.34505,-1.017341 0.40734,-0.79069 0.98358,-1.54958 2.2236,-0.896641 1.08321,0.57037 2.55658,4.197447 2.83703,4.276282 0.23183,0.06517 1.16871,0.243468 1.28432,0.05173 0.1282,-0.212612 0.8321,-1.167666 0.76677,-1.586362 -0.0449,-0.287945 -0.47362,-0.359244 -0.63258,-0.603505 -0.45289,-0.695942 -0.2661,-1.826182 -0.15335,-2.603703 0.14627,-1.008766 1.46276,-1.557373 2.03192,-2.293328 0.25185,-0.325657 0.38548,-0.812278 0.69009,-1.0863162 0.17372,-0.1562846 -0.16598,0.4368852 -0.2492,0.6552382" />
    <path
       style="fill:none;stroke:#000000;stroke-width:0.264583px;stroke-linecap:butt;stroke-linejoin:miter;stroke-opacity:1"
       d="m 160.49871,10.358024 c 0.50192,-0.309207 1.0532,-0.5333019 1.53738,-0.8720107 0.13612,-0.095222 0.26815,-0.1975064 0.38561,-0.3151324 0.0362,-0.036222 0.0352,-0.092937 0.0181,-0.1380674 -0.0476,-0.1251696 -0.1551,-0.219742 -0.19378,-0.3482317 -0.0723,-0.2401836 -0.0899,-0.4917667 -0.1222,-0.7394463 -0.0307,-0.2355138 -0.0821,-0.4679283 -0.14232,-0.6974615 -0.0728,-0.2776757 -0.15156,-0.5553872 -0.26721,-0.8184734 -0.0454,-0.1033663 -0.0917,-0.2085589 -0.16223,-0.297522 -0.0805,-0.1015481 -0.199,-0.1598254 -0.31077,-0.2195733 -0.10184,-0.054441 -0.20191,-0.1218733 -0.26437,-0.2213309 -0.0477,-0.075893 -0.0804,-0.1605437 -0.1045,-0.2465785 -0.0447,-0.1597777 -0.0338,-0.3278757 -0.0644,-0.4900239 -0.0213,-0.1128927 -0.0474,-0.2277598 -0.10819,-0.3270614 -0.0986,-0.1611289 -0.25796,-0.2688746 -0.38557,-0.4044875 -0.0884,-0.093974 -0.15575,-0.2090799 -0.18432,-0.3358828 -0.0454,-0.2016686 -0.007,-0.4081442 -0.007,-0.6119416 3e-5,-0.1300085 -0.0246,-0.2632963 -0.0948,-0.375095 -0.10843,-0.1726818 -0.26533,-0.308092 -0.42759,-0.4283981 -0.31609,-0.2343564 -0.66864,-0.415578 -0.97827,-0.6588627 -0.11952,-0.093909 -0.23305,-0.1984065 -0.3176,-0.3261079 -0.14636,-0.2210607 -0.21489,-0.48928055 -0.38938,-0.6913296 -0.0901,-0.10428657 -0.19243,-0.19722574 -0.2823,-0.30171958 -0.0833,-0.0968883 -0.17308,-0.19839699 -0.20491,-0.32399058 -0.01,-0.0384295 -0.0296,-0.08345698 -0.0107,-0.11965884 0.0233,-0.04448551 0.0765,-0.06035781 0.12157,-0.07192592 0.11315,-0.02906299 0.23248,-0.01876885 0.34628,-0.04215361 0.0952,-0.01956527 0.1793,-0.07278262 0.25772,-0.12782781 0.1488,-0.10444315 0.27772,-0.23373569 0.4206,-0.34556088 0.0123,-0.009611 0.0247,-0.0190093 0.0376,-0.027821"
       id="path71"
       inkscape:path-effect="#path-effect73"
       inkscape:original-d="m 160.49871,10.358024 c 0.6391,-0.3937817 1.37677,-0.6604481 1.91731,-1.1813452 0.12697,-0.1223512 -0.1224,-0.3309977 -0.17251,-0.5000498 -0.0651,-0.2196187 -0.092,-0.4620921 -0.11502,-0.6897211 -0.0431,-0.4265916 -0.3103,-1.4742691 -0.5559,-1.8277649 -0.16969,-0.2442313 -0.48812,-0.2282404 -0.63258,-0.5345324 -0.15465,-0.3278923 -0.0641,-0.470948 -0.17252,-0.8449101 -0.0959,-0.3306138 -0.42008,-0.4360775 -0.57507,-0.7242106 -0.20003,-0.3718531 0.0465,-0.7985159 -0.15336,-1.1380436 -0.29826,-0.506778 -1.17753,-0.8331209 -1.61019,-1.2759877 -0.23339,-0.2388923 -0.2991,-0.5651599 -0.4984,-0.82766555 -0.117,-0.15410981 -0.51758,-0.46991619 -0.51758,-0.74145206 0,-0.12923133 0.4192,-0.12508706 0.47923,-0.13794426 0.23391,-0.05009547 0.56248,-0.39970361 0.70926,-0.50004959" />
  </g>
</svg>
