<?xml version="1.0" encoding="UTF-8" standalone="no"?>
<!-- Created with Inkscape (http://www.inkscape.org/) -->

<svg
   width="169.33333mm"
   height="127mm"
   viewBox="0 0 169.33333 127"
   version="1.1"
   id="svg5"
   inkscape:version="1.1.2 (08b2f3d93c, 2022-04-05)"
   sodipodi:docname="Epiderme.svg"
   xmlns:inkscape="http://www.inkscape.org/namespaces/inkscape"
   xmlns:sodipodi="http://sodipodi.sourceforge.net/DTD/sodipodi-0.dtd"
   xmlns="http://www.w3.org/2000/svg"
   xmlns:svg="http://www.w3.org/2000/svg">
  <sodipodi:namedview
     id="namedview7"
     pagecolor="#ffffff"
     bordercolor="#666666"
     borderopacity="1.0"
     inkscape:pageshadow="2"
     inkscape:pageopacity="0.0"
     inkscape:pagecheckerboard="0"
     inkscape:document-units="mm"
     showgrid="false"
     inkscape:zoom="0.76095916"
     inkscape:cx="453.37519"
     inkscape:cy="304.22132"
     inkscape:window-width="1366"
     inkscape:window-height="704"
     inkscape:window-x="0"
     inkscape:window-y="27"
     inkscape:window-maximized="1"
     inkscape:current-layer="layer2" />
  <defs
     id="defs2">
    <inkscape:path-effect
       effect="simplify"
       id="path-effect85"
       is_visible="true"
       lpeversion="1"
       steps="1"
       threshold="0.000408163"
       smooth_angles="360"
       helper_size="0"
       simplify_individual_paths="false"
       simplify_just_coalesce="false" />
    <inkscape:path-effect
       effect="simplify"
       id="path-effect81"
       is_visible="true"
       lpeversion="1"
       steps="1"
       threshold="0.000408163"
       smooth_angles="360"
       helper_size="0"
       simplify_individual_paths="false"
       simplify_just_coalesce="false" />
    <inkscape:path-effect
       effect="simplify"
       id="path-effect77"
       is_visible="true"
       lpeversion="1"
       steps="1"
       threshold="0.000408163"
       smooth_angles="360"
       helper_size="0"
       simplify_individual_paths="false"
       simplify_just_coalesce="false" />
    <inkscape:path-effect
       effect="simplify"
       id="path-effect73"
       is_visible="true"
       lpeversion="1"
       steps="1"
       threshold="0.000408163"
       smooth_angles="360"
       helper_size="0"
       simplify_individual_paths="false"
       simplify_just_coalesce="false" />
    <inkscape:path-effect
       effect="simplify"
       id="path-effect69"
       is_visible="true"
       lpeversion="1"
       steps="1"
       threshold="0.000408163"
       smooth_angles="360"
       helper_size="0"
       simplify_individual_paths="false"
       simplify_just_coalesce="false" />
    <inkscape:path-effect
       effect="simplify"
       id="path-effect65"
       is_visible="true"
       lpeversion="1"
       steps="1"
       threshold="0.000408163"
       smooth_angles="360"
       helper_size="0"
       simplify_individual_paths="false"
       simplify_just_coalesce="false" />
    <inkscape:path-effect
       effect="simplify"
       id="path-effect61"
       is_visible="true"
       lpeversion="1"
       steps="1"
       threshold="0.000408163"
       smooth_angles="360"
       helper_size="0"
       simplify_individual_paths="false"
       simplify_just_coalesce="false" />
    <inkscape:path-effect
       effect="simplify"
       id="path-effect57"
       is_visible="true"
       lpeversion="1"
       steps="1"
       threshold="0.000408163"
       smooth_angles="360"
       helper_size="0"
       simplify_individual_paths="false"
       simplify_just_coalesce="false" />
  </defs>
  <g
     inkscape:groupmode="layer"
     id="layer2"
     inkscape:label="Epiderme">
    <path
       style="fill:none;stroke:#000000;stroke-width:0.264583px;stroke-linecap:butt;stroke-linejoin:miter;stroke-opacity:1"
       d="m 157.39263,0.16038836 c 0.27337,0.37601689 0.55045,0.74989538 0.77244,1.16084494 0.46806,0.8664569 0.84258,1.7942843 1.46683,2.5681199 0.14425,0.1788168 0.35618,0.2716635 0.56966,0.3549471 0.16846,0.065721 0.3811,0.1221295 0.4561,0.3104289 0.0943,0.2366415 0.0889,0.5012367 0.22773,0.7255415 0.25958,0.4194193 0.76705,0.6528694 0.94227,1.123426 0.14761,0.3964071 -0.0258,0.8266792 -0.24147,1.1630498 -0.27428,0.427858 -0.61348,0.8169215 -0.80285,1.2973234 -0.25518,0.6473549 -0.46647,1.3127881 -0.63119,1.9884461 -0.41409,1.698507 -0.42995,3.459282 -0.40668,5.196268 0.006,0.485212 0.17318,0.956378 0.11774,1.447384 -0.0725,0.642406 -0.34707,1.281436 -0.20658,1.932936 0.13108,0.60787 0.60501,1.069875 0.73989,1.678819 0.0933,0.421034 0.31914,1.254224 -0.10767,1.267972 -0.13374,0.0043 -0.19586,-0.192607 -0.31252,-0.256521 -0.1245,-0.06821 -0.28405,-0.03673 -0.40548,-0.132953 -0.31191,-0.247164 -0.3462,-0.689463 -0.62245,-0.967705 -0.33925,-0.341699 -0.79828,-0.511121 -1.20272,-0.758963 -0.40421,-0.247699 -0.91354,-0.223565 -1.32488,-0.44284 -0.36383,-0.193947 -0.6502,-0.503544 -0.9162,-0.811313 -0.48311,-0.558978 -0.96074,-1.1376 -1.29405,-1.798429 -0.14467,-0.286824 -0.23094,-0.598402 -0.35129,-0.895824 -0.21474,-0.530683 -0.39557,-1.091787 -0.74389,-1.549805 -0.0792,-0.104155 -0.25042,-0.33184 -0.36021,-0.185083 -0.13437,0.179613 -0.11973,0.422242 -0.1086,0.634708 0.0366,0.698195 0.17203,1.385341 0.30547,2.069478 0.13651,0.699854 0.71202,1.188772 0.93831,1.853577 0.2354,0.691555 0.37585,1.422911 0.75959,2.058086 0.36065,0.596956 0.96914,0.968469 1.52419,1.362309 0.54519,0.386845 1.02897,0.851184 1.51432,1.308521 0.53612,0.505181 1.09761,0.982909 1.62992,1.492164 0.81872,0.783266 1.3607,1.789886 1.93122,2.75324 0.15701,0.265118 0.37898,0.480964 0.61889,0.672113 0.2934,0.233765 0.59085,0.484954 0.74635,0.842077 0.15907,0.365332 0.25363,0.771689 0.52721,1.078791 0.11253,0.126319 0.28707,0.129621 0.4485,0.101876 0.14873,-0.02556 0.31639,-0.125062 0.46153,-0.01689 0.38692,0.288378 0.90213,0.361484 1.26819,0.671465 0.24888,0.210755 0.37124,0.530477 0.4659,0.832256 0.19166,0.611026 0.34968,1.257499 0.27951,1.896589 -0.0198,0.180251 0.004,0.45856 -0.18049,0.519065 -0.14769,0.04834 -0.3131,0.01841 -0.46728,0.0084 -0.78618,-0.05121 -1.57912,-0.06445 -2.35506,-0.200376 -0.4265,-0.07471 -0.77902,-0.486146 -1.21662,-0.4149 -0.28907,0.04706 -0.5324,0.366499 -0.825,0.283227 -0.35963,-0.102348 -0.658,-0.348641 -0.93371,-0.591597 -0.48946,-0.431312 -0.89511,-0.945421 -1.35843,-1.402616 -0.14282,-0.140931 -0.34251,-0.258829 -0.53719,-0.23914 -0.16141,0.01632 -0.31466,0.07103 -0.48661,0.02158 -0.33014,-0.09494 -0.6164,-0.295692 -0.91863,-0.452999 -0.22036,-0.114694 -0.42946,-0.252901 -0.68275,-0.301375 -0.25667,-0.04912 -0.53456,-0.03318 -0.77221,-0.150052 -0.29373,-0.144446 -0.40333,-0.475638 -0.48737,-0.766232 -0.0766,-0.264824 -0.23978,-0.492204 -0.43609,-0.682647 -0.41272,-0.400384 -0.86856,-0.753858 -1.33094,-1.094317 -1.02662,-0.755919 -2.1422,-1.419088 -2.99728,-2.380619 -0.79025,-0.888627 -1.3952,-1.926491 -1.89969,-2.999387 -0.40498,-0.861276 -0.57255,-1.834165 -1.13726,-2.618719 -0.1119,-0.155464 -0.29937,-0.254685 -0.38305,-0.426046 -0.30803,-0.630776 -0.58619,-1.275416 -0.91829,-1.896664 -0.0635,-0.118711 -0.21112,-0.341566 -0.34021,-0.139145 -0.32431,0.508546 -0.43245,1.136306 -0.32907,1.729266 0.17038,0.977226 0.70356,1.838648 0.93359,2.800288 0.121,0.505836 0.25673,1.017699 0.54394,1.460726 0.28718,0.44298 0.61773,0.875971 0.74118,1.402118 0.19172,0.817145 0.24502,1.664039 0.50284,2.466866 0.13172,0.41016 0.46669,0.706432 0.79695,0.960715 0.80652,0.620975 1.71471,1.091691 2.618,1.553636 0.58617,0.299769 1.20694,0.535651 1.76885,0.878606 0.59981,0.366089 1.11976,0.879255 1.45933,1.496844 0.2396,0.435769 0.35589,0.990665 0.12034,1.452463 -0.16272,0.319016 -0.44957,0.622727 -0.83186,0.645523 -0.29756,0.01774 -0.6202,-0.01875 -0.88583,0.14983 -0.1825,0.115824 -0.38187,0.199737 -0.5953,0.242303 -0.5627,0.112221 -1.14083,0.201504 -1.71355,0.15194 -0.7364,-0.06373 -1.30059,-0.612773 -1.98536,-0.827073 -0.40941,-0.128125 -0.8374,-0.181777 -1.25783,-0.262173 -0.6911,-0.132154 -1.37817,-0.284023 -2.06474,-0.443362 -0.2661,-0.06176 -0.43635,-0.284733 -0.61727,-0.469787 -0.21119,-0.216011 -0.51792,-0.287641 -0.80119,-0.35438 -0.69023,-0.162617 -1.42613,-0.168184 -2.07366,-0.487995 -0.33768,-0.166778 -0.46945,-0.540276 -0.64764,-0.845159 -0.0937,-0.160305 -0.22283,-0.301477 -0.40357,-0.370253 -0.54132,-0.205982 -1.11134,-0.347414 -1.68712,-0.395577 -0.22951,-0.0192 -0.50461,-0.127837 -0.6944,0.01088 -0.33141,0.242228 -0.53544,0.627862 -0.63757,1.018013 -0.10151,0.38778 -0.16473,0.865348 0.0977,1.188769 0.16802,0.207041 0.40645,0.333 0.60221,0.513077 0.40635,0.3738 0.74852,0.839187 0.87018,1.388178 0.0925,0.417263 0.10429,0.853901 0.004,1.272356 -0.20116,0.83889 -0.54353,1.63761 -0.935,2.403389 -0.23399,0.457726 -0.53083,0.878234 -0.80074,1.31688 -0.27085,0.440169 -0.23838,0.975524 -0.27265,1.472356 -0.02,0.290694 0.008,0.615157 -0.15452,0.865029 -0.26922,0.414513 -0.62582,0.763943 -0.97992,1.104831 -0.49678,0.47825 -0.96625,1.001088 -1.54711,1.373651 -0.6715,0.4307 -1.43183,0.69123 -2.17347,0.97145 -0.30122,0.113813 -0.58302,0.2772 -0.88863,0.377342 -0.34577,0.113303 -0.73623,0.08955 -1.04326,0.328427 -0.51638,0.401757 -0.90645,0.935364 -1.25701,1.481912 -0.25825,0.402633 -0.56333,0.820648 -1.03169,0.990375 -0.56195,0.203644 -1.18352,0.174815 -1.75281,0.04395 -0.45724,-0.105104 -0.86276,-0.361642 -1.2423,-0.626715 -0.69017,-0.482024 -1.33038,-1.038349 -1.89377,-1.665524 -0.22072,-0.245711 -0.38081,-0.537632 -0.49383,-0.847132 -0.10114,-0.276958 -0.26705,-0.526111 -0.49152,-0.722302 -0.46495,-0.406374 -0.98222,-0.748837 -1.41384,-1.196607 -1.08358,-1.124137 -2.17846,-2.256322 -3.45443,-3.162724 -0.55879,-0.396945 -1.14005,-0.82407 -1.81993,-0.95749 -0.44597,-0.08752 -0.88517,0.08029 -1.30677,0.200981 -0.27809,0.07961 -0.57379,0.05002 -0.84732,0.155461 -0.64268,0.247732 -1.16334,0.768056 -1.47081,1.378335 -0.23225,0.460977 -0.30736,1.045664 -0.0309,1.506323 0.31333,0.522066 0.62857,1.055327 1.06365,1.479867 0.18838,0.183818 0.46531,0.224134 0.71179,0.278172 0.34912,0.07654 0.71067,0.123066 1.02958,0.304811 0.64187,0.365801 1.2526,0.795945 1.78011,1.315668 0.4902,0.482961 0.73332,1.144595 0.931,1.788818 0.19493,0.635249 0.33774,1.388951 0.89406,1.779207 0.24542,0.172162 0.54673,0.236095 0.83174,0.313146 0.82737,0.223675 1.69051,0.373645 2.45347,0.777101 0.32024,0.169343 0.67585,0.400717 0.74684,0.780503 0.0674,0.360669 -0.16038,0.683923 -0.38216,0.941034 -0.4893,0.567241 -1.06495,1.073027 -1.72643,1.424817 -0.34206,0.181916 -0.72437,0.401354 -1.1189,0.32899 -0.21005,-0.03853 -0.39119,-0.161381 -0.58117,-0.2532 -1.22373,-0.591442 -2.51826,-1.071806 -3.86467,-1.260398 -0.93909,-0.131539 -1.8906,-0.150439 -2.83702,-0.131631 -0.88142,0.01752 -1.76791,0.03503 -2.63892,0.179745 -0.7404,0.123012 -1.48549,0.381739 -2.04075,0.906613 -0.58486,0.552855 -0.99493,1.252317 -1.43072,1.920446 -0.39313,0.602722 -0.90741,1.109897 -1.40913,1.620926 -0.55344,0.563704 -1.11505,1.162577 -1.39195,1.917568 -0.18538,0.505448 -0.3636,1.024289 -0.69209,1.460337 -0.066,0.08767 -0.1364,0.172044 -0.21025,0.253228"
       id="path55"
       inkscape:path-effect="#path-effect57"
       inkscape:original-d="m 157.39263,0.16038836 c 0.20167,0.28723073 0.42778,0.55877366 0.60501,0.86169214 0.52323,0.8942436 0.91348,1.9636786 1.56297,2.7816041 0.3943,0.4965568 0.55241,0.3362957 0.97475,0.5895763 0.17362,0.1041255 0.18958,0.4763874 0.23528,0.6349331 0.18375,0.6375487 1.06724,0.9607492 1.10919,1.6024452 0.0514,0.7853603 -0.71376,1.3632437 -1.00836,2.025732 -0.23995,0.5396003 -0.44014,1.2024635 -0.60501,1.7687348 -0.52847,1.815101 -0.52099,3.743389 -0.52099,5.623678 0,0.389066 0.13445,0.774194 0.13445,1.164045 0,0.673583 -0.31392,1.330629 -0.25209,2.025732 0.0938,1.054591 1.19913,1.455588 0.67223,3.114184 -0.0505,0.159023 -0.25328,-0.27211 -0.42014,-0.27211 -0.54511,0 -0.57971,-0.644903 -0.87391,-0.99775 -0.2947,-0.353444 -0.79716,-0.522037 -1.17642,-0.770991 -0.45064,-0.295807 -0.84778,-0.29843 -1.34449,-0.468637 -0.6609,-0.226474 -2.14321,-2.231022 -2.36964,-2.842074 -0.05,-0.134874 -1.00762,-2.903453 -1.37809,-2.403668 -0.27608,0.372451 0.13938,2.067633 0.18487,2.494375 0.0893,0.837322 0.68421,1.246242 0.94113,1.965263 0.29481,0.825094 0.35435,1.551916 0.90752,2.312961 0.47859,0.658412 1.24507,1.00976 1.84867,1.526862 0.88209,0.755695 1.69278,1.584533 2.57131,2.343199 0.92204,0.796233 1.50718,2.084031 2.18478,3.053713 0.28489,0.407699 0.76806,0.625602 1.07559,1.027988 0.28603,0.374258 0.36172,1.209077 0.80668,1.466387 0.24009,0.13884 0.60802,-0.144537 0.75627,-0.03024 0.40138,0.309462 0.8877,0.437701 1.27725,0.680284 0.61745,0.384503 1.06221,3.042756 0.57141,3.280479 -0.11283,0.05465 -2.52126,-0.174377 -2.73937,-0.196528 -0.43144,-0.04382 -0.85965,-0.436702 -1.27727,-0.423285 -0.20142,0.0065 -0.62322,0.357648 -0.87391,0.272116 -0.94079,-0.320995 -2.07118,-1.958192 -2.40325,-2.101321 -0.68063,-0.293375 -0.34916,0.05656 -0.94114,-0.120941 -0.28641,-0.08588 -1.13161,-0.613863 -1.29405,-0.680284 -0.17796,-0.07276 -0.76855,-0.09811 -0.95795,-0.181406 -0.4881,-0.214654 -0.44398,-0.778584 -0.70585,-1.164042 -0.23495,-0.345824 -0.78787,-0.774047 -1.126,-1.043099 -1.33629,-1.063328 -2.60349,-1.677175 -3.69732,-3.00837 -0.67235,-0.818261 -1.26051,-1.832148 -1.6974,-2.796722 -0.45778,-1.010698 -0.61488,-2.185763 -1.47893,-2.963013 -0.0857,-0.07712 -0.99936,-2.467208 -1.22683,-2.116434 -0.92552,1.427207 -0.0637,2.679086 0.40334,4.036346 0.17528,0.50938 0.24368,1.056881 0.45375,1.557094 0.24445,0.582044 0.71628,1.017732 0.92434,1.632683 0.2504,0.740116 0.3207,2.492638 0.75627,3.068832 0.81431,1.077211 3.60053,2.315001 4.85693,2.947895 0.96453,0.485867 2.57778,2.184926 1.47893,3.371186 -0.39403,0.425365 -0.6984,0.254397 -1.17643,0.332578 -0.25073,0.04101 -0.43508,0.231241 -0.67223,0.30235 -0.47241,0.141645 -1.4035,0.240718 -1.89908,0.211646 -0.82387,-0.04833 -1.47419,-0.713349 -2.2352,-0.891929 -0.60898,-0.142907 -2.89252,-0.484854 -3.31077,-0.725636 -0.25267,-0.145457 -0.39111,-0.440465 -0.65544,-0.559345 -0.81089,-0.364702 -1.88025,-0.261951 -2.65535,-0.680283 -0.43976,-0.237345 -0.49581,-0.769147 -0.82349,-1.088451 -0.26455,-0.257792 -2.34955,-0.697995 -2.62174,-0.483756 -0.54114,0.425931 -0.87853,1.485111 -0.55459,2.116433 0.10369,0.202102 0.35818,0.322197 0.52099,0.468644 0.69763,0.627538 1.04437,1.151069 1.07557,2.161788 0.0323,1.046734 -1.15746,3.504594 -1.74782,4.247992 -0.4792,0.603427 -0.22231,1.637186 -0.43696,2.312966 -0.16336,0.514315 -2.30341,2.424171 -2.63853,2.630429 -0.85903,0.528709 -1.98528,0.82745 -2.90744,1.269865 -0.33257,0.159552 -0.76669,0.07931 -1.07559,0.317466 -1.84064,1.419153 -1.19779,3.042012 -4.08384,2.569959 -0.90262,-0.147635 -2.96834,-1.863575 -3.44523,-2.690898 -0.21258,-0.368779 -0.25986,-0.757951 -0.57141,-1.058224 -0.4386,-0.422731 -0.99072,-0.739884 -1.4117,-1.179153 -1.17081,-1.221666 -3.66209,-3.806971 -5.37792,-4.247999 -0.52558,-0.135091 -1.18478,0.234669 -1.73101,0.256997 -1.16841,0.04776 -2.64627,1.802977 -1.9495,2.978137 0.29515,0.497795 0.71786,0.95789 1.04197,1.451269 0.20636,0.314137 1.22296,0.332584 1.57976,0.513995 0.67843,0.344935 1.76482,1.096238 2.21839,1.708259 0.76845,1.036891 0.65234,2.285457 1.54616,3.250242 0.45349,0.4895 4.56983,0.742701 4.01663,2.297853 -0.2817,0.79189 -2.52142,2.65951 -3.3612,2.237378 -1.35676,-0.682006 -2.52523,-1.109271 -4.05024,-1.421043 -1.25709,-0.256998 -4.40185,-0.205049 -5.64682,0 -2.22004,0.365646 -2.51111,1.424152 -3.69731,3.083952 -0.69642,0.974468 -1.71346,1.682908 -2.33603,2.690907 -0.47107,0.762712 -0.42507,1.468422 -1.19323,2.312956" />
    <path
       style="fill:none;stroke:#000000;stroke-width:0.264583px;stroke-linecap:butt;stroke-linejoin:miter;stroke-opacity:1"
       d="m 102.0505,61.506864 c 0.0793,-0.451832 0.24654,-1.817664 0.22634,-1.3577 -0.0163,0.371181 -0.0681,0.74098 -0.13905,1.106284 -0.0611,0.314954 -0.29324,0.55424 -0.51972,0.765482 -0.26345,0.245722 -0.58107,0.475367 -0.70004,0.829595 -0.14021,0.41747 -0.0451,0.868623 0.0825,1.276514 0.1418,0.453508 0.37805,0.869425 0.54813,1.311524 0.17759,0.461632 0.25873,0.958824 0.50211,1.396124 0.37235,0.669023 0.93662,1.202442 1.32716,1.860893 0.25622,0.431986 0.4631,0.896114 0.76987,1.295949 0.0849,0.110695 0.23411,0.08715 0.35356,0.122407 0.12177,0.03594 0.20731,0.138633 0.30063,0.21902 0.26753,0.23046 0.4862,0.51309 0.64663,0.829201 0.13042,0.256972 0.22319,0.536032 0.38688,0.773344 0.16464,0.238689 0.47833,0.38368 0.54917,0.672329 0.0255,0.103736 0.0406,0.209823 0.0758,0.311753 0.0399,0.115459 0.0386,0.242284 -0.0242,0.354242 -0.21013,0.374914 -0.58421,0.615855 -0.95242,0.817948 -0.14447,0.07929 -0.30935,0.1192 -0.44731,0.208265 -0.22462,0.145007 -0.32735,0.47108 -0.59767,0.523763 -0.36922,0.07196 -0.74574,0.110514 -1.12182,0.12282 -0.43952,0.01438 -0.87462,-0.05813 -1.30918,-0.124439 -0.54808,-0.08363 -1.11151,0.04713 -1.60653,0.280636 -0.3156,0.148873 -0.631749,0.32831 -0.854376,0.599513 -0.06793,0.08275 -0.0814,0.254979 -0.19303,0.257157 -0.14948,0.0029 -0.193931,-0.190472 -0.243942,-0.301621 -0.06311,-0.140255 -0.135044,-0.282339 -0.274471,-0.368564 -0.205544,-0.127113 -0.481039,-0.155221 -0.635963,-0.345598 -0.326988,-0.401817 -0.616056,-0.833128 -0.89712,-1.267724 -0.360633,-0.557629 -0.718346,-1.118943 -1.023798,-1.709318 -0.0579,-0.111899 -0.101034,-0.230741 -0.09776,-0.361271 0.0061,-0.244283 0.07844,-0.494393 0.01058,-0.735484 -0.03296,-0.117085 -0.179393,-0.235244 -0.280251,-0.173948 -0.104092,0.06326 -0.04858,0.213189 -0.01692,0.304734 0.152539,0.441045 0.387561,0.847674 0.617693,1.251556 0.275137,0.482866 0.559033,0.960995 0.877325,1.417547 0.180467,0.258858 0.388297,0.498005 0.563766,0.760052 0.34069,0.508788 0.398824,1.134913 0.626609,1.691785 0.299496,0.732185 0.912807,1.278021 1.252102,1.986209 0.253922,0.529995 0.281372,1.130477 0.288342,1.708146 0.008,0.631369 -0.0613,1.274078 0.0788,1.894124 0.1164,0.515041 0.39102,0.971109 0.58747,1.457025 0.18201,0.450203 0.54355,0.786382 0.8581,1.143579 0.27161,0.308434 0.48783,0.659879 0.70992,1.00413 0.83578,1.295527 1.53028,2.701249 2.56781,3.848917 0.26786,0.296295 0.64381,0.497591 0.85115,0.84154 0.33393,0.553934 0.45302,1.20239 0.54327,1.833052 0.062,0.433405 0.4223,0.905164 0.22213,1.294172 -0.0457,0.08883 0.017,0.159754 0.072,0.04917 0.0348,-0.06998 0.0223,-0.146146 -0.0863,-0.105758 -0.33371,0.124018 -0.68849,0.159146 -1.04323,0.203381 -0.13539,0.01688 -0.26901,-0.03257 -0.3695,-0.126212 -0.19806,-0.184557 -0.29412,-0.480118 -0.54615,-0.598931 -0.29927,-0.141085 -0.64853,-0.08359 -0.94668,-0.245001 -0.99229,-0.537199 -1.98444,-1.110077 -3.08495,-1.398457 -0.652042,-0.170863 -1.329655,-0.202951 -2.002504,-0.200017 -0.266966,0.0012 -0.540344,-0.01931 -0.800936,0.05078 -0.159189,0.04282 -0.211217,0.219919 -0.24589,0.359757 -0.119376,0.481457 -0.143876,0.979694 -0.17452,1.47289 -0.03061,0.492658 -0.01315,0.989269 -0.07759,1.478774 -0.07085,0.538174 -0.447601,0.98798 -0.476783,1.536305 -0.01687,0.316924 0.183691,0.580635 0.335905,0.83973 0.112603,0.19167 0.204666,0.427722 0.120453,0.64989 -0.09604,0.253366 -0.288067,0.456373 -0.360729,0.723764 -0.136186,0.501152 -0.09752,1.029244 -8.85e-4,1.533646 0.06162,0.321633 0.127677,0.642926 0.145268,0.97136 0.03609,0.67375 -0.02591,1.35747 0.129886,2.02139 0.05997,0.25557 0.0702,0.53757 -0.04978,0.77248 -0.02505,0.049 0.06415,0.22284 0.0071,0.0915 -0.06956,-0.16005 -0.249316,-0.22573 -0.401619,-0.28026 -0.417748,-0.14957 -0.870568,-0.18547 -1.278581,-0.36128 -0.169443,-0.073 -0.289407,-0.22099 -0.405969,-0.35786 -0.470362,-0.55229 -0.699014,-1.25313 -1.060733,-1.87214 -0.205768,-0.352133 -0.455869,-0.712198 -0.827399,-0.893917 -0.36167,-0.176896 -0.752203,-0.299246 -1.150048,-0.353876 -0.127074,-0.01745 -0.323481,-0.133528 -0.385643,-0.02051 -0.05179,0.09416 -0.04628,0.209664 -0.06011,0.314465 -0.02399,0.181814 0.0026,0.39238 -0.109374,0.541527 -0.07281,0.09695 -0.199924,0.131234 -0.307403,0.177424 -0.250977,0.10787 -0.487323,0.33401 -0.759396,0.30894 -0.177404,-0.0164 -0.312516,-0.15382 -0.432438,-0.27242 -0.246352,-0.243632 -0.429939,-0.543826 -0.676753,-0.785802 -0.525732,-0.515427 -1.2853,-0.739512 -1.769804,-1.291366 -0.152251,-0.173415 -0.153968,-0.419652 -0.159476,-0.636573 -0.0042,-0.164434 -0.04194,-0.324107 -0.09836,-0.479185 -0.198698,-0.546186 -0.403687,-1.109993 -0.401318,-1.693404 7.96e-4,-0.196055 -0.07574,-0.379361 -0.163422,-0.551096 -0.10331,-0.202356 -0.195356,-0.41093 -0.236051,-0.638321 -0.209033,-1.167998 -0.392555,-2.348469 -0.768789,-3.475877 -0.128925,-0.386331 -0.264293,-0.780113 -0.502339,-1.115458 -0.195712,-0.275707 -0.549546,-0.336303 -0.810894,-0.527792 -0.212004,-0.155335 -0.407847,-0.346881 -0.659741,-0.435634 -0.12181,-0.04292 -0.205228,0.09264 -0.260209,0.177694 -0.25354,0.392233 -0.438628,0.823728 -0.613451,1.255154 -0.146752,0.362153 -0.33368,0.714528 -0.412993,1.097284 -0.106522,0.514061 -0.101722,1.04193 -0.116647,1.564352 -0.01535,0.537297 -0.02059,1.077606 -0.113218,1.609354 -0.05943,0.34118 -0.282439,0.6448 -0.588225,0.807428 -0.460312,0.24481 -0.993043,0.259564 -1.498837,0.321887 -0.261114,0.03217 -0.513884,0.109426 -0.752182,0.223186 -0.507642,0.24234 -1.004357,0.55873 -1.573993,0.617772 -0.24395,0.02528 -0.52361,0.01951 -0.712434,-0.159804 -0.252269,-0.239565 -0.338131,-0.598228 -0.381136,-0.929953 -0.10097,-0.778847 -0.0385,-1.567142 0.02723,-2.346097 0.09216,-1.092024 0.284722,-2.178268 0.289907,-3.275149 0.0017,-0.360699 0.03255,-0.743693 -0.115216,-1.078773 -0.08147,-0.184744 -0.227812,-0.335914 -0.386535,-0.455815 -0.09875,-0.0746 -0.233319,-0.153802 -0.357559,-0.083 -0.320684,0.182743 -0.60376,0.422925 -0.891253,0.652477 -0.657252,0.524791 -1.278856,1.102059 -1.99327,1.547937 -0.188814,0.117842 -0.378705,0.254848 -0.601672,0.294382 -0.135047,0.02394 -0.2161,-0.113019 -0.268396,-0.214047 -0.157891,-0.305025 -0.182144,-0.658924 -0.31906,-0.970688 -0.229982,-0.523678 -0.656513,-0.946219 -0.841096,-1.487632 -0.137913,-0.404522 -0.129627,-0.838262 -0.188675,-1.257467 -0.05015,-0.356 -0.127675,-0.744838 -0.402966,-0.999914 -0.248841,-0.230568 -0.611371,-0.248503 -0.93339,-0.20934 -0.249158,0.0303 -0.489992,0.09844 -0.738879,0.134749 -0.228234,0.03329 -0.485096,0.02594 -0.674778,0.163011 -0.111337,0.08046 -0.153971,0.221017 -0.209867,0.340595 -0.100434,0.214859 -0.174693,0.475466 -0.386277,0.602858 -0.146524,0.08822 -0.332716,0.07052 -0.490009,0.02822 -0.405089,-0.108959 -0.70976,-0.433672 -0.928967,-0.774937 -0.162779,-0.253417 -0.320583,-0.518816 -0.398711,-0.810465 -0.113224,-0.422661 0.03333,-0.923131 -0.231609,-1.287997 -0.108919,-0.150001 -0.251652,-0.272952 -0.3862,-0.399864 -0.676183,-0.637807 -1.367518,-1.259461 -2.064199,-1.874873 -0.175634,-0.155146 -0.375302,-0.278028 -0.555933,-0.428001 -0.357948,-0.297195 -0.700516,-0.61821 -1.115588,-0.842417 -0.142327,-0.07688 -0.582903,-0.184119 -0.427637,-0.230753 0.0813,-0.02442 0.21249,0.01737 0.311574,0.03397 0.178549,0.02991 0.357799,0.04898 0.532946,0.101554 0.110633,0.03321 0.221435,0.06585 0.332373,0.09802"
       id="path59"
       inkscape:path-effect="#path-effect61"
       inkscape:original-d="m 102.0505,61.506864 c 0.0728,-0.424495 0.18729,-0.843918 0.21849,-1.273485 0.0312,-0.429567 -0.0165,0.893083 -0.21849,1.273485 -0.23326,0.439314 -0.72369,0.692063 -1.00835,1.099952 -0.52343,0.750007 0.14875,2.029251 0.45376,2.706016 0.2002,0.444185 0.25559,0.92107 0.47057,1.360566 0.31337,0.640663 0.79103,1.097272 1.19322,1.678033 0.3522,0.508574 0.59845,1.102696 0.95794,1.602446 0.16003,0.222472 0.33295,0.08536 0.48738,0.21164 0.77077,0.630301 0.75076,0.855388 1.19322,1.708272 0.13685,0.26379 0.57509,0.520137 0.60502,0.816335 0.0174,0.171916 0.13743,0.356111 0.0672,0.513995 -0.22339,0.502341 -0.87326,0.863114 -1.36129,1.05822 -0.2666,0.106579 -0.43625,0.527616 -0.72266,0.574463 -0.79293,0.129694 -1.52891,0.167944 -2.30242,0 -0.80225,-0.174188 -1.94727,0.239528 -2.520897,0.846574 -0.08758,0.09268 -0.154826,0.329118 -0.268899,0.272114 -0.120941,-0.06044 -0.22426,-0.473845 -0.352925,-0.589582 -0.195503,-0.175861 -0.609925,-0.262885 -0.756271,-0.438404 -0.447123,-0.536255 -1.733072,-2.510779 -1.983103,-3.129304 -0.09568,-0.23668 0.173072,-0.935016 -0.13445,-1.073338 -0.649502,-0.292145 0.369173,1.392354 0.722656,2.010619 0.335687,0.58714 0.660307,1.034288 1.075587,1.572207 0.442812,0.573583 0.459054,1.228212 0.739463,1.874563 0.283649,0.653817 0.82995,1.205883 1.176419,1.829205 0.56325,1.013322 0.20433,2.509284 0.40334,3.628175 0.0893,0.502296 0.39719,0.98112 0.57141,1.451274 0.24574,0.663147 0.76343,0.995969 1.1428,1.541976 1.02658,1.477478 1.82324,3.066161 2.97466,4.474758 0.24132,0.295214 0.76464,0.659553 0.92433,0.937275 0.40034,0.696225 0.46943,1.557759 0.60502,2.328085 0.0435,0.247153 0.0918,0.493453 0.13445,0.740754 0.008,0.04503 -0.0289,0.136057 0.0168,0.136057 0.0665,0 0.0962,-0.219028 0.0336,-0.196528 -0.46137,0.166005 -0.71936,0.226759 -1.19323,0.226759 -0.33907,0 -0.48703,-0.47417 -0.75626,-0.680283 -0.24267,-0.185772 -0.67476,-0.102971 -0.95795,-0.256998 -1.76101,-0.957816 -3.01006,-1.706118 -5.092214,-1.632675 -0.163637,0.0058 -0.768628,-0.03344 -0.941131,0.0907 -0.383243,0.275791 -0.340405,2.808573 -0.420153,3.310718 -0.08474,0.533585 -0.49622,1.041389 -0.470566,1.572207 0.02151,0.445066 0.433109,0.749131 0.487373,1.164045 0.0436,0.333354 -0.280668,0.586039 -0.369729,0.891926 -0.207306,0.711997 -0.08881,1.306645 0.05041,1.995498 0.168635,0.834351 -0.0058,1.710691 0.184867,2.539721 0.07454,0.32406 0.07944,0.54152 -0.03361,0.84657 -0.01762,0.0475 0.0168,0.20188 0.0168,0.15118 0,-0.44176 -1.520791,-0.50629 -1.831854,-0.7861 -0.984869,-0.88592 -1.054227,-2.28127 -2.05033,-2.978134 -0.303932,-0.21263 -1.268568,-0.479055 -1.630185,-0.438407 -0.08194,0.0092 -0.05315,0.795523 -0.218477,0.90705 -0.122841,0.08287 -0.994355,0.438401 -1.025168,0.438401 -0.33021,0 -0.905856,-0.859634 -1.109191,-1.058222 -0.523291,-0.511067 -1.202484,-0.779285 -1.747825,-1.269855 -0.245533,-0.220871 -0.13023,-0.721513 -0.235286,-1.012872 -0.242699,-0.673116 -0.402587,-1.183513 -0.453757,-1.919907 -0.02117,-0.304596 -0.311341,-0.652364 -0.369734,-0.967517 -0.17212,-0.928931 -0.708671,-4.315614 -1.445319,-4.867807 -0.168788,-0.126527 -0.425143,-0.209833 -0.605014,-0.332579 -0.173623,-0.118483 -0.535266,-0.450625 -0.756264,-0.483761 -0.314185,-0.04711 -1.208448,2.386684 -1.243648,2.539724 -0.212275,0.922896 -0.0031,2.850209 -0.336118,3.492125 -0.485664,0.936178 -1.822601,0.636376 -2.554513,0.952394 -0.620308,0.26783 -1.399275,0.805603 -2.134359,0.695402 -1.742369,-0.261208 0.142528,-6.711564 -0.554599,-7.876167 -0.07966,-0.133088 -0.450244,-0.552543 -0.655433,-0.468643 -0.574887,0.235058 -3.245099,2.783517 -3.646895,2.494375 -0.261448,-0.188143 -0.373319,-0.94343 -0.470575,-1.16404 -0.21495,-0.48759 -0.575654,-0.921038 -0.806683,-1.405924 -0.317764,-0.666933 0.0057,-2.134725 -0.873913,-2.49437 -0.39307,-0.160719 -0.860208,-0.02413 -1.243642,0.06047 -0.0287,0.0063 -0.776648,0.06193 -0.907524,0.226759 -0.185669,0.233831 -0.31256,0.910063 -0.689046,0.952399 -0.811313,0.09123 -1.382268,-0.868238 -1.63018,-1.481505 -0.179906,-0.445042 -0.03496,-1.011595 -0.285703,-1.436156 -0.09207,-0.1559 -2.403464,-2.257668 -2.604928,-2.388549 -0.435494,-0.282917 -0.792007,-0.689282 -1.226836,-0.982637 -0.211185,-0.142475 -0.906637,-0.435416 -0.655434,-0.393049 0.904719,0.152586 0.301985,0.0028 1.126001,0.241877" />
    <path
       style="fill:none;stroke:#000000;stroke-width:0.264583px;stroke-linecap:butt;stroke-linejoin:miter;stroke-opacity:1"
       d="m 62.220255,80.067424 c 0.06556,-0.07586 0.207681,-0.09696 0.227918,0.03446 0.03264,0.211959 -0.01936,0.428654 -0.09057,0.626612 -0.0695,0.1932 -0.157769,0.386746 -0.303442,0.538207 -0.086,0.08942 -0.202373,0.02953 -0.293565,-0.01529 -0.517106,-0.254178 -0.910611,-0.717346 -1.454297,-0.918772 -0.435714,-0.161424 -0.899044,-0.216706 -1.351531,-0.31277 -0.555173,-0.117865 -1.13038,0.04032 -1.683361,-0.08257 -0.305567,-0.06791 -0.585303,-0.22478 -0.901495,-0.256042 -0.113258,-0.0112 -0.225675,-0.0029 -0.337989,0.02359 -0.188154,0.04433 -0.37827,0.156164 -0.568738,0.117483 -0.09316,-0.01892 -0.148714,-0.116953 -0.210393,-0.184483 -0.09998,-0.109465 -0.147846,-0.262603 -0.262015,-0.358384 -0.09932,-0.08332 -0.223353,-0.131683 -0.336897,-0.193164 -0.171928,-0.09309 -0.37156,-0.148428 -0.51505,-0.281054 -0.08185,-0.07565 -0.167831,-0.164517 -0.301457,-0.12748 -0.466028,0.129168 -0.825499,0.50514 -1.307743,0.592167 -0.307005,0.0554 -0.60903,-0.05631 -0.894746,-0.155004 -0.562205,-0.194205 -1.105325,-0.452797 -1.688095,-0.580023 -0.19615,-0.04282 -0.402221,-0.061 -0.600911,-0.0038 -1.016984,0.292755 -2.099923,0.304553 -3.098684,0.659539 -0.627984,0.223202 -1.169064,0.62229 -1.728398,0.97365 -0.415772,0.261178 -0.871979,0.446462 -1.322982,0.636033 -1.525352,0.641155 -3.072612,1.230949 -4.642412,1.751606 -0.499417,0.165642 -1.049298,0.147689 -1.530199,0.368099 -0.520466,0.238544 -0.934412,0.646164 -1.344988,1.034554 -0.371143,0.351088 -0.736538,0.729953 -1.199919,0.954763 -0.356409,0.172912 -0.764302,0.203598 -1.108775,0.412466 -0.613517,0.372001 -1.193899,0.83959 -1.563268,1.465952 -0.365554,0.619893 -0.492554,1.343235 -0.565716,2.049114 -0.0469,0.452468 -0.08706,0.906984 -0.07017,1.362545 0.02872,0.774753 0.118672,1.551015 0.315623,2.301173 0.0838,0.319179 0.177866,0.640198 0.352473,0.924443 0.165568,0.269531 0.347375,0.538465 0.41182,0.855166 0.07535,0.370297 0.103248,0.752987 0.261418,1.106427 0.04397,0.09824 0.129634,0.180909 0.242005,0.188799 0.104846,0.0074 0.213842,0.0454 0.270341,0.14247 0.655795,1.126724 1.280685,2.287418 2.148146,3.269827 0.304035,0.344323 0.631155,0.672234 1.013698,0.931185 0.540769,0.366057 1.158189,0.610337 1.675693,1.010287 0.361461,0.27935 0.679398,0.61946 1.096165,0.82509 0.517498,0.25533 1.028524,0.53403 1.580822,0.70757 0.466968,0.14673 0.963928,0.0782 1.440983,0.15893 0.338313,0.0572 0.663366,0.19663 0.927711,0.41984 0.257309,0.21727 0.499034,0.45633 0.800409,0.61804 0.975231,0.52327 1.88562,1.17395 2.920965,1.58054 0.212396,0.0834 0.433564,0.15253 0.665013,0.15353 0.532357,0.002 1.034069,-0.26657 1.565919,-0.22927 0.385936,0.0271 0.755055,0.16036 1.10946,0.30655 0.379274,0.15645 0.762921,0.31062 1.107026,0.53786 0.287469,0.18984 0.618616,0.37096 0.7792,0.67657 0.100728,0.1917 0.02771,0.42576 0.114814,0.61979 0.093,0.20717 0.313872,0.32398 0.386094,0.54683 0.146266,0.45133 0.141705,0.94094 0.05176,1.40227 -0.09581,0.49142 -0.289344,0.97983 -0.637787,1.3489 -0.160859,0.17038 -0.369326,0.28475 -0.586496,0.36865 -0.568524,0.21965 -1.150843,0.41236 -1.74967,0.52645 -0.280116,0.0534 -0.570482,0.13163 -0.853253,0.0753 -0.142237,-0.0283 -0.267768,-0.10771 -0.393617,-0.176 -0.522676,-0.28363 -1.007924,-0.64297 -1.578726,-0.83354 -0.331364,-0.11063 -0.683493,-0.14306 -1.031696,-0.12164 -0.503873,0.031 -1.021102,0.17818 -1.516928,0.0402 -0.386524,-0.10755 -0.750117,-0.28209 -1.112652,-0.4508 -0.308445,-0.14354 -0.624151,-0.271 -0.931292,-0.41748 -0.61883,-0.29513 -1.222121,-0.6218 -1.839714,-0.9195 -0.444445,-0.21424 -0.885987,-0.44015 -1.353383,-0.60057 -0.124089,-0.0426 -0.255092,-0.0712 -0.388175,-0.0427 -0.478479,0.10243 -0.916575,0.36374 -1.401405,0.42533 -0.241977,0.0307 -0.484533,-0.0199 -0.726146,-0.0337 -0.188091,-0.0107 -0.403716,-0.0671 -0.565567,0.0383 -0.26261,0.17096 -0.50178,0.41781 -0.579621,0.72987 -0.08588,0.3443 0.06168,0.69756 0.263397,0.97184 0.355941,0.48398 0.842512,0.8545 1.346986,1.17061 0.568372,0.35615 1.174354,0.65182 1.802112,0.89048 0.130568,0.0496 0.273452,0.0592 0.402167,0.11145 0.281925,0.11442 0.469974,0.37457 0.614377,0.62892 0.06965,0.12268 0.169521,0.23207 0.212462,0.36638 0.08281,0.25903 0.09055,0.53557 0.08722,0.80486 -0.0043,0.35142 -0.05949,0.6997 -0.09262,1.05076 -0.0041,0.0431 -0.04918,0.14646 -0.04067,0.046 0.02287,-0.2697 0.01926,-0.54096 0.0137,-0.81131 -0.005,-0.24152 0.127899,-0.56604 -0.05627,-0.7229 -0.07281,-0.062 -0.173021,0.0239 -0.25628,0.0272 -0.17911,0.007 -0.359953,0.005 -0.538748,-0.0105 -0.256738,-0.0225 -0.516844,-0.0219 -0.770243,-0.0684 -0.508985,-0.0935 -1.013646,-0.2399 -1.533922,-0.2464 -0.146388,-0.002 -0.304211,0.0184 -0.4151,0.12737 -0.239984,0.23591 -0.419154,0.52603 -0.576303,0.82107 -0.178518,0.33516 -0.350156,0.68182 -0.427122,1.05584 -0.0247,0.12002 -0.02105,0.24833 0.04533,0.35906 0.101811,0.16985 0.27249,0.29969 0.332111,0.49272 0.03862,0.12503 -0.07856,0.21791 -0.176585,0.26676 -0.265294,0.13221 -0.56891,0.15322 -0.859962,0.16277 -0.325283,0.0107 -0.650564,0.008 -0.976071,0.0124 -1.214667,0.0153 -2.402315,-0.27252 -3.600358,-0.42772 -0.843551,-0.10928 -1.714612,-0.17203 -2.546734,0.0252 -0.308078,0.073 -0.626168,0.17491 -0.864235,0.39414 -0.131095,0.12072 -0.190479,0.31552 -0.127819,0.48648 0.09422,0.25706 0.314056,0.44234 0.524393,0.60488"
       id="path63"
       inkscape:path-effect="#path-effect65"
       inkscape:original-d="m 62.220255,80.067424 c 0.532855,-0.428969 0.05925,1.394238 -0.3336,1.239629 -0.542253,-0.213408 -1.025494,-0.750795 -1.562958,-0.967513 -0.368781,-0.148704 -0.898612,-0.20202 -1.294063,-0.302352 -0.531694,-0.134901 -1.079223,-0.01236 -1.613377,-0.07558 -0.467299,-0.05531 -0.675849,-0.298339 -1.243639,-0.287234 -0.07356,0.0013 -0.695825,0.197681 -0.756272,0.136056 -0.827225,-0.84333 0.106908,-0.245038 -1.243639,-0.98263 -0.09249,-0.05052 -0.165847,-0.18836 -0.268896,-0.166291 -0.57262,0.122642 -0.996136,0.670137 -1.630186,0.619816 -0.647583,-0.0514 -2.281997,-0.943401 -2.857015,-0.770991 -1.004869,0.301294 -2.060512,0.345721 -3.075499,0.650052 -0.801782,0.240403 -1.595683,0.94647 -2.36964,1.300097 -1.723167,0.787325 -3.582905,1.400312 -5.361109,2.071084 -0.477602,0.180157 -1.178957,0.191693 -1.630185,0.408167 -0.899432,0.431496 -1.543531,1.423665 -2.436868,1.93503 -0.342246,0.195911 -0.759711,0.199954 -1.109197,0.408173 -1.856277,1.105948 -2.096172,2.193441 -2.252001,4.202636 -0.07664,0.988127 0.129098,2.629178 0.470567,3.567713 0.127677,0.350917 0.387596,0.631545 0.520986,0.967513 0.18021,0.453887 0.0847,0.950986 0.369731,1.421037 0.139973,0.230831 0.344784,0.04236 0.487376,0.287229 0.759653,1.304536 1.485466,2.665487 2.621732,3.764241 0.607132,0.587084 1.398204,0.882804 2.083946,1.345434 0.386911,0.26103 0.717457,0.66873 1.142804,0.87682 0.453924,0.22207 1.371637,0.71288 1.88227,0.80122 0.651353,0.11268 1.094986,-0.0192 1.731023,0.257 0.453721,0.19704 0.716947,0.62311 1.142801,0.84657 1.027115,0.53898 2.11672,1.33709 3.243559,1.70828 0.627954,0.20685 1.278086,-0.1516 1.899073,-0.16631 0.483124,-0.0114 1.235851,0.32266 1.680602,0.514 0.506516,0.2179 1.007475,0.56036 1.37809,0.98263 0.10786,0.1229 0.07079,0.46422 0.117645,0.6047 0.07459,0.22365 0.30617,0.32735 0.386537,0.54422 0.337053,0.90956 0.0013,2.59787 -0.941138,3.06884 -0.445546,0.22266 -2.455212,0.88251 -2.924242,0.66517 -0.809246,-0.37499 -1.262983,-0.86506 -2.167972,-1.05823 -0.764598,-0.1632 -1.449117,0.13745 -2.167972,0.0151 -0.451651,-0.0769 -1.560467,-0.66315 -2.033526,-0.84658 -0.429773,-0.16663 -3.137522,-1.65631 -3.562869,-1.61757 -0.351149,0.032 -1.099013,0.34769 -1.495734,0.43841 -0.296802,0.0679 -1.095804,-0.14871 -1.344478,0.0302 -2.10294,1.51327 2.266244,3.66089 3.176331,3.8247 0.425932,0.0767 0.707065,0.66333 0.89072,0.9524 0.193931,0.30525 0.123706,1.7324 0,2.01061 -0.03071,0.0691 0,-0.15117 0,-0.22675 0,-0.42992 0.01754,-0.90247 -0.05042,-1.33034 -0.01585,-0.0997 -0.201568,0.0171 -0.302509,0.0151 -0.697415,-0.0139 -0.396769,-0.0124 -1.210029,-0.0756 -0.24115,-0.0188 -1.586058,-0.39429 -1.915883,-0.19653 -0.401465,0.24073 -1.247267,1.83915 -1.092393,2.22227 0.101624,0.25138 0.520396,0.54184 0.336121,0.74075 -0.313478,0.33837 -1.329869,0.25577 -1.747821,0.27211 -2.14603,0.0839 -4.000624,-0.76764 -6.150994,-0.4384 -0.846613,0.12962 -1.905045,0.61536 -0.689043,1.52685" />
    <path
       style="fill:none;stroke:#000000;stroke-width:0.264583px;stroke-linecap:butt;stroke-linejoin:miter;stroke-opacity:1"
       d="m 26.94701,117.80037 c 0.585901,-0.10338 1.184026,-0.14636 1.758205,-0.30941 0.01814,-0.005 0.05678,0.004 0.02271,0.0196 -0.107696,0.0505 -0.222536,0.0843 -0.336906,0.11582 -0.181302,0.05 -0.36406,0.10283 -0.55352,0.11079 -0.262128,0.011 -0.529453,-0.0356 -0.787142,0.0299 -0.228309,0.0581 -0.415373,0.21148 -0.587222,0.36563 -0.161407,0.14478 -0.304627,0.32502 -0.505828,0.40998 -0.08701,0.0367 -0.182937,0.008 -0.268991,-0.0176 -0.100923,-0.0298 -0.198999,-0.0876 -0.30542,-0.0815 -0.460125,0.0264 -0.906354,0.15126 -1.348675,0.2723 -0.278096,0.0761 -0.559169,0.14097 -0.843161,0.192 -0.37339,0.0671 -0.729424,0.20564 -1.070565,0.36879 -0.373789,0.17876 -0.744286,0.37109 -1.146072,0.48274 -0.16071,0.0447 -0.327154,0.0636 -0.493603,0.0687 -0.290491,0.009 -0.587673,-0.0166 -0.870548,0.0631 -0.208549,0.0588 -0.40302,0.15963 -0.58504,0.27563 -0.307258,0.19582 -0.587325,0.43201 -0.905466,0.61157 -1.214208,0.6853 -2.551483,1.12174 -3.755467,1.8268 -0.386232,0.22618 -0.739808,0.50167 -1.093336,0.77659 -0.195555,0.15207 -0.402133,0.28921 -0.603939,0.4327 -0.308641,0.21946 -0.624981,0.43215 -0.90156,0.69161 -0.09589,0.09 -0.202103,0.17799 -0.259678,0.29775 -0.0305,0.0634 -0.05188,0.13216 -0.0596,0.20171 -0.0042,0.0377 -0.03907,0.14195 -0.0093,0.11795 0.03596,-0.029 0.05376,-0.0747 0.07671,-0.11384 0.02854,-0.0487 0.07814,-0.20322 0.08467,-0.14702 0.0043,0.0366 -0.01524,0.0792 -0.0275,0.11604 -0.102038,0.30634 -0.210874,0.61044 -0.324208,0.91276 -0.107887,0.28779 -0.242725,0.5658 -0.408971,0.82465 -0.08361,0.13018 -0.160921,0.26642 -0.264572,0.38124 -0.02224,0.0246 -0.09598,0.0836 -0.0791,0.0695 0.226388,-0.18956 0.444762,-0.39588 0.710745,-0.53002 0.169991,-0.0857 0.366267,-0.12831 0.555778,-0.0927 0.05548,0.0104 0.109759,0.0269 0.161988,0.0483"
       id="path67"
       inkscape:path-effect="#path-effect69"
       inkscape:original-d="m 26.94701,117.80037 c 0.582605,-0.10291 1.157902,-0.26377 1.747814,-0.30873 0.235802,-0.018 -0.439359,0.18562 -0.672237,0.22676 -0.354084,0.0625 -0.741516,-0.051 -1.075577,0.082 -0.377954,0.15049 -0.6257,0.52543 -0.974754,0.73437 -0.155476,0.0931 -0.441784,-0.10183 -0.605018,-0.0907 -0.758628,0.0517 -1.383458,0.33068 -2.117555,0.45353 -1.009652,0.16897 -1.547655,0.71235 -2.403254,0.89193 -0.439636,0.0923 -0.90657,-0.0254 -1.344481,0.13606 -0.528121,0.19469 -0.872652,0.56265 -1.344479,0.83145 -1.606782,0.91538 -3.467337,1.39893 -4.85693,2.6002 -0.280283,0.24229 -1.713301,1.13052 -1.815047,1.49662 -0.263541,0.94827 0.526839,-1.06962 -0.201673,0.93728 -0.199661,0.55003 -0.378587,0.85264 -0.705852,1.3001 -0.02224,0.0304 -0.112883,0.0998 -0.08403,0.0756 0.404744,-0.33981 0.865811,-0.80453 1.428511,-0.57445" />
    <path
       style="fill:none;stroke:#000000;stroke-width:0.264583px;stroke-linecap:butt;stroke-linejoin:miter;stroke-opacity:1"
       d="m 73.365147,126.7435 c 0.351901,-0.63117 0.809272,-1.19517 1.264832,-1.75301 1.16887,-1.43129 2.42293,-2.80801 3.38677,-4.39122 0.46405,-0.76225 0.879569,-1.57733 1.038334,-2.46363 0.110878,-0.61897 0.05507,-1.28814 -0.265572,-1.83796 -0.138071,-0.23676 -0.296379,-0.46146 -0.463242,-0.67854 -0.144119,-0.18749 -0.278913,-0.39539 -0.481888,-0.52386 -0.210191,-0.13304 -0.483472,-0.18147 -0.641271,-0.38415 -0.101346,-0.13017 -0.09284,-0.3065 -0.09947,-0.46274 -0.0073,-0.17086 0.03587,-0.35101 -0.02399,-0.51348 -0.09087,-0.24666 -0.265734,-0.44956 -0.428809,-0.65136 -0.171146,-0.21179 -0.374432,-0.39984 -0.517953,-0.63194 -0.259421,-0.41954 -0.314139,-0.92825 -0.587051,-1.34454 -0.06406,-0.0977 -0.17441,-0.15945 -0.230126,-0.26055 -0.0921,-0.16712 -0.09545,-0.36543 -0.101849,-0.55125 -0.01394,-0.40463 0.02295,-0.80845 0.02326,-1.213 8.1e-5,-0.1066 -0.06154,-0.19859 -0.105074,-0.29246 -0.191988,-0.41404 -0.380027,-0.83047 -0.593833,-1.23389 -0.05808,-0.10959 -0.164614,-0.18182 -0.260391,-0.25577 -0.500988,-0.38684 -1.119203,-0.56497 -1.717574,-0.74116 -0.420286,-0.12375 -0.858346,-0.23014 -1.22662,-0.47729 -0.216134,-0.14505 -0.379735,-0.35168 -0.547026,-0.54739 -0.552865,-0.64677 -1.055183,-1.3404 -1.678501,-1.92431 -1.021089,-0.95653 -2.189135,-1.73159 -3.308709,-2.56433 -0.47428,-0.35277 -0.978298,-0.66299 -1.463699,-0.99987 -0.498858,-0.346224 -1.013984,-0.6831 -1.434086,-1.124209 -0.160369,-0.168388 -0.348498,-0.345246 -0.389284,-0.580191 -0.102757,-0.591923 -0.38657,-1.143521 -0.781428,-1.594123 -0.561273,-0.640511 -1.301215,-1.080541 -2.002882,-1.548744 -0.174629,-0.116525 -0.36653,-0.211451 -0.522725,-0.351922 -0.276523,-0.248687 -0.346668,-0.673103 -0.655449,-0.881221 -0.198242,-0.133615 -0.39133,-0.274862 -0.579343,-0.42324 -0.216162,-0.170593 -0.404517,-0.372454 -0.613504,-0.551032 -0.700093,-0.598225 -1.562859,-0.95502 -2.284462,-1.526533 -0.150225,-0.118979 -0.285124,-0.257169 -0.391674,-0.416502 -0.08783,-0.131346 -0.192244,-0.27201 -0.193979,-0.436643 -0.001,-0.09548 0.111631,-0.159056 0.195042,-0.11043 0.154872,0.09029 0.249169,0.253321 0.332369,0.405878 0.06276,0.115069 0.184373,0.48605 0.166773,0.356038 -0.05759,-0.425414 -0.183024,-0.846858 -0.169035,-1.277303 0.01041,-0.320259 0.175684,-0.633416 0.111007,-0.952326 -0.04788,-0.236079 -0.229261,-0.423398 -0.249115,-0.669874 -0.03315,-0.411511 0.0279,-0.835524 -0.09837,-1.236312 -0.06068,-0.192583 -0.210475,-0.361013 -0.410811,-0.412496 -0.234246,-0.0602 -0.484427,-0.01905 -0.702806,0.0812 -0.439241,0.201646 -0.839079,0.476838 -1.243101,0.739561 -0.298816,0.194311 -0.61679,0.360104 -0.902763,0.573715 -0.08933,0.06673 -0.207921,0.03549 -0.257125,-0.07327 -0.08593,-0.189929 -0.06894,-0.402666 -0.09095,-0.604625 -0.01226,-0.112511 -0.08921,-0.198446 -0.14587,-0.291839 -0.0661,-0.108955 -0.09167,-0.260563 -0.0044,-0.367174 0.143269,-0.175009 0.357288,-0.267962 0.558806,-0.357302 0.138602,-0.06145 0.270055,-0.136143 0.389527,-0.231614 0.30836,-0.246412 0.620606,-0.500685 1.00002,-0.635671 0.343417,-0.122179 0.715103,-0.06084 1.066084,-0.145719 0.09849,-0.02382 0.183097,-0.07964 0.255231,-0.150835 0.11783,-0.116299 0.400093,-0.209533 0.338889,-0.363873 -0.02348,-0.05921 -0.05781,0.05705 -0.0458,0.106952 0.05924,0.246245 0.17938,0.472356 0.29369,0.696527 0.247038,0.484462 0.571188,0.929766 0.784531,1.429768 0.06209,0.145515 0.101127,0.299996 0.148171,0.450984 0.235889,0.757087 0.449309,1.531009 0.828081,2.230774 0.08297,0.153287 0.14999,0.322755 0.273688,0.446263 0.177089,0.176816 0.42587,0.250409 0.658313,0.323706 0.28033,0.0884 0.58251,0.126161 0.839668,0.272482 0.269537,0.153365 0.52089,0.337508 0.74376,0.555101 0.225083,0.219753 0.529297,0.324401 0.818723,0.428994 0.05084,0.01837 0.101827,0.03634 0.152914,0.05402"
       id="path71"
       inkscape:path-effect="#path-effect73"
       inkscape:original-d="m 73.365147,126.7435 c 1.329264,-2.45704 7.486582,-7.62218 5.260272,-10.70313 -0.176758,-0.24462 -0.479785,-0.70891 -0.705853,-0.89193 -0.213207,-0.17261 -0.585849,-0.23834 -0.739463,-0.46864 -0.122542,-0.18372 -0.05335,-0.67443 -0.08403,-0.87681 -0.05253,-0.34646 -0.686517,-0.97169 -0.907523,-1.26986 -0.360165,-0.48593 -0.320623,-1.18036 -0.840301,-1.6478 -0.251177,-0.22592 -0.06939,-1.55338 -0.117639,-1.87456 -0.0024,-0.0163 -0.652844,-1.44337 -0.739466,-1.52686 -1.032332,-0.99497 -2.678152,-0.85289 -3.378004,-1.58732 -0.62298,-0.65376 -1.134202,-1.42253 -1.798238,-2.08621 -1.020564,-1.02003 -2.313236,-1.81882 -3.478845,-2.73625 -0.756377,-0.59533 -3.181061,-1.960558 -3.32758,-2.751369 -0.328133,-1.771044 -1.944428,-2.551417 -3.226749,-3.416533 -0.342115,-0.230804 -0.468972,-0.780576 -0.789882,-0.982636 -0.312468,-0.196741 -0.676013,-0.496244 -0.957943,-0.770985 -0.776065,-0.756277 -1.812644,-1.072824 -2.638544,-1.844323 -0.0473,-0.04419 -0.58003,-0.637791 -0.352925,-0.801222 0.230275,-0.165714 0.580777,0.58933 0.63863,0.755864 -0.05602,-0.403129 -0.145015,-0.803038 -0.168062,-1.209388 -0.01618,-0.285243 0.129983,-0.63061 0.117646,-0.952399 -0.0094,-0.246381 -0.219,-0.433473 -0.252089,-0.695397 -0.07407,-0.586329 0.211642,-1.852083 -0.907528,-1.708271 -0.620754,0.07977 -2.329659,1.451274 -2.571316,1.451274 -0.204702,0 -0.215447,-0.47358 -0.218478,-0.574463 -0.01203,-0.400492 -0.174205,-0.325964 -0.218478,-0.604695 -0.05635,-0.354783 0.70129,-0.549054 0.907528,-0.710522 0.467614,-0.366103 0.731547,-0.636928 1.260449,-0.755866 0.315759,-0.07101 0.783236,-0.0047 1.058773,-0.166295 0.05104,-0.02994 0.494449,-0.468638 0.436956,-0.468638 -0.325963,0 0.991627,2.101582 1.058779,2.312967 0.286506,0.901885 0.641413,2.206298 1.176419,3.008363 0.250004,0.374798 1.187815,0.446816 1.562956,0.665165 1.0048,0.584838 0.434491,0.591054 1.697405,1.027982" />
    <path
       style="fill:none;stroke:#000000;stroke-width:0.264583px;stroke-linecap:butt;stroke-linejoin:miter;stroke-opacity:1"
       d="m 60.122019,91.882739 c 0.146638,0.411878 0.40597,0.770703 0.678646,1.107812 0.335763,0.415104 0.703995,0.809155 0.971863,1.274278 0.127496,0.221383 0.222242,0.461027 0.282176,0.709535 0.07636,0.316608 0.114069,0.645562 0.245571,0.946415 0.06516,0.149065 0.150907,0.287991 0.236974,0.425588 0.362025,0.578777 0.781501,1.117785 1.170782,1.678134 0.231418,0.333114 0.541178,0.60303 0.866404,0.841171 0.663867,0.486104 1.407185,0.846381 2.108869,1.272158 0.133258,0.0809 0.270737,0.15608 0.395628,0.24971 0.326458,0.24474 0.563664,0.58636 0.88994,0.83188 0.543358,0.40887 1.154404,0.71158 1.728852,1.0725 0.16136,0.10138 0.355487,0.12914 0.542593,0.13673 0.242005,0.01 0.486475,-0.0239 0.726383,0.0164 0.122558,0.0206 0.24131,0.0589 0.359237,0.0973 0.239881,0.0779 0.482057,0.15378 0.708854,0.26455 0.0629,0.0307 0.149937,0.0427 0.18211,0.1057 0.02121,0.0415 0.02962,0.0905 0.04636,0.13483 0.02726,0.0722 0.04988,0.15097 0.104158,0.20766 0.04697,0.0491 0.09898,-0.0203 0.131795,-0.0518 0.160923,-0.1542 0.250706,-0.36274 0.341933,-0.56187 0.05611,-0.12248 0.113029,-0.2454 0.187873,-0.35783"
       id="path75"
       inkscape:path-effect="#path-effect77"
       inkscape:original-d="m 60.122019,91.882739 c 0.391861,1.099823 1.574345,1.81705 1.899084,2.963016 0.120232,0.424283 0.131683,0.826484 0.352927,1.224516 0.365737,0.657984 0.894858,1.289666 1.310865,1.919912 0.646375,0.979238 2.300044,1.694783 3.293973,2.328077 0.366321,0.23341 0.613492,0.61288 0.957942,0.87681 0.545539,0.41802 1.176549,0.71293 1.747822,1.08845 0.370485,0.24354 0.904205,0.0931 1.310867,0.16629 0.2032,0.0366 1.123485,0.34469 1.226839,0.46865 0.0026,0.003 0.110548,0.41429 0.201671,0.34769 0.310549,-0.22697 0.39157,-0.66263 0.605014,-0.98263" />
    <path
       style="fill:none;stroke:#000000;stroke-width:0.264583px;stroke-linecap:butt;stroke-linejoin:miter;stroke-opacity:1"
       d="m 73.029018,102.28359 c 0.761822,0.262 1.652904,0.28594 2.285622,0.78604 0.20882,0.16505 0.407626,0.34824 0.645431,0.47102 0.178244,0.092 0.379719,0.12828 0.57772,0.14434 0.400979,0.0325 0.804012,-0.005 1.200898,-0.0625 0.368914,-0.0533 0.737122,-0.11548 1.09921,-0.20355 0.36006,-0.0876 0.70273,-0.23147 1.052585,-0.35121 0.368034,-0.12596 0.747721,-0.24003 1.13978,-0.2481 0.285328,-0.006 0.575085,0.0662 0.813619,0.22722 0.227188,0.15339 0.392963,0.37918 0.526336,0.61542 0.135245,0.23956 0.261512,0.49181 0.307309,0.76576 0.02916,0.17442 0.0059,0.36018 -0.08384,0.51465 -0.112589,0.19374 -0.292395,0.33511 -0.469212,0.46676 -0.289834,0.21579 -0.591165,0.42392 -0.83047,0.69721 -0.158238,0.18071 -0.279121,0.39707 -0.471456,0.54562 -0.05931,0.0458 -0.15539,0.16843 -0.197218,0.10604 -0.03122,-0.0466 -0.05102,-0.1003 -0.07391,-0.15147 -0.06058,-0.13543 -0.09542,-0.28476 -0.178181,-0.40787 -0.268558,-0.39947 -0.58227,-0.76748 -0.921243,-1.10845 -0.186083,-0.18718 -0.376291,-0.37118 -0.581913,-0.53698 -0.149642,-0.12066 -0.317005,-0.22105 -0.500243,-0.28159 -0.208869,-0.069 -0.424319,-0.11548 -0.639494,-0.15947 -0.21538,-0.044 -0.433366,-0.0908 -0.654489,-0.0852 -0.14341,0.004 -0.286029,0.0476 -0.403165,0.13142 -0.16241,0.11629 -0.289061,0.27376 -0.411019,0.42978 -0.140423,0.17964 -0.287809,0.36174 -0.36148,0.58142 -0.06359,0.18962 -0.04833,0.39665 0.0085,0.58631 0.08257,0.2755 0.238237,0.52594 0.438406,0.7317 0.304718,0.31323 0.683499,0.53809 1.013105,0.82254 0.246897,0.21307 0.452303,0.47332 0.601956,0.76335 0.217978,0.42245 0.319595,0.89151 0.405822,1.35535 0.05789,0.3114 0.1177,0.62245 0.188695,0.93125 0.137488,0.59801 0.270211,1.20316 0.524538,1.76499 0.152603,0.33711 0.365099,0.64187 0.583557,0.94026 0.129522,0.17691 0.162155,0.39916 0.246725,0.59718 0.0486,0.1138 0.126293,0.21496 0.227885,0.28745 0.241433,0.17227 0.528137,0.26006 0.803828,0.35997 0.161344,0.0585 0.316986,0.13224 0.463337,0.2222 0.309872,0.19047 0.588891,0.43329 0.924857,0.57966 0.258226,0.1125 0.541216,0.14716 0.819849,0.16578 0.294193,0.0197 0.592169,0.0391 0.874778,0.13268 0.113848,0.0377 0.218303,0.097 0.325175,0.15036 0.400878,0.20011 0.821986,0.35869 1.216006,0.5721 0.08068,0.0437 0.166068,0.084 0.227869,0.15468 0.125268,0.14329 0.181784,0.33455 0.3123,0.47315 0.03351,0.0356 0.104486,0.12909 0.120976,0.0823 0.01215,-0.0345 -0.02918,-0.0749 -0.02734,-0.11443 0.0017,-0.0364 0.02994,-0.065 0.05159,-0.0922 0.05273,-0.0663 0.115947,-0.12334 0.170783,-0.18784"
       id="path79"
       inkscape:path-effect="#path-effect81"
       inkscape:original-d="m 73.029018,102.28359 c 0.761876,0.26201 1.540275,0.48016 2.285622,0.78604 0.188957,0.14872 0.495623,0.41999 0.739463,0.51399 0.699989,0.26986 2.033603,-0.009 2.722573,-0.15118 1.033721,-0.21361 2.647153,-1.33371 3.529255,0.12095 0.96089,1.58458 -0.08236,1.59262 -0.957939,2.49437 -0.235329,0.24236 -0.401035,0.60719 -0.722662,0.71052 -0.01363,0.004 -0.236691,-0.53626 -0.252087,-0.55934 -0.342826,-0.51397 -0.850054,-1.067 -1.310868,-1.48151 -0.446794,-0.4019 -0.625207,-0.44673 -1.193228,-0.57447 -1.028835,-0.23136 -1.143614,-0.16146 -1.731015,0.6047 -0.249923,0.32598 -0.358672,0.61748 -0.218478,1.0431 0.272823,0.82827 0.992214,1.07651 1.562955,1.63268 0.790162,0.77 0.809003,1.78383 1.041972,2.79673 0.252587,1.09818 0.415284,1.93903 1.126005,2.82695 0.207489,0.25922 0.176157,0.6604 0.453758,0.87681 0.294577,0.22965 0.708562,0.31869 1.041972,0.46864 0.451842,0.20322 0.80741,0.58681 1.277257,0.75587 0.62425,0.22462 1.217906,0.0341 1.831853,0.36282 0.380686,0.20383 1.142225,0.51365 1.445311,0.6954 0.220742,0.13238 0.30276,0.55642 0.520991,0.63493 0.043,0.0155 -0.03973,-0.0965 -0.0168,-0.13605 0.05641,-0.0973 0.145653,-0.17133 0.218477,-0.257" />
    <path
       style="fill:none;stroke:#000000;stroke-width:0.264583px;stroke-linecap:butt;stroke-linejoin:miter;stroke-opacity:1"
       d="m 86.42339,116.44869 c 0.615293,-0.17385 1.206993,-0.4955 1.849922,-0.51277 0.55708,-0.015 1.044541,0.30101 1.507882,0.57217 0.433487,0.25369 0.875472,0.54665 1.396734,0.58006 0.419095,0.0269 0.892284,-0.0316 1.244315,0.2458 0.210913,0.1662 0.360166,0.41549 0.643369,0.48889 0.573405,0.14862 1.130794,0.41452 1.721902,0.44176 0.626845,0.0289 1.123545,-0.47348 1.721007,-0.55479 0.554022,-0.0754 1.115449,-0.0466 1.67336,-0.0587 0.337622,-0.007 0.675378,-0.0675 0.978355,-0.22982 0.862114,-0.46175 1.523234,-1.21796 2.401134,-1.65809 0.81463,-0.40841 1.73759,-0.66451 2.40246,-1.31723 0.5169,-0.50746 0.92686,-1.10164 1.34005,-1.69449 0.31046,-0.44545 0.4107,-0.99557 0.49085,-1.52183 0.20886,-1.3713 0.26103,-2.75872 0.29831,-4.14242 0.008,-0.30581 0.11987,-0.59147 0.24014,-0.86669 0.12594,-0.2882 0.0169,-0.59603 0.0101,-0.89356 -0.006,-0.26189 0.17927,-0.47471 0.32808,-0.67034 0.39668,-0.52149 0.95744,-0.90712 1.30836,-1.46022 0.14054,-0.22151 0.11452,-0.50266 0.28364,-0.71791 0.33939,-0.43196 0.71351,-0.94388 1.24438,-1.05608 0.30707,-0.0649 0.62541,-0.009 0.93409,0.0215 0.65326,0.0647 1.30143,0.26125 1.95701,0.22034 0.56314,-0.0351 1.13492,-0.12289 1.65357,-0.34425 1.23853,-0.52861 2.37604,-1.26724 3.4552,-2.065581 1.23258,-0.911842 2.42764,-1.884096 3.49808,-2.982215 0.68242,-0.700069 1.1594,-1.580657 1.87512,-2.246185 0.55076,-0.512134 1.24795,-0.83437 1.75414,-1.409359 0.41327,-0.46944 0.87518,-0.904875 1.43096,-1.209878 1.19163,-0.653951 2.49363,-1.144862 3.55832,-1.994057 0.35607,-0.284002 0.63451,-0.685469 1.0829,-0.836196 0.2699,-0.09073 0.51064,-0.254444 0.6727,-0.499984 0.4364,-0.661187 0.63316,-1.439471 0.78432,-2.209463 0.0926,-0.471685 0.12911,-0.959872 0.29242,-1.413133 0.1178,-0.326952 0.27955,-0.669946 0.17485,-1.031369 -0.0718,-0.247931 -0.19203,-0.521275 -0.0593,-0.774927 0.24633,-0.470752 0.68064,-0.798988 1.07388,-1.141228 0.40067,-0.348708 0.87619,-0.650444 1.11478,-1.143871 0.24168,-0.499827 0.11099,-1.060759 0.0655,-1.585178 -0.0556,-0.641005 0.47295,-1.148943 0.46864,-1.781138 -0.002,-0.24055 -0.30985,-0.384772 -0.2855,-0.60889 0.0143,-0.131254 0.4369,-0.05174 0.17557,-0.08729 -0.3907,-0.05315 -0.83985,-0.109075 -1.1073,-0.424417 -0.27906,-0.329031 -0.17927,-0.784467 -0.15668,-1.174495 0.0203,-0.351066 -0.12663,-0.789569 -0.48512,-0.885828 -0.39338,-0.105627 -0.7957,0.03908 -1.17893,0.122496 -0.31437,0.06843 -0.65198,0.103633 -0.96075,-0.04163 -0.421,-0.198057 -0.63523,-0.639844 -0.77717,-1.05977 -0.148,-0.437844 -0.32633,-0.92493 -0.76242,-1.158189 -0.48248,-0.258072 -0.97209,-0.510987 -1.48813,-0.693941 -1.47934,-0.524472 -3.01741,-0.889498 -4.46034,-1.507798 -0.54426,-0.233217 -1.06172,-0.547805 -1.66112,-0.633378 -0.80447,-0.11485 -1.63857,0.148538 -2.42389,-0.05856 -0.24434,-0.06444 -0.33375,-0.325443 -0.57612,-0.423143 -0.39161,-0.15786 -0.93977,-0.05308 -1.19925,-0.415487 -0.19812,-0.276711 -0.21575,-0.633597 -0.27932,-0.957221 -0.091,-0.463443 -0.14806,-1.02492 -0.55837,-1.310485 -0.60411,-0.420449 -1.09081,-1.033755 -1.8032,-1.280098 -0.3349,-0.115808 -0.79869,0.03465 -1.03108,-0.247028 -0.19338,-0.234401 0.26036,-0.214707 0.40353,-0.232805 0.73,-0.09228 1.46655,-0.289736 2.19816,-0.207021 0.22099,0.02499 0.42477,0.134481 0.62266,0.230945 0.45114,0.219914 0.93124,0.388156 1.43996,0.420295 1.72662,0.109083 3.45686,0.261365 5.18678,0.196901 0.541,-0.02016 1.09318,-0.03615 1.60696,-0.238266 0.86595,-0.340662 1.66831,-0.84429 2.5825,-1.061808 0.44515,-0.105917 0.87975,-0.251032 1.28778,-0.467422 0.86556,-0.459027 1.72266,-0.98632 2.68475,-1.203426 0.45024,-0.101601 0.98052,-0.05064 1.34061,-0.377883 0.85175,-0.774062 2.10036,-1.123755 2.75203,-2.068294 0.14967,-0.216934 0.0498,-0.510943 0.23131,-0.727182 0.28046,-0.334042 0.59899,-0.633935 0.92164,-0.926266 0.36955,-0.334825 0.77667,-0.641836 1.03648,-1.079543 0.20566,-0.346474 0.43431,-0.681314 0.73867,-0.952531 0.45905,-0.409063 0.92183,-0.817974 1.26689,-1.34282 0.3615,-0.54985 0.84424,-1.020041 1.387,-1.386358 0.41225,-0.278235 0.89398,-0.415759 1.3981,-0.525061 0.16014,-0.03472 0.33069,0.182848 0.44243,0.08201 0.81474,-0.735253 1.79159,-1.260475 2.59438,-2.013781 0.44301,-0.415705 0.93254,-0.810327 1.22809,-1.353076 0.16921,-0.310741 0.069,-0.69128 0.25658,-0.997522 0.25844,-0.421988 0.6168,-0.772611 0.9745,-1.110165 0.51034,-0.481604 1.12622,-0.825443 1.68648,-1.252489 0.11659,-0.08887 0.50579,-0.263527 0.41005,-0.267623 -0.23989,-0.01026 -0.43671,0.176745 -0.61494,0.314583 -0.48969,0.378712 -0.90522,0.844699 -1.39279,1.224483 -0.72495,0.564693 -1.45178,1.155064 -1.98891,1.909935 -0.21143,0.297139 -0.34778,0.644393 -0.37873,1.010286 -0.032,0.377784 -0.0702,0.756616 -0.209,1.117038 -0.21968,0.570441 -0.37889,1.191041 -0.24107,1.809093 0.0895,0.401493 0.32441,0.747736 0.43013,1.143997 0.0752,0.281942 0.24772,0.518615 0.45136,0.727679 0.56726,0.582381 1.31271,0.964675 2.10119,1.156656 0.67673,0.164772 1.37923,0.166701 2.06307,0.283628 0.80055,0.136884 1.59903,0.508658 2.4201,0.334651 0.65019,-0.137793 1.28406,-0.355331 1.96566,-0.365202 0.23794,-0.0034 0.356,0.279949 0.55589,0.299563 0.35273,0.03461 0.61718,-0.250283 0.96379,-0.278741 0.59557,-0.0489 1.21399,0.122362 1.79142,-0.104426 0.94818,-0.372399 1.72159,-1.055442 2.62215,-1.521658 0.80515,-0.416822 1.58947,-0.904672 2.47956,-1.125517 0.56573,-0.140367 1.13807,-0.315764 1.60675,-0.678872 0.4651,-0.360337 0.90869,-0.766447 1.47813,-0.970092 0.53486,-0.191278 1.07713,-0.365295 1.58657,-0.633577 0.11625,-0.06122 0.27763,-0.256572 0.0341,-0.278925 -0.35293,-0.0324 -0.70919,0.01499 -1.05986,0.05344"
       id="path83"
       inkscape:path-effect="#path-effect85"
       inkscape:original-d="m 86.42339,116.44869 c 0.577009,-0.16634 1.139614,-0.3949 1.731021,-0.49902 0.839332,-0.14778 1.816211,0.79946 2.571316,1.05821 0.518488,0.17768 1.117955,-0.017 1.596578,0.257 0.225975,0.12935 0.360595,0.38753 0.588203,0.51399 0.03099,0.0172 1.836177,0.48273 1.84866,0.48376 0.605681,0.0495 1.149752,-0.38438 1.714206,-0.54423 0.343863,-0.0974 1.699974,-0.006 2.2352,-0.12094 0.697727,-0.14944 1.649036,-1.07225 2.268816,-1.49663 0.94387,-0.64628 2.20796,-0.86625 3.02507,-1.69314 0.48774,-0.49358 0.78299,-1.09002 1.24365,-1.58733 0.84476,-0.91195 0.69254,-4.73252 0.87391,-5.95626 0.0455,-0.30667 0.22119,-0.56146 0.2689,-0.86169 0.0425,-0.26733 -0.12122,-0.67219 0,-0.90705 0.35951,-0.69652 1.08899,-1.25038 1.56295,-1.85944 0.16081,-0.20665 0.12172,-0.47717 0.23529,-0.65005 0.30722,-0.46766 0.85565,-0.80715 1.29405,-1.14892 0.22146,-0.17265 2.46998,0.24602 2.94105,0.22676 0.45257,-0.0185 1.29108,-0.19442 1.71421,-0.37794 2.22298,-0.96412 4.96586,-3.154885 6.73921,-4.882921 0.70395,-0.685956 1.23699,-1.547659 1.88227,-2.25249 0.50201,-0.548352 1.30736,-0.852453 1.78144,-1.421038 0.32115,-0.385177 0.85198,-0.948115 1.29405,-1.194279 1.23826,-0.689514 2.50844,-1.281557 3.69732,-2.055968 0.34127,-0.222298 0.5816,-0.598067 0.95795,-0.801222 0.35079,-0.189362 0.61363,-0.173085 0.87391,-0.574458 0.74223,-1.144572 0.74169,-2.141617 1.02516,-3.416538 0.0715,-0.321768 0.24326,-0.588105 0.28569,-0.92216 0.0406,-0.31971 -0.23166,-0.68847 -0.15124,-0.982631 0.19376,-0.708779 1.59412,-1.552252 2.01672,-2.07109 0.56407,-0.69252 0.2857,-1.268901 0.2857,-2.040847 0,-0.586253 0.4554,-1.0478 0.47056,-1.647799 0.007,-0.280154 -0.2857,-0.483737 -0.2857,-0.634931 0,-0.09851 0.18848,-0.05969 0.2857,-0.07559 -2.41251,-0.231161 -0.74884,-1.650676 -1.7142,-2.418844 -0.45881,-0.365081 -1.56103,0.279229 -2.11756,0.07559 -1.09195,-0.399552 -0.80275,-1.577783 -1.52935,-2.176909 -0.20141,-0.166074 -1.33852,-0.691174 -1.56295,-0.770985 -1.45802,-0.518494 -2.94973,-0.953952 -4.40317,-1.481507 -0.49125,-0.178305 -0.93826,-0.481602 -1.44531,-0.619814 -0.8819,-0.240385 -1.8282,-0.01854 -2.72258,-0.120939 -0.30078,-0.03444 -0.29157,-0.23197 -0.50417,-0.362817 -0.37857,-0.232997 -0.9165,-0.155345 -1.29407,-0.438405 -0.41136,-0.308392 -0.21373,-1.840973 -0.92433,-2.343199 -0.62945,-0.444874 -1.25142,-1.200467 -2.01672,-1.315216 -0.12391,-0.01858 -0.92457,-0.06728 -0.84029,-0.332586 0.0213,-0.06712 2.56308,-0.344894 2.73937,-0.287228 0.59341,0.194107 1.09718,0.585469 1.84866,0.634932 1.31107,0.0863 5.67391,0.380019 6.62156,0.07558 0.81752,-0.262632 1.57172,-0.752371 2.38646,-1.027982 0.5231,-0.176956 1.09166,-0.240599 1.57976,-0.498875 0.88927,-0.470556 1.74574,-0.966316 2.72256,-1.26986 0.50643,-0.15737 1.13505,-0.08377 1.52935,-0.438405 0.84864,-0.763273 1.79894,-1.318791 2.70577,-2.025733 0.16225,-0.126487 0.0752,-0.477448 0.18486,-0.650051 0.16958,-0.266952 0.58022,-0.611517 0.80669,-0.846574 0.27723,-0.287742 0.61202,-0.528512 0.89071,-0.816341 0.34483,-0.356127 0.52018,-0.857114 0.87391,-1.209391 0.5338,-0.531604 1.05948,-0.825609 1.44533,-1.496625 0.42842,-0.745044 2.26214,-2.442172 3.19313,-1.814091 0.78506,-0.72981 1.75273,-1.219254 2.52657,-1.950142 0.41985,-0.396552 1.05609,-0.912069 1.32767,-1.421037 0.27044,-0.506828 -0.0269,-0.694809 0.45377,-1.300098 0.49754,-0.626582 1.4994,-1.548557 2.18478,-1.93503 0.29535,-0.166546 0.74124,-0.421685 0.73946,-0.423287 -0.24781,-0.222914 -1.69278,1.261272 -1.99992,1.496625 -0.72896,0.558578 -1.88661,1.48938 -2.2688,2.373434 -0.21372,0.494355 -0.0923,1.04175 -0.2857,1.541975 -0.41698,1.078356 -0.53304,1.634756 -0.0336,2.645549 0.16492,0.333791 0.18438,0.71954 0.45376,1.012864 1.16145,1.264689 2.36267,1.42192 4.03344,1.572213 0.90202,0.08114 1.75748,0.535557 2.68896,0.377936 0.5373,-0.09092 1.64735,-0.586783 2.28561,-0.287235 0.24524,0.115095 0.0651,0.252213 0.40335,0.211647 0.26124,-0.03133 0.4408,-0.2164 0.68904,-0.256997 0.55761,-0.09119 1.24479,0.109656 1.79824,-0.07559 0.90115,-0.301619 1.70788,-1.034825 2.55452,-1.466387 0.67622,-0.344697 1.49842,-0.835447 2.11756,-1.05822 0.56902,-0.204742 1.12219,-0.265176 1.68059,-0.544225 0.64575,-0.322704 0.9647,-0.800377 1.61338,-1.133808 0.46961,-0.241392 1.84876,-0.49908 2.10074,-0.952397 0.12041,-0.216613 -1.17708,-0.04762 -1.19323,-0.04535" />
  </g>
</svg>
