<?xml version="1.0" encoding="UTF-8" standalone="no"?>
<!-- Created with Inkscape (http://www.inkscape.org/) -->

<svg
   width="169.33333mm"
   height="127mm"
   viewBox="0 0 169.33333 127"
   version="1.1"
   id="svg5"
   inkscape:version="1.1.2 (08b2f3d93c, 2022-04-05)"
   sodipodi:docname="Epitélio.svg"
   xmlns:inkscape="http://www.inkscape.org/namespaces/inkscape"
   xmlns:sodipodi="http://sodipodi.sourceforge.net/DTD/sodipodi-0.dtd"
   xmlns="http://www.w3.org/2000/svg"
   xmlns:svg="http://www.w3.org/2000/svg">
  <sodipodi:namedview
     id="namedview7"
     pagecolor="#ffffff"
     bordercolor="#666666"
     borderopacity="1.0"
     inkscape:pageshadow="2"
     inkscape:pageopacity="0.0"
     inkscape:pagecheckerboard="0"
     inkscape:document-units="mm"
     showgrid="false"
     inkscape:zoom="1.3404872"
     inkscape:cx="114.13761"
     inkscape:cy="218.95025"
     inkscape:window-width="1366"
     inkscape:window-height="704"
     inkscape:window-x="0"
     inkscape:window-y="27"
     inkscape:window-maximized="1"
     inkscape:current-layer="layer2" />
  <defs
     id="defs2">
    <inkscape:path-effect
       effect="simplify"
       id="path-effect73"
       is_visible="true"
       lpeversion="1"
       steps="1"
       threshold="0.000408163"
       smooth_angles="360"
       helper_size="0"
       simplify_individual_paths="false"
       simplify_just_coalesce="false" />
    <inkscape:path-effect
       effect="simplify"
       id="path-effect69"
       is_visible="true"
       lpeversion="1"
       steps="1"
       threshold="0.000408163"
       smooth_angles="360"
       helper_size="0"
       simplify_individual_paths="false"
       simplify_just_coalesce="false" />
    <inkscape:path-effect
       effect="simplify"
       id="path-effect65"
       is_visible="true"
       lpeversion="1"
       steps="1"
       threshold="0.000408163"
       smooth_angles="360"
       helper_size="0"
       simplify_individual_paths="false"
       simplify_just_coalesce="false" />
    <inkscape:path-effect
       effect="simplify"
       id="path-effect61"
       is_visible="true"
       lpeversion="1"
       steps="1"
       threshold="0.000408163"
       smooth_angles="360"
       helper_size="0"
       simplify_individual_paths="false"
       simplify_just_coalesce="false" />
    <inkscape:path-effect
       effect="simplify"
       id="path-effect57"
       is_visible="true"
       lpeversion="1"
       steps="1"
       threshold="0.000408163"
       smooth_angles="360"
       helper_size="0"
       simplify_individual_paths="false"
       simplify_just_coalesce="false" />
  </defs>
  <g
     inkscape:groupmode="layer"
     id="layer2"
     inkscape:label="Epitélio">
    <path
       style="fill:none;stroke:#000000;stroke-width:0.264583px;stroke-linecap:butt;stroke-linejoin:miter;stroke-opacity:1"
       d="m 169.9229,5.0438401 c -0.75251,0.023872 -1.39929,0.4624778 -1.99186,0.8825905 -0.54186,0.3841627 -1.11699,0.7563976 -1.78516,0.8777118 -0.61638,0.1119107 -1.29877,0.189533 -1.86331,-0.085045 -0.20208,-0.098286 -0.43493,-0.5017499 -0.58533,-0.335052 -0.90449,1.0025228 -2.30379,1.3697394 -3.21635,2.3535002 -0.30251,0.3261133 -0.51138,0.7407937 -0.90863,0.9776217 -0.37598,0.2241494 -0.77448,0.4239348 -1.06683,0.7672078 -0.44454,0.521965 -0.69554,1.196872 -1.19163,1.669308 -0.55523,0.528757 -1.28686,0.802099 -1.95217,1.159719 -1.02669,0.551867 -2.21341,0.614296 -3.34629,0.748392 -0.74289,0.08793 -1.47174,0.277551 -2.1612,0.571873 -1.20931,0.516238 -2.2773,1.298151 -3.41939,1.939679 -0.93136,0.52316 -1.95736,0.835626 -2.92996,1.270899 -1.72064,0.77005 -3.50747,1.46825 -5.02075,2.606817 -0.25102,0.188863 -0.56678,0.328529 -0.73092,0.597508 -0.14671,0.240412 -0.23849,0.528912 -0.5113,0.673461 -0.35865,0.190033 -0.78903,0.252724 -1.08167,0.562464 -0.41924,0.443739 -0.61843,1.124501 -1.20339,1.381293 -1.12782,0.495105 -2.41645,0.662996 -3.43854,1.349987 -0.43408,0.291763 -0.81159,0.659368 -1.19378,1.014467 -1.06448,0.989012 -2.02921,2.085321 -3.12957,3.033924 -0.42506,0.366436 -0.94033,0.606591 -1.34342,1.007822 -0.49143,0.489169 -0.87706,1.080702 -1.39841,1.537322 -0.42025,0.368076 -1.02914,0.504442 -1.35562,0.974537 -0.65937,0.949409 -0.91924,2.149828 -1.73199,2.992302 -0.57689,0.597987 -1.36559,0.932235 -2.13565,1.199726 -0.89384,0.310489 -1.75741,0.697444 -2.63808,1.04243 -1.49594,0.586004 -3.07288,1.102731 -4.32815,2.126456 -0.56464,0.460486 -0.99147,1.063469 -1.58775,1.493795 -0.72555,0.523618 -1.6142,0.863905 -2.18291,1.566047 -0.28182,0.34794 -0.25149,0.94403 -0.66466,1.151412 -0.62172,0.312062 -1.24085,0.632388 -1.83838,0.990759 -0.63277,0.379508 -1.17299,0.902664 -1.81962,1.256604 -0.45736,0.250343 -0.97967,0.335316 -1.46923,0.504309 -0.6606,0.228034 -1.26697,0.62231 -1.70863,1.170593 -0.35271,0.437855 -0.69539,0.886468 -1.127472,1.25381 -0.720576,0.612616 -1.543821,1.140845 -2.062353,1.956992 -0.377725,0.594522 -0.70524,1.243557 -1.274135,1.689618 -0.683195,0.535682 -1.455288,0.963575 -2.282223,1.23938 -0.355483,0.118563 -0.731313,0.108216 -1.100862,0.08562 -0.29748,-0.01819 -0.625874,-0.0087 -0.862088,0.197277 -0.176087,0.15353 -0.416244,0.125973 -0.629885,0.0838 -0.387018,-0.0764 -0.776818,-0.285576 -1.172057,-0.196376 -0.299455,0.06758 -0.446017,0.375734 -0.60173,0.609696 -0.183994,0.276454 -0.271128,0.672653 -0.575614,0.819927 -0.223077,0.107898 -0.458846,0.239283 -0.53248,0.503129 -0.110357,0.395432 0.06339,0.872805 -0.220586,1.208749 -0.224876,0.266024 -0.611799,0.34188 -0.780902,0.672719 -0.107951,0.211199 -0.186902,0.446475 -0.413661,0.581468 -0.580647,0.345668 -1.140188,0.748677 -1.554399,1.293991 -0.673058,0.886089 -1.040084,2.010892 -1.90311,2.740136 -0.499462,0.422038 -1.164737,0.524458 -1.771043,0.712076 -0.457821,0.14167 -0.902309,0.385105 -1.173803,0.800783 -0.806917,1.235448 -1.73323,2.43256 -2.22899,3.821346 -0.08448,0.236645 -0.337612,0.273529 -0.538446,0.366239 -1.473987,0.680428 -2.929281,1.409772 -4.315372,2.254833 -0.634618,0.386909 -1.270479,0.78147 -1.833335,1.272425 -0.128101,0.111737 -0.282513,0.247088 -0.02503,0.356525 0.43132,0.18332 0.867889,0.357519 1.314811,0.499207"
       id="path55"
       inkscape:path-effect="#path-effect57"
       inkscape:original-d="m 169.9229,5.0438401 c -1.31398,0.046927 -2.21056,1.2942671 -3.37001,1.6593002 -0.69549,0.218965 -1.56123,0.2285701 -2.27032,0.015957 -0.0666,-0.019984 -0.55858,-0.3644593 -0.58533,-0.335052 -0.91649,1.0076548 -2.26983,1.411931 -3.19264,2.3294009 -0.25584,0.2543543 -0.41734,0.597344 -0.69174,0.8296487 -0.33967,0.2875595 -0.82628,0.437289 -1.13517,0.7498791 -0.47074,0.476379 -0.84466,1.200312 -1.25931,1.739073 -0.39904,0.518468 -1.42976,0.933912 -2.02201,1.260432 -1.47968,0.815784 -3.29215,0.553588 -4.87766,1.084925 -1.35536,0.454207 -2.68527,1.316784 -3.88438,2.074125 -0.83745,0.528917 -1.86356,0.822214 -2.76696,1.228525 -1.89964,0.854371 -4.37442,1.875064 -6.01282,3.254782 -0.21254,0.178986 -0.22983,0.477962 -0.42569,0.654147 -0.30579,0.275061 -0.77299,0.29561 -1.09969,0.54246 -0.55139,0.41662 -0.73778,1.268659 -1.47216,1.579528 -1.07007,0.452969 -2.2158,0.837291 -3.31681,1.292339 -0.4237,0.175113 -3.76474,3.461795 -4.23912,3.956796 -0.36264,0.378407 -0.8953,0.58076 -1.27706,0.941332 -0.5354,0.505687 -0.979,1.08953 -1.47217,1.611434 -0.39634,0.419428 -1.1358,0.615193 -1.45443,1.068975 -0.71283,1.015235 -1.0601,2.533068 -2.05748,3.286694 -0.88959,0.672171 -1.94962,0.912278 -2.94433,1.340202 -1.92495,0.828106 -3.96326,1.41841 -5.67581,2.616589 -0.57313,0.400984 -0.94716,0.989195 -1.48991,1.419979 -0.75872,0.602199 -1.67396,1.010404 -2.37674,1.691208 -0.33881,0.328213 -0.38548,1.0639 -0.79817,1.260433 -1.27955,0.609357 -2.4018,1.288486 -3.51191,2.153899 -0.48243,0.376092 -1.73879,0.374806 -2.76696,1.228521 -0.44424,0.368869 -0.7414,0.860081 -1.11743,1.276382 -0.696251,0.770829 -1.697662,1.27839 -2.341269,2.121992 -0.436539,0.572194 -0.736013,1.332143 -1.277062,1.818849 -0.698735,0.628555 -2.012937,1.408978 -2.962063,1.515708 -0.373028,0.04195 -0.895094,-0.08617 -1.259324,0.04786 -0.143529,0.05282 -0.325438,0.232267 -0.478899,0.255277 -0.456144,0.06839 -1.393917,-0.469251 -1.77369,-0.12764 -0.321154,0.288885 -0.563917,0.883759 -0.851371,1.228521 -0.186258,0.223393 -0.442407,0.157417 -0.603054,0.494602 -0.176009,0.369424 0.01542,0.914291 -0.230582,1.27639 -0.152325,0.224215 -0.474633,0.320005 -0.674007,0.510553 -0.193535,0.184965 -0.250687,0.620331 -0.461158,0.733917 -0.296244,0.159869 -0.858523,0.532945 -1.135163,0.781791 -1.002218,0.901525 -1.412624,2.403522 -2.412225,3.302643 -0.712629,0.640995 -2.203061,0.547171 -2.820165,1.340196 -0.595378,0.765106 -2.362467,4.146307 -2.50091,4.196125 -0.840102,0.302308 -6.385552,3.079909 -6.740033,3.956786 -0.01331,0.03289 1.119481,0.483703 1.489903,0.590327" />
    <path
       style="fill:none;stroke:#000000;stroke-width:0.264583px;stroke-linecap:butt;stroke-linejoin:miter;stroke-opacity:1"
       d="m 73.327603,72.89965 c -0.309037,-0.40261 -0.464929,-0.964318 -0.926031,-1.212551 -0.140376,-0.07557 -0.247601,0.104961 -0.304214,0.204437 -0.07553,0.132722 -0.200343,0.20792 -0.349436,0.25265 -0.510186,0.153064 -1.012483,0.352812 -1.541912,0.42298 -0.432287,0.05729 -0.872641,0.05154 -1.296707,0.17698 -0.762494,0.225549 -1.504601,0.545493 -2.294158,0.656992 -0.707731,0.09994 -1.425416,-0.0639 -2.132532,0.07962 -1.424007,0.28903 -2.804166,0.806524 -4.262082,0.917819 -0.715737,0.05464 -1.4308,-0.0464 -2.146618,-0.04611 -0.448676,1.83e-4 -0.913029,-0.01447 -1.341054,0.13512 -0.532115,0.185972 -0.923843,0.676108 -1.49337,0.762469 -0.36823,0.05584 -0.745054,0.0022 -1.108928,0.119946 -0.597013,0.193118 -1.162925,0.528814 -1.793387,0.577099 -0.298721,0.02288 -0.601882,-0.02498 -0.896666,0.06523 -0.782834,0.23956 -1.512966,0.619999 -2.29486,0.86445 -0.347819,0.108742 -0.715743,0.04905 -1.067083,-0.0035 -0.378603,-0.05662 -0.764777,-0.07446 -1.144955,-0.0091 -0.672335,0.115549 -1.325385,0.352451 -2.017288,0.356388 -0.275595,0.0016 -0.526625,-0.127791 -0.752372,-0.273258 -0.191649,-0.123495 -0.396172,-0.224177 -0.614534,-0.294832 -1.276675,-0.413091 -2.564387,-0.830333 -3.899757,-0.998556 -1.108857,-0.139688 -2.230432,-0.172754 -3.344476,-0.120023 -0.521454,0.02468 -1.030541,0.269099 -1.55339,0.17776 -1.28973,-0.225309 -2.525731,-0.716996 -3.832316,-0.84488 -0.951933,-0.09317 -1.925222,0.09142 -2.863022,-0.125572 -0.412631,-0.09548 -0.822042,-0.384236 -1.243955,-0.273252 -0.296625,0.07803 -0.562761,0.2397 -0.829253,0.386489 -0.579946,0.319445 -1.1271,0.701812 -1.731069,0.974342 -0.374652,0.169055 -0.793844,0.194875 -1.198758,0.204799 -0.951194,0.02331 -1.898087,-0.09605 -2.844233,-0.185237 -0.195644,-0.01844 -0.386723,-0.06745 -0.563976,-0.15574 -0.291946,-0.145427 -0.572001,-0.316508 -0.891132,-0.405569 -1.425292,-0.397759 -2.828614,-0.894549 -4.284623,-1.162688 -0.671133,-0.123596 -1.357947,-0.105396 -2.036968,-0.08822 -1.014777,0.02566 -2.029097,0.08493 -3.0453924,0.05791 C 8.9287654,74.081844 8.4914428,73.931003 8.0656054,73.774749 7.6632961,73.627128 7.2450243,73.511368 6.8128821,73.502381 5.953914,73.484518 5.1087478,73.707568 4.3137206,74.018735 3.9564165,74.158581 3.6219057,74.347281 3.2812433,74.522364 2.8928414,74.721983 2.4349712,74.768538 2.0093656,74.654124 1.6466007,74.556603 1.3375788,74.304322 0.96632189,74.244353 c -0.0975612,-0.01576 -0.24986694,-0.07832 -0.30006824,0.0094 -0.0691051,0.120723 -0.0415947,0.270981 -0.027708,0.402914 0.0162724,0.154599 0.0440524,0.307623 0.0703738,0.460728"
       id="path59"
       inkscape:path-effect="#path-effect61"
       inkscape:original-d="m 73.327603,72.89965 c -0.308676,-0.404185 -0.505243,-0.926923 -0.926031,-1.212551 -0.185222,-0.125727 -0.330716,0.359749 -0.514374,0.414814 -0.495948,0.148698 -0.98308,0.316812 -1.48989,0.430789 -0.452252,0.101709 -0.913908,0.04486 -1.365747,0.175504 -0.743178,0.214873 -1.524193,0.510301 -2.288069,0.670102 -0.679403,0.142129 -1.443662,-0.05563 -2.146165,0.07977 -1.631561,0.314484 -3.259357,0.981803 -4.948605,0.957281 -0.723728,-0.0105 -2.173214,-0.172423 -2.891118,0.06383 -0.529641,0.174297 -0.946055,0.661006 -1.489898,0.765831 -0.297328,0.05731 -0.714407,-0.0038 -0.993272,0.07977 -0.617308,0.185114 -1.187442,0.476862 -1.826901,0.60628 -0.293177,0.05934 -0.596191,-0.02685 -0.886849,0.04786 -0.831019,0.213601 -2.184778,0.957292 -2.784694,0.957292 -0.518954,0 -1.017873,-0.15598 -1.543116,-0.111689 -0.7859,0.06628 -1.677636,0.484121 -2.46543,0.382916 -0.396968,-0.051 -0.720238,-0.392248 -1.081955,-0.510554 -1.283267,-0.419713 -2.767023,-0.887682 -4.114964,-1.053017 -1.015932,-0.124614 -2.166898,-0.111676 -3.192648,-0.111676 -0.511072,0 -1.151467,0.265113 -1.649534,0.175501 -1.229051,-0.221136 -2.367508,-0.63736 -3.582858,-0.813694 -0.959157,-0.139161 -1.98736,0.03179 -2.962069,-0.127638 -0.457443,-0.07482 -0.845418,-0.319921 -1.330269,-0.303152 -0.390144,0.01349 -2.19789,1.230514 -2.731487,1.419985 -0.869005,0.308567 -3.108714,0.08699 -4.114964,-0.06383 -0.353016,-0.05291 -0.760969,-0.395343 -1.117428,-0.494591 -1.441242,-0.401283 -2.907898,-0.851045 -4.32781,-1.180655 -1.278804,-0.296857 -3.8416,0.07241 -5.3565537,-0.06382 C 8.5085096,74.017678 7.8911737,73.638718 7.2183706,73.53784 6.0182852,73.357908 4.4598288,73.856407 3.4226687,74.447271 2.0579306,75.224755 1.3787648,74.1024 0.6911831,74.239857 c -0.15166067,0.03032 0.005382,0.788611 0.0177363,0.877517" />
    <path
       style="fill:none;stroke:#000000;stroke-width:0.264583px;stroke-linecap:butt;stroke-linejoin:miter;stroke-opacity:1"
       d="m 169.9229,5.0438401 c -0.25949,-0.4838257 -0.50711,-0.9740318 -0.74257,-1.4699818 -0.0992,-0.2088615 -0.1991,-0.4174923 -0.28941,-0.6303485 -0.0207,-0.04874 -0.0421,-0.097248 -0.0594,-0.1473334 0,0 -0.002,-0.00593 -0.002,-0.00593 0,0 -0.002,-0.0083 -0.002,-0.0083 0,0 0.003,-0.00185 0.003,-0.00185 0.0293,0.041357 0.0515,0.087232 0.0747,0.1321702 0.10449,0.2026847 0.2038,0.4079937 0.30252,0.6135326 0.24215,0.5041683 0.47903,1.0108491 0.71477,1.5180376 z"
       id="path63"
       inkscape:path-effect="#path-effect65"
       inkscape:original-d="m 169.9229,5.0438401 c -1.02126,-1.901323 -1.84282,-3.9678102 0,0" />
    <path
       style="fill:none;stroke:#000000;stroke-width:0.264583px;stroke-linecap:butt;stroke-linejoin:miter;stroke-opacity:1"
       d="m 168.83052,2.7800964 c 0.14132,-0.4695258 0.87623,-1.217841 0.42614,-1.4087953 -0.27023,-0.114647 -0.52481,0.1866627 -0.87288,0.2292068 -0.90741,0.1109101 -1.82591,-0.1005743 -2.72997,0.1636033 -0.59106,0.1727152 -1.06386,0.6113985 -1.67985,0.7231856 -0.76743,0.1392702 -1.55828,0.095748 -2.3121,0.3473988 -0.79948,0.2668945 -1.74639,0.3935239 -2.31443,1.0194271 -0.44861,0.494309 -0.75461,1.1291615 -1.28336,1.5369368 -0.50499,0.389454 -1.17301,0.4510538 -1.6826,0.8499724 -0.69586,0.5447364 -1.27556,1.2316762 -2.07905,1.6468442 -0.41792,0.215941 -0.993,0.2466522 -1.26321,0.6339512 -0.1919,0.275058 -0.44165,0.4829122 -0.72214,0.6757271 -0.91148,0.6265688 -1.89392,1.1396686 -2.86856,1.6589876 -0.37287,0.198677 -0.78831,0.259944 -1.20885,0.284745 -1.31071,0.0773 -2.67985,0.20884 -3.83842,0.848312 -0.79091,0.436541 -1.28703,1.227203 -2.06607,1.694756 -0.86537,0.519365 -1.95621,0.746721 -2.58923,1.580644 -0.27,0.35569 -0.53991,0.716247 -0.91293,0.976064 -0.50327,0.35054 -1.00287,0.70274 -1.48085,1.090234 -1.72486,1.398318 -3.74999,2.632164 -5.98674,2.808875 -0.5708,0.04509 -1.16526,-0.01539 -1.7042,0.239877 -1.2911,0.611538 -2.44932,1.4725 -3.72488,2.113042 -0.31946,0.160421 -0.52475,0.448418 -0.70999,0.744509 -0.37484,0.59915 -0.81662,1.173115 -1.06206,1.83671 -0.13196,0.356774 -0.0894,0.777607 -0.38849,1.074828 -1.13208,1.124889 -2.15572,2.388426 -3.45631,3.313631 -0.78779,0.560411 -1.75457,0.800009 -2.51059,1.430928 -0.51501,0.429788 -1.15012,0.660282 -1.70807,1.029475 -1.40647,0.930651 -2.88489,1.757564 -4.23657,2.766066 -1.43531,1.070903 -2.46006,2.606514 -4.00706,3.551207 -2.00427,1.223931 -4.00894,2.475349 -6.21125,3.325712 -1.47911,0.571118 -2.975477,1.147698 -4.277621,2.077609 -1.411151,1.007757 -2.691665,2.184339 -4.120161,3.171051 -1.527893,1.055369 -3.045146,2.127412 -4.621031,3.110606 -0.84424,0.526721 -1.810456,0.837763 -2.595862,1.468725 -0.812501,0.652729 -1.559641,1.398073 -2.493218,1.88928 -0.721706,0.37973 -1.43043,0.791051 -2.030978,1.358895 -1.241732,1.174112 -2.002735,2.778939 -3.262936,3.92177 -0.396569,0.359634 -0.835579,0.663291 -1.224698,1.035991 -1.32129,1.265538 -2.979007,2.08966 -4.633529,2.820456 -1.076754,0.475598 -2.033799,1.282762 -3.204758,1.486465 -0.972118,0.169112 -1.996328,-0.225343 -2.940575,0.134811 -0.787281,0.300284 -1.35941,0.973269 -2.174703,1.236091 -0.920842,0.296847 -2.001258,0.30891 -2.733492,1.012279 -0.493483,0.47403 -0.84276,1.108562 -1.443502,1.464077 -0.247465,0.146448 -1.009265,-0.135983 -0.867232,0.164564 0.162537,0.343935 0.605209,0.298979 0.916029,0.268752 0.16322,-0.01587 0.520567,0.05359 0.196349,-0.113509 -0.62882,-0.324096 -1.353249,-0.07491 -1.975408,0.146196 -0.696841,0.247641 -1.326461,0.734106 -2.06592,0.807452 -0.361924,0.0359 -0.661616,-0.231686 -0.977026,-0.377583 -0.542943,-0.251145 -1.165653,-0.490536 -1.767445,-0.258753 -0.500244,0.192671 -0.986091,0.443848 -1.549642,0.435976 -1.310995,-0.01831 -2.641784,0.03486 -3.927125,-0.224362 -0.648918,-0.130873 -1.274379,-0.365931 -1.952087,-0.367928 -1.330511,-0.0039 -5.003854,1.02734 -3.985315,0.173045 0.139103,-0.116672 0.258658,-0.07259 0.02388,-0.05692 -0.7885,0.05265 -1.578379,-0.03945 -2.365613,0.08189 -1.546696,0.238402 -3.080256,0.631392 -4.660309,0.589248 -1.511423,-0.04031 -3.049298,-0.198493 -4.539487,0.188522 -0.72102,0.187255 -1.493856,0.796475 -2.181636,0.497511 -0.358618,-0.155884 -0.739074,-0.07045 -1.098553,0.03872 -0.612756,0.186088 -1.23928,0.322675 -1.88338,0.350449 -1.417419,0.06112 -2.84851,-0.03572 -4.250004,0.257256 -1.28142,0.267878 -2.6109,0.625114 -3.918431,0.308242 C 16.306904,70.480402 15.645768,70.059382 14.927575,69.778173 13.719651,69.30521 12.490976,68.873964 11.233232,68.556244 10.520302,68.37615 9.6653655,68.369942 9.1469289,67.814829 8.8001857,67.443556 8.2911056,67.329477 7.820187,67.209033 5.9555712,66.732132 4.0396937,66.419548 2.1159865,66.371493 c -0.8027896,-0.02005 -1.59342895,0.190339 -2.40304718,0.186772 -0.51144415,-0.0023 -0.95693732,-0.305932 -1.40158892,-0.524659 -0.3491191,-0.171734 -0.6704207,-0.464448 -1.0629637,-0.492045 -0.5173564,-0.03637 -1.0690155,0.194674 -1.3053681,0.68842 -0.1793713,0.374711 -0.2101679,0.800843 -0.2022691,1.210204"
       id="path67"
       inkscape:path-effect="#path-effect69"
       inkscape:original-d="m 168.83052,2.7800964 c 0.13611,-0.4483254 0.27223,-0.8966508 0.40834,-1.3449763 0.006,-0.021273 0.0267,-0.043643 0.0178,-0.063819 -0.0811,-0.1824485 -0.37013,0.1618575 -0.56759,0.1914634 -1.69898,0.2547311 -2.21524,-0.4000166 -3.97307,0.6541415 -0.82504,0.4947679 -1.88118,0.2522047 -2.76696,0.5265094 -0.87064,0.2696165 -1.78978,0.6159159 -2.57185,1.0849311 -0.10711,0.064238 -1.07357,1.3485966 -1.27707,1.5316589 -0.37731,0.3394141 -0.99064,0.4125016 -1.43668,0.6860601 -0.61893,0.3795948 -1.11543,1.0154592 -1.70275,1.4518835 -0.55131,0.4096682 -1.21588,0.6077868 -1.80916,0.9413367 -0.23471,0.1319546 -0.25686,0.352144 -0.47891,0.510553 -0.61006,0.4352224 -1.34998,0.9078026 -2.02201,1.2604323 -0.49915,0.261919 -1.47121,0.881896 -2.02201,0.909424 -1.40263,0.0701 -2.58252,0.200654 -3.93759,0.733923 -0.94083,0.37025 -1.31745,1.170151 -2.12843,1.69121 -1.22631,0.787903 -2.23682,0.83646 -3.05076,2.026261 -0.44918,0.656618 -1.23591,0.980927 -1.82689,1.483797 -1.75555,1.493805 -3.82012,2.68438 -6.13699,3.063324 -0.46654,0.07631 -1.1107,-0.0048 -1.5431,0.127638 -0.83295,0.255069 -3.78778,2.020372 -4.39877,2.472995 -0.18782,0.139143 -1.25707,1.92133 -1.41894,2.297495 -0.13215,0.30709 -0.0913,0.649076 -0.24832,0.957287 -0.0534,0.104815 -3.42393,3.376032 -3.70702,3.557925 -0.71027,0.456364 -1.70534,0.720289 -2.32354,1.276385 -0.53332,0.47974 -1.00929,0.58919 -1.54311,0.941337 -1.4095,0.929791 -2.82183,1.820952 -4.22139,2.744221 -1.52058,1.003104 -2.53923,2.689381 -4.1327,3.653653 -1.64112,0.993105 -3.27779,2.056548 -5.01955,2.855915 -1.34446,0.617029 -2.77747,1.050792 -4.114974,1.723117 -1.544285,0.776269 -2.810229,1.938626 -4.150434,2.999505 -1.847106,1.462129 -3.98508,2.679086 -5.906399,4.068474 -0.677286,0.489775 -1.43723,0.719285 -2.146165,1.148757 -0.956321,0.579334 -1.69668,1.473856 -2.642804,2.058162 -0.731057,0.451485 -1.575001,0.77856 -2.217118,1.356156 -1.506228,1.354887 -2.225622,2.656097 -3.529645,4.164214 -0.187693,0.217067 -0.787252,0.608055 -0.975532,0.79774 -1.538354,1.549834 -3.11281,2.248447 -5.21466,3.23882 -0.828198,0.390239 -2.293445,1.327097 -3.17491,1.38807 -0.841359,0.0582 -1.865119,-0.202279 -2.678276,0.09574 -0.617141,0.226179 -1.076039,0.723485 -1.649532,1.021106 -1.073187,0.556948 -2.493846,0.387596 -3.387751,1.356159 -0.375261,0.406601 -0.774795,0.996982 -1.259324,1.308296 -0.264168,0.169728 -1.031441,-0.102973 -0.922322,0.19145 0.151239,0.408056 0.843857,0.229783 1.277059,0.27124 -1.11019,-0.953857 -3.565793,0.918569 -4.376576,0.845602 -0.168209,-0.01514 -1.376562,-0.811364 -2.128427,-0.749879 -0.603822,0.04938 -1.161262,0.542465 -1.755956,0.542465 -1.2687,0 -2.651498,-0.07738 -3.919862,-0.191463 -0.669106,-0.06018 -1.232287,-0.383731 -1.933325,-0.398865 -1.414662,-0.03054 -2.82383,0.193946 -4.239126,0.175501 -0.06617,-8.62e-4 0.177368,-0.118988 0.177368,-0.09573 0,0.08412 -1.780572,0.02392 -1.862374,0.03191 -1.432075,0.140012 -2.815019,0.554403 -4.256865,0.654141 -1.616003,0.111787 -3.324379,-0.237974 -4.913127,0.04786 -0.940518,0.169212 -1.831904,0.552121 -2.7847,0.654154 -0.278331,0.02981 -0.331844,-0.141331 -0.674001,-0.07978 -0.62228,0.111951 -1.214287,0.367775 -1.844641,0.430778 -1.319067,0.131839 -2.668637,-0.01449 -3.990807,0.159551 -1.615599,0.212667 -3.024733,0.831394 -4.735758,0.446728 C 16.481948,70.532978 15.979264,70.221158 15.446475,69.99295 14.225037,69.469776 12.939074,69.049681 11.668509,68.668705 10.964202,68.457519 9.8265948,68.330394 9.256285,67.902875 9.0528713,67.750391 8.9080006,67.56932 8.6532319,67.472097 6.82042,66.772674 1.5956399,65.998368 -0.23296842,66.546717 -0.77867322,66.710359 -2.3481241,65.553396 -2.7516133,65.541561 -3.9912922,65.5052 -4.2846086,66.413858 -4.2592505,67.440185" />
  </g>
</svg>
