<?xml version="1.0" encoding="UTF-8" standalone="no"?>
<!-- Created with Inkscape (http://www.inkscape.org/) -->

<svg
   width="353.56799mm"
   height="264.16mm"
   viewBox="0 0 353.56799 264.16"
   version="1.1"
   id="svg5"
   inkscape:version="1.1.2 (08b2f3d93c, 2022-04-05)"
   sodipodi:docname="Epitélio.svg"
   xmlns:inkscape="http://www.inkscape.org/namespaces/inkscape"
   xmlns:sodipodi="http://sodipodi.sourceforge.net/DTD/sodipodi-0.dtd"
   xmlns="http://www.w3.org/2000/svg"
   xmlns:svg="http://www.w3.org/2000/svg">
  <sodipodi:namedview
     id="namedview7"
     pagecolor="#ffffff"
     bordercolor="#666666"
     borderopacity="1.0"
     inkscape:pageshadow="2"
     inkscape:pageopacity="0.0"
     inkscape:pagecheckerboard="0"
     inkscape:document-units="mm"
     showgrid="false"
     inkscape:zoom="1.0916486"
     inkscape:cx="721.84401"
     inkscape:cy="518.93989"
     inkscape:window-width="1366"
     inkscape:window-height="704"
     inkscape:window-x="0"
     inkscape:window-y="27"
     inkscape:window-maximized="1"
     inkscape:current-layer="layer2" />
  <defs
     id="defs2">
    <inkscape:path-effect
       effect="simplify"
       id="path-effect77"
       is_visible="true"
       lpeversion="1"
       steps="1"
       threshold="0.000408163"
       smooth_angles="360"
       helper_size="0"
       simplify_individual_paths="false"
       simplify_just_coalesce="false" />
    <inkscape:path-effect
       effect="simplify"
       id="path-effect73"
       is_visible="true"
       lpeversion="1"
       steps="1"
       threshold="0.000408163"
       smooth_angles="360"
       helper_size="0"
       simplify_individual_paths="false"
       simplify_just_coalesce="false" />
    <inkscape:path-effect
       effect="simplify"
       id="path-effect69"
       is_visible="true"
       lpeversion="1"
       steps="1"
       threshold="0.000408163"
       smooth_angles="360"
       helper_size="0"
       simplify_individual_paths="false"
       simplify_just_coalesce="false" />
    <inkscape:path-effect
       effect="simplify"
       id="path-effect65"
       is_visible="true"
       lpeversion="1"
       steps="1"
       threshold="0.000408163"
       smooth_angles="360"
       helper_size="0"
       simplify_individual_paths="false"
       simplify_just_coalesce="false" />
    <inkscape:path-effect
       effect="simplify"
       id="path-effect61"
       is_visible="true"
       lpeversion="1"
       steps="1"
       threshold="0.000408163"
       smooth_angles="360"
       helper_size="0"
       simplify_individual_paths="false"
       simplify_just_coalesce="false" />
    <inkscape:path-effect
       effect="simplify"
       id="path-effect57"
       is_visible="true"
       lpeversion="1"
       steps="1"
       threshold="0.000408163"
       smooth_angles="360"
       helper_size="0"
       simplify_individual_paths="false"
       simplify_just_coalesce="false" />
  </defs>
  <g
     inkscape:groupmode="layer"
     id="layer2"
     inkscape:label="Epitélio">
    <path
       style="fill:none;stroke:#000000;stroke-width:0.264583px;stroke-linecap:butt;stroke-linejoin:miter;stroke-opacity:1"
       d="m 197.09733,206.62756 c 0.70064,-0.46463 1.39345,-0.97994 2.23245,-1.17902 1.02939,-0.24425 2.15403,-0.2109 3.08517,-0.76833 0.75801,-0.45378 1.61751,-0.68796 2.4695,-0.8905 1.37983,-0.32802 2.77478,-0.60805 4.10656,-1.11748 2.3636,-0.90412 4.59954,-2.09639 6.8745,-3.20657 0.84117,-0.41049 1.78447,-0.5734 2.58986,-1.06987 0.90047,-0.55508 1.73339,-1.20858 2.59429,-1.82199 0.66984,-0.47727 1.41563,-0.88865 1.94546,-1.52077 0.28121,-0.3355 0.52728,-0.705 0.90273,-0.95369 0.39201,-0.25966 0.75665,-0.55794 1.04127,-0.94299 0.65341,-0.88396 1.2419,-1.85945 2.19597,-2.47141 0.56827,-0.3645 1.22892,-0.63363 1.64725,-1.18949 0.36906,-0.4904 0.92817,-0.77476 1.44025,-1.08728 1.34678,-0.82194 2.75731,-1.57695 3.9183,-2.66523 0.53282,-0.49945 0.86511,-1.15872 1.17095,-1.80876 0.30761,-0.65381 0.5919,-1.34366 0.60336,-2.07888 0.006,-0.36511 0.12299,-0.70936 0.26402,-1.04662 0.41464,-0.99157 0.59272,-2.07074 1.10732,-3.02451 0.36569,-0.67777 0.74178,-1.35787 0.93632,-2.11072 0.18167,-0.70304 0.39027,-1.39821 0.67463,-2.06909 0.68123,-1.6072 1.47917,-3.21222 1.63898,-4.9815 0.0601,-0.66495 -0.0146,-1.33651 -0.225,-1.97223 -0.28008,-0.84632 -0.52825,-1.70946 -0.54907,-2.61556 -0.0281,-1.22195 -1.03506,-2.82052 -0.15048,-3.66346 0.17438,-0.16617 0.43026,-0.30152 0.44935,-0.58183 0.13387,-1.96536 0.48908,-3.93362 0.35699,-5.89918 -0.0409,-0.60891 -0.25863,-1.19542 -0.31735,-1.80496 -0.0364,-0.37746 -0.39132,-0.35699 -0.56464,-0.0366 -0.0848,0.15681 -0.13092,0.64652 -0.10263,0.58383 0.3953,-0.87603 0.15484,-1.85349 0.33616,-2.77226 0.17989,-0.91152 0.46903,-1.82353 0.35142,-2.7701 -0.14304,-1.1512 -0.77857,-2.14938 -1.37882,-3.11145 -0.48575,-0.77855 -0.84982,-1.62648 -1.10034,-2.51093 -0.35818,-1.26452 -0.52867,-2.57026 -0.84022,-3.84586 -0.11508,-0.47118 -0.30297,-0.92137 -0.56675,-1.32796 -0.24808,-0.38239 -0.34887,-0.82816 -0.43492,-1.26975 -0.12489,-0.64094 -0.32098,-1.28365 -0.74447,-1.80328 -0.58636,-0.71948 -1.37972,-1.25776 -1.91236,-2.01604 -0.35002,-0.4983 -0.43586,-1.12787 -0.85076,-1.60043 -1.35814,-1.54687 -3.20677,-2.67868 -4.23163,-4.49443 -0.3827,-0.67803 -0.95044,-1.28795 -1.11834,-2.05509 -0.16136,-0.73725 0.16721,-1.47958 -0.0382,-2.22417 -0.35266,-1.27838 -1.3769,-2.2599 -2.53544,-2.85359 -0.68969,-0.35343 -1.44788,-0.54054 -2.21063,-0.65485 -0.59264,-0.0888 -1.15363,-0.31268 -1.66839,-0.6174 -0.47035,-0.27843 -0.98819,-0.47538 -1.54032,-0.52225 -0.4257,-0.0361 -0.85445,-0.12135 -1.21912,-0.37121 -0.82972,-0.56849 -1.66293,-1.27958 -1.99228,-2.22209 -0.10285,-0.29433 -0.11004,-0.6277 -0.41549,-0.83155 -0.65561,-0.43753 -1.47587,-0.50643 -2.13931,-0.93921 -0.28584,-0.18646 -0.52721,-0.41473 -0.7694,-0.68137 -0.24504,-0.26978 -0.66249,0.15522 -0.83097,0.36786 -0.4265,0.53831 -0.19633,1.26247 0.0197,1.86512 0.0465,0.12963 0.37283,0.43973 0.0729,0.24843 -0.86066,-0.54889 -1.7123,-1.11143 -2.59817,-1.62037 -0.67858,-0.38985 -1.30012,-0.87855 -1.79759,-1.49335 -0.39065,-0.48279 -0.78611,-0.97804 -1.33658,-1.29658 -1.70924,-0.98908 -3.57594,-1.65855 -5.36834,-2.47556 -0.50891,-0.23197 -1.03223,-0.45022 -1.45463,-0.83396 -0.45607,-0.41433 -0.903,-0.8678 -1.50244,-1.077 -0.50379,-0.17582 -1.00147,-0.36439 -1.46861,-0.63219 -1.63085,-0.93491 -3.29703,-1.87934 -5.1197,-2.35571 -1.04065,-0.27198 -2.12421,-0.27605 -3.17197,-0.52988 -2.12112,-0.51386 -4.19468,-1.24566 -6.35082,-1.593159 -1.51256,-0.243775 -3.06571,0.144294 -4.56563,-0.159386 -0.84337,-0.170752 -1.62043,-0.600151 -2.49847,-0.634669 -1.88157,-0.07397 -3.71195,0.600381 -5.59954,0.425405 -1.61253,-0.149478 -3.18515,-0.598819 -4.8106,-0.647474 -0.90194,-0.027 -1.85747,-0.01304 -2.66845,0.435766 -0.39324,0.217621 -0.82503,0.342247 -1.27047,0.411149 -1.4203,0.219699 -2.9263,-0.06482 -4.2878,0.389756 -0.40186,0.134172 -0.64277,0.511862 -1.05716,0.651332 -1.12907,0.38 -2.26894,0.77398 -3.4493,0.92412 -0.65756,0.0836 -1.36155,-0.10152 -1.98246,0.16728 -0.39849,0.17251 -0.0573,0.71263 -0.3098,0.98837 -0.28456,0.31076 -0.80247,0.17583 -1.05853,0.54643 -0.2624,0.37978 -0.65839,0.6971 -0.78246,1.14596 -0.0966,0.34936 0.17537,0.65031 0.34232,0.92743 0.25663,0.42599 0.49395,0.86705 0.61319,1.35559 0.10326,0.42307 0.2671,0.84132 0.58808,1.15461 0.49084,0.47908 1.27501,0.78578 1.42945,1.49358 0.12932,0.59267 -0.0667,1.20539 0.12788,1.79766 0.17555,0.53429 0.38248,1.06751 0.38033,1.64389 -0.006,1.51149 -0.13877,3.03568 -0.52775,4.49532 -0.16644,0.62456 -0.30587,1.29026 -0.75201,1.79088 -0.38337,0.43019 -0.84221,0.82718 -1.00124,1.40908 -0.14163,0.51825 -0.23564,1.07188 -0.6126,1.49466 -1.13178,1.26934 -2.69647,2.00882 -4.18883,2.75681 -0.96581,0.48408 -1.86305,1.08824 -2.73616,1.7225 -1.14444,0.83137 -2.29679,1.7521 -3.68518,2.11049 -1.15329,0.2977 -2.33251,-0.31289 -3.48279,0.0237 -1.3171,0.38536 -2.58198,0.93876 -3.79184,1.58064 -1.04168,0.55265 -2.09394,1.12958 -2.9574,1.94374 -0.30059,0.28343 -0.51926,0.64826 -0.58116,1.07128 -0.10121,0.69171 0.20949,1.35597 0.22664,2.03873 0.0177,0.70409 -0.1509,1.39016 -0.21824,2.0893 -0.10329,1.07245 -0.38591,2.13571 -0.21397,3.2358 0.0532,0.34058 0.3366,0.53743 0.55486,0.7825 0.35854,0.40258 0.45119,0.96279 0.50621,1.47813 0.0862,0.80771 0.33258,1.58627 0.64384,2.33294 0.31355,0.75217 0.51917,1.57436 0.40514,2.39134 -0.16711,1.19732 -0.39925,2.45624 -0.008,3.63427 0.34978,1.05365 1.09793,1.92138 1.90941,2.65452 0.31055,0.28057 0.57423,0.62556 0.6632,1.04345 0.0957,0.44966 0.44053,0.7835 0.83012,1.00298 0.41855,0.2358 0.85229,0.47916 1.12056,0.903 0.18175,0.28715 0.40429,0.57591 0.76658,0.65402 0.76046,0.16396 1.58677,-0.23087 2.30499,0.12333 0.35473,0.17494 0.59095,0.50713 0.84909,0.79446 0.60279,0.67096 1.28314,1.3307 1.60293,2.18425 0.32169,0.85861 0.0503,1.82575 0.45769,2.67009 0.36877,0.76433 1.2067,1.09136 1.94431,1.41024 0.42541,0.18391 0.94882,0.24284 1.23431,0.65174 0.40665,0.58243 0.42385,1.32515 0.47329,2.00832 0.0485,0.67079 -0.0872,1.41783 0.26419,2.00529 0.24287,0.40608 0.69974,0.62778 1.12945,0.75417 0.33533,0.0986 0.26455,0.47558 0.26729,0.74337 0.009,0.86061 0.0434,1.71845 0.10645,2.5845 0.0218,0.29977 0.2562,0.49552 0.55056,0.25768 0.24717,-0.19971 0.45905,-0.43852 0.66876,-0.67607"
       id="path55"
       inkscape:path-effect="#path-effect57"
       inkscape:original-d="m 197.09733,206.62756 c 0.28306,-0.18608 0.99599,-0.7015 1.45926,-0.92081 0.94985,-0.44967 2.28324,-0.40227 3.28878,-0.76408 0.48984,-0.17626 0.90367,-0.48326 1.39393,-0.66611 1.71003,-0.63778 3.60396,-0.79733 5.29253,-1.4302 2.44921,-0.91795 4.89823,-2.00717 7.16563,-3.29139 0.70603,-0.39989 1.55978,-0.54694 2.28691,-0.90123 0.7138,-0.34779 1.45518,-0.92811 2.09087,-1.39101 0.91742,-0.66806 1.95041,-1.32343 2.78785,-2.07672 0.3008,-0.27057 0.46373,-0.63521 0.78408,-0.90121 0.27975,-0.23228 0.82233,-0.52621 1.089,-0.86204 0.62072,-0.78171 1.21294,-1.86832 2.00375,-2.46854 0.50963,-0.38679 1.10216,-0.64128 1.61173,-1.01877 0.3435,-0.25446 0.5146,-0.62501 0.87119,-0.88163 1.52323,-1.09616 4.63703,-2.46489 5.57569,-4.15343 0.42149,-0.75821 0.78189,-1.42227 1.02366,-2.29222 0.14632,-0.5265 0.0229,-1.08645 0.26136,-1.58693 0.42953,-0.90156 0.57152,-1.87544 0.98011,-2.78201 0.32345,-0.71769 0.73862,-1.30232 1.00187,-2.05713 0.23144,-0.66359 0.35668,-1.39989 0.60985,-2.03753 0.83971,-2.11493 1.97748,-3.98138 1.87308,-6.32812 -0.0512,-1.15126 -0.78408,-2.18408 -0.78408,-3.60487 0,-0.81085 -0.1769,-3.81799 -0.15246,-3.83997 0.16457,-0.14805 0.32315,-0.22873 0.4356,-0.43101 0.0177,-0.0317 0.39176,-5.79373 0.37025,-6.1322 -0.0183,-0.28808 -0.21884,-2.10395 -0.58805,-2.03753 -0.31672,0.057 -0.44093,0.65735 -0.41383,0.90122 0.38788,-0.83691 0.18453,-1.67064 0.30492,-2.51898 0.12674,-0.89303 0.48289,-1.76961 0.43562,-2.68406 -0.0953,-1.84266 -1.24345,-2.97556 -1.98199,-4.52568 -0.41972,-0.88097 -0.65018,-1.874 -0.84942,-2.8212 -0.21257,-1.01061 -0.35313,-2.08431 -0.69696,-3.0563 -0.17209,-0.4865 -0.57501,-0.96713 -0.69696,-1.44978 -0.15254,-0.60369 -0.23524,-1.32384 -0.52272,-1.8808 -0.37228,-0.72129 -1.60981,-1.77861 -2.19979,-2.44896 -0.36702,-0.41702 -0.41687,-1.09274 -0.78408,-1.52815 -1.39053,-1.64879 -3.33085,-2.87941 -4.44311,-4.78038 -0.31543,-0.53908 -0.79316,-1.23919 -1.00188,-1.80243 -0.23261,-0.62769 0.12994,-1.46824 -0.0218,-2.13549 -0.41066,-1.80591 -1.96618,-2.9883 -3.68083,-3.48732 -0.65785,-0.19145 -1.33237,-0.21156 -1.98198,-0.4506 -0.60912,-0.22415 -1.09583,-0.63674 -1.74239,-0.82286 -0.47456,-0.1366 -1.17324,-0.0701 -1.61173,-0.33306 -0.91187,-0.54682 -1.63592,-1.43403 -2.178,-2.31181 -0.14511,-0.23498 -0.0532,-0.51093 -0.26135,-0.72489 -0.48843,-0.50209 -1.52619,-0.60081 -2.13444,-0.97959 -0.17924,-0.11162 -0.67328,-0.3855 -0.84942,-0.60734 -0.0435,-0.0547 -0.1455,-0.34019 -0.26137,-0.29387 -1.29041,0.51588 -1.07539,1.8208 -0.43559,2.68405 -0.51546,-0.33306 -1.03327,-0.6625 -1.54638,-0.99917 -0.87412,-0.57353 -1.90388,-1.01846 -2.6136,-1.76325 -0.43251,-0.45387 -0.93986,-1.24406 -1.43748,-1.56734 -1.62844,-1.05791 -4.72961,-2.18535 -6.44688,-3.01711 -0.57187,-0.27698 -1.03803,-0.89622 -1.56817,-1.25387 -0.5198,-0.35067 -1.23312,-0.4423 -1.78596,-0.76407 -1.66648,-0.96997 -3.27355,-1.79113 -5.11831,-2.42937 -0.95968,-0.33203 -2.09629,-0.2931 -3.09275,-0.52898 -2.15859,-0.51096 -4.24562,-1.16177 -6.42511,-1.626108 -1.47972,-0.315252 -3.11838,-0.0078 -4.61736,-0.17632 -0.8119,-0.0913 -1.59001,-0.56601 -2.3958,-0.646525 -1.55562,-0.155439 -3.25555,0.355273 -4.81339,0.431012 -1.74274,0.08473 -3.60213,-0.533705 -5.35788,-0.646526 -0.87202,-0.05603 -2.10013,-0.104411 -2.91852,0.254693 -0.45194,0.198304 -0.77211,0.423883 -1.26324,0.509386 -1.55273,0.270324 -3.01222,0.25786 -4.55203,0.431013 -0.33223,0.03736 -0.63709,0.494035 -0.95832,0.607345 -1.14139,0.40263 -2.33095,0.66626 -3.50658,0.95999 -0.50365,0.12584 -1.82031,-0.0867 -2.22156,0.27428 -0.15011,0.13504 0.0174,0.6796 -0.17424,0.90122 -0.24237,0.28031 -0.79387,0.18953 -1.00188,0.4702 -1.23091,1.66083 -1.02552,1.09113 -0.13068,2.80161 0.22986,0.43937 0.2913,1.07907 0.52272,1.46938 0.42096,0.71 1.36992,1.00182 1.72062,1.82202 0.12761,0.29844 0.0212,0.99071 0.0436,1.33224 0.0409,0.62545 0.45183,1.23654 0.47916,1.90039 0.0647,1.56978 -0.30903,4.50353 -0.8712,5.93628 -0.26426,0.67349 -0.99846,1.07845 -1.28502,1.70447 -0.25743,0.56239 -0.21358,1.21093 -0.63162,1.70448 -1.39148,1.64278 -3.51827,2.3713 -5.33611,3.44813 -1.73467,1.02757 -3.20821,2.52398 -5.16186,3.19344 -1.1291,0.38692 -2.2176,-0.13766 -3.28878,0 -1.39395,0.17915 -7.3421,2.85084 -7.68834,4.40813 -0.16668,0.74966 0.006,1.32013 0.15245,2.07672 0.11519,0.59579 -0.14259,1.47013 -0.17423,2.09631 -0.0609,1.20549 -0.64324,2.62587 -0.10891,3.80078 0.0953,0.20954 0.38812,0.36023 0.52272,0.54857 0.35824,0.50126 0.4048,1.45999 0.52272,2.03753 0.34395,1.68446 1.19404,2.4497 0.91477,4.27099 -0.37292,2.43196 -0.33806,3.69842 1.37214,5.54444 0.31103,0.33574 0.82512,0.72036 1.04544,1.11673 0.15904,0.28612 0.18287,0.63987 0.37026,0.92081 0.3608,0.54093 1.10482,0.69575 1.5246,1.1363 0.21674,0.22748 0.44696,0.7496 0.74052,0.88163 0.87438,0.39325 2.17712,-0.31807 2.89674,0.45061 0.67944,0.72577 1.64095,1.72666 2.0691,2.62529 0.27523,0.57767 0.19383,1.28282 0.26136,1.90039 0.18586,1.69961 1.49722,2.03193 2.89674,2.54691 1.42284,0.52357 0.74644,3.2847 1.26324,4.40813 0.21574,0.46897 1.3379,0.72893 1.37215,0.96 0.10082,0.68019 -0.17506,3.05555 0.3267,3.50691 0.19778,0.17793 0.96924,-0.74616 1.02366,-0.80326" />
    <path
       style="fill:none;stroke:#000000;stroke-width:0.264583px;stroke-linecap:butt;stroke-linejoin:miter;stroke-opacity:1"
       d="m 197.09733,206.62756 c -0.81259,-0.26906 -1.64266,-0.4902 -2.43832,-0.80595 -0.13915,-0.0552 -0.17546,-0.21667 -0.16268,-0.35488 0.0188,-0.20306 0.14335,-0.3961 0.11001,-0.60001 -0.0199,-0.12152 -0.14304,-0.18044 -0.23538,-0.24239 -0.21087,-0.14147 -0.41879,-0.28783 -0.63707,-0.41749 -0.48766,-0.28968 -1.06172,-0.2826 -1.59586,-0.45661 -0.10326,-0.0336 -0.14471,-0.13969 -0.16179,-0.23747 -0.0224,-0.12845 -0.11457,-0.2294 -0.23945,-0.27882 -0.41445,-0.164 -0.91264,-0.0977 -1.27777,-0.37586 -0.16876,-0.12858 -0.30889,-0.28968 -0.46598,-0.43222 -0.74052,-0.67193 -1.53434,-1.27646 -2.30469,-1.91615 -0.33702,-0.27986 -0.79397,-0.37493 -1.10066,-0.70072 -0.58351,-0.61984 -0.84678,-1.45243 -1.3108,-2.15205 -0.14588,-0.21995 -0.29051,-0.45561 -0.52598,-0.59357 -0.30469,-0.17851 -0.64998,-0.28082 -0.92998,-0.50602 -0.57499,-0.46245 -1.0318,-1.0614 -1.66254,-1.45873 -0.99442,-0.62643 -2.1103,-1.02589 -3.12932,-1.60548 -0.75202,-0.42773 -1.21884,-1.23145 -2.00296,-1.60733 -0.56452,-0.27061 -1.18992,-0.36172 -1.78781,-0.53042 -0.95644,-0.26986 -1.95776,-0.30762 -2.9453,-0.32522 -1.09429,-0.0195 -2.19292,-0.005 -3.28024,-0.15648 -1.91256,-0.26632 -3.76855,-0.87722 -5.70292,-0.99827 -2.09595,-0.13116 -4.20106,0.21815 -6.2908,-0.0307 -1.08045,-0.12865 -2.05217,-0.66082 -3.10277,-0.91007 -0.68651,-0.16287 -1.45587,-0.0624 -2.07781,-0.39514 -0.2757,-0.1475 -0.53632,-0.32243 -0.79847,-0.49274 -1.00823,-0.65502 -2.00742,-1.32402 -2.99977,-2.00301 -0.28751,-0.19672 -0.54168,-0.43628 -0.79997,-0.6687 -0.75742,-0.68156 -1.46506,-1.44214 -1.94419,-2.35041 -0.17773,-0.33692 -0.24899,-0.71709 -0.31082,-1.08881 -0.17869,-1.07434 -0.26552,-2.16237 -0.30722,-3.24967 -0.0225,-0.58646 -0.0617,-1.17496 -0.0218,-1.76093 0.0443,-0.64985 0.3813,-1.26084 0.3442,-1.91326 -0.0244,-0.42878 -0.12398,-0.8488 -0.19081,-1.27207 -0.0428,-0.27093 -0.10101,-0.54191 -0.10323,-0.81734 -4.7e-4,-0.0584 0.0199,-0.10749 0.0186,-0.0193 -0.002,0.11972 -0.0942,0.34529 0.0336,0.36776 0.16172,0.0284 0.2948,-0.10262 0.40152,-0.20599 0.0671,-0.065 0.13245,-0.13276 0.20992,-0.18561"
       id="path59"
       inkscape:path-effect="#path-effect61"
       inkscape:original-d="m 197.09733,206.62756 c -0.7986,-0.26285 -1.60248,-0.51019 -2.3958,-0.78856 -0.48475,-0.1701 0.0485,-0.84313 -0.13068,-1.05796 -0.0922,-0.11054 -0.61175,-0.41285 -0.74052,-0.50939 -0.50172,-0.3761 -1.21346,-0.2458 -1.74241,-0.54856 -0.15549,-0.089 -0.053,-0.36145 -0.30491,-0.4702 -0.49043,-0.21174 -1.06584,-0.1083 -1.45926,-0.50938 -0.81278,-0.8286 -1.76742,-1.39976 -2.59182,-2.19426 -0.30133,-0.29041 -0.79162,-0.37719 -1.11079,-0.70531 -0.72052,-0.74073 -0.99367,-1.79672 -1.61172,-2.5665 -0.24407,-0.304 -0.75271,-0.39642 -1.06722,-0.62694 -0.58164,-0.42631 -1.06232,-1.08146 -1.65528,-1.46938 -0.99059,-0.64805 -2.13646,-1.10532 -3.17988,-1.64571 -0.8417,-0.43591 -1.35455,-1.36065 -2.24334,-1.72406 -0.52836,-0.21604 -1.12741,-0.31676 -1.67707,-0.4702 -1.5737,-0.4393 -3.63136,-0.25025 -5.29254,-0.37224 -2.16098,-0.1587 -4.225,-0.90811 -6.35976,-1.07754 -2.1262,-0.16876 -4.31878,0.17345 -6.44688,-0.0392 -0.97475,-0.0974 -1.87433,-0.55241 -2.80963,-0.82285 -0.81172,-0.23469 -1.62466,-0.30657 -2.43936,-0.48979 -0.1293,-0.0291 -3.71608,-2.39581 -4.05108,-2.68405 -0.98241,-0.84529 -1.93333,-1.72011 -2.52648,-2.89957 -0.46953,-0.93364 -0.65204,-4.79759 -0.60984,-5.93628 0.025,-0.67423 0.30981,-1.27867 0.34847,-1.93958 0.0253,-0.43282 -0.36476,-1.99364 -0.28314,-2.21386 0.0483,-0.1302 -0.0735,0.40851 0.0653,0.41143 0.23675,0.005 0.39224,-0.26542 0.58836,-0.39813" />
    <path
       style="fill:none;stroke:#000000;stroke-width:0.264583px;stroke-linecap:butt;stroke-linejoin:miter;stroke-opacity:1"
       d="m 228.09029,99.098199 c -0.6291,-0.348396 -0.96742,-1.032448 -1.60513,-1.384615 -1.09394,-0.604111 -2.33052,-0.852032 -3.47185,-1.350628 -1.2443,-0.543578 -2.39608,-1.2902 -3.66127,-1.780373 -0.87184,-0.337778 -1.84199,-0.308809 -2.69032,-0.740832 -0.92906,-0.473137 -1.84943,-0.963894 -2.75004,-1.488905 -1.35278,-0.788599 -2.37075,-2.073557 -3.83542,-2.685814 -2.30493,-0.963499 -4.82061,-1.207839 -7.17056,-2.040619 -3.91282,-1.386632 -7.68499,-3.252258 -11.76037,-4.107297 -1.71349,-0.3595 -3.47265,-0.245615 -5.20802,-0.406064 -3.68686,-0.34088 -7.39328,-0.294413 -11.09387,-0.353625 -1.03865,-0.01662 -2.08454,-0.154495 -3.11788,0.05136 -1.4075,0.280387 -2.76083,0.835295 -4.21063,0.903549 -1.73369,0.08162 -3.48425,-0.186733 -5.20513,0.172079 -3.68607,0.768564 -6.97329,2.753201 -10.60756,3.683028 -1.68453,0.430986 -3.42241,0.09752 -5.12314,-0.0152 -0.91713,-0.06079 -1.83581,0.03031 -2.73602,0.217213 -1.78398,0.370389 -3.57917,0.75384 -5.27636,1.412359 -0.96835,0.375725 -1.63079,1.258114 -2.56523,1.6855 -0.717,0.327934 -1.51933,0.42909 -2.19658,0.864879 -1.02399,0.658909 -1.93116,1.492163 -3.04054,2.025645 -0.53865,0.259027 -1.14745,0.428018 -1.58822,0.838116 -0.5522,0.513771 -0.75409,1.284842 -1.33478,1.788135 -1.46486,1.269605 -3.15345,2.29344 -4.4037,3.802488 -0.85945,1.03735 -1.48911,2.24016 -1.99835,3.48264 -0.5986,1.4605 -1.20912,2.96007 -2.29409,4.14328 -0.60876,0.66388 -1.39456,1.12709 -2.00694,1.79157 -1.30301,1.41386 -2.28874,3.09394 -3.70502,4.41179 -0.99106,0.92218 -2.05913,1.82613 -2.68369,3.05758 -0.74034,1.45973 -1.20087,3.03644 -1.89374,4.51932 -0.76329,1.6336 -1.68806,3.22401 -2.12124,4.97754 -0.28583,1.15706 -0.36521,2.35237 -0.44777,3.5375 -0.17955,2.57738 -0.18043,5.16236 -0.32049,7.7417 -0.0907,1.6698 -0.0384,3.3413 0.0372,5.01368 0.0727,1.60594 -0.45518,3.15642 -0.47873,4.76053 -0.0536,3.65082 0.55404,7.37981 2.18765,10.64994 0.70501,1.41127 1.73194,2.64709 2.30316,4.12973 0.30369,0.78825 0.64631,1.56336 1.10811,2.27576 0.50764,0.78312 1.07234,1.53906 1.41969,2.41368 0.24148,0.60805 0.77306,1.01458 1.25722,1.42128 1.99626,1.67691 4.40506,2.72757 6.68762,3.9439 0.70716,0.37683 1.47474,0.6741 2.09364,1.18368 0.45259,0.37265 0.79549,0.85032 1.25662,1.22185 1.07068,0.86263 2.06696,1.83108 2.89193,2.92916 1.04046,1.38491 1.41679,3.11957 1.66206,4.80097 0.26235,1.79847 0.12934,3.74777 0.98973,5.36514 0.0721,0.13561 0.18525,0.53278 0.39307,0.37748"
       id="path63"
       inkscape:path-effect="#path-effect65"
       inkscape:original-d="m 228.09029,99.098199 c -0.54849,-0.288845 -0.87548,-0.940234 -1.41571,-1.273458 -1.0012,-0.617566 -2.15203,-0.825997 -3.22343,-1.273458 -1.34335,-0.561036 -2.59979,-1.246552 -3.89862,-1.880801 -0.84278,-0.411546 -1.85698,-0.330555 -2.67895,-0.724892 -0.90454,-0.433949 -1.8008,-0.990063 -2.70072,-1.449785 -1.4112,-0.720907 -2.51789,-2.137457 -3.94219,-2.762424 -2.18972,-0.960829 -4.65524,-1.177539 -6.90425,-1.959168 -3.9958,-1.388708 -7.79338,-3.150201 -11.91368,-4.192617 -1.62029,-0.409927 -3.42334,-0.27237 -5.07474,-0.431017 -3.80366,-0.365403 -7.4746,-0.456459 -11.28204,-0.391832 -0.9036,0.01535 -1.8499,-0.139745 -2.74429,-0.03918 -1.25053,0.140605 -2.50022,0.662345 -3.74616,0.881624 -1.93537,0.340619 -3.95554,-0.146818 -5.90238,0.215508 -3.78094,0.703667 -7.16939,2.708801 -10.84645,3.722418 -2.44096,0.672872 -4.90409,-0.335463 -7.38343,0.117549 -1.93901,0.354285 -3.85804,0.938384 -5.74992,1.488966 -0.82642,0.240509 -1.71559,1.159423 -2.46114,1.606518 -0.65372,0.392026 -1.49323,0.439465 -2.15622,0.822849 -0.93296,0.539499 -1.81324,1.381847 -2.70073,1.880801 -0.65988,0.370994 -1.3841,0.61332 -2.02554,1.018768 -0.62022,0.392049 -0.80077,1.310709 -1.39392,1.822024 -2.23751,1.928839 -3.83119,2.579095 -5.46678,5.250568 -1.32174,2.15886 -1.61408,4.55926 -3.50658,6.44566 -0.47337,0.47184 -1.04787,0.82134 -1.5246,1.29305 -1.22469,1.21181 -2.15339,2.79433 -3.33234,4.05547 -0.93536,1.00057 -2.05816,1.79544 -2.87497,2.91917 -0.89143,1.22638 -1.48562,3.40823 -2.13444,4.79996 -0.81907,1.75693 -1.66781,3.4751 -2.30868,5.30934 -0.5528,1.58221 -0.66629,6.98783 -0.71874,8.87503 -0.0759,2.73124 -0.32265,4.69078 -0.0871,7.44484 0.12786,1.49515 -0.40994,3.05163 -0.45738,4.54526 -0.11759,3.70242 0.59182,7.48267 2.09088,10.85378 0.43389,0.97574 1.40692,2.30448 1.93842,3.311 0.39289,0.74402 0.63501,1.55752 1.00188,2.31182 0.45361,0.93265 1.13562,1.74919 1.6335,2.64488 0.3053,0.54923 0.38178,1.0424 0.87121,1.50856 2.78661,2.65411 6.14374,3.74306 9.34362,5.66199 0.4655,0.27916 0.78536,0.83521 1.21968,1.17549 1.11393,0.87273 1.90366,1.68947 2.8314,2.76244 1.98572,2.29654 1.87583,5.65385 2.39581,8.50279 0.0791,0.43323 0.55109,2.75224 0.91476,2.37058" />
    <path
       style="fill:none;stroke:#000000;stroke-width:0.264583px;stroke-linecap:butt;stroke-linejoin:miter;stroke-opacity:1"
       d="m 129.77531,188.33828 c -0.42135,-0.16395 -1.3241,-0.96284 -1.27007,-0.50134 0.0613,0.5237 0.237,1.02967 0.35643,1.54287 0.10619,0.45629 0.32488,0.90039 0.32628,1.36896 0.002,0.72056 -0.25576,1.47279 -7.6e-4,2.16549 0.30094,0.81749 1.07755,1.29426 1.60511,1.94985 0.65342,0.81199 1.07875,1.80175 1.88238,2.4919 0.47674,0.40942 0.90524,0.87286 1.24371,1.40735 0.37876,0.59811 0.65791,1.32223 1.26415,1.71496 0.39965,0.2589 0.89325,0.31471 1.27864,0.61121 0.77987,0.59999 1.43934,1.33529 2.10276,2.05651 0.83992,0.91309 1.48929,1.99582 2.47132,2.78272 1.46831,1.17656 3.32608,1.70694 5.16356,1.99687 0.69367,0.10945 1.40263,0.10048 2.08554,0.28659 0.61536,0.1677 1.23968,0.3214 1.88844,0.29947 1.21658,-0.0411 2.39932,-0.3945 3.6114,-0.4596 0.73567,-0.0395 1.47561,-0.0387 2.20038,-0.21703 1.47317,-0.36251 2.96146,-0.82899 4.50051,-0.72824 1.20985,0.0792 2.41633,0.21486 3.61621,0.39767 0.49536,0.0755 0.87187,0.44825 1.37554,0.52322 0.86754,0.12913 1.78812,0.0575 2.59658,0.47479 2.23704,1.1547 4.37484,2.50519 6.2825,4.13748 0.25979,0.22229 0.43496,0.52656 0.75126,0.6969 0.78083,0.42052 1.69329,0.6751 2.30099,1.35303 0.52224,0.58259 0.4393,1.47853 1.01428,2.03371 0.61113,0.59008 1.50543,0.82037 2.05898,1.46306 0.26467,0.30729 0.30935,0.74459 0.62153,1.02655 0.80186,0.72423 1.76569,1.24151 2.73142,1.70883 1.24743,0.60363 2.51183,1.204 3.85278,1.56259 2.07918,0.556 4.25009,0.50685 6.38332,0.54721 1.33832,0.0253 2.65725,0.28276 3.99674,0.31785 3.01257,0.0789 6.00489,-0.35117 9.00523,-0.54373 2.71451,-0.17422 5.48399,0.14737 8.14872,-0.4885 0.58691,-0.14005 1.20383,-0.24275 1.72584,-0.5543 0.63877,-0.38124 1.17232,-0.908 1.81945,-1.28197 1.79605,-1.03791 3.85791,-1.55975 5.54191,-2.81279 0.67053,-0.49893 1.02477,-1.29514 1.68962,-1.80584 0.71571,-0.54977 1.48629,-1.02669 2.27771,-1.45716 1.78956,-0.97339 3.78141,-1.50853 5.57123,-2.477 1.91138,-1.03424 3.36151,-2.70172 5.07268,-4.00836 0.78667,-0.6007 1.65569,-1.12526 2.61251,-1.40054 0.45297,-0.13032 0.92599,-0.0229 1.38794,-0.0191 0.29717,0.002 0.68191,0.16741 0.89354,-0.0466 0.25138,-0.25427 0.45346,-0.56048 0.68335,-0.83693 0.37058,-0.44564 0.69225,-0.96236 1.17881,-1.2825 0.31365,-0.20637 0.70699,-0.3702 0.83282,-0.76133 0.10123,-0.31467 0.26556,-0.61905 0.56311,-0.79392 0.33615,-0.19755 0.68451,-0.38078 0.93569,-0.69981 0.74997,-0.95256 1.25857,-2.07082 2.08618,-2.97195 0.55162,-0.60062 1.1051,-1.2149 1.82571,-1.63321 0.28722,-0.16673 0.72382,-0.27779 0.79691,-0.60726 0.18483,-0.83313 0.18182,-1.75949 0.66218,-2.47863 0.27183,-0.40695 0.84083,-0.42281 1.12607,-0.83655 0.19366,-0.28091 0.2263,-0.69141 0.51554,-0.884 0.26698,-0.17777 0.86149,-0.19057 0.81803,-0.50817 -0.0382,-0.27945 -0.55932,-0.66748 -0.26318,-0.8147 0.35799,-0.17797 0.60491,-0.50522 0.86158,-0.80051 0.77171,-0.88782 1.49447,-1.82668 2.08614,-2.84257 0.81241,-1.3949 1.05324,-3.05915 1.93791,-4.41061 0.4496,-0.68683 1.03142,-1.27367 1.44056,-1.99344 1.49953,-2.63805 2.96843,-5.33503 3.80557,-8.26829 0.33132,-1.16091 0.47459,-2.36309 0.56032,-3.56779 0.0986,-1.38583 0.44914,-2.81027 0.0486,-4.17876 -0.20046,-0.68488 -0.42338,-1.37121 -0.75805,-2.00023 -0.3791,-0.71253 -1.11062,-1.21713 -1.2925,-2.04046 -0.3748,-1.69668 -0.10228,-3.43773 0.0229,-5.14541 0.0587,-0.80087 0.0143,-1.60271 -0.0563,-2.40265 -0.10604,-1.20197 -0.30176,-2.41334 -0.18125,-3.61736 0.0288,-0.28755 0.0419,-0.68755 0.37232,-0.78623 0.51889,-0.15498 1.06765,0.002 1.57423,0.13101 0.34016,0.0868 0.67284,0.20112 1.01427,0.28284"
       id="path67"
       inkscape:path-effect="#path-effect69"
       inkscape:original-d="m 129.77531,188.33828 c -0.42108,-0.16952 -0.80982,-0.48739 -1.26325,-0.50855 -0.0994,-0.005 0.67068,2.66616 0.67518,2.86038 0.0143,0.61574 -0.19354,1.55913 -0.0218,2.15509 0.21403,0.7426 1.01109,1.29296 1.48104,1.84161 0.53226,0.6214 0.90905,1.34414 1.39392,1.99835 0.41986,0.56651 1.03993,0.95746 1.48104,1.50856 0.55472,0.69304 0.8414,1.49108 1.48104,2.1355 0.3696,0.37235 0.83982,0.36324 1.26324,0.62693 0.68203,0.42473 1.51403,1.40732 2.11267,1.99835 0.80629,0.79604 1.41472,1.87993 2.24334,2.62528 1.93039,1.73643 4.29528,2.28719 6.79536,2.46855 0.78985,0.0573 1.63401,0.4702 2.41758,0.4702 1.20452,0 2.38369,-0.27118 3.57192,-0.43101 0.71228,-0.0958 1.55658,-0.009 2.26513,-0.17633 1.33175,-0.31523 2.7047,-0.7669 4.07286,-0.82285 0.75696,-0.0309 4.13998,0.2653 4.6827,0.50939 0.34254,0.15406 0.54838,0.34159 0.93654,0.41142 0.79342,0.14275 1.81423,0.0446 2.54826,0.41143 2.30455,1.15167 4.17967,2.8848 6.40333,4.19261 0.22016,0.12949 0.37,0.48137 0.65339,0.64654 0.71196,0.41492 1.86226,0.76687 2.43937,1.43018 0.52335,0.60153 0.41853,1.43435 0.95832,1.97876 0.59037,0.59542 1.39538,0.88914 2.02554,1.43019 0.35287,0.30299 0.30785,0.70982 0.6534,1.05795 1.18841,1.19727 4.88965,2.80488 6.44689,3.27181 2.06454,0.61904 4.57855,0.54591 6.73002,0.60735 1.10778,0.0316 2.1769,0.24565 3.267,0.29387 3.08842,0.13663 6.07105,-0.23015 9.12582,-0.4898 3.23795,-0.27521 6.7837,0.18964 9.90991,-0.88162 0.66821,-0.22898 1.20903,-0.8115 1.78596,-1.19509 1.89782,-1.26183 4.41225,-1.73208 6.16374,-3.23262 0.47985,-0.4111 0.79413,-1.02777 1.26325,-1.44979 0.57817,-0.52011 1.45053,-1.02602 2.11266,-1.4302 1.59501,-0.97362 3.84678,-1.67828 5.57569,-2.50773 2.01985,-0.96901 3.65961,-2.64612 5.31432,-4.07506 0.71163,-0.61453 2.11577,-1.46331 3.07098,-1.60652 0.26478,-0.0397 1.89373,0.15211 2.04733,-0.0392 0.48913,-0.60921 1.07766,-1.40246 1.65527,-1.95916 0.25712,-0.24781 0.70158,-0.37578 0.89299,-0.6857 0.16218,-0.2626 0.188,-0.57624 0.41382,-0.80326 0.30033,-0.30194 0.76497,-0.40054 1.04543,-0.7249 0.76895,-0.88929 1.2429,-2.06428 2.02555,-2.91916 0.41538,-0.45372 0.93145,-1.06459 1.39392,-1.44978 0.44827,-0.37337 1.01728,-0.52345 1.4157,-0.97959 0.0696,-0.0797 0.26076,-1.82758 0.69695,-2.54692 0.13437,-0.22158 0.68235,-0.41056 0.84942,-0.52897 0.38097,-0.26999 0.43578,-0.76563 0.71875,-1.11672 0.053,-0.0657 0.88395,-0.4989 0.8712,-0.54857 -0.0629,-0.24524 -0.27796,-0.43726 -0.3267,-0.68571 -0.0282,-0.14374 0.22258,-0.19085 0.3267,-0.29387 0.93952,-0.9296 1.74846,-2.05317 2.48292,-3.15427 0.90313,-1.35396 1.23071,-3.08636 2.00376,-4.50608 0.38733,-0.71132 1.03482,-1.27449 1.43748,-1.97876 1.96579,-3.43828 4.33236,-7.72841 4.48669,-11.755 0.0527,-1.37416 0.44363,-2.87213 0.13068,-4.2514 -0.14888,-0.65617 -0.48384,-1.4417 -0.74052,-2.07671 -0.30914,-0.76475 -1.14615,-1.28923 -1.35037,-2.1159 -0.52389,-2.12075 0.12675,-4.58739 0.0218,-6.75913 -0.034,-0.70358 -0.53531,-4.55764 -0.10889,-5.13302 0.42696,-0.57612 2.26833,0.14013 2.80961,0.25469" />
    <path
       style="fill:none;stroke:#000000;stroke-width:0.264583px;stroke-linecap:butt;stroke-linejoin:miter;stroke-opacity:1"
       d="m 267.01112,149.7044 c -0.42775,-1.16568 -0.89181,-2.31868 -1.28447,-3.49665 -0.29436,-0.88308 -0.3946,-1.81838 -0.68902,-2.70052 -0.31162,-0.93368 -0.96579,-1.72676 -1.17232,-2.69855 -0.0877,-0.41257 -0.1072,-0.83634 -0.12221,-1.25656 -0.053,-1.48324 0.12526,-2.97617 -0.10375,-4.45185 -0.10373,-0.6684 -0.31815,-1.31457 -0.59376,-1.93111 -0.4142,-0.92657 -0.91978,-1.83403 -1.63681,-2.55699 -0.26112,-0.26328 -0.59144,-0.46893 -0.76593,-0.81058 -0.30776,-0.60257 -0.46843,-1.28528 -0.89867,-1.82104 -0.33603,-0.41845 -0.75836,-0.76126 -1.05675,-1.21281 -0.79669,-1.20564 -1.14431,-2.65319 -1.99086,-3.82865 -1.08482,-1.50631 -2.44952,-2.77858 -3.80878,-4.0316 -0.89333,-0.82351 -1.82965,-1.60733 -2.64138,-2.51224 -0.52773,-0.58831 -0.65315,-1.42316 -1.16863,-2.01782 -0.19094,-0.22027 -0.42647,-0.39507 -0.65169,-0.57803 -0.90092,-0.73188 -1.86498,-1.39392 -2.68397,-2.21975 -0.65674,-0.66222 -1.16816,-1.47105 -1.92152,-2.03369 -0.59601,-0.44513 -1.32443,-0.64799 -2.03256,-0.83641 -0.6889,-0.1833 -1.38468,-0.39687 -1.97947,-0.80544 -0.60207,-0.41357 -1.01616,-1.02741 -1.4534,-1.59827 -0.25303,-0.33035 -0.54641,-0.62638 -0.85653,-0.9036 -0.73643,-0.6583 -1.57724,-1.18514 -2.34805,-1.79998 -0.57738,-0.46055 -0.92849,-1.14889 -1.54717,-1.56639 -0.90904,-0.61344 -1.90037,-1.09121 -2.90266,-1.52663 -0.55277,-0.24014 -1.18815,-0.17219 -1.73387,-0.43954 -0.11143,-0.0546 -0.22354,-0.169608 -0.17615,-0.308082 0.05,-0.145972 0.23882,-0.233813 0.23382,-0.389767 -0.004,-0.12656 -0.15894,-0.161904 -0.25782,-0.18538 -0.22168,-0.05263 -0.44983,-0.07088 -0.67645,-0.08827"
       id="path71"
       inkscape:path-effect="#path-effect73"
       inkscape:original-d="m 267.01112,149.7044 c -0.40656,-1.10308 -0.81963,-2.20376 -1.21962,-3.30922 -0.32092,-0.88684 -0.4422,-1.799 -0.69697,-2.70365 -0.32028,-1.13723 -1.14784,-2.00981 -1.28502,-3.21303 -0.26783,-2.34907 0.32939,-4.50324 -0.54449,-6.77873 -0.41281,-1.0749 -1.02908,-2.1852 -1.80775,-3.03671 -0.25251,-0.27612 -0.60843,-0.47288 -0.78408,-0.80325 -0.3292,-0.61916 -0.47581,-1.30108 -0.91476,-1.86122 -0.30248,-0.38598 -0.69908,-0.69525 -0.98011,-1.09713 -0.88016,-1.25864 -1.22446,-2.78653 -2.13443,-4.03589 -1.72574,-2.36934 -4.28995,-4.30104 -6.33798,-6.40647 -0.65199,-0.67025 -0.73679,-1.69397 -1.43749,-2.29222 -0.9867,-0.84243 -2.02423,-1.55317 -2.98387,-2.44896 -0.76527,-0.71436 -1.4337,-1.81804 -2.33046,-2.351 -1.27879,-0.76002 -2.78453,-0.62631 -4.00751,-1.6653 -0.65425,-0.55581 -1.11357,-1.41747 -1.74241,-2.01794 -0.80682,-0.77042 -1.67902,-1.37283 -2.57004,-2.01794 -0.60549,-0.43838 -0.95893,-1.16418 -1.56816,-1.58693 -0.88521,-0.61426 -1.95754,-1.07624 -2.91852,-1.54774 -0.49276,-0.24178 -1.15886,-0.19062 -1.67706,-0.41142 -0.99815,-0.425302 1.03911,-0.879004 -0.9801,-1.021453" />
  </g>
</svg>
