<?xml version="1.0" encoding="UTF-8" standalone="no"?>
<!-- Created with Inkscape (http://www.inkscape.org/) -->

<svg
   width="353.56799mm"
   height="264.16mm"
   viewBox="0 0 353.56799 264.16"
   version="1.1"
   id="svg5"
   inkscape:version="1.1.2 (08b2f3d93c, 2022-04-05)"
   sodipodi:docname="Epitélio.svg"
   xmlns:inkscape="http://www.inkscape.org/namespaces/inkscape"
   xmlns:sodipodi="http://sodipodi.sourceforge.net/DTD/sodipodi-0.dtd"
   xmlns="http://www.w3.org/2000/svg"
   xmlns:svg="http://www.w3.org/2000/svg">
  <sodipodi:namedview
     id="namedview7"
     pagecolor="#ffffff"
     bordercolor="#666666"
     borderopacity="1.0"
     inkscape:pageshadow="2"
     inkscape:pageopacity="0.0"
     inkscape:pagecheckerboard="0"
     inkscape:document-units="mm"
     showgrid="false"
     inkscape:zoom="0.35455254"
     inkscape:cx="665.62773"
     inkscape:cy="585.24472"
     inkscape:window-width="1366"
     inkscape:window-height="704"
     inkscape:window-x="0"
     inkscape:window-y="27"
     inkscape:window-maximized="1"
     inkscape:current-layer="layer2" />
  <defs
     id="defs2">
    <inkscape:path-effect
       effect="simplify"
       id="path-effect176"
       is_visible="true"
       lpeversion="1"
       steps="1"
       threshold="0.000408163"
       smooth_angles="360"
       helper_size="0"
       simplify_individual_paths="false"
       simplify_just_coalesce="false" />
    <inkscape:path-effect
       effect="simplify"
       id="path-effect172"
       is_visible="true"
       lpeversion="1"
       steps="1"
       threshold="0.000408163"
       smooth_angles="360"
       helper_size="0"
       simplify_individual_paths="false"
       simplify_just_coalesce="false" />
    <inkscape:path-effect
       effect="simplify"
       id="path-effect168"
       is_visible="true"
       lpeversion="1"
       steps="1"
       threshold="0.000408163"
       smooth_angles="360"
       helper_size="0"
       simplify_individual_paths="false"
       simplify_just_coalesce="false" />
    <inkscape:path-effect
       effect="simplify"
       id="path-effect164"
       is_visible="true"
       lpeversion="1"
       steps="1"
       threshold="0.000408163"
       smooth_angles="360"
       helper_size="0"
       simplify_individual_paths="false"
       simplify_just_coalesce="false" />
    <inkscape:path-effect
       effect="simplify"
       id="path-effect160"
       is_visible="true"
       lpeversion="1"
       steps="1"
       threshold="0.000408163"
       smooth_angles="360"
       helper_size="0"
       simplify_individual_paths="false"
       simplify_just_coalesce="false" />
    <inkscape:path-effect
       effect="simplify"
       id="path-effect156"
       is_visible="true"
       lpeversion="1"
       steps="1"
       threshold="0.000408163"
       smooth_angles="360"
       helper_size="0"
       simplify_individual_paths="false"
       simplify_just_coalesce="false" />
  </defs>
  <g
     inkscape:groupmode="layer"
     id="layer2"
     inkscape:label="Epitélio">
    <path
       style="fill:none;stroke:#000000;stroke-width:0.264583px;stroke-linecap:butt;stroke-linejoin:miter;stroke-opacity:1"
       d="m 179.8335,-1.7858159 c -1.46024,0.8305897 -2.456,2.2333063 -3.31894,3.6323713 -0.72179,1.1702236 -1.55705,2.2663811 -2.50196,3.2679286 -1.97517,2.0935556 -4.22803,3.9978569 -5.63257,6.560942 -1.35018,2.463881 -1.94332,5.236214 -2.89442,7.858853 -1.17188,3.231426 -2.59597,6.364882 -4.06415,9.471097 -1.98928,4.20869 -4.77743,7.95877 -7.45731,11.741753 -2.38097,3.361032 -4.69298,6.812586 -6.28354,10.636097 -1.26007,3.02906 -2.08788,6.248702 -3.64932,9.140598 -0.64277,1.190455 -1.36245,2.346808 -1.76365,3.658613 -0.97408,3.184981 -2.18546,6.322711 -3.97049,9.153824 -1.72513,2.736104 -3.99309,5.071752 -5.93619,7.650177 -0.95745,1.270502 -1.10691,2.911072 -1.87237,4.289443 -1.33209,2.398719 -2.67668,4.789203 -4.01218,7.187221 -1.53115,2.749318 -3.98358,4.830411 -5.55885,7.555498 -1.05401,1.82335 -2.00759,3.70938 -2.77787,5.66628 -0.47007,1.19422 -0.04,2.46712 0.19984,3.65695 0.22711,1.12653 -0.11005,2.25876 -0.45179,3.32001 -0.455,1.41296 -0.8925,2.84038 -1.52326,4.18657 -1.03354,2.2058 -2.40537,4.22746 -3.51071,6.39698 -1.78372,3.50104 -3.3721,7.12297 -4.45259,10.90346 -1.23475,4.32024 -1.37743,8.87098 -2.62645,13.18519 -0.90386,3.12201 -2.64527,5.93133 -3.63537,9.01509 -0.36581,1.13935 -0.34256,2.35656 -0.77793,3.48921 -1.03502,2.69271 -1.608218,5.52788 -2.317916,8.31683 -0.967625,3.80255 -2.560104,7.45227 -3.013534,11.38146 -0.39024,3.38162 -0.362992,6.85191 -1.430884,10.12251 -0.696514,2.13319 -1.615714,4.20753 -1.972883,6.43975 -0.162249,1.01402 -0.473246,2.00698 -1.022344,2.88803 -1.052724,1.68913 -2.400994,3.17884 -3.319838,4.95841 -0.796985,1.54356 -1.547379,3.13245 -2.700024,4.46056 -2.799767,3.22596 -6.470873,5.66588 -8.831889,9.26757 -1.0604,1.61762 -4.144369,3.92897 -2.636346,5.13981 0.27574,0.2214 0.797532,-0.0615 1.15871,-0.12062 0.111862,-0.0183 0.225374,-0.0341 0.33902,-0.0248"
       id="path154"
       inkscape:path-effect="#path-effect156"
       inkscape:original-d="m 179.8335,-1.7858159 c -2.3264,1.36235033 -3.12287,3.6681469 -4.70299,5.6273055 -2.05223,2.5445304 -4.8899,4.5662939 -6.56644,7.5030744 -1.34018,2.347594 -1.99703,4.806677 -2.79517,7.343434 -0.95959,3.04989 -3.62337,8.980605 -5.05793,11.733529 -3.24225,6.22188 -8.03941,11.394461 -11.40253,17.520483 -2.15279,3.921379 -3.16006,8.031707 -5.01356,12.052808 -0.58234,1.263369 -1.50732,2.448642 -1.90782,3.791437 -0.71497,2.397106 -1.667,5.133268 -2.83954,7.383348 -1.79749,3.44936 -4.51871,6.806951 -7.05448,9.658215 -0.97717,1.098741 -1.12373,2.838191 -1.81908,4.110731 -1.31324,2.403329 -2.73648,4.70649 -3.99311,7.143879 -1.41631,2.7471 -3.65543,4.615 -5.27977,7.143883 -1.25201,1.949219 -2.19876,4.215919 -3.19448,6.305789 -0.77332,1.62309 0.39538,3.4608 0.17748,5.02865 -0.20047,1.44242 -0.91082,3.39843 -1.41977,4.8291 -0.88131,2.47734 -2.32218,4.49189 -3.54943,6.78469 -1.8618,3.47832 -3.53389,7.3292 -4.74736,11.09497 -1.33629,4.14694 -1.58233,8.61675 -2.57333,12.85102 -0.8142,3.47882 -2.47902,6.7165 -3.86,9.97748 -0.44656,1.05449 -0.32691,2.33671 -0.75426,3.43226 -1.0273,2.6336 -1.636116,5.14017 -2.26275,7.90218 -0.878007,3.86998 -2.568337,7.47949 -3.105748,11.45416 -0.417055,3.08453 -0.365927,6.12568 -1.064829,9.1793 -0.539017,2.35504 -1.700609,4.6553 -2.218396,6.98424 -0.267057,1.2012 -0.322887,2.31312 -0.931709,3.43224 -0.846365,1.55577 -2.137987,2.93328 -3.061388,4.46994 -0.943713,1.57047 -1.647206,3.48907 -2.795178,4.90891 -2.713241,3.35582 -6.677797,6.02189 -9.184134,9.6582 -1.123656,1.63026 -1.668478,3.67213 -2.706428,5.22823 -0.271219,0.40661 0.977619,-0.12672 1.464132,-0.0798" />
    <path
       style="fill:none;stroke:#000000;stroke-width:0.264583px;stroke-linecap:butt;stroke-linejoin:miter;stroke-opacity:1"
       d="m 75.6135,222.66785 c 0.98115,-1.82132 2.282323,-3.50325 2.943334,-5.46418 0.04222,-0.12526 -0.109299,0.0377 -0.139063,0.0697 -0.357847,0.38401 -0.692337,0.78893 -1.028303,1.19196 -0.440877,0.52889 -0.869908,1.08057 -1.152798,1.71435 -0.158241,0.35452 -0.19261,0.74518 -0.225367,1.12756 -0.03515,0.4103 -0.05017,0.85121 -0.281881,1.20481 -0.133379,0.20354 -0.308277,0.37588 -0.475873,0.5508 -0.437713,0.45683 -0.900203,0.9063 -1.457,1.21713 -0.309269,0.17265 -0.65674,0.2615 -1.006114,0.30576 -0.37023,0.0469 -0.740536,0.11707 -1.085992,0.26422 -0.515958,0.21977 -0.972387,0.55241 -1.42196,0.8819 -1.029402,0.75444 -2.029979,1.55083 -2.970878,2.41329 -0.506372,0.46416 -0.995211,0.95042 -1.418653,1.49407 -1.114043,1.43029 -2.058854,2.99619 -2.76155,4.66911 -0.43757,1.04173 -0.806143,2.11467 -1.069542,3.21325 -0.243395,1.01515 -0.360319,2.06405 -0.720537,3.04857 -0.162312,0.44362 -0.392603,0.85824 -0.623592,1.26874 -0.831793,1.47823 -1.866659,2.83203 -2.689583,4.31491 -0.753021,1.35692 -1.295538,2.81738 -1.792203,4.28367 -0.532547,1.57222 -1.066602,3.144 -1.552786,4.73137 -0.209504,0.68402 -0.205135,1.41008 -0.171806,2.11765 0.04995,1.06044 0.22335,2.11723 0.175528,3.1803 -0.02437,0.54163 -0.09753,1.10834 -0.394518,1.57425 -0.05753,0.0902 -0.123376,0.17527 -0.197245,0.25276"
       id="path158"
       inkscape:path-effect="#path-effect160"
       inkscape:original-d="m 75.6135,222.66785 c 0.976095,-1.81082 2.004716,-3.59428 2.928286,-5.43244 0.191067,-0.38027 -0.611311,0.59404 -0.887367,0.91794 -0.544322,0.63864 -1.254906,1.45887 -1.508506,2.27486 -0.22774,0.73278 -0.02447,1.66447 -0.532413,2.23964 -2.476791,2.80457 -2.639687,1.31762 -4.525518,2.50965 -1.195115,0.75544 -4.066852,3.03822 -5.013555,4.23046 -1.959777,2.46805 -3.146147,4.87818 -3.94874,7.86225 -0.31456,1.16955 -0.445156,2.66901 -0.976093,3.75155 -0.840785,1.71429 -2.081723,3.33933 -3.017006,4.94881 -1.498775,2.57916 -2.420165,6.29933 -3.416324,9.0995 -0.740378,2.08119 0.73044,5.80521 -0.621146,7.2237" />
    <path
       style="fill:none;stroke:#000000;stroke-width:0.264583px;stroke-linecap:butt;stroke-linejoin:miter;stroke-opacity:1"
       d="m 93.005687,265.88566 c 0.598292,-0.59502 0.53123,-1.51024 0.524708,-2.28491 -0.0071,-0.84145 -9.6e-5,-1.71846 0.445524,-2.48017 1.172362,-2.00394 3.030588,-3.48038 4.881345,-4.82257 1.006481,-0.72991 1.865476,-1.7696 3.049146,-2.14843 0.80967,-0.25913 1.68022,-0.0924 2.50873,-0.0241 0.96861,0.0798 1.94013,0.2189 2.91796,0.0447 2.58895,-0.46109 5.1021,-1.29034 7.69701,-1.71911 0.70154,-0.11592 1.43931,0.0976 2.11445,-0.25174 1.07505,-0.55631 2.01964,-1.33843 3.17406,-1.75909 1.56956,-0.57193 3.37076,-0.93113 4.48669,-2.27665 0.93117,-1.12275 1.17682,-2.615 1.4013,-4.01163 0.31861,-1.98224 0.28585,-4.0277 0.86033,-5.96133 0.62283,-2.09638 1.69014,-4.0389 2.14375,-6.19358 0.30459,-1.44681 0.64884,-2.90731 1.40986,-4.20275 1.44951,-2.46741 3.38439,-4.66082 4.37964,-7.39044 1.60755,-4.40894 2.91284,-8.96002 5.07913,-13.13551 0.55743,-1.07444 1.11088,-2.18358 2.01465,-3.01955 0.72959,-0.67485 1.32688,-1.49988 1.61713,-2.46602 0.38679,-1.28747 0.55094,-2.65897 1.32898,-3.81558 1.35515,-2.01452 3.12561,-3.86698 3.73595,-6.27425 0.25095,-0.98979 -0.68836,-1.70663 -0.72009,-2.68247 -0.0993,-3.05289 0.4574,-6.09845 1.34123,-9.01117 0.52821,-1.74076 1.49283,-3.31649 2.02996,-5.04931 0.72722,-2.34607 0.39672,-4.96864 1.57441,-7.17429 1.35228,-2.53263 3.65201,-4.50155 4.69191,-7.19214 0.58063,-1.5023 0.0639,-3.0948 -0.23156,-4.59595 -0.23298,-1.18373 -0.19023,-2.45986 0.41123,-3.54451 0.76426,-1.37823 1.96525,-2.46676 2.58949,-3.93866 1.22502,-2.8885 0.81541,-6.18743 2.03423,-9.06879 0.61382,-1.4511 1.82567,-2.6337 2.19586,-4.1701 0.17025,-0.70658 0.10835,-1.4549 0.50301,-2.12052 0.66702,-1.12498 2.12153,-2.06073 2.01894,-3.36512 -0.0465,-0.59189 -0.70925,-1.05314 -0.38343,-1.7604 0.52778,-1.14566 1.38623,-2.10097 1.80835,-3.31252 0.51902,-1.48968 1.09402,-2.95885 1.55678,-4.46941 0.18182,-0.5935 -0.0884,-1.3689 0.36431,-1.81935 0.66289,-0.65957 1.32084,-1.38169 1.55836,-2.31599 0.5555,-2.18506 0.14627,-4.56204 1.01498,-6.66375 0.696,-1.68386 2.16687,-2.88042 3.08328,-4.42341 0.59301,-0.99847 0.68226,-2.2533 1.3671,-3.1828 0.67748,-0.91951 2.19738,-1.10748 2.5189,-2.227446 0.16826,-0.586099 0.20172,-1.205774 0.32554,-1.806002 0.30785,-1.492352 0.2138,-3.229576 1.16201,-4.420142 0.36706,-0.46088 0.3581,-0.866628 0.12621,-1.444909 -0.21452,-0.534958 -0.23734,-1.135224 0.0126,-1.687568 0.90444,-1.998893 2.36835,-3.660507 3.6275,-5.438382 1.05725,-1.492799 1.35753,-3.393293 2.43428,-4.863181 0.63679,-0.869295 1.39399,-1.658391 1.81399,-2.678315 1.02932,-2.499614 1.61668,-5.149133 2.62533,-7.660548 0.50555,-1.258753 1.78935,-1.837452 2.74743,-2.688557 0.61135,-0.543088 0.9035,-1.347602 0.92787,-2.159922 0.03,-1.000921 -6.8e-4,-2.069884 0.61019,-2.948592 0.54379,-0.782214 1.35886,-1.422859 1.60293,-2.390654 0.10689,-0.423838 -0.0571,-1.314302 0.43762,-1.303791 0.45418,0.0096 1.40792,0.755743 1.42703,0.434977 0.31401,-5.27211 2.56712,-10.249778 2.80459,-15.509749 0.0652,-1.444861 -0.60182,-2.924423 -0.12004,-4.330911 0.52619,-1.536149 2.37048,-2.104679 2.85673,-3.674467 0.28319,-0.914245 0.35801,-1.914044 0.97983,-2.709002 1.21156,-1.548901 3.28397,-2.452185 4.07548,-4.24884 0.32768,-0.743807 0.4528,-1.56485 0.62298,-2.357361 0.62153,-2.894326 0.84618,-5.886349 1.74099,-8.708027 0.89646,-2.826897 3.19736,-5.12802 3.54434,-8.1131008 0.12505,-1.0758068 0.37445,-2.1353317 0.46922,-3.2142079 0.0655,-0.7452004 0.29032,-1.6638267 -0.21372,-2.2382467 -0.48157,-0.5488113 -2.27983,-0.727781 -1.77138,-1.2307176 0.42852,-0.4238764 1.0689,-0.5351415 1.63251,-0.6823426 0.26806,-0.070011 0.53801,-0.1323899 0.80772,-0.1956749"
       id="path162"
       inkscape:path-effect="#path-effect164"
       inkscape:original-d="m 93.005687,265.88566 c 0.950939,-0.82645 0.199278,-3.18538 0.754245,-4.35018 1.417037,-2.97417 5.431964,-5.44156 8.074948,-7.34345 0.68102,-0.49006 4.03995,0.23461 4.92482,0.0798 2.71769,-0.47536 5.44536,-1.03712 8.16369,-1.79595 0.55362,-0.15454 1.36791,0.0679 1.86344,-0.11972 0.95939,-0.36337 1.87077,-1.20061 2.83955,-1.63633 1.79387,-0.80681 4.06473,-1.03455 5.3685,-2.79368 1.43495,-1.93615 1.35067,-6.40915 1.86345,-8.89992 0.41269,-2.00463 1.45849,-3.82235 2.04091,-5.78695 0.48306,-1.62943 0.60784,-3.39949 1.41978,-4.90892 1.37928,-2.56414 3.51645,-4.77993 4.52552,-7.50307 1.64471,-4.43855 3.78902,-11.4112 6.25585,-15.40525 0.59035,-0.95585 1.54184,-1.52731 2.12966,-2.51434 0.84481,-1.41853 0.71382,-3.2379 1.55287,-4.54973 1.33091,-2.08084 3.35446,-4.20297 3.99311,-6.66496 0.2417,-0.93177 -0.66127,-1.5996 -0.70989,-2.47443 -0.16369,-2.94558 0.47389,-6.46565 1.33103,-9.21921 0.48127,-1.54606 1.19936,-2.9834 1.81908,-4.4699 1.00796,-2.4178 0.54481,-5.56942 1.90782,-7.982 1.32585,-2.34679 3.22069,-4.22855 4.43678,-6.66496 1.26841,-2.54125 -1.06066,-5.32327 0.0888,-7.98199 0.62419,-1.44383 1.8052,-2.39635 2.52896,-3.79145 1.46732,-2.82836 1.14142,-6.21623 2.12965,-9.1793 0.50549,-1.51566 1.6892,-2.93353 2.30712,-4.43001 0.25118,-0.60828 0.11,-1.35754 0.35495,-1.95559 0.12824,-0.31309 2.29656,-3.66407 2.26275,-3.83135 -0.11782,-0.58293 -0.75124,-0.85865 -0.44368,-1.59639 0.43243,-1.03725 1.30995,-1.93859 1.68599,-2.95334 0.59855,-1.61521 1.02672,-3.3043 1.68597,-4.82912 0.20566,-0.47568 0.0911,-1.58949 0.3993,-1.91567 0.70704,-0.74824 1.17029,-1.14098 1.50851,-2.15514 0.55575,-1.66642 0.32612,-4.9419 1.06483,-6.8246 0.56704,-1.44518 1.99277,-2.92828 2.92829,-4.19055 0.56151,-0.75764 1.00935,-2.30979 1.41976,-3.2327 0.44488,-1.00042 2.58115,-1.58698 2.70644,-2.713888 0.19948,-1.794179 0.82875,-3.998203 1.3754,-5.866765 0.0216,-0.07377 0.48448,-0.804616 0.44368,-0.878017 -0.26712,-0.480555 -0.66919,-1.404289 -0.39932,-2.035408 0.83962,-1.963568 2.18832,-3.747849 3.50506,-5.387848 1.08678,-1.353579 1.55316,-3.177968 2.3515,-4.669459 0.50791,-0.948883 1.46346,-1.741358 1.90781,-2.673974 1.12251,-2.355948 1.9616,-6.602034 3.06139,-8.580639 0.61972,-1.114911 2.28629,-1.706729 3.06137,-2.913433 0.74011,-1.152249 0.16337,-2.666452 0.66553,-3.871261 0.41159,-0.987499 1.51995,-1.707245 1.90781,-2.753786 0.10456,-0.282123 0.0978,-1.606629 0.48804,-1.556491 0.27327,0.03512 1.38853,0.545357 1.41977,0.558739 0.29739,-5.282846 2.20113,-10.266093 2.79512,-15.430936 0.16229,-1.411203 -0.63775,-3.469773 0,-4.789202 0.56512,-1.169191 1.83486,-1.730998 2.48462,-2.7937 0.51693,-0.84547 0.45534,-2.270616 1.02045,-3.033151 1.18748,-1.60232 2.86201,-3.252893 4.30366,-4.549742 0.38627,-0.347475 2.09893,-10.284452 2.39587,-11.174792 0.98717,-2.959871 3.2792,-5.467107 3.5938,-8.5806372 0.14434,-1.42858 0.74519,-3.3765525 0.22182,-4.7892017 -0.16263,-0.4389573 -1.86037,-1.2427256 -1.81906,-1.3170301 0.21521,-0.3871266 2.0102,-0.7748654 2.44023,-0.8780175" />
    <path
       style="fill:none;stroke:#000000;stroke-width:0.264583px;stroke-linecap:butt;stroke-linejoin:miter;stroke-opacity:1"
       d="m 308.67762,237.88306 c 1.29824,-2.68866 3.03192,-5.13025 4.57378,-7.67867 1.30347,-2.1544 2.50923,-4.41063 3.13082,-6.86667 0.48453,-1.9145 0.35734,-3.93703 0.94829,-5.82863 0.20776,-0.66503 0.5012,-1.29915 0.78368,-1.93462 1.64505,-3.70079 3.86673,-7.11175 5.5916,-10.77069 0.51938,-1.10175 0.73737,-2.30916 1.00791,-3.48763 0.17364,-0.75637 0.40436,-1.5001 0.71565,-2.21226 0.62175,-1.42244 1.51841,-2.73679 1.90731,-4.24968 0.28305,-1.10111 0.0625,-2.26619 0.37331,-3.36349 0.13251,-0.46782 0.40672,-0.8759 0.66569,-1.28081 1.07121,-1.67484 2.41214,-3.17203 3.33085,-4.94567 1.21435,-2.3444 1.94357,-4.9241 3.35339,-7.16918 0.53067,-0.84507 1.09919,-1.71255 1.91297,-2.2949 0.65923,-0.47175 1.35145,-0.89578 2.04839,-1.30881 0.74211,-0.4398 1.46271,-0.92902 2.25715,-1.26698 0.15719,-0.0669 0.39885,-0.21714 0.51615,-0.0667 0.11494,0.14741 0.3098,0.10872 0.45645,0.0403 0.81038,-0.37796 1.55133,-0.8864 2.27927,-1.40145 1.06346,-0.75244 2.12924,-1.55436 3.38093,-1.96394 0.42952,-0.14055 0.87262,-0.26062 1.32474,-0.28561 0.30158,-0.0167 0.55072,0.1736 0.82073,0.27311 0.33504,0.12347 0.69991,0.0337 1.02809,-0.0653 0.55364,-0.16709 1.09033,-0.48476 1.68437,-0.43553 0.4846,0.0402 0.94273,0.23703 1.36251,0.47276 0.81848,0.45962 1.51576,1.13254 2.41147,1.45348 0.67278,0.24106 1.41609,0.17213 2.08573,-0.0532 0.54685,-0.18403 1.03134,-0.54777 1.34421,-1.03674 0.43001,-0.67204 0.63285,-1.47358 1.15694,-2.08983 0.0668,-0.0785 0.13759,-0.15355 0.21222,-0.22462"
       id="path166"
       inkscape:path-effect="#path-effect168"
       inkscape:original-d="m 308.67762,237.88306 c 2.28645,-4.77 6.41782,-9.3363 7.71999,-14.60707 0.51583,-2.08793 0.33337,-4.38304 1.15356,-6.38558 1.72738,-4.21755 3.97121,-7.84286 6.07843,-11.93308 0.74213,-1.44054 0.91358,-3.32801 1.41973,-4.86902 0.58793,-1.79001 1.71293,-3.33497 2.26277,-5.14839 0.36668,-1.20938 -0.0196,-2.83847 0.62113,-3.99101 1.01748,-1.83047 2.52733,-3.42934 3.54944,-5.26809 1.77615,-3.1952 2.58527,-7.27412 5.41287,-9.81785 0.40518,-0.36452 3.99487,-2.54148 4.56988,-2.71389 0.54753,-0.16416 0.1991,0.35724 0.97611,-0.0399 2.39741,-1.22533 3.96726,-3.19818 6.65517,-3.552 0.62931,-0.0828 0.78449,0.36358 1.37541,0.31928 0.95157,-0.0713 1.64422,-0.72778 2.57331,-0.51883 2.00445,0.4508 2.89409,2.5848 5.32415,1.91567 2.11561,-0.58254 1.74639,-2.26428 2.97265,-3.43224" />
    <path
       style="fill:none;stroke:#000000;stroke-width:0.264583px;stroke-linecap:butt;stroke-linejoin:miter;stroke-opacity:1"
       d="m 308.67762,237.88306 c 0.97157,-0.93805 2.05307,-1.77308 2.9157,-2.81347 0.0184,-0.0222 0.0775,-0.0498 0.0485,0.002 -0.0798,0.14327 -0.18189,0.27278 -0.28368,0.40079 -0.21173,0.26628 -0.41796,0.54127 -0.67149,0.76864 -0.42396,0.38022 -0.86522,0.74099 -1.31509,1.09033 -0.19207,0.14915 -0.39496,0.28395 -0.58484,0.43593 -0.0871,0.0697 -0.15255,0.16529 -0.18081,0.27381 -0.0547,0.21008 -0.0848,0.42555 -0.12948,0.63787 -0.156,0.74176 -0.36518,1.47187 -0.60785,2.18949 -0.44235,1.30812 -1.01102,2.56934 -1.61334,3.81042 -0.33446,0.68915 -0.65694,1.38515 -1.02771,2.05543 -0.23445,0.42384 -0.55816,0.78814 -0.87078,1.15484 -0.32088,0.37639 -0.6514,0.75128 -0.8933,1.18565 -0.16979,0.30489 -0.25425,0.64867 -0.30884,0.99054 -0.12743,0.798 -0.0851,1.60864 -0.0953,2.41321 -0.007,0.52019 -0.0426,1.04233 -0.15749,1.55137 -0.22931,1.01615 -0.65665,1.9725 -1.09559,2.91237 -0.42063,0.90067 -0.83496,1.80468 -1.18701,2.73614 -0.24238,0.6413 -0.50004,1.27687 -0.76957,1.90717 -0.17031,0.39827 -0.31439,0.81065 -0.52924,1.18697 -0.0273,0.0478 -0.0353,0.15713 -0.0884,0.14051 -0.074,-0.0232 -0.10697,-0.10629 -0.1199,-0.17738 -0.0254,-0.13939 -0.002,-0.28899 -0.0622,-0.42089"
       id="path170"
       inkscape:path-effect="#path-effect172"
       inkscape:original-d="m 308.67762,237.88306 c 0.96129,-0.92885 1.88101,-1.90276 2.88391,-2.78654 0.37941,-0.33434 -0.55232,0.86295 -0.9317,1.19729 -2.96863,2.61604 -1.40751,0.28988 -2.66208,4.27038 -0.62622,1.98682 -1.75326,4.23061 -2.70645,6.10623 -0.46421,0.9134 -1.64058,1.81955 -1.95218,2.75379 -0.44013,1.31958 -0.10199,2.98556 -0.35496,4.35018 -0.36841,1.98736 -1.64248,3.91368 -2.30712,5.82685 -0.17505,0.50387 -1.33739,3.34956 -1.41975,3.31252 -0.18981,-0.0854 -0.0853,-0.41204 -0.17748,-0.59863" />
  </g>
</svg>
