<?xml version="1.0" encoding="UTF-8" standalone="no"?>
<!-- Created with Inkscape (http://www.inkscape.org/) -->

<svg
   width="169.33333mm"
   height="127mm"
   viewBox="0 0 169.33333 127"
   version="1.1"
   id="svg5"
   inkscape:version="1.1.2 (08b2f3d93c, 2022-04-05)"
   sodipodi:docname="EpitélioBasal.svg"
   xmlns:inkscape="http://www.inkscape.org/namespaces/inkscape"
   xmlns:sodipodi="http://sodipodi.sourceforge.net/DTD/sodipodi-0.dtd"
   xmlns="http://www.w3.org/2000/svg"
   xmlns:svg="http://www.w3.org/2000/svg">
  <sodipodi:namedview
     id="namedview7"
     pagecolor="#ffffff"
     bordercolor="#666666"
     borderopacity="1.0"
     inkscape:pageshadow="2"
     inkscape:pageopacity="0.0"
     inkscape:pagecheckerboard="0"
     inkscape:document-units="mm"
     showgrid="false"
     inkscape:zoom="1.6366351"
     inkscape:cx="168.63869"
     inkscape:cy="398.68387"
     inkscape:window-width="1366"
     inkscape:window-height="704"
     inkscape:window-x="0"
     inkscape:window-y="27"
     inkscape:window-maximized="1"
     inkscape:current-layer="layer2" />
  <defs
     id="defs2">
    <inkscape:path-effect
       effect="simplify"
       id="path-effect65"
       is_visible="true"
       lpeversion="1"
       steps="1"
       threshold="0.000408163"
       smooth_angles="360"
       helper_size="0"
       simplify_individual_paths="false"
       simplify_just_coalesce="false" />
    <inkscape:path-effect
       effect="simplify"
       id="path-effect61"
       is_visible="true"
       lpeversion="1"
       steps="1"
       threshold="0.000408163"
       smooth_angles="360"
       helper_size="0"
       simplify_individual_paths="false"
       simplify_just_coalesce="false" />
    <inkscape:path-effect
       effect="simplify"
       id="path-effect57"
       is_visible="true"
       lpeversion="1"
       steps="1"
       threshold="0.000408163"
       smooth_angles="360"
       helper_size="0"
       simplify_individual_paths="false"
       simplify_just_coalesce="false" />
  </defs>
  <g
     inkscape:groupmode="layer"
     id="layer2"
     inkscape:label="Estrato Basal">
    <path
       style="fill:none;stroke:#000000;stroke-width:0.264583px;stroke-linecap:butt;stroke-linejoin:miter;stroke-opacity:1"
       d="m -0.25528229,120.78385 c 0.52520217,0.0615 1.05682212,-0.0425 1.54049219,-0.26285 1.7037603,-0.77615 3.5568811,-1.11714 5.3827698,-1.48486 0.596851,-0.1202 1.173222,-0.33917 1.7890747,-0.36911 0.7760171,-0.0377 1.5591316,-0.0556 2.3169926,-0.25402 0.90087,-0.23585 1.777861,-0.56353 2.700782,-0.7155 1.250351,-0.20589 2.526077,-0.31121 3.787774,-0.21261 0.569709,0.0445 1.126639,0.18021 1.701917,0.19317 1.751722,0.0395 3.523783,0.22541 5.259392,-0.0802 1.079755,-0.19013 2.044957,-0.80297 3.137698,-0.92549 0.666085,-0.0747 1.338894,-0.0255 2.003351,-0.14926 1.851042,-0.34489 3.701571,-0.69105 5.550671,-1.04762 1.570787,-0.3029 2.925027,-1.35178 4.495344,-1.58932 0.232568,-0.0352 0.445122,0.079 0.689651,0.0457 0.892733,-0.12162 1.770818,-0.35003 2.674885,-0.38774 0.72687,-0.0303 1.473434,-0.0467 2.176472,0.16001 0.644424,0.18947 1.150626,0.74513 1.835761,0.79887 2.459978,0.19297 4.922476,-0.11429 7.355657,-0.45853 1.242118,-0.17573 2.549643,-0.12719 3.713273,-0.6423 0.357529,-0.15827 0.718323,-0.31292 1.103572,-0.39493 1.208579,-0.25728 2.482994,-0.008 3.667908,-0.40647 1.030748,-0.34628 1.865543,-1.07492 2.851593,-1.51793 1.217803,-0.54713 2.567733,-0.77666 3.732742,-1.43708 0.695211,-0.3941 1.268875,-1.00402 2.052932,-1.23833 0.917961,-0.27433 1.891819,-0.19248 2.821632,-0.41428 0.966802,-0.23062 1.853525,-0.69621 2.721697,-1.17378 0.869123,-0.47809 1.905444,-0.45465 2.809936,-0.82713 0.35244,-0.14514 0.541047,-0.50693 0.903986,-0.65147 0.838222,-0.33382 1.665019,-0.71338 2.398556,-1.24984 0.353877,-0.2588 0.790406,-0.43273 1.041225,-0.8144 0.104975,-0.15974 0.09175,-0.35647 0.132329,-0.53351 0.0517,-0.22556 -0.216481,0.0302 -0.269237,0.0908 -0.150818,0.17325 -0.394776,0.18842 -0.60625,0.21211 -0.373286,0.0418 -0.741395,0.13203 -1.079787,0.30002 -0.394599,0.19589 -0.789799,0.39461 -1.221373,0.50337 -0.697622,0.17581 -1.437006,0.26176 -2.058423,0.66187 -0.632845,0.40747 -1.137196,1.01162 -1.836806,1.30802 -0.554044,0.23473 -1.177431,0.21418 -1.726279,0.47464 -0.644673,0.30594 -1.19962,0.77993 -1.888671,1.00291 -0.956982,0.30968 -1.975021,0.27791 -2.960786,0.42711 -0.419156,0.0634 -0.84241,0.0733 -1.265933,0.0858 -0.414443,0.0123 -0.831654,-0.008 -1.243822,0.0346 -0.193277,0.0202 -0.505339,0.24927 -0.58479,0.064 -0.08773,-0.20456 0.25086,-0.29247 0.395025,-0.35718 0.480774,-0.21581 1.001826,-0.33272 1.47687,-0.55869 0.873862,-0.41569 1.546444,-1.12916 2.35968,-1.64314 0.778019,-0.49172 1.570669,-1.00008 2.157326,-1.72564 0.259893,-0.32143 0.553614,-0.62495 0.936023,-0.80521 0.636631,-0.30009 1.373565,-0.40553 1.918487,-0.88633 0.529429,-0.46713 0.933635,-1.1005 1.606172,-1.3873 0.779644,-0.33247 1.648687,-0.32136 2.436006,-0.647729 0.914908,-0.379263 1.861977,-0.700596 2.698294,-1.251461 0.427215,-0.281398 0.834857,-0.625391 1.333884,-0.767494 0.527849,-0.150311 1.123853,-0.06788 1.598238,-0.387504 0.252397,-0.170057 0.511713,-0.326247 0.790937,-0.452984 0.745895,-0.338555 1.512162,-0.635983 2.236885,-1.017985 0.715399,-0.377087 1.336997,-0.924222 2.10915,-1.195457 0.413939,-0.145405 0.820693,-0.335529 1.134033,-0.655784 0.512796,-0.524113 0.744367,-1.287902 1.315165,-1.745365 0.217547,-0.174352 0.496553,-0.230721 0.716811,-0.412973 0.681341,-0.563774 1.51779,-0.877566 2.28853,-1.293355 0.388899,-0.209798 0.780578,-0.425201 1.119301,-0.714075 0.134051,-0.114323 0.46553,-0.514459 0.333974,-0.398618 -0.310752,0.273631 -0.723538,0.381422 -1.075023,0.588053"
       id="path55"
       inkscape:path-effect="#path-effect57"
       inkscape:original-d="m -0.25528229,120.78385 c 0.47527734,0.049 0.95693905,0.008 1.39463439,-0.19601 1.7780588,-0.82725 3.5554103,-1.19633 5.4768448,-1.54201 0.5533052,-0.0995 1.0752572,-0.32431 1.6416012,-0.36589 0.7121613,-0.0523 1.3823746,-0.029 2.0919519,-0.16988 0.912116,-0.18115 1.77453,-0.54701 2.687576,-0.73181 1.326573,-0.26849 2.719052,-0.32752 4.067683,-0.30055 0.56296,0.0113 1.096124,0.18552 1.656128,0.19601 1.730333,0.0324 3.597603,0.19521 5.317044,-0.0523 1.041075,-0.14985 1.977686,-0.68686 2.992654,-0.90168 0.686708,-0.14535 1.393455,-0.0321 2.077427,-0.15682 1.849813,-0.3373 3.682471,-0.73683 5.534953,-1.04542 1.661396,-0.27676 3.133884,-1.03015 4.692367,-1.62041 0.188077,-0.0712 0.387567,0.074 0.581094,0.0523 0.768644,-0.0864 1.522116,-0.28862 2.295337,-0.3659 0.832945,-0.0832 2.268228,-0.11667 3.007183,0.23522 0.542851,0.25851 1.008949,0.64973 1.612545,0.6926 2.431325,0.17265 4.800894,-0.10747 7.205607,-0.45737 1.410108,-0.20519 2.758826,-0.16115 4.05316,-0.771 1.346253,-0.63432 2.776363,-0.25634 4.169373,-0.58805 1.027861,-0.24476 1.790591,-0.89459 2.687579,-1.37213 1.292585,-0.68813 2.760668,-0.956 4.067683,-1.59427 0.680617,-0.33237 1.235215,-0.94242 1.946675,-1.22837 0.797157,-0.32039 1.654233,-0.27415 2.484196,-0.39204 1.113412,-0.15814 2.247935,-0.63537 3.196043,-1.2153 0.893857,-0.54675 1.942433,-0.54829 2.905484,-0.88861 0.33623,-0.11882 0.542243,-0.50438 0.813533,-0.61419 0.867479,-0.35112 1.675575,-0.66793 2.440615,-1.24144 0.560898,-0.42048 1.234831,-0.59383 1.234831,-1.33292 0,-0.0568 0.06636,-0.14657 0.01453,-0.16988 -0.06567,-0.0295 -0.338788,0.27873 -0.406762,0.30056 -0.347234,0.11156 -0.718222,0.11083 -1.060511,0.20909 -0.491572,0.14112 -0.902232,0.44481 -1.380104,0.60112 -0.615754,0.20141 -1.335172,0.25904 -1.932151,0.50964 -0.815227,0.34222 -1.560947,1.25598 -2.324389,1.56814 -0.440767,0.18022 -0.946742,0.18745 -1.394629,0.33976 -0.726922,0.2472 -1.254093,0.78223 -1.961211,1.04543 -0.9613,0.35781 -1.808654,0.34355 -2.789269,0.45737 -1.445162,0.16773 -0.470789,0.0992 -2.803792,0.15681 -0.23725,0.006 -0.763342,0.2186 -0.711846,-0.0131 0.04805,-0.21618 1.704062,-0.7393 1.85951,-0.8102 0.827127,-0.37725 1.45287,-1.06848 2.208173,-1.54201 0.670131,-0.42013 1.410811,-0.87138 1.975736,-1.42439 0.315884,-0.30922 0.628719,-0.80094 0.987857,-1.04542 0.533252,-0.363 1.280252,-0.46812 1.844984,-0.78407 0.699762,-0.39149 1.088771,-1.19228 1.815936,-1.5812 0.773406,-0.41366 1.68197,-0.33876 2.484189,-0.679526 0.718722,-0.305297 1.498846,-0.555953 2.193647,-0.914746 0.58188,-0.300479 1.117862,-0.779351 1.699712,-1.05849 0.481624,-0.231058 0.998379,-0.16914 1.49632,-0.313629 0.371168,-0.107701 0.616323,-0.381738 0.958818,-0.535778 0.742328,-0.33387 1.465223,-0.648883 2.208165,-0.993156 0.645144,-0.298955 1.177687,-0.739884 1.786877,-1.07156 0.38064,-0.20724 0.815358,-0.306771 1.191249,-0.509643 0.795853,-0.42953 1.197216,-1.459828 1.786877,-2.103916 0.151733,-0.165741 0.473374,-0.214474 0.653738,-0.365898 0.998847,-0.838602 1.925783,-1.056862 2.992649,-1.711883 0.32703,-0.200785 0.549563,-0.356648 0.740902,-0.666457 0.02553,-0.04136 0.137834,-0.137054 0.101692,-0.104542 -0.292049,0.262716 -0.730996,0.386226 -1.075023,0.588053" />
    <path
       style="fill:none;stroke:#000000;stroke-width:0.264583px;stroke-linecap:butt;stroke-linejoin:miter;stroke-opacity:1"
       d="m 97.238393,90.192068 c 1.214707,-1.199744 2.754623,-1.995228 3.970887,-3.20005 0.14946,-0.148054 0.27503,-0.317283 0.37213,-0.50399 0.10725,-0.206229 0.29598,-0.35478 0.51034,-0.440823 0.30445,-0.122206 0.62321,-0.209888 0.90657,-0.383662 0.50846,-0.311821 0.95587,-0.75504 1.55458,-0.894273 0.51887,-0.120665 1.06429,-0.121859 1.56289,-0.335854 0.74395,-0.319298 1.46138,-0.739518 2.27488,-0.860636 0.7236,-0.107733 1.46476,-0.09841 2.1734,-0.307899 1.83547,-0.542614 3.47731,-1.575515 5.28184,-2.195258 0.96066,-0.329926 1.98545,-0.400738 2.9517,-0.714021 0.59946,-0.194361 1.1976,-0.390405 1.80082,-0.575702 0.71126,-0.218485 1.21358,-0.844341 1.93597,-1.038914 0.66577,-0.179323 1.35555,-0.04262 2.0317,-0.03294 1.171,0.01677 2.31556,-0.296911 3.41106,-0.674453 0.48214,-0.16616 0.98898,-0.248494 1.49787,-0.270407 0.89099,-0.03837 1.78155,0.03704 2.67326,0.0016 0.96497,-0.03841 1.94115,-0.301132 2.89384,-0.140679 0.29009,0.04886 0.56617,0.159855 0.85884,0.201264 0.34857,0.04932 0.70135,0.03951 1.05251,0.05378 0.76092,0.03092 1.67407,0.346588 2.28368,-0.126412 0.13691,-0.106229 -0.0635,-0.274632 -0.11717,-0.388973 -0.0346,-0.07376 -0.27951,-0.112693 -0.10861,-0.05412 0.41996,0.14393 0.8216,0.384288 1.26586,0.417197 0.41403,0.03067 0.82814,-0.03451 1.23525,-0.102188 1.14661,-0.190599 2.2762,-0.469409 3.40516,-0.744855 0.76403,-0.186409 1.4703,-0.555088 2.11496,-0.999427 1.33259,-0.9185 2.4679,-2.115517 3.90851,-2.87749 0.79235,-0.419094 1.6728,-0.664934 2.56398,-0.747422 1.10934,-0.102681 2.20809,0.131169 3.31244,0.192698 0.59973,0.03341 1.20119,-2.35e-4 1.79603,-0.08368 1.05258,-0.147651 2.1079,-0.414039 3.17699,-0.309297 1.1789,0.115501 2.35011,0.304441 3.51076,0.538241 0.74779,0.150634 1.51425,0.254241 2.22743,0.526705 0.29288,0.111892 0.51994,0.345167 0.83055,0.428121 1.33772,0.357266 2.71403,0.554202 4.04405,0.940258 0.0265,0.0077 0.053,0.01549 0.0794,0.02342"
       id="path59"
       inkscape:path-effect="#path-effect61"
       inkscape:original-d="m 97.238393,90.192068 c 1.262861,-1.248635 2.945667,-2.025764 4.125717,-3.37031 0.17906,-0.204015 0.24059,-0.472491 0.47941,-0.640324 0.27325,-0.192026 0.63577,-0.24511 0.92975,-0.39203 0.49369,-0.246716 0.88964,-0.649528 1.39464,-0.888614 0.56466,-0.267332 1.24529,-0.178906 1.83045,-0.418169 0.71583,-0.292682 1.42891,-0.72531 2.19365,-0.875543 0.69768,-0.137059 1.49449,-0.100539 2.17912,-0.287488 1.83215,-0.500298 3.58301,-1.535203 5.36062,-2.208461 0.80504,-0.304904 1.75913,-0.396515 2.58589,-0.614186 0.73712,-0.194066 1.44236,-0.502531 2.19364,-0.692591 0.7526,-0.190397 1.27186,-0.860698 2.00479,-1.058492 0.78246,-0.211159 1.51074,-0.01291 2.30987,-0.03921 1.16343,-0.03829 2.27774,-0.405837 3.38488,-0.744866 1.10397,-0.338053 2.35934,-0.157893 3.50112,-0.182946 1.09562,-0.02405 2.18731,-0.1421 3.28321,-0.156813 0.24065,-0.0032 0.63758,0.228446 1.30747,0.235217 0.91771,0.0093 2.04529,0.162084 2.93454,-0.104542 0.17903,-0.05368 -0.12208,-0.508426 -0.30508,-0.47044 0.42357,0.143748 0.83664,0.323251 1.27071,0.431243 0.70208,0.174672 4.41209,-0.718289 5.12818,-0.953949 2.43569,-0.80156 4.05419,-3.381476 6.65357,-4.194767 2.23346,-0.698799 3.35008,-0.07868 5.50591,-0.104542 1.43241,-0.01718 2.85426,-0.535155 4.30011,-0.4051 1.44229,0.129734 4.30234,0.63227 5.68024,1.045422 0.31708,0.09508 0.49979,0.341368 0.82806,0.431238 1.28166,0.350876 3.0699,0.646078 4.18391,0.980087" />
  </g>
</svg>
