<?xml version="1.0" encoding="UTF-8" standalone="no"?>
<!-- Created with Inkscape (http://www.inkscape.org/) -->

<svg
   width="169.33333mm"
   height="127mm"
   viewBox="0 0 169.33333 127"
   version="1.1"
   id="svg5"
   inkscape:version="1.1.2 (08b2f3d93c, 2022-04-05)"
   sodipodi:docname="Epitélio.svg"
   xmlns:inkscape="http://www.inkscape.org/namespaces/inkscape"
   xmlns:sodipodi="http://sodipodi.sourceforge.net/DTD/sodipodi-0.dtd"
   xmlns="http://www.w3.org/2000/svg"
   xmlns:svg="http://www.w3.org/2000/svg">
  <sodipodi:namedview
     id="namedview7"
     pagecolor="#ffffff"
     bordercolor="#666666"
     borderopacity="1.0"
     inkscape:pageshadow="2"
     inkscape:pageopacity="0.0"
     inkscape:pagecheckerboard="0"
     inkscape:document-units="mm"
     showgrid="false"
     inkscape:zoom="0.7660845"
     inkscape:cx="394.21239"
     inkscape:cy="163.82005"
     inkscape:window-width="1366"
     inkscape:window-height="704"
     inkscape:window-x="0"
     inkscape:window-y="27"
     inkscape:window-maximized="1"
     inkscape:current-layer="layer2" />
  <defs
     id="defs2">
    <inkscape:path-effect
       effect="simplify"
       id="path-effect146"
       is_visible="true"
       lpeversion="1"
       steps="1"
       threshold="0.000408163"
       smooth_angles="360"
       helper_size="0"
       simplify_individual_paths="false"
       simplify_just_coalesce="false" />
    <inkscape:path-effect
       effect="simplify"
       id="path-effect142"
       is_visible="true"
       lpeversion="1"
       steps="1"
       threshold="0.000408163"
       smooth_angles="360"
       helper_size="0"
       simplify_individual_paths="false"
       simplify_just_coalesce="false" />
    <inkscape:path-effect
       effect="simplify"
       id="path-effect138"
       is_visible="true"
       lpeversion="1"
       steps="1"
       threshold="0.000408163"
       smooth_angles="360"
       helper_size="0"
       simplify_individual_paths="false"
       simplify_just_coalesce="false" />
    <inkscape:path-effect
       effect="simplify"
       id="path-effect134"
       is_visible="true"
       lpeversion="1"
       steps="1"
       threshold="0.000408163"
       smooth_angles="360"
       helper_size="0"
       simplify_individual_paths="false"
       simplify_just_coalesce="false" />
    <inkscape:path-effect
       effect="simplify"
       id="path-effect130"
       is_visible="true"
       lpeversion="1"
       steps="1"
       threshold="0.000408163"
       smooth_angles="360"
       helper_size="0"
       simplify_individual_paths="false"
       simplify_just_coalesce="false" />
    <inkscape:path-effect
       effect="simplify"
       id="path-effect126"
       is_visible="true"
       lpeversion="1"
       steps="1"
       threshold="0.000408163"
       smooth_angles="360"
       helper_size="0"
       simplify_individual_paths="false"
       simplify_just_coalesce="false" />
    <inkscape:path-effect
       effect="simplify"
       id="path-effect122"
       is_visible="true"
       lpeversion="1"
       steps="1"
       threshold="0.000408163"
       smooth_angles="360"
       helper_size="0"
       simplify_individual_paths="false"
       simplify_just_coalesce="false" />
    <inkscape:path-effect
       effect="simplify"
       id="path-effect118"
       is_visible="true"
       lpeversion="1"
       steps="1"
       threshold="0.000408163"
       smooth_angles="360"
       helper_size="0"
       simplify_individual_paths="false"
       simplify_just_coalesce="false" />
    <inkscape:path-effect
       effect="simplify"
       id="path-effect81"
       is_visible="true"
       lpeversion="1"
       steps="1"
       threshold="0.000408163"
       smooth_angles="360"
       helper_size="0"
       simplify_individual_paths="false"
       simplify_just_coalesce="false" />
    <inkscape:path-effect
       effect="simplify"
       id="path-effect77"
       is_visible="true"
       lpeversion="1"
       steps="1"
       threshold="0.000408163"
       smooth_angles="360"
       helper_size="0"
       simplify_individual_paths="false"
       simplify_just_coalesce="false" />
    <inkscape:path-effect
       effect="simplify"
       id="path-effect73"
       is_visible="true"
       lpeversion="1"
       steps="1"
       threshold="0.000408163"
       smooth_angles="360"
       helper_size="0"
       simplify_individual_paths="false"
       simplify_just_coalesce="false" />
    <inkscape:path-effect
       effect="simplify"
       id="path-effect69"
       is_visible="true"
       lpeversion="1"
       steps="1"
       threshold="0.000408163"
       smooth_angles="360"
       helper_size="0"
       simplify_individual_paths="false"
       simplify_just_coalesce="false" />
    <inkscape:path-effect
       effect="simplify"
       id="path-effect65"
       is_visible="true"
       lpeversion="1"
       steps="1"
       threshold="0.000408163"
       smooth_angles="360"
       helper_size="0"
       simplify_individual_paths="false"
       simplify_just_coalesce="false" />
    <inkscape:path-effect
       effect="simplify"
       id="path-effect61"
       is_visible="true"
       lpeversion="1"
       steps="1"
       threshold="0.000408163"
       smooth_angles="360"
       helper_size="0"
       simplify_individual_paths="false"
       simplify_just_coalesce="false" />
    <inkscape:path-effect
       effect="simplify"
       id="path-effect57"
       is_visible="true"
       lpeversion="1"
       steps="1"
       threshold="0.000408163"
       smooth_angles="360"
       helper_size="0"
       simplify_individual_paths="false"
       simplify_just_coalesce="false" />
  </defs>
  <g
     inkscape:groupmode="layer"
     id="layer2"
     inkscape:label="Epitélio">
    <path
       style="fill:none;stroke:#000000;stroke-width:0.264583px;stroke-linecap:butt;stroke-linejoin:miter;stroke-opacity:1"
       d="m 168.82281,77.839585 c -2.02238,0.501701 -4.09132,0.779562 -6.16717,0.979186 -0.48502,0.04664 -0.9184,0.29895 -1.39895,0.370213 -0.60696,0.09001 -1.22482,0.07199 -1.83337,0.01366 -0.85052,-0.08152 -1.70124,0.150991 -2.54958,0.04286 -0.39401,-0.05022 -0.76901,-0.192566 -1.13419,-0.342514 -0.65586,-0.269303 -1.28026,-0.607739 -1.92869,-0.893336 -0.49029,-0.215946 -1.0348,-0.305396 -1.49492,-0.587398 -0.39376,-0.241329 -0.6697,-0.620513 -0.96228,-0.968061 -0.24831,-0.294958 -0.53674,-0.564374 -0.88853,-0.734328 -0.57732,-0.278911 -1.21715,-0.384261 -1.84869,-0.457005 -0.66656,-0.07678 -1.35308,-0.129657 -1.97216,-0.406468 -0.23839,-0.106592 -0.48131,-0.2222 -0.66657,-0.412018 -0.14289,-0.146409 -0.28427,-0.295248 -0.45828,-0.408265 -1.42113,-0.923019 -2.63764,-2.111485 -3.94314,-3.182761 -0.28477,-0.233679 -0.58881,-0.442778 -0.87445,-0.675151 -0.50525,-0.411035 -0.9251,-0.921796 -1.46809,-1.287941 -0.39342,-0.26529 -0.87188,-0.35614 -1.3363,-0.396804 -0.39721,-0.03478 -0.79541,-0.05781 -1.19086,-0.113037 -1.02977,-0.14381 -2.06026,-0.281392 -3.08868,-0.435927 -0.3622,-0.05443 -0.71443,-0.171874 -1.08428,-0.178612 -0.42737,-0.0078 -0.86309,0.04152 -1.28212,-0.07574 -1.02854,-0.287837 -2.0195,-0.691525 -3.04535,-0.989182 -0.41751,-0.121143 -0.83181,-0.277062 -1.26556,-0.316574 -0.0866,-0.0079 -0.20545,-0.06282 -0.26331,0.0064 -0.0418,0.04997 -0.0365,0.125958 -0.0242,0.186436 0.0334,0.164316 0.1386,0.304102 0.17151,0.468582"
       id="path116"
       inkscape:path-effect="#path-effect118"
       inkscape:original-d="m 168.82281,77.839585 c -2.00793,0.497335 -4.04972,0.854009 -6.11318,0.975071 -0.46269,0.02715 -0.87386,0.262835 -1.32348,0.351481 -0.60174,0.118636 -1.3826,0.08745 -1.9915,0.03402 -0.84335,-0.07401 -1.69617,0.138081 -2.52091,0.04535 -0.84258,-0.09473 -2.28464,-0.893964 -3.06288,-1.23585 -0.45038,-0.197853 -0.96374,-0.303649 -1.3991,-0.532887 -0.76215,-0.401307 -1.0719,-1.319194 -1.87807,-1.723385 -1.46241,-0.733213 -2.93794,-0.287874 -4.31074,-1.111131 -0.26547,-0.159199 -0.39459,-0.40741 -0.64283,-0.566904 -1.73035,-1.111755 -3.10142,-2.591953 -4.7645,-3.809587 -0.60553,-0.443352 -1.2303,-1.28493 -1.94109,-1.564653 -0.63858,-0.251301 -1.30734,-0.204176 -1.97891,-0.294791 -1.07642,-0.14524 -2.13366,-0.328112 -3.21414,-0.45352 -0.33993,-0.03946 -0.66531,-0.160125 -1.00836,-0.181408 -0.45658,-0.02833 -0.92637,0.05497 -1.37389,-0.06803 -1.01887,-0.28004 -1.98723,-0.688797 -2.99986,-0.975074 -0.19319,-0.05461 -1.58175,-0.487902 -1.63859,-0.317463 -0.0692,0.207349 0.12237,0.420325 0.16386,0.634929" />
    <path
       style="fill:none;stroke:#000000;stroke-width:0.264583px;stroke-linecap:butt;stroke-linejoin:miter;stroke-opacity:1"
       d="m 126.8246,67.045799 c 0.16651,-0.146234 0.38351,-0.217235 0.55248,-0.361328 0.0462,-0.03936 0.0581,-0.105173 0.0225,-0.162762 -0.0457,-0.07393 -0.12686,-0.01876 -0.16613,0.03673 -0.10372,0.146533 -0.16078,0.326986 -0.29661,0.45024 -0.0691,0.06269 -0.16584,0.03345 -0.24493,0.01324 -0.3321,-0.08485 -0.60183,-0.309479 -0.86069,-0.522145 -0.14836,-0.121885 -0.30773,-0.228804 -0.46762,-0.335012 -0.57288,-0.380548 -1.0254,-0.90777 -1.55388,-1.342456 -0.30683,-0.252374 -0.72571,-0.296449 -1.04166,-0.535113 -0.47234,-0.356803 -0.73126,-0.93098 -1.22498,-1.261899 -0.52308,-0.350595 -1.13187,-0.551323 -1.74792,-0.664407 -0.7006,-0.128603 -1.41666,-0.152217 -2.11521,-0.291841 -0.52363,-0.104661 -1.03485,-0.297663 -1.5728,-0.309572 -0.35926,-0.008 -0.7207,0.06966 -1.07823,-0.0077 -1.7292,-0.374092 -3.46375,-0.789682 -5.08839,-1.503432 -0.31843,-0.139895 -0.64305,-0.271314 -0.94134,-0.450365 -0.29251,-0.175582 -0.49264,-0.480965 -0.81158,-0.614867 -0.23523,-0.09876 -0.4879,-0.145271 -0.71986,-0.256172 -0.91237,-0.436211 -1.84716,-0.838876 -2.69472,-1.395488 -0.33089,-0.217304 -0.64059,-0.468958 -0.90365,-0.767661 -0.94196,-1.069602 -1.91382,-2.112971 -2.91945,-3.122368 -0.31472,-0.3159 -0.74608,-0.475719 -1.066056,-0.787141 -0.282152,-0.274613 -0.519008,-0.61127 -0.872932,-0.79876 -0.251414,-0.133186 -0.534896,-0.185854 -0.810429,-0.244231 -0.248699,-0.05269 -0.492993,-0.123681 -0.742991,-0.171176 -0.419232,-0.07965 -0.84185,-0.152046 -1.245643,-0.295881 -0.583709,-0.207923 -1.172863,-0.403476 -1.731007,-0.675355 -0.126205,-0.06148 -0.174845,-0.230234 -0.315948,-0.263277 -0.08298,-0.01943 -0.158843,0.0306 -0.232508,0.06067 -0.248357,0.101379 -0.482432,0.244189 -0.667293,0.44079 -0.205807,0.218877 -0.391492,0.455861 -0.598706,0.673576"
       id="path120"
       inkscape:path-effect="#path-effect122"
       inkscape:original-d="m 126.8246,67.045799 c 0.18908,-0.177646 0.74488,-0.343857 0.56724,-0.532937 -0.17765,-0.189081 -0.30938,0.561486 -0.56724,0.532937 -0.52589,-0.05822 -0.91352,-0.534471 -1.36125,-0.81639 -0.6153,-0.387432 -1.08734,-0.898729 -1.62598,-1.383242 -0.29037,-0.261199 -0.71357,-0.305281 -1.03357,-0.532886 -0.51308,-0.364932 -0.7874,-0.996201 -1.33607,-1.337892 -1.15381,-0.718535 -2.32838,-0.668896 -3.60489,-0.87303 -0.55469,-0.0887 -1.13443,-0.306131 -1.689,-0.340143 -0.35262,-0.02162 -0.75193,0.07441 -1.09659,0 -2.06005,-0.444733 -4.12082,-0.955207 -6.01234,-1.927471 -0.28674,-0.147384 -0.48536,-0.42204 -0.75627,-0.589579 -0.22061,-0.136427 -0.5323,-0.168537 -0.76888,-0.283451 -1.00381,-0.487593 -2.86201,-1.272849 -3.59227,-2.108877 -0.94962,-1.087147 -1.9727,-2.112455 -2.96206,-3.174659 -0.29829,-0.320252 -0.70772,-0.466534 -1.020966,-0.748308 -0.347126,-0.312245 -0.644266,-0.766683 -1.09659,-0.941062 -0.301056,-0.116059 -0.657378,-0.16493 -0.970544,-0.249438 -0.490681,-0.132411 -0.993979,-0.173993 -1.487332,-0.328803 -0.656373,-0.205965 -1.245716,-0.536028 -1.915882,-0.736973 -0.142243,-0.04265 -0.234519,-0.335167 -0.428554,-0.260776 -0.753472,0.288885 -0.781568,0.506531 -1.399095,1.167823" />
    <path
       style="fill:none;stroke:#000000;stroke-width:0.264583px;stroke-linecap:butt;stroke-linejoin:miter;stroke-opacity:1"
       d="m 92.666417,51.580637 c 0.36173,-0.300834 1.091581,-0.428448 1.085974,-0.902613 -0.0019,-0.160679 -0.211702,-0.241215 -0.337323,-0.313917 -0.428128,-0.247776 -0.994754,-0.29555 -1.326472,-0.661157 -0.324524,-0.357678 -0.444382,-0.869447 -0.827699,-1.178173 -0.188705,-0.151984 -0.512121,-0.05169 -0.646234,-0.274499 -0.194564,-0.32324 -0.26899,-0.717922 -0.517921,-1.004836 -0.341152,-0.393206 -0.839856,-0.604569 -1.17007,-1.013385 -0.384476,-0.475994 -0.591759,-1.06268 -0.91323,-1.577448 -0.260155,-0.416583 -0.739058,-0.592687 -1.150295,-0.817868 -0.341998,-0.187268 -0.63462,-0.447903 -0.951806,-0.672529 -0.726057,-0.514181 -1.480981,-1.012137 -2.319757,-1.315635 -0.58239,-0.210729 -1.205921,-0.310992 -1.751391,-0.621792 -0.404399,-0.23042 -0.808787,-0.472846 -1.269888,-0.582025 -1.468784,-0.347776 -3.01411,-0.397787 -4.425093,-0.961829 -0.738372,-0.295165 -1.380189,-0.79933 -2.15394,-1.016 -0.785425,-0.219939 -1.620067,-0.289734 -2.355694,-0.66872 -0.42673,-0.219846 -0.871976,-0.436024 -1.212921,-0.773489 -0.147271,-0.145768 -0.256863,-0.332705 -0.454947,-0.424485 -0.988682,-0.458093 -2.071645,-0.663721 -3.079381,-1.068743 -0.379789,-0.152642 -0.714697,-0.393245 -1.094127,-0.549778 -0.810581,-0.334403 -1.641395,-0.657266 -2.513354,-0.77219 -0.525819,-0.0693 -1.057632,-0.08489 -1.58739,-0.08693 -0.668452,-0.0026 -1.337931,0.02844 -1.999762,0.132078 -0.517235,0.081 -1.059469,0.112609 -1.563615,-0.06754 -0.551715,-0.197151 -0.953529,-0.642628 -1.346977,-1.054518 -0.281916,-0.29513 -0.611814,-0.535964 -0.944514,-0.771863 -0.257707,-0.182725 -0.592823,-0.331892 -0.711977,-0.630954 -0.07478,-0.187701 -0.314986,-0.320222 -0.271199,-0.541158 0.01787,-0.09016 0.213151,0.0663 0.260144,0.148351 0.110955,0.193744 0.335813,0.822956 0.25615,0.614637 -0.133324,-0.348643 -0.185235,-0.740037 -0.396304,-1.047833 -0.242925,-0.35425 -0.570116,-0.63942 -0.872869,-0.940704 -0.222202,-0.221124 -0.441909,-0.456756 -0.548791,-0.760148 -0.09268,-0.263079 -0.201804,-0.520721 -0.370213,-0.747716 -0.228723,-0.308291 -0.443794,-0.629229 -0.702391,-0.912749 -0.462399,-0.506964 -1.120569,-0.794629 -1.533302,-1.357156 -0.580206,-0.790782 -0.643369,-1.853415 -1.240004,-2.623566 -0.289202,-0.373309 -0.654077,-0.680251 -1.020107,-0.974537 -0.508168,-0.408564 -1.017352,-0.822805 -1.581195,-1.152954 -0.895775,-0.524507 -1.922519,-0.761676 -2.94144,-0.908214 -0.51898,-0.07464 -1.051788,-0.06437 -1.561666,-0.185489 -0.485067,-0.115223 -0.909016,-0.388594 -1.34978,-0.610002 -0.351442,-0.176539 -0.730119,-0.29948 -1.127534,-0.324643 -0.689131,-0.04363 -1.408429,0.115618 -2.07162,-0.123097 C 37.426445,19.256754 36.881245,18.852705 36.373168,18.428536 36.108656,18.207708 35.89609,17.930824 35.6321,17.710422 35.208185,17.3565 34.690641,17.145618 34.195995,16.912597 33.399966,16.537599 32.508103,16.453719 31.700077,16.106393 30.905673,15.764923 30.148266,15.346866 29.33862,15.034289 29.01838,14.910655 28.778369,14.656441 28.509627,14.452574 27.668826,13.814745 26.721661,13.323413 25.91041,12.648707 25.572186,12.367411 25.269001,12.044499 24.891194,11.809981 24.230249,11.39971 23.473488,11.111034 22.930449,10.537597 c -0.118658,-0.1253 -0.224857,-0.26439 -0.261885,-0.442246 -0.0311,-0.1494026 0.0038,-0.380395 -0.145653,-0.4387336 -0.173149,-0.067607 -0.375416,0.041761 -0.541983,-0.027366 -0.148432,-0.061601 -0.282,-0.2765135 -0.464002,-0.086585 C 20.735,10.358646 20.317099,11.432008 19.840864,12.436479"
       id="path124"
       inkscape:path-effect="#path-effect126"
       inkscape:original-d="m 92.666417,51.580637 c 0.361992,-0.300871 0.775742,-0.548611 1.085974,-0.902613 0.158858,-0.181272 -1.608812,-0.91662 -1.663795,-0.975074 -0.29754,-0.316315 -0.483251,-0.933231 -0.844505,-1.190493 -0.170728,-0.121584 -0.439955,-0.07022 -0.592408,-0.215427 -0.121512,-0.115734 -0.356396,-0.802587 -0.529389,-1.020426 -0.267014,-0.336235 -0.714803,-0.547407 -1.020966,-0.850352 -0.428918,-0.42441 -0.748879,-1.125077 -1.020963,-1.655358 -0.336045,-0.654934 -1.016072,-0.734819 -1.562958,-1.156483 -0.848378,-0.654122 -1.753055,-1.258978 -2.735172,-1.689367 -0.502166,-0.220065 -1.058656,-0.299599 -1.562955,-0.510215 -0.525049,-0.219281 -0.952523,-0.597471 -1.51254,-0.736973 -1.451073,-0.361463 -3.040973,-0.44564 -4.449387,-0.952399 -0.602359,-0.216731 -1.133875,-0.600676 -1.714212,-0.86169 -0.843857,-0.379537 -1.841442,-0.380357 -2.709965,-0.770988 -0.465313,-0.20928 -0.957906,-0.530804 -1.361284,-0.82768 -0.18814,-0.138467 -0.224396,-0.335214 -0.504182,-0.464862 -0.93472,-0.433131 -1.993612,-0.717992 -2.974661,-1.031759 -0.382124,-0.122216 -0.653385,-0.348737 -1.020963,-0.510215 -0.811295,-0.356399 -2.097932,-0.816758 -2.999867,-0.884367 -0.810805,-0.06078 -1.746321,-0.07223 -2.558714,-0.01135 -0.597419,0.04478 -1.25254,0.231346 -1.852859,0.136056 -1.118451,-0.177535 -1.483714,-1.011166 -2.319226,-1.655355 -0.328282,-0.253111 -0.835041,-0.525801 -1.083987,-0.861695 -0.09458,-0.127616 -0.08036,-0.345297 -0.189066,-0.487534 -0.03586,-0.04692 -0.17249,-0.136057 -0.113443,-0.136057 0.315696,0 0.358963,0.52025 0.516784,0.793666 -0.121437,-0.328224 -0.235301,-0.659351 -0.364311,-0.984673 -0.122669,-0.309336 -1.043472,-1.077222 -1.285659,-1.428599 -0.191918,-0.278445 -0.23408,-0.6266 -0.415947,-0.907043 -0.161295,-0.24872 -0.544605,-0.726602 -0.731062,-0.975078 -0.374656,-0.499273 -1.08141,-0.81123 -1.487328,-1.292534 -0.702472,-0.832932 -0.799275,-1.853967 -1.348682,-2.75515 -0.290969,-0.477274 -1.836236,-1.670588 -2.394854,-2.029512 -1.441152,-0.925973 -2.981451,-1.039665 -4.651058,-1.224508 -0.623446,-0.06902 -1.51235,-0.804975 -2.268806,-0.918386 -0.699773,-0.104913 -1.44959,0.05318 -2.142766,-0.09071 -0.853998,-0.17727 -2.032216,-1.151224 -2.571315,-1.757398 -0.294277,-0.330892 -1.096387,-0.66941 -1.46212,-0.850352 -0.734565,-0.363418 -1.565371,-0.440305 -2.319226,-0.736974 -0.753511,-0.296533 -1.469478,-0.730384 -2.218394,-1.031764 -0.322077,-0.129611 -0.46616,-0.124254 -0.781478,-0.385495 -0.926688,-0.767763 -1.959598,-1.354387 -2.911638,-2.05219 -0.331845,-0.243229 -0.595899,-0.569253 -0.945336,-0.805 C 24.322016,11.420475 23.288737,11.051107 22.752502,10.327598 22.630669,10.163217 22.680068,9.8522679 22.538225,9.6699936 22.47627,9.5903781 22.08536,9.6474496 22.008838,9.6359762 21.860702,9.6137653 21.699666,9.3608535 21.592889,9.4659068 20.770988,10.274541 20.325423,11.412177 19.840864,12.436479" />
    <path
       style="fill:none;stroke:#000000;stroke-width:0.264583px;stroke-linecap:butt;stroke-linejoin:miter;stroke-opacity:1"
       d="m 23.78607,10.248232 c -0.225122,-0.01162 -0.457875,0.02858 -0.675664,-0.03572 -0.08498,-0.02509 -0.150938,-0.08822 -0.214944,-0.146381 C 22.802793,9.981917 22.722965,9.8769978 22.609155,9.8221554 22.534281,9.7860754 22.456493,9.7562035 22.38016,9.7232209 21.80611,9.4751817 21.253045,9.1814352 20.711074,8.8704664 20.515739,8.7583884 20.340679,8.6153471 20.173535,8.4650736 20.079315,8.3803635 19.991457,8.2881387 19.891769,8.2099085 19.714062,8.0704528 19.493782,8.0072696 19.28967,7.9182571 19.167786,7.865104 19.054594,7.7934769 18.953829,7.7059146 18.40893,7.232409 17.960503,6.6634634 17.477912,6.1297598 17.302441,5.9357041 17.126863,5.7407793 16.93341,5.5644216 16.448547,5.122406 15.866559,4.8056189 15.373054,4.3740463 15.204954,4.2270419 15.056443,4.0591869 14.921238,3.8817426 14.519671,3.3547239 14.22462,2.7544335 13.802415,2.2418113 13.532867,1.9145381 13.229574,1.6152111 12.897767,1.3509919 12.616971,1.1273927 12.314993,0.93267439 12.018565,0.73077767 11.787942,0.57370058 11.563515,0.40413779 11.37046,0.20332439 c -0.02024,-0.0210555 -0.08951,-0.0644101 -0.05944,-0.0668366 0.03734,-0.003014 0.07534,0.007012 0.111176,0.0173183 0.160152,0.0460615 0.287329,0.16460762 0.38614,0.29449766 0.02333,0.0306734 0.0454,0.0623005 0.06649,0.0945523"
       id="path128"
       inkscape:path-effect="#path-effect130"
       inkscape:original-d="m 23.78607,10.248232 c -0.222679,-0.01134 -0.449395,0.0097 -0.668038,-0.03401 C 22.956014,10.181832 22.750859,9.8781244 22.576039,9.8060498 21.923346,9.5369577 21.372767,9.2414158 20.760992,8.8990026 20.397334,8.6954618 20.223806,8.5064916 19.929096,8.2413945 19.670048,8.008376 19.270534,7.9761666 18.996364,7.7425208 18.267056,7.1210106 17.712939,6.3320085 17.030062,5.656318 16.454459,5.0867722 15.621282,4.6963575 15.101575,4.1030059 14.613841,3.5461569 14.306761,2.8600749 13.841126,2.2889157 13.28906,1.6117388 12.803927,1.2471055 12.076497,0.76961671 c -0.24969,-0.1638981 -0.4664,-0.35151512 -0.680643,-0.54423003 -0.02927,-0.0263261 -0.114834,-0.0942301 -0.07563,-0.0907043 0.252339,0.0226921 0.427724,0.21415755 0.554598,0.4081736" />
    <path
       style="fill:none;stroke:#000000;stroke-width:0.264583px;stroke-linecap:butt;stroke-linejoin:miter;stroke-opacity:1"
       d="m 19.311474,0.08933024 c 1.676398,1.31251936 3.135119,2.87812176 4.833518,4.16588606 0.572491,0.4340755 1.129525,0.9098209 1.51889,1.5242661 0.501213,0.7909482 0.811011,1.7077047 1.465145,2.3982077 0.620456,0.6549526 1.548851,0.8914528 2.178739,1.5329187 0.444454,0.4526232 0.736552,1.0517032 1.276248,1.4100022 0.493002,0.327299 1.027991,0.603972 1.597539,0.764617 0.789303,0.222629 1.581985,0.486518 2.414431,0.485116 0.812953,-0.0014 1.643225,-0.11367 2.440321,0.09331 0.564088,0.146478 1.102889,0.37743 1.687475,0.458201 0.361718,0.04998 0.737829,0.08042 1.062843,0.270075 0.390272,0.227735 0.722979,0.59915 1.188609,0.660747 0.308374,0.04079 0.619037,0.01446 0.927869,0.0891 0.236683,0.0572 0.451897,0.173494 0.691663,0.224331 0.735,0.155841 1.489497,0.170451 2.234676,0.248849 0.625818,0.06584 1.270481,0.119006 1.849746,0.379523 0.383008,0.172253 0.645811,0.518109 0.885917,0.848321 0.288002,0.396083 0.558199,0.806608 0.896537,1.16387 0.545891,0.576424 1.151899,1.101845 1.602183,1.763677 0.640235,0.941023 1.030454,2.060397 1.848277,2.870578 0.346642,0.343403 0.797661,0.544087 1.199225,0.8126 0.6395,0.427613 1.222393,0.934395 1.859966,1.363864 0.505075,0.340218 1.122968,0.507869 1.569123,0.931345 0.292826,0.277941 0.456059,0.707697 0.833749,0.877669 0.207664,0.09345 0.449224,-1.09e-4 0.653463,0.124599 0.390587,0.238492 0.704033,0.579829 1.022208,0.903752 0.368116,0.374766 0.693464,0.795511 1.101356,1.127838 0.39884,0.324952 0.845755,0.582171 1.286882,0.843619 0.526093,0.311806 1.158214,0.29656 1.716344,0.53086 0.629292,0.264174 1.335035,0.15683 1.98209,0.338194 0.533127,0.149431 1.019801,0.460659 1.585297,0.494317 0.293801,0.01749 0.595591,0.0504 0.856571,0.200708 0.248802,0.143295 0.515508,0.290379 0.813822,0.276809 0.19412,-0.0088 0.388461,0.0021 0.576349,0.06525 0.89021,0.29934 1.685517,0.845577 2.6159,1.036136 1.147166,0.23496 2.340661,0.05387 3.482243,0.303353 0.495875,0.108368 0.933356,0.407419 1.449166,0.448478 0.716945,0.05707 1.426795,-0.199704 2.143904,-0.07285 0.9435,0.1669 1.878367,0.3854 2.79773,0.653619 0.42188,0.123081 0.867529,0.199661 1.252877,0.413167 0.967093,0.535827 2.029191,0.930358 2.88146,1.647785 0.379705,0.31963 0.708047,0.69617 1.014154,1.087484 0.154499,0.197505 0.146547,0.506902 0.357477,0.650657 0.279602,0.190557 0.656313,0.19495 0.919916,0.403216 0.313233,0.247477 0.550528,0.574404 0.811118,0.873518 0.190368,0.218511 0.366333,0.462563 0.610218,0.620758 0.193481,0.125501 0.127777,-0.206022 0.123232,-0.310243 -0.0093,-0.213208 -0.03083,-0.425773 -0.03549,-0.639201"
       id="path132"
       inkscape:path-effect="#path-effect134"
       inkscape:original-d="m 19.311474,0.08933024 c 1.464601,1.14708546 2.762012,2.51156606 4.197298,3.67353236 0.603355,0.4884594 1.270465,0.9186291 1.789836,1.5192991 0.787493,0.9107609 1.047651,2.1794599 1.953695,3.015924 0.575251,0.5310748 1.347247,0.7824499 1.928492,1.2925383 0.468482,0.411129 0.742828,0.998945 1.222632,1.394582 0.432588,0.356702 1.288946,0.761188 1.802444,0.907047 0.677355,0.192402 1.463604,0.46074 2.167972,0.476195 0.789451,0.01732 1.583389,-0.08927 2.369643,0.03402 0.57699,0.09047 1.094708,0.364911 1.663793,0.476195 0.184711,0.03612 0.820806,0.08703 1.071385,0.170074 0.495363,0.164165 0.850871,0.618546 1.348682,0.770986 0.313631,0.09604 0.640305,0.0091 0.957937,0.0907 0.560469,0.144046 0.342693,0.150762 0.8319,0.260774 1.102633,0.247961 3.130082,0.155786 4.134271,0.657608 0.537964,0.268837 1.037362,1.188435 1.42431,1.655356 0.537329,0.648384 1.188572,1.144193 1.701604,1.825429 0.753827,1.000977 1.126869,2.133121 1.978904,3.072615 0.29233,0.322337 0.6737,0.494411 1.033571,0.725635 0.680201,0.43704 1.309962,0.940881 1.966301,1.428595 0.480533,0.357075 1.106673,0.556865 1.575559,0.918382 0.347006,0.267545 0.538353,0.720948 0.907526,0.952399 0.183484,0.115035 0.414052,0.01934 0.605012,0.102043 0.56932,0.246575 1.660472,1.598262 2.15537,2.029511 0.360717,0.314331 0.854266,0.57108 1.260451,0.839018 0.551712,0.363934 1.169813,0.299371 1.739416,0.555561 0.584269,0.262784 1.224873,0.211474 1.840257,0.317469 0.529997,0.09129 1.014251,0.420518 1.537753,0.510211 0.283361,0.04855 0.594823,0.02711 0.869706,0.12472 0.300331,0.10664 0.482661,0.293116 0.806691,0.362815 0.226044,0.04862 0.471818,-0.02103 0.69324,0.04536 0.867489,0.260115 1.645063,0.811959 2.546115,1.031762 1.160975,0.283204 2.406451,0.145875 3.579674,0.328803 0.506786,0.07902 0.902034,0.3849 1.424311,0.453522 0.631412,0.08296 1.284152,-0.120983 1.915874,-0.102039 0.621263,0.01863 3.892367,0.828077 4.42418,1.122463 0.955942,0.529166 2.195692,1.034034 3.012477,1.768739 0.286591,0.257789 0.704768,0.701191 0.907523,1.031759 0.10577,0.172447 0.139809,0.389631 0.2773,0.544235 0.12836,0.144335 0.683149,0.285707 0.894913,0.39683 0.270539,0.141964 0.821814,0.88534 1.096592,1.16782 0.141356,0.14532 0.496668,0.542729 0.504177,0.340141 0.01148,-0.309952 -0.03105,-0.619633 -0.03781,-0.929722" />
    <path
       style="fill:none;stroke:#000000;stroke-width:0.264583px;stroke-linecap:butt;stroke-linejoin:miter;stroke-opacity:1"
       d="m 89.392449,37.448228 c 0.427046,0.753103 0.827292,1.522027 1.279565,2.260261 0.410249,0.66964 0.974684,1.264595 1.216057,2.020368 0.162381,0.508438 0.20209,1.052046 0.417638,1.54499 0.06329,0.144738 0.181706,0.250364 0.31638,0.333108 0.29929,0.183884 0.575866,0.431518 0.918538,0.519204 0.173704,0.04445 0.36319,0.02392 0.522421,0.128368 0.225443,0.147873 0.395881,0.361505 0.624148,0.50842 0.51119,0.329007 1.066348,0.617663 1.667226,0.729312 0.47714,0.08866 0.964675,-0.09946 1.438771,0.03317 0.276509,0.07735 0.551461,0.153551 0.840065,0.191148 0.212365,0.02766 0.423731,-0.0092 0.635537,-0.02251 0.457796,-0.02886 0.919075,-0.0074 1.369485,0.08742 0.61734,0.129952 1.1876,0.417338 1.79258,0.588751 0.31462,0.08914 0.65426,0.0019 0.96336,0.138359 0.80757,0.356561 1.43956,0.987436 2.12683,1.522338 0.3916,0.304782 0.83386,0.535377 1.29193,0.724487 0.472,0.19486 0.97608,0.327133 1.41219,0.595804 0.30327,0.186832 0.56699,0.430511 0.89187,0.587116 0.80631,0.38868 1.68004,0.643037 2.43735,1.127538 0.66938,0.428249 1.21802,1.039526 1.96024,1.354759 0.40576,0.172332 0.84618,0.310278 1.15929,0.640534 0.16696,0.176103 0.35009,0.336771 0.56829,0.450625 0.74214,0.387232 1.57914,0.557481 2.31244,0.9601 0.31649,0.17377 0.54316,0.469237 0.83907,0.669497 0.38705,0.261943 0.82317,0.441587 1.2589,0.604219 0.77438,0.289028 1.59721,0.49318 2.29329,0.948292 0.4223,0.276109 0.67439,0.748896 1.1301,0.986511 0.78576,0.409709 1.68309,0.533593 2.46505,0.957897 0.95206,0.516605 1.81663,1.202487 2.84831,1.566955 0.91879,0.324587 1.881,0.509109 2.80281,0.821996 0.32602,0.11066 0.63629,0.267804 0.98431,0.315102 0.77207,0.104928 1.56264,0.07998 2.31969,0.288081 0.31008,0.08524 0.62196,0.181469 0.89405,0.359249 0.21967,0.143527 0.45101,0.266138 0.6945,0.367022 1.09836,0.455075 2.24562,0.84026 3.22809,1.521598 0.43649,0.302703 0.79775,0.750915 1.32536,0.891898 0.29597,0.07909 0.60737,0.09044 0.89346,0.213136 0.39544,0.169591 0.76759,0.392565 1.18455,0.513006 0.75289,0.217476 1.56514,0.260492 2.26333,0.642852 0.67375,0.368974 1.13453,1.001923 1.6822,1.521466 0.59755,0.566863 1.36303,0.899029 2.07207,1.298941 0.29722,0.167638 0.5978,0.340818 0.82919,0.59954 0.35215,0.393754 0.58213,0.910064 1.0442,1.194867 0.23798,0.146683 0.51336,0.209675 0.77502,0.300436 0.49384,0.171296 0.95183,0.437744 1.34172,0.795651 0.0874,0.08021 0.1465,0.202768 0.27783,0.218568 0.15411,0.01854 0.0719,0.189524 -0.0176,0.250025 -0.11641,0.07869 -0.25718,0.114189 -0.36927,0.199946"
       id="path136"
       inkscape:path-effect="#path-effect138"
       inkscape:original-d="m 89.392449,37.448228 c 0.390184,0.692213 0.776814,1.386443 1.170551,2.076645 0.409372,0.717611 0.988005,1.367108 1.29826,2.131555 0.196583,0.484362 0.259284,1.64833 0.668042,1.893454 0.267708,0.160541 0.68277,0.455099 0.983149,0.566904 0.149135,0.05551 0.317209,0.01847 0.466368,0.0907 0.234296,0.113485 0.385305,0.329825 0.592407,0.4762 0.477689,0.337622 1.18369,0.688872 1.764628,0.805 0.396378,0.07924 0.77611,-0.03678 1.172221,-0.01132 0.354668,0.02278 0.637021,0.193987 0.983152,0.226761 0.680942,0.06447 0.34309,-0.02267 1.273053,-0.02267 0.87628,0 1.80837,0.352018 2.60913,0.668949 0.30344,0.1201 0.65601,2.49e-4 0.97054,0.136057 1.07869,0.465746 1.75464,1.341778 2.70997,1.904793 0.64547,0.3804 1.39211,0.567979 2.05453,0.895705 0.31904,0.15784 0.57057,0.433784 0.88231,0.589581 0.76606,0.382842 1.60192,0.647777 2.35705,1.065779 0.69255,0.383363 1.23167,1.001543 1.91587,1.360564 0.3766,0.19761 0.78551,0.294423 1.14701,0.53289 0.25381,0.167428 0.43667,0.455596 0.69325,0.600919 0.72898,0.412861 1.59871,0.620966 2.35705,0.986411 0.33856,0.163156 0.61732,0.441915 0.8571,0.657604 0.28149,0.253203 1.11832,0.587224 1.43692,0.702961 0.69415,0.252163 1.48469,0.50143 2.13015,0.873029 0.44152,0.25418 0.67283,0.736973 1.1218,0.986417 0.73222,0.406816 1.60406,0.52033 2.34444,0.895699 1.02123,0.517764 1.87909,1.253221 2.97466,1.644021 0.89922,0.320762 1.852,0.565287 2.77298,0.81634 0.33553,0.09146 0.62111,0.279905 0.97055,0.328803 1.1577,0.162002 1.7448,0.04115 2.91164,0.453522 0.33777,0.119372 0.59345,0.361744 0.92012,0.498877 1.11413,0.467686 2.29863,0.886378 3.3276,1.541973 0.44918,0.286195 0.86538,0.779936 1.38648,0.941065 0.24189,0.07479 0.50985,0.07383 0.75628,0.158729 0.38462,0.132506 0.72599,0.363461 1.10919,0.49888 0.76557,0.270536 1.60198,0.291907 2.35704,0.646263 0.77167,0.362154 1.27028,1.077468 1.86547,1.632678 0.6737,0.628454 1.69031,1.022924 2.47048,1.519303 0.70849,0.450779 0.89112,1.392166 1.71421,1.666698 0.82491,0.27514 1.42899,0.470416 1.9789,1.122466 0.0568,0.06741 0.22689,0.04788 0.22689,0.136059 0,0.202597 -0.32029,0.248203 -0.47898,0.374153" />
    <path
       style="fill:none;stroke:#000000;stroke-width:0.264583px;stroke-linecap:butt;stroke-linejoin:miter;stroke-opacity:1"
       d="m 152.61488,72.518647 c 0.011,-0.133535 0.0742,-0.256012 0.0888,-0.389079 0.004,-0.03663 -0.006,-0.0829 -0.0475,-0.09551 -0.0442,-0.01348 -0.0905,0.01366 -0.10899,0.05448 -0.0377,0.08303 -0.0324,0.179033 -0.0124,0.265794 0.0163,0.07064 0.0493,0.138335 0.10526,0.187517 0.17244,0.151571 0.39437,0.226283 0.60919,0.295044 0.15118,0.04839 0.30005,0.103626 0.44473,0.169608 1.06285,0.484728 2.13864,0.94022 3.22392,1.37367 0.37733,0.150702 0.70158,0.403252 1.01125,0.660996 0.36711,0.305556 0.72066,0.63501 1.13969,0.869926 0.25592,0.143473 0.53971,0.24315 0.83383,0.265534 0.47158,0.03589 0.94337,-0.06417 1.41457,-0.01175 0.195,0.02169 0.3835,0.07995 0.56963,0.139386 0.5859,0.187088 1.14685,0.454213 1.75122,0.581511 0.26582,0.05599 0.53852,0.05351 0.81011,0.06571 0.11931,0.0054 0.23562,0.03738 0.34975,0.07005 0.41471,0.118733 0.82042,0.266823 1.22215,0.423218 0.45052,0.175388 0.90361,0.347944 1.33569,0.565205 0.10557,0.05308 0.22261,0.09239 0.3103,0.172291 0.077,0.07017 0.14326,0.151222 0.21133,0.229865 0.12869,0.148682 0.21031,0.353271 0.38157,0.449869 0.0162,0.0091 0.0289,-0.0336 0.038,-0.0495 0.18309,-0.320023 0.35003,-0.648877 0.52577,-0.972915"
       id="path140"
       inkscape:path-effect="#path-effect142"
       inkscape:original-d="m 152.61488,72.518647 c 0.007,-0.162517 0.18318,-0.480671 0.0207,-0.487558 -0.16252,-0.0069 -0.13817,0.375081 -0.0207,0.487558 0.26524,0.253887 0.66973,0.301176 1.00381,0.453499 1.07196,0.488759 2.14791,0.974108 3.26456,1.394587 0.99162,0.37339 1.68811,1.51792 2.74778,1.768729 0.59627,0.141126 1.29603,-0.08218 1.90328,0.06803 0.98465,0.24357 1.84108,0.804317 2.89903,0.74831 0.40003,-0.02117 2.9792,1.011997 3.23936,1.235848 0.0981,0.08441 0.58968,0.68498 0.59241,0.680278 0.19568,-0.337293 0.3718,-0.685567 0.5577,-1.028348" />
  </g>
</svg>
