<?xml version="1.0" encoding="UTF-8" standalone="no"?>
<!-- Created with Inkscape (http://www.inkscape.org/) -->

<svg
   width="169.33333mm"
   height="127mm"
   viewBox="0 0 169.33333 127"
   version="1.1"
   id="svg5"
   inkscape:version="1.1.2 (08b2f3d93c, 2022-04-05)"
   sodipodi:docname="Espongiócitos.svg"
   xmlns:inkscape="http://www.inkscape.org/namespaces/inkscape"
   xmlns:sodipodi="http://sodipodi.sourceforge.net/DTD/sodipodi-0.dtd"
   xmlns="http://www.w3.org/2000/svg"
   xmlns:svg="http://www.w3.org/2000/svg">
  <sodipodi:namedview
     id="namedview7"
     pagecolor="#ffffff"
     bordercolor="#666666"
     borderopacity="1.0"
     inkscape:pageshadow="2"
     inkscape:pageopacity="0.0"
     inkscape:pagecheckerboard="0"
     inkscape:document-units="mm"
     showgrid="false"
     inkscape:zoom="0.58326888"
     inkscape:cx="301.74763"
     inkscape:cy="124.29945"
     inkscape:window-width="1366"
     inkscape:window-height="704"
     inkscape:window-x="0"
     inkscape:window-y="27"
     inkscape:window-maximized="1"
     inkscape:current-layer="layer2" />
  <defs
     id="defs2">
    <inkscape:path-effect
       effect="simplify"
       id="path-effect157"
       is_visible="true"
       lpeversion="1"
       steps="1"
       threshold="0.000408163"
       smooth_angles="360"
       helper_size="0"
       simplify_individual_paths="false"
       simplify_just_coalesce="false" />
    <inkscape:path-effect
       effect="simplify"
       id="path-effect153"
       is_visible="true"
       lpeversion="1"
       steps="1"
       threshold="0.000408163"
       smooth_angles="360"
       helper_size="0"
       simplify_individual_paths="false"
       simplify_just_coalesce="false" />
    <inkscape:path-effect
       effect="simplify"
       id="path-effect149"
       is_visible="true"
       lpeversion="1"
       steps="1"
       threshold="0.000408163"
       smooth_angles="360"
       helper_size="0"
       simplify_individual_paths="false"
       simplify_just_coalesce="false" />
    <inkscape:path-effect
       effect="simplify"
       id="path-effect145"
       is_visible="true"
       lpeversion="1"
       steps="1"
       threshold="0.000408163"
       smooth_angles="360"
       helper_size="0"
       simplify_individual_paths="false"
       simplify_just_coalesce="false" />
    <inkscape:path-effect
       effect="simplify"
       id="path-effect141"
       is_visible="true"
       lpeversion="1"
       steps="1"
       threshold="0.000408163"
       smooth_angles="360"
       helper_size="0"
       simplify_individual_paths="false"
       simplify_just_coalesce="false" />
    <inkscape:path-effect
       effect="simplify"
       id="path-effect137"
       is_visible="true"
       lpeversion="1"
       steps="1"
       threshold="0.000408163"
       smooth_angles="360"
       helper_size="0"
       simplify_individual_paths="false"
       simplify_just_coalesce="false" />
    <inkscape:path-effect
       effect="simplify"
       id="path-effect133"
       is_visible="true"
       lpeversion="1"
       steps="1"
       threshold="0.000408163"
       smooth_angles="360"
       helper_size="0"
       simplify_individual_paths="false"
       simplify_just_coalesce="false" />
    <inkscape:path-effect
       effect="simplify"
       id="path-effect129"
       is_visible="true"
       lpeversion="1"
       steps="1"
       threshold="0.000408163"
       smooth_angles="360"
       helper_size="0"
       simplify_individual_paths="false"
       simplify_just_coalesce="false" />
    <inkscape:path-effect
       effect="simplify"
       id="path-effect125"
       is_visible="true"
       lpeversion="1"
       steps="1"
       threshold="0.000408163"
       smooth_angles="360"
       helper_size="0"
       simplify_individual_paths="false"
       simplify_just_coalesce="false" />
    <inkscape:path-effect
       effect="simplify"
       id="path-effect121"
       is_visible="true"
       lpeversion="1"
       steps="1"
       threshold="0.000408163"
       smooth_angles="360"
       helper_size="0"
       simplify_individual_paths="false"
       simplify_just_coalesce="false" />
    <inkscape:path-effect
       effect="simplify"
       id="path-effect117"
       is_visible="true"
       lpeversion="1"
       steps="1"
       threshold="0.000408163"
       smooth_angles="360"
       helper_size="0"
       simplify_individual_paths="false"
       simplify_just_coalesce="false" />
    <inkscape:path-effect
       effect="simplify"
       id="path-effect113"
       is_visible="true"
       lpeversion="1"
       steps="1"
       threshold="0.000408163"
       smooth_angles="360"
       helper_size="0"
       simplify_individual_paths="false"
       simplify_just_coalesce="false" />
    <inkscape:path-effect
       effect="simplify"
       id="path-effect109"
       is_visible="true"
       lpeversion="1"
       steps="1"
       threshold="0.000408163"
       smooth_angles="360"
       helper_size="0"
       simplify_individual_paths="false"
       simplify_just_coalesce="false" />
    <inkscape:path-effect
       effect="simplify"
       id="path-effect105"
       is_visible="true"
       lpeversion="1"
       steps="1"
       threshold="0.000408163"
       smooth_angles="360"
       helper_size="0"
       simplify_individual_paths="false"
       simplify_just_coalesce="false" />
    <inkscape:path-effect
       effect="simplify"
       id="path-effect101"
       is_visible="true"
       lpeversion="1"
       steps="1"
       threshold="0.000408163"
       smooth_angles="360"
       helper_size="0"
       simplify_individual_paths="false"
       simplify_just_coalesce="false" />
    <inkscape:path-effect
       effect="simplify"
       id="path-effect97"
       is_visible="true"
       lpeversion="1"
       steps="1"
       threshold="0.000408163"
       smooth_angles="360"
       helper_size="0"
       simplify_individual_paths="false"
       simplify_just_coalesce="false" />
    <inkscape:path-effect
       effect="simplify"
       id="path-effect93"
       is_visible="true"
       lpeversion="1"
       steps="1"
       threshold="0.000408163"
       smooth_angles="360"
       helper_size="0"
       simplify_individual_paths="false"
       simplify_just_coalesce="false" />
    <inkscape:path-effect
       effect="simplify"
       id="path-effect89"
       is_visible="true"
       lpeversion="1"
       steps="1"
       threshold="0.000408163"
       smooth_angles="360"
       helper_size="0"
       simplify_individual_paths="false"
       simplify_just_coalesce="false" />
    <inkscape:path-effect
       effect="simplify"
       id="path-effect85"
       is_visible="true"
       lpeversion="1"
       steps="1"
       threshold="0.000408163"
       smooth_angles="360"
       helper_size="0"
       simplify_individual_paths="false"
       simplify_just_coalesce="false" />
    <inkscape:path-effect
       effect="simplify"
       id="path-effect81"
       is_visible="true"
       lpeversion="1"
       steps="1"
       threshold="0.000408163"
       smooth_angles="360"
       helper_size="0"
       simplify_individual_paths="false"
       simplify_just_coalesce="false" />
    <inkscape:path-effect
       effect="simplify"
       id="path-effect77"
       is_visible="true"
       lpeversion="1"
       steps="1"
       threshold="0.000408163"
       smooth_angles="360"
       helper_size="0"
       simplify_individual_paths="false"
       simplify_just_coalesce="false" />
    <inkscape:path-effect
       effect="simplify"
       id="path-effect73"
       is_visible="true"
       lpeversion="1"
       steps="1"
       threshold="0.000408163"
       smooth_angles="360"
       helper_size="0"
       simplify_individual_paths="false"
       simplify_just_coalesce="false" />
    <inkscape:path-effect
       effect="simplify"
       id="path-effect69"
       is_visible="true"
       lpeversion="1"
       steps="1"
       threshold="0.000408163"
       smooth_angles="360"
       helper_size="0"
       simplify_individual_paths="false"
       simplify_just_coalesce="false" />
    <inkscape:path-effect
       effect="simplify"
       id="path-effect65"
       is_visible="true"
       lpeversion="1"
       steps="1"
       threshold="0.000408163"
       smooth_angles="360"
       helper_size="0"
       simplify_individual_paths="false"
       simplify_just_coalesce="false" />
    <inkscape:path-effect
       effect="simplify"
       id="path-effect61"
       is_visible="true"
       lpeversion="1"
       steps="1"
       threshold="0.000408163"
       smooth_angles="360"
       helper_size="0"
       simplify_individual_paths="false"
       simplify_just_coalesce="false" />
    <inkscape:path-effect
       effect="simplify"
       id="path-effect57"
       is_visible="true"
       lpeversion="1"
       steps="1"
       threshold="0.000408163"
       smooth_angles="360"
       helper_size="0"
       simplify_individual_paths="false"
       simplify_just_coalesce="false" />
  </defs>
  <g
     inkscape:groupmode="layer"
     id="layer2"
     inkscape:label="Espongiócitos">
    <path
       style="fill:none;stroke:#000000;stroke-width:0.264583px;stroke-linecap:butt;stroke-linejoin:miter;stroke-opacity:1"
       d="m 111.24228,103.70691 c -0.56118,-0.0758 -1.13089,-0.005 -1.67945,0.12161 -0.83334,0.19169 -1.63725,0.49899 -2.48083,0.64923 -0.69679,0.1241 -1.40756,0.18336 -2.08789,0.38858 -0.88121,0.26581 -1.68689,0.73656 -2.41935,1.28689 -1.03449,0.77726 -1.94054,1.70612 -2.842968,2.62871 -0.197362,0.20177 -0.397654,0.40066 -0.605348,0.59192 -0.394065,0.36289 -0.80161,0.7196 -1.117656,1.15566 -0.214702,0.29623 -0.381583,0.63852 -0.418066,1.00645 -0.03837,0.38699 0.04614,0.77542 0.175169,1.13838 0.204069,0.57407 0.517222,1.10055 0.836502,1.61693 0.302074,0.48855 0.694177,0.91642 1.123658,1.29518 0.490479,0.43255 1.031809,0.813 1.624769,1.09147 0.37432,0.17579 0.77416,0.30382 1.18738,0.34469 0.59453,0.0588 1.19264,-0.0457 1.7618,-0.214 0.70079,-0.20725 1.37115,-0.50077 2.04908,-0.77045 1.11008,-0.44159 2.20054,-0.95413 3.18522,-1.63572 0.76665,-0.53067 1.46983,-1.17338 1.98231,-1.95827 0.41456,-0.63492 0.67942,-1.36599 0.767,-2.11978 0.0848,-0.72985 -0.006,-1.46832 -0.1733,-2.18134 -0.16021,-0.6839 -0.27275,-1.38292 -0.52145,-2.0425 -0.10145,-0.26906 -0.22524,-0.53136 -0.3932,-0.76613 -0.30154,-0.42149 -0.66021,-0.79988 -1.04393,-1.14682 -0.47269,-0.42739 -0.98175,-0.82348 -1.55147,-1.11247 -0.33577,-0.17032 -0.69648,-0.31219 -1.07592,-0.33594 -0.25829,-0.0162 -0.52759,0.0449 -0.73515,0.20557 -0.24298,0.18813 -0.38036,0.47867 -0.46021,0.76878 -0.0211,0.0767 -0.0385,0.15445 -0.053,0.23269"
       id="path59"
       inkscape:path-effect="#path-effect61"
       inkscape:original-d="m 111.24228,103.70691 c -1.27879,-0.17011 -2.49502,0.39684 -3.7425,0.68605 -0.74099,0.17179 -1.49237,0.21433 -2.23485,0.39887 -2.32927,0.57895 -4.18719,2.63708 -5.799971,4.25994 -0.651414,0.65549 -1.703731,1.39425 -1.86238,2.39322 -0.153041,0.96365 0.555167,2.14891 1.046477,2.91974 0.701294,1.10028 2.302644,2.37078 3.600594,2.61659 1.36838,0.25914 2.73316,-0.40962 3.97308,-0.89348 3.59715,-1.40373 6.93258,-3.61152 5.90639,-7.86572 -0.20245,-0.83929 -0.34207,-1.8126 -0.74495,-2.58468 -0.68008,-1.3033 -4.55062,-4.70085 -5.10823,-1.69121" />
    <path
       style="fill:none;stroke:#000000;stroke-width:0.264583px;stroke-linecap:butt;stroke-linejoin:miter;stroke-opacity:1"
       d="m 126.40734,115.09864 c -0.0686,-0.41773 -0.23891,-0.81278 -0.45188,-1.17594 -0.29722,-0.50682 -0.67505,-0.96926 -1.12659,-1.34578 -0.3364,-0.28051 -0.71856,-0.51952 -1.14514,-0.63384 -0.44946,-0.12045 -0.9198,-0.12148 -1.38121,-0.0979 -0.33473,0.0171 -0.66927,0.0367 -1.00423,0.0508 -1.15119,0.0484 -2.29921,0.25455 -3.38469,0.64338 -0.91739,0.32862 -1.79796,0.79117 -2.53147,1.43901 -0.58643,0.51794 -1.06169,1.16851 -1.33955,1.90302 -0.2749,0.72668 -0.3378,1.52034 -0.25299,2.28957 0.0835,0.75731 0.3165,1.50644 0.73798,2.14621 0.38545,0.58508 0.92857,1.05555 1.53744,1.3972 0.78011,0.43774 1.65189,0.68602 2.52926,0.83636 1.26864,0.21738 2.56002,0.2454 3.84424,0.23864 1.03867,-0.005 2.08324,-0.0676 3.09985,-0.29118 0.6718,-0.14773 1.34289,-0.34991 1.93504,-0.70397 0.28313,-0.16929 0.50857,-0.41874 0.69993,-0.68389 0.27823,-0.38551 0.49827,-0.80922 0.69823,-1.23926 0.30784,-0.66205 0.48146,-1.39108 0.46597,-2.12357 -0.0157,-0.74393 -0.23287,-1.47309 -0.56791,-2.13396 -0.42064,-0.82971 -1.0081,-1.56239 -1.6457,-2.23481 -0.52471,-0.55337 -1.08716,-1.06939 -1.66149,-1.57032 -0.42421,-0.37 -0.86131,-0.73441 -1.36017,-1.00044 -0.36638,-0.19538 -0.77639,-0.32374 -1.19519,-0.31751 -0.43738,0.007 -0.85885,0.16744 -1.22778,0.39504 -0.1773,0.10938 -0.34483,0.2341 -0.50434,0.36796"
       id="path63"
       inkscape:path-effect="#path-effect65"
       inkscape:original-d="m 126.40734,115.09864 c -0.18748,-1.18476 -1.43333,-2.7581 -2.62505,-3.12714 -0.76233,-0.23607 -1.57814,-0.10243 -2.35902,-0.0798 -3.54391,0.10284 -8.0551,1.9078 -7.64462,6.17451 0.43333,4.50414 5.14972,4.74979 8.74431,4.72262 1.60126,-0.0121 3.48328,-0.18398 4.91313,-0.97324 0.64022,-0.35339 1.10066,-1.25331 1.38348,-1.8348 1.52085,-3.12695 -0.56985,-5.64913 -2.78469,-7.65832 -1.60432,-1.45535 -2.93826,-2.68232 -4.85993,-1.06897" />
    <path
       style="fill:none;stroke:#000000;stroke-width:0.264583px;stroke-linecap:butt;stroke-linejoin:miter;stroke-opacity:1"
       d="m 122.96639,41.311681 c -0.29292,-0.443377 -0.68632,-0.824178 -1.15529,-1.078394 -0.48939,-0.265283 -1.04946,-0.380569 -1.60343,-0.382489 -0.65464,-0.0023 -1.29981,0.147768 -1.91781,0.355919 -0.80104,0.2698 -1.6205,0.487583 -2.40357,0.808853 -0.58281,0.239108 -1.13903,0.549705 -1.62816,0.948769 -0.48594,0.396465 -0.90292,0.872384 -1.26679,1.381339 -0.70027,0.979477 -1.21239,2.096399 -1.47862,3.271126 -0.21658,0.955635 -0.26978,1.95939 -0.0664,2.922438 0.16061,0.760582 0.50159,1.486321 1.01082,2.076917 0.51724,0.599881 1.20075,1.041766 1.93693,1.32479 0.57307,0.220318 1.1791,0.366545 1.79458,0.390271 0.6084,0.02345 1.21435,-0.07936 1.80075,-0.235156 0.4941,-0.131274 0.97604,-0.302849 1.46145,-0.462185 0.62116,-0.203896 1.25659,-0.370022 1.85741,-0.631266 0.44384,-0.192986 0.86443,-0.452251 1.20315,-0.801349 0.30233,-0.311594 0.54303,-0.683956 0.69964,-1.087978 0.19351,-0.499204 0.23185,-1.044663 0.20051,-1.57457 -0.0471,-0.796652 -0.2333,-1.579173 -0.48096,-2.335443 -0.35384,-1.080511 -0.82425,-2.122009 -1.38591,-3.109812 -0.40121,-0.705614 -0.83744,-1.396171 -1.36287,-2.01616 -0.16817,-0.198433 -0.33882,-0.397082 -0.53579,-0.567484 -0.1611,-0.139371 -0.35756,-0.251751 -0.57419,-0.268061 -0.19441,-0.01464 -0.38523,0.05939 -0.54207,0.170097 -0.22917,0.161754 -0.40818,0.383284 -0.56528,0.612988 -0.018,0.02629 -0.0357,0.05278 -0.0531,0.07943"
       id="path67"
       inkscape:path-effect="#path-effect69"
       inkscape:original-d="m 122.96639,41.311681 c -1.09078,-1.639451 -2.89332,-1.708909 -4.59387,-1.132787 -1.76688,0.598591 -3.30813,0.866712 -4.66481,2.297496 -2.96698,3.129024 -3.85853,9.307645 1.38348,10.689723 1.50748,0.397457 2.70484,0.02878 4.15044,-0.462691 1.62851,-0.553656 3.1355,-0.750604 3.91986,-2.472994 1.11687,-2.452571 -1.63305,-7.912923 -3.44097,-9.652661 -0.71041,-0.683628 -1.30909,-0.238194 -1.80916,0.526507" />
    <path
       style="fill:none;stroke:#000000;stroke-width:0.264583px;stroke-linecap:butt;stroke-linejoin:miter;stroke-opacity:1"
       d="m 115.25082,30.54219 c 0.14051,-0.239449 0.3418,-0.442767 0.44771,-0.70174 0.0217,-0.05308 0.0484,-0.106725 0.0523,-0.164129 0.005,-0.06894 -0.0496,-0.123902 -0.10178,-0.160073 -0.12525,-0.08674 -0.27173,-0.136527 -0.41698,-0.177687 -0.37312,-0.105735 -0.75802,-0.16409 -1.14301,-0.20486 -0.60996,-0.06459 -1.22514,-0.09382 -1.83778,-0.06004 -0.32853,0.01812 -0.65991,0.04372 -0.97821,0.130601 -0.14279,0.03897 -0.28331,0.09403 -0.40338,0.183766 -0.51699,0.38638 -1.02055,0.795382 -1.46455,1.265147 -0.29185,0.308785 -0.55367,0.648574 -0.75267,1.025734 -0.51694,0.97976 -0.86531,2.057864 -0.95022,3.165172 -0.0603,0.786012 0.0138,1.591846 0.29138,2.333743 0.21533,0.575535 0.56763,1.104135 1.04101,1.499952 0.45252,0.378378 1.01041,0.618653 1.58825,0.726605 0.72824,0.136049 1.48105,0.08203 2.20052,-0.07692 0.81265,-0.179539 1.60919,-0.462449 2.32344,-0.894461 0.63756,-0.385625 1.20168,-0.901621 1.60965,-1.528112 0.37683,-0.578673 0.6061,-1.247892 0.68823,-1.932516 0.1006,-0.838637 -0.004,-1.69381 -0.24654,-2.49918 -0.0485,-0.16122 -0.0906,-0.325464 -0.15698,-0.480302 -0.076,-0.177237 -0.18194,-0.339804 -0.2936,-0.496209 -0.18521,-0.259426 -0.38298,-0.511208 -0.60617,-0.738825 -0.0699,-0.07129 -0.13666,-0.148313 -0.22098,-0.202573 -0.0862,-0.05548 -0.19375,-0.05443 -0.29202,-0.04325 -0.13516,0.01537 -0.27074,0.046 -0.40796,0.02579 -0.59317,-0.08736 -1.16706,-0.27814 -1.76528,-0.337099 -0.31648,-0.03119 -0.63477,0.002 -0.94833,0.04594 -0.48876,0.06852 -0.97158,0.175979 -1.4621,0.2321 -0.0523,0.006 -0.10471,0.01128 -0.15719,0.01557"
       id="path71"
       inkscape:path-effect="#path-effect73"
       inkscape:original-d="m 115.25082,30.54219 c 0.16554,-0.281869 0.41704,-0.528558 0.49663,-0.845606 0.14542,-0.579313 -4.06611,-0.910984 -4.84218,-0.335055 -0.75655,0.561446 -1.73793,1.370275 -2.19938,2.217722 -2.31193,4.245927 -0.71543,9.292973 4.87766,7.546625 3.31793,-1.035965 4.65607,-3.707645 3.47643,-7.083935 -0.15714,-0.449763 -0.93307,-1.350074 -1.13516,-1.483802 -0.18741,-0.124013 -0.45146,0.01537 -0.674,-0.01595 -0.64859,-0.09128 -1.27913,-0.319027 -1.93333,-0.35101 -0.68824,-0.03365 -1.70416,0.243806 -2.42996,0.303139" />
    <path
       style="fill:none;stroke:#000000;stroke-width:0.264583px;stroke-linecap:butt;stroke-linejoin:miter;stroke-opacity:1"
       d="m 110.88758,30.494335 c -0.703,0.14586 -1.38858,0.384155 -2.10471,0.458084 -0.0869,0.009 -0.17389,0.02543 -0.26132,0.02177 -0.16436,-0.0069 -0.31022,-0.09454 -0.44316,-0.183848 -0.16232,-0.10905 -0.31732,-0.239427 -0.50766,-0.296025 -0.62019,-0.184416 -1.26253,-0.293978 -1.90841,-0.329151 -0.59373,-0.03233 -1.19332,0.0041 -1.77363,0.140195 -0.68441,0.160512 -1.33647,0.467651 -1.88357,0.911535 -0.57583,0.467198 -1.02215,1.081969 -1.32857,1.754859 -0.37739,0.828735 -0.55928,1.738163 -0.58867,2.645187 -0.012,0.371297 -0.0191,0.74373 0.009,1.1143 0.013,0.169134 0.0231,0.341193 0.0745,0.503563 0.14066,0.444467 0.33008,0.880206 0.61555,1.251684 0.13727,0.17863 0.29101,0.348521 0.47596,0.477809 0.24168,0.168948 0.52019,0.276371 0.79982,0.363714 0.57402,0.179298 1.1679,0.287085 1.76312,0.365984 0.97443,0.129165 1.95814,0.190573 2.94089,0.181202 0.65525,-0.0062 1.31321,-0.03067 1.96048,-0.137432 0.30966,-0.05107 0.61895,-0.12078 0.90816,-0.246727 0.52906,-0.2304 1.0393,-0.50979 1.49993,-0.85853 0.50819,-0.384747 0.93941,-0.88455 1.19282,-1.473789 0.22904,-0.532583 0.29295,-1.132179 0.19026,-1.702654 -0.12856,-0.714206 -0.51315,-1.369104 -1.03811,-1.86563 -0.58113,-0.549655 -1.33583,-0.905777 -2.12415,-1.028591 -0.31655,-0.04932 -0.63898,-0.07193 -0.95888,-0.04794 -0.3972,0.02978 -0.78455,0.151539 -1.13541,0.338755 -0.4671,0.249242 -0.87005,0.597865 -1.26634,0.944629 -0.17755,0.155359 -0.35452,0.311444 -0.53588,0.462374"
       id="path75"
       inkscape:path-effect="#path-effect77"
       inkscape:original-d="m 110.88758,30.494335 c -0.76861,0.159543 -1.52345,0.414655 -2.30584,0.478631 -0.37162,0.03039 -0.65386,-0.371557 -1.01101,-0.478647 -0.99212,-0.297474 -2.23436,-0.43365 -3.2636,-0.271227 -2.82291,0.445489 -4.1402,2.778982 -4.22138,5.456544 -0.0104,0.342191 -0.0239,1.209022 0.0887,1.563574 0.19958,0.628324 0.50632,1.249772 1.02875,1.675252 1.21471,0.989303 6.84045,1.247595 8.35409,0.606284 0.51626,-0.218736 1.01674,-0.486632 1.47216,-0.813697 3.08196,-2.213374 1.14472,-6.206418 -2.39449,-6.206418 -1.38384,0 -2.17147,0.919774 -3.17491,1.755029" />
    <path
       style="fill:none;stroke:#000000;stroke-width:0.264583px;stroke-linecap:butt;stroke-linejoin:miter;stroke-opacity:1"
       d="m 86.590163,14.58189 c -0.309855,-0.06523 -0.611412,-0.197107 -0.930978,-0.192209 -0.211999,0.0032 -0.414109,0.08371 -0.601811,0.17511 -0.434265,0.211459 -0.8326,0.489064 -1.21546,0.781391 -0.719801,0.549593 -1.399867,1.150888 -2.040396,1.790586 -0.353685,0.353226 -0.701828,0.713722 -1.014724,1.104187 -0.158127,0.197328 -0.282143,0.418851 -0.40087,0.641174 -0.479196,0.897322 -0.80653,1.863085 -1.22645,2.787884 -0.16405,0.361291 -0.213929,0.762282 -0.217174,1.155743 -0.0037,0.452429 0.03784,0.903487 0.03883,1.356019 0.0024,1.083239 0.03634,2.174149 0.253084,3.238632 0.155167,0.762048 0.415609,1.509923 0.834092,2.17048 0.105673,0.1668 0.229697,0.322752 0.37807,0.453923 0.307841,0.27215 0.685862,0.443681 1.05361,0.618174 0.253155,0.12012 0.512901,0.233402 0.740997,0.397481 0.337862,0.243038 0.59243,0.581879 0.930053,0.825495 0.120026,0.08661 0.255716,0.148415 0.396956,0.193322 0.988071,0.314155 2.052316,0.359668 3.071168,0.18536 1.023924,-0.175176 2.018432,-0.573357 2.84544,-1.207909 0.366046,-0.280862 0.68918,-0.614894 0.969222,-0.981567 0.388109,-0.508171 0.74595,-1.045443 1.00267,-1.633036 0.133747,-0.306127 0.229784,-0.628497 0.282669,-0.958838 0.120364,-0.751846 0.141573,-1.516703 0.108812,-2.276274 -0.01875,-0.434655 -0.04654,-0.869732 -0.108028,-1.300471 -0.06831,-0.478535 -0.2505,-0.930799 -0.450465,-1.367668 -0.190382,-0.415933 -0.38922,-0.829591 -0.529753,-1.266049 -0.215938,-0.670646 -0.384774,-1.355123 -0.579296,-2.03205 -0.249044,-0.86666 -0.516777,-1.734677 -0.92311,-2.542217 -0.261846,-0.520389 -0.581861,-1.023704 -1.020846,-1.413393 -0.230761,-0.204848 -0.50141,-0.361351 -0.79017,-0.470577 -0.410995,-0.155463 -0.856688,-0.220439 -1.294957,-0.178894 -0.558767,0.05297 -1.087946,0.266385 -1.583193,0.520563"
       id="path79"
       inkscape:path-effect="#path-effect81"
       inkscape:original-d="m 86.590163,14.58189 c -0.301525,-0.06382 -0.596789,-0.175407 -0.904576,-0.191457 -1.108721,-0.05782 -4.506183,3.192851 -5.055029,4.068473 -0.614743,0.980755 -0.962202,2.134503 -1.454425,3.175012 -0.363649,0.768716 -0.195101,1.621554 -0.195101,2.441083 0,1.813035 0.07809,4.107153 1.188365,5.663959 0.477351,0.669332 1.335366,0.854138 2.004277,1.276387 0.445442,0.281186 0.815941,0.869548 1.312535,1.037063 2.317781,0.781855 5.364046,0.07018 6.881926,-1.866717 0.559734,-0.714251 1.181684,-1.654477 1.348002,-2.56872 0.205914,-1.131909 0.167735,-2.496126 0.03548,-3.621747 C 91.63969,23.042665 91.118146,22.306885 90.811561,21.426505 90.178447,19.608476 89.603404,15.720073 87.58344,14.869073 86.513277,14.41822 85.593654,14.62915 84.568153,15.156262" />
    <path
       style="fill:none;stroke:#000000;stroke-width:0.264583px;stroke-linecap:butt;stroke-linejoin:miter;stroke-opacity:1"
       d="M 60.907098,6.6523441 C 60.673876,6.7097563 60.428769,6.6504444 60.217694,6.5463633 59.881996,6.3808307 59.597519,6.133117 59.305533,5.9029705 59.050397,5.7018697 58.791877,5.4947379 58.488744,5.3701875 c -0.16886,-0.069381 -0.354978,-0.09173 -0.536991,-0.065773 -0.609912,0.086977 -1.195731,0.3032994 -1.741313,0.5843996 -0.723904,0.3729771 -1.397321,0.8571469 -1.943863,1.4630452 -0.406772,0.4509487 -0.750999,0.9773946 -0.903725,1.5705652 -0.08122,0.315442 -0.100684,0.6435254 -0.09654,0.9679166 0.01297,1.0152692 0.328779,2.0138232 0.840242,2.8860252 0.384848,0.656284 0.877218,1.252829 1.464956,1.737037 0.444014,0.365801 0.940863,0.670522 1.336594,1.092696 0.192226,0.205071 0.347068,0.443296 0.463518,0.699464 0.175403,0.385852 0.343399,0.781223 0.418065,1.200288 0.03142,0.176374 0.05976,0.359573 0.02516,0.536281 -0.0386,0.197141 -0.133332,0.377598 -0.228949,0.552087 -0.265805,0.485061 -0.596934,0.935547 -0.816412,1.444641 -0.07808,0.181119 -0.151513,0.372764 -0.147855,0.573327 0.0022,0.120294 0.06129,0.238336 0.163026,0.306447 0.136326,0.09127 0.30453,0.09561 0.46091,0.122739 0.650922,0.112914 1.28611,0.312366 1.945241,0.377999 0.380778,0.03792 0.764292,-0.01052 1.138638,-0.07834 0.781498,-0.141575 1.546729,-0.365821 2.290557,-0.642041 0.685786,-0.254666 1.365643,-0.539013 1.990105,-0.922185 0.317482,-0.194808 0.631645,-0.40881 0.874817,-0.694856 0.24852,-0.292337 0.408656,-0.64817 0.520118,-1.012695 0.15355,-0.502169 0.237784,-1.027038 0.453716,-1.508976 0.756285,-1.687952 1.725583,-3.268017 2.705516,-4.83268 0.204282,-0.326178 0.389446,-0.66499 0.610368,-0.980102 0.181692,-0.259156 0.41932,-0.471924 0.653329,-0.682331 0.410787,-0.3693558 0.844192,-0.7226212 1.179879,-1.1650994 0.2062,-0.271798 0.375479,-0.5903979 0.393379,-0.9372736 C 72.013905,7.7171948 71.955167,7.465544 71.826217,7.2562591 71.679589,7.0182824 71.449027,6.8488031 71.216304,6.7019765 70.962481,6.541838 70.698464,6.398209 70.45484,6.2214183 69.919456,5.8329063 69.29226,5.569852 68.636136,5.475157 c -0.763073,-0.1101304 -1.53854,7.237e-4 -2.281426,0.1833505 -1.240407,0.3049346 -2.4311,0.7963274 -3.693009,1.0176702 -0.383879,0.067334 -0.773521,0.092057 -1.162911,0.098107 -0.573497,0.00891 -1.15438,-0.00426 -1.7171,0.1255157 -0.392368,0.090491 -0.767742,0.2689142 -1.068326,0.5399232 -0.03231,0.029126 -0.06376,0.059199 -0.09433,0.090138"
       id="path83"
       inkscape:path-effect="#path-effect85"
       inkscape:original-d="M 60.907098,6.6523441 C 59.914414,6.887811 58.980837,5.1815587 58.015981,5.2961862 56.19892,5.5120587 53.527875,7.2836163 53.297957,9.2689343 c -0.218884,1.8900397 0.706636,3.8425517 2.09296,5.0895857 0.686922,0.617904 1.549916,1.016648 1.951059,1.882667 0.227097,0.490281 0.527272,1.198046 0.478898,1.755029 -0.06587,0.758368 -2.059011,2.83134 -0.76269,3.015461 0.722516,0.102622 1.498301,0.361831 2.217115,0.414828 1.40716,0.103746 5.151578,-1.170956 6.154719,-2.281539 0.689338,-0.76317 0.637006,-1.710801 1.028742,-2.584683 0.907146,-2.023654 2.115246,-3.871598 3.281323,-5.759684 C 70.297719,9.8976827 72.534372,8.8277664 71.886259,7.3703108 71.64929,6.8374193 70.954031,6.5918992 70.520511,6.2694293 67.719273,4.1857511 64.827602,6.626667 61.864893,6.7640321 60.765009,6.8150279 59.500126,6.6381875 58.619037,7.5298617" />
    <path
       style="fill:none;stroke:#000000;stroke-width:0.264583px;stroke-linecap:butt;stroke-linejoin:miter;stroke-opacity:1"
       d="m 36.412405,33.711708 c 0.362255,-0.383383 0.642806,-0.839789 0.840009,-1.328321 0.26749,-0.662654 0.391382,-1.369846 0.538281,-2.065865 0.09546,-0.452274 0.196479,-0.903358 0.297752,-1.35436 0.193238,-0.860554 0.381574,-1.72408 0.646509,-2.565709 0.222099,-0.70555 0.654673,-1.323752 0.866415,-2.033393 0.07066,-0.236799 0.104753,-0.483078 0.112597,-0.730186 0.0097,-0.304281 0.01583,-0.613826 -0.05672,-0.91132 -0.03902,-0.159998 -0.09686,-0.329585 -0.227244,-0.436353 -0.127778,-0.104633 -0.281534,-0.173041 -0.436244,-0.226868 -0.402497,-0.140039 -0.826717,-0.205606 -1.249349,-0.246667 -0.791416,-0.07689 -1.58928,-0.07831 -2.382093,-0.02568 -0.584708,0.03881 -1.169723,0.09963 -1.743472,0.222053 -0.175918,0.03754 -0.347426,0.0919 -0.518364,0.147735 -0.444478,0.145183 -0.912571,0.186933 -1.374599,0.239566 -0.411861,0.04692 -0.827909,0.116566 -1.207578,0.291416 -0.272328,0.125416 -0.512891,0.310157 -0.727381,0.518766 -0.625744,0.608588 -1.167743,1.313604 -1.53153,2.110942 -0.308869,0.676971 -0.473167,1.411803 -0.545017,2.150181 -0.09164,0.941778 -0.05807,1.88925 -0.05035,2.833775 0.0033,0.40383 0.0089,0.807987 -0.01468,1.211496 -0.03905,0.667282 -0.125766,1.336204 -0.06637,2.005174 0.04086,0.460185 0.172789,0.912601 0.396287,1.318789 0.201319,0.36588 0.511817,0.657883 0.84321,0.905056 0.543339,0.405256 1.150105,0.718635 1.774692,0.977584 0.773632,0.320742 1.578373,0.574222 2.404366,0.715502 0.467058,0.07989 0.944216,0.141777 1.417369,0.09394 0.312294,-0.03157 0.620425,-0.09977 0.921271,-0.18807 0.726874,-0.213334 1.40121,-0.599413 1.954869,-1.116947 0.667305,-0.623765 1.15384,-1.417834 1.508973,-2.253825 0.448877,-1.056668 0.712462,-2.181762 0.898302,-3.311453 0.158731,-0.964899 0.281861,-1.93622 0.352817,-2.911151 0.04456,-0.612211 -0.04915,-1.226503 -0.201453,-1.818163 -0.220359,-0.856017 -0.557187,-1.677883 -0.945232,-2.470572 -0.137863,-0.281623 -0.243346,-0.586097 -0.436325,-0.833171 -0.01543,-0.01975 -0.005,-0.02967 0.01241,-0.01085 0.102215,0.110433 0.193163,0.230683 0.287249,0.347988 0.09334,0.116377 0.185257,0.234035 0.283427,0.34642"
       id="path87"
       inkscape:path-effect="#path-effect89"
       inkscape:original-d="m 36.412405,33.711708 c 1.022969,-1.090933 1.145823,-2.361409 1.454425,-3.749379 0.255363,-1.148527 0.517517,-2.383893 0.851374,-3.510058 0.27814,-0.938214 0.960371,-1.738304 0.993267,-2.744228 0.01206,-0.368856 0.05349,-1.185957 -0.319265,-1.45189 -1.031751,-0.73607 -4.970605,-0.563151 -6.207924,-0.127638 -1.193369,0.420045 -2.321031,0.04865 -3.334544,1.021106 -2.531861,2.429284 -2.181637,4.657299 -2.181637,7.801908 0,1.370621 -0.406938,2.731564 0.372475,3.988705 0.932346,1.503815 4.834712,2.831373 6.544926,2.568721 4.519737,-0.694137 5.101651,-5.979367 5.462971,-9.68457 0.159171,-1.632238 -0.776647,-3.758493 -1.560848,-5.169361 -0.140251,-0.252328 0.375732,0.438432 0.567584,0.654148" />
    <path
       style="fill:none;stroke:#000000;stroke-width:0.264583px;stroke-linecap:butt;stroke-linejoin:miter;stroke-opacity:1"
       d="m 34.975712,97.368301 c -0.545704,-0.01806 -1.082067,0.106675 -1.60819,0.237317 -0.389633,0.09675 -0.777909,0.213141 -1.178456,0.250025 -0.385471,0.0355 -0.777027,-0.05866 -1.158486,0.02597 -0.152977,0.03394 -0.296076,0.100197 -0.439793,0.160667 -0.788023,0.331565 -1.560847,0.699589 -2.315287,1.101448 -0.593902,0.316347 -1.183081,0.645822 -1.733504,1.034248 -0.351459,0.24802 -0.665001,0.54533 -0.965707,0.8514 -1.192463,1.21373 -2.119185,2.68069 -2.742663,4.2614 -0.60646,1.53756 -0.931207,3.19817 -0.854349,4.85385 0.02602,0.56057 0.121373,1.11457 0.228782,1.66523 0.165646,0.84922 0.124695,1.72401 0.298539,2.57225 0.08221,0.40113 0.229968,0.78904 0.446398,1.1386 0.402763,0.65051 0.929223,1.22083 1.53302,1.68999 0.810016,0.62939 1.733669,1.08637 2.644734,1.54742 0.219006,0.11083 0.430919,0.23588 0.653168,0.33993 0.290647,0.13607 0.623268,0.14223 0.935499,0.0939 0.490175,-0.0759 0.94634,-0.28233 1.424252,-0.40559 1.45323,-0.37481 2.860773,-0.97512 4.077653,-1.86186 0.995911,-0.72572 1.847917,-1.65824 2.436624,-2.74404 0.396747,-0.73175 0.690966,-1.52419 0.829027,-2.34488 0.104828,-0.62314 0.09021,-1.25836 0.06148,-1.88711 -0.02293,-0.50172 -0.04833,-1.00331 -0.0564,-1.50569 -0.02212,-1.37638 -0.193082,-2.75468 -0.569544,-4.08097 -0.264899,-0.93325 -0.647256,-1.82845 -1.078477,-2.69692 -0.112032,-0.22563 -0.235164,-0.45234 -0.421931,-0.62597 -0.117495,-0.10923 -0.252643,-0.19685 -0.382705,-0.28999 -0.57814,-0.41401 -1.169145,-0.812599 -1.71595,-1.267622 -0.139398,-0.116 -0.262718,-0.250179 -0.40217,-0.367246 -0.04845,-0.04068 -0.04911,-0.110769 0.0075,-0.146206 0.07541,-0.04723 0.168999,-0.02022 0.2477,0.0039 0.134048,0.04109 0.260103,0.107416 0.398044,0.135633"
       id="path91"
       inkscape:path-effect="#path-effect93"
       inkscape:original-d="m 34.975712,97.368301 c -0.947496,-0.02921 -1.796849,0.34522 -2.713749,0.478639 -0.440044,0.06403 -0.961723,-0.08225 -1.383482,0.07977 -1.043607,0.400923 -3.706757,1.675038 -4.682546,2.52087 -3.021011,2.61865 -4.893149,7.28553 -4.008546,11.26409 0.264665,1.19035 0.0531,2.62745 0.709479,3.71747 1.188596,1.97385 2.942943,2.63139 4.824443,3.6377 0.757452,0.40512 1.729904,-0.10114 2.447697,-0.28718 3.463399,-0.89764 6.503091,-3.04991 7.289872,-6.79675 0.217659,-1.03654 0.04506,-2.32259 0.03547,-3.36647 -0.02275,-2.4779 -0.469431,-4.62959 -1.596321,-6.84462 -0.157705,-0.30998 -0.272394,-0.57045 -0.549844,-0.79774 -0.201258,-0.16487 -2.541706,-1.763524 -2.465429,-1.946486 0.08931,-0.214239 0.463298,0.03868 0.691739,0.07977" />
    <path
       style="fill:none;stroke:#000000;stroke-width:0.264583px;stroke-linecap:butt;stroke-linejoin:miter;stroke-opacity:1"
       d="m 50.601946,96.458869 c -0.36418,-0.179804 -0.702827,-0.420106 -1.094751,-0.536264 -0.224156,-0.06643 -0.460809,-0.04065 -0.689436,-0.0191 -0.142171,0.0134 -0.28497,0.01324 -0.427768,0.0097 -1.377352,-0.03399 -2.763962,0.01202 -4.121299,0.264369 -1.113495,0.207013 -2.201447,0.573319 -3.192622,1.128621 -0.27781,0.155642 -0.537641,0.343257 -0.770186,0.561029 -0.525256,0.491887 -0.922939,1.107989 -1.21182,1.76398 -0.248916,0.565239 -0.412776,1.166039 -0.501908,1.777259 -0.07777,0.53332 -0.133563,1.07622 -0.07039,1.61434 0.03719,0.31677 0.12515,0.62706 0.259468,0.91655 0.249456,0.53765 0.615697,1.01358 1.026279,1.43749 0.535598,0.55299 1.144444,1.03534 1.804435,1.43079 0.274245,0.16432 0.554165,0.32197 0.849991,0.44402 0.530366,0.21882 1.105958,0.29795 1.675444,0.32624 0.673694,0.0335 1.34856,0.008 2.022395,0.0427 0.944668,0.049 1.892551,0.13375 2.838135,0.0548 0.678707,-0.0567 1.355877,-0.21014 1.96895,-0.51286 0.299972,-0.14812 0.590332,-0.32112 0.846015,-0.53715 0.269536,-0.22773 0.493574,-0.50288 0.709151,-0.78057 0.202949,-0.26142 0.39978,-0.52749 0.606399,-0.78615 0.270009,-0.33802 0.403861,-0.76876 0.423843,-1.19755 0.02694,-0.57812 -0.113485,-1.15152 -0.320045,-1.68734 -0.320531,-0.83146 -0.787465,-1.60037 -1.324434,-2.308583 -0.59959,-0.790799 -1.280454,-1.52555 -2.058895,-2.142488 -0.452482,-0.358606 -0.933585,-0.695172 -1.473439,-0.906845 -0.295157,-0.115729 -0.615552,-0.203567 -0.934669,-0.160633 -0.159618,0.02147 -0.315112,0.08297 -0.439441,0.186538"
       id="path95"
       inkscape:path-effect="#path-effect97"
       inkscape:original-d="m 50.601946,96.458869 c -0.354738,-0.1755 -0.689642,-0.3987 -1.064215,-0.526502 -0.324583,-0.110746 -0.68593,-0.0062 -1.028745,-0.01595 -2.534217,-0.07237 -5.350688,0.11943 -7.591404,1.483807 -1.300636,0.791961 -2.088134,2.447689 -2.305802,3.877006 -0.121393,0.79714 -0.216773,1.64869 0.07095,2.42514 0.536766,1.44851 2.265979,2.83703 3.618331,3.47814 1.135401,0.53827 2.459537,0.37383 3.671543,0.43078 1.995461,0.0938 4.028755,0.39575 5.764504,-0.92538 0.498924,-0.37974 0.967853,-1.11229 1.365739,-1.59547 2.217145,-2.69243 -4.331965,-9.707749 -6.101498,-8.248651" />
    <path
       style="fill:none;stroke:#000000;stroke-width:0.264583px;stroke-linecap:butt;stroke-linejoin:miter;stroke-opacity:1"
       d="m 18.249788,96.985385 c 0.820273,-0.584548 1.592763,-1.249966 2.217138,-2.044654 0.504834,-0.64254 0.902965,-1.372051 1.144753,-2.153332 0.08899,-0.287557 0.16454,-0.579093 0.239135,-0.87064 0.200709,-0.784452 0.37419,-1.582288 0.406863,-2.393567 0.02178,-0.540774 -0.01763,-1.093119 -0.200113,-1.606594 -0.137758,-0.387635 -0.376205,-0.73984 -0.693863,-1.003997 -0.438821,-0.364913 -0.974967,-0.603709 -1.533755,-0.713237 -0.716012,-0.140345 -1.456121,-0.08978 -2.168205,0.04754 -1.008513,0.194478 -1.976766,0.550735 -2.9247,0.938916 -0.583284,0.238856 -1.161261,0.490426 -1.746758,0.724012 -0.710165,0.283323 -1.427101,0.56511 -2.079173,0.969265 -0.428721,0.265722 -0.828093,0.590092 -1.1330057,0.995224 -0.3411213,0.453241 -0.5764885,0.973851 -0.7932686,1.494799 -0.1204885,0.289548 -0.2442463,0.577692 -0.3662505,0.866625 -0.2184418,0.517318 -0.4209054,1.047231 -0.5174225,1.602665 -0.073123,0.420804 -0.066857,0.858592 0.048452,1.271786 0.1397556,0.500793 0.4267463,0.947205 0.7601566,1.340633 0.2609898,0.307971 0.5480033,0.593356 0.8496243,0.861286 0.4079174,0.362353 0.8611074,0.684308 1.3722534,0.884053 0.265199,0.103634 0.545334,0.164262 0.828073,0.196085 0.832331,0.09368 1.676471,0.03085 2.497224,-0.125454 0.795519,-0.151499 1.570558,-0.399145 2.318287,-0.709763 0.459148,-0.190737 0.920767,-0.376198 1.390362,-0.539687 0.116482,-0.04055 0.228451,-0.0935 0.332776,-0.159509 0.275473,-0.174295 0.546347,-0.355735 0.820462,-0.532172 0.339728,-0.21867 0.681336,-0.434408 1.023915,-0.64858"
       id="path99"
       inkscape:path-effect="#path-effect101"
       inkscape:original-d="m 18.249788,96.985385 c 1.632817,-1.163434 2.91367,-2.524908 3.440968,-4.467352 0.430262,-1.584984 1.172759,-4.344511 -0.301531,-5.584182 -2.172805,-1.827022 -5.686032,-0.147024 -7.839717,0.749874 -1.155513,0.481211 -2.59376,0.945052 -3.494177,1.866718 -0.672243,0.688104 -0.9891355,1.659815 -1.3657443,2.520857 -0.8868875,2.027693 -1.0022792,3.20131 0.6562678,4.85026 0.6862605,0.682289 1.4637975,1.312563 2.4654335,1.451895 1.575821,0.219205 3.397382,-0.163565 4.842179,-0.765828 2.669862,-1.112936 0.669809,-0.04308 3.689281,-1.930538" />
    <path
       style="fill:none;stroke:#000000;stroke-width:0.264583px;stroke-linecap:butt;stroke-linejoin:miter;stroke-opacity:1"
       d="m 90.243976,45.419425 c -0.70786,-0.126793 -1.436055,-0.139646 -2.14802,-0.04093 -0.667794,0.09259 -1.331817,0.277957 -1.917544,0.617138 -0.316108,0.183051 -0.607147,0.404832 -0.906818,0.612791 -0.346417,0.240399 -0.703775,0.475363 -1.102947,0.618723 -0.131585,0.04726 -0.267858,0.0806 -0.406501,0.09989 -0.436137,0.06067 -0.877156,0.09143 -1.308849,0.179194 -0.08114,0.0165 -0.1608,0.03923 -0.240921,0.06213 -0.01665,0.0048 -0.03243,0.02255 -0.0034,0.01947 0.253387,-0.02684 0.965786,0.10785 0.762828,-0.04641 -0.03447,-0.0262 -0.101027,-0.0421 -0.140341,-0.01976 -0.03707,0.02107 -0.02142,0.07548 -0.03792,0.114319 -0.05277,0.124268 -0.165594,0.206028 -0.254263,0.303041 -0.07754,0.08484 -0.132584,0.187284 -0.183824,0.289228 -0.205179,0.408209 -0.293746,0.86549 -0.317984,1.318857 -0.02837,0.530616 0.03262,1.063254 0.152966,1.580024 0.14932,0.64118 0.361644,1.266624 0.612401,1.874745 0.135441,0.328464 0.278816,0.654139 0.447167,0.967381 0.19655,0.36571 0.41259,0.726012 0.534305,1.125829 0.09515,0.312549 0.131306,0.642634 0.106157,0.968654 -0.03532,0.457904 -0.128888,0.908433 -0.203962,1.360814 -0.08445,0.508861 -0.165036,1.023944 -0.138522,1.541219 0.01797,0.35063 0.09221,0.708984 0.28538,1.007905 0.123234,0.190697 0.301433,0.338644 0.496068,0.454063 0.447788,0.265538 0.89266,0.544031 1.379579,0.73276 0.159165,0.06169 0.320948,0.12327 0.490272,0.147565 0.255707,0.03669 0.515775,0.01431 0.770255,-0.0199 0.573876,-0.07714 1.137768,-0.213888 1.696777,-0.362283 0.786491,-0.208783 1.554397,-0.482081 2.339653,-0.694705 0.08682,-0.02351 0.172784,-0.05459 0.2467,-0.107413 0.159809,-0.114214 0.260588,-0.291734 0.32809,-0.472265 0.108313,-0.289676 0.151765,-0.59846 0.180014,-0.904784 0.06135,-0.665278 -0.01961,-1.332158 -0.101774,-1.991902 -0.07673,-0.616094 -0.148451,-1.236744 -0.114926,-1.85896 0.05097,-0.945911 0.240915,-1.880797 0.24342,-2.830004 0.0031,-1.180496 -0.193556,-2.346943 -0.267328,-3.523513 -0.01726,-0.275229 -0.04534,-0.549697 -0.06041,-0.825094 -0.02044,-0.37345 -0.04093,-0.750272 0.0076,-1.121956 0.02128,-0.162844 0.04639,-0.331685 0.130013,-0.475545 0.03796,-0.06531 0.09551,-0.12544 0.171916,-0.141897"
       id="path103"
       inkscape:path-effect="#path-effect105"
       inkscape:original-d="m 90.243976,45.419425 c -1.333074,-0.242353 -3.03413,-0.08375 -4.221384,0.670102 -0.64665,0.410591 -1.348341,1.041128 -2.110701,1.21257 -0.243141,0.05468 -1.720484,0.190547 -1.720484,0.287184 0,0.0021 0.391998,-0.04786 0.78043,-0.04786 0.05321,0 -0.159633,-0.05321 -0.159633,0 0,0.195127 -0.230471,0.315169 -0.337005,0.478647 -0.48464,0.74368 -0.50949,1.824124 -0.37247,2.664452 0.149696,0.918064 0.553468,2.027383 0.940054,2.871867 0.349131,0.762664 0.790027,1.255122 0.851376,2.137944 0.08753,1.259639 -1.065453,3.845227 0.390202,4.70667 0.546243,0.32326 1.22654,0.749321 1.844641,0.893466 0.952211,0.222065 3.977632,-0.793792 4.948605,-1.084924 0.515797,-0.154654 0.62634,-0.943327 0.674008,-1.372113 0.143499,-1.290841 -0.265536,-2.54926 -0.212847,-3.829161 0.03951,-0.959813 0.238358,-1.904521 0.248314,-2.871867 0.01241,-1.204711 -0.224766,-2.373249 -0.266047,-3.573875 -0.01392,-0.405069 -0.283345,-2.465126 0.248312,-2.584678" />
    <path
       style="fill:none;stroke:#000000;stroke-width:0.264583px;stroke-linecap:butt;stroke-linejoin:miter;stroke-opacity:1"
       d="m 83.574886,60.959415 c -0.271372,-0.07259 -0.531484,-0.192506 -0.813491,-0.221617 -0.219305,-0.02264 -0.435108,0.04376 -0.637084,0.1224 -0.205167,0.07988 -0.407424,0.168987 -0.621664,0.223785 -0.801403,0.204983 -1.612695,0.394341 -2.44081,0.444989 -0.625405,0.03825 -1.261096,-0.01431 -1.861278,-0.20373 -0.142938,-0.04511 -0.283989,-0.101554 -0.408283,-0.187097 -0.167925,-0.115572 -0.294061,-0.281446 -0.391651,-0.458397 -0.108532,-0.19679 -0.197642,-0.403483 -0.288131,-0.608897 -0.193834,-0.44001 -0.382876,-0.88432 -0.514646,-1.347576 -0.08514,-0.29934 -0.132977,-0.609303 -0.138225,-0.920633 -0.0061,-0.363919 0.02224,-0.727164 0.03488,-1.090656 0.01261,-0.362524 0.02239,-0.725675 0.0074,-1.088148 -0.01396,-0.337125 -0.09268,-0.666352 -0.156579,-0.996327 -0.05439,-0.280867 -0.08785,-0.570108 -0.04685,-0.855383 0.04526,-0.314854 0.178488,-0.61248 0.360597,-0.871775 0.250344,-0.35645 0.555606,-0.670577 0.874189,-0.965882 0.579243,-0.536918 1.204116,-1.022837 1.849512,-1.477145 0.539191,-0.379548 1.093363,-0.738264 1.664702,-1.067921 0.171405,-0.0989 0.349896,-0.185233 0.534186,-0.257564 0.374676,-0.147055 0.770969,-0.242292 1.126247,-0.436292 0.127404,-0.06957 0.248241,-0.151264 0.359368,-0.244708"
       id="path107"
       inkscape:path-effect="#path-effect109"
       inkscape:original-d="m 83.574886,60.959415 c -0.277876,-0.07446 -0.546825,-0.200933 -0.833628,-0.223364 -0.410316,-0.03209 -0.789765,0.2326 -1.188378,0.335044 -1.426528,0.366623 -3.051908,0.733499 -4.487447,0.207415 -0.49597,-0.181761 -0.660673,-0.56175 -0.869109,-1.021107 -1.061646,-2.339707 -0.653404,-2.237769 -0.69174,-4.547121 -0.01545,-0.931113 -0.474829,-1.566735 -0.03547,-2.488951 0.595228,-1.24937 3.447663,-3.2233 4.718015,-3.908928 0.666816,-0.359894 1.301414,-0.375711 1.880119,-0.861562" />
    <path
       style="fill:none;stroke:#000000;stroke-width:0.264583px;stroke-linecap:butt;stroke-linejoin:miter;stroke-opacity:1"
       d="m 139.91354,65.08878 c -0.38936,-0.359953 -0.85542,-0.642607 -1.36713,-0.789752 -0.5057,-0.145417 -1.04541,-0.148354 -1.55958,-0.04608 -0.35865,0.07134 -0.7093,0.18466 -1.04099,0.338123 -0.3452,0.159715 -0.6682,0.370368 -1.03343,0.484568 -0.15037,0.04702 -0.3066,0.07022 -0.46071,0.101242 -0.95915,0.193049 -1.92133,0.400182 -2.83779,0.74484 -0.24758,0.09311 -0.51685,0.101646 -0.77807,0.08509 -0.40367,-0.02558 -0.80397,-0.110535 -1.21005,-0.09225 -0.14607,0.0066 -0.28933,0.03826 -0.43005,0.07733 -0.68806,0.191035 -1.37666,0.401319 -2.0141,0.728357 -0.49497,0.253943 -0.9538,0.59207 -1.30207,1.029897 -0.33432,0.420284 -0.55143,0.926314 -0.65847,1.450553 -0.0552,0.270159 -0.0909,0.543982 -0.11759,0.818258 -0.0379,0.389988 -0.065,0.784138 -0.0251,1.174746 0.0206,0.201889 0.0483,0.41022 0.14457,0.59101 0.0519,0.09745 0.11905,0.186015 0.18748,0.272289 0.15439,0.194657 0.34682,0.35806 0.56251,0.481329 0.25462,0.145518 0.52758,0.254396 0.78911,0.386457 0.20352,0.102767 0.39567,0.22596 0.59996,0.327576 0.59742,0.297164 1.26439,0.46493 1.93407,0.445659 0.66799,-0.01922 1.32279,-0.234305 1.89042,-0.583435 0.71441,-0.439408 1.2924,-1.075923 1.73024,-1.786842 0.17092,-0.277524 0.31222,-0.571651 0.44759,-0.86795 0.16296,-0.356695 0.36518,-0.698895 0.46957,-1.079427 0.0917,-0.334359 0.10829,-0.683004 0.11729,-1.027833 0.008,-0.306575 0.0234,-0.616817 0.11032,-0.912904 0.0807,-0.27514 0.21047,-0.537499 0.39225,-0.760484 0.14975,-0.183691 0.33493,-0.333543 0.5217,-0.478675 0.16353,-0.127073 0.29649,-0.297765 0.4797,-0.394571 0.0189,-0.01 0.0859,-0.05414 0.0741,-0.01945 -0.018,0.05306 -0.0486,0.101108 -0.0774,0.148964 -0.19933,0.332044 -0.46743,0.614405 -0.72419,0.90173 -0.16632,0.18612 -0.3313,0.374589 -0.47229,0.581033"
       id="path115"
       inkscape:path-effect="#path-effect117"
       inkscape:original-d="m 139.91354,65.08878 c -1.13359,-1.042533 -2.46609,-1.133015 -3.86665,-0.54246 -0.43254,0.182383 -0.84558,0.483061 -1.31252,0.574371 -1.10438,0.215966 -2.11238,0.452218 -3.15718,0.813692 -0.69752,0.241326 -1.57337,-0.162899 -2.28806,0.03191 -1.99595,0.544055 -3.76962,1.216078 -4.11497,3.494101 -0.088,0.58086 -0.24112,1.892591 0.0887,2.393227 0.50417,0.7653 0.99543,0.763011 1.75595,1.212562 2.66969,1.578081 5.19388,0.01257 6.31434,-2.536815 0.18715,-0.425807 0.43401,-0.817446 0.53212,-1.276381 0.17907,-0.837687 -0.0508,-1.440511 0.37247,-2.249633 0.16333,-0.312214 0.42537,-0.577337 0.70948,-0.781786 0.18769,-0.135067 0.67406,-0.604134 0.56758,-0.39887 -0.29658,0.571699 -0.88862,1.051425 -1.25932,1.595485" />
    <path
       style="fill:none;stroke:#000000;stroke-width:0.264583px;stroke-linecap:butt;stroke-linejoin:miter;stroke-opacity:1"
       d="m 133.65241,74.10325 c 0.75022,0.368826 1.54416,0.653384 2.3638,0.820565 0.71978,0.146813 1.46435,0.207895 2.19433,0.107157 0.27431,-0.03786 0.54768,-0.09279 0.80957,-0.183589 0.47887,-0.166035 0.90724,-0.44699 1.38449,-0.617714 0.47427,-0.169659 0.96034,-0.318724 1.40174,-0.566123 0.28449,-0.159452 0.54915,-0.367023 0.73373,-0.639472 0.16331,-0.241052 0.24325,-0.529934 0.26262,-0.819279 0.0169,-0.252085 -0.0419,-0.505643 -0.15321,-0.731513 -0.15379,-0.311998 -0.38963,-0.574035 -0.6375,-0.814282 -0.3106,-0.301045 -0.65228,-0.568187 -0.95912,-0.873249 -0.14701,-0.146159 -0.27885,-0.308019 -0.38535,-0.486266 -0.21705,-0.363286 -0.34707,-0.770054 -0.45438,-1.177062 -0.1446,-0.548455 -0.23596,-1.111391 -0.41751,-1.649562 -0.0481,-0.142555 -0.0965,-0.286084 -0.165,-0.420262 -0.1028,-0.201225 -0.25884,-0.370508 -0.35928,-0.572538 -0.0176,-0.0354 -0.0162,-0.141104 -0.0423,-0.111121 -0.0272,0.03132 -0.0308,0.07856 -0.0309,0.118645 -2.5e-4,0.06944 0.0119,0.140338 0.0436,0.203692 0.0231,0.04618 0.0705,0.01963 0.10226,-0.0032 0.22616,-0.16242 0.37789,-0.40182 0.56961,-0.59932"
       id="path119"
       inkscape:path-effect="#path-effect121"
       inkscape:original-d="m 133.65241,74.10325 c 1.51089,0.745728 3.55435,1.280475 5.25013,0.781786 0.50531,-0.148598 0.9612,-0.459166 1.45443,-0.638191 1.0102,-0.366668 2.40738,-0.711801 2.44769,-2.090081 0.0329,-1.125742 -1.32071,-1.833989 -1.93332,-2.568729 -0.73865,-0.885912 -0.75181,-2.411391 -1.20611,-3.462186 -0.0978,-0.226283 -0.27057,-0.422958 -0.39022,-0.638199 -0.02,-0.03604 -0.0332,-0.147728 -0.0532,-0.111681 -0.0561,0.100986 -0.008,0.398449 0.0887,0.33505 0.24147,-0.158501 0.40203,-0.414827 0.60305,-0.622239" />
    <path
       style="fill:none;stroke:#000000;stroke-width:0.264583px;stroke-linecap:butt;stroke-linejoin:miter;stroke-opacity:1"
       d="m 148.83522,60.398064 c 0.53121,0.579975 1.17417,1.039234 1.79645,1.514315 0.55364,0.422678 1.10418,0.863465 1.53938,1.412372 0.29838,0.376337 0.52363,0.809358 0.66182,1.270117 0.23376,0.779407 0.31976,1.594192 0.35079,2.404821 0.0142,0.371785 0.009,0.743946 0.016,1.115869 0.0114,0.618672 0.13914,1.226665 0.26465,1.830145 0.12506,0.6013 0.23797,1.210092 0.23284,1.826899 -0.005,0.599741 -0.11959,1.207931 -0.40091,1.742359 -0.22823,0.433572 -0.57692,0.801373 -0.996,1.05552 -0.50402,0.305656 -1.0914,0.449952 -1.67548,0.489445 -0.5281,0.03571 -1.0626,-0.0472 -1.55696,-0.236647 -0.60555,-0.232053 -1.14048,-0.609987 -1.64672,-1.008659 -0.56767,-0.447051 -1.1041,-0.938655 -1.71745,-1.323408 -0.46333,-0.290647 -0.9666,-0.509329 -1.43991,-0.782366 -0.36803,-0.212305 -0.72406,-0.459658 -0.99884,-0.788368 -0.13742,-0.164389 -0.23859,-0.355119 -0.3208,-0.552111 -0.16227,-0.388855 -0.26122,-0.799873 -0.40543,-1.195151 -0.14984,-0.410697 -0.30002,-0.824027 -0.38665,-1.253514 -0.0553,-0.274321 -0.0735,-0.562916 0.002,-0.835523 0.0777,-0.279742 0.223,-0.53354 0.35671,-0.789023 0.23216,-0.443591 0.42699,-0.905874 0.59311,-1.378231 0.24244,-0.68936 0.55471,-1.359616 0.98442,-1.953636 0.31953,-0.441712 0.71131,-0.825749 1.13002,-1.174147 0.48599,-0.404379 0.96381,-0.820126 1.47937,-1.187098 0.43016,-0.306187 0.88204,-0.592356 1.37937,-0.775855 0.34552,-0.127487 0.72194,-0.205898 1.08956,-0.142704 0.0436,0.0075 0.0869,0.01699 0.12967,0.02853"
       id="path123"
       inkscape:path-effect="#path-effect125"
       inkscape:original-d="m 148.83522,60.398064 c 1.29781,1.420312 3.37003,2.183842 3.97308,4.116342 0.35694,1.143844 0.39021,2.309225 0.39021,3.494109 0,1.146527 0.38524,2.138558 0.47889,3.25478 0.16942,2.019324 -0.73889,3.552036 -2.87338,3.781292 -2.21365,0.237758 -3.39247,-1.40322 -5.00182,-2.488953 -0.82502,-0.556596 -2.08619,-0.928582 -2.66054,-1.80289 -0.27813,-0.423407 -0.42969,-1.111715 -0.60305,-1.579528 -0.90288,-2.436487 -0.24472,-1.933903 0.54984,-4.212074 0.43971,-1.260739 1.01545,-2.263788 2.07522,-3.127145 0.91624,-0.746424 2.76408,-2.491314 4.13271,-2.121987" />
    <path
       style="fill:none;stroke:#000000;stroke-width:0.264583px;stroke-linecap:butt;stroke-linejoin:miter;stroke-opacity:1"
       d="m 123.24083,4.9992811 c -0.60989,0.4154473 -1.14531,0.9518495 -1.51339,1.5953427 -0.34097,0.5961031 -0.51923,1.2765048 -0.558,1.9602893 -0.0359,0.6335442 0.0498,1.2674231 0.18726,1.8852849 0.11994,0.539185 0.24939,1.083569 0.49869,1.580243 0.18904,0.376615 0.46132,0.711275 0.79566,0.968782 0.44627,0.343717 0.98183,0.555129 1.53025,0.670175 0.72372,0.15182 1.4668,0.154442 2.20292,0.162083 0.59505,0.0062 1.18823,0.06175 1.78309,0.07449 0.51547,0.01104 1.03573,3.89e-4 1.54266,-0.103969 0.35027,-0.07211 0.68031,-0.217809 0.99653,-0.380856 0.69132,-0.356457 1.33118,-0.806309 1.93021,-1.300438 0.68742,-0.56704 1.33538,-1.187105 1.89395,-1.882295 0.32027,-0.3986056 0.62098,-0.8190661 0.83468,-1.285604 0.24633,-0.5377621 0.3492,-1.1371238 0.31105,-1.726933 -0.048,-0.7426005 -0.29858,-1.4564709 -0.62093,-2.1215895 -0.51337,-1.0592682 -1.21114,-2.0120236 -1.83603,-3.0054878 -0.47967,-0.7625911 -0.91249,-1.55965344 -1.48288,-2.26054394 -0.25055,-0.30787639 -0.51561,-0.6145676 -0.84718,-0.83480816 -0.19828,-0.1317057 -0.41612,-0.2307733 -0.63441,-0.3238772 -0.54585,-0.2328172 -1.10598,-0.4342328 -1.67904,-0.5882065 -0.3133,-0.08418 -0.62968,-0.1726 -0.95445,-0.1907921 -0.0923,-0.00517 -0.2683,-0.080144 -0.27772,0.012612 -0.004,0.035235 0.0615,0.049244 0.0926,0.06367 0.057,0.026482 0.1134,0.055573 0.15758,0.1031297 0.19089,0.205481 0.38001,0.4189366 0.50396,0.6732957 0.10246,0.2102625 0.18926,0.42763515 0.28594,0.64056615 0.012,0.0264083 0.0241,0.0527806 0.0362,0.0791165"
       id="path127"
       inkscape:path-effect="#path-effect129"
       inkscape:original-d="m 123.24083,4.9992811 c -1.88213,1.2878636 -2.3839,3.1411156 -1.91558,5.2969939 0.26838,1.235517 0.52499,2.284918 1.72048,2.951642 1.02963,0.574219 2.26385,0.56011 3.40549,0.574372 1.05795,0.01322 2.62681,0.237653 3.6538,-0.143595 1.7644,-0.654991 4.24064,-2.85415 5.12598,-4.4673444 1.39687,-2.5452586 -0.76147,-5.1230826 -2.05748,-7.195623 -0.62254,-0.9955511 -1.308,-2.28442216 -2.25259,-2.99950187 -0.50122,-0.37943773 -2.93863,-1.24689093 -3.56512,-1.11683773 -0.0838,0.017395 0.15426,0.081199 0.21283,0.1435946 0.54827,0.584039 0.49387,0.6452604 0.85138,1.419977" />
    <path
       style="fill:none;stroke:#000000;stroke-width:0.264583px;stroke-linecap:butt;stroke-linejoin:miter;stroke-opacity:1"
       d="m 117.47634,0.64361543 c 0.63102,0.34864975 1.19268,0.82997697 1.61214,1.41800367 0.32116,0.4502246 0.54677,0.9689431 0.64875,1.5138321 0.0882,0.4714001 0.16874,0.9474347 0.17181,1.4281609 0.002,0.302119 -0.0264,0.6096702 -0.13754,0.8933237 -0.13982,0.35683 -0.36634,0.6735039 -0.62349,0.9547713 -0.37804,0.4135001 -0.8218,0.7657147 -1.30378,1.0500747 -0.3893,0.2296806 -0.80363,0.4278085 -1.24551,0.5293035 -0.15973,0.036689 -0.32284,0.06815 -0.48725,0.06557 -0.26686,-0.00419 -0.51953,-0.099185 -0.77461,-0.1664332 -0.15734,-0.041481 -0.31935,-0.070893 -0.48298,-0.064945 -0.28931,0.010516 -0.57558,0.071206 -0.86578,0.062613 -0.11082,-0.00328 -0.22207,-0.023235 -0.32338,-0.070165 -0.20102,-0.09312 -0.39282,-0.2048108 -0.58259,-0.3186575 -0.40293,-0.2417196 -0.80199,-0.4913037 -1.18141,-0.7686027 -0.13697,-0.1001055 -0.27396,-0.2012312 -0.39845,-0.3170014 -0.0338,-0.031441 -0.059,-0.070115 -0.0806,-0.110843 -0.12737,-0.2401867 -0.18019,-0.5094159 -0.24085,-0.7718473 -0.056,-0.2421307 -0.12484,-0.486128 -0.25832,-0.6985942 -0.13197,-0.2100677 -0.32147,-0.3750718 -0.51633,-0.5251252 -0.21636,-0.1666115 -0.44511,-0.3245936 -0.61604,-0.5410364 -0.093,-0.1178275 -0.14841,-0.2586051 -0.20974,-0.3955753 -0.0671,-0.1498539 -0.14161,-0.2962864 -0.21321,-0.4440229 -0.26401,-0.5447542 -0.53076,-1.0893844 -0.75053,-1.6537227 -0.0855,-0.2195543 -0.17859,-0.4392555 -0.22095,-0.6716036 -0.0138,-0.0758546 -0.0277,-0.1550509 -0.0106,-0.23202065 0.013,-0.0587501 0.0794,-0.0671784 0.12795,-0.0774251 0.18137,-0.0382799 0.36846,-0.0226297 0.55075,1.9408e-4 0.1975,0.0247276 0.39263,0.0659783 0.59057,0.0872766"
       id="path131"
       inkscape:path-effect="#path-effect133"
       inkscape:original-d="m 117.47634,0.64361543 c 1.08027,0.59505277 2.01408,1.62735697 2.25259,2.88781977 0.11718,0.6192878 0.27546,1.5295518 0.10641,2.1698564 -0.33763,1.2787969 -2.31813,2.6888977 -3.61832,2.7920913 -0.41296,0.032775 -0.78208,-0.1800082 -1.18838,-0.22337 -0.36156,-0.038586 -0.95518,0.1363035 -1.29479,0.015957 -0.38646,-0.1369446 -2.14938,-1.25984 -2.28807,-1.4997525 -0.26686,-0.4616241 -0.22725,-1.0348534 -0.51437,-1.4997522 -0.37877,-0.6132852 -1.11461,-0.7480271 -1.348,-1.4678401 -0.0432,-0.1332958 -1.50429,-2.93689515 -1.1529,-3.06332693 0.33725,-0.12134638 0.87472,0.0289263 1.22384,0.0638191" />
    <path
       style="fill:none;stroke:#000000;stroke-width:0.264583px;stroke-linecap:butt;stroke-linejoin:miter;stroke-opacity:1"
       d="m 109.65437,0.81911782 c -1.18237,-0.24991076 -2.33731,-0.76732754 -3.5474,-0.74987753 -0.0602,8.6753e-4 -0.11737,0.02485592 -0.17264,0.04629752 -0.24381,0.0945786 -0.47822,0.21125771 -0.71492,0.32208528 -0.0945,0.0442285 -0.18472,0.096624 -0.27098,0.15535544 -0.46259,0.3149624 -0.80726,0.76952087 -1.2686,1.08691027 -0.12769,0.087848 -0.26746,0.1554817 -0.40755,0.2209205 -0.97927,0.4574204 -1.96852,0.8953304 -2.92724,1.3948397 -0.24395,0.1271014 -0.497831,0.240746 -0.720418,0.402949 -0.04652,0.033903 -0.113154,0.058028 -0.131048,0.1139787 -0.08298,0.2594719 -0.08672,0.5372808 -0.06484,0.8062551 0.04486,0.5513777 0.180755,1.0910819 0.344144,1.6178939 0.300452,0.968742 0.688352,1.9084036 1.117172,2.8266706 0.38806,0.8309831 0.79647,1.6543617 1.2695,2.4403637 0.11524,0.191488 0.22627,0.386462 0.35862,0.56673 0.14704,0.200274 0.34704,0.354631 0.56025,0.479043 0.26395,0.154019 0.54545,0.278972 0.7937,0.459063 0.46734,0.339033 1.01648,0.570943 1.59212,0.63935 0.61987,0.07366 1.25023,-0.04716 1.82516,-0.280337 0.72862,-0.295506 1.38271,-0.750357 1.96946,-1.268838 0.45288,-0.400188 0.88979,-0.824626 1.25375,-1.306934 0.22463,-0.297672 0.43855,-0.603302 0.65065,-0.9099655 0.35978,-0.520191 0.72623,-1.0369085 1.05151,-1.5794943 0.0823,-0.1373478 0.16138,-0.2768367 0.23312,-0.4204315 0.0129,-0.025722 7.8e-4,-0.1255475 -0.0173,-0.076404 -0.0147,0.039994 0.0181,0.082167 0.0372,0.1163774 0.0357,0.064044 0.0768,0.124915 0.11318,0.1885492"
       id="path139"
       inkscape:path-effect="#path-effect141"
       inkscape:original-d="m 109.65437,0.81911782 c -1.18247,-0.24995918 -2.35092,-0.57919289 -3.5474,-0.74987753 -0.11401,-0.01626471 -0.96155,0.40218005 -1.01101,0.43078058 -0.61873,0.35778977 -0.98876,0.97342093 -1.63179,1.30829813 -0.32305,0.1682383 -3.894446,1.7627397 -3.973075,2.0103053 -0.53108,1.6721008 2.005735,6.7245057 2.979805,8.1848167 0.35906,0.538293 0.89967,0.644232 1.40122,1.005155 2.39698,1.724914 5.01795,-0.255655 6.61586,-2.185812 0.21118,-0.255093 2.10884,-2.9635399 1.96881,-3.0154551 -0.10238,-0.037959 0.0711,0.2077003 0.12416,0.3031392" />
    <path
       style="fill:none;stroke:#000000;stroke-width:0.264583px;stroke-linecap:butt;stroke-linejoin:miter;stroke-opacity:1"
       d="m 139.52334,1.6806777 c -0.2062,-0.074151 -0.40515,-0.1661779 -0.60539,-0.2548154 -0.0926,-0.041009 -0.19497,-0.083808 -0.29796,-0.058712 -0.11627,0.028331 -0.21996,0.091094 -0.32278,0.1499026 -0.23875,0.1365538 -0.47625,0.2760408 -0.69677,0.4413987 -0.77704,0.582657 -1.35927,1.4029176 -1.7119,2.3036894 -0.44244,1.1301791 -0.54568,2.3970004 -0.25951,3.5788842 0.20232,0.8355717 0.61794,1.6236004 1.22211,2.2392254 0.33064,0.33691 0.72054,0.610548 1.13479,0.835978 1.30826,0.711935 2.7352,1.206872 4.20578,1.446648 1.24356,0.202761 2.51636,0.235777 3.76663,0.0828 0.69165,-0.08463 1.38447,-0.234998 2.01567,-0.538619 0.47645,-0.229183 0.90588,-0.56278 1.22483,-0.986929 0.35941,-0.477952 0.56754,-1.0531653 0.67937,-1.6363085 0.14476,-0.7548271 0.16226,-1.5286855 0.12117,-2.2937664 -0.01,-0.1843284 -0.007,-0.3702805 -0.0341,-0.5529012 -0.0518,-0.3481271 -0.11964,-0.6936823 -0.18973,-1.0384934 -0.1604,-0.7890669 -0.326,-1.5783854 -0.55031,-2.3519645 -0.0897,-0.3092798 -0.16902,-0.6255319 -0.31377,-0.9139545 -0.0428,-0.085342 -0.0864,-0.174978 -0.15956,-0.2395637 -0.0297,-0.026233 -0.0767,-0.025859 -0.1048,0.00432 -0.0424,0.045599 -0.0604,0.1078333 -0.078,0.1661014"
       id="path143"
       inkscape:path-effect="#path-effect145"
       inkscape:original-d="m 139.52334,1.6806777 c -0.96105,-0.3528531 -0.67097,-0.4840084 -1.45444,-0.03191 -3.21807,1.8569835 -3.63714,7.2965903 -0.1951,9.2059283 2.38854,1.324947 5.00452,1.866867 7.7333,1.627391 3.84167,-0.337142 4.61935,-2.313825 4.36329,-5.99901 -0.0234,-0.3374435 -1.05258,-5.67388257 -1.40123,-4.4194819" />
    <path
       style="fill:none;stroke:#000000;stroke-width:0.264583px;stroke-linecap:butt;stroke-linejoin:miter;stroke-opacity:1"
       d="m 148.56916,9.2911249 c 0.9752,0.5652844 1.98892,1.0743021 3.05949,1.4334261 0.89365,0.299775 1.82955,0.488779 2.77401,0.502576 0.61059,0.0089 1.22547,-0.0437 1.81722,-0.195162 0.32318,-0.08272 0.62525,-0.228214 0.92465,-0.372183 0.27646,-0.132939 0.55285,-0.269679 0.8466,-0.361255 0.4029,-0.125603 0.81662,-0.21847 1.21026,-0.3720086 0.13312,-0.051923 0.26865,-0.1051288 0.38391,-0.1909057 0.0406,-0.030236 0.0797,-0.064893 0.10492,-0.1094359"
       id="path147"
       inkscape:path-effect="#path-effect149"
       inkscape:original-d="m 148.56916,9.2911249 c 2.32796,1.3506281 4.87475,2.3659461 7.59141,1.7550291 0.56262,-0.126519 1.11648,-0.485678 1.64953,-0.68606 0.50498,-0.189833 1.70761,-0.4235535 1.88012,-0.7339172" />
    <path
       style="fill:none;stroke:#000000;stroke-width:0.264583px;stroke-linecap:butt;stroke-linejoin:miter;stroke-opacity:1"
       d="m 153.60646,15.002946 c -1.32247,0.281006 -2.62779,0.670403 -3.85583,1.24023 -0.9764,0.453063 -1.90924,1.023155 -2.6915,1.768373 -0.38174,0.363664 -0.71509,0.7763 -0.99936,1.220204 -0.58124,0.907649 -0.98984,1.911608 -1.56511,2.823343 -0.44409,0.703826 -0.8491,1.440769 -1.10852,2.234121 -0.18285,0.559198 -0.29507,1.153559 -0.23074,1.742981 0.0554,0.507263 0.25881,1.006447 0.61144,1.379807 0.30656,0.324586 0.71517,0.532987 1.13629,0.667548 0.65781,0.210191 1.35055,0.259411 2.02907,0.36691 0.92444,0.146461 1.85446,0.270522 2.79005,0.310652 0.50314,0.02158 1.01157,0.03826 1.50991,-0.04194 0.3565,-0.05738 0.70975,-0.134357 1.06079,-0.218402 1.40269,-0.335826 2.77759,-0.809361 4.06121,-1.47022 1.04832,-0.539717 2.04404,-1.206012 2.86429,-2.059028 0.66645,-0.693068 1.21058,-1.52201 1.48662,-2.447548 0.10324,-0.346152 0.1865,-0.701791 0.20539,-1.063478 0.0317,-0.607849 -0.13961,-1.212031 -0.42159,-1.746671 -0.36541,-0.692828 -0.88982,-1.289192 -1.46541,-1.814554 -0.79914,-0.729398 -1.70301,-1.333683 -2.63369,-1.882032 -0.18796,-0.110745 -0.38347,-0.208202 -0.5711,-0.319403 -0.29401,-0.17425 -0.55124,-0.40918 -0.86684,-0.547105 -0.23488,-0.102647 -0.49624,-0.111204 -0.74877,-0.113533 -0.20376,-0.0019 -0.41572,0.02791 -0.61082,-0.03389 -0.41809,-0.132431 -0.83777,-0.261756 -1.26576,-0.358525 -0.36282,-0.08203 -0.73128,-0.161802 -1.1045,-0.15832 -0.16826,0.0016 -0.3467,0.0089 -0.49636,0.09298 -0.0295,0.01658 -0.0573,0.03657 -0.0812,0.06054"
       id="path151"
       inkscape:path-effect="#path-effect153"
       inkscape:original-d="m 153.60646,15.002946 c -2.54495,0.537276 -5.71197,1.670854 -7.30762,3.877022 -0.71302,0.985842 -1.12335,2.107141 -1.77369,3.127143 -0.86409,1.355241 -2.00093,3.539915 -0.99327,5.105537 0.72377,1.124532 2.28957,1.156665 3.44097,1.340207 1.15988,0.184891 3.24424,0.454186 4.39875,0.239321 3.62583,-0.674804 8.86017,-2.786891 9.507,-6.924391 0.4178,-2.672443 -2.96736,-4.942456 -4.98409,-6.030916 -0.38431,-0.207421 -0.71042,-0.552537 -1.13515,-0.654148 -0.37465,-0.08963 -0.77299,-0.01606 -1.1529,-0.07977 -0.0809,-0.01356 -2.4702,-0.85857 -2.96208,-0.366959" />
  </g>
</svg>
