<?xml version="1.0" encoding="UTF-8" standalone="no"?>
<!-- Created with Inkscape (http://www.inkscape.org/) -->

<svg
   width="353.56799mm"
   height="264.16mm"
   viewBox="0 0 353.56799 264.16"
   version="1.1"
   id="svg5"
   inkscape:version="1.1.2 (08b2f3d93c, 2022-04-05)"
   sodipodi:docname="Estroma.svg"
   xmlns:inkscape="http://www.inkscape.org/namespaces/inkscape"
   xmlns:sodipodi="http://sodipodi.sourceforge.net/DTD/sodipodi-0.dtd"
   xmlns="http://www.w3.org/2000/svg"
   xmlns:svg="http://www.w3.org/2000/svg">
  <sodipodi:namedview
     id="namedview7"
     pagecolor="#ffffff"
     bordercolor="#666666"
     borderopacity="1.0"
     inkscape:pageshadow="2"
     inkscape:pageopacity="0.0"
     inkscape:pagecheckerboard="0"
     inkscape:document-units="mm"
     showgrid="false"
     inkscape:zoom="0.47393378"
     inkscape:cx="681.52981"
     inkscape:cy="496.90486"
     inkscape:window-width="1366"
     inkscape:window-height="704"
     inkscape:window-x="0"
     inkscape:window-y="27"
     inkscape:window-maximized="1"
     inkscape:current-layer="layer2" />
  <defs
     id="defs2">
    <inkscape:path-effect
       effect="simplify"
       id="path-effect61"
       is_visible="true"
       lpeversion="1"
       steps="1"
       threshold="0.000408163"
       smooth_angles="360"
       helper_size="0"
       simplify_individual_paths="false"
       simplify_just_coalesce="false" />
    <inkscape:path-effect
       effect="simplify"
       id="path-effect57"
       is_visible="true"
       lpeversion="1"
       steps="1"
       threshold="0.000408163"
       smooth_angles="360"
       helper_size="0"
       simplify_individual_paths="false"
       simplify_just_coalesce="false" />
  </defs>
  <g
     inkscape:groupmode="layer"
     id="layer2"
     inkscape:label="Estroma">
    <path
       style="fill:none;stroke:#000000;stroke-width:0.264583px;stroke-linecap:butt;stroke-linejoin:miter;stroke-opacity:1"
       d="m 7.5696121,103.27655 c 2.4524479,-4.615825 3.9844859,-9.78301 7.3419029,-13.867915 1.675354,-2.038371 3.645376,-3.936698 4.581403,-6.471469 1.686509,-4.567087 1.588685,-9.546975 2.931466,-14.197076 0.782877,-2.711133 2.596326,-4.974493 3.381273,-7.690501 0.528348,-1.828146 1.145933,-3.635589 2.078674,-5.308068 2.518956,-4.516686 6.546948,-7.901963 10.556092,-11.038997 1.546681,-1.210231 2.98288,-2.637359 4.871755,-3.330148 3.096097,-1.135566 6.53074,-0.322652 9.386297,1.163389 1.194155,0.621442 2.236828,1.493686 3.087726,2.535281 0.869657,1.064558 1.966104,1.910011 3.196541,2.534549 1.806909,0.917141 3.94138,1.512382 5.207619,3.187173 1.64891,2.180931 1.336788,5.218061 3.015327,7.384996 0.859047,1.109 1.664348,2.318513 1.87147,3.754342 0.219846,1.524034 -0.681875,2.880066 -1.60775,3.992976 -1.021892,1.228323 -1.907762,2.756128 -1.700568,4.421794 0.151343,1.216673 0.438814,2.448262 0.06512,3.681169 -0.290373,0.958018 -0.578027,1.972542 -0.227305,2.996955 0.603283,1.76211 1.998304,3.300537 3.851102,3.761846 2.477692,0.616895 5.050898,-0.05298 7.370805,-0.938193 3.259457,-1.243722 6.353846,-2.906715 9.25347,-4.828928 4.0446,-2.681238 6.768857,-6.78993 10.247079,-10.094213 2.77256,-2.63391 5.390456,-5.447508 8.376916,-7.842507 5.21947,-4.185765 11.68141,-6.373241 17.14386,-10.171422 2.90387,-2.019136 5.61342,-4.362427 8.88636,-5.813966 5.29563,-2.348594 11.19467,-3.280031 16.2038,-6.227547 1.78052,-1.04771 3.27876,-2.5449 5.27468,-3.253959 4.48267,-1.592485 9.34194,-2.040835 13.65794,-4.082723 2.04842,-0.969103 4.002,-2.232393 6.29666,-2.5949 4.522,-0.714379 9.23551,0.09843 13.6479,-1.311217 3.50586,-1.120037 6.21842,-4.080091 9.90589,-4.673264 6.13608,-0.987061 12.37237,-0.859738 18.55962,-1.222043 2.94853,-0.172656 5.92586,-0.393511 8.86562,0.125475 3.7262,0.657823 7.48621,1.112324 11.26821,1.30934 5.37378,0.279937 10.82361,-0.0484 16.11795,0.955397 2.50288,0.474541 4.77733,1.686049 7.26935,2.234013 3.50743,0.771241 7.01356,1.559009 10.54662,2.201424 3.38183,0.614918 6.86036,1.046805 10.02043,2.491104 0.9601,0.43881 1.76734,1.124593 2.49008,1.889028 0.8881,0.939338 2.13482,1.397817 3.30074,1.881108 2.87518,1.191804 6.25677,1.474278 8.67569,3.461176 1.0609,0.871423 0.76501,2.496323 1.74764,3.448609 1.2269,1.189013 2.91982,1.897758 3.85588,3.377706 0.53615,0.847672 0.24413,1.861374 0.14543,2.782076 -0.0766,0.714929 0.22839,1.342001 0.7689,1.851621 3.10046,2.923273 7.99596,3.381274 10.71001,6.618047 0.59409,0.70851 0.3623,1.725802 0.17201,2.532368 -0.15953,0.676181 -0.0705,1.358251 0.16045,2.016302 1.12014,3.191186 3.64928,5.6277 4.74387,8.851752 0.41152,1.212103 0.24494,2.517387 0.14178,3.763809 -0.12471,1.506736 -0.19066,3.017107 -0.0931,4.529428 0.10331,1.602274 0.0408,3.21395 -0.32091,4.79263 -0.83036,3.624496 -2.85669,6.848885 -5.29264,9.613672 -2.77441,3.14894 -5.79071,6.081082 -8.37229,9.403644 -3.17239,4.082957 -5.81534,8.656187 -9.66159,12.145417 -2.48034,2.25011 -5.98452,3.02859 -8.25004,5.56896 -1.51789,1.70204 -2.74472,3.65169 -4.52037,5.13611 -5.16698,4.31954 -11.31498,7.44021 -16.00889,12.30021 -1.92264,1.99067 -3.32357,4.4052 -5.30037,6.36283 -4.02306,3.98403 -7.9668,8.11662 -10.99185,12.94591 -3.6552,5.83529 -7.09767,11.89468 -11.86583,16.92368 -1.64209,1.73192 -3.49366,3.26963 -5.5688,4.45951 -2.24726,1.28857 -4.51095,2.55023 -6.67716,3.97485 -2.25102,1.4804 -4.61217,2.78024 -7.03291,3.96263 -3.66202,1.78869 -7.24802,3.72942 -10.93839,5.46284 -1.62073,0.76128 -3.42754,1.3319 -4.6368,2.74517 -1.26443,1.47775 -2.14175,3.26568 -3.65691,4.53842 -1.38298,1.16171 -2.79559,2.37028 -3.63419,4.01011 -0.85671,1.67524 -1.39256,3.49064 -1.90699,5.29195 -0.60781,2.1283 -1.09334,4.52542 -0.12852,6.62218 0.78645,1.70913 1.85655,3.26548 2.58725,5.01107 0.5157,1.23197 0.83927,2.54556 0.81659,3.88805 -0.0634,3.75441 1.88828,7.24267 1.62796,11.01408 -0.14839,2.14978 -1.19617,4.14829 -2.68149,5.69296 -2.60554,2.70965 -5.67997,4.91705 -8.80605,6.97966 -3.23133,2.13205 -6.60282,4.04712 -10.09389,5.72796 -2.56285,1.23393 -4.94168,2.80927 -7.47493,4.111 -1.08857,0.55937 -2.43498,0.84551 -3.21074,1.80508 -1.87588,2.32037 -4.1082,4.31246 -6.39806,6.20372 -0.96965,0.80086 -2.12714,1.3798 -2.86239,2.46749 -0.96222,1.42346 -1.87143,2.89473 -2.34884,4.59334 -0.20252,0.72056 0.0398,2.48771 -0.6316,2.16892 -0.17127,-0.0813 -0.23344,-0.27202 -0.35117,-0.40616"
       id="path55"
       inkscape:path-effect="#path-effect57"
       inkscape:original-d="m 7.5696121,103.27655 c 2.2964399,-4.329124 3.7877009,-8.989952 6.6722959,-12.996577 1.517031,-2.107118 3.603111,-3.874087 4.765924,-6.227543 2.041096,-4.13104 2.137618,-10.656988 3.361226,-15.117553 0.573478,-2.090568 1.687941,-3.763254 2.608716,-5.686002 0.837135,-1.748094 1.157868,-3.680928 1.906371,-5.460365 2.736506,-6.505561 8.450094,-10.461979 13.645584,-14.80167 4.002884,-3.343526 9.26809,-2.479418 13.344583,0.270772 1.498074,1.010669 2.329381,2.62177 3.812744,3.610155 1.873612,1.248415 4.304268,1.808517 5.969942,3.339402 1.8069,1.660683 1.86042,4.526679 2.75922,6.633673 0.600821,1.408456 1.834875,2.38824 2.357879,3.835794 1.498246,4.146788 -2.59526,5.157046 -3.010058,8.664387 -0.142354,1.203693 0.352681,2.356154 0.300995,3.565041 -0.04691,1.097192 -0.952815,2.595975 -0.602006,3.700417 2.918584,9.188482 15.240452,1.619999 19.816206,-1.083045 4.390086,-2.593367 6.98617,-6.722714 10.585371,-10.153584 2.479034,-2.363092 4.929055,-4.839975 7.474965,-7.130082 5.2059,-4.682836 11.5563,-6.978562 17.40815,-10.604841 2.96566,-1.837759 5.69191,-4.485754 8.82951,-6.001895 5.45197,-2.63448 11.54113,-3.831522 16.95664,-6.543419 1.75244,-0.877559 3.24072,-2.5592 5.06693,-3.249149 4.34595,-1.641917 9.12763,-2.258687 13.49509,-3.971179 2.07396,-0.813202 4.11985,-2.363886 6.32111,-2.797877 4.56796,-0.900599 9.47341,-0.07921 13.9466,-1.308686 3.91454,-1.075929 6.68201,-4.259136 10.73587,-4.873717 5.42726,-0.822794 11.37942,-0.879653 16.80613,-1.083047 2.40143,-0.09001 6.56223,-0.565188 9.13051,-0.135376 3.43911,0.575548 6.38486,1.103897 9.98335,1.353808 6.00035,0.416717 12.13343,0.328932 18.1105,1.037923 2.12876,0.25251 4.74285,1.614868 6.72249,2.075839 3.38018,0.787095 6.78992,1.441337 10.18402,2.166102 3.46252,0.739379 9.48467,1.24021 12.64221,3.519901 0.77608,0.560306 1.31887,1.433433 2.15723,1.89534 3.46657,1.909935 7.35084,2.568408 10.78603,4.422447 1.24672,0.67287 0.87207,2.398575 1.85618,3.474778 1.09107,1.193128 3.81373,2.401896 4.2141,4.106566 0.13378,0.569609 -0.43563,2.912663 0.20066,3.565041 3.24102,3.322894 7.51457,4.216337 11.08705,6.994686 0.97195,0.755896 -0.0573,2.976663 0.20066,3.926041 1.03685,3.815422 4.10011,6.050407 5.11712,10.108449 0.2137,0.852709 -0.0916,4.119446 -0.15052,5.189611 -0.10999,1.998835 0.31869,4.303938 -0.0502,6.272657 -1.45315,7.755583 -6.49817,11.469259 -11.48837,17.14827 -4.09771,4.663348 -7.30991,10.201167 -11.63886,14.666297 -2.22763,2.29771 -5.27632,2.99471 -7.67564,5.0091 -1.91363,1.60661 -3.01456,3.95775 -4.91644,5.59574 -5.13117,4.41924 -11.15226,7.74066 -16.15396,12.3648 -2.01997,1.86749 -3.27977,4.35092 -5.21743,6.27266 -3.85104,3.81942 -7.96505,7.85647 -10.88638,12.45507 -4.25296,6.69477 -8.56774,14.68682 -14.64895,19.99126 -1.99478,1.73999 -4.19103,2.8439 -6.47159,4.1517 -2.85154,1.63522 -5.43065,3.53618 -8.37802,5.05421 -4.24728,2.18757 -8.55991,4.05846 -12.74257,6.36292 -1.28832,0.70981 -2.75364,1.10349 -3.96323,1.94046 -1.65492,1.14511 -2.46008,3.08797 -3.76257,4.55782 -1.04955,1.18442 -2.42172,2.05623 -3.46157,3.24917 -1.55551,1.78453 -2.03861,3.68112 -2.75922,5.86652 -2.79847,8.48694 0.66964,7.85465 2.60871,14.3955 0.40889,1.37924 0.20284,2.78819 0.40135,4.19681 0.61785,4.3844 2.86461,8.24895 0.45151,12.72584 -2.39167,4.43713 -13.95098,11.65856 -18.66235,13.94423 -3.40916,1.65391 -6.17058,2.92814 -9.33117,5.0091 -0.0583,0.0384 -2.78583,1.27788 -3.21074,1.80508 -1.85147,2.29716 -4.12882,3.96924 -6.22078,6.04703 -0.51709,0.51359 -2.32693,1.51947 -2.70904,2.12098 -0.83146,1.30886 -2.12147,2.89812 -2.50839,4.3773 -0.0911,0.34837 -0.6655,2.94986 -0.80268,2.88816 -0.16323,-0.0734 -0.23412,-0.27077 -0.35117,-0.40616" />
  </g>
</svg>
