<?xml version="1.0" encoding="UTF-8" standalone="no"?>
<!-- Created with Inkscape (http://www.inkscape.org/) -->

<svg
   width="169.33333mm"
   height="127mm"
   viewBox="0 0 169.33333 127"
   version="1.1"
   id="svg5"
   inkscape:version="1.1.2 (08b2f3d93c, 2022-04-05)"
   sodipodi:docname="EstratoIntermediário.svg"
   xmlns:inkscape="http://www.inkscape.org/namespaces/inkscape"
   xmlns:sodipodi="http://sodipodi.sourceforge.net/DTD/sodipodi-0.dtd"
   xmlns="http://www.w3.org/2000/svg"
   xmlns:svg="http://www.w3.org/2000/svg">
  <sodipodi:namedview
     id="namedview7"
     pagecolor="#ffffff"
     bordercolor="#666666"
     borderopacity="1.0"
     inkscape:pageshadow="2"
     inkscape:pageopacity="0.0"
     inkscape:pagecheckerboard="0"
     inkscape:document-units="mm"
     showgrid="false"
     inkscape:zoom="0.71272935"
     inkscape:cx="244.13194"
     inkscape:cy="305.16493"
     inkscape:window-width="1366"
     inkscape:window-height="704"
     inkscape:window-x="0"
     inkscape:window-y="27"
     inkscape:window-maximized="1"
     inkscape:current-layer="layer2" />
  <defs
     id="defs2">
    <inkscape:path-effect
       effect="simplify"
       id="path-effect69"
       is_visible="true"
       lpeversion="1"
       steps="1"
       threshold="0.000408163"
       smooth_angles="360"
       helper_size="0"
       simplify_individual_paths="false"
       simplify_just_coalesce="false" />
    <inkscape:path-effect
       effect="simplify"
       id="path-effect65"
       is_visible="true"
       lpeversion="1"
       steps="1"
       threshold="0.000408163"
       smooth_angles="360"
       helper_size="0"
       simplify_individual_paths="false"
       simplify_just_coalesce="false" />
    <inkscape:path-effect
       effect="simplify"
       id="path-effect61"
       is_visible="true"
       lpeversion="1"
       steps="1"
       threshold="0.000408163"
       smooth_angles="360"
       helper_size="0"
       simplify_individual_paths="false"
       simplify_just_coalesce="false" />
    <inkscape:path-effect
       effect="simplify"
       id="path-effect57"
       is_visible="true"
       lpeversion="1"
       steps="1"
       threshold="0.000408163"
       smooth_angles="360"
       helper_size="0"
       simplify_individual_paths="false"
       simplify_just_coalesce="false" />
  </defs>
  <g
     inkscape:groupmode="layer"
     id="layer2"
     inkscape:label="Estrato Intermediário">
    <path
       style="fill:none;stroke:#000000;stroke-width:0.264583px;stroke-linecap:butt;stroke-linejoin:miter;stroke-opacity:1"
       d="m 1.7361802,121.17173 c 0.146366,-0.32944 0.2215605,-0.72257 0.5585203,-0.93026 0.422225,-0.26024 0.8964096,-0.41247 1.3093147,-0.69933 0.9240477,-0.64196 1.8343881,-1.43042 2.9897005,-1.5835 0.7452539,-0.0988 1.5089088,-0.0271 2.2390796,-0.27215 1.1367877,-0.38151 2.3143177,-0.65186 3.5196517,-0.70223 2.176833,-0.091 4.343855,0.23454 6.518799,0.22369 1.884624,-0.009 3.753825,-0.34149 5.636786,-0.3456 1.314227,-0.003 2.655262,0.16534 3.943703,-0.22058 0.922029,-0.27617 1.773767,-0.85815 2.739423,-0.91232 0.501314,-0.0281 1.004828,-0.003 1.502546,-0.10291 0.791159,-0.15833 1.579294,-0.32858 2.385428,-0.40801 1.459007,-0.14375 2.905595,-0.40089 4.366156,-0.52539 0.966092,-0.0824 1.920613,0.13179 2.887615,0.13298 2.271587,0.003 4.613882,-0.16297 6.713148,-1.08552 1.296109,-0.56959 2.304733,-1.59773 3.560851,-2.24775 1.247563,-0.64559 2.639421,-1.12684 3.630093,-2.15096 1.49953,-1.55016 2.846081,-3.23067 4.343709,-4.79124 0.444507,-0.46319 0.860144,-0.99873 1.487654,-1.22575 0.46804,-0.16933 0.921895,-0.36848 1.362848,-0.60325 1.783396,-0.94952 3.53569,-1.99442 5.451717,-2.65464 1.138453,-0.392287 2.371384,-0.63953 3.328856,-1.415535 0.67156,-0.544281 1.440821,-0.943042 2.219397,-1.310435 1.19926,-0.565905 2.543824,-0.95758 3.510013,-1.881837 0.377909,-0.361508 0.637936,-0.812608 1.070885,-1.141499 0.401969,-0.305357 0.898009,-0.426573 1.321437,-0.696343 0.638004,-0.406478 1.143891,-0.980322 1.823389,-1.340763 1.084559,-0.575306 2.265132,-0.952899 3.343528,-1.537122 0.479709,-0.259883 0.912183,-0.60381 1.447527,-0.764099 0.817935,-0.2449 1.848814,-0.125161 2.452232,-0.764319 0.210522,-0.222991 0.382951,-0.465664 0.680561,-0.610326 1.59774,-0.776627 3.127332,-1.661637 4.591016,-2.71898 0.488039,-0.352552 1.245616,-0.121161 1.63952,-0.617367 0.390474,-0.491885 1.026411,-0.641182 1.593114,-0.823046 0.879963,-0.282394 1.443387,-1.098367 2.274842,-1.45976 0.44844,-0.194915 0.99832,-0.23879 1.31185,-0.658693 0.22504,-0.301394 0.58009,-0.444255 0.94187,-0.501824 0.49822,-0.07928 0.98897,-0.188638 1.45679,-0.39784 0.66344,-0.296679 1.28131,-0.730749 2.02263,-0.822382 0.49718,-0.06145 1.02087,-0.187052 1.37292,-0.580247 0.23641,-0.264042 0.52191,-0.478589 0.88557,-0.56112 0.96703,-0.219462 2.00992,-0.09898 2.929,-0.495341 0.74852,-0.322805 1.4174,-0.800381 2.18281,-1.094306 1.46464,-0.562437 3.00117,-0.89819 4.52142,-1.269282 1.35421,-0.330561 2.68804,-0.797786 4.07412,-0.946003 0.71361,-0.07631 1.43671,0.01395 2.14608,-0.141973 1.51817,-0.333711 2.97468,-0.960638 4.26385,-1.826914 0.71672,-0.481611 1.3162,-1.11594 1.78585,-1.851037 0.26928,-0.421482 0.37288,-1.075167 0.84684,-1.242561 0.31644,-0.111761 0.55959,-0.346256 0.71684,-0.649177 0.21269,-0.409723 0.43482,-0.831817 0.83546,-1.101919 1.47652,-0.995443 3.29334,-1.296281 4.78263,-2.274132 0.72267,-0.474498 1.47492,-0.919435 2.3164,-1.155291 1.8775,-0.526236 3.85678,-0.612261 5.78919,-0.435086 0.9863,0.09043 2.05349,0.03961 2.92613,0.511093 0.40333,0.217918 0.6152,0.667282 1.06874,0.83838 0.80836,0.304953 1.67604,0.47176 2.43869,0.877513 0.29819,0.158647 0.45823,0.469366 0.83488,0.546766 0.59497,0.122262 1.20327,0.179608 1.7702,0.435238 1.20843,0.544879 2.44279,1.289897 3.80481,1.191065 0.39877,-0.02894 0.76873,-0.184028 1.19174,-0.108107 1.47228,0.264243 2.9823,0.299923 4.43931,0.643109 0.34554,0.08139 0.61898,0.306098 0.99446,0.345659 0.57072,0.06013 1.62776,-0.508603 1.71679,0.06538 0.0298,0.191858 -0.4822,0.112583 -0.23414,0.07073 0.35782,-0.06037 0.71828,0.07576 1.07421,0.118248 0.59216,0.07069 1.38428,-0.536516 1.77337,-0.08723 0.15772,0.182121 -0.28461,0.271739 -0.45194,0.0015 -0.0325,-0.05244 -0.0657,-0.11626 -0.1294,-0.135324"
       id="path55"
       inkscape:path-effect="#path-effect57"
       inkscape:original-d="m 1.7361802,121.17173 c 0.1307199,-0.26723 0.1720905,-0.60153 0.3921596,-0.80171 0.3342722,-0.30406 0.8132106,-0.39857 1.1943037,-0.64139 1.0121702,-0.64492 1.8827139,-1.51016 3.1372799,-1.74775 0.7114752,-0.13474 1.4580166,0.002 2.1568765,-0.22448 1.1647447,-0.37766 2.1147411,-0.6814 3.3511861,-0.75362 2.055681,-0.12008 4.024586,0.11162 6.060651,0.19242 1.986593,0.0788 4.057225,-0.21407 6.042826,-0.32069 1.156176,-0.0621 2.382679,0.13986 3.529433,-0.0321 1.145162,-0.17169 2.240587,-0.79236 3.369014,-1.07432 0.390536,-0.0976 0.797661,-0.023 1.194303,-0.0641 0.813226,-0.0844 1.592204,-0.34875 2.406435,-0.43294 1.557698,-0.16106 3.035964,-0.3092 4.598961,-0.54516 0.99645,-0.15043 1.808748,0.0803 2.780771,0.0962 2.318504,0.0379 4.888087,-0.15911 7.041052,-1.05827 1.169191,-0.4883 2.080739,-1.43179 3.172926,-2.03638 1.293021,-0.71575 3.145718,-1.40922 4.171153,-2.48533 1.425136,-1.49555 2.589416,-3.15749 4.135506,-4.58586 0.397061,-0.36682 0.711499,-0.83485 1.176476,-1.1224 0.432154,-0.26725 0.930828,-0.35954 1.372563,-0.59328 1.761111,-0.93186 3.426491,-1.89807 5.294153,-2.66171 0.998329,-0.408196 2.076051,-0.6195 3.048156,-1.090347 0.651719,-0.315667 1.162696,-0.826826 1.782538,-1.186543 1.526254,-0.885743 3.249059,-1.3942 4.688094,-2.453272 0.402645,-0.296331 0.600503,-0.842063 1.016055,-1.122413 0.94538,-0.637796 0.626192,-0.29923 1.426028,-0.769649 0.631581,-0.371464 0.990782,-0.900054 1.675593,-1.266724 1.097311,-0.587534 2.236337,-1.102061 3.386841,-1.571374 0.444577,-0.181351 0.801388,-0.527039 1.229953,-0.705514 0.885706,-0.368848 1.900586,-0.321831 2.745115,-0.833789 0.25541,-0.154832 0.320852,-0.45339 0.570415,-0.577244 1.686518,-0.836999 3.402637,-1.482339 4.759394,-2.789989 0.301189,-0.290288 0.997712,-0.245602 1.372563,-0.432927 0.357497,-0.178655 0.388991,-0.389062 0.695193,-0.561211 0.494578,-0.27805 1.079497,-0.386 1.58646,-0.641376 0.591026,-0.29772 1.102392,-0.848172 1.675593,-1.186548 0.35902,-0.211939 0.77252,-0.264903 1.14083,-0.448963 0.35104,-0.175425 0.48805,-0.563965 0.89127,-0.705515 0.49581,-0.174053 1.04616,-0.156456 1.53298,-0.352761 0.53275,-0.214823 1.08868,-0.545769 1.62212,-0.785685 0.55791,-0.250926 1.16564,-0.155959 1.72907,-0.448964 0.39013,-0.202885 0.64089,-0.721849 1.06953,-0.833789 0.90622,-0.236662 1.84001,-0.204502 2.74512,-0.416899 0.70877,-0.166325 1.39952,-0.709625 2.06775,-1.010171 0.80839,-0.36358 1.79176,-0.661874 2.65598,-0.88189 2.06848,-0.526595 4.14009,-1.053439 6.22109,-1.507236 0.61266,-0.133602 1.23753,-0.02389 1.85385,-0.09621 1.91063,-0.224163 5.27953,-1.720651 6.34585,-3.3993 0.30794,-0.48103 0.58324,-0.984587 0.92382,-1.443089 0.233,-0.313689 0.30387,-0.179994 0.53476,-0.36879 0.38283,-0.313048 0.52275,-1.063695 0.9804,-1.411034 1.2998,-0.986506 3.18339,-1.342135 4.59896,-2.180679 0.65178,-0.386096 1.33791,-0.89913 2.04992,-1.170513 2.60832,-0.994161 6.67686,-0.877765 9.28705,-0.160347 0.35261,0.09691 0.59947,0.66162 1.01606,0.817759 0.83762,0.313941 1.64914,0.614621 2.49556,0.897927 0.34281,0.11474 0.37237,0.41982 0.67737,0.513101 0.57851,0.176928 1.18854,0.14048 1.7469,0.384825 1.28499,0.562331 2.62242,1.341489 4.04637,1.298789 0.34193,-0.01025 0.6823,-0.219358 1.01605,-0.144305 1.14667,0.257864 4.56652,0.504981 4.93764,0.801717 0.45581,0.364444 1.40321,0.194388 1.92515,0.224485 0.1557,0.009 0.31359,0.021 0.46346,0.06414 0.0164,0.0047 -0.10504,0.322971 -0.2139,0.192413 -0.27779,-0.333167 0.86752,0.02254 1.30126,0.01604 0.50502,-0.0076 1.93388,-0.266416 1.51516,0.01603 -0.40272,0.271646 -0.39392,-0.208916 -0.57042,-0.256551" />
    <path
       style="fill:none;stroke:#000000;stroke-width:0.264583px;stroke-linecap:butt;stroke-linejoin:miter;stroke-opacity:1"
       d="m 166.1906,52.867795 c -0.81824,-0.104238 -1.68475,-0.169367 -2.3924,-0.65799 -0.30283,-0.209101 -0.37465,-0.665256 -0.70922,-0.817181 -0.50183,-0.227877 -1.08833,-0.103267 -1.58154,-0.378801 -0.8753,-0.488991 -1.66002,-1.124565 -2.41108,-1.783341 -0.65792,-0.577079 -1.31551,-1.174606 -1.78224,-1.927087 -0.59581,-0.960591 -1.02835,-2.063241 -1.9131,-2.808332 -0.89062,-0.750036 -2.25535,-0.846229 -2.94771,-1.808312 -0.4098,-0.569449 -0.96245,-1.01252 -1.50663,-1.445702 -0.89842,-0.71517 -1.80941,-1.413293 -2.69884,-2.140811 -0.93153,-0.761958 -1.91742,-1.486611 -3.05832,-1.917945 -0.75598,-0.28581 -1.61108,-0.496247 -2.15717,-1.128384 -0.41813,-0.48401 -0.39759,-1.184825 -0.83321,-1.673133 -0.927,-1.039114 -1.91746,-2.019655 -2.81554,-3.085631 -0.9871,-1.171641 -2.01342,-2.334566 -3.28868,-3.208318 -0.61023,-0.418104 -1.27623,-0.756373 -1.99301,-0.955315 -1.11065,-0.308261 -2.33465,-0.294595 -3.34827,-0.871322 -0.72384,-0.411847 -1.01731,-1.23754 -1.48215,-1.882192 -0.31021,-0.430209 -0.70247,-0.791251 -1.0274,-1.21153 -0.607,-0.785116 -0.97075,-1.721704 -1.54259,-2.530539 -0.72255,-1.021999 -1.82502,-1.707603 -2.96263,-2.185164 -0.74939,-0.314589 -1.5499,-0.472277 -2.35321,-0.58757 -0.76882,-0.110343 -1.58867,-0.227395 -2.32965,0.09051 -0.71267,0.305764 -1.34909,0.755666 -2.06359,1.063151 -1.84051,0.792059 -3.77837,1.383841 -5.48837,2.46079 -1.39868,0.880881 -2.72785,1.869548 -4.14793,2.716271 -0.76884,0.45842 -1.5881,0.861804 -2.24559,1.479758 -0.34499,0.324244 -0.42928,0.806874 -0.70598,1.182631 -0.88296,1.199058 -2.19542,2.138553 -2.69529,3.566006 -0.15417,0.440256 -0.21635,0.924117 -0.45593,1.32469 -0.66325,1.108942 -1.980777,1.595583 -2.666246,2.690114 -0.266443,0.425446 -0.338219,0.937664 -0.291701,1.434293 0.06121,0.653457 0.209405,1.32517 -0.0071,1.974251 -0.444027,1.331336 -0.992319,2.625193 -1.489632,3.937513 -0.248077,0.654631 -0.815505,1.100332 -1.240266,1.634531 -0.229194,0.288245 -0.556942,0.576744 -0.57162,0.952252 -0.01184,0.302796 -0.02301,0.605276 -0.130446,0.896676 -0.246725,0.669208 -0.635591,1.278108 -1.055866,1.849263 -0.64953,0.882713 -1.477438,1.663781 -1.891216,2.69835 -0.375721,0.939415 -0.09217,1.985974 -0.374179,2.938742 -0.198098,0.669284 -0.534006,1.288572 -0.870433,1.896181 -0.666562,1.203854 -1.328063,2.430512 -2.224915,3.477881 -0.595,0.694858 -1.333869,1.245736 -2.048949,1.809274 -0.495918,0.390821 -1.090374,0.692611 -1.467296,1.199609 -0.28883,0.388505 -0.251229,0.908724 -0.21481,1.363671 0.04663,0.582561 0.139794,1.17823 -0.04376,1.752533 -0.369938,1.157458 -1.355351,2.001769 -2.417191,2.533524 -1.313747,0.657907 -2.789693,0.887389 -4.133253,1.464078 -1.111915,0.477261 -1.983433,1.472425 -3.191046,1.705365 -1.015014,0.195789 -2.043733,-0.217238 -3.058178,0.02678 -0.826942,0.198919 -1.593787,0.614597 -2.453405,0.69189 -1.735751,0.15607 -3.419792,-0.43513 -5.151086,-0.448777 -1.492906,-0.01177 -3.008853,0.165407 -4.480611,-0.191742 -0.988172,-0.239798 -1.95841,-0.548152 -2.966646,-0.710498 -0.9787,-0.15759 -2.020863,-0.286521 -2.841613,-0.895917 -1.043081,-0.774473 -1.917721,-1.743316 -2.816778,-2.674181 -0.851619,-0.881748 -1.697322,-1.7786 -2.696086,-2.502023 -0.534558,-0.38719 -1.060001,-0.785463 -1.545379,-1.236086 -1.45723,-1.352886 -2.903057,-2.768331 -4.655532,-3.731921 -0.775311,-0.426301 -1.643303,-0.831682 -2.547349,-0.734596 -0.395341,0.04246 -0.862789,0.137276 -1.080103,0.475033 -0.175851,0.273314 -0.252746,0.58468 -0.473294,0.847061 -0.420994,0.500847 -0.909749,0.938006 -1.29784,1.470175 -0.297896,0.408489 -0.57673,0.841044 -0.689421,1.344459 -0.22383,0.999896 -0.117596,2.027853 -0.186623,3.043135 -0.146985,2.161921 -0.234614,4.376958 0.334897,6.489696 0.293801,1.089925 0.809011,2.114589 0.972269,3.241312 0.112398,0.775715 0.195177,1.555763 0.25697,2.336781 0.04874,0.615996 -0.09986,1.222433 -0.104153,1.836891 -0.002,0.279294 0.223119,0.499784 0.501531,0.535773 0.361175,0.04669 0.726395,-0.02786 1.078897,-0.100285"
       id="path59"
       inkscape:path-effect="#path-effect61"
       inkscape:original-d="m 166.1906,52.867795 c -0.94527,-0.122018 -1.79843,-0.136361 -2.5312,-0.769657 -0.0717,-0.06195 -0.41383,-0.631381 -0.57042,-0.705514 -0.43264,-0.20483 -0.93494,-0.100846 -1.39038,-0.288616 -0.93972,-0.387424 -3.21865,-2.329423 -3.85031,-3.062584 -0.91497,-1.061997 -1.27717,-2.466006 -2.33513,-3.447401 -0.78453,-0.727755 -1.85184,-0.927415 -2.69164,-1.571374 -0.50225,-0.385133 -0.39182,-0.455655 -0.8378,-0.881896 -1.00138,-0.957069 -2.19719,-1.755423 -3.26205,-2.64568 -0.83923,-0.701619 -1.68839,-1.417939 -2.65599,-1.940168 -0.92168,-0.497443 -2.38156,-0.712579 -3.06598,-1.539304 -0.35503,-0.428852 -0.32532,-1.090543 -0.73084,-1.555339 -0.74141,-0.849787 -1.55533,-1.636356 -2.29948,-2.485337 -1.53559,-1.751886 -2.50284,-3.152836 -4.61679,-4.345335 -1.39713,-0.788138 -2.98259,-0.682622 -4.42072,-1.282758 -0.99451,-0.415015 -1.26191,-1.60914 -1.9608,-2.341026 -1.34636,-1.409931 -1.28826,-1.908298 -2.24599,-3.335162 -0.99641,-1.48448 -3.23495,-2.545572 -4.97331,-2.757924 -0.7629,-0.09319 -1.65612,-0.29422 -2.40643,-0.06414 -0.69182,0.21215 -1.33838,0.710447 -1.99645,1.010172 -1.8987,0.864773 -3.84077,1.364484 -5.63284,2.485338 -1.29539,0.810198 -2.53068,1.693864 -3.81465,2.517403 -0.81843,0.524946 -1.70772,0.94561 -2.47773,1.539308 -0.7596,0.585662 -0.53783,0.797583 -0.99823,1.427063 -0.88906,1.215599 -2.06579,2.18608 -2.70947,3.575685 -0.0157,0.03395 -0.36538,1.170435 -0.42781,1.28275 -0.72694,1.307812 -2.501936,1.791314 -2.941192,3.303098 -0.225108,0.774745 0.186785,1.701692 0.03565,2.517402 -0.09929,0.535882 -1.519512,4.287721 -1.78254,4.682059 -0.452684,0.678674 -1.227302,1.2667 -1.568638,2.02034 -0.09314,0.205628 -0.03018,0.451487 -0.0713,0.673446 -0.116486,0.6287 -0.522645,1.273966 -0.85562,1.795854 -0.60188,0.943356 -1.543272,1.810573 -2.049928,2.806025 -0.656794,1.290442 -0.170821,2.443179 -0.623893,3.591714 -0.503412,1.276143 -2.328019,4.425865 -3.279881,5.371542 -0.97522,0.968883 -2.127464,1.710721 -3.155098,2.613612 -0.556649,0.489077 -0.174659,1.878504 -0.21391,2.549475 -0.07478,1.278302 -1.084445,2.373463 -2.139053,2.966365 -1.401234,0.787778 -2.837715,1.052864 -4.313754,1.587413 -1.15557,0.418488 -2.120069,1.429255 -3.297708,1.763786 -0.748991,0.212765 -1.896385,-0.0796 -2.602516,-0.03207 -0.841936,0.05667 -1.485058,0.427329 -2.263833,0.641377 -1.657554,0.455583 -3.566554,-0.179967 -5.222854,-0.28861 -1.324483,-0.08688 -2.628241,0.09102 -3.957248,-0.01603 -1.108538,-0.0893 -2.090336,-0.464751 -3.155104,-0.721551 -1.021773,-0.246427 -2.300613,-0.283381 -3.279883,-0.737578 -1.5421,-0.715246 -4.027763,-3.92874 -5.561536,-5.131023 -0.298035,-0.233621 -1.311175,-0.948187 -1.550813,-1.154477 -1.477944,-1.272265 -6.320629,-6.437649 -8.73447,-4.537747 -0.218805,0.17222 -0.214289,0.523348 -0.39216,0.737587 -0.869892,1.047744 -0.884801,0.786677 -1.782543,2.132576 -0.652145,0.977699 -0.439216,2.431057 -0.51694,3.511547 -0.151421,2.105038 -0.273212,4.279749 0.178257,6.365666 0.207288,0.957736 0.53951,1.711105 0.837793,2.613618 0.339172,1.026223 0.362466,2.183849 0.499115,3.254983 0.209384,1.641287 -0.930076,3.033948 1.497335,2.501373" />
    <path
       inkscape:path-effect="#path-effect65"
       inkscape:original-d="m 39.023872,79.068061 c -0.76562,0.125 -1.543183,0.191222 -2.296856,0.374997 -0.01704,0.0042 0.124777,1.200436 0.124777,1.394992 0,0.348056 -0.24116,1.092713 -0.124777,1.459137 0.376494,1.185354 0.448048,2.61308 0.03565,3.80016 -0.376127,1.082678 -0.391306,2.176841 -0.641715,3.303095 -0.109554,0.492742 -0.375603,0.881624 -0.53476,1.346891 -0.224505,0.656304 -0.310156,1.371904 -0.499118,2.036373 -0.142846,0.502312 -0.452051,0.925807 -0.641715,1.394992 -1.103731,2.730373 -2.433622,4.123701 -5.418937,5.018789 -0.307327,0.09215 -3.774007,-0.264986 -4.438531,-0.256561 C 22.657872,98.9654 20.987882,98.991789 19.222432,98.0911 18.630779,97.789253 18.126298,97.341276 17.529014,97.032838 15.888542,96.1857 14.964921,94.742393 13.625243,93.537324 12.549485,92.569656 11.493292,91.860721 10.559265,90.731297 9.9113233,89.947807 4.5541551,86.567697 3.4469144,86.337861 2.6940626,86.181588 1.9364101,85.857539 1.1830803,85.744586 c -0.065787,-0.0099 -1.31908293,-0.110659 -1.31908293,-0.06414 0,0.219478 0.1603794,-0.40876 0.2495586,-0.609303"
       style="fill:none;stroke:#000000;stroke-width:0.264583px;stroke-linecap:butt;stroke-linejoin:miter;stroke-opacity:1"
       d="m 39.023872,79.068061 c -0.765527,0.125012 -2.319394,-0.40183 -2.296856,0.374997 0.0056,0.194052 0.03339,0.387346 0.05133,0.580749 0.02568,0.276763 0.08806,0.553163 0.07327,0.830846 -0.01569,0.29468 -0.09432,0.581286 -0.131304,0.873417 -0.0268,0.211674 -0.03472,0.429465 0.02841,0.638845 0.273869,0.90836 0.364844,1.876244 0.233146,2.81751 -0.04903,0.350425 -0.147923,0.690976 -0.257563,1.027154 -0.314836,0.965352 -0.379178,1.984264 -0.559017,2.978061 -0.04341,0.239907 -0.110033,0.475443 -0.206468,0.699813 -0.146565,0.341006 -0.318592,0.671577 -0.42759,1.028327 -0.197761,0.647272 -0.260773,1.329324 -0.476661,1.970757 -0.163431,0.485577 -0.453665,0.912618 -0.648114,1.385601 -0.42261,1.027968 -0.95223,2.031233 -1.715031,2.850766 -0.64517,0.693153 -1.457226,1.213844 -2.323035,1.588095 -0.445054,0.192377 -0.886084,0.445439 -1.368711,0.490237 -0.239686,0.02225 -0.481115,0.0044 -0.720809,-0.0091 -1.137234,-0.06431 -2.270577,-0.18577 -3.408044,-0.245305 -0.346084,-0.01811 -0.692679,-0.0022 -1.039003,-2.16e-4 -1.078063,0.0061 -2.170678,-0.03082 -3.216095,-0.318589 -0.570427,-0.157018 -1.129081,-0.37167 -1.638232,-0.67413 C 18.460417,97.648712 17.98578,97.275392 17.452638,96.992695 16.670424,96.577928 16.004576,95.980589 15.393781,95.346761 14.75038,94.679097 14.13533,93.981978 13.436367,93.369754 12.563026,92.604791 11.639452,91.895239 10.836305,91.050785 10.673352,90.879451 10.536081,90.684546 10.355859,90.529515 9.8707559,90.11222 9.3437205,89.74675 8.8136567,89.389769 7.6256424,88.58968 6.4165925,87.81705 5.1577538,87.133445 4.6711747,86.869211 4.1848589,86.59739 3.6652368,86.402893 3.4687417,86.329344 3.260593,86.298301 3.0583461,86.244338 2.425321,86.075435 1.8129884,85.797213 1.157425,85.741723 c -0.39176739,-0.03316 -0.78869529,-0.01308 -1.17733337,-0.07348 -0.04312039,-0.0067 -0.13921512,0.125764 -0.10070577,0.05466 0.06377239,-0.117751 0.09493664,-0.2506 0.13677243,-0.377371 0.03040475,-0.09213 0.05910696,-0.185132 0.09739768,-0.274388"
       id="path63" />
  </g>
</svg>
