<?xml version="1.0" encoding="UTF-8" standalone="no"?>
<!-- Created with Inkscape (http://www.inkscape.org/) -->

<svg
   width="169.33333mm"
   height="127mm"
   viewBox="0 0 169.33333 127"
   version="1.1"
   id="svg5"
   inkscape:version="1.1.2 (08b2f3d93c, 2022-04-05)"
   sodipodi:docname="EstratoSuperficial.svg"
   xmlns:inkscape="http://www.inkscape.org/namespaces/inkscape"
   xmlns:sodipodi="http://sodipodi.sourceforge.net/DTD/sodipodi-0.dtd"
   xmlns="http://www.w3.org/2000/svg"
   xmlns:svg="http://www.w3.org/2000/svg">
  <sodipodi:namedview
     id="namedview7"
     pagecolor="#ffffff"
     bordercolor="#666666"
     borderopacity="1.0"
     inkscape:pageshadow="2"
     inkscape:pageopacity="0.0"
     inkscape:pagecheckerboard="0"
     inkscape:document-units="mm"
     showgrid="false"
     inkscape:zoom="0.57976159"
     inkscape:cx="163.86046"
     inkscape:cy="294.0864"
     inkscape:window-width="1366"
     inkscape:window-height="704"
     inkscape:window-x="0"
     inkscape:window-y="27"
     inkscape:window-maximized="1"
     inkscape:current-layer="layer2" />
  <defs
     id="defs2">
    <inkscape:path-effect
       effect="simplify"
       id="path-effect93"
       is_visible="true"
       lpeversion="1"
       steps="1"
       threshold="0.000408163"
       smooth_angles="360"
       helper_size="0"
       simplify_individual_paths="false"
       simplify_just_coalesce="false" />
    <inkscape:path-effect
       effect="simplify"
       id="path-effect89"
       is_visible="true"
       lpeversion="1"
       steps="1"
       threshold="0.000408163"
       smooth_angles="360"
       helper_size="0"
       simplify_individual_paths="false"
       simplify_just_coalesce="false" />
    <inkscape:path-effect
       effect="simplify"
       id="path-effect85"
       is_visible="true"
       lpeversion="1"
       steps="1"
       threshold="0.000408163"
       smooth_angles="360"
       helper_size="0"
       simplify_individual_paths="false"
       simplify_just_coalesce="false" />
    <inkscape:path-effect
       effect="simplify"
       id="path-effect81"
       is_visible="true"
       lpeversion="1"
       steps="1"
       threshold="0.000408163"
       smooth_angles="360"
       helper_size="0"
       simplify_individual_paths="false"
       simplify_just_coalesce="false" />
    <inkscape:path-effect
       effect="simplify"
       id="path-effect77"
       is_visible="true"
       lpeversion="1"
       steps="1"
       threshold="0.000408163"
       smooth_angles="360"
       helper_size="0"
       simplify_individual_paths="false"
       simplify_just_coalesce="false" />
    <inkscape:path-effect
       effect="simplify"
       id="path-effect73"
       is_visible="true"
       lpeversion="1"
       steps="1"
       threshold="0.000408163"
       smooth_angles="360"
       helper_size="0"
       simplify_individual_paths="false"
       simplify_just_coalesce="false" />
    <inkscape:path-effect
       effect="simplify"
       id="path-effect69"
       is_visible="true"
       lpeversion="1"
       steps="1"
       threshold="0.000408163"
       smooth_angles="360"
       helper_size="0"
       simplify_individual_paths="false"
       simplify_just_coalesce="false" />
    <inkscape:path-effect
       effect="simplify"
       id="path-effect65"
       is_visible="true"
       lpeversion="1"
       steps="1"
       threshold="0.000408163"
       smooth_angles="360"
       helper_size="0"
       simplify_individual_paths="false"
       simplify_just_coalesce="false" />
    <inkscape:path-effect
       effect="simplify"
       id="path-effect61"
       is_visible="true"
       lpeversion="1"
       steps="1"
       threshold="0.000408163"
       smooth_angles="360"
       helper_size="0"
       simplify_individual_paths="false"
       simplify_just_coalesce="false" />
    <inkscape:path-effect
       effect="simplify"
       id="path-effect57"
       is_visible="true"
       lpeversion="1"
       steps="1"
       threshold="0.000408163"
       smooth_angles="360"
       helper_size="0"
       simplify_individual_paths="false"
       simplify_just_coalesce="false" />
  </defs>
  <g
     inkscape:groupmode="layer"
     id="layer2"
     inkscape:label="Estrato Superficial">
    <path
       style="fill:none;stroke:#000000;stroke-width:0.264583px;stroke-linecap:butt;stroke-linejoin:miter;stroke-opacity:1"
       d="m 0.55232802,74.018549 c 0.21000107,0.54892 0.41016109,1.129176 0.85144198,1.54598 0.5185718,0.489808 1.1372696,0.85663 1.6527068,1.352025 1.1262133,1.082421 2.0287799,2.368541 2.8896923,3.663554 0.8620281,1.296691 1.6077422,2.67126 2.5725494,3.899242 0.7493946,0.95381 1.5185845,1.892059 2.2102775,2.891094 0.431276,0.622906 0.835527,1.284631 1.410429,1.784686 0.678007,0.589736 1.601268,0.845072 2.185321,1.553522 1.089418,1.321452 2.000008,2.782418 3.129998,4.071453 0.718781,0.819949 1.515968,1.622018 2.523631,2.07493 1.101947,0.49529 2.326691,0.549408 3.510735,0.662106 0.529287,0.05038 1.029876,0.283112 1.576345,0.228368 2.477196,-0.24816 4.888281,-1.266377 6.72972,-2.952806 0.905041,-0.828856 1.712317,-1.788353 2.260891,-2.887553 0.600229,-1.202703 0.939808,-2.510081 1.27866,-3.802866 0.273502,-1.043462 0.157233,-2.136073 0.0193,-3.189494 -0.0969,-0.740022 -0.162377,-1.483545 -0.191473,-2.229706 -0.07755,-1.988677 -0.04238,-4.000409 -0.478072,-5.955201 -0.125714,-0.56404 -0.48435,-1.035812 -0.810768,-1.498494 -0.443006,-0.627939 -0.899876,-1.262336 -1.144179,-2.003566 -0.737656,-2.238093 -0.97551,-4.594861 -1.264106,-6.921426 -0.175307,-1.413265 -0.481213,-2.833337 -0.348388,-4.264573 0.07307,-0.787375 0.327381,-1.577475 0.846807,-2.190191 0.646056,-0.762088 1.524609,-1.264731 2.307074,-1.869148 0.516827,-0.399224 0.886377,-0.974471 1.456685,-1.302845 0.69099,-0.39786 1.512657,-0.406575 2.286415,-0.442824 0.641389,-0.03005 1.289438,-0.106116 1.890379,-0.360076 1.256776,-0.531118 2.600083,-0.866316 3.798207,-1.524747 0.499267,-0.274373 0.96575,-0.630097 1.538052,-0.752443 1.654786,-0.353757 3.346664,-0.527761 5.036843,-0.5593 1.51487,-0.02827 3.046536,0.02486 4.527457,0.370669 0.618143,0.144344 1.215373,0.378383 1.755231,0.716905 0.806005,0.505411 1.498511,1.163001 2.202083,1.798149 0.762248,0.688117 1.543038,1.370681 2.143851,2.213935 1.018583,1.429602 1.745352,3.074406 2.975703,4.344629 0.300369,0.310103 0.602929,0.637028 1.008554,0.811941 0.76847,0.331379 1.608663,0.447264 2.436471,0.511465 0.883409,0.06851 1.772031,0.04765 2.653296,-0.05094 2.240369,-0.25066 4.48629,-0.52402 6.680433,-1.047894 0.916555,-0.218837 1.859866,-0.415088 2.692733,-0.866409 0.301503,-0.163381 0.608524,-0.375416 0.728747,-0.724748 0.243997,-0.708983 0.884511,-1.152935 1.334362,-1.720152 0.287346,-0.362314 0.481379,-0.785335 0.697376,-1.19126 0.536208,-1.007703 1.05896,-2.057712 1.201287,-3.205354 0.131876,-1.063369 0.01828,-2.143385 -0.195474,-3.186224 -0.257991,-1.258661 -0.802297,-2.43401 -1.08463,-3.6874 -0.142293,-0.631695 -0.321385,-1.263884 -0.658745,-1.824122 -0.289939,-0.481488 -0.588489,-0.961467 -0.773998,-1.49759 -0.30784,-0.889661 -0.51228,-1.818932 -0.960148,-2.658247 -0.505786,-0.947856 -1.083455,-1.875879 -1.38747,-2.911273 -0.09441,-0.321532 -0.156211,-0.66888 -0.03543,-1.002386 0.116043,-0.320415 0.250979,-0.634641 0.339475,-0.964407"
       id="path59"
       inkscape:path-effect="#path-effect61"
       inkscape:original-d="m 0.55232802,74.018549 c 0.20098583,0.515088 0.35850099,1.040979 0.74736608,1.442591 0.4376847,0.452032 0.9604742,0.758131 1.4324542,1.162473 1.1650678,0.998098 2.2048266,2.482151 3.0673146,3.739533 0.7020221,1.023446 1.3066683,2.123075 2.0085449,3.151288 0.798594,1.1699 1.7868484,2.225411 2.6002132,3.389382 0.484065,0.692724 0.984599,1.490572 1.572582,2.100863 0.647554,0.672118 1.691207,0.935688 2.28881,1.638667 1.565459,1.8415 3.365754,5.068925 5.574105,6.148515 1.14355,0.559043 2.430832,0.599207 3.67455,0.728289 0.474585,0.04926 0.940387,0.282229 1.416882,0.238104 3.71112,-0.343657 7.028091,-2.298253 8.937252,-5.518256 0.681879,-1.150059 1.045337,-2.756831 1.432449,-4.033652 0.446088,-1.471332 -0.02236,-3.317883 -0.108987,-4.81797 -0.127952,-2.215668 -0.0098,-4.569883 -0.529386,-6.736749 -0.219311,-0.91463 -1.470308,-2.089671 -1.852843,-3.179302 -0.817459,-2.328495 -1.056119,-4.909497 -1.370171,-7.338997 -0.222581,-1.721871 -0.714833,-3.957134 0.06228,-5.588285 0.499909,-1.049309 1.729284,-1.832364 2.631352,-2.46501 0.486193,-0.340979 0.855607,-0.828357 1.307891,-1.204491 1.153964,-0.959676 3.00432,-0.373367 4.312925,-0.938379 1.24677,-0.538316 2.580045,-0.927778 3.79911,-1.512621 0.523513,-0.251153 0.978392,-0.664488 1.557012,-0.798327 2.660878,-0.615479 7.941374,-0.983671 10.61883,0.07003 0.933476,0.367366 1.979364,1.245026 2.709204,1.932789 0.739327,0.696706 1.639355,1.405877 2.257668,2.226911 1.284925,1.706202 2.052158,3.6527 3.690115,5.126095 0.934084,0.84024 3.832396,0.948357 5.075859,0.826336 1.404879,-0.137861 10.127636,-1.087712 10.587688,-2.605063 0.287523,-0.94832 1.169217,-1.360723 1.634871,-2.212901 1.497613,-2.74074 2.00197,-3.761169 1.479158,-6.918833 -0.183578,-1.108776 -0.639442,-2.146562 -0.94978,-3.221313 -0.191275,-0.662421 -0.290137,-1.364377 -0.560522,-2.002816 -0.258297,-0.609896 -0.684758,-1.108088 -0.934204,-1.722705 -0.343001,-0.845129 -0.499023,-1.783866 -0.887503,-2.605069 -0.334446,-0.706985 -1.944057,-3.32387 -1.666004,-4.14569 0.130355,-0.385283 0.282723,-0.713547 0.389257,-1.106453" />
    <path
       style="fill:none;stroke:#000000;stroke-width:0.264583px;stroke-linecap:butt;stroke-linejoin:miter;stroke-opacity:1"
       d="m 78.558669,37.267533 c -0.03668,0.08908 -0.291196,0.398853 -0.132517,0.310659 0.174103,-0.09677 0.14001,-0.342436 0.08049,-0.504734 -0.133565,-0.364199 -0.368409,-0.693892 -0.406759,-1.091126 -0.05949,-0.616233 -0.02907,-1.248074 0.127058,-1.846191 0.344339,-1.319109 1.116343,-2.481458 1.986866,-3.510545 1.47324,-1.741587 3.234745,-3.212004 5.050385,-4.580878 1.215192,-0.916175 2.450417,-1.805222 3.669746,-2.715969 1.331132,-0.994256 2.624927,-2.041475 4.00033,-2.973635 1.007668,-0.682933 2.223584,-1.009849 3.163039,-1.80326 0.605662,-0.511508 0.959255,-1.234456 1.40049,-1.877501 0.118533,-0.172747 0.193382,-0.397943 0.371912,-0.507356 0.445969,-0.273315 0.92316,-0.492563 1.395614,-0.715716 0.656449,-0.310059 1.295428,-0.662949 1.974328,-0.920088 0.86896,-0.329126 1.8154,-0.280913 2.72559,-0.250949 0.57685,0.01899 1.15032,-0.04931 1.72292,-0.109373 1.77565,-0.186245 3.5529,-0.426579 5.33977,-0.425081 0.50698,4.25e-4 1.04023,-0.06656 1.51851,0.112725 1.02897,0.385708 1.9145,1.076405 2.95824,1.431883 0.75445,0.256951 1.52968,0.452645 2.31197,0.599339 1.44966,0.271838 2.96201,0.0141 4.3875,0.443705 1.21299,0.365565 2.40282,0.805342 3.57737,1.2783 0.75565,0.30428 1.54273,0.552636 2.2451,0.966797 0.44589,0.262924 0.65784,0.77437 1.09913,1.051031 0.40673,0.254995 0.93759,0.372668 1.20611,0.794944 0.16037,0.252203 0.25849,0.560599 0.52172,0.732069 0.86874,0.565899 1.97933,0.596805 2.82728,1.201453 0.96236,0.686232 1.43308,1.855875 2.39641,2.541893 0.53863,0.383574 1.20096,0.514747 1.83568,0.647387 0.6901,0.144213 1.40951,0.252656 2.02125,0.627071 0.34748,0.212676 0.72396,0.367374 1.11683,0.482535 0.33453,0.09806 0.69057,0.165155 0.97656,0.383282 0.49965,0.381093 1.05837,0.712761 1.45107,1.203339 0.0997,0.124601 0.11915,0.29021 0.28016,0.385275 0.77389,0.45694 1.77123,0.342655 2.53689,0.78311 0.26354,0.151605 0.46012,0.394805 0.65248,0.624754 0.63893,0.76379 1.2018,1.587402 1.76094,2.411447 0.17254,0.254284 0.25944,0.559313 0.48233,0.781653 0.32996,0.329138 0.75481,0.549208 1.03794,0.933111 0.65785,0.89201 1.00774,1.9937 1.8038,2.786067 0.77356,0.769974 1.80871,1.170201 2.74214,1.7013 0.29207,0.16618 0.52492,0.415666 0.76234,0.649163 0.56363,0.554319 1.16173,1.081645 1.65178,1.702272 0.67163,0.850583 0.79785,2.005527 1.49549,2.838289 0.58996,0.704225 1.4358,1.115433 2.08995,1.75016 0.21522,0.208828 0.33293,0.493496 0.57091,0.685686 0.51071,0.412446 1.23437,0.463472 1.71267,0.913964 0.27884,0.262626 0.4945,0.581227 0.78998,0.831606 0.55774,0.472614 1.03409,1.074702 1.70569,1.383992 0.49187,0.226519 0.99304,0.428617 1.4901,0.646218 0.65699,0.287614 1.50391,0.08043 2.05994,0.541956 0.0967,0.08026 -0.19238,0.255672 -0.23713,0.324189"
       id="path71"
       inkscape:path-effect="#path-effect73"
       inkscape:original-d="m 78.558669,37.267533 c -0.05654,0.100923 -0.270541,0.246227 -0.169619,0.302765 0.100923,0.05654 0.190037,-0.188902 0.169619,-0.302765 -0.06342,-0.353695 -0.301312,-0.655177 -0.403174,-0.99977 -0.156496,-0.529413 -0.05965,-1.626799 0.07786,-2.156881 0.931939,-3.592687 5.810903,-7.196632 8.641419,-9.257781 1.983681,-1.444494 3.932234,-2.952771 5.916646,-4.397796 0.860629,-0.6267 1.911522,-0.950498 2.802626,-1.526628 1.220226,-0.788921 1.415042,-1.66803 2.257666,-2.745121 0.11105,-0.14195 2.863628,-1.417064 3.223008,-1.582645 1.15912,-0.534046 2.61941,-0.23194 3.84583,-0.350144 1.48384,-0.143014 6.6453,-0.788678 7.70721,-0.364145 0.75708,0.302663 1.47383,0.784511 2.21095,1.134463 0.819,0.388821 1.82858,0.606372 2.70921,0.812333 1.43286,0.335115 2.87171,0.09049 4.29736,0.406161 1.15002,0.254639 5.29492,1.853067 6.18134,2.33896 0.36363,0.199326 0.60535,0.687696 0.9342,0.93838 0.37722,0.287555 0.86345,0.412553 1.21447,0.728297 0.34385,0.309296 0.27837,0.677697 0.76294,0.966399 0.83511,0.497551 1.84888,0.5655 2.6625,1.092442 1.15447,0.747699 1.6619,2.364298 3.03617,2.899188 0.90412,0.351899 1.86655,0.386259 2.77147,0.714289 0.41888,0.151839 0.77857,0.443854 1.19891,0.602248 0.38619,0.145527 0.80266,0.20474 1.18332,0.364147 0.22359,0.09363 1.66488,1.311261 1.71272,1.386567 0.0851,0.133959 0.0486,0.23458 0.21798,0.336137 0.79919,0.479259 1.67494,0.572527 2.55351,0.798325 0.42201,0.108461 2.38397,2.816773 2.63135,3.403393 0.25497,0.604626 0.86069,0.764908 1.23004,1.232501 0.67864,0.859171 1.00642,1.909792 1.74385,2.745124 0.79216,0.897305 1.99089,1.33296 2.98947,1.918784 0.3006,0.176353 2.08569,2.005177 2.31994,2.296935 0.63206,0.787231 0.80635,1.939915 1.43246,2.759134 0.65206,0.853172 1.96826,1.418373 2.3978,2.142879 0.40504,0.683183 1.28369,0.768265 1.89955,1.176472 0.31092,0.206087 0.52269,0.608132 0.82522,0.854348 0.54524,0.443753 1.24386,1.21772 1.86842,1.498618 0.44844,0.201689 0.90137,0.347104 1.33902,0.57423 0.64229,0.333323 1.59766,0.253104 2.17982,0.602245 0.0478,0.02866 -0.24077,0.286618 -0.26469,0.308134" />
    <path
       style="fill:none;stroke:#000000;stroke-width:0.264583px;stroke-linecap:butt;stroke-linejoin:miter;stroke-opacity:1"
       d="m 1.5497635,33.455842 c -0.055158,0.541121 0.088721,1.079481 0.2961348,1.575644 0.2687935,0.64299 0.6478386,1.246254 0.8031043,1.931776 0.075302,0.332471 0.1135533,0.69681 0.3390043,0.968852 0.1485245,0.179218 0.3879441,0.225664 0.5677711,0.365753 0.8859919,0.690207 1.5536649,1.661365 1.8723138,2.73609 0.1367887,0.461355 0.2337981,0.944115 0.1918046,1.427754 -0.07184,0.827377 -0.3613175,1.611899 -0.5722234,2.409463 -0.4532176,1.713892 -0.8847397,3.439619 -1.1208291,5.198157 -0.1116341,0.831519 -0.2087847,1.674908 -0.1308971,2.513414 0.036801,0.396181 0.1281191,0.798511 0.3516921,1.135993 0.2466944,0.372383 0.60585,0.662549 0.8169652,1.058317 0.1434181,0.268859 0.2049442,0.598608 0.4507896,0.798776 0.2090499,0.170209 0.4681074,0.261101 0.6697301,0.445904 0.4631405,0.424504 0.8406103,0.932854 1.3192363,1.342609 0.6154331,0.526876 1.2930077,0.985326 1.8324344,1.598549 1.2586215,1.430808 2.5192845,2.865067 3.6511495,4.397967 0.390841,0.529321 0.474549,1.217497 0.875056,1.74265 0.493746,0.64741 1.237538,1.043405 1.730106,1.694506 0.571466,0.755392 0.820998,1.694716 1.326125,2.487161 0.212916,0.334023 0.544158,0.570739 0.743444,0.918361 0.322239,0.562094 0.646806,1.129028 1.069328,1.623974 0.141072,0.165253 0.316255,0.294667 0.498021,0.412521 0.422421,0.273891 0.883809,0.510618 1.223614,0.888476 0.165155,0.18365 0.293842,0.396179 0.429543,0.601587 0.427515,0.647119 0.864217,1.293267 1.204845,1.990144 0.167968,0.343639 0.261989,0.722361 0.489376,1.038283 0.647638,0.8998 1.239155,1.844033 1.701713,2.854118 0.13725,0.299712 0.259482,0.605509 0.399765,0.904193 0.192844,0.410596 0.392177,0.839204 0.40161,1.301461 0.0059,0.287703 -0.05404,0.702322 -0.338129,0.76477 -0.108331,0.02381 -0.203197,-0.06243 -0.283955,-0.122584 -0.167538,-0.124788 -0.298469,-0.292958 -0.467101,-0.415005 -0.478218,-0.34611 -1.050311,-0.530103 -1.522167,-0.890398 -0.305139,-0.232995 -0.682629,-0.384834 -0.931173,-0.677481 -0.228681,-0.269259 -0.431708,-0.559401 -0.637194,-0.846469 -0.785139,-1.096853 -1.588757,-2.18275 -2.30803,-3.323955 -0.130603,-0.207216 -0.275283,-0.408469 -0.356515,-0.643074 -0.208795,-0.603015 -0.19283,-1.280095 -0.516031,-1.840293 C 16.783924,72.374314 15.772718,71.02836 15.021398,69.529453 14.749123,68.986256 14.522518,68.422 14.278106,67.866081 14.055828,67.360506 13.995691,66.7436 13.607134,66.351098 13.392354,66.134137 13.153376,65.940219 12.910007,65.755598 12.243826,65.250231 11.500671,64.857796 10.820183,64.373911 10.209856,63.939917 9.8031332,63.284031 9.184489,62.856725 8.0510946,62.073874 6.8452874,61.386545 5.8044496,60.476714 5.0692783,59.834076 4.4553595,59.04763 4.0486621,58.156134 3.8626233,57.74833 3.7607152,57.309688 3.6159263,56.886121 3.48483,56.502611 3.2528364,56.165267 3.026962,55.832647 2.6676909,55.303588 2.2647885,54.799508 1.9749944,54.227225 1.7553373,53.793448 1.6573096,53.311425 1.5724609,52.836665 1.4034887,51.891203 1.3550812,50.928428 1.1916513,49.982593 1.0845556,49.362787 0.90569908,48.758116 0.78726159,48.140605 0.70674648,47.720814 0.61038033,47.291978 0.66018175,46.864184 c 0.0481738,-0.413813 0.14155633,-0.822526 0.14352509,-1.241748 6.9179e-4,-0.147308 0.0844309,-0.565276 0.00247,-0.442567 -0.0478686,0.07167 -0.0698347,0.194271 -0.0916008,0.289189 -0.025102,0.109466 -0.0893704,0.205793 -0.13832425,0.306445 -0.007679,0.01579 -0.0153368,0.03159 -0.0229769,0.04739"
       id="path83"
       inkscape:path-effect="#path-effect85"
       inkscape:original-d="m 1.5497635,33.455842 c -0.1196368,1.274445 0.731079,2.214854 1.0587697,3.347371 0.096185,0.332417 0.1162436,0.730837 0.311401,1.036423 0.181133,0.283626 0.3620884,0.247981 0.6228046,0.448183 1.1139418,0.855388 1.9052116,2.235507 2.0708283,3.613476 0.1022044,0.850365 -0.2778299,1.897607 -0.4982458,2.717109 -0.5501942,2.045608 -1.828337,7.022505 -1.1521869,8.753576 0.1985913,0.508431 0.6610546,0.869254 0.9497751,1.316537 0.1682207,0.260607 0.2290262,0.6135 0.4515347,0.840343 0.1716865,0.175027 0.4505524,0.259268 0.6383742,0.420172 0.3540252,0.303289 0.6702542,0.698952 0.9964915,1.036426 0.6579042,0.680558 1.5140501,1.158597 2.1486733,1.876766 1.2631578,1.429443 2.5241748,2.958018 3.7056938,4.453818 0.374037,0.473528 0.47014,1.094724 0.778503,1.596652 0.433042,0.704869 1.228499,1.111901 1.743855,1.736712 0.646231,0.783479 0.931099,1.717085 1.416882,2.591059 0.178749,0.321588 0.541723,0.562965 0.731796,0.896364 0.313092,0.549182 0.908499,1.628404 1.432455,1.988817 0.462125,0.317881 1.203759,0.698886 1.525871,1.162471 0.513546,0.739103 1.02503,1.563991 1.463593,2.352968 0.184495,0.331907 0.261578,0.743064 0.482673,1.050425 0.824861,1.146707 1.443687,2.135622 1.961834,3.417396 0.240451,0.594817 1.026611,1.779624 0.264695,2.465001 -0.131841,0.118597 -0.652153,-0.444175 -0.731796,-0.504198 -0.463062,-0.348991 -1.033304,-0.509387 -1.494733,-0.868363 -0.319418,-0.248496 -0.66344,-0.468101 -0.980919,-0.714287 -0.180117,-0.139671 -3.088932,-4.299355 -3.238587,-4.635895 -0.289765,-0.65161 -0.25643,-1.457692 -0.622802,-2.08685 -0.91679,-1.574374 -2.090503,-3.112876 -2.833764,-4.803968 -0.103462,-0.2354 -1.11717,-2.58531 -1.152192,-2.619063 -0.793158,-0.764434 -1.79283,-1.32188 -2.709203,-1.918788 C 10.272537,64.019096 9.8593507,63.322025 9.2414057,62.895873 6.8125207,61.220847 4.4357491,60.154105 3.6361613,56.957443 3.4494626,56.211043 2.3127294,54.99672 1.9078757,54.086275 1.489952,53.146435 1.362895,51.077981 1.1916513,49.982593 1.0666268,49.182855 0.56871711,47.644764 0.66226647,46.845312 c 0.0453987,-0.387966 0.14013095,-0.753803 0.14013095,-1.148469 0,-0.163481 0.0326663,-0.646401 -0.0155694,-0.490199 -0.15837704,0.512879 0.0250952,0.08114 -0.23355339,0.616252" />
    <path
       style="fill:none;stroke:#000000;stroke-width:0.264583px;stroke-linecap:butt;stroke-linejoin:miter;stroke-opacity:1"
       d="m 1.5497635,33.455842 c -0.1433818,0.09881 -0.3917606,0.0727 -0.4632838,0.233686 -0.083069,0.186979 0.141505,0.120962 0.2280098,0.01617 0.1059515,-0.12835 0.2210968,-0.24703 0.3685926,-0.332465 0.344863,-0.199758 0.7299117,-0.379323 0.952457,-0.731571 0.5375522,-0.850845 1.3602186,-1.472583 2.2114821,-1.985104 0.8229508,-0.495475 1.7260435,-0.833589 2.5826715,-1.26334 0.58195,-0.291951 1.1977309,-0.571108 1.6469903,-1.050399 0.8942872,-0.954068 2.029004,-1.631452 3.165686,-2.251319 0.732788,-0.399611 1.385722,-0.923076 2.036399,-1.440957 0.459692,-0.365874 0.942965,-0.701736 1.453485,-0.993707 1.301289,-0.744219 2.702221,-1.297957 4.00319,-2.041059 0.63492,-0.362661 1.128615,-0.914794 1.718441,-1.340642 0.279043,-0.201466 0.596395,-0.343223 0.931387,-0.427427 1.521873,-0.38254 3.103321,-0.328455 4.650712,-0.533463 1.03574,-0.137221 2.063664,-0.364882 3.1097,-0.39803 0.907249,-0.02875 1.810841,0.109304 2.71926,0.05133 0.894875,-0.05711 1.805211,-0.225417 2.693923,-0.03393 0.495269,0.106712 0.98303,0.253226 1.493695,0.285219 0.381326,0.02389 0.797594,-0.0039 1.132616,0.201147 0.278238,0.170263 0.483442,0.445588 0.807884,0.549847 0.506433,0.162742 1.077067,0.01914 1.563679,0.223326 0.432598,0.181524 0.828158,0.439498 1.241644,0.659244 0.237781,0.126368 0.447618,0.304661 0.592339,0.534542 0.200852,0.319041 0.34955,0.668753 0.58732,0.966258 0.528165,0.660855 1.252523,1.153067 1.70887,1.869725 0.185189,0.290825 0.360893,0.602116 0.658084,0.800166 0.335874,0.223828 0.75149,0.3689 0.977464,0.724517 0.254304,0.4002 0.411582,0.881989 0.803421,1.178249 0.499806,0.377891 1.169118,0.433395 1.650817,0.847801 0.436934,0.375895 0.670818,0.925019 1.065294,1.336118 0.283509,0.295456 0.682536,0.434664 1.055393,0.580377 0.310936,0.121514 0.652831,0.193699 0.922972,0.393783 0.421442,0.312147 0.811939,0.664972 1.184457,1.033065 0.438769,0.433557 0.621626,1.041452 0.779782,1.620393 0.150434,0.550674 0.325602,1.113593 0.695275,1.564035 0.236847,0.288595 0.481576,0.578083 0.618836,0.93418 0.581851,1.509506 0.825712,3.130597 1.507025,4.60685 0.169251,0.366729 0.540719,0.561042 0.869147,0.760329 0.229477,0.139245 0.413614,0.339938 0.547356,0.574424 0.47338,0.829961 0.724678,1.765847 1.239151,2.577197 0.328897,0.518687 0.782416,0.955682 1.0726,1.495928 0.167151,0.311191 0.08161,0.672708 0.07221,1.007022 -0.0049,0.174593 0.06645,0.33643 0.170777,0.476348 0.305903,0.410247 0.66199,0.783765 0.905186,1.240655 0.469304,0.881677 0.825691,1.841207 1.48228,2.607885 0.312802,0.365249 0.687289,0.719511 1.15369,0.85246 0.377954,0.107737 0.765563,-0.05758 1.090275,-0.243141 0.351608,-0.200928 0.631131,-0.508757 0.98025,-0.710087 0.290046,-0.167264 0.67164,-0.164604 0.901902,-0.436032 0.245607,-0.289517 0.405763,-0.642558 0.527913,-0.998772 0.259396,-0.756453 0.204176,-1.566057 0.233705,-2.35229 0.01337,-0.356094 0.09886,-0.744474 -0.09023,-1.071728 -0.16307,-0.282218 -0.431877,-0.476251 -0.652751,-0.710174 -0.86796,-0.919239 -1.507974,-2.046117 -1.887956,-3.243651 -0.194499,-0.612974 -0.07511,-1.310649 -0.408074,-1.876412 -0.125751,-0.213675 -0.250921,-0.427247 -0.370331,-0.645257 -0.194954,-0.355932 -0.35171,-0.75402 -0.659261,-1.027408 -0.291275,-0.25892 -0.693671,-0.320842 -1.00486,-0.553117 -0.462829,-0.34546 -0.809749,-0.813624 -1.185777,-1.246452 -0.450268,-0.518283 -0.959573,-0.983753 -1.364677,-1.542654 -0.669438,-0.923589 -1.315154,-1.863323 -1.976854,-2.793 -0.551371,-0.774667 -0.757951,-1.72251 -0.935872,-2.640587 -0.09999,-0.515931 -0.155234,-1.044721 -0.320406,-1.544562 -0.248971,-0.753433 -0.736338,-1.391503 -1.188403,-2.031372 -0.506907,-0.717494 -1.242926,-1.231602 -2.00983,-1.640719 -0.630931,-0.33658 -1.312431,-0.574178 -1.929824,-0.934271 -0.348118,-0.203039 -0.652799,-0.475543 -1.033819,-0.626511 -0.529177,-0.20967 -1.093925,-0.381905 -1.518319,-0.78615 -0.257203,-0.244992 -0.425638,-0.56232 -0.608944,-0.861923 -0.402633,-0.658081 -0.83217,-1.302668 -1.177608,-1.992765 -0.08637,-0.172553 -0.105079,-0.369433 -0.138999,-0.557283 -0.367778,-2.036759 -0.376433,-4.102478 -0.616494,-6.161955 -0.05914,-0.50737 -0.05249,-1.022172 -0.0021,-1.529227 0.03085,-0.310103 -0.01528,-0.664562 0.165861,-0.9218852 0.226123,-0.321231 0.295816,-0.7111939 0.448201,-1.0688424 0.05421,-0.1272335 0.30925,-0.1413302 0.268026,-0.2868709 -0.05141,-0.1814931 -0.270601,-0.053852 -0.377576,0.00285 -0.158821,0.084186 -0.307173,0.1916858 -0.478782,0.2492508"
       id="path87"
       inkscape:path-effect="#path-effect89"
       inkscape:original-d="m 1.5497635,33.455842 c -0.1557014,0.112046 -0.57914971,0.180436 -0.4671041,0.336138 0.1120456,0.155699 0.3088045,-0.227796 0.4671041,-0.336138 0.2821018,-0.193077 0.8332339,-0.39838 1.0587697,-0.770313 0.5696738,-0.939451 1.5545863,-1.646507 2.5067881,-2.184892 1.1095058,-0.62733 3.1635784,-1.31953 4.0015228,-2.198902 0.9560209,-1.003286 2.1645289,-1.65037 3.3475769,-2.338955 0.880487,-0.512482 1.593805,-1.17494 2.413373,-1.76472 1.251051,-0.900284 3.52893,-1.842856 4.873448,-2.59106 0.783149,-0.43581 1.562128,-1.460654 2.444513,-1.708697 1.465061,-0.411837 3.052471,-0.363719 4.546473,-0.546224 1.045485,-0.127715 2.079149,-0.33427 3.1296,-0.420171 0.836539,-0.06841 1.653993,0.06379 2.491219,0.05602 0.965623,-0.009 1.982526,-0.227603 2.942751,-0.09804 0.496951,0.06705 0.952567,0.251374 1.463593,0.308125 0.405525,0.04503 0.951593,0.0078 1.339033,0.182075 0.280757,0.126274 0.471786,0.429824 0.762936,0.546224 0.513678,0.205365 1.102162,0.147283 1.634861,0.252102 0.215699,0.04244 1.329645,0.686951 1.494732,0.798326 0.450508,0.303935 0.556119,0.805447 0.856358,1.2185 0.497734,0.684763 1.229847,1.223408 1.743855,1.90478 0.188659,0.25009 0.333214,0.588953 0.576096,0.798326 0.32806,0.282801 0.87352,0.441221 1.121048,0.812327 0.261591,0.39219 0.39207,0.841231 0.762934,1.162477 0.450519,0.390242 1.101468,0.44015 1.588156,0.798325 0.624948,0.45993 0.934392,1.28865 1.370171,1.596652 0.48868,0.345395 1.145336,0.478155 1.68157,0.742304 0.260601,0.128371 1.023094,0.843365 1.245616,1.05043 0.847603,0.788736 0.748684,1.993035 1.307891,2.927197 0.230177,0.384511 0.628674,0.708456 0.79407,1.120457 0.620469,1.54558 0.82763,3.228756 1.557015,4.733938 0.296804,0.612492 1.002186,0.659099 1.339027,1.204487 0.485981,0.786865 0.71138,1.709264 1.183336,2.49302 0.345688,0.57407 0.774327,1.131134 1.167759,1.652675 0.300128,0.397857 -0.03673,1.070047 0.202412,1.428584 0.270383,0.405381 0.648811,0.747066 0.90307,1.204494 0.69596,1.252069 1.216819,2.942241 2.615774,3.57146 0.709055,0.318918 1.626079,-0.49734 2.101972,-0.868355 0.236516,-0.184393 0.596048,-0.186343 0.840782,-0.364151 0.243827,-0.177152 0.426559,-0.560084 0.544957,-0.826334 0.370409,-0.83298 0.319032,-1.632534 0.342546,-2.521032 0.01786,-0.675013 0.177207,-1.029554 -0.358114,-1.526627 -1.064236,-0.988198 -1.710692,-2.136682 -2.226529,-3.501427 -0.277204,-0.733396 -0.09005,-1.479153 -0.544957,-2.156883 -0.26016,-0.387599 -0.582139,-1.195933 -0.934202,-1.512615 -0.242551,-0.218176 -0.553548,-0.276048 -0.825224,-0.434182 -0.418095,-0.243358 -0.903002,-0.78223 -1.198894,-1.16247 -0.42985,-0.552392 -0.984218,-1.005869 -1.401315,-1.568643 -0.69718,-0.940684 -1.319379,-1.930665 -2.024115,-2.857167 -0.907979,-1.193699 -0.949481,-2.682203 -1.27675,-4.075668 -0.187415,-0.797983 -0.748384,-1.51248 -1.183325,-2.156879 -0.942377,-1.396209 -2.47595,-1.91259 -3.90811,-2.619069 -0.357767,-0.176484 -0.640141,-0.475853 -1.01206,-0.63026 -0.744408,-0.309053 -1.308032,-0.404132 -1.821704,-1.036424 -0.153551,-0.18901 -1.608847,-2.576787 -1.650429,-2.759126 -0.48568,-2.129795 -0.25201,-4.416356 -0.700656,-6.568686 -0.09078,-0.435488 -0.04312,-2.238743 0.186843,-2.5490415 0.188053,-0.2537476 0.280996,-0.8958114 0.467101,-1.0784398 0.07438,-0.072988 0.240607,-0.1223679 0.217985,-0.2240912 -0.06459,-0.2904699 -0.570854,0.1682438 -0.856358,0.2521026" />
    <path
       style="fill:none;stroke:#000000;stroke-width:0.264583px;stroke-linecap:butt;stroke-linejoin:miter;stroke-opacity:1"
       d="m 46.796515,8.6517071 c -0.0045,-0.4041661 -0.07653,-0.8080479 -0.03659,-1.2118871 0.0067,-0.067911 0.0087,-0.1374322 0.02835,-0.2029169 0.02909,-0.097118 0.109914,-0.1654606 0.186648,-0.2260362 0.09152,-0.072248 0.200586,-0.1343513 0.255649,-0.2400263 0.03801,-0.07294 0.06851,-0.1495912 0.103532,-0.2240642 0.311037,-0.6613803 0.737833,-1.2681877 1.257589,-1.7824045 0.463357,-0.4584187 0.990989,-0.8548311 1.569126,-1.1544733 0.340489,-0.1764718 0.729956,-0.2181111 1.077792,-0.3770329 0.08148,-0.037227 0.143607,-0.1052861 0.190381,-0.1802894 0.04427,-0.070996 0.09296,-0.1407274 0.161276,-0.1918999 0.293658,-0.2199551 0.614362,-0.4032483 0.952359,-0.5462104 0.299525,-0.1266897 0.611873,-0.2188869 0.922717,-0.3131971 0.75257,-0.2283299 1.485559,-0.5235429 2.254698,-0.6954979 0.275235,-0.061534 0.555231,-0.099844 0.836489,-0.1206127 0.279758,-0.020658 0.564052,0.012949 0.840594,-0.033475 0.03537,-0.00594 0.138157,0.00331 0.111677,-0.017495 -0.08081,-0.063492 -0.175188,-0.1084106 -0.275224,-0.1327977 -0.0533,-0.0129944 -0.107251,-0.023115 -0.160743,-0.0352706"
       id="path91"
       inkscape:path-effect="#path-effect93"
       inkscape:original-d="M 46.796515,8.6517071 C 46.791329,8.1907032 46.706049,7.723598 46.780984,7.2686952 46.819348,7.0357925 47.153935,6.9529308 47.24809,6.7364816 47.841989,5.3711887 48.815487,4.3540648 50.128558,3.6272094 50.470572,3.437887 50.881734,3.4010502 51.23404,3.2350498 51.430647,3.1424126 51.432414,2.9789755 51.576586,2.870899 52.160889,2.4328873 52.68097,2.2318332 53.367146,2.0305574 54.297373,1.7576952 55.251794,1.3421736 56.216478,1.2182245 56.82013,1.1406629 57.554396,1.1688904 57.508803,1.1341876 57.348368,1.0120763 57.25057,1.0060916 57.072836,0.96611931" />
  </g>
</svg>
