<?xml version="1.0" encoding="UTF-8" standalone="no"?>
<!-- Created with Inkscape (http://www.inkscape.org/) -->

<svg
   width="353.56799mm"
   height="264.16mm"
   viewBox="0 0 353.56799 264.16"
   version="1.1"
   id="svg5"
   inkscape:version="1.1.2 (08b2f3d93c, 2022-04-05)"
   sodipodi:docname="FibraNervosaMielinica.svg"
   xmlns:inkscape="http://www.inkscape.org/namespaces/inkscape"
   xmlns:sodipodi="http://sodipodi.sourceforge.net/DTD/sodipodi-0.dtd"
   xmlns="http://www.w3.org/2000/svg"
   xmlns:svg="http://www.w3.org/2000/svg">
  <sodipodi:namedview
     id="namedview7"
     pagecolor="#ffffff"
     bordercolor="#666666"
     borderopacity="1.0"
     inkscape:pageshadow="2"
     inkscape:pageopacity="0.0"
     inkscape:pagecheckerboard="0"
     inkscape:document-units="mm"
     showgrid="false"
     inkscape:zoom="0.40935552"
     inkscape:cx="820.80242"
     inkscape:cy="531.323"
     inkscape:window-width="1366"
     inkscape:window-height="704"
     inkscape:window-x="0"
     inkscape:window-y="27"
     inkscape:window-maximized="1"
     inkscape:current-layer="layer3" />
  <defs
     id="defs2">
    <inkscape:path-effect
       effect="simplify"
       id="path-effect288"
       is_visible="true"
       lpeversion="1"
       steps="1"
       threshold="0.000408163"
       smooth_angles="360"
       helper_size="0"
       simplify_individual_paths="false"
       simplify_just_coalesce="false" />
    <inkscape:path-effect
       effect="simplify"
       id="path-effect284"
       is_visible="true"
       lpeversion="1"
       steps="1"
       threshold="0.000408163"
       smooth_angles="360"
       helper_size="0"
       simplify_individual_paths="false"
       simplify_just_coalesce="false" />
    <inkscape:path-effect
       effect="simplify"
       id="path-effect280"
       is_visible="true"
       lpeversion="1"
       steps="1"
       threshold="0.000408163"
       smooth_angles="360"
       helper_size="0"
       simplify_individual_paths="false"
       simplify_just_coalesce="false" />
    <inkscape:path-effect
       effect="simplify"
       id="path-effect276"
       is_visible="true"
       lpeversion="1"
       steps="1"
       threshold="0.000408163"
       smooth_angles="360"
       helper_size="0"
       simplify_individual_paths="false"
       simplify_just_coalesce="false" />
    <inkscape:path-effect
       effect="simplify"
       id="path-effect272"
       is_visible="true"
       lpeversion="1"
       steps="1"
       threshold="0.000408163"
       smooth_angles="360"
       helper_size="0"
       simplify_individual_paths="false"
       simplify_just_coalesce="false" />
    <inkscape:path-effect
       effect="simplify"
       id="path-effect268"
       is_visible="true"
       lpeversion="1"
       steps="1"
       threshold="0.000408163"
       smooth_angles="360"
       helper_size="0"
       simplify_individual_paths="false"
       simplify_just_coalesce="false" />
    <inkscape:path-effect
       effect="simplify"
       id="path-effect264"
       is_visible="true"
       lpeversion="1"
       steps="1"
       threshold="0.000408163"
       smooth_angles="360"
       helper_size="0"
       simplify_individual_paths="false"
       simplify_just_coalesce="false" />
    <inkscape:path-effect
       effect="simplify"
       id="path-effect260"
       is_visible="true"
       lpeversion="1"
       steps="1"
       threshold="0.000408163"
       smooth_angles="360"
       helper_size="0"
       simplify_individual_paths="false"
       simplify_just_coalesce="false" />
    <inkscape:path-effect
       effect="simplify"
       id="path-effect256"
       is_visible="true"
       lpeversion="1"
       steps="1"
       threshold="0.000408163"
       smooth_angles="360"
       helper_size="0"
       simplify_individual_paths="false"
       simplify_just_coalesce="false" />
    <inkscape:path-effect
       effect="simplify"
       id="path-effect252"
       is_visible="true"
       lpeversion="1"
       steps="1"
       threshold="0.000408163"
       smooth_angles="360"
       helper_size="0"
       simplify_individual_paths="false"
       simplify_just_coalesce="false" />
    <inkscape:path-effect
       effect="simplify"
       id="path-effect215"
       is_visible="true"
       lpeversion="1"
       steps="1"
       threshold="0.000408163"
       smooth_angles="360"
       helper_size="0"
       simplify_individual_paths="false"
       simplify_just_coalesce="false" />
    <inkscape:path-effect
       effect="simplify"
       id="path-effect211"
       is_visible="true"
       lpeversion="1"
       steps="1"
       threshold="0.000408163"
       smooth_angles="360"
       helper_size="0"
       simplify_individual_paths="false"
       simplify_just_coalesce="false" />
    <inkscape:path-effect
       effect="simplify"
       id="path-effect207"
       is_visible="true"
       lpeversion="1"
       steps="1"
       threshold="0.000408163"
       smooth_angles="360"
       helper_size="0"
       simplify_individual_paths="false"
       simplify_just_coalesce="false" />
    <inkscape:path-effect
       effect="simplify"
       id="path-effect203"
       is_visible="true"
       lpeversion="1"
       steps="1"
       threshold="0.000408163"
       smooth_angles="360"
       helper_size="0"
       simplify_individual_paths="false"
       simplify_just_coalesce="false" />
    <inkscape:path-effect
       effect="simplify"
       id="path-effect199"
       is_visible="true"
       lpeversion="1"
       steps="1"
       threshold="0.000408163"
       smooth_angles="360"
       helper_size="0"
       simplify_individual_paths="false"
       simplify_just_coalesce="false" />
    <inkscape:path-effect
       effect="simplify"
       id="path-effect195"
       is_visible="true"
       lpeversion="1"
       steps="1"
       threshold="0.000408163"
       smooth_angles="360"
       helper_size="0"
       simplify_individual_paths="false"
       simplify_just_coalesce="false" />
    <inkscape:path-effect
       effect="simplify"
       id="path-effect191"
       is_visible="true"
       lpeversion="1"
       steps="1"
       threshold="0.000408163"
       smooth_angles="360"
       helper_size="0"
       simplify_individual_paths="false"
       simplify_just_coalesce="false" />
    <inkscape:path-effect
       effect="simplify"
       id="path-effect187"
       is_visible="true"
       lpeversion="1"
       steps="1"
       threshold="0.000408163"
       smooth_angles="360"
       helper_size="0"
       simplify_individual_paths="false"
       simplify_just_coalesce="false" />
    <inkscape:path-effect
       effect="simplify"
       id="path-effect183"
       is_visible="true"
       lpeversion="1"
       steps="1"
       threshold="0.000408163"
       smooth_angles="360"
       helper_size="0"
       simplify_individual_paths="false"
       simplify_just_coalesce="false" />
    <inkscape:path-effect
       effect="simplify"
       id="path-effect179"
       is_visible="true"
       lpeversion="1"
       steps="1"
       threshold="0.000408163"
       smooth_angles="360"
       helper_size="0"
       simplify_individual_paths="false"
       simplify_just_coalesce="false" />
    <inkscape:path-effect
       effect="simplify"
       id="path-effect61"
       is_visible="true"
       lpeversion="1"
       steps="1"
       threshold="0.000408163"
       smooth_angles="360"
       helper_size="0"
       simplify_individual_paths="false"
       simplify_just_coalesce="false" />
    <inkscape:path-effect
       effect="simplify"
       id="path-effect57"
       is_visible="true"
       lpeversion="1"
       steps="1"
       threshold="0.000408163"
       smooth_angles="360"
       helper_size="0"
       simplify_individual_paths="false"
       simplify_just_coalesce="false" />
  </defs>
  <g
     inkscape:groupmode="layer"
     id="layer3"
     inkscape:label="Fibra Nervosa Mielinica" />
  <path
     style="fill:none;stroke:#000000;stroke-width:0.264583px;stroke-linecap:butt;stroke-linejoin:miter;stroke-opacity:1"
     d="m 215.16391,96.333375 c -0.25585,-0.143051 -0.48916,-0.327087 -0.76394,-0.436117 -0.16963,-0.06731 -0.35869,-0.05386 -0.53341,-0.017 -0.31933,0.06737 -0.62141,0.198234 -0.91107,0.345418 -0.56152,0.28532 -1.09076,0.630318 -1.60021,0.999433 -0.5237,0.379439 -1.03509,0.778018 -1.50941,1.217918 -0.20486,0.189993 -0.40773,0.385092 -0.57267,0.611992 -0.25863,0.355792 -0.46895,0.744936 -0.6469,1.146441 -0.22228,0.50153 -0.40419,1.02465 -0.49747,1.56613 -0.0596,0.34593 -0.0873,0.70268 -0.0274,1.05072 0.0286,0.16631 0.088,0.32595 0.16788,0.47457 0.19977,0.37179 0.51238,0.67171 0.86087,0.90422 0.45094,0.30087 0.95794,0.50572 1.47177,0.67164 0.49448,0.15967 1.00229,0.27204 1.50521,0.40117 0.15848,0.0407 0.30702,0.11185 0.44856,0.19278 0.13296,0.076 0.27152,0.1463 0.42192,0.1805 0.23828,0.0542 0.48634,0.0409 0.72619,0.006 0.38266,-0.0555 0.75828,-0.15833 1.11753,-0.3004 0.26825,-0.10608 0.53538,-0.22571 0.76691,-0.39929 0.12346,-0.0926 0.2401,-0.19388 0.35736,-0.29405 0.45814,-0.39137 0.89444,-0.81457 1.24947,-1.30375 0.38571,-0.53145 0.67575,-1.12473 0.93383,-1.72591 0.0511,-0.11894 0.10593,-0.23621 0.16799,-0.34994 0.11997,-0.21986 0.25933,-0.43572 0.31617,-0.6825 0.0278,-0.12052 0.036,-0.24451 0.0462,-0.36743 0.0435,-0.523822 0.0151,-1.059497 -0.13982,-1.564621 -0.13346,-0.435069 -0.36756,-0.834289 -0.65612,-1.184579 -0.25872,-0.314062 -0.56703,-0.581605 -0.87236,-0.849487 -0.16421,-0.14407 -0.30722,-0.31639 -0.49966,-0.425141 -0.10154,-0.05738 -0.21949,-0.08676 -0.33647,-0.0762 -0.18326,0.01654 -0.36347,0.05595 -0.54256,0.09674 -0.15011,0.0342 -0.29936,0.07205 -0.44838,0.110668 z"
     id="path250"
     inkscape:path-effect="#path-effect252"
     inkscape:original-d="m 215.16391,96.333375 c -0.26823,-0.150127 -0.51284,-0.353867 -0.80468,-0.450379 -1.06316,-0.351592 -4.33304,2.250387 -4.97111,3.023984 -0.74632,0.90483 -1.67834,3.17028 -1.18019,4.26253 0.61306,1.34417 2.57143,1.7784 3.86245,2.09106 0.53318,0.12912 0.61258,0.4182 1.25171,0.4182 0.69341,0 1.82783,-0.36605 2.3425,-0.78816 1.39895,-1.14738 1.81894,-1.7933 2.52132,-3.39394 0.14225,-0.32416 0.40251,-0.64786 0.44704,-1.01336 0.20998,-1.7236 -0.31017,-2.754329 -1.60935,-3.828228 -0.23209,-0.191847 -0.46011,-0.511847 -0.7868,-0.530807 -0.24393,-0.01416 -1.03474,0.200321 -1.07289,0.2091 z" />
  <path
     style="fill:none;stroke:#000000;stroke-width:0.264583px;stroke-linecap:butt;stroke-linejoin:miter;stroke-opacity:1"
     d="m 127.26173,142.19177 c -0.31543,-0.2457 -0.63411,-0.49508 -0.99879,-0.66432 -0.24936,-0.11572 -0.52543,-0.19435 -0.80207,-0.16744 -0.2879,0.028 -0.56252,0.1327 -0.82021,0.25919 -0.48466,0.2379 -0.92952,0.55075 -1.34156,0.89781 -0.51755,0.43593 -0.99582,0.9235 -1.38987,1.47449 -0.25439,0.35571 -0.48279,0.73771 -0.61317,1.15741 -0.0838,0.26966 -0.12108,0.56167 -0.0544,0.83955 0.0707,0.2947 0.20472,0.56986 0.35351,0.83207 0.28583,0.5037 0.62762,0.97278 0.97581,1.43461 0.32504,0.43112 0.66621,0.84995 0.98628,1.28482 0.0961,0.13057 0.18958,0.26378 0.26404,0.40832 0.17792,0.34536 0.26825,0.73177 0.47632,1.06192 0.17823,0.2828 0.40356,0.53558 0.66093,0.74869 0.44463,0.36816 0.98835,0.60552 1.55213,0.71965 0.56669,0.11472 1.15491,0.11996 1.7238,0.0224 0.37671,-0.0646 0.74793,-0.17056 1.09525,-0.33073 0.26069,-0.12022 0.51611,-0.26725 0.71391,-0.47795 0.13918,-0.14826 0.24973,-0.32137 0.34679,-0.49915 0.25194,-0.46144 0.42428,-0.96213 0.55769,-1.46915 0.22164,-0.84235 0.34796,-1.70918 0.38851,-2.57874 0.0347,-0.74356 0.0179,-1.49404 -0.11609,-2.22751 -0.082,-0.44853 -0.20573,-0.89471 -0.42163,-1.29902 -0.0921,-0.17238 -0.21369,-0.32627 -0.3431,-0.47199 -0.28204,-0.31759 -0.62085,-0.59033 -1.01045,-0.76483 -0.37757,-0.16911 -0.79317,-0.23467 -1.20457,-0.24434 -0.36233,-0.009 -0.72343,0.0294 -1.08355,0.0652 -0.26993,0.0268 -0.54145,0.0223 -0.81278,0.0145 -0.0646,-0.002 -0.13445,-0.0185 -0.19502,0.009 -0.0596,0.027 -0.0865,0.0916 -0.11169,0.14731 -0.0402,0.089 -0.0771,0.17956 -0.11712,0.26868"
     id="path254"
     inkscape:path-effect="#path-effect256"
     inkscape:original-d="m 127.26173,142.19177 c -0.45158,-0.35099 -1.0581,-0.83642 -1.69876,-0.83642 -1.41212,0 -4.56698,2.85839 -4.34525,4.50381 0.1445,1.07231 1.8485,2.96209 2.46767,3.86041 0.29844,0.43298 0.36778,0.93551 0.66163,1.36722 0.84125,1.23597 2.32258,1.63011 3.77303,1.43156 0.63329,-0.0867 1.58233,-0.38739 2.00274,-0.91684 1.25932,-1.5859 1.77157,-6.69354 0.46493,-8.29987 -0.93544,-1.14998 -1.92537,-1.26627 -3.32599,-1.10987 -1.31738,0.14711 -1.03411,-0.24004 -1.34113,0.45038" />
  <path
     style="fill:none;stroke:#000000;stroke-width:0.264583px;stroke-linecap:butt;stroke-linejoin:miter;stroke-opacity:1"
     d="m 116.76518,167.30048 c 0.0417,-0.30561 -0.0799,-0.68643 0.12517,-0.91683 0.0163,-0.0183 0.0426,-0.0303 0.0293,-0.0656 -0.0881,-0.2332 -0.25544,-0.43249 -0.46315,-0.56927 -0.27183,-0.17901 -0.59408,-0.26467 -0.91405,-0.30325 -0.47279,-0.057 -0.9522,-0.0272 -1.42166,0.0434 -0.48732,0.0733 -0.96855,0.18786 -1.43652,0.34264 -0.22385,0.074 -0.44063,0.1691 -0.64584,0.28536 -0.47957,0.2717 -0.91019,0.62519 -1.28922,1.02391 -0.42933,0.45163 -0.80245,0.9629 -1.06205,1.5309 -0.20055,0.4388 -0.33846,0.91766 -0.32266,1.40318 0.006,0.18591 0.0274,0.37363 0.0858,0.55086 0.0869,0.26361 0.26026,0.48937 0.45849,0.67978 0.31102,0.29875 0.67881,0.52703 1.02565,0.78023 0.096,0.0701 0.1846,0.14991 0.26467,0.23782 0.21055,0.23116 0.37411,0.50319 0.60623,0.71512 0.0827,0.0755 0.17777,0.13557 0.27577,0.18944 0.64579,0.35499 1.36722,0.55553 2.09559,0.64831 0.86366,0.11001 1.74143,0.0869 2.60208,-0.0331 0.26957,-0.0376 0.54091,-0.072 0.80305,-0.14844 0.5016,-0.14633 0.96137,-0.43469 1.30696,-0.82778 0.40338,-0.45882 0.63911,-1.05583 0.6782,-1.66459 0.0375,-0.58401 -0.11478,-1.17375 -0.40964,-1.6784 -0.12616,-0.21592 -0.28374,-0.41128 -0.45156,-0.59618 -0.54739,-0.6031 -1.18794,-1.12569 -1.90624,-1.5124 -0.44261,-0.23829 -0.90805,-0.44515 -1.39853,-0.55527 -0.16378,-0.0368 -0.33415,-0.007 -0.49201,0.0418 -0.33489,0.10273 -0.63778,0.28383 -0.96154,0.41415 -0.061,0.0245 -0.12288,0.0471 -0.18631,0.0646"
     id="path258"
     inkscape:path-effect="#path-effect260"
     inkscape:original-d="m 116.76518,167.30048 c 0.0417,-0.30561 0.0834,-0.61122 0.12517,-0.91683 0.0119,-0.0161 0.0427,-0.0295 0.0358,-0.0483 -0.54962,-1.48319 -3.44502,-0.81579 -4.43466,-0.43429 -1.51156,0.5827 -3.47356,2.81065 -3.07565,4.60031 0.17273,0.77689 1.03842,1.20386 1.59147,1.64067 0.37441,0.29571 0.58245,0.80573 1.00138,1.04553 1.53651,0.87953 3.52119,0.8639 5.18568,0.59515 2.28974,-0.3697 3.13094,-3.01327 1.60935,-4.74509 -0.92244,-1.0499 -2.0354,-1.80347 -3.37963,-2.17148 -0.49048,-0.13428 -1.19289,0.38603 -1.663,0.51472" />
  <path
     style="fill:none;stroke:#000000;stroke-width:0.264583px;stroke-linecap:butt;stroke-linejoin:miter;stroke-opacity:1"
     d="m 115.45982,101.80228 c -0.12007,-0.217 -0.23151,-0.43969 -0.37232,-0.6444 -0.10518,-0.15291 -0.23669,-0.28936 -0.39466,-0.38823 -0.14095,-0.0882 -0.29577,-0.15431 -0.456,-0.19748 -0.28958,-0.078 -0.59696,-0.0521 -0.88462,0.0208 -0.40622,0.103 -0.78571,0.28684 -1.15687,0.47749 -0.3166,0.16263 -0.62938,0.33358 -0.95761,0.47264 -0.69882,0.29607 -1.42911,0.51772 -2.10733,0.86194 -0.43343,0.21998 -0.83282,0.50624 -1.17863,0.84987 -0.0952,0.0946 -0.17687,0.2027 -0.24088,0.32081 -0.13653,0.2519 -0.20662,0.53229 -0.26944,0.80969 -0.0317,0.14011 -0.0702,0.27861 -0.10149,0.41878 -0.16731,0.74918 -0.12526,1.545 0.12983,2.27015 0.22414,0.63717 0.6164,1.21438 1.12799,1.65529 0.22147,0.19087 0.4613,0.36259 0.72322,0.49398 0.49668,0.24915 1.03726,0.39026 1.54511,0.61353 0.53738,0.23625 1.08142,0.46859 1.65594,0.59927 0.4422,0.10058 0.90005,0.13311 1.3515,0.092 0.17058,-0.0155 0.34193,-0.0319 0.50924,-0.0698 0.31324,-0.071 0.60375,-0.22867 0.84321,-0.44178 0.30201,-0.26878 0.53052,-0.61206 0.69795,-0.97744 0.19242,-0.41991 0.36955,-0.84813 0.50225,-1.29097 0.14748,-0.49218 0.2417,-1.00731 0.20943,-1.52266 -0.0221,-0.35258 -0.10541,-0.70327 -0.26275,-1.02082 -0.19172,-0.38695 -0.44039,-0.74344 -0.71353,-1.07676 -0.38472,-0.46947 -0.81698,-0.90402 -1.30874,-1.26108 -0.33968,-0.24664 -0.70891,-0.46376 -1.11481,-0.57984 -0.29096,-0.0832 -0.60735,-0.10414 -0.8993,-0.0115 -0.26118,0.0829 -0.48395,0.26009 -0.64972,0.47545"
     id="path262"
     inkscape:path-effect="#path-effect264"
     inkscape:original-d="m 115.45982,101.80228 c -0.35904,-0.65722 -0.50481,-0.99062 -1.14443,-1.20637 -0.95168,-0.32102 -2.12377,0.52832 -2.93259,0.88467 -1.23536,0.54428 -2.53963,0.80614 -3.48693,1.8337 -0.32887,0.35673 -0.40227,0.88869 -0.51857,1.33505 -0.42971,1.64922 0.15109,3.40185 1.62723,4.39121 0.53882,0.36114 1.21934,0.51239 1.80605,0.77208 1.18975,0.52661 2.06776,0.87292 3.41541,0.67557 0.85597,-0.12534 1.39499,-0.77181 1.73452,-1.52807 0.47033,-1.04763 0.921,-2.31245 0.53645,-3.45828 -0.46364,-1.38149 -3.41319,-4.54577 -4.81017,-2.75054" />
  <path
     style="fill:none;stroke:#000000;stroke-width:0.264583px;stroke-linecap:butt;stroke-linejoin:miter;stroke-opacity:1"
     d="m 134.19982,100.10865 c -0.50969,-0.375805 -1.11356,-0.619211 -1.73973,-0.712008 -0.77418,-0.114732 -1.57112,-0.0063 -2.30554,0.254451 -0.89698,0.318518 -1.71908,0.850297 -2.3716,1.542707 -0.39098,0.41488 -0.74663,0.87408 -0.97864,1.39819 -0.17444,0.39405 -0.26297,0.83099 -0.21947,1.26232 0.0453,0.44922 0.23649,0.8729 0.49655,1.23798 0.33886,0.4757 0.77838,0.86993 1.24254,1.21993 0.52458,0.39556 1.09122,0.73017 1.65801,1.06112 0.44328,0.25883 0.85513,0.57278 1.32346,0.78761 0.24706,0.11333 0.51104,0.18768 0.78061,0.225 0.82964,0.11487 1.68058,0.0961 2.49966,-0.0856 0.55319,-0.12272 1.08807,-0.32251 1.59352,-0.57729 0.62707,-0.31608 1.21004,-0.73606 1.66197,-1.27774 0.37059,-0.44419 0.63753,-0.97344 0.77538,-1.5356 0.10906,-0.44477 0.12523,-0.90621 0.10449,-1.36284 -0.0155,-0.34187 0.002,-0.68835 -0.0713,-1.02481 -0.038,-0.17433 -0.0766,-0.37277 -0.21548,-0.4872 -0.0571,-0.047 -0.12395,-0.0806 -0.18916,-0.11466 -0.3795,-0.19842 -0.7679,-0.37924 -1.15681,-0.55828 -0.77287,-0.35581 -1.54628,-0.71137 -2.33294,-1.03563 -0.17625,-0.0726 -0.34796,-0.15988 -0.5318,-0.21078 -0.28866,-0.0799 -0.59197,-0.0873 -0.8892,-0.0683 -0.41043,0.0263 -0.81596,0.10239 -1.22665,0.12569"
     id="path266"
     inkscape:path-effect="#path-effect268"
     inkscape:original-d="m 134.19982,100.10865 c -2.02116,-1.480957 -4.82571,-0.621791 -6.45528,1.12595 -2.54042,2.72462 -0.54826,4.55748 2.16368,6.09622 0.70308,0.39893 1.28614,0.92535 2.11003,1.04553 1.15668,0.16872 2.30265,0.0854 3.39752,-0.32171 2.06747,-0.7687 3.44614,-2.22075 3.30811,-4.45554 -0.0302,-0.48906 0.0369,-1.14789 -0.28611,-1.56025 -0.12255,-0.15647 -3.89976,-1.84329 -4.23795,-1.9302 -0.67576,-0.173677 -1.39554,0.0252 -2.09215,0.0643" />
  <path
     style="fill:none;stroke:#000000;stroke-width:0.264583px;stroke-linecap:butt;stroke-linejoin:miter;stroke-opacity:1"
     d="m 118.12419,87.578416 c -0.28964,-0.170173 -0.59648,-0.321719 -0.9273,-0.391631 -0.23333,-0.04931 -0.47839,-0.0438 -0.70825,0.02155 -0.29371,0.0835 -0.55677,0.245285 -0.80918,0.412509 -0.29301,0.194122 -0.5838,0.39164 -0.88333,0.575874 -0.35316,0.217218 -0.67264,0.48525 -0.96584,0.777543 -0.2359,0.235169 -0.46192,0.480182 -0.68062,0.731286 -0.31006,0.355992 -0.59747,0.739976 -0.78853,1.174223 -0.139,0.315918 -0.21535,0.665391 -0.17906,1.011477 0.035,0.333856 0.17877,0.647852 0.37201,0.919211 0.25612,0.359655 0.58431,0.660805 0.92614,0.937084 0.46729,0.377678 0.96936,0.708849 1.46056,1.054048 0.34366,0.241515 0.6644,0.51886 1.03745,0.716118 0.20465,0.108212 0.42616,0.183226 0.65428,0.224317 0.58665,0.105674 1.17848,0.1877 1.77381,0.22147 0.41054,0.02329 0.82489,0.03322 1.23282,-0.02498 0.224,-0.03196 0.45147,-0.07814 0.65169,-0.187334 0.11335,-0.06182 0.21233,-0.146557 0.3075,-0.232829 0.33472,-0.303439 0.57789,-0.698915 0.72809,-1.123237 0.18968,-0.53585 0.246,-1.111213 0.22142,-1.676529 -0.028,-0.644649 -0.1496,-1.285346 -0.35846,-1.895444 -0.0622,-0.181721 -0.13025,-0.361421 -0.20063,-0.540109 -0.0877,-0.222597 -0.18897,-0.444688 -0.34633,-0.627761 -0.14432,-0.167905 -0.32652,-0.302671 -0.52629,-0.395544 -0.20029,-0.09311 -0.41332,-0.155285 -0.62648,-0.210864 -0.53356,-0.139121 -1.07665,-0.239849 -1.62239,-0.316725 -0.5463,-0.07695 -1.09628,-0.140754 -1.64836,-0.144539 -0.2535,-0.0017 -0.50957,0.0012 -0.75875,0.05235 -0.0982,0.02014 -0.1926,0.0561 -0.27923,0.107949 -0.45711,0.273575 -0.84483,0.653697 -1.15359,1.086155 -0.38112,0.533808 -0.6491,1.139438 -0.85843,1.758543 -0.0851,0.251746 -0.16072,0.506638 -0.2304,0.763061"
     id="path270"
     inkscape:path-effect="#path-effect272"
     inkscape:original-d="m 118.12419,87.578416 c -1.53719,-0.91027 -1.99229,-0.191146 -3.29023,0.595146 -0.64959,0.393525 -1.09375,0.87544 -1.60935,1.447654 -2.1748,2.413587 -0.65826,3.560448 1.64512,5.131115 0.55482,0.378338 1.02136,0.851794 1.71664,0.981191 0.75778,0.141031 3.06469,0.501555 3.8088,-0.04826 1.52612,-1.127646 1.29404,-3.553536 0.71526,-5.082863 -0.23597,-0.623535 -0.35348,-0.996875 -0.94773,-1.318971 -0.74099,-0.401635 -4.26348,-0.953484 -4.93534,-0.562978 -1.32932,0.772639 -1.91559,2.26165 -2.28885,3.635216" />
  <path
     style="fill:none;stroke:#000000;stroke-width:0.264583px;stroke-linecap:butt;stroke-linejoin:miter;stroke-opacity:1"
     d="m 147.17,180.41129 c -0.25651,-0.17742 -0.4691,-0.41434 -0.74455,-0.56526 -0.12444,-0.0682 -0.26234,-0.10701 -0.40041,-0.13537 -0.1257,-0.0258 -0.25904,-0.0447 -0.38453,-0.007 -0.10672,0.0321 -0.18816,0.11646 -0.29666,0.14525 -0.1135,0.0301 -0.23241,0.0149 -0.34673,-6.8e-4 -0.23706,-0.0324 -0.46775,-0.10154 -0.70683,-0.12214 -0.29365,-0.0253 -0.58845,0.0185 -0.87335,0.0884 -0.37164,0.0912 -0.73486,0.21628 -1.11304,0.28148 -0.98844,0.1704 -1.95345,0.51322 -2.80206,1.052 -0.66921,0.42488 -1.26453,0.98053 -1.68368,1.65743 -0.34007,0.54919 -0.54741,1.17921 -0.59981,1.82347 -0.0558,0.68553 0.0712,1.37453 0.29392,2.02246 0.14532,0.42273 0.25981,0.85721 0.44353,1.26588 0.13458,0.29936 0.31735,0.58058 0.55987,0.80396 0.18585,0.17118 0.39934,0.3138 0.63125,0.41375 0.33147,0.14286 0.69257,0.2017 1.05057,0.22545 0.58086,0.0385 1.16344,-0.005 1.74086,-0.0688 0.25742,-0.0283 0.51554,-0.0518 0.77167,-0.09 0.34174,-0.051 0.67788,-0.13408 1.01035,-0.22684 0.71849,-0.20046 1.42668,-0.44344 2.10541,-0.75355 0.4649,-0.21241 0.9243,-0.44785 1.33031,-0.76053 0.23784,-0.18317 0.46477,-0.39236 0.61525,-0.65534 0.0835,-0.14587 0.13043,-0.31186 0.13388,-0.48069 0.007,-0.36601 -0.0555,-0.73004 -0.14653,-1.08324 -0.1427,-0.55356 -0.34897,-1.09098 -0.61335,-1.59758 -0.19013,-0.36433 -0.40679,-0.71814 -0.67841,-1.02796 -0.23517,-0.26824 -0.52763,-0.47567 -0.81271,-0.68649 -0.16154,-0.11946 -0.31462,-0.24961 -0.47045,-0.37665 -0.15857,-0.12928 -0.32682,-0.24641 -0.49887,-0.35686 -0.20017,-0.1285 -0.40215,-0.25857 -0.62343,-0.34715 -0.0846,-0.0339 -0.17268,-0.0665 -0.26531,-0.0674 -0.0494,-4.6e-4 -0.0982,0.0332 -0.10827,0.0829 -0.0148,0.0734 0.0106,0.14685 0.0274,0.21764 0.0116,0.049 0.0238,0.099 0.0215,0.14978"
     id="path274"
     inkscape:path-effect="#path-effect276"
     inkscape:original-d="m 147.17,180.41129 c -0.30995,-0.21447 -0.56969,-0.53224 -0.92984,-0.6434 -0.79925,-0.2467 -0.62695,0.12011 -1.0729,0.0965 -0.40373,-0.0213 -0.64206,-0.15627 -1.10867,-0.14477 -0.60107,0.0148 -1.13893,0.27373 -1.71664,0.36996 -3.24821,0.54105 -6.06791,2.98129 -4.84593,6.51443 0.34991,1.01173 0.49062,1.93284 1.53782,2.4771 0.93807,0.48754 2.5805,0.24737 3.6121,0.12868 1.03378,-0.11894 5.18227,-1.34768 5.25721,-2.83097 0.0578,-1.14345 -0.76172,-3.13446 -1.59146,-3.92474 -0.33985,-0.32368 -0.75756,-0.56884 -1.10867,-0.88468 -0.17827,-0.16035 -1.24048,-0.9075 -1.4663,-0.77208 -0.12415,0.0745 0.008,0.28975 0,0.4343" />
  <path
     style="fill:none;stroke:#000000;stroke-width:0.264583px;stroke-linecap:butt;stroke-linejoin:miter;stroke-opacity:1"
     d="m 86.259171,163.28074 c -0.460767,-0.13959 -0.950166,-0.19143 -1.429075,-0.13057 -0.497338,0.0632 -0.971312,0.24933 -1.407829,0.49109 -0.520507,0.28828 -0.99068,0.6556 -1.467887,1.00874 -0.526864,0.38989 -1.108702,0.70415 -1.604543,1.136 -0.292719,0.25494 -0.547706,0.55926 -0.714541,0.91221 -0.126485,0.26759 -0.190416,0.55995 -0.2275,0.8521 -0.05222,0.41142 -0.02003,0.83551 0.11328,1.22966 0.142909,0.42252 0.397744,0.79805 0.692332,1.12928 0.387985,0.43625 0.837571,0.81103 1.276285,1.19423 0.556242,0.48585 1.174986,0.91066 1.861432,1.19009 0.542277,0.22074 1.132106,0.34068 1.71903,0.29861 0.512666,-0.0368 1.011286,-0.20854 1.449167,-0.47615 0.333047,-0.20354 0.62537,-0.46598 0.896271,-0.74597 0.426848,-0.44117 0.901812,-0.8366 1.289402,-1.31512 0.181676,-0.2243 0.336792,-0.46935 0.467194,-0.72678 0.26014,-0.51354 0.440094,-1.07264 0.490642,-1.64747 0.03964,-0.45073 -0.0063,-0.91671 -0.188393,-1.33474 -0.14672,-0.33691 -0.391433,-0.62886 -0.69477,-0.83604 -0.323147,-0.22071 -0.699903,-0.35382 -1.08414,-0.41935 -0.518375,-0.0884 -1.049626,-0.0681 -1.565305,-0.17738 -0.461431,-0.0978 -0.924166,-0.21135 -1.398159,-0.22087 -0.31458,-0.006 -0.636956,0.0386 -0.920957,0.18057 -0.14956,0.0748 -0.299877,0.1639 -0.401405,0.29678 -0.04544,0.0595 -0.06259,0.13501 -0.07552,0.20707 -0.03775,0.21031 -0.04272,0.4253 -0.04337,0.63847"
     id="path278"
     inkscape:path-effect="#path-effect280"
     inkscape:original-d="m 86.259171,163.28074 c -1.717598,-0.51494 -2.929882,0.31993 -4.23796,1.31897 -0.942671,0.71997 -2.229017,1.23007 -2.539196,2.54144 -0.451154,1.90737 0.721805,2.84623 2.038511,3.98908 1.836074,1.59365 4.047297,2.17854 5.847308,0.28953 0.580488,-0.60919 1.22628,-1.09167 1.662996,-1.83369 0.900777,-1.53051 1.116894,-3.86644 -1.072901,-4.43947 -0.585396,-0.15318 -1.199438,-0.10365 -1.788166,-0.22519 -0.838284,-0.17306 -2.016246,-0.51692 -2.75378,0.24128 -0.136303,0.14012 -0.124063,0.8341 -0.125169,0.85251" />
  <path
     style="fill:none;stroke:#000000;stroke-width:0.264583px;stroke-linecap:butt;stroke-linejoin:miter;stroke-opacity:1"
     d="m 94.34169,102.48703 c -0.676426,-0.0982 -1.364665,-0.10521 -2.044607,-0.043 -0.805516,0.0737 -1.607461,0.23918 -2.358967,0.54248 -0.601904,0.24292 -1.175052,0.57929 -1.633954,1.04322 -0.363113,0.36709 -0.641754,0.82044 -0.786848,1.31704 -0.06612,0.2263 -0.112997,0.46116 -0.10724,0.69827 0.0069,0.28233 0.08692,0.55561 0.169575,0.82354 0.07079,0.22947 0.146554,0.459 0.183353,0.69687 0.05058,0.32698 0.03108,0.66231 0.106636,0.98587 0.02833,0.1213 0.07729,0.23662 0.136623,0.34619 0.37416,0.69098 0.924567,1.28061 1.5722,1.72339 0.865076,0.59144 1.892526,0.9295 2.934283,1.01388 0.841783,0.0682 1.702796,-0.0172 2.499577,-0.30033 0.359544,-0.12775 0.674729,-0.35875 0.936608,-0.6332 0.338127,-0.35436 0.598686,-0.77387 0.82887,-1.20389 0.257404,-0.48087 0.486487,-0.97966 0.634629,-1.50594 0.151983,-0.53992 0.214853,-1.11405 0.112543,-1.66957 -0.084,-0.45608 -0.291493,-0.88576 -0.584023,-1.2448 -0.36906,-0.45297 -0.855176,-0.79685 -1.370978,-1.06354 -0.680178,-0.35168 -1.416445,-0.57892 -2.157721,-0.76302 -0.202169,-0.0502 -0.407221,-0.0877 -0.608831,-0.14045 -0.329565,-0.0862 -0.65847,-0.18426 -0.997926,-0.22119 -0.138242,-0.015 -0.28119,-0.0282 -0.417161,0.007 -0.102483,0.0264 -0.206394,0.0833 -0.252678,0.18302 -0.04885,0.10525 -0.03064,0.22676 0.0016,0.33391 0.04328,0.14365 0.115426,0.27595 0.182396,0.40944"
     id="path282"
     inkscape:path-effect="#path-effect284"
     inkscape:original-d="m 94.34169,102.48703 c -2.307829,-0.34216 -6.372543,0.32563 -6.902326,3.18483 -0.12415,0.67004 0.168846,1.14724 0.303988,1.78544 0.09686,0.45743 0.01461,0.9696 0.23246,1.38331 1.284478,2.43922 4.456525,3.35088 6.991734,2.50927 0.961146,-0.31908 1.540025,-1.30642 1.966986,-2.1554 1.835261,-3.64926 -0.512789,-5.31994 -3.91609,-6.03188 -0.353295,-0.0739 -1.276546,-0.38543 -1.662993,-0.25736 -0.466741,0.15467 -0.158795,0.66783 -0.03576,0.91684" />
  <path
     style="fill:none;stroke:#000000;stroke-width:0.264583px;stroke-linecap:butt;stroke-linejoin:miter;stroke-opacity:1"
     d="m 159.04134,132.35691 c -0.2596,-0.0578 -0.53001,-0.0416 -0.78899,0.0118 -0.41827,0.0861 -0.81627,0.26104 -1.24278,0.30719 -0.66811,0.0723 -1.34079,0.12807 -1.99659,0.28164 -0.25801,0.0604 -0.51669,0.12454 -0.76278,0.22299 -0.26564,0.10627 -0.50104,0.27548 -0.7168,0.46066 -0.39158,0.33607 -0.73433,0.72604 -1.04169,1.13943 -0.31999,0.43038 -0.6129,0.88431 -0.83607,1.37262 -0.11748,0.25705 -0.22862,0.52275 -0.26765,0.80404 -0.0317,0.22878 0.007,0.46103 0.0634,0.68251 0.11114,0.433 0.28831,0.84619 0.48814,1.24485 0.33491,0.66815 0.72967,1.30625 1.17442,1.90657 0.31287,0.42231 0.64279,0.83588 1.02788,1.19469 0.18582,0.17314 0.38188,0.34099 0.60954,0.4569 0.1071,0.0545 0.22478,0.0823 0.34029,0.1124 0.47939,0.1249 0.96259,0.23525 1.44826,0.33265 0.3238,0.0649 0.64743,0.13563 0.97601,0.17059 0.0997,0.0106 0.20018,0.0171 0.30075,0.002 0.54916,-0.0816 1.09118,-0.26095 1.5522,-0.57636 0.39287,-0.26878 0.71061,-0.64006 0.93354,-1.05964 0.28229,-0.53131 0.42217,-1.12668 0.48567,-1.72162 0.0561,-0.52583 0.0477,-1.05597 0.0204,-1.5835 -0.0106,-0.2054 8.1e-4,-0.4125 -0.0328,-0.61624 -0.0293,-0.17752 -0.11055,-0.34265 -0.21773,-0.48606 -0.15553,-0.20811 -0.36797,-0.36313 -0.58031,-0.50846 -0.19448,-0.13311 -0.38985,-0.26616 -0.56554,-0.42441 -0.32074,-0.28891 -0.6217,-0.5987 -0.91626,-0.91415 -0.17905,-0.19175 -0.35584,-0.39361 -0.58474,-0.5278 -0.23799,-0.13952 -0.5072,-0.21308 -0.77367,-0.27558 -0.45782,-0.10738 -0.92338,-0.17714 -1.38418,-0.26981 -0.26833,-0.054 -0.52201,-0.16468 -0.75688,-0.30479 -0.0907,-0.0541 -0.17567,-0.11835 -0.27094,-0.16467 -0.0429,-0.0208 -0.10027,-0.0321 -0.13918,0.003 -0.0519,0.0463 -0.0759,0.1146 -0.0961,0.17895 -0.0509,0.1615 -0.0823,0.32844 -0.1159,0.49416"
     id="path286"
     inkscape:path-effect="#path-effect288"
     inkscape:original-d="m 159.04134,132.35691 c -0.73551,-0.15984 -1.35519,0.24662 -2.05639,0.32171 -0.94666,0.10138 -1.75016,0.16196 -2.68225,0.48255 -1.1121,0.38249 -2.74564,2.67057 -2.91471,3.79606 -0.19781,1.31666 2.26529,5.03961 3.43328,5.51717 0.26634,0.1089 2.601,0.64064 2.93259,0.59514 2.698,-0.37023 3.19274,-2.60736 3.05777,-4.88985 -0.0281,-0.47565 0.0426,-0.7628 -0.25034,-1.15812 -0.28352,-0.38254 -0.75466,-0.58233 -1.10867,-0.90077 -1.74887,-1.57315 -0.88227,-1.52439 -3.62998,-2.01062 -1.20788,-0.21375 -1.19136,-1.11724 -1.44841,0.19302" />
</svg>
