<?xml version="1.0" encoding="UTF-8" standalone="no"?>
<!-- Created with Inkscape (http://www.inkscape.org/) -->

<svg
   width="353.56799mm"
   height="264.16mm"
   viewBox="0 0 353.56799 264.16"
   version="1.1"
   id="svg5"
   inkscape:version="1.1.2 (08b2f3d93c, 2022-04-05)"
   sodipodi:docname="Foliculos.svg"
   xmlns:inkscape="http://www.inkscape.org/namespaces/inkscape"
   xmlns:sodipodi="http://sodipodi.sourceforge.net/DTD/sodipodi-0.dtd"
   xmlns="http://www.w3.org/2000/svg"
   xmlns:svg="http://www.w3.org/2000/svg">
  <sodipodi:namedview
     id="namedview7"
     pagecolor="#ffffff"
     bordercolor="#666666"
     borderopacity="1.0"
     inkscape:pageshadow="2"
     inkscape:pageopacity="0.0"
     inkscape:pagecheckerboard="0"
     inkscape:document-units="mm"
     showgrid="false"
     inkscape:zoom="0.47393378"
     inkscape:cx="607.67983"
     inkscape:cy="494.79486"
     inkscape:window-width="1366"
     inkscape:window-height="704"
     inkscape:window-x="0"
     inkscape:window-y="27"
     inkscape:window-maximized="1"
     inkscape:current-layer="layer2" />
  <defs
     id="defs2">
    <inkscape:path-effect
       effect="simplify"
       id="path-effect65"
       is_visible="true"
       lpeversion="1"
       steps="1"
       threshold="0.000408163"
       smooth_angles="360"
       helper_size="0"
       simplify_individual_paths="false"
       simplify_just_coalesce="false" />
    <inkscape:path-effect
       effect="simplify"
       id="path-effect61"
       is_visible="true"
       lpeversion="1"
       steps="1"
       threshold="0.000408163"
       smooth_angles="360"
       helper_size="0"
       simplify_individual_paths="false"
       simplify_just_coalesce="false" />
    <inkscape:path-effect
       effect="simplify"
       id="path-effect57"
       is_visible="true"
       lpeversion="1"
       steps="1"
       threshold="0.000408163"
       smooth_angles="360"
       helper_size="0"
       simplify_individual_paths="false"
       simplify_just_coalesce="false" />
  </defs>
  <g
     inkscape:groupmode="layer"
     id="layer2"
     inkscape:label="Foliculos">
    <path
       style="fill:none;stroke:#000000;stroke-width:0.264583px;stroke-linecap:butt;stroke-linejoin:miter;stroke-opacity:1"
       d="m 1.3747211,144.45426 c 0.530655,-0.26543 1.4531449,-0.30102 1.5446348,-0.89301 0.062703,-0.40572 -0.7028196,-0.19012 -0.9869194,-0.13278 -1.01894427,0.20565 -2.08465686,0.39289 -2.9760946,0.93837 -0.5943148,0.36367 0.37541825,0.56382 0.71083563,0.55096 1.40966737,-0.054 2.76469497,-0.50822 4.09261357,-0.94751 2.2883956,-0.75702 4.4573932,-1.86273 6.7792469,-2.50616 3.239948,-0.89785 6.630648,-1.28151 9.982125,-1.10252 1.10286,0.0589 2.230878,0.0709 3.283612,0.45452 0.842911,0.30713 1.733275,0.46126 2.640366,0.41842 3.541095,-0.16723 7.024065,-0.88486 10.53849,-1.30127 3.355301,-0.39756 6.733507,0.80098 10.062131,0.1274 1.712239,-0.34649 3.243849,-1.26648 4.978221,-1.55541 3.551562,-0.59165 7.197191,0.48481 10.716387,-0.36317 3.028975,-0.72986 5.623326,-2.55086 8.562179,-3.54072 4.764753,-1.60485 9.678747,-2.91391 14.135101,-5.27889 2.317603,-1.22995 4.334298,-2.95293 6.738113,-4.04693 4.234856,-1.92732 8.504947,-3.90146 12.259557,-6.6597 1.3039,-0.95788 2.22999,-2.30821 3.45917,-3.35659 1.48406,-1.26577 3.2101,-2.22428 4.67039,-3.51293 0.97113,-0.85699 1.70083,-1.95131 2.75525,-2.7295 1.87162,-1.38131 3.82617,-2.68399 5.39751,-4.42849 2.7692,-3.07437 4.55113,-6.915385 7.33742,-9.959925 1.00373,-1.096762 2.49153,-1.663636 3.32264,-2.938566 0.54624,-0.837934 1.0174,-1.737519 1.77382,-2.424323 1.77358,-1.610345 3.74012,-2.978653 5.67034,-4.391271 1.49712,-1.095658 3.45335,-1.439569 4.77957,-2.798614 0.93315,-0.956247 1.65413,-2.096712 2.6643,-2.987498 1.99148,-1.756118 4.06153,-3.423504 6.18186,-5.022031 1.71521,-1.293107 3.91693,-1.897428 5.3612,-3.555459 2.97774,-3.418466 4.40439,-7.845848 7.20048,-11.395425 1.41701,-1.798863 2.94739,-3.543599 3.93554,-5.635261 1.20907,-2.559299 1.96186,-5.331543 3.50715,-7.734052 1.33495,-2.07549 3.13422,-3.875605 4.13,-6.14407 0.7351,-1.67462 0.2217,-3.670728 1.10664,-5.278077 0.66361,-1.205334 1.93009,-1.889455 3.11345,-2.489806 1.52987,-0.776146 3.16807,-1.45709 4.35973,-2.74916 1.57523,-1.707961 2.74786,-3.72698 4.26264,-5.490254 2.637,-3.06958 4.31767,-6.822445 5.56173,-10.64052 1.22379,-3.7558749 2.3003,-7.5539772 3.41768,-11.3443401 0.433,-1.46881745 0.73771,-2.9788383 1.4903,-4.3488903 0.12731,-0.2317606 0.5655,-0.7732302 0.0172,-0.5804001 -0.78874,0.2773621 -1.3883,0.8991008 -1.996,1.4475125 -0.12721,0.1147997 -0.2537,0.2305118 -0.38522,0.3404049"
       id="path55"
       inkscape:path-effect="#path-effect57"
       inkscape:original-d="m 1.3747211,144.45426 c 4.9581029,-2.32586 -3.2593022,-0.35963 -2.608716,0.22564 1.38026527,1.24167 10.0109442,-2.75495 12.0402329,-3.29428 3.610481,-0.95955 7.855259,-1.25609 11.588716,-0.90255 1.334784,0.1264 2.178523,0.83287 3.712395,0.76716 3.611873,-0.15473 6.938315,-0.71348 10.485039,-1.26355 3.335586,-0.51733 6.750605,0.58508 10.083678,0.13537 1.59358,-0.21501 2.969572,-1.05789 4.515096,-1.44406 3.919784,-0.97942 8.265731,0.4412 12.090389,-0.6769 2.680266,-0.78355 4.96705,-2.3638 7.575312,-3.24915 4.749379,-1.61214 9.651299,-3.01478 14.197433,-5.23473 2.358231,-1.15156 4.305438,-2.97439 6.722451,-4.06143 4.253318,-1.91292 8.603763,-4.1259 12.491733,-6.72394 1.20278,-0.80373 2.04719,-2.06711 3.11039,-3.0235 1.54083,-1.38603 3.38356,-2.61002 4.91642,-3.74555 0.98219,-0.72758 1.69408,-1.93156 2.70905,-2.70761 1.67347,-1.27954 3.52997,-2.41419 5.01677,-3.92606 3.03825,-3.08949 5.18986,-7.131406 7.8763,-10.514596 0.81073,-1.02099 2.12167,-1.568151 3.01006,-2.527107 0.81235,-0.87688 1.10892,-1.939462 1.95654,-2.752749 1.72764,-1.657665 3.92338,-2.990651 5.76928,-4.512709 1.31391,-1.083408 3.22342,-1.436222 4.56525,-2.57224 0.99822,-0.845108 1.66254,-2.014971 2.55854,-2.888125 1.25609,-1.224058 5.39789,-4.610074 7.02347,-5.731132 1.61306,-1.112438 3.6424,-1.740368 4.96659,-3.249157 2.64073,-3.008866 3.97697,-6.684378 6.17062,-9.973056 1.36277,-2.043038 3.18298,-3.825989 4.41475,-5.956774 1.48552,-2.569741 2.14283,-5.595331 3.66224,-8.167997 1.33922,-2.267577 3.21647,-4.338857 4.4649,-6.633673 0.938,-1.724194 0.37134,-4.310874 1.40471,-5.821386 1.38309,-2.02171 4.84416,-2.687743 6.72247,-4.377317 1.67698,-1.508479 2.97507,-3.954457 4.51506,-5.686003 5.59401,-6.28986 6.5675,-14.337078 9.18066,-21.9768645 0.39205,-1.14618117 0.56084,-2.36555261 1.00338,-3.5199096 0.33787,-0.8813017 0.96627,-1.7520927 0.95316,-1.7599548 -0.56169,-0.3368288 -2.10421,1.2577532 -2.70903,1.7599548" />
    <path
       style="fill:none;stroke:#000000;stroke-width:0.264583px;stroke-linecap:butt;stroke-linejoin:miter;stroke-opacity:1"
       d="m 252.01208,265.05818 c 0.18351,-0.75173 1.18916,-1.80374 0.55183,-2.25635 -1.45526,-1.03349 -2.9191,-2.05607 -4.32805,-3.15653 -0.44805,-0.34995 -0.66759,-0.88695 -0.94224,-1.36672 -0.66665,-1.16454 -1.24418,-2.44656 -2.2771,-3.32605 -0.76514,-0.65149 -1.63695,-1.16219 -2.47967,-1.70501 -1.29443,-0.83378 -2.54116,-1.77624 -3.50247,-3.00356 -3.19744,-4.08221 -7.21954,-7.52783 -11.75823,-10.01362 -2.36147,-1.29335 -5.12888,-1.5231 -7.49222,-2.83469 -0.58055,-0.32219 -1.10492,-0.74694 -1.49332,-1.29192 -1.1253,-1.57896 -1.60821,-3.49781 -2.5544,-5.17299 -1.13074,-2.00191 -3.10645,-3.33309 -4.28564,-5.30619 -0.99006,-1.65664 -1.67251,-3.54756 -3.09374,-4.90528 -0.86775,-0.82897 -1.96031,-1.37936 -3.06052,-1.82768 -3.00228,-1.22339 -6.26532,-1.47545 -9.42788,-2.0373 -2.21212,-0.393 -4.49048,-0.85578 -6.41071,-2.0559 -1.51526,-0.94702 -2.45964,-2.50909 -3.60473,-3.83266 -0.7623,-0.88112 -1.70955,-1.62479 -2.83099,-2.00212 -2.91033,-0.97925 -5.92274,-1.62566 -8.82328,-2.63478 -1.44294,-0.50201 -2.91818,-1.01296 -4.16999,-1.90834 -1.79791,-1.28599 -3.03005,-3.15533 -4.41164,-4.84242 -1.06274,-1.29774 -2.31932,-2.47962 -3.86029,-3.19435 -2.19839,-1.01966 -4.63969,-1.2451 -7.00595,-1.60836 -1.63443,-0.25091 -3.32895,-0.47496 -4.79763,-1.25614 -1.07138,-0.56986 -1.65782,-1.66886 -2.37811,-2.59077 -0.50111,-0.64138 -1.17955,-1.12555 -1.93505,-1.42818 -1.01377,-0.40609 -2.09235,-0.65855 -3.03203,-1.24346 -1.21674,-0.75736 -2.3103,-1.68622 -3.53954,-2.43299 -0.88175,-0.53567 -1.61807,-1.39213 -2.64391,-1.61782 -0.64909,-0.1428 -1.4495,0.15785 -1.97393,-0.27275 -0.67425,-0.55361 -1.15457,-1.30243 -1.60912,-2.03711 -0.58445,-0.94463 -1.17976,-1.88674 -1.93182,-2.71561 -1.59359,-1.75634 -3.04689,-3.67788 -4.95315,-5.11564 -1.64676,-1.24204 -3.70013,-1.70714 -5.48469,-2.70307 -1.28502,-0.71715 -2.56149,-1.54426 -4.04223,-1.78897 -0.85566,-0.14141 -1.72545,-0.11087 -2.58536,-0.23756 -1.33203,-0.19624 -2.61036,-0.74333 -3.65018,-1.60654 -1.08912,-0.90413 -2.04508,-1.99655 -3.30987,-2.66772 -0.63623,-0.33762 -1.31314,-0.61211 -2.0416,-0.696 -0.52806,-0.0608 -1.12716,0.062 -1.58242,-0.22975 -0.75942,-0.48672 -1.658,-1.02833 -1.91245,-1.8946 -0.0813,-0.27682 0.4819,0.11415 0.62988,0.1933 0.63425,0.33926 1.23964,0.73428 1.8895,1.04325"
       id="path59"
       inkscape:path-effect="#path-effect61"
       inkscape:original-d="m 252.01208,265.05818 c 0.18395,-0.75211 0.50497,-1.48349 0.55183,-2.25635 0.002,-0.0342 -4.28544,-2.86347 -4.71576,-3.56504 -0.83449,-1.36056 -1.86162,-3.60185 -3.16054,-4.55783 -1.78902,-1.31667 -4.08158,-2.39506 -5.46829,-4.1968 -3.13939,-4.07901 -7.14952,-7.45423 -11.68903,-10.10847 -2.70146,-1.57954 -5.70794,-1.50484 -8.37801,-3.38452 -1.59875,-1.1255 -2.48999,-4.48138 -3.46156,-6.13728 -1.09248,-1.86197 -2.83661,-3.06066 -3.96323,-4.78346 -1.35305,-2.06904 -2.08403,-4.68034 -4.31443,-6.09215 -5.28684,-3.34649 -12.14824,-2.11758 -17.65899,-5.00911 -2.58773,-1.35779 -3.62427,-4.88714 -6.4716,-5.91164 -3.63442,-1.3077 -10.30836,-2.59578 -13.14393,-4.55782 -3.14388,-2.17538 -4.52776,-6.17185 -8.02681,-7.94236 -3.76965,-1.90743 -8.07147,-1.30942 -11.9399,-2.93325 -1.60412,-0.67336 -2.11979,-2.62429 -3.56189,-3.61018 -1.04554,-0.71477 -2.26761,-0.86237 -3.36123,-1.39893 -1.39141,-0.68267 -2.609,-1.91286 -3.96325,-2.6625 -0.93476,-0.51744 -1.74576,-1.35018 -2.75922,-1.71483 -0.49527,-0.17821 -1.77597,-0.0181 -2.1572,-0.36102 -1.28223,-1.15334 -2.03099,-3.14895 -3.21073,-4.42244 -1.75024,-1.88933 -3.8807,-4.72578 -6.07028,-5.95676 -1.38318,-0.77763 -2.88264,-1.19481 -4.26424,-1.94047 -1.91752,-1.0349 -3.1502,-2.0115 -5.36794,-2.07583 -5.87128,-0.17032 -5.65918,-3.48031 -9.78268,-4.96399 -0.69609,-0.25046 -2.00163,-0.11278 -2.45821,-0.40613 -1.1985,-0.77002 -1.99807,-1.9856 -1.90637,-1.9856 0.2392,0 2.17668,1.21069 2.55855,1.35381" />
    <path
       style="fill:none;stroke:#000000;stroke-width:0.264583px;stroke-linecap:butt;stroke-linejoin:miter;stroke-opacity:1"
       d="m 103.86714,163.47723 c 1.02537,0.84597 3.37671,3.83335 3.07589,2.5383 -0.016,-0.0689 -0.1203,-0.17458 -0.18522,-0.24154 -0.24551,-0.25321 -0.50402,-0.49387 -0.76339,-0.73284 -0.71405,-0.6579 -1.48756,-1.26704 -2.37024,-1.6845 -1.16983,-0.55326 -2.40798,-0.93947 -3.6127,-1.40651 -1.142282,-0.44283 -2.278053,-0.94451 -3.26604,-1.68198 -0.321165,-0.23973 -0.595335,-0.53302 -0.882318,-0.81115 -1.147045,-1.11165 -2.485456,-2.00156 -3.848065,-2.82437 -2.290714,-1.38324 -4.709455,-2.54253 -6.987489,-3.94675 -2.060599,-1.27019 -4.013841,-2.70232 -6.006055,-4.07468 -1.675657,-1.1543 -3.418653,-2.21746 -5.259581,-3.08992 -1.057617,-0.50123 -2.152835,-0.91596 -3.249947,-1.32214 -3.537711,-1.30975 -6.905215,-3.06966 -10.525532,-4.1518 -1.147741,-0.34307 -2.297295,-0.7133 -3.493064,-0.85084 -0.281593,-0.0324 -0.56885,-9.5e-4 -0.848159,-0.0466 -0.300732,-0.0492 -0.593162,-0.15932 -0.849247,-0.31987 -0.09112,-0.0571 -0.37984,-0.18308 -0.273498,-0.18455 0.151269,-0.002 0.254582,0.13398 0.335883,0.24431 0.113399,0.15389 0.203244,0.32304 0.296025,0.48965"
       id="path63"
       inkscape:path-effect="#path-effect65"
       inkscape:original-d="m 103.86714,163.47723 c 1.02008,0.84237 2.02068,1.7089 3.06023,2.52711 0.10566,0.0832 -0.15428,-0.22233 -0.25085,-0.31588 -0.85598,-0.82919 -1.74947,-1.66642 -2.80938,-2.21123 -2.25695,-1.16011 -5.878534,-1.82129 -7.775975,-3.79066 -2.712604,-2.81542 -7.925893,-5.00345 -11.488386,-7.26546 -5.094173,-3.23455 -7.768682,-5.9451 -13.695759,-8.07773 -3.749249,-1.34902 -7.389116,-3.2385 -11.187374,-4.37732 -1.318813,-0.39541 -2.629601,-0.81229 -4.013407,-0.81229 -0.403394,0 -1.490096,-0.61224 -1.103693,-0.49639 0.219295,0.0658 0.494369,0.62724 0.551847,0.72203" />
  </g>
</svg>
