<?xml version="1.0" encoding="UTF-8" standalone="no"?>
<!-- Created with Inkscape (http://www.inkscape.org/) -->

<svg
   width="353.56799mm"
   height="264.16mm"
   viewBox="0 0 353.56799 264.16"
   version="1.1"
   id="svg5"
   inkscape:version="1.1.2 (08b2f3d93c, 2022-04-05)"
   sodipodi:docname="FoliculoPrimário.svg"
   xmlns:inkscape="http://www.inkscape.org/namespaces/inkscape"
   xmlns:sodipodi="http://sodipodi.sourceforge.net/DTD/sodipodi-0.dtd"
   xmlns="http://www.w3.org/2000/svg"
   xmlns:svg="http://www.w3.org/2000/svg">
  <sodipodi:namedview
     id="namedview7"
     pagecolor="#ffffff"
     bordercolor="#666666"
     borderopacity="1.0"
     inkscape:pageshadow="2"
     inkscape:pageopacity="0.0"
     inkscape:pagecheckerboard="0"
     inkscape:document-units="mm"
     showgrid="false"
     inkscape:zoom="0.35998268"
     inkscape:cx="586.1393"
     inkscape:cy="545.85959"
     inkscape:window-width="1366"
     inkscape:window-height="704"
     inkscape:window-x="0"
     inkscape:window-y="27"
     inkscape:window-maximized="1"
     inkscape:current-layer="layer2" />
  <defs
     id="defs2">
    <inkscape:path-effect
       effect="simplify"
       id="path-effect69"
       is_visible="true"
       lpeversion="1"
       steps="1"
       threshold="0.000408163"
       smooth_angles="360"
       helper_size="0"
       simplify_individual_paths="false"
       simplify_just_coalesce="false" />
    <inkscape:path-effect
       effect="simplify"
       id="path-effect65"
       is_visible="true"
       lpeversion="1"
       steps="1"
       threshold="0.000408163"
       smooth_angles="360"
       helper_size="0"
       simplify_individual_paths="false"
       simplify_just_coalesce="false" />
    <inkscape:path-effect
       effect="simplify"
       id="path-effect61"
       is_visible="true"
       lpeversion="1"
       steps="1"
       threshold="0.000408163"
       smooth_angles="360"
       helper_size="0"
       simplify_individual_paths="false"
       simplify_just_coalesce="false" />
    <inkscape:path-effect
       effect="simplify"
       id="path-effect57"
       is_visible="true"
       lpeversion="1"
       steps="1"
       threshold="0.000408163"
       smooth_angles="360"
       helper_size="0"
       simplify_individual_paths="false"
       simplify_just_coalesce="false" />
  </defs>
  <g
     inkscape:groupmode="layer"
     id="layer2"
     inkscape:label="FoliculoPrimário">
    <path
       style="fill:none;stroke:#000000;stroke-width:0.264583px;stroke-linecap:butt;stroke-linejoin:miter;stroke-opacity:1"
       d="m 109.38063,132.77711 c -0.15882,-1.7467 0.0983,-3.51358 0.60406,-5.18509 0.4515,-1.49227 1.08314,-2.94515 1.98722,-4.22041 0.71617,-1.0102 1.61167,-1.89544 2.18446,-3.00499 0.64641,-1.25215 1.03496,-2.62117 1.74431,-3.84511 0.46659,-0.80507 1.04618,-1.54977 1.42033,-2.40356 0.25724,-0.58701 0.2026,-1.24913 0.42056,-1.84936 0.34159,-0.94067 1.02491,-1.70685 1.35947,-2.65451 0.45585,-1.29122 0.67982,-2.65896 1.26065,-3.90825 0.79348,-1.70668 1.8038,-3.30998 2.96554,-4.78841 1.77531,-2.259257 3.88428,-4.238359 6.13024,-6.021215 1.13574,-0.901558 2.29077,-1.783847 3.51198,-2.566213 1.99111,-1.275599 4.25102,-2.078425 6.1926,-3.435408 1.21685,-0.850466 2.32672,-1.877849 3.68945,-2.501737 1.6134,-0.738653 3.37767,-1.044154 5.01828,-1.714717 3.05209,-1.247471 6.03752,-2.723032 9.25482,-3.502595 0.69694,-0.168871 1.39637,-0.349718 2.11116,-0.418157 1.04562,-0.100115 2.09256,0.03056 3.13747,0.07365 2.39689,0.09883 4.7913,0.245393 7.18245,0.45314 1.74843,0.151906 3.50315,0.05769 5.25425,0.02481 1.61234,-0.03027 3.14603,-0.648937 4.76383,-0.656878 2.98821,-0.01467 5.92152,0.692193 8.8983,0.824545 0.89756,0.03991 1.78788,0.07155 2.6945,0.09216 0.19364,0.0044 0.49518,0.178319 0.60628,0.0092 0.0835,-0.12702 0.13817,-0.269688 0.20876,-0.403681"
       id="path59"
       inkscape:path-effect="#path-effect61"
       inkscape:original-d="m 109.38063,132.77711 c -0.27965,-2.91042 0.72551,-6.53068 2.3328,-9.0254 0.59395,-0.92189 1.33344,-1.68121 1.95654,-2.57224 0.79667,-1.13926 1.19033,-2.56322 1.78094,-3.81324 0.51444,-1.08881 1.2534,-2.04853 1.80603,-3.11376 0.30052,-0.57927 0.23802,-1.08521 0.40135,-1.71484 0.25224,-0.97242 1.00029,-1.76661 1.35452,-2.68505 0.48819,-1.26576 0.68088,-2.6363 1.22911,-3.88092 0.76713,-1.74155 1.91492,-3.55604 3.08531,-5.05424 2.46248,-3.152181 5.99658,-6.103134 9.28101,-8.348492 1.90495,-1.302292 4.1676,-2.138918 6.12045,-3.384528 1.25129,-0.798132 2.32777,-1.842979 3.63715,-2.549674 1.63304,-0.881385 3.53372,-1.158515 5.24251,-1.85021 3.72286,-1.506966 7.23902,-3.283847 11.21246,-3.971179 1.04006,-0.179911 2.09144,-0.04472 3.13547,0 2.552,0.109324 4.90401,0.187167 7.39973,0.451271 1.69825,0.179713 3.54268,0.02471 5.26759,0.04513 1.59065,0.01881 3.16697,-0.62626 4.66558,-0.654343 3.03724,-0.05692 6.02024,0.595685 9.03018,0.812289 0.80981,0.05827 1.69665,-0.05918 2.50838,0.04513 0.13448,0.01728 0.87525,0.165521 0.9281,0.09025 0.0928,-0.132178 0.1505,-0.285803 0.22576,-0.428708" />
    <path
       style="fill:none;stroke:#000000;stroke-width:0.264583px;stroke-linecap:butt;stroke-linejoin:miter;stroke-opacity:1"
       d="m 109.38063,132.77711 c 0.25817,0.0259 1.02205,0.54638 0.85667,0.17318 -0.12366,-0.27905 -0.77146,-0.48938 -0.85667,-0.17318 -0.1416,0.52546 0.30842,0.94687 0.41395,1.43535 0.0792,0.3666 -0.22225,0.63936 -0.31771,0.97599 -0.5662,1.99675 -0.71021,4.07862 -0.93208,6.13405 -0.18337,1.69879 0.0717,3.4046 -0.0998,5.10768 -0.1651,1.63967 -0.52659,3.28472 -0.37478,4.93314 0.0436,0.47298 0.10384,0.98376 0.45869,1.34983 0.27276,0.28138 0.61481,0.53979 0.66628,0.97304 0.0632,0.53221 0.10693,1.08235 0.39752,1.55701 0.42395,0.6925 0.95339,1.33239 1.19103,2.12922 0.51887,1.73982 0.81834,3.57342 1.75341,5.16534 0.56199,0.95677 1.46511,1.63047 2.20309,2.43856 1.0596,1.16026 1.79265,2.56806 2.84511,3.73889 1.34005,1.49076 2.93806,2.76035 4.09608,4.40273 0.79159,1.12269 1.08918,2.56691 2.12904,3.51687 0.47194,0.43114 0.9332,0.87407 1.30363,1.40361 1.28538,1.83748 2.39365,3.84926 4.10105,5.3436 1.87395,1.6401 4.57742,2.14161 6.29441,3.91572 0.28555,0.29505 0.43272,0.71627 0.84437,0.89911 1.09201,0.48502 2.18176,1.00193 3.33477,1.31575 0.79849,0.21733 2.96841,-0.38344 2.44883,0.24819 -0.21061,0.25603 -0.0649,0.59542 -0.0437,0.89597 0.03,0.42517 0.42599,0.67339 0.72349,0.91738 0.30657,0.25143 0.63595,0.46379 1.05816,0.50253 1.2474,0.11446 2.5753,-0.57245 3.73563,-0.10773 0.33575,0.13447 0.48447,0.4957 0.88267,0.58729 1.19654,0.27523 2.43069,0.31885 3.61889,0.66237 1.45842,0.42165 2.9202,1.03268 4.44276,1.00859 0.66861,-0.0106 1.31216,-0.21404 1.98558,-0.22246 1.34447,-0.0168 2.71167,-0.0427 4.02522,0.2586 1.1944,0.27394 2.09913,1.31066 3.30897,1.47462 0.39772,0.0539 0.80577,0.0557 1.17106,0.28598 0.29412,0.18539 0.59991,0.55459 0.96519,0.43176 0.42243,-0.14205 0.71179,-0.73831 1.15399,-0.64273 1.40238,0.30313 2.85158,0.35627 4.2808,0.28381 0.84809,-0.043 1.69384,-0.17696 2.49376,-0.48253 1.01137,-0.38634 2.03779,-0.76146 3.12561,-0.87844 2.56993,-0.27635 5.15294,-0.4566 7.70526,-0.88212 0.66081,-0.11017 1.29902,-0.31803 1.90545,-0.60707 1.51652,-0.72281 2.86109,-1.80472 4.46477,-2.33212 0.99675,-0.3278 2.04709,-0.47285 3.009,-0.92165 2.69337,-1.25666 5.38959,-2.53832 7.89822,-4.12951 1.67291,-1.0611 2.59606,-2.93167 4.24728,-4.03109 0.5606,-0.37326 1.25727,-0.44972 1.91367,-0.36942 0.74919,0.0917 1.53255,0.0479 2.22344,-0.28033 1.20532,-0.57265 2.19004,-1.49729 3.24915,-2.29059 1.08662,-0.8139 2.24166,-1.53044 3.37512,-2.27627 2.53559,-1.66845 5.26583,-3.197 7.25305,-5.50474 0.33629,-0.39053 0.55853,-0.8624 0.9343,-1.22716 0.74023,-0.71855 1.66588,-1.27832 2.17123,-2.21106 0.26996,-0.49827 0.59199,-0.96733 1.01493,-1.35488 1.31963,-1.20921 3.03065,-2.0418 4.01228,-3.57393 0.62327,-0.9728 1.13407,-2.01496 1.6026,-3.06964 0.60829,-1.36929 0.9984,-2.82031 1.49813,-4.23168 0.31123,-0.879 0.9473,-1.63579 1.05358,-2.58726 0.0647,-0.57934 0.15344,-1.16293 0.42159,-1.69249 0.43033,-0.84986 1.01851,-1.61288 1.35189,-2.51612 0.79801,-2.16206 0.83202,-4.51738 1.56073,-6.69564 0.40584,-1.21313 1.13749,-2.39035 1.04151,-3.70709 -0.0534,-0.73242 -0.24984,-1.44259 -0.29586,-2.17904 -0.10569,-1.69147 0.0132,-3.41221 -0.33125,-5.07457 -0.14786,-0.71355 -0.42793,-1.39851 -0.43868,-2.14238 -0.0159,-1.10112 0.19251,-2.2239 -0.14023,-3.30294 -0.19871,-0.6444 -0.32656,-1.31139 -0.29944,-1.99175 0.0407,-1.02108 0.21966,-2.09419 -0.20771,-3.06892 -0.84588,-1.92926 -1.9172,-3.78986 -3.34673,-5.3357 -0.50186,-0.54269 -1.0449,-1.061 -1.38133,-1.73586 -0.45915,-0.92104 -0.86635,-1.86407 -1.21926,-2.83203 -0.21878,-0.60006 0.0687,-1.22744 0.29542,-1.77786 0.22246,-0.54011 0.43802,-1.11324 0.34178,-1.71425 -0.18517,-1.15633 -0.97114,-2.08567 -1.2699,-3.21044 -0.23507,-0.88498 -0.40123,-1.83011 -1.01496,-2.56035 -0.60657,-0.72172 -1.56915,-0.95578 -2.46445,-1.07338 -1.32501,-0.17404 -2.68027,-0.0488 -3.98774,-0.375611 -1.61162,-0.402807 -3.20534,-0.921732 -4.6918,-1.664048 -1.05884,-0.528767 -2.04624,-1.221176 -2.86647,-2.077113 -0.56185,-0.586307 -0.94711,-1.314763 -1.19443,-2.088635 -0.21953,-0.68691 -0.53944,-1.337827 -0.99178,-1.91171 -1.04806,-1.329666 -1.63739,-2.987661 -2.81082,-4.214023 -0.55561,-0.580674 -1.20978,-1.048187 -1.79769,-1.597128 -1.00431,-0.937742 -2.43534,-1.133549 -3.53505,-1.924913 -0.43828,-0.315392 -0.93114,-0.536562 -1.45427,-0.681527 -2.21062,-0.612583 -4.45648,-1.149395 -6.73863,-1.365774 -0.92994,-0.08817 -1.86507,0.0358 -2.79524,-0.11636 -1.5785,-0.258218 -3.14699,-0.580908 -4.76309,-0.617383 -0.44555,-0.01006 -1.15718,0.205584 -1.33067,-0.220601 -0.12107,-0.297416 0.46147,-0.830234 0.16134,-0.861041 -0.3364,-0.03453 -0.28367,0.450165 -0.4222,0.645688"
       id="path63"
       inkscape:path-effect="#path-effect65"
       inkscape:original-d="m 109.38063,132.77711 c 0.28428,0.0752 0.77764,0.50991 0.85285,0.22563 0.0752,-0.28428 -0.76175,-0.50523 -0.85285,-0.22563 -0.16445,0.50471 0.39074,1.00469 0.42643,1.53432 0.0169,0.25007 -0.20051,0.46044 -0.27592,0.69947 -0.58986,1.8697 -0.82381,4.52799 -1.00335,6.49829 -0.11682,1.28199 0.0348,2.55305 0,3.8358 -0.046,1.69793 -0.81014,5.40025 -0.30101,6.92699 0.15591,0.46753 0.83898,0.79502 0.9281,1.19587 0.13246,0.59577 0.0374,1.07332 0.37626,1.6697 0.43473,0.7651 0.9391,1.22475 1.20402,2.07584 0.52697,1.69295 0.76044,3.49746 1.65553,5.07679 0.62414,1.10126 1.25172,1.60337 2.10704,2.43686 1.0611,1.03401 1.76779,2.46483 2.73413,3.5876 1.35141,1.57016 2.94648,2.93574 4.26425,4.55782 0.82869,1.02006 1.14409,2.41013 1.95654,3.38454 0.44764,0.53687 1.03985,0.91056 1.45486,1.48919 1.26347,1.76159 2.43846,3.90009 4.03849,5.39267 1.88819,1.7614 4.33782,2.81933 6.52179,4.12913 0.22773,0.13657 0.36958,0.64116 0.70235,0.83485 0.45489,0.26476 3.17079,1.3259 3.56189,1.4215 0.81912,0.20022 1.56925,0.13417 2.38297,0.22564 0.0956,0.0107 -0.11544,0.17569 -0.10034,0.27075 0.12898,0.81223 -0.0353,0.0986 0.12542,0.85743 0.0483,0.22811 1.1521,1.11762 1.35452,1.15073 1.35428,0.22152 2.7083,-0.13938 4.06358,-0.0677 0.29079,0.0154 0.44079,0.4622 0.72743,0.54153 1.10188,0.30494 2.34401,0.28318 3.46157,0.60921 1.5661,0.45687 3.04089,0.89674 4.66558,1.10562 0.48027,0.0618 1.26778,-0.18712 1.75587,-0.20308 1.301,-0.0426 2.86424,-0.003 4.16391,0.20308 1.26583,0.20093 2.20825,1.12023 3.41139,1.48919 0.34336,0.1053 0.74576,0.0153 1.07862,0.18051 0.32572,0.16165 0.73082,0.58664 1.0786,0.58664 0.36934,0 1.00016,-0.73897 1.32944,-0.65433 1.42332,0.36585 4.80384,0.44693 6.1957,-0.0226 1.11829,-0.37723 2.07277,-0.85702 3.26089,-1.01536 1.76172,-0.23477 7.81176,-0.61954 9.38134,-1.26355 1.64672,-0.67566 3.06856,-1.77114 4.69066,-2.45942 1.00508,-0.42647 2.12676,-0.4839 3.13549,-0.94767 2.72869,-1.25453 5.32576,-2.68299 7.95156,-4.12912 1.75328,-0.9656 2.75064,-3.13119 4.49,-4.17425 1.61412,-0.96797 2.49452,0.42867 4.74084,-0.97023 1.21809,-0.75857 2.23235,-1.73619 3.4114,-2.52713 3.36825,-2.25951 6.79847,-4.29801 9.73251,-7.1075 0.33241,-0.3183 0.48668,-0.72992 0.7776,-1.06048 0.62897,-0.71465 1.48972,-1.20688 2.08195,-1.96302 0.40836,-0.52138 0.60157,-1.12522 1.07862,-1.60202 1.40724,-1.40649 3.48925,-2.42228 4.51507,-4.19681 1.22433,-2.11791 2.15538,-4.39329 2.80938,-6.74649 0.2298,-0.82684 0.80809,-1.5141 1.02845,-2.34661 0.15287,-0.57755 0.10983,-1.14895 0.32609,-1.71482 0.34388,-0.89983 0.98069,-1.61727 1.35453,-2.48199 0.89536,-2.07103 1.02139,-4.63236 1.63045,-6.79161 0.34858,-1.23581 1.11744,-2.48048 1.15385,-3.79067 0.0197,-0.70958 -0.22636,-1.3772 -0.27594,-2.07585 -0.12339,-1.7389 -0.1072,-3.52473 -0.32608,-5.2573 -0.0834,-0.66022 -0.40269,-1.28169 -0.4515,-1.94046 -0.0679,-0.91662 0.0911,-1.83206 0.0251,-2.75275 -0.0568,-0.7927 -0.42661,-1.50332 -0.4766,-2.30148 -0.0759,-1.21225 0.3151,-2.45418 -0.17558,-3.61016 -0.77707,-1.83068 -1.98182,-3.74581 -3.2609,-5.27986 -0.42655,-0.51159 -0.96127,-0.93311 -1.30435,-1.51175 -0.56326,-0.94999 -0.85672,-2.1208 -1.37962,-3.11377 -0.46527,-0.88355 0.60918,-2.20106 0.62711,-3.13633 0.023,-1.20305 -0.8144,-2.14825 -1.17895,-3.24914 -0.40953,-1.23674 -0.36167,-2.34621 -1.45485,-3.27172 -1.2495,-1.057845 -3.8077,-0.76819 -5.2676,-0.97022 -1.61311,-0.223237 -4.89838,-1.387018 -6.22078,-2.188666 -1.32458,-0.802965 -2.75002,-1.926341 -3.2609,-3.407089 -0.24031,-0.696524 -0.46966,-1.518489 -0.95319,-2.098405 -1.08551,-1.301904 -1.74027,-2.87097 -2.7843,-4.196813 -0.50923,-0.646687 -1.24572,-1.077291 -1.83111,-1.669704 -0.88887,-0.899525 -1.84275,-1.083278 -2.98498,-1.647134 -0.60683,-0.299556 -1.14196,-0.821621 -1.80603,-1.015357 -2.22027,-0.647742 -4.61412,-1.095198 -6.89805,-1.444067 -0.87893,-0.134255 -1.7783,0.03481 -2.65888,-0.09025 -1.46397,-0.207921 -2.90401,-0.626153 -4.38967,-0.676905 -0.50295,-0.01717 -1.4764,0.09208 -2.00671,-0.180507 -0.2685,-0.138012 0.37715,-0.902517 0.0753,-0.902544 -0.2516,-2.1e-5 -0.25083,0.436208 -0.37625,0.654312" />
  </g>
</svg>
