<?xml version="1.0" encoding="UTF-8" standalone="no"?>
<!-- Created with Inkscape (http://www.inkscape.org/) -->

<svg
   width="353.56799mm"
   height="264.16mm"
   viewBox="0 0 353.56799 264.16"
   version="1.1"
   id="svg5"
   inkscape:version="1.1.2 (08b2f3d93c, 2022-04-05)"
   sodipodi:docname="FoliculoPrimordial.svg"
   xmlns:inkscape="http://www.inkscape.org/namespaces/inkscape"
   xmlns:sodipodi="http://sodipodi.sourceforge.net/DTD/sodipodi-0.dtd"
   xmlns="http://www.w3.org/2000/svg"
   xmlns:svg="http://www.w3.org/2000/svg">
  <sodipodi:namedview
     id="namedview7"
     pagecolor="#ffffff"
     bordercolor="#666666"
     borderopacity="1.0"
     inkscape:pageshadow="2"
     inkscape:pageopacity="0.0"
     inkscape:pagecheckerboard="0"
     inkscape:document-units="mm"
     showgrid="false"
     inkscape:zoom="0.67024358"
     inkscape:cx="398.36264"
     inkscape:cy="578.14802"
     inkscape:window-width="1366"
     inkscape:window-height="704"
     inkscape:window-x="0"
     inkscape:window-y="27"
     inkscape:window-maximized="1"
     inkscape:current-layer="layer2" />
  <defs
     id="defs2">
    <inkscape:path-effect
       effect="simplify"
       id="path-effect81"
       is_visible="true"
       lpeversion="1"
       steps="1"
       threshold="0.000408163"
       smooth_angles="360"
       helper_size="0"
       simplify_individual_paths="false"
       simplify_just_coalesce="false" />
    <inkscape:path-effect
       effect="simplify"
       id="path-effect77"
       is_visible="true"
       lpeversion="1"
       steps="1"
       threshold="0.000408163"
       smooth_angles="360"
       helper_size="0"
       simplify_individual_paths="false"
       simplify_just_coalesce="false" />
    <inkscape:path-effect
       effect="simplify"
       id="path-effect73"
       is_visible="true"
       lpeversion="1"
       steps="1"
       threshold="0.000408163"
       smooth_angles="360"
       helper_size="0"
       simplify_individual_paths="false"
       simplify_just_coalesce="false" />
    <inkscape:path-effect
       effect="simplify"
       id="path-effect69"
       is_visible="true"
       lpeversion="1"
       steps="1"
       threshold="0.000408163"
       smooth_angles="360"
       helper_size="0"
       simplify_individual_paths="false"
       simplify_just_coalesce="false" />
    <inkscape:path-effect
       effect="simplify"
       id="path-effect65"
       is_visible="true"
       lpeversion="1"
       steps="1"
       threshold="0.000408163"
       smooth_angles="360"
       helper_size="0"
       simplify_individual_paths="false"
       simplify_just_coalesce="false" />
    <inkscape:path-effect
       effect="simplify"
       id="path-effect61"
       is_visible="true"
       lpeversion="1"
       steps="1"
       threshold="0.000408163"
       smooth_angles="360"
       helper_size="0"
       simplify_individual_paths="false"
       simplify_just_coalesce="false" />
    <inkscape:path-effect
       effect="simplify"
       id="path-effect57"
       is_visible="true"
       lpeversion="1"
       steps="1"
       threshold="0.000408163"
       smooth_angles="360"
       helper_size="0"
       simplify_individual_paths="false"
       simplify_just_coalesce="false" />
  </defs>
  <g
     inkscape:groupmode="layer"
     id="layer2"
     inkscape:label="Foliculo Primordial">
    <path
       style="fill:none;stroke:#000000;stroke-width:0.264583px;stroke-linecap:butt;stroke-linejoin:miter;stroke-opacity:1"
       d="m 145.82317,138.51906 c 0.228,-0.548 0.27643,-1.21069 0.68474,-1.64434 0.23394,-0.24846 0.5278,-0.43132 0.80698,-0.62447 0.96507,-0.6677 1.94754,-1.31126 2.87981,-2.02623 0.27883,-0.21384 0.50048,-0.48656 0.72439,-0.75513 1.9617,-2.35296 4.06765,-4.61564 5.64029,-7.26139 1.06907,-1.79856 1.80322,-3.80687 2.03641,-5.89756 0.115,-1.03105 0.46105,-2.01589 0.6843,-3.02505 0.18576,-0.8397 0.36724,-1.73709 0.11343,-2.57435 -0.21073,-0.69515 -0.45521,-1.38047 -0.71949,-2.057 -0.36349,-0.93051 -0.71778,-1.87926 -1.26654,-2.71499 -0.39965,-0.60864 -1.12175,-0.94066 -1.4392,-1.61502 -0.45317,-0.96267 -0.67865,-2.00905 -0.9611,-3.02933 -0.22739,-0.8214 -0.48199,-1.64474 -0.9252,-2.38309 -0.51191,-0.85279 -1.00344,-1.72825 -1.66551,-2.47851 -0.47403,-0.537175 -1.14567,-0.83499 -1.62666,-1.370948 -0.32093,-0.35761 -0.34198,-0.858147 -0.49283,-1.292582 -0.12576,-0.362169 -0.37019,-0.665939 -0.59617,-0.96931 -0.55492,-0.744952 -1.09896,-1.507538 -1.76223,-2.159181 -0.35639,-0.350143 -0.7612,-0.647549 -1.16322,-0.942401 -2.16997,-1.591493 -4.64784,-2.676723 -7.07775,-3.801607 -0.85626,-0.39639 -1.732,-0.757257 -2.55543,-1.218423 -1.15019,-0.644169 -2.05208,-1.665131 -3.272,-2.198674 -1.14908,-0.502559 -2.43526,-0.558117 -3.66868,-0.444357 -1.72651,0.159238 -3.41428,0.604011 -5.15031,0.694435 -2.71361,0.141343 -5.44909,-0.08135 -8.14561,0.336603 -2.44416,0.378835 -4.74036,1.432468 -6.79352,2.785303 -2.78555,1.835409 -5.14934,4.218599 -7.43309,6.632829 -0.38899,0.411214 -0.75954,0.840695 -1.07683,1.311137 -0.54556,0.808899 -1.01803,1.673873 -1.693684,2.389466 -1.701741,1.80232 -3.959844,2.96232 -5.656523,4.76813 -0.680593,0.72437 -1.027106,1.67161 -1.480411,2.53846 -0.574137,1.09792 -1.402268,2.03374 -2.224224,2.95047 -0.393411,0.43877 -0.992369,0.76125 -1.174549,1.32165 -0.06468,0.19895 -0.0027,0.41237 0.02259,0.61388 0.03122,0.2487 0.07066,0.50481 -0.02938,0.75204 -0.302476,0.74746 -0.810371,1.38829 -1.155297,2.11309 -0.281027,0.59053 -0.231621,1.27591 -0.05973,1.89101 0.297131,1.06327 0.910503,2.00549 1.21571,3.06546 0.08027,0.27876 0.120132,0.57057 0.07204,0.86045 -0.133049,0.80196 -0.381104,1.58165 -0.483791,2.38951 -0.08528,0.67088 -0.12139,1.38937 0.168974,2.01458 0.345296,0.74349 0.977799,1.29289 1.374176,2.00825 0.899383,1.62316 1.829658,3.22987 2.68913,4.87448 0.587173,1.12356 0.805497,2.41102 1.512634,3.47892 0.471084,0.71142 1.223674,1.15049 1.907498,1.62819 0.379531,0.26513 0.701689,0.59807 1.039902,0.91611 0.389142,0.36593 0.901244,0.55455 1.38204,0.76617 0.55242,0.24315 1.125311,0.49439 1.542571,0.95336 0.27775,0.30551 0.40925,0.71045 0.45456,1.11448 0.0432,0.38535 0.13071,0.78382 0.3886,1.0882 0.39561,0.46692 0.94584,0.77748 1.50818,0.99018 0.83592,0.31618 1.71749,0.49087 2.59329,0.65369 2.8666,0.53293 5.76186,0.90174 8.66238,1.18809 2.5363,0.25039 5.07892,0.51016 7.62884,0.51024 0.93295,3e-5 1.88467,0.005 2.78898,-0.26338 1.22026,-0.36194 2.31609,-1.02851 3.50054,-1.48331 1.70012,-0.6528 3.45368,-1.1455 5.17103,-1.75245 1.2934,-0.45712 2.67633,-0.55306 4.03562,-0.61793 1.202,-0.0574 2.40797,-0.0939 3.59937,-0.2806 1.0599,-0.16614 2.13292,-0.32318 3.14417,-0.68739 0.34873,-0.1256 0.75612,-0.21429 0.99046,-0.51143 0.24852,-0.31512 0.26758,-0.73325 0.38571,-1.10349 0.0638,-0.20006 0.21318,-0.38837 0.43805,-0.42145 0.52839,-0.0777 1.01347,0.20124 1.4536,0.45656 0.27621,0.16023 0.55018,0.32827 0.84924,0.44342"
       id="path55"
       inkscape:path-effect="#path-effect57"
       inkscape:original-d="m 145.82317,138.51906 c 0.22466,-0.54246 0.39609,-1.11018 0.674,-1.62739 0.18087,-0.33662 3.48187,-2.28335 4.15044,-3.09523 3.28747,-3.99217 7.41782,-8.00038 7.94614,-13.46587 0.17001,-1.75874 1.32462,-4.04773 0.74495,-5.80755 -0.50906,-1.54543 -1.08815,-3.07445 -1.88011,-4.49925 -0.34338,-0.61777 -1.12756,-0.97631 -1.45444,-1.62739 -0.77314,-1.54 -1.02398,-4.00212 -1.80916,-5.297 -0.52452,-0.86501 -1.21033,-2.14469 -1.95106,-2.83996 -0.53724,-0.504271 -1.11547,-0.699181 -1.56085,-1.340198 -0.25596,-0.36839 -0.2633,-0.984258 -0.49663,-1.404033 -0.29501,-0.530743 -1.88894,-2.595366 -2.4477,-3.063319 -3.10783,-2.602749 -6.76892,-3.872153 -10.35836,-5.648007 -1.14826,-0.568095 -2.01408,-1.551874 -3.1217,-2.137942 -2.74289,-1.451335 -5.92086,-0.165862 -8.6911,0.03191 -3.38093,0.241372 -6.94096,-0.204592 -10.21647,0.702011 -5.22841,1.447136 -9.55646,5.65631 -13.08985,9.540981 -0.84089,0.924494 -1.34191,2.115143 -2.12843,2.999504 -1.714847,1.928163 -4.045829,3.116033 -5.817715,4.945993 -0.913212,0.94315 -1.194276,2.11946 -1.880108,3.19096 -0.857922,1.34035 -2.028965,2.47477 -3.050751,3.6696 -0.135118,0.158 0.133744,0.97933 0.03548,1.24449 -0.274503,0.74069 -0.752454,1.41753 -1.135169,2.10603 -0.979053,1.76132 0.938771,3.85204 1.170636,5.52036 0.111361,0.80128 -0.90773,2.98439 -0.425683,4.59499 0.233937,0.78162 0.989912,1.39796 1.38348,2.10604 0.907748,1.63314 1.792277,3.25623 2.696017,4.88216 0.68752,1.23693 0.830191,2.57503 1.667261,3.73344 0.700453,0.96934 2.02614,1.44814 2.80244,2.36131 0.547458,0.64398 2.063033,0.93036 2.766962,1.56357 1.38529,1.24613 -0.25145,2.15248 2.48317,3.38242 2.53339,1.13944 17.87905,2.81377 21.036,2.29749 1.23376,-0.20177 2.28955,-0.80639 3.40548,-1.3083 1.81164,-0.8148 3.95618,-1.31089 5.85319,-2.04221 2.04431,-0.7881 4.67191,-0.60396 6.84645,-0.82965 1.01575,-0.10542 4.60543,-0.64845 5.10823,-1.37211 0.31308,-0.4506 0.20553,-1.36745 0.74496,-1.46785 0.82121,-0.15283 1.56085,0.59565 2.34127,0.89347" />
    <path
       style="fill:none;stroke:#000000;stroke-width:0.264583px;stroke-linecap:butt;stroke-linejoin:miter;stroke-opacity:1"
       d="m 127.37676,142.89068 c -1.2098,0.37415 -2.33631,1.01928 -3.25859,1.8899 -1.06342,1.00386 -1.83366,2.27646 -2.42335,3.60507 -0.57561,1.2969 -0.97482,2.6614 -1.38304,4.01791 -0.43639,1.45013 -1.02214,2.86161 -1.28357,4.35953 -0.11543,0.66138 -0.22116,1.34169 -0.12526,2.00692 0.045,0.31181 0.14678,0.61204 0.24698,0.90946 0.35985,1.06809 0.7842,2.11319 1.13898,3.18316 0.1705,0.51421 0.2528,1.05219 0.31815,1.58825 0.14313,1.17406 0.15232,2.37452 0.48108,3.51722 0.19654,0.68313 0.15423,1.405 0.0772,2.10307 -0.097,0.87899 -0.2807,1.75921 -0.21012,2.64658 0.0565,0.71058 0.27001,1.39819 0.52507,2.06016 0.41455,1.07588 0.95376,2.10888 1.22701,3.23551 0.44157,1.82064 0.81128,3.66955 1.50038,5.41785 0.16443,0.41717 0.32024,0.8414 0.54298,1.23071 0.16754,0.29283 0.32894,0.5951 0.55374,0.8472 0.0582,0.0653 0.11898,0.15489 0.222,0.14207 0.21471,-0.0267 0.38998,-0.16668 0.58361,-0.25131 0.0881,-0.0385 0.20782,-0.11694 0.29141,-0.0476 0.0679,0.0563 0.0804,0.15203 0.10205,0.23231 0.0391,0.14515 0.0414,0.30501 -0.0244,0.44096 -0.0351,0.0724 5e-4,0.15172 0.0602,0.20063 0.17685,0.14501 0.38251,0.24929 0.58256,0.35786 0.014,0.008 0.0281,0.0152 0.0421,0.0228"
       id="path59"
       inkscape:path-effect="#path-effect61"
       inkscape:original-d="m 127.37676,142.89068 c -4.36694,1.36854 -5.84113,5.28476 -6.98835,9.25379 -0.64182,2.22049 -1.61052,4.18679 -1.48991,6.57339 0.0349,0.69036 1.29712,3.6002 1.52539,4.6269 0.34029,1.53058 0.25368,3.14662 0.67401,4.6588 0.43096,1.55046 -0.35345,3.41228 -0.10643,5.04172 0.26546,1.75107 1.29728,3.24686 1.70274,4.91409 0.5611,2.30721 0.97252,4.47936 2.02201,6.6372 0.0839,0.17249 0.60592,1.03377 0.74495,1.05302 0.33615,0.0465 0.87535,-0.54159 0.99327,-0.22338 0.30653,0.8272 -0.51286,0.52095 0.70948,1.18066" />
    <path
       style="fill:none;stroke:#000000;stroke-width:0.264583px;stroke-linecap:butt;stroke-linejoin:miter;stroke-opacity:1"
       d="m 172.60592,188.23426 c -0.53636,-1.02117 -0.80885,-2.17632 -0.78926,-3.33046 0.0247,-1.45711 0.46781,-2.86316 0.94241,-4.22734 0.55146,-1.58512 1.16255,-3.17156 1.36091,-4.85023 0.15567,-1.31741 -0.0373,-2.63975 -0.22127,-3.94357 -0.15272,-1.0823 -0.33918,-2.17544 -0.2563,-3.26965 0.0615,-0.81257 0.33931,-1.58563 0.57102,-2.36069 0.12726,-0.42568 0.28806,-0.8505 0.31843,-1.29467 0.0282,-0.41204 -0.0598,-0.82087 -0.15565,-1.21889 -0.20449,-0.8492 -0.47626,-1.67958 -0.74044,-2.51139 -0.38957,-1.22663 -1.09857,-2.31283 -1.76276,-3.4034 -0.53328,-0.87562 -1.02023,-1.78555 -1.34853,-2.76204 -0.61852,-1.83971 -1.28212,-3.67915 -2.245,-5.37109 -0.46502,-0.81712 -1.02074,-1.58241 -1.6633,-2.27078 -1.7786,-1.9054 -3.75751,-3.63274 -5.93468,-5.06853 -1.02213,-0.67407 -2.07308,-1.3189 -3.20137,-1.79634 -0.95859,-0.40563 -1.99664,-0.55112 -3.00449,-0.78301 -0.78737,-0.18116 -1.56942,-0.43471 -2.25592,-0.87778 -0.74044,-0.47788 -1.60247,-0.70582 -2.44264,-0.93855 -0.65966,-0.18273 -1.30899,-0.40246 -1.93549,-0.685 -0.49823,-0.22469 -1.02474,-0.3791 -1.55627,-0.4956 -0.16891,-0.037 0.0544,-0.13591 0.11686,-0.16049 0.4114,-0.16186 0.84708,-0.24913 1.2786,-0.33842 0.56688,-0.1173 1.14647,-0.17282 1.70773,-0.31401 0.33551,-0.0844 0.653,-0.21993 0.98574,-0.31941 0.14851,-0.0444 0.14349,0.10179 0.10286,0.21133 -0.33153,0.89389 -0.9185,1.65802 -1.48878,2.41051 -0.28446,0.37535 -0.56878,0.75155 -0.82389,1.14777"
       id="path63"
       inkscape:path-effect="#path-effect65"
       inkscape:original-d="m 172.60592,188.23426 c -2.37609,-4.59099 1.34235,-8.4673 1.56085,-12.98722 0.10429,-2.1574 -0.59366,-4.31764 -0.5321,-6.47765 0.0344,-1.20855 0.68034,-2.52601 0.88684,-3.73342 0.13684,-0.80013 -0.58744,-2.75187 -0.8159,-3.57388 -0.62302,-2.24167 -2.38435,-4.01155 -3.1217,-6.22238 -0.83884,-2.51514 -1.94894,-5.611 -3.76022,-7.59449 -2.50813,-2.74659 -5.81109,-5.4354 -9.18773,-7.02012 -1.64427,-0.77168 -3.87638,-0.69263 -5.35655,-1.69121 -1.26613,-0.85418 -2.99852,-0.94542 -4.36329,-1.62739 -0.61675,-0.30819 -1.74915,-0.51592 -1.70274,-0.57437 0.24325,-0.30634 2.75007,-0.68067 3.15716,-0.76583 0.37561,-0.0786 1.26193,-0.55366 1.13517,-0.19146 -0.47634,1.36105 -1.56084,2.42512 -2.34127,3.63769" />
    <path
       style="fill:none;stroke:#000000;stroke-width:0.264583px;stroke-linecap:butt;stroke-linejoin:miter;stroke-opacity:1"
       d="m 172.60592,188.23426 c 0.0127,-0.0308 0.031,-0.13059 -0.005,-0.0528 -0.19776,0.42569 -0.37604,0.86033 -0.57836,1.284 -0.2101,0.43995 -0.40764,0.89268 -0.69828,1.28574 -0.17754,0.24011 -0.38584,0.45584 -0.59252,0.67058 -0.95445,0.99167 -1.96407,1.9309 -3.02377,2.80877 -0.79855,0.66153 -1.60934,1.31976 -2.50983,1.83762 -0.40161,0.23096 -0.82588,0.43889 -1.28774,0.52173 -1.68044,0.30142 -3.4027,0.28258 -5.07399,0.65445 -0.5945,0.13228 -1.15253,0.38542 -1.69201,0.66258 -0.62193,0.31952 -1.22282,0.69535 -1.8907,0.91059 -0.65559,0.21128 -1.34894,0.27366 -2.03381,0.28926 -1.2114,0.0276 -2.42371,-0.0785 -3.61875,-0.27308 -0.57575,-0.0937 -1.14407,-0.22696 -1.70714,-0.38007 -0.60171,-0.16362 -1.2424,-0.21011 -1.81217,-0.46364 -0.15891,-0.0707 -0.22654,-0.24521 -0.30042,-0.38974 -0.0722,-0.14123 -0.16645,-0.27906 -0.31406,-0.35463 -0.26267,-0.13447 -0.51025,-0.30819 -0.69321,-0.54275 -0.18459,-0.23664 -0.3792,-0.46609 -0.60222,-0.6683 -0.50222,-0.45536 -1.15149,-0.71223 -1.80433,-0.86075 -0.87295,-0.1986 -1.77808,-0.24565 -2.66817,-0.16809 -0.40234,0.0351 -0.8017,0.0971 -1.20291,0.1427 -0.48453,0.0551 -0.97054,0.0951 -1.45661,0.13806 -0.1029,0.009 -0.21234,-0.0131 -0.28653,-0.0907 -0.17633,-0.18443 -0.22813,-0.44416 -0.34178,-0.66558 -0.22816,-0.44452 -0.45824,-0.8967 -0.78648,-1.27733 -0.26964,-0.31268 -0.62684,-0.52802 -0.92985,-0.80484 -0.34471,-0.31491 -0.66076,-0.66325 -0.92056,-1.05263 -0.4278,-0.64119 -0.73967,-1.36019 -1.24246,-1.95006 -0.54658,-0.64124 -1.27763,-1.0913 -1.83929,-1.71636 -0.33628,-0.37424 -0.55482,-0.8485 -0.94914,-1.17139 -0.17119,-0.14018 -0.38889,-0.20351 -0.59812,-0.26094 -0.49617,-0.13618 -1.0065,-0.24379 -1.52159,-0.2479 -0.19445,-0.002 -0.39472,0.003 -0.57994,0.0734 -0.0842,0.0321 -0.13061,0.12839 -0.0949,0.21573 0.044,0.1078 0.13105,0.19139 0.21484,0.26902"
       id="path71"
       inkscape:path-effect="#path-effect73"
       inkscape:original-d="m 172.60592,188.23426 c 0.16743,-0.59028 -0.78106,1.94169 -1.38348,2.64849 -1.18108,1.38575 -5.44493,5.34823 -7.16572,5.67991 -1.78255,0.3436 -3.66513,0.26767 -5.42749,0.73393 -1.15577,0.30578 -2.12177,1.03748 -3.22812,1.46784 -1.74214,0.67766 -5.58196,0.23865 -7.30762,-0.25528 -0.65282,-0.18685 -1.33006,-0.32406 -1.98653,-0.51055 -0.27678,-0.0786 -0.31048,-0.58352 -0.60307,-0.73391 -0.79645,-0.40938 -0.66267,-0.62799 -1.348,-1.24448 -1.16288,-1.04608 -3.3756,-1.14016 -4.71802,-0.9892 -0.11728,0.0132 -2.04248,0.27114 -2.48317,0.25527 -0.30198,-0.0109 -0.39691,-0.46367 -0.53211,-0.7339 -0.95212,-1.90317 -1.09826,-1.35365 -2.23485,-2.61659 -0.6145,-0.68282 -0.96785,-1.59995 -1.52538,-2.32942 -0.53682,-0.70237 -1.32691,-1.20109 -1.91558,-1.81885 -0.39096,-0.41027 -0.61969,-0.95648 -1.06422,-1.27638 -0.49069,-0.35311 -3.60579,-0.88221 -2.51863,0.0958" />
    <path
       style="fill:none;stroke:#000000;stroke-width:0.264583px;stroke-linecap:butt;stroke-linejoin:miter;stroke-opacity:1"
       d="m 177.28847,167.55682 c -0.23966,-0.34455 -0.69447,-0.43538 -1.08732,-0.42641 -0.57874,0.0132 -1.18141,0.13449 -1.65983,0.46501 -0.15268,0.10548 -0.37865,0.24856 -0.33297,0.45097 0.0473,0.20946 0.27749,0.29369 0.45819,0.35451 0.4037,0.13587 0.82674,-0.0239 1.18447,-0.21704 0.43932,-0.23724 0.85269,-0.60104 1.36867,-0.62394 0.73901,-0.0328 1.43816,0.25877 2.10366,0.54111 0.47804,0.20281 0.9829,0.33115 1.45795,0.5427 1.54519,0.68809 2.90095,1.74783 4.49304,2.3402 0.5768,0.21461 1.18991,0.31086 1.80348,0.33434 1.55411,0.0595 3.1097,-0.0556 4.6538,-0.22124 2.18416,-0.23435 4.36439,-0.5492 6.50306,-1.05655 0.77158,-0.18304 1.52882,-0.42199 2.26653,-0.71555 2.23083,-0.88773 4.49351,-1.74141 6.85428,-2.20649 2.17746,-0.42897 4.42111,-0.3519 6.59156,-0.83472 2.13228,-0.47433 4.18534,-1.24625 6.33163,-1.67053 1.19957,-0.23713 2.43546,-0.39066 3.56475,-0.87297 0.31649,-0.13517 0.65942,-0.2537 0.89467,-0.5201 0.44167,-0.50015 0.7589,-1.0954 1.0519,-1.69007 0.69311,-1.4067 1.27392,-2.86784 1.76775,-4.35547 0.20346,-0.61291 0.37864,-1.238 0.44533,-1.88374 0.103,-0.99725 0.0194,-2.03985 0.39087,-2.98654 0.28556,-0.72784 1.06586,-1.08643 1.41354,-1.77407 0.38215,-0.75582 0.67691,-1.55243 0.95479,-2.35108 0.34182,-0.98242 0.66295,-1.97336 0.9206,-2.98199 0.10545,-0.41281 0.12565,-0.86558 -0.063,-1.25985 -0.20529,-0.42899 -0.54124,-0.80231 -0.63883,-1.27711 -0.0541,-0.26316 -0.0581,-0.53448 -0.0778,-0.80213 -0.0782,-1.0613 -0.21172,-2.12022 -0.23165,-3.18415 -0.0124,-0.66127 0.35781,-1.24254 0.70268,-1.77852 0.33996,-0.52835 0.77185,-1.05792 0.82157,-1.70268 0.0338,-0.43791 -0.0604,-0.87848 -0.20616,-1.28926 -0.35135,-0.99013 -1.06518,-1.78244 -1.66121,-2.62862 -0.35481,-0.50372 -0.71281,-1.03194 -0.85818,-1.63651 -0.1914,-0.79601 0.065,-1.65683 -0.25648,-2.4236 -0.2408,-0.57436 -0.55377,-1.11589 -0.87607,-1.64754 -0.88572,-1.46101 -1.87877,-2.85328 -2.87866,-4.2382 -0.5092,-0.70528 -1.1644,-1.3151 -1.94882,-1.70513 -0.93434,-0.46457 -1.99301,-0.62154 -2.89683,-1.15979 -0.39152,-0.23316 -0.73735,-0.54113 -0.99841,-0.91806 -0.56843,-0.82074 -0.85551,-1.82718 -1.56956,-2.54689 -0.37432,-0.37729 -0.86881,-0.60078 -1.35621,-0.7908 -1.37996,-0.53799 -2.87203,-0.63543 -4.32601,-0.83095 -0.77787,-0.1046 -1.5556,-0.23754 -2.30051,-0.49695 -0.8926,-0.31084 -1.76705,-0.71462 -2.71867,-0.81778 -1.40522,-0.15234 -2.82463,-0.13285 -4.23207,-0.03 -0.9963,0.0728 -2.01211,0.0957 -2.97408,0.36803 -0.38585,0.10922 -0.71089,0.37574 -1.12716,0.41013 -2.3534,0.19442 -4.74629,0.18697 -7.04526,0.77577 -0.52773,0.13516 -1.0654,0.26042 -1.55808,0.49601 -0.95609,0.45718 -1.6601,1.2717 -2.42787,1.97537 -0.42026,0.38517 -0.90655,0.68768 -1.41364,0.94567 -0.69442,0.3533 -1.45379,0.62341 -2.03907,1.14808 -0.42699,0.38277 -0.51781,1.04839 -1.02522,1.34548 -0.34556,0.20233 -0.73673,0.31704 -1.12643,0.39835 -1.64202,0.34262 -3.33569,-0.003 -4.98201,0.3215 -0.88924,0.17527 -1.63878,0.7123 -2.42676,1.12678 -0.47488,0.24979 -0.97541,0.44454 -1.4579,0.6795 -1.09822,0.53479 -2.11481,1.225 -3.05234,2.00599 -0.56895,0.47395 -1.15411,0.9339 -1.66951,1.46544 -0.52471,0.54114 -0.72709,1.2941 -0.90016,2.00656 -0.18728,0.77094 -0.316,1.58257 -0.75823,2.26142 -0.54556,0.83748 -1.39809,1.46616 -1.78934,2.39938 -0.25426,0.60647 -0.3454,1.26324 -0.47516,1.9035 -0.13246,0.65357 -0.38258,1.28762 -0.78575,1.8255 -0.45662,0.6092 -1.07145,1.11596 -1.36226,1.83666 -0.18652,0.46224 -0.26166,0.96211 -0.29777,1.45591 -0.0547,0.74818 -0.069,1.54009 0.23739,2.23104 0.0712,0.16049 0.12545,0.46682 0.31165,0.43332 0.13406,-0.0241 0.25031,-0.11518 0.36871,-0.18284 1.46608,-0.83785 2.84336,-1.8204 4.30384,-2.6675"
       id="path75"
       inkscape:path-effect="#path-effect77"
       inkscape:original-d="m 177.28847,167.55682 c -0.72883,-1.07261 -3.91935,0.14588 -2.87338,0.73393 1.0953,0.61579 1.89079,-0.72023 2.87338,-0.73393 0.94844,-0.0132 1.82563,0.51643 2.73149,0.79774 2.10051,0.65232 4.1537,2.61112 6.34981,2.90378 2.79807,0.37288 11.01045,-0.68615 13.76387,-1.78693 2.24509,-0.89756 4.39695,-1.71207 6.81098,-2.26559 2.19058,-0.50229 4.39296,-0.40029 6.56264,-0.82966 1.98316,-0.39245 3.85358,-1.10551 5.81773,-1.56357 1.50766,-0.3516 3.7312,-0.60825 5.10823,-1.34019 1.11315,-0.59169 3.10627,-5.9327 3.44097,-7.37114 0.28218,-1.21274 0.095,-2.54639 0.49663,-3.73342 0.23271,-0.68781 0.91745,-1.04987 1.31254,-1.62739 0.5331,-0.77925 1.9006,-4.79535 2.05747,-5.83946 0.16461,-1.09569 -0.57712,-1.36282 -0.78041,-2.3294 -0.0145,-0.0687 -0.26119,-3.51249 -0.28381,-3.79725 -0.11407,-1.4364 1.6186,-2.51906 1.52537,-3.86106 -0.14619,-2.10453 -2.00428,-3.2707 -2.66053,-5.04173 -0.33228,-0.89672 0.0328,-1.89026 -0.39021,-2.80804 -0.74405,-1.6142 -2.71861,-4.45534 -3.7957,-5.87137 -1.7633,-2.31818 -3.48651,-1.69911 -5.17919,-3.03142 -1.1099,-0.8736 -1.31033,-2.78938 -2.62507,-3.54197 -1.99051,-1.13941 -4.38576,-1.00709 -6.56264,-1.46783 -1.11577,-0.23616 -2.2939,-0.90018 -3.37003,-1.05302 -2.0754,-0.29476 -5.45691,-0.0901 -7.41403,0.28717 -0.35484,0.0684 -0.72254,0.38556 -1.06421,0.41483 -2.76166,0.23657 -5.75949,0.22249 -8.40731,1.14875 -1.43011,0.50027 -2.31657,1.9548 -3.54739,2.71232 -0.83943,0.51664 -1.74908,0.80351 -2.55412,1.40403 -0.59342,0.44265 -0.60114,1.21914 -1.31252,1.53166 -1.92065,0.84375 -4.14294,0.15766 -6.13699,0.6701 -0.94418,0.24264 -1.79859,0.9252 -2.696,1.30829 -2.41622,1.03146 -3.61682,2.04083 -5.60487,3.82916 -1.04236,0.93766 -0.96928,2.78953 -1.52538,3.95679 -0.52549,1.103 -1.76744,1.92624 -2.12843,3.09523 -0.3752,1.215 -0.30003,2.24267 -1.06421,3.31861 -0.59853,0.8427 -1.35305,1.3309 -1.59633,2.42512 -0.47418,2.13279 0.15432,3.80638 0.46116,3.63771 1.54609,-0.84989 3.07248,-1.94826 4.6116,-2.83997" />
    <path
       style="fill:none;stroke:#000000;stroke-width:0.264583px;stroke-linecap:butt;stroke-linejoin:miter;stroke-opacity:1"
       d="m 41.210409,159.00505 c 0.715843,-0.5365 1.62116,-0.69006 2.483856,-0.81995 0.742655,-0.11182 1.490017,-0.2635 2.165886,-0.61128 1.494193,-0.76886 2.666942,-2.01917 4.070127,-2.92293 0.54832,-0.35316 1.214107,-0.43541 1.77665,-0.77029 1.847624,-1.09989 3.703156,-2.1866 5.52313,-3.33257 3.964848,-2.49651 7.817787,-5.21347 11.215501,-8.45622 0.92661,-0.88435 1.772181,-1.84786 2.65903,-2.77146 1.568311,-1.6333 3.660637,-2.65988 5.184415,-4.33904 0.40021,-0.44102 0.795109,-0.90791 1.032447,-1.45634 0.249998,-0.57768 0.06106,-1.25459 0.374976,-1.81383 0.402369,-0.71681 1.065233,-1.23367 1.705713,-1.72652 0.640504,-0.49287 1.327351,-0.94707 1.834069,-1.58915 0.716509,-0.90791 1.254132,-1.95273 1.61953,-3.0464 0.250097,-0.74856 0.456746,-1.53118 0.424119,-2.32702 -0.02394,-0.58389 -0.28064,-1.12399 -0.587329,-1.61026 -0.36307,-0.57566 -0.699649,-1.17604 -0.877469,-1.83995 -0.186781,-0.69737 -0.321485,-1.41591 -0.658483,-2.06506 -0.892498,-1.71919 -2.105806,-3.25527 -3.4532,-4.63822 -1.132927,-1.16282 -2.325999,-2.29363 -3.704195,-3.15464 -0.716539,-0.44765 -1.556258,-0.68066 -2.206756,-1.24182 -1.261942,-1.08862 -2.251857,-2.4684 -3.60441,-3.45626 -0.710107,-0.51864 -1.543722,-0.83875 -2.382642,-1.07914 -2.350546,-0.67355 -4.831762,-0.59688 -7.201781,-1.17987 -3.639343,-0.89522 -7.26804,-1.9159 -11.008819,-2.30229 -1.870716,-0.19323 -3.757422,-0.1361 -5.627627,0.0354 -3.248927,0.29797 -6.473661,0.87735 -9.743029,0.94376 -1.92593,0.0391 -3.89476,-0.13528 -5.771927,0.33255 -0.625065,0.15578 -1.216807,0.42077 -1.802557,0.6833 -2.287977,1.02544 -4.53141,2.14894 -6.742464,3.32975 -1.038408,0.55456 -2.094635,1.08119 -3.092599,1.7065 -0.713964,0.44736 -1.206762,1.14432 -1.803722,1.72245 -0.441085,0.42717 -0.99038,0.71131 -1.503725,1.0386 -1.143114,0.72881 -2.3185395,1.4228 -3.3602331,2.29075 -0.492658,0.41049 -0.7478601,1.09165 -1.3372602,1.37097 -0.6126465,0.29034 -1.2805926,0.43434 -1.9255167,0.63395 -0.7394185,0.22886 -1.4206514,0.59509 -2.1103041,0.97518 -0.1895939,0.10449 -0.1904965,0.31598 -0.224836,0.50415 -0.2557054,1.4012 -0.5524502,2.79573 -0.7631869,4.20434 -0.4471919,2.98913 -0.2334631,6.01836 -0.1996078,9.02646 0.00825,0.73285 0.06253,1.46946 -0.00856,2.19898 -0.070365,0.72203 -0.4917986,1.40896 -0.3715841,2.13965 0.1217087,0.73977 0.5646172,1.36711 0.9807515,1.96958 0.2715884,0.3932 0.4796836,0.82372 0.6907343,1.25134 1.4842458,3.00733 3.292235,5.8437 5.2616608,8.55626 0.4642079,0.63937 0.9797506,1.2413 1.4262033,1.89293 0.6538699,0.95437 0.9491139,2.08844 1.2970909,3.17637 0.291867,0.91251 0.646808,1.82442 1.248947,2.58381 0.674589,0.85076 1.475705,1.62594 2.434157,2.14631 1.145873,0.62213 2.517975,0.64171 3.663138,1.25319 1.477912,0.78916 2.818598,1.82894 4.364935,2.48941 0.601498,0.25691 1.230889,0.46577 1.888066,0.52117 0.527513,0.0445 1.083878,0.11319 1.522785,0.44283 0.355908,0.2673 0.69519,0.58167 1.148517,0.68863 1.783571,0.42081 3.637773,0.4449 5.453695,0.25373 1.589968,-0.16738 3.168147,-0.43035 4.739724,-0.71887 1.124434,-0.20643 2.2594,-0.41418 3.328541,-0.82983 0.539905,-0.2099 1.027207,-0.52818 1.51962,-0.82799 0.585989,-0.35679 1.109577,-0.82243 1.732135,-1.11359 0.112448,-0.0526 0.219129,-0.23467 0.01043,-0.20793 -0.34074,0.0437 -0.670425,0.14822 -1.004005,0.2271"
       id="path79"
       inkscape:path-effect="#path-effect81"
       inkscape:original-d="m 41.210409,159.00505 c 1.299041,-0.96115 2.999312,-0.65266 4.398756,-1.3083 1.536523,-0.71987 2.950195,-1.9921 4.256863,-2.9995 0.441733,-0.34057 1.21648,-0.44231 1.702753,-0.73392 1.472707,-0.88316 2.973601,-1.7434 4.43422,-2.6485 5.551464,-3.44007 10.560823,-6.89674 14.899029,-11.77466 1.879455,-2.11328 4.96203,-3.37469 6.34982,-5.87137 0.337653,-0.60745 0.127974,-1.30037 0.390202,-1.85076 0.54692,-1.14793 2.171444,-2.04899 3.050752,-2.83996 1.309076,-1.17754 2.517299,-3.92494 2.589593,-5.61609 0.05937,-1.38881 -0.717965,-1.91598 -1.241578,-3.12714 -0.348853,-0.80694 -0.393766,-1.73037 -0.780431,-2.52086 -1.439659,-2.94318 -4.463243,-6.06291 -7.130238,-7.91359 -0.688091,-0.47748 -1.550757,-0.68212 -2.199388,-1.21256 -1.479619,-1.21001 -2.824988,-3.22578 -4.540644,-4.05252 -2.785057,-1.34207 -5.756069,-1.035 -8.6911,-1.75504 -4.070458,-0.99858 -8.271242,-2.23068 -12.48679,-2.42512 -4.343228,-0.20034 -8.773557,0.88173 -13.089856,1.05301 -2.172504,0.0862 -4.487354,-0.0351 -6.633609,0.351 -1.506604,0.27104 -9.935135,4.65779 -11.599951,5.67991 -1.07101,0.65756 -1.486024,1.62423 -2.518642,2.26559 -1.430332,0.88838 -2.7857937,1.77592 -4.1504414,2.77614 -0.5240092,0.38408 -0.9139047,1.20877 -1.489904,1.46784 -1.1190372,0.5033 -3.2087044,0.74486 -4.1149632,1.72312 -0.00654,0.007 -0.809803,4.42757 -0.815903,4.46735 -0.5697908,3.71592 -0.1359898,7.43523 -0.2128408,11.16836 -0.015627,0.7591 -0.5317011,1.68227 -0.3547368,2.42514 0.2387654,1.00231 0.9779679,1.70754 1.4189531,2.61659 1.9301557,3.97885 4.0724647,7.23301 6.7755068,10.72163 1.2350263,1.59396 1.3066953,4.03372 2.4831693,5.67992 0.683672,0.95664 1.763958,1.99951 2.837906,2.52086 1.086526,0.52747 2.567512,0.65803 3.582864,1.21256 1.720906,0.93986 3.487824,2.34144 5.427499,2.83996 0.666689,0.17134 1.402246,0.0627 2.022009,0.41482 0.405685,0.23048 0.755578,0.68116 1.241578,0.79775 3.19423,0.76621 6.028045,0.27697 9.223206,-0.25528 1.299099,-0.21641 3.828042,-0.61674 4.966337,-1.27638 4.02008,-2.32964 2.965831,-1.97491 1.70275,-1.6593" />
  </g>
</svg>
