<?xml version="1.0" encoding="UTF-8" standalone="no"?>
<!-- Created with Inkscape (http://www.inkscape.org/) -->

<svg
   width="353.56799mm"
   height="264.16mm"
   viewBox="0 0 353.56799 264.16"
   version="1.1"
   id="svg5"
   inkscape:version="1.1.2 (08b2f3d93c, 2022-04-05)"
   sodipodi:docname="LaminaPropria.svg"
   xmlns:inkscape="http://www.inkscape.org/namespaces/inkscape"
   xmlns:sodipodi="http://sodipodi.sourceforge.net/DTD/sodipodi-0.dtd"
   xmlns="http://www.w3.org/2000/svg"
   xmlns:svg="http://www.w3.org/2000/svg">
  <sodipodi:namedview
     id="namedview7"
     pagecolor="#ffffff"
     bordercolor="#666666"
     borderopacity="1.0"
     inkscape:pageshadow="2"
     inkscape:pageopacity="0.0"
     inkscape:pagecheckerboard="0"
     inkscape:document-units="mm"
     showgrid="false"
     inkscape:zoom="0.47393378"
     inkscape:cx="681.52981"
     inkscape:cy="499.01486"
     inkscape:window-width="1366"
     inkscape:window-height="704"
     inkscape:window-x="0"
     inkscape:window-y="27"
     inkscape:window-maximized="1"
     inkscape:current-layer="layer2" />
  <defs
     id="defs2">
    <inkscape:path-effect
       effect="simplify"
       id="path-effect77"
       is_visible="true"
       lpeversion="1"
       steps="1"
       threshold="0.000408163"
       smooth_angles="360"
       helper_size="0"
       simplify_individual_paths="false"
       simplify_just_coalesce="false" />
    <inkscape:path-effect
       effect="simplify"
       id="path-effect73"
       is_visible="true"
       lpeversion="1"
       steps="1"
       threshold="0.000408163"
       smooth_angles="360"
       helper_size="0"
       simplify_individual_paths="false"
       simplify_just_coalesce="false" />
    <inkscape:path-effect
       effect="simplify"
       id="path-effect69"
       is_visible="true"
       lpeversion="1"
       steps="1"
       threshold="0.000408163"
       smooth_angles="360"
       helper_size="0"
       simplify_individual_paths="false"
       simplify_just_coalesce="false" />
    <inkscape:path-effect
       effect="simplify"
       id="path-effect65"
       is_visible="true"
       lpeversion="1"
       steps="1"
       threshold="0.000408163"
       smooth_angles="360"
       helper_size="0"
       simplify_individual_paths="false"
       simplify_just_coalesce="false" />
    <inkscape:path-effect
       effect="simplify"
       id="path-effect61"
       is_visible="true"
       lpeversion="1"
       steps="1"
       threshold="0.000408163"
       smooth_angles="360"
       helper_size="0"
       simplify_individual_paths="false"
       simplify_just_coalesce="false" />
    <inkscape:path-effect
       effect="simplify"
       id="path-effect57"
       is_visible="true"
       lpeversion="1"
       steps="1"
       threshold="0.000408163"
       smooth_angles="360"
       helper_size="0"
       simplify_individual_paths="false"
       simplify_just_coalesce="false" />
  </defs>
  <g
     inkscape:groupmode="layer"
     id="layer2"
     inkscape:label="Lamina Propria">
    <path
       style="fill:none;stroke:#000000;stroke-width:0.264583px;stroke-linecap:butt;stroke-linejoin:miter;stroke-opacity:1"
       d="m 64.208844,263.13323 c -0.378853,-6.10726 1.053644,-12.17178 3.095943,-17.88751 2.391067,-6.69182 5.865247,-12.9174 8.849804,-19.35086 1.041203,-2.2444 1.374291,-4.77408 2.703936,-6.89659 0.897502,-1.43268 1.852682,-2.83385 2.539697,-4.38998 1.595191,-3.6132 2.325073,-7.57338 4.239903,-11.05069 1.24895,-2.26808 3.4288,-3.85833 4.702858,-6.09645 0.774647,-1.36081 1.205037,-2.86421 1.763748,-4.32265 0.715023,-1.86647 0.361986,-3.90677 0.857692,-5.83114 1.851616,-7.18813 3.252089,-14.4928 5.314863,-21.62362 1.739242,-6.0124 6.055952,-10.89624 7.740852,-16.92627 1.21989,-4.36583 1.19517,-9.00726 2.82429,-13.27709 0.98229,-2.57453 2.50836,-4.97005 3.05429,-7.683 0.35237,-1.75107 0.086,-3.67225 0.93663,-5.28164 0.39948,-0.7558 1.07785,-1.31162 1.70322,-1.8741 2.02705,-1.82318 4.46122,-3.28182 5.9968,-5.5783 0.72725,-1.08761 0.45817,-2.45595 0.19988,-3.65023 -0.28973,-1.33965 -0.88559,-2.82866 -0.26557,-4.12251 0.83285,-1.73798 1.68668,-3.46862 2.44532,-5.24196 1.30958,-3.061173 2.52685,-6.177845 3.35736,-9.404694 0.93223,-3.622082 1.46828,-7.381813 3.09732,-10.796711 2.90316,-6.085772 6.18219,-11.988793 9.01059,-18.109175 0.83605,-1.809133 1.07153,-3.873185 2.27896,-5.523523 2.08067,-2.843888 4.79684,-5.280841 6.28307,-8.507765 0.61221,-1.329237 0.52346,-2.847319 1.2215,-4.166868 1.20041,-2.269215 2.76554,-4.30172 4.11002,-6.490394 1.14805,-1.86891 2.9613,-3.239423 3.95164,-5.225972 0.68111,-1.366252 1.29596,-2.803587 2.40685,-3.902527 0.90146,-0.891765 1.91593,-1.754282 2.35101,-3.004813 0.44638,-1.282997 0.50512,-2.826609 1.51054,-3.802807 1.59202,-1.545752 2.69055,-3.521758 3.49525,-5.555746 0.43744,-1.105685 0.3969,-2.398267 1.17202,-3.367197 1.18533,-1.481709 3.19352,-1.801419 4.66551,-2.884066 2.24905,-1.6541727 4.39655,-3.4503094 6.42434,-5.3679358 1.67576,-1.5847189 3.40487,-3.1665418 4.67349,-5.10451644 0.13882,-0.21206551 0.26974,-0.42965379 0.38426,-0.65589239"
       id="path55"
       inkscape:path-effect="#path-effect57"
       inkscape:original-d="m 64.208844,263.13323 c -0.800629,-12.58428 6.280687,-25.96033 11.789379,-36.91391 0.86239,-1.71478 1.25364,-3.69001 1.956538,-5.46038 0.651809,-1.64169 1.80949,-3.02979 2.65889,-4.55782 2.257076,-4.06039 3.06632,-9.77168 5.518425,-13.44787 1.114311,-1.67057 2.743258,-3.17499 3.913074,-4.82858 0.9764,-1.38018 1.224658,-3.07654 1.956538,-4.55782 0.786088,-1.591 0.403323,-3.90209 0.852858,-5.64088 1.846747,-7.14314 3.402203,-14.34898 5.26759,-21.48047 1.578152,-6.03336 5.662114,-10.71997 7.625484,-16.60674 1.37916,-4.13513 1.31547,-8.90827 2.70905,-13.08684 0.96247,-2.88592 2.50792,-5.52199 3.36122,-8.43877 0.46341,-1.58403 0.19302,-4.84389 1.40469,-6.18239 2.15166,-2.37689 5.45022,-4.2194 7.2743,-6.81418 1.59077,-2.2629 -1.15741,-5.62194 0.10035,-8.12287 2.11159,-4.19869 3.88213,-8.419738 5.26759,-12.906327 1.16824,-3.783153 1.55456,-8.151588 3.2609,-11.73302 2.94751,-6.186537 5.97122,-12.209271 9.1305,-18.36671 0.90245,-1.758871 1.04029,-3.872392 2.20738,-5.505495 2.04412,-2.860355 4.78832,-5.530384 6.42145,-8.66439 0.61189,-1.174221 0.48849,-2.666759 1.05353,-3.835791 1.15098,-2.381327 2.96098,-4.371184 4.16391,-6.633673 0.85679,-1.611469 2.48326,-2.925609 3.51173,-4.46758 0.91151,-1.366628 1.33588,-2.946559 2.35788,-4.24194 0.81461,-1.032528 2.26909,-1.989024 2.80938,-3.204017 0.57532,-1.293786 0.75916,-3.376115 1.80603,-4.422449 1.51655,-1.515779 2.30339,-3.223122 3.26089,-5.144488 0.66242,-1.32923 0.36122,-2.583839 1.40469,-3.790662 1.2987,-1.502006 3.32289,-1.821469 4.86627,-2.978387 3.18752,-2.3893783 9.70606,-7.9892617 11.18737,-10.92074363" />
    <path
       style="fill:none;stroke:#000000;stroke-width:0.264583px;stroke-linecap:butt;stroke-linejoin:miter;stroke-opacity:1"
       d="m 63.606822,248.96333 c -0.554621,0.80407 -1.005982,1.68443 -1.287496,2.62199 -0.258241,0.86005 -0.362189,1.76053 -0.362854,2.65681 -6.5e-4,0.87581 0.05606,1.75372 0.201744,2.61648 0.04438,0.26282 0.119977,0.51953 0.207907,0.77068 0.109988,0.31415 0.23082,0.6277 0.404479,0.91242 0.07625,0.12502 0.157687,0.25259 0.275137,0.34274 0.06272,0.0481 0.146591,0.0505 0.22214,0.0508 0.188509,6.8e-4 0.376898,-0.0429 0.564851,-0.0202 0.06171,0.007 0.140265,0.0218 0.166015,0.0846 0.02128,0.0518 0.02,0.10962 0.02139,0.16464 0.0094,0.37284 -0.0079,0.74609 0.01121,1.11874 0.0048,0.0935 0.02116,0.1856 0.03621,0.27812 0.03377,0.20759 0.02417,0.41914 0.01357,0.62821 -0.01585,0.31271 -0.06061,0.62442 -0.05546,0.93769 0.0016,0.0947 0.0071,0.19035 0.03218,0.28285 0.01212,0.0447 0.0575,0.0819 0.106005,0.0635 0.06853,-0.026 0.118735,-0.0818 0.171799,-0.12993 0.08595,-0.0779 0.175059,-0.15646 0.235052,-0.25727 0.02808,-0.0472 0.03896,-0.11145 0.0015,-0.15895 -0.02742,-0.0348 -0.04501,0.0313 -0.05322,0.0514 -0.08939,0.21885 -0.160045,0.44484 -0.230839,0.6702 -0.288019,0.91687 -0.559452,1.83901 -0.813709,2.76576 -0.104095,0.37942 -0.270479,0.74902 -0.301203,1.14134 -0.0027,0.0346 -0.02594,0.13932 -0.01269,0.11337 0.03867,-0.0758 0.06407,-0.15762 0.09271,-0.23754 0.386659,-1.07882 0.634167,-2.20001 0.955574,-3.29851"
       id="path59"
       inkscape:path-effect="#path-effect61"
       inkscape:original-d="m 63.606822,248.96333 c -1.777775,2.58495 -1.84885,4.83964 -1.454862,7.85212 0.06607,0.5052 0.508641,1.79204 0.903031,2.07583 0.190897,0.13736 0.897623,-0.11453 0.953175,0.13537 0.03881,0.1746 -0.019,1.19191 0.05017,1.48921 0.143975,0.61879 -0.271701,2.32019 0.200662,1.89534 0.143886,-0.12941 0.444913,-0.36703 0.301012,-0.49642 -0.0928,-0.0835 -1.71327,5.61617 -1.354532,4.64808 0.413888,-1.11691 0.668909,-2.28642 1.003363,-3.42963" />
    <path
       style="fill:none;stroke:#000000;stroke-width:0.264583px;stroke-linecap:butt;stroke-linejoin:miter;stroke-opacity:1"
       d="M 64.208823,263.13327 C 42.805882,263.47551 21.402941,263.81776 2.5653076e-7,264.16"
       id="path63"
       inkscape:path-effect="#path-effect65"
       inkscape:original-d="M 64.208823,263.13327 2.5653076e-7,264.16" />
    <path
       style="fill:none;stroke:#000000;stroke-width:0.264583px;stroke-linecap:butt;stroke-linejoin:miter;stroke-opacity:1"
       d="m 2.5653076e-7,-3.4375e-7 c 0,88.05333334374999 0,176.10667034375001 0,264.16000034375002"
       id="path67"
       inkscape:path-effect="#path-effect69"
       inkscape:original-d="M 2.5653076e-7,-3.4375e-7 V 264.16" />
    <path
       style="fill:none;stroke:#000000;stroke-width:0.264583px;stroke-linecap:butt;stroke-linejoin:miter;stroke-opacity:1"
       d="M 183.30673,0.17803737 C 122.20449,0.11869147 61.102244,0.05934556 2.5653076e-7,-3.4375e-7"
       id="path71"
       inkscape:path-effect="#path-effect73"
       inkscape:original-d="M 183.30673,0.17803737 2.5653076e-7,-3.4375e-7" />
  </g>
</svg>
