<?xml version="1.0" encoding="UTF-8" standalone="no"?>
<!-- Created with Inkscape (http://www.inkscape.org/) -->

<svg
   width="353.56799mm"
   height="264.16mm"
   viewBox="0 0 353.56799 264.16"
   version="1.1"
   id="svg5"
   inkscape:version="1.1.2 (08b2f3d93c, 2022-04-05)"
   sodipodi:docname="Mucosa.svg"
   xmlns:inkscape="http://www.inkscape.org/namespaces/inkscape"
   xmlns:sodipodi="http://sodipodi.sourceforge.net/DTD/sodipodi-0.dtd"
   xmlns="http://www.w3.org/2000/svg"
   xmlns:svg="http://www.w3.org/2000/svg">
  <sodipodi:namedview
     id="namedview7"
     pagecolor="#ffffff"
     bordercolor="#666666"
     borderopacity="1.0"
     inkscape:pageshadow="2"
     inkscape:pageopacity="0.0"
     inkscape:pagecheckerboard="0"
     inkscape:document-units="mm"
     showgrid="false"
     inkscape:zoom="0.38595606"
     inkscape:cx="799.31378"
     inkscape:cy="446.94206"
     inkscape:window-width="1366"
     inkscape:window-height="704"
     inkscape:window-x="0"
     inkscape:window-y="27"
     inkscape:window-maximized="1"
     inkscape:current-layer="layer2" />
  <defs
     id="defs2">
    <inkscape:path-effect
       effect="simplify"
       id="path-effect117"
       is_visible="true"
       lpeversion="1"
       steps="1"
       threshold="0.000408163"
       smooth_angles="360"
       helper_size="0"
       simplify_individual_paths="false"
       simplify_just_coalesce="false" />
    <inkscape:path-effect
       effect="simplify"
       id="path-effect113"
       is_visible="true"
       lpeversion="1"
       steps="1"
       threshold="0.000408163"
       smooth_angles="360"
       helper_size="0"
       simplify_individual_paths="false"
       simplify_just_coalesce="false" />
    <inkscape:path-effect
       effect="simplify"
       id="path-effect109"
       is_visible="true"
       lpeversion="1"
       steps="1"
       threshold="0.000408163"
       smooth_angles="360"
       helper_size="0"
       simplify_individual_paths="false"
       simplify_just_coalesce="false" />
    <inkscape:path-effect
       effect="simplify"
       id="path-effect105"
       is_visible="true"
       lpeversion="1"
       steps="1"
       threshold="0.000408163"
       smooth_angles="360"
       helper_size="0"
       simplify_individual_paths="false"
       simplify_just_coalesce="false" />
    <inkscape:path-effect
       effect="simplify"
       id="path-effect101"
       is_visible="true"
       lpeversion="1"
       steps="1"
       threshold="0.000408163"
       smooth_angles="360"
       helper_size="0"
       simplify_individual_paths="false"
       simplify_just_coalesce="false" />
    <inkscape:path-effect
       effect="simplify"
       id="path-effect97"
       is_visible="true"
       lpeversion="1"
       steps="1"
       threshold="0.000408163"
       smooth_angles="360"
       helper_size="0"
       simplify_individual_paths="false"
       simplify_just_coalesce="false" />
    <inkscape:path-effect
       effect="simplify"
       id="path-effect93"
       is_visible="true"
       lpeversion="1"
       steps="1"
       threshold="0.000408163"
       smooth_angles="360"
       helper_size="0"
       simplify_individual_paths="false"
       simplify_just_coalesce="false" />
    <inkscape:path-effect
       effect="simplify"
       id="path-effect89"
       is_visible="true"
       lpeversion="1"
       steps="1"
       threshold="0.000408163"
       smooth_angles="360"
       helper_size="0"
       simplify_individual_paths="false"
       simplify_just_coalesce="false" />
    <inkscape:path-effect
       effect="simplify"
       id="path-effect85"
       is_visible="true"
       lpeversion="1"
       steps="1"
       threshold="0.000408163"
       smooth_angles="360"
       helper_size="0"
       simplify_individual_paths="false"
       simplify_just_coalesce="false" />
    <inkscape:path-effect
       effect="simplify"
       id="path-effect81"
       is_visible="true"
       lpeversion="1"
       steps="1"
       threshold="0.000408163"
       smooth_angles="360"
       helper_size="0"
       simplify_individual_paths="false"
       simplify_just_coalesce="false" />
    <inkscape:path-effect
       effect="simplify"
       id="path-effect77"
       is_visible="true"
       lpeversion="1"
       steps="1"
       threshold="0.000408163"
       smooth_angles="360"
       helper_size="0"
       simplify_individual_paths="false"
       simplify_just_coalesce="false" />
    <inkscape:path-effect
       effect="simplify"
       id="path-effect73"
       is_visible="true"
       lpeversion="1"
       steps="1"
       threshold="0.000408163"
       smooth_angles="360"
       helper_size="0"
       simplify_individual_paths="false"
       simplify_just_coalesce="false" />
    <inkscape:path-effect
       effect="simplify"
       id="path-effect69"
       is_visible="true"
       lpeversion="1"
       steps="1"
       threshold="0.000408163"
       smooth_angles="360"
       helper_size="0"
       simplify_individual_paths="false"
       simplify_just_coalesce="false" />
    <inkscape:path-effect
       effect="simplify"
       id="path-effect65"
       is_visible="true"
       lpeversion="1"
       steps="1"
       threshold="0.000408163"
       smooth_angles="360"
       helper_size="0"
       simplify_individual_paths="false"
       simplify_just_coalesce="false" />
    <inkscape:path-effect
       effect="simplify"
       id="path-effect61"
       is_visible="true"
       lpeversion="1"
       steps="1"
       threshold="0.000408163"
       smooth_angles="360"
       helper_size="0"
       simplify_individual_paths="false"
       simplify_just_coalesce="false" />
    <inkscape:path-effect
       effect="simplify"
       id="path-effect57"
       is_visible="true"
       lpeversion="1"
       steps="1"
       threshold="0.000408163"
       smooth_angles="360"
       helper_size="0"
       simplify_individual_paths="false"
       simplify_just_coalesce="false" />
  </defs>
  <g
     inkscape:groupmode="layer"
     id="layer2"
     inkscape:label="Mucosa">
    <path
       style="fill:none;stroke:#000000;stroke-width:0.264583px;stroke-linecap:butt;stroke-linejoin:miter;stroke-opacity:1"
       d="m 297.77335,1.323316 c -0.75668,4.3283536 -1.0349,8.74565 -2.19994,12.998916 -0.75813,2.767741 -1.95455,5.416877 -3.52988,7.806876 -0.31591,0.479281 -0.60445,0.981474 -1.01456,1.393004 -0.44217,0.443705 -1.02451,0.791833 -1.2929,1.371749 -0.38586,0.833743 -0.26702,1.830924 -0.74204,2.625689 -1.73682,2.905917 -3.9195,5.520664 -6.25733,7.958713 -2.02162,2.108286 -4.23911,4.013693 -6.44048,5.932562 -0.88748,0.773589 -1.71502,1.667744 -2.817,2.14355 -0.99959,0.431597 -2.07448,0.646583 -3.06782,1.103369 -2.70953,1.245967 -5.63165,1.93769 -8.37873,3.084167 -2.0579,0.858852 -3.82881,2.244597 -5.60122,3.569892 -1.03418,0.773294 -2.04627,1.592414 -3.18173,2.211559 -1.04255,0.568484 -2.17474,0.950065 -3.19848,1.560101 -1.76368,1.050962 -3.4104,2.292338 -5.24819,3.223048 -1.5279,0.773771 -3.16386,1.455971 -4.39248,2.67296 -0.4994,0.494672 -0.61995,1.227217 -0.68601,1.897234 -0.0809,0.820372 -0.0728,1.654278 -0.31023,2.455765 -0.68534,2.313889 -1.67319,4.521241 -2.66003,6.717441 -0.67501,1.50223 -1.43433,2.970387 -2.34331,4.349387 -0.26793,0.406472 -0.6287,0.737224 -1.01704,1.027457 -1.04203,0.778782 -2.25033,1.337918 -3.19636,2.237079 -1.23322,1.172127 -2.39153,2.456476 -3.83296,3.376549 -0.51629,0.32955 -1.07576,0.711774 -1.70369,0.690074 -0.82124,-0.02838 -1.56509,-0.464106 -2.37691,-0.536731 -0.99581,-0.08908 -1.98535,0.195835 -2.89094,0.581679 -0.58487,0.249194 -1.17632,0.504714 -1.69829,0.8696 -0.58184,0.406736 -0.90494,1.077528 -1.07073,1.749416 -0.15073,0.610864 -0.27903,1.227436 -0.39691,1.845356 -0.23245,1.218459 -0.25585,2.47487 -0.055,3.701241 0.18254,1.114374 0.58754,2.190682 0.69083,3.314429 0.0514,0.558768 0.0281,1.124042 0.12118,1.679576 0.0358,0.213761 0.32434,0.180757 0.47233,0.125581 0.49842,-0.185835 0.80717,-0.649754 1.20192,-0.980968 0.0329,-0.02757 0.0664,-0.05433 0.10092,-0.07983"
       id="path55"
       inkscape:path-effect="#path-effect57"
       inkscape:original-d="m 297.77335,1.323316 c -0.83778,4.7977098 -1.0459,9.591776 -2.58363,14.260142 -0.83619,2.5386 -2.23554,5.209267 -3.71242,7.423391 -0.4404,0.660271 -1.45492,1.258068 -1.75585,1.917897 -0.3496,0.766581 -0.31684,1.902271 -0.72742,2.594804 -2.9463,4.969391 -8.06313,10.082443 -12.46667,13.696058 -0.83137,0.682252 -1.55093,1.5038 -2.48327,2.053273 -1.06442,0.62729 -2.3322,0.778674 -3.41141,1.286121 -2.69382,1.266634 -5.52307,2.007854 -8.30274,3.06864 -3.18569,1.215729 -5.89233,3.922265 -8.75424,5.708568 -0.97776,0.610277 -2.10953,0.949068 -3.1104,1.511758 -1.77524,0.998045 -3.43358,2.319327 -5.24251,3.249149 -1.61382,0.829524 -3.41168,1.624828 -4.76592,2.843001 -1.00941,0.907989 -0.62568,2.905577 -0.95319,4.083997 -0.61846,2.225244 -1.60503,4.363056 -2.50838,6.475722 -0.69473,1.62478 -1.76667,3.890013 -2.83447,5.234742 -0.70779,0.891354 -2.88967,1.950606 -3.96324,2.933255 -0.96929,0.887201 -3.74341,3.902845 -5.4181,4.061434 -0.60644,0.05743 -1.64373,-0.378082 -2.25754,-0.496393 -1.42225,-0.274135 -3.37894,0.570098 -4.59033,1.263555 -1.19676,0.685077 -1.31161,1.927894 -1.58029,3.13632 -0.70772,3.183096 -0.11597,4.542629 0.50168,7.558783 0.0591,0.288526 0.021,1.812147 0.20067,1.872766 0.63437,0.214011 1.16724,-0.662625 1.7057,-1.06049" />
    <path
       style="fill:none;stroke:#000000;stroke-width:0.264583px;stroke-linecap:butt;stroke-linejoin:miter;stroke-opacity:1"
       d="m 218.75934,95.999804 c 0.21396,1.227643 0.038,2.498739 -0.3979,3.660222 -0.75147,2.002334 -2.08314,3.727704 -2.80531,5.744114 -0.70745,1.97532 -0.77423,4.11883 -1.55265,6.0751 -0.85309,2.14391 -2.17414,4.05145 -3.40619,5.988 -0.50938,0.80065 -1.0161,1.60509 -1.42927,2.46175 -0.42428,0.87969 -0.86126,1.7582 -1.44838,2.54714 -0.95835,1.28778 -1.7915,2.68763 -2.94511,3.81327 -1.23726,1.20726 -2.95623,1.76285 -4.1741,2.99671 -1.38864,1.40688 -2.1518,3.28827 -3.48188,4.74137 -0.69445,0.75868 -1.50448,1.40115 -2.32447,2.01726 -1.86127,1.39849 -3.89321,2.61389 -5.47664,4.34187 -0.82867,0.90432 -1.113,2.19646 -1.99852,3.04514 -0.50981,0.4886 -1.04424,0.95149 -1.56772,1.42562 -2.84753,2.57908 -5.71699,5.15172 -8.27991,8.0171 -0.92328,1.03224 -1.6285,2.2511 -2.63314,3.20944 -0.68707,0.65541 -1.62557,0.96055 -2.32814,1.59151 -0.94365,0.84747 -1.54802,1.97898 -2.35874,2.94297 -1.72876,2.05559 -3.09966,4.37465 -4.57826,6.60857 -1.50201,2.26928 -3.08976,4.53059 -5.16101,6.32263 -1.26379,1.09343 -2.75649,1.89608 -4.34232,2.44108 -1.13767,0.39098 -2.01821,1.26521 -3.13147,1.71197 -1.22028,0.48971 -2.53399,0.73634 -3.68964,1.39629 -0.62911,0.35926 -1.17692,0.83732 -1.69869,1.33917 -0.2435,0.2342 -1.10811,0.68114 -0.77155,0.65585 0.19832,-0.0149 0.43064,-0.17194 0.60781,-0.299 0.51491,-0.36926 0.91182,-0.87238 1.39115,-1.28246"
       id="path59"
       inkscape:path-effect="#path-effect61"
       inkscape:original-d="m 218.75934,95.999804 c 0.63198,3.826592 -2.17069,6.270466 -3.28422,9.639746 -0.58868,1.78119 -0.68611,3.64485 -1.30436,5.39268 -0.96708,2.73398 -2.92134,5.29521 -4.41475,7.78441 -0.66334,1.10564 -1.10744,2.42854 -1.88128,3.45222 -0.94413,1.24894 -1.90838,2.77371 -2.98496,3.90348 -1.21081,1.27063 -3.02346,1.82121 -4.28934,3.11377 -1.58973,1.62323 -2.28929,3.67238 -3.98833,5.2573 -2.2583,2.10663 -5.13793,3.55374 -7.2743,5.82139 -0.87239,0.92599 -1.28125,2.41607 -2.18229,3.22658 -3.22511,2.90105 -6.56874,5.93019 -9.53184,9.11565 -0.93857,1.00901 -1.69158,2.23775 -2.63381,3.22658 -0.63655,0.66804 -1.41548,0.97898 -2.1572,1.4892 -1.01522,0.69835 -1.72376,2.09282 -2.53346,3.02351 -4.2205,4.85116 -7.34663,13.42773 -14.0971,15.50113 -1.14326,0.35115 -1.93928,1.16552 -3.01006,1.64714 -1.18728,0.53402 -2.61517,0.74013 -3.76257,1.39893 -0.79886,0.45869 -1.23776,0.79201 -1.8562,1.42151 -0.23212,0.23627 -1.03646,0.79604 -0.72742,0.6769 0.77601,-0.29916 1.29941,-1.03887 1.93144,-1.57944" />
    <path
       style="fill:none;stroke:#000000;stroke-width:0.264583px;stroke-linecap:butt;stroke-linejoin:miter;stroke-opacity:1"
       d="m 148.77729,179.51249 c 0.0497,0.67418 -0.17825,1.37856 -0.69441,1.83771 -0.86403,0.7686 -2.0784,0.96125 -2.93349,1.75588 -0.36473,0.33894 -0.44488,0.84181 -0.63455,1.27818 -0.12562,0.28901 -0.45486,0.31263 -0.71253,0.40732 -1.11216,0.40871 -2.34706,0.59679 -3.31801,1.27624 -0.42599,0.2981 -0.72498,0.7464 -1.13213,1.06647 -0.20118,0.15815 -0.37647,0.35089 -0.69062,0.23757 -0.24962,-0.09 -0.51256,-0.12311 -0.77879,-0.0404 -1.59149,0.49429 -2.87551,1.61604 -4.35926,2.33357 -0.42238,0.20426 -0.85614,0.62121 -1.31341,0.51032 -0.20028,-0.0486 0.19723,-0.26808 0.25912,-0.35888 0.14584,-0.21397 -0.40572,-0.0212 -0.52646,0.0275 -0.37019,0.14941 -0.74706,-0.0466 -1.07931,-0.20254 -0.5425,-0.25454 -1.09865,-0.70337 -1.71395,-0.58178 -0.92157,0.18211 -1.72768,0.70241 -2.52018,1.18115 -0.91882,0.55505 -1.79218,1.38389 -2.87899,1.45829 -0.22979,0.0157 -0.82336,0.21648 -0.74391,-0.0321 0.14389,-0.45019 -0.41919,-0.28519 -0.6687,-0.20383 -0.40189,0.13105 -0.72574,-0.20684 -1.05252,-0.3774 -0.40067,-0.20913 -0.87207,-0.0936 -1.28332,0.013 -0.89156,0.2312 -1.74035,0.694 -2.68563,0.66273 -0.75008,-0.0248 -1.49207,0.12068 -2.20777,0.36231 -0.50972,0.17209 -1.041,0.27435 -1.56936,0.37841 -0.29728,0.0585 -0.0359,-0.33801 -0.35944,-0.36295 -0.30703,-0.0237 -0.61848,-0.0146 -0.91095,-0.14179 -0.88022,-0.38281 -1.61873,-1.01334 -2.38333,-1.5799 -0.60531,-0.44853 -1.23414,-0.89671 -1.979,-1.08587 -1.3692,-0.34772 -2.79415,-0.30354 -4.1952,-0.28444 -1.29885,0.0177 -2.60916,0.11355 -3.898089,-0.0936 -1.722613,-0.27692 -3.222555,-1.29955 -4.934098,-1.59706 -1.300721,-0.2261 -2.615659,0.058 -3.883102,0.34363 -1.429774,0.32224 -2.856892,0.71027 -4.332293,0.7767 -1.034681,0.0466 -1.971408,-0.45275 -2.972794,-0.62224 -1.807601,-0.30595 -3.664309,-0.46101 -5.394978,-1.07911 -0.684125,-0.24433 -1.317095,-0.60902 -2.025236,-0.79977 -1.284937,-0.34612 -2.641845,-0.48247 -3.854977,-1.04956 -0.890339,-0.4162 -1.711317,-1.05738 -2.724555,-1.14715 -0.611205,-0.0541 -1.2554,-0.0392 -1.810613,-0.34608 -0.353056,-0.19515 -0.740895,-0.31708 -1.150751,-0.32654 -1.843469,-0.0426 -3.673189,0.35012 -5.519648,0.21207 -0.877396,-0.0656 -1.664564,-0.49937 -2.403677,-0.94221 -1.006384,-0.60297 -1.910068,-1.46232 -3.056098,-1.75265 -0.281602,-0.0713 -0.576065,-0.0626 -0.842012,-0.21624 -0.604312,-0.34921 -0.967225,-0.9861 -1.611173,-1.30029 -1.981347,-0.96671 -4.052023,-1.79512 -5.874909,-3.0407 -0.554851,-0.37913 -1.096122,-0.76977 -1.62577,-1.18979 -0.49844,-0.39527 -0.77412,-0.98827 -1.079886,-1.52927 -0.213274,-0.37735 -0.519652,-0.69365 -0.894161,-0.91764 -0.534476,-0.31967 -1.105157,-0.59216 -1.542747,-1.05779 -0.891386,-0.94851 -1.608669,-2.11331 -2.747287,-2.78486 -0.989086,-0.58336 -2.169526,-0.56059 -3.26568,-0.76676 -0.835037,-0.15706 -1.613871,-0.56082 -2.227877,-1.15588 -0.806379,-0.78149 -1.509693,-1.64945 -2.304741,-2.4516 -0.574636,-0.57977 -0.781388,-1.39932 -1.027907,-2.1509 -0.173785,-0.52983 -0.41807,-1.03721 -0.781906,-1.4701 -0.840457,-0.99997 -1.796937,-1.89116 -2.73487,-2.79773 -0.939715,-0.90829 -1.859268,-1.84816 -2.601278,-2.93511 -0.98774,-1.44691 -2.3202,-2.60966 -3.690804,-3.68601 -2.288709,-1.79734 -4.58209,-3.62373 -6.525523,-5.79762 -0.876788,-0.98076 -1.793872,-1.99663 -2.247083,-3.24447 -0.495478,-1.36422 -1.612567,-2.44085 -2.035711,-3.81979 -0.1378335,-0.44917 0.01713,-0.94899 -0.1332704,-1.39149 -0.031823,-0.0936 -0.2308152,-0.0528 -0.024552,-0.0946 0.4107812,-0.0833 0.8277022,-0.13501 1.2364262,-0.22872"
       id="path63"
       inkscape:path-effect="#path-effect65"
       inkscape:original-d="m 148.77729,179.51249 c 0.12645,2.68747 -2.83399,2.3372 -3.83782,3.85801 -0.28191,0.4271 -0.29765,1.22609 -0.80268,1.30869 -0.14707,0.024 -3.59204,1.31739 -3.7124,1.42149 -0.90151,0.77975 -0.69251,0.77736 -1.45486,1.33125 -0.0837,0.0608 -0.61827,-0.22321 -0.87794,-0.15795 -1.78633,0.44898 -3.4596,1.98117 -5.16726,2.6625 -1.58475,0.6323 -0.28019,-0.17582 -0.40134,-0.20308 -0.27914,-0.0628 -0.67068,0.22341 -1.00334,0.15795 -0.71883,-0.14145 -1.68639,-0.99769 -2.48331,-0.81229 -1.92485,0.44779 -4.04164,2.68506 -5.84452,2.68506 -0.36679,0 -0.0467,-0.29154 -0.22575,-0.38357 -0.24597,-0.12643 -0.57968,0.12521 -0.82777,0.11282 -0.50062,-0.025 -0.74117,-0.52786 -1.30436,-0.51897 -0.94643,0.0149 -1.84582,0.53242 -2.75922,0.72203 -0.57101,0.11853 -1.0466,0.0251 -1.60536,0.0903 -1.246,0.14528 -0.9417,0.3165 -2.53346,0.65434 -1.18638,0.25181 0.0523,-0.34982 -1.07861,-0.3159 -1.12909,0.0339 -3.15759,-2.08816 -4.36458,-2.59479 -2.13692,-0.89698 -5.9631,-0.25032 -8.27766,-0.51897 -1.943531,-0.22558 -3.324407,-1.16339 -5.092001,-1.602 -2.574636,-0.63888 -6.080165,1.19538 -8.779338,1.06048 -0.870685,-0.0435 -1.632656,-0.44271 -2.483289,-0.58665 -1.810732,-0.3064 -3.570213,-0.54438 -5.34285,-1.03792 -0.684289,-0.19052 -1.285047,-0.59753 -1.956538,-0.78972 -1.232914,-0.35287 -2.551068,-0.53432 -3.762569,-0.97024 -0.921265,-0.33148 -1.732787,-1.02708 -2.683967,-1.24098 -0.556874,-0.12524 -1.150917,-0.0658 -1.7057,-0.20308 -0.511165,-0.12644 -0.870911,-0.47532 -1.404689,-0.51896 -1.890927,-0.15462 -5.115682,0.62331 -6.772627,-0.0226 -1.567582,-0.61104 -2.807819,-1.78186 -4.314417,-2.4143 -0.506807,-0.21275 -0.473316,-0.004 -0.953185,-0.2482 -0.602451,-0.30708 -0.9016,-0.95732 -1.530112,-1.26356 -1.941518,-0.94598 -3.98149,-1.88372 -5.844524,-3.00094 -0.605526,-0.36312 -1.078998,-0.89409 -1.7057,-1.241 -0.628388,-0.34785 -1.063932,-1.65343 -1.605365,-2.16609 -0.498996,-0.47249 -1.331931,-0.70747 -1.831118,-1.21843 -0.908317,-0.92976 -1.557877,-1.94253 -2.608712,-2.75275 -1.59671,-1.2311 -3.780121,-0.36382 -5.543521,-1.89534 -0.942398,-0.81848 -1.519973,-1.81749 -2.4833,-2.61736 -0.848111,-0.70421 -0.994806,-2.40303 -1.580276,-3.29427 -0.218104,-0.33202 -0.87729,-1.03884 -1.103686,-1.28613 -1.229558,-1.34303 -3.407576,-3.10463 -4.364583,-4.58039 -0.915756,-1.41216 -2.107044,-2.57832 -3.461566,-3.63272 -2.507426,-1.95187 -8.001629,-6.27238 -9.205754,-9.43156 -0.550252,-1.44365 -1.268377,-2.41726 -2.006707,-3.74554 -0.1284774,-0.23114 -0.03613,-1.44406 -0.175584,-1.44406 -0.427694,0 0.839083,-0.16776 1.254188,-0.27077" />
    <path
       style="fill:none;stroke:#000000;stroke-width:0.264583px;stroke-linecap:butt;stroke-linejoin:miter;stroke-opacity:1"
       d="m 11.16756,136.59633 c 0.125054,0.40253 0.29055,0.78868 0.392336,1.20257 0.01226,0.0499 0.02459,0.15568 -0.06141,0.1126 -0.097,-0.0486 -0.190262,-0.12015 -0.239103,-0.21679 -0.04312,-0.0853 -0.04797,-0.18463 -0.04727,-0.2785 0.0017,-0.22116 0.06444,-0.4433 0.01916,-0.66364 -0.0288,-0.14011 -0.123496,-0.25269 -0.200843,-0.36838 -0.204456,-0.30582 -0.399938,-0.62433 -0.663587,-0.88248 -0.08441,-0.0827 -0.173454,-0.17336 -0.291413,-0.20424 -0.06754,-0.0177 -0.1321255,0.0207 -0.1780443,0.0657 -0.051872,0.0508 -0.1162676,-0.001 -0.1494468,-0.0478 -0.092222,-0.12876 -0.1623956,-0.27256 -0.2212638,-0.41913 -0.1352182,-0.33667 -0.1643713,-0.70481 -0.1493119,-1.0644 0.019288,-0.46056 0.1276128,-0.92926 0.030796,-1.38344 -0.039635,-0.18593 -0.1098215,-0.36377 -0.1790991,-0.54019 -0.2722778,-0.69336 -0.5799641,-1.37207 -0.8821402,-2.05277 -0.133949,-0.30174 -0.2845957,-0.5963 -0.3950853,-0.90815 -0.304728,-0.86007 -0.4062438,-1.77187 -0.5447185,-2.66872 -0.1170022,-0.75778 -0.2689594,-1.51901 -0.583299,-2.22381 -0.4311494,-0.9667 -0.9321325,-1.90538 -1.5432131,-2.77133 -0.6348832,-0.89968 -1.3546534,-1.73445 -2.065519,-2.57371 -0.2309734,-0.27269 -0.4465828,-0.55907 -0.6988244,-0.81333 -0.5432865,-0.54764 -1.1865219,-0.99042 -1.69394741,-1.57417 -0.25145563,-0.28928 -0.46039262,-0.61277 -0.65409091,-0.94251 -0.55548882,-0.94564 -1.02132055,-1.93898 -1.48076478,-2.93334 -0.057798,-0.12509 -0.1179868,-0.25445 -0.1287977,-0.39439 -0.00442,-0.0572 0.029873,-0.11913 0.090509,-0.1279 0.1091927,-0.0158 0.2168589,0.025 0.3156609,0.0663 0.32563334,0.13612 0.62708001,0.3225 0.93932395,0.48555"
       id="path67"
       inkscape:path-effect="#path-effect69"
       inkscape:original-d="m 11.16756,136.59633 c 0.133516,0.42871 0.3691,0.83821 0.40055,1.28612 0.0093,0.13186 -0.286785,-0.0994 -0.326089,-0.22563 -0.105373,-0.33834 0.115883,-0.76158 -0.07446,-1.06049 -1.5235516,-2.39253 -1.071752,-0.5614 -1.5559869,-1.51176 -0.4582255,-0.8993 -0.093615,-1.70248 -0.2006711,-2.61736 -0.043596,-0.37255 -1.0575731,-2.61084 -1.254184,-3.02351 -0.7915605,-1.66141 -0.5753245,-3.68556 -1.3043579,-5.32499 -1.2201292,-2.74381 -2.1692487,-3.60445 -4.0134138,-5.86651 -0.6420822,-0.78758 -1.6181863,-1.37112 -2.20737364,-2.1661 -0.75778934,-1.02247 -1.31852494,-2.43539 -1.90636286,-3.56504 -0.5744567,-1.10393 0.46489772,-0.4211 1.17893965,-0.0451" />
    <path
       style="fill:none;stroke:#000000;stroke-width:0.264583px;stroke-linecap:butt;stroke-linejoin:miter;stroke-opacity:1"
       d="m 190.18504,2.1197351 c -0.76368,1.2415847 -1.99623,2.06685 -3.12465,2.942097 -0.73257,0.568211 -1.36719,1.2511006 -1.91769,1.9965138 -0.95899,1.298541 -1.78337,2.7174421 -2.99729,3.8097611 -2.02428,1.821503 -4.52796,2.99279 -6.67201,4.649622 -0.4796,0.370614 -0.84622,0.868737 -1.3808,1.178893 -1.42945,0.829342 -3.10917,1.108104 -4.52878,1.949481 -0.86252,0.5112 -1.64746,1.167431 -2.62072,1.482972 -1.90006,0.616018 -3.82693,1.203342 -5.81006,1.455672 -0.8498,0.108127 -1.74784,0.0413 -2.54658,0.379508 -0.359,0.15201 -0.6023,0.472526 -0.86725,0.744374 -0.37395,0.383687 -0.82241,0.695002 -1.34301,0.857936 -0.83308,0.260732 -1.72014,0.44292 -2.42909,0.998544 -2.33794,1.832315 -4.47813,3.898612 -6.89064,5.647531 -0.38381,0.278238 -0.65763,0.711629 -1.14527,0.848157 -1.18738,0.332442 -2.419,0.0054 -3.62493,0.02813 -1.64089,0.0309 -3.29843,0.04478 -4.90901,0.368761 -0.42556,0.0856 -0.82866,0.328433 -1.28372,0.2348 -0.65336,-0.134435 -1.08481,-0.68713 -1.68304,-0.950601 -0.89582,-0.394532 -1.83872,-0.648794 -2.76298,-0.973981 -0.78128,-0.274881 -1.66176,0.201383 -2.40844,-0.209661 -0.40336,-0.222047 -0.66384,-0.653974 -0.69895,-1.12113 -0.0427,-0.568524 0.20702,-1.224773 -0.13251,-1.712351 -0.30694,-0.440776 -0.62961,-0.872191 -0.9293,-1.319279 -0.7609,-1.135119 -1.38067,-2.367099 -2.21667,-3.448199 -0.28206,-0.364753 -0.70845,-0.657751 -0.78865,-1.144834 -0.13616,-0.826964 0.27505,-1.634859 0.0749,-2.471573 -0.3224,-1.347507 -1.13127,-2.497766 -1.9038,-3.626191 -0.3548,-0.518251 -0.77726,-0.997279 -1.05172,-1.565633 -0.41193,-0.853014 -0.33107,-1.822735 -0.32921,-2.741616 0.003,-1.5478793 -0.61383,-2.9960796 -1.06899,-4.4487294 -0.34428,-1.0987758 -0.70722,-2.2935422 -0.40269,-3.4216995 0.11708,-0.4337278 0.63968,-0.6398582 0.68093,-1.1045582 0.0425,-0.47855585 0.42378,-1.09074807 0.0811,-1.43862074 -0.20804,-0.21119358 -0.54799,-0.23134622 -0.82957,-0.26287521 -0.61453,-0.0688102 -1.2645,-0.17110776 -1.85702,0.0269213 -0.28778,0.0961803 -0.47643,0.39466485 -0.5347,0.67764306 -0.11848,0.57535539 0.32542,1.05687179 0.4318,1.59433899 0.10876,0.5494894 0.0937,1.1154597 0.0891,1.6731769 -0.0157,1.9120959 -0.0318,3.8348223 -0.31142,5.7272101 -0.0755,0.5108566 -0.096,1.0501727 -0.32559,1.5185427 -0.15802,0.322401 -0.55019,0.21774 -0.7936,0.04133 -0.29197,-0.211608 -0.54204,-0.497016 -0.91249,-0.584665 -0.75447,-0.17851 -1.56105,0.06926 -2.2973,-0.174648 -0.74748,-0.2476326 -1.34695,-0.8957747 -2.15602,-0.9475208 -0.34304,-0.02194 -0.71611,0.1421238 -0.85119,0.4941331 -0.16854,0.4392137 -0.26916,0.8971447 -0.51892,1.3132127 -0.19695,0.328087 -0.49096,0.696789 -0.39066,1.088359 0.091,0.355273 0.50813,0.42781 0.81725,0.474363 0.80895,0.121825 1.67677,0.113161 2.40121,0.559173 0.24964,0.153694 0.30945,0.498453 0.55014,0.645873 0.2416,0.147974 0.25342,0.391321 -0.0915,0.446848 -0.378,0.06084 -0.76256,0.08279 -1.12467,0.23136 -0.80717,0.331181 -1.64326,0.661342 -2.30885,1.236483 -0.2381,0.205744 -0.52118,0.519291 -0.37729,0.85556 0.14316,0.334572 0.55115,0.278295 0.82994,0.415822 0.70373,0.347155 1.16951,1.011431 1.85553,1.394959 1.20117,0.671529 2.6219,0.834623 3.79062,1.573105 0.73755,0.466037 1.41279,1.024852 2.07015,1.596321 1.9567,1.701038 3.5674,3.779747 4.80796,6.05224 0.44967,0.823715 0.86939,1.664786 1.20857,2.541264 0.20042,0.517907 0.50129,1.000908 0.94007,1.355348 0.56932,0.459887 1.22982,0.839605 1.62546,1.483128 0.31789,0.517063 0.5893,1.081912 1.08569,1.465823 0.85873,0.664144 1.75865,1.276414 2.5673,2.006798 0.19358,0.174844 0.28795,0.413421 0.35276,0.664805 0.18002,0.69821 0.30162,1.449194 0.72273,2.040016 0.30542,0.428511 0.98038,0.592547 1.07614,1.13741 0.0615,0.350115 -0.0365,0.714568 -0.17756,1.033543 -0.31303,0.707815 -0.88781,1.264186 -1.14992,2.004988 -0.17116,0.483744 -0.17493,1.000337 -0.19956,1.505883 -0.0135,0.276503 -0.2263,0.692402 0.0179,0.834904 0.55024,0.321075 1.13549,0.582239 1.69799,0.882628 0.88263,0.471344 1.80443,0.900379 2.58187,1.536468 0.34491,0.282201 0.54499,0.694525 0.74645,1.081721 0.88457,1.700098 1.22181,3.655083 2.33714,5.240934 0.52358,0.744458 1.33799,1.399243 1.45447,2.313811 0.063,0.494337 -0.0434,0.98622 -0.0283,1.484532 0.0497,1.644624 0.17844,3.337941 -0.31844,4.931302 -0.28049,0.899465 -0.82772,1.744736 -1.64618,2.248324 -1.24968,0.768908 -2.55713,1.448554 -3.90997,2.013735 -0.45452,0.189886 -0.91477,0.384797 -1.41638,0.420962 -1.46178,0.105393 -2.93217,-0.334121 -4.38464,-0.01536 -1.14656,0.251627 -2.14117,0.953035 -3.31265,1.13233 -1.71083,0.261842 -3.46365,-0.22041 -5.1591,0.201697 -1.28146,0.319038 -2.43147,1.016504 -3.7238,1.309306 -1.30929,0.296644 -2.66706,0.420895 -3.91159,0.977382 -1.68231,0.752239 -3.43834,1.383759 -5.26314,1.667469 -0.79746,0.123985 -1.61983,0.180014 -2.41483,-0.01278 -0.78057,-0.18929 -1.5439,-0.443902 -2.33814,-0.581199 -1.45235,-0.251063 -2.905946,-0.473257 -4.359329,-0.741165 -1.137604,-0.209699 -2.300227,-0.110914 -3.449732,-0.154362 -0.714795,-0.02702 -1.468729,-0.09831 -2.075327,-0.52073 -0.905035,-0.630247 -1.454528,-1.621661 -1.965975,-2.568616 -0.307241,-0.568863 -0.67303,-1.101075 -1.051385,-1.625739 -0.614301,-0.851851 -1.30409,-1.656874 -1.826022,-2.567977 -0.417615,-0.729003 -0.481501,-1.610913 -1.007076,-2.293816 -0.368858,-0.479274 -0.790606,-0.950492 -0.893562,-1.582103 -0.353408,-2.168081 0.05225,-4.389784 -0.43052,-6.548085 -0.233133,-1.042267 -0.648142,-2.03528 -0.891644,-3.073535 -0.198258,-0.845342 -0.104352,-1.722734 -0.300968,-2.572737 -0.301979,-1.305501 -0.581424,-2.617415 -0.938928,-3.908716 -0.340184,-1.228743 -0.840823,-2.422654 -0.943167,-3.710198 -0.118855,-1.495256 0.138269,-3.007133 -0.06528,-4.492172 -0.14691,-1.071807 -0.551003,-2.085133 -0.907567,-3.100355 -0.21628,-0.6158 -0.530528,-1.218459 -0.513892,-1.890249 0.03182,-1.284864 0.675523,-2.453075 0.765821,-3.733627 0.05741,-0.814113 -0.213489,-1.613417 -0.634105,-2.307928 -0.163268,-0.269584 -0.218694,-0.682239 -0.527488,-0.791513 -0.500418,-0.177084 -1.015376,0.133996 -1.340258,0.500721 -0.653988,0.738217 -1.049322,1.663441 -1.364912,2.585365 -0.358309,1.046717 -0.707331,2.115989 -0.79607,3.220377 -0.09548,1.188315 0.0072,2.378603 0.02269,3.568314 0.05715,4.400978 1.059955,8.711343 2.023996,12.986656 0.235688,1.045225 0.54678,2.070784 0.816692,3.107179 0.34534,1.326022 0.500194,2.720961 0.227482,4.095387 -0.0745,0.375484 -0.319781,0.709361 -0.675538,0.866469 -0.528252,0.233284 -1.1153,0.270815 -1.650453,0.491634 -0.709142,0.292612 -1.395209,0.663051 -2.163786,0.787904 -1.893765,0.307636 -3.830543,0.01003 -5.66283,-0.493634 -1.441978,-0.396378 -2.843131,-0.931429 -4.206444,-1.543703"
       id="path71"
       inkscape:path-effect="#path-effect73"
       inkscape:original-d="m 190.18504,2.1197351 c -1.06982,1.7299759 -2.9917,2.5657441 -4.31442,4.0388713 -1.27246,1.4171488 -2.09157,3.18066 -3.48665,4.4901366 -2.01554,1.891857 -4.55746,3.263951 -6.82279,4.806029 -0.47839,0.325658 -0.78522,0.820507 -1.27928,1.128178 -1.33324,0.830274 -2.9485,1.179668 -4.36459,1.87277 -0.96617,0.47289 -1.72375,1.255207 -2.7592,1.602008 -1.81983,0.609514 -4.03186,1.205131 -5.91979,1.511755 -0.70282,0.114148 -2.41812,0.09931 -2.9348,0.564089 -0.49617,0.446333 -0.97228,1.080774 -1.63045,1.331251 -0.74998,0.285419 -1.86622,0.436429 -2.55854,0.970227 -2.38806,1.841271 -4.46974,4.050214 -7.02346,5.753699 -0.37275,0.248645 -0.6259,0.701056 -1.05353,0.83485 -1.34831,0.42186 -2.67421,0.0281 -4.0385,0.06769 -1.52569,0.04427 -3.07943,0.125785 -4.59033,0.361016 -0.3328,0.05181 -0.75352,0.289038 -1.0786,0.270761 -0.76675,-0.04311 -1.08796,-0.56946 -1.7057,-0.879972 -0.90122,-0.453017 -1.95652,-0.620501 -2.88463,-1.037926 -0.97517,-0.43859 -2.24485,0.476908 -3.03513,-0.767162 -0.40473,-0.637125 0.10594,-1.810319 -0.37627,-2.436855 -1.07776,-1.400328 -1.97779,-3.046841 -2.98498,-4.535267 -0.18448,-0.272626 -0.66484,-0.694119 -0.77759,-0.947669 -0.35311,-0.794109 0.2079,-1.77236 0.0251,-2.594806 -0.43752,-1.968219 -1.57733,-3.244896 -2.70905,-4.873717 -0.93616,-1.347358 -0.47345,-2.578855 -0.67726,-4.10656 -0.31357,-2.3505268 -1.77061,-4.47442 -1.42978,-6.9269954 0.0598,-0.4306102 0.60134,-0.7191901 0.67725,-1.0604851 0.0936,-0.4208007 -0.0583,-1.03500284 0.10035,-1.53432009 0.0937,-0.29481136 -2.49989,-0.54729051 -2.88465,-0.15794641 -0.82165,0.83145754 0.0115,1.5836907 0.12543,2.301478 0.18391,1.1582567 -0.0661,8.099197 -0.60202,8.822335 -0.39474,0.532633 -0.98498,-0.223503 -1.30436,-0.428708 -0.6275,-0.403179 -1.92879,-0.120761 -2.63379,-0.315888 -0.85658,-0.23708 -1.95295,-1.4196127 -2.85955,-0.7671584 -0.26324,0.1894459 -0.35417,1.1009144 -0.57693,1.4215004 -1.99117,2.865579 2.17409,0.931769 3.16056,2.843002 0.0838,0.162413 0.33943,0.302454 0.27592,0.473834 -0.0423,0.11401 -0.92168,0.136129 -1.15385,0.225635 -0.3452,0.133075 -3.56307,1.329624 -2.88464,2.278917 0.14743,0.206279 0.45507,0.191958 0.65218,0.270761 0.68356,0.273274 1.12031,0.913137 1.7057,1.28612 1.46466,0.933201 2.9785,0.903967 4.54016,2.053278 3.27918,2.413326 5.44451,5.199843 7.22414,8.935154 0.26576,0.55781 0.46144,1.273254 0.82776,1.782514 0.43651,0.606819 1.25481,0.972296 1.78096,1.534324 0.49709,0.530987 0.697,1.281311 1.2291,1.759952 0.56118,0.504788 2.90673,1.987336 3.06022,2.594806 0.18741,0.74172 0.36623,1.473878 0.72743,2.18866 0.26155,0.517583 1.21613,0.794239 1.15385,1.466628 -0.15437,1.666697 -1.5301,1.785723 -1.5301,4.061431 0,0.164147 -0.105,0.894101 0,1.083048 0.0559,0.10051 4.00803,1.907259 4.54016,2.685057 1.16096,1.696937 1.44734,3.701283 2.43313,5.437807 0.63267,1.114475 1.31792,1.65685 1.83112,2.888133 0.0839,0.201295 -0.0281,1.011418 -0.0251,1.150734 0.0483,2.258002 0.40857,5.440878 -1.42977,7.175196 -0.73245,0.691009 -4.79903,2.675011 -5.46826,2.775312 -1.47796,0.221509 -3.03224,-0.272653 -4.5151,-0.02257 -1.10575,0.186494 -1.81109,0.696701 -2.83446,1.015357 -1.61498,0.502875 -3.41587,0.05749 -5.06694,0.225632 -1.43765,0.146404 -2.38342,0.766093 -3.7124,1.21843 -1.53882,0.523766 -3.13315,0.461086 -4.61542,1.150736 -1.82541,0.849299 -4.72422,1.850208 -6.79771,1.850208 -0.90771,0 -1.93181,-0.432245 -2.7843,-0.609212 -1.60867,-0.333941 -3.182682,-0.405434 -4.765922,-0.812284 -1.306576,-0.335756 -3.619323,-0.01802 -4.866254,-0.338457 -1.8225,-0.468358 -2.578753,-2.870269 -3.511732,-4.129122 -0.688303,-0.928714 -1.367195,-1.900505 -2.056868,-2.865567 -0.413967,-0.579266 -0.492996,-1.441929 -0.85285,-2.075839 -0.307946,-0.542467 -0.985375,-1.09868 -1.103688,-1.737389 -0.40203,-2.170332 0.0353,-4.317487 -0.401342,-6.453166 -0.216124,-1.057098 -0.577336,-2.156175 -0.903015,-3.181459 -0.255778,-0.805222 -0.118528,-1.706372 -0.301011,-2.527109 -0.279672,-1.257853 -0.613383,-2.531383 -0.903017,-3.79067 -0.292159,-1.270275 -0.864058,-2.409113 -1.003345,-3.74555 -0.15712,-1.507508 -0.0079,-3.066343 -0.07525,-4.58039 -0.05232,-1.17648 -0.899144,-3.238693 -1.279279,-4.264506 -0.796623,-2.149727 1.709989,-4.257908 0,-6.949556 -0.152876,-0.240635 -0.358312,-0.79479 -0.602006,-0.857416 -2.004582,-0.51515 -3.36245,5.136993 -3.461565,6.385477 -0.07842,0.987763 0.02508,2.060958 0.02508,3.046074 0,4.918664 1.095177,9.632388 2.257549,14.395513 0.487678,1.998387 1.457908,4.33814 0.75251,6.453166 -0.270476,0.81098 -1.167755,0.804243 -1.856198,1.015357 -0.923893,0.283316 -1.464908,0.740257 -2.533462,0.925105 -3.310789,0.572728 -7.295205,-0.855506 -9.908103,-2.030717" />
    <path
       style="fill:none;stroke:#000000;stroke-width:0.264583px;stroke-linecap:butt;stroke-linejoin:miter;stroke-opacity:1"
       d="m 64.791192,54.557315 c -1.320003,-0.17793 -2.675653,-0.01535 -3.976388,-0.367492 -0.609831,-0.165096 -1.111995,-0.561915 -1.672438,-0.834376 -0.48481,-0.235692 -1.030941,-0.2723 -1.551279,-0.383468 -0.460563,-0.0984 -0.970153,-0.130874 -1.352705,-0.415068 -0.314349,-0.233527 -0.552267,-0.551608 -0.809194,-0.843675 -0.268453,-0.305169 -0.586663,-0.563963 -0.955114,-0.744864 -0.730326,-0.358574 -1.520842,-0.627109 -2.145043,-1.170954 -0.515467,-0.449109 -0.985872,-0.956857 -1.59423,-1.293744 -1.109612,-0.614464 -2.080149,-1.443099 -3.144495,-2.12688 -0.666156,-0.427967 -1.48994,-0.628013 -2.029776,-1.237058 -0.672167,-0.758342 -1.261613,-1.588405 -1.966683,-2.317929 -0.468009,-0.484241 -0.957735,-0.990129 -1.591582,-1.245311 -0.237466,-0.0956 -0.676236,-0.324035 -0.758866,-0.07587 -0.0558,0.167582 0.09707,0.331144 0.122326,0.516879 0.06922,0.509057 -0.129674,0.998767 -0.236893,1.487479 -0.158784,0.723746 -0.398551,1.471573 -0.267671,2.207457 0.08082,0.454418 0.39285,0.837253 0.440352,1.302056 0.02481,0.242771 -0.220834,0.363303 -0.388827,0.475392 -0.983785,0.656403 -2.011825,1.244904 -3.054654,1.801088 -0.700861,0.373798 -1.466777,0.630035 -2.132354,1.065348 -0.246816,0.161427 -0.398671,-0.154304 -0.60235,-0.228992 -0.223164,-0.08183 -0.471214,-0.05 -0.703137,-0.03133 -0.627474,0.05051 -1.34193,0.462672 -1.886845,0.129138 -0.167387,-0.102455 -0.248835,-0.299841 -0.340068,-0.467127 -0.352938,-0.647151 -0.765463,-1.271397 -1.005306,-1.969081 -0.0729,-0.212075 -0.235049,-0.120191 -0.246303,0.08529 -0.01324,0.241758 -0.176484,0.437896 -0.297271,0.636667 -0.407315,0.67029 -0.862872,1.336118 -1.026904,2.121881 -0.230429,1.103823 -0.30589,2.234378 -0.63543,3.322412 -0.143657,0.474309 -0.319763,0.960997 -0.282496,1.464537 0.02924,0.395145 0.356718,0.665117 0.673559,0.854849 0.57055,0.341659 1.194997,0.587989 1.738586,0.976072 0.405527,0.289517 0.87598,0.489512 1.376161,0.543022 0.800693,0.08566 1.632082,-0.10811 2.410053,0.157998 0.579119,0.19809 0.984321,0.704746 1.283302,1.214412 0.494138,0.842346 0.752354,1.835456 1.455906,2.54535 0.484594,0.488962 1.138951,0.791769 1.821189,0.879174 0.886671,0.113596 1.818084,0.06185 2.650322,-0.286203 0.523293,-0.21885 0.991601,-0.650357 1.110395,-1.226194 0.11617,-0.563119 -0.05238,-1.162899 0.165084,-1.708649 0.133135,-0.334117 0.490053,-0.473113 0.798334,-0.593844 1.063105,-0.41634 2.207437,-0.565212 3.338986,-0.637438 0.665716,-0.04249 1.332806,-0.0984 1.999819,-0.08456 0.922906,0.01915 1.794182,0.385642 2.586883,0.833724 0.915951,0.51775 1.804211,1.1011 2.810688,1.44155 1.358267,0.459446 2.755628,0.814326 4.075135,1.378948 1.07226,0.458824 2.070412,1.112859 3.225079,1.365199 1.239088,0.270789 2.527541,0.231703 3.761085,0.517742 0.934829,0.216772 1.771851,0.756145 2.740045,0.858424 1.182775,0.124947 2.394696,-0.0063 3.55651,0.290339 0.367335,0.09378 0.705553,0.266306 1.063289,0.390527 1.293294,0.449085 2.630576,0.802595 3.854449,1.421467 0.293887,0.148609 0.678114,0.240517 0.832688,0.537763 0.117814,0.226557 0.202238,0.47456 0.371859,0.676145 0.552062,0.656094 1.383677,0.950163 2.090288,1.397664 0.422393,0.267504 0.810218,0.661919 0.890317,1.179009 0.05599,0.361453 -0.02979,0.732074 -0.22352,1.044753 -0.398381,0.642992 -1.044491,1.098004 -1.444575,1.733962 -0.161819,0.257221 -0.04422,0.56924 0.02486,0.835714 0.05018,0.193576 0.0733,0.430696 -0.10727,0.577568 -0.788496,0.64135 -1.899243,0.682114 -2.672311,1.345658 -0.717114,0.615517 -1.379316,1.288777 -2.059569,1.944876 -0.505012,0.48708 -0.524651,1.275537 -1.043042,1.754791 -0.414217,0.382945 -0.967855,0.596261 -1.306664,1.069314 -0.36948,0.515877 -0.521636,1.21902 -1.055355,1.585595 -0.607019,0.41692 -1.257101,0.76912 -1.910943,1.106803 -1.084861,0.560287 -2.228191,1.000081 -3.312421,1.560159 -0.939369,0.485247 -1.70677,1.235269 -2.658668,1.706727 -2.415261,1.196236 -4.982249,2.041549 -7.558505,2.826582 -0.999893,0.304686 -1.932386,0.812335 -2.970382,1.001129 -1.29554,0.235637 -2.644247,0.206345 -3.896639,0.652775 -1.483985,0.528984 -2.626269,1.684759 -4.019799,2.37916 -0.70851,0.353053 -1.512514,0.418105 -2.286807,0.503823 -1.030067,0.114034 -2.075399,0.288616 -3.109332,0.121487 -1.074886,-0.173749 -2.030816,-0.750439 -2.880741,-1.401848 -0.861975,-0.660644 -1.603922,-1.493587 -2.575965,-1.997929 -0.632824,-0.328339 -1.417325,-0.265641 -2.004333,-0.688685 -0.777002,-0.559969 -1.408146,-1.323482 -2.28788,-1.739395 -1.244294,-0.588266 -2.681968,-0.555236 -3.916463,-1.174092 -0.279759,-0.140244 -0.537139,-0.320717 -0.839098,-0.418414 -0.551398,-0.178401 -1.13578,-0.303415 -1.718878,-0.248085 -0.270788,0.02569 -0.588647,0.173421 -0.626698,0.471999 -0.04669,0.366372 0.194971,0.693324 0.429119,0.945397 0.576411,0.620537 1.296231,1.086294 2.024593,1.510678 0.240827,0.140319 0.505563,0.22479 0.770486,0.308193 1.517693,0.477802 2.85566,1.398062 4.014288,2.475046 0.56643,0.526516 1.070089,1.114254 1.59173,1.683696 0.38213,0.417147 0.880554,0.697004 1.413181,0.903371 0.381718,0.147897 0.772345,0.353586 1.005021,0.703915 0.154178,0.232139 0.05101,0.517081 -0.03847,0.750299 -0.31427,0.819035 -1.000132,1.412675 -1.667858,1.945203 -0.544916,0.434584 -1.092553,0.866378 -1.591326,1.356804 -0.531847,0.522947 -1.254675,0.877387 -2.012447,0.861747 -0.929583,-0.0192 -1.781095,-0.465185 -2.553811,-0.943695 -1.085368,-0.672122 -2.05176,-1.536309 -3.201451,-2.100346 -0.342133,-0.16785 -0.703234,-0.307714 -1.090831,-0.3301 -1.272221,-0.07348 -2.548729,-0.04971 -3.820585,0.01236 -1.365156,0.06662 -2.745388,0.09654 -4.082161,0.391459 -0.368974,0.0814 -0.816318,0.07874 -1.07859,0.359979 -0.273969,0.293782 -0.533331,0.603933 -0.784741,0.917988 -0.426176,0.532369 -0.867178,1.080074 -1.098362,1.728913 -0.07764,0.21789 -0.115512,0.53249 0.116409,0.66608 0.300329,0.17299 0.667652,0.12591 0.996279,0.0904 0.649324,-0.0702 1.283219,-0.28909 1.938266,-0.28104 0.714602,0.009 1.242869,0.60177 1.953231,0.66162 0.340284,0.0287 0.676862,-0.0326 1.006195,-0.12063 0.457016,-0.12213 0.931232,-0.16146 1.401681,-0.2004 0.286934,-0.0238 0.02171,0.33846 0.149354,0.4346 0.158601,0.11945 0.385784,0.0513 0.572642,0.0521 0.168189,7.7e-4 0.477231,-0.0688 0.513232,0.1393 0.03277,0.18938 -0.231099,0.63299 -0.04169,0.57193 0.279086,-0.09 0.350935,0.27801 0.37355,0.47842 0.06825,0.60481 -0.210862,1.18999 -0.553409,1.66681 -0.835465,1.16295 -1.993459,2.03707 -3.151453,2.8558 -1.281269,0.90589 -2.509848,1.8826 -3.62287,3.00922 -0.323755,0.32771 -0.75412,0.56284 -0.99506,0.96134 -0.09833,0.16264 0.01159,0.35157 0.07755,0.50421 0.214997,0.49754 0.5036,0.98046 0.911232,1.33861 0.475316,0.41762 1.151342,0.47938 1.754428,0.41733 1.114281,-0.11465 2.172298,-0.52015 3.199154,-0.9469 1.09614,-0.45554 2.140009,-1.02945 3.242591,-1.46847 1.45756,-0.58036 3.110891,-0.54018 4.510843,-1.2651 0.462538,-0.23951 0.915116,-0.49855 1.391063,-0.71269 1.263191,-0.56834 2.592294,-0.98693 3.943389,-1.27926 0.886474,-0.1918 1.772828,-0.50916 2.68055,-0.4717 0.164312,0.007 0.570516,-0.0666 0.498253,0.15883 -0.07064,0.22039 0.03029,0.39367 0.249661,0.50353 0.348448,0.1745 0.753152,0.24777 1.039016,0.54171 0.861305,0.88563 1.873933,1.66388 2.485857,2.75654 0.2697,0.48158 0.513082,1.04488 0.405522,1.5937 -0.09257,0.47236 -0.441764,0.83215 -0.764592,1.16066 -0.239406,0.24362 -0.269726,0.59702 -0.317995,0.91563 -0.04006,0.26445 -0.180279,0.49553 -0.359607,0.69135 -0.43717,0.47737 -0.861507,0.97763 -1.377048,1.3701 -0.354277,0.2697 -0.559387,0.68047 -0.763484,1.06488 -0.405224,0.76322 -0.71599,1.57567 -1.166607,2.31481 -0.03859,0.0633 -0.168765,0.24684 -0.0616,0.0825 0.153123,-0.23485 0.410758,-0.43424 0.450336,-0.71229 0.02889,-0.20299 -0.178583,-0.33066 -0.31414,-0.44093 -0.08083,-0.0657 -0.164392,-0.13003 -0.231232,-0.21066"
       id="path79"
       inkscape:path-effect="#path-effect81"
       inkscape:original-d="m 64.791192,54.557315 c -1.384861,-0.193095 -3.067396,0.05779 -4.389749,-0.518935 -0.56229,-0.245234 -0.978276,-0.609219 -1.580272,-0.812286 -0.509751,-0.171951 -2.218915,-0.326258 -2.68397,-0.744596 -0.418367,-0.376343 -0.884132,-1.083718 -1.404697,-1.376373 -0.687763,-0.386654 -1.388488,-0.57817 -2.056868,-1.037924 -0.64511,-0.443746 -1.110313,-1.110789 -1.806033,-1.489194 -1.158756,-0.630253 -2.096706,-1.365469 -3.160564,-2.120971 -0.623755,-0.442963 -1.406938,-0.633801 -1.981615,-1.150734 -0.807694,-0.726538 -2.976441,-4.178429 -4.464921,-3.813236 -0.119385,0.02929 0.05017,0.240676 0.07525,0.361014 0.07617,0.365413 0.04441,0.609968 -0.05016,0.992793 -0.190743,0.772123 -0.509357,2.045131 -0.426432,2.865567 0.03892,0.385009 0.589939,1.149916 0.401344,1.489194 -0.206946,0.372288 -5.284803,3.204017 -5.719106,3.204017 -0.184703,0 -0.291505,-0.293224 -0.551844,-0.315886 -0.791607,-0.06891 -1.691733,0.260744 -2.458209,0.135377 -0.271376,-0.04439 -1.258996,-2.57224 -1.479947,-2.57224 -0.144378,0 -0.08401,0.27799 -0.150501,0.406146 -0.376742,0.726178 -1.038312,1.534549 -1.229111,2.324045 -0.287517,1.189715 -0.264456,2.289667 -0.652177,3.452212 -0.6957,2.085998 -0.32934,2.099447 1.454862,3.02351 0.608097,0.314941 0.911688,0.676997 1.58028,0.857416 1.121531,0.302644 2.496804,-0.258611 3.436482,0.586653 1.367512,1.230117 1.134843,3.22984 3.160554,4.084 1.11607,0.470598 4.201072,0.438631 4.565253,-1.308685 0.148457,-0.71229 -0.184936,-1.714288 0.526761,-2.098413 1.464302,-0.790334 3.929438,-0.86882 5.493356,-0.925097 2.224278,-0.08004 3.595243,1.5636 5.493348,2.211223 1.323105,0.451438 2.688482,0.836571 3.988327,1.331244 1.054906,0.40146 2.164532,1.154959 3.260894,1.421505 1.264057,0.307316 2.55542,0.335545 3.837821,0.541523 0.854442,0.137239 1.741133,0.715076 2.658882,0.857409 1.250659,0.19396 3.149328,-0.03533 4.28933,0.4964 0.711086,0.331671 5.091358,1.566193 5.31777,2.278912 0.552887,1.740413 3.615386,1.603142 3.285974,3.677859 -0.10515,0.662266 -1.197697,1.702179 -1.630447,2.211224 -0.344971,0.405794 0.274958,1.122233 -0.07525,1.421497 -0.777886,0.664729 -1.933374,0.71741 -2.709048,1.376374 -0.670301,0.569444 -1.285962,1.272553 -1.981623,1.872773 -0.581938,0.5021 -0.556184,1.238039 -1.053513,1.759956 -0.351009,0.368363 -0.849868,0.546801 -1.204029,0.925105 -0.47525,0.50765 -0.757399,1.505227 -1.329444,1.872765 -1.560922,1.00289 -3.263241,1.736934 -4.941509,2.504552 -0.961892,0.439957 -1.703792,1.226179 -2.633794,1.692267 -2.470309,1.238035 -4.987804,2.158087 -7.625477,2.88813 -0.968878,0.268163 -1.86358,0.786054 -2.859551,0.992794 -1.165643,0.241959 -2.383329,0.242265 -3.53682,0.518956 -1.782424,0.427559 -3.043917,1.656231 -4.565253,2.52711 -0.639416,0.366029 -1.636392,0.451974 -2.382957,0.541522 -2.499418,0.2998 -3.570904,0.422281 -5.744194,-1.128167 -0.89517,-0.638625 -1.840018,-1.667825 -2.809383,-2.166094 -0.58095,-0.298616 -1.454745,-0.297746 -1.981618,-0.67691 -0.820586,-0.590528 -1.368136,-1.326089 -2.332796,-1.759952 -1.444969,-0.649886 -2.871018,-0.491707 -4.264247,-1.376376 -0.43679,-0.27735 -2.360656,-0.807254 -2.734135,-0.135385 -0.532636,0.958191 2.3319,2.686005 2.88464,2.843012 2.207641,0.627078 3.893751,2.008997 5.418098,3.722973 0.545642,0.613518 0.979678,1.151144 1.806038,1.398947 0.380764,0.114181 1.251749,0.554681 1.15385,1.083048 -0.295328,1.593938 -2.214779,2.505295 -3.235806,3.565022 -2.852,2.960103 -5.999175,-1.550683 -8.578663,-2.324041 -0.750662,-0.225057 -8.750518,-0.07963 -9.456591,0.767162 -0.554022,0.664435 -1.267259,1.438341 -1.680617,2.256352 -0.993609,1.9663 2.002387,0.72168 3.010058,0.8123 0.638492,0.0574 1.162008,0.61696 1.806031,0.65434 1.024917,0.0595 0.728623,-0.1952 2.357879,-0.3159 0.583842,-0.0433 0.07259,0.40534 0.301007,0.47383 0.280792,0.0842 0.697514,-0.0653 0.953182,0.0451 0.193343,0.0835 -0.02448,0.42262 0,0.63179 0.012,0.10254 0.198003,0.005 0.225753,0.0451 0.506022,0.72829 -0.0705,1.78557 -0.551843,2.39173 -1.831897,2.30697 -4.705233,3.35689 -6.571956,5.59576 -0.187763,0.2252 -1.10975,0.87525 -1.053517,1.12818 0.116735,0.52506 0.533475,1.18249 0.928099,1.60201 1.632417,1.73541 6.616064,-1.27782 8.45324,-1.96303 1.436875,-0.5359 3.315857,-0.59553 4.640505,-1.35381 1.501971,-0.8598 3.067267,-1.33951 4.791006,-1.78252 0.129649,-0.0333 3.234312,-0.75261 3.411398,-0.47384 0.06957,0.10951 -0.04397,0.34589 0.02508,0.42872 0.23155,0.27774 0.936114,0.35064 1.204024,0.63177 1.167521,1.22515 2.98497,2.53679 2.98497,4.30963 0,0.54715 -0.594894,1.02142 -0.877929,1.4215 -0.216969,0.30671 -0.136364,0.89278 -0.401341,1.26356 -0.200719,0.28086 -1.286045,1.39025 -1.580283,1.60201 -0.658513,0.47393 -1.411266,2.70527 -1.98162,3.47478 -0.165246,0.22295 0.321672,-0.45419 0.451509,-0.69946 0.136559,-0.25796 -0.342718,-0.47293 -0.526762,-0.69947" />
    <path
       style="fill:none;stroke:#000000;stroke-width:0.264583px;stroke-linecap:butt;stroke-linejoin:miter;stroke-opacity:1"
       d="m 38.929712,111.84715 c 0.354741,1.60267 1.180491,3.04926 1.496321,4.67151 0.207843,1.06758 0.149614,2.17717 -0.156818,3.22212 -0.166888,0.5691 -0.372316,1.12771 -0.454629,1.71958 -0.09719,0.69882 -0.24147,1.40577 -0.620976,2.01621 -0.351715,0.56574 -0.672399,1.15162 -0.868959,1.79454 -0.372994,1.22002 -0.587044,2.54791 -1.413583,3.56937 -1.101123,1.3608 -2.794822,2.07508 -3.947681,3.37066 -0.889953,1.00013 -1.090943,2.38532 -1.876282,3.46124 -1.093707,1.49839 -2.332034,2.94555 -2.996152,4.70386 -0.373018,0.9876 -0.456864,2.1652 0.11145,3.09333 0.258968,0.42293 0.574896,0.88891 1.098502,0.99477 0.940488,0.19015 1.924018,0.0189 2.80281,-0.30758 0.491873,-0.18276 1.021636,-0.0669 1.527079,-0.14947 0.463959,-0.0758 0.829956,-0.39777 1.228982,-0.62347 0.32803,-0.18554 0.664611,-0.25009 1.09878,-0.17071 0.315697,0.0577 0.65067,-0.11926 0.935583,-0.25613 1.326072,-0.63705 2.481088,-1.61629 3.382079,-2.76856 0.642489,-0.82167 1.273386,-1.76338 1.315614,-2.83667 0.03892,-0.98924 -0.378786,-1.99414 -0.03711,-2.96731 0.42869,-1.221 1.27742,-2.23138 1.73714,-3.44297 0.546461,-1.44019 0.997558,-2.9551 1.004096,-4.50169 0.01061,-2.50941 -0.335933,-5.00456 -0.786736,-7.46451 -0.149217,-0.81425 -0.661032,-1.5321 -0.652226,-2.38668 0.01473,-1.42936 0.389683,-2.84174 0.962538,-4.13921 0.252039,-0.57085 0.449844,-1.19329 0.866899,-1.66407 0.766153,-0.86485 1.759898,-1.48727 2.739941,-2.07924 1.152559,-0.69617 2.401846,-1.21642 3.565748,-1.89154 0.650036,-0.37705 1.251315,-0.83007 1.942158,-1.14311 1.425646,-0.64599 2.888215,-1.21762 4.219963,-2.064 1.377111,-0.87521 2.76578,-1.81077 4.344075,-2.2553 1.135807,-0.3199 2.300585,-0.45396 3.440947,-0.83854 0.368723,-0.12435 0.405836,-0.49035 0.405485,-0.831427 -3.42e-4,-0.332625 0.01369,-0.6621 0.16799,-0.972337 0.27425,-0.551427 0.574818,-1.091921 0.91594,-1.603946 0.68514,-1.028397 1.71448,-1.748344 2.465532,-2.727271 0.597486,-0.778768 0.976235,-1.736202 1.69101,-2.408375 0.622123,-0.585043 1.460198,-0.830861 2.156613,-1.313937 1.642897,-1.139615 3.283024,-2.343046 5.202582,-3.00167 0.775792,-0.266184 1.607162,-0.177795 2.405634,-0.301847 1.09834,-0.17064 2.129074,-0.717744 3.261932,-0.675422 0.552348,0.02063 1.098076,-0.07899 1.619475,-0.264214 1.607363,-0.570993 3.08217,-1.48775 4.361772,-2.596356 0.452646,-0.392158 0.87715,-0.960041 1.53577,-0.957768 0.992774,0.0034 1.96727,0.265615 2.899886,0.580445 0.957161,0.323116 1.874013,0.754399 2.779158,1.217533 0.3586,0.183484 0.292542,0.627899 0.313549,0.963763 0.0292,0.466929 -0.109242,0.971004 0.07456,1.403883 0.157786,0.371608 0.573444,0.629781 0.538919,1.0831 -0.04424,0.580832 -0.42178,1.050909 -0.553316,1.615696 -0.203622,0.87431 -0.128351,1.892743 -0.70119,2.60892 -0.376383,0.470563 -0.746526,0.947249 -1.079731,1.45204 -0.413393,0.626273 -0.715966,1.315209 -0.948733,2.028786 -0.369763,1.133558 -0.778669,2.258738 -1.051504,3.419186 -0.361552,1.537788 -0.19595,3.176098 -0.789603,4.665158 -0.361106,0.90576 -1.233839,1.4384 -1.828015,2.17066 -0.789137,0.97253 -1.01952,2.25113 -1.519698,3.37991 -0.181411,0.4094 0.0266,0.81902 0.04747,1.24606 0.02298,0.47033 -0.04089,0.9429 -0.06508,1.41384 -0.065,1.26531 -0.160444,2.53031 -0.377828,3.78036 -0.384648,2.21189 -0.828928,4.43093 -1.620756,6.53479 -0.346082,0.91953 -0.738641,1.85647 -1.461664,2.55676 -0.841398,0.81494 -1.75192,1.59076 -2.798092,2.11022 -0.408531,0.20285 -0.860904,0.33962 -1.17733,0.70611 -2.45088,2.83865 -5.14958,5.48492 -8.160075,7.7142 -1.385656,1.02608 -3.148569,1.45672 -4.418974,2.64581 -0.946173,0.88561 -2.055603,1.63497 -2.805453,2.69378 -0.688636,0.97237 -1.175608,2.13816 -2.169711,2.85472 -1.128852,0.81369 -2.625209,0.89416 -3.689903,1.84287 -0.324995,0.28959 -0.499387,0.7187 -0.456552,1.15734 0.05197,0.53217 0.185964,1.12327 -0.149937,1.60227 -0.216104,0.30817 -0.545121,0.53841 -0.945855,0.53866 -0.619275,3.8e-4 -1.233612,-0.12286 -1.857117,0.002 -1.821775,0.36463 -3.670714,0.7197 -5.378588,1.45906 -0.517267,0.22393 -1.096003,0.41935 -1.460073,0.86851 -0.2409,0.2972 0.06086,0.64228 0.304418,0.82279 0.806367,0.59761 1.774905,0.90937 2.615164,1.45354 0.403154,0.26109 0.07581,0.72801 -0.07932,1.05936 -0.241093,0.51494 -0.665618,0.91451 -1.159509,1.1924 -1.11539,0.62758 -2.428406,0.8168 -3.486147,1.57079 -1.457498,1.03895 -2.616151,2.68451 -2.662754,4.51076 -0.0121,0.47417 -0.0687,1.00397 0.177736,1.41204 0.221399,0.36661 0.718797,0.29814 1.071706,0.21088 0.685204,-0.16943 1.349767,-0.41132 2.042783,-0.55599 2.077084,-0.43359 4.216147,-0.71707 6.332547,-0.52653 0.580682,0.0523 1.212202,0.009 1.730571,0.28229 0.570794,0.3008 0.684793,1.13813 1.260487,1.37134 0.393245,0.1593 0.968104,-0.15097 1.231137,0.2736 0.24609,0.39722 0.647602,0.35992 1.029313,0.0983 1.222349,-0.83779 2.417983,-1.7547 3.368082,-2.89377 0.362634,-0.43476 0.925572,-0.88471 0.870089,-1.46744 -0.03256,-0.34198 -0.520204,-0.29545 -0.782124,-0.32207 -0.316494,-0.0322 -0.764839,-0.22992 -0.637054,-0.61783 0.253756,-0.77032 0.948192,-1.26683 1.577556,-1.72045 2.299144,-1.65713 4.99174,-2.64527 7.394342,-4.12491 1.056734,-0.65079 2.01157,-1.46635 3.164013,-1.96275 1.243365,-0.53556 2.564757,-0.98759 3.577517,-1.93535 0.688188,-0.64402 1.398591,-1.26614 2.204855,-1.76861 1.499147,-0.93428 2.799591,-2.33185 4.506438,-2.78936 0.382739,-0.10259 0.581739,-0.42885 0.8068,-0.74295 0.22952,-0.32032 0.355473,-0.78438 0.729575,-0.94383 0.413066,-0.17606 0.80257,-0.3707 1.097092,-0.75178 0.256026,-0.33127 0.85334,-0.56281 0.789358,-0.98556 -0.03427,-0.22642 -0.238841,-0.21038 -0.153792,0.058 0.684978,2.16168 1.12822,4.41866 1.149148,6.67742 0.0045,0.48666 -0.0135,0.9738 0.119013,1.45529 0.401994,1.46067 0.427974,2.99441 0.279222,4.49589 -0.135567,1.36839 -0.228817,2.73749 -0.226368,4.12043 0.0013,0.7431 -0.155186,1.49665 0.07953,2.23061 0.233675,0.7307 0.516736,1.44427 0.654662,2.20648 0.334957,1.85105 0.564481,3.73584 1.138189,5.5274 0.206483,0.6448 0.550539,1.23679 0.670432,1.91571 0.137025,0.77593 0.426429,1.52161 0.530687,2.30109 0.09986,0.74663 -0.390164,2.91725 -0.0455,2.23632 0.461159,-0.91109 0.769468,-1.88701 1.023319,-2.87428 0.326804,-1.271 0.730883,-2.57167 1.614176,-3.58606 0.728205,-0.83628 1.603003,-1.60049 1.983284,-2.68219 0.69465,-1.97592 0.855462,-4.0817 1.146203,-6.14246 0.138744,-0.98341 0.210375,-1.98887 0.556952,-2.92923 0.280421,-0.76086 0.502981,-1.54884 0.526121,-2.36718 0.0529,-1.87183 -0.40821,-3.72321 -1.0739,-5.45867 -0.475353,-1.23924 -0.914174,-2.55497 -1.800194,-3.54639 -0.502091,-0.56182 -1.382866,-0.40242 -1.924453,-0.92715 -0.916803,-0.88826 -1.102702,-2.24171 -1.974386,-3.17341 -0.796732,-0.85159 -1.905607,-1.4911 -2.350585,-2.60467 -0.277185,-0.69366 -0.233868,-1.463 -0.255323,-2.19866 -0.01842,-0.63144 0.465631,-1.09988 0.878514,-1.50199 0.329907,-0.3213 0.364561,-0.79802 0.529111,-1.2078 0.194623,-0.48467 0.508636,-0.91219 0.792634,-1.34834 1.092786,-1.67823 2.41875,-3.19714 3.476094,-4.89651 0.460234,-0.73969 0.689801,-1.59087 1.206753,-2.30885 1.337959,-1.85826 2.378815,-3.91634 3.202575,-6.04023 0.30928,-0.79741 0.37932,-1.65444 0.60633,-2.47781 0.75015,-2.72085 1.51378,-5.52052 1.36887,-8.34422 -0.0307,-0.59822 -0.217,-1.17673 -0.15508,-1.78803 0.15372,-1.51756 0.34526,-3.04209 0.7567,-4.51136 0.22314,-0.79684 0.85633,-1.396 1.57258,-1.783142 0.8113,-0.438521 1.8327,-0.597636 2.41914,-1.35144 0.7144,-0.918283 1.14842,-2.088206 2.14338,-2.767566 0.48615,-0.331945 1.08471,-0.356466 1.62277,-0.569566 0.60078,-0.237942 1.23563,-1.09763 1.78623,-0.758383 0.34128,0.210277 0.73368,0.158979 1.10528,0.07169 0.61488,-0.144439 1.24561,-0.269124 1.88311,-0.166008 0.81072,0.131135 1.61179,0.381455 2.44907,0.290351 1.42509,-0.155063 2.80028,-0.559337 4.19797,-0.867556 1.58744,-0.350062 2.82183,-1.602144 4.45127,-1.832887 0.47353,-0.06706 0.98172,-0.2942 1.43074,-0.129799 0.36673,0.134273 0.69552,-0.01813 1.03606,-0.183426 1.28307,-0.622801 2.83671,-0.816928 3.8728,-1.829972 0.69359,-0.678159 1.6972,-0.797761 2.60422,-0.954589 0.73805,-0.127612 1.39244,-0.508852 2.00123,-0.928452 1.32429,-0.912754 2.50805,-2.065548 4.04563,-2.646767 0.66589,-0.251712 1.4751,-0.10964 2.05156,-0.56046 0.18923,-0.147987 0.55483,-0.573659 0.75849,-0.225262 0.30372,0.519561 0.58209,1.121992 1.12501,1.42419 0.48826,0.271771 1.1743,0.255001 1.51142,0.733006 0.35415,0.50215 0.0199,1.116383 0.18583,1.67114 0.21557,0.720694 0.44318,1.44038 0.73451,2.133378 0.47376,1.126963 1.47129,2.010891 1.66964,3.252971 0.38442,2.407265 -0.18078,4.826716 -0.73241,7.166711 -0.17731,0.75214 -0.47611,1.47894 -0.56853,2.2479 -0.10539,0.87685 -0.0854,1.80657 -0.54105,2.59967 -0.71648,1.24714 -1.75781,2.30253 -2.34014,3.61968 -0.23768,0.5376 -0.20831,1.14596 -0.18454,1.71914 0.0293,0.70615 0.008,1.41524 -0.14085,2.11075 -0.41252,1.92893 -0.95891,3.82627 -1.48463,5.72773 -0.14461,0.52304 -0.41178,0.99582 -0.71394,1.44393 -1.07989,1.60152 -2.50391,2.9721 -3.38853,4.69859 -0.48617,0.94885 -0.69395,2.01326 -0.82151,3.06219 -0.1722,1.41596 -0.25377,2.84114 -0.45735,4.25417 -0.25783,1.78955 -0.47107,3.59767 -0.3322,5.41258 0.10893,1.42362 0.34043,2.9107 -0.13304,4.28969 -0.41384,1.20531 -1.37337,2.13071 -2.377,2.86798 -1.70834,1.25495 -3.66945,2.1709 -5.1684,3.70915 -1.97913,2.03102 -3.28162,4.5931 -5.06183,6.77988 -0.84266,1.03511 -1.85757,1.91175 -2.66406,2.98348 -1.05254,1.3987 -2.09438,2.8054 -3.16046,4.19393 -0.91915,1.19715 -2.11798,2.24834 -2.64966,3.67968 -0.27838,0.74943 -0.10027,1.56035 -0.3305,2.33053 -0.42691,1.42812 -1.14122,2.8446 -1.09013,4.33918 0.009,0.26827 -0.12033,1.05373 0.18844,0.8944 0.65939,-0.34026 1.12599,-0.94057 1.6698,-1.43019 0.61656,-0.55512 1.42923,-0.82217 2.25461,-0.89791 0.36312,-0.0333 1.00145,-0.36371 1.10938,0.17379 0.10794,0.53757 -0.15843,1.06146 -0.37336,1.53723 -0.22211,0.49167 -0.48799,0.96565 -0.59291,1.50531 -0.11265,0.57941 -0.21508,1.19541 0.009,1.77465 0.53561,1.38645 1.2591,2.70317 1.69686,4.12402 0.13363,0.43373 0.57957,0.0216 0.75392,-0.15808 0.25833,-0.26618 0.62804,-0.33921 1.00138,-0.26714 0.53431,0.10315 1.0116,-0.25104 1.40996,-0.55435 0.74905,-0.57032 1.4281,-1.23104 2.26899,-1.68455 0.72518,-0.39111 1.60335,-0.65621 2.08497,-1.3437 0.59165,-0.84455 0.65007,-1.93175 0.57107,-2.9287 -0.0626,-0.78999 -0.0818,-1.58197 -0.01,-2.37591 0.072,-0.79676 -0.0591,-1.64139 0.25358,-2.39067 0.29765,-0.71329 0.80244,-1.31498 1.0213,-2.0755 0.34042,-1.18293 0.60018,-2.45521 1.40719,-3.42642 0.73446,-0.88389 1.8815,-1.24391 2.9708,-1.47416 2.06549,-0.43659 4.18399,-0.46545 6.28545,-0.58037 1.18005,-0.0645 2.39459,-0.38533 3.55378,-0.0536 1.05724,0.30256 1.8664,1.14064 2.95305,1.38528 1.01679,0.22891 2.08315,0.42633 3.117,0.22744 0.75888,-0.14599 1.43079,-0.66998 2.24274,-0.57917 0.6327,0.0708 1.32323,0.45683 1.90791,0.16905 0.34689,-0.17074 0.63558,-0.44614 0.91711,-0.70838 0.52019,-0.48454 1.07416,-0.96631 1.4241,-1.59407 0.20652,-0.37048 -0.16362,-0.70366 -0.49003,-0.828 -0.92519,-0.35243 -1.93318,-0.48074 -2.9101,-0.42703 -0.58969,0.0324 -1.06299,-0.35764 -1.58269,-0.57144 -1.22937,-0.50576 -2.52891,-0.99811 -3.46322,-1.9891 -0.53982,-0.57257 -1.10269,-1.15976 -1.43153,-1.87284 -0.19791,-0.42916 -0.18812,-0.98475 -0.61518,-1.284 -0.52564,-0.36833 -1.28357,-0.44574 -1.65232,-0.98341 -0.30492,-0.4446 0.48459,-0.3936 0.72589,-0.53443 0.40567,-0.23676 0.3167,-0.78192 0.69436,-1.0714 0.47682,-0.36548 1.1632,-0.54901 1.41744,-1.13319 0.19008,-0.43676 -0.1813,-0.83034 -0.52991,-1.06123 -0.47995,-0.31788 -1.13557,-0.47656 -1.39641,-1.03215 -0.5421,-1.15467 -0.947,-2.36887 -1.33452,-3.58207 -0.29785,-0.93248 -0.61174,-1.87004 -0.68618,-2.85498 -0.16398,-2.1696 0.39703,-4.30826 1.02446,-6.3641 0.63196,-2.07067 1.42103,-4.12282 1.67053,-6.27721 0.074,-0.63862 -0.0968,-1.29903 0.18353,-1.92116 0.5763,-1.27899 1.53857,-2.40872 1.80734,-3.80368 0.14103,-0.73197 -0.10135,-1.51386 0.22012,-2.21593 0.39292,-0.85811 0.71713,-1.77703 1.31229,-2.50956 0.29922,-0.36828 0.69338,-0.65252 0.89751,-1.10416 0.46139,-1.02082 0.55107,-2.19981 1.25342,-3.11591 0.48082,-0.62715 1.20762,-0.96127 1.82811,-1.42853 0.67648,-0.50942 1.31295,-1.19785 2.18439,-1.31744 0.9646,-0.13238 1.93647,0.0179 2.90164,0.0705 0.41488,0.0226 0.89826,0.13615 1.09533,0.55019 0.38606,0.81111 0.49697,1.71762 0.60792,2.59893 0.1342,1.06599 0.22085,2.13856 0.45972,3.19001 0.33822,1.48874 0.98891,2.88269 1.42361,4.34278 0.18233,0.61242 0.22475,1.28432 0.62134,1.81722 0.72173,0.96979 1.80851,1.56599 2.833,2.16245 0.89788,0.52275 1.91339,0.9145 2.63676,1.66885 0.4384,0.45717 0.65643,1.06342 1.08202,1.54026 0.86633,0.97066 1.99642,1.72026 2.68787,2.82902 0.39493,0.63328 0.62577,1.38413 1.22952,1.87505 0.5335,0.4338 1.08844,0.83786 1.55796,1.35135 1.07158,1.17193 2.11508,2.46697 3.59776,3.13587 0.78521,0.35424 1.64163,0.59714 2.50105,0.58903 0.43531,-0.004 0.61343,-0.46319 0.78909,-0.78355 0.82275,-1.5005 1.03631,-3.30758 0.63642,-4.95612 -0.11442,-0.47169 -0.15728,-0.98873 -0.42766,-1.39759 -0.59257,-0.89607 -1.66657,-1.29269 -2.30963,-2.1508 -0.49898,-0.66585 -0.92112,-1.38826 -1.51653,-1.98316 -1.50295,-1.50166 -3.4143,-2.55714 -4.82777,-4.14025 -0.79888,-0.89476 -1.26686,-2.0206 -1.75689,-3.10001 -0.71005,-1.56405 -1.29553,-3.22539 -2.37349,-4.58087 -2.07133,-2.60459 -5.00032,-4.4321 -6.84931,-7.21695 -0.58586,-0.88239 -0.71141,-2.02114 -1.50021,-2.78419 -0.67817,-0.65603 -1.67419,-1.00996 -2.10539,-1.89695 -0.31196,-0.6417 -0.18627,-1.36835 -0.19909,-2.05401 -0.0256,-1.36823 -0.16214,-2.764341 -0.75989,-4.031334 -0.22781,-0.482868 -0.65025,-0.968457 -0.5711,-1.505409 0.0823,-0.558225 0.19436,-1.161371 0.55444,-1.597912 0.19288,-0.233836 0.44408,0.130368 0.59272,0.265635 0.27205,0.247572 0.5449,0.489879 0.85908,0.687478 0.92144,0.579528 1.84289,1.159056 2.76433,1.738584"
       id="path87"
       inkscape:path-effect="#path-effect89"
       inkscape:original-d="m 38.929712,111.84715 c 0.317867,1.45977 1.100965,2.75271 1.404688,4.19682 0.369004,1.75451 0.278138,2.75199 -0.301003,4.44502 -0.289181,0.84538 -0.222475,1.75609 -0.627091,2.59479 -0.249058,0.51626 -0.667782,1.06641 -0.877938,1.60202 -0.443884,1.13128 -0.558969,2.28882 -1.128766,3.40709 -0.860697,1.6892 -2.991244,2.72909 -4.314414,3.99373 -0.89688,0.85721 -1.120172,2.33534 -1.806038,3.31685 -1.563878,2.238 -5.151929,5.95985 -2.583627,8.73207 0.7519,0.81161 2.876563,0.15325 3.662232,-0.0451 0.514718,-0.12996 1.063075,0.0342 1.555195,-0.15793 0.211878,-0.0827 1.384144,-0.89913 1.7057,-0.83485 0.561162,0.11218 0.19332,0.24188 0.802679,0.0451 1.951414,-0.63011 4.838057,-3.41592 5.142185,-5.48292 0.161941,-1.10064 -0.379484,-2.14269 -0.02508,-3.22658 0.341209,-1.04356 1.08725,-1.95993 1.530106,-2.95583 0.644687,-1.44977 1.229114,-3.58484 1.229114,-5.18961 0,-2.32021 -0.45857,-4.94702 -0.777597,-7.24288 -0.103545,-0.74517 -0.600593,-1.42352 -0.652179,-2.1661 -0.119893,-1.72594 0.758936,-4.27602 1.580274,-5.75369 0.780045,-1.40338 4.733041,-3.45399 6.321118,-4.19681 0.606531,-0.28371 1.1064,-0.73936 1.705703,-1.03793 1.37451,-0.68478 3.001769,-1.19203 4.289327,-2.03071 1.366649,-0.89021 2.952228,-1.86822 4.515088,-2.43687 1.115975,-0.40605 3.099204,-0.32019 3.988318,-1.15073 0.111514,-0.10417 0.06049,-1.0704 0.100341,-1.195868 0.178602,-0.5623 0.572685,-1.107289 0.85285,-1.624578 0.599323,-1.106591 1.525989,-1.700176 2.307704,-2.617364 0.732644,-0.85961 1.314582,-1.875325 1.981623,-2.775313 0.354372,-0.478123 1.467982,-0.88003 1.93145,-1.195866 1.821217,-1.241079 3.7929,-2.868002 6.020118,-3.339402 0.674161,-0.142687 1.396455,-0.07093 2.081956,-0.203073 0.811199,-0.156366 1.594612,-0.504684 2.408044,-0.609211 0.588767,-0.07565 1.171384,0.02392 1.755865,-0.135384 1.729862,-0.47152 3.358195,-1.588077 4.765923,-2.662494 0.436669,-0.333278 0.742019,-0.793793 1.279271,-0.992794 1.042887,-0.386286 5.444945,1.084824 6.245868,1.895332 0.198919,0.201301 0.08276,1.809528 0.175583,2.143535 0.09828,0.353613 0.502484,0.592445 0.551847,0.947672 0.07621,0.548375 -0.294423,0.978495 -0.451506,1.466627 -0.272495,0.84676 -0.313013,2.444737 -0.928103,3.136329 -0.582007,0.654394 -1.379667,1.8483 -1.680615,2.685058 -0.421388,1.171641 -0.801597,2.516147 -1.178938,3.722975 -0.510844,1.633809 -0.175617,3.959899 -1.128774,5.460369 -0.391384,0.61613 -0.960932,1.04423 -1.454856,1.55688 -0.870402,0.90341 -1.43325,2.68073 -1.730788,3.85837 -0.100668,0.39845 0.177948,0.7354 0.150506,1.10561 -0.07647,1.03171 -0.115308,2.06227 -0.200671,3.0912 -0.196323,2.36644 -1.554839,9.05008 -3.010058,10.64998 -0.841296,0.92495 -1.939457,1.68288 -2.984971,2.36916 -0.34703,0.22779 -0.927844,0.33139 -1.204018,0.65434 -2.412868,2.8216 -5.170125,5.34085 -8.076983,7.69417 -1.36878,1.10812 -3.359828,1.6266 -4.615421,2.79788 -0.404979,0.37778 -2.573713,2.33174 -2.884638,2.79787 -0.598663,0.89751 -1.13628,2.03644 -2.031791,2.70762 -1.244727,0.93291 -3.027029,0.86902 -3.988327,2.16609 -0.6706,0.90484 0.516446,1.92656 -0.777597,2.88814 -0.404135,0.30031 -1.45954,-0.0259 -2.03178,0.0677 -1.249201,0.20433 -6.406425,1.32224 -7.199056,2.39173 -0.701458,0.94647 2.861043,1.83163 3.110389,2.50455 0.125412,0.33846 -0.212905,0.6935 -0.376256,1.01536 -0.673884,1.32783 -2.828936,1.56683 -3.963239,2.21123 -2.098037,1.19189 -3.72899,3.65581 -3.110389,6.15983 0.192326,0.77852 1.53529,0.21882 2.132121,0.0451 2.366177,-0.68861 6.571255,-1.1299 8.929833,-0.5641 0.602028,0.14442 1.026853,1.08165 1.379612,1.39895 0.223064,0.20064 0.780997,-0.0319 1.103688,0.15793 0.206883,0.12168 0.518017,0.63773 0.827762,0.47383 0.981771,-0.51948 4.615418,-3.39832 4.615418,-4.64808 0,-0.44938 -2.452082,0.1453 -0.95318,-1.6697 0.135184,-0.1637 0.484116,-0.4603 0.677257,-0.60921 2.271776,-1.7516 5.046556,-2.91078 7.550224,-4.28706 0.991698,-0.54514 1.856255,-1.34256 2.859553,-1.85021 1.365059,-0.69069 2.821413,-1.00361 3.988326,-2.05329 0.732954,-0.65931 1.326965,-1.2998 2.182294,-1.80508 0.553982,-0.32725 4.696759,-3.02351 4.966589,-3.02351 0.271711,0 0.876083,-1.33765 1.204026,-1.53431 0.333515,-0.20001 0.817303,-0.26106 1.028433,-0.60923 0.258294,-0.42595 1.397534,-1.30867 0.702344,-1.30867 0.718722,2.15729 0.987039,4.43708 1.204371,6.69917 0.0461,0.4798 -0.06174,0.98193 0.07525,1.44406 0.301019,1.01543 0.446232,2.17966 0.426421,3.24915 -0.03321,1.7927 -0.46449,3.64969 -0.32609,5.39267 0.04511,0.56812 -0.136547,1.41167 -0.02509,1.96303 0.156327,0.7733 0.572696,1.54022 0.702353,2.27891 0.339118,1.93205 0.718926,3.81757 1.153853,5.70858 0.149715,0.65094 0.554946,1.19883 0.677266,1.87277 0.14469,0.79718 0.322716,1.56731 0.526752,2.30148 0.217516,0.78268 -0.198441,1.68592 0,2.45942 8.49e-4,0.003 0.406985,-0.82919 0.627101,-1.48919 0.461556,-1.38395 0.652008,-2.87281 1.404689,-4.1517 0.683041,-1.16056 1.982192,-1.987 2.483297,-3.22658 0.931443,-2.3041 1.093523,-5.7371 1.50503,-8.23567 0.143928,-0.87391 0.566972,-1.66113 0.727432,-2.52712 0.55205,-2.97948 -1.093562,-7.48089 -2.734135,-9.90538 -0.38111,-0.56321 -1.361756,-0.4352 -1.881284,-0.90254 -0.881362,-0.79282 -1.065858,-1.9684 -1.730788,-2.86556 -0.765698,-1.03314 -2.412317,-1.95585 -2.7843,-3.29428 -0.148792,-0.53538 -0.19402,-1.56557 -0.125418,-2.12097 0.07351,-0.59513 0.807855,-1.10527 1.103687,-1.60201 0.214944,-0.36091 0.199076,-0.81284 0.401342,-1.15074 1.205532,-2.01394 2.692599,-3.93033 4.063571,-5.84395 0.485037,-0.67702 0.649489,-1.56452 1.128774,-2.21122 1.43344,-1.93416 2.275711,-3.92539 3.311061,-6.13728 0.3211,-0.68599 0.34428,-1.48304 0.55185,-2.21122 0.80356,-2.81902 1.35466,-5.64409 1.47994,-8.57414 0.0255,-0.5961 -0.23019,-1.14792 -0.17558,-1.73739 0.14374,-1.55173 0.36858,-2.94394 0.70234,-4.44501 0.56262,-2.53038 3.17806,-2.163021 4.16391,-3.542469 0.8166,-1.142623 1.37337,-2.674184 2.83447,-2.955821 0.94268,-0.181709 1.6783,-0.722184 2.58363,-1.015358 0.0742,-0.02402 0.36489,0.160896 0.47659,0.157942 0.60724,-0.01606 1.16221,-0.241651 1.75587,-0.293327 0.91701,-0.07982 1.93688,0.397719 2.83447,0.361015 1.4436,-0.05903 2.95689,-0.638035 4.38966,-0.857407 1.55033,-0.237371 2.79128,-1.468567 4.31442,-1.805086 0.53478,-0.118155 1.08436,-0.161268 1.63044,-0.203074 0.26689,-0.02043 0.56937,0.153742 0.80269,0.02257 1.3198,-0.742004 3.26834,-1.134854 4.36458,-2.12097 0.91874,-0.826443 2.47558,-0.651045 3.5619,-1.218432 1.90384,-0.994386 3.24435,-2.798757 5.31776,-3.316832 0.51343,-0.128288 1.36322,-0.143199 1.75588,-0.4964 0.18075,-0.162593 0.55913,-0.483264 0.67725,-0.270762 0.22255,0.400363 0.56419,1.030505 0.97827,1.376374 0.44412,0.370958 1.43754,0.418926 1.73078,0.902543 0.28891,0.476469 -0.005,1.003972 0.12543,1.511759 0.15628,0.609174 0.45309,1.313644 0.65218,1.940462 0.42957,1.352489 1.58773,2.194988 1.80603,3.700409 0.42209,2.910819 -0.44038,5.916657 -1.20403,8.664388 -0.2779,0.99994 -0.0802,2.01663 -0.55185,3.00095 -0.49897,1.0413 -2.40507,3.3775 -2.55854,4.12912 -0.18156,0.88925 0.0139,1.94066 -0.10033,2.86557 -0.1464,1.18519 -1.47452,6.37998 -1.88128,7.13007 -0.98266,1.81206 -3.48782,4.244 -4.11375,6.06959 -0.63732,1.85884 -0.61616,3.70537 -0.85285,5.64088 -0.22169,1.81288 -0.56274,3.52504 -0.52676,5.37011 0.0362,1.85622 0.62602,4.33682 -0.40134,6.06959 -1.48946,2.51213 -4.76057,3.447 -6.87296,5.50549 -2.13573,2.08125 -3.4922,4.55404 -5.21743,6.88187 -0.77944,1.05168 -1.86543,1.89653 -2.6338,2.93326 -1.03197,1.39237 -2.10531,2.74285 -3.11039,4.12913 -0.92831,1.28037 -2.15679,2.46678 -2.85956,3.90348 -0.34694,0.70928 -0.10688,1.51695 -0.32609,2.25635 -0.28059,0.94648 -1.48602,4.6415 -1.10368,5.41525 0.11713,0.23706 1.02376,-0.65244 1.20401,-0.83485 0.89701,-0.9077 1.57263,-1.39274 2.85956,-1.46663 0.33398,-0.0192 0.78103,-0.27253 1.00335,-0.0226 0.53047,0.59644 -0.66388,2.35409 -0.77759,2.86557 -0.12033,0.5412 -0.28846,1.22983 -0.20068,1.7825 0.0317,0.19979 1.76,4.54727 1.93145,4.67066 0.17326,0.12469 0.75733,-0.47013 0.95319,-0.5641 0.53312,-0.25576 0.69806,0.14552 1.30436,-0.11282 0.92668,-0.39484 1.74039,-1.39718 2.60872,-1.91789 0.66973,-0.40162 2.26249,-1.04686 2.65888,-1.75995 0.92771,-1.66891 0.19679,-3.23724 0.42642,-4.94141 0.0875,-0.64947 0.0167,-1.89531 0.25084,-2.52711 0.24181,-0.65256 0.79234,-1.22636 0.97827,-1.89534 0.72189,-2.59743 1.04067,-4.38012 4.03849,-5.05424 2.17764,-0.48968 4.15698,-0.60052 6.37128,-0.65434 1.14312,-0.0278 2.23479,-0.29024 3.4114,-0.15793 1.29983,0.14616 2.02427,1.12332 3.28598,1.44406 0.90326,0.22962 2.2263,0.43261 3.18564,0.27077 0.65264,-0.1101 1.26284,-0.54488 1.90638,-0.60923 0.56484,-0.0565 2.00102,0.45557 2.45821,0.11282 0.58572,-0.4391 1.79028,-1.506 2.1572,-2.16609 0.73903,-1.32953 -3.35311,-1.28867 -3.63714,-1.33125 -0.37328,-0.056 -0.71115,-0.31349 -1.05352,-0.45127 -2.85395,-1.14848 -3.44263,-1.44749 -5.09203,-3.85836 -0.25511,-0.37289 -0.18267,-0.90662 -0.55183,-1.28612 -0.36936,-0.37972 -1.68419,-0.75414 -1.8562,-1.21843 -0.10417,-0.28119 0.5504,-0.24406 0.80268,-0.40614 0.39432,-0.25334 0.26999,-0.65792 0.55183,-0.94767 0.43498,-0.44717 1.70441,-0.80009 1.60537,-1.60201 -0.0943,-0.76338 -1.39584,-0.96528 -1.8562,-1.55688 -0.42072,-0.54066 -1.82338,-4.80333 -1.98162,-5.55063 -0.71553,-3.37925 0.82261,-7.04394 1.7057,-10.22127 0.31043,-1.1169 0.63298,-2.31329 0.82776,-3.45221 0.0817,-0.47782 -0.0936,-1.25822 0.0753,-1.69227 0.45118,-1.15958 1.44551,-2.47401 1.8562,-3.81324 0.29866,-0.97389 -0.12386,-1.58677 0.32609,-2.57224 0.33961,-0.7438 0.78037,-1.58945 1.17893,-2.27891 0.22557,-0.3902 0.66335,-0.61723 0.87794,-1.01536 0.51868,-0.96229 0.55717,-2.07543 1.12877,-3.00094 0.57262,-0.92714 1.06432,-0.97515 1.88129,-1.62458 2.03582,-1.61832 1.92655,-1.63183 4.79101,-1.4215 0.43516,0.032 0.99494,0.006 1.35452,0.29332 0.72966,0.58341 0.91574,3.9482 1.05352,4.85116 0.28782,1.88636 0.91472,3.65506 1.60537,5.41524 0.20583,0.5246 0.20831,1.13769 0.47659,1.64714 0.92054,1.74807 4.06,2.79643 5.59368,4.084 0.40564,0.34055 0.6065,0.96856 0.95319,1.37637 0.84754,0.99697 1.9227,1.83939 2.73412,2.843 0.44956,0.55604 0.61182,1.31145 1.1037,1.82765 0.47522,0.49872 1.11167,0.82192 1.58027,1.33125 1.88266,2.04627 2.97869,3.61114 5.89469,3.97118 0.4927,0.0608 0.73776,0.10681 1.00337,-0.3159 1.26961,-2.02057 1.30472,-4.26354 0.602,-6.47572 -0.27054,-0.85167 -1.5062,-1.43559 -2.10704,-2.05328 -0.60811,-0.62516 -0.98943,-1.47449 -1.58027,-2.0984 -1.48086,-1.56375 -3.38313,-2.81676 -4.9666,-4.28708 -1.54716,-1.4366 -2.58293,-5.71812 -4.31442,-7.87467 -2.03589,-2.53569 -4.80894,-4.38625 -6.72245,-7.03981 -0.47926,-0.66461 -0.65286,-1.47073 -1.02844,-2.18866 -0.79249,-1.51484 -2.85955,-1.58556 -2.85955,-3.54247 0,-1.33341 0.0284,-3.062148 -0.40135,-4.332195 -0.25979,-0.767844 -0.75298,-1.423488 -0.92809,-2.211224 -0.0726,-0.326419 0.4828,-1.953199 0.70235,-1.805077 0.35538,0.23975 0.65217,0.556561 0.97825,0.834842 1.02844,0.64682 2.05688,1.293641 3.08532,1.940462" />
    <path
       style="fill:none;stroke:#000000;stroke-width:0.264583px;stroke-linecap:butt;stroke-linejoin:miter;stroke-opacity:1"
       d="m 163.49659,97.110954 c -1.48832,-0.05824 -3.01158,0.158048 -4.46528,-0.174668 -0.23996,-0.05492 -0.33698,-0.319057 -0.41885,-0.522406 -0.18099,-0.449525 -0.1749,-0.969684 -0.41782,-1.387592 -0.37912,-0.652221 -0.95619,-1.178741 -1.28374,-1.858058 -0.29891,-0.619916 -0.12465,-1.326575 -0.31173,-1.977981 -0.51032,-1.776897 -0.87072,-3.611776 -0.91087,-5.456689 -0.0208,-0.956739 0.5146,-1.845216 0.42377,-2.804111 -0.0883,-0.932552 -0.59503,-1.746547 -1.02298,-2.555499 -0.38604,-0.72973 -0.7035,-1.522897 -0.70628,-2.364258 -0.004,-1.282191 0.49296,-2.513598 0.41212,-3.803212 -0.0173,-0.27549 -0.10084,-0.539967 -0.2465,-0.777695 -0.41845,-0.682933 -1.03755,-1.231331 -1.40931,-1.939472 -0.86758,-1.652598 -1.86624,-3.232387 -2.6903,-4.909696 -0.27812,-0.566091 -0.64954,-1.102563 -0.79139,-1.721369 -0.28796,-1.256184 -0.51118,-2.52623 -0.74017,-3.79417 -0.16856,-0.933327 -0.93987,-1.963285 -0.4964,-2.801646 0.15974,-0.301981 0.30659,-0.619975 0.30764,-0.972881 0.003,-0.937941 -0.25715,-1.84928 -0.34572,-2.779105 -0.0728,-0.763988 -0.0935,-1.621159 0.37587,-2.262156 0.92419,-1.26222 2.22107,-2.188203 3.55938,-2.968035 1.67969,-0.978752 3.45251,-1.826065 4.95972,-3.074889 1.87495,-1.553516 3.47717,-3.439812 5.52593,-4.775978 0.92734,-0.604796 2.08753,-0.774631 2.94938,-1.490765 0.86967,-0.722632 1.47515,-1.723525 2.43928,-2.344975 2.3188,-1.49463 4.74792,-2.80536 7.16849,-4.130065 1.36194,-0.745349 2.44703,-1.905903 3.84618,-2.595475 2.06645,-1.018454 4.41457,-1.299048 6.45656,-2.375428 0.57181,-0.301414 1.11229,-0.675222 1.53491,-1.17109 0.48142,-0.56486 0.92327,-1.167585 1.48848,-1.657476 0.71318,-0.618141 1.52558,-1.147669 2.08037,-1.927646 0.39676,-0.557804 0.39652,-1.28434 0.77233,-1.857308 0.79527,-1.212497 1.7351,-2.320678 2.59187,-3.488754 0.52798,-0.71982 1.0784,-1.437519 1.44686,-2.254053 0.10667,-0.236391 -0.11928,-0.445749 0.007,-0.70748 0.83736,-1.729478 2.13129,-3.187086 3.05427,-4.863729 0.30865,-0.56068 0.18207,-1.2637675 0.55513,-1.7999656 0.77199,-1.1095715 1.59736,-2.2051602 2.13927,-3.4434929 0.18724,-0.4278679 0.12871,-0.9730932 0.49341,-1.312589 0.5527,-0.5145069 1.33048,-0.654753 1.95692,-1.0506426 0.32551,-0.2057116 0.61516,-0.4658517 0.88976,-0.7350181 0.17833,-0.1748005 0.26767,-0.4097076 0.27046,-0.6643153 0.004,-0.4105032 0.0343,-0.83142113 -0.067,-1.23182127 -0.0689,-0.27227903 -0.20748,0.0168087 -0.24443,0.12740736"
       id="path91"
       inkscape:path-effect="#path-effect93"
       inkscape:original-d="m 163.49659,97.110954 c -1.48843,-0.05822 -2.98331,-0.02442 -4.46528,-0.174668 -0.47494,-0.04815 -0.68135,-1.656003 -0.85286,-1.940454 -0.36064,-0.598122 -0.83067,-1.124558 -1.20403,-1.714831 -0.37481,-0.592582 -0.152,-1.331325 -0.35116,-2.008158 -0.51807,-1.760617 -0.77386,-3.611218 -0.9281,-5.415243 -0.075,-0.876826 0.42642,-1.869638 0.42642,-2.707616 0,-1.576832 -1.48569,-2.963257 -1.7057,-4.62552 -0.20706,-1.564481 0.63795,-3.174537 0.32609,-4.670644 -0.11662,-0.559491 -1.36611,-1.909041 -1.63045,-2.414299 -0.8158,-1.559333 -1.79553,-3.046564 -2.55854,-4.648087 -0.26253,-0.551042 -0.66118,-1.222121 -0.85286,-1.782511 -0.21557,-0.630235 -1.28201,-6.74093 -1.27926,-6.746491 0.2414,-0.488609 0.33647,-0.584277 0.301,-1.286121 -0.0704,-1.393801 -0.87563,-3.564787 0.12542,-4.851159 2.15097,-2.764044 5.5349,-3.578791 8.22749,-5.753693 1.93245,-1.560904 3.63348,-3.52883 5.69401,-4.918847 0.7405,-0.499534 1.74815,-0.735161 2.53347,-1.195867 1.06891,-0.627078 1.71482,-1.903349 2.78431,-2.594806 2.25366,-1.457055 4.70551,-2.903521 7.09872,-4.106555 1.25876,-0.632762 2.28949,-1.705774 3.51173,-2.414296 2.3693,-1.373471 5.4653,-1.559137 7.70072,-3.091207 0.81781,-0.560493 1.19281,-1.307372 1.88129,-2.008151 0.76387,-0.777529 1.98394,-1.474548 2.55854,-2.414297 0.31227,-0.510722 0.3139,-1.131767 0.65218,-1.669701 1.04596,-1.663325 3.31541,-4.159829 4.08865,-5.821379 0.095,-0.204051 -0.11512,-0.448512 -0.0502,-0.586654 0.80992,-1.722053 2.04489,-3.287118 3.06021,-4.896283 0.39512,-0.626205 0.1845,-1.2855675 0.6271,-1.9178976 0.73317,-1.0474481 1.46485,-2.2292709 2.08195,-3.3394017 0.21343,-0.3839631 0.16039,-0.98586 0.47659,-1.3312468 0.55731,-0.6087406 1.67817,-0.7659124 2.35788,-1.3538123 0.14402,-0.1245658 0.77343,-0.5879971 0.80269,-0.9476656 0.0316,-0.3886949 0.0476,-2.19715049 -0.30101,-1.30868541" />
    <path
       style="fill:none;stroke:#000000;stroke-width:0.264583px;stroke-linecap:butt;stroke-linejoin:miter;stroke-opacity:1"
       d="m 190.18504,2.1197351 c 0.002,0.069624 -0.0139,0.1380264 -0.0268,0.2060166 -0.0138,0.072327 -0.029,0.1448615 -0.0304,0.2189032 -7.2e-4,0.039596 0.0151,0.086602 0.0602,0.097551 0.032,0.00777 0.0738,-0.00717 0.0753,-0.045702 0.002,-0.044737 -0.0149,-0.087448 -0.0298,-0.1288568 -0.0271,-0.075421 -0.0579,-0.1499834 -0.0736,-0.2291301 -0.01,-0.049224 0.006,-0.099199 0.0425,-0.136807 0.21237,-0.2175452 0.46259,-0.3931877 0.71721,-0.5573611 0.31048,-0.200194 0.63323,-0.3842544 0.91959,-0.61908375 0.0555,-0.0454798 0.11137,-0.0912203 0.15726,-0.14683963 0.0959,-0.1161939 0.15765,-0.25595145 0.20673,-0.39718182 0.0762,-0.21922532 0.11906,-0.44829534 0.19181,-0.66851322 0.0343,-0.10370462 0.0742,-0.20750543 0.13846,-0.29679277 0.0652,-0.0905582 0.16544,-0.15072696 0.27141,-0.1817248 0.13475,-0.0394178 0.27654,-0.0410149 0.41582,-0.041962 0.15032,-0.001022 0.3024,0.002869 0.45031,-0.0286677 0.0607,-0.0129506 0.12057,-0.0349818 0.18278,-0.0364777 0.008,-1.9381e-4 0.0393,-3.7239e-4 0.0266,0.0109333 -0.0809,0.072238 -0.16481,0.14138672 -0.24788,0.21122037 -1.12866,0.94879027 -2.29994,1.8450543 -3.44754,2.7704762 z"
       id="path95"
       inkscape:path-effect="#path-effect97"
       inkscape:original-d="m 190.18504,2.1197351 c 0.008,0.1745447 -0.14911,0.532113 0.0254,0.5236343 0.17455,-0.00848 -0.14625,-0.3973763 -0.0254,-0.5236343 0.49328,-0.5155003 1.19141,-0.792229 1.73113,-1.25888609 0.41148,-0.35577129 0.37008,-1.23543471 0.67726,-1.51175448 0.26489,-0.23827825 0.70355,-0.11372998 1.05352,-0.18050775 0.0743,-0.0141735 0.28329,-0.0716199 0.22574,-0.0225613 -1.20171,1.02441186 -2.45843,1.98247312 -3.68765,2.97370962" />
    <path
       style="fill:none;stroke:#000000;stroke-width:0.264583px;stroke-linecap:butt;stroke-linejoin:miter;stroke-opacity:1"
       d="m 278.31073,0.18394497 c 0.31358,1.17893583 0.11766,2.41983373 -0.24187,3.56734773 -0.29382,0.9377964 -0.84021,1.8100068 -0.96552,2.7848861 -0.0499,0.3882175 0.0153,0.7817793 -0.10438,1.167288 -0.26923,0.8673651 -0.75878,1.6721844 -0.81777,2.6000672 -0.0423,0.665622 -0.0436,1.376784 -0.42723,1.955961 -1.02563,1.548337 -2.59458,2.599637 -4.02335,3.741454 -0.76952,0.614969 -1.57652,1.212894 -2.16309,2.0196 -0.71324,0.980911 -1.22585,2.140987 -2.20569,2.903008 -1.40509,1.092735 -3.11501,1.76414 -4.40733,2.998017 -1.48043,1.413478 -2.88145,2.907515 -4.34043,4.342777 -0.80431,0.791236 -1.54669,1.659832 -2.45298,2.333789 -0.32745,0.243507 -0.75043,0.298621 -1.14255,0.35816 -0.6045,0.09179 -1.19711,0.23711 -1.76681,0.482504 -0.2845,0.122547 -0.511,0.341025 -0.78203,0.486735 -0.45985,0.24722 -0.94416,0.461204 -1.44732,0.598512 -0.83984,0.229184 -1.71318,0.348313 -2.50358,0.751563 -1.24155,0.633417 -2.36926,1.49155 -3.67162,1.999533 -0.81788,0.319012 -1.61811,0.665767 -2.3591,1.180422 -0.2382,0.165443 -0.35079,0.442857 -0.56529,0.628387 -0.3152,0.272636 -0.64224,0.554129 -1.06703,0.643781 -0.48742,0.10287 -0.99496,0.161026 -1.42918,0.441429 -1.23831,0.799659 -2.37738,1.741544 -3.61214,2.546913 -0.7468,0.487099 -1.49491,1.023106 -2.36238,1.262078 -0.95603,0.263367 -1.99724,0.247263 -2.87897,0.759982 -1.42462,0.828407 -2.42705,2.177466 -3.66118,3.239074 -2.11558,1.819833 -4.57412,3.192665 -6.64878,5.06712 -0.7206,0.651062 -1.5432,1.237796 -2.05381,2.070869 -0.26194,0.42736 -0.39653,0.930024 -0.79318,1.279738 -1.10068,0.970433 -2.25638,1.902337 -3.11212,3.118435 -0.70495,1.001814 -1.38847,2.076749 -2.41502,2.774992 -0.42971,0.292281 -0.93968,0.504287 -1.48194,0.446766 -0.46175,-0.04898 -0.85527,0.256569 -1.21161,0.502646 -0.3861,0.266627 -0.79293,0.581657 -1.28979,0.565475 -0.56191,-0.0183 -1.10297,-0.193252 -1.64816,-0.315555 -0.94616,-0.212255 -1.86008,-0.58256 -2.65305,-1.153653 -0.48265,-0.347601 -0.99297,-0.679359 -1.59395,-0.791652 -1.20426,-0.225016 -2.45045,-0.380071 -3.6651,-0.188584 -0.55149,0.08694 -1.16596,0.226883 -1.53189,0.691133 -0.83002,1.053022 -1.80234,2.032986 -2.34958,3.269739 -0.17901,0.404559 -0.4244,0.921857 -0.15722,1.3222 0.2211,0.331295 0.64514,0.402705 0.95578,0.62976 0.51017,0.372895 1.00617,0.857304 1.12359,1.507824 0.11588,0.642 0.0418,1.295971 0.0354,1.943644 -0.007,0.709841 -0.0985,1.431679 -0.42598,2.075907 -0.41807,0.822356 -0.99695,1.553632 -1.35135,2.41227 -0.77102,1.868026 -1.20305,3.851521 -1.63447,5.818996 -0.30364,1.384747 -0.22321,2.920877 -0.92865,4.150856 -0.21698,0.378316 -0.62205,0.592559 -0.9707,0.832289 -0.4858,0.334034 -1.0155,0.628503 -1.37747,1.117174 -0.72323,0.976394 -1.08067,2.16118 -1.67969,3.207793 -0.80938,1.414162 -1.94292,2.703682 -2.36303,4.280577 -0.0608,0.228137 -0.38861,0.759294 -0.0791,0.757624 0.34815,-0.0019 0.58697,-0.349164 0.97746,-0.281068 0.67086,0.116988 1.29461,0.413098 1.91394,0.697658 0.31339,0.143992 0.36295,0.503111 0.44061,0.798266 0.27186,1.033273 0.49511,2.082256 0.87352,3.086432 0.20864,0.553665 0.80093,0.7682 1.27001,1.047013 0.4604,0.273651 0.83607,0.663583 1.21609,1.035381 0.51911,0.507882 1.16066,0.961852 1.44427,1.634832 0.2455,0.58256 0.16691,1.23144 0.39762,1.82901 0.57527,1.49002 1.04624,3.07294 2.08415,4.3248 0.53561,0.64602 1.27757,1.05834 1.9811,1.50717 0.59437,0.37919 0.85067,1.20739 1.55718,1.39393 0.41566,0.10975 0.78102,-0.22929 1.01527,-0.52823 0.46342,-0.5914 0.80753,-1.30112 0.89368,-2.0509 0.0657,-0.57216 -0.3239,-1.06029 -0.67485,-1.46415 -0.49841,-0.57356 -1.03583,-1.11374 -1.44163,-1.76702 -0.8449,-1.36017 -1.91111,-2.61043 -2.44781,-4.1409 -0.29778,-0.849156 -0.58143,-1.702123 -0.95445,-2.525292 -1.02945,-2.27173 -1.34118,-4.883428 -0.80502,-7.29637 0.12508,-0.562914 0.42753,-1.069519 0.4698,-1.660937 0.18845,-2.63686 0.84317,-5.213612 1.64496,-7.724497 0.379,-1.186881 0.77264,-2.368769 1.13951,-3.559685 0.39373,-1.278124 0.89355,-2.546499 1.71812,-3.616132 0.43334,-0.562129 0.84617,-1.138595 1.25751,-1.717545 1.24912,-1.758116 3.07201,-3.026134 5.02093,-3.906758 1.40064,-0.632883 2.89544,-1.01002 4.36738,-1.441061 0.49647,-0.145386 1.01229,-0.372084 1.53898,-0.229712 0.64953,0.175579 1.28261,0.48828 1.72632,1.0146 0.71579,0.849062 1.0474,1.997834 1.96357,2.682929 0.78945,0.590335 1.82598,0.769972 2.53674,1.481366 0.41932,0.419691 0.742,0.922161 1.10974,1.385643 0.52082,0.656411 0.81245,1.647595 1.598,1.941935 0.20062,0.07517 0.37756,-0.279091 0.50726,-0.434169 0.77622,-0.928074 1.21035,-2.126934 1.20765,-3.339755 -0.004,-1.585738 -0.54893,-3.107143 -1.17465,-4.540775 -0.32988,-0.75581 -0.82658,-1.474687 -0.84956,-2.329313 -0.0349,-1.297426 0.47539,-2.524333 0.4853,-3.826971 0.0106,-1.390178 0.25348,-2.823692 0.98687,-4.030416 0.30988,-0.509879 0.77265,-0.893303 1.23279,-1.263095 0.97226,-0.781363 1.96629,-1.639496 3.2076,-1.937113 0.45045,-0.108 0.86864,-0.307112 1.25946,-0.558622 2.79729,-1.800176 5.4378,-3.887494 8.48201,-5.26658 1.47402,-0.667759 3.14223,-0.68894 4.65975,-1.204612 0.92577,-0.314587 1.59912,-1.069688 2.48278,-1.477507 1.90488,-0.879123 3.54446,-2.268312 5.47737,-3.07345 0.38037,-0.15844 0.78167,-0.267806 1.103,-0.559753 1.74855,-1.588654 3.01182,-3.993088 5.2522,-4.761023 0.2639,-0.09046 0.53759,-0.06628 0.79998,-0.223625 1.05655,-0.633579 2.20537,-1.153444 3.11457,-1.997273 1.39544,-1.295105 2.27678,-3.025394 3.6527,-4.344135 0.88126,-0.844636 1.90883,-1.513349 2.85771,-2.276255 0.35457,-0.285078 0.73625,-1.069378 1.11044,-0.798196 0.57641,0.417732 1.12847,0.907263 1.80057,1.153265 0.98057,0.358908 2.0403,0.199626 3.05088,0.115015 0.7417,-0.0621 1.48122,0.08182 2.17932,0.3341 1.002,0.3621 1.97096,0.948906 3.06614,0.936917 0.69005,-0.0076 1.34982,-0.289771 1.9273,-0.647249 0.60477,-0.374372 1.008,-1.01301 1.15284,-1.70455 0.22041,-1.05235 0.16863,-2.153074 0.5251,-3.179794 0.395,-1.137692 1.0881,-2.139752 1.47713,-3.283588 0.5949,-1.749159 0.67982,-3.651334 1.39236,-5.353533 0.32666,-0.78036 0.91532,-1.414374 1.50101,-2.008457 0.85552,-0.867777 1.8536,-1.574832 2.77746,-2.367528 0.3023,-0.259381 0.74487,-0.475806 0.82174,-0.876649 0.0595,-0.3101229 -0.4096,-0.3271924 -0.44179,-0.6752157 -0.0768,-0.8306497 0.32001,-1.5977466 0.58012,-2.3626552 0.15682,-0.4611692 0.28798,-0.960337 0.14465,-1.4475485 -0.10707,-0.3639558 -0.17063,-0.7368514 -0.16041,-1.1204201 0.0206,-0.7731868 0.20402,-1.6302912 -0.22554,-2.3202016 -0.16897,-0.2713806 -0.12219,-0.6119594 -0.10025,-0.915031 0.0607,-0.83821475 0.22943,-1.66490727 0.4214,-2.4858196 0.0462,-0.1975676 0.27564,-0.5917058 0.40948,-0.1985212"
       id="path99"
       inkscape:path-effect="#path-effect101"
       inkscape:original-d="M 278.31073,0.18394497 C 278.89004,2.479907 277.783,4.319412 277.1318,6.4114748 c -0.0996,0.3200225 0.007,0.7486713 -0.0752,1.083051 -0.18535,0.7502101 -0.59384,1.4173096 -0.77761,2.1660971 -0.23011,0.9376171 0.0329,1.7632871 -0.55182,2.6399281 -1.33588,2.002703 -3.69337,3.291392 -5.44319,4.896283 -1.14454,1.049736 -1.64785,2.724126 -2.85957,3.677851 -1.33114,1.047734 -2.91815,1.762747 -4.23916,2.843002 -0.95192,0.778438 -6.56496,6.726274 -7.19904,6.994688 -0.70483,0.298358 -1.7066,0.259887 -2.43314,0.586653 -1.47891,0.665157 -0.33767,0.399801 -2.23245,1.128178 -0.64594,0.248309 -1.76823,0.345173 -2.45823,0.67691 -1.23097,0.59183 -2.35589,1.387599 -3.58696,1.985584 -0.78914,0.383315 -1.856,0.598784 -2.55856,1.1733 -0.96637,0.790247 -0.189,0.377822 -1.27926,1.218433 -0.47905,0.369355 -1.27123,0.255132 -1.80605,0.564089 -0.83122,0.480176 -2.24708,1.596985 -3.11039,2.188657 -0.7933,0.543692 -1.7694,1.22696 -2.65887,1.602012 -0.94773,0.399616 -2.08934,0.300615 -3.03514,0.767162 -1.56435,0.771671 -2.83439,2.483641 -4.16393,3.587599 -1.97861,1.642894 -4.27672,2.944474 -6.19568,4.670645 -0.71146,0.639977 -1.60228,1.387004 -2.1823,2.143535 -0.28564,0.372565 -0.39147,0.961332 -0.72743,1.263555 -0.99595,0.895921 -2.25013,1.829924 -3.03514,2.933255 -0.81127,1.140246 -2.05746,3.139697 -3.53682,3.519908 -0.50146,0.128882 -0.64066,-0.146108 -1.20401,0.157943 -1.14341,0.617112 -1.24408,1.137426 -2.53347,0.834851 -1.09729,-0.257498 -2.04188,-0.409829 -3.06023,-0.992794 -0.57235,-0.327649 -1.21556,-0.936114 -1.85621,-1.105611 -1.03415,-0.273611 -4.69976,-0.749557 -5.51843,0.428704 -0.3983,0.573257 -3.33709,3.676724 -2.43312,4.693208 0.13678,0.153805 0.61423,0.33232 0.77759,0.451279 1.14442,0.833353 1.33167,1.342744 1.27928,2.662494 -0.0296,0.746292 0.0316,1.7037 -0.22575,2.436855 -0.32627,0.929402 -0.99831,1.672341 -1.4047,2.549681 -1.28843,2.781543 -1.93779,7.282495 -2.70905,10.28896 -0.13155,0.512813 -1.77403,1.249892 -2.1823,1.759953 -0.80247,1.002575 -1.29417,2.18835 -1.80603,3.339394 -0.14228,0.319955 -2.9243,4.792879 -2.58363,5.099364 0.21415,0.192659 0.5404,-0.228311 0.82777,-0.248195 0.50846,-0.03518 2.05594,0.510292 2.38296,0.902539 0.22242,0.266777 0.66778,3.072614 1.20402,3.926038 0.30802,0.490204 1.0838,0.681572 1.53012,1.083048 0.6795,0.611222 1.72338,1.560799 2.23245,2.324039 0.25369,0.38037 0.178,1.22185 0.35118,1.66971 0.97642,2.52517 1.50178,4.74296 4.03848,6.0019 0.64483,0.32002 0.94641,1.16437 1.63045,1.44406 0.92969,0.38014 2.16181,-2.0856 1.93146,-2.95583 -0.23809,-0.89944 -1.43473,-1.74431 -1.93146,-2.57224 -0.68446,-1.14083 -1.56181,-2.2288 -2.18229,-3.40709 -0.54302,-1.0312 -0.74652,-2.205342 -1.25418,-3.249136 -1.14257,-2.349228 -1.32604,-4.953138 -0.95319,-7.468524 0.0833,-0.562054 0.43661,-1.026443 0.47659,-1.602012 0.24256,-3.491164 1.14486,-6.38865 2.25754,-9.724871 0.51156,-1.533817 0.85465,-3.078457 1.68063,-4.490136 0.45244,-0.773284 1.11043,-1.482542 1.60535,-2.233789 2.11528,-3.21087 5.68631,-4.691251 9.30609,-5.59575 1.19527,-0.298672 1.35183,-0.643551 2.73414,0.02257 1.27368,0.613762 1.58568,2.283735 2.55854,3.158895 1.04548,0.94048 2.19647,0.808767 3.18564,2.143535 0.17862,0.241019 2.28494,3.009887 2.38296,2.910689 2.49467,-2.524641 1.7072,-5.403593 0.4766,-8.32594 -0.28848,-0.685043 -0.70548,-1.265603 -0.82777,-2.00815 -0.20393,-1.238272 0.47371,-2.674245 0.45152,-3.971179 -0.0302,-1.765705 0.34833,-4.00403 1.83111,-5.189601 0.90305,-0.722043 1.90773,-1.612826 2.98498,-2.053283 0.53669,-0.219435 1.09619,-0.263065 1.60535,-0.586653 2.81393,-1.788361 5.57249,-3.943363 8.60376,-5.370118 1.51134,-0.711362 3.09625,-0.894006 4.69066,-1.240989 0.7856,-0.170968 1.65303,-1.081928 2.40805,-1.421505 1.98956,-0.894821 3.70077,-2.101146 5.61877,-3.136329 0.21743,-0.117345 0.75119,-0.22443 0.97827,-0.428704 1.80826,-1.62659 3.44915,-3.416697 5.39302,-4.896284 0.13745,-0.104624 0.49364,-0.03833 0.65218,-0.135377 0.90005,-0.550989 2.44927,-1.332248 3.26089,-2.075846 1.27154,-1.164958 2.06719,-2.699658 3.2358,-3.926047 0.9282,-0.974082 2.02264,-1.789475 3.11039,-2.572239 0.41206,-0.296524 0.83251,-0.759031 1.30437,-0.947671 0.003,-7.94e-4 1.28458,0.983866 1.85618,1.1733 1.4777,0.489706 2.83197,-0.115745 4.23919,0.157943 1.7065,0.331898 3.14653,1.644242 4.86626,1.060489 3.06724,-1.041156 1.94699,-3.141677 2.75921,-5.437807 0.34743,-0.98219 0.94462,-1.841784 1.30434,-2.797878 0.68951,-1.832544 0.95055,-3.804268 1.50503,-5.663442 0.3814,-1.278706 2.73371,-3.309365 3.86292,-4.151686 0.11303,-0.08433 1.67833,-1.188088 1.20401,-1.4440621 -0.41007,-0.2213115 -0.41449,-0.4862428 -0.35115,-1.0153581 0.10805,-0.902721 0.68617,-1.7804196 0.77758,-2.6850591 0.0399,-0.3948668 -0.20558,-0.9047379 -0.22577,-1.2861197 -0.0494,-0.9330772 0.25062,-1.9558362 -0.2759,-2.7978744 -0.26027,-0.4162496 0.33205,-4.5886448 0.77761,-3.5199095" />
    <path
       style="fill:none;stroke:#000000;stroke-width:0.264583px;stroke-linecap:butt;stroke-linejoin:miter;stroke-opacity:1"
       d="M 1.2180304,68.851398 C 0.89547945,68.052691 0.99925473,67.158 1.2503164,66.355273 c 0.2581003,-0.825232 0.5877262,-1.625113 0.8550962,-2.44786 0.3584156,-1.102911 0.6326546,-2.248937 1.1863175,-3.272565 0.5026782,-0.929366 1.2592371,-1.697131 1.6814957,-2.678653 0.373743,-0.86875 0.6427902,-1.811261 1.2884014,-2.53622 0.7560554,-0.848977 1.6623986,-1.574877 2.2285462,-2.584737 0.6719088,-1.19851 1.4523773,-2.331661 2.1546406,-3.511753 1.413494,-2.375253 2.253255,-5.019177 3.475394,-7.493109 0.279877,-0.566545 0.488366,-1.173538 0.906028,-1.668066 2.14139,-2.535489 3.978727,-5.324399 6.233152,-7.760532 1.00162,-1.082351 2.285349,-1.840946 3.337447,-2.871807 1.23032,-1.205486 2.327062,-2.546456 3.619359,-3.687035 1.30071,-1.148004 2.835087,-1.99526 4.098469,-3.193104 0.689385,-0.653623 1.320608,-1.407679 2.165113,-1.857752 0.62639,-0.33383 1.363458,-0.430868 1.930843,-0.888146 0.746808,-0.601883 1.273981,-1.43136 2.067432,-1.986219 1.533951,-1.072689 3.365952,-1.55737 5.085672,-2.239532 1.58099,-0.627132 3.08328,-1.446436 4.717344,-1.943861 1.863825,-0.567366 3.745115,-1.089172 5.657001,-1.457638 0.828797,-0.159729 1.677673,-0.06442 2.511194,-0.21641 2.1418,-0.390562 4.238874,-1.040093 6.409096,-1.257508 1.504199,-0.150692 3.030836,-0.116293 4.512665,-0.463912 1.130565,-0.265217 2.236689,-0.6306284 3.388595,-0.8069263 1.234153,-0.1888857 2.485007,-0.3714757 3.647133,-0.8508611 0.511779,-0.2111125 1.001687,-0.5420577 1.553401,-0.5855343 0.218231,-0.017197 0.408858,-0.5128019 0.444238,-0.3586458 0.0196,0.085414 -0.137606,0.2944242 -0.0535,0.088027 0.21022,-0.5158606 0.228801,-1.1882711 0.685819,-1.5301266 0.311855,-0.2332717 0.721655,-0.2604962 1.096028,-0.2944048 0.825675,-0.074785 1.660093,0.029396 2.482387,-0.067158 3.133435,-0.3679295 6.289735,-0.5376663 9.440837,-0.5142541 0.601184,0.00447 1.200221,0.1303922 1.804434,0.021212 1.013512,-0.1831395 1.976517,-0.6191358 3.002735,-0.712436 0.554335,-0.050398 1.123655,0.024256 1.664075,-0.1571274 0.607232,-0.2038079 1.177718,-0.5033082 1.807639,-0.6495715 1.260207,-0.2926115 2.505453,-0.6734986 3.666603,-1.2622329 1.71475,-0.8694228 3.53202,-1.5011245 5.32845,-2.17500078 0.318,-0.11928827 0.88848,-0.0454929 0.94785,-0.38212222 0.0301,-0.17082442 -0.12298,-0.33375946 -0.21694,-0.46418585"
       id="path107"
       inkscape:path-effect="#path-effect109"
       inkscape:original-d="M 1.2180304,68.851398 C 0.65567538,67.406543 1.3869401,66.007286 1.8629191,64.637194 2.2938179,63.396865 2.6165119,62.123555 3.1526966,60.917772 3.5443929,60.036918 4.2492808,59.337405 4.7080122,58.51209 5.1731145,57.675311 5.4577503,56.401149 6.0546924,55.662808 6.7560303,54.795343 7.8547213,53.97709 8.3876691,53.018269 c 0.6198582,-1.115182 1.3318024,-2.239172 2.0294989,-3.327003 1.532501,-2.389439 2.288969,-5.280644 3.660691,-7.780071 0.224565,-0.409183 0.468528,-1.183724 0.796624,-1.569667 2.163528,-2.544971 4.099074,-5.259207 6.259208,-7.797133 0.872238,-1.024784 2.218523,-1.816994 3.205474,-2.76397 1.22963,-1.179827 2.338722,-2.471742 3.565849,-3.651176 1.086411,-1.04419 2.397733,-1.794022 3.565853,-2.729851 0.995934,-0.797882 1.779542,-1.789186 2.845093,-2.50805 0.564007,-0.380502 1.337448,-0.446705 1.915698,-0.853076 0.786738,-0.552889 1.261112,-1.378887 2.029502,-1.96208 1.522547,-1.155586 3.47709,-1.688132 5.234974,-2.371558 1.4424,-0.560771 2.852664,-1.349978 4.324543,-1.825588 1.959489,-0.633171 3.983493,-1.057915 5.974702,-1.569663 0.753467,-0.193645 1.632352,-0.06708 2.408846,-0.204739 2.099006,-0.372109 3.987308,-0.91626 6.069528,-1.228433 1.565992,-0.234779 3.069101,-0.12608 4.665954,-0.4436 1.146945,-0.228059 2.329222,-0.6504663 3.31928,-0.8189532 1.351727,-0.2300354 2.560415,-0.3434115 3.850362,-0.8189566 0.541282,-0.1995464 1.005345,-0.4154244 1.555316,-0.597155 0.08741,-0.028882 0.415938,-0.1135047 0.531082,-0.2559212 0.06126,-0.075772 0.174787,-0.2961063 0.208643,-0.2047385 0.02437,0.065725 -0.06323,0.1251169 -0.09484,0.1876753 0.227609,-0.5272868 0.333854,-1.1257294 0.682826,-1.5818604 0.408483,-0.5339146 2.919579,-0.3265234 3.622751,-0.4094766 3.092096,-0.3647744 6.219275,-0.3816086 9.33192,-0.5118491 0.582449,-0.024371 1.138784,0.1455159 1.726024,0.051189 0.998496,-0.1603849 2.006928,-0.525779 2.996826,-0.7165874 0.511662,-0.098626 1.05559,0.00697 1.555316,-0.1023724 0.653059,-0.1428912 1.243202,-0.5291092 1.896733,-0.6824611 1.301656,-0.3054353 2.530064,-0.6031315 3.717584,-1.22843 1.71793,-0.9045866 3.73817,-1.4950457 5.42465,-2.23506491 0.0756,-0.0331865 1.02424,-0.32849513 1.02424,-0.4265398 0,-0.18065068 -0.20342,-0.40878487 -0.22761,-0.44360294" />
  </g>
</svg>
