<?xml version="1.0" encoding="UTF-8" standalone="no"?>
<!-- Created with Inkscape (http://www.inkscape.org/) -->

<svg
   width="169.33333mm"
   height="127mm"
   viewBox="0 0 169.33333 127"
   version="1.1"
   id="svg5"
   inkscape:version="1.1.2 (08b2f3d93c, 2022-04-05)"
   sodipodi:docname="MusculoLongitudinal.svg"
   xmlns:inkscape="http://www.inkscape.org/namespaces/inkscape"
   xmlns:sodipodi="http://sodipodi.sourceforge.net/DTD/sodipodi-0.dtd"
   xmlns="http://www.w3.org/2000/svg"
   xmlns:svg="http://www.w3.org/2000/svg">
  <sodipodi:namedview
     id="namedview7"
     pagecolor="#ffffff"
     bordercolor="#666666"
     borderopacity="1.0"
     inkscape:pageshadow="2"
     inkscape:pageopacity="0.0"
     inkscape:pagecheckerboard="0"
     inkscape:document-units="mm"
     showgrid="false"
     inkscape:zoom="0.75814091"
     inkscape:cx="185.98126"
     inkscape:cy="224.89223"
     inkscape:window-width="1366"
     inkscape:window-height="704"
     inkscape:window-x="0"
     inkscape:window-y="27"
     inkscape:window-maximized="1"
     inkscape:current-layer="layer2" />
  <defs
     id="defs2">
    <inkscape:path-effect
       effect="simplify"
       id="path-effect105"
       is_visible="true"
       lpeversion="1"
       steps="1"
       threshold="0.000408163"
       smooth_angles="360"
       helper_size="0"
       simplify_individual_paths="false"
       simplify_just_coalesce="false" />
    <inkscape:path-effect
       effect="simplify"
       id="path-effect101"
       is_visible="true"
       lpeversion="1"
       steps="1"
       threshold="0.000408163"
       smooth_angles="360"
       helper_size="0"
       simplify_individual_paths="false"
       simplify_just_coalesce="false" />
    <inkscape:path-effect
       effect="simplify"
       id="path-effect97"
       is_visible="true"
       lpeversion="1"
       steps="1"
       threshold="0.000408163"
       smooth_angles="360"
       helper_size="0"
       simplify_individual_paths="false"
       simplify_just_coalesce="false" />
    <inkscape:path-effect
       effect="simplify"
       id="path-effect93"
       is_visible="true"
       lpeversion="1"
       steps="1"
       threshold="0.000408163"
       smooth_angles="360"
       helper_size="0"
       simplify_individual_paths="false"
       simplify_just_coalesce="false" />
    <inkscape:path-effect
       effect="simplify"
       id="path-effect89"
       is_visible="true"
       lpeversion="1"
       steps="1"
       threshold="0.000408163"
       smooth_angles="360"
       helper_size="0"
       simplify_individual_paths="false"
       simplify_just_coalesce="false" />
    <inkscape:path-effect
       effect="simplify"
       id="path-effect85"
       is_visible="true"
       lpeversion="1"
       steps="1"
       threshold="0.000408163"
       smooth_angles="360"
       helper_size="0"
       simplify_individual_paths="false"
       simplify_just_coalesce="false" />
    <inkscape:path-effect
       effect="simplify"
       id="path-effect81"
       is_visible="true"
       lpeversion="1"
       steps="1"
       threshold="0.000408163"
       smooth_angles="360"
       helper_size="0"
       simplify_individual_paths="false"
       simplify_just_coalesce="false" />
    <inkscape:path-effect
       effect="simplify"
       id="path-effect77"
       is_visible="true"
       lpeversion="1"
       steps="1"
       threshold="0.000408163"
       smooth_angles="360"
       helper_size="0"
       simplify_individual_paths="false"
       simplify_just_coalesce="false" />
    <inkscape:path-effect
       effect="simplify"
       id="path-effect73"
       is_visible="true"
       lpeversion="1"
       steps="1"
       threshold="0.000408163"
       smooth_angles="360"
       helper_size="0"
       simplify_individual_paths="false"
       simplify_just_coalesce="false" />
    <inkscape:path-effect
       effect="simplify"
       id="path-effect69"
       is_visible="true"
       lpeversion="1"
       steps="1"
       threshold="0.000408163"
       smooth_angles="360"
       helper_size="0"
       simplify_individual_paths="false"
       simplify_just_coalesce="false" />
    <inkscape:path-effect
       effect="simplify"
       id="path-effect65"
       is_visible="true"
       lpeversion="1"
       steps="1"
       threshold="0.000408163"
       smooth_angles="360"
       helper_size="0"
       simplify_individual_paths="false"
       simplify_just_coalesce="false" />
    <inkscape:path-effect
       effect="simplify"
       id="path-effect61"
       is_visible="true"
       lpeversion="1"
       steps="1"
       threshold="0.000408163"
       smooth_angles="360"
       helper_size="0"
       simplify_individual_paths="false"
       simplify_just_coalesce="false" />
    <inkscape:path-effect
       effect="simplify"
       id="path-effect57"
       is_visible="true"
       lpeversion="1"
       steps="1"
       threshold="0.000408163"
       smooth_angles="360"
       helper_size="0"
       simplify_individual_paths="false"
       simplify_just_coalesce="false" />
  </defs>
  <g
     inkscape:groupmode="layer"
     id="layer2"
     inkscape:label="Musculo Longitudinal">
    <path
       style="fill:none;stroke:#000000;stroke-width:0.264583px;stroke-linecap:butt;stroke-linejoin:miter;stroke-opacity:1"
       d="m 90.986752,127.06748 c 0.05232,0.24502 -0.08874,0.55023 0.08971,0.74578 0.14174,0.15533 0.375382,0.15703 0.569664,0.15737 0.75576,0.001 1.505037,-0.1279 2.244138,-0.27234 1.275354,-0.24924 2.538903,-0.55982 3.786599,-0.92426 0.288578,-0.0843 0.57066,-0.20122 0.803066,-0.39978 0.407089,-0.3478 0.720413,-0.82405 1.239775,-1.02815 0.3118,-0.12253 0.67636,-0.03 0.97322,-0.17776 0.31049,-0.15458 0.58766,-0.36929 0.86311,-0.57852 0.6259,-0.47543 1.23338,-1.00574 1.98171,-1.28249 0.39616,-0.14651 0.77935,-0.33005 1.11558,-0.59443 1.09351,-0.85983 2.1667,-1.76846 3.40438,-2.41711 0.85392,-0.44753 1.80532,-0.66363 2.68687,-1.04694 0.47745,-0.2076 0.89302,-0.53013 1.30441,-0.84373 0.85131,-0.64896 1.62766,-1.39368 2.49807,-2.01642 1.04016,-0.74418 2.25649,-1.17883 3.3874,-1.76049 0.89377,-0.45969 1.57534,-1.22832 2.46051,-1.7071 0.73381,-0.39691 1.55398,-0.64465 2.23058,-1.13393 0.34567,-0.24997 0.43116,-0.7015 0.73596,-0.99315 0.75056,-0.71818 1.73976,-1.10706 2.56839,-1.71715 0.25553,-0.18814 0.41114,-0.48139 0.70086,-0.63597 0.87002,-0.4642 1.84527,-0.6768 2.74982,-1.05758 0.5663,-0.23839 1.02793,-0.68051 1.63455,-0.84039 0.75771,-0.1997 1.59739,-0.31015 2.20362,-0.82921 0.18442,-0.1579 0.29842,-0.38094 0.5159,-0.51054 0.82489,-0.49154 2.15968,-0.47523 2.53565,-1.36171 0.0492,-0.11596 0.0252,-0.23549 0.16305,-0.33939 0.50915,-0.3836 1.35489,-0.20725 1.727,-0.71491 0.10986,-0.14988 0.11277,-0.35967 0.27236,-0.48505 0.36448,-0.28634 0.75203,-0.55108 1.17362,-0.74359 0.67292,-0.30728 1.48286,-0.22035 2.11295,-0.61142 0.43159,-0.26787 0.78021,-0.64459 1.16874,-0.967806 0.3186,-0.265048 0.63072,-0.586511 1.04164,-0.685344 0.55628,-0.133796 1.16187,0.09128 1.69324,-0.146077 0.19128,-0.08544 0.078,-0.360489 0.30785,-0.444061 0.867,-0.315284 1.79615,-0.320616 2.70401,-0.364631 0.1773,-0.0086 0.22081,-0.195522 0.32641,-0.302607 0.16916,-0.171537 0.43081,-0.167608 0.65478,-0.173801 0.6517,-0.01802 1.31361,0.167501 1.95565,-0.02699 0.32606,-0.09877 0.59298,-0.324048 0.80964,-0.580955 0.20878,-0.247564 0.44747,-0.474238 0.74714,-0.614183 0.82883,-0.387065 1.7911,-0.461475 2.55445,-0.986838 0.22629,-0.155741 0.29269,-0.475917 0.572,-0.570792 0.5817,-0.197586 1.2297,-0.11731 1.78773,-0.401777 0.92696,-0.472533 1.65945,-1.285978 2.64419,-1.640667 0.48527,-0.174787 1.04826,-0.103836 1.48572,-0.410337 0.29023,-0.203347 0.5515,-0.469433 0.91193,-0.551192 0.36562,-0.08294 0.74612,-0.09257 1.09718,-0.244454 0.7194,-0.311237 1.39101,-0.713034 2.05727,-1.123983 0.48551,-0.299462 0.88014,-0.721449 1.25067,-1.148963 0.697,-0.804186 1.36606,-1.642712 1.89478,-2.566468 0.28959,-0.505958 0.61176,-1.000906 0.81587,-1.547716 0.0396,-0.106167 0.22517,-0.479768 -0.0152,-0.405354 0,0 -0.023,0.01297 -0.023,0.01297"
       id="path55"
       inkscape:path-effect="#path-effect57"
       inkscape:original-d="m 90.986752,127.06748 c 0.05405,0.27014 -0.07366,0.66799 0.162165,0.81042 0.776505,0.46899 6.354744,-0.96185 6.97333,-1.26425 0.528634,-0.25844 0.813435,-0.80279 1.29736,-1.11839 0.542986,-0.35411 1.043663,-0.17743 1.369443,-0.3728 0.77907,-0.4672 1.42264,-1.12313 2.21633,-1.57221 0.51306,-0.2903 1.04149,-0.35983 1.5316,-0.7456 0.9926,-0.78127 1.98856,-1.60851 3.06323,-2.25297 0.96426,-0.57827 2.00575,-0.93904 3.08123,-1.28048 0.8632,-0.27404 3.22621,-2.44615 3.98219,-2.96615 0.94966,-0.65322 2.09766,-1.14604 3.15331,-1.62085 0.84106,-0.37829 1.56226,-1.19224 2.3785,-1.65327 0.76946,-0.43462 1.59368,-0.76257 2.36047,-1.19942 0.39258,-0.22364 0.43281,-0.65842 0.7568,-0.98873 0.68389,-0.69723 1.79786,-1.22485 2.59473,-1.7505 0.2427,-0.16009 0.37931,-0.45584 0.63066,-0.59972 0.77749,-0.44505 1.89896,-0.77917 2.73888,-1.06976 0.55658,-0.19256 1.04445,-0.68564 1.60368,-0.84284 0.82372,-0.23156 1.57015,-0.3461 2.30643,-0.84284 0.17275,-0.11654 0.2792,-0.37047 0.46849,-0.48626 0.84067,-0.51421 1.76911,-0.84124 2.59473,-1.39393 0.12249,-0.082 -0.0211,-0.17056 0.0901,-0.27554 0.47596,-0.44954 1.27916,-0.45745 1.81993,-0.79421 0.0541,-0.0337 0.11883,-0.35003 0.1982,-0.42143 0.29353,-0.26403 0.89721,-0.63164 1.15322,-0.7618 0.66723,-0.33924 1.44908,-0.31959 2.12623,-0.61592 0.55411,-0.24248 1.63117,-1.552765 2.32443,-1.701892 0.53414,-0.114898 1.13079,0.05762 1.63972,-0.129667 0.23372,-0.08601 0.0616,-0.351359 0.28831,-0.437626 0.85803,-0.326541 1.81078,-0.249346 2.70284,-0.372793 0.46726,-0.06466 0.11628,-0.404254 0.79284,-0.470048 0.89689,-0.08722 1.72899,0.281443 2.52264,-0.1945 0.43337,-0.259879 0.62525,-0.734664 1.08114,-0.972513 0.83287,-0.434536 1.87634,-0.524725 2.6668,-1.037342 0.28783,-0.186655 0.27185,-0.487119 0.63067,-0.599712 0.62327,-0.19558 1.17069,-0.08858 1.78387,-0.405215 0.8582,-0.443166 1.61491,-1.180166 2.52265,-1.588431 0.39089,-0.175808 0.85194,-0.150712 1.26133,-0.291748 0.40619,-0.139936 0.54487,-0.379685 0.90094,-0.58351 0.36202,-0.207232 0.83934,-0.159194 1.22529,-0.29175 0.7071,-0.242859 1.46449,-0.821534 2.16227,-1.150806 0.98645,-0.465484 2.89555,-3.091378 3.42359,-4.084534 0.10922,-0.20542 1.10847,-1.928982 0.59463,-1.620851" />
    <path
       style="fill:none;stroke:#000000;stroke-width:0.264583px;stroke-linecap:butt;stroke-linejoin:miter;stroke-opacity:1"
       d="m 78.661799,125.59251 c 0.369875,-0.10713 0.750207,-0.18085 1.095909,-0.36712 2.607283,-1.40482 4.98578,-3.22201 7.710366,-4.41046 1.710701,-0.7462 3.531499,-1.2223 5.213719,-2.03131 0.782008,-0.37608 1.474214,-0.91697 2.292097,-1.22831 2.081079,-0.7922 4.248749,-1.33165 6.4309,-1.76298 2.34871,-0.46425 4.72471,-0.89015 6.96099,-1.77621 0.56529,-0.22398 1.16355,-0.39225 1.67825,-0.71668 0.40195,-0.25336 0.70875,-0.64304 1.17748,-0.80232 1.41248,-0.47998 2.81302,-1.01489 4.13201,-1.71657 0.48652,-0.25882 0.9379,-0.57567 1.37523,-0.91142 0.67374,-0.51725 1.43874,-0.94296 1.98057,-1.60937 0.29118,-0.35813 0.49,-0.80396 0.90055,-1.05571 0.27249,-0.16709 0.58663,-0.25385 0.90822,-0.25305 0.25357,6.3e-4 0.50348,-0.048 0.73547,-0.16574 1.08918,-0.55281 2.32643,-0.66625 3.52341,-0.78072 1.2483,-0.11938 2.49143,-0.34475 3.6707,-0.82307 0.25027,-0.10151 0.30051,-0.39863 0.36647,-0.62679 0.13798,-0.47727 0.4473,-0.90092 0.87389,-1.16266 0.46673,-0.28637 1.00431,-0.41678 1.52086,-0.58117 1.07822,-0.34313 2.15291,-0.70219 3.24989,-0.98173 0.40725,-0.10378 0.83054,-0.023 1.24458,-0.0692 0.28419,-0.0317 0.6318,-0.0696 0.80032,-0.31498 0.18293,-0.26641 0.30056,-0.56964 0.51784,-0.81625 1.11707,-1.267847 2.32124,-2.524386 3.84271,-3.296522 0.76881,-0.390166 1.75071,-0.365269 2.40246,-0.929842 0.13191,-0.114266 0.0934,-0.3075 0.24708,-0.430509 0.30204,-0.241758 0.74941,-0.206897 1.01456,-0.512727 0.17253,-0.198998 0.33752,-0.431538 0.61819,-0.493071 0.42066,-0.09222 0.90653,0.05977 1.27751,-0.177083 0.17848,-0.113948 0.29506,-0.297285 0.47748,-0.415477 0.40503,-0.262417 0.89979,-0.138528 1.35029,-0.169474 0.33966,-0.02333 0.60542,-0.247546 0.88132,-0.460413 0.17805,-0.13737 0.42099,-0.136908 0.63562,-0.142287 0.54489,-0.01366 1.12432,0.131924 1.63812,-0.101348 0.41194,-0.187027 0.5963,-0.635505 0.97864,-0.870712 0.49262,-0.303053 1.12795,-0.37914 1.53211,-0.808172 0.19612,-0.208191 0.28306,-0.495785 0.52596,-0.671905 0.97367,-0.70599 2.2426,-0.886993 3.16926,-1.658027 0.68097,-0.566605 1.11816,-1.374884 1.85422,-1.88743 0.38571,-0.268585 0.87882,-0.197151 1.3115,-0.10747 0.51972,0.107722 1.0727,0.284673 1.59341,0.08834 0.45147,-0.170223 0.67122,-0.63788 0.84805,-1.052043 0.16643,-0.38981 0.3562,-0.797229 0.7284,-1.037126 0.74457,-0.479903 1.6794,-0.459843 2.43752,-0.92873 1.40462,-0.868743 2.95655,-1.456429 4.43347,-2.190455 0.38362,-0.190658 0.57826,-0.60017 0.97054,-0.795105 0.71746,-0.356523 1.46286,-0.66658 2.13591,-1.101902 0.16363,-0.105834 0.7308,-0.08424 0.57399,-0.09887 -0.34557,-0.03224 -0.69354,-0.03838 -1.04044,-0.04187"
       id="path59"
       inkscape:path-effect="#path-effect61"
       inkscape:original-d="m 78.661799,125.59251 c 0.318336,-0.0973 0.661019,-0.13566 0.955005,-0.29176 2.407936,-1.27853 4.650621,-2.95452 7.11748,-4.14936 1.882283,-0.9117 3.89223,-1.47367 5.802095,-2.30161 0.782937,-0.33941 1.442239,-0.90428 2.234348,-1.21563 1.234834,-0.48537 2.534973,-0.88171 3.820009,-1.21565 3.189364,-0.8288 6.446104,-1.12136 9.513994,-2.30159 0.61897,-0.23812 1.23751,-0.48018 1.83793,-0.7618 0.35593,-0.16695 0.76257,-0.68806 1.1352,-0.81043 1.49552,-0.49113 4.19468,-1.50562 5.44171,-2.51231 0.61897,-0.49967 1.42303,-0.97517 1.98209,-1.53981 0.63125,-0.63756 0.57205,-1.14263 1.51359,-1.47498 0.36119,-0.12749 0.7981,0.004 1.13519,-0.17829 2.18971,-1.1817 5.03045,-0.4824 7.35173,-1.68568 0.44088,-0.22853 0.0808,-1.47893 1.83792,-2.05847 0.4245,-0.14002 3.88756,-1.28344 4.37861,-1.31289 0.51361,-0.0308 1.29327,0.0879 1.74784,-0.29175 0.075,-0.0626 0.36174,-0.64099 0.3964,-0.68076 1.12212,-1.287816 2.35928,-2.57926 3.8921,-3.419992 0.769,-0.421786 1.70175,-0.577147 2.48661,-0.972505 0.14561,-0.07335 0.0906,-0.252344 0.18019,-0.35659 0.2304,-0.268208 0.5866,-0.269105 0.88292,-0.421423 0.2796,-0.143722 0.39384,-0.485005 0.66671,-0.615918 0.41315,-0.198213 1.30035,0.0061 1.58567,-0.340379 0.7308,-0.887465 1.48498,-0.174985 2.2884,-0.664548 0.30644,-0.186733 0.19025,-0.306274 0.50452,-0.372793 0.62962,-0.133263 1.30458,0.08969 1.92803,-0.09725 0.49042,-0.14705 0.61409,-0.576424 0.99104,-0.842841 0.48488,-0.342696 1.12776,-0.453353 1.58567,-0.826635 0.24133,-0.196731 0.27762,-0.495485 0.52255,-0.680752 0.93593,-0.707966 2.12495,-0.933632 3.09926,-1.604642 0.73622,-0.507039 1.30798,-1.667224 2.14425,-2.074688 0.79825,-0.388932 1.9039,0.432486 2.79293,0.04863 0.66884,-0.288787 0.7826,-1.21825 1.17123,-1.734304 0.59794,-0.793982 1.88595,-0.694594 2.66681,-1.183224 1.42797,-0.893559 2.93474,-1.608569 4.48671,-2.236769 0.45103,-0.182571 0.57336,-0.605904 0.97302,-0.794216 0.51528,-0.242787 1.96021,-1.064815 2.28841,-1.167008 0.16758,-0.05218 0.39205,0.05255 0.52255,-0.06483 0.0181,-0.01627 -0.62893,-0.04863 -1.06312,-0.04863" />
    <path
       style="fill:none;stroke:#000000;stroke-width:0.264583px;stroke-linecap:butt;stroke-linejoin:miter;stroke-opacity:1"
       d="m 75.626152,86.465232 c 0.07356,-0.273688 0.112984,-0.555772 0.186524,-0.83099 0.02502,-0.09364 -0.05296,-0.119476 -0.115195,-0.04716 -0.186541,0.216754 -0.322936,0.470815 -0.465118,0.71744 -0.238164,0.413111 -0.497446,0.816248 -0.694711,1.250381 -0.02415,0.05315 -0.04664,0.06446 -0.04586,-0.0082 0.0024,-0.222103 0.07379,-0.457497 0.257586,-0.597609 0.226429,-0.172615 0.505124,-0.254957 0.74597,-0.403717 0.351302,-0.216984 0.69364,-0.449278 1.023947,-0.697081 0.714006,-0.535663 1.315794,-1.199897 1.986035,-1.786336 2.043627,-1.788106 4.461804,-3.116346 7.011802,-4.032767 1.635155,-0.587644 3.329821,-0.994038 5.040212,-1.293226 1.480146,-0.258913 2.971031,-0.491227 4.408736,-0.942296 1.928836,-0.605158 3.783038,-1.412093 5.690053,-2.082916 0.56371,-0.198294 1.1109,-0.461955 1.70201,-0.566287 0.34558,-0.061 0.69927,-0.01705 1.04265,0.0356 0.4678,0.07173 0.93785,0.148687 1.414,0.128949 1.16622,-0.04834 2.32697,-0.198406 3.47395,-0.409941 1.20975,-0.223111 2.42189,-0.483265 3.56884,-0.933914 0.53315,-0.20948 1.0769,-0.435574 1.51432,-0.81235 0.35586,-0.306522 0.62975,-0.695858 1.00621,-0.982454 0.72806,-0.554268 1.49979,-1.065435 2.11795,-1.749347 0.21419,-0.236972 0.39872,-0.499178 0.55313,-0.778974 0.42609,-0.772087 0.78283,-1.582529 1.07378,-2.414291 0.21705,-0.620507 0.44145,-1.250904 0.49762,-1.908416 0.0206,-0.241144 0.0487,-0.505102 -0.0678,-0.725233 -0.19089,-0.36066 -0.58063,-0.562072 -0.96507,-0.648476 -0.65382,-0.146947 -1.33411,-0.09724 -1.99001,0.0039 -1.2951,0.199694 -2.55665,0.578994 -3.78125,1.037869 -0.89788,0.336449 -1.7975,0.683834 -2.63605,1.150738 -0.34485,0.192012 -0.67508,0.408815 -1.01491,0.609567 -1.64225,0.97014 -3.32319,1.879316 -5.06127,2.665749 -1.0756,0.486678 -2.17619,0.925996 -3.31799,1.23636 -1.769488,0.480981 -3.533118,1.000688 -5.236549,1.680237 -0.950824,0.379312 -1.795511,0.977619 -2.754175,1.342168 -0.224479,0.08536 -0.455938,0.148199 -0.693225,0.194111 -0.342543,0.06628 -0.667123,0.200408 -0.991042,0.325969 -1.780729,0.690267 -3.476593,1.600623 -5.313471,2.14266 -0.937107,0.276527 -1.916536,0.343014 -2.879227,0.481488 -0.603509,0.08681 -1.19862,0.228122 -1.776193,0.424813 -1.559767,0.531174 -2.965669,1.423272 -4.281092,2.401073 -0.732101,0.544197 -1.409593,1.159558 -2.148467,1.694006 -0.567389,0.410408 -1.317624,0.466783 -1.865583,0.907896 -0.210023,0.169071 -0.38619,0.375677 -0.558958,0.581169 -0.239968,0.285421 -0.488556,0.577721 -0.626908,0.928806 -0.07428,0.188502 -0.07422,0.415815 0.05175,0.583787 0.174791,0.233066 0.443803,0.369338 0.701507,0.489276 0.546349,0.254277 1.136177,0.409334 1.673069,0.68186 0.461734,0.234376 0.818279,0.623166 1.261116,0.888369 0.141793,0.08492 0.304206,0.121732 0.467519,0.139218 0.694639,0.07437 1.389647,-0.08955 2.041662,-0.317374 0.427198,-0.149272 0.842373,-0.330252 1.254778,-0.515886"
       id="path67"
       inkscape:path-effect="#path-effect69"
       inkscape:original-d="m 75.626152,86.465232 c 0.77969,-2.69371 -1.135192,1.340191 -1.135192,1.134594 0,-0.77475 0.505741,-0.724427 1.135192,-1.134594 1.130782,-0.736846 1.357498,-0.978684 2.252366,-1.831557 3.288147,-3.133831 7.467098,-4.904193 11.892497,-5.75401 1.422599,-0.273185 2.877384,-0.463968 4.288504,-0.826635 2.226128,-0.572133 4.326142,-1.622812 6.522851,-2.317814 0.41711,-0.131966 1.4485,-0.591923 1.98208,-0.615926 0.68482,-0.0308 1.37143,0.207362 2.07218,0.194503 2.09715,-0.03849 6.98192,-0.805487 8.64909,-2.090891 0.37635,-0.290176 0.63576,-0.700894 1.00906,-0.988719 0.88881,-0.685292 1.78001,-1.22519 2.46859,-2.139521 0.65957,-0.875824 2.26659,-4.642496 1.78387,-5.510885 -1.1462,-2.061974 -8.22494,0.829837 -9.6221,1.701896 -2.20662,1.377286 -6.3827,3.626516 -8.88334,4.295246 -1.819356,0.486539 -3.592979,1.040026 -5.369638,1.701889 -0.955566,0.355979 -1.778042,0.958059 -2.720859,1.329095 -1.030972,0.405731 -0.515649,0.08549 -1.54963,0.470048 -1.91626,0.712698 -3.628615,1.66071 -5.603885,2.252978 -1.223669,0.366908 -2.677277,0.356494 -3.964162,0.696962 -2.724518,0.720821 -4.933469,2.536836 -7.045405,4.246624 -0.632677,0.512204 -1.550942,0.523015 -2.126234,1.134594 -1.869482,1.987407 -1.144822,2.075413 1.351421,3.063406 0.524047,0.207413 1.140613,0.9524 1.639723,1.037339 1.154986,0.196559 2.433275,-0.348803 3.459634,-0.810424" />
    <path
       style="fill:none;stroke:#000000;stroke-width:0.264583px;stroke-linecap:butt;stroke-linejoin:miter;stroke-opacity:1"
       d="m 137.64731,57.85726 c 0.11616,-0.125962 0.49424,-0.466508 0.34614,-0.380207 -0.0637,0.03711 -0.12087,0.102761 -0.1763,0.156968 -0.39742,0.388671 -1.65525,1.465999 -1.17889,1.179535 0.26796,-0.161142 0.40767,-0.45206 0.60563,-0.682212 0.15629,-0.18171 0.38759,-0.315222 0.63439,-0.299787 0.32504,0.02033 0.62392,0.225364 0.95249,0.183486 0.28955,-0.0369 0.5463,-0.197041 0.76968,-0.376415 0.43224,-0.347093 0.76976,-0.803315 1.23195,-1.113382 0.2063,-0.1384 0.43499,-0.238891 0.6591,-0.344118 1.58779,-0.745507 3.29309,-1.231526 4.82237,-2.101531 0.47416,-0.269749 0.93994,-0.563281 1.34812,-0.926512 0.58402,-0.519702 1.02145,-1.185634 1.64074,-1.669033 0.52019,-0.406046 1.04959,-0.800966 1.54907,-1.233291 0.19269,-0.166784 0.34353,-0.375284 0.46614,-0.59762 0.16474,-0.298734 0.30614,-0.610516 0.49888,-0.893754 0.52376,-0.769688 1.14844,-1.466532 1.81803,-2.1108 0.58616,-0.563994 1.29738,-0.968124 1.97513,-1.408204 0.58738,-0.381399 1.11939,-0.839229 1.64352,-1.301718 0.66366,-0.585605 1.33388,-1.174487 2.10287,-1.621437 0.94517,-0.549348 1.99569,-0.872657 2.99879,-1.294999 0.45182,-0.190232 0.90821,-0.369245 1.36779,-0.539962 1.1155,-0.414364 2.27077,-0.770438 3.28194,-1.40789 0.15086,-0.0951 0.31472,-0.177781 0.43218,-0.316792 0.27113,-0.32088 0.42664,-0.717907 0.65406,-1.067448 0.16198,-0.248957 0.3475,-0.501087 0.39372,-0.801967 0.0388,-0.252794 -0.0435,-0.523781 -0.21564,-0.70505 -0.12711,-0.133883 -0.32271,-0.151191 -0.49501,-0.175577 -0.22379,-0.03167 -0.44181,-0.09272 -0.66386,-0.134932 -1.0928,-0.207726 -2.22504,-0.201243 -3.31586,0.02045 -0.84824,0.17239 -1.65647,0.493327 -2.44685,0.842495 -0.84273,0.372293 -1.75681,0.530456 -2.65767,0.691271 -0.69697,0.124418 -1.38762,0.285082 -2.06486,0.492045 -1.0753,0.32861 -2.12941,0.741455 -3.11242,1.290727 -0.4085,0.228255 -0.79265,0.496881 -1.16097,0.785307 -0.96039,0.752061 -1.83242,1.607245 -2.72381,2.438144 -0.77023,0.717958 -1.68776,1.27008 -2.39481,2.056099 -0.38544,0.428489 -0.56141,1.005544 -0.97664,1.411732 -0.71403,0.698481 -1.52111,1.295247 -2.35837,1.836465 -0.67689,0.437551 -1.37064,0.852033 -2.10329,1.190865 -1.95535,0.904299 -4.08009,1.39374 -5.99655,2.387741 -0.58311,0.302439 -1.19674,0.59175 -1.66053,1.05781 -0.17295,0.173797 -0.26419,0.407921 -0.35219,0.631424 -0.10304,0.261711 -0.27291,0.487981 -0.42777,0.720157 -0.27805,0.416878 -0.56176,0.844929 -0.69351,1.334443 -0.0864,0.320894 -0.0735,0.675428 0.0795,0.975059 0.0564,0.110286 0.0968,0.254732 0.20938,0.306399 0.10951,0.05026 0.23352,0.05743 0.35199,0.06747 0.60677,0.05143 1.21672,0.06075 1.82509,0.04685 0.38552,-0.0088 0.78708,0.0527 1.15554,-0.06283 0.0394,-0.01234 0.19047,-0.0418 0.14325,-0.05891 -0.10122,-0.03667 -0.24959,-0.0026 -0.3093,-0.09459 -0.0379,-0.05839 0.0899,-0.0829 0.1221,-0.100056"
       id="path75"
       inkscape:path-effect="#path-effect77"
       inkscape:original-d="m 137.64731,57.85726 c 1.18717,-1.2641 -1.02753,0.967374 -1.00905,0.956296 0.40741,-0.244311 0.50812,-0.799565 1.00905,-0.956296 0.40393,-0.126384 0.8479,0.236503 1.26132,0.145875 0.80707,-0.176919 1.38048,-1.212636 2.10822,-1.588431 2.10406,-1.086512 4.60646,-1.631215 6.48682,-3.128238 0.62937,-0.501065 1.07055,-1.202793 1.69378,-1.718098 0.3064,-0.253347 1.38235,-1.02979 1.78387,-1.442556 0.33974,-0.349271 0.49491,-0.846945 0.75679,-1.248053 0.50863,-0.779023 1.17827,-1.5192 1.83794,-2.171935 0.71307,-0.705562 1.56635,-1.121204 2.37849,-1.701893 1.06072,-0.75842 1.97169,-1.775269 3.06322,-2.479897 1.15284,-0.74421 2.33445,-1.076301 3.58578,-1.604642 1.52312,-0.643099 3.27206,-1.103691 4.66689,-2.009852 0.32299,-0.209833 0.65705,-0.974254 0.82887,-1.231845 0.33018,-0.495006 0.58664,-0.890984 0.19822,-1.458764 -0.13995,-0.204578 -0.46166,-0.18552 -0.70274,-0.243123 -2.19418,-0.524269 -4.13143,-0.224938 -6.14446,0.713171 -1.09193,0.508858 -2.29544,0.62592 -3.45963,0.875258 -1.70772,0.365749 -3.98909,1.176049 -5.38767,2.236771 -1.02945,0.78077 -1.95551,1.650098 -2.88302,2.544731 -0.77933,0.751703 -1.73321,1.327444 -2.4686,2.12331 -0.39401,0.426421 -0.56252,1.002681 -0.97302,1.410137 -0.93279,0.92587 -2.24229,1.809073 -3.38756,2.479902 -2.76371,1.618806 -6.13376,1.970112 -8.72116,3.987285 -0.23192,0.180813 -0.36075,0.66748 -0.50453,0.907676 -0.48178,0.804829 -1.61641,2.032257 -0.72076,3.079613 0.14048,0.164264 3.33263,0.162753 3.49567,0.01622 0.0487,-0.04376 -0.59962,-0.07531 -0.1982,-0.210712" />
    <path
       style="fill:none;stroke:#000000;stroke-width:0.264583px;stroke-linecap:butt;stroke-linejoin:miter;stroke-opacity:1"
       d="m 143.16111,14.225161 c -1.21137,0.158739 -2.38656,0.565358 -3.45639,1.148715 -0.91741,0.500248 -1.80251,1.124259 -2.41268,1.985138 -0.41142,0.580469 -0.46574,1.320554 -0.83222,1.928418 -0.39549,0.655977 -0.96002,1.229641 -1.17696,1.977588 -0.21285,0.733859 -0.0359,1.529442 -0.3344,2.248097 -0.41437,0.997528 -1.29045,1.726498 -1.64987,2.75477 -0.22964,0.656982 -0.0643,1.359448 -0.19025,2.033502 -0.15693,0.840127 -0.47932,1.638587 -0.61355,2.485444 -0.18496,1.166923 -0.20715,2.382951 -0.67154,3.485117 -0.21435,0.508733 -0.53804,0.960279 -0.83854,1.419995 -0.75255,1.151267 -1.61944,2.221327 -2.42821,3.33318 -0.42501,0.584283 -0.75237,1.255657 -1.33461,1.714121 -1.24892,0.98341 -2.68381,1.741214 -3.78179,2.90571 -0.37655,0.399363 -0.73562,0.814757 -1.11781,1.209207 -1.31718,1.359434 -2.74056,2.622777 -3.91565,4.114677 -0.49673,0.630653 -1.02078,1.248253 -1.66323,1.739792 -1.17854,0.901703 -2.40183,1.755459 -3.71612,2.446909 -0.40637,0.213792 -0.80346,0.473578 -1.25174,0.575433 -0.50561,0.114882 -1.02647,-0.067 -1.53286,0.09663 -0.36659,0.118458 -0.72497,0.309447 -1.11934,0.302844 -0.19644,-0.0033 -0.3639,-0.120123 -0.56923,-0.09986 -0.45984,0.04538 -0.84847,0.317823 -1.28665,0.437416 -0.22379,0.06108 -0.46925,0.04091 -0.6662,-0.100428 -0.21589,-0.154938 -0.44495,-0.388628 -0.7357,-0.322835 -1.08342,0.245169 -1.93678,1.091324 -3.03115,1.281504 -0.72602,0.126168 -1.46513,0.04364 -2.19609,0.131862 -1.107038,0.133617 -2.182275,0.450182 -3.28427,0.610428 -0.899389,0.130784 -1.822155,0.03748 -2.712473,0.229485 -0.697624,0.150448 -1.367162,0.52217 -2.097034,0.451384 -0.564703,-0.05477 -1.009443,-0.444788 -1.426058,-0.792967 -0.39428,-0.329513 -0.845532,-0.667007 -1.380759,-0.674145 -0.999257,-0.01333 -1.944481,0.35917 -2.871941,0.683141 -0.594043,0.207505 -1.211058,0.337593 -1.834575,0.422176 -1.15873,0.157187 -2.333174,0.209334 -3.478024,0.460269 -0.670249,0.146909 -1.271218,0.498581 -1.845459,0.86 -1.132387,0.712708 -2.165384,1.587291 -3.383665,2.161423 -0.875985,0.41282 -1.817279,0.674398 -2.684396,1.103851 -0.90976,0.450572 -1.591852,1.2541 -2.533734,1.655875 -1.037081,0.442384 -2.063183,0.995613 -3.179942,1.141947 -0.336117,0.04404 -0.672731,-0.04941 -0.992812,-0.141 C 65.745902,63.29023 64.596239,62.824248 63.4884,62.282411 62.70117,61.897382 61.875209,61.544523 61.208557,60.970786 61.034,60.820558 60.744396,60.669644 60.77179,60.4269 c 0.02524,-0.223659 0.31558,-0.0096 0.417954,0.0557 0.31318,0.199911 0.59919,0.438353 0.904191,0.649911"
       id="path79"
       inkscape:path-effect="#path-effect81"
       inkscape:original-d="m 143.16111,14.225161 c -2.01842,0.247785 -4.75822,1.503523 -5.91022,3.193072 -0.31231,0.458052 -0.41465,1.193601 -0.68471,1.685679 -0.36125,0.658253 -0.91753,1.250013 -1.20727,1.945021 -0.3191,0.765425 -0.0854,1.563512 -0.36038,2.334023 -0.4003,1.12179 -1.511,1.951445 -1.76585,3.128233 -0.11504,0.53118 -0.0204,1.043781 -0.0901,1.572225 -0.10248,0.776971 -0.42245,1.532028 -0.57661,2.301605 -0.27976,1.396606 -0.23976,3.163097 -1.00906,4.408705 -0.88802,1.437838 -1.85228,2.783927 -2.90105,4.100745 -0.43063,0.540695 -0.76794,1.310616 -1.31538,1.750518 -1.44414,1.160473 -2.94561,1.893472 -4.19841,3.322741 -1.38734,1.582758 -3.01944,2.929863 -4.36058,4.538374 -0.60818,0.729427 -1.11688,1.479867 -1.87397,2.074687 -1.37024,1.076545 -3.5313,2.537627 -5.06332,3.128238 -0.34881,0.134472 -0.9864,-0.0205 -1.35141,0.04863 -0.36972,0.07001 -0.96881,0.402826 -1.36944,0.372793 -0.36229,-0.02716 -0.25205,-0.192405 -0.82887,-0.04863 -0.45786,0.114128 -0.88006,0.443166 -1.35143,0.421423 -0.40784,-0.01881 -0.6331,-0.563407 -1.09915,-0.453838 -1.02681,0.241409 -1.86581,0.972294 -2.88303,1.248053 -0.50616,0.137218 -1.46585,0.08316 -1.85595,0.113459 -1.16824,0.09072 -2.361408,0.404619 -3.495671,0.615923 -0.908095,0.16917 -1.807409,0.101881 -2.720862,0.226915 -0.756329,0.103529 -1.471197,0.521361 -2.234345,0.502468 -1.186931,-0.02938 -1.750899,-1.474976 -2.97312,-1.474976 -1.235258,0 -2.440488,0.631418 -3.62181,0.923886 -1.418243,0.351123 -3.996158,0.343937 -5.135393,0.842838 -1.317511,0.576974 -2.442012,1.565912 -3.657843,2.317813 -1.075497,0.665112 -2.319645,1.051534 -3.477655,1.539809 -0.916336,0.386371 -1.625168,1.254924 -2.55869,1.669473 -1.051441,0.466916 -2.186334,0.76563 -3.261423,1.183225 -0.81566,0.316825 -6.979698,-2.34645 -7.189555,-3.290327 -0.106616,-0.479531 0.908151,0.389813 1.315382,0.664549" />
    <path
       style="fill:none;stroke:#000000;stroke-width:0.264583px;stroke-linecap:butt;stroke-linejoin:miter;stroke-opacity:1"
       d="m 62.093935,61.13251 c 0.103455,-0.280911 0.199428,-0.610264 0.06342,-0.894999 -0.129547,-0.271206 -0.440441,-0.373478 -0.717539,-0.416551 -0.49981,-0.07769 -1.005291,-0.02461 -1.507997,-0.02845 -0.132956,-0.001 -0.252319,-0.06401 -0.310948,-0.197549 -0.174087,-0.39651 -0.03639,-0.862865 -0.242857,-1.24981 -0.110437,-0.206976 -0.344163,-0.301384 -0.570799,-0.318785 -0.389957,-0.02994 -0.784162,0.07714 -1.171208,-0.0088 -0.197998,-0.04395 -0.239511,-0.274802 -0.368067,-0.400619 -0.1731,-0.169412 -0.410046,-0.249914 -0.62715,-0.346757 -0.282262,-0.125908 -0.611648,-0.218254 -0.79899,-0.474024 -0.20784,-0.283755 -0.21312,-0.650915 -0.225015,-0.988238 -0.01097,-0.31123 -0.03607,-0.640191 -0.223592,-0.905228 -0.323638,-0.45743 -0.699436,-0.876576 -1.096654,-1.271224 -0.189,-0.187777 -0.404571,-0.34536 -0.637675,-0.475533 -1.059792,-0.591821 -2.286175,-0.806554 -3.326984,-1.44027 -0.305115,-0.185775 -0.580811,-0.41662 -0.815481,-0.688063 -0.189163,-0.218805 -0.322612,-0.497949 -0.560753,-0.66268 -0.470199,-0.325253 -0.955492,-0.628861 -1.448362,-0.918301 -0.26996,-0.158535 -0.522605,-0.354433 -0.814041,-0.469475 -0.589666,-0.232766 -1.200359,-0.407906 -1.812082,-0.571526 -0.746664,-0.199713 -1.492161,-0.422538 -2.259046,-0.523918 -0.879856,-0.116314 -1.771671,-0.0955 -2.651856,-0.211152 -0.641992,-0.08436 -1.277392,-0.252862 -1.856124,-0.55232 -0.64584,-0.334182 -1.226535,-0.795508 -1.908789,-1.05513 -0.414718,-0.157815 -0.850095,-0.265639 -1.236319,-0.495773 -0.703827,-0.41938 -1.362932,-0.948481 -2.159914,-1.178489 -0.442156,-0.127606 -0.89337,-0.222065 -1.343337,-0.3189 -0.236431,-0.05088 -0.478554,-0.03757 -0.717536,-0.01396 -0.931169,0.09199 -1.846892,0.366931 -2.789058,0.321898 -0.344686,-0.01647 -0.691254,-0.08604 -0.996542,-0.25626 -0.367557,-0.204935 -0.705193,-0.467793 -1.107489,-0.607615 -0.666184,-0.231539 -1.364357,-0.348601 -2.05736,-0.465576 -1.306959,-0.220608 -2.656635,-0.06822 -3.948839,-0.384891 -0.774068,-0.189694 -1.480984,-0.645119 -2.288355,-0.683569 -0.347751,-0.01656 -0.696178,0.0089 -1.043356,0.02879 -0.47724,0.02728 -0.949671,0.105201 -1.415404,0.213303 -0.541001,0.125572 -1.095234,0.261315 -1.648664,0.223224 -0.394389,-0.02714 -0.778529,-0.130687 -1.160931,-0.225364 -0.508955,-0.126009 -1.019917,-0.567476 -1.519053,-0.407455 -0.244865,0.0785 -0.495009,0.151994 -0.750718,0.193819 -0.7200813,0.117781 -1.4435083,-0.02841 -2.1648868,-0.05132 -0.6275035,-0.01992 -1.2536421,0.06539 -1.8634316,0.210891 -1.1935862,0.284798 -2.3503011,0.735331 -3.5806095,0.861745 -0.4975298,0.05112 -0.9940785,-0.02696 -1.49061051,-0.04972 -0.22079724,-0.01012 -0.46225712,-0.07319 -0.66272794,0.02092 -0.24163557,0.113442 -0.4612972,0.270249 -0.71461585,0.363247 -0.16850074,0.06186 -0.35477308,0.03296 -0.51314949,-0.09132 -0.0818017,-0.06419 -0.0500407,-0.151319 0.0637663,-0.118282 0.3278256,0.09516 0.63599047,0.246082 0.94810881,0.382253 0.0710781,0.03101 0.14219829,0.06192 0.21341342,0.09262"
       id="path83"
       inkscape:path-effect="#path-effect85"
       inkscape:original-d="m 62.093935,61.13251 c 0.765653,-2.010188 -2.156013,-1.066387 -2.409778,-1.426347 -0.317407,-0.450237 0.0104,-1.230358 -0.50452,-1.572221 -0.382487,-0.253944 -1.147213,0.02569 -1.585672,-0.129667 -0.181772,-0.06441 -0.22665,-0.318627 -0.378399,-0.437628 -0.359987,-0.282298 -1.194763,-0.442177 -1.423493,-0.842844 -0.299093,-0.52393 -0.05127,-1.262986 -0.34236,-1.734309 -0.264467,-0.428207 -1.142947,-1.436587 -1.567651,-1.70189 -1.259007,-0.786466 -2.709865,-0.901737 -3.928126,-1.831557 -0.394126,-0.30081 -0.640665,-0.715431 -0.973021,-1.069761 -0.09544,-0.101751 -2.044753,-1.302721 -2.252369,-1.393928 -0.722503,-0.317402 -3.427759,-1.045257 -4.288504,-1.134597 -1.232601,-0.127934 -2.420819,-0.0518 -3.621807,-0.437626 -0.860999,-0.276603 -1.61049,-0.895945 -2.43255,-1.280472 -0.42086,-0.196861 -0.894551,-0.27056 -1.297366,-0.50246 -0.857102,-0.493426 -1.518518,-1.061341 -2.504631,-1.312891 -0.343995,-0.08775 -1.17145,-0.300633 -1.477555,-0.291751 -1.155295,0.03352 -2.514581,0.536697 -3.675858,0.275545 -0.501259,-0.112723 -0.905545,-0.512262 -1.369442,-0.713176 -0.599064,-0.259459 -1.470595,-0.396791 -2.108215,-0.518671 -1.319083,-0.252143 -2.69419,-0.111093 -4.0002,-0.389004 -0.885884,-0.188507 -1.693297,-0.737126 -2.630765,-0.713171 -2.319077,0.05926 -1.772874,0.317942 -3.801996,0.470046 -0.502645,0.03768 -2.712058,-0.648266 -2.756897,-0.632132 -1.2893496,0.46392 -1.906721,0.09652 -3.3515187,0.145875 -1.8150287,0.062 -3.459608,1.035878 -5.2975644,1.085972 -0.6158123,0.01677 -1.22122971,-0.127871 -1.83793284,-0.04862 -0.14595927,0.01876 -0.93781601,0.687734 -1.24330675,0.275537 -0.22672601,-0.305919 0.37465862,-0.01005 1.22528854,0.35659" />
    <path
       style="fill:none;stroke:#000000;stroke-width:0.264583px;stroke-linecap:butt;stroke-linejoin:miter;stroke-opacity:1"
       d="m 107.6095,66.303019 c -0.37531,0.05209 -0.76152,0.06121 -1.11409,0.22873 -0.79762,0.378985 -1.44829,1.000908 -2.25645,1.365787 -0.95775,0.432418 -1.97449,0.71246 -2.93288,1.146629 -1.20692,0.546759 -2.3672,1.258605 -3.675741,1.522353 -0.78897,0.159024 -1.595861,0.04055 -2.392766,0.139941 -0.305019,0.03804 -0.601283,0.119908 -0.905803,0.16939 -0.573886,0.09325 -1.15432,0.149897 -1.734622,0.18035 -1.577832,0.0828 -3.162885,-0.325608 -4.73132,-0.03482 -2.151713,0.398927 -4.19975,1.254692 -6.385304,1.496726 -1.775512,0.196625 -3.596684,0.123039 -5.322255,0.647393 -1.792283,0.544626 -3.364974,1.592206 -4.948472,2.560304 -1.328107,0.81196 -2.727267,1.540537 -4.244977,1.93091 -1.112608,0.286176 -2.269697,0.324239 -3.412314,0.280799 -1.083661,-0.0412 -2.169049,-0.0606 -3.252643,0.01504 -1.956164,0.136548 -3.934514,0.383973 -5.886305,0.07375 -0.502749,-0.07991 -1.052788,-0.0855 -1.484015,-0.356591 -0.158919,-0.09991 -0.212197,-0.285702 -0.395901,-0.381121 -0.983605,-0.510903 -2.067384,-0.898137 -2.869482,-1.691514 -0.380954,-0.376812 -0.895497,-0.565714 -1.368945,-0.794901 -0.890516,-0.431081 -1.482142,-1.302001 -2.341332,-1.767389 -0.25661,-0.138995 -0.56692,-0.174649 -0.769708,-0.421128 -1.023661,-1.24421 -2.014721,-2.520112 -3.135978,-3.679136 -0.931222,-0.962588 -1.926547,-1.89625 -2.585522,-3.081012 -0.428584,-0.770545 -0.635881,-1.662638 -1.144042,-2.381484 -0.694158,-0.981959 -1.440987,-1.925617 -2.160903,-2.888685 -0.253995,-0.339782 -0.538969,-0.65408 -0.861912,-0.931448 -1.083414,-0.930516 -2.470508,-1.419024 -3.860442,-1.666024 -1.591456,-0.282812 -3.222403,-0.17685 -4.821215,-0.378341 -0.501835,-0.06324 -0.959345,-0.299172 -1.46751,-0.351372 -1.3181,-0.135399 -2.669618,-0.213048 -3.970256,0.106733 -1.226492,0.301551 -2.317962,1.369609 -3.570908,1.232644 -0.236118,-0.02581 -0.457388,-0.0467 -0.705393,-0.03812 -0.98262,0.034 -1.915605,0.563435 -2.89746,0.447873 -0.390398,-0.04595 -0.696039,-0.368955 -1.112923,-0.33007 -0.490672,0.04577 -0.978706,0.175055 -1.477728,0.08438 -0.765758,-0.139138 -1.5099878,-0.466995 -2.2971498,-0.427698 -0.3721166,0.01858 -0.7146038,0.180882 -1.0613216,0.302043 -0.6665961,0.232943 -1.3594521,0.392136 -2.0675766,0.434141 -1.0974555,0.0651 -2.2670655,-0.0542 -3.2750668,0.43501 -0.1906427,0.09252 -0.4816344,0.112788 -0.5589622,0.315598 -0.077748,0.203913 -0.2244989,0.340441 -0.4176691,0.455529 -0.6276994,0.373975 -1.20442844,0.836061 -1.85889613,1.162935 -0.22276071,0.111258 -0.004587,0.309139 0.07404896,0.442646 0.01463554,0.02485 0.02690665,0.05132 0.03408209,0.07934"
       id="path95"
       inkscape:path-effect="#path-effect97"
       inkscape:original-d="m 107.6095,66.303019 c -0.30632,0.04862 -0.62934,0.03491 -0.91897,0.145873 -0.70194,0.268935 -1.31247,0.826444 -1.96405,1.199427 -0.83866,0.480071 -1.84427,0.743149 -2.73889,1.10218 -1.3862,0.556321 -2.757395,1.399281 -4.216419,1.782927 -0.748332,0.196773 -1.542582,0.05723 -2.306426,0.145886 -1.767705,0.205166 -0.172127,0.143332 -2.576708,0.356581 -1.781617,0.158002 -3.400303,-0.337372 -5.189453,0.01619 -1.900343,0.375552 -3.734964,1.107813 -5.657942,1.393936 -1.980415,0.294669 -4.088988,0.141975 -6.018321,0.761802 -2.874296,0.923411 -5.093933,3.061996 -7.928335,4.10074 -2.900492,1.062966 -4.62175,0.447399 -7.369738,0.615931 -2.581614,0.158327 -5.261748,0.576053 -7.766161,-0.243131 -0.160502,-0.0525 -0.18341,-0.265808 -0.32434,-0.340381 -1.066779,-0.564475 -2.168927,-0.943192 -3.009164,-1.782937 -0.354201,-0.353994 -1.139222,-0.632376 -1.585664,-0.891458 -0.70385,-0.408461 -1.357194,-1.092989 -2.018123,-1.588431 -0.225557,-0.169082 -0.593172,-0.167262 -0.774811,-0.389004 -0.878723,-1.072727 -1.772338,-2.189226 -2.70284,-3.225498 -0.866312,-0.964785 -1.822196,-1.775823 -2.594727,-2.836482 -0.656719,-0.901652 -1.115867,-2.109081 -1.603684,-3.112024 -0.0868,-0.178464 -2.346831,-3.178905 -2.594727,-3.436196 -2.346256,-2.435194 -5.946486,-2.289469 -9.045506,-2.463692 -0.485059,-0.02727 -0.916271,-0.287401 -1.387454,-0.340378 -1.031282,-0.115957 -2.201717,-0.202203 -3.225389,-0.08105 -1.61641,0.191312 -2.919179,0.934776 -4.450677,1.393931 -0.189321,0.05676 -0.376526,-0.143695 -0.64868,-0.03241 -0.984742,0.0086 -1.930263,0.453851 -2.918023,0.453851 -0.386887,0 -0.694282,-0.349111 -1.063122,-0.340379 -0.429354,0.01016 -0.886605,0.164734 -1.315376,0.129668 -0.809321,-0.06619 -2.1684071,-0.661312 -2.9370909,-0.405213 -0.8011646,0.26692 -1.5558089,0.571092 -2.4145345,0.648338 -1.38722,0.124787 -2.8051649,-0.04176 -4.0903002,0.680758 -0.1777576,0.09994 -0.1556555,0.336471 -0.3243404,0.437627 -0.1600334,0.09597 -2.16226705,1.243958 -2.16226705,1.39393 0,0.153097 0.17817934,0.256917 0.21622487,0.405212" />
    <path
       style="fill:none;stroke:#000000;stroke-width:0.264583px;stroke-linecap:butt;stroke-linejoin:miter;stroke-opacity:1"
       d="m 120.33683,68.215615 c 0.81177,0.188699 1.65676,0.202414 2.48149,0.09825 1.06178,-0.134106 2.09015,-0.44712 3.10187,-0.785793 0.62049,-0.207709 1.23974,-0.419184 1.86281,-0.619163 1.20634,-0.387182 2.42918,-0.746956 3.57323,-1.296003 0.13059,-0.06267 0.26797,-0.11482 0.38558,-0.201511 0.16179,-0.119251 0.29712,-0.277748 0.48226,-0.362288 0.11757,-0.05369 0.23919,-0.09805 0.35912,-0.146152 0.37438,-0.150177 0.75571,-0.293805 1.09612,-0.514117 0.29111,-0.188407 0.5359,-0.441196 0.73854,-0.721049 0.11851,-0.163663 0.22718,-0.334141 0.3447,-0.498554 0.20796,-0.290929 0.42673,-0.582757 0.70928,-0.802998 0.0931,-0.07258 0.2072,-0.115519 0.29248,-0.198895 0.029,-0.02838 0.0382,-0.07442 0.0147,-0.110944 -0.0645,-0.100693 -0.17679,-0.162242 -0.29332,-0.18057 -0.17895,-0.02815 -0.36042,0.0089 -0.53287,0.05567 -0.27832,0.0755 -0.54005,0.20151 -0.81696,0.280607 -0.0595,0.01701 -0.1197,0.04502 -0.18179,0.04004 -0.0922,-0.0074 -0.17677,-0.04971 -0.25906,-0.08865 -0.14193,-0.06717 -0.27313,-0.158802 -0.42213,-0.209002 -0.15919,-0.05363 -0.32973,-0.05915 -0.49621,-0.05373 -0.27038,0.0088 -0.53806,0.05375 -0.80881,0.05851 -0.13037,0.0023 -0.25457,-0.05587 -0.35153,-0.140723 -0.17962,-0.157187 -0.29221,-0.385392 -0.49966,-0.510206 -0.17822,-0.107229 -0.37593,-0.177449 -0.57477,-0.235236 -0.30145,-0.08761 -0.60972,-0.152111 -0.92082,-0.193152 -0.50267,-0.06631 -1.01147,-0.01364 -1.50942,0.06563 -0.59372,0.09451 -1.1869,0.223002 -1.79096,0.219344 -0.59736,-0.0036 -1.19439,-0.03147 -1.79183,-0.02846 -0.68868,0.0035 -1.38222,0.0284 -2.0585,0.166861 -0.43053,0.08815 -0.86355,0.21526 -1.23245,0.460111 -0.14451,0.09592 -0.28291,0.206702 -0.38368,0.349934 -0.21305,0.302816 -0.31625,0.663949 -0.50109,0.982647 -0.25713,0.443348 -0.59703,0.837051 -0.81218,1.304735 -0.0902,0.196186 -0.17167,0.404108 -0.17993,0.620631 -0.005,0.143323 0.0702,0.271999 0.14059,0.391364 0.0631,0.106892 0.13932,0.211426 0.16351,0.335759 0.0113,0.05804 -0.005,0.116165 -0.0279,0.169803 -0.0474,0.111867 -0.10459,0.219182 -0.15993,0.327962 -0.0132,0.02593 -0.0616,0.02436 -0.0638,0.04784 -0.0111,0.116335 -0.019,0.23306 -0.0317,0.349294"
       id="path99"
       inkscape:path-effect="#path-effect101"
       inkscape:original-d="m 120.33683,68.215615 c 2.43727,0.561276 4.78059,-0.442606 7.06342,-1.183214 1.42289,-0.461619 2.81389,-0.876644 4.18039,-1.523603 0.26878,-0.127249 0.41158,-0.36866 0.70274,-0.486251 1.07284,-0.433282 1.61896,-0.574006 2.25236,-1.523598 0.278,-0.416769 0.53773,-0.775444 0.91897,-1.118383 0.11365,-0.102227 0.40917,-0.197006 0.32435,-0.32417 -0.33223,-0.498076 -1.38151,0.131471 -1.8019,0.194503 -0.15172,0.02275 -0.56936,-0.260345 -0.73878,-0.307967 -0.39129,-0.109985 -0.90223,0.02238 -1.27933,0.01622 -0.40999,-0.0067 -0.53928,-0.475573 -0.86491,-0.664549 -0.36112,-0.209569 -0.99017,-0.34295 -1.40548,-0.405212 -1.15439,-0.173061 -2.20908,0.275545 -3.35152,0.275545 -1.3933,0 -4.18158,-0.25822 -5.33361,0.778005 -0.27992,0.251788 -0.4192,0.72812 -0.59462,1.053557 -0.35432,0.657357 -0.94519,1.229622 -1.0451,1.993638 -0.0438,0.334711 0.3952,0.625208 0.28831,0.891469 -0.32427,0.807749 -0.19541,0.02093 -0.27029,0.761804" />
    <path
       style="fill:none;stroke:#000000;stroke-width:0.264583px;stroke-linecap:butt;stroke-linejoin:miter;stroke-opacity:1"
       d="m 137.85123,47.792928 c 0.81093,-0.902172 1.41195,-1.964897 1.98276,-3.028479 0.35283,-0.657421 0.67106,-1.335907 1.07554,-1.963206 0.29856,-0.463036 0.67155,-0.879336 0.91309,-1.37844 0.10503,-0.217024 0.14724,-0.456151 0.20049,-0.689228 0.26939,-1.179168 0.40891,-2.382323 0.60254,-3.575175 0.19421,-1.196429 0.70168,-2.317503 0.87454,-3.51895 0.12008,-0.834592 0.10281,-1.685165 0.26582,-2.513875 0.22114,-1.12423 0.80118,-2.138431 1.04301,-3.256616 0.17121,-0.791657 0.13807,-1.611606 0.306,-2.403374 0.18492,-0.871858 0.63076,-1.656425 0.88575,-2.506067 0.40477,-1.348714 0.40675,-2.779439 0.80382,-4.130346 0.21,-0.714454 0.58669,-1.362924 0.96704,-1.997993 0.23327,-0.38949 0.4838,-0.770779 0.6775,-1.181825 0.27055,-0.574132 0.4185,-1.19552 0.55413,-1.812653 0.0744,-0.338484 0.11833,-0.684425 0.21492,-1.017229 0.161,-0.554705 0.46322,-1.078569 0.51653,-1.653833 0.006,-0.05999 0.0775,-0.202882 0.0181,-0.19767 -0.3988,0.03498 -0.76225,0.219069 -1.11649,0.391957 -0.3263,0.159251 -0.65559,0.343001 -1.02147,0.38158 -0.92722,0.09777 -1.85564,-0.04659 -2.78344,-0.05379 -0.41869,-0.0032 -0.84346,0.0037 -1.25138,0.103406 -0.5001,0.122233 -0.95003,0.383508 -1.39238,0.637844 -0.35148,0.202087 -0.71967,0.371543 -1.08069,0.558392 -0.21064,0.109018 -0.40137,0.254924 -0.57362,0.416535 -0.15025,0.140966 -0.30026,0.291435 -0.39169,0.479663 -0.0363,0.07479 -0.0199,0.158173 0.006,0.23467 0.0591,0.173285 0.21077,0.30168 0.38346,0.355104 0.27792,0.08598 0.57495,0.06056 0.85879,0.02414 0.54834,-0.07036 1.0836,-0.22945 1.63607,-0.266782 0.0449,-0.003 0.0899,-0.005 0.13498,-0.0055"
       id="path103"
       inkscape:path-effect="#path-effect105"
       inkscape:original-d="m 137.85123,47.792928 c 1.29726,-1.445265 2.03754,-3.250597 3.00916,-4.91117 0.28089,-0.48007 0.91782,-1.161269 1.06311,-1.734309 0.31732,-1.251535 0.50432,-2.598751 0.68473,-3.873825 0.15468,-1.093248 0.61513,-2.164411 0.82887,-3.257907 0.17475,-0.894072 0.15387,-1.771412 0.2883,-2.658192 0.1781,-1.174795 0.75952,-2.18508 1.0451,-3.322738 0.1973,-0.785987 0.17714,-1.574194 0.30632,-2.366438 0.15007,-0.920379 0.60117,-1.704187 0.88293,-2.577149 0.45208,-1.400698 0.42966,-2.929375 0.86491,-4.327667 0.34302,-1.102006 1.01183,-1.961401 1.54963,-2.966151 0.44022,-0.82243 0.6289,-1.992417 0.82887,-2.917527 0.0646,-0.298701 0.644,-1.919187 0.55858,-1.912601 -0.76176,0.05873 -1.46749,0.706776 -2.18029,0.778009 -1.26927,0.126846 -2.5969,-0.196161 -3.85605,0.01621 -0.88705,0.14961 -1.75496,0.886013 -2.59472,1.215638 -0.23427,0.09196 -1.08053,0.748151 -1.00906,1.053551 0.23135,0.988524 2.02432,0.205797 3.03949,0.194502" />
  </g>
</svg>
