<?xml version="1.0" encoding="UTF-8" standalone="no"?>
<!-- Created with Inkscape (http://www.inkscape.org/) -->

<svg
   width="353.56799mm"
   height="264.16mm"
   viewBox="0 0 353.56799 264.16"
   version="1.1"
   id="svg5"
   inkscape:version="1.1.2 (08b2f3d93c, 2022-04-05)"
   sodipodi:docname="Nucleo.svg"
   xmlns:inkscape="http://www.inkscape.org/namespaces/inkscape"
   xmlns:sodipodi="http://sodipodi.sourceforge.net/DTD/sodipodi-0.dtd"
   xmlns="http://www.w3.org/2000/svg"
   xmlns:svg="http://www.w3.org/2000/svg">
  <sodipodi:namedview
     id="namedview7"
     pagecolor="#ffffff"
     bordercolor="#666666"
     borderopacity="1.0"
     inkscape:pageshadow="2"
     inkscape:pageopacity="0.0"
     inkscape:pagecheckerboard="0"
     inkscape:document-units="mm"
     showgrid="false"
     inkscape:zoom="0.3786895"
     inkscape:cx="1024.5861"
     inkscape:cy="510.97272"
     inkscape:window-width="1366"
     inkscape:window-height="704"
     inkscape:window-x="0"
     inkscape:window-y="27"
     inkscape:window-maximized="1"
     inkscape:current-layer="layer2" />
  <defs
     id="defs2">
    <inkscape:path-effect
       effect="simplify"
       id="path-effect137"
       is_visible="true"
       lpeversion="1"
       steps="1"
       threshold="0.000408163"
       smooth_angles="360"
       helper_size="0"
       simplify_individual_paths="false"
       simplify_just_coalesce="false" />
    <inkscape:path-effect
       effect="simplify"
       id="path-effect133"
       is_visible="true"
       lpeversion="1"
       steps="1"
       threshold="0.000408163"
       smooth_angles="360"
       helper_size="0"
       simplify_individual_paths="false"
       simplify_just_coalesce="false" />
    <inkscape:path-effect
       effect="simplify"
       id="path-effect129"
       is_visible="true"
       lpeversion="1"
       steps="1"
       threshold="0.000408163"
       smooth_angles="360"
       helper_size="0"
       simplify_individual_paths="false"
       simplify_just_coalesce="false" />
    <inkscape:path-effect
       effect="simplify"
       id="path-effect125"
       is_visible="true"
       lpeversion="1"
       steps="1"
       threshold="0.000408163"
       smooth_angles="360"
       helper_size="0"
       simplify_individual_paths="false"
       simplify_just_coalesce="false" />
    <inkscape:path-effect
       effect="simplify"
       id="path-effect121"
       is_visible="true"
       lpeversion="1"
       steps="1"
       threshold="0.000408163"
       smooth_angles="360"
       helper_size="0"
       simplify_individual_paths="false"
       simplify_just_coalesce="false" />
    <inkscape:path-effect
       effect="simplify"
       id="path-effect117"
       is_visible="true"
       lpeversion="1"
       steps="1"
       threshold="0.000408163"
       smooth_angles="360"
       helper_size="0"
       simplify_individual_paths="false"
       simplify_just_coalesce="false" />
    <inkscape:path-effect
       effect="simplify"
       id="path-effect113"
       is_visible="true"
       lpeversion="1"
       steps="1"
       threshold="0.000408163"
       smooth_angles="360"
       helper_size="0"
       simplify_individual_paths="false"
       simplify_just_coalesce="false" />
    <inkscape:path-effect
       effect="simplify"
       id="path-effect109"
       is_visible="true"
       lpeversion="1"
       steps="1"
       threshold="0.000408163"
       smooth_angles="360"
       helper_size="0"
       simplify_individual_paths="false"
       simplify_just_coalesce="false" />
    <inkscape:path-effect
       effect="simplify"
       id="path-effect105"
       is_visible="true"
       lpeversion="1"
       steps="1"
       threshold="0.000408163"
       smooth_angles="360"
       helper_size="0"
       simplify_individual_paths="false"
       simplify_just_coalesce="false" />
    <inkscape:path-effect
       effect="simplify"
       id="path-effect101"
       is_visible="true"
       lpeversion="1"
       steps="1"
       threshold="0.000408163"
       smooth_angles="360"
       helper_size="0"
       simplify_individual_paths="false"
       simplify_just_coalesce="false" />
    <inkscape:path-effect
       effect="simplify"
       id="path-effect97"
       is_visible="true"
       lpeversion="1"
       steps="1"
       threshold="0.000408163"
       smooth_angles="360"
       helper_size="0"
       simplify_individual_paths="false"
       simplify_just_coalesce="false" />
    <inkscape:path-effect
       effect="simplify"
       id="path-effect93"
       is_visible="true"
       lpeversion="1"
       steps="1"
       threshold="0.000408163"
       smooth_angles="360"
       helper_size="0"
       simplify_individual_paths="false"
       simplify_just_coalesce="false" />
    <inkscape:path-effect
       effect="simplify"
       id="path-effect89"
       is_visible="true"
       lpeversion="1"
       steps="1"
       threshold="0.000408163"
       smooth_angles="360"
       helper_size="0"
       simplify_individual_paths="false"
       simplify_just_coalesce="false" />
    <inkscape:path-effect
       effect="simplify"
       id="path-effect85"
       is_visible="true"
       lpeversion="1"
       steps="1"
       threshold="0.000408163"
       smooth_angles="360"
       helper_size="0"
       simplify_individual_paths="false"
       simplify_just_coalesce="false" />
    <inkscape:path-effect
       effect="simplify"
       id="path-effect81"
       is_visible="true"
       lpeversion="1"
       steps="1"
       threshold="0.000408163"
       smooth_angles="360"
       helper_size="0"
       simplify_individual_paths="false"
       simplify_just_coalesce="false" />
    <inkscape:path-effect
       effect="simplify"
       id="path-effect77"
       is_visible="true"
       lpeversion="1"
       steps="1"
       threshold="0.000408163"
       smooth_angles="360"
       helper_size="0"
       simplify_individual_paths="false"
       simplify_just_coalesce="false" />
    <inkscape:path-effect
       effect="simplify"
       id="path-effect73"
       is_visible="true"
       lpeversion="1"
       steps="1"
       threshold="0.000408163"
       smooth_angles="360"
       helper_size="0"
       simplify_individual_paths="false"
       simplify_just_coalesce="false" />
    <inkscape:path-effect
       effect="simplify"
       id="path-effect69"
       is_visible="true"
       lpeversion="1"
       steps="1"
       threshold="0.000408163"
       smooth_angles="360"
       helper_size="0"
       simplify_individual_paths="false"
       simplify_just_coalesce="false" />
    <inkscape:path-effect
       effect="simplify"
       id="path-effect65"
       is_visible="true"
       lpeversion="1"
       steps="1"
       threshold="0.000408163"
       smooth_angles="360"
       helper_size="0"
       simplify_individual_paths="false"
       simplify_just_coalesce="false" />
    <inkscape:path-effect
       effect="simplify"
       id="path-effect61"
       is_visible="true"
       lpeversion="1"
       steps="1"
       threshold="0.000408163"
       smooth_angles="360"
       helper_size="0"
       simplify_individual_paths="false"
       simplify_just_coalesce="false" />
    <inkscape:path-effect
       effect="simplify"
       id="path-effect57"
       is_visible="true"
       lpeversion="1"
       steps="1"
       threshold="0.000408163"
       smooth_angles="360"
       helper_size="0"
       simplify_individual_paths="false"
       simplify_just_coalesce="false" />
  </defs>
  <g
     inkscape:groupmode="layer"
     id="layer2"
     inkscape:label="Nucleo">
    <path
       style="fill:none;stroke:#000000;stroke-width:0.264583px;stroke-linecap:butt;stroke-linejoin:miter;stroke-opacity:1"
       d="m 167.77463,255.76586 c -0.67516,-0.20402 -1.30608,-0.5545 -1.83027,-1.02789 -0.61431,-0.55478 -1.07134,-1.25786 -1.45765,-1.98379 -0.31588,-0.59359 -0.60478,-1.20105 -0.88618,-1.8115 -0.40291,-0.87406 -0.63555,-1.81879 -1.0891,-2.67113 -0.24937,-0.46863 -0.58819,-0.88301 -0.95809,-1.26151 -0.59786,-0.61176 -1.28375,-1.13515 -1.84205,-1.7854 -0.53076,-0.61818 -0.90645,-1.35445 -1.46725,-1.94925 -0.23424,-0.24844 -0.51169,-0.45126 -0.80211,-0.62916 -0.48859,-0.29929 -1.02259,-0.53563 -1.45369,-0.91935 -0.16903,-0.15045 -0.32704,-0.31271 -0.49362,-0.46592 -0.65438,-0.60186 -1.35551,-1.16675 -2.14994,-1.57314 -0.57381,-0.29353 -1.20861,-0.50083 -1.85978,-0.48938 -0.51849,0.009 -1.02839,0.18348 -1.45405,0.47803 -0.34251,0.23701 -0.64426,0.53399 -0.88632,0.87212 -0.31295,0.43715 -0.47164,0.96502 -0.54555,1.49248 -0.0987,0.70415 -0.071,1.41754 -0.043,2.12534 0.0401,1.01323 0.11672,2.03291 0.3666,3.01897 0.182,0.71819 0.48244,1.40795 0.9041,2.0186 0.55625,0.80557 1.28579,1.47083 2.03191,2.09647 0.5792,0.48568 1.18415,0.9392 1.77664,1.40825 1.2078,0.95617 2.35614,1.9931 3.64866,2.83785 0.47568,0.31089 0.97797,0.57756 1.48112,0.84149 0.72649,0.38109 1.39715,0.85645 2.09608,1.28386 0.65054,0.39782 1.32844,0.7705 2.06754,0.97527 0.38383,0.10634 0.78347,0.15 1.18184,0.13747 0.50083,-0.0158 1.01014,-0.10892 1.45341,-0.3534 0.40315,-0.22235 0.72095,-0.56815 0.98916,-0.93713 0.14542,-0.20006 0.2659,-0.4168 0.40534,-0.62082 0.20317,-0.29727 0.52132,-0.49544 0.71235,-0.80244 0.0761,-0.12238 0.11081,-0.26674 0.10817,-0.41075 -0.006,-0.3439 -0.0782,-0.68283 -0.15924,-1.01559 -0.21955,-0.90193 -0.51237,-1.78436 -0.82919,-2.65615 -0.44579,-1.22669 -0.92483,-2.44335 -1.49099,-3.61967 -0.23712,-0.49267 -0.48039,-0.98471 -0.77904,-1.44377 -0.15851,-0.24365 -0.3648,-0.45108 -0.57196,-0.6529 -0.62548,-0.60936 -1.37747,-1.08031 -2.18242,-1.41514 -1.05909,-0.44054 -2.19081,-0.66125 -3.31311,-0.87266 -0.36152,-0.0681 -0.72326,-0.13518 -1.08401,-0.2073"
       id="path55"
       inkscape:path-effect="#path-effect57"
       inkscape:original-d="m 167.77463,255.76586 c -2.37068,-0.72674 -3.15657,-2.70865 -4.12405,-4.71696 -0.48321,-1.00307 -0.71152,-2.12402 -1.31096,-3.07094 -0.65969,-1.0421 -1.72025,-1.75206 -2.53998,-2.65329 -0.6392,-0.70273 -1.03622,-1.59543 -1.74793,-2.23563 -0.6596,-0.59333 -1.55277,-0.85596 -2.18494,-1.47405 -1.6877,-1.65013 -4.50697,-3.82748 -6.63672,-1.17924 -0.76087,0.94611 -0.71507,2.33142 -0.68278,3.46401 0.13168,4.61888 1.09096,5.72304 4.72491,8.52491 1.85002,1.42642 3.25565,2.85001 5.38039,3.90623 1.59476,0.79276 3.35739,2.45675 5.27113,2.45675 1.63171,0 2.2719,-0.65936 3.00428,-1.86714 0.24746,-0.4081 0.80437,-0.67926 0.84665,-1.15465 0.12307,-1.38381 -2.46684,-7.98279 -3.44127,-9.08997 -1.89364,-2.15162 -4.37713,-2.38178 -6.96445,-2.89897" />
    <path
       style="fill:none;stroke:#000000;stroke-width:0.264583px;stroke-linecap:butt;stroke-linejoin:miter;stroke-opacity:1"
       d="m 65.438093,192.89771 c -1.262805,-0.30698 -2.454232,-0.86422 -3.545974,-1.56408 -1.70765,-1.09468 -3.180376,-2.50099 -4.781403,-3.73724 -0.631953,-0.48797 -1.297295,-0.93033 -1.974937,-1.35301 -0.901192,-0.56212 -1.721037,-1.24976 -2.655235,-1.7596 -0.649508,-0.35447 -1.363516,-0.57759 -2.085479,-0.72667 -0.917398,-0.18944 -1.86502,-0.27598 -2.797777,-0.166 -0.650647,0.0767 -1.309003,0.24692 -1.8557,0.61999 -0.427198,0.29152 -0.753166,0.70317 -1.041989,1.12617 -0.372825,0.54603 -0.698173,1.12193 -1.062991,1.6735 -0.379339,0.57352 -0.721491,1.18738 -0.878314,1.86294 -0.123966,0.53402 -0.105277,1.0984 0.04644,1.62462 0.129551,0.44932 0.323543,0.87769 0.532093,1.29489 0.604804,1.20991 1.343138,2.34825 2.128214,3.44761 1.343913,1.88191 2.818203,3.67119 4.40818,5.34988 1.191205,1.25767 2.431749,2.47793 3.805524,3.53599 0.706829,0.54439 1.439798,1.07136 2.256734,1.43714 0.801721,0.35897 1.687733,0.47873 2.559442,0.49457 1.119664,0.0203 2.235036,-0.0944 3.347898,-0.19864 1.058265,-0.0992 2.076227,-0.48594 2.979216,-1.03716 1.022128,-0.62395 1.929284,-1.45729 2.57282,-2.47089 0.340966,-0.53704 0.611166,-1.12545 0.742098,-1.75069 0.17269,-0.82465 0.204233,-1.67397 0.155386,-2.51292 -0.05724,-0.98314 -0.206348,-1.96873 -0.530333,-2.90069 -0.193833,-0.55757 -0.447811,-1.10532 -0.832878,-1.55903 -0.192978,-0.22738 -0.481592,-0.33493 -0.756428,-0.42742 -0.28147,-0.0947 -0.571385,-0.18369 -0.815229,-0.36201 -1.136023,-0.83075 -2.285323,-1.64425 -3.397547,-2.5067 -0.02582,-0.02 -0.08543,-0.0604 -0.02721,-0.0164 0.0249,0.0188 0.101876,0.10681 0.02759,0.0787 -0.176908,-0.0669 -0.340328,-0.16497 -0.503442,-0.25949 -1.103489,-0.63946 -2.169101,-1.34117 -3.250535,-2.01663 -0.963757,-0.60196 -1.942897,-1.19827 -3.01061,-1.5989 -0.782034,-0.29344 -1.627935,-0.46222 -2.465069,-0.36248 -0.784761,0.0935 -1.520245,0.44661 -2.139162,0.93023 -0.582749,0.45536 -1.076349,1.01504 -1.513046,1.6093"
       id="path59"
       inkscape:path-effect="#path-effect61"
       inkscape:original-d="m 65.438093,192.89771 c -4.292438,-1.05633 -6.618343,-4.4439 -10.18722,-6.58409 -0.978442,-0.58675 -2.05323,-1.50601 -3.086216,-1.98996 -1.679874,-0.78702 -5.054203,-1.28253 -6.636713,0.0491 -0.744358,0.62637 -1.27063,1.72373 -1.802564,2.50588 -0.853726,1.2553 -1.373894,2.4343 -0.819349,3.93078 1.518677,4.09827 8.869744,12.79197 12.945692,14.71592 1.779982,0.8402 4.006382,0.47205 5.871991,0.34394 2.537417,-0.17424 5.315667,-2.19489 6.22705,-4.61868 0.72195,-1.92 0.349782,-6.0915 -1.037846,-7.64048 -0.364294,-0.40665 -1.018037,-0.41342 -1.474825,-0.71245 -6.931033,-5.0471 -0.594966,-0.62507 -5.544253,-3.70969 -3.838689,-2.39244 -7.328731,-5.24646 -10.815386,-0.49135" />
    <path
       style="fill:none;stroke:#000000;stroke-width:0.264583px;stroke-linecap:butt;stroke-linejoin:miter;stroke-opacity:1"
       d="m 6.7181721,229.18385 c -1.2078408,-0.53956 -2.4512675,-1.01413 -3.7443765,-1.30607 -0.5435659,-0.12272 -1.0967117,-0.19362 -1.6480877,-0.27187 -0.1610045,-0.0229 -0.32708283,-0.0294 -0.48101662,-0.0835 -0.0472079,-0.0166 -0.11734771,-0.0331 -0.12305424,-0.0889 -0.005787,-0.0566 0.0343551,-0.11109 0.0820823,-0.13647 0.087316,-0.0464 0.19236949,-0.0242 0.28028294,0.007 0.2254567,0.0801 0.4273959,0.21355 0.6198681,0.35289 0.4655369,0.33703 0.8929962,0.72292 1.3132701,1.11399 0.1875215,0.17449 0.3472789,0.38158 0.5549865,0.53142 0.5920388,0.4271 1.2181308,0.81778 1.9025029,1.07988 0.7104498,0.27209 1.4616298,0.41406 2.2092634,0.53852 0.3494841,0.0582 0.6986632,0.12343 1.0531421,0.14456 0.6548613,0.039 1.3118366,-0.0564 1.9422366,-0.23163 0.625408,-0.17385 1.231545,-0.40975 1.828234,-0.66316 0.625047,-0.26545 1.229504,-0.60738 1.714915,-1.0889 0.374171,-0.37117 0.655544,-0.83283 0.820222,-1.33343 0.212082,-0.6447 0.248598,-1.33355 0.207513,-2.00648 -0.03076,-0.50377 -0.09679,-1.00463 -0.17045,-1.50363 -0.154536,-1.04682 -0.343285,-2.09068 -0.621526,-3.11211 -0.162732,-0.59739 -0.344685,-1.19384 -0.616354,-1.75169 -0.139109,-0.28565 -0.310459,-0.55777 -0.532295,-0.78806 -0.421974,-0.43805 -0.960259,-0.75192 -1.532586,-0.95059 -0.74279,-0.25784 -1.53138,-0.34315 -2.3123534,-0.38713 -0.8751754,-0.0493 -1.754357,-0.0271 -2.6269096,-0.11822 -1.0247351,-0.10697 -2.0212132,-0.39077 -3.0449114,-0.5051 -0.62599,-0.0699 -1.2635439,-0.0549 -1.8819328,0.0746 -0.236595,0.0495 -0.4687639,0.12272 -0.6857074,0.23046 -0.51658095,0.25654 -0.96105421,0.64862 -1.30301087,1.1107 -0.30967404,0.41846 -0.54536741,0.90386 -0.61619187,1.42333 -0.0457449,0.33552 -0.0131436,0.68499 0.12004576,0.9981"
       id="path63"
       inkscape:path-effect="#path-effect65"
       inkscape:original-d="m 6.7181721,229.18385 c -1.3595791,-0.60686 -2.7378532,-1.12804 -4.2059884,-1.40034 -1.2615504,-0.23398 -1.90602141,-0.18241 -1.77525391,-0.41765 0.33590681,-0.60428 2.76571801,1.88723 2.84040621,1.94083 1.6002613,1.14852 2.4337366,1.33872 4.5883496,1.69515 1.5562196,0.25745 2.8349294,-0.21572 4.2332944,-0.78615 2.34017,-0.95462 3.079867,-2.39444 2.813096,-4.93807 -0.15729,-1.49973 -0.768854,-5.42881 -1.802565,-6.58407 -1.680603,-1.87823 -4.6919507,-1.30005 -6.8552115,-1.59689 -1.6922488,-0.2322 -3.1606167,-0.79726 -4.8614595,-0.34395 -1.43377046,0.38214 -2.864902,2.29145 -2.26686658,3.70969" />
    <path
       style="fill:none;stroke:#000000;stroke-width:0.264583px;stroke-linecap:butt;stroke-linejoin:miter;stroke-opacity:1"
       d="m 134.20867,96.755613 c -0.0599,1.311721 -0.23595,2.620715 -0.17906,3.935807 0.0349,0.80746 0.16757,1.62105 0.49171,2.3665 0.27325,0.62842 0.7025,1.18036 1.21428,1.63548 0.24773,0.2203 0.54178,0.37967 0.83677,0.52627 0.70628,0.35099 1.4432,0.6373 2.18992,0.88913 0.9779,0.32979 1.9742,0.61478 2.99226,0.78814 0.5819,0.0991 1.17352,0.1806 1.76435,0.14192 0.3069,-0.0201 0.6233,-0.0636 0.89653,-0.21343 0.13469,-0.0739 0.24763,-0.1851 0.32399,-0.31979 0.50301,-0.88726 0.8308,-1.86929 0.98978,-2.87585 0.19152,-1.21257 0.14144,-2.4507 -0.0224,-3.663609 -0.0489,-0.362376 -0.12276,-0.720813 -0.1782,-1.082175 -0.0599,-0.390231 -0.0862,-0.784536 -0.12656,-1.177029 -0.0524,-0.509031 -0.104,-1.022157 -0.24356,-1.51576 -0.0717,-0.253705 -0.15435,-0.515314 -0.32367,-0.720991 -0.0984,-0.119526 -0.21186,-0.225964 -0.3256,-0.330592 -0.48567,-0.446742 -1.06664,-0.784507 -1.68742,-1.006211 -0.78411,-0.280035 -1.61711,-0.384188 -2.44364,-0.442195 -0.72334,-0.05076 -1.44833,-0.07265 -2.17151,-0.126928 -1.05623,-0.07928 -2.11694,-0.181924 -3.17645,-0.105951 -0.6759,0.04847 -1.35629,0.165359 -1.98001,0.437396 -0.5148,0.224532 -0.94661,0.61248 -1.26707,1.070026 -0.4094,0.584526 -0.66077,1.267938 -0.79759,1.9647 -0.13725,0.698954 -0.172,1.420461 -0.0806,2.12757 0.0311,0.24109 0.0795,0.480811 0.16121,0.71035 0.19096,0.536179 0.50995,1.013319 0.73917,1.532199"
       id="path67"
       inkscape:path-effect="#path-effect69"
       inkscape:original-d="m 134.20867,96.755613 c -0.12647,2.79717 -0.82815,5.997417 1.61141,8.008997 1.21138,0.99886 8.02937,3.30416 8.90357,1.76885 1.35128,-2.37318 1.30483,-4.98448 0.81935,-7.566774 -0.15884,-0.844852 -0.14175,-2.902998 -0.76474,-3.562287 -1.61293,-1.706917 -3.7282,-1.676942 -5.87199,-1.793425 -1.82609,-0.09922 -4.00062,-0.455105 -5.76275,0.245671 -2.01433,0.801071 -2.54327,3.734559 -2.18491,5.52768 0.13685,0.684785 0.56443,1.277505 0.84665,1.916265" />
    <path
       style="fill:none;stroke:#000000;stroke-width:0.264583px;stroke-linecap:butt;stroke-linejoin:miter;stroke-opacity:1"
       d="m 160.07277,133.48398 c -0.28262,0.73544 -0.69408,1.41897 -0.9119,2.17964 -0.13631,0.47602 -0.17268,0.97577 -0.16423,1.46865 0.0186,1.08844 0.25572,2.16345 0.60199,3.1916 0.45837,1.36101 1.09398,2.66336 1.89004,3.85817 0.54978,0.82517 1.15876,1.62499 1.91266,2.2729 0.33735,0.28992 0.67217,0.58588 1.04105,0.83532 0.16165,0.10931 0.3348,0.21836 0.53303,0.2402 0.15703,0.0173 0.30876,0.0665 0.45007,0.13631 0.3424,0.16924 0.65765,0.3877 0.96725,0.60972 0.52263,0.37478 0.95971,0.85794 1.32103,1.38795 0.52919,0.77626 0.91852,1.64071 1.48248,2.39414 0.12096,0.1616 0.23167,0.3353 0.38214,0.47003 0.13515,0.12101 0.31126,0.18294 0.48328,0.22983 0.41049,0.11189 0.8493,0.1345 1.26392,0.0263 0.54807,-0.14301 1.0167,-0.49939 1.38246,-0.92245 0.50157,-0.58015 0.85646,-1.27285 1.12383,-1.98728 0.29615,-0.79133 0.49642,-1.61862 0.59783,-2.45775 0.0536,-0.4435 0.0463,-0.89079 0.0402,-1.33641 -0.008,-0.57792 -0.0193,-1.15612 -0.0556,-1.73308 -0.009,-0.14303 -0.0314,-0.28438 -0.0625,-0.42462 -0.13404,-0.60344 -0.34911,-1.19261 -0.67467,-1.72038 -0.34114,-0.55302 -0.77679,-1.03812 -1.15372,-1.56589 -0.50481,-0.70682 -0.88718,-1.49066 -1.24812,-2.27783 -0.50673,-1.10513 -0.97371,-2.23606 -1.63335,-3.26246 -0.3286,-0.5113 -0.71561,-0.98556 -1.15875,-1.40217 -0.38045,-0.35767 -0.78289,-0.69288 -1.20876,-0.99429 -0.54639,-0.38671 -1.10665,-0.75344 -1.66787,-1.1181 -1.24393,-0.80827 -2.48954,-1.61584 -3.77304,-2.35999 -0.43504,-0.25223 -0.86282,-0.52298 -1.32594,-0.72019 -0.0965,-0.0411 -0.19358,-0.0879 -0.29823,-0.10336"
       id="path71"
       inkscape:path-effect="#path-effect73"
       inkscape:original-d="m 160.07277,133.48398 c -0.33685,0.87623 -0.86894,1.7007 -1.01054,2.62872 -0.50832,3.33135 1.99664,8.33569 4.42448,10.41659 2.05839,1.76423 0.90212,0.32387 2.86771,1.71973 1.64512,1.16828 1.94641,2.82515 3.19546,4.25017 0.18799,0.21447 0.69728,0.31574 0.95591,0.34394 2.65291,0.28922 3.88344,-3.94009 3.96017,-5.89618 0.0212,-0.54011 -0.0133,-2.54225 -0.0819,-2.87439 -0.448,-2.16785 -1.36513,-2.47453 -2.3488,-4.20105 -0.85098,-1.49361 -1.38602,-3.15913 -2.29418,-4.61868 -0.70735,-1.13682 -1.35966,-1.70987 -2.40342,-2.50588 -0.63154,-0.48164 -6.4571,-4.28136 -7.12832,-4.34845" />
    <path
       style="fill:none;stroke:#000000;stroke-width:0.264583px;stroke-linecap:butt;stroke-linejoin:miter;stroke-opacity:1"
       d="m 85.594051,45.409603 c -0.238755,1.491064 -0.204638,3.023005 0.08627,4.504755 0.338201,1.722641 1.014979,3.359772 1.825502,4.910327 0.870159,1.66464 1.877528,3.251633 2.875373,4.841176 0.633819,1.009659 1.293495,2.016375 2.131907,2.870692 0.63209,0.644081 1.385843,1.184921 2.241979,1.488047 0.866171,0.306679 1.8164,0.367272 2.712622,0.185804 0.562324,-0.11386 1.083195,-0.378191 1.557394,-0.69381 0.721401,-0.480153 1.367902,-1.075204 1.899962,-1.758632 0.36108,-0.463806 0.69093,-0.966794 0.86913,-1.530499 0.12314,-0.389541 0.1637,-0.799335 0.19244,-1.204764 0.0726,-1.024322 0.0647,-2.052901 0.0217,-3.078202 -0.0482,-1.148385 -0.11861,-2.29875 -0.29662,-3.434837 -0.0762,-0.486387 -0.16619,-0.973747 -0.33407,-1.438819 -0.51135,-1.416568 -1.1625,-2.78359 -1.947687,-4.068601 -0.543254,-0.889066 -1.131836,-1.759033 -1.846512,-2.518679 -0.497985,-0.52932 -1.071314,-0.981926 -1.662793,-1.401252 -0.98704,-0.699757 -2.027455,-1.326411 -3.115551,-1.855304 -0.642693,-0.312395 -1.306021,-0.58337 -1.988865,-0.798767 -0.299289,-0.09441 -0.618532,-0.08232 -0.926891,-0.057 -0.78576,0.06454 -1.56144,0.218338 -2.32777,0.398606 -1.300177,0.305847 -2.588551,0.673793 -3.834372,1.156364 -0.624138,0.241761 -1.25537,0.485634 -1.820298,0.847645 -0.213942,0.137096 -0.433927,0.282815 -0.582293,0.493804 -0.06117,0.08698 -0.08475,0.19581 -0.06474,0.302645 0.05975,0.3191 0.260905,0.585565 0.460693,0.831961 0.149322,0.184157 0.306342,0.363452 0.43219,0.565121"
       id="path75"
       inkscape:path-effect="#path-effect77"
       inkscape:original-d="m 85.594051,45.409603 c -0.818134,5.184603 1.639972,9.201164 4.233297,13.364702 1.732261,2.781123 3.565133,6.064118 7.538002,5.453984 1.735469,-0.266526 4.06928,-2.531782 4.47909,-4.176477 0.40726,-1.634437 0.12704,-7.282447 -0.40967,-8.819719 -0.79847,-2.287029 -2.172074,-4.852477 -3.769001,-6.657782 -1.359651,-1.537067 -5.036219,-3.689966 -6.96445,-4.176469 -1.509567,-0.380873 -9.609306,1.933155 -9.449813,3.120067 0.07577,0.563878 0.600853,0.966322 0.901282,1.44948" />
    <path
       style="fill:none;stroke:#000000;stroke-width:0.264583px;stroke-linecap:butt;stroke-linejoin:miter;stroke-opacity:1"
       d="m 8.493426,107.41789 c -0.060161,0.35241 -0.2367629,0.67977 -0.2475291,1.04154 -0.00604,0.2029 0.072378,0.39538 0.1464807,0.57974 0.2541814,0.63237 0.5816873,1.23226 0.9213903,1.82185 0.7627531,1.32384 1.5933231,2.60753 2.4530771,3.87009 0.545001,0.80034 1.112927,1.58536 1.723377,2.33766 1.019745,1.25671 2.154304,2.41291 3.222917,3.6269 0.923207,1.0488 1.78587,2.17029 2.386716,3.43959 0.549901,1.16168 0.845019,2.43433 0.923935,3.71477 0.05626,0.91281 0.0223,1.83075 -0.08901,2.73804 -0.09333,0.76069 -0.278593,1.52124 -0.650439,2.19757 -0.347472,0.632 -0.860304,1.15745 -1.428403,1.59608 -0.731048,0.56444 -1.571119,1.01839 -2.4889,1.18231 -0.751585,0.13424 -1.527893,0.0424 -2.253855,-0.17934 -1.05929,-0.32359 -2.031419,-0.86475 -3.031066,-1.33074 -0.7859893,-0.36639 -1.6039334,-0.67196 -2.4561244,-0.8481 -0.9914436,-0.20492 -1.9965945,-0.33229 -2.9913189,-0.51899 -0.8503545,-0.1596 -1.6910332,-0.39267 -2.4785682,-0.75526 -0.4475982,-0.20608 -0.8872322,-0.43475 -1.29373464,-0.71353 -0.70370513,-0.48261 -1.40345915,-0.97164 -2.08500186,-1.48504 -0.2285185,-0.17214 -0.434924,-0.37533 -0.6777832,-0.52702 -0.059461,-0.0371 -0.046711,-0.11383 -0.033058,-0.17084 0.041709,-0.17418 0.1942771,-0.29096 0.3404106,-0.37843 0.1584622,-0.0949 0.3331978,-0.15636 0.5001159,-0.23367"
       id="path79"
       inkscape:path-effect="#path-effect81"
       inkscape:original-d="m 8.493426,107.41789 c -0.072831,0.42584 -0.334178,0.86127 -0.2184937,1.27751 0.4297614,1.54633 3.3628877,5.92022 4.3971667,7.32111 3.647938,4.94097 7.776757,6.7842 7.34682,13.63494 -0.121971,1.94351 -0.454556,3.36191 -2.021058,4.61868 -4.05491,3.25318 -6.562884,-0.26663 -10.2145367,-1.03183 -2.7040022,-0.56662 -4.4302217,-0.46062 -6.80058585,-1.94083 -0.31257864,-0.19519 -2.91033185,-2.03654 -2.92234245,-2.13737 -0.051588,-0.43311 0.6450211,-0.63451 0.8466588,-0.73703" />
    <path
       style="fill:none;stroke:#000000;stroke-width:0.264583px;stroke-linecap:butt;stroke-linejoin:miter;stroke-opacity:1"
       d="m -0.95638791,85.995062 c 0.43680605,1.705688 1.28204706,3.28782 2.35247311,4.678531 1.2783201,1.660809 2.8585305,3.070636 4.5663615,4.276684 1.4478683,1.022466 3.002334,1.884909 4.5981813,2.65462 0.885026,0.426867 1.74793,0.910636 2.679787,1.230253 0.540981,0.185551 1.115519,0.320401 1.691231,0.263036 0.436728,-0.04352 0.855488,-0.232001 1.180019,-0.527844 0.447414,-0.407863 0.736273,-0.95976 0.933482,-1.523932 0.26418,-0.755761 0.448302,-1.538983 0.565251,-2.330634 0.298005,-2.017262 0.09305,-4.106162 -0.595636,-6.02671 -0.702147,-1.958088 -1.912298,-3.726309 -3.464583,-5.108662 -0.79805,-0.710686 -1.677602,-1.333407 -2.624937,-1.8288 C 9.573725,81.04485 8.1078733,80.604691 6.6916117,80.052013 5.8103556,79.708114 4.9460633,79.308083 4.1525409,78.789745 3.7033877,78.496353 3.2431712,78.204305 2.8715042,77.817353 2.7011318,77.639974 2.5653152,77.433031 2.4291263,77.229335 1.9128667,76.457171 1.4588528,75.642419 0.90071833,74.899391 0.76460473,74.718187 0.63777747,74.522248 0.45740712,74.382557 c -0.0460032,-0.03563 -0.13306513,-0.09789 -0.17403957,-0.03322 -0.0461523,0.07284 -0.0392394,0.165785 -0.0315028,0.247422 0.0343061,0.361994 0.13077174,0.714704 0.22753381,1.063939 0.0128382,0.04634 0.0258614,0.09262 0.0390423,0.138862"
       id="path83"
       inkscape:path-effect="#path-effect85"
       inkscape:original-d="m -0.95638791,85.995062 c 1.3699239,5.325366 6.55726351,9.2529 11.33430991,11.522138 2.590776,1.230696 5.526071,3.22059 6.77328,-0.786156 C 18.933208,91.00622 16.604757,85.099074 11.443074,82.039694 9.3638718,80.807331 6.9628569,80.368494 4.8609818,79.214437 4.1597548,78.829418 3.4977501,78.364119 2.8945496,77.838659 2.2654149,77.290609 -0.63941586,71.73769 0.51844093,75.799557" />
    <path
       style="fill:none;stroke:#000000;stroke-width:0.264583px;stroke-linecap:butt;stroke-linejoin:miter;stroke-opacity:1"
       d="m 8.493426,107.41789 c 0.1527041,0.2524 0.3589529,0.46574 0.5560994,0.68312 0.1840156,0.2029 0.3715853,0.40777 0.5033178,0.6499 0.09152,0.16822 0.1880524,0.37031 0.1267158,0.55411 -0.00897,0.0269 0.00582,0.089 -0.026506,0.087 -0.053063,-0.003 -0.1028016,-0.0261 -0.1508156,-0.0471 -0.2565952,-0.11215 -0.5035661,-0.24492 -0.7494096,-0.37855 -0.8142149,-0.44256 -1.6157029,-0.90802 -2.4165109,-1.37424 -0.4107068,-0.23911 -0.8163895,-0.48687 -1.2294884,-0.72182 -0.6039247,-0.34348 -1.2166974,-0.67127 -1.8335063,-0.99092 -1.0000235,-0.51825 -2.0074969,-1.02458 -3.04292091,-1.46859 -0.52304025,-0.22429 -1.04928205,-0.44766 -1.59799999,-0.60093 -0.2282252,-0.0637 -0.4607956,-0.13057 -0.699024,-0.13045 -0.098903,5e-5 -0.213079,-3.6e-4 -0.2890352,0.0688 -0.069441,0.0632 -0.099528,0.15673 -0.1412336,0.23874 -0.2018014,0.39682 -0.3879372,0.80427 -0.5103539,1.23343 -0.106093,0.37193 -0.1799746,0.75191 -0.2633708,1.1293 -0.046196,0.20905 -0.093975,0.41775 -0.1438117,0.62596"
       id="path87"
       inkscape:path-effect="#path-effect89"
       inkscape:original-d="m 8.493426,107.41789 c 0.3914648,0.65513 1.3230002,1.21683 1.1743944,1.9654 -0.03416,0.17208 -4.0959161,-2.24108 -4.5064087,-2.48131 -0.8259088,-0.48335 -7.1351271,-3.91991 -7.5653133,-3.09551 -0.6966012,1.33496 -0.6199657,1.5366 -1.0105267,3.16921" />
    <path
       style="fill:none;stroke:#000000;stroke-width:0.264583px;stroke-linecap:butt;stroke-linejoin:miter;stroke-opacity:1"
       d="m 74.642098,9.8671006 c -0.413554,0.1544824 -0.862532,0.1932694 -1.267654,0.3730594 -0.159406,0.07074 -0.303793,0.172497 -0.427713,0.295733 -0.46932,0.466728 -0.778931,1.069838 -0.989905,1.690984 -0.304316,0.895963 -0.435506,1.842413 -0.473849,2.784845 -0.05286,1.299185 0.05269,2.604778 0.307889,3.879146 0.180397,0.900843 0.425414,1.794229 0.80425,2.633202 0.172661,0.382376 0.384986,0.746565 0.635883,1.083564 0.479995,0.644717 1.062582,1.212137 1.719155,1.676197 0.832497,0.588402 1.765681,1.012537 2.703397,1.402082 0.472154,0.196142 0.942325,0.397313 1.418255,0.584146 0.699657,0.27466 1.413091,0.527341 2.153443,0.665261 0.431308,0.08035 0.876691,0.135925 1.312784,0.06672 0.221492,-0.03515 0.44871,-0.09418 0.630332,-0.229975 0.230055,-0.172006 0.39864,-0.411756 0.542131,-0.656881 0.290359,-0.496018 0.503857,-1.032567 0.693152,-1.573777 0.327061,-0.935093 0.572625,-1.895803 0.808038,-2.857361 0.253511,-1.035481 0.451613,-2.092816 0.465116,-3.16172 0.0106,-0.838893 -0.109374,-1.691523 -0.451491,-2.463689 -0.289541,-0.6535 -0.746733,-1.224282 -1.291839,-1.683418 -0.718553,-0.605229 -1.563774,-1.039548 -2.430134,-1.390937 -0.591113,-0.239751 -1.189001,-0.470245 -1.807334,-0.626401 -0.323351,-0.08166 -0.654825,-0.127502 -0.986295,-0.159667 -0.540272,-0.05243 -1.08736,-0.0816 -1.627241,-0.01582 -0.27594,0.03362 -0.557505,0.08306 -0.80532,0.21503 -0.145057,0.07725 -0.277706,0.201773 -0.315697,0.367675 -0.01296,0.05658 -0.01484,0.115351 -0.0084,0.172926"
       id="path91"
       inkscape:path-effect="#path-effect93"
       inkscape:original-d="m 74.642098,9.8671006 c -0.546232,0.2047294 -1.213191,0.2151504 -1.638694,0.6141874 -2.443401,2.291426 -1.633392,9.520328 0.109249,11.964358 1.433872,2.010984 3.189044,2.680857 5.435005,3.611418 0.992229,0.411106 3.357599,1.379804 4.506417,0.786156 1.091827,-0.564195 1.955705,-4.341881 2.157611,-5.159171 1.356072,-5.489155 -0.186105,-7.718203 -5.462317,-9.311067 -0.700966,-0.211618 -3.922387,-0.568897 -3.796308,0.565048" />
    <path
       style="fill:none;stroke:#000000;stroke-width:0.264583px;stroke-linecap:butt;stroke-linejoin:miter;stroke-opacity:1"
       d="m 53.748733,19.325577 c -0.670149,-0.168019 -1.38581,-0.188048 -2.053837,0.0054 -0.662075,0.191726 -1.247249,0.592417 -1.726366,1.081323 -0.627045,0.639857 -1.101326,1.410887 -1.508718,2.203922 -0.56834,1.106338 -1.001789,2.27379 -1.479331,3.420374 -0.194561,0.467143 -0.408824,0.925827 -0.601173,1.393894 -0.142987,0.347948 -0.253593,0.709922 -0.31459,1.081588 -0.06321,0.385138 -0.09817,0.775118 -0.106263,1.16506 -0.01346,0.648637 0.13701,1.306449 0.474679,1.864944 0.372221,0.615643 0.952914,1.080414 1.587944,1.404259 0.843534,0.430176 1.777028,0.656074 2.71222,0.771029 1.24779,0.15338 2.515414,0.133071 3.759943,-0.03618 0.814845,-0.110816 1.626035,-0.277355 2.401591,-0.555378 0.384884,-0.137974 0.753401,-0.323566 1.085029,-0.563891 0.671177,-0.486391 1.198197,-1.146653 1.617155,-1.855973 0.54279,-0.918974 0.925794,-1.924651 1.20778,-2.951784 0.154408,-0.56243 0.266745,-1.135356 0.359094,-1.711032 0.221856,-1.38298 0.371113,-2.783183 0.339744,-4.185121 -0.02127,-0.950422 -0.112633,-1.909671 -0.398572,-2.820054 -0.204362,-0.650654 -0.52063,-1.282174 -1.011616,-1.765361 -0.397043,-0.390736 -0.914429,-0.649219 -1.46001,-0.756349 -0.701935,-0.137832 -1.428224,-0.05471 -2.112919,0.131379 -0.893665,0.242888 -1.738958,0.634678 -2.553025,1.070786 -1.16816,0.625801 -2.271368,1.362119 -3.387454,2.074305 -0.753378,0.480738 -1.534731,0.91546 -2.295334,1.384432 -0.88653,0.546616 -1.764286,1.119149 -2.542936,1.813925 -0.492021,0.439022 -0.956318,0.925138 -1.279702,1.50414 -0.03852,0.06897 -0.07482,0.139183 -0.10852,0.210634"
       id="path95"
       inkscape:path-effect="#path-effect97"
       inkscape:original-d="m 53.748733,19.325577 c -3.955963,-0.975816 -5.464974,3.556265 -6.664029,6.461238 -0.764431,1.852004 -1.026871,2.03835 -1.119772,3.709697 -0.289234,5.203483 8.438534,4.788249 11.334308,3.464007 2.268382,-1.037334 3.411892,-4.298736 3.796308,-6.510377 0.419063,-2.410961 1.533356,-10.180816 -3.359319,-9.998964 -2.439546,0.09067 -5.546532,2.340996 -7.428757,3.513147 -1.695037,1.055582 -5.006469,2.732612 -5.953926,4.741524" />
    <path
       style="fill:none;stroke:#000000;stroke-width:0.264583px;stroke-linecap:butt;stroke-linejoin:miter;stroke-opacity:1"
       d="m 32.554939,30.774018 c -0.992911,-0.09674 -2.011779,-0.06562 -2.974674,0.215738 -0.755378,0.220723 -1.460331,0.618044 -2.028331,1.165127 -0.660259,0.635945 -1.121017,1.454165 -1.423742,2.313533 -0.212219,0.602442 -0.359578,1.226267 -0.471995,1.854329 -0.263241,1.470702 -0.267019,2.996978 0.07338,4.456316 0.304182,1.304088 0.896636,2.535856 1.703673,3.603227 0.626741,0.828915 1.363694,1.578073 2.197351,2.197096 0.660916,0.490756 1.44858,0.780503 2.246601,0.957409 1.177023,0.260923 2.385959,0.308444 3.585547,0.373158 0.606373,0.03271 1.210706,0.09349 1.813817,0.164084 0.708943,0.08298 1.418149,0.192459 2.133637,0.189408 0.53659,-0.0023 1.082969,-0.09099 1.564486,-0.339218 0.51665,-0.266338 0.918706,-0.707666 1.240005,-1.185099 0.251158,-0.373207 0.438527,-0.782988 0.644564,-1.181477 0.470419,-0.909822 0.95456,-1.822928 1.244713,-2.809897 0.206713,-0.703144 0.308144,-1.452067 0.18158,-2.178915 -0.08812,-0.506078 -0.251456,-0.996078 -0.436997,-1.473725 -0.426826,-1.098796 -0.963509,-2.152108 -1.550497,-3.173027 -0.756056,-1.31497 -1.584306,-2.591961 -2.527635,-3.780518 -0.524997,-0.661475 -1.080018,-1.304184 -1.713804,-1.864743 -0.444177,-0.392857 -0.956007,-0.704729 -1.495047,-0.949013 -0.84759,-0.384114 -1.796334,-0.552152 -2.724041,-0.448915 -1.032906,0.114944 -2.011505,0.569166 -2.811331,1.225798 -1.164498,0.956016 -1.973865,2.314794 -2.327985,3.774055 -0.05435,0.223966 -0.09804,0.450521 -0.130766,0.678654"
       id="path99"
       inkscape:path-effect="#path-effect101"
       inkscape:original-d="m 32.554939,30.774018 c -3.43376,-0.337018 -5.739927,1.015447 -6.636719,4.373004 -1.174842,4.398558 -0.105426,8.412014 3.605134,11.35017 1.810295,1.433457 4.653912,1.281959 6.800585,1.474046 2.917476,0.261057 4.801679,1.049473 6.281663,-1.916255 0.830861,-1.664957 2.088957,-3.674557 1.638697,-5.699659 -0.642887,-2.891467 -4.437774,-8.964036 -6.718649,-10.490303 -4.110516,-2.750587 -8.356708,0.499189 -8.958207,4.692382" />
    <path
       style="fill:none;stroke:#000000;stroke-width:0.264583px;stroke-linecap:butt;stroke-linejoin:miter;stroke-opacity:1"
       d="m 16.686904,30.061558 c 0.636778,1.13825 1.600722,2.071076 2.700378,2.761401 1.370178,0.860149 2.937906,1.379284 4.534183,1.608334 1.70184,0.244197 3.456846,0.179999 5.12153,-0.259971 0.923353,-0.244039 1.827847,-0.593121 2.632145,-1.111197 0.592741,-0.381805 1.027523,-0.968701 1.315427,-1.605071 0.385071,-0.851145 0.555907,-1.783849 0.618175,-2.710844 0.08996,-1.339246 -0.02094,-2.687705 -0.271232,-4.004313 -0.200996,-1.057276 -0.481098,-2.103909 -0.897519,-3.097937 -0.193636,-0.462224 -0.432247,-0.906096 -0.723263,-1.314686 -0.551878,-0.774843 -1.220962,-1.461049 -1.94399,-2.076406 -0.836828,-0.71221 -1.744766,-1.34919 -2.732555,-1.833583 -0.506698,-0.248475 -1.031702,-0.474829 -1.586003,-0.587573 -0.672789,-0.136844 -1.367848,-0.110475 -2.045024,-0.02569 -1.244416,0.155798 -2.460921,0.493568 -3.633599,0.931838 -1.531851,0.572506 -3.011159,1.304423 -4.351683,2.243806 -0.94949,0.665363 -1.846117,1.430629 -2.539827,2.365702 -0.507855,0.684553 -0.898594,1.479159 -1.000643,2.33411 -0.10507,0.880263 0.150164,1.784235 0.653565,2.509345 0.472693,0.680877 1.136861,1.203581 1.840707,1.628368 1.172501,0.707631 2.462063,1.183271 3.704824,1.747978 0.416966,0.189468 0.830299,0.388618 1.226317,0.619234"
       id="path103"
       inkscape:path-effect="#path-effect105"
       inkscape:original-d="m 16.686904,30.061558 c 2.625105,4.67368 10.447992,5.759609 14.91213,3.046371 3.282913,-1.995308 1.981044,-9.693228 0.40967,-12.332876 -1.183958,-1.988855 -4.145058,-4.329274 -6.418224,-4.913493 -3.790319,-0.974137 -15.055287,3.896244 -13.601172,9.163667 0.823115,2.981673 4.931413,3.765781 7.319509,5.159172" />
    <path
       style="fill:none;stroke:#000000;stroke-width:0.264583px;stroke-linecap:butt;stroke-linejoin:miter;stroke-opacity:1"
       d="m 30.370012,6.3785225 c -0.782718,0.3012959 -1.496747,0.7924273 -2.030052,1.4437147 -0.571454,0.6978757 -0.915149,1.5620335 -1.059507,2.4477108 -0.184807,1.133843 -0.07328,2.301376 0.222858,3.406556 0.188074,0.701885 0.467852,1.375749 0.79418,2.024524 0.712424,1.416376 1.566775,2.773717 2.648544,3.939567 0.84295,0.908468 1.826445,1.678266 2.876164,2.333599 1.292868,0.807129 2.664721,1.477918 4.047521,2.114157 0.567137,0.260945 1.14825,0.503119 1.758229,0.641869 0.322685,0.0734 0.657808,0.12886 0.988545,0.08236 0.204929,-0.02881 0.413735,-0.116384 0.538134,-0.289159 0.09486,-0.131752 0.135112,-0.292991 0.173792,-0.447696 0.147323,-0.589228 0.206282,-1.196477 0.245405,-1.801034 0.08937,-1.380974 0.08168,-2.766401 0.04029,-4.148905 -0.06229,-2.081122 -0.185375,-4.16127 -0.400135,-6.23224 C 41.122235,11.008797 41.028093,10.122904 40.868322,9.2474423 40.759057,8.648726 40.579226,8.0640119 40.360228,7.4970042 39.860987,6.2044165 39.081659,5.0038116 38.020671,4.1016088 37.074245,3.2968228 35.893999,2.7598778 34.655013,2.6218388 33.503565,2.4935527 32.317747,2.7353462 31.302166,3.2936424 30.281478,3.8547458 29.45501,4.7318167 28.881237,5.7399746 c -0.704941,1.2386295 -1.044334,2.6564397 -1.14253,4.0701705 -0.03595,0.5176149 -0.04007,1.0372479 -0.01792,1.5555699"
       id="path107"
       inkscape:path-effect="#path-effect109"
       inkscape:original-d="m 30.370012,6.3785225 c -3.697139,1.4388621 -3.78661,5.8196975 -2.212242,9.0408285 2.381028,4.871533 4.930452,6.428333 9.613683,8.62318 0.548947,0.25727 3.058867,1.425 3.468571,0.319378 C 42.13734,21.94044 41.328014,11.012721 40.775728,8.8107037 38.484074,-0.32633216 27.263092,0.66098215 27.720784,11.365715" />
    <path
       style="fill:none;stroke:#000000;stroke-width:0.264583px;stroke-linecap:butt;stroke-linejoin:miter;stroke-opacity:1"
       d="m 112.75965,28.906885 c -0.3648,-0.334799 -0.62265,-0.776721 -1.02951,-1.067314 -0.19411,-0.13864 -0.42929,-0.221734 -0.66965,-0.218134 -0.43273,0.0065 -0.83525,0.186199 -1.25721,0.2596 -0.75299,0.130985 -1.47466,0.453718 -2.05898,0.950074 -0.67963,0.577317 -1.15524,1.358884 -1.48426,2.179736 -0.37307,0.930744 -0.59066,1.916803 -0.72818,2.907366 -0.12419,0.894537 -0.0498,1.816676 0.2297,2.676943 0.32715,1.006866 0.91236,1.904895 1.55077,2.740114 0.69623,0.910865 1.45155,1.775145 2.13153,2.698763 0.39339,0.53434 0.79333,1.065138 1.15045,1.624932 0.13288,0.208295 0.23853,0.432236 0.32797,0.662439 0.2333,0.600471 0.56014,1.158925 0.89173,1.70894 0.3778,0.626656 0.75782,1.252699 1.16798,1.85868 0.7678,1.134372 1.7522,2.098567 2.75656,3.02156 0.88316,0.811616 1.78264,1.607483 2.60779,2.479926 0.78691,0.83201 1.56497,1.688871 2.50414,2.353392 0.56965,0.403062 1.21161,0.735917 1.91116,0.831841 0.56298,0.0772 1.13426,-0.05963 1.64488,-0.305695 0.25054,-0.120735 0.46322,-0.310059 0.62572,-0.534586 0.30441,-0.420612 0.47698,-0.919005 0.61203,-1.41557 0.18123,-0.666362 0.26495,-1.353897 0.41633,-2.026719 0.2157,-0.958707 0.52633,-1.899676 0.63301,-2.880125 0.11452,-1.052531 -0.012,-2.117732 -0.23852,-3.146585 -0.36852,-1.674051 -0.98275,-3.287616 -1.74201,-4.821348 -0.844,-1.704902 -1.8536,-3.336793 -3.08531,-4.789115 -0.81105,-0.956318 -1.71924,-1.844367 -2.77378,-2.531904 -0.3464,-0.225845 -0.7201,-0.403653 -1.0952,-0.576066 -0.97114,-0.446386 -1.95102,-0.901595 -2.99843,-1.136685 -0.62607,-0.140521 -1.28814,-0.203109 -1.91727,-0.04171 -0.47866,0.122797 -0.90903,0.40867 -1.21948,0.792963 -0.14477,0.179202 -0.26544,0.37709 -0.3661,0.58408"
       id="path111"
       inkscape:path-effect="#path-effect113"
       inkscape:original-d="m 112.75965,28.906885 c -0.44609,-0.409456 -0.7673,-1.026768 -1.33827,-1.228368 -0.50172,-0.177146 -1.05972,0.106223 -1.58407,0.196541 -2.91163,0.501517 -3.87757,3.223344 -4.28792,5.920758 -0.53235,3.499406 1.81902,5.464037 3.74169,8.033562 2.70345,3.612994 0.42271,0.981541 3.5505,5.847051 1.30954,2.03708 3.24721,3.45626 4.9434,5.13461 1.62079,1.603738 4.0887,4.931429 6.74596,3.39031 1.12609,-0.653087 1.29708,-2.922587 1.55676,-4.029067 0.23324,-0.99378 0.55137,-1.97934 0.62817,-2.997229 0.36318,-4.813223 -4.30588,-13.500182 -8.68508,-15.502075 -2.05466,-0.93926 -5.44755,-2.652125 -6.77328,0.0737" />
    <path
       style="fill:none;stroke:#000000;stroke-width:0.264583px;stroke-linecap:butt;stroke-linejoin:miter;stroke-opacity:1"
       d="m 252.13534,38.905849 c 0.009,-0.38832 3.5e-4,-0.786595 -0.12364,-1.158456 -0.0746,-0.223623 -0.21415,-0.439008 -0.43042,-0.547578 -0.23364,-0.11729 -0.50744,-0.107266 -0.75729,-0.05886 -0.43013,0.08334 -0.83755,0.25133 -1.23985,0.419726 -0.3346,0.140059 -0.67253,0.271738 -1.01212,0.399402 -0.84649,0.318226 -1.69308,0.663404 -2.44532,1.17315 -0.57628,0.390509 -1.07797,0.894638 -1.44528,1.488339 -0.2218,0.358508 -0.38323,0.749412 -0.54375,1.137787 -0.44353,1.073097 -0.80521,2.188036 -0.97368,3.339493 -0.12795,0.874536 -0.13201,1.774753 0.0654,2.64067 0.37125,1.628392 0.96513,3.208961 1.78358,4.665401 0.73304,1.30445 1.65156,2.519999 2.79891,3.488547 0.93566,0.78985 2.03897,1.396171 3.23389,1.683737 0.77677,0.186935 1.5875,0.260475 2.38029,0.162528 0.40411,-0.04993 0.77824,-0.239951 1.09707,-0.48732 0.49543,-0.384392 0.87915,-0.885628 1.29927,-1.34589 0.76346,-0.836416 1.35614,-1.831933 1.69986,-2.913155 0.37062,-1.165825 0.44035,-2.412613 0.29441,-3.622919 -0.1779,-1.475365 -0.64758,-2.903011 -1.26866,-4.247985 -0.15813,-0.342438 -0.31929,-0.685089 -0.52395,-1.003032 -0.51693,-0.803061 -1.20357,-1.47396 -1.79861,-2.216359 -0.20684,-0.258061 -0.39208,-0.532656 -0.56045,-0.817311 -0.33897,-0.573088 -0.62606,-1.182045 -1.04826,-1.701608 -0.32664,-0.401962 -0.75257,-0.731551 -1.24347,-0.905594 -0.41841,-0.148342 -0.87841,-0.151866 -1.30774,-0.04814 -0.57619,0.139212 -1.09937,0.434236 -1.59216,0.754989 -0.42989,0.279812 -0.84951,0.574727 -1.27962,0.85445 -1.09907,0.714775 -2.21786,1.406187 -3.24481,2.223783 -0.7243,0.576642 -1.41211,1.221792 -1.91247,2.007825 -0.38515,0.605045 -0.62644,1.302691 -0.67911,2.019602 -0.0666,0.906096 0.14915,1.809952 0.48044,2.647929 0.30491,0.771258 0.70607,1.501031 1.14815,2.201441"
       id="path115"
       inkscape:path-effect="#path-effect117"
       inkscape:original-d="m 252.13534,38.905849 c 0.0894,-2.820538 -1.72085,-1.627807 -3.33201,-1.031835 -1.79716,0.664765 -3.54178,1.38236 -4.39717,3.267477 -0.85905,1.893186 -1.66085,4.386339 -1.20171,6.485808 1.04547,4.780539 4.54349,10.578808 10.1326,10.121804 1.09588,-0.08961 1.7994,-1.087234 2.48536,-1.842574 2.98143,-3.28299 2.36211,-7.472391 0.49161,-11.276459 -0.55517,-1.129049 -1.55236,-1.981034 -2.29418,-2.997232 -0.65148,-0.892437 -1.01658,-2.043189 -1.8845,-2.726989 -1.72061,-1.355598 -3.39608,0.130336 -4.67028,0.958128 -4.64859,3.01998 -8.3994,5.07851 -4.4791,11.27647" />
    <path
       style="fill:none;stroke:#000000;stroke-width:0.264583px;stroke-linecap:butt;stroke-linejoin:miter;stroke-opacity:1"
       d="m 305.01058,69.787161 c 0.12279,-0.400538 0.35954,-0.765088 0.41796,-1.183651 0.0178,-0.127614 0.036,-0.262419 -0.005,-0.387433 -0.0457,-0.138213 -0.17861,-0.224464 -0.31257,-0.263398 -0.24197,-0.07032 -0.49813,-0.06235 -0.74681,-0.0456 -0.52934,0.03565 -1.05084,0.155175 -1.58126,0.171338 -0.1695,0.0052 -0.3524,0.02574 -0.50722,-0.04989 -0.40543,-0.198036 -0.86096,-0.308119 -1.31409,-0.266604 -0.51943,0.04759 -1.0003,0.299308 -1.39294,0.63361 -0.53288,0.4537 -0.9422,1.034657 -1.27753,1.644115 -0.43349,0.787865 -0.74442,1.636514 -1.00315,2.497012 -0.13383,0.445103 -0.14206,0.916154 -0.11907,1.376409 0.0454,0.90877 0.19862,1.808718 0.38896,2.697082 0.30584,1.427399 0.69473,2.837851 1.1773,4.215438 0.2533,0.723091 0.52334,1.442491 0.86207,2.13063 0.13787,0.280083 0.30273,0.547168 0.50107,0.788818 0.45373,0.552802 1.01589,1.00734 1.61108,1.398875 0.73331,0.482397 1.51776,0.89086 2.34211,1.19228 0.42128,0.154039 0.84898,0.290906 1.2811,0.410971 0.73398,0.203935 1.48453,0.372803 2.24773,0.402526 0.48027,0.0187 0.97757,-0.0026 1.42607,-0.18751 0.15807,-0.06517 0.31917,-0.138296 0.44477,-0.256068 0.18789,-0.176182 0.34889,-0.378614 0.5063,-0.581677 0.38267,-0.493659 0.75114,-0.998845 1.09387,-1.520923 0.56751,-0.864478 1.01849,-1.819862 1.21928,-2.8395 0.16697,-0.847881 0.13321,-1.731716 -0.0841,-2.567808 -0.2728,-1.04942 -0.80917,-2.011592 -1.44456,-2.882746 -0.54633,-0.749042 -1.1496,-1.458501 -1.8157,-2.102414 -0.48481,-0.468663 -1.07712,-0.801177 -1.65241,-1.143793 -0.53002,-0.315654 -1.0719,-0.637884 -1.48828,-1.099664 -0.10694,-0.118601 -0.21939,-0.236639 -0.29593,-0.377315 -0.1114,-0.204755 -0.12665,-0.443526 -0.13653,-0.671752 -0.011,-0.254048 0.002,-0.51299 -0.0629,-0.761246 -0.0382,-0.145959 -0.12263,-0.288407 -0.25942,-0.359439 -0.31299,-0.16253 -0.66415,-0.23415 -1.01073,-0.279898 -0.76326,-0.100748 -1.53636,-0.09611 -2.30371,-0.05795 -1.42866,0.07105 -2.85133,0.245797 -4.25917,0.495502 -0.94193,0.167067 -1.88403,0.348811 -2.80115,0.623131 -0.27631,0.08265 -0.55257,0.169872 -0.81548,0.289498"
       id="path119"
       inkscape:path-effect="#path-effect121"
       inkscape:original-d="m 305.01058,69.787161 c 0.14568,-0.474972 0.44445,-0.928167 0.43698,-1.424917 -0.0148,-0.994404 -2.55778,-0.03804 -3.19545,-0.343955 -2.73439,-1.311815 -4.44923,2.545286 -4.998,4.643263 -0.56484,2.159285 1.56763,9.219604 2.62188,10.78512 0.91372,1.356765 2.98961,2.498677 4.47911,2.997229 1.06405,0.356137 3.75573,1.207624 5.02534,0.319378 0.38618,-0.270187 1.58633,-2.026599 1.72061,-2.235649 2.47671,-3.855919 1.11778,-6.946339 -2.10296,-10.244624 -1.01354,-1.037942 -2.62814,-1.446266 -3.46858,-2.628731 -0.37423,-0.526518 0.0558,-1.572223 -0.51893,-1.867114 -1.89082,-0.970188 -9.49158,0.302992 -11.17045,1.080957" />
    <path
       style="fill:none;stroke:#000000;stroke-width:0.264583px;stroke-linecap:butt;stroke-linejoin:miter;stroke-opacity:1"
       d="m 275.48676,50.182308 c 0.52817,-0.03326 1.06965,-0.160056 1.50398,-0.477262 0.35043,-0.255934 0.5891,-0.642842 0.70516,-1.057654 0.1622,-0.579708 0.13899,-1.194082 0.0479,-1.783163 -0.14648,-0.946925 -0.4497,-1.862005 -0.80322,-2.749737 -0.41212,-1.034873 -0.89886,-2.037955 -1.40449,-3.02978 -0.53726,-1.053874 -1.10811,-2.099093 -1.48489,-3.224015 -0.1114,-0.332599 -0.22048,-0.668678 -0.27576,-1.015342 -0.0796,-0.499045 0.007,-1.003618 -0.014,-1.505222 -0.0123,-0.300188 -0.0738,-0.608532 -0.24446,-0.861509 -0.22555,-0.334273 -0.555,-0.586389 -0.9102,-0.769147 -0.13192,-0.06788 -0.26364,-0.140718 -0.40636,-0.181841 -0.22917,-0.06603 -0.46798,-0.08994 -0.70477,-0.109337 -0.63113,-0.0517 -1.26473,-0.06058 -1.89761,-0.06536 -1.07067,-0.0081 -2.15321,0.209439 -3.1068,0.708211 -0.9,0.47074 -1.65373,1.194714 -2.21219,2.039233 -0.70692,1.069019 -1.12598,2.307473 -1.33819,3.565179 -0.26074,1.545352 -0.22591,3.133712 0.0399,4.676664 0.0972,0.564138 0.24234,1.119324 0.42796,1.660736 0.38762,1.13062 0.8933,2.218736 1.47255,3.263069 0.5781,1.042268 1.22119,2.053095 1.97857,2.974909 0.44367,0.539995 0.9356,1.043353 1.49557,1.464853 0.9109,0.68565 1.98593,1.167132 3.12031,1.322386 1.12092,0.153412 2.27899,-0.03484 3.30745,-0.502621 1.33989,-0.609434 2.4473,-1.678709 3.17391,-2.952949 0.52636,-0.923063 0.85447,-1.956205 0.97101,-3.011759"
       id="path123"
       inkscape:path-effect="#path-effect125"
       inkscape:original-d="m 275.48676,50.182308 c 4.41179,-0.276997 1.39165,-6.390042 0.30043,-8.598609 -0.71871,-1.454586 -1.64632,-3.033646 -1.99377,-4.643252 -0.17385,-0.80541 0.1841,-1.771279 -0.2731,-2.456743 -0.28951,-0.434044 -0.7734,-0.736108 -1.25635,-0.933567 -0.44497,-0.181948 -2.04972,-0.189222 -2.59458,-0.196538 -6.11106,-0.08206 -7.68797,6.516267 -6.5821,11.522139 0.58214,2.635168 2.94926,6.920209 4.9434,8.57404 4.59203,3.808388 10.30483,0.440978 10.89732,-4.888924" />
    <path
       style="fill:none;stroke:#000000;stroke-width:0.264583px;stroke-linecap:butt;stroke-linejoin:miter;stroke-opacity:1"
       d="m 277.2347,69.443202 c -1.74394,-1.498563 -3.22307,-3.271119 -4.91682,-4.822837 -0.73837,-0.676452 -1.50994,-1.332091 -2.39286,-1.814194 -0.68272,-0.372787 -1.40702,-0.66011 -2.11625,-0.977002 -0.43458,-0.194174 -0.87871,-0.370146 -1.29761,-0.596378 -0.12095,-0.06532 -0.25312,-0.121054 -0.34915,-0.221568 -0.044,-0.04606 -0.0536,-0.113768 -0.10678,-0.154537 -0.13872,-0.10631 -0.30001,-0.178182 -0.45867,-0.248796 -0.26621,-0.118481 -0.53193,-0.239688 -0.80623,-0.338173 -0.53564,-0.192317 -1.11424,-0.230907 -1.6782,-0.187097 -0.46587,0.03619 -0.9283,0.109742 -1.38577,0.202702 -0.72014,0.146335 -1.42594,0.438304 -1.97975,0.931883 -0.46344,0.41304 -0.78643,0.971836 -0.94015,1.571863 -0.19989,0.780229 -0.144,1.60595 0.0453,2.381645 0.12234,0.501429 0.2842,0.992374 0.44912,1.481028 0.60077,1.78003 1.37196,3.52261 2.47997,5.049564 0.7737,1.066239 1.72793,1.995809 2.79246,2.770226 1.39785,1.016901 2.94758,1.795956 4.48855,2.567797 1.5856,0.794198 3.16219,1.608139 4.69648,2.498792 1.09928,0.63813 2.20488,1.287757 3.40965,1.708079 0.80747,0.281712 1.67129,0.454148 2.52903,0.359911 0.69329,-0.07617 1.35309,-0.362891 1.90919,-0.782506 0.24411,-0.184199 0.46698,-0.399998 0.63584,-0.656706 0.3235,-0.491803 0.47316,-1.075609 0.54371,-1.653858 0.10269,-0.841652 0.0585,-1.691763 0.006,-2.534961 -0.11867,-1.900574 -0.46857,-3.791122 -1.08655,-5.593452 -0.5429,-1.583355 -1.28608,-3.117287 -2.34123,-4.423648 -0.41745,-0.516837 -0.87051,-1.010983 -1.39655,-1.419848 -0.74116,-0.576064 -1.56022,-1.042453 -2.39249,-1.472319 -0.81788,-0.422436 -1.65191,-0.812447 -2.48811,-1.196822 -0.8564,-0.393662 -1.7263,-0.768239 -2.63446,-1.025014 -0.57074,-0.161372 -1.16423,-0.295802 -1.76044,-0.240836 -0.28358,0.02614 -0.5811,0.09774 -0.79797,0.294212 -0.17404,0.157672 -0.2507,0.397542 -0.24698,0.628056 0.006,0.35611 0.13792,0.697351 0.30411,1.007202 0.15715,0.293 0.35021,0.566737 0.5714,0.814872"
       id="path127"
       inkscape:path-effect="#path-effect129"
       inkscape:original-d="m 277.2347,69.443202 c -1.66074,-1.4268 -3.0711,-3.096485 -4.67029,-4.594106 -2.40266,-2.250056 -2.90179,-2.141426 -5.79007,-3.488586 -1.33088,-0.620763 0.16505,-0.212141 -1.82985,-1.031836 -1.01178,-0.415729 -2.02653,-0.256392 -3.05892,-0.0737 -2.75146,0.486902 -3.74664,2.569104 -2.92234,5.331139 2.82096,9.452282 7.15754,9.540005 14.50245,13.782352 2.46367,1.422975 5.80311,3.546097 8.38468,1.252937 1.14352,-1.015775 1.01944,-3.04869 0.95591,-4.373006 -0.18365,-3.826553 -1.45251,-8.439534 -4.28792,-11.22734 -1.28762,-1.265984 -3.73835,-2.349132 -5.10728,-2.997229 -1.0201,-0.482955 -2.98693,-1.367547 -4.28791,-1.424914 -2.2532,-0.09936 -1.48125,1.768483 -0.60087,2.751569" />
    <path
       style="fill:none;stroke:#000000;stroke-width:0.264583px;stroke-linecap:butt;stroke-linejoin:miter;stroke-opacity:1"
       d="m 256.61445,109.8969 c -0.10167,-0.59613 -0.3236,-1.17829 -0.69152,-1.66278 -0.36172,-0.47633 -0.85315,-0.83549 -1.3704,-1.1265 -0.74579,-0.41959 -1.54124,-0.74218 -2.28525,-1.16577 -0.26352,-0.15003 -0.51282,-0.32285 -0.76149,-0.49612 -0.89429,-0.62311 -1.91233,-1.04037 -2.8094,-1.65876 -0.30893,-0.21296 -0.55442,-0.49976 -0.80895,-0.77178 -0.21694,-0.23185 -0.45887,-0.44842 -0.74932,-0.58426 -0.22135,-0.10352 -0.46216,-0.15494 -0.69875,-0.20968 -1.04909,-0.24273 -2.12752,-0.35854 -3.20382,-0.34954 -1.05315,0.009 -2.11479,0.12825 -3.11906,0.45603 -0.77388,0.25258 -1.51943,0.63951 -2.10054,1.21811 -0.37589,0.37427 -0.67681,0.82873 -0.8472,1.33327 -0.18399,0.5448 -0.21732,1.1257 -0.2142,1.69659 0.002,0.44403 0.0238,0.88765 0.0236,1.33181 -2.9e-4,0.63995 -0.008,1.28202 0.0584,1.91901 0.0237,0.22656 0.0363,0.45992 0.11874,0.67341 0.23329,0.604 0.62502,1.13501 1.0733,1.59664 0.68854,0.70905 1.50504,1.28336 2.36499,1.76453 1.06602,0.59647 2.20216,1.07184 3.38137,1.39085 0.74099,0.20046 1.50137,0.35275 2.27088,0.36825 0.97809,0.0197 1.96006,-0.22137 2.81572,-0.69773 1.07833,-0.60032 1.93487,-1.56132 2.47441,-2.66626 0.64052,-1.31173 0.84188,-2.84458 0.50407,-4.26938 -0.21015,-0.88637 -0.62628,-1.72771 -1.22413,-2.41665 -0.4376,-0.50428 -0.99494,-0.90024 -1.60974,-1.15994 -0.76311,-0.32235 -1.59157,-0.44456 -2.41152,-0.51531 -1.09715,-0.0947 -2.20608,-0.0965 -3.28975,-0.31188"
       id="path131"
       inkscape:path-effect="#path-effect133"
       inkscape:original-d="m 256.61445,109.8969 c -0.49734,-2.85358 -2.98114,-2.9216 -4.99803,-4.37301 -0.94127,-0.67736 -1.95431,-1.08136 -2.89503,-1.71972 -0.71635,-0.48611 -0.98793,-1.23102 -1.85719,-1.47405 -2.68018,-0.74932 -7.58659,-0.85202 -9.34056,1.818 -0.69012,1.05054 -0.57043,2.21775 -0.54623,3.41488 0.008,0.37858 -0.0415,2.39053 0.19118,2.97266 1.1427,2.85882 6.37581,5.08546 9.17669,5.08546 4.7898,0 7.44061,-5.77931 4.83415,-9.58131 -1.86361,-2.71841 -4.96536,-1.91518 -7.67455,-2.45675" />
    <path
       style="fill:none;stroke:#000000;stroke-width:0.264583px;stroke-linecap:butt;stroke-linejoin:miter;stroke-opacity:1"
       d="m 281.14027,207.4404 c 0.2659,-0.52808 0.48792,-1.10235 0.485,-1.70262 -0.002,-0.41766 -0.16344,-0.82862 -0.44113,-1.14063 -0.37756,-0.42423 -0.89257,-0.69293 -1.40661,-0.91479 -1.03436,-0.44642 -2.14462,-0.71383 -3.13625,-1.25732 -0.3544,-0.19424 -0.68657,-0.4256 -1.01779,-0.65618 -0.24833,-0.17288 -0.47687,-0.37514 -0.73629,-0.53183 -0.0797,-0.0482 -0.0657,-0.14584 -0.10804,-0.2158 -0.0963,-0.15892 -0.23627,-0.28556 -0.37254,-0.40921 -0.43611,-0.39572 -0.89305,-0.76813 -1.3585,-1.12862 -0.54764,-0.42414 -1.1331,-0.80522 -1.77139,-1.07977 -1.1297,-0.48593 -2.34078,-0.72804 -3.5193,-1.06169 -0.48532,-0.1374 -0.96012,-0.30838 -1.42965,-0.49287 -2.5353,-0.99618 -5.11834,-1.8904 -7.77305,-2.50956 -1.65704,-0.38647 -3.34554,-0.69994 -5.05123,-0.71139 -1.05304,-0.007 -2.12991,0.0883 -3.11468,0.48661 -0.6959,0.28148 -1.32387,0.7634 -1.70806,1.41698 -0.42174,0.71746 -0.55189,1.57354 -0.49785,2.39349 0.0513,0.77767 0.32639,1.51741 0.62856,2.22818 0.22391,0.52669 0.45017,1.05224 0.6575,1.58606 0.4064,1.04638 0.90279,2.07804 1.63718,2.93757 0.49953,0.58465 1.12488,1.04967 1.79607,1.41963 0.83088,0.45798 1.70664,0.82689 2.54777,1.26502 0.63149,0.32893 1.2581,0.67288 1.84166,1.08147 0.93706,0.6561 1.68845,1.52764 2.49343,2.33061 0.57008,0.56866 1.19119,1.09297 1.89469,1.49308 0.37022,0.21056 0.7582,0.38744 1.15137,0.55024 0.39722,0.16448 0.7677,0.38608 1.11829,0.63395 0.95895,0.67798 1.65337,1.65708 2.60642,2.34233 0.6945,0.49935 1.5028,0.79666 2.27469,1.15041 0.44142,0.2023 0.86236,0.44651 1.26212,0.72347 0.63788,0.44193 1.26373,0.90927 1.95807,1.26108 0.5136,0.26023 1.08273,0.42245 1.66176,0.42153 0.74074,-0.001 1.43909,-0.28432 2.13283,-0.52251 0.3145,-0.10798 0.644,-0.16992 0.95284,-0.29474 0.18287,-0.0739 0.40012,-0.13791 0.50555,-0.3111 0.10148,-0.1667 0.15477,-0.35974 0.21054,-0.54532 0.28684,-0.95449 0.40771,-1.95025 0.47537,-2.94139 0.1314,-1.92495 0.0815,-3.85901 -0.0719,-5.78079 -0.1521,-1.90493 -0.37644,-3.8094 -0.79262,-5.67565 -0.19014,-0.85264 -0.38726,-1.71274 -0.74083,-2.51379 -0.14206,-0.32185 -0.30766,-0.64678 -0.57129,-0.88746 -0.17589,-0.16058 -0.41909,-0.24569 -0.65759,-0.21507 -0.33233,0.0427 -0.62786,0.21986 -0.90066,0.40331 -0.0264,0.0178 -0.0527,0.0358 -0.0789,0.054"
       id="path135"
       inkscape:path-effect="#path-effect137"
       inkscape:original-d="m 281.14027,207.4404 c 1.98019,-3.87879 -2.59131,-3.72563 -4.86148,-5.23288 -2.80234,-1.86056 -0.24305,-0.29437 -2.64922,-2.2602 -0.57031,-0.46595 -1.15488,-0.92699 -1.80258,-1.27751 -1.57327,-0.85142 -3.58098,-1.05952 -5.24381,-1.71972 -3.36035,-1.33416 -18.53842,-7.18894 -18.40802,0.78616 0.022,1.34828 0.76616,2.59571 1.22902,3.83253 1.84096,4.91927 3.84578,4.27143 7.67456,6.73148 1.67664,1.07727 2.75404,2.89991 4.45179,3.88166 1.19874,0.69319 1.41795,0.55685 2.43073,1.2775 0.95507,0.6796 1.64386,1.65222 2.59459,2.33392 1.05418,0.75586 2.32307,1.02657 3.38664,1.76885 2.16109,1.50824 3.21948,2.41185 5.87201,1.27751 0.30559,-0.13068 1.36911,-0.30331 1.52945,-0.68789 1.41906,-3.40394 0.534,-13.65651 -0.90128,-17.24636 -0.62143,-1.55425 -1.29712,-1.46022 -2.26687,-0.78616" />
  </g>
</svg>
