<?xml version="1.0" encoding="UTF-8" standalone="no"?>
<!-- Created with Inkscape (http://www.inkscape.org/) -->

<svg
   width="353.56799mm"
   height="264.16mm"
   viewBox="0 0 353.56799 264.16"
   version="1.1"
   id="svg5"
   inkscape:version="1.1.2 (08b2f3d93c, 2022-04-05)"
   sodipodi:docname="Nucleo.svg"
   xmlns:inkscape="http://www.inkscape.org/namespaces/inkscape"
   xmlns:sodipodi="http://sodipodi.sourceforge.net/DTD/sodipodi-0.dtd"
   xmlns="http://www.w3.org/2000/svg"
   xmlns:svg="http://www.w3.org/2000/svg">
  <sodipodi:namedview
     id="namedview7"
     pagecolor="#ffffff"
     bordercolor="#666666"
     borderopacity="1.0"
     inkscape:pageshadow="2"
     inkscape:pageopacity="0.0"
     inkscape:pagecheckerboard="0"
     inkscape:document-units="mm"
     showgrid="false"
     inkscape:zoom="0.3524041"
     inkscape:cx="805.893"
     inkscape:cy="557.5985"
     inkscape:window-width="1366"
     inkscape:window-height="704"
     inkscape:window-x="0"
     inkscape:window-y="27"
     inkscape:window-maximized="1"
     inkscape:current-layer="layer2" />
  <defs
     id="defs2">
    <inkscape:path-effect
       effect="simplify"
       id="path-effect310"
       is_visible="true"
       lpeversion="1"
       steps="1"
       threshold="0.000408163"
       smooth_angles="360"
       helper_size="0"
       simplify_individual_paths="false"
       simplify_just_coalesce="false" />
    <inkscape:path-effect
       effect="simplify"
       id="path-effect306"
       is_visible="true"
       lpeversion="1"
       steps="1"
       threshold="0.000408163"
       smooth_angles="360"
       helper_size="0"
       simplify_individual_paths="false"
       simplify_just_coalesce="false" />
    <inkscape:path-effect
       effect="simplify"
       id="path-effect302"
       is_visible="true"
       lpeversion="1"
       steps="1"
       threshold="0.000408163"
       smooth_angles="360"
       helper_size="0"
       simplify_individual_paths="false"
       simplify_just_coalesce="false" />
    <inkscape:path-effect
       effect="simplify"
       id="path-effect298"
       is_visible="true"
       lpeversion="1"
       steps="1"
       threshold="0.000408163"
       smooth_angles="360"
       helper_size="0"
       simplify_individual_paths="false"
       simplify_just_coalesce="false" />
    <inkscape:path-effect
       effect="simplify"
       id="path-effect294"
       is_visible="true"
       lpeversion="1"
       steps="1"
       threshold="0.000408163"
       smooth_angles="360"
       helper_size="0"
       simplify_individual_paths="false"
       simplify_just_coalesce="false" />
    <inkscape:path-effect
       effect="simplify"
       id="path-effect290"
       is_visible="true"
       lpeversion="1"
       steps="1"
       threshold="0.000408163"
       smooth_angles="360"
       helper_size="0"
       simplify_individual_paths="false"
       simplify_just_coalesce="false" />
    <inkscape:path-effect
       effect="simplify"
       id="path-effect286"
       is_visible="true"
       lpeversion="1"
       steps="1"
       threshold="0.000408163"
       smooth_angles="360"
       helper_size="0"
       simplify_individual_paths="false"
       simplify_just_coalesce="false" />
    <inkscape:path-effect
       effect="simplify"
       id="path-effect282"
       is_visible="true"
       lpeversion="1"
       steps="1"
       threshold="0.000408163"
       smooth_angles="360"
       helper_size="0"
       simplify_individual_paths="false"
       simplify_just_coalesce="false" />
    <inkscape:path-effect
       effect="simplify"
       id="path-effect278"
       is_visible="true"
       lpeversion="1"
       steps="1"
       threshold="0.000408163"
       smooth_angles="360"
       helper_size="0"
       simplify_individual_paths="false"
       simplify_just_coalesce="false" />
    <inkscape:path-effect
       effect="simplify"
       id="path-effect274"
       is_visible="true"
       lpeversion="1"
       steps="1"
       threshold="0.000408163"
       smooth_angles="360"
       helper_size="0"
       simplify_individual_paths="false"
       simplify_just_coalesce="false" />
    <inkscape:path-effect
       effect="simplify"
       id="path-effect270"
       is_visible="true"
       lpeversion="1"
       steps="1"
       threshold="0.000408163"
       smooth_angles="360"
       helper_size="0"
       simplify_individual_paths="false"
       simplify_just_coalesce="false" />
    <inkscape:path-effect
       effect="simplify"
       id="path-effect266"
       is_visible="true"
       lpeversion="1"
       steps="1"
       threshold="0.000408163"
       smooth_angles="360"
       helper_size="0"
       simplify_individual_paths="false"
       simplify_just_coalesce="false" />
    <inkscape:path-effect
       effect="simplify"
       id="path-effect262"
       is_visible="true"
       lpeversion="1"
       steps="1"
       threshold="0.000408163"
       smooth_angles="360"
       helper_size="0"
       simplify_individual_paths="false"
       simplify_just_coalesce="false" />
    <inkscape:path-effect
       effect="simplify"
       id="path-effect258"
       is_visible="true"
       lpeversion="1"
       steps="1"
       threshold="0.000408163"
       smooth_angles="360"
       helper_size="0"
       simplify_individual_paths="false"
       simplify_just_coalesce="false" />
    <inkscape:path-effect
       effect="simplify"
       id="path-effect254"
       is_visible="true"
       lpeversion="1"
       steps="1"
       threshold="0.000408163"
       smooth_angles="360"
       helper_size="0"
       simplify_individual_paths="false"
       simplify_just_coalesce="false" />
    <inkscape:path-effect
       effect="simplify"
       id="path-effect250"
       is_visible="true"
       lpeversion="1"
       steps="1"
       threshold="0.000408163"
       smooth_angles="360"
       helper_size="0"
       simplify_individual_paths="false"
       simplify_just_coalesce="false" />
    <inkscape:path-effect
       effect="simplify"
       id="path-effect246"
       is_visible="true"
       lpeversion="1"
       steps="1"
       threshold="0.000408163"
       smooth_angles="360"
       helper_size="0"
       simplify_individual_paths="false"
       simplify_just_coalesce="false" />
    <inkscape:path-effect
       effect="simplify"
       id="path-effect242"
       is_visible="true"
       lpeversion="1"
       steps="1"
       threshold="0.000408163"
       smooth_angles="360"
       helper_size="0"
       simplify_individual_paths="false"
       simplify_just_coalesce="false" />
    <inkscape:path-effect
       effect="simplify"
       id="path-effect238"
       is_visible="true"
       lpeversion="1"
       steps="1"
       threshold="0.000408163"
       smooth_angles="360"
       helper_size="0"
       simplify_individual_paths="false"
       simplify_just_coalesce="false" />
    <inkscape:path-effect
       effect="simplify"
       id="path-effect234"
       is_visible="true"
       lpeversion="1"
       steps="1"
       threshold="0.000408163"
       smooth_angles="360"
       helper_size="0"
       simplify_individual_paths="false"
       simplify_just_coalesce="false" />
    <inkscape:path-effect
       effect="simplify"
       id="path-effect230"
       is_visible="true"
       lpeversion="1"
       steps="1"
       threshold="0.000408163"
       smooth_angles="360"
       helper_size="0"
       simplify_individual_paths="false"
       simplify_just_coalesce="false" />
    <inkscape:path-effect
       effect="simplify"
       id="path-effect226"
       is_visible="true"
       lpeversion="1"
       steps="1"
       threshold="0.000408163"
       smooth_angles="360"
       helper_size="0"
       simplify_individual_paths="false"
       simplify_just_coalesce="false" />
    <inkscape:path-effect
       effect="simplify"
       id="path-effect222"
       is_visible="true"
       lpeversion="1"
       steps="1"
       threshold="0.000408163"
       smooth_angles="360"
       helper_size="0"
       simplify_individual_paths="false"
       simplify_just_coalesce="false" />
    <inkscape:path-effect
       effect="simplify"
       id="path-effect218"
       is_visible="true"
       lpeversion="1"
       steps="1"
       threshold="0.000408163"
       smooth_angles="360"
       helper_size="0"
       simplify_individual_paths="false"
       simplify_just_coalesce="false" />
    <inkscape:path-effect
       effect="simplify"
       id="path-effect214"
       is_visible="true"
       lpeversion="1"
       steps="1"
       threshold="0.000408163"
       smooth_angles="360"
       helper_size="0"
       simplify_individual_paths="false"
       simplify_just_coalesce="false" />
    <inkscape:path-effect
       effect="simplify"
       id="path-effect210"
       is_visible="true"
       lpeversion="1"
       steps="1"
       threshold="0.000408163"
       smooth_angles="360"
       helper_size="0"
       simplify_individual_paths="false"
       simplify_just_coalesce="false" />
    <inkscape:path-effect
       effect="simplify"
       id="path-effect206"
       is_visible="true"
       lpeversion="1"
       steps="1"
       threshold="0.000408163"
       smooth_angles="360"
       helper_size="0"
       simplify_individual_paths="false"
       simplify_just_coalesce="false" />
    <inkscape:path-effect
       effect="simplify"
       id="path-effect202"
       is_visible="true"
       lpeversion="1"
       steps="1"
       threshold="0.000408163"
       smooth_angles="360"
       helper_size="0"
       simplify_individual_paths="false"
       simplify_just_coalesce="false" />
    <inkscape:path-effect
       effect="simplify"
       id="path-effect198"
       is_visible="true"
       lpeversion="1"
       steps="1"
       threshold="0.000408163"
       smooth_angles="360"
       helper_size="0"
       simplify_individual_paths="false"
       simplify_just_coalesce="false" />
    <inkscape:path-effect
       effect="simplify"
       id="path-effect194"
       is_visible="true"
       lpeversion="1"
       steps="1"
       threshold="0.000408163"
       smooth_angles="360"
       helper_size="0"
       simplify_individual_paths="false"
       simplify_just_coalesce="false" />
    <inkscape:path-effect
       effect="simplify"
       id="path-effect190"
       is_visible="true"
       lpeversion="1"
       steps="1"
       threshold="0.000408163"
       smooth_angles="360"
       helper_size="0"
       simplify_individual_paths="false"
       simplify_just_coalesce="false" />
    <inkscape:path-effect
       effect="simplify"
       id="path-effect186"
       is_visible="true"
       lpeversion="1"
       steps="1"
       threshold="0.000408163"
       smooth_angles="360"
       helper_size="0"
       simplify_individual_paths="false"
       simplify_just_coalesce="false" />
    <inkscape:path-effect
       effect="simplify"
       id="path-effect182"
       is_visible="true"
       lpeversion="1"
       steps="1"
       threshold="0.000408163"
       smooth_angles="360"
       helper_size="0"
       simplify_individual_paths="false"
       simplify_just_coalesce="false" />
    <inkscape:path-effect
       effect="simplify"
       id="path-effect178"
       is_visible="true"
       lpeversion="1"
       steps="1"
       threshold="0.000408163"
       smooth_angles="360"
       helper_size="0"
       simplify_individual_paths="false"
       simplify_just_coalesce="false" />
    <inkscape:path-effect
       effect="simplify"
       id="path-effect174"
       is_visible="true"
       lpeversion="1"
       steps="1"
       threshold="0.000408163"
       smooth_angles="360"
       helper_size="0"
       simplify_individual_paths="false"
       simplify_just_coalesce="false" />
    <inkscape:path-effect
       effect="simplify"
       id="path-effect170"
       is_visible="true"
       lpeversion="1"
       steps="1"
       threshold="0.000408163"
       smooth_angles="360"
       helper_size="0"
       simplify_individual_paths="false"
       simplify_just_coalesce="false" />
  </defs>
  <g
     inkscape:groupmode="layer"
     id="layer2"
     inkscape:label="Nucleo"
     transform="translate(0.42796623,1.7751384)">
    <path
       style="fill:none;stroke:#000000;stroke-width:0.264583px;stroke-linecap:butt;stroke-linejoin:miter;stroke-opacity:1"
       d="m 148.6791,139.43575 c -0.28934,0.0273 -0.58876,0.0428 -0.87129,-0.0396 -0.1729,-0.0504 -0.3284,-0.16523 -0.4139,-0.3259 -0.11354,-0.21337 -0.13888,-0.45863 -0.16599,-0.69476 -0.0398,-0.34684 -0.0482,-0.71242 -0.20334,-1.02761 -0.0775,-0.15749 -0.23302,-0.25579 -0.38112,-0.33873 -0.23627,-0.13232 -0.4965,-0.21648 -0.73009,-0.3535 -0.18129,-0.10634 -0.28664,-0.2956 -0.38943,-0.47132 -0.0877,-0.14998 -0.1916,-0.29512 -0.33695,-0.39561 -0.27599,-0.19081 -0.57649,-0.34201 -0.86491,-0.51254 -0.32997,-0.19509 -0.66163,-0.40058 -0.92586,-0.68213 -0.13292,-0.14163 -0.23613,-0.31156 -0.29076,-0.49917 -0.10696,-0.36733 -0.16859,-0.74585 -0.23392,-1.12222 -0.10151,-0.58483 -0.17047,-1.17674 -0.31464,-1.75287 -0.0401,-0.16017 -0.0609,-0.33349 -0.15313,-0.47192 -0.071,-0.10665 -0.16379,-0.19714 -0.25529,-0.28611 -0.22476,-0.21856 -0.45721,-0.42829 -0.68542,-0.6438 -0.22643,-0.21383 -0.53591,-0.32027 -0.8411,-0.35074 -0.3588,-0.0358 -0.73915,0.0301 -1.03954,0.23877 -0.22097,0.15354 -0.36914,0.39899 -0.41785,0.66303 -0.0278,0.15063 -0.0336,0.31428 0.0401,0.45474 0.0923,0.17592 0.27887,0.28845 0.33993,0.48354 0.051,0.16292 -0.005,0.33216 -0.0448,0.49051 -0.0801,0.31974 -0.21005,0.62546 -0.37699,0.90981 -0.0941,0.1603 -0.1994,0.32545 -0.21224,0.51626 -0.0157,0.23396 0.0598,0.46216 0.1397,0.67842 0.10386,0.28124 0.24192,0.54812 0.3591,0.82375 0.0765,0.1799 0.11941,0.38645 0.26965,0.52313 0.10767,0.098 0.24406,0.15694 0.37704,0.21153 0.29865,0.1226 0.62313,0.20089 0.88223,0.40391 0.16992,0.13314 0.28508,0.31944 0.39323,0.50254 0.30813,0.52167 0.50361,1.1083 0.87239,1.59356 0.37836,0.49786 0.8383,0.92462 1.27864,1.36596 0.46322,0.46428 0.92053,0.94533 1.25916,1.51173 0.16994,0.28425 0.27828,0.59847 0.39664,0.90605 0.56149,1.45905 1.10431,2.9276 1.76084,4.34712 0.22293,0.48201 0.44328,0.96884 0.73397,1.41436 0.10613,0.16266 0.2287,0.31606 0.38432,0.43673 1.22665,0.9512 2.5926,1.69774 3.9425,2.45525 0.50182,0.2816 0.99575,0.57683 1.49229,0.86761 0.6152,0.36027 1.24976,0.70201 1.93394,0.91025 0.38523,0.11725 0.79296,0.2024 1.19659,0.14715 0.27175,-0.0372 0.55014,-0.15274 0.71599,-0.37595 0.11325,-0.15242 0.1272,-0.34992 0.1344,-0.53285 0.007,-0.16978 0.0169,-0.33991 0.0565,-0.50651 0.10754,-0.45242 0.0938,-0.93744 -0.0712,-1.37527 -0.19197,-0.50926 -0.56208,-0.92597 -0.959,-1.28797 -0.50514,-0.4607 -1.08553,-0.83326 -1.57409,-1.31213 -0.18853,-0.18479 -0.37567,-0.38102 -0.49498,-0.61869 -0.14693,-0.2927 -0.17713,-0.62346 -0.22883,-0.94197 -0.0352,-0.21681 -0.0927,-0.43049 -0.18568,-0.63084 -0.49088,-1.05787 -1.07125,-2.08227 -1.80829,-2.9888 -0.21965,-0.27016 -0.44287,-0.54014 -0.70057,-0.77456 -0.31734,-0.28867 -0.72327,-0.44929 -1.1213,-0.59263 -0.4381,-0.15777 -0.8916,-0.29939 -1.27653,-0.57056 -0.19893,-0.14014 -0.35993,-0.32626 -0.49564,-0.52751 -0.22939,-0.34017 -0.36551,-0.73373 -0.44465,-1.136 -0.0215,-0.10934 -0.0281,-0.22229 -0.0634,-0.32861 -0.0247,-0.0746 -0.10598,-0.0275 -0.14639,0.007 -0.13021,0.11054 -0.24128,0.24188 -0.35752,0.36646"
       id="path168"
       inkscape:path-effect="#path-effect170"
       inkscape:original-d="m 148.6791,139.43575 c -1.81402,0.18869 -1.23473,-0.8668 -1.64054,-2.05317 -0.12871,-0.37627 -0.92228,-0.56546 -1.18881,-0.76994 -0.26743,-0.20519 -0.34117,-0.58203 -0.61818,-0.79133 -0.52272,-0.39496 -1.81851,-0.88658 -2.0923,-1.62543 -0.26391,-0.71217 -0.48925,-3.1441 -0.76083,-3.48611 -0.22898,-0.28837 -0.64835,-0.60574 -0.87972,-0.85549 -0.58721,-0.63387 -2.28853,-0.57847 -2.35384,0.68439 -0.026,0.50289 0.51743,0.50958 0.40419,1.04797 -0.36597,1.74012 -1.14456,1.02676 -0.16643,3.07976 0.12143,0.25486 0.13803,0.50567 0.4042,0.663 0.46794,0.27661 1.00941,0.2757 1.35524,0.74855 0.43768,0.59844 0.63414,1.32909 1.0937,1.92485 0.80041,1.03763 2.20368,1.99717 2.71048,3.25086 0.44978,1.11265 2.22395,6.02255 2.99578,6.63004 1.60464,1.26296 3.48446,2.16798 5.25453,3.22947 0.77051,0.46207 3.11177,1.87801 4.06572,0.87688 0.24113,-0.25306 0.12935,-0.68744 0.21399,-1.02659 0.59792,-2.39584 -2.1666,-3.21878 -3.01957,-4.53409 -0.31368,-0.4837 -0.2153,-1.10889 -0.45175,-1.62543 -0.61722,-1.34833 -1.44315,-2.72688 -2.47272,-3.76415 -0.77898,-0.78481 -2.16268,-0.68517 -2.85314,-1.60404 -0.9664,-1.28609 -0.20938,-2.23882 -1.11747,-1.24046" />
    <path
       style="fill:none;stroke:#000000;stroke-width:0.264583px;stroke-linecap:butt;stroke-linejoin:miter;stroke-opacity:1"
       d="m 119.19672,200.43211 c -0.70947,-0.3645 -1.45787,-0.64594 -2.21574,-0.89236 -0.70319,-0.22864 -1.42422,-0.42414 -2.0801,-0.77453 -0.53556,-0.28611 -1.00076,-0.6911 -1.39035,-1.15494 -0.38382,-0.45698 -0.68779,-0.97289 -0.98942,-1.4865 -0.34316,-0.58432 -0.83858,-1.05982 -1.35638,-1.48902 -0.70539,-0.58469 -1.47339,-1.09434 -2.13385,-1.73265 -0.21979,-0.21242 -0.41605,-0.44742 -0.60029,-0.6911 -0.64554,-0.85383 -1.23149,-1.75898 -1.97949,-2.52984 -0.46938,-0.48373 -1.00924,-0.91985 -1.64254,-1.16576 -0.28478,-0.11058 -0.58444,-0.19237 -0.89031,-0.20988 -0.41505,-0.0238 -0.831,0.10917 -1.16935,0.34794 -0.4614,0.32561 -0.79104,0.81498 -0.97655,1.34364 -0.18305,0.52166 -0.23007,1.09877 -0.0866,1.63719 0.0482,0.18078 0.12854,0.35259 0.23902,0.50383 0.22111,0.30269 0.51546,0.53953 0.79604,0.78404 0.25582,0.22293 0.50958,0.4561 0.69301,0.7454 0.33869,0.53416 0.56637,1.12728 0.80887,1.70862 0.23115,0.55413 0.4701,1.11214 0.8202,1.60384 0.18251,0.25633 0.40668,0.48109 0.65593,0.67277 0.48613,0.37385 1.02633,0.6696 1.57042,0.94908 1.06658,0.54786 2.17233,1.01738 3.22486,1.59283 0.3578,0.19562 0.70326,0.41331 1.03427,0.65194 0.98595,0.71079 1.96916,1.431 3.02199,2.04024 0.19882,0.11505 0.39339,0.23764 0.5772,0.37592 0.48162,0.36232 0.88103,0.82425 1.3832,1.16056 0.25996,0.1741 0.53659,0.35583 0.847,0.39671 0.082,0.0108 0.1492,-0.0522 0.19628,-0.11132 0.11784,-0.148 0.19593,-0.3229 0.26532,-0.4974 0.11614,-0.29204 0.21523,-0.59142 0.28896,-0.89681 0.11593,-0.48021 0.0819,-0.98543 -0.0371,-1.46158 -0.16918,-0.67674 -0.48322,-1.30382 -0.77873,-1.93177 -0.0639,-0.1357 -0.1271,-0.2717 -0.18805,-0.40874"
       id="path172"
       inkscape:path-effect="#path-effect174"
       inkscape:original-d="m 119.19672,200.43211 c -3.1634,-1.61271 -4.7085,-0.77142 -6.63354,-4.23468 -0.87971,-1.58265 -2.90976,-2.42044 -3.99439,-3.80692 -1.17703,-1.50458 -2.40285,-3.73924 -4.44613,-4.06358 -1.76767,-0.28058 -2.95145,1.98924 -2.37762,3.48613 0.26713,0.69682 1.19599,1.14913 1.61678,1.77513 0.75031,1.11622 1.04641,2.78536 1.97342,3.74277 1.16722,1.20549 4.4731,2.27789 6.06291,3.42196 1.11588,0.80301 2.11244,1.52474 3.30488,2.22427 1.03569,0.60756 1.44728,1.48189 2.63915,1.83929 0.33217,0.0996 0.70336,-1.27143 0.73706,-1.39016 0.38713,-1.36393 -0.42446,-2.67624 -0.97482,-3.91386" />
    <path
       style="fill:none;stroke:#000000;stroke-width:0.264583px;stroke-linecap:butt;stroke-linejoin:miter;stroke-opacity:1"
       d="m 125.23585,190.35872 c 0.80813,0.26067 1.63438,0.47955 2.40431,0.84382 0.43462,0.20563 0.84825,0.46602 1.18958,0.81007 0.36049,0.36336 0.78685,0.65365 1.22371,0.9164 0.84412,0.50771 1.73765,0.92653 2.63527,1.32961 0.6799,0.30531 1.37109,0.5852 2.04771,0.89769 0.36614,0.1691 0.69796,0.40007 1.04159,0.60885 0.29852,0.18137 0.62208,0.32246 0.96307,0.4044 0.10603,0.0255 0.21558,0.0327 0.3218,0.0561 0.0632,0.0139 0.13226,0.0754 0.18981,0.0439 0.0433,-0.0237 -0.009,-0.0856 -0.0239,-0.11719 -0.15571,-0.32229 -0.35829,-0.61932 -0.56569,-0.90988 -0.57855,-0.81051 -1.20705,-1.58432 -1.8564,-2.33874 -0.66669,-0.77456 -1.34196,-1.54459 -2.07968,-2.25239 -0.25567,-0.2453 -0.50638,-0.50142 -0.80216,-0.69797 -0.15363,-0.10209 -0.31919,-0.18467 -0.48331,-0.26825 -0.67793,-0.34524 -1.38301,-0.64585 -2.01321,-1.07708 -0.27105,-0.18547 -0.51943,-0.4041 -0.73367,-0.65363 -0.38472,-0.4481 -0.68545,-0.96716 -1.11648,-1.37508 -0.18372,-0.17387 -0.38973,-0.32212 -0.59509,-0.46887 -1.14935,-0.8213 -2.44859,-1.41792 -3.55382,-2.30134 -0.12681,-0.10136 -0.26077,-0.19574 -0.37435,-0.312 -0.27238,-0.27882 -0.36847,-0.68124 -0.64156,-0.959 -0.54996,-0.55937 -1.11588,-1.10724 -1.74199,-1.58143 -0.32452,-0.24578 -0.67018,-0.46497 -1.04032,-0.63726 -0.33909,-0.15784 -0.67304,-0.33109 -1.02771,-0.45068 -0.078,-0.0263 -0.15751,-0.0783 -0.23929,-0.0631 -0.0518,0.01 -0.0399,0.0831 -0.0346,0.12155 0.0242,0.17785 0.083,0.3488 0.14429,0.5166 0.0549,0.15022 0.0911,0.30616 0.14216,0.45786 0.28214,0.83872 0.77544,1.59422 1.37316,2.2421 0.77132,0.83605 1.69558,1.51161 2.63827,2.14017 0.89505,0.59679 1.80505,1.17036 2.69667,1.77282 0.19981,0.13501 0.40803,0.25728 0.60719,0.39354 0.0377,0.0258 0.0834,0.0328 0.12894,0.0247 0.0784,-0.014 0.14899,-0.0654 0.22896,-0.065 0.0608,3.4e-4 0.0405,0.0763 0.0401,0.11541 -0.002,0.2673 -0.0162,0.53431 -0.0235,0.80149"
       id="path176"
       inkscape:path-effect="#path-effect178"
       inkscape:original-d="m 125.23585,190.35872 c 1.08318,0.35405 2.74003,0.75817 3.56642,1.62544 1.15676,1.21395 4.29013,2.43209 5.8727,3.14391 0.88446,0.39782 1.31589,0.96345 2.35384,1.09076 0.079,0.01 0.26661,0.0955 0.23776,0.0214 -0.45546,-1.1705 -4.43634,-5.7809 -5.44473,-6.352 -0.88511,-0.50129 -2.11445,-0.94203 -2.87692,-1.66822 -0.55867,-0.53209 -0.9368,-1.31345 -1.54544,-1.79651 -1.3372,-1.06128 -2.98533,-1.7629 -4.2797,-2.8659 -0.32262,-0.27492 -0.41704,-0.72456 -0.71329,-1.02658 -0.71301,-0.72691 -1.80843,-1.77581 -2.71048,-2.1815 -0.14207,-0.0639 -1.29666,-0.62249 -1.35523,-0.53468 -0.0708,0.1061 0.14892,0.66131 0.16643,0.72717 0.83238,3.13113 4.14633,4.65276 6.70487,6.43756 0.0462,0.0322 0.61384,0.42579 0.76083,0.4919 0.10861,0.0488 0.35665,-0.14048 0.35665,-0.0214 0,0.2924 -0.0159,0.58458 -0.0238,0.87687" />
    <path
       style="fill:none;stroke:#000000;stroke-width:0.264583px;stroke-linecap:butt;stroke-linejoin:miter;stroke-opacity:1"
       d="m 186.76845,196.00495 c 0.11132,-0.56386 0.18367,-1.14221 0.13128,-1.71712 -0.0398,-0.43697 -0.16794,-0.8718 -0.41355,-1.23915 -0.24777,-0.37059 -0.61068,-0.65087 -1.00556,-0.8509 -0.42016,-0.21283 -0.87754,-0.33764 -1.33559,-0.43988 -0.91745,-0.20479 -1.84583,-0.39188 -2.78832,-0.41708 -0.6563,-0.0175 -1.32348,0.0456 -1.94469,0.26892 -0.34105,0.12261 -0.66376,0.29848 -0.94357,0.53008 -0.49386,0.40878 -0.86438,0.94839 -1.14264,1.52141 -0.37022,0.7624 -0.59925,1.58954 -0.70969,2.42824 -0.0961,0.7299 -0.11225,1.47519 0.006,2.2034 0.0651,0.40135 0.17656,0.7977 0.35938,1.16225 0.25126,0.50102 0.59211,0.95187 0.96532,1.36772 0.39779,0.44324 0.83077,0.85509 1.29287,1.23052 0.97863,0.79509 2.11685,1.407 3.34095,1.72094 0.88515,0.22701 1.8221,0.29494 2.72218,0.11303 0.71887,-0.14529 1.40389,-0.47004 1.95594,-0.95623 0.56951,-0.50157 0.97698,-1.16716 1.23296,-1.87774 0.21344,-0.59249 0.31359,-1.21828 0.37547,-1.8437 0.0469,-0.47443 0.17121,-0.94004 0.1798,-1.41841 0.005,-0.2907 -0.0462,-0.58575 -0.17711,-0.84742 -0.0105,-0.0209 -0.0214,-0.0416 -0.0327,-0.062"
       id="path184"
       inkscape:path-effect="#path-effect186"
       inkscape:original-d="m 186.76845,196.00495 c 0.46639,-2.33174 -0.11167,-3.68234 -2.47271,-4.21327 -1.59097,-0.35777 -3.72444,-0.81102 -5.30207,0 -2.15822,1.10947 -2.9102,5.16283 -2.18742,7.25026 0.37028,1.06938 1.41765,2.14713 2.25875,2.86588 3.69301,3.15582 9.31583,3.06833 9.79575,-2.63062 0.0694,-0.82355 0.39542,-1.6412 -0.0238,-2.39538" />
    <path
       style="fill:none;stroke:#000000;stroke-width:0.264583px;stroke-linecap:butt;stroke-linejoin:miter;stroke-opacity:1"
       d="m 90.926908,121.47049 c -0.321387,0.008 -0.640188,0.0558 -0.961456,0.0654 -0.252497,0.008 -0.507158,-0.0326 -0.741571,-0.12986 -0.174278,-0.0723 -0.336261,-0.17504 -0.469987,-0.30906 -0.259381,-0.25995 -0.43329,-0.58838 -0.601806,-0.91078 -0.177748,-0.34006 -0.32871,-0.70266 -0.581232,-0.99457 -0.260405,-0.30102 -0.509587,-0.61147 -0.760345,-0.92053 -0.433439,-0.53422 -0.869799,-1.07036 -1.377302,-1.53735 -0.189943,-0.17478 -0.397985,-0.32877 -0.617108,-0.46519 -0.429103,-0.26714 -0.890761,-0.48858 -1.275312,-0.82229 -0.152501,-0.13234 -0.279246,-0.29061 -0.397183,-0.45375 -0.404685,-0.55981 -0.757818,-1.15488 -1.16258,-1.71468 -0.341505,-0.47231 -0.711173,-0.93448 -1.173958,-1.29413 -0.327304,-0.25436 -0.715831,-0.4424 -1.13275,-0.48577 -0.577991,-0.0601 -1.160602,0.034 -1.738085,-0.0441 -0.687633,-0.093 -1.365648,-0.27927 -2.063243,-0.28116 -0.388542,-0.001 -0.783584,0.0462 -1.144705,0.19612 -0.553769,0.22987 -1.007651,0.65113 -1.361449,1.12726 -0.483988,0.65133 -0.819428,1.40789 -1.011297,2.19415 -0.155924,0.63896 -0.229669,1.3074 -0.135945,1.96157 0.0506,0.35314 0.162689,0.69981 0.351627,1.00448 0.289444,0.46674 0.674269,0.86513 1.075405,1.23642 0.378785,0.3506 0.771691,0.68548 1.166442,1.01779 0.814921,0.68601 1.75448,1.1982 2.681713,1.71313 0.891403,0.49503 1.780763,1.01157 2.551664,1.68623 0.271481,0.23759 0.518896,0.50219 0.736353,0.79026 0.671672,0.88978 1.113374,1.92884 1.792026,2.81383 0.348571,0.45455 0.777019,0.86037 1.296253,1.11377 0.341336,0.16658 0.731852,0.24382 1.10981,0.18146 0.427282,-0.0705 0.807457,-0.30076 1.145826,-0.56101 0.524965,-0.40377 0.970899,-0.90353 1.517662,-1.2795 0.253409,-0.17425 0.530537,-0.31024 0.808379,-0.44034 0.812426,-0.38041 1.673539,-0.66544 2.437065,-1.14338 0.191593,-0.11993 0.382987,-0.2436 0.551337,-0.39485 0.115224,-0.10352 0.208955,-0.24524 0.210287,-0.40507 0.0016,-0.19156 -0.09752,-0.36256 -0.177535,-0.53024 -0.02599,-0.0545 -0.051,-0.1095 -0.07146,-0.16631"
       id="path188"
       inkscape:path-effect="#path-effect190"
       inkscape:original-d="m 90.926908,121.47049 c -0.770543,0.0247 -1.240763,0.20074 -1.878311,-0.14972 -0.72667,-0.39945 -0.978316,-1.5579 -1.521675,-2.1815 -0.707771,-0.81229 -1.476531,-1.9161 -2.306282,-2.58785 -0.612254,-0.49566 -1.452727,-0.75497 -1.949644,-1.39017 -0.897874,-1.14773 -1.961097,-3.46322 -3.542641,-3.65721 -0.576133,-0.0707 -1.160695,0.0311 -1.735656,-0.0428 -0.964634,-0.12397 -1.879594,-0.42918 -2.876912,-0.21387 -2.260889,0.48811 -3.585136,4.54321 -2.615372,6.28785 0.480594,0.86461 1.461532,1.63658 2.211176,2.28842 1.721937,1.4973 3.95973,2.12997 5.587391,3.72138 1.308722,1.27959 1.82313,3.51445 3.423761,4.40577 1.829554,1.0188 2.870978,-1.00723 4.160819,-1.73237 1.125286,-0.63262 2.470034,-0.95946 3.495093,-1.77513 0.52224,-0.41556 0.158446,-0.78048 0.02379,-1.15491" />
    <path
       style="fill:none;stroke:#000000;stroke-width:0.264583px;stroke-linecap:butt;stroke-linejoin:miter;stroke-opacity:1"
       d="m 120.57573,129.38376 c -0.24192,0.13152 -0.46865,0.29159 -0.72009,0.40478 -0.12673,0.057 -0.26732,0.1091 -0.40837,0.0828 -0.12428,-0.0232 -0.21938,-0.12028 -0.28011,-0.22609 -0.0981,-0.17093 -0.15036,-0.3638 -0.18859,-0.55577 -0.0858,-0.43104 -0.0717,-0.87795 -0.19602,-1.30236 -0.0784,-0.2676 -0.22592,-0.50872 -0.38589,-0.73452 -0.28798,-0.4065 -0.68072,-0.74012 -1.13717,-0.94355 -0.54576,-0.24324 -1.15227,-0.30432 -1.74384,-0.29851 -1.11602,0.011 -2.2225,0.23305 -3.34029,0.18171 -0.54777,-0.0252 -1.09727,-0.13225 -1.5961,-0.36735 -0.37542,-0.17694 -0.74226,-0.38225 -1.05727,-0.65439 -0.20522,-0.17729 -0.40196,-0.38317 -0.49605,-0.64125 -0.0569,-0.15594 -0.0799,-0.32159 -0.10507,-0.48482 -0.0894,-0.58056 -0.15003,-1.17135 -0.33948,-1.72985 -0.0841,-0.24804 -0.18993,-0.49831 -0.37343,-0.69045 -0.11864,-0.12423 -0.2856,-0.20495 -0.45944,-0.20256 -0.23832,0.003 -0.45469,0.12442 -0.64693,0.25509 -0.34885,0.23711 -0.68711,0.50079 -0.94683,0.83703 -0.15282,0.19784 -0.26883,0.4211 -0.36488,0.65139 -0.16436,0.39408 -0.30034,0.80733 -0.32737,1.23621 -0.0184,0.29212 0.0261,0.58985 0.14809,0.85762 0.18214,0.39991 0.4592,0.74814 0.75534,1.06888 0.57184,0.61934 1.21928,1.16357 1.88344,1.68033 1.5899,1.23705 3.29281,2.31687 4.95406,3.45341 0.39604,0.27095 0.80138,0.53091 1.17283,0.83504 0.38835,0.31797 0.72045,0.69686 1.05121,1.07242 0.50892,0.57785 1.0054,1.17481 1.60522,1.66214 0.38808,0.3153 0.82806,0.58899 1.32216,0.69513 0.23489,0.0505 0.48111,0.0751 0.71739,0.0291 0.26874,-0.0523 0.50466,-0.20781 0.70965,-0.38246 0.38098,-0.32459 0.69424,-0.72168 0.9648,-1.14046 0.31825,-0.4926 0.59753,-1.01626 0.77468,-1.57632 0.0857,-0.271 0.16189,-0.55304 0.1481,-0.83935 -0.007,-0.14864 -0.0448,-0.3121 -0.1658,-0.41057 -0.0874,-0.0711 -0.20299,-0.0853 -0.31031,-0.10032 -0.37071,-0.0517 -0.7448,0.001 -1.11694,-0.0111"
       id="path192"
       inkscape:path-effect="#path-effect194"
       inkscape:original-d="m 120.57573,129.38376 c -0.72851,0.40221 -1.23754,0.87628 -1.52167,0 -0.22236,-0.6858 -0.0679,-1.31975 -0.42797,-1.96763 -1.69616,-3.05149 -5.38413,-0.59298 -7.965,-1.75375 -0.56963,-0.25619 -1.41488,-0.73841 -1.64055,-1.3474 -0.23687,-0.63919 -0.21774,-3.98618 -1.87831,-2.86588 -0.58123,0.39212 -1.02553,0.76434 -1.30769,1.41155 -0.25537,0.58578 -0.49683,1.31626 -0.30909,1.96763 0.61626,2.13819 6.78293,5.69248 8.77339,7.20749 1.31961,1.00441 2.72741,3.72683 4.70766,3.52889 1.3926,-0.1392 3.45179,-4.16065 2.35384,-4.42715 -0.41612,-0.10101 -0.85594,-0.0285 -1.28391,-0.0428" />
    <path
       style="fill:none;stroke:#000000;stroke-width:0.264583px;stroke-linecap:butt;stroke-linejoin:miter;stroke-opacity:1"
       d="m 70.788532,145.27446 c -0.821199,-0.21636 -1.6182,-0.55737 -2.299411,-1.07134 -0.555832,-0.41937 -1.014413,-0.95296 -1.411245,-1.52181 -0.495723,-0.71061 -0.923071,-1.46599 -1.41632,-2.1783 -0.275988,-0.39856 -0.560164,-0.79378 -0.886421,-1.1527 -0.391424,-0.43061 -0.844648,-0.79826 -1.261458,-1.20306 -0.269385,-0.26162 -0.54317,-0.52954 -0.730966,-0.85685 -0.124264,-0.21658 -0.199807,-0.45616 -0.282126,-0.69065 -0.09783,-0.27866 -0.190428,-0.56344 -0.347864,-0.8154 -0.07084,-0.11338 -0.163924,-0.21152 -0.27198,-0.29146 -0.822211,-0.60827 -1.614354,-1.25469 -2.443585,-1.85517 -0.240672,-0.17428 -0.453358,-0.38298 -0.674968,-0.58003 -0.212327,-0.1888 -0.42544,-0.38134 -0.672265,-0.52456 -0.107676,-0.0625 -0.226372,-0.10372 -0.350037,-0.12384 -0.64369,-0.10471 -1.323509,-0.0515 -1.923341,0.21589 -0.444285,0.19802 -0.832539,0.52994 -1.073753,0.95561 -0.236266,0.41694 -0.315008,0.90926 -0.273491,1.38327 0.01757,0.20058 0.05505,0.39855 0.08499,0.59752 0.06738,0.44773 0.132595,0.89967 0.282268,1.32898 0.0602,0.17266 0.14577,0.33488 0.240082,0.49143 0.485363,0.80565 1.137254,1.4989 1.853828,2.10325 1.1693,0.98618 2.494509,1.76075 3.717787,2.67468 1.417898,1.05933 2.795632,2.16896 4.222817,3.2186 0.236531,0.17396 0.456026,0.36965 0.677784,0.56169 0.526751,0.45617 1.040556,0.92989 1.602877,1.34224 0.190919,0.14 0.379476,0.29189 0.599978,0.38084 0.06244,0.0252 0.134092,0.0737 0.197872,0.0472 0.05977,-0.0248 0.09643,-0.0833 0.129308,-0.13579 0.141139,-0.22536 0.231784,-0.47804 0.367605,-0.7061 0.01108,-0.0186 0.02258,-0.037 0.03575,-0.0543"
       id="path196"
       inkscape:path-effect="#path-effect198"
       inkscape:original-d="m 70.788532,145.27446 c -3.597696,-0.95435 -3.80705,-3.30819 -5.920253,-5.81732 -0.591095,-0.70184 -1.598359,-1.39047 -2.068523,-2.13873 -0.293998,-0.46789 -0.425882,-1.46251 -0.879716,-1.79652 -0.839618,-0.61793 -1.599655,-1.28773 -2.448941,-1.86069 -0.47779,-0.32234 -1.170265,-1.15157 -1.66433,-1.24046 -1.904452,-0.34266 -3.645987,0.75615 -3.304881,2.80172 0.104,0.62369 0.178377,1.47505 0.4993,2.03179 1.268474,2.20058 3.530323,3.34267 5.492285,4.79074 1.471226,1.08587 2.835179,2.28404 4.35103,3.31502 0.543886,0.36992 2.570173,2.35259 3.090897,2.35259 0.147466,0 0.420029,-0.73348 0.546849,-0.89826" />
    <path
       style="fill:none;stroke:#000000;stroke-width:0.264583px;stroke-linecap:butt;stroke-linejoin:miter;stroke-opacity:1"
       d="m 31.299634,133.89646 c -0.360846,-0.12443 -0.734141,-0.21064 -1.084786,-0.36784 -0.09322,-0.0418 -0.166125,-0.11784 -0.219783,-0.20343 -0.133385,-0.21276 -0.185842,-0.46391 -0.312063,-0.68045 -0.05415,-0.0929 -0.137513,-0.16712 -0.235155,-0.21223 -0.213608,-0.0987 -0.460892,-0.0935 -0.669707,-0.20547 -0.101108,-0.0542 -0.180784,-0.13873 -0.260228,-0.21952 -0.294946,-0.29996 -0.575818,-0.61343 -0.852975,-0.92976 -0.309586,-0.35334 -0.615269,-0.71022 -0.911741,-1.07472 -0.107543,-0.13222 -0.203622,-0.27384 -0.282078,-0.42538 -0.201655,-0.38949 -0.30967,-0.81707 -0.436076,-1.23452 -0.124931,-0.41258 -0.276845,-0.82171 -0.510994,-1.18628 -0.216289,-0.33676 -0.498406,-0.63264 -0.829483,-0.85711 -0.242561,-0.16446 -0.536625,-0.24885 -0.829613,-0.2421 -0.377627,0.009 -0.741017,0.15049 -1.057766,0.34925 -0.419942,0.26351 -0.779983,0.61967 -1.058457,1.02862 -0.206926,0.30388 -0.37374,0.6405 -0.452119,1.00186 -0.0362,0.16689 -0.03483,0.33825 -0.04424,0.5079 -0.04098,0.73906 -0.09384,1.48253 -0.01479,2.22091 0.0533,0.49787 0.168546,0.99745 0.410284,1.43965 0.15589,0.28516 0.364974,0.53796 0.595293,0.76576 0.297244,0.29399 0.628789,0.55288 0.982027,0.77557 0.389143,0.24533 0.826207,0.39792 1.258689,0.54701 0.38572,0.13297 0.772295,0.2697 1.132581,0.46378 0.651023,0.35069 1.225196,0.82137 1.841204,1.22674 0.439597,0.28928 0.909379,0.54253 1.418642,0.68636 0.204377,0.0577 0.425521,0.0825 0.632686,0.022 0.180175,-0.0526 0.330578,-0.17656 0.445685,-0.3224 0.161626,-0.20478 0.263816,-0.45541 0.289667,-0.7154 0.03239,-0.32579 -0.04293,-0.65046 -0.139307,-0.95968 -0.111244,-0.35692 -0.265046,-0.70059 -0.350793,-1.0652 -0.04796,-0.20392 -0.07455,-0.41969 -0.02383,-0.62583"
       id="path200"
       inkscape:path-effect="#path-effect202"
       inkscape:original-d="m 31.299634,133.89646 c -0.372491,-0.12833 -0.770316,-0.1987 -1.117479,-0.38497 -0.306268,-0.16433 -0.348212,-0.72484 -0.570626,-0.96242 -0.235654,-0.25173 -0.656164,-0.16143 -0.92727,-0.38498 -0.333954,-0.27537 -1.784609,-1.94477 -2.044747,-2.30981 -0.701863,-0.98491 -0.468363,-2.4579 -1.87831,-3.50751 -1.41229,-1.05135 -3.433439,1.00031 -3.495095,2.33121 -0.06094,1.31551 -0.268382,3.04791 0.546849,4.19189 0.353368,0.49587 0.849865,0.90549 1.355239,1.24046 0.690355,0.45759 1.542116,0.59915 2.282508,0.96243 1.188068,0.58294 2.167016,1.67517 3.471316,2.0104 0.393158,0.10104 0.745808,0.0489 1.022377,-0.29943 0.88528,-1.11487 -0.444839,-2.44468 -0.213987,-3.37918" />
    <path
       style="fill:none;stroke:#000000;stroke-width:0.264583px;stroke-linecap:butt;stroke-linejoin:miter;stroke-opacity:1"
       d="m 112.73286,49.29454 c -0.66699,-0.613602 -1.44736,-1.083682 -2.22034,-1.549255 -0.83046,-0.500191 -1.67808,-0.989663 -2.40342,-1.638966 -0.30219,-0.270511 -0.59649,-0.558154 -0.81941,-0.897764 -0.20155,-0.307048 -0.3105,-0.661108 -0.4622,-0.992962 -0.11889,-0.260081 -0.27136,-0.515473 -0.50332,-0.691456 -0.16249,-0.123277 -0.36366,-0.178521 -0.56281,-0.207795 -0.27102,-0.03984 -0.55232,-0.03578 -0.81073,-0.138155 -0.21355,-0.0846 -0.3668,-0.264464 -0.50746,-0.438343 -0.17537,-0.216779 -0.34307,-0.444734 -0.56916,-0.614189 -0.75892,-0.568817 -1.62449,-0.979903 -2.36354,-1.577346 -0.25393,-0.205274 -0.48055,-0.442328 -0.68432,-0.697109 -0.43657,-0.545846 -0.78434,-1.154799 -1.175138,-1.733114 -0.09532,-0.141057 -0.11067,-0.315525 -0.140144,-0.478632 -0.02618,-0.144892 -0.03929,-0.306468 -0.138196,-0.42096 -0.133226,-0.154219 -0.330074,-0.235444 -0.524538,-0.280673 -0.364672,-0.08482 -0.747341,-0.05975 -1.107982,-0.163787 -0.169734,-0.04897 -0.325761,-0.13501 -0.481667,-0.215991 -0.449057,-0.23325 -0.859974,-0.531792 -1.303333,-0.774678 -0.27884,-0.152757 -0.584165,-0.28803 -0.908869,-0.282758 -0.294039,0.0048 -0.568429,0.145579 -0.789508,0.331447 -0.351649,0.295643 -0.605458,0.68514 -0.863598,1.06127 -0.169189,0.246521 -0.230718,0.548525 -0.248507,0.842011 -0.02978,0.491256 0.03369,0.983747 0.135681,1.463352 0.08935,0.420185 0.199398,0.837701 0.359229,1.237028 0.200582,0.501141 0.507021,0.961013 0.904661,1.328076 0.483799,0.446596 1.076369,0.74584 1.650876,1.056099 0.52776,0.285014 1.062489,0.578043 1.501578,0.989852 0.285585,0.267842 0.473217,0.619309 0.63479,0.97119 0.200339,0.436307 0.341787,0.900524 0.580854,1.317903 0.2454,0.428435 0.531123,0.83267 0.83317,1.222776 0.595101,0.768596 1.281651,1.463322 1.857911,2.246115 0.29181,0.396395 0.50441,0.842497 0.74687,1.269047 0.20786,0.36568 0.42474,0.739027 0.74251,1.019918 0.15042,0.132963 0.31298,0.251562 0.47671,0.367406 0.41685,0.294931 0.85167,0.569537 1.3201,0.775216 0.23024,0.101095 0.47172,0.178247 0.72151,0.213735 0.53907,0.07659 1.08408,0.103694 1.62796,0.112766 0.89369,0.01491 1.79171,-0.0047 2.67678,-0.135218 0.45737,-0.06743 0.92132,-0.145074 1.34602,-0.333105 0.19129,-0.08469 0.39692,-0.180748 0.51495,-0.358231 0.0869,-0.130669 0.0955,-0.29511 0.0894,-0.446861 -0.0167,-0.413275 -0.14301,-0.815343 -0.14589,-1.229285 -0.001,-0.149724 0.0147,-0.312285 0.11303,-0.433211 0.13126,-0.161454 0.3031,-0.282534 0.46684,-0.408394 0.15139,-0.116371 0.31473,-0.222646 0.43867,-0.369323 0.0507,-0.06004 0.11044,-0.142156 0.0779,-0.22284 -0.0333,-0.08256 -0.12156,-0.120472 -0.19294,-0.16293 -0.26821,-0.159531 -0.58331,-0.260532 -0.89844,-0.223779 -0.30935,0.03608 -0.58526,0.203622 -0.81809,0.402482 -0.22655,0.193492 -0.42162,0.419674 -0.62332,0.637978"
       id="path204"
       inkscape:path-effect="#path-effect206"
       inkscape:original-d="m 112.73286,49.29454 c -1.5894,-1.46876 -4.07775,-2.253697 -5.39719,-4.020799 -0.40469,-0.541999 -0.483,-1.461201 -1.11748,-1.817912 -0.44126,-0.248076 -1.02321,-0.08322 -1.42656,-0.363585 -0.30725,-0.213561 -0.54106,-0.676865 -0.85594,-0.919647 -0.8715,-0.67193 -1.99104,-1.156075 -2.75804,-1.924854 -0.54859,-0.549868 -1.14734,-1.515473 -1.545445,-2.160106 -0.145031,-0.234836 -0.0906,-0.703651 -0.285319,-0.898266 -0.423484,-0.423251 -1.24288,-0.238199 -1.759421,-0.470516 -1.816025,-0.816769 -2.61008,-2.391167 -4.232155,0.235259 -0.477063,0.772451 -0.05907,2.500736 0.190201,3.22947 0.765108,2.236721 2.507929,2.246 4.089495,3.571669 0.671547,0.56289 0.903417,1.723059 1.331476,2.438143 0.753081,1.258041 1.718588,2.20254 2.591588,3.31502 0.55779,0.710801 0.92911,1.878182 1.64055,2.438141 0.55805,0.439227 1.46744,1.044308 2.16363,1.219073 0.93232,0.23404 5.56018,0.360553 6.39578,-0.64162 0.33858,-0.406077 -0.24574,-1.658551 0.0476,-2.095947 0.27187,-0.405448 1.33453,-0.864378 0.92727,-1.133523 -1.17857,-0.778872 -1.87963,0.13399 -2.44895,0.748557" />
    <path
       style="fill:none;stroke:#000000;stroke-width:0.264583px;stroke-linecap:butt;stroke-linejoin:miter;stroke-opacity:1"
       d="m 146.6376,78.210061 c -1.10413,-1.514084 -2.23085,-3.022977 -3.55707,-4.352717 -1.03033,-1.033064 -2.19418,-1.943235 -3.49233,-2.617458 -0.42877,-0.222691 -0.8752,-0.408507 -1.32601,-0.581662 -0.88255,-0.338982 -1.76724,-0.677867 -2.67728,-0.935828 -0.36716,-0.104076 -0.73658,-0.217662 -1.11803,-0.247613 -0.13048,-0.01024 -0.27319,-0.03446 -0.3931,0.02448 -0.38745,0.190454 -0.78428,0.361718 -1.16755,0.560655 -0.30263,0.157082 -0.59788,0.346512 -0.81325,0.615983 -0.25147,0.314636 -0.39031,0.701821 -0.48838,1.087456 -0.1091,0.429013 -0.20097,0.867759 -0.19986,1.31254 9.2e-4,0.368403 0.0847,0.73855 0.26186,1.063715 0.18834,0.345602 0.47666,0.628513 0.80529,0.841756 0.65248,0.423382 1.4237,0.613655 2.08055,1.029259 0.29609,0.187342 0.55531,0.426982 0.79796,0.677891 0.64881,0.670882 1.16296,1.454774 1.67376,2.231678 0.47709,0.725637 0.94137,1.466736 1.52496,2.112929 0.2194,0.242937 0.50875,0.40824 0.80568,0.538603 0.38045,0.167029 0.7819,0.297229 1.12638,0.536358 0.19978,0.138682 0.36957,0.317031 0.50956,0.515433 0.15796,0.223866 0.30009,0.463769 0.50089,0.652823 0.18448,0.173686 0.42375,0.269228 0.65689,0.358064 0.23333,0.08891 0.47051,0.184978 0.66081,0.351929 0.26631,0.233637 0.44087,0.551753 0.71065,0.782649 0.28827,0.246721 0.67809,0.359754 1.05489,0.332007 0.39969,-0.02943 0.77265,-0.189549 1.14015,-0.337422 0.31525,-0.12685 0.63893,-0.239167 0.97967,-0.284325 0.0539,-0.0071 0.10875,-0.0059 0.14211,0.05039 0.0908,0.153336 0.12065,0.337541 0.21804,0.486014 0.0461,0.07033 0.11963,0.117157 0.19068,0.159154 0.22075,0.130485 0.45946,0.231224 0.70628,0.299164 0.14879,0.04096 0.30243,0.08242 0.45787,0.07013 0.0875,-0.0069 0.16339,-0.0568 0.23774,-0.09867 0.30349,-0.170929 0.54077,-0.444944 0.69069,-0.757571 0.19832,-0.413561 0.26671,-0.875089 0.29336,-1.328954 0.0223,-0.380272 0.003,-0.761095 -0.003,-1.141542 -0.0167,-1.002094 0.0648,-2.006218 -0.0308,-3.006836 -0.0642,-0.672459 -0.32288,-1.312606 -0.66691,-1.888551 -0.45967,-0.769537 -1.06011,-1.450226 -1.73745,-2.034496 -0.49091,-0.423455 -1.02325,-0.803424 -1.60174,-1.098202"
       id="path208"
       inkscape:path-effect="#path-effect210"
       inkscape:original-d="m 146.6376,78.210061 c -2.20163,-3.020626 -4.54963,-6.091446 -8.20276,-7.485523 -0.65062,-0.248285 -3.8084,-1.495655 -4.37481,-1.219073 -1.59748,0.780064 -2.13427,0.814377 -2.52026,2.523691 -0.15851,0.701959 -0.24075,1.434905 0.11887,2.09595 0.67581,1.242245 2.19204,1.28074 3.186,2.095947 1.50542,1.234681 2.40191,3.339449 3.6853,4.790737 0.54245,0.61341 1.34469,0.656553 1.97341,1.112141 0.47652,0.345289 0.56182,0.690552 0.92727,1.090742 0.33792,0.370044 0.83734,0.400707 1.23636,0.663001 0.46636,0.306557 0.60644,0.857689 1.21259,1.112142 1.04448,0.438462 1.98896,-0.513292 2.90069,-0.513292 0.0802,0 0.23436,0.491138 0.2853,0.556062 0.17683,0.225348 1.1654,0.609378 1.42658,0.491913 1.15651,-0.520147 1.17913,-1.959943 1.14126,-3.101152 -0.0364,-1.09669 0.0851,-2.226281 -0.0476,-3.31502 -0.24309,-1.99539 -2.31469,-4.069157 -3.99439,-4.919062" />
    <path
       style="fill:none;stroke:#000000;stroke-width:0.264583px;stroke-linecap:butt;stroke-linejoin:miter;stroke-opacity:1"
       d="m 155.95783,0.00902269 c 1.50598,1.09560961 3.18811,1.92338271 4.68021,3.03945351 0.72946,0.5456278 1.432,1.1490428 1.96851,1.8881331 0.23172,0.3192124 0.38201,0.6877663 0.52002,1.054688 0.18596,0.4944125 0.33393,1.0054688 0.57343,1.4777841 0.12739,0.2512234 0.27632,0.503338 0.50009,0.6791458 0.19576,0.1538035 0.43494,0.2346904 0.66633,0.3174268 0.14552,0.052032 0.28635,0.115531 0.4253,0.1835045 0.46847,0.2291726 0.97208,0.4101766 1.49725,0.4388499 0.39493,0.021562 0.79261,-0.06238 1.15014,-0.2303656 0.47791,-0.2245477 0.88764,-0.5695259 1.25658,-0.9421001 0.11914,-0.1203133 0.25737,-0.2269295 0.34854,-0.3695877 0.0484,-0.075784 0.0437,-0.1710477 0.0321,-0.2561643 -0.0302,-0.221993 -0.10508,-0.434793 -0.18091,-0.6445628 -0.1086,-0.3004159 -0.23837,-0.592789 -0.34384,-0.8943406 -0.0553,-0.15822 -0.0816,-0.3244887 -0.11904,-0.4874242 -0.2286,-0.9958435 -0.46825,-1.9926034 -0.81859,-2.9539276 -0.2607,-0.7153557 -0.60186,-1.40211845 -1.0272,-2.03425107 -0.58033,-0.86246624 -1.28923,-1.62845053 -2.01377,-2.37024913 -0.56212,-0.5755089 -1.14217,-1.1330099 -1.71846,-1.6941939 -0.25497,-0.2482845 -0.49842,-0.5084825 -0.72481,-0.7832126 -0.28597,-0.3470254 -0.58947,-0.6827855 -0.83474,-1.0596058 -0.0836,-0.1284551 -0.13976,-0.2720971 -0.20407,-0.4106357 -0.0226,-0.048711 -0.0433,-0.1927798 -0.0692,-0.1456307 -0.0129,0.023406 0.01,0.083196 0.0171,0.1193386 0.0276,0.1381614 0.069,0.2748437 0.0768,0.4158621 0.007,0.1329527 -0.008,0.2657252 -0.0152,0.3983658 -0.003,0.050704 -0.005,0.1014229 -0.008,0.1521536"
       id="path212"
       inkscape:path-effect="#path-effect214"
       inkscape:original-d="m 155.95783,0.00902269 c 2.19165,1.59781291 4.89262,2.68812081 6.60977,4.87628501 0.67455,0.859567 0.83686,2.5493064 1.593,3.22947 0.27277,0.2453653 0.72144,0.3268189 1.04615,0.4919112 1.82378,0.9272643 2.93105,0.4934138 4.32726,-1.0479738 0.23194,-0.2560566 -0.43643,-1.5565191 -0.52308,-1.9462393 -0.96584,-4.3439881 -1.53022,-5.36934539 -4.87411,-8.6404366 -1.22474,-1.1980823 -1.15278,-1.0635489 -2.33005,-2.5878547 -0.12348,-0.1598819 -0.32717,-0.7323148 -0.28532,-0.5346816 0.13076,0.6175579 0.0996,0.4124037 0.0713,1.0479738" />
    <path
       style="fill:none;stroke:#000000;stroke-width:0.264583px;stroke-linecap:butt;stroke-linejoin:miter;stroke-opacity:1"
       d="m 45.517752,41.051108 c -0.0117,-0.485009 -0.125921,-0.973536 -0.374448,-1.394067 -0.246331,-0.416815 -0.616257,-0.745331 -1.016687,-1.01018 -0.670528,-0.443495 -1.424703,-0.741512 -2.099927,-1.176532 -0.139349,-0.08978 -0.284383,-0.17375 -0.408884,-0.283631 -0.243872,-0.215233 -0.465516,-0.454203 -0.684861,-0.693864 -0.731261,-0.79899 -1.435237,-1.622727 -2.121307,-2.46066 -0.52202,-0.63757 -1.049711,-1.272241 -1.525013,-1.94563 -0.137822,-0.195261 -0.283685,-0.387353 -0.390734,-0.601676 -0.04514,-0.09036 -0.06506,-0.190455 -0.08905,-0.287793 -0.150704,-0.611457 -0.237768,-1.236582 -0.389366,-1.847884 -0.130674,-0.526929 -0.303574,-1.052962 -0.604105,-1.509845 -0.227701,-0.346163 -0.542336,-0.639257 -0.918502,-0.816858 -0.304079,-0.143566 -0.644976,-0.237303 -0.983596,-0.19287 -0.279388,0.03666 -0.534319,0.18664 -0.725964,0.390001 -0.266377,0.282661 -0.437666,0.640084 -0.565385,1.00287 -0.243514,0.691701 -0.345041,1.421422 -0.453077,2.143758 -0.106462,0.711815 -0.178714,1.43659 -0.101155,2.155378 0.05722,0.530332 0.215098,1.051633 0.481305,1.515404 0.33363,0.581232 0.821676,1.057173 1.349022,1.463601 0.367808,0.283471 0.784179,0.502006 1.126169,0.8193 0.176941,0.164164 0.326365,0.361812 0.414218,0.588399 0.133447,0.344182 0.141341,0.726048 0.300338,1.061379 0.07147,0.150725 0.164471,0.290284 0.258563,0.427472 0.407795,0.594574 0.891984,1.134342 1.415418,1.628715 0.655579,0.619181 1.372213,1.181823 2.16651,1.611994 0.556781,0.301538 1.15614,0.545366 1.788096,0.625661 0.473178,0.06012 0.972446,0.01696 1.401593,-0.200085 0.223502,-0.113036 0.437947,-0.245102 0.638305,-0.395185 0.236268,-0.176983 0.4647,-0.382492 0.599119,-0.650424 0.0919,-0.183172 0.110821,-0.396046 0.07291,-0.596423 -0.06561,-0.346724 -0.259658,-0.657871 -0.293861,-1.012456 -0.02035,-0.210978 0.0419,-0.423603 0.154963,-0.601631 0.0871,-0.137146 0.198957,-0.257018 0.319267,-0.365488"
       id="path216"
       inkscape:path-effect="#path-effect218"
       inkscape:original-d="m 45.517752,41.051108 c -0.06726,-2.39849 -2.271829,-2.68028 -3.827957,-3.806931 -0.666621,-0.48264 -4.647809,-5.227746 -4.826545,-5.838711 -0.420481,-1.437299 -0.392094,-3.869703 -2.23496,-4.491318 -1.963475,-0.6623 -2.283084,2.249503 -2.472716,3.528893 -0.337378,2.276187 -0.05364,3.700735 1.78321,5.09016 0.468111,0.354092 1.136652,0.674825 1.426567,1.219073 0.224906,0.422212 0.185661,0.910836 0.427969,1.32601 1.090652,1.868726 4.825002,5.221319 7.109063,3.913859 2.644566,-1.513824 -0.155491,-2.191334 1.355238,-3.550285" />
    <path
       style="fill:none;stroke:#000000;stroke-width:0.264583px;stroke-linecap:butt;stroke-linejoin:miter;stroke-opacity:1"
       d="m 220.36105,45.243002 c 0.29833,-0.568874 0.60375,-1.137348 0.827,-1.740868 0.16278,-0.440055 0.28081,-0.907158 0.25637,-1.380096 -0.0196,-0.379042 -0.14881,-0.74827 -0.35467,-1.066151 -0.25175,-0.38875 -0.59025,-0.716929 -0.96564,-0.983747 -0.11142,-0.07919 -0.25479,-0.103836 -0.38833,-0.08008 -0.1995,0.03548 -0.37751,0.139789 -0.54859,0.243231 -0.21858,0.132165 -0.42804,0.284892 -0.66834,0.376263 -0.14001,0.05324 -0.30125,0.07766 -0.4434,0.01831 -0.0918,-0.03831 -0.1699,-0.101613 -0.25011,-0.158993 -0.79939,-0.571846 -1.49021,-1.281915 -2.30141,-1.837858 -0.14888,-0.102033 -0.29564,-0.20948 -0.45703,-0.290553 -0.23291,-0.117003 -0.48617,-0.186381 -0.7386,-0.246328 -0.62413,-0.148215 -1.25923,-0.242809 -1.88755,-0.37068 -0.42291,-0.08607 -0.84873,-0.172593 -1.25319,-0.325824 -0.16288,-0.06171 -0.32011,-0.136934 -0.48057,-0.20458 -0.7375,-0.310903 -1.50058,-0.569166 -2.20356,-0.954735 -0.0689,-0.03779 -0.14897,-0.06123 -0.20583,-0.115341 -0.15327,-0.14584 -0.30311,-0.295378 -0.46104,-0.436277 -0.22464,-0.200417 -0.45243,-0.403071 -0.71615,-0.55017 -0.11118,-0.06201 -0.23015,-0.122055 -0.35974,-0.129484 -0.0723,-0.0041 -0.14704,0.02813 -0.18623,0.09087 -0.21346,0.34169 -0.3618,0.736867 -0.35477,1.144909 0.006,0.363243 0.14842,0.712824 0.35708,1.006276 0.28464,0.400315 0.66835,0.717987 1.06956,0.995506 0.71826,0.496824 1.51321,0.864843 2.27475,1.287862 0.17911,0.09949 0.36214,0.194534 0.5274,0.315933 0.1005,0.07383 0.15988,0.191775 0.18024,0.313054 0.0321,0.19121 0.002,0.385101 -0.0154,0.57619 -0.0162,0.177394 -0.0419,0.363663 0.0176,0.534559 0.0141,0.04047 0.0271,0.08351 0.0635,0.11151 0.11769,0.09071 0.24634,0.165886 0.37229,0.244342 0.15907,0.09909 0.32339,0.190615 0.47474,0.301348 0.0691,0.05056 0.11839,0.122306 0.1753,0.185412 0.34286,0.380194 0.71518,0.744253 1.16061,1.003602 0.39185,0.228151 0.83123,0.35647 1.26991,0.459311 0.73093,0.171356 1.46849,0.312268 2.20567,0.453639 0.91844,0.176131 1.83697,0.369648 2.72245,0.675576 0.43892,0.151644 0.86866,0.329858 1.28574,0.534069 z"
       id="path220"
       inkscape:path-effect="#path-effect222"
       inkscape:original-d="m 220.36105,45.243002 c 1.14438,-2.166927 1.81038,-3.620884 -0.21398,-5.154321 -0.6505,-0.492742 -1.51955,0.926404 -2.16363,0.491905 -0.97042,-0.654656 -1.8112,-1.578046 -2.85313,-2.202886 -0.73008,-0.43782 -3.05593,-0.572413 -4.11327,-1.047975 -0.82754,-0.372205 -1.88816,-0.726977 -2.71048,-1.197682 -0.0549,-0.03145 -1.4381,-1.508363 -1.73566,-1.026583 -1.54941,2.508657 2.43931,3.787495 3.85173,4.726567 0.45798,0.304498 0.024,1.069776 0.23777,1.518497 0.0387,0.08119 0.84343,0.523763 0.92727,0.620231 1.12185,1.290761 1.68456,1.425664 3.20977,1.75375 2.00363,0.431001 3.65587,0.585193 5.56361,1.518497 z" />
    <path
       style="fill:none;stroke:#000000;stroke-width:0.264583px;stroke-linecap:butt;stroke-linejoin:miter;stroke-opacity:1"
       d="m 200.24645,31.084661 c 0.90359,0.117033 1.80914,0.26146 2.72344,0.242915 0.34354,-0.007 0.68526,-0.04713 1.02478,-0.09881 0.50006,-0.07611 1.0044,-0.130249 1.49861,-0.239632 0.31138,-0.06892 0.63024,-0.161178 0.88395,-0.363303 0.24574,-0.195772 0.39661,-0.482678 0.50449,-0.771817 0.19592,-0.525084 0.31097,-1.074725 0.43854,-1.619052 0.0509,-0.217015 0.10475,-0.442748 0.0634,-0.666161 -0.0433,-0.234307 -0.17667,-0.439947 -0.32237,-0.623207 -0.14256,-0.179315 -0.35548,-0.281001 -0.56438,-0.362466 -0.25214,-0.09833 -0.52239,-0.166715 -0.74407,-0.327682 -0.10096,-0.07331 -0.20044,-0.161711 -0.24819,-0.278043 -0.0547,-0.13334 -0.0308,-0.280054 -0.0386,-0.420062 -0.005,-0.08615 -0.0317,-0.17396 -0.0951,-0.237086 -0.42331,-0.421715 -0.89461,-0.791924 -1.3766,-1.143564 -0.84386,-0.61565 -1.72008,-1.186643 -2.61884,-1.718353 -0.49226,-0.291223 -1.06526,-0.416787 -1.54631,-0.728775 -0.35436,-0.229824 -0.64028,-0.549204 -0.89346,-0.883352 -0.55499,-0.732489 -0.96499,-1.558872 -1.43445,-2.345719 -0.13489,-0.226083 -0.2685,-0.45548 -0.44023,-0.656333 -0.0571,-0.06674 -0.12777,-0.119446 -0.20463,-0.162092 -0.3821,-0.212019 -0.80389,-0.335355 -1.21727,-0.469823 -0.39741,-0.129273 -0.7948,-0.272019 -1.15194,-0.493739 -0.51794,-0.321547 -0.95285,-0.760021 -1.4801,-1.067848 -0.13452,-0.07854 -0.27899,-0.15018 -0.43825,-0.157704 -0.19033,-0.009 -0.36989,0.08754 -0.50132,0.219467 -0.20305,0.203824 -0.33429,0.467893 -0.42668,0.73709 -0.10815,0.315106 -0.1762,0.646833 -0.17688,0.980804 -2.5e-4,0.123642 0.0205,0.24605 0.0542,0.36526 0.10918,0.386088 0.22199,0.774708 0.40203,1.134992 0.15774,0.31566 0.39383,0.581142 0.61797,0.850252 0.28071,0.337035 0.55603,0.679765 0.80124,1.043662 0.55193,0.819084 0.96136,1.721485 1.46158,2.571158 0.59172,1.00509 1.27917,1.956199 2.07559,2.810482 0.84296,0.904205 1.63902,1.852887 2.36867,2.851009 0.17728,0.24251 0.36642,0.477584 0.52314,0.733857 0.11392,0.18628 0.14528,0.406608 0.18425,0.617579 0.0355,0.19242 0.0722,0.392813 0.18453,0.557842 0.0747,0.109766 0.18834,0.183843 0.29,0.265544 0.45055,0.362103 0.89361,0.73803 1.38313,1.046347 0.13406,0.08444 0.26889,0.172531 0.41964,0.225263 0.0396,0.01386 0.11582,0.02151 0.11642,-0.03681 7.9e-4,-0.07645 -0.0389,-0.146382 -0.0753,-0.210844 -0.11036,-0.195123 -0.53122,-0.718621 -0.38371,-0.55069 0.0559,0.0636 0.11052,0.128281 0.1661,0.192148"
       id="path224"
       inkscape:path-effect="#path-effect226"
       inkscape:original-d="m 200.24645,31.084661 c 1.23255,0.160534 2.34699,0.353923 3.56643,0.171098 2.64172,-0.396065 2.86208,-0.248248 3.42375,-2.673408 0.17394,-0.750996 0.31299,-1.002503 -0.16643,-1.625425 -0.37547,-0.487863 -1.21322,-0.406255 -1.54545,-0.941036 -0.12297,-0.197948 0.0211,-0.518639 -0.14265,-0.684397 -0.9466,-0.95793 -2.82366,-2.163826 -3.99439,-2.865887 -0.5194,-0.311469 -1.14754,-0.442874 -1.64056,-0.791328 -1.27851,-0.903622 -2.28454,-3.629922 -2.82936,-3.95663 -0.64607,-0.387436 -1.56352,-0.5161 -2.25873,-0.898266 -0.65004,-0.357337 -1.15227,-0.916149 -1.7832,-1.24046 -1.02288,-0.52578 -1.55383,1.495468 -1.37902,2.138726 0.45995,1.692544 0.62697,1.43903 1.68811,2.887267 0.5597,0.763883 1.00344,1.716712 1.47411,2.54508 0.59593,1.048793 1.31664,2.092603 2.13985,2.972824 1.10964,1.186468 2.01455,2.29657 2.94824,3.635833 0.27011,0.387437 0.13387,1.026797 0.4993,1.326009 3.96415,3.245829 0.93258,-0.198601 1.80699,0.812708" />
    <path
       style="fill:none;stroke:#000000;stroke-width:0.264583px;stroke-linecap:butt;stroke-linejoin:miter;stroke-opacity:1"
       d="m 288.71264,11.066221 c 0.5446,0.199565 1.04301,0.520295 1.45482,0.928687 0.49257,0.488485 0.86105,1.089892 1.13397,1.724309 0.10712,0.249005 0.20981,0.500909 0.28583,0.761206 0.16834,0.576427 0.16506,1.189306 0.0775,1.779258 -0.10662,0.718685 -0.34629,1.407795 -0.58803,2.090443 -0.0756,0.213628 -0.1703,0.422797 -0.2143,0.6455 -0.0127,0.06428 -0.0355,0.134879 -0.01,0.197741 0.10404,0.256188 0.31336,0.455572 0.54769,0.594684 0.3277,0.194544 0.70169,0.29966 1.07716,0.3498 0.40427,0.05399 0.8187,0.05405 1.21925,-0.02681 0.21638,-0.04368 0.42993,-0.115416 0.6158,-0.237127 0.25923,-0.169744 0.4791,-0.391806 0.68404,-0.622285 0.26509,-0.298131 0.50875,-0.614216 0.75521,-0.927616 0.44086,-0.560603 0.84682,-1.158118 1.11904,-1.820649 0.20079,-0.488675 0.31197,-1.013368 0.32815,-1.541541 0.0217,-0.709924 -0.10955,-1.414613 -0.28636,-2.09911 -0.0652,-0.252568 -0.1379,-0.503156 -0.19898,-0.75685 -0.13348,-0.554422 -0.24664,-1.118198 -0.47068,-1.645503 -0.0955,-0.224701 -0.21786,-0.436986 -0.35632,-0.6379471 -0.38054,-0.5523247 -0.8628,-1.0299057 -1.21136,-1.6045302 -0.20259,-0.3339842 -0.34373,-0.7039068 -0.5787,-1.0185791 -0.14692,-0.1967523 -0.34246,-0.3550735 -0.56235,-0.4640897 -0.39178,-0.1942374 -0.83484,-0.25912 -1.26801,-0.2615427 -0.6685,-0.00374 -1.33322,0.1218058 -1.96859,0.3233753 -0.64474,0.2045423 -1.27279,0.47835 -1.83311,0.8594 -0.32801,0.2230675 -0.64248,0.4796823 -0.87206,0.8064212 -0.15146,0.2155577 -0.26042,0.4741202 -0.24658,0.7426953 0.008,0.1561823 0.0696,0.3029834 0.14795,0.4367051 0.21238,0.3624679 0.50822,0.6648789 0.7977,0.9656019 0.14391,0.149501 0.28754,0.29954 0.42124,0.458355 z"
       id="path264"
       inkscape:path-effect="#path-effect266"
       inkscape:original-d="m 288.71264,11.066221 c 1.49373,0.552385 2.32378,1.811386 2.82937,3.27224 0.69496,2.008043 -0.83283,4.504988 -0.6895,4.854904 0.41151,1.00473 2.38342,1.177482 3.25731,0.791328 0.57677,-0.254847 1.15676,-1.057942 1.54546,-1.539885 1.67378,-2.075291 1.86245,-3.43998 1.16504,-5.924259 -0.23966,-0.853698 -0.34306,-1.778268 -0.83217,-2.5450805 -0.38346,-0.6011572 -0.90001,-1.1101007 -1.28392,-1.7109745 -0.25143,-0.3935198 -0.41558,-0.8998341 -0.76083,-1.2404603 -1.66846,-1.6460403 -7.45969,0.7537384 -6.49089,2.5450805 0.3103,0.5737488 0.8401,0.9980708 1.26013,1.4971068 z" />
    <path
       style="fill:none;stroke:#000000;stroke-width:0.264583px;stroke-linecap:butt;stroke-linejoin:miter;stroke-opacity:1"
       d="m 285.26512,19.621109 c -0.8757,1.113267 -1.5492,2.364635 -2.23159,3.600678 -0.63124,1.143393 -1.2813,2.28779 -2.12233,3.293155 -0.50094,0.598823 -1.07707,1.133702 -1.70923,1.59295 -0.32419,0.235516 -0.55082,0.58852 -0.66313,0.970805 -0.15386,0.523714 -0.13372,1.082756 -0.0385,1.614784 0.14274,0.797685 0.43473,1.563924 0.81378,2.27772 0.32564,0.613214 0.7079,1.202651 1.18658,1.70777 0.23359,0.246491 0.49785,0.465687 0.79642,0.631237 0.51501,0.285558 1.04322,0.559027 1.61061,0.725455 0.40477,0.118728 0.83092,0.1596 1.25128,0.126173 0.55504,-0.04414 1.09514,-0.188845 1.63497,-0.317989 0.1433,-0.03428 0.28286,-0.08729 0.42872,-0.107957 0.22591,-0.032 0.44757,0.04056 0.67092,0.06188 0.13781,0.01316 0.29475,0.0034 0.39889,-0.09615 0.10364,-0.09906 0.1914,-0.21399 0.27638,-0.329002 0.39467,-0.534163 0.71346,-1.119991 1.00487,-1.715246 0.56212,-1.14824 1.03663,-2.338153 1.44968,-3.547386 0.34477,-1.009328 0.66253,-2.03049 0.88454,-3.074337 0.10669,-0.501637 0.19459,-1.010439 0.20027,-1.524872 0.008,-0.751569 -0.0409,-1.502737 -0.11233,-2.250455 -0.10967,-1.147453 -0.25901,-2.293629 -0.51118,-3.418925 -0.13154,-0.586992 -0.27434,-1.176495 -0.51459,-1.729446 -0.11785,-0.271235 -0.26235,-0.537062 -0.47575,-0.747527 -0.39914,-0.393655 -0.91555,-0.658583 -1.4609,-0.781441 -0.70118,-0.157962 -1.43832,-0.104112 -2.12707,0.08741 -0.35367,0.09834 -0.69739,0.233482 -1.02171,0.405627"
       id="path268"
       inkscape:path-effect="#path-effect270"
       inkscape:original-d="m 285.26512,19.621109 c -2.20073,2.800968 -3.06438,6.344391 -6.03914,8.469339 -2.06598,1.475775 0.34377,6.240561 1.97342,7.164719 2.10682,1.194763 2.74897,1.07002 4.96919,0.491902 0.37904,-0.0987 0.88262,0.228995 1.16504,-0.08555 1.51916,-1.691844 3.57119,-7.542364 3.75663,-9.752571 0.13531,-1.612491 -0.44722,-7.341776 -1.52167,-8.469339 -1.25095,-1.312813 -3.3106,-1.09355 -4.68389,-0.363584" />
    <path
       style="fill:none;stroke:#000000;stroke-width:0.264583px;stroke-linecap:butt;stroke-linejoin:miter;stroke-opacity:1"
       d="m 285.384,-0.91062803 c -0.0602,0.35740899 -0.0384,0.72428477 0.0253,1.07946022 0.0959,0.53453343 0.28021,1.05137291 0.52516,1.53513591 0.26184,0.5171105 0.59108,1.0036964 0.99934,1.4165138 0.31361,0.3171146 0.67682,0.592847 1.09001,0.7664752 0.32614,0.1370489 0.6859,0.2012386 1.03885,0.1624189 0.18191,-0.020007 0.36253,-0.061811 0.53107,-0.1333954 0.26962,-0.1145158 0.49157,-0.3189269 0.66689,-0.550042 0.23906,-0.3151434 0.40847,-0.6775613 0.5392,-1.0491513 0.18472,-0.5250326 0.30163,-1.0725893 0.3673,-1.62465598 0.05,-0.41996922 0.0787,-0.84434739 0.0522,-1.26684999 -0.0118,-0.18730722 -0.0253,-0.3773137 -0.0816,-0.55700973 -0.0231,-0.073807 -0.0518,-0.1490673 -0.10527,-0.2073022 -0.0358,-0.03894 -0.0965,-0.043793 -0.14102,-0.015751 -0.0784,0.04937 -0.12909,0.131139 -0.17346,0.2099994 -0.0387,0.068746 -0.0721,0.1403036 -0.1032,0.21276921"
       id="path272"
       inkscape:path-effect="#path-effect274"
       inkscape:original-d="m 285.384,-0.91062803 c -0.33724,1.96259853 1.82229,5.67412023 4.13705,4.85489993 2.0924,-0.7405365 2.00742,-7.0133336 1.09368,-4.87628509" />
    <path
       style="fill:none;stroke:#000000;stroke-width:0.264583px;stroke-linecap:butt;stroke-linejoin:miter;stroke-opacity:1"
       d="m 291.70844,68.170097 c -0.10954,-0.422552 -0.34103,-0.805222 -0.63424,-1.126046 -0.4308,-0.471371 -0.95638,-0.847387 -1.36177,-1.344054 -0.22499,-0.275649 -0.40045,-0.590317 -0.51845,-0.926255 -0.20267,-0.577006 -0.28136,-1.189652 -0.50765,-1.760143 -0.56508,-1.424626 -1.06265,-2.87597 -1.65453,-4.289635 -0.32632,-0.779398 -0.80898,-1.477956 -1.26568,-2.184435 -0.19288,-0.298373 -0.39724,-0.590865 -0.56228,-0.905709 -0.26642,-0.508253 -0.34801,-1.09761 -0.65737,-1.584437 -0.29076,-0.457555 -0.8137,-0.705685 -1.10325,-1.162478 -0.28375,-0.447649 -0.33055,-1.000471 -0.61362,-1.448908 -0.16898,-0.267698 -0.43151,-0.45747 -0.694,-0.62482 -0.26685,-0.170127 -0.53825,-0.345765 -0.73722,-0.597661 -0.25463,-0.322355 -0.37625,-0.720904 -0.52618,-1.097066 -0.10303,-0.258489 -0.25503,-0.494462 -0.43769,-0.705303 -0.55723,-0.643212 -1.08605,-1.324177 -1.76207,-1.849542 -0.40347,-0.313556 -0.87706,-0.565167 -1.39429,-0.611202 -0.39198,-0.03489 -0.77294,0.09496 -1.13187,0.248767 -0.28848,0.123621 -0.61735,0.108788 -0.902,0.242819 -0.11563,0.05445 -0.25121,0.161898 -0.23073,0.294028 0.0209,0.135035 0.13184,0.2328 0.16612,0.364188 0.0252,0.09657 -0.0123,0.193681 -0.034,0.287047 -0.17836,0.769665 -0.47372,1.506563 -0.61725,2.286954 -0.0379,0.205904 0.0119,0.4147 0.0624,0.613344 0.16188,0.635605 0.38835,1.252423 0.61535,1.866991 0.40281,1.090561 0.84301,2.166823 1.24859,3.256333 0.11687,0.313947 0.21566,0.635394 0.27211,0.966369 0.16446,0.964274 0.0646,1.956117 0.27488,2.914452 0.14765,0.673035 0.45663,1.293328 0.73702,1.917831 0.20823,0.46378 0.38165,0.944079 0.49062,1.441823 0.25104,1.146732 0.20835,2.327771 0.19911,3.493785 -0.008,1.00936 0.009,2.035418 0.28892,3.01356 0.23908,0.835848 0.69525,1.614226 1.3326,2.206502 0.54193,0.503604 1.21398,0.829123 1.86233,1.1707 0.57507,0.302971 1.16058,0.626742 1.59459,1.119984 0.33071,0.375843 0.60235,0.798941 0.86637,1.222812 0.68045,1.092449 1.29388,2.237654 2.1331,3.220383 0.47354,0.554517 1.02819,1.067874 1.70807,1.35398 0.53634,0.225701 1.14831,0.291882 1.71404,0.14341 0.40734,-0.106903 0.76703,-0.369414 1.00243,-0.718129 0.31937,-0.473097 0.44484,-1.049683 0.47375,-1.611824 0.0388,-0.75493 -0.08,-1.512016 -0.2937,-2.236097 -0.0561,-0.190191 -0.14095,-0.370023 -0.20524,-0.55719 -0.0977,-0.284412 -0.13422,-0.592868 -0.27785,-0.85848 -0.0347,-0.06411 -0.0766,-0.160663 -0.15858,-0.1545 -0.0777,0.0058 -0.12492,0.08181 -0.16379,0.140217"
       id="path280"
       inkscape:path-effect="#path-effect282"
       inkscape:original-d="m 291.70844,68.170097 c -0.36029,-1.341932 -1.56517,-1.694219 -2.25872,-2.844495 -0.4244,-0.703834 -0.44162,-1.501503 -0.73708,-2.245664 -0.56182,-1.415077 -1.08619,-2.840535 -1.64055,-4.256053 -0.41791,-1.067174 -1.22243,-2.091209 -1.80697,-3.079764 -0.30488,-0.515575 -0.39547,-1.140827 -0.68951,-1.646814 -0.30152,-0.518858 -0.90733,-0.787202 -1.18882,-1.304621 -0.28178,-0.517969 -0.31658,-1.180195 -0.76081,-1.604036 -0.51583,-0.492112 -1.02907,-0.555636 -1.4028,-1.240459 -0.2922,-0.535411 -0.32469,-1.003618 -0.73707,-1.475719 -1.0962,-1.254988 -2.48288,-3.207118 -4.30348,-2.288434 -0.37885,0.191177 -1.05137,0.104431 -1.16504,0.513291 -0.0393,0.141605 0.20511,0.316214 0.16645,0.513295 -0.16608,0.846553 -0.56652,1.697185 -0.66574,2.54508 -0.0905,0.773014 1.7725,5.037997 2.0923,6.116746 0.30834,1.040108 0.16116,2.181071 0.35666,3.250858 0.20693,1.132404 0.82187,1.981076 1.14125,3.058372 0.91414,3.083599 -0.64373,6.430587 1.75943,9.004022 1.07751,1.153858 2.78153,1.403228 3.75663,2.609239 1.43812,1.778714 2.88615,5.817002 5.61115,5.881489 2.63589,0.06238 2.42229,-3.412755 1.71188,-5.09016 -0.181,-0.427406 -0.31866,-1.507271 -0.64196,-0.983808" />
    <path
       style="fill:none;stroke:#000000;stroke-width:0.264583px;stroke-linecap:butt;stroke-linejoin:miter;stroke-opacity:1"
       d="m 224.01782,-1.1672742 c 0.17619,1.28373478 0.55584,2.5462505 1.1774,3.6864312 0.52126,0.9561977 1.22097,1.8166538 2.06353,2.5083431 0.50329,0.4131708 1.06461,0.7485402 1.64134,1.0503514 0.25271,0.1322461 0.46901,0.3276423 0.73461,0.4365127 0.12195,0.049988 0.25538,0.070559 0.38682,0.058999 0.21064,-0.018526 0.41376,-0.083455 0.61181,-0.1543807 0.25789,-0.092357 0.50494,-0.2131174 0.7643,-0.3011161 0.44598,-0.1513193 0.88219,-0.3410512 1.27498,-0.6035645 0.37185,-0.2485194 0.69607,-0.5660251 0.95892,-0.9274051 0.16004,-0.2200312 0.30338,-0.4517551 0.44073,-0.6864104 0.36217,-0.6187597 0.68097,-1.2637743 0.94048,-1.9322272 0.13913,-0.3583778 0.27193,-0.7213249 0.3548,-1.0969601 0.0616,-0.27899394 0.0213,-0.56840601 -0.0456,-0.84251722 -0.0986,-0.40367644 -0.2627,-0.78978527 -0.33593,-1.19982868 -0.0423,-0.237036 -0.0465,-0.4884084 0.0403,-0.7166322 0.0393,-0.1032416 0.0964,-0.1993339 0.16627,-0.2847945"
       id="path284"
       inkscape:path-effect="#path-effect286"
       inkscape:original-d="m 224.01782,-1.1672742 c 0.42785,3.1123491 1.99426,5.8200235 4.85033,7.2288829 0.34199,0.1686965 0.64189,0.4879374 1.02238,0.5132922 0.44304,0.029523 1.14564,-0.3335187 1.54545,-0.470522 1.00179,-0.3432911 1.73674,-0.8103463 2.33005,-1.7109744 0.63533,-0.9644026 1.30555,-2.3484065 1.593,-3.48611614 0.25816,-1.02174705 -0.87399,-2.21182866 -0.16643,-3.07976196" />
    <path
       style="fill:none;stroke:#000000;stroke-width:0.264583px;stroke-linecap:butt;stroke-linejoin:miter;stroke-opacity:1"
       d="m 342.25647,120.49043 c -0.0864,-0.42688 -0.11035,-0.86684 -0.24158,-1.28408 -0.0325,-0.10349 -0.0698,-0.20722 -0.13495,-0.29558 -0.12431,-0.16867 -0.31186,-0.27828 -0.50476,-0.35117 -0.28725,-0.10854 -0.59407,-0.15446 -0.89912,-0.17472 -0.26909,-0.0179 -0.53903,-0.0159 -0.8085,-0.0132 -0.45194,0.005 -0.90663,0.015 -1.35263,0.0951 -0.31772,0.057 -0.62709,0.16402 -0.90766,0.32463 -0.36775,0.21052 -0.69144,0.4879 -1.00328,0.7722 -0.32144,0.29305 -0.64343,0.58599 -0.94901,0.89566 -0.35673,0.3615 -0.69712,0.74867 -0.93698,1.19976 -0.1847,0.34736 -0.29396,0.73174 -0.33828,1.12193 -0.0605,0.53287 -0.022,1.07124 0.0404,1.60201 0.11575,0.98383 0.43875,1.94613 0.96614,2.78685 0.50905,0.81148 1.21271,1.49728 2.03053,1.99561 0.73998,0.4509 1.57745,0.7094 2.42383,0.88954 0.1901,0.0405 0.38192,0.0923 0.57787,0.0808 0.0809,-0.005 0.16157,-0.0288 0.22747,-0.0793 0.49796,-0.38159 0.93533,-0.83319 1.39043,-1.26303 0.3739,-0.35315 0.75025,-0.71084 1.04541,-1.13485 0.16559,-0.23788 0.29683,-0.49945 0.38645,-0.7756 0.187,-0.5762 0.21948,-1.1957 0.13149,-1.79325 -0.10964,-0.7446 -0.38883,-1.45505 -0.7474,-2.11319 -0.44784,-0.822 -1.00941,-1.57897 -1.63772,-2.27087 -0.0858,-0.0944 -0.1702,-0.18998 -0.25452,-0.28573 -0.16408,-0.18632 -0.33539,-0.37107 -0.54283,-0.50947 -0.11237,-0.075 -0.23837,-0.14638 -0.37634,-0.14708 -0.47792,-0.002 -0.94815,0.12292 -1.38584,0.30826 -0.44376,0.18791 -0.85915,0.43544 -1.26296,0.69681"
       id="path288"
       inkscape:path-effect="#path-effect290"
       inkscape:original-d="m 342.25647,120.49043 c -0.0951,-0.47052 -0.11673,-0.96209 -0.2853,-1.41155 -0.23481,-0.62616 -1.2991,-0.70059 -1.807,-0.70578 -2.37942,-0.0243 -2.66763,0.165 -4.23214,1.62542 -1.52368,1.42232 -1.97498,2.17534 -1.71188,4.38439 0.35629,2.9914 2.45719,5.16202 5.39718,5.66761 0.15166,0.0261 0.61524,0.168 0.80839,0.0214 0.43307,-0.32868 0.81954,-0.71513 1.21258,-1.09076 0.59317,-0.56691 1.30305,-1.17528 1.593,-1.98901 0.82868,-2.32565 -0.8981,-4.85526 -2.35383,-6.43755 -0.1188,-0.12911 -0.63466,-0.79132 -1.04617,-0.79132 -0.96017,0 -1.85756,0.499 -2.63914,1.00519" />
    <path
       style="fill:none;stroke:#000000;stroke-width:0.264583px;stroke-linecap:butt;stroke-linejoin:miter;stroke-opacity:1"
       d="m 351.07742,126.32915 c -0.0896,0.10159 -0.1806,0.21001 -0.22093,0.34208 -0.0212,0.0693 -0.005,0.15064 0.0506,0.19962 0.0858,0.075 0.20224,0.10066 0.31173,0.1164 0.31004,0.0446 0.62442,0.024 0.93634,0.0389 0.13866,0.007 0.28134,0.007 0.41379,0.0532 0.0506,0.0175 0.1128,0.0547 0.10652,0.11508 -0.006,0.0553 -0.0277,0.11207 -0.0683,0.151 -0.0514,0.0494 -0.12986,0.0367 -0.18903,0.01 -0.13021,-0.0587 -0.23943,-0.15391 -0.34582,-0.24719 -0.2493,-0.21859 -0.47877,-0.46184 -0.75218,-0.65141 -0.0941,-0.0653 -0.198,-0.11573 -0.30833,-0.14828 -0.37902,-0.11181 -0.77756,-0.11825 -1.16946,-0.12694 -0.26285,-0.006 -0.52558,-0.0207 -0.78669,-0.0545 -1.02383,-0.13232 -2.08211,-0.0396 -3.05478,0.31598 -0.99135,0.36237 -1.87163,1.00426 -2.5474,1.81282 -0.91835,1.09881 -1.46245,2.48722 -1.61103,3.90703 -0.14998,1.43315 0.11323,2.9092 0.76596,4.19509 0.16777,0.33051 0.34216,0.66216 0.57394,0.95151 0.13164,0.16434 0.31549,0.27708 0.5025,0.36771 0.35731,0.17316 0.74022,0.28584 1.12429,0.38173 0.22405,0.0559 0.44796,0.11324 0.67424,0.1593 0.30446,0.062 0.62903,0.042 0.91602,-0.0831 0.33107,-0.14422 0.5934,-0.4059 0.81516,-0.68458 0.3939,-0.49501 0.68266,-1.06752 1.10555,-1.54002 0.18589,-0.2077 0.39623,-0.41068 0.65927,-0.51029 0.17441,-0.0661 0.35969,-0.0977 0.54372,-0.12236 0.39423,-0.0529 0.79301,-0.0809 1.19045,-0.0646 0.17814,0.007 0.36096,0.007 0.53165,0.0616 0.14001,0.0446 0.27303,0.11467 0.38377,0.21171 0.065,0.0569 0.13951,0.10446 0.22412,0.12618 0.14057,0.0361 0.28716,0.0492 0.43126,0.0408 0.23095,-0.0134 0.46046,-0.0451 0.68946,-0.0768 0.8124,-0.11259 1.62372,-0.24026 2.42398,-0.42052 0.37345,-0.0841 0.75268,-0.1592 1.10743,-0.30487 0.11127,-0.0457 0.22632,-0.0925 0.31757,-0.17387 0.0344,-0.0307 0.0543,-0.0867 0.0215,-0.12599 -0.0571,-0.0685 -0.14685,-0.0978 -0.22908,-0.12249 -0.20839,-0.0626 -0.42482,-0.0937 -0.63996,-0.12261"
       id="path292"
       inkscape:path-effect="#path-effect294"
       inkscape:original-d="m 351.07742,126.32915 c -1.02762,1.12798 1.73103,0.40149 1.593,0.89825 -0.16319,0.58735 -1.01436,-0.70649 -1.593,-0.89825 -0.6199,-0.20544 -1.3026,-0.10415 -1.94964,-0.19249 -6.16614,-0.8419 -9.31037,6.36754 -5.96781,11.14274 0.36428,0.52039 1.64598,0.77837 2.23496,0.91965 1.91172,0.45858 2.2206,-2.14 3.54264,-2.78034 0.4113,-0.19921 1.95498,-0.28209 2.35384,-0.12832 0.4917,0.18956 0.26578,0.35608 0.97483,0.36358 0.44527,0.005 6.90954,-0.93612 3.70906,-1.3474" />
    <path
       style="fill:none;stroke:#000000;stroke-width:0.264583px;stroke-linecap:butt;stroke-linejoin:miter;stroke-opacity:1"
       d="m 353.50259,173.44519 c -0.27737,0.0127 -0.55026,-0.0745 -0.79143,-0.20656 -0.34065,-0.18656 -0.63316,-0.44567 -0.92588,-0.69781 -0.28255,-0.24338 -0.5643,-0.49378 -0.89139,-0.67672 -0.15954,-0.0892 -0.33272,-0.15291 -0.51213,-0.18965 -0.54144,-0.11087 -1.1026,-0.1199 -1.64854,-0.0386 -0.53234,0.0793 -1.05886,0.24391 -1.51588,0.53311 -0.35456,0.22436 -0.66015,0.53536 -0.84671,0.914 -0.19034,0.38631 -0.25219,0.83004 -0.19999,1.25589 0.0439,0.35804 0.18549,0.69756 0.37401,1.00295 0.3585,0.58075 0.86318,1.05625 1.20648,1.64756 0.14807,0.25504 0.25638,0.53354 0.31183,0.82376 0.093,0.48693 0.0709,0.98564 0.0466,1.47791 -0.0236,0.47877 -0.0582,0.96136 0.006,1.43856 0.046,0.3416 0.15622,0.6789 0.35351,0.96428 0.16211,0.2345 0.38003,0.43152 0.63558,0.56007 0.28492,0.14332 0.60223,0.19922 0.91381,0.2518 0.31725,0.0535 0.63963,0.11078 0.93134,0.25275 0.075,0.0365 0.15074,0.0757 0.20871,0.13745 0.10872,0.1158 0.17615,0.26208 0.24373,0.40387 0.0896,0.18792 0.17373,0.38313 0.31207,0.54165 0.0915,0.10489 0.21642,0.18336 0.35519,0.2055 0.12981,0.0207 0.26391,0.004 0.38847,-0.0362 0.12946,-0.0413 0.24078,-0.12255 0.34288,-0.21026 0.0895,-0.0769 0.18205,-0.16402 0.30303,-0.18412 0.12438,-0.0207 0.24837,0.0239 0.35862,0.0774 0.0629,0.0305 0.12351,0.0656 0.18267,0.10282"
       id="path296"
       inkscape:path-effect="#path-effect298"
       inkscape:original-d="m 353.50259,173.44519 c -1.15917,0.0472 -1.98377,-1.50993 -3.04335,-1.75376 -1.63882,-0.3771 -4.20227,0.19752 -4.30347,2.24567 -0.0808,1.6358 1.5348,2.32141 1.8783,3.74276 0.34145,1.41272 -0.41208,3.11391 0.59442,4.21328 0.69318,0.75716 1.62557,0.46758 2.42514,0.91966 0.424,0.23973 0.42656,1.30279 1.18883,1.24046 0.72419,-0.0592 0.58626,-0.77081 1.40276,-0.25665" />
    <path
       style="fill:none;stroke:#000000;stroke-width:0.264583px;stroke-linecap:butt;stroke-linejoin:miter;stroke-opacity:1"
       d="m 293.01611,214.44141 c 0.0403,-0.38057 0.15916,-0.75869 0.11632,-1.1431 -0.029,-0.26057 -0.18528,-0.48628 -0.36013,-0.67239 -0.32347,-0.3443 -0.71935,-0.60773 -1.10334,-0.87862 -0.24626,-0.17373 -0.51322,-0.32721 -0.71973,-0.54816 -0.22887,-0.24487 -0.44588,-0.50072 -0.66233,-0.75656 -0.91967,-1.08703 -1.78178,-2.2328 -2.8332,-3.19836 -0.24001,-0.22041 -0.48011,-0.44325 -0.74663,-0.63158 -0.55715,-0.3937 -1.20968,-0.64293 -1.72783,-1.0922 -0.54685,-0.47416 -0.99006,-1.05138 -1.42644,-1.62494 -0.38423,-0.50501 -0.75475,-1.0249 -1.20192,-1.47676 -0.46647,-0.47136 -1.05069,-0.81908 -1.46767,-1.33945 -0.29439,-0.36738 -0.53628,-0.77382 -0.75818,-1.18804 -0.48157,-0.89896 -0.85231,-1.86077 -1.43395,-2.70328 -0.18135,-0.26269 -0.37031,-0.52527 -0.60699,-0.74021 -0.25238,-0.2292 -0.54209,-0.41412 -0.84322,-0.57191 -0.26681,-0.13981 -0.54761,-0.26046 -0.84817,-0.30513 -0.53138,-0.079 -1.07245,-0.0633 -1.60559,-0.0144 -0.93023,0.0852 -1.85683,0.25879 -2.73905,0.56812 -0.55139,0.19333 -1.10005,0.42796 -1.56056,0.79348 -0.28479,0.22605 -0.53934,0.51913 -0.63002,0.88002 -0.0459,0.18251 -0.0412,0.38698 0.0587,0.55206 0.11933,0.19713 0.31592,0.33406 0.43039,0.53488 0.0763,0.13389 0.12741,0.28025 0.18077,0.42429 0.21537,0.58137 0.37932,1.18684 0.68609,1.72978 0.22423,0.39686 0.51263,0.75373 0.81755,1.09082 0.73927,0.81727 1.61335,1.51282 2.26897,2.40377 1.03237,1.40294 1.99543,2.85554 2.92878,4.32586 0.1539,0.24244 0.18144,0.53418 0.23824,0.80884 0.0389,0.18804 0.11162,0.37169 0.23621,0.52062 0.25243,0.30174 0.61137,0.48812 0.86629,0.78864 0.45612,0.53772 0.75503,1.18747 1.2097,1.72665 0.20169,0.23918 0.45563,0.42728 0.7109,0.60464 0.64772,0.45002 1.33237,0.845 2.03146,1.20884 0.55855,0.2907 1.12403,0.57118 1.71131,0.79977 0.19672,0.0766 0.4006,0.13833 0.61171,0.15901 0.61944,0.0607 1.23338,-0.11705 1.85317,-0.0672 0.11432,0.009 0.2293,0.0293 0.33109,0.0882 0.14798,0.0855 0.25166,0.25872 0.42635,0.28381 0.14455,0.0208 0.2899,0.0377 0.43485,0.0565 0.61339,0.0796 1.22856,0.17279 1.84793,0.17017 0.21945,-9.3e-4 0.44534,0.003 0.65587,-0.0656 0.12486,-0.0406 0.22412,-0.13232 0.3166,-0.22158 0.17867,-0.17246 0.33045,-0.3721 0.52248,-0.53074"
       id="path308"
       inkscape:path-effect="#path-effect310"
       inkscape:original-d="m 293.01611,214.44141 c 0.0396,-0.37071 0.14187,-0.74002 0.11891,-1.11214 -0.0545,-0.88207 -1.74718,-1.64035 -2.23496,-2.1815 -1.28416,-1.42467 -2.49995,-3.16231 -3.99439,-4.38438 -0.61,-0.49882 -1.40081,-0.76817 -1.99718,-1.30462 -0.93419,-0.84032 -1.61105,-2.02129 -2.47275,-2.95143 -0.50845,-0.54886 -1.18435,-0.92961 -1.64055,-1.53988 -1.04896,-1.40329 -1.46229,-3.20582 -2.63913,-4.44854 -0.31518,-0.3328 -1.01545,-0.73807 -1.45034,-0.87688 -1.44532,-0.46133 -6.65885,0.37757 -6.87131,2.28844 -0.0593,0.53354 0.38489,0.63074 0.57062,1.06935 0.32761,0.77354 0.47726,1.5713 0.97483,2.30982 0.81791,1.21397 2.09416,2.09641 2.97202,3.29363 0.99523,1.3573 1.97821,2.83175 2.87689,4.25607 0.23537,0.37301 0.16632,0.84211 0.38044,1.19768 0.20961,0.34808 0.63392,0.55528 0.90348,0.85549 0.49183,0.54775 0.80034,1.26123 1.3077,1.8393 0.66569,0.75849 3.61291,2.32594 4.66011,2.65201 0.74445,0.23181 1.5803,-0.0946 2.35384,0.0214 0.29675,0.0445 0.41896,0.33892 0.66574,0.36359 0.46863,0.0468 2.54976,0.3935 2.99577,0.10693 0.26585,-0.1708 0.48263,-0.4977 0.73708,-0.70578" />
  </g>
</svg>
