<?xml version="1.0" encoding="UTF-8" standalone="no"?>
<!-- Created with Inkscape (http://www.inkscape.org/) -->

<svg
   width="169.33333mm"
   height="127mm"
   viewBox="0 0 169.33333 127"
   version="1.1"
   id="svg5"
   inkscape:version="1.1.2 (08b2f3d93c, 2022-04-05)"
   sodipodi:docname="NucleoCelularBasal.svg"
   xmlns:inkscape="http://www.inkscape.org/namespaces/inkscape"
   xmlns:sodipodi="http://sodipodi.sourceforge.net/DTD/sodipodi-0.dtd"
   xmlns="http://www.w3.org/2000/svg"
   xmlns:svg="http://www.w3.org/2000/svg">
  <sodipodi:namedview
     id="namedview7"
     pagecolor="#ffffff"
     bordercolor="#666666"
     borderopacity="1.0"
     inkscape:pageshadow="2"
     inkscape:pageopacity="0.0"
     inkscape:pagecheckerboard="0"
     inkscape:document-units="mm"
     showgrid="false"
     inkscape:zoom="0.76095916"
     inkscape:cx="224.7164"
     inkscape:cy="250.34195"
     inkscape:window-width="1366"
     inkscape:window-height="704"
     inkscape:window-x="0"
     inkscape:window-y="27"
     inkscape:window-maximized="1"
     inkscape:current-layer="layer2" />
  <defs
     id="defs2">
    <inkscape:path-effect
       effect="simplify"
       id="path-effect125"
       is_visible="true"
       lpeversion="1"
       steps="1"
       threshold="0.000408163"
       smooth_angles="360"
       helper_size="0"
       simplify_individual_paths="false"
       simplify_just_coalesce="false" />
    <inkscape:path-effect
       effect="simplify"
       id="path-effect121"
       is_visible="true"
       lpeversion="1"
       steps="1"
       threshold="0.000408163"
       smooth_angles="360"
       helper_size="0"
       simplify_individual_paths="false"
       simplify_just_coalesce="false" />
    <inkscape:path-effect
       effect="simplify"
       id="path-effect117"
       is_visible="true"
       lpeversion="1"
       steps="1"
       threshold="0.000408163"
       smooth_angles="360"
       helper_size="0"
       simplify_individual_paths="false"
       simplify_just_coalesce="false" />
    <inkscape:path-effect
       effect="simplify"
       id="path-effect113"
       is_visible="true"
       lpeversion="1"
       steps="1"
       threshold="0.000408163"
       smooth_angles="360"
       helper_size="0"
       simplify_individual_paths="false"
       simplify_just_coalesce="false" />
    <inkscape:path-effect
       effect="simplify"
       id="path-effect109"
       is_visible="true"
       lpeversion="1"
       steps="1"
       threshold="0.000408163"
       smooth_angles="360"
       helper_size="0"
       simplify_individual_paths="false"
       simplify_just_coalesce="false" />
    <inkscape:path-effect
       effect="simplify"
       id="path-effect105"
       is_visible="true"
       lpeversion="1"
       steps="1"
       threshold="0.000408163"
       smooth_angles="360"
       helper_size="0"
       simplify_individual_paths="false"
       simplify_just_coalesce="false" />
    <inkscape:path-effect
       effect="simplify"
       id="path-effect101"
       is_visible="true"
       lpeversion="1"
       steps="1"
       threshold="0.000408163"
       smooth_angles="360"
       helper_size="0"
       simplify_individual_paths="false"
       simplify_just_coalesce="false" />
    <inkscape:path-effect
       effect="simplify"
       id="path-effect97"
       is_visible="true"
       lpeversion="1"
       steps="1"
       threshold="0.000408163"
       smooth_angles="360"
       helper_size="0"
       simplify_individual_paths="false"
       simplify_just_coalesce="false" />
    <inkscape:path-effect
       effect="simplify"
       id="path-effect93"
       is_visible="true"
       lpeversion="1"
       steps="1"
       threshold="0.000408163"
       smooth_angles="360"
       helper_size="0"
       simplify_individual_paths="false"
       simplify_just_coalesce="false" />
    <inkscape:path-effect
       effect="simplify"
       id="path-effect89"
       is_visible="true"
       lpeversion="1"
       steps="1"
       threshold="0.000408163"
       smooth_angles="360"
       helper_size="0"
       simplify_individual_paths="false"
       simplify_just_coalesce="false" />
    <inkscape:path-effect
       effect="simplify"
       id="path-effect85"
       is_visible="true"
       lpeversion="1"
       steps="1"
       threshold="0.000408163"
       smooth_angles="360"
       helper_size="0"
       simplify_individual_paths="false"
       simplify_just_coalesce="false" />
    <inkscape:path-effect
       effect="simplify"
       id="path-effect81"
       is_visible="true"
       lpeversion="1"
       steps="1"
       threshold="0.000408163"
       smooth_angles="360"
       helper_size="0"
       simplify_individual_paths="false"
       simplify_just_coalesce="false" />
    <inkscape:path-effect
       effect="simplify"
       id="path-effect77"
       is_visible="true"
       lpeversion="1"
       steps="1"
       threshold="0.000408163"
       smooth_angles="360"
       helper_size="0"
       simplify_individual_paths="false"
       simplify_just_coalesce="false" />
    <inkscape:path-effect
       effect="simplify"
       id="path-effect73"
       is_visible="true"
       lpeversion="1"
       steps="1"
       threshold="0.000408163"
       smooth_angles="360"
       helper_size="0"
       simplify_individual_paths="false"
       simplify_just_coalesce="false" />
    <inkscape:path-effect
       effect="simplify"
       id="path-effect69"
       is_visible="true"
       lpeversion="1"
       steps="1"
       threshold="0.000408163"
       smooth_angles="360"
       helper_size="0"
       simplify_individual_paths="false"
       simplify_just_coalesce="false" />
    <inkscape:path-effect
       effect="simplify"
       id="path-effect65"
       is_visible="true"
       lpeversion="1"
       steps="1"
       threshold="0.000408163"
       smooth_angles="360"
       helper_size="0"
       simplify_individual_paths="false"
       simplify_just_coalesce="false" />
    <inkscape:path-effect
       effect="simplify"
       id="path-effect61"
       is_visible="true"
       lpeversion="1"
       steps="1"
       threshold="0.000408163"
       smooth_angles="360"
       helper_size="0"
       simplify_individual_paths="false"
       simplify_just_coalesce="false" />
    <inkscape:path-effect
       effect="simplify"
       id="path-effect57"
       is_visible="true"
       lpeversion="1"
       steps="1"
       threshold="0.000408163"
       smooth_angles="360"
       helper_size="0"
       simplify_individual_paths="false"
       simplify_just_coalesce="false" />
    <clipPath
       clipPathUnits="userSpaceOnUse"
       id="clipPath280">
      <path
         id="path282"
         style="fill:#ff0000;fill-opacity:1;fill-rule:nonzero;stroke:none;stroke-width:0.264583"
         d="m 66.454343,24.592297 c 0,2.331985 -1.184986,4.987482 0,6.995955 0.08191,0.138832 0.185519,0.01819 0.207221,-0.09922 0.0846,-0.457672 0.18839,-0.925919 0.13328,-1.391311 -0.0196,-0.165509 -0.03369,-0.395269 -0.202891,-0.460551 -0.05905,-0.02278 -0.146247,-0.02096 -0.0719,-0.10934 0.07357,-0.08746 0.159378,-0.118427 0.267065,-0.16335 0.269128,-0.112271 0.332314,-0.469824 0.601849,-0.573882 0.15919,-0.06146 0.477383,0.140234 0.498832,-0.0244 0.0087,-0.06694 0.111074,-0.2142 0.07503,-0.206731 -0.336701,0.06978 -0.716542,0.05899 -1.007203,-0.148893 -0.21865,-0.15638 -0.312813,-0.451748 -0.236851,-0.709356 0.103403,-0.350669 0.41198,-0.597657 0.735497,-0.735082 0.244834,-0.104002 0.499834,-0.184358 0.757266,-0.250839 0.304625,-0.07867 0.635577,-0.07892 0.928381,0.04378 0.0992,0.04157 0.207796,0.216631 0.288922,0.146257 0.392669,-0.340627 0.84504,-0.715718 1.369593,-0.722158 0.05172,-6.35e-4 0.224386,-0.0752 0.187137,-0.03608 -0.06351,0.0667 0.08318,-0.04576 0.123304,-0.05245 0.07666,-0.01279 0.0033,-0.105406 0.05342,-0.112191 0.08464,-0.01146 0.158766,-0.02597 0.222443,-0.04692 0.523176,-0.172119 1.024964,-0.422854 1.566519,-0.526146 0.495995,-0.0946 1.108351,-0.205503 1.493308,0.135829 0.03456,0.03065 0.03374,0.04875 0.105452,0.07441 0.177783,0.06362 0.365915,0.03989 0.548289,0.0062 0.109224,-0.02018 0.235488,0.0011 0.329906,-0.05935 0.609577,-0.390427 1.254518,-1.205433 1.945926,-0.964361 0.201653,0.07031 0.492109,0.318137 0.621152,0.148828 0.03741,-0.04908 0.182283,-0.158646 0.1505,-0.158646 -3.897148,-2e-6 -7.794295,-4e-6 -11.691443,-6e-6 z m 25.125598,0 c -0.01614,0.07426 -0.07672,0.114877 0.03976,0.150437 0.177231,0.05411 0.359739,0.09381 0.521304,0.191704 0.345722,0.209477 0.339293,0.840073 0.726718,0.930164 0.303422,0.07056 1.181631,0.340155 0.917774,0.174666 -0.143629,-0.09008 -0.27342,-0.198916 -0.435606,-0.262698 -0.04497,-0.01769 -0.177902,-0.06097 -0.16684,-0.05854 0.15892,0.03485 0.31133,0.09642 0.453944,0.172649 0.226064,0.120829 0.384256,0.329108 0.554277,0.514208 0.09151,0.09963 0.144289,0.229116 0.196227,0.352474 0.09227,0.219145 0.03823,0.517402 0.211383,0.679755 0.31704,0.297266 0.40357,0.747469 0.611849,1.120344 0.116267,0.208149 0.28588,0.410333 0.305496,0.647681 0.01059,0.128146 0.07801,0.245697 0.100713,0.372403 0.02644,0.147585 -0.03381,0.34571 0.08061,0.442867 0.143881,0.122172 0.607373,0.433576 0.43,0.3688 -0.08505,-0.03106 -0.160358,-0.09966 -0.241059,-0.146182 -0.03127,-0.01803 -0.114248,-0.0875 -0.05461,-0.01432 0.05419,0.0665 0.199962,0.276024 0.17215,0.240595 -0.08186,-0.104279 -0.401425,-0.288323 -0.267569,-0.297604 0.04418,-0.0031 0.08194,0.04649 0.03183,-0.01945 -0.04195,-0.0552 -0.05062,-0.08026 -0.04306,0.01127 0.0062,0.07461 0.06385,0.281928 0.05721,0.252625 -0.02878,-0.126958 -0.02487,-0.283902 -0.124672,-0.368868 -0.107495,-0.09152 -0.128022,0.03151 -0.12636,0.128965 0.0016,0.09421 -0.002,0.04027 -0.0064,-0.01824 -0.0043,-0.05574 0.03136,-0.137899 -0.05797,-0.07965 -0.748937,0.488351 -1.602987,0.957173 -2.026135,1.74039 -0.0498,0.09217 0.06273,0.192477 0.175946,0.130564 0.352799,-0.192933 1.349671,-0.544621 0.979008,-0.695904 -0.05967,-0.02435 -0.316616,-0.106077 -0.200993,-0.103207 0.129774,0.0032 0.237351,0.01948 0.372691,-0.04761 0.420964,-0.208673 0.822386,-0.703397 1.281844,-0.590099 0.100742,0.02484 0.136361,0.168194 0.05742,0.253044 -0.164336,0.176645 -0.661483,0.700598 -0.48003,0.541609 0.09795,-0.08582 0.179063,-0.34373 0.284554,-0.267482 0.0532,0.03845 -0.03458,0.187287 -0.05961,0.253756 -0.06443,0.17114 -0.03577,0.418704 -0.191874,0.513955 -0.247221,0.150847 -0.494882,0.303622 -0.717913,0.48785 -0.112771,0.09315 -0.250433,0.07536 -0.367986,0.170306 -0.153288,0.123806 -0.366803,0.210221 -0.561386,0.127846 -0.158782,-0.06722 -0.217881,-0.298909 -0.383612,-0.330733 -0.210466,-0.04041 -0.340863,-0.234716 -0.430131,-0.412258 -0.256673,-0.510487 -0.299738,-1.093076 -0.452502,-1.638263 -0.0084,-0.02993 0.02657,0.03645 0.0072,-0.0217 -0.04309,-0.129612 -0.102789,-0.262454 -0.194215,-0.364973 -0.08005,-0.08977 -0.07253,-0.251532 -0.193193,-0.297515 -0.220078,-0.08387 -0.283197,-0.333306 -0.39228,-0.525654 -0.05586,-0.0985 -0.01395,-0.253463 -0.153665,-0.294845 -0.298036,-0.08827 -0.602704,-0.161233 -0.887342,-0.289621 -0.165642,-0.07471 -0.27161,-0.233806 -0.323302,-0.403294 -0.05044,-0.165385 -0.107625,-0.32945 -0.120608,-0.504177 -0.01213,-0.163252 0.111937,-0.421565 -0.03706,-0.489739 -0.09655,-0.04418 -0.378997,-0.188974 -0.291386,-0.130537 0.04702,0.03136 0.180847,0.107756 0.175646,0.105454 -0.157562,-0.06973 -0.317969,-0.129211 -0.481585,-0.18347 -0.334105,-0.110797 -0.54172,-0.424562 -0.864771,-0.591331 -0.0748,-0.03861 -0.181719,-0.04553 -0.271831,-0.06543 -0.22279,-0.04918 -0.43117,-0.219881 -0.657656,-0.188988 -0.439422,0.05994 -0.884509,0.113226 -1.328474,0.06326 -0.07544,-0.0085 -0.102661,-0.0073 -0.147753,0.07471 -0.139502,0.253747 -0.247894,0.526852 -0.42543,0.758802 -0.07775,0.101575 -0.21273,0.157254 -0.338511,0.114471 -0.237123,-0.08065 -0.440456,-0.232968 -0.649414,-0.366965 -0.421575,-0.270341 -1.313898,-1.231489 -1.31171,-0.730575 4.63e-4,0.106001 0.04336,0.210695 0.08096,0.310194 0.04035,0.106782 0.05765,0.222252 0.128085,0.316941 0.149137,0.200498 0.31858,0.428044 0.580954,0.472999 0.213875,0.03665 0.859984,0.0071 0.647663,0.05019 -0.258186,0.05237 -0.524932,0.0386 -0.781393,0.103425 -0.441181,0.11151 -0.892113,0.175808 -1.336349,0.272774 -0.248758,0.0543 -0.506123,0.06527 -0.760021,0.05899 -0.193843,-0.0048 -0.386467,-0.01701 -0.58045,-0.02683 -0.07771,-0.0039 -0.297408,-0.0045 -0.250239,-0.01277 0.05169,-0.0091 -0.108338,0.0074 -0.141928,0.01145 -0.208308,0.02515 -0.431456,-0.0052 -0.6248,0.0766 -0.244404,0.103445 -0.50535,0.158777 -0.76937,0.187135 -0.590925,0.06347 -1.181246,-0.04292 -1.757962,-0.221784 -0.09798,-0.03039 -0.181037,-0.08256 -0.29776,-0.04098 -0.612345,0.218155 -2.428366,0.0743 -1.895612,0.452326 0.06517,0.04624 -0.110726,0.06063 -0.14709,0.06721 -0.185806,0.03366 -0.373238,0.04874 -0.558061,0.09178 -0.364881,0.08498 -0.728595,0.181553 -1.070393,0.341206 -0.538218,0.2514 -1.031967,0.602245 -1.607082,0.771454 -0.378513,0.111365 -0.797236,0.08549 -1.151859,-0.08966 -0.113265,-0.05594 -0.231444,-0.112107 -0.325967,-0.195396 -0.06417,-0.05655 -0.09787,-0.221022 -0.202291,-0.125156 -0.206499,0.189574 -0.909071,0.424543 -0.650089,0.533302 0.0514,0.02159 -0.07364,0.131577 -0.101992,0.175082 -0.06257,0.096 -0.116912,0.201784 -0.130052,0.325662 -0.02936,0.2768 -0.113682,0.546987 -0.226915,0.800314 -0.0522,0.116792 -0.10676,0.230945 -0.180087,0.337313 -0.138471,0.200865 -0.353581,0.45057 -0.260705,0.673634 0.05864,0.14083 -0.06788,0.264666 -0.109038,0.401008 -0.05154,0.170736 -0.122863,0.342315 -0.11627,0.520898 0.004,0.107298 0.01917,0.247372 -0.0046,0.330172 -0.02224,0.07746 -0.01574,0.14822 -0.01043,0.218111 0.03536,0.464882 0.06937,0.945203 -0.05789,1.399029 -0.0573,0.204346 -0.175455,0.43693 -0.402281,0.479479 -0.253098,0.04748 -0.495811,-0.08554 -0.69115,-0.230986 -0.422393,-0.3145 -0.762873,-0.729147 -1.037741,-1.175046 -0.06354,-0.103073 -0.06665,-0.366444 -0.177196,-0.316988 -0.116623,0.05218 -0.238556,-0.0022 -0.238302,-0.151057 2.48e-4,-0.145129 -0.09229,-0.519362 0.02602,-0.434901 0.0063,0.0045 0.05259,0.09558 0.0155,0.01278 -0.04199,-0.09375 0.03685,-0.183712 -0.01996,-0.274266 -0.05772,-0.09202 0.027,-0.229066 0.03423,-0.337925 0.0053,-0.08012 0.09028,-0.265498 0.04941,-0.254159 -0.06351,0.01762 -0.0683,-0.115895 -0.136208,-0.02858 -0.04727,0.06079 0.04019,0.231091 -0.0072,0.202052 -0.05355,-0.03278 -0.150894,-0.1818 -0.150894,-0.157737 0,13.742037 -13.742037,41.22611 0,41.22611 11.018845,0 33.056535,11.018845 33.056535,0 0,-16.144372 16.14437,-48.433117 0,-48.433117 -2.643576,0 -5.287153,0 -7.930729,0 z m 3.09645,7.788155 c 0.347242,-0.323015 1.309566,-1.35955 0.941264,-1.062671 -0.04345,0.03502 -0.172276,0.148443 -0.254035,0.212494 -0.453168,0.355018 -2.038268,0.403192 -1.554358,0.715819 0.142599,0.09213 0.317698,0.08596 0.479928,0.103756 0.128587,0.0141 0.257514,0.03351 0.387201,0.0306 z m 0.844394,-2.336808 c 0.02898,-0.03321 -0.0083,-0.249525 -0.0041,-0.118789 0.0013,0.03959 0.0027,0.07927 0.0041,0.118789 z m -0.0057,-0.173117 c 0.0113,-0.08738 -0.204387,-0.168383 -0.190326,-0.156854 0.06357,0.05212 0.126829,0.104677 0.190326,0.156854 z m -0.0011,-0.03876 c 0.03282,0.02057 0.01392,-0.115688 0.01211,-0.158193 -0.0061,-0.144274 0.02053,-0.294039 -0.01276,-0.433843 -0.03039,-0.127594 -0.01367,0.06777 -0.01247,0.11334 0.0042,0.159559 0.0085,0.319192 0.01312,0.478696 z m -0.01757,-0.649055 c 0.0055,-0.05967 -0.03964,-0.10214 -0.0055,-0.01794 0,0 0.0054,0.01794 0.0054,0.01794 0,0 7e-5,0 7e-5,0 z m 0.03204,0.665075 c -0.01576,0.05179 0.09789,0.129232 0.03323,0.04179 -0.01058,-0.01431 -0.02164,-0.02829 -0.03323,-0.04179 z m -4.011096,-5.095814 c 0.0377,0.03793 0.205286,0.14022 0.196888,0.13284 -0.05975,-0.0525 -0.130714,-0.08949 -0.196888,-0.13284 z m -20.059243,1.175639 c -0.05439,-0.01077 -0.15977,0.07982 -0.05829,0.0279 0.01904,-0.0097 0.04095,-0.01512 0.05829,-0.0279 z m 16.78709,0.0155 c -0.0475,0.0044 -0.227758,0.03629 -0.100293,0.02057 0.03355,-0.0041 0.06903,-0.0083 0.100293,-0.02057 z m -16.914211,0.0098 c -0.03344,0.0089 -0.185213,0.05949 -0.130177,0.04221 0.04351,-0.01366 0.08684,-0.02815 0.130177,-0.04221 z m 18.616951,0.06563 c -0.109493,0.03941 -0.439295,0.152105 -0.326078,0.125057 0.112473,-0.02687 0.217847,-0.08418 0.326078,-0.125057 z m -10.193695,0.09715 c 0.05761,0.0064 -0.07077,0.04456 0.0093,0.04286 0.154918,-0.0033 0.01297,0.160848 -0.03897,0.212937 -0.109375,0.109686 -0.368572,0.172549 -0.333623,0.323468 0.05893,0.254468 0.222601,0.47527 0.411077,0.647758 0.132268,0.121048 0.289876,0.253261 0.481551,0.249817 0.0705,-0.0013 0.206025,-0.09258 0.06131,-0.08737 -0.148506,0.0053 -0.06305,-0.189081 -0.06122,-0.289109 0.0062,-0.341148 0.310921,-1.039204 -0.02972,-1.022345 -0.144473,0.0071 -0.284655,-0.02449 -0.424327,-0.06176 -0.02484,-0.0066 -0.04998,-0.01241 -0.07537,-0.01625 z m 10.504271,0.757062 c -0.06336,-0.0056 -0.120316,0.007 -0.02698,0.0088 0.03112,6.07e-4 0.100663,-0.0075 0.02699,-0.0088 0,0 -1e-5,0 -1e-5,0 z m 2.884577,0.179316 c -0.01471,0.01441 0.01792,0.01362 0,0 z m -0.889868,0.737938 c -0.129644,-0.01859 -0.162443,0.139704 -0.210011,0.229913 -0.0372,0.07054 0.0042,0.07569 0.04816,0.01446 0.05698,-0.07937 0.110291,-0.161517 0.161849,-0.244377 z m -20.552235,0.705385 c -0.09745,0.02603 -0.367939,0.09288 -0.306633,0.09762 0.09549,0.0074 0.192543,-0.03382 0.27379,-0.08168 0.01035,-0.0061 0.02407,-0.0072 0.03284,-0.01594 z M 94.574537,29.4111 c -0.550291,0.05908 -1.100924,0.113104 -1.650761,0.179524 -0.08148,0.0098 -0.200679,-0.03717 -0.171874,0.09143 0.02018,0.0901 0.147025,0.132144 0.234218,0.144088 0.175034,0.02398 0.374768,0.166418 0.524914,0.0733 0.203342,-0.12611 0.384218,-0.289257 0.599573,-0.394431 0.134681,-0.06577 0.36497,0.09729 0.431889,-0.03086 0.01091,-0.0209 0.02173,-0.04186 0.03204,-0.06304 z m -1.93735,0.176215 c 0.03548,0.07639 0.115032,0.0083 0.04157,0.0032 -0.01387,-9.51e-4 -0.02778,-0.002 -0.04157,-0.0032 z m 0.120406,0.592212 c 0.01849,0.04543 0.04366,0.0823 0.0079,0.01542 0,0 -0.0079,-0.01543 -0.0079,-0.01543 0,0 0,10e-6 0,10e-6 z m -25.264091,1.168921 c -0.08579,0.02168 -0.06825,0.113753 0.02214,0.05471 0.05999,-0.03919 0.02344,-0.03861 -0.02214,-0.05471 z m -0.0047,0.180869 c -0.102346,0.04208 -0.406471,0.125256 -0.332121,0.125239 0.08325,-1.9e-5 0.194061,0.114053 0.250529,0.01757 0.02769,-0.04732 0.05505,-0.09485 0.08159,-0.142811 z M 66.8568,31.74894 c -0.089,-0.01033 -0.09423,0.253195 -0.03275,0.110716 0.01529,-0.03543 0.02471,-0.07308 0.03275,-0.110716 z"
         inkscape:original-d="m 66.454343,24.592297 v 6.995955 c 0.085,0.09639 0.166198,0.109366 0.207221,-0.09922 0.52255,-2.657192 -0.603549,-1.508496 -0.0016,-2.100131 0.37256,-0.0058 0.455356,-0.525608 0.772046,-0.613399 0.146725,-0.04068 0.301572,-0.02117 0.455785,-0.0093 0.0024,-0.0068 0.0024,-0.0079 0.0047,-0.01498 0.02273,-0.06762 0.05622,-0.131006 0.08733,-0.195339 -1.454602,0.313158 -1.838365,-1.156446 -0.306959,-1.675866 0.657778,-0.223102 1.094208,-0.359351 1.743564,0.01241 0.0048,0.0028 0.0079,0.0094 0.01241,0.01291 0.02714,-0.02294 0.09558,-0.08163 0.0956,-0.08165 0.364681,-0.291351 0.765556,-0.528826 1.227315,-0.628386 0.169246,-0.03963 0.310293,-0.123638 0.205674,-0.01654 0.0777,-0.04499 0.149566,-0.08412 0.213939,-0.116272 -0.0055,-0.02 -0.01119,-0.03993 -0.01654,-0.05994 -0.0098,-0.03682 0.07064,-0.02792 0.106452,-0.04082 0.02686,-0.0097 0.07132,-0.05349 0.08165,-0.02687 0.0016,0.0043 0.0029,0.0087 0.0047,0.01292 0.528014,-0.173288 1.04248,-0.385246 1.578714,-0.533818 0.531675,-0.09908 1.044913,-0.103906 1.541507,0.142627 0.0366,0.01298 0.07347,0.02629 0.110072,0.03927 -0.0092,0.008 -0.03885,0.01837 -0.02791,0.02377 0.127405,0.06268 0.40902,-0.03295 0.548289,0.0062 0.09779,-0.0095 0.192177,-0.02273 0.287321,-0.03514 0.01834,-0.01181 0.0385,-0.02037 0.05633,-0.03307 0.609137,-0.389625 1.225556,-0.780837 1.932181,-0.955497 0.19521,0.06864 0.414634,0.09841 0.621152,0.148828 0.06259,-0.06031 0.113016,-0.105093 0.169497,-0.158646 z m 25.125598,0 c -0.0099,0.04369 -0.02492,0.08678 -0.04444,0.128674 0.01259,0.0032 0.02765,0.0061 0.03566,0.0083 0.129513,0.03568 0.258384,0.07323 0.387575,0.11007 0.456951,0.200028 0.732988,0.586937 0.908986,1.025261 0.203142,0.04707 0.488786,0.107468 0.917774,0.174666 -0.185621,-0.126873 -0.240096,-0.179275 -0.326594,-0.224276 -0.07684,-0.02815 -0.165018,-0.05771 -0.284221,-0.09663 -0.03114,-0.01017 0.06452,0.01135 0.0956,0.0217 0.08857,0.0295 0.142857,0.05112 0.188619,0.07493 0.324498,0.118867 0.357185,0.191537 0.769977,0.629936 0.187749,0.307888 0.286253,0.647732 0.370004,0.992188 0.28389,0.264218 0.47584,0.649536 0.611849,1.120344 0.108159,0.185941 0.199388,0.374364 0.284221,0.575159 1.32e-4,0.0051 2.65e-4,0.0068 5.29e-4,0.01188 0.01106,0.02638 0.02223,0.05847 0.02326,0.07648 5e-5,7.94e-4 5.29e-4,0.03362 5.29e-4,0.03772 0.03336,0.10604 0.06892,0.21149 0.09767,0.318845 0.01466,0.05478 0.01826,0.112159 0.02842,0.167949 0.01672,0.09177 0.03468,0.183296 0.05219,0.274918 0.78522,0.649976 0.301136,0.280998 0.104902,0.172082 0.07942,0.09551 0.152551,0.202317 0.187069,0.254765 0.0024,0.0021 0.0034,0.003 0.0057,0.0052 0.02479,0.04151 0.01831,0.0313 -0.0057,-0.0052 -0.303692,-0.289615 -0.289716,-0.311737 -0.187069,-0.254765 -0.03048,-0.03666 -0.06059,-0.07146 -0.09095,-0.10025 0.01291,0.06797 0.02381,0.123264 0.03359,0.168981 0.05958,0.180324 0.05719,0.267663 0,0 -0.02133,-0.06452 -0.04969,-0.138827 -0.08733,-0.213942 -0.04082,-0.02898 -0.07731,-0.04151 -0.10387,-0.02479 -0.0078,0.0049 -0.01548,0.01005 -0.02326,0.01497 0.0021,0.226002 2.64e-4,0.308219 -0.0098,0.0062 -0.768305,0.489747 -1.427023,1.139346 -2.079977,1.775087 -0.01672,0.0163 -0.01805,0.04695 -0.01035,0.07855 0.03224,0.03202 0.06396,0.06481 0.09612,0.0987 0.389758,-0.190656 0.71283,-0.495062 1.069184,-0.74259 -0.05654,-0.01024 -0.113474,-0.02027 -0.170013,-0.03049 -0.076,-0.01376 -0.06204,-0.09078 0.01394,-0.077 0.05763,0.01045 0.115475,0.02106 0.173117,0.03152 0.474017,-0.22094 0.920409,-0.515429 1.422136,-0.663008 0.07624,-0.02244 0.161319,0.155442 0.106968,0.213423 -0.188809,0.20143 -0.358791,0.395684 -0.515212,0.579292 0.405444,-0.372351 0.396843,-0.493911 0.03307,0.500229 -0.678879,0.427141 -0.727308,0.563989 -0.983404,0.57309 -0.370641,0.33087 -0.670393,0.365596 -1.046964,-0.117821 0,0 -5.29e-4,0 -5.29e-4,0 -0.498086,-0.07407 -0.755587,-1.338554 -0.815973,-1.673283 -0.02217,-0.125717 -0.04504,-0.251421 -0.06666,-0.377238 -0.0029,-0.01693 -0.01453,-0.06646 -0.0067,-0.05116 0.0049,0.0097 0.0093,0.01963 0.01394,0.02946 -7.94e-4,-0.0083 -0.0021,-0.01654 -0.0031,-0.02479 -0.105598,-0.205306 -0.241869,-0.396148 -0.317809,-0.614434 -0.297008,-0.08739 -0.419931,-0.323821 -0.527617,-0.820105 -1.236429,-0.344938 -1.180483,-0.319911 -1.400431,-1.059366 -0.02685,-0.211992 -0.02487,-0.439295 -0.05271,-0.651123 -0.08354,-0.04008 -0.173348,-0.0826 -0.283703,-0.130742 -0.06578,-0.0287 0.122323,0.07504 0.183452,0.112655 -0.07867,-0.03606 -0.22306,-0.09303 -0.304893,-0.130226 -0.01042,-0.0019 -0.0208,-0.0046 -0.031,-0.0078 -0.438464,-0.136541 -0.811146,-0.291274 -1.036629,-0.660943 -0.02477,-0.0025 -0.05034,-0.0055 -0.0739,-0.0078 -0.285036,-0.06106 -0.572799,-0.121229 -0.84491,-0.229443 -0.430493,0.05663 -0.858221,0.12008 -1.294495,0.06511 -0.03817,-0.0027 -0.109551,-0.0044 -0.158128,-0.0062 -0.01341,0.08721 -0.07109,0.163686 -0.109554,0.243913 -0.633042,1.320227 -0.519782,0.617116 -2.639115,-0.389123 -0.0013,0.01187 -0.0034,0.0239 -0.0036,0.03566 0.05305,0.172194 0.106111,0.344571 0.159165,0.516765 0.470252,0.668379 0.571,0.533947 1.282092,0.597896 -0.384974,0.07224 -0.377995,0.007 -0.892969,0.128675 -0.517493,0.124815 -0.89412,0.165616 -1.300697,0.265615 -0.338516,0.04785 -0.678632,0.05598 -1.019059,0.0186 -0.01654,-5.3e-4 -0.658354,-0.0093 -0.469738,-0.01913 -0.01122,2.65e-4 -0.02339,-8e-6 -0.02429,-0.0021 -0.255074,0.0232 -0.51163,0.07188 -0.768427,0.09198 -0.167296,0.07044 -0.342426,0.121991 -0.510564,0.156064 -0.689612,0.09354 -1.385895,0.112194 -2.031918,-0.197921 -0.0058,-0.0026 -0.01177,-0.0043 -0.01757,-0.0067 -0.0024,-0.0013 -0.0066,1.2e-4 -0.0088,-0.0016 -0.0016,-0.0011 -0.0029,-0.0021 -0.0047,-0.0031 -0.05512,-0.02304 -0.110836,-0.04397 -0.166912,-0.06304 -0.03195,0.01556 -0.06351,0.0309 -0.09715,0.04651 -0.612397,0.214066 -1.233644,0.400428 -1.88309,0.446484 0.132511,0.03944 -0.283139,0.08985 -0.541052,0.11834 -0.38771,0.100053 -0.786694,0.1674 -1.148252,0.342099 -1.055336,0.473749 -1.95925,1.370105 -3.162596,0.537435 -0.0456,-0.06014 -0.09136,-0.120187 -0.136943,-0.180351 -0.02635,0.01545 -0.05789,0.03167 -0.0739,0.04392 -0.208354,0.191148 -0.415205,0.375798 -0.650089,0.533302 0.09504,-0.0353 -0.144933,0.184488 -0.211354,0.358634 -0.0091,0.02498 -0.0235,0.04863 -0.02739,0.07493 -0.0033,0.02233 0.0046,0.04471 0.0067,0.06718 -0.0028,0.02984 -0.0031,0.06049 -0.0088,0.08992 -0.07131,0.370686 -0.164581,0.607422 -0.328662,0.952913 -0.176501,0.221374 -0.267804,0.466209 -0.321945,0.737938 -0.0019,0.0092 -0.0062,0.02101 -0.0083,0.03049 0.04611,0.107788 0.02119,0.256336 -0.109038,0.401008 -0.01934,0.06839 -0.03621,0.132807 -0.04341,0.182935 -0.01328,0.09637 -0.03801,0.213122 -0.07286,0.337963 -0.0029,0.107741 -0.01037,0.220147 -0.01654,0.31006 0.0035,-9.8e-5 0.0068,-0.0011 0.01035,-0.0011 0.01908,5.29e-4 -0.01122,0.03726 -0.01085,0.05633 0.0011,0.04772 0.05186,0.145544 0.0041,0.143145 -0.0019,-1.01e-4 -0.0037,9.8e-5 -0.0057,0 0.317365,3.421155 -1.705814,1.513861 -2.362647,0.195336 -0.254249,0.05182 -0.250891,-0.0019 -0.230476,-0.428397 0.005,-0.04675 0.006,-0.09442 0.01498,-0.14056 0.0016,-0.008 0.0042,-0.02976 0.0083,-0.02273 0.0099,0.01709 -0.0078,0.05668 0.01188,0.05788 0.0013,8.5e-5 0.0027,5.29e-4 0.0041,5.29e-4 -0.01757,-0.108532 -0.01357,-0.200266 0.0181,-0.267166 -0.0231,-0.02532 -0.04636,-0.05041 -0.07028,-0.07441 0.05443,-0.278257 0.08518,-0.455673 0.128675,-0.570508 -0.04897,0.01556 -0.09804,0.03122 -0.147277,0.04599 -0.02215,0.0066 0.01243,-0.08087 -0.0073,-0.06873 -0.02453,0.01513 -0.01206,0.05603 -0.0181,0.08423 -0.03375,-0.02035 0.03944,0.144952 0.01085,0.117822 -0.06405,-0.06077 -0.111233,-0.1181 -0.150894,-0.176734 V 73.025414 H 99.51067 V 24.592297 Z m 3.09645,7.788155 c 0.263033,-0.234807 0.562769,-0.618403 0.950331,-1.07332 -0.325962,0.299358 -0.9188,0.759902 -1.81746,0.938962 0.05902,0.03563 0.121835,0.06117 0.191201,0.06925 0.357743,0.04166 0.544039,0.0698 0.675928,0.06511 z m 0.844394,-2.336808 c 0.0033,-0.0021 0.0066,-0.0041 0.0098,-0.0062 -5.29e-4,-0.04638 -0.0013,-0.102376 -0.0021,-0.156062 -0.0044,-0.0036 -0.009,-0.0072 -0.01344,-0.01085 0.0024,0.08278 0.0039,0.118721 0.0057,0.173117 z m -0.0057,-0.173117 c -5.3e-4,-0.01357 -5.3e-4,-0.02437 -0.0011,-0.03876 -0.05834,-0.06367 -0.12641,-0.111908 -0.204639,-0.130741 0.08411,0.06898 0.136718,0.112717 0.205671,0.169497 z m -0.0011,-0.03876 c 0.0048,0.0053 0.0098,0.01056 0.01447,0.01603 -0.0034,-0.269444 -0.008,-0.536168 -0.0093,-0.589114 -0.0079,-0.02524 -0.01516,-0.05061 -0.02273,-0.07596 0.007,0.271272 0.01291,0.489493 0.01757,0.649055 z m -0.01757,-0.649055 c -5.29e-4,-0.01598 -5.29e-4,-0.02183 -0.0011,-0.03824 -0.01315,-0.03138 -0.02585,-0.0543 -0.02016,-0.03359 0.0066,0.02413 0.01402,0.04786 0.02119,0.07183 z m 0.03204,0.665075 c 1.51e-4,0.01175 -1.4e-4,0.02204 0,0.03359 0.02117,0.01744 0.04429,0.03638 0.06408,0.05271 -0.01984,-0.03043 -0.04106,-0.05949 -0.06408,-0.0863 z m -4.011096,-5.095814 c -0.0011,0.0017 -0.0021,0.0034 -0.0031,0.0052 0.08474,0.05622 0.261655,0.181843 0.199988,0.12764 -0.05949,-0.05229 -0.130532,-0.08944 -0.196887,-0.132808 z m -20.059243,1.175639 c -0.0011,-0.0026 -0.04104,0.0063 -0.110069,0.0217 0.0032,0.0082 0.0061,0.01657 0.0093,0.02481 0.06295,-0.02785 0.102005,-0.04364 0.100767,-0.04651 z m 16.78709,0.0155 c -0.01405,6.09e-4 -0.06923,0.0087 -0.09147,0.01085 -0.02294,0.0029 -0.0458,0.0063 -0.06873,0.0093 0.01043,0.0017 0.02021,0.0028 0.02687,0.0026 0.04401,-0.0015 0.08837,-0.0087 0.130741,-0.02067 0.0072,-0.002 0.0072,-0.0023 0.0026,-0.0021 z m -16.914211,0.0098 c -0.0075,0.0017 -0.0098,0.0023 -0.0181,0.0041 -0.04289,0.01469 -0.14274,0.0036 -0.130741,0.04393 0.04981,-0.01538 0.09928,-0.03189 0.148828,-0.04806 z m 18.616951,0.06563 c 0.03858,-0.0172 -0.168804,0.06461 -0.326078,0.125057 0.01381,-0.0026 0.0275,-0.0055 0.04134,-0.0078 0.183142,-0.07481 0.265253,-0.10862 0.284737,-0.117306 z m -10.193695,0.09715 c -0.02387,-0.0036 0.08396,0.02278 0.06356,0.03566 -0.01588,0.01004 -0.03483,0.0099 -0.05426,0.0072 0.02537,0.0035 0.05045,0.0079 0.07441,0.01654 0.0076,0.0027 -0.0073,0.09084 -0.124024,0.207223 -0.152275,0.151889 -0.237177,0.232995 -0.322976,0.312642 0.01032,0.04751 0.02389,0.09406 0.04341,0.139528 0.157001,0.365824 0.735349,0.979721 0.989087,0.680061 -0.05248,-0.0051 -0.104643,-0.01236 -0.157097,-0.02273 0.04725,-0.411689 -0.0132,-0.867402 -0.01241,-1.298113 -0.06536,-2.3e-5 -0.130355,-1.91e-4 -0.199472,-0.0067 -0.102272,-0.0097 -0.198657,-0.05597 -0.300241,-0.07131 z m 10.504271,0.757062 c -0.02998,-5.3e-4 -0.06023,0.0016 -0.09043,0.0031 0.01204,0.0032 0.01752,0.0041 0.03101,0.0078 0.03141,-0.0028 0.125937,-0.0056 0.09457,-0.0088 -0.01151,-0.0013 -0.02349,-0.0019 -0.03514,-0.0021 z m 2.884577,0.179316 c -1.19e-4,0.0035 -2.65e-4,0.0074 -5.29e-4,0.01034 0.0011,-1.3e-4 0.0021,1.32e-4 0.0031,0 -7.93e-4,-0.0034 -0.0019,-0.007 -0.0026,-0.01034 z m -0.889868,0.737938 c -0.01691,2.65e-4 -0.03373,5.3e-4 -0.05064,0.0011 -0.08189,0.0024 -0.160975,0.205838 -0.172598,0.283704 0.0038,0.0037 0.0098,0.0093 0.01344,0.01291 0.0026,2.65e-4 0.0052,7.94e-4 0.0078,0.0011 0.07265,-0.09592 0.138163,-0.196622 0.202054,-0.29869 z m -20.552235,0.705385 c -0.0091,10e-5 -0.08133,0.02135 -0.270783,0.08371 -0.01632,0.0034 -0.03232,0.0081 -0.04858,0.01188 0.01693,0.0029 0.03405,0.005 0.05116,0.0067 0.0043,5.29e-4 0.288258,-0.102542 0.2682,-0.102319 z M 94.574537,29.4111 c -0.873892,0.100684 -1.442516,0.189185 -1.82263,0.181901 1.7e-4,0.03932 -6.9e-5,0.07861 0,0.119372 0.06297,0.05717 0.132557,0.09965 0.211357,0.110588 0.246185,0.03418 0.415677,0.0604 0.54777,0.07648 0.604523,-0.395531 0.587645,-0.484161 1.031462,-0.425296 0.0109,-0.02088 0.02167,-0.04174 0.03204,-0.06305 z m -1.93735,0.176215 c 0.01897,0.02352 0.0388,0.04576 0.05891,0.0677 -0.0013,-0.02119 -0.0024,-0.0424 -0.0031,-0.06356 -0.01913,-0.0011 -0.03766,-0.0026 -0.05581,-0.0041 z m 0.120406,0.592212 c 4.5e-5,0.0011 -4.7e-5,0.0026 0,0.0036 0.01032,0.01942 0.04021,0.07838 0.03101,0.0584 -0.0097,-0.02098 -0.02058,-0.04141 -0.03101,-0.06201 z m -25.264091,1.168921 c -0.03033,7.9e-5 -0.07356,0.07575 -0.04444,0.08372 0.03906,0.01066 0.07008,-0.03797 0.104386,-0.06201 -0.01799,-0.0071 -0.03617,-0.01389 -0.05426,-0.02066 -0.0019,-7.94e-4 -0.0037,-0.0011 -0.0057,-0.0011 z m -0.0047,0.180869 c -0.114631,0.04127 -0.229227,0.08184 -0.344165,0.121954 0.06285,0.01688 0.148334,0.04418 0.232545,0.07183 0.04077,-0.06882 0.07882,-0.134485 0.11162,-0.193786 z M 66.8568,31.74894 c -0.01154,0.0038 -0.02307,0.0076 -0.03462,0.01138 -0.105227,0.132289 -0.02069,0.253418 0.03462,-0.01138 z" />
    </clipPath>
    <clipPath
       clipPathUnits="userSpaceOnUse"
       id="clipPath290">
      <path
         id="path292"
         style="fill:#ff0000;fill-opacity:1;fill-rule:nonzero;stroke:none;stroke-width:0.264583"
         d="m 60.291411,31.915881 c 0,23.542403 -23.542403,70.627209 0,70.627209 14.857146,0 44.571439,14.85715 44.571439,0 0,-23.542403 23.5424,-70.627209 0,-70.627209 -3.12212,0 -6.698175,-1.621248 -9.366354,0 -0.22654,0.137651 -0.400204,0.417145 -0.66564,0.435326 -0.138845,0.0095 -0.230754,0.09338 -0.340044,0.172477 -0.172321,0.124707 -0.394372,0.104271 -0.591052,0.0078 -0.133611,-0.06552 -0.193268,-0.233716 -0.327443,-0.282659 -0.154536,-0.05637 -0.178688,-0.33297 -0.337193,-0.33297 -7.930782,0 -18.516642,-5.921506 -23.792347,0 -0.118887,0.13344 -0.09537,0.327912 -0.150159,0.489283 -0.04643,0.136734 -0.06495,0.282925 -0.04621,0.424353 0.0071,0.05363 -0.0032,0.173598 0.0015,0.238223 0.03524,0.488206 0.06158,0.993192 -0.08041,1.469376 -0.06477,0.217202 -0.24621,0.437215 -0.492903,0.419919 -0.341624,-0.02395 -0.626591,-0.25248 -0.863029,-0.480028 -0.376455,-0.362301 -0.458838,-1.479687 -0.929914,-1.253779 -0.185934,0.08917 -0.25239,-0.09026 -0.237878,-0.25476 0.0079,-0.08908 0.02586,-0.363238 0.03395,-0.320842 0.02168,0.113612 -0.0074,-0.135378 0.01216,-0.170137 0.04988,-0.08886 -0.01897,-0.103473 -0.03159,-0.231632 -0.0094,-0.09576 0.112917,-0.299924 0.03278,-0.330015 -0.09401,-0.0353 -0.03001,-1e-6 -0.126192,0 -2.091155,1.3e-5 -4.18231,2.6e-5 -6.273465,3.9e-5 z m 34.38498,0.464571 c 0.158201,-0.142575 0.649824,-0.464571 0.437185,-0.464571 -0.119028,0 -0.251153,-0.05428 -0.357085,0 -0.298543,0.152965 -1.234909,0.15758 -0.947229,0.330213 0.171635,0.102996 0.379384,0.0937 0.572092,0.114548 0.09797,0.0106 0.196319,0.02254 0.295037,0.01981 z m -1.22783,-0.464571 c 0.04599,0.125822 0.276025,0 0.21784,0 -0.07261,0 -0.145227,0 -0.21784,0 z"
         inkscape:original-d="M 60.291411,31.915881 V 102.54309 H 104.86285 V 31.915881 h -9.366354 c -0.503502,0.332771 -0.589875,0.45639 -0.820105,0.464571 -0.370641,0.330869 -0.670393,0.365596 -1.046964,-0.117822 0,0 -5.29e-4,0 -5.29e-4,0 -0.153734,-0.02286 -0.284602,-0.159419 -0.393774,-0.346749 H 69.442777 c -0.01627,0.02582 -0.03612,0.05169 -0.05891,0.07751 -0.01934,0.06784 -0.041,0.138938 -0.04806,0.188103 -0.01328,0.09637 -0.038,0.213122 -0.07286,0.337963 -0.0029,0.107741 -0.01037,0.220147 -0.01654,0.31006 0.0035,-9.8e-5 0.0068,-0.0011 0.01035,-0.0011 0.01908,5.29e-4 -0.01122,0.03726 -0.01085,0.05633 0.0011,0.04772 0.05186,0.145545 0.0041,0.143145 -0.0019,-1.01e-4 -0.0037,9.8e-5 -0.0057,0 0.317365,3.421155 -1.705813,1.513861 -2.362647,0.195336 -0.254249,0.05182 -0.250888,-0.0019 -0.230476,-0.428397 0.005,-0.04675 0.006,-0.09442 0.01498,-0.14056 0.0016,-0.008 0.0042,-0.02976 0.0083,-0.02273 0.0099,0.01709 -0.0078,0.05668 0.01188,0.05788 0.0013,8.5e-5 0.0027,5.29e-4 0.0041,5.29e-4 -0.01757,-0.108535 -0.01357,-0.200266 0.0181,-0.267166 -0.0231,-0.02532 -0.04636,-0.05041 -0.07028,-0.07441 0.03802,-0.194328 0.06213,-0.32096 0.08888,-0.432532 h -0.125058 c 0.0084,0.02843 0.01508,0.05272 0.0031,0.04134 -0.01476,-0.014 -0.02714,-0.02765 -0.04031,-0.04134 z m 34.38498,0.464571 c 0.133721,-0.11937 0.277776,-0.278472 0.437185,-0.464571 h -0.357085 c -0.267451,0.136675 -0.580641,0.257169 -0.947229,0.330213 0.05902,0.03563 0.121835,0.06117 0.191201,0.06925 0.357743,0.04166 0.544039,0.0698 0.675928,0.06511 z m -1.22783,-0.464571 c 0.02604,0.02625 0.05193,0.05259 0.07803,0.0801 0.05074,-0.02482 0.100124,-0.0518 0.148829,-0.0801 z" />
    </clipPath>
  </defs>
  <g
     inkscape:groupmode="layer"
     id="layer2"
     inkscape:label="Nucleo Celuar">
    <path
       style="fill:none;stroke:#000000;stroke-width:0.264583px;stroke-linecap:butt;stroke-linejoin:miter;stroke-opacity:1"
       d="m 3.884064,37.354385 c 0.3039028,0.141831 0.5777991,0.366926 0.9193318,0.413768 0.4297358,0.05894 0.8548168,-0.05781 1.27027,-0.153273 0.358151,-0.08229 0.727573,-0.146902 1.0962017,-0.09405 0.5576957,0.07996 1.0973612,0.250027 1.6277699,0.434307 0.3133814,0.108878 0.6336425,0.200271 0.9346588,0.342255 0.4251208,0.200522 0.8525158,0.409853 1.2236608,0.697317 0.226596,0.175506 0.426155,0.382617 0.63234,0.580965 0.403202,0.387877 0.791072,0.79902 1.250745,1.119987 0.155308,0.108444 0.313167,0.254781 0.50655,0.260435 0.163895,0.0048 0.326967,-0.03194 0.484097,-0.07552 0.489541,-0.135797 0.937218,-0.416178 1.448298,-0.470779 0.429625,-0.0459 0.84216,0.114906 1.262887,0.168919 0.445262,0.05716 0.898169,0.02275 1.338435,-0.05586 0.600657,-0.107246 1.189374,-0.280765 1.754469,-0.5086 0.758029,-0.305623 1.494002,-0.662375 2.242267,-0.990571 0.63583,-0.278881 1.26806,-0.577295 1.937131,-0.766509 0.217874,-0.06162 0.442186,-0.144931 0.669519,-0.120739 0.224481,0.02389 0.427484,0.136871 0.615788,0.253915 0.218778,0.135986 0.411625,0.307708 0.610184,0.471371 0.292658,0.241224 0.698396,0.29504 0.973743,0.562554 0.288782,0.280566 0.514762,0.618308 0.720771,0.961844 0.338393,0.564296 0.633341,1.155151 0.878241,1.766011 0.0676,0.168616 0.117622,0.344297 0.208013,0.503471 0.230012,0.405039 0.516567,0.773965 0.791552,1.148772 0.24404,0.332628 0.515121,0.649771 0.710642,1.013807 0.459678,0.855866 0.826672,1.75799 1.161947,2.668547 0.263928,0.71679 0.518909,1.436949 0.762628,2.160855 0.26087,0.774849 0.49251,1.563635 0.840621,2.304555 0.172745,0.367671 0.434903,0.702524 0.508528,1.110309 0.07792,0.431576 -0.02218,0.865219 -0.09505,1.289711 -0.05764,0.335751 -0.08565,0.680814 -0.02364,1.019621 0.144041,0.786994 0.494181,1.515441 0.864218,2.21778 0.13243,0.251355 0.25096,0.510411 0.394421,0.755583 0.13788,0.235634 0.403521,0.348818 0.654008,0.423553 0.361668,0.107907 0.74789,0.163132 1.073451,0.367271 0.180522,0.113194 0.30912,0.287002 0.440204,0.450738 0.287262,0.358816 0.506065,0.767773 0.673708,1.194631 0.09934,0.252933 0.206652,0.50374 0.283624,0.764423 0.05732,0.194134 0.07829,0.397184 0.122361,0.594953 0.0088,0.03964 -0.02399,0.19469 -2.93e-4,0.153677 0.04915,-0.08506 -0.109243,-0.09379 -0.167842,-0.101705 -0.07167,-0.0097 -0.143871,-0.0149 -0.216077,-0.01842"
       id="path55"
       inkscape:path-effect="#path-effect57"
       inkscape:original-d="m 3.884064,37.354385 c 0.2893303,0.135139 0.5537983,0.348343 0.8679912,0.405411 0.7283821,0.132299 1.5345222,-0.317683 2.2701375,-0.255257 0.6842939,0.05807 1.6047262,0.39796 2.27014,0.615616 0.53643,0.175467 1.1500473,0.551874 1.6358333,0.855859 0.367497,0.229962 1.936542,2.017559 2.470444,1.981983 0.655758,-0.0437 1.203099,-0.44813 1.819449,-0.540541 0.51284,-0.07689 0.987408,0.146291 1.502295,0.180178 0.913235,0.06011 1.876371,-0.206666 2.720832,-0.510505 1.180227,-0.424651 4.076291,-1.951961 5.007655,-1.951961 0.353726,0 0.949971,0.437793 1.201836,0.675677 0.303566,0.286716 0.702603,0.316696 1.001532,0.585589 0.641501,0.577043 1.465003,2.240494 1.7193,3.00301 0.192706,0.577837 1.331912,1.871845 1.652521,2.477484 0.687448,1.298602 1.231667,2.868602 1.719299,4.264271 0.319353,0.914019 0.600131,1.863395 0.984838,2.747751 0.146743,0.337325 0.396258,0.668531 0.500763,1.021027 0.225851,0.761802 -0.223834,1.578565 -0.100147,2.357361 0.177599,1.118264 0.77978,2.098717 1.251913,3.03304 0.332147,0.6573 1.432298,0.416791 1.969675,1.021022 0.611246,0.68729 0.802433,1.189429 1.11838,2.042049 0.08826,0.238165 0.152456,0.498472 0.183611,0.750753 0.0074,0.05961 -0.04466,0.220337 0,0.180181 0.09971,-0.08966 -0.249979,-0.113781 -0.383919,-0.120121" />
    <path
       style="fill:none;stroke:#000000;stroke-width:0.264583px;stroke-linecap:butt;stroke-linejoin:miter;stroke-opacity:1"
       d="m 37.268446,62.174262 c 0.0381,0.247796 0.229688,0.433326 0.393223,0.607565 0.198211,0.211184 0.38467,0.435128 0.510763,0.700792 0.285883,0.602323 0.49252,1.245624 0.883969,1.796019 1.19959,1.686677 2.632747,3.19143 3.859765,4.85611 0.541096,0.734098 0.761213,1.633091 1.078589,2.473762 0.112203,0.297205 0.186572,0.6213 0.376628,0.876877 0.234563,0.315427 0.590477,0.506391 0.817228,0.836034 0.631654,0.918276 1.253318,1.856924 2.039367,2.64928 0.422227,0.425615 0.930862,0.77111 1.262029,1.283526 0.470233,0.727594 0.693094,1.59755 1.252868,2.270501 0.442757,0.532275 1.168781,0.71457 1.603986,1.25731 0.522287,0.651339 0.932286,1.38206 1.404144,2.06904 0.244445,0.355888 0.515752,0.694143 0.836677,0.987171 1.002204,0.915086 1.987711,1.853103 2.881128,2.876134 0.353042,0.40426 0.66937,0.838939 0.948821,1.298028 0.560902,0.921465 1.089341,1.886653 1.883936,2.634977 0.701315,0.660476 1.510011,1.213753 2.099084,1.988248 0.807329,1.061452 1.302693,2.322971 2.143187,3.36403 0.640835,0.793756 1.423241,1.456222 2.118365,2.199397 0.7959,0.850917 1.223215,1.981047 2.011586,2.831627 0.393109,0.42413 0.905801,0.7078 1.383586,1.02363 0.42763,0.28268 0.904257,0.53708 1.204513,0.96086 0.136948,0.19329 0.237988,0.40866 0.37337,0.60413 0.528783,0.76347 1.293552,1.32915 1.83225,2.0814 0.355432,0.49633 0.521509,1.10784 0.940937,1.56452 0.337936,0.36795 0.864244,0.56413 1.115495,0.99381 0.09107,0.15575 0.05449,0.35361 0.182409,0.50178 0.140621,0.16288 0.416735,0.21629 0.468916,0.43989 0.06289,0.2695 -0.03551,0.54118 -0.104624,0.79879 -0.04308,0.16058 -0.03703,0.32712 0.01122,0.48853 0.210242,0.70333 0.710348,1.27179 0.986643,1.94403 0.192128,0.46746 0.09432,0.98874 0.258304,1.46584 0.255135,0.74231 0.78695,1.3662 0.954711,2.14287 0.23302,1.07879 -0.0087,2.19293 0.186141,3.27588 0.06977,0.38785 0.266821,0.74354 0.278797,1.14557 0.01669,0.56019 -0.354442,1.04497 -0.343903,1.60638 0.01261,0.67164 0.116784,1.3386 0.248391,1.99556 0.07226,0.36072 0.117909,0.7291 0.229872,1.08009 0.184064,0.57702 0.614036,1.10419 1.206263,1.28868 0.117648,0.0366 0.23962,0.0592 0.362537,0.0677"
       id="path59"
       inkscape:path-effect="#path-effect61"
       inkscape:original-d="m 37.268446,62.174262 c 0.02949,0.344771 0.613735,0.75134 0.817914,1.137036 0.318463,0.601583 0.493086,1.290656 0.884688,1.846853 1.210267,1.71895 2.577917,3.205774 3.872584,4.879887 0.794001,1.026711 0.927029,2.211025 1.468919,3.348358 0.147661,0.309914 0.605417,0.539613 0.801222,0.825826 0.639059,0.934132 1.264957,1.808966 2.019752,2.657665 0.320059,0.359876 0.819764,0.7029 1.135071,1.08108 0.636828,0.76382 0.867288,1.921181 1.535684,2.64265 0.410313,0.442891 1.043331,0.642718 1.435528,1.06607 0.638368,0.689073 1.54482,2.455677 2.203368,3.048053 1.085014,0.975987 3.037769,2.822543 3.772432,3.978986 0.579019,0.911445 1.109874,1.966791 1.86953,2.747751 0.646292,0.664416 1.425136,1.174641 2.036442,1.86187 0.891757,1.002506 1.380697,2.313366 2.169986,3.378385 0.654031,0.88251 1.4659,1.63094 2.236753,2.387391 0.831964,0.816425 1.364088,1.977317 2.086528,2.897907 0.593651,0.75647 2.335019,1.4209 2.754217,2.22223 0.482365,0.92207 1.353632,1.61842 2.019752,2.41742 0.350957,0.42096 0.496965,0.97692 0.834605,1.44144 0.321524,0.44234 0.882988,0.83928 1.285303,1.20121 0.08802,0.0792 0.0617,0.32343 0.133533,0.43544 0.127196,0.19833 0.321416,0.24783 0.467384,0.4054 0.247517,0.26719 -0.129458,0.93607 -0.06676,1.24625 0.136331,0.6745 0.672666,1.3802 0.984837,2.01202 0.239469,0.48467 0.114366,0.94622 0.267076,1.45645 0.214513,0.71672 0.718306,1.31191 0.934759,2.04205 0.312579,1.0544 0.0361,2.38702 0.233688,3.45347 0.09273,0.50048 0.283766,0.70098 0.283766,1.21621 0,0.45848 -0.280662,0.89696 -0.333843,1.35135 -0.0749,0.63999 0.266147,2.39796 0.400621,3.03304 0.176951,0.83569 0.784024,1.54765 1.635831,1.60661" />
    <path
       style="fill:none;stroke:#000000;stroke-width:0.264583px;stroke-linecap:butt;stroke-linejoin:miter;stroke-opacity:1"
       d="m 114.40305,127.56068 c -0.14107,-0.26527 -0.35451,-0.53341 -0.33538,-0.84241 0.0162,-0.261 0.21659,-0.45372 0.36724,-0.64844 0.1016,-0.13132 0.16135,-0.29106 0.14391,-0.46534 -0.12059,-1.20476 -0.34691,-2.39534 -0.46146,-3.60143 -0.0917,-0.96536 -0.13713,-1.94599 -0.40852,-2.88207 -0.33878,-1.16854 -0.97809,-2.21497 -1.48681,-3.31228 -0.45664,-0.98498 -0.68872,-2.0566 -1.18898,-3.0263 -0.33361,-0.64666 -0.63716,-1.31931 -1.11436,-1.87847 -0.33461,-0.39208 -0.67015,-0.79285 -0.87771,-1.27267 -0.55752,-1.28884 -0.68616,-2.72289 -1.24852,-4.0057 -0.19744,-0.45038 -0.68958,-0.74618 -0.78111,-1.23533 -0.0706,-0.37715 -0.14243,-0.7547 -0.24216,-1.12603 -0.19423,-0.72321 -0.52576,-1.39809 -0.86903,-2.06011 -0.40302,-0.77725 -0.74694,-1.584703 -1.01566,-2.419266 -0.28409,-0.882298 -0.5088,-1.824294 -1.09449,-2.559508 -0.56741,-0.712268 -1.03807,-1.506272 -1.70187,-2.138752 -0.34254,-0.326377 -0.78798,-0.502911 -1.19231,-0.736373 -0.36819,-0.212594 -0.73294,-0.452738 -0.986926,-0.806298 -1.071309,-1.491303 -1.666494,-3.256236 -2.655162,-4.795905 -0.448194,-0.69798 -1.120278,-1.230557 -1.53103,-1.950344 -0.250631,-0.439197 -0.247754,-0.959336 -0.299757,-1.447716 -0.03846,-0.361222 -0.141324,-0.722568 -0.36984,-1.016533 -0.358915,-0.461712 -0.933702,-0.725867 -1.242137,-1.221677 -0.163383,-0.262639 -0.221287,-0.575854 -0.41806,-0.824334 -0.541335,-0.683582 -1.292932,-1.20757 -1.691571,-1.994519 -0.485006,-0.957446 -0.878628,-1.958068 -1.247907,-2.964365 -0.506298,-1.379679 -0.753877,-2.857096 -1.438925,-4.167463 -0.261071,-0.499379 -0.569236,-0.992144 -1.005085,-1.355569 -0.415066,-0.346096 -0.883048,-0.619714 -1.300508,-0.964282 -0.760598,-0.627792 -1.446218,-1.342968 -2.215441,-1.959424 -0.310182,-0.24858 -0.719282,-0.396239 -0.927168,-0.754382 -0.266335,-0.458839 -0.424199,-0.969932 -0.577188,-1.474855 -0.283318,-0.93506 -0.477348,-1.894249 -0.743044,-2.833928 -0.114418,-0.404659 -0.38326,-0.759487 -0.42168,-1.186934 -0.018,-0.200227 0.105079,-0.367462 0.182035,-0.544382 0.03949,-0.09078 0.107771,-0.251752 0.22902,-0.103746 0.102459,0.12507 -0.123453,0.326696 0.03891,0.390434 0.08927,0.03505 0.185795,0.04635 0.279995,0.06044"
       id="path63"
       inkscape:path-effect="#path-effect65"
       inkscape:original-d="m 114.40305,127.56068 c -0.0272,-0.0648 -0.36136,-0.57374 -0.33384,-0.87087 0.0334,-0.36021 0.54988,-0.67068 0.51746,-1.00601 -0.0818,-0.84573 -0.2275,-1.69762 -0.35054,-2.58259 -0.15561,-1.11925 -0.18411,-2.45289 -0.41729,-3.54355 -0.26628,-1.24545 -0.9512,-2.46487 -1.519,-3.58859 -0.4894,-0.96856 -0.69099,-2.10576 -1.20184,-3.06307 -0.27746,-0.51993 -0.5485,-1.14052 -0.88469,-1.62163 -0.37803,-0.54098 -0.83669,-0.91219 -1.11837,-1.53154 -0.58732,-1.29139 -0.79232,-2.75378 -1.2853,-4.08409 -0.17096,-0.46132 -0.74317,-0.8956 -0.81791,-1.36636 -0.34535,-2.17504 -1.09002,-2.79086 -1.83615,-4.729743 -0.42835,-1.113107 -0.67351,-2.478813 -1.43552,-3.438446 -0.54975,-0.692316 -1.25704,-1.884952 -2.01977,-2.342348 -0.4605,-0.276159 -1.36213,-0.666747 -1.702595,-1.12613 C 98.902117,91.187475 98.295924,89.461334 97.343636,87.890928 96.871815,87.11286 96.273455,86.596886 95.774567,85.878912 95.30277,85.199928 95.600648,84.141708 95.156961,83.476506 94.804149,82.947546 94.2665,82.646154 93.85497,82.170195 93.68905,81.978298 93.631082,81.605339 93.471049,81.389412 92.930399,80.659927 92.058364,80.020532 91.651597,79.197218 91.220731,78.325135 90.87143,77.403102 90.516537,76.494509 89.831478,74.740626 89.546241,72.434997 88.229696,71.014015 87.87272,70.628721 87.308919,70.328641 86.894328,69.992993 86.101813,69.351387 85.328277,68.629352 84.557422,67.935929 84.293677,67.69868 83.90665,67.545801 83.67274,67.27527 83.107394,66.621416 82.497201,63.721164 82.253893,62.84583 82.092222,62.264199 81.605262,61.739284 81.93675,61.209192 c 0.06907,-0.110445 0.197221,-0.395237 0.267065,-0.285285 0.211508,0.332955 -0.300405,0.422678 0.350542,0.510509" />
    <path
       style="fill:none;stroke:#000000;stroke-width:0.264583px;stroke-linecap:butt;stroke-linejoin:miter;stroke-opacity:1"
       d="m 82.554359,61.434418 c -0.363078,-0.279385 -0.656467,-0.635663 -0.955651,-0.979366 -0.526995,-0.605414 -1.045039,-1.233507 -1.697996,-1.709261 -0.289891,-0.211219 -0.618358,-0.368308 -0.968471,-0.453344 -0.304947,-0.07407 -0.623549,-0.141767 -0.878556,-0.339174 -0.374945,-0.290254 -0.61328,-0.716786 -0.776079,-1.155832 -0.151909,-0.409678 -0.242937,-0.855372 -0.500175,-1.213562 -0.189259,-0.263533 -0.50701,-0.420991 -0.643686,-0.723962 -0.242424,-0.537384 -0.387326,-1.113992 -0.666971,-1.636604 -0.720295,-1.346117 -1.666823,-2.561425 -2.299229,-3.957977 -0.11003,-0.242981 -0.181351,-0.501658 -0.290272,-0.744691 -0.242116,-0.540229 -0.727668,-0.927541 -0.949736,-1.481144 -0.4136,-1.031079 -0.459728,-2.172222 -0.919355,-3.188414 -0.09037,-0.199806 -0.197758,-0.394186 -0.355345,-0.550635 -0.397498,-0.394628 -0.864958,-0.707406 -1.300051,-1.057609 -0.348697,-0.280663 -0.69743,-0.584168 -0.903224,-0.991499 -0.324237,-0.641768 -0.289447,-1.393066 -0.565633,-2.049963 -0.181172,-0.43091 -0.530982,-0.794493 -0.600154,-1.266978 -0.05697,-0.389145 0.08777,-0.782761 -0.01709,-1.170373 -0.178023,-0.658051 -0.576381,-1.243979 -0.667461,-1.92852 -0.04666,-0.350719 0.04914,-0.697999 0.144351,-1.03169 0.332927,-1.166781 0.956811,-2.217382 1.471752,-3.308059 0.091,-0.192748 0.221567,-0.373245 0.266591,-0.581554 0.05401,-0.249869 -0.01747,-0.504584 -0.0267,-0.755644 -0.0053,-0.145172 -0.04733,-0.331856 0.06803,-0.436892 0.898574,-0.818154 1.942555,-1.478607 3.077925,-1.917487 0.750698,-0.290184 1.54351,-0.442808 2.328013,-0.616974 0.46414,-0.103043 0.897439,-0.357776 1.380774,-0.357869 0.381246,-7.3e-5 0.705543,0.311713 1.089696,0.251465 0.515115,-0.08079 1.035279,-0.147037 1.538015,-0.285232 0.306612,-0.08428 0.508971,-0.36472 0.810878,-0.46173 0.554978,-0.178327 1.146158,-0.11566 1.715913,-0.07065 0.318606,0.02517 0.63814,0.01747 0.957055,-0.0047 0.7388,-0.05147 1.488912,-0.04447 2.212672,-0.206594 0.340488,-0.07627 0.639756,-0.277043 0.993946,-0.315095 0.427486,-0.04593 0.858758,0.04238 1.252947,0.208698 0.364369,0.153734 0.72654,0.323387 1.122805,0.385414 0.831915,0.130218 1.666472,0.33797 2.511121,0.288267 0.341564,-0.0201 0.664217,-0.147364 0.990536,-0.239516 0.350871,-0.09909 0.717126,-0.223268 1.083921,-0.162664 0.11764,0.01944 0.234659,0.06119 0.31618,0.156982 0.409563,0.48126 0.787098,0.988661 1.175962,1.486549 0.400614,0.512932 0.760587,1.061626 1.21011,1.532536 0.501826,0.525702 0.8317,1.200618 0.981726,1.909309 0.20766,0.98094 0.12406,1.998527 -0.0664,2.974477 -0.09733,0.498762 -0.367994,0.953682 -0.384279,1.472927 -0.02348,0.748708 -0.07988,1.496298 -0.155033,2.24138 -0.05162,0.511744 -0.05748,1.03426 -0.190833,1.531535 -0.120702,0.450089 -0.283728,0.887647 -0.435216,1.328047 -0.163866,0.476385 -0.352636,0.947235 -0.460848,1.439837 -0.170703,0.777076 -0.262902,1.569258 -0.334034,2.360696 -0.09283,1.032913 -0.163529,2.070315 -0.139285,3.107904 0.0084,0.358126 0.04616,0.715979 0.135725,1.0641 0.180521,0.701664 0.460975,1.381364 0.522979,2.111138 0.0896,1.054511 -0.01794,2.126708 0.180467,3.168686 0.07245,0.380494 0.279431,0.721933 0.318109,1.112806 0.04351,0.439682 0.0078,0.905868 0.207786,1.313246 0.344359,0.701422 0.5752,1.452168 0.778953,2.204177 0.407027,1.50225 0.732022,3.028278 0.946207,4.569536 0.06067,0.436606 0.141155,0.872962 0.153673,1.313869 0.01432,0.504535 -0.144759,0.997196 -0.131154,1.500713 0.01388,0.513825 0.172392,1.005928 0.281824,1.504157 0.180484,0.821717 0.425623,1.629394 0.725138,2.415008 0.214334,0.562188 0.412699,1.143747 0.759629,1.637724 0.18247,0.25981 0.350103,0.529459 0.510278,0.803676 0.211362,0.361848 0.337929,0.811966 0.677172,1.05985 0.06932,0.05065 0.276609,0.05325 0.179518,0.183591 -0.04011,0.05384 -0.165135,0.271921 -0.200869,0.117467 -0.04872,-0.210588 -0.05285,-0.428666 -0.07332,-0.643066"
       id="path67"
       inkscape:path-effect="#path-effect69"
       inkscape:original-d="M 82.554359,61.434418 C 81.694543,60.798715 80.473792,58.727429 79.09907,58.33692 78.566959,58.185766 78.263842,58.199728 77.847157,57.766346 77.23706,57.131801 77.229271,56.384472 76.828929,55.664237 c -0.163605,-0.294336 -0.550026,-0.490763 -0.684373,-0.78078 -0.232355,-0.501589 -0.35341,-1.041519 -0.617607,-1.546551 -0.849124,-1.623163 -1.990698,-2.914978 -2.603981,-4.699709 -0.193416,-0.562861 -0.732126,-0.97183 -0.96815,-1.531532 -0.474713,-1.125728 -0.475234,-2.431563 -1.084993,-3.528539 -0.312317,-0.561869 -1.688714,-1.320633 -2.203373,-1.981983 -0.528101,-0.678625 -0.474261,-1.487125 -0.734452,-2.267273 -0.151426,-0.454038 -0.526076,-0.858864 -0.634307,-1.321327 -0.08968,-0.38323 0.0787,-0.79149 -0.01669,-1.18619 -0.193566,-0.801 -0.826889,-1.60338 -0.667697,-2.462461 0.284969,-1.537817 1.215811,-2.966792 1.852845,-4.399413 0.130609,-0.293724 -0.147351,-1.053639 0.06677,-1.246248 1.564249,-1.407133 3.190833,-2.141262 5.308108,-2.507513 0.466291,-0.08066 0.996627,-0.375377 1.468924,-0.375377 0.371126,0 0.664972,0.26917 1.051605,0.255257 0.126516,-0.0046 1.533443,-0.269464 1.619144,-0.300301 0.280999,-0.101109 0.471731,-0.3536 0.76784,-0.450453 0.772292,-0.252607 1.677982,-0.0035 2.453748,-0.06006 0.774608,-0.0565 1.604592,-0.08866 2.370296,-0.21021 0.329822,-0.05236 0.638096,-0.275051 0.95145,-0.315317 1.130742,-0.145299 1.597414,0.444443 2.403671,0.570574 0.807397,0.126308 1.781982,0.320997 2.587294,0.3003 0.592098,-0.01522 1.708216,-0.636329 2.303518,-0.330331 0.150601,0.07741 2.103739,2.706259 2.503839,3.138144 1.218423,1.315215 1.20944,3.155617 0.884682,4.84986 -0.0885,0.461666 -0.383918,0.958242 -0.383918,1.42643 0,0.610878 -0.221173,3.407576 -0.367231,3.903911 -0.234466,0.79675 -0.579292,1.646793 -0.817917,2.462469 -0.3497,1.195353 -0.683538,5.260348 -0.467386,6.426438 0.145073,0.78264 0.506531,1.508413 0.584229,2.312321 0.103827,1.074274 0.0347,2.171716 0.18362,3.243249 0.05112,0.367816 0.267854,0.689451 0.317143,1.081082 0.05499,0.436901 0.0088,0.984467 0.216998,1.396402 0.863629,1.709015 1.684137,5.982367 1.869533,7.927941 0.04631,0.485989 -0.08135,0.977548 -0.116843,1.456465 -0.04068,0.548936 0.150662,1.053372 0.250375,1.576578 0.204672,1.073936 0.953821,3.41009 1.585757,4.294304 0.39728,0.555879 0.67782,1.197049 1.10169,1.741746 0.05233,0.06725 0.23037,0.05098 0.217001,0.135131 -0.0096,0.06046 -0.137639,0.219559 -0.183623,0.240242 -0.07603,0.0342 -0.105611,-0.614799 -0.116843,-0.705705"
       clip-path="url(#clipPath280)" />
    <path
       style="fill:none;stroke:#000000;stroke-width:0.264583px;stroke-linecap:butt;stroke-linejoin:miter;stroke-opacity:1"
       d="m 99.079628,72.195861 c 0.199966,0.345776 0.264889,0.74677 0.323709,1.136163 0.06062,0.401319 0.118856,0.809136 0.283828,1.185244 0.04821,0.109915 0.122798,0.206041 0.214279,0.283811 0.129006,0.10967 0.262876,0.221916 0.340926,0.376464 0.0736,0.145778 0.0966,0.3092 0.1317,0.466862 0.12211,0.547984 0.22193,1.105923 0.4307,1.628719 0.18494,0.463129 0.53925,0.840894 0.69177,1.318598 0.16603,0.520033 0.20653,1.067691 0.27959,1.605724 0.0379,0.279408 0.0699,0.562235 0.15342,0.832067 0.13394,0.432582 0.39416,0.82194 0.47559,1.270486 0.0393,0.216528 0.0337,0.438071 0.03,0.657062 -0.0132,0.780363 -0.10503,1.558574 -0.0974,2.33889 0.001,0.103544 -0.0254,0.214495 0.0136,0.311165 0.18343,0.455609 0.48297,0.850243 0.78567,1.232229 0.23679,0.29881 0.46556,0.60513 0.65574,0.936777 0.38672,0.674369 0.76885,1.351738 1.12419,2.043068 0.21267,0.413754 0.28693,0.87878 0.36272,1.332676 0.0696,0.417012 0.14801,0.836699 0.31525,1.228549 0.66284,1.553033 1.6564,2.936779 2.32664,4.486823 0.562,1.299716 1.09364,2.616787 1.79177,3.852652 0.11282,0.19972 0.24048,0.39121 0.33522,0.60101 0.13992,0.30983 0.25322,0.63722 0.46529,0.90788"
       id="path71"
       inkscape:path-effect="#path-effect73"
       inkscape:original-d="m 99.079628,72.195861 c 0.414097,0.712846 0.2594,1.700736 0.650992,2.405229 0.151672,0.27287 0.47741,0.319577 0.58423,0.78078 0.13872,0.598911 0.25725,1.249029 0.46739,1.831835 0.18459,0.511969 0.57111,0.893858 0.73444,1.441447 0.21476,0.719985 0.21166,1.531205 0.38393,2.267273 0.1056,0.451247 0.45365,0.978186 0.51746,1.456457 0.0814,0.610344 -0.13874,3.051712 -0.0668,3.228234 0.33529,0.822503 0.96575,1.348444 1.38546,2.07208 0.39919,0.688265 0.76891,1.398322 1.15175,2.087091 0.41492,0.74648 0.34538,1.749399 0.66769,2.522524 0.65335,1.567172 1.65158,2.93742 2.32022,4.474488 0.64382,1.480013 1.17599,2.884252 2.01975,4.264281 0.22921,0.37488 0.32701,0.82774 0.61762,1.2012" />
    <path
       style="fill:none;stroke:#000000;stroke-width:0.264583px;stroke-linecap:butt;stroke-linejoin:miter;stroke-opacity:1"
       d="m 110.51383,102.22878 c -0.5537,-0.0503 -1.10427,-0.16996 -1.66142,-0.15045 -0.0785,0.003 -0.0176,0.0853 0.01,0.11689 0.11201,0.12874 0.25694,0.22815 0.35372,0.36942 0.36951,0.53938 0.61992,1.14718 0.96558,1.70131 0.42109,0.67505 0.7,1.42453 0.96551,2.17086 0.25578,0.71899 0.51698,1.44004 0.88587,2.11083 0.56954,1.03564 1.32739,1.94791 2.03012,2.8929 0.26297,0.35363 0.50099,0.72478 0.75279,1.0865 0.21992,0.31592 0.54889,0.5385 0.75182,0.86907 0.13024,0.21216 0.16908,0.46182 0.20923,0.70306 0.0318,0.19083 0.0792,0.37971 0.15993,0.55693 0.37375,0.8202 0.91009,1.54926 1.39385,2.30535 0.2537,0.39652 0.48423,0.80778 0.68521,1.2339 0.66951,1.41949 1.27722,2.8735 2.09042,4.22002 0.26557,0.43974 0.56124,0.86009 0.84303,1.28936 0.28828,0.43915 0.59416,0.86862 0.84504,1.33034 0.0491,0.0903 0.13324,0.17396 0.136,0.27733 0.005,0.18373 -0.0833,0.35357 -0.17884,0.50488 -0.0607,0.0961 -0.12761,0.18823 -0.18752,0.28489"
       id="path75"
       inkscape:path-effect="#path-effect77"
       inkscape:original-d="m 110.51383,102.22878 c -0.55086,-0.0502 -1.09944,-0.15049 -1.65259,-0.15068 -0.19825,-7e-5 0.23795,0.3173 0.35055,0.48048 0.35652,0.51668 0.60077,1.1259 0.93476,1.65165 0.75407,1.18702 1.01549,2.47969 1.58575,3.73875 0.76771,1.69498 2.0628,2.97319 3.05467,4.53454 0.23942,0.37688 0.65938,0.60712 0.85131,1.05106 0.14079,0.32565 0.12042,0.71686 0.26707,1.05105 0.52913,1.20581 1.46352,2.25097 2.03644,3.45346 0.79383,1.66614 1.46599,3.35395 2.50384,4.90992 0.27249,0.40851 1.48561,2.20589 1.48561,2.37238 0,0.29308 -0.22202,0.54567 -0.36724,0.78078" />
    <path
       style="fill:none;stroke:#000000;stroke-width:0.264583px;stroke-linecap:butt;stroke-linejoin:miter;stroke-opacity:1"
       d="m 121.56417,126.10217 c -0.0619,-0.0497 -0.11474,-0.10945 -0.16523,-0.17038 -0.10303,-0.12435 -0.19493,-0.2577 -0.3016,-0.37903 -0.0466,-0.053 -0.0949,-0.10559 -0.15326,-0.14572 -0.0354,-0.0244 -0.0763,-0.045 -0.12034,-0.0451 -0.0431,-1.3e-4 -0.081,0.0264 -0.1083,0.0581 -0.0268,0.0312 -0.049,0.0732 -0.0386,0.11534 0.0102,0.0412 0.0428,0.0721 0.0759,0.0961 0.055,0.0398 0.1166,0.069 0.17838,0.0965 0.13786,0.0614 0.28085,0.1121 0.41311,0.18536 0.0649,0.0359 0.12801,0.0772 0.17873,0.13205 0.038,0.0411 0.062,0.0926 0.0819,0.14412 0.0435,0.11254 0.0585,0.23368 0.064,0.35351 0.008,0.18458 -0.006,0.37037 0.0182,0.554 0.006,0.0441 0.0287,0.17543 0.025,0.13141 -0.004,-0.0457 -0.01,-0.0912 -0.0157,-0.13666 -0.0327,-0.26093 -0.0663,-0.52177 -0.10242,-0.78225 -0.009,-0.067 -0.018,-0.13399 -0.0286,-0.20076 0,0 -0.001,-0.007 -0.001,-0.007 z"
       id="path79"
       inkscape:path-effect="#path-effect81"
       inkscape:original-d="m 121.56417,126.10217 c -0.28468,-0.22522 -0.62881,-0.96035 -0.85403,-0.67567 -0.22523,0.28468 0.67767,0.35839 0.85403,0.67567 0.18393,0.3309 0.054,0.75927 0.1475,1.12613 0.01,0.0373 -0.13799,-1.0888 -0.1475,-1.12613 z" />
    <path
       style="fill:none;stroke:#000000;stroke-width:0.264583px;stroke-linecap:butt;stroke-linejoin:miter;stroke-opacity:1"
       d="m 158.99067,126.6277 c -0.17038,-0.83961 -0.0884,-1.70728 0.0929,-2.53939 0.12375,-0.56793 0.32344,-1.11729 0.43697,-1.68703 0.17743,-0.89041 0.20696,-1.80137 0.22521,-2.70585 0.0178,-0.88033 -0.15327,-1.77145 0.0351,-2.64321 0.061,-0.28234 0.18102,-0.54545 0.25135,-0.82631 0.0579,-0.23122 0.0605,-0.48843 0.18683,-0.69142 0.10145,-0.16298 0.36806,-0.1681 0.40749,-0.37829 0.0935,-0.49813 0.23991,-0.99814 0.21994,-1.50466 -0.0204,-0.51617 -0.11525,-1.02613 -0.16181,-1.5401 -0.0308,-0.34012 -0.13999,-0.69433 -0.0471,-1.02516 0.0409,-0.1458 0.12437,-0.27622 0.18854,-0.41347 0.47169,-1.00886 0.69311,-2.1223 0.71186,-3.23292 0.0119,-0.70501 -0.007,-1.41529 -0.12846,-2.10952 -0.10963,-0.62742 -0.50676,-1.15157 -0.91602,-1.61996 -0.50502,-0.57799 -1.08406,-1.11187 -1.43175,-1.8081 -0.24935,-0.49931 -0.27962,-1.0659 -0.32954,-1.61124 -0.0228,-0.24853 -0.0758,-0.494331 -0.18165,-0.722178 -0.12548,-0.27003 -0.22999,-0.554799 -0.22699,-0.861169 0.0101,-1.025434 0.15486,-2.063069 -0.046,-3.079447 -0.15022,-0.760236 -0.58551,-1.42305 -1.06214,-2.019495 -0.58346,-0.730135 -1.24268,-1.419468 -1.63973,-2.278576 -0.58177,-1.258787 -1.16886,-2.517254 -1.65332,-3.81798 -0.2264,-0.607867 -0.35446,-1.245538 -0.46531,-1.883233 -0.15024,-0.864286 -0.22694,-1.770998 -0.63518,-2.555996 -0.17649,-0.339373 -0.43688,-0.621887 -0.63053,-0.952901 -1.23331,-2.10811 -2.80804,-4.007733 -3.88555,-6.208366 -0.55166,-1.126674 -0.90332,-2.343818 -1.0796,-3.588788 -0.13376,-0.944679 -0.59795,-1.798414 -1.09336,-2.599243 -0.39531,-0.639012 -0.86328,-1.240533 -1.16719,-1.929283 -0.3004,-0.680787 -0.33444,-1.434422 -0.4813,-2.15492 -0.0642,-0.314868 -0.18708,-0.612936 -0.34323,-0.894908 -0.11103,-0.200499 -0.26639,-0.385593 -0.32062,-0.609814 -0.0591,-0.244493 0.0708,-0.50064 -0.0472,-0.739953 -0.16593,-0.336654 -0.48883,-0.582335 -0.57902,-0.96074 -0.0624,-0.261728 -0.11736,-0.523886 -0.17255,-0.788093 -0.10623,-0.50857 -0.0561,-1.031919 -0.0464,-1.546886 0.008,-0.404308 0.0884,-0.835609 -0.0656,-1.212635 -0.0923,-0.225847 -0.36526,-0.278731 -0.52762,-0.438116 -0.14399,-0.141353 -0.2264,-0.33327 -0.30816,-0.514461 -0.24979,-0.553555 -0.35118,-1.160075 -0.3822,-1.764387 -0.0597,-1.163494 -0.19239,-2.327932 -0.14615,-3.492058 0.006,-0.141489 0.24844,-0.02168 0.32473,0.02592 0.20222,0.126166 0.35232,0.317197 0.545,0.455707"
       id="path83"
       inkscape:path-effect="#path-effect85"
       inkscape:original-d="m 158.99067,126.6277 c -0.28402,-1.45618 0.10692,-2.63454 0.46739,-3.96398 0.22537,-0.83118 0.24328,-1.97925 0.28376,-2.85286 0.0453,-0.97628 -0.22117,-2.18158 0.15024,-3.12312 0.15234,-0.38622 0.17208,-0.70024 0.30045,-1.0961 0.073,-0.22518 0.38821,-0.2001 0.43399,-0.43544 0.0888,-0.45627 0.16866,-0.98486 0.217,-1.44144 0.0396,-0.37409 -0.33467,-2.41153 -0.18361,-2.70271 0.94063,-1.81313 0.99559,-3.55809 0.76784,-5.55557 -0.17734,-1.55545 -2.05413,-2.43763 -2.50382,-3.90391 -0.16722,-0.54523 -0.14034,-1.01577 -0.2337,-1.561563 -0.0713,-0.416584 -0.36722,-0.736214 -0.36722,-1.186191 0,-1.02993 0.17335,-2.24722 -0.0668,-3.273282 -0.39012,-1.666952 -1.95794,-2.641343 -2.65405,-4.14415 -0.55827,-1.205241 -1.57839,-3.353578 -1.90292,-4.579588 -0.31354,-1.184484 -0.35872,-2.543305 -0.85129,-3.678688 -0.13075,-0.301381 -0.40145,-0.567708 -0.56754,-0.855855 -1.88836,-3.275957 -4.58166,-5.993249 -5.04104,-9.849874 -0.20505,-1.721535 -1.45219,-3.061372 -2.22006,-4.519531 -0.40154,-0.762523 -0.37102,-1.869172 -0.651,-2.687693 -0.12167,-0.35574 -0.35877,-0.651967 -0.51746,-0.990994 -0.10914,-0.233177 0.0249,-0.537197 -0.0334,-0.720719 -0.0946,-0.297847 -0.38904,-0.548434 -0.53416,-0.825829 -0.13612,-0.260215 -0.14359,-0.647266 -0.23369,-0.930933 -0.22033,-0.693566 0.0445,-2.036903 -0.13354,-2.837842 -0.0566,-0.254616 -0.47796,-0.335745 -0.61761,-0.555559 -0.33278,-0.52383 -0.53339,-1.214411 -0.58422,-1.831837 -0.0453,-0.549833 -0.18632,-3.901728 -0.16693,-3.903911 0.33872,-0.03808 0.59024,0.342985 0.868,0.540541" />
    <path
       style="fill:none;stroke:#000000;stroke-width:0.264583px;stroke-linecap:butt;stroke-linejoin:miter;stroke-opacity:1"
       d="m 142.41531,53.159069 c -0.67709,0.338655 -1.308,0.771491 -2.01907,1.040267 -0.0664,0.02511 -0.13473,0.09614 -0.20097,0.07056 -0.0473,-0.01826 -0.0592,-0.08265 -0.0729,-0.127103 -0.0886,-0.287425 -0.14509,-0.583639 -0.19992,-0.878941 -0.17898,-0.963954 -0.33005,-1.93332 -0.44706,-2.906651 -0.0534,-0.443945 -0.11931,-0.88799 -0.13012,-1.335286 -0.003,-0.133188 0.001,-0.266623 -0.0152,-0.39937 -0.0514,-0.419308 -0.18316,-0.823523 -0.32437,-1.219868 -0.2254,-0.632629 -0.49888,-1.247217 -0.7138,-1.883678 -0.0601,-0.178125 -0.11055,-0.360368 -0.13122,-0.547941 -0.0459,-0.416748 0.0294,-0.841112 -0.0571,-1.253999 -0.0394,-0.188219 -0.0961,-0.372427 -0.15216,-0.556191 -0.33908,-1.110811 -0.75426,-2.197444 -1.22298,-3.258539 -0.10161,-0.230027 -0.27174,-0.418461 -0.42806,-0.611962 -0.15328,-0.189742 -0.29446,-0.393172 -0.37956,-0.624599 -0.20428,-0.555517 -0.39062,-1.12337 -0.69468,-1.635064 -0.084,-0.141427 -0.18488,-0.271559 -0.2845,-0.402243 -0.15937,-0.209067 -0.26761,-0.451152 -0.35978,-0.695887 -0.075,-0.199016 -0.16057,-0.39363 -0.25073,-0.586408 -0.14333,-0.306461 -0.27921,-0.624216 -0.32104,-0.963021 -0.0298,-0.241685 0.0142,-0.486144 0.0925,-0.714832 0.10827,-0.316231 0.24705,-0.620917 0.36104,-0.935052 0.0878,-0.24208 0.17392,-0.484817 0.25838,-0.728103 0.10074,-0.290173 0.2313,-0.579568 0.25047,-0.886731 0.007,-0.119373 -0.0536,-0.228932 -0.0576,-0.347652 -0.002,-0.05611 0.0734,-0.07818 0.11002,-0.03935 0.0433,0.04586 0.0566,0.111424 0.096,0.160044"
       id="path87"
       inkscape:path-effect="#path-effect89"
       inkscape:original-d="m 142.41531,53.159069 c -0.74001,0.370274 -1.43272,0.856166 -2.22004,1.110824 -0.18128,0.05863 -0.87077,-4.54388 -0.85131,-5.375386 0.0223,-0.954217 -0.81957,-2.554843 -1.11837,-3.588599 -0.17154,-0.593468 0.006,-1.125659 -0.15023,-1.711714 -0.32861,-1.231601 -0.87251,-2.474037 -1.33538,-3.663669 -0.15651,-0.402252 -0.62922,-0.752036 -0.80123,-1.216219 -0.25524,-0.688784 -0.48575,-1.447006 -0.95145,-2.027031 -0.33778,-0.420711 -0.38532,-0.78641 -0.61761,-1.261268 -0.67827,-1.386573 -0.3029,-1.532822 0.18361,-2.942948 0.15114,-0.438052 0.33216,-0.891828 0.41731,-1.351356 0.0255,-0.137793 -0.139,-0.402556 0,-0.420421 0.0776,-0.01 0.10015,0.120121 0.15022,0.180182" />
    <path
       style="fill:none;stroke:#000000;stroke-width:0.264583px;stroke-linecap:butt;stroke-linejoin:miter;stroke-opacity:1"
       d="m 158.99067,126.6277 c -1.01259,0.1186 -2.58016,1.26829 -3.03798,0.3559 -0.0438,-0.0872 0.0655,-0.21136 0.0667,-0.33495 0.003,-0.30644 -0.1019,-0.59981 -0.10213,-0.90801 -5.9e-4,-0.80347 0.44651,-1.54522 0.3797,-2.35277 -0.0215,-0.25964 -0.0923,-0.51116 -0.12586,-0.76976 -0.0728,-0.56168 -0.051,-1.14004 -0.20814,-1.68694 -0.12722,-0.44264 -0.3504,-0.86493 -0.35814,-1.33665 -0.0112,-0.67972 0.27977,-1.34148 0.17077,-2.0227 -0.0636,-0.39724 -0.22782,-0.79365 -0.16518,-1.19831 0.0356,-0.23003 0.18425,-0.41883 0.30709,-0.60908 0.0997,-0.15447 0.16644,-0.32662 0.18842,-0.51136 0.0743,-0.6249 -0.0594,-1.26173 0.0971,-1.88103 0.12794,-0.50628 0.33317,-0.99326 0.38917,-1.51779 0.12875,-1.20596 -0.11714,-2.40897 -0.19192,-3.61318 -0.02,-0.32191 -0.2813,-0.5453 -0.41181,-0.82154 -0.24921,-0.52746 -0.27543,-1.11883 -0.44094,-1.67368 -0.28848,-0.96709 -0.0245,-2.00888 -0.30114,-2.97305 -0.16915,-0.58946 -0.37527,-1.16826 -0.60189,-1.73775 -0.16526,-0.41529 -0.33016,-0.83243 -0.54168,-1.227377 -0.0808,-0.150866 -0.25684,-0.195327 -0.3826,-0.300217 -0.23221,-0.193671 -0.29482,-0.510525 -0.33417,-0.794253 -0.0557,-0.401642 -0.0847,-0.812521 -0.25166,-1.191764 -1.04527,-2.374232 -2.25316,-4.6738 -3.28823,-7.052176 -0.35842,-0.823571 -0.67485,-1.672532 -0.82915,-2.56236 -0.16949,-0.977428 -0.26703,-1.984328 -0.65793,-2.905381 -0.10854,-0.255744 -0.24438,-0.505523 -0.4584,-0.69145 -0.31905,-0.277176 -0.73413,-0.483331 -0.91292,-0.886332 -0.26168,-0.589842 -0.12777,-1.278853 -0.41609,-1.860653 -0.32235,-0.650475 -0.84939,-1.169523 -1.20625,-1.797516 -0.35154,-0.618626 -0.57765,-1.296326 -0.81048,-1.965129 -0.20072,-0.576573 -0.14832,-1.198429 -0.30713,-1.785963 -0.19332,-0.715195 -0.59773,-1.344555 -0.96386,-1.984124 -0.18986,-0.331656 -0.19332,-0.7295 -0.3768,-1.067109 -0.39021,-0.71798 -0.84074,-1.400892 -1.25676,-2.103819 -0.35207,-0.594876 -0.7033,-1.192793 -0.98592,-1.825325 -0.14848,-0.332316 -0.16986,-0.701263 -0.18078,-1.059352 -0.0446,-1.461638 0.48759,-2.88048 0.39346,-4.342557 -0.0347,-0.539147 -0.20008,-1.059102 -0.22071,-1.601599 -0.0328,-0.862056 -0.0343,-1.739016 -0.29326,-2.574173 -0.0896,-0.288955 -0.0462,-0.612991 -0.16845,-0.887747 -0.0366,-0.08219 -0.13156,-0.269378 0.0597,-0.21528 0.24503,0.06931 0.46014,0.210769 0.69195,0.311744"
       id="path91"
       inkscape:path-effect="#path-effect93"
       inkscape:original-d="m 158.99067,126.6277 c -1.01266,0.11863 -2.01987,0.30114 -3.03798,0.3559 -0.0671,0.004 0.0355,-0.12962 0.0501,-0.19519 0.0463,-0.20831 -0.0123,-0.44192 -0.0501,-0.64565 -0.20295,-1.0953 0.54342,-1.99177 0.30047,-3.04805 -0.14884,-0.64711 -0.12271,-1.33655 -0.25039,-1.997 -0.0766,-0.39636 -0.29192,-0.77965 -0.36723,-1.1862 -0.13879,-0.74919 0.23823,-1.51538 0.15023,-2.26727 -0.0433,-0.36993 -0.27045,-1.01192 -0.15023,-1.38138 0.0638,-0.19595 0.38146,-0.59815 0.434,-0.81081 0.12636,-0.51154 2.5e-4,-1.18826 0.0668,-1.72674 0.0732,-0.59294 0.35263,-1.11117 0.434,-1.69669 0.17113,-1.23145 0.0107,-2.65053 -0.18361,-3.87389 -0.0489,-0.30769 -0.32043,-0.53841 -0.434,-0.81081 -0.20185,-0.48417 -0.21806,-1.03423 -0.38392,-1.53154 -0.3142,-0.94211 -0.095,-2.05885 -0.31715,-3.01802 -0.0994,-0.42914 -0.96616,-2.851087 -1.21853,-3.078083 -0.0784,-0.07055 -0.35534,-0.165693 -0.48407,-0.420421 -0.25011,-0.494919 -0.14204,-1.153509 -0.36723,-1.666671 -1.00907,-2.299425 -2.14082,-4.543822 -3.18821,-6.831848 -0.34067,-0.744186 -0.75942,-1.747063 -0.91807,-2.567573 -0.21648,-1.119536 -0.32467,-2.566088 -0.88469,-3.573581 -0.30114,-0.541774 -1.02066,-0.68576 -1.25191,-1.351354 -0.19171,-0.551805 -0.10473,-1.21584 -0.36723,-1.741742 -0.2815,-0.563978 -0.71701,-1.059497 -1.0683,-1.576586 -0.41027,-0.603924 -0.66153,-1.431811 -0.91806,-2.102101 -0.22996,-0.600842 -0.15237,-1.117708 -0.30047,-1.726732 -0.18729,-0.770157 -0.5394,-1.434322 -0.98484,-2.102106 -0.17617,-0.264102 -0.19175,-0.683848 -0.33384,-0.975979 -0.4511,-0.927463 -2.28409,-3.57174 -2.42037,-4.42944 -0.27201,-1.711881 0.4058,-3.286541 0.33384,-4.969981 -0.0219,-0.512628 -0.19348,-0.994063 -0.217,-1.501503 -0.0418,-0.901231 -0.002,-1.827463 -0.28376,-2.67268 -0.0867,-0.260064 -0.12394,-0.59054 -0.16693,-0.870871 -0.0153,-0.09955 -0.13199,-0.32077 -0.0334,-0.300299 0.27281,0.05663 0.51244,0.218942 0.76784,0.330329" />
    <path
       style="fill:none;stroke:#000000;stroke-width:0.264583px;stroke-linecap:butt;stroke-linejoin:miter;stroke-opacity:1"
       d="m 140.94637,58.665138 c -0.54724,-0.35484 -1.1833,-0.59754 -1.64105,-1.067049 -0.13361,-0.137043 -0.19901,-0.324192 -0.248,-0.504783 -0.12353,-0.455384 -0.16715,-0.927215 -0.21565,-1.395127 -0.0384,-0.370119 -0.0555,-0.743601 -0.12521,-1.109535 -0.0854,-0.448248 -0.3023,-0.853936 -0.47523,-1.271778 -0.12671,-0.306169 -0.2124,-0.630861 -0.22831,-0.963639 -0.0181,-0.378691 0.0331,-0.77279 -0.0985,-1.135002 -0.12326,-0.339238 -0.27142,-0.668875 -0.42023,-0.997462 -0.29628,-0.654231 -0.57992,-1.3163 -0.93019,-1.943479 -0.0652,-0.116834 -0.11323,-0.248759 -0.20798,-0.344095 -0.22309,-0.224467 -0.52886,-0.357429 -0.7155,-0.619927 -0.17172,-0.241518 -0.21375,-0.544296 -0.24428,-0.831515 -0.0281,-0.264339 -0.0576,-0.530382 -0.14138,-0.784834 -0.2741,-0.83301 -0.74984,-1.590236 -0.95974,-2.445446 -0.0498,-0.202862 -0.087,-0.411262 -0.0686,-0.622236 0.025,-0.28707 -0.0245,-0.573973 -0.0784,-0.854758 -0.17678,-0.92087 -0.48337,-1.809142 -0.77248,-2.698851 -0.19069,-0.586836 -0.56898,-1.082917 -0.87041,-1.614036 -0.45927,-0.809238 -0.74728,-1.7083 -0.89115,-2.626224 -0.0738,-0.470529 -0.0962,-0.946796 -0.12039,-1.422118 -0.0418,-0.821903 -0.21125,-1.635433 -0.18731,-2.461185 0.0104,-0.358787 0.0867,-0.712438 0.19891,-1.052609 0.26612,-0.806671 0.65857,-1.562272 0.92909,-2.369216 0.13209,-0.394017 0.37454,-0.739791 0.63679,-1.057605 0.24856,-0.301224 0.53779,-0.565087 0.80602,-0.848357 0.19838,-0.209505 0.34292,-0.465031 0.45146,-0.731738 0.0224,-0.05499 -5.5e-4,-0.02376 -0.0172,0.0075 -0.0951,0.178704 -0.1602,0.371057 -0.24231,0.555655"
       id="path95"
       inkscape:path-effect="#path-effect97"
       inkscape:original-d="m 140.94637,58.665138 c -0.5397,-0.34908 -1.12631,-0.634576 -1.6191,-1.047239 -0.47576,-0.398404 -0.46997,-2.361086 -0.61762,-3.063073 -0.14544,-0.691552 -0.55365,-1.211702 -0.66768,-1.906908 -0.0757,-0.461658 0.0178,-0.946491 -0.11684,-1.396402 -0.126,-0.42097 -1.36986,-3.119218 -1.56907,-3.318327 -0.27012,-0.269984 -0.62012,-0.385646 -0.80123,-0.765765 -0.1936,-0.406337 -0.13691,-0.937033 -0.26708,-1.366369 -0.26997,-0.890517 -0.81244,-1.732198 -1.01821,-2.657666 -0.12058,-0.542306 0.021,-0.398547 -0.0668,-1.036037 -0.13297,-0.966128 -0.52338,-2.060977 -0.81792,-3.00301 -0.19206,-0.614259 -0.59313,-1.127133 -0.90138,-1.681681 -0.67828,-1.220288 -0.94203,-2.502416 -0.98483,-3.888899 -0.0287,-0.929841 -0.28007,-1.98175 -0.16693,-2.897904 0.12394,-1.003499 0.79877,-2.057768 1.085,-3.048056 0.20267,-0.701183 0.90246,-1.426453 1.41883,-1.921924 0.36348,-0.348766 0.53332,-0.86783 0.50077,-0.810814 -0.10863,0.190279 -0.17805,0.400401 -0.26708,0.600601" />
    <path
       style="fill:none;stroke:#000000;stroke-width:0.264583px;stroke-linecap:butt;stroke-linejoin:miter;stroke-opacity:1"
       d="m 125.73983,126.61474 c -0.059,-1.9469 0.04,-3.89458 0.20535,-5.83272 0.0475,-0.55643 0.15027,-1.11719 0.0597,-1.67668 -0.0545,-0.33679 -0.26698,-0.61499 -0.47235,-0.87588 -0.18559,-0.23576 -0.36071,-0.48395 -0.46458,-0.76999 -0.20543,-0.56573 -0.37064,-1.15677 -0.71536,-1.65988 -0.1236,-0.18039 -0.27106,-0.34475 -0.45247,-0.47043 -0.22446,-0.15551 -0.46125,-0.30387 -0.62442,-0.53199 -0.62624,-0.87554 -1.06912,-1.87739 -1.78843,-2.68684 -0.21871,-0.24612 -0.46174,-0.47263 -0.74324,-0.64703 -0.40286,-0.24959 -0.86115,-0.43972 -1.1701,-0.81253 -0.59538,-0.71844 -1.07033,-1.52546 -1.5435,-2.32684 -0.27256,-0.46162 -0.52425,-0.93616 -0.81823,-1.38463 -0.95354,-1.45466 -2.34044,-2.56024 -3.30553,-4.00571 -0.43116,-0.64577 -0.65973,-1.3943 -0.94895,-2.10796 -0.19829,-0.48928 -0.43457,-0.969132 -0.77155,-1.38122 -0.29879,-0.365386 -0.66339,-0.701102 -0.8291,-1.151442 -0.0818,-0.222253 -0.11929,-0.457805 -0.15788,-0.69053 -0.14274,-0.860757 -0.14074,-1.748842 -0.39243,-2.588094 -0.20389,-0.679857 -0.66674,-1.235298 -1.00783,-1.846977 -0.0954,-0.17117 -0.21418,-0.335605 -0.26551,-0.52621 -0.0666,-0.247294 -0.0577,-0.516348 -0.19428,-0.743904 -0.25136,-0.418934 -0.68318,-0.692664 -0.91194,-1.131467 -0.34072,-0.653549 -0.55082,-1.372543 -0.964,-1.988963 -0.5769,-0.860677 -1.2607,-1.646807 -1.79777,-2.534786 -0.18702,-0.309213 -0.33917,-0.639195 -0.44347,-0.986539 -0.27548,-0.917392 -0.4746,-1.858117 -0.58935,-2.807115 -0.0618,-0.511088 0.14072,-1.007728 0.11262,-1.519227 -0.008,-0.142332 -0.0622,-0.27537 -0.13595,-0.396695 -0.2746,-0.451566 -0.62773,-0.862763 -0.82001,-1.358103 -0.0523,-0.134652 -0.0994,-0.29152 -0.0236,-0.432795 0.13086,-0.243975 0.40464,-0.379748 0.67585,-0.391357 0.25906,-0.01109 0.52169,0.06733 0.73361,0.21638"
       id="path99"
       inkscape:path-effect="#path-effect101"
       inkscape:original-d="m 125.73983,126.61474 c -0.058,-1.94881 0.10972,-3.79477 0.20031,-5.75077 0.0224,-0.48333 0.20592,-1.27107 0.0334,-1.8919 -0.14369,-0.51699 -0.67735,-0.90835 -0.868,-1.4114 -0.27407,-0.72318 -0.40245,-1.37084 -0.93476,-1.997 -0.23245,-0.27345 -0.63287,-0.40581 -0.8513,-0.70572 -0.75368,-1.03478 -1.21078,-2.20489 -2.16999,-3.0931 -0.48684,-0.4508 -1.15496,-0.60945 -1.58575,-1.12612 -0.79444,-0.95281 -1.52639,-2.32293 -2.16999,-3.40842 -0.93497,-1.57692 -2.42841,-2.74057 -3.45528,-4.24926 -0.68774,-1.01044 -0.84626,-2.14885 -1.46891,-3.153156 -0.3401,-0.548553 -1.01625,-1.07279 -1.16846,-1.711714 -0.23558,-0.98891 -0.22186,-2.027574 -0.46738,-3.003016 -0.21353,-0.848325 -0.87151,-1.564637 -1.25192,-2.342343 -0.11837,-0.242004 -0.0757,-0.545684 -0.2003,-0.795798 -0.21083,-0.423055 -0.67748,-0.708326 -0.90138,-1.111112 -0.32941,-0.592632 -0.53403,-1.289045 -0.88469,-1.876885 -0.57128,-0.957699 -1.98144,-2.491968 -2.32021,-3.558567 -0.31366,-0.987584 -0.44569,-1.910101 -0.6343,-2.927932 -0.10218,-0.551397 0.22187,-1.260163 0.0668,-1.771774 -0.0956,-0.315323 -1.14503,-1.565706 -0.96815,-1.936943 0.26378,-0.553636 0.99354,-0.539099 1.43553,-0.225224" />
    <path
       style="fill:none;stroke:#000000;stroke-width:0.264583px;stroke-linecap:butt;stroke-linejoin:miter;stroke-opacity:1"
       d="m 105.17513,78.566586 c -0.45563,-0.192163 -0.8254,-0.554877 -1.06236,-0.98591 -0.33208,-0.604064 -0.45836,-1.291874 -0.56868,-1.964623 -0.0672,-0.409844 -0.0326,-0.852346 -0.2094,-1.22839 -0.0686,-0.145951 -0.19746,-0.250144 -0.30395,-0.367883 -0.10393,-0.114905 -0.17814,-0.25355 -0.213,-0.406829 -0.12378,-0.544329 -0.15663,-1.105377 -0.30852,-1.644671 -0.25571,-0.907937 -0.62554,-1.783045 -0.79999,-2.714331 -0.17075,-0.911546 -0.26735,-1.848231 -0.61847,-2.715216 -0.41394,-1.022093 -1.08651,-1.913533 -1.536118,-2.917093 -0.206575,-0.461095 -0.312009,-0.957421 -0.497562,-1.427099 -0.202798,-0.513329 -0.319768,-1.056138 -0.388306,-1.60265 -0.05957,-0.475021 -0.132775,-0.948057 -0.208637,-1.420757 -0.164215,-1.023231 -0.300862,-2.057711 -0.262142,-3.096733 0.02621,-0.703334 0.09011,-1.408299 0.237771,-2.096046 0.12262,-0.571101 0.476983,-1.065528 0.58534,-1.638903 0.0776,-0.410641 -0.01435,-0.839523 0.123984,-1.242697 0.131516,-0.383298 0.345837,-0.743556 0.376145,-1.158264 0.09874,-1.351035 -0.301322,-2.686568 -0.201128,-4.035053 0.0451,-0.607042 0.374071,-1.172302 0.334612,-1.785122 -0.05522,-0.857518 -0.212409,-1.704295 -0.393234,-2.543255 -0.124146,-0.575991 -0.231932,-1.16646 -0.169199,-1.758189 0.08326,-0.785384 0.412167,-1.515099 0.725007,-2.232097 0.142669,-0.326983 0.157918,-0.688651 0.159305,-1.039985 0.0012,-0.296138 0.03945,-0.590888 0.114372,-0.878293 0.39424,-1.512427 1.12538,-2.917836 1.44907,-4.451563 0.1109,-0.525467 0.14393,-1.063194 0.14545,-1.60032 0.002,-0.629557 0.0722,-1.269242 -0.0684,-1.889813 -0.0657,-0.28995 -0.21148,-0.561352 -0.4298,-0.767697 -0.22192,-0.209747 -0.50437,-0.342272 -0.73402,-0.541033 -0.10574,-0.09152 0.11035,-0.129704 0.19205,-0.105154 0.15654,0.04704 0.2927,0.141333 0.44017,0.209117"
       id="path111"
       inkscape:path-effect="#path-effect113"
       inkscape:original-d="m 105.17513,78.566586 c -1.55796,-0.678154 -1.52514,-2.694538 -1.83622,-4.163568 -0.0341,-0.161039 -0.42591,-0.41048 -0.50077,-0.70571 -0.13009,-0.513085 -0.15052,-1.04689 -0.28376,-1.56156 -0.23191,-0.895797 -0.61382,-1.747338 -0.80123,-2.657666 -0.17755,-0.862465 -0.26289,-1.811051 -0.55084,-2.642647 -0.38414,-1.109401 -1.11639,-2.119469 -1.619145,-3.153159 -0.207936,-0.427522 -0.303824,-0.935495 -0.484077,-1.381387 -0.413123,-1.021948 -0.397433,-1.647232 -0.567534,-2.68769 -0.354232,-2.166761 -0.492709,-3.271285 -0.116842,-5.52554 0.09806,-0.588132 0.432469,-1.090433 0.584229,-1.651654 0.110977,-0.410408 2.64e-4,-0.841933 0.116843,-1.246251 0.115051,-0.39919 0.367201,-0.76545 0.400613,-1.186185 0.110442,-1.390642 -0.245848,-2.631469 -0.200308,-4.024034 0.02122,-0.64901 0.386937,-1.307338 0.333846,-1.951956 -0.26548,-3.223501 -1.22551,-3.462917 0.133538,-6.36638 0.308047,-0.658109 0.106873,-1.159357 0.267067,-1.831835 0.4734,-1.987188 1.67547,-3.906843 1.63584,-6.081096 -0.0145,-0.797899 0.15189,-1.916525 -0.30046,-2.567572 -0.28725,-0.413441 -0.99903,-0.75526 -0.96815,-0.810814 0.11085,-0.199382 0.45964,0.05658 0.66769,0.150152" />
    <path
       style="fill:none;stroke:#000000;stroke-width:0.264583px;stroke-linecap:butt;stroke-linejoin:miter;stroke-opacity:1"
       d="m 60.423287,31.92545 c 0.104771,1.410219 0.568571,2.761305 1.085801,4.065122 0.13402,0.337833 0.23289,0.691061 0.397398,1.015449 0.343378,0.677096 0.887087,1.244373 1.119731,1.98052 0.189902,0.600901 0.304035,1.236977 0.656918,1.776658 0.583308,0.892082 1.066151,1.852256 1.711776,2.700534 0.274252,0.360336 0.66482,0.625031 0.864891,1.046771 0.449637,0.947813 0.740795,1.979287 1.364503,2.837909 0.640678,0.881983 1.51993,1.599683 1.98157,2.602246 0.436756,0.948522 0.629854,2.003176 1.201175,2.8917 0.420255,0.653585 1.081063,1.087614 1.696107,1.536986 0.404156,0.29529 0.767316,0.644601 1.075278,1.03995 0.377231,0.484273 0.736402,0.982763 1.068149,1.4989 0.403177,0.62727 0.501586,1.385358 0.607339,2.108044 0.09261,0.632865 0.125086,1.293516 0.392882,1.88129 0.288963,0.634232 0.859126,1.069315 1.392561,1.490116 0.308701,0.243519 0.664766,0.447569 0.899879,0.764579 0.286413,0.38618 0.378138,0.870906 0.49372,1.326589 0.109133,0.430257 0.310673,0.828468 0.508935,1.222682 0.273022,0.542863 0.542288,1.106527 0.964257,1.546134 0.319458,0.332811 0.801842,0.406376 1.237396,0.464314 0.662948,0.08819 1.366902,0.129688 1.948444,0.497846 0.526454,0.333283 0.803182,0.938214 0.915119,1.533274 0.186715,0.992585 0.02336,2.032046 0.338352,3.003475 0.248397,0.766053 0.883702,1.302633 1.309484,1.963169 0.525248,0.814842 0.631558,1.837046 1.20595,2.621126 0.670206,0.914872 1.473992,1.730318 2.041671,2.722155 1.210668,2.115254 2.187061,4.361963 3.521296,6.406762 0.906762,1.38967 2.044221,2.61691 3.3136,3.68882 0.854669,0.721714 1.393048,1.731955 2.250519,2.457661 0.641996,0.543343 1.269509,1.146274 1.645254,1.906944 0.277567,0.561915 0.117692,1.223532 0.381548,1.794687 0.45183,0.978051 1.31996,1.681641 1.78931,2.65075 0.43326,0.894596 0.7771,1.850118 1.40322,2.634658 0.31121,0.38995 0.73225,0.74257 1.24605,0.79929 0.129,0.0142 0.25984,0.01 0.38784,-0.0115"
       id="path115"
       inkscape:path-effect="#path-effect117"
       inkscape:original-d="m 60.423287,31.92545 c 0.122822,1.666579 0.788,3.252584 1.368758,4.819833 0.231069,0.623562 0.774319,1.204415 1.068303,1.816819 0.324662,0.67631 0.342701,1.469951 0.767839,2.117125 0.5876,0.894484 1.126469,1.82894 1.719294,2.717718 0.241446,0.361979 0.676249,0.62679 0.867995,1.021027 0.382828,0.787106 0.644671,1.640271 1.0683,2.402403 0.648827,1.167276 1.859336,2.039223 2.386984,3.273282 0.419843,0.981927 0.613627,2.081908 1.285298,2.957965 0.52016,0.678442 1.395124,1.149832 2.019755,1.711714 0.642956,0.578366 1.083157,1.356363 1.602452,2.057059 0.756872,1.021265 0.598141,2.757805 1.00153,3.918934 0.365109,1.050946 1.545478,1.619903 2.28683,2.342343 0.407006,0.396621 0.489003,1.341371 0.717765,1.861867 0.339936,0.773449 0.744826,1.58836 1.268605,2.252255 0.724612,0.918449 2.811518,0.141679 3.755745,1.531533 0.817062,1.202677 0.243057,2.973202 0.834609,4.279294 0.309899,0.684223 0.905029,1.190469 1.285299,1.831835 0.455808,0.768773 0.645959,1.847554 1.168452,2.552554 0.615519,0.830522 1.383139,1.588567 1.90291,2.492497 2.204458,3.83376 3.33837,7.360499 6.87718,10.225246 0.865677,0.700783 1.368681,1.73622 2.220063,2.432447 0.64257,0.525465 1.347787,1.225391 1.735989,1.981975 0.263224,0.513009 0.107244,1.179605 0.350536,1.726737 0.433512,0.974916 1.195962,1.581055 1.702602,2.492502 0.61432,1.105151 1.43052,3.930686 3.15483,3.648646"
       clip-path="url(#clipPath290)" />
    <path
       style="fill:none;stroke:#000000;stroke-width:0.264583px;stroke-linecap:butt;stroke-linejoin:miter;stroke-opacity:1"
       d="m 104.84121,102.39106 c -0.27255,0.59037 -0.80152,1.11947 -0.81792,1.77137 -0.002,0.0692 0.015,0.13763 0.0271,0.2055 0.0615,0.34477 0.13721,0.68904 0.15439,1.03953 0.006,0.11771 0.004,0.23863 -0.04,0.35041 -0.11055,0.28269 -0.28721,0.53628 -0.37862,0.82699 -0.0327,0.10384 -0.0431,0.21467 -0.0218,0.32325 0.12173,0.62099 0.38707,1.1992 0.61627,1.78514 0.12338,0.31542 0.22744,0.6384 0.30549,0.96828 0.19735,0.8341 0.29762,1.69402 0.58952,2.50346 0.058,0.16075 0.10413,0.32945 0.19536,0.47403 0.0653,0.10352 0.17705,0.16365 0.28032,0.22259 0.13238,0.0756 0.2692,0.15023 0.37082,0.26881 0.48945,0.57117 1.1022,1.04643 1.49731,1.68788 0.0665,0.10793 0.0981,0.2331 0.12719,0.35505 0.10633,0.44572 0.17156,0.89991 0.23946,1.35266 0.12318,0.82132 0.21626,1.64829 0.3865,2.46151 0.0565,0.26984 0.10141,0.54684 0.21498,0.79908 0.17408,0.38663 0.22607,0.81545 0.23482,1.23538 0.017,0.81716 -0.14512,1.62331 -0.21519,2.43478 -0.0135,0.15669 -0.0461,0.31082 -0.0873,0.46246 -0.0707,0.26025 -0.15715,0.5226 -0.14908,0.79617 0.005,0.17111 0.0614,0.3359 0.13726,0.48769 0.0814,0.16302 0.18211,0.32277 0.32829,0.43533 0.0816,0.0629 0.19371,0.10011 0.29442,0.0604 0.0691,-0.0272 0.1236,-0.0813 0.16719,-0.13998"
       id="path119"
       inkscape:path-effect="#path-effect121"
       inkscape:original-d="m 104.84121,102.39106 c -0.27264,0.59046 -0.60222,1.15782 -0.81792,1.77137 -0.022,0.0626 0.25457,1.18362 0.16692,1.51652 -0.0845,0.32101 -0.4955,0.85416 -0.434,1.18619 0.17012,0.91839 0.65679,1.72429 0.88469,2.61261 0.26744,1.0425 0.35505,2.13888 0.81792,3.13815 0.0933,0.20149 0.47541,0.29358 0.6343,0.48048 0.49485,0.58208 1.05286,1.10605 1.51899,1.71171 0.31568,0.41018 0.58637,4.10389 0.98484,5.00002 0.44468,1.00007 0.12038,2.6559 0,3.73874 -0.0552,0.49678 -0.35254,0.95387 -0.16692,1.47148 0.1604,0.44729 0.5545,0.96351 0.86799,0.54054" />
    <path
       style="fill:none;stroke:#000000;stroke-width:0.264583px;stroke-linecap:butt;stroke-linejoin:miter;stroke-opacity:1"
       d="m 79.449617,127.50063 c 0.7365,-0.65602 1.644366,-1.15915 2.20992,-1.96797 0.172934,-0.24732 0.09215,-0.57525 0.0058,-0.83477 -0.104834,-0.31499 -0.06246,-0.64947 0.0137,-0.96411 0.08139,-0.33626 0.08427,-0.68299 0.03983,-1.02596 -0.190375,-1.46937 -0.822909,-2.82871 -1.435585,-4.16097 -0.387034,-0.8416 -0.805997,-1.66966 -1.068306,-2.56758 -0.07822,-0.26776 -0.394314,-0.37796 -0.401268,-0.70429 -0.02746,-1.28851 0.01989,-2.59196 -0.209481,-3.86098 -0.04377,-0.24218 -0.01758,-0.53003 -0.181371,-0.72263 -0.369436,-0.43441 -0.884853,-0.70364 -1.362142,-1.00095 -0.377673,-0.23526 -0.869674,-0.36665 -1.110454,-0.7455 -0.161238,-0.2537 -0.276232,-0.53617 -0.403734,-0.80877 -0.531255,-1.13581 -1.119308,-2.24392 -1.647213,-3.38193 -0.267962,-0.57765 -0.357595,-1.24207 -0.781979,-1.74407 -0.40217,-0.47572 -0.935321,-0.86342 -1.158689,-1.47277 -0.22984,-0.627 -0.198476,-1.32206 -0.534381,-1.923187 -0.164033,-0.293549 -0.449341,-0.481423 -0.742574,-0.628444 -0.326851,-0.163876 -0.557785,-0.453448 -0.843333,-0.675238 -1.224391,-0.951007 -2.766003,-1.438088 -3.87513,-2.54685 -0.297708,-0.29761 -0.558432,-0.6383 -0.706333,-1.038376 -0.15727,-0.425419 -0.303021,-0.869663 -0.619243,-1.21183 -0.360449,-0.390022 -0.77957,-0.722997 -1.09164,-1.160154 -0.704659,-0.987106 -1.172177,-2.160261 -2.091519,-2.980688 -0.458439,-0.409114 -1.140596,-0.481619 -1.549268,-0.952847 -0.466963,-0.538442 -0.407917,-1.355342 -0.904488,-1.869981 -0.721627,-0.747884 -1.570874,-1.37965 -2.17189,-2.240438 -0.156108,-0.223581 -0.204293,-0.496179 -0.314614,-0.742308 -0.283682,-0.632902 -0.907527,-1.003164 -1.464882,-1.364795 -0.404509,-0.262459 -0.770841,-0.58037 -1.070008,-0.964078 -0.604496,-0.775321 -1.127016,-1.637134 -1.385247,-2.598173 -0.07919,-0.294712 0.02612,-0.608637 -0.05775,-0.897346 -0.11243,-0.387027 -0.428597,-0.667415 -0.705188,-0.941735 -0.526782,-0.522456 -1.289318,-0.903017 -1.522247,-1.634358 -0.0694,-0.217915 -0.436739,-0.693497 -0.213028,-0.655429 0.182283,0.03102 0.38175,0.140948 0.549419,0.245249 0.137553,0.08557 0.541628,0.160186 0.514776,0.164675 -0.420814,0.07036 -0.936074,0.102091 -1.252041,-0.232701 -0.344719,-0.365257 -0.40251,-0.885047 -0.54962,-1.344301 -0.09115,-0.284543 -0.120878,-0.657986 -0.378807,-0.814161 -0.198143,-0.119975 -0.373607,-0.247695 -0.501163,-0.463264 -0.581126,-0.982096 -1.013164,-2.050944 -1.697068,-2.97359 C 46.220383,68.33622 45.55076,67.630654 45.209542,66.738655 44.974308,66.123715 44.997227,65.424628 44.695415,64.839872 44.51277,64.486 44.212444,64.205488 44.104687,63.802761 c -0.08668,-0.323962 -0.125723,-0.674957 -0.357768,-0.945946 -0.72273,-0.844025 -1.831156,-1.203479 -2.592424,-2.006862 -0.431331,-0.455193 -0.861233,-0.929688 -1.152758,-1.485758 -0.282404,-0.538671 -0.377804,-1.164977 -0.774733,-1.65028 -0.97644,-1.193838 -2.197624,-2.202132 -2.94329,-3.574089 -0.202078,-0.371805 -0.244455,-0.799708 -0.434692,-1.18064 -0.568005,-1.137377 -1.376205,-2.160547 -1.753632,-3.388205 -0.195723,-0.636629 -0.160206,-1.336903 -0.427357,-1.946376 -0.173848,-0.396614 -0.437971,-0.741856 -0.606717,-1.144724 -0.338208,-0.807445 -1.097432,-1.496844 -1.118633,-2.373529 -0.0054,-0.224659 0.06361,-0.426387 -0.02937,-0.669466 -0.172347,-0.450544 -0.41252,-0.874284 -0.512236,-1.354393 -0.204001,-0.982219 -0.170254,-2.015428 -0.485474,-2.968096 -0.114734,-0.346753 -0.313862,-0.650176 -0.395088,-1.019224 -0.09154,-0.415911 -0.231802,-0.829963 -0.476451,-1.188056 -0.154708,-0.226446 -0.415862,-0.08004 -0.630084,-0.08821 -0.315059,-0.01202 -0.55637,-0.239981 -0.849948,-0.332053 -0.912873,-0.286294 -1.90464,-0.172171 -2.812869,-0.453194 -0.335555,-0.103827 -0.617353,-0.338112 -0.981374,-0.375644 -1.028638,-0.106056 -2.029663,-0.413171 -3.059477,-0.492275 -0.883082,-0.06783 -1.765135,0.06064 -2.64195,0.150563 -0.303475,0.03112 -0.605602,0.05323 -0.913027,0.02174 -0.404768,-0.04146 -0.841377,-0.262778 -1.218466,-0.103057 -0.161201,0.06828 -0.262215,0.240087 -0.330078,0.395197 -0.162879,0.372282 -0.09764,0.791662 -0.03761,1.178853"
       id="path123"
       inkscape:path-effect="#path-effect125"
       inkscape:original-d="m 79.449617,127.50063 c 0.728572,-0.64725 1.486101,-1.26331 2.185717,-1.94176 0.276178,-0.26782 -0.03339,-0.91838 -0.03339,-1.23123 0,-0.42263 0.1759,-0.84588 0.150233,-1.26127 -0.09435,-1.52682 -0.819467,-3.09714 -1.468911,-4.51952 -0.405971,-0.88913 -0.837644,-1.58199 -1.068306,-2.56758 -0.05484,-0.23431 -0.400608,-0.35995 -0.400608,-0.6006 0,-0.59747 -0.09895,-4.27926 -0.367231,-4.65466 -0.497067,-0.69555 -2.348759,-1.44007 -2.553904,-1.86187 -0.657124,-1.3511 -1.222121,-2.6771 -1.936287,-3.994 -0.259342,-0.47822 -0.336581,-1.06203 -0.617617,-1.54655 -0.340648,-0.5873 -1.014282,-0.9669 -1.301993,-1.5916 -0.381317,-0.82794 -0.140541,-1.57497 -0.767839,-2.327329 -0.269931,-0.32375 -0.656318,-0.387424 -0.93476,-0.66066 C 68.890152,97.324433 66.764778,96.928137 65.527372,95.25851 65.225593,94.851322 65.141339,94.21215 64.842987,93.77202 64.540971,93.326483 64.042361,93.000575 63.707922,92.570812 62.921133,91.55977 62.424394,90.245096 61.454476,89.372613 61.034543,88.994863 60.319975,88.8577 59.952175,88.471705 59.433753,87.927637 59.48495,87.057951 59.00072,86.549785 58.315788,85.830988 57.083205,84.917649 56.663814,84.01224 c -0.146256,-0.315751 -0.06303,-0.354674 -0.283765,-0.690695 -0.51497,-0.783931 -1.655107,-1.154353 -2.236756,-1.876877 -0.586698,-0.728798 -1.140415,-1.512541 -1.452219,-2.447454 -0.411503,-1.233858 0.353836,-1.03663 -0.918072,-2.252261 -0.587999,-0.561985 -1.339482,-1.02326 -1.552371,-1.831834 -0.03513,-0.133422 -0.207323,-0.46618 -0.08346,-0.405406 0.363014,0.178123 0.635863,0.349838 1.068298,0.405406 -1.956396,0.353456 -1.460431,-1.23271 -2.186674,-2.338238 -0.08654,-0.131744 -0.329287,-0.159081 -0.433997,-0.330333 -0.462003,-0.7556 -0.8143,-1.558788 -1.251914,-2.327332 C 46.755542,68.90328 45.836049,68.054227 45.32982,67.01931 45.007821,66.361027 44.970307,65.649529 44.74559,64.962252 44.635397,64.625234 44.320651,64.381259 44.178055,64.046334 44.069439,63.791218 44.017412,63.196392 43.860907,62.99528 43.266065,62.230895 42.455902,61.894334 41.707616,61.343625 41.130774,60.919092 40.475832,60.104144 40.088472,59.51179 39.756431,59.004031 39.69486,58.301373 39.320633,57.830103 c -0.98888,-1.245314 -2.3015,-2.293449 -3.054674,-3.72373 -0.163918,-0.31128 -0.186874,-0.663501 -0.333842,-0.975978 -0.491498,-1.044995 -1.268438,-2.061621 -1.702605,-3.168178 -0.305216,-0.7779 -0.32111,-1.430086 -0.517458,-2.207212 -0.08524,-0.337361 -0.448784,-0.764851 -0.584224,-1.111114 -0.344565,-0.880909 -0.859424,-1.658518 -1.185147,-2.537539 -0.04568,-0.123264 0.07292,-0.27739 0.05008,-0.390394 -0.103692,-0.513019 -0.4355,-0.922677 -0.550846,-1.441447 -0.227912,-1.025036 -0.287978,-2.034271 -0.500764,-3.063069 -0.07192,-0.347739 -0.360426,-0.665625 -0.400614,-0.990989 -0.0466,-0.377307 -0.360085,-1.545877 -0.801222,-1.441447 -0.605293,0.143291 -0.626972,-0.127928 -1.201836,-0.3003 -0.894368,-0.268175 -1.772911,-0.245921 -2.687443,-0.420424 -0.358239,-0.06836 -0.641105,-0.356034 -0.984843,-0.39039 -1.019862,-0.101932 -1.969712,-0.313957 -2.987902,-0.480481 -0.847959,-0.138682 -2.40585,0.103912 -3.338439,0.180181 -0.266491,0.02179 -1.529241,-0.237645 -1.669216,-0.105107 -0.457394,0.433092 -0.390179,0.981634 -0.300459,1.546554" />
  </g>
</svg>
