<?xml version="1.0" encoding="UTF-8" standalone="no"?>
<!-- Created with Inkscape (http://www.inkscape.org/) -->

<svg
   width="353.56799mm"
   height="264.16mm"
   viewBox="0 0 353.56799 264.16"
   version="1.1"
   id="svg5"
   inkscape:version="1.1.2 (08b2f3d93c, 2022-04-05)"
   sodipodi:docname="NucleoDeCelulasDaGlia.svg"
   xmlns:inkscape="http://www.inkscape.org/namespaces/inkscape"
   xmlns:sodipodi="http://sodipodi.sourceforge.net/DTD/sodipodi-0.dtd"
   xmlns="http://www.w3.org/2000/svg"
   xmlns:svg="http://www.w3.org/2000/svg">
  <sodipodi:namedview
     id="namedview7"
     pagecolor="#ffffff"
     bordercolor="#666666"
     borderopacity="1.0"
     inkscape:pageshadow="2"
     inkscape:pageopacity="0.0"
     inkscape:pagecheckerboard="0"
     inkscape:document-units="mm"
     showgrid="false"
     inkscape:zoom="1.3404872"
     inkscape:cx="1045.1424"
     inkscape:cy="603.13893"
     inkscape:window-width="1366"
     inkscape:window-height="704"
     inkscape:window-x="0"
     inkscape:window-y="27"
     inkscape:window-maximized="1"
     inkscape:current-layer="layer2" />
  <defs
     id="defs2">
    <inkscape:path-effect
       effect="simplify"
       id="path-effect205"
       is_visible="true"
       lpeversion="1"
       steps="1"
       threshold="0.000408163"
       smooth_angles="360"
       helper_size="0"
       simplify_individual_paths="false"
       simplify_just_coalesce="false" />
    <inkscape:path-effect
       effect="simplify"
       id="path-effect201"
       is_visible="true"
       lpeversion="1"
       steps="1"
       threshold="0.000408163"
       smooth_angles="360"
       helper_size="0"
       simplify_individual_paths="false"
       simplify_just_coalesce="false" />
    <inkscape:path-effect
       effect="simplify"
       id="path-effect197"
       is_visible="true"
       lpeversion="1"
       steps="1"
       threshold="0.000408163"
       smooth_angles="360"
       helper_size="0"
       simplify_individual_paths="false"
       simplify_just_coalesce="false" />
    <inkscape:path-effect
       effect="simplify"
       id="path-effect193"
       is_visible="true"
       lpeversion="1"
       steps="1"
       threshold="0.000408163"
       smooth_angles="360"
       helper_size="0"
       simplify_individual_paths="false"
       simplify_just_coalesce="false" />
    <inkscape:path-effect
       effect="simplify"
       id="path-effect189"
       is_visible="true"
       lpeversion="1"
       steps="1"
       threshold="0.000408163"
       smooth_angles="360"
       helper_size="0"
       simplify_individual_paths="false"
       simplify_just_coalesce="false" />
    <inkscape:path-effect
       effect="simplify"
       id="path-effect185"
       is_visible="true"
       lpeversion="1"
       steps="1"
       threshold="0.000408163"
       smooth_angles="360"
       helper_size="0"
       simplify_individual_paths="false"
       simplify_just_coalesce="false" />
    <inkscape:path-effect
       effect="simplify"
       id="path-effect181"
       is_visible="true"
       lpeversion="1"
       steps="1"
       threshold="0.000408163"
       smooth_angles="360"
       helper_size="0"
       simplify_individual_paths="false"
       simplify_just_coalesce="false" />
    <inkscape:path-effect
       effect="simplify"
       id="path-effect177"
       is_visible="true"
       lpeversion="1"
       steps="1"
       threshold="0.000408163"
       smooth_angles="360"
       helper_size="0"
       simplify_individual_paths="false"
       simplify_just_coalesce="false" />
    <inkscape:path-effect
       effect="simplify"
       id="path-effect173"
       is_visible="true"
       lpeversion="1"
       steps="1"
       threshold="0.000408163"
       smooth_angles="360"
       helper_size="0"
       simplify_individual_paths="false"
       simplify_just_coalesce="false" />
    <inkscape:path-effect
       effect="simplify"
       id="path-effect169"
       is_visible="true"
       lpeversion="1"
       steps="1"
       threshold="0.000408163"
       smooth_angles="360"
       helper_size="0"
       simplify_individual_paths="false"
       simplify_just_coalesce="false" />
    <inkscape:path-effect
       effect="simplify"
       id="path-effect165"
       is_visible="true"
       lpeversion="1"
       steps="1"
       threshold="0.000408163"
       smooth_angles="360"
       helper_size="0"
       simplify_individual_paths="false"
       simplify_just_coalesce="false" />
    <inkscape:path-effect
       effect="simplify"
       id="path-effect161"
       is_visible="true"
       lpeversion="1"
       steps="1"
       threshold="0.000408163"
       smooth_angles="360"
       helper_size="0"
       simplify_individual_paths="false"
       simplify_just_coalesce="false" />
    <inkscape:path-effect
       effect="simplify"
       id="path-effect157"
       is_visible="true"
       lpeversion="1"
       steps="1"
       threshold="0.000408163"
       smooth_angles="360"
       helper_size="0"
       simplify_individual_paths="false"
       simplify_just_coalesce="false" />
    <inkscape:path-effect
       effect="simplify"
       id="path-effect153"
       is_visible="true"
       lpeversion="1"
       steps="1"
       threshold="0.000408163"
       smooth_angles="360"
       helper_size="0"
       simplify_individual_paths="false"
       simplify_just_coalesce="false" />
    <inkscape:path-effect
       effect="simplify"
       id="path-effect149"
       is_visible="true"
       lpeversion="1"
       steps="1"
       threshold="0.000408163"
       smooth_angles="360"
       helper_size="0"
       simplify_individual_paths="false"
       simplify_just_coalesce="false" />
    <inkscape:path-effect
       effect="simplify"
       id="path-effect145"
       is_visible="true"
       lpeversion="1"
       steps="1"
       threshold="0.000408163"
       smooth_angles="360"
       helper_size="0"
       simplify_individual_paths="false"
       simplify_just_coalesce="false" />
    <inkscape:path-effect
       effect="simplify"
       id="path-effect141"
       is_visible="true"
       lpeversion="1"
       steps="1"
       threshold="0.000408163"
       smooth_angles="360"
       helper_size="0"
       simplify_individual_paths="false"
       simplify_just_coalesce="false" />
    <inkscape:path-effect
       effect="simplify"
       id="path-effect137"
       is_visible="true"
       lpeversion="1"
       steps="1"
       threshold="0.000408163"
       smooth_angles="360"
       helper_size="0"
       simplify_individual_paths="false"
       simplify_just_coalesce="false" />
    <inkscape:path-effect
       effect="simplify"
       id="path-effect133"
       is_visible="true"
       lpeversion="1"
       steps="1"
       threshold="0.000408163"
       smooth_angles="360"
       helper_size="0"
       simplify_individual_paths="false"
       simplify_just_coalesce="false" />
    <inkscape:path-effect
       effect="simplify"
       id="path-effect129"
       is_visible="true"
       lpeversion="1"
       steps="1"
       threshold="0.000408163"
       smooth_angles="360"
       helper_size="0"
       simplify_individual_paths="false"
       simplify_just_coalesce="false" />
    <inkscape:path-effect
       effect="simplify"
       id="path-effect125"
       is_visible="true"
       lpeversion="1"
       steps="1"
       threshold="0.000408163"
       smooth_angles="360"
       helper_size="0"
       simplify_individual_paths="false"
       simplify_just_coalesce="false" />
    <inkscape:path-effect
       effect="simplify"
       id="path-effect121"
       is_visible="true"
       lpeversion="1"
       steps="1"
       threshold="0.000408163"
       smooth_angles="360"
       helper_size="0"
       simplify_individual_paths="false"
       simplify_just_coalesce="false" />
    <inkscape:path-effect
       effect="simplify"
       id="path-effect117"
       is_visible="true"
       lpeversion="1"
       steps="1"
       threshold="0.000408163"
       smooth_angles="360"
       helper_size="0"
       simplify_individual_paths="false"
       simplify_just_coalesce="false" />
    <inkscape:path-effect
       effect="simplify"
       id="path-effect113"
       is_visible="true"
       lpeversion="1"
       steps="1"
       threshold="0.000408163"
       smooth_angles="360"
       helper_size="0"
       simplify_individual_paths="false"
       simplify_just_coalesce="false" />
    <inkscape:path-effect
       effect="simplify"
       id="path-effect109"
       is_visible="true"
       lpeversion="1"
       steps="1"
       threshold="0.000408163"
       smooth_angles="360"
       helper_size="0"
       simplify_individual_paths="false"
       simplify_just_coalesce="false" />
    <inkscape:path-effect
       effect="simplify"
       id="path-effect105"
       is_visible="true"
       lpeversion="1"
       steps="1"
       threshold="0.000408163"
       smooth_angles="360"
       helper_size="0"
       simplify_individual_paths="false"
       simplify_just_coalesce="false" />
    <inkscape:path-effect
       effect="simplify"
       id="path-effect101"
       is_visible="true"
       lpeversion="1"
       steps="1"
       threshold="0.000408163"
       smooth_angles="360"
       helper_size="0"
       simplify_individual_paths="false"
       simplify_just_coalesce="false" />
    <inkscape:path-effect
       effect="simplify"
       id="path-effect97"
       is_visible="true"
       lpeversion="1"
       steps="1"
       threshold="0.000408163"
       smooth_angles="360"
       helper_size="0"
       simplify_individual_paths="false"
       simplify_just_coalesce="false" />
    <inkscape:path-effect
       effect="simplify"
       id="path-effect93"
       is_visible="true"
       lpeversion="1"
       steps="1"
       threshold="0.000408163"
       smooth_angles="360"
       helper_size="0"
       simplify_individual_paths="false"
       simplify_just_coalesce="false" />
    <inkscape:path-effect
       effect="simplify"
       id="path-effect89"
       is_visible="true"
       lpeversion="1"
       steps="1"
       threshold="0.000408163"
       smooth_angles="360"
       helper_size="0"
       simplify_individual_paths="false"
       simplify_just_coalesce="false" />
    <inkscape:path-effect
       effect="simplify"
       id="path-effect85"
       is_visible="true"
       lpeversion="1"
       steps="1"
       threshold="0.000408163"
       smooth_angles="360"
       helper_size="0"
       simplify_individual_paths="false"
       simplify_just_coalesce="false" />
    <inkscape:path-effect
       effect="simplify"
       id="path-effect81"
       is_visible="true"
       lpeversion="1"
       steps="1"
       threshold="0.000408163"
       smooth_angles="360"
       helper_size="0"
       simplify_individual_paths="false"
       simplify_just_coalesce="false" />
    <inkscape:path-effect
       effect="simplify"
       id="path-effect77"
       is_visible="true"
       lpeversion="1"
       steps="1"
       threshold="0.000408163"
       smooth_angles="360"
       helper_size="0"
       simplify_individual_paths="false"
       simplify_just_coalesce="false" />
    <inkscape:path-effect
       effect="simplify"
       id="path-effect73"
       is_visible="true"
       lpeversion="1"
       steps="1"
       threshold="0.000408163"
       smooth_angles="360"
       helper_size="0"
       simplify_individual_paths="false"
       simplify_just_coalesce="false" />
    <inkscape:path-effect
       effect="simplify"
       id="path-effect69"
       is_visible="true"
       lpeversion="1"
       steps="1"
       threshold="0.000408163"
       smooth_angles="360"
       helper_size="0"
       simplify_individual_paths="false"
       simplify_just_coalesce="false" />
    <inkscape:path-effect
       effect="simplify"
       id="path-effect65"
       is_visible="true"
       lpeversion="1"
       steps="1"
       threshold="0.000408163"
       smooth_angles="360"
       helper_size="0"
       simplify_individual_paths="false"
       simplify_just_coalesce="false" />
    <inkscape:path-effect
       effect="simplify"
       id="path-effect61"
       is_visible="true"
       lpeversion="1"
       steps="1"
       threshold="0.000408163"
       smooth_angles="360"
       helper_size="0"
       simplify_individual_paths="false"
       simplify_just_coalesce="false" />
    <inkscape:path-effect
       effect="simplify"
       id="path-effect57"
       is_visible="true"
       lpeversion="1"
       steps="1"
       threshold="0.000408163"
       smooth_angles="360"
       helper_size="0"
       simplify_individual_paths="false"
       simplify_just_coalesce="false" />
  </defs>
  <g
     inkscape:groupmode="layer"
     id="layer2"
     inkscape:label="Nucleo de celulas da glia">
    <path
       style="fill:none;stroke:#000000;stroke-width:0.264583px;stroke-linecap:butt;stroke-linejoin:miter;stroke-opacity:1"
       d="m 295.62118,207.14165 c -0.23031,-0.16915 -0.42381,-0.38554 -0.66786,-0.53625 -0.0732,-0.0452 -0.14964,-0.0869 -0.23194,-0.11255 -0.11867,-0.0369 -0.24776,-0.0181 -0.36118,0.0277 -0.16709,0.0674 -0.3118,0.18012 -0.43993,0.30479 -0.21617,0.21034 -0.39575,0.45591 -0.54864,0.71508 -0.17895,0.30334 -0.32829,0.62622 -0.42306,0.96584 -0.0591,0.21164 -0.10163,0.43126 -0.0907,0.65181 0.007,0.13859 0.04,0.2786 0.11557,0.39714 0.15365,0.24104 0.35383,0.44798 0.56215,0.64203 0.17079,0.15909 0.35184,0.3069 0.5211,0.46759 0.23215,0.22039 0.46267,0.44313 0.70893,0.6478 0.0801,0.0666 0.16115,0.13259 0.24885,0.1892 0.062,0.04 0.13804,0.0488 0.20963,0.0552 0.15331,0.0137 0.30872,-0.0287 0.43857,-0.11033 0.17323,-0.10892 0.30529,-0.27196 0.40956,-0.44557 0.16084,-0.2678 0.26898,-0.56404 0.34887,-0.86493 0.1133,-0.42671 0.17677,-0.86661 0.19112,-1.30766 0.0101,-0.30988 0.003,-0.62268 -0.0569,-0.92755 -0.0316,-0.16191 -0.074,-0.32501 -0.15708,-0.46884 -0.0444,-0.0768 -0.10542,-0.14704 -0.18592,-0.18728 -0.10039,-0.0502 -0.21416,-0.0608 -0.32434,-0.07 -0.0893,-0.007 -0.23252,0.0499 -0.26674,-0.0331 -0.16087,-0.3906 -0.27628,-0.80068 -0.47136,-1.17639 -0.0353,-0.0681 -0.0684,-0.13811 -0.11553,-0.19914 -0.0655,-0.0848 -0.16076,-0.14562 -0.26556,-0.16879 -0.13635,-0.0301 -0.27885,-0.006 -0.4086,0.0403 -0.19833,0.0704 -0.37866,0.18515 -0.53875,0.32038 -0.16575,0.14001 -0.31684,0.30101 -0.42754,0.48828 -0.0643,0.10871 -0.11956,0.22753 -0.13008,0.35477 -0.001,0.0125 -0.002,0.025 -0.002,0.0375"
       id="path55"
       inkscape:path-effect="#path-effect57"
       inkscape:original-d="m 295.62118,207.14165 c -0.2897,-0.21273 -0.53393,-0.50839 -0.86911,-0.63819 -0.8664,-0.33557 -2.2938,2.22067 -1.79144,3.03141 0.26988,0.43552 0.71083,0.77762 1.08196,1.11684 0.0671,0.0613 0.85802,0.82968 1.02876,0.87752 1.48526,0.41614 1.91262,-3.60847 1.22383,-4.22803 -0.17164,-0.15441 -0.44932,-0.10637 -0.674,-0.15955 -0.17738,-0.43078 -0.30769,-0.8841 -0.53211,-1.29234 -0.43098,-0.78397 -1.82689,0.35969 -1.82689,0.9892" />
    <path
       style="fill:none;stroke:#000000;stroke-width:0.264583px;stroke-linecap:butt;stroke-linejoin:miter;stroke-opacity:1"
       d="m 294.84076,219.63427 c -0.16214,-0.0859 -0.32575,-0.16943 -0.48273,-0.26459 -0.10617,-0.0644 -0.2065,-0.13999 -0.28914,-0.23333 -0.0745,-0.0841 -0.0958,-0.29881 -0.20367,-0.26792 -0.45151,0.12932 -0.89322,0.31393 -1.27334,0.59351 -0.29222,0.21493 -0.54298,0.49308 -0.69941,0.82262 -0.14659,0.30882 -0.19923,0.65942 -0.15817,0.99846 0.0553,0.45671 0.27265,0.88577 0.58314,1.22236 0.33621,0.36447 0.78996,0.62138 1.27929,0.70968 0.37722,0.0681 0.7705,0.0284 1.13125,-0.0992 0.41942,-0.14839 0.79368,-0.40726 1.10742,-0.7195 0.19669,-0.19575 0.39018,-0.39761 0.54553,-0.62861 0.12533,-0.18636 0.2238,-0.39421 0.26417,-0.61615 0.0128,-0.0705 0.0268,-0.14221 0.0226,-0.21385 -0.005,-0.0869 -0.0456,-0.16709 -0.0921,-0.23877 -0.0829,-0.12812 -0.18692,-0.2414 -0.29834,-0.34502 -0.0876,-0.0815 -0.17537,-0.16539 -0.27825,-0.22692 -0.0956,-0.0572 -0.1948,-0.10822 -0.29509,-0.15658 -0.39944,-0.19262 -0.83246,-0.31961 -1.27546,-0.35469 -0.42086,-0.0333 -0.84632,0.0208 -1.25015,0.14184 -0.422,0.12649 -0.81359,0.3342 -1.19255,0.55714 -0.15681,0.0923 -0.33387,0.14688 -0.48373,0.25141 -0.0723,0.0505 -0.13698,0.1185 -0.16358,0.20469 -0.0125,0.0406 -0.0218,0.095 0.0173,0.1242 0.0389,0.0291 0.0896,0.0333 0.13652,0.0349 0.12775,0.004 0.25531,-0.0197 0.38286,-0.009 0.0131,0.001 0.0261,0.003 0.039,0.005"
       id="path59"
       inkscape:path-effect="#path-effect61"
       inkscape:original-d="m 294.84076,219.63427 c -0.66614,-0.34965 -0.70159,-0.37859 -0.97554,-0.76584 -4.53927,1.29443 -0.90283,6.41233 2.00428,3.49411 0.38306,-0.38452 0.77108,-0.8193 0.79817,-1.40402 0.0135,-0.29105 -0.54605,-0.76298 -0.69174,-0.8456 -1.36951,-0.77664 -2.67358,-0.61964 -3.97308,0.19145 -0.2391,0.14923 -0.63423,0.23152 -0.674,0.51055 -0.028,0.19664 0.39021,0.0745 0.58531,0.11169" />
    <path
       style="fill:none;stroke:#000000;stroke-width:0.264583px;stroke-linecap:butt;stroke-linejoin:miter;stroke-opacity:1"
       d="m 294.84076,219.63427 c 0.63739,-0.60802 1.26988,-1.22144 1.88556,-1.85153 0.14268,-0.14602 0.30116,-0.27911 0.42289,-0.44299 0.003,-0.004 0.0202,-0.0198 0.008,-0.004 -0.0905,0.12167 -0.1792,0.2447 -0.26183,0.37187 -0.18915,0.29111 -0.35675,0.59864 -0.47162,0.92699 -0.079,0.2257 -0.13027,0.46319 -0.12973,0.7032 8.1e-4,0.36203 0.10559,0.72556 0.30899,1.02607 0.14302,0.2113 0.33969,0.38891 0.573,0.49522 0.20139,0.0918 0.4277,0.12385 0.64735,0.10052 0.15503,-0.0165 0.30642,-0.0585 0.45231,-0.11238 0.2854,-0.10537 0.54716,-0.27605 0.75429,-0.49958 0.22599,-0.24388 0.38182,-0.54852 0.46293,-0.87014 0.094,-0.37267 0.1237,-0.77504 0.011,-1.14147 -0.0163,-0.0529 -0.045,-0.10093 -0.0741,-0.1476 -0.0944,-0.1513 -0.20164,-0.29419 -0.31372,-0.43269 -0.14886,-0.18396 -0.30351,-0.36442 -0.4777,-0.52489 -0.0791,-0.0729 -0.1593,-0.14742 -0.25454,-0.19836 -0.0397,-0.0213 -0.0837,-0.0438 -0.12992,-0.0375 -0.0614,0.008 -0.0721,0.0818 -0.0876,0.12884 -0.044,0.13387 -0.083,0.27316 -0.0785,0.41523 0.002,0.0786 0.0225,0.16193 0.0792,0.21989 0.0546,0.0559 0.13541,0.0763 0.21144,0.0762 0.11086,-2.4e-4 0.2215,-0.0278 0.32025,-0.0768 0.0384,-0.0191 0.0756,-0.0414 0.10854,-0.0699 0.0132,-0.0114 -0.002,-0.022 -0.0144,-0.0217 -0.0562,0.001 -0.11057,0.0195 -0.16335,0.0371 -0.19966,0.0667 -0.39283,0.15127 -0.58401,0.2389 -0.52554,0.24089 -1.03928,0.50663 -1.54927,0.77862 -0.55607,0.29657 -1.10719,0.60234 -1.65573,0.9126 z"
       id="path63"
       inkscape:path-effect="#path-effect65"
       inkscape:original-d="m 294.84076,219.63427 c 3.96613,-3.77749 1.70056,-2.13652 1.47217,-0.55842 -0.14655,1.01265 0.58769,2.11889 1.70273,1.85076 1.22219,-0.29389 1.73151,-1.4359 1.48992,-2.58468 -0.0485,-0.23041 -1.18298,-1.64202 -1.31255,-1.29234 -0.80978,2.18533 3.54082,-1.31566 -3.35227,2.58468" />
    <path
       style="fill:none;stroke:#000000;stroke-width:0.264583px;stroke-linecap:butt;stroke-linejoin:miter;stroke-opacity:1"
       d="m 311.99235,223.49534 c -0.17368,0.21007 -0.35712,0.41177 -0.54281,0.61127 -0.0815,0.0876 -0.16581,0.17304 -0.23831,0.26843 -0.0522,0.0687 -0.0933,0.14585 -0.11932,0.22822 -0.0376,0.11911 -0.054,0.24358 -0.0679,0.36728 -0.0195,0.1743 -0.0369,0.34889 -0.0497,0.5238 -0.0201,0.27531 -0.0257,0.55417 0.0196,0.82722 0.0287,0.17253 0.0763,0.34588 0.17132,0.49456 0.0671,0.10498 0.16456,0.19305 0.2828,0.23622 0.12513,0.0457 0.26382,0.0382 0.39035,0.002 0.1775,-0.0503 0.33846,-0.14722 0.48218,-0.26101 0.23018,-0.18224 0.42418,-0.4074 0.58515,-0.65207 0.23183,-0.35238 0.40006,-0.74854 0.47887,-1.16351 0.0687,-0.36153 0.0611,-0.73876 -0.035,-1.09522 -0.0352,-0.13037 -0.0873,-0.25514 -0.14291,-0.37792 -0.0556,-0.12277 -0.10954,-0.24721 -0.18198,-0.36112 -0.0345,-0.0542 -0.0725,-0.10836 -0.12548,-0.14628 -0.037,-0.0265 -0.0849,-0.0359 -0.12931,-0.0257 -0.0645,0.0149 -0.12102,0.0517 -0.17431,0.0894 -0.10372,0.0735 -0.20262,0.15339 -0.30477,0.22898 -0.0971,0.0718 -0.19639,0.14059 -0.29851,0.20503 z"
       id="path67"
       inkscape:path-effect="#path-effect69"
       inkscape:original-d="m 311.99235,223.49534 c -0.93401,1.12581 -0.90249,0.71083 -1.011,1.91457 -0.32948,3.65533 3.28224,0.52325 2.27034,-1.80289 -0.44215,-1.01641 -0.42273,-0.64008 -1.25934,-0.11168 z" />
    <path
       style="fill:none;stroke:#000000;stroke-width:0.264583px;stroke-linecap:butt;stroke-linejoin:miter;stroke-opacity:1"
       d="m 307.18566,230.1804 c -0.30227,-0.0211 -0.60702,0.046 -0.88004,0.17521 -0.35026,0.16572 -0.65104,0.42401 -0.89446,0.72318 -0.29671,0.36466 -0.51812,0.79087 -0.64402,1.24375 -0.10352,0.37238 -0.1431,0.7669 -0.0812,1.15012 0.049,0.30328 0.16913,0.59746 0.36258,0.83767 0.16074,0.1996 0.36842,0.36273 0.60526,0.46266 0.28301,0.11941 0.59778,0.1485 0.90132,0.11553 0.38423,-0.0417 0.75533,-0.17349 1.09221,-0.36034 0.36779,-0.204 0.70223,-0.47252 0.96735,-0.79981 0.20366,-0.25142 0.36998,-0.5401 0.44516,-0.85663 0.0227,-0.0954 0.0433,-0.19277 0.0422,-0.29092 -0.001,-0.10513 -0.0213,-0.20907 -0.0448,-0.31113 -0.0623,-0.27051 -0.15045,-0.53473 -0.25554,-0.79144 -0.12134,-0.29642 -0.26172,-0.58713 -0.44422,-0.85099 -0.11261,-0.16281 -0.23993,-0.31923 -0.39972,-0.43798 -0.11217,-0.0834 -0.24568,-0.14545 -0.38754,-0.14982 -0.13037,-0.004 -0.25546,0.0492 -0.361,0.12321 -0.0908,0.0636 -0.16194,0.15298 -0.20845,0.25333 -0.0656,0.14155 -0.089,0.29804 -0.10183,0.45221 -0.0202,0.24343 -0.01,0.48941 -0.0491,0.73112 -0.005,0.0324 -0.0115,0.0648 -0.019,0.0968"
       id="path71"
       inkscape:path-effect="#path-effect73"
       inkscape:original-d="m 307.18566,230.1804 c -1.91881,-0.12828 -3.43479,3.10594 -1.89785,4.37162 1.2605,1.03805 3.7116,-0.426 3.81344,-1.94648 0.033,-0.49318 -0.90721,-3.20902 -1.91559,-2.42514 -0.40968,0.31846 -0.23651,1.01047 -0.35475,1.51571" />
    <path
       style="fill:none;stroke:#000000;stroke-width:0.264583px;stroke-linecap:butt;stroke-linejoin:miter;stroke-opacity:1"
       d="m 315.23821,227.64358 c -0.0938,0.19539 -0.20598,0.38112 -0.30719,0.57263 -0.0858,0.1624 -0.16175,0.3331 -0.19244,0.51555 -0.0277,0.16475 -0.0135,0.33473 0.0301,0.4954 0.0669,0.24618 0.1846,0.47736 0.33488,0.68284 0.26587,0.36353 0.6301,0.65133 1.03731,0.84117 0.33376,0.1556 0.70048,0.2489 1.07005,0.24404 0.28379,-0.004 0.56966,-0.0718 0.81535,-0.21693 0.21456,-0.12676 0.39047,-0.31429 0.51237,-0.53104 0.13354,-0.23745 0.20923,-0.50464 0.2393,-0.77439 0.0392,-0.35212 0.009,-0.70978 -0.0685,-1.05467 -0.0801,-0.35826 -0.20625,-0.70819 -0.3909,-1.026 -0.12141,-0.20896 -0.26703,-0.40762 -0.45305,-0.56366 -0.1361,-0.11417 -0.29859,-0.20399 -0.47664,-0.22897 -0.14885,-0.0209 -0.30213,0.0127 -0.43391,0.0835 -0.17599,0.0946 -0.31696,0.2425 -0.43426,0.4019 -0.0673,0.0915 -0.12758,0.18812 -0.18278,0.28739"
       id="path75"
       inkscape:path-effect="#path-effect77"
       inkscape:original-d="m 315.23821,227.64358 c -0.3147,0.65007 -0.68686,0.99871 -0.42567,1.72313 0.61905,1.71693 3.51179,2.46345 3.93759,0.28719 0.32914,-1.68229 -1.22958,-4.40945 -2.41221,-2.28154" />
    <path
       style="fill:none;stroke:#000000;stroke-width:0.264583px;stroke-linecap:butt;stroke-linejoin:miter;stroke-opacity:1"
       d="m 322.58132,226.57461 c -0.2042,0.0498 -0.41247,0.0795 -0.6203,0.10953 -0.14313,0.0207 -0.28777,0.0393 -0.4257,0.0846 -0.10226,0.0336 -0.19852,0.0876 -0.27606,0.16288 -0.10509,0.10204 -0.17555,0.2338 -0.22977,0.36838 -0.0386,0.0958 -0.0697,0.1943 -0.10303,0.29199 -0.13855,0.40666 -0.26705,0.81919 -0.3329,1.24464 -0.0404,0.26114 -0.0593,0.52812 -0.0252,0.79107 0.027,0.20764 0.0909,0.41376 0.20923,0.58825 0.082,0.12101 0.19715,0.22052 0.3325,0.27757 0.15519,0.0654 0.32884,0.0741 0.49397,0.0504 0.22376,-0.032 0.43747,-0.11463 0.63678,-0.21904 0.26481,-0.13873 0.51055,-0.31361 0.73014,-0.51614 0.14658,-0.13519 0.28499,-0.28133 0.39612,-0.44746 0.0496,-0.0742 0.0914,-0.15388 0.12053,-0.23853 0.0775,-0.22527 0.0935,-0.46772 0.0736,-0.70376 -0.0278,-0.32963 -0.12023,-0.6525 -0.25977,-0.95178 -0.14093,-0.30227 -0.32967,-0.58508 -0.57197,-0.81553 -0.19323,-0.18378 -0.42445,-0.33288 -0.68227,-0.40706 -0.20415,-0.0587 -0.424,-0.0694 -0.63024,-0.0183 -0.0592,0.0147 -0.10842,0.0562 -0.14148,0.10645 -0.05,0.076 -0.075,0.16475 -0.0993,0.25148 -0.0293,0.10452 -0.0524,0.21236 -0.10258,0.30947"
       id="path79"
       inkscape:path-effect="#path-effect81"
       inkscape:original-d="m 322.58132,226.57461 c -0.89961,0.21655 -1.31088,0.004 -1.59634,0.84561 -0.21801,0.64307 -0.71149,1.98902 -0.23058,2.76018 0.64757,1.03837 2.4471,-0.33647 2.71375,-1.00516 0.44,-1.10341 -0.62286,-3.25152 -2.03973,-2.95164 -0.24728,0.0523 -0.23651,0.44674 -0.35475,0.6701" />
    <path
       style="fill:none;stroke:#000000;stroke-width:0.264583px;stroke-linecap:butt;stroke-linejoin:miter;stroke-opacity:1"
       d="m 339.3427,229.71771 c -0.18477,-0.0438 -0.36399,-0.10784 -0.53996,-0.17886 -0.092,-0.0371 -0.18208,-0.08 -0.27747,-0.10786 -0.0582,-0.017 -0.12228,-0.0284 -0.18106,-0.007 -0.0618,0.022 -0.10607,0.0748 -0.14004,0.12866 -0.0643,0.10198 -0.10344,0.21667 -0.14948,0.32738 -0.16086,0.38683 -0.31716,0.77706 -0.42658,1.182 -0.0562,0.20798 -0.10392,0.41986 -0.11608,0.63543 -0.007,0.1324 -0.003,0.26795 0.0363,0.39545 0.0269,0.0863 0.0744,0.16791 0.14482,0.22597 0.16385,0.13509 0.36453,0.22139 0.57248,0.26078 0.26638,0.0505 0.54236,0.0306 0.80484,-0.0319 0.32861,-0.0783 0.64156,-0.21946 0.92104,-0.40857 0.24266,-0.16419 0.4641,-0.36438 0.63317,-0.60469 0.11343,-0.16123 0.2124,-0.33993 0.24564,-0.53511 0.02,-0.11725 0.0325,-0.23571 0.0404,-0.35433 0.0126,-0.18974 0.0166,-0.38121 -0.008,-0.57004 -0.0148,-0.11182 -0.0377,-0.22451 -0.0878,-0.32637 -0.0341,-0.0695 -0.0849,-0.1342 -0.15539,-0.16949 -0.043,-0.0215 -0.0912,-0.0287 -0.13794,-0.0374 -0.24565,-0.0457 -0.49823,-0.0368 -0.74466,-0.002 -0.46862,0.0658 -0.92012,0.21682 -1.38757,0.28884 -0.0426,0.007 -0.0854,0.0125 -0.12823,0.0175"
       id="path83"
       inkscape:path-effect="#path-effect85"
       inkscape:original-d="m 339.3427,229.71771 c -0.84537,-0.20279 -0.98674,-0.59575 -1.24158,0.0479 -0.16704,0.42185 -0.94007,2.11668 -0.40794,2.55278 0.96814,0.79344 2.91608,-0.17909 3.1749,-1.3083 0.0193,-0.0839 0.2046,-1.34124 -0.26604,-1.45189 -0.76542,-0.17995 -1.56044,0.19507 -2.3413,0.28719" />
    <path
       style="fill:none;stroke:#000000;stroke-width:0.264583px;stroke-linecap:butt;stroke-linejoin:miter;stroke-opacity:1"
       d="m 338.63322,224.89935 c -0.29477,-0.0144 -0.59619,0.008 -0.87577,0.10841 -0.20742,0.0744 -0.39894,0.19869 -0.54055,0.36901 -0.14807,0.17809 -0.23386,0.40249 -0.2612,0.63132 -0.0356,0.29749 0.0171,0.60178 0.13026,0.87776 0.1163,0.2837 0.29697,0.54467 0.53796,0.73637 0.17851,0.142 0.39454,0.24018 0.62256,0.2653 0.21366,0.0235 0.43119,-0.0222 0.62464,-0.11358 0.2583,-0.12201 0.47709,-0.31444 0.66287,-0.52884 0.25674,-0.29629 0.45146,-0.63938 0.63425,-0.98502 0.077,-0.14564 0.1258,-0.30473 0.15483,-0.46643 0.0323,-0.17989 0.0434,-0.36515 0.017,-0.54646 -0.0195,-0.13365 -0.0584,-0.26842 -0.13851,-0.37861 -0.0529,-0.0728 -0.11707,-0.13696 -0.18475,-0.19597 -0.17441,-0.15208 -0.37254,-0.27545 -0.58015,-0.37663 -0.2462,-0.11999 -0.50731,-0.21352 -0.77813,-0.25755 -0.1892,-0.0308 -0.38523,-0.0386 -0.5732,0.005 -0.14238,0.0328 -0.27835,0.10149 -0.38057,0.20742 -0.10811,0.11203 -0.17086,0.26062 -0.20031,0.41198 -0.0172,0.0885 -0.024,0.17871 -0.024,0.26875"
       id="path87"
       inkscape:path-effect="#path-effect89"
       inkscape:original-d="m 338.63322,224.89935 c -3.6081,-0.18089 -0.6408,5.82371 1.56086,1.3083 0.16846,-0.3455 0.26188,-1.03021 -0.0177,-1.37211 -0.56642,-0.6926 -2.69603,-1.48242 -2.69603,0.0957" />
    <path
       style="fill:none;stroke:#000000;stroke-width:0.264583px;stroke-linecap:butt;stroke-linejoin:miter;stroke-opacity:1"
       d="m 338.63322,224.89935 c -0.16246,-0.98306 -0.24949,-1.9781 -0.4499,-2.9549 -0.0412,-0.20081 -0.0951,-0.39877 -0.13889,-0.59905 -0.006,-0.0285 -0.0328,-0.0611 -0.0651,-0.0441 -0.0374,0.0196 -0.0635,0.0546 -0.0867,0.0886 -0.0663,0.097 -0.11849,0.20284 -0.16624,0.30993 -0.0533,0.11959 -0.10678,0.24 -0.14167,0.36629 -0.0272,0.0983 -0.0298,0.20157 -0.0258,0.30281 0.009,0.21998 0.0457,0.43794 0.0944,0.65225 0.0749,0.32955 0.17461,0.65399 0.30552,0.96562 0.0868,0.20653 0.18301,0.41106 0.31221,0.59467 0.0689,0.0979 0.14631,0.19282 0.24521,0.26203 0.0483,0.0338 0.10425,0.0555 0.16247,0.0658 0.12454,0.022 0.25257,-0.006 0.36735,-0.0548 0.15659,-0.0672 0.29602,-0.16672 0.43262,-0.26708 0.09,-0.0661 0.18036,-0.13182 0.27253,-0.19499 0.19829,-0.1359 0.35139,-0.33097 0.45337,-0.54751 0.13111,-0.2784 0.18673,-0.58723 0.19505,-0.8932 0.011,-0.40393 -0.0531,-0.80861 -0.17577,-1.19297 -0.10839,-0.33959 -0.26002,-0.66822 -0.47143,-0.95624 -0.14858,-0.20242 -0.32809,-0.38691 -0.5463,-0.51427 -0.17115,-0.0999 -0.36962,-0.15634 -0.56876,-0.14735 -0.19439,0.009 -0.37993,0.0832 -0.54446,0.18464 -0.19794,0.12199 -0.41081,0.22039 -0.59708,0.36073 -0.0995,0.075 -0.19343,0.16298 -0.25059,0.27533 -0.0343,0.0675 -0.0491,0.14346 -0.0486,0.21915 0.005,0.88578 0.0976,1.76772 0.18453,2.64833 0.0362,0.36723 0.0716,0.73458 0.0993,1.10257"
       id="path91"
       inkscape:path-effect="#path-effect93"
       inkscape:original-d="m 338.63322,224.89935 c -0.1951,-1.18066 -0.28387,-2.38389 -0.58531,-3.54196 -0.0705,-0.27096 -0.37907,0.43434 -0.46117,0.70201 -0.17283,0.56357 0.46114,2.68476 1.04648,2.83995 0.38851,0.103 0.76499,-0.27206 1.09969,-0.4946 1.57141,-1.04476 0.10091,-5.17072 -1.63179,-4.08442 -0.3497,0.21925 -0.90639,0.43285 -0.90459,0.8456 0.006,1.25877 0.18928,2.51043 0.28393,3.76565" />
    <path
       style="fill:none;stroke:#000000;stroke-width:0.264583px;stroke-linecap:butt;stroke-linejoin:miter;stroke-opacity:1"
       d="m 322.88284,218.62912 c 0.0507,-0.18643 0.16073,-0.35045 0.21038,-0.53722 0.0231,-0.0867 0.0364,-0.1834 2.7e-4,-0.26681 -0.0208,-0.0481 -0.0738,-0.0703 -0.12082,-0.0838 -0.0936,-0.0268 -0.1916,-0.0323 -0.2884,-0.036 -0.0819,-0.003 -0.16392,9.5e-4 -0.24576,-0.003 -0.14068,-0.007 -0.27778,-0.0506 -0.40094,-0.1185 -0.0969,-0.0534 -0.18216,-0.12464 -0.27533,-0.18376 -0.0582,-0.0369 -0.12467,-0.0699 -0.19569,-0.0631 -0.0729,0.007 -0.13587,0.0511 -0.18731,0.10022 -0.0963,0.0919 -0.1726,0.20231 -0.24325,0.31436 -0.15447,0.24501 -0.30172,0.4961 -0.41699,0.76155 -0.0364,0.0839 -0.0933,0.16065 -0.11264,0.25103 -0.0227,0.10615 -0.0218,0.2158 -0.0156,0.32358 0.0141,0.24567 0.0539,0.48916 0.10277,0.73002 0.0763,0.37561 0.17139,0.74774 0.29246,1.1114 0.0654,0.1963 0.13227,0.39333 0.22647,0.57782 0.0361,0.0707 0.0721,0.14361 0.12728,0.20147 0.10304,0.10812 0.23791,0.18049 0.37706,0.23079 0.21127,0.0764 0.43644,0.11002 0.66042,0.11348 0.23274,0.004 0.46795,-0.0214 0.68988,-0.0934 0.146,-0.0473 0.28883,-0.11489 0.40284,-0.21959 0.0778,-0.0714 0.12688,-0.16786 0.16561,-0.26447 0.0777,-0.19375 0.12371,-0.39859 0.15843,-0.60383 0.0675,-0.39879 0.0965,-0.80341 0.10181,-1.20751 0.006,-0.45701 -0.013,-0.91554 -0.0804,-1.36786 -0.0393,-0.26355 -0.0892,-0.52775 -0.18362,-0.77757 -0.0514,-0.13602 -0.11375,-0.27146 -0.21097,-0.3813 -0.0441,-0.0499 -0.0986,-0.0901 -0.15933,-0.11787 -0.13137,-0.0601 -0.26801,-0.10804 -0.40584,-0.15092 -0.22989,-0.0715 -0.46406,-0.13315 -0.70324,-0.1629 -0.13193,-0.0164 -0.26681,-0.0282 -0.39859,-0.006 -0.0715,0.0121 -0.14538,0.0347 -0.19876,0.0864 -0.0417,0.0404 -0.0591,0.1 -0.0575,0.15719 2.5e-4,0.009 9e-4,0.0178 0.002,0.0267"
       id="path95"
       inkscape:path-effect="#path-effect97"
       inkscape:original-d="m 322.88284,218.62912 c 0.0709,-0.26592 0.29353,-0.53462 0.21286,-0.79774 -0.0419,-0.13647 -0.42725,-0.12764 -0.60307,-0.12764 -0.94575,0 -0.74504,-1.30014 -1.86238,0.98919 -0.20656,0.42322 0.38661,2.67379 0.70946,3.01547 0.42984,0.4549 1.70148,0.45882 2.14617,0.0159 0.56401,-0.56169 0.59179,-4.28899 -0.19511,-4.69071 -0.32536,-0.16611 -1.85653,-0.64969 -1.79141,-0.0638" />
    <path
       style="fill:none;stroke:#000000;stroke-width:0.264583px;stroke-linecap:butt;stroke-linejoin:miter;stroke-opacity:1"
       d="m 323.46815,208.56162 c -0.14746,-0.0503 -0.30863,-0.0615 -0.46104,-0.0269 -0.17821,0.0405 -0.33811,0.1404 -0.46978,0.26497 -0.17461,0.1652 -0.30793,0.3699 -0.41007,0.58633 -0.13499,0.28605 -0.22191,0.59489 -0.25578,0.90925 -0.0268,0.24895 -0.0229,0.50388 0.0372,0.74788 0.045,0.18258 0.12456,0.36043 0.25303,0.49998 0.10114,0.10987 0.23469,0.18792 0.37874,0.22701 0.12427,0.0337 0.25444,0.0356 0.38229,0.0268 0.30172,-0.0205 0.60442,-0.0681 0.88889,-0.17363 0.21523,-0.0798 0.42076,-0.19586 0.58228,-0.36111 0.13051,-0.13352 0.22544,-0.30139 0.27141,-0.48259 0.0537,-0.21153 0.0412,-0.43552 -0.0123,-0.64573 -0.069,-0.27105 -0.20009,-0.52312 -0.36145,-0.7502 -0.22578,-0.31773 -0.5103,-0.59122 -0.82338,-0.82209 z"
       id="path99"
       inkscape:path-effect="#path-effect101"
       inkscape:original-d="m 323.46815,208.56162 c -1.53432,-0.51472 -2.40766,3.33662 -0.60304,3.23883 2.47938,-0.13435 2.20559,-2.05939 0.60304,-3.23883 z" />
    <path
       style="fill:none;stroke:#000000;stroke-width:0.264583px;stroke-linecap:butt;stroke-linejoin:miter;stroke-opacity:1"
       d="m 324.46142,202.35521 c -0.23216,-0.10256 -0.4914,-0.13327 -0.74295,-0.11227 -0.31522,0.0263 -0.62284,0.12712 -0.89692,0.28385 -0.24292,0.13891 -0.46331,0.3228 -0.62649,0.55143 -0.12797,0.1793 -0.21651,0.38957 -0.23786,0.61006 -0.0188,0.19414 0.019,0.39172 0.0994,0.56885 0.0648,0.14281 0.15292,0.27499 0.25844,0.39083 0.10924,0.11992 0.24489,0.22 0.4012,0.26873 0.13958,0.0435 0.29124,0.0392 0.43108,-0.001 0.18053,-0.052 0.3425,-0.1549 0.4838,-0.27669 0.19995,-0.17234 0.36615,-0.38137 0.5035,-0.60601 0.15261,-0.2496 0.27502,-0.51939 0.34762,-0.80316 0.0484,-0.18907 0.0778,-0.38591 0.0587,-0.58109 -0.01,-0.10121 -0.0152,-0.21411 -0.0795,-0.2934 -0.0267,-0.0328 -0.0593,-0.0604 -0.0909,-0.0883 -0.16988,-0.14968 -0.34689,-0.29122 -0.5286,-0.42622 -0.21398,-0.15897 -0.43287,-0.31281 -0.66684,-0.44104 -0.12239,-0.0671 -0.24797,-0.13169 -0.38293,-0.16897 -0.0699,-0.0193 -0.14381,-0.0333 -0.21629,-0.0208 -0.0489,0.008 -0.0948,0.0363 -0.12091,0.0792 -0.0345,0.0567 -0.0399,0.12571 -0.0371,0.19051 0.002,0.0531 0.0106,0.10572 0.0216,0.15765"
       id="path103"
       inkscape:path-effect="#path-effect105"
       inkscape:original-d="m 324.46142,202.35521 c -1.21139,-0.53466 -3.24863,0.83862 -2.23485,2.18581 1.06349,1.4132 2.71383,-1.23409 2.23485,-2.18581 -0.0368,-0.0731 -2.29015,-1.9843 -2.02202,-0.71797" />
    <path
       style="fill:none;stroke:#000000;stroke-width:0.264583px;stroke-linecap:butt;stroke-linejoin:miter;stroke-opacity:1"
       d="m 328.71828,194.34589 c -0.28384,-0.23072 -0.64665,-0.35657 -1.01093,-0.36859 -0.25949,-0.009 -0.52387,0.0386 -0.75649,0.15656 -0.17394,0.0882 -0.32785,0.22134 -0.42601,0.39145 -0.0877,0.15199 -0.12311,0.33054 -0.11361,0.50505 0.0105,0.19282 0.0743,0.37821 0.15448,0.55269 0.0519,0.11294 0.0994,0.23053 0.17945,0.32723 0.0438,0.0529 0.10055,0.0957 0.16593,0.11834 0.1132,0.0392 0.23349,0.0526 0.35246,0.0584 0.26132,0.0127 0.52325,-0.007 0.78223,-0.0414 0.43272,-0.057 0.86094,-0.15053 1.27678,-0.28305 0.33522,-0.10683 0.66593,-0.23488 0.97071,-0.41189 0.18923,-0.1099 0.37169,-0.23744 0.51762,-0.40196 0.10693,-0.12055 0.19181,-0.26609 0.21778,-0.42711 0.0226,-0.14045 -0.009,-0.28416 -0.0677,-0.41287 -0.0449,-0.0993 -0.11498,-0.18484 -0.19398,-0.25891 -0.13281,-0.12451 -0.28631,-0.22479 -0.44474,-0.31331 -0.23968,-0.13392 -0.49192,-0.24442 -0.74945,-0.33902 -0.19851,-0.0729 -0.40146,-0.13552 -0.61034,-0.17124 -0.3368,-0.0576 -0.68822,-0.0457 -1.01564,0.0562 -0.31412,0.0978 -0.60625,0.27866 -0.81641,0.53351 -0.11633,0.14107 -0.20991,0.30532 -0.24859,0.48526 -0.0269,0.12514 -0.0238,0.26073 0.0312,0.37836 0.04,0.0855 0.10889,0.15578 0.19118,0.2014"
       id="path107"
       inkscape:path-effect="#path-effect109"
       inkscape:original-d="m 328.71828,194.34589 c -1.00172,-0.81293 -2.83652,-0.23023 -2.1639,1.21256 0.0806,0.17294 0.15997,0.39151 0.337,0.46269 0.8168,0.32847 4.82738,-0.53356 4.04403,-1.96244 -0.25154,-0.4588 -1.26492,-0.84395 -1.64955,-0.95728 -1.89148,-0.55737 -2.91671,1.16624 -2.18165,1.57952" />
    <path
       style="fill:none;stroke:#000000;stroke-width:0.264583px;stroke-linecap:butt;stroke-linejoin:miter;stroke-opacity:1"
       d="m 331.76903,191.52189 c -0.0611,-0.15456 -0.16715,-0.29057 -0.30203,-0.38786 -0.16525,-0.11919 -0.36533,-0.18136 -0.56585,-0.20624 -0.26856,-0.0333 -0.54182,-0.008 -0.80499,0.0505 -0.34203,0.0764 -0.67291,0.20585 -0.9731,0.38681 -0.21993,0.13258 -0.42699,0.29206 -0.59075,0.49112 -0.1195,0.14526 -0.21525,0.31496 -0.25123,0.5013 -0.0288,0.14907 -0.0114,0.30584 0.0463,0.44614 0.0664,0.16118 0.17827,0.30029 0.30763,0.41539 0.13707,0.12196 0.30727,0.20547 0.48739,0.24071 0.21764,0.0426 0.44352,0.0188 0.65578,-0.0399 0.28056,-0.0775 0.54349,-0.20983 0.78657,-0.36828 0.28012,-0.1826 0.53962,-0.39779 0.7668,-0.64314 0.13417,-0.1449 0.26211,-0.29813 0.35848,-0.47104 0.0457,-0.0819 0.0879,-0.16826 0.10295,-0.26157 0.009,-0.0535 0.005,-0.1125 -0.0272,-0.15863 -0.047,-0.0673 -0.11579,-0.11813 -0.19294,-0.14581 -0.10213,-0.0367 -0.21272,-0.0397 -0.31983,-0.0325 -0.23726,0.0159 -0.46934,0.0779 -0.70725,0.0864 -0.0797,0.003 -0.16282,0.009 -0.23851,-0.017 -0.0541,-0.0186 -0.10576,-0.0433 -0.15779,-0.0668 -0.27177,-0.12281 -0.54597,-0.24422 -0.83414,-0.32324 -0.13833,-0.0379 -0.28032,-0.0698 -0.42436,-0.0694 -0.0896,2.5e-4 -0.18254,0.0134 -0.26076,0.06 -0.0599,0.0357 -0.10894,0.0935 -0.12491,0.16108 -0.01,0.041 -0.0348,0.0914 -0.007,0.1285 0.0292,0.0392 0.0809,0.0502 0.1265,0.0568 0.10445,0.015 0.21052,-0.005 0.31513,0.003 0.0102,8.4e-4 0.0268,-0.005 0.0269,0.0156 0.003,0.62819 -0.0642,1.25381 -0.13448,1.87721 -0.0411,0.36454 -0.0835,0.72902 -0.11389,1.09465"
       id="path111"
       inkscape:path-effect="#path-effect113"
       inkscape:original-d="m 331.76903,191.52189 c -0.62857,-1.56492 -4.66191,0.21469 -3.1749,1.6593 1.14967,1.11689 3.48594,-1.21036 3.1749,-1.6593 -0.27689,-0.39969 -0.97785,-0.0152 -1.45442,-0.11169 -0.13451,-0.0272 -1.73421,-0.91023 -1.82692,-0.15955 -0.0212,0.17225 0.47879,0.0903 0.4789,0.11169 0.006,0.99794 -0.16555,1.98903 -0.24831,2.98355" />
    <path
       style="fill:none;stroke:#000000;stroke-width:0.264583px;stroke-linecap:butt;stroke-linejoin:miter;stroke-opacity:1"
       d="m 330.61613,187.58105 c -0.21984,-0.15438 -0.47538,-0.25974 -0.74252,-0.29465 -0.28846,-0.0377 -0.58387,0.01 -0.85404,0.11408 -0.33508,0.12971 -0.63572,0.3395 -0.88971,0.59193 -0.2385,0.23703 -0.44301,0.51137 -0.58462,0.81696 -0.0928,0.2003 -0.16174,0.41567 -0.17077,0.63756 -0.006,0.15891 0.0236,0.32295 0.10802,0.45987 0.0767,0.12431 0.19882,0.2156 0.33327,0.26976 0.17639,0.0711 0.36944,0.0898 0.55804,0.0844 0.16911,-0.005 0.33764,-0.0257 0.50355,-0.0582 0.23151,-0.0454 0.46069,-0.11879 0.66227,-0.24385 0.15132,-0.0939 0.28202,-0.2199 0.38338,-0.36628 0.12863,-0.18575 0.21132,-0.3987 0.27606,-0.61391 0.039,-0.12958 0.0667,-0.26217 0.10182,-0.39281 0.0326,-0.12122 0.0963,-0.23072 0.15847,-0.33867 0.064,-0.11101 0.13335,-0.22051 0.17579,-0.34209 0.0272,-0.0779 0.0401,-0.16405 0.0171,-0.24487 -0.0169,-0.0593 -0.0539,-0.10998 -0.0925,-0.15687 -0.0937,-0.11374 -0.21907,-0.1969 -0.35129,-0.25944 -0.18665,-0.0883 -0.38654,-0.14272 -0.58359,-0.20214 -0.14691,-0.0443 -0.29229,-0.0943 -0.43261,-0.15708 -0.23403,-0.10469 -0.49361,-0.15508 -0.74995,-0.13489 -0.25468,0.0201 -0.50216,0.11331 -0.70944,0.26244 -0.2286,0.16447 -0.40522,0.39594 -0.51668,0.65374 -0.0631,0.14594 -0.10586,0.30041 -0.12965,0.45753"
       id="path115"
       inkscape:path-effect="#path-effect117"
       inkscape:original-d="m 330.61613,187.58105 c -2.14714,-1.49802 -4.85812,2.98102 -2.022,2.66445 1.22796,-0.13706 1.49093,-0.72696 1.70273,-1.64334 0.0803,-0.34746 0.51017,-0.71989 0.31927,-1.02111 -0.27839,-0.43926 -0.92906,-0.46806 -1.4012,-0.68606 -0.96925,-0.4475 -1.96488,0.14969 -2.12844,1.22852" />
    <path
       style="fill:none;stroke:#000000;stroke-width:0.264583px;stroke-linecap:butt;stroke-linejoin:miter;stroke-opacity:1"
       d="m 332.35437,180.30565 c -0.52448,0.0551 -1.04613,0.16457 -1.53718,0.35978 -0.41366,0.16445 -0.80444,0.39417 -1.13149,0.69804 -0.25315,0.23521 -0.45901,0.51809 -0.62035,0.82366 -0.10073,0.19078 -0.22881,0.36777 -0.30661,0.57012 -0.0425,0.11054 -0.069,0.23268 -0.0433,0.35025 0.0187,0.0856 0.0592,0.16535 0.10685,0.23819 0.11451,0.17497 0.2899,0.30197 0.47875,0.38672 0.25587,0.11482 0.5357,0.16647 0.81401,0.18587 0.41928,0.0292 0.84138,-0.008 1.25346,-0.0864 0.44655,-0.0854 0.88623,-0.2156 1.29919,-0.40667 0.2672,-0.12363 0.52761,-0.26942 0.75027,-0.46351 0.14601,-0.12727 0.27809,-0.27746 0.35469,-0.45755 0.0408,-0.0958 0.0556,-0.20035 0.0552,-0.30425 -0.001,-0.30255 -0.0971,-0.59902 -0.24596,-0.86031 -0.18927,-0.33227 -0.45796,-0.61677 -0.76944,-0.83706 -0.28538,-0.20183 -0.60998,-0.35422 -0.95495,-0.41805 -0.26886,-0.0498 -0.55242,-0.0398 -0.81093,0.0544 -0.1665,0.0607 -0.31951,0.15675 -0.44817,0.27845"
       id="path119"
       inkscape:path-effect="#path-effect121"
       inkscape:original-d="m 332.35437,180.30565 c -1.29244,0.13477 -2.63994,0.62047 -3.28134,1.86672 -0.16171,0.31421 -0.46371,0.67526 -0.337,1.00515 0.58997,1.53622 5.0315,0.45244 5.0905,-0.90942 0.063,-1.45518 -2.10494,-2.90921 -3.22812,-1.85076" />
    <path
       style="fill:none;stroke:#000000;stroke-width:0.264583px;stroke-linecap:butt;stroke-linejoin:miter;stroke-opacity:1"
       d="m 333.32988,173.46104 c -0.24997,-0.0377 -0.50877,-0.005 -0.74391,0.087 -0.29252,0.11471 -0.54599,0.31341 -0.75389,0.54646 -0.26839,0.30086 -0.47078,0.65716 -0.61248,1.03351 -0.14932,0.39659 -0.23703,0.81897 -0.23585,1.24346 9e-4,0.32474 0.0549,0.65371 0.19232,0.94995 0.10687,0.23045 0.27113,0.43511 0.47899,0.58258 0.0984,0.0698 0.20702,0.12693 0.32477,0.15637 0.20051,0.0501 0.41249,0.0289 0.60922,-0.0274 0.27302,-0.0782 0.52572,-0.21593 0.75658,-0.37928 0.33731,-0.23868 0.63643,-0.53034 0.88938,-0.85659 0.21988,-0.2836 0.41038,-0.59373 0.53445,-0.9314 0.0871,-0.23708 0.14238,-0.4904 0.12559,-0.74415 -0.0129,-0.19514 -0.0721,-0.39226 -0.19467,-0.54591 -0.0614,-0.077 -0.12513,-0.15991 -0.21391,-0.20538 -0.0832,-0.0426 -0.17374,-0.0686 -0.26434,-0.0898 -0.19693,-0.0461 -0.39866,-0.0726 -0.6008,-0.0772 -0.14551,-0.003 -0.29316,-2.4e-4 -0.43491,0.0351 -0.0755,0.0188 -0.1523,0.0458 -0.21108,0.0988 -0.0396,0.0357 -0.0623,0.0885 -0.0607,0.14208 5.2e-4,0.0171 0.003,0.0342 0.007,0.0508"
       id="path123"
       inkscape:path-effect="#path-effect125"
       inkscape:original-d="m 333.32988,173.46104 c -1.97265,-0.28922 -3.25093,3.55386 -1.56085,4.51521 1.31225,0.74643 4.12752,-2.43301 2.76696,-3.57388 -0.23535,-0.19736 -1.73898,-0.378 -1.61404,0.12764" />
    <path
       style="fill:none;stroke:#000000;stroke-width:0.264583px;stroke-linecap:butt;stroke-linejoin:miter;stroke-opacity:1"
       d="m 337.4626,164.90926 c -0.21782,-0.1837 -0.46655,-0.33859 -0.74341,-0.41439 -0.21461,-0.0588 -0.44515,-0.0602 -0.65954,0.001 -0.24819,0.0713 -0.46756,0.22268 -0.64376,0.40904 -0.22584,0.23887 -0.39112,0.53132 -0.49773,0.84116 -0.0995,0.2891 -0.15297,0.59708 -0.1326,0.90304 0.0148,0.22272 0.0712,0.44701 0.19204,0.63692 0.094,0.14778 0.23168,0.2679 0.39275,0.33735 0.10962,0.0473 0.22757,0.0793 0.34701,0.0829 0.15183,0.005 0.30218,-0.0291 0.44576,-0.0755 0.26143,-0.0845 0.50871,-0.20817 0.74391,-0.34905 0.33883,-0.20296 0.65801,-0.43986 0.94535,-0.71092 0.20515,-0.19353 0.39906,-0.40247 0.55049,-0.64122 0.0929,-0.14652 0.17303,-0.30529 0.205,-0.47717 0.0224,-0.12063 0.0141,-0.24955 -0.0398,-0.36134 -0.0573,-0.11877 -0.16032,-0.21094 -0.27624,-0.26988 -0.0586,-0.0298 -0.118,-0.0624 -0.18337,-0.0742 -0.0928,-0.0169 -0.18723,0.005 -0.27521,0.0347 -0.12393,0.0412 -0.26698,0.20763 -0.37063,0.12716 -0.36328,-0.28202 -0.67145,-0.62833 -1.04025,-0.90366 -0.15736,-0.11748 -0.32155,-0.23431 -0.50872,-0.29514 -0.0476,-0.0155 -0.0991,-8.7e-4 -0.14231,0.0203 -0.0861,0.0422 -0.15873,0.10857 -0.21655,0.1843 -0.0614,0.0804 -0.10896,0.17467 -0.12029,0.27629 -0.008,0.0742 0.01,0.15142 0.0536,0.21244 0.0551,0.0769 0.1408,0.12533 0.22803,0.15736 0.0545,0.02 0.11092,0.0342 0.1679,0.045"
       id="path127"
       inkscape:path-effect="#path-effect129"
       inkscape:original-d="m 337.4626,164.90926 c -2.20896,-1.86541 -3.71891,2.53569 -1.80917,2.79209 1.05293,0.14137 4.10334,-2.30212 2.51865,-2.93568 -0.22405,-0.0896 -0.473,0.0957 -0.70948,0.14359 -0.51438,-0.39887 -0.94094,-0.94953 -1.54313,-1.19661 -0.24569,-0.10081 -0.94062,0.72384 -0.0355,0.89347" />
    <path
       style="fill:none;stroke:#000000;stroke-width:0.264583px;stroke-linecap:butt;stroke-linejoin:miter;stroke-opacity:1"
       d="m 344.46868,161.86189 c -0.29612,0.14532 -0.58755,0.30417 -0.85235,0.50173 -0.16714,0.1247 -0.32771,0.26319 -0.45023,0.43319 -0.081,0.11243 -0.14485,0.24202 -0.1587,0.38165 -0.0111,0.11154 0.0173,0.2253 0.075,0.32107 0.0726,0.12034 0.1831,0.21338 0.30296,0.28421 0.17252,0.10195 0.36577,0.16571 0.56243,0.20062 0.21759,0.0386 0.44248,0.0457 0.6603,0.006 0.15313,-0.0281 0.30472,-0.0797 0.43245,-0.17064 0.0953,-0.0678 0.17316,-0.16121 0.21684,-0.27029 0.0502,-0.1255 0.0529,-0.26548 0.028,-0.39699 -0.036,-0.19014 -0.11945,-0.36794 -0.21862,-0.53272 -0.1475,-0.24508 -0.32985,-0.46726 -0.523,-0.67749 0,0 -0.0371,-0.0398 -0.0371,-0.0398 0,0 -0.0381,-0.0403 -0.0381,-0.0403 z"
       id="path131"
       inkscape:path-effect="#path-effect133"
       inkscape:original-d="m 344.46868,161.86189 c -4.55816,2.22618 3.29155,3.45431 0,0 z" />
    <path
       style="fill:none;stroke:#000000;stroke-width:0.264583px;stroke-linecap:butt;stroke-linejoin:miter;stroke-opacity:1"
       d="m 347.21789,148.7949 c -0.33769,0.18055 -0.65706,0.40522 -0.91027,0.69481 -0.19452,0.22247 -0.34592,0.48753 -0.41203,0.77735 -0.0587,0.25737 -0.0419,0.53125 0.0489,0.77946 0.10583,0.2893 0.31152,0.53702 0.5659,0.70895 0.28141,0.1902 0.62112,0.2855 0.95957,0.29071 0.36389,0.006 0.72448,-0.0911 1.0495,-0.25136 0.26614,-0.1312 0.51287,-0.30107 0.73361,-0.49901 0.23694,-0.21246 0.44195,-0.4664 0.57061,-0.75935 0.10647,-0.24242 0.15327,-0.51059 0.13459,-0.77484 -0.0242,-0.34172 -0.1513,-0.67231 -0.34554,-0.95281 -0.10849,-0.15667 -0.23524,-0.30361 -0.38948,-0.41646 -0.0708,-0.0518 -0.14711,-0.10007 -0.23289,-0.12202 -0.0393,-0.0101 -0.0813,-0.0103 -0.12039,0.003 -0.13001,0.0442 -0.23683,0.13389 -0.35315,0.20392 -0.0361,0.0217 -0.0706,0.0454 -0.11334,0.0549 -0.39521,0.0876 -0.79041,0.17518 -1.18562,0.26276 z"
       id="path135"
       inkscape:path-effect="#path-effect137"
       inkscape:original-d="m 347.21789,148.7949 c -2.89616,1.54466 -0.60997,4.45624 1.77369,2.71232 2.032,-1.48664 0.30871,-3.36686 -0.10639,-3.23883 -0.16299,0.0503 -0.29562,0.17018 -0.44344,0.25527 -0.40794,0.0904 -0.8159,0.18083 -1.22386,0.27124 z" />
    <path
       style="fill:none;stroke:#000000;stroke-width:0.264583px;stroke-linecap:butt;stroke-linejoin:miter;stroke-opacity:1"
       d="m 342.83689,143.60958 c -0.30132,-0.0294 -0.60197,-0.0654 -0.90198,-0.10623 -0.0713,-0.01 -0.14382,-0.0199 -0.21566,-0.008 -0.0977,0.016 -0.1947,0.0362 -0.29237,0.0525 -0.18138,0.0303 -0.36329,0.0582 -0.54643,0.0757 -0.38646,0.037 -0.77663,0.0505 -1.15777,0.12918 -0.21524,0.0444 -0.42891,0.1104 -0.61894,0.22332 -0.19519,0.11599 -0.36017,0.28487 -0.46238,0.48871 -0.11643,0.2322 -0.14806,0.49891 -0.12526,0.75541 0.0302,0.33982 0.14333,0.66786 0.29717,0.97054 0.22035,0.43352 0.52064,0.82553 0.87592,1.15687 0.32526,0.30334 0.69902,0.56114 1.11545,0.72179 0.32356,0.12482 0.67681,0.1845 1.02284,0.13966 0.30207,-0.0391 0.58974,-0.1654 0.8312,-0.35003 0.28488,-0.21783 0.51404,-0.50391 0.68314,-0.81797 0.0777,-0.14429 0.10053,-0.31127 0.0982,-0.47323 -0.003,-0.22465 -0.0533,-0.44492 -0.10418,-0.66273 -0.0588,-0.25191 -0.10345,-0.50689 -0.16147,-0.75894 -0.0279,-0.12103 -0.055,-0.24364 -0.10661,-0.35715 -0.0323,-0.071 -0.0793,-0.14022 -0.15022,-0.1772 -0.0767,-0.0399 -0.16705,-0.0389 -0.25021,-0.0257 -0.14267,0.0226 -0.27981,0.0708 -0.41406,0.12264 -0.1653,0.0638 -0.32912,0.13164 -0.49041,0.20501 -0.20826,0.0947 -0.41156,0.20657 -0.58397,0.35878 -0.15069,0.13303 -0.27161,0.29716 -0.36405,0.47513"
       id="path139"
       inkscape:path-effect="#path-effect141"
       inkscape:original-d="m 342.83689,143.60958 c -1.50341,-0.14791 -0.6708,-0.16611 -1.70275,-0.016 -0.60783,0.0884 -1.45727,0.0532 -2.0043,0.36696 -2.25364,1.29272 2.20761,6.57741 4.20368,3.09523 0.18129,-0.31626 0.0925,-0.76779 0.0177,-1.08492 -0.3361,-1.42531 -0.13316,-1.68669 -1.48989,-1.10089 -0.47713,0.20602 -0.80518,0.41626 -1.04648,0.87752" />
    <path
       style="fill:none;stroke:#000000;stroke-width:0.264583px;stroke-linecap:butt;stroke-linejoin:miter;stroke-opacity:1"
       d="m 315.522,234.89075 c -0.23694,0.0942 -0.4661,0.21769 -0.65402,0.39231 -0.14034,0.13041 -0.251,0.29088 -0.33032,0.46493 -0.10422,0.22868 -0.1617,0.47499 -0.20967,0.72057 -0.0326,0.1671 -0.0652,0.33428 -0.0923,0.50236 -0.0426,0.26431 -0.0417,0.54028 0.0385,0.79783 0.065,0.20864 0.18785,0.39788 0.34933,0.54496 0.20423,0.18602 0.46083,0.30598 0.72553,0.37796 0.33538,0.0912 0.68705,0.11599 1.0328,0.0894 0.26128,-0.0201 0.52314,-0.0639 0.76894,-0.15637 0.12894,-0.0485 0.25652,-0.10839 0.36152,-0.19924 0.0639,-0.0553 0.1084,-0.12834 0.15513,-0.1977 0.22555,-0.33477 0.39356,-0.71144 0.4686,-1.10932 0.0667,-0.35371 0.054,-0.72141 -0.0331,-1.07061 -0.10008,-0.40125 -0.2999,-0.77164 -0.54728,-1.10143 -0.0543,-0.0724 -0.11489,-0.13981 -0.1716,-0.21032 -0.15248,-0.18958 -0.27516,-0.40245 -0.4415,-0.58092 -0.0916,-0.0983 -0.19945,-0.18706 -0.329,-0.2289 -0.10067,-0.0325 -0.21277,-0.0353 -0.31237,0.004 -0.11094,0.0432 -0.1998,0.12727 -0.27367,0.21831 -0.11761,0.14495 -0.20762,0.30921 -0.3066,0.4668 -0.0603,0.096 -0.12298,0.19131 -0.19894,0.27584 z"
       id="path143"
       inkscape:path-effect="#path-effect145"
       inkscape:original-d="m 315.522,234.89075 c -1.02177,0.40556 -1.0962,1.03662 -1.27704,2.02625 -0.42413,2.32071 2.86866,2.07086 3.33454,1.43594 0.86792,-1.18289 0.77476,-2.48614 -0.15965,-3.57388 -0.27932,-0.32515 -0.51199,-0.85486 -0.94003,-0.87751 -0.45834,-0.0243 -0.65017,0.6486 -0.95782,0.9892 z" />
    <path
       style="fill:none;stroke:#000000;stroke-width:0.264583px;stroke-linecap:butt;stroke-linejoin:miter;stroke-opacity:1"
       d="m 316.44433,241.0174 c -0.14989,-0.12927 -0.32253,-0.23888 -0.51618,-0.28799 -0.14965,-0.0379 -0.31053,-0.0305 -0.45553,0.0235 -0.18127,0.0675 -0.33203,0.19934 -0.44823,0.35148 -0.15975,0.20916 -0.2659,0.45569 -0.3294,0.70996 -0.076,0.30417 -0.0959,0.62461 -0.0408,0.93395 0.0435,0.24428 0.13867,0.48337 0.29892,0.67524 0.0798,0.0956 0.17806,0.17409 0.28354,0.23993 0.28883,0.18027 0.62649,0.27235 0.96472,0.29321 0.41252,0.0254 0.82745,-0.0451 1.21695,-0.17939 0.39368,-0.1357 0.76822,-0.33299 1.09214,-0.59543 0.2258,-0.18294 0.43067,-0.39787 0.5736,-0.6525 0.10745,-0.19142 0.17537,-0.40978 0.16652,-0.63114 -0.007,-0.18653 -0.0755,-0.36768 -0.18231,-0.51994 -0.14484,-0.20654 -0.34864,-0.36467 -0.56599,-0.48857 -0.17157,-0.0978 -0.35186,-0.18083 -0.53858,-0.24519 -0.19087,-0.0658 -0.39217,-0.11182 -0.5951,-0.1027 -0.087,0.004 -0.17453,0.0169 -0.25588,0.0496 -0.13787,0.0553 -0.25525,0.14865 -0.37265,0.23743 -0.10043,0.076 -0.2048,0.14811 -0.32046,0.19966 -0.51887,0.23125 -1.05983,0.40703 -1.58939,0.6112"
       id="path147"
       inkscape:path-effect="#path-effect149"
       inkscape:original-d="m 316.44433,241.0174 c -1.48724,-1.28535 -2.49734,1.76121 -1.27706,2.60062 1.95056,1.34175 6.01525,-1.5876 3.0153,-2.88781 -0.2925,-0.12677 -0.62558,-0.22747 -0.94007,-0.1755 -0.30342,0.0501 -0.51771,0.33655 -0.79817,0.46269 -0.52588,0.23652 -1.07606,0.41483 -1.61406,0.62224" />
    <path
       style="fill:none;stroke:#000000;stroke-width:0.264583px;stroke-linecap:butt;stroke-linejoin:miter;stroke-opacity:1"
       d="m 293.47501,246.64944 c -0.17681,-0.004 -0.35357,-0.0145 -0.53042,-0.0117 -0.0865,0.001 -0.17562,0.002 -0.25759,0.0324 -0.0826,0.031 -0.14754,0.0935 -0.21129,0.15209 -0.10741,0.0987 -0.21445,0.19852 -0.33121,0.28611 -0.14528,0.10898 -0.30512,0.19633 -0.46443,0.28268 -0.26371,0.14294 -0.53385,0.2771 -0.77828,0.45212 -0.14142,0.10126 -0.27712,0.21603 -0.37567,0.36086 -0.0632,0.0929 -0.10754,0.19995 -0.11959,0.31222 -0.0324,0.30172 -0.0137,0.61435 0.0952,0.90017 0.0889,0.2335 0.24488,0.43988 0.44292,0.59216 0.24697,0.1899 0.54863,0.29742 0.85404,0.34613 0.4009,0.0639 0.81309,0.038 1.20797,-0.0509 0.42055,-0.0946 0.8288,-0.25724 1.18622,-0.49976 0.26156,-0.17748 0.49757,-0.40074 0.65959,-0.67437 0.129,-0.21787 0.2007,-0.47034 0.19701,-0.72435 -0.003,-0.23005 -0.071,-0.45463 -0.17021,-0.66104 -0.0906,-0.18862 -0.21105,-0.36409 -0.36319,-0.50865 -0.1634,-0.15526 -0.35966,-0.27066 -0.56117,-0.36903 -0.21293,-0.10394 -0.43113,-0.19653 -0.6484,-0.29085 -0.27265,-0.11836 -0.54342,-0.24227 -0.82343,-0.34235 -0.14621,-0.0523 -0.29507,-0.10276 -0.45002,-0.12034 -0.1,-0.0113 -0.20596,-0.005 -0.29656,0.0428 -0.0933,0.0493 -0.15887,0.13742 -0.20607,0.22953 -0.0711,0.13868 -0.11571,0.289 -0.1551,0.43914 -0.0582,0.22181 -0.10504,0.44639 -0.15289,0.67059"
       id="path151"
       inkscape:path-effect="#path-effect153"
       inkscape:original-d="m 293.47501,246.64944 c -0.99155,-0.0242 -0.6939,-0.0583 -1.29479,0.43078 -0.49162,0.40011 -1.70037,0.74987 -1.77369,1.43593 -0.3465,3.24177 5.61509,1.79407 4.50517,-0.702 -0.30258,-0.68047 -0.74634,-0.8625 -1.43669,-1.16471 -1.85343,-0.81137 -1.8941,-0.84737 -2.25258,0.84561" />
    <path
       style="fill:none;stroke:#000000;stroke-width:0.264583px;stroke-linecap:butt;stroke-linejoin:miter;stroke-opacity:1"
       d="m 298.51231,246.53775 c -0.33737,0.18568 -0.63648,0.44496 -0.85343,0.76473 -0.22972,0.3386 -0.35902,0.73677 -0.41545,1.13984 -0.0718,0.5126 -0.0396,1.03357 0.0283,1.54469 0.0626,0.47089 0.17238,0.93378 0.25349,1.40155 0.0404,0.23329 0.0321,0.47131 0.0237,0.70684 -0.0108,0.30262 -0.0323,0.6074 0.008,0.90876 0.0271,0.2025 0.089,0.4053 0.213,0.57094 0.0583,0.0778 0.13277,0.14283 0.21778,0.19015 0.17012,0.0947 0.36144,0.14441 0.55254,0.17423 0.28295,0.0442 0.57663,0.0504 0.85495,-0.0267 0.24619,-0.0682 0.46911,-0.21168 0.63834,-0.40274 0.21655,-0.24448 0.35117,-0.5502 0.43931,-0.8617 0.125,-0.44179 0.16964,-0.90177 0.18742,-1.35913 0.0204,-0.52443 -0.001,-1.04906 -0.007,-1.57354 -0.006,-0.60361 -0.009,-1.2108 -0.10826,-1.80792 -0.0746,-0.44855 -0.21196,-0.89097 -0.44421,-1.28414 -0.20847,-0.35291 -0.48898,-0.66456 -0.82266,-0.90188 -0.16508,-0.11741 -0.36001,-0.20616 -0.56619,-0.20698 -0.18136,-7.2e-4 -0.35497,0.0755 -0.49707,0.18443 -0.20249,0.1552 -0.3581,0.36174 -0.49688,0.57352 -0.19986,0.30498 -0.35534,0.6362 -0.54724,0.94584 -0.0693,0.11175 -0.13879,0.22676 -0.23695,0.31574 -0.0469,0.0425 -0.10722,0.0751 -0.17353,0.0719 -0.50466,-0.0247 -0.99722,-0.155 -1.47389,-0.31603 -0.60695,-0.20504 -1.19601,-0.46161 -1.8118,-0.64062"
       id="path155"
       inkscape:path-effect="#path-effect157"
       inkscape:original-d="m 298.51231,246.53775 c -1.78451,0.98982 -1.33877,3.12854 -0.99328,4.81837 0.14026,0.6861 -0.2064,1.764 0.31928,2.29749 0.24132,0.24491 0.79779,0.31909 1.09968,0.31909 1.87053,0 1.74194,-2.59372 1.72048,-3.86106 -0.0272,-1.60811 0.0855,-3.24521 -1.31254,-4.33971 -1.45084,-1.13589 -2.0319,1.85954 -2.57183,1.8348 -1.14387,-0.0524 -2.1994,-0.63819 -3.29909,-0.95729" />
    <path
       style="fill:none;stroke:#000000;stroke-width:0.264583px;stroke-linecap:butt;stroke-linejoin:miter;stroke-opacity:1"
       d="m 305.41195,259.57284 c -0.13904,0.14119 -0.29426,0.26495 -0.43909,0.39995 -0.13219,0.12321 -0.25871,0.25601 -0.35028,0.41296 -0.0548,0.094 -0.0956,0.19671 -0.11519,0.30392 -0.075,0.4098 -0.13437,0.82503 -0.13092,1.24235 0.002,0.2695 0.0242,0.54434 0.11924,0.79866 0.0612,0.16393 0.16194,0.31997 0.3123,0.41541 0.13218,0.0839 0.29434,0.10841 0.44824,0.0926 0.20711,-0.0213 0.40402,-0.10032 0.58482,-0.20037 0.28532,-0.15789 0.54082,-0.36567 0.76935,-0.59715 0.27819,-0.28178 0.5237,-0.59836 0.71043,-0.94801 0.12823,-0.24011 0.2328,-0.49703 0.27287,-0.76757 0.0292,-0.19713 0.0192,-0.40465 -0.0593,-0.5902 -0.0712,-0.16829 -0.20404,-0.30546 -0.36085,-0.39706 -0.21582,-0.12607 -0.4653,-0.18122 -0.7118,-0.20439 -0.34977,-0.0329 -0.70249,-0.007 -1.04982,0.0389 z"
       id="path159"
       inkscape:path-effect="#path-effect161"
       inkscape:original-d="m 305.41195,259.57284 c -0.31462,0.32161 -0.8129,0.62217 -0.90456,1.11683 -1.23523,6.66657 6.82633,-1.92086 0.90456,-1.11683 z" />
    <path
       style="fill:none;stroke:#000000;stroke-width:0.264583px;stroke-linecap:butt;stroke-linejoin:miter;stroke-opacity:1"
       d="m 329.49872,245.74003 c -0.17634,-0.005 -0.35504,4.4e-4 -0.5271,0.0428 -0.12435,0.0306 -0.24479,0.0866 -0.33821,0.17593 -0.0958,0.0916 -0.15734,0.21263 -0.20048,0.33647 -0.0582,0.1672 -0.0937,0.34109 -0.12995,0.51403 -0.0251,0.11976 -0.0541,0.23865 -0.0796,0.35832 -0.0946,0.44399 -0.10108,0.91067 0.0109,1.35208 0.0831,0.32737 0.23391,0.64153 0.46104,0.89376 0.17988,0.19976 0.41152,0.35415 0.66903,0.43418 0.25106,0.078 0.52176,0.0808 0.77799,0.0264 0.32307,-0.0685 0.62922,-0.21202 0.89256,-0.40844 0.0813,-0.0606 0.17275,-0.1116 0.23999,-0.188 0.0679,-0.0772 0.1135,-0.17099 0.15156,-0.26555 0.0803,-0.19963 0.13327,-0.4092 0.17485,-0.61992 0.074,-0.3752 0.11624,-0.75669 0.12757,-1.13885 0.009,-0.29928 0.004,-0.60051 -0.0428,-0.89669 -0.0257,-0.16315 -0.0603,-0.32716 -0.12991,-0.47775 -0.0408,-0.0884 -0.0974,-0.17149 -0.17612,-0.23117 -0.14922,-0.11313 -0.31832,-0.20533 -0.50301,-0.24414 -0.14743,-0.031 -0.30078,-0.0228 -0.44725,0.01 -0.19599,0.0433 -0.38192,0.12081 -0.56807,0.19403 -0.11993,0.0472 -0.24045,0.0932 -0.36305,0.13292 z"
       id="path163"
       inkscape:path-effect="#path-effect165"
       inkscape:original-d="m 329.49872,245.74003 c -1.08813,-0.0325 -1.05005,0.46724 -1.25934,1.35615 -0.47913,2.03527 1.06831,3.77043 2.99754,2.21772 0.46837,-0.37696 0.75462,-3.19355 0.15963,-3.65365 -0.70353,-0.54403 -1.1679,-0.15704 -1.89783,0.0798 z" />
    <path
       style="fill:none;stroke:#000000;stroke-width:0.264583px;stroke-linecap:butt;stroke-linejoin:miter;stroke-opacity:1"
       d="m 335.51153,236.78937 c 0.0918,-0.0713 0.1689,-0.16637 0.20279,-0.27917 0.0332,-0.11057 0.0192,-0.23055 -0.0216,-0.33715 -0.0567,-0.14828 -0.15512,-0.27716 -0.26705,-0.38807 -0.16215,-0.16068 -0.35334,-0.29171 -0.5601,-0.38786 -0.16227,-0.0755 -0.33555,-0.13343 -0.51486,-0.14663 -0.12225,-0.009 -0.2502,0.005 -0.35958,0.0637 -0.0681,0.0369 -0.12196,0.0952 -0.16328,0.16038 -0.0931,0.14693 -0.14518,0.31904 -0.14999,0.49299 -0.006,0.21497 0.0558,0.42707 0.15135,0.618 0.12589,0.25163 0.30533,0.47381 0.51017,0.66534 0.22805,0.21323 0.48764,0.39481 0.77224,0.52392 0.19292,0.0875 0.39875,0.15197 0.61099,0.16826 0.0955,0.007 0.1912,-0.003 0.28565,-0.0174 0.26081,-0.0404 0.52087,-0.10943 0.75331,-0.23733 0.17565,-0.0966 0.33281,-0.23269 0.43718,-0.40555 0.0981,-0.16243 0.14166,-0.3542 0.13675,-0.54312 -0.006,-0.24223 -0.0836,-0.47819 -0.19655,-0.69081 -0.15721,-0.2958 -0.38057,-0.55419 -0.64025,-0.76457 -0.31229,-0.253 -0.68188,-0.44053 -1.07735,-0.5191 -0.0814,-0.0162 -0.16466,-0.0295 -0.24805,-0.021 -0.14855,0.0152 -0.28707,0.0813 -0.40906,0.16454 -0.1752,0.11959 -0.32564,0.27174 -0.46217,0.43308 -0.21787,0.25746 -0.40479,0.53939 -0.57901,0.82768 -0.14543,0.24066 -0.27822,0.4886 -0.413,0.73531 -0.0168,0.0308 -0.0337,0.0615 -0.0511,0.092"
       id="path167"
       inkscape:path-effect="#path-effect169"
       inkscape:original-d="m 335.51153,236.78937 c 0.89755,-0.70368 -1.19287,-2.0514 -1.66727,-1.3402 -0.72147,1.0816 1.06992,2.61673 2.07521,2.48895 2.57048,-0.32673 1.1956,-2.92758 -0.60304,-3.19097 -0.86974,-0.12735 -1.80621,1.8101 -2.05748,2.24963" />
    <path
       style="fill:none;stroke:#000000;stroke-width:0.264583px;stroke-linecap:butt;stroke-linejoin:miter;stroke-opacity:1"
       d="m 348.79647,250.60624 c -0.26136,0.0346 -0.50781,0.15144 -0.7114,0.3173 -0.26303,0.21428 -0.46054,0.50115 -0.59522,0.81063 -0.1574,0.3617 -0.23751,0.75895 -0.21938,1.15352 0.0142,0.30951 0.0929,0.6206 0.25742,0.88555 0.13064,0.21036 0.32168,0.38035 0.54186,0.49397 0.13158,0.0679 0.27593,0.10827 0.4224,0.12736 0.26171,0.0341 0.5274,0.015 0.78729,-0.0244 0.41975,-0.0636 0.82976,-0.17773 1.2352,-0.30152 0.29462,-0.09 0.58626,-0.18935 0.88133,-0.27785 0.1197,-0.0359 0.24147,-0.0645 0.3645,-0.0867 0.11789,-0.0213 0.23774,-0.0334 0.35347,-0.0652 0.0769,-0.0211 0.15479,-0.0569 0.20274,-0.12343 0.0519,-0.072 0.0652,-0.16336 0.0656,-0.24995 4.2e-4,-0.0976 -0.0102,-0.19492 -0.0195,-0.29196 -0.0464,-0.48135 -0.13488,-0.96255 -0.31074,-1.41464 -0.13911,-0.35762 -0.3402,-0.69331 -0.60605,-0.97155 -0.26038,-0.27252 -0.58124,-0.48265 -0.92532,-0.63408 -0.43331,-0.1907 -0.89887,-0.29789 -1.36656,-0.36093 -0.18711,-0.0252 -0.37479,-0.0494 -0.56341,-0.058 -0.22591,-0.0103 -0.4581,0.0354 -0.65352,0.15233 -0.13958,0.0835 -0.25789,0.20785 -0.31912,0.36018 -0.0523,0.13001 -0.0548,0.27688 -0.0166,0.41114 0.0301,0.10572 0.0834,0.20376 0.14867,0.29178"
       id="path171"
       inkscape:path-effect="#path-effect173"
       inkscape:original-d="m 348.79647,250.60624 c -1.54889,0.21078 -2.18625,3.05181 -0.63852,3.70151 0.89369,0.37515 2.65039,-0.36959 3.38776,-0.55842 0.52144,-0.13352 0.87267,-0.0213 0.83364,-0.57436 -0.17629,-2.4974 -1.32627,-3.44817 -3.7425,-3.63771 -0.79338,-0.0622 -1.36591,0.56621 -0.88683,1.21257" />
    <path
       style="fill:none;stroke:#000000;stroke-width:0.264583px;stroke-linecap:butt;stroke-linejoin:miter;stroke-opacity:1"
       d="m 351.4925,239.78887 c -0.16658,0.15333 -0.34466,0.29335 -0.52182,0.43414 -0.12406,0.0986 -0.25027,0.19642 -0.35621,0.31504 -0.0794,0.0889 -0.14217,0.19291 -0.17979,0.30623 -0.0529,0.15928 -0.0629,0.32934 -0.0566,0.49584 0.008,0.2155 0.0316,0.43253 0.0998,0.63818 0.0602,0.18181 0.16,0.35392 0.30548,0.48096 0.13297,0.11612 0.30224,0.18579 0.47619,0.21071 0.22664,0.0325 0.45822,-0.001 0.67569,-0.0677 0.30739,-0.0938 0.59395,-0.24822 0.85419,-0.43531 0.35058,-0.25204 0.65986,-0.563 0.90363,-0.91961 0.18108,-0.2649 0.32809,-0.55604 0.41075,-0.86682 0.0341,-0.12836 0.0343,-0.26703 -0.009,-0.39336 -0.0496,-0.14319 -0.15067,-0.26288 -0.26717,-0.35709 -0.1615,-0.1306 -0.35008,-0.22332 -0.54322,-0.29695 -0.29416,-0.11215 -0.60168,-0.18594 -0.91157,-0.23866 -0.23904,-0.0407 -0.47972,-0.0781 -0.72213,-0.0858 -0.0348,-0.001 -0.0928,-0.0345 -0.10458,-0.002 -0.0476,0.13316 -0.0538,0.27634 -0.0527,0.41642 9.5e-4,0.12177 0.008,0.24372 -4.8e-4,0.36536 z"
       id="path175"
       inkscape:path-effect="#path-effect177"
       inkscape:original-d="m 351.4925,239.78887 c -0.79494,0.72783 -1.2037,0.70693 -1.09969,1.77099 0.21902,2.24098 3.17624,0.74506 3.70702,-1.1647 0.34772,-1.25116 -2.54735,-1.40703 -2.55412,-1.38807 -0.0877,0.24602 -0.0355,0.52119 -0.0532,0.78178 z" />
    <path
       style="fill:none;stroke:#000000;stroke-width:0.264583px;stroke-linecap:butt;stroke-linejoin:miter;stroke-opacity:1"
       d="m 350.39281,220.27614 c -0.19895,-0.05 -0.37842,-0.15792 -0.57899,-0.20253 -0.0977,-0.0217 -0.20301,-0.0273 -0.29801,0.008 -0.0948,0.0351 -0.17663,0.0977 -0.24987,0.16595 -0.13518,0.126 -0.24942,0.2727 -0.35301,0.42516 -0.16159,0.23783 -0.30201,0.49016 -0.4185,0.75295 -0.0734,0.16556 -0.14198,0.33453 -0.18377,0.51105 -0.0195,0.0823 -0.0322,0.16692 -0.0268,0.25201 0.018,0.28021 0.0862,0.56152 0.22957,0.80516 0.11859,0.20146 0.29255,0.36911 0.49713,0.48228 0.24976,0.13816 0.53789,0.19616 0.82162,0.19471 0.37918,-0.002 0.75507,-0.10118 1.09355,-0.26983 0.36177,-0.18025 0.68588,-0.44335 0.91783,-0.77613 0.1785,-0.2561 0.30141,-0.55516 0.33006,-0.86658 0.0124,-0.13448 0.0218,-0.2725 -0.009,-0.40532 -0.0405,-0.17563 -0.14578,-0.33037 -0.27628,-0.45212 -0.17441,-0.16272 -0.38858,-0.2774 -0.61109,-0.35949 -0.33278,-0.12277 -0.68807,-0.18088 -1.04218,-0.18288 -0.36209,-0.002 -0.72761,0.0528 -1.06501,0.18724 -0.26811,0.10685 -0.51736,0.26972 -0.70525,0.49089 -0.16391,0.19294 -0.27213,0.43014 -0.32083,0.67814 -0.0379,0.19326 -0.0415,0.39217 -0.0217,0.58776"
       id="path179"
       inkscape:path-effect="#path-effect181"
       inkscape:original-d="m 350.39281,220.27614 c -0.27789,-0.0691 -0.55428,-0.27024 -0.83365,-0.20741 -0.52168,0.11731 -1.30088,1.63989 -1.27704,2.09008 0.13513,2.55301 3.95931,1.55791 3.90213,-0.65415 -0.0383,-1.47977 -4.32742,-1.83089 -4.06178,0.79774" />
    <path
       style="fill:none;stroke:#000000;stroke-width:0.264583px;stroke-linecap:butt;stroke-linejoin:miter;stroke-opacity:1"
       d="m 323.57456,136.98391 c -0.17394,0.16364 -0.35474,0.31972 -0.53449,0.47691 -0.0873,0.0764 -0.17652,0.15149 -0.25359,0.2386 -0.058,0.0656 -0.10402,0.14128 -0.13759,0.22206 -0.0483,0.11634 -0.0804,0.23859 -0.11104,0.36051 -0.0476,0.1892 -0.0932,0.37888 -0.13773,0.56882 -0.0528,0.22533 -0.0529,0.46357 0.006,0.68787 0.0686,0.26047 0.21732,0.49686 0.41343,0.68041 0.21244,0.19883 0.4798,0.34131 0.7663,0.39568 0.2013,0.0382 0.41427,0.0302 0.60723,-0.0423 0.16723,-0.0629 0.31661,-0.17536 0.41826,-0.32297 0.0998,-0.14491 0.16732,-0.30955 0.21833,-0.47712 0.0851,-0.27937 0.12942,-0.57023 0.14352,-0.86153 0.0153,-0.31656 -0.001,-0.63636 -0.0701,-0.94624 -0.0481,-0.21713 -0.12041,-0.43189 -0.2398,-0.62079 -0.0887,-0.14038 -0.20812,-0.26468 -0.35663,-0.34206 -0.1338,-0.0697 -0.28812,-0.0945 -0.43774,-0.0816 -0.12924,0.0111 -0.25638,0.0443 -0.3757,0.0948 -0.17542,0.0743 -0.33015,0.18919 -0.47145,0.31545 -0.23707,0.21183 -0.4418,0.45795 -0.689,0.65872"
       id="path183"
       inkscape:path-effect="#path-effect185"
       inkscape:original-d="m 323.57456,136.98391 c -0.99972,0.93675 -0.85103,0.53099 -1.17062,1.85076 -0.33388,1.37877 1.35491,2.28184 2.11069,1.53166 0.72297,-0.7176 0.73517,-3.95226 -0.94007,-3.38242 -0.50411,0.17148 -0.82772,0.67011 -1.24158,1.00516" />
    <path
       style="fill:none;stroke:#000000;stroke-width:0.264583px;stroke-linecap:butt;stroke-linejoin:miter;stroke-opacity:1"
       d="m 321.83636,142.55214 c -0.21933,0.0293 -0.44394,0.006 -0.66079,0.0546 -0.0739,0.0166 -0.14876,0.0379 -0.21293,0.0789 -0.10231,0.0654 -0.17042,0.17168 -0.21879,0.28051 -0.0813,0.18284 -0.12213,0.38089 -0.1469,0.57847 -0.0447,0.35697 -0.0426,0.71852 -0.0152,1.0767 0.0384,0.50148 0.12172,1.00036 0.25994,1.48408 0.0986,0.34499 0.2204,0.68614 0.39779,0.99893 0.11236,0.19812 0.245,0.39023 0.42313,0.53465 0.0788,0.0639 0.16448,0.12519 0.26268,0.1524 0.0864,0.024 0.17828,0.008 0.26235,-0.017 0.17128,-0.0512 0.32975,-0.13783 0.4788,-0.23498 0.29429,-0.19181 0.56041,-0.4251 0.79932,-0.68197 0.30777,-0.3309 0.57636,-0.70234 0.76622,-1.1135 0.15262,-0.33052 0.25215,-0.69082 0.25084,-1.05696 -0.001,-0.29315 -0.0756,-0.58533 -0.2148,-0.84352 -0.1681,-0.31175 -0.42218,-0.57052 -0.70869,-0.77504 -0.11364,-0.0811 -0.22982,-0.15981 -0.35364,-0.22457 -0.18455,-0.0965 -0.38969,-0.14445 -0.59411,-0.17684 -0.25803,-0.0409 -0.5199,-0.0577 -0.77527,-0.1149 z"
       id="path187"
       inkscape:path-effect="#path-effect189"
       inkscape:original-d="m 321.83636,142.55214 c -0.27789,0.0372 -0.57949,-0.007 -0.83365,0.11169 -0.87633,0.40822 -0.37608,4.62303 0.90458,5.12149 0.74697,0.29073 4.46739,-3.09728 1.34803,-4.91408 -0.41894,-0.24399 -0.94597,-0.21273 -1.41896,-0.3191 z" />
    <path
       style="fill:none;stroke:#000000;stroke-width:0.264583px;stroke-linecap:butt;stroke-linejoin:miter;stroke-opacity:1"
       d="m 336.48705,134.73429 c -0.33828,0.20007 -0.70223,0.35462 -1.03123,0.57067 -0.10661,0.07 -0.21037,0.14514 -0.3045,0.23138 -0.14169,0.12982 -0.25062,0.29597 -0.30804,0.47991 -0.0655,0.20974 -0.0623,0.43668 -0.0112,0.64912 0.0658,0.27335 0.20393,0.52681 0.38588,0.73998 0.1779,0.20843 0.39982,0.38262 0.65343,0.48897 0.19726,0.0827 0.4159,0.11941 0.6289,0.0904 0.19765,-0.0269 0.38841,-0.10871 0.54093,-0.23639 0.0943,-0.0789 0.16934,-0.17808 0.23528,-0.28106 0.12396,-0.19358 0.22141,-0.40303 0.30396,-0.61716 0.11798,-0.30602 0.20959,-0.62275 0.26594,-0.94591 0.0392,-0.22493 0.0657,-0.45386 0.0527,-0.68231 -0.008,-0.13382 -0.0268,-0.26939 -0.08,-0.39337 -0.0374,-0.0872 -0.0972,-0.1677 -0.18083,-0.21554 -0.0638,-0.0365 -0.13813,-0.0473 -0.21034,-0.0521 -0.16035,-0.0106 -0.31943,0.0226 -0.47394,0.062 -0.15503,0.0395 -0.30849,0.0871 -0.46695,0.11144 z"
       id="path191"
       inkscape:path-effect="#path-effect193"
       inkscape:original-d="m 336.48705,134.73429 c -0.43159,0.25527 -0.91231,0.44155 -1.29479,0.76583 -1.19907,1.01659 0.57298,3.20552 1.82689,2.26558 0.62715,-0.47011 1.32919,-3.02809 0.51438,-3.19096 -0.34599,-0.0692 -0.69765,0.10636 -1.04648,0.15955 z" />
    <path
       style="fill:none;stroke:#000000;stroke-width:0.264583px;stroke-linecap:butt;stroke-linejoin:miter;stroke-opacity:1"
       d="m 328.46996,127.96944 c -0.16545,-0.0557 -0.34097,-0.0917 -0.51626,-0.0774 -0.13169,0.0108 -0.26147,0.0562 -0.36688,0.13704 -0.11706,0.0897 -0.19891,0.21864 -0.24934,0.35589 -0.0673,0.18327 -0.0872,0.38105 -0.0794,0.57513 0.007,0.16809 0.0313,0.33581 0.0765,0.49782 0.0831,0.29817 0.24588,0.56963 0.44756,0.80251 0.24305,0.28065 0.54056,0.51301 0.86777,0.68749 0.26418,0.14087 0.54916,0.24841 0.84622,0.29191 0.20842,0.0305 0.42509,0.0294 0.62812,-0.032 0.15598,-0.0472 0.29999,-0.1365 0.40618,-0.26105 0.10868,-0.12747 0.17314,-0.28646 0.21209,-0.44774 0.0569,-0.2356 0.0669,-0.4805 0.05,-0.72151 -0.024,-0.34096 -0.0979,-0.67875 -0.22124,-0.9975 -0.10074,-0.26043 -0.23337,-0.51143 -0.41447,-0.7252 -0.13841,-0.16338 -0.30822,-0.30574 -0.50857,-0.38571 -0.0991,-0.0395 -0.20459,-0.0663 -0.31144,-0.0687 -0.12377,-0.003 -0.24352,0.0389 -0.35338,0.0926 -0.17476,0.0854 -0.33291,0.2025 -0.51344,0.2765 z"
       id="path195"
       inkscape:path-effect="#path-effect197"
       inkscape:original-d="m 328.46996,127.96944 c -1.0564,-0.35803 -1.35813,0.53889 -1.15289,1.41998 0.34189,1.46784 2.72558,2.51878 3.31679,1.40402 0.47101,-0.8881 -0.0976,-3.08409 -1.25931,-3.19096 -0.32404,-0.0298 -0.60307,0.24464 -0.90459,0.36696 z" />
  </g>
</svg>
