<?xml version="1.0" encoding="UTF-8" standalone="no"?>
<!-- Created with Inkscape (http://www.inkscape.org/) -->

<svg
   width="353.56799mm"
   height="264.16mm"
   viewBox="0 0 353.56799 264.16"
   version="1.1"
   id="svg5"
   inkscape:version="1.1.2 (08b2f3d93c, 2022-04-05)"
   sodipodi:docname="OssoCompacto.svg"
   xmlns:inkscape="http://www.inkscape.org/namespaces/inkscape"
   xmlns:sodipodi="http://sodipodi.sourceforge.net/DTD/sodipodi-0.dtd"
   xmlns="http://www.w3.org/2000/svg"
   xmlns:svg="http://www.w3.org/2000/svg">
  <sodipodi:namedview
     id="namedview7"
     pagecolor="#ffffff"
     bordercolor="#666666"
     borderopacity="1.0"
     inkscape:pageshadow="2"
     inkscape:pageopacity="0.0"
     inkscape:pagecheckerboard="0"
     inkscape:document-units="mm"
     showgrid="false"
     inkscape:zoom="1.3404872"
     inkscape:cx="1247.3077"
     inkscape:cy="80.194725"
     inkscape:window-width="1366"
     inkscape:window-height="704"
     inkscape:window-x="0"
     inkscape:window-y="27"
     inkscape:window-maximized="1"
     inkscape:current-layer="layer2" />
  <defs
     id="defs2">
    <inkscape:path-effect
       effect="simplify"
       id="path-effect114"
       is_visible="true"
       lpeversion="1"
       steps="1"
       threshold="0.000408163"
       smooth_angles="360"
       helper_size="0"
       simplify_individual_paths="false"
       simplify_just_coalesce="false" />
    <inkscape:path-effect
       effect="simplify"
       id="path-effect110"
       is_visible="true"
       lpeversion="1"
       steps="1"
       threshold="0.000408163"
       smooth_angles="360"
       helper_size="0"
       simplify_individual_paths="false"
       simplify_just_coalesce="false" />
    <inkscape:path-effect
       effect="simplify"
       id="path-effect106"
       is_visible="true"
       lpeversion="1"
       steps="1"
       threshold="0.000408163"
       smooth_angles="360"
       helper_size="0"
       simplify_individual_paths="false"
       simplify_just_coalesce="false" />
    <inkscape:path-effect
       effect="simplify"
       id="path-effect69"
       is_visible="true"
       lpeversion="1"
       steps="1"
       threshold="0.000408163"
       smooth_angles="360"
       helper_size="0"
       simplify_individual_paths="false"
       simplify_just_coalesce="false" />
    <inkscape:path-effect
       effect="simplify"
       id="path-effect65"
       is_visible="true"
       lpeversion="1"
       steps="1"
       threshold="0.000408163"
       smooth_angles="360"
       helper_size="0"
       simplify_individual_paths="false"
       simplify_just_coalesce="false" />
    <inkscape:path-effect
       effect="simplify"
       id="path-effect61"
       is_visible="true"
       lpeversion="1"
       steps="1"
       threshold="0.000408163"
       smooth_angles="360"
       helper_size="0"
       simplify_individual_paths="false"
       simplify_just_coalesce="false" />
    <inkscape:path-effect
       effect="simplify"
       id="path-effect57"
       is_visible="true"
       lpeversion="1"
       steps="1"
       threshold="0.000408163"
       smooth_angles="360"
       helper_size="0"
       simplify_individual_paths="false"
       simplify_just_coalesce="false" />
  </defs>
  <g
     inkscape:groupmode="layer"
     id="layer2"
     inkscape:label="Osso compato">
    <path
       style="fill:none;stroke:#000000;stroke-width:0.264583px;stroke-linecap:butt;stroke-linejoin:miter;stroke-opacity:1"
       d="m 352.86309,58.586385 c -1.70646,0.912931 -3.29974,2.078648 -4.56633,3.53803 -0.42332,0.487754 -0.77258,1.044217 -1.29504,1.442958 -0.75575,0.576786 -1.66201,0.913092 -2.43545,1.459917 -0.85636,0.605448 -1.56174,1.42011 -2.4799,1.932044 -0.56169,0.313179 -1.23271,0.363586 -1.76868,0.740988 -1.26103,0.887946 -2.46011,1.865363 -3.75384,2.705003 -0.2104,0.136551 -0.3255,0.369004 -0.4494,0.5783 -0.66308,1.120127 -1.02259,2.403961 -1.82495,3.447362 -1.0123,1.316415 -2.27813,2.400423 -3.4957,3.517272 -0.88936,0.815787 -2.074,1.170982 -3.06141,1.839244 -1.32674,0.897918 -2.35307,2.148976 -3.52646,3.224369 -0.46318,0.424496 -1.09441,0.637904 -1.51173,1.109848 -0.24565,0.277805 -0.42732,0.608632 -0.72623,0.842267 -0.56094,0.438448 -1.21675,0.759728 -1.67956,1.323661 -1.41068,1.718909 -2.98512,3.311833 -4.7329,4.676606 -0.45242,0.353277 -0.98502,0.582016 -1.50448,0.816505 -0.53531,0.241642 -1.06414,0.49764 -1.56663,0.804524 -1.69,1.032122 -3.26118,2.282103 -5.0979,3.055701 -0.28033,0.118071 -0.54129,0.279927 -0.83352,0.369189 -0.16773,0.05123 -0.37207,0.271724 -0.53768,0.132637 -0.15673,-0.131633 -0.35376,-0.214277 -0.56467,-0.193744 -0.73073,0.07114 -1.28617,0.659071 -2.02248,0.724501 -0.36874,0.03277 -0.62977,-0.281988 -0.94852,-0.407458 -0.5033,-0.198113 -1.05142,-0.08212 -1.57688,-0.124226 -0.33537,-0.02687 -0.6228,-0.217944 -0.90871,-0.376543 -0.68681,-0.380988 -1.41473,-0.707585 -2.03158,-1.194245 -0.25231,-0.199057 -0.26877,-0.550844 -0.28268,-0.845099 -0.0165,-0.349963 -0.13108,-0.69274 -0.38646,-0.964401 -0.25336,-0.269511 -0.43525,-0.597826 -0.61987,-0.915972 -0.47019,-0.81027 -0.96143,-1.614689 -1.32675,-2.477717 -0.15262,-0.360551 -0.13923,-0.765713 -0.12577,-1.149276 0.0222,-0.631674 0.10627,-1.313349 -0.20631,-1.891584 -0.33422,-0.618268 -0.914,-1.078579 -1.14505,-1.762818 -0.11695,-0.346343 -0.1485,-0.762064 -0.43736,-1.015126 -0.38098,-0.33376 -0.90912,-0.370209 -1.38817,-0.442257 -0.39206,-0.05896 -0.85328,-0.04799 -1.14584,-0.331965 -0.23168,-0.224875 -0.2988,-0.557363 -0.53653,-0.786354 -1.02943,-0.991573 -2.31087,-1.734182 -3.15289,-2.906854 -0.17977,-0.250364 -0.40503,-0.496991 -0.46568,-0.800625 -0.0764,-0.382376 0.0602,-0.765906 0.17287,-1.126046 0.11249,-0.359574 0.19086,-0.733576 0.13503,-1.118422 -0.0417,-0.287447 -0.24402,-0.562307 -0.1725,-0.855345 0.0529,-0.216654 0.4819,-0.260714 0.42891,-0.464531 -0.14337,-0.551496 -0.21001,-1.129756 -0.44056,-1.652557 -0.42642,-0.966963 -1.20004,-1.72507 -1.6379,-2.689129 -0.42008,-0.924912 -0.56752,-1.942254 -0.91269,-2.892379 -0.47203,-1.299342 -1.38565,-2.376299 -1.85707,-3.680744 -0.30258,-0.837255 -0.72012,-1.635537 -0.95194,-2.49511 -0.0835,-0.309536 0.15113,-0.675943 -0.0462,-0.94116 -0.18855,-0.253381 -0.56032,-0.329858 -0.70201,-0.614211 -0.20438,-0.410177 -0.26218,-0.874079 -0.32374,-1.322637 -0.0426,-0.310048 -0.0819,-0.627967 0.0102,-0.935424 0.112,-0.374087 0.23483,-0.751452 0.23009,-1.148364 -0.0118,-0.989523 -0.42604,-1.927927 -0.37689,-2.925394 0.0559,-1.135133 0.56176,-2.259897 0.33438,-3.389589 -0.10254,-0.509449 -0.53384,-0.860627 -0.68613,-1.353059 -0.13754,-0.444734 -0.24332,-0.897873 -0.35888,-1.348943 -0.34281,-1.338076 -0.39847,-2.726669 -0.6614,-4.079626 -0.10431,-0.536754 -0.21205,-1.10051 -0.55491,-1.547075 -0.32272,-0.420335 -0.68286,-0.82534 -0.86353,-1.337005 -0.3057,-0.865732 -0.44444,-1.776846 -0.80233,-2.631351 -0.10358,-0.247307 -0.0854,-0.550308 -0.27182,-0.759059 -0.1126,-0.126097 -0.34997,-0.213149 -0.33684,-0.391442 0.0292,-0.396283 0.21778,-0.758217 0.36027,-1.122838 0.14295,-0.365789 0.3608,-0.721708 0.38243,-1.117855 0.0263,-0.481236 -0.28304,-0.884799 -0.48703,-1.295551 -0.0906,-0.182535 -0.14759,-0.388569 -0.28815,-0.537911 -0.11754,-0.124882 -0.10708,-0.286911 0.11004,-0.292171 0.67325,-0.01631 1.32083,0.221988 1.98043,0.319612"
       id="path55"
       inkscape:path-effect="#path-effect57"
       inkscape:original-d="m 352.86309,58.586385 c -1.67867,0.901354 -3.11295,2.037787 -4.45196,3.414332 -0.4151,0.426722 -0.73189,1.003286 -1.20613,1.404019 -0.70717,0.597585 -1.589,0.979509 -2.37672,1.45189 -0.78039,0.467977 -1.73445,1.445104 -2.64282,2.042219 -0.51982,0.341706 -1.18361,0.364625 -1.72048,0.702011 -0.29813,0.187362 -3.97536,2.827117 -4.04402,2.91973 -0.83071,1.12087 -1.1539,2.581925 -1.98652,3.717469 -1.01804,1.388383 -2.31108,2.418311 -3.52965,3.60579 -0.78179,0.761836 -1.72527,1.101592 -2.66054,1.627391 -1.47815,0.830998 -2.76286,2.282256 -3.95534,3.462194 -0.43344,0.428879 -1.01862,0.683038 -1.47216,1.06897 -0.27917,0.237554 -0.43286,0.596792 -0.69173,0.829654 -0.5402,0.48591 -1.29008,0.777412 -1.75599,1.356159 -1.36824,1.699675 -3.13076,3.263024 -4.78896,4.754533 -0.50855,0.45743 -2.01207,1.005938 -2.69599,1.404022 -2.02613,1.179288 -3.7341,2.649771 -5.95964,3.478152 -0.13732,0.05112 -0.75737,0.412678 -0.83362,0.366958 -0.21492,-0.128899 -0.30475,-0.282646 -0.674,-0.239321 -0.7456,0.08748 -1.37565,0.779534 -2.12844,0.717966 -0.26122,-0.02138 -0.5697,-0.309311 -0.83362,-0.414827 -0.51052,-0.204097 -1.24855,-0.0069 -1.79144,-0.159544 -0.30917,-0.08691 -2.62253,-1.43062 -2.74921,-1.563571 -0.4205,-0.441296 -0.01,-1.282271 -0.62079,-1.770986 -0.33634,-0.26892 -1.9344,-3.251245 -2.00427,-3.541972 -0.20056,-0.834307 0.099,-1.738045 -0.1419,-2.56872 -0.21164,-0.729729 -0.92623,-1.180854 -1.22386,-1.930535 -0.11887,-0.299405 -0.20217,-0.842851 -0.40796,-1.084927 -0.55758,-0.655899 -1.85113,-0.392144 -2.5541,-0.813696 -0.2382,-0.142846 -0.31758,-0.554551 -0.51438,-0.749875 -1.19893,-1.190029 -2.94365,-2.173784 -3.67154,-3.701515 -0.21312,-0.447336 0.25829,-1.377162 0.30152,-1.882667 0.0767,-0.89677 -0.65154,-1.241993 0.23058,-1.770985 -0.11824,-0.472143 -0.21489,-0.950224 -0.35473,-1.416429 -0.24905,-0.830355 -1.13106,-1.766993 -1.54311,-2.552771 -0.52319,-0.997719 -0.69329,-1.953928 -1.01101,-3.015455 -0.40236,-1.344377 -1.41434,-2.452554 -1.88011,-3.76534 -0.31277,-0.881549 -0.68025,-1.720752 -0.99326,-2.600634 -0.11256,-0.316407 0.0562,-0.629723 -0.0355,-0.941331 -0.0612,-0.207817 -0.58396,-0.443171 -0.70948,-0.638191 -0.22985,-0.35713 -0.34165,-1.291312 -0.39021,-1.739079 -0.0484,-0.446581 0.16944,-0.818739 0.24832,-1.244476 0.16735,-0.903271 -0.27966,-1.994902 -0.33701,-2.871866 -0.084,-1.28494 0.47259,-2.560156 0.33701,-3.86106 -0.0446,-0.427788 -0.48343,-0.842353 -0.63853,-1.244476 -0.15092,-0.391302 -0.21785,-0.826579 -0.337,-1.22852 -0.3752,-1.265612 -0.44654,-2.679167 -0.67401,-3.988704 -0.0845,-0.486283 -0.20634,-1.310837 -0.49663,-1.739079 -0.3111,-0.45895 -0.7155,-0.819281 -0.92232,-1.340202 -0.34416,-0.866848 -0.4335,-1.936477 -0.83363,-2.728272 -0.11929,-0.23605 -0.10978,-0.532162 -0.24832,-0.765829 -0.0493,-0.08307 -0.38508,-0.319921 -0.39021,-0.430784 -0.021,-0.453918 0.60975,-1.572769 0.72721,-2.1539 0.11726,-0.58014 -0.3827,-1.142104 -0.58532,-1.643347 -0.0758,-0.187463 -0.39338,-0.53474 -0.19511,-0.574372 0.51528,-0.102992 1.57747,0.231195 2.1107,0.303145" />
    <path
       style="fill:none;stroke:#000000;stroke-width:0.264583px;stroke-linecap:butt;stroke-linejoin:miter;stroke-opacity:1"
       d="m 278.15524,32.53573 c -0.51725,0.06021 -1.04197,0.06034 -1.55092,0.193283 -0.0844,0.02205 -0.0949,-0.06645 -0.11027,-0.126153 -0.10338,-0.401119 -0.18318,-0.810383 -0.33399,-1.197736 -0.0538,-0.138213 -0.13882,-0.260388 -0.19742,-0.39685 -0.12985,-0.302385 -0.13984,-0.635478 -0.1876,-0.956622 -0.0273,-0.183576 -0.0532,-0.371695 -0.12921,-0.542243 -0.11055,-0.247896 -0.31466,-0.449419 -0.37991,-0.718168 -0.14901,-0.613771 -0.20846,-1.251352 -0.42951,-1.845785 -0.25808,-0.694021 -0.72477,-1.291328 -0.95099,-1.999279 -0.10521,-0.329247 -0.13619,-0.67736 -0.13675,-1.021336 -0.001,-0.632336 0.15082,-1.250652 0.30019,-1.861192 0.25768,-1.053222 0.21424,-2.154917 0.48914,-3.205115 0.28329,-1.082259 0.83064,-2.079246 1.06378,-3.176101 0.15276,-0.718702 0.23625,-1.451256 0.27267,-2.184482 0.0379,-0.763932 0.0435,-1.535489 -0.0807,-2.291838 -0.0697,-0.424129 -0.17715,-0.853529 -0.41108,-1.2202619 -0.21058,-0.330123 -0.47448,-0.6264922 -0.64244,-0.9835997 -0.25857,-0.5497613 -0.36328,-1.153434 -0.4761,-1.7457936 -0.0624,-0.3274615 -0.11446,-0.6584972 -0.21342,-0.9772905 -0.19504,-0.6283279 -0.61997,-1.1597109 -0.8115,-1.7867982 -0.18705,-0.6124307 -0.36139,-1.228983 -0.51563,-1.8504519 -0.11623,-0.4683189 -0.25621,-0.9350802 -0.30208,-1.4160063 -0.0109,-0.114064 -0.0456,-0.23696365 -0.003,-0.34540088 0.0311,-0.0781582 0.11922,-0.0110367 0.16989,0.008709 0.15082,0.058774 0.29924,0.12935807 0.42115,0.23916687 0.078,0.070259 0.15367,0.1430727 0.23198,0.2130025"
       id="path59"
       inkscape:path-effect="#path-effect61"
       inkscape:original-d="m 278.15524,32.53573 c -0.53806,0.06293 -1.07445,0.235625 -1.61415,0.188778 -0.0541,-0.0047 -0.2255,-1.088777 -0.46114,-1.483802 -0.337,-0.564925 -0.22018,-1.018757 -0.39023,-1.611434 -0.0899,-0.31355 -0.34777,-0.521523 -0.42566,-0.845606 -0.13568,-0.564462 -0.19855,-1.108038 -0.37248,-1.675254 -0.26874,-0.876305 -0.96605,-1.630962 -1.09969,-2.568727 -0.12481,-0.875535 0.04,-1.611199 0.24831,-2.441083 0.24948,-0.993866 0.22177,-2.01858 0.44341,-3.015461 0.25181,-1.132415 0.83749,-2.186422 1.09969,-3.318601 0.31737,-1.370298 0.54219,-4.349085 -0.0887,-5.584188 -0.18883,-0.3697294 -0.49588,-0.6830712 -0.69172,-1.0530124 -0.42932,-0.8109738 -0.49128,-1.8271535 -0.70948,-2.6963655 -0.17296,-0.6889909 -0.60918,-1.276958 -0.85138,-1.9305302 -0.0434,-0.1172641 -1.12834,-3.79281023 -0.76269,-3.65365236 0.46628,0.17744476 0.42643,0.19212656 0.76269,0.49459666" />
    <path
       style="fill:none;stroke:#000000;stroke-width:0.264583px;stroke-linecap:butt;stroke-linejoin:miter;stroke-opacity:1"
       d="m 353.56273,7.8828637 c -0.77824,0.1628623 -1.47562,0.5668965 -2.14337,0.9825609 -0.65599,0.4083431 -1.26993,0.9777523 -2.03574,1.111036 -0.1348,0.023461 -0.26767,-0.072717 -0.40093,-0.0325 -0.21378,0.064519 -0.4206,0.151822 -0.62612,0.239046 -0.35578,0.150996 -0.71872,0.287835 -1.06238,0.464549 -0.18261,0.0939 -0.31895,0.288207 -0.52951,0.314213 -0.102,0.0126 -0.21011,-0.01458 -0.29757,-0.06799 -0.0889,-0.05427 0.005,-0.214728 -0.13245,-0.224367 -0.20693,-0.01453 -0.41254,0.03047 -0.6152,0.06676 -0.74234,0.132939 -1.39654,0.574609 -2.15174,0.653311 -0.79684,0.08304 -1.58375,-0.216257 -2.37996,-0.101683 -0.50579,0.07278 -0.96009,0.333222 -1.46926,0.40049 -1.02727,0.135716 -1.98174,0.574049 -2.99985,0.753423 -0.96419,0.169874 -1.93616,0.310251 -2.91379,0.358835 -0.6563,0.03261 -1.30507,-0.09621 -1.95405,-0.171967 -0.89748,-0.104768 -1.80309,-0.04865 -2.70186,0.0083 -0.47974,0.0304 -0.95912,0.08603 -1.43989,0.08196 -0.54053,-0.0046 -1.06416,-0.186828 -1.60813,-0.156082 -0.67566,0.03819 -1.32153,0.281608 -1.99338,0.337529 -0.34164,0.02844 -0.66563,-0.105656 -1.00533,-0.123301 -0.91589,-0.04758 -1.83901,-0.0055 -2.74811,-0.138741 -0.44386,-0.06507 -0.85653,-0.286134 -1.17305,-0.602583 -0.62467,-0.624521 -0.93,-1.486784 -1.53432,-2.1284501 -0.22276,-0.2365248 -0.5,-0.4155204 -0.79956,-0.540758 -0.77204,-0.3227655 -1.63489,-0.3845279 -2.37917,-0.7776128 -0.68168,-0.3600225 -1.29266,-0.8347005 -1.91781,-1.2819219 -0.4533,-0.3242841 -0.89876,-0.673275 -1.41034,-0.8993977 -0.48665,-0.2151053 -1.01282,-0.3148495 -1.5144,-0.4872186 -0.34431,-0.1183226 -0.70013,-0.2544821 -0.95983,-0.5190993 -0.24307,-0.247671 -0.28607,-0.610441 -0.45552,-0.9009023 -0.22197,-0.3804992 -0.49138,-0.7344212 -0.80203,-1.0472059 -0.11618,-0.1169795 -0.27001,-0.1926935 -0.37921,-0.3155724 -0.10805,-0.1215891 -0.12201,-0.2938746 -0.14643,-0.4475224 -0.032,-0.2016243 -0.0477,-0.41409 -0.16341,-0.5923445 -0.19383,-0.2986824 -0.46531,-0.5348982 -0.66433,-0.8307828 -0.17682,-0.262882 -0.30061,-0.56151262 -0.49862,-0.80972773 -0.0652,-0.0816816 -0.0114,-0.16167906 0.091,-0.16785927 0.20964,-0.0126491 0.40948,0.0718725 0.59867,0.15143521 0.20985,0.0882516 0.40945,0.19832302 0.61559,0.29438226"
       id="path63"
       inkscape:path-effect="#path-effect65"
       inkscape:original-d="m 353.56273,7.8828637 c -1.54321,0.3254581 -2.69986,1.5462274 -4.16819,2.0900808 -0.11475,0.0425 -0.28514,-0.078456 -0.46117,-0.015957 -0.52782,0.1874155 -1.08442,0.4512005 -1.59631,0.6701035 -0.23069,0.09865 -0.4264,0.375539 -0.674,0.335046 -0.59465,-0.09725 0.26138,-0.447414 -0.95779,-0.223364 -0.70136,0.128891 -1.32927,0.53168 -2.03976,0.638191 -0.83306,0.124889 -1.70359,-0.224767 -2.53637,-0.07977 -0.46419,0.08082 -0.87908,0.324327 -1.348,0.382915 -1.07267,0.134013 -1.95741,0.560228 -2.99754,0.749879 -0.92009,0.167764 -1.99504,0.294084 -2.92661,0.366959 -0.73687,0.05764 -1.67143,-0.161149 -2.42996,-0.207408 -1.20166,-0.07328 -2.42049,0.07866 -3.61834,0.127638 -0.53213,0.02176 -1.0514,-0.171114 -1.57858,-0.159551 -0.68887,0.01511 -1.37925,0.233369 -2.05748,0.335052 -0.35055,0.05255 -0.6432,-0.09279 -0.99327,-0.111682 -0.9424,-0.05086 -1.80864,-0.02586 -2.71376,-0.127638 -1.93968,-0.218119 -1.97104,-2.494967 -3.44095,-3.2069185 -0.8327,-0.4033234 -1.79441,-0.4451641 -2.62507,-0.8934738 -1.08635,-0.5863124 -2.26316,-1.6572249 -3.21037,-2.1219874 -0.69001,-0.338563 -1.89315,-0.4584671 -2.46544,-0.9732434 -0.32893,-0.2958655 -0.34576,-0.6845707 -0.54986,-1.0211059 -0.27115,-0.4471699 -0.699,-0.9941361 -1.11741,-1.2763886 -0.20847,-0.1406321 -0.15399,-0.7396988 -0.2838,-0.973243 -0.15547,-0.2797425 -0.38928,-0.487046 -0.58531,-0.733923 -0.0766,-0.096514 -0.73446,-1.04650843 -0.65627,-1.11683767 0.23445,-0.21090292 1.124,0.31272792 1.33027,0.39887104" />
    <path
       style="fill:none;stroke:#000000;stroke-width:0.264583px;stroke-linecap:butt;stroke-linejoin:miter;stroke-opacity:1"
       d="M 353.56273,7.8828637 C 353.32952,24.784037 353.0963,41.685211 352.86309,58.586385"
       id="path104"
       inkscape:path-effect="#path-effect106"
       inkscape:original-d="M 353.56273,7.8828637 352.86309,58.586385" />
    <path
       style="fill:none;stroke:#000000;stroke-width:0.264583px;stroke-linecap:butt;stroke-linejoin:miter;stroke-opacity:1"
       d="m 273.24153,1.3413884 c 11.2066,-0.2020947 22.41321,-0.40418937 33.61981,-0.60628405"
       id="path108"
       inkscape:path-effect="#path-effect110"
       inkscape:original-d="M 273.24153,1.3413884 306.86134,0.73510435" />
  </g>
</svg>
