<?xml version="1.0" encoding="UTF-8" standalone="no"?>
<!-- Created with Inkscape (http://www.inkscape.org/) -->

<svg
   width="169.33333mm"
   height="127mm"
   viewBox="0 0 169.33333 127"
   version="1.1"
   id="svg5"
   inkscape:version="1.1.2 (08b2f3d93c, 2022-04-05)"
   sodipodi:docname="Ovoide.svg"
   xmlns:inkscape="http://www.inkscape.org/namespaces/inkscape"
   xmlns:sodipodi="http://sodipodi.sourceforge.net/DTD/sodipodi-0.dtd"
   xmlns="http://www.w3.org/2000/svg"
   xmlns:svg="http://www.w3.org/2000/svg">
  <sodipodi:namedview
     id="namedview7"
     pagecolor="#ffffff"
     bordercolor="#666666"
     borderopacity="1.0"
     inkscape:pageshadow="2"
     inkscape:pageopacity="0.0"
     inkscape:pagecheckerboard="0"
     inkscape:document-units="mm"
     showgrid="false"
     inkscape:zoom="1.0818734"
     inkscape:cx="351.24258"
     inkscape:cy="35.58642"
     inkscape:window-width="1366"
     inkscape:window-height="704"
     inkscape:window-x="0"
     inkscape:window-y="27"
     inkscape:window-maximized="1"
     inkscape:current-layer="layer2" />
  <defs
     id="defs2">
    <inkscape:path-effect
       effect="simplify"
       id="path-effect215"
       is_visible="true"
       lpeversion="1"
       steps="1"
       threshold="0.000408163"
       smooth_angles="360"
       helper_size="0"
       simplify_individual_paths="false"
       simplify_just_coalesce="false" />
    <inkscape:path-effect
       effect="simplify"
       id="path-effect211"
       is_visible="true"
       lpeversion="1"
       steps="1"
       threshold="0.000408163"
       smooth_angles="360"
       helper_size="0"
       simplify_individual_paths="false"
       simplify_just_coalesce="false" />
    <inkscape:path-effect
       effect="simplify"
       id="path-effect207"
       is_visible="true"
       lpeversion="1"
       steps="1"
       threshold="0.000408163"
       smooth_angles="360"
       helper_size="0"
       simplify_individual_paths="false"
       simplify_just_coalesce="false" />
    <inkscape:path-effect
       effect="simplify"
       id="path-effect203"
       is_visible="true"
       lpeversion="1"
       steps="1"
       threshold="0.000408163"
       smooth_angles="360"
       helper_size="0"
       simplify_individual_paths="false"
       simplify_just_coalesce="false" />
    <inkscape:path-effect
       effect="simplify"
       id="path-effect199"
       is_visible="true"
       lpeversion="1"
       steps="1"
       threshold="0.000408163"
       smooth_angles="360"
       helper_size="0"
       simplify_individual_paths="false"
       simplify_just_coalesce="false" />
    <inkscape:path-effect
       effect="simplify"
       id="path-effect195"
       is_visible="true"
       lpeversion="1"
       steps="1"
       threshold="0.000408163"
       smooth_angles="360"
       helper_size="0"
       simplify_individual_paths="false"
       simplify_just_coalesce="false" />
    <inkscape:path-effect
       effect="simplify"
       id="path-effect89"
       is_visible="true"
       lpeversion="1"
       steps="1"
       threshold="0.000408163"
       smooth_angles="360"
       helper_size="0"
       simplify_individual_paths="false"
       simplify_just_coalesce="false" />
    <inkscape:path-effect
       effect="simplify"
       id="path-effect85"
       is_visible="true"
       lpeversion="1"
       steps="1"
       threshold="0.000408163"
       smooth_angles="360"
       helper_size="0"
       simplify_individual_paths="false"
       simplify_just_coalesce="false" />
    <inkscape:path-effect
       effect="simplify"
       id="path-effect81"
       is_visible="true"
       lpeversion="1"
       steps="1"
       threshold="0.000408163"
       smooth_angles="360"
       helper_size="0"
       simplify_individual_paths="false"
       simplify_just_coalesce="false" />
    <inkscape:path-effect
       effect="simplify"
       id="path-effect77"
       is_visible="true"
       lpeversion="1"
       steps="1"
       threshold="0.000408163"
       smooth_angles="360"
       helper_size="0"
       simplify_individual_paths="false"
       simplify_just_coalesce="false" />
    <inkscape:path-effect
       effect="simplify"
       id="path-effect73"
       is_visible="true"
       lpeversion="1"
       steps="1"
       threshold="0.000408163"
       smooth_angles="360"
       helper_size="0"
       simplify_individual_paths="false"
       simplify_just_coalesce="false" />
    <inkscape:path-effect
       effect="simplify"
       id="path-effect69"
       is_visible="true"
       lpeversion="1"
       steps="1"
       threshold="0.000408163"
       smooth_angles="360"
       helper_size="0"
       simplify_individual_paths="false"
       simplify_just_coalesce="false" />
    <inkscape:path-effect
       effect="simplify"
       id="path-effect65"
       is_visible="true"
       lpeversion="1"
       steps="1"
       threshold="0.000408163"
       smooth_angles="360"
       helper_size="0"
       simplify_individual_paths="false"
       simplify_just_coalesce="false" />
    <inkscape:path-effect
       effect="simplify"
       id="path-effect61"
       is_visible="true"
       lpeversion="1"
       steps="1"
       threshold="0.000408163"
       smooth_angles="360"
       helper_size="0"
       simplify_individual_paths="false"
       simplify_just_coalesce="false" />
    <inkscape:path-effect
       effect="simplify"
       id="path-effect57"
       is_visible="true"
       lpeversion="1"
       steps="1"
       threshold="0.000408163"
       smooth_angles="360"
       helper_size="0"
       simplify_individual_paths="false"
       simplify_just_coalesce="false" />
  </defs>
  <g
     inkscape:groupmode="layer"
     id="layer2"
     inkscape:label="Ovoide">
    <path
       style="fill:none;stroke:#000000;stroke-width:0.264583px;stroke-linecap:butt;stroke-linejoin:miter;stroke-opacity:1"
       d="m 1.4887926,50.49648 c 2.3633276,1.399964 5.0662921,2.113064 7.7648136,2.494807 0.9810148,0.138778 1.9638038,0.314733 2.9548988,0.328119 1.178187,0.01591 2.363025,-0.255007 3.537475,6.53e-4 0.81571,0.177568 1.659679,0.479196 2.500678,0.254769 0.626457,-0.167175 1.222385,-0.424517 1.860825,-0.561057 3.309816,-0.707856 6.586357,-1.561787 9.903508,-2.238184 4.797337,-0.97822 9.622517,-1.906984 14.510788,-2.267406 2.49627,-0.184055 5.014484,-0.219607 7.504622,0.07389 2.658924,0.313386 5.164649,1.316594 7.774271,1.86684 1.310141,0.276247 2.653123,0.360119 3.991252,0.304086 4.508984,-0.18881 8.895597,-1.407651 13.382353,-1.783182 2.712394,-0.227021 5.460229,0.08612 8.150413,-0.45483 2.379594,-0.478496 4.742173,-1.253921 7.197212,-1.160588 2.526827,0.09606 4.928589,0.969691 7.299058,1.773903 1.55401,0.527218 3.11212,1.099046 4.74303,1.324545 2.59921,0.359381 5.25704,-0.233285 7.83364,0.375091 1.54413,0.364594 3.05443,1.101998 4.66132,0.997746 2.55584,-0.165818 5.09699,-0.515419 7.62439,-0.923072 6.43224,-1.037477 12.81259,-2.462545 19.32085,-2.979685 1.78113,-0.141527 3.58142,-0.326367 5.36144,-0.0944 1.93416,0.25206 3.81,0.862535 5.77069,0.948339 1.83342,0.08023 3.72895,-0.118994 5.49395,0.472615 1.47956,0.495934 2.70968,1.535981 4.2117,1.985596 0.76871,0.230106 1.60182,0.256092 2.3721,0.01756"
       id="path59"
       inkscape:path-effect="#path-effect61"
       inkscape:original-d="m 1.4887926,50.49648 c 3.0191223,1.79832 6.795571,2.468248 10.3052964,2.80057 1.10598,0.104722 2.204834,-0.183981 3.300182,-0.08402 0.818624,0.0747 1.632734,0.427984 2.459565,0.448088 0.802698,0.01953 1.505671,-0.427636 2.27277,-0.588108 2.996853,-0.626928 5.966616,-1.415646 8.966537,-2.044423 5.661033,-1.186542 12.998268,-2.592559 18.742552,-2.660528 2.176608,-0.02574 4.443526,0.07822 6.569236,0.588119 2.919751,0.700373 5.805368,1.867143 8.873135,1.820367 4.635294,-0.07068 9.176708,-1.256813 13.761146,-1.76436 2.644304,-0.292754 5.432129,0.07203 8.032517,-0.392084 2.626786,-0.468823 5.171953,-1.392983 7.876849,-1.260255 3.92439,0.192569 7.445972,2.158299 11.208182,2.968609 2.73498,0.589066 5.57131,-0.137573 8.31272,0.44809 1.61063,0.344086 3.47854,1.165561 5.16821,1.036209 8.75976,-0.670599 17.28614,-3.121945 26.02787,-3.836778 1.69303,-0.138443 3.47307,-0.313751 5.16821,-0.224047 1.97794,0.104672 3.90798,0.809255 5.88429,0.980194 2.0124,0.174062 4.31125,-0.104648 6.2579,0.532114 1.9669,0.643388 3.95214,2.763833 6.53811,1.988394" />
    <path
       style="fill:none;stroke:#000000;stroke-width:0.264583px;stroke-linecap:butt;stroke-linejoin:miter;stroke-opacity:1"
       d="M 169.33333,0 C 112.88889,0 56.444443,0 -1.2353517e-7,0"
       id="path79"
       inkscape:path-effect="#path-effect81"
       inkscape:original-d="M 169.33333,0 H -1.2353517e-7" />
    <path
       style="fill:none;stroke:#000000;stroke-width:0.264583px;stroke-linecap:butt;stroke-linejoin:miter;stroke-opacity:1"
       d="m 1.4887926,50.49648 c -0.1880519,0.0026 -0.374947,-0.02599 -0.55855354,-0.0644 -0.25352188,-0.05303 -0.5028895,-0.125817 -0.75896728,-0.166447 -0.16624509,-0.02638 -0.33618984,-0.04004 -0.50370672,-0.01929 -0.0342481,0.0042 -0.0686907,0.0082 -0.10232364,0.01609 0,0 -0.005329,0.003 -0.005329,0.003 0,0 0.001843,0.0029 0.001843,0.0029 0.0397217,0.01116 0.0815497,0.01224 0.12250441,0.01541 0.0720783,0.0056 0.14426746,0.0097 0.21621398,0.01703 0.53077274,0.05403 1.05885459,0.130789 1.5883193,0.195765 0,0 0,-4e-6 0,-4e-6 z"
       id="path193"
       inkscape:path-effect="#path-effect195"
       inkscape:original-d="m 1.4887926,50.49648 c -0.64982114,0.0089 -1.2771103,-0.351097 -1.91022363,-0.237141 -0.0938787,0.01691 0.18877342,0.02807 0.28369032,0.03753 0.54355182,0.05418 1.08435552,0.133078 1.62653331,0.199615" />
    <path
       style="fill:none;stroke:#000000;stroke-width:0.264583px;stroke-linecap:butt;stroke-linejoin:miter;stroke-opacity:1"
       d="m 167.21407,51.25263 c 0.0333,-0.02304 0.0723,-0.03531 0.10885,-0.05187 0.032,-0.0145 0.0689,-0.02572 0.0909,-0.0546 0.0151,-0.01978 -0.003,-0.05315 -0.0281,-0.0501 -0.0429,0.0053 -0.0789,0.0335 -0.10965,0.06171 -0.0284,0.026 -0.0579,0.05272 -0.0762,0.08708 0,0 -0.001,0.0075 -0.001,0.0075 0.007,0.0075 0.0172,-4.96e-4 0.024,-0.0033 0.14332,-0.05928 0.26596,-0.156964 0.40284,-0.228314 0.0439,-0.02287 0.087,-0.05135 0.13573,-0.06063 0.0454,-0.0086 0.092,-0.0066 0.13777,-0.0035 0.11401,0.0077 0.22721,0.02407 0.34016,0.04097 0.18489,0.02767 0.36892,0.06136 0.55441,0.08485 0.0677,0.0086 0.13572,0.01873 0.2041,0.01801 0.0457,-4.82e-4 0.0912,-0.006 0.13699,-0.0056 0.044,4.49e-4 0.0895,0.0027 0.13018,0.02089 0.0248,0.0111 0.0541,0.03203 0.0501,0.06287 -0.005,0.04175 -0.0323,0.07617 -0.0546,0.110528 -0.0222,0.03432 -0.0519,0.06565 -0.0632,0.105706 0,0 -4.5e-4,0.0053 -4.5e-4,0.0053 0.009,0.0058 0.0191,-5.62e-4 0.0275,-0.0038 0.0524,-0.02001 0.10274,-0.04508 0.15274,-0.07043 0.074,-0.03753 0.15026,-0.07176 0.21978,-0.117162 0.006,-0.0037 0.0205,-0.0053 0.0171,-0.01128 -0.028,-0.04977 -0.0834,-0.07493 -0.11682,-0.120094"
       id="path197"
       inkscape:path-effect="#path-effect199"
       inkscape:original-d="m 167.21407,51.25263 c 0.0657,-0.04839 0.2456,-0.07943 0.19721,-0.145172 -0.0484,-0.06574 -0.27301,0.175475 -0.19721,0.145172 0.18692,-0.07473 0.34312,-0.215363 0.53096,-0.287774 0.15176,-0.0585 1.04266,0.147476 1.2766,0.135099 0.0749,-0.004 0.22829,-0.02143 0.28369,0.04503 0.0506,0.06069 -0.10847,0.201808 -0.10847,0.255188 0,0.0276 0.41999,-0.19762 0.4172,-0.202647 -0.0271,-0.04881 -0.0836,-0.07523 -0.11682,-0.120094" />
    <path
       style="fill:none;stroke:#000000;stroke-width:0.264583px;stroke-linecap:butt;stroke-linejoin:miter;stroke-opacity:1"
       d="M 169.4972,51.077362 C 169.44258,34.051575 169.38795,17.025787 169.33333,0"
       id="path201"
       inkscape:path-effect="#path-effect203"
       inkscape:original-d="M 169.4972,51.077362 169.33333,0" />
    <path
       style="fill:none;stroke:#000000;stroke-width:0.264583px;stroke-linecap:butt;stroke-linejoin:miter;stroke-opacity:1"
       d="M -1.2353517e-7,0 C 56.444443,0 112.88889,0 169.33333,0"
       id="path205"
       inkscape:path-effect="#path-effect207"
       inkscape:original-d="M -1.2353517e-7,0 H 169.33333" />
    <path
       style="fill:none;stroke:#000000;stroke-width:0.264583px;stroke-linecap:butt;stroke-linejoin:miter;stroke-opacity:1"
       d="M -1.2353517e-7,0 C -0.14491961,16.754144 -0.28983909,33.508288 -0.43475857,50.262432"
       id="path209"
       inkscape:path-effect="#path-effect211"
       inkscape:original-d="M -1.2353517e-7,0 -0.43475857,50.262432" />
  </g>
</svg>
