<?xml version="1.0" encoding="UTF-8" standalone="no"?>
<!-- Created with Inkscape (http://www.inkscape.org/) -->

<svg
   width="169.33333mm"
   height="127mm"
   viewBox="0 0 169.33333 127"
   version="1.1"
   id="svg5"
   inkscape:version="1.1.2 (08b2f3d93c, 2022-04-05)"
   sodipodi:docname="PapilasDermicas.svg"
   xmlns:inkscape="http://www.inkscape.org/namespaces/inkscape"
   xmlns:sodipodi="http://sodipodi.sourceforge.net/DTD/sodipodi-0.dtd"
   xmlns="http://www.w3.org/2000/svg"
   xmlns:svg="http://www.w3.org/2000/svg">
  <sodipodi:namedview
     id="namedview7"
     pagecolor="#ffffff"
     bordercolor="#666666"
     borderopacity="1.0"
     inkscape:pageshadow="2"
     inkscape:pageopacity="0.0"
     inkscape:pagecheckerboard="0"
     inkscape:document-units="mm"
     showgrid="false"
     inkscape:zoom="0.61865007"
     inkscape:cx="166.49154"
     inkscape:cy="265.90153"
     inkscape:window-width="1366"
     inkscape:window-height="704"
     inkscape:window-x="0"
     inkscape:window-y="27"
     inkscape:window-maximized="1"
     inkscape:current-layer="layer2" />
  <defs
     id="defs2">
    <inkscape:path-effect
       effect="simplify"
       id="path-effect509"
       is_visible="true"
       lpeversion="1"
       steps="1"
       threshold="0.000408163"
       smooth_angles="360"
       helper_size="0"
       simplify_individual_paths="false"
       simplify_just_coalesce="false" />
    <inkscape:path-effect
       effect="simplify"
       id="path-effect505"
       is_visible="true"
       lpeversion="1"
       steps="1"
       threshold="0.000408163"
       smooth_angles="360"
       helper_size="0"
       simplify_individual_paths="false"
       simplify_just_coalesce="false" />
    <inkscape:path-effect
       effect="simplify"
       id="path-effect501"
       is_visible="true"
       lpeversion="1"
       steps="1"
       threshold="0.000408163"
       smooth_angles="360"
       helper_size="0"
       simplify_individual_paths="false"
       simplify_just_coalesce="false" />
    <inkscape:path-effect
       effect="simplify"
       id="path-effect497"
       is_visible="true"
       lpeversion="1"
       steps="1"
       threshold="0.000408163"
       smooth_angles="360"
       helper_size="0"
       simplify_individual_paths="false"
       simplify_just_coalesce="false" />
    <inkscape:path-effect
       effect="simplify"
       id="path-effect493"
       is_visible="true"
       lpeversion="1"
       steps="1"
       threshold="0.000408163"
       smooth_angles="360"
       helper_size="0"
       simplify_individual_paths="false"
       simplify_just_coalesce="false" />
    <inkscape:path-effect
       effect="simplify"
       id="path-effect69"
       is_visible="true"
       lpeversion="1"
       steps="1"
       threshold="0.000408163"
       smooth_angles="360"
       helper_size="0"
       simplify_individual_paths="false"
       simplify_just_coalesce="false" />
    <inkscape:path-effect
       effect="simplify"
       id="path-effect65"
       is_visible="true"
       lpeversion="1"
       steps="1"
       threshold="0.000408163"
       smooth_angles="360"
       helper_size="0"
       simplify_individual_paths="false"
       simplify_just_coalesce="false" />
    <inkscape:path-effect
       effect="simplify"
       id="path-effect61"
       is_visible="true"
       lpeversion="1"
       steps="1"
       threshold="0.000408163"
       smooth_angles="360"
       helper_size="0"
       simplify_individual_paths="false"
       simplify_just_coalesce="false" />
    <inkscape:path-effect
       effect="simplify"
       id="path-effect57"
       is_visible="true"
       lpeversion="1"
       steps="1"
       threshold="0.000408163"
       smooth_angles="360"
       helper_size="0"
       simplify_individual_paths="false"
       simplify_just_coalesce="false" />
    <clipPath
       clipPathUnits="userSpaceOnUse"
       id="clipPath449">
      <path
         id="path451"
         style="fill:#ff0000;fill-opacity:1;fill-rule:nonzero;stroke:none;stroke-width:0.264583"
         d="m 100.59334,25.838733 c 0,15.471235 -15.471235,46.413705 0,46.413705 17.22961,0 51.68884,17.22961 51.68884,0 0,-15.471235 15.47124,-46.413705 0,-46.413705 -0.0587,0 -0.15739,-0.05564 -0.17622,0 -0.0463,0.136723 -0.17829,0.203736 -0.29951,0.261507 -0.30202,0.143932 -0.81182,0.678263 -0.93301,0.366879 -0.0506,-0.130138 -0.40232,-0.328885 -0.32763,-0.202571 0.10523,0.177957 0.26484,0.353695 0.26271,0.564758 -0.002,0.208613 -0.0655,0.412271 -0.12678,0.609902 -0.0912,0.294223 -0.2868,0.567063 -0.57454,0.693117 -0.14801,0.06484 -0.30826,0.164872 -0.46794,0.133449 -0.16189,-0.03186 -0.31929,-0.0894 -0.44641,-0.199815 -0.0842,-0.0731 -0.16093,0.107979 -0.24256,0.153717 -0.11739,0.06578 -0.0673,0.308969 -0.1898,0.300178 -0.21874,-0.01569 -0.47196,-0.249015 -0.64663,-0.116931 -0.11939,0.09028 -0.23898,-0.0231 -0.35431,-0.08551 -0.11019,-0.05963 -0.25401,-0.06072 -0.36866,-0.117757 -0.10769,-0.05357 -0.27003,-0.0066 -0.28052,-0.188291 -0.007,-0.113287 0.0429,-0.440464 -0.008,-0.342784 -0.0587,0.112907 -0.0203,0.350524 -0.1465,0.351244 -0.10425,5.95e-4 -0.21421,-0.05358 -0.31552,-0.08981 -0.2665,-0.09531 -0.50284,-0.416233 -0.77617,-0.342564 -0.0591,0.01594 -0.10916,0.115779 -0.1256,0.08527 -0.0746,-0.138398 -0.2869,-0.03211 -0.36661,0.05562 -0.0619,0.0681 -0.14926,0.04729 -0.22192,0.07586 -0.14028,0.05516 -0.27892,0.211246 -0.42557,0.161219 -0.14136,-0.04822 -0.13512,-0.236106 -0.14521,-0.358204 -0.0154,-0.186877 0.088,-0.411582 -0.0241,-0.561837 -0.0903,-0.121055 -0.23979,-0.226307 -0.25174,-0.379449 -0.0135,-0.17368 0.1139,-0.09692 0.24712,-0.215346 0.0972,-0.08641 0.24677,-0.06141 0.35808,-0.135923 0.0851,-0.05696 0.26977,-0.06302 0.173,-0.199316 -0.0649,-0.09138 0.0661,-0.159087 0.0661,-0.228143 3e-5,-0.07809 -0.0842,-0.04848 -0.13545,-0.04848 -14.80635,1e-6 -29.61269,1e-6 -44.41904,2e-6 z m 49.32619,1.206645 c 0.004,0.05166 0.17747,0.229984 0.0778,0.105613 -0.0272,-0.03397 -0.0318,-0.09235 -0.0778,-0.105613 z"
         inkscape:original-d="m 100.59334,25.838733 v 46.413705 h 51.68884 V 25.838733 h -0.17622 c -0.0172,0.03213 -0.0339,0.06388 -0.0543,0.09767 -0.0927,0.154221 -0.9336,0.44132 -1.17822,0.530716 -0.0833,-0.179045 -0.19982,-0.216898 -0.32763,-0.202571 0.0945,0.152871 0.19019,0.305251 0.24598,0.474907 0.0384,0.1167 0.006,0.247957 -0.0202,0.367935 -0.14076,0.641019 -0.35693,1.005644 -1.0604,1.153935 -0.12797,0.02697 -0.25543,-0.05823 -0.38293,-0.08733 -0.0592,-0.04915 -0.12037,-0.09604 -0.18086,-0.143661 -0.011,0.0122 -0.0152,0.01707 -0.0274,0.03049 -0.0754,0.08335 -0.1725,0.14704 -0.2403,0.236678 -0.0523,0.06914 -0.0481,0.231026 -0.13436,0.222726 -0.21347,-0.02053 -0.42344,-0.06436 -0.63148,-0.117305 -0.0311,0.01352 -0.0646,0.02797 -0.1018,0.04341 -0.10218,0.0016 -0.18962,-0.05633 -0.26717,-0.145211 -0.20964,-0.06059 -0.41919,-0.122777 -0.63045,-0.173633 -0.004,-0.101735 -0.0102,-0.283559 -0.008,-0.456303 -0.001,-0.0011 -0.002,-0.0016 -0.004,-0.0026 -0.0384,0.07982 -0.0729,0.163555 -0.10336,0.253214 -0.0224,0.03478 -0.0276,0.116388 -0.0672,0.104386 -0.36821,-0.111611 -0.72827,-0.257196 -1.06763,-0.438732 -0.036,0.02267 -0.0669,0.03677 -0.0946,0.03876 -0.009,0.03679 -0.0155,0.0669 -0.031,0.04651 -0.0192,-0.02521 -0.0366,-0.04772 -0.0548,-0.07131 -0.0687,0.02254 -0.13769,0.04437 -0.20567,0.06873 -0.0204,0.0097 -0.0406,0.01976 -0.061,0.02946 -0.0765,0.0363 -0.17741,0.170053 -0.23151,0.104902 -0.004,-0.0046 -0.006,-0.0073 -0.0103,-0.01188 -0.54642,0.248737 -0.59347,0.394684 -0.62011,-0.747242 -0.36342,-0.450125 -0.3093,-0.464743 -0.0109,-0.506428 -5.3e-4,-0.02148 -5.3e-4,-0.03473 -0.001,-0.05685 -0.002,-0.09762 0.17887,-0.07932 0.26717,-0.120922 0.1049,-0.0494 0.20919,-0.09957 0.31367,-0.149862 -0.0946,-0.192835 -0.088,-0.260631 0.0289,-0.307991 -0.007,-0.02152 -0.0142,-0.04292 -0.0207,-0.0646 z m 49.32619,1.206645 c 0.0289,0.05607 0.0471,0.120726 0.0946,0.161229 0.0411,0.03503 -0.0441,-0.09805 -0.0662,-0.147278 -0.009,-0.0046 -0.0189,-0.0093 -0.0284,-0.01394 z" />
    </clipPath>
  </defs>
  <g
     inkscape:groupmode="layer"
     id="layer2"
     inkscape:label="Papilas Dérmicas">
    <path
       style="fill:none;stroke:#000000;stroke-width:0.264583px;stroke-linecap:butt;stroke-linejoin:miter;stroke-opacity:1"
       d="m 9.1449352,126.90976 c 0.743188,-0.58388 1.2107588,-1.42026 1.7762438,-2.15983 0.143456,-0.18762 0.325436,-0.34273 0.468385,-0.52992 0.130279,-0.1706 0.181959,-0.4443 0.414278,-0.49822 0.162209,-0.0376 0.322384,-0.0741 0.471242,-0.15895 0.603523,-0.3441 1.142395,-0.78759 1.650518,-1.25961 0.403971,-0.37527 0.779402,-0.7965 1.255142,-1.07876 0.415567,-0.24656 0.899834,-0.33758 1.312823,-0.59666 0.682999,-0.42846 1.316464,-0.94256 2.04041,-1.29932 0.348706,-0.17184 0.732842,-0.24516 1.087407,-0.40745 0.660115,-0.30215 1.291275,-0.66426 1.953878,-0.96048 0.479781,-0.21449 0.961553,-0.46653 1.482887,-0.53386 0.200232,-0.0259 0.409582,0.05 0.603223,-0.0537 0.421011,-0.22545 0.834179,-0.47063 1.281333,-0.64373 0.14329,-0.0555 0.292473,0.002 0.436844,0.0228 0.591407,0.085 1.200012,0.0256 1.767079,-0.17142 0.503695,-0.17499 0.953141,-0.48795 1.494076,-0.57097 0.22856,-0.0351 0.460436,0.25785 0.650053,0.12774 0.125437,-0.0861 0.236692,-0.19991 0.36369,-0.29638 0.142845,-0.10851 0.285082,-0.36523 0.450867,-0.30041 0.643718,0.2517 1.281401,0.52017 1.908595,0.81048 0.303322,0.1404 0.628205,0.24446 0.906639,0.42993 0.26731,0.17806 0.413785,0.50578 0.722013,0.62548 0.261099,0.1014 0.524459,0.24441 0.813073,0.22902 0.14417,-0.008 0.260257,-0.11413 0.315917,-0.24423 0.06481,-0.15149 0.311407,-0.1071 0.338211,-0.28133 0.05235,-0.34027 0.219135,-0.73126 0.04934,-1.02974 -0.06375,-0.11207 -0.239631,-0.0932 -0.348188,-0.0651 -0.110178,0.0285 -0.284012,-0.009 -0.175821,-0.16553 0.105523,-0.15247 0.295884,-0.18042 0.464036,-0.20819 0.20851,-0.0344 0.342213,-0.24256 0.539604,-0.29307 0.239314,-0.0612 0.490737,-0.0448 0.735851,-0.0469 0.417,-0.004 0.838868,0.0485 1.251377,-0.0175 0.915945,-0.14651 1.77476,-0.50675 2.65643,-0.78029 0.404669,-0.12555 0.782482,-0.33026 1.193421,-0.44146 0.114711,-0.031 0.177685,-0.19507 0.0083,-0.1939 -0.181703,0.001 -0.360629,0.0302 -0.544272,0.0143 -0.602115,-0.0521 -1.201637,-0.12602 -1.806525,-0.154 -0.461093,-0.0213 -0.874687,-0.26148 -1.327313,-0.3204 -0.353984,-0.0461 -0.948178,0.34151 -1.06524,0.007 -0.05975,-0.17067 -0.126414,-0.36376 -0.311192,-0.44384 -0.310184,-0.13443 -0.645997,-0.0975 -0.970558,-0.0681 -0.131325,0.0119 -0.149576,-0.0936 -0.05563,-0.18336 0.154476,-0.14768 0.433681,-0.20773 0.486164,-0.41702 0.08665,-0.34554 0.274353,-0.65767 0.479817,-0.94472 0.260625,-0.36411 0.55305,-0.7209 0.935442,-0.96483 0.187048,-0.11932 0.415917,-0.11092 0.628443,-0.13091 0.134287,-0.0126 0.290041,-0.004 0.371068,0.1195 0.08571,0.13054 0.244454,0.1668 0.393522,0.13272 0.218144,-0.0499 0.432283,-0.14188 0.664773,-0.10185 0.270523,0.0466 0.540119,0.092 0.818043,0.0941 0.314896,0.002 0.628699,-0.15998 0.937691,-0.0772 0.396814,0.10632 0.758986,0.30789 1.13122,0.47682 0.354682,0.16096 0.702912,0.35934 1.089164,0.42778 0.32556,0.0577 0.679595,-0.0995 0.983284,0.0346 0.27912,0.12325 0.336012,0.50843 0.621948,0.61301 0.62155,0.22733 1.345085,0.0916 1.923754,0.42696 0.349287,0.20242 0.558432,0.61799 0.961073,0.72518 0.405706,0.10801 0.851544,-0.13807 1.234474,0.0157 0.06115,0.0246 0.115049,0.23048 0.171991,0.0939 0.06921,-0.166 0.198544,-0.29443 0.309863,-0.433 0.341057,-0.42454 0.638088,-0.88679 0.849341,-1.38977 0.106261,-0.253 0.239892,-0.4992 0.301863,-0.76662 0.06512,-0.28101 0.0027,-0.60883 0.165464,-0.84917 0.212433,-0.31373 0.575025,-0.46987 0.908942,-0.61866 0.328218,-0.14625 0.645722,-0.34941 0.836639,-0.67032 0.08346,-0.14029 -0.06143,-0.27136 -0.168649,-0.34491 -0.273278,-0.18747 -0.59817,-0.27215 -0.918846,-0.34086 -1.184306,-0.25374 -2.379075,-0.46551 -3.530842,-0.86688 -0.343547,-0.11972 -0.712499,-0.18319 -1.029435,-0.36688 -0.140879,-0.0817 -0.112608,-0.26149 -0.10781,-0.39936 0.0063,-0.18147 -0.170552,-0.29607 -0.335254,-0.32539 -0.174761,-0.0311 -0.368925,-0.0511 -0.494176,-0.19902 -0.200096,-0.23635 -0.294737,-0.57029 -0.578199,-0.7314 -0.523662,-0.29763 -1.141479,-0.40154 -1.625849,-0.77914 -0.291996,-0.22763 -0.511966,-0.5406 -0.820436,-0.74473 -0.524525,-0.3471 -1.411889,-0.0711 -1.7483,-0.58776 -0.07636,-0.11728 -0.184724,-0.18496 -0.334967,-0.21834 -0.426788,-0.0948 -0.897326,-0.0199 -1.291566,-0.22752 -0.372531,-0.19617 -0.691011,-0.5265 -1.103706,-0.61455 -0.365571,-0.078 -0.767173,-0.0464 -1.098317,-0.24022 -0.127709,-0.0747 -0.257667,-0.13523 -0.404731,-0.17126 -0.40235,-0.0986 -0.83244,-0.11338 -1.209584,-0.28589 -0.161558,-0.0739 0.06837,-0.0282 0.08129,-0.1183 0.03235,-0.2257 0.107257,-0.46601 0.03178,-0.68664 -0.06168,-0.1803 -0.2432,-0.26548 -0.371472,-0.393856 -0.248348,-0.248547 -0.331021,-0.596379 -0.51392,-0.888189 -0.111702,-0.178217 -0.340944,-0.160775 -0.491683,-0.2953 -0.556115,-0.4963 -1.323895,-0.710435 -1.827119,-1.264379 -0.169747,-0.186856 -0.224064,-0.450976 -0.430836,-0.614462 -0.223151,-0.176436 -0.483444,-0.342587 -0.585172,-0.621416 -0.290239,-0.795522 -0.546799,-1.61773 -0.598583,-2.467137 -0.02808,-0.460556 -0.02692,-0.941291 0.140704,-1.374144 0.102266,-0.264086 0.29001,-0.51664 0.25368,-0.816754 -0.01841,-0.152046 -0.02883,-0.305633 0.02961,-0.455206 0.135107,-0.345844 0.255094,-0.704774 0.459123,-1.015349 0.261691,-0.398348 0.668215,-0.689686 0.854342,-1.142025 0.171733,-0.417357 0.218735,-0.905363 0.534446,-1.24849 0.208107,-0.226179 0.481766,-0.418218 0.570705,-0.729559 0.09219,-0.322731 0.02813,-0.670325 0.173455,-0.985117 0.234,-0.506871 0.488032,-1.005956 0.783884,-1.480385 0.141448,-0.226826 0.369007,-0.376705 0.577516,-0.535068 1.19072,-0.904354 2.59242,-1.468766 3.992609,-1.959773 0.689748,-0.241875 1.371101,-0.508787 2.067795,-0.729754 0.898357,-0.284927 1.909054,-0.09368 2.769439,-0.465709 0.225078,-0.09732 0.364243,-0.31107 0.509227,-0.497451 0.106646,-0.137097 0.256408,-0.224827 0.410276,-0.302743 0.549194,-0.278101 1.159708,-0.443302 1.669594,-0.788164 0.220974,-0.149456 0.322466,-0.440782 0.599591,-0.521954 0.75609,-0.221464 1.516341,-0.434876 2.289463,-0.584957 0.748021,-0.145208 1.512085,0.0794 2.261163,-0.07537 0.348211,-0.07195 0.699511,-0.14489 1.060385,-0.117932 0.220811,0.01649 0.449495,0.114885 0.66232,0.05312 0.06351,-0.01843 -0.130962,-0.09534 -0.02591,-0.0093 0.573933,0.469902 1.26775,0.798959 1.999755,0.928886 0.339882,0.06033 0.714993,-0.0181 1.025964,0.141164 0.149123,0.07637 0.244467,0.221981 0.389369,0.308743 0.199835,0.119654 0.408325,0.356545 0.633044,0.295703 0.136555,-0.03697 0.283953,-0.0225 0.425423,0.01717 0.347163,0.09735 0.617556,0.353268 0.96951,0.450643 1.0947,0.30287 2.241855,0.215143 3.364218,0.198107 0.25325,-0.0038 0.518165,-0.03359 0.755196,0.08682 0.459871,0.233617 0.763362,0.71798 1.276963,0.856176 0.269205,0.07244 0.585878,0.138069 0.832007,-0.0021 0.194773,-0.110951 -0.140603,-0.125637 -0.205863,-0.121567"
       id="path55"
       inkscape:path-effect="#path-effect57"
       inkscape:original-d="m 9.1449352,126.90976 c 0.9257348,-0.72942 1.3986178,-1.84469 2.1953868,-2.63308 0.141082,-0.1396 0.196137,-0.3806 0.354097,-0.49901 0.13809,-0.10352 0.312702,-0.0703 0.460323,-0.14864 0.359887,-0.19092 0.789567,-0.48623 1.097694,-0.73259 0.637626,-0.50983 1.174944,-1.12681 1.841293,-1.61383 0.357876,-0.26156 0.895654,-0.34161 1.286545,-0.58394 0.69247,-0.4293 1.348178,-0.90853 2.05375,-1.31654 0.356506,-0.20616 0.700096,-0.2382 1.062283,-0.40346 0.531091,-0.24232 1.097195,-0.53232 1.617032,-0.79629 0.622872,-0.31629 1.206336,-0.54597 1.888509,-0.7432 0.203303,-0.0588 0.370526,0.0472 0.590155,-0.0318 0.103672,-0.0373 1.264718,-0.7429 1.499005,-0.70074 0.783677,0.141 1.444634,0.12842 2.195386,-0.1805 0.515988,-0.21232 0.862415,-0.48773 1.404575,-0.52024 0.224134,-0.0134 0.591593,0.29405 0.708192,0.0319 0.232128,-0.16637 0.442038,-0.36922 0.696385,-0.49911 0.02669,-0.0136 2.584265,1.08208 2.809151,1.2316 0.342828,0.22794 0.382506,0.50088 0.814421,0.66889 0.286784,0.11155 0.847166,0.39713 1.038678,-0.0212 0.0699,-0.15269 0.196412,-0.13497 0.318687,-0.22296 0.08348,-0.0601 0.08262,-0.98323 0.08262,-1.11481 0,-0.1784 -0.913022,0.10994 -0.436717,-0.31852 0.09996,-0.0899 0.375776,-0.10663 0.483928,-0.14864 0.184743,-0.0718 0.295772,-0.17565 0.413113,-0.25481 0.167032,-0.11269 1.602997,-0.0117 2.006535,-0.0743 0.837423,-0.12988 1.672638,-0.5 2.490469,-0.73259 0.09772,-0.0278 1.399738,-0.39044 1.475395,-0.59457 0.05926,-0.15988 -0.337382,-0.0528 -0.507538,-0.0637 -0.61919,-0.0398 -1.20131,-0.14935 -1.829489,-0.15926 -0.663751,-0.0105 -1.069303,-0.31404 -1.593427,-0.33975 -0.333095,-0.0163 -0.913301,0.041 -0.920646,0.0212 -0.104262,-0.28134 -0.129472,-0.43525 -0.519339,-0.49901 -0.273078,-0.0447 -0.572117,0.0513 -0.838022,-0.0319 -0.260233,-0.0814 0.492024,-0.44383 0.519339,-0.6158 0.07103,-0.44721 1.050229,-1.92268 1.687852,-1.97481 0.132323,-0.0108 0.514753,-0.0693 0.613761,0 0.163773,0.11459 0.173632,0.25752 0.413112,0.23358 0.213499,-0.0213 0.434183,-0.15319 0.649175,-0.12741 0.435936,0.0523 0.510805,0.14509 1.085889,0.0956 0.17507,-0.0151 0.509403,-0.10588 0.719994,-0.0743 0.465227,0.0697 1.699115,0.81634 2.266207,0.91308 0.30588,0.0522 0.625988,-0.028 0.932448,0.0212 0.279849,0.045 0.41453,0.53138 0.672784,0.62642 0.586148,0.21569 1.313616,0.15021 1.876704,0.40345 0.336718,0.15143 0.625203,0.6506 1.026869,0.75382 0.382101,0.0982 0.82573,-0.0263 1.215728,0.0106 0.08207,0.008 0.01108,0.10601 0.10623,0.12741 0.0739,0.0166 0.100271,-0.12287 0.129832,-0.15926 0.714475,-0.87947 0.926128,-1.22188 1.36917,-2.36765 0.08043,-0.20799 0.105289,-0.83754 0.212452,-0.97678 0.465603,-0.60497 1.370051,-0.55486 1.735072,-1.27407 0.136909,-0.26976 -0.575383,-0.54889 -0.767206,-0.59456 -1.27361,-0.30327 -2.576589,-0.42345 -3.812427,-0.92371 -0.215793,-0.0874 -1.048181,-0.2864 -1.144908,-0.44592 -0.129586,-0.21371 0.06528,-0.36625 -0.141633,-0.56272 -0.161274,-0.15312 -0.483883,-0.0798 -0.660975,-0.23357 -0.253603,-0.22026 -0.309341,-0.60922 -0.660983,-0.80691 -0.44791,-0.25183 -1.001259,-0.35542 -1.428181,-0.63704 -0.331141,-0.21843 -0.613812,-0.5415 -0.885237,-0.78567 -0.46949,-0.42236 -1.314839,-0.43211 -1.864899,-0.67951 -0.09445,-0.0425 -0.033,-0.13242 -0.188851,-0.18049 -0.438412,-0.13521 -0.945394,-0.0735 -1.369166,-0.23358 -0.186545,-0.0705 -1.02216,-0.62603 -1.215724,-0.65827 -0.472306,-0.0787 -0.807726,-0.0494 -1.227529,-0.32913 -0.138561,-0.0923 -2.001772,-0.38914 -1.36917,-0.42469 0.196363,-1.087481 -0.07872,-0.71841 -0.472124,-1.312914 -0.155904,-0.235602 -0.227907,-0.567538 -0.424913,-0.76444 -0.112144,-0.112085 -0.286277,-0.09443 -0.401308,-0.20173 -0.537171,-0.501092 -1.272357,-0.74797 -1.829493,-1.263448 -0.202239,-0.187118 -0.208047,-0.433729 -0.424913,-0.615801 -0.299761,-0.251668 -0.521655,-0.34796 -0.660975,-0.743208 -0.393465,-1.116244 -0.771832,-2.456186 -0.460324,-3.641713 0.06427,-0.244584 0.22784,-0.451399 0.283277,-0.700739 0.03873,-0.17419 -0.02503,-0.34768 -0.0118,-0.520245 0.0103,-0.1343 0.407324,-1.027197 0.507539,-1.178514 0.200282,-0.302412 0.489601,-0.54115 0.696385,-0.838763 0.287762,-0.41416 0.321206,-1.086149 0.63737,-1.486411 0.190279,-0.240893 0.443792,-0.38279 0.578354,-0.668888 0.156673,-0.33311 0.05013,-0.692483 0.177047,-1.008639 0.111024,-0.276561 0.72524,-1.554193 0.991467,-1.783697 1.823753,-1.572191 4.125027,-2.157425 6.326492,-2.972826 0.888916,-0.329246 1.985592,-0.305815 2.891781,-0.509627 0.270714,-0.06089 0.51196,-0.58136 0.779006,-0.721975 0.587048,-0.309113 1.201621,-0.550188 1.794083,-0.849377 0.227061,-0.114664 0.340493,-0.455999 0.590155,-0.530863 0.720619,-0.216088 1.484484,-0.390767 2.218996,-0.573332 0.649277,-0.161379 1.25081,-0.01331 1.912106,-0.04247 0.502615,-0.02216 0.837284,-0.180745 1.286548,-0.191108 0.243282,-0.0056 1.229431,0.138601 0.838026,0.02123 0.597011,0.515163 1.505853,0.947336 2.337022,0.998024 1.154419,0.0704 0.570493,0.180135 1.392771,0.562714 0.676985,0.314979 0.18762,0.02685 0.755405,0.159261 0.332231,0.07748 0.558731,0.324638 0.885237,0.424689 1.22398,0.375064 2.575711,0.246335 3.836028,0.222963 0.613443,-0.01138 0.995532,0.702265 1.558013,0.913083 0.71881,0.26941 1.408535,-0.08494 0.743596,-0.08494" />
    <path
       style="fill:none;stroke:#000000;stroke-width:0.264583px;stroke-linecap:butt;stroke-linejoin:miter;stroke-opacity:1"
       d="m 65.209985,81.099971 c 0.02281,0.431466 0.147126,0.86932 0.06865,1.294692 -0.04117,0.223169 -0.199653,0.401771 -0.239408,0.628053 -0.06442,0.366704 -0.23144,0.792617 -0.04173,1.113783 0.06578,0.111356 0.166502,0.198545 0.256971,0.290055 0.344122,0.348079 0.716607,0.670465 1.029094,1.047929 0.135603,0.1638 0.202943,0.370838 0.269563,0.569316 0.169168,0.503994 0.239783,1.059261 0.552761,1.498931 0.06659,0.09355 0.121337,0.216088 0.228639,0.260038 0.153419,0.06284 0.331212,0.06342 0.488133,0.01782 0.101206,-0.02941 0.176406,-0.107454 0.258808,-0.169437 0.186173,-0.14004 0.3916,-0.288703 0.467181,-0.521898 0.128166,-0.395438 0.202768,-0.805584 0.309334,-1.206983 0.132526,-0.499183 0.268898,-1.009663 0.544969,-1.451046 0.143782,-0.229879 0.350442,-0.458649 0.632033,-0.499442 0.112994,-0.01637 0.252293,-0.04065 0.338261,0.03454 0.09029,0.07897 0.106526,0.209896 0.127348,0.321079 0.05337,0.285003 0.03565,0.579729 0.09424,0.862974 0.05867,0.28364 0.214152,0.541145 0.22232,0.838484 0.014,0.509765 -0.05788,1.015609 -0.113417,1.520911 -0.04865,0.442583 -0.03514,0.894712 0.07668,1.327469 0.07205,0.278872 0.150814,0.561526 0.292178,0.812498 0.149187,0.26486 0.456345,0.362692 0.685648,0.539472 0.198619,0.153124 0.374827,0.333141 0.561709,0.500104 0.304235,0.271807 0.603064,0.561369 0.968193,0.751589 0.225193,0.117318 0.497355,0.153524 0.739114,0.06387 0.34738,-0.128828 0.621442,-0.396587 0.856719,-0.6727 0.194144,-0.227841 0.378401,-0.464639 0.532269,-0.723134 0.149058,-0.250415 0.290952,-0.508917 0.487919,-0.72657 0.06318,-0.06981 0.172142,-0.134675 0.26006,-0.07442 0.122958,0.08427 0.154378,0.244764 0.174843,0.382232 0.06868,0.461362 0.04169,0.929889 0.06825,1.394262 0.01614,0.282196 0.02675,0.571804 0.12568,0.840301 0.04116,0.111719 0.158777,0.136185 0.273604,0.201048 0.06635,0.03748 0.0931,0.154332 0.116818,0.233367 0.135846,0.452709 0.05103,0.945569 0.237308,1.388176 0.08331,0.197962 0.251357,0.341936 0.433896,0.448992 0.182997,0.107325 0.388106,0.196501 0.514528,0.376818 0.09972,0.142232 0.203139,0.300838 0.377144,0.358644 0.464745,0.154392 0.917646,0.368831 1.407294,0.427547 0.554913,0.06654 1.11675,0.06272 1.673092,0.02177 0.523974,-0.03857 1.080746,-0.02132 1.556251,-0.249454 0.09108,-0.0437 0.257242,-0.03757 0.278382,-0.142321 0.04184,-0.207317 0.02837,-0.421269 0.0187,-0.63104 -0.01125,-0.244247 0.05779,-0.482415 0.113142,-0.717777 0.109642,-0.466194 0.276487,-0.933356 0.253787,-1.415992 -0.0066,-0.139967 -0.01204,-0.298077 -0.127894,-0.400852 -0.08376,-0.0743 -0.228069,-0.125566 -0.225902,-0.255704 0.0028,-0.167041 0.173137,-0.272297 0.16475,-0.448306 -0.01169,-0.245381 -0.189809,-0.471675 -0.152152,-0.713379 0.03903,-0.250504 0.122374,-0.492183 0.211401,-0.728595 0.07465,-0.198236 0.103014,-0.431297 0.2499,-0.584864 0.08682,-0.09077 0.194137,-0.162027 0.296801,-0.23455 0.176732,-0.124846 0.398093,-0.182999 0.615126,-0.147782 0.11814,0.01917 0.229155,0.06917 0.350416,0.07267 0.09507,0.0027 0.184147,0.0477 0.23622,0.131629 0.157074,0.25317 0.149015,0.565587 0.299534,0.825669 0.274,0.473444 0.572761,0.945709 0.699607,1.48611 0.0885,0.37704 0.08315,0.766103 0.115937,1.149968 0.124098,1.453032 0.481683,2.873372 0.678078,4.316301 0.09195,0.675535 -0.0794,1.363262 0.05593,2.034948 0.0357,0.177209 0.09872,0.353351 0.224187,0.488898 0.266477,0.287886 0.590621,0.517932 0.929427,0.711915 0.195644,0.112016 0.401392,0.216416 0.630224,0.241096 0.227046,0.0245 0.455616,-0.004 0.685247,-0.004 0.06916,-4e-5 -0.05617,-0.12066 0.02495,-0.10118 0.332623,0.0799 0.718917,0.0371 0.998438,0.24177 0.127866,0.0936 0.177796,0.25572 0.215848,0.40174 0.109662,0.42083 0.163334,0.8601 0.133674,1.29323 -0.0086,0.12623 0.0059,0.48363 -0.06302,0.37545 -0.04226,-0.0664 -0.0235,-0.1902 -0.0056,-0.27553 0.07643,-0.36336 0.304853,-0.66407 0.46216,-0.99391 0.280455,-0.58806 0.439801,-1.252833 0.847359,-1.761481 0.03838,-0.0479 0.137089,-0.233539 0.146068,-0.156221 0.02001,0.17228 0.01048,0.346683 0.03685,0.519875 0.04209,0.276527 0.247585,0.489177 0.464707,0.647577 0.393563,0.28712 0.873837,0.4513 1.214412,0.81215 0.178352,0.18897 0.246383,0.44476 0.34831,0.67696 0.0538,0.12256 0.12017,0.24741 0.241961,0.31722 0.112354,0.0644 0.22579,0.14235 0.270686,0.27583 0.07628,0.22679 0.02038,0.54389 0.213118,0.68531 0.07456,0.0547 0.155318,0.11094 0.214379,0.18697 0.06728,0.0866 0.168823,0.16117 0.181769,0.27577 0.01328,0.11757 0.148622,0.10387 0.236576,0.0875 0.184642,-0.0344 0.356511,-0.12336 0.544025,-0.14168 0.16583,-0.0162 0.374903,0.0392 0.495914,-0.079 0.123052,-0.12022 0.210313,-0.27294 0.297302,-0.42014 0.299543,-0.50688 0.582481,-1.0268 0.798091,-1.57484 0.06434,-0.16353 0.163728,-0.32595 0.161054,-0.5027 -0.0016,-0.10568 -0.119207,-0.14168 -0.193599,-0.18975 -0.09753,-0.063 -0.11804,-0.18688 -0.145532,-0.29063 -0.07523,-0.28392 0.0143,-0.587835 -0.105479,-0.865298 -0.05829,-0.135024 -0.177665,-0.230909 -0.251446,-0.35567 -0.111586,-0.188688 -0.09259,-0.418376 -0.07355,-0.627813 0.02378,-0.261615 0.09891,-0.51838 0.09683,-0.781693 -0.0018,-0.23229 -0.173001,-0.410854 -0.222232,-0.631552 -0.04484,-0.20101 -0.06422,-0.415736 -0.01309,-0.614589 0.03802,-0.147863 0.140242,-0.267489 0.177966,-0.417187 0.09538,-0.378489 0.110741,-0.771093 0.106782,-1.15856 -0.0032,-0.312481 -0.08145,-0.622974 -0.05061,-0.93579 0.01182,-0.119849 0.112683,-0.204506 0.202367,-0.270968 0.186311,-0.13807 0.441303,-0.145101 0.608518,-0.317645 0.110941,-0.114476 0.371783,-0.317269 0.24204,-0.407244 -0.07209,-0.05 -0.180092,-0.01836 -0.23835,-0.121942 -0.07395,-0.131487 -0.03344,-0.334255 -0.172067,-0.41649 -0.155079,-0.09199 -0.345813,-0.144967 -0.457391,-0.294073 -0.07718,-0.103142 0.03727,-0.205033 0.125908,-0.248969 0.177921,-0.08819 0.377883,-0.107378 0.5625,-0.180769 0.468998,-0.186441 0.975239,-0.270134 1.479623,-0.259504 0.417751,0.0088 0.838591,0.01642 1.249591,0.08991 0.27837,0.04977 0.48072,0.275823 0.75782,0.336722 0.58133,0.127759 1.18546,0.153803 1.77674,0.07752 0.163,-0.02103 0.31756,-0.08138 0.47843,-0.111046 0.27729,-0.05114 0.58826,0.05961 0.83966,-0.08687 0.0889,-0.05177 0.22253,-0.145544 0.1846,-0.257596 -0.0408,-0.120644 -0.17357,-0.220687 -0.1438,-0.356047 0.0497,-0.225806 0.22774,-0.400912 0.23939,-0.642952 0.005,-0.103267 -0.0515,-0.182493 -0.11737,-0.25917 -0.52872,-0.615017 -1.05381,-1.233358 -1.56126,-1.86635 -0.11426,-0.142529 -0.20647,-0.299699 -0.29363,-0.460221 -0.40975,-0.754595 -0.81114,-1.523804 -1.35012,-2.193136 -0.16788,-0.208481 -0.42539,-0.331829 -0.5692,-0.559841 -0.11521,-0.182661 -0.063,-0.421315 -0.20095,-0.597137 -0.20539,-0.261735 -0.4788,-0.463432 -0.64942,-0.756489 -0.21132,-0.362959 -0.45678,-0.707474 -0.622161,-1.097126 -0.06747,-0.158972 -0.0385,-0.331538 -0.02845,-0.497523 0.0068,-0.112186 -0.04968,-0.205848 -0.135843,-0.279615 -0.252681,-0.216331 -0.605013,-0.302567 -0.826517,-0.549434 -0.325805,-0.363112 -0.635419,-0.740537 -0.944431,-1.117956 -0.264351,-0.322872 -0.56731,-0.618444 -0.789146,-0.971888 -0.240151,-0.382624 -0.254819,-0.846142 -0.383744,-1.268751 -0.220437,-0.722583 -0.255219,-1.484477 -0.245728,-2.235419 0.0085,-0.672104 0.04979,-1.344943 -0.0029,-2.016729 -0.04836,-0.616774 -0.159761,-1.268463 0.06292,-1.855573 0.08187,-0.215837 0.29498,-0.332746 0.460421,-0.477147 0.118773,-0.103668 0.19741,-0.242723 0.241517,-0.398064 0.03813,-0.134284 0.04784,-0.300823 0.160674,-0.388723 0.08934,-0.0696 0.166114,0.06255 0.216696,0.121737 0.271817,0.318085 0.352139,0.74008 0.479657,1.127042 0.03876,0.117629 0.04694,0.257481 0.131388,0.348276 0.2035,0.218798 0.430159,0.414885 0.65354,0.612934 0.529647,0.469585 0.951552,1.117342 1.604214,1.391382 0.13923,0.05846 0.29513,0.06554 0.44453,0.07583 0.33,0.02272 0.66182,-0.0052 0.98791,-0.05466 0.18077,-0.02742 0.36689,-0.07891 0.5021,-0.211989 0.2231,-0.219592 0.52251,-0.338915 0.81896,-0.420841 0.49667,-0.137259 1.06317,-0.07103 1.50586,-0.343648 0.1478,-0.09102 0.12533,-0.298457 0.25045,-0.412078 0.28362,-0.257549 0.67521,-0.394821 0.89485,-0.719816 0.0723,-0.106934 0.16835,-0.2359 0.13391,-0.361847 -0.0313,-0.114618 -0.17266,-0.009 -0.23077,0.03272 -0.0757,0.05443 -0.14729,0.115157 -0.2118,0.182554"
       id="path59"
       inkscape:path-effect="#path-effect61"
       inkscape:original-d="m 65.209985,81.099971 c 0.0236,0.421148 0.07079,0.841637 0.07078,1.263449 -3e-6,0.161399 -0.18886,0.410117 -0.224261,0.573326 -0.07756,0.357579 -0.106664,0.839652 -0.05901,1.199753 0.01347,0.101788 1.223248,1.180105 1.369168,1.45456 0.348295,0.655095 0.384321,1.652987 0.932448,2.187152 0.09935,0.09682 0.500414,0.09177 0.613764,0 0.184764,-0.14958 0.501158,-0.336019 0.601964,-0.562714 0.288542,-0.648877 0.562211,-3.600537 1.841286,-3.217023 0.187925,0.05634 0.202885,1.004366 0.236069,1.178515 0.05457,0.286374 0.217204,0.513069 0.224253,0.817525 0.03409,1.472076 -0.45838,2.057588 0.224263,3.631097 0.15561,0.358687 0.549051,0.44079 0.826225,0.69012 1.430028,1.28637 1.932485,2.042017 3.387506,0.09556 0.154839,-0.20714 0.554601,-1.051084 0.802616,-1.082958 0.648978,-0.0834 0.0024,2.972411 0.767204,2.834804 0.303289,0.538727 0.06878,1.240791 0.413116,1.762457 0.172762,0.261731 0.455402,0.3424 0.696385,0.509627 0.237246,0.164633 0.262957,0.439071 0.566554,0.541481 0.392096,0.132263 0.926955,0.351343 1.333751,0.414071 0.819842,0.126418 2.792471,0.0487 3.540947,-0.318515 0.0868,-0.04259 0.03118,-0.70889 0.04722,-0.838763 0.07627,-0.617445 0.461412,-1.585469 0.342292,-2.197768 -0.04414,-0.226878 -0.311448,-0.234232 -0.330491,-0.414075 -0.01554,-0.146747 0.165242,-0.27375 0.165242,-0.41407 0,-0.257595 -0.122615,-0.483154 -0.153442,-0.732589 -0.01984,-0.160528 0.380323,-1.285746 0.483933,-1.369627 0.372016,-0.301178 0.605144,-0.46257 1.074088,-0.3079 0.116101,0.03829 0.2714,0.0055 0.354093,0.09556 0.187296,0.203943 0.173201,0.584532 0.306883,0.817527 0.433116,0.754883 0.766168,1.201541 0.814416,2.112834 0.08672,1.63792 0.409688,3.230252 0.708194,4.84146 0.132772,0.716645 -0.12987,1.709305 0.153441,2.38888 0.149296,0.358114 1.060432,0.963373 1.451791,1.104183 0.300324,0.10806 1.233054,0.10548 0.956049,-0.0531 0.327573,0.0779 0.67551,0.0958 0.982719,0.2336 0.338867,0.152 0.451644,1.7448 0.306883,2.07036 -0.02608,0.0587 -0.03266,-0.12757 -0.0236,-0.19111 0.04718,-0.33103 0.225639,-0.58265 0.377703,-0.87062 0.155295,-0.29408 0.912789,-1.999593 1.050478,-2.123442 0.116578,-0.104859 -0.04368,0.464555 0.188851,0.817532 0.372583,0.56555 1.215003,0.69816 1.628833,1.24221 0.204645,0.26904 0.223476,0.54355 0.389512,0.7963 0.102342,0.15579 0.335627,0.17074 0.401303,0.3716 0.399193,1.22084 0.02515,0.36146 0.578355,1.07234 0.04364,0.0561 0.03189,0.15737 0.09442,0.19111 0.120633,0.0651 0.535884,-0.12076 0.684585,-0.13802 0.07242,-0.008 0.48386,-0.0212 0.554753,-0.0956 0.279523,-0.29334 1.181104,-2.01311 1.23933,-2.48443 0.01496,-0.12113 -0.218753,-0.15277 -0.271472,-0.27605 -0.249126,-0.58258 0.11284,-0.837998 -0.389503,-1.380243 -0.274628,-0.296443 6.15e-4,-1.119671 -0.0118,-1.454561 -0.01373,-0.370386 -0.313509,-0.400441 -0.247871,-1.167896 0.01563,-0.1828 0.108428,-0.253454 0.165242,-0.414074 0.118205,-0.334182 0.09863,-0.84284 0.12984,-1.189129 0.02197,-0.24372 -0.127824,-0.942827 -0.01181,-1.093577 0.355208,-0.461556 0.701906,-0.106523 1.015076,-0.881232 0.018,-0.04453 -0.15044,-0.02483 -0.188851,-0.0637 -0.126696,-0.128218 -0.08393,-0.344664 -0.200652,-0.467162 -0.06913,-0.07255 -0.742183,-0.283454 -0.413112,-0.520245 0.158752,-0.114234 0.37351,-0.117586 0.554745,-0.191108 0.999345,-0.405404 1.671842,-0.290867 2.761942,-0.20173 0.26537,0.0217 0.48275,0.265962 0.7436,0.329137 0.72425,0.175399 1.63756,0.186795 2.21899,0 0.3605,-0.115817 0.89276,0.103238 1.1095,-0.286668 0.0591,-0.106383 -0.17848,-0.286148 -0.14163,-0.435307 0.0743,-0.300864 0.32119,-0.437642 0.21245,-0.796291 -0.003,-0.01001 -1.65441,-1.891266 -1.8531,-2.261473 -0.43762,-0.815416 -0.86658,-1.556376 -1.40458,-2.31456 -0.15436,-0.217545 -0.39961,-0.350153 -0.56654,-0.552095 -0.16507,-0.199692 -0.0886,-0.444341 -0.21246,-0.615801 -0.20198,-0.279511 -0.48381,-0.445714 -0.66098,-0.76444 -0.17729,-0.318959 -0.609191,-0.893278 -0.672781,-1.252834 -0.01563,-0.08837 0.04657,-0.475993 -0.04721,-0.573332 -0.240538,-0.249655 -0.626827,-0.405157 -0.897037,-0.615801 -0.09589,-0.07475 -1.693165,-2.017664 -1.746872,-2.102211 -0.228389,-0.359538 -0.242069,-0.813566 -0.365894,-1.210369 -0.389221,-1.247279 -0.236062,-2.378043 -0.236062,-3.652328 0,-0.831665 -0.198461,-1.635457 0.0236,-2.484436 0.08344,-0.318981 0.548202,-0.44052 0.684585,-0.796294 0.0095,-0.02488 0.126839,-0.639738 0.283273,-0.499009 0.467863,0.420892 0.489824,1.056393 0.719995,1.581967 0.05641,0.128812 2.249933,2.016412 2.278013,2.027896 0.16261,0.06649 0.61404,0.08563 0.80261,0.07432 1.4646,-0.08784 0.76653,-0.266865 1.73507,-0.626419 0.54062,-0.200694 1.181,-0.185728 1.69965,-0.403453 0.14554,-0.06109 0.13398,-0.294179 0.24787,-0.403456 0.33232,-0.318866 0.92723,-0.495211 1.03868,-1.029871 0.0609,-0.292343 -0.32882,0.03217 -0.43672,0.148639" />
    <path
       style="fill:none;stroke:#000000;stroke-width:0.264583px;stroke-linecap:butt;stroke-linejoin:miter;stroke-opacity:1"
       d="m 105.65059,72.181171 c -0.11179,-0.174419 -0.3563,-0.314428 -0.33415,-0.526135 0.0141,-0.134563 0.13223,-0.225769 0.21679,-0.320809 0.13068,-0.14688 0.33973,-0.293112 0.32298,-0.500562 -0.0215,-0.265842 -0.16475,-0.517642 -0.37931,-0.676686 -0.24903,-0.184592 -0.50333,-0.368589 -0.69533,-0.616708 -0.24928,-0.322141 -0.45801,-0.682893 -0.78513,-0.937825 -0.33936,-0.264469 -0.71822,-0.471203 -1.05692,-0.73802 -0.56674,-0.446459 -1.13581,-0.891784 -1.66966,-1.377796 -0.26707,-0.243136 -0.42704,-0.588254 -0.49642,-0.937711 -0.13012,-0.655424 0.039,-1.315723 0.15093,-1.959701 0.0698,-0.401447 0.0668,-0.810257 0.0327,-1.216136 -0.0219,-0.260474 -0.0887,-0.521941 -0.0615,-0.782297 0.0285,-0.272021 0.17654,-0.511746 0.19827,-0.788417 0.0504,-0.642092 0.13638,-1.283875 0.11792,-1.928621 -0.005,-0.162737 0.11647,-0.235779 0.25451,-0.304174 0.14679,-0.07273 0.31515,-0.107982 0.4471,-0.204968 0.21265,-0.156304 0.3262,-0.415347 0.57328,-0.536824 0.54317,-0.267048 1.17191,-0.249434 1.75633,-0.16807 0.38615,0.05376 0.78479,0.07091 1.15224,0.200292 0.35113,0.123635 0.65933,0.422888 1.03182,0.425243 0.12164,7.69e-4 0.0739,-0.21255 0.0736,-0.30112 -5.6e-4,-0.146727 -0.0216,-0.311877 0.0789,-0.431494 0.10592,-0.126048 0.098,-0.283922 0.052,-0.438393 -0.13232,-0.44363 -0.31083,-0.879354 -0.36046,-1.34287 -0.0139,-0.129724 0.008,-0.280349 0.14165,-0.352351 0.39067,-0.210179 0.85965,-0.135605 1.25886,-0.333754 0.45972,-0.228183 0.93962,-0.424449 1.36673,-0.710313 0.36425,-0.24379 0.56849,-0.684783 0.96409,-0.876406 0.41298,-0.200042 0.85076,-0.344721 1.28949,-0.475582 0.34223,-0.102078 0.68069,-0.230499 1.03516,-0.27931 0.32873,-0.04527 0.64104,0.115948 0.89792,0.306463 0.26936,0.19977 0.54249,0.405324 0.86886,0.507147 0.64691,0.201826 1.33601,0.233505 1.97053,0.48448 0.50088,0.198117 0.98638,0.486263 1.5325,0.519007 0.1452,0.0087 0.33619,0.074 0.44105,-0.04355 0.12424,-0.139283 0.26948,-0.265784 0.45034,-0.326627 0.20743,-0.06978 0.42649,-0.120862 0.59829,-0.270363 0.44986,-0.391467 0.85853,-0.828738 1.24458,-1.281999 0.15205,-0.178522 0.34512,-0.331885 0.4495,-0.541963 0.10154,-0.204353 0.0364,-0.462356 0.19429,-0.646785 0.14909,-0.174189 0.4234,-0.273825 0.46422,-0.511675 0.037,-0.215714 0.2005,-0.428873 0.13937,-0.641996 -0.0432,-0.150577 -0.22904,-0.185344 -0.36006,-0.220912 -0.40577,-0.110151 -0.83359,-0.112347 -1.23877,-0.21985 -0.83336,-0.221106 -1.54509,-0.725442 -2.27801,-1.157279 -0.46561,-0.274337 -0.80771,-0.721234 -1.31188,-0.941455 -0.83573,-0.365044 -1.76293,-0.526948 -2.5347,-1.030056 -0.50449,-0.328872 -0.87559,-0.833988 -1.1117,-1.381935 -0.35146,-0.815649 -0.37724,-1.719443 -0.40019,-2.59784 -0.008,-0.323825 -0.15671,-0.652066 -0.0651,-0.970249 0.0455,-0.158038 0.19119,-0.262561 0.32443,-0.349067 0.0973,-0.0632 0.008,0.115146 0.0946,0.135816 0.16386,0.03919 0.27722,-0.118028 0.32741,-0.252589 0.18072,-0.48456 0.17455,-1.011131 0.3041,-1.508901 0.0312,-0.11996 0.11011,-0.244015 0.24903,-0.249625 0.1758,-0.0071 0.2575,0.176179 0.32455,0.309572 0.0804,0.159863 0.11054,0.367034 0.26995,0.468745 0.20002,0.127623 0.48833,0.113646 0.63635,0.313063 0.0947,0.127639 -0.12846,0.412001 0.0111,0.427681 0.16107,0.0181 0.32485,-0.02194 0.48612,-0.03549 0.174,-0.01461 0.34869,-0.07177 0.52267,-0.0469 0.1723,0.02463 0.19955,0.224524 0.30162,0.332046 0.15475,0.163023 0.37751,0.239644 0.58879,0.297154 0.2507,0.06824 0.4953,0.15376 0.73543,0.255222 0.48083,0.203167 0.97678,0.393062 1.50501,0.434397 0.29328,0.02295 0.60718,0.0031 0.87443,0.137969 0.16927,0.08545 0.22851,0.321084 0.40537,0.375039 0.20983,0.06401 0.47414,-0.101326 0.64578,0.03001 0.45614,0.349035 1.00635,0.607121 1.35737,1.061726 0.33403,0.432601 0.72049,0.833359 0.98157,1.313599 0.27945,0.514037 0.63952,0.996618 0.79657,1.566889 0.0944,0.342708 -2.4e-4,0.714987 0.11092,1.049986 0.074,0.222981 0.28241,0.366012 0.35027,0.596577 0.0837,0.284347 -0.0339,0.617415 0.12085,0.872739 0.0784,0.12926 0.22866,0.183257 0.30156,0.327033 0.0941,0.185628 0.13749,0.42585 0.3414,0.527567 0.26293,0.131158 0.5578,0.204633 0.84862,0.212288 0.43042,0.01133 0.8449,0.182773 1.28026,0.141105 0.23437,-0.02243 0.44877,-0.18603 0.51537,-0.411245 0.089,-0.300927 0.12453,-0.614979 0.2015,-0.919139 0.0777,-0.30722 0.16734,-0.618025 0.3385,-0.891107 0.0772,-0.123125 0.22296,-0.143227 0.35297,-0.17204 0.74398,-0.164875 1.44091,-0.484063 2.16305,-0.723018 0.46661,-0.154401 0.98386,-0.130988 1.42361,-0.373923 0.39123,-0.216129 0.66034,-0.597934 1.05115,-0.812043 0.29817,-0.163355 0.65776,-0.235264 0.88865,-0.504377 0.12492,-0.145598 0.25667,-0.287522 0.43101,-0.379538 0.54101,-0.285552 1.1395,-0.494857 1.58334,-0.932958 0.38743,-0.382423 0.71662,-0.874642 0.74341,-1.435673 0.008,-0.159787 -0.0145,-0.321138 -0.0834,-0.466981 -0.0633,-0.13387 -0.053,-0.297695 0.0473,-0.415226 0.0861,-0.100937 0.19027,-0.209143 0.17529,-0.35814 -0.0321,-0.31928 -0.21543,-0.627018 -0.13573,-0.953112 0.0702,-0.287193 0.34074,-0.456677 0.50434,-0.68658 0.0584,-0.08203 0.18913,-0.169334 0.15924,-0.268301 -0.10711,-0.354647 -0.24111,-0.720071 -0.20137,-1.094906 0.0183,-0.172994 0.12314,-0.317169 0.20039,-0.468128 0.19214,-0.375473 0.37094,-0.763352 0.63348,-1.096549 0.1342,-0.17032 0.36165,-0.204527 0.55565,-0.267484 0.23784,-0.07718 0.48204,-0.151577 0.69275,-0.297466 0.11723,-0.08117 0.0321,-0.251731 0.14233,-0.337982 0.19031,-0.148895 0.49946,-0.191504 0.59267,-0.417339 0.0463,-0.112302 -0.10164,-0.204081 -0.18279,-0.258942 -0.25717,-0.173867 -0.62904,-0.175939 -0.82173,-0.426676 -0.14193,-0.18469 -0.0659,-0.453146 -0.23229,-0.630337 -0.26955,-0.287117 -0.68803,-0.385614 -0.94391,-0.684338 -0.32208,-0.376002 -0.47454,-0.860631 -0.59015,-1.332822 -0.12253,-0.500447 -0.23607,-1.020887 -0.14891,-1.536773 0.0296,-0.175439 0.12601,-0.356494 0.31866,-0.412116 0.23309,-0.0673 0.47923,-0.06557 0.71657,-0.01539 0.41834,0.08845 0.87365,0.100004 1.24218,0.336621 0.27271,0.175097 0.3908,0.488202 0.57351,0.741956 0.13316,0.184932 0.32128,0.321936 0.46218,0.499406 0.13184,0.166064 0.15605,0.420717 0.36662,0.520552 0.37545,0.178006 0.79475,0.227128 1.20108,0.288815 0.48574,0.07374 0.98546,0.09494 1.45382,0.250308 0.42952,0.142482 0.69432,0.528509 1.01998,0.815782 0.21177,0.186809 0.48799,0.26201 0.74865,0.350512 0.37572,0.127567 0.76034,0.228896 1.1545,0.294814 0.15594,0.02608 0.28563,-0.06839 0.3731,-0.191916 0.0868,-0.122635 0.23403,-0.163052 0.35594,-0.241028 0.22628,-0.144732 0.41698,-0.377828 0.68546,-0.427125 0.51558,-0.09467 1.03738,-0.241588 1.5601,-0.196725 0.39253,0.03369 0.77649,0.130718 1.16,0.216679 0.38504,0.0863 1.00601,0.63852 1.15207,0.272034 0.0417,-0.104504 -0.23463,-0.16738 -0.0877,-0.281217 0.091,-0.07051 0.31654,-0.106537 0.25472,-0.251239 -0.048,-0.112417 -0.007,-0.226747 -0.005,-0.34234 0.007,-0.359716 -0.23435,-0.662398 -0.48698,-0.892972 -0.31679,-0.289129 -0.71233,-0.471624 -1.05124,-0.730278 -0.30063,-0.229439 -0.4422,-0.631144 -0.80012,-0.791421 -0.14304,-0.06405 -0.27359,-0.149872 -0.38369,-0.265219 -0.55484,-0.581269 -0.85978,-1.347055 -1.34121,-1.983307 -0.20165,-0.266496 -0.82908,-0.491168 -0.64315,-0.76865 0.0692,-0.103246 0.27125,-0.142631 0.23915,-0.287601 -0.0306,-0.13825 -0.0369,-0.258594 0.11868,-0.346693 0.47709,-0.270176 1.64567,0.126777 1.55428,-0.406196 -0.0181,-0.105617 -0.18195,-0.164336 -0.28031,-0.214689 -0.38771,-0.198487 -0.82091,-0.301115 -1.20153,-0.514339 -0.073,-0.04088 -0.18123,-0.02587 -0.0778,0.06331 0.0158,0.01365 0.0322,0.02663 0.0489,0.0393"
       id="path63"
       inkscape:path-effect="#path-effect65"
       inkscape:original-d="m 105.65059,72.181171 c -0.11015,-0.169232 -0.26827,-0.315589 -0.33044,-0.507701 -0.0617,-0.190788 0.60133,-0.571023 0.53114,-0.902464 -0.11852,-0.559665 -0.42657,-0.606682 -0.81441,-0.955551 -0.34645,-0.311634 -0.50525,-0.685427 -0.81442,-1.008637 -0.32429,-0.339015 -0.75251,-0.535207 -1.1213,-0.81753 -0.33964,-0.260006 -1.79735,-1.400096 -1.99473,-1.677522 -0.71255,-1.001488 -0.21587,-2.069857 -0.12985,-3.15332 0.0411,-0.517356 -0.0542,-0.964827 -0.0826,-1.475796 -0.0138,-0.24866 0.12807,-0.465756 0.17704,-0.700741 0.0761,-0.365106 0.0466,-2.083535 0.20066,-2.314559 0.0203,-0.03037 0.58396,-0.265004 0.60196,-0.276045 0.21889,-0.134249 0.32607,-0.40496 0.53114,-0.520245 0.86478,-0.486172 2.02485,-0.177427 2.95079,-0.02125 0.16644,0.02808 1.09195,0.496896 1.1213,0.435306 0.0461,-0.09672 0.006,-0.452445 0.0354,-0.583946 0.0287,-0.129 0.17437,-0.269777 0.16525,-0.392837 -0.0191,-0.257033 -0.62042,-1.638756 -0.33049,-1.847403 0.33788,-0.243166 0.8846,-0.159914 1.25113,-0.339752 0.37673,-0.184838 1.00242,-0.480803 1.36916,-0.700738 0.38866,-0.233074 0.61155,-0.624811 0.96787,-0.881232 0.27483,-0.197773 1.94461,-0.717206 2.32522,-0.785672 0.72159,-0.129807 1.09565,0.533794 1.68785,0.753822 0.61502,0.228504 1.3125,0.246925 1.93572,0.467156 0.66172,0.233839 1.09083,0.532553 1.79408,0.594569 0.47347,0.04175 0.29315,-0.101807 0.67278,-0.318519 0.16036,-0.09154 0.43054,-0.127246 0.59016,-0.222962 0.36493,-0.218842 1.50809,-1.501071 1.80588,-1.87925 0.13943,-0.177065 0.0581,-0.446776 0.18885,-0.647655 0.1189,-0.182703 0.47329,-0.358045 0.50754,-0.583946 0.0203,-0.134099 0.1701,-0.520899 0.12984,-0.647653 -0.0801,-0.252277 -1.34318,-0.34654 -1.59343,-0.414073 -0.84879,-0.229047 -1.51479,-0.715941 -2.27801,-1.157279 -0.42434,-0.245377 -0.74478,-0.672695 -1.20393,-0.891844 -0.90368,-0.431324 -2.27043,-0.649126 -3.0098,-1.369629 -0.98236,-0.957279 -1.17671,-2.346992 -1.14491,-3.662945 0.007,-0.279963 -0.15823,-0.776457 -0.0472,-1.051107 0.0714,-0.176562 0.51112,-0.504963 0.4013,-0.159261 0.59218,0.119757 0.41781,-1.821935 0.7753,-1.982712 0.40623,-0.182695 0.45466,0.552522 0.66098,0.721971 0.19274,0.158306 0.62084,0.159893 0.70819,0.403457 0.0453,0.126345 -0.002,0.239644 -0.0236,0.360987 -0.009,0.051 0.83198,-0.08494 0.93245,-0.08494 0.30976,0 0.25147,0.270039 0.46032,0.414075 0.32171,0.221865 0.72103,0.248957 1.07409,0.403456 0.38474,0.168364 0.89937,0.39091 1.31015,0.467158 0.3753,0.06966 0.80565,0.02741 1.16851,0.148639 0.19952,0.06666 0.29285,0.252803 0.43673,0.382224 0.10881,0.09788 0.54797,0.01741 0.68457,0.05308 0.0112,0.0029 1.30913,1.008903 1.35737,1.061726 0.0393,0.04303 0.93734,1.226296 1.00327,1.34839 0.25911,0.479872 0.59011,0.944799 0.7554,1.465179 0.11365,0.357789 0.0645,0.700685 0.11803,1.061726 0.03,0.202451 0.21672,0.334603 0.30689,0.509626 0.15251,0.296054 0.069,0.64223 0.15344,0.955552 0.0483,0.179135 0.21217,0.176592 0.29507,0.329133 0.16987,0.312543 0.1389,0.505729 0.48393,0.637037 0.22809,0.0868 0.61152,0.157714 0.86163,0.169876 0.47332,0.02302 1.41169,0.450043 1.67605,-0.297282 0.10718,-0.302963 0.26215,-1.838453 0.7318,-1.93234 0.72955,-0.145845 1.52794,-0.420897 2.2308,-0.721971 0.45578,-0.195238 1.05635,-0.128453 1.55802,-0.435307 0.34243,-0.209457 0.56726,-0.485549 0.88523,-0.711357 0.26161,-0.185784 0.6782,-0.270321 0.90884,-0.477776 0.1601,-0.144002 0.26391,-0.333113 0.44852,-0.435307 0.57387,-0.317665 1.18271,-0.500348 1.66425,-0.976784 0.45025,-0.445481 0.81747,-1.022571 0.73179,-1.677527 -0.0224,-0.171014 -0.14831,-0.305413 -0.10622,-0.48839 0.0425,-0.184772 0.27288,-0.275585 0.25966,-0.477776 -0.0226,-0.345886 -0.23053,-0.656954 -0.12983,-1.019258 0.0915,-0.329271 0.51141,-0.577901 0.66098,-0.891846 0.0115,-0.02419 -0.35473,-0.943813 -0.15344,-1.305921 0.16708,-0.300591 0.62478,-1.339783 0.90884,-1.497033 0.28064,-0.155354 1.00073,-0.245507 1.16851,-0.509627 0.0374,-0.05891 0.008,-0.168197 0.059,-0.244195 0.0722,-0.108209 0.71833,-0.398872 0.63738,-0.520245 -0.22715,-0.340534 -0.68749,-0.340666 -0.99147,-0.594568 -0.13444,-0.11229 -0.10826,-0.406117 -0.17705,-0.541477 -0.15809,-0.311063 -0.76263,-0.515308 -1.00327,-0.775058 -0.41467,-0.447604 -0.59547,-1.249988 -0.71999,-1.847403 -0.0638,-0.30585 -0.19113,-1.328665 0.23606,-1.443942 0.48348,-0.130467 0.59477,-0.04498 1.08589,0.03185 1.47961,0.231468 0.94375,0.604749 1.91211,1.475796 0.15664,0.140896 0.17655,0.433095 0.3659,0.541478 0.56963,0.32605 1.98191,0.337588 2.66751,0.552099 0.62067,0.194195 0.85095,0.850855 1.42819,1.04049 0.11395,0.03743 1.32508,0.526371 1.69965,0.41407 0.13544,-0.0406 0.19955,-0.236857 0.3423,-0.297282 0.2792,-0.118185 0.66504,-0.506111 0.92064,-0.552095 0.49954,-0.08987 0.98426,-0.161237 1.49901,-0.191112 0.34144,-0.01982 2.33964,0.496655 2.34882,0.488394 0.0662,-0.05957 -0.17452,-0.156524 -0.12983,-0.233581 0.0582,-0.100275 0.21813,-0.105842 0.28327,-0.201726 0.0518,-0.07618 -0.0323,-0.186271 -0.0118,-0.27605 0.18061,-0.789125 -0.86183,-1.375245 -1.45179,-1.741228 -0.29203,-0.181163 -0.43743,-0.534449 -0.70819,-0.743207 -0.13724,-0.105817 -0.33601,-0.152454 -0.46032,-0.276046 -0.58454,-0.581135 -1.01445,-1.336645 -1.40458,-2.038511 -0.0631,-0.113498 -0.66117,-0.796025 -0.66097,-0.796294 0.0645,-0.08696 0.18725,-0.126359 0.23606,-0.222963 0.0221,-0.0438 -0.043,-0.292861 -0.0118,-0.318514 0.45339,-0.372358 1.14871,-0.267648 1.68785,-0.499013 0.18087,-0.07762 -2.12117,-1.091001 -1.5108,-0.626415"
       clip-path="url(#clipPath449)" />
    <path
       style="fill:none;stroke:#000000;stroke-width:0.264583px;stroke-linecap:butt;stroke-linejoin:miter;stroke-opacity:1"
       d="m 147.83137,26.096352 c -0.19877,0.0548 -0.39918,0.104231 -0.60184,0.14243 -0.0894,0.01685 -0.17897,0.03397 -0.26961,0.04207 -0.0363,0.0032 -0.0731,0.0081 -0.10954,0.0042 0,0 -0.005,-0.0012 -0.005,-0.0012 0,0 -0.005,-0.0036 -0.005,-0.0036 0,0 0.003,-0.005 0.003,-0.005 0.0229,-0.01419 0.0497,-0.0206 0.0755,-0.02746 0.0694,-0.01847 0.13987,-0.03276 0.21046,-0.04595 0.17214,-0.03217 0.34541,-0.05801 0.51892,-0.08155 0.0612,-0.0083 0.12242,-0.01627 0.18369,-0.02396 z"
       id="path67"
       inkscape:path-effect="#path-effect69"
       inkscape:original-d="m 147.83137,26.096352 c -1.12508,0.310983 -1.50533,0.188953 0,0"
       clip-path="url(#clipPath369)" />
    <path
       style="fill:none;stroke:#000000;stroke-width:0.264583px;stroke-linecap:butt;stroke-linejoin:miter;stroke-opacity:1"
       d="m 147.83143,26.09635 c -0.17797,0.746009 -0.12376,1.589174 -0.53409,2.238177 -0.0462,0.07307 -0.119,-0.03271 -0.14863,-0.07323 -0.17092,-0.233707 -0.305,-0.491547 -0.46839,-0.730414 -0.054,-0.07897 -0.0124,-0.176081 0.0343,-0.249348 0.0447,-0.06995 0.14699,-0.122515 0.13921,-0.206997 -0.007,-0.07108 -0.0344,-0.140458 -0.0393,-0.213854 -0.0195,-0.294167 0.0427,-0.58497 0.0612,-0.877557 0.0126,-0.198831 0.0337,-0.415313 -0.0652,-0.593809 -0.0644,-0.116275 -0.1569,-0.213715 -0.2421,-0.314824 -0.12567,-0.149129 -0.23624,-0.321639 -0.2595,-0.520924 -0.0123,-0.105308 0.0128,-0.20871 0.0432,-0.31011 0.0188,-0.06277 0.0621,-0.143361 0.0208,-0.198327 -0.13873,-0.184558 -0.29307,-0.35685 -0.44383,-0.531593 -0.18562,-0.215149 -0.38826,-0.416209 -0.56188,-0.641092 -0.19864,-0.257283 -0.23929,-0.598406 -0.43961,-0.855834 -0.0573,-0.0736 -0.13893,-0.121715 -0.22734,-0.150488 -0.0867,-0.02822 -0.17387,-0.07114 -0.22209,-0.155982 -0.14315,-0.251863 -0.16737,-0.549255 -0.15876,-0.833577 0.0105,-0.34809 0.0785,-0.702594 -0.002,-1.04629 -0.041,-0.174831 -0.11305,-0.34021 -0.17173,-0.509533 -0.098,-0.282821 -0.15909,-0.582784 -0.13428,-0.883706 0.0285,-0.345392 0.14963,-0.704059 0.41583,-0.936964 0.0711,-0.06217 0.14702,-0.117303 0.21902,-0.179137 0.0701,-0.06021 0.14273,-0.13932 0.24259,-0.13898 0.0811,2.76e-4 0.0892,0.09161 0.0867,0.152758 -0.009,0.228424 -0.0649,0.45173 -0.11537,0.673739 -0.0648,0.284664 -0.0875,0.583736 -0.20295,0.851974 -0.0271,0.06289 0.0156,0.09368 0.0793,0.106363 0.12554,0.02502 0.27699,-0.03009 0.37996,0.05452 0.0774,0.0636 0.11155,0.163671 0.1422,0.255459 0.11301,0.338379 0.17905,0.689936 0.2699,1.034453 0.0688,0.261025 0.12206,0.53312 0.25662,0.768734 0.10987,0.192377 0.25111,0.364401 0.38201,0.542516 0.16782,0.228353 0.35149,0.456053 0.44145,0.727368 0.11004,0.331893 0.0444,0.694963 0.15844,1.025586 0.10583,0.306702 0.3973,0.509407 0.49347,0.819017 0.0808,0.260232 0.0616,0.537744 0.1402,0.799879 0.0212,0.07084 0.0748,0.121306 0.13885,0.157615 0.16083,0.09115 0.33412,0.159863 0.48504,0.269665 0.0505,0.03676 0.0641,0.101162 0.04,0.160434 -0.0603,0.148334 -0.19197,0.25042 -0.26416,0.39231 -0.0219,0.04309 -0.006,0.127302 0.0498,0.122706 0.3806,-0.03158 0.76574,-0.08964 1.14591,-0.0377 0.1187,0.01622 0.26248,0.01759 0.34374,0.111623 0.0535,0.06194 0.0883,0.137953 0.12768,0.209279 0.15567,0.281624 0.29815,0.572984 0.49341,0.830501 0.11584,0.152777 0.29087,0.242436 0.45555,0.332122 0.16268,0.0886 0.35181,0.149656 0.47582,0.288616 0.0444,0.04972 0.0401,0.164088 0.11246,0.163126 0.0691,-9.19e-4 0.13092,-0.04535 0.19037,-0.07769 0.58188,-0.316592 1.14315,-0.673465 1.74611,-0.94928 0.11552,-0.05284 0.29909,-0.253144 0.35504,-0.138704 0.3346,0.684441 0.51832,1.433574 0.88047,2.1053 0.19769,0.366686 0.44877,0.712634 0.77577,0.973926 0.39662,0.316924 0.87025,0.527132 1.2435,0.87504 0.13976,0.130272 0.2507,0.289175 0.32741,0.464879 0.0858,0.196645 0.15315,0.41003 0.30736,0.567597 0.246,0.251354 0.50665,0.489063 0.78324,0.706095 0.11981,0.09401 0.24211,0.186612 0.3829,0.249305 0.63474,0.282639 1.34892,0.368592 1.9549,0.71057 0.21513,0.121406 0.38286,0.307158 0.56691,0.468536 0.15057,0.132021 0.30769,0.270152 0.50329,0.330491 0.13745,0.0424 0.27406,-0.02532 0.39506,-0.0853 0.14246,-0.07062 0.27932,-0.171402 0.44159,-0.183702 0.12099,-0.0092 0.22768,0.06758 0.30903,0.148206 0.22043,0.218489 0.33429,0.513131 0.50582,0.766803 0.042,0.0621 0.12387,0.0737 0.1933,0.05401 0.0825,-0.02338 0.16641,-0.05143 0.25601,-0.02985 0.0677,0.01631 0.12794,0.06647 0.14291,0.135275 0.0166,0.0761 0.1022,0.08721 0.16737,0.07796 0.24975,-0.03546 0.48823,-0.125409 0.71877,-0.224044 0.13653,-0.05841 0.27629,-0.108 0.41747,-0.154286 0.40539,-0.132911 0.81846,-0.261287 1.18635,-0.480507 0.14809,-0.08825 0.29913,-0.187659 0.39218,-0.336934 0.036,-0.0578 0.009,-0.131114 -0.042,-0.170763 -0.12257,-0.09573 -0.27779,-0.133917 -0.4261,-0.170384 -0.22739,-0.05591 -0.46184,-0.07627 -0.68984,-0.128211 -0.0543,-0.01238 -0.0748,-0.07457 -0.0966,-0.119528 -0.13625,-0.280075 -0.0483,-0.622274 -0.20068,-0.892621 -0.093,-0.165063 -0.24087,-0.292983 -0.33678,-0.455405 -0.14573,-0.246798 -0.20124,-0.532313 -0.24911,-0.811249 -0.0461,-0.268416 -0.12999,-0.532439 -0.27515,-0.766405 -0.0355,-0.05715 -0.0762,-0.109583 -0.1131,-0.165956 -0.0985,-0.150362 -0.31198,-0.171361 -0.39917,-0.332217 -0.0859,-0.158493 -0.0629,-0.345075 -0.0564,-0.517471 0.005,-0.122763 -0.0218,-0.246078 -0.0835,-0.35324 -0.12982,-0.22559 -0.31745,-0.41071 -0.50735,-0.585951 -0.35336,-0.326086 -0.79761,-0.522956 -1.21884,-0.743443 -0.35656,-0.186635 -0.7173,-0.394473 -0.97511,-0.70925 -0.19933,-0.243373 -0.23849,-0.597209 -0.4778,-0.803446 -0.10895,-0.09389 -0.2421,-0.152913 -0.36684,-0.222425 -0.22942,-0.127849 -0.46699,-0.267254 -0.61721,-0.490288 -0.15472,-0.229709 -0.20652,-0.513947 -0.38103,-0.733082 -0.37178,-0.466849 -0.90689,-0.775262 -1.26584,-1.252285 -0.0977,-0.12985 -0.19302,-0.268252 -0.22943,-0.430154 -0.0477,-0.211954 -0.0334,-0.441896 -0.1394,-0.637745 -0.0651,-0.12034 -0.18358,-0.196316 -0.28785,-0.278985 -0.40527,-0.321303 -0.83952,-0.620152 -1.15699,-1.036473 -0.16319,-0.214005 -0.21906,-0.497303 -0.4097,-0.690164 -0.10721,-0.108457 -0.26887,-0.120058 -0.41301,-0.123232 -0.16325,-0.0036 -0.34635,0.02113 -0.48615,-0.07637 -0.0665,-0.04637 -0.0802,-0.134591 -0.0926,-0.20901 -0.0398,-0.238413 -0.001,-0.486438 -0.0581,-0.720897 -0.0657,-0.27015 -0.21074,-0.511511 -0.3479,-0.750522 -0.10288,-0.179279 -0.21635,-0.356551 -0.27863,-0.554566 -0.0793,-0.252243 0.007,-0.52239 -0.0555,-0.775555 -0.0657,-0.264332 -0.23671,-0.48549 -0.33203,-0.738366 -0.094,-0.249253 -0.10806,-0.520593 -0.0993,-0.784275 0.007,-0.211569 0.0479,-0.420816 0.0551,-0.632115 0.002,-0.07003 -0.0333,-0.268463 0.0223,-0.211089 0.48553,0.501224 0.95836,1.015438 1.46327,1.497265 0.0741,0.07069 0.1484,0.142907 0.24372,0.186111 0.30541,0.138422 0.62528,0.241244 0.93669,0.364906 0.19671,0.07811 0.39917,0.14828 0.57932,0.260866 0.0901,0.05629 0.14925,0.154143 0.17715,0.253783 0.0326,0.116495 0.053,0.23741 0.11125,0.345537 0.1187,0.220364 0.36791,0.358211 0.43864,0.602723 0.0434,0.149928 0.0514,0.307239 0.0696,0.461638 0.0202,0.171241 -0.006,0.370251 0.0997,0.507648 0.15525,0.201278 0.32075,0.394639 0.48164,0.59148 0.28108,0.343884 0.57708,0.676617 0.83651,1.037231 0.1175,0.163328 0.23461,0.336535 0.40682,0.448578 0.0809,0.05266 0.19637,0.0618 0.27117,-0.0075 0.18267,-0.169239 0.25279,-0.421906 0.28551,-0.661113 0.0522,-0.381423 0.0129,-0.769471 0.0815,-1.149731 0.0639,-0.354262 0.16423,-0.708569 0.13506,-1.072536 -0.0343,-0.4273 -0.1717,-0.836749 -0.22007,-1.262661 -0.0908,-0.799385 -0.15545,-1.614226 -0.0177,-2.412078 0.0788,-0.456164 0.21316,-0.909918 0.45049,-1.308724 0.1,-0.168022 0.22004,-0.325198 0.29284,-0.508454 0.0684,-0.172063 0.12294,-0.351332 0.1328,-0.538043 0.0177,-0.336097 -0.0541,-0.679925 0.0361,-1.0097 0.045,-0.164346 0.14398,-0.316193 0.29033,-0.409214 0.26816,-0.170443 0.55917,-0.302233 0.85385,-0.418948 0.3239,-0.128288 0.65111,-0.264431 0.99696,-0.31394 0.10018,-0.01434 0.20731,-0.03497 0.30496,0.0015 0.0434,0.0162 0.061,0.06476 0.0467,0.107209"
       id="path491"
       inkscape:path-effect="#path-effect493"
       inkscape:original-d="m 147.83143,26.09635 c -0.17705,0.743205 -0.31013,1.498284 -0.53114,2.229621 -0.059,0.195376 -0.37181,-0.437435 -0.61377,-0.785677 -0.13971,-0.201073 0.2065,-0.387671 0.16525,-0.499007 -0.15819,-0.426958 0.20442,-1.332732 -0.0826,-1.719997 -0.21833,-0.294563 -0.49743,-0.501366 -0.46032,-0.913083 0.0107,-0.118669 0.0909,-0.23292 0.0708,-0.350365 -0.008,-0.04751 -0.88122,-1.038445 -0.97966,-1.146664 -0.24233,-0.266415 -0.27025,-0.732019 -0.54294,-0.96617 -0.10969,-0.09418 -0.28934,-0.08226 -0.3659,-0.212345 -0.37622,-0.639199 0.0111,-1.401611 -0.21246,-2.03851 -0.0981,-0.279357 -0.19617,-0.512385 -0.24787,-0.806911 -0.0886,-0.504777 0.047,-1.158444 0.49574,-1.465178 0.12918,-0.08831 0.27891,-0.303439 0.41311,-0.222963 0.17424,0.104486 -0.34808,1.708589 -0.28328,1.741228 0.13534,0.06818 0.31247,0.0076 0.44852,0.07432 0.24515,0.120285 0.40426,1.643501 0.72,2.134066 0.22991,0.357233 0.60677,0.763721 0.7672,1.157278 0.12508,0.306844 0.0659,0.721971 0.16524,1.04049 0.0974,0.312295 0.3613,0.506718 0.48393,0.796294 0.11233,0.265231 0.0538,0.703151 0.20066,0.934316 0.0716,0.112781 0.65381,0.278407 0.63737,0.445925 -0.0203,0.207211 -0.41327,0.446866 -0.24787,0.57333 0.0212,0.0162 1.35662,-0.18167 1.53441,0.106172 0.17923,0.290164 0.47224,0.945021 0.72,1.136045 0.24334,0.187627 0.54536,0.288536 0.7908,0.477777 0.0606,0.0467 0.0653,0.176202 0.14164,0.180493 0.10254,0.0058 1.75819,-1.036013 2.27801,-1.167897 0.50288,1.038042 0.65917,2.12258 1.49899,2.940979 0.45024,0.438751 1.18927,0.703377 1.56983,1.199747 0.18514,0.241491 0.21637,0.504804 0.3777,0.743207 0.11516,0.170178 0.95831,0.920936 1.16852,1.019257 0.66334,0.310277 1.34477,0.426449 2.00653,0.732589 0.36072,0.166874 0.77777,0.784209 1.16851,0.828146 0.26726,0.03005 0.63184,-0.366734 0.88524,-0.265432 0.33016,0.131994 0.50451,0.626311 0.69638,0.891847 0.11786,0.163094 0.27471,-0.0064 0.41312,0.02124 0.32538,0.06505 0.0187,0.317596 0.51934,0.191108 0.25157,-0.06357 0.49149,-0.167525 0.73179,-0.265432 0.22239,-0.09061 1.51262,-0.42897 1.80589,-0.881228 0.23322,-0.359656 -1.14161,-0.446778 -1.18032,-0.499012 -0.21764,-0.293657 -0.12245,-0.673204 -0.25967,-0.987403 -0.0522,-0.119566 -0.32043,-0.429225 -0.34229,-0.467157 -0.33422,-0.579783 -0.14514,-1.122366 -0.61377,-1.69876 -0.0717,-0.172451 -0.28065,-0.198577 -0.3895,-0.329133 -0.16229,-0.19465 -0.0522,-0.52151 -0.10623,-0.753825 -0.0628,-0.26968 -0.41709,-0.614277 -0.62557,-0.796295 -0.61999,-0.541287 -1.51284,-0.721461 -2.10096,-1.359004 -0.23284,-0.252403 -0.2891,-0.579398 -0.50754,-0.838763 -0.11409,-0.135468 -0.65734,-0.3208 -0.92064,-0.626419 -0.22533,-0.261529 -0.23887,-0.548049 -0.43672,-0.806909 -0.41448,-0.542306 -1.13233,-0.938184 -1.45179,-1.528884 -0.15113,-0.279447 -0.038,-0.714587 -0.30688,-0.944934 -0.44857,-0.384294 -1.00049,-0.712237 -1.35736,-1.210365 -0.14262,-0.199065 -0.21194,-0.446605 -0.3659,-0.637033 -0.22146,-0.273919 -0.66233,-0.05687 -0.93245,-0.233581 -0.14807,-0.09686 -0.0992,-0.780809 -0.15344,-0.96617 -0.13073,-0.446828 -0.41174,-0.767876 -0.59016,-1.189131 -0.13684,-0.323115 -0.002,-0.640952 -0.10623,-0.934317 -0.10614,-0.298384 -0.29863,-0.52414 -0.3659,-0.84938 -0.0829,-0.400784 -0.0321,-0.797914 0.0118,-1.199746 0.009,-0.07779 -0.0346,-0.181245 0.0236,-0.233581 0.002,-0.0017 1.47383,1.543943 1.61703,1.635056 0.26938,0.171391 1.52412,0.540011 1.67606,0.732589 0.1656,0.209903 0.0942,0.309362 0.22426,0.552097 0.10992,0.20509 0.39887,0.404542 0.44851,0.647652 0.0538,0.263309 0.0548,0.656304 0.15344,0.913083 0.0132,0.0344 1.14707,1.381219 1.34557,1.666906 0.13096,0.188482 0.43807,0.623482 0.67278,0.38222 0.3793,-0.389906 0.25568,-1.145336 0.31868,-1.624435 0.0444,-0.337788 0.14926,-0.668319 0.16525,-1.008639 0.0219,-0.467358 -0.1585,-0.929714 -0.21246,-1.390859 -0.14463,-1.236006 -0.23183,-2.496145 0.33049,-3.652332 0.19557,-0.402105 0.31478,-0.407235 0.47212,-0.934318 0.14745,-0.493938 -0.136,-1.178222 0.24787,-1.603203 0.27046,-0.299432 2.44109,-1.173586 2.32522,-0.721971" />
    <path
       style="fill:none;stroke:#000000;stroke-width:0.264583px;stroke-linecap:butt;stroke-linejoin:miter;stroke-opacity:1"
       d="m 162.84518,10.489011 c 0.0806,-1.1337447 0.35208,-2.3295421 -0.071,-3.4180125 -0.27937,-0.7187399 -0.71358,-1.3640878 -1.11909,-2.0165458 -0.17848,-0.2871727 -0.40957,-0.5334098 -0.67285,-0.7464468 -0.2483,-0.2009148 -0.45367,-0.4674721 -0.47616,-0.812362 -0.023,-0.3534699 0.19556,-0.8481415 -0.11399,-1.0693573 -0.19928,-0.1424117 -0.41667,-0.2675566 -0.59401,-0.4515683 -0.55425,-0.5751072 -0.92384,-1.29642399 -1.52424,-1.83958927 -0.31281,-0.28299271 -1.22927,-1.15567673 -0.93788,-0.85053641 0.16496,0.17274414 -0.0696,0.39072183 -0.15803,0.57087907 -0.17341,0.35340359 -0.40556,0.6778285 -0.71723,0.92466427 -0.32533,0.25765704 -0.62553,0.55476564 -0.81571,0.92927204 -0.21759,0.4284847 -0.47848,0.8309678 -0.75935,1.2216465 -0.38131,0.5303812 -0.85104,1.0152425 -1.10605,1.6203142 -0.19756,0.4687624 -0.32379,0.9651881 -0.602,1.4025753 -0.48096,0.7561315 -1.21498,1.3416868 -1.62099,2.1377286 -0.12301,0.2411774 -0.19528,0.5033745 -0.38861,0.7116899 -0.53526,0.5767417 -1.19455,1.0373792 -1.62023,1.7179365 -0.78933,1.26195 -1.36148,2.671805 -2.39381,3.775351 -0.59848,0.639766 -1.47152,0.865424 -2.23338,1.242172 -1.32499,0.655225 -2.68172,1.434446 -3.51545,2.675499 -0.27057,0.402757 -0.43798,0.859705 -0.69589,1.272754 -0.86783,1.389844 -1.56531,2.915024 -2.6976,4.113688 -0.60928,0.644997 -1.39986,1.107474 -1.95,1.804904 -0.2357,0.298803 -0.37416,0.657355 -0.6631,0.926591 -0.27898,0.259956 -0.62176,0.427932 -0.95986,0.598052 -0.8425,0.423917 -1.56137,1.048355 -2.2261,1.706251 -0.94139,0.931708 -1.62562,2.139195 -2.76292,2.857514 -1.26267,0.797504 -2.77832,1.025584 -4.11534,1.654701 -0.48889,0.230041 -0.94528,0.525428 -1.46862,0.685754 -0.89113,0.273002 -1.79794,0.496141 -2.66088,0.860249 -1.07934,0.455416 -2.23233,0.833047 -3.12833,1.612388 -0.49235,0.428245 -0.90957,0.95457 -1.51063,1.248927 -0.95163,0.466042 -1.9591,0.803603 -2.97142,1.116728 -0.59496,0.18403 -1.07367,0.618203 -1.48881,1.063935 -0.4929,0.529227 -0.82028,1.180936 -1.11756,1.840754 -0.25161,0.558448 -0.48899,1.133225 -0.90406,1.600243 -0.35262,0.396754 -0.93739,0.627321 -1.12624,1.122796 -0.0753,0.197664 -0.14999,0.387011 -0.28799,0.561104 -0.48375,0.610252 -0.9692,1.227296 -1.54224,1.754474 -0.496,0.4563 -1.07779,0.815479 -1.50399,1.351478 -0.32704,0.411292 -0.69395,0.799317 -0.90257,1.298559 -0.15844,0.379162 -0.45559,0.68019 -0.73548,0.971916 -1.16087,1.209957 -1.62649,2.929748 -2.83633,4.090828 -0.54176,0.519926 -1.235093,0.834686 -1.813897,1.309735 -0.61686,0.506283 -1.226884,1.02424 -1.914702,1.436637 -1.039736,0.623398 -2.141557,1.151715 -3.09444,1.913409 -1.212039,0.968852 -2.300423,2.105099 -3.660918,2.879562 -1.372309,0.781188 -2.874101,1.349216 -4.101731,2.374804 -0.610449,0.509982 -1.12542,1.143518 -1.802125,1.564781 -0.370304,0.230522 -0.750703,0.455656 -1.03588,0.797742 -0.582739,0.699028 -1.053674,1.521235 -1.23567,2.415831 -0.177625,0.873109 -0.08382,1.764739 -0.175745,2.649232 -0.04761,0.45807 -0.174158,0.939947 -0.03764,1.38696 0.107042,0.350499 0.301003,0.665 0.331017,1.047672 0.02641,0.33671 0.272822,0.603127 0.484794,0.843133 0.299686,0.33932 0.537049,0.727692 0.687768,1.16039 0.176387,0.506388 0.217907,1.081011 0.529409,1.520819 0.396204,0.559399 1.074317,0.818718 1.463808,1.397478 0.427933,0.635883 0.534604,1.442245 1.014015,2.044251 0.220295,0.276629 0.605575,0.504444 0.613163,0.876583 0.01185,0.581278 -0.06656,1.169786 -0.241171,1.722179 -0.07134,0.225677 -0.141299,0.513956 -0.451591,0.539094 -0.817644,0.06624 -1.642158,-0.06959 -2.456521,0.07746 -0.482589,0.08714 -0.973453,0.137682 -1.447765,0.261444 -1.061588,0.276999 -1.956688,0.997046 -3.043544,1.202399 -0.370827,0.07006 -0.743858,-0.0256 -1.086585,-0.177575 -0.902095,-0.400013 -1.611433,-1.14845 -2.523199,-1.515978 -0.422447,-0.170286 -0.87547,-0.23813 -1.296212,-0.421898 -0.738983,-0.322767 -1.486218,-0.636885 -2.284561,-0.794762 -0.69581,-0.137601 -1.467904,-0.177936 -2.042014,-0.611266 -0.230337,-0.173855 -0.416365,-0.410262 -0.71547,-0.492231 -0.926049,-0.25378 -1.849156,-0.547008 -2.705269,-0.994183 -0.308212,-0.160989 -0.530362,-0.428514 -0.759129,-0.683554 -0.558559,-0.622709 -1.179339,-1.190178 -1.69111,-1.853867 -0.107069,-0.138852 -0.482074,-0.402005 -0.44267,-0.374964 0.397713,0.272928 0.851046,0.597724 0.919756,1.110305 0.07683,0.573175 0.02697,1.153276 0.05169,1.730101 0.0061,0.143226 0.01447,0.286357 0.02493,0.429331"
       id="path495"
       inkscape:path-effect="#path-effect497"
       inkscape:original-d="m 162.84518,10.489011 c 0.0781,-1.1037728 0.30397,-2.3259641 -0.071,-3.4180125 -0.20857,-0.607532 -0.9604,-1.825208 -1.34556,-2.3357924 -0.24133,-0.3199186 -0.66575,-0.5255379 -0.84982,-0.8812324 -0.20318,-0.3925919 0.11993,-1.2051903 -0.24787,-1.4864107 -0.0411,-0.031445 -0.0944,-0.04247 -0.14164,-0.063705 -0.0826,-0.063703 -0.1703,-0.1213355 -0.24787,-0.191108 -0.63654,-0.5725832 -0.93501,-1.3664472 -1.60522,-1.92172191 -0.1287,-0.10662586 -1.33408,-1.28152739 -0.92065,-0.78567631 -0.17703,0.31497777 -0.32171,0.65046566 -0.53109,0.94493332 -0.25231,0.35484454 -0.72745,0.61859372 -1.00327,0.9874025 -0.25726,0.3439951 -0.41086,0.7483523 -0.64917,1.1041949 -0.41921,0.6259597 -0.91136,1.1948612 -1.31015,1.8367842 -0.29343,0.4723123 -0.34065,1.0212745 -0.62558,1.4864109 -0.49929,0.8150827 -1.0926,1.5071836 -1.68785,2.2508587 -0.15454,0.1930759 -0.16687,0.4641501 -0.31868,0.6476515 -0.5064,0.6121051 -1.19194,1.0096454 -1.64064,1.6987552 -0.87673,1.346445 -1.43949,2.958449 -2.6321,4.066407 -0.6527,0.606358 -1.50966,0.802701 -2.27801,1.199746 -1.27283,0.657733 -2.36246,1.380078 -3.25768,2.484436 -0.28542,0.352113 -0.40786,0.798647 -0.64917,1.178515 -0.88051,1.386059 -1.61902,2.88576 -2.67932,4.15134 -0.55275,0.659765 -1.78241,1.515949 -2.14818,2.03851 -0.19824,0.283233 -0.26154,0.550502 -0.54294,0.796291 -0.69701,0.608807 -0.63821,0.378851 -1.61703,0.998024 -0.45137,0.285523 -1.0755,0.841845 -1.46359,1.199743 -1.04094,0.95996 -1.81783,2.353564 -3.04522,3.089618 -1.19648,0.717512 -2.59241,1.026846 -3.87143,1.528888 -0.46962,0.184334 -0.86018,0.493574 -1.34557,0.658266 -0.90186,0.306003 -1.78604,0.461555 -2.66751,0.838763 -1.0341,0.442518 -2.31356,0.888137 -3.21046,1.581967 -0.61159,0.473117 -0.91378,1.000818 -1.60523,1.34839 -0.74334,0.373655 -1.53564,0.68469 -2.32523,0.944938 -0.43243,0.14253 -0.8567,0.195613 -1.23933,0.445925 -0.91547,0.598904 -1.72523,1.609132 -2.05375,2.60122 -0.15737,0.341771 -0.29659,0.692504 -0.47212,1.025312 -0.35373,0.670642 -1.03742,1.168488 -1.54622,1.709375 -0.13139,0.139685 -0.0769,0.281764 -0.20065,0.445926 -0.44782,0.594164 -1.00124,1.214227 -1.5108,1.762462 -0.46776,0.503252 -1.13471,0.84266 -1.55803,1.380241 -0.27691,0.351664 -0.60574,0.680733 -0.84982,1.061724 -0.10592,0.165326 -0.15345,0.419224 -0.25967,0.573332 -0.33373,0.484191 -0.78285,0.886413 -1.1331,1.359004 -0.80835,1.090692 -1.30726,2.365306 -2.2308,3.386901 -0.44292,0.489947 -1.06755,0.77933 -1.593427,1.1679 -0.59625,0.440565 -1.105103,0.940331 -1.723262,1.359004 -0.838194,0.567699 -1.75089,0.996385 -2.608499,1.528884 -1.460712,0.906971 -2.543718,2.190263 -3.95406,3.153319 -1.232734,0.841776 -2.662021,1.339863 -3.918649,2.144685 -0.944342,0.604814 -1.612767,1.371029 -2.466861,2.070361 -0.329144,0.269503 -0.775513,0.447948 -1.074088,0.753825 -0.593597,0.608115 -1.112959,1.521988 -1.357363,2.346411 -0.253766,0.856007 -0.120239,1.66793 -0.200654,2.526901 -0.05053,0.53977 -0.157037,1.059408 -0.118033,1.603203 0.02357,0.328636 0.281682,0.666304 0.342293,0.96617 0.03808,0.188379 -0.0059,0.346678 0.09443,0.530863 0.269819,0.495125 0.690754,0.812763 0.944253,1.327154 0.212024,0.430232 0.485409,1.663595 0.70819,1.96419 0.361176,0.487331 0.94621,0.701602 1.31015,1.178515 0.506718,0.664013 0.617069,1.382483 1.015072,2.049128 0.200727,0.336213 0.609251,0.605265 0.731796,0.987403 0.09213,0.287302 -0.193407,2.229776 -0.495734,2.303942 -0.418516,0.102668 -1.464275,0.0048 -1.98293,0.03185 -0.643431,0.03356 -1.266926,0.207915 -1.900309,0.297287 -1.22959,0.173497 -2.853824,1.636145 -4.060288,1.178514 -1.000632,-0.379556 -1.74331,-1.055669 -2.65571,-1.560738 -0.371782,-0.205805 -0.813706,-0.233286 -1.203923,-0.392838 -0.714996,-0.292349 -1.432589,-0.666694 -2.195387,-0.828142 -0.766146,-0.162156 -1.548047,-0.25242 -2.266207,-0.6158 -0.283542,-0.14347 -0.412068,-0.447197 -0.731795,-0.530863 -0.857897,-0.224494 -2.759549,-0.755016 -3.328492,-1.443946 -0.573644,-0.694621 -1.245709,-1.278036 -1.805886,-1.985424 -0.147017,-0.185652 -0.253842,-0.280036 -0.436716,-0.414074 -0.04759,-0.03488 -0.190552,-0.13917 -0.141638,-0.10617 1.342808,0.905922 0.868892,1.122636 1.02752,3.290845" />
    <path
       style="fill:none;stroke:#000000;stroke-width:0.264583px;stroke-linecap:butt;stroke-linejoin:miter;stroke-opacity:1"
       d="m 65.453357,78.45677 c -0.09897,-0.185184 -0.198895,-0.370667 -0.321562,-0.542546 -0.0547,-0.07665 -0.151806,-0.06802 -0.236756,-0.07369 -0.187611,-0.01251 -0.369559,-0.111099 -0.479231,-0.265916 -0.12795,-0.180619 -0.213078,-0.413268 -0.419723,-0.517268 -0.228174,-0.114835 -0.468561,-0.204415 -0.709286,-0.28922 -0.796959,-0.28076 -1.62955,-0.443078 -2.433665,-0.699433 -0.601878,-0.191881 -1.113037,-0.602436 -1.735694,-0.741244 -0.337897,-0.07533 -0.684289,-0.01187 -1.016126,0.06385 -0.350713,0.08003 -0.716248,0.184455 -1.075335,0.106638 -0.333121,-0.07219 -0.61836,-0.296686 -0.966256,-0.317518 -0.302578,-0.01812 -0.606158,0.03634 -0.908373,-0.01822 -0.864059,-0.156006 -1.70931,-0.437976 -2.592642,-0.471367 -0.362053,-0.01369 -0.724102,0.03628 -1.073622,0.133846 -1.02558,0.286268 -2.051989,0.585427 -3.029136,1.014321 -0.79477,0.348844 -1.472733,0.900696 -2.216659,1.338799 -0.697027,0.410484 -1.404352,0.802654 -2.111964,1.194675 -0.476509,0.263989 -1.033956,0.364414 -1.477674,0.689485 -1.19747,0.877274 -2.405694,1.747062 -3.691435,2.489467 -0.608468,0.351338 -1.300074,0.506068 -1.964613,0.713016 -0.35335,0.110039 -0.695763,0.25335 -1.022752,0.426926 -0.741425,0.393571 -1.44005,0.866884 -2.088611,1.398776 -0.296283,0.242985 -0.587666,0.4947 -0.835524,0.788688 -0.501225,0.59451 -0.931943,1.247811 -1.295031,1.934451 -0.281933,0.533166 -0.53558,1.087559 -0.680588,1.675579 -0.11209,0.454534 -0.05555,0.925562 -0.01995,1.385631 0.03234,0.417999 0.02942,0.842742 -0.07381,1.253577 -0.253889,1.010395 -0.493504,2.026583 -0.839909,3.01107 -0.07193,0.204426 -0.171383,0.398039 -0.242653,0.60246 -0.201747,0.578665 -0.161543,1.212425 -0.01923,1.799226 0.205363,0.846764 0.575374,1.647571 1.033227,2.384225 0.155049,0.249463 0.295675,0.507775 0.415772,0.776019 0.106705,0.238333 0.26114,0.467246 0.29328,0.726346 0.0189,0.15239 -0.03307,0.30365 -0.04401,0.45527 -0.0029,0.0401 -0.04787,0.16599 -0.05361,0.0586 -7.05e-4,-0.0132 -9.09e-4,-0.0264 -9.17e-4,-0.0396"
       id="path499"
       inkscape:path-effect="#path-effect501"
       inkscape:original-d="m 65.453357,78.45677 c -0.485487,-0.947763 -0.351242,-0.445317 -0.838023,-0.700738 -0.29963,-0.157221 -0.314796,-0.566269 -0.684585,-0.732589 -0.932043,-0.419203 -2.028569,-0.655598 -3.009805,-0.93432 -0.726704,-0.206418 -1.341787,-0.7888 -2.124567,-0.79629 -0.559239,-0.0053 -1.083405,0.272044 -1.652442,0.222964 -0.367982,-0.03174 -0.652359,-0.286581 -1.015074,-0.329139 -0.293465,-0.03443 -0.607589,0.03745 -0.897041,-0.01061 -1.140383,-0.189378 -2.457288,-0.708289 -3.635372,-0.382219 -1.050655,0.2908 -2.254086,0.630354 -3.245869,1.093575 -0.711771,0.332444 -1.293381,0.798124 -1.959324,1.199748 -0.717542,0.432745 -1.477774,0.820883 -2.207191,1.252834 -0.479166,0.283758 -1.089967,0.396222 -1.534411,0.721977 -1.180897,0.865531 -2.360057,1.671581 -3.611769,2.441966 -0.844336,0.519658 -1.86599,0.616305 -2.750135,1.029867 -0.946671,0.442809 -2.08833,1.244208 -2.86817,1.953577 -0.867958,0.78952 -2.335036,3.151087 -2.407844,4.395534 -0.04103,0.701368 0.166048,1.451385 -0.0118,2.155304 -0.274349,1.085847 -0.59209,2.531242 -1.038677,3.535542 -0.628341,1.413042 0.32785,3.335946 1.050483,4.522946 0.239056,0.392676 0.445251,0.893604 0.601958,1.316531 0.04992,0.13473 -0.09442,0.81635 -0.09442,0.4884" />
    <path
       style="fill:none;stroke:#000000;stroke-width:0.264583px;stroke-linecap:butt;stroke-linejoin:miter;stroke-opacity:1"
       d="m 31.519288,100.90169 c -0.153795,-0.60158 -0.776679,-1.268834 -0.461383,-1.804992 0.0276,-0.04694 0.09135,0.03027 0.117028,0.05846 0.05393,0.05921 0.101566,0.127753 0.113365,0.210962 0.04713,0.332396 0.115639,0.660942 0.171506,0.992062 0.107796,0.63889 0.333437,1.25156 0.43575,1.89161 0.05311,0.33227 0.09198,0.67825 0.01286,1.00758 -0.07047,0.29331 -0.216806,0.56184 -0.373292,0.81689 -0.374128,0.60977 -0.818342,1.17286 -1.272181,1.72451 -0.550003,0.66854 -1.118628,1.32155 -1.699406,1.96328 -0.57817,0.63885 -1.311996,1.11662 -2.083596,1.48937 -0.641803,0.31005 -1.304517,0.58009 -1.98658,0.78469 -0.334462,0.10033 -0.719821,0.0181 -1.023842,0.19624 -0.250582,0.14684 -0.494856,0.30977 -0.767206,0.41407 -0.259688,0.0994 -0.54181,0.0863 -0.814668,0.0891 -0.172446,0.002 -0.343817,0.0277 -0.50988,0.0753 -0.549104,0.15752 -1.071151,0.39297 -1.59095,0.62635 -0.520514,0.2337 -0.956863,0.61084 -1.38033,0.98547 -0.420018,0.37158 -0.843354,0.74883 -1.339861,1.01822 -0.755244,0.40977 -1.585677,0.66389 -2.330816,1.09226 -0.305659,0.17572 -0.574593,0.42098 -0.906413,0.54518 -0.199168,0.0746 -0.337868,0.24574 -0.455704,0.41529 -0.128347,0.18467 -0.245076,0.39678 -0.450057,0.50487 -0.234827,0.12383 -0.513307,0.15553 -0.731265,0.31 -0.09236,0.0655 -0.172367,0.14646 -0.256167,0.22228 -0.411416,0.37225 -0.844939,0.7186 -1.265459,1.08149 -0.04578,0.0395 -0.106219,0.0266 -0.16276,0.0313 -0.101082,0.008 -0.187966,0.0704 -0.265211,0.13046 -0.201309,0.15666 -0.4097288,0.30395 -0.6250562,0.4409 -0.06791,0.0432 -0.141314,0.0944 -0.1580954,0.18038 -0.014461,0.0741 -0.016798,0.14982 -0.024061,0.22479"
       id="path503"
       inkscape:path-effect="#path-effect505"
       inkscape:original-d="m 31.519288,100.90169 c -0.153448,-0.59874 -0.350469,-1.187967 -0.46034,-1.796209 -0.01873,-0.10373 0.210589,0.118438 0.22426,0.222959 0.04211,0.321953 0.118984,0.632486 0.165243,0.95555 0.128831,0.89973 0.61672,1.97269 0.472125,2.90913 -0.164867,1.06775 -2.542939,3.62606 -3.269474,4.46986 -1.053989,1.22411 -2.607346,1.84296 -4.1075,2.35702 -0.357276,0.12243 -0.71494,0.0707 -1.074087,0.21235 -0.217951,0.12866 -0.52767,0.32457 -0.767206,0.41407 -0.41387,0.15464 -0.814881,0.0312 -1.227529,0.13803 -0.55014,0.14246 -1.132719,0.41238 -1.652443,0.63703 -1.014124,0.43834 -1.718885,1.43748 -2.655712,1.96419 -0.773326,0.43478 -1.605961,0.70113 -2.372435,1.11481 -0.308633,0.16658 -0.663168,0.45454 -0.979662,0.58395 -0.429722,0.17571 -0.521434,0.72193 -0.908844,0.92369 -0.219975,0.11457 -0.599194,0.18865 -0.779008,0.35038 -0.461001,0.41464 -0.94782,0.87328 -1.439986,1.24221 -0.177698,0.13321 -0.10622,-0.0901 -0.495732,0.21235 -0.7691602,0.5972 -0.7164097,0.35091 -0.7554026,0.80691" />
    <path
       style="fill:none;stroke:#000000;stroke-width:0.264583px;stroke-linecap:butt;stroke-linejoin:miter;stroke-opacity:1"
       d="m 9.4355572,118.62006 c 0.018453,-0.18292 0.094855,-0.35632 0.098121,-0.54118 0.00103,-0.0585 0.025003,-0.1457 -0.02713,-0.17276 -0.033411,-0.0173 -0.074977,0.008 -0.1071915,0.0222 -0.154033,0.0684 -0.3010194,0.15146 -0.447072,0.23517 -0.5147394,0.29503 -1.0192204,0.60745 -1.5240817,0.91894 -0.1617735,0.0998 -0.3254704,0.19639 -0.4885701,0.29405 -0.2976547,0.17822 -0.5936115,0.36252 -0.8616506,0.58378 -0.1711624,0.14129 -0.326195,0.30433 -0.4443657,0.49305 -0.1179233,0.18832 -0.2085557,0.39171 -0.3142074,0.58685 -0.2273567,0.41994 -0.517622,0.80257 -0.8314679,1.1612 -0.2403603,0.27466 -0.5046839,0.52733 -0.7418903,0.80483 -0.1907837,0.22319 -0.3565152,0.46852 -0.4837018,0.73359 -0.062118,0.12946 -0.1161277,0.26304 -0.1551701,0.40141 -0.1018001,0.36078 -0.1423846,0.73477 -0.2197429,1.10082 -0.022053,0.10435 -0.045017,0.20931 -0.085083,0.30849"
       id="path507"
       inkscape:path-effect="#path-effect509"
       inkscape:original-d="m 9.4355572,118.62006 c 0.023664,-0.23798 0.1537042,-0.48954 0.070991,-0.71394 -0.040404,-0.10961 -2.0754919,1.18415 -2.4314506,1.39086 -1.992348,1.15698 -1.1404148,1.19287 -2.4904682,2.79234 -0.5524251,0.65448 -1.0669926,1.00617 -1.4045755,1.83678 -0.1965222,0.48354 -0.2445485,1.30503 -0.3777006,1.62444" />
  </g>
</svg>
