<?xml version="1.0" encoding="UTF-8" standalone="no"?>
<!-- Created with Inkscape (http://www.inkscape.org/) -->

<svg
   width="353.56799mm"
   height="264.16mm"
   viewBox="0 0 353.56799 264.16"
   version="1.1"
   id="svg5"
   inkscape:version="1.1.2 (08b2f3d93c, 2022-04-05)"
   sodipodi:docname="ParteDoEpitéliodeOutroTubulo.svg"
   xmlns:inkscape="http://www.inkscape.org/namespaces/inkscape"
   xmlns:sodipodi="http://sodipodi.sourceforge.net/DTD/sodipodi-0.dtd"
   xmlns="http://www.w3.org/2000/svg"
   xmlns:svg="http://www.w3.org/2000/svg">
  <sodipodi:namedview
     id="namedview7"
     pagecolor="#ffffff"
     bordercolor="#666666"
     borderopacity="1.0"
     inkscape:pageshadow="2"
     inkscape:pageopacity="0.0"
     inkscape:pagecheckerboard="0"
     inkscape:document-units="mm"
     showgrid="false"
     inkscape:zoom="0.47393378"
     inkscape:cx="763.81979"
     inkscape:cy="323.88491"
     inkscape:window-width="1366"
     inkscape:window-height="704"
     inkscape:window-x="0"
     inkscape:window-y="27"
     inkscape:window-maximized="1"
     inkscape:current-layer="layer2" />
  <defs
     id="defs2">
    <inkscape:path-effect
       effect="simplify"
       id="path-effect61"
       is_visible="true"
       lpeversion="1"
       steps="1"
       threshold="0.000408163"
       smooth_angles="360"
       helper_size="0"
       simplify_individual_paths="false"
       simplify_just_coalesce="false" />
    <inkscape:path-effect
       effect="simplify"
       id="path-effect57"
       is_visible="true"
       lpeversion="1"
       steps="1"
       threshold="0.000408163"
       smooth_angles="360"
       helper_size="0"
       simplify_individual_paths="false"
       simplify_just_coalesce="false" />
  </defs>
  <g
     inkscape:groupmode="layer"
     id="layer2"
     inkscape:label="Partee do Epitélio de outro Tubulo">
    <path
       style="fill:none;stroke:#000000;stroke-width:0.264583px;stroke-linecap:butt;stroke-linejoin:miter;stroke-opacity:1"
       d="m 3.8570304,71.803611 c 0.4111248,-0.03491 1.4227667,-0.436306 1.2396084,-0.06374 -0.092387,0.187929 -0.4806545,0.238614 -0.7068712,0.293772 -1.0281841,0.250702 -2.0968442,0.288831 -3.1349102,0.510783 -0.266499,0.05698 -0.64524955,-0.094 -0.33017366,-0.384467 0.35355356,-0.325936 0.87964476,-0.232042 1.31541206,-0.197627 0.5346952,0.04223 1.1598155,0.190295 1.6169346,-0.158726 0.8240223,-0.62916 1.1019559,-1.675559 1.5617397,-2.556882 0.226102,-0.433397 0.4944578,-0.866656 0.9276232,-1.12909 1.0926301,-0.661971 2.2806282,-1.147304 3.4576389,-1.635154 2.8188328,-1.168355 5.7161908,-2.137339 8.5361308,-3.301367 2.046333,-0.844695 3.926957,-2.036785 5.732558,-3.301467 1.969377,-1.379394 3.173199,-3.630271 5.224444,-4.889751 0.827677,-0.5082 1.675683,-0.983203 2.501746,-1.495181 3.791189,-2.349705 7.224708,-5.211915 10.790599,-7.881013 2.481841,-1.857678 5.476529,-2.889945 7.907439,-4.829324 5.751766,-4.588756 11.007358,-9.826978 17.166906,-13.878177 1.783762,-1.173199 3.832499,-1.881023 5.564381,-3.144474 2.432257,-1.774393 4.546623,-3.931055 6.825789,-5.888853 1.999984,-1.717981 4.146114,-3.338086 6.625307,-4.304308 3.078039,-1.199612 6.249762,-2.154163 9.461016,-2.920752 2.568558,-0.613165 5.162602,-1.2137768 7.804332,-1.3580878 4.00243,-0.2186428 8.00008,0.5227268 12.0013,0.1552052 2.0454,-0.1878749 4.04381,-0.7787972 5.8845,-1.7032248 3.9762,-1.9969146 8.34045,-2.9891171 12.59804,-4.18713 2.82161,-0.7939522 5.67828,-1.6000889 8.26675,-2.99282783 1.23836,-0.66630441 2.41957,-1.49855834 3.79525,-1.85568997 0.54949,-0.1426499 1.22634,-0.1697167 1.65757,0.267223 0.12588,0.12754647 0.2212,0.28261712 0.29197,0.44658498"
       id="path55"
       inkscape:path-effect="#path-effect57"
       inkscape:original-d="M 3.8570304,71.803611 C 8.0419098,71.316622 0.42358444,73.12848 0.79680667,72.345152 1.2423885,71.409956 3.0281337,72.424956 3.8570304,71.803611 4.9031003,71.019476 5.0862721,69.476238 5.9138989,68.464228 6.8634482,67.303131 16.770711,63.869757 18.656476,63.048977 c 1.813018,-0.789114 3.621049,-1.98248 5.267598,-3.068629 2.128886,-1.404327 3.616429,-4.015444 5.769272,-5.234742 4.582975,-2.595647 8.543226,-5.67346 12.642236,-8.935159 2.379302,-1.893279 5.582441,-2.973747 8.02682,-4.918842 5.744025,-4.570762 11.056678,-9.667351 17.107151,-13.853999 1.645796,-1.138815 3.613299,-1.817167 5.267598,-2.933254 4.186325,-2.824341 8.474268,-8.270519 13.444913,-10.33409 4.557752,-1.892159 13.688245,-4.3934547 18.461676,-4.5126937 5.7277,-0.1430763 11.5091,1.4011827 16.95665,-1.3989478 6.53268,-3.3579054 14.11019,-3.9240764 20.7694,-7.13006432 1.62269,-0.7812246 5.15087,-3.43536588 6.07027,-1.3086854" />
  </g>
</svg>
