<?xml version="1.0" encoding="UTF-8" standalone="no"?>
<!-- Created with Inkscape (http://www.inkscape.org/) -->

<svg
   width="169.33333mm"
   height="127mm"
   viewBox="0 0 169.33333 127"
   version="1.1"
   id="svg5"
   inkscape:version="1.1.2 (08b2f3d93c, 2022-04-05)"
   sodipodi:docname="periósteo.svg"
   xmlns:inkscape="http://www.inkscape.org/namespaces/inkscape"
   xmlns:sodipodi="http://sodipodi.sourceforge.net/DTD/sodipodi-0.dtd"
   xmlns="http://www.w3.org/2000/svg"
   xmlns:svg="http://www.w3.org/2000/svg">
  <sodipodi:namedview
     id="namedview7"
     pagecolor="#ffffff"
     bordercolor="#666666"
     borderopacity="1.0"
     inkscape:pageshadow="2"
     inkscape:pageopacity="0.0"
     inkscape:pagecheckerboard="0"
     inkscape:document-units="mm"
     showgrid="false"
     inkscape:zoom="0.71385146"
     inkscape:cx="188.41455"
     inkscape:cy="199.62136"
     inkscape:window-width="1366"
     inkscape:window-height="704"
     inkscape:window-x="0"
     inkscape:window-y="27"
     inkscape:window-maximized="1"
     inkscape:current-layer="layer2" />
  <defs
     id="defs2">
    <inkscape:path-effect
       effect="simplify"
       id="path-effect221"
       is_visible="true"
       lpeversion="1"
       steps="1"
       threshold="0.000408163"
       smooth_angles="360"
       helper_size="0"
       simplify_individual_paths="false"
       simplify_just_coalesce="false" />
    <inkscape:path-effect
       effect="simplify"
       id="path-effect217"
       is_visible="true"
       lpeversion="1"
       steps="1"
       threshold="0.000408163"
       smooth_angles="360"
       helper_size="0"
       simplify_individual_paths="false"
       simplify_just_coalesce="false" />
    <inkscape:path-effect
       effect="simplify"
       id="path-effect213"
       is_visible="true"
       lpeversion="1"
       steps="1"
       threshold="0.000408163"
       smooth_angles="360"
       helper_size="0"
       simplify_individual_paths="false"
       simplify_just_coalesce="false" />
    <inkscape:path-effect
       effect="simplify"
       id="path-effect209"
       is_visible="true"
       lpeversion="1"
       steps="1"
       threshold="0.000408163"
       smooth_angles="360"
       helper_size="0"
       simplify_individual_paths="false"
       simplify_just_coalesce="false" />
    <inkscape:path-effect
       effect="simplify"
       id="path-effect205"
       is_visible="true"
       lpeversion="1"
       steps="1"
       threshold="0.000408163"
       smooth_angles="360"
       helper_size="0"
       simplify_individual_paths="false"
       simplify_just_coalesce="false" />
    <inkscape:path-effect
       effect="simplify"
       id="path-effect201"
       is_visible="true"
       lpeversion="1"
       steps="1"
       threshold="0.000408163"
       smooth_angles="360"
       helper_size="0"
       simplify_individual_paths="false"
       simplify_just_coalesce="false" />
    <inkscape:path-effect
       effect="simplify"
       id="path-effect196"
       is_visible="true"
       lpeversion="1"
       steps="1"
       threshold="0.000408163"
       smooth_angles="360"
       helper_size="0"
       simplify_individual_paths="false"
       simplify_just_coalesce="false" />
    <inkscape:path-effect
       effect="simplify"
       id="path-effect192"
       is_visible="true"
       lpeversion="1"
       steps="1"
       threshold="0.000408163"
       smooth_angles="360"
       helper_size="0"
       simplify_individual_paths="false"
       simplify_just_coalesce="false" />
    <inkscape:path-effect
       effect="simplify"
       id="path-effect188"
       is_visible="true"
       lpeversion="1"
       steps="1"
       threshold="0.000408163"
       smooth_angles="360"
       helper_size="0"
       simplify_individual_paths="false"
       simplify_just_coalesce="false" />
    <inkscape:path-effect
       effect="simplify"
       id="path-effect184"
       is_visible="true"
       lpeversion="1"
       steps="1"
       threshold="0.000408163"
       smooth_angles="360"
       helper_size="0"
       simplify_individual_paths="false"
       simplify_just_coalesce="false" />
    <inkscape:path-effect
       effect="simplify"
       id="path-effect180"
       is_visible="true"
       lpeversion="1"
       steps="1"
       threshold="0.000408163"
       smooth_angles="360"
       helper_size="0"
       simplify_individual_paths="false"
       simplify_just_coalesce="false" />
    <inkscape:path-effect
       effect="simplify"
       id="path-effect176"
       is_visible="true"
       lpeversion="1"
       steps="1"
       threshold="0.000408163"
       smooth_angles="360"
       helper_size="0"
       simplify_individual_paths="false"
       simplify_just_coalesce="false" />
    <inkscape:path-effect
       effect="simplify"
       id="path-effect172"
       is_visible="true"
       lpeversion="1"
       steps="1"
       threshold="0.000408163"
       smooth_angles="360"
       helper_size="0"
       simplify_individual_paths="false"
       simplify_just_coalesce="false" />
    <inkscape:path-effect
       effect="simplify"
       id="path-effect168"
       is_visible="true"
       lpeversion="1"
       steps="1"
       threshold="0.000408163"
       smooth_angles="360"
       helper_size="0"
       simplify_individual_paths="false"
       simplify_just_coalesce="false" />
    <inkscape:path-effect
       effect="simplify"
       id="path-effect164"
       is_visible="true"
       lpeversion="1"
       steps="1"
       threshold="0.000408163"
       smooth_angles="360"
       helper_size="0"
       simplify_individual_paths="false"
       simplify_just_coalesce="false" />
    <inkscape:path-effect
       effect="simplify"
       id="path-effect160"
       is_visible="true"
       lpeversion="1"
       steps="1"
       threshold="0.000408163"
       smooth_angles="360"
       helper_size="0"
       simplify_individual_paths="false"
       simplify_just_coalesce="false" />
    <inkscape:path-effect
       effect="simplify"
       id="path-effect156"
       is_visible="true"
       lpeversion="1"
       steps="1"
       threshold="0.000408163"
       smooth_angles="360"
       helper_size="0"
       simplify_individual_paths="false"
       simplify_just_coalesce="false" />
    <inkscape:path-effect
       effect="simplify"
       id="path-effect152"
       is_visible="true"
       lpeversion="1"
       steps="1"
       threshold="0.000408163"
       smooth_angles="360"
       helper_size="0"
       simplify_individual_paths="false"
       simplify_just_coalesce="false" />
    <inkscape:path-effect
       effect="simplify"
       id="path-effect148"
       is_visible="true"
       lpeversion="1"
       steps="1"
       threshold="0.000408163"
       smooth_angles="360"
       helper_size="0"
       simplify_individual_paths="false"
       simplify_just_coalesce="false" />
    <inkscape:path-effect
       effect="simplify"
       id="path-effect144"
       is_visible="true"
       lpeversion="1"
       steps="1"
       threshold="0.000408163"
       smooth_angles="360"
       helper_size="0"
       simplify_individual_paths="false"
       simplify_just_coalesce="false" />
    <inkscape:path-effect
       effect="simplify"
       id="path-effect140"
       is_visible="true"
       lpeversion="1"
       steps="1"
       threshold="0.000408163"
       smooth_angles="360"
       helper_size="0"
       simplify_individual_paths="false"
       simplify_just_coalesce="false" />
    <inkscape:path-effect
       effect="simplify"
       id="path-effect136"
       is_visible="true"
       lpeversion="1"
       steps="1"
       threshold="0.000408163"
       smooth_angles="360"
       helper_size="0"
       simplify_individual_paths="false"
       simplify_just_coalesce="false" />
    <inkscape:path-effect
       effect="simplify"
       id="path-effect132"
       is_visible="true"
       lpeversion="1"
       steps="1"
       threshold="0.000408163"
       smooth_angles="360"
       helper_size="0"
       simplify_individual_paths="false"
       simplify_just_coalesce="false" />
    <inkscape:path-effect
       effect="simplify"
       id="path-effect128"
       is_visible="true"
       lpeversion="1"
       steps="1"
       threshold="0.000408163"
       smooth_angles="360"
       helper_size="0"
       simplify_individual_paths="false"
       simplify_just_coalesce="false" />
    <inkscape:path-effect
       effect="simplify"
       id="path-effect124"
       is_visible="true"
       lpeversion="1"
       steps="1"
       threshold="0.000408163"
       smooth_angles="360"
       helper_size="0"
       simplify_individual_paths="false"
       simplify_just_coalesce="false" />
    <inkscape:path-effect
       effect="simplify"
       id="path-effect120"
       is_visible="true"
       lpeversion="1"
       steps="1"
       threshold="0.000408163"
       smooth_angles="360"
       helper_size="0"
       simplify_individual_paths="false"
       simplify_just_coalesce="false" />
    <inkscape:path-effect
       effect="simplify"
       id="path-effect116"
       is_visible="true"
       lpeversion="1"
       steps="1"
       threshold="0.000408163"
       smooth_angles="360"
       helper_size="0"
       simplify_individual_paths="false"
       simplify_just_coalesce="false" />
    <inkscape:path-effect
       effect="simplify"
       id="path-effect112"
       is_visible="true"
       lpeversion="1"
       steps="1"
       threshold="0.000408163"
       smooth_angles="360"
       helper_size="0"
       simplify_individual_paths="false"
       simplify_just_coalesce="false" />
    <inkscape:path-effect
       effect="simplify"
       id="path-effect108"
       is_visible="true"
       lpeversion="1"
       steps="1"
       threshold="0.000408163"
       smooth_angles="360"
       helper_size="0"
       simplify_individual_paths="false"
       simplify_just_coalesce="false" />
    <inkscape:path-effect
       effect="simplify"
       id="path-effect104"
       is_visible="true"
       lpeversion="1"
       steps="1"
       threshold="0.000408163"
       smooth_angles="360"
       helper_size="0"
       simplify_individual_paths="false"
       simplify_just_coalesce="false" />
    <inkscape:path-effect
       effect="simplify"
       id="path-effect100"
       is_visible="true"
       lpeversion="1"
       steps="1"
       threshold="0.000408163"
       smooth_angles="360"
       helper_size="0"
       simplify_individual_paths="false"
       simplify_just_coalesce="false" />
    <inkscape:path-effect
       effect="simplify"
       id="path-effect96"
       is_visible="true"
       lpeversion="1"
       steps="1"
       threshold="0.000408163"
       smooth_angles="360"
       helper_size="0"
       simplify_individual_paths="false"
       simplify_just_coalesce="false" />
    <inkscape:path-effect
       effect="simplify"
       id="path-effect92"
       is_visible="true"
       lpeversion="1"
       steps="1"
       threshold="0.000408163"
       smooth_angles="360"
       helper_size="0"
       simplify_individual_paths="false"
       simplify_just_coalesce="false" />
    <inkscape:path-effect
       effect="simplify"
       id="path-effect88"
       is_visible="true"
       lpeversion="1"
       steps="1"
       threshold="0.000408163"
       smooth_angles="360"
       helper_size="0"
       simplify_individual_paths="false"
       simplify_just_coalesce="false" />
    <inkscape:path-effect
       effect="simplify"
       id="path-effect84"
       is_visible="true"
       lpeversion="1"
       steps="1"
       threshold="0.000408163"
       smooth_angles="360"
       helper_size="0"
       simplify_individual_paths="false"
       simplify_just_coalesce="false" />
    <inkscape:path-effect
       effect="simplify"
       id="path-effect80"
       is_visible="true"
       lpeversion="1"
       steps="1"
       threshold="0.000408163"
       smooth_angles="360"
       helper_size="0"
       simplify_individual_paths="false"
       simplify_just_coalesce="false" />
    <inkscape:path-effect
       effect="simplify"
       id="path-effect76"
       is_visible="true"
       lpeversion="1"
       steps="1"
       threshold="0.000408163"
       smooth_angles="360"
       helper_size="0"
       simplify_individual_paths="false"
       simplify_just_coalesce="false" />
    <inkscape:path-effect
       effect="simplify"
       id="path-effect72"
       is_visible="true"
       lpeversion="1"
       steps="1"
       threshold="0.000408163"
       smooth_angles="360"
       helper_size="0"
       simplify_individual_paths="false"
       simplify_just_coalesce="false" />
    <inkscape:path-effect
       effect="simplify"
       id="path-effect68"
       is_visible="true"
       lpeversion="1"
       steps="1"
       threshold="0.000408163"
       smooth_angles="360"
       helper_size="0"
       simplify_individual_paths="false"
       simplify_just_coalesce="false" />
    <inkscape:path-effect
       effect="simplify"
       id="path-effect64"
       is_visible="true"
       lpeversion="1"
       steps="1"
       threshold="0.000408163"
       smooth_angles="360"
       helper_size="0"
       simplify_individual_paths="false"
       simplify_just_coalesce="false" />
    <inkscape:path-effect
       effect="simplify"
       id="path-effect60"
       is_visible="true"
       lpeversion="1"
       steps="1"
       threshold="0.000408163"
       smooth_angles="360"
       helper_size="0"
       simplify_individual_paths="false"
       simplify_just_coalesce="false" />
    <inkscape:path-effect
       effect="simplify"
       id="path-effect56"
       is_visible="true"
       lpeversion="1"
       steps="1"
       threshold="0.000408163"
       smooth_angles="360"
       helper_size="0"
       simplify_individual_paths="false"
       simplify_just_coalesce="false" />
  </defs>
  <g
     inkscape:groupmode="layer"
     id="layer2"
     inkscape:label="Periosteo">
    <path
       style="fill:none;stroke:#000000;stroke-width:0.264583px;stroke-linecap:butt;stroke-linejoin:miter;stroke-opacity:1"
       d="m 111.17681,0.75568706 c -0.49924,0.68033304 -1.15467,1.21923454 -1.71964,1.84184374 -1.17038,1.289773 -2.34059,2.6113674 -3.77821,3.6096806 -1.28089,0.8894772 -2.76238,1.4193901 -4.09552,2.2196183 -1.24726,0.7486781 -2.390779,1.6663383 -3.401546,2.7173073 -1.068907,1.111422 -2.38638,1.936409 -3.502503,2.997077 -1.119893,1.064251 -2.173078,2.216621 -3.465314,3.081716 -0.956317,0.640212 -1.963955,1.200632 -2.894341,1.881457 -1.716172,1.255837 -3.439443,2.512699 -5.017889,3.938851 -0.961471,0.868705 -1.640906,1.984949 -2.359283,3.049235 -0.441369,0.653895 -0.936911,1.270252 -1.480861,1.841979 -0.565781,0.594673 -1.145235,1.17638 -1.733599,1.748528 -0.543902,0.528911 -1.196268,0.92581 -1.86077,1.282968 -1.479548,0.795231 -2.821547,1.820189 -4.083088,2.921405 -0.439828,0.383932 -0.898382,0.751306 -1.275079,1.20148 -0.857695,1.024995 -1.383463,2.291548 -2.297136,3.271347 -0.599946,0.643366 -1.353806,1.124994 -1.90516,1.819759 -0.506096,0.637735 -1.050857,1.243646 -1.562433,1.876865 -0.571747,0.707697 -0.963457,1.540735 -1.559907,2.232256 -1.248741,1.447786 -2.859129,2.526779 -4.139913,3.940898 -0.924125,1.02033 -1.68206,2.173743 -2.473909,3.295579 -0.317013,0.449122 -0.663546,0.876079 -0.995369,1.314111 -0.489743,0.646498 -0.859937,1.376636 -1.366333,2.010107 -0.544821,0.681538 -1.207377,1.255962 -1.74724,1.943835 -0.263333,0.335529 -0.485409,0.700454 -0.730045,1.049149 -0.125055,0.178249 -0.564038,0.65354 -0.389814,0.525091 0.127176,-0.09376 0.210312,-0.23264 0.338808,-0.324091 0.212836,-0.151476 0.421042,-0.309349 0.629419,-0.466861"
       id="path199"
       inkscape:path-effect="#path-effect201"
       inkscape:original-d="m 111.17681,0.75568706 c -0.44991,0.61751684 -1.04546,1.09839214 -1.55486,1.66006284 -1.17056,1.2907022 -2.36459,2.6285784 -3.77815,3.6730528 -0.99309,0.7337838 -2.20566,1.2420494 -3.29863,1.8038487 -1.51067,0.7765048 -3.10179,1.8885276 -4.243171,3.1240516 -1.016635,1.100491 -2.249429,1.859155 -3.342224,2.862625 -1.004356,0.922262 -1.921873,1.9481 -2.993464,2.797273 -1.081149,0.856747 -2.292993,1.442742 -3.400349,2.248274 -1.751181,1.273878 -3.49876,2.603914 -5.144116,4.012907 -1.295744,1.109607 -2.079329,2.715719 -3.124248,4.039047 -0.706535,0.894786 -1.587142,1.711277 -2.383144,2.522773 -1.004276,1.023824 -1.831933,1.28964 -2.964407,1.999922 -1.34606,0.844238 -2.652464,1.930688 -3.850823,2.980266 -1.164045,1.01953 -1.764199,2.563538 -2.760961,3.738409 -0.583647,0.687941 -1.388521,1.154034 -1.947209,1.856132 -0.514639,0.646737 -0.999837,1.236488 -1.540328,1.856131 -0.579985,0.664925 -0.941533,1.478082 -1.496732,2.156778 -1.185352,1.449009 -2.802858,2.594845 -4.112384,3.934476 -1.204005,1.23168 -2.346709,3.17356 -3.487539,4.588049 -0.526188,0.65241 -0.889759,1.317228 -1.365951,1.999912 -0.485656,0.696248 -1.189509,1.270195 -1.729238,1.934561 -0.306413,0.377175 -0.58457,0.766485 -0.842817,1.176423 -0.133842,0.21246 -0.615166,0.790233 -0.435943,0.614357 0.506632,-0.497171 -0.233931,0.124613 0.930013,-0.75814" />
    <path
       style="fill:none;stroke:#000000;stroke-width:0.264583px;stroke-linecap:butt;stroke-linejoin:miter;stroke-opacity:1"
       d="m 52.310135,57.576878 c -0.522254,0.481376 -1.11322,0.897614 -1.562605,1.449644 -0.442167,0.543164 -0.689523,1.207213 -1.074961,1.788162 -0.540512,0.814684 -1.107271,1.612387 -1.706283,2.384626 -0.578696,0.746047 -1.283728,1.382578 -1.836377,2.152558 -0.419367,0.584284 -0.805936,1.190805 -1.244844,1.762057 -0.419445,0.54592 -0.895943,1.043423 -1.370093,1.541219 -0.397598,0.417427 -0.763457,0.863864 -1.097136,1.334444 -0.878864,1.239441 -1.625596,2.590669 -2.705951,3.671337 -1.680737,1.681225 -3.561961,3.164736 -5.589472,4.392973 -0.571917,0.346459 -1.186265,0.615724 -1.773351,0.934546 -0.328672,0.178488 -0.705074,0.305184 -0.963243,0.57832 -0.334383,0.353768 -0.601726,0.76379 -0.911401,1.138963 -0.413293,0.500707 -0.958228,0.863025 -1.498388,1.212043 -0.376093,0.243008 -0.738909,0.509327 -1.05097,0.833317 -0.309312,0.321136 -0.620897,0.640388 -0.970071,0.920516 -0.810963,0.650602 -1.605681,1.320939 -2.415597,1.973167 -0.599322,0.482636 -1.299159,0.83591 -1.834612,1.400347 -0.461546,0.48653 -0.814248,1.080593 -1.339186,1.50042 -0.212406,0.169875 -0.464356,0.275987 -0.68054,0.443954 -1.146843,0.891056 -2.263856,1.818745 -3.360384,2.773183 -0.396514,0.345133 -0.844525,0.63013 -1.194548,1.030288 -1.244729,1.423015 -2.385072,2.941796 -3.723128,4.278932 -0.564346,0.563958 -1.290218,0.928823 -1.85208,1.498226 -1.0737135,1.088126 -1.7665225,2.47889 -2.7744544,3.62005 -0.4395775,0.49768 -0.9786817,0.90194 -1.3667449,1.44737 -0.3659283,0.51432 -0.5381661,1.1324 -0.8919432,1.65672 -0.4964198,0.73572 -1.1240462,1.37806 -1.8337196,1.91089 -0.4839873,0.36338 -1.0481617,0.61254 -1.5173927,0.99368 -0.5750741,0.46711 -1.1753312,0.90788 -1.70112326,1.43071 -0.0499512,0.0497 -0.24009183,0.16002 -0.14645288,0.0106 0.0388335,-0.062 0.0838026,-0.11983 0.12874211,-0.17742"
       id="path203"
       inkscape:path-effect="#path-effect205"
       inkscape:original-d="m 52.310135,57.576878 c -0.487809,0.446299 -1.004427,0.863021 -1.463429,1.338895 -0.434271,0.450239 -0.720968,1.199372 -1.060791,1.725422 -0.532151,0.823775 -1.14073,1.628902 -1.714706,2.418199 -0.549019,0.754975 -1.274657,1.363811 -1.816426,2.117558 -0.805439,1.120582 -0.768821,1.209355 -1.642046,2.274419 -0.619969,0.756174 -1.364499,1.409756 -1.947204,2.195989 -1.01782,1.373325 -1.883817,2.975136 -3.109722,4.169765 -1.672984,1.630299 -3.471529,2.91148 -5.391147,4.208975 -0.569108,0.384667 -2.518482,1.232477 -2.833624,1.594705 -0.409057,0.470172 -0.717116,0.990166 -1.177044,1.424776 -0.573445,0.541882 -1.129612,0.801777 -1.729235,1.254852 -0.479708,0.362469 -0.836988,0.85929 -1.293296,1.228709 -0.836604,0.677302 -1.674161,1.325219 -2.484868,2.026061 -0.562807,0.486534 -1.275882,0.824663 -1.801892,1.34635 -0.506337,0.502174 -0.912057,1.098701 -1.424076,1.594705 -0.19127,0.185288 -0.432191,0.25676 -0.639381,0.418282 -1.174026,0.915255 -2.297481,1.771457 -3.385814,2.7842 -0.371595,0.345787 -0.841026,0.610563 -1.177044,0.993421 -1.257343,1.43261 -2.428574,2.908823 -3.734569,4.300479 -0.539242,0.574611 -1.234203,0.907097 -1.787364,1.437849 -1.1143746,1.069234 -1.8391072,2.471551 -2.819089,3.646911 -0.5173583,0.6205 -1.0271794,0.92141 -1.4967349,1.60777 -0.313177,0.45778 -0.463383,1.0123 -0.7701634,1.47707 -0.9443035,1.4306 -1.9421541,2.13632 -3.4148783,3.01948 -0.2013218,0.12073 -2.52500265,2.2731 -1.74376623,1.28099" />
    <path
       style="fill:none;stroke:#000000;stroke-width:0.264583px;stroke-linecap:butt;stroke-linejoin:miter;stroke-opacity:1"
       d="M -0.23115098,95.831738 C 0.01480984,95.468947 0.21915272,95.068853 0.55200286,94.773019 1.009021,94.366826 1.5533592,94.065436 1.9628854,93.602874 2.3467481,93.169299 2.6924298,92.68892 3.1781766,92.358298 c 0.35023,-0.238383 0.7132565,-0.458647 1.0321436,-0.74206 1.8523598,-1.6463 3.5311187,-3.473073 5.2345422,-5.270171 0.7285176,-0.76858 1.4881956,-1.511339 2.1360206,-2.352497 0.835127,-1.084357 1.574373,-2.248044 2.534191,-3.23237 0.957424,-0.981871 2.082528,-1.787297 3.024023,-2.783136 0.552304,-0.584183 0.846335,-1.357186 1.397686,-1.944157 0.365804,-0.389437 0.757832,-0.751448 1.129512,-1.136243 0.640411,-0.663007 1.510526,-1.054123 2.11174,-1.763083 1.6183,-1.908321 3.419813,-3.682899 4.788191,-5.782482 0.179138,-0.274862 0.177665,-0.627102 0.384078,-0.891845 0.26735,-0.342901 0.651157,-0.571416 0.903433,-0.931091 0.367169,-0.523481 0.678656,-1.084613 1.08691,-1.580525 0.59754,-0.72584 1.166542,-1.478806 1.824007,-2.151836 0.529485,-0.54202 1.169632,-0.983235 1.600894,-1.615322 0.247095,-0.362159 0.340959,-0.828579 0.654074,-1.137377 0.147325,-0.145294 0.337303,-0.237487 0.464413,-0.409743 0.478891,-0.648978 0.779217,-1.417189 1.275649,-2.050739 0.226384,-0.288913 0.558598,-0.486649 0.753853,-0.79894 0.123668,-0.197795 0.0444,-0.438607 0.05756,-0.656578 0.01373,-0.227471 0.170143,-0.408703 0.308911,-0.574958 0.480343,-0.57549 1.117613,-0.985912 1.633738,-1.527037 0.542779,-0.569071 1.102988,-1.119979 1.668599,-1.667995 0.481937,-0.466945 0.773121,-1.108352 1.310493,-1.519254 0.402679,-0.307909 0.945228,-0.352765 1.341478,-0.672073 0.507505,-0.40896 0.859708,-0.974544 1.349432,-1.400004 0.351759,-0.305599 0.775313,-0.535444 1.053422,-0.920697 0.401939,-0.556789 0.587596,-1.229047 0.808532,-1.871612 0.08071,-0.234723 0.107158,-0.48276 0.101259,-0.73119 -0.0061,-0.255582 -0.06823,-0.512647 -0.03345,-0.76664 0.01778,-0.129833 0.163523,-0.295625 0.0682,-0.387611 -0.0821,-0.07923 -0.211617,0.07665 -0.305655,0.108336 0,0 -0.0163,0.0091 -0.0163,0.0091"
       id="path215"
       inkscape:path-effect="#path-effect217"
       inkscape:original-d="M -0.23115098,95.831738 C -0.0713061,95.587739 0.07769205,95.336282 0.24838368,95.099745 0.55650415,94.672763 1.1868084,94.315461 1.5998051,93.962534 2.0934227,93.540714 2.4131628,92.983626 2.9076292,92.563899 3.278488,92.249095 3.7203401,92.048085 4.0846732,91.727334 5.8727326,90.153161 7.6153972,88.3262 9.2287869,86.577217 9.800061,85.95793 10.414957,85.36434 10.972556,84.734158 c 1.042106,-1.177761 1.832158,-2.571268 2.906279,-3.725336 0.995677,-1.069784 2.155888,-1.962261 3.196906,-2.967201 0.457377,-0.441526 0.765198,-1.111491 1.147982,-1.633919 0.380985,-0.519969 0.933092,-0.941334 1.351419,-1.411708 0.635879,-0.714989 1.543268,-1.082685 2.165175,-1.816917 1.608203,-1.898669 3.359975,-3.774869 4.809895,-5.803683 0.176456,-0.246907 0.168736,-0.545174 0.319688,-0.797351 0.223684,-0.373677 0.656596,-0.603258 0.91548,-0.95421 0.369877,-0.501411 0.650571,-1.061601 1.04626,-1.54242 0.580512,-0.705408 1.174639,-1.456999 1.787364,-2.130634 0.509042,-0.559652 1.119494,-0.979755 1.598453,-1.568561 0.350711,-0.431141 0.45588,-0.841055 0.755635,-1.280993 0.111003,-0.162918 0.33528,-0.232966 0.465,-0.405215 0.493207,-0.65491 0.88415,-1.397249 1.30783,-2.091412 0.131744,-0.215853 0.756017,-0.689938 0.813755,-0.914996 0.06858,-0.267327 -0.06934,-0.551338 0.08719,-0.810426 0.423259,-0.700553 1.183174,-1.14762 1.743762,-1.72542 0.589765,-0.607872 1.087255,-1.176202 1.72924,-1.738492 0.537364,-0.470651 0.962224,-1.391084 1.583923,-1.712346 0.382908,-0.197869 0.824497,-0.279228 1.162511,-0.562068 0.448889,-0.375618 0.788881,-0.840875 1.191572,-1.25485 0.286628,-0.294656 0.664966,-0.494921 0.959075,-0.784283 0.556297,-0.547314 0.861195,-1.544545 1.075322,-2.287484 0.119166,-0.413473 0.01452,-0.845725 0.01452,-1.267923 0,-0.161288 0.163058,-0.546513 0.01453,-0.483643 -0.09162,0.03879 -0.174376,0.09586 -0.261564,0.143788" />
    <path
       style="fill:none;stroke:#000000;stroke-width:0.264583px;stroke-linecap:butt;stroke-linejoin:miter;stroke-opacity:1"
       d="m 44.876055,43.197367 c -0.01,-0.977407 0.07686,-1.981359 0.471061,-2.887757 0.295723,-0.679963 0.807006,-1.257151 1.434085,-1.651626 0.623103,-0.391974 1.330173,-0.637416 2.04878,-0.77955 0.163552,-0.03235 0.303214,0.07137 0.433431,0.153695 0.171724,0.10857 0.382825,0.06205 0.568639,0.02755 0.463113,-0.08599 0.931398,-0.1942 1.350365,-0.410628 0.294191,-0.151972 0.570473,-0.336852 0.84525,-0.520989 0.765322,-0.512867 1.521352,-1.05346 2.167995,-1.711689 0.468529,-0.476924 0.83839,-1.054499 1.393509,-1.443912 1.112254,-0.780241 2.333056,-1.410796 3.354701,-2.316353 0.377591,-0.334686 0.704666,-0.723537 0.97586,-1.150152 0.328306,-0.516459 0.702273,-1.014003 1.187347,-1.396246 0.391317,-0.308361 0.879287,-0.499779 1.215935,-0.866914 0.381377,-0.415914 0.740087,-0.852462 1.089871,-1.295018 0.175729,-0.222337 0.352749,-0.443695 0.502484,-0.685652 0.336924,-0.544438 0.720647,-1.073862 0.928448,-1.682847 0.04991,-0.146261 0.172568,-0.319323 0.0952,-0.455371 -0.07154,-0.12581 -0.238432,-0.14053 -0.364175,-0.18083 -0.180755,-0.05793 -0.411955,-0.07709 -0.52133,-0.245324 -0.08562,-0.131697 0.01676,-0.284304 0.10395,-0.385492 0.325204,-0.377408 0.789915,-0.580302 1.196694,-0.852078 0.979995,-0.654751 2.015786,-1.22177 3.077992,-1.731873 0.363201,-0.17442 0.748511,-0.305509 1.096932,-0.507589 0.196723,-0.114097 0.283654,-0.343238 0.491719,-0.451089 0.73947,-0.383307 1.546952,-0.629161 2.262422,-1.056482 0.474685,-0.28351 0.770649,-0.775564 1.193538,-1.118562 0.408601,-0.331409 0.946072,-0.445589 1.351418,-0.78611 0.50259,-0.422213 0.962621,-0.892883 1.393158,-1.386464 0.224972,-0.257915 0.308525,-0.622916 0.578437,-0.841422 0.753163,-0.609719 1.667227,-0.965445 2.478782,-1.483202 0.434657,-0.277303 0.70004,-0.743576 0.884811,-1.212417 0.280176,-0.710923 0.415337,-1.471604 0.737567,-2.1680577 0.25149,-0.5435585 0.844847,-0.8220833 1.104434,-1.3600055 0.147884,-0.3064492 0.04377,-0.6484797 0.01074,-0.9672227 -0.02361,-0.2278328 0.03976,-0.4794466 0.225762,-0.6238915 0.504229,-0.391572 1.085631,-0.6861553 1.699207,-0.8600992 0.267366,-0.075796 0.656976,-0.3729247 0.820003,-0.1474359 0.06499,0.089887 0.08887,0.1920109 0.189286,0.2843017 0.190087,0.1747129 0.39625,0.335931 0.64435,0.4261015 0.618526,0.2247997 1.309253,0.1875941 1.923823,-0.029279 0.179096,-0.0632 0.358823,-0.1310176 0.507775,-0.2553324 0.498304,-0.415884 0.959187,-0.874692 1.409619,-1.3411084 0.417678,-0.4324999 0.778741,-0.9202002 1.221218,-1.3279908 0.09539,-0.087908 0.09347,-0.2208655 0.06107,-0.3377975 -0.05065,-0.1827885 -0.113583,-0.3657734 -0.09639,-0.5607751 0.02562,-0.2905627 0.202267,-0.5444456 0.234215,-0.8315939 0.01386,-0.1246089 -0.05613,-0.2784031 0.04314,-0.3807072 0.191881,-0.1977307 0.520714,-0.2058858 0.671336,-0.45624864 0.07369,-0.12248674 0.08182,-0.27429097 0.155626,-0.39486729 0.07082,-0.11569946 0.217914,-0.14501217 0.335448,-0.19178383 0.110514,-0.0439782 0.291779,-0.0174254 0.334828,-0.1261932 0.02012,-0.0508378 -0.02313,-0.27134931 -0.03108,-0.11453158 -0.002,0.0402504 -0.0024,0.0805633 -0.0024,0.12085773"
       id="path219"
       inkscape:path-effect="#path-effect221"
       inkscape:original-d="m 44.876055,43.197367 c -0.03976,-2.976319 0.953805,-4.658913 3.90719,-5.310548 0.344847,-0.07609 0.415361,0.209143 0.69751,0.209143 0.453858,0 1.47307,-0.297926 1.845487,-0.522854 0.941213,-0.56846 2.017798,-1.337373 2.790029,-2.078344 0.490844,-0.470977 0.848542,-1.073359 1.409541,-1.477068 1.34107,-0.965063 3.368276,-1.929895 4.286766,-3.346265 0.289028,-0.445699 0.545015,-0.855506 0.930013,-1.24178 0.45793,-0.459451 1.045356,-0.767551 1.554851,-1.163349 0.129325,-0.10047 1.415549,-1.669126 1.511265,-1.829992 0.302744,-0.508821 1.11561,-1.678018 1.133449,-2.287487 0.0081,-0.277187 -1.347544,-0.178382 -0.784691,-0.836565 0.293362,-0.343047 0.70739,-0.52475 1.075327,-0.771212 1.48884,-0.997302 2.629377,-1.568213 4.257699,-2.30056 0.214292,-0.09638 0.287737,-0.34379 0.479534,-0.444428 0.720849,-0.378233 1.498859,-0.654253 2.223304,-1.032633 0.487339,-0.25454 0.845238,-0.733654 1.220637,-1.111065 0.316103,-0.317794 0.945213,-0.475043 1.307819,-0.75814 0.503513,-0.393104 1.021535,-0.984518 1.46767,-1.437848 0.23108,-0.234805 0.365969,-0.680401 0.61032,-0.875783 0.774552,-0.619325 1.592159,-0.953339 2.42675,-1.450922 1.12748,-0.672201 1.128223,-2.405614 1.714704,-3.4900517 0.273365,-0.505473 0.841888,-0.7821848 1.075325,-1.3071356 0.231452,-0.5204838 -0.29941,-1.1763793 0.276087,-1.6077774 0.675127,-0.5060815 1.61231,-0.9089215 2.455807,-0.9672809 0.07345,-0.00508 0.04599,0.1479491 0.101719,0.196071 0.169299,0.1461958 0.389843,0.3706588 0.595792,0.4574979 0.791892,0.3339037 1.609,0.2427645 2.383144,-0.0915 0.388789,-0.1678734 2.885149,-2.7505443 2.906284,-2.9279832 0.02564,-0.2152308 -0.102444,-0.403253 -0.116247,-0.614354 -0.02328,-0.3562342 0.154866,-0.619055 0.232494,-0.9542083 0.01976,-0.085326 -0.0315,-0.3150633 0.01455,-0.3790698 0.162037,-0.2252653 0.55807,-0.2327969 0.6975,-0.48364056 0.297175,-0.53464033 -0.09383,-0.38713399 0.828294,-0.71892445 0.02897,-0.0104242 -0.02907,-0.41945748 -0.02907,0" />
  </g>
</svg>
