<?xml version="1.0" encoding="UTF-8" standalone="no"?>
<!-- Created with Inkscape (http://www.inkscape.org/) -->

<svg
   width="169.33333mm"
   height="127mm"
   viewBox="0 0 169.33333 127"
   version="1.1"
   id="svg5"
   inkscape:version="1.1.2 (08b2f3d93c, 2022-04-05)"
   sodipodi:docname="Purkinje.svg"
   xmlns:inkscape="http://www.inkscape.org/namespaces/inkscape"
   xmlns:sodipodi="http://sodipodi.sourceforge.net/DTD/sodipodi-0.dtd"
   xmlns="http://www.w3.org/2000/svg"
   xmlns:svg="http://www.w3.org/2000/svg">
  <sodipodi:namedview
     id="namedview7"
     pagecolor="#ffffff"
     bordercolor="#666666"
     borderopacity="1.0"
     inkscape:pageshadow="2"
     inkscape:pageopacity="0.0"
     inkscape:pagecheckerboard="0"
     inkscape:document-units="mm"
     showgrid="false"
     inkscape:zoom="1.0717735"
     inkscape:cx="304.16876"
     inkscape:cy="179.60885"
     inkscape:window-width="1366"
     inkscape:window-height="704"
     inkscape:window-x="0"
     inkscape:window-y="27"
     inkscape:window-maximized="1"
     inkscape:current-layer="layer2" />
  <defs
     id="defs2">
    <inkscape:path-effect
       effect="simplify"
       id="path-effect77"
       is_visible="true"
       lpeversion="1"
       steps="1"
       threshold="0.000408163"
       smooth_angles="360"
       helper_size="0"
       simplify_individual_paths="false"
       simplify_just_coalesce="false" />
    <inkscape:path-effect
       effect="simplify"
       id="path-effect73"
       is_visible="true"
       lpeversion="1"
       steps="1"
       threshold="0.000408163"
       smooth_angles="360"
       helper_size="0"
       simplify_individual_paths="false"
       simplify_just_coalesce="false" />
    <inkscape:path-effect
       effect="simplify"
       id="path-effect69"
       is_visible="true"
       lpeversion="1"
       steps="1"
       threshold="0.000408163"
       smooth_angles="360"
       helper_size="0"
       simplify_individual_paths="false"
       simplify_just_coalesce="false" />
    <inkscape:path-effect
       effect="simplify"
       id="path-effect65"
       is_visible="true"
       lpeversion="1"
       steps="1"
       threshold="0.000408163"
       smooth_angles="360"
       helper_size="0"
       simplify_individual_paths="false"
       simplify_just_coalesce="false" />
    <inkscape:path-effect
       effect="simplify"
       id="path-effect61"
       is_visible="true"
       lpeversion="1"
       steps="1"
       threshold="0.000408163"
       smooth_angles="360"
       helper_size="0"
       simplify_individual_paths="false"
       simplify_just_coalesce="false" />
    <inkscape:path-effect
       effect="simplify"
       id="path-effect57"
       is_visible="true"
       lpeversion="1"
       steps="1"
       threshold="0.000408163"
       smooth_angles="360"
       helper_size="0"
       simplify_individual_paths="false"
       simplify_just_coalesce="false" />
  </defs>
  <g
     inkscape:groupmode="layer"
     id="layer2"
     inkscape:label="Purkinje">
    <path
       style="fill:none;stroke:#000000;stroke-width:0.264583px;stroke-linecap:butt;stroke-linejoin:miter;stroke-opacity:1"
       d="m 59.972503,102.18643 c -0.484232,-0.81649 -0.935494,-1.66317 -1.208092,-2.576672 -0.142857,-0.478727 -0.211172,-0.975329 -0.258742,-1.472802 -0.03649,-0.381583 -0.143062,-0.752603 -0.26176,-1.115478 -0.294565,-0.900525 -0.669107,-1.773425 -1.085481,-2.6237 -0.466309,-0.952248 -0.971024,-1.89033 -1.582874,-2.757434 -0.309937,-0.439238 -0.637628,-0.873699 -1.044373,-1.228438 -0.171414,-0.149497 -0.365733,-0.272012 -0.578017,-0.357614 -0.927215,-0.373893 -1.947795,-0.493828 -2.939871,-0.386334 -1.241193,0.134487 -2.429944,0.597553 -3.494,1.239458 -1.22733,0.740402 -2.314427,1.7093 -3.205533,2.830912 -0.372831,0.469273 -0.688882,0.979547 -0.996928,1.493704 -0.231906,0.387072 -0.508222,0.744978 -0.75252,1.124028 -0.238472,0.37001 -0.464425,0.757804 -0.577823,1.186587 -0.07388,0.279346 -0.0785,0.579047 0.0086,0.857489 0.215424,0.688986 0.543771,1.342091 0.960207,1.930904 0.377295,0.53347 0.82869,1.02445 1.376308,1.38653 0.43887,0.29018 0.940855,0.45778 1.422771,0.65963 0.268,0.11225 0.526482,0.24654 0.772034,0.40259 0.801418,0.5093 1.587644,1.05286 2.454516,1.44735 0.568878,0.25888 1.189597,0.36228 1.794941,0.49918 0.467265,0.10567 0.944523,0.21934 1.358529,0.46592 0.291788,0.17379 0.550281,0.39683 0.804535,0.62023 0.708101,0.62216 1.367605,1.30204 2.120056,1.87163 0.269718,0.20417 0.546717,0.4102 0.864925,0.53141 0.144306,0.055 0.303357,0.083 0.457687,0.0467 0.434881,-0.10222 0.80775,-0.3788 1.103749,-0.70474 0.424029,-0.46692 0.733565,-1.02412 1.000623,-1.59173 0.468735,-0.99625 0.795056,-2.05012 1.189327,-3.0762 0.09127,-0.23753 0.186003,-0.4741 0.297246,-0.7031 z"
       id="path55"
       inkscape:path-effect="#path-effect57"
       inkscape:original-d="m 59.972503,102.18643 c -0.744644,-1.25563 -1.376884,-2.519699 -1.464141,-4.010954 -0.09427,-1.611067 -2.840654,-7.402444 -4.458959,-8.081762 -4.101664,-1.721752 -8.795007,1.654646 -10.692649,5.06856 -0.466251,0.838797 -1.700469,2.106715 -1.375402,3.192798 0.382839,1.279104 1.343935,2.793838 2.528965,3.472168 0.625967,0.35832 1.313608,0.50835 1.930005,0.89798 0.815181,0.51528 1.649138,1.09249 2.528964,1.49662 0.98919,0.45436 2.130185,0.43263 3.105746,0.93789 0.986361,0.51085 3.326183,3.30667 4.25931,3.11298 2.023814,-0.4201 2.858225,-4.48825 3.638161,-6.08628 z" />
    <path
       style="fill:none;stroke:#000000;stroke-width:0.264583px;stroke-linecap:butt;stroke-linejoin:miter;stroke-opacity:1"
       d="m 93.181809,45.5941 c -0.225548,0.07545 -0.461046,0.144696 -0.701401,0.132441 -0.131442,-0.0067 -0.269018,-0.05539 -0.350274,-0.164176 -0.09582,-0.128282 -0.112732,-0.295226 -0.113625,-0.450341 -0.0016,-0.271108 0.06548,-0.538694 0.05664,-0.809506 -0.003,-0.09142 -0.0042,-0.1992 -0.07419,-0.265151 -0.0658,-0.06199 -0.160303,-0.0792 -0.243688,-0.105666 -0.546908,-0.173612 -1.124775,-0.226625 -1.695913,-0.22773 -0.951359,-0.0018 -1.900402,0.126817 -2.825442,0.343654 -0.913348,0.214096 -1.81432,0.502795 -2.654443,0.923019 -0.515086,0.257643 -1.014064,0.561823 -1.43282,0.961152 -0.340173,0.324392 -0.565509,0.748787 -0.732625,1.182877 -0.264333,0.686616 -0.409338,1.413987 -0.489521,2.143376 -0.110494,1.005109 -0.113493,2.024323 0.01758,3.027194 0.08632,0.660453 0.216698,1.322707 0.477661,1.937827 0.112351,0.264824 0.237862,0.530901 0.42698,0.749174 0.187145,0.215995 0.404048,0.403893 0.62325,0.58619 0.59569,0.495399 1.219239,0.956613 1.856163,1.39726 0.488004,0.337619 0.982181,0.667252 1.493983,0.968121 0.125681,0.07388 0.257311,0.136558 0.387302,0.202329 0.212556,0.107546 0.400455,0.255882 0.580975,0.409777 0.167301,0.142625 0.34466,0.277656 0.548453,0.364824 0.170921,0.07311 0.355439,0.103909 0.538389,0.132093 0.346966,0.05345 0.692685,0.131674 1.045124,0.133691 0.131233,7.51e-4 0.262824,-0.01688 0.38728,-0.06243 0.360215,-0.131822 0.68671,-0.344725 0.970129,-0.601929 0.279452,-0.253604 0.513648,-0.550877 0.757807,-0.837393 0.411564,-0.482962 0.931334,-0.865805 1.31088,-1.376689 0.323168,-0.434997 0.567029,-0.923983 0.768205,-1.425408 0.353412,-0.880869 0.592151,-1.806125 0.733531,-2.743749 0.130919,-0.868246 0.192245,-1.752727 0.106367,-2.628157 -0.04407,-0.449191 -0.103644,-0.906254 -0.279702,-1.323203 -0.105338,-0.249466 -0.282998,-0.460716 -0.472928,-0.649928 -0.385705,-0.384248 -0.832242,-0.703811 -1.302894,-0.975015 -0.518456,-0.29875 -1.068239,-0.554772 -1.651353,-0.695513 -0.350338,-0.08456 -0.719232,-0.138123 -1.076546,-0.06802 -0.151923,0.02981 -0.300519,0.08492 -0.427837,0.174189"
       id="path59"
       inkscape:path-effect="#path-effect61"
       inkscape:original-d="m 93.181809,45.5941 c -1.950003,0.674169 -0.743175,-1.398852 -1.242295,-1.5964 -2.169216,-0.858555 -7.204004,0.27011 -8.873564,2.015452 -1.538507,1.608344 -1.61829,7.075562 -0.266211,8.899922 0.506624,0.683588 3.475479,2.775075 4.325864,3.172844 0.722087,0.337756 0.814718,0.823201 1.685977,0.937887 0.369536,0.04864 1.090467,0.222366 1.441956,0.09977 0.776814,-0.270947 1.241613,-0.798944 1.730338,-1.396841 0.435528,-0.532818 1.021675,-0.95608 1.419775,-1.516584 1.288727,-1.81447 2.043356,-5.862698 1.286669,-8.001947 -0.40549,-1.146368 -3.741881,-3.098088 -4.947013,-2.254914" />
    <path
       style="fill:none;stroke:#000000;stroke-width:0.264583px;stroke-linecap:butt;stroke-linejoin:miter;stroke-opacity:1"
       d="m 90.697205,34.738587 c 0.597657,0.938629 1.049093,1.959219 1.593749,2.927827 0.46318,0.823713 0.98881,1.633372 1.708441,2.258257 0.541398,0.470118 1.212205,0.789015 1.922617,0.901984 0.639274,0.101657 1.296793,0.04943 1.921162,-0.114326 0.379966,-0.09966 0.75517,-0.222246 1.1139,-0.382414 0.534358,-0.238584 0.995804,-0.627011 1.337016,-1.101843 0.52237,-0.726933 0.79189,-1.591789 1.21424,-2.373956 0.21865,-0.404931 0.46075,-0.811311 0.80595,-1.118397 0.31142,-0.277032 0.69348,-0.457428 1.07692,-0.610959 0.336,-0.134537 0.67278,-0.273147 1.02358,-0.361507 0.2464,-0.06206 0.49506,0.04223 0.70586,0.163242 0.32631,0.187328 0.62616,0.425197 0.98891,0.546618 0.72863,0.243893 1.49888,0.385238 2.17871,0.757896 0.31985,0.175329 0.55789,0.469173 0.89,0.625288 0.2626,0.123439 0.54653,0.19752 0.8317,0.244582 0.26477,0.0437 0.52805,0.09855 0.78116,0.192636 0.16157,0.06006 0.31227,0.145056 0.44944,0.249492 0.43335,0.329948 0.82726,0.707518 1.23415,1.068694 0.27821,0.246953 0.55584,0.495445 0.85256,0.720829 0.0823,0.06251 0.17836,0.10015 0.2799,0.12063 0.49012,0.09885 0.99614,0.04797 1.4838,-0.03819 0.91687,-0.161992 1.80077,-0.459929 2.69768,-0.70267 1.36639,-0.369801 2.75576,-0.714079 4.02979,-1.339299 0.34517,-0.16939 0.58824,-0.477287 0.83386,-0.761751 0.15852,-0.183586 0.34297,-0.344441 0.55071,-0.470479 0.48584,-0.294761 1.03298,-0.473661 1.58459,-0.597711 0.4816,-0.108305 0.97446,-0.159522 1.46843,-0.168996 0.8069,-0.01548 1.62171,-0.07547 2.39905,-0.307082 0.46758,-0.139321 0.92977,-0.311048 1.35172,-0.555581 0.24513,-0.14206 0.50245,-0.280552 0.69363,-0.491578 0.0585,-0.06455 0.1614,-0.152328 0.11543,-0.237667 -0.10821,-0.200879 -0.15993,-0.425699 -0.22931,-0.641727 -0.0614,-0.191266 -0.0712,-0.416784 -0.20607,-0.56708 -0.14733,-0.164157 -0.36176,-0.262677 -0.56371,-0.343532 -0.66451,-0.266051 -1.40218,-0.262959 -2.10064,-0.168584 -1.14772,0.155079 -2.25467,0.516262 -3.34327,0.899451 -1.68637,0.593603 -3.33217,1.310484 -5.05756,1.786601 -0.84703,0.233736 -1.72041,0.424508 -2.60484,0.395456 -0.49385,-0.01622 -0.9702,-0.158924 -1.43436,-0.31604 -0.55834,-0.188996 -1.10532,-0.413701 -1.62993,-0.684203 -0.28602,-0.147478 -0.531,-0.358549 -0.76834,-0.572907 -0.2785,-0.251531 -0.58992,-0.490393 -0.9622,-0.577546 -0.4371,-0.102327 -0.88389,-0.155175 -1.3235,-0.245085 -0.3648,-0.07461 -0.7402,-0.140866 -1.07297,-0.313016 -0.11712,-0.06059 -0.26615,-0.119661 -0.30829,-0.247884 -0.0509,-0.154938 -0.008,-0.326936 -0.0567,-0.480634 -0.26466,-0.838234 -0.56194,-1.674778 -1.01134,-2.434246 -0.19793,-0.334493 -0.43947,-0.641674 -0.7124,-0.918751 -0.76748,-0.779133 -1.63808,-1.453362 -2.56189,-2.03598 -0.95168,-0.600193 -1.96334,-1.123106 -3.04532,-1.443237 -0.62147,-0.183877 -1.27245,-0.283883 -1.92198,-0.240169 -1.065932,0.07174 -2.098064,0.413979 -3.051251,0.884322 -0.86738,0.428002 -1.661819,0.988284 -2.411639,1.598956 -0.466694,0.380087 -0.989082,0.70302 -1.370161,1.179291 -0.207356,0.259153 -0.338323,0.568204 -0.436168,0.883309 -0.117961,0.379886 -0.175301,0.778049 -0.319245,1.149364 -0.226317,0.583801 -0.658989,1.058772 -0.882243,1.645272 -0.340714,0.895072 -0.382365,1.873182 -0.733328,2.765028 z"
       id="path63"
       inkscape:path-effect="#path-effect65"
       inkscape:original-d="m 90.697205,34.738587 c 1.382916,2.146864 2.323949,5.634276 5.213228,6.086272 0.988528,0.154643 1.870731,-0.03785 2.817355,-0.399103 2.257832,-0.861626 2.083122,-3.086931 3.505052,-4.609603 0.46683,-0.499901 1.49107,-0.822264 2.12966,-1.037656 0.55867,-0.188436 1.08524,0.463418 1.64161,0.658516 0.74933,0.262761 1.50984,0.390586 2.21838,0.758288 0.48348,0.250902 0.61826,0.569365 1.19794,0.758291 0.70638,0.230222 0.91447,0.120443 1.55286,0.419052 0.54002,0.252592 2.16917,1.958271 2.52897,2.055365 1.09923,0.296633 2.84597,-0.326995 3.92656,-0.618606 1.45967,-0.393906 2.95352,-0.789599 4.34804,-1.416801 0.44941,-0.202126 0.70788,-0.629328 1.04265,-0.957842 0.68853,-0.67564 2.2864,-1.043475 3.26103,-1.057614 1.5182,-0.02201 2.49615,-0.147667 3.83782,-0.818155 0.15532,-0.07762 1.02668,-0.578885 0.88735,-0.798198 -0.134,-0.210928 -0.32595,-1.132334 -0.46586,-1.23721 -2.93842,-2.202672 -10.60506,3.39009 -14.26425,2.534282 -0.75127,-0.175704 -1.92669,-0.609962 -2.57334,-0.997746 -0.53501,-0.320836 -0.81588,-0.787889 -1.41976,-1.017707 -0.53232,-0.202586 -2.48808,-0.305911 -2.86173,-0.838107 -0.0569,-0.0811 -0.0459,-0.432893 -0.0666,-0.498877 -0.3313,-1.056534 -0.80235,-2.358057 -1.55287,-3.172841 -1.55729,-1.690651 -4.93284,-3.911177 -7.34287,-3.911177 -2.021719,0 -4.237152,1.149851 -5.723449,2.414553 -0.585962,0.498602 -1.232672,0.826855 -1.641612,1.516581 -0.28039,0.472914 -0.371335,1.111057 -0.532408,1.636305 -0.185177,0.60384 -0.644425,1.087864 -0.887368,1.676218 -0.380955,0.922594 -0.406995,1.929024 -0.776438,2.87352 z" />
    <path
       style="fill:none;stroke:#000000;stroke-width:0.264583px;stroke-linecap:butt;stroke-linejoin:miter;stroke-opacity:1"
       d="m 75.989277,60.671958 c -0.390793,-0.244206 -0.747829,-0.542774 -1.161475,-0.749731 -0.115225,-0.05765 -0.234629,-0.109066 -0.361853,-0.133977 -0.285208,-0.05584 -0.579916,-0.02781 -0.862232,0.0299 -0.46938,0.09594 -0.920659,0.265936 -1.354172,0.467135 -0.515935,0.239452 -1.016049,0.516335 -1.480395,0.845071 -0.238921,0.169145 -0.475015,0.347592 -0.669327,0.568319 -0.244944,0.278242 -0.457361,0.583895 -0.649043,0.900639 -0.229697,0.379561 -0.43887,0.774643 -0.584832,1.194277 -0.08249,0.237143 -0.15549,0.483382 -0.156981,0.736017 -9.84e-4,0.166731 0.02931,0.33272 0.07487,0.492549 0.115292,0.404462 0.355573,0.762631 0.642891,1.065299 0.379481,0.399755 0.833396,0.719347 1.297633,1.012471 0.509257,0.32155 1.041703,0.604397 1.551966,0.924247 0.15849,0.09935 0.312909,0.205357 0.458546,0.323004 0.327899,0.264879 0.635711,0.559387 1.001003,0.773737 0.212254,0.124549 0.449798,0.219185 0.699073,0.225238 0.124825,0.003 0.247592,-0.02562 0.366358,-0.06217 0.595461,-0.18321 1.133609,-0.52184 1.59993,-0.930068 0.634368,-0.55534 1.155602,-1.236668 1.542426,-1.984561 0.349636,-0.675993 0.596806,-1.412917 0.664135,-2.173554 0.05333,-0.602472 -0.01628,-1.224479 -0.262917,-1.78077 -0.16374,-0.369324 -0.395965,-0.714612 -0.703885,-0.976444 -0.237099,-0.201611 -0.523001,-0.336737 -0.814122,-0.440331 -0.500042,-0.177937 -1.026027,-0.277805 -1.554242,-0.319275 -0.486521,-0.0382 -0.980625,-0.03847 -1.460783,0.0551 -0.263103,0.05127 -0.527944,0.125909 -0.755345,0.272073 -0.14776,0.09497 -0.276995,0.233135 -0.323801,0.406543 -0.04483,0.16608 -0.0069,0.342712 0.06209,0.496471"
       id="path67"
       inkscape:path-effect="#path-effect69"
       inkscape:original-d="m 75.989277,60.671958 c -0.436282,-0.272719 -0.835718,-0.616 -1.308846,-0.818155 -1.137748,-0.486127 -3.747947,1.014153 -4.458962,1.71613 -0.585301,0.577858 -1.584793,2.226706 -1.508509,3.073071 0.159049,1.764554 2.547649,2.678219 3.793448,3.532027 0.610992,0.418742 1.373518,1.360839 2.196208,1.137433 C 77.51328,68.54922 80.04889,63.76394 77.697443,61.490113 76.54468,60.3754 72.056688,60.249405 72.794798,61.909168" />
    <path
       style="fill:none;stroke:#000000;stroke-width:0.264583px;stroke-linecap:butt;stroke-linejoin:miter;stroke-opacity:1"
       d="m 62.56802,78.391985 c -0.812155,0.07372 -1.602252,0.355911 -2.283516,0.80365 -0.833302,0.547661 -1.501216,1.337559 -1.919219,2.240895 -0.10099,0.218247 -0.191029,0.441337 -0.282534,0.663666 -0.275746,0.669981 -0.537057,1.351027 -0.685557,2.061853 -0.0889,0.42552 -0.142444,0.864828 -0.0897,1.298759 0.02807,0.230928 0.09775,0.455796 0.202054,0.664257 0.192757,0.385248 0.477954,0.723452 0.82644,0.977367 0.415886,0.303025 0.907153,0.484682 1.405221,0.599735 0.684064,0.158018 1.386386,0.208165 2.084165,0.265675 0.764036,0.06297 1.533471,0.119651 2.299323,0.05172 0.584233,-0.05182 1.161682,-0.19191 1.699255,-0.428609 0.452552,-0.199263 0.865033,-0.476162 1.263924,-0.767174 0.261256,-0.1906 0.542908,-0.350701 0.811263,-0.530744 0.205613,-0.137949 0.413952,-0.278887 0.579811,-0.464293 0.346314,-0.387129 0.64957,-0.823687 0.823766,-1.31677 0.134464,-0.380616 0.175706,-0.790471 0.140235,-1.191732 -0.04647,-0.525644 -0.20033,-1.034571 -0.376255,-1.52943 -0.196938,-0.553966 -0.401616,-1.106876 -0.661253,-1.635056 -0.249876,-0.508324 -0.563294,-0.992081 -0.974613,-1.385649 -0.384261,-0.367677 -0.852247,-0.639874 -1.348199,-0.827746 -0.42603,-0.161385 -0.870902,-0.270334 -1.320168,-0.341046 -0.256756,-0.04041 -0.518555,-0.07484 -0.778457,-0.04687 -0.15362,0.01653 -0.310102,0.06712 -0.423343,0.176951 -0.12438,0.120639 -0.193998,0.284591 -0.317398,0.406668 -0.139288,0.137795 -0.332104,0.205481 -0.522029,0.234512 -0.21231,0.03245 -0.427992,0.04089 -0.642496,0.03505 -0.329235,-0.009 -0.65459,-0.07741 -0.965716,-0.184924 -0.273985,-0.09468 -0.537531,-0.225725 -0.82522,-0.276347 -0.249341,-0.04387 -0.506284,-0.0062 -0.744764,0.07344 -0.111025,0.03706 -0.219138,0.08245 -0.324786,0.132728"
       id="path71"
       inkscape:path-effect="#path-effect73"
       inkscape:original-d="m 62.56802,78.391985 c -1.951961,0.181033 -3.557153,1.481891 -4.303683,3.272618 -0.454223,1.089567 -1.363051,3.157241 -0.798618,4.370146 0.729702,1.568056 2.40026,1.762414 3.926551,1.895711 2.21343,0.193307 3.814006,0.334568 5.6569,-1.077564 0.403905,-0.309496 1.099691,-0.652824 1.441953,-1.037664 1.335976,-1.502171 1.074264,-2.66954 0.465862,-4.330218 -0.721913,-1.970524 -1.419195,-3.257365 -3.638161,-3.7715 -2.555433,-0.592098 -1.344395,0.551111 -2.750804,0.678471 -1.829366,0.165663 -1.928376,-0.916345 -3.34977,-0.239467" />
    <path
       style="fill:none;stroke:#000000;stroke-width:0.264583px;stroke-linecap:butt;stroke-linejoin:miter;stroke-opacity:1"
       d="m 111.70538,6.813456 c -0.3296,-0.5609195 -0.83882,-1.0025948 -1.4153,-1.2972066 -0.74846,-0.3825031 -1.59553,-0.5440745 -2.43152,-0.5455261 -0.99814,-0.00173 -2.0006,0.2095787 -2.9016,0.6417032 -0.71892,0.344799 -1.37814,0.8422619 -1.84085,1.498096 -0.28563,0.4048427 -0.48082,0.8712312 -0.57537,1.3576908 -0.0957,0.4923208 -0.14859,0.992786 -0.16524,1.4937645 -0.0141,0.4231102 -0.0109,0.8495552 0.058,1.2681542 0.0262,0.159325 0.064,0.318336 0.13651,0.463873 0.15208,0.30532 0.39946,0.545774 0.60328,0.815139 0.14154,0.187059 0.26593,0.399054 0.29415,0.63531 0.0264,0.220655 0.007,0.443912 -0.0198,0.663476 -0.0622,0.502487 -0.18375,0.999589 -0.18561,1.508075 -0.001,0.278481 0.0423,0.563543 0.17473,0.812201 0.20892,0.392402 0.55375,0.693588 0.92318,0.930451 0.56725,0.363693 1.20023,0.612054 1.84233,0.807619 1.05379,0.320953 2.14233,0.516782 3.23548,0.641535 1.14753,0.130959 2.30446,0.198663 3.45909,0.158446 0.52026,-0.01812 1.0473,-0.02468 1.55502,-0.142737 0.16718,-0.03888 0.31597,-0.131607 0.45268,-0.231843 0.29186,-0.213993 0.54998,-0.46993 0.79652,-0.733716 0.11254,-0.12041 0.29308,-0.207354 0.33026,-0.367915 0.0169,-0.0729 0.0219,-0.148387 0.0288,-0.222861 0.0636,-0.676403 0.11625,-1.353847 0.15956,-2.031816 0.0211,-0.329987 0.0601,-0.659774 0.056,-0.990467 -0.002,-0.186081 -0.0305,-0.371137 -0.0692,-0.552865 -0.0787,-0.370321 -0.20666,-0.731567 -0.23479,-1.11168 -0.0159,-0.214449 0.007,-0.429588 0.0453,-0.640896 0.0809,-0.445481 0.044,-0.913263 -0.11977,-1.336833 -0.18884,-0.4884983 -0.53368,-0.903108 -0.93583,-1.2322583 -0.5177,-0.4237238 -1.12879,-0.7157414 -1.75406,-0.9468355 -0.30615,-0.1131508 -0.64386,-0.106241 -0.94545,-0.2337592 -0.14059,-0.059443 -0.27173,-0.1554975 -0.34447,-0.2930871 -0.098,-0.185385 -0.11701,-0.3977094 -0.16138,-0.5994383 -0.0136,-0.062064 -0.0293,-0.1239888 -0.0507,-0.1837936 z"
       id="path75"
       inkscape:path-effect="#path-effect77"
       inkscape:original-d="m 111.70538,6.813456 c -1.82818,-3.0850371 -8.32904,-2.1098515 -9.13978,1.5365365 -0.18028,0.8108468 -0.28992,2.2786375 -0.0887,3.0930215 0.16945,0.685922 0.95033,1.057184 0.99828,1.775992 0.0567,0.850789 -0.45456,2.047195 -0.0665,2.853563 1.14926,2.38842 8.50633,2.907631 11.02539,2.454464 0.50219,-0.09034 1.30833,-1.004921 1.59724,-1.336987 0.0332,-0.03813 0.25683,-3.039226 0.24403,-3.292568 -0.0422,-0.834553 -0.43786,-1.31947 -0.26621,-2.215004 0.35275,-1.8403871 -1.22667,-3.0221555 -2.83954,-3.5719411 -0.37452,-0.1276633 -0.83521,-0.096813 -1.13138,-0.3591928 -0.2483,-0.2199685 -0.22184,-0.6252559 -0.33275,-0.9378841 z" />
  </g>
</svg>
