<?xml version="1.0" encoding="UTF-8" standalone="no"?>
<!-- Created with Inkscape (http://www.inkscape.org/) -->

<svg
   width="353.56799mm"
   height="264.16mm"
   viewBox="0 0 353.56799 264.16"
   version="1.1"
   id="svg5"
   inkscape:version="1.1.2 (08b2f3d93c, 2022-04-05)"
   sodipodi:docname="SistemaDeHarvers.svg"
   xmlns:inkscape="http://www.inkscape.org/namespaces/inkscape"
   xmlns:sodipodi="http://sodipodi.sourceforge.net/DTD/sodipodi-0.dtd"
   xmlns="http://www.w3.org/2000/svg"
   xmlns:svg="http://www.w3.org/2000/svg">
  <sodipodi:namedview
     id="namedview7"
     pagecolor="#ffffff"
     bordercolor="#666666"
     borderopacity="1.0"
     inkscape:pageshadow="2"
     inkscape:pageopacity="0.0"
     inkscape:pagecheckerboard="0"
     inkscape:document-units="mm"
     showgrid="false"
     inkscape:zoom="0.38581989"
     inkscape:cx="632.41945"
     inkscape:cy="449.6917"
     inkscape:window-width="1366"
     inkscape:window-height="704"
     inkscape:window-x="0"
     inkscape:window-y="27"
     inkscape:window-maximized="1"
     inkscape:current-layer="layer2" />
  <defs
     id="defs2">
    <inkscape:path-effect
       effect="simplify"
       id="path-effect137"
       is_visible="true"
       lpeversion="1"
       steps="1"
       threshold="0.000408163"
       smooth_angles="360"
       helper_size="0"
       simplify_individual_paths="false"
       simplify_just_coalesce="false" />
    <inkscape:path-effect
       effect="simplify"
       id="path-effect133"
       is_visible="true"
       lpeversion="1"
       steps="1"
       threshold="0.000408163"
       smooth_angles="360"
       helper_size="0"
       simplify_individual_paths="false"
       simplify_just_coalesce="false" />
    <inkscape:path-effect
       effect="simplify"
       id="path-effect129"
       is_visible="true"
       lpeversion="1"
       steps="1"
       threshold="0.000408163"
       smooth_angles="360"
       helper_size="0"
       simplify_individual_paths="false"
       simplify_just_coalesce="false" />
    <inkscape:path-effect
       effect="simplify"
       id="path-effect125"
       is_visible="true"
       lpeversion="1"
       steps="1"
       threshold="0.000408163"
       smooth_angles="360"
       helper_size="0"
       simplify_individual_paths="false"
       simplify_just_coalesce="false" />
    <inkscape:path-effect
       effect="simplify"
       id="path-effect121"
       is_visible="true"
       lpeversion="1"
       steps="1"
       threshold="0.000408163"
       smooth_angles="360"
       helper_size="0"
       simplify_individual_paths="false"
       simplify_just_coalesce="false" />
    <inkscape:path-effect
       effect="simplify"
       id="path-effect117"
       is_visible="true"
       lpeversion="1"
       steps="1"
       threshold="0.000408163"
       smooth_angles="360"
       helper_size="0"
       simplify_individual_paths="false"
       simplify_just_coalesce="false" />
    <inkscape:path-effect
       effect="simplify"
       id="path-effect113"
       is_visible="true"
       lpeversion="1"
       steps="1"
       threshold="0.000408163"
       smooth_angles="360"
       helper_size="0"
       simplify_individual_paths="false"
       simplify_just_coalesce="false" />
    <inkscape:path-effect
       effect="simplify"
       id="path-effect109"
       is_visible="true"
       lpeversion="1"
       steps="1"
       threshold="0.000408163"
       smooth_angles="360"
       helper_size="0"
       simplify_individual_paths="false"
       simplify_just_coalesce="false" />
    <inkscape:path-effect
       effect="simplify"
       id="path-effect105"
       is_visible="true"
       lpeversion="1"
       steps="1"
       threshold="0.000408163"
       smooth_angles="360"
       helper_size="0"
       simplify_individual_paths="false"
       simplify_just_coalesce="false" />
    <inkscape:path-effect
       effect="simplify"
       id="path-effect101"
       is_visible="true"
       lpeversion="1"
       steps="1"
       threshold="0.000408163"
       smooth_angles="360"
       helper_size="0"
       simplify_individual_paths="false"
       simplify_just_coalesce="false" />
    <inkscape:path-effect
       effect="simplify"
       id="path-effect97"
       is_visible="true"
       lpeversion="1"
       steps="1"
       threshold="0.000408163"
       smooth_angles="360"
       helper_size="0"
       simplify_individual_paths="false"
       simplify_just_coalesce="false" />
    <inkscape:path-effect
       effect="simplify"
       id="path-effect93"
       is_visible="true"
       lpeversion="1"
       steps="1"
       threshold="0.000408163"
       smooth_angles="360"
       helper_size="0"
       simplify_individual_paths="false"
       simplify_just_coalesce="false" />
    <inkscape:path-effect
       effect="simplify"
       id="path-effect89"
       is_visible="true"
       lpeversion="1"
       steps="1"
       threshold="0.000408163"
       smooth_angles="360"
       helper_size="0"
       simplify_individual_paths="false"
       simplify_just_coalesce="false" />
    <inkscape:path-effect
       effect="simplify"
       id="path-effect85"
       is_visible="true"
       lpeversion="1"
       steps="1"
       threshold="0.000408163"
       smooth_angles="360"
       helper_size="0"
       simplify_individual_paths="false"
       simplify_just_coalesce="false" />
    <inkscape:path-effect
       effect="simplify"
       id="path-effect81"
       is_visible="true"
       lpeversion="1"
       steps="1"
       threshold="0.000408163"
       smooth_angles="360"
       helper_size="0"
       simplify_individual_paths="false"
       simplify_just_coalesce="false" />
    <inkscape:path-effect
       effect="simplify"
       id="path-effect77"
       is_visible="true"
       lpeversion="1"
       steps="1"
       threshold="0.000408163"
       smooth_angles="360"
       helper_size="0"
       simplify_individual_paths="false"
       simplify_just_coalesce="false" />
    <inkscape:path-effect
       effect="simplify"
       id="path-effect73"
       is_visible="true"
       lpeversion="1"
       steps="1"
       threshold="0.000408163"
       smooth_angles="360"
       helper_size="0"
       simplify_individual_paths="false"
       simplify_just_coalesce="false" />
    <inkscape:path-effect
       effect="simplify"
       id="path-effect69"
       is_visible="true"
       lpeversion="1"
       steps="1"
       threshold="0.000408163"
       smooth_angles="360"
       helper_size="0"
       simplify_individual_paths="false"
       simplify_just_coalesce="false" />
    <inkscape:path-effect
       effect="simplify"
       id="path-effect65"
       is_visible="true"
       lpeversion="1"
       steps="1"
       threshold="0.000408163"
       smooth_angles="360"
       helper_size="0"
       simplify_individual_paths="false"
       simplify_just_coalesce="false" />
    <inkscape:path-effect
       effect="simplify"
       id="path-effect61"
       is_visible="true"
       lpeversion="1"
       steps="1"
       threshold="0.000408163"
       smooth_angles="360"
       helper_size="0"
       simplify_individual_paths="false"
       simplify_just_coalesce="false" />
    <inkscape:path-effect
       effect="simplify"
       id="path-effect57"
       is_visible="true"
       lpeversion="1"
       steps="1"
       threshold="0.000408163"
       smooth_angles="360"
       helper_size="0"
       simplify_individual_paths="false"
       simplify_just_coalesce="false" />
  </defs>
  <g
     inkscape:groupmode="layer"
     id="layer2"
     inkscape:label="Sistema de Harvers">
    <path
       style="fill:none;stroke:#000000;stroke-width:0.264583px;stroke-linecap:butt;stroke-linejoin:miter;stroke-opacity:1"
       d="m 231.40957,137.1948 c 0.19727,-0.35208 0.17644,-0.78092 0.044,-1.15406 -0.19888,-0.56047 -0.6066,-1.02745 -0.75933,-1.60568 -0.1519,-0.5751 0.23709,-1.15203 0.0665,-1.72136 -0.0803,-0.26783 -0.22745,-0.50985 -0.37276,-0.74654 -0.69309,-1.12892 -1.6841,-2.02548 -2.54245,-3.02254 -0.63394,-0.73639 -0.91579,-1.6831 -1.37686,-2.52273 -0.44433,-0.80914 -1.22338,-1.37433 -1.64006,-2.20232 -0.48267,-0.95912 -0.54441,-2.08726 -1.12966,-2.99911 -0.2844,-0.44311 -0.68071,-0.80081 -1.09195,-1.12264 -0.84768,-0.66337 -1.80152,-1.18465 -2.79923,-1.58739 -0.82026,-0.33111 -1.7245,-0.40889 -2.52517,-0.7904 -0.65872,-0.31387 -1.13289,-0.88999 -1.59229,-1.43697 -0.412,-0.49054 -0.88886,-0.94079 -1.47586,-1.22011 -0.9979,-0.47484 -2.07665,-0.76429 -3.05438,-1.28125 -0.90992,-0.48111 -1.70247,-1.15259 -2.62455,-1.61562 -1.2755,-0.6405 -2.67035,-0.98012 -4.04908,-1.31909 -0.3018,-0.0742 -0.60509,-0.14316 -0.89366,-0.26392 -0.26554,-0.11112 -0.53937,-0.20535 -0.83091,-0.22964 -1.47067,-0.12253 -2.95344,0.002 -4.42024,-0.16833 -1.01993,-0.11872 -1.98366,-0.56568 -3.00869,-0.61677 -0.51707,-0.0258 -1.0328,0.055 -1.54018,0.14414 -1.30828,0.2298 -2.59943,0.55062 -3.87554,0.91836 -0.54679,0.15757 -1.08033,0.35821 -1.59532,0.60082 -1.633,0.76932 -3.14084,1.80892 -4.43357,3.06765 -0.78266,0.76207 -1.6133,1.54645 -2.04781,2.55155 -0.16862,0.39005 -0.24241,0.81266 -0.32769,1.22659 -0.15877,0.77066 -0.23817,1.56252 -0.48647,2.31019 -0.56826,1.7111 -1.39793,3.33276 -1.83674,5.08612 -0.11477,0.45859 -0.2382,0.92128 -0.26036,1.39471 -0.0251,0.53678 0.022,1.07578 -0.0725,1.61082 -0.23085,1.30686 -0.60475,2.58359 -0.82949,3.89163 -0.21789,1.2682 -0.23116,2.56562 -0.0929,3.84373 0.14213,1.3141 0.32178,2.63064 0.66863,3.90708 0.14453,0.53189 0.27438,1.0845 0.57202,1.55288 0.62379,0.98162 1.65202,1.62191 2.26102,2.61712 0.81039,1.32431 1.04102,2.90992 1.84573,4.23784 0.42375,0.69926 1.03075,1.26132 1.63618,1.80062 0.59061,0.5261 1.22541,1.00585 1.77179,1.57907 0.6135,0.64364 1.11663,1.40206 1.85248,1.92153 1.06817,0.75407 2.37323,1.05064 3.49365,1.70651 0.96022,0.56209 1.73932,1.38719 2.74043,1.8904 0.84615,0.42532 1.69031,0.85392 2.53919,1.27454 0.84722,0.4198 1.81002,0.44111 2.71314,0.66903 0.49787,0.12565 0.95026,0.37779 1.37467,0.66041 0.45825,0.30516 0.93074,0.59978 1.46057,0.76763 1.06257,0.33663 2.19336,0.32352 3.2658,0.62806 1.4494,0.41159 2.90761,0.83412 4.4141,0.97764 1.11514,0.10624 2.23776,0.0593 3.35555,0.10946 0.43342,0.0194 0.88464,0.14075 1.30611,-0.003 1.16813,-0.39951 2.25787,-0.98672 3.4011,-1.44878 1.14376,-0.46227 2.28454,-0.96148 3.29525,-1.68285 1.94834,-1.39058 3.75886,-3.01916 5.14141,-4.98374 0.49814,-0.70785 1.06466,-1.41159 1.30018,-2.24511 0.10271,-0.36349 0.0274,-0.74851 0.1458,-1.11302 0.35605,-1.09612 0.7443,-2.18438 1.22028,-3.23346 0.52407,-1.15508 1.41043,-2.09884 1.9409,-3.25155 0.18207,-0.39564 0.27721,-0.8241 0.32534,-1.25604 0.0944,-0.84705 0.0612,-1.72586 0.37776,-2.53272 0.0683,-0.17398 0.15415,-0.33989 0.28502,-0.47874 0.25744,-0.27313 0.88309,-0.42247 0.80289,-0.78877 -0.0787,-0.35967 -0.31169,-0.69676 -0.25033,-1.07853 0.0194,-0.12096 0.0655,-0.2363 0.1249,-0.34297"
       id="path55"
       inkscape:path-effect="#path-effect57"
       inkscape:original-d="m 231.40957,137.1948 c 0.58959,-1.11901 -0.73292,-2.08937 -0.75252,-3.02352 -0.0122,-0.58209 0.30429,-1.09763 0.0251,-1.66969 -0.65263,-1.33717 -1.80908,-2.41195 -2.7843,-3.49735 -0.75622,-0.84164 -0.99186,-1.955 -1.60536,-2.86557 -0.37237,-0.55266 -0.88441,-1.00248 -1.2542,-1.55688 -0.76742,-1.15053 -0.69218,-2.70973 -1.63044,-3.74554 -0.99102,-1.09404 -2.80388,-2.11668 -4.189,-2.52711 -0.60514,-0.17931 -1.61979,-0.36719 -2.18229,-0.72203 -1.10968,-0.70003 -1.51982,-1.89272 -2.73413,-2.48199 -0.93646,-0.45444 -1.94012,-0.75843 -2.88464,-1.19587 -0.93006,-0.43073 -1.70529,-1.11912 -2.60872,-1.60201 -1.55562,-0.83148 -3.11917,-1.1669 -4.81609,-1.57944 -0.29428,-0.0716 -0.74517,-0.32999 -1.0786,-0.36102 -1.44598,-0.13456 -2.89494,-0.038 -4.3395,-0.15794 -1.11627,-0.0927 -2.07744,-0.48022 -3.16056,-0.63178 -1.08658,-0.15204 -5.24866,0.89795 -6.39637,1.35381 -2.67835,1.06382 -5.65866,3.35306 -7.14888,5.86651 -0.30573,0.51564 -0.57625,2.81391 -0.87794,3.70041 -0.67494,1.98329 -1.7092,3.98035 -2.03178,6.06959 -0.0899,0.58241 0.0282,1.17453 -0.0753,1.75995 -0.46189,2.61511 -1.1476,4.09476 -1.02844,6.88188 0.0637,1.48892 0.60105,5.38021 1.35453,6.52085 0.5958,0.90195 1.53659,1.51126 2.13212,2.41429 1.02749,1.55804 1.15151,3.57009 2.40804,5.03168 0.79865,0.92897 1.81856,1.67016 2.70905,2.50455 0.63354,0.59363 1.09774,1.32962 1.75587,1.89532 1.03289,0.88781 2.48509,1.24346 3.66224,1.87279 0.97462,0.52105 1.77218,1.40299 2.73413,1.89532 0.87939,0.45008 1.73981,0.83608 2.60872,1.30868 1.00808,0.54831 2.23701,0.44686 3.28598,0.87999 0.71005,0.29318 1.22964,0.79427 1.93145,1.1056 1.11995,0.49682 2.38037,0.41262 3.53682,0.74461 3.34806,0.96113 4.11509,1.12817 7.80106,1.12817 0.42571,0 1.01038,0.14225 1.42977,0 1.05882,-0.35912 2.07316,-0.91139 3.11039,-1.33124 1.11958,-0.45319 2.34192,-0.93274 3.33615,-1.62459 2.66701,-1.85588 5.27164,-4.3319 6.67229,-7.3557 0.11293,-0.24382 0.0428,-0.77561 0.12541,-1.03792 0.33235,-1.05514 0.78673,-2.20053 1.20402,-3.22658 0.56892,-1.39884 1.98474,-2.72404 2.25755,-4.19681 0.20535,-1.10858 0.0342,-2.22017 0.57693,-3.27171 0.0825,-0.15992 0.9565,-0.95631 0.95319,-0.97023 -0.12449,-0.52258 -0.44081,-0.85409 -0.12543,-1.4215" />
    <path
       style="fill:none;stroke:#000000;stroke-width:0.264583px;stroke-linecap:butt;stroke-linejoin:miter;stroke-opacity:1"
       d="m 160.97425,15.575518 c -2.06278,1.823956 -3.71593,4.050465 -5.25311,6.32065 -0.48292,0.713199 -0.94466,1.440871 -1.46075,2.131452 -0.87543,1.171422 -1.83253,2.312297 -2.40685,3.671206 -0.61337,1.451313 -0.93897,3.006171 -1.16386,4.5592 -0.3733,2.577928 -0.49178,5.187909 -0.46036,7.790908 0.0104,0.865613 0.0541,1.730837 0.15209,2.591399 0.10008,0.878675 0.17771,1.760117 0.18914,2.645774 0.0157,1.216309 -0.0428,2.440394 0.17454,3.645983 0.0888,0.492598 0.24208,0.970069 0.35885,1.455987 0.12306,0.512093 0.19503,1.076955 0.55764,1.48496 0.41083,0.462266 1.06712,0.609573 1.47829,1.064468 0.46299,0.512225 0.84026,1.096257 1.18599,1.691167 0.28775,0.495141 0.60031,0.984933 0.79057,1.527084 0.98178,2.797603 2.00656,5.594279 3.43538,8.20544 0.628,1.147664 1.62283,2.028796 2.30901,3.139482 0.66194,1.071448 1.305,2.167438 2.13539,3.117546 0.28919,0.330884 0.57896,0.692408 0.98427,0.879672 0.93479,0.431895 2.01042,0.414604 2.93383,0.881802 0.32529,0.16458 0.76917,0.201289 0.97038,0.505798 0.0536,0.08118 -0.19699,-0.02392 -0.24551,-0.03055 -0.12112,-0.01657 -0.47989,-0.136921 -0.3974,-0.06456 0.20431,0.179228 0.45111,0.30488 0.69226,0.427281 0.42764,0.21706 0.83853,0.482272 1.30937,0.60055 0.84703,0.21278 1.73108,0.19566 2.57416,0.449765 0.41868,0.126191 0.80653,0.32968 1.18894,0.539422 0.66861,0.36671 1.38378,0.641481 2.11754,0.847267 1.6148,0.452879 3.26422,0.781279 4.92525,1.004797 0.92777,0.124846 1.86096,0.262768 2.79875,0.242781 1.42845,-0.03045 2.80048,-0.49394 4.1188,-1.006509 1.04626,-0.406792 2.0908,-0.820561 3.16718,-1.144431 1.86521,-0.561219 3.79842,-0.974657 5.53613,-1.882352 0.68466,-0.357634 1.3936,-0.735014 1.89952,-1.321715 0.43934,-0.509489 0.78042,-1.094717 1.11253,-1.676713 1.09146,-1.912716 2.08496,-3.881201 2.99511,-5.885727 0.43149,-0.950322 0.89557,-1.891268 1.22162,-2.883744 0.37221,-1.132985 0.34597,-2.338127 0.43837,-3.513413 0.0561,-0.713976 0.20662,-1.41785 0.4417,-2.096865 0.37036,-1.069772 0.82798,-2.109244 1.14499,-3.197375 0.31499,-1.081188 0.36988,-2.21878 0.31011,-3.338687 -0.0352,-0.659208 -0.10716,-1.318725 -0.27526,-1.959195 -0.35009,-1.333868 -0.84042,-2.619381 -1.32412,-3.911038 -0.31914,-0.852216 -0.2423,-1.78128 -0.47249,-2.655616 -0.46103,-1.751165 -1.24148,-3.398663 -2.09257,-4.989753 -1.14864,-2.147347 -2.54997,-4.146632 -3.76529,-6.254839 -0.57461,-0.996772 -0.74747,-2.164366 -1.32752,-3.161827 -0.63082,-1.084762 -1.41027,-2.075383 -2.00238,-3.185133 -1.01015,-1.893237 -1.91738,-3.859517 -3.22366,-5.575823 -1.2541,-1.647746 -2.79374,-3.049251 -4.12759,-4.627784 -0.69702,-0.824884 -1.03157,-1.898346 -1.79448,-2.6760908 -0.5392,-0.5496866 -1.16039,-1.0082016 -1.70466,-1.5542348 -1.09069,-1.094223 -2.12808,-2.2753195 -3.44911,-3.1021117 -0.92254,-0.5773895 -1.9805,-0.9763022 -3.07053,-1.0271511 -1.11336,-0.051937 -2.2286,0.04636 -3.33135,0.1908619 -1.47095,0.1927491 -2.94285,0.4400696 -4.35995,0.8863528 -0.55637,0.1752158 -1.09632,0.4072453 -1.58451,0.7337595 -1.18406,0.7919228 -2.16638,1.8640423 -3.39271,2.5878746 -0.41593,0.2454987 -0.92401,0.2986755 -1.30374,0.6178183 -0.73324,0.6162548 -1.35863,1.3534493 -1.90556,2.1359693 -0.43088,0.616485 -0.87671,1.241895 -1.12969,1.952821 -0.1004,0.28214 -0.21273,0.580038 -0.17949,0.885792 0.0231,0.212396 0.27791,0.345385 0.21453,0.576367 -0.0475,0.173136 -0.15843,0.320342 -0.26312,0.463021"
       id="path59"
       inkscape:path-effect="#path-effect61"
       inkscape:original-d="m 160.97425,15.575518 c -2.36926,2.091156 -4.24499,4.769792 -5.96994,7.400835 -0.95598,1.458124 -2.18042,2.739032 -2.95989,4.309628 -1.68409,3.39334 -1.94154,10.188403 -1.78095,13.944254 0.0518,1.211881 0.27767,2.39309 0.301,3.610162 0.0447,2.33393 -0.1478,3.149375 0.47659,5.30243 0.14316,0.493639 0.21037,1.201251 0.55185,1.647137 0.35128,0.458687 0.95025,0.658604 1.40469,1.015357 0.55103,0.432578 1.86685,2.632671 2.10704,3.316836 1.00649,2.866998 1.99607,5.760352 3.53682,8.393628 0.60461,1.033333 1.50297,1.82155 2.13212,2.843001 0.57076,0.92665 2.22726,3.674565 3.18564,4.129122 0.90584,0.429633 1.96747,0.41053 2.88464,0.857416 3.06798,1.494846 -1.84746,-0.640244 1.83112,1.263552 0.83576,0.432536 2.01118,0.317233 2.90972,0.586656 1.19414,0.358055 1.04137,0.493678 2.30771,1.037915 1.89683,0.815205 7.0266,1.696101 8.90475,1.669701 2.17253,-0.03054 4.20074,-1.076804 6.1957,-1.782511 2.79419,-0.988433 6.1907,-1.41699 8.47832,-3.474789 1.12809,-1.014762 4.96938,-9.001281 5.46827,-10.672538 0.5155,-1.726916 0.15896,-3.526197 0.75252,-5.234733 1.06973,-3.079208 1.83051,-3.977296 1.47994,-7.581342 -0.17331,-1.781704 -1.09173,-3.345455 -1.53011,-5.054227 -0.30437,-0.78985 -0.2343,-1.649867 -0.42643,-2.459418 -0.86563,-3.647385 -3.86006,-8.191257 -5.84452,-11.34945 -0.58316,-0.928069 -0.74832,-2.103864 -1.27927,-3.068639 -0.60061,-1.091327 -1.38897,-2.042768 -1.98163,-3.136329 -1.05791,-1.952038 -1.94373,-3.948803 -3.28598,-5.731133 -1.24369,-1.651463 -2.72881,-3.110386 -4.11374,-4.625518 -0.63235,-0.691808 -0.96523,-1.62193 -1.53011,-2.36917 -0.51099,-0.675953 -1.25911,-1.1667374 -1.8562,-1.7599549 -1.90725,-1.8948665 -3.43584,-3.8526939 -6.29604,-4.2870675 -1.87209,-0.284311 -7.74073,0.5421323 -9.40642,1.5794471 -1.25906,0.7840803 -2.3883,1.8862318 -3.61207,2.7301859 -0.38209,0.263502 -0.92715,0.3131 -1.27927,0.5866503 -0.83023,0.6449724 -1.80647,1.8678191 -2.38296,2.7753131 -0.35844,0.564249 -0.81979,1.336988 -0.9281,2.008151 -0.11406,0.706775 0.59292,0.460255 -0.0502,1.308681" />
    <path
       style="fill:none;stroke:#000000;stroke-width:0.264583px;stroke-linecap:butt;stroke-linejoin:miter;stroke-opacity:1"
       d="m 298.35956,16.049353 c -1.30347,0.352226 -2.66196,0.423959 -3.97164,0.750317 -0.80587,0.200814 -1.59031,0.531101 -2.23329,1.071906 -0.70277,0.591091 -1.32828,1.268316 -2.07582,1.810312 -0.83809,0.607647 -1.75648,1.088297 -2.66028,1.587911 -0.81763,0.451978 -1.57574,1.018279 -2.20335,1.712954 -0.75073,0.830948 -1.40849,1.75328 -1.89193,2.766771 -0.96741,2.02808 -1.38627,4.277909 -2.44818,6.264285 -0.53533,1.001372 -1.37465,1.785289 -2.19939,2.548029 -0.38399,0.355122 -0.86833,0.635564 -1.13305,1.086807 -0.23832,0.406242 -0.36278,0.867302 -0.48643,1.318165 -0.39657,1.445963 -0.73703,2.909571 -0.9731,4.389822 -0.0852,0.53448 -0.16582,1.069965 -0.29593,1.596309 -0.24577,0.994263 -0.53574,1.980908 -0.65415,3.002445 -0.18317,1.580177 -0.27577,3.173042 -0.24359,4.762844 0.0107,0.527096 -0.0181,1.061113 0.0764,1.58066 0.13429,0.737834 0.48567,1.408154 0.67834,2.131171 0.51326,1.926103 0.97757,3.873683 1.72112,5.727491 0.44407,1.107146 0.90567,2.207388 1.37741,3.303007 1.08657,2.523554 2.28758,5.036864 4.01472,7.192498 2.60465,3.250848 5.96081,5.828136 9.55315,7.899013 4.62439,2.66582 9.70129,4.403629 14.77904,6.015064 1.56658,0.497157 2.77542,1.745166 4.36834,2.179337 0.6608,0.18011 1.35082,0.20324 2.02955,0.259711 9.30368,0.774071 18.82035,-1.007198 27.17524,-5.195881 1.63126,-0.817824 3.16435,-1.811852 4.74132,-2.729113 1.27196,-0.739851 2.78948,-0.959787 4.00602,-1.806269 0.80951,-0.563266 1.30443,-1.450766 1.69893,-2.329666 0.41473,-0.923971 0.83775,-1.848564 1.38997,-2.701715 0.58923,-0.910335 1.39459,-1.654937 2.26071,-2.298632 0.34128,-0.253637 0.69061,-0.496237 1.04178,-0.73591"
       id="path67"
       inkscape:path-effect="#path-effect69"
       inkscape:original-d="m 298.35956,16.049353 c -1.74366,0.495594 -4.33221,0.438508 -5.8947,1.579447 -0.75486,0.551206 -1.357,1.292467 -2.10704,1.850209 -2.69256,2.002199 -4.01886,1.700613 -6.24586,4.896283 -1.51172,2.169253 -1.93569,5.076322 -3.13547,7.445957 -0.84886,1.676517 -2.12802,2.481877 -3.38632,3.768106 -0.49327,0.504203 -1.44045,5.193342 -1.58028,6.227535 -0.15727,1.163018 -0.57769,2.291509 -0.77761,3.452212 -0.29453,1.710137 -0.41563,5.027811 -0.30099,6.746491 0.0509,0.763532 0.45492,1.458098 0.65217,2.188668 0.65514,2.426628 1.06365,4.262633 2.05687,6.633673 1.40417,3.352032 2.814,6.934933 5.1171,9.815123 5.7323,7.168631 15.62848,11.465438 24.20585,13.876565 1.80652,0.50782 3.18892,2.130912 5.16729,2.3466 11.57049,1.261451 23.39623,-1.383056 33.11059,-7.694155 1.36295,-0.885446 3.44464,-1.120417 4.61545,-2.278919 0.89286,-0.883473 1.31154,-2.169324 1.85621,-3.271705 1.09058,-2.207284 2.04763,-3.030363 4.08866,-4.422447" />
    <path
       style="fill:none;stroke:#000000;stroke-width:0.264583px;stroke-linecap:butt;stroke-linejoin:miter;stroke-opacity:1"
       d="m 354.9737,42.65174 c 0.3044,-0.430261 0.4997,-0.931919 0.61016,-1.444511 0.11702,-0.543043 0.14947,-1.124373 -0.0335,-1.657352 -0.11187,-0.325851 -0.33815,-0.605355 -0.62662,-0.795269 -0.29121,-0.191719 -0.64742,-0.326836 -0.8319,-0.640981 -0.11377,-0.193738 -0.1532,-0.41943 -0.19841,-0.636236 -0.20171,-0.967218 -0.12873,-1.975154 -0.40784,-2.929252 -0.18897,-0.64597 -0.52253,-1.255534 -0.98863,-1.73952 -0.52245,-0.542497 -1.21437,-0.865512 -1.85267,-1.246251 -0.75868,-0.452543 -1.44687,-1.009634 -2.15106,-1.540066 -0.70372,-0.530078 -1.43878,-1.025674 -2.24125,-1.397325 -2.09177,-0.968766 -4.39266,-1.417336 -6.43829,-2.489762 -0.52167,-0.273486 -1.03747,-0.558032 -1.55936,-0.831264 -1.53468,-0.803472 -3.11111,-1.528643 -4.61822,-2.38304 -1.26729,-0.718441 -2.29617,-1.794331 -3.59705,-2.458806 -0.32594,-0.166486 -0.66824,-0.300974 -1.02471,-0.388576 -1.02391,-0.251626 -2.07226,-0.401546 -3.08768,-0.684774 -0.52511,-0.146467 -0.98814,-0.450511 -1.4141,-0.782194 -0.43741,-0.340603 -0.88222,-0.68235 -1.39243,-0.910715 -0.81986,-0.366962 -1.71576,-0.492265 -2.58407,-0.69281 -0.56926,-0.131477 -1.12423,-0.326501 -1.64277,-0.598772 -0.6345,-0.333159 -1.21311,-0.773958 -1.87797,-1.045732 -0.59092,-0.241551 -1.23689,-0.27609 -1.86586,-0.320293 -0.43776,-0.03077 -0.87388,-0.08506 -1.30292,-0.182715 -1.344,-0.305925 -2.69214,-0.641023 -4.07575,-0.705603 -0.31655,-0.01478 -0.65657,0.120357 -0.95016,0.0024 -0.10209,-0.04102 -0.0981,-0.172654 -0.1089,-0.264606 -0.005,-0.03925 -0.009,-0.07871 -0.0177,-0.117272"
       id="path71"
       inkscape:path-effect="#path-effect73"
       inkscape:original-d="m 354.9737,42.65174 c 0.62915,-0.863647 1.15215,-2.906093 0.12541,-3.768106 -0.39939,-0.335301 -0.93911,-0.427537 -1.10368,-0.992801 -0.49432,-1.697791 0.0674,-3.16475 -1.35453,-4.918839 -0.58571,-0.722559 -1.55126,-1.107149 -2.3077,-1.602013 -1.27101,-0.831479 -2.44253,-1.948262 -3.81275,-2.617364 -2.28121,-1.113949 -4.82052,-1.575824 -7.04853,-2.797878 -1.87997,-1.031145 -3.80928,-1.947759 -5.69404,-2.955821 -1.52115,-0.813579 -2.75141,-2.233976 -4.38968,-2.820435 -0.46561,-0.166688 -3.32171,-0.749478 -3.46154,-0.789728 -1.11525,-0.321021 -1.6691,-1.146596 -2.65891,-1.62457 -1.2574,-0.607213 -2.57484,-0.583285 -3.8378,-1.105612 -0.81598,-0.337465 -1.49741,-0.861991 -2.28264,-1.240997 -0.9265,-0.447204 -2.11887,-0.295983 -3.11039,-0.518957 -1.81475,-0.408104 -3.34862,-0.836725 -5.19234,-0.744597 -0.13719,0.0069 -0.11867,-0.24997 -0.1505,-0.383581" />
    <path
       style="fill:none;stroke:#000000;stroke-width:0.264583px;stroke-linecap:butt;stroke-linejoin:miter;stroke-opacity:1"
       d="m 350.28301,220.71478 c -0.50126,-0.90616 -1.2333,-1.69927 -2.15663,-2.18654 -1.13025,-0.59647 -2.41514,-0.75397 -3.64883,-1.01177 -1.1655,-0.24355 -2.33171,-0.61962 -3.2998,-1.32788 -0.41078,-0.30053 -0.77933,-0.65495 -1.18416,-0.96607 -0.12533,-0.0963 -0.03,-0.2725 -0.11656,-0.37732 -0.14895,-0.18028 -0.36176,-0.29436 -0.55829,-0.41546 -0.63233,-0.38964 -1.27737,-0.76062 -1.95784,-1.06171 -0.9388,-0.41539 -1.89708,-0.79837 -2.76843,-1.35104 -1.09569,-0.69496 -2.11869,-1.56512 -3.37681,-1.94671 -1.37006,-0.41554 -2.8103,-0.47669 -4.2194,-0.68061 -0.67172,-0.0972 -1.34643,-0.20588 -1.9931,-0.41813 -0.39151,-0.1285 -0.72452,-0.37676 -1.04648,-0.62715 -0.46234,-0.35956 -0.97801,-0.68462 -1.54857,-0.80895 -0.6963,-0.15173 -1.40589,-0.23331 -2.1128,-0.31736 -1.97224,-0.2345 -3.94671,-0.47155 -5.9302,-0.57809 -0.45202,-0.0243 -0.90625,-0.05 -1.35792,0.0174 -1.04506,0.15599 -2.0453,0.5521 -3.09996,0.64143 -1.08619,0.092 -2.19522,-0.17997 -3.26396,0.0735 -2.05749,0.48805 -4.01777,1.31133 -5.90805,2.2482 -1.48021,0.73363 -2.93437,1.51825 -4.41944,2.24254 -1.6055,0.78303 -3.24281,1.56666 -4.61036,2.72963 -0.84074,0.71497 -1.4664,1.65847 -2.39514,2.2785 -1.05298,0.70297 -2.1144,1.39688 -3.1125,2.17831 -0.56416,0.44169 -0.99341,1.04635 -1.22999,1.72297 -0.37497,1.07243 -0.35325,2.22823 -0.30839,3.34822 0.0456,1.13909 0.13793,2.28639 -0.0346,3.4224 -0.26707,1.75836 -0.54614,3.51527 -0.86553,5.26483 -0.55744,3.05352 -1.39922,6.06874 -1.57806,9.18076 -0.0822,1.43128 0.0359,2.86602 0.26152,4.28234 0.21123,1.32589 0.20958,2.70246 0.69966,3.97034 0.25709,0.66511 0.63884,1.27365 1.0286,1.8671 0.87893,1.33827 2.01944,2.50284 3.34561,3.40199 1.68612,1.1432 3.57686,1.92971 5.4489,2.70791 1.7042,0.70843 3.29393,1.68672 5.06007,2.24482 1.16234,0.3673 2.3845,0.5437 3.51223,1.01587 1.10068,0.46085 2.08035,1.16946 3.21232,1.56666 2.373,0.83267 4.88607,1.19714 7.24906,2.05258 0.75574,0.27359 1.36302,0.87058 2.16867,1.03011 1.65099,0.32692 3.23098,0.93771 4.88584,1.24768"
       id="path75"
       inkscape:path-effect="#path-effect77"
       inkscape:original-d="m 350.28301,220.71478 c -2.2488,-3.98908 -5.88256,-2.1204 -9.30609,-4.67064 -2.45287,-1.82719 0.3624,-0.45363 -2.50838,-2.12097 -1.0891,-0.63256 -2.31859,-0.99837 -3.41138,-1.62457 -1.33125,-0.76285 -2.5668,-1.89405 -4.08868,-2.30148 -1.80123,-0.48222 -3.65175,-0.44188 -5.46825,-0.87998 -1.54099,-0.37165 -1.18872,-0.87424 -3.01006,-1.55688 -0.66281,-0.24843 -8.26823,-1.03469 -9.13051,-0.94767 -1.07857,0.10885 -2.11426,0.489 -3.18563,0.65434 -1.11437,0.17198 -2.55286,-0.14272 -3.66223,0.13539 -3.2321,0.81024 -5.63809,2.1372 -8.57867,3.65528 -2.10992,1.08924 -4.15165,1.91276 -6.07028,3.40709 -0.85553,0.66634 -1.44515,1.61103 -2.3328,2.25636 -0.35261,0.25635 -2.71913,1.74606 -3.58699,2.54967 -2.14482,1.98607 -0.91649,5.55012 -1.27926,8.01005 -0.23569,1.59826 -0.51083,3.21627 -0.77761,4.80603 -0.79785,4.75467 -2.34534,9.08378 -1.47994,13.96681 0.29964,1.69065 0.19063,3.29627 1.05354,4.87372 2.36678,4.32665 5.33075,5.51012 9.65724,7.35571 1.46648,0.62556 2.84443,1.42523 4.33951,1.98558 1.20547,0.45181 2.47055,0.6441 3.68731,1.06049 1.22447,0.41902 2.21427,1.2134 3.41141,1.64713 2.36913,0.85836 4.96726,1.31884 7.37462,2.09842 0.74168,0.24016 1.3992,0.89085 2.15723,1.03791 1.72524,0.33472 3.25961,0.94221 4.96657,1.26357" />
    <path
       style="fill:none;stroke:#000000;stroke-width:0.264583px;stroke-linecap:butt;stroke-linejoin:miter;stroke-opacity:1"
       d="m 228.63634,162.34298 c -1.44095,1.04755 -2.95136,1.99755 -4.36739,3.07984 -1.19204,0.91109 -2.40001,1.85294 -3.28795,3.07285 -0.39491,0.54255 -0.76842,1.14195 -0.8406,1.82675 -0.0662,0.62828 -0.0324,1.26762 -0.20974,1.88469 -0.38682,1.34587 -0.89192,2.67995 -0.93939,4.10056 -0.0226,0.6775 0.15147,1.34317 0.40943,1.96461 0.2542,0.61239 0.49362,1.23108 0.67589,1.86979 0.59562,2.08712 0.79189,4.29 0.52706,6.4536 -0.21341,1.7435 -0.19311,3.53605 -0.71211,5.22431 -0.45692,1.48631 -1.68791,2.58359 -2.14535,4.07007 -0.28866,0.93802 -0.13298,1.92999 0.001,2.87848 0.11331,0.80124 0.0853,1.61427 -0.0119,2.41628 -0.17303,1.42748 -0.71289,2.85315 -0.50942,4.28584 0.0843,0.5938 0.28953,1.16255 0.49101,1.72457 0.73239,2.043 1.56486,4.04886 2.43088,6.03835 0.24639,0.56603 0.50273,1.13 0.85581,1.64056 0.40463,0.58511 0.80199,1.18457 1.03026,1.86766 0.49875,1.49253 0.68446,3.06973 1.23396,4.54934 0.87919,2.36734 2.21279,4.55655 2.87663,7.00415 0.36979,1.36342 0.51543,2.82456 1.23934,4.05884 0.2553,0.43529 0.54205,0.85098 0.81113,1.27817 0.5378,0.8538 1.02989,1.75419 1.73497,2.48359 0.75061,0.7765 1.70702,1.34114 2.35412,2.22097 0.61321,0.83375 1.0394,1.79094 1.72946,2.57482 2.25765,2.56462 4.76766,4.88786 7.31563,7.15517 0.82398,0.73322 1.86279,1.15034 2.87939,1.54037 1.02494,0.39323 2.09643,0.69127 3.05299,1.23811 0.69496,0.39729 1.24523,0.98471 1.86482,1.48335 1.07516,0.86527 1.81954,2.07395 2.90429,2.92306 0.55287,0.43277 1.15944,0.79236 1.76756,1.14086 2.33328,1.33717 4.89661,2.25739 7.13848,3.7488 0.802,0.53353 1.26041,1.40657 1.83238,2.15314 0.37637,0.49126 0.81636,0.97297 1.41362,1.19951 0.52795,0.20025 1.1732,0.21128 1.57763,0.63295 0.19728,0.20569 0.12673,0.52283 0.0532,0.76621 -0.15029,0.49752 -0.95795,1.83003 -0.66539,1.40291 0.53183,-0.77644 1.00126,-1.59131 1.49012,-2.39476"
       id="path127"
       inkscape:path-effect="#path-effect129"
       inkscape:original-d="m 228.63634,162.34298 c -2.22636,1.65147 -7.16373,4.5274 -8.32782,7.28801 -0.31511,0.74728 -0.11213,1.61271 -0.32609,2.39174 -0.43352,1.57836 -1.09221,3.02456 -0.97827,4.71577 0.0693,1.02855 0.59684,1.88301 0.90302,2.843 0.68805,2.15738 1.0239,4.52134 0.72743,6.76906 -0.22895,1.73574 -0.26084,3.63274 -0.70236,5.32498 -0.40494,1.55206 -1.7671,2.7334 -2.20737,4.28707 -0.35055,1.23704 0.0866,2.56744 0.10033,3.81323 0.0206,1.87181 -0.63341,3.77717 -0.60201,5.64088 0.018,1.06843 2.73078,7.44822 3.28598,8.61927 0.41228,0.86959 1.08899,1.51721 1.42978,2.43685 0.52916,1.42796 0.68317,2.96293 1.17894,4.3999 0.82502,2.39133 2.1568,4.58405 2.90972,7.01725 0.47717,1.54203 0.6487,3.45989 1.58028,4.82858 0.67396,0.99021 1.35138,2.26365 2.10704,3.1589 0.74177,0.8788 1.74379,1.40132 2.48329,2.3466 0.62223,0.79538 0.98997,1.73641 1.65554,2.50455 2.26366,2.61247 4.91667,4.83087 7.37463,7.24288 1.40188,1.37568 4.17355,1.89891 5.89469,2.79788 0.75807,0.39595 1.19353,0.94112 1.85621,1.44406 1.26609,0.96093 2.24861,2.51185 3.36122,3.27172 2.62023,1.78952 5.76505,2.91633 8.47833,4.5804 1.28504,0.78812 1.66876,2.25345 2.8094,3.13632 0.62432,0.48323 1.58394,0.432 2.13211,0.92511 0.59586,0.53601 -1.20641,3.04513 -0.40132,1.85022 0.45415,-0.67408 0.85283,-1.38391 1.27926,-2.07586" />
    <path
       style="fill:none;stroke:#000000;stroke-width:0.264583px;stroke-linecap:butt;stroke-linejoin:miter;stroke-opacity:1"
       d="m 228.63634,162.34298 c 0.4294,-0.71644 0.64981,-1.57075 1.27431,-2.16265 0.25364,-0.2404 0.62996,-0.1441 0.92778,-0.0744 0.31096,0.0728 0.62472,-0.0317 0.88665,-0.20077 0.4413,-0.28483 0.86256,-0.59757 1.28413,-0.9115 0.31584,-0.2352 0.65395,-0.45542 1.02848,-0.57991 0.35938,-0.11945 0.71014,0.10131 1.08104,0.005 0.60684,-0.15822 1.13473,-0.66289 1.77292,-0.6158 0.28488,0.021 0.55021,0.14486 0.84864,0.10403 1.62599,-0.22244 3.31934,-0.27662 4.90321,0.20569 0.54674,0.16649 1.10597,0.3519 1.5663,0.69328 0.42199,0.31295 0.72974,0.78101 1.2459,0.96901 0.51255,0.18668 1.12374,0.13373 1.5632,0.48597 0.56441,0.45239 0.92138,1.1064 1.21483,1.75311 0.69474,1.53108 1.12705,3.16397 1.52884,4.79164 0.25785,1.04457 0.41826,2.11309 0.71331,3.14752 0.2565,0.89927 0.79367,1.69533 0.9671,2.62499 0.15891,0.85182 0.23056,1.71804 0.44475,2.56092 0.54583,2.14791 1.47012,4.20093 1.77392,6.40666 0.23005,1.67026 0.0869,3.37658 0.47117,5.03124 0.91671,3.9475 2.49844,7.69452 3.58819,11.59271 1.44333,5.16301 2.90578,10.32008 4.3793,15.47533 0.45687,1.5984 0.56225,3.28423 1.10212,4.85745 0.2281,0.6647 0.52826,1.30971 0.6229,2.01569 0.15402,1.14896 0.0367,2.34695 0.42995,3.4535 0.36042,1.01404 1.14621,1.78012 1.74774,2.64863 0.38328,0.5534 0.61417,1.19785 0.725,1.86014 0.28489,1.70245 -0.13522,3.44142 0.21887,5.13965 0.20452,0.98088 0.50573,1.93843 0.67923,2.9271 0.47909,2.73005 0.67433,5.50486 0.69889,8.27369 0.0258,2.90664 -0.10014,5.82727 -0.60553,8.69428 -0.18115,1.02764 -0.46259,2.03349 -0.78219,3.02697 -0.36179,1.12462 -0.49419,2.30535 -0.56155,3.48003 -0.0662,1.15509 -0.17367,2.31677 -0.50238,3.43167 -0.31279,1.0609 -0.70284,2.0966 -1.10003,3.12798 -0.0953,0.24752 -0.44656,0.96191 -0.32207,0.72916 0.10802,-0.20195 -0.0591,-0.38442 -0.15104,-0.55278 -0.11256,-0.2061 -0.29364,-0.43525 -0.56496,-0.41377 -0.23975,0.019 -0.8549,0.3453 -0.69388,0.17524 0.23118,-0.24415 0.50512,-0.45339 0.77293,-0.65922 0.90902,-0.69865 1.89502,-1.28792 2.82387,-1.95869"
       id="path131"
       inkscape:path-effect="#path-effect133"
       inkscape:original-d="m 228.63634,162.34298 c 0.43478,-0.72956 0.65665,-1.63933 1.30436,-2.18866 0.33815,-0.2868 0.89733,0.0543 1.32943,-0.0451 0.30626,-0.0705 0.56338,-0.2814 0.82777,-0.45127 0.82867,-0.53244 0.90168,-0.76065 1.75587,-1.1733 0.52554,-0.25388 0.74927,0.0515 1.17893,-0.0451 0.61722,-0.1388 1.11356,-0.53548 1.75588,-0.63178 0.27428,-0.0411 0.55242,0.15606 0.85284,0.11282 2.10469,-0.30292 4.49975,-0.30203 6.42146,0.78972 0.40904,0.23239 0.66872,0.65333 1.05352,0.90254 0.5592,0.36217 1.39152,0.26955 1.88128,0.63178 1.81371,1.34143 2.96676,7.4951 3.43648,9.54437 0.20203,0.88138 0.74581,1.63587 0.95319,2.52711 0.18489,0.79458 0.21846,1.61925 0.40133,2.4143 0.5012,2.17914 1.45666,4.3353 1.83112,6.54342 0.27985,1.65021 0.0883,3.39822 0.4515,5.03166 0.85821,3.86005 2.4417,7.5657 3.51173,11.37201 1.47487,5.24639 2.84794,10.49695 4.43985,15.70421 0.48879,1.59887 0.65927,3.2746 1.10368,4.87371 0.18438,0.66348 0.5281,1.27741 0.65217,1.96303 0.22777,1.25854 0.0576,2.7736 0.55185,3.94861 0.51442,1.22297 1.73563,2.14647 2.1823,3.45222 0.56767,1.65951 0.17545,3.38215 0.30102,5.07679 0.0792,1.06957 0.45966,2.12434 0.67725,3.15889 1.08525,5.16 1.29596,15.28953 -0.45151,20.37486 -0.92739,2.69878 -0.43873,4.43764 -1.0786,6.90443 -0.25344,0.97698 -0.63928,1.91489 -0.97827,2.86556 -0.15795,0.44294 -0.30879,0.89202 -0.52676,1.30868 -0.0316,0.0604 0.0582,-0.14345 0.0251,-0.20307 -0.15009,-0.27 -0.27009,-0.61788 -0.55184,-0.74459 -0.26153,-0.11763 -1.06516,0.30557 -0.85285,0.11282 1.08428,-0.98441 2.3745,-1.71484 3.56176,-2.57224" />
  </g>
</svg>
