<?xml version="1.0" encoding="UTF-8" standalone="no"?>
<!-- Created with Inkscape (http://www.inkscape.org/) -->

<svg
   width="353.56799mm"
   height="264.16mm"
   viewBox="0 0 353.56799 264.16"
   version="1.1"
   id="svg5"
   inkscape:version="1.1.2 (08b2f3d93c, 2022-04-05)"
   sodipodi:docname="Substanciabranca.svg"
   xmlns:inkscape="http://www.inkscape.org/namespaces/inkscape"
   xmlns:sodipodi="http://sodipodi.sourceforge.net/DTD/sodipodi-0.dtd"
   xmlns="http://www.w3.org/2000/svg"
   xmlns:svg="http://www.w3.org/2000/svg">
  <sodipodi:namedview
     id="namedview7"
     pagecolor="#ffffff"
     bordercolor="#666666"
     borderopacity="1.0"
     inkscape:pageshadow="2"
     inkscape:pageopacity="0.0"
     inkscape:pagecheckerboard="0"
     inkscape:document-units="mm"
     showgrid="false"
     inkscape:zoom="0.66468037"
     inkscape:cx="901.18503"
     inkscape:cy="252.00082"
     inkscape:window-width="1366"
     inkscape:window-height="704"
     inkscape:window-x="0"
     inkscape:window-y="27"
     inkscape:window-maximized="1"
     inkscape:current-layer="layer2" />
  <defs
     id="defs2">
    <inkscape:path-effect
       effect="simplify"
       id="path-effect190"
       is_visible="true"
       lpeversion="1"
       steps="1"
       threshold="0.000408163"
       smooth_angles="360"
       helper_size="0"
       simplify_individual_paths="false"
       simplify_just_coalesce="false" />
    <inkscape:path-effect
       effect="simplify"
       id="path-effect186"
       is_visible="true"
       lpeversion="1"
       steps="1"
       threshold="0.000408163"
       smooth_angles="360"
       helper_size="0"
       simplify_individual_paths="false"
       simplify_just_coalesce="false" />
    <inkscape:path-effect
       effect="simplify"
       id="path-effect182"
       is_visible="true"
       lpeversion="1"
       steps="1"
       threshold="0.000408163"
       smooth_angles="360"
       helper_size="0"
       simplify_individual_paths="false"
       simplify_just_coalesce="false" />
    <inkscape:path-effect
       effect="simplify"
       id="path-effect178"
       is_visible="true"
       lpeversion="1"
       steps="1"
       threshold="0.000408163"
       smooth_angles="360"
       helper_size="0"
       simplify_individual_paths="false"
       simplify_just_coalesce="false" />
    <inkscape:path-effect
       effect="simplify"
       id="path-effect174"
       is_visible="true"
       lpeversion="1"
       steps="1"
       threshold="0.000408163"
       smooth_angles="360"
       helper_size="0"
       simplify_individual_paths="false"
       simplify_just_coalesce="false" />
    <inkscape:path-effect
       effect="simplify"
       id="path-effect170"
       is_visible="true"
       lpeversion="1"
       steps="1"
       threshold="0.000408163"
       smooth_angles="360"
       helper_size="0"
       simplify_individual_paths="false"
       simplify_just_coalesce="false" />
  </defs>
  <g
     inkscape:groupmode="layer"
     id="layer2"
     inkscape:label="Substancia Branca"
     transform="translate(2.8093849,4.151678)">
    <path
       style="fill:none;stroke:#000000;stroke-width:0.264583px;stroke-linecap:butt;stroke-linejoin:miter;stroke-opacity:1"
       d="m 264.25701,261.77042 c 0.18168,-4.06447 1.34573,-8.00267 2.69118,-11.81729 0.7277,-2.06317 1.5807,-4.08176 2.26474,-6.15967 0.67122,-2.03896 1.10458,-4.15926 2.01403,-6.1184 1.82998,-3.94213 4.45199,-7.48639 5.97539,-11.57628 0.80352,-2.15722 1.04032,-4.46476 1.3108,-6.73547 0.18598,-1.56134 0.31152,-3.13824 0.73175,-4.66114 0.61117,-2.21485 1.57685,-4.34834 1.79141,-6.6604 0.11156,-1.20216 0.2216,-2.41847 0.64044,-3.56424 1.04136,-2.84872 2.93402,-5.26853 4.13381,-8.04555 1.94276,-4.4967 3.70141,-9.07024 5.33509,-13.68612 0.44354,-1.2532 0.56866,-2.58551 0.94651,-3.8591 0.89342,-3.01138 1.76557,-6.03519 2.88706,-8.97014 1.11482,-2.91748 2.86394,-5.58142 3.65975,-8.61917 1.69984,-6.48859 2.66681,-13.13171 4.13237,-19.67499 0.56595,-2.52679 0.44016,-5.1499 1.08795,-7.66864 0.27612,-1.07361 0.70308,-2.11723 0.83436,-3.22091 0.25057,-2.10654 -0.55422,-4.18745 -0.24707,-6.29541 0.55339,-3.79788 1.89581,-7.436 2.43619,-11.23233 0.20831,-1.46343 0.20093,-2.95573 0.56555,-4.39818 0.39107,-1.54708 0.81724,-3.11609 1.61874,-4.50291 0.34602,-0.59871 0.74282,-1.2508 1.40783,-1.52683 0.51152,-0.21232 1.04497,0.0962 1.39599,0.46799 0.0746,0.0791 0.14487,0.16219 0.21163,0.24797"
       id="path168"
       inkscape:path-effect="#path-effect170"
       inkscape:original-d="m 264.25701,261.77042 c 0.28157,-6.12064 2.67157,-11.72326 4.75752,-17.4076 0.73753,-2.00983 1.10554,-4.18723 1.96739,-6.14577 1.8597,-4.22616 4.7103,-7.93145 6.29566,-12.32366 1.01671,-2.81683 1.15318,-6.41994 1.57392,-9.36342 0.35431,-2.47875 1.51199,-4.76058 2.00316,-7.20758 0.28819,-1.43583 0.20392,-2.88096 0.64384,-4.31167 0.87971,-2.86095 2.93661,-5.43569 4.14943,-8.20507 1.993,-4.55085 3.59551,-9.26177 5.43716,-13.90033 0.44636,-1.12423 0.54883,-2.46206 0.89427,-3.63598 0.87299,-2.96652 1.79324,-5.96743 2.82588,-8.88076 1.1013,-3.10696 3.03678,-6.03069 3.86324,-9.20254 1.657,-6.35937 2.47449,-12.96034 4.04212,-19.30602 0.54239,-2.19563 0.45479,-4.44893 0.85849,-6.66058 0.25111,-1.37588 0.73117,-2.65217 1.03735,-3.9899 0.47924,-2.09397 -0.48342,-4.52394 -0.17888,-6.66058 0.53329,-3.7415 1.72706,-7.29792 2.39667,-11.00444 0.23022,-1.27441 0.20963,-2.58605 0.42923,-3.8612 0.21691,-1.25935 2.23306,-9.54609 4.82905,-6.21011" />
    <path
       style="fill:none;stroke:#000000;stroke-width:0.264583px;stroke-linecap:butt;stroke-linejoin:miter;stroke-opacity:1"
       d="m 312.08251,103.49321 c -0.67699,-0.47622 -2.10646,-0.56963 -2.04368,-1.41708 0.0125,-0.16832 0.23822,-0.33445 0.3655,-0.47417 1.09947,-1.20693 2.23984,-2.378585 3.2844,-3.633789 0.39899,-0.47945 0.72937,-1.011134 1.06837,-1.533306 2.46898,-3.803045 4.50746,-7.858582 6.74682,-11.796073 1.95619,-3.439593 3.79451,-6.945458 5.54512,-10.492889 0.64477,-1.306557 1.13903,-2.705855 2.04426,-3.867997 0.89109,-1.14399 1.93802,-2.175759 2.66548,-3.441673 0.2225,-0.387193 0.3595,-0.816041 0.41903,-1.260135 0.0968,-0.722261 0.027,-1.464141 0.19361,-2.175302 0.33635,-1.435571 1.06356,-2.749327 1.31489,-4.211749 0.46921,-2.730179 0.77942,-5.503331 1.60645,-8.156944 1.04214,-3.343807 2.8155,-6.404615 3.90223,-9.729651 0.53569,-1.639036 0.50318,-3.389274 0.86461,-5.063343 0.3549,-1.643822 1.11341,-3.169659 1.40297,-4.834159 0.29857,-1.716318 0.56289,-3.463435 1.2658,-5.073482 0.39461,-0.903869 0.93763,-1.73352 1.53539,-2.514939 0.40722,-0.532333 0.73179,-1.136685 0.89226,-1.78765 0.23246,-0.943018 0.0435,-1.950383 0.39115,-2.871932 0.46085,-1.221615 0.89608,-2.462282 1.52243,-3.609145 0.16708,-0.305929 0.29846,-0.658051 0.576,-0.876472 0.23181,-0.182431 0.27682,0.216275 0.28258,0.373295 0.004,0.111218 0.001,0.210282 0.01,0.03459 0.0406,-0.861646 -0.0948,-1.756038 0.16808,-2.585013 0.19824,-0.625226 0.59859,-1.16139 1.01554,-1.656779 0.77196,-0.9171762 1.61851,-1.7817645 2.57734,-2.5005258 0.52839,-0.3960917 1.05916,-0.7936152 1.62823,-1.128382 0.0889,-0.052298 0.34543,-0.2208638 0.30129,-0.1813169 -0.0371,0.033258 -0.077,0.063264 -0.11622,0.09391"
       id="path176"
       inkscape:path-effect="#path-effect178"
       inkscape:original-d="m 312.08251,103.49321 c -0.68927,-0.48273 -1.55827,-0.7785 -2.06783,-1.4482 -0.0241,-0.0318 3.439,-3.694656 3.93478,-4.408211 2.69502,-3.878768 4.93421,-8.446905 7.29723,-12.548907 2.00211,-3.475508 3.84689,-7.151491 5.68757,-10.714847 0.62309,-1.206283 1.06021,-2.49996 1.8243,-3.635965 0.84905,-1.262276 2.66327,-2.919184 3.25514,-4.44038 0.29901,-0.768495 0.18592,-2.161916 0.35772,-2.895904 0.32798,-1.401445 1.03933,-2.624304 1.28773,-4.054263 0.46598,-2.68268 0.80629,-5.62932 1.60969,-8.237244 1.01503,-3.294909 2.72212,-6.37722 3.86324,-9.620835 0.55726,-1.583994 0.58055,-3.251901 0.85849,-4.890849 0.29009,-1.710682 1.13443,-3.255314 1.43084,-4.95522 0.50866,-2.91697 0.74798,-4.999125 2.57551,-7.464991 0.52446,-0.707665 0.75864,-1.001014 1.0731,-1.866252 0.36142,-0.994417 0.0894,-2.092184 0.46503,-3.121137 0.22852,-0.626046 2.39665,-6.389878 2.39665,-3.989915 0.0477,-0.858922 -0.0197,-1.732059 0.14308,-2.576767 0.25936,-1.346078 2.83548,-3.718956 3.82747,-4.4403944 0.12578,-0.091472 2.27207,-1.5725487 1.60969,-1.0618199" />
    <path
       style="fill:none;stroke:#000000;stroke-width:0.264583px;stroke-linecap:butt;stroke-linejoin:miter;stroke-opacity:1"
       d="m 264.25701,261.77042 c 28.83387,-0.58737 86.18757,27.07604 86.5016,-1.7621 0.91794,-84.29574 1.83589,-168.591474 2.75383,-252.8872117"
       id="path184"
       inkscape:path-effect="#path-effect186"
       inkscape:original-d="m 264.25701,261.77042 86.5016,-1.7621 2.75383,-252.8872117" />
  </g>
</svg>
