<?xml version="1.0" encoding="UTF-8" standalone="no"?>
<!-- Created with Inkscape (http://www.inkscape.org/) -->

<svg
   width="353.56799mm"
   height="264.16mm"
   viewBox="0 0 353.56799 264.16"
   version="1.1"
   id="svg5"
   inkscape:version="1.1.2 (08b2f3d93c, 2022-04-05)"
   sodipodi:docname="SubstanciaCinza.svg"
   xmlns:inkscape="http://www.inkscape.org/namespaces/inkscape"
   xmlns:sodipodi="http://sodipodi.sourceforge.net/DTD/sodipodi-0.dtd"
   xmlns="http://www.w3.org/2000/svg"
   xmlns:svg="http://www.w3.org/2000/svg">
  <sodipodi:namedview
     id="namedview7"
     pagecolor="#ffffff"
     bordercolor="#666666"
     borderopacity="1.0"
     inkscape:pageshadow="2"
     inkscape:pageopacity="0.0"
     inkscape:pagecheckerboard="0"
     inkscape:document-units="mm"
     showgrid="false"
     inkscape:zoom="0.27282898"
     inkscape:cx="414.17887"
     inkscape:cy="188.76294"
     inkscape:window-width="1366"
     inkscape:window-height="704"
     inkscape:window-x="0"
     inkscape:window-y="27"
     inkscape:window-maximized="1"
     inkscape:current-layer="layer2" />
  <defs
     id="defs2">
    <inkscape:path-effect
       effect="simplify"
       id="path-effect65"
       is_visible="true"
       lpeversion="1"
       steps="1"
       threshold="0.000408163"
       smooth_angles="360"
       helper_size="0"
       simplify_individual_paths="false"
       simplify_just_coalesce="false" />
    <inkscape:path-effect
       effect="simplify"
       id="path-effect61"
       is_visible="true"
       lpeversion="1"
       steps="1"
       threshold="0.000408163"
       smooth_angles="360"
       helper_size="0"
       simplify_individual_paths="false"
       simplify_just_coalesce="false" />
    <inkscape:path-effect
       effect="simplify"
       id="path-effect57"
       is_visible="true"
       lpeversion="1"
       steps="1"
       threshold="0.000408163"
       smooth_angles="360"
       helper_size="0"
       simplify_individual_paths="false"
       simplify_just_coalesce="false" />
  </defs>
  <g
     inkscape:groupmode="layer"
     id="layer2"
     inkscape:label="Substancia Cinza">
    <path
       style="fill:none;stroke:#000000;stroke-width:0.264583px;stroke-linecap:butt;stroke-linejoin:miter;stroke-opacity:1"
       d="m 265.15081,263.89244 c -0.24831,-1.0683 -0.75016,-2.12756 -0.54034,-3.25785 0.42023,-2.2638 1.07116,-4.47795 1.74157,-6.67768 1.02926,-3.37716 2.11066,-6.74224 3.38324,-10.03732 0.48111,-1.24573 1.19359,-2.37978 1.8308,-3.54812 0.96687,-1.77278 2.07944,-3.46042 3.08194,-5.21356 1.16429,-2.03608 1.64423,-4.367 2.76674,-6.43066 2.58095,-4.74489 5.73031,-9.22802 7.56907,-14.33644 1.00281,-2.78599 1.38811,-5.773 2.70689,-8.45437 1.61737,-3.28848 3.79963,-6.34807 4.71918,-9.94077 1.00471,-3.92542 0.94049,-8.03305 2.02831,-11.94948 0.98069,-3.53072 1.97645,-7.0905 2.20193,-10.77231 0.15218,-2.48493 -0.004,-5.01865 0.57512,-7.45089 0.50429,-2.11753 1.68991,-3.99362 2.19789,-6.11493 0.52722,-2.20164 0.77452,-4.46863 1.54753,-6.61363 1.30963,-3.63404 3.31049,-6.98333 4.57544,-10.62981 0.99797,-2.87685 1.03374,-5.95798 1.15555,-8.96613 0.0965,-2.38394 0.30829,-4.78207 0.99162,-7.08214 1.39572,-4.69794 4.22976,-8.83613 5.51403,-13.56866 0.82228,-3.03011 0.66338,-6.27018 1.72011,-9.23425 0.55613,-1.55991 1.48139,-2.95446 1.99872,-4.535311 0.9523,-2.910042 1.10414,-6.008732 1.93623,-8.945236 0.54746,-1.932025 1.86289,-3.632212 2.07823,-5.638421 0.11905,-1.109125 -0.8264,-2.137305 -0.45177,-3.226028 0.3833,-1.113916 0.99562,-2.1413 1.67368,-3.099373 2.87146,-4.057278 7.19069,-6.809832 10.03197,-10.897689 1.21991,-1.755132 1.94427,-3.802406 2.35316,-5.891844 0.6953,-3.552992 0.3954,-7.283961 1.49321,-10.741659 0.44835,-1.412132 1.40118,-2.5811 2.21448,-3.794741 0.99986,-1.492037 2.08051,-3.089305 2.2012,-4.915708 0.1035,-1.5663 -0.81304,-3.104978 -0.37316,-4.650461 0.22748,-0.799232 0.80091,-1.43665 1.3294,-2.052315 0.90712,-1.056742 1.81956,-2.149592 2.96954,-2.938583 1.63464,-1.121513 3.57291,-1.781137 5.03837,-3.157255 0.52288,-0.491004 0.78685,-1.170616 0.95684,-1.857506 0.30558,-1.234744 0.44896,-2.506536 0.8207,-3.725399"
       id="path55"
       inkscape:path-effect="#path-effect57"
       inkscape:original-d="m 265.15081,263.89244 c -0.20069,-0.90253 -0.63111,-1.78348 -0.60203,-2.7076 0.0703,-2.23536 4.43267,-16.14259 5.76929,-18.54723 1.35048,-2.42959 2.60183,-4.82562 4.11374,-7.13005 1.1966,-1.82386 1.67026,-4.32899 2.70907,-6.27267 2.57633,-4.82046 5.75648,-9.42489 7.7258,-14.53089 1.0268,-2.66233 1.33798,-5.59496 2.55855,-8.21313 1.58478,-3.39934 3.8149,-6.41558 4.86622,-10.06331 1.05479,-3.65965 0.95372,-7.99748 1.95654,-11.68791 0.80372,-2.95764 1.72405,-5.92802 2.15725,-8.98029 0.44001,-3.10036 0.20998,-6.28615 0.70234,-9.38642 0.31388,-1.97654 1.40287,-3.7156 2.00668,-5.59574 0.72255,-2.24986 0.83561,-4.71956 1.60536,-6.99469 1.24473,-3.67894 3.1687,-7.2071 4.61542,-10.78537 1.82004,-4.50154 0.91233,-10.12043 1.90637,-14.84678 1.08876,-5.17663 4.17624,-9.65079 5.76927,-14.66629 0.95051,-2.99256 0.92347,-6.34728 1.75588,-9.38642 0.41103,-1.50073 1.2973,-2.75702 1.85621,-4.196811 1.11585,-2.874404 1.41846,-6.323356 2.10701,-9.296175 0.47024,-2.030208 1.6532,-3.826287 2.15725,-5.866508 0.32441,-1.313204 -0.89283,-2.398361 -0.30101,-3.790664 2.77857,-6.536838 10.30374,-9.732007 12.99339,-16.245732 1.72517,-4.178003 1.3711,-9.546333 2.40806,-13.899128 0.55615,-2.334644 3.75528,-5.029126 4.41473,-8.529013 0.34316,-1.821254 -1.11152,-4.064704 0,-5.731126 0.90522,-1.357136 2.42138,-2.948641 3.66225,-4.016309 1.49707,-1.288087 5.43081,-2.432071 6.12042,-4.602956 0.43048,-1.355111 0.56915,-2.961357 1.00336,-4.377317" />
    <path
       style="fill:none;stroke:#000000;stroke-width:0.264583px;stroke-linecap:butt;stroke-linejoin:miter;stroke-opacity:1"
       d="m 351.18823,23.545911 c 0.36298,-0.05926 0.73155,-0.08388 1.09109,-0.16362 0.0616,-0.01365 0.12453,-0.02345 0.18352,-0.04571 0.0434,-0.01637 0.0792,-0.04749 0.11137,-0.0799 0.0735,-0.07403 0.1356,-0.158472 0.19438,-0.244367 0.12925,-0.188887 0.24494,-0.38657 0.35979,-0.584408 0.13986,-0.240929 0.27352,-0.485603 0.42126,-0.721837 0.0613,-0.09808 0.12189,-0.19747 0.19645,-0.286135 0.0276,-0.03288 0.0572,-0.06475 0.0925,-0.08984 0.02,-0.01419 0.0509,-0.02188 0.0702,-0.0011 0.0669,0.07216 0.12314,0.158236 0.14336,0.255918 0.0171,0.08274 0.002,0.16968 -0.0335,0.245648 -0.0479,0.102328 -0.12447,0.188297 -0.20758,0.26343 -0.1349,0.121952 -0.28768,0.222285 -0.44414,0.314079 -0.26845,0.157498 -0.5491,0.292726 -0.82983,0.426604 -0.31067,0.148159 -0.62461,0.290181 -0.92749,0.453957 -0.14478,0.07829 -0.28777,0.160842 -0.42134,0.257309 z"
       id="path59"
       inkscape:path-effect="#path-effect61"
       inkscape:original-d="m 351.18823,23.545911 c 0.42201,-0.06888 0.85386,-0.09295 1.26608,-0.20664 0.3596,-0.09918 1.26915,-2.210314 1.45442,-2.010305 0.79499,0.858177 -1.77369,1.52993 -2.7205,2.216945" />
    <path
       style="fill:none;stroke:#000000;stroke-width:0.264583px;stroke-linecap:butt;stroke-linejoin:miter;stroke-opacity:1"
       d="m 26.290432,261.29934 c -0.905203,-4.30858 -0.05538,-8.73782 -0.795069,-13.07325 -0.455185,-2.6679 -1.138926,-5.30088 -1.436983,-7.9911 -0.198115,-1.78816 -0.05072,-3.60681 -0.461534,-5.37541 -0.363224,-1.56372 -0.777784,-3.11993 -0.914177,-4.72881 -0.289845,-3.419 -0.198393,-6.85855 -0.596456,-10.27263 -0.223887,-1.92022 -0.06194,-3.93231 -0.694949,-5.75873 -0.169973,-0.49042 -0.395999,-0.9587 -0.436739,-1.49478 -0.212725,-2.79916 0.186428,-5.62174 -0.110128,-8.40952 -0.109942,-1.03351 -0.394978,-2.06992 -0.171428,-3.11621 0.207772,-0.97244 0.495857,-1.92416 0.613102,-2.91892 0.339287,-2.87867 0.325365,-5.78421 0.545341,-8.67264 0.09353,-1.22815 0.634456,-2.45463 0.362687,-3.67991 -0.190856,-0.86048 -1.009478,-1.4478 -1.074002,-2.35753 -0.170519,-2.40415 0.388892,-4.77735 0.338554,-7.18455 -0.05875,-2.80946 -0.19941,-5.61933 -0.511963,-8.41058 -0.240243,-2.14549 -1.376938,-4.10856 -1.360559,-6.30103 0.01875,-2.51025 1.390304,-4.81417 1.241331,-7.34312 -0.14224,-2.41465 -0.319605,-4.84088 -0.965057,-7.19222 -0.456116,-1.6616 -1.008006,-3.31588 -1.132747,-5.0479 -0.09391,-1.30399 0.800398,-2.37508 0.870387,-3.67247 0.151177,-2.80238 -0.478726,-5.568 -0.574071,-8.35854 -0.05993,-1.75405 0.128096,-3.541 -0.365025,-5.25964 -0.73583,-2.56454 -2.399449,-4.79737 -2.805711,-7.46867 -0.389689,-2.56233 -0.411493,-5.16428 -0.392081,-7.75205 0.009,-1.19764 0.195147,-2.39053 0.60738,-3.52314 0.592322,-1.6274 1.654865,-3.05439 2.163278,-4.70893 0.449569,-1.463043 0.477822,-3.023423 1.046258,-4.459971 0.465098,-1.175394 0.972756,-2.353659 1.083294,-3.633216 0.153567,-1.777652 0.167685,-3.677029 -0.62413,-5.303227 -0.805215,-1.653718 -2.389891,-2.742481 -3.269164,-4.3561 -1.291503,-2.370134 -2.254154,-4.990665 -2.265137,-7.723659 -0.0088,-2.182249 0.479867,-4.331671 1.117288,-6.406197 0.139466,-0.453901 1.021316,-0.724555 0.382267,-1.259009 -0.78726,-0.658406 -2.11254,-1.041371 -2.291064,-2.060672 -0.105203,-0.600668 0.02147,-1.221677 0.105119,-1.820199 0.207945,-1.487851 0.36762,-2.988569 0.713139,-4.450375 0.286656,-1.212771 0.598315,-2.44947 0.436574,-3.709952 -0.110618,-0.862069 -0.06567,-1.735055 0.160487,-2.581792 0.347609,-1.301442 1.120583,-2.522931 1.134504,-3.880534 0.0089,-0.864157 -0.291295,-1.687161 -0.275331,-2.561295 0.04334,-2.373029 0.514142,-4.794119 -0.09104,-7.133802 C 15.094163,37.943498 13.791722,36.2706 13.558182,34.247428 13.376059,32.669685 13.461076,31.071501 13.129391,29.504083 12.560876,26.817494 11.3234,24.322328 10.731457,21.646754 10.427761,20.274052 10.232053,18.867649 9.6484844,17.569521 8.8942598,15.891773 8.087056,14.22001 7.0179678,12.719317 6.3612857,11.797524 5.3478494,11.196951 4.8068304,10.166691 4.0757702,8.7745364 3.771706,7.194678 2.9928073,5.8284807 2.6234157,5.1805636 1.9078902,4.7698532 1.6209903,4.0869144 1.1996864,3.0840393 1.3765092,1.873331 0.81153787,0.94881664 0.6391637,0.66674499 0.81626692,0.02233436 1.086421,0.54498057 1.2915202,0.94177014 1.6790642,2.1800119 1.3367683,1.8834182 1.0240748,1.6124745 0.80664852,1.2126451 0.57379132,0.86181523 0.38293929,0.57427165 0.1947524,0.28493739 1.2744141e-6,3.2739258e-7"
       id="path63"
       inkscape:path-effect="#path-effect65"
       inkscape:original-d="m 26.290432,261.29934 c -0.873654,-4.12776 -0.01296,-8.43728 -0.709474,-12.5724 -0.450017,-2.67171 -1.008474,-5.33508 -1.454425,-8.00932 -0.285861,-1.71423 -0.07539,-3.44842 -0.390216,-5.16936 -0.307235,-1.67945 -0.803888,-2.98362 -0.993265,-4.78645 -0.353229,-3.36267 -0.185136,-6.77338 -0.567584,-10.11536 -0.239667,-2.09431 -0.462972,-4.25731 -0.744952,-6.35 -0.07583,-0.56279 -0.404234,-0.79311 -0.46116,-1.49976 -0.219923,-2.73002 -0.05107,-5.52681 -0.106417,-8.26459 -0.01839,-0.90945 -0.309819,-1.72376 -0.283792,-2.64849 0.0308,-1.09419 0.503834,-2.08879 0.638528,-3.15906 0.378881,-3.01055 0.528928,-6.02971 0.603056,-9.03043 0.0264,-1.06866 0.5675,-2.70748 0.390216,-3.79724 -0.157888,-0.97054 -1.029931,-1.40229 -1.099695,-2.55277 -0.132141,-2.17913 0.354743,-4.16641 0.354743,-6.31811 0,-2.94935 -0.347087,-5.9112 -0.496639,-8.87088 -0.108288,-2.14304 -1.383481,-4.12344 -1.383481,-6.54146 0,-2.55893 1.397404,-4.80992 1.241585,-7.40304 -0.107671,-1.79185 -0.194715,-3.88717 -0.567577,-5.648 -0.417472,-1.97149 -1.630929,-5.08905 -1.525377,-6.9563 0.06011,-1.06332 0.788408,-1.93649 0.851369,-3.03142 0.170937,-2.97266 -0.301196,-5.31287 -0.532105,-8.16886 -0.133649,-1.65303 0.135961,-3.37279 -0.212846,-5.00981 -0.552781,-2.59431 -2.092945,-4.65523 -2.766955,-7.14776 -0.614932,-2.27405 -0.722412,-7.2575 -0.567584,-9.76434 0.15866,-2.5689 1.51907,-4.43363 2.518642,-6.70102 0.568897,-1.29047 0.566337,-2.793927 0.957792,-4.148252 0.35686,-1.234631 1.059888,-2.463626 1.277064,-3.733427 0.327613,-1.915523 0.270251,-4.987565 -0.851376,-6.669114 -0.851935,-1.277226 -2.144373,-2.298851 -2.873378,-3.637695 -2.796823,-5.13647 -2.901165,-8.569664 -1.241585,-14.167877 0.134806,-0.454739 0.571661,-0.624364 0.744946,-1.053018 -0.875022,-0.782906 -1.893109,-1.430653 -2.625065,-2.348718 -0.227384,-0.2852 0.595117,-4.955256 0.638535,-5.265093 0.193586,-1.381474 0.475702,-1.935948 0.638528,-3.286694 0.131443,-1.090403 -0.228626,-2.177587 -0.03548,-3.254782 0.266417,-1.485825 0.995278,-2.838367 1.277063,-4.3397 0.145753,-0.776567 -0.24832,-1.678013 -0.24832,-2.457052 0,-2.14736 0.376,-4.133313 0.141896,-6.318099 C 15.597561,38.974943 14.566942,37.58462 13.874585,35.647045 13.268763,33.95164 13.586748,31.984444 13.271529,30.222401 12.766949,27.401846 11.694357,25.002412 10.894783,22.276905 10.540734,21.070058 10.434131,19.76157 10.043414,18.575395 9.5714341,17.142516 7.7310689,13.520212 6.7798138,12.416835 6.1537585,11.690662 5.4154856,11.270624 4.9351791,10.406523 4.2308215,9.1393404 3.8550053,7.6742816 3.2679067,6.3539996 2.8678012,5.4542325 2.382999,5.0693123 1.7780026,4.3437002 1.3265264,3.8022148 1.1507677,2.0162497 0.92663322,1.3441952 0.82224602,1.0311961 0.59022962,0.2196782 0.89115473,0.35498975 1.3502466,0.56142128 1.5499062,2.2240315 1.2458975,1.8228357 0.80140364,1.2362435 0.41530002,0.6076121 1.2744141e-6,3.2739258e-7" />
  </g>
</svg>
