<?xml version="1.0" encoding="UTF-8" standalone="no"?>
<!-- Created with Inkscape (http://www.inkscape.org/) -->

<svg
   width="169.33333mm"
   height="127mm"
   viewBox="0 0 169.33333 127"
   version="1.1"
   id="svg5"
   inkscape:version="1.1.2 (08b2f3d93c, 2022-04-05)"
   sodipodi:docname="DermeReticular.svg"
   xmlns:inkscape="http://www.inkscape.org/namespaces/inkscape"
   xmlns:sodipodi="http://sodipodi.sourceforge.net/DTD/sodipodi-0.dtd"
   xmlns="http://www.w3.org/2000/svg"
   xmlns:svg="http://www.w3.org/2000/svg">
  <sodipodi:namedview
     id="namedview7"
     pagecolor="#ffffff"
     bordercolor="#666666"
     borderopacity="1.0"
     inkscape:pageshadow="2"
     inkscape:pageopacity="0.0"
     inkscape:pagecheckerboard="0"
     inkscape:document-units="mm"
     showgrid="false"
     inkscape:zoom="0.61580177"
     inkscape:cx="129.91193"
     inkscape:cy="184.31256"
     inkscape:window-width="1366"
     inkscape:window-height="704"
     inkscape:window-x="0"
     inkscape:window-y="27"
     inkscape:window-maximized="1"
     inkscape:current-layer="layer2" />
  <defs
     id="defs2">
    <inkscape:path-effect
       effect="simplify"
       id="path-effect102"
       is_visible="true"
       lpeversion="1"
       steps="1"
       threshold="0.000408163"
       smooth_angles="360"
       helper_size="0"
       simplify_individual_paths="false"
       simplify_just_coalesce="false" />
    <inkscape:path-effect
       effect="simplify"
       id="path-effect65"
       is_visible="true"
       lpeversion="1"
       steps="1"
       threshold="0.000408163"
       smooth_angles="360"
       helper_size="0"
       simplify_individual_paths="false"
       simplify_just_coalesce="false" />
    <inkscape:path-effect
       effect="simplify"
       id="path-effect61"
       is_visible="true"
       lpeversion="1"
       steps="1"
       threshold="0.000408163"
       smooth_angles="360"
       helper_size="0"
       simplify_individual_paths="false"
       simplify_just_coalesce="false" />
    <inkscape:path-effect
       effect="simplify"
       id="path-effect57"
       is_visible="true"
       lpeversion="1"
       steps="1"
       threshold="0.000408163"
       smooth_angles="360"
       helper_size="0"
       simplify_individual_paths="false"
       simplify_just_coalesce="false" />
  </defs>
  <g
     inkscape:groupmode="layer"
     id="layer2"
     inkscape:label="Derme Reticular">
    <path
       style="fill:none;stroke:#000000;stroke-width:0.264583px;stroke-linecap:butt;stroke-linejoin:miter;stroke-opacity:1"
       d="m 2.1622078,97.684647 c 0.2679086,-1.512953 1.1877904,-2.808293 2.1966486,-3.930291 0.4981294,-0.553993 1.0796802,-1.024172 1.5971408,-1.558217 1.1824862,-1.220385 1.923084,-2.854553 3.3142375,-3.862416 0.9668053,-0.700431 2.0274733,-1.261235 3.1002793,-1.77989 2.733652,-1.321602 5.662619,-2.276405 8.20142,-3.971373 3.426692,-2.287746 6.218933,-5.378915 9.609428,-7.715175 0.821224,-0.565874 1.599226,-1.190277 2.348551,-1.848699 1.261305,-1.108293 2.523865,-2.276134 4.074871,-2.968806 2.006628,-0.896151 4.236836,-1.042292 6.320179,-1.68381 1.581653,-0.487034 2.979195,-1.449182 4.611847,-1.800499 0.984442,-0.211834 1.992395,-0.37108 2.910519,-0.818314 1.841122,-0.896842 3.582628,-2.002286 5.164499,-3.291582 0.298359,-0.243176 0.506495,-0.613256 0.908761,-0.720443 0.79843,-0.212748 1.643666,-0.242843 2.408017,-0.585941 1.361194,-0.611006 2.528207,-1.560287 3.712222,-2.450698 0.434462,-0.326727 0.872229,-0.647796 1.254537,-1.040403 0.546939,-0.561673 0.960682,-1.281571 1.632637,-1.694051 0.861441,-0.528796 1.796889,-0.927172 2.739655,-1.286372 2.012539,-0.76679 4.102308,-1.328032 6.06704,-2.222017 0.234862,-0.106866 0.326133,-0.378737 0.264682,-0.627264 -0.105118,-0.425132 -0.520538,-0.83342 -0.356459,-1.269954 0.181832,-0.483765 0.568035,-0.858504 0.943791,-1.198918 0.619833,-0.561534 1.423434,-1.030342 1.723929,-1.838854 0.105136,-0.282879 0.184435,-0.587848 0.428193,-0.796175 0.794408,-0.678938 1.939137,-0.827073 2.645013,-1.622642 0.506764,-0.571156 0.531677,-1.374204 0.600538,-2.093724 0.05646,-0.589953 0.221304,-1.206173 0.684283,-1.625257 1.54353,-1.397185 3.465158,-2.243121 5.290438,-3.192852 0.668799,-0.34799 1.237799,-0.845273 1.836248,-1.29594 0.433765,-0.32665 0.934702,-0.540699 1.444183,-0.723412 1.316444,-0.472109 2.582455,-1.087577 3.925934,-1.478908 0.895023,-0.260704 1.828555,-0.431868 2.643953,-0.922424 0.429031,-0.258112 0.717017,-0.682923 1.01776,-1.070563 0.827916,-1.067136 1.548259,-2.216301 2.410109,-3.256213 0.993748,-1.199061 2.426718,-1.963039 3.321278,-3.253104 0.68967,-0.994588 1.20512,-2.091726 1.80796,-3.138904 0.47509,-0.825262 0.44733,-1.878681 0.99318,-2.649194 0.46084,-0.650517 1.00356,-1.23891 1.545,-1.822186 0.46464,-0.500539 0.88987,-1.04394 1.40745,-1.489674 0.21778,-0.18755 0.67595,-0.296928 0.63334,-0.588039 -0.0194,-0.132666 -0.23822,-0.234059 0.0289,-0.298049 0.14957,-0.03583 0.30244,-0.05467 0.45435,-0.07734"
       id="path55"
       inkscape:path-effect="#path-effect57"
       inkscape:original-d="m 2.1622078,97.684647 c 0.359581,-2.057479 1.9426102,-3.802195 3.4703527,-5.176443 1.4176629,-1.275231 2.3214198,-3.315608 3.931603,-4.386149 3.5011315,-2.327746 7.8796355,-3.377962 11.2896315,-5.729639 2.915752,-2.010828 5.317443,-4.504616 8.104816,-6.638491 0.950484,-0.727647 1.958803,-1.356167 2.87732,-2.133804 1.248495,-1.057 2.396,-2.20372 3.799816,-3.062399 2.175703,-1.330825 4.794488,-1.476372 7.160355,-2.153554 1.379048,-0.394727 2.610041,-1.204527 3.975521,-1.639869 1.038341,-0.331042 2.334331,-0.407768 3.316613,-0.849564 1.920234,-0.863653 3.760425,-2.222585 5.469093,-3.418036 0.295331,-0.206623 0.511657,-0.627591 0.856607,-0.731022 0.759418,-0.227711 1.496777,-0.223179 2.262325,-0.513697 1.530282,-0.580726 3.212651,-2.023414 4.546608,-2.983367 0.828228,-0.596019 1.742509,-1.99153 2.438033,-2.390646 2.648526,-1.519814 5.814173,-2.103823 8.588023,-3.378515 0.985239,-0.452757 -0.321721,-1.375581 0.04392,-2.074526 0.554083,-1.059172 1.814386,-1.609802 2.460006,-2.607979 0.382895,-0.591987 0.117906,-0.793467 0.834647,-1.284232 0.807857,-0.553157 2.073018,-0.8177 2.591779,-1.699139 0.609846,-1.036203 0.117176,-2.552758 1.010354,-3.378514 1.67913,-1.55238 3.807481,-2.322804 5.732668,-3.477305 0.906275,-0.543476 1.534991,-1.322576 2.613756,-1.699139 1.298463,-0.453252 2.548236,-1.006043 3.843747,-1.462047 1.205582,-0.42435 2.117802,-0.401976 3.206771,-1.165691 0.566926,-0.397595 2.572364,-3.394736 3.250719,-4.20833 0.843298,-1.011428 1.963688,-1.696998 2.855358,-2.667249 0.87425,-0.951309 1.48141,-2.440737 2.17445,-3.556335 0.55768,-0.897709 0.66131,-1.80362 1.05429,-2.746273 0.17038,-0.408688 2.58697,-2.991535 2.89929,-3.29949 0.23456,-0.231284 0.55402,-0.390082 0.72482,-0.671754 0.0483,-0.07962 -0.19715,-0.224503 -0.10983,-0.256844 0.16967,-0.06284 0.41144,-0.09132 0.59305,-0.118544" />
    <path
       style="fill:none;stroke:#000000;stroke-width:0.264583px;stroke-linecap:butt;stroke-linejoin:miter;stroke-opacity:1"
       d="m 110.02875,16.12606 c -0.57532,0.435024 -1.07586,0.991899 -1.72615,1.305058 -0.0544,0.02621 -0.0169,-0.05672 -0.007,-0.07927 0.0682,-0.151957 0.1647,-0.291037 0.21946,-0.448665 0.19036,-0.547947 0.39018,-1.092626 0.56656,-1.645423 0.32017,-1.003434 0.67735,-1.998273 1.14446,-2.944042 0.23745,-0.480771 0.51017,-0.942933 0.7915,-1.399272 0.44755,-0.725962 0.83279,-1.4923652 1.34746,-2.1754332 0.25136,-0.3336043 0.53305,-0.6428529 0.81511,-0.9503551 1.00671,-1.0975055 2.08691,-2.1306185 3.00955,-3.3030205 0.21846,-0.277597 0.41501,-0.5712918 0.61817,-0.860188 0.34613,-0.4921966 0.77545,-0.9189778 1.22098,-1.320662 0.51917,-0.4680784 1.07249,-0.8957271 1.61739,-1.33289022 0.21887,-0.17559664 0.42594,-0.36507231 0.63323,-0.55396066 0.24021,-0.2188839 0.52035,-0.40994814 0.69331,-0.68550221 0.0545,-0.0867481 0.0675,-0.3823904 0.0992,-0.28667217 0.0102,0.0309077 0.004,0.08533 0.007,0.12503341 0.006,0.0875629 0.0129,0.19169576 0.088,0.24866664 0.0767,0.0581592 0.17599,0.0695433 0.26782,0.08550518 0.093,0.01617019 0.18608,0.03236117 0.27837,0.05243101"
       id="path59"
       inkscape:path-effect="#path-effect61"
       inkscape:original-d="m 110.02875,16.12606 c -0.57108,0.432295 -1.1233,0.890711 -1.71325,1.296886 -0.15111,0.104043 0.13764,-0.340318 0.19767,-0.513688 0.17959,-0.518639 0.36188,-1.001003 0.52715,-1.521319 0.50656,-1.594795 0.98965,-2.898956 1.91088,-4.366388 0.57475,-0.915517 0.97536,-1.7915539 1.69125,-2.6277398 1.30433,-1.5234968 2.99564,-3.0006613 4.10733,-4.6825061 0.80779,-1.2220848 2.54247,-2.4055663 3.18481,-2.98336863 0.33462,-0.30100097 0.73696,-0.65133138 1.03233,-0.9878685 0.0654,-0.0745585 0.10981,-0.37580948 0.10981,-0.2766069 0,0.46096853 0.11588,0.38144225 0.63696,0.49393611" />
    <path
       style="fill:none;stroke:#000000;stroke-width:0.264583px;stroke-linecap:butt;stroke-linejoin:miter;stroke-opacity:1"
       d="m 2.1622078,97.684647 c -0.032354,0.236794 -0.026223,0.478276 -0.07682,0.712583 -0.012012,0.05562 -0.024052,0.111848 -0.046288,0.16428 -0.026681,0.06291 -0.070318,0.116912 -0.1165633,0.166409 -0.097225,0.104061 -0.2078649,0.194581 -0.3212136,0.280333 -0.2213203,0.167436 -0.4542262,0.318817 -0.68907817,0.466405 -0.23053585,0.144876 -0.46621416,0.281396 -0.69690422,0.426 -0.0511749,0.03208 -0.10409245,0.06176 -0.15241768,0.09803 -0.07787134,0.05845 -0.14774907,0.1267 -0.21549722,0.19638 -0.11518387,0.11847 -0.23043265,0.23784 -0.33015184,0.36957 -0.0200074,0.0264 -0.083866,0.10274 -0.0598868,0.0798 0.0507939,-0.0485 0.0961149,-0.10271 0.14337905,-0.15472 0.85155544,-0.937091 1.70772431,-1.869975 2.56144201,-2.805093 z"
       id="path100"
       inkscape:path-effect="#path-effect102"
       inkscape:original-d="m 2.1622078,97.684647 c -0.039287,0.287642 -0.023815,0.588272 -0.1178617,0.862931 -0.1341335,0.391731 -1.56590935,1.176083 -1.95822299,1.434898 -0.23829458,0.157204 -0.78108499,0.832924 -0.58918175,0.621564 0.88576493,-0.975547 1.77684424,-1.946261 2.66526644,-2.919393" />
  </g>
</svg>
