<?xml version="1.0" encoding="UTF-8" standalone="no"?>
<!-- Created with Inkscape (http://www.inkscape.org/) -->

<svg
   width="169.33333mm"
   height="127mm"
   viewBox="0 0 169.33333 127"
   version="1.1"
   id="svg5"
   inkscape:version="1.1.2 (08b2f3d93c, 2022-04-05)"
   sodipodi:docname="DermePapilar.svg"
   xmlns:inkscape="http://www.inkscape.org/namespaces/inkscape"
   xmlns:sodipodi="http://sodipodi.sourceforge.net/DTD/sodipodi-0.dtd"
   xmlns="http://www.w3.org/2000/svg"
   xmlns:svg="http://www.w3.org/2000/svg">
  <sodipodi:namedview
     id="namedview7"
     pagecolor="#ffffff"
     bordercolor="#666666"
     borderopacity="1.0"
     inkscape:pageshadow="2"
     inkscape:pageopacity="0.0"
     inkscape:pagecheckerboard="0"
     inkscape:document-units="mm"
     showgrid="false"
     inkscape:zoom="0.665"
     inkscape:cx="225.56391"
     inkscape:cy="334.58647"
     inkscape:window-width="1366"
     inkscape:window-height="704"
     inkscape:window-x="0"
     inkscape:window-y="27"
     inkscape:window-maximized="1"
     inkscape:current-layer="layer2" />
  <defs
     id="defs2">
    <inkscape:path-effect
       effect="simplify"
       id="path-effect85"
       is_visible="true"
       lpeversion="1"
       steps="1"
       threshold="0.000408163"
       smooth_angles="360"
       helper_size="0"
       simplify_individual_paths="false"
       simplify_just_coalesce="false" />
    <inkscape:path-effect
       effect="simplify"
       id="path-effect81"
       is_visible="true"
       lpeversion="1"
       steps="1"
       threshold="0.000408163"
       smooth_angles="360"
       helper_size="0"
       simplify_individual_paths="false"
       simplify_just_coalesce="false" />
    <inkscape:path-effect
       effect="simplify"
       id="path-effect77"
       is_visible="true"
       lpeversion="1"
       steps="1"
       threshold="0.000408163"
       smooth_angles="360"
       helper_size="0"
       simplify_individual_paths="false"
       simplify_just_coalesce="false" />
    <inkscape:path-effect
       effect="simplify"
       id="path-effect73"
       is_visible="true"
       lpeversion="1"
       steps="1"
       threshold="0.000408163"
       smooth_angles="360"
       helper_size="0"
       simplify_individual_paths="false"
       simplify_just_coalesce="false" />
    <inkscape:path-effect
       effect="simplify"
       id="path-effect69"
       is_visible="true"
       lpeversion="1"
       steps="1"
       threshold="0.000408163"
       smooth_angles="360"
       helper_size="0"
       simplify_individual_paths="false"
       simplify_just_coalesce="false" />
    <inkscape:path-effect
       effect="simplify"
       id="path-effect65"
       is_visible="true"
       lpeversion="1"
       steps="1"
       threshold="0.000408163"
       smooth_angles="360"
       helper_size="0"
       simplify_individual_paths="false"
       simplify_just_coalesce="false" />
    <inkscape:path-effect
       effect="simplify"
       id="path-effect61"
       is_visible="true"
       lpeversion="1"
       steps="1"
       threshold="0.000408163"
       smooth_angles="360"
       helper_size="0"
       simplify_individual_paths="false"
       simplify_just_coalesce="false" />
    <inkscape:path-effect
       effect="simplify"
       id="path-effect57"
       is_visible="true"
       lpeversion="1"
       steps="1"
       threshold="0.000408163"
       smooth_angles="360"
       helper_size="0"
       simplify_individual_paths="false"
       simplify_just_coalesce="false" />
  </defs>
  <g
     inkscape:groupmode="layer"
     id="layer2"
     inkscape:label="Derme Papilar">
    <path
       style="fill:none;stroke:#000000;stroke-width:0.264583px;stroke-linecap:butt;stroke-linejoin:miter;stroke-opacity:1"
       d="m 9.2264464,126.70745 c 0.067822,-0.63508 0.2573392,-1.26501 0.6119241,-1.80125 0.4162315,-0.62947 1.0065865,-1.11202 1.5673135,-1.60622 0.874666,-0.77089 1.592521,-1.71821 2.553011,-2.38887 0.579454,-0.4046 1.198718,-0.74945 1.829001,-1.06759 1.36309,-0.68804 2.751007,-1.32695 4.167642,-1.89475 0.393831,-0.15785 0.827522,-0.14143 1.229174,-0.27941 1.058025,-0.36347 2.135622,-0.66666 3.175133,-1.08908 0.687581,-0.27941 1.396444,-0.50385 2.109544,-0.70747 0.941024,-0.2687 1.88884,-0.53732 2.861573,-0.65542 0.352613,-0.0428 0.715563,-0.0987 1.066769,-0.0266 0.09346,0.0192 0.191779,0.0521 0.24376,0.14303 0.07518,0.13151 0.109819,0.2874 0.236483,0.38983 0.606949,0.49082 1.204375,1.01057 1.904775,1.36341 0.281995,0.14206 0.609344,0.39368 0.906541,0.27158 0.116491,-0.0479 0.189532,-0.16128 0.258387,-0.26078 0.376568,-0.54417 0.646232,-1.15661 1.036527,-1.69078 0.07947,-0.10876 0.163463,-0.23758 0.308015,-0.26227 0.25021,-0.0427 0.50194,0.0252 0.74209,0.0894 0.604511,0.16161 1.196989,0.39954 1.826486,0.44126 0.305963,0.0203 0.636696,-0.031 0.87765,-0.23992 0.124775,-0.1082 0.207669,-0.26748 0.195015,-0.43683 -0.01986,-0.26584 -0.208046,-0.51571 -0.47257,-0.59253 -0.51499,-0.14955 -1.068844,-0.0842 -1.576864,-0.27087 -0.183917,-0.0676 -0.334807,-0.20326 -0.437307,-0.36955 -0.207471,-0.33658 -0.311192,-0.72217 -0.420421,-1.09801 -0.08997,-0.30959 -0.188375,-0.62766 -0.164584,-0.95438 0.01718,-0.2359 0.168592,-0.43997 0.361772,-0.5681 0.320851,-0.21281 0.711857,-0.28056 1.057262,-0.44284 0.105103,-0.0494 0.219505,-0.0349 0.331137,-0.0255 0.952297,0.0808 1.904283,0.17117 2.85153,0.29781 0.217889,0.0291 0.443884,0.0261 0.652868,0.0948 0.109805,0.0361 0.121241,0.16692 0.139826,0.26202 0.02053,0.10504 0.130626,0.14456 0.222746,0.16121 0.308165,0.0557 0.621252,-0.007 0.927961,-0.0437 0.266809,-0.032 0.537018,-0.0806 0.806979,-0.0465 0.137673,0.0174 0.225799,0.1302 0.327268,0.21163 0.148081,0.11884 0.330611,0.18434 0.519692,0.20418 0.244976,0.0257 0.498985,0.0491 0.722914,0.15472 0.197782,0.0933 0.335288,0.27482 0.546204,0.3522 0.813271,0.29837 1.677655,0.4654 2.546324,0.45398 0.802537,-0.0106 1.594187,-0.17291 2.364072,-0.38708 0.366235,-0.10188 0.749929,-0.18092 1.075539,-0.3804 0.09139,-0.056 0.231492,-0.1154 0.227648,-0.23433 -0.009,-0.27866 -0.162032,-0.52515 -0.301742,-0.75677 -0.213681,-0.35426 -0.469075,-0.69166 -0.593716,-1.09135 -0.06536,-0.2096 -0.0499,-0.44921 0.07852,-0.63406 0.230988,-0.33249 0.572525,-0.56383 0.839898,-0.86395 0.147235,-0.16527 0.357403,-0.36911 0.298844,-0.59077 -0.02708,-0.10251 -0.134009,-0.15601 -0.221522,-0.19982 -0.403701,-0.20211 -0.838073,-0.33407 -1.272207,-0.45103 -0.356899,-0.0961 -0.75322,-0.004 -1.08887,-0.17991 -0.328053,-0.17197 -0.550459,-0.47999 -0.783678,-0.75712 -0.226667,-0.26934 -0.468698,-0.5565 -0.811849,-0.67782 -0.525551,-0.1858 -1.090278,-0.14379 -1.63741,-0.17131 -0.285453,-0.0144 -0.562785,-0.0863 -0.836782,-0.16318 -0.67662,-0.18997 -1.352399,-0.38133 -2.0419,-0.52655 -0.496957,-0.10467 -0.977613,-0.2736 -1.45461,-0.44737 -0.124017,-0.0452 -0.238194,-0.11393 -0.327648,-0.21307 -0.114668,-0.12708 -0.246372,-0.24761 -0.418406,-0.2929 -0.236585,-0.0623 -0.512165,-1e-5 -0.718604,-0.1481 -0.197871,-0.14194 -0.22075,-0.43454 -0.435967,-0.55699 -0.420401,-0.23919 -0.899179,-0.34631 -1.368859,-0.43998 -0.497995,-0.0993 -0.999102,-0.18729 -1.486863,-0.33215 -0.933702,-0.2773 -1.831949,-0.65877 -2.722293,-1.05438 -0.233948,-0.10395 -0.443501,-0.29243 -0.510401,-0.54771 -0.08698,-0.3319 0.0031,-0.67356 0.08178,-0.997646 0.07789,-0.320888 0.183207,-0.64487 0.156314,-0.979864 -0.01068,-0.133013 -0.07299,-0.256979 -0.177696,-0.344037 -0.192652,-0.160177 -0.475464,-0.229266 -0.597709,-0.456737 -0.102548,-0.190819 -0.138886,-0.408231 -0.185662,-0.617623 -0.07768,-0.347714 -0.143586,-0.69838 -0.248496,-1.04006 -0.02451,-0.07983 -0.117815,-0.238384 -0.199451,-0.127608 -0.111521,0.151329 -0.151715,0.343454 -0.204032,0.520731"
       id="path55"
       inkscape:path-effect="#path-effect57"
       inkscape:original-d="m 9.2264464,126.70745 c 0.1899412,-1.6904 0.9945586,-2.37397 2.1462446,-3.37855 0.93996,-0.8199 1.75091,-1.8782 2.790119,-2.55805 1.778097,-1.16322 3.841126,-1.8998 5.741212,-2.79937 0.360228,-0.17055 0.823363,-0.14166 1.198319,-0.27351 0.996245,-0.35031 2.196051,-0.6418 3.165713,-1.07791 1.027293,-0.46204 5.380299,-1.78723 6.277763,-1.3836 0.142243,0.064 0.15892,0.34873 0.286168,0.45047 0.634966,0.50772 1.972461,1.67319 2.843776,1.67319 0.274299,0 1.198259,-1.98955 1.502368,-2.17193 0.604663,-0.36261 2.905355,1.15579 3.666503,0.12871 0.224314,-0.30268 -0.0074,-0.77974 -0.304048,-0.88486 -0.5603,-0.19855 -1.293845,-0.0717 -1.806422,-0.37003 -0.366284,-0.21319 -0.524724,-0.82138 -0.643874,-1.19054 -0.448953,-1.39099 -0.372591,-1.70093 1.305634,-2.20411 0.0896,-0.0269 3.481544,0.33066 3.720161,0.40221 0.153985,0.0462 0.08817,0.29895 0.214622,0.37004 0.453676,0.25506 1.735775,-0.24052 2.038932,0.0322 0.538162,0.48409 0.595064,0.24814 1.323515,0.46657 0.25904,0.0777 0.360627,0.28554 0.590221,0.37003 1.318514,0.48519 2.504906,0.60313 3.934783,0.32177 0.214715,-0.0422 2.3251,-0.47218 2.3251,-0.85269 0,-0.68407 -1.250667,-1.69362 -0.858501,-2.41325 0.268346,-0.49242 1.140224,-0.93353 1.180438,-1.51231 0.01672,-0.24055 -1.224994,-0.57579 -1.430829,-0.64353 -0.334817,-0.11018 -0.69215,-0.0429 -1.019466,-0.14479 -0.646118,-0.20119 -1.019429,-1.2034 -1.66334,-1.46405 -0.685155,-0.27734 -1.504876,-0.0928 -2.217793,-0.27349 -0.766035,-0.19411 -1.491322,-0.46161 -2.271443,-0.59527 -0.47022,-0.0806 -1.236078,-0.32267 -1.663338,-0.51484 -0.202416,-0.091 -0.301558,-0.32454 -0.518678,-0.41829 -0.257014,-0.11097 -0.546423,-0.0419 -0.786956,-0.16088 -0.236238,-0.11688 -0.247496,-0.45287 -0.50079,-0.59527 -0.679923,-0.38226 -1.777759,-0.47009 -2.539722,-0.67571 -0.984382,-0.26564 -2.141445,-0.70011 -3.058398,-1.15836 -1.113819,-0.55664 0.0098,-1.92016 -0.268287,-2.670669 -0.09962,-0.268859 -0.602999,-0.379709 -0.751179,-0.659622 -0.260816,-0.492673 -0.396505,-2.857596 -0.822732,-1.238803" />
    <path
       style="fill:none;stroke:#000000;stroke-width:0.264583px;stroke-linecap:butt;stroke-linejoin:miter;stroke-opacity:1"
       d="m 32.352239,96.638344 c 0.02432,-0.130979 0.168013,-0.249176 0.12481,-0.376834 -0.0478,-0.141229 -0.112694,0.01177 -0.120457,0.103049 -0.0079,0.09336 0.04931,0.361435 0.0068,0.289676 -0.227802,-0.384426 -0.269293,-0.838496 -0.373713,-1.264482 -0.06439,-0.262682 -0.189363,-0.505138 -0.343434,-0.726941 -0.235281,-0.338713 -0.493937,-0.674721 -0.601466,-1.082866 -0.187943,-0.713369 -0.143499,-1.476637 -0.427217,-2.167099 -0.107034,-0.26048 -0.211346,-0.52778 -0.214829,-0.816619 -0.0032,-0.267271 0.07849,-0.524839 0.186576,-0.7664 0.115108,-0.257257 0.20029,-0.539175 0.154087,-0.825078 -0.04944,-0.305954 -0.175833,-0.61374 -0.100957,-0.926343 0.364313,-1.520978 1.063744,-2.970149 2.091905,-4.156136 1.08523,-1.251816 2.498287,-2.175835 3.987789,-2.876376 0.634674,-0.298499 1.271852,-0.603078 1.943323,-0.805688 0.643152,-0.194065 1.340092,-0.08409 1.973818,-0.326868 2.047338,-0.784332 3.993595,-1.855271 6.104704,-2.446581 0.323687,-0.09066 0.656174,0.136493 0.974885,0.02134 0.485958,-0.17558 0.967919,-0.382025 1.391155,-0.676478 0.202565,-0.140928 0.27801,-0.437762 0.519818,-0.512352 0.120535,-0.03718 0.245359,0.0057 0.367887,0.01482 0.622796,0.04637 1.208887,-0.343019 1.831716,-0.301029 0.591675,0.03989 1.187579,0.05072 1.771166,0.175378 0.575426,0.122916 1.154854,0.284165 1.74948,0.253778 0.341196,-0.01744 0.646974,-0.18327 0.957947,-0.30688 0.506865,-0.201476 1.039772,-0.398678 1.595033,-0.368296 0.367601,0.02011 0.718865,0.207099 0.940399,0.501819 0.300252,0.399444 0.459783,0.879874 0.634769,1.342158 0.191299,0.505381 0.357797,1.037571 0.696751,1.465904 0.14686,0.185586 0.322443,0.385112 0.558417,0.434677 0.170896,0.0359 0.348112,0.01066 0.51552,0.09148 0.09507,0.0459 0.212181,0.197712 0.291923,0.126541 0.09865,-0.08805 -0.0067,-0.221014 0.01804,-0.339849 0.0556,-0.267022 0.207064,-0.541759 0.123767,-0.812783 -0.0405,-0.131781 -0.168644,-0.202394 -0.261339,-0.297053 -0.114133,-0.116552 -0.0432,-0.288565 0.06559,-0.383499 0.207164,-0.180783 0.50623,-0.170778 0.758706,-0.118853 0.551037,0.113328 1.085751,0.377021 1.454941,0.811557 0.355031,0.417871 0.550055,0.952547 0.930406,1.348595 0.263646,0.274527 0.604543,0.475701 0.803912,0.811449 0.349103,0.587907 0.465033,1.270218 0.62121,1.925967 0.12,0.503851 0.22678,1.032894 0.527046,1.461462 0.30467,0.434854 0.672791,0.820366 0.995145,1.241675 0.234059,0.305909 0.478334,0.616451 0.608241,0.983394 0.07217,0.203864 0.02221,0.422528 -0.02135,0.626045 -0.117651,0.549742 -0.875907,2.050325 -0.60457,1.562615 0.182383,-0.327822 0.344027,-0.666453 0.533234,-0.991151 0.454691,-0.780295 0.941897,-1.549602 1.278091,-2.389379 0.100398,-0.250784 0.133469,-0.521507 0.219811,-0.781597 0.02306,-0.06947 -0.158316,-0.248513 -0.119751,-0.176722 0.108564,0.202099 0.251671,0.382254 0.368939,0.580285 0.243402,0.411035 0.583891,0.756408 0.833229,1.163052 0.1849,0.301552 0.291771,0.642549 0.399069,0.977241 0.225296,0.702763 0.421984,1.414459 0.595023,2.131452 0.02495,0.103398 0.141864,0.146586 0.232436,0.17501 0.175896,0.0552 0.387347,0.06219 0.511179,0.21965 0.155601,0.197858 0.153676,0.462432 0.17262,0.700584 0.0487,0.612165 0.08233,1.22565 0.09037,1.83947 0.0014,0.103723 0.05483,-0.02689 0.09991,-0.06375 0.421839,-0.344969 0.946487,-0.597558 1.256303,-1.047386 0.140963,-0.204667 0.162498,-0.462415 0.18736,-0.702654 0.05479,-0.529458 0.0427,-1.071733 0.192614,-1.586754 0.07171,-0.24637 0.217732,-0.516127 0.485203,-0.581426 0.13176,-0.03217 0.289516,-0.04131 0.396727,0.06453 0.150973,0.149042 0.216512,0.374927 0.407521,0.484367 0.082,0.04698 0.290231,0.230129 0.259527,0.147652 -0.01971,-0.05296 -0.155125,-0.228609 -0.0183,-0.133246 0.154516,0.107692 0.322587,0.204746 0.447972,0.345732 0.237091,0.266592 0.330499,0.623413 0.414687,0.961507 0.08275,0.332308 0.106573,0.680231 0.224228,1.002363 0.185043,0.506637 0.719143,0.788167 0.882635,1.308072 0.150237,0.477755 0.04275,1.005209 0.218734,1.472067 0.07453,0.197723 0.250497,0.324599 0.360178,0.502623 0.266489,0.43254 0.45115,0.920588 0.796871,1.301003 0.268541,0.29549 0.665149,0.436924 1.05723,0.466491 0.662484,0.04996 1.312657,-0.131316 1.970787,-0.163129 0.338773,-0.01638 0.695215,0.03396 1.015806,-0.111986 0.269457,-0.122672 0.451584,-0.391557 0.493817,-0.682807 0.06304,-0.434718 -0.05589,-0.870636 -0.196634,-1.278459 -0.150348,-0.435654 -0.374995,-0.840671 -0.546274,-1.267543 -0.207289,-0.516618 -0.03791,-1.091297 -0.248273,-1.613381 -0.08753,-0.217235 -0.297739,-0.379042 -0.318285,-0.622406 -0.0126,-0.149223 -0.02415,-0.315298 0.04846,-0.446154 0.156165,-0.281454 0.364749,-0.530496 0.575776,-0.771712 0.268725,-0.307169 0.596257,-0.560558 0.85435,-0.878447 0.112342,-0.13837 0.220373,0.005 0.27944,0.11366 0.108468,0.199511 0.192516,0.435223 0.405794,0.549843 0.168161,0.09037 0.360082,0.141478 0.493178,0.292217 0.301157,0.341078 0.565307,0.713209 0.820956,1.089763 0.07838,0.11545 0.115176,0.246965 0.127818,0.387757 0.164873,1.836228 -0.191417,3.679829 0.02877,5.514051 0.05568,0.463798 0.155917,0.926432 0.360881,1.350133 0.351568,0.726761 0.956745,1.296527 1.311295,2.019484 0.227195,0.463269 0.123411,1.955486 0.306008,1.478036 0.289243,-0.75631 0.446185,-1.584432 0.895577,-2.25829 0.0333,-0.04993 0.125145,-0.241591 0.122259,-0.190685 -0.0035,0.0613 -0.02051,0.120936 -0.03414,0.180527"
       id="path59"
       inkscape:path-effect="#path-effect61"
       inkscape:original-d="m 32.352239,96.638344 c 0.02384,-0.144801 0.21635,-0.410559 0.07155,-0.434409 -0.144801,-0.02384 7.94e-4,0.562034 -0.07155,0.434409 -0.299368,-0.527351 -0.250963,-1.209778 -0.554445,-1.737563 -0.229415,-0.398974 -0.575818,-0.746223 -0.715412,-1.190538 -0.216339,-0.688591 -0.170122,-1.483127 -0.411361,-2.155838 -0.164563,-0.458891 -0.322818,-0.64334 -0.250399,-1.190538 0.04928,-0.372332 0.259882,-0.640236 0.321937,-0.997479 0.08421,-0.484823 -0.216768,-0.825079 -0.08943,-1.335328 1.064565,-4.265655 4.010197,-6.301793 7.90534,-7.754586 0.646967,-0.241303 1.389113,-0.09813 2.056815,-0.353946 2.045571,-0.78372 4.10944,-1.678517 6.098916,-2.44543 0.315661,-0.121682 0.689218,0.128947 1.037355,0 0.460017,-0.170387 0.895712,-0.403463 1.323514,-0.643533 0.253606,-0.142317 0.392049,-0.590124 0.679643,-0.547002 0.683906,0.102539 1.437101,-0.0036 2.074709,-0.273505 0.444185,0.03105 0.891374,0.03294 1.332556,0.09314 0.708859,0.09671 1.848533,0.520798 2.575491,0.257413 0.788168,-0.28556 2.199221,-1.081903 3.02263,-0.193059 0.733456,0.791742 0.879011,2.826376 1.89585,3.314202 0.161391,0.07743 0.349504,0.01127 0.518677,0.08044 0.0485,0.01983 0.340966,0.192026 0.375593,0.16088 0.07177,-0.06455 -0.01514,-0.194253 0,-0.289587 0.03827,-0.241002 0.210055,-0.617692 0.125196,-0.884862 -0.04171,-0.131324 -0.423503,-0.283841 -0.286167,-0.530916 0.289482,-0.520792 1.233312,-0.166511 1.573913,0 0.872006,0.426301 1.031988,1.088156 1.556031,1.785808 0.247639,0.329678 0.631574,0.512489 0.858495,0.852682 0.630499,0.945225 0.582191,2.366621 1.144669,3.378556 0.311577,0.56055 1.743669,1.916687 1.699108,2.558048 -0.04713,0.678397 -0.365329,1.306008 -0.643873,1.914514 -0.09076,0.198264 0.205896,-0.384481 0.304055,-0.579185 0.200511,-0.397726 2.127966,-3.432414 1.627564,-3.732497 -0.157859,-0.09466 0.178858,0.321769 0.268286,0.482653 0.213425,0.383961 0.560543,0.870062 0.858495,1.222712 0.400877,0.474471 0.997696,3.165911 1.055236,3.21767 0.280936,0.252712 0.658183,0.04651 0.822731,0.530916 0.128316,0.377744 0.136366,2.731031 0.178853,2.348904 0.435211,-0.359307 0.899757,-0.685781 1.305634,-1.077922 0.487742,-0.471235 -0.07882,-3.005524 1.126774,-2.928083 0.225768,0.0145 0.341065,0.395923 0.500796,0.514832 0.856557,0.637649 -0.329265,-0.448681 0.679642,0.33785 0.471725,0.367751 0.555171,1.460409 0.69753,1.962784 0.161665,0.570501 0.739299,0.825582 0.912152,1.399682 0.137186,0.455637 0.08979,0.950604 0.196747,1.399689 0.05259,0.2208 0.227408,0.316736 0.339812,0.498736 0.552619,0.894782 0.712896,1.76733 1.949513,1.834078 0.621972,0.03357 1.209965,-0.102717 1.824304,-0.160887 0.308163,-0.02918 0.723031,0.0355 1.019473,-0.08044 1.273167,-0.497943 0.162292,-2.530926 -0.14309,-3.21767 -0.230203,-0.51768 -0.03822,-1.074174 -0.23251,-1.576658 -0.188116,-0.48651 -0.459963,-0.447901 -0.32193,-1.110095 0.05202,-0.249545 1.45854,-1.873494 1.591794,-1.753629 0.159589,0.143555 0.210906,0.37537 0.339824,0.547 0.170018,0.226347 0.359607,0.22 0.572334,0.353946 0.158178,0.0996 1.031549,1.224176 1.055236,1.447952 0.216567,2.045907 -0.265233,4.171039 0.125196,6.177927 0.226965,1.166647 0.97902,1.783905 1.53815,2.751107 0.30356,0.525108 0.144183,1.064484 0.357705,1.576654 1.87e-4,4.5e-4 1.236745,-3.292801 0.983697,-2.268451" />
    <path
       style="fill:none;stroke:#000000;stroke-width:0.264583px;stroke-linecap:butt;stroke-linejoin:miter;stroke-opacity:1"
       d="m 89.111605,98.629897 c 0.203058,0.78753 0.103798,1.712773 0.608084,2.364983 0.179846,0.2326 0.549841,-0.0769 0.733306,0.14479 0.173172,0.20921 0.174413,0.5696 0.424789,0.69026 0.255597,0.12318 0.638777,0.47983 0.816018,0.25415 0.136735,-0.1741 0.121932,-0.46944 0.168852,-0.69566 0.04948,-0.23855 -0.03619,-0.4588 -0.166655,-0.66445 -0.243238,-0.38342 -0.548874,-0.753111 -0.641121,-1.209979 -0.05406,-0.267715 0.224248,-0.392129 0.456311,-0.426203 0.320367,-0.04704 0.582743,0.189577 0.736656,0.459006 0.148951,0.260744 0.178308,0.660936 0.467943,0.774406 0.28001,0.1097 0.576429,0.1155 0.75713,0.45206 0.317067,0.59055 0.474811,1.24948 0.782229,1.84423 0.23432,0.45333 0.711355,0.69997 1.194539,0.8244 0.395311,0.1018 0.824814,0.009 1.203643,0.16023 0.280297,0.11165 0.565148,-0.0328 0.749865,-0.24717 0.349119,-0.40516 0.250018,-1.00077 0.05057,-1.45207 -0.187464,-0.42419 -0.544496,-0.72986 -0.881414,-1.05261 -0.23359,-0.22377 -0.340884,-0.53642 -0.520799,-0.80152 -0.376531,-0.554806 -0.713303,-1.179429 -0.714716,-1.86744 -0.0025,-1.19727 0.29609,-2.37981 0.740835,-3.483848 0.427698,-1.061721 0.917821,-2.169968 1.803579,-2.911213 0.449899,-0.376497 1.057943,-0.482167 1.623391,-0.531647 1.220736,-0.106822 2.451556,0.01557 3.656246,0.229318 0.5828,0.103406 1.12492,0.374231 1.73071,0.39199 0.32127,0.0094 0.40342,-0.346815 0.35461,-0.602395 -0.11173,-0.584984 -0.53624,-1.040484 -0.92982,-1.457109 -0.27983,-0.296214 -0.50786,-0.638824 -0.64358,-1.027429 -0.17814,-0.510066 -0.30316,-1.107038 -0.77393,-1.431157 -0.38765,-0.26689 -0.94639,-0.230477 -1.24861,-0.631319 -0.2178,-0.288871 -0.35421,-0.621671 -0.56282,-0.922248 -0.23891,-0.344237 -0.59917,-0.614022 -0.75733,-1.002285 -0.14656,-0.359782 -0.13789,-0.757661 -0.18398,-1.138571 -0.219204,-1.811597 -0.510149,-3.622428 -1.047196,-5.373438 -0.154912,-0.505081 -0.415025,-0.967358 -0.725334,-1.395648 -0.284762,-0.39303 -0.65729,-0.737474 -0.845174,-1.188481 -0.45434,-1.090626 -0.808102,-2.220172 -1.221752,-3.326614 -0.145999,-0.390522 -0.187328,-0.808747 -0.201465,-1.221881 -0.0087,-0.254969 0.02156,-0.657097 0.327899,-0.685402 0.306025,-0.02828 0.672791,-0.03445 0.909915,0.184428 0.499117,0.460705 0.621794,1.224781 1.197471,1.608379 0.516379,0.344085 1.225641,0.355032 1.645856,0.845984 0.25395,0.296699 0.42754,0.66248 0.76659,0.886915 0.51163,0.338675 1.07197,0.68714 1.70505,0.710278 0.41759,0.01526 0.76531,-0.295033 0.9197,-0.665525 0.22611,-0.542591 0.30958,-1.147205 0.24925,-1.72488 -0.0516,-0.494594 -0.40661,-0.893613 -0.41225,-1.408931 -0.005,-0.4643 0.14756,-0.963045 -0.0555,-1.399395 -0.21089,-0.453098 -0.66638,-0.770129 -0.75386,-1.289952 -0.0538,-0.319682 -0.0216,-0.702493 -0.30203,-0.931111 -0.23342,-0.190295 -0.29287,-0.499216 -0.37451,-0.772081 -0.37162,-1.242055 -0.29246,-2.555085 -0.17518,-3.847028 0.0444,-0.488781 -0.31002,-1.022861 -0.0338,-1.464501 0.42708,-0.682846 1.10366,-1.15892 1.59273,-1.791342 0.25668,-0.331916 0.33819,-0.725899 0.57815,-1.093288 0.18076,-0.276748 0.37758,0.07123 0.48089,0.2362 0.13268,0.211862 0.13271,0.624599 0.38261,0.645376 0.24253,0.02016 0.49609,-0.05646 0.72631,-0.135914 0.59422,-0.205076 1.21705,-0.459646 1.62945,-0.947303 0.27486,-0.325019 0.27465,-0.773649 0.3598,-1.169962 0.0948,-0.441421 0.0469,-0.921708 -0.20728,-1.304455 -0.17108,-0.257624 -0.27616,-0.555469 -0.26032,-0.875955 0.0312,-0.631923 0.33737,-1.248963 0.85756,-1.622796 0.67316,-0.483763 1.52636,-0.557365 2.30644,-0.772623 0.2335,-0.06443 0.4863,-0.285365 0.71201,-0.173569 0.49567,0.245507 1.12477,0.696259 1.59179,0.402209 0.41865,-0.263596 0.77219,-0.909627 1.25683,-0.793105 0.2882,0.06929 0.52403,0.271617 0.7727,0.424953 0.41425,0.255436 0.79558,0.67371 1.28888,0.698269 0.84687,0.04216 1.68566,-0.195195 2.4398,-0.577323 0.57428,-0.29099 1.09699,-0.693606 1.70458,-0.908267 0.3198,-0.112986 0.65659,-0.223702 0.88069,-0.50549 0.33344,-0.419283 1.2056,-1.016687 0.8138,-1.379712 -0.15047,-0.139419 -0.31112,-0.248051 -0.44066,-0.426891 -0.23811,-0.328739 -0.52888,-0.655196 -0.94823,-0.753266 -0.47459,-0.11099 -0.98941,-0.180217 -1.38702,-0.471784 -0.41938,-0.307532 -0.70525,-0.773139 -1.19463,-0.998701 -0.61161,-0.281901 -1.30566,-0.369235 -1.87287,-0.756613 -0.26329,-0.179815 -0.26353,-0.534566 -0.51828,-0.736145 -0.4762,-0.376811 -1.0519,-0.578362 -1.59989,-0.825137 -0.40014,-0.180194 -0.89485,-0.256042 -1.17306,-0.611328 -0.14089,-0.179923 -0.0774,-0.430783 -0.0213,-0.629596 0.11307,-0.400774 0.29662,-0.790471 0.24005,-1.230823 -0.0323,-0.251684 -0.2196,-0.426642 -0.38114,-0.607438 -0.21418,-0.23971 -0.56597,-0.476352 -0.53109,-0.813377 0.0236,-0.227572 0.20923,-0.402222 0.36781,-0.551506 0.37067,-0.348935 0.9262,-0.354468 1.39186,-0.211307 0.6504,0.199958 1.18749,0.651454 1.81557,0.896694 0.71837,0.280494 1.52079,0.25638 2.22281,0.59818 0.5836,0.284143 1.01616,0.784692 1.45067,1.250768 0.71415,0.766029 1.34692,1.603726 2.05134,2.377955 0.93553,1.028247 2.04718,1.880715 3.19993,2.65168 0.838,0.56046 1.82615,0.988827 2.85591,0.915049 1.05191,-0.07536 1.9781,-0.644303 2.83206,-1.217316 0.87118,-0.58457 1.67388,-1.353618 2.68817,-1.64026 0.66346,-0.187497 1.35412,-0.252074 2.0308,-0.376897 0.76346,-0.14083 1.54871,-0.246993 2.26291,-0.565152 0.20337,-0.0906 0.37822,-0.244649 0.4421,-0.474397 0.17731,-0.637688 -0.13875,-1.25702 -0.38412,-1.829547 -0.20858,-0.486683 -0.48193,-1.052277 -0.285,-1.561443 0.18337,-0.47411 0.47622,-0.912633 0.55891,-1.423217 0.0541,-0.334062 -0.49295,-0.123195 -0.46901,-0.159955 0.48892,-0.750898 1.03459,-1.470116 1.70018,-2.076094 0.41078,-0.37399 0.84174,-0.829097 0.86633,-1.407265 0.009,-0.219864 -0.26961,-0.316805 -0.42406,-0.471922 -0.15039,-0.151038 -0.0361,-0.360115 -0.0575,-0.545723 -0.03,-0.25903 -0.24838,-0.453473 -0.39445,-0.659912 -0.39158,-0.553408 -0.7566,-1.12418 -1.09159,-1.718287 -0.12162,-0.215694 -0.005,-0.440963 0.0801,-0.643007 0.11976,-0.285464 0.35877,-1.167507 0.36128,-0.858956 8.8e-4,0.108249 -0.12093,0.59461 0.0326,0.288035 0.1925,-0.384446 0.21955,-0.881362 0.60516,-1.144432 0.28402,-0.193765 0.71694,-0.175518 0.93112,0.130934 0.20777,0.297287 0.29574,0.705062 0.65105,0.877245 0.24735,0.119864 0.47539,0.248828 0.7018,0.434045 0.18614,0.152272 0.10155,0.544828 0.32906,0.592277 0.5625,0.117312 1.15107,0.07392 1.70795,0.211959 0.41016,0.101672 0.55122,0.637639 0.95063,0.714877 0.28392,0.0549 0.54379,-0.217765 0.84194,0.0032 0.66314,0.491433 1.26135,1.128618 2.06431,1.378462 0.53021,0.164976 1.1068,-0.07792 1.62724,0.168378 0.4147,0.196258 0.80372,0.958918 1.18076,0.700391 0.57593,-0.394902 1.12587,-0.876232 1.82846,-1.036708 0.4894,-0.111782 1.00304,-0.346534 1.49353,-0.21912 0.14544,0.03778 0.40091,0.261848 0.39566,-0.0514 -0.005,-0.28565 -0.0935,-0.573916 -0.31132,-0.774274 -0.4836,-0.444937 -1.28896,-0.384517 -1.6941,-0.907376 -0.25502,-0.329123 -0.23076,-0.772063 -0.46712,-1.12142 -0.4175,-0.617082 -1.17556,-1.024576 -1.37353,-1.757817 -0.0798,-0.295602 -0.16575,-0.580189 -0.34969,-0.842563 -0.27514,-0.392459 -0.55437,-0.797418 -0.97163,-1.059661 -0.51827,-0.325726 -1.07257,-0.619011 -1.4632,-1.112201 -0.80457,-1.015797 -1.13064,-2.301101 -1.40778,-3.539317 -0.14991,-0.669783 -0.38102,-1.317768 -0.54397,-1.983843 -0.14133,-0.577694 -0.1954,-1.181605 -0.0845,-1.787683 0.0563,-0.307632 0.38777,-0.302019 0.60873,-0.139094 0.38358,0.282836 0.71081,0.642496 0.97792,1.033386 0.26366,0.385842 0.24642,0.905917 0.53842,1.269454 0.25025,0.311562 0.71063,0.485453 0.77164,0.92517 0.0558,0.402524 -0.081,0.829644 0.12187,1.211734 0.35204,0.662942 0.94696,1.149595 1.53285,1.59934 0.30888,0.237106 0.77926,0.313428 0.96806,0.651571 0.14139,0.253234 0.0331,0.554046 -0.0276,0.815687 -0.0672,0.289465 0.213,0.40893 0.48168,0.401622 0.32564,-0.0089 0.71294,-0.198636 0.98538,2.52e-4 0.20854,0.152239 0.0622,0.446998 -0.0139,0.631418 -0.0848,0.205569 -0.15474,0.572625 0.12428,0.640365 0.23483,0.05701 0.54327,-0.151853 0.71194,0.02997 0.30984,0.334009 0.11674,0.923261 0.49785,1.204096 0.26857,0.197907 0.65362,0.198153 0.86,0.498907 0.30038,0.437743 0.38266,1.033153 0.8516,1.347851 0.49099,0.329498 1.05676,0.6046 1.64982,0.626144 0.42771,0.01554 0.84083,-0.19954 1.27548,-0.0739 0.48216,0.139368 0.9643,0.284767 1.48371,0.268301 0.28989,-0.0092 0.61957,-0.08563 0.8699,0.124843 0.21881,0.183974 0.35668,0.484446 0.25553,0.763257 -0.0835,0.230102 -0.0145,0.374822 0.21273,0.553956 0.20237,0.159564 0.45393,0.107952 0.68517,0.03911 0.36455,-0.108524 0.71425,-0.379056 1.1027,-0.315019 0.29235,0.04819 0.59949,0.241693 0.88806,0.08553 0.18515,-0.100194 0.48337,-0.132107 0.53759,-0.342662 0.0732,-0.284166 -0.0993,-0.561874 7.5e-4,-0.858382 0.1062,-0.314693 0.38813,-0.637788 0.28256,-0.961556 -0.10179,-0.312181 -0.35963,-0.544245 -0.60105,-0.752177 -0.34528,-0.29739 -0.68446,-0.606134 -1.09429,-0.819441 -0.68694,-0.357537 -1.43553,-0.629854 -2.01041,-1.172386 -0.67467,-0.636711 -1.19952,-1.425249 -1.97153,-1.96234 -0.43208,-0.300599 -0.89015,-0.634093 -1.08547,-1.145411 -0.17898,-0.468541 -0.53909,-0.831147 -0.85233,-1.211207 -0.55081,-0.668304 -1.19591,-1.331752 -1.41707,-2.182681 -0.13812,-0.531433 -0.17654,-1.096746 -0.46381,-1.582713 -0.33651,-0.569264 -0.87624,-0.966467 -1.36772,-1.391287 -0.56248,-0.486189 -0.98384,-1.176228 -1.04298,-1.908288 -0.0603,-0.746929 -0.0128,-1.49798 0.027,-2.248013 0.0128,-0.24076 0.10578,-0.562514 0.45575,-0.401705 0.54578,0.250785 1.13986,0.491243 1.52848,0.946496 0.33209,0.389029 0.52039,0.874897 0.73631,1.333051 0.23866,0.506401 0.36602,1.084441 0.72393,1.516779 0.3948,0.476901 0.90508,0.838587 1.38485,1.223775 0.54577,0.438181 1.08973,0.884228 1.53432,1.433774 0.32034,0.395963 0.69345,0.859128 1.23587,0.902432 0.31096,0.02482 0.33505,-0.410003 0.39753,-0.630758 0.0893,-0.315397 0.11666,-0.642772 0.0815,-0.969371 -0.0621,-0.577451 -0.14886,-1.159809 -0.0437,-1.742107 0.14198,-0.786432 0.3754,-1.572867 0.26436,-2.386409 -0.0676,-0.495578 -0.19107,-1.021342 0.0212,-1.502026 0.15751,-0.356683 0.32255,-0.713297 0.36421,-1.110478 0.0703,-0.670165 -0.0425,-1.387068 0.2541,-2.011905 0.13452,-0.283417 0.40492,-0.463041 0.62317,-0.67759 0.33974,-0.333984 0.94237,-0.547376 1.00177,-1.0208963 0.0176,-0.1401339 -0.1922,0.2232607 -0.20686,-0.04013 -0.0658,-1.1819632 0.30889,-2.3669039 0.0498,-3.5432732 -0.1421,-0.6451713 -0.56573,-1.1803771 -1.0487,-1.6126683 -0.4126,-0.3693057 -0.7275,-0.8201521 -0.98547,-1.3298824 -0.13641,-0.2695341 -0.5135,-0.3344855 -0.61862,-0.6276287 -0.17818,-0.4968772 -0.22461,-1.0288989 -0.1756,-1.5630677 0.0303,-0.33025891 -0.2425,-0.57344525 -0.46189,-0.77462636 -0.47854,-0.43881751 -0.92149,-0.91854709 -1.43069,-1.32224964 -0.41216,-0.3267656 -0.87717,-0.6741867 -1.40653,-0.6918004 -0.17499,-0.00582 -0.52793,-0.4268541 -0.20073,-0.3223488 0.28813,0.092026 0.45192,0.3857263 0.61583,0.6195035 0.0639,0.091094 0.12583,0.1835255 0.19058,0.2740096"
       id="path63"
       inkscape:path-effect="#path-effect65"
       inkscape:original-d="m 89.111605,98.629897 c 0.202694,0.788326 0.246546,1.635713 0.608084,2.364983 0.110667,0.22322 0.586618,-0.0566 0.733306,0.14479 0.14003,0.19226 0.205515,0.43113 0.339812,0.62744 0.07423,0.10851 0.915712,0.41278 0.947933,0.28959 0.05469,-0.20908 0.194046,-0.8872 0.107315,-1.07791 -0.19145,-0.42099 -1.401313,-1.733943 -0.411363,-1.88234 0.819409,-0.122832 0.834186,0.743485 1.198313,1.15836 0.190519,0.21707 0.601023,0.0838 0.733306,0.32177 0.944158,1.69855 0.514424,2.88841 2.951078,2.96025 0.08807,0.003 0.575887,0.13895 0.679648,0.0965 1.229247,-0.5026 0.4337,-2.24055 -0.339822,-2.71893 -0.252588,-0.15621 -0.326634,-0.43783 -0.482902,-0.67571 -0.450149,-0.685247 -0.840608,-1.251214 -0.840608,-2.139749 0,-1.926841 1.081323,-4.902274 2.521834,-6.290548 0.991277,-0.955331 4.622561,-0.561665 5.759091,-0.209145 0.22512,0.06983 1.46572,0.566274 1.60969,0.04827 0.22073,-0.794199 -0.79394,-1.626285 -1.2341,-2.220193 -0.44278,-0.597437 -0.41087,-1.401273 -0.94792,-1.946693 -0.37547,-0.38132 -0.8575,-0.295925 -1.25198,-0.611354 -0.28814,-0.230391 -0.36506,-0.599712 -0.57233,-0.884862 -1.18935,-1.636262 -0.85652,-0.665699 -1.14467,-2.911993 -0.213753,-1.666386 -0.517741,-3.621445 -1.126769,-5.196536 -0.303956,-0.786101 -0.902787,-1.320591 -1.341403,-2.011042 -0.191754,-0.30185 -1.391092,-3.600291 -1.430835,-3.957735 -0.0677,-0.608939 -0.225684,-1.428515 0.357706,-1.447951 0.227113,-0.0076 0.608386,0.01633 0.786961,0.176969 0.475133,0.427392 0.648189,1.130078 1.090999,1.528395 0.430543,0.387278 1.160655,0.4226 1.627571,0.804418 0.34801,0.28458 0.44555,0.697981 0.82274,0.9653 1.94857,1.381001 2.96897,0.938247 2.96897,-1.528389 0,-0.475343 -0.38274,-0.88147 -0.41138,-1.319244 -0.0312,-0.477565 0.092,-0.930868 0,-1.399689 -0.0736,-0.375144 -0.54085,-0.780727 -0.71541,-1.126185 -0.15387,-0.304538 -0.095,-0.70679 -0.21462,-1.029653 -0.0707,-0.190653 -0.30162,-0.296352 -0.37559,-0.482653 -0.51476,-1.296442 -0.66193,-2.918042 -0.37559,-4.279503 0.11056,-0.52565 -0.30092,-1.172538 0.0358,-1.657101 0.40694,-0.585661 1.00699,-1.074211 1.4666,-1.608831 0.41903,-0.487413 0.20073,-0.835988 0.76908,-1.287071 0.20513,-0.1628 0.65581,1.003845 0.76907,0.997479 0.6935,-0.03898 2.02426,-0.609869 2.41452,-1.206624 0.15201,-0.232442 0.19351,-0.677238 0.25041,-0.933124 0.30646,-1.378429 -0.48425,-1.419397 -0.44714,-2.220191 0.0857,-1.849027 1.6795,-2.215216 3.09417,-2.461521 0.16578,-0.02886 0.62931,-0.263965 0.78696,-0.193059 0.51502,0.23164 0.83769,0.348657 1.59179,0.402209 0.41135,-0.262768 0.78805,-0.589965 1.23405,-0.788304 0.20529,-0.09129 1.63778,1.126186 2.16413,1.126186 1.71502,0 2.42858,-0.672017 3.88113,-1.415779 0.24579,-0.125853 0.67468,-0.204688 0.89427,-0.402209 0.35192,-0.31656 0.78812,-1.120817 0.9837,-1.560569 0.0145,-0.03253 -0.28169,-0.202655 -0.28617,-0.209149 -0.87558,-1.268899 -0.87825,-0.756897 -2.23567,-1.303156 -0.49419,-0.198873 -0.73391,-0.69221 -1.16255,-0.981389 -0.6175,-0.416596 -1.71707,-0.479019 -2.23567,-0.981388 -0.17539,-0.169909 -0.16146,-0.412426 -0.35771,-0.59527 -0.43454,-0.404833 -1.08478,-0.557579 -1.5918,-0.852682 -0.25605,-0.149028 -1.329,-0.434799 -1.3414,-0.836596 -0.0234,-0.75788 0.55391,-1.124 0.21463,-1.930601 -0.10326,-0.245484 -1.04618,-0.92728 -0.78697,-1.335332 0.86372,-1.359669 2.2252,-0.407978 3.34458,0.209146 0.77285,0.426084 1.81031,0.231053 2.77222,0.900949 0.67748,0.471808 2.31137,2.40991 2.91532,3.153317 0.90214,1.110468 2.46821,2.32168 3.64862,3.056787 3.46238,2.156206 5.14827,-0.693322 8.08419,-2.059308 0.6082,-0.282976 4.47738,-0.547201 4.75752,-1.303159 0.44578,-1.202973 -0.8073,-2.136016 -0.64388,-3.458993 0.0361,-0.292294 1.22282,-2.112524 0.0894,-1.624925 0.42752,-0.644935 0.67676,-1.000979 1.1119,-1.497785 0.6344,-0.724288 1.39899,-1.107504 1.4845,-2.107574 0.002,-0.02522 -0.49293,-0.296931 -0.53657,-0.595269 -0.0225,-0.153997 0.0986,-0.333479 0.0179,-0.466563 -0.26232,-0.432656 -1.65855,-2.142218 -1.50237,-2.558047 0.96038,-2.557174 0.12354,-0.03315 0.57233,-1.013569 0.1346,-0.294049 0.20749,-1.107121 0.94792,-1.158359 0.6384,-0.04418 0.65299,0.719588 1.00158,1.013562 0.33351,0.281256 0.61879,0.184772 0.91216,0.59527 0.14207,0.143207 0.13663,0.37172 0.25039,0.530916 0.0622,0.08701 1.48178,0.169558 1.717,0.225239 0.4599,0.108866 0.57923,0.512792 0.94792,0.707886 0.23326,0.123426 0.56669,-0.207398 0.76907,-0.06435 0.61735,0.43634 1.40634,1.212079 2.18203,1.464042 0.455,0.147797 0.99005,-0.04814 1.44871,0.09653 0.42113,0.13283 1.34017,0.785134 1.35929,0.772239 0.48853,-0.329582 0.94441,-0.744744 1.52025,-0.949209 0.22116,-0.07853 1.52871,-0.40741 1.87796,-0.289593 0.0613,0.02067 0.22388,0.152562 0.28617,0.09653 0.0865,-0.07782 -0.0197,-0.557593 -0.0358,-0.59527 -0.31703,-0.741446 -1.31004,-0.710592 -1.86008,-1.174448 -0.30192,-0.254609 -0.25775,-0.720496 -0.44714,-1.045743 -0.38867,-0.667467 -1.0752,-1.110846 -1.43084,-1.817987 -0.11878,-0.236197 -0.1051,-0.562563 -0.26827,-0.77224 -0.25166,-0.3234 -0.53562,-0.821186 -0.8585,-1.061832 -0.47991,-0.357688 -1.09401,-0.601898 -1.50237,-1.045742 -1.24061,-1.348404 -1.42849,-3.360145 -1.93162,-5.019565 -0.20389,-0.672459 -0.63791,-1.963617 -0.23251,-2.654577 0.28924,-0.492984 1.09969,0.509171 1.41294,0.884859 0.32067,0.384595 0.34516,0.801744 0.53657,1.238802 0.1801,0.411233 0.74019,0.571833 0.85849,0.997479 0.10156,0.365415 -0.0523,0.783414 0.0716,1.142272 0.31711,0.919125 1.79021,1.955242 2.52183,2.381078 0.32917,0.191588 -0.24361,1.045578 0.19674,1.238802 0.2622,0.115052 1.2572,-0.202158 1.37718,0.112616 0.11444,0.300254 -0.39017,0.868407 -0.0537,1.142276 0.1791,0.145761 0.6875,-0.07377 0.82273,0.09653 0.24811,0.312459 0.13691,0.85828 0.42924,1.142275 0.20021,0.194497 0.53455,0.194017 0.75119,0.37003 0.34804,0.282781 0.46239,1.028637 0.82274,1.367514 0.4111,0.386614 1.34148,0.755309 1.87796,0.77224 0.21574,0.0068 0.79661,-0.16822 1.00158,-0.128707 0.48516,0.09353 0.89408,0.318678 1.39506,0.337856 0.205,0.0078 0.77431,-0.08671 0.98369,-0.01609 0.2037,0.06871 0.45848,0.369724 0.4829,0.61136 0.0254,0.251052 -0.2104,0.70078 0.0358,0.756149 0.0768,0.01727 0.33256,0.210509 0.4829,0.19306 0.4259,-0.04943 0.80013,-0.296293 1.21621,-0.38612 0.44968,-0.09708 0.7079,0.306512 1.21621,0.03218 0.13976,-0.07543 0.32381,-0.151563 0.42924,-0.273503 0.10036,-0.116068 -0.0608,-0.553185 -0.0358,-0.707892 0.0384,-0.237027 0.42042,-0.933593 0.32193,-1.190533 -0.14244,-0.371573 -0.89644,-0.965552 -1.21621,-1.238808 -0.33969,-0.290281 -1.58928,-0.749052 -2.11047,-1.142269 -0.75409,-0.568926 -1.22164,-1.345604 -1.91374,-1.946694 -0.42966,-0.373159 -0.96112,-0.62917 -1.30563,-1.094006 -0.18221,-0.245858 -0.24882,-0.560954 -0.42925,-0.804419 -0.67016,-0.904254 -1.5071,-1.686417 -1.96738,-2.751107 -0.24309,-0.562273 -0.13206,-1.2197 -0.626,-1.930601 -0.83522,-1.202113 -1.81426,-1.135306 -2.30721,-3.056787 -0.075,-0.292163 -0.17323,-2.996835 0.28616,-2.83155 0.53402,0.192131 1.17939,0.639228 1.64545,0.965302 0.42713,0.298826 1.138,2.296197 1.4845,2.847637 0.35827,0.570174 2.11552,1.70883 2.70068,2.397164 0.40561,0.477108 0.86991,1.222715 1.59181,1.222715 0.2031,0 0.39024,-1.047795 0.39347,-1.126185 0.0291,-0.706712 -0.19885,-1.27904 -0.0894,-2.027131 0.10214,-0.69829 0.31583,-1.287966 0.33982,-2.011045 0.0177,-0.532461 -0.21878,-1.249248 -0.12519,-1.737541 0.0721,-0.376185 0.2899,-0.672555 0.39347,-1.029656 0.20981,-0.723469 -0.046,-1.979257 0.44714,-2.6224 0.0508,-0.06631 2.18884,-2.0277224 1.30562,-1.431862 -0.12689,-1.5705103 0.63555,-3.2864364 -0.45374,-4.6819695 -0.56942,-0.7295223 -1.25809,-1.0075826 -1.53813,-1.9145145 -0.0712,-0.2306412 -0.52973,-0.3341866 -0.64388,-0.6917962 -0.60277,-1.88838753 0.51187,-1.2506339 -0.93004,-2.57413711 -0.73782,-0.67723685 -1.23382,-1.29162359 -2.21778,-1.64101159 -0.0219,-0.00779 -0.73876,-0.1349705 -0.64387,-0.3056796 0.20134,-0.362215 0.70592,0.4679998 0.94792,0.804416" />
    <path
       style="fill:none;stroke:#000000;stroke-width:0.264583px;stroke-linecap:butt;stroke-linejoin:miter;stroke-opacity:1"
       d="m 1.6830188,108.51605 c -0.089908,-0.20628 -0.1332104,-0.48639 -0.3418648,-0.58787 -0.2062085,-0.10029 -0.34799882,0.17238 -0.38217835,0.32905 -0.032465,0.14881 -0.33303617,0.41197 -0.31025004,0.11427 0.036952,-0.48277 0.18622681,-0.94988 0.34462121,-1.40449 0.55956938,-1.60603 1.57785998,-2.98753 2.51526588,-4.38761 0.5408653,-0.80782 1.1166088,-1.61028 1.4750881,-2.51644 0.2169556,-0.548419 0.3482791,-1.125921 0.6051196,-1.661362 0.7997312,-1.667217 2.045077,-3.068407 2.9277867,-4.685035 0.3607718,-0.660731 0.4878627,-1.427888 0.9248468,-2.052515 0.3123271,-0.446442 0.6544981,-0.87088 0.9373981,-1.338894 0.772201,-1.277484 1.412183,-2.654121 2.435982,-3.761643 0.529077,-0.572343 1.140278,-1.058936 1.711851,-1.587051 3.088626,-2.853789 5.931573,-5.990728 9.286197,-8.54261 1.157546,-0.880552 2.361198,-1.720926 3.680177,-2.342811 1.700652,-0.801839 3.551792,-1.198068 5.306232,-1.855406 1.130098,-0.423415 2.219211,-0.983979 3.419283,-1.19767 0.926365,-0.164953 1.868341,-0.2586 2.769014,-0.554229 1.836767,-0.602884 3.5956,-1.468115 5.510185,-1.818256 1.198276,-0.219142 2.418701,-0.344278 3.579681,-0.741273 0.79191,-0.270792 1.576184,-0.590379 2.411896,-0.702657 0.487904,-0.06555 0.965908,-0.182454 1.438729,-0.320051 1.17842,-0.342935 2.289792,-0.870168 3.403498,-1.382063 1.379659,-0.634136 2.945236,-0.705684 4.310494,-1.385825 0.830105,-0.41354 1.627627,-0.899698 2.515585,-1.191451 2.27325,-0.746912 4.682058,-0.917442 6.996035,-1.490393 0.660279,-0.163488 1.278856,-0.481883 1.971262,-0.528718 0.924001,-0.0625 1.846774,-0.134953 2.774378,-0.166357 0.304504,-0.01031 0.566942,0.157271 0.827267,0.28995 0.627593,0.319862 1.1903,0.810359 1.877056,0.971127 0.462542,0.10828 0.941088,0.123921 1.413709,0.150999 0.489801,0.02806 1.013584,0.270981 1.469272,0.09089 0.241575,-0.09547 0.41135,-0.310661 0.571089,-0.505948 0.496462,-0.606944 1.003913,-1.225974 1.326264,-1.940937 0.187662,-0.416227 0.379085,-0.83115 0.574307,-1.244213 0.315934,-0.668471 0.589253,-1.364227 0.695288,-2.103845 0.235499,-1.642658 0.224664,-3.324037 0.631212,-4.93823 0.342131,-1.358427 1.026744,-2.589622 1.554425,-3.878917 0.31919,-0.779884 0.401439,-1.770823 1.063214,-2.294522 0.149282,-0.118135 0.300134,-0.3447 0.05075,-0.466362 -0.288749,-0.140865 -0.619177,-0.01029 -0.891818,0.106769 -0.02883,0.01238 -0.05751,0.0251 -0.08613,0.03797"
       id="path71"
       inkscape:path-effect="#path-effect73"
       inkscape:original-d="m 1.6830188,108.51605 c -0.5535873,-1.41283 -0.6609777,0.0581 -0.98369397,0 -0.1440103,-0.0259 0.0463798,-0.79825 0.23250998,-1.36751 0.84958569,-2.59834 2.79106589,-4.47683 3.97055459,-6.9019 0.2300613,-0.473012 0.3456172,-1.09295 0.5544465,-1.560569 0.7808786,-1.748573 2.0058089,-3.221723 2.9868542,-4.842597 0.3269581,-0.540197 0.4419071,-1.097248 0.6975301,-1.657101 0.2718326,-0.595353 0.7299888,-1.042162 1.0731238,-1.592742 1.107898,-1.777685 1.635131,-3.248305 3.25514,-4.665623 4.065335,-3.556687 8.54833,-8.79779 13.217293,-11.422731 1.839687,-1.034294 3.824361,-1.483511 5.79487,-2.155839 0.97337,-0.33211 1.893863,-0.810709 2.879545,-1.110096 1.094549,-0.332454 2.257202,-0.327287 3.32668,-0.659622 1.603941,-0.498419 3.116405,-1.223349 4.739624,-1.673185 1.243812,-0.344692 2.449621,-0.411126 3.666503,-0.691804 0.881825,-0.203393 1.737881,-0.595542 2.611268,-0.836591 0.572762,-0.158078 1.157224,-0.180766 1.734878,-0.337857 1.426467,-0.387922 2.50253,-0.828736 3.773811,-1.46404 1.24469,-0.622017 2.8136,-0.719847 4.09576,-1.287066 0.904246,-0.400034 1.650757,-0.932894 2.575491,-1.254892 2.319383,-0.807625 4.782757,-1.05487 7.172034,-1.560571 0.691105,-0.146277 1.266053,-0.510172 2.003169,-0.547005 0.642747,-0.03212 2.781932,-0.293266 3.183591,-0.11262 0.818012,0.367909 1.485992,0.81316 2.3251,1.190541 0.318164,0.143092 2.280544,0.190063 2.87955,0.257413 0.372785,0.04191 1.805625,-2.111835 2.003158,-2.590223 0.383225,-0.928095 1.008412,-1.960973 1.16255,-2.944167 0.250978,-1.600888 0.274915,-3.235439 0.590216,-4.842595 0.276432,-1.409028 0.973815,-2.596335 1.502373,-3.90947 0.352296,-0.875228 0.70349,-1.748258 1.16255,-2.574136 0.07154,-0.12871 0.292005,-0.260835 0.21463,-0.38612 -0.225766,-0.365554 -0.831339,-0.108749 -1.108892,0.01609" />
    <path
       style="fill:none;stroke:#000000;stroke-width:0.264583px;stroke-linecap:butt;stroke-linejoin:miter;stroke-opacity:1"
       d="m 84.975236,45.031421 c 0.355858,-0.287224 0.758745,-0.52641 1.045262,-0.891109 0.355576,-0.452603 0.642128,-0.95417 0.924603,-1.454132 0.395444,-0.69991 0.745201,-1.425175 1.153535,-2.117641 0.972258,-1.648786 1.974803,-3.289733 3.1898,-4.77436 0.286989,-0.350677 0.600831,-0.677742 0.906002,-1.012427 0.799633,-0.876969 1.392093,-1.931654 2.264193,-2.742501 0.489074,-0.454723 1.036181,-0.841502 1.531993,-1.288533 0.364859,-0.328962 0.747642,-0.669681 0.95941,-1.118008 0.102377,-0.216739 0.06563,-0.468853 0.180865,-0.684312 0.255957,-0.478568 0.563943,-0.927118 0.875387,-1.370616 0.719375,-1.024395 1.461946,-2.034564 2.269594,-2.99109 0.33715,-0.399299 0.67834,-0.801264 1.09365,-1.12364 0.62366,-0.4841 1.31404,-0.870687 1.95871,-1.325231 1.4292,-1.007702 2.83686,-2.055099 4.12089,-3.244752 0.64737,-0.59979 1.23911,-1.256981 1.78598,-1.95177 0.43929,-0.558109 1.045,-0.954568 1.47867,-1.52017 0.45143,-0.588762 0.81863,-1.234816 1.22925,-1.851321 0.3584,-0.538101 0.78487,-1.029413 1.2641,-1.464097 0.63574,-0.576645 1.28685,-1.14053 1.99632,-1.625905 0.32883,-0.224965 0.68993,-0.395748 1.04358,-0.577556 0.0868,-0.044618 0.18273,-0.056717 0.27806,-0.077334 0.15468,-0.033452 0.30745,-0.082387 0.44709,-0.1555648 0.0537,-0.028141 0.0741,-0.1709385 -0.0229,-0.1000715 -0.27598,0.2015242 -0.47037,0.4885722 -0.71035,0.7275172"
       id="path75"
       inkscape:path-effect="#path-effect77"
       inkscape:original-d="m 84.975236,45.031421 c 0.310012,-0.25201 0.660781,-0.460872 0.930039,-0.756028 0.684837,-0.750705 1.70456,-2.877727 2.217786,-3.748585 1.128601,-1.915043 2.397828,-3.994327 3.934788,-5.598747 0.844182,-0.881237 1.467196,-1.963227 2.3251,-2.815461 0.695142,-0.690549 2.04598,-1.521079 2.557597,-2.461521 0.105669,-0.194236 0.06547,-0.444101 0.160973,-0.643533 0.460327,-0.961261 3.049631,-4.423616 3.916901,-5.2448 0.57783,-0.547122 1.43518,-1.015036 2.05682,-1.447952 1.92596,-1.341254 4.73972,-3.43254 6.09891,-5.293067 0.42467,-0.581302 1.04379,-0.956418 1.48449,-1.528395 0.95324,-1.237211 1.27331,-2.219097 2.46819,-3.3142 0.66955,-0.613646 1.74926,-1.568119 2.59337,-2.011044 1.09146,-0.5727166 0.40219,-0.148387 1.25198,-0.4987367 0.0401,-0.01651 0.0538,-0.1529292 0.0179,-0.1287066 -0.29454,0.1986867 -0.49956,0.5053333 -0.75119,0.7561523" />
    <path
       style="fill:none;stroke:#000000;stroke-width:0.264583px;stroke-linecap:butt;stroke-linejoin:miter;stroke-opacity:1"
       d="m 116.23893,10.296797 c -0.55738,-0.5152643 -1.69988,-0.7856252 -1.67244,-1.5459269 0.002,-0.043226 0.0454,-0.074723 0.0758,-0.1026627 0.16493,-0.1519096 0.34345,-0.2882161 0.5222,-0.423215 0.50762,-0.3833645 1.02655,-0.7515347 1.54949,-1.1136563 0.17117,-0.1185297 0.34653,-0.2307817 0.52109,-0.3442258 0.818,-0.5315926 1.59119,-1.1330204 2.29931,-1.804671 0.91753,-0.8702796 1.71491,-1.8547176 2.53271,-2.8164036 0.2025,-0.2381281 0.39659,-0.4839181 0.6101,-0.7122081 0.0847,-0.090564 0.19721,-0.1484298 0.31275,-0.1896463 0.12475,-0.044502 0.25197,-0.089481 0.35868,-0.1708174 0.15258,-0.11629667 0.25315,-0.28440837 0.33733,-0.45368763 0.0931,-0.18727338 0.18039,-0.38334611 0.32896,-0.5351569 0.21349,-0.21814457 0.43895,-0.42610463 0.63164,-0.66308621 0.0398,-0.0489605 0.0849,-0.0959322 0.11059,-0.1540968 0.0195,-0.0440399 -0.0398,-0.0237959 -0.0606,-0.0137965 -0.0779,0.0373464 -0.14963,0.0863459 -0.22149,0.13390748"
       id="path79"
       inkscape:path-effect="#path-effect81"
       inkscape:original-d="m 116.23893,10.296797 c -0.55748,-0.5153092 -1.1605,-0.9853545 -1.67244,-1.5459269 -0.0785,-0.085992 2.03683,-1.5804266 2.48606,-1.866251 2.63231,-1.6748109 3.6686,-3.190282 5.59814,-5.4217741 0.22461,-0.2597598 0.48191,-0.2008719 0.73329,-0.4182963 0.29476,-0.25494817 0.34377,-0.6330024 0.59021,-0.91703568 0.09,-0.10370322 1.33434,-1.30240792 0.5008,-0.74006568" />
  </g>
</svg>
