<?xml version="1.0" encoding="UTF-8" standalone="no"?>
<!-- Created with Inkscape (http://www.inkscape.org/) -->

<svg
   width="353.56799mm"
   height="264.16mm"
   viewBox="0 0 353.56799 264.16"
   version="1.1"
   id="svg5"
   inkscape:version="1.1.2 (08b2f3d93c, 2022-04-05)"
   sodipodi:docname="TúnicaAlbuginea.svg"
   xmlns:inkscape="http://www.inkscape.org/namespaces/inkscape"
   xmlns:sodipodi="http://sodipodi.sourceforge.net/DTD/sodipodi-0.dtd"
   xmlns="http://www.w3.org/2000/svg"
   xmlns:svg="http://www.w3.org/2000/svg">
  <sodipodi:namedview
     id="namedview7"
     pagecolor="#ffffff"
     bordercolor="#666666"
     borderopacity="1.0"
     inkscape:pageshadow="2"
     inkscape:pageopacity="0.0"
     inkscape:pagecheckerboard="0"
     inkscape:document-units="mm"
     showgrid="false"
     inkscape:zoom="0.94786756"
     inkscape:cx="947.38973"
     inkscape:cy="305.42241"
     inkscape:window-width="1366"
     inkscape:window-height="704"
     inkscape:window-x="0"
     inkscape:window-y="27"
     inkscape:window-maximized="1"
     inkscape:current-layer="layer2" />
  <defs
     id="defs2">
    <inkscape:path-effect
       effect="simplify"
       id="path-effect65"
       is_visible="true"
       lpeversion="1"
       steps="1"
       threshold="0.000408163"
       smooth_angles="360"
       helper_size="0"
       simplify_individual_paths="false"
       simplify_just_coalesce="false" />
    <inkscape:path-effect
       effect="simplify"
       id="path-effect61"
       is_visible="true"
       lpeversion="1"
       steps="1"
       threshold="0.000408163"
       smooth_angles="360"
       helper_size="0"
       simplify_individual_paths="false"
       simplify_just_coalesce="false" />
    <inkscape:path-effect
       effect="simplify"
       id="path-effect57"
       is_visible="true"
       lpeversion="1"
       steps="1"
       threshold="0.000408163"
       smooth_angles="360"
       helper_size="0"
       simplify_individual_paths="false"
       simplify_just_coalesce="false" />
  </defs>
  <g
     inkscape:groupmode="layer"
     id="layer2"
     inkscape:label="Tunica Albuginea">
    <path
       style="fill:none;stroke:#000000;stroke-width:0.264583px;stroke-linecap:butt;stroke-linejoin:miter;stroke-opacity:1"
       d="m 354.52317,129.63884 c 0.0302,-0.31216 -0.16901,-0.58978 -0.4182,-0.76468 -0.39596,-0.27791 -0.93221,-0.37367 -1.22381,-0.77611 -0.20137,-0.27791 -0.2447,-0.63636 -0.25376,-0.96994 -0.024,-0.8837 0.26376,-1.76422 0.10406,-2.64494 -0.1105,-0.60941 -0.51912,-1.10173 -0.90683,-1.56088 -0.3917,-0.46388 -0.78487,-0.93011 -1.08574,-1.46264 -0.86445,-1.53002 -1.72181,-3.07366 -2.36603,-4.71031 -0.45734,-1.16188 -0.42121,-2.43106 -0.57042,-3.65224 -0.0639,-0.52339 -0.11362,-1.06246 -0.31983,-1.55117 -0.18789,-0.44529 -0.44345,-0.86111 -0.56565,-1.3353 -0.24499,-0.95067 -0.22069,-1.9674 -0.59309,-2.88164 -0.2764,-0.67856 -0.85452,-1.16009 -1.38209,-1.64016 -0.41008,-0.37316 -0.78727,-0.79117 -1.04004,-1.29125 -0.32137,-0.63581 -0.56117,-1.3156 -0.97857,-1.90098 -0.72678,-1.01927 -1.68865,-1.84902 -2.35633,-2.915963 -0.58667,-0.937494 -1.01571,-1.992405 -1.78695,-2.798743 -0.35598,-0.37218 -0.79429,-0.668202 -1.06545,-1.121011 -0.72494,-1.210557 -1.36614,-2.483396 -2.28859,-3.565513 -0.21765,-0.255323 -0.48224,-0.463749 -0.76992,-0.635273 -0.30302,-0.180668 -0.59136,-0.399008 -0.78441,-0.702274 -0.25325,-0.397833 -0.44632,-0.848474 -0.82556,-1.151586 -0.51606,-0.41247 -1.14934,-0.630623 -1.69215,-1.004802 -1.48378,-1.022821 -2.7055,-2.363856 -4.07447,-3.525246 -0.74048,-0.628199 -1.71215,-0.977155 -2.33447,-1.733431 -0.35301,-0.428994 -0.52464,-0.967281 -0.85562,-1.41461 -0.93049,-1.25758 -1.87297,-2.521483 -3.00288,-3.604424 -0.54221,-0.519669 -1.34638,-0.754604 -1.75275,-1.403792 -0.37862,-0.60485 -0.57346,-1.298079 -0.8482,-1.951682 -0.20089,-0.477913 -0.49501,-0.909106 -0.83482,-1.300446 -0.42035,-0.484091 -0.85657,-0.972102 -1.09834,-1.581364 -0.61079,-1.539175 -1.07361,-3.149977 -1.93381,-4.579745 -0.33332,-0.554025 -0.75179,-1.048531 -1.17645,-1.533901 -1.08485,-1.239956 -2.17647,-2.49624 -3.48718,-3.502535 -1.178,-0.904406 -2.46362,-1.654275 -3.6868,-2.493761 -0.63758,-0.437579 -1.28625,-0.869076 -1.85215,-1.397473 -1.1385,-1.063045 -1.77079,-2.538899 -2.87583,-3.631813 -0.55812,-0.551997 -1.2827,-0.937173 -2.06341,-1.055412 -0.0541,-0.0082 -0.10846,-0.01527 -0.1629,-0.02124"
       id="path55"
       inkscape:path-effect="#path-effect57"
       inkscape:original-d="m 354.52317,129.63884 c 0.0562,-1.0027 -1.45669,-0.96848 -1.75586,-1.73739 -0.42815,-1.10043 0.29327,-2.61575 -0.12544,-3.74554 -0.31339,-0.84568 -1.31572,-1.66828 -1.78093,-2.48199 -0.86543,-1.51373 -1.78885,-3.24556 -2.45822,-4.85116 -0.65122,-1.56208 -0.38846,-3.3955 -0.82775,-5.00909 -0.13234,-0.48606 -0.45797,-0.91056 -0.602,-1.39894 -0.28356,-0.9614 -0.29724,-2.01581 -0.60204,-2.95582 -0.36578,-1.12812 -1.66846,-1.74538 -2.28261,-2.73019 -0.35629,-0.57129 -0.56393,-1.24811 -0.90302,-1.82764 -0.60638,-1.03633 -1.63383,-1.90012 -2.33278,-2.88813 -0.70125,-0.99125 -1.20859,-2.249539 -2.00673,-3.158891 -0.34462,-0.392679 -0.80468,-0.653886 -1.07861,-1.105614 -0.7494,-1.235911 -1.52884,-2.881694 -2.58362,-3.903491 -0.36341,-0.352052 -0.86064,-0.504886 -1.17894,-0.902538 -0.3085,-0.385453 -0.43838,-0.831768 -0.80269,-1.195864 -0.45199,-0.451774 -1.1313,-0.669565 -1.65552,-1.01536 -1.5013,-0.990346 -2.83216,-2.367063 -4.16391,-3.565033 -0.72438,-0.651621 -1.65198,-1.041961 -2.35786,-1.737397 -0.35343,-0.348168 -0.532,-0.948409 -0.82778,-1.353807 -0.91175,-1.249711 -1.99371,-2.581158 -3.06022,-3.700417 -0.52237,-0.54819 -1.49971,-0.892974 -1.88129,-1.579449 -0.44839,-0.806683 -0.62836,-1.749705 -1.15385,-2.549673 -0.43556,-0.663022 -1.18549,-1.257189 -1.47995,-1.985584 -0.85595,-2.11746 -1.28667,-4.09897 -2.83448,-5.889085 -1.20261,-1.390896 -2.67232,-3.065571 -4.1639,-4.151688 -1.61825,-1.178335 -3.41424,-2.160217 -4.9666,-3.429646 -1.92199,-1.571699 -2.51974,-4.60915 -5.34284,-4.91885" />
    <path
       style="fill:none;stroke:#000000;stroke-width:0.264583px;stroke-linecap:butt;stroke-linejoin:miter;stroke-opacity:1"
       d="m 299.31373,53.87056 c 0.74077,0.493907 2.57415,2.301402 2.22085,1.484892 -0.12575,-0.290619 -0.52197,-0.223314 -0.77869,-0.214171 -0.43258,0.01541 -0.98386,0.225923 -1.29762,-0.07495 -0.17633,-0.169086 -0.1412,-0.453568 -0.10513,-0.671733 0.0485,-0.29308 -0.0595,-0.569775 -0.17648,-0.838118 -0.20126,-0.461516 -0.60227,-0.794544 -0.83897,-1.230884 -0.22681,-0.41811 -0.1667,-0.908032 -0.17658,-1.364503 -0.0309,-1.426142 -0.0358,-2.905071 -0.6316,-4.236813 -0.246,-0.549856 -0.64686,-1.005694 -0.99059,-1.496114 -0.32611,-0.465279 -0.5723,-1.0227 -1.10364,-1.306589 -1.08219,-0.578204 -2.36202,-0.610955 -3.43422,-1.229951 -1.14232,-0.659477 -2.20946,-1.49744 -3.51283,-1.839292 -1.39003,-0.364582 -2.86033,-0.169062 -4.24133,-0.593543 -0.69533,-0.213725 -1.34162,-0.567183 -1.90685,-1.024496 -0.50964,-0.412339 -1.05889,-0.771179 -1.6433,-1.071058 -1.01574,-0.521205 -2.05674,-1.03189 -2.89608,-1.830273 -1.17973,-1.122166 -2.32858,-2.280034 -3.39852,-3.508385 -0.61588,-0.707067 -1.05031,-1.566368 -1.81543,-2.150718 -0.60421,-0.461455 -1.47219,-0.39675 -2.03267,-0.913708 -0.36337,-0.335152 -0.61901,-0.784945 -1.09277,-1.004882 -0.97186,-0.451176 -2.063,-0.520242 -3.07346,-0.845035 -0.83142,-0.267245 -1.57473,-0.751349 -2.43203,-0.958705 -1.75288,-0.423969 -3.60419,-0.447547 -5.2828,-1.167986 -2.02715,-0.870027 -3.74433,-2.390412 -5.89798,-2.975469 -2.02219,-0.549344 -4.16804,-0.184985 -6.18308,-0.81758 -0.47738,-0.149867 -0.91218,-0.410955 -1.26878,-0.765944 -0.54726,-0.544782 -1.03492,-1.164823 -1.72594,-1.55089 -2.52967,-1.413312 -5.33716,-2.199502 -8.0108,-3.281612 -0.89588,-0.362592 -1.31375,-1.392661 -2.2191,-1.721601 -0.86915,-0.315786 -1.81434,-0.462048 -2.61285,-0.940035 -0.24096,-0.144238 -0.35839,-0.411459 -0.55693,-0.605659 -0.60995,-0.596617 -1.37429,-1.009084 -2.14961,-1.339561 -1.22696,-0.522985 -2.59781,-0.364014 -3.86037,-0.777258 -3.26278,-1.0679315 -6.45919,-2.4214706 -9.86432,-2.980178 -2.78408,-0.4568069 -5.63054,-0.2910801 -8.41369,-0.7367022 -2.96523,-0.4747751 -5.76263,-1.6083643 -8.62676,-2.4651231 -1.5208,-0.4549232 -3.0814,-0.7856422 -4.66587,-0.9141357 -2.86858,-0.2326291 -5.76837,-0.1011703 -8.60138,0.3843915 -0.82401,0.1412307 -1.65047,0.2866702 -2.48961,0.2936675 -0.804,0.0067 -1.63022,0.034325 -2.40613,-0.1844393 -0.53481,-0.1507879 -1.05846,-0.3448715 -1.62263,-0.3834875 -2.83876,-0.1943053 -5.73076,0.1528714 -8.52449,-0.4626915 -0.51905,-0.114366 -1.06477,-0.1839465 -1.5371,-0.4366764 -0.74614,-0.3992371 -1.37609,-0.9704513 -2.11289,-1.3910772 -1.8341,-1.04705964 -3.53012,-2.30050728 -5.26008,-3.5347239 -0.24973,-0.1781665 -0.26029,-0.4873487 -0.24696,-0.7618857 0.007,-0.1530109 0.0219,-0.6319997 -0.21378,-0.3175998 -0.70741,0.9435993 -0.81547,2.15426514 -1.15871,3.24655513"
       id="path59"
       inkscape:path-effect="#path-effect61"
       inkscape:original-d="m 299.31373,53.87056 c 0.73578,0.49352 1.46367,0.999062 2.20736,1.480558 0.0564,0.03654 -0.06,-0.142581 -0.12541,-0.15794 -0.51739,-0.121409 -1.05973,0.01635 -1.58028,-0.0677 -0.14721,-0.02376 -0.37105,0.0031 -0.42642,-0.135377 -0.13883,-0.3473 0.0606,-0.771075 -0.0752,-1.119545 -0.47673,-1.2226 -1.09125,-1.251923 -1.12877,-2.129604 -0.10369,-2.425534 0.15936,-4.387252 -1.53011,-6.362912 -0.317,-0.370681 -0.56327,-0.998027 -0.95319,-1.286118 -0.89299,-0.659818 -2.40014,-0.707761 -3.4114,-1.240997 -1.2519,-0.660148 -2.25946,-1.591894 -3.66223,-1.96302 -2.00406,-0.530207 -3.35264,-0.0021 -5.36795,-1.037924 -0.66789,-0.343318 -1.2351,-0.921189 -1.88126,-1.308684 -1.09337,-0.655667 -2.3448,-1.093817 -3.31108,-1.963029 -0.93107,-0.837528 -3.16436,-3.077128 -3.91306,-4.061433 -0.55596,-0.730943 -0.85576,-1.391335 -1.68063,-1.917896 -0.52176,-0.333089 -1.12016,-0.374362 -1.65552,-0.654344 -0.53137,-0.277897 -0.68975,-0.861335 -1.2291,-1.12817 -0.90442,-0.447452 -1.96622,-0.62148 -2.93481,-0.83485 -0.82068,-0.180793 -1.56848,-0.7209 -2.38297,-0.947669 -1.67931,-0.46755 -3.45111,-0.46106 -5.11709,-1.06049 -2.30657,-0.829915 -4.2613,-2.714767 -6.72245,-3.249139 -2.11846,-0.459966 -4.27809,-0.0062 -6.32112,-0.925104 -0.89302,-0.401653 -1.42636,-1.4985 -2.30772,-2.00816 -2.50115,-1.446332 -5.42414,-2.308363 -8.12715,-3.361959 -0.97852,-0.381418 -1.26859,-1.195712 -2.1572,-1.692266 -0.36984,-0.206664 -2.66951,-0.737968 -2.95989,-1.1733 -0.52588,-0.788403 -1.40845,-1.213122 -2.28263,-1.669701 -1.20784,-0.630853 -2.59813,-0.403422 -3.8629,-0.812285 -3.21363,-1.038865 -6.45278,-2.4018832 -9.78269,-3.000952 -2.61888,-0.4711507 -5.40116,-0.4013882 -8.0519,-0.6994654 -3.79763,-0.427046 -7.7842,-2.358594 -11.58871,-3.1363285 -3.55536,-0.7268003 -8.18732,-0.4584938 -11.73922,0.1805077 -1.21404,0.2184112 -2.60292,0.2125502 -3.81274,0.045131 -0.57327,-0.079332 -1.10334,-0.3815013 -1.68061,-0.4287123 -3.16004,-0.2584378 -6.91073,0.1465967 -9.95827,-0.7671538 -0.68477,-0.2053145 -1.51246,-0.9893004 -2.10704,-1.3312509 -1.7478,-1.00517653 -3.572,-1.98615576 -5.1171,-3.2942705 -0.12072,-0.1022037 -0.69006,-0.5541241 -0.72743,-0.7445966 -0.0576,-0.2935151 0.009,-1.1155676 -0.17558,-0.8799816 -0.77265,0.9876646 -0.83811,2.06044245 -1.22911,3.33940173" />
    <path
       style="fill:none;stroke:#000000;stroke-width:0.264583px;stroke-linecap:butt;stroke-linejoin:miter;stroke-opacity:1"
       d="m 353.57001,29.222567 c -0.97804,0.118942 -1.96702,-0.09228 -2.87415,-0.454447 -1.36445,-0.54475 -2.59112,-1.365089 -3.89344,-2.035056 -1.84335,-0.948292 -3.8065,-1.671996 -5.56693,-2.771082 -0.50835,-0.317378 -0.80895,-0.854955 -1.22181,-1.273285 -0.27069,-0.274273 -0.59897,-0.482775 -0.92426,-0.685098 -1.16415,-0.724066 -2.47808,-1.206467 -3.54754,-2.079001 -0.34898,-0.284721 -0.69664,-0.588225 -0.94107,-0.96786 -0.21967,-0.341179 -0.32763,-0.741212 -0.57722,-1.067674 -0.73477,-0.961085 -1.65173,-1.791836 -2.23195,-2.862891 -0.27667,-0.510718 -0.53303,-1.032226 -0.80919,-1.543351 -0.66798,-1.236297 -1.43862,-2.441659 -2.47914,-3.40167 -0.50275,-0.4638499 -1.0779,-0.8377229 -1.64585,-1.2147459 -0.94222,-0.6254723 -1.88789,-1.2540108 -2.89993,-1.7610614 -0.41076,-0.2057981 -0.83599,-0.4024696 -1.29859,-0.4588059 -0.42101,-0.051271 -0.84519,-0.079476 -1.25865,-0.1881019 -2.00913,-0.5278488 -4.03059,-1.0195655 -6.0049,-1.6675284 -2.361,-0.7748724 -4.42221,-2.2062486 -6.71637,-3.1420393 -1.14762,-0.4681163 -2.21718,-1.13048712 -3.41437,-1.47168582 -0.49852,-0.14207845 -1.01261,-0.22086384 -1.52458,-0.29557285 -2.38389,-0.34786833 -4.80006,-0.35062513 -7.20457,-0.32913858 -0.40471,0.003616 -0.81709,0.0674248 -1.21659,-0.0271957 -0.24459,-0.0579298 -0.44252,-0.24444192 -0.53812,-0.47649371 -0.0612,-0.14859366 -0.0912,-0.30820866 -0.10756,-0.46745926"
       id="path63"
       inkscape:path-effect="#path-effect65"
       inkscape:original-d="m 353.57001,29.222567 c -2.3308,0.271915 -4.3392,-1.201999 -6.32114,-2.256345 -2.00017,-1.064052 -4.07276,-1.888062 -5.96995,-2.978387 -0.62436,-0.358826 -0.95742,-1.100936 -1.53011,-1.534316 -1.65854,-1.255082 -3.72703,-1.712726 -5.06693,-3.384533 -0.26617,-0.332125 -0.3442,-0.762053 -0.60201,-1.105612 -0.79586,-1.060593 -1.79199,-1.958237 -2.40805,-3.158885 -0.99092,-1.931266 -2.02557,-3.986157 -3.88797,-5.3024301 -0.94957,-0.6711225 -3.48155,-2.3736601 -4.6405,-2.7527474 -0.49776,-0.1628177 -1.07051,-0.1144466 -1.58031,-0.2481961 -1.98273,-0.5202105 -4.01246,-1.0418818 -5.96992,-1.6471437 -2.42017,-0.7483335 -4.47792,-2.2565194 -6.7977,-3.1588856 -1.23593,-0.480756 -2.65645,-1.3633547 -3.96325,-1.62457819 -2.62123,-0.523964 -5.57289,-0.56622597 -8.25259,-0.51895763 -0.94192,0.0166153 -1.78441,0.23672968 -1.90635,-0.97022698" />
  </g>
</svg>
