<?xml version="1.0" encoding="UTF-8" standalone="no"?>
<!-- Created with Inkscape (http://www.inkscape.org/) -->

<svg
   width="353.56799mm"
   height="264.16mm"
   viewBox="0 0 353.56799 264.16"
   version="1.1"
   id="svg5"
   inkscape:version="1.1.2 (08b2f3d93c, 2022-04-05)"
   sodipodi:docname="UnidadeSecretoras.svg"
   xmlns:inkscape="http://www.inkscape.org/namespaces/inkscape"
   xmlns:sodipodi="http://sodipodi.sourceforge.net/DTD/sodipodi-0.dtd"
   xmlns="http://www.w3.org/2000/svg"
   xmlns:svg="http://www.w3.org/2000/svg">
  <sodipodi:namedview
     id="namedview7"
     pagecolor="#ffffff"
     bordercolor="#666666"
     borderopacity="1.0"
     inkscape:pageshadow="2"
     inkscape:pageopacity="0.0"
     inkscape:pagecheckerboard="0"
     inkscape:document-units="mm"
     showgrid="false"
     inkscape:zoom="0.47393378"
     inkscape:cx="1000.1397"
     inkscape:cy="397.73489"
     inkscape:window-width="1366"
     inkscape:window-height="704"
     inkscape:window-x="0"
     inkscape:window-y="27"
     inkscape:window-maximized="1"
     inkscape:current-layer="layer2" />
  <defs
     id="defs2">
    <inkscape:path-effect
       effect="simplify"
       id="path-effect125"
       is_visible="true"
       lpeversion="1"
       steps="1"
       threshold="0.000408163"
       smooth_angles="360"
       helper_size="0"
       simplify_individual_paths="false"
       simplify_just_coalesce="false" />
    <inkscape:path-effect
       effect="simplify"
       id="path-effect121"
       is_visible="true"
       lpeversion="1"
       steps="1"
       threshold="0.000408163"
       smooth_angles="360"
       helper_size="0"
       simplify_individual_paths="false"
       simplify_just_coalesce="false" />
    <inkscape:path-effect
       effect="simplify"
       id="path-effect117"
       is_visible="true"
       lpeversion="1"
       steps="1"
       threshold="0.000408163"
       smooth_angles="360"
       helper_size="0"
       simplify_individual_paths="false"
       simplify_just_coalesce="false" />
    <inkscape:path-effect
       effect="simplify"
       id="path-effect113"
       is_visible="true"
       lpeversion="1"
       steps="1"
       threshold="0.000408163"
       smooth_angles="360"
       helper_size="0"
       simplify_individual_paths="false"
       simplify_just_coalesce="false" />
    <inkscape:path-effect
       effect="simplify"
       id="path-effect109"
       is_visible="true"
       lpeversion="1"
       steps="1"
       threshold="0.000408163"
       smooth_angles="360"
       helper_size="0"
       simplify_individual_paths="false"
       simplify_just_coalesce="false" />
    <inkscape:path-effect
       effect="simplify"
       id="path-effect105"
       is_visible="true"
       lpeversion="1"
       steps="1"
       threshold="0.000408163"
       smooth_angles="360"
       helper_size="0"
       simplify_individual_paths="false"
       simplify_just_coalesce="false" />
    <inkscape:path-effect
       effect="simplify"
       id="path-effect101"
       is_visible="true"
       lpeversion="1"
       steps="1"
       threshold="0.000408163"
       smooth_angles="360"
       helper_size="0"
       simplify_individual_paths="false"
       simplify_just_coalesce="false" />
    <inkscape:path-effect
       effect="simplify"
       id="path-effect97"
       is_visible="true"
       lpeversion="1"
       steps="1"
       threshold="0.000408163"
       smooth_angles="360"
       helper_size="0"
       simplify_individual_paths="false"
       simplify_just_coalesce="false" />
    <inkscape:path-effect
       effect="simplify"
       id="path-effect93"
       is_visible="true"
       lpeversion="1"
       steps="1"
       threshold="0.000408163"
       smooth_angles="360"
       helper_size="0"
       simplify_individual_paths="false"
       simplify_just_coalesce="false" />
    <inkscape:path-effect
       effect="simplify"
       id="path-effect89"
       is_visible="true"
       lpeversion="1"
       steps="1"
       threshold="0.000408163"
       smooth_angles="360"
       helper_size="0"
       simplify_individual_paths="false"
       simplify_just_coalesce="false" />
    <inkscape:path-effect
       effect="simplify"
       id="path-effect85"
       is_visible="true"
       lpeversion="1"
       steps="1"
       threshold="0.000408163"
       smooth_angles="360"
       helper_size="0"
       simplify_individual_paths="false"
       simplify_just_coalesce="false" />
    <inkscape:path-effect
       effect="simplify"
       id="path-effect81"
       is_visible="true"
       lpeversion="1"
       steps="1"
       threshold="0.000408163"
       smooth_angles="360"
       helper_size="0"
       simplify_individual_paths="false"
       simplify_just_coalesce="false" />
    <inkscape:path-effect
       effect="simplify"
       id="path-effect77"
       is_visible="true"
       lpeversion="1"
       steps="1"
       threshold="0.000408163"
       smooth_angles="360"
       helper_size="0"
       simplify_individual_paths="false"
       simplify_just_coalesce="false" />
    <inkscape:path-effect
       effect="simplify"
       id="path-effect73"
       is_visible="true"
       lpeversion="1"
       steps="1"
       threshold="0.000408163"
       smooth_angles="360"
       helper_size="0"
       simplify_individual_paths="false"
       simplify_just_coalesce="false" />
    <inkscape:path-effect
       effect="simplify"
       id="path-effect69"
       is_visible="true"
       lpeversion="1"
       steps="1"
       threshold="0.000408163"
       smooth_angles="360"
       helper_size="0"
       simplify_individual_paths="false"
       simplify_just_coalesce="false" />
    <inkscape:path-effect
       effect="simplify"
       id="path-effect65"
       is_visible="true"
       lpeversion="1"
       steps="1"
       threshold="0.000408163"
       smooth_angles="360"
       helper_size="0"
       simplify_individual_paths="false"
       simplify_just_coalesce="false" />
    <inkscape:path-effect
       effect="simplify"
       id="path-effect61"
       is_visible="true"
       lpeversion="1"
       steps="1"
       threshold="0.000408163"
       smooth_angles="360"
       helper_size="0"
       simplify_individual_paths="false"
       simplify_just_coalesce="false" />
    <inkscape:path-effect
       effect="simplify"
       id="path-effect57"
       is_visible="true"
       lpeversion="1"
       steps="1"
       threshold="0.000408163"
       smooth_angles="360"
       helper_size="0"
       simplify_individual_paths="false"
       simplify_just_coalesce="false" />
  </defs>
  <g
     inkscape:groupmode="layer"
     id="layer2"
     inkscape:label="UnidadesSecretoras">
    <path
       style="fill:none;stroke:#000000;stroke-width:0.264583px;stroke-linecap:butt;stroke-linejoin:miter;stroke-opacity:1"
       d="m 129.81003,252.73991 c -0.52781,-0.76271 -0.81504,-1.75465 -1.58997,-2.28714 -0.38852,-0.26697 -0.8687,-0.34967 -1.32138,-0.44175 -1.35055,-0.27473 -2.73,-0.40173 -4.0637,-0.76013 -0.36543,-0.0982 -0.69599,-0.28509 -0.99084,-0.52592 -0.71823,-0.58663 -1.14717,-1.43308 -1.48614,-2.27845 -0.37423,-0.93331 -0.77267,-1.88636 -1.47172,-2.63252 -0.80637,-0.86071 -1.78763,-1.53909 -2.53214,-2.46558 -2.27089,-2.82597 -4.32448,-5.81559 -6.38124,-8.7976 -1.4386,-2.08576 -2.34094,-4.46867 -3.35047,-6.77538 -1.15099,-2.62994 -2.28322,-5.31722 -2.70705,-8.1766 -0.38434,-2.59294 -0.30235,-5.22767 -0.12678,-7.8316 0.10463,-1.5518 0.0617,-3.11492 0.29686,-4.65747 0.13852,-0.90862 0.48874,-1.76351 0.84783,-2.60282 0.27623,-0.64564 0.44662,-1.32761 0.58905,-2.01409 0.38229,-1.84257 0.68918,-3.72375 1.44258,-5.46183 0.28675,-0.66153 0.69015,-1.26413 1.15196,-1.81759 1.02527,-1.22876 2.17114,-2.36976 2.98807,-3.76135 1.17375,-1.99942 1.85482,-4.23702 2.90304,-6.29673 0.99419,-1.95354 2.58379,-3.53102 4.29211,-4.86984 2.43744,-1.91024 5.20031,-3.33487 7.90679,-4.81971 1.98446,-1.08872 3.79954,-2.51011 5.94364,-3.28961 1.11407,-0.40503 2.31303,-0.61072 3.50017,-0.48383 2.02369,0.21631 3.90191,1.18614 5.94736,1.25393 1.22411,0.0406 2.45337,-0.19174 3.67332,0.0281 1.45791,0.26267 2.86,0.84415 4.36131,0.85961 1.107,0.0114 2.17533,-0.32494 3.21627,-0.66367 1.00588,-0.32732 2.06216,-0.54944 3.12576,-0.47679 0.86069,0.0588 1.72092,0.24723 2.49043,0.65668 1.25004,0.66514 2.26375,1.76107 3.62511,2.20269 0.62797,0.20371 1.28409,0.30558 1.93535,0.40274 3.04916,0.45488 6.15632,0.4341 9.1811,1.07936 1.95768,0.41762 3.89905,1.04675 5.91038,1.09134 1.18451,0.0263 2.39064,-0.29946 3.55649,0.008 0.5208,0.13745 1.056,0.40669 1.30896,0.91408 0.34728,0.69656 0.3499,1.53511 0.85391,2.16432 1.04361,1.30284 2.3372,2.38436 3.70598,3.32665 0.85268,0.587 1.71163,1.17821 2.66093,1.60222 1.99658,0.89179 4.06776,1.60114 6.09715,2.41237 1.45567,0.58189 2.94314,1.12196 4.29003,1.93133 0.46822,0.28136 0.91802,0.61448 1.21922,1.08943 0.7084,1.11704 0.93666,2.47306 0.86144,3.77907 -0.13781,2.39271 -1.09873,4.63685 -1.40834,7.00059 -0.3243,2.47587 -0.21973,5.01806 -0.8951,7.43851 -0.58513,2.09705 -1.46335,4.1081 -2.53644,5.99943 -2.45415,4.32547 -5.92374,8.02949 -9.9139,10.98752 -2.25168,1.66924 -4.84403,2.79421 -7.13883,4.39746 -0.42544,0.29723 -0.8375,0.62261 -1.14502,1.04856 -0.89558,1.24049 -1.23559,2.81336 -2.24724,3.97525 -0.71947,0.82632 -1.75132,1.27108 -2.7333,1.70035 -0.82858,0.36221 -1.66564,0.73204 -2.37776,1.30505 -1.62532,1.30782 -3.05524,2.84056 -4.67337,4.1553 -1.11224,0.9037 -1.98333,2.05993 -2.80362,3.22377 -1.40647,1.99552 -2.6124,4.1224 -3.98704,6.13897 -0.75408,1.10622 -1.66625,2.08957 -2.57245,3.07107 -0.48051,0.52044 -0.94288,1.06042 -1.33489,1.65169"
       id="path55"
       inkscape:path-effect="#path-effect57"
       inkscape:original-d="m 129.81003,252.73991 c -0.5184,-0.75212 -0.90001,-1.61984 -1.5552,-2.25636 -0.68411,-0.66462 -5.09774,-0.80897 -6.12044,-1.53432 -1.64544,-1.16702 -1.67876,-2.80995 -2.65888,-4.3773 -0.76043,-1.21605 -2.06227,-1.91705 -2.9599,-3.02354 -2.30524,-2.84162 -4.2316,-5.78739 -6.37128,-8.75463 -1.48534,-2.05982 -2.38662,-4.46451 -3.41139,-6.76905 -3.17911,-7.14931 -3.29549,-9.21722 -2.90972,-16.96776 0.0798,-1.60294 0.0187,-3.40003 0.50167,-4.96397 0.31163,-1.00917 0.81446,-1.88496 1.05352,-2.93328 0.51961,-2.27858 0.91726,-5.62051 2.40804,-7.53621 0.98291,-1.26308 2.20878,-2.39049 3.06023,-3.74553 1.25746,-2.00119 2.02835,-4.26341 3.01006,-6.40805 2.0617,-4.50401 7.98433,-7.70946 12.04021,-9.83768 2.65538,-1.39335 5.02826,-3.50369 8.12716,-3.92606 2.53629,-0.34568 4.77099,0.99776 7.22413,1.21843 1.2464,0.11212 2.46306,-0.1756 3.71241,0 1.48038,0.20807 2.85143,0.83449 4.36457,0.90255 2.96901,0.13355 4.3662,-1.74833 7.9265,-0.94767 1.93746,0.43571 3.4084,2.37979 5.26759,2.79788 2.93542,0.66012 6.22738,0.60844 9.23084,1.08305 2.42688,0.3835 4.64081,1.16416 7.12379,1.3538 1.45975,0.11149 3.34598,-0.50695 4.6656,0.40614 0.79306,0.54875 0.63729,1.82459 1.20401,2.57224 1.29811,1.71256 3.592,3.39382 5.41811,4.51272 2.38416,1.46082 11.32137,4.03756 12.49172,5.73113 2.33112,3.37329 0.0457,7.56254 -0.40133,11.10123 -0.34375,2.72093 -0.22577,5.30246 -1.05354,7.94236 -2.10578,6.71576 -7.05899,12.80495 -12.89305,16.83239 -2.20705,1.52359 -4.95531,2.73763 -7.02347,4.3322 -1.35291,1.0431 -1.76442,3.46523 -3.01005,4.78346 -1.08202,1.14508 -2.99682,1.60153 -4.31442,2.39173 -1.22143,0.73253 -4.10975,3.63399 -5.41809,4.69321 -2.46978,1.99948 -5.10411,7.08188 -6.97331,9.65718 -1.46349,2.01633 -2.63123,2.83163 -3.66222,4.37734" />
    <path
       style="fill:none;stroke:#000000;stroke-width:0.264583px;stroke-linecap:butt;stroke-linejoin:miter;stroke-opacity:1"
       d="m 109.74298,259.14796 c -0.21896,-3.42366 -0.24841,-6.87745 -0.9242,-10.25463 -0.10541,-0.52677 -0.30324,-1.03762 -0.63103,-1.46916 -0.68715,-0.90465 -1.17698,-1.94668 -1.53439,-3.01993 -0.54041,-1.62275 -0.75633,-3.33706 -0.789,-5.03784 -0.0308,-1.60388 0.10115,-3.20522 0.12747,-4.8083 0.0225,-1.36989 0.0416,-2.75334 -0.20617,-4.10669 -0.10466,-0.5716 -0.32659,-1.11961 -0.67452,-1.58995 -0.7641,-1.03292 -1.82532,-1.78232 -2.81491,-2.58041 -0.86472,-0.69739 -1.68589,-1.47131 -2.27822,-2.42663 -1.588109,-2.56132 -2.951742,-5.26253 -4.67416,-7.73863 -2.05078,-2.94814 -4.73491,-5.37384 -7.442831,-7.70324 -1.37892,-1.18617 -2.806247,-2.31761 -4.143878,-3.55051 -1.686172,-1.55415 -3.156109,-3.3699 -5.08832,-4.6352 -2.836749,-1.85763 -6.057792,-3.01038 -9.280798,-3.99853 -2.589714,-0.79399 -5.193911,-1.54142 -7.75623,-2.42439 -3.355472,-1.15629 -6.797736,-2.1144 -10.332533,-2.53042 -2.00087,-0.23549 -4.019086,-0.23992 -6.030888,-0.20353 -11.146622,0.2016 -22.179607,1.95438 -33.288206,2.72577 -2.0484992,0.14225 -4.1140646,0.25513 -6.1188963,0.71723 -0.5266102,0.12138 -1.1009595,0.16645 -1.555878,0.46039 -0.5272243,0.34066 -0.9740324,0.79189 -1.3946411,1.2532 -0.4531504,0.497 -0.816159,1.06736 -1.2479839,1.58794 -0.1834688,0.22118 0.00852,0.36289 0.2525345,0.25952 0.4002218,-0.16954 0.761252,-0.41959 1.1211986,-0.65985"
       id="path59"
       inkscape:path-effect="#path-effect61"
       inkscape:original-d="m 109.74298,259.14796 c -0.21284,-3.34488 -0.23262,-6.86007 -0.90301,-10.15359 -0.30001,-1.47386 -0.65284,-1.34899 -1.35452,-2.66251 -1.18509,-2.21847 -1.44305,-4.18071 -1.60537,-6.63366 -0.16072,-2.42885 0.62038,-8.34145 -0.45149,-10.33409 -1.08379,-2.01477 -3.98256,-3.22486 -5.26761,-5.27987 -1.530453,-2.44745 -2.881275,-5.02427 -4.464923,-7.44595 -2.943574,-4.50125 -7.500858,-7.89724 -11.488369,-11.37202 -1.946082,-1.69585 -3.564377,-3.7896 -5.76928,-5.18961 -4.890603,-3.10532 -10.75415,-4.1636 -16.153968,-6.04702 -5.091988,-1.77605 -9.482214,-2.97839 -15.000118,-2.97839 -11.484451,0 -22.688053,1.87539 -34.063804,2.6625 -2.206418,0.15267 -6.5553115,0.35709 -8.8294946,1.21843 -0.8136353,0.30816 -4.93456477,4.92943 -1.3545236,2.48199" />
    <path
       style="fill:none;stroke:#000000;stroke-width:0.264583px;stroke-linecap:butt;stroke-linejoin:miter;stroke-opacity:1"
       d="m 33.137064,167.49495 c -0.481388,-0.23771 -1.031915,-0.25475 -1.556004,-0.30951 -0.705576,-0.0737 -1.444241,-0.11658 -2.084307,-0.45523 -0.315395,-0.16687 -0.523877,-0.46872 -0.667229,-0.79229 -0.499094,-1.12656 -0.51725,-2.40938 -0.260551,-3.59951 0.389241,-1.80464 1.244865,-3.4577 2.064576,-5.09535 0.38797,-0.7751 0.708062,-1.58097 1.055546,-2.37448 1.859437,-4.24617 4.277545,-8.23946 7.079572,-11.92665 2.947865,-3.8791 6.307603,-7.48666 10.222457,-10.40351 2.405443,-1.79223 5.012072,-3.38262 7.873144,-4.31572 1.867985,-0.60922 3.866178,-0.61329 5.745688,-1.18338 2.207971,-0.66972 4.351446,-1.57674 6.631289,-1.9928 1.21186,-0.22116 2.456224,-0.18598 3.671701,-0.008 1.908525,0.2796 3.783044,0.84601 5.726125,0.84923 2.596832,0.004 5.211035,0.0601 7.77018,0.52861 1.272658,0.23298 2.555944,0.54052 3.700929,1.16416 0.507129,0.27622 0.937076,0.67227 1.292943,1.12689 0.751399,0.95991 1.135304,2.13762 1.452395,3.29848 0.332838,1.21851 0.63989,2.48474 1.377471,3.53138 0.400432,0.56822 0.867135,1.08615 1.325437,1.60752 2.27599,2.58918 4.910774,4.89681 6.809924,7.78655 0.86339,1.31373 1.71454,2.63541 2.60237,3.93379 0.39659,0.57998 0.99658,0.96492 1.56942,1.34829 0.44404,0.29717 0.82258,0.67994 1.14154,1.10738 0.8656,1.15999 1.47781,2.49557 1.89935,3.87421 0.3783,1.23724 0.67588,2.53294 0.57925,3.83046 -0.17773,2.38642 -1.05881,4.66087 -2.17295,6.75717 -1.89629,3.56795 -4.44064,6.72695 -6.57368,10.1483 -1.685864,2.70409 -3.28284,5.50116 -5.452999,7.85655 -0.847907,0.92028 -1.767669,1.78337 -2.794654,2.50105 -0.369023,0.25788 -0.808483,0.38964 -1.253972,0.43225 -1.000563,0.0957 -1.934116,0.50926 -2.811037,0.97624 -1.492316,0.7947 -2.874644,1.77325 -4.335146,2.62281 -2.386399,1.38814 -4.765295,2.80205 -7.262988,3.98053 -0.764115,0.36053 -1.507457,0.83609 -2.345506,0.96692 -0.16968,0.0265 -0.511205,0.15841 -0.539982,-0.0476 -0.03082,-0.22062 0.137437,-0.40992 0.264498,-0.57073 0.198607,-0.25136 0.421073,-0.48281 0.646818,-0.70966"
       id="path63"
       inkscape:path-effect="#path-effect65"
       inkscape:original-d="m 33.137064,167.49495 c -0.983755,-0.53422 -3.568612,-0.0267 -4.214084,-1.35382 -1.68257,-3.45942 1.159205,-7.37521 2.408044,-10.42433 4.203168,-10.26231 14.374878,-23.4848 25.23431,-27.39211 1.965886,-0.70735 3.857442,-0.64542 5.819436,-1.21843 2.391555,-0.69846 5.122812,-1.90881 7.625487,-2.16609 3.079888,-0.31662 5.664438,0.94767 8.628814,0.94767 3.225657,0 10.331828,0.13652 12.441576,2.43685 2.105134,2.29529 1.565571,5.31189 3.461557,7.62647 2.476553,3.02331 5.575066,5.81406 7.826146,8.98027 0.21728,0.3056 2.19134,3.4756 2.80938,4.19683 0.59049,0.68907 1.49588,1.04725 2.10704,1.71481 1.72333,1.88235 3.09775,5.85812 2.85956,8.39364 -0.53958,5.74372 -5.04669,10.93685 -8.07699,15.65908 -2.561161,3.99115 -4.764765,8.31501 -8.678989,11.23662 -0.996426,0.74375 -1.346777,0.45691 -2.408037,0.76716 -1.921652,0.56179 -3.999113,2.1239 -5.769279,3.1589 -0.419788,0.24544 -14.239187,8.43535 -9.682353,3.88092" />
    <path
       style="fill:none;stroke:#000000;stroke-width:0.264583px;stroke-linecap:butt;stroke-linejoin:miter;stroke-opacity:1"
       d="m 169.89394,170.69898 c -2.02098,0.19734 -4.11839,0.0124 -5.9906,-0.82421 -2.06755,-0.9239 -3.7368,-2.49103 -5.45937,-3.91856 -1.05519,-0.87446 -2.19739,-1.63307 -3.3271,-2.40659 -3.99586,-2.73599 -7.86074,-5.77747 -10.88268,-9.59869 -2.40195,-3.03724 -4.09897,-6.58948 -5.16506,-10.30707 -0.45009,-1.56952 -0.71023,-3.18303 -1.02501,-4.78347 -0.41656,-2.11795 -1.17511,-4.18771 -1.193,-6.37053 -0.0244,-2.9726 1.02604,-5.81698 1.14172,-8.77984 0.17052,-4.36757 0.63626,-8.77477 2.04111,-12.93652 0.7403,-2.19308 1.80917,-4.26735 3.1277,-6.17168 3.21575,-4.644445 7.09577,-8.815033 11.38847,-12.478538 3.73306,-3.185894 7.8213,-5.970546 12.22879,-8.145091 3.72796,-1.839282 7.57312,-3.445262 11.18125,-5.525186 1.77748,-1.024637 3.61301,-1.999677 5.62176,-2.49938 4.67646,-1.163333 9.52152,-1.238266 14.28767,-1.78617 1.13289,-0.130234 2.27584,-0.231138 3.37843,-0.544016 1.21182,-0.343875 2.41518,-0.755312 3.68042,-0.863005 2.34353,-0.199474 4.69577,0.01347 7.03607,0.180947 0.63799,0.04566 1.27954,0.147694 1.86087,0.434011 1.78065,0.87701 2.87376,2.712842 4.66577,3.559861 0.84676,0.400233 1.79601,0.550075 2.72617,0.554269 1.84993,0.0083 3.59718,-0.677858 5.32767,-1.248955 1.09607,-0.361726 2.20652,-0.824353 3.36534,-0.817087 0.833,0.0052 1.57001,0.478228 2.22449,0.94527 1.0274,0.733162 1.86909,1.699087 2.9071,2.413856 1.9678,1.355016 4.41027,1.731836 6.41885,3.020625 0.84701,0.543476 1.60107,1.28258 1.99646,2.224918 0.52265,1.245651 0.45193,2.630409 0.35518,3.94805 -0.1107,1.507677 -0.2612,3.050154 0.13743,4.533396 0.24518,0.91227 0.48113,1.847767 0.38625,2.805198 -0.27148,2.739572 -1.42732,5.318947 -1.50516,8.092397 -0.0422,1.50279 0.56482,2.90632 0.92717,4.33758 0.22145,0.87471 0.33434,1.77161 0.47767,2.66128 0.4713,2.92544 0.96187,5.86342 1.02025,8.83137 0.0466,2.3672 -0.46957,4.69321 -0.9901,6.98741 -0.3227,1.42227 -0.55364,2.86239 -0.78745,4.30177 -0.8481,5.22095 -1.79718,10.47321 -3.71135,15.42709 -1.46049,3.77975 -3.60793,7.28324 -6.27844,10.33184 -1.96185,2.23961 -4.25526,4.15067 -6.53085,6.06482 -1.97981,1.66535 -3.38255,3.86764 -4.91158,5.92413 -1.11243,1.49618 -2.3725,2.89524 -3.87481,4.02071 -1.70313,1.27591 -3.54918,2.344 -5.26489,3.60185 -1.76258,1.29221 -3.26069,2.91446 -4.53407,4.68475 -2.38416,3.31453 -5.52252,6.04506 -9.02126,8.13595 -1.09668,0.65539 -2.29834,1.12105 -3.38911,1.78474 -0.28886,0.17576 -0.45655,0.52339 -0.78855,0.62861 -0.23566,0.0747 -0.40354,-0.18914 -0.0999,-0.28278 0.48871,-0.15069 1.00457,-0.18369 1.50939,-0.24832"
       id="path67"
       inkscape:path-effect="#path-effect69"
       inkscape:original-d="m 169.89394,170.69898 c -7.01953,0.65107 -8.84647,-3.18334 -13.74592,-6.45317 -9.90968,-6.6136 -16.04627,-12.79328 -18.01017,-24.86501 -0.32802,-2.01629 -1.10016,-4.06011 -1.25419,-6.09213 -0.24794,-3.27104 0.98599,-6.22035 1.10368,-9.43155 0.22987,-6.2719 1.09275,-13.10739 4.6656,-18.50208 5.31969,-8.032258 14.08682,-16.169204 22.72592,-20.668184 3.49268,-1.818878 7.16123,-3.304072 10.63553,-5.144479 2.31886,-1.228352 4.55276,-2.794574 7.12381,-3.474778 5.40081,-1.428856 11.11371,-1.394508 16.60547,-2.120972 1.60877,-0.212812 3.04405,-0.916016 4.66558,-1.128175 2.39652,-0.31356 5.76104,-0.06626 8.12716,0.180507 2.68593,0.280122 4.16361,3.489121 6.62214,4.19681 3.88485,1.118253 6.86953,-1.282462 10.58533,-1.759947 1.75536,-0.225566 4.17323,2.606918 5.41813,3.429648 2.18019,1.440831 4.86914,1.678725 7.02347,3.474786 2.79996,2.334331 1.19449,5.866558 1.55517,9.070535 0.15871,1.409825 0.74236,2.339018 0.60203,3.835795 -0.273,2.911713 -1.61946,5.622594 -1.50503,8.574124 0.063,1.62378 0.84418,3.1829 1.10367,4.78347 0.5331,3.28832 1.17683,6.91723 1.30436,10.24384 0.14242,3.71523 -0.99854,6.75756 -1.55518,10.33409 -2.25833,14.51026 -4.52394,23.55191 -16.45498,32.94272 -3.4293,2.69917 -5.21358,7.26256 -8.67899,9.88283 -4.15659,3.14288 -6.72106,3.78762 -10.18405,8.57413 -3.22929,4.4635 -7.46105,7.61218 -12.34121,9.88281 -0.37126,0.17274 -0.70235,0.84239 -1.05352,0.63178 -0.48035,-0.28808 1.04922,-0.42969 1.60535,-0.49639" />
    <path
       style="fill:none;stroke:#000000;stroke-width:0.264583px;stroke-linecap:butt;stroke-linejoin:miter;stroke-opacity:1"
       d="m 242.23563,182.16124 c -3.00764,-3.07308 -5.49671,-6.6877 -7.06997,-10.70483 -1.62672,-4.15364 -2.19121,-8.63905 -2.27718,-13.07652 -0.0454,-2.34495 0.10637,-4.68685 0.19427,-7.02939 0.10064,-2.68195 -0.11139,-5.39229 0.40044,-8.04663 0.29103,-1.50927 0.96213,-2.90976 1.71462,-4.24001 0.82203,-1.45318 1.79594,-2.82792 2.46165,-4.3639 0.77256,-1.78251 1.03442,-3.7793 2.05471,-5.44752 0.75277,-1.23082 1.94999,-2.07726 3.03131,-2.99345 1.05574,-0.89451 1.81017,-2.06706 2.59374,-3.19115 0.52728,-0.75642 1.13845,-1.44991 1.81273,-2.08092 2.98737,-2.79565 6.31007,-5.20609 9.7048,-7.47797 5.22435,-3.49633 10.69667,-6.59858 16.16469,-9.69473 2.30038,-1.30254 4.52969,-2.75916 6.97708,-3.773 2.22776,-0.922856 4.66572,-1.238688 6.8349,-2.325535 1.46632,-0.734685 2.88035,-1.685568 4.52894,-1.944632 1.60325,-0.25194 3.24191,-0.0318 4.84025,-0.365533 1.88502,-0.393591 3.73376,-1.161745 5.68395,-1.07193 1.32749,0.06114 2.64339,0.288189 3.93753,0.577736 1.17401,0.262669 2.3673,0.508811 3.46958,1.002034 1.90857,0.854003 3.54619,2.277164 5.5854,2.839537 2.7289,0.752574 5.63277,0.595759 8.32706,1.502793 1.36263,0.45873 2.38591,1.51 3.52282,2.33857 0.67928,0.49505 1.46105,0.84204 2.28746,1.00557 1.745,0.34531 3.5342,0.33953 5.30559,0.34998 2.47383,0.0146 4.96617,-0.13119 7.42098,0.2212 1.06116,0.15233 2.16007,0.36231 3.06958,0.96701 0.51957,0.34544 0.8495,0.92015 0.94462,1.53439 0.17277,1.11569 -0.0942,2.27915 0.29514,3.36786 0.16004,0.44752 0.49103,0.79589 0.83042,1.11963 1.04861,1.00024 2.1287,1.97166 3.10368,3.04569 0.62818,0.692 0.80251,1.64143 1.00418,2.52108 0.16202,0.70671 0.49696,1.36713 0.97913,1.91345 0.65352,0.74047 1.52325,1.36078 1.8418,2.33328 0.34836,1.0635 0.45168,2.18847 0.5313,3.29825 0.20771,2.89509 0.0788,5.79945 0.1188,8.69885 0.0202,1.46514 0.0222,2.94434 0.30623,4.38052 0.0432,0.21824 0.51067,0.60279 0.0251,0.65058 -0.77036,0.0758 -1.55499,0.17415 -2.23882,0.56693"
       id="path71"
       inkscape:path-effect="#path-effect73"
       inkscape:original-d="m 242.23563,182.16124 c -8.74819,-8.98887 -9.89177,-18.29504 -9.18066,-30.23512 0.19387,-3.25524 -0.2669,-6.8569 0.80268,-10.01819 0.78514,-2.32058 2.41144,-4.43092 3.51172,-6.58854 0.94931,-1.86157 1.25535,-3.98268 2.20739,-5.8214 0.78949,-1.52477 2.48381,-2.52263 3.66222,-3.70041 1.33165,-1.33095 2.1147,-3.06196 3.46156,-4.37732 6.29373,-6.14656 18.05366,-13.02413 25.58547,-17.1934 2.41462,-1.33661 4.8165,-2.86701 7.32449,-4.0163 2.05536,-0.941876 4.34544,-1.238583 6.42144,-2.120981 1.81549,-0.771668 3.50276,-2.079099 5.51844,-2.346603 1.45449,-0.19303 2.86517,-0.0024 4.3144,-0.270751 2.05766,-0.381079 4.1429,-1.255805 6.27097,-1.128178 1.73974,0.104336 5.43816,0.841901 6.9733,1.489191 1.97678,0.833499 3.70835,2.360552 5.81943,2.933256 2.71968,0.737809 5.60285,0.586914 8.27765,1.489196 1.90678,0.64319 3.1051,2.461 4.9666,3.11376 4.09993,1.4377 14.91298,-0.64573 17.15733,2.25636 1.06294,1.37441 -0.1552,3.59311 1.15388,5.14447 0.20645,0.24468 3.17965,2.92338 3.71236,3.70042 0.80635,1.17621 0.57796,2.50601 1.4047,3.70042 0.62368,0.901 1.4459,1.38815 2.00671,2.3466 1.11173,1.90008 0.85283,9.89029 0.85283,12.27454 0,1.52309 0.24265,2.99007 0.30102,4.51271 0.009,0.23517 0.43436,0.64888 0.20068,0.6769 -0.91932,0.11025 -1.56069,0.12931 -2.40805,0.58666" />
    <path
       style="fill:none;stroke:#000000;stroke-width:0.264583px;stroke-linecap:butt;stroke-linejoin:miter;stroke-opacity:1"
       d="m 232.15194,173.40659 c 1.46368,1.80818 2.34543,3.9818 3.40853,6.02889 0.8002,1.54086 1.75254,3.03711 3.0673,4.19563 1.58678,1.39822 3.54428,2.26002 5.45873,3.11085 0.874,0.38843 1.77345,0.73016 2.58291,1.25098 1.33851,0.86122 2.49709,2.04424 4.01673,2.58964 1.23647,0.44377 2.55711,0.58217 3.8597,0.66501 3.08103,0.19595 6.16738,-0.0762 9.24975,-0.0168 2.52969,0.0488 4.99942,-0.58106 7.45169,-1.11925 2.28463,-0.5014 4.63702,-0.91357 6.98183,-0.65244 2.85733,0.31821 5.58249,1.39999 8.46628,1.54467 2.84751,0.14286 5.67509,-0.35085 8.52351,-0.30756 4.9979,0.076 9.99806,0.0868 14.9929,0.27903 3.33428,0.1283 6.65659,0.77392 9.99869,0.49889 1.63565,-0.1346 3.25347,-0.43685 4.85489,-0.78726 5.63377,-1.23274 11.03733,-3.36694 16.70546,-4.44492 3.68645,-0.7011 7.4961,-0.32599 11.16358,-1.15542 1.03132,-0.23324 2.04801,-0.56259 2.97551,-1.08133 1.68091,-0.94011 3.11784,-2.29637 4.92191,-3.01732"
       id="path75"
       inkscape:path-effect="#path-effect77"
       inkscape:original-d="m 232.15194,173.40659 c 2.17529,2.69005 3.03979,6.13683 5.16727,8.8449 2.10905,2.6846 5.16922,3.78025 8.17732,5.09935 1.88273,0.8256 3.2563,2.47765 5.11708,3.20402 3.06505,1.19647 9.92895,0.64846 13.34459,0.6769 4.45974,0.0371 8.57229,-1.95987 13.14394,-1.85021 3.01096,0.0722 5.97228,1.31134 8.97999,1.57946 2.90613,0.25906 5.82977,-0.31353 8.72916,-0.27077 4.96784,0.0733 9.97654,0.14876 14.94993,0.27077 3.84755,0.0944 7.62593,0.9176 11.4884,0.40614 6.81432,-0.90233 13.44805,-3.63912 20.16739,-5.05423 4.30432,-0.90651 8.94815,-0.24588 13.09372,-1.6697 2.31511,-0.79514 4.06083,-2.75691 6.32111,-3.65529" />
    <path
       style="fill:none;stroke:#000000;stroke-width:0.264583px;stroke-linecap:butt;stroke-linejoin:miter;stroke-opacity:1"
       d="m 214.5933,172.41379 c 0.72151,-0.10243 1.45716,0.0105 2.14411,0.24284 0.70032,0.23687 1.40707,0.50736 2.15839,0.51436 0.76819,0.007 1.5101,-0.23014 2.23884,-0.44481 0.97516,-0.28726 1.92667,-0.65747 2.9159,-0.89311 2.00995,-0.47878 4.11523,-0.40357 6.13704,-0.0474 2.55139,0.44941 5.03635,1.30253 7.30979,2.54458 1.14187,0.62384 2.23632,1.35101 3.17409,2.26004 2.18619,2.1192 3.67036,4.8368 5.84197,6.97145 1.16512,1.14529 2.56881,2.012 4.00806,2.76721 3.1162,1.63516 6.49799,2.72307 9.51977,4.54801 1.6424,0.99189 3.05914,2.30157 4.42014,3.64236 1.70437,1.67906 3.3669,3.44977 5.42008,4.71057 0.73273,0.44995 1.48573,0.90651 2.31807,1.127 0.75202,0.19921 1.53701,0.22675 2.31027,0.23722 2.33893,0.0317 4.67471,-0.12684 7.01001,-0.23331 1.92406,-0.0877 3.85057,-0.19305 5.77743,-0.13519 0.39727,0.0119 0.79385,0.0535 1.17791,0.16654 0.58736,0.17284 1.14041,0.5176 1.75712,0.53618 0.41363,0.0125 0.828,-0.0211 1.24115,-0.0431 3.21427,-0.17132 6.40329,-0.69488 9.61885,-0.81556 1.30882,-0.0491 2.57345,0.45418 3.88155,0.38981 0.31622,-0.0156 0.63433,-0.0716 0.92447,-0.20227"
       id="path79"
       inkscape:path-effect="#path-effect81"
       inkscape:original-d="m 214.5933,172.41379 c 2.08174,-0.26934 2.9096,0.98018 4.86623,0.72203 1.15382,-0.15223 3.58396,-1.06124 4.61544,-1.30867 4.74644,-1.13854 11.27121,0.86551 15.15059,3.56503 3.49368,2.43111 5.13997,6.7945 8.67902,9.3413 3.95063,2.84298 8.91841,3.92141 12.89308,6.63367 3.97392,2.71176 6.54549,7.15313 11.2375,8.93515 2.16429,0.82199 11.84598,-0.35197 15.80282,-0.0451 0.7855,0.0609 1.89037,0.70146 2.55855,0.67692 3.53436,-0.12978 7.07078,-0.57845 10.58537,-0.85742 1.55924,-0.12377 3.58463,0.77951 4.91641,0.1805" />
    <path
       style="fill:none;stroke:#000000;stroke-width:0.264583px;stroke-linecap:butt;stroke-linejoin:miter;stroke-opacity:1"
       d="m 253.22233,1.5082321 c -1.85904,-0.4350025 -3.81187,-0.1615644 -5.60069,0.4420472 -2.60571,0.8792602 -4.96248,2.3286109 -7.32226,3.7120955 -1.47457,0.8645058 -2.92779,1.7890382 -4.5095,2.4436717 -2.22795,0.9220988 -4.68827,1.0577691 -6.92419,1.9584645 -0.73486,0.296023 -1.40594,0.727781 -2.01809,1.231114 -1.81339,1.491026 -3.20883,3.415451 -4.39897,5.423754 -0.94566,1.595758 -1.74918,3.270221 -2.66856,4.880394 -1.31139,2.296723 -2.96513,4.409334 -3.96507,6.874881 -0.42903,1.057862 -0.81309,2.157064 -0.91175,3.295588 -0.10418,1.202236 0.11646,2.406937 0.40889,3.567504 0.60274,2.392053 1.48826,4.711529 2.59267,6.914185 0.65514,1.306618 1.32681,2.628173 2.26679,3.753899 1.41731,1.697371 3.43912,2.76646 4.8129,4.50624 0.90118,1.141269 1.67087,2.404537 2.7484,3.390918 0.98643,0.902987 2.24679,1.433477 3.50578,1.83445 2.13444,0.679794 4.36668,0.970118 6.51857,1.582974 2.27522,0.647981 4.22469,2.114979 6.51067,2.722404 1.61749,0.429796 3.34328,-0.02305 4.94208,0.499222 0.98434,0.321547 1.82399,0.96675 2.58294,1.651063 1.65265,1.490121 3.05252,3.229614 4.46355,4.942804 1.16207,1.410921 2.37202,2.780063 3.57451,4.160364 0.38383,0.440588 0.96495,0.616201 1.51596,0.72867 1.37322,0.280293 2.78338,0.316051 4.17969,0.295448 1.77166,-0.02614 3.54767,-0.104745 5.30253,-0.354124 2.475,-0.351717 4.80256,-1.32097 7.07782,-2.313139 1.54592,-0.674127 3.1013,-1.328982 4.69498,-1.884642 2.18013,-0.760135 4.44044,-1.367225 6.46354,-2.497729 1.52289,-0.850986 2.66252,-2.207261 4.08387,-3.202145 3.36737,-2.357014 6.64826,-4.917594 9.28935,-8.094965 2.37443,-2.856566 4.09088,-6.187569 5.55312,-9.585784 0.4343,-1.009303 0.80957,-2.045631 1.33596,-3.014127 1.19049,-2.190362 2.79826,-4.152598 3.71635,-6.489528 0.53397,-1.359176 0.73857,-2.846626 0.56218,-4.300358 -0.18741,-1.544552 -0.62093,-3.056157 -0.6371,-4.623851 -0.0347,-3.365578 -0.0566,-6.758107 -0.68385,-10.072001 -0.13826,-0.730464 -0.21124,-1.487764 -0.53541,-2.168053 -0.60382,-1.267135 -1.73302,-2.189045 -2.3348,-3.459628 -0.53446,-1.1284365 -0.51341,-2.402815 -0.75238,-3.6055056 -0.06,-0.3019727 -0.1442,-0.599164 -0.32117,-0.8617586 -0.22715,-0.3370512 -0.56717,-0.6397657 -0.61802,-1.0607981 -0.0356,-0.2950799 0.19912,-0.6146226 0.51497,-0.5951962 0.45889,0.028225 0.85871,0.3190653 1.22164,0.5751942"
       id="path83"
       inkscape:path-effect="#path-effect85"
       inkscape:original-d="m 253.22233,1.5082321 c -5.81615,-1.33423487 -11.74199,3.9304214 -17.10716,6.4531647 -2.73654,1.2867407 -6.51117,1.1889467 -8.87965,3.0235092 -3.37471,2.613956 -5.07468,6.200228 -7.02347,9.837697 -2.02041,3.771163 -4.48159,6.231167 -5.26758,10.649973 -0.62056,3.488727 3.12864,12.200033 5.41809,14.75654 1.37187,1.531892 3.17447,2.537865 4.51509,4.151678 0.73365,0.88315 2.03834,2.87575 3.11039,3.745547 2.57712,2.090904 7.26624,2.350616 10.23417,3.339401 2.01423,0.671055 3.84078,1.909419 5.86961,2.52711 1.87432,0.570648 3.88262,-0.09365 5.66895,0.767162 3.34409,1.611487 7.46172,8.057319 10.2342,10.695106 1.40766,1.339266 8.83598,0.807847 10.93653,0.49639 3.47695,-0.51553 6.75381,-2.300774 9.98337,-3.565022 2.63387,-1.031068 5.45436,-1.741106 7.97663,-3.023518 1.49656,-0.760889 2.68994,-2.203339 4.06358,-3.158895 8.32762,-5.792967 11.89513,-9.899488 15.6523,-19.31436 1.51209,-3.78908 5.06693,-6.797355 5.06693,-11.23663 0,-1.839894 -0.68112,-3.588763 -0.70237,-5.460364 -0.0452,-3.980411 -0.12372,-7.517208 -0.90299,-11.507398 -0.351,-1.79715 -1.80639,-2.728357 -2.60872,-4.332194 -0.6587,-1.3166791 -0.53178,-2.7788327 -0.90304,-4.1516871 -0.14217,-0.5257625 -1.01709,-1.1363044 -0.80267,-1.714832 0.29223,-0.7885623 1.35453,-0.032805 1.70571,0.2256388" />
    <path
       style="fill:none;stroke:#000000;stroke-width:0.264583px;stroke-linecap:butt;stroke-linejoin:miter;stroke-opacity:1"
       d="m 312.21944,15.723238 c -0.87562,-2.254275 -2.06808,-4.366771 -3.3007,-6.4413901 -1.39922,-2.3550246 -2.80698,-4.7076292 -4.02313,-7.1673077 -0.20973,-0.4241828 -0.32964,-0.8864954 -0.40067,-1.35279566 -0.1337,-0.87773927 -0.11705,-1.77701764 -0.33845,-2.64144494 -0.12542,-0.4896941 -0.34806,-0.9537253 -0.65528,-1.3568245 -0.58881,-0.7725595 -1.31161,-1.4451598 -2.13871,-1.9573264 -0.91261,-0.5651199 -1.93683,-0.9251394 -2.97723,-1.1713436 -0.42453,-0.1004626 -0.84968,-0.2061341 -1.28265,-0.2596819 -0.22924,-0.028352 -0.46242,-0.018663 -0.69089,-0.053036 -0.0272,-0.0041 -0.0623,0.0056 -0.0154,0.014239 0.50423,0.092888 1.0169,0.1232805 1.52533,0.1844168"
       id="path87"
       inkscape:path-effect="#path-effect89"
       inkscape:original-d="m 312.21944,15.723238 c -1.8796,-4.839016 -5.21544,-9.024917 -7.37465,-13.7186139 -0.7579,-1.64750452 -0.11316,-3.6126333 -1.30437,-5.1896018 -1.66989,-2.2106794 -3.75653,-2.9676454 -6.37127,-3.4296558 -0.24747,-0.043723 -0.99981,-0.089621 -0.7525,-0.045131 0.49728,0.08946 1.00335,0.1203384 1.50503,0.1805078" />
    <path
       style="fill:none;stroke:#000000;stroke-width:0.264583px;stroke-linecap:butt;stroke-linejoin:miter;stroke-opacity:1"
       d="m 347.73809,14.234045 c -0.83821,-0.648386 -1.71059,-1.296265 -2.72365,-1.643317 -0.93034,-0.318715 -1.92699,-0.257024 -2.89392,-0.256388 -1.40076,9.22e-4 -2.79705,-0.124943 -4.19371,-0.216052 -2.07408,-0.135299 -4.16404,-0.191508 -6.23125,0.06534 -0.73075,0.09079 -1.45839,0.205739 -2.19344,0.262591 -2.16057,0.167108 -4.35443,0.01836 -6.48604,0.460846 -1.8165,0.377076 -3.55522,1.057313 -5.24049,1.818894 -3.31607,1.498542 -6.4963,3.299982 -9.48898,5.367767 -2.16536,1.496153 -4.26684,3.111082 -6.09752,5.010215 -0.65638,0.680922 -1.23195,1.433178 -1.7652,2.213968 -1.82054,2.665636 -3.47402,5.445775 -5.37154,8.057129 -1.14295,1.572922 -2.84301,2.626655 -3.99968,4.189043 -0.53974,0.729063 -0.86973,1.585617 -1.16642,2.434277 -0.85868,2.456156 -1.29253,5.036793 -1.59823,7.613117 -0.33398,2.814662 -0.44399,5.648674 -0.63332,8.47523 -0.20604,3.075987 -0.75887,6.139577 -0.60303,9.231707 0.10614,2.105987 0.58138,4.226544 1.61968,6.076007 0.89001,1.585318 2.23977,2.864601 3.73702,3.875024 2.67627,1.806088 5.76529,2.877085 8.46714,4.639051 2.74289,1.788727 4.79821,4.488821 7.59948,6.166363 0.37699,0.225761 0.81263,0.324627 1.23319,0.436748 1.02338,0.272835 2.08917,0.42949 3.06019,0.859757 0.29587,0.131103 0.67474,0.237226 0.81245,0.545675 0.0931,0.208415 0.0677,0.45234 0.0301,0.670019 -0.13218,0.76539 -0.555,1.440358 -0.99886,2.062376 -0.67198,0.941704 -1.48525,1.769535 -2.19866,2.677896"
       id="path91"
       inkscape:path-effect="#path-effect93"
       inkscape:original-d="m 347.73809,14.234045 c -3.12547,-2.459605 -3.70584,-1.745001 -7.07361,-1.940454 -3.50713,-0.203538 -6.25237,-0.534842 -9.78271,0 -2.53298,0.383746 -5.23557,0.126088 -7.72578,0.586654 -5.91605,1.094177 -18.71649,8.600675 -22.42494,13.989375 -1.87534,2.725004 -3.69181,5.589728 -5.56861,8.348506 -1.31402,1.931551 -3.67408,3.16171 -4.66555,5.279856 -2.18448,4.666861 -2.53395,12.039766 -2.80943,17.058007 -0.27646,5.036124 -1.57408,9.952879 0.45151,14.756537 2.16263,5.128583 7.50546,6.502525 11.88974,9.070536 3.22207,1.887276 5.50262,4.50093 8.42817,6.678803 0.74509,0.554675 5.05005,1.036664 5.16723,1.985587 0.21247,1.720358 -2.23228,3.991147 -3.21069,5.279871" />
    <path
       style="fill:none;stroke:#000000;stroke-width:0.264583px;stroke-linecap:butt;stroke-linejoin:miter;stroke-opacity:1"
       d="m 173.95752,83.18814 c 3.63632,0.450659 7.31814,-0.138438 10.81485,-1.146895 4.51643,-1.302547 8.75273,-3.390718 13.18572,-4.926359 3.32202,-1.150788 6.92247,-1.055277 10.25809,-2.153619 1.49818,-0.493316 2.87684,-1.291355 4.18568,-2.158102 2.58892,-1.714447 4.75122,-4.050194 6.29385,-6.745156 1.95099,-3.408358 2.98155,-7.244751 3.75704,-11.066127 0.55237,-2.721908 1.0597,-5.453255 1.52018,-8.192075 0.78041,-4.641729 1.34413,-9.376208 0.86839,-14.082993 -0.37009,-3.661545 -1.40664,-7.314662 -3.40403,-10.421796 -0.90958,-1.414942 -2.38101,-2.320402 -3.43776,-3.606266 -0.86445,-1.051871 -1.40585,-2.38941 -2.51876,-3.217205 -2.92466,-2.175396 -6.08057,-4.071553 -9.48915,-5.388344 -3.35071,-1.2944357 -6.86721,-2.076707 -10.29323,-3.1363173 -1.04379,-0.3228264 -2.11109,-0.5813681 -3.12702,-0.9868683 -1.80583,-0.7207826 -3.41882,-1.9016902 -5.32312,-2.3769878 -1.88277,-0.4699247 -3.83776,-0.2888754 -5.75334,-0.2026509 -1.25339,0.056418 -2.51839,0.07075 -3.75802,-0.1728872 -1.37874,-0.2709786 -2.77716,-0.8729425 -4.17858,-0.606419 -0.68079,0.129473 -1.26342,0.5435879 -1.79555,0.9637046 -1.48712,1.1740784 -2.78434,2.5659621 -4.04639,3.9729065 -0.99981,1.1145935 -1.91461,2.3021719 -2.90066,3.4284064 -1.39742,1.596088 -3.33457,2.542063 -4.99302,3.821627 -1.54291,1.190422 -2.85961,2.645829 -4.42365,3.810631 -1.17382,0.874189 -2.53764,1.474391 -3.96419,1.801874 -2.02013,0.463746 -4.14027,0.490676 -6.08777,1.263892 -1.88027,0.746525 -3.57121,1.971333 -5.56166,2.424806 -1.68162,0.383114 -3.45409,0.08842 -5.10972,0.635114 -1.71484,0.566241 -3.18476,1.748923 -4.96934,2.114575 -1.33073,0.272661 -2.66796,-0.09764 -3.97047,-0.345424 -0.85448,-0.162552 -1.73722,-0.212113 -2.59711,-0.04118 -1.84756,0.367265 -3.61821,1.044731 -5.33903,1.795545 -3.07136,1.34007 -6.06775,2.8863 -8.82593,4.792215 -1.35395,0.935586 -2.73291,1.89524 -3.78248,3.1741 -1.60374,1.954102 -2.44763,4.444044 -2.66594,6.942891 -0.27543,3.152607 0.25857,6.335865 1.25587,9.320014 1.34734,4.031549 2.81952,8.037468 4.73973,11.834159 1.1333,2.240795 2.39426,4.445376 4.05024,6.347455 0.72915,0.837511 1.60123,1.535181 2.53216,2.138119 3.16407,2.04929 6.74404,3.360152 10.36276,4.346521 5.99325,1.633606 12.16883,2.464286 18.33621,3.109274 3.29527,0.344621 6.60499,0.541164 9.89765,0.907517 2.71457,0.302033 5.28467,1.276973 7.83719,2.196155 2.20206,0.792977 4.49017,1.521433 6.86026,1.47396 1.95982,-0.03926 3.86863,-0.672551 5.56005,-1.641789 z"
       id="path95"
       inkscape:path-effect="#path-effect97"
       inkscape:original-d="m 173.95752,83.18814 c 8.22682,1.005144 16.18926,-3.133516 23.6791,-5.956755 3.90056,-1.470287 8.48491,-1.070425 12.19073,-2.933256 10.32441,-5.189847 11.7691,-14.432849 13.69576,-24.955251 1.64751,-8.997886 2.96444,-18.523397 -1.90635,-26.760329 -0.93624,-1.583265 -2.21643,-2.341505 -3.4114,-3.655285 -1.0035,-1.103267 -1.58841,-2.621276 -2.80941,-3.51991 -8.22976,-6.0569 -12.58699,-6.2284156 -22.02357,-9.1607895 -1.84402,-0.5730229 -3.35407,-1.6669353 -5.1171,-2.3466007 -2.95172,-1.1379229 -6.01053,-0.3559011 -9.03015,-0.4964004 -1.89597,-0.088217 -3.66085,-0.919529 -5.56861,-0.8122849 -2.04807,0.1151322 -7.14899,6.2880367 -8.62883,8.1228655 -1.47732,1.831718 -3.61186,2.786405 -5.41811,4.241932 -2.60762,2.101299 -4.10677,4.254907 -7.37463,5.234742 -1.88574,0.56542 -3.85732,0.592884 -5.71911,1.083046 -2.22031,0.584555 -4.11148,2.045094 -6.32111,2.707633 -1.5882,0.476211 -3.16886,0.222274 -4.76593,0.541524 -1.92403,0.384609 -3.56919,1.753917 -5.46827,2.256339 -2.17295,0.574876 -4.24155,-0.667137 -6.32111,-0.406131 -4.51465,0.566638 -15.81004,6.345423 -18.66235,10.108452 -3.55322,4.687734 -2.81691,11.204969 -1.05352,16.426238 1.79045,5.301416 5.68751,15.903548 10.28436,19.269231 9.26023,6.780093 28.0327,7.9459 39.03039,8.935159 7.93651,0.713901 12.94243,6.486001 20.71922,2.075831 z" />
    <path
       style="fill:none;stroke:#000000;stroke-width:0.264583px;stroke-linecap:butt;stroke-linejoin:miter;stroke-opacity:1"
       d="m 79.491932,124.56963 c 0.788667,-1.89602 2.231607,-3.44263 3.863247,-4.6556 3.198895,-2.37808 7.02625,-3.74488 10.185715,-6.18278 1.581185,-1.22007 3.02735,-2.76389 3.661304,-4.67945 0.490867,-1.48321 0.41462,-3.07827 0.785128,-4.5863 0.483446,-1.9677 1.367392,-3.84999 1.517878,-5.888264 0.206558,-2.797744 0.279661,-5.62108 -0.07057,-8.411271 -0.144993,-1.155129 -0.41605,-2.290205 -0.760459,-3.401685 -0.350969,-1.132651 -0.666522,-2.283377 -0.768389,-3.471458 -0.164794,-1.921998 0.120035,-3.852807 -0.0093,-5.773262 -0.0755,-1.120974 -0.779742,-2.059463 -0.976899,-3.15487 -0.314595,-1.747891 -0.428266,-3.530997 -0.371022,-5.305024 0.034,-1.05377 0.179158,-2.100657 0.405936,-3.131769 0.968233,-4.402348 1.828582,-8.861768 3.509661,-13.063155 0.40691,-1.016958 0.86657,-2.014694 1.44163,-2.950028 0.82225,-1.337394 1.76974,-2.60638 2.39908,-4.055315 1.06533,-2.452702 1.9866,-4.965854 2.85216,-7.494769 0.98029,-2.864135 1.95951,-5.737096 2.65259,-8.685787 0.22583,-0.960794 0.39834,-1.935413 0.45051,-2.925832 0.17117,-3.24959 1.07352,-6.428202 1.05414,-9.691747 -0.008,-1.274689 -0.19707,-2.539675 -0.40701,-3.793915 -0.37838,-2.260564 -0.73155,-4.5294124 -1.28321,-6.7539606 -0.31831,-1.2835665 -0.71572,-2.5470866 -1.15213,-3.794747 -0.43133,-1.2331415 -0.80263,-2.50647127 -1.46048,-3.63818008 -0.15462,-0.26599322 -0.33593,-0.97114642 -0.55605,-0.74472862 -0.12037,0.1238158 0.0697,0.4338191 0.0769,0.6002598"
       id="path99"
       inkscape:path-effect="#path-effect101"
       inkscape:original-d="m 79.491932,124.56963 c 3.161125,-7.46929 14.466802,-7.81511 17.60883,-15.25293 0.577789,-1.36774 0.546018,-3.48612 0.903017,-4.91886 0.466577,-1.87249 1.357458,-3.90856 1.505019,-5.866508 0.241295,-3.201622 0.324319,-7.057358 -0.401341,-10.198695 -0.36336,-1.572974 -0.967327,-2.942929 -1.153853,-4.557842 -0.238339,-2.06353 -0.01879,-4.031086 -0.05017,-6.09215 -0.01789,-1.174372 -0.728403,-2.026643 -0.953172,-3.158895 -0.442886,-2.230975 -0.613717,-5.813864 -0.100349,-8.122864 1.120995,-5.041956 2.050624,-10.193497 4.214087,-14.937047 0.74772,-1.639443 1.89871,-3.032083 2.75922,-4.602956 1.40802,-2.570374 6.32384,-16.384424 6.42145,-19.72051 0.10704,-3.658084 1.36999,-7.744055 1.00335,-11.372004 -0.31733,-3.140099 -1.08304,-6.0731455 -1.60537,-9.160789 -0.13904,-0.8219358 -2.21311,-7.6190444 -3.16056,-8.258242 -0.1627,-0.1097657 0.008,0.3950672 0.0502,0.5866545" />
    <path
       style="fill:none;stroke:#000000;stroke-width:0.264583px;stroke-linecap:butt;stroke-linejoin:miter;stroke-opacity:1"
       d="m 79.491932,124.56963 c -0.02827,-1.10146 0.323507,-2.20745 0.10149,-3.29922 -0.05935,-0.29185 -0.108142,-0.61375 -0.306813,-0.8418 -0.280572,-0.32207 -0.73088,-0.38787 -1.127739,-0.45509 -0.354419,-0.06 -0.696811,-0.16929 -1.021485,-0.33097 -1.825584,-0.90909 -3.791326,-1.51528 -5.796274,-1.87765 -2.198015,-0.39727 -4.44005,-0.4683 -6.645933,-0.80253 -1.100277,-0.16671 -2.078728,-0.73733 -3.015151,-1.30617 -0.997007,-0.60564 -2.013997,-1.25326 -3.176965,-1.46966 -1.472416,-0.27398 -2.975636,-0.13298 -4.460108,-0.0725 -1.005238,0.0409 -2.016031,0.0134 -3.011096,-0.15536 -3.040442,-0.51556 -6.039826,-1.26497 -8.979768,-2.19148 -2.642474,-0.83276 -5.270855,-1.75817 -7.736066,-3.0306 -0.841936,-0.43457 -1.680632,-0.89255 -2.413801,-1.50051 -1.557284,-1.29134 -2.704456,-3.0058 -4.283117,-4.27113 -1.095751,-0.87827 -2.407803,-1.44517 -3.454323,-2.39453 C 22.408598,98.97728 21.071479,97.000063 19.74123,95.055239 18.876834,93.791492 17.9774,92.549975 16.983311,91.383516 14.809722,88.833037 12.386444,86.474037 10.541526,83.660893 9.7564442,82.463795 9.0056845,81.205898 8.6398113,79.817582 8.3623312,78.764676 8.3284419,77.664804 8.3464843,76.582626 8.3882248,74.079048 8.6905301,71.583868 9.1550917,69.126012 9.5430388,67.0735 9.9914765,65.019121 10.736566,63.064106 10.967792,62.4574 11.222909,61.855168 11.564992,61.301537"
       id="path103"
       inkscape:path-effect="#path-effect105"
       inkscape:original-d="m 79.491932,124.56963 c -0.03344,-1.32373 0.43979,-2.76219 -0.100333,-3.97117 -0.302996,-0.67821 -1.393881,-0.52247 -2.056884,-0.85743 -4.220504,-2.13225 -7.73992,-2.24232 -12.44156,-2.75274 -2.433405,-0.26418 -4.122322,-2.45836 -6.622121,-2.843 -2.294565,-0.35305 -4.645211,0.22488 -6.923133,-0.13539 -5.33445,-0.84369 -13.752528,-3.26743 -18.361342,-6.00189 -2.034945,-1.20735 -3.434239,-3.39778 -5.217433,-4.91884 -1.055219,-0.9001 -2.365754,-1.43015 -3.411399,-2.34661 C 21.588382,98.315329 19.909509,94.981309 17.635274,92.168429 14.631572,88.453308 10.293602,84.672227 8.7054395,80.029263 7.5252807,76.579089 9.4412188,64.697779 11.564992,61.301537" />
    <path
       style="fill:none;stroke:#000000;stroke-width:0.264583px;stroke-linecap:butt;stroke-linejoin:miter;stroke-opacity:1"
       d="m 10.210469,39.595443 c 0.736414,-1.471302 1.138762,-3.090479 1.31412,-4.721263 0.243349,-2.263079 0.08845,-4.541314 -0.0038,-6.808283 -0.08298,-2.038575 -0.110686,-4.094439 0.222552,-6.115337 0.162987,-0.988424 0.459336,-1.948413 0.796822,-2.889762 0.529789,-1.477741 1.163698,-2.928031 1.488127,-4.47015 0.106432,-0.505907 0.183726,-1.01984 0.189125,-1.537961 0.01116,-1.070797 -0.116098,-2.138142 -0.09989,-3.2089679 0.0095,-0.6261525 0.04901,-1.2645289 0.259297,-1.8594939 0.105566,-0.2986796 0.270676,-0.5709038 0.431823,-0.8418528 0.526739,-0.8856462 1.138464,-1.7258825 1.550432,-2.6758827 0.185894,-0.4286728 0.293971,-0.884882 0.444563,-1.3260527 0.06446,-0.1888318 0.125646,-0.3920475 0.27165,-0.5359216 0.111539,-0.1099119 0.281086,-0.1267943 0.428113,-0.09613 0.295182,0.061564 0.563551,0.2092523 0.821879,0.3587614 0.312974,0.1811361 0.615444,0.3797542 0.915373,0.581548"
       id="path107"
       inkscape:path-effect="#path-effect109"
       inkscape:original-d="m 10.210469,39.595443 c 2.854246,-5.736616 0.363167,-12.308943 1.655526,-18.276448 0.559984,-2.585742 1.975165,-4.955641 2.307713,-7.581342 0.214063,-1.690173 -0.449972,-4.57882 0.351168,-6.0921491 0.563695,-1.0648021 1.319867,-2.0036277 1.80604,-3.113763 0.817078,-1.8657252 0.197959,-2.9125274 2.909719,-1.0830464" />
    <path
       style="fill:none;stroke:#000000;stroke-width:0.264583px;stroke-linecap:butt;stroke-linejoin:miter;stroke-opacity:1"
       d="m 106.53229,-1.0640075 c 0.16359,1.10634674 0.30417,2.2160899 0.47889,3.3208457 0.25701,1.6251195 0.53184,3.251427 0.95883,4.8419846 0.2008,0.747994 0.47224,1.4806757 0.86872,2.1492259 0.80191,1.3522013 1.94895,2.4525743 3.11179,3.4925333 1.28997,1.153657 2.6808,2.211961 3.80569,3.534393 2.62215,3.082635 4.96688,6.408819 7.84326,9.269643 1.58823,1.579643 3.3967,2.920327 5.30997,4.092563 0.80421,0.492728 1.51576,1.116846 2.26461,1.68644 0.77489,0.589401 1.57849,1.174227 2.50304,1.505229 0.50873,0.182132 1.06018,0.236321 1.59717,0.150412 1.52373,-0.243769 2.97985,-0.794715 4.37948,-1.427912 2.60595,-1.178942 5.07787,-2.634193 7.47042,-4.195465 2.48781,-1.623431 4.88387,-3.383612 7.22781,-5.209396 0.87536,-0.681852 1.63735,-1.495284 2.34258,-2.348717 0.91464,-1.106852 1.77859,-2.25777 2.77869,-3.291975 1.74504,-1.804554 3.75522,-3.349117 5.33941,-5.309364 0.75065,-0.928838 1.36353,-1.9635115 1.84943,-3.0544562 0.77477,-1.73951 1.25345,-3.5985185 2.09893,-5.3080683 0.52752,-1.0666445 1.24957,-2.05973882 2.21874,-2.76738011 0.22933,-0.16744652 0.47035,-0.31880689 0.72024,-0.45363616"
       id="path111"
       inkscape:path-effect="#path-effect113"
       inkscape:original-d="m 106.53229,-1.0640075 c 0.14795,0.87841208 0.84495,6.8756124 1.806,9.2961659 1.3211,3.3273696 5.26367,5.4895686 7.52514,8.1679966 4.05252,4.799704 7.40469,10.030521 12.94325,13.177081 1.74229,0.989833 4.07631,3.711689 6.27095,3.429667 5.54148,-0.712113 15.52012,-7.789152 19.5152,-11.056122 1.70412,-1.393543 2.81614,-3.161876 4.26424,-4.783481 2.45788,-2.752377 5.52727,-4.656707 7.32448,-8.0326029 1.84856,-3.4723736 2.05026,-7.6500325 5.51844,-9.52180487" />
    <path
       style="fill:none;stroke:#000000;stroke-width:0.264583px;stroke-linecap:butt;stroke-linejoin:miter;stroke-opacity:1"
       d="m 305.89831,200.25721 c -1.34676,0.38078 -2.7625,0.54073 -4.05291,1.09801 -0.13011,0.0562 -0.30789,0.058 -0.38821,0.17498 -0.0627,0.0913 0.11493,0.10537 0.17854,0.1127 0.36229,0.0417 0.7299,0.0308 1.09158,-0.0114 0.37583,-0.0439 0.72037,-0.21832 1.04342,-0.40552 0.51407,-0.29789 0.99338,-0.66823 1.56018,-0.86574 0.26175,-0.0912 0.54124,-0.11198 0.81707,-0.10091 0.86122,0.0346 1.68126,0.32902 2.48742,0.60856 0.75501,0.2618 1.52623,0.51254 2.33046,0.55852 1.17543,0.0672 2.3503,-0.12509 3.48605,-0.41297 1.79118,-0.45402 3.51709,-1.13539 5.19014,-1.91405 1.8037,-0.83947 3.51713,-1.85441 5.23875,-2.84724 1.32836,-0.76604 2.64984,-1.55028 4.03514,-2.20923 0.40614,-0.19319 0.85257,-0.28779 1.30017,-0.31255 0.48368,-0.0268 0.97069,-0.0354 1.44724,-0.13509 0.68682,-0.14373 1.31989,-0.46301 1.92774,-0.80451 2.12745,-1.19526 4.19177,-2.49984 6.22327,-3.85051 2.25821,-1.5014 4.49211,-3.0431 6.6404,-4.69877 0.60073,-0.46298 1.19551,-0.93424 1.77019,-1.42937"
       id="path115"
       inkscape:path-effect="#path-effect117"
       inkscape:original-d="m 305.89831,200.25721 c -1.45981,0.41247 -2.99813,0.61035 -4.37941,1.23743 -0.44241,0.20085 0.98729,0.22238 1.45486,0.0903 1.03026,-0.29111 1.85423,-1.30269 2.92455,-1.32769 1.64502,-0.0384 3.16455,0.97776 4.80126,1.14718 3.20521,0.33177 7.94224,-1.7064 10.73586,-3.20403 2.47079,-1.32454 4.86934,-2.85452 7.37466,-4.10656 1.52423,-0.76175 2.22961,0.0971 4.46489,-1.12818 4.42537,-2.42575 11.91475,-7.53256 14.94997,-10.15356" />
    <path
       style="fill:none;stroke:#000000;stroke-width:0.264583px;stroke-linecap:butt;stroke-linejoin:miter;stroke-opacity:1"
       d="m 352.03767,48.198132 c -0.94569,-0.44094 -2.0324,-0.607988 -3.05851,-0.374536 -1.22313,0.278277 -2.27223,1.03087 -3.18626,1.860557 -1.16773,1.05998 -2.14008,2.309745 -3.2364,3.438888 -1.56002,1.606719 -3.38314,2.918293 -5.10106,4.345087 -3.00668,2.49715 -6.42749,4.475708 -9.24939,7.197254 -0.9579,0.923835 -1.89481,1.896079 -2.59015,3.033341 -0.6873,1.124105 -1.1703,2.359138 -1.60005,3.599637 -0.94165,2.718132 -1.67054,5.509804 -2.20181,8.335577 -0.33289,1.770616 -0.61423,3.557417 -0.69044,5.360464 -0.0406,0.961317 0.0982,1.924609 0.38045,2.844001 0.55925,1.821446 1.61157,3.464639 2.01252,5.338656 0.16507,0.771524 0.22444,1.560758 0.28494,2.345776 0.21102,2.738142 0.13601,5.519896 0.76066,8.206906 0.55156,2.37262 0.55971,4.82044 0.6499,7.24155 0.0813,2.18154 0.27478,4.39351 1.02312,6.46207 0.69731,1.9275 1.88693,3.65648 3.34246,5.09026 1.58367,1.56001 3.5213,2.69514 5.49579,3.68701 1.88843,0.94864 3.84453,1.76912 5.67147,2.83477 1.69587,0.9892 3.2229,2.23604 4.90299,3.2504 0.67183,0.40562 1.33041,0.84573 2.06041,1.14244 0.71491,0.29058 1.49921,0.22052 2.25318,0.21092 0.44845,-0.006 0.89797,-0.0444 1.3459,-0.0131 0.44634,0.0312 0.80674,0.32214 1.20359,0.50401 0.1872,0.0858 0.35719,0.28793 0.57802,0.24915 0.0924,-0.0162 0.30853,-0.13705 0.30321,-0.13384 -0.5851,0.35343 -1.20277,0.65671 -1.75618,1.06006 -0.24366,0.17759 -0.49052,0.43889 -0.45974,0.76327 0.0396,0.41758 0.27263,0.78318 0.48818,1.13113 0.28512,0.46025 0.59058,0.90751 0.88967,1.3587"
       id="path119"
       inkscape:path-effect="#path-effect121"
       inkscape:original-d="m 352.03767,48.198132 c -3.89837,-1.773476 -6.5459,1.685978 -9.18067,4.602956 -1.46561,1.622605 -3.60175,3.148341 -5.21742,4.512702 -3.91343,3.304706 -8.79814,5.818155 -11.83955,10.108459 -2.23343,3.150552 -4.9089,14.481204 -4.66559,18.456946 0.18434,3.012398 2.14824,5.117248 2.50836,8.032613 0.41532,3.362269 0.21728,6.663082 0.95319,9.973082 1.21936,5.48451 -0.39402,10.93016 2.85956,16.02009 3.18709,4.98589 7.91991,6.23301 12.8429,8.89001 1.7449,0.94176 3.32899,2.24496 5.01677,3.29429 2.9645,1.84312 2.62548,1.58694 5.66893,1.53431 0.93824,-0.0162 1.21997,0.38068 1.95654,0.76716 0.13915,0.073 0.58706,-0.21488 0.45152,-0.13538 -2.73582,1.60496 -2.8489,1.29377 -0.83807,4.31316" />
  </g>
</svg>
