<?xml version="1.0" encoding="UTF-8" standalone="no"?>
<!-- Created with Inkscape (http://www.inkscape.org/) -->

<svg
   width="169.33333mm"
   height="127mm"
   viewBox="0 0 169.33333 127"
   version="1.1"
   id="svg5"
   inkscape:version="1.1.2 (08b2f3d93c, 2022-04-05)"
   sodipodi:docname="Vasos.svg"
   xmlns:inkscape="http://www.inkscape.org/namespaces/inkscape"
   xmlns:sodipodi="http://sodipodi.sourceforge.net/DTD/sodipodi-0.dtd"
   xmlns="http://www.w3.org/2000/svg"
   xmlns:svg="http://www.w3.org/2000/svg">
  <sodipodi:namedview
     id="namedview7"
     pagecolor="#ffffff"
     bordercolor="#666666"
     borderopacity="1.0"
     inkscape:pageshadow="2"
     inkscape:pageopacity="0.0"
     inkscape:pagecheckerboard="0"
     inkscape:document-units="mm"
     showgrid="false"
     inkscape:zoom="0.50359649"
     inkscape:cx="214.45741"
     inkscape:cy="163.82164"
     inkscape:window-width="1366"
     inkscape:window-height="704"
     inkscape:window-x="0"
     inkscape:window-y="27"
     inkscape:window-maximized="1"
     inkscape:current-layer="layer2" />
  <defs
     id="defs2">
    <inkscape:path-effect
       effect="simplify"
       id="path-effect57"
       is_visible="true"
       lpeversion="1"
       steps="1"
       threshold="0.000408163"
       smooth_angles="360"
       helper_size="0"
       simplify_individual_paths="false"
       simplify_just_coalesce="false" />
  </defs>
  <g
     inkscape:groupmode="layer"
     id="layer2"
     inkscape:label="Vasos">
    <path
       style="fill:none;stroke:#000000;stroke-width:0.264583px;stroke-linecap:butt;stroke-linejoin:miter;stroke-opacity:1"
       d="m 5.8153678,26.538113 c 1.7559439,0.422189 3.5724213,0.511874 5.3723682,0.480503 1.19498,-0.02083 2.38723,-0.110586 3.580721,-0.167553 0.810658,-0.03869 1.626779,0.03551 2.433367,-0.08073 0.411787,-0.05934 0.811243,-0.182634 1.198565,-0.333615 2.293719,-0.894111 4.56298,-1.887117 6.653054,-3.197618 1.537543,-0.964057 3.005214,-2.08409 4.160701,-3.490131 0.415037,-0.505033 0.634368,-1.135103 1.035055,-1.650972 0.438207,-0.564175 0.921338,-1.090816 1.394818,-1.625057 0.367566,-0.414735 0.715637,-0.857707 0.937779,-1.370045 0.291725,-0.672821 0.330154,-1.416439 0.441389,-2.134892 0.05004,-0.323201 0.165399,-0.635757 0.176744,-0.965193 0.0052,-0.149831 -0.05242,-0.291306 -0.09907,-0.430622 -0.06803,-0.203164 -0.132071,-0.411462 -0.246094,-0.595046 -0.05382,-0.08665 -0.147811,-0.144522 -0.250581,-0.149534 -0.157448,-0.0077 -0.31661,-0.0085 -0.470464,-0.04892 -0.190094,-0.04989 -0.436482,-0.07062 -0.53612,-0.239295 -0.03763,-0.06371 -0.02841,-0.14231 -0.03309,-0.2137 -0.01226,-0.18706 -0.09639,-0.3683536 -0.238598,-0.4928472 C 31.165647,9.6925484 30.963523,9.6145058 30.767198,9.540146 30.122068,9.2957973 29.428175,9.229428 28.744622,9.1940988 28.242041,9.1681231 27.739729,9.1367027 27.238619,9.089038 26.063804,8.9772915 24.889505,8.794459 23.707114,8.8266135 c -0.886019,0.024095 -1.747906,0.2590841 -2.593278,0.5074646 -0.418075,0.1228355 -0.831312,0.2633888 -1.254108,0.3691578 -0.668058,0.1671253 -1.361446,0.2071786 -2.023979,0.4021281 -1.559321,0.458828 -3.055796,1.106121 -4.620501,1.549234 -1.884204,0.533593 -3.8088762,0.954668 -5.6231238,1.707407 -1.2039094,0.499507 -2.3712056,1.148465 -3.2966952,2.076519 -0.2145126,0.215107 -0.433769,0.430002 -0.608946,0.678868 -0.2713908,0.385553 -0.4607473,0.81966 -0.7227262,1.212085 -0.3838555,0.574987 -0.7077424,1.212743 -0.8004454,1.906134 -0.069937,0.523111 0.026056,1.05749 0.2241269,1.543528 0.2714109,0.666004 0.6852441,1.259691 1.0834181,1.854219 0.2057507,0.307214 0.4234773,0.606764 0.61788,0.92138 0.2138638,0.346111 0.3609586,0.730859 0.6009477,1.061334 0.2031041,0.279683 0.4886852,0.487475 0.7939204,0.644917 0.8944437,0.461359 1.8935104,0.689139 2.891645,0.770003 0.9416624,0.07629 1.8935955,0.02916 2.8236175,-0.136413"
       id="path55"
       inkscape:path-effect="#path-effect57"
       inkscape:original-d="m 5.8153678,26.538113 c 2.8676356,0.688612 5.8615922,0.496874 8.7817222,0.321765 1.343071,-0.08054 2.35895,0.136501 3.666503,-0.37003 3.887006,-1.505779 8.129106,-3.464946 10.910082,-6.692758 0.439042,-0.509584 0.637275,-1.138609 1.055235,-1.673185 1.734786,-2.218819 2.578185,-2.304043 2.790121,-5.116095 0.02016,-0.267599 0.248621,-0.874824 0.160965,-1.174448 C 32.70101,10.196097 32.74637,11.230101 31.606082,10.54629 31.506189,10.486386 31.71862,9.9832553 31.087406,9.6775208 30.0829,9.1909798 29.004789,9.2230177 27.921698,9.1466047 26.565325,9.0509113 25.215303,8.8248383 23.843833,8.8248383 c -1.296148,0 -2.59752,0.4860586 -3.827474,0.8365927 -0.703902,0.2006102 -1.401964,0.2190347 -2.09259,0.418299 -1.503482,0.433796 -2.94115,1.059323 -4.435572,1.496219 -3.307405,0.966921 -7.3679885,1.613223 -9.7117621,4.424292 -0.2798305,0.335622 -0.5048491,0.881549 -0.7511873,1.238802 -1.7841785,2.587511 -0.5620658,3.871236 0.9658094,6.161843 0.4928391,0.738869 0.5319717,1.342505 1.4129477,1.817981 1.688697,0.911414 3.9867133,1.001 5.7948623,0.675712" />
  </g>
</svg>
