<?xml version="1.0" encoding="UTF-8" standalone="no"?>
<!-- Created with Inkscape (http://www.inkscape.org/) -->

<svg
   xmlns:dc="http://purl.org/dc/elements/1.1/"
   xmlns:cc="http://creativecommons.org/ns#"
   xmlns:rdf="http://www.w3.org/1999/02/22-rdf-syntax-ns#"
   xmlns:svg="http://www.w3.org/2000/svg"
   xmlns="http://www.w3.org/2000/svg"
   xmlns:sodipodi="http://sodipodi.sourceforge.net/DTD/sodipodi-0.dtd"
   xmlns:inkscape="http://www.inkscape.org/namespaces/inkscape"
   width="169.33333mm"
   height="127mm"
   viewBox="0 0 169.33333 127"
   version="1.1"
   id="svg2714"
   sodipodi:docname="3_4_glandulas_seromucosas.svg"
   inkscape:version="0.92.4 (5da689c313, 2019-01-14)">
  <defs
     id="defs2708" />
  <sodipodi:namedview
     id="base"
     pagecolor="#ffffff"
     bordercolor="#666666"
     borderopacity="1.0"
     inkscape:pageopacity="0.0"
     inkscape:pageshadow="2"
     inkscape:zoom="0.98994949"
     inkscape:cx="285.31827"
     inkscape:cy="231.21414"
     inkscape:document-units="mm"
     inkscape:current-layer="layer23"
     showgrid="false"
     fit-margin-top="0"
     fit-margin-left="0"
     fit-margin-right="0"
     fit-margin-bottom="0"
     inkscape:window-width="1920"
     inkscape:window-height="1001"
     inkscape:window-x="-9"
     inkscape:window-y="-9"
     inkscape:window-maximized="1" />
  <metadata
     id="metadata2711">
    <rdf:RDF>
      <cc:Work
         rdf:about="">
        <dc:format>image/svg+xml</dc:format>
        <dc:type
           rdf:resource="http://purl.org/dc/dcmitype/StillImage" />
        <dc:title></dc:title>
      </cc:Work>
    </rdf:RDF>
  </metadata>
  <g
     inkscape:groupmode="layer"
     id="layer23"
     inkscape:label="glandulas seromucosas">
    <path
       style="fill:none;stroke:#000000;stroke-width:0.26458332px;stroke-linecap:butt;stroke-linejoin:miter;stroke-opacity:1"
       d="m 63.877975,64.066964 c 0.377976,-0.881946 0.777571,-1.754936 1.13393,-2.645833 0.143989,-0.359979 -0.081,-0.081 -0.188989,-0.188989 -0.09449,-0.09449 0.09449,-0.472469 0,-0.566965 -0.04454,-0.04454 -0.144444,0.04454 -0.188989,0 -0.09449,-0.09449 0.0945,-0.472469 0,-0.566963 -0.04454,-0.04454 -0.144442,0.04455 -0.188987,0 -0.04454,-0.04454 0.04454,-0.144444 0,-0.188989 -0.04454,-0.04454 -0.144444,0.04454 -0.188989,0 -0.04454,-0.04454 0.02817,-0.132644 0,-0.188987 -0.03984,-0.07968 -0.149146,-0.109304 -0.188987,-0.188989 -0.02817,-0.05635 0.04454,-0.144444 0,-0.188989 -0.04454,-0.04454 -0.144444,0.04454 -0.188989,0 -0.04454,-0.04454 0.04454,-0.144441 0,-0.188987 -0.08909,-0.08909 -0.265284,0.05635 -0.377976,0 -0.07968,-0.03984 -0.109304,-0.149145 -0.188989,-0.188989 -0.112689,-0.05635 -0.288885,0.08909 -0.377976,0 -0.04454,-0.04454 0.04454,-0.144441 0,-0.188986 -0.04454,-0.04455 -0.125992,0 -0.188986,0 -0.08911,0 -0.936377,-0.0086 -0.944941,0 -0.04455,0.04454 0.04454,0.144441 0,0.188986 -0.08909,0.08909 -0.288888,-0.08909 -0.377976,0 -0.04454,0.04454 0.04454,0.144444 0,0.188989 -0.04454,0.04455 -0.132644,-0.02817 -0.188989,0 -0.07969,0.03984 -0.109302,0.149146 -0.188987,0.188987 -0.05635,0.02817 -0.144444,-0.04454 -0.188989,0 -0.09449,0.0945 0.09449,0.472472 0,0.566965 -0.04454,0.04454 -0.144444,-0.04454 -0.188989,0 -0.04454,0.04454 0,0.125992 0,0.188989 0,0.314979 0,0.62996 0,0.944941 0,0.440971 0,0.881944 0,1.322917 0,0.06299 -0.04454,0.144441 0,0.188986 0.04454,0.04455 0.144444,-0.04454 0.188989,0 0.125124,0.125124 -0.125124,0.252855 0,0.377976 0.04454,0.04454 0.144444,-0.04454 0.188989,0 0.08909,0.08909 -0.08909,0.288888 0,0.377976 0.04454,0.04454 0.144441,-0.04454 0.188987,0 0.125124,0.125124 -0.125122,0.252854 0,0.377978 0.125124,0.125122 0.252854,-0.125124 0.377976,0 0.04454,0.04454 0,0.125992 0,0.188987 0.063,0 0.144443,-0.04454 0.188989,0 0.04454,0.04454 -0.04455,0.144444 0,0.188989 0.0076,0.0076 0.686549,0 0.755951,0 0.503968,0 -0.06299,-0.063 0.18899,0.188987 0.04454,0.04454 0.125992,0 0.188986,0 0.448728,0 0.127873,0.01529 0.944941,-0.188987 z"
       id="path3295"
       inkscape:connector-curvature="0" />
    <path
       style="fill:none;stroke:#000000;stroke-width:0.26458332px;stroke-linecap:butt;stroke-linejoin:miter;stroke-opacity:1"
       d="m 74.839284,56.50744 c 0.50397,-0.818949 1.007938,-1.637898 1.511906,-2.456847 0,-0.06299 -0.02817,-0.13264 0,-0.188986 0.07968,-0.159369 0.298291,-0.218607 0.377976,-0.377976 0,-0.50397 -0.063,0.063 0.188989,-0.188989 0.05852,-0.05852 -0.05852,-0.88642 0,-0.944941 0.04454,-0.04455 0.144441,0.04454 0.188987,0 0.01889,-0.01889 0.01889,-0.548066 0,-0.566962 -0.04455,-0.04455 -0.144444,0.04454 -0.188987,0 -0.05171,-0.05171 0.05126,-0.653431 0,-0.755955 -0.03984,-0.07968 -0.149148,-0.109302 -0.188989,-0.188986 -0.05635,-0.112692 0.05634,-0.265287 0,-0.377976 -0.03984,-0.07969 -0.149146,-0.109305 -0.18899,-0.188989 -0.02817,-0.05635 0.04455,-0.144444 0,-0.18899 -0.04454,-0.04454 -0.144441,0.04455 -0.188986,0 -0.08909,-0.08909 0.08909,-0.288885 0,-0.377975 -0.04454,-0.04455 -0.144444,0.04454 -0.188989,0 -0.04455,-0.04455 0.02817,-0.132641 0,-0.188987 -0.03984,-0.07968 -0.149146,-0.109305 -0.188987,-0.188989 -0.02817,-0.05635 0.04454,-0.144444 0,-0.188987 -0.04454,-0.04454 -0.144444,0.04454 -0.188989,0 -0.04454,-0.04454 0.04454,-0.144444 0,-0.188989 -0.04454,-0.04454 -0.132644,0.02817 -0.188987,0 -0.07968,-0.03984 -0.109304,-0.149146 -0.188989,-0.188989 -0.112691,-0.05634 -0.288885,0.08909 -0.377976,0 -0.04454,-0.04454 0.04454,-0.144442 0,-0.188987 -0.04454,-0.04454 -0.125992,0 -0.188989,0 -0.04583,0 -0.560885,-0.0061 -0.566962,0 -0.04455,0.04454 0.04454,0.144444 0,0.188987 -0.04455,0.04454 -0.144444,-0.04454 -0.18899,0 -0.04454,0.04454 0.04455,0.144444 0,0.188989 -0.04454,0.04454 -0.144444,-0.04454 -0.188989,0 -0.09449,0.09449 0.0945,0.472469 0,0.566965 -0.04454,0.04454 -0.144441,-0.04454 -0.188986,0 -0.08909,0.08909 0.08909,0.288885 0,0.377976 -0.04455,0.04454 -0.144444,-0.04454 -0.18899,0 -0.08909,0.08909 0.05635,0.265284 0,0.377976 -0.03984,0.07968 -0.149145,0.109304 -0.188986,0.188989 -0.02442,0.04886 0,0.999971 0,1.133927 0,0.063 0,0.125992 0,0.18899 0,0.06299 0.04454,0.144441 0,0.188986 -0.04454,0.04454 -0.144444,-0.04454 -0.188989,0 -0.03863,0.03864 0.03747,0.492033 0,0.566965 -0.03984,0.07968 -0.149146,0.109302 -0.188987,0.188987 -0.05635,0.112691 0.05634,0.265287 0,0.377978 -0.03984,0.07968 -0.149148,0.109302 -0.188989,0.188987 -0.05635,0.112691 0.08909,0.288888 0,0.377976 -0.04454,0.04454 -0.144444,-0.04455 -0.188989,0 -0.09449,0.0945 0.09449,0.472471 0,0.566965 -0.04454,0.04454 -0.144442,-0.04455 -0.188987,0 -0.04454,0.04454 0,0.125992 0,0.188989 0,0.063 -0.04454,0.144441 0,0.188986 0.04454,0.04455 0.144444,-0.04454 0.188987,0 0.04454,0.04455 0,0.125992 0,0.18899 0,0.08911 -0.0086,0.936373 0,0.944941 0.04454,0.04454 0.144444,-0.04455 0.188989,0 0.126367,0.126367 -0.126368,0.251605 0,0.377975 0.04454,0.04455 0.144444,-0.04454 0.188989,0 0.04454,0.04455 -0.04454,0.144442 0,0.188987 0.04454,0.04454 0.144441,-0.04455 0.188987,0 0.04454,0.04454 -0.04455,0.144444 0,0.188989 0.04454,0.04454 0.144444,-0.04454 0.188989,0 0.04454,0.04454 -0.04454,0.144444 0,0.188987 0.08909,0.08909 0.288885,-0.08909 0.377976,0 0.04454,0.04454 -0.04455,0.144444 0,0.188989 0.04454,0.04454 0.125992,0 0.188986,0 0.063,0 0.125995,0 0.188989,0 0.063,0 0.18899,-0.063 0.18899,0 0,0.063 -0.241406,0.03494 -0.18899,0 0.234411,-0.156274 0.503968,-0.251984 0.755952,-0.377976 z"
       id="path3297"
       inkscape:connector-curvature="0" />
  </g>
</svg>
