<?xml version="1.0" encoding="UTF-8" standalone="no"?>
<!-- Created with Inkscape (http://www.inkscape.org/) -->

<svg
   xmlns:dc="http://purl.org/dc/elements/1.1/"
   xmlns:cc="http://creativecommons.org/ns#"
   xmlns:rdf="http://www.w3.org/1999/02/22-rdf-syntax-ns#"
   xmlns:svg="http://www.w3.org/2000/svg"
   xmlns="http://www.w3.org/2000/svg"
   xmlns:sodipodi="http://sodipodi.sourceforge.net/DTD/sodipodi-0.dtd"
   xmlns:inkscape="http://www.inkscape.org/namespaces/inkscape"
   width="169.33333mm"
   height="127mm"
   viewBox="0 0 169.33333 127"
   version="1.1"
   id="svg3940"
   sodipodi:docname="3_6_arterias_musculares.svg"
   inkscape:version="0.92.4 (5da689c313, 2019-01-14)">
  <defs
     id="defs3934" />
  <sodipodi:namedview
     id="base"
     pagecolor="#ffffff"
     bordercolor="#666666"
     borderopacity="1.0"
     inkscape:pageopacity="0.0"
     inkscape:pageshadow="2"
     inkscape:zoom="0.98994949"
     inkscape:cx="30.987868"
     inkscape:cy="309.01618"
     inkscape:document-units="mm"
     inkscape:current-layer="layer33"
     showgrid="false"
     fit-margin-top="0"
     fit-margin-left="0"
     fit-margin-right="0"
     fit-margin-bottom="0"
     inkscape:window-width="1920"
     inkscape:window-height="1001"
     inkscape:window-x="-9"
     inkscape:window-y="-9"
     inkscape:window-maximized="1" />
  <metadata
     id="metadata3937">
    <rdf:RDF>
      <cc:Work
         rdf:about="">
        <dc:format>image/svg+xml</dc:format>
        <dc:type
           rdf:resource="http://purl.org/dc/dcmitype/StillImage" />
        <dc:title></dc:title>
      </cc:Work>
    </rdf:RDF>
  </metadata>
  <g
     inkscape:groupmode="layer"
     id="layer33"
     inkscape:label="arterias musculares">
    <path
       style="fill:none;stroke:#000000;stroke-width:0.26458332px;stroke-linecap:butt;stroke-linejoin:miter;stroke-opacity:1"
       d="m 121.07309,41.741021 c 0.66818,0.04454 1.33657,0.08592 2.00453,0.133633 0.57932,0.04138 1.15774,0.095 1.73725,0.133636 0.17778,0.01185 0.35636,0 0.53454,0 0.4009,0 0.80181,0 1.20271,0 0.4009,0 0.80181,0 1.20271,0 0.13364,0 0.27126,0.03241 0.40091,0 0.0966,-0.02416 0.17277,-0.102138 0.26727,-0.133636 0.142,-0.04733 0.39253,0.04733 0.53453,0 0.0945,-0.0315 0.17278,-0.102135 0.26728,-0.133633 0.142,-0.04733 0.39253,0.04733 0.53453,0 0.0945,-0.0315 0.17278,-0.102137 0.26727,-0.133636 0.0423,-0.01408 0.0914,0.01408 0.13364,0 0.0945,-0.0315 0.17277,-0.102137 0.26727,-0.133633 0.0423,-0.01408 0.0914,0.01408 0.13363,0 0.0945,-0.0315 0.17064,-0.109479 0.26727,-0.133636 0.0864,-0.02162 0.18084,0.02162 0.26727,0 0.0966,-0.02416 0.17064,-0.109477 0.26727,-0.133636 0.0864,-0.02162 0.18084,0.02162 0.26727,0 0.0966,-0.02416 0.17064,-0.109476 0.26727,-0.133633 0.0864,-0.02162 0.18275,0.02817 0.26727,0 0.0598,-0.01992 0.0739,-0.113715 0.13363,-0.133636 0.0845,-0.02817 0.18084,0.02162 0.26727,0 0.0966,-0.02416 0.17064,-0.109476 0.26727,-0.133635 0.0864,-0.02162 0.18084,0.02162 0.26727,0 0.0966,-0.02416 0.17278,-0.102135 0.26727,-0.133633 0.0423,-0.01408 0.0914,0.01407 0.13364,0 0.0945,-0.0315 0.17064,-0.109477 0.26727,-0.133636 0.0864,-0.02162 0.18084,0.02162 0.26727,0 0.0966,-0.02416 0.17063,-0.109477 0.26726,-0.133633 0.0864,-0.02162 0.18084,0.02162 0.26728,0 0.0966,-0.02416 0.17817,-0.08909 0.26727,-0.133636 0.17817,-0.08909 0.34957,-0.193286 0.53453,-0.267269 0.13079,-0.05232 0.27012,-0.08132 0.40091,-0.133636 0.0925,-0.03699 0.17064,-0.109476 0.26727,-0.133635 0.0864,-0.02162 0.18084,0.02162 0.26727,0 0.38757,-0.09689 0.15639,-0.104257 0.4009,-0.267269 0.0829,-0.05525 0.17818,-0.08909 0.26727,-0.133636 0.17818,-0.08909 0.34958,-0.193283 0.53454,-0.267269 0.13079,-0.05231 0.27012,-0.08132 0.4009,-0.133633 0.34362,-0.137448 0.62139,-0.346107 0.93545,-0.53454 0.0854,-0.05125 0.17478,-0.09664 0.26727,-0.133636 0.13079,-0.05231 0.28011,-0.06116 0.4009,-0.133633 0.10804,-0.06482 0.15923,-0.202449 0.26727,-0.267269 0.12079,-0.07248 0.27143,-0.07815 0.40091,-0.133636 0.1831,-0.07847 0.35143,-0.188796 0.53454,-0.267269 0.12947,-0.05549 0.27011,-0.08132 0.4009,-0.133635 0.0925,-0.03699 0.17479,-0.09664 0.26727,-0.133636 0.13079,-0.05231 0.27491,-0.07064 0.4009,-0.133633 0.14366,-0.07183 0.25725,-0.195443 0.40091,-0.267269 0.12599,-0.063 0.27011,-0.08132 0.4009,-0.133636 0.0925,-0.03699 0.17479,-0.09664 0.26727,-0.133635 0.13079,-0.05231 0.27012,-0.08132 0.4009,-0.133634 0.0925,-0.03699 0.17479,-0.09664 0.26728,-0.133635 0.39168,-0.156676 0.81102,-0.244229 1.20271,-0.400905 0.27313,-0.109254 0.53858,-0.269293 0.80181,-0.400905 0.0891,-0.04454 0.17063,-0.109476 0.26726,-0.133633 0.0864,-0.02162 0.18084,0.02162 0.26728,0 0.0966,-0.02416 0.17063,-0.109476 0.26726,-0.133635 0.0864,-0.02162 0.18084,0.02162 0.26727,0 0.19327,-0.04832 0.34128,-0.218954 0.53454,-0.267269 0.0864,-0.02162 0.17991,0.01746 0.26727,0 0.27523,-0.05504 0.4306,-0.148484 0.66818,-0.267269 0.0891,-0.04454 0.17063,-0.109479 0.26727,-0.133636 0.17286,-0.04321 0.36168,0.04321 0.53454,0 0.19326,-0.04832 0.34127,-0.218953 0.53453,-0.267269 0.0864,-0.02162 0.18276,0.02817 0.26727,0 0.0598,-0.01992 0.0891,-0.08909 0.13364,-0.133635 0.0891,0 0.18084,0.02162 0.26727,0 0.19326,-0.04832 0.34127,-0.218954 0.53454,-0.267269 0.0864,-0.02162 0.18084,0.02162 0.26727,0 0.0966,-0.02416 0.17063,-0.109477 0.26726,-0.133636 0.0864,-0.02162 0.18084,0.02162 0.26728,0 0.0966,-0.02416 0.17277,-0.102137 0.26727,-0.133633 0.0423,-0.01408 0.0914,0.01408 0.13363,0 0.0945,-0.0315 0.17064,-0.109479 0.26727,-0.133636 0.0864,-0.02162 0.18084,0.02162 0.26727,0 0.0966,-0.02416 0.17064,-0.109477 0.26727,-0.133636 0.0864,-0.02162 0.18084,0.02162 0.26727,0 0.19326,-0.04832 0.34127,-0.218953 0.53454,-0.267268 0.0864,-0.02162 0.18084,0.02162 0.26727,0 0.19326,-0.04832 0.34957,-0.193284 0.53454,-0.267269 0.13078,-0.05232 0.27011,-0.08132 0.4009,-0.133636 0.27648,-0.110593 0.52532,-0.290309 0.80181,-0.400905 0.13079,-0.05231 0.27012,-0.08132 0.4009,-0.133633 0.18497,-0.07399 0.34958,-0.193286 0.53454,-0.267271 0.13079,-0.05231 0.27012,-0.08132 0.40091,-0.133633 0.18496,-0.07399 0.34127,-0.218954 0.53453,-0.267272 0.0864,-0.02162 0.18084,0.02162 0.26728,0 0.24186,0.08055 0.24853,-0.216479 0.4009,-0.267269 0.0845,-0.02817 0.18084,0.02162 0.26727,0 0.0966,-0.02416 0.17277,-0.102137 0.26727,-0.133633 0.39781,-0.132604 -0.27419,0.316429 0.4009,-0.133636 0.0524,-0.03494 0.0773,-0.105462 0.13364,-0.133635 0.0398,-0.01992 0.0938,0.01992 0.13363,0 0.0564,-0.02817 0.0812,-0.09869 0.13364,-0.133633 0.0829,-0.05525 0.18439,-0.07839 0.26727,-0.133636 0.0524,-0.03494 0.0891,-0.08909 0.13363,-0.133636 0.0445,-0.04454 0.10546,-0.07729 0.13363,-0.133633 0.0199,-0.03984 -0.0199,-0.09379 0,-0.133636 0.0802,-0.160361 0.32073,-0.240543 0.40091,-0.400904 0.0199,-0.03984 -0.0199,-0.09379 0,-0.133633 0.0282,-0.05635 0.10546,-0.07729 0.13364,-0.133636 0.0199,-0.03984 -0.0199,-0.09379 0,-0.133636 0.0282,-0.05634 0.10546,-0.07729 0.13363,-0.133633 0.0199,-0.03984 -0.0199,-0.09379 0,-0.133636 0.0282,-0.05635 0.10546,-0.07729 0.13363,-0.133633 0.0199,-0.03984 -0.0199,-0.0938 0,-0.133636 0.3058,-0.611595 -0.0554,0.567069 0.26727,-0.400904 0.0141,-0.04226 -0.0199,-0.09379 0,-0.133636 0.0282,-0.05634 0.10547,-0.07729 0.13364,-0.133633 0.0398,-0.07969 -0.0398,-0.187587 0,-0.267269 0.0282,-0.05635 0.11371,-0.07387 0.13363,-0.133636 0.0282,-0.08452 0,-0.178181 0,-0.267269 0,-0.04454 -0.0199,-0.09379 0,-0.133635 0.0282,-0.05635 0.11372,-0.07387 0.13364,-0.133636 0.0401,-0.120269 -0.0401,-0.280633 0,-0.400902 0.0315,-0.0945 0.10213,-0.172776 0.13363,-0.267272 0.0282,-0.08452 -0.0398,-0.187584 0,-0.267268 0.0282,-0.05635 0.10546,-0.07729 0.13364,-0.133635 0.0199,-0.03984 -0.0199,-0.09379 0,-0.133635 0.0282,-0.05634 0.10546,-0.07729 0.13363,-0.133635 0.0199,-0.03984 -0.0199,-0.09379 0,-0.133634 0.0282,-0.05635 0.10547,-0.07729 0.13364,-0.133635 0.0265,-0.05298 -0.0273,-0.373585 0,-0.400904 0.0315,-0.0315 0.10214,0.0315 0.13363,0 0.0668,-0.06682 -0.0668,-0.334087 0,-0.400905 0.0315,-0.0315 0.10214,0.0315 0.13364,0 0.0273,-0.02732 -0.0265,-0.347919 0,-0.400904 0.0282,-0.05634 0.10546,-0.07729 0.13363,-0.133635 0.0406,-0.08115 -0.0406,-0.720662 0,-0.801808 0.0282,-0.05635 0.10546,-0.07729 0.13364,-0.133635 0.0406,-0.08115 -0.0406,-0.720663 0,-0.801809 0.0282,-0.05635 0.10546,-0.07729 0.13363,-0.133634 0.0363,-0.0725 -0.0366,-0.497974 0,-0.53454 0.0315,-0.0315 0.10214,0.0315 0.13363,0 0.063,-0.063 -0.0398,-0.187585 0,-0.267269 0.0282,-0.05635 0.10547,-0.07729 0.13364,-0.133635 0.0199,-0.03984 -0.0199,-0.09379 0,-0.133635 0.0282,-0.05635 0.10546,-0.07729 0.13364,-0.133634 0.0199,-0.03984 -0.0315,-0.102137 0,-0.133635 0.0315,-0.0315 0.10213,0.0315 0.13363,0 0.0315,-0.0315 -0.0315,-0.102137 0,-0.133635 0.0315,-0.0315 0.10214,0.0315 0.13363,0 0.0315,-0.0315 -0.0315,-0.102136 0,-0.133635 0.0315,-0.0315 0.10214,0.0315 0.13364,0 0.063,-0.063 -0.0398,-0.187585 0,-0.267269 0.0282,-0.05634 0.10546,-0.07729 0.13363,-0.133635 0.0399,-0.07968 -0.063,-0.204273 0,-0.267269 0.0315,-0.0315 0.10214,0.0315 0.13364,0 0.0322,-0.03216 -0.0322,-0.502383 0,-0.534539 0.0315,-0.0315 0.10214,0.0315 0.13363,0 0.10447,-0.104466 -0.11623,-0.232478 -0.13363,-0.26727 -0.0242,-0.04833 0,-0.575226 0,-0.668174 0,-0.04454 0.0315,-0.102136 0,-0.133635 -0.0315,-0.0315 -0.10214,0.0315 -0.13364,0 -0.0273,-0.02732 0.0265,-0.347919 0,-0.400904 -0.0282,-0.05635 -0.10546,-0.07729 -0.13363,-0.133635 -0.0199,-0.03984 0.0199,-0.09379 0,-0.133634 -0.27808,-0.556156 0.009,0.14286 -0.26727,-0.133635 -0.0315,-0.0315 0.0199,-0.09379 0,-0.133635 -0.0282,-0.05635 -0.10546,-0.07729 -0.13363,-0.133635 -0.0199,-0.03984 0.0315,-0.102136 0,-0.133634 -0.0315,-0.0315 -0.0938,0.01992 -0.13364,0 -0.29547,-0.147737 -0.0415,-0.08294 -0.13364,-0.26727 -0.27807,-0.556156 0.009,0.14286 -0.26726,-0.133635 -0.0315,-0.0315 0.0315,-0.102137 0,-0.133634 -0.0315,-0.0315 -0.0938,0.01992 -0.13364,0 -0.0563,-0.02817 -0.0891,-0.08909 -0.13363,-0.133635 -0.13364,-0.133635 -0.26727,-0.26727 -0.40091,-0.400904 -0.0445,-0.04454 -0.0812,-0.09869 -0.13363,-0.133635 -0.0673,-0.294419 -0.27491,-0.07064 -0.40091,-0.133635 -0.11269,-0.05634 -0.16243,-0.197382 -0.26727,-0.267269 -0.0829,-0.05525 -0.18439,-0.07838 -0.26727,-0.133635 -0.0524,-0.03494 -0.0739,-0.113714 -0.13363,-0.133635 -0.0845,-0.02817 -0.18275,0.02817 -0.26727,0 -0.11953,-0.03984 -0.16244,-0.197382 -0.26727,-0.267269 -0.0673,-0.29442 -0.27491,-0.07064 -0.4009,-0.133635 -0.6116,-0.305797 0.56706,0.05539 -0.40091,-0.26727 -0.0423,-0.01409 -0.0938,0.01992 -0.13363,0 -0.11269,-0.05635 -0.15458,-0.210924 -0.26727,-0.267269 -0.0398,-0.01992 -0.0938,0.01992 -0.13364,0 -0.0563,-0.02817 -0.0773,-0.105463 -0.13363,-0.133635 -0.0797,-0.03984 -0.18275,0.02817 -0.26727,0 -0.0945,-0.0315 -0.17278,-0.102137 -0.26727,-0.133635 -0.0845,-0.02817 -0.18759,0.03984 -0.26727,0 -0.0564,-0.02817 -0.0739,-0.113713 -0.13363,-0.133635 -0.076,-0.02534 -0.54232,0 -0.66818,0 -0.31181,0 -0.62363,0 -0.93544,0 -0.0891,0 -0.18275,-0.02817 -0.26727,0 -0.0945,0.0315 -0.17278,0.102137 -0.26727,0.133635 -0.12027,0.04009 -0.28063,-0.04009 -0.4009,0 -0.0598,0.01992 -0.0773,0.105462 -0.13364,0.133635 -0.0797,0.03984 -0.18758,-0.03984 -0.26727,0 -0.0564,0.02817 -0.0773,0.105462 -0.13364,0.133635 -0.0797,0.03984 -0.18758,-0.03984 -0.26726,0 -0.0563,0.02817 -0.0773,0.105462 -0.13364,0.133634 -0.10691,0.05345 -0.294,-0.05345 -0.4009,0 -0.0564,0.02817 -0.0773,0.105462 -0.13364,0.133635 -0.0797,0.03984 -0.18758,-0.03984 -0.26727,0 -0.0563,0.02817 -0.0773,0.105462 -0.13363,0.133635 -0.0797,0.03984 -0.18759,-0.03984 -0.26727,0 -0.0564,0.02817 -0.0773,0.105462 -0.13364,0.133635 -0.0725,0.03625 -0.49797,-0.03657 -0.53454,0 -0.0315,0.0315 0.0315,0.102136 0,0.133635 -0.0273,0.02732 -0.34792,-0.02649 -0.4009,0 -0.0563,0.02817 -0.0773,0.105461 -0.13363,0.133634 -0.10691,0.05345 -0.294,-0.05345 -0.40091,0 -0.0564,0.02817 -0.0773,0.105462 -0.13364,0.133635 -0.0345,0.01727 -0.70708,0 -0.8018,0 -0.0947,0 -0.76726,0.01727 -0.80181,0 -0.0563,-0.02817 -0.0773,-0.105462 -0.13364,-0.133635 -0.0797,-0.03984 -0.18758,0.03984 -0.26727,0 -0.0563,-0.02817 -0.0773,-0.105462 -0.13363,-0.133634 -0.0398,-0.01992 -0.0938,0.01992 -0.13363,0 -0.0564,-0.02817 -0.0773,-0.105463 -0.13364,-0.133635 -0.0398,-0.01992 -0.0938,0.01992 -0.13363,0 -0.0563,-0.02817 -0.0773,-0.105463 -0.13364,-0.133635 -0.0797,-0.03984 -0.18758,0.03984 -0.26727,0 -0.0563,-0.02817 -0.0773,-0.105462 -0.13363,-0.133635 -0.0797,-0.03984 -0.18759,0.03984 -0.26727,0 -0.0564,-0.02817 -0.0773,-0.105462 -0.13364,-0.133635 -0.0398,-0.01992 -0.0938,0.01992 -0.13363,0 -0.0564,-0.02817 -0.0773,-0.105462 -0.13364,-0.133634 -0.0797,-0.03984 -0.18758,0.03984 -0.26727,0 -0.11269,-0.05635 -0.15458,-0.210925 -0.26727,-0.26727 -0.0398,-0.01992 -0.0938,0.01992 -0.13363,0 -0.0564,-0.02817 -0.0773,-0.105462 -0.13364,-0.133635 -0.0398,-0.01992 -0.0938,0.01992 -0.13363,0 -0.0563,-0.02817 -0.0773,-0.105462 -0.13364,-0.133634 -0.0398,-0.01992 -0.0938,0.01992 -0.13363,0 -0.11269,-0.05635 -0.15458,-0.210925 -0.26727,-0.26727 -0.0398,-0.01992 -0.0938,0.01992 -0.13364,0 -0.0563,-0.02817 -0.0739,-0.113714 -0.13363,-0.133635 -0.0845,-0.02817 -0.18275,0.02817 -0.26727,0 -0.11953,-0.03984 -0.14774,-0.227427 -0.26727,-0.267269 -0.12027,-0.04009 -0.28063,0.04009 -0.4009,0 -0.0945,-0.0315 -0.17278,-0.102137 -0.26727,-0.133635 -0.0423,-0.01409 -0.0938,0.01992 -0.13364,0 -0.0563,-0.02817 -0.0773,-0.105462 -0.13363,-0.133635 -0.0797,-0.03984 -0.18759,0.03984 -0.26727,0 -0.0564,-0.02817 -0.0739,-0.113713 -0.13364,-0.133634 -0.0611,-0.02037 -0.47507,0.02973 -0.53454,0 -0.0563,-0.02817 -0.0773,-0.105463 -0.13363,-0.133635 -0.0843,-0.04215 -0.58387,0.04215 -0.66817,0 -0.0563,-0.02817 -0.0773,-0.105462 -0.13364,-0.133635 -0.0843,-0.04215 -0.58387,0.04215 -0.66817,0 -0.0564,-0.02817 -0.0739,-0.113714 -0.13364,-0.133635 -0.12677,-0.04226 -0.26727,0 -0.4009,0 -0.17818,0 -0.35636,0 -0.53454,0 -0.0891,0 -0.18275,-0.02817 -0.26727,0 -0.0945,0.0315 -0.17277,0.102137 -0.26727,0.133635 -0.0845,0.02817 -0.17818,0 -0.26727,0 -0.0891,0 -0.18275,0.02817 -0.26727,0 -0.0598,-0.01992 -0.0739,-0.113714 -0.13363,-0.133635 -0.12678,-0.04226 -0.26727,0 -0.40091,0 -0.0455,0 -0.46221,-0.02411 -0.53454,0 -0.0945,0.0315 -0.17277,0.102137 -0.26726,0.133635 -0.0845,0.02817 -0.17819,0 -0.26728,0 -0.0891,0 -0.18275,0.02817 -0.26727,0 -0.0598,-0.01992 -0.0773,-0.105462 -0.13363,-0.133635 -0.0398,-0.01992 -0.0891,0 -0.13363,0 -0.0947,0 -0.76726,0.01727 -0.80181,0 -0.0563,-0.02817 -0.0773,-0.105462 -0.13364,-0.133635 -0.0848,-0.04238 -0.58136,0.04341 -0.66817,0 -0.0564,-0.02817 -0.0739,-0.113713 -0.13364,-0.133634 -0.0612,-0.02039 -0.59358,0 -0.66817,0 -0.0445,0 -0.0914,0.01409 -0.13363,0 -0.0945,-0.0315 -0.17278,-0.102137 -0.26727,-0.133635 -0.0845,-0.02817 -0.17818,0 -0.26728,0 -0.22272,0 -0.44544,0 -0.66817,0 -0.0891,0 -0.18084,0.02161 -0.26727,0 -0.0966,-0.02416 -0.17277,-0.102137 -0.26727,-0.133635 -0.0423,-0.01409 -0.0891,0 -0.13363,0 -0.0891,0 -0.17818,0 -0.26727,0 -0.26727,0 -0.53454,0 -0.80181,0 -0.4009,0 -0.80181,0 -1.20271,0 -0.0891,0 -0.17818,0 -0.26727,0 -0.0891,0 -0.18084,-0.02161 -0.26727,0 -0.0966,0.02416 -0.17064,0.109477 -0.26727,0.133635 -0.17286,0.04322 -0.36168,-0.04322 -0.53454,0 -0.0966,0.02416 -0.17064,0.109477 -0.26727,0.133635 -0.13111,0.03278 -0.72463,-0.03859 -0.80181,0 -0.0563,0.02817 -0.0739,0.113713 -0.13363,0.133634 -0.0611,0.02037 -0.47508,-0.02973 -0.53454,0 -0.0563,0.02817 -0.0891,0.08909 -0.13364,0.133635 -0.0891,0 -0.18275,-0.02817 -0.26727,0 -0.0598,0.01992 -0.0739,0.113714 -0.13363,0.133635 -0.0845,0.02817 -0.18275,-0.02817 -0.26727,0 -0.0598,0.01992 -0.0812,0.09869 -0.13363,0.133635 -0.0829,0.05525 -0.17278,0.102136 -0.26728,0.133635 -0.0422,0.01409 -0.0914,-0.01409 -0.13363,0 -0.0945,0.0315 -0.17064,0.109476 -0.26727,0.133634 -0.0864,0.02161 -0.18084,-0.02161 -0.26727,0 -0.0966,0.02416 -0.17818,0.08909 -0.26727,0.133635 -0.0891,0.04454 -0.18439,0.07838 -0.26727,0.133635 -0.0524,0.03494 -0.0812,0.09869 -0.13363,0.133635 -0.0829,0.05525 -0.1844,0.07838 -0.26727,0.133634 -0.0524,0.03494 -0.0812,0.09869 -0.13364,0.133635 -0.24671,0.164474 -0.5551,0.236431 -0.8018,0.400904 -0.0524,0.03494 -0.0812,0.09869 -0.13364,0.133635 -0.0829,0.05525 -0.17818,0.08909 -0.26727,0.133635 -0.17818,0.08909 -0.35636,0.17818 -0.53454,0.267269 -0.17818,0.08909 -0.35636,0.17818 -0.53454,0.26727 -0.0891,0.04454 -0.18439,0.07838 -0.26727,0.133635 -0.0524,0.03494 -0.0812,0.09869 -0.13363,0.133635 -0.16575,0.110502 -0.36879,0.156767 -0.53454,0.267269 -0.0524,0.03494 -0.0812,0.09869 -0.13363,0.133635 -0.22254,0.148355 -0.59538,0.246081 -0.80181,0.400904 -0.1008,0.0756 -0.16648,0.191674 -0.26727,0.26727 -0.27725,0.207932 -0.6582,0.192971 -0.93545,0.400904 -0.10079,0.07559 -0.16647,0.191674 -0.26727,0.267269 -0.0797,0.05976 -0.17818,0.08909 -0.26727,0.133635 -0.0891,0.04455 -0.17818,0.08909 -0.26727,0.133635 -0.35636,0.17818 -0.71272,0.356359 -1.06908,0.534539 -0.17817,0.08909 -0.36371,0.164776 -0.53453,0.267269 -0.13772,0.08263 -0.26319,0.184637 -0.40091,0.26727 -0.19368,0.116212 -0.59277,0.317289 -0.80181,0.400904 -0.13079,0.05232 -0.27011,0.08132 -0.4009,0.133635 -0.0925,0.03699 -0.17479,0.09664 -0.26727,0.133635 -0.26158,0.104631 -0.54983,0.141277 -0.80181,0.267269 -0.14365,0.07183 -0.25328,0.204003 -0.4009,0.26727 -0.59944,0.2569 -0.41534,0.0072 -0.93545,0.267269 -0.14365,0.07183 -0.25725,0.195443 -0.4009,0.26727 -0.12611,0.331384 -0.3603,0.07556 -0.53454,0.133635 -0.11798,0.03933 -0.69606,0.330407 -0.80181,0.400904 -0.24451,0.163011 -0.0133,0.170376 -0.4009,0.267269 -0.0864,0.02161 -0.18084,-0.02161 -0.26727,0 -0.19327,0.04832 -0.34555,0.204274 -0.53454,0.26727 -0.0423,0.01409 -0.0938,-0.01992 -0.13363,0 -0.0563,0.02817 -0.0739,0.113714 -0.13364,0.133635 -0.0845,0.02817 -0.18275,-0.02817 -0.26727,0 -0.0598,0.01992 -0.0739,0.113713 -0.13363,0.133634 -0.0845,0.02817 -0.18276,-0.02817 -0.26727,0 -0.0598,0.01992 -0.0891,0.08909 -0.13364,0.133635 -0.0891,0.04454 -0.17064,0.109477 -0.26727,0.133635 -0.0864,0.02161 -0.18275,-0.02817 -0.26727,0 -0.0598,0.01992 -0.0812,0.09869 -0.13363,0.133635 -0.16576,0.110502 -0.36879,0.156767 -0.53454,0.267269 -0.0524,0.03494 -0.0812,0.09869 -0.13364,0.133635 -0.31209,0.20806 -0.75699,0.326479 -1.06907,0.534539 -0.0524,0.03494 -0.0812,0.09869 -0.13364,0.133635 -0.0829,0.05525 -0.18439,0.07838 -0.26727,0.133635 -0.19664,0.131093 -0.3379,0.403445 -0.53454,0.534539 -0.0829,0.05525 -0.18439,0.07838 -0.26727,0.133635 -0.0524,0.03494 -0.0812,0.09869 -0.13363,0.133634 -0.0829,0.05525 -0.19684,0.0632 -0.26727,0.133635 -0.0704,0.07043 -0.0632,0.196838 -0.13364,0.26727 -0.0704,0.07043 -0.18439,0.07838 -0.26726,0.133634 -0.0524,0.03494 -0.0812,0.09869 -0.13364,0.133635 -0.0829,0.05525 -0.18439,0.07838 -0.26727,0.133635 -0.10483,0.06989 -0.16244,0.197381 -0.26727,0.267269 -0.0829,0.05525 -0.18439,0.07838 -0.26727,0.133635 -0.0524,0.03494 -0.0773,0.105462 -0.13363,0.133635 -0.0399,0.01992 -0.0938,-0.01992 -0.13364,0 -0.11269,0.05635 -0.15458,0.210924 -0.26727,0.267269 -0.0398,0.01992 -0.10213,-0.0315 -0.13363,0 -0.0315,0.0315 0.0199,0.09379 0,0.133635 -0.0282,0.05635 -0.0891,0.08909 -0.13364,0.133635 -0.0445,0.04454 -0.0891,0.08909 -0.13363,0.133635 -0.0704,0.07035 -0.36522,0.329532 -0.40091,0.400904 -0.0199,0.03984 0.0199,0.09379 0,0.133635 -0.0563,0.11269 -0.19738,0.162437 -0.26727,0.267268 -0.0553,0.08288 -0.0784,0.184394 -0.13363,0.267272 -0.0699,0.104831 -0.21092,0.154578 -0.26727,0.267269 -0.0199,0.03984 0.0199,0.09379 0,0.133633 -0.0564,0.112691 -0.21093,0.15458 -0.26727,0.267271 -0.0199,0.03984 0.0199,0.09379 0,0.133634 -0.0563,0.112691 -0.21092,0.15458 -0.26727,0.267271 -0.0199,0.03984 0.0199,0.09379 0,0.133633 -0.30417,0.304173 -0.0353,-0.02767 -0.13363,0.267269 -0.32266,0.967973 0.0385,-0.210688 -0.26727,0.400905 -0.0199,0.03984 0.0199,0.09379 0,0.133635 -0.0564,0.112692 -0.21093,0.154578 -0.26727,0.267269 -0.0199,0.03984 0,0.08909 0,0.133636 0,0.08909 0.0282,0.18275 0,0.267269 -0.0199,0.05976 -0.10547,0.07729 -0.13364,0.133636 -0.0398,0.07968 0.0398,0.187584 0,0.267268 -0.0282,0.05635 -0.10546,0.07729 -0.13363,0.133636 -0.0242,0.04833 0,0.575225 0,0.668174 0,0.09472 -0.0173,0.767257 0,0.801806 0.0282,0.05635 0.10546,0.07729 0.13363,0.133636 0.0535,0.106907 -0.0535,0.293997 0,0.400904 0.0282,0.05635 0.10546,0.07729 0.13364,0.133636 0.0199,0.03984 -0.0199,0.09379 0,0.133633 0.0282,0.05635 0.10546,0.07729 0.13363,0.133636 0.0199,0.03984 -0.0199,0.09379 0,0.133636 0.0282,0.05634 0.10546,0.07729 0.13364,0.133633 0.0199,0.03984 -0.0199,0.09379 0,0.133636 0.0282,0.05635 0.10546,0.07729 0.13363,0.133633 0.0199,0.03984 -0.0199,0.09379 0,0.133636 0.0282,0.05635 0.10546,0.07729 0.13364,0.133635 0.0199,0.03984 -0.0199,0.09379 0,0.133633 0.27807,0.556157 -0.009,-0.142859 0.26727,0.133636 0.0315,0.0315 -0.0199,0.09379 0,0.133636 0.0563,0.112689 0.21092,0.154577 0.26726,0.267269 0.0199,0.03984 -0.0199,0.09379 0,0.133633 0.0563,0.112691 0.21093,0.15458 0.26727,0.267271 0.0199,0.03984 -0.0199,0.09379 0,0.133633 0.0657,0.131501 0.46879,0.40304 0.53454,0.534541 0.0199,0.03984 -0.0315,0.102137 0,0.133633 0.0315,0.0315 0.10214,-0.0315 0.13364,0 0.0315,0.0315 -0.0199,0.0938 0,0.133636 0.0563,0.112691 0.21092,0.15458 0.26727,0.267268 0.0199,0.03984 -0.0199,0.09379 0,0.133636 0.0802,0.160362 0.32072,0.240544 0.4009,0.400905 0.0922,0.18433 -0.16184,0.119531 0.13364,0.267269 0.0398,0.01992 0.0938,-0.01992 0.13363,0 0.1315,0.06575 0.40304,0.468788 0.53454,0.53454 0.0398,0.01992 0.0938,-0.01992 0.13363,0 0.10209,0.05104 0.31042,0.370739 0.40091,0.400902 0.0845,0.02817 0.18275,-0.02817 0.26727,0 0.0598,0.01992 0.0773,0.105463 0.13363,0.133636 0.0399,0.01992 0.0938,-0.01992 0.13364,0 0.0563,0.02817 0.0739,0.113712 0.13363,0.133635 0.0845,0.02817 0.18275,-0.02817 0.26727,0 0.11953,0.03984 0.15458,0.210924 0.26727,0.267269 0.0398,0.01992 0.0938,-0.01992 0.13364,0 0.11269,0.05635 0.14774,0.227428 0.26727,0.267269 0.0845,0.02817 0.18275,-0.02817 0.26727,0 0.11952,0.03984 0.16244,0.197382 0.26727,0.267269 0.58365,0.389104 -0.044,-0.05923 0.53453,0.133636 0.0598,0.01992 0.0812,0.09869 0.13364,0.133636 0.0829,0.05525 0.18439,0.07838 0.26727,0.133633 0.0524,0.03495 0.0812,0.09869 0.13363,0.133635 0.6751,0.450065 0.003,0.0011 0.40091,0.133636 0.96797,0.322657 -0.21069,-0.03853 0.4009,0.267269 0.0398,0.01992 0.0938,-0.01992 0.13364,0 0.0563,0.02817 0.0773,0.105463 0.13363,0.133633 0.0398,0.01992 0.0938,-0.01992 0.13364,0 0.11269,0.05635 0.15457,0.210926 0.26727,0.267272 0.0398,0.01992 0.10213,-0.0315 0.13363,0 0.0315,0.0315 -0.0315,0.102137 0,0.133633 0.0315,0.0315 0.0914,-0.01408 0.13364,0 0.0945,0.0315 0.17277,0.102137 0.26726,0.133635 0.0845,0.02817 0.18759,-0.03984 0.26728,0 0.0563,0.02817 0.0773,0.105463 0.13363,0.133636 0.0398,0.01992 0.0891,0 0.13363,0 0.0891,0 0.18275,-0.02817 0.26727,0 0.0598,0.01992 0.0773,0.10546 0.13364,0.133633 0.10691,0.05345 0.294,-0.05345 0.4009,0 0.0564,0.02817 0.0773,0.105463 0.13364,0.133636 0.0725,0.03625 0.49797,-0.03656 0.53454,0 0.0315,0.0315 -0.0315,0.102137 0,0.133636 0.063,0.06299 0.18758,-0.03984 0.26727,0 0.0563,0.02817 0.0773,0.10546 0.13363,0.133633 0.10691,0.05345 0.294,-0.05345 0.40091,0 0.0563,0.02817 0.0773,0.105463 0.13363,0.133636 0.0797,0.03984 0.18759,-0.03984 0.26727,0 0.0563,0.02817 0.0739,0.113712 0.13363,0.133633 0.0611,0.02037 0.47508,-0.02973 0.53454,0 0.0563,0.02817 0.0773,0.105463 0.13364,0.133635 0.0797,0.03984 0.18758,-0.03984 0.26727,0 0.0563,0.02817 0.0773,0.105463 0.13363,0.133636 0.084,0.042 0.45055,-0.042 0.53454,0 0.0563,0.02817 0.0773,0.105461 0.13364,0.133633 0.0398,0.01992 0.0891,0 0.13363,0 0.0446,0 0.0891,0 0.13363,0 0.26728,0 0.53454,0 0.80181,0 0.0446,0 0.0891,0 0.13364,0 0.0445,0 0.0938,-0.01992 0.13363,0 0.0564,0.02817 0.0773,0.105463 0.13364,0.133636 0.0346,0.01728 0.70709,0 0.80181,0 0.0445,0 0.10213,-0.0315 0.13363,0 0.0315,0.0315 -0.0315,0.102137 0,0.133636 0.0322,0.03216 0.50238,-0.03216 0.53454,0 0.0315,0.0315 -0.0315,0.102134 0,0.133633 0.0315,0.0315 0.0891,0 0.13364,0 0.22272,0 0.44544,0 0.66817,0 0.0491,0 0.52916,-0.0054 0.53454,0 0.0315,0.0315 -0.0315,0.102137 0,0.133636 0.0315,0.0315 0.0891,0 0.13363,0 0.0446,0 0.0891,0 0.13364,0 0.62363,0 1.24726,0 1.87088,0 z"
       id="path4532"
       inkscape:connector-curvature="0" />
    <path
       style="fill:none;stroke:#000000;stroke-width:0.26458332px;stroke-linecap:butt;stroke-linejoin:miter;stroke-opacity:1"
       d="m 94.613411,15.281337 c 0.534541,-0.445449 1.083559,-0.874074 1.603619,-1.336347 0.683119,-0.607219 1.31918,-1.266175 2.00452,-1.870887 0.07469,-0.0659 0.196837,-0.0632 0.267269,-0.133635 0.15749,-0.15749 0.261771,-0.36062 0.400905,-0.534539 0.03935,-0.04919 0.09869,-0.08122 0.133635,-0.133635 0.05525,-0.08288 0.0632,-0.196837 0.133633,-0.267269 0.324573,-0.324573 0.196234,0.03974 0.400905,-0.26727 0.05525,-0.08288 0.07838,-0.184392 0.133636,-0.267269 0.0366,-0.0549 0.346007,-0.364304 0.400907,-0.400905 0.0829,-0.05525 0.18439,-0.078383 0.26727,-0.1336343 0.10483,-0.069888 0.16243,-0.1973818 0.26727,-0.2672696 0.0829,-0.055251 0.18439,-0.078384 0.26727,-0.1336347 0.15419,-0.1027959 0.2467,-0.2981084 0.4009,-0.4009043 0.0829,-0.055251 0.18439,-0.078384 0.26727,-0.1336347 0.12165,-0.0811 0.28246,-0.3416816 0.4009,-0.4009044 0.18433,-0.092165 0.11954,0.1618391 0.26727,-0.1336346 0.0199,-0.039842 -0.0199,-0.093793 0,-0.1336347 0.0563,-0.1126908 0.21093,-0.1545789 0.26727,-0.2672697 0.0199,-0.039842 -0.0199,-0.093793 0,-0.1336347 0.0592,-0.1184455 0.31981,-0.2792544 0.40091,-0.4009043 0.0553,-0.082877 0.0784,-0.1843929 0.13363,-0.2672696 0.035,-0.052416 0.0987,-0.081219 0.13364,-0.1336347 0.0553,-0.082877 0.0739,-0.1875851 0.13363,-0.2672694 0.15119,-0.2015874 0.38335,-0.3329519 0.53454,-0.534539 0.0598,-0.079685 0.0632,-0.1968379 0.13363,-0.2672697 0.0704,-0.070432 0.19684,-0.063203 0.26727,-0.1336347 0.0704,-0.070432 0.0784,-0.1843929 0.13364,-0.2672696 0.0769,-0.1153134 0.29652,-0.2965239 0.4009,-0.4009044 0.0446,-0.044545 0.10546,-0.077289 0.13364,-0.1336346 0.0398,-0.079684 -0.063,-0.2042735 0,-0.2672694 0.0315,-0.031498 0.13363,0.044545 0.13363,0 0,-0.062996 -0.10546,-0.07729 -0.13363,-0.133635 -0.042,-0.083992 0.042,-0.4505465 0,-0.534539 -0.0282,-0.056345 -0.10546,-0.077289 -0.13364,-0.1336347 -0.0398,-0.079684 0.063,-0.2042734 0,-0.2672696 -0.0315,-0.031498 -0.10213,0.031498 -0.13363,0 -0.0315,-0.031498 0.0315,-0.1021366 0,-0.1336347 -0.0315,-0.031498 -0.10214,0.031498 -0.13363,0 -0.0315,-0.031498 0.0315,-0.1021369 0,-0.1336347 -0.0315,-0.031498 -0.10214,0.031498 -0.13364,0 -0.0315,-0.031498 0.0199,-0.093793 0,-0.1336347 -0.0309,-0.061884 -0.45594,-0.4559427 -0.53454,-0.5345393 -0.0445,-0.044545 -0.0773,-0.1054619 -0.13363,-0.1336347 -0.18433,-0.092165 -0.11954,0.161839 -0.26727,-0.1336347 -0.0199,-0.039842 0.0315,-0.1021368 0,-0.1336348 -0.0315,-0.031498 -0.0938,0.019921 -0.13364,0 -0.11269,-0.056345 -0.15458,-0.2109241 -0.26727,-0.2672695 -0.0398,-0.019921 -0.10213,0.031498 -0.13363,0 -0.0315,-0.031498 0.0315,-0.1021367 0,-0.1336348 -0.0315,-0.031498 -0.10214,0.031498 -0.13364,0 -0.0315,-0.031498 0.0315,-0.1021367 0,-0.1336347 -0.0315,-0.031498 -0.0938,0.019921 -0.13363,0 -0.16036,-0.080181 -0.24055,-0.3207234 -0.40091,-0.4009043 -0.0398,-0.019921 -0.10213,0.031498 -0.13363,0 -0.0315,-0.031498 0.0315,-0.1021367 0,-0.1336348 -0.0315,-0.031498 -0.0938,0.019921 -0.13364,0 -0.0563,-0.028173 -0.0773,-0.105462 -0.13363,-0.1336347 -0.0398,-0.019921 -0.0938,0.019921 -0.13364,0 -0.0563,-0.028173 -0.0773,-0.1054621 -0.13363,-0.1336348 -0.0398,-0.019921 -0.10214,0.031498 -0.13364,0 -0.0315,-0.031498 0.0315,-0.1021367 0,-0.13363476 -0.0315,-0.031498 -0.0938,0.0199211 -0.13363,0 -0.0563,-0.0281727 -0.0773,-0.10546207 -0.13363,-0.13363477 -0.0399,-0.019921 -0.10214,0.031498 -0.13364,0 -0.0315,-0.031498 0.0315,-0.10213673 0,-0.13363474 -0.0315,-0.031498 -0.0938,0.019921 -0.13363,0 -0.11269,-0.0563454 -0.15458,-0.21092416 -0.26727,-0.26726954 -0.0797,-0.0398422 -0.18759,0.0398422 -0.26727,0 -0.1127,-0.0563454 -0.15458,-0.21092415 -0.26727,-0.26726952 -0.184333,-0.09216502 -0.119536,0.16183904 -0.267272,-0.13363476 -0.01992,-0.03984219 0.0315,-0.10213675 0,-0.13363476 -0.0315,-0.03149802 -0.09379,0.01992109 -0.133635,0 -0.05635,-0.02817268 -0.07729,-0.10546208 -0.133636,-0.13363476 -0.03984,-0.0199211 -0.09379,0.0199211 -0.133633,0 -0.05635,-0.0281727 -0.07729,-0.10546209 -0.133636,-0.13363476 -0.07968,-0.0398422 -0.187584,0.0398422 -0.267269,0 -0.05634,-0.0281727 -0.07729,-0.1054621 -0.133635,-0.13363477 -0.03984,-0.019921 -0.09379,0.019921 -0.133634,0 -0.05635,-0.0281727 -0.07729,-0.10546207 -0.133635,-0.13363477 -0.08399,-0.0419962 -0.450546,0.0419962 -0.534541,0 -0.05634,-0.0281727 -0.07729,-0.10546207 -0.133633,-0.13363474 -0.03984,-0.019921 -0.08909,0 -0.133636,0 -0.09472,0 -0.767257,0.0172757 -0.801809,0 -0.05634,-0.0281727 -0.07729,-0.1054621 -0.133633,-0.13363477 -0.04833,-0.0241633 -0.575225,0 -0.668173,0 -0.134578,0 -0.727906,0.024634 -0.801809,0 -0.05976,-0.019921 -0.07387,-0.11371368 -0.133636,-0.13363478 -0.08452,-0.028173 -0.178179,0 -0.267269,0 -0.311814,0 -0.623628,0 -0.935442,0 -0.35636,0 -0.712719,0 -1.069078,0 -0.133636,0 -0.27413,-0.042259 -0.400905,0 -0.05976,0.019921 -0.07387,0.11371369 -0.133636,0.13363478 -0.120271,0.0400904 -0.280633,-0.0400904 -0.400904,0 -0.09449,0.031498 -0.172776,0.10213673 -0.267269,0.13363477 -0.04226,0.0140864 -0.09379,-0.019921 -0.133636,0 -0.611592,0.30579692 0.567068,-0.0553879 -0.400905,0.26726951 -0.04226,0.0140864 -0.09379,-0.019921 -0.133633,0 -0.05635,0.0281727 -0.08122,0.0986908 -0.133635,0.13363477 -0.08288,0.0552512 -0.184394,0.0783836 -0.267269,0.13363476 -0.05242,0.0349439 -0.08122,0.0986908 -0.133636,0.13363476 -0.08287,0.05525117 -0.184391,0.07838359 -0.267269,0.13363476 -0.10483,0.06988782 -0.162438,0.1973817 -0.267269,0.26726954 -0.08288,0.0552512 -0.184393,0.0783836 -0.267269,0.13363474 -0.104833,0.0698878 -0.178181,0.1781797 -0.267271,0.26726954 -0.08559,0.085585 -0.451168,0.40948167 -0.534538,0.53453907 -0.05525,0.082877 -0.07839,0.1843927 -0.133636,0.2672695 -0.03494,0.052416 -0.09869,0.081219 -0.133633,0.1336348 -0.110503,0.1657535 -0.156768,0.3687855 -0.267271,0.534539 -0.03494,0.052416 -0.09869,0.081219 -0.133633,0.1336348 -0.05525,0.082877 -0.07839,0.1843927 -0.133636,0.2672695 -0.06989,0.1048316 -0.197382,0.1624378 -0.267269,0.2672694 -0.29442,0.067298 -0.07064,0.2749124 -0.133636,0.4009043 -0.05635,0.1126908 -0.210923,0.1545789 -0.267268,0.2672697 -0.01992,0.039842 0.01992,0.093792 0,0.1336347 -0.02817,0.056345 -0.105463,0.077289 -0.133636,0.1336347 -0.01992,0.039842 0.01992,0.093793 0,0.1336349 -0.02817,0.056345 -0.10546,0.077289 -0.133633,0.1336347 -0.01992,0.039842 0.01408,0.091376 0,0.1336347 -0.0315,0.094494 -0.102137,0.1727756 -0.133636,0.2672696 -0.01408,0.042259 0.01992,0.093792 0,0.1336347 -0.02817,0.056345 -0.105463,0.077289 -0.133636,0.1336347 -0.01992,0.039842 0,0.08909 0,0.133635 -0.04454,0.08909 -0.07838,0.1843926 -0.133633,0.2672694 -0.03494,0.052416 -0.105463,0.077289 -0.133636,0.1336346 -0.03984,0.079685 0.063,0.2042737 0,0.2672697 -0.276495,0.2764951 0.0108,-0.4225211 -0.267268,0.1336347 -0.01992,0.039842 0.01992,0.093793 0,0.1336347 -0.05635,0.1126908 -0.210926,0.1545788 -0.267269,0.2672696 -0.01992,0.039842 0.01992,0.093793 0,0.1336347 -0.08018,0.1603618 -0.320726,0.2405428 -0.400905,0.4009043 -0.01992,0.039842 0.0315,0.1021369 0,0.1336347 -0.0315,0.031498 -0.102137,-0.031498 -0.133636,0 -0.276495,0.2764952 0.422521,-0.010808 -0.133635,0.2672697 -0.03984,0.019921 -0.102135,-0.031498 -0.133634,0 -0.0315,0.031498 0.01992,0.093793 0,0.1336347 -0.08018,0.1603618 -0.320722,0.2405425 -0.400904,0.4009043 -0.01992,0.039842 0.0315,0.1021368 0,0.1336347 -0.0315,0.031498 -0.102137,-0.031498 -0.133636,0 -0.0315,0.031498 0.01992,0.093793 0,0.1336349 -0.02817,0.056345 -0.10546,0.077289 -0.133633,0.1336347 -0.01992,0.039842 0.01992,0.093792 0,0.1336347 -0.02817,0.056345 -0.105463,0.077289 -0.133636,0.1336347 -0.01992,0.039842 0.01992,0.093793 0,0.133635 -0.02817,0.056345 -0.105463,0.077289 -0.133635,0.1336347 -0.01992,0.039842 0.01992,0.093793 0,0.1336346 -0.02817,0.056345 -0.105461,0.07729 -0.133634,0.1336347 -0.05345,0.1069078 0.05345,0.2939966 0,0.4009044 -0.02817,0.056345 -0.113715,0.073872 -0.133635,0.1336349 -0.02535,0.07602 0,0.5423114 0,0.6681737 0,0.060183 -0.02035,0.3602343 0,0.4009043 0.02817,0.05635 0.105463,0.07729 0.133635,0.133635 0.01992,0.03984 0,0.08909 0,0.133634 0,0.08909 -0.02817,0.182752 0,0.26727 0.01992,0.05976 0.105463,0.07729 0.133634,0.133635 0.01992,0.03984 0,0.08909 0,0.133634 0,0.08909 -0.02817,0.182752 0,0.26727 0.01992,0.05976 0.105462,0.07729 0.133635,0.133635 0.01992,0.03984 -0.01408,0.09138 0,0.133635 0.0315,0.09449 0.102137,0.172775 0.133636,0.267269 0.01408,0.04226 -0.01992,0.09379 0,0.133635 0.02817,0.05635 0.10546,0.07729 0.133633,0.133635 0.01992,0.03984 -0.0315,0.102136 0,0.133634 0.0315,0.0315 0.09379,-0.01992 0.133636,0 0.05635,0.02817 0.08909,0.08909 0.133636,0.133635 0.04454,0.04454 0.10546,0.07729 0.133633,0.133635 0.01992,0.03984 -0.01992,0.09379 0,0.133635 0.147738,0.295474 0.08294,0.04147 0.267269,0.133635 0.556156,0.278077 -0.14286,-0.0092 0.133635,0.267269 0.0315,0.0315 0.102137,-0.0315 0.133636,0 0.0315,0.0315 -0.0315,0.102137 0,0.133635 0.0315,0.0315 0.09379,-0.01992 0.133633,0 0.05635,0.02817 0.07729,0.105462 0.133636,0.133635 0.03984,0.01992 0.102137,-0.0315 0.133636,0 0.0315,0.0315 -0.0315,0.102136 0,0.133634 0.06682,0.06682 0.334086,-0.06682 0.400902,0 0.0315,0.0315 -0.0315,0.102137 0,0.133635 0.0043,0.0043 0.368495,0 0.400904,0 0.301914,0 -0.05976,-0.01992 0.400905,0.133635 0.118591,0.03953 0.580668,-0.04375 0.668173,0 0.05635,0.02817 0.07729,0.105462 0.133636,0.133635 0.07968,0.03984 0.187584,-0.03984 0.267269,0 0.05635,0.02817 0.07729,0.105462 0.133636,0.133634 0.03984,0.01992 0.102137,-0.0315 0.133635,0 0.0315,0.0315 -0.0315,0.102137 0,0.133635 0.06299,0.063 0.204272,-0.063 0.267269,0 0.0315,0.0315 -0.0315,0.102137 0,0.133635 0.0315,0.0315 0.102137,-0.0315 0.133633,0 0.0315,0.0315 -0.0315,0.102137 0,0.133635 0.0315,0.0315 0.102137,-0.0315 0.133636,0 0.0315,0.0315 -0.01992,0.09379 0,0.133634 0.02817,0.05635 0.105463,0.07729 0.133636,0.133635 0.03984,0.07968 -0.063,0.204274 0,0.26727 0.0315,0.0315 0.102137,-0.0315 0.133633,0 0.06682,0.06682 -0.06682,0.334087 0,0.400904 0.0315,0.0315 0.102137,-0.0315 0.133636,0 0.0315,0.0315 0,0.08909 0,0.133635 0,0.09472 0.01728,0.767257 0,0.801808 -0.02817,0.05635 -0.105463,0.07729 -0.133636,0.133635 -0.02032,0.04067 0,0.340721 0,0.400904 0,0.222725 0,0.44545 0,0.668174 0,0.04454 -0.0315,0.102137 0,0.133635 0.0315,0.0315 0.102137,-0.0315 0.133636,0 0.06299,0.063 -0.063,0.204273 0,0.267269 0.0315,0.0315 0.09379,-0.01992 0.133635,0 0.05634,0.02817 0.07729,0.105462 0.133634,0.133635 0.04067,0.02034 0.340722,0 0.400904,0 0.04454,0 0.102137,0.0315 0.133636,0 0.0315,-0.0315 -0.0315,-0.102137 0,-0.133635 0.063,-0.063 0.187584,0.03984 0.267269,0 0.05634,-0.02817 0.07729,-0.105462 0.133635,-0.133634 0.07968,-0.03984 0.187585,0.03984 0.267269,0 0.05635,-0.02817 0.07729,-0.105462 0.133633,-0.133635 0.03984,-0.01992 0.0938,0.01992 0.133636,0 0.05635,-0.02817 0.07729,-0.105462 0.133636,-0.133635 0.03984,-0.01992 0.102137,0.0315 0.133633,0 0.0315,-0.0315 -0.0315,-0.102137 0,-0.133635 0.063,-0.063 0.187587,0.03984 0.267272,0 0.05634,-0.02817 0.07729,-0.105462 0.133633,-0.133634 0.03984,-0.01992 0.09379,0.01992 0.133635,0 0.556155,-0.278078 -0.142861,0.0092 0.133633,-0.26727 0.0315,-0.0315 0.0938,0.01992 0.133636,0 0.112692,-0.05635 0.15458,-0.210924 0.267269,-0.267269 0.07968,-0.03984 0.204274,0.063 0.267272,0 0.0315,-0.0315 -0.0315,-0.102137 0,-0.133635 0.0315,-0.0315 0.102134,0.0315 0.133633,0 0.0315,-0.0315 -0.0315,-0.102137 0,-0.133635 0.0315,-0.0315 0.09379,0.01992 0.133635,0 0.112692,-0.05635 0.154578,-0.210924 0.267269,-0.267269 0.03984,-0.01992 0.102137,0.0315 0.133636,0 0.0315,-0.0315 -0.0315,-0.102137 0,-0.133635 0.063,-0.063 0.204272,0.063 0.267269,0 0.0315,-0.0315 -0.0315,-0.102137 0,-0.133635 0.0315,-0.0315 0.102137,0.0315 0.133636,0 0.0315,-0.0315 -0.0315,-0.102137 0,-0.133635 0.0315,-0.0315 0.102134,0.0315 0.133633,0 0.0315,-0.0315 -0.02673,-0.098 0,-0.133634 0.113392,-0.151191 0.267269,-0.26727 0.400904,-0.400905 z"
       id="path4534"
       inkscape:connector-curvature="0" />
  </g>
</svg>
