<?xml version="1.0" encoding="UTF-8" standalone="no"?>
<!-- Created with Inkscape (http://www.inkscape.org/) -->

<svg
   xmlns:dc="http://purl.org/dc/elements/1.1/"
   xmlns:cc="http://creativecommons.org/ns#"
   xmlns:rdf="http://www.w3.org/1999/02/22-rdf-syntax-ns#"
   xmlns:svg="http://www.w3.org/2000/svg"
   xmlns="http://www.w3.org/2000/svg"
   xmlns:sodipodi="http://sodipodi.sourceforge.net/DTD/sodipodi-0.dtd"
   xmlns:inkscape="http://www.inkscape.org/namespaces/inkscape"
   width="169.33333mm"
   height="127mm"
   viewBox="0 0 169.33333 127"
   version="1.1"
   id="svg860"
   inkscape:version="0.92.4 (5da689c313, 2019-01-14)"
   sodipodi:docname="4_4_corpusculos_renais.svg">
  <defs
     id="defs854" />
  <sodipodi:namedview
     id="base"
     pagecolor="#ffffff"
     bordercolor="#666666"
     borderopacity="1.0"
     inkscape:pageopacity="0.0"
     inkscape:pageshadow="2"
     inkscape:zoom="1.4"
     inkscape:cx="219.85674"
     inkscape:cy="255.80157"
     inkscape:document-units="mm"
     inkscape:current-layer="layer4"
     showgrid="false"
     fit-margin-top="0"
     fit-margin-left="0"
     fit-margin-right="0"
     fit-margin-bottom="0"
     inkscape:window-width="1920"
     inkscape:window-height="1001"
     inkscape:window-x="-9"
     inkscape:window-y="-9"
     inkscape:window-maximized="1" />
  <metadata
     id="metadata857">
    <rdf:RDF>
      <cc:Work
         rdf:about="">
        <dc:format>image/svg+xml</dc:format>
        <dc:type
           rdf:resource="http://purl.org/dc/dcmitype/StillImage" />
        <dc:title></dc:title>
      </cc:Work>
    </rdf:RDF>
  </metadata>
  <g
     inkscape:groupmode="layer"
     id="layer4"
     inkscape:label="corpusculos_renais">
    <path
       style="fill:none;stroke:#000000;stroke-width:0.265;stroke-linecap:butt;stroke-linejoin:miter;stroke-opacity:1;stroke-miterlimit:4;stroke-dasharray:none"
       d="m 101.67559,70.870534 c 2.8957,-0.772184 1.85686,-0.755952 3.02381,-0.755952 0.063,0 0.13265,0.02817 0.18899,0 0.0797,-0.03984 0.10931,-0.149145 0.18899,-0.188989 0.15119,-0.07559 0.41577,0.0756 0.56696,0 0.0797,-0.03984 0.10931,-0.149145 0.18899,-0.188986 0.11269,-0.05635 0.26529,0.05634 0.37798,0 0.0797,-0.03984 0.1093,-0.149146 0.18899,-0.18899 0.11269,-0.05635 0.26528,0.05635 0.37797,0 0.15937,-0.07968 0.21861,-0.298291 0.37798,-0.377975 0.0563,-0.02817 0.13264,0.02817 0.18899,0 0.0797,-0.03984 0.1093,-0.149146 0.18898,-0.188987 0.0563,-0.02817 0.13265,0.02817 0.18899,0 0.0797,-0.03984 0.10931,-0.149148 0.18899,-0.188989 0.0563,-0.02817 0.13264,0.02817 0.18899,0 0.0797,-0.03984 0.11486,-0.139571 0.18899,-0.188989 0.1172,-0.07814 0.26077,-0.11085 0.37797,-0.188987 0.17204,-0.114694 0.39946,-0.483211 0.56697,-0.566965 0.0563,-0.02817 0.13264,0.02817 0.18899,0 0.0797,-0.03984 0.1093,-0.149146 0.18898,-0.188987 0.0563,-0.02817 0.14445,0.04454 0.18899,0 0.0446,-0.04454 -0.0445,-0.144444 0,-0.188989 0.0446,-0.04454 0.13265,0.02817 0.18899,0 0.0797,-0.03984 0.1093,-0.149145 0.18899,-0.188989 0.0563,-0.02817 0.13264,0.02817 0.18899,0 0.0797,-0.03984 0.12599,-0.125992 0.18898,-0.188987 0.063,-0.063 0.10931,-0.149145 0.18899,-0.188989 0.0563,-0.02817 0.14445,0.04454 0.18899,0 0.0445,-0.04454 -0.0445,-0.144441 0,-0.188986 0.0445,-0.04455 0.13264,0.02817 0.18899,0 0.78912,-0.394566 -0.41115,0.01659 0.37797,-0.377976 0.0563,-0.02817 0.14445,0.04454 0.18899,0 0.0446,-0.04455 -0.0445,-0.144444 0,-0.188989 0.0446,-0.04455 0.14444,0.04454 0.18899,0 0.0446,-0.04455 -0.0446,-0.144444 0,-0.18899 0.0446,-0.04454 0.14444,0.04455 0.18899,0 0.0445,-0.04454 -0.0446,-0.144441 0,-0.188986 0.0445,-0.04455 0.14444,0.04454 0.18899,0 0.0445,-0.04455 -0.0446,-0.144444 0,-0.18899 0.0445,-0.04454 0.14444,0.04455 0.18899,0 0.0445,-0.04454 -0.0446,-0.144441 0,-0.188986 0.0445,-0.04454 0.14444,0.04454 0.18898,0 0.0891,-0.08909 -0.0891,-0.288888 0,-0.377976 0.0446,-0.04454 0.14445,0.04454 0.18899,0 0.0446,-0.04454 -0.0282,-0.132643 0,-0.188989 0.0398,-0.07969 0.14915,-0.109305 0.18899,-0.188989 0.0282,-0.05634 -0.0282,-0.132641 0,-0.188987 0.0398,-0.07968 0.14915,-0.109305 0.18899,-0.188989 0.0563,-0.112692 -0.0891,-0.288885 0,-0.377976 0.0445,-0.04454 0.14444,0.04454 0.18899,0 0.0891,-0.08909 -0.0563,-0.265284 0,-0.377976 0.0398,-0.07968 0.14914,-0.109304 0.18898,-0.188989 0.0756,-0.151188 -0.0756,-0.415772 0,-0.566962 0.0399,-0.07968 0.14915,-0.109305 0.18899,-0.18899 0.0375,-0.07493 -0.0386,-0.528328 0,-0.566965 0.0446,-0.04454 0.14445,0.04455 0.18899,0 0.0445,-0.04454 -0.0282,-0.132641 0,-0.188986 0.62679,-0.626796 -0.0891,0.178178 0.18899,-0.377976 0.0398,-0.07969 0.14914,-0.109305 0.18899,-0.188989 0.0282,-0.05635 -0.0282,-0.132644 0,-0.188987 0.0398,-0.07968 0.14914,-0.109305 0.18898,-0.188989 0.0563,-0.112691 -0.0891,-0.288885 0,-0.377976 0.0446,-0.04454 0.14445,0.04454 0.18899,0 0.0445,-0.04454 -0.0282,-0.132643 0,-0.188989 0.6268,-0.626793 -0.0891,0.178181 0.18899,-0.377976 0.0398,-0.07968 0.14915,-0.109305 0.18899,-0.188987 0.0282,-0.05635 -0.0446,-0.144444 0,-0.188989 0.0445,-0.04454 0.14444,0.04454 0.18899,0 0.0891,-0.08909 -0.0564,-0.265284 0,-0.377976 0.0398,-0.07968 0.14914,-0.109304 0.18898,-0.188989 0.0282,-0.05635 -0.0282,-0.132641 0,-0.188986 0.0399,-0.07968 0.14915,-0.109305 0.18899,-0.18899 0.0564,-0.112691 -0.0563,-0.265284 0,-0.377975 0.0797,-0.15937 0.29829,-0.218607 0.37798,-0.377976 0.0563,-0.112692 -0.0891,-0.288888 0,-0.377976 0.0445,-0.04454 0.14444,0.04454 0.18899,0 0.0891,-0.08909 -0.0891,-0.288888 0,-0.377976 0.0445,-0.04454 0.14444,0.04454 0.18899,0 0.0445,-0.04454 -0.0282,-0.132643 0,-0.188989 0.0398,-0.07968 0.14914,-0.109305 0.18898,-0.188989 0.0564,-0.112689 -0.0891,-0.288886 0,-0.377976 0.0446,-0.04455 0.14445,0.04454 0.18899,0 0.0945,-0.09449 -0.0945,-0.472469 0,-0.566962 0.0446,-0.04455 0.14444,0.04454 0.18899,0 0.0517,-0.05171 -0.0513,-0.653431 0,-0.755955 0.0398,-0.07968 0.14915,-0.109302 0.18899,-0.188986 0.0594,-0.118785 -0.0594,-0.63717 0,-0.755955 0.0398,-0.07968 0.14914,-0.109302 0.18899,-0.188986 0.005,-0.0099 0.005,-0.557078 0,-0.566965 -0.23354,-0.467066 -0.18899,0.06523 -0.18899,-0.377976 0,-0.503968 0,-1.007935 0,-1.511906 0,-0.063 0.0445,-0.144441 0,-0.188986 -0.0446,-0.04455 -0.14444,0.04454 -0.18899,0 -0.0446,-0.04455 0,-0.125992 0,-0.18899 0,-0.08911 0.009,-0.936373 0,-0.944941 -0.0446,-0.04454 -0.14444,0.04455 -0.18899,0 -0.0455,-0.04548 0.0455,-0.710475 0,-0.755951 -0.0445,-0.04455 -0.14444,0.04454 -0.18899,0 -0.0455,-0.04548 0.0455,-0.710475 0,-0.755952 -0.0445,-0.04454 -0.14444,0.04454 -0.18898,0 -0.0945,-0.09449 0.0945,-0.472472 0,-0.566965 -0.0446,-0.04454 -0.14445,0.04454 -0.18899,0 -0.0945,-0.09449 0.0945,-0.472469 0,-0.566965 -0.0446,-0.04454 -0.14445,0.04454 -0.18899,0 -0.0891,-0.08909 0.0891,-0.288885 0,-0.377976 -0.0446,-0.04454 -0.14444,0.04455 -0.18899,0 -0.0455,-0.04548 0.0455,-0.710475 0,-0.755951 -0.0446,-0.04455 -0.14444,0.04454 -0.18899,0 -0.0945,-0.09449 0.0945,-0.472469 0,-0.566965 -0.0445,-0.04455 -0.14444,0.04454 -0.18899,0 -0.0445,-0.04455 0.0282,-0.132641 0,-0.188987 -0.0398,-0.07968 -0.14914,-0.109305 -0.18898,-0.188989 -0.0282,-0.05635 0.0445,-0.144444 0,-0.188987 -0.0446,-0.04454 -0.14445,0.04454 -0.18899,0 -0.0891,-0.08909 0.0891,-0.288888 0,-0.377978 -0.0446,-0.04454 -0.14445,0.04454 -0.18899,0 -0.0445,-0.04454 0.0282,-0.132641 0,-0.188987 -0.0797,-0.159369 -0.29829,-0.218606 -0.37798,-0.377976 -0.0282,-0.05635 0.0446,-0.144443 0,-0.188989 -0.0445,-0.04454 -0.14444,0.04455 -0.18898,0 -0.0446,-0.04454 0,-0.125992 0,-0.188986 -0.063,0 -0.14445,0.04454 -0.18899,0 -0.0446,-0.04455 0.0445,-0.144444 0,-0.18899 -0.0446,-0.04454 -0.14445,0.04455 -0.18899,0 -0.0445,-0.04454 0.0445,-0.144444 0,-0.188989 -0.39102,-0.391022 0.0153,0.597535 -0.37798,-0.188986 0,-0.503968 0.063,0.06299 -0.18898,-0.18899 -0.0446,-0.04454 0.0445,-0.144441 0,-0.188986 -0.0446,-0.04454 -0.14445,0.04454 -0.18899,0 -0.0446,-0.04454 0.0282,-0.132644 0,-0.188989 -0.0398,-0.07968 -0.14915,-0.109305 -0.18899,-0.188987 -0.0282,-0.05635 0.0446,-0.144444 0,-0.188989 -0.0445,-0.04455 -0.14444,0.04454 -0.18899,0 -0.0891,-0.08909 0.0891,-0.288886 0,-0.377976 -0.0445,-0.04454 -0.14444,0.04454 -0.18899,0 -0.0445,-0.04454 0.0282,-0.132644 0,-0.188989 -0.0398,-0.07968 -0.14914,-0.109302 -0.18898,-0.188987 -0.0282,-0.05635 0.0445,-0.144444 0,-0.188989 -0.0446,-0.04455 -0.14445,0.04454 -0.18899,0 -0.0446,-0.04455 0.0282,-0.132644 0,-0.188987 -0.6268,-0.626795 0.0891,0.178179 -0.18899,-0.377978 -0.0505,-0.100933 -0.46747,-0.467469 -0.56697,-0.566962 -0.0995,-0.0995 -0.46602,-0.516499 -0.56696,-0.566966 -0.0563,-0.02817 -0.14444,0.04455 -0.18899,0 -0.0445,-0.04454 0.0445,-0.144443 0,-0.188989 -0.0445,-0.04454 -0.13264,0.02817 -0.18899,0 -0.0797,-0.03984 -0.1093,-0.149145 -0.18898,-0.188986 -0.0563,-0.02817 -0.14445,0.04454 -0.18899,0 -0.0446,-0.04455 0.0445,-0.144444 0,-0.18899 -0.0446,-0.04454 -0.13264,0.02817 -0.18899,0 -0.15937,-0.07968 -0.21861,-0.298291 -0.37798,-0.377975 -0.0563,-0.02817 -0.14444,0.04454 -0.18898,0 -0.0446,-0.04455 0.0445,-0.144444 0,-0.188987 -0.0446,-0.04454 -0.13265,0.02817 -0.18899,0 -0.15937,-0.07968 -0.21861,-0.298294 -0.37798,-0.377978 -0.0563,-0.02817 -0.14444,0.04455 -0.18899,0 -0.0445,-0.04454 0.0446,-0.144442 0,-0.188987 -0.0445,-0.04454 -0.14444,0.04454 -0.18898,0 -0.0446,-0.04454 0.0282,-0.132644 0,-0.188989 -0.0399,-0.07968 -0.126,-0.125992 -0.18899,-0.188987 -0.063,-0.063 -0.10931,-0.149145 -0.18899,-0.188989 -0.0564,-0.02817 -0.14444,0.04454 -0.18899,0 -0.0445,-0.04455 0.0446,-0.144444 0,-0.188987 -0.0445,-0.04454 -0.14444,0.04454 -0.18899,0 -0.39102,-0.391025 0.59754,0.01529 -0.18899,-0.377978 -0.11269,-0.05634 -0.28888,0.08909 -0.37797,0 -0.0446,-0.04454 0.0445,-0.144441 0,-0.188987 -0.0446,-0.04454 -0.13264,0.02817 -0.18899,0 -0.0797,-0.03984 -0.1093,-0.149145 -0.18899,-0.188989 -0.0563,-0.02817 -0.14444,0.04454 -0.18899,0 -0.0445,-0.04455 0.0446,-0.144441 0,-0.188986 -0.0445,-0.04455 -0.13264,0.02817 -0.18898,0 -0.0797,-0.03984 -0.10931,-0.149146 -0.18899,-0.18899 -0.11269,-0.05635 -0.28889,0.08909 -0.37798,0 -0.0445,-0.04454 0.0446,-0.144444 0,-0.188986 -0.0891,-0.08909 -0.26528,0.05634 -0.37797,0 -0.0797,-0.03984 -0.10931,-0.149148 -0.18899,-0.188989 -0.15119,-0.07559 -0.41578,0.07559 -0.56697,0 -0.0797,-0.03984 -0.1093,-0.149146 -0.18898,-0.18899 -0.0575,-0.02876 -0.48186,0 -0.56697,0 -0.44097,0 -0.88194,0 -1.32292,0 -0.0988,0 -0.70625,0.02484 -0.75595,0 -0.0797,-0.03984 -0.1093,-0.149145 -0.18899,-0.188986 -0.0683,-0.03417 -0.81349,0 -0.94494,0 -0.063,0 -0.12599,0 -0.18898,0 -0.063,0 -0.13265,0.02817 -0.18899,0 -0.0797,-0.03984 -0.10931,-0.149146 -0.18899,-0.188989 -0.10252,-0.05126 -0.704242,0.05171 -0.755952,0 -0.04454,-0.04455 0.04454,-0.144442 0,-0.188987 -0.03864,-0.03864 -0.492032,0.03746 -0.566965,0 -0.07968,-0.03984 -0.109305,-0.149146 -0.188989,-0.188989 -0.112689,-0.05635 -0.265285,0.05635 -0.377976,0 -0.07968,-0.03984 -0.109302,-0.149146 -0.188987,-0.188987 -0.118784,-0.05939 -0.637169,0.05939 -0.755954,0 -0.07968,-0.03984 -0.109302,-0.149148 -0.188987,-0.188989 -0.04886,-0.02442 -0.999974,0 -1.13393,0 -0.06299,0 -0.13264,0.02817 -0.188986,0 -0.07968,-0.03984 -0.109305,-0.149146 -0.188989,-0.188989 -0.102524,-0.05126 -0.704242,0.05171 -0.755952,0 -0.04454,-0.04454 0.04454,-0.144442 0,-0.188987 -0.03864,-0.03864 -0.492032,0.03746 -0.566965,0 -0.07968,-0.03984 -0.109302,-0.149146 -0.188987,-0.188989 -0.303284,-0.151641 -0.07469,0.151643 -0.377978,0 -0.07968,-0.03984 -0.109302,-0.149146 -0.188987,-0.188987 -0.151191,-0.0756 -0.415774,0.07559 -0.566965,0 -0.07968,-0.03984 -0.109302,-0.149145 -0.188986,-0.188989 -0.118785,-0.05939 -0.63717,0.05939 -0.755955,0 -0.07968,-0.03984 -0.109302,-0.149146 -0.188986,-0.188987 -0.07493,-0.03747 -0.528328,0.03863 -0.566965,0 -0.04454,-0.04454 0.04454,-0.144444 0,-0.188989 -0.04548,-0.04548 -0.710475,0.04548 -0.755952,0 -0.04454,-0.04454 0.04454,-0.144444 0,-0.188989 -0.04454,-0.04454 -0.125992,0 -0.188989,0 -0.063,0 -0.125992,0 -0.188987,0 -0.50397,0 -1.007938,0 -1.511905,0 -0.08511,0 -0.50945,0.02876 -0.566965,0 -0.07968,-0.03984 -0.109303,-0.149146 -0.188987,-0.188987 -0.04886,-0.02442 -0.999974,0 -1.13393,0 -0.063,0 -0.132641,0.02817 -0.188987,0 -0.07968,-0.03984 -0.109304,-0.149145 -0.188989,-0.188989 -0.05635,-0.02817 -0.125992,0 -0.188987,0 -0.133955,0 -1.085066,0.02442 -1.13393,0 -0.07968,-0.03984 -0.109302,-0.149145 -0.188986,-0.188986 -0.05635,-0.02817 -0.125992,0 -0.188989,0 -0.063,0 -0.125992,0 -0.18899,0 -0.377975,0 -0.755951,0 -1.133927,0 -0.063,0 -0.144444,-0.04455 -0.188989,0 -0.04454,0.04454 0.04454,0.144441 0,0.188986 -0.0061,0.0061 -0.521129,0 -0.566963,0 -0.503967,0 0.063,-0.06299 -0.188989,0.188989 -0.04548,0.04548 -0.710475,-0.04548 -0.755952,0 -0.04454,0.04455 0.04455,0.144444 0,0.188987 -0.04548,0.04548 -0.710475,-0.04548 -0.755951,0 -0.04454,0.04454 0.04454,0.144444 0,0.188989 -0.08909,0.08909 -0.265287,-0.05635 -0.377979,0 -0.07968,0.03984 -0.109302,0.149146 -0.188986,0.188989 -0.102524,0.05126 -0.704242,-0.05171 -0.755952,0 -0.04454,0.04454 0.04454,0.144442 0,0.188987 -0.08909,0.08909 -0.265287,-0.05635 -0.377978,0 -0.07968,0.03984 -0.109302,0.149146 -0.188987,0.188989 -0.112691,0.05635 -0.288888,-0.08909 -0.377976,0 -0.04454,0.04455 0.04455,0.144442 0,0.188987 -0.08909,0.08909 -0.288888,-0.08909 -0.377975,0 -0.04455,0.04454 0.04454,0.144444 0,0.188989 -0.04455,0.04454 -0.132644,-0.02817 -0.18899,0 -0.07968,0.03984 -0.109304,0.149146 -0.188989,0.188987 -0.05634,0.02817 -0.144441,-0.04454 -0.188986,0 -0.04455,0.04455 0.04454,0.144444 0,0.188989 -0.04455,0.04454 -0.132644,-0.02817 -0.18899,0 -0.185967,0.09298 -0.569981,0.662966 -0.755951,0.755952 -0.05635,0.02817 -0.132644,-0.02817 -0.18899,0 -0.786521,0.393263 0.202036,-0.01304 -0.188986,0.377975 -0.04454,0.04455 -0.132644,-0.02817 -0.188989,0 -0.07968,0.03984 -0.109302,0.149146 -0.188987,0.18899 -0.05635,0.02817 -0.132643,-0.02817 -0.188989,0 -0.07969,0.03984 -0.109302,0.149145 -0.188987,0.188989 -0.05634,0.02817 -0.144444,-0.04454 -0.188989,0 -0.04454,0.04454 0.04454,0.144441 0,0.188986 -0.04454,0.04455 -0.132644,-0.02817 -0.188989,0 -0.07968,0.03984 -0.109302,0.149146 -0.188987,0.18899 -0.05634,0.02817 -0.144444,-0.04455 -0.188989,0 -0.04454,0.04454 0.04454,0.144441 0,0.188986 -0.04454,0.04454 -0.132641,-0.02817 -0.188987,0 -0.07968,0.03984 -0.109304,0.149146 -0.188989,0.188989 -0.05635,0.02817 -0.144444,-0.04454 -0.188986,0 -0.04455,0.04455 0.04454,0.144444 0,0.188987 -0.04455,0.04454 -0.144444,-0.04454 -0.18899,0 -0.04454,0.04454 0.04455,0.144444 0,0.188989 -0.04454,0.04454 -0.132643,-0.02817 -0.188989,0 -0.226785,0.113393 -0.340177,0.453573 -0.566962,0.566965 -0.05635,0.02817 -0.144444,-0.04454 -0.188989,0 -0.04455,0.04454 0.04454,0.144442 0,0.188987 -0.04455,0.04454 -0.144444,-0.04454 -0.188987,0 -0.04454,0.04454 0.04454,0.144444 0,0.188989 -0.04454,0.04454 -0.132644,-0.02817 -0.188989,0 -0.07969,0.03984 -0.109305,0.149146 -0.188989,0.188987 -0.05634,0.02817 -0.144442,-0.04454 -0.188987,0 -0.04454,0.04455 0.04454,0.144444 0,0.188989 -0.503968,0 0.063,-0.063 -0.188989,0.188989 -0.04455,0.04454 -0.132641,-0.02817 -0.188987,0 -0.159369,0.07968 -0.218609,0.298291 -0.377976,0.377976 -0.05634,0.02817 -0.125992,0 -0.188989,0 -0.063,0.063 -0.109305,0.149146 -0.188989,0.188986 -0.05634,0.02817 -0.144441,-0.04454 -0.188987,0 -0.04454,0.04455 0.04455,0.144444 0,0.18899 -0.04454,0.04454 -0.132643,-0.02817 -0.188989,0 -0.159369,0.07968 -0.218607,0.298291 -0.377976,0.377975 -0.05635,0.02817 -0.132643,-0.02817 -0.188986,0 -0.100936,0.05047 -0.467471,0.467469 -0.566965,0.566966 -0.111152,0.111151 -0.712195,0.668435 -0.755952,0.755951 -0.02817,0.05635 0.02817,0.132644 0,0.188989 -0.07968,0.159367 -0.298294,0.218607 -0.377978,0.377976 -0.02817,0.05635 0.02817,0.132641 0,0.188987 -0.173964,0.347929 -0.392999,0.03005 -0.566963,0.377976 -0.02817,0.05635 0.02817,0.132643 0,0.188989 -0.04376,0.08752 -0.6448,0.6448 -0.755954,0.755951 -0.063,0.063 -0.149146,0.109305 -0.188987,0.18899 -0.02817,0.05635 0.04455,0.144444 0,0.188986 -0.391022,0.391025 0.01529,-0.597535 -0.377975,0.188989 -0.130342,0.260681 0.228875,0.169045 -0.18899,0.377976 -0.05635,0.02817 -0.144444,-0.04454 -0.188986,0 -0.04455,0.04455 0.02817,0.132644 0,0.188989 -0.03984,0.07968 -0.149149,0.109303 -0.188989,0.188987 -0.02817,0.05635 0.02817,0.132644 0,0.188989 -0.07968,0.159369 -0.298292,0.218607 -0.377976,0.377976 -0.05635,0.112691 0.05634,0.265285 0,0.377976 -0.03984,0.07968 -0.149146,0.109305 -0.18899,0.188989 -0.02817,0.05635 0.02817,0.132641 0,0.188987 -0.07968,0.159369 -0.298291,0.218609 -0.377975,0.377976 -0.05635,0.112691 0.08909,0.288887 0,0.377978 -0.04455,0.04454 -0.144444,-0.04454 -0.188987,0 -0.03864,0.03863 0.03746,0.49203 0,0.566962 -0.03984,0.07968 -0.149148,0.109305 -0.188989,0.18899 -0.02817,0.05635 0.02817,0.132643 0,0.188986 -0.03984,0.07968 -0.149146,0.109305 -0.188989,0.188989 -0.02817,0.05635 0.02817,0.132644 0,0.18899 -0.03984,0.07968 -0.149146,0.109302 -0.188987,0.188986 -0.02817,0.05635 0.02817,0.132644 0,0.188989 -0.03984,0.07968 -0.149146,0.109302 -0.188989,0.188987 -0.05635,0.112691 0.08909,0.288888 0,0.377976 -0.04454,0.04454 -0.144442,-0.04454 -0.188987,0 -0.08909,0.08909 0.05635,0.265287 0,0.377978 -0.03984,0.07968 -0.149145,0.109302 -0.188989,0.188987 -0.02817,0.05635 0.02817,0.132643 0,0.188989 -0.03984,0.07968 -0.149146,0.109302 -0.188987,0.188987 -0.02817,0.05635 0.02817,0.132643 0,0.188989 -0.03984,0.07968 -0.149148,0.109302 -0.188989,0.188986 -0.02817,0.05635 0.02817,0.132644 0,0.18899 -0.03984,0.07968 -0.149145,0.109304 -0.188989,0.188989 -0.05634,0.112689 0.08909,0.288885 0,0.377976 -0.04454,0.04454 -0.144441,-0.04455 -0.188987,0 -0.08909,0.08909 0.08909,0.288885 0,0.377976 -0.04454,0.04454 -0.144444,-0.04455 -0.188989,0 -0.08909,0.08909 0.08909,0.288885 0,0.377975 -0.04454,0.04455 -0.144441,-0.04454 -0.188986,0 -0.08909,0.08909 0.05635,0.265285 0,0.377976 -0.03984,0.07968 -0.149146,0.109305 -0.18899,0.188989 -0.02817,0.05635 0.02817,0.132641 0,0.188987 -0.626795,0.626795 0.08909,-0.178178 -0.188986,0.377976 -0.03984,0.07968 -0.149148,0.109304 -0.188989,0.188989 -0.05635,0.112691 0.05635,0.265284 0,0.377976 -0.03984,0.07968 -0.149146,0.109304 -0.18899,0.188989 -0.07559,0.151191 0.0756,0.415774 0,0.566962 -0.03984,0.07968 -0.149145,0.109305 -0.188986,0.18899 -0.05939,0.118782 0.05939,0.637169 0,0.755951 -0.03984,0.07968 -0.149146,0.109305 -0.188989,0.188989 -0.07559,0.151191 0.0756,0.415775 0,0.566966 -0.03984,0.07968 -0.149146,0.109302 -0.188987,0.188986 -0.0756,0.151191 0.07559,0.415774 0,0.566965 -0.03984,0.07968 -0.149146,0.109302 -0.188989,0.188987 -0.05126,0.102526 0.05171,0.704241 0,0.755954 -0.04455,0.04454 -0.144444,-0.04454 -0.188987,0 -0.0086,0.0086 0,0.855832 0,0.944941 0,0.06299 -0.04454,0.144441 0,0.188986 0.04454,0.04455 0.144441,-0.04454 0.188987,0 0.04548,0.04548 -0.04548,0.710475 0,0.755952 0.04454,0.04454 0.144444,-0.04454 0.188989,0 0.08909,0.08909 -0.05635,0.265287 0,0.377978 0.03984,0.07968 0.149146,0.109302 0.188987,0.188987 0.02817,0.05635 -0.04455,0.144444 0,0.188989 0.04454,0.04455 0.144443,-0.04454 0.188989,0 0.252735,0.252736 -0.252738,0.125238 0,0.377976 0.04454,0.04454 0.144444,-0.04454 0.188986,0 0.04455,0.04454 -0.04454,0.144444 0,0.188987 0.04455,0.04454 0.125995,0 0.18899,0 0,0.063 -0.04455,0.144444 0,0.188989 0.04454,0.04454 0.144444,-0.04454 0.188989,0 0.04454,0.04454 -0.02817,0.132643 0,0.188989 0.03984,0.07968 0.149145,0.109302 0.188986,0.188987 0.02817,0.05635 -0.04454,0.144444 0,0.188989 0.04455,0.04454 0.144444,-0.04454 0.18899,0 0.04454,0.04454 -0.04455,0.144441 0,0.188987 0.04454,0.04454 0.144441,-0.04455 0.188986,0 0.04454,0.04454 -0.02817,0.132643 0,0.188989 0.03984,0.07968 0.149146,0.109302 0.188989,0.188986 0.02817,0.05635 -0.04454,0.144444 0,0.18899 0.04455,0.04454 0.125992,0 0.188987,0 0,0.06299 -0.04454,0.144444 0,0.188989 0.04454,0.04454 0.144444,-0.04454 0.188989,0 0.08909,0.08909 -0.08909,0.288885 0,0.377976 0.04454,0.04454 0.144444,-0.04455 0.188989,0 0.04454,0.04454 -0.02817,0.13264 0,0.188986 0.03984,0.07968 0.149146,0.109305 0.188987,0.188989 0.02817,0.05635 -0.04454,0.144444 0,0.188987 0.04454,0.04454 0.144444,-0.04454 0.188989,0 0.04454,0.04454 -0.04454,0.144444 0,0.188989 0.04454,0.04454 0.144442,-0.04454 0.188987,0 0.04454,0.04454 -0.04454,0.144444 0,0.188989 0.04454,0.04454 0.144444,-0.04454 0.188989,0 0.391022,0.391023 -0.597535,-0.01529 0.188987,0.377976 0.05634,0.02817 0.144444,-0.04454 0.188989,0 0.04454,0.04454 -0.04454,0.144442 0,0.188987 0.04454,0.04454 0.144444,-0.04454 0.188989,0 0.08909,0.08909 -0.08909,0.288888 0,0.377976 0.08909,0.08909 0.288885,-0.08909 0.377976,0 0.04454,0.04454 -0.02817,0.132643 0,0.188989 0.503968,1.007935 0,-0.503968 0,0 0,0.140864 0.08938,0.278371 0.188986,0.377976 0.04455,0.04454 0.144444,-0.04455 0.18899,0 0.04454,0.04454 -0.04455,0.144444 0,0.188989 0.04454,0.04454 0.144444,-0.04454 0.188986,0 0.08909,0.08909 -0.08909,0.288885 0,0.377976 0.04455,0.04454 0.144444,-0.04455 0.18899,0 0.04454,0.04454 -0.04455,0.144444 0,0.188986 0.08909,0.08909 0.288885,-0.08909 0.377975,0 0.04455,0.04455 -0.04454,0.144444 0,0.18899 0.08909,0.08909 0.288888,-0.08909 0.377976,0 0.04454,0.04454 -0.04454,0.144443 0,0.188989 0.04454,0.04454 0.132644,-0.02817 0.188989,0 0.07968,0.03984 0.109305,0.149145 0.188987,0.188986 0.112691,0.05635 0.288888,-0.08909 0.377978,0 0.04454,0.04455 -0.04454,0.144444 0,0.18899 0.08909,0.08909 0.288886,-0.08909 0.377976,0 0.04454,0.04454 -0.04454,0.144441 0,0.188986 0.08909,0.08909 0.288885,-0.08909 0.377976,0 0.04454,0.04454 -0.04454,0.144444 0,0.188989 0.08909,0.08909 0.265284,-0.05634 0.377976,0 0.07968,0.03984 0.109304,0.149146 0.188989,0.188987 0.112689,0.05635 0.288885,-0.08909 0.377976,0 0.04454,0.04454 -0.04454,0.144444 0,0.188989 0.08909,0.08909 0.265284,-0.05635 0.377976,0 0.07968,0.03984 0.109304,0.149146 0.188986,0.188989 0.05635,0.02817 0.132644,-0.02817 0.188989,0 0.07968,0.03984 0.109305,0.149146 0.18899,0.188987 0.112688,0.05635 0.288885,-0.08909 0.377975,0 0.04455,0.04454 -0.04454,0.144444 0,0.188989 0.08909,0.08909 0.288886,-0.08909 0.377976,0 0.04455,0.04454 -0.04454,0.144442 0,0.188987 0.08909,0.08909 0.265285,-0.05635 0.377976,0 0.07968,0.03984 0.109305,0.149145 0.188989,0.188989 0.05634,0.02817 0.132641,-0.02817 0.188987,0 0.07968,0.03984 0.109305,0.149146 0.188989,0.188987 0.112691,0.05634 0.288885,-0.08909 0.377976,0 0.04454,0.04454 -0.04454,0.144444 0,0.188989 0.126368,0.126367 0.251608,-0.126368 0.377976,0 0.04454,0.04454 -0.04454,0.144444 0,0.188989 0.04454,0.04454 0.132643,-0.02817 0.188989,0 0.07968,0.03984 0.109302,0.149146 0.188987,0.188987 0.05635,0.02817 0.144444,-0.04455 0.188989,0 0.04454,0.04454 -0.04454,0.144444 0,0.188989 0.04454,0.04454 0.132641,-0.02817 0.188986,0 0.07968,0.03984 0.109305,0.149145 0.18899,0.188986 0.05634,0.02817 0.132643,-0.02817 0.188986,0 0.07968,0.03984 0.109305,0.149146 0.188989,0.18899 0.05635,0.02817 0.132644,-0.02817 0.18899,0 0.07968,0.03984 0.109302,0.149145 0.188986,0.188986 0.112692,0.05635 0.265287,-0.05634 0.377976,0 0.07968,0.03984 0.109305,0.149148 0.188989,0.188989 0.07493,0.03746 0.528328,-0.03864 0.566965,0 0.04454,0.04455 -0.04454,0.144444 0,0.18899 0.09449,0.09449 0.472469,-0.0945 0.566963,0 0.04454,0.04454 -0.04455,0.144441 0,0.188986 0.0945,0.09449 0.472471,-0.09449 0.566965,0 0.04454,0.04455 -0.04455,0.144444 0,0.188989 0.08909,0.08909 0.265284,-0.05634 0.377976,0 0.07968,0.03984 0.109304,0.149146 0.188989,0.188987 0.112691,0.05635 0.288885,-0.08909 0.377976,0 0.04454,0.04454 -0.04455,0.144444 0,0.188989 0.126367,0.126368 0.251608,-0.126367 0.377975,0 0.04455,0.04455 -0.04454,0.144444 0,0.188987 0.08909,0.08909 0.265285,-0.05634 0.377976,0 0.07968,0.03984 0.109305,0.149148 0.188989,0.188989 0.112692,0.05635 0.265285,-0.05635 0.377976,0 0.07968,0.03984 0.109305,0.149146 0.188987,0.188989 0.05635,0.02817 0.125994,0 0.188989,0 0.063,0.063 0.109305,0.149146 0.188989,0.188987 0.112689,0.05635 0.288886,-0.08909 0.377976,0 0.04454,0.04454 -0.04454,0.144444 0,0.188989 0.126368,0.126368 0.251608,-0.12637 0.377976,0 0.251984,0.251984 -0.314981,0.188987 0.188986,0.188987 0.186291,0 0.564267,0 0.377979,0 -0.125992,0 -0.377979,-0.125992 -0.377979,0 0,0.389522 0.651629,0.08466 0.755955,0.188989 0.04454,0.04454 0.06299,0.188987 0,0.188987 -0.063,0 -0.063,-0.188987 0,-0.188987 0.233532,0 0.188986,0.26503 0.188986,0.377976 0,0.063 0,0.251984 0,0.188989 0,-0.125992 0,-0.50397 0,-0.377978 0,0.188989 0,0.377978 0,0.566965 0,0.063 0,0.125991 0,0.188989 0,0.06299 0.04455,0.144441 0,0.188986 -0.04454,0.04455 -0.144441,-0.04454 -0.188986,0 -0.08909,0.08909 0.08909,0.288888 0,0.377976 -0.04455,0.04454 -0.144444,-0.04454 -0.18899,0 -0.04454,0.04454 0,0.125992 0,0.188989 0,0.063 -0.04454,0.144444 0,0.18899 0.04455,0.04454 0.144444,-0.04455 0.18899,0 0.04454,0.04454 -0.04455,0.144441 0,0.188986 0.04454,0.04454 0.144441,-0.04454 0.188986,0 0.04455,0.04454 -0.04454,0.144444 0,0.188989 0.04455,0.04455 0.132644,-0.02817 0.188989,0 0.07969,0.03984 0.109305,0.149146 0.188987,0.188987 0.112691,0.05635 0.265287,-0.05635 0.377979,0 0.07968,0.03984 0.109302,0.149146 0.188986,0.188989 0.13054,0.06527 0.878602,-0.06634 0.944941,0 0.04454,0.04454 -0.04454,0.144444 0,0.188987 0.04454,0.04454 0.125992,0 0.188989,0 0.063,0 0.125992,0 0.188987,0 0.566965,0 1.13393,0 1.700892,0 0.063,0 0.125992,0 0.188989,0 0.063,0 0.144444,0.04454 0.188987,0 0.04454,-0.04454 -0.04454,-0.144442 0,-0.188987 0.04454,-0.04454 0.125995,0 0.188989,0 0.063,0 0.125992,0 0.188989,0 0.440971,0 0.881944,0 1.322917,0 0.063,0 0.144441,0.04454 0.188987,0 0.04454,-0.04454 -0.04455,-0.144444 0,-0.188989 0.0061,-0.0061 0.521131,0 0.566965,0 1.133927,0 2.267857,0 3.401785,0 0.818949,0 1.637897,0 2.456846,0 0.133954,0 1.085065,0.02442 1.133928,0 0.07968,-0.03984 0.109304,-0.149146 0.188989,-0.188987 0.05634,-0.02817 0.125992,0 0.188987,0 0.0855,0 1.083564,0.02519 1.13393,0 0.07968,-0.03984 0.109302,-0.149145 0.188986,-0.188989 0.05635,-0.02817 0.125992,0 0.188989,0 0.063,0 0.125992,0 0.188987,0 0.314981,0 0.629962,0 0.944941,0 0.063,0 0.125992,0 0.188989,0 0.063,0 0.144441,0.04454 0.188987,0 0.04454,-0.04454 -0.04455,-0.144444 0,-0.188986 0.08909,-0.08909 0.265287,0.05634 0.377976,0 0.07968,-0.03984 0.109304,-0.149149 0.188989,-0.18899 0.05634,-0.02817 0.144444,0.04455 0.188989,0 0.04454,-0.04454 -0.04454,-0.144444 0,-0.188989 0.04454,-0.04454 0.144441,0.04454 0.188987,0 0.04454,-0.04454 -0.04455,-0.144441 0,-0.188986 0.08909,-0.08909 0.288888,0.08909 0.377975,0 0.04455,-0.04455 -0.04454,-0.144444 0,-0.18899 0.04455,-0.04454 0.14444,0.04455 0.18899,0 0.0445,-0.04454 -0.0446,-0.144441 0,-0.188986 0.0445,-0.04454 0.14444,0.04454 0.18899,0 0.0891,-0.08909 -0.0891,-0.288888 0,-0.377976 0.0445,-0.04454 0.14444,0.04454 0.18899,0 0.0891,-0.08909 -0.0891,-0.288888 0,-0.377978 0.0445,-0.04454 0.14444,0.04454 0.18898,0 0.0891,-0.08909 -0.0891,-0.288886 0,-0.377976 0.0446,-0.04455 0.14445,0.04454 0.18899,0 0.0446,-0.04455 -0.0445,-0.144442 0,-0.188987 0.0446,-0.04454 0.14445,0.04454 0.18899,0 0.0446,-0.04454 -0.0445,-0.144444 0,-0.188989 0.0446,-0.04454 0.14444,0.04454 0.18899,0 0.0445,-0.04454 -0.0234,-0.130498 0,-0.188987 0.10463,-0.261577 0.25198,-0.50397 0.37797,-0.755954 z"
       id="path1417"
       inkscape:connector-curvature="0" />
    <path
       style="fill:none;stroke:#000000;stroke-width:0.26458332px;stroke-linecap:butt;stroke-linejoin:miter;stroke-opacity:1"
       d="m 166.87649,84.855655 c -2.91115,1.039693 -1.8082,0.526121 -3.40179,1.322916 -0.12599,0.063 -0.24719,0.136671 -0.37798,0.188987 -0.18496,0.07398 -0.382,0.115004 -0.56696,0.188989 -0.13079,0.05231 -0.24434,0.144442 -0.37798,0.188987 -0.0598,0.01992 -0.12922,-0.01992 -0.18898,0 -0.13364,0.04454 -0.24435,0.144444 -0.37798,0.188989 -0.0598,0.01992 -0.13264,-0.02817 -0.18899,0 -0.0797,0.03984 -0.10447,0.160814 -0.18899,0.188987 -0.11952,0.03984 -0.25198,0 -0.37797,0 -0.063,0 -0.13264,-0.02817 -0.18899,0 -0.0797,0.03984 -0.1093,0.149148 -0.18899,0.188989 -0.15119,0.07559 -0.41577,-0.07559 -0.56696,0 -0.0797,0.03984 -0.10931,0.149146 -0.18899,0.188989 -0.0564,0.02817 -0.12599,0 -0.18899,0 -0.063,0 -0.12599,0 -0.18899,0 -0.31498,0 -0.62996,0 -0.94494,0 -0.12599,0 -0.25845,-0.03984 -0.37797,0 -0.13364,0.04454 -0.24435,0.144441 -0.37798,0.188987 -0.15212,0.0507 -0.63518,-0.06038 -0.75595,0 -0.0797,0.03984 -0.10931,0.149145 -0.18899,0.188989 -0.11269,0.05635 -0.26529,-0.05635 -0.37798,0 -0.0797,0.03984 -0.1093,0.149146 -0.18899,0.188987 -0.11269,0.05635 -0.26528,-0.05635 -0.37797,0 -0.0797,0.03984 -0.10931,0.149145 -0.18899,0.188989 -0.0564,0.02817 -0.12923,-0.01992 -0.18899,0 -0.13363,0.04454 -0.24434,0.144444 -0.37797,0.188986 -0.0598,0.01992 -0.12923,-0.01992 -0.18899,0 -0.13364,0.04455 -0.24434,0.144444 -0.37798,0.18899 -0.0598,0.01992 -0.12599,0 -0.18899,0 -0.12599,0.063 -0.24434,0.144444 -0.37797,0.188989 -0.0598,0.01992 -0.13264,-0.02817 -0.18899,0 -0.0797,0.03984 -0.11486,0.139567 -0.18899,0.188986 -0.1172,0.07814 -0.26077,0.110853 -0.37797,0.18899 -0.0741,0.04942 -0.10931,0.149145 -0.18899,0.188986 -0.0564,0.02817 -0.13264,-0.02817 -0.18899,0 -0.86493,0.432464 0.80195,-0.07833 -0.56697,0.377976 -0.0598,0.01992 -0.12599,0 -0.18898,0 -0.063,0.063 -0.10931,0.149148 -0.18899,0.188989 -0.0564,0.02817 -0.13264,-0.02817 -0.18899,0 -0.0797,0.03984 -0.1093,0.149146 -0.18899,0.188989 -0.0563,0.02817 -0.13264,-0.02817 -0.18899,0 -0.15937,0.07968 -0.2186,0.298292 -0.37797,0.377976 -0.0564,0.02817 -0.13265,-0.02817 -0.18899,0 -0.0797,0.03984 -0.10447,0.160814 -0.18899,0.188987 -0.11952,0.03984 -0.25845,-0.03984 -0.37797,0 -0.16904,0.05634 -0.21861,0.298291 -0.37798,0.377976 -0.0563,0.02817 -0.12922,-0.01992 -0.18899,0 -0.13363,0.04454 -0.24434,0.144444 -0.37797,0.188989 -0.0598,0.01992 -0.13265,-0.02817 -0.18899,0 -0.26737,0.133683 -0.11061,0.244292 -0.37798,0.377976 -0.0563,0.02817 -0.13264,-0.02817 -0.18899,0 -0.26737,0.133683 -0.11061,0.244292 -0.37797,0.377975 -0.0563,0.02817 -0.13265,-0.02817 -0.18899,0 -0.22679,0.113393 -0.34018,0.453573 -0.56697,0.566965 -0.0563,0.02817 -0.13264,-0.02817 -0.18898,0 -0.0797,0.03984 -0.11486,0.139571 -0.18899,0.18899 -0.11721,0.07814 -0.26077,0.11085 -0.37798,0.188986 -0.14825,0.09884 -0.25198,0.251984 -0.37797,0.377976 -0.31498,0.314981 -0.62996,0.629962 -0.94494,0.944941 -0.1485,0.1485 -0.88476,0.824561 -0.94495,0.944941 -0.0282,0.05634 0.0445,0.144444 0,0.188989 -0.0445,0.04454 -0.13264,-0.02817 -0.18898,0 -0.0797,0.03984 -0.126,0.125992 -0.18899,0.188987 -0.063,0.063 -0.14915,0.109304 -0.18899,0.188989 -0.0282,0.05635 0.0282,0.132641 0,0.188986 -0.0797,0.15937 -0.29829,0.21861 -0.37798,0.377976 -0.0282,0.05635 0.0445,0.144444 0,0.188989 -0.0445,0.04455 -0.13264,-0.02817 -0.18898,0 -0.0502,0.02508 -0.54188,0.516787 -0.56697,0.566965 -0.0282,0.05635 0.0282,0.132641 0,0.188987 -0.15052,0.301038 -0.22745,0.07694 -0.37797,0.377976 -0.0282,0.05635 0.0282,0.132643 0,0.188989 -0.39327,0.786524 0.013,-0.202036 -0.37798,0.188989 -0.0445,0.04454 0.0282,0.132641 0,0.188987 -0.0506,0.101095 -0.32743,0.276881 -0.37798,0.377976 -0.0282,0.05634 0.0282,0.132643 0,0.188989 -0.15051,0.301038 -0.22745,0.07694 -0.37797,0.377976 -0.0282,0.05634 0.0282,0.132643 0,0.188989 -0.0398,0.07968 -0.126,0.125992 -0.18899,0.188987 -0.21623,0.21623 -0.26356,0.223718 -0.37798,0.566965 -0.0199,0.0598 0.0282,0.13264 0,0.18899 -0.11339,0.22678 -0.45357,0.34018 -0.56696,0.56696 -0.0282,0.0563 0.0282,0.13264 0,0.18899 -0.0398,0.0797 -0.14915,0.1093 -0.18899,0.18899 -0.0282,0.0563 0,0.12599 0,0.18899 -0.063,0.063 -0.14915,0.1093 -0.18899,0.18898 -0.0282,0.0563 0,0.12599 0,0.18899 0,0.12599 0.0398,0.25845 0,0.37798 -0.0282,0.0845 -0.14914,0.1093 -0.18899,0.18899 -0.0282,0.0563 0,0.12599 0,0.18898 0,0.126 0.0399,0.25845 0,0.37798 -0.0282,0.0845 -0.16081,0.10447 -0.18898,0.18899 -0.0399,0.11952 0,0.25198 0,0.37797 0,0.063 0.0282,0.13265 0,0.18899 -0.0399,0.0797 -0.16082,0.10447 -0.18899,0.18899 -0.0288,0.0864 0.042,0.67186 0,0.75595 -0.0398,0.0797 -0.14915,0.10931 -0.18899,0.18899 -0.0756,0.15119 0.0756,0.41578 0,0.56697 -0.0398,0.0797 -0.14915,0.1093 -0.18899,0.18898 -0.0604,0.12077 0.0507,0.60384 0,0.75596 -0.0445,0.13363 -0.14444,0.24434 -0.18899,0.37797 -0.0396,0.11895 0,0.7746 0,0.94494 0,0.69296 0,1.38591 0,2.07887 0,0.44098 0,0.88195 0,1.32292 0,0.0851 -0.0288,0.50945 0,0.56696 0.0399,0.0797 0.14915,0.10931 0.18899,0.18899 0.0596,0.11923 -0.0596,0.82571 0,0.94494 0.0398,0.0797 0.14915,0.10931 0.18899,0.18899 0.0563,0.11269 -0.0563,0.26528 0,0.37798 0.0398,0.0797 0.14915,0.1093 0.18899,0.18898 0.0563,0.11269 -0.0564,0.26529 0,0.37798 0.0398,0.0797 0.14914,0.1093 0.18899,0.18899 0.0282,0.0563 -0.0282,0.13264 0,0.18899 0.0398,0.0797 0.14914,0.1093 0.18898,0.18898 0.0282,0.0563 -0.0282,0.13265 0,0.18899 0.0399,0.0797 0.14915,0.1093 0.18899,0.18899 0.0282,0.0563 -0.0282,0.13264 0,0.18899 0.0398,0.0797 0.14915,0.1093 0.18899,0.18899 0.0282,0.0563 -0.0282,0.13264 0,0.18898 0.0398,0.0797 0.14915,0.10931 0.18899,0.18899 0.0282,0.0564 -0.0282,0.13264 0,0.18899 0.0398,0.0797 0.14914,0.1093 0.18899,0.18899 0.0282,0.0563 -0.0282,0.13264 0,0.18899 0.15164,0.30328 0.22633,0.0747 0.37797,0.37797 0.0282,0.0564 -0.0445,0.14445 0,0.18899 0.0446,0.0446 0.14445,-0.0445 0.18899,0 0.0446,0.0446 -0.0445,0.14444 0,0.18899 0.0446,0.0446 0.14444,-0.0446 0.18899,0 0.0445,0.0446 -0.0446,0.14444 0,0.18899 0.0445,0.0445 0.14444,-0.0446 0.18899,0 0.0445,0.0445 -0.0445,0.14444 0,0.18899 0.0445,0.0445 0.14444,-0.0446 0.18899,0 0.0445,0.0445 -0.0446,0.14444 0,0.18898 0.0445,0.0446 0.14444,-0.0445 0.18898,0 0.0445,0.0446 -0.0282,0.13265 0,0.18899 0.39327,0.78653 -0.013,-0.20203 0.37798,0.18899 0.0445,0.0445 -0.0282,0.13264 0,0.18899 0.39326,0.78652 -0.013,-0.20204 0.37798,0.18899 0.0445,0.0445 -0.0445,0.14444 0,0.18898 0.0445,0.0446 0.14444,-0.0445 0.18898,0 0.0445,0.0446 -0.0282,0.13265 0,0.18899 0.0399,0.0797 0.14915,0.1093 0.18899,0.18899 0.0282,0.0563 -0.0445,0.14444 0,0.18899 0.0446,0.0445 0.14445,-0.0446 0.18899,0 0.0891,0.0891 -0.0891,0.28888 0,0.37797 0.0445,0.0446 0.14444,-0.0445 0.18899,0 0.0891,0.0891 -0.0891,0.28889 0,0.37798 0.0445,0.0446 0.14444,-0.0446 0.18899,0 0.0891,0.0891 -0.0563,0.26529 0,0.37798 0.0398,0.0797 0.14914,0.1093 0.18898,0.18899 0.0564,0.11269 -0.0563,0.26528 0,0.37797 0.0399,0.0797 0.14915,0.10931 0.18899,0.18899 0.0282,0.0563 -0.0282,0.13264 0,0.18899 0.0398,0.0797 0.14915,0.1093 0.18899,0.18899 0.0563,0.11269 -0.0891,0.28888 0,0.37797 0.0445,0.0446 0.14444,-0.0445 0.18899,0 0.0891,0.0891 -0.0564,0.26529 0,0.37798 0.0398,0.0797 0.14914,0.1093 0.18899,0.18899 0.0282,0.0563 -0.0282,0.13264 0,0.18898 0.0398,0.0797 0.14914,0.10931 0.18898,0.18899 0.0282,0.0563 -0.0282,0.13265 0,0.18899 0.0399,0.0797 0.14915,0.1093 0.18899,0.18899 0.0282,0.0563 -0.0282,0.13264 0,0.18899 0.15052,0.30103 0.22746,0.0769 0.37798,0.37797 0.0282,0.0564 -0.0446,0.14444 0,0.18899 0.0445,0.0446 0.14444,-0.0446 0.18899,0 0.0445,0.0446 -0.0282,0.13264 0,0.18899 0.0398,0.0797 0.14914,0.1093 0.18899,0.18899 0.0282,0.0563 -0.0282,0.13264 0,0.18899 0.11339,0.22678 0.45357,0.34017 0.56696,0.56696 0.0282,0.0563 -0.0445,0.14444 0,0.18899 0.0445,0.0445 0.14444,-0.0446 0.18899,0 0.0445,0.0445 -0.0445,0.14444 0,0.18899 0.0445,0.0445 0.13264,-0.0282 0.18899,0 0.0502,0.0251 0.54187,0.51678 0.56696,0.56696 0.0282,0.0563 -0.0445,0.14444 0,0.18899 0.0445,0.0445 0.13264,-0.0282 0.18899,0 0.0797,0.0398 0.1093,0.14914 0.18899,0.18899 0.0563,0.0282 0.14444,-0.0446 0.18898,0 0.0445,0.0445 -0.0445,0.14444 0,0.18898 0.0445,0.0446 0.13265,-0.0282 0.18899,0 0.0797,0.0399 0.10931,0.14915 0.18899,0.18899 0.0563,0.0282 0.13264,-0.0282 0.18899,0 0.0797,0.0398 0.1093,0.14915 0.18899,0.18899 0.0563,0.0282 0.13264,-0.0282 0.18898,0 0.0797,0.0398 0.10931,0.14915 0.18899,0.18899 0.0749,0.0375 0.52833,-0.0386 0.56697,0 0.0445,0.0445 -0.0445,0.14444 0,0.18899 0.0386,0.0386 0.49203,-0.0375 0.56696,0 0.0797,0.0398 0.10931,0.14914 0.18899,0.18898 0.0563,0.0282 0.13264,-0.0282 0.18899,0 0.0797,0.0399 0.1093,0.14915 0.18899,0.18899 0.0749,0.0375 0.52832,-0.0386 0.56696,0 0.0445,0.0446 -0.0445,0.14444 0,0.18899 0.0891,0.0891 0.26529,-0.0563 0.37798,0 0.0797,0.0398 0.1093,0.14915 0.18898,0.18899 0.1127,0.0563 0.26529,-0.0564 0.37798,0 0.0797,0.0398 0.1093,0.14914 0.18899,0.18899 0.15119,0.0756 0.41577,-0.0756 0.56696,0 0.0797,0.0398 0.10931,0.14914 0.18899,0.18899 0.11269,0.0563 0.26529,-0.0564 0.37798,0 0.0797,0.0398 0.1093,0.14914 0.18899,0.18898 0.11922,0.0596 0.82571,-0.0596 0.94494,0 0.0797,0.0399 0.1093,0.14915 0.18898,0.18899 0.15119,0.0756 0.41578,-0.0756 0.56697,0 0.0797,0.0398 0.1093,0.14915 0.18899,0.18899 0.13054,0.0653 0.8786,-0.0663 0.94494,0 0.0445,0.0445 -0.0445,0.14444 0,0.18899 0.0945,0.0945 0.47247,-0.0945 0.56696,0 0.0446,0.0445 -0.0445,0.14444 0,0.18899 0.0386,0.0386 0.49203,-0.0375 0.56697,0 0.0797,0.0398 0.1093,0.14914 0.18898,0.18898 0.12253,0.0613 0.95588,-0.0593 1.13393,0 0.13364,0.0445 0.24434,0.14445 0.37798,0.18899 0.15211,0.0507 0.63518,-0.0604 0.75595,0 0.0797,0.0398 0.1093,0.14915 0.18899,0.18899 0.0563,0.0282 0.12599,0 0.18899,0 0.12599,0 0.25198,0 0.37797,0 0.50397,0 1.00794,0 1.51191,0 0.15472,0 0.82249,-0.0408 0.94494,0 0.13363,0.0445 0.24132,0.15482 0.37797,0.18899 0.14867,0.0372 0.9374,0 1.13393,0 0.126,0 0.25199,0 0.37798,0 0.12599,0 0.25575,0.0306 0.37798,0 0.13665,-0.0342 0.24131,-0.15483 0.37797,-0.18899 0.12223,-0.0306 0.25199,0 0.37798,0 0.27331,0 1.12334,0.0399 1.32291,0 0.13813,-0.0276 0.24132,-0.15482 0.37798,-0.18899 0.24446,-0.0611 0.50886,0.0494 0.75595,0 0.19535,-0.0391 0.37162,-0.14992 0.56697,-0.18899 0.24709,-0.0494 0.5169,0.0797 0.75595,0 0.0845,-0.0282 0.10447,-0.16081 0.18899,-0.18898 0.11953,-0.0399 0.25574,0.0305 0.37797,0 0.13666,-0.0342 0.24132,-0.15483 0.37798,-0.18899 0.12223,-0.0306 0.25574,0.0306 0.37798,0 0.34205,0.11391 0.35148,-0.30615 0.56696,-0.37798 0.11953,-0.0398 0.25575,0.0306 0.37798,0 0.13666,-0.0342 0.25198,-0.12599 0.37797,-0.18899 0.126,-0.063 0.26077,-0.11085 0.37798,-0.18898 0.0741,-0.0494 0.10447,-0.16082 0.18899,-0.18899 0.11952,-0.0399 0.25845,0.0398 0.37797,0 0.0845,-0.0282 0.11486,-0.13957 0.18899,-0.18899 0.27541,-0.18361 0.39364,-0.11799 0.56697,-0.37798 0.0781,-0.1172 0.0894,-0.27837 0.18898,-0.37797 0.45902,-0.45902 0.27752,0.0562 0.56697,-0.37798 0.0781,-0.11721 0.11085,-0.26077 0.18899,-0.37798 0.0988,-0.14825 0.27914,-0.22972 0.37797,-0.37797 0.0781,-0.11721 0.10447,-0.26529 0.18899,-0.37798 0.10691,-0.14254 0.27107,-0.23543 0.37798,-0.37797 0.0845,-0.1127 0.12599,-0.25199 0.18898,-0.37798 0.063,-0.12599 0.16137,-0.23985 0.18899,-0.37798 0.0371,-0.18532 -0.0371,-0.38164 0,-0.56696 0.002,-0.009 0.36753,-0.72983 0.37798,-0.75595 0.62679,-1.88039 -0.17818,0.44544 0.37798,-0.94494 0.22022,-0.55056 0.37941,-1.13825 0.56696,-1.7009 0.063,-0.18898 0.115,-0.382 0.18899,-0.56696 0.0523,-0.13079 0.14444,-0.24434 0.18899,-0.37798 0.0821,-0.24641 0.11763,-0.50621 0.18898,-0.75595 0.25327,-0.88642 0.135,-0.31498 0.56697,-1.32292 0.48942,-1.14198 -0.0393,0.008 0.18899,-1.13392 0.0276,-0.13813 0.15482,-0.24132 0.18898,-0.37798 0.0764,-0.30558 -0.0618,-0.63608 0,-0.94494 0.0276,-0.13813 0.15483,-0.24132 0.18899,-0.37798 0.0306,-0.12223 0,-0.25198 0,-0.37797 0,-0.50397 0,-1.00794 0,-1.51191 0,-1.51014 -0.0458,0.55568 0.18899,-1.32292 0.0312,-0.25003 -0.0312,-0.50591 0,-0.75595 0.0322,-0.25773 0.15677,-0.49822 0.18899,-0.75595 0.0312,-0.25004 0,-0.50397 0,-0.75595 0.063,-0.25199 0.15225,-0.49882 0.18899,-0.75595 0.0624,-0.43655 -0.0547,-0.88535 0,-1.32292 0.0322,-0.25773 0.15225,-0.49883 0.18898,-0.75595 0.0267,-0.18709 0,-0.37798 0,-0.56697 0,-0.69295 0,-1.38591 0,-2.07887 0,-0.62996 0,-1.25992 0,-1.88988 0,-0.18899 0.0371,-0.38164 0,-0.56696 -0.0276,-0.13813 -0.16136,-0.23985 -0.18898,-0.37798 -0.0367,-0.18342 0,-1.287649 0,-1.511902 0,-0.125992 0.0247,-0.254431 0,-0.377978 -0.0391,-0.195342 -0.15624,-0.370462 -0.18899,-0.566963 -0.0311,-0.186417 0.0371,-0.381648 0,-0.566965 -0.0276,-0.138128 -0.15482,-0.241318 -0.18899,-0.377976 -0.0764,-0.305575 0.0618,-0.636077 0,-0.944941 -0.0276,-0.138128 -0.15482,-0.241318 -0.18899,-0.377975 -0.0764,-0.305576 0.0618,-0.636077 0,-0.944941 -0.0276,-0.138129 -0.15482,-0.241319 -0.18899,-0.377976 -0.082,-0.328131 0.082,-0.805799 0,-1.13393 -0.0342,-0.136657 -0.15482,-0.241319 -0.18898,-0.377976 -0.0611,-0.244459 0.0797,-0.516898 0,-0.755952 -0.0282,-0.08452 -0.14915,-0.109304 -0.18899,-0.188989 -0.0282,-0.05634 0,-0.125992 0,-0.188986 -0.063,-0.125992 -0.11085,-0.260771 -0.18899,-0.377976 -0.0494,-0.07413 -0.14915,-0.109305 -0.18899,-0.188989 -0.0282,-0.05635 0.0282,-0.132644 0,-0.188987 -0.0398,-0.07968 -0.14914,-0.109305 -0.18899,-0.188989 -0.0282,-0.05635 0.0199,-0.129225 0,-0.188989 -0.0445,-0.133633 -0.14444,-0.24434 -0.18898,-0.377976 -0.0199,-0.05976 0.0282,-0.132641 0,-0.188987 -0.0797,-0.159369 -0.2983,-0.218609 -0.37798,-0.377976 -0.0282,-0.05635 0.0282,-0.132643 0,-0.188989 -0.62679,-0.626795 0.0891,0.178179 -0.18899,-0.377976 -0.11339,-0.226785 -0.45357,-0.34018 -0.56696,-0.566965 -0.13034,-0.26068 0.22887,-0.169045 -0.18899,-0.377975 -0.0564,-0.02817 -0.13264,0.02817 -0.18899,0 -0.78652,-0.393261 0.20204,0.01304 -0.18899,-0.377976 -0.0445,-0.04455 -0.13264,0.02817 -0.18899,0 -0.66842,-0.334211 0.29045,-0.04377 -0.37797,-0.377976 -0.0564,-0.02817 -0.14445,0.04454 -0.18899,0 -0.0446,-0.04454 0.0445,-0.144444 0,-0.188989 -0.0891,-0.08909 -0.28889,0.08909 -0.37798,0 -0.0445,-0.04455 0.0445,-0.144444 0,-0.188987 -0.0891,-0.08909 -0.26528,0.05634 -0.37797,0 -0.0797,-0.03984 -0.10931,-0.149148 -0.18899,-0.188989 -0.0563,-0.02817 -0.14444,0.04454 -0.18899,0 -0.0445,-0.04454 0.0446,-0.144444 0,-0.188989 -0.0891,-0.08909 -0.28888,0.08909 -0.37797,0 -0.0445,-0.04454 0.0445,-0.144442 0,-0.188987 -0.0445,-0.04454 -0.13265,0.02817 -0.18899,0 -0.0797,-0.03984 -0.10931,-0.149146 -0.18899,-0.188989 -0.0564,-0.02817 -0.12599,0 -0.18899,0 -0.063,-0.063 -0.1093,-0.149146 -0.18899,-0.188987 -0.0563,-0.02817 -0.14444,0.04455 -0.18898,0 -0.0446,-0.04454 0.0445,-0.144444 0,-0.188989 -0.0446,-0.04454 -0.13265,0.02817 -0.18899,0 -0.0797,-0.03984 -0.10931,-0.149146 -0.18899,-0.188987 -0.0564,-0.02817 -0.14444,0.04454 -0.18899,0 -0.0445,-0.04454 0.0446,-0.144444 0,-0.188989 -0.0445,-0.04454 -0.13264,0.02817 -0.18899,0 -0.0797,-0.03984 -0.1093,-0.149145 -0.18899,-0.188989 -0.0563,-0.02817 -0.14444,0.04454 -0.18898,0 -0.0445,-0.04454 0.0445,-0.144441 0,-0.188987 -0.0891,-0.08909 -0.28889,0.08909 -0.37798,0 -0.0446,-0.04454 0.0445,-0.144444 0,-0.188989 -0.0446,-0.04454 -0.13264,0.02817 -0.18899,0 -0.15937,-0.07968 -0.21861,-0.298291 -0.37797,-0.377976 -0.11269,-0.05634 -0.28889,0.08909 -0.37798,0 -0.0445,-0.04454 0.0445,-0.144444 0,-0.188986 -0.009,-0.0086 -0.85583,0 -0.94494,0 -0.063,0 -0.12599,0 -0.18899,0 -0.063,0 -0.14444,0.04454 -0.18899,0 -0.0445,-0.04454 0.0445,-0.144444 0,-0.188989 -0.0445,-0.04455 -0.12599,0 -0.18898,0 -0.0694,0 -0.74835,-0.0076 -0.75596,0 -0.0445,0.04454 0.0446,0.144444 0,0.188989 -0.0445,0.04454 -0.12599,0 -0.18899,0 -0.063,0 -0.12599,0 -0.18898,0 -0.31498,0 -0.62996,0 -0.94494,0 z"
       id="path1419"
       inkscape:connector-curvature="0" />
    <path
       style="fill:none;stroke:#000000;stroke-width:0.26458332px;stroke-linecap:butt;stroke-linejoin:miter;stroke-opacity:1"
       d="m 172.54613,72.949405 c -0.37798,-0.881946 -0.70482,-1.787607 -1.13393,-2.645833 -0.0797,-0.159369 -0.27107,-0.235435 -0.37798,-0.377979 -0.0845,-0.112688 -0.11085,-0.26077 -0.18898,-0.377976 -0.0988,-0.148254 -0.2983,-0.218606 -0.37798,-0.377975 -0.0282,-0.05635 0.0282,-0.132644 0,-0.188987 -0.0398,-0.07968 -0.14915,-0.109305 -0.18899,-0.188989 -0.0282,-0.05635 0.0282,-0.132644 0,-0.188989 -0.0398,-0.07968 -0.14914,-0.109302 -0.18899,-0.188987 -0.0282,-0.05635 0.0445,-0.144444 0,-0.188989 -0.0445,-0.04454 -0.14444,0.04454 -0.18898,0 -0.0445,-0.04454 0.0282,-0.132641 0,-0.188987 -0.0797,-0.159369 -0.2983,-0.218609 -0.37798,-0.377976 -0.0282,-0.05634 0.0282,-0.132643 0,-0.188989 -0.12,-0.240001 -0.25798,-0.137977 -0.37798,-0.377976 -0.0282,-0.05634 0.0445,-0.144444 0,-0.188989 -0.0445,-0.04454 -0.14444,0.04454 -0.18898,0 -0.0446,-0.04454 0.0445,-0.144441 0,-0.188986 -0.0446,-0.04455 -0.14445,0.04454 -0.18899,0 -0.0445,-0.04455 0.0445,-0.144444 0,-0.18899 -0.0445,-0.04454 -0.14445,0.04455 -0.18899,0 -0.0446,-0.04454 0.0445,-0.144444 0,-0.188986 -0.39102,-0.391025 0.0153,0.597535 -0.37798,-0.188989 -0.0282,-0.05635 0.0446,-0.144444 0,-0.18899 -0.39102,-0.391022 0.0153,0.597535 -0.37797,-0.188986 -0.0282,-0.05635 0.0445,-0.144444 0,-0.18899 -0.0445,-0.04454 -0.13265,0.02817 -0.18899,0 -0.0362,-0.0181 -0.73787,-0.719775 -0.75595,-0.755951 -0.0282,-0.05635 0.0282,-0.132644 0,-0.188989 -0.1134,-0.226785 -0.45358,-0.340178 -0.56697,-0.566963 -0.0282,-0.05634 0.0282,-0.132643 0,-0.188989 -0.0797,-0.159369 -0.29829,-0.218607 -0.37797,-0.377976 -0.0282,-0.05635 0.0282,-0.132643 0,-0.188989 -0.0399,-0.07969 -0.14915,-0.109302 -0.18899,-0.188987 -0.0282,-0.05635 0.0282,-0.132643 0,-0.188989 -0.0797,-0.159369 -0.29829,-0.218607 -0.37798,-0.377976 -0.0282,-0.05635 0.0282,-0.132643 0,-0.188986 -0.0398,-0.07969 -0.14914,-0.109305 -0.18899,-0.188989 -0.0282,-0.05635 0.0282,-0.132644 0,-0.18899 -0.0398,-0.07968 -0.14914,-0.109302 -0.18898,-0.188986 -0.0282,-0.05635 0.0282,-0.132644 0,-0.188989 -0.6268,-0.626793 0.0891,0.178181 -0.18899,-0.377976 -0.0398,-0.07969 -0.16082,-0.104471 -0.18899,-0.188987 0,-0.86033 0.0891,-0.01082 -0.18899,-0.566965 -0.10059,-0.201189 0.10059,-0.176789 0,-0.377976 -0.0398,-0.07968 -0.14915,-0.109304 -0.18899,-0.188989 -0.0282,-0.05635 0.0282,-0.132644 0,-0.188987 -0.0398,-0.07968 -0.14914,-0.109304 -0.18899,-0.188989 -0.0626,-0.125248 0.0528,-0.597556 0,-0.755951 -0.0445,-0.133636 -0.14444,-0.244343 -0.18898,-0.377976 -0.0199,-0.05976 0,-0.125995 0,-0.188989 0,-0.105484 0.0288,-0.858428 0,-0.944941 -0.0282,-0.08452 -0.14915,-0.109305 -0.18899,-0.188987 -0.0282,-0.05635 0,-0.125994 0,-0.188989 0,-0.13511 0.0323,-1.037188 0,-1.133927 -0.0282,-0.08452 -0.14915,-0.109305 -0.18899,-0.18899 -0.027,-0.05409 0,-0.843981 0,-0.944941 0,-0.314981 0,-0.629959 0,-0.94494 0,-0.124185 -0.0355,-0.460338 0,-0.566963 0.063,-0.125994 0.12599,-0.251986 0.18899,-0.377978 0,-0.063 -0.0199,-0.129223 0,-0.188987 0.0445,-0.133636 0.15482,-0.241318 0.18899,-0.377976 0.0306,-0.122232 -0.0399,-0.25845 0,-0.377975 0.0282,-0.08452 0.12599,-0.125995 0.18898,-0.18899 0.063,-0.125992 0.15483,-0.241318 0.18899,-0.377975 0.0306,-0.12223 -0.0398,-0.258451 0,-0.377976 0.0282,-0.08452 0.13957,-0.114861 0.18899,-0.188989 0.15627,-0.234411 0.2217,-0.521542 0.37798,-0.755952 0.0494,-0.07413 0.13957,-0.114861 0.18899,-0.188989 0.2326,-0.348901 0.33436,-0.785027 0.56696,-1.133928 0.0494,-0.07413 0.16081,-0.10447 0.18899,-0.188989 0.0398,-0.119526 -0.0699,-0.273143 0,-0.377976 0.0781,-0.117205 0.27837,-0.08938 0.37797,-0.188986 0.0996,-0.09961 0.12599,-0.251987 0.18899,-0.377979 0.68514,-1.370272 -0.19921,0.298818 0.37798,-0.566962 0.0781,-0.117205 0.10447,-0.265287 0.18899,-0.377976 0.1069,-0.142544 0.27107,-0.235434 0.37797,-0.377978 0.0845,-0.112689 0.11085,-0.260771 0.18899,-0.377976 0.0494,-0.07413 0.12599,-0.125992 0.18899,-0.188987 0.12599,-0.125992 0.25198,-0.251984 0.37797,-0.377976 0.18899,-0.188989 0.37798,-0.377978 0.56697,-0.566965 0.12599,-0.125992 0.23543,-0.271068 0.37798,-0.377976 0.11269,-0.08452 0.26077,-0.110852 0.37797,-0.188989 0.22238,-0.148254 0.35315,-0.406601 0.56697,-0.566965 0.22538,-0.169034 0.52154,-0.221702 0.75595,-0.377976 0.43246,-0.288308 -0.11818,-0.149595 0.56696,-0.377975 0.0598,-0.01992 0.12923,0.01992 0.18899,0 0.13364,-0.04455 0.24434,-0.144444 0.37798,-0.188987 0.0598,-0.01992 0.13264,0.02817 0.18898,0 0.0797,-0.03984 0.10448,-0.160816 0.18899,-0.188989 0.17929,-0.05976 0.38768,0.05976 0.56697,0 0.13363,-0.04455 0.24434,-0.144444 0.37797,-0.188989 0.11862,-0.03954 0.60381,0 0.75596,0 0.063,0 0.12599,0 0.18898,0 0.063,0 0.13265,-0.02817 0.18899,0 0.0797,0.03984 0.12599,0.125992 0.18899,0.188989 0.063,0.06299 0.14915,0.109304 0.18899,0.188989 0.0282,0.05634 -0.0282,0.132641 0,0.188987 0.0398,0.07968 0.14914,0.109304 0.18899,0.188989 0.0252,0.05036 0,1.04843 0,1.133927 0,0.440973 0,0.881944 0,1.322917 0,0.125992 0,0.251984 0,0.377976 0,0.125992 0.0306,0.255746 0,0.377976 -0.0342,0.136659 -0.15483,0.241318 -0.18899,0.377978 -0.0372,0.148659 0,0.937395 0,1.133927 0,1.25992 0,2.519842 0,3.779761 0,0.440973 0,0.881946 0,1.322917 0,0.125992 0.0306,0.255746 0,0.377978 -0.0342,0.136658 -0.15483,0.241319 -0.18899,0.377976 -0.0306,0.12223 0,0.251984 0,0.377976 0,0.188986 0,0.377976 0,0.566965 0,0.503968 0,1.007935 0,1.511903 0,0.188989 0,0.377976 0,0.566965 0,0.125992 0.0306,0.255746 0,0.377976 -0.0342,0.136657 -0.15483,0.241318 -0.18899,0.377976 -0.0306,0.122229 0,0.251984 0,0.377976 0,0.440973 0,0.881946 0,1.322916 0,1.259922 0,2.519842 0,3.779764 0,0.377975 0,0.755951 0,1.133927 0,0.125992 0.0398,0.25845 0,0.377976 -0.0282,0.08452 -0.16081,0.104471 -0.18899,0.188989 -0.0598,0.17929 0,0.377976 0,0.566965 0,0.377976 0,0.755952 0,1.133927 0,0.503968 0,1.007936 0,1.511906 0,0.105484 -0.0288,0.858428 0,0.944939 0.0282,0.08452 0.14915,0.109304 0.18899,0.188989 0.0282,0.05634 0,0.125992 0,0.188989 0,0.125992 0,0.251984 0,0.377976 0,0.314978 0,0.62996 0,0.944941 0,0.06299 0,0.125992 0,0.188986 0,0.063 0.0446,0.144444 0,0.188989 -0.0445,0.04455 -0.14444,-0.04454 -0.18899,0 -0.0517,0.05171 0.0513,0.653429 0,0.755952 -0.0398,0.07968 -0.14914,0.109305 -0.18898,0.188989 -0.0563,0.112689 0.0563,0.265285 0,0.377976 -0.0399,0.07968 -0.14915,0.109302 -0.18899,0.188987 -0.0282,0.05635 0.0445,0.144444 0,0.188989 -0.0445,0.04454 -0.14444,-0.04454 -0.18899,0 -0.0445,0.04454 0.0445,0.144444 0,0.188987 -0.0445,0.04454 -0.1305,-0.02339 -0.18899,0 -0.26158,0.104632 -0.50397,0.251986 -0.75595,0.377978 z"
       id="path1421"
       inkscape:connector-curvature="0" />
  </g>
</svg>
