<?xml version="1.0" encoding="UTF-8" standalone="no"?>
<!-- Created with Inkscape (http://www.inkscape.org/) -->

<svg
   xmlns:dc="http://purl.org/dc/elements/1.1/"
   xmlns:cc="http://creativecommons.org/ns#"
   xmlns:rdf="http://www.w3.org/1999/02/22-rdf-syntax-ns#"
   xmlns:svg="http://www.w3.org/2000/svg"
   xmlns="http://www.w3.org/2000/svg"
   xmlns:sodipodi="http://sodipodi.sourceforge.net/DTD/sodipodi-0.dtd"
   xmlns:inkscape="http://www.inkscape.org/namespaces/inkscape"
   width="169.33333mm"
   height="127mm"
   viewBox="0 0 169.33333 127"
   version="1.1"
   id="svg1506"
   sodipodi:docname="4_5_tubulo_contorcido_proximal.svg"
   inkscape:version="0.92.4 (5da689c313, 2019-01-14)">
  <defs
     id="defs1500" />
  <sodipodi:namedview
     id="base"
     pagecolor="#ffffff"
     bordercolor="#666666"
     borderopacity="1.0"
     inkscape:pageopacity="0.0"
     inkscape:pageshadow="2"
     inkscape:zoom="0.98994949"
     inkscape:cx="168.50396"
     inkscape:cy="258.40817"
     inkscape:document-units="mm"
     inkscape:current-layer="layer14"
     showgrid="false"
     fit-margin-top="0"
     fit-margin-left="0"
     fit-margin-right="0"
     fit-margin-bottom="0"
     inkscape:window-width="1920"
     inkscape:window-height="1001"
     inkscape:window-x="-9"
     inkscape:window-y="-9"
     inkscape:window-maximized="1" />
  <metadata
     id="metadata1503">
    <rdf:RDF>
      <cc:Work
         rdf:about="">
        <dc:format>image/svg+xml</dc:format>
        <dc:type
           rdf:resource="http://purl.org/dc/dcmitype/StillImage" />
        <dc:title></dc:title>
      </cc:Work>
    </rdf:RDF>
  </metadata>
  <g
     inkscape:groupmode="layer"
     id="layer14"
     inkscape:label="tubulo_contorcido_proximal">
    <path
       style="fill:none;stroke:#000000;stroke-width:0.26458332px;stroke-linecap:butt;stroke-linejoin:miter;stroke-opacity:1"
       d="m 162.90774,77.485117 c -1.06388,1.125173 -2.27662,-0.140644 -3.40179,0 -0.38023,0.04753 -0.75459,0.134798 -1.13393,0.18899 -0.16536,0.02363 -0.42522,-0.04725 -0.56696,0 -0.0845,0.02817 -0.10447,0.160813 -0.18899,0.188986 -0.20082,0.06694 -0.55513,-0.06694 -0.75595,0 -0.13364,0.04454 -0.24434,0.144444 -0.37798,0.188989 -0.11953,0.03984 -0.26528,-0.05634 -0.37798,0 -0.0797,0.03984 -0.10447,0.160817 -0.18898,0.18899 -0.11953,0.03984 -0.25845,-0.03984 -0.37798,0 -0.0845,0.02817 -0.1093,0.149145 -0.18899,0.188986 -0.11269,0.05635 -0.25845,-0.03984 -0.37797,0 -0.13364,0.04454 -0.24435,0.144444 -0.37798,0.188989 -0.0598,0.01992 -0.12599,0 -0.18899,0 -0.15822,0 -1.19989,-0.04101 -1.32291,0 -0.13364,0.04455 -0.24435,0.144442 -0.37798,0.188987 -0.20082,0.06694 -0.55513,-0.06694 -0.75595,0 -0.0845,0.02817 -0.10931,0.149146 -0.18899,0.188989 -0.0489,0.02442 -0.99998,0 -1.13393,0 -0.88194,0 -1.76389,0 -2.64583,0 -0.13396,0 -1.08507,-0.02442 -1.13393,0 -0.0797,0.03984 -0.10447,0.160814 -0.18899,0.188987 -0.14775,0.04925 -1.02993,-0.052 -1.13393,0 -0.0797,0.03984 -0.1093,0.149148 -0.18899,0.188989 -0.11269,0.05635 -0.26528,-0.05635 -0.37797,0 -0.0797,0.03984 -0.10931,0.149146 -0.18899,0.188989 -0.11878,0.05939 -0.63717,-0.05939 -0.75595,0 -0.0797,0.03984 -0.10931,0.149146 -0.18899,0.188987 -0.11269,0.05634 -0.26529,-0.05635 -0.37798,0 -0.62679,0.626795 0.17818,-0.08909 -0.37797,0.188989 -0.0797,0.03984 -0.10931,0.149146 -0.18899,0.188987 -0.11269,0.05635 -0.26529,-0.05635 -0.37798,0 -0.62679,0.626795 0.17818,-0.08909 -0.37797,0.188989 -0.0797,0.03984 -0.10447,0.160814 -0.18899,0.188986 -0.11953,0.03984 -0.25845,-0.03984 -0.37798,0 -0.16904,0.05635 -0.20894,0.321633 -0.37797,0.377979 -0.11953,0.03984 -0.25845,-0.03984 -0.37798,0 -0.12797,0.04266 -0.4226,0.494781 -0.56697,0.566962 -0.0563,0.02817 -0.13264,-0.02817 -0.18898,0 -0.0797,0.03984 -0.126,0.125992 -0.18899,0.188989 -0.063,0.063 -0.12599,0.125992 -0.18899,0.188987 -0.14762,0.147616 -0.45825,0.403887 -0.56696,0.566965 -0.41637,0.09517 -0.0999,0.388784 -0.18899,0.566965 -0.20893,0.417862 -0.1173,0.05865 -0.37798,0.188987 -0.0797,0.03984 -0.12599,0.125992 -0.18899,0.188989 -0.063,0.063 -0.14914,0.109305 -0.18898,0.188989 -0.0282,0.05634 0.0282,0.132641 0,0.188987 -0.0797,0.159369 -0.29829,0.218606 -0.37798,0.377976 -0.0282,0.05635 0.0282,0.132643 0,0.188989 -0.0398,0.07968 -0.16082,0.104471 -0.18899,0.188986 -0.0398,0.119529 0.0399,0.258451 0,0.377979 -0.0282,0.08452 -0.14914,0.109302 -0.18899,0.188986 -0.0282,0.05635 0.0282,0.132644 0,0.18899 -0.0398,0.07968 -0.16081,0.104468 -0.18898,0.188986 -0.0399,0.119528 0.0398,0.258451 0,0.377976 -0.0282,0.08452 -0.14915,0.109305 -0.18899,0.188989 -0.0282,0.05635 0.0199,0.129225 0,0.188989 -0.0445,0.133634 -0.14444,0.244341 -0.18899,0.377976 -0.0567,0.170088 0.0567,0.396875 0,0.566963 -0.0282,0.08452 -0.14915,0.109304 -0.18899,0.188989 -0.0282,0.05635 0,0.125992 0,0.188989 0,0.125992 0.0398,0.258448 0,0.377976 -0.0282,0.08452 -0.14914,0.109302 -0.18899,0.188987 -0.0287,0.05746 0,0.625453 0,0.755954 0,0.162213 -0.0368,1.023355 0,1.133927 0.0282,0.08452 0.16082,0.104471 0.18899,0.188989 0.0945,0.28348 -0.0945,0.661459 0,0.944939 0.0282,0.08452 0.14915,0.109304 0.18899,0.188989 0.0564,0.112691 -0.0398,0.25845 0,0.377976 0.0445,0.133635 0.14444,0.244342 0.18899,0.377975 0.0598,0.17929 -0.0598,0.387676 0,0.566965 0.0282,0.08452 0.14914,0.109305 0.18899,0.18899 0.0282,0.05634 0,0.125992 0,0.188986 0.063,0.125992 0.11085,0.260771 0.18898,0.377976 0.0494,0.07413 0.14915,0.109305 0.18899,0.188989 0.0282,0.05635 -0.0282,0.132644 0,0.188987 0.0399,0.07968 0.16082,0.104471 0.18899,0.188989 0.0398,0.119526 -0.0398,0.25845 0,0.377976 0.0563,0.169037 0.29829,0.218607 0.37798,0.377976 0.0282,0.05634 -0.0282,0.132643 0,0.188989 0.0398,0.07968 0.16081,0.104471 0.18898,0.188987 0.0399,0.119528 -0.0398,0.25845 0,0.377978 0.0564,0.169034 0.2983,0.218607 0.37798,0.377976 0.0282,0.05635 -0.0282,0.132641 0,0.188986 0.0797,0.15937 0.29829,0.21861 0.37798,0.377976 0.0282,0.05635 -0.0282,0.132644 0,0.188989 0.43246,0.864926 -0.0783,-0.801954 0.37797,0.566965 0.0199,0.05976 -0.0282,0.132641 0,0.188987 0.39326,0.786524 -0.013,-0.202033 0.37798,0.188989 0.0445,0.04455 -0.0282,0.132644 0,0.188987 0.0398,0.07968 0.14914,0.109305 0.18899,0.188989 0.0282,0.05635 -0.0282,0.132644 0,0.188989 0.15164,0.303282 0.22633,0.07469 0.37797,0.377976 0.0282,0.05635 -0.0282,0.132641 0,0.188987 0.0438,0.08752 0.6448,0.6448 0.75596,0.755954 0.063,0.063 0.14914,0.109302 0.18898,0.188987 0.0282,0.05634 -0.0282,0.132643 0,0.188989 0.15052,0.301036 0.22746,0.07694 0.37798,0.377976 0.13034,0.26068 -0.22887,0.16904 0.18899,0.37798 0.0563,0.0282 0.13264,-0.0282 0.18899,0 0.41786,0.20893 0.0586,0.11729 0.18898,0.37797 0.20894,0.41787 0.1173,0.0587 0.37798,0.18899 0.22679,0.11339 0.34018,0.45357 0.56696,0.56696 0.0564,0.0282 0.13265,-0.0282 0.18899,0 0.6268,0.6268 -0.17818,-0.0891 0.37798,0.18899 0.0797,0.0398 0.1093,0.14915 0.18899,0.18899 0.0563,0.0282 0.13264,-0.0282 0.18898,0 0.0797,0.0398 0.10931,0.14915 0.18899,0.18899 0.11269,0.0563 0.26529,-0.0563 0.37798,0 0.0797,0.0398 0.1093,0.14914 0.18899,0.18899 0.0563,0.0282 0.13264,-0.0282 0.18899,0 0.0797,0.0398 0.1093,0.14914 0.18898,0.18898 0.11269,0.0563 0.26529,-0.0563 0.37798,0 0.0797,0.0399 0.1093,0.14915 0.18899,0.18899 0.11269,0.0563 0.26528,-0.0563 0.37797,0 0.0797,0.0398 0.10931,0.14915 0.18899,0.18899 0.0564,0.0282 0.13265,-0.0282 0.18899,0 0.0797,0.0398 0.1093,0.14915 0.18899,0.18899 0.0563,0.0282 0.13264,-0.0282 0.18899,0 0.0797,0.0398 0.1093,0.14914 0.18898,0.18899 0.0749,0.0375 0.52833,-0.0386 0.56697,0 0.0445,0.0445 -0.0446,0.14444 0,0.18898 0.0945,0.0945 0.47247,-0.0945 0.56696,0 0.0446,0.0446 -0.0445,0.14445 0,0.18899 0.0891,0.0891 0.26529,-0.0563 0.37798,0 0.0797,0.0398 0.1093,0.14915 0.18899,0.18899 0.15119,0.0756 0.41577,-0.0756 0.56696,0 0.0797,0.0398 0.10931,0.14915 0.18899,0.18899 0.0749,0.0375 0.52833,-0.0386 0.56696,0 0.0445,0.0445 -0.0445,0.14444 0,0.18899 0.0663,0.0663 0.8144,-0.0653 0.94494,0 0.0797,0.0398 0.10931,0.14914 0.18899,0.18899 0.0575,0.0288 0.48185,0 0.56697,0 0.44097,0 0.88194,0 1.32291,0 0.1305,0 0.6985,0.0287 0.75596,0 0.0797,-0.0399 0.1093,-0.14915 0.18898,-0.18899 0.0564,-0.0282 0.12599,0 0.18899,0 0.14596,0 1.01863,0.0384 1.13393,0 0.13364,-0.0446 0.24434,-0.14445 0.37798,-0.18899 0.0598,-0.0199 0.13264,0.0282 0.18898,0 0.0797,-0.0398 0.10448,-0.16082 0.18899,-0.18899 0.11953,-0.0398 0.25199,0 0.37798,0 0.063,0 0.13264,0.0282 0.18899,0 0.0797,-0.0398 0.12599,-0.12599 0.18899,-0.18899 0.12599,0 0.25845,0.0398 0.37797,0 0.16904,-0.0563 0.20894,-0.32163 0.37798,-0.37797 0.11953,-0.0399 0.25845,0.0398 0.37797,0 0.0845,-0.0282 0.10931,-0.14915 0.18899,-0.18899 0.0564,-0.0282 0.12923,0.0199 0.18899,0 0.13363,-0.0446 0.24434,-0.14445 0.37798,-0.18899 0.0598,-0.0199 0.13264,0.0282 0.18898,0 0.0797,-0.0398 0.10931,-0.14915 0.18899,-0.18899 0.0564,-0.0282 0.13264,0.0282 0.18899,0 0.0797,-0.0398 0.1093,-0.14914 0.18899,-0.18899 0.11269,-0.0563 0.28888,0.0891 0.37797,0 0.0445,-0.0445 -0.0445,-0.14444 0,-0.18898 0.0891,-0.0891 0.26529,0.0563 0.37798,0 0.6268,-0.6268 -0.17818,0.0891 0.37798,-0.18899 0.0797,-0.0398 0.1093,-0.14915 0.18899,-0.18899 0.0563,-0.0282 0.14444,0.0445 0.18898,0 0.0445,-0.0445 -0.0445,-0.14444 0,-0.18899 0.0445,-0.0445 0.12923,0.0199 0.18899,0 0.13364,-0.0445 0.26077,-0.11085 0.37798,-0.18899 0.12416,-0.0828 0.46467,-0.53287 0.56696,-0.56696 0.11953,-0.0398 0.25845,0.0398 0.37798,0 0.16903,-0.0564 0.20894,-0.32163 0.37797,-0.37798 0.11953,-0.0398 0.25845,0.0399 0.37798,0 0.16904,-0.0563 0.22972,-0.27914 0.37798,-0.37797 0.12599,-0.063 0.25198,-0.126 0.37797,-0.18899 0.063,0 0.13264,0.0282 0.18899,0 0.15937,-0.0797 0.22972,-0.279141 0.37798,-0.377976 0.1172,-0.07814 0.26077,-0.110853 0.37797,-0.188989 0.0741,-0.04942 0.10931,-0.149146 0.18899,-0.188987 0.0564,-0.02817 0.12923,0.01992 0.18899,0 0.26727,-0.08909 0.48868,-0.288888 0.75595,-0.377978 0.0598,-0.01992 0.13265,0.02817 0.18899,0 0.86492,-0.432462 -0.80196,0.07833 0.56696,-0.377976 0.56259,-0.187529 -0.38776,0.4475 0.56697,-0.188987 0.0741,-0.04942 0.1093,-0.149145 0.18899,-0.188989 0.0563,-0.02817 0.13264,0.02817 0.18898,0 0.0797,-0.03984 0.11487,-0.13957 0.18899,-0.188987 0.11721,-0.07814 0.26077,-0.110852 0.37798,-0.188989 0.0741,-0.04942 0.1093,-0.149146 0.18899,-0.188989 0.0563,-0.02817 0.13264,0.02817 0.18899,0 0.15936,-0.07969 0.22972,-0.279138 0.37797,-0.377976 0.12599,-0.063 0.25199,-0.125992 0.37798,-0.188987 0.063,0 0.13264,0.02817 0.18899,0 0.0875,-0.04376 0.6448,-0.6448 0.75595,-0.755954 0.11115,-0.111151 0.71219,-0.668435 0.75595,-0.755951 0.0282,-0.05635 -0.0282,-0.132644 0,-0.188987 0.0398,-0.07968 0.13957,-0.114861 0.18899,-0.188989 0.0781,-0.117205 0.11085,-0.260771 0.18899,-0.377976 0.0494,-0.07413 0.14914,-0.109305 0.18898,-0.188989 0.0282,-0.05635 -0.0282,-0.132641 0,-0.188987 0.0399,-0.07968 0.14915,-0.109304 0.18899,-0.188989 0.0282,-0.05635 0,-0.125992 0,-0.188987 0.063,-0.063 0.14915,-0.109304 0.18899,-0.188989 0.0282,-0.05635 -0.0199,-0.129225 0,-0.188989 0.0446,-0.133633 0.14444,-0.24434 0.18899,-0.377976 0.0199,-0.05976 -0.0282,-0.132641 0,-0.188986 0.0398,-0.07968 0.16081,-0.104471 0.18899,-0.18899 0.0782,-0.234712 -0.0621,-0.696454 0,-0.944941 0.0342,-0.136657 0.14444,-0.24434 0.18899,-0.377975 0.0598,-0.17929 -0.0458,-0.38362 0,-0.566965 0.0342,-0.136658 0.15482,-0.241319 0.18898,-0.377976 0.0372,-0.148662 0,-0.937395 0,-1.133928 0,-0.755951 0,-1.511905 0,-2.267857 0,-0.503968 0,-1.007936 0,-1.511906 0,-0.125992 0,-0.251984 0,-0.377976 0,-0.125992 0.0399,-0.258447 0,-0.377976 -0.0282,-0.08452 -0.16081,-0.10447 -0.18898,-0.188986 -0.0797,-0.239054 0.0797,-0.516901 0,-0.755954 -0.0282,-0.08452 -0.16082,-0.104469 -0.18899,-0.188987 -0.0398,-0.119528 0.0398,-0.25845 0,-0.377976 -0.0282,-0.08452 -0.16082,-0.104471 -0.18899,-0.188989 -0.0598,-0.17929 0.0598,-0.387675 0,-0.566965 -0.0446,-0.133633 -0.14444,-0.24434 -0.18899,-0.377976 -0.0199,-0.05976 0.0199,-0.129225 0,-0.188986 -0.0445,-0.133636 -0.14444,-0.244343 -0.18899,-0.377979 -0.0398,-0.119525 0.0564,-0.265284 0,-0.377976 -0.0398,-0.07968 -0.14914,-0.109302 -0.18899,-0.188986 -0.0282,-0.05635 0.0282,-0.132644 0,-0.18899 -0.0398,-0.07968 -0.14914,-0.109304 -0.18898,-0.188986 -0.0282,-0.05635 0.0282,-0.132644 0,-0.188989 -0.0797,-0.159369 -0.2983,-0.218607 -0.37798,-0.377976 -0.0282,-0.05635 0.0282,-0.132644 0,-0.188989 -0.62679,-0.626793 0.0891,0.178181 -0.18899,-0.377976 -0.0398,-0.07969 -0.14914,-0.109305 -0.18899,-0.188987 -0.0282,-0.05634 0.0445,-0.144444 0,-0.188989 -0.0445,-0.04454 -0.14444,0.04454 -0.18898,0 -0.0445,-0.04454 0.0282,-0.132644 0,-0.188989 -0.0399,-0.07968 -0.14915,-0.109302 -0.18899,-0.188987 -0.0282,-0.05634 0.0445,-0.144444 0,-0.188989 -0.0445,-0.04454 -0.14445,0.04454 -0.18899,0 -0.0445,-0.04454 0.0445,-0.144441 0,-0.188987 -0.0445,-0.04454 -0.13264,0.02817 -0.18899,0 -0.22678,-0.113392 -0.34018,-0.453572 -0.56696,-0.566965 -0.0564,-0.02817 -0.13264,0.02817 -0.18899,0 -0.0802,-0.04008 -0.29782,-0.337896 -0.37798,-0.377975 -0.0563,-0.02817 -0.13264,0.02817 -0.18898,0 -0.0797,-0.03984 -0.10931,-0.149146 -0.18899,-0.18899 -0.11269,-0.05635 -0.26529,0.05635 -0.37798,0 -0.0797,-0.03984 -0.1093,-0.149145 -0.18899,-0.188986 -0.11269,-0.05635 -0.26528,0.05634 -0.37797,0 -0.0797,-0.03984 -0.10931,-0.149146 -0.18899,-0.188989 -0.11879,-0.05939 -0.63717,0.05939 -0.75595,0 -0.0797,-0.03984 -0.10931,-0.149146 -0.18899,-0.188987 -0.0497,-0.02484 -0.65713,0 -0.75595,0 -0.56697,0 -1.13393,0 -1.7009,0 -0.0458,0 -0.56088,-0.0061 -0.56696,0 -0.0446,0.04454 0,0.125992 0,0.188987 -0.25199,0.125991 -0.50397,0.251983 -0.75595,0.377975 z"
       id="path2082"
       inkscape:connector-curvature="0" />
    <path
       style="fill:none;stroke:#000000;stroke-width:0.26458332px;stroke-linecap:butt;stroke-linejoin:miter;stroke-opacity:1"
       d="m 133.23661,119.81845 c 0.64276,-3.13444 2.15495,-0.45371 3.21279,-0.75595 0.0351,-0.01 1.07363,-0.40077 1.32292,-0.56697 0.0741,-0.0494 0.10447,-0.16081 0.18899,-0.18898 0.11953,-0.0399 0.25845,0.0398 0.37797,0 0.0845,-0.0282 0.11486,-0.13957 0.18899,-0.18899 0.11721,-0.0781 0.26077,-0.11085 0.37798,-0.18899 0.14825,-0.0988 0.20894,-0.32163 0.37797,-0.37798 0.11953,-0.0398 0.25845,0.0399 0.37798,0 0.0845,-0.0282 0.11486,-0.13957 0.18899,-0.18898 0.1172,-0.0781 0.26077,-0.11086 0.37797,-0.18899 0.0741,-0.0494 0.11487,-0.13957 0.18899,-0.18899 0.11721,-0.0781 0.26077,-0.11085 0.37798,-0.18899 0.43246,-0.28831 -0.11817,-0.1496 0.56696,-0.37797 0.0598,-0.0199 0.13265,0.0282 0.18899,0 0.0797,-0.0399 0.11486,-0.13958 0.18899,-0.18899 0.11721,-0.0781 0.26077,-0.11085 0.37798,-0.18899 0.14825,-0.0988 0.22972,-0.27914 0.37797,-0.37798 0.11721,-0.0781 0.26077,-0.11085 0.37798,-0.18899 0.0741,-0.0494 0.1093,-0.14914 0.18899,-0.18898 0.0563,-0.0282 0.13264,0.0282 0.18898,0 0.16751,-0.0838 0.39493,-0.45228 0.56697,-0.56697 0.12599,-0.063 0.25198,-0.12599 0.37797,-0.18899 0.063,0 0.13265,0.0282 0.18899,0 0.0875,-0.0438 0.6448,-0.6448 0.75596,-0.75595 0.1485,-0.1485 0.88475,-0.82456 0.94494,-0.94494 0.0282,-0.0563 -0.0445,-0.14444 0,-0.18899 0.0445,-0.0445 0.14444,0.0446 0.18898,0 0.0445,-0.0445 -0.0282,-0.13264 0,-0.18898 0.0399,-0.0797 0.14915,-0.10931 0.18899,-0.18899 0.0282,-0.0564 -0.0282,-0.13264 0,-0.18899 0.0398,-0.0797 0.14915,-0.10931 0.18899,-0.18899 0.0282,-0.0563 -0.0282,-0.13264 0,-0.18899 0.39326,-0.78652 -0.0131,0.20204 0.37798,-0.18899 0.0445,-0.0445 -0.0282,-0.13264 0,-0.18898 0.0398,-0.0797 0.14914,-0.10931 0.18898,-0.18899 0.0282,-0.0563 -0.0282,-0.13264 0,-0.18899 0.0399,-0.0797 0.14915,-0.1093 0.18899,-0.18899 0.0564,-0.11269 -0.0563,-0.26528 0,-0.37797 0.0398,-0.0797 0.16082,-0.10447 0.18899,-0.18899 0.0288,-0.0864 -0.0421,-0.67186 0,-0.75595 0.0398,-0.0797 0.14915,-0.10931 0.18899,-0.18899 0.008,-0.0156 0.008,-0.54265 0,-0.56697 -0.0446,-0.13363 -0.14444,-0.24434 -0.18899,-0.37797 -0.0355,-0.10663 0,-0.44278 0,-0.56697 0,-0.31498 0,-0.62996 0,-0.94494 0,-0.063 0,-0.12599 0,-0.18899 0,-0.063 0.0282,-0.13264 0,-0.18898 -0.0398,-0.0797 -0.14915,-0.10931 -0.18899,-0.18899 -0.0563,-0.11269 0.0564,-0.26529 0,-0.37798 -0.0398,-0.0797 -0.16081,-0.10447 -0.18899,-0.18899 -0.0398,-0.11952 0,-0.25198 0,-0.37797 0,-0.063 0.0282,-0.13264 0,-0.18899 -0.0398,-0.0797 -0.16081,-0.10447 -0.18898,-0.18899 -0.0399,-0.11952 0.0398,-0.25845 0,-0.37797 -0.0282,-0.0845 -0.14915,-0.10931 -0.18899,-0.18899 -0.0282,-0.0564 0.0282,-0.13264 0,-0.18899 -0.15052,-0.30104 -0.22746,-0.0769 -0.37798,-0.37798 -0.0282,-0.0563 0.0282,-0.13264 0,-0.18899 -0.11339,-0.22678 -0.45357,-0.34017 -0.56696,-0.56696 -0.0282,-0.0563 0.0282,-0.13264 0,-0.18899 -0.20893,-0.41786 -0.1173,-0.0586 -0.37798,-0.18899 -0.0797,-0.0398 -0.1093,-0.14914 -0.18899,-0.18898 -0.0563,-0.0282 -0.13264,0.0282 -0.18898,0 -0.15937,-0.0797 -0.21861,-0.2983 -0.37798,-0.37798 -0.0564,-0.0282 -0.13264,0.0282 -0.18899,0 -0.0797,-0.0398 -0.1093,-0.14915 -0.18899,-0.18899 -0.11269,-0.0563 -0.26528,0.0563 -0.37797,0 -0.15937,-0.0797 -0.20894,-0.32163 -0.37798,-0.37797 -0.11953,-0.0399 -0.25198,0 -0.37798,0 -0.063,0 -0.13264,0.0282 -0.18898,0 -0.0797,-0.0399 -0.10931,-0.14915 -0.18899,-0.18899 -0.11923,-0.0596 -0.82572,0.0596 -0.94494,0 -0.0797,-0.0398 -0.1093,-0.14915 -0.18899,-0.18899 -0.11878,-0.0594 -0.63717,0.0594 -0.75595,0 -0.0797,-0.0398 -0.10931,-0.14915 -0.18899,-0.18899 -0.11269,-0.0563 -0.28889,0.0891 -0.37798,0 -0.0445,-0.0445 0.0446,-0.14444 0,-0.18899 -0.12605,-0.12605 -0.25192,0.12606 -0.37797,0 -0.0445,-0.0445 0.0445,-0.14444 0,-0.18898 -0.0445,-0.0446 -0.14445,0.0445 -0.18899,0 -0.0446,-0.0446 0.0445,-0.14445 0,-0.18899 -0.0446,-0.0446 -0.13264,0.0282 -0.18899,0 -0.0797,-0.0398 -0.12599,-0.126 -0.18899,-0.18899 -0.063,-0.063 -0.14914,-0.10931 -0.18899,-0.18899 -0.0282,-0.05634 0.0282,-0.132641 0,-0.188986 -0.0602,-0.12038 -0.79643,-0.796441 -0.94494,-0.944941 -0.063,-0.063 -0.14914,-0.109305 -0.18898,-0.188989 -0.0282,-0.05635 0.0445,-0.144442 0,-0.188987 -0.0445,-0.04454 -0.14445,0.04454 -0.18899,0 -0.0445,-0.04454 0.0282,-0.132643 0,-0.188989 -0.0398,-0.07968 -0.12599,-0.125992 -0.18899,-0.188987 -0.11115,-0.111154 -0.71219,-0.668438 -0.75595,-0.755954 -0.0282,-0.05635 0.0445,-0.144441 0,-0.188987 -0.0445,-0.04454 -0.14444,0.04455 -0.18899,0 -0.0446,-0.04454 0.0282,-0.132643 0,-0.188989 -0.0398,-0.07968 -0.14915,-0.109304 -0.18899,-0.188986 -0.0282,-0.05635 0.0282,-0.132644 0,-0.18899 -0.11339,-0.226785 -0.45357,-0.340177 -0.56696,-0.566965 -0.0282,-0.05634 0.0282,-0.13264 0,-0.188986 -0.0399,-0.07968 -0.14915,-0.109305 -0.18899,-0.188989 -0.0282,-0.05635 0.0282,-0.132644 0,-0.188987 -0.0398,-0.07968 -0.14915,-0.109305 -0.18899,-0.188989 -0.0282,-0.05635 0,-0.125992 0,-0.188989 -0.063,-0.063 -0.14915,-0.109302 -0.18899,-0.188987 -0.0282,-0.05635 0.0282,-0.132644 0,-0.188989 -0.0398,-0.07969 -0.14914,-0.109302 -0.18899,-0.188987 -0.0282,-0.05634 0.0282,-0.132643 0,-0.188989 -0.0398,-0.07968 -0.14914,-0.109305 -0.18898,-0.188987 -0.0282,-0.05635 0.0445,-0.144444 0,-0.188989 -0.0445,-0.04454 -0.14445,0.04454 -0.18899,0 -0.0445,-0.04454 0.0445,-0.144444 0,-0.188989 -0.0445,-0.04454 -0.14445,0.04454 -0.18899,0 -0.0891,-0.08909 0.0891,-0.288885 0,-0.377976 -0.0445,-0.04454 -0.14444,0.04454 -0.18899,0 -0.0445,-0.04454 0.0446,-0.144441 0,-0.188986 -0.0445,-0.04455 -0.14444,0.04454 -0.18899,0 -0.0945,-0.0945 0.0945,-0.472472 0,-0.566965 -0.0445,-0.04455 -0.14444,0.04454 -0.18898,0 -0.0445,-0.04455 0,-0.125992 0,-0.18899 0,-0.08911 0.009,-0.936373 0,-0.944938 -0.0445,-0.04454 -0.14445,0.04454 -0.18899,0 -0.0445,-0.04454 0,-0.125992 0,-0.188989 0,-0.133956 -0.0244,-1.085067 0,-1.133928 0.0398,-0.07968 0.14914,-0.109304 0.18899,-0.188989 0.0248,-0.04969 0,-0.657127 0,-0.755951 0,-0.063 0.0445,-0.144444 0,-0.18899 -0.0445,-0.04454 -0.14445,0.04455 -0.18899,0 -0.0945,-0.09449 0.0945,-0.472469 0,-0.566965 -0.0445,-0.04454 -0.14444,0.04455 -0.18899,0 -0.0945,-0.09449 0.0945,-0.472469 0,-0.566962 -0.0445,-0.04454 -0.14444,0.04454 -0.18899,0 -0.0945,-0.0945 0.0945,-0.472472 0,-0.566965 -0.0445,-0.04454 -0.14444,0.04454 -0.18899,0 -0.0891,-0.08909 0.0564,-0.265285 0,-0.377976 -0.0797,-0.159369 -0.29829,-0.218607 -0.37797,-0.377976 -0.0282,-0.05634 0.0282,-0.132643 0,-0.188989 -0.0398,-0.07968 -0.14915,-0.109305 -0.18899,-0.188987 -0.0282,-0.05635 0.0282,-0.132643 0,-0.188989 -0.0181,-0.03618 -0.71978,-0.737864 -0.75595,-0.755951 -0.0563,-0.02817 -0.13265,0.02817 -0.18899,0 -0.15937,-0.07968 -0.21861,-0.298294 -0.37798,-0.377976 -0.0563,-0.02817 -0.14444,0.04454 -0.18899,0 -0.0445,-0.04454 0.0445,-0.144444 0,-0.188989 -0.0445,-0.04455 -0.13264,0.02817 -0.18898,0 -0.0797,-0.03984 -0.10931,-0.149146 -0.18899,-0.18899 -0.0564,-0.02817 -0.14445,0.04455 -0.18899,0 -0.0445,-0.04454 0.0445,-0.144441 0,-0.188986 -0.0891,-0.08909 -0.28889,0.08909 -0.37798,0 -0.0445,-0.04454 0.0445,-0.144444 0,-0.188989 -0.0445,-0.04455 -0.13264,0.02817 -0.18898,0 -0.0797,-0.03984 -0.10931,-0.149146 -0.18899,-0.188987 -0.0841,-0.04205 -0.66951,0.02881 -0.75595,0 -0.0845,-0.02817 -0.10931,-0.149146 -0.18899,-0.188989 -0.0564,-0.02817 -0.126,0 -0.18899,0 -0.12599,0 -0.25198,0 -0.37798,0 -0.16377,0 -0.64647,-0.03649 -0.75595,0 -0.13363,0.04454 -0.24434,0.144444 -0.37798,0.188989 -0.15839,0.0528 -0.6307,-0.06262 -0.75595,0 -0.0797,0.03984 -0.1093,0.149146 -0.18899,0.188987 -0.15119,0.0756 -0.41577,-0.07559 -0.56696,0 -0.0797,0.03984 -0.1093,0.149145 -0.18899,0.188989 -0.0563,0.02817 -0.12599,0 -0.18899,0 -0.12599,0 -0.25845,-0.03984 -0.37797,0 -0.0845,0.02817 -0.10931,0.149145 -0.18899,0.188986 -0.0564,0.02817 -0.12599,0 -0.18899,0 -0.12599,0 -0.25845,-0.03984 -0.37797,0 -0.0845,0.02817 -0.10448,0.160817 -0.18899,0.18899 -0.11953,0.03984 -0.25575,-0.03056 -0.37798,0 -0.13666,0.03416 -0.24434,0.144444 -0.37798,0.188989 -0.0598,0.01992 -0.12922,-0.01992 -0.18898,0 -0.13364,0.04454 -0.24435,0.144441 -0.37798,0.188986 -0.0598,0.01992 -0.12599,0 -0.18899,0 -0.12599,0.063 -0.24434,0.144444 -0.37797,0.18899 -0.0598,0.01992 -0.12923,-0.01992 -0.18899,0 -0.13364,0.04454 -0.26077,0.110849 -0.37798,0.188986 -0.0741,0.04942 -0.10447,0.160817 -0.18899,0.188989 -0.11952,0.03984 -0.25845,-0.03984 -0.37797,0 -0.0845,0.02817 -0.126,0.125992 -0.18899,0.188987 -0.12599,0 -0.25845,-0.03984 -0.37798,0 -0.0845,0.02817 -0.11486,0.13957 -0.18898,0.188989 -0.11721,0.07814 -0.26078,0.11085 -0.37798,0.188989 -0.0741,0.04942 -0.10447,0.160814 -0.18899,0.188987 -0.11953,0.03984 -0.25575,-0.03056 -0.37798,0 -0.5481,0.137028 -0.22116,0.147444 -0.56696,0.377976 -0.11721,0.07814 -0.26077,0.110852 -0.37798,0.188989 -0.0741,0.04942 -0.1093,0.149146 -0.18898,0.188987 -0.0563,0.02817 -0.12923,-0.01992 -0.18899,0 -1.36892,0.456308 0.29796,-0.05449 -0.56697,0.377978 -0.0563,0.02817 -0.13264,-0.02817 -0.18898,0 -0.0797,0.03984 -0.10931,0.149146 -0.18899,0.188987 -0.0563,0.02817 -0.13264,-0.02817 -0.18899,0 -0.22679,0.113392 -0.34018,0.453572 -0.56696,0.566965 -0.0563,0.02817 -0.13265,-0.02817 -0.18899,0 -0.0797,0.03984 -0.10931,0.149145 -0.18899,0.188986 -0.11269,0.05635 -0.28889,-0.08909 -0.37798,0 -0.0445,0.04455 0.0446,0.144444 0,0.18899 -0.0445,0.04454 -0.13264,-0.02817 -0.18899,0 -0.0797,0.03984 -0.1093,0.149145 -0.18898,0.188989 -0.11269,0.05634 -0.26529,-0.05635 -0.37798,0 -0.0797,0.03984 -0.1093,0.149145 -0.18899,0.188986 -0.0563,0.02817 -0.13264,-0.02817 -0.18899,0 -0.0797,0.03984 -0.1093,0.149146 -0.18898,0.18899 -0.11269,0.05634 -0.26529,-0.05635 -0.37798,0 -0.0797,0.03984 -0.1093,0.149145 -0.18899,0.188986 -0.0563,0.02817 -0.14444,-0.04454 -0.18899,0 -0.0445,0.04454 0.0446,0.144444 0,0.188989 -0.0445,0.04455 -0.13264,-0.02817 -0.18898,0 -0.22679,0.113393 -0.34018,0.45357 -0.56697,0.566965 -0.26068,0.130339 -0.16904,-0.228875 -0.37797,0.188987 -0.0282,0.05635 0.0282,0.132644 0,0.188989 -0.39327,0.786522 0.013,-0.202036 -0.37798,0.188987 -0.73757,0.737571 0.0438,0.101497 -0.18899,0.566965 -0.0398,0.07968 -0.14915,0.109305 -0.18899,0.188989 -0.0282,0.05634 0.0282,0.132641 0,0.188987 -0.11339,0.226785 -0.45357,0.34018 -0.56696,0.566965 -0.0282,0.05634 0.0445,0.144444 0,0.188986 -0.0446,0.04455 -0.14445,-0.04454 -0.18899,0 -0.0445,0.04455 0.0199,0.129225 0,0.18899 -0.45631,1.368919 0.0545,-0.297961 -0.37798,0.566965 -0.0563,0.112688 0.0399,0.258447 0,0.377975 -0.063,0.125992 -0.12599,0.251984 -0.18898,0.377976 0,0.063 0.0199,0.129225 0,0.188989 -0.0446,0.133633 -0.15483,0.241319 -0.18899,0.377976 -0.0306,0.12223 0.0306,0.255746 0,0.377976 -0.0342,0.136657 -0.15483,0.241319 -0.18899,0.377976 -0.0428,0.171325 0,0.725397 0,0.944941 0,0.755951 0,1.511903 0,2.267857 0,0.440971 0,0.881944 0,1.322917 0,0.125992 0.0398,0.258446 0,0.377976 -0.0445,0.13363 -0.14444,0.24434 -0.18899,0.37798 -0.0378,0.11338 0,0.79413 0,0.94494 0,0.69295 0,1.38591 0,2.07886 0,0.44098 0,0.88195 0,1.32292 0,0.18899 -0.0598,0.38768 0,0.56697 0.0282,0.0845 0.14915,0.1093 0.18899,0.18898 0.0282,0.0563 0,0.12599 0,0.18899 0,0.12599 -0.0398,0.25845 0,0.37798 0.0282,0.0845 0.14915,0.1093 0.18899,0.18899 0.0563,0.11269 -0.0398,0.25844 0,0.37797 0.0445,0.13364 0.14444,0.24434 0.18899,0.37798 0.0588,0.17629 -0.0582,0.77027 0,0.94494 0.0282,0.0845 0.14914,0.1093 0.18898,0.18899 0.0563,0.11269 -0.0563,0.26528 0,0.37797 0.0399,0.0797 0.14915,0.10931 0.18899,0.18899 0.0756,0.15119 -0.0756,0.41578 0,0.56697 0.0398,0.0797 0.14915,0.1093 0.18899,0.18898 0.0756,0.15119 -0.0756,0.41578 0,0.56697 0.0398,0.0797 0.14915,0.1093 0.18899,0.18899 0.0563,0.11269 -0.0563,0.26528 0,0.37797 0.0398,0.0797 0.14914,0.1093 0.18899,0.18899 0.0282,0.0564 -0.0282,0.13264 0,0.18899 0.0398,0.0797 0.14914,0.1093 0.18898,0.18899 0.0563,0.11269 -0.0563,0.26528 0,0.37797 0.0399,0.0797 0.14915,0.10931 0.18899,0.18899 0.0282,0.0563 -0.0282,0.13264 0,0.18899 0.15164,0.30328 0.22634,0.0747 0.37798,0.37798 0.0282,0.0563 -0.0282,0.13264 0,0.18898 0.0398,0.0797 0.14915,0.10931 0.18899,0.18899 0.0282,0.0563 -0.0282,0.13264 0,0.18899 0.0398,0.0797 0.14914,0.1093 0.18899,0.18899 0.0282,0.0563 -0.0282,0.13264 0,0.18899 0.15164,0.30328 0.22633,0.0747 0.37797,0.37797 0.0282,0.0563 -0.0282,0.13265 0,0.18899 0.0398,0.0797 0.14915,0.1093 0.18899,0.18899 0.0282,0.0563 -0.0282,0.13264 0,0.18899 0.0398,0.0797 0.14915,0.1093 0.18899,0.18898 0.0282,0.0563 -0.0282,0.13265 0,0.18899 0.39326,0.78652 -0.013,-0.20203 0.37797,0.18899 0.0446,0.0445 -0.0282,0.13264 0,0.18899 0.0181,0.0362 0.71978,0.73786 0.75596,0.75595 0.0563,0.0282 0.14444,-0.0446 0.18898,0 0.0446,0.0446 -0.0282,0.13264 0,0.18899 0.39327,0.78652 -0.013,-0.20204 0.37798,0.18899 0.0445,0.0445 -0.0445,0.14444 0,0.18899 0.0445,0.0445 0.14444,-0.0446 0.18899,0 0.0445,0.0445 -0.0446,0.14444 0,0.18898 0.0445,0.0446 0.13264,-0.0282 0.18899,0 0.0797,0.0399 0.12599,0.126 0.18898,0.18899 0.063,0.063 0.14915,0.10931 0.18899,0.18899 0.0282,0.0563 -0.0445,0.14444 0,0.18899 0.0446,0.0445 0.14444,-0.0446 0.18899,0 0.0446,0.0445 -0.0446,0.14444 0,0.18899 0.0446,0.0445 0.14444,-0.0446 0.18899,0 0.0445,0.0445 -0.0446,0.14444 0,0.18898 0.0445,0.0446 0.14444,-0.0445 0.18899,0 0.0445,0.0446 -0.0446,0.14445 0,0.18899 0.0445,0.0446 0.14444,-0.0445 0.18899,0 0.0445,0.0446 -0.0446,0.14445 0,0.18899 0.39102,0.39102 -0.0153,-0.59753 0.37797,0.18899 0,0.50397 -0.063,-0.063 0.18899,0.18899 0.0446,0.0445 -0.0446,0.14444 0,0.18898 0.0446,0.0446 0.14444,-0.0445 0.18899,0 0.0445,0.0446 -0.0446,0.14445 0,0.18899 0.0445,0.0445 0.14444,-0.0445 0.18899,0 0.0445,0.0445 -0.0446,0.14445 0,0.18899 0.0445,0.0445 0.14444,-0.0445 0.18898,0 0.0446,0.0445 -0.0445,0.14444 0,0.18899 0.0446,0.0445 0.13265,-0.0282 0.18899,0 0.0797,0.0398 0.10931,0.14914 0.18899,0.18899 0.0564,0.0282 0.14444,-0.0446 0.18899,0 0.0445,0.0445 -0.0446,0.14444 0,0.18898 0.0445,0.0446 0.13264,-0.0282 0.18899,0 0.0797,0.0399 0.1093,0.14915 0.18898,0.18899 0.11269,0.0564 0.26529,-0.0563 0.37798,0 0.0797,0.0398 0.1093,0.14915 0.18899,0.18899 0.11269,0.0563 0.28888,-0.0891 0.37797,0 0.0446,0.0446 -0.0445,0.14444 0,0.18899 0.0455,0.0455 0.71048,-0.0455 0.75596,0 0.0445,0.0445 -0.0446,0.14444 0,0.18899 0.0455,0.0455 0.71047,-0.0455 0.75595,0 0.0446,0.0445 -0.0446,0.14444 0,0.18899 0.0945,0.0945 0.47247,-0.0945 0.56696,0 0.0446,0.0445 -0.0445,0.14444 0,0.18898 0.0945,0.0945 0.47247,-0.0945 0.56697,0 0.0445,0.0446 -0.0446,0.14445 0,0.18899 0.0945,0.0945 0.47247,-0.0945 0.56696,0 0.0445,0.0446 -0.0445,0.14444 0,0.18899 0.0945,0.0945 0.47247,-0.0945 0.56697,0 0.0445,0.0446 -0.0446,0.14444 0,0.18899 0.0386,0.0386 0.49203,-0.0375 0.56696,0 0.0797,0.0398 0.1093,0.14914 0.18899,0.18899 0.10252,0.0513 0.70424,-0.0517 0.75595,0 0.0446,0.0445 -0.0445,0.14444 0,0.18898 0.0945,0.0945 0.47247,-0.0945 0.56697,0 0.0445,0.0446 -0.0446,0.14445 0,0.18899 0.0455,0.0455 0.71047,-0.0455 0.75595,0 0.0445,0.0446 -0.0446,0.14445 0,0.18899 0.0517,0.0517 0.65343,-0.0513 0.75595,0 0.0797,0.0398 0.1093,0.14915 0.18899,0.18899 0.0497,0.0248 0.65713,0 0.75595,0 0.13396,0 1.08507,0.0244 1.13393,0 0.0797,-0.0398 0.1093,-0.14915 0.18899,-0.18899 0.15119,-0.0756 0.41577,0.0756 0.56696,0 0.0797,-0.0398 0.10931,-0.14915 0.18899,-0.18899 0.0749,-0.0375 0.52833,0.0386 0.56696,0 0.0445,-0.0445 -0.0445,-0.14444 0,-0.18899 0.0891,-0.0891 0.28889,0.0891 0.37798,0 0.0445,-0.0445 -0.0445,-0.14444 0,-0.18898 0.0445,-0.0446 0.13264,0.0282 0.18899,0 0.0797,-0.0399 0.1093,-0.14915 0.18899,-0.18899 0.11269,-0.0563 0.28888,0.0891 0.37797,0 0.0446,-0.0446 -0.0445,-0.14444 0,-0.18899 0.50397,0 -0.063,0.063 0.18899,-0.18899 0.0891,-0.0891 0.28889,0.0891 0.37798,0 0.0445,-0.0445 -0.0445,-0.14444 0,-0.18899 0.0445,-0.0445 0.12599,0 0.18899,0 0.063,0 0.12599,0 0.18898,0 0.50397,0 -0.063,0.063 0.18899,-0.18898 0.0446,-0.0446 0.12599,0 0.18899,0 0.3882,0 0.16907,0.0598 0.37798,-0.56697 z"
       id="path2084"
       inkscape:connector-curvature="0" />
    <path
       style="fill:none;stroke:#000000;stroke-width:0.26458332px;stroke-linecap:butt;stroke-linejoin:miter;stroke-opacity:1"
       d="m 89.202381,132.29166 c -0.440974,-0.81894 -0.861447,-1.64926 -1.322917,-2.45684 -0.0442,-0.0773 -0.125992,-0.12599 -0.188989,-0.18899 -0.125992,-0.25198 -0.273344,-0.49437 -0.377976,-0.75595 -0.02339,-0.0585 0.04454,-0.14444 0,-0.18899 -0.391023,-0.39102 0.01529,0.59754 -0.377976,-0.18899 -0.02817,-0.0563 0.02817,-0.13264 0,-0.18898 -0.03984,-0.0797 -0.149146,-0.10931 -0.188989,-0.18899 -0.02817,-0.0563 0.02817,-0.13265 0,-0.18899 -0.626793,-0.6268 0.08909,0.17818 -0.188987,-0.37798 -0.03984,-0.0797 -0.149145,-0.1093 -0.188989,-0.18899 -0.02817,-0.0563 0.02817,-0.13264 0,-0.18898 -0.03984,-0.0797 -0.149146,-0.10931 -0.188987,-0.18899 -0.02817,-0.0563 0.02817,-0.13265 0,-0.18899 -0.03984,-0.0797 -0.149148,-0.1093 -0.188989,-0.18899 -0.02817,-0.0563 0.02817,-0.13264 0,-0.18899 -0.07968,-0.15937 -0.298291,-0.2186 -0.377976,-0.37797 -0.02817,-0.0563 0.02817,-0.13265 0,-0.18899 -0.03984,-0.0797 -0.149145,-0.1093 -0.188989,-0.18899 -0.02817,-0.0563 0.04454,-0.14444 0,-0.18899 -0.04454,-0.0445 -0.144441,0.0446 -0.188986,0 -0.04455,-0.0445 0.02817,-0.13264 0,-0.18898 -0.03984,-0.0797 -0.149146,-0.10931 -0.18899,-0.18899 -0.02817,-0.0563 0.02817,-0.13264 0,-0.18899 -0.153939,-0.30788 -0.224036,-0.0701 -0.377975,-0.37798 -0.02817,-0.0563 0.04454,-0.14444 0,-0.18898 -0.04455,-0.0446 -0.144444,0.0445 -0.18899,0 -0.04454,-0.0446 0.04455,-0.14445 0,-0.18899 -0.391022,-0.39103 0.01529,0.59753 -0.377975,-0.18899 -0.02817,-0.0564 0.04454,-0.14444 0,-0.18899 -0.391023,-0.39102 0.01529,0.59754 -0.377976,-0.18899 -0.02817,-0.0563 0.04454,-0.14444 0,-0.18899 -0.391023,-0.39102 0.01529,0.59754 -0.377976,-0.18898 -0.02817,-0.0564 0.02817,-0.13265 0,-0.18899 -0.09298,-0.18597 -0.662966,-0.56999 -0.755952,-0.75595 -0.02817,-0.0563 0.04455,-0.14445 0,-0.18899 -0.04454,-0.0446 -0.144444,0.0445 -0.188989,0 -0.04454,-0.0446 0.04454,-0.14445 0,-0.18899 -0.04454,-0.0445 -0.144444,0.0445 -0.188986,0 -0.04455,-0.0445 0.02817,-0.13264 0,-0.18899 -0.02508,-0.0502 -0.516787,-0.54187 -0.566966,-0.56696 -0.05634,-0.0282 -0.144443,0.0445 -0.188989,0 -0.04454,-0.0446 0.04455,-0.14444 0,-0.18899 -0.04454,-0.0446 -0.132641,0.0282 -0.188986,0 -0.07968,-0.0398 -0.109305,-0.14915 -0.18899,-0.18899 -0.05634,-0.0282 -0.144444,0.0446 -0.188986,0 -0.04454,-0.0445 0.04454,-0.14444 0,-0.18899 -0.04454,-0.0445 -0.132644,0.0282 -0.188989,0 -0.07969,-0.0398 -0.109305,-0.14914 -0.18899,-0.18898 -0.05634,-0.0282 -0.13264,0.0282 -0.188986,0 -0.07968,-0.0399 -0.109305,-0.14915 -0.188989,-0.18899 -0.05635,-0.0282 -0.132641,0.0282 -0.188987,0 -0.07968,-0.0399 -0.109305,-0.14915 -0.188989,-0.18899 -0.05635,-0.0282 -0.132644,0.0282 -0.188987,0 -0.07968,-0.0398 -0.109304,-0.14915 -0.188989,-0.18899 -0.112691,-0.0563 -0.265284,0.0563 -0.377976,0 -0.07968,-0.0398 -0.109304,-0.14915 -0.188989,-0.18899 -0.112689,-0.0563 -0.265285,0.0564 -0.377976,0 -0.626795,-0.62679 0.178181,0.0891 -0.377976,-0.18899 -0.159369,-0.0797 -0.218606,-0.29829 -0.377975,-0.37797 -0.151191,-0.0756 -0.415775,0.0756 -0.566965,0 -0.07968,-0.0398 -0.109303,-0.14915 -0.188987,-0.18899 -0.05635,-0.0282 -0.132644,0.0282 -0.188989,0 -0.07969,-0.0398 -0.109305,-0.14915 -0.18899,-0.18899 -0.05634,-0.0282 -0.144441,0.0445 -0.188986,0 -0.04454,-0.0445 0.04454,-0.14444 0,-0.18899 -0.08909,-0.0891 -0.288888,0.0891 -0.377976,0 -0.04454,-0.0445 0.04454,-0.14444 0,-0.18898 -0.08909,-0.0891 -0.265287,0.0563 -0.377976,0 -0.07968,-0.0399 -0.109304,-0.14915 -0.188989,-0.18899 -0.05635,-0.0282 -0.132644,0.0282 -0.188989,0 -0.07968,-0.0398 -0.109302,-0.14915 -0.188987,-0.18899 -0.05634,-0.0282 -0.132643,0.0282 -0.188989,0 -0.786522,-0.39326 0.202036,0.0131 -0.188987,-0.37798 -0.04454,-0.0445 -0.132643,0.0282 -0.188989,0 -0.159369,-0.0797 -0.218606,-0.29829 -0.377976,-0.37797 -0.05634,-0.0282 -0.144444,0.0445 -0.188989,0 -0.04454,-0.0446 0.04454,-0.14444 0,-0.18899 -0.04454,-0.0446 -0.132641,0.0282 -0.188986,0 -0.07969,-0.0398 -0.109305,-0.14915 -0.18899,-0.18899 -0.05635,-0.0282 -0.132641,0.0282 -0.188986,0 -0.786524,-0.39326 0.202033,0.013 -0.188989,-0.37797 -0.04455,-0.0446 -0.132644,0.0282 -0.188987,0 -0.07968,-0.0399 -0.109305,-0.14915 -0.188989,-0.18899 -0.05635,-0.0282 -0.132644,0.0282 -0.188989,0 -0.159367,-0.0797 -0.218607,-0.2983 -0.377976,-0.37798 -0.05635,-0.0282 -0.132641,0.0282 -0.188987,0 -0.07968,-0.0398 -0.109305,-0.14915 -0.188989,-0.18899 -0.05635,-0.0282 -0.132644,0.0282 -0.188987,0 -0.159369,-0.0797 -0.218609,-0.29829 -0.377978,-0.37797 -0.05634,-0.0282 -0.132641,0.0282 -0.188987,0 -0.226785,-0.1134 -0.34018,-0.45357 -0.566965,-0.56697 -0.05635,-0.0282 -0.132643,0.0282 -0.188986,0 -0.100936,-0.0505 -0.467471,-0.46747 -0.566965,-0.56696 -0.063,-0.063 -0.125992,-0.12599 -0.18899,-0.18899 -0.06299,-0.063 -0.149145,-0.1093 -0.188986,-0.18899 -0.02817,-0.0563 0.02817,-0.13264 0,-0.18899 -0.03984,-0.0797 -0.125992,-0.12599 -0.188989,-0.18898 -0.063,-0.063 -0.125992,-0.126 -0.188987,-0.18899 -0.251984,-0.25199 -0.50397,-0.50397 -0.755954,-0.75595 -0.063,-0.063 -0.125992,-0.126 -0.188987,-0.18899 -0.063,-0.063 -0.109304,-0.14915 -0.188989,-0.18899 -0.05635,-0.0282 -0.132644,0.0282 -0.188987,0 -0.226787,-0.11339 -0.34018,-0.45357 -0.566965,-0.56697 -0.05634,-0.0282 -0.132643,0.0282 -0.188989,0 -0.226785,-0.11339 -0.340177,-0.45357 -0.566962,-0.56696 -0.05635,-0.0282 -0.132644,0.0282 -0.18899,0 -0.159369,-0.0797 -0.218606,-0.29829 -0.377975,-0.37798 -0.05635,-0.0282 -0.132644,0.0282 -0.18899,0 -0.07968,-0.0398 -0.109302,-0.14914 -0.188986,-0.18898 -0.05635,-0.0282 -0.132644,0.0282 -0.188989,0 -0.786522,-0.39327 0.202035,0.013 -0.188987,-0.37798 -0.04454,-0.0445 -0.132643,0.0282 -0.188989,0 -0.226785,-0.11339 -0.340178,-0.45357 -0.566965,-0.56696 -0.05635,-0.0282 -0.144442,0.0445 -0.188987,0 -0.04454,-0.0446 0.02817,-0.13265 0,-0.18899 -0.03984,-0.0797 -0.125992,-0.126 -0.188989,-0.18899 -0.063,-0.063 -0.109302,-0.14915 -0.188987,-0.18899 -0.05635,-0.0282 -0.132643,0.0282 -0.188989,0 -0.18597,-0.093 -0.569981,-0.66297 -0.755951,-0.75595 -0.05635,-0.0282 -0.132644,0.0282 -0.18899,0 -0.07968,-0.0398 -0.109302,-0.14915 -0.188986,-0.18899 -0.05635,-0.0282 -0.132644,0.0282 -0.188989,0 -0.15937,-0.0797 -0.218607,-0.29829 -0.377976,-0.37798 -0.05635,-0.0282 -0.132644,0.0282 -0.188989,0 -0.07968,-0.0398 -0.109303,-0.14914 -0.188987,-0.18898 -0.05635,-0.0282 -0.132644,0.0282 -0.188989,0 -0.07969,-0.0399 -0.109302,-0.14915 -0.188987,-0.18899 -0.05635,-0.0282 -0.132643,0.0282 -0.188989,0 -0.07968,-0.0398 -0.109305,-0.14915 -0.188989,-0.18899 -0.05634,-0.0282 -0.132641,0.0282 -0.188987,0 -0.07968,-0.0398 -0.109305,-0.14915 -0.188989,-0.18899 -0.05635,-0.0282 -0.132641,0.0282 -0.188987,0 -0.07968,-0.0398 -0.109304,-0.14914 -0.188989,-0.18899 -0.112691,-0.0563 -0.265284,0.0563 -0.377976,0 -0.07968,-0.0398 -0.109304,-0.14914 -0.188989,-0.18898 -0.05634,-0.0282 -0.132641,0.0282 -0.188987,0 -0.07968,-0.0399 -0.109304,-0.14915 -0.188989,-0.18899 -0.118782,-0.0594 -0.637169,0.0594 -0.755951,0 -0.07969,-0.0398 -0.109305,-0.14915 -0.18899,-0.18899 -0.151188,-0.0756 -0.415771,0.0756 -0.566962,0 -0.07969,-0.0398 -0.109305,-0.14915 -0.188989,-0.18899 -0.04969,-0.0248 -0.657127,0 -0.755952,0 -0.62996,0 -1.259922,0 -1.889882,0 -0.314978,0 -0.629959,0 -0.94494,0 -0.063,0 -0.125992,0 -0.188987,0 -0.063,0 -0.132644,-0.0282 -0.188989,0 -0.07969,0.0398 -0.109302,0.14915 -0.188987,0.18899 -0.119229,0.0596 -0.825714,-0.0596 -0.944941,0 -0.07968,0.0398 -0.109304,0.14915 -0.188989,0.18899 -0.118782,0.0594 -0.637169,-0.0594 -0.755951,0 -0.07969,0.0398 -0.109305,0.14914 -0.18899,0.18899 -0.112688,0.0563 -0.265284,-0.0563 -0.377975,0 -0.07968,0.0398 -0.109303,0.14914 -0.188987,0.18898 -0.112691,0.0563 -0.265287,-0.0563 -0.377979,0 -0.07968,0.0399 -0.109302,0.14915 -0.188986,0.18899 -0.112691,0.0563 -0.265285,-0.0563 -0.377976,0 -0.159369,0.0797 -0.218609,0.29829 -0.377976,0.37798 -0.05635,0.0282 -0.132643,-0.0282 -0.188989,0 -0.07968,0.0398 -0.109305,0.14914 -0.188989,0.18899 -0.112689,0.0563 -0.265285,-0.0564 -0.377976,0 -0.100936,0.0505 -0.467468,0.46747 -0.566962,0.56696 -0.063,0.063 -0.109305,0.14915 -0.18899,0.18899 -0.05635,0.0282 -0.144444,-0.0446 -0.188989,0 -0.04454,0.0445 0.02817,0.13264 0,0.18899 -0.09961,0.19921 -0.278368,0.17876 -0.377976,0.37797 -0.02817,0.0564 0.04455,0.14445 0,0.18899 -0.04454,0.0446 -0.144441,-0.0445 -0.188986,0 -0.04454,0.0446 0.02817,0.13264 0,0.18899 -0.03984,0.0797 -0.125992,0.12599 -0.188989,0.18899 -0.111152,0.11115 -0.712195,0.66843 -0.755952,0.75595 -0.02817,0.0563 0.04454,0.14444 0,0.18899 -0.04454,0.0445 -0.132644,-0.0282 -0.188989,0 -0.786522,0.39326 0.202036,-0.013 -0.188987,0.37797 -0.04454,0.0446 -0.132643,-0.0282 -0.188989,0 -0.786522,0.39327 0.202036,-0.013 -0.188987,0.37798 -0.391025,0.39102 0.01529,-0.59754 -0.377978,0.18899 -0.02817,0.0563 0.02817,0.13264 0,0.18899 -0.09298,0.18597 -0.662967,0.56998 -0.755952,0.75595 -0.02817,0.0563 0.04455,0.14444 0,0.18899 -0.391022,0.39102 0.01529,-0.59754 -0.377976,0.18899 -0.02817,0.0563 0.02817,0.13264 0,0.18898 -0.03984,0.0797 -0.149145,0.10931 -0.188989,0.18899 -0.02817,0.0563 0.02817,0.13264 0,0.18899 -0.03984,0.0797 -0.149145,0.1093 -0.188986,0.18899 -0.02817,0.0563 0.02817,0.13264 0,0.18899 -0.03984,0.0797 -0.149146,0.1093 -0.18899,0.18898 -0.02817,0.0563 0.02817,0.13265 0,0.18899 -0.03984,0.0797 -0.149145,0.10931 -0.188986,0.18899 -0.05635,0.11269 0.05635,0.26529 0,0.37798 -0.03984,0.0797 -0.149146,0.1093 -0.188989,0.18898 -0.05939,0.11879 0.05939,0.63717 0,0.75596 -0.03984,0.0797 -0.149146,0.1093 -0.188987,0.18898 -0.02817,0.0563 0,0.126 0,0.18899 0,0.063 0,0.126 0,0.18899 0,0.12599 0,0.25198 0,0.37798 0,0.063 -0.01992,0.12922 0,0.18899 0.04454,0.13363 0.144441,0.24434 0.188987,0.37797 0.01992,0.0598 0,0.12599 0,0.18899 0,0.10548 -0.02884,0.85843 0,0.94494 0.02817,0.0845 0.160816,0.10447 0.188989,0.18899 0.03984,0.11953 0,0.25198 0,0.37797 0,0.063 -0.02817,0.13265 0,0.18899 0.03984,0.0797 0.149145,0.1093 0.188986,0.18899 0.02817,0.0563 -0.01992,0.12922 0,0.18899 0.04455,0.13363 0.144444,0.24434 0.18899,0.37797 0.01992,0.0598 -0.02817,0.13265 0,0.18899 0.07218,0.14437 0.524306,0.43899 0.566965,0.56697 0.03984,0.11952 -0.03984,0.25845 0,0.37797 0.02817,0.0845 0.139567,0.11487 0.188986,0.18899 0.07814,0.11721 0.110853,0.26077 0.188989,0.37798 0.04942,0.0741 0.139571,0.11486 0.188987,0.18899 0.07814,0.1172 0.104471,0.26528 0.188989,0.37797 0.106908,0.14255 0.271069,0.23543 0.377976,0.37798 0.08452,0.11269 0.110853,0.26077 0.188989,0.37797 0.04942,0.0741 0.139568,0.11486 0.188987,0.18899 0.07814,0.11721 0.110852,0.26077 0.188989,0.37798 0.09883,0.14825 0.32163,0.20894 0.377976,0.37797 0.03984,0.11953 -0.06989,0.27315 0,0.37798 0.07814,0.11721 0.278371,0.0894 0.377976,0.18899 0.04454,0.0445 -0.02817,0.13264 0,0.18899 0.08375,0.1675 0.452271,0.39492 0.566965,0.56696 0.07814,0.11721 0.11085,0.26077 0.188986,0.37798 0.145376,0.21806 0.42159,0.3489 0.566965,0.56696 0.07814,0.11721 0.110853,0.26077 0.18899,0.37798 0.485994,0.72899 -0.108019,-0.35102 0.377975,0.37797 0.07814,0.11721 0.08938,0.27837 0.188987,0.37798 0.0996,0.0996 0.260771,0.11085 0.377976,0.18899 0.148256,0.0988 0.229722,0.27914 0.377978,0.37797 0.117205,0.0781 0.260771,0.11086 0.377976,0.18899 0.07413,0.0494 0.125992,0.126 0.188987,0.18899 0.251984,0.25198 0.503967,0.50397 0.755954,0.75595 0.125992,0.126 0.229722,0.27914 0.377976,0.37798 0.117205,0.0781 0.26077,0.11085 0.377976,0.18899 0.148254,0.0988 0.251983,0.25198 0.377975,0.37797 0.18899,0.18899 0.377976,0.37798 0.566965,0.56697 0.063,0.063 0.114861,0.13957 0.188987,0.18899 0.117205,0.0781 0.260771,0.11085 0.377976,0.18898 0.17204,0.1147 0.399457,0.48321 0.566965,0.56697 0.05635,0.0282 0.132643,-0.0282 0.188989,0 0.07968,0.0398 0.125992,0.12599 0.188987,0.18899 0.063,0.063 0.149145,0.1093 0.188989,0.18898 0.02817,0.0564 -0.04454,0.14445 0,0.18899 0.04454,0.0446 0.132643,-0.0282 0.188986,0 0.07968,0.0398 0.109305,0.14915 0.18899,0.18899 0.05635,0.0282 0.144444,-0.0446 0.188989,0 0.04454,0.0445 -0.04454,0.14444 0,0.18899 0.04454,0.0445 0.132641,-0.0282 0.188986,0 0.15937,0.0797 0.218607,0.29829 0.377976,0.37797 0.05635,0.0282 0.132644,-0.0282 0.188989,0 0.15937,0.0797 0.218607,0.2983 0.377976,0.37798 0.05635,0.0282 0.132644,-0.0282 0.18899,0 0.07968,0.0398 0.109302,0.14915 0.188986,0.18899 0.05635,0.0282 0.144444,-0.0446 0.188989,0 0.391023,0.39102 -0.597535,-0.0153 0.188987,0.37798 0.05635,0.0282 0.132643,-0.0282 0.188989,0 0.07968,0.0398 0.104471,0.16081 0.188987,0.18898 0.119528,0.0399 0.25845,-0.0398 0.377978,0 0.168214,0.0561 0.398748,0.5109 0.566963,0.56697 0.119528,0.0398 0.25845,-0.0398 0.377975,0 0.08452,0.0282 0.109305,0.14914 0.18899,0.18899 0.05635,0.0282 0.132643,-0.0282 0.188989,0 0.07968,0.0398 0.114861,0.13957 0.188986,0.18898 0.117206,0.0781 0.260771,0.11086 0.377976,0.18899 0.07413,0.0494 0.104471,0.16082 0.188989,0.18899 0.119526,0.0398 0.258451,-0.0398 0.377976,0 0.169037,0.0563 0.229722,0.27914 0.377976,0.37798 0.642448,0.42829 0.101357,0.0253 0.755952,0.18898 0.342058,-0.1139 0.351485,0.30615 0.566965,0.37798 0.119528,0.0398 0.255746,-0.0306 0.377976,0 0.877387,0.43869 -0.108779,0.016 0.755954,0.18899 0.379513,-0.0434 0.615825,0.2957 0.944938,0.37797 0.122232,0.0306 0.255746,-0.0306 0.377978,0 0.136658,0.0342 0.241319,0.15483 0.377976,0.18899 0.12223,0.0306 0.255746,-0.0306 0.377976,0 0.136657,0.0342 0.241319,0.15483 0.377976,0.18899 0.122229,0.0306 0.255746,-0.0306 0.377976,0 0.136657,0.0342 0.239847,0.16136 0.377975,0.18899 1.441723,0 -0.149082,-0.0845 0.944941,0.18899 0.244462,0.0611 0.511493,-0.0611 0.755952,0 0.13666,0.0342 0.241318,0.15482 0.377978,0.18899 0.12223,0.0305 0.255744,-0.0306 0.377976,0 0.136657,0.0342 0.239848,0.16136 0.377976,0.18898 0.185317,0.0371 0.381646,-0.0371 0.566965,0 0.138126,0.0276 0.241319,0.15483 0.377976,0.18899 0.244459,0.0611 0.511492,-0.0611 0.755951,0 0.136658,0.0342 0.239848,0.16136 0.377976,0.18899 0.308864,0.0618 0.639366,-0.0764 0.944941,0 0.136657,0.0342 0.241319,0.15482 0.377976,0.18899 0.244462,0.0611 0.511492,-0.0611 0.755952,0 0.136659,0.0342 0.244342,0.14444 0.377978,0.18899 0.17929,0.0598 0.383617,-0.0458 0.566962,0 0.136658,0.0342 0.244343,0.14444 0.377976,0.18898 0.05976,0.0199 0.125995,0 0.188989,0 0.125992,0 0.251984,0 0.377976,0 0.125992,0 0.255746,-0.0306 0.377976,0 0.136657,0.0342 0.244343,0.14445 0.377976,0.18899 0.200821,0.0669 0.555133,-0.0669 0.755954,0 0.133633,0.0446 0.24434,0.14445 0.377976,0.18899 0.119525,0.0398 0.25845,-0.0398 0.377976,0 0.133635,0.0445 0.244342,0.14444 0.377976,0.18899 0.113381,0.0378 0.794136,0 0.94494,0 0.755952,0 1.511906,0 2.267858,0 0.503968,0 1.007935,0 1.511903,0 0.09883,0 0.70626,0.0248 0.755954,0 0.07969,-0.0398 0.109302,-0.14915 0.188987,-0.18899 0.114758,-0.0574 1.019172,0.0574 1.13393,0 0.07968,-0.0398 0.109302,-0.14915 0.188987,-0.18899 0.112691,-0.0563 0.265287,0.0564 0.377975,0 0.07968,-0.0398 0.109305,-0.14914 0.18899,-0.18899 0.15119,-0.0756 0.415774,0.0756 0.566965,0 0.07968,-0.0398 0.109302,-0.14914 0.188986,-0.18898 0.112692,-0.0563 0.288888,0.0891 0.377976,0 0.04454,-0.0445 -0.04454,-0.14445 0,-0.18899 0.08909,-0.0891 0.288888,0.0891 0.377978,0 0.04454,-0.0445 -0.04454,-0.14445 0,-0.18899 0.08909,-0.0891 0.288886,0.0891 0.377976,0 0.04455,-0.0445 -0.04454,-0.14444 0,-0.18899 0.04455,-0.0445 0.144442,0.0446 0.188987,0 0.04454,-0.0445 -0.04454,-0.14444 0,-0.18899 0.04454,-0.0445 0.132643,0.0282 0.188989,0 0.07968,-0.0398 0.109305,-0.14914 0.188987,-0.18898 0.05635,-0.0282 0.132643,0.0282 0.188989,0 0.05018,-0.0251 0.541874,-0.51679 0.566965,-0.56697 0.02817,-0.0563 -0.04454,-0.14444 0,-0.18899 0.04454,-0.0445 0.144441,0.0446 0.188987,0 0.04454,-0.0445 -0.02817,-0.13264 0,-0.18899 0.07968,-0.15936 0.298293,-0.2186 0.377975,-0.37797 0.05635,-0.11269 -0.08909,-0.28889 0,-0.37798 0.04455,-0.0445 0.144444,0.0446 0.18899,0 0.08909,-0.0891 -0.08909,-0.28888 0,-0.37797 0.04454,-0.0445 0.144444,0.0445 0.188989,0 0.03863,-0.0386 -0.03747,-0.49203 0,-0.56697 0.03984,-0.0797 0.149145,-0.1093 0.188986,-0.18899 0.0756,-0.15119 -0.07559,-0.41577 0,-0.56696 0.03984,-0.0797 0.149146,-0.1093 0.18899,-0.18899 0.05634,-0.11269 -0.08909,-0.28888 0,-0.37797 0.04454,-0.0446 0.144441,0.0445 0.188986,0 0.04454,-0.0446 0.01236,-0.12722 0,-0.18899 -0.05094,-0.2547 -0.125992,-0.50397 -0.188986,-0.75596 z"
       id="path2086"
       inkscape:connector-curvature="0" />
  </g>
</svg>
