<?xml version="1.0" encoding="UTF-8" standalone="no"?>
<!-- Created with Inkscape (http://www.inkscape.org/) -->

<svg
   xmlns:dc="http://purl.org/dc/elements/1.1/"
   xmlns:cc="http://creativecommons.org/ns#"
   xmlns:rdf="http://www.w3.org/1999/02/22-rdf-syntax-ns#"
   xmlns:svg="http://www.w3.org/2000/svg"
   xmlns="http://www.w3.org/2000/svg"
   xmlns:sodipodi="http://sodipodi.sourceforge.net/DTD/sodipodi-0.dtd"
   xmlns:inkscape="http://www.inkscape.org/namespaces/inkscape"
   width="169.33333mm"
   height="127mm"
   viewBox="0 0 169.33333 127"
   version="1.1"
   id="svg1506"
   sodipodi:docname="4_5_macula_densa.svg"
   inkscape:version="0.92.4 (5da689c313, 2019-01-14)">
  <defs
     id="defs1500" />
  <sodipodi:namedview
     id="base"
     pagecolor="#ffffff"
     bordercolor="#666666"
     borderopacity="1.0"
     inkscape:pageopacity="0.0"
     inkscape:pageshadow="2"
     inkscape:zoom="0.98994949"
     inkscape:cx="168.50396"
     inkscape:cy="258.40817"
     inkscape:document-units="mm"
     inkscape:current-layer="layer15"
     showgrid="false"
     fit-margin-top="0"
     fit-margin-left="0"
     fit-margin-right="0"
     fit-margin-bottom="0"
     inkscape:window-width="1920"
     inkscape:window-height="1001"
     inkscape:window-x="-9"
     inkscape:window-y="-9"
     inkscape:window-maximized="1" />
  <metadata
     id="metadata1503">
    <rdf:RDF>
      <cc:Work
         rdf:about="">
        <dc:format>image/svg+xml</dc:format>
        <dc:type
           rdf:resource="http://purl.org/dc/dcmitype/StillImage" />
        <dc:title></dc:title>
      </cc:Work>
    </rdf:RDF>
  </metadata>
  <g
     inkscape:groupmode="layer"
     id="layer15"
     inkscape:label="macula_densa">
    <path
       style="fill:none;stroke:#000000;stroke-width:0.26458332px;stroke-linecap:butt;stroke-linejoin:miter;stroke-opacity:1"
       d="m 80.31994,108.66815 c 0.944941,-0.12599 1.886757,-0.27818 2.83482,-0.37797 0.251986,0 0.50397,0 0.755954,0 0,-0.063 -0.04454,-0.14445 0,-0.18899 0.04548,-0.0455 0.710475,0.0455 0.755952,0 0.04454,-0.0446 -0.04455,-0.14444 0,-0.18899 0.03864,-0.0386 0.492032,0.0375 0.566965,0 0.07968,-0.0398 0.109302,-0.14915 0.188986,-0.18899 0.07493,-0.0375 0.528328,0.0386 0.566965,0 0.04454,-0.0445 -0.04454,-0.14444 0,-0.18899 0.08909,-0.0891 0.288886,0.0891 0.377976,0 0.04454,-0.0445 -0.04454,-0.14444 0,-0.18898 0.08909,-0.0891 0.288888,0.0891 0.377976,0 0.251984,-0.25199 -0.314979,-0.18899 0.188989,-0.18899 0.503968,0 -0.063,0.063 0.188987,-0.18899 0.08909,-0.0891 0.265287,0.0564 0.377978,0 0.07969,-0.0398 0.109302,-0.14915 0.188987,-0.18899 0.07493,-0.0375 0.528328,0.0386 0.566965,0 0.04454,-0.0445 -0.04455,-0.14444 0,-0.18899 0.09449,-0.0945 0.472469,0.0945 0.566965,0 0.04454,-0.0445 -0.04454,-0.14444 0,-0.18898 0.04548,-0.0455 0.710475,0.0455 0.755951,0 0.04455,-0.0446 -0.04454,-0.14445 0,-0.18899 0.09449,-0.0945 0.472469,0.0945 0.566965,0 0.04454,-0.0446 -0.04454,-0.14445 0,-0.18899 0.08909,-0.0891 0.288886,0.0891 0.377976,0 0.04454,-0.0445 -0.04454,-0.14444 0,-0.18899 0.04454,-0.0445 0.144442,0.0446 0.188987,0 0.0086,-0.009 0,-0.85583 0,-0.94494 0,-0.063 -0.04454,-0.14444 0,-0.18899 0.04454,-0.0445 0.144444,0.0446 0.188989,0 0.04454,-0.0445 0,-0.12599 0,-0.18898 0,-0.063 0,-0.126 0,-0.18899 0,-0.37798 0,-0.75596 0,-1.13393 0,-0.063 0.04454,-0.14445 0,-0.18899 -0.04454,-0.0445 -0.144444,0.0445 -0.188989,0 -0.04548,-0.0455 0.04548,-0.71048 0,-0.75595 -0.04454,-0.0446 -0.144442,0.0445 -0.188987,0 -0.08909,-0.0891 0.05635,-0.26529 0,-0.37798 -0.03984,-0.0797 -0.149145,-0.1093 -0.188989,-0.18899 -0.02817,-0.0563 0.04454,-0.14444 0,-0.18898 -0.04454,-0.0446 -0.144444,0.0445 -0.188987,0 -0.08909,-0.0891 0.08909,-0.28889 0,-0.37798 -0.04454,-0.0445 -0.144444,0.0446 -0.188989,0 -0.391022,-0.39102 0.597535,0.0153 -0.188989,-0.37798 -0.05634,-0.0282 -0.144441,0.0446 -0.188987,0 -0.04454,-0.0445 0.02817,-0.13264 0,-0.18898 -0.03984,-0.0797 -0.149145,-0.10931 -0.188989,-0.18899 -0.02817,-0.0564 0.04454,-0.14445 0,-0.18899 -0.04454,-0.0446 -0.144441,0.0445 -0.188986,0 -0.04455,-0.0446 0.04454,-0.14444 0,-0.18899 -0.04455,-0.04454 -0.144444,0.04455 -0.18899,0 -0.04454,-0.04454 0.04455,-0.144441 0,-0.188986 -0.04454,-0.04454 -0.144444,0.04454 -0.188986,0 -0.04454,-0.04454 0.04454,-0.144444 0,-0.188989 -0.04454,-0.04455 -0.144444,0.04454 -0.188989,0 -0.04455,-0.04455 0.04454,-0.144444 0,-0.188987 -0.08909,-0.08909 -0.288886,0.08909 -0.377976,0 -0.04455,-0.04454 0.04454,-0.144444 0,-0.188989 -0.04455,-0.04454 -0.125992,0 -0.188989,0 -0.063,0 -0.125992,0 -0.188987,0 -0.566965,0 -1.13393,0 -1.700893,0 -0.063,0 -0.125991,0 -0.188989,0 -0.06299,0 -0.144444,-0.04454 -0.188989,0 -0.04454,0.04454 0.04454,0.144444 0,0.188989 -0.06634,0.06634 -0.814398,-0.06527 -0.944938,0 -0.07968,0.03984 -0.109305,0.149146 -0.188989,0.188987 -0.119227,0.05961 -0.825715,-0.05961 -0.944941,0 -0.07969,0.03984 -0.109302,0.149145 -0.188987,0.188989 -0.04969,0.02484 -0.657127,0 -0.755954,0 -0.063,0 -0.125992,0 -0.188987,0 -0.063,0 -0.132643,-0.02817 -0.188989,0 -0.07968,0.03984 -0.109302,0.149145 -0.188986,0.188986 -0.05635,0.02817 -0.125992,0 -0.18899,0 -0.06299,0 -0.125992,0 -0.188989,0 -0.377976,0 -0.755952,0 -1.133927,0 -0.08511,0 -0.50945,-0.02876 -0.566965,0 -0.07968,0.03984 -0.109302,0.14915 -0.188987,0.18899 -0.119227,0.0596 -0.825714,-0.0596 -0.944941,0 -0.07968,0.0398 -0.109304,0.14915 -0.188989,0.18899 -0.112689,0.0563 -0.288885,-0.0891 -0.377976,0 -0.04454,0.0445 0.04454,0.14444 0,0.18899 -0.09449,0.0945 -0.472469,-0.0945 -0.566965,0 -0.04454,0.0445 0.04454,0.14444 0,0.18898 -0.08909,0.0891 -0.265284,-0.0563 -0.377976,0 -0.07968,0.0399 -0.109302,0.14915 -0.188986,0.18899 -0.05635,0.0282 -0.132644,-0.0282 -0.188989,0 -0.07968,0.0398 -0.109303,0.14915 -0.188987,0.18899 -0.112691,0.0563 -0.265287,-0.0564 -0.377979,0 -0.07968,0.0398 -0.109302,0.14915 -0.188986,0.18899 -0.05635,0.0282 -0.144444,-0.0446 -0.188989,0 -0.04455,0.0445 0.04454,0.14444 0,0.18899 -0.09449,0.0945 -0.472469,-0.0945 -0.566963,0 -0.04454,0.0445 0.04454,0.14444 0,0.18898 -0.04454,0.0446 -0.144444,-0.0445 -0.188989,0 -0.04454,0.0446 0.04454,0.14445 0,0.18899 -0.04454,0.0446 -0.144444,-0.0445 -0.188989,0 -0.04454,0.0446 0.04454,0.14445 0,0.18899 -0.04454,0.0445 -0.144442,-0.0445 -0.188987,0 -0.04454,0.0445 0.02817,0.13264 0,0.18899 -0.03984,0.0797 -0.149145,0.1093 -0.188989,0.18899 -0.06527,0.13054 0.06634,0.8786 0,0.94494 -0.04454,0.0445 -0.144441,-0.0446 -0.188987,0 -0.04454,0.0445 0,0.12599 0,0.18898 0,0.063 -0.04454,0.14445 0,0.18899 0.04455,0.0446 0.144442,-0.0445 0.188987,0 0.04454,0.0446 0,0.126 0,0.18899 0,0.063 0,0.12599 0,0.18899 0,0.0694 -0.0076,0.74835 0,0.75595 0.04454,0.0446 0.144444,-0.0445 0.188989,0 0.04454,0.0446 -0.02817,0.13264 0,0.18899 0.03984,0.0797 0.149146,0.1093 0.188987,0.18899 0.02817,0.0563 -0.02817,0.13264 0,0.18899 0.03984,0.0797 0.149148,0.1093 0.188989,0.18898 0.02817,0.0563 -0.02817,0.13265 0,0.18899 0.03984,0.0797 0.149146,0.10931 0.188989,0.18899 0.02817,0.0563 -0.04454,0.14444 0,0.18899 0.04454,0.0445 0.132641,-0.0282 0.188987,0 0.07968,0.0398 0.109305,0.14914 0.188989,0.18899 0.05635,0.0282 0.144441,-0.0446 0.188987,0 0.04454,0.0445 -0.04455,0.14444 0,0.18898 0.04454,0.0446 0.144444,-0.0445 0.188989,0 0.04454,0.0446 -0.04454,0.14445 0,0.18899 0.04454,0.0445 0.144444,-0.0445 0.188986,0 0.04455,0.0445 -0.04454,0.14445 0,0.18899 0.04455,0.0445 0.132644,-0.0282 0.18899,0 0.07968,0.0398 0.109304,0.14915 0.188989,0.18899 0.05634,0.0282 0.144441,-0.0446 0.188987,0 0.391022,0.39102 -0.597535,-0.0153 0.188989,0.37797 0.05634,0.0282 0.144441,-0.0445 0.188986,0 0.04455,0.0446 -0.04454,0.14445 0,0.18899 0.04455,0.0446 0.132644,-0.0282 0.18899,0 0.159369,0.0797 0.218606,0.29829 0.377975,0.37798 0.05635,0.0282 0.144444,-0.0446 0.18899,0 0.04454,0.0445 -0.04455,0.14444 0,0.18899 0.04454,0.0445 0.144441,-0.0446 0.188986,0 0.04454,0.0445 -0.04454,0.14444 0,0.18899 0.126368,0.12636 0.251608,-0.12637 0.377976,0 0.04454,0.0445 -0.04454,0.14444 0,0.18898 0.08909,0.0891 0.288888,-0.0891 0.377976,0 0.04454,0.0446 -0.04454,0.14445 0,0.18899 0.01855,0.0186 0.463574,0.0259 0.566965,0 0.193262,-0.0483 0.377976,-0.12599 0.566965,-0.18899 z"
       id="path2091"
       inkscape:connector-curvature="0" />
  </g>
</svg>
