<svg width="368.3mm" height="275.17mm" version="1.1" viewBox="0 0 368.3 275.17" xmlns="http://www.w3.org/2000/svg">
 <g fill="none" stroke="#000" stroke-width=".26458px">
  <path d="m112.39 67.097c.53453-.4009 1.0691-.80181 1.6036-1.2027.17818-.17818.33777-.37713.53454-.53454.0348-.02783.0966.02471.13364 0 .10483-.06989.16647-.19168.26726-.26727.0797-.05976.19684-.0632.26728-.13364.0315-.0315-.0315-.10214 0-.13363.0315-.0315.10213.0315.13363 0s-.0315-.10214 0-.13364c.0315-.0315.10214.0315.13363 0 .0315-.0315-.0315-.10214 0-.13364.0315-.0315.10214.0315.13364 0 .063-.063-.063-.20427 0-.26727.0315-.0315.10213.0315.13363 0 .004-.0043 0-.36849 0-.4009 0-.03241.004-.39661 0-.4009-.0315-.0315-.10213.0315-.13363 0s.0199-.09379 0-.13363c-.0564-.11269-.21093-.15458-.26727-.26727-.0199-.03984.0315-.10213 0-.13363-.0315-.0315-.10214.0315-.13363 0-.0315-.0315.0315-.10214 0-.13364-.063-.06299-.18759.03984-.26728 0-.0563-.02817-.0773-.10546-.13363-.13363-.35636 0 .0446.04454-.13363-.13364-.063-.063-.20428.06299-.26727 0-.0315-.0315.0315-.10214 0-.13364-.0315-.0315-.0938.01992-.13364 0-.0563-.02817-.0773-.10546-.13363-.13363-.0399-.01992-.0891 0-.13364 0-.0445-.04454-.0812-.09869-.13363-.13364-.0829-.05525-.17278-.10214-.26727-.13364-.0423-.01408-.10214.0315-.13364 0s.0399-.11371 0-.13363c-.0568-.0284-.55618 0-.66817 0-.093 0-.61985-.02416-.66818 0-.0563.02817-.0773.10546-.13363.13363-.084.042-.45055-.04199-.53454 0-.0563.02817-.0739.11372-.13363.13364-.00053.000201-.40078-.000127-.40091 0-.0315.0315.0315.10214 0 .13364-.0322.03216-.50238-.03216-.53454 0-.0315.0315.0315.10214 0 .13363-.063.063-.20427-.063-.26727 0-.0315.0315.0315.10214 0 .13364-.063.06299-.20427-.063-.26726 0-.0315.0315.0315.10214 0 .13364-.063.063-.20428-.063-.26728 0-.0315.0315.0141.09137 0 .13363-.0315.0945-.0784.18439-.13363.26727-.0769.11532-.29652.29653-.4009.4009-.0446.04454-.10547.07729-.13364.13364-.0199.03984.0199.09379 0 .13364-.0563.11269-.21092.15458-.26727.26727-.0398.07968.0398.18758 0 .26727-.0563.11269-.21092.15458-.26727.26727-.0398.07968.063.20427 0 .26727-.0315.0315-.10213-.0315-.13363 0-.0668.06682.0668.33409 0 .4009-.17818.17818-.13364-.22273-.13364.13363 0 .04908-.005.52916 0 .53454.0315.0315.10214-.0315.13364 0 .063.06299-.063.20427 0 .26727.0315.0315.10213-.0315.13363 0 .063.063-.063.20428 0 .26727.063.063.20427-.06299.26727 0 .0315.0315-.0315.10214 0 .13364.0315.0315.0938-.01992.13364 0 .0563.02817.0773.10546.13363.13363.0398.01992.10214-.0315.13364 0s-.0315.10214 0 .13364c.0668.06682.33408-.06682.4009 0 .0315.0315-.0315.10214 0 .13364.0469.04691.57587-.04615.66817 0 .0564.02817.0773.10546.13364.13363.0797.03984.18758-.03984.26727 0 .0563.02817.0773.10546.13363.13364.0407.02035.34072 0 .40091 0h.53454c.0891 0 .17991.01746.26727 0 .18009-.03602.35636-.08909.53454-.13364z"/>
  <path d="m296.4 68.3c.57907-.35636 1.1933-.66111 1.7372-1.0691.35277-.26458.62363-.62363.93544-.93544.0446-.04454.10546-.07729.13364-.13364.0198-.03984-.0198-.09379 0-.13364.0282-.05635.10546-.07729.13364-.13363.0198-.03984 0-.08909 0-.13364 0-.04454.0198-.09379 0-.13364-.0282-.05634-.10546-.07729-.13364-.13363-.0399-.07969.063-.20427 0-.26727-.0315-.0315-.10216.0315-.13364 0-.0315-.0315.0198-.0938 0-.13364-.0282-.05634-.10546-.07729-.13364-.13364-.0199-.03984.0315-.10214 0-.13363-.0315-.0315-.10213.0315-.13364 0-.0315-.0315.0315-.10214 0-.13364-.0315-.0315-.0938.01992-.13362 0-.1315-.06575-.40304-.46879-.53454-.53454-.0398-.01992-.0938.01992-.13364 0-.29548-.14774-.0415-.08294-.13364-.26727-.0657-.1315-.46879-.40304-.53454-.53454-.0198-.03984.0315-.10214 0-.13364-.0315-.0315-.10213.0315-.13364 0-.27649-.2765.42254.01082-.13361-.26727-.0399-.01992-.0938.01992-.13364 0-.0564-.02817-.0773-.10546-.13364-.13364-.0797-.03984-.20429.063-.26729 0-.0315-.0315.0315-.10214 0-.13363-.006-.0061-.60515 0-.66815 0-.0699 0-.4994-.01757-.53454 0-.0564.02817-.0773.10546-.13364.13363-.0398.01992-.0938-.01992-.13364 0-.0619.03094-.45593.45594-.53454.53454-.0445.04454-.0891.08909-.13364.13363-.0445.04454-.10546.07729-.13361.13364-.0198.03984 0 .08909 0 .13364-.0446.08909-.0784.18439-.13364.26727-.0349.05242-.10547.07729-.13364.13364-.0399.07968.0398.18758 0 .26727-.0282.05635-.10547.07729-.13364.13363-.0399.07968.0398.18759 0 .26727-.0282.05635-.10547.07729-.13365.13363-.0198.03984.0198.09379 0 .13364-.0282.05635-.10543.07729-.13361.13364-.0198.03984 0 .08909 0 .13363 0 .09472.0172.76726 0 .80181-.0282.05635-.10546.07729-.13364.13364-.0175.03514 0 .46466 0 .53454 0 .06988-.0175.4994 0 .53454.0282.05634.10546.07729.13364.13363.0399.07968-.063.20427 0 .26727.0315.0315.10213-.0315.13361 0 .0315.0315-.0198.0938 0 .13364.0282.05635.0891.08909.13365.13364.0446.04454.0773.10546.13364.13363.0398.01992.10213-.0315.13364 0 .0315.0315-.0315.10214 0 .13364.063.063.20426-.063.26725 0 .0315.0315-.0315.10214 0 .13364.0315.0315.0891 0 .13364 0h.80182.13362c.0446 0 .10215.0315.13364 0 .0315-.0315-.0315-.10214 0-.13364.0315-.0315.0891 0 .13364 0h.13364.53454z"/>
  <path d="m350.92 83.401c.3929-2.9467.32334-1.0428.13364-2.94 0-1.2473.13361-.13364-.13364-.4009-.063-.063.063-.20427 0-.26727-.0315-.0315-.10213.0315-.13364 0-.27649-.2765.42251.01082-.13364-.26727-.0351-.01757-.46467 0-.53454 0-.0445 0-.10213-.0315-.13362 0-.0315.0315.0315.10214 0 .13363-.063.063-.18759-.03984-.26728 0-.0564.02817-.0773.10546-.13364.13364-.0797.03984-.18759-.03984-.26726 0-.0564.02817-.0773.10546-.13364.13364-.0398.01992-.10213-.0315-.13364 0-.0315.0315.0399.11371 0 .13363-.0797.03984-.18759-.03984-.26725 0-.0399.01992.0398.11372 0 .13364-.0797.03984-.18275-.02817-.26729 0-.0598.01992-.0773.10546-.13364.13363-.0398.01992-.10213-.0315-.13361 0-.0315.0315.0315.10214 0 .13364-.0315.0315-.10216-.0315-.13364 0-.0315.0315.0315.10214 0 .13364-.0315.0315-.10213-.0315-.13364 0-.0315.0315.0315.10214 0 .13363-.0315.0315-.10213-.0315-.13364 0-.0668.06682.0668.33409 0 .4009-.0315.0315-.10213-.0315-.13362 0-.0188.01884-.0138.37349 0 .4009.0281.05634.10546.07729.13362.13364.0362.07249-.0366.49797 0 .53454.0315.0315.10215-.0315.13364 0 .063.063-.0399.18759 0 .26727.0282.05635.10546.07729.13364.13364 0 .35636-.0446-.04455.13364.13364.0315.0315-.0315.10214 0 .13363.0315.0315.10213-.0315.13361 0 .0315.0315-.0315.10214 0 .13364.063.063.20429-.063.26729 0 .0315.0315-.0315.10214 0 .13364.063.063.20428-.063.26725 0 .0315.0315-.0315.10213 0 .13363.063.063.20429-.063.26728 0 .0315.0315-.0315.10214 0 .13364.063.063.20429-.063.26729 0 .0315.0315-.0315.10214 0 .13363.0668.06682.33406-.06682.40089 0 .0315.0315-.0315.10214 0 .13364.0315.0315.0891 0 .13364 0 .50538 0 .32676.03707.93544-.26727z"/>
  <path d="m180.94 218.24c.26727-.66818.56407-1.3253.80181-2.0045.075-.21438.0618-.45269.13363-.66817.0199-.0598.10546-.0773.13364-.13363.009-.0183.009-.78356 0-.80181-.0282-.0564-.10547-.0773-.13364-.13364-.0199-.0398.0315-.10214 0-.13363-.0315-.0315-.10214.0315-.13363 0-.0315-.0315.0199-.0938 0-.13364-.0282-.0563-.10547-.0773-.13364-.13363-.0199-.0398.0315-.10214 0-.13364s-.10213.0315-.13363 0 .0315-.10213 0-.13363-.10214.0315-.13364 0 .0315-.10214 0-.13364-.10214.0315-.13363 0c-.0315-.0315.0315-.10213 0-.13363s-.10214.0315-.13364 0c-.27649-.2765.42252.0108-.13363-.26727-.0398-.0199-.0938.0199-.13364 0-.0563-.0282-.0773-.10546-.13363-.13364-.0398-.0199-.0938.0199-.13364 0-.0563-.0282-.0773-.10546-.13363-.13363-.0797-.0398-.18758.0398-.26727 0-.0563-.0282-.0773-.10546-.13364-.13364-.1069-.0535-.29399.0535-.4009 0-.0564-.0282-.0773-.10546-.13364-.13363-.0351-.0176-.46465 0-.53453 0-.0699 0-.4994-.0176-.53454 0-.0564.0282-.0773.10546-.13364.13363-.1069.0535-.29399-.0535-.4009 0-.0564.0282-.0773.10547-.13364.13364-.0398.0199-.10213-.0315-.13363 0s.0315.10214 0 .13363c-.0315.0315-.10214-.0315-.13364 0s.0199.0938 0 .13364c-.0282.0563-.10546.0773-.13363.13363-.0297.0595.0204.47342 0 .53454-.0199.0598-.11371.0739-.13363.13364-.0246.0739 0 .66723 0 .80181v.8018.13364c0 .0445-.0199.0938 0 .13363.0282.0563.10546.0773.13363.13364.0398.0797-.0398.18758 0 .26727.0282.0563.10546.0773.13363.13363.0399.0797-.0398.18759 0 .26727.0282.0564.10547.0773.13364.13364.0199.0398-.0315.10213 0 .13363s.10214-.0315.13363 0c.063.063-.0398.18759 0 .26727.0282.0564.10547.0773.13364.13364.0199.0398-.0315.10213 0 .13363s.10214-.0315.13363 0c.063.063-.063.20427 0 .26727.0315.0315.10214-.0315.13364 0 .063.063-.063.20427 0 .26727.0315.0315.10213-.0315.13363 0s-.0315.10214 0 .13364.10214-.0315.13364 0-.0315.10213 0 .13363c.063.063.20427-.063.26727 0 .0315.0315-.0315.10214 0 .13363.0273.0273.34792-.0265.4009 0 .0563.0282.0773.10547.13364.13364.0797.0398.20427-.063.26726 0 .0315.0315-.0315.10214 0 .13363.004.004.3685 0 .40091 0 .0445 0 .10214.0315.13363 0 .0315-.0315-.0315-.10213 0-.13363.0668-.0668.33409.0668.40091 0 .0315-.0315 0-.0891 0-.13364.17818-.0891.35636-.17817.53454-.26726z"/>
  <path d="m262.73 202.07c.40091-.57909.80181-1.1582 1.2027-1.7372.0445 0 .10213.0315.13363 0 .15749-.15749.26177-.36062.4009-.53454.0394-.0492.0739-.11372.13363-.13364.0845-.0282.18759.0398.26729 0 .0398-.0199-.0315-.10213 0-.13363.0414-.0414.62679.0414.66817 0 .0315-.0315-.0315-.10214 0-.13364.0273-.0273.34791.0265.4009 0 .0563-.0282.0773-.10546.13364-.13363.0797-.0398.18757.0398.26726 0 .0564-.0282.0773-.10546.13364-.13364.0399-.0199.10213.0315.13364 0 .004-.004 0-.36849 0-.4009 0-.0699.0175-.4994 0-.53454-.0282-.0563-.10546-.0773-.13364-.13363-.0198-.0399.0198-.0938 0-.13364-.0282-.0563-.10546-.0773-.13364-.13363-.0198-.0399.0198-.0938 0-.13364-.0177-.0355-.36542-.38316-.4009-.4009-.0399-.0199-.10213.0315-.13364 0-.0315-.0315.0315-.10214 0-.13364-.063-.063-.20428.063-.26726 0-.0315-.0315.0315-.10213 0-.13363-.0668-.0668-.33408.0668-.40092 0-.0315-.0315.0315-.10214 0-.13364-.005-.005-.48546 0-.53454 0-.0445 0-.10213.0315-.13363 0s.0315-.10213 0-.13363-.0891 0-.13363 0c-.0446 0-.0938-.0199-.13364 0-.0563.0282-.0773.10546-.13363.13363-.084.042-.45055-.042-.53454 0-.0563.0282-.0739.11372-.13363.13364-.60835 0-.008-.063-.40091.13363-.0398.0199-.0891 0-.13363 0-.0891 0-.18276-.0282-.26727 0-.0598.0199-.0812.0987-.13364.13364-.0673.29442-.27491.0706-.4009.13363-.0564.0282-.0773.10546-.13364.13364-.0398.0199-.0938-.0199-.13363 0-.11269.0563-.15458.21092-.26727.26727-.0398.0199-.0938-.0199-.13364 0-.16036.0802-.24054.32072-.4009.4009-.0398.0199-.10214-.0315-.13364 0s.0315.10214 0 .13363c-.0315.0315-.0938-.0199-.13363 0-.0355.0177-.38316.36543-.4009.40091-.0199.0398.0315.10214 0 .13363-.0315.0315-.10214-.0315-.13364 0-.004.004 0 .3685 0 .40091 0 .0324-.004.3966 0 .4009.0315.0315.10214-.0315.13364 0s-.0199.0938 0 .13364c.0282.0563.10546.0773.13363.13363.0199.0398-.0315.10214 0 .13364s.10214-.0315.13364 0-.0315.10213 0 .13363.10213-.0315.13363 0-.0315.10214 0 .13364.0938-.0199.13363 0c.1127.0563.15458.21092.26728.26727.0398.0199.10213-.0315.13363 0s-.0199.0938 0 .13363c.0563.11269.21092.15458.26727.26727.0199.0398-.0315.10214 0 .13363.0315.0315.10214-.0315.13363 0 .0315.0315-.0315.10214 0 .13364s.10214-.0315.13364 0-.0315.10214 0 .13364.10214-.0315.13363 0c.0315.0315-.0315.10213 0 .13363s.10214-.0315.13364 0-.0315.10214 0 .13363c.0315.0315.10214-.0315.13363 0 .0315.0315 0 .0891 0 .13364.17818.0891.35636.17818.53454.26727z"/>
  <path d="m345.18 223.45c.40089-.57908.87468-1.114 1.2027-1.7372.2127-.40411.13364-1.2313.13364-1.7372v-.80181c0-.0602.0204-.36024 0-.40091-.0282-.0563-.10546-.0773-.13364-.13363-.0398-.0797.063-.20427 0-.26727-.0315-.0315-.10213.0315-.13364 0-.063-.063.063-.20427 0-.26727-.0315-.0315-.10213.0315-.13364 0-.063-.063.063-.20427 0-.26727-.0315-.0315-.10213.0315-.13361 0-.0315-.0315.0198-.0938 0-.13364-.0282-.0563-.10547-.0773-.13364-.13363-.0199-.0398.0315-.10214 0-.13363-.0315-.0315-.10213.0315-.13364 0-.0315-.0315.0198-.0938 0-.13364-.0282-.0563-.0891-.0891-.13365-.13363-.0445-.0446-.0773-.10547-.13361-.13364-.0399-.0199-.0938.0199-.13364 0-.0564-.0282-.0773-.10546-.13364-.13363-.0399-.0199-.10213.0315-.13364 0-.0315-.0315.0315-.10214 0-.13364-.0668-.0668-.33409.0668-.4009 0-.0315-.0315.0315-.10213 0-.13363s-.0891 0-.13364 0h-.93544-.80182c-.0445 0-.10212-.0315-.13361 0-.0315.0315.0315.10213 0 .13363-.0668.0668-.33409-.0668-.40092 0-.0315.0315.0315.10214 0 .13364s-.0938-.0199-.13362 0c-.11271.0563-.15459.21092-.26728.26727-.0399.0199-.10213-.0315-.13364 0-.0315.0315.0315.10213 0 .13363s-.10213-.0315-.13362 0c-.063.063.063.20427 0 .26727-.0315.0315-.10215-.0315-.13364 0-.063.063.063.20427 0 .26727-.0315.0315-.10215-.0315-.13364 0-.063.063.063.20427 0 .26727-.0315.0315-.10213-.0315-.13364 0-.0315.0315.0315.10214 0 .13364s-.10213-.0315-.13364 0c-.0315.0315.0315.10213 0 .13363s-.10213-.0315-.13361 0c-.0315.0315.0315.10214 0 .13363-.0315.0315-.10216-.0315-.13365 0-.0315.0315.0315.10214 0 .13364-.063.063-.20428-.063-.26728 0-.0315.0315.0315.10214 0 .13363-.0315.0315-.10213-.0315-.13361 0-.0315.0315.0315.10214 0 .13364s-.10216-.0315-.13364 0c-.005.005 0 .48546 0 .53454 0 .0445-.0315.10213 0 .13363s.10213-.0315.13364 0c.004.004 0 .3685 0 .40091 0 .53453-.0446-.22273.13361.13363.041.082-.0414.58533 0 .66818.0282.0563.11372.0739.13364.13363.0282.0845-.0398.18759 0 .26727.0199.0398.10213-.0315.13364 0 .0315.0315-.0315.10213 0 .13363s.10213-.0315.13365 0c.0315.0315-.0199.0938 0 .13364.0282.0563.10546.0773.13361.13363.0198.0399-.0315.10214 0 .13364s.0938-.0199.13364 0c.11269.0563.1546.21092.26728.26727.0399.0199.0938-.0199.13364 0 .0563.0282.0812.0987.13362.13363.0829.0553.18439.0784.26728.13364.10483.0699.15457.21092.26726.26727.0398.0199.0938-.0199.13364 0 .0564.0282.0773.10546.13364.13363.35637 0-.0446-.0445.13364.13364.063.063.20426-.063.26726 0 .0315.0315-.0315.10213 0 .13363.0891.089.17822-.089.26728 0 .0315.0315-.0315.10214 0 .13364.0668.0668.33409-.0668.40089 0 .0315.0315-.0315.10213 0 .13363.0414.0414.6268-.0414.66818 0 .0315.0315-.0315.10214 0 .13364s.0938-.0199.13364 0c.0563.0282.0773.10546.13362.13363.0398.0199.0891 0 .13364 0h.53454z"/>
  <path d="m89.001 235.34c.62363.17818 1.2377.39385 1.8709.53454h.53454c0-.0445-.04226-.11955 0-.13363.12678-.0423.27413.0423.4009 0 .04226-.0141-.0315-.10214 0-.13364s.09138.0141.13364 0c.09449-.0315.17278-.10213.26727-.13363.04226-.0141.10214.0315.13363 0 .0315-.0315-.0315-.10214 0-.13364s.08909 0 .13364 0c0-.0445-.0315-.10213 0-.13363s.10214.0315.13364 0c.063-.063-.063-.20427 0-.26727.0315-.0315.10214.0315.13363 0 .0315-.0315-.0315-.10214 0-.13363.0315-.0315.10214.0315.13364 0 .0315-.0315-.0315-.10214 0-.13364.06299-.063.20427.063.26727 0 .0315-.0315-.0315-.10214 0-.13364.063-.063.18759.0399.26727 0 .05635-.0282.07729-.10546.13364-.13363.03984-.0199.09379.0199.13364 0 .11269-.0563.15458-.21092.26727-.26727.03984-.0199.10214.0315.13364 0 .0315-.0315-.0315-.10213 0-.13363s.10213.0315.13363 0c.063-.063-.063-.20428 0-.26727.0315-.0315.10214.0315.13364 0 .0315-.0315 0-.0891 0-.13364v-.66817c0-.0446.0315-.10214 0-.13364s-.10214.0315-.13364 0c-.0315-.0315.0315-.10213 0-.13363s-.10214.0315-.13363 0c-.2765-.2765.42252.0108-.13364-.26727-.03984-.0199-.10214.0315-.13364 0-.0315-.0315.0315-.10214 0-.13363-.0315-.0315-.09379.0199-.13363 0-.05635-.0282-.07729-.10547-.13364-.13364-.07968-.0398-.20427.063-.26727 0-.0315-.0315.0315-.10214 0-.13364-.063-.063-.18758.0399-.26727 0-.05635-.0282-.07729-.10546-.13364-.13363-.07968-.0398-.18758.0398-.26727 0-.05635-.0282-.07387-.11371-.13364-.13363-.08452-.0282-.18758.0398-.26727 0-.03984-.0199.0315-.10214 0-.13364-.063-.063-.18758.0398-.26727 0-.06188-.0309-.45594-.45594-.53454-.53454-.07035-.0704-.36522-.32953-.4009-.4009-.01992-.0398.0315-.10214 0-.13364s-.10214.0315-.13363 0c-.0315-.0315.0315-.10213 0-.13363s-.10214.0315-.13364 0c-.0315-.0315.0315-.10214 0-.13364s-.09379.0199-.13364 0c-.05635-.0282-.07729-.10546-.13363-.13363-.03984-.0199-.09379.0199-.13364 0-.05635-.0282-.07729-.10546-.13364-.13364-.07968-.0398-.18758.0398-.26727 0-.05635-.0282-.07729-.10546-.13363-.13363-.03984-.0199-.08909 0-.13364 0h-.13364-.80181c-.04455 0-.10214-.0315-.13364 0-.0315.0315.0315.10213 0 .13363s-.10214-.0315-.13364 0c-.04691.0469.04615.57587 0 .66818-.02817.0563-.11371.0739-.13363.13363-.02463.0739 0 .66723 0 .80181v1.7372c0 .0699-.01757.4994 0 .53454.02817.0563.10546.0773.13363.13364.03984.0797-.03984.18758 0 .26727.02817.0563.10546.0773.13364.13363.03984.0797-.063.20427 0 .26727.0315.0315.10214-.0315.13364 0 .0315.0315-.01992.0938 0 .13364.02817.0563.08909.0891.13363.13363.04455.13364.08909.26727.13364.4009z"/>
 </g>
</svg>
