<?xml version="1.0" encoding="UTF-8" standalone="no"?>
<!-- Created with Inkscape (http://www.inkscape.org/) -->

<svg
   xmlns:dc="http://purl.org/dc/elements/1.1/"
   xmlns:cc="http://creativecommons.org/ns#"
   xmlns:rdf="http://www.w3.org/1999/02/22-rdf-syntax-ns#"
   xmlns:svg="http://www.w3.org/2000/svg"
   xmlns="http://www.w3.org/2000/svg"
   xmlns:sodipodi="http://sodipodi.sourceforge.net/DTD/sodipodi-0.dtd"
   xmlns:inkscape="http://www.inkscape.org/namespaces/inkscape"
   width="169.33333mm"
   height="127mm"
   viewBox="0 0 169.33333 127"
   version="1.1"
   id="svg874"
   inkscape:version="0.92.4 (5da689c313, 2019-01-14)"
   sodipodi:docname="2_3_endotelio.svg">
  <defs
     id="defs868" />
  <sodipodi:namedview
     id="base"
     pagecolor="#ffffff"
     bordercolor="#666666"
     borderopacity="1.0"
     inkscape:pageopacity="0.0"
     inkscape:pageshadow="2"
     inkscape:zoom="1.4"
     inkscape:cx="311.2931"
     inkscape:cy="230.5319"
     inkscape:document-units="mm"
     inkscape:current-layer="layer4"
     showgrid="false"
     fit-margin-top="0"
     fit-margin-left="0"
     fit-margin-right="0"
     fit-margin-bottom="0"
     inkscape:window-width="1920"
     inkscape:window-height="1001"
     inkscape:window-x="-9"
     inkscape:window-y="-9"
     inkscape:window-maximized="1" />
  <metadata
     id="metadata871">
    <rdf:RDF>
      <cc:Work
         rdf:about="">
        <dc:format>image/svg+xml</dc:format>
        <dc:type
           rdf:resource="http://purl.org/dc/dcmitype/StillImage" />
        <dc:title></dc:title>
      </cc:Work>
    </rdf:RDF>
  </metadata>
  <g
     inkscape:groupmode="layer"
     id="layer4"
     inkscape:label="endotelio">
    <path
       style="fill:none;stroke:#000000;stroke-width:0.99999994px;stroke-linecap:butt;stroke-linejoin:miter;stroke-opacity:1"
       d="M 0 0.71484375 L 0 49.285156 C 0.084179376 49.369336 0.042089688 49.506098 0 49.642578 L 0 50 C 0.33671751 50.336718 1.091017 49.663282 1.4277344 50 C 1.5960931 50.168355 1.2593757 50.546504 1.4277344 50.714844 C 1.7644519 51.051562 2.4315041 50.501867 2.8574219 50.714844 C 3.1585912 50.865431 3.2710962 51.277158 3.5722656 51.427734 C 3.7852244 51.534204 4.1167972 51.259356 4.2851562 51.427734 C 4.4535153 51.596093 4.1167972 51.9742 4.2851562 52.142578 C 4.4535149 52.310918 4.8316409 51.9742 5 52.142578 C 5.1683591 52.310933 4.8316409 52.689082 5 52.857422 C 5.3367174 53.19414 6.0910163 52.520704 6.4277344 52.857422 C 6.5960934 53.025781 6.2593753 53.403925 6.4277344 53.572266 C 6.5960934 53.740644 6.9742191 53.403925 7.1425781 53.572266 C 7.3109372 53.740625 6.9742191 54.116816 7.1425781 54.285156 C 7.4792959 54.621874 8.2355475 53.948438 8.5722656 54.285156 C 8.7406247 54.453515 8.4039066 54.83166 8.5722656 55 C 8.7406243 55.168378 9.1167972 54.83166 9.2851562 55 C 9.4535153 55.168359 9.1167972 55.546504 9.2851562 55.714844 C 9.4535149 55.883184 9.7870425 55.608374 10 55.714844 C 10.301169 55.865428 10.413672 56.277158 10.714844 56.427734 C 10.927803 56.534204 11.259375 56.259394 11.427734 56.427734 C 11.596093 56.596093 11.259375 56.974238 11.427734 57.142578 C 12.380115 58.094974 12.142578 55.952661 12.142578 57.857422 C 12.479296 58.19414 13.235548 57.520704 13.572266 57.857422 C 13.740625 58.025781 13.403907 58.403888 13.572266 58.572266 C 13.908983 58.908984 14.574082 58.359289 15 58.572266 C 15.301169 58.722853 15.413672 59.13458 15.714844 59.285156 C 16.140761 59.498133 16.71666 59.07218 17.142578 59.285156 C 17.443747 59.43574 17.556254 59.849424 17.857422 60 C 18.306366 60.224466 20.265899 59.775534 20.714844 60 C 21.016013 60.150584 21.126567 60.564267 21.427734 60.714844 C 21.999163 61.000538 23.000837 60.429149 23.572266 60.714844 C 23.873435 60.865428 23.983988 61.277158 24.285156 61.427734 C 24.568365 61.569353 26.281709 61.281693 26.427734 61.427734 C 26.596093 61.596093 26.259375 61.974238 26.427734 62.142578 C 26.784877 62.499706 28.215123 61.785451 28.572266 62.142578 C 28.740625 62.310937 28.403907 62.689082 28.572266 62.857422 C 28.908983 63.19414 29.663282 62.520704 30 62.857422 C 30.168359 63.025781 29.831641 63.403925 30 63.572266 C 30.146026 63.718307 31.859371 63.430647 32.142578 63.572266 C 32.443747 63.72285 32.556254 64.13458 32.857422 64.285156 C 33.14063 64.426775 34.853974 64.139115 35 64.285156 C 35.168359 64.453515 34.831641 64.83166 35 65 C 35.146026 65.146041 36.859371 64.858381 37.142578 65 C 37.443747 65.150584 37.556254 65.564267 37.857422 65.714844 C 38.140629 65.856463 39.853959 65.568803 40 65.714844 C 40.168378 65.883203 39.83166 66.259394 40 66.427734 C 40.336718 66.764452 41.001819 66.214758 41.427734 66.427734 C 41.728906 66.578318 41.841425 66.992002 42.142578 67.142578 C 42.568497 67.355555 43.235548 66.80586 43.572266 67.142578 C 43.740606 67.310933 43.403925 67.689082 43.572266 67.857422 C 43.90898 68.19414 44.574081 67.644445 45 67.857422 C 45.301168 68.008006 45.413691 68.421689 45.714844 68.572266 C 45.927801 68.678735 46.214758 68.465796 46.427734 68.572266 C 46.728902 68.72285 46.841425 69.13458 47.142578 69.285156 C 47.355536 69.391626 47.644445 69.178687 47.857422 69.285156 C 48.158594 69.43574 48.271113 69.849424 48.572266 70 C 48.785227 70.106469 49.116816 69.83166 49.285156 70 C 49.453534 70.168359 49.116816 70.546466 49.285156 70.714844 C 49.453515 70.883184 49.787024 70.608374 50 70.714844 C 50.301168 70.865428 50.413653 71.277158 50.714844 71.427734 C 50.927801 71.534204 51.259356 71.259394 51.427734 71.427734 C 51.596075 71.596093 51.259356 71.974238 51.427734 72.142578 C 51.596093 72.310956 51.929602 72.036109 52.142578 72.142578 C 52.443746 72.293162 52.556269 72.706845 52.857422 72.857422 C 53.070379 72.963891 53.403925 72.689082 53.572266 72.857422 C 53.740644 73.025781 53.403925 73.403925 53.572266 73.572266 C 53.740625 73.740644 54.116816 73.403925 54.285156 73.572266 C 54.453534 73.740625 54.116816 74.116778 54.285156 74.285156 C 54.453515 74.453496 54.787024 74.178687 55 74.285156 C 55.38149 74.475898 56.766515 76.051671 57.142578 76.427734 L 57.857422 77.142578 C 58.095517 77.380673 58.421689 77.556269 58.572266 77.857422 C 58.678735 78.070379 58.403925 78.403925 58.572266 78.572266 C 58.740621 78.740606 59.116816 78.403925 59.285156 78.572266 C 59.453496 78.740625 59.178687 79.07218 59.285156 79.285156 C 59.43574 79.586328 59.849424 79.698847 60 80 C 60.212976 80.425919 59.787024 81.001819 60 81.427734 C 60.150584 81.728906 60.564267 81.841425 60.714844 82.142578 C 60.821313 82.355536 60.608374 82.644445 60.714844 82.857422 C 60.865428 83.15859 61.277158 83.271113 61.427734 83.572266 C 61.534204 83.785223 61.321265 84.07218 61.427734 84.285156 C 61.578318 84.586324 61.904468 84.76189 62.142578 85 C 62.380673 85.238095 62.556269 85.564267 62.857422 85.714844 C 63.070383 85.821313 63.403925 85.546466 63.572266 85.714844 C 63.740606 85.883203 63.403925 86.259394 63.572266 86.427734 C 63.740625 86.596075 64.07218 86.321265 64.285156 86.427734 C 64.586328 86.578318 64.698847 86.992002 65 87.142578 C 65.425919 87.355555 66.001816 86.92964 66.427734 87.142578 C 66.728902 87.293162 66.841425 87.706845 67.142578 87.857422 C 67.564018 88.068131 68.793848 87.693655 69.285156 87.857422 C 69.790233 88.025781 70.20977 88.403925 70.714844 88.572266 C 71.206152 88.736033 72.435978 88.361557 72.857422 88.572266 C 73.15859 88.722853 73.271075 89.13458 73.572266 89.285156 C 73.785223 89.391626 74.047046 89.285156 74.285156 89.285156 C 74.761346 89.285156 75.263088 89.13458 75.714844 89.285156 C 76.034282 89.391633 76.126582 89.849424 76.427734 90 C 76.853653 90.212976 77.431503 89.787024 77.857422 90 C 78.15859 90.150584 78.271113 90.564267 78.572266 90.714844 C 78.959758 90.908582 81.232295 90.519404 81.427734 90.714844 C 81.596075 90.883203 81.259394 91.259394 81.427734 91.427734 C 81.59609 91.596075 81.904468 91.427734 82.142578 91.427734 C 82.639389 91.427734 85.456551 91.298588 85.714844 91.427734 C 86.016015 91.578318 86.126582 91.992002 86.427734 92.142578 C 86.587828 92.222629 89.115418 92.142578 89.285156 92.142578 L 95 92.142578 C 95.321687 92.142578 96.92518 92.033879 97.142578 92.142578 C 97.443746 92.293162 97.556231 92.706845 97.857422 92.857422 C 98.24491 93.05116 100.5194 92.661983 100.71484 92.857422 C 100.88318 93.025781 100.5465 93.403925 100.71484 93.572266 C 100.8832 93.740606 101.18962 93.572266 101.42773 93.572266 C 101.92455 93.572266 104.74167 93.443119 105 93.572266 C 105.30117 93.72285 105.41369 94.13458 105.71484 94.285156 C 105.97315 94.414303 108.78834 94.285156 109.28516 94.285156 C 109.78198 94.285156 112.59909 94.414303 112.85742 94.285156 C 114.62271 93.402531 112.61004 93.572266 114.28516 93.572266 L 122.14258 93.572266 C 122.63939 93.572266 125.45655 93.701412 125.71484 93.572266 C 126.01602 93.421682 126.12654 93.007998 126.42773 92.857422 C 126.86147 92.640553 130.28111 93.074291 130.71484 92.857422 C 131.01602 92.706838 131.12658 92.293155 131.42773 92.142578 C 131.61555 92.048657 133.91166 92.142578 134.28516 92.142578 L 141.42773 92.142578 L 150 92.142578 C 150.49681 92.142578 153.31397 92.013432 153.57227 92.142578 C 153.87344 92.293162 153.984 92.706845 154.28516 92.857422 C 154.71889 93.074291 158.13853 92.640553 158.57227 92.857422 C 158.87344 93.008006 158.984 93.421689 159.28516 93.572266 C 159.85658 93.85796 160.8563 93.286571 161.42773 93.572266 C 161.7289 93.72285 161.84143 94.13458 162.14258 94.285156 C 162.90297 94.665354 162.81186 93.904958 163.57227 94.285156 C 163.87343 94.43574 163.984 94.849424 164.28516 95 C 164.85659 95.285732 165.8563 94.714306 166.42773 95 C 166.72891 95.150584 166.84143 95.564267 167.14258 95.714844 C 167.59152 95.93931 169.55106 95.490378 170 95.714844 C 170.30117 95.865431 170.41369 96.277158 170.71484 96.427734 C 171.28627 96.713467 172.28599 96.14204 172.85742 96.427734 C 173.15859 96.578322 173.27111 96.992002 173.57227 97.142578 C 174.33265 97.522776 174.2396 96.76238 175 97.142578 C 175.30117 97.293162 175.41365 97.706845 175.71484 97.857422 C 176.75348 98.376745 176.53394 97.980147 176.33398 97.730469 C 176.44525 97.85588 176.62559 98.055279 177.14258 98.572266 C 177.5685 98.785242 178.23555 98.235548 178.57227 98.572266 C 178.74061 98.740625 178.40389 99.116778 178.57227 99.285156 C 178.90898 99.621874 179.57408 99.07218 180 99.285156 C 180.30117 99.43574 180.41369 99.849424 180.71484 100 C 180.92779 100.10647 181.21476 99.893531 181.42773 100 C 181.72891 100.15058 181.84143 100.56427 182.14258 100.71484 C 182.5685 100.92778 183.23555 100.37813 183.57227 100.71484 C 183.74061 100.8832 183.40393 101.25939 183.57227 101.42773 C 183.90899 101.76445 184.57408 101.21476 185 101.42773 C 185.30117 101.57832 185.41369 101.992 185.71484 102.14258 C 186.14075 102.35555 186.80586 101.80586 187.14258 102.14258 C 187.31092 102.31094 186.97424 102.68904 187.14258 102.85742 C 187.47929 103.19414 188.23555 102.5207 188.57227 102.85742 C 188.74061 103.02578 188.40393 103.40393 188.57227 103.57227 C 188.74062 103.74061 189.07222 103.4658 189.28516 103.57227 C 189.58633 103.72285 189.76189 104.04708 190 104.28516 C 190.2381 104.28516 190.50187 104.17869 190.71484 104.28516 C 191.31717 104.58633 191.54024 105.41369 192.14258 105.71484 C 192.35554 105.82131 192.64445 105.60837 192.85742 105.71484 C 193.45976 106.016 193.68283 106.84139 194.28516 107.14258 C 194.49812 107.24905 194.78702 107.03611 195 107.14258 C 195.60234 107.44375 195.82539 108.27111 196.42773 108.57227 C 196.6407 108.67873 196.9296 108.4658 197.14258 108.57227 C 197.44375 108.72285 197.55623 109.13458 197.85742 109.28516 C 198.07038 109.39163 198.35929 109.17869 198.57227 109.28516 C 198.87344 109.43575 198.984 109.84942 199.28516 110 C 199.49811 110.10647 199.78702 109.89353 200 110 C 200.30117 110.15058 200.41369 110.56427 200.71484 110.71484 C 201.14075 110.92778 201.80586 110.37813 202.14258 110.71484 C 202.31092 110.88319 201.97424 111.25939 202.14258 111.42773 C 202.47929 111.76445 203.14635 111.21476 203.57227 111.42773 C 203.87343 111.57833 203.984 111.992 204.28516 112.14258 C 204.49812 112.24905 204.78702 112.03611 205 112.14258 C 205.30117 112.29316 205.41365 112.70685 205.71484 112.85742 C 206.14075 113.0704 206.80586 112.5207 207.14258 112.85742 C 207.31092 113.02578 206.9742 113.40393 207.14258 113.57227 C 207.47929 113.90898 208.23555 113.23555 208.57227 113.57227 C 208.74064 113.74062 208.40393 114.11682 208.57227 114.28516 C 208.74063 114.4535 209.07222 114.17869 209.28516 114.28516 C 209.58633 114.43574 209.69885 114.84942 210 115 C 210.21296 115.10647 210.54647 114.83166 210.71484 115 C 210.88318 115.16836 210.54647 115.5465 210.71484 115.71484 C 211.05155 116.05156 211.80586 115.37813 212.14258 115.71484 C 212.31096 115.8832 211.97424 116.25939 212.14258 116.42773 C 212.47929 116.76445 213.23555 116.09102 213.57227 116.42773 C 213.74061 116.59609 213.40393 116.97424 213.57227 117.14258 C 213.90899 117.4793 214.57408 116.9296 215 117.14258 C 215.30117 117.29316 215.41369 117.70685 215.71484 117.85742 C 215.92779 117.96389 216.21476 117.75095 216.42773 117.85742 C 216.7289 118.00801 216.84139 118.42169 217.14258 118.57227 C 217.35554 118.67873 217.64445 118.4658 217.85742 118.57227 C 218.15859 118.72285 218.27111 119.13458 218.57227 119.28516 C 218.78522 119.39163 219.11682 119.11682 219.28516 119.28516 C 219.45353 119.45352 219.11682 119.83162 219.28516 120 C 219.45352 120.16834 219.78702 119.89353 220 120 C 220.30117 120.15058 220.41365 120.56427 220.71484 120.71484 C 220.99804 120.85646 222.71142 120.5688 222.85742 120.71484 C 223.02576 120.88319 222.68908 121.25939 222.85742 121.42773 C 223.00345 121.57378 224.7168 121.28615 225 121.42773 C 225.30117 121.57833 225.41369 121.992 225.71484 122.14258 C 225.99804 122.28416 227.71138 121.99654 227.85742 122.14258 C 228.02576 122.31094 227.68904 122.68904 227.85742 122.85742 C 228.02578 123.02576 228.33416 122.85742 228.57227 122.85742 C 229.24501 122.85742 231.73625 122.72196 232.14258 122.85742 C 232.46202 122.9639 232.55627 123.42169 232.85742 123.57227 C 233.29115 123.78913 236.70885 123.3554 237.14258 123.57227 C 237.44375 123.72285 237.55627 124.13458 237.85742 124.28516 C 238.28334 124.49813 238.85925 124.07222 239.28516 124.28516 C 239.58633 124.43575 239.69885 124.84942 240 125 C 240.28321 125.14158 241.99654 124.85396 242.14258 125 C 242.31092 125.16836 241.97424 125.5465 242.14258 125.71484 C 242.49972 126.07197 243.92803 125.35768 244.28516 125.71484 C 244.4535 125.8832 244.11682 126.25936 244.28516 126.42773 C 244.64231 126.78486 246.07061 126.07061 246.42773 126.42773 C 246.59607 126.59609 246.25936 126.97424 246.42773 127.14258 C 246.76445 127.4793 247.43151 126.9296 247.85742 127.14258 C 248.15859 127.29316 248.27108 127.70685 248.57227 127.85742 C 248.99818 128.0704 249.57408 127.64445 250 127.85742 C 250.30117 128.00801 250.41369 128.42169 250.71484 128.57227 C 251.14075 128.78524 251.80586 128.23555 252.14258 128.57227 C 252.31092 128.74062 251.9742 129.11682 252.14258 129.28516 C 252.47928 129.62187 253.23555 128.94844 253.57227 129.28516 C 253.74064 129.45352 253.40393 129.83162 253.57227 130 C 253.90899 130.33672 254.57408 129.78702 255 130 C 255.30117 130.15058 255.41369 130.56427 255.71484 130.71484 C 255.92779 130.82131 256.21476 130.60837 256.42773 130.71484 C 256.72891 130.86542 256.84143 131.27716 257.14258 131.42773 C 257.35554 131.5342 257.64445 131.32127 257.85742 131.42773 C 258.45976 131.7289 258.68282 132.55627 259.28516 132.85742 C 259.49811 132.96389 259.83166 132.68904 260 132.85742 C 260.16834 133.02578 259.83166 133.40389 260 133.57227 C 260.16836 133.74061 260.5465 133.40389 260.71484 133.57227 C 260.88318 133.74062 260.60837 134.07222 260.71484 134.28516 C 261.14342 135.14231 262.42885 135.57059 262.85742 136.42773 C 262.96389 136.6407 262.68908 136.9742 262.85742 137.14258 C 263.02578 137.31092 263.40389 136.9742 263.57227 137.14258 C 263.74061 137.31094 263.40389 137.68904 263.57227 137.85742 C 263.74062 138.02576 264.11682 137.68904 264.28516 137.85742 C 264.4535 138.02578 264.17869 138.35929 264.28516 138.57227 C 264.43575 138.87344 264.76193 139.04705 265 139.28516 C 265.2381 139.52326 265.56427 139.69885 265.71484 140 C 265.82131 140.21296 265.54647 140.5465 265.71484 140.71484 C 265.88319 140.88318 266.25939 140.5465 266.42773 140.71484 C 266.59611 140.8832 266.32127 141.21476 266.42773 141.42773 C 266.57833 141.72891 266.992 141.84143 267.14258 142.14258 C 267.24905 142.35554 266.97424 142.68908 267.14258 142.85742 C 267.31094 143.02576 267.64445 142.75095 267.85742 142.85742 C 270.83011 144.34378 267.09439 142.80727 268.57227 144.28516 C 268.74063 144.45353 269.11682 144.11682 269.28516 144.28516 C 269.4535 144.45352 269.17869 144.78702 269.28516 145 C 269.43574 145.30117 269.84942 145.41369 270 145.71484 C 270.10647 145.92779 269.83166 146.25936 270 146.42773 C 270.16836 146.59607 270.5465 146.25936 270.71484 146.42773 C 271.05156 146.76445 270.37813 147.5207 270.71484 147.85742 C 270.8832 148.0258 271.25939 147.68908 271.42773 147.85742 C 271.59607 148.02578 271.32127 148.35929 271.42773 148.57227 C 271.57833 148.87343 271.992 148.984 272.14258 149.28516 C 272.24905 149.49812 271.97424 149.83166 272.14258 150 C 272.31094 150.16838 272.68904 149.83166 272.85742 150 C 273.02576 150.16836 272.68904 150.54647 272.85742 150.71484 C 273.02578 150.88318 273.40393 150.54647 273.57227 150.71484 C 273.74061 150.88319 273.40393 151.25939 273.57227 151.42773 C 273.74062 151.59611 274.11682 151.25939 274.28516 151.42773 C 274.4535 151.5961 274.11682 151.9742 274.28516 152.14258 C 274.45352 152.31092 274.83166 151.9742 275 152.14258 C 275.16834 152.31094 274.89353 152.64445 275 152.85742 C 276.48636 155.83011 274.94985 152.09439 276.42773 153.57227 C 276.59607 153.74063 276.25936 154.11682 276.42773 154.28516 C 276.59609 154.4535 276.97424 154.11682 277.14258 154.28516 C 277.31092 154.45352 276.97424 154.83166 277.14258 155 C 277.31094 155.16834 277.68908 154.83166 277.85742 155 C 278.0258 155.16836 277.68908 155.5465 277.85742 155.71484 C 278.19414 156.05156 278.94844 155.37813 279.28516 155.71484 C 279.4535 155.8832 279.11682 156.25936 279.28516 156.42773 C 279.45352 156.59607 279.78706 156.32127 280 156.42773 C 280.30117 156.57833 280.41369 156.992 280.71484 157.14258 C 280.92779 157.24905 281.25939 156.97424 281.42773 157.14258 C 281.59607 157.31094 281.25939 157.68908 281.42773 157.85742 C 281.76446 158.19414 282.5207 157.5207 282.85742 157.85742 C 283.02576 158.02578 282.68908 158.40393 282.85742 158.57227 C 283.02578 158.74061 283.35933 158.4658 283.57227 158.57227 C 283.87344 158.72285 283.984 159.13458 284.28516 159.28516 C 284.71107 159.49813 285.28893 159.07222 285.71484 159.28516 C 286.01602 159.43574 286.18962 159.76189 286.42773 160 C 286.66583 160 286.9296 159.89353 287.14258 160 C 287.44375 160.15058 287.55627 160.56427 287.85742 160.71484 C 288.28334 160.92778 288.94844 160.37813 289.28516 160.71484 C 289.45353 160.8832 289.11682 161.25936 289.28516 161.42773 C 289.62188 161.76445 290.28893 161.21476 290.71484 161.42773 C 291.01601 161.57832 291.12658 161.992 291.42773 162.14258 C 291.85365 162.35555 292.5207 161.80586 292.85742 162.14258 C 293.0258 162.31094 292.68908 162.68908 292.85742 162.85742 C 293.19414 163.19414 293.85925 162.64445 294.28516 162.85742 C 294.58633 163.00801 294.69885 163.42169 295 163.57227 C 295.21296 163.67873 295.54647 163.40389 295.71484 163.57227 C 295.88318 163.74062 295.54647 164.11682 295.71484 164.28516 C 295.88319 164.4535 296.21476 164.17869 296.42773 164.28516 C 296.72891 164.43575 296.84143 164.84942 297.14258 165 C 297.90866 165.38304 297.80618 164.61696 298.57227 165 C 298.87344 165.15058 299.04705 165.47673 299.28516 165.71484 C 299.52326 165.71484 299.78702 165.60837 300 165.71484 C 300.30117 165.86542 300.41369 166.27716 300.71484 166.42773 C 300.92779 166.5342 301.21476 166.32127 301.42773 166.42773 C 302.03007 166.72891 302.25508 167.55627 302.85742 167.85742 C 303.07038 167.96389 303.35929 167.75095 303.57227 167.85742 C 304.17461 168.15859 304.39766 168.984 305 169.28516 C 305.21296 169.39163 305.50187 169.17869 305.71484 169.28516 C 306.04561 169.45054 308.15217 171.72247 308.57227 172.14258 C 308.81036 172.38067 308.984 172.70685 309.28516 172.85742 C 309.49812 172.96389 309.83166 172.68904 310 172.85742 C 310.16838 173.02578 309.83166 173.40393 310 173.57227 C 310.33672 173.90898 311.09102 173.23555 311.42773 173.57227 C 311.59607 173.74062 311.25939 174.11682 311.42773 174.28516 C 311.59609 174.45353 311.92964 174.17869 312.14258 174.28516 C 312.44375 174.43574 312.55623 174.84942 312.85742 175 C 313.07038 175.10647 313.35929 174.89353 313.57227 175 C 314.17461 175.30117 314.39766 176.12658 315 176.42773 C 315.21296 176.5342 315.50191 176.32127 315.71484 176.42773 C 316.01602 176.57832 316.12654 176.992 316.42773 177.14258 C 317.57401 177.71571 316.71115 176.56944 317.85742 177.14258 C 318.15859 177.29316 318.27111 177.70685 318.57227 177.85742 C 318.78522 177.96389 319.07222 177.75095 319.28516 177.85742 C 319.58633 178.00801 319.69881 178.42169 320 178.57227 C 320.21296 178.67873 320.50187 178.4658 320.71484 178.57227 C 321.01601 178.72285 321.12658 179.13458 321.42773 179.28516 C 321.71095 179.42678 323.42622 179.13915 323.57227 179.28516 C 323.74064 179.45352 323.40393 179.83166 323.57227 180 C 323.90899 180.33672 324.66328 179.66328 325 180 C 325.16834 180.16836 324.83166 180.54647 325 180.71484 C 325.35714 181.07197 326.78541 180.35768 327.14258 180.71484 C 327.31096 180.88319 326.97424 181.25939 327.14258 181.42773 C 327.31094 181.59607 327.64445 181.32127 327.85742 181.42773 C 328.15859 181.57833 328.27111 181.992 328.57227 182.14258 C 328.99818 182.35555 329.57408 181.9296 330 182.14258 C 330.30117 182.29316 330.41369 182.70685 330.71484 182.85742 C 330.92779 182.96389 331.21476 182.75095 331.42773 182.85742 C 331.7289 183.00801 331.84143 183.42169 332.14258 183.57227 C 332.35554 183.67873 332.64445 183.4658 332.85742 183.57227 C 333.15859 183.72285 333.27111 184.13458 333.57227 184.28516 C 333.99818 184.49813 334.57408 184.07222 335 184.28516 C 335.30117 184.43574 335.41369 184.84942 335.71484 185 C 335.92779 185.10647 336.2148 184.89353 336.42773 185 C 336.72891 185.15058 336.84143 185.56427 337.14258 185.71484 C 337.35554 185.82131 337.64445 185.60837 337.85742 185.71484 C 338.15859 185.86542 338.27111 186.27716 338.57227 186.42773 C 338.99819 186.64071 339.57408 186.21476 340 186.42773 C 340.30117 186.57832 340.41369 186.992 340.71484 187.14258 C 340.92779 187.24905 341.25939 186.97424 341.42773 187.14258 C 341.59607 187.31094 341.25939 187.68904 341.42773 187.85742 C 341.59609 188.02576 341.92964 187.75095 342.14258 187.85742 C 342.44375 188.00801 342.61931 188.33416 342.85742 188.57227 C 343.09552 188.57227 343.35929 188.4658 343.57227 188.57227 C 343.87344 188.72285 343.984 189.13458 344.28516 189.28516 C 344.49811 189.39163 344.78702 189.17869 345 189.28516 C 345.30117 189.43575 345.41369 189.84942 345.71484 190 C 345.92779 190.10647 346.21476 189.89353 346.42773 190 C 346.7289 190.15058 346.84143 190.56427 347.14258 190.71484 C 347.35554 190.82131 347.64448 190.60837 347.85742 190.71484 C 348.15859 190.86542 348.27111 191.27716 348.57227 191.42773 C 348.99818 191.64071 349.66328 191.09102 350 191.42773 C 350.16834 191.59609 349.83162 191.9742 350 192.14258 C 350.33672 192.4793 351.09102 191.80586 351.42773 192.14258 C 351.59611 192.31094 351.25939 192.68908 351.42773 192.85742 C 351.76446 193.19414 352.43151 192.64445 352.85742 192.85742 C 353.15859 193.00801 353.27111 193.42169 353.57227 193.57227 C 353.78523 193.67873 354.07222 193.4658 354.28516 193.57227 C 354.58632 193.72285 354.69885 194.13458 355 194.28516 C 356.03002 194.80017 355.82349 194.41404 355.625 194.16406 C 355.73737 194.29052 355.91388 194.48614 356.42773 195 C 356.85365 195.21298 357.43151 194.78702 357.85742 195 C 358.15859 195.15058 358.27111 195.56427 358.57227 195.71484 C 358.99818 195.92778 359.66328 195.37813 360 195.71484 C 360.16834 195.88319 359.83166 196.25939 360 196.42773 C 360.16836 196.59607 360.50187 196.32127 360.71484 196.42773 C 361.01602 196.57833 361.12654 196.992 361.42773 197.14258 C 361.64069 197.24905 361.9296 197.03611 362.14258 197.14258 C 362.44375 197.29316 362.55627 197.70685 362.85742 197.85742 C 364.00087 198.42913 363.14174 197.28571 364.28516 197.85742 C 364.58633 198.00801 364.69885 198.42169 365 198.57227 C 365.21296 198.67873 365.50187 198.4658 365.71484 198.57227 C 366.01601 198.72285 366.12658 199.13458 366.42773 199.28516 C 366.6407 199.39163 366.9296 199.17869 367.14258 199.28516 C 367.44375 199.43574 367.55627 199.84942 367.85742 200 C 368.28334 200.21298 368.85925 199.78702 369.28516 200 C 369.58632 200.15058 369.69885 200.56427 370 200.71484 C 370.21296 200.82131 370.50187 200.60837 370.71484 200.71484 C 371.01602 200.86542 371.12658 201.27716 371.42773 201.42773 C 371.6407 201.5342 371.97424 201.25936 372.14258 201.42773 C 372.31092 201.59609 371.97424 201.97424 372.14258 202.14258 C 372.62019 202.62019 373.09465 201.66496 373.57227 202.14258 C 373.74061 202.31094 373.40393 202.68904 373.57227 202.85742 C 373.71828 203.00346 375.43164 202.71584 375.71484 202.85742 C 376.01602 203.00801 376.12654 203.42169 376.42773 203.57227 C 376.64069 203.67873 376.97424 203.40393 377.14258 203.57227 C 377.31092 203.74062 376.97424 204.11682 377.14258 204.28516 C 377.49972 204.64232 378.92799 203.92803 379.28516 204.28516 C 379.45335 204.45352 379.11659 204.83162 379.28516 205 C 379.4535 205.16834 379.76189 205 380 205 L 380.71484 205 L 381.42773 205 C 381.66584 205 381.97439 204.83162 382.14258 205 C 382.31115 205.16836 381.97439 205.5465 382.14258 205.71484 C 382.36376 205.93602 385.49374 205.49367 385.71484 205.71484 C 385.88303 205.88319 385.54665 206.25939 385.71484 206.42773 C 385.96558 206.67847 388.79178 206.18104 389.28516 206.42773 C 389.58631 206.57833 389.69877 206.992 390 207.14258 C 390.44893 207.36704 392.40849 206.91811 392.85742 207.14258 C 393.15857 207.29316 393.27104 207.70685 393.57227 207.85742 C 393.78963 207.96612 395.39321 207.85742 395.71484 207.85742 L 401.42773 207.85742 L 405.71484 207.85742 L 406.42773 207.85742 C 406.66584 207.85742 406.92979 207.75095 407.14258 207.85742 C 407.44377 208.00801 407.55619 208.42169 407.85742 208.57227 C 408.07482 208.68096 409.67836 208.57227 410 208.57227 L 414.28516 208.57227 C 414.60687 208.57227 416.21041 208.46357 416.42773 208.57227 C 416.72889 208.72285 416.84135 209.13458 417.14258 209.28516 C 417.59151 209.50962 419.55107 209.06069 420 209.28516 C 420.30115 209.43575 420.41362 209.84942 420.71484 210 C 421.14076 210.21298 421.80582 209.66328 422.14258 210 C 422.31115 210.16836 421.97439 210.54647 422.14258 210.71484 C 422.28862 210.86085 424.00207 210.57322 424.28516 210.71484 C 424.58631 210.86542 424.69877 211.27716 425 211.42773 C 425.42591 211.64071 426.09098 211.09102 426.42773 211.42773 C 426.5963 211.59609 426.25955 211.97424 426.42773 212.14258 C 426.57378 212.28858 428.28918 212.00096 428.57227 212.14258 C 428.87342 212.29316 428.98393 212.70685 429.28516 212.85742 C 429.71107 213.0704 430.28893 212.64445 430.71484 212.85742 C 431.01603 213.00801 431.12651 213.42169 431.42773 213.57227 C 431.64067 213.67873 431.90447 213.57227 432.14258 213.57227 L 432.85742 213.57227 L 437.14258 213.57227 C 437.38069 213.57227 437.68885 213.74061 437.85742 213.57227 C 438.02599 213.40391 437.68885 213.02576 437.85742 212.85742 C 438.19414 212.5207 438.85924 213.0704 439.28516 212.85742 C 439.58631 212.70684 439.69877 212.29315 440 212.14258 C 440.21294 212.03611 440.54665 212.31096 440.71484 212.14258 C 440.88341 211.97422 440.54665 211.59607 440.71484 211.42773 C 440.88322 211.25939 441.21495 211.5342 441.42773 211.42773 C 441.72892 211.27715 441.84135 210.86542 442.14258 210.71484 C 442.35555 210.60837 442.68885 210.88318 442.85742 210.71484 C 443.02561 210.54648 442.68885 210.16838 442.85742 210 C 443.02576 209.83166 443.4037 210.16838 443.57227 210 C 443.74045 209.83164 443.4037 209.4535 443.57227 209.28516 C 443.90898 208.94844 444.66324 209.62187 445 209.28516 C 445.16857 209.1168 444.83181 208.74064 445 208.57227 C 445.16838 208.40393 445.47673 208.57227 445.71484 208.57227 C 446.03652 208.57227 447.6401 208.46357 447.85742 208.57227 C 448.15861 208.72285 448.27104 209.13458 448.57227 209.28516 C 448.78524 209.39163 449.07237 209.17869 449.28516 209.28516 C 449.58631 209.43575 449.69877 209.84942 450 210 C 450.21294 210.10647 450.54628 209.83166 450.71484 210 C 450.88303 210.16836 450.54628 210.54647 450.71484 210.71484 C 450.88318 210.88318 451.21495 210.60837 451.42773 210.71484 C 451.72892 210.86542 451.84135 211.27716 452.14258 211.42773 C 452.35555 211.5342 452.68885 211.25939 452.85742 211.42773 C 453.02599 211.59609 452.68885 211.97424 452.85742 212.14258 C 453.0258 212.31096 453.4037 211.97424 453.57227 212.14258 C 453.74045 212.31094 453.4037 212.68904 453.57227 212.85742 C 453.74061 213.02576 454.11659 212.68904 454.28516 212.85742 C 454.45335 213.02578 454.28516 213.33416 454.28516 213.57227 C 454.52323 213.57227 454.83143 213.40393 455 213.57227 C 455.16819 213.74062 454.83143 214.11682 455 214.28516 C 455.33672 214.62187 456.09098 213.94844 456.42773 214.28516 C 456.5963 214.45352 456.25955 214.83166 456.42773 215 C 456.76445 215.33672 457.52067 214.66328 457.85742 215 C 458.02561 215.16836 457.68885 215.5465 457.85742 215.71484 C 458.02576 215.88318 458.4037 215.5465 458.57227 215.71484 C 458.74045 215.8832 458.4037 216.25936 458.57227 216.42773 C 458.74061 216.59607 459.07237 216.32127 459.28516 216.42773 C 459.58635 216.57832 459.69877 216.992 460 217.14258 C 460.21298 217.24905 460.54665 216.97424 460.71484 217.14258 C 460.88303 217.31094 460.54665 217.68904 460.71484 217.85742 C 461.05156 218.19414 461.80582 217.5207 462.14258 217.85742 C 462.31077 218.02578 461.97401 218.40393 462.14258 218.57227 C 462.28858 218.71827 464.00207 218.43065 464.28516 218.57227 C 464.58631 218.72285 464.69877 219.13458 465 219.28516 C 465.57143 219.57089 466.57115 218.99946 467.14258 219.28516 C 467.44377 219.43575 467.55619 219.84942 467.85742 220 C 468.42885 220.28569 469.42854 219.71431 470 220 C 470.30115 220.15058 470.41362 220.56427 470.71484 220.71484 C 471.14858 220.93171 474.56626 220.49797 475 220.71484 C 475.30119 220.86542 475.41362 221.27716 475.71484 221.42773 C 476.74596 221.94329 476.53658 221.55659 476.33789 221.30664 C 476.45005 221.4329 476.62812 221.62812 477.14258 222.14258 C 477.59317 222.36788 480.26421 221.91728 480.71484 222.14258 C 481.016 222.29316 481.12651 222.70685 481.42773 222.85742 C 481.61244 222.94972 485.20858 222.85742 485.71484 222.85742 C 485.95295 222.85742 486.21495 222.75095 486.42773 222.85742 C 486.72892 223.00801 486.84135 223.42169 487.14258 223.57227 C 487.56849 223.78524 488.23551 223.23555 488.57227 223.57227 C 488.74045 223.74063 488.4037 224.11682 488.57227 224.28516 C 488.71827 224.4312 490.43176 224.14354 490.71484 224.28516 C 491.01603 224.43575 491.12651 224.84942 491.42773 225 C 491.87667 225.22447 493.83622 224.77553 494.28516 225 C 494.58631 225.15058 494.69877 225.56427 495 225.71484 C 495.42591 225.92778 496.00182 225.50187 496.42773 225.71484 C 496.72892 225.86542 496.84135 226.27716 497.14258 226.42773 C 497.714 226.71347 498.71373 226.14204 499.28516 226.42773 C 499.58631 226.57833 499.69877 226.992 500 227.14258 C 500.57143 227.42827 501.57115 226.85685 502.14258 227.14258 C 502.44373 227.29316 502.55619 227.70685 502.85742 227.85742 C 503.14062 227.99904 504.85411 227.71138 505 227.85742 C 505.16857 228.02578 504.83181 228.40393 505 228.57227 C 505.33672 228.90898 506.00182 228.35929 506.42773 228.57227 C 506.72889 228.72285 506.84135 229.13458 507.14258 229.28516 C 507.56849 229.49813 508.14635 229.07222 508.57227 229.28516 C 508.87346 229.43574 508.98393 229.84942 509.28516 230 C 509.49809 230.10647 509.78683 229.89353 510 230 C 510.30115 230.15058 510.41362 230.56427 510.71484 230.71484 C 511.14076 230.92778 511.71666 230.50187 512.14258 230.71484 C 512.44377 230.86542 512.55619 231.27716 512.85742 231.42773 C 513.28334 231.64071 513.85924 231.21476 514.28516 231.42773 C 514.58631 231.57832 514.69877 231.992 515 232.14258 C 515.28324 232.28416 516.99669 231.99654 517.14258 232.14258 C 517.31077 232.31094 516.97401 232.68904 517.14258 232.85742 C 517.33802 233.05286 519.61252 232.66368 520 232.85742 C 520.30119 233.00801 520.41362 233.42169 520.71484 233.57227 C 521.14076 233.78524 521.71666 233.35929 522.14258 233.57227 C 522.44373 233.72285 522.55619 234.13458 522.85742 234.28516 C 523.0704 234.39163 523.35948 234.17869 523.57227 234.28516 C 523.87346 234.43575 523.98393 234.84942 524.28516 235 C 524.71107 235.21298 525.37809 234.66328 525.71484 235 C 525.88303 235.16836 525.54665 235.5465 525.71484 235.71484 C 526.07197 236.07197 527.50026 235.35768 527.85742 235.71484 C 528.02561 235.88319 527.68885 236.25939 527.85742 236.42773 C 528.19414 236.76445 528.85924 236.21476 529.28516 236.42773 C 529.58631 236.57833 529.69877 236.992 530 237.14258 C 530.44897 237.36704 532.40845 236.91811 532.85742 237.14258 C 533.15857 237.29316 533.27104 237.70685 533.57227 237.85742 C 533.85547 237.99904 535.56895 237.71142 535.71484 237.85742 C 535.88303 238.02578 535.54665 238.40393 535.71484 238.57227 C 535.96558 238.823 538.79178 238.32558 539.28516 238.57227 C 539.58631 238.72285 539.69877 239.13458 540 239.28516 C 540.38748 239.47889 542.66202 239.08972 542.85742 239.28516 C 543.02561 239.45352 542.68885 239.83166 542.85742 240 C 543.0258 240.16834 543.33416 240 543.57227 240 C 544.07853 240 547.6726 239.9077 547.85742 240 C 548.15857 240.15058 548.27104 240.56427 548.57227 240.71484 C 548.76007 240.80873 551.05432 240.71484 551.42773 240.71484 L 557.14258 240.71484 L 563.57227 240.71484 C 563.94576 240.71484 566.23989 240.62096 566.42773 240.71484 C 568.19304 241.59747 566.1823 241.42773 567.85742 241.42773 L 572.14258 241.42773 L 572.85742 241.42773 C 573.09553 241.42773 573.3591 241.32127 573.57227 241.42773 C 573.87342 241.57833 573.98393 241.992 574.28516 242.14258 C 574.71889 242.35945 578.13853 241.92571 578.57227 242.14258 C 578.87342 242.29316 578.98393 242.70685 579.28516 242.85742 C 579.49813 242.96389 579.76189 242.85742 580 242.85742 L 580.71484 242.85742 C 581.22111 242.85742 584.81518 242.76513 585 242.85742 C 585.30115 243.00801 585.41362 243.42169 585.71484 243.57227 C 585.92778 243.67873 586.18962 243.57227 586.42773 243.57227 C 586.93404 243.57227 590.53002 243.47997 590.71484 243.57227 C 591.01603 243.72285 591.12651 244.13458 591.42773 244.28516 C 591.99916 244.57089 593.0008 243.99946 593.57227 244.28516 C 593.87342 244.43574 593.98393 244.84942 594.28516 245 C 594.85658 245.28569 595.85631 244.71431 596.42773 245 C 596.72889 245.15058 596.84135 245.56427 597.14258 245.71484 C 597.59317 245.94014 600.26421 245.48951 600.71484 245.71484 C 601.016 245.86542 601.12651 246.27716 601.42773 246.42773 C 601.99916 246.71347 603.00084 246.14204 603.57227 246.42773 C 603.87342 246.57832 603.98393 246.992 604.28516 247.14258 C 604.71107 247.35555 605.28893 246.9296 605.71484 247.14258 C 606.01603 247.29316 606.12651 247.70685 606.42773 247.85742 C 606.99916 248.14315 608.0008 247.57173 608.57227 247.85742 C 608.87342 248.00801 608.98393 248.42169 609.28516 248.57227 C 609.71107 248.7852 610.37809 248.23555 610.71484 248.57227 C 610.88303 248.74062 610.54665 249.11682 610.71484 249.28516 C 611.05156 249.62187 611.80582 248.94844 612.14258 249.28516 C 612.31077 249.45352 611.97439 249.83162 612.14258 250 C 612.4793 250.33672 613.14635 249.78702 613.57227 250 C 613.87346 250.15058 613.98393 250.56427 614.28516 250.71484 C 615.04745 251.09598 614.95255 250.33369 615.71484 250.71484 C 616.31715 251.016 616.54023 251.84139 617.14258 252.14258 C 617.35555 252.24905 617.64426 252.03611 617.85742 252.14258 C 618.15857 252.29315 618.27104 252.70685 618.57227 252.85742 C 618.99818 253.0704 619.57409 252.64445 620 252.85742 C 620.30119 253.00801 620.41362 253.42169 620.71484 253.57227 C 621.14076 253.78524 621.71666 253.35933 622.14258 253.57227 C 622.44373 253.72285 622.55619 254.13458 622.85742 254.28516 C 623.28334 254.49813 623.85924 254.07222 624.28516 254.28516 C 624.58635 254.43575 624.69877 254.84942 625 255 C 625.21298 255.10647 625.54665 254.83166 625.71484 255 C 625.88303 255.16836 625.54665 255.5465 625.71484 255.71484 C 626.05156 256.05156 626.71663 255.50191 627.14258 255.71484 C 627.44373 255.86542 627.61931 256.18962 627.85742 256.42773 C 628.09553 256.42773 628.35948 256.32127 628.57227 256.42773 C 628.87346 256.57833 629.04705 256.90447 629.28516 257.14258 C 629.52327 257.38067 629.69877 257.70685 630 257.85742 C 631.03748 258.37617 630.82087 257.9802 630.62109 257.73047 C 630.73257 257.85608 630.91135 258.05588 631.42773 258.57227 C 631.64071 258.67873 631.97439 258.40393 632.14258 258.57227 C 632.31115 258.74062 631.97439 259.11682 632.14258 259.28516 C 632.49974 259.64232 633.92799 258.92803 634.28516 259.28516 C 634.45335 259.45352 634.11697 259.83166 634.28516 260 C 634.50633 260.22118 637.63632 259.77882 637.85742 260 C 638.02561 260.16836 637.68923 260.5465 637.85742 260.71484 C 638.02576 260.88318 638.33416 260.71484 638.57227 260.71484 C 638.7614 260.71484 639.40757 260.69379 640 260.67773 L 640 215.71484 C 639.68469 215.71228 639.34291 215.71484 639.28516 215.71484 C 637.38039 215.71484 639.52463 215.47535 638.57227 216.42773 C 638.32153 216.67847 635.49338 216.18104 635 216.42773 C 634.69885 216.57832 634.58638 216.992 634.28516 217.14258 C 634.22423 217.17281 631.48858 217.17281 631.42773 217.14258 C 631.12658 216.99199 631.01607 216.57831 630.71484 216.42773 C 630.50187 216.32127 630.16819 216.59607 630 216.42773 C 629.83181 216.25938 630.16819 215.88318 630 215.71484 C 629.83162 215.5465 629.45335 215.88318 629.28516 215.71484 C 629.11697 215.54648 629.45335 215.16834 629.28516 215 C 629.11682 214.83166 628.74083 215.16834 628.57227 215 C 628.40408 214.83164 628.74083 214.4535 628.57227 214.28516 C 627.61986 213.33276 627.85742 215.47703 627.85742 213.57227 C 627.68908 213.40393 627.31077 213.74061 627.14258 213.57227 C 625.66467 212.09441 629.40041 213.62892 626.42773 212.14258 C 626.21476 212.03611 625.95295 212.14258 625.71484 212.14258 C 625.71484 211.90448 625.88303 211.59607 625.71484 211.42773 C 625.5465 211.25939 625.16857 211.59607 625 211.42773 C 624.83181 211.25938 625.16857 210.88318 625 210.71484 C 624.83166 210.54647 624.45335 210.88318 624.28516 210.71484 C 624.11697 210.54648 624.39174 210.21298 624.28516 210 C 624.13458 209.69883 623.81038 209.52327 623.57227 209.28516 C 623.33416 209.04706 623.15865 208.72284 622.85742 208.57227 C 622.64445 208.4658 622.31077 208.74064 622.14258 208.57227 C 621.97401 208.40391 622.31077 208.0258 622.14258 207.85742 C 621.9742 207.68908 621.5963 208.0258 621.42773 207.85742 C 621.25955 207.68906 621.5963 207.31092 621.42773 207.14258 C 621.09102 206.80586 620.42595 207.35555 620 207.14258 C 619.39769 206.84141 619.17461 206.016 618.57227 205.71484 C 617.54875 205.20309 617.74608 205.58 617.94336 205.83008 C 617.82994 205.70263 617.65345 205.51087 617.14258 205 C 616.85938 204.85838 615.14589 205.14604 615 205 C 614.83181 204.83164 615.16819 204.45353 615 204.28516 C 614.66328 203.94844 613.90902 204.62187 613.57227 204.28516 C 613.40408 204.11681 613.74083 203.74061 613.57227 203.57227 C 613.37683 203.37683 611.10232 203.766 610.71484 203.57227 C 610.41369 203.42167 610.30123 203.008 610 202.85742 C 609.8122 202.76354 607.516 202.85742 607.14258 202.85742 L 600.71484 202.85742 L 594.28516 202.85742 C 593.91166 202.85742 591.61558 202.76354 591.42773 202.85742 C 591.12658 203.00801 591.01607 203.42169 590.71484 203.57227 C 589.8773 203.99104 589.86596 203.14784 589.28516 202.85742 C 589.10045 202.76513 585.50627 202.85742 585 202.85742 C 584.50318 202.85742 581.68588 202.72828 581.42773 202.85742 C 581.12654 203.00801 581.01607 203.42169 580.71484 203.57227 C 580.26591 203.79673 578.30635 203.3478 577.85742 203.57227 C 577.55623 203.72285 577.44381 204.13458 577.14258 204.28516 C 576.9296 204.39163 576.5963 204.11682 576.42773 204.28516 C 576.25955 204.45352 576.5963 204.83162 576.42773 205 C 576.25939 205.16834 575.88341 204.83162 575.71484 205 C 575.54665 205.16836 575.88341 205.5465 575.71484 205.71484 C 575.5465 205.88318 575.16819 205.5465 575 205.71484 C 574.83181 205.88319 575.10658 206.21476 575 206.42773 C 574.84942 206.72891 574.43558 206.84143 574.28516 207.14258 C 574.17857 207.35554 574.39174 207.64445 574.28516 207.85742 C 574.13454 208.15859 573.72269 208.27111 573.57227 208.57227 C 573.3591 208.99819 573.90902 209.66328 573.57227 210 C 573.40389 210.16838 573.02561 209.83166 572.85742 210 C 572.52067 210.33672 573.19418 211.09102 572.85742 211.42773 C 572.68904 211.59607 572.31115 211.25939 572.14258 211.42773 C 571.80582 211.76446 572.47933 212.5207 572.14258 212.85742 C 571.97424 213.02576 571.59592 212.68904 571.42773 212.85742 C 571.25955 213.02578 571.59592 213.40393 571.42773 213.57227 C 571.25939 213.74061 570.88303 213.40393 570.71484 213.57227 C 570.54665 213.74062 570.88303 214.11682 570.71484 214.28516 C 570.54647 214.4535 570.16819 214.11682 570 214.28516 C 569.83181 214.45352 570.16819 214.83166 570 215 C 569.83162 215.16834 569.49794 214.89353 569.28516 215 C 568.984 215.15058 568.87349 215.56427 568.57227 215.71484 C 568.35933 215.82131 568.07059 215.60837 567.85742 215.71484 C 567.55627 215.86542 567.44381 216.27716 567.14258 216.42773 C 566.92518 216.53643 565.32164 216.42773 565 216.42773 C 564.76193 216.42773 564.45335 216.59607 564.28516 216.42773 C 564.11697 216.25938 564.45335 215.88318 564.28516 215.71484 C 563.80448 215.23414 562.52615 216.44445 562.21289 215.05664 C 562.1845 215.02968 562.17317 215.03059 562.14258 215 C 562.03703 214.89458 562.12334 214.70972 562.16602 214.54297 C 562.16062 214.45088 562.14258 214.39151 562.14258 214.28516 C 561.9742 214.11682 561.5963 214.4535 561.42773 214.28516 C 561.25955 214.1168 561.53432 213.78524 561.42773 213.57227 C 561.27716 213.2711 560.86527 213.15857 560.71484 212.85742 C 560.60826 212.64446 560.88341 212.31096 560.71484 212.14258 C 560.5465 211.97424 560.16819 212.31096 560 212.14258 C 559.64283 211.78543 560.35717 210.35713 560 210 C 559.04763 209.0476 559.28516 211.18992 559.28516 209.28516 L 559.28516 208.57227 C 559.28516 208.33417 559.45335 208.0258 559.28516 207.85742 C 559.11678 207.68908 558.74045 208.0258 558.57227 207.85742 C 558.23551 207.52071 558.90902 206.76445 558.57227 206.42773 C 558.40389 206.25939 558.02561 206.59611 557.85742 206.42773 C 557.50026 206.0706 558.21459 204.64232 557.85742 204.28516 C 557.68904 204.11682 557.31115 204.45353 557.14258 204.28516 C 556.78541 203.92802 557.49974 202.49971 557.14258 202.14258 C 556.97424 201.97424 556.59592 202.31092 556.42773 202.14258 C 556.25955 201.97422 556.59592 201.59607 556.42773 201.42773 C 556.25939 201.25936 555.88303 201.59607 555.71484 201.42773 C 555.37809 201.09101 556.0516 200.33672 555.71484 200 C 555.54647 199.83166 555.16819 200.16834 555 200 C 554.83181 199.83164 555.16819 199.4535 555 199.28516 C 554.83162 199.11682 554.45335 199.4535 554.28516 199.28516 C 554.11697 199.1168 554.45335 198.74061 554.28516 198.57227 C 554.11682 198.40393 553.78543 198.67873 553.57227 198.57227 C 553.27111 198.42168 553.15865 198.008 552.85742 197.85742 C 552.64448 197.75095 552.31077 198.02576 552.14258 197.85742 C 551.97439 197.68906 552.31077 197.31096 552.14258 197.14258 C 551.80586 196.80586 551.0516 197.4793 550.71484 197.14258 C 550.54665 196.97422 550.88303 196.59607 550.71484 196.42773 C 550.35768 196.07061 548.92943 196.78486 548.57227 196.42773 C 548.4037 196.25938 548.74045 195.88318 548.57227 195.71484 C 548.54929 195.69179 546.60084 195.71484 546.42773 195.71484 C 544.52297 195.71484 546.66725 195.95238 545.71484 195 C 545.5465 194.83166 545.23811 195 545 195 C 544.76193 195 544.49794 194.89353 544.28516 195 C 543.98397 195.15058 543.87349 195.56427 543.57227 195.71484 C 543.28907 195.85642 541.57362 195.5688 541.42773 195.71484 C 541.25955 195.88319 541.59592 196.25939 541.42773 196.42773 C 541.25939 196.59607 540.95295 196.42773 540.71484 196.42773 C 540.37805 196.42773 537.17659 196.39523 537.14258 196.42773 C 536.97439 196.59609 537.31077 196.97424 537.14258 197.14258 C 536.80586 197.4793 536.14076 196.9296 535.71484 197.14258 C 535.41369 197.29316 535.30123 197.70685 535 197.85742 C 534.78706 197.96389 534.45335 197.68904 534.28516 197.85742 C 534.11697 198.02578 534.45335 198.40393 534.28516 198.57227 C 534.11682 198.74061 533.78505 198.4658 533.57227 198.57227 C 533.27108 198.72285 533.15865 199.13458 532.85742 199.28516 C 532.64445 199.39163 532.31077 199.11682 532.14258 199.28516 C 531.97401 199.45352 532.31077 199.83166 532.14258 200 C 531.9742 200.16834 531.5963 199.83166 531.42773 200 C 531.25955 200.16836 531.5963 200.5465 531.42773 200.71484 C 531.3563 200.78624 529.35659 200.78624 529.28516 200.71484 C 528.9484 200.37813 529.62191 199.62187 529.28516 199.28516 C 529.11678 199.11682 528.74045 199.4535 528.57227 199.28516 C 528.23551 198.94845 528.90902 198.19414 528.57227 197.85742 C 528.40389 197.68904 528.02561 198.02576 527.85742 197.85742 C 527.52067 197.52071 528.19418 196.76445 527.85742 196.42773 C 527.68904 196.25939 527.31115 196.59607 527.14258 196.42773 C 526.80582 196.09102 527.47933 195.33672 527.14258 195 C 526.97424 194.83166 526.59592 195.16838 526.42773 195 C 526.09098 194.66328 526.76449 193.90898 526.42773 193.57227 C 526.25939 193.40389 525.95295 193.57227 525.71484 193.57227 L 525 193.57227 L 523.57227 193.57227 C 521.89729 193.57227 523.90784 193.74007 522.14258 192.85742 C 521.9296 192.75095 521.59592 193.0258 521.42773 192.85742 C 521.09098 192.52071 521.76449 191.76445 521.42773 191.42773 C 521.25936 191.25936 520.88303 191.59607 520.71484 191.42773 C 520.54665 191.25937 520.88303 190.88318 520.71484 190.71484 C 520.5465 190.5465 520.16857 190.88318 520 190.71484 C 519.83181 190.54648 520.10658 190.21298 520 190 C 519.84942 189.69883 519.43596 189.58631 519.28516 189.28516 C 519.17857 189.07221 519.39174 188.78524 519.28516 188.57227 C 517.79878 185.59958 519.33529 189.33531 517.85742 187.85742 C 517.68923 187.68906 518.02561 187.31092 517.85742 187.14258 C 517.5207 186.80586 516.76449 187.4793 516.42773 187.14258 C 516.25955 186.97422 516.5963 186.59607 516.42773 186.42773 C 516.25939 186.25936 515.95295 186.42773 515.71484 186.42773 C 515.54163 186.42773 513.59494 186.40468 513.57227 186.42773 C 513.4037 186.59609 513.74045 186.97424 513.57227 187.14258 C 513.40389 187.31092 513.09553 187.14258 512.85742 187.14258 C 512.3606 187.14258 509.5433 187.27172 509.28516 187.14258 C 508.984 186.99199 508.87349 186.57831 508.57227 186.42773 C 508.35933 186.32127 508.02561 186.59607 507.85742 186.42773 C 507.68923 186.25938 508.02561 185.88318 507.85742 185.71484 C 507.52074 185.37813 506.76449 186.05156 506.42773 185.71484 C 506.25955 185.54648 506.59592 185.16834 506.42773 185 C 506.09102 184.66328 505.33676 185.33672 505 185 C 504.83181 184.83164 505.16857 184.4535 505 184.28516 C 504.66328 183.94844 503.90902 184.62187 503.57227 184.28516 C 502.61986 183.33276 504.76219 183.57227 502.85742 183.57227 C 502.68923 183.40391 503.02561 183.02576 502.85742 182.85742 C 502.5207 182.5207 501.76449 183.19414 501.42773 182.85742 C 501.25955 182.68906 501.5963 182.31096 501.42773 182.14258 C 501.09102 181.80586 500.42595 182.35555 500 182.14258 C 499.69885 181.99199 499.58638 181.57831 499.28516 181.42773 C 499.07218 181.32127 498.78505 181.5342 498.57227 181.42773 C 498.27108 181.27715 498.15865 180.86542 497.85742 180.71484 C 497.43151 180.50187 496.76449 181.05156 496.42773 180.71484 C 496.25955 180.54648 496.59592 180.16838 496.42773 180 C 496.25588 179.82811 493.74423 180.17189 493.57227 180 C 493.40408 179.83164 493.74083 179.4535 493.57227 179.28516 C 493.40393 179.11682 493.09553 179.28516 492.85742 179.28516 L 487.85742 179.28516 L 487.14258 179.28516 C 486.90447 179.28516 486.5963 179.11682 486.42773 179.28516 C 486.25955 179.45352 486.5963 179.83166 486.42773 180 C 486.09102 180.33672 485.33676 179.66328 485 180 C 484.83143 180.16836 485.16819 180.54647 485 180.71484 C 484.64283 181.07197 483.21459 180.35768 482.85742 180.71484 C 482.68885 180.88319 483.02599 181.25939 482.85742 181.42773 C 482.68904 181.59607 482.38069 181.42773 482.14258 181.42773 L 480 181.42773 C 479.76189 181.42773 479.45335 181.59607 479.28516 181.42773 C 479.11697 181.25938 479.45335 180.88318 479.28516 180.71484 C 478.33275 179.76244 478.57227 181.90476 478.57227 180 C 477.08589 177.02731 478.62045 180.76305 477.14258 179.28516 C 476.97401 179.11681 477.31077 178.74061 477.14258 178.57227 C 476.9742 178.40389 476.59592 178.74061 476.42773 178.57227 C 476.25917 178.4039 476.59592 178.0258 476.42773 177.85742 C 476.09102 177.5207 475.33676 178.19414 475 177.85742 C 474.83181 177.68906 475.16857 177.31092 475 177.14258 C 474.66328 176.80586 473.90902 177.4793 473.57227 177.14258 C 473.4037 176.97422 473.74045 176.59607 473.57227 176.42773 C 473.23555 176.09102 472.47933 176.76445 472.14258 176.42773 C 471.97401 176.25937 472.31115 175.88318 472.14258 175.71484 C 471.97069 175.54295 469.45712 175.8867 469.28516 175.71484 C 469.11659 175.54648 469.45335 175.16834 469.28516 175 C 469.11678 174.83162 468.81038 175 468.57227 175 L 464.28516 175 C 464.04705 175 463.74045 175.16834 463.57227 175 C 463.40408 174.83164 463.74045 174.45353 463.57227 174.28516 C 463.21514 173.92803 461.7849 174.64232 461.42773 174.28516 C 461.25917 174.1168 461.59592 173.74061 461.42773 173.57227 C 461.25936 173.40393 460.88303 173.74061 460.71484 173.57227 C 460.54665 173.40391 460.88303 173.02576 460.71484 172.85742 C 460.37813 172.5207 459.71107 173.0704 459.28516 172.85742 C 458.984 172.70684 458.87349 172.29315 458.57227 172.14258 C 458.35487 172.03388 456.74937 172.14258 456.42773 172.14258 C 456.18966 172.14258 455.88341 171.97424 455.71484 172.14258 C 455.54665 172.31094 455.88341 172.68904 455.71484 172.85742 C 455.37813 173.19414 454.62191 172.5207 454.28516 172.85742 C 454.11659 173.02578 454.45335 173.40393 454.28516 173.57227 C 454.11678 173.74061 453.74045 173.40393 453.57227 173.57227 C 453.4037 173.74062 453.74045 174.11682 453.57227 174.28516 C 453.40389 174.45353 453.02599 174.11682 452.85742 174.28516 C 452.68885 174.45352 453.02599 174.83162 452.85742 175 C 452.68904 175.16834 452.31115 175.16834 452.14258 175 C 451.97439 174.83164 452.31115 174.45353 452.14258 174.28516 C 451.97424 174.11682 451.5963 174.45353 451.42773 174.28516 C 451.25955 174.1168 451.5963 173.74061 451.42773 173.57227 C 451.25939 173.40393 450.88303 173.74061 450.71484 173.57227 C 450.54628 173.40391 450.82143 173.0704 450.71484 172.85742 C 450.56423 172.55625 450.15043 172.44373 450 172.14258 C 449.89342 171.92962 450.16819 171.59607 450 171.42773 C 449.83162 171.25936 449.45335 171.59607 449.28516 171.42773 C 449.11697 171.25938 449.39174 170.92778 449.28516 170.71484 C 447.79874 167.74215 449.33533 171.47788 447.85742 170 C 447.68923 169.83164 448.02599 169.4535 447.85742 169.28516 C 447.52074 168.94844 446.76449 169.62187 446.42773 169.28516 C 446.25917 169.1168 446.59592 168.74064 446.42773 168.57227 C 446.09102 168.23555 445.33676 168.90898 445 168.57227 C 444.83181 168.40391 445.16857 168.02576 445 167.85742 C 444.66328 167.5207 443.90902 168.19414 443.57227 167.85742 C 443.4037 167.68906 443.74045 167.31096 443.57227 167.14258 C 443.40389 166.97424 443.09553 167.14258 442.85742 167.14258 L 438.57227 167.14258 L 434.28516 167.14258 L 433.57227 167.14258 C 433.33419 167.14258 433.07021 167.03611 432.85742 167.14258 C 432.55627 167.29316 432.44381 167.70685 432.14258 167.85742 C 431.69361 168.08189 429.73413 167.63296 429.28516 167.85742 C 428.984 168.00801 428.87349 168.42169 428.57227 168.57227 C 428.28903 168.71385 426.57362 168.42622 426.42773 168.57227 C 426.25955 168.74063 426.5963 169.11682 426.42773 169.28516 C 426.25939 169.4535 425.95295 169.28516 425.71484 169.28516 L 425 169.28516 C 424.66321 169.28516 421.46175 169.25265 421.42773 169.28516 C 421.25955 169.45352 421.5963 169.83166 421.42773 170 C 421.07061 170.35713 419.64232 169.64287 419.28516 170 C 419.11697 170.16836 419.45335 170.5465 419.28516 170.71484 C 419.11682 170.88318 418.78505 170.60837 418.57227 170.71484 C 417.96992 171.016 417.74492 171.84143 417.14258 172.14258 C 416.9296 172.24905 416.59592 171.97424 416.42773 172.14258 C 416.25917 172.31094 416.59592 172.68904 416.42773 172.85742 C 416.25936 173.02576 415.88303 172.68904 415.71484 172.85742 C 415.54665 173.02578 415.88303 173.40393 415.71484 173.57227 C 415.5465 173.74061 415.16857 173.40393 415 173.57227 C 414.83181 173.74062 415.16857 174.11682 415 174.28516 C 414.83166 174.45353 414.45372 174.11682 414.28516 174.28516 C 413.92799 174.6423 414.64232 176.07061 414.28516 176.42773 C 414.11682 176.59607 413.74045 176.25936 413.57227 176.42773 C 413.2151 176.78487 413.92943 178.21514 413.57227 178.57227 C 413.40389 178.74061 413.02561 178.40389 412.85742 178.57227 C 412.52067 178.90898 413.07021 179.57408 412.85742 180 C 412.70685 180.30117 412.293 180.41369 412.14258 180.71484 C 412.00085 180.99804 412.28847 182.71142 412.14258 182.85742 C 411.97424 183.02576 411.5963 182.68904 411.42773 182.85742 C 411.09098 183.19414 411.76449 183.94844 411.42773 184.28516 C 411.25939 184.4535 410.88341 184.11682 410.71484 184.28516 C 410.54665 184.45352 410.88341 184.83166 410.71484 185 C 410.69186 185.02306 408.74537 185 408.57227 185 C 408.33416 185 408.02599 185.16834 407.85742 185 C 407.68923 184.83164 408.02599 184.4535 407.85742 184.28516 C 407.82507 184.25265 404.62191 184.28516 404.28516 184.28516 C 404.02286 184.28516 401.45797 184.31388 401.42773 184.28516 C 401.25917 184.1168 401.59592 183.74061 401.42773 183.57227 C 401.07057 183.21514 399.64232 183.92939 399.28516 183.57227 C 399.11697 183.40391 399.45372 183.02576 399.28516 182.85742 C 399.11682 182.68904 398.74045 183.02576 398.57227 182.85742 C 398.4037 182.68906 398.74045 182.31096 398.57227 182.14258 C 398.40389 181.97424 398.02561 182.31096 397.85742 182.14258 C 397.68885 181.97422 397.85742 181.66584 397.85742 181.42773 C 397.85742 181.18965 397.75084 180.92778 397.85742 180.71484 C 398.008 180.41367 398.42146 180.30115 398.57227 180 C 398.67885 179.78704 398.4037 179.4535 398.57227 179.28516 C 398.74061 179.11682 399.11697 179.4535 399.28516 179.28516 C 400.23756 178.33277 398.09523 178.57227 400 178.57227 C 400.16857 178.4039 399.83181 178.0258 400 177.85742 C 400.16838 177.68908 400.50206 177.96389 400.71484 177.85742 C 401.01603 177.70684 401.12651 177.29315 401.42773 177.14258 C 401.64067 177.03611 401.97401 177.31092 402.14258 177.14258 C 402.31077 176.97422 402.036 176.64071 402.14258 176.42773 C 402.29315 176.12656 402.707 176.016 402.85742 175.71484 C 403.07021 175.28893 402.64463 174.71107 402.85742 174.28516 C 403.00804 173.98398 403.42184 173.87342 403.57227 173.57227 C 403.68112 173.35489 403.57227 171.74941 403.57227 171.42773 L 403.57227 167.14258 L 403.57227 163.57227 C 403.57227 163.33416 403.74045 163.0258 403.57227 162.85742 C 403.40393 162.68908 403.02599 163.0258 402.85742 162.85742 C 402.68545 162.68554 403.02939 160.17189 402.85742 160 C 402.68908 159.83162 402.31077 160.16834 402.14258 160 C 401.78541 159.64286 402.49974 158.21459 402.14258 157.85742 C 401.9742 157.68908 401.59592 158.02576 401.42773 157.85742 C 401.25577 157.68554 401.5997 155.17189 401.42773 155 C 401.25936 154.83166 400.88303 155.16834 400.71484 155 C 400.37809 154.66328 401.0516 153.90898 400.71484 153.57227 C 400.5465 153.40393 400.16857 153.74064 400 153.57227 C 399.83181 153.40391 400.16857 153.02576 400 152.85742 C 399.83166 152.68904 399.45372 153.02576 399.28516 152.85742 C 399.11697 152.68906 399.39174 152.35552 399.28516 152.14258 C 399.13458 151.84141 398.72269 151.72889 398.57227 151.42773 C 398.46568 151.21478 398.74045 150.88318 398.57227 150.71484 C 398.40389 150.54647 398.02561 150.88318 397.85742 150.71484 C 397.68885 150.54648 398.02561 150.16834 397.85742 150 C 397.68904 149.83162 397.31115 150.16834 397.14258 150 C 396.97439 149.83164 397.24916 149.49813 397.14258 149.28516 C 396.992 148.98399 396.57816 148.87342 396.42773 148.57227 C 396.32115 148.3593 396.5963 148.0258 396.42773 147.85742 C 396.25939 147.68908 395.88341 148.0258 395.71484 147.85742 C 395.37809 147.5207 396.0516 146.76445 395.71484 146.42773 C 395.5465 146.25936 395.16819 146.59607 395 146.42773 C 394.83143 146.25937 395.16819 145.88318 395 145.71484 C 394.83162 145.5465 394.45335 145.88318 394.28516 145.71484 C 394.11659 145.54648 394.45335 145.16834 394.28516 145 C 394.11678 144.83162 393.74045 145.16834 393.57227 145 C 393.4037 144.83164 393.74045 144.45353 393.57227 144.28516 C 393.40389 144.11682 393.02599 144.45353 392.85742 144.28516 C 392.52067 143.94845 393.19418 143.19414 392.85742 142.85742 C 392.68908 142.68908 392.31115 143.02576 392.14258 142.85742 C 391.97439 142.68906 392.31115 142.31092 392.14258 142.14258 C 391.97424 141.97424 391.5963 142.31092 391.42773 142.14258 C 391.25955 141.97422 391.5963 141.59607 391.42773 141.42773 C 390.95132 140.95131 390.47641 141.90416 390 141.42773 C 389.83143 141.25938 390.16819 140.88318 390 140.71484 C 389.83162 140.5465 389.45335 140.88318 389.28516 140.71484 C 389.11697 140.54648 389.45335 140.16834 389.28516 140 C 388.94844 139.66328 388.28334 140.21298 387.85742 140 C 387.55627 139.84941 387.38069 139.52327 387.14258 139.28516 C 386.90447 139.04706 386.72896 138.72284 386.42773 138.57227 C 386.21476 138.4658 385.88303 138.74064 385.71484 138.57227 C 385.54665 138.40391 385.88303 138.02576 385.71484 137.85742 C 385.5465 137.68904 385.16857 138.02576 385 137.85742 C 384.83181 137.68906 385.16857 137.31092 385 137.14258 C 384.66328 136.80586 383.99818 137.35552 383.57227 137.14258 C 383.27108 136.99199 383.19418 136.42773 382.85742 136.42773 L 382.85742 135.71484 C 382.85742 133.81007 383.09494 135.95238 382.14258 135 C 381.97439 134.83164 382.31115 134.45353 382.14258 134.28516 C 381.97424 134.11682 381.5963 134.45353 381.42773 134.28516 C 381.25955 134.11681 381.5963 133.74061 381.42773 133.57227 C 381.09102 133.23555 380.33676 133.90898 380 133.57227 C 379.83143 133.4039 380.16819 133.0258 380 132.85742 C 379.74927 132.60669 376.92111 133.10411 376.42773 132.85742 C 376.12656 132.70684 376.01603 132.29315 375.71484 132.14258 C 375.32734 131.94884 373.05286 132.33802 372.85742 132.14258 C 372.68904 131.97422 373.02576 131.59607 372.85742 131.42773 C 372.6067 131.177 369.77855 131.67442 369.28516 131.42773 C 368.984 131.27715 368.87346 130.86542 368.57227 130.71484 C 368.18478 130.52111 365.91028 130.91028 365.71484 130.71484 C 365.54647 130.54648 365.88318 130.16834 365.71484 130 C 365.49366 129.77882 362.36376 130.22118 362.14258 130 C 361.97424 129.83164 362.31092 129.45353 362.14258 129.28516 C 361.80586 128.94844 361.05156 129.62187 360.71484 129.28516 C 360.5465 129.1168 360.88318 128.74061 360.71484 128.57227 C 360.54648 128.40393 360.16834 128.74061 360 128.57227 C 359.83166 128.40391 360.16834 128.02576 360 127.85742 C 359.83164 127.68908 359.4535 128.02576 359.28516 127.85742 C 359.11682 127.68906 359.4535 127.31096 359.28516 127.14258 C 359.1168 126.97424 358.74061 127.31096 358.57227 127.14258 C 358.40393 126.97422 358.74061 126.59607 358.57227 126.42773 C 358.40391 126.25936 358.02576 126.59607 357.85742 126.42773 C 356.90503 125.47534 359.04734 125.71484 357.14258 125.71484 C 356.80586 125.37813 357.4793 124.62187 357.14258 124.28516 C 356.97422 124.11682 356.59607 124.4535 356.42773 124.28516 C 356.09102 123.94845 356.76445 123.19414 356.42773 122.85742 C 355.47534 121.90503 355.71484 124.04734 355.71484 122.14258 C 355.54648 121.9742 355.16834 122.31092 355 122.14258 C 354.66328 121.80586 355.33672 121.05156 355 120.71484 C 354.83164 120.5465 354.4535 120.88318 354.28516 120.71484 C 354.11682 120.54648 354.39163 120.21298 354.28516 120 C 354.13458 119.69883 353.72284 119.58635 353.57227 119.28516 C 353.4658 119.07221 353.74064 118.74061 353.57227 118.57227 C 353.40391 118.40393 353.02576 118.74061 352.85742 118.57227 C 352.5207 118.23554 353.19414 117.4793 352.85742 117.14258 C 352.50028 116.78541 351.07197 117.49971 350.71484 117.14258 C 350.54647 116.97422 350.88318 116.59607 350.71484 116.42773 C 350.37812 116.09102 349.71108 116.64071 349.28516 116.42773 C 348.984 116.27715 348.87342 115.86542 348.57227 115.71484 C 348.28905 115.57322 346.57378 115.86085 346.42773 115.71484 C 346.25936 115.54648 346.59607 115.16834 346.42773 115 C 346.07059 114.64287 344.64232 115.35713 344.28516 115 C 344.11682 114.83164 344.4535 114.4535 344.28516 114.28516 C 344.25278 114.25265 341.05164 114.28516 340.71484 114.28516 C 340.47674 114.28516 340.16834 114.4535 340 114.28516 C 339.83166 114.1168 340.16834 113.74061 340 113.57227 C 339.96763 113.53976 336.76453 113.57227 336.42773 113.57227 L 331.42773 113.57227 C 331.18964 113.57227 330.88318 113.40393 330.71484 113.57227 C 330.5465 113.74062 330.88318 114.11682 330.71484 114.28516 C 330.56881 114.4312 328.85547 114.14354 328.57227 114.28516 C 328.2711 114.43574 328.15857 114.84942 327.85742 115 C 327.7109 115.07329 325.81557 115.10072 325.71484 115 C 325.5465 114.83164 325.88318 114.4535 325.71484 114.28516 C 325.3577 113.92803 323.92939 114.64232 323.57227 114.28516 C 323.40393 114.1168 323.74064 113.74061 323.57227 113.57227 C 323.5399 113.53976 320.33679 113.57227 320 113.57227 C 319.82677 113.57227 317.88048 113.54921 317.85742 113.57227 C 317.68904 113.74062 318.02576 114.11682 317.85742 114.28516 C 317.37981 114.76278 316.90534 113.80754 316.42773 114.28516 C 316.25939 114.45352 316.59607 114.83166 316.42773 115 C 316.25938 115.16834 315.88318 114.83166 315.71484 115 C 315.37813 115.33672 316.05156 116.09102 315.71484 116.42773 C 315.54648 116.59607 315.16834 116.25939 315 116.42773 C 314.66328 116.76445 315.21298 117.4315 315 117.85742 C 314.84942 118.15859 314.43573 118.27108 314.28516 118.57227 C 313.99946 119.1437 314.57089 120.14341 314.28516 120.71484 C 314.13458 121.016 313.72284 121.12658 313.57227 121.42773 C 313.44312 121.68605 313.57227 124.50319 313.57227 125 C 313.57227 126.67515 313.40252 124.66245 314.28516 126.42773 C 314.39163 126.6407 314.28516 126.90447 314.28516 127.14258 L 314.28516 127.85742 C 314.28516 128.09552 314.4535 128.40393 314.28516 128.57227 C 314.1168 128.74061 313.74061 128.40393 313.57227 128.57227 C 313.23555 128.90899 313.90898 129.66328 313.57227 130 C 313.50084 130.0714 311.49913 130.0714 311.42773 130 C 311.25939 129.83164 311.59607 129.45353 311.42773 129.28516 C 311.25938 129.11682 310.88318 129.45353 310.71484 129.28516 C 310.54647 129.1168 310.88318 128.74061 310.71484 128.57227 C 310.54648 128.40393 310.16838 128.74061 310 128.57227 C 309.83166 128.40391 310.16838 128.02576 310 127.85742 C 309.83164 127.68908 309.4535 128.02576 309.28516 127.85742 C 309.11682 127.68906 309.4535 127.31096 309.28516 127.14258 C 309.1168 126.97424 308.74064 127.31096 308.57227 127.14258 C 307.6199 126.19018 309.76219 126.42773 307.85742 126.42773 C 307.68908 126.25938 308.0258 125.88318 307.85742 125.71484 C 307.68906 125.5465 307.31092 125.88318 307.14258 125.71484 C 306.9742 125.54648 307.31092 125.16834 307.14258 125 C 306.66497 124.52239 306.19246 125.47761 305.71484 125 C 305.5465 124.83164 305.88318 124.4535 305.71484 124.28516 C 305.37812 123.94844 304.62187 124.62187 304.28516 124.28516 C 304.11682 124.1168 304.28516 123.81038 304.28516 123.57227 L 304.28516 122.85742 C 304.28516 120.95266 304.04762 123.09496 305 122.14258 C 305.16834 121.97422 305 121.66584 305 121.42773 L 305 120.71484 L 305 114.28516 L 305 113.57227 L 305 112.14258 C 305 110.16458 304.28516 112.69283 304.28516 110.71484 C 304.28516 110.45252 304.31388 107.88615 304.28516 107.85742 C 304.11681 107.68908 303.74061 108.0258 303.57227 107.85742 C 303.09465 107.37981 304.04987 106.90535 303.57227 106.42773 C 303.40391 106.25939 303.02576 106.59611 302.85742 106.42773 C 302.68904 106.25938 302.96389 105.92778 302.85742 105.71484 C 302.70684 105.41367 302.14258 105.33672 302.14258 105 C 301.97424 104.83164 302.14258 104.52327 302.14258 104.28516 C 301.90448 104.28516 301.59607 104.45353 301.42773 104.28516 C 301.25939 104.11681 301.5342 103.78524 301.42773 103.57227 C 301.27715 103.27109 300.95295 103.09553 300.71484 102.85742 C 300.47674 102.61933 300.33672 102.14258 300 102.14258 C 299.83164 101.97424 299.4535 102.31092 299.28516 102.14258 C 297.80727 100.66472 301.54495 102.20118 298.57227 100.71484 C 298.35931 100.60837 298.02576 100.88318 297.85742 100.71484 C 297.68908 100.54648 298.02576 100.16834 297.85742 100 C 297.37981 99.522389 296.90535 100.47761 296.42773 100 C 296.25939 99.831641 296.59607 99.453496 296.42773 99.285156 C 296.25938 99.116778 295.88318 99.453496 295.71484 99.285156 C 295.54647 99.116797 295.88318 98.740606 295.71484 98.572266 C 294.75961 97.617039 295.24039 99.527488 294.28516 98.572266 C 294.11682 98.403907 294.4535 98.025762 294.28516 97.857422 C 293.33277 96.90503 293.57227 99.047339 293.57227 97.142578 C 293.4039 96.974238 293.0704 97.249047 292.85742 97.142578 C 292.55625 96.99199 292.44373 96.578311 292.14258 96.427734 C 291.92962 96.321265 291.59607 96.596075 291.42773 96.427734 C 291.25936 96.259375 291.59607 95.883184 291.42773 95.714844 C 291.25937 95.546504 290.92778 95.821313 290.71484 95.714844 C 290.41367 95.56426 290.30115 95.150576 290 95 C 289.78704 94.893531 289.45353 95.16834 289.28516 95 C 289.11682 94.831641 289.45353 94.453496 289.28516 94.285156 C 288.94845 93.948438 288.28334 94.498133 287.85742 94.285156 C 287.55625 94.134572 287.44373 93.722842 287.14258 93.572266 C 286.69363 93.347799 284.73411 93.796732 284.28516 93.572266 C 283.984 93.421682 283.87342 93.007998 283.57227 92.857422 C 283.00084 92.571727 281.99916 93.143116 281.42773 92.857422 C 281.12657 92.706838 281.016 92.293155 280.71484 92.142578 C 280.28892 91.929602 279.62187 92.479296 279.28516 92.142578 C 279.11682 91.974219 279.4535 91.596075 279.28516 91.427734 C 278.94845 91.091016 278.19414 91.764452 277.85742 91.427734 C 277.68908 91.259375 278.0258 90.883222 277.85742 90.714844 C 277.68906 90.546504 277.31092 90.883222 277.14258 90.714844 C 276.97424 90.546485 277.31092 90.16834 277.14258 90 C 276.97422 89.83166 276.59607 90.16834 276.42773 90 C 275.95012 89.522389 276.90534 89.049881 276.42773 88.572266 C 276.25937 88.403925 275.88318 88.740644 275.71484 88.572266 C 275.37813 88.235551 276.05156 87.479296 275.71484 87.142578 C 275.54648 86.974238 275.16834 87.310956 275 87.142578 C 274.83166 86.974219 275.16834 86.596075 275 86.427734 C 274.83164 86.259394 274.4535 86.596075 274.28516 86.427734 C 273.33276 85.475339 275.47703 85.714844 273.57227 85.714844 C 273.40393 85.546485 273.74061 85.16834 273.57227 85 C 273.40391 84.83166 273.0704 85.106469 272.85742 85 C 272.55625 84.849416 272.44373 84.435733 272.14258 84.285156 C 271.92962 84.178687 271.64071 84.391626 271.42773 84.285156 C 271.12656 84.134572 271.05156 83.572266 270.71484 83.572266 C 270.47673 83.572266 270.88318 84.116778 270.71484 84.285156 C 270.37813 84.621874 269.62187 83.948438 269.28516 84.285156 C 269.11682 84.453515 269.4535 84.83166 269.28516 85 C 269.1168 85.16834 268.74064 84.83166 268.57227 85 C 268.40393 85.168359 268.74064 85.546466 268.57227 85.714844 C 268.40391 85.883184 268.02576 85.546466 267.85742 85.714844 C 267.68908 85.883203 268.02576 86.259394 267.85742 86.427734 C 267.68906 86.596075 267.31096 86.259394 267.14258 86.427734 C 266.97424 86.596093 267.31096 86.974238 267.14258 87.142578 C 266.97422 87.310956 266.59611 86.974238 266.42773 87.142578 C 266.25939 87.310937 266.59611 87.689082 266.42773 87.857422 C 265.47535 88.809817 265.71484 86.667505 265.71484 88.572266 C 265.54648 88.740644 265.16838 88.403925 265 88.572266 C 264.83166 88.740625 265.16838 89.116778 265 89.285156 C 264.83164 89.453496 264.4535 89.116778 264.28516 89.285156 C 263.94844 89.621871 264.62187 90.378126 264.28516 90.714844 C 264.11681 90.883222 263.74061 90.546504 263.57227 90.714844 C 263.40389 90.883203 263.67873 91.214758 263.57227 91.427734 C 263.47743 91.617384 261.61739 93.477437 261.42773 93.572266 C 261.21477 93.678735 260.88318 93.740606 260.71484 93.572266 C 260.5465 93.403907 260.71484 93.095532 260.71484 92.857422 C 260.71484 92.535739 260.60614 90.932242 260.71484 90.714844 C 260.86542 90.413672 261.27716 90.301153 261.42773 90 C 261.5342 89.787039 261.32127 89.498095 261.42773 89.285156 C 261.57832 88.983985 261.992 88.873456 262.14258 88.572266 C 262.35555 88.146351 261.9296 87.568497 262.14258 87.142578 C 262.29316 86.84141 262.70685 86.728887 262.85742 86.427734 C 262.93071 86.281213 262.95815 84.385881 262.85742 84.285156 C 262.68906 84.116778 262.31092 84.453496 262.14258 84.285156 C 261.97424 84.116797 262.31092 83.740606 262.14258 83.572266 C 261.97422 83.403925 261.59607 83.740606 261.42773 83.572266 C 261.25936 83.403907 261.59607 83.025762 261.42773 82.857422 C 261.25937 82.689082 260.92778 82.963891 260.71484 82.857422 C 260.41367 82.706838 260.30115 82.293155 260 82.142578 C 259.57408 81.929602 258.90898 82.479296 258.57227 82.142578 C 258.40393 81.974219 258.74061 81.596075 258.57227 81.427734 C 258.21513 81.070607 256.78486 81.7849 256.42773 81.427734 C 256.25939 81.259375 256.59607 80.883184 256.42773 80.714844 C 256.09101 80.378126 255.33672 81.051562 255 80.714844 C 254.83166 80.546488 255.16834 80.16834 255 80 C 254.64286 79.642872 253.21459 80.357128 252.85742 80 C 252.68908 79.831641 253.02576 79.453496 252.85742 79.285156 C 252.66198 79.089717 250.38749 79.478895 250 79.285156 C 249.69883 79.134572 249.58631 78.722842 249.28516 78.572266 C 248.85925 78.359289 248.19414 78.908984 247.85742 78.572266 C 247.68908 78.403907 248.0258 78.025762 247.85742 77.857422 C 247.68906 77.689082 247.35555 77.963891 247.14258 77.857422 C 246.84141 77.706838 246.72889 77.293155 246.42773 77.142578 C 246.21477 77.036109 245.88318 77.310956 245.71484 77.142578 C 245.5465 76.974219 245.88318 76.596075 245.71484 76.427734 C 245.54648 76.259394 245.16834 76.596075 245 76.427734 C 244.83166 76.259375 245.16834 75.883222 245 75.714844 C 244.83164 75.546504 244.4535 75.883222 244.28516 75.714844 C 244.11682 75.546485 244.4535 75.16834 244.28516 75 C 244.1168 74.83166 243.74061 75.16834 243.57227 75 C 243.40393 74.831641 243.67873 74.498095 243.57227 74.285156 C 243.50389 74.148424 240.85155 71.496106 240.71484 71.427734 C 240.50189 71.321265 240.16834 71.596075 240 71.427734 C 239.83166 71.259375 240.16834 70.883184 240 70.714844 C 239.83164 70.546466 239.4535 70.883184 239.28516 70.714844 C 239.11682 70.546485 239.4535 70.16834 239.28516 70 C 239.1168 69.83166 238.78524 70.106469 238.57227 70 C 238.2711 69.849416 238.15857 69.435733 237.85742 69.285156 C 237.64446 69.178687 237.35555 69.391626 237.14258 69.285156 C 236.84141 69.134572 236.72889 68.722842 236.42773 68.572266 C 236.21478 68.465796 235.92778 68.678735 235.71484 68.572266 C 235.41367 68.421678 235.30115 68.007998 235 67.857422 C 234.57408 67.644445 233.99818 68.070398 233.57227 67.857422 C 233.27109 67.706838 233.15857 67.293155 232.85742 67.142578 C 232.57421 67.000959 230.86085 67.288619 230.71484 67.142578 C 230.5465 66.974219 230.88318 66.596075 230.71484 66.427734 C 230.56881 66.281693 228.85547 66.569353 228.57227 66.427734 C 228.2711 66.277147 228.15857 65.86542 227.85742 65.714844 C 227.40848 65.490378 225.44894 65.93931 225 65.714844 C 224.69883 65.56426 224.58631 65.150576 224.28516 65 C 223.85925 64.787024 223.28334 65.212976 222.85742 65 C 222.55625 64.849416 222.44373 64.435733 222.14258 64.285156 C 221.85937 64.143537 220.14604 64.431197 220 64.285156 C 219.83162 64.116797 220.16834 63.740606 220 63.572266 C 219.85397 63.426225 218.14062 63.713885 217.85742 63.572266 C 217.55625 63.421682 217.44373 63.007998 217.14258 62.857422 C 216.69363 62.632956 214.7341 63.081888 214.28516 62.857422 C 213.984 62.706838 213.87342 62.293155 213.57227 62.142578 C 213.00084 61.856884 211.99916 62.428273 211.42773 62.142578 C 211.12657 61.991994 211.016 61.578311 210.71484 61.427734 C 210.26589 61.203268 208.30637 61.652201 207.85742 61.427734 C 207.55625 61.27715 207.44373 60.86542 207.14258 60.714844 C 206.92962 60.608374 206.66584 60.714844 206.42773 60.714844 L 205.71484 60.714844 L 202.14258 60.714844 C 201.90448 60.714844 201.64071 60.821313 201.42773 60.714844 C 201.12656 60.56426 201.016 60.150576 200.71484 60 C 200.43164 59.858381 198.71827 60.146041 198.57227 60 C 198.40393 59.831641 198.74061 59.453496 198.57227 59.285156 C 198.40391 59.116816 198.0704 59.391626 197.85742 59.285156 C 197.55625 59.134569 197.44373 58.722842 197.14258 58.572266 C 196.71666 58.359289 196.14075 58.785242 195.71484 58.572266 C 195.41367 58.421682 195.30115 58.007998 195 57.857422 C 194.78704 57.750953 194.4535 58.025762 194.28516 57.857422 C 194.11682 57.689067 194.4535 57.310918 194.28516 57.142578 C 193.94845 56.80586 193.19414 57.479296 192.85742 57.142578 C 192.68908 56.974219 193.0258 56.596075 192.85742 56.427734 C 192.68906 56.259394 192.35555 56.534204 192.14258 56.427734 C 191.84141 56.27715 191.72889 55.86542 191.42773 55.714844 C 191.00181 55.501867 190.33672 56.051562 190 55.714844 C 189.83162 55.546485 190.16834 55.168378 190 55 C 189.66328 54.663282 188.90898 55.336718 188.57227 55 C 188.40393 54.831641 188.74061 54.453534 188.57227 54.285156 C 188.40391 54.116816 188.09553 54.285156 187.85742 54.285156 L 187.14258 54.285156 C 186.96934 54.285156 185.02306 54.262101 185 54.285156 C 184.83166 54.453515 185.16834 54.83166 185 55 C 184.83164 55.168378 184.4535 54.83166 184.28516 55 C 184.11682 55.168359 184.39163 55.501867 184.28516 55.714844 C 184.13458 56.016015 183.72284 56.126582 183.57227 56.427734 C 183.4658 56.640696 183.74061 56.974238 183.57227 57.142578 C 183.40391 57.310918 183.02576 56.974238 182.85742 57.142578 C 182.37981 57.620193 183.33503 58.094654 182.85742 58.572266 C 182.52071 58.908984 181.76445 58.235548 181.42773 58.572266 C 181.25939 58.740625 181.59607 59.116816 181.42773 59.285156 C 181.40477 59.308211 179.45841 59.285156 179.28516 59.285156 L 178.57227 59.285156 C 178.33416 59.285156 178.0258 59.116816 177.85742 59.285156 C 177.68908 59.453515 178.0258 59.83166 177.85742 60 C 177.68906 60.16834 177.38065 60 177.14258 60 C 176.63629 60 173.04209 60.092334 172.85742 60 C 172.55625 59.849416 172.44373 59.435733 172.14258 59.285156 C 171.75509 59.091418 169.4806 59.480596 169.28516 59.285156 C 169.11682 59.116797 169.4535 58.740606 169.28516 58.572266 C 168.92802 58.215138 167.49971 58.929431 167.14258 58.572266 C 166.97424 58.403907 167.31096 58.025762 167.14258 57.857422 C 166.78543 57.500294 165.35713 58.214549 165 57.857422 C 164.83166 57.689067 165.16838 57.310918 165 57.142578 C 164.66328 56.80586 163.99818 57.355555 163.57227 57.142578 C 163.27109 56.991994 163.15857 56.578311 162.85742 56.427734 C 162.64446 56.321265 162.38065 56.427734 162.14258 56.427734 L 161.42773 56.427734 L 157.14258 56.427734 L 156.42773 56.427734 C 156.18964 56.427734 155.88318 56.596075 155.71484 56.427734 C 155.5465 56.259375 155.88318 55.883184 155.71484 55.714844 C 155.35769 55.357716 153.92939 56.071971 153.57227 55.714844 C 153.40393 55.546485 153.74064 55.168378 153.57227 55 C 153.32154 54.749266 150.49338 55.24669 150 55 C 149.69883 54.849416 149.58631 54.435733 149.28516 54.285156 C 149.10049 54.192822 145.50629 54.285156 145 54.285156 C 144.7619 54.285156 144.45353 54.116816 144.28516 54.285156 C 144.11682 54.453515 144.45353 54.83166 144.28516 55 C 143.94845 55.336718 143.19414 54.663282 142.85742 55 C 142.68908 55.168359 143.02576 55.546504 142.85742 55.714844 C 142.52071 56.051562 141.76445 55.378126 141.42773 55.714844 C 141.25936 55.883203 141.59607 56.259394 141.42773 56.427734 C 141.09102 56.764452 140.33672 56.091016 140 56.427734 C 139.66328 56.764452 140.33672 57.520704 140 57.857422 C 139.83164 58.025762 139.49813 57.750953 139.28516 57.857422 C 138.984 58.00801 138.87342 58.421689 138.57227 58.572266 C 138.35931 58.678735 138.02576 58.403888 137.85742 58.572266 C 137.68904 58.740625 138.02576 59.116816 137.85742 59.285156 C 136.90503 60.237552 137.14258 58.095239 137.14258 60 C 136.97422 60.16834 136.64071 59.893531 136.42773 60 C 136.12657 60.150584 136.016 60.564267 135.71484 60.714844 C 135.50188 60.821313 135.16834 60.546504 135 60.714844 C 134.83162 60.883203 135.16834 61.259394 135 61.427734 C 134.83164 61.596075 134.49813 61.321265 134.28516 61.427734 C 133.68283 61.728902 133.45976 62.556269 132.85742 62.857422 C 132.64446 62.963891 132.31092 62.689082 132.14258 62.857422 C 131.97424 63.025781 132.31092 63.403925 132.14258 63.572266 C 131.80586 63.908984 131.05156 63.235548 130.71484 63.572266 C 129.76244 64.524661 131.90476 64.285156 130 64.285156 L 129.28516 64.285156 C 129.04706 64.285156 128.74061 64.116816 128.57227 64.285156 C 128.40393 64.453515 128.74061 64.83166 128.57227 65 C 128.23555 65.336718 127.56849 64.787024 127.14258 65 C 126.84141 65.150584 126.72889 65.564267 126.42773 65.714844 C 125.17948 66.338968 126.16159 65 125 65 L 125 63.572266 L 125 60 C 125 59.678317 125.1087 58.07482 125 57.857422 C 124.84942 57.556254 124.43573 57.443731 124.28516 57.142578 C 124.17869 56.929621 124.4535 56.596075 124.28516 56.427734 C 124.1168 56.259394 123.74064 56.596075 123.57227 56.427734 C 123.23555 56.091016 123.90898 55.336718 123.57227 55 C 122.6199 54.047604 122.85742 56.189917 122.85742 54.285156 C 122.68906 54.116816 122.31092 54.453534 122.14258 54.285156 C 121.9742 54.116797 122.31092 53.740644 122.14258 53.572266 C 121.97422 53.403925 121.59611 53.740644 121.42773 53.572266 C 121.25939 53.403907 121.59611 53.0258 121.42773 52.857422 C 121.05127 52.480951 119.92868 53.557618 120 52.142578 C 119.70468 51.699595 119.66163 51.091322 119.28516 50.714844 L 119.28516 49.285156 L 119.28516 48.572266 C 119.52327 48.572266 119.28516 48.095532 119.28516 47.857422 C 119.28516 47.619327 119.45353 47.310918 119.28516 47.142578 C 119.11681 46.9742 118.74061 47.310918 118.57227 47.142578 C 118.21514 46.785435 118.92939 45.357128 118.57227 45 C 118.40391 44.83166 118.02576 45.16834 117.85742 45 C 117.5207 44.663282 118.19414 43.908984 117.85742 43.572266 C 117.68906 43.403925 117.31092 43.740606 117.14258 43.572266 C 116.97424 43.403907 117.31092 43.025762 117.14258 42.857422 C 116.97422 42.689082 116.59607 43.025762 116.42773 42.857422 C 116.25939 42.689067 116.59607 42.310918 116.42773 42.142578 C 116.25938 41.974238 115.88318 42.310918 115.71484 42.142578 C 115.5465 41.974219 115.88318 41.596075 115.71484 41.427734 C 115.54648 41.259394 115.21298 41.534204 115 41.427734 C 114.69883 41.27715 114.58631 40.86542 114.28516 40.714844 C 114.07221 40.608374 113.74061 40.883184 113.57227 40.714844 C 113.40393 40.546485 113.74061 40.168378 113.57227 40 C 113.40391 39.83166 113.02576 40.168378 112.85742 40 C 112.68908 39.831641 113.02576 39.453534 112.85742 39.285156 C 112.68906 39.116816 112.35555 39.391626 112.14258 39.285156 C 111.84141 39.134572 111.72892 38.722842 111.42773 38.572266 C 111.21477 38.465796 110.92778 38.678735 110.71484 38.572266 C 110.41367 38.421682 110.30119 38.007998 110 37.857422 C 109.81218 37.763512 107.51607 37.857422 107.14258 37.857422 L 100.71484 37.857422 C 100.39315 37.857422 98.789664 37.966121 98.572266 37.857422 C 98.271094 37.706837 98.158575 37.293162 97.857422 37.142578 C 97.431503 36.929621 96.764452 37.479296 96.427734 37.142578 C 96.259394 36.974219 96.596075 36.596093 96.427734 36.427734 C 96.259375 36.259375 95.883222 36.596093 95.714844 36.427734 C 95.546504 36.259375 95.883222 35.883203 95.714844 35.714844 C 95.378126 35.378126 94.621874 36.051562 94.285156 35.714844 C 94.116816 35.546485 94.453496 35.168359 94.285156 35 C 94.116797 34.831641 93.740606 35.168359 93.572266 35 C 92.094383 33.522116 95.830107 35.058609 92.857422 33.572266 C 92.644464 33.465785 92.310956 33.740625 92.142578 33.572266 C 91.974238 33.403907 92.310956 33.025781 92.142578 32.857422 C 91.974219 32.689063 91.665845 32.857422 91.427734 32.857422 L 85.714844 32.857422 L 80 32.857422 C 79.761905 32.857422 79.453496 33.025781 79.285156 32.857422 C 79.116816 32.689064 79.453496 32.310937 79.285156 32.142578 C 78.948442 31.80586 78.19414 32.479296 77.857422 32.142578 C 77.689082 31.974219 78.025762 31.596093 77.857422 31.427734 C 77.500279 31.070592 76.071971 31.784877 75.714844 31.427734 C 75.546504 31.259375 75.883222 30.883203 75.714844 30.714844 C 75.568818 30.568818 73.855466 30.856448 73.572266 30.714844 C 73.271094 30.56426 73.158575 30.150584 72.857422 30 C 72.644461 29.893519 72.380688 30 72.142578 30 L 71.427734 30 L 67.857422 30 L 67.142578 30 C 66.904483 30 66.596075 30.168359 66.427734 30 C 66.259394 29.831641 66.596075 29.453515 66.427734 29.285156 C 66.259375 29.116797 65.952954 29.285156 65.714844 29.285156 L 65 29.285156 C 64.737689 29.285156 62.171303 29.313881 62.142578 29.285156 C 61.974238 29.116797 62.310956 28.740625 62.142578 28.572266 C 61.80586 28.235548 61.051562 28.908984 60.714844 28.572266 C 60.546504 28.403907 60.883222 28.025781 60.714844 27.857422 C 60.546485 27.689063 60.16834 28.025781 60 27.857422 C 59.83166 27.689064 60.16834 27.310937 60 27.142578 C 59.831641 26.974219 59.453496 27.310937 59.285156 27.142578 C 59.116816 26.974219 59.285156 26.665829 59.285156 26.427734 C 59.047061 26.427734 58.740606 26.596093 58.572266 26.427734 C 58.403925 26.259375 58.740606 25.883203 58.572266 25.714844 C 58.403907 25.546485 58.070398 25.821324 57.857422 25.714844 C 57.000278 25.286273 56.571988 24.000838 55.714844 23.572266 C 55.501886 23.465785 55.168378 23.740625 55 23.572266 C 54.83166 23.403907 55.168378 23.025781 55 22.857422 C 54.663282 22.520704 53.908984 23.19414 53.572266 22.857422 C 53.403925 22.689064 53.740644 22.310937 53.572266 22.142578 C 53.235548 21.80586 52.568497 22.355536 52.142578 22.142578 C 51.841406 21.991993 51.728887 21.578318 51.427734 21.427734 C 51.144523 21.286131 49.431197 21.57376 49.285156 21.427734 C 49.116816 21.259375 49.453534 20.883203 49.285156 20.714844 C 48.928014 20.357701 47.499706 21.071986 47.142578 20.714844 C 46.9742 20.546485 47.310918 20.168359 47.142578 20 C 46.785435 19.642857 45.357128 20.357143 45 20 C 44.83166 19.831641 45.16834 19.453515 45 19.285156 C 44.663282 18.948438 43.908984 19.621874 43.572266 19.285156 C 43.403925 19.116797 43.740606 18.740625 43.572266 18.572266 C 43.403907 18.403907 43.0258 18.740625 42.857422 18.572266 C 42.689082 18.403907 43.0258 18.025781 42.857422 17.857422 C 42.520704 17.520704 41.764452 18.19414 41.427734 17.857422 C 41.259394 17.689064 41.596075 17.310937 41.427734 17.142578 C 41.09102 16.80586 40.425919 17.355536 40 17.142578 C 39.698832 16.991993 39.586347 16.578318 39.285156 16.427734 C 38.897664 16.233988 36.623178 16.623178 36.427734 16.427734 C 36.259375 16.259375 36.596093 15.883203 36.427734 15.714844 C 36.23229 15.519401 33.959756 15.90859 33.572266 15.714844 C 33.271095 15.564259 33.15859 15.150584 32.857422 15 C 32.423692 14.783134 29.005996 15.216866 28.572266 15 C 28.271096 14.849415 28.15859 14.43574 27.857422 14.285156 C 27.574213 14.143552 25.86087 14.431182 25.714844 14.285156 C 25.546485 14.116797 25.883203 13.740625 25.714844 13.572266 C 25.568818 13.42624 23.855473 13.713869 23.572266 13.572266 C 23.271095 13.421681 23.15859 13.008006 22.857422 12.857422 C 22.672743 12.76508 19.078553 12.857422 18.572266 12.857422 C 18.33417 12.857422 18.025781 13.025781 17.857422 12.857422 C 17.689063 12.689064 18.025781 12.310937 17.857422 12.142578 C 17.689063 11.974219 17.355536 12.249059 17.142578 12.142578 C 16.841409 11.991993 16.728906 11.578318 16.427734 11.427734 C 16.214777 11.321254 15.883203 11.596093 15.714844 11.427734 C 15.546485 11.259375 15.883203 10.883203 15.714844 10.714844 C 15.357701 10.357701 13.929408 11.071986 13.572266 10.714844 C 13.403907 10.546485 13.740625 10.168359 13.572266 10 C 13.403907 9.8316409 13.025781 10.168359 12.857422 10 C 12.520704 9.6632823 13.19414 8.9089837 12.857422 8.5722656 C 12.689063 8.4039066 12.310937 8.7406247 12.142578 8.5722656 C 11.974219 8.4039069 12.310937 8.0257809 12.142578 7.8574219 C 11.785435 7.5002792 10.357143 8.2145646 10 7.8574219 C 9.8316409 7.6890632 10.168359 7.3109372 10 7.1425781 C 9.6632826 6.80586 8.9089837 7.4792962 8.5722656 7.1425781 C 8.4039066 6.9742194 8.7406247 6.5960934 8.5722656 6.4277344 C 8.2355483 6.0910163 7.4792962 6.7644525 7.1425781 6.4277344 C 6.9742191 6.2593757 7.3109372 5.8832028 7.1425781 5.7148438 C 6.8058608 5.3781256 6.0515619 6.0515619 5.7148438 5.7148438 C 5.5464847 5.5464851 5.8832028 5.1683591 5.7148438 5 C 5.5464851 4.8316409 5.1683591 5.1683591 5 5 C 4.8316409 4.8316413 5.1683591 4.4535153 5 4.2851562 C 4.8316413 4.1167972 4.4535153 4.4535153 4.2851562 4.2851562 C 4.1167972 4.1167976 4.4535153 3.7406243 4.2851562 3.5722656 C 4.1167972 3.4039069 3.7406243 3.7406243 3.5722656 3.5722656 C 3.4039069 3.4039068 3.7406243 3.0257806 3.5722656 2.8574219 C 3.4039068 2.6890632 3.0703809 2.9639014 2.8574219 2.8574219 C 2.5562526 2.7068372 2.4437475 2.2931628 2.1425781 2.1425781 C 1.9296193 2.0360986 1.5960931 2.3109368 1.4277344 2.1425781 C 1.2593757 1.9742194 1.5960931 1.5960931 1.4277344 1.4277344 C 1.2593757 1.2593757 0.88320243 1.5960931 0.71484375 1.4277344 C 0.54648507 1.2593757 0.88320243 0.88320243 0.71484375 0.71484375 C 0.70836567 0.70836588 0.21198504 0.71691469 0 0.71484375 z M 302.14258 105 C 302.2128 105.07022 302.34978 105.0374 302.48438 104.99609 C 302.31162 104.93862 302.14258 104.88471 302.14258 105 z M 302.48438 104.99609 C 302.6684 105.05731 302.85742 105.1228 302.85742 105 C 302.85742 104.86122 302.67244 104.93838 302.48438 104.99609 z M 562.14258 214.28516 C 562.20545 214.34809 562.19149 214.44342 562.16602 214.54297 C 562.17672 214.72577 562.18321 214.92449 562.21289 215.05664 C 563.73894 216.50571 562.14258 212.82596 562.14258 214.28516 z "
       id="path1431"
       transform="scale(0.26458333)" />
  </g>
</svg>
