<?xml version="1.0" encoding="UTF-8" standalone="no"?>
<!-- Created with Inkscape (http://www.inkscape.org/) -->

<svg
   xmlns:dc="http://purl.org/dc/elements/1.1/"
   xmlns:cc="http://creativecommons.org/ns#"
   xmlns:rdf="http://www.w3.org/1999/02/22-rdf-syntax-ns#"
   xmlns:svg="http://www.w3.org/2000/svg"
   xmlns="http://www.w3.org/2000/svg"
   xmlns:sodipodi="http://sodipodi.sourceforge.net/DTD/sodipodi-0.dtd"
   xmlns:inkscape="http://www.inkscape.org/namespaces/inkscape"
   width="169.33333mm"
   height="127mm"
   viewBox="0 0 169.33333 127"
   version="1.1"
   id="svg874"
   inkscape:version="0.92.4 (5da689c313, 2019-01-14)"
   sodipodi:docname="2_3_subendotelio.svg">
  <defs
     id="defs868" />
  <sodipodi:namedview
     id="base"
     pagecolor="#ffffff"
     bordercolor="#666666"
     borderopacity="1.0"
     inkscape:pageopacity="0.0"
     inkscape:pageshadow="2"
     inkscape:zoom="1.4"
     inkscape:cx="311.2931"
     inkscape:cy="230.5319"
     inkscape:document-units="mm"
     inkscape:current-layer="layer5"
     showgrid="false"
     fit-margin-top="0"
     fit-margin-left="0"
     fit-margin-right="0"
     fit-margin-bottom="0"
     inkscape:window-width="1920"
     inkscape:window-height="1001"
     inkscape:window-x="-9"
     inkscape:window-y="-9"
     inkscape:window-maximized="1" />
  <metadata
     id="metadata871">
    <rdf:RDF>
      <cc:Work
         rdf:about="">
        <dc:format>image/svg+xml</dc:format>
        <dc:type
           rdf:resource="http://purl.org/dc/dcmitype/StillImage" />
        <dc:title></dc:title>
      </cc:Work>
    </rdf:RDF>
  </metadata>
  <g
     inkscape:groupmode="layer"
     id="layer5"
     inkscape:label="subendotelio">
    <path
       style="fill:none;stroke:#000000;stroke-width:0.99999994px;stroke-linecap:butt;stroke-linejoin:miter;stroke-opacity:1"
       d="M 0 49.285156 L 0 49.642578 C 0.042089686 49.506098 0.084179374 49.369336 0 49.285156 z M 1.109375 49.90625 C 0.73939199 49.937817 0.25253813 50.252538 0 50 L 0 92.90625 C 0.5010924 92.839668 1.0534289 92.670282 1.4277344 92.857422 C 3.1930232 93.740047 1.1822947 93.572266 2.8574219 93.572266 C 3.0306552 93.572266 4.9770205 93.549211 5 93.572266 C 5.1683591 93.740625 4.8316409 94.116816 5 94.285156 C 5.1460262 94.431197 6.8593706 94.143537 7.1425781 94.285156 C 7.4437475 94.43574 7.556254 94.849424 7.8574219 95 C 8.2833399 95.212976 8.8592387 94.787024 9.2851562 95 C 9.5863256 95.150584 9.6988321 95.564267 10 95.714844 C 10.425918 95.92782 11.001817 95.501867 11.427734 95.714844 C 11.728904 95.865431 11.84141 96.277158 12.142578 96.427734 C 12.355537 96.534204 12.644464 96.321265 12.857422 96.427734 C 13.158591 96.578322 13.271094 96.992002 13.572266 97.142578 C 14.02121 97.367044 15.97879 96.918112 16.427734 97.142578 C 16.728905 97.293162 16.84141 97.706845 17.142578 97.857422 C 17.714007 98.143154 18.713728 97.571727 19.285156 97.857422 C 19.586326 98.00801 19.680562 98.465796 20 98.572266 C 20.326705 98.681154 22.539583 98.413336 22.857422 98.572266 C 23.158591 98.72285 23.271094 99.13458 23.572266 99.285156 C 23.998182 99.498133 24.574082 99.07218 25 99.285156 C 25.301169 99.43574 25.413676 99.849424 25.714844 100 C 26.140761 100.21298 26.80586 99.663282 27.142578 100 C 27.310937 100.16836 26.974219 100.5465 27.142578 100.71484 C 27.479296 101.05156 28.146348 100.50187 28.572266 100.71484 C 28.873435 100.86542 29.047061 101.18962 29.285156 101.42773 C 29.523253 101.42773 29.787043 101.32127 30 101.42773 C 30.301169 101.57832 30.413672 101.992 30.714844 102.14258 C 31.140761 102.35555 31.71666 101.9296 32.142578 102.14258 C 32.443747 102.29316 32.556254 102.70685 32.857422 102.85742 C 33.28334 103.0704 33.859239 102.64445 34.285156 102.85742 C 34.586326 103.00801 34.698832 103.42169 35 103.57227 C 35.571429 103.85796 36.57115 103.28653 37.142578 103.57227 C 37.443747 103.72285 37.537984 104.17869 37.857422 104.28516 C 38.309177 104.43573 38.808966 104.28516 39.285156 104.28516 C 39.523251 104.52326 39.698847 104.84942 40 105 C 40.258312 105.12915 43.075451 105 43.572266 105 L 55.714844 105 C 55.888078 105 57.834367 104.97694 57.857422 105 C 58.0258 105.16836 57.689082 105.5465 57.857422 105.71484 C 58.025781 105.88318 58.334155 105.71484 58.572266 105.71484 C 58.945777 105.71484 61.23993 105.80873 61.427734 105.71484 C 61.728902 105.56425 61.841425 105.15058 62.142578 105 C 62.327257 104.9077 65.921444 105 66.427734 105 L 69.285156 105 L 70 105 C 70.238095 105 70.501867 104.89353 70.714844 105 C 71.016015 105.15058 71.126582 105.56427 71.427734 105.71484 C 71.878356 105.94014 74.549378 105.48951 75 105.71484 C 75.301168 105.86542 75.413691 106.27716 75.714844 106.42773 C 76.140762 106.64071 76.690823 106.27716 77.142578 106.42773 C 77.647655 106.5961 78.067188 106.9742 78.572266 107.14258 C 78.798145 107.21787 79.07218 107.03611 79.285156 107.14258 C 79.586328 107.29316 79.698847 107.70685 80 107.85742 C 80.425919 108.0704 81.001816 107.64445 81.427734 107.85742 C 81.728902 108.00801 81.841425 108.42169 82.142578 108.57227 C 82.568493 108.78524 83.146347 108.35929 83.572266 108.57227 C 83.873433 108.72285 83.984003 109.13458 84.285156 109.28516 C 84.498114 109.39163 84.787024 109.17869 85 109.28516 C 85.301168 109.43575 85.413691 109.84942 85.714844 110 C 85.927805 110.10647 86.214758 109.89353 86.427734 110 C 86.728906 110.15058 86.841425 110.56427 87.142578 110.71484 C 87.568497 110.92778 88.235548 110.37813 88.572266 110.71484 C 88.740606 110.88319 88.403925 111.25939 88.572266 111.42773 C 88.929408 111.78486 90.357716 111.07061 90.714844 111.42773 C 90.883222 111.59609 90.546504 111.97424 90.714844 112.14258 C 91.051562 112.4793 91.716659 111.9296 92.142578 112.14258 C 92.44375 112.29316 92.556269 112.70685 92.857422 112.85742 C 93.283341 113.0704 93.948438 112.5207 94.285156 112.85742 C 94.453496 113.02578 94.116816 113.40393 94.285156 113.57227 C 94.621874 113.90898 95.378126 113.23555 95.714844 113.57227 C 95.883222 113.74062 95.546504 114.11682 95.714844 114.28516 C 95.86087 114.4312 97.574222 114.14354 97.857422 114.28516 C 98.15859 114.43574 98.271113 114.84942 98.572266 115 C 98.998181 115.21298 99.663282 114.66328 100 115 C 100.16834 115.16836 99.83166 115.5465 100 115.71484 C 100.16836 115.88318 100.47673 115.71484 100.71484 115.71484 L 101.42773 115.71484 L 102.14258 115.71484 C 102.38067 115.71484 102.64445 115.60837 102.85742 115.71484 C 103.15859 115.86542 103.27108 116.27716 103.57227 116.42773 C 103.95975 116.62147 106.2323 116.2323 106.42773 116.42773 C 106.59611 116.59609 106.25939 116.97424 106.42773 117.14258 C 106.59962 117.31447 109.1133 116.97069 109.28516 117.14258 C 109.4535 117.31094 109.11682 117.68904 109.28516 117.85742 C 109.62188 118.19414 110.28892 117.64445 110.71484 117.85742 C 111.01601 118.00801 111.12658 118.42169 111.42773 118.57227 C 111.99916 118.85796 113.00084 118.28653 113.57227 118.57227 C 113.87344 118.72285 113.984 119.13458 114.28516 119.28516 C 114.85659 119.57089 115.8563 118.99946 116.42773 119.28516 C 116.7289 119.43575 116.84143 119.84942 117.14258 120 C 117.42579 120.14162 119.13915 119.85396 119.28516 120 C 119.45353 120.16836 119.11682 120.5465 119.28516 120.71484 C 119.62188 121.05156 120.28892 120.50187 120.71484 120.71484 C 121.01601 120.86542 121.12658 121.27716 121.42773 121.42773 C 121.6407 121.5342 121.9742 121.25939 122.14258 121.42773 C 122.31092 121.5961 121.9742 121.9742 122.14258 122.14258 C 122.31094 122.31092 122.64445 122.03611 122.85742 122.14258 C 123.5603 122.49402 125.01197 124.64858 125.71484 125 C 125.92779 125.10647 126.25936 124.83166 126.42773 125 C 126.59607 125.16836 126.25936 125.5465 126.42773 125.71484 C 126.59609 125.88318 126.97424 125.5465 127.14258 125.71484 C 127.31096 125.8832 126.97424 126.25936 127.14258 126.42773 C 127.31094 126.59607 127.68908 126.25936 127.85742 126.42773 C 128.02576 126.59609 127.68908 126.97424 127.85742 127.14258 C 128.02578 127.31096 128.35929 127.03611 128.57227 127.14258 C 128.87344 127.29316 128.984 127.70685 129.28516 127.85742 C 129.49811 127.96389 129.83162 127.68908 130 127.85742 C 130.16834 128.02578 129.83162 128.40393 130 128.57227 C 130.16836 128.74061 130.5465 128.40393 130.71484 128.57227 C 130.88318 128.74062 130.5465 129.11682 130.71484 129.28516 C 130.8832 129.45353 131.25936 129.11682 131.42773 129.28516 C 131.59607 129.45352 131.25936 129.83162 131.42773 130 C 131.59609 130.16834 131.97424 129.83162 132.14258 130 C 132.31092 130.16836 131.97424 130.5465 132.14258 130.71484 C 132.31094 130.88318 132.68904 130.5465 132.85742 130.71484 C 133.80978 131.66724 131.6675 131.42773 133.57227 131.42773 C 133.90303 131.59312 136.00764 133.86506 136.42773 134.28516 C 136.66584 134.52326 136.84139 134.84942 137.14258 135 C 137.35554 135.10647 137.68904 134.83162 137.85742 135 C 138.02576 135.16836 137.68904 135.5465 137.85742 135.71484 C 138.02578 135.88318 138.40393 135.5465 138.57227 135.71484 C 138.74064 135.88319 138.40393 136.25939 138.57227 136.42773 C 138.74063 136.59611 139.07222 136.32127 139.28516 136.42773 C 139.98803 136.77918 141.4397 138.93374 142.14258 139.28516 C 142.35554 139.39163 142.64445 139.17869 142.85742 139.28516 C 143.71457 139.71374 144.14286 140.99917 145 141.42773 C 145.21296 141.5342 145.5465 141.25936 145.71484 141.42773 C 145.88318 141.59609 145.5465 141.97424 145.71484 142.14258 C 145.8832 142.31092 146.21476 142.03611 146.42773 142.14258 C 147.03007 142.44375 147.25508 143.27111 147.85742 143.57227 C 148.07038 143.67873 148.40389 143.40393 148.57227 143.57227 C 148.74061 143.74062 148.40389 144.11682 148.57227 144.28516 C 148.74062 144.45353 149.07222 144.17869 149.28516 144.28516 C 149.58633 144.43574 149.69885 144.84942 150 145 C 150.21296 145.10647 150.50187 144.89353 150.71484 145 C 151.01601 145.15058 151.12658 145.56427 151.42773 145.71484 C 151.6407 145.82131 151.9296 145.60837 152.14258 145.71484 C 152.44375 145.86542 152.55627 146.27716 152.85742 146.42773 C 153.28334 146.64071 153.94844 146.09102 154.28516 146.42773 C 154.4535 146.59609 154.11682 146.97424 154.28516 147.14258 C 154.62187 147.4793 155.37813 146.80586 155.71484 147.14258 C 155.88318 147.31094 155.5465 147.68908 155.71484 147.85742 C 156.05155 148.19414 156.71666 147.64445 157.14258 147.85742 C 157.44375 148.00801 157.55627 148.42169 157.85742 148.57227 C 158.61782 148.95246 158.52476 148.19206 159.28516 148.57227 C 159.58632 148.72285 159.69881 149.13458 160 149.28516 C 160.42592 149.49813 161.09102 148.94844 161.42773 149.28516 C 161.59607 149.45352 161.25936 149.83166 161.42773 150 C 161.57376 150.14604 163.28907 149.85842 163.57227 150 C 163.87343 150.15058 163.984 150.56427 164.28516 150.71484 C 164.71108 150.92778 165.37813 150.37813 165.71484 150.71484 C 165.88318 150.88319 165.54647 151.25939 165.71484 151.42773 C 166.05155 151.76445 166.71666 151.21476 167.14258 151.42773 C 167.44375 151.57833 167.55627 151.992 167.85742 152.14258 C 168.42885 152.42827 169.42857 151.85685 170 152.14258 C 170.30117 152.29315 170.41369 152.70685 170.71484 152.85742 C 171.14075 153.0704 171.71666 152.64445 172.14258 152.85742 C 172.44375 153.00801 172.55627 153.42169 172.85742 153.57227 C 173.28334 153.78524 173.85925 153.35929 174.28516 153.57227 C 174.58632 153.72285 174.69881 154.13458 175 154.28516 C 175.57143 154.57089 176.57115 153.99946 177.14258 154.28516 C 177.44375 154.43575 177.55627 154.84942 177.85742 155 C 178.42885 155.28569 179.42857 154.71431 180 155 C 180.30117 155.15058 180.41369 155.56427 180.71484 155.71484 C 180.92779 155.82131 181.21476 155.60837 181.42773 155.71484 C 181.72891 155.86542 181.84143 156.27716 182.14258 156.42773 C 182.35554 156.5342 182.64445 156.32127 182.85742 156.42773 C 183.15859 156.57833 183.27111 156.992 183.57227 157.14258 C 183.99819 157.35555 184.57408 156.9296 185 157.14258 C 185.30117 157.29316 185.41369 157.70685 185.71484 157.85742 C 186.14075 158.0704 186.71666 157.64445 187.14258 157.85742 C 187.44375 158.00801 187.55627 158.42169 187.85742 158.57227 C 188.42885 158.85796 189.42857 158.28653 190 158.57227 C 190.30117 158.72285 190.41365 159.13458 190.71484 159.28516 C 191.10233 159.47889 193.37683 159.08972 193.57227 159.28516 C 193.74061 159.45352 193.40389 159.83162 193.57227 160 C 193.71828 160.14604 195.43164 159.85838 195.71484 160 C 196.01601 160.15058 196.12658 160.56427 196.42773 160.71484 C 196.87669 160.93931 198.83622 160.49038 199.28516 160.71484 C 199.58632 160.86542 199.69885 161.27716 200 161.42773 C 200.42592 161.64071 201.00181 161.21476 201.42773 161.42773 C 201.7289 161.57832 201.84139 161.992 202.14258 162.14258 C 202.40089 162.27172 205.21802 162.14258 205.71484 162.14258 L 230.71484 162.14258 L 234.28516 162.14258 C 234.52326 162.14258 234.83162 161.97424 235 162.14258 C 235.16834 162.31094 234.83162 162.68908 235 162.85742 C 235.17188 163.02931 237.68553 162.68553 237.85742 162.85742 C 238.02576 163.02578 237.68908 163.40389 237.85742 163.57227 C 238.19414 163.90898 238.85925 163.35929 239.28516 163.57227 C 239.58633 163.72285 239.69885 164.13458 240 164.28516 C 240.42592 164.49813 241.09102 163.94844 241.42773 164.28516 C 241.59607 164.45352 241.25939 164.83166 241.42773 165 C 241.76446 165.33672 242.5207 164.66328 242.85742 165 C 243.02576 165.16836 242.68908 165.54647 242.85742 165.71484 C 243.19414 166.05156 243.94844 165.37813 244.28516 165.71484 C 244.4535 165.88319 244.11682 166.25939 244.28516 166.42773 C 244.62187 166.76445 245.37813 166.09102 245.71484 166.42773 C 245.88318 166.5961 245.5465 166.97424 245.71484 167.14258 C 245.8832 167.31096 246.21476 167.03611 246.42773 167.14258 C 246.7289 167.29316 246.84143 167.70685 247.14258 167.85742 C 247.35554 167.96389 247.64445 167.75095 247.85742 167.85742 C 248.15859 168.00801 248.27108 168.42169 248.57227 168.57227 C 248.99818 168.78524 249.66328 168.23555 250 168.57227 C 250.16834 168.74063 249.83162 169.11682 250 169.28516 C 250.33672 169.62187 251.00182 169.07222 251.42773 169.28516 C 251.72891 169.43574 251.84139 169.84942 252.14258 170 C 252.5685 170.21298 253.14635 169.78702 253.57227 170 C 253.87344 170.15058 253.984 170.56427 254.28516 170.71484 C 254.49812 170.82131 254.83166 170.5465 255 170.71484 C 255.16834 170.8832 254.83166 171.25936 255 171.42773 C 255.16836 171.59607 255.50191 171.32127 255.71484 171.42773 C 256.01602 171.57833 256.12654 171.992 256.42773 172.14258 C 256.6407 172.24905 256.92964 172.03611 257.14258 172.14258 C 257.44375 172.29316 257.55627 172.70685 257.85742 172.85742 C 258.28334 173.0704 258.94844 172.5207 259.28516 172.85742 C 259.4535 173.02578 259.11682 173.40393 259.28516 173.57227 C 259.62187 173.90898 260.28893 173.35929 260.71484 173.57227 C 261.01602 173.72285 261.12658 174.13458 261.42773 174.28516 C 261.64069 174.39163 261.97424 174.11682 262.14258 174.28516 C 262.31092 174.45352 261.97424 174.83162 262.14258 175 C 262.62019 175.47761 263.09465 174.52239 263.57227 175 C 263.74061 175.16836 263.40389 175.5465 263.57227 175.71484 C 263.90898 176.05156 264.57408 175.50187 265 175.71484 C 265.30117 175.86542 265.41369 176.27716 265.71484 176.42773 C 266.28626 176.71347 267.28599 176.14204 267.85742 176.42773 C 268.15859 176.57832 268.27111 176.992 268.57227 177.14258 C 268.78523 177.24905 269.07222 177.03611 269.28516 177.14258 C 269.58632 177.29316 269.69885 177.70685 270 177.85742 C 270.57143 178.14315 271.57115 177.57173 272.14258 177.85742 C 272.44375 178.00801 272.55627 178.42169 272.85742 178.57227 C 273.88854 179.08782 273.67916 178.69916 273.48047 178.44922 C 273.59263 178.57548 273.7707 178.7707 274.28516 179.28516 C 275.05124 179.66821 274.94875 178.90212 275.71484 179.28516 C 276.01602 179.43575 276.12658 179.84942 276.42773 180 C 277.57401 180.57313 276.71115 179.42687 277.85742 180 C 278.15859 180.15058 278.27108 180.56427 278.57227 180.71484 C 278.99818 180.92778 279.57408 180.50187 280 180.71484 C 280.60234 181.016 280.82539 181.84143 281.42773 182.14258 C 281.85366 182.35555 282.43151 181.9296 282.85742 182.14258 C 283.45976 182.44375 283.68282 183.27111 284.28516 183.57227 C 284.49811 183.67873 284.78702 183.4658 285 183.57227 C 285.30117 183.72285 285.41369 184.13458 285.71484 184.28516 C 285.92779 184.39163 286.21476 184.17869 286.42773 184.28516 C 286.7289 184.43574 286.84143 184.84942 287.14258 185 C 287.35554 185.10647 287.64445 184.89353 287.85742 185 C 288.15859 185.15058 288.27111 185.56427 288.57227 185.71484 C 288.78523 185.82131 289.07222 185.60837 289.28516 185.71484 C 289.58633 185.86542 289.69881 186.27716 290 186.42773 C 290.42592 186.64071 291.09102 186.09102 291.42773 186.42773 C 291.59607 186.59609 291.25936 186.97424 291.42773 187.14258 C 291.59609 187.31092 291.9296 187.03611 292.14258 187.14258 C 292.44375 187.29316 292.55627 187.70685 292.85742 187.85742 C 293.28334 188.0704 293.94844 187.5207 294.28516 187.85742 C 294.4535 188.02578 294.11682 188.40393 294.28516 188.57227 C 294.62188 188.90898 295.28892 188.35929 295.71484 188.57227 C 296.31717 188.87343 296.54024 189.69881 297.14258 190 C 297.90676 190.38209 297.80809 189.61791 298.57227 190 C 298.87344 190.15058 298.984 190.56427 299.28516 190.71484 C 299.49811 190.82131 299.78702 190.60837 300 190.71484 C 300.30117 190.86542 300.41369 191.27716 300.71484 191.42773 C 301.14075 191.64071 301.71666 191.21476 302.14258 191.42773 C 302.44375 191.57832 302.55627 191.992 302.85742 192.14258 C 303.07038 192.24905 303.35929 192.03611 303.57227 192.14258 C 303.87343 192.29316 303.984 192.70685 304.28516 192.85742 C 305.31494 193.37232 305.11056 192.98631 304.91211 192.73633 C 305.02486 192.86314 305.20205 193.05947 305.71484 193.57227 C 306.48092 193.95531 306.37649 193.18923 307.14258 193.57227 C 307.44375 193.72285 307.55627 194.13458 307.85742 194.28516 C 309.0037 194.8583 308.1389 193.71202 309.28516 194.28516 C 309.58633 194.43575 309.69885 194.84942 310 195 C 310.21296 195.10647 310.50187 194.89353 310.71484 195 C 311.01601 195.15058 311.12658 195.56427 311.42773 195.71484 C 311.85365 195.92778 312.5207 195.37813 312.85742 195.71484 C 313.02576 195.88319 312.68908 196.25939 312.85742 196.42773 C 313.19414 196.76445 313.94844 196.09102 314.28516 196.42773 C 314.4535 196.59609 314.11682 196.97424 314.28516 197.14258 C 314.76278 197.62019 315.23722 196.66496 315.71484 197.14258 C 315.88318 197.31094 315.5465 197.68904 315.71484 197.85742 C 316.05155 198.19414 316.71666 197.64445 317.14258 197.85742 C 317.44375 198.00801 317.55627 198.42169 317.85742 198.57227 C 318.07038 198.67873 318.40393 198.40393 318.57227 198.57227 C 318.74061 198.74062 318.40393 199.11682 318.57227 199.28516 C 318.90898 199.62187 319.57408 199.07222 320 199.28516 C 320.30117 199.43574 320.41369 199.84942 320.71484 200 C 321.73697 200.51106 321.54075 200.13485 321.34375 199.88477 C 321.45738 200.01241 321.63231 200.20458 322.14258 200.71484 C 322.35554 200.82131 322.64445 200.60837 322.85742 200.71484 C 323.45976 201.016 323.68283 201.84139 324.28516 202.14258 C 324.49812 202.24905 324.78706 202.03611 325 202.14258 C 325.60234 202.44375 325.82539 203.27111 326.42773 203.57227 C 326.6407 203.67873 326.92964 203.4658 327.14258 203.57227 C 327.44375 203.72285 327.55623 204.13458 327.85742 204.28516 C 328.07038 204.39163 328.40393 204.11682 328.57227 204.28516 C 328.74061 204.45352 328.40393 204.83162 328.57227 205 C 328.74062 205.16834 329.07222 204.89353 329.28516 205 C 329.8875 205.30117 330.1125 206.12658 330.71484 206.42773 C 331.73835 206.93949 331.53907 206.56257 331.3418 206.3125 C 331.45522 206.43995 331.63171 206.63171 332.14258 207.14258 C 332.5685 207.35555 333.14634 206.9296 333.57227 207.14258 C 333.87343 207.29316 333.984 207.70685 334.28516 207.85742 C 335.42857 208.42913 334.57141 207.28571 335.71484 207.85742 C 336.01601 208.00801 336.12658 208.42169 336.42773 208.57227 C 336.99916 208.85796 338.00084 208.28653 338.57227 208.57227 C 338.87344 208.72285 338.984 209.13458 339.28516 209.28516 C 339.71107 209.49813 340.28893 209.07222 340.71484 209.28516 C 341.01602 209.43575 341.12658 209.84942 341.42773 210 C 341.87669 210.22447 343.83622 209.77553 344.28516 210 C 346.05045 210.88263 344.03972 210.71484 345.71484 210.71484 C 345.88807 210.71484 347.83437 210.69179 347.85742 210.71484 C 348.0258 210.88319 347.68908 211.25939 347.85742 211.42773 C 348.02578 211.59607 348.33416 211.42773 348.57227 211.42773 L 349.28516 211.42773 L 352.85742 211.42773 L 353.57227 211.42773 C 353.81036 211.42773 354.07222 211.32127 354.28516 211.42773 C 356.05045 212.3104 354.03972 212.14258 355.71484 212.14258 C 355.88807 212.14258 357.83437 212.11952 357.85742 212.14258 C 358.02576 212.31094 357.68908 212.68904 357.85742 212.85742 C 358.05287 213.05286 360.32734 212.66368 360.71484 212.85742 C 361.01602 213.00801 361.12654 213.42169 361.42773 213.57227 C 361.99916 213.85796 363.00084 213.28653 363.57227 213.57227 C 363.87343 213.72285 363.984 214.13458 364.28516 214.28516 C 364.73411 214.50962 366.69363 214.06069 367.14258 214.28516 C 367.44375 214.43574 367.55627 214.84942 367.85742 215 C 368.31051 215.22654 370.96373 214.76797 371.42773 215 C 371.7289 215.15058 371.84143 215.56427 372.14258 215.71484 C 372.59152 215.93931 374.55106 215.49038 375 215.71484 C 375.30117 215.86542 375.41369 216.27716 375.71484 216.42773 C 375.90265 216.52162 378.19885 216.42773 378.57227 216.42773 C 379.14222 216.42773 381.71406 216.57056 382.14258 216.42773 C 382.64764 216.25938 383.06717 215.88318 383.57227 215.71484 C 383.79813 215.63956 384.04705 215.71484 384.28516 215.71484 L 385.71484 215.71484 L 389.28516 215.71484 C 389.76134 215.71484 390.26308 215.86542 390.71484 215.71484 C 391.03425 215.60836 391.10836 215.10647 391.42773 215 C 391.79575 214.87735 395.67217 215 396.42773 215 L 402.14258 215 C 402.51607 215 404.81216 214.90612 405 215 C 405.30115 215.15058 405.41362 215.56427 405.71484 215.71484 C 406.16544 215.94014 408.83452 215.48951 409.28516 215.71484 C 409.58631 215.86542 409.69877 216.27716 410 216.42773 C 410.76414 216.80982 410.66355 216.04564 411.42773 216.42773 C 411.72892 216.57832 411.84135 216.992 412.14258 217.14258 C 412.714 217.42827 413.71373 216.85685 414.28516 217.14258 C 414.58635 217.29316 414.69877 217.70685 415 217.85742 C 415.42591 218.0704 416.00182 217.64445 416.42773 217.85742 C 416.72889 218.00801 416.84135 218.42169 417.14258 218.57227 C 417.564 218.78297 418.79386 218.4085 419.28516 218.57227 C 419.79025 218.74062 420.20975 219.11682 420.71484 219.28516 C 420.94071 219.36044 421.21495 219.17869 421.42773 219.28516 C 421.72892 219.43575 421.84135 219.84942 422.14258 220 C 422.56849 220.21298 423.14635 219.78702 423.57227 220 C 423.87342 220.15058 423.98393 220.56427 424.28516 220.71484 C 425.43137 221.28797 424.56859 220.1417 425.71484 220.71484 C 426.01603 220.86542 426.12651 221.27716 426.42773 221.42773 C 426.85365 221.64071 427.52067 221.09102 427.85742 221.42773 C 428.02561 221.5961 427.68885 221.9742 427.85742 222.14258 C 428.02576 222.31092 428.35948 222.03611 428.57227 222.14258 C 428.87342 222.29316 428.98393 222.70685 429.28516 222.85742 C 429.71107 223.0704 430.28893 222.64445 430.71484 222.85742 C 431.01603 223.00801 431.12651 223.42169 431.42773 223.57227 C 431.87833 223.79756 434.54937 223.34697 435 223.57227 C 435.30115 223.72285 435.41362 224.13458 435.71484 224.28516 C 436.16378 224.50962 438.1233 224.06069 438.57227 224.28516 C 438.87342 224.43575 438.98393 224.84942 439.28516 225 C 439.71107 225.21298 440.28893 224.78702 440.71484 225 C 441.01603 225.15058 441.12651 225.56427 441.42773 225.71484 C 441.64071 225.82131 441.92941 225.60837 442.14258 225.71484 C 442.44373 225.86542 442.55619 226.27716 442.85742 226.42773 C 443.88852 226.94329 443.67916 226.55659 443.48047 226.30664 C 443.59263 226.4329 443.7707 226.62812 444.28516 227.14258 C 444.49813 227.24905 444.83181 226.97424 445 227.14258 C 445.16857 227.31094 444.83181 227.68904 445 227.85742 C 445.35717 228.21459 446.78541 227.50029 447.14258 227.85742 C 447.31077 228.02578 446.97401 228.40393 447.14258 228.57227 C 447.31092 228.74061 447.64463 228.4658 447.85742 228.57227 C 448.15861 228.72285 448.33416 229.04705 448.57227 229.28516 C 448.81038 229.28516 449.07237 229.17869 449.28516 229.28516 C 449.8875 229.58632 450.1125 230.41369 450.71484 230.71484 C 450.92778 230.82131 451.21495 230.60837 451.42773 230.71484 C 451.72892 230.86542 451.84135 231.27716 452.14258 231.42773 C 452.35555 231.5342 452.64463 231.32127 452.85742 231.42773 C 453.15857 231.57832 453.27104 231.992 453.57227 232.14258 C 453.78524 232.24905 454.11659 231.97424 454.28516 232.14258 C 454.45335 232.31094 454.11659 232.68904 454.28516 232.85742 C 454.62187 233.19414 455.37809 232.5207 455.71484 232.85742 C 455.88341 233.02578 455.54665 233.40389 455.71484 233.57227 C 455.88322 233.74061 456.21495 233.4658 456.42773 233.57227 C 457.03008 233.87343 457.25508 234.69881 457.85742 235 C 458.28334 235.21298 458.9484 234.66328 459.28516 235 C 459.45372 235.16836 459.11697 235.5465 459.28516 235.71484 C 459.62187 236.05156 460.37809 235.37813 460.71484 235.71484 C 460.88303 235.88319 460.54665 236.25939 460.71484 236.42773 C 460.88318 236.59611 461.21495 236.32127 461.42773 236.42773 C 461.72889 236.57833 461.90447 236.90447 462.14258 237.14258 C 462.38065 237.14258 462.64463 237.03611 462.85742 237.14258 C 463.15861 237.29316 463.27104 237.70685 463.57227 237.85742 C 464.60206 238.37232 464.39572 237.98631 464.19727 237.73633 C 464.31001 237.86314 464.4872 238.05947 465 238.57227 C 465.21294 238.67873 465.50168 238.4658 465.71484 238.57227 C 466.016 238.72285 466.12651 239.13458 466.42773 239.28516 C 466.85369 239.49813 467.43151 239.07222 467.85742 239.28516 C 468.15857 239.43575 468.27104 239.84942 468.57227 240 C 469.14369 240.28569 470.14342 239.71431 470.71484 240 C 471.01603 240.15058 471.12651 240.56427 471.42773 240.71484 C 471.85365 240.92778 472.43151 240.50187 472.85742 240.71484 C 473.15857 240.86542 473.27104 241.27716 473.57227 241.42773 C 473.99818 241.64071 474.57409 241.21476 475 241.42773 C 475.30119 241.57833 475.41362 241.992 475.71484 242.14258 C 475.92782 242.24905 476.21495 242.03611 476.42773 242.14258 C 476.72889 242.29316 476.84135 242.70685 477.14258 242.85742 C 477.56849 243.0704 478.14635 242.64445 478.57227 242.85742 C 478.87346 243.00801 478.98393 243.42169 479.28516 243.57227 C 479.85658 243.85796 480.85631 243.28653 481.42773 243.57227 C 481.72892 243.72285 481.84135 244.13458 482.14258 244.28516 C 482.35555 244.39163 482.61931 244.28516 482.85742 244.28516 L 484.28516 244.28516 C 485.01438 244.28516 488.9382 244.1695 489.28516 244.28516 C 489.6046 244.39163 489.68063 244.89353 490 245 C 491.07142 245.35713 492.50085 244.64287 493.57227 245 C 493.89171 245.10648 493.96579 245.60837 494.28516 245.71484 C 494.96279 245.94071 495.7501 245.48898 496.42773 245.71484 C 496.93283 245.8832 497.35236 246.25936 497.85742 246.42773 C 498.54186 246.65587 500.76601 246.20716 501.42773 246.42773 C 501.74718 246.53421 501.82321 247.03611 502.14258 247.14258 C 503.04607 247.44373 504.0965 246.84143 505 247.14258 C 505.31945 247.24906 505.39547 247.75095 505.71484 247.85742 C 506.16661 248.008 506.69081 247.70685 507.14258 247.85742 C 507.46202 247.9639 507.53805 248.4658 507.85742 248.57227 C 508.30919 248.72284 508.83339 248.42169 509.28516 248.57227 C 509.6046 248.67875 509.69877 249.13458 510 249.28516 C 511.03002 249.80017 510.8235 249.41404 510.625 249.16406 C 510.73737 249.29052 510.91388 249.48614 511.42773 250 C 511.85369 250.21298 512.43151 249.78702 512.85742 250 C 513.15857 250.15058 513.27104 250.56427 513.57227 250.71484 C 514.0212 250.93931 515.9788 250.49038 516.42773 250.71484 C 516.72892 250.86542 516.82321 251.32127 517.14258 251.42773 C 517.59435 251.57831 518.09605 251.42773 518.57227 251.42773 C 518.81034 251.42773 519.07237 251.32127 519.28516 251.42773 C 519.58635 251.57833 519.69877 251.992 520 252.14258 C 520.45645 252.37079 522.28252 251.95092 522.85742 252.14258 C 523.36252 252.31094 523.7801 252.68908 524.28516 252.85742 C 524.73692 253.008 525.28893 252.64445 525.71484 252.85742 C 526.016 253.00801 526.12651 253.42169 526.42773 253.57227 C 526.64071 253.67873 526.92979 253.4658 527.14258 253.57227 C 527.44377 253.72285 527.55619 254.13458 527.85742 254.28516 C 528.42885 254.57089 529.42857 253.99946 530 254.28516 C 530.30119 254.43575 530.41362 254.84942 530.71484 255 C 530.92782 255.10647 531.21495 254.89353 531.42773 255 C 531.72892 255.15058 531.84135 255.56427 532.14258 255.71484 C 532.714 256.00054 533.71373 255.42911 534.28516 255.71484 C 534.58635 255.86542 534.69877 256.27716 535 256.42773 C 535.44897 256.6522 537.40849 256.20327 537.85742 256.42773 C 538.15861 256.57833 538.27104 256.992 538.57227 257.14258 C 539.14369 257.42827 540.14342 256.85685 540.71484 257.14258 C 541.016 257.29316 541.12651 257.70685 541.42773 257.85742 C 541.85369 258.0704 542.43151 257.64445 542.85742 257.85742 C 543.15857 258.00801 543.27104 258.42169 543.57227 258.57227 C 543.7852 258.67873 544.07237 258.4658 544.28516 258.57227 C 544.58631 258.72285 544.69877 259.13458 545 259.28516 C 545.44897 259.50962 547.40845 259.06069 547.85742 259.28516 C 548.15857 259.43574 548.27104 259.84942 548.57227 260 C 548.89009 260.15893 551.10118 259.89111 551.42773 260 C 551.74718 260.10648 551.84135 260.56427 552.14258 260.71484 C 552.60659 260.94683 555.26175 260.4883 555.71484 260.71484 C 556.016 260.86542 556.12651 261.27716 556.42773 261.42773 C 556.64071 261.5342 556.90447 261.42773 557.14258 261.42773 L 558.57227 261.42773 L 563.57227 261.42773 C 564.28652 261.42773 565.03721 261.20187 565.71484 261.42773 C 566.03429 261.53421 566.12651 261.992 566.42773 262.14258 C 566.64067 262.24905 566.90447 262.14258 567.14258 262.14258 C 567.68857 262.14258 571.94151 262.04212 572.14258 262.14258 C 572.44377 262.29316 572.53805 262.75095 572.85742 262.85742 C 573.34336 263.01941 576.04899 262.66807 576.42773 262.85742 C 576.72892 263.00801 576.84135 263.42169 577.14258 263.57227 C 577.35555 263.67873 577.61931 263.57227 577.85742 263.57227 L 578.57227 263.57227 L 582.85742 263.57227 L 592.14258 263.57227 C 592.6394 263.57227 595.4567 263.44312 595.71484 263.57227 C 596.01603 263.72285 596.12651 264.13458 596.42773 264.28516 C 596.64067 264.39163 596.90447 264.28516 597.14258 264.28516 L 597.85742 264.28516 L 602.14258 264.28516 L 603.57227 264.28516 C 603.81034 264.28516 604.11697 264.11682 604.28516 264.28516 C 604.45335 264.45352 604.07237 264.89353 604.28516 265 C 604.71107 265.21298 605.26311 264.84942 605.71484 265 C 606.03429 265.10648 606.12651 265.56427 606.42773 265.71484 C 606.99916 266.00054 608.0008 265.42911 608.57227 265.71484 C 608.87342 265.86542 608.98393 266.27716 609.28516 266.42773 C 609.49813 266.5342 609.78721 266.32127 610 266.42773 C 610.30119 266.57833 610.41362 266.992 610.71484 267.14258 C 611.16378 267.36704 613.12333 266.91811 613.57227 267.14258 C 613.87346 267.29316 613.98393 267.70685 614.28516 267.85742 C 615.04745 268.23856 614.95255 267.47628 615.71484 267.85742 C 616.016 268.00801 616.12651 268.42169 616.42773 268.57227 C 616.85369 268.78524 617.43151 268.35933 617.85742 268.57227 C 618.15857 268.72285 618.27104 269.13458 618.57227 269.28516 C 619.59578 269.79691 619.3965 269.42 619.19922 269.16992 C 619.31264 269.29737 619.48914 269.48913 620 270 C 620.76229 270.38114 620.66544 269.61886 621.42773 270 C 621.72889 270.15058 621.90447 270.47673 622.14258 270.71484 C 622.38065 270.71484 622.64426 270.60837 622.85742 270.71484 C 623.15857 270.86542 623.27104 271.27716 623.57227 271.42773 C 623.7852 271.5342 624.11697 271.25939 624.28516 271.42773 C 624.45335 271.59609 624.11697 271.97424 624.28516 272.14258 C 624.45353 272.31092 624.83181 271.97424 625 272.14258 C 625.16857 272.31094 624.83181 272.68904 625 272.85742 C 625.33672 273.19414 626.09098 272.5207 626.42773 272.85742 C 626.59592 273.02578 626.25955 273.40393 626.42773 273.57227 C 626.76445 273.90898 627.52067 273.23555 627.85742 273.57227 C 628.02561 273.74062 627.68923 274.11682 627.85742 274.28516 C 628.21459 274.64228 629.64283 273.92803 630 274.28516 C 630.16819 274.45352 629.83181 274.83166 630 275 C 630.25073 275.25073 633.07889 274.75331 633.57227 275 C 633.87342 275.15058 633.98393 275.56427 634.28516 275.71484 C 634.73409 275.93931 636.69361 275.49038 637.14258 275.71484 C 637.44373 275.86542 637.55619 276.27716 637.85742 276.42773 C 638.28334 276.64071 638.85924 276.21476 639.28516 276.42773 C 639.58635 276.57832 639.69877 276.992 640 277.14258 L 640 260.67773 C 639.40757 260.69379 638.7614 260.71484 638.57227 260.71484 C 638.33416 260.71484 638.02576 260.88318 637.85742 260.71484 C 637.68923 260.5465 638.02561 260.16836 637.85742 260 C 637.63632 259.77882 634.50633 260.22118 634.28516 260 C 634.11697 259.83166 634.45335 259.45352 634.28516 259.28516 C 633.92799 258.92803 632.49974 259.64232 632.14258 259.28516 C 631.97439 259.11682 632.31115 258.74062 632.14258 258.57227 C 631.97439 258.40393 631.64071 258.67873 631.42773 258.57227 C 630.91135 258.05588 630.73257 257.85608 630.62109 257.73047 C 630.82087 257.9802 631.03748 258.37617 630 257.85742 C 629.69877 257.70685 629.52327 257.38067 629.28516 257.14258 C 629.04705 256.90447 628.87346 256.57833 628.57227 256.42773 C 628.35948 256.32127 628.09553 256.42773 627.85742 256.42773 C 627.61931 256.18962 627.44373 255.86542 627.14258 255.71484 C 626.71663 255.50191 626.05156 256.05156 625.71484 255.71484 C 625.54665 255.5465 625.88303 255.16836 625.71484 255 C 625.54665 254.83166 625.21298 255.10647 625 255 C 624.69877 254.84942 624.58635 254.43575 624.28516 254.28516 C 623.85924 254.07222 623.28334 254.49813 622.85742 254.28516 C 622.55619 254.13458 622.44373 253.72285 622.14258 253.57227 C 621.71666 253.35933 621.14076 253.78524 620.71484 253.57227 C 620.41362 253.42169 620.30119 253.00801 620 252.85742 C 619.57409 252.64445 618.99818 253.0704 618.57227 252.85742 C 618.27104 252.70685 618.15857 252.29315 617.85742 252.14258 C 617.64426 252.03611 617.35555 252.24905 617.14258 252.14258 C 616.54023 251.84139 616.31715 251.016 615.71484 250.71484 C 614.95255 250.33369 615.04745 251.09598 614.28516 250.71484 C 613.98393 250.56427 613.87346 250.15058 613.57227 250 C 613.14635 249.78702 612.4793 250.33672 612.14258 250 C 611.97439 249.83162 612.31077 249.45352 612.14258 249.28516 C 611.80582 248.94844 611.05156 249.62187 610.71484 249.28516 C 610.54665 249.11682 610.88303 248.74062 610.71484 248.57227 C 610.37809 248.23555 609.71107 248.7852 609.28516 248.57227 C 608.98393 248.42169 608.87342 248.00801 608.57227 247.85742 C 608.0008 247.57173 606.99916 248.14315 606.42773 247.85742 C 606.12651 247.70685 606.01603 247.29316 605.71484 247.14258 C 605.28893 246.9296 604.71107 247.35555 604.28516 247.14258 C 603.98393 246.992 603.87342 246.57832 603.57227 246.42773 C 603.00084 246.14204 601.99916 246.71347 601.42773 246.42773 C 601.12651 246.27716 601.016 245.86542 600.71484 245.71484 C 600.26421 245.48951 597.59317 245.94014 597.14258 245.71484 C 596.84135 245.56427 596.72889 245.15058 596.42773 245 C 595.85631 244.71431 594.85658 245.28569 594.28516 245 C 593.98393 244.84942 593.87342 244.43574 593.57227 244.28516 C 593.0008 243.99946 591.99916 244.57089 591.42773 244.28516 C 591.12651 244.13458 591.01603 243.72285 590.71484 243.57227 C 590.53002 243.47997 586.93404 243.57227 586.42773 243.57227 C 586.18962 243.57227 585.92778 243.67873 585.71484 243.57227 C 585.41362 243.42169 585.30115 243.00801 585 242.85742 C 584.81518 242.76513 581.22111 242.85742 580.71484 242.85742 L 580 242.85742 C 579.76189 242.85742 579.49813 242.96389 579.28516 242.85742 C 578.98393 242.70685 578.87342 242.29316 578.57227 242.14258 C 578.13853 241.92571 574.71889 242.35945 574.28516 242.14258 C 573.98393 241.992 573.87342 241.57833 573.57227 241.42773 C 573.3591 241.32127 573.09553 241.42773 572.85742 241.42773 L 572.14258 241.42773 L 567.85742 241.42773 C 566.1823 241.42773 568.19304 241.59747 566.42773 240.71484 C 566.23989 240.62096 563.94576 240.71484 563.57227 240.71484 L 557.14258 240.71484 L 551.42773 240.71484 C 551.05432 240.71484 548.76007 240.80873 548.57227 240.71484 C 548.27104 240.56427 548.15857 240.15058 547.85742 240 C 547.6726 239.9077 544.07853 240 543.57227 240 C 543.33416 240 543.0258 240.16834 542.85742 240 C 542.68885 239.83166 543.02561 239.45352 542.85742 239.28516 C 542.66202 239.08972 540.38748 239.47889 540 239.28516 C 539.69877 239.13458 539.58631 238.72285 539.28516 238.57227 C 538.79178 238.32558 535.96558 238.823 535.71484 238.57227 C 535.54665 238.40393 535.88303 238.02578 535.71484 237.85742 C 535.56895 237.71142 533.85547 237.99904 533.57227 237.85742 C 533.27104 237.70685 533.15857 237.29316 532.85742 237.14258 C 532.40845 236.91811 530.44897 237.36704 530 237.14258 C 529.69877 236.992 529.58631 236.57833 529.28516 236.42773 C 528.85924 236.21476 528.19414 236.76445 527.85742 236.42773 C 527.68885 236.25939 528.02561 235.88319 527.85742 235.71484 C 527.50026 235.35768 526.07197 236.07197 525.71484 235.71484 C 525.54665 235.5465 525.88303 235.16836 525.71484 235 C 525.37809 234.66328 524.71107 235.21298 524.28516 235 C 523.98393 234.84942 523.87346 234.43575 523.57227 234.28516 C 523.35948 234.17869 523.0704 234.39163 522.85742 234.28516 C 522.55619 234.13458 522.44373 233.72285 522.14258 233.57227 C 521.71666 233.35929 521.14076 233.78524 520.71484 233.57227 C 520.41362 233.42169 520.30119 233.00801 520 232.85742 C 519.61252 232.66368 517.33802 233.05286 517.14258 232.85742 C 516.97401 232.68904 517.31077 232.31094 517.14258 232.14258 C 516.99669 231.99654 515.28324 232.28416 515 232.14258 C 514.69877 231.992 514.58631 231.57832 514.28516 231.42773 C 513.85924 231.21476 513.28334 231.64071 512.85742 231.42773 C 512.55619 231.27716 512.44377 230.86542 512.14258 230.71484 C 511.71666 230.50187 511.14076 230.92778 510.71484 230.71484 C 510.41362 230.56427 510.30115 230.15058 510 230 C 509.78683 229.89353 509.49809 230.10647 509.28516 230 C 508.98393 229.84942 508.87346 229.43574 508.57227 229.28516 C 508.14635 229.07222 507.56849 229.49813 507.14258 229.28516 C 506.84135 229.13458 506.72889 228.72285 506.42773 228.57227 C 506.00182 228.35929 505.33672 228.90898 505 228.57227 C 504.83181 228.40393 505.16857 228.02578 505 227.85742 C 504.85411 227.71138 503.14062 227.99904 502.85742 227.85742 C 502.55619 227.70685 502.44373 227.29316 502.14258 227.14258 C 501.57115 226.85685 500.57143 227.42827 500 227.14258 C 499.69877 226.992 499.58631 226.57833 499.28516 226.42773 C 498.71373 226.14204 497.714 226.71347 497.14258 226.42773 C 496.84135 226.27716 496.72892 225.86542 496.42773 225.71484 C 496.00182 225.50187 495.42591 225.92778 495 225.71484 C 494.69877 225.56427 494.58631 225.15058 494.28516 225 C 493.83622 224.77553 491.87667 225.22447 491.42773 225 C 491.12651 224.84942 491.01603 224.43575 490.71484 224.28516 C 490.43176 224.14354 488.71827 224.4312 488.57227 224.28516 C 488.4037 224.11682 488.74045 223.74063 488.57227 223.57227 C 488.23551 223.23555 487.56849 223.78524 487.14258 223.57227 C 486.84135 223.42169 486.72892 223.00801 486.42773 222.85742 C 486.21495 222.75095 485.95295 222.85742 485.71484 222.85742 C 485.20858 222.85742 481.61244 222.94972 481.42773 222.85742 C 481.12651 222.70685 481.016 222.29316 480.71484 222.14258 C 480.26421 221.91728 477.59317 222.36788 477.14258 222.14258 C 476.62812 221.62812 476.45005 221.4329 476.33789 221.30664 C 476.53658 221.55659 476.74596 221.94329 475.71484 221.42773 C 475.41362 221.27716 475.30119 220.86542 475 220.71484 C 474.56626 220.49797 471.14858 220.93171 470.71484 220.71484 C 470.41362 220.56427 470.30115 220.15058 470 220 C 469.42854 219.71431 468.42885 220.28569 467.85742 220 C 467.55619 219.84942 467.44377 219.43575 467.14258 219.28516 C 466.57115 218.99946 465.57143 219.57089 465 219.28516 C 464.69877 219.13458 464.58631 218.72285 464.28516 218.57227 C 464.00207 218.43065 462.28858 218.71827 462.14258 218.57227 C 461.97401 218.40393 462.31077 218.02578 462.14258 217.85742 C 461.80582 217.5207 461.05156 218.19414 460.71484 217.85742 C 460.54665 217.68904 460.88303 217.31094 460.71484 217.14258 C 460.54665 216.97424 460.21298 217.24905 460 217.14258 C 459.69877 216.992 459.58635 216.57832 459.28516 216.42773 C 459.07237 216.32127 458.74061 216.59607 458.57227 216.42773 C 458.4037 216.25936 458.74045 215.8832 458.57227 215.71484 C 458.4037 215.5465 458.02576 215.88318 457.85742 215.71484 C 457.68885 215.5465 458.02561 215.16836 457.85742 215 C 457.52067 214.66328 456.76445 215.33672 456.42773 215 C 456.25955 214.83166 456.5963 214.45352 456.42773 214.28516 C 456.09098 213.94844 455.33672 214.62187 455 214.28516 C 454.83143 214.11682 455.16819 213.74062 455 213.57227 C 454.83143 213.40393 454.52323 213.57227 454.28516 213.57227 C 454.28516 213.33416 454.45335 213.02578 454.28516 212.85742 C 454.11659 212.68904 453.74061 213.02576 453.57227 212.85742 C 453.4037 212.68904 453.74045 212.31094 453.57227 212.14258 C 453.4037 211.97424 453.0258 212.31096 452.85742 212.14258 C 452.68885 211.97424 453.02599 211.59609 452.85742 211.42773 C 452.68885 211.25939 452.35555 211.5342 452.14258 211.42773 C 451.84135 211.27716 451.72892 210.86542 451.42773 210.71484 C 451.21495 210.60837 450.88318 210.88318 450.71484 210.71484 C 450.54628 210.54647 450.88303 210.16836 450.71484 210 C 450.54628 209.83166 450.21294 210.10647 450 210 C 449.69877 209.84942 449.58631 209.43575 449.28516 209.28516 C 449.07237 209.17869 448.78524 209.39163 448.57227 209.28516 C 448.27104 209.13458 448.15861 208.72285 447.85742 208.57227 C 447.6401 208.46357 446.03652 208.57227 445.71484 208.57227 C 445.47673 208.57227 445.16838 208.40393 445 208.57227 C 444.83181 208.74064 445.16857 209.1168 445 209.28516 C 444.66324 209.62187 443.90898 208.94844 443.57227 209.28516 C 443.4037 209.4535 443.74045 209.83164 443.57227 210 C 443.4037 210.16838 443.02576 209.83166 442.85742 210 C 442.68885 210.16838 443.02561 210.54648 442.85742 210.71484 C 442.68885 210.88318 442.35555 210.60837 442.14258 210.71484 C 441.84135 210.86542 441.72892 211.27715 441.42773 211.42773 C 441.21495 211.5342 440.88322 211.25939 440.71484 211.42773 C 440.54665 211.59607 440.88341 211.97422 440.71484 212.14258 C 440.54665 212.31096 440.21294 212.03611 440 212.14258 C 439.69877 212.29315 439.58631 212.70684 439.28516 212.85742 C 438.85924 213.0704 438.19414 212.5207 437.85742 212.85742 C 437.68885 213.02576 438.02599 213.40391 437.85742 213.57227 C 437.68885 213.74061 437.38069 213.57227 437.14258 213.57227 L 432.85742 213.57227 L 432.14258 213.57227 C 431.90447 213.57227 431.64067 213.67873 431.42773 213.57227 C 431.12651 213.42169 431.01603 213.00801 430.71484 212.85742 C 430.28893 212.64445 429.71107 213.0704 429.28516 212.85742 C 428.98393 212.70685 428.87342 212.29316 428.57227 212.14258 C 428.28918 212.00096 426.57378 212.28858 426.42773 212.14258 C 426.25955 211.97424 426.5963 211.59609 426.42773 211.42773 C 426.09098 211.09102 425.42591 211.64071 425 211.42773 C 424.69877 211.27716 424.58631 210.86542 424.28516 210.71484 C 424.00207 210.57322 422.28862 210.86085 422.14258 210.71484 C 421.97439 210.54647 422.31115 210.16836 422.14258 210 C 421.80582 209.66328 421.14076 210.21298 420.71484 210 C 420.41362 209.84942 420.30115 209.43575 420 209.28516 C 419.55107 209.06069 417.59151 209.50962 417.14258 209.28516 C 416.84135 209.13458 416.72889 208.72285 416.42773 208.57227 C 416.21041 208.46357 414.60687 208.57227 414.28516 208.57227 L 410 208.57227 C 409.67836 208.57227 408.07482 208.68096 407.85742 208.57227 C 407.55619 208.42169 407.44377 208.00801 407.14258 207.85742 C 406.92979 207.75095 406.66584 207.85742 406.42773 207.85742 L 405.71484 207.85742 L 401.42773 207.85742 L 395.71484 207.85742 C 395.39321 207.85742 393.78963 207.96612 393.57227 207.85742 C 393.27104 207.70685 393.15857 207.29316 392.85742 207.14258 C 392.40849 206.91811 390.44893 207.36704 390 207.14258 C 389.69877 206.992 389.58631 206.57833 389.28516 206.42773 C 388.79178 206.18104 385.96558 206.67847 385.71484 206.42773 C 385.54665 206.25939 385.88303 205.88319 385.71484 205.71484 C 385.49374 205.49367 382.36376 205.93602 382.14258 205.71484 C 381.97439 205.5465 382.31115 205.16836 382.14258 205 C 381.97439 204.83162 381.66584 205 381.42773 205 L 380.71484 205 L 380 205 C 379.76189 205 379.4535 205.16834 379.28516 205 C 379.11659 204.83162 379.45335 204.45352 379.28516 204.28516 C 378.92799 203.92803 377.49972 204.64232 377.14258 204.28516 C 376.97424 204.11682 377.31092 203.74062 377.14258 203.57227 C 376.97424 203.40393 376.64069 203.67873 376.42773 203.57227 C 376.12654 203.42169 376.01602 203.00801 375.71484 202.85742 C 375.43164 202.71584 373.71828 203.00346 373.57227 202.85742 C 373.40393 202.68904 373.74061 202.31094 373.57227 202.14258 C 373.09465 201.66496 372.62019 202.62019 372.14258 202.14258 C 371.97424 201.97424 372.31092 201.59609 372.14258 201.42773 C 371.97424 201.25936 371.6407 201.5342 371.42773 201.42773 C 371.12658 201.27716 371.01602 200.86542 370.71484 200.71484 C 370.50187 200.60837 370.21296 200.82131 370 200.71484 C 369.69885 200.56427 369.58632 200.15058 369.28516 200 C 368.85925 199.78702 368.28334 200.21298 367.85742 200 C 367.55627 199.84942 367.44375 199.43574 367.14258 199.28516 C 366.9296 199.17869 366.6407 199.39163 366.42773 199.28516 C 366.12658 199.13458 366.01601 198.72285 365.71484 198.57227 C 365.50187 198.4658 365.21296 198.67873 365 198.57227 C 364.69885 198.42169 364.58633 198.00801 364.28516 197.85742 C 363.14174 197.28571 364.00087 198.42913 362.85742 197.85742 C 362.55627 197.70685 362.44375 197.29316 362.14258 197.14258 C 361.9296 197.03611 361.64069 197.24905 361.42773 197.14258 C 361.12654 196.992 361.01602 196.57833 360.71484 196.42773 C 360.50187 196.32127 360.16836 196.59607 360 196.42773 C 359.83166 196.25939 360.16834 195.88319 360 195.71484 C 359.66328 195.37813 358.99818 195.92778 358.57227 195.71484 C 358.27111 195.56427 358.15859 195.15058 357.85742 195 C 357.43151 194.78702 356.85365 195.21298 356.42773 195 C 355.91388 194.48614 355.73737 194.29052 355.625 194.16406 C 355.82349 194.41404 356.03002 194.80017 355 194.28516 C 354.69885 194.13458 354.58632 193.72285 354.28516 193.57227 C 354.07222 193.4658 353.78523 193.67873 353.57227 193.57227 C 353.27111 193.42169 353.15859 193.00801 352.85742 192.85742 C 352.43151 192.64445 351.76446 193.19414 351.42773 192.85742 C 351.25939 192.68908 351.59611 192.31094 351.42773 192.14258 C 351.09102 191.80586 350.33672 192.4793 350 192.14258 C 349.83162 191.9742 350.16834 191.59609 350 191.42773 C 349.66328 191.09102 348.99818 191.64071 348.57227 191.42773 C 348.27111 191.27716 348.15859 190.86542 347.85742 190.71484 C 347.64448 190.60837 347.35554 190.82131 347.14258 190.71484 C 346.84143 190.56427 346.7289 190.15058 346.42773 190 C 346.21476 189.89353 345.92779 190.10647 345.71484 190 C 345.41369 189.84942 345.30117 189.43575 345 189.28516 C 344.78702 189.17869 344.49811 189.39163 344.28516 189.28516 C 343.984 189.13458 343.87344 188.72285 343.57227 188.57227 C 343.35929 188.4658 343.09552 188.57227 342.85742 188.57227 C 342.61931 188.33416 342.44375 188.00801 342.14258 187.85742 C 341.92964 187.75095 341.59609 188.02576 341.42773 187.85742 C 341.25939 187.68904 341.59607 187.31094 341.42773 187.14258 C 341.25939 186.97424 340.92779 187.24905 340.71484 187.14258 C 340.41369 186.992 340.30117 186.57832 340 186.42773 C 339.57408 186.21476 338.99819 186.64071 338.57227 186.42773 C 338.27111 186.27716 338.15859 185.86542 337.85742 185.71484 C 337.64445 185.60837 337.35554 185.82131 337.14258 185.71484 C 336.84143 185.56427 336.72891 185.15058 336.42773 185 C 336.2148 184.89353 335.92779 185.10647 335.71484 185 C 335.41369 184.84942 335.30117 184.43574 335 184.28516 C 334.57408 184.07222 333.99818 184.49813 333.57227 184.28516 C 333.27111 184.13458 333.15859 183.72285 332.85742 183.57227 C 332.64445 183.4658 332.35554 183.67873 332.14258 183.57227 C 331.84143 183.42169 331.7289 183.00801 331.42773 182.85742 C 331.21476 182.75095 330.92779 182.96389 330.71484 182.85742 C 330.41369 182.70685 330.30117 182.29316 330 182.14258 C 329.57408 181.9296 328.99818 182.35555 328.57227 182.14258 C 328.27111 181.992 328.15859 181.57833 327.85742 181.42773 C 327.64445 181.32127 327.31094 181.59607 327.14258 181.42773 C 326.97424 181.25939 327.31096 180.88319 327.14258 180.71484 C 326.78541 180.35768 325.35714 181.07197 325 180.71484 C 324.83166 180.54647 325.16834 180.16836 325 180 C 324.66328 179.66328 323.90899 180.33672 323.57227 180 C 323.40393 179.83166 323.74064 179.45352 323.57227 179.28516 C 323.42622 179.13915 321.71095 179.42678 321.42773 179.28516 C 321.12658 179.13458 321.01601 178.72285 320.71484 178.57227 C 320.50187 178.4658 320.21296 178.67873 320 178.57227 C 319.69881 178.42169 319.58633 178.00801 319.28516 177.85742 C 319.07222 177.75095 318.78522 177.96389 318.57227 177.85742 C 318.27111 177.70685 318.15859 177.29316 317.85742 177.14258 C 316.71115 176.56944 317.57401 177.71571 316.42773 177.14258 C 316.12654 176.992 316.01602 176.57832 315.71484 176.42773 C 315.50191 176.32127 315.21296 176.5342 315 176.42773 C 314.39766 176.12658 314.17461 175.30117 313.57227 175 C 313.35929 174.89353 313.07038 175.10647 312.85742 175 C 312.55623 174.84942 312.44375 174.43574 312.14258 174.28516 C 311.92964 174.17869 311.59609 174.45353 311.42773 174.28516 C 311.25939 174.11682 311.59607 173.74062 311.42773 173.57227 C 311.09102 173.23555 310.33672 173.90898 310 173.57227 C 309.83166 173.40393 310.16838 173.02578 310 172.85742 C 309.83166 172.68904 309.49812 172.96389 309.28516 172.85742 C 308.984 172.70685 308.81036 172.38067 308.57227 172.14258 C 308.15217 171.72247 306.04561 169.45054 305.71484 169.28516 C 305.50187 169.17869 305.21296 169.39163 305 169.28516 C 304.39766 168.984 304.17461 168.15859 303.57227 167.85742 C 303.35929 167.75095 303.07038 167.96389 302.85742 167.85742 C 302.25508 167.55627 302.03007 166.72891 301.42773 166.42773 C 301.21476 166.32127 300.92779 166.5342 300.71484 166.42773 C 300.41369 166.27716 300.30117 165.86542 300 165.71484 C 299.78702 165.60837 299.52326 165.71484 299.28516 165.71484 C 299.04705 165.47673 298.87344 165.15058 298.57227 165 C 297.80618 164.61696 297.90866 165.38304 297.14258 165 C 296.84143 164.84942 296.72891 164.43575 296.42773 164.28516 C 296.21476 164.17869 295.88319 164.4535 295.71484 164.28516 C 295.54647 164.11682 295.88318 163.74062 295.71484 163.57227 C 295.54647 163.40389 295.21296 163.67873 295 163.57227 C 294.69885 163.42169 294.58633 163.00801 294.28516 162.85742 C 293.85925 162.64445 293.19414 163.19414 292.85742 162.85742 C 292.68908 162.68908 293.0258 162.31094 292.85742 162.14258 C 292.5207 161.80586 291.85365 162.35555 291.42773 162.14258 C 291.12658 161.992 291.01601 161.57832 290.71484 161.42773 C 290.28893 161.21476 289.62188 161.76445 289.28516 161.42773 C 289.11682 161.25936 289.45353 160.8832 289.28516 160.71484 C 288.94844 160.37813 288.28334 160.92778 287.85742 160.71484 C 287.55627 160.56427 287.44375 160.15058 287.14258 160 C 286.9296 159.89353 286.66583 160 286.42773 160 C 286.18962 159.76189 286.01602 159.43574 285.71484 159.28516 C 285.28893 159.07222 284.71107 159.49813 284.28516 159.28516 C 283.984 159.13458 283.87344 158.72285 283.57227 158.57227 C 283.35933 158.4658 283.02578 158.74061 282.85742 158.57227 C 282.68908 158.40393 283.02576 158.02578 282.85742 157.85742 C 282.5207 157.5207 281.76446 158.19414 281.42773 157.85742 C 281.25939 157.68908 281.59607 157.31094 281.42773 157.14258 C 281.25939 156.97424 280.92779 157.24905 280.71484 157.14258 C 280.41369 156.992 280.30117 156.57833 280 156.42773 C 279.78706 156.32127 279.45352 156.59607 279.28516 156.42773 C 279.11682 156.25936 279.4535 155.8832 279.28516 155.71484 C 278.94844 155.37813 278.19414 156.05156 277.85742 155.71484 C 277.68908 155.5465 278.0258 155.16836 277.85742 155 C 277.68908 154.83166 277.31094 155.16834 277.14258 155 C 276.97424 154.83166 277.31092 154.45352 277.14258 154.28516 C 276.97424 154.11682 276.59609 154.4535 276.42773 154.28516 C 276.25936 154.11682 276.59607 153.74063 276.42773 153.57227 C 274.94985 152.09439 276.48636 155.83011 275 152.85742 C 274.89353 152.64445 275.16834 152.31094 275 152.14258 C 274.83166 151.9742 274.45352 152.31092 274.28516 152.14258 C 274.11682 151.9742 274.4535 151.5961 274.28516 151.42773 C 274.11682 151.25939 273.74062 151.59611 273.57227 151.42773 C 273.40393 151.25939 273.74061 150.88319 273.57227 150.71484 C 273.40393 150.54647 273.02578 150.88318 272.85742 150.71484 C 272.68904 150.54647 273.02576 150.16836 272.85742 150 C 272.68904 149.83166 272.31094 150.16838 272.14258 150 C 271.97424 149.83166 272.24905 149.49812 272.14258 149.28516 C 271.992 148.984 271.57833 148.87343 271.42773 148.57227 C 271.32127 148.35929 271.59607 148.02578 271.42773 147.85742 C 271.25939 147.68908 270.8832 148.0258 270.71484 147.85742 C 270.37813 147.5207 271.05156 146.76445 270.71484 146.42773 C 270.5465 146.25936 270.16836 146.59607 270 146.42773 C 269.83166 146.25936 270.10647 145.92779 270 145.71484 C 269.84942 145.41369 269.43574 145.30117 269.28516 145 C 269.17869 144.78702 269.4535 144.45352 269.28516 144.28516 C 269.11682 144.11682 268.74063 144.45353 268.57227 144.28516 C 267.09439 142.80727 270.83011 144.34378 267.85742 142.85742 C 267.64445 142.75095 267.31094 143.02576 267.14258 142.85742 C 266.97424 142.68908 267.24905 142.35554 267.14258 142.14258 C 266.992 141.84143 266.57833 141.72891 266.42773 141.42773 C 266.32127 141.21476 266.59611 140.8832 266.42773 140.71484 C 266.25939 140.5465 265.88319 140.88318 265.71484 140.71484 C 265.54647 140.5465 265.82131 140.21296 265.71484 140 C 265.56427 139.69885 265.2381 139.52326 265 139.28516 C 264.76193 139.04705 264.43575 138.87344 264.28516 138.57227 C 264.17869 138.35929 264.4535 138.02578 264.28516 137.85742 C 264.11682 137.68904 263.74062 138.02576 263.57227 137.85742 C 263.40389 137.68904 263.74061 137.31094 263.57227 137.14258 C 263.40389 136.9742 263.02578 137.31092 262.85742 137.14258 C 262.68908 136.9742 262.96389 136.6407 262.85742 136.42773 C 262.42885 135.57059 261.14342 135.14231 260.71484 134.28516 C 260.60837 134.07222 260.88318 133.74062 260.71484 133.57227 C 260.5465 133.40389 260.16836 133.74061 260 133.57227 C 259.83166 133.40389 260.16834 133.02578 260 132.85742 C 259.83166 132.68904 259.49811 132.96389 259.28516 132.85742 C 258.68282 132.55627 258.45976 131.7289 257.85742 131.42773 C 257.64445 131.32127 257.35554 131.5342 257.14258 131.42773 C 256.84143 131.27716 256.72891 130.86542 256.42773 130.71484 C 256.21476 130.60837 255.92779 130.82131 255.71484 130.71484 C 255.41369 130.56427 255.30117 130.15058 255 130 C 254.57408 129.78702 253.90899 130.33672 253.57227 130 C 253.40393 129.83162 253.74064 129.45352 253.57227 129.28516 C 253.23555 128.94844 252.47928 129.62187 252.14258 129.28516 C 251.9742 129.11682 252.31092 128.74062 252.14258 128.57227 C 251.80586 128.23555 251.14075 128.78524 250.71484 128.57227 C 250.41369 128.42169 250.30117 128.00801 250 127.85742 C 249.57408 127.64445 248.99818 128.0704 248.57227 127.85742 C 248.27108 127.70685 248.15859 127.29316 247.85742 127.14258 C 247.43151 126.9296 246.76445 127.4793 246.42773 127.14258 C 246.25936 126.97424 246.59607 126.59609 246.42773 126.42773 C 246.07061 126.07061 244.64231 126.78486 244.28516 126.42773 C 244.11682 126.25936 244.4535 125.8832 244.28516 125.71484 C 243.92803 125.35768 242.49972 126.07197 242.14258 125.71484 C 241.97424 125.5465 242.31092 125.16836 242.14258 125 C 241.99654 124.85396 240.28321 125.14158 240 125 C 239.69885 124.84942 239.58633 124.43575 239.28516 124.28516 C 238.85925 124.07222 238.28334 124.49813 237.85742 124.28516 C 237.55627 124.13458 237.44375 123.72285 237.14258 123.57227 C 236.70885 123.3554 233.29115 123.78913 232.85742 123.57227 C 232.55627 123.42169 232.46202 122.9639 232.14258 122.85742 C 231.73625 122.72196 229.24501 122.85742 228.57227 122.85742 C 228.33416 122.85742 228.02578 123.02576 227.85742 122.85742 C 227.68904 122.68904 228.02576 122.31094 227.85742 122.14258 C 227.71138 121.99654 225.99804 122.28416 225.71484 122.14258 C 225.41369 121.992 225.30117 121.57833 225 121.42773 C 224.7168 121.28615 223.00345 121.57378 222.85742 121.42773 C 222.68908 121.25939 223.02576 120.88319 222.85742 120.71484 C 222.71142 120.5688 220.99804 120.85646 220.71484 120.71484 C 220.41365 120.56427 220.30117 120.15058 220 120 C 219.78702 119.89353 219.45352 120.16834 219.28516 120 C 219.11682 119.83162 219.45353 119.45352 219.28516 119.28516 C 219.11682 119.11682 218.78522 119.39163 218.57227 119.28516 C 218.27111 119.13458 218.15859 118.72285 217.85742 118.57227 C 217.64445 118.4658 217.35554 118.67873 217.14258 118.57227 C 216.84139 118.42169 216.7289 118.00801 216.42773 117.85742 C 216.21476 117.75095 215.92779 117.96389 215.71484 117.85742 C 215.41369 117.70685 215.30117 117.29316 215 117.14258 C 214.57408 116.9296 213.90899 117.4793 213.57227 117.14258 C 213.40393 116.97424 213.74061 116.59609 213.57227 116.42773 C 213.23555 116.09102 212.47929 116.76445 212.14258 116.42773 C 211.97424 116.25939 212.31096 115.8832 212.14258 115.71484 C 211.80586 115.37813 211.05155 116.05156 210.71484 115.71484 C 210.54647 115.5465 210.88318 115.16836 210.71484 115 C 210.54647 114.83166 210.21296 115.10647 210 115 C 209.69885 114.84942 209.58633 114.43574 209.28516 114.28516 C 209.07222 114.17869 208.74063 114.4535 208.57227 114.28516 C 208.40393 114.11682 208.74064 113.74062 208.57227 113.57227 C 208.23555 113.23555 207.47929 113.90898 207.14258 113.57227 C 206.9742 113.40393 207.31092 113.02578 207.14258 112.85742 C 206.80586 112.5207 206.14075 113.0704 205.71484 112.85742 C 205.41365 112.70685 205.30117 112.29316 205 112.14258 C 204.78702 112.03611 204.49812 112.24905 204.28516 112.14258 C 203.984 111.992 203.87343 111.57833 203.57227 111.42773 C 203.14635 111.21476 202.47929 111.76445 202.14258 111.42773 C 201.97424 111.25939 202.31092 110.88319 202.14258 110.71484 C 201.80586 110.37813 201.14075 110.92778 200.71484 110.71484 C 200.41369 110.56427 200.30117 110.15058 200 110 C 199.78702 109.89353 199.49811 110.10647 199.28516 110 C 198.984 109.84942 198.87344 109.43575 198.57227 109.28516 C 198.35929 109.17869 198.07038 109.39163 197.85742 109.28516 C 197.55623 109.13458 197.44375 108.72285 197.14258 108.57227 C 196.9296 108.4658 196.6407 108.67873 196.42773 108.57227 C 195.82539 108.27111 195.60234 107.44375 195 107.14258 C 194.78702 107.03611 194.49812 107.24905 194.28516 107.14258 C 193.68283 106.84139 193.45976 106.016 192.85742 105.71484 C 192.64445 105.60837 192.35554 105.82131 192.14258 105.71484 C 191.54024 105.41369 191.31717 104.58633 190.71484 104.28516 C 190.50187 104.17869 190.2381 104.28516 190 104.28516 C 189.76189 104.04708 189.58633 103.72285 189.28516 103.57227 C 189.07222 103.4658 188.74062 103.74061 188.57227 103.57227 C 188.40393 103.40393 188.74061 103.02578 188.57227 102.85742 C 188.23555 102.5207 187.47929 103.19414 187.14258 102.85742 C 186.97424 102.68904 187.31092 102.31094 187.14258 102.14258 C 186.80586 101.80586 186.14075 102.35555 185.71484 102.14258 C 185.41369 101.992 185.30117 101.57832 185 101.42773 C 184.57408 101.21476 183.90899 101.76445 183.57227 101.42773 C 183.40393 101.25939 183.74061 100.8832 183.57227 100.71484 C 183.23555 100.37813 182.5685 100.92778 182.14258 100.71484 C 181.84143 100.56427 181.72891 100.15058 181.42773 100 C 181.21476 99.893531 180.92779 100.10647 180.71484 100 C 180.41369 99.849424 180.30117 99.43574 180 99.285156 C 179.57408 99.07218 178.90898 99.621874 178.57227 99.285156 C 178.40389 99.116778 178.74061 98.740625 178.57227 98.572266 C 178.23555 98.235548 177.5685 98.785242 177.14258 98.572266 C 176.62559 98.055279 176.44525 97.85588 176.33398 97.730469 C 176.53394 97.980147 176.75348 98.376745 175.71484 97.857422 C 175.41365 97.706845 175.30117 97.293162 175 97.142578 C 174.2396 96.76238 174.33265 97.522776 173.57227 97.142578 C 173.27111 96.992002 173.15859 96.578322 172.85742 96.427734 C 172.28599 96.14204 171.28627 96.713467 170.71484 96.427734 C 170.41369 96.277158 170.30117 95.865431 170 95.714844 C 169.55106 95.490378 167.59152 95.93931 167.14258 95.714844 C 166.84143 95.564267 166.72891 95.150584 166.42773 95 C 165.8563 94.714306 164.85659 95.285732 164.28516 95 C 163.984 94.849424 163.87343 94.43574 163.57227 94.285156 C 162.81186 93.904958 162.90297 94.665354 162.14258 94.285156 C 161.84143 94.13458 161.7289 93.72285 161.42773 93.572266 C 160.8563 93.286571 159.85658 93.85796 159.28516 93.572266 C 158.984 93.421689 158.87344 93.008006 158.57227 92.857422 C 158.13853 92.640553 154.71889 93.074291 154.28516 92.857422 C 153.984 92.706845 153.87344 92.293162 153.57227 92.142578 C 153.31397 92.013432 150.49681 92.142578 150 92.142578 L 141.42773 92.142578 L 134.28516 92.142578 C 133.91166 92.142578 131.61555 92.048657 131.42773 92.142578 C 131.12658 92.293155 131.01602 92.706838 130.71484 92.857422 C 130.28111 93.074291 126.86147 92.640553 126.42773 92.857422 C 126.12654 93.007998 126.01602 93.421682 125.71484 93.572266 C 125.45655 93.701412 122.63939 93.572266 122.14258 93.572266 L 114.28516 93.572266 C 112.61004 93.572266 114.62271 93.402531 112.85742 94.285156 C 112.59909 94.414303 109.78198 94.285156 109.28516 94.285156 C 108.78834 94.285156 105.97315 94.414303 105.71484 94.285156 C 105.41369 94.13458 105.30117 93.72285 105 93.572266 C 104.74167 93.443119 101.92455 93.572266 101.42773 93.572266 C 101.18962 93.572266 100.8832 93.740606 100.71484 93.572266 C 100.5465 93.403925 100.88318 93.025781 100.71484 92.857422 C 100.5194 92.661983 98.24491 93.05116 97.857422 92.857422 C 97.556231 92.706845 97.443746 92.293162 97.142578 92.142578 C 96.92518 92.033879 95.321687 92.142578 95 92.142578 L 89.285156 92.142578 C 89.115418 92.142578 86.587828 92.222629 86.427734 92.142578 C 86.126582 91.992002 86.016015 91.578318 85.714844 91.427734 C 85.456551 91.298588 82.639389 91.427734 82.142578 91.427734 C 81.904468 91.427734 81.59609 91.596075 81.427734 91.427734 C 81.259394 91.259394 81.596075 90.883203 81.427734 90.714844 C 81.232295 90.519404 78.959758 90.908582 78.572266 90.714844 C 78.271113 90.564267 78.15859 90.150584 77.857422 90 C 77.431503 89.787024 76.853653 90.212976 76.427734 90 C 76.126582 89.849424 76.034282 89.391633 75.714844 89.285156 C 75.263088 89.13458 74.761346 89.285156 74.285156 89.285156 C 74.047046 89.285156 73.785223 89.391626 73.572266 89.285156 C 73.271075 89.13458 73.15859 88.722853 72.857422 88.572266 C 72.435978 88.361557 71.206152 88.736033 70.714844 88.572266 C 70.20977 88.403925 69.790233 88.025781 69.285156 87.857422 C 68.793848 87.693655 67.564018 88.068131 67.142578 87.857422 C 66.841425 87.706845 66.728902 87.293162 66.427734 87.142578 C 66.001816 86.92964 65.425919 87.355555 65 87.142578 C 64.698847 86.992002 64.586328 86.578318 64.285156 86.427734 C 64.07218 86.321265 63.740625 86.596075 63.572266 86.427734 C 63.403925 86.259394 63.740606 85.883203 63.572266 85.714844 C 63.403925 85.546466 63.070383 85.821313 62.857422 85.714844 C 62.556269 85.564267 62.380673 85.238095 62.142578 85 C 61.904468 84.76189 61.578318 84.586324 61.427734 84.285156 C 61.321265 84.07218 61.534204 83.785223 61.427734 83.572266 C 61.277158 83.271113 60.865428 83.15859 60.714844 82.857422 C 60.608374 82.644445 60.821313 82.355536 60.714844 82.142578 C 60.564267 81.841425 60.150584 81.728906 60 81.427734 C 59.787024 81.001819 60.212976 80.425919 60 80 C 59.849424 79.698847 59.43574 79.586328 59.285156 79.285156 C 59.178687 79.07218 59.453496 78.740625 59.285156 78.572266 C 59.116816 78.403925 58.740621 78.740606 58.572266 78.572266 C 58.403925 78.403925 58.678735 78.070379 58.572266 77.857422 C 58.421689 77.556269 58.095517 77.380673 57.857422 77.142578 L 57.142578 76.427734 C 56.766515 76.051671 55.38149 74.475898 55 74.285156 C 54.787024 74.178687 54.453515 74.453496 54.285156 74.285156 C 54.116816 74.116778 54.453534 73.740625 54.285156 73.572266 C 54.116816 73.403925 53.740625 73.740644 53.572266 73.572266 C 53.403925 73.403925 53.740644 73.025781 53.572266 72.857422 C 53.403925 72.689082 53.070379 72.963891 52.857422 72.857422 C 52.556269 72.706845 52.443746 72.293162 52.142578 72.142578 C 51.929602 72.036109 51.596093 72.310956 51.427734 72.142578 C 51.259356 71.974238 51.596075 71.596093 51.427734 71.427734 C 51.259356 71.259394 50.927801 71.534204 50.714844 71.427734 C 50.413653 71.277158 50.301168 70.865428 50 70.714844 C 49.787024 70.608374 49.453515 70.883184 49.285156 70.714844 C 49.116816 70.546466 49.453534 70.168359 49.285156 70 C 49.116816 69.83166 48.785227 70.106469 48.572266 70 C 48.271113 69.849424 48.158594 69.43574 47.857422 69.285156 C 47.644445 69.178687 47.355536 69.391626 47.142578 69.285156 C 46.841425 69.13458 46.728902 68.72285 46.427734 68.572266 C 46.214758 68.465796 45.927801 68.678735 45.714844 68.572266 C 45.413691 68.421689 45.301168 68.008006 45 67.857422 C 44.574081 67.644445 43.90898 68.19414 43.572266 67.857422 C 43.403925 67.689082 43.740606 67.310933 43.572266 67.142578 C 43.235548 66.80586 42.568497 67.355555 42.142578 67.142578 C 41.841425 66.992002 41.728906 66.578318 41.427734 66.427734 C 41.001819 66.214758 40.336718 66.764452 40 66.427734 C 39.83166 66.259394 40.168378 65.883203 40 65.714844 C 39.853959 65.568803 38.140629 65.856463 37.857422 65.714844 C 37.556254 65.564267 37.443747 65.150584 37.142578 65 C 36.859371 64.858381 35.146026 65.146041 35 65 C 34.831641 64.83166 35.168359 64.453515 35 64.285156 C 34.853974 64.139115 33.14063 64.426775 32.857422 64.285156 C 32.556254 64.13458 32.443747 63.72285 32.142578 63.572266 C 31.859371 63.430647 30.146026 63.718307 30 63.572266 C 29.831641 63.403925 30.168359 63.025781 30 62.857422 C 29.663282 62.520704 28.908983 63.19414 28.572266 62.857422 C 28.403907 62.689082 28.740625 62.310937 28.572266 62.142578 C 28.215123 61.785451 26.784877 62.499706 26.427734 62.142578 C 26.259375 61.974238 26.596093 61.596093 26.427734 61.427734 C 26.281709 61.281693 24.568365 61.569353 24.285156 61.427734 C 23.983988 61.277158 23.873435 60.865428 23.572266 60.714844 C 23.000837 60.429149 21.999163 61.000538 21.427734 60.714844 C 21.126567 60.564267 21.016013 60.150584 20.714844 60 C 20.265899 59.775534 18.306366 60.224466 17.857422 60 C 17.556254 59.849424 17.443747 59.43574 17.142578 59.285156 C 16.71666 59.07218 16.140761 59.498133 15.714844 59.285156 C 15.413672 59.13458 15.301169 58.722853 15 58.572266 C 14.574082 58.359289 13.908983 58.908984 13.572266 58.572266 C 13.403907 58.403888 13.740625 58.025781 13.572266 57.857422 C 13.235548 57.520704 12.479296 58.19414 12.142578 57.857422 C 12.142578 55.952661 12.380115 58.094974 11.427734 57.142578 C 11.259375 56.974238 11.596093 56.596093 11.427734 56.427734 C 11.259375 56.259394 10.927803 56.534204 10.714844 56.427734 C 10.413672 56.277158 10.301169 55.865428 10 55.714844 C 9.7870425 55.608374 9.4535149 55.883184 9.2851562 55.714844 C 9.1167974 55.546504 9.4535153 55.168359 9.2851562 55 C 9.1167974 54.83166 8.7406243 55.168378 8.5722656 55 C 8.4039066 54.83166 8.7406247 54.453515 8.5722656 54.285156 C 8.2355475 53.948438 7.4792959 54.621874 7.1425781 54.285156 C 6.9742191 54.116816 7.3109372 53.740625 7.1425781 53.572266 C 6.9742191 53.403925 6.5960934 53.740644 6.4277344 53.572266 C 6.2593753 53.403925 6.5960934 53.025781 6.4277344 52.857422 C 6.0910163 52.520704 5.3367174 53.19414 5 52.857422 C 4.8316409 52.689082 5.1683591 52.310933 5 52.142578 C 4.8316409 51.9742 4.4535149 52.310918 4.2851562 52.142578 C 4.1167974 51.9742 4.4535153 51.596093 4.2851562 51.427734 C 4.1167974 51.259356 3.7852244 51.534204 3.5722656 51.427734 C 3.2710962 51.277158 3.1585912 50.865431 2.8574219 50.714844 C 2.4315041 50.501867 1.7644519 51.051562 1.4277344 50.714844 C 1.2593757 50.546504 1.5960931 50.168355 1.4277344 50 C 1.343555 49.915821 1.2327027 49.895728 1.109375 49.90625 z "
       transform="scale(0.26458333)"
       id="path1437" />
  </g>
</svg>
