<?xml version="1.0" encoding="UTF-8" standalone="no"?>
<!-- Created with Inkscape (http://www.inkscape.org/) -->

<svg
   xmlns:dc="http://purl.org/dc/elements/1.1/"
   xmlns:cc="http://creativecommons.org/ns#"
   xmlns:rdf="http://www.w3.org/1999/02/22-rdf-syntax-ns#"
   xmlns:svg="http://www.w3.org/2000/svg"
   xmlns="http://www.w3.org/2000/svg"
   xmlns:sodipodi="http://sodipodi.sourceforge.net/DTD/sodipodi-0.dtd"
   xmlns:inkscape="http://www.inkscape.org/namespaces/inkscape"
   width="169.33333mm"
   height="127mm"
   viewBox="0 0 169.33333 127"
   version="1.1"
   id="svg8"
   sodipodi:docname="2_4_subendotelio.svg"
   inkscape:version="0.92.4 (5da689c313, 2019-01-14)">
  <defs
     id="defs2" />
  <sodipodi:namedview
     id="base"
     pagecolor="#ffffff"
     bordercolor="#666666"
     borderopacity="1.0"
     inkscape:pageopacity="0.0"
     inkscape:pageshadow="2"
     inkscape:zoom="0.98994949"
     inkscape:cx="266.03621"
     inkscape:cy="181.32767"
     inkscape:document-units="mm"
     inkscape:current-layer="layer3"
     showgrid="false"
     fit-margin-top="0"
     fit-margin-left="0"
     fit-margin-right="0"
     fit-margin-bottom="0"
     inkscape:window-width="1920"
     inkscape:window-height="1001"
     inkscape:window-x="-9"
     inkscape:window-y="-9"
     inkscape:window-maximized="1" />
  <metadata
     id="metadata5">
    <rdf:RDF>
      <cc:Work
         rdf:about="">
        <dc:format>image/svg+xml</dc:format>
        <dc:type
           rdf:resource="http://purl.org/dc/dcmitype/StillImage" />
        <dc:title></dc:title>
      </cc:Work>
    </rdf:RDF>
  </metadata>
  <g
     inkscape:groupmode="layer"
     id="layer3"
     inkscape:label="subendotelio"
     style="display:inline">
    <path
       style="fill:none;stroke:#000000;stroke-width:0.99999994px;stroke-linecap:butt;stroke-linejoin:miter;stroke-opacity:1"
       d="M 0,40.583984 V 157.76172 c 0.673435,0 1.3662033,-0.16335 2.0195312,0 0.7304428,0.18261 1.2910416,0.82714 2.0214844,1.00976 0.653328,0.16332 1.3460962,0 2.0195313,0 h 5.0507811 c 0.673435,0 1.38261,-0.21297 2.021484,0 0.451755,0.15059 0.558012,0.85919 1.009766,1.00977 0.638876,0.21298 1.380654,-0.21294 2.019531,0 0.451754,0.15059 0.558012,0.85919 1.009766,1.00977 0.638877,0.21293 1.382608,-0.21298 2.021484,0 0.451754,0.15058 0.558012,0.86114 1.009766,1.01171 0.638876,0.21298 1.346097,0 2.019531,0 0.336718,0.33672 0.585801,0.79679 1.011719,1.00977 0.602338,0.30115 1.417192,-0.30115 2.019531,0 0.851835,0.42592 1.167696,1.59361 2.019532,2.01953 0.301168,0.15058 0.71055,-0.15058 1.011718,0 0.425918,0.21295 0.583848,0.79679 1.009766,1.00977 0.301169,0.15057 0.708598,-0.15058 1.009766,0 0.425916,0.21295 0.583847,0.79874 1.009765,1.01172 0.602339,0.30115 1.419145,-0.30116 2.021485,0 0.425916,0.21295 0.583847,0.79678 1.009765,1.00976 0.301169,0.15058 0.708598,-0.15058 1.009766,0 0.425918,0.21296 0.558011,0.85919 1.009765,1.00977 0.638876,0.21294 1.34805,0 2.021485,0 0.336718,0 0.708613,-0.15058 1.009765,0 0.851838,0.42591 1.167698,1.59361 2.019532,2.01953 0.602339,0.30115 1.545294,-0.47619 2.021484,0 0.23811,0.2381 -0.23811,0.77361 0,1.01172 0.238099,0.23811 0.708613,-0.15058 1.009766,0 0.425918,0.21295 0.583847,0.79679 1.009765,1.00976 1.449939,0.72497 1.168139,0.18762 0.888672,-0.16601 0.160192,0.18003 0.407782,0.4527 1.130859,1.17578 0.602336,0.30115 1.419145,-0.30115 2.021485,0 0.425915,0.21296 0.583852,0.79679 1.009765,1.00976 0.60234,0.30116 1.417196,-0.30115 2.019532,0 0.425918,0.21296 0.583847,0.79679 1.009765,1.00977 1.066666,0.53334 0.954819,-0.53333 2.021485,0 0.425918,0.21296 0.58385,0.79874 1.009765,1.01172 0.808124,0.40406 2.223127,-0.40406 3.03125,0 0.425919,0.21296 0.583847,0.79679 1.009766,1.00976 0.261173,0.13059 5.344546,0 6.060547,0 0.336718,0 0.708613,-0.15057 1.009766,0 0.425917,0.21297 0.583846,0.79679 1.009765,1.00977 0.365303,0.18266 4.348182,0 5.050781,0 0.528231,0 3.775391,0.13281 4.041016,0 0.425919,-0.21296 0.583847,-0.79679 1.009766,-1.00977 0.613387,-0.30667 5.449113,0.30667 6.0625,0 0.425918,-0.21296 0.58385,-0.79679 1.009765,-1.00976 0.60234,-0.30115 1.417197,0.30115 2.019531,0 0.425919,-0.21296 0.583847,-0.79874 1.009766,-1.01172 0.547994,-0.27398 3.764619,0.2764 4.041016,0 0.23811,-0.23809 -0.23811,-0.77166 0,-1.00977 0.238095,-0.23811 0.673047,0 1.009765,0 h 5.050782 c 0.52823,0 3.775389,-0.13281 4.041019,0 0.42591,0.21296 0.58384,0.79679 1.00976,1.00977 0.63728,0.31865 4.41351,-0.31865 5.05078,0 0.42593,0.21296 0.5858,0.79874 1.01172,1.01172 0.60234,0.30115 1.41719,-0.30115 2.01953,0 0.42592,0.21296 0.58385,0.79679 1.00977,1.00976 0.40051,0.20024 2.82474,-0.20651 3.03125,0 0.23811,0.2381 -0.23811,0.7717 0,1.00977 0.50508,0.50508 2.52421,-0.50507 3.0293,0 0.23811,0.2381 -0.23811,0.77165 0,1.00977 0.47619,0.47618 1.41914,-0.3012 2.02148,0 0.42591,0.21294 0.58385,0.79678 1.00977,1.00976 0.60234,0.30119 1.54334,-0.47619 2.01953,0 0.23811,0.23809 -0.23811,0.77361 0,1.01172 0.20651,0.20651 2.63073,-0.20024 3.03125,0 0.42592,0.21296 0.58385,0.7968 1.00976,1.00976 0.60234,0.30116 1.41915,-0.30118 2.02149,0 0.42592,0.21296 0.58384,0.79683 1.00976,1.00977 0.60234,0.30115 1.41719,-0.30115 2.01953,0 0.42591,0.21296 0.58385,0.79679 1.00977,1.00977 0.30117,0.15057 0.71057,-0.15058 1.01172,0 0.42592,0.21296 0.58385,0.79679 1.00976,1.00976 0.30117,0.15058 0.70862,-0.15057 1.00977,0 0.42591,0.21296 0.58386,0.79874 1.00976,1.01172 0.30118,0.15058 0.70858,-0.15058 1.00977,0 4.20401,2.10202 -1.07832,-0.0705 1.01172,2.01953 0.2381,0.23811 0.77165,-0.23811 1.00977,0 0.23806,0.23809 -0.23812,0.77166 0,1.00977 0.23808,0.23811 0.77165,-0.23811 1.00976,0 0.23811,0.23809 -0.23811,0.77169 0,1.00976 0.23809,0.23811 0.77166,-0.23807 1.00977,0 0.23811,0.2381 -0.23811,0.77361 0,1.01172 2.09,2.09005 -0.0805,-3.19425 2.02148,1.00977 0.15058,0.30117 -0.23811,0.77165 0,1.00976 0.23809,0.23811 0.77166,-0.23811 1.00977,0 0.23811,0.23809 -0.23811,0.77166 0,1.00977 0.23809,0.23811 0.77165,-0.23811 1.00976,0 0.23811,0.2381 -0.23811,0.77165 0,1.00976 0.2381,0.23811 0.70861,-0.15057 1.00977,0 0.42592,0.21296 0.58384,0.79875 1.00976,1.01172 0.30117,0.15058 0.77361,-0.23811 1.01172,0 0.23811,0.23809 -0.23811,0.77166 0,1.00977 0.23809,0.23811 0.7717,-0.23811 1.00977,0 0.23811,0.2381 -0.23807,0.77165 0,1.00976 0.2381,0.23811 0.77165,-0.23811 1.00976,0 0.23811,0.2381 -0.23811,0.77166 0,1.00977 0.47619,0.4762 1.54334,-0.47619 2.01953,0 0.23811,0.2381 -0.23811,0.77166 0,1.00977 0.2381,0.23811 0.77365,-0.23811 1.01172,0 0.23811,0.23809 -0.23807,0.7736 0,1.01171 0.23811,0.23811 0.77166,-0.23811 1.00977,0 0.23811,0.23811 -0.23811,0.7717 0,1.00977 0.2381,0.23811 0.77165,-0.23807 1.00976,0 0.23808,0.2381 -0.15057,0.70858 0,1.00977 0.21296,0.4259 0.67305,0.67304 1.00977,1.00976 0.79374,0.79374 4.72907,4.40734 5.05078,5.05078 0.15058,0.30117 -0.23807,0.7717 0,1.00977 0.2381,0.23811 0.77169,-0.23807 1.00977,0 1.34688,1.34688 -1.68398,1.01172 1.00976,1.01172 0.23807,0.23808 -0.15057,0.70857 0,1.00976 2.10201,4.20401 -0.0686,-1.08027 2.02149,1.00977 0.23811,0.2381 -0.15058,0.70861 0,1.00976 2.10202,4.20403 -0.0705,-1.08028 2.01953,1.00977 0.23807,0.23809 -0.23811,0.77165 0,1.00977 0.23809,0.23806 0.77165,-0.23812 1.00976,0 2.09004,2.08998 -3.19229,-0.0805 1.01172,2.02148 0.30117,0.15058 0.77166,-0.23807 1.00977,0 0.23807,0.2381 -0.23811,0.77166 0,1.00976 0.23809,0.23808 0.70857,-0.15056 1.00976,0 0.42592,0.21295 0.58385,0.79679 1.00977,1.00977 0.30117,0.15058 0.7717,-0.23811 1.00976,0 0.23812,0.23809 -0.23806,0.77169 0,1.00977 0.4762,0.47619 1.5453,-0.47619 2.02149,0 0.23807,0.2381 -0.23811,0.77364 0,1.01172 0.47619,0.47618 1.54334,-0.4762 2.01953,0 0.23811,0.23809 -0.23807,0.77165 0,1.00976 0.47619,0.47619 1.5453,-0.47619 2.02148,0 0.23808,0.23809 -0.2381,0.77166 0,1.00977 0.23809,0.23807 0.70858,-0.15058 1.00977,0 0.42592,0.21295 0.58386,0.79679 1.00977,1.00976 0.60234,0.30115 1.41719,-0.30119 2.01953,0 0.42592,0.21296 0.58579,0.79679 1.01172,1.00977 0.30116,0.15057 0.70861,-0.15058 1.00976,0 0.42592,0.21296 0.58385,0.79874 1.00977,1.01172 0.60233,0.30115 1.41719,-0.30119 2.01953,0 0.42592,0.21296 0.58581,0.79679 1.01172,1.00976 0.40052,0.20024 2.82278,-0.20651 3.02929,0 0.23811,0.23809 -0.23811,0.77166 0,1.00977 0.24308,0.24306 3.79796,-0.24306 4.04102,0 0.23811,0.2381 -0.23811,0.77169 0,1.00976 0.47619,0.47619 1.41719,-0.30115 2.01953,0 0.42591,0.21296 0.5858,0.79679 1.01172,1.00977 0.30117,0.15058 0.70861,-0.15058 1.00977,0 0.42591,0.21296 0.58385,0.79874 1.00976,1.01172 0.30117,0.15057 0.77166,-0.23811 1.00977,0 0.23811,0.23809 -0.23811,0.77169 0,1.00976 0.47619,0.47619 1.54529,-0.47619 2.02148,0 0.23811,0.2381 -0.23811,0.7717 0,1.00977 0.47619,0.47619 1.41719,-0.30115 2.01953,0 0.42591,0.21296 0.58385,0.79679 1.00977,1.00976 0.30117,0.15058 0.70861,-0.15057 1.00976,0 0.42592,0.21297 0.58581,0.79679 1.01172,1.00977 0.60234,0.30115 1.54334,-0.47619 2.01953,0 0.23811,0.23809 -0.23811,0.77361 0,1.01172 0.2381,0.23811 0.70862,-0.15058 1.00977,0 0.42592,0.21296 0.58385,0.79683 1.00977,1.00976 0.60232,0.30116 1.41914,-0.30115 2.02148,0 0.42592,0.21296 0.58386,0.79679 1.00976,1.00977 0.30118,0.15058 0.70862,-0.15058 1.00977,0 0.42592,0.21296 0.58385,0.79679 1.00977,1.00977 0.30117,0.15057 0.71056,-0.15058 1.01172,0 0.42591,0.21296 0.58384,0.79678 1.00976,1.00976 0.30117,0.15058 0.70861,-0.15058 1.00977,0 0.4259,0.21296 0.58384,0.79878 1.00976,1.01172 0.30117,0.15058 0.70861,-0.15058 1.00977,0 0.42592,0.21296 0.5858,0.79679 1.01172,1.00977 0.80812,0.40406 2.22117,-0.40406 3.02929,0 0.42593,0.21296 0.58386,0.79678 1.00977,1.00976 0.63728,0.31865 4.4135,-0.31865 5.05078,0 0.42591,0.21296 0.5858,0.79679 1.01172,1.00977 0.60234,0.30115 1.41719,-0.30116 2.01953,0 0.42592,0.21295 0.58385,0.79682 1.00977,1.00976 0.60232,0.30116 1.41914,-0.30115 2.02148,0 0.42592,0.21296 0.58386,0.79874 1.00977,1.01172 0.60234,0.30115 1.41719,-0.30115 2.01953,0 0.42592,0.21296 0.58384,0.79679 1.00976,1.00977 0.40052,0.20027 2.82474,-0.20652 3.03125,0 0.23807,0.23809 -0.23811,0.77165 0,1.00976 0.23809,0.23811 0.70862,-0.15057 1.00977,0 0.42592,0.21296 0.58385,0.79683 1.00976,1.00977 0.60234,0.30115 1.41915,-0.30115 2.02149,0 0.85183,0.42592 1.1677,1.59556 2.01953,2.02148 0.60234,0.30116 1.41914,-0.30115 2.02148,0 0.42592,0.21296 0.58385,0.79679 1.00977,1.00977 0.30117,0.15057 0.70861,-0.15058 1.00977,0 0.4259,0.21296 0.58384,0.79683 1.00976,1.00976 0.40051,0.20028 2.82474,-0.20651 3.03125,0 0.23811,0.2381 -0.23811,0.77166 0,1.00977 0.20652,0.20651 2.62878,-0.20028 3.0293,0 0.42592,0.21296 0.58385,0.7968 1.00976,1.00976 0.40052,0.20028 2.82474,-0.2065 3.03125,0 0.23811,0.2381 -0.23811,0.77361 0,1.01172 0.2764,0.2764 3.49303,-0.27401 4.04102,0 0.42592,0.21297 0.58385,0.79683 1.00976,1.00977 0.60234,0.30115 1.54335,-0.4762 2.01954,0 0.23811,0.23809 -0.23811,0.77165 0,1.00977 0.47619,0.47618 1.41914,-0.30116 2.02148,0 0.42591,0.21295 0.58385,0.79678 1.00977,1.00976 0.30117,0.15058 0.70861,-0.15058 1.00976,0 0.42592,0.21296 0.58385,0.79679 1.00977,1.00977 0.26561,0.13281 3.51278,0 4.04101,0 0.7026,0 4.68549,-0.18267 5.05078,0 0.42591,0.21296 0.58385,0.79875 1.00977,1.01171 0.30117,0.15058 0.675,0 1.01172,0 h 1.00976 5.05078 c 0.33672,0 0.70858,-0.15056 1.00977,0 0.42592,0.21295 0.58385,0.79679 1.00977,1.00977 0.30117,0.15058 0.67304,0 1.00976,0 h 1.01172 6.06055 c 0.45492,0 2.72187,-0.15371 3.02929,0 0.42592,0.21296 0.5858,0.79679 1.01172,1.00977 0.26561,0.13281 3.51084,0 4.03907,0 h 9.09179 17.17383 5.05078 1.00977 c 0.33672,0 0.70861,-0.15058 1.00976,0 0.42591,0.21296 0.58385,0.79679 1.00977,1.00976 0.30117,0.15058 0.67305,0 1.00976,0 h 1.01172 6.06055 14.14062 12.12305 6.06055 c 0.45494,0 2.72397,-0.15371 3.03125,0 0.42595,0.21296 0.58385,0.79679 1.00976,1.00977 0.65496,0.32746 5.10887,-0.31722 6.06055,0 0.71429,0.23809 1.30524,0.77361 2.01953,1.01172 0.63889,0.21297 1.41914,-0.30116 2.02149,0 0.42591,0.21296 0.58385,0.79679 1.00976,1.00976 0.8081,0.40406 2.22311,-0.40406 3.03125,0 0.42592,0.21296 0.58382,0.79679 1.00977,1.00977 0.60234,0.30115 1.41719,-0.30116 2.01953,0 0.42595,0.21296 0.58381,0.79679 1.00977,1.00976 0.60229,0.30116 1.41914,-0.30115 2.02148,0 0.42591,0.21295 0.58386,0.79683 1.00976,1.00977 0.3012,0.15058 0.70854,-0.15058 1.00977,0 0.42592,0.21296 0.58385,0.79878 1.00977,1.01172 0.30119,0.15057 0.71049,-0.15058 1.01172,0 0.4259,0.21296 0.58385,0.79679 1.00976,1.00976 0.60234,0.30119 1.41719,-0.30115 2.01953,0 0.42592,0.21296 0.58385,0.79679 1.00977,1.00977 0.30115,0.15058 0.71049,-0.15058 1.01172,0 0.42591,0.21295 0.58385,0.79683 1.00976,1.00976 0.8081,0.40407 2.22116,-0.40405 3.0293,0 0.42591,0.21297 0.5858,0.79683 1.01172,1.00977 0.8081,0.40406 2.22119,-0.40406 3.02929,0 0.42596,0.21296 0.58382,0.79874 1.00977,1.01172 0.8081,0.40406 2.22315,-0.40406 3.03125,0 0.42591,0.21296 0.58385,0.79679 1.00977,1.00976 0.60234,0.30116 1.5453,-0.47619 2.02148,0 0.23811,0.23809 -0.23811,0.77166 0,1.00977 0.47618,0.47619 1.41719,-0.30115 2.01953,0 0.42592,0.21296 0.58385,0.79679 1.00977,1.00977 0.60234,0.30115 1.41914,-0.30116 2.02148,0 0.42592,0.21296 0.58385,0.79678 1.00977,1.00976 0.60234,0.30115 1.41718,-0.30115 2.01953,0 0.42591,0.21296 0.58385,0.79874 1.00976,1.01172 0.60235,0.30115 1.54527,-0.47619 2.02149,0 0.23811,0.23809 -0.23811,0.77166 0,1.00977 0.47618,0.47618 1.54331,-0.47619 2.01953,0 0.23811,0.23808 -0.23811,0.77169 0,1.00976 0.23807,0.23811 0.70855,-0.15058 1.00976,0 0.42592,0.21296 0.58581,0.79683 1.01172,1.00977 0.60235,0.30119 1.54331,-0.47619 2.01954,0 0.2381,0.2381 -0.23812,0.77165 0,1.00976 0.47617,0.47619 1.54334,-0.47619 2.01953,0 0.23811,0.23809 -0.23811,0.77361 0,1.01172 0.23811,0.23807 0.7105,-0.15058 1.01171,0 0.42592,0.21296 0.58386,0.79683 1.00977,1.00977 0.30119,0.15057 0.77166,-0.23808 1.00977,0 0.23811,0.2381 -0.23811,0.77169 0,1.00976 0.47618,0.47619 1.54334,-0.47619 2.01953,0 0.23811,0.23811 -0.23811,0.77166 0,1.00977 0.23811,0.23807 0.71049,-0.15058 1.01172,0 0.42591,0.21296 0.58385,0.79679 1.00976,1.00976 0.30115,0.15058 0.77166,-0.23811 1.00977,0 0.23811,0.23809 -0.15043,0.71057 0,1.01172 0.1341,0.26821 2.7629,2.8952 3.03125,3.0293 0.30115,0.15058 0.77165,-0.23811 1.00976,0 0.23811,0.23809 -0.23811,0.77165 0,1.00977 0.23808,0.2381 0.70854,-0.15058 1.00977,0 3.75942,1.8797 -1.73993,0.14176 2.01953,2.02148 0.60234,0.30115 1.41918,-0.30115 2.02148,0 4.20405,2.10201 -1.08031,-0.0705 1.00977,2.01953 0.47618,0.47619 1.41719,-0.30115 2.01953,0 0.85187,0.42592 1.16966,1.59557 2.02149,2.02149 0.30119,0.15056 0.69039,-0.10647 1.00976,0 0.71429,0.23808 1.30524,0.77165 2.01953,1.00976 0.31945,0.10647 0.70854,-0.15058 1.00977,0 0.42591,0.21296 0.5858,0.79679 1.01172,1.00977 0.60234,0.30115 1.38064,-0.21298 2.01953,0 0.71429,0.2381 1.30524,0.77169 2.01953,1.00976 0.31945,0.10647 0.71049,-0.15057 1.01172,0 0.42591,0.21296 0.58385,0.79679 1.00976,1.00977 0.30116,0.15057 0.6904,-0.10647 1.00977,0 0.71425,0.23809 1.30524,0.77361 2.01953,1.01172 0.31941,0.10647 0.71049,-0.15058 1.01172,0 0.42595,0.21296 0.55801,0.85919 1.00976,1.00976 0.63886,0.21294 1.38068,-0.21297 2.01954,0 0.45176,0.15059 0.61355,0.74562 1.00976,1.00977 2.32267,1.54844 2.72815,0.4711 5.05078,2.01953 0.79246,0.52829 1.22907,1.4932 2.02149,2.02148 0.62645,0.41764 1.34609,0.67305 2.01953,1.00977 0.33672,0 0.70854,-0.15058 1.00976,0 0.42592,0.21296 0.61552,0.74561 1.01172,1.00976 0.62646,0.41765 1.39304,0.59213 2.01953,1.00977 0.79242,0.52829 1.116,1.72033 2.01954,2.02148 0.63885,0.21298 1.38259,-0.21297 2.02148,0 0.9035,0.30118 1.11604,1.71838 2.01953,2.01954 0.63889,0.21297 1.34805,0 2.02149,0 0.33671,0.33671 0.58385,0.79682 1.00976,1.00976 0.30119,0.15058 0.67301,0 1.00977,0 0.67343,0 1.38067,-0.21294 2.01953,0 0.45177,0.15058 0.5858,0.79683 1.01172,1.00977 0.60234,0.30115 1.41718,-0.30116 2.01953,0 0.42591,0.21296 0.58385,0.79874 1.00976,1.01172 0.63489,0.31744 3.4061,-0.31745 4.04102,0 0.42591,0.21296 0.58386,0.79678 1.00976,1.00976 0.80811,0.40406 2.22312,-0.40406 3.03126,0 0.4259,0.21296 0.58381,0.79679 1.00976,1.00977 0.30115,0.15057 0.70854,-0.15058 1.00977,0 0.42595,0.21295 0.58381,0.79679 1.00976,1.00976 0.60231,0.30116 1.41914,-0.30115 2.02149,0 0.42591,0.21296 0.58385,0.79679 1.00976,1.00977 0.26563,0.13281 3.51279,0 4.04102,0 h 6.06054 1.00977 c 0.33672,0 0.70854,0.15057 1.00977,0 0.42591,-0.21296 0.5858,-0.79679 1.01171,-1.00977 0.61338,-0.30671 5.44717,0.30667 6.06055,0 0.42592,-0.21295 0.58385,-0.79682 1.00977,-1.00976 0.80814,-0.40407 2.22315,0.40406 3.03125,0 0.42591,-0.21296 0.58385,-0.79679 1.00976,-1.00977 0.30743,-0.15371 2.57436,0 3.0293,0 h 7.07226 c 0.45491,0 2.72203,0.15371 3.0293,0 0.42592,-0.21296 0.58385,-0.79679 1.00977,-1.00976 0.69777,-0.34885 4.69626,0.35459 5.05078,0 0.23811,-0.2381 -0.23811,-0.77361 0,-1.01172 0.2764,-0.2764 3.49302,0.27401 4.04101,0 0.42592,-0.21296 0.58386,-0.79683 1.00977,-1.00977 0.80814,-0.40407 2.22311,0.40406 3.03125,0 0.42591,-0.21296 0.558,-0.85919 1.00977,-1.00976 0.0749,-0.0249 5.83868,-0.1109 6.06054,0 0.42596,0.21296 0.55999,0.85918 1.01172,1.00976 2.75909,0.9197 1.35727,-0.17374 3.0293,-1.00976 0.0529,-0.0265 2.97833,-0.0265 3.03125,0 0.42591,0.21296 0.58385,0.79682 1.00976,1.00976 0.61338,0.30671 5.44717,-0.30671 6.06055,0 0.42592,0.21295 0.58385,0.79683 1.00977,1.00977 0.30742,0.15371 2.5763,0 3.03125,0 h 6.06054 1.00977 c 0.33672,0 0.77361,-0.23811 1.01172,0 0.23811,0.23809 -0.23811,0.77361 0,1.01172 0.23811,0.23811 0.67301,0 1.00976,0 H 632.35547 640 v -63.64063 h -1.58398 c -0.33676,0 -0.77166,0.23811 -1.00977,0 -0.23811,-0.23811 0.23811,-0.7717 0,-1.00976 -0.034,-0.0325 -2.78626,0 -3.03125,0 -2.36897,-10e-6 0.47696,0.23849 -2.01953,-1.00977 -0.63489,-0.31744 -3.40609,0.31744 -4.04102,0 -0.42591,-0.21294 -0.58381,-0.7968 -1.00976,-1.00977 -0.60231,-0.30115 -1.41723,0.30116 -2.01953,0 -0.42592,-0.21297 -0.55999,-0.86113 -1.01172,-1.01172 -1.07343,-0.35777 -2.96571,0.35781 -4.03906,0 -0.7143,-0.23808 -1.3072,-0.77167 -2.02149,-1.00976 -0.63889,-0.21298 -1.41719,0.30115 -2.01953,0 -0.42592,-0.21298 -0.58385,-0.79681 -1.00977,-1.00977 -0.30122,-0.15057 -0.6923,0.10647 -1.01171,0 -0.7143,-0.23811 -1.30524,-0.77166 -2.01954,-1.00976 -0.31937,-0.10647 -0.70857,0.15057 -1.00976,0 -0.42592,-0.21298 -0.558,-0.85919 -1.00977,-1.00977 -0.63885,-0.21297 -1.34805,0 -2.02148,0 -0.33676,0 -0.70858,0.15058 -1.00977,0 -0.42591,-0.21297 -0.55803,-0.86114 -1.00976,-1.01172 -0.63889,-0.21297 -1.36812,0.16335 -2.02149,0 -0.73043,-0.18262 -1.30527,-0.77166 -2.01953,-1.00976 -0.31937,-0.10647 -0.69036,0.10647 -1.00976,0 -3.50608,-1.16869 -0.53494,-0.85084 -4.04102,-2.01953 -0.31937,-0.10647 -0.69032,0.10647 -1.00977,0 -0.71429,-0.23811 -1.30719,-0.77168 -2.02148,-1.00977 -0.31937,-0.10647 -0.67305,0 -1.00977,0 -0.67343,-0.33672 -1.30523,-0.77362 -2.01953,-1.01172 -0.31937,-0.10647 -0.69032,0.10647 -1.00976,0 -0.50087,-0.16694 -3.54016,-1.85257 -4.04102,-2.01953 -0.31937,-0.10647 -0.69032,0.10647 -1.00976,0 -0.71426,-0.23811 -1.29106,-0.82715 -2.02149,-1.00976 -0.65333,-0.16336 -1.3662,0.16331 -2.01953,0 -0.73047,-0.18263 -1.2891,-0.82715 -2.01953,-1.00977 -0.65333,-0.16335 -1.36819,0.16335 -2.02148,0 -0.73044,-0.18263 -1.2891,-0.82911 -2.01954,-1.01172 -0.65333,-0.16335 -1.38259,0.21298 -2.02148,0 -0.45177,-0.15058 -0.558,-0.85918 -1.00977,-1.00976 -2.01399,-0.67134 -2.02702,0.67133 -4.04101,0 -0.45173,-0.15058 -0.558,-0.85919 -1.00977,-1.00977 -0.90913,-0.30304 -2.12013,0.30304 -3.02929,0 -0.71426,-0.23811 -1.29106,-0.82716 -2.02149,-1.00977 -0.97999,-0.24498 -2.071,0.31945 -3.0293,0 -0.71429,-0.23811 -1.30719,-0.77166 -2.02148,-1.00976 -0.31937,-0.10647 -0.69032,0.10647 -1.00977,0 -0.71429,-0.23811 -1.2891,-0.82911 -2.01953,-1.01172 -0.97999,-0.24499 -2.07295,0.31945 -3.03125,0 -0.71429,-0.23811 -1.30524,-0.77167 -2.01953,-1.00977 -0.84661,-0.28221 -3.37155,0.33472 -4.04101,0 -0.42592,-0.21297 -0.58382,-0.7968 -1.00977,-1.00976 -0.6023,-0.30115 -1.41914,0.30119 -2.02148,0 -0.42588,-0.21294 -0.58385,-0.79681 -1.00977,-1.00977 -0.4495,-0.22473 -3.57901,0.15402 -4.04102,0 -0.45173,-0.15057 -0.58385,-0.79681 -1.00976,-1.00976 -0.30123,-0.15058 -0.70861,0.15057 -1.00977,0 -0.42591,-0.21298 -0.58385,-0.79876 -1.00976,-1.01172 -0.30123,-0.15058 -0.675,0 -1.01172,0 -0.67344,0 -1.38064,0.21298 -2.01953,0 -0.45177,-0.15058 -0.58385,-0.79681 -1.00977,-1.00977 -0.22639,-0.11319 -3.80098,0 -4.04101,0 -3.25164,0 1.72522,0.23849 -2.01953,-1.00976 -0.93362,-0.31121 -4.10855,0.31408 -5.05079,0 -0.71429,-0.23811 -1.30719,-0.77168 -2.02148,-1.00977 -0.63889,-0.21297 -1.3461,0 -2.01953,0 h -5.05078 c -0.33676,0 -0.70858,0.15058 -1.00977,0 -0.42591,-0.21297 -0.55995,-0.85918 -1.01172,-1.00976 -1.07338,-0.35781 -2.96564,0.3578 -4.03906,0 -0.71429,-0.23811 -1.30719,-0.77362 -2.02148,-1.01172 -0.90913,-0.30305 -2.12014,0.30304 -3.0293,0 -0.71426,-0.23807 -1.30722,-0.77167 -2.02148,-1.00977 -0.6389,-0.21297 -1.38068,0.21298 -2.01954,0 -0.71429,-0.23811 -1.30719,-0.77168 -2.02148,-1.00976 -0.63889,-0.21298 -1.38064,0.21297 -2.01953,0 -0.71429,-0.23811 -1.30524,-0.77168 -2.01953,-1.00977 -0.31937,-0.10647 -0.675,0 -1.01172,0 -0.67344,0 -1.38064,0.21294 -2.01953,0 -0.45173,-0.15058 -0.558,-0.8592 -1.00977,-1.00976 -0.63885,-0.21298 -1.36815,0.16332 -2.02148,0 -0.73043,-0.18259 -1.30524,-0.77362 -2.01953,-1.01172 -0.31937,-0.10647 -0.70862,0.15057 -1.00977,0 -0.42595,-0.21298 -0.67305,-0.67305 -1.00977,-1.00977 -0.67339,0 -1.38263,0.21298 -2.02148,0 -0.45177,-0.15058 -0.55804,-0.85918 -1.00977,-1.00977 -0.90916,-0.30301 -2.12016,0.30305 -3.02929,0 -0.7143,-0.23808 -1.30719,-0.77166 -2.02149,-1.00976 -0.63889,-0.21298 -1.38064,0.21298 -2.01953,0 -0.71429,-0.23807 -1.30719,-0.77166 -2.02148,-1.00977 -0.63886,-0.21297 -1.41719,0.30116 -2.01953,0 -0.42592,-0.21297 -0.558,-0.86116 -1.00977,-1.01171 -0.63885,-0.21298 -1.34805,0 -2.02148,0 -0.33676,0 -0.70858,0.15054 -1.00977,0 -0.42591,-0.21298 -0.58392,-0.79682 -1.00976,-1.00977 -0.63493,-0.31748 -3.40614,0.31744 -4.04102,0 -0.42592,-0.21298 -0.58385,-0.7968 -1.00977,-1.00977 -0.59603,-0.29801 -2.33646,0.23161 -3.03125,0 -0.71429,-0.23807 -1.30523,-0.77166 -2.01953,-1.00976 -0.63889,-0.21298 -1.41719,0.30119 -2.01953,0 -0.42591,-0.21298 -0.5858,-0.79681 -1.01172,-1.00977 -0.80814,-0.40406 -2.22116,0.40406 -3.02929,0 -0.42592,-0.21297 -0.58386,-0.79681 -1.00977,-1.00976 -0.8081,-0.40408 -2.22311,0.40405 -3.03125,0 -0.42591,-0.21298 -0.58385,-0.79876 -1.00977,-1.01172 -0.65491,-0.32746 -5.10886,0.31721 -6.06054,0 -0.7143,-0.23807 -1.30719,-0.77166 -2.02149,-1.00977 -0.22186,-0.0739 -3.89085,-0.0751 -4.04101,0 -0.42592,0.21298 -0.58385,0.79681 -1.00977,1.00977 -0.63726,0.31865 -4.41351,-0.31862 -5.05078,0 -0.42591,0.21297 -0.58385,0.79876 -1.00977,1.01172 -0.63485,0.31744 -3.40609,-0.31745 -4.04101,0 -0.42588,0.21294 -0.58385,0.7968 -1.00977,1.00976 -0.80813,0.40406 -2.22315,-0.40406 -3.03125,0 -0.42591,0.21298 -0.58385,0.79681 -1.00976,1.00977 -0.80814,0.40406 -2.22116,-0.40406 -3.0293,0 -0.42591,0.21297 -0.5858,0.79681 -1.01172,1.00976 -0.63726,0.31866 -4.41351,-0.31861 -5.05078,0 -0.42591,0.21298 -0.58385,0.79681 -1.00976,1.00977 -0.4495,0.22473 -3.57901,-0.15402 -4.04102,0 -0.45177,0.15058 -0.58381,0.7968 -1.00977,1.00977 -0.22639,0.11316 -3.80097,0 -4.04101,0 -1.01016,0 -2.071,-0.31945 -3.0293,0 -0.45177,0.15054 -0.558,0.86113 -1.00976,1.01171 -0.46243,0.15413 -4.48696,0 -5.05079,0 -0.33672,0 -0.69227,-0.10647 -1.01171,0 -0.7143,0.23811 -1.30528,0.77168 -2.01953,1.00977 -0.90915,0.30304 -2.12211,-0.30304 -3.03126,0 -0.71424,0.23811 -1.30525,0.77169 -2.01953,1.00976 -1.0734,0.35781 -2.96761,-0.35777 -4.04101,0 -0.71429,0.23808 -1.30524,0.77167 -2.01953,1.00977 -0.96794,0.32266 -4.11496,-0.31196 -5.05078,0 -0.45175,0.15058 -0.55802,0.85919 -1.00977,1.00977 -0.63888,0.21297 -1.34804,0 -2.02148,0 -0.33672,0 -0.7086,-0.15058 -1.00977,0 -0.42592,0.21297 -0.55801,0.86113 -1.00977,1.01172 -0.95831,0.31941 -2.0211,-10e-6 -3.03125,0 h -6.06054 c -0.52823,-10e-6 -3.77541,0.13278 -4.04102,0 -0.42592,-0.21298 -0.58385,-0.79876 -1.00976,-1.01172 -0.60234,-0.30116 -1.41723,0.30115 -2.01953,0 -0.42592,-0.21298 -0.55802,-0.85919 -1.00977,-1.00977 -0.57464,-0.19155 -4.09938,0 -5.05078,0 -0.33672,0 -0.77362,0.23807 -1.01172,0 -0.23811,-0.23811 0.23811,-0.77168 0,-1.00977 -0.0458,-0.0458 -4.5745,0 -5.05078,0 -0.33672,0 -0.77167,0.23808 -1.00977,0 -0.23811,-0.23808 0.23811,-0.77166 0,-1.00976 -0.50507,-0.50507 -2.52422,0.50508 -3.02929,0 -0.23811,-0.23807 0.23811,-0.77166 0,-1.00977 -0.23811,-0.23807 -0.71056,0.15058 -1.01172,0 -0.42591,-0.21297 -0.58385,-0.79879 -1.00977,-1.01171 -0.60234,-0.30116 -1.54334,0.47616 -2.01953,0 -0.23811,-0.23812 0.23811,-0.77168 0,-1.00977 -0.47619,-0.47619 -1.54529,0.47619 -2.02148,0 -0.23811,-0.23811 0.23811,-0.77166 0,-1.00977 -0.23811,-0.23807 -0.7086,0.15058 -1.00977,0 -0.42592,-0.21297 -0.58385,-0.7968 -1.00977,-1.00976 -0.30115,-0.15058 -0.77166,0.23811 -1.00976,0 -0.23807,-0.23807 0.23811,-0.77168 0,-1.00977 -0.23807,-0.23811 -0.77167,0.23807 -1.00977,0 -0.23811,-0.23811 0.15058,-0.7086 0,-1.00976 -0.42592,-0.85184 -1.59557,-1.16965 -2.02148,-2.02149 -0.15058,-0.30115 0.23811,-0.77167 0,-1.00976 -0.23811,-0.23811 -0.77166,0.23811 -1.00977,0 -0.23807,-0.23811 0.15058,-0.70861 0,-1.00977 -0.21294,-0.42592 -0.79681,-0.58385 -1.00976,-1.00976 -0.15058,-0.30116 0.23811,-0.77362 0,-1.01172 -0.23811,-0.23811 -0.77168,0.23811 -1.00977,0 -0.23811,-0.23811 0.15058,-0.7086 0,-1.00977 -0.21297,-0.42592 -0.79876,-0.58386 -1.01172,-1.00976 -0.15057,-0.30119 0.15058,-0.7086 0,-1.00977 -0.21297,-0.42592 -0.7968,-0.58384 -1.00976,-1.00977 -0.30116,-0.60234 0.30115,-1.41914 0,-2.02148 -0.21294,-0.42591 -0.79681,-0.58385 -1.00977,-1.00977 -0.15057,-0.30115 0,-0.67304 0,-1.00976 -0.33672,-0.33672 -0.79681,-0.58384 -1.00976,-1.00977 -0.15058,-0.30115 0.23807,-0.77362 0,-1.01172 -0.23811,-0.23811 -0.77168,0.23811 -1.00977,0 -0.23811,-0.23811 0.15058,-0.70859 0,-1.00976 -0.42592,-0.85183 -1.59556,-1.1677 -2.02148,-2.01953 -0.15058,-0.30116 0.23811,-0.77167 0,-1.00977 -0.23808,-0.23811 -0.77168,0.23811 -1.00977,0 -0.47619,-0.47619 0.47619,-1.54529 0,-2.02148 -0.23811,-0.23811 -0.77168,0.23811 -1.00977,0 -0.23808,-0.23811 0.23808,-0.77168 0,-1.00977 -0.23808,-0.23811 -0.77166,0.23811 -1.00976,0 -0.23807,-0.23811 0.15058,-0.7086 0,-1.00976 -0.42591,-0.85183 -1.5956,-1.16966 -2.02148,-2.02149 -0.15058,-0.30115 0.23804,-0.77167 0,-1.00976 -0.23812,-0.23811 -0.77168,0.23811 -1.00977,0 -0.23811,-0.23811 0.15058,-0.7086 0,-1.00977 -0.42592,-0.85183 -1.59361,-1.1677 -2.01953,-2.01953 -0.15058,-0.30119 0.23811,-0.77363 0,-1.01172 -0.23807,-0.23811 -0.77363,0.23811 -1.01172,0 -0.23811,-0.23811 0.23807,-0.7717 0,-1.00976 -0.23811,-0.23812 -0.77168,0.23808 -1.00977,0 -0.23811,-0.23812 0.23808,-0.77167 0,-1.00977 -0.23811,-0.23807 -0.70859,0.15058 -1.00976,0 -0.42591,-0.21298 -0.58384,-0.7968 -1.00977,-1.00977 -0.30115,-0.15057 -0.70859,0.15058 -1.00976,0 -0.85184,-0.42591 -1.16965,-1.59556 -2.02149,-2.02148 -0.30115,-0.15058 -0.77166,0.23811 -1.00976,0 -0.23808,-0.23811 0.23811,-0.77167 0,-1.00977 -0.23808,-0.23811 -0.7086,0.15058 -1.00977,0 -0.99402,-0.49701 -3.04699,-3.544 -4.04101,-4.04101 -0.30116,-0.15058 -0.70861,0.15057 -1.00977,0 -0.42592,-0.21298 -0.58385,-0.79681 -1.00977,-1.00977 -0.30119,-0.15057 -0.77362,0.23807 -1.01171,0 -0.23811,-0.23811 0.23811,-0.77167 0,-1.00976 -0.23811,-0.23811 -0.7086,0.15057 -1.00977,0 -0.42592,-0.21298 -0.58385,-0.79681 -1.00977,-1.00977 -0.30115,-0.15058 -0.77166,0.23811 -1.00976,0 -0.23811,-0.23807 0.23811,-0.77167 0,-1.00976 -0.23811,-0.23811 -0.7086,0.15057 -1.00977,0 -0.42592,-0.21298 -0.5858,-0.79877 -1.01172,-1.01172 -0.30115,-0.15058 -0.70859,0.15057 -1.00976,0 -0.42591,-0.21298 -0.58385,-0.79682 -1.00977,-1.00977 -0.30115,-0.15058 -0.77167,0.23811 -1.00976,0 -0.23811,-0.23811 0.23811,-0.77166 0,-1.00976 -0.23811,-0.23808 -0.7086,0.15057 -1.00977,0 -0.42592,-0.21298 -0.5858,-0.79681 -1.01172,-1.00977 -0.30115,-0.15058 -0.77166,0.23811 -1.00976,0 -0.23811,-0.23811 0.23811,-0.77168 0,-1.00977 -0.23811,-0.23811 -0.77168,0.23808 -1.00977,0 -0.23811,-0.23811 0.23811,-0.77362 0,-1.01171 -0.23811,-0.23811 -0.70859,0.15057 -1.00976,0 -0.42592,-0.21298 -0.58385,-0.79681 -1.00977,-1.00977 -0.30115,-0.15058 -0.7086,0.15058 -1.00977,0 -0.42588,-0.21294 -0.5858,-0.79681 -1.01171,-1.00977 -0.30116,-0.15057 -0.77168,0.23811 -1.00977,0 -0.23811,-0.23811 0.23811,-0.77167 0,-1.00976 -0.23811,-0.23811 -0.7717,0.23807 -1.00976,0 -0.23812,-0.23811 0.23808,-0.77168 0,-1.00977 -0.23812,-0.23811 -0.77167,0.23808 -1.00977,0 -0.23811,-0.23811 0.23811,-0.77361 0,-1.01172 -0.23811,-0.23807 -0.77167,0.23811 -1.00977,0 -0.23811,-0.23807 0.23811,-0.77166 0,-1.00976 -0.23811,-0.23807 -0.77362,0.23811 -1.01172,0 -0.23808,-0.23807 0.23812,-0.77168 0,-1.00977 -0.23808,-0.23811 -0.77166,0.23808 -1.00976,0 -0.23811,-0.23811 0.23811,-0.77167 0,-1.00976 -0.23811,-0.23811 -0.77167,0.23807 -1.00977,0 -0.23811,-0.23811 0.23811,-0.77167 0,-1.00977 -0.23811,-0.23807 -0.67304,0 -1.00976,0 0,-0.33672 0.15057,-0.71055 0,-1.01172 -2.10199,-4.20401 0.0685,1.08027 -2.02149,-1.00976 -0.23811,-0.23811 0.23811,-0.77168 0,-1.00977 -0.23811,-0.23811 -0.70859,0.15058 -1.00976,0 -0.85183,-0.42592 -1.1677,-1.59361 -2.01953,-2.01953 -0.30116,-0.15058 -0.7086,0.15058 -1.00977,0 -0.42591,-0.21298 -0.5858,-0.79876 -1.01172,-1.01172 -0.30115,-0.15057 -0.77168,0.23807 -1.00976,0 -0.23811,-0.23811 0.23807,-0.77166 0,-1.00976 -0.47619,-0.47619 -1.54334,0.4762 -2.01953,0 -0.23808,-0.23811 0.23811,-0.77167 0,-1.00977 -0.23808,-0.23807 -0.7086,0.15058 -1.00977,0 -0.42592,-0.21298 -0.5858,-0.79683 -1.01172,-1.00976 -0.30115,-0.15058 -0.77167,0.23808 -1.00976,0 -0.23811,-0.23812 0.23811,-0.77168 0,-1.00977 -0.23811,-0.23811 -0.7086,0.15058 -1.00977,0 -0.42591,-0.21298 -0.58385,-0.79876 -1.00977,-1.01172 -0.30119,-0.15058 -0.70859,0.15058 -1.00976,0 -0.42592,-0.21294 -0.58581,-0.7968 -1.01172,-1.00977 -0.30115,-0.15054 -0.77166,0.23812 -1.00977,0 -0.23807,-0.23808 0.23811,-0.77167 0,-1.00976 -0.23807,-0.23811 -0.70859,0.15058 -1.00976,0 -0.42592,-0.21298 -0.58385,-0.7968 -1.00977,-1.00977 -0.30115,-0.15057 -0.77167,0.23811 -1.00976,0 -0.23811,-0.23811 0.23807,-0.77166 0,-1.00976 -0.23811,-0.23811 -0.71055,0.15057 -1.01172,0 -0.42591,-0.21294 -0.58384,-0.79876 -1.00977,-1.01172 -0.30115,-0.15058 -0.70859,0.15058 -1.00976,0 -0.42593,-0.21298 -0.58386,-0.7968 -1.00977,-1.00977 -0.30119,-0.15057 -0.70859,0.15058 -1.00976,0 -1.21218,-0.60609 -1.81908,-2.4232 -3.03125,-3.02929 -0.60234,-0.30116 -1.41723,0.30115 -2.01953,0 -0.85184,-0.42592 -1.16965,-1.59558 -2.02149,-2.02149 -0.30115,-0.15057 -0.70859,0.15058 -1.00977,0 -0.85179,-0.42592 -1.1677,-1.59361 -2.01953,-2.01953 -0.30115,-0.15058 -0.77365,0.23811 -1.01171,0 -0.23812,-0.23811 0.23808,-0.77167 0,-1.00976 -0.23812,-0.23811 -0.7086,0.15057 -1.00977,0 -0.85183,-0.42592 -1.1677,-1.59557 -2.01953,-2.02149 -0.30115,-0.15058 -0.7086,0.15058 -1.00977,0 -0.42591,-0.21294 -0.5858,-0.7968 -1.01172,-1.00976 -0.30115,-0.15058 -0.70859,0.15057 -1.00976,0 -0.42592,-0.21298 -0.58386,-0.79681 -1.00977,-1.00977 -0.30115,-0.15058 -0.7086,0.15058 -1.00976,0 -0.42591,-0.21298 -0.58385,-0.7968 -1.00977,-1.00977 -0.30119,-0.15057 -0.71055,0.15058 -1.01172,0 -0.42592,-0.21297 -0.58385,-0.79876 -1.00976,-1.01171 -0.60234,-0.30116 -1.41719,0.30115 -2.01953,0 -0.42592,-0.21298 -0.58385,-0.79681 -1.00977,-1.00977 -0.30115,-0.15058 -0.69229,0.10647 -1.01172,0 -0.71429,-0.23811 -1.30524,-0.77167 -2.01953,-1.00977 -0.31945,-0.10646 -0.70859,0.15058 -1.00977,0 -0.42591,-0.21297 -0.55801,-0.85918 -1.00976,-1.00976 -0.63888,-0.21298 -1.41915,0.30119 -2.02149,0 -0.30119,-0.15058 0.23811,-0.77167 0,-1.00977 -0.47619,-0.47619 -1.41719,0.30116 -2.01953,0 -0.85184,-0.42591 -1.16964,-1.59556 -2.02148,-2.02148 -0.60234,-0.30119 -1.54334,0.47619 -2.01953,0 -0.23811,-0.23811 0.23811,-0.77168 0,-1.00977 -0.47619,-0.47619 -1.41719,0.30116 -2.01953,0 -0.85183,-0.42592 -1.16966,-1.59361 -2.02149,-2.01953 -0.60234,-0.30119 -1.54334,0.47619 -2.01953,0 -0.23811,-0.23811 0.23811,-0.77363 0,-1.01172 -0.47619,-0.47619 -1.41916,0.30119 -2.02148,0 -0.42592,-0.21297 -0.58385,-0.79681 -1.00977,-1.00976 -0.60234,-0.30116 -1.41719,0.30119 -2.01953,0 -0.42592,-0.21298 -0.58386,-0.79681 -1.00977,-1.00977 -0.60234,-0.30115 -1.41914,0.30115 -2.02148,0 -0.42592,-0.21297 -0.58385,-0.79681 -1.00977,-1.00976 -0.80812,-0.40407 -2.22313,0.40405 -3.03125,0 -0.42592,-0.21298 -0.58384,-0.79681 -1.00976,-1.00977 -0.80812,-0.40406 -2.22118,0.40406 -3.0293,0 -0.42592,-0.21298 -0.5858,-0.79685 -1.01172,-1.00976 -0.30115,-0.15058 -0.67304,-1e-5 -1.00976,0 -1.01727,-1e-5 -5.50192,0.18618 -6.06055,0 -0.45175,-0.15058 -0.58386,-0.79877 -1.00977,-1.01172 -0.28422,-0.14211 -6.29813,0 -7.07031,0 -0.86179,0 -6.69695,-0.18766 -7.07226,0 -0.42592,0.21293 -0.55802,0.86112 -1.00977,1.01172 -0.65577,0.21854 -6.15271,0 -7.07031,0 -0.33672,-1e-5 -0.69228,-0.10647 -1.01172,0 -0.71429,0.23808 -1.30524,0.77166 -2.01953,1.00976 -0.5467,0.18221 -3.69688,0 -4.04102,0 h -8.08008 c -0.716,0 -5.80133,0.13058 -6.0625,0 -0.42591,-0.21298 -0.58385,-0.79685 -1.00976,-1.00976 -0.30115,-0.15058 -0.67305,-1e-5 -1.00977,0 -0.69505,0 -5.47235,0.19601 -6.06054,0 -0.71429,-0.23812 -1.3072,-0.77362 -2.02149,-1.01172 -0.89644,-0.29881 -4.389313,0.33074 -5.050779,0 -0.425915,-0.21298 -0.583847,-0.79681 -1.009766,-1.00977 -0.634904,-0.31744 -3.406112,0.31744 -4.041016,0 -0.425918,-0.21298 -0.583847,-0.7968 -1.009765,-1.00977 -0.602336,-0.30116 -1.417192,0.30116 -2.019532,0 -0.425915,-0.21294 -0.58385,-0.79681 -1.009765,-1.00976 -0.808124,-0.40407 -2.223127,0.40406 -3.03125,0 -0.425919,-0.21298 -0.583847,-0.7968 -1.009766,-1.00977 -0.602335,-0.301137 -1.54529,0.47619 -2.021484,0 -0.23811,-0.238094 0.23811,-0.77362 0,-1.011715 -0.476187,-0.47619 -1.417192,0.301153 -2.019531,0 -0.425915,-0.212976 -0.583847,-0.796804 -1.009766,-1.009766 -0.301153,-0.150576 -0.708594,0.150577 -1.009766,0 -0.425915,-0.212938 -0.5858,-0.796808 -1.011718,-1.009765 -0.301191,-0.150577 -0.771671,0.23811 -1.009766,0 -0.23811,-0.23811 0.23811,-0.771671 0,-1.009766 -0.23811,-0.23811 -0.708598,0.150577 -1.009766,0 -1.212185,-0.606092 -1.819064,-2.425161 -3.03125,-3.03125 -0.301152,-0.150576 -0.77167,0.23811 -1.009765,0 -2.090041,-2.090041 3.194248,0.08249 -1.009766,-2.019531 -2.693737,0 0.3371,0.337107 -1.009765,-1.009766 -0.238111,-0.23811 -0.771671,0.23811 -1.009766,0 -2.090041,-2.090044 3.192291,0.08053 -1.011719,-2.021484 -0.301153,-0.150577 -0.771673,0.23811 -1.009765,0 -2.090041,-2.090041 3.194244,0.08249 -1.009766,-2.019531 -1.393361,-0.696681 -0.902783,1.223738 -2.019531,-1.009766 -0.150577,-0.301153 0.23811,-0.773624 0,-1.011719 -0.238111,-0.23811 -0.773624,0.23811 -1.011719,0 -0.23811,-0.23811 0.23811,-0.77167 0,-1.009765 -0.23811,-0.238111 -0.771671,0.23811 -1.009766,0 -0.23811,-0.238111 0.23811,-0.771671 0,-1.009766 -0.23811,-0.23811 -0.77167,0.23811 -1.009765,0 -0.238111,-0.23811 0.23811,-0.771671 0,-1.009766 -0.238111,-0.23811 -0.771675,0.238111 -1.009766,0 -0.23811,-0.23811 0.150576,-0.708597 0,-1.009765 -0.425919,-0.851838 -1.595569,-1.169651 -2.021484,-2.021485 -0.150577,-0.30119 0.23811,-0.77167 0,-1.009765 -0.238111,-0.23811 -0.771671,0.23811 -1.009766,0 -0.23811,-0.23811 0.150576,-0.708598 0,-1.009766 -2.102011,-4.204014 0.07051,1.080272 -2.019531,-1.009765 -0.23811,-0.238111 0.23811,-0.773624 0,-1.011719 -0.23811,-0.23811 -0.771671,0.23811 -1.009766,0 -0.23811,-0.23811 0.23811,-0.771671 0,-1.009766 -0.23811,-0.23811 -0.773624,0.23811 -1.011719,0 -0.23811,-0.23811 0.238111,-0.771673 0,-1.009765 -0.23811,-0.238111 -0.77167,0.238107 -1.009765,0 -2.090041,-2.090042 3.194248,0.08249 -1.009766,-2.019532 -2.693741,0 0.337107,0.335151 -1.009766,-1.011718 -0.238107,-0.238111 -0.77167,0.238107 -1.009765,0 -0.23811,-0.238111 0.150576,-0.708594 0,-1.009766 -0.425919,-0.851834 -1.59557,-1.167694 -2.021485,-2.019531 -0.150573,-0.301153 0.238111,-0.771671 0,-1.009766 -0.238107,-0.23811 -0.77167,0.23811 -1.009765,0 -0.23811,-0.23811 0.150576,-0.710547 0,-1.011719 -0.212939,-0.425915 -0.673051,-0.673047 -1.009766,-1.009765 -0.594115,-0.594116 -3.807123,-3.573235 -4.041015,-4.041016 -0.150577,-0.301191 0.23811,-0.771671 0,-1.009766 -0.238111,-0.23811 -0.708598,0.150577 -1.009766,0 -0.851837,-0.425918 -1.167698,-1.593612 -2.019531,-2.019531 -0.301191,-0.150576 -0.773624,0.23811 -1.011719,0 -0.238095,-0.23811 0.238095,-0.77167 0,-1.009766 -0.238095,-0.238107 -0.771671,0.238111 -1.009766,0 -0.238095,-0.238107 0.238095,-0.773623 0,-1.011718 -0.238095,-0.23811 -0.77167,0.23811 -1.009765,0 -0.238095,-0.23811 0.238095,-0.771671 0,-1.009766 -0.238095,-0.23811 -0.708597,0.150577 -1.009766,0 -0.425918,-0.212976 -0.583851,-0.796804 -1.009765,-1.009766 -0.301168,-0.150573 -0.773623,0.238111 -1.011719,0 -0.238095,-0.238107 0.238095,-0.771674 0,-1.009765 -0.47619,-0.47619 -1.417195,0.301153 -2.019531,0 -0.851835,-0.425919 -1.167696,-1.59557 -2.019532,-2.021485 -0.301168,-0.150573 -0.773626,0.238111 -1.011718,0 -0.238096,-0.238107 0.238092,-0.77167 0,-1.009765 -0.238096,-0.23811 -0.708597,0.150576 -1.009766,0 -0.425918,-0.212977 -0.583849,-0.796804 -1.009766,-1.009766 -0.301171,-0.150576 -0.673048,0 -1.009765,0 -0.336718,-0.336718 -0.583849,-0.796808 -1.009766,-1.009765 -0.602339,-0.301153 -1.419146,0.301152 -2.021484,0 -0.425917,-0.212939 -0.583848,-0.796805 -1.009766,-1.009766 -0.808122,-0.404058 -2.223128,0.404062 -3.03125,0 -0.425917,-0.212939 -0.583849,-0.798761 -1.009766,-1.011719 -0.808122,-0.404061 -2.221175,0.404062 -3.029297,0 -0.425914,-0.212976 -0.585801,-0.796804 -1.011718,-1.009765 -0.627338,-0.313663 -5.4132652,0.323641 -6.0605471,0 -0.425918,-0.212977 -0.583848,-0.796809 -1.0097657,-1.009766 -0.6349028,-0.317443 -3.4061122,0.317443 -4.0410156,0 C 0.58384807,41.380789 0.42591769,40.796946 0,40.583984 Z"
       transform="scale(0.26458333)"
       id="path843"
       inkscape:connector-curvature="0" />
  </g>
</svg>
