<?xml version="1.0" encoding="UTF-8" standalone="no"?>
<!-- Created with Inkscape (http://www.inkscape.org/) -->

<svg
   xmlns:dc="http://purl.org/dc/elements/1.1/"
   xmlns:cc="http://creativecommons.org/ns#"
   xmlns:rdf="http://www.w3.org/1999/02/22-rdf-syntax-ns#"
   xmlns:svg="http://www.w3.org/2000/svg"
   xmlns="http://www.w3.org/2000/svg"
   xmlns:sodipodi="http://sodipodi.sourceforge.net/DTD/sodipodi-0.dtd"
   xmlns:inkscape="http://www.inkscape.org/namespaces/inkscape"
   width="169.33333mm"
   height="127mm"
   viewBox="0 0 169.33333 127"
   version="1.1"
   id="svg8"
   inkscape:version="0.92.4 (5da689c313, 2019-01-14)"
   sodipodi:docname="2_7_tunica_intima.svg">
  <defs
     id="defs2" />
  <sodipodi:namedview
     id="base"
     pagecolor="#ffffff"
     bordercolor="#666666"
     borderopacity="1.0"
     inkscape:pageopacity="0.0"
     inkscape:pageshadow="2"
     inkscape:zoom="1.4"
     inkscape:cx="309.82346"
     inkscape:cy="232.39077"
     inkscape:document-units="mm"
     inkscape:current-layer="layer2"
     showgrid="false"
     fit-margin-top="0"
     fit-margin-left="0"
     fit-margin-right="0"
     fit-margin-bottom="0"
     inkscape:window-width="1920"
     inkscape:window-height="1001"
     inkscape:window-x="-9"
     inkscape:window-y="-9"
     inkscape:window-maximized="1" />
  <metadata
     id="metadata5">
    <rdf:RDF>
      <cc:Work
         rdf:about="">
        <dc:format>image/svg+xml</dc:format>
        <dc:type
           rdf:resource="http://purl.org/dc/dcmitype/StillImage" />
        <dc:title></dc:title>
      </cc:Work>
    </rdf:RDF>
  </metadata>
  <g
     inkscape:groupmode="layer"
     id="layer2"
     inkscape:label="tunica_intima"
     style="display:inline">
    <path
       style="fill:none;stroke:#000000;stroke-width:0.99999994px;stroke-linecap:butt;stroke-linejoin:miter;stroke-opacity:1"
       d="m 17.292969,149.92969 c -0.05626,0.008 -0.108301,0.0282 -0.150391,0.0703 -0.168359,0.16836 0.168359,0.54647 0,0.71484 -0.357143,0.35713 -1.785435,-0.35716 -2.142578,0 -0.168359,0.16835 0.168359,0.54455 0,0.71289 -0.336717,0.33672 -1.091016,-0.33671 -1.427734,0 -0.168359,0.16837 0.168359,0.54647 0,0.71485 -0.168359,0.16834 -0.546485,-0.16838 -0.714844,0 -0.952381,0.95239 1.189918,0.71484 -0.714844,0.71484 -0.168359,0.16836 0.168359,0.54651 0,0.71485 -0.168359,0.16837 -0.546485,-0.16834 -0.714844,0 -0.168359,0.16836 0.168359,0.54455 0,0.71289 -0.168358,0.16834 -0.544531,-0.16834 -0.71289,0 -0.336718,0.33671 0.336718,1.09297 0,1.42968 -0.168359,0.16834 -0.546485,-0.16834 -0.714844,0 -0.3571427,0.35715 0.357143,1.78545 0,2.14258 -0.1683587,0.16834 -0.5464847,-0.16834 -0.7148438,0 -0.25073,0.25073 0.2466898,3.07693 0,3.57031 -0.1505846,0.30117 -0.5623066,0.4137 -0.7128906,0.71485 -0.1937461,0.38749 0.1954432,2.66198 0,2.85742 -0.1683587,0.16838 -0.5464847,-0.16834 -0.7148437,0 -0.1683591,0.16836 0.1064806,0.50187 0,0.71484 -0.1505847,0.30116 -0.5642598,0.41174 -0.7148438,0.71289 -0.2129575,0.42593 0.3367181,1.09297 0,1.42969 -0.1683587,0.16834 -0.5464847,-0.16838 -0.7148437,0 -0.4776117,0.47761 0.4776121,0.95012 0,1.42774 -0.1683587,0.16834 -0.5445316,-0.16834 -0.7128906,0 -0.3571427,0.35715 0.3571426,1.78545 0,2.14257 -0.1683587,0.16834 -0.5464847,-0.16837 -0.7148438,0 -0.3571427,0.35714 0.3571427,1.78741 0,2.14454 -0.1683587,0.16834 -0.5464847,-0.16834 -0.7148438,0 -0.477612,0.47761 0.4776118,0.95012 0,1.42773 -0.168359,0.16834 -0.5445319,-0.16838 -0.7128906,0 -0.1683587,0.16836 0.1683587,0.5465 0,0.71484 -0.1683588,0.16834 -0.546485,-0.16834 -0.7148437,0 -0.1683587,0.16836 0.1683587,0.54452 0,0.71289 -0.1683588,0.16834 -0.5464851,-0.16837 -0.7148438,0 -0.1683587,0.16836 0.1683587,0.54651 0,0.71485 -0.1007326,0.10072 -1.99605795,0.0733 -2.1425781,0 v 95.7539 c 0.35512928,0.0186 0.65268388,0.0231 0.71484375,-0.0391 0.16835868,-0.16836 -0.16835868,-0.5465 0,-0.71484 0.0323727,-0.0325 3.23353015,0 3.57031245,0 0.2380952,0 0.5464847,-0.16834 0.7148438,0 0.1683591,0.16836 -0.1683591,0.54646 0,0.71484 0.1683587,0.16834 0.5018863,-0.10647 0.7148438,0 0.3011693,0.15059 0.4747955,0.47674 0.7128906,0.71485 0.2380955,0.23809 0.5642598,0.41173 0.7148437,0.71289 0.1064807,0.21295 -0.168359,0.5465 0,0.71484 0.1683587,0.16834 0.5464847,-0.16834 0.7148438,0 0.168359,0.16836 -0.1683591,0.5465 0,0.71484 0.1683587,0.16834 0.5464847,-0.16834 0.7148437,0 0.1718778,0.17187 -0.1718778,2.68553 0,2.85743 0.9523809,0.95238 0.7128906,-1.19187 0.7128906,0.71289 0,0.2381 -0.1064806,0.5019 0,0.71484 0.1505847,0.30117 0.4767487,0.47673 0.7148438,0.71484 0.238095,0.23809 0.413672,0.56232 0.714844,0.71289 0.212959,0.10647 0.544531,-0.16834 0.71289,0 0.168359,0.16836 -0.168359,0.54651 0,0.71485 0.168359,0.16838 0.476749,0 0.714844,0 h 4.285156 c 0.238097,0 0.501887,0.10647 0.714844,0 0.301169,-0.15059 0.413676,-0.56427 0.714844,-0.71485 0.425918,-0.21297 1.001817,0.21298 1.427734,0 0.30117,-0.15058 0.413676,-0.56231 0.714844,-0.71289 0.212959,-0.10647 0.546485,0.16834 0.714844,0 0.168359,-0.16836 -0.168359,-0.54646 0,-0.71484 0.95238,-0.95236 0.71289,1.18993 0.71289,-0.71484 0.168359,-0.16834 0.546485,0.16834 0.714844,0 0.168359,-0.16835 -0.168359,-0.54455 0,-0.71289 0.168359,-0.16838 0.546485,0.16834 0.714844,0 0.168359,-0.16837 -0.168359,-0.54647 0,-0.71485 0.168359,-0.16834 0.476749,0 0.714844,0 0.238094,0 0.499933,-0.10647 0.71289,0 0.30117,0.15059 0.413676,0.56427 0.714844,0.71485 0.425918,0.21293 1.091016,-0.33672 1.427734,0 0.168359,0.16835 -0.168359,0.54455 0,0.71289 0.168359,0.16834 0.476749,0 0.714844,0 0.321684,0 1.925199,0.1087 2.142578,0 0.30117,-0.15058 0.413676,-0.56232 0.714844,-0.71289 0.212959,-0.10647 0.546485,0.16834 0.714844,0 0.477611,-0.47762 -0.477612,-0.95208 0,-1.42969 0.168359,-0.16834 0.474795,0 0.71289,0 0,-0.2381 -0.168359,-0.54651 0,-0.71485 0.168359,-0.16837 0.546485,0.16834 0.714844,0 0.168359,-0.16836 -0.168359,-0.54455 0,-0.71289 0.168359,-0.16834 0.546485,0.16834 0.714844,0 0.168359,-0.16836 -0.168359,-0.5465 0,-0.71484 0.336717,-0.33672 1.091016,0.33672 1.427734,0 0.168359,-0.16836 -0.168359,-0.5465 0,-0.71484 0.02297,-0.0231 1.969348,0 2.142578,0 0.238097,0 0.546485,-0.16834 0.714844,0 0.168359,0.16836 -0.168359,0.5465 0,0.71484 0.168359,0.16834 0.546485,-0.16834 0.714844,0 0.168378,0.16836 0,0.47673 0,0.71484 V 280 v 0.71484 c 0,0.23809 -0.168359,0.54455 0,0.71289 0.168359,0.16834 0.546503,-0.16834 0.714844,0 0.168378,0.16836 -0.10647,0.50191 0,0.71485 1.486359,2.97268 -0.05015,-0.76304 1.427734,0.71484 0.168378,0.16836 -0.16834,0.54651 0,0.71485 0.168359,0.16834 0.546504,-0.16834 0.714844,0 0.16834,0.16835 -0.16834,0.54455 0,0.71289 0.168359,0.16834 0.54455,-0.16834 0.71289,0 0.168341,0.16836 -0.16834,0.5465 0,0.71484 0.168359,0.16834 0.546504,-0.16834 0.714844,0 0.16834,0.16836 -0.16834,0.5465 0,0.71484 0.336718,0.33672 1.09297,-0.33671 1.429688,0 0.16834,0.16836 -0.168341,0.54455 0,0.71289 0.168355,0.16834 0.54455,-0.16834 0.71289,0 0.16834,0.16836 -0.16834,0.54651 0,0.71485 0.336718,0.33672 1.003769,-0.21298 1.429688,0 0.301168,0.15058 0.411738,0.56427 0.71289,0.71484 0.212958,0.10647 0.476734,0 0.714844,0 0.738943,0 0.988367,0.1678 1.429688,-0.71484 0.106469,-0.21296 0,-0.47674 0,-0.71485 0.238095,0 0.54455,0.16834 0.71289,0 0.336718,-0.33672 -0.336718,-1.09101 0,-1.42773 0.168359,-0.16834 0.546504,0.16834 0.714844,0 0.336718,-0.33672 -0.336718,-1.09102 0,-1.42773 0.168359,-0.16834 0.546466,0.16834 0.714844,0 0.16834,-0.16836 -0.168378,-0.54651 0,-0.71485 0.168359,-0.16834 0.499914,0.10647 0.71289,0 0.301168,-0.15058 0.413654,-0.56427 0.714844,-0.71484 0.212958,-0.10647 0.546504,0.16838 0.714844,0 0.168378,-0.16836 -0.16834,-0.54651 0,-0.71485 0.168359,-0.16834 0.546503,0.16834 0.714844,0 0.168378,-0.16835 -0.168341,-0.54455 0,-0.71289 0.168359,-0.16837 0.47478,0 0.71289,0 0.173235,0 2.119523,-0.023 2.142578,0 0.02305,0.023 0,1.96937 0,2.14258 0,0.33679 -0.0325,3.53781 0,3.57031 0.168359,0.16834 0.546504,-0.16834 0.714844,0 0.171893,0.17188 -0.171893,2.68553 0,2.85743 0.168359,0.16837 0.546504,-0.16834 0.714844,0 1.477882,1.47786 -2.257842,-0.0567 0.714844,1.42968 0.212957,0.10647 0.54455,-0.16834 0.71289,0 0.16834,0.16836 -0.16834,0.54452 0,0.71289 0.168359,0.16834 0.476734,0 0.714844,0 H 64.285156 65 c 0.238095,0 0.546504,-0.16837 0.714844,0 0.168378,0.16836 -0.16834,0.54647 0,0.71485 0.357142,0.35713 1.78545,-0.35717 2.142578,0 0.16834,0.16836 -0.16834,0.5465 0,0.71484 0.168359,0.16838 0.501867,-0.10647 0.714844,0 0.702878,0.35144 2.152593,2.50597 2.855468,2.85742 0.212962,0.10647 0.546504,-0.16837 0.714844,0 0.168378,0.16835 -0.16834,0.54455 0,0.71289 0.168359,0.16834 0.546466,-0.16834 0.714844,0 0.16834,0.16836 -0.168378,0.54651 0,0.71485 0.336714,0.33672 1.091016,-0.33672 1.427734,0 0.16834,0.16836 -0.168378,0.5465 0,0.71484 0.357143,0.35717 1.785451,-0.35713 2.142578,0 0.168341,0.16836 -0.16834,0.54651 0,0.71485 0.336718,0.33671 1.09297,-0.33672 1.429688,0 0.16834,0.16835 -0.16834,0.54455 0,0.71289 0.336718,0.33671 1.091016,-0.33672 1.427734,0 0.16834,0.16836 -0.16834,0.5465 0,0.71484 0.168359,0.16834 0.546504,-0.16834 0.714844,0 0.0325,0.0324 0,3.23547 0,3.57227 0,0.23808 -0.16834,0.54455 0,0.71289 0.168359,0.16837 0.546504,-0.16834 0.714844,0 0.357127,0.35715 -0.357128,1.78545 0,2.14257 0.168359,0.16838 0.54455,-0.16834 0.71289,0 0.168341,0.16837 -0.106469,0.50187 0,0.71485 0.150584,0.30117 0.564268,0.41369 0.714844,0.71484 0.106469,0.21296 -0.16834,0.54651 0,0.71485 0.02874,0.0287 2.595123,0 2.857422,0 0.373516,0 2.669617,0.0939 2.857422,0 0.301172,-0.15059 0.413653,-0.56427 0.714844,-0.71485 0.283207,-0.14158 1.996537,0.14604 2.142578,0 0.168378,-0.16836 -0.16834,-0.5465 0,-0.71484 0.168359,-0.16838 0.54455,0.16834 0.71289,0 0.168341,-0.16836 -0.16834,-0.54647 0,-0.71485 0.168359,-0.16834 0.476734,0 0.714844,0 0,-0.23808 -0.16834,-0.54455 0,-0.71289 0.168359,-0.16834 0.546504,0.16834 0.714844,0 0.16834,-0.16836 -0.16834,-0.5465 0,-0.71484 1.477893,-1.47788 -0.05861,2.25785 1.427734,-0.71484 0.10647,-0.21295 -0.16834,-0.54455 0,-0.71289 0.168359,-0.16834 0.546504,0.16834 0.714844,0 0.16834,-0.16836 -0.106469,-0.50187 0,-0.71485 0.150588,-0.30117 0.564267,-0.41369 0.714844,-0.71484 0.106469,-0.21296 -0.16834,-0.54651 0,-0.71485 0.168359,-0.16834 0.54455,0.16834 0.71289,0 0.168341,-0.16835 -0.16834,-0.54455 0,-0.71289 0.168356,-0.16834 0.546504,0.16834 0.714844,0 0.16834,-0.16836 -0.16834,-0.5465 0,-0.71484 0.168359,-0.16834 0.546504,0.16834 0.714844,0 0.16834,-0.16836 -0.16834,-0.5465 0,-0.71484 0.168359,-0.16834 0.546503,0.16834 0.714844,0 0.16834,-0.16836 -0.168341,-0.54455 0,-0.71289 0.168359,-0.16834 0.544512,0.16834 0.71289,0 0.16834,-0.16836 -0.168378,-0.54651 0,-0.71485 0.168359,-0.16834 0.546504,0.16834 0.714844,0 0.16834,-0.16836 -0.16834,-0.54646 0,-0.71484 0.16836,-0.16834 0.5465,0.16838 0.71484,0 0.16834,-0.16836 -0.16834,-0.54651 0,-0.71485 0.16836,-0.16834 0.47478,0 0.71289,0 0.2381,0 0.50187,-0.10646 0.71485,0 0.30117,0.1506 0.56427,0.4137 0.71484,0.71485 0.21298,0.42591 -0.21297,1.00377 0,1.42969 0.15059,0.30117 0.56427,0.41173 0.71485,0.71289 0.28569,0.57143 -0.28574,1.57114 0,2.14257 0.15058,0.30117 0.56231,0.4137 0.71289,0.71485 0.21297,0.42591 -0.21294,1.00377 0,1.42969 0.15059,0.30116 0.56426,0.41173 0.71484,0.71289 0.21298,0.42592 -0.21298,1.00377 0,1.42968 0.15058,0.30116 0.56427,0.41174 0.71484,0.71289 0.10647,0.21297 -0.10647,0.50187 0,0.71485 0.15058,0.30117 0.56232,0.41369 0.71289,0.71484 0.24669,0.49338 -0.25073,3.31958 0,3.57031 0.16837,0.16834 0.54647,-0.16834 0.71485,0 0.47761,0.47762 -0.47761,0.95208 0,1.42969 0.16836,0.16834 0.5465,-0.16834 0.71484,0 0.33672,0.33672 -0.33672,1.09102 0,1.42774 0.16836,0.16834 0.54651,-0.16834 0.71485,0 0.47761,0.47762 -0.47761,0.95206 0,1.42968 0.16836,0.16834 0.54455,-0.16834 0.71289,0 0.33671,0.33671 -0.33672,1.09102 0,1.42774 0.16836,0.16834 0.5465,-0.16834 0.71484,0 0.16838,0.16836 -0.10647,0.50187 0,0.71484 0.15058,0.30117 0.56427,0.41369 0.71484,0.71485 0.10647,0.21295 -0.10647,0.49995 0,0.71289 0.15058,0.30117 0.56232,0.41365 0.71289,0.71484 0.21298,0.42592 -0.33671,1.09102 0,1.42773 0.16836,0.16838 0.54651,-0.16834 0.71485,0 0.33672,0.33673 -0.33672,1.09297 0,1.42969 0.16836,0.16834 0.5465,-0.16834 0.71484,0 0.33672,0.33672 -0.21297,1.00183 0,1.42774 0.15059,0.30117 0.56427,0.41369 0.71485,0.71484 0.10646,0.21296 -0.16834,0.5465 0,0.71484 0.16835,0.16834 0.49995,-0.10647 0.71289,0 0.30116,0.15058 0.41365,0.56232 0.71484,0.71289 0.21296,0.10647 0.5465,-0.16834 0.71484,0 0.33672,0.33673 -0.33671,1.09297 0,1.42969 0.16836,0.16834 0.54455,-0.16834 0.71289,0 0.16834,0.16836 -0.16834,0.54651 0,0.71485 0.16836,0.16834 0.54651,-0.16834 0.71485,0 0.16834,0.16835 -0.10647,0.49995 0,0.71289 0.15058,0.30116 0.56427,0.41369 0.71484,0.71484 0.10647,0.21296 -0.10647,0.50187 0,0.71484 0.15059,0.30116 0.56427,0.4117 0.71485,0.71289 0.10646,0.21296 -0.10647,0.50187 0,0.71485 0.15058,0.30117 0.47481,0.47673 0.71289,0.71484 0.2381,0.2381 0.41365,0.56427 0.71484,0.71485 0.21296,0.10646 0.5465,-0.16838 0.71484,0 0.16834,0.16835 -0.16834,0.54455 0,0.71289 0.16835,0.16837 0.47482,0 0.71289,0 h 0.71485 0.71484 c 0.2381,0 0.54651,0.16837 0.71485,0 0.16837,-0.16835 -0.16834,-0.54455 0,-0.71289 0.16836,-0.16838 0.49995,0.10646 0.71289,0 0.30117,-0.1506 0.41369,-0.56427 0.71484,-0.71485 0.42592,-0.21297 1.09102,0.33672 1.42773,0 0.16834,-0.16836 -0.16837,-0.5465 0,-0.71484 0.16836,-0.16834 0.50187,0.10647 0.71485,0 0.30117,-0.15059 0.47673,-0.47674 0.71484,-0.71485 0.2381,0 0.50187,0.10647 0.71485,0 0.30117,-0.15058 0.41173,-0.56231 0.71289,-0.71289 0.21295,-0.10647 0.50186,0.10647 0.71484,0 0.30117,-0.15058 0.41369,-0.56426 0.71484,-0.71484 0.21295,-0.10647 0.54452,0.16834 0.71289,0 0.16834,-0.16836 -0.16837,-0.5465 0,-0.71484 0.16836,-0.16834 0.50187,0.10647 0.71485,0 0.30117,-0.15058 0.41369,-0.56232 0.71484,-0.71289 0.21296,-0.10647 0.50187,0.10646 0.71485,0 0.60234,-0.30117 0.82539,-1.1285 1.42773,-1.42969 0.21296,-0.10647 0.5465,0.16838 0.71484,0 0.16834,-0.16836 -0.16834,-0.54651 0,-0.71485 0.16835,-0.16834 0.49992,0.10647 0.71289,0 1.76529,-0.88262 -0.24543,-0.71289 1.42969,-0.71289 h 0.71485 c 0.23809,0 0.54455,-0.16834 0.71289,0 0.16834,0.16836 -0.16834,0.54455 0,0.71289 0.16836,0.16834 0.50186,-0.10646 0.71484,0 0.30117,0.1506 0.41369,0.56427 0.71484,0.71485 0.21295,0.10647 0.54452,-0.16834 0.71289,0 0.33672,0.33671 -0.33671,1.09297 0,1.42969 0.16836,0.16834 0.54651,-0.16834 0.71485,0 0.4729,0.4729 -0.47291,0.95482 0,1.42773 0.16836,0.16834 0.5465,-0.16834 0.71484,0 0.16834,0.16836 -0.16834,0.5465 0,0.71484 0.16836,0.16834 0.54651,-0.16834 0.71485,0 0.16834,0.16836 -0.16834,0.54452 0,0.71289 0.16835,0.16834 0.54455,0.16834 0.71289,0 0.16837,-0.16836 -0.16834,-0.54455 0,-0.71289 0.16836,-0.16834 0.47673,0 0.71484,0 h 0.71484 c 0.2381,0 0.54452,0.16834 0.71289,0 0.16834,-0.16836 -0.16837,-0.5465 0,-0.71484 0.16836,-0.16834 0.54651,0.16834 0.71485,0 0.16834,-0.16836 -0.16834,-0.5465 0,-0.71484 0.16836,-0.16834 0.5465,0.16834 0.71484,0 0.16838,-0.16836 -0.16834,-0.54455 0,-0.71289 0.16836,-0.16834 0.54647,0.16834 0.71485,0 0.33671,-0.33672 -0.21298,-1.00378 0,-1.42969 0.15058,-0.30117 0.56231,-0.41369 0.71289,-0.71485 0.22446,-0.44894 -0.22447,-2.40652 0,-2.85546 0.15059,-0.30117 0.56426,-0.4137 0.71484,-0.71485 0.10647,-0.21296 -0.16838,-0.5465 0,-0.71484 0.16836,-0.16838 0.47673,0 0.71484,0 0.23809,0 0.54455,-0.16838 0.71289,0 0.16838,0.16836 -0.16834,0.5465 0,0.71484 0.0288,0.0287 2.59513,0 2.85743,0 0.26231,0 2.82869,-0.0287 2.85742,0 0.16834,0.16836 -0.16834,0.54651 0,0.71485 0.33671,0.33671 1.09297,-0.33672 1.42969,0 0.16834,0.16836 -0.10647,0.49995 0,0.71289 0.15058,0.30117 0.56231,0.41369 0.71289,0.71484 0.0939,0.18782 0,2.48389 0,2.85742 v 4.28516 c 0,0.23809 -0.16834,0.54646 0,0.71484 0.16836,0.16834 0.54646,-0.16838 0.71484,0 0.16834,0.16836 -0.10647,0.50187 0,0.71485 0.15058,0.30116 0.56427,0.41173 0.71484,0.71289 0.10647,0.21296 -0.16834,0.54646 0,0.71484 0.16836,0.16834 0.54452,0.16834 0.71289,0 0.16834,-0.16836 -0.16837,-0.54647 0,-0.71484 0.16836,-0.16834 0.47674,0 0.71485,0 h 0.71484 c 1.90476,0 -0.23753,0.23949 0.71485,-0.71289 0.16835,-0.16838 0.47481,0 0.71289,0 h 3.57226 c 0.2381,0 0.54651,-0.16838 0.71485,0 0.16837,0.16835 0,0.47481 0,0.71289 0.23809,0 0.54455,-0.16834 0.71289,0 0.47291,0.47291 -0.47291,0.95677 0,1.42968 0.16836,0.16834 0.5465,-0.16834 0.71484,0 0.16834,0.16835 0.16834,0.54455 0,0.71289 -0.16836,0.16838 -0.5465,-0.16834 -0.71484,0 -0.16834,0.16837 0,0.47674 0,0.71485 v 0.71484 4.28516 0.71484 c 0,0.2381 -0.10647,0.50187 0,0.71485 0.15058,0.30117 0.56426,0.41173 0.71484,0.71289 0.51106,1.02212 0.13485,0.82786 -0.11523,0.63086 0.12764,0.11363 0.31981,0.28856 0.83007,0.79882 0.10647,0.21295 -0.16834,0.54452 0,0.71289 0.16836,0.16834 0.54452,-0.16837 0.71289,0 0.16834,0.16836 -0.16837,0.54651 0,0.71485 0.16836,0.16834 0.54651,-0.16834 0.71485,0 0.16834,0.16836 -0.10647,0.5019 0,0.71484 0.15058,0.30117 0.56427,0.41369 0.71484,0.71485 0.10647,0.21295 -0.16838,0.54455 0,0.71289 0.16836,0.16837 0.54651,-0.16834 0.71485,0 0.16834,0.16836 -0.16834,0.54646 0,0.71484 0.16835,0.16834 0.54455,-0.16838 0.71289,0 0.16837,0.16836 -0.16834,0.54647 0,0.71484 0.33671,0.33672 1.09297,-0.33671 1.42968,0 0.16834,0.16835 -0.16834,0.54455 0,0.71289 0.16836,0.16838 0.47478,0 0.71289,0 0.49682,0 3.31398,-0.12914 3.57227,0 0.30117,0.1506 0.41369,0.56427 0.71484,0.71485 0.21295,0.10647 0.54455,-0.16838 0.71289,0 0.33672,0.3367 -0.33671,1.09297 0,1.42969 0.16836,0.16837 0.54651,-0.16834 0.71485,0 0.16838,0.16836 -0.10647,0.49995 0,0.71289 0.15058,0.30116 0.56427,0.41369 0.71484,0.71484 0.10647,0.21296 -0.16838,0.5465 0,0.71484 0.16836,0.16834 0.54651,-0.16834 0.71485,0 0.16834,0.16836 -0.10647,0.49992 0,0.71289 0.30117,0.60234 1.12658,0.82735 1.42773,1.42969 0.10647,0.21296 -0.16834,0.54651 0,0.71485 0.16836,0.16834 0.5465,-0.16834 0.71484,0 0.16834,0.16835 -0.16834,0.54455 0,0.71289 0.16836,0.16834 0.54452,-0.16834 0.71289,0 0.16834,0.16836 -0.10646,0.50186 0,0.71484 0.15059,0.30117 0.56427,0.41369 0.71485,0.71484 0.10647,0.21295 -0.16834,0.54452 0,0.71289 0.16836,0.16834 0.54646,-0.16837 0.71484,0 0.16834,0.16836 -0.16838,0.54651 0,0.71485 0.16836,0.16834 0.54651,-0.16834 0.71485,0 0.16834,0.16836 -0.10647,0.5019 0,0.71484 0.15058,0.30117 0.56231,0.41369 0.71289,0.71485 0.10647,0.21295 -0.16834,0.54455 0,0.71289 0.16836,0.16834 0.54646,-0.16834 0.71484,0 0.16834,0.16836 -0.16838,0.5465 0,0.71484 0.16836,0.16838 0.5465,-0.16834 0.71484,0 0.16834,0.16836 -0.16834,0.54647 0,0.71484 0.16836,0.16834 0.54452,-0.16837 0.71289,0 0.16834,0.16835 -0.16837,0.54455 0,0.71289 0.16836,0.16838 0.54647,-0.16834 0.71485,0 0.16834,0.16837 -0.16838,0.54651 0,0.71485 0.16836,0.16838 0.5465,-0.16834 0.71484,0 0.16838,0.16836 -0.16834,0.5465 0,0.71484 0.16836,0.16834 0.54647,-0.16834 0.71485,0 0.16834,0.16836 -0.10647,0.50191 0,0.71485 0.15058,0.30117 0.47478,0.47478 0.71289,0.71289 0.2381,0.2381 0.41369,0.56426 0.71484,0.71484 0.42592,0.21298 1.00182,-0.21298 1.42773,0 0.60234,0.30117 0.82735,1.12658 1.42969,1.42773 0.21296,0.10647 0.50187,-0.10646 0.71485,0 0.30117,0.1506 0.41173,0.56427 0.71289,0.71485 0.44894,0.22446 2.40847,-0.22447 2.85742,0 0.30117,0.15058 0.41369,0.56427 0.71484,0.71484 0.21296,0.10647 0.50187,-0.10647 0.71485,0 0.30116,0.15059 0.41173,0.56427 0.71289,0.71485 0.3875,0.19373 2.66198,-0.19544 2.85742,0 0.16834,0.16835 -0.16838,0.54455 0,0.71289 0.47761,0.47762 0.95208,-0.47762 1.42969,0 0.16837,0.16836 -0.16834,0.5465 0,0.71484 0.33672,0.33672 1.09101,-0.33672 1.42773,0 0.16838,0.16836 -0.10647,0.50187 0,0.71484 0.15058,0.30116 0.56427,0.4117 0.71484,0.71289 0.10647,0.21296 -0.16837,0.54651 0,0.71485 0.16835,0.16834 0.54455,-0.16834 0.71289,0 0.9524,0.95239 -1.18991,0.71484 0.71485,0.71484 0.16838,0.16838 -0.16834,0.54628 0,0.71485 0.16836,0.16818 0.54646,-0.16857 0.71484,0 0.16834,0.16834 0,0.47478 0,0.71289 0.2381,0 0.54651,-0.16857 0.71485,0 0.16834,0.16834 -0.16834,0.54627 0,0.71484 0.16835,0.16819 0.54455,-0.16857 0.71289,0 0.16834,0.16834 -0.16834,0.54665 0,0.71484 0.16836,0.16857 0.50186,-0.10658 0.71484,0 0.30117,0.15062 0.41369,0.56247 0.71484,0.71289 0.21295,0.10659 0.54452,-0.16818 0.71289,0 0.16834,0.16838 -0.16837,0.54666 0,0.71485 0.16836,0.16857 0.50187,-0.10658 0.71485,0 0.30117,0.15057 0.41369,0.56442 0.71484,0.71484 0.42592,0.21279 1.09102,-0.33675 1.42774,0 0.16837,0.16834 -0.16834,0.54628 0,0.71485 0.33672,0.33675 1.09297,-0.33676 1.42968,0 0.16834,0.16834 -0.16834,0.5447 0,0.71289 0.35714,0.35716 1.78545,-0.35717 2.14258,0 0.16834,0.16837 -0.16834,0.54665 0,0.71484 0.33672,0.33676 1.00183,-0.21279 1.42774,0 0.30117,0.15058 0.41369,0.56442 0.71484,0.71484 0.45062,0.22526 3.12165,-0.22526 3.57227,0 0.30117,0.15058 0.41173,0.56247 0.71289,0.71289 0.18468,0.0922 3.78082,0 4.28711,0 0.23808,0 0.49995,-0.10658 0.71289,0 0.30117,0.15058 0.41365,0.56404 0.71484,0.71485 0.25831,0.12926 3.07545,0 3.57227,0 0.23809,0 0.54455,-0.16857 0.71289,0 0.16834,0.16834 -0.16834,0.54665 0,0.71484 0.35715,0.35717 1.78545,-0.35716 2.14257,0 0.16834,0.16838 -0.16834,0.54666 0,0.71485 0.33673,0.33675 1.00378,-0.21279 1.42969,0 0.30117,0.15057 0.41369,0.56246 0.71485,0.71289 0.25831,0.12926 3.07349,0 3.57031,0 0.23809,0 0.5465,0.16819 0.71484,0 0.16838,-0.16834 -0.16834,-0.54471 0,-0.71289 0.14604,-0.14589 1.85938,0.14173 2.14258,0 0.30117,-0.15058 0.41369,-0.56404 0.71484,-0.71485 0.21295,-0.10658 0.54455,0.16857 0.71289,0 0.16838,-0.16834 -0.16834,-0.54665 0,-0.71484 0.16837,-0.16857 0.54647,0.16819 0.71485,0 0.16834,-0.16838 -0.16838,-0.54666 0,-0.71485 0.16836,-0.16856 0.50187,0.10659 0.71484,0 0.30117,-0.15057 0.47674,-0.47478 0.71485,-0.71289 0.23809,-0.23811 0.56231,-0.41361 0.71289,-0.71484 0.10647,-0.21294 -0.16834,-0.54628 0,-0.71484 0.16836,-0.16819 0.5465,0.16856 0.71484,0 0.16834,-0.16834 -0.16834,-0.54471 0,-0.71289 0.16836,-0.16857 0.5465,0.16818 0.71484,0 0.33672,-0.33672 -0.33671,-1.09294 0,-1.42969 0.16836,-0.16819 0.54455,0.16857 0.71289,0 0.19544,-0.19544 -0.19373,-2.46995 0,-2.85742 0.1506,-0.30119 0.56427,-0.41167 0.71485,-0.71289 0.28569,-0.57143 -0.28573,-1.57311 0,-2.14454 0.15058,-0.30117 0.56427,-0.41173 0.71484,-0.71289 0.10647,-0.21296 -0.16834,-0.5465 0,-0.71484 0.16836,-0.16834 0.54651,0.16834 0.71485,0 0.16834,-0.16836 -0.16834,-0.5465 0,-0.71484 0.35713,-0.35713 1.78541,0.35716 2.14257,0 0.16834,-0.16836 -0.16834,-0.54455 0,-0.71289 0.35714,-0.35713 1.78545,0.35712 2.14258,0 0.16838,-0.16836 -0.16834,-0.54651 0,-0.71485 0.35715,-0.35713 1.78545,0.35717 2.14258,0 0.16838,-0.16836 -0.16834,-0.5465 0,-0.71484 0.33672,-0.33672 1.00182,0.21297 1.42773,0 0.30118,-0.15059 0.4137,-0.56427 0.71485,-0.71485 0.42592,-0.21297 1.09297,0.33672 1.42969,0 0.95239,-0.95239 -1.19187,-0.71289 0.71289,-0.71289 0.30116,-0.15058 0.41369,-0.56426 0.71484,-0.71484 0.21296,-0.10647 0.5465,0.16834 0.71484,0 0.16834,-0.16836 -0.16834,-0.5465 0,-0.71484 0.16836,-0.16834 0.54455,0.16834 0.71289,0 0.16834,-0.16836 -0.16834,-0.54452 0,-0.71289 0.16836,-0.16834 0.50187,0.10646 0.71485,0 0.30117,-0.15059 0.41369,-0.56427 0.71484,-0.71485 0.21296,-0.10647 0.54651,0.16834 0.71485,0 0.16834,-0.16836 -0.16834,-0.54646 0,-0.71484 0.16835,-0.16834 0.49995,0.10647 0.71289,0 0.60234,-0.30117 0.82734,-1.12658 1.42968,-1.42774 0.21295,-0.10647 0.54452,0.16834 0.71289,0 0.16834,-0.16836 -0.16837,-0.54646 0,-0.71484 0.16836,-0.16834 0.54651,0.16838 0.71485,0 0.16834,-0.16836 -0.16834,-0.5465 0,-0.71484 0.16836,-0.16834 0.5465,0.16834 0.71484,0 0.95237,-0.95239 -1.18992,-0.71289 0.71485,-0.71289 h 0.71289 c 0.2381,0 0.5465,0.16834 0.71484,0 0.31746,-0.31747 -0.55501,-1.34977 0.71484,-0.71485 0.30117,0.15059 0.41174,0.56427 0.71289,0.71485 0.21297,0.10646 0.54651,-0.16838 0.71485,0 0.0714,0.0714 0.0714,2.07118 0,2.14257 -0.16836,0.16834 -0.54651,-0.16837 -0.71485,0 -0.16834,0.16835 0.10647,0.49996 0,0.71289 -0.15058,0.30118 -0.56231,0.4137 -0.71289,0.71485 -0.10647,0.21296 0.10647,0.50187 0,0.71484 -0.15059,0.30117 -0.56426,0.41369 -0.71484,0.71485 -0.10647,0.21296 0.16838,0.54455 0,0.71289 -0.16836,0.16834 -0.5465,-0.16834 -0.71484,0 -0.33672,0.33671 0.33671,1.09297 0,1.42968 -0.16835,0.16834 -0.54455,-0.16834 -0.71289,0 -0.33672,0.33671 0.33671,1.09102 0,1.42774 -0.16837,0.16834 -0.54647,-0.16834 -0.71485,0 -0.33672,0.33671 0.33672,1.09297 0,1.42969 -0.16836,0.16834 -0.5465,-0.16834 -0.71484,0 -0.33672,0.33671 0.33672,1.09101 0,1.42773 -0.16836,0.16834 -0.54651,-0.16834 -0.71485,0 -0.33671,0.33672 0.21298,1.00181 0,1.42773 -0.15058,0.30117 -0.56231,0.4137 -0.71289,0.71485 -0.21297,0.42591 0.33672,1.09293 0,1.42969 -0.16836,0.16818 -0.5465,-0.16857 -0.71484,0 -0.16834,0.16834 0,0.47478 0,0.71289 v 3.57226 c 0,0.23807 -0.16834,0.54628 0,0.71485 0.16836,0.16818 0.5465,-0.16857 0.71484,0 0.16834,0.16834 -0.16834,0.5447 0,0.71289 0.16836,0.16856 0.47478,0 0.71289,0 h 4.28711 5 c 0.2381,0 0.54455,0.16856 0.71289,0 0.16834,-0.16834 -0.16834,-0.54471 0,-0.71289 0.16836,-0.16857 0.54651,0.16818 0.71485,0 0.16834,-0.16838 -0.16834,-0.54666 0,-0.71485 0.16836,-0.16857 0.54646,0.16819 0.71484,0 0.16834,-0.16838 -0.16838,-0.54627 0,-0.71484 0.16836,-0.16819 0.47674,0 0.71485,0 0,-0.23811 -0.16834,-0.54628 0,-0.71485 0.16835,-0.16818 0.54455,0.16857 0.71289,0 0.33671,-0.33671 -0.33672,-1.09097 0,-1.42773 0.16836,-0.16857 0.54646,0.16819 0.71484,0 0.35713,-0.35717 -0.35713,-1.78541 0,-2.14258 0.16836,-0.16834 0.5465,0.16838 0.71484,0 0.33672,-0.3367 -0.33671,-1.09297 0,-1.42969 0.16836,-0.16837 0.54452,0.16834 0.71289,0 0.16834,-0.16836 -0.10646,-0.49995 0,-0.71289 0.15059,-0.30117 0.56427,-0.41369 0.71485,-0.71484 0.10647,-0.21296 -0.16838,-0.5465 0,-0.71484 0.16836,-0.16834 0.5465,0.16834 0.71484,0 0.33672,-0.33671 -0.33672,-1.09102 0,-1.42774 0.16836,-0.16838 0.54647,0.16834 0.71485,0 0.16834,-0.16836 -0.10647,-0.50187 0,-0.71484 0.15058,-0.30117 0.56231,-0.41369 0.71289,-0.71485 0.10647,-0.21296 -0.10647,-0.49995 0,-0.71289 0.30117,-0.60234 1.12853,-0.82734 1.42968,-1.42968 0.10647,-0.21295 -0.16837,-0.54452 0,-0.71289 0.33671,-0.33672 1.09102,0.33671 1.42774,0 0.16838,-0.16836 -0.16834,-0.54651 0,-0.71485 0.16836,-0.16834 0.47673,0 0.71484,0 0.9524,0 0.71485,0.23754 0.71485,-0.71484 1.47948,0 -0.0517,2.14258 1.42773,2.14258 -0.16836,0.16834 -0.5465,-0.16834 -0.71484,0 -0.35713,0.35715 0.35716,1.78545 0,2.14257 -0.16836,0.16834 -0.54455,-0.16834 -0.71289,0 -0.16834,0.16836 0.16834,0.54651 0,0.71485 -0.16836,0.16834 -0.54651,-0.16834 -0.71485,0 -0.33672,0.33671 0.33672,1.09297 0,1.42969 -0.16836,0.16834 -0.54646,-0.16834 -0.71484,0 -0.16834,0.16835 0.16838,0.54455 0,0.71289 -0.16836,0.16834 -0.54651,-0.16834 -0.71485,0 -0.33671,0.33671 0.33672,1.09297 0,1.42968 -0.16835,0.16834 -0.54455,-0.16834 -0.71289,0 -0.35716,0.35714 0.35713,1.78545 0,2.14258 -0.16836,0.16838 -0.54646,-0.16834 -0.71484,0 -0.0231,0.023 0,1.96948 0,2.14258 0,0.23807 -0.16834,0.54665 0,0.71484 0.16836,0.16857 0.54647,-0.16819 0.71484,0 0.16834,0.16838 0,0.47478 0,0.71289 v 0.71485 c 0,1.90477 -0.23949,-0.23756 0.71289,0.71484 0.16834,0.16834 0,0.47674 0,0.71485 v 3.57031 0.71484 c 0,0.23811 0.16834,0.54666 0,0.71485 -0.16835,0.16818 -0.54455,-0.16819 -0.71289,0 -0.16837,0.16837 0.10647,0.5001 0,0.71289 -0.15059,0.30115 -0.56426,0.41361 -0.71484,0.71484 -0.10647,0.21294 0.16838,0.54628 0,0.71484 -0.16836,0.16819 -0.5465,-0.16856 -0.71484,0 -0.14601,0.14601 0.14162,1.8595 0,2.14258 -0.093,0.18595 -1.27127,0.86935 -0.71289,1.42774 0.16835,0.16819 0.54455,-0.16857 0.71289,0 0.17189,0.17185 -0.17186,2.68545 0,2.85742 0.16836,0.16857 0.5465,-0.16819 0.71484,0 0.33672,0.33672 -0.33672,1.09293 0,1.42969 0.16836,0.16818 0.54647,-0.16857 0.71484,0 0.16834,0.16834 -0.16837,0.5447 0,0.71289 0.35714,0.35716 1.78545,-0.35717 2.14258,0 0.16834,0.16837 -0.16834,0.54665 0,0.71484 0.35715,0.35717 1.78545,-0.35717 2.14258,0 0.16834,0.16838 -0.16834,0.54665 0,0.71484 1.47786,1.47787 -0.0586,-2.25978 1.42773,0.71289 0.41878,0.83755 -0.42251,0.84893 -0.71289,1.42969 -0.10647,0.21298 0,0.47674 0,0.71485 0,0.33679 -0.0325,3.53629 0,3.57031 0.16836,0.16857 0.54455,-0.16819 0.71289,0 0.16834,0.16838 -0.10646,0.50205 0,0.71484 0.15059,0.30115 0.47674,0.47674 0.71485,0.71485 0.23809,0.23807 0.41369,0.56246 0.71484,0.71289 0.21296,0.10658 0.54651,-0.16857 0.71485,0 0.16834,0.16834 -0.16834,0.54627 0,0.71484 0.16835,0.16819 0.54455,-0.16857 0.71289,0 0.16837,0.16834 -0.16834,0.54665 0,0.71484 0.16836,0.16857 0.54646,-0.16819 0.71484,0 0.16834,0.16838 -0.16838,0.54471 0,0.71289 0.33672,0.33676 1.00182,-0.21278 1.42773,0 0.30118,0.15058 0.4137,0.56442 0.71485,0.71485 0.21738,0.10885 1.8209,0 2.14258,0 0.2381,0 0.5465,0.16857 0.71484,0 0.16838,-0.16834 -0.16834,-0.54628 0,-0.71485 0.22118,-0.2211 3.35109,0.22111 3.57227,0 0.16834,-0.16834 -0.16834,-0.54432 0,-0.71289 0.35713,-0.35716 1.78541,0.35717 2.14257,0 0.16834,-0.16834 -0.16834,-0.54665 0,-0.71484 0.35714,-0.35717 1.78545,0.35717 2.14258,0 0.16834,-0.16838 -0.16838,-0.54665 0,-0.71484 0.33672,-0.33676 1.00183,0.21278 1.42774,0 0.30117,-0.15058 0.41365,-0.56247 0.71484,-0.71289 0.42592,-0.21317 1.09102,0.33675 1.42773,0 0.16838,-0.16838 -0.16834,-0.54628 0,-0.71485 0.33673,-0.33675 1.09297,0.33676 1.42969,0 0.16834,-0.16834 -0.16834,-0.54627 0,-0.71484 0.33672,-0.33676 1.09102,0.33675 1.42774,0 0.16834,-0.16834 -0.16834,-0.54628 0,-0.71485 0.33672,-0.33675 1.09297,0.33676 1.42968,0 0.16834,-0.16834 -0.16834,-0.5447 0,-0.71289 0.33671,-0.33675 1.09102,0.33676 1.42774,0 0.16838,-0.16837 -0.16834,-0.54665 0,-0.71484 0.16836,-0.16857 0.5465,0.16819 0.71484,0 0.16834,-0.16838 -0.16834,-0.54665 0,-0.71484 0.16836,-0.16819 0.50187,0.10658 0.71485,0 0.30117,-0.15058 0.41173,-0.56247 0.71289,-0.71289 0.21295,-0.10659 0.50186,0.10658 0.71484,0 0.30117,-0.15058 0.41369,-0.56404 0.71484,-0.71485 0.21295,-0.10658 0.54452,0.16857 0.71289,0 0.16834,-0.16834 -0.16837,-0.54665 0,-0.71484 0.33672,-0.33676 1.00378,0.21279 1.42969,0 0.30117,-0.15062 0.41369,-0.56442 0.71485,-0.71485 0.21295,-0.10658 0.54455,0.16819 0.71289,0 0.16837,-0.16837 -0.16834,-0.5447 0,-0.71289 0.16836,-0.16819 0.50186,0.10659 0.71484,0 0.30117,-0.15057 0.41369,-0.56441 0.71484,-0.71484 0.21295,-0.10658 0.54455,0.16857 0.71289,0 1.47789,-1.47768 -2.25784,0.0586 0.71485,-1.42773 0.21296,-0.10659 0.5465,0.16818 0.71484,0 0.16834,-0.16838 -0.16834,-0.54666 0,-0.71485 0.16836,-0.16857 0.50191,0.10658 0.71485,0 0.60234,-0.30119 0.82539,-1.12846 1.42773,-1.42969 0.21296,-0.10658 0.5465,0.16857 0.71484,0 0.16834,-0.16834 -0.16834,-0.54432 0,-0.71289 0.16836,-0.16819 0.49992,0.10659 0.71289,0 0.30118,-0.15057 0.4137,-0.56441 0.71485,-0.71484 0.21296,-0.10658 0.5465,0.16819 0.71484,0 0.16834,-0.16838 -0.16834,-0.54665 0,-0.71484 0.16836,-0.16857 0.50187,0.10658 0.71485,0 0.30117,-0.15058 0.41173,-0.56247 0.71289,-0.71289 0.42591,-0.21317 1.09297,0.33675 1.42968,0 0.16834,-0.16838 -0.16834,-0.54628 0,-0.71485 0.33671,-0.33675 1.09102,0.33676 1.42774,0 0.16834,-0.16834 -0.16834,-0.54627 0,-0.71484 0.0287,-0.0302 2.59512,0 2.85742,0 0.37352,0 2.66962,-0.0937 2.85742,0 0.30117,0.15057 0.41369,0.56442 0.71485,0.71484 0.21296,0.10658 0.54455,-0.16819 0.71289,0 0.16834,0.16838 -0.16834,0.54628 0,0.71485 0.16836,0.16818 0.63955,-0.22602 0.71484,0 0.22586,0.67763 0,1.42832 0,2.14257 0,0.23811 0.16834,0.54471 0,0.71289 -0.16836,0.16857 -0.5465,-0.16818 -0.71484,0 -0.33672,0.33672 0.33671,1.09294 0,1.42969 -0.16836,0.16819 -0.54452,-0.16857 -0.71289,0 -0.16834,0.16834 0.16837,0.54628 0,0.71485 -0.16836,0.16818 -0.54651,-0.16857 -0.71485,0 -0.16834,0.16834 0.16834,0.5447 0,0.71289 -0.16836,0.16856 -0.5465,-0.16819 -0.71484,0 -0.16838,0.16837 0.16834,0.54665 0,0.71484 -0.16836,0.16857 -0.54647,-0.16819 -0.71485,0 -0.16834,0.16838 0.10647,0.50206 0,0.71484 -0.15058,0.30116 -0.47481,0.47478 -0.71289,0.71289 -0.2381,0.23811 -0.41365,0.56404 -0.71484,0.71485 -0.21296,0.10658 -0.54647,-0.16857 -0.71484,0 -0.16834,0.16834 0.16837,0.54665 0,0.71484 -0.16835,0.16857 -0.54455,-0.16819 -0.71289,0 -0.16838,0.16838 0.16834,0.54666 0,0.71485 -0.16837,0.16818 -0.54647,-0.16819 -0.71485,0 -0.16834,0.16837 0.16838,0.5447 0,0.71289 -0.16836,0.16819 -0.5465,-0.16819 -0.71484,0 -0.16834,0.16834 0,0.47673 0,0.71484 -0.2381,0 -0.54651,-0.16857 -0.71485,0 -0.16837,0.16834 0.16834,0.54628 0,0.71484 -0.16836,0.16819 -0.54455,-0.16856 -0.71289,0 -0.16834,0.16834 0.16834,0.54471 0,0.71289 -0.16836,0.16857 -0.5465,-0.16818 -0.71484,0 -0.16834,0.16838 0.16834,0.54666 0,0.71485 -0.16836,0.16857 -0.47673,0 -0.71484,0 0,0.23811 0.16834,0.54665 0,0.71484 -0.16836,0.16857 -0.54455,-0.16819 -0.71289,0 -0.16834,0.16838 0.16834,0.54628 0,0.71485 -0.16836,0.16818 -0.54651,-0.16857 -0.71485,0 -0.16834,0.16834 0.10647,0.49972 0,0.71289 -0.30117,0.60234 -1.12853,0.82738 -1.42969,1.42968 -0.10646,0.21298 0,0.47478 0,0.71289 -0.23809,0 -0.54455,-0.16818 -0.71289,0 -0.16834,0.16838 0.16834,0.54666 0,0.71485 -0.16836,0.16857 -0.5465,-0.16819 -0.71484,0 -0.16834,0.16838 0.16834,0.54627 0,0.71484 -0.16836,0.16819 -0.5465,-0.16857 -0.71484,0 -0.16834,0.16834 0.16834,0.54628 0,0.71485 -0.16836,0.16818 -0.54452,-0.16857 -0.71289,0 -0.95237,0.95236 1.18992,0.71289 -0.71485,0.71289 -0.70287,0.35145 -2.15454,2.50592 -2.85742,2.85742 -0.21296,0.10658 -0.50187,-0.10658 -0.71484,0 -0.30116,0.15057 -0.41174,0.56442 -0.71289,0.71484 -0.21297,0.10658 -0.54651,-0.16819 -0.71485,0 -0.16838,0.16838 0.16834,0.54666 0,0.71485 -0.16836,0.16818 -0.5465,-0.16819 -0.71484,0 -0.16834,0.16837 0.16834,0.5447 0,0.71289 -0.16836,0.16819 -0.54651,-0.16819 -0.71485,0 -0.16837,0.16834 0.16834,0.54627 0,0.71484 -0.16836,0.16819 -0.54455,-0.16857 -0.71289,0 -0.16834,0.16834 0.16834,0.54628 0,0.71484 C 329.76244,421.66721 330,419.523 330,421.42773 c -0.16836,0.16857 -0.5465,-0.16818 -0.71484,0 -0.33672,0.33672 0.33671,1.09294 0,1.42969 -0.16836,0.16857 -0.54455,-0.16857 -0.71289,0 -0.33672,0.33672 0.33671,1.09098 0,1.42774 -0.16836,0.16819 -0.54651,-0.16857 -0.71485,0 -0.16834,0.16834 0,0.47673 0,0.71484 0,0.23807 -0.10647,0.50206 0,0.71484 0.15059,0.30119 0.56427,0.41167 0.71485,0.71289 0.24669,0.49338 -0.25074,3.32169 0,3.57227 0.16835,0.16857 0.54455,-0.16819 0.71289,0 0.33671,0.33672 -0.33672,1.09098 0,1.42773 0.16836,0.16819 0.5465,-0.16856 0.71484,0 0.16834,0.16834 -0.16834,0.54628 0,0.71485 0.16836,0.16819 0.50187,-0.10658 0.71484,0 0.30118,0.15057 0.4117,0.56442 0.71289,0.71484 0.21296,0.10658 0.54651,-0.16819 0.71485,0 0.16834,0.16838 -0.10647,0.50206 0,0.71485 1.48636,2.97267 -0.0482,-0.76498 1.42969,0.71289 0.16834,0.16834 -0.16838,0.54627 0,0.71484 0.16835,0.16819 0.54455,-0.16857 0.71289,0 0.16837,0.16834 -0.16834,0.54628 0,0.71484 0.16836,0.16819 0.54646,-0.16856 0.71484,0 0.16834,0.16834 -0.16838,0.54471 0,0.71289 0.16836,0.16857 0.5465,-0.16818 0.71484,0 0.16834,0.16838 -0.16834,0.54666 0,0.71485 0.16835,0.16857 0.54455,-0.16819 0.71289,0 0.16838,0.16838 -0.16834,0.54627 0,0.71484 0.16837,0.16857 0.54647,-0.16857 0.71485,0 0.16834,0.16838 0,0.47674 0,0.71485 0.23809,0.23807 0.47677,0.47478 0.71484,0.71289 0.56127,0.56126 3.34282,3.11728 3.57031,3.57226 0.10647,0.21294 -0.16834,0.54628 0,0.71485 0.16836,0.16818 0.54651,-0.16857 0.71485,0 0.16834,0.16834 -0.16834,0.5447 0,0.71289 0.16836,0.16856 0.5465,-0.16819 0.71484,0 0.33672,0.33671 -0.33672,1.09293 0,1.42968 0.16836,0.16819 0.54651,-0.16819 0.71485,0 0.33671,0.33672 -0.33672,1.09098 0,1.42774 0.16835,0.16819 0.54455,-0.16857 0.71289,0 0.33671,0.33668 -0.33672,1.09293 0,1.42969 0.16836,0.16818 0.5465,-0.16819 0.71484,0 0.33672,0.33671 -0.21298,1.00182 0,1.42773 0.093,0.18595 1.27321,0.86938 0.71484,1.42773 -0.16836,0.16857 -0.5465,-0.16818 -0.71484,0 -0.16834,0.16838 0,0.47674 0,0.71485 0,0.49682 -0.12915,3.31412 0,3.57226 0.15059,0.30119 0.56427,0.41167 0.71484,0.71289 0.10647,0.21298 -0.16834,0.54628 0,0.71485 0.16836,0.16857 0.54452,-0.16857 0.71289,0 0.16834,0.16838 -0.16837,0.54627 0,0.71484 0.16836,0.16819 0.50187,-0.10658 0.71485,0 0.30117,0.15058 0.41369,0.56404 0.71484,0.71485 0.21296,0.10658 0.54647,-0.16857 0.71485,0 0.16834,0.16834 -0.10647,0.5001 0,0.71289 0.78966,1.57935 0.44248,0.22222 1.42773,0.71484 2.97269,1.48641 -0.76305,-0.0501 0.71484,1.42773 1.47786,1.47788 -0.0586,-2.25786 1.42774,0.71485 0.10647,0.21294 -0.16838,0.54665 0,0.71484 0.16836,0.16857 0.50187,-0.10658 0.71484,0 0.30117,0.15062 0.41369,0.56442 0.71485,0.71485 0.21296,0.10658 0.54455,-0.16819 0.71289,0 0.16834,0.16837 -0.16834,0.5447 0,0.71289 0.16836,0.16819 0.5465,-0.16819 0.71484,0 0.16834,0.16834 -0.16834,0.54627 0,0.71484 0.33672,0.33676 1.00182,-0.21279 1.42773,0 0.30118,0.15058 0.4137,0.56404 0.71485,0.71484 0.42592,0.21279 1.09297,-0.33675 1.42969,0 0.16834,0.16834 -0.16834,0.54471 0,0.71289 0.16835,0.16857 0.47478,0 0.71289,0 H 360 h 3.57227 c 0.23808,0 0.54455,-0.16818 0.71289,0 0.16834,0.16838 -0.16834,0.54666 0,0.71485 0.16836,0.16857 0.5465,-0.16819 0.71484,0 0.16838,0.16838 0,0.47673 0,0.71484 0,0.23811 0.16838,0.54628 0,0.71485 -0.16836,0.16818 -0.5465,-0.16857 -0.71484,0 -0.16834,0.16834 0.16834,0.54432 0,0.71289 -0.16835,0.16819 -0.54455,-0.16857 -0.71289,0 -0.16838,0.16834 0.16834,0.54627 0,0.71484 -0.33673,0.33676 -1.09297,-0.33676 -1.42969,0 -0.16834,0.16834 0.16834,0.54665 0,0.71484 -0.9524,0.95241 -0.71485,-1.19187 -0.71485,0.71289 -0.33672,0.33676 -1.09101,-0.33675 -1.42773,0 -0.16834,0.16838 0.16834,0.54628 0,0.71485 -0.16836,0.16857 -0.5465,-0.16857 -0.71484,0 -0.16834,0.16838 0.16834,0.54627 0,0.71484 -0.16836,0.16819 -0.54455,-0.16857 -0.71289,0 -0.16834,0.16834 0,0.47674 0,0.71485 -0.2381,0 -0.54651,-0.16857 -0.71485,0 -0.16834,0.16834 0.16834,0.5447 0,0.71289 -1.47785,1.4779 0.0567,-2.25783 -1.42969,0.71484 -0.10646,0.21298 0.16834,0.54665 0,0.71484 -1.47785,1.47787 0.0586,-2.25978 -1.42773,0.71289 -0.21298,0.42592 0.33672,1.09294 0,1.42969 -0.16836,0.16857 -0.5465,-0.16819 -0.71484,0 -0.16834,0.16838 0,0.47674 0,0.71485 0,0.23811 -0.16834,0.5447 0,0.71289 0.16836,0.16819 0.5465,-0.16819 0.71484,0 0.12843,0.12844 0.10567,0.40894 0.0566,0.71484 h 176.37109 v -5 -0.71484 c 0,-0.23808 0.16857,-0.54471 0,-0.71289 -0.16834,-0.16857 -0.54432,0.16818 -0.71289,0 -0.25058,-0.25074 0.24681,-3.07889 0,-3.57227 -0.15057,-0.30119 -0.56404,-0.41362 -0.71484,-0.71484 -0.21279,-0.42592 0.21279,-1.00182 0,-1.42774 -0.15058,-0.30115 -0.56442,-0.41361 -0.71484,-0.71484 -0.14174,-0.2832 0.14589,-1.99669 0,-2.14258 -0.16838,-0.16857 -0.54471,0.16819 -0.71289,0 -0.16857,-0.16838 0.10658,-0.50206 0,-0.71484 -0.15058,-0.30119 -0.56442,-0.41167 -0.71485,-0.71289 -0.51177,-1.0235 -0.13484,-0.82619 0.11524,-0.62891 -0.12745,-0.11342 -0.31921,-0.28992 -0.83008,-0.80078 -0.10658,-0.21298 0.16857,-0.54666 0,-0.71485 -0.16834,-0.16856 -0.54666,0.16819 -0.71485,0 -0.16818,-0.16837 0.16819,-0.5447 0,-0.71289 -0.33671,-0.33675 -1.09097,0.33676 -1.42773,0 -0.16819,-0.16834 0.16819,-0.54627 0,-0.71484 -0.0288,-0.0302 -2.59512,0 -2.85742,0 -0.23811,0 -0.50206,0.10658 -0.71485,0 -0.5808,-0.29038 -0.59015,-1.13362 -1.42773,-0.71484 -0.30115,0.15061 -0.41362,0.56441 -0.71484,0.71484 -0.21294,0.10658 -0.47478,0 -0.71289,0 -0.23811,0 -0.54666,0.16857 -0.71485,0 -0.16819,-0.16834 0.16819,-0.54628 0,-0.71484 -0.16838,-0.16819 -0.47673,0 -0.71484,0 -0.3368,0 -3.5363,0.034 -3.57031,0 -0.16857,-0.16834 0.16818,-0.54471 0,-0.71289 -0.1719,-0.17197 -2.68546,0.17196 -2.85743,0 -0.16819,-0.16838 0.16819,-0.54666 0,-0.71485 -0.33671,-0.33675 -1.09293,0.33676 -1.42968,0 -0.16819,-0.16838 0.16819,-0.54627 0,-0.71484 -0.16834,-0.16857 -0.54433,0.16857 -0.71289,0 -0.16819,-0.16838 0.16856,-0.54628 0,-0.71485 -0.16834,-0.16818 -0.54666,0.16857 -0.71485,0 -0.35716,-0.35712 0.35717,-1.78541 0,-2.14257 -0.16834,-0.16857 -0.54665,0.16819 -0.71484,0 -0.16819,-0.16838 0,-0.47478 0,-0.71289 0,-0.23811 -0.16819,-0.54628 0,-0.71485 0.16834,-0.16857 0.54665,0.16857 0.71484,0 0.16819,-0.16838 0,-0.47673 0,-0.71484 0,-0.3368 -0.034,-3.5363 0,-3.57031 0.16838,-0.16819 0.54666,0.16818 0.71485,0 0.25058,-0.25074 -0.24681,-3.07889 0,-3.57227 0.15057,-0.30115 0.56246,-0.41362 0.71289,-0.71484 0.0487,-0.0976 0.0487,-4.18765 0,-4.28516 -0.15058,-0.30119 -0.56247,-0.41362 -0.71289,-0.71484 -0.22526,-0.45064 0.22526,-3.11972 0,-3.57032 -0.15058,-0.30119 -0.56404,-0.41361 -0.71485,-0.71484 -0.28573,-0.57143 0.28573,-1.57115 0,-2.14258 -0.15057,-0.30115 -0.56442,-0.41361 -0.71484,-0.71484 -0.21279,-0.42592 0.33675,-1.09098 0,-1.42774 -0.16838,-0.16819 -0.54666,0.16819 -0.71485,0 -0.16818,-0.16834 0.10659,-0.50205 0,-0.71484 -0.15057,-0.30115 -0.56246,-0.41362 -0.71289,-0.71484 -0.10658,-0.21294 0.16819,-0.54471 0,-0.71289 -0.16834,-0.16857 -0.54627,0.16818 -0.71484,0 -0.16819,-0.16838 0.16857,-0.54666 0,-0.71485 -0.33672,-0.33675 -1.09098,0.33676 -1.42773,0 -0.16857,-0.16838 0.16818,-0.54627 0,-0.71484 -0.33672,-0.33676 -1.09294,0.33675 -1.42969,0 -0.16857,-0.16834 0.16819,-0.54628 0,-0.71485 -0.0288,-0.0302 -2.59512,0 -2.85742,0 -0.37353,0 -2.66958,-0.0937 -2.85743,0 -0.30115,0.15058 -0.41166,0.56442 -0.71289,0.71485 -0.21297,0.10658 -0.54665,-0.16819 -0.71484,0 -0.16819,0.16838 0.16819,0.54627 0,0.71484 -0.16838,0.16819 -0.54665,-0.16857 -0.71484,0 -0.16819,0.16834 0.16819,0.54628 0,0.71485 -0.16834,0.16818 -0.54433,-0.16857 -0.71289,0 -0.35717,0.35712 0.35716,1.78541 0,2.14257 -0.16834,0.16819 -0.54666,-0.16819 -0.71485,0 -0.14589,0.14604 0.14173,1.8595 0,2.14258 -0.88244,1.76534 -0.71484,-0.24739 -0.71484,1.42774 V 435 c 0,0.23811 0.10658,0.50168 0,0.71484 -0.15062,0.30116 -0.56442,0.41167 -0.71485,0.71289 -0.21316,0.42596 0.21279,1.00378 0,1.42969 -0.15057,0.30115 -0.56246,0.41362 -0.71289,0.71485 -0.21278,0.42591 0.21279,1.00178 0,1.42773 -0.15057,0.30115 -0.56404,0.41362 -0.71484,0.71484 -0.10658,0.21298 0.16857,0.54471 0,0.71289 -0.16834,0.16857 -0.54665,-0.16818 -0.71484,0 -0.16819,0.16838 0.10658,0.50168 0,0.71485 -0.0683,0.13674 -2.72061,2.78901 -2.85743,2.85742 -0.21293,0.10658 -0.54432,-0.16819 -0.71289,0 -0.16819,0.16838 0.16857,0.54665 0,0.71484 -0.33671,0.33676 -1.09293,-0.33675 -1.42968,0 -0.16819,0.16834 0.16819,0.54433 0,0.71289 -0.16838,0.16819 -0.47478,0 -0.71289,0 h -4.28711 c -0.23811,0 -0.50011,0.10659 -0.71289,0 -0.30116,-0.15057 -0.41362,-0.56246 -0.71485,-0.71289 -0.42591,-0.21278 -1.00377,0.21279 -1.42969,0 -0.30119,-0.15057 -0.41166,-0.56441 -0.71289,-0.71484 -0.2832,-0.14173 -1.99668,0.14589 -2.14257,0 -0.16857,-0.16834 0.16818,-0.54628 0,-0.71484 -0.023,-0.0227 -1.97143,0 -2.14454,0 -0.26229,0 -2.82523,0.0302 -2.85546,0 -0.16857,-0.16834 0.16818,-0.54471 0,-0.71289 -0.22118,-0.22111 -3.35117,0.2211 -3.57227,0 -0.16857,-0.16838 0.16819,-0.54666 0,-0.71485 -0.16838,-0.16857 -0.54665,0.16819 -0.71484,0 -0.16819,-0.16838 0.16819,-0.54627 0,-0.71484 -0.16834,-0.16857 -0.50011,0.10658 -0.71289,0 -0.30116,-0.15058 -0.47674,-0.47674 -0.71485,-0.71485 -0.23807,-0.23807 -0.56442,-0.41166 -0.71484,-0.71289 -0.10658,-0.21293 0.16819,-0.54665 0,-0.71484 -0.16838,-0.16857 -0.54666,0.16819 -0.71485,0 -0.16856,-0.16838 0.16819,-0.54665 0,-0.71484 -0.16837,-0.16857 -0.5447,0.16819 -0.71289,0 -0.16819,-0.16838 0.10659,-0.50011 0,-0.71289 -0.15057,-0.30119 -0.56404,-0.41362 -0.71484,-0.71485 -0.10658,-0.21297 0.16857,-0.54627 0,-0.71484 -0.16834,-0.16819 -0.54628,0.16857 -0.71484,0 -0.33676,-0.33672 0.33675,-1.09098 0,-1.42774 -0.16834,-0.16856 -0.54471,0.16819 -0.71289,0 -0.16857,-0.16837 0.10658,-0.50205 0,-0.71484 -0.15062,-0.30119 -0.56442,-0.41362 -0.71485,-0.71484 -0.0941,-0.18781 0,-2.48401 0,-2.85743 0,-0.32167 -0.10885,-1.92525 0,-2.14257 0.15058,-0.30116 0.56404,-0.41167 0.71485,-0.71289 0.21278,-0.42596 -0.33676,-1.09294 0,-1.42969 0.16834,-0.16819 0.5447,0.16857 0.71289,0 0.33675,-0.33672 -0.33676,-1.09098 0,-1.42774 0.16837,-0.16819 0.54665,0.16857 0.71484,0 0.16857,-0.16834 -0.16819,-0.54665 0,-0.71484 0.16838,-0.16857 0.54665,0.16819 0.71484,0 0.16819,-0.16838 -0.16819,-0.54665 0,-0.71484 0.16834,-0.16857 0.54433,0.16819 0.71289,0 0.16819,-0.16838 -0.16856,-0.54471 0,-0.71289 0.16834,-0.16857 0.54628,0.16818 0.71485,0 0.16819,-0.16838 -0.16857,-0.54628 0,-0.71485 0.16834,-0.16857 0.54665,0.16857 0.71484,0 0.16857,-0.16838 -0.16819,-0.54627 0,-0.71484 0.16838,-0.16819 0.54666,0.16857 0.71485,0 0.16818,-0.16834 -0.16819,-0.54628 0,-0.71485 0.16837,-0.16818 0.5447,0.16857 0.71289,0 0.16819,-0.16834 -0.16819,-0.5447 0,-0.71289 0.16834,-0.16856 0.54627,0.16819 0.71484,0 0.16819,-0.16837 -0.16857,-0.54665 0,-0.71484 0.16834,-0.16857 0.54628,0.16819 0.71484,0 0.16819,-0.16838 -0.16856,-0.54665 0,-0.71484 0.16834,-0.16819 0.54471,0.16819 0.71289,0 0.16857,-0.16834 -0.16818,-0.54471 0,-0.71289 0.16838,-0.16819 0.54666,0.16818 0.71485,0 0.33675,-0.33672 -0.33676,-1.09294 0,-1.42969 0.16838,-0.16857 0.54627,0.16819 0.71484,0 0.16857,-0.16838 -0.16857,-0.54666 0,-0.71485 0.16838,-0.16856 0.50168,0.10659 0.71485,0 2.97267,-1.48641 -0.76502,0.0501 0.71289,-1.42773 0.16834,-0.16819 0.54627,0.16857 0.71484,0 0.16819,-0.16834 -0.16857,-0.54628 0,-0.71484 0.16834,-0.16819 0.54665,0.16856 0.71484,0 0.16857,-0.16834 -0.16819,-0.54471 0,-0.71289 0.16838,-0.16857 0.54471,0.16818 0.71289,0 0.16857,-0.16838 -0.10658,-0.50206 0,-0.71485 0.15058,-0.30119 0.56442,-0.41361 0.71485,-0.71484 0.10658,-0.21298 -0.16857,-0.54628 0,-0.71485 0.16838,-0.16818 0.54627,0.16857 0.71484,0 0.16819,-0.16834 -0.10658,-0.49972 0,-0.71289 0.30115,-0.6023 1.12651,-0.82734 1.42774,-1.42968 0.10658,-0.21298 -0.16819,-0.54471 0,-0.71289 0.16837,-0.16857 0.54665,0.16818 0.71484,0 0.16857,-0.16838 -0.10658,-0.50206 0,-0.71485 0.15061,-0.30115 0.56442,-0.41361 0.71484,-0.71484 0.10659,-0.21294 -0.10658,-0.50206 0,-0.71485 0.30119,-0.6023 1.12651,-0.82539 1.42774,-1.42773 0.10658,-0.21298 -0.16857,-0.54665 0,-0.71484 0.16834,-0.16819 0.54665,0.16819 0.71484,0 0.33676,-0.33672 -0.21279,-1.00182 0,-1.42774 0.15062,-0.30115 0.56442,-0.41361 0.71485,-0.71484 0.0941,-0.18784 0,-2.48401 0,-2.85742 0,-0.3735 0.0941,-2.66958 0,-2.85743 -0.15058,-0.30115 -0.56404,-0.41166 -0.71485,-0.71289 -0.21279,-0.42591 0.33676,-1.09293 0,-1.42968 -0.16834,-0.16857 -0.54665,0.16819 -0.71484,0 -0.33676,-0.33672 0.33675,-1.09098 0,-1.42774 -0.16838,-0.16819 -0.54666,0.16857 -0.71485,0 -0.16856,-0.16834 0.16819,-0.54627 0,-0.71484 -0.33671,-0.33676 -1.09097,0.33675 -1.42773,0 -0.16819,-0.16834 0.16857,-0.54628 0,-0.71485 -0.33672,-0.33675 -1.09098,0.33676 -1.42773,0 -0.16857,-0.16834 0.16818,-0.5447 0,-0.71289 -0.22118,-0.2211 -3.35117,0.22111 -3.57227,0 -0.16857,-0.16837 0.16819,-0.54665 0,-0.71484 -0.16838,-0.16857 -0.47673,0 -0.71484,0 -0.49682,0 -3.31217,-0.12926 -3.57032,0 -0.30119,0.15058 -0.41361,0.56404 -0.71484,0.71484 -0.49338,0.24681 -3.32168,-0.25058 -3.57227,0 -0.16856,0.16834 0.16819,0.54471 0,0.71289 -0.33671,0.33676 -1.00182,-0.21278 -1.42773,0 -0.30115,0.15062 -0.41362,0.56442 -0.71484,0.71485 -0.21294,0.10658 -0.50011,-0.10658 -0.71289,0 -0.30119,0.15057 -0.41362,0.56442 -0.71485,0.71484 -0.21297,0.10658 -0.50205,-0.10658 -0.71484,0 -0.30115,0.15058 -0.47674,0.47674 -0.71485,0.71485 -0.23807,0 -0.49972,-0.10659 -0.71289,0 -0.30115,0.15057 -0.41361,0.56246 -0.71484,0.71289 -0.42595,0.21278 -1.00182,-0.21317 -1.42773,0 -0.30119,0.15057 -0.41362,0.56404 -0.71485,0.71484 -0.21297,0.10658 -0.54627,-0.16857 -0.71484,0 -0.16819,0.16834 0.16857,0.54665 0,0.71484 -0.33672,0.33676 -1.09098,-0.33675 -1.42774,0 -0.16856,0.16838 0.16819,0.54471 0,0.71289 -0.16837,0.16857 -0.50205,-0.10658 -0.71484,0 -0.30119,0.15058 -0.41362,0.56442 -0.71484,0.71485 -0.49338,0.2468 -3.31973,-0.25058 -3.57032,0 -0.16819,0.16838 0.16819,0.54627 0,0.71484 -0.0288,0.0302 -2.59512,0 -2.85742,0 -0.23811,0 -0.54627,0.16819 -0.71484,0 -0.16857,-0.16838 0.16857,-0.54627 0,-0.71484 -0.33672,-0.33676 -1.09098,0.33675 -1.42774,0 -0.16819,-0.16834 0.16857,-0.54628 0,-0.71485 -0.16834,-0.16818 -0.50205,0.10659 -0.71484,0 -0.30119,-0.15057 -0.41362,-0.56208 -0.71484,-0.71289 -0.21298,-0.10658 -0.54471,0.16857 -0.71289,0 -0.16857,-0.16834 0.16818,-0.54665 0,-0.71484 -0.16838,-0.16857 -0.54628,0.16819 -0.71485,0 -0.16857,-0.16838 0,-0.47673 0,-0.71484 v -0.71289 c 0,-0.49682 -0.12926,-3.31413 0,-3.57227 0.15058,-0.30119 0.56442,-0.41362 0.71485,-0.71484 0.10658,-0.21294 -0.10659,-0.50011 0,-0.71289 0.15057,-0.30116 0.56246,-0.41362 0.71289,-0.71485 0.10658,-0.21294 -0.10659,-0.50205 0,-0.71484 0.15057,-0.30119 0.56404,-0.41362 0.71484,-0.71485 0.10658,-0.21297 -0.16857,-0.5447 0,-0.71289 0.16834,-0.16819 0.54665,0.16819 0.71484,0 0.16857,-0.16834 -0.10658,-0.50205 0,-0.71484 0.15062,-0.30115 0.56247,-0.41362 0.71289,-0.71484 0.10659,-0.21294 -0.16818,-0.54471 0,-0.71289 0.16838,-0.16857 0.54628,0.16818 0.71485,0 0.16857,-0.16838 -0.10658,-0.50206 0,-0.71485 0.30115,-0.60234 1.12846,-0.82734 1.42969,-1.42969 0.10658,-0.21293 -0.16857,-0.54432 0,-0.71289 0.16834,-0.16819 0.5447,0.16857 0.71289,0 0.16856,-0.16834 -0.16819,-0.54665 0,-0.71484 0.16837,-0.16857 0.54665,0.16819 0.71484,0 0.16857,-0.16838 -0.16819,-0.54665 0,-0.71484 0.16838,-0.16857 0.54665,0.16819 0.71484,0 1.47787,-1.47787 -2.25978,0.0586 0.71289,-1.42774 0.21294,-0.10647 0.54628,0.16838 0.71485,0 0.16819,-0.16836 -0.16857,-0.5465 0,-0.71484 0.33672,-0.33672 1.09293,0.33672 1.42969,0 0.16818,-0.16836 -0.16819,-0.54651 0,-0.71485 0.33671,-0.33671 1.09097,0.33672 1.42773,0 0.16819,-0.16836 -0.16857,-0.54455 0,-0.71289 0.16834,-0.16834 0.50168,0.10647 0.71484,0 0.30116,-0.15059 0.41167,-0.56426 0.71289,-0.71484 0.42596,-0.21298 1.09294,0.33672 1.42969,0 0.16857,-0.16836 -0.16857,-0.5465 0,-0.71484 0.16838,-0.16834 0.54628,0.16834 0.71485,0 0.16818,-0.16836 -0.16857,-0.54455 0,-0.71289 0.16834,-0.16834 0.49972,0.10646 0.71289,0 0.85712,-0.42858 1.28545,-1.71597 2.14257,-2.14454 0.21298,-0.10646 0.54628,0.16834 0.71485,0 0.33675,-0.33672 -0.33676,-1.09101 0,-1.42773 0.16838,-0.16834 0.54627,0.16834 0.71484,0 0.16819,-0.16836 -0.16857,-0.5465 0,-0.71484 0.16834,-0.16834 0.54628,0.16834 0.71485,0 0.16818,-0.16836 -0.10659,-0.49992 0,-0.71289 0.15057,-0.30117 0.56246,-0.4137 0.71289,-0.71485 0.10658,-0.21296 -0.10659,-0.50187 0,-0.71484 0.15061,-0.30117 0.56441,-0.41369 0.71484,-0.71485 0.21279,-0.42591 -0.33676,-1.09101 0,-1.42773 0.16838,-0.16834 0.54665,0.16838 0.71484,0 0.16819,-0.16836 0,-0.47673 0,-0.71484 v -3.57032 c 0,-0.2381 -0.16819,-0.5465 0,-0.71484 0.16834,-0.16834 0.54433,0.16834 0.71289,0 0.19541,-0.19544 -0.19389,-2.46993 0,-2.85742 0.15058,-0.30117 0.56404,-0.41369 0.71485,-0.71485 0.10885,-0.21738 0,-1.8209 0,-2.14257 0,-0.17323 0.0227,-2.11953 0,-2.14258 -0.16838,-0.16838 -0.54666,0.16834 -0.71485,0 -0.33675,-0.33672 0.21279,-1.00183 0,-1.42774 -0.15057,-0.30117 -0.56246,-0.41365 -0.71289,-0.71484 -0.14173,-0.28321 0.14589,-1.99654 0,-2.14258 -0.16834,-0.16834 -0.54627,0.16838 -0.71484,0 -0.33676,-0.3367 0.33676,-1.09297 0,-1.42969 -0.16834,-0.16837 -0.54628,0.16834 -0.71484,0 -0.35717,-0.35714 0.35716,-1.78541 0,-2.14257 -0.16834,-0.16834 -0.54471,0.16834 -0.71289,0 -0.16857,-0.16836 0.10658,-0.49992 0,-0.71289 -0.15062,-0.30118 -0.56442,-0.4137 -0.71485,-0.71485 -0.21279,-0.42591 0.33676,-1.09297 0,-1.42969 -0.16838,-0.16834 -0.54627,0.16834 -0.71484,0 -0.16857,-0.16835 0.16857,-0.54455 0,-0.71289 -0.16838,-0.16834 -0.54628,0.16834 -0.71485,0 -0.16818,-0.16836 0.16857,-0.5465 0,-0.71484 -0.16834,-0.16834 -0.54432,0.16834 -0.71289,0 -0.33675,-0.33672 0.33676,-1.09102 0,-1.42773 -0.16834,-0.16834 -0.54665,0.16837 -0.71484,0 -0.35717,-0.35714 0.35717,-1.78741 0,-2.14454 -0.16838,-0.16834 -0.54665,0.16838 -0.71484,0 -0.034,-0.0324 0,-3.23351 0,-3.57031 0,-0.37351 0.0937,-2.66962 0,-2.85742 -0.15062,-0.30117 -0.56247,-0.41369 -0.71289,-0.71484 -0.10659,-0.21295 0,-0.47478 0,-0.71289 v -0.71485 -5 c 0,-0.32168 0.10885,-1.92522 0,-2.14258 -0.15058,-0.30117 -0.56442,-0.41369 -0.71485,-0.71484 -0.21279,-0.42592 0.21279,-1.00182 0,-1.42773 -0.15057,-0.30118 -0.56442,-0.4137 -0.71484,-0.71485 -0.14173,-0.28321 0.14589,-1.99657 0,-2.14258 -0.16834,-0.16834 -0.54628,0.16834 -0.71485,0 -0.33675,-0.33671 0.21279,-1.00377 0,-1.42968 -0.15057,-0.30118 -0.56246,-0.41174 -0.71289,-0.71289 -0.10658,-0.21297 0.10659,-0.50187 0,-0.71485 -0.15061,-0.30117 -0.56441,-0.41365 -0.71484,-0.71484 -0.38022,-0.7604 0.38018,-0.66735 0,-1.42774 -0.15058,-0.30117 -0.56442,-0.41369 -0.71484,-0.71484 -0.21279,-0.42592 0.21278,-1.00181 0,-1.42773 -0.15058,-0.30117 -0.56247,-0.4137 -0.71289,-0.71485 -0.14174,-0.28321 0.14589,-1.99657 0,-2.14258 -0.16834,-0.16834 -0.54628,0.16834 -0.71485,0 -0.33675,-0.33672 0.33676,-1.09297 0,-1.42968 -0.16834,-0.16834 -0.54665,0.16837 -0.71484,0 -0.16857,-0.16835 0.10658,-0.49992 0,-0.71289 -0.74563,-1.49128 -0.68211,0.0616 -1.42774,-1.42969 -0.10658,-0.21296 0.16819,-0.54651 0,-0.71485 -0.16834,-0.16834 -0.54627,0.16834 -0.71484,0 -0.16819,-0.16835 0.16857,-0.54455 0,-0.71289 -0.16834,-0.16834 -0.54628,0.16834 -0.71484,0 -0.16819,-0.16836 0.16856,-0.5465 0,-0.71484 -0.16834,-0.16834 -0.54471,0.16834 -0.71289,0 -0.16857,-0.16836 0.16818,-0.5465 0,-0.71484 -0.16838,-0.16834 -0.50206,0.10647 -0.71485,0 -0.30119,-0.15058 -0.41361,-0.56232 -0.71484,-0.71289 -0.21298,-0.10647 -0.54628,0.16834 -0.71485,0 -0.16818,-0.16836 0.16857,-0.54651 0,-0.71485 -0.146,-0.146 -1.85949,0.14162 -2.14257,0 -0.30119,-0.15058 -0.41167,-0.56427 -0.71289,-0.71484 -0.42592,-0.21294 -1.00378,0.21297 -1.42969,0 -0.30115,-0.15059 -0.41362,-0.56427 -0.71485,-0.71485 -0.0373,-0.0185 -2.10478,-0.0185 -2.14257,0 -1.76535,0.88267 0.24739,0.71485 -1.42774,0.71485 h -3.57226 -0.71289 c -0.23811,0 -0.50206,-0.10647 -0.71485,0 -0.30119,0.15058 -0.41361,0.56427 -0.71484,0.71484 -0.38748,0.19374 -2.66202,-0.19544 -2.85742,0 -0.16857,0.16836 0.16819,0.54651 0,0.71485 -0.33672,0.33671 -1.09098,-0.33672 -1.42774,0 -0.16857,0.16835 0.16857,0.54455 0,0.71289 -0.47762,0.47762 -0.95207,-0.47762 -1.42969,0 -0.16818,0.16836 0.16857,0.5465 0,0.71484 -0.16834,0.16834 -0.5001,-0.10647 -0.71289,0 -0.30119,0.15058 -0.41361,0.56427 -0.71484,0.71484 -0.42591,0.21294 -1.00182,-0.21293 -1.42773,0 -0.30116,0.15058 -0.47674,0.47478 -0.71485,0.71289 -0.23807,0.2381 -0.41361,0.56427 -0.71484,0.71485 -0.21298,0.10647 -0.50206,-0.10647 -0.71485,0 -0.30119,0.15058 -0.41166,0.56427 -0.71289,0.71484 -0.21293,0.10647 -0.50205,-0.10647 -0.71484,0 -0.30115,0.15059 -0.41362,0.56427 -0.71484,0.71485 -0.21294,0.10646 -0.50011,-0.10647 -0.71289,0 -0.30119,0.15058 -0.41362,0.56231 -0.71485,0.71289 -0.21297,0.10647 -0.54627,-0.16834 -0.71484,0 -0.16819,0.16836 0.16857,0.54646 0,0.71484 -0.16834,0.16834 -0.50206,-0.10647 -0.71485,0 -0.60234,0.30117 -0.82542,1.12658 -1.42773,1.42773 -0.21298,0.10647 -0.54665,-0.16834 -0.71484,0 -0.33676,0.33673 0.33675,1.09297 0,1.42969 -0.16838,0.16838 -0.54471,-0.16834 -0.71289,0 -0.16857,0.16836 0,0.47674 0,0.71485 -0.23811,0 -0.54628,-0.16834 -0.71485,0 -0.16819,0.16836 0.16857,0.54455 0,0.71289 -0.16834,0.16834 -0.54627,-0.16834 -0.71484,0 -0.33676,0.33672 0.33675,1.09297 0,1.42968 -0.16834,0.16834 -0.54628,-0.16837 -0.71485,0 -0.33675,0.33671 0.33676,1.09102 0,1.42774 -0.16834,0.16838 -0.5447,-0.16834 -0.71289,0 -0.16856,0.16836 0.10659,0.50187 0,0.71484 -0.15061,0.30117 -0.56441,0.41369 -0.71484,0.71485 -0.21279,0.42591 0.33676,1.09101 0,1.42773 -0.16838,0.16834 -0.54665,-0.16834 -0.71484,0 -0.33676,0.33672 0.33675,1.09102 0,1.42773 -0.16834,0.16834 -0.54471,-0.16834 -0.71289,0 -0.35717,0.35714 0.35716,1.78741 0,2.14454 -0.16834,0.16834 -0.54628,-0.16834 -0.71485,0 -0.14589,0.14601 0.14173,1.85937 0,2.14257 -0.15057,0.30116 -0.56442,0.41174 -0.71484,0.71289 -0.22451,0.44896 0.2245,2.40849 0,2.85743 -0.15062,0.30117 -0.56442,0.41369 -0.71485,0.71484 -0.10885,0.21738 0,1.8209 0,2.14258 0,1.67511 0.16975,-0.3356 -0.71289,1.42969 -0.2245,0.44894 0.22451,2.40652 0,2.85546 -0.15057,0.30117 -0.56404,0.4137 -0.71484,0.71485 -0.10658,0.21296 0.10658,0.50187 0,0.71484 -0.15058,0.30117 -0.56404,0.41369 -0.71484,0.71485 -0.10659,0.21295 0.10658,0.49995 0,0.71289 -0.30116,0.60234 -1.12651,0.82734 -1.42774,1.42968 -0.10658,0.21295 0.16819,0.54455 0,0.71289 -0.33672,0.33672 -1.09293,-0.33671 -1.42969,0 -0.16818,0.16837 0.16857,0.54647 0,0.71485 -0.16834,0.16834 -0.54432,-0.16838 -0.71289,0 -0.16819,0.16836 0.16857,0.5465 0,0.71484 -0.16834,0.16834 -0.54665,-0.16834 -0.71484,0 -0.16857,0.16836 0,0.47674 0,0.71485 -0.23811,0 -0.54665,-0.16834 -0.71484,0 -0.16857,0.16836 0.16819,0.54455 0,0.71289 -0.33672,0.33671 -1.09098,-0.33672 -1.42774,0 -0.9524,0.9524 1.18993,0.71484 -0.71484,0.71484 -0.30115,0.15058 -0.41362,0.56427 -0.71485,0.71484 -0.21293,0.10647 -0.5001,-0.10647 -0.71289,0 -0.30119,0.15058 -0.41361,0.56232 -0.71484,0.71289 -0.21298,0.10647 -0.50168,-0.10646 -0.71484,0 -0.30116,0.1506 -0.41167,0.56427 -0.71289,0.71485 -0.42592,0.21297 -1.00378,-0.21294 -1.42969,0 -0.30119,0.15058 -0.41362,0.56427 -0.71485,0.71484 -0.57142,0.28573 -1.57115,-0.28569 -2.14257,0 -0.30116,0.15059 -0.41167,0.56427 -0.71289,0.71485 -0.18785,0.0939 -2.48401,0 -2.85743,0 -0.37349,0 -2.66961,0.0939 -2.85742,0 -0.30117,-0.1506 -0.41369,-0.56427 -0.71484,-0.71485 -0.42592,-0.21297 -1.00183,0.21294 -1.42774,0 -0.30117,-0.15058 -0.41369,-0.56427 -0.71484,-0.71484 -0.42592,-0.21294 -1.09102,0.33672 -1.42773,0 -0.16834,-0.16836 0.16834,-0.54651 0,-0.71485 -0.33673,-0.33671 -1.09297,0.33672 -1.42969,0 -0.16834,-0.16835 0.16834,-0.54455 0,-0.71289 -0.33672,-0.33671 -1.09102,0.33672 -1.42774,0 -0.16834,-0.16836 0.16834,-0.5465 0,-0.71484 -0.16836,-0.16834 -0.5465,0.16834 -0.71484,0 -0.16834,-0.16836 0.16834,-0.5465 0,-0.71484 -0.16836,-0.16834 -0.50187,0.10647 -0.71484,0 -0.18965,-0.0948 -2.04779,-1.95293 -2.14258,-2.14258 -0.10647,-0.21296 0.16838,-0.54647 0,-0.71485 -0.16836,-0.16834 -0.50187,0.10647 -0.71485,0 -2.97267,-1.48635 0.76499,0.0502 -0.71289,-1.42773 -0.16836,-0.16838 -0.54646,0.16834 -0.71484,0 -0.16834,-0.16836 0.10647,-0.50187 0,-0.71484 -0.15058,-0.30117 -0.56427,-0.41174 -0.71484,-0.71289 -0.10647,-0.21297 0.10647,-0.50187 0,-0.71485 -0.15058,-0.30117 -0.56232,-0.41369 -0.71289,-0.71484 -0.21298,-0.42592 0.33671,-1.09102 0,-1.42774 -0.16837,-0.16834 -0.54647,0.16834 -0.71485,0 -0.33672,-0.33671 0.33672,-1.09297 0,-1.42968 -0.16836,-0.16834 -0.5465,0.16834 -0.71484,0 -0.16834,-0.16836 0.10647,-0.49992 0,-0.71289 -0.15059,-0.30117 -0.56427,-0.4137 -0.71485,-0.71485 -0.10646,-0.21296 0.10647,-0.50187 0,-0.71484 -0.15058,-0.30117 -0.56231,-0.41369 -0.71289,-0.71485 -0.14162,-0.28321 0.14601,-1.99653 0,-2.14257 -0.16836,-0.16834 -0.5465,0.16834 -0.71484,0 -0.17189,-0.17189 0.17189,-2.68553 0,-2.85743 -0.16836,-0.16834 -0.5465,0.16838 -0.71484,0 -0.19544,-0.19543 0.19373,-2.46798 0,-2.85546 -0.15058,-0.30118 -0.56232,-0.4137 -0.71289,-0.71485 -0.0939,-0.18781 0,-2.48393 0,-2.85742 0,-0.32168 -0.1087,-1.92522 0,-2.14258 0.15058,-0.30117 0.56231,-0.41365 0.71289,-0.71484 0.28573,-0.57143 -0.2857,-1.57115 0,-2.14258 0.15058,-0.30117 0.56426,-0.41369 0.71484,-0.71484 0.3802,-0.76039 -0.3802,-0.66734 0,-1.42774 0.15059,-0.30117 0.56427,-0.41369 0.71484,-0.71484 0.21294,-0.42592 -0.33671,-1.09102 0,-1.42774 0.16836,-0.16834 0.54452,0.16834 0.71289,0 0.33672,-0.33672 -0.33671,-1.09297 0,-1.42968 0.16836,-0.16834 0.54651,0.16837 0.71485,0 0.33672,-0.33671 -0.21298,-1.00182 0,-1.42774 0.15058,-0.30117 0.56427,-0.41369 0.71484,-0.71484 0.10647,-0.21296 -0.10647,-0.50191 0,-0.71485 0.15059,-0.30117 0.56427,-0.41173 0.71485,-0.71289 0.21293,-0.42591 -0.33672,-1.09297 0,-1.42968 0.16835,-0.16834 0.54455,0.16834 0.71289,0 0.33671,-0.33671 -0.33672,-1.09102 0,-1.42774 0.16836,-0.16834 0.5465,0.16834 0.71484,0 0.33672,-0.33671 -0.33672,-1.09297 0,-1.42969 0.16836,-0.16834 0.54647,0.16834 0.71484,0 0.33672,-0.33671 -0.21297,-1.00181 0,-1.42773 0.15058,-0.30117 0.56232,-0.41369 0.71289,-0.71484 0.21298,-0.42591 -0.33671,-1.09102 0,-1.42774 0.16837,-0.16834 0.54651,0.16838 0.71485,0 0.33672,-0.33671 -0.33672,-1.09297 0,-1.42969 0.16836,-0.16837 0.5465,0.16834 0.71484,0 0.35717,-0.35714 -0.35713,-1.78541 0,-2.14257 0.16836,-0.16834 0.54651,0.16837 0.71485,0 0.33671,-0.33671 -0.33672,-1.09102 0,-1.42774 0.16836,-0.16838 0.54455,0.16834 0.71289,0 0.33671,-0.33671 -0.33672,-1.09297 0,-1.42969 0.16836,-0.16834 0.5465,0.16834 0.71484,0 0.35713,-0.35713 -0.35713,-1.78541 0,-2.14257 0.16836,-0.16834 0.5465,0.16834 0.71484,0 0.33672,-0.33671 -0.21297,-1.00182 0,-1.42774 0.15058,-0.30117 0.56232,-0.41365 0.71289,-0.71484 0.21298,-0.42592 -0.21297,-1.00183 0,-1.42774 0.1506,-0.30117 0.56427,-0.41369 0.71485,-0.71484 0.28569,-0.57143 -0.28573,-1.57115 0,-2.14258 0.15058,-0.30117 0.56427,-0.41369 0.71484,-0.71484 0.2253,-0.45062 -0.2253,-3.1197 0,-3.57031 0.15059,-0.30118 0.56427,-0.4137 0.71485,-0.71485 0.0733,-0.14652 0.10072,-2.04185 0,-2.14258 -0.16836,-0.16834 -0.54651,0.16834 -0.71485,0 -0.35713,-0.35715 0.35717,-1.78545 0,-2.14257 -0.16836,-0.16834 -0.5465,0.16837 -0.71484,0 -0.35717,-0.35714 0.35713,-1.78741 0,-2.14454 -0.16836,-0.16834 -0.54651,0.16838 -0.71485,0 -0.16834,-0.16835 0.10647,-0.49995 0,-0.71289 -0.15058,-0.30117 -0.56231,-0.41369 -0.71289,-0.71484 -0.10647,-0.21296 0.16834,-0.5465 0,-0.71484 -0.16836,-0.16834 -0.5465,0.16834 -0.71484,0 -0.33672,-0.33671 0.33672,-1.09102 0,-1.42774 -0.16836,-0.16834 -0.5465,0.16838 -0.71484,0 -0.16834,-0.16836 0.10647,-0.50187 0,-0.71484 -0.15058,-0.30117 -0.56232,-0.41369 -0.71289,-0.71485 -0.10647,-0.21296 0.16837,-0.54455 0,-0.71289 -0.16836,-0.16834 -0.54651,0.16834 -0.71485,0 -0.33672,-0.33671 0.33672,-1.09297 0,-1.42968 -0.16836,-0.16834 -0.54646,0.16834 -0.71484,0 -0.16834,-0.16836 0.10647,-0.49992 0,-0.71289 -0.0948,-0.18965 -1.95292,-2.04975 -2.14258,-2.14454 -0.21296,-0.10646 -0.5465,0.16834 -0.71484,0 -0.16834,-0.16835 0.16834,-0.54455 0,-0.71289 -0.16835,-0.16834 -0.54455,0.16834 -0.71289,0 -0.16838,-0.16836 0.16834,-0.5465 0,-0.71484 -0.33673,-0.33672 -1.09297,0.33672 -1.42969,0 -0.16834,-0.16836 0.16834,-0.5465 0,-0.71484 -0.33672,-0.33672 -1.00183,0.21297 -1.42774,0 -0.30117,-0.15058 -0.41369,-0.56232 -0.71484,-0.71289 -0.42592,-0.21294 -1.09102,0.33671 -1.42773,0 -0.16834,-0.16836 0.16834,-0.54651 0,-0.71485 -0.023,-0.023 -1.97128,0 -2.14454,0 h -3.57031 c -0.23809,0 -0.5465,-0.16834 -0.71484,0 -0.16838,0.16836 0.16834,0.54651 0,0.71485 -0.14604,0.146 -1.85938,-0.14162 -2.14258,0 -0.30117,0.15058 -0.41369,0.56231 -0.71484,0.71289 -0.42591,0.21297 -1.00182,-0.21294 -1.42774,0 -0.30117,0.15059 -0.41369,0.56426 -0.71484,0.71484 -0.42592,0.21298 -1.09102,-0.33672 -1.42774,0 -0.16834,0.16836 0.16834,0.5465 0,0.71484 -0.16836,0.16834 -0.50186,-0.10647 -0.71484,0 -0.30117,0.15058 -0.47673,0.47478 -0.71484,0.71289 -0.2381,0.2381 -0.56232,0.4137 -0.71289,0.71485 -0.21298,0.42591 0.33671,1.09297 0,1.42969 -0.16836,0.16834 -0.54651,-0.16834 -0.71485,0 -0.146,0.14601 0.14162,1.85937 0,2.14257 -0.15058,0.30116 -0.56427,0.41174 -0.71484,0.71289 -0.0923,0.18468 0,3.78082 0,4.28711 v 0.71289 c 0,0.23811 0.16834,0.54651 0,0.71485 -0.16836,0.16838 -0.54651,-0.16834 -0.71485,0 -0.19543,0.19544 0.19374,2.46993 0,2.85742 -0.15058,0.30117 -0.56231,0.41369 -0.71289,0.71484 -0.14162,0.2832 0.14601,1.99658 0,2.14258 -0.16836,0.16834 -0.5465,-0.16838 -0.71484,0 -0.33672,0.33672 0.33672,1.09102 0,1.42774 -0.16836,0.16834 -0.5465,-0.16834 -0.71484,0 -0.16834,0.16836 0.10647,0.50186 0,0.71484 -0.15058,0.30117 -0.56232,0.41369 -0.71289,0.71484 -0.10647,0.21295 0.16837,0.54452 0,0.71289 -0.16836,0.16834 -0.54651,-0.16837 -0.71485,0 -0.16834,0.16836 0.10647,0.50187 0,0.71485 -0.15058,0.30117 -0.56427,0.41369 -0.71484,0.71484 -0.10647,0.21296 0.16834,0.54647 0,0.71485 -0.16836,0.16834 -0.54647,-0.16838 -0.71485,0 -0.16834,0.16835 0.16838,0.54455 0,0.71289 -0.16835,0.16834 -0.54455,-0.16834 -0.71289,0 -0.16834,0.16836 0.10647,0.5019 0,0.71484 -0.30117,0.60234 -1.12853,0.82539 -1.42968,1.42773 -0.10647,0.21297 0.16837,0.54651 0,0.71485 -0.16835,0.16838 -0.49996,-0.10647 -0.71289,0 -0.30118,0.15058 -0.4137,0.56427 -0.71485,0.71484 -0.21296,0.10647 -0.50187,-0.10647 -0.71484,0 -0.60234,0.30117 -0.8254,1.12658 -1.42774,1.42774 -0.18782,0.0939 -2.48389,0 -2.85742,0 -0.17323,0 -2.11952,0.023 -2.14258,0 -0.16834,-0.16836 0.16834,-0.54455 0,-0.71289 -0.16836,-0.16834 -0.5465,0.16834 -0.71484,0 -0.9524,-0.9524 1.18992,-0.71485 -0.71484,-0.71485 -0.16834,-0.16836 0.10647,-0.50187 0,-0.71484 -0.15058,-0.30117 -0.47478,-0.47674 -0.71289,-0.71485 0,-0.23808 0.10646,-0.49995 0,-0.71289 -0.15059,-0.30117 -0.56427,-0.41369 -0.71485,-0.71484 -0.10647,-0.21296 0.10647,-0.50187 0,-0.71484 -0.15058,-0.30117 -0.56427,-0.41174 -0.71484,-0.71289 -0.28573,-0.57143 0.28569,-1.57311 0,-2.14454 -0.15059,-0.30117 -0.56427,-0.41173 -0.71485,-0.71289 -0.21293,-0.42591 0.33672,-1.09297 0,-1.42968 -0.16835,-0.16834 -0.54455,0.16834 -0.71289,0 -0.16834,-0.16836 0.16834,-0.54455 0,-0.71289 -0.16836,-0.16834 -0.5465,0.16834 -0.71484,0 -0.33672,-0.33673 0.33672,-1.09297 0,-1.42969 -0.16836,-0.16834 -0.54647,0.16834 -0.71484,0 -0.33672,-0.33672 0.33671,-1.09102 0,-1.42774 -0.16835,-0.16834 -0.54455,0.16834 -0.71289,0 -0.16834,-0.16836 0.16834,-0.5465 0,-0.71484 -0.16836,-0.16834 -0.54651,0.16834 -0.71485,0 -0.16838,-0.16836 0.10647,-0.50187 0,-0.71484 -0.30117,-0.60234 -1.12853,-0.8254 -1.42969,-1.42774 -0.10646,-0.21296 0.16834,-0.54646 0,-0.71484 -0.16835,-0.16834 -0.54455,0.16838 -0.71289,0 -0.16834,-0.16836 0.16834,-0.54647 0,-0.71485 -0.16836,-0.16834 -0.5465,0.16838 -0.71484,0 -0.33672,-0.33671 0.33672,-1.09101 0,-1.42773 -0.16836,-0.16834 -0.50187,0.10647 -0.71484,0 -0.18966,-0.0948 -2.04779,-1.95292 -2.14258,-2.14258 -0.10647,-0.21296 0.16838,-0.5465 0,-0.71484 -0.16836,-0.16834 -0.54651,0.16834 -0.71485,0 -0.16834,-0.16836 0.16834,-0.54651 0,-0.71485 -0.16835,-0.16837 -0.54455,0.16834 -0.71289,0 -0.16837,-0.16836 0.10647,-0.49995 0,-0.71289 C 310.56425,260.41367 310.15058,260.30115 310,260 c -0.10647,-0.21296 0.16838,-0.5465 0,-0.71484 -0.16836,-0.16834 -0.47673,0 -0.71484,0 0,-0.2381 0.16834,-0.54455 0,-0.71289 -0.16836,-0.16834 -0.54452,0.16834 -0.71289,0 -0.16834,-0.16836 0.16837,-0.54651 0,-0.71485 -0.16836,-0.16834 -0.54647,0.16834 -0.71485,0 -0.16834,-0.16836 0.16838,-0.5465 0,-0.71484 -0.33671,-0.33672 -1.09297,0.33672 -1.42969,0 -0.16834,-0.16836 0.16838,-0.54651 0,-0.71485 -0.35713,-0.35712 -1.78541,0.35713 -2.14257,0 -0.16834,-0.16835 0.16837,-0.54455 0,-0.71289 -0.16835,-0.16834 -0.47482,0 -0.71289,0 h -5 -5.71485 -0.71484 c -0.2381,0 -0.54651,-0.16834 -0.71485,0 -0.16837,0.16836 0.16834,0.54455 0,0.71289 -0.16836,0.16834 -0.47478,0 -0.71289,0 h -4.28711 c -0.23809,0 -0.54455,-0.16834 -0.71289,0 -0.16834,0.16836 0.16834,0.54651 0,0.71485 -0.33671,0.33672 -1.09297,-0.33672 -1.42968,0 -0.16834,0.16836 0.16834,0.5465 0,0.71484 -0.33671,0.33672 -1.09102,-0.33672 -1.42774,0 -0.16834,0.16836 0.16834,0.54651 0,0.71485 -0.16836,0.16834 -0.54646,-0.16834 -0.71484,0 -0.95236,0.95239 1.18992,0.71289 -0.71485,0.71289 -0.16834,0.16836 0.16834,0.5465 0,0.71484 -0.95238,0.9524 -0.71289,-1.18992 -0.71289,0.71484 -0.16836,0.16834 -0.54646,-0.16834 -0.71484,0 -0.16834,0.16836 0.16838,0.54452 0,0.71289 -0.16836,0.16834 -0.5465,-0.16837 -0.71484,0 -0.35713,0.35714 0.35716,1.78741 0,2.14454 -0.16835,0.16834 -0.54455,-0.16838 -0.71289,0 -0.16838,0.16835 0.16834,0.54455 0,0.71289 -0.16837,0.16834 -0.54647,-0.16834 -0.71485,0 -0.35713,0.35715 0.35717,1.78545 0,2.14257 -0.16836,0.16838 -0.5465,-0.16834 -0.71484,0 -0.16834,0.16837 0,0.47674 0,0.71485 v 3.57226 c 0,0.49682 0.12914,3.31202 0,3.57032 -0.15059,0.30116 -0.56427,0.41365 -0.71485,0.71484 -0.10869,0.21738 0,1.8209 0,2.14258 v 5.71484 c 0,0.17324 -0.0231,2.11952 0,2.14258 0.16836,0.16834 0.54651,-0.16834 0.71485,0 0.16834,0.16836 0,0.47673 0,0.71484 V 290 c 0,0.2381 0.10647,0.50187 0,0.71484 -0.15059,0.30116 -0.56427,0.41174 -0.71485,0.71289 -0.21297,0.42592 0.21298,1.00377 0,1.42969 -0.15058,0.30117 -0.56231,0.41366 -0.71289,0.71485 -0.3802,0.76038 0.38019,0.66733 0,1.42773 -0.15059,0.30117 -0.56426,0.41369 -0.71484,0.71484 -0.19374,0.38749 0.19544,2.66199 0,2.85743 -0.16836,0.16834 -0.5465,-0.16834 -0.71484,0 -0.14601,0.14602 0.14162,1.85937 0,2.14257 -0.15058,0.30116 -0.56232,0.4117 -0.71289,0.71289 -0.10647,0.21296 0.16834,0.54651 0,0.71485 -0.16836,0.16834 -0.54651,-0.16834 -0.71485,0 -0.33672,0.33671 0.33672,1.09297 0,1.42969 -0.16836,0.16834 -0.5465,-0.16834 -0.71484,0 -0.16834,0.16835 0.16834,0.54455 0,0.71289 -0.16836,0.16837 -0.54651,-0.16834 -0.71485,0 -0.16834,0.16836 0.16834,0.54646 0,0.71484 -0.16835,0.16834 -0.54455,-0.16838 -0.71289,0 -0.16834,0.16836 0.16834,0.5465 0,0.71484 -0.16836,0.16834 -0.5465,-0.16834 -0.71484,0 -0.16834,0.16835 0.16834,0.54455 0,0.71289 -0.16836,0.16838 -0.5465,-0.16834 -0.71484,0 -0.16834,0.16837 0,0.47674 0,0.71485 -0.2381,0 -0.54452,-0.16838 -0.71289,0 -0.16834,0.16836 0.16837,0.5465 0,0.71484 -0.16836,0.16838 -0.50187,-0.10647 -0.71485,0 -0.30117,0.15059 -0.41365,0.56427 -0.71484,0.71485 -0.21296,0.10646 -0.54647,-0.16834 -0.71485,0 -0.16834,0.16836 0.16838,0.54455 0,0.71289 -0.33671,0.33671 -1.09101,-0.33672 -1.42773,0 -0.16834,0.16836 0.16838,0.5465 0,0.71484 -0.33672,0.33672 -1.00182,-0.21294 -1.42773,0 -0.30118,0.15058 -0.4137,0.56427 -0.71485,0.71484 -0.42591,0.21294 -1.09297,-0.33671 -1.42969,0 -0.16837,0.16835 0.16834,0.54455 0,0.71289 -0.16836,0.16834 -0.54455,-0.16834 -0.71289,0 -0.16834,0.16836 0.16834,0.54651 0,0.71485 -0.16836,0.16838 -0.47673,0 -0.71484,0 h -0.71484 c -1.67511,0 0.33755,-0.1678 -1.42774,0.71484 -0.42591,0.21298 -1.09297,-0.33672 -1.42969,0 -0.16834,0.16836 0.16834,0.54651 0,0.71485 -0.33672,0.33671 -1.00181,-0.21298 -1.42773,0 -0.30117,0.15058 -0.41369,0.56231 -0.71484,0.71289 -0.38749,0.19373 -2.66199,-0.19544 -2.85743,0 -0.16834,0.16836 0.16838,0.5465 0,0.71484 -0.16835,0.16834 -0.47481,0 -0.71289,0 -0.26232,0 -2.82869,0.0287 -2.85742,0 -0.16834,-0.16836 0.16838,-0.5465 0,-0.71484 -0.19544,-0.19544 -2.46993,0.19373 -2.85742,0 -0.30117,-0.15058 -0.41369,-0.56232 -0.71484,-0.71289 -0.42591,-0.21298 -1.09102,0.33671 -1.42774,0 -0.16834,-0.16836 0.16834,-0.54651 0,-0.71485 -0.33671,-0.33672 -1.09297,0.33672 -1.42969,0 -0.16834,-0.16836 0.16834,-0.54646 0,-0.71484 -0.16835,-0.16834 -0.49995,0.10647 -0.71289,0 -0.30116,-0.15059 -0.41369,-0.56427 -0.71484,-0.71485 -0.21296,-0.10646 -0.5465,0.16834 -0.71484,0 -0.16834,-0.16835 0.16834,-0.54455 0,-0.71289 -0.33671,-0.33671 -1.09102,0.33672 -1.42774,0 -0.16834,-0.16836 0.16834,-0.54646 0,-0.71484 -0.16836,-0.16834 -0.5465,0.16838 -0.71484,0 -0.16838,-0.16836 0.16834,-0.5465 0,-0.71484 -0.16836,-0.16834 -0.54647,0.16834 -0.71485,0 -0.16834,-0.16836 0.16838,-0.54452 0,-0.71289 -0.16835,-0.16834 -0.54455,0.16837 -0.71289,0 -0.16834,-0.16836 0.16834,-0.54647 0,-0.71485 -0.16836,-0.16834 -0.5465,0.16838 -0.71484,0 -0.16838,-0.16836 0.16834,-0.5465 0,-0.71484 -0.16836,-0.16838 -0.54647,0.16834 -0.71484,0 -0.16834,-0.16836 0.16837,-0.54647 0,-0.71485 -0.16835,-0.16834 -0.54455,0.16838 -0.71289,0 -0.33672,-0.33671 0.33671,-1.09101 0,-1.42773 -0.16837,-0.16838 -0.54651,0.16834 -0.71485,0 -0.17189,-0.17188 0.17189,-2.68553 0,-2.85742 -0.16836,-0.16834 -0.5465,0.16834 -0.71484,0 -0.14604,-0.14603 0.14158,-1.85938 0,-2.14258 -0.15059,-0.30117 -0.56427,-0.41369 -0.71485,-0.71484 -0.12914,-0.25832 0,-3.07351 0,-3.57032 0,-0.2381 0.16834,-0.54646 0,-0.71484 -0.16836,-0.16834 -0.54455,0.16838 -0.71289,0 -0.16834,-0.16836 0,-0.47673 0,-0.71484 v -0.71289 -7.14454 -3.57031 -0.71484 c 0,-0.2381 0.10647,-0.50187 0,-0.71485 -0.15058,-0.30116 -0.56426,-0.41173 -0.71484,-0.71289 -0.24669,-0.49339 0.25073,-3.32153 0,-3.57226 -0.16836,-0.16834 -0.5465,0.16834 -0.71484,0 -0.35713,-0.35715 0.35716,-1.78545 0,-2.14258 -0.16836,-0.16834 -0.54455,0.16834 -0.71289,0 -0.16834,-0.16836 0.10646,-0.50191 0,-0.71484 -0.1506,-0.30118 -0.56427,-0.41174 -0.71485,-0.71289 -0.10647,-0.21297 0.16834,-0.54651 0,-0.71485 -0.16836,-0.16838 -0.50187,0.10647 -0.71484,0 -0.60234,-0.30117 -0.8254,-1.12853 -1.42774,-1.42969 -0.21295,-0.10646 -0.5465,0.16834 -0.71484,0 -0.16834,-0.16835 0.16834,-0.54455 0,-0.71289 -0.16836,-0.16834 -0.5465,0.16834 -0.71484,0 -0.16834,-0.16836 0.16834,-0.5465 0,-0.71484 -0.16836,-0.16834 -0.54452,0.16834 -0.71289,0 -0.16834,-0.16836 0.16837,-0.5465 0,-0.71484 -0.16836,-0.16834 -0.54651,0.16834 -0.71485,0 -0.16834,-0.16836 0.16834,-0.54452 0,-0.71289 -0.33671,-0.33672 -1.09297,0.33671 -1.42969,0 -0.16834,-0.16836 0.16838,-0.54651 0,-0.71485 -0.35713,-0.35713 -1.78541,0.35717 -2.14257,0 -0.16834,-0.16836 0.16837,-0.54646 0,-0.71484 -0.33671,-0.33672 -1.00182,0.21297 -1.42774,0 -0.30117,-0.15059 -0.41369,-0.56427 -0.71484,-0.71485 -0.42592,-0.21297 -1.00183,0.21298 -1.42774,0 -0.30116,-0.15058 -0.41369,-0.56231 -0.71484,-0.71289 -0.44894,-0.22446 -2.40848,0.22447 -2.85742,0 -0.30117,-0.15059 -0.41369,-0.56426 -0.71485,-0.71484 -0.2583,-0.12915 -3.07349,0 -3.57031,0 -0.23809,0 -0.5465,-0.16834 -0.71484,0 -0.16838,0.16836 0.16834,0.54647 0,0.71484 -0.35715,0.35713 -1.78545,-0.35716 -2.14258,0 -0.16838,0.16835 0.16834,0.54455 0,0.71289 -0.16836,0.16838 -0.54647,-0.16834 -0.71484,0 -0.16834,0.16837 0.16837,0.54651 0,0.71485 -0.16835,0.16838 -0.54455,-0.16834 -0.71289,0 -0.19544,0.19544 0.19373,2.46993 0,2.85742 -0.1506,0.30117 -0.56427,0.41369 -0.71485,0.71484 -0.12914,0.25832 0,3.0735 0,3.57032 0,0.2381 0.16834,0.5465 0,0.71484 -0.16836,0.16834 -0.5465,-0.16834 -0.71484,0 -0.17189,0.17188 0.17189,2.68553 0,2.85742 -0.16836,0.16838 -0.54651,-0.16834 -0.71485,0 -0.33671,0.33672 0.21298,1.00183 0,1.42774 -0.15058,0.30117 -0.56231,0.41369 -0.71289,0.71484 -0.21297,0.42592 0.33672,1.09102 0,1.42773 -0.16836,0.16834 -0.5465,-0.16834 -0.71484,0 -0.16834,0.16836 0.16834,0.54651 0,0.71485 -0.16836,0.16838 -0.5465,-0.16834 -0.71484,0 -0.16834,0.16836 0.16834,0.5465 0,0.71484 -0.16836,0.16834 -0.54455,-0.16834 -0.71289,0 -0.16834,0.16836 0.16834,0.54651 0,0.71485 -0.0714,0.0714 -2.07314,0.0714 -2.14454,0 -0.33671,-0.33672 0.33672,-1.09297 0,-1.42969 -0.16835,-0.16834 -0.54455,0.16838 -0.71289,0 -0.19544,-0.19545 0.19374,-2.46992 0,-2.85742 -0.15059,-0.30117 -0.56426,-0.41174 -0.71484,-0.71289 -0.0939,-0.18782 0,-2.48393 0,-2.85743 0,-0.37352 -0.0939,-2.66961 0,-2.85742 0.15058,-0.30117 0.56427,-0.41369 0.71484,-0.71484 0.21294,-0.42592 -0.33671,-1.09102 0,-1.42774 0.16835,-0.16834 0.54455,0.16834 0.71289,0 0.14605,-0.14603 -0.14158,-1.85937 0,-2.14257 0.1506,-0.30117 0.56427,-0.4137 0.71485,-0.71485 0.2253,-0.45062 -0.2253,-3.12163 0,-3.57226 0.15058,-0.30117 0.56427,-0.41174 0.71484,-0.71289 0.0939,-0.18782 0,-2.4839 0,-2.85743 v -7.14257 -4.28711 c 0,-0.23809 -0.16838,-0.54455 0,-0.71289 0.16836,-0.16838 0.54651,0.16834 0.71485,0 0.16834,-0.16837 0,-0.47674 0,-0.71485 v -3.57226 c 0,-0.2381 0.16834,-0.54455 0,-0.71289 -0.16836,-0.16834 -0.54651,0.16834 -0.71485,0 -0.16838,-0.16836 0,-0.47674 0,-0.71485 v -4.28515 c 0,-0.2381 0.16834,-0.54651 0,-0.71485 -0.16836,-0.16834 -0.54646,0.16834 -0.71484,0 -0.35717,-0.35714 0.35713,-1.78545 0,-2.14258 -0.16836,-0.16834 -0.54651,0.16834 -0.71485,0 -0.33671,-0.33672 0.33672,-1.09297 0,-1.42968 -0.16835,-0.16834 -0.54455,0.16837 -0.71289,0 -0.16837,-0.16835 0.10647,-0.49992 0,-0.71289 -0.15059,-0.30118 -0.56426,-0.4137 -0.71484,-0.71485 -0.10647,-0.21296 0.16838,-0.5465 0,-0.71484 -0.16836,-0.16834 -0.5465,0.16834 -0.71484,0 -0.33672,-0.33672 0.33671,-1.09102 0,-1.42774 -0.16835,-0.16834 -0.54455,0.16834 -0.71289,0 -0.16838,-0.16836 0.10646,-0.50186 0,-0.71484 -0.1506,-0.30117 -0.56427,-0.41369 -0.71485,-0.71484 -0.10647,-0.21295 0.16838,-0.54455 0,-0.71289 -0.16836,-0.16834 -0.5465,0.16834 -0.71484,0 -0.16838,-0.16836 0.16834,-0.54651 0,-0.71485 -0.16836,-0.16838 -0.50187,0.10647 -0.71485,0 -0.30117,-0.15058 -0.41173,-0.56427 -0.71289,-0.71484 -0.42591,-0.21298 -1.09297,0.33672 -1.42968,0 -0.16834,-0.16836 0.16837,-0.54651 0,-0.71485 -0.0324,-0.0325 -3.23352,0 -3.57032,0 -0.32169,0 -1.92521,0.1087 -2.14257,0 -0.18597,-0.093 -0.87132,-1.27127 -1.42969,-0.71289 -0.16834,0.16836 0.16838,0.54455 0,0.71289 -0.22118,0.22118 -3.34914,-0.22117 -3.57031,0 -0.16838,0.16836 0.16834,0.54651 0,0.71485 -0.35715,0.35713 -1.78741,-0.35717 -2.14454,0 -0.16837,0.16836 0.16834,0.54646 0,0.71484 -0.33672,0.33672 -1.00181,-0.21297 -1.42773,0 -0.30117,0.15059 -0.41369,0.56427 -0.71484,0.71485 -0.21295,0.10646 -0.54455,-0.16834 -0.71289,0 -0.16834,0.16835 0.16834,0.54455 0,0.71289 -0.35714,0.35716 -1.78741,-0.35713 -2.14454,0 -0.16837,0.16836 0.16834,0.5465 0,0.71484 -0.16835,0.16834 -0.54455,-0.16834 -0.71289,0 -0.16834,0.16836 0.16834,0.5465 0,0.71484 -0.16836,0.16834 -0.5465,-0.16834 -0.71484,0 -0.16834,0.16836 0.16834,0.54452 0,0.71289 -0.16836,0.16834 -0.5465,-0.16837 -0.71484,0 -0.16834,0.16836 0.16834,0.54651 0,0.71485 -0.16836,0.16834 -0.54452,-0.16834 -0.71289,0 -0.9524,0.95239 1.18991,0.71484 -0.71485,0.71484 -0.60234,0.30117 -0.82735,1.12658 -1.42969,1.42774 -0.21295,0.10647 -0.49995,-0.10647 -0.71289,0 -0.30117,0.15059 -0.41369,0.56426 -0.71484,0.71484 -0.21296,0.10647 -0.50187,-0.10647 -0.71484,0 -0.30116,0.15058 -0.41174,0.56427 -0.71289,0.71484 -0.21297,0.10647 -0.47674,0 -0.71485,0 h -0.71484 c -0.2381,0 -0.54651,0.16834 -0.71485,0 -0.16837,-0.16836 0,-0.47677 0,-0.71484 0,-0.49681 -0.12914,-3.31397 0,-3.57227 0.15059,-0.30117 0.56427,-0.41173 0.71485,-0.71289 0.24669,-0.49339 -0.25074,-3.32153 0,-3.57226 0.16836,-0.16834 0.5465,0.16838 0.71484,0 0.35717,-0.35715 -0.35713,-1.78545 0,-2.14258 0.16836,-0.16834 0.54647,0.16834 0.71485,0 0.146,-0.14603 -0.14162,-1.85938 0,-2.14258 0.15058,-0.30117 0.56231,-0.41369 0.71289,-0.71484 0.14162,-0.28321 -0.14601,-1.99654 0,-2.14258 0.16836,-0.16838 0.5465,0.16834 0.71484,0 0.16838,-0.16836 0,-0.47673 0,-0.71484 V 215 c 0,-0.2381 0.10647,-0.50187 0,-0.71484 -0.15058,-0.30118 -0.56427,-0.41174 -0.71484,-0.71289 -0.24669,-0.49338 0.25073,-3.32154 0,-3.57227 -0.16835,-0.16834 -0.54455,0.16838 -0.71289,0 -0.33672,-0.33672 0.33671,-1.09102 0,-1.42773 -0.16837,-0.16834 -0.54647,0.16837 -0.71485,0 -0.33672,-0.33672 0.21298,-1.00378 0,-1.42969 -0.15058,-0.30117 -0.56427,-0.41369 -0.71484,-0.71485 -0.10647,-0.21295 0.10647,-0.49995 0,-0.71289 -0.15059,-0.30117 -0.56427,-0.41369 -0.71485,-0.71484 -0.10646,-0.21296 0.16834,-0.54647 0,-0.71484 -0.16836,-0.16834 -0.54455,0.16837 -0.71289,0 -0.16834,-0.16835 0.10647,-0.49992 0,-0.71289 -0.15059,-0.30118 -0.56426,-0.4137 -0.71484,-0.71485 -0.10647,-0.21296 0.16834,-0.5465 0,-0.71484 -0.16836,-0.16834 -0.54647,0.16834 -0.71484,0 -0.16834,-0.16836 0.16837,-0.54651 0,-0.71485 -0.16836,-0.16837 -0.54455,0.16834 -0.71289,0 -0.33672,-0.33672 0.33671,-1.09101 0,-1.42773 -0.16836,-0.16834 -0.54651,0.16834 -0.71485,0 -0.16834,-0.16836 0.10647,-0.50187 0,-0.71484 -0.15058,-0.30118 -0.56427,-0.41174 -0.71484,-0.71289 -0.10647,-0.21296 0.16834,-0.54651 0,-0.71485 -0.16836,-0.16838 -0.54651,0.16834 -0.71485,0 -0.16837,-0.16836 0.10647,-0.50187 0,-0.71484 -0.0948,-0.18965 -1.95292,-2.04779 -2.14257,-2.14258 -0.21295,-0.10647 -0.54452,0.16838 -0.71289,0 -0.16834,-0.16836 0.16837,-0.5465 0,-0.71484 -0.16836,-0.16834 -0.50187,0.10647 -0.71485,0 -0.30117,-0.15058 -0.41369,-0.56232 -0.71484,-0.71289 -0.21296,-0.10647 -0.50187,0.10646 -0.71485,0 -0.30116,-0.1506 -0.41173,-0.56427 -0.71289,-0.71485 -0.42592,-0.21297 -1.09297,0.33672 -1.42968,0 -0.16834,-0.16836 0.16837,-0.5465 0,-0.71484 -0.14602,-0.14604 -1.85938,0.14158 -2.14258,0 -0.30117,-0.15059 -0.41369,-0.56427 -0.71485,-0.71485 -0.21296,-0.10646 -0.47478,0 -0.71289,0 H 145 h -4.28516 -4.28711 c -0.23808,0 -0.54455,-0.16837 -0.71289,0 -0.16834,0.16836 0.16834,0.54647 0,0.71485 -0.33672,0.33672 -1.09297,-0.33672 -1.42968,0 -0.16834,0.16836 0.16837,0.5465 0,0.71484 -0.16835,0.16838 -0.47482,0 -0.71289,0 0,0.2381 0.16834,0.54647 0,0.71485 -0.16837,0.16834 -0.54647,-0.16838 -0.71485,0 -0.16838,0.16835 0.16838,0.54455 0,0.71289 -1.47785,1.47789 0.0567,-2.25785 -1.42969,0.71484 -0.10646,0.21296 0.16834,0.54647 0,0.71484 -0.16836,0.16834 -0.54455,-0.16837 -0.71289,0 -0.16834,0.16835 0.10647,0.49992 0,0.71289 -0.15058,0.30118 -0.47673,0.47674 -0.71484,0.71485 -0.2381,0.23809 -0.56427,0.41365 -0.71484,0.71484 -0.10647,0.21296 0.16837,0.54651 0,0.71485 -0.16836,0.16834 -0.54455,-0.16834 -0.71289,0 -0.16834,0.16835 0.16834,0.54455 0,0.71289 -0.16836,0.16834 -0.54651,-0.16834 -0.71485,0 -0.16834,0.16836 0.16834,0.5465 0,0.71484 -0.16836,0.16834 -0.54646,-0.16834 -0.71484,0 -0.16834,0.16836 0.10647,0.50187 0,0.71484 -0.15059,0.30116 -0.56427,0.4117 -0.71485,0.71289 -0.10646,0.21296 0.16834,0.54651 0,0.71485 -0.16835,0.16834 -0.54455,-0.16834 -0.71289,0 -0.16834,0.16836 0.16834,0.54646 0,0.71484 -0.16836,0.16834 -0.5465,-0.16838 -0.71484,0 -0.16834,0.16836 0.16834,0.54651 0,0.71485 -0.16836,0.16834 -0.5465,-0.16834 -0.71484,0 -0.16834,0.16835 0.16834,0.54455 0,0.71289 -0.16836,0.16837 -0.54452,-0.16834 -0.71289,0 -0.16834,0.16836 0.16837,0.54646 0,0.71484 -0.33672,0.33672 -1.09297,-0.33672 -1.42969,0 -0.16838,0.16836 0.16834,0.5465 0,0.71484 -0.16836,0.16834 -0.54647,-0.16834 -0.71485,0 -0.16834,0.16835 0.16838,0.54455 0,0.71289 -0.16835,0.16838 -0.54455,-0.16834 -0.71289,0 -0.16834,0.16837 0.16834,0.54647 0,0.71485 -0.16836,0.16834 -0.5465,-0.16838 -0.71484,0 -0.16838,0.16836 0.16834,0.5465 0,0.71484 -0.33672,0.33672 -1.09102,-0.33672 -1.42773,0 -0.16834,0.16836 0.10646,0.50187 0,0.71485 -0.30118,0.60234 -1.1285,0.82539 -1.42969,1.42773 -0.10647,0.21296 0.16834,0.54647 0,0.71484 -0.16836,0.16834 -0.54651,-0.16837 -0.71485,0 -0.16834,0.16835 0,0.47478 0,0.71289 -0.23809,0 -0.54455,-0.16834 -0.71289,0 -0.16834,0.16836 0.10647,0.50187 0,0.71485 -0.15058,0.30117 -0.56426,0.41365 -0.71484,0.71484 -0.10647,0.21296 0.16834,0.54651 0,0.71485 -0.16836,0.16834 -0.5465,-0.16834 -0.71484,0 -0.16834,0.16835 0.10647,0.49995 0,0.71289 -0.15058,0.30116 -0.47478,0.47673 -0.71289,0.71484 0,0.23809 0.10646,0.50187 0,0.71484 -0.15059,0.30116 -0.56427,0.4117 -0.71485,0.71289 -0.51175,1.02351 -0.13484,0.82619 0.11524,0.62891 -0.12745,0.11342 -0.31922,0.28992 -0.83008,0.80078 -0.10647,0.21296 0.16838,0.54651 0,0.71485 -0.16836,0.16834 -0.54651,-0.16834 -0.71485,0 -0.16834,0.16835 0.16834,0.54455 0,0.71289 -0.16835,0.16837 -0.54455,-0.16834 -0.71289,0 -0.33671,0.33672 0.33672,1.09297 0,1.42968 -0.16836,0.16834 -0.54646,-0.16834 -0.71484,0 -0.16834,0.16835 0.16838,0.54455 0,0.71289 -0.16836,0.16838 -0.5465,-0.16834 -0.71484,0 -0.16834,0.16837 0.16834,0.54647 0,0.71485 -0.16836,0.16834 -0.54452,-0.16838 -0.71289,0 -0.16834,0.16836 0.16837,0.5465 0,0.71484 -0.95237,0.9524 -0.71485,-1.18991 -0.71485,0.71485 -0.16836,0.16837 -0.5465,-0.16834 -0.71484,0 -0.16838,0.16836 0.10647,0.49995 0,0.71289 -0.15059,0.30117 -0.56427,0.41369 -0.71485,0.71484 -0.10646,0.21296 0.16838,0.5465 0,0.71484 -0.16835,0.16834 -0.49995,-0.10647 -0.71289,0 -2.97269,1.48636 0.76304,-0.0502 -0.71484,1.42774 -1.47786,1.47788 0.0586,-2.25784 -1.42773,0.71484 -0.10647,0.21296 0.16834,0.54651 0,0.71485 -0.16836,0.16834 -0.50187,-0.10647 -0.71485,0 -0.30117,0.15058 -0.41365,0.56231 -0.71484,0.71289 -0.21296,0.10647 -0.54651,-0.16834 -0.71485,0 -0.16834,0.16836 0.16834,0.5465 0,0.71484 -0.023,0.0231 -1.96932,0 -2.142574,0 -0.238095,0 -0.54455,0.16834 -0.71289,0 -0.168341,-0.16836 0.16834,-0.5465 0,-0.71484 -0.168359,-0.16834 -0.546504,0.16834 -0.714844,0 -0.477611,-0.47762 0.477611,-0.95013 0,-1.42774 -0.168359,-0.16838 -0.546504,0.16834 -0.714844,0 -0.357127,-0.35714 0.357128,-1.78545 0,-2.14258 -0.168359,-0.16834 -0.546503,0.16834 -0.714844,0 -0.16834,-0.16836 0,-0.47673 0,-0.71484 0,-0.17323 -0.02305,-2.11952 0,-2.14258 0.168356,-0.16834 0.546504,0.16834 0.714844,0 0.357128,-0.35714 -0.357127,-1.78545 0,-2.14258 0.168359,-0.16834 0.546504,0.16834 0.714844,0 0.195439,-0.19545 -0.193739,-2.46993 0,-2.85742 0.150584,-0.30117 0.564267,-0.41369 0.714844,-0.71484 0.285694,-0.57143 -0.285695,-1.57115 0,-2.14258 0.150584,-0.30117 0.562314,-0.41369 0.71289,-0.71484 0.141619,-0.2832 -0.146041,-1.99658 0,-2.14258 0.168359,-0.16834 0.546504,0.16838 0.714844,0 0.22118,-0.22118 -0.221178,-3.34914 0,-3.57031 0.16836,-0.16834 0.5465,0.16837 0.71484,0 0.33672,-0.33672 -0.21297,-1.00378 0,-1.42969 0.15058,-0.30117 0.56232,-0.41369 0.71289,-0.71485 0.21298,-0.42591 -0.33671,-1.09101 0,-1.42773 0.16836,-0.16838 0.54651,0.16834 0.71485,0 0.33672,-0.33672 -0.21298,-1.00182 0,-1.42773 0.15058,-0.30118 0.56427,-0.4137 0.71484,-0.71485 0.10647,-0.21296 -0.10647,-0.50187 0,-0.71484 0.15059,-0.30117 0.56427,-0.41369 0.71485,-0.71485 0.21297,-0.42592 -0.21298,-1.00181 0,-1.42773 0.15058,-0.30117 0.56231,-0.41369 0.71289,-0.71484 0.19373,-0.3875 -0.19544,-2.66199 0,-2.85743 0.16836,-0.16834 0.54646,0.16834 0.71484,0 0.19544,-0.19543 -0.19374,-2.46798 0,-2.85546 0.15058,-0.30118 0.56427,-0.4137 0.71484,-0.71485 0.10647,-0.21296 0,-0.47677 0,-0.71484 v -0.71485 -3.57031 -3.57226 -0.71289 c 0,-0.2381 0.10647,-0.50187 0,-0.71485 -0.15059,-0.30117 -0.56426,-0.41369 -0.71484,-0.71484 -0.21298,-0.42592 0.33672,-1.09102 0,-1.42774 -0.16836,-0.16837 -0.54647,0.16834 -0.71484,0 -0.33672,-0.33672 0.33671,-1.09297 0,-1.42968 -0.16835,-0.16834 -0.54455,0.16834 -0.71289,0 -0.16834,-0.16835 0.16834,-0.54455 0,-0.71289 -0.16836,-0.16838 -0.54651,0.16834 -0.71485,0 -0.16838,-0.16837 0.10647,-0.50187 0,-0.71485 -0.15058,-0.30117 -0.56427,-0.41369 -0.71484,-0.71484 -0.10647,-0.21296 0.16834,-0.54651 0,-0.71485 -0.16836,-0.16837 -0.54651,0.16834 -0.71485,0 -0.33671,-0.33672 0.33672,-1.09101 0,-1.42773 -0.16835,-0.16838 -0.54455,0.16834 -0.71289,0 -0.952396,-0.95236 1.18992,-0.71484 -0.71484,-0.71484 -0.16834,-0.16836 0.16834,-0.54455 0,-0.71289 -0.168359,-0.16834 -0.501867,0.10646 -0.714844,0 -0.301168,-0.1506 -0.411738,-0.56427 -0.71289,-0.71485 -0.283208,-0.14158 -1.998491,0.14604 -2.144532,0 -0.16834,-0.16836 0.168341,-0.5465 0,-0.71484 -0.02874,-0.0287 -2.593169,0 -2.855468,0 h -0.714844 c -0.238095,0 -0.546466,0.16834 -0.714844,0 -0.16834,-0.16836 0.168378,-0.54651 0,-0.71485 -0.171878,-0.17189 -2.685529,0.1719 -2.857422,0 -0.168378,-0.16835 0.16834,-0.54455 0,-0.71289 -0.171881,-0.17189 -2.685529,0.17186 -2.857422,0 -0.16834,-0.16836 0.168341,-0.5465 0,-0.71484 -0.168359,-0.16834 -0.54455,0.16834 -0.71289,0 -0.168378,-0.16836 0.16834,-0.5465 0,-0.71484 -0.336718,-0.33672 -1.09297,0.33671 -1.429688,0 -0.168378,-0.16836 0.16834,-0.54452 0,-0.71289 -0.336718,-0.33672 -1.091016,0.33671 -1.427734,0 -0.16834,-0.16836 0.106469,-0.50187 0,-0.71485 -0.150584,-0.30117 -0.564267,-0.41369 -0.714844,-0.71484 -0.106469,-0.21296 0.16834,-0.54647 0,-0.71485 -0.168359,-0.16834 -0.546503,0.16838 -0.714844,0 -0.952395,-0.95238 1.191871,-0.71289 -0.71289,-0.71289 -0.16834,-0.16836 0.168378,-0.54646 0,-0.71484 -0.168359,-0.16834 -0.546504,0.16838 -0.714844,0 -0.16834,-0.16836 0.106469,-0.50187 0,-0.71484 -0.301168,-0.60233 -1.126544,-0.82539 -1.427734,-1.42774 -0.10647,-0.21296 0.16834,-0.5465 0,-0.71484 -0.168359,-0.16834 -0.546504,0.16834 -0.714844,0 -0.16834,-0.16836 0.16834,-0.54651 0,-0.71485 -0.168359,-0.16837 -0.546466,0.16834 -0.714844,0 -0.16834,-0.16836 0.168378,-0.54455 0,-0.71289 -0.168359,-0.16834 -0.546503,0.16834 -0.714844,0 -0.16834,-0.16836 0.168341,-0.5465 0,-0.71484 -0.336718,-0.33672 -1.091016,0.33672 -1.427734,0 -0.16834,-0.16836 0.16834,-0.54647 0,-0.71484 -0.952396,-0.9524 -0.714844,1.19187 -0.714844,-0.71289 -0.336718,-0.33672 -1.091016,0.33671 -1.427734,0 -0.168378,-0.16836 0.16834,-0.54651 0,-0.71485 -0.336718,-0.33672 -1.09297,0.33672 -1.429688,0 -0.16834,-0.16836 0.168341,-0.5465 0,-0.71484 -0.357142,-0.35717 -1.78545,0.35713 -2.142578,0 -0.168378,-0.16836 0.16834,-0.54651 0,-0.71485 -0.357142,-0.35712 -1.78545,0.35713 -2.142578,0 -0.16834,-0.16835 0.16834,-0.54455 0,-0.71289 -0.07143,-0.0714 -2.071145,-0.0714 -2.142578,0 -0.16834,0.16836 0.16834,0.54452 0,0.71289 -0.03237,0.0325 -3.235472,0 -3.572266,0 -0.238095,0 -0.544512,-0.16837 -0.71289,0 -0.16834,0.16836 0.168378,0.54651 0,0.71485 -0.336718,0.33672 -1.003773,-0.21298 -1.429688,0 -0.301171,0.15058 -0.411738,0.56427 -0.71289,0.71484 -0.283212,0.14162 -1.998491,-0.146 -2.144532,0 -0.16834,0.16836 0.168341,0.54651 0,0.71485 -0.357142,0.35712 -1.78545,-0.35713 -2.142578,0 -0.16834,0.16835 0.168378,0.54455 0,0.71289 -0.357142,0.35716 -1.78545,-0.35713 -2.142578,0 -0.168378,0.16836 0.16834,0.54646 0,0.71484 -0.336718,0.33672 -1.091016,-0.33672 -1.427734,0 -0.168378,0.16836 0.16834,0.5465 0,0.71484 -0.336718,0.33672 -1.003769,-0.21297 -1.429688,0 -0.301168,0.15058 -0.411738,0.56232 -0.71289,0.71289 -0.425915,0.21298 -1.09297,-0.33671 -1.429688,0 -0.168378,0.16836 0.16834,0.54651 0,0.71485 -0.168359,0.16834 -0.501867,-0.10647 -0.714844,0 -0.602339,0.30117 -0.825394,1.1285 -1.427734,1.42969 -0.212961,0.10646 -0.546504,-0.16838 -0.714844,0 -0.16834,0.16835 0.16834,0.54455 0,0.71289 -0.168359,0.16834 -0.54455,-0.16834 -0.71289,0 -0.168341,0.16836 0.106469,0.50186 0,0.71484 -0.150588,0.30117 -0.564268,0.41369 -0.714844,0.71484 -0.106469,0.21295 0.168378,0.54455 0,0.71289 -0.168359,0.16838 -0.546504,-0.16834 -0.714844,0 -0.16834,0.16837 0.16834,0.54651 0,0.71485 -0.168359,0.16838 -0.546503,-0.16834 -0.714844,0 -0.16834,0.16836 0.10647,0.50187 0,0.71484 -0.150584,0.30117 -0.562314,0.41369 -0.71289,0.71485 -0.212977,0.42592 0.336718,1.09101 0,1.42773 -0.168359,0.16834 -0.546466,-0.16834 -0.714844,0 -0.336718,0.33672 0.336718,1.09102 0,1.42773 -0.168359,0.16834 -0.546466,-0.16837 -0.714844,0 -0.16834,0.16836 0.10647,0.50187 0,0.71485 -0.150584,0.30117 -0.562314,0.41369 -0.71289,0.71484 -0.10647,0.21296 0.168378,0.54651 0,0.71485 -0.168359,0.16834 -0.546466,-0.16834 -0.714844,0 -1.477883,1.47785 2.257842,-0.0586 -0.714844,1.42773 -0.212959,0.10647 -0.546485,-0.16838 -0.714844,0 -0.168359,0.16836 0.168359,0.5465 0,0.71484 -0.168358,0.16834 -0.544531,0.16834 -0.71289,0 -0.168359,-0.16836 0.168359,-0.5465 0,-0.71484 -0.168359,-0.16838 -0.546485,0.16834 -0.714844,0 -0.168359,-0.16836 0.168359,-0.54647 0,-0.71484 -0.168359,-0.16834 -0.546485,0.16837 -0.714844,0 -0.221178,-0.22117 0.221178,-3.34914 0,-3.57032 -0.168358,-0.16834 -0.544531,0.16834 -0.71289,0 -0.168359,-0.16836 0,-0.47673 0,-0.71484 v -3.57227 c 0,-0.17323 0.02298,-2.11952 0,-2.14257 -0.168359,-0.16834 -0.546485,0.16834 -0.714844,0 -0.171878,-0.17188 0.171878,-2.68553 0,-2.85743 -0.168359,-0.16837 -0.546485,0.16834 -0.714844,0 -0.336718,-0.33672 0.336718,-1.09101 0,-1.42773 -0.168359,-0.16838 -0.546485,0.16834 -0.714844,0 -0.336718,-0.33672 0.336718,-1.09102 0,-1.42773 -0.168358,-0.16834 -0.544531,0.16834 -0.71289,0 -0.168359,-0.16836 0.10648,-0.50187 0,-0.71485 -0.150585,-0.30117 -0.56426,-0.41369 -0.714844,-0.71484 -0.106481,-0.21296 0.168359,-0.54651 0,-0.71485 -0.168359,-0.16837 -0.546485,0.16834 -0.714844,0 -0.168359,-0.16835 0.106481,-0.49995 0,-0.71289 -0.150584,-0.30116 -0.562306,-0.41369 -0.71289,-0.71484 -0.515009,-1.03002 -0.12888,-0.8235 0.121093,-0.625 -0.126458,-0.11237 -0.322079,-0.28887 -0.835937,-0.80273 -0.106481,-0.21296 0.168359,-0.54651 0,-0.71485 -0.168359,-0.16838 -0.546485,0.16834 -0.714844,0 -0.336718,-0.33672 0.336718,-1.09297 0,-1.42969 -0.336717,-0.33671 -1.091016,0.33672 -1.427734,0 -0.952381,-0.95238 1.189918,-0.71289 -0.714844,-0.71289 -0.168359,-0.16836 0.168359,-0.54646 0,-0.71484 -0.168359,-0.16834 -0.476749,0 -0.714844,0 h -0.71289 -5.714844 c -0.178571,0 -0.395688,-0.094 -0.564453,-0.0703 z m 11.40039,4.44531 c 0.170861,0.15183 0.149507,0.11872 0,0 z M 527.97266,462.94336 c 0.17577,0.15643 0.15276,0.1205 0,0 z M 169.88477,344.91602 c -0.1768,-0.15739 -0.15344,-0.12087 0,0 z"
       transform="scale(0.26458333)"
       id="path827"
       inkscape:connector-curvature="0" />
  </g>
</svg>
