<?xml version="1.0" encoding="UTF-8" standalone="no"?>
<!-- Created with Inkscape (http://www.inkscape.org/) -->

<svg
   xmlns:dc="http://purl.org/dc/elements/1.1/"
   xmlns:cc="http://creativecommons.org/ns#"
   xmlns:rdf="http://www.w3.org/1999/02/22-rdf-syntax-ns#"
   xmlns:svg="http://www.w3.org/2000/svg"
   xmlns="http://www.w3.org/2000/svg"
   xmlns:sodipodi="http://sodipodi.sourceforge.net/DTD/sodipodi-0.dtd"
   xmlns:inkscape="http://www.inkscape.org/namespaces/inkscape"
   width="169.33333mm"
   height="127mm"
   viewBox="0 0 169.33333 127"
   version="1.1"
   id="svg8"
   sodipodi:docname="2_4_endotelio.svg"
   inkscape:version="0.92.4 (5da689c313, 2019-01-14)">
  <defs
     id="defs2" />
  <sodipodi:namedview
     id="base"
     pagecolor="#ffffff"
     bordercolor="#666666"
     borderopacity="1.0"
     inkscape:pageopacity="0.0"
     inkscape:pageshadow="2"
     inkscape:zoom="0.98994949"
     inkscape:cx="266.03621"
     inkscape:cy="181.32767"
     inkscape:document-units="mm"
     inkscape:current-layer="layer2"
     showgrid="false"
     fit-margin-top="0"
     fit-margin-left="0"
     fit-margin-right="0"
     fit-margin-bottom="0"
     inkscape:window-width="1920"
     inkscape:window-height="1001"
     inkscape:window-x="-9"
     inkscape:window-y="-9"
     inkscape:window-maximized="1" />
  <metadata
     id="metadata5">
    <rdf:RDF>
      <cc:Work
         rdf:about="">
        <dc:format>image/svg+xml</dc:format>
        <dc:type
           rdf:resource="http://purl.org/dc/dcmitype/StillImage" />
        <dc:title></dc:title>
      </cc:Work>
    </rdf:RDF>
  </metadata>
  <g
     inkscape:groupmode="layer"
     id="layer2"
     inkscape:label="endotelio"
     style="display:inline">
    <path
       style="fill:none;stroke:#000000;stroke-width:0.99999994px;stroke-linecap:butt;stroke-linejoin:miter;stroke-opacity:1"
       d="m 0,0 v 40.583984 c 0.42591771,0.212962 0.58384801,0.796805 1.0097656,1.009766 0.6349034,0.317443 3.4061126,-0.317443 4.0410156,0 0.4259177,0.212957 0.5838477,0.796789 1.0097657,1.009766 0.6472819,0.323641 5.4332091,-0.313663 6.0605471,0 0.425917,0.212961 0.585802,0.796789 1.011718,1.009765 0.808122,0.404062 2.221175,-0.404061 3.029297,0 0.425917,0.212958 0.583849,0.79878 1.009766,1.011719 0.808122,0.404062 2.223128,-0.404058 3.03125,0 0.425918,0.212961 0.583849,0.796827 1.009766,1.009766 0.602338,0.301152 1.419145,-0.301153 2.021484,0 0.425917,0.212957 0.673048,0.673047 1.009766,1.009765 0.336717,0 0.708594,-0.150576 1.009765,0 0.425917,0.212962 0.583848,0.796789 1.009766,1.009766 0.301169,0.150576 0.77167,-0.23811 1.009766,0 0.238094,0.238095 -0.238096,0.771656 0,1.009765 0.238094,0.238111 0.71055,-0.150575 1.011718,0 0.851836,0.425915 1.167697,1.595566 2.019532,2.021485 0.602338,0.301153 1.543341,-0.47619 2.019531,0 0.238095,0.238091 -0.238095,0.771656 0,1.009765 0.238096,0.238111 0.710551,-0.150575 1.011719,0 0.425916,0.212962 0.583847,0.79679 1.009765,1.009766 0.301169,0.150577 0.771671,-0.23811 1.009766,0 0.238095,0.238095 -0.238095,0.771656 0,1.009766 0.238095,0.23811 0.77167,-0.23811 1.009765,0 0.238095,0.238095 -0.238095,0.773609 0,1.011718 0.238095,0.238111 0.771671,-0.238109 1.009766,0 0.238095,0.238096 -0.238095,0.771656 0,1.009766 0.238095,0.23811 0.710528,-0.150576 1.011719,0 0.851833,0.425919 1.167694,1.593613 2.019531,2.019531 0.301168,0.150577 0.771655,-0.23811 1.009766,0 0.23811,0.238095 -0.150577,0.708575 0,1.009766 0.233892,0.467781 3.4469,3.4469 4.041015,4.041016 0.336715,0.336718 0.796827,0.58385 1.009766,1.009765 0.150576,0.301172 -0.23811,0.773609 0,1.011719 0.238095,0.23811 0.771656,-0.23811 1.009765,0 0.238111,0.238095 -0.150575,0.708613 0,1.009766 0.425915,0.851837 1.595566,1.167697 2.021485,2.019531 0.150576,0.301172 -0.23811,0.771655 0,1.009766 0.238095,0.238109 0.771656,-0.238111 1.009765,0 1.346873,1.346871 -1.683975,1.011718 1.009766,1.011718 4.204014,2.102019 -1.080275,-0.07051 1.009766,2.019532 0.238095,0.238109 0.771655,-0.238111 1.009765,0 0.238111,0.238094 -0.23811,0.771655 0,1.009765 0.238095,0.23811 0.773609,-0.23811 1.011719,0 0.23811,0.238095 -0.23811,0.771656 0,1.009766 0.238095,0.23811 0.771656,-0.23811 1.009766,0 0.23811,0.238095 -0.23811,0.773608 0,1.011719 2.090037,2.090039 -0.08248,-3.194249 2.019531,1.009765 0.150576,0.301168 -0.23811,0.771656 0,1.009766 0.238095,0.23811 0.771655,-0.23811 1.009766,0 0.23811,0.238095 -0.150577,0.708575 0,1.009765 0.425915,0.851834 1.595565,1.169647 2.021484,2.021485 0.150576,0.301168 -0.23811,0.771655 0,1.009765 0.238091,0.238111 0.771655,-0.23811 1.009766,0 0.23811,0.238095 -0.238111,0.771656 0,1.009766 0.238095,0.23811 0.771655,-0.23811 1.009765,0 0.23811,0.238095 -0.23811,0.771655 0,1.009766 0.238095,0.23811 0.771656,-0.238111 1.009766,0 0.23811,0.238095 -0.23811,0.771655 0,1.009765 0.238095,0.23811 0.773608,-0.23811 1.011719,0 0.23811,0.238095 -0.150577,0.710566 0,1.011719 1.116748,2.233504 0.62617,0.313085 2.019531,1.009766 4.20401,2.102018 -1.080275,-0.07051 1.009766,2.019531 0.238094,0.23811 0.708612,-0.150577 1.009765,0 4.20401,2.102018 -1.078322,-0.06856 1.011719,2.021484 0.238095,0.23811 0.771655,-0.23811 1.009766,0 1.346867,1.346873 -1.683972,1.009766 1.009765,1.009766 4.204014,2.102018 -1.080275,-0.07051 1.009766,2.019531 0.238095,0.23811 0.708613,-0.150576 1.009765,0 1.212186,0.606089 1.819065,2.425158 3.03125,3.03125 0.301168,0.150577 0.771656,-0.23811 1.009766,0 0.23811,0.238095 -0.23811,0.771656 0,1.009766 0.238095,0.23811 0.708575,-0.150577 1.009766,0 0.425918,0.212957 0.585803,0.796827 1.011718,1.009765 0.301172,0.150577 0.708613,-0.150576 1.009766,0 0.425919,0.212962 0.583851,0.79679 1.009766,1.009766 0.602339,0.301153 1.543344,-0.47619 2.019531,0 0.23811,0.238095 -0.23811,0.773613 0,1.011715 0.476194,0.47619 1.419149,-0.301145 2.021484,0 0.425919,0.21297 0.583847,0.79679 1.009766,1.00977 0.808123,0.40406 2.223126,-0.40407 3.03125,0 0.425915,0.21295 0.583848,0.7968 1.009765,1.00976 0.60234,0.30116 1.417196,-0.30118 2.019532,0 0.425918,0.21297 0.583847,0.79679 1.009765,1.00977 0.634904,0.31744 3.406112,-0.31744 4.041016,0 0.425919,0.21296 0.583851,0.79679 1.009766,1.00977 0.661466,0.33074 4.154339,-0.29881 5.050779,0 0.71429,0.2381 1.3072,0.7736 2.02149,1.01172 0.58819,0.19603 5.36549,0 6.06054,0 0.33672,-1e-5 0.70862,-0.15058 1.00977,0 0.42591,0.21293 0.58385,0.79678 1.00976,1.00976 0.26117,0.13058 5.3465,0 6.0625,0 h 8.08008 c 0.34414,0 3.49432,0.18221 4.04102,0 0.71429,-0.2381 1.30524,-0.77166 2.01953,-1.00976 0.31944,-0.10647 0.675,-1e-5 1.01172,0 0.9176,0 6.41454,0.21856 7.07031,0 0.45175,-0.1506 0.58385,-0.79879 1.00977,-1.01172 0.37531,-0.18766 6.21047,0 7.07226,0 0.77218,0 6.78609,-0.14211 7.07031,0 0.42591,0.21295 0.55802,0.86114 1.00977,1.01172 0.55863,0.1862 5.04328,-1e-5 6.06055,0 0.33672,-1e-5 0.70861,-0.15058 1.00976,0 0.42592,0.21293 0.5858,0.79678 1.01172,1.00976 0.80812,0.40406 2.22118,-0.40406 3.0293,0 0.42592,0.21296 0.58384,0.79679 1.00976,1.00977 0.80812,0.40405 2.22313,-0.40407 3.03125,0 0.42592,0.21295 0.58385,0.79679 1.00977,1.00976 0.60234,0.30115 1.41914,-0.30115 2.02148,0 0.42591,0.21296 0.58385,0.79679 1.00977,1.00977 0.60234,0.30119 1.41719,-0.30116 2.01953,0 0.42592,0.21295 0.58385,0.79679 1.00977,1.00976 0.60232,0.30119 1.54529,-0.47619 2.02148,0 0.23811,0.23809 -0.23811,0.77361 0,1.01172 0.47619,0.47619 1.41719,-0.30119 2.01953,0 0.85183,0.42592 1.16966,1.59361 2.02149,2.01953 0.60234,0.30116 1.54334,-0.47619 2.01953,0 0.23811,0.23809 -0.23811,0.77166 0,1.00977 0.47619,0.47619 1.41719,-0.30119 2.01953,0 0.85184,0.42592 1.16964,1.59557 2.02148,2.02148 0.60234,0.30116 1.54334,-0.47619 2.01953,0 0.23811,0.2381 -0.30119,0.85919 0,1.00977 0.60234,0.30119 1.38261,-0.21298 2.02149,0 0.45175,0.15058 0.58385,0.79679 1.00976,1.00976 0.30118,0.15058 0.69032,-0.10646 1.00977,0 0.71429,0.2381 1.30524,0.77166 2.01953,1.00977 0.31943,0.10647 0.71057,-0.15058 1.01172,0 0.42592,0.21296 0.58385,0.79679 1.00977,1.00977 0.60234,0.30115 1.41719,-0.30116 2.01953,0 0.42591,0.21295 0.58384,0.79874 1.00976,1.01171 0.30117,0.15058 0.71053,-0.15057 1.01172,0 0.42592,0.21297 0.58386,0.79679 1.00977,1.00977 0.30116,0.15058 0.70861,-0.15058 1.00976,0 0.42591,0.21296 0.58385,0.79679 1.00977,1.00977 0.30117,0.15057 0.70861,-0.15058 1.00976,0 0.42592,0.21296 0.58581,0.79682 1.01172,1.00976 0.30117,0.15058 0.70862,-0.15058 1.00977,0 0.85183,0.42592 1.1677,1.59557 2.01953,2.02149 0.30117,0.15057 0.77165,-0.23811 1.00977,0 0.2381,0.23809 -0.23812,0.77165 0,1.00976 0.23808,0.23811 0.71056,-0.15058 1.01171,0 0.85183,0.42592 1.16772,1.59361 2.01953,2.01953 0.30118,0.15058 0.70862,-0.15057 1.00977,0 0.85184,0.42591 1.16965,1.59557 2.02149,2.02149 0.60232,0.30115 1.41719,-0.30116 2.01953,0 1.21217,0.60609 1.81907,2.4232 3.03125,3.02929 0.30117,0.15058 0.70857,-0.15057 1.00976,0 0.42591,0.21297 0.58384,0.79679 1.00977,1.00977 0.30117,0.15058 0.70861,-0.15058 1.00976,0 0.42593,0.21296 0.58386,0.79878 1.00977,1.01172 0.30117,0.15057 0.77361,-0.23811 1.01172,0 0.23807,0.2381 -0.23811,0.77165 0,1.00976 0.23809,0.23811 0.70861,-0.15057 1.00976,0 0.42592,0.21297 0.58385,0.79679 1.00977,1.00977 0.30117,0.15058 0.77169,-0.23811 1.00976,0 0.23811,0.23809 -0.23807,0.77166 0,1.00976 0.23811,0.23812 0.70862,-0.15056 1.00977,0 0.42591,0.21297 0.5858,0.79683 1.01172,1.00977 0.30117,0.15058 0.70857,-0.15058 1.00976,0 0.42592,0.21296 0.58386,0.79874 1.00977,1.01172 0.30117,0.15058 0.77166,-0.23811 1.00977,0 0.23811,0.23809 -0.23811,0.77165 0,1.00977 0.23809,0.2381 0.70861,-0.15058 1.00976,0 0.42592,0.21295 0.5858,0.79678 1.01172,1.00976 0.30117,0.15058 0.77169,-0.23807 1.00977,0 0.23811,0.2381 -0.23808,0.77166 0,1.00977 0.47619,0.4762 1.54334,-0.47619 2.01953,0 0.23807,0.2381 -0.23811,0.77165 0,1.00976 0.23808,0.23807 0.70861,-0.15057 1.00976,0 0.42592,0.21296 0.58581,0.79874 1.01172,1.01172 0.30117,0.15058 0.70861,-0.15058 1.00977,0 0.85183,0.42592 1.1677,1.59361 2.01953,2.01953 0.30117,0.15058 0.77165,-0.23811 1.00976,0 0.23811,0.23809 -0.23811,0.77166 0,1.00977 2.09001,2.09003 -0.0805,-3.19425 2.02149,1.00976 0.15057,0.30117 0,0.675 0,1.01172 0.33672,0 0.77165,-0.23807 1.00976,0 0.23811,0.2381 -0.23811,0.77166 0,1.00977 0.2381,0.23807 0.77166,-0.23811 1.00977,0 0.23811,0.23809 -0.23811,0.77165 0,1.00976 0.2381,0.23808 0.77166,-0.23811 1.00976,0 0.23812,0.23809 -0.2381,0.7717 0,1.00977 0.2381,0.23811 0.77361,-0.23807 1.01172,0 0.23811,0.2381 -0.23811,0.77169 0,1.00976 0.2381,0.23811 0.77166,-0.23807 1.00977,0 0.23811,0.23811 -0.23811,0.77361 0,1.01172 0.2381,0.23808 0.77165,-0.23811 1.00977,0 0.2381,0.23809 -0.23812,0.77166 0,1.00977 0.23808,0.23807 0.77165,-0.23811 1.00976,0 0.23811,0.23809 -0.23811,0.77165 0,1.00976 0.23809,0.23811 0.70861,-0.15057 1.00977,0 0.42591,0.21296 0.58581,0.79683 1.01171,1.00977 0.30117,0.15058 0.70862,-0.15058 1.00977,0 0.42592,0.21296 0.58385,0.79679 1.00977,1.00977 0.30117,0.15057 0.77165,-0.23811 1.00976,0 0.23811,0.23809 -0.23811,0.7736 0,1.01171 0.23809,0.23808 0.77166,-0.23811 1.00977,0 0.23811,0.23809 -0.23811,0.77166 0,1.00977 0.2381,0.23811 0.70861,-0.15058 1.00976,0 0.42592,0.21296 0.5858,0.79679 1.01172,1.00977 0.30117,0.15057 0.77166,-0.23808 1.00977,0 0.23811,0.2381 -0.23811,0.77165 0,1.00976 0.23809,0.23811 0.70861,-0.15058 1.00976,0 0.42592,0.21295 0.58386,0.79679 1.00977,1.00977 0.30117,0.15057 0.70861,-0.15058 1.00976,0 0.42592,0.21295 0.5858,0.79874 1.01172,1.01172 0.30117,0.15057 0.77166,-0.23811 1.00977,0 0.23811,0.23809 -0.23811,0.77169 0,1.00976 0.2381,0.23811 0.70861,-0.15058 1.00976,0 0.42592,0.21296 0.58385,0.79679 1.00977,1.00977 0.30117,0.15057 0.77166,-0.23811 1.00977,0 0.23811,0.23809 -0.23811,0.77165 0,1.00976 0.23809,0.23807 0.71052,-0.15057 1.01171,0 0.42592,0.21296 0.58385,0.79679 1.00977,1.00977 0.30116,0.15057 0.70861,-0.15058 1.00977,0 0.99402,0.49701 3.04699,3.544 4.04101,4.04101 0.30117,0.15058 0.77169,-0.23811 1.00977,0 0.23811,0.2381 -0.23808,0.77166 0,1.00977 0.2381,0.23811 0.70861,-0.15058 1.00976,0 0.85184,0.42592 1.16965,1.59557 2.02149,2.02148 0.30117,0.15058 0.70861,-0.15057 1.00976,0 0.42593,0.21297 0.58386,0.79679 1.00977,1.00977 0.30117,0.15058 0.77165,-0.23807 1.00976,0 0.23808,0.2381 -0.23811,0.77165 0,1.00977 0.23809,0.2381 0.77166,-0.23812 1.00977,0 0.23807,0.23808 -0.23811,0.77165 0,1.00976 0.23809,0.23811 0.77365,-0.23811 1.01172,0 0.23811,0.23809 -0.15058,0.71053 0,1.01172 0.42592,0.85183 1.59361,1.1677 2.01953,2.01953 0.15058,0.30117 -0.23811,0.77166 0,1.00977 0.23809,0.23811 0.77165,-0.23811 1.00977,0 0.23806,0.23809 -0.15058,0.70861 0,1.00976 0.4259,0.85183 1.59557,1.16966 2.02148,2.02149 0.15058,0.30116 -0.23807,0.77165 0,1.00976 0.2381,0.23811 0.77166,-0.23811 1.00976,0 0.23808,0.23809 -0.2381,0.77166 0,1.00977 0.23809,0.23811 0.77166,-0.23811 1.00977,0 0.47619,0.47619 -0.47619,1.54529 0,2.02148 0.23809,0.23811 0.77169,-0.23811 1.00977,0 0.23811,0.2381 -0.15058,0.70861 0,1.00977 0.42592,0.85183 1.59556,1.1677 2.02148,2.01953 0.15058,0.30117 -0.23811,0.77165 0,1.00976 0.23809,0.23811 0.77166,-0.23811 1.00977,0 0.23807,0.2381 -0.15058,0.71057 0,1.01172 0.21295,0.42593 0.67304,0.67305 1.00976,1.00977 0,0.33672 -0.15057,0.70861 0,1.00976 0.21296,0.42592 0.79683,0.58386 1.00977,1.00977 0.30115,0.60234 -0.30116,1.41914 0,2.02148 0.21296,0.42593 0.79679,0.58385 1.00976,1.00977 0.15058,0.30117 -0.15057,0.70858 0,1.00977 0.21296,0.4259 0.79875,0.58384 1.01172,1.00976 0.15058,0.30117 -0.23811,0.77166 0,1.00977 0.23809,0.23811 0.77166,-0.23811 1.00977,0 0.23811,0.2381 -0.15058,0.71056 0,1.01172 0.21295,0.42591 0.79682,0.58384 1.00976,1.00976 0.15058,0.30116 -0.23807,0.77166 0,1.00977 0.23811,0.23811 0.77166,-0.23811 1.00977,0 0.23811,0.23809 -0.15058,0.70861 0,1.00976 0.42591,0.85184 1.59556,1.16965 2.02148,2.02149 0.15058,0.30116 -0.23811,0.77165 0,1.00976 0.2381,0.23807 0.7717,-0.23811 1.00977,0 0.23811,0.23809 -0.23807,0.7717 0,1.00977 0.2381,0.23811 0.70861,-0.15058 1.00976,0 0.42592,0.21296 0.58385,0.79679 1.00977,1.00976 0.30117,0.15058 0.77166,-0.23807 1.00977,0 0.23811,0.23811 -0.23811,0.77166 0,1.00977 0.47619,0.47619 1.54529,-0.47619 2.02148,0 0.23811,0.23809 -0.23811,0.77165 0,1.00977 0.47619,0.47618 1.41719,-0.30116 2.01953,0 0.42592,0.21294 0.58386,0.79874 1.00977,1.01171 0.30116,0.15058 0.77361,-0.23807 1.01172,0 0.23811,0.23811 -0.23811,0.7717 0,1.00977 0.50507,0.50508 2.52422,-0.50507 3.02929,0 0.23811,0.2381 -0.23811,0.77166 0,1.00976 0.2381,0.23808 0.67305,0 1.00977,0 0.47628,0 5.00497,-0.0458 5.05078,0 0.23811,0.23809 -0.23811,0.77166 0,1.00977 0.2381,0.23807 0.675,0 1.01172,0 0.9514,0 4.47614,-0.19155 5.05078,0 0.45175,0.15058 0.58385,0.79679 1.00977,1.00977 0.60232,0.30115 1.41719,-0.30116 2.01953,0 0.42591,0.21296 0.58384,0.79874 1.00976,1.01172 0.26561,0.1328 3.51279,0 4.04102,0 h 6.06054 c 1.01015,0 2.07294,0.31943 3.03125,0 0.45176,-0.15059 0.58385,-0.79875 1.00977,-1.01172 0.30117,-0.15058 0.67305,0 1.00977,0 0.67344,0 1.3826,0.21297 2.02148,0 0.45175,-0.15058 0.55802,-0.85919 1.00977,-1.00977 0.93582,-0.31196 4.08284,0.32266 5.05078,0 0.71429,-0.2381 1.30524,-0.77169 2.01953,-1.00977 1.0734,-0.35779 2.96761,0.35781 4.04101,0 0.71428,-0.23809 1.30527,-0.77165 2.01953,-1.00976 0.90915,-0.30304 2.12211,0.30304 3.03126,0 0.71427,-0.23809 1.30523,-0.77166 2.01953,-1.00977 0.31944,-0.10647 0.67497,0 1.01171,0 0.56383,0 4.58836,0.15413 5.05079,0 0.45176,-0.15058 0.55799,-0.86115 1.00976,-1.01171 0.9583,-0.31945 2.01914,0 3.0293,0 0.24004,0 3.81462,0.11318 4.04101,0 0.42596,-0.21297 0.558,-0.85919 1.00977,-1.00977 0.46201,-0.15402 3.59152,0.22473 4.04102,0 0.42591,-0.21296 0.58385,-0.79679 1.00976,-1.00977 0.63727,-0.31861 4.41352,0.31866 5.05078,0 0.42592,-0.21295 0.58581,-0.79679 1.01172,-1.00976 0.80814,-0.40406 2.22116,0.40406 3.0293,0 0.42591,-0.21296 0.58385,-0.79679 1.00976,-1.00977 0.8081,-0.40406 2.22312,0.40406 3.03125,0 0.42592,-0.21296 0.58389,-0.79682 1.00977,-1.00976 0.63492,-0.31745 3.40614,0.31744 4.04101,0 0.42592,-0.21296 0.58386,-0.79875 1.00977,-1.01172 0.63727,-0.31862 4.41352,0.31865 5.05078,0 0.42592,-0.21296 0.58385,-0.79679 1.00977,-1.00977 0.15016,-0.0751 3.81915,-0.0739 4.04101,0 0.7143,0.23811 1.30719,0.7717 2.02149,1.00977 0.95168,0.31721 5.40563,-0.32746 6.06054,0 0.42592,0.21296 0.58386,0.79874 1.00977,1.01172 0.80814,0.40405 2.22315,-0.40408 3.03125,0 0.42591,0.21295 0.58385,0.79679 1.00977,1.00976 0.80813,0.40406 2.22115,-0.40406 3.02929,0 0.42592,0.21296 0.58581,0.79679 1.01172,1.00977 0.60234,0.30119 1.38064,-0.21298 2.01953,0 0.7143,0.2381 1.30524,0.77169 2.01953,1.00976 0.69479,0.23161 2.43522,-0.29801 3.03125,0 0.42592,0.21297 0.58385,0.79679 1.00977,1.00977 0.63488,0.31744 3.40609,-0.31748 4.04102,0 0.42586,0.21295 0.58385,0.79679 1.00976,1.00977 0.30119,0.15056 0.67301,0 1.00977,0 0.67343,0 1.38263,-0.21298 2.02148,0 0.45177,0.15057 0.58385,0.79874 1.00977,1.01171 0.60234,0.30116 1.38067,-0.21297 2.01953,0 0.71429,0.23811 1.30719,0.7717 2.02148,1.00977 0.63889,0.21298 1.38064,-0.21298 2.01953,0 0.7143,0.2381 1.30719,0.77166 2.02149,1.00976 0.90913,0.30305 2.12013,-0.30303 3.02929,0 0.45173,0.15059 0.558,0.85919 1.00977,1.00977 0.63885,0.21298 1.34809,0 2.02148,0 0.33672,0.33672 0.58382,0.79679 1.00977,1.00977 0.30115,0.15057 0.6904,-0.10647 1.00977,0 0.71429,0.2381 1.2891,0.82913 2.01953,1.01172 0.65333,0.16334 1.38263,-0.21298 2.02148,0 0.45177,0.15058 0.55804,0.85918 1.00977,1.00976 0.63889,0.21294 1.34609,0 2.01953,0 0.33672,0 0.69235,-0.10647 1.01172,0 0.71429,0.23809 1.30524,0.77166 2.01953,1.00977 0.63889,0.21297 1.38064,-0.21298 2.01953,0 0.71429,0.23808 1.30719,0.77165 2.02148,1.00976 0.63886,0.21298 1.38064,-0.21297 2.01954,0 0.71428,0.2381 1.30722,0.7717 2.02148,1.00977 0.90916,0.30304 2.12017,-0.30305 3.0293,0 0.71429,0.2381 1.30719,0.77361 2.02148,1.01172 1.07342,0.3578 2.96568,-0.35781 4.03906,0 0.45177,0.15058 0.58581,0.79679 1.01172,1.00976 0.30119,0.15058 0.67301,0 1.00977,0 h 5.05078 c 0.67343,0 1.38064,-0.21297 2.01953,0 0.71429,0.23809 1.30719,0.77166 2.02148,1.00977 0.94224,0.31408 4.11717,-0.31121 5.05079,0 3.74475,1.24825 -1.23211,1.00976 2.01953,1.00976 0.24003,0 3.81462,-0.11319 4.04101,0 0.42592,0.21296 0.558,0.85919 1.00977,1.00977 0.63889,0.21298 1.34609,0 2.01953,0 0.33672,0 0.71049,-0.15058 1.01172,0 0.42591,0.21296 0.58385,0.79874 1.00976,1.01172 0.30116,0.15057 0.70854,-0.15058 1.00977,0 0.42591,0.21295 0.55801,0.85919 1.00976,1.00976 0.46201,0.15402 3.59152,-0.22473 4.04102,0 0.42592,0.21296 0.58389,0.79683 1.00977,1.00977 0.60234,0.30119 1.41918,-0.30115 2.02148,0 0.42595,0.21296 0.58385,0.79679 1.00977,1.00976 0.66946,0.33472 3.1944,-0.28221 4.04101,0 0.71429,0.2381 1.30524,0.77166 2.01953,1.00977 0.9583,0.31945 2.05126,-0.24499 3.03125,0 0.73043,0.18261 1.30524,0.77361 2.01953,1.01172 0.31945,0.10647 0.6904,-0.10647 1.00977,0 0.71429,0.2381 1.30719,0.77165 2.02148,1.00976 0.9583,0.31945 2.04931,-0.24498 3.0293,0 0.73043,0.18261 1.30723,0.77166 2.02149,1.00977 0.90916,0.30304 2.12016,-0.30304 3.02929,0 0.45177,0.15058 0.55804,0.85919 1.00977,1.00977 2.01399,0.67133 2.02702,-0.67134 4.04101,0 0.45177,0.15058 0.558,0.85918 1.00977,1.00976 0.63889,0.21298 1.36815,-0.16335 2.02148,0 0.73044,0.18261 1.2891,0.82909 2.01954,1.01172 0.65331,0.16335 1.36815,-0.16335 2.02148,0 0.73043,0.18262 1.28906,0.82714 2.01953,1.00977 0.65333,0.16331 1.3662,-0.16336 2.01953,0 0.73043,0.18261 1.30723,0.77165 2.02149,1.00976 0.31944,0.10647 0.69039,-0.10647 1.00976,0 0.50086,0.16696 3.54015,1.85259 4.04102,2.01953 0.31944,0.10647 0.69039,-0.10647 1.00976,0 0.7143,0.2381 1.3461,0.675 2.01953,1.01172 0.33672,0 0.6904,-0.10647 1.00977,0 0.71429,0.23809 1.30719,0.77166 2.02148,1.00977 0.31945,0.10647 0.6904,-0.10647 1.00977,0 3.50608,1.16869 0.53494,0.85084 4.04102,2.01953 0.3194,0.10647 0.69039,-0.10647 1.00976,0 0.71426,0.2381 1.2891,0.82714 2.01953,1.00976 0.65337,0.16335 1.3826,-0.21297 2.02149,0 0.45173,0.15058 0.58385,0.79875 1.00976,1.01172 0.30119,0.15058 0.67301,0 1.00977,0 0.67343,0 1.38263,-0.21297 2.02148,0 0.45177,0.15058 0.58385,0.79679 1.00977,1.00977 0.30119,0.15057 0.69039,-0.10647 1.00976,0 0.7143,0.2381 1.30524,0.77165 2.01954,1.00976 0.31943,0.10647 0.71049,-0.15057 1.01171,0 0.42592,0.21296 0.58385,0.79679 1.00977,1.00977 0.60234,0.30115 1.38064,-0.21298 2.01953,0 0.71429,0.23809 1.30719,0.77166 2.02149,1.00976 1.07337,0.35781 2.96563,-0.35779 4.03906,0 0.45173,0.15059 0.5858,0.79875 1.01172,1.01172 0.6023,0.30116 1.41722,-0.30115 2.01953,0 0.42595,0.21297 0.58385,0.79683 1.00976,1.00977 0.63493,0.31744 3.40613,-0.31744 4.04102,0 2.49649,1.24826 -0.34944,1.00976 2.01953,1.00977 0.24499,0 2.99723,-0.0325 3.03125,0 0.23811,0.23808 -0.23811,0.77165 0,1.00976 0.23811,0.23811 0.67301,0 1.00977,0 H 640 v -62.58398 c -0.20565,0.0342 -0.40457,0.0399 -0.57422,-0.0449 -0.42591,-0.21297 -0.58385,-0.7968 -1.00976,-1.00976 -0.30123,-0.15058 -0.70858,0.15058 -1.00977,0 -0.42591,-0.21298 -0.58385,-0.79681 -1.00977,-1.00977 -0.30122,-0.15057 -0.70857,0.15058 -1.00976,0 -0.42592,-0.21297 -0.58581,-0.79876 -1.01172,-1.01172 -0.30123,-0.15057 -0.77166,0.23811 -1.00977,0 -0.23811,-0.23811 0.23811,-0.77166 0,-1.00976 -0.23811,-0.23811 -0.77165,0.23811 -1.00976,0 -0.23811,-0.23811 0.23811,-0.77168 0,-1.00977 -0.23811,-0.23811 -0.70858,0.15058 -1.00977,0 -0.85183,-0.42592 -1.16965,-1.59361 -2.02148,-2.01953 -0.30123,-0.15057 -0.77166,0.23811 -1.00977,0 -0.23811,-0.23811 0.23811,-0.77362 0,-1.01172 -0.23811,-0.23807 -0.70857,0.15058 -1.00976,0 -0.85183,-0.42592 -1.1677,-1.59362 -2.01953,-2.01953 -0.30123,-0.15057 -0.77365,0.23811 -1.01172,0 -0.23811,-0.23811 0.23811,-0.77166 0,-1.00976 -0.47622,-0.47619 -1.41719,0.30115 -2.01953,0 -0.42592,-0.21294 -0.58385,-0.79681 -1.00977,-1.00977 -0.60234,-0.30115 -1.5453,0.47619 -2.02148,0 -0.23811,-0.23811 0.23811,-0.77363 0,-1.01172 -0.47619,-0.47619 -1.41719,0.30115 -2.01954,0 -0.4259,-0.21297 -0.58385,-0.7968 -1.00976,-1.00976 -0.60234,-0.30116 -1.41915,0.30115 -2.02148,0 -0.42592,-0.21298 -0.58386,-0.79681 -1.00977,-1.00977 -0.54799,-0.27398 -3.76462,0.2764 -4.04102,0 -0.23811,-0.23811 0.23811,-0.77167 0,-1.00977 -0.23811,-0.2381 -0.67304,0 -1.00976,0 -0.70258,0 -4.68549,0.18267 -5.05078,0 -0.42596,-0.21296 -0.58385,-0.7968 -1.00977,-1.00976 -0.60234,-0.30119 -1.54335,0.47619 -2.01953,0 -0.23811,-0.23811 0.23811,-0.77363 0,-1.01172 -0.20636,-0.20651 -2.63073,0.20028 -3.03125,0 -0.42591,-0.21298 -0.58385,-0.79682 -1.00977,-1.00976 -0.80813,-0.40407 -2.22311,0.40405 -3.03125,0 -0.42591,-0.21294 -0.58385,-0.79681 -1.00976,-1.00977 -0.60234,-0.30115 -1.54331,0.47619 -2.01953,0 -0.23811,-0.23807 0.23811,-0.77167 0,-1.00977 -0.24303,-0.2431 -3.79796,0.24307 -4.04102,0 -0.23811,-0.23811 0.23811,-0.77167 0,-1.00976 -0.0457,-0.0458 -4.57452,0 -5.05078,0 h -6.06055 -1.00976 c -0.33676,0 -0.71057,-0.15058 -1.01172,0 -0.42592,0.21297 -0.58385,0.7968 -1.00977,1.00976 -0.60234,0.30116 -1.41718,-0.30115 -2.01953,0 -0.42591,0.21298 -0.58385,0.79681 -1.00976,1.00977 -0.40052,0.20024 -2.82474,-0.20651 -3.03125,0 -0.23811,0.23811 0.23811,0.77167 0,1.00977 -0.0457,0.0458 -4.57453,-1e-5 -5.05078,0 -0.33676,0 -0.7717,-0.23812 -1.00977,0 -0.23811,0.2381 0.23811,0.77166 0,1.00976 -0.31294,0.31279 -4.73799,-0.31279 -5.05078,0 -0.23811,0.23811 0.23811,0.77362 0,1.01172 -0.14249,0.14245 -2.82406,0.1036 -3.03125,0 -0.42592,-0.21298 -0.58385,-0.79876 -1.00977,-1.01172 -0.30123,-0.15058 -0.77165,0.23811 -1.00976,0 -0.23811,-0.23811 0.23811,-0.77168 0,-1.00976 -0.23811,-0.23812 -0.77166,0.2381 -1.00977,0 -0.23811,-0.23812 0.23811,-0.77167 0,-1.00977 -0.23811,-0.23807 -0.77361,0.23811 -1.01172,0 -0.23811,-0.23807 0.23811,-0.77167 0,-1.00977 -0.23811,-0.23811 -0.70857,0.15058 -1.00976,0 -0.42592,-0.21297 -0.58385,-0.7968 -1.00977,-1.00976 -0.30123,-0.15058 -0.77165,0.23811 -1.00976,0 -0.23811,-0.23811 0.23811,-0.77362 0,-1.01172 -2.69375,0 0.33714,0.3371 -1.00977,-1.00977 -0.47618,-0.47619 -1.54526,0.47619 -2.02148,0 -0.23811,-0.23811 0.23811,-0.77167 0,-1.00976 -0.23811,-0.23811 -0.7717,0.23811 -1.00977,0 -0.23811,-0.23811 0.15043,-0.7086 0,-1.00977 -0.21316,-0.42592 -0.79684,-0.58384 -1.00976,-1.00976 -0.15043,-0.30116 0.2381,-0.77362 0,-1.01172 -0.23812,-0.23811 -0.7717,0.23811 -1.00977,0 -0.23811,-0.23811 0.23811,-0.77168 0,-1.00977 -0.23811,-0.23811 -0.675,0 -1.01172,0 0,-0.33672 0.23811,-0.77167 0,-1.00976 -0.23811,-0.23811 -0.77169,0.23811 -1.00977,0 -0.2381,-0.23811 0.23812,-0.77167 0,-1.00977 -0.2381,-0.23807 -0.77169,0.23811 -1.00976,0 -0.23811,-0.23807 0.23811,-0.77167 0,-1.00976 -0.23811,-0.23811 -0.77169,0.23811 -1.00977,0 -0.23811,-0.23811 0.23811,-0.77364 0,-1.01172 -0.47618,-0.47619 -1.5453,0.47619 -2.02148,0 -0.23811,-0.23811 0.23811,-0.77168 0,-1.00977 -0.47618,-0.47619 -1.54335,0.47619 -2.01953,0 -0.23811,-0.23811 0.23811,-0.77166 0,-1.00976 -0.47618,-0.47619 -1.54335,0.47619 -2.01953,0 -0.23811,-0.23808 0.23811,-0.77167 0,-1.00977 -0.27629,-0.2764 -3.49303,0.27402 -4.04102,0 -0.42591,-0.21298 -0.58381,-0.79681 -1.00976,-1.00977 -0.80811,-0.40406 -2.22312,0.40406 -3.03125,0 -0.42592,-0.21297 -0.58386,-0.79876 -1.00977,-1.01171 -0.69778,-0.34889 -4.69622,0.35459 -5.05078,0 -0.23811,-0.23811 0.23811,-0.77167 0,-1.00977 -0.0408,-0.0406 -3.67006,0 -4.04102,0 h -1.00976 c -0.33676,0 -0.77166,0.23811 -1.00977,0 -0.44897,-0.44895 0.78413,-1.90768 -1.01172,-1.00977 -2.49649,1.24825 0.34963,1.00977 -2.01953,1.00977 -0.24491,0 -2.99874,-0.0325 -3.03125,0 -0.23811,0.23811 0.23811,0.77167 0,1.00977 -0.31294,0.31279 -4.73802,-0.3128 -5.05078,0 -0.23811,0.23811 0.23811,0.77361 0,1.01171 -0.23811,0.23808 -0.67306,0 -1.00976,0 -0.52823,0 -3.77543,0.13282 -4.04102,0 -0.42592,-0.21297 -0.58385,-0.79876 -1.00977,-1.01171 -0.30122,-0.15058 -0.77165,0.23811 -1.00976,0 -0.23811,-0.23811 0.23811,-0.77167 0,-1.00977 -0.23811,-0.23807 -0.77166,0.23811 -1.00977,0 -0.23811,-0.23807 0.23811,-0.77167 0,-1.00977 -0.23811,-0.23811 -0.77165,0.23811 -1.00976,0 -0.23811,-0.23811 0.23811,-0.77167 0,-1.00976 -0.23811,-0.23811 -0.77361,0.23807 -1.01172,0 -0.23811,-0.23811 0.15042,-0.70861 0,-1.00977 -0.21279,-0.42592 -0.79679,-0.58579 -1.00977,-1.01172 -0.15042,-0.30115 0.23811,-0.77166 0,-1.00976 -0.23811,-0.23807 -0.77165,0.23811 -1.00976,0 -0.23811,-0.23807 0.23811,-0.77168 0,-1.00977 -0.23811,-0.23811 -0.77166,0.23808 -1.00977,0 -2.09004,-2.09004 3.19424,0.0825 -1.00976,-2.01953 -0.30123,-0.15057 -0.77361,0.23811 -1.01172,0 -2.09004,-2.09004 3.19424,0.0805 -1.00977,-2.02148 -0.60234,-0.30116 -1.54335,0.47619 -2.01953,0 -0.23811,-0.23811 0.23811,-0.77168 0,-1.00977 -0.24302,-0.2431 -3.79795,0.24306 -4.04102,0 -0.23811,-0.23811 0.23811,-0.77166 0,-1.00976 -0.23811,-0.23808 -0.67304,0 -1.00976,0 -0.70262,0 -4.68549,-0.18267 -5.05078,0 -0.42592,0.21297 -0.58385,0.7968 -1.00977,1.00976 -0.3651,0.18267 -4.34817,0 -5.05078,0 -0.33676,0 -0.77165,-0.23811 -1.00977,0 -0.2381,0.23807 0.23812,0.77166 0,1.00977 -0.2381,0.23807 -0.675,0 -1.01171,0 h -1.00977 -10.10156 -1.00977 c -0.33675,0 -0.77169,0.23807 -1.00976,0 -0.23811,-0.23811 0.23811,-0.77168 0,-1.00977 -0.35452,-0.35459 -4.35305,0.34885 -5.05078,0 -0.42592,-0.21297 -0.58386,-0.7968 -1.00977,-1.00976 -0.4495,-0.22473 -3.57897,0.15401 -4.04102,0 -0.45172,-0.15058 -0.58381,-0.79681 -1.00976,-1.00977 -0.61338,-0.30667 -5.44912,0.30667 -6.0625,0 -0.42592,-0.21298 -0.58385,-0.79876 -1.00977,-1.01172 -0.30123,-0.15057 -0.67304,0 -1.00976,0 h -6.06055 -1.00976 c -0.33676,0 -0.71053,-0.15057 -1.01172,0 -0.42592,0.21298 -0.58385,0.79876 -1.00977,1.01172 -0.60234,0.30119 -1.41719,-0.30115 -2.01953,0 -0.42592,0.21298 -0.58381,0.79681 -1.00977,1.00977 -3.75942,1.87972 1.73798,-1.87972 -2.02148,0 -0.42588,0.21297 -0.58385,0.7968 -1.00977,1.00976 -0.30122,0.15058 -0.77169,-0.23811 -1.00976,0 -0.23811,0.23807 0.23811,0.77166 0,1.00977 -0.23811,0.23807 -0.70861,-0.15058 -1.00977,0 -0.42591,0.21297 -0.5858,0.79681 -1.01172,1.00976 -0.30122,0.15058 -0.77169,-0.23811 -1.00976,0 -0.23811,0.23811 0.23811,0.77363 0,1.01172 -0.23811,0.23811 -0.7717,-0.23807 -1.00977,0 -0.23811,0.23811 0.23811,0.77166 0,1.00977 -2.09004,2.09004 0.0824,-3.19426 -2.01953,1.00976 -0.15042,0.30116 0.23811,0.77168 0,1.00977 -0.47618,0.47619 -1.5453,-0.47619 -2.02148,0 -0.23811,0.23811 0.23811,0.77168 0,1.00976 -0.27629,0.2764 -3.49303,-0.27397 -4.04102,0 -0.42591,0.21298 -0.58385,0.79876 -1.00976,1.01172 -0.40052,0.20024 -2.82279,-0.20651 -3.0293,0 -0.23811,0.23808 0.23811,0.77167 0,1.00977 -0.50506,0.50507 -2.52616,-0.50508 -3.03125,0 -0.23811,0.23807 0.23811,0.77167 0,1.00976 -0.47618,0.47619 -1.54335,-0.47619 -2.01953,0 -0.23811,0.23811 0.23811,0.77168 0,1.00977 -0.23811,0.23811 -0.77365,-0.23807 -1.01172,0 -0.23811,0.23811 0.23811,0.77167 0,1.00977 -0.23811,0.23811 -0.77169,-0.23811 -1.00977,0 -0.23811,0.23811 0.23811,0.77361 0,1.01171 -0.23811,0.23808 -0.77169,-0.23811 -1.00976,0 -0.23811,0.23808 0.23811,0.77168 0,1.00977 -0.23811,0.23811 -0.7717,-0.23811 -1.00977,0 -0.23811,0.23811 0.15043,0.7086 0,1.00977 -0.21316,0.42592 -0.79683,0.58384 -1.00976,1.00976 -0.15043,0.30115 0.23811,0.77166 0,1.00977 -0.23811,0.23807 -0.77361,-0.23811 -1.01172,0 -0.23811,0.23807 0.23811,0.77362 0,1.01172 -0.23811,0.23811 -0.7717,-0.23811 -1.00977,0 -0.23811,0.23811 0.15043,0.70859 0,1.00976 -0.21316,0.42592 -0.79683,0.58385 -1.00976,1.00977 -0.15043,0.30119 0.23811,0.77166 0,1.00976 -0.23811,0.23807 -0.77166,-0.23811 -1.00977,0 -0.23811,0.23807 0.23811,0.77168 0,1.00977 -0.23811,0.23811 -0.77165,-0.23811 -1.00977,0 -0.2381,0.23811 0.15043,0.71055 0,1.01172 -0.21277,0.42592 -0.79874,0.58384 -1.01171,1.00976 -0.15043,0.30116 0.23811,0.77167 0,1.00977 -0.47619,0.47619 -1.54337,-0.47619 -2.01953,0 -0.23812,0.23811 0.2381,0.77167 0,1.00976 -0.4762,0.47619 -1.4172,-0.30115 -2.01954,0 -0.42591,0.21298 -0.58579,0.79681 -1.01172,1.00977 -0.8081,0.40406 -2.22117,-0.40406 -3.02929,0 -0.42592,0.21298 -0.58384,0.79876 -1.00977,1.01172 -0.80812,0.40406 -2.22313,-0.40406 -3.03125,0 -0.42592,0.21297 -0.58384,0.7968 -1.00976,1.00976 -0.60233,0.30116 -1.54335,-0.47619 -2.01953,0 -0.23811,0.23811 0.23807,0.77168 0,1.00977 -0.24307,0.2431 -3.79795,-0.24306 -4.04102,0 -0.23811,0.23811 0.23807,0.77167 0,1.00977 -0.23811,0.2381 -0.67306,-1e-5 -1.00977,0 h -1.01171 c -2.69375,0 0.3371,-0.33712 -1.00977,1.00976 -0.23807,0.23811 -0.67304,0 -1.00977,0 h -5.05078 c -0.33671,0 -0.77166,0.23811 -1.00976,0 -0.10103,-0.10103 -0.10103,-2.92829 0,-3.0293 0.23811,-0.23811 0.77166,0.23811 1.00976,0 0.23808,-0.23811 -0.23811,-0.77167 0,-1.00976 0.23808,-0.23811 0.77167,0.23811 1.00977,0 2.09004,-2.09005 -3.19425,0.0805 1.00976,-2.02149 1.45114,-0.72556 1.16642,-0.1876 0.88672,0.16602 0.15996,-0.17981 0.41101,-0.45202 1.13477,-1.17578 0.33672,-0.33672 0.67305,-0.67306 1.00976,-1.00977 0.33672,0 0.77168,0.23811 1.00977,0 0.23811,-0.23811 -0.23807,-0.77166 0,-1.00976 0.23811,-0.23811 0.77168,0.23811 1.00977,0 0.23811,-0.23811 -0.15058,-0.71055 0,-1.01172 0.42591,-0.85183 1.59556,-1.1677 2.02148,-2.01953 0.15058,-0.30116 -0.23811,-0.77167 0,-1.00977 0.23807,-0.23807 0.77168,0.23811 1.00977,0 0.23811,-0.23807 -0.23808,-0.77167 0,-1.00976 0.23811,-0.23811 0.77167,0.23811 1.00976,0 0.23811,-0.23811 -0.23807,-0.77364 0,-1.01172 0.23811,-0.23811 0.77166,0.23807 1.00977,0 0.23807,-0.23811 -0.23811,-0.77168 0,-1.00977 0.23807,-0.23811 0.77361,0.23811 1.01172,0 0.23807,-0.23811 -0.15058,-0.70859 0,-1.00976 0.21297,-0.42591 0.7968,-0.58385 1.00976,-1.00977 0.15058,-0.30115 -0.15058,-0.7086 0,-1.00977 0.21298,-0.42592 0.79682,-0.5858 1.00977,-1.01171 0.20027,-0.40052 -0.20652,-2.82279 0,-3.0293 0.23811,-0.23811 0.77166,0.23807 1.00976,0 0.20652,-0.20651 -0.20027,-2.63073 0,-3.03125 0.21298,-0.42592 0.79681,-0.58385 1.00977,-1.00977 0.13058,-0.26116 0,-5.34454 0,-6.06054 v -5.05078 c 0,-0.33672 0.23807,-0.77168 0,-1.00977 -0.23811,-0.23811 -0.77168,0.23811 -1.00977,0 -0.47619,-0.47619 0.30116,-1.41915 0,-2.02149 -0.21297,-0.4259 -0.7968,-0.58384 -1.00976,-1.00976 -0.15058,-0.30115 0.23811,-0.77167 0,-1.00977 -0.23808,-0.23811 -0.77167,0.23811 -1.00977,0 -0.50507,-0.50507 0.50508,-2.52617 0,-3.03125 -0.23807,-0.23811 -0.77168,0.23811 -1.00976,0 -0.23811,-0.23811 0.23807,-0.77167 0,-1.00976 -0.23811,-0.23811 -0.77364,0.23811 -1.01172,0 -0.47619,-0.47619 0.47619,-1.54334 0,-2.01953 -0.23811,-0.23811 -0.77167,0.23811 -1.00977,0 -0.23807,-0.23811 0.23811,-0.77363 0,-1.01172 -0.23807,-0.23811 -0.77166,0.23811 -1.00976,0 -0.23808,-0.23811 0.23811,-0.77168 0,-1.00977 -0.23808,-0.23811 -0.77168,0.23811 -1.00977,0 -0.23811,-0.23811 0.23807,-0.77166 0,-1.00976 -0.23811,-0.23811 -0.77168,0.23811 -1.00977,0 -0.23811,-0.23811 0.23808,-0.77167 0,-1.00977 -0.23811,-0.23811 -0.77362,0.23811 -1.01171,0 -0.23808,-0.23811 0.23811,-0.77167 0,-1.00976 -0.23808,-0.23811 -0.77167,0.23807 -1.00977,0 -0.23807,-0.23811 0.15058,-0.71055 0,-1.01172 -0.21294,-0.42592 -0.7968,-0.58385 -1.00977,-1.00977 -0.15057,-0.30119 0.15058,-0.70859 0,-1.00976 -0.21297,-0.42592 -0.79681,-0.58385 -1.00976,-1.00977 -0.15058,-0.30115 0.15058,-0.70859 0,-1.00977 -0.21298,-0.42591 -0.79681,-0.5858 -1.00977,-1.01171 -0.30115,-0.60234 0.47619,-1.54335 0,-2.01954 -0.23807,-0.23811 -0.77361,0.23808 -1.01172,0 -0.47619,-0.47619 0.30119,-1.41719 0,-2.01953 -0.21293,-0.42591 -0.7968,-0.5858 -1.00976,-1.01172 -0.15058,-0.30115 0.23811,-0.77167 0,-1.00976 -0.23811,-0.23811 -0.77168,0.23811 -1.00977,0 -0.23811,-0.23811 0.15058,-0.7086 0,-1.00977 -0.21297,-0.42592 -0.7968,-0.58384 -1.00976,-1.00976 -0.15058,-0.30119 0.23811,-0.77167 0,-1.00977 -0.23811,-0.23811 -0.77167,0.23811 -1.00977,0 -0.23807,-0.23811 0.15058,-0.71055 0,-1.01172 -0.42592,-0.85184 -1.59558,-1.16769 -2.02148,-2.01953 -0.15058,-0.30115 0.23807,-0.77166 0,-1.00976 -0.23811,-0.23811 -0.77167,0.23811 -1.00977,0 -0.23811,-0.23811 0.23811,-0.77168 0,-1.00977 -0.23811,-0.23811 -0.77166,0.23807 -1.00976,0 -0.23808,-0.23811 0.15057,-0.70861 0,-1.00976 -0.21298,-0.42592 -0.79681,-0.58581 -1.00977,-1.01172 -0.15058,-0.30119 0.23811,-0.77167 0,-1.00977 -0.23811,-0.23811 -0.77363,0.23811 -1.01172,0 -0.4762,-0.47619 0.30115,-1.4172 0,-2.01953 -0.21297,-0.42592 -0.7968,-0.58384 -1.00976,-1.00977 -0.15058,-0.301145 0.15057,-0.710547 0,-1.011715 -0.21298,-0.425919 -0.79681,-0.583847 -1.00977,-1.009766 -0.30115,-0.602339 0.47619,-1.543341 0,-2.019531 -0.23811,-0.23811 -0.77168,0.23811 -1.00976,0 -0.23812,-0.23811 0.15056,-0.708598 0,-1.009766 -0.21294,-0.425917 -0.79682,-0.5858 -1.00977,-1.011718 -0.15058,-0.301153 0.23811,-0.771671 0,-1.009766 -0.23811,-0.23811 -0.77362,0.23811 -1.01172,0 -0.23811,-0.23811 0.23811,-0.77167 0,-1.009766 -0.23811,-0.238109 -0.77167,0.238111 -1.00977,0 -0.2381,-0.238109 0.23812,-0.77167 0,-1.009765 -0.2381,-0.23811 -0.77167,0.23811 -1.00976,0 -0.23811,-0.23811 0.15058,-0.708598 0,-1.009766 -0.49701,-0.994019 -3.544,-3.046996 -4.04102,-4.041015 -0.15057,-0.301153 0.23811,-0.771671 0,-1.009766 -0.23811,-0.238072 -0.70859,0.150576 -1.00976,0 -0.42591,-0.212976 -0.58385,-0.798761 -1.00977,-1.011719 -0.30115,-0.150576 -0.77166,0.23811 -1.00976,0 -0.23811,-0.23811 0.15057,-0.708594 0,-1.009765 -0.42592,-0.851834 -1.59557,-1.167694 -2.02149,-2.019532 -0.15057,-0.301152 0.23811,-0.77167 0,-1.009765 -0.23811,-0.23811 -0.77166,0.23811 -1.00976,0 -0.23811,-0.23811 0.23811,-0.773624 0,-1.011719 -0.23811,-0.23811 -0.77168,0.23811 -1.00977,0 -0.23811,-0.23811 0.23811,-0.771671 0,-1.009766 -0.23811,-0.23811 -0.77167,0.238111 -1.00976,0 -0.23811,-0.23811 0.23811,-0.77167 0,-1.009765 -0.23811,-0.23811 -0.77362,0.23811 -1.01172,0 -0.23811,-0.23811 0.15057,-0.708598 0,-1.009766 -0.21294,-0.425919 -0.79681,-0.583848 -1.00977,-1.009765 -0.15058,-0.301153 0.23811,-0.773624 0,-1.011719 -0.23811,-0.23811 -0.77167,0.23811 -1.00976,0 -0.23811,-0.23811 0.23811,-0.771671 0,-1.009766 -0.23811,-0.23811 -0.77168,0.23811 -1.00977,0 -0.23811,-0.23811 0.23811,-0.771671 0,-1.009765 -0.23811,-0.238111 -0.77167,0.238109 -1.00977,0 -0.23807,-0.238111 0.23811,-0.771671 0,-1.009766 -0.23807,-0.23811 -0.77362,0.23811 -1.01171,0 -0.23811,-0.23811 0.23811,-0.771671 0,-1.009766 -0.23811,-0.23811 -0.77168,0.23811 -1.00977,0 -0.23811,-0.23811 0.23807,-0.773624 0,-1.011718 -0.47619,-0.476191 -1.54334,0.476189 -2.01953,0 -0.23807,-0.238111 0.23811,-0.771667 0,-1.009766 -0.23807,-0.23811 -0.7086,0.150576 -1.00977,0 -0.42592,-0.212977 -0.5858,-0.796808 -1.01172,-1.009766 -0.30119,-0.150576 -0.77167,0.23811 -1.00976,0 -0.23811,-0.23811 0.23811,-0.771666 0,-1.009765 -0.47619,-0.476191 -1.54334,0.476194 -2.01953,0 -0.23811,-0.238111 0.23811,-0.771671 0,-1.009766 -0.23811,-0.23811 -0.7086,0.150576 -1.00977,0 -0.42592,-0.212976 -0.58581,-0.798757 -1.01172,-1.011719 -0.30115,-0.150576 -0.77166,0.23811 -1.00976,0 -0.23807,-0.23811 0.23811,-0.77167 0,-1.009765 -0.23807,-0.238111 -0.7086,0.150576 -1.00977,0 -0.42592,-0.212977 -0.58385,-0.796805 -1.00976,-1.009766 -0.30116,-0.150576 -0.7086,0.150576 -1.00977,0 -0.42592,-0.212976 -0.5858,-0.796808 -1.01172,-1.009766 -0.30115,-0.150576 -0.77166,0.238111 -1.00976,0 -0.23808,-0.23811 0.23811,-0.77167 0,-1.009765 -0.23808,-0.23811 -0.77168,0.23811 -1.00977,0 -0.23811,-0.23811 0.23807,-0.773624 0,-1.011719 -0.23811,-0.23811 -0.7086,0.150576 -1.00977,0 -0.72734,-0.727352 -0.97998,-1.003016 -1.13867,-1.181641 0.28109,0.353463 0.57596,0.901258 -0.88281,0.171875 -0.42592,-0.212976 -0.58386,-0.796808 -1.00976,-1.009765 -0.30116,-0.150577 -0.77168,0.23811 -1.00977,0 -0.23811,-0.23811 0.23807,-0.771671 0,-1.009766 -0.23811,-0.23811 -0.70859,0.150577 -1.00977,0 -0.4259,-0.212976 -0.58384,-0.796808 -1.00976,-1.009766 -0.30115,-0.150575 -0.71055,0.150577 -1.01172,0 -0.42592,-0.212975 -0.58386,-0.798757 -1.00977,-1.011718 -0.30115,-0.150577 -0.77166,0.23811 -1.00976,0 -0.23807,-0.23811 0.23811,-0.771671 0,-1.009766 -0.50507,-0.505077 -2.52618,0.505077 -3.03125,0 -0.23811,-0.23811 0.23807,-0.77167 0,-1.009766 -0.3128,-0.312792 -4.73799,0.312794 -5.05078,0 -0.23811,-0.238109 0.23811,-0.771674 0,-1.009765 -0.0325,-0.0325 -2.78432,0 -3.0293,0 h -15.15234 c -0.24499,0 -2.99876,0.0325 -3.03125,0 -0.2764,-0.276397 0.27401,-3.493018 0,-4.041016 -0.21298,-0.425915 -0.79681,-0.583847 -1.00977,-1.009765 -0.20028,-0.400517 0.20651,-2.824737 0,-3.03125 -0.23811,-0.238111 -0.77168,0.23811 -1.00976,0 -0.4762,-0.476191 0.47618,-1.543341 0,-2.019532 -0.23812,-0.23811 -0.77167,0.238111 -1.00977,0 -0.23811,-0.23811 0.23811,-0.77167 0,-1.009765 -0.23811,-0.23811 -0.77167,0.23811 -1.00977,0 -0.47619,-0.47619 0.47619,-1.545293 0,-2.021485 -0.23811,-0.238095 -0.77362,0.238095 -1.01172,0 -0.2381,-0.238095 0.23812,-0.771671 0,-1.009765 -0.2381,-0.238095 -0.70859,0.150584 -1.00976,0 -0.42591,-0.212959 -0.58385,-0.796807 -1.00977,-1.009766 -0.30119,-0.150584 -0.77167,0.238095 -1.00976,0 -0.23811,-0.238095 0.23811,-0.771671 0,-1.009765 -0.23811,-0.238096 -0.77168,0.238094 -1.00977,0 -2.09005,-2.090041 3.1923,0.08052 -1.01172,-2.021485 -2.69374,0 0.33711,0.337103 -1.00976,-1.009765 -0.47619,-0.476191 -1.54334,0.476188 -2.01953,0 -0.23811,-0.238096 0.23811,-0.77167 0,-1.009766 -0.23811,-0.238095 -0.77167,0.238095 -1.00977,0 -0.23807,-0.238095 0.23811,-0.771671 0,-1.009766 -0.23807,-0.238095 -0.77362,0.238095 -1.01172,0 -0.23811,-0.238095 0.23811,-0.773624 0,-1.011718 -0.23811,-0.238096 -0.7086,0.150582 -1.00976,0 -0.42593,-0.212958 -0.58386,-0.796807 -1.00977,-1.009766 -0.30115,-0.150584 -0.70859,0.150584 -1.00976,0 -0.42591,-0.212958 -0.58385,-0.796807 -1.00977,-1.009766 -0.30115,-0.150584 -0.77363,0.238095 -1.01172,0 -0.23811,-0.238095 0.23807,-0.77167 0,-1.009765 -0.23811,-0.238095 -0.7086,0.150584 -1.00976,0 -0.42592,-0.212958 -0.58385,-0.796807 -1.00977,-1.009766 -0.30115,-0.150584 -0.77167,0.238095 -1.00977,0 -0.23811,-0.238095 0.23811,-0.773624 0,-1.011719 -0.23811,-0.238095 -0.70859,0.150584 -1.00976,0 -0.42592,-0.212957 -0.58581,-0.796806 -1.01172,-1.009765 -0.60234,-0.301168 -1.54334,0.47619 -2.01953,0 -0.23807,-0.238095 0.23811,-0.77167 0,-1.009766 -0.47619,-0.47619 -1.4172,0.301172 -2.01953,0 -0.42593,-0.212957 -0.5858,-0.796807 -1.01172,-1.009766 -0.30115,-0.150584 -0.77166,0.238095 -1.00977,0 -0.23807,-0.238095 0.23811,-0.771669 0,-1.009765 -0.47618,-0.47619 -1.4172,0.301168 -2.01953,0 -0.72683,-0.726834 -0.97784,-1.004797 -1.13672,-1.183594 0.28088,0.353494 0.57281,0.90066 -0.88476,0.171875 -0.42592,-0.212957 -0.58385,-0.796807 -1.00977,-1.009766 -0.60234,-0.301167 -1.54334,0.476191 -2.01953,0 -0.23807,-0.238095 0.23811,-0.77167 0,-1.009765 -0.47619,-0.476191 -1.41914,0.301168 -2.02148,0 -0.42592,-0.212958 -0.58385,-0.796807 -1.00977,-1.009766 -0.80812,-0.404061 -2.22117,0.404061 -3.0293,0 -0.42591,-0.212957 -0.58581,-0.796807 -1.01171,-1.009766 -0.30743,-0.153712 -2.57437,0 -3.0293,0 H 205.06055 199 197.99023 c -0.33671,0 -0.70859,0.150584 -1.00976,0 -0.42592,-0.212956 -0.5858,-0.798759 -1.01172,-1.011718 -0.26117,-0.130587 -5.34455,0 -6.06055,0 -0.52823,0 -3.7754,0.132805 -4.04101,0 -0.42592,-0.212958 -0.58386,-0.796808 -1.00977,-1.009766 -0.40052,-0.200258 -2.82279,0.20651 -3.0293,0 -0.2381,-0.238095 0.23808,-0.771671 0,-1.009766 -0.24308,-0.243071 -3.79794,0.243073 -4.04101,0 -0.23811,-0.238094 0.23807,-0.771669 0,-1.009765 -0.10103,-0.101016 -2.93023,-0.101016 -3.03125,0 -0.23811,0.238095 0.23811,0.771671 0,1.009765 -0.23811,0.238096 -0.67305,10e-7 -1.00977,0 -0.47629,0 -5.005,-0.04578 -5.05078,0 -0.23811,0.238096 0.23807,0.77167 0,1.009766 -0.0325,0.0325 -2.78626,0 -3.03125,0 -0.52823,0 -3.77345,-0.132805 -4.03906,0 -0.42592,0.212958 -0.5858,0.796807 -1.01172,1.009766 -0.40051,0.200258 -2.82279,-0.206514 -3.0293,0 -0.23811,0.238095 0.23808,0.773624 0,1.011718 -0.47619,0.476191 -1.41719,-0.301166 -2.01953,0 -0.42592,0.212958 -0.58579,0.796807 -1.01172,1.009766 -0.30115,0.150584 -0.77167,-0.238095 -1.00976,0 -0.23811,0.238095 0.23807,0.77167 0,1.009766 -0.47619,0.47619 -1.54334,-0.476191 -2.01953,0 -0.23807,0.238095 0.23811,0.771671 0,1.009765 -0.50507,0.505078 -2.52617,-0.505076 -3.03125,0 -0.23807,0.238095 0.23811,0.771671 0,1.009766 -0.23807,0.238095 -0.67305,0 -1.00977,0 0,0.336718 0.23811,0.773624 0,1.011719 -0.23811,0.238095 -0.77167,-0.238095 -1.00976,0 -0.23811,0.238095 0.23811,0.77167 0,1.009765 -0.23811,0.238095 -0.77168,-0.238095 -1.00977,0 -0.47619,0.47619 0.47619,1.543341 0,2.019532 -0.23811,0.238095 -0.77362,-0.238095 -1.01172,0 -0.50507,0.505076 0.50508,2.526172 0,3.03125 -0.23811,0.238095 -0.77166,-0.238095 -1.00976,0 -0.47619,0.476189 0.47619,1.54334 0,2.019531 -0.23811,0.238095 -0.77168,-0.238095 -1.00977,0 -0.23811,0.238095 0.15058,0.708596 0,1.009766 -0.21298,0.425916 -0.79681,0.5858 -1.00976,1.011718 -0.15058,0.301168 0.23806,0.771671 0,1.009766 -0.23812,0.238095 -0.77167,-0.238095 -1.00977,0 -0.23811,0.238095 0.23811,0.77167 0,1.009766 -0.23811,0.238094 -0.77362,-0.238096 -1.01172,0 -0.23811,0.238094 0.23811,0.77167 0,1.009765 -0.23811,0.238095 -0.77167,-0.238095 -1.00977,0 -0.2381,0.238095 0.23812,0.771671 0,1.009766 -0.2381,0.238095 -0.77167,-0.238095 -1.00976,0 -0.23811,0.238095 0.23811,0.773623 0,1.011719 -0.23811,0.238094 -0.77167,-0.238096 -1.00977,0 -0.23811,0.238094 0.23811,0.77167 0,1.009765 -0.23811,0.238095 -0.77166,-0.238095 -1.00976,0 -0.23811,0.238095 0.23811,0.771669 0,1.009766 -0.23811,0.238095 -0.77363,-0.238095 -1.01172,0 -0.47619,0.47619 0.47619,1.543341 0,2.019531 -0.23811,0.23811 -0.77167,-0.23811 -1.00977,0 -0.47619,0.47619 0.30116,1.419149 0,2.021484 -0.21297,0.425919 -0.7968,0.583847 -1.00976,1.009766 -0.15058,0.301153 0.23811,0.771671 0,1.009766 -0.23811,0.23811 -0.77167,-0.238111 -1.00977,0 -0.47619,0.47619 0.47619,1.545294 0,2.021484 -0.23811,0.23811 -0.77167,-0.23811 -1.00976,0 -0.23811,0.23811 0.15057,0.708598 0,1.009766 -0.21298,0.425918 -0.58581,0.796808 -1.01172,1.009765 -0.2072,0.103597 -2.88684,0.142451 -3.0293,0 -0.23811,-0.238072 0.23811,-0.77167 0,-1.009765 -0.23811,-0.238111 -0.7086,0.150576 -1.00976,0 -0.85184,-0.425919 -1.16965,-1.595566 -2.02149,-2.021485 -0.30115,-0.150576 -0.77167,0.23811 -1.00976,0 -0.23811,-0.23811 0.23811,-0.77167 0,-1.009765 -0.23811,-0.238111 -0.77168,0.23811 -1.00977,0 -0.23811,-0.238111 0.15058,-0.708598 0,-1.009766 -0.21298,-0.425919 -0.79681,-0.583847 -1.00977,-1.009766 -0.13281,-0.265625 0,-3.512787 0,-4.041015 0,-0.45493 -0.15371,-2.723826 0,-3.03125 0.21298,-0.425918 0.79681,-0.583848 1.00977,-1.009766 0.31744,-0.634903 -0.31748,-3.406113 0,-4.041015 0.21294,-0.425917 0.7968,-0.583849 1.00977,-1.009766 0.18266,-0.365307 0,-4.34818 0,-5.050781 0,-0.702601 0.18266,-4.685477 0,-5.050782 -0.21298,-0.425916 -0.79682,-0.583848 -1.00977,-1.009765 -0.13058,-0.261177 0,-5.344548 0,-6.060547 V 9.2695312 c 0,-0.336718 0.23811,-0.7736236 0,-1.0117187 -0.23811,-0.2380951 -0.77167,0.2380951 -1.00977,0 -0.20651,-0.2065134 0.20024,-2.6287796 0,-3.0292969 -0.21297,-0.4259176 -0.79876,-0.583848 -1.01171,-1.0097656 -0.15058,-0.3011679 0.15057,-0.7105494 0,-1.0117188 -0.21298,-0.4259175 -0.79681,-0.5838478 -1.00977,-1.0097656 -0.15058,-0.3011694 0.23811,-0.7716704 0,-1.0097656 -0.23811,-0.23809512 -0.70861,0.1505847 -1.00977,0 C 116.68572,0.94149218 116.29931,0.48307359 115.92578,0 Z"
       transform="scale(0.26458333)"
       id="path827"
       inkscape:connector-curvature="0" />
  </g>
</svg>
