<?xml version="1.0" encoding="UTF-8" standalone="no"?>
<!-- Created with Inkscape (http://www.inkscape.org/) -->

<svg
   xmlns:dc="http://purl.org/dc/elements/1.1/"
   xmlns:cc="http://creativecommons.org/ns#"
   xmlns:rdf="http://www.w3.org/1999/02/22-rdf-syntax-ns#"
   xmlns:svg="http://www.w3.org/2000/svg"
   xmlns="http://www.w3.org/2000/svg"
   xmlns:sodipodi="http://sodipodi.sourceforge.net/DTD/sodipodi-0.dtd"
   xmlns:inkscape="http://www.inkscape.org/namespaces/inkscape"
   width="169.33333mm"
   height="127mm"
   viewBox="0 0 169.33333 127"
   version="1.1"
   id="svg8"
   sodipodi:docname="2_7_tunica_media.svg"
   inkscape:version="0.92.4 (5da689c313, 2019-01-14)">
  <defs
     id="defs2" />
  <sodipodi:namedview
     id="base"
     pagecolor="#ffffff"
     bordercolor="#666666"
     borderopacity="1.0"
     inkscape:pageopacity="0.0"
     inkscape:pageshadow="2"
     inkscape:zoom="1.4"
     inkscape:cx="309.82346"
     inkscape:cy="232.39077"
     inkscape:document-units="mm"
     inkscape:current-layer="layer3"
     showgrid="false"
     fit-margin-top="0"
     fit-margin-left="0"
     fit-margin-right="0"
     fit-margin-bottom="0"
     inkscape:window-width="1920"
     inkscape:window-height="1001"
     inkscape:window-x="-9"
     inkscape:window-y="-9"
     inkscape:window-maximized="1" />
  <metadata
     id="metadata5">
    <rdf:RDF>
      <cc:Work
         rdf:about="">
        <dc:format>image/svg+xml</dc:format>
        <dc:type
           rdf:resource="http://purl.org/dc/dcmitype/StillImage" />
        <dc:title></dc:title>
      </cc:Work>
    </rdf:RDF>
  </metadata>
  <g
     inkscape:groupmode="layer"
     id="layer3"
     inkscape:label="tunica_media"
     style="display:inline">
    <path
       style="fill:none;stroke:#000000;stroke-width:0.99999994px;stroke-linecap:butt;stroke-linejoin:miter;stroke-opacity:1"
       d="m 0,0 v 177.14258 c 0.14652015,0.0733 2.0418455,0.10072 2.1425781,0 0.1683587,-0.16834 -0.1683587,-0.54649 0,-0.71485 0.1683587,-0.16837 0.546485,0.16834 0.7148438,0 0.1683587,-0.16837 -0.1683587,-0.54453 0,-0.71289 0.1683587,-0.16834 0.5464849,0.16834 0.7148437,0 0.1683587,-0.16834 -0.1683587,-0.54648 0,-0.71484 0.1683587,-0.16838 0.5445318,0.16834 0.7128906,0 0.4776118,-0.47761 -0.4776118,-0.95012 0,-1.42773 0.1683591,-0.16834 0.5464851,0.16834 0.7148438,0 0.3571427,-0.35713 -0.3571427,-1.7874 0,-2.14454 0.1683591,-0.16837 0.5464851,0.16834 0.7148438,0 0.3571424,-0.35712 -0.3571427,-1.78542 0,-2.14257 0.1683588,-0.16834 0.5445319,0.16834 0.7128906,0 0.4776121,-0.47762 -0.4776117,-0.95013 0,-1.42774 0.168359,-0.16838 0.546485,0.16834 0.7148437,0 0.3367181,-0.33672 -0.2129575,-1.00376 0,-1.42969 0.150584,-0.30115 0.5642591,-0.41173 0.7148438,-0.71289 0.1064806,-0.21297 -0.1683591,-0.54648 0,-0.71484 0.168359,-0.16834 0.546485,0.16838 0.7148437,0 0.1954432,-0.19544 -0.1937461,-2.46993 0,-2.85742 0.150584,-0.30115 0.5623062,-0.41368 0.7128906,-0.71485 0.2466898,-0.49338 -0.2507298,-3.31958 0,-3.57031 0.1683591,-0.16834 0.5464851,0.16834 0.7148438,0 0.357143,-0.35713 -0.3571427,-1.78543 0,-2.14258 0.168359,-0.16834 0.546485,0.16834 0.714844,0 0.336718,-0.33671 -0.336718,-1.09297 0,-1.42968 0.168359,-0.16834 0.544532,0.16834 0.71289,0 0.168359,-0.16834 -0.168359,-0.54453 0,-0.71289 0.168359,-0.16834 0.546485,0.16837 0.714844,0 0.168359,-0.16834 -0.168359,-0.54649 0,-0.71485 1.904762,0 -0.237537,0.23755 0.714844,-0.71484 0.168359,-0.16838 0.546485,0.16834 0.714844,0 0.168359,-0.16838 -0.168359,-0.54648 0,-0.71485 0.336718,-0.33671 1.091017,0.33672 1.427734,0 0.168359,-0.16834 -0.168359,-0.54454 0,-0.71289 0.357143,-0.35716 1.785435,0.35713 2.142578,0 0.168359,-0.16837 -0.168359,-0.54648 0,-0.71484 0.04209,-0.0421 0.09414,-0.0624 0.150391,-0.0703 C 17.461734,149.906 17.678851,150 17.857422,150 h 5.714844 0.71289 c 0.238095,0 0.546485,-0.16834 0.714844,0 0.168359,0.16838 -0.168359,0.54648 0,0.71484 1.904762,0 -0.237537,-0.23949 0.714844,0.71289 0.336718,0.33672 1.091017,-0.33671 1.427734,0 0.336718,0.33672 -0.336718,1.09297 0,1.42969 0.168359,0.16834 0.546485,-0.16838 0.714844,0 0.168359,0.16834 -0.106481,0.50189 0,0.71485 0.513858,0.51386 0.709479,0.69036 0.835937,0.80273 -0.249973,-0.1985 -0.636102,-0.40502 -0.121093,0.625 0.150584,0.30115 0.562306,0.41368 0.71289,0.71484 0.106481,0.21294 -0.168359,0.54454 0,0.71289 0.168359,0.16834 0.546485,-0.16837 0.714844,0 0.168359,0.16834 -0.106481,0.50189 0,0.71485 0.150584,0.30115 0.564259,0.41367 0.714844,0.71484 0.10648,0.21298 -0.168359,0.54649 0,0.71485 0.168359,0.16834 0.544532,-0.16834 0.71289,0 0.336718,0.33671 -0.336718,1.09101 0,1.42773 0.168359,0.16834 0.546485,-0.16838 0.714844,0 0.336718,0.33672 -0.336718,1.09101 0,1.42773 0.168359,0.16834 0.546485,-0.16837 0.714844,0 0.171878,0.1719 -0.171878,2.68555 0,2.85743 0.168359,0.16834 0.546485,-0.16834 0.714844,0 0.02298,0.0231 0,1.96934 0,2.14257 V 170 c 0,0.23811 -0.168359,0.54648 0,0.71484 0.168359,0.16834 0.544532,-0.16834 0.71289,0 0.221178,0.22118 -0.221178,3.34915 0,3.57032 0.168359,0.16837 0.546485,-0.16834 0.714844,0 0.168359,0.16837 -0.168359,0.54648 0,0.71484 0.168359,0.16834 0.546485,-0.16838 0.714844,0 0.168359,0.16834 -0.168359,0.54648 0,0.71484 0.168359,0.16834 0.544532,0.16834 0.71289,0 0.168359,-0.16834 -0.168359,-0.54648 0,-0.71484 0.168359,-0.16838 0.501885,0.10647 0.714844,0 2.972686,-1.48634 -0.763039,0.0501 0.714844,-1.42773 0.168378,-0.16834 0.546485,0.16834 0.714844,0 0.168378,-0.16834 -0.10647,-0.50189 0,-0.71485 0.150576,-0.30115 0.562306,-0.41367 0.71289,-0.71484 0.10647,-0.21298 -0.16834,-0.54649 0,-0.71485 0.168378,-0.16837 0.546485,0.16834 0.714844,0 0.336718,-0.33671 -0.336718,-1.09101 0,-1.42773 0.168378,-0.16834 0.546485,0.16834 0.714844,0 0.336718,-0.33672 -0.212977,-1.00181 0,-1.42773 0.150576,-0.30116 0.562306,-0.41368 0.71289,-0.71485 0.10647,-0.21297 -0.16834,-0.54648 0,-0.71484 0.168341,-0.16834 0.546485,0.16838 0.714844,0 0.16834,-0.16834 -0.16834,-0.54648 0,-0.71485 0.16834,-0.16834 0.546485,0.16838 0.714844,0 0.168378,-0.16834 -0.106469,-0.49994 0,-0.71289 0.150576,-0.30115 0.564256,-0.41367 0.714844,-0.71484 0.106469,-0.21298 -0.168341,-0.54648 0,-0.71484 0.16834,-0.16834 0.544531,0.16834 0.71289,0 0.16834,-0.16834 -0.16834,-0.54454 0,-0.71289 0.16834,-0.16838 0.501883,0.10646 0.714844,0 0.60234,-0.30119 0.825395,-1.12852 1.427734,-1.42969 0.212977,-0.10647 0.546485,0.16834 0.714844,0 0.16834,-0.16834 -0.168378,-0.54649 0,-0.71485 0.336718,-0.33671 1.003773,0.21298 1.429688,0 0.301152,-0.15057 0.411722,-0.56231 0.71289,-0.71289 0.425919,-0.21297 1.09297,0.33672 1.429688,0 0.16834,-0.16834 -0.168378,-0.54648 0,-0.71484 0.336718,-0.33672 1.091016,0.33672 1.427734,0 0.16834,-0.16838 -0.168378,-0.54648 0,-0.71484 0.357128,-0.35713 1.785436,0.35716 2.142578,0 0.168378,-0.16834 -0.16834,-0.54454 0,-0.71289 0.357128,-0.35713 1.785436,0.35712 2.142578,0 0.168341,-0.16834 -0.16834,-0.54649 0,-0.71485 0.146041,-0.146 1.86132,0.14162 2.144532,0 0.301152,-0.15057 0.411719,-0.56426 0.71289,-0.71484 0.425915,-0.21298 1.09297,0.33672 1.429688,0 0.168378,-0.16834 -0.16834,-0.54649 0,-0.71485 0.168378,-0.16837 0.474795,0 0.71289,0 0.336794,0 3.539894,0.0325 3.572266,0 0.16834,-0.16837 -0.16834,-0.54453 0,-0.71289 0.07143,-0.0714 2.071149,-0.0714 2.142578,0 0.16834,0.16834 -0.16834,0.54454 0,0.71289 0.357128,0.35713 1.785436,-0.35712 2.142578,0 0.16834,0.16834 -0.168378,0.54649 0,0.71485 0.357128,0.35713 1.785436,-0.35717 2.142578,0 0.168341,0.16834 -0.16834,0.54648 0,0.71484 0.336718,0.33672 1.09297,-0.33672 1.429688,0 0.16834,0.16834 -0.168378,0.54649 0,0.71485 0.336718,0.33671 1.091016,-0.33672 1.427734,0 0,1.90476 -0.237552,-0.23951 0.714844,0.71289 0.16834,0.16837 -0.16834,0.54648 0,0.71484 0.336718,0.33672 1.091016,-0.33672 1.427734,0 0.168341,0.16834 -0.16834,0.54648 0,0.71484 0.168341,0.16834 0.546485,-0.16834 0.714844,0 0.168378,0.16834 -0.16834,0.54453 0,0.71289 0.168378,0.16834 0.546485,-0.16837 0.714844,0 0.16834,0.16834 -0.16834,0.54649 0,0.71485 0.16834,0.16834 0.546485,-0.16834 0.714844,0 0.16834,0.16834 -0.10647,0.50188 0,0.71484 0.30119,0.60235 1.126566,0.82541 1.427734,1.42774 0.106469,0.21297 -0.16834,0.54648 0,0.71484 0.16834,0.16838 0.546485,-0.16834 0.714844,0 0.168378,0.16838 -0.16834,0.54648 0,0.71484 1.904761,0 -0.239505,-0.23949 0.71289,0.71289 0.168341,0.16838 0.546485,-0.16834 0.714844,0 0.16834,0.16838 -0.106469,0.50189 0,0.71485 0.150577,0.30115 0.56426,0.41367 0.714844,0.71484 0.106469,0.21298 -0.16834,0.54649 0,0.71485 0.336718,0.33671 1.091016,-0.33672 1.427734,0 0.16834,0.16837 -0.168378,0.54453 0,0.71289 0.336718,0.33671 1.09297,-0.33672 1.429688,0 0.16834,0.16834 -0.168378,0.54648 0,0.71484 0.16834,0.16834 0.544531,-0.16834 0.71289,0 0.168341,0.16834 -0.16834,0.54648 0,0.71484 0.171893,0.17186 2.685541,-0.17189 2.857422,0 0.16834,0.16834 -0.168378,0.54454 0,0.71289 0.171893,0.1719 2.685544,-0.17189 2.857422,0 0.168378,0.16834 -0.16834,0.54649 0,0.71485 0.168378,0.16834 0.476749,0 0.714844,0 h 0.714844 c 0.262299,0 2.826725,-0.0287 2.855468,0 0.168341,0.16834 -0.16834,0.54648 0,0.71484 0.146041,0.14604 1.861324,-0.14158 2.144532,0 0.301152,0.15058 0.411722,0.56425 0.71289,0.71485 0.212977,0.10646 0.546485,-0.16834 0.714844,0 0.16834,0.16834 -0.16834,0.54453 0,0.71289 1.90476,0 -0.237548,-0.23752 0.71484,0.71484 0.16834,0.16834 0.54454,-0.16838 0.71289,0 0.33672,0.33672 -0.33671,1.09101 0,1.42773 0.16834,0.16834 0.54649,-0.16837 0.71485,0 0.16834,0.16834 -0.10647,0.50189 0,0.71485 0.15057,0.30115 0.56426,0.41367 0.71484,0.71484 0.10647,0.21298 -0.16838,0.54648 0,0.71485 0.16834,0.16834 0.54649,-0.16838 0.71485,0 0.16834,0.16834 -0.16834,0.54454 0,0.71289 0.16834,0.16834 0.54454,-0.16834 0.71289,0 0.33671,0.33671 -0.33672,1.09296 0,1.42968 0.16837,0.16834 0.54648,-0.16837 0.71484,0 0.33672,0.33672 -0.21298,1.00182 0,1.42774 0.15058,0.30115 0.56425,0.41367 0.71484,0.71484 0.10647,0.21298 0,0.47675 0,0.71485 v 0.71289 3.57226 3.57031 0.71485 c 0,0.23807 0.10647,0.50188 0,0.71484 -0.15057,0.30115 -0.56426,0.41367 -0.71484,0.71485 -0.19374,0.38748 0.19544,2.66003 0,2.85546 -0.16838,0.16834 -0.54648,-0.16834 -0.71484,0 -0.19544,0.19544 0.19373,2.46993 0,2.85743 -0.15058,0.30115 -0.56231,0.41367 -0.71289,0.71484 -0.21298,0.42592 0.21297,1.00181 0,1.42773 -0.15058,0.30116 -0.56426,0.41368 -0.71485,0.71485 -0.10647,0.21297 0.10647,0.50188 0,0.71484 -0.15057,0.30115 -0.56426,0.41367 -0.71484,0.71485 -0.21298,0.42591 0.33672,1.09101 0,1.42773 -0.16834,0.16834 -0.54649,-0.16838 -0.71485,0 -0.33671,0.33672 0.21298,1.00182 0,1.42773 -0.15057,0.30116 -0.56231,0.41368 -0.71289,0.71485 -0.21297,0.42591 0.33672,1.09297 0,1.42969 -0.16834,0.16837 -0.54648,-0.16834 -0.71484,0 -0.221178,0.22117 0.22118,3.34913 0,3.57031 -0.16834,0.16838 -0.546485,-0.16834 -0.714844,0 -0.146041,0.146 0.141619,1.85938 0,2.14258 -0.150576,0.30115 -0.562306,0.41367 -0.71289,0.71484 -0.285695,0.57143 0.285694,1.57115 0,2.14258 -0.150577,0.30115 -0.56426,0.41367 -0.714844,0.71484 -0.193739,0.38749 0.195439,2.66197 0,2.85742 -0.16834,0.16834 -0.546485,-0.16834 -0.714844,0 -0.357127,0.35713 0.357128,1.78544 0,2.14258 -0.16834,0.16834 -0.546488,-0.16834 -0.714844,0 -0.02305,0.0231 0,1.96935 0,2.14258 0,0.23811 -0.16834,0.54648 0,0.71484 0.168341,0.16834 0.546485,-0.16834 0.714844,0 0.357128,0.35713 -0.357127,1.78544 0,2.14258 0.16834,0.16834 0.546485,-0.16838 0.714844,0 0.477611,0.47761 -0.477611,0.95012 0,1.42774 0.16834,0.16834 0.546485,-0.16834 0.714844,0 0.16834,0.16834 -0.168341,0.54648 0,0.71484 0.16834,0.16834 0.474795,0 0.71289,0 0.173254,0 2.119604,0.0231 2.142574,0 0.16834,-0.16834 -0.16834,-0.54648 0,-0.71484 0.16834,-0.16834 0.50189,0.10647 0.71485,0 0.30119,-0.15058 0.41367,-0.56231 0.71484,-0.71289 0.21298,-0.10647 0.54649,0.16834 0.71485,0 0.16834,-0.16834 -0.10647,-0.50189 0,-0.71485 1.48634,-2.97268 -0.0501,0.76304 1.42773,-0.71484 1.47788,-1.47789 -2.25785,0.0586 0.71484,-1.42774 0.21294,-0.10647 0.54454,0.16834 0.71289,0 0.16838,-0.16834 -0.10646,-0.50188 0,-0.71484 0.15058,-0.30115 0.56426,-0.41367 0.71485,-0.71484 0.10647,-0.21294 -0.16838,-0.54453 0,-0.71289 0.16834,-0.16834 0.54648,0.16837 0.71484,0 0,-1.90476 -0.23752,0.23755 0.71485,-0.71485 0.16837,-0.16834 -0.16834,-0.54648 0,-0.71484 0.16837,-0.16838 0.54453,0.16834 0.71289,0 0.16834,-0.16838 -0.16834,-0.54648 0,-0.71485 0.16834,-0.16834 0.54648,0.16838 0.71484,0 0.16838,-0.16834 -0.16834,-0.54454 0,-0.71289 0.16838,-0.16834 0.54648,0.16834 0.71484,0 0.33672,-0.33671 -0.33671,-1.09296 0,-1.42968 0.16834,-0.16834 0.54454,0.16837 0.71289,0 0.16834,-0.16834 -0.16834,-0.54454 0,-0.71289 0.16834,-0.16834 0.54649,0.16834 0.71485,0 0.16838,-0.16834 -0.10647,-0.50189 0,-0.71485 0.51086,-0.51086 0.70263,-0.68736 0.83008,-0.80078 -0.25008,0.19728 -0.62699,0.3946 -0.11524,-0.62891 0.15058,-0.30119 0.56426,-0.41173 0.71485,-0.71289 0.10646,-0.21297 0,-0.47675 0,-0.71484 0.23811,-0.23811 0.56231,-0.41368 0.71289,-0.71484 0.10647,-0.21294 -0.16834,-0.54454 0,-0.71289 0.16834,-0.16834 0.54648,0.16834 0.71484,0 0.16834,-0.16834 -0.10647,-0.50189 0,-0.71485 0.15058,-0.30119 0.56426,-0.41367 0.71484,-0.71484 0.10647,-0.21298 -0.16834,-0.54649 0,-0.71485 0.16834,-0.16834 0.4748,0 0.71289,0 0,-0.23811 -0.16834,-0.54454 0,-0.71289 0.16834,-0.16837 0.54649,0.16834 0.71485,0 0.16834,-0.16837 -0.10647,-0.50188 0,-0.71484 0.30119,-0.60234 1.12851,-0.82539 1.42969,-1.42773 0.10646,-0.21298 -0.16834,-0.54649 0,-0.71485 0.33671,-0.33672 1.09101,0.33672 1.42773,0 0.16834,-0.16834 -0.16838,-0.54648 0,-0.71484 0.16834,-0.16838 0.54648,0.16834 0.71484,0 0.16834,-0.16838 -0.16834,-0.54648 0,-0.71485 0.16834,-0.16834 0.54454,0.16838 0.71289,0 0.16838,-0.16834 -0.16834,-0.54454 0,-0.71289 0.16838,-0.16834 0.54649,0.16834 0.71485,0 0.16834,-0.16834 -0.16838,-0.54648 0,-0.71484 0.33672,-0.33672 1.09297,0.33672 1.42969,0 0.16837,-0.16838 -0.16834,-0.54648 0,-0.71484 0.16837,-0.16834 0.54453,0.16837 0.71289,0 0.16834,-0.16834 -0.16834,-0.54454 0,-0.71289 0.16834,-0.16834 0.54648,0.16834 0.71484,0 0.16834,-0.16834 -0.16834,-0.54649 0,-0.71485 0.16834,-0.16838 0.54648,0.16834 0.71484,0 0.16834,-0.16838 -0.16834,-0.54648 0,-0.71484 0.16834,-0.16834 0.54454,0.16834 0.71289,0 0.16834,-0.16834 -0.10646,-0.50189 0,-0.71485 0.15058,-0.30119 0.56426,-0.41173 0.71485,-0.71289 0.10647,-0.21297 -0.16834,-0.54648 0,-0.71484 0.16838,-0.16834 0.54648,0.16834 0.71484,0 0.16834,-0.16834 -0.16834,-0.54648 0,-0.71484 0.16834,-0.16834 0.54649,0.16834 0.71485,0 0.16834,-0.16834 -0.16834,-0.54454 0,-0.71289 0.16834,-0.16834 0.54453,0.16834 0.71289,0 0.16837,-0.16834 -0.10647,-0.50189 0,-0.71485 0.15057,-0.30119 0.47674,-0.47675 0.71484,-0.71484 0.23811,-0.23811 0.56426,-0.41367 0.71484,-0.71485 0.10647,-0.21297 -0.16834,-0.54454 0,-0.71289 0.16834,-0.16837 0.54453,0.16834 0.71289,0 0.16834,-0.16837 -0.10646,-0.50188 0,-0.71484 1.48634,-2.97269 -0.0482,0.76305 1.42969,-0.71484 0.16838,-0.16834 -0.16838,-0.54454 0,-0.71289 0.16838,-0.16838 0.54648,0.16834 0.71485,0 0.16834,-0.16838 0,-0.47675 0,-0.71485 0.23807,0 0.54454,0.16838 0.71289,0 0.16837,-0.16834 -0.16834,-0.54648 0,-0.71484 0.33671,-0.33672 1.09296,0.33672 1.42968,0 0.16834,-0.16838 -0.16834,-0.54649 0,-0.71485 0.16834,-0.16837 0.47481,0 0.71289,0 h 4.28711 4.28516 0.71484 c 0.23811,0 0.49993,-0.10646 0.71289,0 0.30116,0.15058 0.41368,0.56426 0.71485,0.71485 0.2832,0.14158 1.99656,-0.14604 2.14258,0 0.16837,0.16834 -0.16834,0.54648 0,0.71484 0.33671,0.33672 1.00376,-0.21297 1.42968,0 0.30116,0.15058 0.41173,0.56425 0.71289,0.71485 0.21298,0.10646 0.50189,-0.10647 0.71485,0 0.30115,0.15057 0.41367,0.56231 0.71484,0.71289 0.21298,0.10647 0.54649,-0.16834 0.71485,0 0.16837,0.16834 -0.16834,0.54648 0,0.71484 0.16837,0.16838 0.49994,-0.10647 0.71289,0 0.18965,0.0948 2.04775,1.95293 2.14257,2.14258 0.10647,0.21297 -0.16837,0.54648 0,0.71484 0.16834,0.16834 0.54649,-0.16838 0.71485,0 0.16834,0.16834 -0.10647,0.50189 0,0.71485 0.15057,0.30115 0.56426,0.41171 0.71484,0.71289 0.10647,0.21297 -0.16834,0.54648 0,0.71484 0.16834,0.16834 0.54649,-0.16834 0.71485,0 0.33671,0.33672 -0.33672,1.09101 0,1.42773 0.16834,0.16834 0.54453,-0.16837 0.71289,0 0.16837,0.16834 -0.16834,0.54649 0,0.71485 0.16837,0.16834 0.54648,-0.16834 0.71484,0 0.16834,0.16834 -0.10647,0.50188 0,0.71484 0.15058,0.30115 0.56425,0.41367 0.71484,0.71485 0.10647,0.21297 -0.16834,0.54454 0,0.71289 0.16834,0.16837 0.54453,-0.16834 0.71289,0 0.16834,0.16837 -0.10646,0.50188 0,0.71484 0.15058,0.30115 0.56426,0.41367 0.71485,0.71484 0.10647,0.21294 -0.10647,0.49994 0,0.71289 0.15057,0.30116 0.56426,0.41368 0.71484,0.71485 0.21298,0.42591 -0.33672,1.09297 0,1.42969 0.16838,0.16837 0.54648,-0.16834 0.71485,0 0.33671,0.33671 -0.33672,1.09101 0,1.42773 0.16834,0.16838 0.54454,-0.16834 0.71289,0 0.25073,0.25073 -0.24669,3.07889 0,3.57227 0.15057,0.30115 0.56426,0.41171 0.71484,0.71289 0.10647,0.21297 0,0.47674 0,0.71484 v 4.28516 c 0,0.23811 0.16838,0.54648 0,0.71484 -0.16834,0.16834 -0.54648,-0.16838 -0.71484,0 -0.14601,0.14604 0.14162,1.85937 0,2.14258 -0.15058,0.30115 -0.56231,0.41367 -0.71289,0.71484 -0.14162,0.2832 0.146,1.99655 0,2.14258 -0.16838,0.16834 -0.54649,-0.16834 -0.71485,0 -0.35713,0.35713 0.35717,1.78543 0,2.14258 -0.16834,0.16838 -0.54648,-0.16834 -0.71484,0 -0.25074,0.25073 0.24669,3.07887 0,3.57226 -0.15058,0.30116 -0.56426,0.41172 -0.71485,0.71289 -0.12914,0.2583 0,3.07546 0,3.57227 0,0.23807 -0.16837,0.54648 0,0.71484 0.16834,0.16834 0.47675,0 0.71485,0 h 0.71484 c 0.23811,0 0.50188,0.10647 0.71485,0 0.30115,-0.15057 0.41173,-0.56426 0.71289,-0.71484 0.21297,-0.10647 0.50188,0.10647 0.71484,0 0.30115,-0.15058 0.41367,-0.56425 0.71484,-0.71484 0.21294,-0.10647 0.49994,0.10647 0.71289,0 0.60234,-0.30116 0.82735,-1.12657 1.42969,-1.42774 1.90476,0 -0.23755,0.23755 0.71485,-0.71484 0.16837,-0.16834 0.54453,0.16834 0.71289,0 0.16834,-0.16834 -0.16834,-0.54649 0,-0.71485 0.16834,-0.16837 0.54648,0.16834 0.71484,0 0.16834,-0.16837 -0.16834,-0.54453 0,-0.71289 0.16834,-0.16834 0.54648,0.16834 0.71484,0 0.16834,-0.16834 -0.16834,-0.54648 0,-0.71484 0.16834,-0.16834 0.54454,0.16834 0.71289,0 0.16834,-0.16834 -0.16837,-0.54648 0,-0.71484 0.35713,-0.35713 1.7874,0.35716 2.14454,0 0.16834,-0.16834 -0.16834,-0.54454 0,-0.71289 0.16834,-0.16834 0.49994,0.10646 0.71289,0 0.30115,-0.15058 0.41367,-0.56426 0.71484,-0.71485 0.42592,-0.21297 1.09101,0.33672 1.42773,0 0.16834,-0.16838 -0.16837,-0.54648 0,-0.71484 0.35713,-0.35717 1.78739,0.35713 2.14454,0 0.16834,-0.16834 -0.16838,-0.54649 0,-0.71485 0.22117,-0.22117 3.34913,0.22118 3.57031,0 0.16838,-0.16834 -0.16834,-0.54453 0,-0.71289 0.55837,-0.55838 1.24372,0.61991 1.42969,0.71289 0.21736,0.1087 1.82088,0 2.14257,0 0.3368,0 3.53795,-0.0325 3.57032,0 0.16837,0.16834 -0.16834,0.54649 0,0.71485 0.33671,0.33672 1.00377,-0.21298 1.42968,0 0.30116,0.15057 0.41172,0.56426 0.71289,0.71484 0.21298,0.10647 0.54649,-0.16838 0.71485,0 0.16834,0.16834 -0.16838,0.54649 0,0.71485 0.16834,0.16834 0.54648,-0.16834 0.71484,0 0.16838,0.16834 -0.10647,0.49994 0,0.71289 0.15058,0.30115 0.56425,0.41367 0.71485,0.71484 0.10646,0.21298 -0.16838,0.54648 0,0.71484 0.16834,0.16834 0.54454,-0.16834 0.71289,0 0.33671,0.33672 -0.33672,1.09102 0,1.42774 0.16834,0.16834 0.54648,-0.16834 0.71484,0 0.16838,0.16834 -0.10647,0.50188 0,0.71484 0.15058,0.30115 0.56425,0.41367 0.71484,0.71485 0.10647,0.21297 -0.16837,0.54454 0,0.71289 0.16834,0.16837 0.54454,-0.16834 0.71289,0 0.33672,0.33671 -0.33671,1.09296 0,1.42968 0.16834,0.16834 0.54649,-0.16834 0.71485,0 0.35713,0.35713 -0.35717,1.78544 0,2.14258 0.16838,0.16834 0.54648,-0.16834 0.71484,0 0.16834,0.16834 0,0.47675 0,0.71485 v 4.28515 c 0,0.23811 -0.16838,0.54649 0,0.71485 0.16834,0.16834 0.54649,-0.16834 0.71485,0 0.16834,0.16834 0,0.47479 0,0.71289 v 3.57226 c 0,0.23811 0.16834,0.54648 0,0.71485 -0.16834,0.16834 -0.54649,-0.16838 -0.71485,0 -0.16838,0.16834 0,0.4748 0,0.71289 v 4.28711 7.14257 c 0,0.37353 0.0939,2.66961 0,2.85743 -0.15057,0.30115 -0.56426,0.41172 -0.71484,0.71289 -0.2253,0.45063 0.2253,3.12164 0,3.57226 -0.15058,0.30115 -0.56425,0.41368 -0.71485,0.71485 -0.14158,0.2832 0.14605,1.99654 0,2.14257 -0.16834,0.16834 -0.54454,-0.16834 -0.71289,0 -0.33671,0.33672 0.21294,1.00182 0,1.42774 -0.15057,0.30115 -0.56426,0.41367 -0.71484,0.71484 -0.0939,0.18781 0,2.4839 0,2.85742 0,0.3735 -0.0939,2.66961 0,2.85743 0.15058,0.30115 0.56425,0.41172 0.71484,0.71289 0.19374,0.3875 -0.19544,2.66197 0,2.85742 0.16834,0.16838 0.54454,-0.16834 0.71289,0 0.33672,0.33672 -0.33671,1.09297 0,1.42969 0.0714,0.0714 2.07311,0.0714 2.14454,0 0.16834,-0.16834 -0.16834,-0.54649 0,-0.71485 0.16834,-0.16834 0.54453,0.16834 0.71289,0 0.16834,-0.16834 -0.16834,-0.54648 0,-0.71484 0.16834,-0.16834 0.54648,0.16838 0.71484,0 0.16834,-0.16834 -0.16834,-0.54649 0,-0.71485 0.16834,-0.16834 0.54648,0.16834 0.71484,0 0.33672,-0.33671 -0.21297,-1.00181 0,-1.42773 0.15058,-0.30115 0.56231,-0.41367 0.71289,-0.71484 0.21298,-0.42591 -0.33671,-1.09102 0,-1.42774 0.16834,-0.16834 0.54649,0.16838 0.71485,0 0.17189,-0.17189 -0.17189,-2.68554 0,-2.85742 0.16834,-0.16834 0.54648,0.16834 0.71484,0 0.16834,-0.16834 0,-0.47674 0,-0.71484 0,-0.49682 -0.12914,-3.312 0,-3.57032 0.15058,-0.30115 0.56425,-0.41367 0.71485,-0.71484 0.19373,-0.38749 -0.19544,-2.66198 0,-2.85742 0.16834,-0.16834 0.54454,0.16838 0.71289,0 0.16837,-0.16834 -0.16834,-0.54648 0,-0.71485 0.16837,-0.16834 0.54648,0.16838 0.71484,0 0.16834,-0.16834 -0.16838,-0.54454 0,-0.71289 0.35713,-0.35716 1.78543,0.35713 2.14258,0 0.16834,-0.16837 -0.16838,-0.54648 0,-0.71484 0.16834,-0.16834 0.47675,0 0.71484,0 0.49682,0 3.31201,-0.12915 3.57031,0 0.30116,0.15058 0.41368,0.56425 0.71485,0.71484 0.44894,0.22447 2.40848,-0.22446 2.85742,0 0.30115,0.15058 0.41368,0.56231 0.71484,0.71289 0.42591,0.21298 1.00182,-0.21297 1.42774,0 0.30115,0.15058 0.41367,0.56426 0.71484,0.71485 0.42592,0.21297 1.09103,-0.33672 1.42774,0 0.16837,0.16838 -0.16834,0.54648 0,0.71484 0.35716,0.35717 1.78544,-0.35713 2.14257,0 0.16838,0.16834 -0.16834,0.54649 0,0.71485 0.33672,0.33671 1.09298,-0.33672 1.42969,0 0.16834,0.16837 -0.16834,0.54453 0,0.71289 0.16834,0.16834 0.54649,-0.16834 0.71485,0 0.16837,0.16834 -0.16834,0.54648 0,0.71484 0.16837,0.16834 0.54453,-0.16834 0.71289,0 0.16834,0.16834 -0.16834,0.54648 0,0.71484 0.16834,0.16834 0.54648,-0.16834 0.71484,0 0.16834,0.16834 -0.16834,0.54454 0,0.71289 0.16834,0.16834 0.50189,-0.10646 0.71484,0 0.60234,0.30116 0.8254,1.12852 1.42774,1.42969 0.21297,0.10647 0.54648,-0.16838 0.71484,0 0.16834,0.16834 -0.10647,0.50188 0,0.71485 0.15058,0.30115 0.56425,0.41171 0.71485,0.71289 0.10646,0.21293 -0.16834,0.54648 0,0.71484 0.16834,0.16834 0.54453,-0.16834 0.71289,0 0.35716,0.35713 -0.35713,1.78543 0,2.14258 0.16834,0.16834 0.54648,-0.16834 0.71484,0 0.25073,0.25073 -0.24669,3.07887 0,3.57226 0.15058,0.30116 0.56426,0.41173 0.71484,0.71289 0.10647,0.21298 0,0.47675 0,0.71485 v 0.71484 3.57031 7.14454 0.71289 c 0,0.23811 -0.16834,0.54648 0,0.71484 0.16834,0.16838 0.54453,-0.16834 0.71289,0 0.16834,0.16838 0,0.47674 0,0.71484 0,0.49681 -0.12914,3.312 0,3.57032 0.15058,0.30115 0.56426,0.41367 0.71485,0.71484 0.14158,0.2832 -0.14604,1.99655 0,2.14258 0.16834,0.16834 0.54648,-0.16834 0.71484,0 0.17189,0.17189 -0.17189,2.68554 0,2.85742 0.16834,0.16834 0.54648,-0.16838 0.71485,0 0.33671,0.33672 -0.33672,1.09102 0,1.42773 0.16834,0.16838 0.54454,-0.16834 0.71289,0 0.16837,0.16838 -0.16834,0.54649 0,0.71485 0.16837,0.16834 0.54648,-0.16838 0.71484,0 0.16834,0.16834 -0.16838,0.54648 0,0.71484 0.16834,0.16838 0.54648,-0.16834 0.71484,0 0.16834,0.16838 -0.16834,0.54649 0,0.71485 0.16834,0.16837 0.54454,-0.16834 0.71289,0 0.16838,0.16837 -0.16834,0.54453 0,0.71289 0.16838,0.16834 0.54649,-0.16834 0.71485,0 0.16834,0.16834 -0.16838,0.54648 0,0.71484 0.16834,0.16838 0.54648,-0.16834 0.71484,0 0.16834,0.16838 -0.16834,0.54648 0,0.71484 0.33672,0.33672 1.09103,-0.33671 1.42774,0 0.16834,0.16834 -0.16834,0.54454 0,0.71289 0.16834,0.16834 0.50188,-0.10646 0.71484,0 0.30115,0.15058 0.41368,0.56426 0.71484,0.71485 0.21294,0.10647 0.54454,-0.16834 0.71289,0 0.16834,0.16838 -0.16834,0.54648 0,0.71484 0.33672,0.33672 1.09298,-0.33672 1.42969,0 0.16834,0.16834 -0.16834,0.54649 0,0.71485 0.33672,0.33671 1.00183,-0.21298 1.42774,0 0.30115,0.15057 0.41367,0.56231 0.71484,0.71289 0.38749,0.19373 2.66198,-0.19544 2.85742,0 0.16838,0.16834 -0.16834,0.54648 0,0.71484 0.0287,0.0287 2.5951,0 2.85742,0 0.23808,0 0.54454,0.16834 0.71289,0 0.16838,-0.16834 -0.16834,-0.54648 0,-0.71484 0.19544,-0.19544 2.46994,0.19373 2.85743,0 0.30115,-0.15058 0.41367,-0.56231 0.71484,-0.71289 0.42592,-0.21298 1.09101,0.33671 1.42773,0 0.16834,-0.16834 -0.16834,-0.54649 0,-0.71485 0.33672,-0.33672 1.00378,0.21298 1.42969,0 1.76529,-0.88264 -0.24737,-0.71484 1.42774,-0.71484 H 260 c 0.23811,0 0.54648,0.16838 0.71484,0 0.16834,-0.16834 -0.16834,-0.54649 0,-0.71485 0.16834,-0.16834 0.54453,0.16834 0.71289,0 0.16834,-0.16834 -0.16837,-0.54454 0,-0.71289 0.33672,-0.33671 1.00378,0.21294 1.42969,0 0.30115,-0.15057 0.41367,-0.56426 0.71485,-0.71484 0.42591,-0.21294 1.09101,0.33672 1.42773,0 0.16838,-0.16834 -0.16834,-0.54648 0,-0.71484 0.33672,-0.33672 1.09102,0.33671 1.42773,0 0.16838,-0.16834 -0.16834,-0.54453 0,-0.71289 0.16838,-0.16834 0.50189,0.10646 0.71485,0 0.30119,-0.15058 0.41367,-0.56426 0.71484,-0.71485 0.21298,-0.10647 0.54649,0.16838 0.71485,0 0.16837,-0.16834 -0.16834,-0.54648 0,-0.71484 0.16837,-0.16838 0.47479,0 0.71289,0 0,-0.23811 -0.16834,-0.54648 0,-0.71485 0.16834,-0.16834 0.54648,0.16838 0.71484,0 0.16834,-0.16834 -0.16834,-0.54454 0,-0.71289 0.16834,-0.16834 0.54648,0.16834 0.71484,0 0.16834,-0.16834 -0.16834,-0.54648 0,-0.71484 0.16834,-0.16838 0.54454,0.16834 0.71289,0 0.16834,-0.16838 -0.16834,-0.54648 0,-0.71484 0.16834,-0.16834 0.54649,0.16837 0.71485,0 0.16834,-0.16834 -0.16834,-0.54454 0,-0.71289 0.16834,-0.16834 0.54648,0.16834 0.71484,0 0.33672,-0.33672 -0.33672,-1.09298 0,-1.42969 0.16834,-0.16834 0.54649,0.16834 0.71485,0 0.16834,-0.16834 -0.10647,-0.50189 0,-0.71485 0.15057,-0.30119 0.56231,-0.41173 0.71289,-0.71289 0.14162,-0.2832 -0.14601,-1.99655 0,-2.14257 0.16834,-0.16834 0.54648,0.16834 0.71484,0 0.19544,-0.19544 -0.19374,-2.46994 0,-2.85743 0.15058,-0.30115 0.56425,-0.41367 0.71484,-0.71484 0.38019,-0.7604 -0.3802,-0.66735 0,-1.42773 0.15058,-0.30119 0.56231,-0.41368 0.71289,-0.71485 0.21298,-0.42592 -0.21297,-1.00377 0,-1.42969 0.15058,-0.30115 0.56426,-0.41173 0.71485,-0.71289 0.10647,-0.21297 0,-0.47674 0,-0.71484 v -4.28516 c 0,-0.23811 0.16834,-0.54648 0,-0.71484 -0.16834,-0.16834 -0.54649,0.16834 -0.71485,0 -0.0231,-0.0231 0,-1.96934 0,-2.14258 v -5.71484 c 0,-0.32168 -0.10869,-1.9252 0,-2.14258 0.15058,-0.30119 0.56426,-0.41368 0.71485,-0.71484 0.12914,-0.2583 0,-3.0735 0,-3.57032 v -3.57226 c 0,-0.23811 -0.16834,-0.54648 0,-0.71485 0.16834,-0.16834 0.54648,0.16838 0.71484,0 0.35717,-0.35712 -0.35713,-1.78542 0,-2.14257 0.16838,-0.16834 0.54648,0.16834 0.71485,0 0.16834,-0.16834 -0.16838,-0.54454 0,-0.71289 0.16834,-0.16838 0.54454,0.16834 0.71289,0 0.35716,-0.35713 -0.35713,-1.7874 0,-2.14454 0.16834,-0.16837 0.54648,0.16834 0.71484,0 0.16838,-0.16837 -0.16834,-0.54453 0,-0.71289 0.16838,-0.16834 0.54648,0.16834 0.71484,0 0,-1.90476 -0.23949,0.23756 0.71289,-0.71484 0.16834,-0.16834 -0.16834,-0.54648 0,-0.71484 1.90477,0 -0.23751,0.2395 0.71485,-0.71289 0.16838,-0.16834 0.54648,0.16834 0.71484,0 0.16834,-0.16834 -0.16834,-0.54649 0,-0.71485 0.33672,-0.33672 1.09103,0.33672 1.42774,0 0.16834,-0.16834 -0.16834,-0.54648 0,-0.71484 0.33671,-0.33672 1.09297,0.33672 1.42968,0 0.16834,-0.16834 -0.16834,-0.54649 0,-0.71485 0.16834,-0.16834 0.4748,0 0.71289,0 h 4.28711 c 0.23811,0 0.54453,0.16834 0.71289,0 0.16834,-0.16834 -0.16837,-0.54453 0,-0.71289 0.16834,-0.16834 0.47675,0 0.71485,0 h 0.71484 5.71485 5 c 0.23807,0 0.54454,-0.16834 0.71289,0 0.16837,0.16834 -0.16834,0.54454 0,0.71289 0.35716,0.35713 1.78544,-0.35712 2.14257,0 0.16838,0.16834 -0.16834,0.54649 0,0.71485 0.33672,0.33672 1.09298,-0.33672 1.42969,0 0.16838,0.16834 -0.16834,0.54648 0,0.71484 0.16838,0.16834 0.54649,-0.16834 0.71485,0 0.16837,0.16834 -0.16834,0.54649 0,0.71485 0.16837,0.16834 0.54453,-0.16834 0.71289,0 0.16834,0.16834 0,0.47479 0,0.71289 0.23811,0 0.54648,-0.16834 0.71484,0 0.16838,0.16834 -0.10647,0.50188 0,0.71484 0.15058,0.30115 0.56425,0.41367 0.71484,0.71484 0.10647,0.21294 -0.16837,0.54453 0,0.71289 0.16834,0.16834 0.54454,-0.16837 0.71289,0 0.16834,0.16834 -0.16834,0.54649 0,0.71485 0.16834,0.16834 0.54649,-0.16834 0.71485,0 0.16838,0.16834 -0.10647,0.50188 0,0.71484 0.0948,0.18966 1.95292,2.04775 2.14258,2.14258 0.21297,0.10647 0.54648,-0.16834 0.71484,0 0.33672,0.33672 -0.33672,1.09102 0,1.42773 0.16834,0.16838 0.54648,-0.16834 0.71484,0 0.16834,0.16838 -0.16834,0.54649 0,0.71485 0.16834,0.16838 0.54454,-0.16834 0.71289,0 0.16834,0.16838 -0.10646,0.50188 0,0.71484 0.30116,0.60234 1.12852,0.8254 1.42969,1.42774 0.10647,0.21297 -0.16838,0.54648 0,0.71484 0.16834,0.16834 0.54649,-0.16834 0.71485,0 0.16834,0.16834 -0.16834,0.54648 0,0.71484 0.16834,0.16834 0.54454,-0.16834 0.71289,0 0.33671,0.33672 -0.33672,1.09102 0,1.42774 0.16837,0.16834 0.54648,-0.16834 0.71484,0 0.33672,0.33672 -0.33672,1.09296 0,1.42969 0.16834,0.16834 0.54648,-0.16834 0.71484,0 0.16834,0.16834 -0.16834,0.54453 0,0.71289 0.16834,0.16834 0.54454,-0.16834 0.71289,0 0.33672,0.33671 -0.21293,1.00377 0,1.42968 0.15058,0.30116 0.56426,0.41172 0.71485,0.71289 0.28569,0.57143 -0.28573,1.57311 0,2.14454 0.15057,0.30115 0.56426,0.41172 0.71484,0.71289 0.10647,0.21297 -0.10647,0.50188 0,0.71484 0.15058,0.30115 0.56426,0.41367 0.71485,0.71484 0.10646,0.21294 0,0.47481 0,0.71289 0.23811,0.23811 0.56231,0.41368 0.71289,0.71485 0.10647,0.21297 -0.16834,0.54648 0,0.71484 1.90476,0 -0.23756,-0.23755 0.71484,0.71485 0.16834,0.16834 0.54648,-0.16834 0.71484,0 0.16834,0.16834 -0.16834,0.54453 0,0.71289 0.0231,0.023 1.96935,0 2.14258,0 0.37353,0 2.6696,0.0939 2.85742,0 0.60234,-0.30116 0.8254,-1.12657 1.42774,-1.42774 0.21297,-0.10647 0.50188,0.10647 0.71484,0 0.30115,-0.15057 0.41367,-0.56426 0.71485,-0.71484 0.21293,-0.10647 0.54454,0.16838 0.71289,0 0.16837,-0.16834 -0.10647,-0.50188 0,-0.71485 0.30115,-0.60234 1.12851,-0.82539 1.42968,-1.42773 0.10647,-0.21294 -0.16834,-0.54648 0,-0.71484 0.16834,-0.16834 0.54454,0.16834 0.71289,0 0.16838,-0.16834 -0.16834,-0.54454 0,-0.71289 0.16838,-0.16838 0.54649,0.16834 0.71485,0 0.16834,-0.16838 -0.10647,-0.50189 0,-0.71485 0.15057,-0.30115 0.56426,-0.41367 0.71484,-0.71484 0.10647,-0.21298 -0.16834,-0.54649 0,-0.71485 0.16834,-0.16837 0.54649,0.16834 0.71485,0 0.16837,-0.16837 -0.10647,-0.49994 0,-0.71289 0.15057,-0.30115 0.56231,-0.41367 0.71289,-0.71484 0.10647,-0.21298 -0.16834,-0.54648 0,-0.71484 0.16834,-0.16834 0.54648,0.16834 0.71484,0 0.33672,-0.33672 -0.33672,-1.09102 0,-1.42774 0.16834,-0.16838 0.54648,0.16834 0.71484,0 0.14601,-0.146 -0.14162,-1.85938 0,-2.14258 0.15058,-0.30115 0.56231,-0.41367 0.71289,-0.71484 0.19374,-0.38749 -0.19543,-2.66198 0,-2.85742 0.16834,-0.16834 0.54649,0.16838 0.71485,0 0.16834,-0.16834 0,-0.47674 0,-0.71485 v -0.71289 c 0,-0.50629 -0.0923,-4.10243 0,-4.28711 0.15057,-0.30115 0.56426,-0.41173 0.71484,-0.71289 0.14162,-0.2832 -0.146,-1.99656 0,-2.14257 0.16834,-0.16834 0.54649,0.16834 0.71485,0 0.33671,-0.33672 -0.21298,-1.00378 0,-1.42969 0.15057,-0.30115 0.47479,-0.47675 0.71289,-0.71485 0.23811,-0.23811 0.41367,-0.56231 0.71484,-0.71289 0.21298,-0.10647 0.54648,0.16834 0.71484,0 0.16834,-0.16834 -0.16834,-0.54648 0,-0.71484 0.33672,-0.33672 1.00182,0.21298 1.42774,0 0.30115,-0.15058 0.41367,-0.56425 0.71484,-0.71484 0.42592,-0.21294 1.00183,0.21297 1.42774,0 0.30115,-0.15058 0.41367,-0.56231 0.71484,-0.71289 0.2832,-0.14162 1.99654,0.146 2.14258,0 0.16834,-0.16834 -0.16838,-0.54649 0,-0.71485 0.16834,-0.16834 0.47675,0 0.71484,0 h 3.57031 c 0.17326,0 2.12157,-0.023 2.14454,0 0.16834,0.16834 -0.16834,0.54649 0,0.71485 0.33671,0.33671 1.00181,-0.21294 1.42773,0 0.30115,0.15057 0.41367,0.56231 0.71484,0.71289 0.42591,0.21297 1.09102,-0.33672 1.42774,0 0.16834,0.16834 -0.16834,0.54648 0,0.71484 0.33672,0.33672 1.09296,-0.33672 1.42969,0 0.16834,0.16834 -0.16838,0.54648 0,0.71484 0.16834,0.16834 0.54454,-0.16834 0.71289,0 0.16834,0.16834 -0.16834,0.54454 0,0.71289 0.16834,0.16834 0.50188,-0.10646 0.71484,0 0.18966,0.0948 2.04775,1.95489 2.14258,2.14454 0.10647,0.21297 -0.16834,0.54453 0,0.71289 0.16838,0.16834 0.54648,-0.16834 0.71484,0 0.33672,0.33671 -0.33672,1.09297 0,1.42968 0.16834,0.16834 0.54649,-0.16834 0.71485,0 0.16837,0.16834 -0.10647,0.49993 0,0.71289 0.15057,0.30116 0.56231,0.41368 0.71289,0.71485 0.10647,0.21297 -0.16834,0.54648 0,0.71484 0.16834,0.16838 0.54648,-0.16834 0.71484,0 0.33672,0.33672 -0.33672,1.09103 0,1.42774 0.16834,0.16834 0.54648,-0.16834 0.71484,0 0.16834,0.16834 -0.10647,0.50188 0,0.71484 0.15058,0.30115 0.56231,0.41367 0.71289,0.71484 0.10647,0.21294 -0.16834,0.54454 0,0.71289 0.16834,0.16838 0.54649,-0.16834 0.71485,0 0.35713,0.35713 -0.35717,1.7874 0,2.14454 0.16834,0.16837 0.54648,-0.16834 0.71484,0 0.35717,0.35712 -0.35713,1.78542 0,2.14257 0.16834,0.16834 0.54649,-0.16834 0.71485,0 0.10072,0.10073 0.0733,1.99606 0,2.14258 -0.15058,0.30115 -0.56426,0.41367 -0.71485,0.71485 -0.2253,0.45061 0.2253,3.11969 0,3.57031 -0.15057,0.30115 -0.56426,0.41367 -0.71484,0.71484 -0.28573,0.57143 0.28569,1.57115 0,2.14258 -0.15058,0.30115 -0.56425,0.41367 -0.71485,0.71484 -0.21297,0.42591 0.21298,1.00182 0,1.42774 -0.15057,0.30119 -0.56231,0.41367 -0.71289,0.71484 -0.21297,0.42592 0.33672,1.09103 0,1.42774 -0.16834,0.16834 -0.54648,-0.16834 -0.71484,0 -0.35713,0.35716 0.35713,1.78544 0,2.14257 -0.16834,0.16834 -0.54648,-0.16834 -0.71484,0 -0.33672,0.33672 0.33671,1.09298 0,1.42969 -0.16834,0.16834 -0.54453,-0.16838 -0.71289,0 -0.33672,0.33672 0.33671,1.09103 0,1.42774 -0.16834,0.16837 -0.54649,-0.16834 -0.71485,0 -0.35713,0.35716 0.35717,1.78543 0,2.14257 -0.16834,0.16834 -0.54648,-0.16837 -0.71484,0 -0.33672,0.33672 0.33672,1.09298 0,1.42969 -0.16834,0.16838 -0.54648,-0.16834 -0.71485,0 -0.33671,0.33672 0.21298,1.00183 0,1.42774 -0.15057,0.30115 -0.56231,0.41367 -0.71289,0.71484 -0.21297,0.42592 0.33672,1.09102 0,1.42773 -0.16837,0.16834 -0.54648,-0.16834 -0.71484,0 -0.33672,0.33672 0.33672,1.09298 0,1.42969 -0.16834,0.16834 -0.54648,-0.16834 -0.71484,0 -0.33672,0.33672 0.33671,1.09103 0,1.42774 -0.16834,0.16834 -0.54454,-0.16834 -0.71289,0 -0.33672,0.33671 0.21293,1.00377 0,1.42968 -0.15058,0.30116 -0.56426,0.41172 -0.71485,0.71289 -0.10647,0.21294 0.10647,0.50189 0,0.71485 -0.15057,0.30115 -0.56426,0.41367 -0.71484,0.71484 -0.21298,0.42592 0.33672,1.09103 0,1.42774 -0.16834,0.16837 -0.54649,-0.16834 -0.71485,0 -0.33671,0.33671 0.33672,1.09296 0,1.42968 -0.16837,0.16834 -0.54453,-0.16834 -0.71289,0 -0.33671,0.33672 0.21294,1.00182 0,1.42774 -0.15057,0.30115 -0.56425,0.41367 -0.71484,0.71484 -0.3802,0.7604 0.3802,0.66735 0,1.42774 -0.15058,0.30115 -0.56426,0.41367 -0.71484,0.71484 -0.2857,0.57143 0.28573,1.57115 0,2.14258 -0.15058,0.30119 -0.56231,0.41367 -0.71289,0.71484 -0.1087,0.21736 0,1.8209 0,2.14258 0,0.37349 -0.0939,2.66961 0,2.85742 0.15057,0.30115 0.56231,0.41367 0.71289,0.71485 0.19373,0.38748 -0.19544,2.66003 0,2.85546 0.16834,0.16838 0.54648,-0.16834 0.71484,0 0.17189,0.1719 -0.17189,2.68554 0,2.85743 0.16834,0.16834 0.54648,-0.16834 0.71484,0 0.14601,0.14604 -0.14162,1.85936 0,2.14257 0.15058,0.30116 0.56231,0.41368 0.71289,0.71485 0.10647,0.21297 -0.10646,0.50188 0,0.71484 0.15058,0.30115 0.56426,0.41368 0.71485,0.71485 0.10647,0.21297 -0.16834,0.54453 0,0.71289 0.16834,0.16834 0.54648,-0.16834 0.71484,0 0.33672,0.33671 -0.33672,1.09297 0,1.42968 0.16838,0.16834 0.54648,-0.16834 0.71485,0 0.33671,0.33672 -0.21298,1.00182 0,1.42774 0.15057,0.30115 0.56231,0.41367 0.71289,0.71484 0.10647,0.21298 -0.10647,0.50188 0,0.71485 0.15057,0.30115 0.56426,0.41172 0.71484,0.71289 0.10647,0.21297 -0.16834,0.54648 0,0.71484 0.16838,0.16834 0.54648,-0.16838 0.71484,0 1.47788,1.47788 -2.25978,-0.0586 0.71289,1.42773 0.21298,0.10647 0.54649,-0.16834 0.71485,0 0.16838,0.16838 -0.10647,0.50189 0,0.71485 0.0948,0.18965 1.95293,2.04776 2.14258,2.14258 0.21297,0.10647 0.54648,-0.16834 0.71484,0 0.16834,0.16834 -0.16834,0.54648 0,0.71484 0.16834,0.16834 0.54648,-0.16834 0.71484,0 0.16834,0.16834 -0.16834,0.54648 0,0.71484 0.33672,0.33672 1.09102,-0.33671 1.42774,0 0.16834,0.16834 -0.16834,0.54454 0,0.71289 0.33672,0.33672 1.09296,-0.33671 1.42969,0 0.16834,0.16834 -0.16834,0.54649 0,0.71485 0.33671,0.33672 1.00181,-0.21294 1.42773,0 0.30115,0.15057 0.41367,0.56426 0.71484,0.71484 0.42591,0.21294 1.00182,-0.21297 1.42774,0 0.30115,0.15058 0.41367,0.56425 0.71484,0.71485 0.18781,0.0939 2.48393,0 2.85742,0 0.37342,0 2.66958,0.0939 2.85743,0 0.30122,-0.15058 0.41173,-0.56426 0.71289,-0.71485 0.57142,-0.28569 1.57115,0.28573 2.14257,0 0.30123,-0.15057 0.41366,-0.56426 0.71485,-0.71484 0.42591,-0.21294 1.00377,0.21297 1.42969,0 0.30122,-0.15058 0.41173,-0.56425 0.71289,-0.71485 0.21316,-0.10646 0.50186,0.10647 0.71484,0 0.30123,-0.15057 0.41365,-0.56231 0.71484,-0.71289 0.21279,-0.10647 0.49996,0.10647 0.71289,0 0.30123,-0.15057 0.4137,-0.56426 0.71485,-0.71484 1.90477,0 -0.23756,0.23756 0.71484,-0.71484 0.33676,-0.33672 1.09102,0.33671 1.42774,0 0.16819,-0.16834 -0.16857,-0.54453 0,-0.71289 0.16819,-0.16834 0.47673,0 0.71484,0 0,-0.23811 -0.16857,-0.54649 0,-0.71485 0.16819,-0.16834 0.5465,0.16834 0.71484,0 0.16857,-0.16834 -0.16819,-0.54648 0,-0.71484 0.16857,-0.16838 0.54455,0.16834 0.71289,0 0.16857,-0.16838 -0.16818,-0.54648 0,-0.71485 0.33676,-0.33671 1.09297,0.33672 1.42969,0 0.16819,-0.16834 -0.10658,-0.49994 0,-0.71289 0.30123,-0.60234 1.12658,-0.82734 1.42774,-1.42968 0.10658,-0.21294 -0.10659,-0.49994 0,-0.71289 0.1508,-0.30116 0.56426,-0.41368 0.71484,-0.71485 0.10658,-0.21297 -0.10658,-0.50188 0,-0.71484 0.1508,-0.30115 0.56427,-0.41368 0.71484,-0.71485 0.22451,-0.44894 -0.2245,-2.40652 0,-2.85546 0.88264,-1.76529 0.71289,0.24542 0.71289,-1.42969 0,-0.32168 -0.10885,-1.9252 0,-2.14258 0.15043,-0.30115 0.56423,-0.41367 0.71485,-0.71484 0.2245,-0.44894 -0.22451,-2.40847 0,-2.85743 0.15042,-0.30115 0.56427,-0.41173 0.71484,-0.71289 0.14173,-0.2832 -0.14589,-1.99656 0,-2.14257 0.16857,-0.16834 0.54651,0.16834 0.71485,0 0.35716,-0.35713 -0.35717,-1.7874 0,-2.14454 0.16818,-0.16834 0.54455,0.16834 0.71289,0 0.33675,-0.33671 -0.33676,-1.09101 0,-1.42773 0.16819,-0.16834 0.54646,0.16834 0.71484,0 0.33676,-0.33672 -0.21279,-1.00182 0,-1.42773 0.15043,-0.30116 0.56423,-0.41368 0.71484,-0.71485 0.10659,-0.21297 -0.16856,-0.54648 0,-0.71484 0.16819,-0.16834 0.54455,0.16838 0.71289,0 0.33676,-0.33672 -0.33675,-1.09103 0,-1.42774 0.16857,-0.16837 0.54651,0.16834 0.71485,0 0.33675,-0.33671 -0.33676,-1.09296 0,-1.42968 0.16857,-0.16834 0.5465,0.16834 0.71484,0 0.16857,-0.16834 -0.16819,-0.54453 0,-0.71289 0.16857,-0.16834 0.47674,0 0.71485,0 0,-0.23811 -0.16857,-0.54649 0,-0.71485 0.16818,-0.16834 0.54451,0.16838 0.71289,0 0.33675,-0.33672 -0.33676,-1.09296 0,-1.42969 0.16819,-0.16834 0.50186,0.10647 0.71484,0 0.60231,-0.30115 0.82539,-1.12656 1.42773,-1.42773 0.21279,-0.10647 0.54651,0.16834 0.71485,0 0.16857,-0.16838 -0.16819,-0.54648 0,-0.71484 0.16857,-0.16834 0.50187,0.10647 0.71484,0 0.30123,-0.15058 0.41366,-0.56231 0.71485,-0.71289 0.21278,-0.10647 0.49995,0.10646 0.71289,0 0.30122,-0.15058 0.41369,-0.56426 0.71484,-0.71485 0.21279,-0.10647 0.50191,0.10647 0.71484,0 0.30123,-0.15057 0.4117,-0.56426 0.71289,-0.71484 0.21279,-0.10647 0.50187,0.10647 0.71485,0 0.30123,-0.15058 0.47677,-0.47675 0.71484,-0.71485 0.23811,-0.23811 0.41369,-0.56231 0.71485,-0.71289 0.42591,-0.21293 1.00182,0.21294 1.42773,0 0.30123,-0.15057 0.41365,-0.56426 0.71484,-0.71484 0.21279,-0.10647 0.54455,0.16834 0.71289,0 0.16857,-0.16834 -0.16818,-0.54648 0,-0.71484 0.47762,-0.47762 0.95207,0.47762 1.42969,0 0.16857,-0.16834 -0.16857,-0.54454 0,-0.71289 0.33676,-0.33672 1.09102,0.33671 1.42774,0 0.16819,-0.16834 -0.16857,-0.54649 0,-0.71485 0.1954,-0.19544 2.46994,0.19374 2.85742,0 0.30123,-0.15057 0.41365,-0.56426 0.71484,-0.71484 0.21279,-0.10647 0.47674,0 0.71485,0 h 0.71289 3.57226 c 1.67513,0 -0.33761,0.16782 1.42774,-0.71485 0.0378,-0.0185 2.10523,-0.0185 2.14257,0 0.30123,0.15058 0.4137,0.56426 0.71485,0.71485 0.42591,0.21297 1.00377,-0.21294 1.42969,0 0.30122,0.15057 0.4117,0.56426 0.71289,0.71484 0.28308,0.14162 1.99657,-0.146 2.14257,0 0.16857,0.16834 -0.16818,0.54649 0,0.71485 0.16857,0.16834 0.50187,-0.10647 0.71485,0 0.30123,0.15057 0.41365,0.56231 0.71484,0.71289 0.21279,0.10647 0.54647,-0.16834 0.71485,0 0.16818,0.16834 -0.16857,0.54648 0,0.71484 0.16818,0.16834 0.54455,-0.16834 0.71289,0 0.16856,0.16834 -0.16819,0.54648 0,0.71484 0.16856,0.16834 0.5465,-0.16834 0.71484,0 0.16857,0.16834 -0.16819,0.54454 0,0.71289 0.16857,0.16834 0.5465,-0.16834 0.71484,0 0.16819,0.16834 -0.10658,0.50189 0,0.71485 0.74563,1.49126 0.68211,-0.0616 1.42774,1.42969 0.10658,0.21297 -0.16857,0.54454 0,0.71289 0.16819,0.16837 0.5465,-0.16834 0.71484,0 0.33676,0.33671 -0.33675,1.09296 0,1.42968 0.16857,0.16834 0.54651,-0.16834 0.71485,0 0.14589,0.14601 -0.14174,1.85937 0,2.14258 0.15042,0.30115 0.56231,0.41368 0.71289,0.71485 0.21278,0.42592 -0.21279,1.00181 0,1.42773 0.15042,0.30115 0.56426,0.41367 0.71484,0.71484 0.38018,0.76039 -0.38022,0.66734 0,1.42774 0.15043,0.30119 0.56423,0.41367 0.71484,0.71484 0.10659,0.21298 -0.10658,0.50188 0,0.71485 0.15043,0.30115 0.56232,0.41171 0.71289,0.71289 0.21279,0.42591 -0.33675,1.09297 0,1.42968 0.16857,0.16834 0.54651,-0.16834 0.71485,0 0.14589,0.14601 -0.14173,1.85937 0,2.14258 0.15042,0.30115 0.56427,0.41367 0.71484,0.71485 0.21279,0.42591 -0.21279,1.00181 0,1.42773 0.15043,0.30115 0.56427,0.41367 0.71485,0.71484 0.10885,0.21736 0,1.8209 0,2.14258 v 5 0.71485 c 0,0.23811 -0.10659,0.49994 0,0.71289 0.15042,0.30115 0.56227,0.41367 0.71289,0.71484 0.0937,0.1878 0,2.48391 0,2.85742 0,0.3368 -0.034,3.53795 0,3.57031 0.16819,0.16838 0.54646,-0.16834 0.71484,0 0.35717,0.35713 -0.35717,1.7874 0,2.14454 0.16819,0.16837 0.5465,-0.16834 0.71484,0 0.33676,0.33671 -0.33675,1.09101 0,1.42773 0.16857,0.16834 0.54455,-0.16834 0.71289,0 0.16857,0.16834 -0.16818,0.54648 0,0.71484 0.16857,0.16834 0.54647,-0.16834 0.71485,0 0.16857,0.16834 -0.16857,0.54454 0,0.71289 0.16857,0.16834 0.54646,-0.16834 0.71484,0 0.33676,0.33672 -0.21279,1.00378 0,1.42969 0.15043,0.30115 0.56423,0.41367 0.71485,0.71485 0.10658,0.21297 -0.16857,0.54453 0,0.71289 0.16818,0.16834 0.54455,-0.16834 0.71289,0 0.35716,0.35716 -0.35717,1.78543 0,2.14257 0.16856,0.16834 0.5465,-0.16837 0.71484,0 0.33676,0.33672 -0.33676,1.09299 0,1.42969 0.16857,0.16838 0.5465,-0.16834 0.71484,0 0.14589,0.14604 -0.14173,1.85937 0,2.14258 0.15043,0.30119 0.56232,0.41367 0.71289,0.71484 0.21279,0.42591 -0.33675,1.09102 0,1.42774 0.16819,0.16834 0.54647,-0.16838 0.71485,0 0.0227,0.0231 0,1.96935 0,2.14258 0,0.32167 0.10885,1.92519 0,2.14257 -0.15081,0.30116 -0.56427,0.41368 -0.71485,0.71485 -0.19389,0.38749 0.19541,2.66198 0,2.85742 -0.16856,0.16834 -0.54455,-0.16834 -0.71289,0 -0.16819,0.16834 0,0.47674 0,0.71484 v 3.57032 c 0,0.23811 0.16819,0.54648 0,0.71484 -0.16819,0.16838 -0.54646,-0.16834 -0.71484,0 -0.33676,0.33672 0.21279,1.00182 0,1.42773 -0.15043,0.30116 -0.56423,0.41368 -0.71484,0.71485 -0.10659,0.21297 0.10658,0.50188 0,0.71484 -0.15043,0.30115 -0.56232,0.41368 -0.71289,0.71485 -0.10659,0.21297 0.16818,0.54453 0,0.71289 -0.16857,0.16834 -0.54651,-0.16834 -0.71485,0 -0.16857,0.16834 0.16819,0.54648 0,0.71484 -0.16857,0.16834 -0.54646,-0.16834 -0.71484,0 -0.33676,0.33672 0.33675,1.09101 0,1.42773 -0.16857,0.16834 -0.50187,-0.10646 -0.71485,0 -0.85712,0.42857 -1.28545,1.71596 -2.14257,2.14454 -0.21317,0.10646 -0.54455,-0.16834 -0.71289,0 -0.16857,0.16834 0.16818,0.54453 0,0.71289 -0.16857,0.16834 -0.54647,-0.16834 -0.71485,0 -0.16857,0.16834 0.16857,0.54648 0,0.71484 -0.33675,0.33672 -1.00373,-0.21298 -1.42969,0 -0.30122,0.15058 -0.41173,0.56425 -0.71289,0.71484 -0.21316,0.10647 -0.5465,-0.16834 -0.71484,0 -0.16857,0.16834 0.16819,0.54453 0,0.71289 -0.33676,0.33672 -1.09102,-0.33671 -1.42773,0 -0.16819,0.16834 0.16818,0.54649 0,0.71485 -0.33676,0.33672 -1.09297,-0.33672 -1.42969,0 -0.16857,0.16834 0.16819,0.54648 0,0.71484 -0.16857,0.16838 -0.50191,-0.10647 -0.71485,0 -2.97267,1.48634 0.76498,-0.0501 -0.71289,1.42774 -0.16819,0.16819 -0.54646,-0.16857 -0.71484,0 -0.16819,0.16819 0.16857,0.54646 0,0.71484 -0.16819,0.16819 -0.54647,-0.16857 -0.71484,0 -0.16819,0.16819 0.16856,0.5465 0,0.71484 -0.16819,0.16857 -0.54455,-0.16819 -0.71289,0 -0.16857,0.16857 0.10658,0.49996 0,0.71289 -0.30123,0.60235 -1.12854,0.82735 -1.42969,1.42969 -0.10658,0.21279 0.16857,0.54647 0,0.71485 -0.16857,0.16818 -0.54647,-0.16857 -0.71485,0 -0.16818,0.16818 0.10659,0.49995 0,0.71289 -0.15042,0.30122 -0.56227,0.41369 -0.71289,0.71484 -0.10658,0.21279 0.16857,0.5465 0,0.71484 -0.16819,0.16819 -0.5465,-0.16819 -0.71484,0 -0.16857,0.16819 0.10658,0.49992 0,0.71289 -0.1508,0.30123 -0.56427,0.41366 -0.71484,0.71485 -0.10659,0.21279 0.10658,0.5019 0,0.71484 -0.15043,0.30123 -0.56232,0.41369 -0.71289,0.71485 -0.10659,0.21278 0.10658,0.49995 0,0.71289 -0.15043,0.30122 -0.56427,0.41365 -0.71485,0.71484 -0.12926,0.25814 0,3.07545 0,3.57227 v 0.71289 c 0,0.23811 -0.16857,0.54646 0,0.71484 0.16857,0.16819 0.54647,-0.16857 0.71485,0 0.16818,0.16819 -0.16857,0.5465 0,0.71484 0.16818,0.16857 0.49991,-0.10658 0.71289,0 0.30122,0.15081 0.41365,0.56232 0.71484,0.71289 0.21279,0.10659 0.5465,-0.16818 0.71484,0 0.16857,0.16857 -0.16819,0.54651 0,0.71485 0.33676,0.33675 1.09102,-0.33676 1.42774,0 0.16857,0.16857 -0.16857,0.54646 0,0.71484 0.16857,0.16819 0.47673,0 0.71484,0 0.2623,0 2.82866,0.0302 2.85742,0 0.16819,-0.16857 -0.16819,-0.54646 0,-0.71484 0.25059,-0.25058 3.07694,0.2468 3.57032,0 0.30122,-0.15043 0.41365,-0.56427 0.71484,-0.71485 0.21279,-0.10658 0.54647,0.16857 0.71484,0 0.16819,-0.16818 -0.16856,-0.54451 0,-0.71289 0.33676,-0.33675 1.09102,0.33676 1.42774,0 0.16857,-0.16819 -0.16819,-0.5465 0,-0.71484 0.16857,-0.16857 0.50187,0.10658 0.71484,0 0.30123,-0.1508 0.41366,-0.56427 0.71485,-0.71484 0.42591,-0.21317 1.00178,0.21278 1.42773,0 0.30123,-0.15043 0.41369,-0.56232 0.71484,-0.71289 0.21317,-0.10659 0.47482,0 0.71289,0 0.23811,-0.23811 0.4137,-0.56427 0.71485,-0.71485 0.21279,-0.10658 0.50187,0.10658 0.71484,0 0.30123,-0.15042 0.41366,-0.56427 0.71485,-0.71484 0.21278,-0.10658 0.49995,0.10658 0.71289,0 0.30122,-0.15043 0.41369,-0.56423 0.71484,-0.71485 0.42591,-0.21278 1.09102,0.33676 1.42773,0 0.16819,-0.16818 -0.16856,-0.54455 0,-0.71289 0.25059,-0.25058 3.07889,0.24681 3.57227,0 0.30123,-0.1508 0.41365,-0.56426 0.71484,-0.71484 0.25815,-0.12926 3.0735,0 3.57032,0 0.23811,0 0.54646,-0.16857 0.71484,0 0.16819,0.16819 -0.16857,0.54647 0,0.71484 0.2211,0.22111 3.35109,-0.2211 3.57227,0 0.16818,0.16819 -0.16857,0.54455 0,0.71289 0.33675,0.33676 1.09101,-0.33675 1.42773,0 0.16857,0.16857 -0.16819,0.54651 0,0.71485 0.33676,0.33675 1.09102,-0.33676 1.42773,0 0.16819,0.16857 -0.16856,0.5465 0,0.71484 0.16819,0.16857 0.54647,-0.16819 0.71485,0 0.33675,0.33676 -0.33676,1.09102 0,1.42774 0.16819,0.16819 0.5465,-0.16857 0.71484,0 0.33676,0.33675 -0.21279,1.00377 0,1.42968 0.15081,0.30123 0.56427,0.41174 0.71485,0.71289 0.0941,0.18785 0,2.48393 0,2.85743 0,0.37341 0.0941,2.66958 0,2.85742 -0.15043,0.30123 -0.56423,0.41369 -0.71485,0.71484 -0.21279,0.42592 0.33676,1.09102 0,1.42774 -0.16819,0.16819 -0.5465,-0.16819 -0.71484,0 -0.16857,0.16819 0.10658,0.50186 0,0.71484 -0.30123,0.60234 -1.12655,0.82543 -1.42774,1.42773 -0.10658,0.21279 0.10659,0.50191 0,0.71485 -0.15042,0.30123 -0.56423,0.41369 -0.71484,0.71484 -0.10658,0.21279 0.16857,0.54647 0,0.71485 -0.16819,0.16818 -0.54647,-0.16857 -0.71484,0 -0.16819,0.16818 0.10658,0.49991 0,0.71289 -0.30123,0.60234 -1.12659,0.82738 -1.42774,1.42968 -0.10658,0.21317 0.16819,0.54455 0,0.71289 -0.16857,0.16857 -0.54646,-0.16818 -0.71484,0 -0.16857,0.16857 0.10658,0.50187 0,0.71485 -0.15043,0.30123 -0.56427,0.41365 -0.71485,0.71484 -0.10658,0.21279 0.16857,0.54647 0,0.71485 -0.16818,0.16818 -0.54451,-0.16857 -0.71289,0 -0.16819,0.16818 0.16857,0.54455 0,0.71289 -0.16819,0.16856 -0.5465,-0.16819 -0.71484,0 -0.16857,0.16856 0.16819,0.5465 0,0.71484 -0.16857,0.16857 -0.5465,-0.16819 -0.71484,0 -1.47791,1.47787 2.25978,-0.0587 -0.71289,1.42773 -0.21317,0.10659 -0.54647,-0.16856 -0.71485,0 -0.16857,0.16819 0.16857,0.54647 0,0.71485 -0.16857,0.16819 -0.54646,-0.16857 -0.71484,0 -0.33676,0.33675 0.33675,1.09297 0,1.42969 -0.16819,0.16818 -0.54647,-0.16819 -0.71485,0 -0.16818,0.16818 0.16857,0.54455 0,0.71289 -0.16818,0.16819 -0.54455,-0.16819 -0.71289,0 -0.16856,0.16819 0.16819,0.54646 0,0.71484 -0.16856,0.16819 -0.5465,-0.16857 -0.71484,0 -0.16857,0.16819 0.16819,0.54647 0,0.71484 -0.16857,0.16819 -0.5465,-0.16856 -0.71484,0 -0.16819,0.16819 0.16819,0.54455 0,0.71289 -0.16819,0.16857 -0.54452,-0.16818 -0.71289,0 -0.16819,0.16857 0.16818,0.54651 0,0.71485 -0.16819,0.16857 -0.54647,-0.16819 -0.71485,0 -0.16819,0.16857 0.16857,0.54646 0,0.71484 -0.16819,0.16857 -0.5465,-0.16857 -0.71484,0 -0.16857,0.16857 0.16819,0.54647 0,0.71485 -0.16857,0.16818 -0.54651,-0.16857 -0.71485,0 -0.16856,0.16818 0.16819,0.54451 0,0.71289 -0.16856,0.16819 -0.54455,-0.16857 -0.71289,0 -0.16819,0.16819 0.16819,0.54646 0,0.71484 -0.16819,0.16819 -0.54646,-0.16857 -0.71484,0 -0.16819,0.16819 0.16857,0.5465 0,0.71484 -0.16819,0.16857 -0.54647,-0.16819 -0.71484,0 -0.33676,0.33676 0.33675,1.09102 0,1.42774 -0.16819,0.16857 -0.54455,-0.16819 -0.71289,0 -0.33676,0.33675 0.21278,1.00373 0,1.42969 -0.15081,0.30122 -0.56427,0.41173 -0.71485,0.71289 -0.10885,0.21732 0,1.8209 0,2.14257 0,0.37342 -0.0941,2.66962 0,2.85743 0.15043,0.30122 0.56423,0.41365 0.71485,0.71484 0.10658,0.21279 -0.16857,0.54647 0,0.71484 0.16818,0.16819 0.54455,-0.16856 0.71289,0 0.33675,0.33676 -0.33676,1.09102 0,1.42774 0.16856,0.16857 0.5465,-0.16819 0.71484,0 0.16857,0.16857 -0.10658,0.50187 0,0.71484 0.1508,0.30123 0.56427,0.41366 0.71484,0.71485 0.10659,0.21278 -0.16819,0.54451 0,0.71289 0.16819,0.16819 0.54452,-0.16857 0.71289,0 0.16819,0.16819 -0.16856,0.54646 0,0.71484 0.16819,0.16819 0.54647,-0.16857 0.71485,0 0.16819,0.16819 -0.10658,0.50191 0,0.71484 0.15042,0.30123 0.47677,0.47482 0.71484,0.71289 0.23811,0.23811 0.41369,0.56427 0.71485,0.71485 0.21278,0.10658 0.54455,-0.16857 0.71289,0 0.16819,0.16857 -0.16819,0.54646 0,0.71484 0.16819,0.16819 0.54646,-0.16857 0.71484,0 0.16819,0.16819 -0.16857,0.54647 0,0.71485 0.2211,0.2211 3.35109,-0.22111 3.57227,0 0.16818,0.16818 -0.16857,0.54455 0,0.71289 0.0302,0.0302 2.59317,0 2.85546,0 0.17311,0 2.12156,-0.0227 2.14454,0 0.16818,0.16856 -0.16857,0.5465 0,0.71484 0.14589,0.14589 1.85937,-0.14173 2.14257,0 0.30123,0.15043 0.4117,0.56427 0.71289,0.71484 0.42592,0.21279 1.00378,-0.21278 1.42969,0 0.30123,0.15043 0.41369,0.56232 0.71485,0.71289 0.21278,0.10659 0.47478,0 0.71289,0 h 4.28711 c 0.23811,0 0.54451,0.16819 0.71289,0 0.16819,-0.16856 -0.16819,-0.54455 0,-0.71289 0.33675,-0.33675 1.09297,0.33676 1.42968,0 0.16857,-0.16819 -0.16819,-0.54646 0,-0.71484 0.16857,-0.16819 0.49996,0.10658 0.71289,0 0.13682,-0.0684 2.78909,-2.72068 2.85743,-2.85742 0.10658,-0.21317 -0.16819,-0.54647 0,-0.71485 0.16819,-0.16818 0.5465,0.16857 0.71484,0 0.16857,-0.16818 -0.10658,-0.49991 0,-0.71289 0.1508,-0.30122 0.56427,-0.41369 0.71484,-0.71484 0.21279,-0.42595 -0.21278,-1.00182 0,-1.42773 0.15043,-0.30123 0.56232,-0.4137 0.71289,-0.71485 0.21279,-0.42591 -0.21316,-1.00373 0,-1.42969 0.15043,-0.30122 0.56423,-0.41173 0.71485,-0.71289 0.10658,-0.21316 0,-0.47673 0,-0.71484 v -0.71484 c 0,-1.67513 -0.1676,0.3376 0.71484,-1.42774 0.14173,-0.28308 -0.14589,-1.99654 0,-2.14258 0.16819,-0.16819 0.54651,0.16819 0.71485,0 0.35716,-0.35716 -0.35717,-1.78545 0,-2.14257 0.16856,-0.16857 0.54455,0.16818 0.71289,0 0.16819,-0.16857 -0.16819,-0.54651 0,-0.71485 0.16819,-0.16857 0.54646,0.16819 0.71484,0 0.16819,-0.16857 -0.16819,-0.54646 0,-0.71484 0.16819,-0.16819 0.50187,0.10658 0.71484,0 0.30123,-0.15043 0.41174,-0.56427 0.71289,-0.71485 0.18785,-0.0937 2.4839,0 2.85743,0 0.2623,0 2.82866,-0.0302 2.85742,0 0.16819,0.16857 -0.16857,0.54651 0,0.71485 0.33675,0.33675 1.09297,-0.33676 1.42969,0 0.16818,0.16857 -0.16857,0.54646 0,0.71484 0.33675,0.33676 1.09101,-0.33675 1.42773,0 0.16857,0.16819 -0.16819,0.54647 0,0.71485 0.16857,0.16818 0.5465,-0.16857 0.71484,0 0.16819,0.16818 -0.10658,0.49995 0,0.71289 0.15043,0.30122 0.56232,0.41369 0.71289,0.71484 0.10659,0.21279 -0.16818,0.5465 0,0.71484 0.16819,0.16819 0.54647,-0.16819 0.71485,0 0.33675,0.33676 -0.21279,1.00182 0,1.42774 0.15042,0.30123 0.56427,0.41369 0.71484,0.71484 0.28573,0.57143 -0.28573,1.57115 0,2.14258 0.15081,0.30123 0.56427,0.41365 0.71485,0.71484 0.22526,0.4506 -0.22526,3.11968 0,3.57032 0.15042,0.30122 0.56231,0.41365 0.71289,0.71484 0.0487,0.0975 0.0487,4.18761 0,4.28516 -0.15043,0.30122 -0.56232,0.41369 -0.71289,0.71484 -0.24681,0.49338 0.25058,3.32153 0,3.57227 -0.16819,0.16818 -0.54647,-0.16819 -0.71485,0 -0.034,0.034 0,3.23351 0,3.57031 0,0.23811 0.16819,0.54646 0,0.71484 -0.16819,0.16857 -0.5465,-0.16857 -0.71484,0 -0.16819,0.16857 0,0.47674 0,0.71485 0,0.23811 -0.16819,0.54451 0,0.71289 0.16819,0.16819 0.5465,-0.16857 0.71484,0 0.35717,0.35716 -0.35716,1.78545 0,2.14257 0.16819,0.16857 0.54651,-0.16818 0.71485,0 0.16856,0.16857 -0.16819,0.54647 0,0.71485 0.16856,0.16857 0.54455,-0.16857 0.71289,0 0.16819,0.16857 -0.16819,0.54646 0,0.71484 0.33675,0.33676 1.09297,-0.33675 1.42968,0 0.16819,0.16819 -0.16819,0.54647 0,0.71485 0.17197,0.17196 2.68553,-0.17197 2.85743,0 0.16818,0.16818 -0.16857,0.54455 0,0.71289 0.034,0.034 3.23351,0 3.57031,0 0.23811,0 0.54646,-0.16819 0.71484,0 0.16819,0.16856 -0.16819,0.5465 0,0.71484 0.16819,0.16857 0.47674,0 0.71485,0 0.23811,0 0.49995,0.10658 0.71289,0 0.30122,-0.15043 0.41369,-0.56423 0.71484,-0.71484 0.83758,-0.41878 0.84693,0.42446 1.42773,0.71484 0.21279,0.10658 0.47674,0 0.71485,0 0.2623,0 2.82866,-0.0302 2.85742,0 0.16819,0.16857 -0.16819,0.5465 0,0.71484 0.33676,0.33676 1.09102,-0.33675 1.42773,0 0.16819,0.16819 -0.16818,0.54452 0,0.71289 0.16819,0.16819 0.54651,-0.16856 0.71485,0 0.16857,0.16819 -0.10658,0.50187 0,0.71485 0.51087,0.51086 0.70263,0.68736 0.83008,0.80078 -0.25008,-0.19728 -0.62701,-0.39459 -0.11524,0.62891 0.15043,0.30122 0.56427,0.4117 0.71485,0.71289 0.10658,0.21278 -0.16857,0.54646 0,0.71484 0.16818,0.16819 0.54451,-0.16857 0.71289,0 0.14589,0.14589 -0.14174,1.85938 0,2.14258 0.15042,0.30123 0.56426,0.41369 0.71484,0.71484 0.21279,0.42592 -0.21279,1.00182 0,1.42774 0.1508,0.30122 0.56427,0.41365 0.71484,0.71484 0.24681,0.49338 -0.25058,3.32153 0,3.57227 0.16857,0.16818 0.54455,-0.16857 0.71289,0 0.16857,0.16818 0,0.47481 0,0.71289 V 475 480 H 640 V 0 Z"
       id="path833"
       transform="scale(0.26458333)"
       inkscape:connector-curvature="0" />
  </g>
</svg>
