<?xml version="1.0" encoding="UTF-8" standalone="no"?>
<!-- Created with Inkscape (http://www.inkscape.org/) -->

<svg
   xmlns:dc="http://purl.org/dc/elements/1.1/"
   xmlns:cc="http://creativecommons.org/ns#"
   xmlns:rdf="http://www.w3.org/1999/02/22-rdf-syntax-ns#"
   xmlns:svg="http://www.w3.org/2000/svg"
   xmlns="http://www.w3.org/2000/svg"
   xmlns:sodipodi="http://sodipodi.sourceforge.net/DTD/sodipodi-0.dtd"
   xmlns:inkscape="http://www.inkscape.org/namespaces/inkscape"
   width="169.33333mm"
   height="127mm"
   viewBox="0 0 169.33333 127"
   version="1.1"
   id="svg8"
   inkscape:version="0.92.4 (5da689c313, 2019-01-14)"
   sodipodi:docname="2_8_nervi_vasorum.svg">
  <defs
     id="defs2" />
  <sodipodi:namedview
     id="base"
     pagecolor="#ffffff"
     bordercolor="#666666"
     borderopacity="1.0"
     inkscape:pageopacity="0.0"
     inkscape:pageshadow="2"
     inkscape:zoom="0.98994949"
     inkscape:cx="274.99865"
     inkscape:cy="320.97924"
     inkscape:document-units="mm"
     inkscape:current-layer="layer5"
     showgrid="false"
     fit-margin-top="0"
     fit-margin-left="0"
     fit-margin-right="0"
     fit-margin-bottom="0"
     inkscape:window-width="1920"
     inkscape:window-height="1001"
     inkscape:window-x="-9"
     inkscape:window-y="-9"
     inkscape:window-maximized="1" />
  <metadata
     id="metadata5">
    <rdf:RDF>
      <cc:Work
         rdf:about="">
        <dc:format>image/svg+xml</dc:format>
        <dc:type
           rdf:resource="http://purl.org/dc/dcmitype/StillImage" />
        <dc:title></dc:title>
      </cc:Work>
    </rdf:RDF>
  </metadata>
  <g
     inkscape:groupmode="layer"
     id="layer5"
     inkscape:label="nervi_vasorum">
    <path
       style="fill:none;stroke:#000000;stroke-width:0.26458332px;stroke-linecap:butt;stroke-linejoin:miter;stroke-opacity:1"
       d="m 72.830946,52.966339 c 1.911829,-0.819354 1.192397,-0.801807 2.00452,-0.801807 0.04454,0 0.102137,0.0315 0.133636,0 0.0315,-0.0315 0,-0.08909 0,-0.133635 0,-0.222724 0,-0.44545 0,-0.668174 0,-0.04454 0.0315,-0.102137 0,-0.133636 -0.0315,-0.0315 -0.102137,0.0315 -0.133636,0 -0.0315,-0.0315 0.0315,-0.102137 0,-0.133633 -0.0315,-0.0315 -0.102137,0.0315 -0.133633,0 -0.06682,-0.06682 0.06682,-0.334086 0,-0.400904 -0.0315,-0.0315 -0.102137,0.0315 -0.133636,0 -0.0315,-0.0315 0.0315,-0.102137 0,-0.133636 -0.0315,-0.0315 -0.102137,0.0315 -0.133636,0 -0.0315,-0.0315 0.0315,-0.102137 0,-0.133633 -0.0315,-0.0315 -0.102134,0.0315 -0.133633,0 -0.03656,-0.03657 0.03625,-0.462045 0,-0.534541 -0.02817,-0.05635 -0.105463,-0.07729 -0.133635,-0.133635 -0.03984,-0.07968 0.03984,-0.187585 0,-0.267269 -0.02817,-0.05635 -0.105463,-0.07729 -0.133633,-0.133633 -0.03984,-0.07969 0.06299,-0.204274 0,-0.267272 -0.0315,-0.0315 -0.102138,0.0315 -0.133636,0 -0.0315,-0.0315 0.01992,-0.09379 0,-0.133633 -0.02817,-0.05635 -0.105463,-0.07729 -0.133636,-0.133636 -0.01992,-0.03984 0.01992,-0.09379 0,-0.133635 -0.02817,-0.05634 -0.10546,-0.07729 -0.133633,-0.133633 -0.01992,-0.03984 0.0315,-0.102138 0,-0.133636 -0.0315,-0.0315 -0.102137,0.0315 -0.133636,0 -0.0315,-0.0315 0.0315,-0.102137 0,-0.133633 -0.0315,-0.0315 -0.102137,0.0315 -0.133636,0 -0.0315,-0.0315 0.0315,-0.102137 0,-0.133636 -0.0315,-0.0315 -0.102134,0.0315 -0.133633,0 -0.0315,-0.0315 0.0315,-0.102137 0,-0.133636 -0.0315,-0.0315 -0.102137,0.0315 -0.133635,0 -0.0315,-0.0315 0.0315,-0.102137 0,-0.133633 -0.0315,-0.0315 -0.09379,0.01992 -0.133634,0 -0.112691,-0.05635 -0.15458,-0.210926 -0.267271,-0.267271 -0.03984,-0.01992 -0.102137,0.0315 -0.133633,0 -0.0315,-0.0315 0.0315,-0.102135 0,-0.133633 -0.0315,-0.0315 -0.102137,0.0315 -0.133636,0 -0.0315,-0.0315 0.0315,-0.102138 0,-0.133636 -0.0315,-0.0315 -0.102137,0.0315 -0.133636,0 -0.0315,-0.0315 0.0315,-0.102137 0,-0.133633 -0.06299,-0.063 -0.204271,0.06299 -0.267268,0 -0.0315,-0.0315 0.0315,-0.102137 0,-0.133636 -0.0315,-0.0315 -0.09379,0.01992 -0.133636,0 -0.05634,-0.02817 -0.07729,-0.105463 -0.133633,-0.133636 -0.03984,-0.01992 -0.102137,0.0315 -0.133636,0 -0.0315,-0.0315 0.0315,-0.102137 0,-0.133633 -0.063,-0.063 -0.204274,0.063 -0.267269,0 -0.0315,-0.0315 0.0315,-0.102137 0,-0.133636 -0.0315,-0.0315 -0.09379,0.01992 -0.133636,0 -0.330263,-0.165131 0.04613,-0.133635 -0.267269,-0.133635 -0.04454,0 -0.08909,0 -0.133635,0 -0.04454,0 -0.09379,0.01992 -0.133633,0 -0.05635,-0.02817 -0.07729,-0.105461 -0.133636,-0.133634 -0.03984,-0.01992 -0.08909,0 -0.133633,0 -0.04454,0 -0.08909,0 -0.133636,0 -0.222724,0 -0.44545,0 -0.668173,0 -0.04455,0 -0.08909,0 -0.133636,0 -0.04454,0 -0.102137,-0.0315 -0.133633,0 -0.0315,0.0315 0.0315,0.102138 0,0.133634 -0.0315,0.0315 -0.102137,-0.0315 -0.133636,0 -0.0315,0.0315 0.0315,0.102137 0,0.133635 -0.063,0.063 -0.204274,-0.063 -0.267269,0 -0.0315,0.0315 0.0315,0.102137 0,0.133636 -0.0315,0.0315 -0.102137,-0.0315 -0.133636,0 -0.0315,0.0315 0.0315,0.102135 0,0.133633 -0.0315,0.0315 -0.09379,-0.01992 -0.133635,0 -0.556155,0.27808 0.142861,-0.0092 -0.133633,0.267272 -0.0315,0.0315 -0.102138,-0.0315 -0.133636,0 -0.0315,0.0315 0.0315,0.102134 0,0.133633 -0.0315,0.0315 -0.102137,-0.0315 -0.133633,0 -0.0315,0.0315 0.0315,0.102137 0,0.133636 -0.0315,0.0315 -0.102137,-0.0315 -0.133636,0 -0.0315,0.0315 0.0315,0.102137 0,0.133633 -0.0315,0.0315 -0.102137,-0.0315 -0.133636,0 -0.0315,0.0315 0.01992,0.09379 0,0.133635 -0.02817,0.05635 -0.10546,0.07729 -0.133633,0.133636 -0.03984,0.07969 0.063,0.204272 0,0.267269 -0.0315,0.0315 -0.102137,-0.0315 -0.133636,0 -0.0315,0.0315 0,0.08909 0,0.133636 0,0.04454 0,0.08909 0,0.133633 0,0.09472 -0.01728,0.767257 0,0.801809 0.02817,0.05635 0.105463,0.07729 0.133636,0.133636 0.03984,0.07968 -0.03984,0.187584 0,0.267269 0.02817,0.05635 0.10546,0.07729 0.133633,0.133633 0.03984,0.07968 -0.06299,0.204274 0,0.267271 0.0315,0.0315 0.102137,-0.0315 0.133636,0 0.0315,0.0315 -0.0315,0.102137 0,0.133633 0.0315,0.0315 0.102137,-0.0315 0.133636,0 0.0315,0.0315 -0.0315,0.102137 0,0.133636 0.0315,0.0315 0.102134,-0.0315 0.133633,0 0.0315,0.0315 -0.01992,0.09379 0,0.133636 0.05635,0.112689 0.210926,0.154577 0.267269,0.267269 0.01992,0.03984 -0.0315,0.102137 0,0.133633 0.0315,0.0315 0.102137,-0.0315 0.133635,0 0.0315,0.0315 -0.0315,0.102137 0,0.133636 0.0315,0.0315 0.102137,-0.0315 0.133636,0 0.0315,0.0315 -0.0315,0.102137 0,0.133635 0.0315,0.0315 0.102137,-0.0315 0.133633,0 0.0315,0.0315 -0.0315,0.102137 0,0.133633 0.0315,0.0315 0.102137,-0.0315 0.133636,0 0.0315,0.0315 -0.0315,0.102137 0,0.133636 0.063,0.063 0.204274,-0.063 0.267269,0 0.0315,0.0315 -0.0315,0.102137 0,0.133636 0.0315,0.0315 0.09379,-0.01992 0.133636,0 0.05635,0.02817 0.07729,0.10546 0.133633,0.133633 0.03984,0.01992 0.102137,-0.0315 0.133635,0 0.0315,0.0315 -0.0315,0.102137 0,0.133636 0.063,0.06299 0.204275,-0.063 0.267269,0 0.0315,0.0315 -0.0315,0.102137 0,0.133633 0.0315,0.0315 0.102137,-0.0315 0.133636,0 0.0315,0.0315 -0.0315,0.102137 0,0.133636 0.0315,0.0315 0.102137,-0.0315 0.133636,0 0.0315,0.0315 -0.0315,0.102137 0,0.133635 0.06299,0.063 0.187584,-0.03984 0.267269,0 0.05634,0.02817 0.07729,0.105461 0.133633,0.133633 0.03984,0.01992 0.102137,-0.0315 0.133635,0 0.0315,0.0315 -0.0315,0.102138 0,0.133636 0.063,0.063 0.187585,-0.03984 0.267269,0 0.05635,0.02817 0.07729,0.105463 0.133636,0.133636 0.03984,0.01992 0.102137,-0.0315 0.133636,0 0.0315,0.0315 -0.0315,0.102134 0,0.133633 0.06299,0.063 0.204271,-0.063 0.267269,0 0.0315,0.0315 -0.0315,0.102137 0,0.133636 0.06299,0.06299 0.204274,-0.063 0.267269,0 0.0315,0.0315 0.04454,0.133633 0,0.133633 -0.063,0 -0.196631,-0.133633 -0.133636,-0.133633 0.09961,0 0.184393,0.07838 0.267271,0.133633 0.05241,0.03495 0.178179,0.08909 0.133633,0.133636 -0.04454,0.04454 -0.194749,-0.118356 -0.133633,-0.133636 0.216075,-0.05402 0.445447,0 0.668174,0 z"
       id="path858"
       inkscape:connector-curvature="0" />
    <path
       style="fill:none;stroke:#000000;stroke-width:0.26458332px;stroke-linecap:butt;stroke-linejoin:miter;stroke-opacity:1"
       d="m 140.18287,37.063804 c 1.92723,-0.963618 1.37786,-0.442423 2.00452,-1.069078 0.0445,-0.04454 0.0773,-0.105463 0.13363,-0.133636 0.0399,-0.01992 0.10214,0.0315 0.13364,0 0.0315,-0.0315 -0.0315,-0.102137 0,-0.133633 0.0315,-0.0315 0.10213,0.0315 0.13363,0 0.0315,-0.0315 -0.0315,-0.102137 0,-0.133636 0.0315,-0.0315 0.10214,0.0315 0.13364,0 0.0315,-0.0315 -0.0315,-0.102137 0,-0.133636 0.0315,-0.0315 0.10213,0.0315 0.13363,0 0.0315,-0.0315 -0.0315,-0.102137 0,-0.133633 0.0315,-0.0315 0.10214,0.0315 0.13364,0 0.0315,-0.0315 -0.0199,-0.09379 0,-0.133635 0.0282,-0.05635 0.10546,-0.07729 0.13363,-0.133636 0.0199,-0.03984 -0.0315,-0.102135 0,-0.133633 0.0315,-0.0315 0.10214,0.0315 0.13363,0 0.063,-0.063 -0.063,-0.204274 0,-0.267269 0.0315,-0.0315 0.10214,0.0315 0.13364,0 0.004,-0.0043 0,-0.368496 0,-0.400905 0,-0.04454 0.0315,-0.102137 0,-0.133635 -0.0315,-0.0315 -0.10214,0.0315 -0.13364,0 -0.063,-0.06299 0.063,-0.204275 0,-0.267269 -0.0315,-0.0315 -0.10213,0.0315 -0.13363,0 -0.0315,-0.0315 0.0199,-0.09379 0,-0.133636 -0.0282,-0.05635 -0.0891,-0.08909 -0.13363,-0.133633 -0.0446,-0.04454 -0.0773,-0.105463 -0.13364,-0.133636 -0.0398,-0.01992 -0.10214,0.0315 -0.13363,0 -0.0315,-0.0315 0.0315,-0.102137 0,-0.133636 -0.063,-0.06299 -0.20428,0.063 -0.26727,0 -0.0315,-0.0315 0.0315,-0.102137 0,-0.133633 -0.063,-0.063 -0.18759,0.03984 -0.26727,0 -0.0563,-0.02817 -0.0773,-0.105463 -0.13364,-0.133635 -0.0797,-0.03984 -0.18758,0.03984 -0.26727,0 -0.0563,-0.02817 -0.0773,-0.105463 -0.13363,-0.133636 -0.0797,-0.03984 -0.20428,0.063 -0.26727,0 -0.0315,-0.0315 0.0315,-0.102135 0,-0.133633 -0.063,-0.063 -0.20427,0.06299 -0.26727,0 -0.0315,-0.0315 0.0315,-0.102137 0,-0.133636 -0.0315,-0.0315 -0.0938,0.01992 -0.13364,0 -0.0563,-0.02817 -0.0773,-0.105463 -0.13363,-0.133633 -0.0398,-0.01992 -0.10214,0.0315 -0.13363,0 -0.0315,-0.0315 0.0315,-0.102137 0,-0.133636 -0.0315,-0.0315 -0.10214,0.0315 -0.13364,0 -0.0315,-0.0315 0.0315,-0.102137 0,-0.133636 -0.0315,-0.0315 -0.10214,0.0315 -0.13364,0 -0.0315,-0.0315 0.0315,-0.102137 0,-0.133633 -0.0315,-0.0315 -0.10213,0.0315 -0.13363,0 -0.0315,-0.0315 0.0199,-0.0938 0,-0.133636 -0.0282,-0.05635 -0.10546,-0.07729 -0.13363,-0.133635 -0.0199,-0.03984 0.0315,-0.102135 0,-0.133633 -0.0315,-0.0315 -0.0938,0.01992 -0.13364,0 -0.0563,-0.02817 -0.0891,-0.08909 -0.13363,-0.133636 -0.0446,-0.04454 -0.10547,-0.07729 -0.13364,-0.133636 -0.0199,-0.03984 0.0315,-0.102134 0,-0.133633 -0.0315,-0.0315 -0.10214,0.0315 -0.13363,0 -0.2765,-0.276495 0.42252,0.01079 -0.13364,-0.267269 -0.0398,-0.01992 -0.10214,0.0315 -0.13363,0 -0.0315,-0.0315 0.0315,-0.102137 0,-0.133636 -0.0315,-0.0315 -0.0938,0.01992 -0.13364,0 -0.0563,-0.02817 -0.0773,-0.105462 -0.13363,-0.133635 -0.0398,-0.01992 -0.0938,0.01992 -0.13364,0 -0.0563,-0.02817 -0.0773,-0.105461 -0.13363,-0.133633 -0.0345,-0.01728 -0.70709,0 -0.80181,0 -0.0324,0 -0.39661,-0.0043 -0.40091,0 -0.0315,0.0315 0.0315,0.102137 0,0.133633 -0.063,0.063 -0.18758,-0.03984 -0.26726,0 -0.0564,0.02817 -0.0773,0.105463 -0.13364,0.133635 -0.0398,0.01992 -0.10214,-0.0315 -0.13363,0 -0.0315,0.0315 0.0315,0.102138 0,0.133636 -0.0315,0.0315 -0.10214,-0.0315 -0.13364,0 -0.0315,0.0315 0.0315,0.102135 0,0.133633 -0.0315,0.0315 -0.10214,-0.0315 -0.13363,0 -0.0315,0.0315 0.0315,0.102137 0,0.133636 -0.0315,0.0315 -0.10214,-0.0315 -0.13364,0 -0.0315,0.0315 0.0199,0.09379 0,0.133633 -0.0282,0.05635 -0.10546,0.07729 -0.13363,0.133636 -0.0199,0.03984 0.0199,0.09379 0,0.133636 -0.0282,0.05635 -0.10547,0.07729 -0.13364,0.133633 -0.0265,0.05298 0.0273,0.373586 0,0.400904 -0.0315,0.0315 -0.10213,-0.0315 -0.13363,0 -0.0366,0.03657 0.0362,0.462045 0,0.534541 -0.0282,0.05635 -0.10547,0.07729 -0.13364,0.133633 -0.0199,0.03984 0,0.08909 0,0.133636 0,0.04454 -0.0315,0.102137 0,0.133635 0.0315,0.0315 0.10214,-0.0315 0.13364,0 0.005,0.0054 0,0.485463 0,0.534538 0,0.04454 0.0315,0.102137 0,0.133636 -0.0315,0.0315 -0.10214,-0.0315 -0.13364,0 -0.0273,0.02732 0.0265,0.347919 0,0.400904 -0.0563,0.112689 -0.21092,0.154578 -0.26727,0.267269 -0.0199,0.03984 0.0315,0.102137 0,0.133636 -0.0315,0.0315 -0.10213,-0.0315 -0.13363,0 -0.0315,0.0315 0.0315,0.102134 0,0.133633 -0.0315,0.0315 -0.10214,-0.0315 -0.13364,0 -0.0315,0.0315 0.0315,0.102137 0,0.133636 -0.0315,0.0315 -0.10213,-0.0315 -0.13363,0 -0.004,0.0043 0,0.368493 0,0.400904 0,0.35636 0.0445,-0.04454 -0.13364,0.133633 -0.10446,0.104466 0.11624,0.232479 0.13364,0.267272 0.0362,0.07249 -0.0366,0.497972 0,0.534538 0.0315,0.0315 0.10214,-0.0315 0.13363,0 0.063,0.063 -0.063,0.204274 0,0.267269 0.0315,0.0315 0.10214,-0.0315 0.13364,0 0.0315,0.0315 -0.0315,0.102137 0,0.133635 0.0315,0.0315 0.0938,-0.01992 0.13363,0 0.0563,0.02817 0.0773,0.105463 0.13364,0.133636 0.0398,0.01992 0.10213,-0.0315 0.13363,0 0.0315,0.0315 -0.0315,0.102134 0,0.133633 0.063,0.063 0.20428,-0.063 0.26727,0 0.0315,0.0315 -0.0315,0.102137 0,0.133636 0.0322,0.03216 0.50238,-0.03216 0.53454,0 0.0315,0.0315 -0.0315,0.102137 0,0.133633 0.0315,0.0315 0.0891,0 0.13364,0 0.0699,0 0.4994,0.01757 0.53453,0 0.0564,-0.02817 0.0773,-0.10546 0.13364,-0.133633 0.0398,-0.01992 0.0891,0 0.13363,0 0.0446,0 0.0891,0 0.13364,0 0.22272,0 0.44545,0 0.66817,0 0.063,0 0.66212,0.0061 0.66818,0 0.0315,-0.0315 -0.0315,-0.102137 0,-0.133636 0.0315,-0.0315 0.0891,0 0.13363,0 0.3173,0 0.0904,-0.0108 0.66818,0.133636 z"
       id="path860"
       inkscape:connector-curvature="0" />
  </g>
</svg>
