<?xml version="1.0" encoding="UTF-8" standalone="no"?>
<!-- Created with Inkscape (http://www.inkscape.org/) -->

<svg
   xmlns:dc="http://purl.org/dc/elements/1.1/"
   xmlns:cc="http://creativecommons.org/ns#"
   xmlns:rdf="http://www.w3.org/1999/02/22-rdf-syntax-ns#"
   xmlns:svg="http://www.w3.org/2000/svg"
   xmlns="http://www.w3.org/2000/svg"
   xmlns:sodipodi="http://sodipodi.sourceforge.net/DTD/sodipodi-0.dtd"
   xmlns:inkscape="http://www.inkscape.org/namespaces/inkscape"
   width="368.29999mm"
   height="275.16666mm"
   viewBox="0 0 368.29999 275.16666"
   version="1.1"
   id="svg8"
   inkscape:version="0.92.4 (5da689c313, 2019-01-14)"
   sodipodi:docname="3_1_anel_cartilagem_hialina.svg">
  <defs
     id="defs2" />
  <sodipodi:namedview
     id="base"
     pagecolor="#ffffff"
     bordercolor="#666666"
     borderopacity="1.0"
     inkscape:pageopacity="0.0"
     inkscape:pageshadow="2"
     inkscape:zoom="0.49497475"
     inkscape:cx="765.37873"
     inkscape:cy="633.08086"
     inkscape:document-units="mm"
     inkscape:current-layer="layer8"
     showgrid="false"
     fit-margin-top="0"
     fit-margin-left="0"
     fit-margin-right="0"
     fit-margin-bottom="0"
     inkscape:window-width="1920"
     inkscape:window-height="1001"
     inkscape:window-x="-9"
     inkscape:window-y="-9"
     inkscape:window-maximized="1" />
  <metadata
     id="metadata5">
    <rdf:RDF>
      <cc:Work
         rdf:about="">
        <dc:format>image/svg+xml</dc:format>
        <dc:type
           rdf:resource="http://purl.org/dc/dcmitype/StillImage" />
        <dc:title></dc:title>
      </cc:Work>
    </rdf:RDF>
  </metadata>
  <g
     inkscape:groupmode="layer"
     id="layer8"
     inkscape:label="anel de cartilagem hialina">
    <path
       style="fill:none;stroke:#000000;stroke-width:0.26458332px;stroke-linecap:butt;stroke-linejoin:miter;stroke-opacity:1"
       d="m 354.3994,283.18476 c 1.05862,-2.27053 1.63816,-2.97453 2.93997,-4.27633 0.0891,-0.0891 0.2109,-0.15457 0.26725,-0.26726 0.0399,-0.0797 -0.0398,-0.18759 0,-0.26728 0.0564,-0.11269 0.17817,-0.17817 0.26728,-0.26726 0.20876,-0.20875 0.64805,-0.57118 0.8018,-0.80182 0.11051,-0.16573 0.15676,-0.36877 0.26728,-0.53453 0.13978,-0.20966 0.35634,-0.35637 0.53454,-0.53454 0.26725,-0.26726 0.53453,-0.53454 0.80179,-0.80179 0.0891,-0.0891 0.1782,-0.1782 0.26728,-0.26729 0.0891,-0.0891 0.15457,-0.21092 0.26726,-0.26728 0.0797,-0.0398 0.1782,0 0.26728,0 0.17817,-0.0891 0.36878,-0.15676 0.53454,-0.26725 0.1098,-0.0732 0.72861,-0.69202 0.80182,-0.80182 0.11049,-0.16574 0.12639,-0.39368 0.26725,-0.53454 0.14087,-0.14087 0.36878,-0.15677 0.53454,-0.26726 0.10483,-0.0699 0.17817,-0.17819 0.26728,-0.26728 0.0891,-0.0891 0.19738,-0.16243 0.26726,-0.26726 0.11052,-0.16576 0.15676,-0.3688 0.26728,-0.53453 0.13978,-0.20969 0.35634,-0.35637 0.53454,-0.53454 0.6128,-0.6128 -0.16904,0.11269 0.80179,-0.53454 0.3184,-0.21227 0.77401,-0.83304 1.06908,-1.0691 0.25085,-0.20066 0.55099,-0.33385 0.80182,-0.53454 0.53821,-0.43058 0.53086,-0.63849 1.06907,-1.06907 0.25083,-0.20066 0.55505,-0.32891 0.80182,-0.53454 0.29036,-0.24196 0.53454,-0.53454 0.8018,-0.80179 0.53453,-0.53454 1.06907,-1.06908 1.60361,-1.60362 0.1782,-0.17819 0.33295,-0.38335 0.53454,-0.53454 0.31874,-0.23906 0.73758,-0.31354 1.0691,-0.53455 0.20965,-0.13977 0.32485,-0.39476 0.53454,-0.53454 0.16573,-0.1105 0.36877,-0.15676 0.53453,-0.26727 0.20966,-0.13977 0.35634,-0.35635 0.53454,-0.53454 0.26726,-0.26726 0.53454,-0.53453 0.80179,-0.8018 0.0891,-0.0891 0.1782,-0.17818 0.26729,-0.26727 0.0891,-0.0891 0.15457,-0.21093 0.26725,-0.26727 0.0797,-0.0398 0.20429,0.063 0.26728,0 0.063,-0.063 -0.0398,-0.18759 0,-0.26727 0.0563,-0.11269 0.21093,-0.15458 0.26726,-0.26727 0.0399,-0.0797 -0.0398,-0.18759 0,-0.26727 0.0564,-0.11269 0.21093,-0.15458 0.26728,-0.26727 0.0399,-0.0797 -0.0398,-0.18758 0,-0.26727 0.0563,-0.11269 0.21093,-0.15458 0.26726,-0.26727 0.0398,-0.0797 -0.0398,-0.18759 0,-0.26727 0.11271,-0.22538 0.45487,-0.29548 0.53454,-0.53454 0.0564,-0.16903 -0.0563,-0.3655 0,-0.53454 0.0398,-0.11952 0.21092,-0.15458 0.26728,-0.26727 0.0398,-0.0797 -0.0399,-0.18758 0,-0.26727 0.0564,-0.11269 0.21092,-0.15458 0.26728,-0.26727 0.0398,-0.0797 -0.0399,-0.18758 0,-0.26727 0.0563,-0.11269 0.2109,-0.15457 0.26726,-0.26726 0.0797,-0.15937 -0.0797,-0.37518 0,-0.53455 0.0564,-0.11268 0.21092,-0.15457 0.26728,-0.26726 0.0398,-0.0797 -0.0399,-0.18759 0,-0.26727 0.0563,-0.11269 0.21092,-0.15458 0.26725,-0.26727 0.0399,-0.0797 -0.0282,-0.18275 0,-0.26727 0.063,-0.18899 0.20429,-0.34555 0.26729,-0.53454 0.0281,-0.0845 -0.0282,-0.18275 0,-0.26727 0.063,-0.18899 0.20425,-0.34555 0.26725,-0.53454 0.0802,-0.24054 -0.0802,-0.56127 0,-0.80181 0.0399,-0.11952 0.21093,-0.15458 0.26728,-0.26727 0.084,-0.16798 -0.084,-0.90109 0,-1.06908 0.0563,-0.11269 0.22741,-0.14774 0.26726,-0.26727 0.0479,-0.14368 0,-0.84279 0,-1.06907 0,-0.53454 0,-1.06908 0,-1.60362 0,-0.17818 0,-0.35636 0,-0.53454 0,-0.17818 0.0432,-0.36168 0,-0.53454 -0.0483,-0.19326 -0.21894,-0.34127 -0.26726,-0.53454 -0.0432,-0.17286 0,-0.35636 0,-0.53454 0,-0.44544 0,-0.89089 0,-1.33634 0,-0.17819 0,-0.35636 0,-0.53454 0,-0.17818 0.0432,-0.36168 0,-0.53454 -0.0483,-0.19326 -0.2282,-0.3392 -0.26728,-0.53454 -0.098,-0.48989 0.0986,-1.37801 0,-1.87089 -0.0552,-0.27625 -0.22095,-0.52391 -0.26725,-0.80181 -0.0439,-0.26363 0.0439,-0.53817 0,-0.80181 -0.0463,-0.27789 -0.21204,-0.52555 -0.26729,-0.80181 -0.0349,-0.17471 0.0349,-0.35981 0,-0.53453 -0.0552,-0.27626 -0.22095,-0.52392 -0.26725,-0.80181 -0.0439,-0.26364 0.0439,-0.53818 0,-0.80181 -0.0926,-0.55579 -0.44191,-1.04783 -0.53454,-1.60362 0,-2.55784 0.11951,0.59764 -0.26728,-1.33634 -0.0524,-0.26208 0.0524,-0.53974 0,-0.80181 -0.0391,-0.19534 -0.21895,-0.34128 -0.26728,-0.53454 -0.0432,-0.17286 0.0349,-0.35982 0,-0.53454 -0.0553,-0.27626 -0.21202,-0.52555 -0.26726,-0.80181 -0.0349,-0.17472 0.0432,-0.36168 0,-0.53454 -0.0483,-0.19326 -0.2282,-0.3392 -0.26728,-0.53454 -0.0873,-0.4368 0.10805,-0.9042 0,-1.33635 -0.0483,-0.19326 -0.22821,-0.33919 -0.26726,-0.53454 -0.0874,-0.43679 0.10803,-0.90419 0,-1.33634 -0.0483,-0.19326 -0.21897,-0.34128 -0.26728,-0.53454 -0.0432,-0.17286 0.0432,-0.36168 0,-0.53454 -0.0483,-0.19326 -0.21894,-0.34128 -0.26726,-0.53454 -0.0432,-0.17286 0.0432,-0.36168 0,-0.53454 -0.0483,-0.19326 -0.21896,-0.34127 -0.26728,-0.53454 -0.0432,-0.17286 0.0432,-0.36168 0,-0.53454 -0.0483,-0.19326 -0.21894,-0.34127 -0.26725,-0.53454 -0.0432,-0.17285 0.0349,-0.35981 0,-0.53453 -0.0553,-0.27626 -0.21204,-0.52556 -0.26729,-0.80181 -0.0699,-0.34944 0.11269,-0.73101 0,-1.06908 -0.0398,-0.11953 -0.2274,-0.14775 -0.26725,-0.26727 -0.11269,-0.33807 0.0864,-0.72336 0,-1.06908 -0.0483,-0.19326 -0.20429,-0.34555 -0.26728,-0.53454 -0.0282,-0.0845 0,-0.17818 0,-0.26727 0,-0.17818 0,-0.35636 0,-0.53454 0,-0.17818 0.0432,-0.36168 0,-0.53454 -0.0483,-0.19326 -0.21895,-0.34127 -0.26726,-0.53453 -0.0432,-0.17286 0,-0.35636 0,-0.53454 0,-0.17818 0,-0.35636 0,-0.53454 0,-0.80181 0,-1.60362 0,-2.40543 0,-0.17818 0,-0.35636 0,-0.53454 0,-0.17818 0.0432,-0.36168 0,-0.53454 -0.0483,-0.19326 -0.21897,-0.34127 -0.26728,-0.53454 -0.0508,-0.20325 0,-1.11254 0,-1.33634 0,-0.97999 0,-1.95998 0,-2.93997 0,-0.22682 0.0491,-1.45627 0,-1.60362 -0.0399,-0.11952 -0.22744,-0.14774 -0.26726,-0.26726 -0.10779,-0.32334 0.091,-1.23956 0,-1.60362 -0.0483,-0.19327 -0.21897,-0.34128 -0.26728,-0.53454 -0.091,-0.36406 0.10779,-1.28028 0,-1.60362 -0.0398,-0.11952 -0.22743,-0.14774 -0.26725,-0.26727 -0.0564,-0.16903 0,-0.35636 0,-0.53454 0,-0.0891 0.0398,-0.18758 0,-0.26727 -0.0564,-0.11269 -0.21093,-0.15457 -0.26729,-0.26727 -0.0398,-0.0797 0.0399,-0.18758 0,-0.26726 -0.0564,-0.1127 -0.21092,-0.15458 -0.26725,-0.26728 -0.14261,-0.28519 0.14258,-0.24934 0,-0.53453 -0.0564,-0.1127 -0.21093,-0.15458 -0.26728,-0.26727 -0.0399,-0.0797 0,-0.17818 0,-0.26727 -0.0891,-0.0891 -0.21093,-0.15458 -0.26729,-0.26727 -0.0797,-0.15937 0.126,-0.40855 0,-0.53454 -0.063,-0.063 -0.20425,0.063 -0.26725,0 -0.13364,-0.13364 0.13364,-0.66817 0,-0.80181 -0.063,-0.063 -0.20429,0.063 -0.26728,0 -0.063,-0.063 0.0398,-0.18758 0,-0.26727 -0.11269,-0.22538 -0.42183,-0.30916 -0.53454,-0.53454 -0.0398,-0.0797 0.063,-0.20427 0,-0.26727 -0.063,-0.063 -0.20426,0.063 -0.26726,0 -0.063,-0.063 0.063,-0.20427 0,-0.26727 -0.063,-0.063 -0.20428,0.063 -0.26728,0 -0.063,-0.063 0.063,-0.20427 0,-0.26727 -0.063,-0.063 -0.17817,0 -0.26725,0 -0.0891,0 -0.1782,0 -0.26729,0 -0.0981,0 -1.0583,-0.0108 -1.06907,0 -0.063,0.063 0.063,0.20428 0,0.26727 -0.126,0.12599 -0.40855,-0.12599 -0.53454,0 -0.063,0.063 0.063,0.20427 0,0.26727 -0.12599,0.12599 -0.37518,-0.0797 -0.53454,0 -0.22537,0.11269 -0.30916,0.42185 -0.53454,0.53454 -0.0797,0.0398 -0.18758,-0.0398 -0.26728,0 -0.11268,0.0564 -0.15457,0.21093 -0.26725,0.26727 -0.0797,0.0398 -0.18759,-0.0398 -0.26729,0 -0.3207,0.16036 -0.48106,0.64145 -0.80179,0.80181 -0.0797,0.0398 -0.18759,-0.0398 -0.26728,0 -0.11269,0.0563 -0.15457,0.21092 -0.26726,0.26727 -0.0797,0.0398 -0.18759,-0.0398 -0.26728,0 -0.11268,0.0563 -0.15457,0.21092 -0.26725,0.26727 -0.0797,0.0398 -0.18759,-0.0398 -0.26729,0 -0.11268,0.0563 -0.15457,0.21092 -0.26725,0.26727 -0.0797,0.0398 -0.18759,-0.0398 -0.26728,0 -0.22538,0.11269 -0.30917,0.42185 -0.53454,0.53454 -0.0797,0.0398 -0.18759,-0.0399 -0.26726,0 -0.2254,0.11269 -0.30916,0.42184 -0.53453,0.53453 -0.0797,0.0398 -0.18759,-0.0398 -0.26729,0 -0.88643,0.88643 0.25199,-0.12599 -0.53453,0.26727 -0.22538,0.1127 -0.32489,0.39477 -0.53454,0.53454 -0.1346,0.58884 -0.54983,0.14128 -0.80182,0.26727 -0.11269,0.0564 -0.15457,0.21093 -0.26726,0.26727 -0.0797,0.0399 -0.18275,-0.0282 -0.26728,0 -0.18899,0.063 -0.34555,0.20428 -0.53454,0.26727 -0.0845,0.0282 -0.18759,-0.0398 -0.26725,0 -0.32073,0.16036 -0.48109,0.64145 -0.80182,0.80181 -0.0797,0.0398 -0.18759,-0.0398 -0.26726,0 -0.2254,0.11269 -0.32488,0.39476 -0.53454,0.53454 -1.93786,0.96893 0.42257,-0.28173 -0.80182,0.53454 -0.16576,0.1105 -0.36877,0.15677 -0.53453,0.26727 -0.10483,0.0699 -0.15457,0.21092 -0.26729,0.26727 -0.0797,0.0398 -0.18274,-0.0282 -0.26725,0 -0.96893,0.32298 -0.19021,0.12681 -0.80182,0.53454 -0.61452,0.40969 -0.72181,0.12485 -1.33633,0.53454 -0.61161,0.40772 0.16711,0.21156 -0.80182,0.53454 -0.7956,0.2652 0.54837,-0.63286 -0.8018,0.26727 -0.10485,0.0699 -0.15459,0.21092 -0.26728,0.26726 -0.0797,0.0399 -0.18274,-0.0282 -0.26728,0 -0.17817,0.0891 -0.35634,0.17819 -0.53454,0.26727 -0.0891,0 -0.18274,-0.0282 -0.26725,0 -0.96893,0.32298 -0.19021,0.12681 -0.80182,0.53454 -1.16732,0.77821 0.0881,-0.11845 -1.06908,0.26727 -0.11951,0.0399 -0.16243,0.19738 -0.26725,0.26727 -0.33153,0.22101 -0.73758,0.31354 -1.06908,0.53454 -0.20968,0.13978 -0.32488,0.39477 -0.53454,0.53454 -0.61454,0.40969 -0.72183,0.12485 -1.33635,0.53454 -0.10483,0.0699 -0.16243,0.19738 -0.26729,0.26727 -1.93786,0.96893 0.4226,-0.28173 -0.80179,0.53454 -0.33152,0.221 -0.73758,0.31353 -1.06907,0.53454 -0.10483,0.0699 -0.16246,0.19738 -0.26729,0.26727 -0.16573,0.1105 -0.35634,0.17818 -0.53453,0.26727 -0.17817,0.0891 -0.34555,0.20427 -0.53454,0.26727 -0.0845,0.0282 -0.18275,-0.0282 -0.26726,0 -0.96893,0.32297 -0.19023,0.12681 -0.80182,0.53453 0.0304,0.50633 -0.62362,0.17818 -0.80182,0.26727 -0.11268,0.0563 -0.16243,0.19739 -0.26725,0.26727 -0.16576,0.11051 -0.36878,0.15677 -0.53454,0.26727 -0.10483,0.0699 -0.15457,0.21093 -0.26728,0.26727 -0.0797,0.0399 -0.18759,-0.0398 -0.26726,0 -0.11268,0.0564 -0.16245,0.19738 -0.26728,0.26727 -0.3315,0.22101 -0.73755,0.31354 -1.06908,0.53454 -0.10482,0.0699 -0.16242,0.19738 -0.26725,0.26727 -0.62418,0.41612 -1.51397,0.65296 -2.13818,1.06908 -0.10483,0.0699 -0.16243,0.19738 -0.26725,0.26727 -0.49343,0.32894 -1.1102,0.47286 -1.60362,0.80181 -0.10483,0.0699 -0.16245,0.19738 -0.26728,0.26727 -0.16573,0.1105 -0.35634,0.17818 -0.53454,0.26727 -0.35636,0.17818 -0.71271,0.35636 -1.06907,0.53454 -0.17817,0.0891 -0.37518,0.14774 -0.53454,0.26727 -0.20159,0.15119 -0.33295,0.38334 -0.53454,0.53453 -0.35816,0.26863 -0.95133,0.38054 -1.33636,0.53454 -0.36991,0.14797 -0.7127,0.35636 -1.06907,0.53454 -0.53454,0.26727 -1.06908,0.53454 -1.60361,0.80181 -0.17817,0.0891 -0.35637,0.17818 -0.53454,0.26727 -0.17817,0.17818 -0.31845,0.40489 -0.53454,0.53454 -0.89837,0.53901 -0.61518,-0.006 -1.33636,0.53454 -0.20158,0.15119 -0.31845,0.40489 -0.53453,0.53454 -0.24157,0.14494 -0.54023,0.16264 -0.8018,0.26727 -0.18497,0.074 -0.35637,0.17818 -0.53454,0.26727 -0.17819,0.0891 -0.37517,0.14774 -0.53453,0.26727 -0.20159,0.15118 -0.31848,0.40489 -0.53454,0.53453 -0.24159,0.14495 -0.54025,0.16264 -0.80182,0.26727 -0.41807,0.16723 -1.21624,0.56939 -1.60361,0.80181 -0.62749,0.3765 -0.72541,0.55743 -1.33636,0.80181 -1.24936,0.49975 -0.45141,-0.009 -1.87087,0.80181 -0.55779,0.31874 -1.05275,0.73855 -1.60364,1.06908 -0.34163,0.20498 -0.75033,0.29548 -1.06908,0.53454 -0.20158,0.15119 -0.33295,0.38335 -0.53453,0.53454 -0.35817,0.26862 -0.95134,0.38053 -1.33633,0.53453 -0.25123,0.10049 -1.41089,0.65726 -1.60364,0.80181 -0.20159,0.15119 -0.31846,0.4049 -0.53454,0.53454 -0.24157,0.14495 -0.54023,0.16264 -0.80179,0.26727 -0.18497,0.074 -0.35637,0.17818 -0.53454,0.26727 -0.52644,0.26323 -1.05736,0.5833 -1.60362,0.80181 -0.26159,0.10463 -0.54025,0.16264 -0.80182,0.26727 -0.36991,0.14797 -0.7127,0.35636 -1.06907,0.53454 -0.53454,0.26727 -1.06908,0.53454 -1.60361,0.80181 -0.61447,0.30723 -1.25643,0.49458 -1.8709,0.80181 -0.17817,0.0891 -0.37518,0.14774 -0.53454,0.26726 -0.8832,0.6624 -0.14488,0.43214 -1.06907,0.80181 -1.65132,0.66054 -0.0828,-0.0923 -1.33636,0.53454 -0.17817,0.0891 -0.37515,0.14774 -0.53454,0.26727 -0.20158,0.15119 -0.33295,0.38335 -0.53453,0.53454 -0.31875,0.23905 -0.75034,0.29549 -1.06908,0.53454 -0.20159,0.15119 -0.31845,0.4049 -0.53454,0.53454 -0.24156,0.14495 -0.54022,0.16264 -0.80179,0.26727 -0.18497,0.074 -0.35637,0.17818 -0.53457,0.26727 -0.53453,0.26727 -1.06907,0.53454 -1.60361,0.80181 -0.35634,0.17818 -0.71271,0.35636 -1.06907,0.53454 -0.17817,0.0891 -0.37516,0.14774 -0.53454,0.26726 -0.20159,0.1512 -0.33295,0.38335 -0.53454,0.53455 -0.31874,0.23905 -0.75033,0.29548 -1.06907,0.53453 -0.3024,0.22679 -0.48731,0.59215 -0.80182,0.80181 -0.16574,0.11051 -0.35635,0.17818 -0.53454,0.26727 -0.17817,0.17818 -0.33295,0.38335 -0.53454,0.53454 -0.31872,0.23906 -0.72742,0.32955 -1.06908,0.53454 -0.27543,0.16527 -0.52636,0.36927 -0.80179,0.53454 -0.34166,0.20499 -0.71273,0.35636 -1.06907,0.53454 -0.1782,0.0891 -0.37518,0.14774 -0.53454,0.26727 -0.20161,0.15119 -0.33295,0.38335 -0.53457,0.53454 -0.72114,0.54087 -0.43796,-0.004 -1.33633,0.53454 -0.21608,0.12964 -0.33776,0.37712 -0.53453,0.53453 -0.25083,0.20067 -0.53454,0.35636 -0.80182,0.53454 -0.26726,0.17818 -0.51451,0.39089 -0.8018,0.53454 -0.53903,0.26951 -0.86929,0.18424 -1.33636,0.53454 -0.30239,0.22679 -0.4873,0.59215 -0.80181,0.80181 -0.16574,0.1105 -0.35635,0.17818 -0.53454,0.26727 -0.17817,0.0891 -0.34126,0.21895 -0.53454,0.26727 -0.17285,0.0432 -0.36166,-0.0432 -0.53454,0 -0.77515,0.19379 -0.31276,0.20852 -0.80179,0.53454 -0.16576,0.1105 -0.35637,0.17818 -0.53454,0.26727 -0.53454,0.26727 -1.06907,0.53454 -1.60364,0.80181 -0.17817,0.0891 -0.34126,0.21895 -0.53454,0.26727 -0.17285,0.0432 -0.36549,-0.0563 -0.53453,0 -0.11952,0.0398 -0.16243,0.19738 -0.26726,0.26727 -0.16576,0.1105 -0.36878,0.15676 -0.53454,0.26726 -0.10483,0.0699 -0.16245,0.19739 -0.26728,0.26728 -0.44506,0.29671 -1.19076,0.49216 -1.60361,0.8018 -0.20159,0.15119 -0.33777,0.37713 -0.53454,0.53454 -0.31247,0.48503 -0.92075,0.49013 -1.33636,0.80181 -0.20158,0.15119 -0.33776,0.37713 -0.53454,0.53454 -0.31247,0.48503 -0.92075,0.49012 -1.33633,0.80181 -0.20158,0.15119 -0.33295,0.38335 -0.53453,0.53454 -0.31875,0.23905 -0.73758,0.31353 -1.06909,0.53454 -1.2244,0.81626 1.13605,-0.43439 -0.80181,0.53453 -0.17818,0.0891 -0.36878,0.15677 -0.53454,0.26728 -0.61159,0.40772 0.16712,0.21156 -0.80181,0.53453 -0.0845,0.0282 -0.17817,0 -0.26727,0 -0.0891,0.0891 -0.15458,0.21093 -0.26726,0.26727 -0.0797,0.0398 -0.18759,-0.0398 -0.26728,0 -0.11268,0.0563 -0.15457,0.21093 -0.26726,0.26727 -0.0797,0.0399 -0.18759,-0.0398 -0.26727,0 -0.22539,0.11269 -0.30916,0.42185 -0.53454,0.53454 -0.0797,0.0399 -0.18759,-0.0398 -0.26727,0 -0.22538,0.11269 -0.30916,0.42185 -0.53454,0.53454 -0.0797,0.0398 -0.18759,-0.0398 -0.26727,0 -0.59095,0.29548 -0.0829,0.16588 -0.26727,0.53454 -0.0564,0.11269 -0.17818,0.17818 -0.26727,0.26727 -0.88642,0.88642 0.25198,-0.12599 -0.53454,0.26727 -0.11269,0.0564 -0.17818,0.17818 -0.26727,0.26727 -0.20876,0.20876 -0.57118,0.64806 -0.80181,0.80181 -0.16575,0.1105 -0.36878,0.15676 -0.53454,0.26727 -0.10483,0.0699 -0.17818,0.17818 -0.26726,0.26727 -0.0891,0.17818 -0.10152,0.42403 -0.26728,0.53454 -0.14825,0.0988 -0.3655,-0.0564 -0.53453,0 -0.11953,0.0398 -0.16244,0.19738 -0.26727,0.26727 -0.16576,0.1105 -0.36879,0.15676 -0.53454,0.26726 -0.25012,0.16675 -0.89791,0.89791 -1.06908,1.06908 -0.0891,0.0891 -0.16244,0.19738 -0.26727,0.26727 -1.93786,0.96892 0.42259,-0.28172 -0.80181,0.53455 -0.16575,0.11049 -0.37517,0.14772 -0.53454,0.26726 -0.30238,0.22677 -0.48731,0.59214 -0.80181,0.80182 -1.93786,0.96893 0.42259,-0.28173 -0.8018,0.53454 -0.0498,0.0332 -1.05196,0.51739 -1.06908,0.53454 -0.14087,0.14086 -0.12641,0.39367 -0.26727,0.53453 -0.14087,0.14087 -0.36879,0.15677 -0.53454,0.26726 -0.10483,0.0699 -0.16244,0.19738 -0.26727,0.26728 -0.16575,0.11049 -0.36879,0.15677 -0.53454,0.26726 -0.20966,0.13978 -0.32488,0.39478 -0.53454,0.53453 -0.16575,0.11052 -0.36879,0.15677 -0.53454,0.26729 -0.20966,0.13978 -0.32487,0.39475 -0.53454,0.53453 -0.17818,0.0891 -0.35636,0.17817 -0.53454,0.26726 -0.0891,0 -0.18758,-0.0398 -0.26727,0 -0.11269,0.0564 -0.16243,0.19741 -0.26727,0.26728 -0.16575,0.11049 -0.36878,0.15677 -0.53454,0.26728 -0.10483,0.0699 -0.16243,0.19738 -0.26726,0.26726 -0.16576,0.11052 -0.36879,0.15677 -0.53454,0.26728 -0.25012,0.16674 -0.89791,0.89789 -1.06908,1.06908 -0.26727,0.26725 -0.53454,0.53453 -0.80181,0.80179 -0.0891,0.0891 -0.16244,0.19738 -0.26727,0.26728 -0.16575,0.11049 -0.36878,0.15677 -0.53454,0.26726 -0.23063,0.15375 -0.59305,0.59306 -0.80181,0.80182 -0.0891,0.0891 -0.15458,0.21092 -0.26727,0.26725 -0.0797,0.0399 -0.18758,-0.0398 -0.26727,0 -0.49204,0.24604 -0.0425,0.55579 -0.53454,0.80182 -0.0797,0.0399 -0.18758,-0.0398 -0.26726,0 -0.22538,0.11269 -0.30916,0.42185 -0.53454,0.53454 -0.0797,0.0399 -0.20428,-0.063 -0.26727,0 -0.063,0.063 0.063,0.20429 0,0.26728 -0.063,0.063 -0.20428,-0.063 -0.26727,0 -0.063,0.063 0.063,0.20426 0,0.26726 -0.55299,0.553 0.0216,-0.84505 -0.53454,0.26728 0,0.71271 0.0891,-0.0891 -0.26727,0.26726 -0.063,0.063 0.063,0.20428 0,0.26728 -0.063,0.063 -0.20427,-0.063 -0.26727,0 -0.063,0.063 0.0398,0.18759 0,0.26725 -0.0563,0.11269 -0.21092,0.1546 -0.26727,0.26729 -0.0398,0.0797 0.0398,0.18759 0,0.26725 -0.0563,0.11269 -0.21093,0.1546 -0.26727,0.26728 -0.0351,0.0703 0,0.92933 0,1.06908 0,0.1859 -0.0483,1.23968 0,1.33636 0.0563,0.11268 0.21092,0.15457 0.26727,0.26725 0.0797,0.15936 -0.12599,0.40855 0,0.53454 0.55299,0.55301 -0.0216,-0.84505 0.53454,0.26728 0.0398,0.0797 -0.0398,0.18757 0,0.26726 0.0619,0.12377 0.91188,0.91188 1.06908,1.06907 0.26727,0.26729 0.53454,0.53454 0.80181,0.80182 0.17818,0.17817 0.32487,0.39476 0.53454,0.53454 1.35019,0.90011 0.006,0.003 0.8018,0.26726 0.18899,0.063 0.36879,0.15676 0.53454,0.26728 0.10483,0.0699 0.14775,0.22743 0.26727,0.26725 0.16904,0.0564 0.36168,-0.0432 0.53454,0 0.11796,0.0295 0.95112,0.50507 1.06908,0.53454 0.17286,0.0432 0.36168,-0.0432 0.53454,0 0.19326,0.0483 0.34127,0.21897 0.53454,0.26728 0.17286,0.0432 0.36168,-0.0432 0.53454,0 0.19326,0.0483 0.33919,0.22821 0.53454,0.26729 0.26207,0.0524 0.53972,-0.0524 0.8018,0 0.19535,0.039 0.3392,0.22817 0.53454,0.26725 0.4368,0.0874 0.89955,-0.0874 1.33635,0 0.27626,0.0553 0.52391,0.22095 0.80181,0.26728 0.26363,0.0439 0.53973,-0.0524 0.80181,0 0.19534,0.0391 0.33919,0.22821 0.53454,0.26726 0.26208,0.0524 0.53454,0 0.80181,0 0.26726,0 0.53453,0 0.8018,0 0.26727,0 0.53723,-0.0378 0.80181,0 0.36364,0.052 0.70459,0.22172 1.06908,0.26728 0.35361,0.0442 0.71272,0 1.06908,0 0.35636,0 0.71272,0 1.06908,0 1.06908,0 2.13815,0 3.20723,0 0.26727,0 0.53723,-0.0378 0.80181,0 0.36363,0.0519 0.70459,0.2217 1.06908,0.26726 0.3536,0.0442 0.71272,0 1.06907,0 1.06908,0 2.13816,0 3.20724,0 1.60361,0 3.20722,0 4.81086,0 0.44543,0 0.89088,0 1.33633,0 0.35637,0 0.71491,-0.0393 1.06908,0 0.45151,0.0502 0.88487,0.21711 1.33636,0.26728 0.35417,0.0393 0.7127,0 1.06907,0 0.44545,0 0.89091,0 1.33636,0 1.15816,0 2.31632,0 3.47451,0 1.78244,0 0.89021,0 2.67269,0 0.44545,0 0.89363,0.0492 1.33633,0 0.36509,-0.0406 0.704,-0.22672 1.0691,-0.26728 0.4427,-0.0492 0.89088,0 1.33633,0 0.44545,0 0.8909,0 1.33636,0 0.35634,0 0.7127,0 1.06907,0 0.44545,0 0.89363,-0.0492 1.33633,0 0.3651,0.0406 0.70462,0.22172 1.06911,0.26728 0.35358,0.0442 0.7127,0 1.06907,0 1.06908,0 2.13815,0 3.20723,0 0.35636,0 0.7163,-0.0504 1.06907,0 0.2789,0.0399 0.52393,0.22095 0.80182,0.26725 0.26363,0.0439 0.53454,0 0.8018,0 0.26728,0 0.53453,0 0.80182,0 0.35636,0 0.7163,-0.0504 1.06907,0 0.2789,0.0399 0.5239,0.22096 0.80182,0.26729 0.43937,0.0732 0.89088,0 1.33633,0 0.17817,0 0.35983,-0.0349 0.53454,0 0.27625,0.0552 0.52557,0.21201 0.80182,0.26725 0.1747,0.035 0.35634,0 0.53454,0 0.26725,0 0.53453,0 0.80179,0 0.26728,0 0.53819,-0.0439 0.80182,0 0.27789,0.0463 0.52292,0.22744 0.80182,0.26728 0.35277,0.0504 0.71271,0 1.06907,0 0.26726,0 0.53454,0 0.8018,0 0.17819,0 0.35983,-0.035 0.53454,0 0.27625,0.0553 0.52556,0.21201 0.80182,0.26726 0.28942,0.0579 1.58517,0 1.87089,0 1.2256,0 -0.28173,0.0564 1.33633,-0.26726 0.17473,-0.035 0.35637,0 0.53454,0 0.62362,0 1.24727,0 1.87089,0 0.26726,0 0.53973,0.0524 0.8018,0 0.19534,-0.0391 0.33919,-0.2282 0.53456,-0.26728 0.26207,-0.0524 0.53454,0 0.8018,0 0.26728,0 0.53453,0 0.80182,0 0.17817,0 0.3598,0.035 0.53453,0 0.27625,-0.0552 0.52554,-0.21201 0.8018,-0.26725 0.34943,-0.0699 0.72337,0.0864 1.06907,0 0.19328,-0.0483 0.34129,-0.21897 0.53454,-0.26729 0.46405,-0.11599 1.13959,0.11602 1.60364,0 0.19325,-0.0483 0.34554,-0.20425 0.53454,-0.26725 0.0845,-0.0282 0.17817,0 0.26725,0 0.1782,0 0.35637,0 0.53454,0 0.1782,0 0.36169,0.0432 0.53454,0 0.19328,-0.0483 0.34128,-0.21897 0.53454,-0.26728 0.2423,-0.0606 1.02586,0 1.33635,0 0.17817,0 0.3655,0.0564 0.53454,0 0.11954,-0.0399 0.14774,-0.22744 0.26728,-0.26726 0.24054,-0.0802 0.56126,0.0802 0.8018,0 0.18899,-0.063 0.34554,-0.20428 0.53453,-0.26728 0.0845,-0.0282 0.1782,0 0.26729,0 0.17817,0 0.35634,0 0.53453,0 0.17817,0 0.36169,0.0432 0.53454,0 0.19325,-0.0483 0.34555,-0.20426 0.53454,-0.26726 0.0845,-0.0282 0.18275,0.0282 0.26725,0 0.189,-0.063 0.34129,-0.21897 0.53454,-0.26728 0.17288,-0.0432 0.36169,0.0432 0.53454,0 0.19328,-0.0483 0.34129,-0.21894 0.53456,-0.26725 0.17286,-0.0432 0.35634,0 0.53454,0 0.17817,0 0.35634,0 0.53454,0 0.0891,0 0.18275,0.0281 0.26725,0 0.189,-0.063 0.34129,-0.21897 0.53454,-0.26729 0.17285,-0.0432 0.35637,0 0.53454,0 0.53454,0 1.06908,0 1.60361,0 0.1782,0 0.35637,0 0.53454,0 0.1782,0 0.36169,0.0432 0.53454,0 0.19328,-0.0483 0.33922,-0.2282 0.53456,-0.26728 0.26207,-0.0524 0.53454,0 0.8018,0 0.62362,0 1.24727,0 1.87089,0 1.6927,0 3.3854,0 5.07812,0 0.89091,0 1.78179,0 2.67269,0 0.1859,0 1.23971,0.0483 1.33636,0 0.11268,-0.0563 0.15457,-0.2109 0.26725,-0.26725 0.16862,-0.0843 1.16774,0.0843 1.33636,0 0.11269,-0.0564 0.15457,-0.21093 0.26726,-0.26729 0.18462,-0.0923 1.24253,0.0938 1.33636,0 0.063,-0.063 -0.063,-0.20425 0,-0.26725 0.12599,-0.126 0.40854,0.12599 0.53453,0 0.063,-0.063 -0.063,-0.20429 0,-0.26728 0.126,-0.126 0.40855,0.12599 0.53454,0 0.063,-0.063 -0.063,-0.20426 0,-0.26726 0.126,-0.12599 0.40854,0.126 0.53454,0 0.063,-0.063 -0.063,-0.20428 0,-0.26728 0.063,-0.063 0.20428,0.063 0.26728,0 0.063,-0.063 0,-0.17817 0,-0.26726 0.35634,-0.17819 0.71271,-0.35636 1.06908,-0.53453 z"
       id="path1467"
       inkscape:connector-curvature="0" />
  </g>
</svg>
