<?xml version="1.0" encoding="UTF-8" standalone="no"?>
<!-- Created with Inkscape (http://www.inkscape.org/) -->

<svg
   xmlns:dc="http://purl.org/dc/elements/1.1/"
   xmlns:cc="http://creativecommons.org/ns#"
   xmlns:rdf="http://www.w3.org/1999/02/22-rdf-syntax-ns#"
   xmlns:svg="http://www.w3.org/2000/svg"
   xmlns="http://www.w3.org/2000/svg"
   xmlns:sodipodi="http://sodipodi.sourceforge.net/DTD/sodipodi-0.dtd"
   xmlns:inkscape="http://www.inkscape.org/namespaces/inkscape"
   width="368.29999mm"
   height="275.16666mm"
   viewBox="0 0 368.29999 275.16666"
   version="1.1"
   id="svg1475"
   sodipodi:docname="3_2_lamina_propria.svg"
   inkscape:version="0.92.4 (5da689c313, 2019-01-14)">
  <defs
     id="defs1469" />
  <sodipodi:namedview
     id="base"
     pagecolor="#ffffff"
     bordercolor="#666666"
     borderopacity="1.0"
     inkscape:pageopacity="0.0"
     inkscape:pageshadow="2"
     inkscape:zoom="0.49497475"
     inkscape:cx="472.47309"
     inkscape:cy="769.35453"
     inkscape:document-units="mm"
     inkscape:current-layer="layer10"
     showgrid="false"
     fit-margin-top="0"
     fit-margin-left="0"
     fit-margin-right="0"
     fit-margin-bottom="0"
     inkscape:window-width="1920"
     inkscape:window-height="1001"
     inkscape:window-x="-9"
     inkscape:window-y="-9"
     inkscape:window-maximized="1" />
  <metadata
     id="metadata1472">
    <rdf:RDF>
      <cc:Work
         rdf:about="">
        <dc:format>image/svg+xml</dc:format>
        <dc:type
           rdf:resource="http://purl.org/dc/dcmitype/StillImage" />
        <dc:title></dc:title>
      </cc:Work>
    </rdf:RDF>
  </metadata>
  <g
     inkscape:groupmode="layer"
     id="layer10"
     inkscape:label="lamina propria">
    <path
       style="fill:none;stroke:#000000;stroke-width:0.99999994px;stroke-linecap:butt;stroke-linejoin:miter;stroke-opacity:1"
       d="M 355.41602 518.42969 C 355.07848 518.38233 354.6423 518.57227 354.28516 518.57227 C 353.80897 518.57227 353.28334 518.3591 352.85742 518.57227 C 352.25508 518.87342 352.03007 519.69877 351.42773 520 C 351.05211 520.18784 346.46187 520 345.71484 520 C 342.36458 520 346.388 519.66243 342.85742 521.42773 C 341.71457 521.99916 339.71513 520.85631 338.57227 521.42773 C 337.96993 521.72889 337.74492 522.55619 337.14258 522.85742 C 336.57616 523.14051 333.14947 522.56526 332.85742 522.85742 C 332.5207 523.19414 333.19414 523.9484 332.85742 524.28516 C 332.14314 524.99945 329.28655 523.57086 328.57227 524.28516 C 328.23555 524.62187 328.90898 525.37809 328.57227 525.71484 C 327.89883 526.38828 326.38828 525.04141 325.71484 525.71484 C 325.37813 526.05156 326.05156 526.80582 325.71484 527.14258 C 325.0414 527.81601 323.53086 526.46914 322.85742 527.14258 C 322.5207 527.4793 323.19414 528.23551 322.85742 528.57227 C 322.18399 529.2457 320.85184 528.14635 320 528.57227 C 319.39766 528.87342 319.17461 529.69877 318.57227 530 C 318.14634 530.21279 317.5685 529.78721 317.14258 530 C 316.54024 530.30119 316.19103 530.95155 315.71484 531.42773 C 315.23865 531.42773 314.71107 531.21495 314.28516 531.42773 C 313.68282 531.72892 313.45976 532.55619 312.85742 532.85742 C 312.43151 533.07021 311.76445 532.52067 311.42773 532.85742 C 311.09102 533.19414 311.76445 533.9484 311.42773 534.28516 C 310.75431 534.95859 309.2457 533.61172 308.57227 534.28516 C 308.23555 534.62187 308.90898 535.37809 308.57227 535.71484 C 308.23555 536.0516 307.5685 535.50206 307.14258 535.71484 C 306.54024 536.016 306.31717 536.84135 305.71484 537.14258 C 305.28893 537.35537 304.62187 536.80582 304.28516 537.14258 C 303.94844 537.47926 304.62187 538.23551 304.28516 538.57227 C 303.61173 539.2457 302.27957 538.14635 301.42773 538.57227 C 300.82539 538.87346 300.47619 539.52382 300 540 C 298.97528 541.02473 298.62228 541.41211 298.39648 541.66602 C 298.79223 541.16593 299.19585 540.40111 297.14258 541.42773 C 296.54024 541.72892 296.31717 542.55619 295.71484 542.85742 C 295.28892 543.07021 294.71107 542.64426 294.28516 542.85742 C 293.68283 543.15857 293.45976 543.98393 292.85742 544.28516 C 292.43151 544.49794 291.76445 543.9484 291.42773 544.28516 C 291.09102 544.62187 291.76445 545.37809 291.42773 545.71484 C 290.7543 546.38828 289.4241 545.28893 288.57227 545.71484 C 287.96993 546.01603 287.74492 546.84135 287.14258 547.14258 C 286.29074 547.56849 284.9586 546.46914 284.28516 547.14258 C 283.94844 547.4793 284.62187 548.23551 284.28516 548.57227 C 283.94845 548.90902 283.28334 548.3591 282.85742 548.57227 C 282.25508 548.87342 282.03007 549.69877 281.42773 550 C 280.86132 550.28309 277.43462 549.70784 277.14258 550 C 276.80586 550.33672 277.4793 551.09098 277.14258 551.42773 C 276.46914 552.10117 275.13699 551.00182 274.28516 551.42773 C 273.68282 551.72889 273.45976 552.55619 272.85742 552.85742 C 271.71457 553.42885 269.71513 552.286 268.57227 552.85742 C 267.96993 553.15861 267.74492 553.98393 267.14258 554.28516 C 265.99972 554.85658 264.00028 553.71373 262.85742 554.28516 C 262.25508 554.58631 262.03007 555.41362 261.42773 555.71484 C 260.5759 556.14076 259.4241 555.28893 258.57227 555.71484 C 257.96993 556.016 257.74492 556.84135 257.14258 557.14258 C 255.99972 557.714 254.00028 556.57115 252.85742 557.14258 C 252.25508 557.44377 252.03007 558.27104 251.42773 558.57227 C 250.52649 559.0229 245.1864 558.12163 244.28516 558.57227 C 243.68282 558.87342 243.45976 559.69877 242.85742 560 C 241.95953 560.44897 238.04047 559.55107 237.14258 560 C 236.54023 560.30119 236.31717 561.12651 235.71484 561.42773 C 234.81359 561.87837 229.47351 560.9771 228.57227 561.42773 C 227.96993 561.72892 227.74492 562.55619 227.14258 562.85742 C 226.57616 563.14051 223.14947 562.56526 222.85742 562.85742 C 222.5207 563.19414 223.19414 563.9484 222.85742 564.28516 C 222.52071 564.62191 221.90392 564.28516 221.42773 564.28516 C 220.4341 564.28516 214.80178 564.02701 214.28516 564.28516 C 213.68282 564.58635 213.45976 565.41362 212.85742 565.71484 C 211.71457 566.28627 209.71513 565.14342 208.57227 565.71484 C 207.96993 566.016 207.74492 566.84135 207.14258 567.14258 C 206.24134 567.59317 200.90124 566.69195 200 567.14258 C 199.39766 567.44373 199.17461 568.27104 198.57227 568.57227 C 197.67437 569.0212 193.75531 568.12333 192.85742 568.57227 C 192.25508 568.87346 192.03007 569.69877 191.42773 570 C 190.65275 570.38748 186.10573 569.60912 185.71484 570 C 185.37813 570.33672 186.05156 571.09098 185.71484 571.42773 C 185.21338 571.9292 179.55902 570.93435 178.57227 571.42773 C 177.96992 571.72892 177.74492 572.55619 177.14258 572.85742 C 176.29074 573.28334 175.13699 572.43151 174.28516 572.85742 C 173.68282 573.15857 173.45976 573.98393 172.85742 574.28516 C 172.08244 574.67263 167.53347 573.89428 167.14258 574.28516 C 166.80586 574.62187 167.4793 575.37809 167.14258 575.71484 C 166.85053 576.007 163.42384 575.43176 162.85742 575.71484 C 162.25508 576.01603 162.03007 576.84135 161.42773 577.14258 C 160.28487 577.714 158.28543 576.57115 157.14258 577.14258 C 156.54024 577.44373 156.31718 578.27104 155.71484 578.57227 C 154.86301 578.99818 153.70926 578.14631 152.85742 578.57227 C 152.25508 578.87342 152.03007 579.69877 151.42773 580 C 149.36674 581.03051 149.78253 580.25773 150.17969 579.75781 C 149.95475 580.01091 149.59944 580.40056 148.57227 581.42773 C 147.4294 581.99916 145.42801 580.85631 144.28516 581.42773 C 143.68282 581.72889 143.45976 582.55619 142.85742 582.85742 C 141.71457 583.42885 139.71513 582.286 138.57227 582.85742 C 137.96993 583.15861 137.74492 583.98393 137.14258 584.28516 C 136.29074 584.71107 135.137 583.85924 134.28516 584.28516 C 133.68283 584.58631 133.45976 585.41362 132.85742 585.71484 C 131.98996 586.14858 125.15261 585.28111 124.28516 585.71484 C 123.68283 586.016 123.45976 586.84135 122.85742 587.14258 C 121.71457 587.714 119.71512 586.57115 118.57227 587.14258 C 117.96993 587.44377 117.74492 588.27104 117.14258 588.57227 C 116.71666 588.78505 116.19103 588.57227 115.71484 588.57227 L 114.28516 588.57227 L 105.71484 588.57227 C 105.07147 588.57227 101.86249 588.35494 101.42773 588.57227 C 100.82539 588.87342 100.60234 589.69877 100 590 C 99.565237 590.21732 96.35821 590 95.714844 590 L 84.285156 590 C 83.938691 590 80.045921 589.95427 80 590 C 79.663282 590.33676 80.336718 591.09098 80 591.42773 C 79.663286 591.76449 79.048456 591.42773 78.572266 591.42773 L 77.142578 591.42773 L 68.572266 591.42773 C 67.928899 591.42773 64.719919 591.21041 64.285156 591.42773 C 63.682821 591.72892 63.459761 592.55619 62.857422 592.85742 C 62.697971 592.93717 55.874302 592.93717 55.714844 592.85742 C 55.112504 592.55623 54.887496 591.72896 54.285156 591.42773 C 53.909528 591.23989 49.319297 591.42773 48.572266 591.42773 C 47.928899 591.42773 44.719919 591.21041 44.285156 591.42773 C 43.682817 591.72892 43.459758 592.55619 42.857422 592.85742 C 42.431503 593.07021 41.903925 592.85742 41.427734 592.85742 C 40.951544 592.85742 40.425919 593.07021 40 592.85742 C 39.39766 592.55623 39.174605 591.72896 38.572266 591.42773 C 38.146347 591.21495 37.618769 591.42773 37.142578 591.42773 C 36.666388 591.42773 36.051562 591.09098 35.714844 591.42773 C 35.378126 591.76445 36.051562 592.52067 35.714844 592.85742 C 35.378126 593.19418 34.761347 592.85742 34.285156 592.85742 L 24.285156 592.85742 C 23.538127 592.85742 18.947894 593.04526 18.572266 592.85742 C 17.969927 592.55623 17.744917 591.72896 17.142578 591.42773 C 16.677904 591.19529 12.130509 591.33967 11.427734 591.42773 C 7.6152464 591.9043 3.8071031 592.41308 0 592.92969 L 0 1040 L 1392 1040 L 1392 672.85742 L 1390 672.85742 L 1388.5723 672.85742 C 1388.0961 672.85742 1387.5685 673.07059 1387.1426 672.85742 C 1386.5402 672.55627 1386.3538 671.64052 1385.7148 671.42773 C 1385.0615 671.21003 1380.6357 671.74559 1380 671.42773 C 1379.3977 671.12654 1379.2112 670.21317 1378.5723 670 C 1376.4295 669.28571 1373.5705 670.71429 1371.4277 670 C 1370.7888 669.78706 1370.6023 668.87349 1370 668.57227 C 1369.5741 668.3591 1369.0484 668.57227 1368.5723 668.57227 C 1367.6199 668.57227 1366.6183 668.87349 1365.7148 668.57227 C 1365.076 668.35929 1364.8876 667.44381 1364.2852 667.14258 C 1363.965 666.98233 1358.9117 667.14258 1358.5723 667.14258 C 1357.929 667.14258 1354.72 667.3599 1354.2852 667.14258 C 1353.6829 666.84139 1353.4598 666.01607 1352.8574 665.71484 C 1352.4315 665.50206 1351.9039 665.71484 1351.4277 665.71484 L 1350 665.71484 L 1341.4277 665.71484 L 1340 665.71484 C 1339.5238 665.71484 1338.9981 665.92801 1338.5723 665.71484 C 1337.97 665.41369 1337.7449 664.58638 1337.1426 664.28516 C 1336.7078 664.06783 1333.5008 664.28516 1332.8574 664.28516 L 1321.4277 664.28516 L 1312.8574 664.28516 C 1312.2141 664.28516 1309.0071 664.06783 1308.5723 664.28516 C 1307.97 664.58631 1307.7449 665.41362 1307.1426 665.71484 C 1306.7082 665.93217 1302.4142 665.71484 1301.4277 665.71484 L 1290 665.71484 C 1289.3566 665.71484 1286.1496 665.49752 1285.7148 665.71484 C 1285.1125 666.01603 1284.8875 666.84135 1284.2852 667.14258 C 1283.7685 667.40072 1278.1362 667.14258 1277.1426 667.14258 L 1257.1426 667.14258 C 1255.7392 667.14258 1249.5171 666.82774 1248.5723 667.14258 C 1247.5621 667.4793 1246.7249 668.23551 1245.7148 668.57227 C 1244.3459 669.02853 1239.8957 668.13108 1238.5723 668.57227 C 1237.9334 668.7852 1237.7814 669.78721 1237.1426 670 C 1235.7873 670.45177 1234.2127 669.54827 1232.8574 670 C 1231.8473 670.33672 1231.033 671.16959 1230 671.42773 C 1228.1521 671.88971 1226.133 670.96576 1224.2852 671.42773 C 1223.2521 671.68599 1222.4378 672.52067 1221.4277 672.85742 C 1220.142 673.28602 1218.4283 672.42886 1217.1426 672.85742 C 1216.5037 673.0704 1216.3537 674.07237 1215.7148 674.28516 C 1214.4291 674.71372 1212.7135 673.8566 1211.4277 674.28516 C 1210.4175 674.62187 1209.5825 675.37809 1208.5723 675.71484 C 1207.0543 676.22085 1204.3755 675.20884 1202.8574 675.71484 C 1201.8473 676.05152 1201.033 676.88444 1200 677.14258 C 1198.1217 677.61215 1194.6317 676.5512 1192.8574 677.14258 C 1192.2186 677.35555 1192.0665 678.3591 1191.4277 678.57227 C 1190.0724 679.02399 1188.5711 678.57227 1187.1426 678.57227 L 1178.5723 678.57227 C 1177.5858 678.57227 1173.2918 678.35494 1172.8574 678.57227 C 1172.2551 678.87342 1172.03 679.69877 1171.4277 680 C 1170.5405 680.4436 1163.7728 679.5423 1162.8574 680 C 1162.2552 680.30119 1162.03 681.12651 1161.4277 681.42773 C 1160.5772 681.85301 1155.488 681.0268 1154.2852 681.42773 C 1153.2751 681.76445 1152.3801 682.3812 1151.4277 682.85742 C 1150.9516 682.85742 1150.4518 682.707 1150 682.85742 C 1148.9898 683.19414 1148.1527 683.9484 1147.1426 684.28516 C 1145.8568 684.71375 1144.1432 683.8566 1142.8574 684.28516 C 1142.2186 684.49813 1142.0666 685.50168 1141.4277 685.71484 C 1140.1421 686.1434 1138.4283 685.28628 1137.1426 685.71484 C 1136.1323 686.05156 1135.2953 686.80582 1134.2852 687.14258 C 1133.0878 687.54166 1129.5191 686.66919 1128.5723 687.14258 C 1127.97 687.44373 1127.7814 688.35948 1127.1426 688.57227 C 1126.0257 688.94455 1119.3584 688.17919 1118.5723 688.57227 C 1117.97 688.87346 1117.7449 689.69877 1117.1426 690 C 1116.7166 690.21279 1116.1408 689.78683 1115.7148 690 C 1115.1125 690.30115 1114.8876 691.12651 1114.2852 691.42773 C 1113.1424 691.99916 1111.1429 690.85631 1110 691.42773 C 1109.3977 691.72892 1109.1747 692.55619 1108.5723 692.85742 C 1107.4295 693.42885 1105.428 692.286 1104.2852 692.85742 C 1103.6829 693.15857 1103.4598 693.98393 1102.8574 694.28516 C 1102.0714 694.67823 1095.4021 693.91287 1094.2852 694.28516 C 1093.6463 694.49809 1093.4598 695.41362 1092.8574 695.71484 C 1091.7146 696.28627 1089.7152 695.14342 1088.5723 695.71484 C 1087.97 696.01603 1087.7449 696.84135 1087.1426 697.14258 C 1086.7166 697.35574 1086.1911 697.14258 1085.7148 697.14258 C 1084.2762 697.14258 1077.9326 696.87915 1077.1426 697.14258 C 1076.5036 697.35555 1076.3171 698.27104 1075.7148 698.57227 C 1075.1983 698.83041 1069.566 698.57227 1068.5723 698.57227 L 1057.1426 698.57227 C 1056.4992 698.57227 1053.2922 698.78959 1052.8574 698.57227 C 1052.2551 698.27108 1052.03 697.44381 1051.4277 697.14258 C 1051.0583 696.95776 1043.87 697.14258 1042.8574 697.14258 C 1042.3814 697.14258 1041.8536 697.35574 1041.4277 697.14258 C 1040.8253 696.84139 1040.6023 696.01607 1040 695.71484 C 1039.6244 695.527 1035.0322 695.71484 1034.2852 695.71484 L 1022.8574 695.71484 C 1022.511 695.71484 1018.6184 695.76058 1018.5723 695.71484 C 1018.2355 695.37813 1018.909 694.62191 1018.5723 694.28516 C 1018.2356 693.9484 1017.6186 694.28516 1017.1426 694.28516 L 1010 694.28516 L 994.28516 694.28516 C 993.29156 694.28516 987.65916 694.5433 987.14258 694.28516 C 986.54023 693.98397 986.31719 693.15865 985.71484 692.85742 C 985.28893 692.64426 984.76138 692.85742 984.28516 692.85742 L 982.85742 692.85742 L 975.71484 692.85742 L 974.28516 692.85742 C 973.80897 692.85742 973.28334 693.07021 972.85742 692.85742 C 972.25508 692.55623 972.06659 691.6409 971.42773 691.42773 C 970.6597 691.17186 966.92437 691.42773 965.71484 691.42773 L 954.28516 691.42773 C 953.64181 691.42773 950.43476 691.64506 950 691.42773 C 949.39766 691.12658 949.17461 690.30123 948.57227 690 C 948.20289 689.81518 941.01257 690 940 690 C 939.52382 690 938.99822 690.21279 938.57227 690 C 937.96996 689.69881 937.74492 688.87349 937.14258 688.57227 C 936.71666 688.35948 936.19103 688.57227 935.71484 688.57227 L 934.28516 688.57227 L 927.14258 688.57227 L 920 688.57227 L 918.57227 688.57227 C 918.09608 688.57227 917.56849 688.78543 917.14258 688.57227 C 916.54023 688.27111 916.31715 687.44381 915.71484 687.14258 C 914.81358 686.69195 909.47353 687.59317 908.57227 687.14258 C 907.96996 686.84139 907.74492 686.01607 907.14258 685.71484 C 906.21637 685.25174 899.91816 686.16347 898.57227 685.71484 C 897.56211 685.37813 896.725 684.62191 895.71484 684.28516 C 895.26308 684.13473 894.76138 684.28516 894.28516 684.28516 C 892.93968 684.28516 887.95525 684.55615 887.14258 684.28516 C 886.50372 684.07222 886.31715 683.15865 885.71484 682.85742 C 884.57195 682.286 882.57059 683.42885 881.42773 682.85742 C 880.82539 682.55623 880.60234 681.72896 880 681.42773 C 879.22501 681.04026 874.67607 681.81861 874.28516 681.42773 C 873.9484 681.09102 874.62191 680.33676 874.28516 680 C 873.78373 679.49857 868.12934 680.49338 867.14258 680 C 866.54023 679.69885 866.31719 678.87349 865.71484 678.57227 C 864.81694 678.1233 860.8979 679.0212 860 678.57227 C 859.39766 678.27108 859.17461 677.44381 858.57227 677.14258 C 858.13751 676.92526 854.92851 677.14258 854.28516 677.14258 C 853.76052 677.14258 848.62971 677.20003 848.57227 677.14258 C 848.23551 676.80586 848.90902 676.0516 848.57227 675.71484 C 848.07084 675.21338 842.41449 676.20822 841.42773 675.71484 C 840.82539 675.41365 840.60234 674.58638 840 674.28516 C 839.1021 673.83622 835.18306 674.73409 834.28516 674.28516 C 833.68281 673.98397 833.45973 673.15865 832.85742 672.85742 C 831.95952 672.40849 828.04048 673.30639 827.14258 672.85742 C 826.54023 672.55627 826.31715 671.72896 825.71484 671.42773 C 824.95735 671.04899 819.54413 671.75164 818.57227 671.42773 C 817.93341 671.21476 817.74492 670.30123 817.14258 670 C 815.99972 669.42857 814.00028 670.57143 812.85742 670 C 812.25508 669.69885 812.03008 668.87349 811.42773 668.57227 C 810.52987 668.1233 806.61275 669.0212 805.71484 668.57227 C 805.1125 668.27108 804.8875 667.44381 804.28516 667.14258 C 803.38729 666.69361 799.47013 667.59151 798.57227 667.14258 C 797.96992 666.84139 797.74492 666.01607 797.14258 665.71484 C 796.77324 665.53002 789.58484 665.71484 788.57227 665.71484 C 788.04767 665.71484 782.91487 665.77229 782.85742 665.71484 C 782.52067 665.37813 783.19418 664.62191 782.85742 664.28516 C 782.5207 663.9484 781.90395 664.28516 781.42773 664.28516 C 780.43413 664.28516 774.80178 664.5433 774.28516 664.28516 C 773.68285 663.98397 773.45973 663.15865 772.85742 662.85742 C 772.48177 662.66958 767.8896 662.85742 767.14258 662.85742 L 765.71484 662.85742 C 765.23862 662.85742 764.71107 663.07021 764.28516 662.85742 C 763.68281 662.55623 763.45977 661.72896 762.85742 661.42773 C 762.48809 661.24292 755.29777 661.42773 754.28516 661.42773 C 753.80897 661.42773 753.28334 661.6409 752.85742 661.42773 C 752.25508 661.12658 752.03008 660.30123 751.42773 660 C 750.5759 659.57409 749.4241 660.42591 748.57227 660 C 747.96992 659.69881 747.74492 658.87349 747.14258 658.57227 C 746.29071 658.14635 745.13699 658.99818 744.28516 658.57227 C 743.68285 658.27111 743.45973 657.44381 742.85742 657.14258 C 742.00559 656.71663 740.67347 657.81598 740 657.14258 C 739.66324 656.80586 740.33676 656.0516 740 655.71484 C 739.28571 655.00055 736.4291 656.42914 735.71484 655.71484 C 735.37809 655.37813 736.0516 654.62191 735.71484 654.28516 C 735.00055 653.5709 732.14203 654.99945 731.42773 654.28516 C 731.09098 653.94844 731.76449 653.19418 731.42773 652.85742 C 730.71344 652.14313 727.85687 653.57171 727.14258 652.85742 C 726.80582 652.5207 727.47933 651.76449 727.14258 651.42773 C 726.85053 651.13558 723.42382 651.71082 722.85742 651.42773 C 722.25508 651.12658 722.03008 650.30123 721.42773 650 C 721.00182 649.78721 720.42591 650.21279 720 650 C 719.39766 649.69885 719.17461 648.87349 718.57227 648.57227 C 717.72044 648.14635 716.56667 648.99818 715.71484 648.57227 C 715.1125 648.27108 714.8875 647.44381 714.28516 647.14258 C 713.43333 646.71666 712.27956 647.56849 711.42773 647.14258 C 710.82539 646.84143 710.60234 646.01607 710 645.71484 C 709.57409 645.50206 708.90902 646.0516 708.57227 645.71484 C 708.23551 645.37813 708.90902 644.62191 708.57227 644.28516 C 707.89883 643.61172 706.56667 644.71107 705.71484 644.28516 C 704.51016 643.68281 704.06211 642.03008 702.85742 641.42773 C 702.43151 641.21457 701.85365 641.64052 701.42773 641.42773 C 700.82539 641.12654 700.60234 640.30123 700 640 C 699.57409 639.78721 698.99818 640.21317 698.57227 640 C 697.96992 639.69885 697.74492 638.87349 697.14258 638.57227 C 696.71666 638.3591 696.14076 638.78505 695.71484 638.57227 C 695.1125 638.27108 694.88746 637.44381 694.28516 637.14258 C 693.85924 636.92941 693.28334 637.35574 692.85742 637.14258 C 692.25508 636.84143 692.03008 636.01607 691.42773 635.71484 C 690.5759 635.28893 689.2457 636.38828 688.57227 635.71484 C 688.23551 635.37813 688.90902 634.62191 688.57227 634.28516 C 687.89883 633.61172 686.56667 634.71107 685.71484 634.28516 C 685.1125 633.98397 684.8875 633.15865 684.28516 632.85742 C 683.1423 632.286 681.14289 633.42885 680 632.85742 C 679.39769 632.55623 679.17461 631.72896 678.57227 631.42773 C 678.20289 631.24292 671.01257 631.42773 670 631.42773 C 668.98743 631.42773 661.79699 631.24292 661.42773 631.42773 C 660.82539 631.72892 660.60234 632.55619 660 632.85742 C 659.62435 633.04526 655.03218 632.85742 654.28516 632.85742 C 653.53813 632.85742 648.94795 633.04526 648.57227 632.85742 C 647.96992 632.55623 647.74492 631.72896 647.14258 631.42773 C 645.99972 630.85631 644.00028 631.99916 642.85742 631.42773 C 642.25508 631.12658 642.03008 630.30123 641.42773 630 C 640.28488 629.42857 638.28543 630.57143 637.14258 630 C 636.54023 629.69881 636.31719 628.87349 635.71484 628.57227 C 634.86301 628.14635 633.53086 629.2457 632.85742 628.57227 C 632.52067 628.23555 633.19418 627.47933 632.85742 627.14258 C 632.18399 626.46914 630.67344 627.81598 630 627.14258 C 629.66324 626.80586 630.33676 626.0516 630 625.71484 C 629.32656 625.04141 627.81598 626.38828 627.14258 625.71484 C 626.80582 625.37813 627.47933 624.62191 627.14258 624.28516 C 626.42829 623.5709 623.57171 624.99945 622.85742 624.28516 C 622.52067 623.94844 623.19418 623.19418 622.85742 622.85742 C 622.14313 622.14313 619.28656 623.57171 618.57227 622.85742 C 618.23551 622.5207 618.90902 621.76449 618.57227 621.42773 C 618.23555 621.09098 617.61876 621.42773 617.14258 621.42773 C 616.79611 621.42773 612.90353 621.382 612.85742 621.42773 C 612.52067 621.76445 613.19418 622.52067 612.85742 622.85742 C 612.79994 622.91487 607.66721 622.85742 607.14258 622.85742 C 606.79611 622.85742 602.90353 622.81169 602.85742 622.85742 C 602.52067 623.19414 603.19418 623.9484 602.85742 624.28516 C 602.5207 624.62191 601.90395 624.28516 601.42773 624.28516 L 591.42773 624.28516 C 591.08127 624.28516 587.18831 624.33127 587.14258 624.28516 C 586.80582 623.94844 587.47933 623.19418 587.14258 622.85742 C 586.79883 622.51348 581.77129 623.20098 581.42773 622.85742 C 581.09098 622.5207 581.76449 621.76449 581.42773 621.42773 C 581.03682 621.03686 576.48984 621.81521 575.71484 621.42773 C 575.1125 621.12658 574.88746 620.30123 574.28516 620 C 573.43333 619.57409 572.10117 620.67344 571.42773 620 C 571.09098 619.66328 571.76449 618.90902 571.42773 618.57227 C 571.13569 618.28011 567.70898 618.85535 567.14258 618.57227 C 566.54023 618.27108 566.31719 617.44381 565.71484 617.14258 C 564.86301 616.71666 563.70925 617.56849 562.85742 617.14258 C 562.25508 616.84143 562.03008 616.01607 561.42773 615.71484 C 561.00182 615.50206 560.33676 616.0516 560 615.71484 C 559.66324 615.37813 560.33676 614.62191 560 614.28516 C 559.3266 613.61172 557.99441 614.71107 557.14258 614.28516 C 556.54023 613.98397 556.31715 613.15865 555.71484 612.85742 C 555.28893 612.64463 554.71107 613.07059 554.28516 612.85742 C 553.68281 612.55627 553.45977 611.72896 552.85742 611.42773 C 552.43151 611.21457 551.85365 611.64052 551.42773 611.42773 C 550.82539 611.12654 550.60234 610.30123 550 610 C 549.57409 609.78721 548.99818 610.21317 548.57227 610 C 547.96992 609.69885 547.74492 608.87349 547.14258 608.57227 C 546.71666 608.3591 546.14076 608.78505 545.71484 608.57227 C 545.1125 608.27108 544.88746 607.44381 544.28516 607.14258 C 543.85924 606.92941 543.28334 607.35574 542.85742 607.14258 C 542.25508 606.84143 542.03008 606.01607 541.42773 605.71484 C 541.00182 605.50206 540.42591 605.92801 540 605.71484 C 539.39766 605.41369 539.17461 604.58638 538.57227 604.28516 C 537.72044 603.85924 536.38828 604.95859 535.71484 604.28516 C 535.37809 603.94844 536.0516 603.19418 535.71484 602.85742 C 535.37813 602.52067 534.71107 603.07021 534.28516 602.85742 C 533.68285 602.55627 533.45977 601.72896 532.85742 601.42773 C 532.43151 601.21495 531.85365 601.6409 531.42773 601.42773 C 530.82539 601.12658 530.60234 600.30123 530 600 C 529.57409 599.78683 528.99818 600.21279 528.57227 600 C 527.96992 599.69881 527.74492 598.87349 527.14258 598.57227 C 525.99972 598.00084 524.00028 599.14369 522.85742 598.57227 C 522.25508 598.27111 522.03008 597.44381 521.42773 597.14258 C 521.00182 596.92979 520.42591 597.35537 520 597.14258 C 519.39766 596.84139 519.17457 596.01607 518.57227 595.71484 C 516.51125 594.68434 516.92511 595.45711 517.32227 595.95703 C 517.09736 595.70396 516.7421 595.31241 515.71484 594.28516 C 515.28893 594.07237 514.71107 594.49832 514.28516 594.28516 C 513.68281 593.984 513.45977 593.15865 512.85742 592.85742 C 512.43151 592.64426 511.76449 593.19418 511.42773 592.85742 C 511.09098 592.5207 511.76449 591.76449 511.42773 591.42773 C 510.75434 590.7543 509.4241 591.85365 508.57227 591.42773 C 507.96992 591.12658 507.74492 590.30123 507.14258 590 C 506.71666 589.78721 506.14076 590.21279 505.71484 590 C 505.1125 589.69885 504.8875 588.87349 504.28516 588.57227 C 503.85924 588.3591 503.28334 588.78505 502.85742 588.57227 C 502.25508 588.27108 502.03008 587.44381 501.42773 587.14258 C 501.00182 586.92979 500.33676 587.47933 500 587.14258 C 499.66324 586.80586 500.33676 586.0516 500 585.71484 C 499.3266 585.04141 497.99441 586.14076 497.14258 585.71484 C 495.93793 585.1125 495.48984 583.45977 494.28516 582.85742 C 493.85924 582.64463 493.19418 583.19418 492.85742 582.85742 C 492.52067 582.52074 493.19418 581.76449 492.85742 581.42773 C 492.18399 580.7543 490.67344 582.10117 490 581.42773 C 489.66324 581.09102 490.33676 580.33676 490 580 C 489.66328 579.66324 488.99818 580.21317 488.57227 580 C 487.36758 579.39766 486.91953 577.74492 485.71484 577.14258 C 485.28893 576.92941 484.62191 577.47933 484.28516 577.14258 C 483.9484 576.80586 484.62191 576.0516 484.28516 575.71484 C 483.61172 575.04141 482.2796 576.14076 481.42773 575.71484 C 480.82543 575.41369 480.60234 574.58638 480 574.28516 C 479.57409 574.07237 478.90902 574.62191 478.57227 574.28516 C 478.23551 573.94844 478.90902 573.19418 478.57227 572.85742 C 477.89883 572.18399 476.56667 573.28334 475.71484 572.85742 C 475.1125 572.55627 474.8875 571.72896 474.28516 571.42773 C 473.85924 571.21495 473.28334 571.6409 472.85742 571.42773 C 472.25508 571.12658 472.03008 570.30123 471.42773 570 C 470.28488 569.42857 468.28543 570.57143 467.14258 570 C 466.54023 569.69881 466.31715 568.87349 465.71484 568.57227 C 463.66156 567.54564 464.06519 568.30852 464.46094 568.80859 C 464.23514 568.55469 463.88215 568.1673 462.85742 567.14258 C 462.00559 566.71666 460.85183 567.56849 460 567.14258 C 459.39766 566.84139 459.17461 566.01607 458.57227 565.71484 C 457.42937 565.14342 455.42801 566.28627 454.28516 565.71484 C 453.68281 565.41369 453.45977 564.58638 452.85742 564.28516 C 452.43151 564.07237 451.85369 564.49832 451.42773 564.28516 C 450.82543 563.984 450.60234 563.15865 450 562.85742 C 448.85715 562.286 446.8577 563.42885 445.71484 562.85742 C 445.1125 562.55623 444.8875 561.72896 444.28516 561.42773 C 443.71876 561.14465 440.29216 561.71989 440 561.42773 C 439.66324 561.09102 440.33676 560.33676 440 560 C 439.32656 559.32656 437.99441 560.42595 437.14258 560 C 436.54023 559.69885 436.31715 558.87349 435.71484 558.57227 C 435.28893 558.3591 434.71107 558.78505 434.28516 558.57227 C 433.68281 558.27108 433.45977 557.44381 432.85742 557.14258 C 432.00559 556.71666 430.85183 557.56849 430 557.14258 C 429.39766 556.84143 429.17461 556.01607 428.57227 555.71484 C 428.14631 555.50206 427.47933 556.0516 427.14258 555.71484 C 426.80582 555.37813 427.47933 554.62191 427.14258 554.28516 C 426.46914 553.61172 424.95859 554.95859 424.28516 554.28516 C 423.9484 553.94844 424.62191 553.19418 424.28516 552.85742 C 423.61172 552.18399 422.10121 553.53086 421.42773 552.85742 C 421.09098 552.52074 421.76449 551.76449 421.42773 551.42773 C 421.09102 551.09098 420.33676 551.76449 420 551.42773 C 419.66324 551.09102 420.33676 550.33676 420 550 C 419.66328 549.66324 418.90902 550.33676 418.57227 550 C 418.23551 549.66328 418.90902 548.90902 418.57227 548.57227 C 418.23555 548.23551 417.47933 548.90902 417.14258 548.57227 C 416.80582 548.23555 417.47933 547.47933 417.14258 547.14258 C 416.80586 546.80582 416.0516 547.47933 415.71484 547.14258 C 415.37809 546.80586 416.0516 546.0516 415.71484 545.71484 C 415.37813 545.37809 414.62191 546.0516 414.28516 545.71484 C 413.9484 545.37813 414.28516 544.76134 414.28516 544.28516 C 413.80897 544.28516 413.19418 544.62191 412.85742 544.28516 C 412.52067 543.94844 413.19418 543.19418 412.85742 542.85742 C 412.18399 542.18399 410.67344 543.53086 410 542.85742 C 409.66324 542.5207 410.33676 541.76449 410 541.42773 C 409.66324 541.09098 408.99818 541.6409 408.57227 541.42773 C 407.96992 541.12658 407.74492 540.30123 407.14258 540 C 406.71666 539.78683 406.0516 540.33676 405.71484 540 C 405.37809 539.66328 406.0516 538.90902 405.71484 538.57227 C 405.37813 538.23551 404.71107 538.78543 404.28516 538.57227 C 403.68281 538.27111 403.45977 537.44381 402.85742 537.14258 C 402.00559 536.71666 400.67344 537.81598 400 537.14258 C 399.66324 536.80586 400.33676 536.0516 400 535.71484 C 399.66328 535.37809 398.99818 535.92763 398.57227 535.71484 C 397.96992 535.41369 397.74492 534.58638 397.14258 534.28516 C 396.71666 534.07237 396.14076 534.49832 395.71484 534.28516 C 395.11254 533.984 394.8875 533.15865 394.28516 532.85742 C 393.85924 532.64426 393.28334 533.07021 392.85742 532.85742 C 392.25508 532.55623 392.03008 531.72896 391.42773 531.42773 C 390.5759 531.00182 389.4241 531.85365 388.57227 531.42773 C 387.96992 531.12658 387.74492 530.30123 387.14258 530 C 386.71666 529.78721 386.0516 530.33676 385.71484 530 C 385.37809 529.66328 386.0516 528.90902 385.71484 528.57227 C 385.37813 528.23551 384.71107 528.78505 384.28516 528.57227 C 383.68285 528.27108 383.45977 527.44381 382.85742 527.14258 C 382.00559 526.71666 380.67344 527.81601 380 527.14258 C 379.66324 526.80586 380.33676 526.0516 380 525.71484 C 379.32656 525.04141 377.81601 526.38828 377.14258 525.71484 C 376.80586 525.37813 377.4793 524.62191 377.14258 524.28516 C 376.46914 523.61172 374.9586 524.95859 374.28516 524.28516 C 373.94844 523.94844 374.62187 523.19418 374.28516 522.85742 C 373.9931 522.56526 370.56642 523.14051 370 522.85742 C 369.39766 522.55627 369.17461 521.72896 368.57227 521.42773 C 368.00585 521.14465 364.5772 521.71989 364.28516 521.42773 C 363.94844 521.09102 364.62187 520.33676 364.28516 520 C 363.94845 519.66324 363.33361 520 362.85742 520 C 362.18385 520 355.77955 520.06501 355.71484 520 C 355.37813 519.66328 356.05156 518.90902 355.71484 518.57227 C 355.63066 518.48808 355.52853 518.44547 355.41602 518.42969 z "
       transform="scale(0.26458333)"
       id="path2035" />
  </g>
</svg>
