<?xml version="1.0" encoding="UTF-8" standalone="no"?>
<!-- Created with Inkscape (http://www.inkscape.org/) -->

<svg
   xmlns:dc="http://purl.org/dc/elements/1.1/"
   xmlns:cc="http://creativecommons.org/ns#"
   xmlns:rdf="http://www.w3.org/1999/02/22-rdf-syntax-ns#"
   xmlns:svg="http://www.w3.org/2000/svg"
   xmlns="http://www.w3.org/2000/svg"
   xmlns:sodipodi="http://sodipodi.sourceforge.net/DTD/sodipodi-0.dtd"
   xmlns:inkscape="http://www.inkscape.org/namespaces/inkscape"
   width="368.29999mm"
   height="275.16666mm"
   viewBox="0 0 368.29999 275.16666"
   version="1.1"
   id="svg2102"
   sodipodi:docname="3_3_tecido_linfoide_associado_ao_bronquio.svg"
   inkscape:version="0.92.4 (5da689c313, 2019-01-14)">
  <defs
     id="defs2096" />
  <sodipodi:namedview
     id="base"
     pagecolor="#ffffff"
     bordercolor="#666666"
     borderopacity="1.0"
     inkscape:pageopacity="0.0"
     inkscape:pageshadow="2"
     inkscape:zoom="0.35"
     inkscape:cx="378.76918"
     inkscape:cy="507.32905"
     inkscape:document-units="mm"
     inkscape:current-layer="layer17"
     showgrid="false"
     fit-margin-top="0"
     fit-margin-left="0"
     fit-margin-right="0"
     fit-margin-bottom="0"
     inkscape:window-width="1920"
     inkscape:window-height="1001"
     inkscape:window-x="-9"
     inkscape:window-y="-9"
     inkscape:window-maximized="1" />
  <metadata
     id="metadata2099">
    <rdf:RDF>
      <cc:Work
         rdf:about="">
        <dc:format>image/svg+xml</dc:format>
        <dc:type
           rdf:resource="http://purl.org/dc/dcmitype/StillImage" />
        <dc:title></dc:title>
      </cc:Work>
    </rdf:RDF>
  </metadata>
  <g
     inkscape:groupmode="layer"
     id="layer17"
     inkscape:label="tecido linfoide associado aos bronquios">
    <path
       style="fill:none;stroke:#000000;stroke-width:0.26458332px;stroke-linecap:butt;stroke-linejoin:miter;stroke-opacity:1"
       d="m -3.4017857,151.94643 c 1.1339286,1.63789 2.2678571,3.27579 3.4017857,4.91369 0.12599206,0 0.26528545,-0.0564 0.37797618,0 0.3187375,0.15937 0.43721488,0.59658 0.75595242,0.75595 0.1126907,0.0563 0.2652854,-0.0564 0.3779761,0 0.1593688,0.0797 0.2186075,0.29829 0.3779762,0.37798 0.1126908,0.0563 0.2652855,-0.0563 0.3779762,0 0.1593688,0.0797 0.2186074,0.29829 0.3779762,0.37797 0.2253813,0.11269 0.5305708,-0.11269 0.7559524,0 0.1593686,0.0797 0.2186075,0.29829 0.3779761,0.37798 0.115031,0.0575 0.9637043,0 1.1339287,0 0.7559522,0 1.5119046,0 2.267857,0 0.1976514,0 1.4125191,0.0497 1.5119048,0 0.1593686,-0.0797 0.2186075,-0.29829 0.3779761,-0.37798 0.2253816,-0.11269 0.530571,0.11269 0.7559524,0 0.1593688,-0.0797 0.2186072,-0.29829 0.3779762,-0.37797 0.112691,-0.0563 0.288886,0.0891 0.377976,0 0.08909,-0.0891 -0.08909,-0.28889 0,-0.37798 0.08909,-0.0891 0.265286,0.0563 0.377976,0 0.159369,-0.0797 0.251984,-0.25199 0.377977,-0.37798 0.125992,-0.12599 0.251984,-0.25198 0.377976,-0.37797 0.198991,-0.19899 1.032993,-0.93206 1.133928,-1.13393 0.05635,-0.11269 -0.05635,-0.26529 0,-0.37798 0.07968,-0.15937 0.251985,-0.25198 0.377976,-0.37797 0.297002,-0.29701 1.769501,-1.64912 1.889881,-1.88988 0.05635,-0.1127 -0.05635,-0.26529 0,-0.37798 0.100936,-0.20187 0.934938,-0.93494 1.133929,-1.13393 0.125992,-0.12599 0.251984,-0.25198 0.377976,-0.37798 0.125992,-0.12599 0.218608,-0.29829 0.377976,-0.37797 0.112691,-0.0564 0.265286,0.0563 0.377977,0 0.318737,-0.15937 0.437214,-0.59658 0.755952,-0.75595 0.136689,-0.0683 1.626983,0 1.889881,0 0.262897,0 1.753192,-0.0683 1.889881,0 0.159369,0.0797 0.218607,0.29829 0.377976,0.37797 0.112691,0.0564 0.251984,0 0.377976,0 0.125992,0 0.251984,0 0.377976,0 0.755953,0 1.511905,0 2.267858,0 0.125991,0 0.288886,0.0891 0.377976,0 0.08909,-0.0891 -0.08909,-0.28889 0,-0.37797 0.08909,-0.0891 0.265285,0.0563 0.377976,0 0.159369,-0.0797 0.251984,-0.25199 0.377976,-0.37798 0.125992,-0.12599 0.298291,-0.21861 0.377976,-0.37798 0.05635,-0.11269 -0.08909,-0.28888 0,-0.37797 0.08909,-0.0891 0.288888,0.0891 0.377976,0 0.178181,-0.17818 -0.112689,-0.53057 0,-0.75596 0.07968,-0.15936 0.298294,-0.2186 0.377975,-0.37797 0.05635,-0.11269 -0.08909,-0.28889 0,-0.37798 0.08909,-0.0891 0.288888,0.0891 0.377979,0 0.178178,-0.17818 -0.112691,-0.53057 0,-0.75595 0.159366,-0.31874 0.596582,-0.43721 0.755951,-0.75595 0.05635,-0.11269 -0.05635,-0.26529 0,-0.37798 0.07969,-0.15937 0.298292,-0.21861 0.377976,-0.37797 0.05635,-0.1127 0,-0.25199 0,-0.37798 0.125992,-0.12599 0.298292,-0.21861 0.377976,-0.37798 0.05635,-0.11269 -0.05635,-0.26528 0,-0.37797 0.07969,-0.15937 0.32163,-0.20894 0.377976,-0.37798 0.07968,-0.23905 -0.07969,-0.5169 0,-0.75595 0.05635,-0.16904 0.298294,-0.21861 0.377976,-0.37798 0.05635,-0.11269 -0.05634,-0.26528 0,-0.37797 0.07968,-0.15937 0.298294,-0.21861 0.377978,-0.37798 0.05634,-0.11269 -0.05635,-0.26529 0,-0.37798 0.07969,-0.15936 0.298291,-0.2186 0.377976,-0.37797 0.05635,-0.11269 -0.05635,-0.26529 0,-0.37798 0.159369,-0.31874 0.596582,-0.43721 0.755952,-0.75595 0.05635,-0.11269 -0.05635,-0.26529 0,-0.37798 0.159369,-0.31873 0.596582,-0.43721 0.755951,-0.75595 0.05635,-0.11269 -0.03984,-0.25845 0,-0.37798 0.08909,-0.26727 0.251984,-0.50396 0.377976,-0.75595 0.125992,-0.25198 0.221702,-0.52154 0.377978,-0.75595 0.09884,-0.14825 0.279139,-0.22972 0.377976,-0.37798 0.156274,-0.23441 0.221703,-0.52154 0.377976,-0.75595 0.09884,-0.14825 0.32163,-0.20894 0.377976,-0.37798 0.07968,-0.23905 -0.07969,-0.51689 0,-0.75595 0.112144,-0.33643 1.021786,-0.7975 1.133927,-1.13393 0.07968,-0.23905 -0.07968,-0.5169 0,-0.75595 0.112692,-0.33807 0.596585,-0.43721 0.755955,-0.75595 0.05634,-0.11269 -0.05635,-0.26529 0,-0.37798 0.07968,-0.15937 0.298291,-0.21861 0.377975,-0.37797 0.05635,-0.11269 -0.05635,-0.26529 0,-0.37798 0.226785,-0.45357 0.907143,-0.68036 1.133928,-1.13393 0.05635,-0.11269 -0.05635,-0.26528 0,-0.37797 0.07968,-0.15937 0.298294,-0.21861 0.377976,-0.37798 0.05635,-0.11269 0,-0.25198 0,-0.37798 0.125992,-0.12599 0.298294,-0.21861 0.377978,-0.37797 0.07493,-0.14987 -0.07727,-1.05666 0,-1.13393 0.08909,-0.0891 0.288885,0.0891 0.377976,0 0.178178,-0.17818 -0.112691,-0.53057 0,-0.75595 0.07968,-0.15937 0.298291,-0.21861 0.377976,-0.37798 0.112691,-0.22538 -0.178181,-0.57777 0,-0.75595 0.08909,-0.0891 0.288885,0.0891 0.377976,0 0.17818,-0.17818 -0.112692,-0.53057 0,-0.75595 1.25359,-1.2536 -0.178179,0.35635 0.377975,-0.75596 0.07968,-0.15937 0.298292,-0.21861 0.377976,-0.37797 0.112691,-0.22538 -0.178178,-0.57778 0,-0.75596 0.08909,-0.0891 0.288888,0.0891 0.377976,0 0.08909,-0.0891 -0.05634,-0.26528 0,-0.37797 0.07968,-0.15937 0.298294,-0.21861 0.377978,-0.37798 0.05634,-0.11269 -0.05635,-0.26528 0,-0.37797 0.07968,-0.15937 0.298292,-0.21861 0.377976,-0.37798 0.05635,-0.11269 -0.03984,-0.25845 0,-0.37798 0.08909,-0.26727 0.288885,-0.48868 0.377976,-0.75595 0.03984,-0.11953 -0.05635,-0.26528 0,-0.37798 0.07968,-0.15936 0.298291,-0.2186 0.377976,-0.37797 0.05635,-0.11269 -0.05635,-0.26529 0,-0.37798 0.159369,-0.31874 0.596582,-0.43721 0.755951,-0.75595 0.05635,-0.11269 -0.05635,-0.26529 0,-0.37798 0.07968,-0.15936 0.298294,-0.2186 0.377976,-0.37797 0.112692,-0.22538 -0.112688,-0.53057 0,-0.75595 0.07968,-0.15937 0.298294,-0.21861 0.377979,-0.37798 0.05634,-0.11269 0,-0.25198 0,-0.37798 0.125992,-0.12599 0.298291,-0.21861 0.377975,-0.37797 0.05635,-0.11269 -0.05635,-0.26529 0,-0.37798 0.15937,-0.31874 0.596583,-0.43721 0.755952,-0.75595 0.05635,-0.11269 -0.05635,-0.26529 0,-0.37798 0.07968,-0.15937 0.298291,-0.2186 0.377976,-0.37797 0.05635,-0.1127 -0.05635,-0.26529 0,-0.37798 0.159369,-0.31874 0.643263,-0.41788 0.755952,-0.75595 0.07968,-0.23906 -0.07968,-0.5169 0,-0.75596 0.112691,-0.33807 0.643262,-0.41788 0.755954,-0.75595 0.07968,-0.23905 -0.07968,-0.5169 0,-0.75595 0.05635,-0.16904 0.279138,-0.22972 0.377976,-0.37798 0.832744,-0.19034 0.199797,-0.77757 0.377975,-1.13392 0.07968,-0.15937 0.279141,-0.22973 0.377976,-0.37798 0.156274,-0.23441 0.221703,-0.52154 0.377976,-0.75595 0.290751,-0.43613 0.843179,-0.69781 1.13393,-1.13393 0.156274,-0.23441 0.221702,-0.52154 0.377976,-0.75595 0.09884,-0.14826 0.298291,-0.21861 0.377976,-0.37798 0.05635,-0.11269 -0.05635,-0.26529 0,-0.37798 0.07968,-0.15936 0.298291,-0.2186 0.377976,-0.37797 0.05635,-0.11269 -0.05635,-0.26529 0,-0.37798 0.07968,-0.15937 0.298291,-0.21861 0.377975,-0.37798 0.05635,-0.11269 -0.05635,-0.26528 0,-0.37797 0.07968,-0.15937 0.298294,-0.21861 0.377976,-0.37798 0.112691,-0.22538 -0.112689,-0.53057 0,-0.75595 0.07968,-0.15937 0.298294,-0.21861 0.377979,-0.37798 0.04886,-0.0977 0,-1.999943 0,-2.267852 0,-0.755954 0,-1.511906 0,-2.267858 0,-0.251983 0,-0.50397 0,-0.755954 0,-0.125992 0.05634,-0.265284 0,-0.377976 -0.07968,-0.159369 -0.298294,-0.218606 -0.377979,-0.377975 -0.05634,-0.112692 0,-0.251984 0,-0.377976 0,-0.251984 0.07968,-0.516901 0,-0.755952 -0.05634,-0.169037 -0.298291,-0.218609 -0.377976,-0.377976 -0.05635,-0.112691 0.05635,-0.265287 0,-0.377978 -0.07968,-0.159367 -0.32163,-0.208939 -0.377975,-0.377976 -0.07968,-0.239054 0.07968,-0.516898 0,-0.755952 -0.05635,-0.169036 -0.298292,-0.218606 -0.377976,-0.377975 -0.05635,-0.112692 0.05635,-0.265287 0,-0.377976 -0.864926,-1.729849 0.156659,1.603909 -0.755952,-1.13393 -0.03984,-0.119526 0.05635,-0.265285 0,-0.377976 -0.07968,-0.159369 -0.251984,-0.251984 -0.377976,-0.377976 -0.125992,-0.125992 -0.218609,-0.298291 -0.377978,-0.377976 -0.521364,-0.260683 -0.338087,0.457751 -0.755952,-0.377975 -0.05635,-0.112692 0.05635,-0.265288 0,-0.377976 -0.03618,-0.07235 -1.439553,-1.47573 -1.511903,-1.511906 -0.112691,-0.05635 -0.265287,0.05635 -0.377978,0 -0.318736,-0.159369 -0.437214,-0.596583 -0.755952,-0.755952 -0.112691,-0.05634 -0.265285,0.05635 -0.377976,0 -0.159369,-0.07968 -0.218607,-0.298294 -0.377976,-0.377976 -0.112691,-0.05635 -0.265287,0.05634 -0.377976,0 -0.159369,-0.07968 -0.218609,-0.298293 -0.377975,-0.377978 -0.112692,-0.05634 -0.258451,0.03984 -0.377979,0 -0.267269,-0.08909 -0.488683,-0.288885 -0.755951,-0.377976 -0.239054,-0.07968 -0.530572,0.112692 -0.755952,0 -0.159369,-0.07968 -0.218607,-0.298291 -0.377976,-0.377976 -0.225382,-0.112691 -0.530571,0.112692 -0.755954,0 -0.159367,-0.07968 -0.218607,-0.298291 -0.377976,-0.377975 -0.09939,-0.04969 -1.314251,0 -1.511903,0 -0.170225,0 -1.018897,-0.05752 -1.13393,0 -0.159369,0.07968 -0.218607,0.298291 -0.377976,0.377975 -0.302382,0.151191 -0.831548,-0.15119 -1.133927,0 -0.15937,0.07968 -0.21861,0.298292 -0.377976,0.377976 -0.112692,0.05635 -0.265287,-0.05635 -0.377979,0 -0.159366,0.07968 -0.218606,0.298291 -0.377975,0.377976 -0.112689,0.05635 -0.288886,-0.08909 -0.377976,0 -0.08909,0.08909 0.08909,0.288888 0,0.377978 -0.08909,0.08909 -0.265285,-0.05635 -0.377976,0 -0.159369,0.07968 -0.218607,0.298292 -0.377976,0.377976 -0.112691,0.05635 -0.288888,-0.08909 -0.377976,0 -0.08909,0.08909 0.08909,0.288886 0,0.377976 -0.08909,0.08909 -0.288888,-0.08909 -0.377976,0 -0.08909,0.08909 0.08909,0.288885 0,0.377976 -0.08909,0.08909 -0.288887,-0.08909 -0.377978,0 -0.08909,0.08909 0.08909,0.288885 0,0.377976 -0.782045,0.782047 0.03057,-1.19507 -0.755952,0.377976 -0.05635,0.112691 0.08909,0.288887 0,0.377975 -0.08909,0.08909 -0.288885,-0.08909 -0.377975,0 -0.08909,0.08909 0.08909,0.288888 0,0.377979 -0.08909,0.08909 -0.288886,-0.08909 -0.377976,0 -0.08909,0.08909 0.08909,0.288885 0,0.377976 -0.08909,0.08909 -0.288888,-0.08909 -0.377976,0 -0.08909,0.08909 0.08909,0.288885 0,0.377975 -0.08909,0.08909 -0.288888,-0.08909 -0.377976,0 -0.08909,0.08909 0.08909,0.288886 0,0.377976 -0.08909,0.08909 -0.288888,-0.08909 -0.377978,0 -0.08909,0.08909 0.05635,0.265285 0,0.377976 -0.226785,0.453573 -0.907143,0.680358 -1.133928,1.13393 -0.05635,0.112689 0.08909,0.288885 0,0.377976 -0.08909,0.08909 -0.288885,-0.08909 -0.377976,0 -0.08909,0.08909 0.08909,0.288885 0,0.377976 -0.08909,0.08909 -0.288887,-0.08909 -0.377975,0 -0.08909,0.08909 0.08909,0.288885 0,0.377975 -0.08909,0.08909 -0.288888,-0.08909 -0.377976,0 -0.08909,0.08909 0.08909,0.288886 0,0.377976 -0.08909,0.08909 -0.288888,-0.08909 -0.377979,0 -0.08909,0.08909 0.08909,0.288886 0,0.377976 -0.08909,0.08909 -0.288885,-0.08909 -0.377975,0 -0.08909,0.08909 0.05635,0.265287 0,0.377976 -0.185968,0.371941 -1.325935,1.139965 -1.511904,1.511906 -0.05635,0.112691 0.08909,0.288885 0,0.377976 -0.08909,0.08909 -0.265286,-0.05635 -0.377976,0 -0.159369,0.07968 -0.218608,0.298291 -0.377977,0.377975 -0.11269,0.05635 -0.265285,-0.05634 -0.377976,0 -0.159369,0.07968 -0.218607,0.298292 -0.377976,0.377976 -0.09773,0.04886 -1.999947,0 -2.267857,0 -0.125992,0 -0.251984,0 -0.377977,0 -0.125991,0 -0.288886,0.08909 -0.377976,0 -0.08909,-0.08909 0.08909,-0.288885 0,-0.377976 -0.01215,-0.01214 -1.042259,0 -1.133928,0 -0.125992,0 -0.288886,-0.08909 -0.377976,0 -0.08909,0.08909 0.08909,0.288888 0,0.377976 -0.188988,0.188989 -0.944941,-0.188986 -1.133929,0 -0.08909,0.08909 0.08909,0.288888 0,0.377979 -0.08909,0.08909 -0.288886,-0.08909 -0.377976,0 -0.08909,0.08909 0.08909,0.288885 0,0.377975 -0.08909,0.08909 -0.288886,-0.08909 -0.377976,0 -0.08909,0.08909 0.08909,0.288886 0,0.377976 -0.08909,0.08909 -0.288887,-0.08909 -0.377976,0 -0.17818,0.178179 0.178179,0.577774 0,0.755952 -0.08909,0.08909 -0.288887,-0.08909 -0.377977,0 -0.178179,0.178181 0.17818,0.577773 0,0.755952 -0.08909,0.08909 -0.288886,-0.08909 -0.377976,0 -0.08909,0.08909 0.05635,0.265287 0,0.377978 -0.07968,0.159366 -0.298292,0.218607 -0.377976,0.377976 -0.112691,0.225376 0.17818,0.577766 0,0.755956 -0.08909,0.0891 -0.288886,-0.0891 -0.377976,0 -0.08909,0.0891 0.05635,0.26528 0,0.37797 -0.07968,0.15937 -0.298292,0.21861 -0.377976,0.37798 -0.05635,0.11269 0.08909,0.28888 0,0.37797 -0.08909,0.0891 -0.288887,-0.0891 -0.377977,0 -0.08909,0.0891 0.08909,0.28889 0,0.37798 -0.08909,0.0891 -0.265285,-0.0563 -0.377976,0 -0.159369,0.0797 -0.218607,0.29829 -0.377976,0.37798 -0.112691,0.0563 -0.288886,-0.0891 -0.377976,0 -0.08909,0.0891 0.08909,0.28888 0,0.37797 -0.08909,0.0891 -0.265286,-0.0563 -0.377976,0 -0.159369,0.0797 -0.218608,0.29829 -0.377976,0.37798 -0.112691,0.0563 -0.265286,-0.0563 -0.377977,0 -0.159368,0.0797 -0.218607,0.29829 -0.377976,0.37797 -0.225381,0.1127 -0.577773,-0.17817 -0.755952,0 -0.08909,0.0891 0.08909,0.28889 0,0.37798 -0.08909,0.0891 -0.251984,0 -0.377976,0 -0.125993,0 -0.288887,-0.0891 -0.377977,0 -0.08909,0.0891 0.08909,0.28889 0,0.37798 -0.178179,0.17818 -0.530571,-0.11269 -0.755952,0 -0.159369,0.0797 -0.2186074,0.29829 -0.3779762,0.37797 -0.2253814,0.11269 -0.5305708,-0.11269 -0.7559524,0 -0.1593686,0.0797 -0.2186075,0.2983 -0.3779761,0.37798 -0.2253816,0.11269 -0.5777727,-0.17818 -0.7559524,0 -0.08909,0.0891 0.08909,0.28889 0,0.37798 -0.1781797,0.17817 -0.5305708,-0.1127 -0.7559524,0 -0.1593686,0.0797 -0.2186075,0.29829 -0.3779761,0.37797 -0.1126908,0.0563 -0.2652855,-0.0563 -0.3779763,0 -0.1593686,0.0797 -0.2186075,0.29829 -0.3779761,0.37798 -0.1126908,0.0563 -0.2652855,-0.0563 -0.3779763,0 -0.1593686,0.0797 -0.2186072,0.29829 -0.3779761,0.37797 -0.1126908,0.0563 -0.2652855,-0.0563 -0.3779761,0 -0.1593688,0.0797 -0.2186075,0.29829 -0.3779763,0.37798 -0.1126908,0.0564 -0.2888864,-0.0891 -0.3779761,0 -0.08909,0.0891 0.08909,0.28889 0,0.37798 -0.08909,0.0891 -0.2888863,-0.0891 -0.3779763,0 -0.08909,0.0891 0.08909,0.28888 0,0.37797 -0.1781797,0.17818 -0.5777728,-0.17818 -0.7559524,0 -0.08909,0.0891 0.08909,0.28889 0,0.37798 -0.08909,0.0891 -0.2888861,-0.0891 -0.3779761,0 -0.08909,0.0891 0.08909,0.28888 0,0.37798 -0.08909,0.0891 -0.2652855,-0.0563 -0.3779762,0 -0.3187375,0.15936 -0.4372149,0.59658 -0.7559524,0.75595 -0.1126907,0.0563 -0.2888863,-0.0891 -0.3779761,0 -0.08909,0.0891 0.08909,0.28888 0,0.37797 -0.08909,0.0891 -0.28888638,-0.0891 -0.37797622,0 -0.0890899,0.0891 0.0890898,0.28889 0,0.37798 -0.1781797,0.17818 -0.53057093,-0.11269 -0.75595238,0 -0.15936875,0.0797 -0.21860743,0.29829 -0.37797618,0.37798 -0.11269072,0.0563 -0.26528545,-0.0563 -0.3779762,0 -0.31873752,0.15937 -0.43721482,0.59658 -0.75595232,0.75595 -0.1126908,0.0563 -0.2888864,-0.0891 -0.3779762,0 -0.08909,0.0891 0.08909,0.28888 0,0.37797 -0.08909,0.0891 -0.2652855,-0.0563 -0.3779762,0 -0.1593688,0.0797 -0.2186074,0.2983 -0.3779762,0.37798 -0.1126908,0.0563 -0.2652855,-0.0563 -0.3779761,0 -0.1593688,0.0797 -0.2186075,0.29829 -0.3779763,0.37798 -0.1126908,0.0563 -0.2652855,-0.0564 -0.3779761,0 -0.3187374,0.15937 -0.4372149,0.59658 -0.7559524,0.75595 -0.5213641,0.26068 -0.3380893,-0.45775 -0.7559524,0.37798 -0.056345,0.11269 0.056345,0.26528 0,0.37797 -0.7865232,1.57305 0.026093,-0.40407 -0.7559524,0.37798 -0.08909,0.0891 0.056345,0.26528 0,0.37797 -0.1593686,0.31874 -0.5965836,0.43722 -0.7559524,0.75596 -0.056345,0.11269 0.039842,0.25845 0,0.37797 -0.08909,0.26727 -0.2888864,0.48869 -0.3779761,0.75596 -0.039842,0.11952 0.056345,0.26528 0,0.37797 -0.079684,0.15937 -0.2982918,0.21861 -0.3779763,0.37798 -0.056345,0.11269 0.056345,0.26528 0,0.37797 -0.079684,0.15937 -0.3216307,0.20894 -0.3779761,0.37798 -0.1889882,0.56696 0.1889882,1.32292 0,1.88988 -0.056345,0.16904 -0.3216309,0.20894 -0.3779761,0.37798 -0.1889881,0.56696 0.1889879,1.32291 0,1.88988 -0.056345,0.16903 -0.3216309,0.20894 -0.3779763,0.37797 -0.079684,0.23906 0,0.50397 0,0.75596 0,0.12599 -0.039842,0.25845 0,0.37797 0.08909,0.26727 0.2888864,0.48869 0.3779763,0.75596 0.081615,0.24484 0,2.61158 0,3.0238 0,0.25199 -0.079684,0.5169 0,0.75596 0.056345,0.16903 0.2982918,0.21861 0.3779761,0.37797 0.1040006,0.208 -0.0985,1.97236 0,2.26786 0.056345,0.16904 0.2982918,0.21861 0.3779761,0.37798 0.1187833,0.23756 -0.1187831,1.27433 0,1.5119 0.079684,0.15937 0.298292,0.21861 0.3779763,0.37798 0.1126908,0.22538 -0.1126908,0.53057 0,0.75595 0.079684,0.15937 0.2982918,0.21861 0.3779761,0.37798 0.1511906,0.30238 -0.1511903,0.83154 0,1.13392 0.079684,0.15937 0.2982918,0.21861 0.3779763,0.37798 0.1187831,0.23757 -0.1187833,1.27434 0,1.51191 0.079684,0.15936 0.2982918,0.2186 0.3779761,0.37797 0.1025236,0.20505 -0.1034227,1.40848 0,1.51191 0.08909,0.0891 0.2888864,-0.0891 0.3779763,0 0.090953,0.091 -0.090953,1.42095 0,1.5119 0.08909,0.0891 0.2888861,-0.0891 0.3779761,0 0.1034227,0.10342 -0.1025237,1.30686 0,1.51191 0.079684,0.15937 0.2982918,0.2186 0.3779761,0.37797 0.1025239,0.20505 -0.1034225,1.40849 0,1.51191 0.08909,0.0891 0.2888863,-0.0891 0.3779763,0 0.1326769,0.13267 -0.1305404,1.6288 0,1.88988 0.079684,0.15937 0.2982918,0.2186 0.3779761,0.37797 0.1511906,0.30238 -0.1511903,0.83155 0,1.13393 0.079685,0.15937 0.2982918,0.21861 0.3779763,0.37798 0.074932,0.14986 -0.077272,1.05665 0,1.13393 0.08909,0.0891 0.2888864,-0.0891 0.3779761,0 0.08909,0.0891 0,0.25198 0,0.37797 0,0.12599 0,0.25199 0,0.37798 0,0.75595 0,1.5119 0,2.26786 z"
       id="path2695"
       inkscape:connector-curvature="0" />
    <path
       style="fill:none;stroke:#000000;stroke-width:0.26458332px;stroke-linecap:butt;stroke-linejoin:miter;stroke-opacity:1"
       d="m 329.59524,-3.4017857 c -2.36641,3.84539352 -2.86107,3.81301365 -3.77976,7.1815475 -0.16904,0.6197989 -0.28713,1.2539017 -0.37798,1.8898809 -0.0356,0.2494515 0.0797,0.5168992 0,0.7559524 -0.0564,0.1690359 -0.32163,0.2089401 -0.37799,0.3779761 -0.0797,0.2390531 0,0.5039682 0,0.7559524 0,0.8819443 0,1.7638889 0,2.6458334 0,2.267857 0,4.535714 0,6.803571 0,0.255972 0.0574,2.473642 0,2.645834 -0.0563,0.169036 -0.32163,0.20894 -0.37796,0.377976 -0.23907,0.339183 0.11952,0.775349 0,1.133928 -0.0891,0.26727 -0.28889,0.488683 -0.37798,0.755953 -0.0797,0.239053 0.11269,0.530571 0,0.755952 -0.0797,0.159369 -0.29829,0.218607 -0.37798,0.377976 -0.15119,0.302381 0.15118,0.831548 0,1.133929 -0.0797,0.159369 -0.29829,0.218607 -0.37799,0.377976 -0.11149,0.223013 0.0867,0.873944 0,1.133929 -0.0891,0.267269 -0.28887,0.488682 -0.37795,0.755952 -0.0797,0.239054 0.0797,0.516898 0,0.755952 -0.0891,0.267268 -0.2889,0.488682 -0.37799,0.755954 -0.0398,0.119525 0.0564,0.265284 0,0.377976 -0.0797,0.159369 -0.29829,0.218606 -0.37798,0.377975 -0.0563,0.112692 0.0564,0.265285 0,0.377976 -0.0797,0.159369 -0.29829,0.218607 -0.37796,0.377976 -0.11271,0.225383 0.11269,0.530572 0,0.755952 -0.0797,0.159369 -0.29829,0.218609 -0.37798,0.377978 -0.0564,0.112689 0.0563,0.265285 0,0.377976 -0.0797,0.159369 -0.29829,0.218607 -0.37799,0.377976 -0.0563,0.112691 0.0564,0.265284 0,0.377976 -0.15935,0.318738 -0.59658,0.437216 -0.75594,0.755951 -0.0564,0.112692 0.0563,0.265287 0,0.377976 -0.0797,0.159369 -0.25199,0.251984 -0.37798,0.377978 -0.126,0.125992 -0.2186,0.298292 -0.37798,0.377976 -0.11269,0.05635 -0.28888,-0.08909 -0.37796,0 -0.0891,0.08909 0.0563,0.265285 0,0.377976 -0.0797,0.159369 -0.25199,0.251984 -0.37799,0.377976 -0.12599,0.125992 -0.21859,0.298291 -0.37798,0.377976 -0.11269,0.05635 -0.28887,-0.08909 -0.37798,0 -0.0891,0.08909 0.0891,0.288885 0,0.377976 -0.0891,0.08909 -0.28888,-0.08909 -0.37796,0 -0.0891,0.08909 0.0891,0.288887 0,0.377975 -0.0891,0.08909 -0.2889,-0.08909 -0.37798,0 -0.0891,0.08909 0.0891,0.288888 0,0.377979 -0.17817,0.178178 -0.57777,-0.178181 -0.75595,0 -0.0891,0.08909 0.0891,0.288885 0,0.377976 -0.18899,0.188986 -0.94495,-0.18899 -1.13395,0 -0.0891,0.08909 0.0891,0.288885 0,0.377975 -0.18896,0.188987 -0.94493,-0.188989 -1.13392,0 -0.0891,0.08909 0.0891,0.288886 0,0.377976 -0.0773,0.07727 -0.98407,-0.07493 -1.13393,0 -0.15935,0.07968 -0.21859,0.298291 -0.37798,0.377976 -0.0322,0.01611 -1.47968,0.01611 -1.51188,0 -0.15939,-0.07969 -0.21863,-0.298291 -0.37799,-0.377976 -0.20505,-0.102523 -1.40848,0.103423 -1.5119,0 -0.0891,-0.08909 0.0891,-0.288885 0,-0.377976 -0.17817,-0.178181 -0.57777,0.178179 -0.75594,0 -0.0891,-0.08909 0.0891,-0.288888 0,-0.377975 -0.1782,-0.178181 -0.5778,0.178178 -0.75597,0 -0.0891,-0.08909 0.0891,-0.288888 0,-0.377976 -0.17817,-0.178181 -0.57777,0.178178 -0.75594,0 -0.0891,-0.08909 0.0891,-0.288888 0,-0.377979 -0.1782,-0.178178 -0.53057,0.112692 -0.75597,0 -0.15936,-0.07968 -0.2186,-0.298291 -0.37796,-0.377975 -0.11271,-0.05635 -0.2653,0.05635 -0.37798,0 -0.15939,-0.07968 -0.2186,-0.298292 -0.37799,-0.377976 -0.11268,-0.05635 -0.26527,0.05635 -0.37798,0 -0.31872,-0.159369 -0.4372,-0.596583 -0.75594,-0.755952 -0.22537,-0.112691 -0.57777,0.178178 -0.75594,0 -0.78206,-0.782047 1.19507,0.03057 -0.37799,-0.755952 -0.11268,-0.05635 -0.26529,0.05634 -0.37798,0 -0.15936,-0.07968 -0.25199,-0.251986 -0.37798,-0.377978 -0.12597,-0.125992 -0.29829,-0.218607 -0.37796,-0.377976 -0.0564,-0.112691 0.0891,-0.288885 0,-0.377976 -0.0891,-0.08909 -0.2889,0.08909 -0.37798,0 -0.0891,-0.08909 0.0564,-0.265284 0,-0.377975 -0.15936,-0.318739 -0.59659,-0.437216 -0.75594,-0.755952 -0.0564,-0.112691 0.0891,-0.288888 0,-0.377976 -0.0891,-0.08909 -0.2889,0.08909 -0.37799,0 -0.0891,-0.08909 0.0563,-0.265287 0,-0.377978 -0.0797,-0.159367 -0.29829,-0.218607 -0.37798,-0.377976 -0.0563,-0.112691 0.0891,-0.288885 0,-0.377976 -0.0891,-0.08909 -0.28887,0.08909 -0.37799,0 -0.17817,-0.178178 0.1782,-0.577773 0,-0.755952 -0.0891,-0.08909 -0.28887,0.08909 -0.37795,0 -0.0891,-0.08909 0.0563,-0.265287 0,-0.377975 -0.0797,-0.159369 -0.29829,-0.21861 -0.37799,-0.377976 -0.15118,-0.302382 0.15119,-0.831548 0,-1.13393 -0.0797,-0.159369 -0.29829,-0.218607 -0.37798,-0.377976 -0.11269,-0.225382 0.1782,-0.577773 0,-0.755952 -0.0891,-0.08909 -0.28887,0.08909 -0.37796,0 -0.1782,-0.17818 0.17817,-0.577773 0,-0.755953 -0.0891,-0.08909 -0.2889,0.08909 -0.37798,0 -0.0891,-0.08909 0.0891,-0.288886 0,-0.377976 -0.0891,-0.08909 -0.2889,0.08909 -0.37799,0 -0.17817,-0.17818 0.17817,-0.577773 0,-0.755953 -0.0891,-0.08909 -0.28887,0.08909 -0.37798,0 -0.0891,-0.08909 0.0891,-0.288886 0,-0.377976 -0.25241,-0.252422 -0.50353,0.252423 -0.75594,0 -0.0891,-0.08909 0.0891,-0.288886 0,-0.377976 -0.0891,-0.08909 -0.2889,0.08909 -0.37798,0 -0.0891,-0.08909 0.0891,-0.288886 0,-0.377976 -0.189,-0.188988 -0.94494,0.188988 -1.13393,0 -0.0891,-0.08909 0.0891,-0.288886 0,-0.377976 -0.17817,-0.17818 -0.53057,0.11269 -0.75594,0 -0.15938,-0.07969 -0.21863,-0.298292 -0.37798,-0.377976 -0.14986,-0.07493 -1.05667,0.07727 -1.13393,0 -0.0891,-0.08909 0.0891,-0.288887 0,-0.377977 -0.0773,-0.07727 -0.98406,0.07493 -1.13392,0 -0.15939,-0.07968 -0.21863,-0.298291 -0.37799,-0.377976 -0.30239,-0.15119 -0.83156,0.151191 -1.13392,0 -0.15939,-0.07968 -0.2186,-0.298292 -0.37799,-0.377976 -0.30236,-0.151191 -0.83153,0.151191 -1.13392,0 -0.15936,-0.07968 -0.2186,-0.298292 -0.37798,-0.377976 -0.11269,-0.05635 -0.28888,0.08909 -0.37796,0 -0.0891,-0.08909 0.0891,-0.288886 0,-0.377976 -0.1782,-0.17818 -0.53057,0.11269 -0.75597,0 -0.15936,-0.07968 -0.2186,-0.298292 -0.37798,-0.377976 -0.11269,-0.05635 -0.28887,0.08909 -0.37796,0 -0.0891,-0.08909 0.0891,-0.288887 0,-0.377977 -0.0891,-0.08909 -0.2889,0.08909 -0.37798,0 -0.0891,-0.08909 0.0891,-0.288886 0,-0.377976 -0.0891,-0.08909 -0.2889,0.08909 -0.37799,0 -0.0891,-0.08909 0.0564,-0.265285 0,-0.377976 -0.15936,-0.318738 -0.59658,-0.437215 -0.75594,-0.755952 -0.0563,-0.112691 0.0891,-0.288887 0,-0.377977 -0.0891,-0.08909 -0.2889,0.08909 -0.37798,0 -0.18899,-0.188988 0.18899,-0.94494 0,-1.133928 -0.0891,-0.08909 -0.28887,0.08909 -0.37799,0 -0.17817,-0.17818 0.1782,-0.577773 0,-0.755953 -0.0891,-0.08909 -0.28887,0.08909 -0.37795,0 -0.0891,-0.08909 0,-0.251984 0,-0.377976 0,-0.125992 0,-0.251984 0,-0.377976 0,-0.755952 0,-1.511905 0,-2.267857 0,-0.170224 -0.0575,-1.018898 0,-1.133929 0.0797,-0.159368 0.29829,-0.218607 0.37795,-0.377976 0.11925,-0.238453 -0.11922,-1.651427 0,-1.8898806 0.0797,-0.1593689 0.2983,-0.2186075 0.37799,-0.3779764 0.0749,-0.1498645 -0.0773,-1.0566563 0,-1.1339284 0.0891,-0.08909 0.2889,0.08909 0.37798,0 0.0891,-0.08909 -0.0563,-0.2652856 0,-0.3779761 0.0797,-0.1593689 0.29829,-0.2186075 0.37799,-0.3779763 0.0563,-0.1126908 -0.0564,-0.2652856 0,-0.3779761 0.15935,-0.3187375 0.59658,-0.437215 0.75594,-0.7559524 0.11268,-0.2253816 -0.17817,-0.5777728 0,-0.7559524 0.0891,-0.08909 0.28889,0.08909 0.37798,0 0.0891,-0.08909 -0.0891,-0.2888864 0,-0.3779761 1.00793,0 -0.12599,0.1259919 0.37796,-0.3779763 0.0891,-0.08909 0.2889,0.08909 0.37798,0 0.0891,-0.08909 -0.0891,-0.2888864 0,-0.3779761 0.0891,-0.08909 0.2889,0.08909 0.37798,0 0.0891,-0.08909 -0.0891,-0.2888864 0,-0.3779764 0.0891,-0.08909 0.28888,0.08909 0.37799,0 0.0891,-0.08909 -0.0891,-0.2888863 0,-0.377976 0.0891,-0.08909 0.26527,0.056345 0.37796,0 0.15938,-0.079684 0.21862,-0.2982918 0.37798,-0.3779762 0.11269,-0.056345 0.2889,0.08909 0.37798,0 0.0891,-0.08909 -0.0891,-0.2888864 0,-0.3779762 0.0891,-0.08909 0.26527,0.056345 0.37796,0 0.15939,-0.079684 0.21863,-0.2982918 0.37798,-0.3779762 0.11269,-0.056345 0.2653,0.056345 0.37799,0 0.15936,-0.079684 0.2186,-0.2982918 0.37798,-0.3779762 0.11269,-0.056345 0.26527,0.056345 0.37796,0 0.60507,-0.302531 0.15089,-0.4534214 0.75597,-0.75595238 0.11268,-0.0563453 0.26527,0.0563454 0.37795,0 0.15939,-0.0796844 0.21863,-0.2982918 0.37799,-0.37797617 0.11268,-0.0563454 0.2889,0.0890898 0.37798,0 0.0891,-0.0890898 -0.0891,-0.28888635 0,-0.37797619518784 0.17817,-0.17817968481216 0.53057,0.11269072518784 0.75594,0 C 293.4689,-0.07968452 293.52814,-0.29829196 293.6875,-0.37797634 c 0.22301,-0.11150679 0.87394,0.0866614 1.13392,0 0.26728,-0.0890898 0.48869,-0.28888634 0.75597,-0.37797618 0.23905,-0.0796844 0.51689,0.0796844 0.75594,0 0.26728,-0.0890898 0.48869,-0.28888638 0.75594,-0.37797618 0.31681,-0.1055972 1.26143,0.1252471 1.51191,0 0.15938,-0.079684 0.20894,-0.3216308 0.37798,-0.3779762 0.4781,-0.1593688 1.03381,0.1593688 1.51191,0 0.16904,-0.056345 0.20894,-0.3216308 0.37799,-0.3779762 0.23905,-0.079684 0.51149,0.061115 0.75594,0 0.27331,-0.068329 0.48868,-0.2888863 0.75594,-0.3779762 0.11954,-0.039842 0.25847,0.039842 0.37798,0 0.26728,-0.08909 0.48265,-0.3096474 0.75597,-0.3779763 0.4889,-0.1222301 1.02298,0.1222304 1.51188,0 0.27332,-0.068329 0.48265,-0.3096471 0.75597,-0.377976 0.24445,-0.061115 0.51149,0.061115 0.75594,0 0.27331,-0.068329 0.48265,-0.3096475 0.75597,-0.3779761 0.24445,-0.061115 0.51689,0.079684 0.75594,0 0.16904,-0.056345 0.20894,-0.3216309 0.37798,-0.3779763 0.23905,-0.079684 0.51149,0.061115 0.75594,0 0.54663,-0.1366576 0.97737,-0.5777728 1.51191,-0.7559525 0.11954,-0.039842 0.25845,0.039842 0.37798,0 0.91668,-0.3055593 1.00677,-0.9131527 1.88987,-1.1339284 0.24448,-0.061115 0.51692,0.079684 0.75597,0 0.16904,-0.056345 0.2186,-0.2982918 0.37798,-0.3779761 0.11269,-0.056345 0.26527,0.056345 0.37796,0 1.72984,-0.8649245 -1.60391,0.1566606 1.13392,-0.7559524 0.11954,-0.039842 0.25199,0 0.37799,0 0.12599,-0.1259922 0.2186,-0.2982918 0.37798,-0.3779764 0.11269,-0.056345 0.26527,0.056345 0.37798,0 0.15936,-0.079684 0.2186,-0.2982917 0.37796,-0.377976 0.11269,-0.056345 0.2653,0.056345 0.37799,0 0.15935,-0.079684 0.21859,-0.2982918 0.37798,-0.3779764 0.11269,-0.056345 0.26527,0.056345 0.37796,0 0.15938,-0.079684 0.21862,-0.2982917 0.37798,-0.377976 0.11269,-0.056345 0.2653,0.056345 0.37798,0 0.15936,-0.079684 0.2186,-0.2982918 0.37799,-0.3779761 0.22537,-0.1126908 0.53057,0.1126905 0.75594,0 0.15936,-0.079685 0.2186,-0.298292 0.37798,-0.3779763 0.11269,-0.056345 0.25199,0 0.37796,0 0.25199,0 0.51692,0.079684 0.75597,0 0.16904,-0.056345 0.2186,-0.2982918 0.37798,-0.3779761 0.23754,-0.1187834 1.27434,0.1187831 1.51188,0 0.15939,-0.079685 0.21863,-0.2982918 0.37799,-0.3779764 0.13668,-0.068344 1.62697,0 1.88989,0 1.00793,0 2.01586,0 3.02379,0 0.17023,0 1.01891,-0.057515 1.13395,0 0.15936,0.079685 0.2186,0.2982918 0.37796,0.3779764 0.2254,0.1126905 0.57777,-0.1781797 0.75597,0 0.0891,0.08909 -0.0891,0.2888863 0,0.3779761 0.0891,0.08909 0.28887,-0.08909 0.37795,0 0.0891,0.08909 -0.0891,0.2888863 0,0.3779763 0.0891,0.08909 0.2889,-0.08909 0.37799,0 0.0773,0.077272 -0.0749,0.984064 0,1.1339285 0.0797,0.1593686 0.29829,0.2186075 0.37798,0.377976 0.0388,0.077534 0.0533,1.0806242 0,1.1339288 -0.0891,0.08909 -0.2889,-0.08909 -0.37798,0 -0.0773,0.077272 0.0749,0.984064 0,1.1339285 -0.0797,0.1593686 -0.29829,0.2186075 -0.37799,0.377976 -0.11268,0.2253817 0.1782,0.5777728 0,0.7559525 -0.0891,0.08909 -0.28887,-0.08909 -0.37795,0 -0.25213,0.2521092 0.25209,0.5038431 0,0.7559524 -0.50398,0.5039682 -0.37799,-0.6299602 -0.37799,0.377976 0,0.1259922 0.10483,0.4478642 0,0.3779763 -0.44476,-0.2965089 -0.75594,-0.7559523 -1.13392,-1.1339284 z"
       id="path2699"
       inkscape:connector-curvature="0" />
    <path
       style="fill:none;stroke:#000000;stroke-width:0.26458332px;stroke-linecap:butt;stroke-linejoin:miter;stroke-opacity:1"
       d="m 372.68451,258.53571 c 0.25199,-2.01587 0.50398,-4.03175 0.75597,-6.04762 0.25199,-0.88194 0.59187,-1.74339 0.75594,-2.64583 0.0901,-0.49584 0,-1.00794 0,-1.51191 0,-1.00793 0,-2.01587 0,-3.0238 0,-1.25993 0,-2.51985 0,-3.77977 0,-0.32077 0.0695,-2.05948 0,-2.26786 -0.0563,-0.16903 -0.32163,-0.20893 -0.37798,-0.37797 -0.1524,-0.45727 0.12872,-1.753 0,-2.26786 -0.0683,-0.27331 -0.30965,-0.48264 -0.37796,-0.75595 -0.12224,-0.48892 0.15936,-1.0338 0,-1.5119 -0.0564,-0.16904 -0.32163,-0.20895 -0.37798,-0.37798 -0.0797,-0.23905 0.0797,-0.5169 0,-0.75595 -0.0564,-0.16904 -0.27914,-0.22973 -0.37799,-0.37798 -0.83272,-0.19035 -0.19979,-0.77757 -0.37796,-1.13393 -0.0797,-0.15937 -0.27916,-0.22972 -0.37798,-0.37798 -0.15629,-0.23441 -0.22169,-0.52154 -0.37798,-0.75595 -0.19767,-0.29651 -0.64326,-0.41788 -0.75594,-0.75595 -0.0797,-0.23905 0.0797,-0.5169 0,-0.75595 -0.0853,-0.25595 -0.98957,-0.8452 -1.13393,-1.13393 -0.0564,-0.11269 0.0563,-0.26528 0,-0.37798 -0.45492,-0.90985 -0.30104,0.1539 -0.75597,-0.75595 -0.0563,-0.11269 0.0564,-0.26528 0,-0.37797 -0.22677,-0.45358 -0.90715,-0.68036 -1.13392,-1.13393 -0.0564,-0.1127 0.0564,-0.26529 0,-0.37798 -1.2536,-1.25359 0.17817,0.35636 -0.37799,-0.75595 -0.26913,-0.53828 -0.4868,-0.21768 -0.75594,-0.75596 -0.0564,-0.11268 0.0563,-0.26528 0,-0.37797 -0.0797,-0.15937 -0.25199,-0.25199 -0.37798,-0.37798 -0.12599,-0.12599 -0.2186,-0.29829 -0.37798,-0.37797 -0.11269,-0.0564 -0.26527,0.0563 -0.37796,0 -0.37195,-0.18597 -1.13998,-1.32594 -1.51191,-1.51191 -0.11269,-0.0563 -0.2653,0.0564 -0.37798,0 -0.20188,-0.10093 -0.93493,-0.93494 -1.13393,-1.13393 -0.86664,-0.86663 0.23905,0.15937 -1.13392,-0.75595 -0.30919,-0.20612 -0.44678,-0.54983 -0.75597,-0.75595 0.043,-0.71605 -0.88194,-0.25199 -1.13392,-0.37798 -0.15936,-0.0797 -0.2186,-0.29829 -0.37796,-0.37797 -0.11271,-0.0564 -0.25847,0.0398 -0.37799,0 -0.26728,-0.0891 -0.48868,-0.28889 -0.75596,-0.37798 -0.23905,-0.0797 -0.51689,0.0797 -0.75594,0 -0.26729,-0.0891 -0.48869,-0.28888 -0.75595,-0.37798 -0.11953,-0.0398 -0.25198,0 -0.37798,0 -0.25199,0 -0.50398,0 -0.75597,0 -0.75594,0 -1.51188,0 -2.26785,0 -0.21098,0 -1.71685,-0.0577 -1.88986,0 -0.16904,0.0563 -0.20894,0.32163 -0.37799,0.37798 -0.2032,0.0677 -1.19189,0 -1.5119,0 -1.00793,0 -2.01586,0 -3.02382,0 -0.32441,0 -2.82263,0.0671 -3.02379,0 -0.16904,-0.0563 -0.21863,-0.29829 -0.37799,-0.37798 -0.11504,-0.0575 -0.96371,0 -1.13392,0 -0.75597,0 -1.51191,0 -2.26788,0 -0.24836,0 -0.92067,0.0711 -1.13392,0 -0.26726,-0.0891 -0.48869,-0.28888 -0.75594,-0.37797 -0.23905,-0.0797 -0.53057,0.11269 -0.75597,0 -0.15936,-0.0797 -0.20894,-0.32163 -0.37796,-0.37798 -0.17288,-0.0576 -1.34371,0.0841 -1.51191,0 -0.15938,-0.0797 -0.21859,-0.29829 -0.37798,-0.37798 -0.22537,-0.11268 -0.51689,0.0797 -0.75594,0 -0.26728,-0.0891 -0.48869,-0.28888 -0.75597,-0.37797 -0.23905,-0.0797 -0.53057,0.11269 -0.75594,0 -0.15938,-0.0797 -0.2186,-0.29829 -0.37798,-0.37798 -0.11269,-0.0563 -0.26527,0.0564 -0.37799,0 -0.15936,-0.0797 -0.2186,-0.29829 -0.37795,-0.37797 -0.23757,-0.11878 -1.27434,0.11878 -1.51191,0 -0.15939,-0.0797 -0.2186,-0.29829 -0.37799,-0.37798 -0.11268,-0.0563 -0.25199,0 -0.37798,0 -0.38589,0 -2.46219,0.0612 -2.64583,0 -0.16902,-0.0563 -0.20894,-0.32163 -0.37796,-0.37797 -0.0249,-0.008 -1.86507,-0.008 -1.88989,0 -0.16904,0.0563 -0.2186,0.29829 -0.37799,0.37797 -0.11268,0.0564 -0.25196,0 -0.37795,0 -0.27022,0 -2.07439,-0.0645 -2.26788,0 -0.16902,0.0564 -0.20894,0.32163 -0.37796,0.37798 -0.34017,0.11339 -0.79375,-0.1134 -1.13392,0 -0.26728,0.0891 -0.48869,0.28888 -0.75597,0.37797 -0.35856,0.11953 -0.77533,-0.11952 -1.13392,0 -0.16905,0.0564 -0.2186,0.29829 -0.37799,0.37798 -0.11268,0.0563 -0.26527,-0.0564 -0.37796,0 -0.15938,0.0797 -0.20894,0.32163 -0.37798,0.37797 -0.23905,0.0797 -0.51689,-0.0797 -0.75597,0 -0.33805,0.1127 -0.43719,0.59659 -0.75594,0.75596 -0.11268,0.0563 -0.2653,-0.0564 -0.37798,0 -0.45358,0.22678 -0.68035,0.90714 -1.13393,1.13393 -0.11268,0.0563 -0.26527,-0.0564 -0.37798,0 -0.45355,0.22678 -0.68035,0.90714 -1.13392,1.13393 -0.11269,0.0563 -0.26528,-0.0563 -0.37796,0 -0.15939,0.0797 -0.21863,0.29829 -0.37799,0.37797 -0.11268,0.0564 -0.26529,-0.0563 -0.37798,0 -0.45357,0.22679 -0.68035,0.90714 -1.13392,1.13393 -0.11269,0.0564 -0.2653,-0.0563 -0.37799,0 -0.15936,0.0797 -0.22971,0.27914 -0.37795,0.37798 -0.23443,0.15627 -0.52155,0.2217 -0.75597,0.37797 -0.14825,0.0988 -0.2186,0.2983 -0.37799,0.37798 -0.11268,0.0563 -0.26527,-0.0564 -0.37795,0 -0.15939,0.0797 -0.25199,0.25198 -0.37799,0.37798 -0.37798,0.37797 -0.75594,0.75595 -1.13392,1.13392 -0.126,0.12599 -0.22974,0.27914 -0.37799,0.37798 -0.23439,0.15627 -0.52154,0.2217 -0.75594,0.37797 -0.48119,0.3208 -1.04616,1.1626 -1.51191,1.51191 -0.22537,0.16904 -0.52154,0.2217 -0.75596,0.37798 -0.44477,0.2965 -0.70628,0.8132 -1.13393,1.13393 -0.22537,0.16903 -0.52154,0.2217 -0.75594,0.37797 -0.55618,0.37079 -0.95573,1.14112 -1.51191,1.51191 -0.23442,0.15627 -0.52154,0.2217 -0.75594,0.37797 -0.14827,0.0988 -0.22974,0.27914 -0.37798,0.37798 -0.23442,0.15627 -0.52155,0.2217 -0.75597,0.37798 -0.14825,0.0988 -0.22971,0.27913 -0.37796,0.37797 -0.23442,0.15627 -0.53057,0.20894 -0.75596,0.37798 -0.42762,0.32072 -0.68916,0.83742 -1.13393,1.13392 -0.23439,0.15628 -0.52155,0.22171 -0.75594,0.37798 -1.73157,1.15437 1.6066,-0.61432 -1.13392,0.75595 -0.25199,0.126 -0.50398,0.25199 -0.75597,0.37798 -0.25199,0.12599 -0.55674,0.17877 -0.75594,0.37798 -0.19923,0.19921 -0.17878,0.55674 -0.37799,0.75595 -0.0241,0.0242 -1.4415,0.70902 -1.51191,0.75595 -0.14824,0.0988 -0.22971,0.27914 -0.37798,0.37798 -0.23439,0.15627 -0.52152,0.2217 -0.75594,0.37797 -0.29652,0.19768 -0.45945,0.55828 -0.75594,0.75596 -0.23442,0.15627 -0.52155,0.2217 -0.75597,0.37797 -0.29649,0.19767 -0.43722,0.59659 -0.75594,0.75596 -0.11269,0.0563 -0.25844,-0.0399 -0.37798,0 -2.73783,0.91261 0.59592,-0.10898 -1.13393,0.75595 -0.11268,0.0563 -0.2653,-0.0564 -0.37798,0 -0.15936,0.0797 -0.20894,0.32163 -0.37799,0.37797 -0.23905,0.0797 -0.51689,-0.0797 -0.75594,0 -0.33808,0.11269 -0.43722,0.59659 -0.75594,0.75595 -0.11271,0.0564 -0.2653,-0.0563 -0.37798,0 -0.31875,0.15937 -0.43723,0.59659 -0.75597,0.75596 -0.11269,0.0563 -0.26527,-0.0564 -0.37796,0 -0.15938,0.0797 -0.21862,0.29829 -0.37798,0.37797 -0.22537,0.1127 -0.51689,-0.0797 -0.75594,0 -0.26728,0.0891 -0.48869,0.28889 -0.75597,0.37798 -0.11951,0.0398 -0.26527,-0.0563 -0.37798,0 -0.31872,0.15937 -0.41786,0.64326 -0.75594,0.75595 -0.23905,0.0797 -0.51689,-0.0797 -0.75594,0 -0.33809,0.11269 -0.45945,0.55828 -0.75597,0.75596 -0.2344,0.15627 -0.52155,0.2217 -0.75594,0.37797 -0.14828,0.0988 -0.22974,0.27914 -0.37799,0.37798 -0.23442,0.15627 -0.52154,0.2217 -0.75594,0.37797 -0.14827,0.0988 -0.20894,0.32163 -0.37798,0.37798 -0.23905,0.0797 -0.51689,-0.0797 -0.75597,0 -0.16901,0.0564 -0.22971,0.27914 -0.37796,0.37798 -0.19034,0.83274 -0.77758,0.19979 -1.13392,0.37797 -0.15939,0.0797 -0.21863,0.29829 -0.37798,0.37798 -0.11269,0.0563 -0.25845,-0.0398 -0.37799,0 -2.73783,0.91261 0.59592,-0.10897 -1.13392,0.75595 -0.11269,0.0564 -0.2653,-0.0563 -0.37799,0 -0.15936,0.0797 -0.22971,0.27914 -0.37795,0.37798 -0.25199,0.12599 -0.50398,0.25198 -0.75597,0.37797 -0.126,0 -0.26527,-0.0563 -0.37799,0 -0.15935,0.0797 -0.21859,0.29829 -0.37795,0.37798 -0.11269,0.0563 -0.2653,-0.0564 -0.37799,0 -0.15936,0.0797 -0.2186,0.29829 -0.37798,0.37797 -0.11269,0.0564 -0.26527,-0.0563 -0.37796,0 -0.15938,0.0797 -0.21862,0.2983 -0.37798,0.37798 -0.11269,0.0564 -0.2653,-0.0563 -0.37799,0 -0.15935,0.0797 -0.21859,0.29829 -0.37798,0.37798 -0.11269,0.0563 -0.25844,-0.0399 -0.37796,0 -0.26728,0.0891 -0.48869,0.28888 -0.75596,0.37797 -0.11952,0.0399 -0.28888,-0.0891 -0.37797,0 -0.0891,0.0891 0.0891,0.28889 0,0.37798 -0.0891,0.0891 -0.26529,-0.0563 -0.37798,0 -0.15937,0.0797 -0.21861,0.29829 -0.37798,0.37798 -0.11268,0.0563 -0.26528,-0.0564 -0.37797,0 -0.15937,0.0797 -0.21861,0.29829 -0.37798,0.37797 -0.11269,0.0564 -0.28888,-0.0891 -0.37797,0 -0.0891,0.0891 0.0891,0.28889 0,0.37798 -0.17818,0.17818 -0.57778,-0.17818 -0.75595,0 -0.0891,0.0891 0.0891,0.28889 0,0.37798 -0.0891,0.0891 -0.26529,-0.0563 -0.37798,0 -0.15937,0.0797 -0.21861,0.29829 -0.37798,0.37797 -0.11269,0.0564 -0.26528,-0.0563 -0.37797,0 -0.15937,0.0797 -0.21861,0.29829 -0.37798,0.37798 -0.11269,0.0563 -0.26529,-0.0564 -0.37798,0 -0.31873,0.15937 -0.43721,0.59658 -0.75595,0.75595 -0.22538,0.11269 -0.57777,-0.17818 -0.75595,0 -0.0891,0.0891 0.0891,0.28889 0,0.37798 -0.0891,0.0891 -0.26529,-0.0564 -0.37798,0 -0.15937,0.0797 -0.2186,0.29829 -0.37797,0.37797 -0.1127,0.0564 -0.28889,-0.0891 -0.37798,0 -0.0891,0.0891 0.0891,0.28889 0,0.37798 -0.17818,0.17818 -0.53057,-0.11269 -0.75595,0 -0.15937,0.0797 -0.21861,0.29829 -0.37798,0.37798 -0.11269,0.0563 -0.26528,-0.0563 -0.37798,0 -0.31873,0.15936 -0.43721,0.59658 -0.75595,0.75595 -0.11269,0.0563 -0.25198,0 -0.37797,0 -0.126,0.12599 -0.21861,0.29829 -0.37798,0.37797 -0.11269,0.0564 -0.28888,-0.0891 -0.37797,0 -0.0891,0.0891 0.0891,0.28889 0,0.37798 -0.0891,0.0891 -0.28889,-0.0891 -0.37798,0 -0.0891,0.0891 0.0891,0.28889 0,0.37797 -0.0891,0.0891 -0.28889,-0.0891 -0.37798,0 -0.0891,0.0891 0.0891,0.28889 0,0.37798 -0.17818,0.17818 -0.57777,-0.17818 -0.75595,0 -0.0891,0.0891 0.0563,0.26529 0,0.37798 -0.15937,0.31873 -0.59658,0.43721 -0.75595,0.75595 -0.0564,0.11269 0.0891,0.28889 0,0.37798 -0.0891,0.0891 -0.28889,-0.0891 -0.37798,0 -0.0891,0.0891 0.0564,0.26528 0,0.37797 -0.0797,0.15937 -0.29829,0.21861 -0.37797,0.37798 -0.0563,0.11269 0.0891,0.28889 0,0.37798 -0.0891,0.0891 -0.28889,-0.0891 -0.37798,0 -0.0891,0.0891 0.0891,0.28888 0,0.37797 -0.0891,0.0891 -0.28889,-0.0891 -0.37798,0 -0.0891,0.0891 0.0564,0.26529 0,0.37798 -0.0797,0.15937 -0.29829,0.2186 -0.37797,0.37797 -0.0564,0.11269 0.0563,0.26529 0,0.37798 -0.0797,0.15937 -0.2983,0.21861 -0.37798,0.37798 -0.0563,0.11269 0.0891,0.28888 0,0.37797 -0.0891,0.0891 -0.28889,-0.0891 -0.37798,0 -0.0891,0.0891 0.0563,0.26529 0,0.37798 -0.0797,0.15937 -0.29829,0.21861 -0.37797,0.37798 -0.0564,0.11268 0.0891,0.28888 0,0.37797 -0.0891,0.0891 -0.28889,-0.0891 -0.37798,0 -0.0891,0.0891 0.0891,0.28889 0,0.37798 -0.0891,0.0891 -0.28889,-0.0891 -0.37798,0 -0.0891,0.0891 0.0891,0.28888 0,0.37797 -0.0891,0.0891 -0.28888,-0.0891 -0.37797,0 -0.0891,0.0891 0.0891,0.28889 0,0.37798 -0.0891,0.0891 -0.28889,-0.0891 -0.37798,0 -0.78204,0.78205 1.19507,-0.0306 -0.37797,0.75595 -0.11269,0.0563 -0.28889,-0.0891 -0.37798,0 -0.0891,0.0891 0.0564,0.26529 0,0.37798 -0.15937,0.31873 -0.59658,0.43721 -0.75595,0.75595 -0.11269,0.22537 0.17818,0.57777 0,0.75594 -0.0891,0.0891 -0.28889,-0.0891 -0.37798,0 -0.0891,0.0891 0,0.25199 0,0.37798 0,0.75597 0,1.51191 0,2.26785 0,0.26292 -0.0683,1.75321 0,1.8899 0.0797,0.15936 0.29829,0.2186 0.37798,0.37798 0.11269,0.22537 -0.11269,0.53057 0,0.75594 0.15937,0.31874 0.59658,0.43723 0.75595,0.75597 0.0564,0.11268 -0.0891,0.28887 0,0.37796 0.0891,0.0891 0.28889,-0.0891 0.37798,0 0.78204,0.78205 -1.19507,-0.0306 0.37797,0.75596 0.11269,0.0563 0.28889,-0.0891 0.37798,0 0.0891,0.0891 -0.0564,0.26527 0,0.37796 0.0797,0.15939 0.25198,0.25199 0.37797,0.37798 0.126,0.126 0.21861,0.2983 0.37798,0.37799 0.11269,0.0563 0.26529,-0.0564 0.37798,0 1.57304,0.78653 -0.40407,-0.0262 0.37797,0.75594 0.0891,0.0891 0.26529,-0.0563 0.37798,0 0.31874,0.15938 0.43722,0.59658 0.75595,0.75597 0.11269,0.0563 0.26529,-0.0564 0.37798,0 0.15937,0.0797 0.22972,0.27913 0.37798,0.37795 0.23441,0.15629 0.52154,0.22173 0.75595,0.37799 0.29651,0.19767 0.43721,0.59658 0.75595,0.75597 0.11269,0.0563 0.26529,-0.0564 0.37798,0 0.15936,0.0797 0.22972,0.27913 0.37797,0.37795 0.23441,0.15629 0.52154,0.22172 0.75596,0.37799 0.14825,0.0988 0.22972,0.27913 0.37797,0.37798 1.90946,1.27296 0.009,0.003 1.13393,0.37796 0.53454,0.17819 0.96527,0.61931 1.5119,0.75597 0.24446,0.0611 0.5169,-0.0797 0.75596,0 0.16903,0.0563 0.22972,0.27913 0.37797,0.37798 0.23441,0.15626 0.48868,0.28887 0.75596,0.37796 0.11952,0.0398 0.25844,-0.0399 0.37797,0 0.26727,0.0891 0.48868,0.28889 0.75595,0.37798 0.11953,0.0399 0.25845,-0.0399 0.37798,0 0.26727,0.0891 0.48264,0.30964 0.75595,0.37798 0.24446,0.0611 0.51149,-0.0611 0.75596,0 0.27331,0.0683 0.48263,0.30965 0.75595,0.37796 0.24446,0.0611 0.50396,0 0.75595,0 0.37797,0 0.75595,0 1.13393,0 0.25198,0 0.50886,-0.0494 0.75595,0 0.39068,0.0782 0.74324,0.29985 1.13392,0.37798 0.2471,0.0494 0.50398,0 0.75597,0 0.37796,0 0.75594,0 1.13393,0 1.38591,0 2.77182,0 4.15774,0 1.51188,0 3.02379,0 4.5357,0 0.50398,0 1.01182,0.0625 1.51191,0 0.51546,-0.0644 0.99644,-0.31353 1.51191,-0.37798 0.50006,-0.0625 1.01181,0.0625 1.5119,0 0.51546,-0.0644 0.99642,-0.31353 1.51191,-0.37796 0.50006,-0.0625 1.00793,0 1.51188,0 0.50398,-0.12599 0.99767,-0.30451 1.51191,-0.37798 0.8731,-0.12472 1.7707,0.10938 2.64584,0 0.51548,-0.0644 0.99644,-0.31353 1.5119,-0.37798 0.50009,-0.0625 1.00793,0 1.51191,0 0.50398,0 1.00793,0 1.51191,0 1.51191,0 3.02382,0 4.5357,0 1.51191,0 3.02382,0 4.53573,0 0.50397,0 1.00793,0 1.5119,0 0.50396,0 1.01103,-0.0557 1.51191,0 0.6385,0.071 1.25138,0.30705 1.88987,0.37798 0.50088,0.0556 1.01185,-0.0625 1.51191,0 1.03095,0.12888 1.9953,0.60902 3.02381,0.75594 0.37418,0.0535 0.75976,-0.0534 1.13393,0 0.51427,0.0735 1.00793,0.25199 1.51191,0.37798 0.50395,0.126 1.0124,0.23527 1.51191,0.37799 0.38309,0.10946 0.73951,0.32163 1.13392,0.37798 0.87307,0.12473 1.77588,-0.14499 2.64583,0 0.39299,0.0655 0.74092,0.31247 1.13393,0.37796 3.55812,0.59304 -1.85052,-0.9067 2.64583,0.37798 0.38309,0.10946 0.74094,0.31248 1.13393,0.37799 0.37282,0.0621 0.75975,-0.0535 1.13392,0 0.51427,0.0735 0.99767,0.30451 1.51191,0.37795 0.62362,0.0891 1.27217,-0.12353 1.88989,0 0.39069,0.0782 0.74324,0.29986 1.13393,0.37799 0.24709,0.0494 0.50395,0 0.75594,0 0.50398,0 1.01184,-0.0625 1.51191,0 0.51546,0.0644 0.99766,0.30451 1.51191,0.37798 0.37417,0.0534 0.75975,-0.0534 1.13392,0 0.51427,0.0735 0.99645,0.31353 1.51191,0.37799 0.50009,0.0625 1.01182,-0.0625 1.51191,0 0.51546,0.0644 0.99764,0.3045 1.51191,0.37795 0.37417,0.0535 0.75594,0 1.13392,0 0.88194,0 1.7639,0 2.64583,0 1.25992,0 2.51984,0 3.77976,0 0.50398,0 1.00793,0 1.51191,0 0.37798,0 0.75975,0.0535 1.13393,0 0.51427,-0.0734 0.99763,-0.30451 1.5119,-0.37795 0.37418,-0.0535 0.75595,0 1.13393,0 0.88193,0 1.7639,0 2.64583,0 0.50398,0 1.01772,0.0988 1.51191,0 0.39068,-0.0782 0.74324,-0.29986 1.13393,-0.37799 0.24709,-0.0494 0.51149,0.0611 0.75594,0 0.27331,-0.0683 0.48265,-0.30964 0.75596,-0.37798 0.24445,-0.0611 0.50885,0.0494 0.75595,0 0.94495,-0.18899 1.79604,-0.70903 2.64583,-1.13393 0.25199,-0.12599 0.48265,-0.30964 0.75597,-0.37798 0.24444,-0.0611 0.51149,0.0611 0.75594,0 1.82522,-0.4563 -0.0188,-0.17963 1.13392,-0.75594 0.11269,-0.0564 0.2653,0.0563 0.37799,0 0.45357,-0.2268 0.68034,-0.90715 1.13392,-1.13393 0.11269,-0.0564 0.2653,0.0563 0.37798,0 0.15936,-0.0797 0.2186,-0.29829 0.37799,-0.37798 0.11268,-0.0564 0.26527,0.0564 0.37795,0 0.0724,-0.0362 1.47574,-1.43955 1.51191,-1.51191 0.0564,-0.11268 -0.0891,-0.28887 0,-0.37798 0.0891,-0.0891 0.2889,0.0891 0.37799,0 0.0891,-0.0891 -0.0891,-0.28887 0,-0.37796 0.0891,-0.0891 0.28887,0.0891 0.37798,0 0.0891,-0.0891 -0.0891,-0.2889 0,-0.37798 0.0891,-0.0891 0.28887,0.0891 0.37796,0 0.0891,-0.0891 -0.0891,-0.2889 0,-0.37799 0.0891,-0.0891 0.2889,0.0891 0.37798,0 0.0891,-0.0891 -0.0891,-0.28887 0,-0.37795 0.0891,-0.0891 0.2889,0.0891 0.37799,0 0.0891,-0.0891 -0.0891,-0.2889 0,-0.37799 0.0891,-0.0891 0.28887,0.0891 0.37795,0 0.0891,-0.0891 -0.0563,-0.2653 0,-0.37798 0.0797,-0.15936 0.29829,-0.2186 0.37799,-0.37799 0.0564,-0.11268 0,-0.25196 0,-0.37795 0.12599,-0.126 0.29829,-0.21863 0.37798,-0.37799 0.0563,-0.11268 -0.0891,-0.2889 0,-0.37798 0.0891,-0.0891 0.28887,0.0891 0.37798,0 0.0891,-0.0891 -0.0891,-0.28887 0,-0.37796 0.0891,-0.0891 0.28888,0.0891 0.37796,0 0.0891,-0.0891 -0.0563,-0.2653 0,-0.37798 0.15939,-0.31875 0.59658,-0.43723 0.75597,-0.75597 0.0563,-0.11269 -0.0564,-0.26527 0,-0.37796 0.78653,-1.57305 -0.0262,0.40408 0.75594,-0.37798 0.0891,-0.0891 -0.0563,-0.2653 0,-0.37798 0.15939,-0.31872 0.59658,-0.4372 0.75597,-0.75594 0.0563,-0.11269 -0.0564,-0.2653 0,-0.37799 0.7865,-1.57305 -0.0262,0.40407 0.75594,-0.37798 0.0891,-0.0891 -0.0891,-0.28887 0,-0.37796 0.0891,-0.0891 0.2889,0.0891 0.37798,0 0.17817,-0.1782 -0.17819,-0.57777 0,-0.75597 0.0891,-0.0891 0.28887,0.0891 0.37796,0 0.1782,-0.17817 -0.17817,-0.57777 0,-0.75594 0.0891,-0.0891 0.2889,0.0891 0.37798,0 0.0891,-0.0891 -0.0563,-0.2653 0,-0.37798 0.0797,-0.15936 0.29829,-0.2186 0.37799,-0.37799 0.11268,-0.22537 -0.17817,-0.57777 0,-0.75594 0.0891,-0.0891 0.28887,0.0891 0.37798,0 0.17817,-0.17817 -0.11271,-0.53057 0,-0.75594 0.0797,-0.15938 0.29829,-0.21862 0.37796,-0.37798 0.11268,-0.22537 -0.17817,-0.57777 0,-0.75597 0.0891,-0.0891 0.2889,0.0891 0.37798,0 0.0378,-0.0378 0.0378,-1.09612 0,-1.13392 -0.0891,-0.0891 -0.2889,0.0891 -0.37798,0 -0.17817,-0.17818 0.1782,-0.57777 0,-0.75595 -0.0891,-0.0891 -0.26527,0.0563 -0.37796,0 -0.31874,-0.15937 -0.43722,-0.59658 -0.75597,-0.75595 -0.11268,-0.0564 -0.28887,0.0891 -0.37798,0 -0.0891,-0.0891 0.0891,-0.28889 0,-0.37798 -0.0891,-0.0891 -0.28887,0.0891 -0.37796,0 -0.0891,-0.0891 0.0891,-0.28888 0,-0.37797 -0.0891,-0.0891 -0.2653,0.0563 -0.37798,0 -0.15936,-0.0797 -0.2186,-0.29829 -0.37799,-0.37798 -0.11268,-0.0563 -0.28887,0.0891 -0.37795,0 -0.0891,-0.0891 0.0891,-0.28889 0,-0.37797 -0.0891,-0.0891 -0.2653,0.0563 -0.37799,0 -0.15938,-0.0797 -0.21859,-0.2983 -0.37798,-0.37798 -0.52136,-0.26068 -0.33808,0.45775 -0.75594,-0.37798 -0.0564,-0.11269 0.0468,-0.26099 0,-0.37797 -0.20926,-0.52316 -0.50398,-1.00794 -0.75597,-1.51191 z"
       id="path2701"
       inkscape:connector-curvature="0" />
  </g>
</svg>
