<?xml version="1.0" encoding="UTF-8" standalone="no"?>
<!-- Created with Inkscape (http://www.inkscape.org/) -->

<svg
   xmlns:dc="http://purl.org/dc/elements/1.1/"
   xmlns:cc="http://creativecommons.org/ns#"
   xmlns:rdf="http://www.w3.org/1999/02/22-rdf-syntax-ns#"
   xmlns:svg="http://www.w3.org/2000/svg"
   xmlns="http://www.w3.org/2000/svg"
   xmlns:sodipodi="http://sodipodi.sourceforge.net/DTD/sodipodi-0.dtd"
   xmlns:inkscape="http://www.inkscape.org/namespaces/inkscape"
   width="368.29999mm"
   height="275.16666mm"
   viewBox="0 0 368.29999 275.16666"
   version="1.1"
   id="svg3319"
   sodipodi:docname="3_5_tecido_conjuntivo_fibroelastico.svg"
   inkscape:version="0.92.4 (5da689c313, 2019-01-14)">
  <defs
     id="defs3313" />
  <sodipodi:namedview
     id="base"
     pagecolor="#ffffff"
     bordercolor="#666666"
     borderopacity="1.0"
     inkscape:pageopacity="0.0"
     inkscape:pageshadow="2"
     inkscape:zoom="0.5"
     inkscape:cx="259.52187"
     inkscape:cy="682.38265"
     inkscape:document-units="mm"
     inkscape:current-layer="layer27"
     showgrid="false"
     fit-margin-top="0"
     fit-margin-left="0"
     fit-margin-right="0"
     fit-margin-bottom="0"
     inkscape:window-width="1920"
     inkscape:window-height="1001"
     inkscape:window-x="-9"
     inkscape:window-y="-9"
     inkscape:window-maximized="1" />
  <metadata
     id="metadata3316">
    <rdf:RDF>
      <cc:Work
         rdf:about="">
        <dc:format>image/svg+xml</dc:format>
        <dc:type
           rdf:resource="http://purl.org/dc/dcmitype/StillImage" />
        <dc:title></dc:title>
      </cc:Work>
    </rdf:RDF>
  </metadata>
  <g
     inkscape:groupmode="layer"
     id="layer27"
     inkscape:label="tecido conjuntivo fibroelastico">
    <path
       style="fill:none;stroke:#000000;stroke-width:0.26458332px;stroke-linecap:butt;stroke-linejoin:miter;stroke-opacity:1"
       d="m 325.267,75.24906 c -1.16173,2.25747 1.35295,2.989736 1.87089,4.543581 0.0282,0.08452 -0.063,0.204274 0,0.267269 0.063,0.063 0.20429,-0.063 0.26729,0 0.12599,0.125992 -0.126,0.408548 0,0.53454 0.063,0.063 0.20425,0.063 0.26725,0 0.063,-0.063 -0.063,-0.204274 0,-0.267271 0.063,-0.063 0.20429,0.063 0.26728,0 0.063,-0.063 -0.063,-0.204272 0,-0.267269 0.063,-0.063 0.20426,0.063 0.26726,0 0.063,-0.063 -0.063,-0.204274 0,-0.267269 0.063,-0.063 0.20428,0.063 0.26728,0 0.063,-0.063 -0.0399,-0.187584 0,-0.267269 0.0563,-0.112691 0.21093,-0.15458 0.26726,-0.267271 0.0398,-0.07968 -0.063,-0.204272 0,-0.267269 0.12599,-0.125992 0.40854,0.125992 0.53453,0 0.063,-0.063 -0.063,-0.204274 0,-0.267269 0.063,-0.063 0.20429,0.063 0.26729,0 0.063,-0.063 -0.063,-0.204274 0,-0.267269 0.0108,-0.01077 0.97091,0 1.06907,0 0.0648,0 0.79322,-0.0086 0.80182,0 0.063,0.063 -0.063,0.204272 0,0.267269 0.12597,0.125992 0.37515,-0.07968 0.53454,0 0.11269,0.05635 0.15457,0.210923 0.26725,0.267269 0.0797,0.03984 0.20429,-0.063 0.26729,0 0.063,0.063 -0.063,0.204274 0,0.267269 0.12599,0.125992 0.40854,-0.125992 0.53453,0 0.063,0.063 -0.063,0.204274 0,0.267271 0.0891,0.08912 0.4454,-0.08913 0.53454,0 0.063,0.063 -0.063,0.204272 0,0.267269 0.063,0.063 0.18759,-0.03984 0.26726,0 0.32073,0.160361 0.48109,0.641448 0.80182,0.801809 0.0797,0.03984 0.20426,-0.063 0.26725,0 0.063,0.063 -0.063,0.204272 0,0.267269 0.063,0.063 0.20429,-0.063 0.26729,0 0.063,0.063 -0.063,0.204274 0,0.267269 0.063,0.063 0.20425,-0.063 0.26725,0 0.063,0.063 -0.063,0.204274 0,0.267269 0.126,0.125994 0.37518,-0.07968 0.53454,0 0.11271,0.05635 0.15459,0.210926 0.26728,0.267271 0.21381,0.106908 0.58798,-0.106907 0.80182,0 0.11269,0.05635 0.15457,0.210924 0.26726,0.267269 0.0703,0.03514 0.92932,0 1.06907,0 0.12039,0 0.72049,0.04067 0.80182,0 0.11269,-0.05634 0.15457,-0.210923 0.26726,-0.267269 0.0691,-0.03455 1.41417,0 1.60361,0 0.0891,0 0.18759,0.03984 0.26728,0 0.11269,-0.05634 0.15457,-0.210925 0.26728,-0.267271 0.0967,-0.04833 1.15044,0 1.33634,0 0.0891,0 0.20428,0.063 0.26728,0 0.063,-0.063 -0.063,-0.204272 0,-0.267269 0.12599,-0.125992 0.37515,0.07968 0.53454,0 0.11268,-0.05635 0.15456,-0.210923 0.26725,-0.267269 0.14499,-0.0725 0.99595,0.07313 1.06908,0 0.063,-0.063 -0.063,-0.204274 0,-0.267269 0.0828,-0.08276 1.25359,0.08276 1.33635,0 0.063,-0.063 -0.063,-0.204274 0,-0.267271 0.0643,-0.06431 1.00476,0.06431 1.06908,0 0.063,-0.063 -0.063,-0.204272 0,-0.267269 0.12599,-0.125992 0.40854,0.125992 0.53454,0 0.063,-0.063 -0.063,-0.204274 0,-0.267269 0.12599,-0.125992 0.40854,0.125992 0.53453,0 0.063,-0.063 -0.063,-0.204274 0,-0.267269 0.063,-0.063 0.18759,0.03984 0.26729,0 0.11268,-0.05635 0.15457,-0.210926 0.26725,-0.267271 0.0797,-0.03984 0.20429,0.063 0.26728,0 0.063,-0.063 -0.063,-0.204272 0,-0.267269 0.063,-0.063 0.20426,0.063 0.26726,0 0.55301,-0.55299 -0.84503,0.02162 0.26728,-0.534538 0.0797,-0.03984 0.20426,0.063 0.26726,0 0.12599,-0.125992 -0.126,-0.408548 0,-0.53454 0.063,-0.063 0.20428,0.063 0.26728,0 0.063,-0.063 -0.0399,-0.187584 0,-0.267269 0.0563,-0.112691 0.21093,-0.15458 0.26726,-0.267269 0.0398,-0.07968 0,-0.178181 0,-0.267271 0,-0.08909 0.063,-0.204272 0,-0.267269 -0.063,-0.063 -0.20426,0.063 -0.26726,0 -0.063,-0.063 0.063,-0.204274 0,-0.267269 -0.0546,-0.05464 -0.69585,0.05298 -0.80182,0 -0.11269,-0.05635 -0.15457,-0.210923 -0.26726,-0.267269 -0.10596,-0.05299 -0.74718,0.05464 -0.80182,0 -0.063,-0.063 0.063,-0.204274 0,-0.267271 -0.0108,-0.01077 -0.97091,0 -1.06907,0 -0.0982,0 -1.05833,0.01074 -1.06908,0 -0.063,-0.063 0.063,-0.204272 0,-0.267269 -0.12599,-0.125992 -0.40854,0.125992 -0.53453,0 -0.063,-0.063 0.063,-0.204274 0,-0.267269 -0.063,-0.063 -0.20429,0.063 -0.26729,0 -0.063,-0.063 0.063,-0.204274 0,-0.267269 -0.063,-0.063 -0.20425,0.063 -0.26725,0 -0.0122,-0.01212 0,-1.210331 0,-1.336349 0,-0.08909 -0.063,-0.204272 0,-0.267269 0.063,-0.063 0.20426,0.063 0.26725,0 0.126,-0.125992 -0.12596,-0.408546 0,-0.534538 0.063,-0.063 0.20429,0.063 0.26729,0 0.12599,-0.125992 -0.126,-0.408548 0,-0.53454 0.063,-0.063 0.20428,0.063 0.26725,0 0.063,-0.063 -0.0398,-0.187585 0,-0.267269 0.0564,-0.112692 0.1782,-0.178181 0.26728,-0.267269 0.0891,-0.08909 0.15457,-0.210926 0.26729,-0.267272 0.0797,-0.03984 0.20425,0.063 0.26725,0 0.126,-0.125991 -0.12599,-0.408545 0,-0.534537 0.063,-0.063 0.20429,0.06299 0.26728,0 0.063,-0.063 -0.063,-0.204274 0,-0.267269 0.063,-0.063 0.20426,0.063 0.26726,0 0.0546,-0.05464 -0.053,-0.695841 0,-0.801809 0.0564,-0.112692 0.21092,-0.15458 0.26728,-0.267269 0.0407,-0.08134 0,-0.681442 0,-0.801809 0,-0.06482 0.008,-0.793213 0,-0.80181 -0.063,-0.063 -0.20428,0.063 -0.26728,0 -0.126,-0.125991 0.0797,-0.375171 0,-0.53454 -0.0257,-0.05116 -1.01791,-1.043495 -1.06908,-1.069078 -0.0797,-0.03984 -0.20428,0.063 -0.26728,0 -0.063,-0.063 0.063,-0.204272 0,-0.267269 -0.063,-0.06299 -0.20426,0.063 -0.26725,0 -0.063,-0.06299 0.063,-0.204274 0,-0.267269 -0.126,-0.125992 -0.40855,0.125992 -0.53454,0 -0.063,-0.063 0.063,-0.204274 0,-0.267268 -0.063,-0.063 -0.18759,0.03984 -0.26728,0 -0.11269,-0.05635 -0.15457,-0.210926 -0.26726,-0.267272 -0.0797,-0.03984 -0.20428,0.063 -0.26728,0 -0.063,-0.063 0.063,-0.204272 0,-0.267269 -0.063,-0.06299 -0.18759,0.03984 -0.26726,0 -0.2254,-0.112691 -0.30916,-0.421849 -0.53453,-0.534538 -0.0797,-0.03984 -0.20429,0.063 -0.26729,0 -0.063,-0.063 0.063,-0.204274 0,-0.267271 -0.063,-0.063 -0.20426,0.063 -0.26725,0 -0.063,-0.063 0.063,-0.204272 0,-0.267269 -0.063,-0.063 -0.20429,0.063 -0.26728,0 -0.063,-0.063 0.063,-0.204274 0,-0.267269 -0.063,-0.063 -0.20426,0.063 -0.26726,0 -0.063,-0.063 0.063,-0.204274 0,-0.267269 -0.063,-0.063 -0.20428,0.063 -0.26728,0 -0.063,-0.063 0.063,-0.204274 0,-0.267271 -0.26736,-0.267367 -0.26718,0.267369 -0.53454,0 -0.063,-0.063 0.063,-0.204272 0,-0.267269 -0.063,-0.063 -0.20428,0.063 -0.26726,0 -0.063,-0.063 0.063,-0.204274 0,-0.267269 -0.063,-0.063 -0.20428,0.063 -0.26728,0 -0.063,-0.063 0.063,-0.204274 0,-0.267269 -0.063,-0.063 -0.18759,0.03984 -0.26728,0 -0.22537,-0.112691 -0.30914,-0.421849 -0.53454,-0.53454 -0.0797,-0.03984 -0.20426,0.063 -0.26725,0 -0.063,-0.063 0.063,-0.204274 0,-0.267269 -0.063,-0.063 -0.18759,0.03984 -0.26729,0 -0.11268,-0.05635 -0.15456,-0.210923 -0.26725,-0.267269 -0.0797,-0.03984 -0.20429,0.063 -0.26728,0 -0.063,-0.063 0.063,-0.204274 0,-0.267271 -0.063,-0.06299 -0.20426,0.063 -0.26726,0 -0.063,-0.06299 0.063,-0.204272 0,-0.267269 -0.063,-0.063 -0.20428,0.063 -0.26728,0 -0.063,-0.063 0.0399,-0.187584 0,-0.267269 -0.11269,-0.225383 -0.42185,-0.309158 -0.53454,-0.53454 -0.0398,-0.07968 0.063,-0.204272 0,-0.267269 -0.063,-0.063 -0.20426,0.063 -0.26725,0 -0.126,-0.125992 0.12599,-0.408546 0,-0.534538 -0.063,-0.063 -0.20429,0.06299 -0.26729,0 -0.12599,-0.125992 0.126,-0.408548 0,-0.53454 -0.063,-0.063 -0.20425,0.063 -0.26725,0 -0.126,-0.125992 0.12599,-0.408546 0,-0.534538 -0.063,-0.063 -0.20429,0.063 -0.26728,0 -0.126,-0.125992 0.12599,-0.408548 0,-0.53454 -0.063,-0.063 -0.17817,0 -0.26726,0 -0.0891,0 -0.1782,0 -0.26728,0 -0.71271,0 0.0891,0.08909 -0.26726,-0.267269 -0.13364,-0.133636 -0.66818,0.133633 -0.80182,0 -0.13364,-0.133636 0.13364,-0.668173 0,-0.801809 -0.0377,-0.03769 -0.74697,-0.02741 -0.80182,0 -0.11268,0.05635 -0.15457,0.210923 -0.26725,0.267269 -0.0797,0.03984 -0.18759,-0.03984 -0.26728,0 -0.11269,0.05635 -0.15457,0.210925 -0.26726,0.267271 -0.0797,0.03984 -0.20428,-0.063 -0.26728,0 -0.063,0.063 0.063,0.204272 0,0.267269 -0.063,0.063 -0.18759,-0.03984 -0.26726,0 -0.11268,0.05635 -0.15459,0.210923 -0.26728,0.267269 -0.0797,0.03984 -0.20426,-0.063 -0.26726,0 -0.063,0.063 0.063,0.204274 0,0.267269 -0.063,0.063 -0.18758,-0.03984 -0.26728,0 -0.11268,0.05635 -0.15457,0.210925 -0.26725,0.267271 -0.0797,0.03984 -0.20429,-0.063 -0.26729,0 -0.063,0.063 0.063,0.204272 0,0.267269 -0.063,0.063 -0.18758,-0.03984 -0.26725,0 -0.66053,0.330266 0.0922,0.267269 -0.53454,0.267269 -0.0648,0 -0.79322,0.0086 -0.80182,0 -0.063,-0.063 0.063,-0.204274 0,-0.267269 -0.0643,-0.06432 -1.00475,0.06431 -1.06907,0 -0.063,-0.063 0.063,-0.204274 0,-0.267269 -0.0643,-0.06432 -1.00476,0.06431 -1.06908,0 -0.063,-0.063 0.063,-0.204274 0,-0.267271 -0.0546,-0.05464 -0.69585,0.05298 -0.80182,0 -0.11268,-0.05635 -0.15457,-0.210924 -0.26725,-0.267269 -0.10597,-0.05299 -0.74719,0.05464 -0.80182,0 -0.063,-0.063 0.063,-0.204274 0,-0.267269 -0.0643,-0.06432 -1.00476,0.06431 -1.06908,0 -0.063,-0.063 0.063,-0.204274 0,-0.267269 -0.063,-0.063 -0.20428,0.063 -0.26728,0 -0.063,-0.063 0.063,-0.204274 0,-0.267271 -0.063,-0.063 -0.18756,0.03984 -0.26726,0 -1.11231,-0.556155 0.28573,0.01844 -0.26728,-0.534538 -0.063,-0.063 -0.20426,0.063 -0.26725,0 -0.063,-0.063 0.063,-0.204274 0,-0.267269 -0.063,-0.063 -0.20429,0.06299 -0.26729,0 -0.063,-0.063 0.063,-0.204274 0,-0.267271 -0.063,-0.063 -0.18756,0.03984 -0.26725,0 -0.2254,-0.112689 -0.30917,-0.421847 -0.53454,-0.534538 -0.0797,-0.03984 -0.20429,0.063 -0.26728,0 -0.063,-0.063 0.063,-0.204274 0,-0.267269 -0.009,-0.0086 -0.73697,0 -0.8018,0 -1.33635,0 -2.67271,0 -4.00904,0 -0.0982,0 -1.05834,0.01074 -1.06908,0 -0.063,-0.063 0.063,-0.204274 0,-0.267271 -0.13364,-0.133634 -0.66818,0.133635 -0.80182,0 -0.063,-0.063 0.063,-0.204272 0,-0.267269 -0.063,-0.063 -0.20426,0.063 -0.26725,0 -0.063,-0.063 0.063,-0.204275 0,-0.267269 -0.126,-0.125992 -0.40857,0.125992 -0.53454,0 -0.063,-0.063 0.063,-0.204274 0,-0.267272 -0.12599,-0.125992 -0.40857,0.125995 -0.53454,0 -0.063,-0.06299 0.063,-0.204271 0,-0.267269 -0.12599,-0.125991 -0.40857,0.125992 -0.53456,0 -0.063,-0.06299 0.063,-0.204271 0,-0.267268 -0.12597,-0.125992 -0.37515,0.07968 -0.53454,0 -0.11269,-0.05635 -0.15457,-0.210924 -0.26726,-0.267269 -0.10596,-0.05299 -0.74718,0.05464 -0.80182,0 -0.35634,-0.35636 0.44546,-0.267272 -0.26725,-0.267272 -0.0648,0 -0.79322,0.0086 -0.80182,0 -0.063,-0.06299 0.063,-0.204271 0,-0.267269 -0.063,-0.06299 -0.20426,0.063 -0.26726,0 -0.063,-0.06299 0.063,-0.204274 0,-0.267268 -0.12599,-0.125992 -0.40854,0.125992 -0.53453,0 -0.063,-0.063 0.063,-0.204275 0,-0.267269 -0.126,-0.125992 -0.40857,0.125992 -0.53454,0 -0.063,-0.063 0.063,-0.204274 0,-0.267272 -0.126,-0.125992 -0.40857,0.125995 -0.53454,0 -0.063,-0.06299 0.063,-0.204271 0,-0.267269 -0.063,-0.06299 -0.18759,0.03984 -0.26728,0 -0.11269,-0.05635 -0.15457,-0.210923 -0.26728,-0.267268 -0.0797,-0.03984 -0.20426,0.06299 -0.26726,0 -0.063,-0.063 0.063,-0.204275 0,-0.267269 -0.063,-0.063 -0.20428,0.06299 -0.26728,0 -0.063,-0.063 0.063,-0.204275 0,-0.267272 -0.12597,-0.125992 -0.40854,0.125992 -0.53454,0 -0.063,-0.06299 0.063,-0.204271 0,-0.267269 -0.12599,-0.125992 -0.40854,0.125992 -0.53454,0 -0.063,-0.06299 0.063,-0.204274 0,-0.267269 -0.12599,-0.125991 -0.37515,0.07969 -0.53453,0 -0.11269,-0.05635 -0.15457,-0.210923 -0.26726,-0.267268 -0.15938,-0.07969 -0.37518,0.07968 -0.53454,0 -0.11268,-0.05635 -0.15459,-0.210926 -0.26728,-0.267272 -0.0797,-0.03984 -0.20426,0.063 -0.26726,0 -0.063,-0.06299 0.063,-0.204271 0,-0.267269 -0.0828,-0.08276 -1.25359,0.08276 -1.33635,0 -0.063,-0.06299 0.063,-0.204274 0,-0.267269 -0.0828,-0.08276 -1.2536,0.08276 -1.33636,0 -0.063,-0.063 0.063,-0.204274 0,-0.267268 -0.12599,-0.125992 -0.37515,0.07968 -0.53454,0 -0.11268,-0.05635 -0.15457,-0.210926 -0.26725,-0.267272 -0.0797,-0.03984 -0.20429,0.063 -0.26729,0 -0.063,-0.063 0.063,-0.204271 0,-0.267269 -0.12599,-0.125992 -0.40854,0.125992 -0.53453,0 -0.063,-0.06299 0.063,-0.204274 0,-0.267269 -0.063,-0.063 -0.20426,0.063 -0.26726,0 -0.063,-0.063 0.063,-0.204274 0,-0.267268 -0.063,-0.063 -0.20428,0.06299 -0.26728,0 -0.063,-0.063 0.063,-0.204275 0,-0.267272 -0.063,-0.063 -0.20426,0.063 -0.26726,0 -0.063,-0.063 0,-0.178178 0,-0.267269 -0.0891,0 -0.20428,0.063 -0.26728,0 -0.063,-0.06299 0.0399,-0.187584 0,-0.267269 -0.0563,-0.112691 -0.21092,-0.15458 -0.26725,-0.267269 -0.0399,-0.07968 0.0398,-0.187586 0,-0.267271 -0.0564,-0.112689 -0.21093,-0.154578 -0.26729,-0.267269 -0.0398,-0.07968 0.0399,-0.187584 0,-0.267269 -0.11268,-0.225382 -0.42185,-0.309157 -0.53453,-0.53454 -0.0399,-0.07968 0.063,-0.204272 0,-0.267269 -0.063,-0.063 -0.20429,0.063 -0.26726,0 -0.063,-0.063 0.0398,-0.187584 0,-0.267269 -0.0564,-0.112691 -0.21093,-0.15458 -0.26728,-0.267269 -0.0399,-0.07968 0.063,-0.204274 0,-0.267271 -0.063,-0.063 -0.20429,0.063 -0.26728,0 -0.063,-0.063 0.0398,-0.187584 0,-0.267269 -0.11269,-0.22538 -0.42183,-0.309158 -0.53454,-0.534538 -0.0398,-0.07968 0.063,-0.204274 0,-0.267271 -0.063,-0.063 -0.20426,0.063 -0.26726,0 -0.063,-0.063 0.0399,-0.187584 0,-0.267269 -0.0564,-0.112691 -0.21092,-0.154578 -0.26728,-0.267269 -0.0398,-0.07968 0.063,-0.204274 0,-0.267269 -0.063,-0.063 -0.20426,0.063 -0.26725,0 -0.126,-0.125992 0.12599,-0.408548 0,-0.53454 -0.063,-0.063 -0.20429,0.063 -0.26729,0 -0.063,-0.063 0.0399,-0.187584 0,-0.267269 -0.11268,-0.225383 -0.42185,-0.309158 -0.53453,-0.53454 -0.0399,-0.07969 0.063,-0.204272 0,-0.267269 -0.063,-0.06299 -0.20426,0.063 -0.26726,0 -0.12599,-0.125992 0.12599,-0.408546 0,-0.534538 -0.063,-0.063 -0.20429,0.063 -0.26728,0 -0.126,-0.125994 0.12599,-0.408548 0,-0.53454 -0.063,-0.063 -0.20426,0.063 -0.26726,0 -0.063,-0.063 0.0399,-0.187584 0,-0.267269 -0.0564,-0.112691 -0.21092,-0.15458 -0.26728,-0.267272 -0.0399,-0.07968 0.063,-0.204271 0,-0.267268 -0.063,-0.063 -0.20426,0.063 -0.26726,0 -0.063,-0.063 0.063,-0.204272 0,-0.267269 -0.063,-0.063 -0.20428,0.063 -0.26728,0 -0.063,-0.063 0.0399,-0.187585 0,-0.267269 -0.0563,-0.112691 -0.21092,-0.15458 -0.26725,-0.267272 -0.0399,-0.07968 0.063,-0.204271 0,-0.267268 -0.063,-0.063 -0.18759,0.03984 -0.26729,0 -1.1123,-0.556155 0.28573,0.01844 -0.26725,-0.534538 -0.063,-0.063 -0.20429,0.063 -0.26728,0 -0.063,-0.063 0.063,-0.204274 0,-0.267272 -0.063,-0.06299 -0.20429,0.063 -0.26729,0 -0.063,-0.06299 0.063,-0.204271 0,-0.267268 -0.063,-0.063 -0.20425,0.063 -0.26725,0 -0.063,-0.063 0.063,-0.204275 0,-0.267269 -0.063,-0.063 -0.20429,0.06299 -0.26728,0 -0.063,-0.063 0.063,-0.204275 0,-0.267269 -0.063,-0.063 -0.18757,0.03984 -0.26726,0 -0.22537,-0.112692 -0.30916,-0.421849 -0.53454,-0.534541 -0.0797,-0.03984 -0.20428,0.063 -0.26728,0 -0.063,-0.06299 0.063,-0.204274 0,-0.267268 -0.063,-0.063 -0.20426,0.06299 -0.26725,0 -0.063,-0.063 0.063,-0.204275 0,-0.267269 -0.063,-0.063 -0.18759,0.03984 -0.26729,0 -0.22537,-0.112692 -0.30914,-0.421849 -0.53453,-0.534541 -0.0797,-0.03984 -0.18759,0.03984 -0.26726,0 -1.11231,-0.556154 0.28572,0.01844 -0.26728,-0.534537 -0.063,-0.063 -0.18759,0.03984 -0.26726,0 -0.14274,-0.07137 -0.66111,-0.661101 -0.80182,-0.801809 -0.15719,-0.157195 -1.00719,-0.945312 -1.06907,-1.069079 -0.0399,-0.07968 0.063,-0.204274 0,-0.267268 -0.063,-0.063 -0.20429,0.06299 -0.26728,0 -0.12597,-0.125992 0.12599,-0.408549 0,-0.534541 -0.063,-0.06299 -0.20426,0.063 -0.26726,0 -0.063,-0.06299 0.063,-0.204274 0,-0.267269 -0.063,-0.063 -0.20428,0.063 -0.26728,0 -0.063,-0.063 0.0398,-0.187584 0,-0.267268 -0.11269,-0.225383 -0.42183,-0.309158 -0.53454,-0.534541 -0.0399,-0.07968 0.0399,-0.187584 0,-0.267269 -0.0563,-0.112691 -0.17817,-0.178181 -0.26726,-0.267268 -0.0891,-0.08909 -0.15459,-0.210926 -0.26728,-0.267272 -0.0797,-0.03984 -0.20426,0.063 -0.26725,0 -0.063,-0.063 0.0398,-0.187584 0,-0.267269 -0.11269,-0.22538 -0.42185,-0.309157 -0.53454,-0.534538 -0.0399,-0.07968 0.063,-0.204274 0,-0.267271 -0.063,-0.06299 -0.20429,0.063 -0.26728,0 -0.063,-0.06299 0.0398,-0.187584 0,-0.267269 -0.0563,-0.112691 -0.21093,-0.154577 -0.26726,-0.267269 -0.0398,-0.07968 0.063,-0.204274 0,-0.267269 -0.063,-0.063 -0.20428,0.06299 -0.26728,0 -0.063,-0.063 0.063,-0.204274 0,-0.267271 -0.063,-0.063 -0.20426,0.063 -0.26726,0 -0.063,-0.063 0.0398,-0.187584 0,-0.267269 -0.88643,-0.88642 0.126,0.251984 -0.26728,-0.534538 -0.0564,-0.112691 -0.21092,-0.15458 -0.26725,-0.267271 -0.0399,-0.07969 0.063,-0.204273 0,-0.267269 -0.063,-0.063 -0.20429,0.063 -0.26729,0 -0.063,-0.063 0.0399,-0.187585 0,-0.267269 -0.11268,-0.225382 -0.42185,-0.309158 -0.53453,-0.534539 -0.0399,-0.07969 0.063,-0.204274 0,-0.26727 -0.063,-0.063 -0.20429,0.063 -0.26729,0 -0.063,-0.063 0.0399,-0.187585 0,-0.267269 -0.0563,-0.112691 -0.2109,-0.154579 -0.26725,-0.26727 -0.0399,-0.07968 0.063,-0.204273 0,-0.26727 -0.063,-0.063 -0.20429,0.063 -0.26728,0 -0.063,-0.063 0.0398,-0.187585 0,-0.267269 -0.0563,-0.112691 -0.21093,-0.154579 -0.26726,-0.26727 -0.0399,-0.07968 0.063,-0.204273 0,-0.267269 -0.063,-0.063 -0.18759,0.03984 -0.26728,0 -1.11231,-0.556156 0.28572,0.01845 -0.26726,-0.534539 -0.063,-0.063 -0.20428,0.063 -0.26728,0 -0.12599,-0.125992 0.126,-0.408547 0,-0.534539 -0.063,-0.063 -0.20426,0.063 -0.26725,0 -0.063,-0.063 0.0398,-0.187585 0,-0.26727 -0.0564,-0.112691 -0.21093,-0.154579 -0.26729,-0.267269 -0.0398,-0.07969 0.0399,-0.187586 0,-0.26727 -0.0563,-0.112691 -0.21092,-0.154579 -0.26725,-0.267269 -0.0399,-0.07969 0.0398,-0.187586 0,-0.26727 -0.0564,-0.112691 -0.21093,-0.154579 -0.26728,-0.267269 -0.0399,-0.07968 0.063,-0.204274 0,-0.26727 -0.063,-0.063 -0.20426,0.063 -0.26726,0 -0.063,-0.063 0.0399,-0.187585 0,-0.267269 -0.88643,-0.886422 0.12599,0.251984 -0.26728,-0.53454 -0.11269,-0.225381 -0.42185,-0.309157 -0.53454,-0.534539 -0.0797,-0.159368 0.12599,-0.408547 0,-0.534539 -0.063,-0.063 -0.18759,0.03984 -0.26726,0 -1.11233,-0.556155 0.2857,0.01845 -0.26728,-0.534539 -0.063,-0.063 -0.20428,0.063 -0.26725,0 -0.063,-0.063 0.0398,-0.187585 0,-0.267269 -0.88644,-0.886422 0.12597,0.251984 -0.26729,-0.534539 -0.0564,-0.112691 -0.21092,-0.154579 -0.26728,-0.26727 -0.0398,-0.07968 0.0399,-0.187585 0,-0.267269 -0.8864,-0.886422 0.126,0.251984 -0.26725,-0.534539 -0.0564,-0.112691 -0.21093,-0.154579 -0.26728,-0.26727 -0.0398,-0.07968 0.0398,-0.187585 0,-0.267269 -0.2847,-0.569387 -0.24985,0.03485 -0.53454,-0.534539 -0.10689,-0.213816 0.10692,-0.587993 0,-0.801809 -0.0563,-0.112691 -0.21093,-0.154579 -0.26726,-0.267269 -0.053,-0.105971 0.0546,-0.747169 0,-0.801809 -0.063,-0.063 -0.20428,0.063 -0.26728,0 -0.12599,-0.125992 0.12599,-0.408547 0,-0.534539 -0.063,-0.063 -0.20426,0.063 -0.26726,0 -0.12599,-0.125992 0.126,-0.408547 0,-0.534539 -0.063,-0.063 -0.20428,0.063 -0.26728,0 -0.12599,-0.125992 0.126,-0.408547 0,-0.534539 -0.063,-0.063 -0.20426,0.063 -0.26725,0 -0.063,-0.063 0.063,-0.204274 0,-0.26727 -0.063,-0.063 -0.20429,0.063 -0.26729,0 -0.063,-0.063 0.0399,-0.187585 0,-0.267269 -0.0257,-0.05116 -1.0179,-1.043498 -1.06907,-1.069078 -0.0797,-0.03984 -0.20426,0.063 -0.26726,0 -0.063,-0.063 0.063,-0.204274 0,-0.26727 -0.063,-0.062996 -0.17819,0 -0.26728,0 -0.0891,0 -0.17817,0 -0.26725,0 -0.44546,0 -0.89091,0 -1.33636,0 -0.0891,0 -0.17817,0 -0.26728,0 -0.0891,0 -0.18757,0.03984 -0.26726,0 -0.11269,-0.056345 -0.15457,-0.2109241 -0.26728,-0.2672695 -0.0797,-0.039842 -0.17817,0 -0.26726,0 -0.0891,0 -0.17819,0 -0.26728,0 -0.0648,0 -0.79319,0.0086 -0.80179,0 -0.063,-0.062996 0.063,-0.2042734 0,-0.2672694 -0.0731,-0.073131 -0.92409,0.072495 -1.06908,0 -0.11271,-0.056345 -0.15459,-0.2109242 -0.26728,-0.2672696 -0.0797,-0.039842 -0.17817,0 -0.26726,0 -0.0891,0 -0.17819,0 -0.26728,0 -0.12602,0 -1.32424,0.012113 -1.33636,0 -0.063,-0.062996 0.063,-0.2042734 0,-0.2672694 -0.0731,-0.073131 -0.92408,0.072495 -1.06907,0 -0.11269,-0.056345 -0.15457,-0.2109243 -0.26726,-0.2672697 -0.10596,-0.052985 -0.74718,0.05464 -0.80182,0 -0.063,-0.062996 0.063,-0.2042734 0,-0.2672693 -0.064,-0.06399 -1.06907,0.060757 -1.06907,0 0,-0.08909 0.26727,-0.08909 0.26727,0 0,0.5561557 -0.37481,0.1075409 -0.53454,0.2672693 -0.063,0.062996 0,0.1781797 0,0.2672697 0,0.534539 0,1.0690779 0,1.6036169 0,0.08909 -0.0398,0.187585 0,0.26727 0.0564,0.11269 0.21093,0.154578 0.26727,0.267269 0.0797,0.159369 -0.12599,0.408547 0,0.534539 0.063,0.063 0.20428,-0.063 0.26727,0 0.12599,0.125992 -0.0797,0.375171 0,0.534539 0.0563,0.112691 0.21093,0.154579 0.26727,0.26727 0.0398,0.07968 -0.063,0.204273 0,0.267269 0.063,0.063 0.20427,-0.063 0.26727,0 0.063,0.063 -0.0398,0.187586 0,0.26727 0.0564,0.112691 0.21092,0.154579 0.26726,0.26727 0.0797,0.159368 -0.12598,0.408546 0,0.534539 0.063,0.063 0.20429,-0.063 0.26729,0 0.12599,0.125992 -0.0797,0.37517 0,0.534539 0.0563,0.11269 0.21092,0.154578 0.26725,0.267269 0.0797,0.159369 -0.12599,0.408547 0,0.534539 0.063,0.063 0.20429,-0.063 0.26728,0 0.13364,0.133635 -0.13364,0.668174 0,0.801809 0.063,0.063 0.20426,-0.063 0.26726,0 0.12599,0.125992 -0.0797,0.37517 0,0.534539 0.0564,0.11269 0.21092,0.154579 0.26728,0.267269 0.10689,0.213816 -0.10692,0.587993 0,0.801809 0.0563,0.112691 0.21093,0.154579 0.26726,0.267269 0.10691,0.213816 -0.10689,0.587993 0,0.801809 0.0564,0.112691 0.21092,0.154579 0.26728,0.267269 0.0725,0.144991 -0.0731,0.995948 0,1.069078 0.063,0.063 0.20426,-0.063 0.26725,0 0.126,0.125993 -0.0797,0.375171 0,0.53454 0.0564,0.11269 0.21093,0.154578 0.26729,0.267269 0.0398,0.07968 -0.063,0.204274 0,0.26727 0.063,0.063 0.20428,-0.063 0.26725,0 0.063,0.063 -0.0398,0.187585 0,0.267269 0.16037,0.320724 0.64146,0.481085 0.80182,0.801809 0.0797,0.159368 -0.12599,0.408547 0,0.534539 0.063,0.063 0.20429,-0.063 0.26728,0 0.13362,0.133635 -0.13364,0.668174 0,0.801808 0.063,0.063 0.20426,-0.063 0.26726,0 0.0109,0.01076 0,0.970927 0,1.069078 0,0.979989 0,1.959977 0,2.939965 0,0.08909 0,0.178181 0,0.267269 0,0.08909 -0.063,0.204274 0,0.267271 0.063,0.06299 0.20428,-0.063 0.26728,0 0.0109,0.01074 0,0.970926 0,1.069078 0,0.09815 -0.0109,1.058323 0,1.069079 0.063,0.06299 0.20426,-0.063 0.26726,0 0.13364,0.133633 -0.13364,0.668173 0,0.801806 0.063,0.063 0.20428,-0.063 0.26728,0 0.13361,0.133636 -0.13364,0.668174 0,0.801809 0.063,0.063 0.20426,-0.06299 0.26726,0 0.0546,0.05464 -0.053,0.695839 0,0.801809 0.0563,0.112692 0.21092,0.154578 0.26728,0.267269 0.10689,0.213815 -0.10692,0.587994 0,0.80181 0.0563,0.112691 0.21092,0.154577 0.26725,0.267268 0.10692,0.213815 -0.10689,0.587995 0,0.80181 0.0564,0.112691 0.21093,0.154577 0.26728,0.267268 0.053,0.105971 -0.0546,0.747171 0,0.80181 0.063,0.06299 0.20426,-0.063 0.26726,0 0.126,0.125992 -0.12599,0.408545 0,0.534537 0.063,0.063 0.20429,-0.06299 0.26728,0 0.126,0.125992 -0.12599,0.408549 0,0.534541 0.063,0.06299 0.20426,-0.063 0.26726,0 0.063,0.06299 -0.0399,0.187584 0,0.267269 0.88643,0.886422 -0.126,-0.251984 0.26728,0.53454 0.0563,0.112689 0.21093,0.154577 0.26726,0.267269 0.0398,0.07968 -0.063,0.204274 0,0.267269 0.063,0.063 0.20428,-0.063 0.26728,0 0.063,0.063 -0.0399,0.187587 0,0.267268 0.0564,0.112692 0.21092,0.154581 0.26725,0.267272 0.0797,0.159369 -0.0797,0.375169 0,0.534538 0.0564,0.112691 0.21093,0.15458 0.26729,0.267268 0.0398,0.07968 -0.063,0.204275 0,0.267272 0.063,0.063 0.20428,-0.063 0.26725,0 0.063,0.063 -0.0398,0.187584 0,0.267269 0.0564,0.112691 0.21093,0.154577 0.26728,0.267269 0.0399,0.07968 -0.0398,0.187587 0,0.267271 0.0564,0.112689 0.21093,0.154578 0.26729,0.267269 0.0398,0.07969 -0.0399,0.187584 0,0.267269 0.55615,1.112311 -0.0185,-0.285721 0.53453,0.267269 0.12597,0.125992 -0.12599,0.408548 0,0.53454 0.063,0.063 0.20426,-0.063 0.26726,0 0.063,0.063 0,0.178178 0,0.267269 0.0891,0 0.20428,-0.063 0.26728,0 0.063,0.063 -0.063,0.204274 0,0.267269 0.063,0.063 0.20426,-0.063 0.26726,0 0.063,0.063 -0.063,0.204274 0,0.267271 0.063,0.063 0.20428,-0.063 0.26728,0 0.063,0.063 -0.063,0.204272 0,0.267269 0.063,0.063 0.20426,-0.063 0.26725,0 0.063,0.063 -0.063,0.204274 0,0.267269 0.063,0.063 0.20429,-0.063 0.26729,0 0.063,0.063 -0.063,0.204274 0,0.267269 0.063,0.063 0.17817,0 0.26725,0 0,0.08909 -0.063,0.204274 0,0.267271 0.063,0.063 0.20429,-0.063 0.26728,0 0.063,0.063 -0.063,0.204272 0,0.267269 0.126,0.125992 0.40855,-0.125992 0.53454,0 0.063,0.063 -0.063,0.204274 0,0.267269 0.126,0.125992 0.40854,-0.125992 0.53454,0 0.063,0.063 -0.063,0.204274 0,0.267269 0.063,0.063 0.17817,0 0.26726,0 0,0.08909 -0.063,0.204274 0,0.267271 0.13364,0.133633 0.66817,-0.133635 0.80181,0 0.063,0.06299 -0.063,0.204272 0,0.267269 0.063,0.063 0.18759,-0.03984 0.26729,0 0.11268,0.05635 0.15457,0.210923 0.26725,0.267269 0.15936,0.07968 0.37518,-0.07968 0.53454,0 0.11269,0.05635 0.15457,0.210923 0.26728,0.267269 0.0797,0.03984 0.18757,-0.03984 0.26726,0 0.11268,0.05635 0.15457,0.210926 0.26728,0.267271 0.15936,0.07968 0.40854,-0.125992 0.53454,0 0.063,0.063 -0.063,0.204272 0,0.267269 0.063,0.063 0.20426,-0.063 0.26725,0 0.063,0.063 -0.063,0.204274 0,0.267269 0.063,0.063 0.18759,-0.03984 0.26729,0 0.11268,0.05635 0.15456,0.210923 0.26725,0.267269 0.0797,0.03984 0.20429,-0.063 0.26728,0 0.063,0.063 -0.063,0.204274 0,0.267271 0.126,0.125992 0.40855,-0.125991 0.53454,0 0.063,0.063 -0.063,0.204272 0,0.267269 0.063,0.063 0.18759,-0.03984 0.26726,0 0.11271,0.05635 0.15459,0.210924 0.26728,0.267269 0.0797,0.03984 0.18759,-0.03984 0.26725,0 0.11272,0.05635 0.1546,0.210926 0.26729,0.267269 0.0797,0.03984 0.20428,-0.063 0.26728,0 0.063,0.063 -0.063,0.204274 0,0.267272 0.12597,0.125991 0.40854,-0.125992 0.53454,0 0.063,0.06299 -0.0399,0.187584 0,0.267268 0.0257,0.05116 1.0179,1.043499 1.06907,1.069078 0.0797,0.03984 0.20426,-0.063 0.26726,0 0.063,0.063 -0.063,0.204275 0,0.267269 0.12599,0.125992 0.40854,-0.125992 0.53453,0 0.063,0.063 -0.063,0.204274 0,0.267269 0.126,0.125992 0.37518,-0.07968 0.53454,0 0.11269,0.05635 0.1546,0.210926 0.26728,0.267272 0.0797,0.03984 0.17817,0 0.26726,0 0.44545,0 0.89091,0 1.33636,0 0.0891,0 0.17817,0 0.26725,0 0.0891,0 0.18759,-0.03984 0.26729,0 0.11268,0.05635 0.15456,0.210923 0.26728,0.267268 0.10596,0.05299 0.74715,-0.05464 0.80179,0 0.063,0.063 -0.063,0.204275 0,0.267269 0.126,0.125992 0.37518,-0.07968 0.53454,0 0.11268,0.05635 0.15459,0.210926 0.26728,0.267269 0.0797,0.03984 0.20426,-0.06299 0.26726,0 0.063,0.063 -0.063,0.204274 0,0.267272 0.063,0.06299 0.20428,-0.063 0.26728,0 0.063,0.06299 -0.063,0.204271 0,0.267269 0.063,0.06299 0.20426,-0.063 0.26725,0 0.063,0.06299 -0.063,0.204274 0,0.267268 0.063,0.063 0.20429,-0.06299 0.26729,0 0.12599,0.125992 -0.126,0.408549 0,0.534541 0.063,0.06299 0.17817,0 0.26725,0 0,0.08909 -0.0398,0.187584 0,0.267269 0.42704,0.85408 0.1075,-0.319543 0.53454,0.534537 0.0399,0.07969 -0.0398,0.187587 0,0.267272 0.0564,0.112691 0.35637,0.178178 0.26728,0.267269 -0.0891,0.08909 -0.26728,-0.393261 -0.26728,-0.267269 0,0.19921 0.20428,0.345551 0.26728,0.534537 0.0563,0.169037 -0.12599,0.408549 0,0.534541 0.063,0.06299 0.17817,0 0.26726,0 0.0982,0 1.05833,0.01074 1.0691,0 0.063,-0.063 -0.063,-0.204274 0,-0.267272 0.063,-0.06299 0.20426,0.063 0.26725,0 0.063,-0.06299 -0.063,-0.204271 0,-0.267269 0.063,-0.06299 0.20429,0.063 0.26729,0 0.063,-0.06299 -0.063,-0.204271 0,-0.267268 0.063,-0.063 0.20425,0.063 0.26725,0 0.063,-0.063 -0.063,-0.204275 0,-0.267269 0.063,-0.063 0.20429,0.06299 0.26728,0 0.126,-0.125992 -0.12599,-0.408549 0,-0.534541 0.063,-0.06299 0.20426,0.063 0.26726,0 0.063,-0.06299 -0.063,-0.204274 0,-0.267268 0.063,-0.063 0.20428,0.06299 0.26728,0 0.063,-0.063 -0.063,-0.204275 0,-0.267269 0.063,-0.063 0.20426,0.06299 0.26726,0 0.063,-0.063 -0.063,-0.204274 0,-0.267272 0.063,-0.06299 0.18759,0.03984 0.26728,0 0.11269,-0.05634 0.15457,-0.210923 0.26726,-0.267269 0.15938,-0.07968 0.40854,0.125992 0.53453,0 0.063,-0.06299 -0.063,-0.204274 0,-0.267268 0.13364,-0.133636 0.66818,0.133635 0.80182,0 0.063,-0.063 -0.063,-0.204275 0,-0.267269 0.063,-0.063 0.17817,0 0.26726,0 0.18589,0 1.2397,-0.04833 1.33636,0 0.11268,0.05635 0.15457,0.210923 0.26728,0.267269 0.14499,0.0725 0.99594,-0.07313 1.06907,0 0.063,0.06299 -0.063,0.204274 0,0.267268 0.063,0.063 0.18757,-0.03984 0.26726,0 0.11268,0.05635 0.15459,0.210926 0.26728,0.267269 0.0797,0.03984 0.20426,-0.06299 0.26726,0 0.063,0.063 -0.063,0.204274 0,0.267272 0.12599,0.125992 0.40854,-0.125992 0.53453,0 0.063,0.06299 -0.0398,0.187584 0,0.267269 0.0564,0.112691 0.21093,0.154577 0.26729,0.267268 0.0398,0.07969 -0.063,0.204275 0,0.267269 0.063,0.063 0.20425,-0.06299 0.26725,0 0.063,0.063 -0.0398,0.187587 0,0.267272 0.0564,0.112691 0.21093,0.154577 0.26728,0.267269 0.0399,0.07968 -0.063,0.204274 0,0.267268 0.063,0.063 0.20426,-0.06299 0.26726,0 0.12599,0.125992 -0.12599,0.408549 0,0.534541 0.063,0.06299 0.20428,-0.063 0.26728,0 0.063,0.06299 -0.063,0.204271 0,0.267269 0.063,0.063 0.20426,-0.063 0.26726,0 0.063,0.063 -0.063,0.204274 0,0.267269 0.063,0.063 0.20428,-0.063 0.26728,0 0,0.712718 -0.0891,-0.08909 0.26726,0.267271 0.063,0.063 -0.063,0.204272 0,0.267269 0.063,0.063 0.17819,0 0.26728,0 0.71271,0 1.42544,0 2.13815,0 0.80182,0 1.60361,0 2.40543,0 0.0891,0 0.17817,0 0.26726,0 0.0891,0 0.20428,-0.063 0.26728,0 0.063,0.063 -0.063,0.204274 0,0.267269 0.12599,0.125992 0.37518,-0.07969 0.53454,0 0.11268,0.05634 0.15457,0.210923 0.26728,0.267269 0.0797,0.03984 0.18756,-0.03984 0.26725,0 0.11269,0.05635 0.15457,0.210925 0.26729,0.267271 0.0797,0.03984 0.20425,-0.063 0.26725,0 0.063,0.06299 -0.063,0.204272 0,0.267269 0.063,0.063 0.20429,-0.063 0.26728,0 0.063,0.063 -0.063,0.204274 0,0.267269 0.063,0.063 0.20426,-0.063 0.26726,0 0.12599,0.125992 -0.126,0.408548 0,0.53454 0.063,0.063 0.20428,-0.063 0.26728,0 0.0267,0.02673 0.0267,0.775081 0,0.801807 -0.063,0.063 -0.20428,-0.063 -0.26728,0 -0.13364,0.133635 0.13364,0.668173 0,0.801809 -0.063,0.063 -0.20426,-0.063 -0.26726,0 -0.063,0.063 0,0.178181 0,0.267269 0,0.08909 0,0.178181 0,0.267271 0,0.445447 0,0.890897 0,1.336347 0,0.08909 -0.063,0.204274 0,0.267269 0.063,0.063 0.20426,-0.063 0.26726,0 0.063,0.063 -0.063,0.204274 0,0.267269 0.063,0.063 0.20428,-0.06299 0.26728,0 0.063,0.063 -0.063,0.204274 0,0.267271 0.063,0.063 0.20426,-0.063 0.26726,0 0.12599,0.125992 -0.126,0.408546 0,0.534538 0.553,0.55299 -0.0217,-0.845042 0.53453,0.267269 0.0399,0.07968 -0.0398,0.187587 0,0.267271 0.11269,0.22538 0.42186,0.309158 0.53454,0.534538 0.0399,0.07968 -0.063,0.204274 0,0.267269 0.063,0.063 0.20429,-0.063 0.26728,0 0.063,0.063 -0.0398,0.187587 0,0.267271 0.16037,0.320723 0.64146,0.481084 0.8018,0.801807 0.0398,0.07968 -0.063,0.204274 0,0.267271 0.063,0.063 0.20428,-0.063 0.26728,0 0.063,0.063 -0.063,0.204272 0,0.267269 0.063,0.063 0.20428,-0.063 0.26728,0 0.063,0.063 -0.063,0.204275 0,0.267269 0.063,0.063 0.20426,-0.06299 0.26726,0 0.063,0.063 -0.063,0.204274 0,0.267269 0.063,0.063 0.20428,-0.063 0.26728,0 0.55298,0.552992 -0.84505,-0.02162 0.26726,0.53454 0.7127,0 -0.0891,-0.08909 0.26728,0.267269 0.063,0.063 0.20426,-0.06299 0.26725,0 0.126,0.125992 -0.12599,0.408549 0,0.534541 0.063,0.06299 0.20429,-0.063 0.26729,0 0.063,0.06299 -0.0399,0.187584 0,0.267268 0.0563,0.112692 0.21092,0.154578 0.26725,0.267269 0.0407,0.08134 0,0.681443 0,0.801809 0,0.534538 0,1.069079 0,1.603619 0,0.08909 0,0.178178 0,0.267269 0,0.08909 -0.063,0.204274 0,0.267269 0.063,0.063 0.20429,-0.063 0.26728,0 0.063,0.063 -0.063,0.204274 0,0.267268 0.126,0.125992 0.40855,-0.125992 0.53454,0 0.063,0.063 -0.063,0.204275 0,0.267272 0.13364,0.133633 0.66818,-0.133636 0.80179,0 0.063,0.063 -0.063,0.204271 0,0.267269 0.009,0.0086 0.737,0 0.80182,0 0.0982,0 1.05834,-0.01074 1.06908,0 0.063,0.06299 -0.063,0.204274 0,0.267269 0.063,0.063 0.17817,0 0.26728,0 0.0891,0 0.17817,0 0.26726,0 0.44545,0 0.8909,0 1.33635,0 0.0891,0 0.20426,-0.06299 0.26726,0 0.063,0.063 -0.063,0.204274 0,0.267268 0.12599,0.125992 0.40854,-0.125991 0.53454,0 0.063,0.063 -0.063,0.204275 0,0.267272 0.063,0.063 0.20428,-0.063 0.26728,0 0.063,0.063 -0.063,0.204272 0,0.267269 0.12599,0.125992 0.40854,-0.125992 0.53454,0 0.063,0.06299 -0.063,0.204274 0,0.267269 0.12599,0.125992 0.37518,-0.07968 0.53454,0 0.11268,0.05635 0.15456,0.210923 0.26725,0.267268 0.0797,0.03984 0.20429,-0.06299 0.26728,0 0.063,0.063 -0.063,0.204275 0,0.267272 0.063,0.063 0.20429,-0.063 0.26726,0 0.12599,0.125992 -0.12597,0.408546 0,0.534538 0.063,0.063 0.20428,-0.063 0.26728,0 0.063,0.063 0,0.178181 0,0.267269 0,0.634597 0.0217,0.18084 -0.26728,1.336349 z"
       id="path3887"
       inkscape:connector-curvature="0" />
    <path
       style="fill:none;stroke:#000000;stroke-width:0.26458332px;stroke-linecap:butt;stroke-linejoin:miter;stroke-opacity:1"
       d="m 77.240894,156.23173 c -1.247259,0.71271 -2.50996,1.39906 -3.741775,2.13815 -0.216074,0.12964 -0.309158,0.42185 -0.53454,0.53454 -0.07968,0.0398 -0.204272,-0.063 -0.267269,0 -0.063,0.063 0.063,0.20427 0,0.26727 -0.063,0.063 -0.204272,-0.063 -0.267269,0 -0.063,0.063 0.063,0.20427 0,0.26727 -0.063,0.063 -0.204274,-0.063 -0.267269,0 -0.063,0.063 0.03984,0.18758 0,0.26727 -0.05635,0.11269 -0.210926,0.15458 -0.267271,0.26727 -0.106908,0.21381 0.10691,0.58799 0,0.80181 -0.05634,0.11269 -0.267269,0.14127 -0.267269,0.26727 0,0.12599 0.210926,0.15458 0.267269,0.26727 0.03984,0.0797 0,0.17818 0,0.26727 0,0.0891 0,0.17817 0,0.26726 0,0.53455 0,1.06908 0,1.60362 0,0.44545 0,0.8909 0,1.33635 0,0.0891 -0.063,0.20427 0,0.26727 0.063,0.063 0.204274,-0.063 0.267271,0 0.07313,0.0731 -0.0725,0.92409 0,1.06908 0.05635,0.11269 0.210923,0.15458 0.267269,0.26727 0.03514,0.0703 0,0.92931 0,1.06907 0,0.0891 0.063,0.20428 0,0.26728 -0.063,0.063 -0.204274,-0.063 -0.267269,0 -0.133635,0.13363 0.133633,0.66817 0,0.8018 -0.063,0.063 -0.204274,-0.063 -0.267271,0 -0.125992,0.12599 0.125994,0.40855 0,0.53454 -0.063,0.063 -0.204272,-0.063 -0.267269,0 -0.133633,0.13364 0.133636,0.66818 0,0.80181 -0.063,0.063 -0.204274,-0.063 -0.267269,0 -0.133636,0.13363 0.133636,0.66817 0,0.80181 -0.063,0.063 -0.204274,-0.063 -0.267269,0 -0.063,0.063 0,0.17818 0,0.26727 0,0.44545 0,0.8909 0,1.33635 0,0.0648 -0.0086,0.79321 0,0.80181 0.063,0.063 0.204272,-0.063 0.267269,0 0.063,0.063 -0.063,0.20427 0,0.26726 0.063,0.063 0.204274,-0.063 0.267269,0 0.063,0.063 -0.063,0.20428 0,0.26727 0.063,0.063 0.204274,-0.063 0.267269,0 0.063,0.063 -0.063,0.20428 0,0.26727 0.063,0.063 0.204274,-0.063 0.267271,0 0.063,0.063 -0.063,0.20428 0,0.26727 0.125992,0.126 0.408546,-0.12599 0.534538,0 0.063,0.063 -0.063,0.20428 0,0.26727 0.063,0.063 0.187587,-0.0398 0.267269,0 0.112691,0.0564 0.15458,0.21093 0.267271,0.26727 0.07969,0.0398 0.204272,-0.063 0.267269,0 0.063,0.063 -0.063,0.20428 0,0.26727 0.125992,0.12599 0.408546,-0.12599 0.534541,0 0.06299,0.063 -0.063,0.20427 0,0.26727 0.125991,0.12599 0.408545,-0.12599 0.534537,0 0.063,0.063 -0.063,0.20428 0,0.26727 0.125992,0.12599 0.408546,-0.12599 0.534541,0 0.06299,0.063 -0.063,0.20427 0,0.26727 0.06299,0.063 0.204271,-0.063 0.267268,0 0.063,0.063 -0.063,0.20427 0,0.26727 0.178245,0.17825 0.356294,-0.17825 0.534538,0 0.063,0.063 -0.063,0.20427 0,0.26727 0.125992,0.12599 0.408549,-0.12599 0.53454,0 0.063,0.063 -0.063,0.20427 0,0.26727 0.063,0.063 0.178179,0 0.267269,0 0.08909,0 0.178181,0 0.267269,0 0.801809,0 1.603619,0 2.405428,0 0.534537,0 1.069078,0 1.603616,0 0.08909,0 0.178181,0 0.267268,0 0.08909,0 0.187587,0.0398 0.267272,0 0.112689,-0.0563 0.154577,-0.21092 0.267269,-0.26727 0.0691,-0.0345 1.414176,0 1.603615,0 0.08909,0 0.178181,0 0.267272,0 0.08909,0 0.204272,0.063 0.267269,0 0.06299,-0.063 -0.063,-0.20427 0,-0.26727 0.06299,-0.063 0.178178,0 0.267269,0 0.185896,0 1.239694,0.0483 1.336347,0 0.112691,-0.0563 0.15458,-0.21092 0.267271,-0.26727 0.144989,-0.0725 0.995947,0.0731 1.069078,0 0.063,-0.063 -0.063,-0.20427 0,-0.26727 0.125992,-0.12599 0.408546,0.12599 0.534538,0 0.063,-0.063 -0.063,-0.20427 0,-0.26727 0.125992,-0.12599 0.375171,0.0797 0.53454,0 0.112691,-0.0563 0.154578,-0.21092 0.267269,-0.26727 0.07968,-0.0398 0.178178,0 0.267269,0 0.08909,-0.0891 0.15458,-0.21092 0.267271,-0.26727 0.07968,-0.0398 0.204272,0.063 0.267269,0 0.063,-0.063 -0.063,-0.20427 0,-0.26727 0.125992,-0.12599 0.375169,0.0797 0.534538,0 0.112691,-0.0563 0.15458,-0.21092 0.267271,-0.26727 0.159367,-0.0797 0.408546,0.126 0.534538,0 0.063,-0.063 -0.063,-0.20427 0,-0.26727 0.125992,-0.12599 0.375171,0.0797 0.53454,0 0.112689,-0.0563 0.154578,-0.21092 0.267269,-0.26727 0.159369,-0.0797 0.408546,0.126 0.534538,0 0.063,-0.063 -0.063,-0.20427 0,-0.26727 0.125992,-0.12599 0.408548,0.126 0.53454,0 0.063,-0.063 -0.063,-0.20427 0,-0.26726 0.063,-0.063 0.187585,0.0398 0.267269,0 0.112692,-0.0563 0.15458,-0.21093 0.267269,-0.26727 0.07968,-0.0399 0.204274,0.063 0.267272,0 0.06299,-0.063 -0.063,-0.20428 0,-0.26727 0.712718,0 -0.08909,0.0891 0.267268,-0.26727 0.063,-0.063 0.204275,0.063 0.267269,0 0.133636,-0.13364 -0.133635,-0.66818 0,-0.80181 0.063,-0.063 0.204274,0.063 0.267269,0 0.02673,-0.0267 0.02673,-0.77508 0,-0.80181 -0.06299,-0.063 -0.204271,0.063 -0.267269,0 -0.07313,-0.0731 0.0725,-0.92409 0,-1.06908 -0.05634,-0.11269 -0.210923,-0.15458 -0.267269,-0.26727 -0.03984,-0.0797 0.063,-0.20427 0,-0.26727 -0.063,-0.063 -0.204274,0.063 -0.267268,0 -0.125992,-0.12599 0.125991,-0.40855 0,-0.53454 -0.063,-0.063 -0.204275,0.063 -0.267272,0 -0.125992,-0.12599 0.125992,-0.40854 0,-0.53454 -0.063,-0.063 -0.204271,0.063 -0.267269,0 -0.0086,-0.009 0,-0.73698 0,-0.80181 0,-0.0891 0,-0.35635 0,-0.26726 0,0.17817 -0.125992,0.66053 0,0.53453 0.295442,-0.29544 0.267269,-0.70693 0.267269,-1.06907 0,-0.0891 -0.063,-0.20428 0,-0.26727 0.063,-0.063 0.204274,0.063 0.267272,0 0.125991,-0.126 -0.125992,-0.40855 0,-0.53454 0.06299,-0.063 0.204271,0.063 0.267268,0 0.063,-0.063 -0.063,-0.20428 0,-0.26727 0.063,-0.063 0.204275,0.063 0.267269,0 0.125992,-0.12599 -0.125992,-0.40855 0,-0.53454 0.063,-0.063 0.204274,0.063 0.267269,0 0.125992,-0.12599 -0.07968,-0.37517 0,-0.53454 0.05635,-0.11269 0.210926,-0.15458 0.267272,-0.26727 0.04067,-0.0813 0,-0.68144 0,-0.80181 0,-0.0891 0,-0.17818 0,-0.26727 0,-0.0891 0.06299,-0.20427 0,-0.26727 -0.063,-0.063 -0.204275,0.063 -0.267272,0 -0.125992,-0.12599 0.125992,-0.40854 0,-0.53454 -0.06299,-0.063 -0.204271,0.063 -0.267269,0 -0.06299,-0.063 0.063,-0.20427 0,-0.26727 -0.06299,-0.063 -0.187584,0.0399 -0.267269,0 -0.112691,-0.0563 -0.15458,-0.21092 -0.267268,-0.26726 -0.07968,-0.0399 -0.204275,0.063 -0.267272,0 -0.063,-0.063 0.063,-0.20428 0,-0.26727 -0.125992,-0.12599 -0.375169,0.0797 -0.534538,0 -0.112691,-0.0564 -0.15458,-0.21093 -0.267268,-0.26727 -0.15937,-0.0797 -0.408549,0.12599 -0.534541,0 -0.06299,-0.063 0.063,-0.20428 0,-0.26727 -0.06299,-0.063 -0.204274,0.063 -0.267269,0 -0.063,-0.063 0.063,-0.20428 0,-0.26727 -0.125992,-0.12599 -0.408548,0.12599 -0.53454,0 -0.02673,-0.0267 -0.02673,-0.77508 0,-0.80181 0.063,-0.063 0.204274,0.063 0.267271,0 0.063,-0.063 -0.03984,-0.18759 0,-0.26727 0.556155,-1.11231 -0.01844,0.28572 0.534538,-0.26727 0.063,-0.063 -0.06299,-0.20427 0,-0.26727 0.125992,-0.12599 0.408549,0.12599 0.534541,0 0.06299,-0.063 -0.063,-0.20427 0,-0.26727 0.06299,-0.063 0.187584,0.0398 0.267268,0 0.112692,-0.0563 0.154578,-0.21092 0.267269,-0.26727 0.159369,-0.0797 0.375171,0.0797 0.534541,0 0.112688,-0.0563 0.154577,-0.21092 0.267268,-0.26727 0.05483,-0.0274 0.764117,-0.0377 0.80181,0 0.06299,0.063 -0.063,0.20427 0,0.26727 0.125992,0.12599 0.375168,-0.0797 0.534537,0 0.112692,0.0564 0.15458,0.21092 0.267269,0.26727 0.07968,0.0398 0.204274,-0.063 0.267272,0 0.06299,0.063 -0.063,0.20427 0,0.26727 0.06299,0.063 0.187584,-0.0398 0.267269,0 0.22538,0.11269 0.309157,0.42185 0.534537,0.53454 0.07968,0.0398 0.204274,-0.063 0.267272,0 0.06299,0.063 -0.063,0.20427 0,0.26727 0.133633,0.13363 0.668173,-0.13364 0.801806,0 0.063,0.063 -0.06299,0.20427 0,0.26727 0.063,0.063 0.178181,0 0.267272,0 0.06482,0 0.793213,0.009 0.801806,0 0.063,-0.063 -0.06299,-0.20427 0,-0.26727 0.125992,-0.12599 0.408549,0.12599 0.534541,0 0.06299,-0.063 -0.063,-0.20428 0,-0.26727 0.06299,-0.063 0.204274,0.063 0.267269,0 0.063,-0.063 -0.063,-0.20427 0,-0.26727 0.063,-0.063 0.187586,0.0398 0.267268,0 0.225383,-0.11269 0.309158,-0.42185 0.534541,-0.53454 0.07968,-0.0398 0.204274,0.063 0.267269,0 0.063,-0.063 -0.063,-0.20427 0,-0.26727 0.063,-0.063 0.204278,0.063 0.267268,0 0.063,-0.063 -0.063,-0.20427 0,-0.26727 0.063,-0.063 0.20427,0.063 0.26727,0 0.063,-0.063 -0.063,-0.20427 0,-0.26727 0.12599,-0.12599 0.40855,0.12599 0.53454,0 0.063,-0.063 -0.063,-0.20427 0,-0.26727 0.063,-0.063 0.17818,0 0.26727,0 0.0891,0 0.17818,0 0.26727,0 0.0891,0 0.26727,-0.0891 0.26727,0 0,0.37863 -1.24726,-0.75726 0.26727,0 0.0797,0.0398 -0.063,0.20428 0,0.26727 0.063,0.063 0.20427,-0.063 0.26727,0 0.063,0.063 -0.063,0.20428 0,0.26727 0.063,0.063 0.20427,-0.063 0.26727,0 0.063,0.063 -0.063,0.20427 0,0.26727 0.063,0.063 0.20427,-0.063 0.26727,0 0.063,0.063 -0.063,0.20427 0,0.26727 0.063,0.063 0.20427,-0.063 0.26727,0 0.063,0.063 -0.063,0.20427 0,0.26727 0.063,0.063 0.20427,-0.063 0.26727,0 0.12599,0.12599 -0.0797,0.37517 0,0.53454 0.55615,1.11231 -0.0184,-0.28572 0.53453,0.26727 0.063,0.063 -0.063,0.20427 0,0.26727 0.063,0.063 0.20428,-0.063 0.26727,0 0.063,0.063 -0.063,0.20427 0,0.26727 0.063,0.063 0.20428,-0.063 0.26728,0 0.063,0.063 -0.063,0.20427 0,0.26727 0.12599,0.12599 0.40854,-0.12599 0.53453,0 0.063,0.063 -0.063,0.20427 0,0.26727 0.063,0.063 0.20428,-0.063 0.26727,0 0.063,0.063 -0.063,0.20427 0,0.26727 0.063,0.063 0.20428,-0.063 0.26727,0 0.063,0.063 -0.063,0.20427 0,0.26727 0.063,0.063 0.20427,-0.063 0.26727,0 0.063,0.063 -0.063,0.20427 0,0.26727 0.063,0.063 0.20428,-0.063 0.26727,0 0.063,0.063 -0.063,0.20427 0,0.26726 0.063,0.063 0.20428,-0.063 0.26727,0 0.063,0.063 -0.063,0.20428 0,0.26727 0.063,0.063 0.20427,-0.063 0.26727,0 0.063,0.063 -0.063,0.20428 0,0.26728 0.063,0.063 0.20427,-0.063 0.26727,0 0.063,0.063 -0.063,0.20427 0,0.26726 0.063,0.063 0.17818,0 0.26727,0 0.0891,0 0.17818,0 0.26727,0 0.18589,0 1.23969,0.0483 1.33635,0 0.66053,-0.33026 -0.0923,-0.26726 0.53454,-0.26726 0.0891,0 0.17818,0 0.26726,0 0.0891,0 0.20428,0.063 0.26728,0 0.063,-0.063 -0.063,-0.20428 0,-0.26728 0.0731,-0.0731 0.92408,0.0725 1.06907,0 0.11269,-0.0563 0.15458,-0.21092 0.26727,-0.26727 0.0967,-0.0483 1.15045,0 1.33635,0 0.0982,0 1.05832,-0.0108 1.06908,0 0.063,0.063 -0.063,0.20428 0,0.26727 0.063,0.063 0.17818,0 0.26727,0 0.44545,0 0.8909,0 1.33635,0 0.0891,0 0.20427,-0.063 0.26726,0 0.063,0.063 -0.063,0.20428 0,0.26728 0.063,0.063 0.17818,0 0.26727,0 0.0891,0 0.17818,0 0.26727,0 0.0648,0 0.79322,-0.009 0.80181,0 0.063,0.063 0.0891,0.26726 0,0.26726 -0.0891,0 -0.063,-0.20427 0,-0.26726 0.12599,-0.126 0.40855,0.12599 0.53454,0 0.12599,-0.126 -0.0797,-0.37518 0,-0.53455 0.0563,-0.11269 0.21093,-0.15457 0.26727,-0.26726 0.0351,-0.0703 0,-0.92932 0,-1.06908 0,-0.19108 0.0456,-1.46681 0,-1.60362 -0.0398,-0.11953 -0.21092,-0.15458 -0.26727,-0.26727 -0.084,-0.16798 0.084,-0.90109 0,-1.06908 -0.0563,-0.11269 -0.21092,-0.15458 -0.26727,-0.26727 -0.0797,-0.15937 0.0797,-0.37517 0,-0.53454 -0.0563,-0.11269 -0.21092,-0.15457 -0.26727,-0.26727 -0.0398,-0.0797 0.063,-0.20427 0,-0.26726 -0.063,-0.063 -0.20427,0.063 -0.26727,0 -0.063,-0.063 0.063,-0.20428 0,-0.26728 -0.063,-0.063 -0.20427,0.063 -0.26727,0 -0.063,-0.063 0.063,-0.20427 0,-0.26726 -0.063,-0.063 -0.20427,0.063 -0.26727,0 -0.063,-0.063 0.063,-0.20428 0,-0.26727 -0.063,-0.063 -0.20427,0.063 -0.26727,0 -0.063,-0.063 0.063,-0.20428 0,-0.26727 -0.063,-0.063 -0.20427,0.063 -0.26727,0 -0.063,-0.063 0.063,-0.20428 0,-0.26727 -0.063,-0.063 -0.20427,0.063 -0.26726,0 -0.17888,-0.17888 0.17887,-0.35567 0,-0.53454 -0.063,-0.063 -0.20428,0.063 -0.26728,0 -0.063,-0.063 0.063,-0.20428 0,-0.26727 -0.063,-0.063 -0.20427,0.063 -0.26726,0 -0.063,-0.063 0.063,-0.20427 0,-0.26727 -0.063,-0.063 -0.20428,0.063 -0.26727,0 -0.063,-0.063 0.063,-0.20427 0,-0.26727 -0.063,-0.063 -0.20428,0.063 -0.26727,0 -0.063,-0.063 0.063,-0.20428 0,-0.26727 -0.063,-0.063 -0.20428,0.063 -0.26727,0 -0.063,-0.063 0.063,-0.20427 0,-0.26727 -0.063,-0.063 -0.18759,0.0398 -0.26727,0 -0.11269,-0.0563 -0.15458,-0.21092 -0.26727,-0.26727 -0.15937,-0.0797 -0.40855,0.12599 -0.53454,0 -0.063,-0.063 0.063,-0.20427 0,-0.26727 -0.0828,-0.0828 -1.25359,0.0828 -1.33635,0 -0.063,-0.063 0.063,-0.20427 0,-0.26727 -0.063,-0.063 -0.17818,0 -0.26727,0 -0.0891,0 -0.20427,-0.063 -0.26727,0 -0.063,0.063 0.063,0.20428 0,0.26727 -0.063,0.063 -0.17818,0 -0.26727,0 -0.53454,0 -1.06908,0 -1.60361,0 -0.71272,0 -1.42544,0 -2.13816,0 -0.0891,0 -0.20427,-0.063 -0.26727,0 -0.063,0.063 0.063,0.20428 0,0.26727 -0.063,0.063 -0.17818,0 -0.26727,0 -0.44545,0 -0.8909,0 -1.33635,0 -0.0891,0 -0.20427,-0.063 -0.26727,0 -0.063,0.063 0.063,0.20427 0,0.26727 -0.13363,0.13363 -0.66817,-0.13363 -0.80181,0 -0.063,0.063 0.063,0.20427 0,0.26727 -0.0643,0.0643 -1.00476,-0.0643 -1.06907,0 -0.063,0.063 0.063,0.20427 0,0.26727 -0.0828,0.0828 -1.25359,-0.0828 -1.33635,0 -0.063,0.063 0.063,0.20427 0,0.26727 -0.063,0.063 -0.17818,0 -0.26727,0 -0.44545,0 -0.8909,0 -1.336348,0 -0.09815,0 -1.058323,0.0107 -1.069078,0 -0.063,-0.063 0.063,-0.20427 0,-0.26727 -0.125992,-0.12599 -0.375169,0.0797 -0.534538,0 -0.112692,-0.0564 -0.15458,-0.21092 -0.267272,-0.26727 -0.159366,-0.0797 -0.408545,0.12599 -0.534537,0 -0.063,-0.063 0.06299,-0.20427 0,-0.26727 -0.125992,-0.12599 -0.375172,0.0797 -0.534541,0 -0.112688,-0.0563 -0.154577,-0.21092 -0.267269,-0.26727 -0.07968,-0.0398 -0.204274,0.063 -0.267268,0 -0.063,-0.063 0.06299,-0.20427 0,-0.26727 -0.178875,-0.17887 -0.355667,0.17888 -0.534541,0 -0.06299,-0.063 0.063,-0.20427 0,-0.26727 -0.125992,-0.12599 -0.375168,0.0797 -0.534537,0 -0.112692,-0.0563 -0.154581,-0.21092 -0.267269,-0.26727 -0.07968,-0.0398 -0.204275,0.063 -0.267272,0 -0.06299,-0.063 0.063,-0.20427 0,-0.26727 -0.06299,-0.063 -0.204271,0.063 -0.267269,0 -0.06299,-0.063 0.063,-0.20427 0,-0.26727 -0.06299,-0.063 -0.187584,0.0399 -0.267269,0 -0.112691,-0.0563 -0.15458,-0.21092 -0.267268,-0.26727 -0.07968,-0.0398 -0.204275,0.063 -0.267272,0 -0.06299,-0.063 0.063,-0.20427 0,-0.26726 -0.06299,-0.063 -0.187584,0.0398 -0.267269,0 -0.112691,-0.0563 -0.154577,-0.21093 -0.267269,-0.26728 -0.159369,-0.0797 -0.408548,0.126 -0.53454,0 -0.063,-0.063 0.063,-0.20427 0,-0.26726 -0.125992,-0.126 -0.375169,0.0797 -0.534538,0 -0.112691,-0.0564 -0.15458,-0.21093 -0.267268,-0.26727 -0.07968,-0.0399 -0.187587,0.0398 -0.267272,0 -0.112689,-0.0564 -0.154578,-0.21093 -0.267269,-0.26727 -0.07028,-0.0351 -0.929317,0 -1.069078,0 -0.185896,0 -1.239694,-0.0483 -1.336347,0 -0.660532,0.33026 0.09225,0.26727 -0.53454,0.26727 -0.712719,0 0.08909,-0.0891 -0.267269,0.26727 -0.712983,0.71298 0.178443,-0.71299 -0.53454,0 -0.06299,0.063 0.063,0.20427 0,0.26726 -0.06299,0.063 -0.204272,-0.063 -0.267269,0 -0.063,0.063 0.03984,0.18759 0,0.26728 -0.05635,0.11268 -0.210923,0.15457 -0.267269,0.26726 -0.03984,0.0797 0.063,0.20428 0,0.26727 -0.063,0.063 -0.204274,-0.063 -0.267269,0 -0.125992,0.126 0.125992,0.40855 0,0.53454 -0.063,0.063 -0.204274,-0.063 -0.267271,0 -0.125992,0.126 0.125994,0.40855 0,0.53454 -0.063,0.063 -0.204272,-0.063 -0.267269,0 -0.063,0.063 0.063,0.20428 0,0.26727 -0.063,0.063 -0.204274,-0.063 -0.267269,0 -0.063,0.063 0.063,0.20427 0,0.26727 -0.125992,0.12599 -0.408548,-0.12599 -0.53454,0 -0.063,0.063 0.063,0.20427 0,0.26727 -0.063,0.063 -0.204272,-0.063 -0.267269,0 -0.063,0.063 0,0.17818 0,0.26727 0,0.53454 0,1.06908 0,1.60362 0,0.0891 0,0.17818 0,0.26727 0,0.0891 -0.063,0.20427 0,0.26727 0.063,0.063 0.204274,-0.063 0.267269,0 0.0086,0.009 0,0.73698 0,0.8018 0,1.33635 0,2.6727 0,4.00905 0,0.0891 0,0.17818 0,0.26727 0,0.0891 0.063,0.20427 0,0.26727 -0.063,0.063 -0.204272,-0.063 -0.267269,0 -0.063,0.063 0.063,0.20427 0,0.26727 -0.063,0.063 -0.178179,0 -0.267269,0 -0.08909,0 -0.178181,0 -0.267269,0 -0.126018,0 -1.324234,0.0121 -1.33635,0 -0.06299,-0.063 0.063,-0.20428 0,-0.26727 -0.06299,-0.063 -0.187584,0.0398 -0.267268,0 -0.22538,-0.11269 -0.309158,-0.42185 -0.534538,-0.53454 -0.07969,-0.0399 -0.204274,0.063 -0.267272,0 -0.06299,-0.063 0.03984,-0.18759 0,-0.26727 -0.05634,-0.11269 -0.210923,-0.15458 -0.267268,-0.26727 -0.03984,-0.0797 0.063,-0.20427 0,-0.26727 -0.063,-0.063 -0.204275,0.063 -0.267269,0 -0.063,-0.063 0.03984,-0.18759 0,-0.26727 -0.05635,-0.11269 -0.210923,-0.15458 -0.267269,-0.26727 -0.07968,-0.15937 0.125992,-0.40855 0,-0.53454 -0.063,-0.063 -0.204274,0.063 -0.267272,0 -0.125992,-0.12599 0.125992,-0.40855 0,-0.53454 -0.06299,-0.063 -0.204271,0.063 -0.267268,0 -0.125992,-0.12599 0.125991,-0.40855 0,-0.53454 -0.063,-0.063 -0.204275,0.063 -0.267269,0 -0.125992,-0.12599 0.125992,-0.40854 0,-0.53454 -0.063,-0.063 -0.204275,0.063 -0.267269,0 -0.063,-0.063 0.06299,-0.20427 0,-0.26727 -0.063,-0.063 -0.204274,0.063 -0.267272,0 -0.06299,-0.063 0.063,-0.20427 0,-0.26727 -0.06299,-0.063 -0.204271,0.063 -0.267269,0 -0.06299,-0.063 0.063,-0.20427 0,-0.26726 -0.133635,-0.13364 -0.668173,0.13363 -0.801809,0 -0.06299,-0.063 0.063,-0.20428 0,-0.26728 -0.06299,-0.063 -0.178178,0 -0.267269,0 -0.08909,0 -0.178178,0 -0.267268,0 -0.634598,0 -0.18084,-0.0216 -1.336347,0.26728 z"
       id="path3889"
       inkscape:connector-curvature="0" />
  </g>
</svg>
