<?xml version="1.0" encoding="UTF-8" standalone="no"?>
<!-- Created with Inkscape (http://www.inkscape.org/) -->

<svg
   xmlns:dc="http://purl.org/dc/elements/1.1/"
   xmlns:cc="http://creativecommons.org/ns#"
   xmlns:rdf="http://www.w3.org/1999/02/22-rdf-syntax-ns#"
   xmlns:svg="http://www.w3.org/2000/svg"
   xmlns="http://www.w3.org/2000/svg"
   xmlns:sodipodi="http://sodipodi.sourceforge.net/DTD/sodipodi-0.dtd"
   xmlns:inkscape="http://www.inkscape.org/namespaces/inkscape"
   width="368.29999mm"
   height="275.16666mm"
   viewBox="0 0 368.29999 275.16666"
   version="1.1"
   id="svg8"
   sodipodi:docname="3_7_hemacias.svg"
   inkscape:version="0.92.4 (5da689c313, 2019-01-14)">
  <defs
     id="defs2" />
  <sodipodi:namedview
     id="base"
     pagecolor="#ffffff"
     bordercolor="#666666"
     borderopacity="1.0"
     inkscape:pageopacity="0.0"
     inkscape:pageshadow="2"
     inkscape:zoom="0.7"
     inkscape:cx="515.75502"
     inkscape:cy="493.17516"
     inkscape:document-units="mm"
     inkscape:current-layer="layer9"
     showgrid="false"
     fit-margin-top="0"
     fit-margin-left="0"
     fit-margin-right="0"
     fit-margin-bottom="0"
     inkscape:window-width="1920"
     inkscape:window-height="1001"
     inkscape:window-x="-9"
     inkscape:window-y="-9"
     inkscape:window-maximized="1" />
  <metadata
     id="metadata5">
    <rdf:RDF>
      <cc:Work
         rdf:about="">
        <dc:format>image/svg+xml</dc:format>
        <dc:type
           rdf:resource="http://purl.org/dc/dcmitype/StillImage" />
        <dc:title></dc:title>
      </cc:Work>
    </rdf:RDF>
  </metadata>
  <g
     inkscape:groupmode="layer"
     id="layer9"
     inkscape:label="hemacias">
    <path
       style="fill:none;stroke:#000000;stroke-width:0.26458332px;stroke-linecap:butt;stroke-linejoin:miter;stroke-opacity:1"
       d="m 185.11384,113.86533 c -0.16839,-0.42097 -0.67454,-1.93883 -1.13393,-2.55134 -0.13364,-0.17818 -0.32989,-0.30137 -0.47247,-0.47247 -0.0202,-0.0242 0.0141,-0.0663 0,-0.0945 -0.0252,-0.0505 -0.23374,-0.23373 -0.28348,-0.28348 -0.0498,-0.0497 -0.23302,-0.25825 -0.28349,-0.28348 -0.0282,-0.0141 -0.0663,0.0141 -0.0945,0 -0.11339,-0.0567 -0.17009,-0.22679 -0.28348,-0.28348 -0.0282,-0.0141 -0.0663,0.0141 -0.0945,0 -0.0797,-0.0399 -0.1093,-0.14915 -0.18898,-0.18899 -0.0282,-0.0141 -0.0722,0.0223 -0.0945,0 -0.19551,-0.19552 0.29877,0.008 -0.0945,-0.18899 -0.0282,-0.0141 -0.0646,0.01 -0.0945,0 -0.0668,-0.0223 -0.12217,-0.0722 -0.18898,-0.0945 -0.0299,-0.01 -0.0663,0.0141 -0.0945,0 -0.0398,-0.0199 -0.0522,-0.0804 -0.0945,-0.0945 -0.0848,-0.0598 -0.19384,0.0299 -0.28349,0 -0.0668,-0.0223 -0.12216,-0.0722 -0.18898,-0.0945 -0.0612,-0.0204 -0.39511,0 -0.47247,0 -0.34648,0 -0.69296,0 -1.03944,0 -0.25198,0 -0.50397,0 -0.75595,0 -0.063,0 -0.12599,0 -0.18899,0 -0.063,0 -0.12787,-0.0153 -0.18899,0 -0.0683,0.0171 -0.12066,0.0774 -0.18898,0.0945 -0.0611,0.0153 -0.12788,-0.0153 -0.18899,0 -0.0683,0.0171 -0.12066,0.0774 -0.18899,0.0945 -0.0611,0.0153 -0.12787,-0.0153 -0.18899,0 -0.0683,0.0171 -0.12599,0.063 -0.18899,0.0945 -0.063,0.0315 -0.13038,0.0554 -0.18899,0.0945 -0.0371,0.0247 -0.0574,0.0698 -0.0945,0.0945 -0.0586,0.0391 -0.13038,0.0554 -0.18899,0.0945 -0.0371,0.0247 -0.0522,0.0804 -0.0945,0.0945 -0.0598,0.0199 -0.12923,-0.0199 -0.18899,0 -0.10854,0.0362 -0.1311,0.22559 -0.18899,0.28348 -0.0498,0.0498 -0.13038,0.0554 -0.18898,0.0945 -0.0815,0.0544 -0.20968,0.20968 -0.28349,0.28348 -0.0738,0.0738 -0.22912,0.20195 -0.28348,0.28349 -0.0391,0.0586 -0.0554,0.13038 -0.0945,0.18899 -0.0494,0.0741 -0.14915,0.1093 -0.18899,0.18898 -0.0141,0.0282 0.01,0.0646 0,0.0945 -0.0223,0.0668 -0.0722,0.12217 -0.0945,0.18898 -0.01,0.0299 0.0141,0.0663 0,0.0945 -0.0199,0.0398 -0.0804,0.0522 -0.0945,0.0945 -0.0199,0.0598 0.0199,0.12923 0,0.18899 -0.0141,0.0423 -0.063,0.063 -0.0945,0.0945 0,0.063 0.0199,0.12923 0,0.18899 -0.0141,0.0423 -0.0804,0.0522 -0.0945,0.0945 -0.0291,0.0873 0.0294,0.38432 0,0.47247 -0.0223,0.0668 -0.0722,0.12217 -0.0945,0.18898 -0.0178,0.0533 0,0.22139 0,0.28349 0,0.0322 -0.017,0.32683 0,0.37797 0.0223,0.0668 0.0722,0.12217 0.0945,0.18899 0.0186,0.0558 0,0.41968 0,0.47247 0,0.0315 -0.0141,0.0663 0,0.0945 0.0199,0.0398 0.0746,0.0546 0.0945,0.0945 0.0297,0.0594 -0.0297,0.31859 0,0.37798 0.0199,0.0398 0.0746,0.0546 0.0945,0.0945 0.0282,0.0563 -0.0282,0.13264 0,0.18899 0.0199,0.0398 0.0746,0.0546 0.0945,0.0945 0.0282,0.0564 -0.0282,0.13265 0,0.18899 0.0199,0.0398 0.0746,0.0547 0.0945,0.0945 0.0282,0.0563 -0.0282,0.13265 0,0.18899 0.0199,0.0398 0.0746,0.0547 0.0945,0.0945 0.0141,0.0282 -0.0141,0.0663 0,0.0945 0.0199,0.0398 0.0746,0.0546 0.0945,0.0945 0.0141,0.0282 -0.0141,0.0663 0,0.0945 0.0199,0.0398 0.0746,0.0546 0.0945,0.0945 0.0141,0.0282 -0.0141,0.0663 0,0.0945 0.0398,0.0797 0.14915,0.1093 0.18899,0.18899 0.0141,0.0282 -0.0141,0.0663 0,0.0945 0.0199,0.0398 0.0746,0.0546 0.0945,0.0945 0.0141,0.0282 -0.0223,0.0722 0,0.0945 0.19551,0.19551 -0.008,-0.29877 0.18899,0.0945 0.0141,0.0282 -0.0141,0.0663 0,0.0945 0.0199,0.0399 0.0746,0.0547 0.0945,0.0945 0.0141,0.0282 -0.0223,0.0722 0,0.0945 0.0223,0.0223 0.0663,-0.0141 0.0945,0 0.20893,0.10447 0.0293,0.0587 0.0945,0.18899 0.19663,0.39326 -0.007,-0.10102 0.18899,0.0945 0.0223,0.0223 -0.0141,0.0663 0,0.0945 0.087,0.17397 0.1965,0.015 0.28348,0.18899 0.0141,0.0282 -0.0223,0.0722 0,0.0945 0.0445,0.0446 0.13265,-0.0282 0.18899,0 0.39326,0.19663 -0.10102,-0.007 0.0945,0.18899 0.0223,0.0223 0.0663,-0.0141 0.0945,0 0.0398,0.0199 0.0546,0.0746 0.0945,0.0945 0.0282,0.0141 0.0663,-0.0141 0.0945,0 0.0398,0.0199 0.0547,0.0746 0.0945,0.0945 0.0282,0.0141 0.0663,-0.0141 0.0945,0 0.0398,0.0199 0.0547,0.0746 0.0945,0.0945 0.0282,0.0141 0.0663,-0.0141 0.0945,0 0.0399,0.0199 0.0547,0.0746 0.0945,0.0945 0.042,0.021 0.33475,-0.0144 0.37797,0 0.0423,0.0141 0.0547,0.0746 0.0945,0.0945 0.0244,0.0122 0.49998,0 0.56696,0 0.0315,0 0.063,0 0.0945,0 0.0315,0 0.0722,-0.0223 0.0945,0 0.0223,0.0223 -0.0282,0.0804 0,0.0945 0.0845,0.0423 0.18899,0 0.28348,0 0.0315,0 0.0663,0.0141 0.0945,0 0.0398,-0.0199 0.0547,-0.0746 0.0945,-0.0945 0.0756,-0.0378 0.20789,0.0378 0.28348,0 0.0398,-0.0199 0.0547,-0.0746 0.0945,-0.0945 0.0282,-0.0141 0.063,0 0.0945,0 0.063,0 0.12923,0.0199 0.18899,0 0.0423,-0.0141 0.0522,-0.0804 0.0945,-0.0945 0.11953,-0.0398 0.25575,0.0306 0.37798,0 0.53537,-0.26769 -0.14086,0.0352 0.37797,-0.0945 0.19778,-0.0494 0.18021,-0.13955 0.37798,-0.18899 0.0611,-0.0153 0.12923,0.0199 0.18899,0 0.0423,-0.0141 0.0522,-0.0804 0.0945,-0.0945 0.0598,-0.0199 0.12788,0.0153 0.18899,0 0.0683,-0.0171 0.12066,-0.0774 0.18899,-0.0945 0.0611,-0.0153 0.12922,0.0199 0.18899,0 0.0423,-0.0141 0.0574,-0.0698 0.0945,-0.0945 0.0586,-0.0391 0.12217,-0.0722 0.18899,-0.0945 0.0598,-0.0199 0.13264,0.0282 0.18899,0 0.0398,-0.0199 0.0547,-0.0746 0.0945,-0.0945 0.0282,-0.0141 0.0663,0.0141 0.0945,0 0.0398,-0.0199 0.0546,-0.0746 0.0945,-0.0945 0.0282,-0.0141 0.0722,0.0223 0.0945,0 0.0223,-0.0223 -0.0223,-0.0722 0,-0.0945 0.0445,-0.0445 0.14444,0.0446 0.18898,0 0.0223,-0.0223 -0.0223,-0.0722 0,-0.0945 0.0223,-0.0223 0.0722,0.0223 0.0945,0 0.0223,-0.0223 -0.0141,-0.0663 0,-0.0945 0.0199,-0.0398 0.0746,-0.0546 0.0945,-0.0945 0.0141,-0.0282 -0.0223,-0.0722 0,-0.0945 0.0223,-0.0223 0.0722,0.0223 0.0945,0 0.0445,-0.0445 -0.0445,-0.14444 0,-0.18898 0.0223,-0.0223 0.0722,0.0223 0.0945,0 0.0445,-0.0445 -0.0445,-0.14445 0,-0.18899 0.0223,-0.0223 0.0722,0.0223 0.0945,0 0.0446,-0.0446 -0.0282,-0.13264 0,-0.18899 0.0199,-0.0398 0.0746,-0.0546 0.0945,-0.0945 0.0141,-0.0282 -0.0141,-0.0663 0,-0.0945 0.0199,-0.0398 0.0746,-0.0546 0.0945,-0.0945 0.0282,-0.0564 -0.0445,-0.14444 0,-0.18899 0.0223,-0.0223 0.0722,0.0223 0.0945,0 0.0472,-0.0473 -0.0472,-0.23624 0,-0.28348 0.0223,-0.0223 0.0722,0.0223 0.0945,0 0.0445,-0.0446 -0.0446,-0.14444 0,-0.18899 0.0223,-0.0223 0.0722,0.0223 0.0945,0 0.0472,-0.0472 -0.0472,-0.23623 0,-0.28348 0.0223,-0.0223 0.0722,0.0223 0.0945,0 0.0445,-0.0446 -0.0445,-0.14445 0,-0.18899 0.0223,-0.0223 0.0722,0.0223 0.0945,0 0.0445,-0.0446 -0.0282,-0.13264 0,-0.18899 0.0199,-0.0398 0.0746,-0.0547 0.0945,-0.0945 0.0282,-0.0563 -0.0282,-0.13264 0,-0.18899 0.0199,-0.0398 0.0746,-0.0546 0.0945,-0.0945 0.0141,-0.0282 -0.0223,-0.0722 0,-0.0945 0.0223,-0.0223 0.0804,0.0282 0.0945,0 0.0581,-0.11616 0.063,-0.25198 0.0945,-0.37797 z"
       id="path932"
       inkscape:connector-curvature="0" />
    <path
       style="fill:none;stroke:#000000;stroke-width:0.26458332px;stroke-linecap:butt;stroke-linejoin:miter;stroke-opacity:1"
       d="m 131.53571,117.55059 c 0.77824,-1.55647 0.93159,-1.73328 1.51191,-3.68526 0.1092,-0.3673 0.13479,-0.75459 0.18899,-1.13393 0.0309,-0.21671 -0.0666,-0.46602 -0.0945,-0.66146 -0.0205,-0.14376 0.0313,-0.44176 0,-0.56697 -0.0171,-0.0683 -0.0774,-0.12065 -0.0945,-0.18898 -0.0153,-0.0611 0.0153,-0.12788 0,-0.18899 0.057,-0.17103 -0.15308,-0.17574 -0.18899,-0.28348 -0.0199,-0.0598 0.0153,-0.12788 0,-0.18899 -0.0685,-0.27406 -0.0737,-0.11059 -0.18899,-0.28348 -0.0781,-0.11721 -0.11085,-0.26077 -0.18899,-0.37798 -0.0247,-0.0371 -0.0698,-0.0574 -0.0945,-0.0945 -0.0391,-0.0586 -0.0554,-0.13039 -0.0945,-0.18899 -0.0247,-0.0371 -0.063,-0.063 -0.0945,-0.0945 -0.0315,-0.063 -0.0554,-0.13038 -0.0945,-0.18898 -0.0544,-0.0815 -0.20968,-0.20968 -0.28348,-0.28349 -0.0904,-0.0904 -0.18129,-0.20683 -0.28349,-0.28348 -0.0945,-0.063 -0.18899,-0.12599 -0.28348,-0.18899 -0.0315,0 -0.0663,0.0141 -0.0945,0 -0.0797,-0.0398 -0.11486,-0.13957 -0.18899,-0.18898 -0.063,-0.0315 -0.12599,-0.063 -0.18899,-0.0945 -0.0315,0 -0.0663,0.0141 -0.0945,0 -0.0399,-0.0199 -0.0547,-0.0746 -0.0945,-0.0945 -0.0282,-0.0141 -0.0663,0.0141 -0.0945,0 -0.0398,-0.0199 -0.0522,-0.0804 -0.0945,-0.0945 -0.0598,-0.0199 -0.12787,0.0153 -0.18898,0 -0.0683,-0.0171 -0.12217,-0.0722 -0.18899,-0.0945 -0.0299,-0.01 -0.0646,0.01 -0.0945,0 -0.0668,-0.0223 -0.12217,-0.0722 -0.18899,-0.0945 -0.0612,-0.0204 -0.3951,0 -0.47246,0 -0.0983,0 -0.49264,-0.0186 -0.56697,0 -0.0683,0.0171 -0.11992,0.0807 -0.18899,0.0945 -0.15443,0.0309 -0.31968,-0.0382 -0.47247,0 -0.0683,0.0171 -0.12066,0.0774 -0.18898,0.0945 -0.0611,0.0153 -0.12923,-0.0199 -0.18899,0 -0.0423,0.0141 -0.0574,0.0698 -0.0945,0.0945 -0.1172,0.0781 -0.25198,0.12599 -0.37797,0.18899 -0.12599,0.063 -0.25199,0.12599 -0.37798,0.18898 -0.063,0.0315 -0.13264,0.0522 -0.18899,0.0945 -0.0713,0.0535 -0.11771,0.13553 -0.18899,0.18898 -0.0563,0.0423 -0.13264,0.0522 -0.18898,0.0945 -0.14255,0.10691 -0.23885,0.26667 -0.37798,0.37798 -0.0887,0.0709 -0.19624,0.11628 -0.28348,0.18898 -0.10266,0.0856 -0.18899,0.18899 -0.28348,0.28349 -0.0945,0.0945 -0.19794,0.18082 -0.28349,0.28348 -0.0727,0.0872 -0.11628,0.19623 -0.18898,0.28348 -0.0856,0.10266 -0.19794,0.18082 -0.28349,0.28348 -0.0727,0.0872 -0.11628,0.19624 -0.18898,0.28349 -0.0856,0.10266 -0.19794,0.18081 -0.28349,0.28348 -0.0727,0.0872 -0.11628,0.19623 -0.18898,0.28348 -0.0856,0.10266 -0.19794,0.18082 -0.28349,0.28348 -0.0727,0.0872 -0.12599,0.18899 -0.18899,0.28348 -0.12599,0.18899 -0.25198,0.37798 -0.37797,0.56697 -0.063,0.0945 -0.12599,0.18898 -0.18899,0.28348 -0.063,0.0945 -0.1382,0.1819 -0.18899,0.28348 -0.0445,0.0891 -0.0575,0.191 -0.0945,0.28348 -0.0773,0.19314 -0.19042,0.38084 -0.28348,0.56697 -0.0315,0.063 -0.0722,0.12217 -0.0945,0.18899 -0.01,0.0299 0.01,0.0646 0,0.0945 -0.0223,0.0668 -0.0722,0.12217 -0.0945,0.18899 -0.01,0.0299 0.01,0.0646 0,0.0945 -0.0223,0.0668 -0.0722,0.12217 -0.0945,0.18899 -0.0189,0.0567 0,0.39707 0,0.47247 0,0.0811 -0.0184,0.51168 0,0.56696 0.0141,0.0423 0.0804,0.0522 0.0945,0.0945 0.0199,0.0598 0,0.12599 0,0.18899 0,0.10977 -0.0214,0.3868 0,0.47247 0.0171,0.0683 0.0774,0.12066 0.0945,0.18898 0.0229,0.0917 -0.0299,0.19384 0,0.28349 0.0223,0.0668 0.0722,0.12217 0.0945,0.18899 0.0299,0.0896 -0.0229,0.19181 0,0.28348 0.0171,0.0683 0.0722,0.12217 0.0945,0.18899 0.01,0.0299 -0.01,0.0646 0,0.0945 0.0223,0.0668 0.0722,0.12217 0.0945,0.18899 0.01,0.0299 -0.01,0.0646 0,0.0945 0.0446,0.13364 0.15483,0.24132 0.18899,0.37798 0.0153,0.0611 -0.0153,0.12787 0,0.18899 0.0342,0.13665 0.14445,0.24434 0.18899,0.37797 0.01,0.0299 -0.01,0.0646 0,0.0945 0.0223,0.0668 0.063,0.12599 0.0945,0.18898 0.0315,0.063 0.0554,0.13039 0.0945,0.18899 0.0247,0.0371 0.0698,0.0574 0.0945,0.0945 0.0391,0.0586 0.0554,0.13038 0.0945,0.18898 0.0247,0.0371 0.0698,0.0574 0.0945,0.0945 0.0391,0.0586 0.0554,0.13038 0.0945,0.18899 0.0247,0.0371 0.0698,0.0574 0.0945,0.0945 0.0781,0.11721 0.11085,0.26077 0.18899,0.37798 0.0494,0.0741 0.13957,0.11486 0.18899,0.18898 0.0391,0.0586 0.0554,0.13039 0.0945,0.18899 0.0247,0.0371 0.063,0.063 0.0945,0.0945 0.0315,0.0315 0.0547,0.0746 0.0945,0.0945 0.0282,0.0141 0.0663,-0.0141 0.0945,0 0.0398,0.0199 0.0546,0.0746 0.0945,0.0945 0.0282,0.0141 0.0663,-0.0141 0.0945,0 0.0398,0.0199 0.0546,0.0746 0.0945,0.0945 0.0756,0.0378 0.20789,-0.0378 0.28349,0 0.0398,0.0199 0.0547,0.0746 0.0945,0.0945 0.008,0.004 0.27132,0.004 0.28348,0 0.0668,-0.0223 0.12217,-0.0722 0.18899,-0.0945 0.10041,-0.0335 0.27757,0.0335 0.37798,0 0.0668,-0.0223 0.12217,-0.0722 0.18898,-0.0945 0.0598,-0.0199 0.13265,0.0282 0.18899,0 0.0398,-0.0199 0.0546,-0.0746 0.0945,-0.0945 0.0282,-0.0141 0.0663,0.0141 0.0945,0 0.0398,-0.0199 0.0522,-0.0804 0.0945,-0.0945 0.0598,-0.0199 0.12923,0.0199 0.18899,0 0.0423,-0.0141 0.0546,-0.0746 0.0945,-0.0945 0.0282,-0.0141 0.0663,0.0141 0.0945,0 0.0398,-0.0199 0.0547,-0.0746 0.0945,-0.0945 0.0563,-0.0282 0.13264,0.0282 0.18898,0 0.0399,-0.0199 0.063,-0.063 0.0945,-0.0945 0.063,0 0.12922,0.0199 0.18898,0 0.0845,-0.0282 0.10931,-0.14914 0.18899,-0.18898 0.0282,-0.0141 0.0663,0.0141 0.0945,0 0.0398,-0.0199 0.0546,-0.0746 0.0945,-0.0945 0.0282,-0.0141 0.0663,0.0141 0.0945,0 0.0797,-0.0398 0.1093,-0.14914 0.18898,-0.18898 0.0282,-0.0141 0.0663,0.0141 0.0945,0 0.0398,-0.0199 0.0547,-0.0746 0.0945,-0.0945 0.0282,-0.0141 0.0663,0.0141 0.0945,0 0.0398,-0.0199 0.0546,-0.0746 0.0945,-0.0945 0.0282,-0.0141 0.0663,0.0141 0.0945,0 0.0399,-0.0199 0.0547,-0.0746 0.0945,-0.0945 0.0282,-0.0141 0.0663,0.0141 0.0945,0 0.0797,-0.0398 0.10931,-0.14914 0.18899,-0.18899 0.0282,-0.0141 0.0722,0.0223 0.0945,0 0.0223,-0.0223 -0.0223,-0.0722 0,-0.0945 0.0223,-0.0223 0.0663,0.0141 0.0945,0 0.39326,-0.19663 -0.10102,0.007 0.0945,-0.18899 0.0223,-0.0223 0.0722,0.0223 0.0945,0 0.0223,-0.0223 0,-0.063 0,-0.0945 0.0315,0 0.0722,0.0223 0.0945,0 0.0223,-0.0223 -0.0223,-0.0722 0,-0.0945 0.0223,-0.0223 0.0722,0.0223 0.0945,0 0.0223,-0.0223 -0.0141,-0.0663 0,-0.0945 0.0199,-0.0398 0.0746,-0.0546 0.0945,-0.0945 0.0141,-0.0282 -0.0223,-0.0722 0,-0.0945 0.0223,-0.0223 0.0722,0.0223 0.0945,0 0.0223,-0.0223 -0.0141,-0.0663 0,-0.0945 0.0465,-0.093 0.33148,-0.28499 0.37798,-0.37798 0.0141,-0.0282 -0.0223,-0.0722 0,-0.0945 0.0223,-0.0223 0.0722,0.0223 0.0945,0 0.0223,-0.0223 -0.0223,-0.0722 0,-0.0945 0.0223,-0.0223 0.0722,0.0223 0.0945,0 0.0223,-0.0223 -0.0141,-0.0663 0,-0.0945 0.0125,-0.0251 0.25839,-0.27094 0.28348,-0.28348 0.0282,-0.0141 0.0722,0.0223 0.0945,0 0.0223,-0.0223 -0.0223,-0.0722 0,-0.0945 0.0473,-0.0472 0.23624,0.0473 0.28349,0 0.0223,-0.0223 -0.0223,-0.0722 0,-0.0945 0.0445,-0.0445 0.14444,0.0445 0.18898,0 0.0223,-0.0223 -0.0223,-0.0722 0,-0.0945 0.0223,-0.0223 0.0675,0.0162 0.0945,0 0.13504,-0.081 0.25198,-0.18899 0.37797,-0.28349 z"
       id="path934"
       inkscape:connector-curvature="0" />
    <path
       style="fill:none;stroke:#000000;stroke-width:0.26458332px;stroke-linecap:butt;stroke-linejoin:miter;stroke-opacity:1"
       d="m 82.682291,163.28571 c 1.564034,-0.20854 1.519399,-0.0243 2.929315,-1.03943 0.325348,-0.23425 0.566965,-0.56697 0.850445,-0.85045 0.063,-0.063 0.149149,-0.1093 0.18899,-0.18899 0.151714,-0.30342 0.270697,-0.6231 0.377975,-0.94494 0.02988,-0.0896 -0.02988,-0.19384 0,-0.28348 0.02228,-0.0668 0.07741,-0.12066 0.09449,-0.18899 0.03056,-0.12223 -0.03984,-0.25845 0,-0.37797 0.01408,-0.0423 0.08576,-0.0508 0.0945,-0.0945 0.02471,-0.12354 0,-0.25198 0,-0.37797 0,-0.15749 0,-0.31498 0,-0.47247 0,-0.1575 0,-0.31499 0,-0.47247 0,-0.0315 0,-0.063 0,-0.0945 0,-0.0315 0.01407,-0.0663 0,-0.0945 -0.01992,-0.0398 -0.08041,-0.0522 -0.0945,-0.0945 -0.01992,-0.0598 0,-0.12599 0,-0.18899 0,-0.0315 0.01408,-0.0663 0,-0.0945 -0.223108,-0.44622 0.0497,0.57676 -0.188987,-0.37797 -0.0076,-0.0306 0.0099,-0.0646 0,-0.0945 -0.02228,-0.0668 -0.07222,-0.12217 -0.09449,-0.18899 -0.09377,-0.28129 0.223747,0.19389 -0.0945,-0.28348 -0.02471,-0.0371 -0.07457,-0.0546 -0.09449,-0.0945 -0.01408,-0.0282 0.01407,-0.0663 0,-0.0945 -0.01992,-0.0398 -0.06978,-0.0574 -0.09449,-0.0945 -0.03907,-0.0586 -0.05542,-0.13039 -0.0945,-0.18899 -0.04942,-0.0741 -0.125992,-0.12599 -0.188986,-0.18899 -0.09449,-0.0945 -0.188989,-0.18899 -0.283483,-0.28348 -0.05558,-0.0556 -0.334219,-0.3561 -0.377976,-0.37798 -0.02817,-0.0141 -0.06632,0.0141 -0.09449,0 -0.03984,-0.0199 -0.063,-0.063 -0.0945,-0.0945 -0.0315,-0.0315 -0.05465,-0.0746 -0.09449,-0.0945 -0.02817,-0.0141 -0.06632,0.0141 -0.09449,0 -0.07968,-0.0398 -0.104471,-0.16081 -0.18899,-0.18898 -0.05976,-0.0199 -0.129225,0.0199 -0.188986,0 -0.04226,-0.0141 -0.05465,-0.0746 -0.0945,-0.0945 -0.02817,-0.0141 -0.06632,0.0141 -0.09449,0 -0.03984,-0.0199 -0.05465,-0.0746 -0.09449,-0.0945 -0.02817,-0.0141 -0.06461,0.01 -0.0945,0 -0.06682,-0.0223 -0.122168,-0.0722 -0.188986,-0.0945 -0.08965,-0.0299 -0.193837,0.0299 -0.283483,0 -0.04226,-0.0141 -0.05223,-0.0804 -0.09449,-0.0945 -0.05976,-0.0199 -0.125992,0 -0.188989,0 -0.0315,0 -0.06632,0.0141 -0.09449,0 -0.03984,-0.0199 -0.05223,-0.0804 -0.09449,-0.0945 -0.08965,-0.0299 -0.188989,0 -0.283482,0 -0.157491,0 -0.314982,0 -0.472472,0 -0.063,0 -0.129225,0.0199 -0.188987,0 -0.06682,-0.0223 -0.122171,-0.0722 -0.188989,-0.0945 -0.05114,-0.017 -0.345784,0 -0.377976,0 -0.08189,0 -0.323239,-0.0182 -0.377976,0 -0.06682,0.0223 -0.122171,0.0722 -0.188989,0.0945 -0.09001,0.03 -0.380428,-0.0307 -0.472469,0 -0.06682,0.0223 -0.122171,0.0722 -0.188989,0.0945 -0.05976,0.0199 -0.129225,-0.0199 -0.188987,0 -0.06682,0.0223 -0.122171,0.0722 -0.188989,0.0945 -0.02988,0.01 -0.06461,-0.01 -0.09449,0 -0.06682,0.0223 -0.122172,0.0722 -0.188989,0.0945 -0.02988,0.01 -0.06461,-0.01 -0.09449,0 -0.133635,0.0445 -0.24434,0.14444 -0.377975,0.18899 -0.02988,0.01 -0.06632,-0.0141 -0.09449,0 -0.432464,0.21623 0.400976,-0.0392 -0.283482,0.18898 -0.02988,0.01 -0.06632,-0.0141 -0.0945,0 -0.03984,0.0199 -0.063,0.063 -0.09449,0.0945 -0.07425,0.0743 -0.412279,0.44238 -0.472469,0.47247 -0.02817,0.0141 -0.07222,-0.0223 -0.0945,0 -0.02228,0.0223 0.0099,0.0646 0,0.0945 -0.02228,0.0668 -0.05542,0.13039 -0.09449,0.18899 -0.05436,0.0815 -0.209674,0.20968 -0.283482,0.28348 -0.0315,0.0315 -0.07457,0.0547 -0.09449,0.0945 -0.01408,0.0282 0.01408,0.0663 0,0.0945 -0.01992,0.0398 -0.07457,0.0547 -0.09449,0.0945 -0.01408,0.0282 0.01408,0.0663 0,0.0945 -0.01992,0.0398 -0.07457,0.0547 -0.0945,0.0945 -0.02817,0.0564 0.02817,0.13265 0,0.18899 -0.01992,0.0398 -0.07457,0.0547 -0.09449,0.0945 -0.02817,0.0563 0.02817,0.13264 0,0.18899 -0.01992,0.0398 -0.07457,0.0546 -0.09449,0.0945 -0.01244,0.0248 0,0.32856 0,0.37797 0,0.28349 0,0.56697 0,0.85045 0,0.0494 -0.01244,0.35313 0,0.37798 0.01992,0.0398 0.07457,0.0547 0.09449,0.0945 0.02817,0.0563 -0.02817,0.13264 0,0.18899 0.01992,0.0398 0.07457,0.0547 0.09449,0.0945 0.01408,0.0282 -0.02228,0.0722 0,0.0945 0.02228,0.0223 0.07222,-0.0223 0.0945,0 0.04454,0.0445 -0.02817,0.13264 0,0.18899 0.01992,0.0398 0.07457,0.0546 0.09449,0.0945 0.01408,0.0282 -0.02228,0.0722 0,0.0945 0.02228,0.0223 0.07222,-0.0223 0.09449,0 0.02228,0.0223 -0.01408,0.0663 0,0.0945 0.01992,0.0398 0.063,0.063 0.0945,0.0945 0.07425,0.0742 0.442375,0.41228 0.472469,0.47247 0.01408,0.0282 -0.02228,0.0722 0,0.0945 0.02228,0.0223 0.07222,-0.0223 0.09449,0 0.02228,0.0223 -0.01408,0.0663 0,0.0945 0.01992,0.0398 0.07457,0.0547 0.0945,0.0945 0.01408,0.0282 -0.02228,0.0722 0,0.0945 0.02228,0.0223 0.07222,-0.0223 0.09449,0 0.195511,0.19551 -0.298767,-0.008 0.09449,0.18899 0.02817,0.0141 0.07222,-0.0223 0.09449,0 0.195514,0.19551 -0.298768,-0.008 0.0945,0.18899 0.02817,0.0141 0.07222,-0.0223 0.09449,0 0.02228,0.0223 -0.01408,0.0663 0,0.0945 0.01992,0.0398 0.063,0.063 0.09449,0.0945 0.0315,0.0315 0.05465,0.0746 0.0945,0.0945 0.02817,0.0141 0.07222,-0.0223 0.09449,0 0.195511,0.19551 -0.298768,-0.008 0.09449,0.18898 0.02817,0.0141 0.06632,-0.0141 0.09449,0 0.07968,0.0399 0.109305,0.14915 0.188989,0.18899 0.02817,0.0141 0.07222,-0.0223 0.09449,0 0.02228,0.0223 -0.02228,0.0722 0,0.0945 0.02228,0.0223 0.06632,-0.0141 0.0945,0 0.07968,0.0398 0.109302,0.14914 0.188986,0.18899 0.02817,0.0141 0.07222,-0.0223 0.09449,0 0.02228,0.0223 -0.02228,0.0722 0,0.0945 0.04455,0.0445 0.144444,-0.0445 0.18899,0 0.02228,0.0223 -0.02228,0.0722 0,0.0945 0.04454,0.0445 0.144444,-0.0445 0.188989,0 0.02228,0.0223 -0.02228,0.0722 0,0.0945 0.04454,0.0445 0.144441,-0.0446 0.188986,0 0.02228,0.0223 -0.02228,0.0722 0,0.0945 0.04725,0.0473 0.236236,-0.0472 0.283483,0 0.02228,0.0223 -0.02228,0.0722 0,0.0945 0.04454,0.0445 0.144444,-0.0446 0.188989,0 0.02228,0.0223 -0.02228,0.0722 0,0.0945 0.04454,0.0445 0.144442,-0.0446 0.188987,0 0.02228,0.0223 -0.02228,0.0722 0,0.0945 0.04725,0.0473 0.236236,-0.0472 0.283482,0 0.02228,0.0223 -0.02228,0.0722 0,0.0945 0.04455,0.0445 0.144444,-0.0445 0.18899,0 0.02228,0.0223 -0.02228,0.0722 0,0.0945 0.04454,0.0445 0.144441,-0.0445 0.188986,0 0.02228,0.0223 0.0315,0.0945 0,0.0945 -0.04454,0 -0.139038,-0.0945 -0.09449,-0.0945 0.236236,0 0.314981,0.34648 0.377976,0.47247 z"
       id="path936"
       inkscape:connector-curvature="0" />
    <path
       style="fill:none;stroke:#000000;stroke-width:0.26458332px;stroke-linecap:butt;stroke-linejoin:miter;stroke-opacity:1"
       d="m 66.99628,157.99405 c 0.818002,-0.15338 2.271435,-0.36472 3.023809,-0.75596 0.722792,-0.37585 1.199597,-1.25708 1.606399,-1.88988 0.03809,-0.0592 0.05542,-0.13038 0.09449,-0.18899 0.115265,-0.1729 0.120475,-0.009 0.188986,-0.28348 0.01527,-0.0611 -0.01992,-0.12922 0,-0.18899 0.04454,-0.13363 0.125995,-0.25198 0.188989,-0.37797 0.09449,-0.18899 0.18899,-0.37798 0.283483,-0.56697 0.0315,-0.063 0.07741,-0.12066 0.09449,-0.18899 0.01527,-0.0611 -0.01527,-0.12787 0,-0.18898 0.01709,-0.0683 0.06834,-0.1236 0.09449,-0.18899 0.03699,-0.0925 0.0575,-0.191 0.09449,-0.28348 0.02617,-0.0654 0.07741,-0.12066 0.09449,-0.18899 0.01527,-0.0611 -0.01035,-0.12685 0,-0.18899 0.02135,-0.1281 0.07314,-0.24987 0.09449,-0.37798 0.01037,-0.0621 -0.01527,-0.12787 0,-0.18898 0.01709,-0.0683 0.07741,-0.12066 0.0945,-0.18899 0.01857,-0.0743 0,-0.4687 0,-0.56697 0,-0.28348 0,-0.56696 0,-0.85044 0,-0.126 0.02471,-0.25443 0,-0.37798 -0.01953,-0.0977 -0.08041,-0.18488 -0.0945,-0.28348 -0.01781,-0.12473 0,-0.25199 0,-0.37798 0,-0.063 0.01236,-0.12721 0,-0.18898 -0.01953,-0.0977 -0.063,-0.18899 -0.09449,-0.28349 -0.0315,-0.0945 -0.063,-0.18899 -0.09449,-0.28348 -0.0315,-0.0945 -0.063,-0.18899 -0.09449,-0.28348 -0.0315,-0.0945 -0.04995,-0.19439 -0.09449,-0.28348 -0.01992,-0.0399 -0.06299,-0.063 -0.09449,-0.0945 -0.0315,-0.0315 -0.07457,-0.0547 -0.09449,-0.0945 -0.01408,-0.0282 0.01407,-0.0663 0,-0.0945 -0.01254,-0.0251 -0.258395,-0.27093 -0.283483,-0.28348 -0.02817,-0.0141 -0.06632,0.0141 -0.0945,0 -0.393261,-0.19663 0.101018,0.007 -0.09449,-0.18899 -0.02228,-0.0223 -0.06632,0.0141 -0.09449,0 -0.07969,-0.0398 -0.109305,-0.14914 -0.18899,-0.18899 -0.02817,-0.0141 -0.06632,0.0141 -0.09449,0 -0.07968,-0.0398 -0.109305,-0.14914 -0.188989,-0.18898 -0.02817,-0.0141 -0.06632,0.0141 -0.09449,0 -0.03984,-0.0199 -0.05465,-0.0746 -0.09449,-0.0945 -0.02817,-0.0141 -0.06632,0.0141 -0.09449,0 -0.03984,-0.0199 -0.05465,-0.0746 -0.0945,-0.0945 -0.02817,-0.0141 -0.06632,0.0141 -0.09449,0 -0.03984,-0.0199 -0.05465,-0.0746 -0.09449,-0.0945 -0.02817,-0.0141 -0.063,0 -0.09449,0 -0.063,0 -0.129223,0.0199 -0.188987,0 -0.04226,-0.0141 -0.05465,-0.0746 -0.09449,-0.0945 -0.05939,-0.0297 -0.318585,0.0297 -0.377979,0 -0.03984,-0.0199 -0.05465,-0.0746 -0.09449,-0.0945 -0.07559,-0.0378 -0.207886,0.0378 -0.283483,0 -0.03984,-0.0199 -0.05465,-0.0746 -0.09449,-0.0945 -0.02876,-0.0144 -0.240927,0 -0.283482,0 -0.220486,0 -0.440971,0 -0.661459,0 -0.06573,0 -0.438298,-0.0171 -0.472469,0 -0.03984,0.0199 -0.05465,0.0746 -0.0945,0.0945 -0.05634,0.0282 -0.132641,-0.0282 -0.188986,0 -0.03984,0.0199 -0.05465,0.0746 -0.09449,0.0945 -0.05634,0.0282 -0.132643,-0.0282 -0.188989,0 -0.313396,0.3134 0.08909,-0.0445 -0.188989,0.0945 -0.03984,0.0199 -0.05465,0.0746 -0.09449,0.0945 -0.02817,0.0141 -0.06632,-0.0141 -0.09449,0 -0.07968,0.0398 -0.10447,0.16082 -0.188989,0.18899 -0.05976,0.0199 -0.129225,-0.0199 -0.188986,0 -0.04226,0.0141 -0.05465,0.0746 -0.0945,0.0945 -0.02817,0.0141 -0.06632,-0.0141 -0.09449,0 -0.03984,0.0199 -0.05743,0.0698 -0.09449,0.0945 -0.0586,0.0391 -0.130387,0.0554 -0.188989,0.0945 -0.07413,0.0494 -0.109302,0.14915 -0.188987,0.18899 -0.02817,0.0141 -0.063,0 -0.0945,0 -0.06299,0.0315 -0.130384,0.0554 -0.188986,0.0945 -0.08154,0.0544 -0.209675,0.20968 -0.283483,0.28348 -0.188989,0.18899 -0.377976,0.37798 -0.566965,0.56697 -0.07381,0.0738 -0.201943,0.22912 -0.283482,0.28348 -0.0586,0.0391 -0.130384,0.0554 -0.188987,0.0945 -0.07413,0.0494 -0.125992,0.126 -0.188989,0.18899 -0.157488,0.15749 -0.314979,0.31498 -0.472469,0.47247 -0.04256,0.0426 -0.269103,0.24035 -0.283483,0.28348 -0.01992,0.0598 0.01527,0.12788 0,0.18899 -0.01709,0.0683 -0.06299,0.126 -0.09449,0.18899 -0.063,0.12599 -0.125992,0.25198 -0.188989,0.37798 -0.0315,0.063 -0.07741,0.12066 -0.09449,0.18899 -0.01527,0.0611 0.01527,0.12787 0,0.18898 -0.03417,0.13666 -0.154823,0.24132 -0.188989,0.37798 -0.01527,0.0611 0.01529,0.12787 0,0.18899 -0.04691,0.18765 -0.236566,0.37931 -0.283482,0.56696 -0.01527,0.0611 0.01992,0.12923 0,0.18899 -0.01408,0.0423 -0.08041,0.0522 -0.09449,0.0945 -0.02988,0.0897 0.02988,0.19384 0,0.28349 -0.02228,0.0668 -0.07222,0.12217 -0.09449,0.18898 -0.02535,0.0761 0.03019,0.3176 0,0.37798 -0.01992,0.0398 -0.07457,0.0547 -0.09449,0.0945 -0.01408,0.0282 0,0.063 0,0.0945 0,0.0315 -0.01408,0.0663 0,0.0945 0.01992,0.0399 0.07457,0.0547 0.09449,0.0945 0.0298,0.0596 -0.02981,0.41285 0,0.47247 0.01992,0.0398 0.07457,0.0547 0.09449,0.0945 0.0378,0.0756 -0.0378,0.20789 0,0.28348 0.01992,0.0399 0.07457,0.0547 0.09449,0.0945 0.01407,0.0282 -0.01408,0.0663 0,0.0945 0.01992,0.0398 0.07458,0.0547 0.0945,0.0945 0.02817,0.0563 -0.02817,0.13264 0,0.18898 0.01992,0.0399 0.07457,0.0547 0.09449,0.0945 0.02817,0.0563 -0.02817,0.13264 0,0.18898 0.01992,0.0399 0.07457,0.0547 0.09449,0.0945 0.01408,0.0282 0,0.063 0,0.0945 0.0315,0.0315 0.07457,0.0547 0.0945,0.0945 0.02817,0.0563 -0.02817,0.13264 0,0.18899 0.01992,0.0398 0.07457,0.0546 0.09449,0.0945 0.01408,0.0282 -0.01407,0.0663 0,0.0945 0.01992,0.0399 0.07457,0.0547 0.09449,0.0945 0.01408,0.0282 -0.01408,0.0663 0,0.0945 0.100594,0.20119 0.08839,-0.0122 0.188989,0.18899 0.01408,0.0282 0,0.063 0,0.0945 0.0315,0.0315 0.07457,0.0547 0.09449,0.0945 0.01408,0.0282 -0.01408,0.0663 0,0.0945 0.03984,0.0797 0.149146,0.10931 0.188989,0.18899 0.01408,0.0282 -0.01408,0.0663 0,0.0945 0.01992,0.0399 0.07457,0.0547 0.09449,0.0945 0.01408,0.0282 -0.01408,0.0663 0,0.0945 0.19663,0.39326 -0.0065,-0.10101 0.188986,0.0945 0.02228,0.0223 -0.01408,0.0663 0,0.0945 0.02524,0.0505 0.233736,0.23374 0.283483,0.28348 0.04975,0.0497 0.233016,0.25825 0.283482,0.28348 0.02817,0.0141 0.07222,-0.0223 0.09449,0 0.02228,0.0223 -0.02228,0.0722 0,0.0945 0.02228,0.0223 0.07222,-0.0223 0.0945,0 0.02228,0.0223 -0.02228,0.0722 0,0.0945 0.02228,0.0223 0.06632,-0.0141 0.09449,0 0.07968,0.0398 0.109305,0.14915 0.188989,0.18899 0.02817,0.0141 0.07222,-0.0223 0.09449,0 0.02228,0.0223 -0.02228,0.0722 0,0.0945 0.02228,0.0223 0.07222,-0.0223 0.09449,0 0.02228,0.0223 -0.02228,0.0722 0,0.0945 0.02228,0.0223 0.06632,-0.0141 0.09449,0 0.03984,0.0199 0.05465,0.0746 0.0945,0.0945 0.02817,0.0141 0.07222,-0.0223 0.09449,0 0.02228,0.0223 -0.02228,0.0722 0,0.0945 0.003,0.003 0.260564,0 0.283483,0 0.188986,0 0.377975,0 0.566965,0 0.0315,0 0.06299,0 0.09449,0 0.0315,0 0.06632,0.0141 0.09449,0 0.03984,-0.0199 0.0563,-0.0716 0.09449,-0.0945 0.12079,-0.0725 0.251986,-0.12599 0.377978,-0.18898 z"
       id="path938"
       inkscape:connector-curvature="0" />
    <path
       style="fill:none;stroke:#000000;stroke-width:0.26458332px;stroke-linecap:butt;stroke-linejoin:miter;stroke-opacity:1"
       d="m 54.145089,165.93155 c 1.296752,-0.34581 1.481384,-0.26129 2.551338,-1.03944 0.342712,-0.24924 0.616968,-0.5821 0.944941,-0.85045 0.02437,-0.0199 0.063,0 0.0945,0 0.06299,-0.063 0.135532,-0.11771 0.188986,-0.18898 0.04226,-0.0563 0.05542,-0.13039 0.09449,-0.18899 0.02471,-0.0371 0.07458,-0.0547 0.0945,-0.0945 0.01408,-0.0282 0,-0.063 0,-0.0945 0.0315,-0.063 0.05223,-0.13264 0.09449,-0.18899 0.05345,-0.0713 0.149145,-0.1093 0.188989,-0.18899 0.02817,-0.0563 -0.01992,-0.12922 0,-0.18898 0.02817,-0.0845 0.160814,-0.10447 0.188986,-0.18899 0.01992,-0.0598 -0.01992,-0.12923 0,-0.18899 0.01408,-0.0423 0.07457,-0.0547 0.09449,-0.0945 0.01408,-0.0282 -0.0076,-0.0639 0,-0.0945 0.02416,-0.0966 0.07034,-0.18685 0.0945,-0.28348 0.0076,-0.0306 -0.01408,-0.0663 0,-0.0945 0.01992,-0.0399 0.08041,-0.0522 0.09449,-0.0945 0,-0.43016 -0.04454,-0.005 0.09449,-0.28348 0.0378,-0.0756 -0.0378,-0.20789 0,-0.28348 0.01992,-0.0399 0.08369,-0.0513 0.0945,-0.0945 0.02156,-0.0863 0,-0.52181 0,-0.66146 0,-0.25198 0,-0.50396 0,-0.75595 0,-0.08 0.01693,-0.32717 0,-0.37797 -0.01408,-0.0423 -0.07457,-0.0547 -0.0945,-0.0945 -0.0378,-0.0756 0.0378,-0.20789 0,-0.28348 -0.01992,-0.0398 -0.08041,-0.0522 -0.09449,-0.0945 -0.01442,-0.0432 0.02103,-0.33593 0,-0.37798 -0.01992,-0.0398 -0.07457,-0.0547 -0.09449,-0.0945 -0.0297,-0.0594 0.02969,-0.31859 0,-0.37798 -0.01992,-0.0398 -0.07457,-0.0546 -0.0945,-0.0945 -0.01408,-0.0282 0.01408,-0.0663 0,-0.0945 -0.01992,-0.0398 -0.07457,-0.0547 -0.09449,-0.0945 -0.01408,-0.0282 0.01408,-0.0663 0,-0.0945 -0.01992,-0.0398 -0.07457,-0.0546 -0.09449,-0.0945 -0.01408,-0.0282 0.01408,-0.0663 0,-0.0945 -0.01992,-0.0398 -0.07457,-0.0547 -0.09449,-0.0945 -0.01408,-0.0282 0.01408,-0.0663 0,-0.0945 -0.03984,-0.0797 -0.149148,-0.10931 -0.188989,-0.18899 -0.01408,-0.0282 0,-0.063 0,-0.0945 -0.0315,-0.063 -0.05543,-0.13039 -0.09449,-0.18899 -0.02471,-0.0371 -0.063,-0.063 -0.0945,-0.0945 -0.09449,-0.0945 -0.188986,-0.18899 -0.283479,-0.28348 -0.0315,-0.0315 -0.07457,-0.0546 -0.0945,-0.0945 -0.08364,-0.16728 0.140554,-0.0323 -0.09449,-0.18899 0.01077,-0.17901 -0.220485,-0.063 -0.283482,-0.0945 -0.03984,-0.0199 -0.063,-0.063 -0.09449,-0.0945 -0.0315,-0.0315 -0.07457,-0.0547 -0.09449,-0.0945 -0.01408,-0.0282 0.02228,-0.0722 0,-0.0945 -0.02228,-0.0223 -0.06632,0.0141 -0.0945,0 -0.07968,-0.0398 -0.109302,-0.14914 -0.188986,-0.18899 -0.02817,-0.0141 -0.06632,0.0141 -0.0945,0 -0.07968,-0.0398 -0.109302,-0.14914 -0.188987,-0.18898 -0.02817,-0.0141 -0.06632,0.0141 -0.09449,0 -0.03984,-0.0199 -0.05465,-0.0746 -0.0945,-0.0945 -0.02817,-0.0141 -0.06632,0.0141 -0.09449,0 -0.20219,-0.10109 0.0132,-0.0879 -0.18899,-0.18899 -0.02817,-0.0141 -0.06632,0.0141 -0.09449,0 -0.03984,-0.0199 -0.05223,-0.0804 -0.09449,-0.0945 -0.05976,-0.0199 -0.129225,0.0199 -0.188989,0 -0.04226,-0.0141 -0.05465,-0.0746 -0.09449,-0.0945 -0.02817,-0.0141 -0.06461,0.01 -0.09449,0 -0.06682,-0.0223 -0.120661,-0.0774 -0.188989,-0.0945 -0.09167,-0.0229 -0.193837,0.0299 -0.283483,0 -0.06681,-0.0223 -0.122168,-0.0722 -0.188986,-0.0945 -0.0625,-0.0208 -0.474139,0 -0.566965,0 -0.157491,0 -0.314982,0 -0.472469,0 -0.0945,0 -0.193839,-0.0299 -0.283483,0 -0.04226,0.0141 -0.05224,0.0804 -0.0945,0.0945 -0.05976,0.0199 -0.125992,0 -0.188986,0 -0.0315,0 -0.06632,-0.0141 -0.09449,0 -0.03984,0.0199 -0.05224,0.0804 -0.0945,0.0945 -0.05976,0.0199 -0.129225,-0.0199 -0.188986,0 -0.04226,0.0141 -0.05465,0.0746 -0.0945,0.0945 -0.02817,0.0141 -0.06632,-0.0141 -0.09449,0 -0.03984,0.0199 -0.05223,0.0804 -0.09449,0.0945 -0.05976,0.0199 -0.129225,-0.0199 -0.188989,0 -0.491612,0.16388 0.302625,0.0251 -0.188987,0.18899 -0.05976,0.0199 -0.129225,-0.0199 -0.188989,0 -0.08452,0.0282 -0.109302,0.14915 -0.188986,0.18899 -0.02817,0.0141 -0.06632,-0.0141 -0.0945,0 -0.07968,0.0398 -0.109302,0.14915 -0.188987,0.18899 -0.02817,0.0141 -0.06632,-0.0141 -0.0945,0 -0.09298,0.0465 -0.284991,0.33148 -0.377976,0.37797 -0.02817,0.0141 -0.06632,-0.0141 -0.09449,0 -0.0181,0.009 -0.368932,0.35989 -0.377976,0.37798 -0.01408,0.0282 0.01408,0.0663 0,0.0945 -0.19663,0.39327 0.0065,-0.10101 -0.188989,0.0945 -0.02228,0.0223 0.01408,0.0663 0,0.0945 -0.313396,0.3134 0.04454,-0.0891 -0.09449,0.18899 -0.196631,0.39326 0.0065,-0.10102 -0.18899,0.0945 -0.02228,0.0223 0.01408,0.0663 0,0.0945 -0.03984,0.0797 -0.149145,0.1093 -0.188986,0.18899 -0.01408,0.0282 0.01408,0.0663 0,0.0945 -0.03984,0.0797 -0.149146,0.10931 -0.188989,0.18899 -0.01408,0.0282 0.01407,0.0663 0,0.0945 -0.03984,0.0797 -0.149146,0.10931 -0.188987,0.18899 -0.01408,0.0282 0.01408,0.0663 0,0.0945 -0.01992,0.0398 -0.07457,0.0547 -0.0945,0.0945 -0.01408,0.0282 0.01408,0.0663 0,0.0945 -0.01992,0.0399 -0.08041,0.0522 -0.09449,0.0945 -0.01992,0.0598 0.01992,0.12922 0,0.18899 -0.01408,0.0422 -0.07457,0.0547 -0.09449,0.0945 -0.01408,0.0282 0,0.063 0,0.0945 0,0.063 0.01992,0.12923 0,0.18899 -0.01408,0.0423 -0.07457,0.0546 -0.09449,0.0945 -0.01408,0.0282 0.0099,0.0646 0,0.0945 -0.02228,0.0668 -0.07222,0.12217 -0.0945,0.18899 -0.0099,0.0299 0.01408,0.0663 0,0.0945 -0.01992,0.0398 -0.08041,0.0522 -0.09449,0.0945 -0.03984,0.11952 0.03984,0.25845 0,0.37797 -0.01408,0.0423 -0.08041,0.0522 -0.09449,0.0945 -0.03984,0.11952 0.03056,0.25574 0,0.37797 -0.01709,0.0683 -0.07741,0.12066 -0.0945,0.18899 -0.02291,0.0917 0.02988,0.19384 0,0.28348 -0.02228,0.0668 -0.07741,0.12066 -0.09449,0.18899 -0.01857,0.0743 0,0.4687 0,0.56696 0,0.0315 0.0099,0.0646 0,0.0945 -0.02228,0.0668 -0.07741,0.12066 -0.09449,0.18899 -0.01527,0.0611 0,0.12599 0,0.18899 0,0.063 0,0.12599 0,0.18898 0,0.28349 0,0.56697 0,0.85045 0,0.15749 0,0.31498 0,0.47247 0,0.063 -0.01992,0.12922 0,0.18899 0.01408,0.0423 0.08041,0.0522 0.09449,0.0945 0.01992,0.0598 -0.01992,0.12923 0,0.18899 0.01407,0.0423 0.08041,0.0522 0.09449,0.0945 0.01992,0.0598 0,0.126 0,0.18899 0,0.0315 -0.01408,0.0663 0,0.0945 0.01992,0.0398 0.063,0.063 0.0945,0.0945 0,0.063 -0.01992,0.12923 0,0.18899 0.01408,0.0423 0.07457,0.0546 0.09449,0.0945 0.01408,0.0282 0,0.063 0,0.0945 0.0315,0.0315 0.07457,0.0547 0.09449,0.0945 0.01408,0.0282 -0.01407,0.0663 0,0.0945 0.01992,0.0398 0.07457,0.0546 0.0945,0.0945 0.01408,0.0282 -0.01408,0.0663 0,0.0945 0.0567,0.1134 0.226785,0.17009 0.28348,0.28348 0.01408,0.0282 -0.02228,0.0722 0,0.0945 0.195514,0.19551 -0.0076,-0.29877 0.188989,0.0945 0.01408,0.0282 -0.02228,0.0722 0,0.0945 0.02228,0.0223 0.07222,-0.0223 0.09449,0 0.02228,0.0223 -0.02228,0.0722 0,0.0945 0.02228,0.0223 0.06632,-0.0141 0.0945,0 0.113392,0.0567 0.170087,0.22679 0.283479,0.28348 0.02817,0.0141 0.06632,-0.0141 0.0945,0 0.03984,0.0199 0.05465,0.0746 0.09449,0.0945 0.02817,0.0141 0.06632,-0.0141 0.09449,0 0.03984,0.0199 0.05465,0.0746 0.0945,0.0945 0.101095,0.0506 0.08789,-0.0505 0.188987,0 0.03984,0.0199 0.05465,0.0746 0.09449,0.0945 0.03747,0.0187 0.264165,-0.0193 0.283482,0 0.02228,0.0223 -0.02228,0.0722 0,0.0945 0.003,0.003 0.260567,0 0.283483,0 0.221607,0 -0.04455,-0.0223 0.188989,0.0945 0.05939,0.0297 0.318585,-0.0297 0.377976,0 0.03984,0.0199 0.05465,0.0746 0.09449,0.0945 0.02876,0.0144 0.240927,0 0.283483,0 0.188989,0 0.377975,0 0.566965,0 0.04941,0 0.353128,0.0124 0.377976,0 0.03984,-0.0199 0.05465,-0.0746 0.09449,-0.0945 0.03747,-0.0187 0.264165,0.0193 0.283482,0 0.02228,-0.0223 -0.02228,-0.0722 0,-0.0945 0.04455,-0.0446 0.144444,0.0445 0.18899,0 0.02228,-0.0223 -0.02228,-0.0722 0,-0.0945 0.04454,-0.0446 0.13264,0.0282 0.188986,0 0.03984,-0.0199 0.05465,-0.0746 0.09449,-0.0945 0.02817,-0.0141 0.08685,0.0306 0.0945,0 0.03056,-0.12223 0,-0.25198 0,-0.37797 z"
       id="path944"
       inkscape:connector-curvature="0" />
    <path
       style="fill:none;stroke:#000000;stroke-width:0.26458332px;stroke-linecap:butt;stroke-linejoin:miter;stroke-opacity:1"
       d="m 297.84524,77.863093 c 0.81658,0.74086 1.67431,1.553038 2.56572,2.196817 0.29112,0.21027 0.62748,0.349766 0.93543,0.53454 0.13772,0.08263 0.25725,0.195443 0.4009,0.267269 0.0398,0.01992 0.0938,-0.01992 0.13364,0 0.0564,0.02817 0.0891,0.08909 0.13364,0.133636 0.0445,0.04454 0.10546,0.07729 0.13364,0.133633 0.0922,0.18433 -0.16185,0.119533 0.13361,0.267269 0.0399,0.01992 0.0938,-0.01992 0.13365,0 0.29548,0.147738 0.0415,0.08294 0.13364,0.267271 0.0282,0.05635 0.0891,0.08909 0.13364,0.133633 0.0786,0.0786 0.50358,0.472657 0.53454,0.534541 0.0198,0.03984 -0.0315,0.102137 0,0.133633 0.0315,0.0315 0.0938,-0.01992 0.13361,0 0.0713,0.03565 0.19598,0.231621 0.26728,0.267271 0.0399,0.01992 0.10213,-0.0315 0.13364,0 0.0315,0.0315 -0.0315,0.102138 0,0.133634 0.0315,0.0315 0.0938,-0.01992 0.13362,0 0.0564,0.02817 0.0891,0.08909 0.13364,0.133635 0.0446,0.04455 0.0891,0.08909 0.13364,0.133636 0.0446,0.04454 0.0891,0.08909 0.13364,0.133633 0.0445,0.04454 0.0773,0.105463 0.13362,0.133636 0.0398,0.01992 0.0938,-0.01992 0.13364,0 0.0563,0.02817 0.0773,0.105463 0.13364,0.133633 0.0398,0.01992 0.0938,-0.01992 0.13364,0 0.0563,0.02817 0.0773,0.105463 0.13364,0.133636 0.0398,0.01992 0.10213,-0.0315 0.13361,0 0.0315,0.0315 -0.0198,0.09379 0,0.133635 0.27808,0.556155 -0.009,-0.142861 0.26729,0.133634 0.0315,0.0315 -0.0315,0.102137 0,0.133635 0.0315,0.0315 0.0938,-0.01992 0.13364,0 0.0355,0.01773 0.38314,0.365424 0.40089,0.400905 0.0199,0.03984 -0.0198,0.09379 0,0.133633 0.0282,0.05635 0.10547,0.07729 0.13364,0.133636 0.0198,0.03984 -0.0315,0.102137 0,0.133636 0.0315,0.0315 0.10213,-0.0315 0.13362,0 0.063,0.06299 -0.0398,0.187584 0,0.267268 0.0282,0.05635 0.10546,0.07729 0.13364,0.133636 0.0399,0.07969 -0.063,0.204272 0,0.267269 0.0315,0.0315 0.10213,-0.0315 0.13364,0 0.0273,0.02732 -0.0265,0.347919 0,0.400905 0.0282,0.05634 0.10546,0.07729 0.13364,0.133633 0.0198,0.03984 0,0.08909 0,0.133635 0,0.04455 0,0.08909 0,0.133636 0,0.267269 0,0.534538 0,0.801807 0,0.04454 0.0315,0.102137 0,0.133635 -0.0315,0.0315 -0.10215,-0.0315 -0.13364,0 -0.0298,0.0298 0.0265,0.588701 0,0.668174 -0.0198,0.05976 -0.10546,0.07729 -0.13364,0.133636 -0.0198,0.03984 0.0198,0.09379 0,0.133633 -0.0282,0.05635 -0.11372,0.07387 -0.13364,0.133636 -0.0282,0.08452 0.0399,0.187584 0,0.267268 -0.0198,0.03984 -0.10213,-0.0315 -0.13362,0 -0.0315,0.0315 0.0198,0.09379 0,0.133636 -0.0177,0.03548 -0.36544,0.383164 -0.40092,0.400905 -0.0398,0.01992 -0.0938,-0.01992 -0.13361,0 -0.0564,0.02817 -0.0891,0.08909 -0.13364,0.133633 -0.0446,0.04454 -0.10547,0.07729 -0.13365,0.133636 -0.0198,0.03984 0.0315,0.102137 0,0.133635 -0.0315,0.0315 -0.0938,-0.01992 -0.13364,0 -0.11268,0.05635 -0.16242,0.197382 -0.26725,0.267269 -0.0829,0.05525 -0.18439,0.07838 -0.26728,0.133636 -0.10483,0.06989 -0.14775,0.227425 -0.26726,0.267269 -0.0845,0.02817 -0.18275,-0.02817 -0.26728,0 -0.11951,0.03984 -0.16243,0.197382 -0.26726,0.267269 -0.0829,0.05525 -0.18439,0.07838 -0.26728,0.133635 -0.10483,0.06989 -0.16243,0.197382 -0.26725,0.267269 -0.0829,0.05525 -0.18442,0.07838 -0.26729,0.133636 -0.0524,0.03494 -0.0739,0.113713 -0.13364,0.133633 -0.0845,0.02817 -0.18275,-0.02817 -0.26725,0 -0.11954,0.03984 -0.1546,0.210926 -0.26729,0.267269 -0.0398,0.01992 -0.0938,-0.01992 -0.13361,0 -0.0564,0.02817 -0.0739,0.113715 -0.13364,0.133636 -0.0845,0.02817 -0.18275,-0.02817 -0.26728,0 -0.0598,0.01992 -0.0773,0.105463 -0.13364,0.133635 -0.0407,0.02032 -0.34071,0 -0.4009,0 -0.0699,0 -0.4994,0.01757 -0.53454,0 -0.0563,-0.02817 -0.0773,-0.105462 -0.13364,-0.133635 -0.0398,-0.01992 -0.10213,0.0315 -0.13361,0 -0.0315,-0.0315 0.0315,-0.102137 0,-0.133636 -0.063,-0.063 -0.18759,0.03984 -0.26729,0 -0.0563,-0.02817 -0.0773,-0.10546 -0.13364,-0.133633 -0.0398,-0.01992 -0.10213,0.0315 -0.13361,0 -0.0315,-0.0315 0.0315,-0.102137 0,-0.133636 -0.0315,-0.0315 -0.0938,0.01992 -0.13364,0 -0.0564,-0.02817 -0.0773,-0.10546 -0.13364,-0.133633 -0.18434,-0.09216 -0.11954,0.161838 -0.26726,-0.133636 -0.0198,-0.03984 0.0315,-0.102137 0,-0.133636 -0.0315,-0.0315 -0.0938,0.01992 -0.13364,0 -0.11845,-0.05922 -0.27927,-0.319804 -0.40092,-0.400904 -0.0829,-0.05525 -0.19683,-0.0632 -0.26726,-0.133633 -0.0315,-0.0315 0.0198,-0.09379 0,-0.133636 -0.27808,-0.556154 0.009,0.142862 -0.26728,-0.133633 -0.0315,-0.0315 0,-0.08909 0,-0.133636 -0.0445,-0.04454 -0.0812,-0.09869 -0.13362,-0.133636 -0.0829,-0.05525 -0.18441,-0.07838 -0.26728,-0.133633 -0.0524,-0.03494 -0.0773,-0.105463 -0.13364,-0.133635 -0.0398,-0.01992 -0.0938,0.01992 -0.13361,0 -0.0564,-0.02817 -0.0891,-0.08909 -0.13364,-0.133636 -0.0446,-0.04454 -0.10547,-0.07729 -0.13365,-0.133633 -0.0198,-0.03984 0.0315,-0.102137 0,-0.133636 -0.0315,-0.0315 -0.10213,0.0315 -0.13364,0 -0.0315,-0.0315 0.0198,-0.09379 0,-0.133633 -0.0802,-0.160364 -0.32072,-0.240543 -0.40089,-0.400905 -0.0199,-0.03984 0.0315,-0.102137 0,-0.133635 -0.27649,-0.276495 0.0108,0.422521 -0.26729,-0.133636 0,-0.35636 0.0446,0.04454 -0.13361,-0.133633 -0.0315,-0.0315 0.0198,-0.09379 0,-0.133636 -0.0282,-0.05635 -0.0891,-0.08909 -0.13364,-0.133633 -0.0446,-0.04454 -0.0773,-0.105463 -0.13364,-0.133636 -0.0399,-0.01992 -0.10213,0.0315 -0.13364,0 -0.0315,-0.0315 0.0315,-0.102137 0,-0.133636 -0.0315,-0.0315 -0.10213,0.0315 -0.13362,0 -0.0315,-0.0315 0.0315,-0.102137 0,-0.133633 -0.0315,-0.0315 -0.0938,0.01992 -0.13364,0 -0.0564,-0.02817 -0.0773,-0.105463 -0.13364,-0.133636 -0.0797,-0.03984 -0.20426,0.063 -0.26726,0 -0.0315,-0.0315 0.0315,-0.102137 0,-0.133635 -0.063,-0.063 -0.18759,0.03984 -0.26728,0 -0.0563,-0.02817 -0.0773,-0.105461 -0.13364,-0.133633 -0.0274,-0.01371 -0.38206,-0.01884 -0.4009,0 -0.0315,0.0315 0.0315,0.102137 0,0.133633 -0.0366,0.03657 -0.46204,-0.03625 -0.53453,0 -0.0564,0.02817 -0.0739,0.113715 -0.13364,0.133635 -0.0845,0.02817 -0.17817,0 -0.26726,0 -0.0446,0 -0.0938,-0.01992 -0.13364,0 -0.0564,0.02817 -0.0773,0.105463 -0.13364,0.133636 -0.0399,0.01992 -0.0891,0 -0.13364,0 -0.0445,0 -0.0891,0 -0.13362,0 -0.0929,0 -0.61986,0.02416 -0.66818,0 -0.0564,-0.02817 -0.0773,-0.105463 -0.13364,-0.133636 -0.0398,-0.01992 -0.0938,0.01992 -0.13364,0 -0.0257,-0.01278 -0.52173,-0.508957 -0.53454,-0.534537 -0.0198,-0.03984 0.0198,-0.0938 0,-0.133636 -0.0282,-0.05635 -0.11371,-0.07387 -0.13361,-0.133636 -0.0282,-0.08452 0,-0.178178 0,-0.267269 0,-0.04454 0.0198,-0.09379 0,-0.133635 -0.0282,-0.05635 -0.10546,-0.07729 -0.13364,-0.133633 -0.0399,-0.07968 0.0398,-0.187587 0,-0.267272 -0.0282,-0.05634 -0.11372,-0.07387 -0.13364,-0.133633 -0.0204,-0.06112 0.0297,-0.475075 0,-0.53454 -0.0282,-0.05635 -0.10547,-0.07729 -0.13364,-0.133633 -0.0421,-0.08431 0.0421,-0.58387 0,-0.668174 -0.0282,-0.05635 -0.10547,-0.07729 -0.13364,-0.133636 -0.0198,-0.03984 0.0315,-0.102137 0,-0.133635 -0.0469,-0.04691 -0.57587,0.04615 -0.66816,0 -0.0564,-0.02817 -0.0739,-0.113713 -0.13364,-0.133634 0,-2.03e-4 -0.40079,1.27e-4 -0.40089,0 -0.0315,-0.0315 0.0398,-0.113715 0,-0.133635 -0.0865,-0.04323 -0.48655,0.048 -0.53454,0 -0.0315,-0.0315 0.0315,-0.102137 0,-0.133636 -0.0322,-0.03216 -0.50239,0.03216 -0.53457,0 -0.0315,-0.0315 0.0315,-0.102134 0,-0.133633 -0.0469,-0.04691 -0.57586,0.04615 -0.66815,0 -0.0564,-0.02817 -0.0773,-0.105463 -0.13364,-0.133636 -0.0274,-0.01371 -0.38206,-0.01884 -0.4009,0 -0.0315,0.0315 0.0398,0.113715 0,0.133636 -0.11356,0.05677 -0.53533,-0.04428 -0.66818,0 -0.0598,0.01992 -0.0773,0.105463 -0.13364,0.133633 -0.10691,0.05346 -0.294,-0.05345 -0.40089,0 -0.0564,0.02817 -0.0773,0.105463 -0.13364,0.133636 -0.10692,0.05345 -0.29401,-0.05345 -0.4009,0 -0.0564,0.02817 -0.0773,0.105463 -0.13364,0.133635 -0.10692,0.05345 -0.29401,-0.05345 -0.4009,0 -0.0563,0.02817 -0.0773,0.105461 -0.13364,0.133634 -0.0399,0.01992 -0.0938,-0.01992 -0.13364,0 -0.0563,0.02817 -0.0773,0.105463 -0.13364,0.133635 -0.0797,0.03984 -0.18756,-0.03984 -0.26726,0 -0.0564,0.02817 -0.0773,0.105463 -0.13364,0.133636 -0.0398,0.01992 -0.0938,-0.01992 -0.13364,0 -0.0355,0.01773 -0.38314,0.365421 -0.4009,0.400902 -0.0198,0.03984 0.0315,0.102137 0,0.133636 -0.0315,0.0315 -0.10213,-0.0315 -0.13364,0 -0.0315,0.0315 0,0.08909 0,0.133636 0,0.09295 -0.0241,0.619847 0,0.668173 0.0282,0.05635 0.10547,0.07729 0.13364,0.133633 0.0399,0.07968 -0.0398,0.187587 0,0.267272 0.0564,0.112691 0.22744,0.147743 0.26729,0.267268 0.0281,0.08452 -0.0399,0.187585 0,0.267269 0.0198,0.03984 0.10213,-0.0315 0.13361,0 0.0315,0.0315 -0.014,0.09138 0,0.133636 0.0315,0.09449 0.0784,0.184393 0.13364,0.267269 0.0349,0.05242 0.11372,0.07387 0.13364,0.133636 0.0282,0.08452 -0.0217,0.18084 0,0.267268 0.0241,0.09663 0.10213,0.172776 0.13364,0.267269 0.0401,0.120272 -0.0401,0.280633 0,0.400905 0.0199,0.05976 0.10547,0.07729 0.13362,0.133636 0.0204,0.04067 0,0.34072 0,0.400904 0,0.06988 0.0175,0.499401 0,0.534538 -0.0281,0.05635 -0.10546,0.07729 -0.13362,0.133636 -0.0198,0.03984 0.0199,0.09379 0,0.133633 -0.0282,0.05634 -0.10546,0.07729 -0.13364,0.133636 -0.0198,0.03984 0.0198,0.09379 0,0.133635 -0.0802,0.160362 -0.32073,0.240541 -0.40089,0.400905 -0.16833,0.336624 0.50755,-0.115649 -0.26729,0.400902 -0.0371,0.02471 -0.10213,-0.0315 -0.13364,0 -0.0315,0.0315 0.0246,0.09657 0,0.133636 -0.0336,0.05036 -0.57465,0.605824 -0.66818,0.668173 -0.0829,0.05525 -0.18756,0.07387 -0.26725,0.133636 -0.10081,0.07559 -0.16243,0.197382 -0.26728,0.267269 -0.037,0.02471 -0.0938,-0.01992 -0.13362,0 -0.0563,0.02817 -0.0812,0.09869 -0.13364,0.133635 -0.0829,0.05525 -0.18439,0.07838 -0.26728,0.133634 -0.0524,0.03494 -0.0773,0.105462 -0.13362,0.133635 -0.0797,0.03984 -0.18759,-0.03984 -0.26728,0 -0.0564,0.02817 -0.0812,0.09869 -0.13364,0.133636 -0.0829,0.05525 -0.18439,0.07838 -0.26725,0.133633 -0.0524,0.03494 -0.0773,0.105463 -0.13365,0.133636 -0.0398,0.01992 -0.0938,-0.01992 -0.13364,0 -0.61158,0.305797 0.56708,-0.05539 -0.40089,0.267269 -0.0423,0.01408 -0.0891,0 -0.13364,0 -0.17817,0.04454 -0.36029,0.07555 -0.53454,0.133635 -0.24186,-0.08055 -0.24853,0.21648 -0.4009,0.267269 -0.0845,0.02817 -0.18275,-0.02817 -0.26728,0 -0.0597,0.01992 -0.0773,0.105463 -0.13362,0.133636 -0.0398,0.01992 -0.0938,-0.01992 -0.13364,0 -0.0564,0.02817 -0.0773,0.10546 -0.13364,0.133633 -0.084,0.042 -0.45053,-0.04199 -0.53454,0 -0.0564,0.02817 -0.0773,0.105463 -0.13364,0.133636 -0.0346,0.01728 -0.70707,0 -0.80179,0 -0.0446,0 -0.10216,-0.0315 -0.13364,0 -0.0315,0.0315 0.0315,0.102137 0,0.133636 -0.0668,0.06682 -0.33409,-0.06682 -0.4009,0 -0.0315,0.0315 0.0315,0.102134 0,0.133633 -0.0315,0.0315 -0.10215,-0.0315 -0.13364,0 -0.0315,0.0315 0.0315,0.102137 0,0.133636 -0.0315,0.0315 -0.0938,-0.01992 -0.13364,0 -0.0564,0.02817 -0.0773,0.10546 -0.13364,0.133633 -0.0399,0.01992 -0.10213,-0.0315 -0.13361,0 -0.0315,0.0315 0.0315,0.102137 0,0.133635 -0.0315,0.0315 -0.10216,-0.0315 -0.13365,0 -0.0315,0.0315 0.0315,0.102137 0,0.133636 -0.0315,0.0315 -0.10213,-0.0315 -0.13364,0 -0.063,0.063 0.0399,0.187584 0,0.267269 -0.0282,0.05635 -0.10546,0.07729 -0.13364,0.133636 -0.0265,0.05298 0.0273,0.373583 0,0.400902 -0.0315,0.0315 -0.10213,-0.0315 -0.13361,0 -0.0315,0.0315 0,0.08909 0,0.133635 0,0.222724 0,0.44545 0,0.668174 0,0.04908 -0.005,0.529161 0,0.53454 0.0315,0.0315 0.10213,-0.0315 0.13361,0 0.0315,0.0315 0,0.08909 0,0.133633 0,0.04455 0,0.08909 0,0.133636 0,0.356359 0,0.712719 0,1.069078 0,0.04454 0.0315,0.102137 0,0.133636 -0.0315,0.0315 -0.10213,-0.0315 -0.13361,0 -0.0366,0.03656 0.0362,0.462042 0,0.534538 -0.0282,0.05634 -0.10547,0.07729 -0.13364,0.133635 -0.0199,0.03984 0.0315,0.102137 0,0.133633 -0.0315,0.0315 -0.10216,-0.0315 -0.13364,0 -0.0315,0.0315 0.0315,0.102138 0,0.133636 -0.0315,0.0315 -0.10213,-0.0315 -0.13365,0 -0.0315,0.0315 0.0315,0.102137 0,0.133636 -0.063,0.063 -0.18759,-0.03984 -0.26725,0 -0.0564,0.02817 -0.0773,0.10546 -0.13364,0.133633 -0.0351,0.01757 -0.46466,0 -0.53454,0 -0.0446,0 -0.10213,0.0315 -0.13364,0 -0.0315,-0.0315 0.0315,-0.102137 0,-0.133633 -0.0273,-0.02732 -0.34793,0.02649 -0.4009,0 -0.0564,-0.02817 -0.0773,-0.105463 -0.13364,-0.133636 -0.0399,-0.01992 -0.0891,0 -0.13364,0 -0.0445,-0.04454 -0.0773,-0.105463 -0.13361,-0.133636 -0.0797,-0.03984 -0.18759,0.03984 -0.26729,0 -0.0564,-0.02817 -0.0773,-0.10546 -0.13364,-0.133633 -0.0398,-0.01992 -0.0938,0.01992 -0.13364,0 -0.55615,-0.278079 0.14288,0.0092 -0.13361,-0.267271 -0.0315,-0.0315 -0.0938,0.01992 -0.13364,0 -0.1315,-0.06575 -0.40304,-0.468789 -0.53454,-0.534538 -0.0399,-0.01992 -0.10213,0.0315 -0.13364,0 -0.0315,-0.0315 0.0315,-0.102137 0,-0.133636 -0.0315,-0.0315 -0.10213,0.0315 -0.13364,0 -0.0315,-0.0315 0.0315,-0.102137 0,-0.133633 -0.27649,-0.276495 0.0108,0.422521 -0.26726,-0.133635 -0.0198,-0.03984 0.0315,-0.102138 0,-0.133636 -0.0315,-0.0315 -0.0938,0.01992 -0.13364,0 -0.0563,-0.02817 -0.0773,-0.10546 -0.13364,-0.133633 -0.0399,-0.01992 -0.10213,0.0315 -0.13362,0 -0.0315,-0.0315 0.0315,-0.102137 0,-0.133636 -0.0315,-0.0315 -0.10215,0.0315 -0.13364,0 -0.0315,-0.0315 0.0315,-0.102137 0,-0.133633 -0.0315,-0.0315 -0.10213,0.0315 -0.13364,0 -0.0315,-0.0315 0.0315,-0.102137 0,-0.133636 -0.0315,-0.0315 -0.10213,0.0315 -0.13364,0 -0.0315,-0.0315 0.0315,-0.102137 0,-0.133636 -0.0315,-0.0315 -0.0938,0.01992 -0.13361,0 -0.0564,-0.02817 -0.0773,-0.10546 -0.13365,-0.133633 -0.0398,-0.01992 -0.0938,0.01992 -0.13364,0 -0.0564,-0.02817 -0.0773,-0.105463 -0.13364,-0.133636 -0.0398,-0.01992 -0.10213,0.0315 -0.13364,0 -0.0315,-0.0315 0.0315,-0.102137 0,-0.133635 -0.063,-0.063 -0.18756,0.03984 -0.26725,0 -0.0564,-0.02817 -0.0773,-0.105461 -0.13364,-0.133633 -0.0399,-0.01992 -0.0938,0.01992 -0.13365,0 -0.0563,-0.02817 -0.0773,-0.105463 -0.13361,-0.133636 -0.0399,-0.01992 -0.0938,0.01992 -0.13364,0 -0.0564,-0.02817 -0.0773,-0.105463 -0.13364,-0.133633 -0.0399,-0.01992 -0.0938,0.01992 -0.13364,0 -0.0563,-0.02817 -0.0773,-0.105463 -0.13362,-0.133636 -0.0797,-0.03984 -0.20428,0.063 -0.26728,0 -0.0315,-0.0315 0.0315,-0.102137 0,-0.133636 -0.063,-0.06299 -0.18759,0.03984 -0.26726,0 -0.0564,-0.02817 -0.0773,-0.10546 -0.13364,-0.133633 -0.0797,-0.03984 -0.18759,0.03984 -0.26728,0 -0.0563,-0.02817 -0.0773,-0.105463 -0.13361,-0.133636 -0.0797,-0.03984 -0.18759,0.03984 -0.26729,0 -0.0564,-0.02817 -0.0773,-0.105462 -0.13364,-0.133635 -0.0398,-0.01992 -0.0938,0.01992 -0.13364,0 -0.0563,-0.02817 -0.0773,-0.105461 -0.13361,-0.133633 -0.0797,-0.03984 -0.18275,0.02817 -0.26728,0 -0.0945,-0.0315 -0.17278,-0.102138 -0.26726,-0.133636 -0.0423,-0.01408 -0.0938,0.01992 -0.13364,0 -0.0564,-0.02817 -0.0773,-0.105463 -0.13364,-0.133633 -0.0398,-0.01992 -0.0938,0.01992 -0.13364,0 -0.0563,-0.02817 -0.0773,-0.105463 -0.13362,-0.133636 -0.0398,-0.01992 -0.0938,0.01992 -0.13364,0 -0.11268,-0.05635 -0.14774,-0.227428 -0.26728,-0.267269 -0.0845,-0.02817 -0.18759,0.03984 -0.26726,0 -0.0398,-0.01992 0.0315,-0.102137 0,-0.133636 -0.0315,-0.0315 -0.0914,0.01408 -0.13364,0 -0.96797,-0.322656 0.21069,0.03853 -0.40089,-0.267268 -0.0399,-0.01992 -0.0938,0.01992 -0.13365,0 -0.0564,-0.02817 -0.0773,-0.105463 -0.13364,-0.133636 -0.0398,-0.01992 -0.0938,0.01992 -0.13363,0 -0.11844,-0.05922 -0.27925,-0.319805 -0.4009,-0.400905 0.016,-0.252775 -0.31216,-0.08926 -0.4009,-0.133633 -0.0564,-0.02817 -0.0812,-0.09869 -0.13364,-0.133636 -0.0829,-0.05525 -0.18439,-0.07838 -0.26727,-0.133635 -0.0524,-0.03494 -0.0773,-0.105461 -0.13363,-0.133634 -0.0398,-0.01992 -0.0914,0.01408 -0.13364,0 -0.0945,-0.0315 -0.17277,-0.102137 -0.26727,-0.133635 -0.0845,-0.02817 -0.20427,0.063 -0.26727,0 -0.0315,-0.0315 0.0315,-0.102137 0,-0.133636 -0.0315,-0.0315 -0.0914,0.01408 -0.13363,0 -0.0945,-0.0315 -0.17278,-0.102134 -0.26727,-0.133633 -0.0423,-0.01408 -0.0938,0.01992 -0.13364,0 -0.0563,-0.02817 -0.0773,-0.105463 -0.13363,-0.133636 -0.0398,-0.01992 -0.0938,0.01992 -0.13364,0 -0.0563,-0.02817 -0.0773,-0.10546 -0.13363,-0.133633 -0.0797,-0.03984 -0.20427,0.063 -0.26727,0 -0.0315,-0.0315 0.0315,-0.102137 0,-0.133636 -0.063,-0.063 -0.18759,0.03984 -0.26727,0 -0.0564,-0.02817 -0.0773,-0.105463 -0.13364,-0.133635 -0.0398,-0.01992 -0.0938,0.01992 -0.13363,0 -0.0563,-0.02817 -0.0773,-0.105461 -0.13363,-0.133634 -0.0399,-0.01992 -0.10214,0.0315 -0.13364,0 -0.0315,-0.0315 0.0315,-0.102137 0,-0.133635 -0.0273,-0.02732 -0.34792,0.02649 -0.4009,0 -0.0564,-0.02817 -0.0773,-0.105463 -0.13364,-0.133636 -0.0797,-0.03984 -0.20427,0.063 -0.26727,0 -0.0315,-0.0315 0.0315,-0.102135 0,-0.133633 -0.0322,-0.03216 -0.50238,0.03216 -0.53454,0 -0.0315,-0.0315 0.0315,-0.102137 0,-0.133636 -0.0414,-0.04138 -0.62679,0.04138 -0.66817,0 -0.0315,-0.0315 0.0315,-0.102137 0,-0.133633 -0.0366,-0.03656 -0.46204,0.03625 -0.53454,0 -0.0563,-0.02817 -0.0773,-0.105463 -0.13363,-0.133636 -0.0797,-0.03984 -0.18759,0.03984 -0.26727,0 -0.0564,-0.02817 -0.0773,-0.105463 -0.13364,-0.133636 -0.0797,-0.03984 -0.18758,0.03984 -0.26727,0 -0.0563,-0.02817 -0.0773,-0.10546 -0.13363,-0.133633 -0.0797,-0.03984 -0.18759,0.03984 -0.26727,0 -0.0564,-0.02817 -0.0773,-0.105463 -0.13364,-0.133635 -0.053,-0.02649 -0.37358,0.02732 -0.4009,0 -0.0315,-0.0315 0.0315,-0.102137 0,-0.133636 -0.0366,-0.03657 -0.46204,0.03625 -0.53454,0 -0.0564,-0.02817 -0.0739,-0.113713 -0.13364,-0.133633 -0.0845,-0.02817 -0.17817,0 -0.26726,0 -0.0446,0 -0.0938,0.01992 -0.13364,0 -0.0563,-0.02817 -0.0773,-0.105463 -0.13363,-0.133636 -0.0483,-0.02416 -0.57523,0 -0.66818,0 -0.0445,0 -0.10213,0.0315 -0.13363,0 -0.0315,-0.0315 0.0315,-0.102137 0,-0.133633 -0.004,-0.0043 -0.3685,0 -0.40091,0 -0.44545,0 -0.89089,0 -1.33634,0 -0.0699,0 -0.49941,-0.01757 -0.53454,0 -0.0564,0.02817 -0.0773,0.10546 -0.13364,0.133633 -0.0812,0.04057 -0.72066,-0.04057 -0.80181,0 -0.0563,0.02817 -0.0773,0.105463 -0.13363,0.133636 -0.0595,0.02973 -0.47342,-0.02037 -0.53454,0 -0.0598,0.01992 -0.0773,0.105463 -0.13364,0.133633 -0.1069,0.05346 -0.29399,-0.05345 -0.4009,0 -0.0563,0.02817 -0.0773,0.105463 -0.13363,0.133636 -0.10691,0.05345 -0.294,-0.05345 -0.40091,0 -0.0563,0.02817 -0.0773,0.105463 -0.13363,0.133635 -0.084,0.042 -0.45055,-0.042 -0.53454,0 -0.0564,0.02817 -0.0773,0.105461 -0.13364,0.133633 -0.1069,0.05345 -0.29399,-0.05345 -0.4009,0 -0.0563,0.02817 -0.0773,0.105463 -0.13364,0.133636 -0.1069,0.05345 -0.29399,-0.05345 -0.4009,0 -0.0564,0.02817 -0.0773,0.105463 -0.13364,0.133636 -0.1069,0.05345 -0.29399,-0.05345 -0.4009,0 -0.0564,0.02817 -0.0773,0.10546 -0.13363,0.133633 -0.0797,0.03984 -0.20428,-0.063 -0.26727,0 -0.0315,0.0315 0.0315,0.102137 0,0.133636 -0.0273,0.02732 -0.34792,-0.02649 -0.40091,0 -0.0563,0.02817 -0.0773,0.105463 -0.13363,0.133633 -0.0797,0.03984 -0.18759,-0.03984 -0.26727,0 -0.0564,0.02817 -0.0773,0.105463 -0.13364,0.133636 -0.0797,0.03984 -0.18758,-0.03984 -0.26727,0 -0.0563,0.02817 -0.0773,0.105463 -0.13363,0.133635 -0.0398,0.01992 -0.0938,-0.01992 -0.13364,0 -0.0563,0.02817 -0.0773,0.105461 -0.13363,0.133634 -0.0398,0.01992 -0.0938,-0.01992 -0.13364,0 -0.0563,0.02817 -0.0773,0.105462 -0.13363,0.133635 -0.0398,0.01992 -0.0938,-0.01992 -0.13364,0 -0.0563,0.02817 -0.0773,0.105463 -0.13363,0.133636 -0.0398,0.01992 -0.0938,-0.01992 -0.13363,0 -0.0563,0.02817 -0.0773,0.10546 -0.13364,0.133633 -0.0398,0.01992 -0.10214,-0.0315 -0.13364,0 -0.0315,0.0315 0.0315,0.102137 0,0.133636 -0.0315,0.0315 -0.0938,-0.01992 -0.13363,0 -0.11269,0.05635 -0.14774,0.227428 -0.26727,0.267269 -0.0845,0.02817 -0.18758,-0.03984 -0.26727,0 -0.0398,0.01992 0.0398,0.113715 0,0.133635 -0.0797,0.03984 -0.18275,-0.02817 -0.26727,0 -0.0598,0.01992 -0.0773,0.105461 -0.13363,0.133634 -0.0398,0.01992 -0.0938,-0.01992 -0.13364,0 -0.0563,0.02817 -0.0773,0.105462 -0.13363,0.133635 -0.0398,0.01992 -0.0938,-0.01992 -0.13364,0 -0.16036,0.08018 -0.24054,0.320723 -0.4009,0.400905 -0.0398,0.01992 -0.0938,-0.01992 -0.13364,0 -0.1315,0.06575 -0.40304,0.468789 -0.53453,0.534538 -0.0398,0.01992 -0.10214,-0.0315 -0.13364,0 -0.0315,0.0315 0.0315,0.102137 0,0.133635 -0.0315,0.0315 -0.0938,-0.01992 -0.13363,0 -0.0563,0.02817 -0.0773,0.105463 -0.13364,0.133636 -0.0398,0.01992 -0.0938,-0.01992 -0.13363,0 -0.0563,0.02817 -0.0773,0.10546 -0.13364,0.133633 -0.0398,0.01992 -0.10213,-0.0315 -0.13363,0 -0.0315,0.0315 0.0315,0.102137 0,0.133636 -0.063,0.063 -0.20428,-0.063 -0.26727,0 -0.0315,0.0315 0.0315,0.102137 0,0.133636 -0.063,0.06299 -0.18759,-0.03984 -0.26727,0 -0.0564,0.02817 -0.0773,0.10546 -0.13364,0.133633 -0.0797,0.03984 -0.18758,-0.03984 -0.26727,0 -0.0563,0.02817 -0.0773,0.105463 -0.13363,0.133636 -0.053,0.02649 -0.37359,-0.02732 -0.40091,0 -0.0315,0.0315 0.0315,0.102137 0,0.133633 -0.0668,0.06682 -0.33408,-0.06682 -0.4009,0 -0.0315,0.0315 0.0315,0.102137 0,0.133635 -0.0315,0.0315 -0.0891,0 -0.13364,0 -0.0445,0 -0.0891,0 -0.13363,0 -0.26727,0 -0.53454,0 -0.80181,0 -0.0445,0 -0.0891,0 -0.13363,0 -0.0445,0 -0.0938,0.01992 -0.13364,0 -0.0563,-0.02817 -0.0773,-0.105462 -0.13363,-0.133635 -0.0398,-0.01992 -0.0938,0.01992 -0.13364,0 -0.0563,-0.02817 -0.0773,-0.105461 -0.13363,-0.133633 -0.0398,-0.01992 -0.0938,0.01992 -0.13364,0 -0.16036,-0.08018 -0.24054,-0.320726 -0.4009,-0.400905 -0.0398,-0.01992 -0.0938,0.01992 -0.13363,0 -0.1127,-0.05635 -0.15458,-0.210923 -0.26728,-0.267269 -0.0398,-0.01992 -0.0938,0.01992 -0.13363,0 -0.11269,-0.05635 -0.15458,-0.210926 -0.26727,-0.267271 -0.0398,-0.01992 -0.0938,0.01992 -0.13363,0 -0.55616,-0.278077 0.14286,0.0092 -0.13364,-0.267269 -0.0315,-0.0315 -0.10214,0.0315 -0.13363,0 -0.2765,-0.276495 0.42252,0.0108 -0.13364,-0.267269 -0.0398,-0.01992 -0.10214,0.0315 -0.13363,0 -0.063,-0.063 0.0398,-0.187584 0,-0.267269 -0.0282,-0.05635 -0.10546,-0.07729 -0.13364,-0.133636 -0.0199,-0.03984 0.0199,-0.09379 0,-0.133635 -0.0282,-0.05635 -0.10546,-0.07729 -0.13363,-0.133634 -0.0199,-0.03984 0.0315,-0.102137 0,-0.133635 -0.0315,-0.0315 -0.10214,0.0315 -0.13364,0 -0.0315,-0.0315 0.0199,-0.09379 0,-0.133636 -0.0282,-0.05634 -0.10546,-0.07729 -0.13363,-0.133633 -0.0199,-0.03984 0.0315,-0.102137 0,-0.133636 -0.063,-0.063 -0.20428,0.063 -0.26727,0 -0.0315,-0.0315 0.0315,-0.102137 0,-0.133633 -0.0315,-0.0315 -0.0891,0 -0.13364,0 -0.31181,0 -0.62362,0 -0.93544,0 -0.31182,0 -0.62363,0 -0.93544,0 -0.0445,0 -0.10214,0.0315 -0.13364,0 -0.0315,-0.0315 0.0315,-0.102137 0,-0.133636 -0.0469,-0.04691 -0.57587,0.04615 -0.66817,0 -0.0564,-0.02817 -0.0773,-0.105463 -0.13364,-0.133635 -0.0398,-0.01992 -0.10213,0.0315 -0.13363,0 -0.0315,-0.0315 0.0199,-0.09379 0,-0.133634 -0.0564,-0.112691 -0.21093,-0.15458 -0.26727,-0.267271 -0.0199,-0.03984 0.0108,-0.09042 0,-0.133633 -0.27808,-1.112311 0.009,0.161311 -0.26727,-0.668174 -0.0141,-0.04226 0.0315,-0.102137 0,-0.133635 -0.0315,-0.0315 -0.11371,0.03984 -0.13364,0 -0.0398,-0.07968 0,-0.178179 0,-0.267269 0,-0.222726 0,-0.44545 0,-0.668174 0,-0.04454 0.0199,-0.09379 0,-0.133635 -0.0282,-0.05635 -0.11371,-0.07387 -0.13363,-0.133636 -0.0239,-0.07184 0,-0.421397 0,-0.534538 0,-0.178181 0,-0.356359 0,-0.53454 0,-0.04454 -0.0108,-0.09042 0,-0.133633 0.0342,-0.136658 0.10601,-0.262777 0.13363,-0.400905 0.0262,-0.13104 -0.0324,-0.271259 0,-0.400905 0.0342,-0.136657 0.0995,-0.264247 0.13364,-0.400904 0.0108,-0.04321 0,-0.08909 0,-0.133633 0.0445,-0.08909 0.10214,-0.172776 0.13363,-0.267272 0.0423,-0.126775 -0.0324,-0.271258 0,-0.400904 0.0242,-0.09663 0.10948,-0.170638 0.13364,-0.267269 0.0216,-0.08643 -0.0282,-0.182751 0,-0.267269 0.0199,-0.05976 0.10546,-0.07729 0.13363,-0.133636 0.0199,-0.03984 -0.0108,-0.09042 0,-0.133633 0.0342,-0.136657 0.0995,-0.264247 0.13364,-0.400904 0.0216,-0.08643 -0.0398,-0.187587 0,-0.267272 0.0718,-0.143653 0.19544,-0.257249 0.26727,-0.400902 0.0199,-0.03984 -0.0199,-0.0938 0,-0.133636 0.0282,-0.05634 0.0987,-0.08122 0.13363,-0.133635 0.0553,-0.08288 0.0784,-0.184391 0.13364,-0.267269 0.0349,-0.05242 0.10546,-0.07729 0.13363,-0.133636 0.0199,-0.03984 -0.0199,-0.09379 0,-0.133633 0.0282,-0.05635 0.10546,-0.07729 0.13364,-0.133636 0.0199,-0.03984 -0.0199,-0.09379 0,-0.133633 0.27807,-0.556157 -0.009,0.142859 0.26727,-0.133636 0.0315,-0.0315 -0.0199,-0.09379 0,-0.133635 0.0802,-0.160362 0.32072,-0.240541 0.4009,-0.400905 0.0199,-0.03984 -0.0315,-0.102135 0,-0.133633 0.0315,-0.0315 0.10214,0.0315 0.13364,0 0.0315,-0.0315 -0.0315,-0.102137 0,-0.133636 0.0315,-0.0315 0.0938,0.01992 0.13363,0 0.0564,-0.02817 0.0773,-0.10546 0.13364,-0.133633 0.0398,-0.01992 0.0938,0.01992 0.13363,0 0.0564,-0.02817 0.0773,-0.105463 0.13363,-0.133636 0.0399,-0.01992 0.0938,0.01992 0.13364,0 0.0563,-0.02817 0.0773,-0.105463 0.13364,-0.133636 0.007,-0.0035 0.39391,-0.0035 0.4009,0 0.0563,0.02817 0.0773,0.105463 0.13363,0.133636 0.10691,0.05345 0.294,-0.05345 0.40091,0 0.0563,0.02817 0.0739,0.113713 0.13363,0.133636 0.0845,0.02817 0.18759,-0.03984 0.26727,0 0.0398,0.01992 -0.0315,0.102134 0,0.133633 0.0315,0.0315 0.0938,-0.01992 0.13364,0 0.0563,0.02817 0.0773,0.105463 0.13363,0.133636 0.0398,0.01992 0.0938,-0.01992 0.13364,0 0.11269,0.05635 0.15457,0.210923 0.26727,0.267269 0.0797,0.03984 0.20427,-0.063 0.26726,0 0.0315,0.0315 -0.0315,0.102137 0,0.133635 0.0315,0.0315 0.10214,-0.0315 0.13364,0 0.0315,0.0315 -0.0315,0.102138 0,0.133634 0.0315,0.0315 0.0938,-0.01992 0.13363,0 0.0256,0.01278 0.52175,0.50896 0.53454,0.53454 0.0199,0.03984 -0.0199,0.09379 0,0.133633 0.0282,0.05635 0.10547,0.07729 0.13364,0.133636 0.0398,0.07968 -0.063,0.204274 0,0.267269 0.0315,0.0315 0.10213,-0.0315 0.13363,0 0.0668,0.06682 -0.0668,0.334086 0,0.400904 0.0315,0.0315 0.10214,-0.0315 0.13364,0 0.063,0.063 -0.063,0.204274 0,0.267269 0.0315,0.0315 0.10214,-0.0315 0.13363,0 0.0315,0.0315 -0.0315,0.102137 0,0.133636 0.0315,0.0315 0.0938,-0.01992 0.13364,0 0.0563,0.02817 0.0773,0.105463 0.13363,0.133636 0.0351,0.01757 0.46466,0 0.53454,0 0.0602,0 0.36024,0.02032 0.40091,0 0.0563,-0.02817 0.0773,-0.105463 0.13363,-0.133636 0.0797,-0.03984 0.18759,0.03984 0.26727,0 0.0564,-0.02817 0.0773,-0.105463 0.13364,-0.133636 0.0398,-0.01992 0.0938,0.01992 0.13363,0 0.0563,-0.02817 0.0773,-0.10546 0.13363,-0.133633 0.0399,-0.01992 0.0938,0.01992 0.13364,0 0.0563,-0.02817 0.0773,-0.105463 0.13363,-0.133636 0.0399,-0.01992 0.0938,0.01992 0.13364,0 0.11269,-0.05635 0.15458,-0.210923 0.26727,-0.267269 0.0398,-0.01992 0.10214,0.0315 0.13363,0 0.0315,-0.0315 -0.0315,-0.102137 0,-0.133635 0.0315,-0.0315 0.0938,0.01992 0.13364,0 0.16036,-0.08018 0.24054,-0.320723 0.4009,-0.400905 0.0399,-0.01992 0.10214,0.0315 0.13364,0 0.0315,-0.0315 -0.0199,-0.09379 0,-0.133633 0.0282,-0.05635 0.10546,-0.07729 0.13363,-0.133636 0.0199,-0.03984 -0.0315,-0.102137 0,-0.133633 0.0315,-0.0315 0.10214,0.0315 0.13364,0 0.063,-0.063 -0.063,-0.204274 0,-0.267271 0.0315,-0.0315 0.10213,0.0315 0.13363,0 0.004,-0.0043 0,-0.368494 0,-0.400905 0,-0.04454 -0.0199,-0.09379 0,-0.133633 0.0282,-0.05635 0.13364,-0.07064 0.13364,-0.133636 0,-0.063 -0.10547,-0.07729 -0.13364,-0.133633 -0.0534,-0.10691 0.0535,-0.293997 0,-0.400905 -0.0282,-0.05634 -0.11371,-0.07387 -0.13363,-0.133635 -0.0282,-0.08452 0,-0.178179 0,-0.267269 0,-0.04454 0.0199,-0.09379 0,-0.133636 -0.0282,-0.05635 -0.10547,-0.07729 -0.13364,-0.133633 -0.0199,-0.03984 0.0141,-0.09138 0,-0.133636 -0.0315,-0.09449 -0.10213,-0.172775 -0.13363,-0.267269 -0.0141,-0.04226 0.0199,-0.09379 0,-0.133635 -0.27808,-0.556157 0.009,0.142859 -0.26727,-0.133636 -0.0315,-0.0315 0.0199,-0.09379 0,-0.133633 -0.0282,-0.05635 -0.0891,-0.08909 -0.13364,-0.133636 -0.0445,-0.04454 -0.0891,-0.08909 -0.13363,-0.133633 -0.0704,-0.07035 -0.32953,-0.36522 -0.40091,-0.400905 -0.0398,-0.01992 -0.10213,0.0315 -0.13363,0 -0.0315,-0.0315 0.0315,-0.102137 0,-0.133635 -0.0315,-0.0315 -0.10214,0.0315 -0.13364,0 -0.0315,-0.0315 0.0315,-0.102138 0,-0.133636 -0.0315,-0.0315 -0.10213,0.0315 -0.13363,0 -0.0315,-0.0315 0.0315,-0.102135 0,-0.133633 -0.0315,-0.0315 -0.10214,0.0315 -0.13364,0 -0.0315,-0.0315 0.0199,-0.09379 0,-0.133636 -0.0282,-0.05635 -0.10546,-0.07729 -0.13363,-0.133633 -0.0199,-0.03984 0.0315,-0.102137 0,-0.133636 -0.0315,-0.0315 -0.10214,0.0315 -0.13363,0 -0.0315,-0.0315 0.0315,-0.102137 0,-0.133636 -0.0315,-0.0315 -0.10214,0.0315 -0.13364,0 -0.0668,-0.06682 0.0668,-0.334086 0,-0.400904 -0.0315,-0.0315 -0.10214,0.0315 -0.13364,0 -0.0315,-0.0315 0,-0.08909 0,-0.133633 0,-0.04455 0,-0.08909 0,-0.133636 0,-0.222724 0,-0.44545 0,-0.668174 0,-0.04454 -0.0315,-0.102137 0,-0.133635 0.0315,-0.0315 0.10214,0.0315 0.13364,0 0.063,-0.063 -0.063,-0.204272 0,-0.267269 0.0315,-0.0315 0.10214,0.0315 0.13364,0 0.063,-0.063 -0.063,-0.204274 0,-0.267269 0.0315,-0.0315 0.10213,0.0315 0.13363,0 0.0315,-0.0315 -0.0199,-0.09379 0,-0.133636 0.0282,-0.05634 0.10546,-0.07729 0.13363,-0.133633 0.0199,-0.03984 -0.0315,-0.102137 0,-0.133636 0.0315,-0.0315 0.10214,0.0315 0.13364,0 0.0315,-0.0315 -0.0315,-0.102137 0,-0.133635 0.0315,-0.0315 0.10213,0.0315 0.13363,0 0.0315,-0.0315 -0.0315,-0.102137 0,-0.133633 0.0315,-0.0315 0.10214,0.0315 0.13364,0 0.0315,-0.0315 -0.0315,-0.102138 0,-0.133636 0.0315,-0.0315 0.10214,0.0315 0.13363,0 0.2765,-0.276495 -0.42252,0.0108 0.13364,-0.267269 0.0398,-0.01992 0.0938,0.01992 0.13363,0 0.0564,-0.02817 0.0773,-0.105463 0.13364,-0.133636 0.0797,-0.03984 0.20427,0.063 0.26727,0 0.0315,-0.0315 -0.0399,-0.113712 0,-0.133633 0.0797,-0.03984 0.18275,0.02817 0.26727,0 0.0598,-0.01992 0.0773,-0.105463 0.13363,-0.133636 0.0398,-0.01992 0.0904,0.0108 0.13364,0 0.13665,-0.03417 0.26277,-0.10601 0.4009,-0.133635 0.0874,-0.01746 0.17818,0 0.26727,0 0.0445,0 0.0938,0.01992 0.13364,0 0.0563,-0.02817 0.0773,-0.105461 0.13363,-0.133634 0.0679,-0.03395 0.31326,0.01754 0.4009,0 0.1801,-0.03602 0.3603,-0.07556 0.53454,-0.133635 0.46067,-0.153556 0.099,-0.133636 0.40091,-0.133636 0.30191,0 -0.0598,0.01992 0.4009,-0.133633 0.0423,-0.01408 0.0938,0.01992 0.13364,0 0.0563,-0.02817 0.0812,-0.09869 0.13363,-0.133636 -0.016,-0.252775 0.31216,-0.08926 0.40091,-0.133633 0.10935,-0.05468 0.28899,-0.316973 0.4009,-0.400905 0.12849,-0.09637 0.28734,-0.153701 0.4009,-0.267271 0.0704,-0.07043 0.0632,-0.196837 0.13364,-0.267269 0.0704,-0.07043 0.18439,-0.07838 0.26727,-0.133633 0.0715,-0.04766 0.52465,-0.521359 0.53454,-0.53454 0.0598,-0.07968 0.0632,-0.196837 0.13363,-0.267269 0.0704,-0.07043 0.19684,-0.0632 0.26727,-0.133636 0.0704,-0.07043 0.0739,-0.187584 0.13364,-0.267269 0.0756,-0.100793 0.19167,-0.166476 0.26727,-0.267269 0.0598,-0.07968 0.0632,-0.196839 0.13363,-0.267271 0.0704,-0.07043 0.19684,-0.0632 0.26727,-0.133633 0.0704,-0.07043 0.0632,-0.19684 0.13363,-0.267272 0.0704,-0.07043 0.19684,-0.0632 0.26727,-0.133633 0.0704,-0.07043 0.0784,-0.184393 0.13364,-0.267269 0.0811,-0.12165 0.34168,-0.282458 0.4009,-0.400904 0.0199,-0.03984 -0.0315,-0.102137 0,-0.133636 0.0315,-0.0315 0.10214,0.0315 0.13364,0 0.0315,-0.0315 -0.0199,-0.09379 0,-0.133636 0.0563,-0.112688 0.21092,-0.154577 0.26727,-0.267269 0.0398,-0.07968 -0.063,-0.204274 0,-0.267268 0.0315,-0.0315 0.10214,0.0315 0.13363,0 0.0315,-0.0315 0,-0.08909 0,-0.133636 0,-0.04454 0,-0.08909 0,-0.133633 0,-0.35636 0,-0.712719 0,-1.069078 0,-0.267272 0,-0.534541 0,-0.80181 0,-0.04454 0.0315,-0.102137 0,-0.133635 -0.0315,-0.0315 -0.10213,0.0315 -0.13363,0 -0.0315,-0.0315 0,-0.08909 0,-0.133633 0,-0.04455 0,-0.08909 0,-0.133636 0,-0.35636 0,-0.712719 0,-1.069078 0,-0.04454 0,-0.08909 0,-0.133636 0,-0.04454 0.0315,-0.102134 0,-0.133633 -0.0315,-0.0315 -0.10214,0.0315 -0.13364,0 -0.0315,-0.0315 0,-0.08909 0,-0.133636 0,-0.04454 0,-0.08909 0,-0.133633 0,-0.356359 0,-0.712719 0,-1.069078 0,-0.03241 0.004,-0.396608 0,-0.400905 -0.0315,-0.0315 -0.10213,0.0315 -0.13363,0 -0.0414,-0.04138 0.0414,-0.626795 0,-0.668176 -0.0315,-0.0315 -0.11372,0.03984 -0.13364,0 -0.0598,-0.119525 0.0598,-0.281376 0,-0.400902 -0.0282,-0.05635 -0.10546,-0.07729 -0.13363,-0.133635 -0.0398,-0.07968 0.063,-0.204275 0,-0.267269 -0.0315,-0.0315 -0.10214,0.0315 -0.13364,0 -0.0668,-0.06682 0.0668,-0.334087 0,-0.400905 -0.0315,-0.0315 -0.10213,0.0315 -0.13363,0 -0.0273,-0.02732 0.0265,-0.347919 0,-0.400904 -0.0282,-0.05635 -0.10546,-0.07729 -0.13364,-0.133636 -0.0462,-0.0923 0.0469,-0.621266 0,-0.668174 -0.0315,-0.0315 -0.10213,0.0315 -0.13363,0 -0.0315,-0.0315 0,-0.08909 0,-0.133633 0,-0.09472 -0.0173,-0.767257 0,-0.801809 0.0282,-0.05635 0.10546,-0.07729 0.13363,-0.133636 0.0535,-0.106907 -0.0534,-0.293997 0,-0.400904 0.0282,-0.05635 0.10547,-0.07729 0.13364,-0.133633 0.0199,-0.03984 -0.0199,-0.09379 0,-0.133636 0.0282,-0.05635 0.10546,-0.07729 0.13363,-0.133636 0.0399,-0.07968 -0.063,-0.204271 0,-0.267269 0.0315,-0.0315 0.10214,0.0315 0.13364,0 0.0315,-0.0315 -0.0199,-0.09379 0,-0.133633 0.0282,-0.05635 0.10546,-0.07729 0.13363,-0.133636 0.0535,-0.106907 -0.0534,-0.293997 0,-0.400904 0.0282,-0.05635 0.10547,-0.07729 0.13364,-0.133636 0.0199,-0.03984 -0.0199,-0.09379 0,-0.133633 0.0282,-0.05635 0.10546,-0.07729 0.13363,-0.133636 0.0199,-0.03984 -0.0199,-0.09379 0,-0.133633 0.0282,-0.05635 0.10547,-0.07729 0.13364,-0.133636 0.0241,-0.04833 0,-0.575225 0,-0.668173 0,-0.267272 0,-0.53454 0,-0.801809 0,-0.04455 0,-0.08909 0,-0.133636 0,-0.04454 0.0199,-0.09379 0,-0.133633 -0.0282,-0.05635 -0.11372,-0.07387 -0.13364,-0.133636 -0.0282,-0.08452 0.0282,-0.18275 0,-0.267269 -0.0199,-0.05976 -0.10546,-0.07729 -0.13363,-0.133635 -0.0398,-0.07968 0.0398,-0.187585 0,-0.267269 -0.0282,-0.05635 -0.10546,-0.07729 -0.13364,-0.133636 -0.0199,-0.03984 0.0141,-0.09137 0,-0.133633 -0.37856,-0.757134 0.0498,0.19921 -0.13363,-0.534541 -0.0242,-0.09663 -0.10214,-0.172775 -0.13364,-0.267268 -0.0395,-0.118592 0.0438,-0.580668 0,-0.668174 -0.0282,-0.05635 -0.10546,-0.07729 -0.13363,-0.133636 -0.0204,-0.04067 0,-0.340719 0,-0.400904 0,-0.35636 0,-0.712719 0,-1.069078 0,-0.09472 -0.0173,-0.767257 0,-0.801807 0.0282,-0.05635 0.11371,-0.07387 0.13363,-0.133636 0.0204,-0.06112 -0.0297,-0.475075 0,-0.53454 0.0282,-0.05635 0.10547,-0.07729 0.13364,-0.133633 0.0398,-0.07968 -0.0398,-0.187587 0,-0.267269 0.0282,-0.05635 0.10546,-0.07729 0.13363,-0.133636 0.0199,-0.03984 -0.0141,-0.09138 0,-0.133635 0.0315,-0.09449 0.10214,-0.172776 0.13364,-0.267269 0.0282,-0.08452 -0.0398,-0.187584 0,-0.267269 0.0282,-0.05635 0.10546,-0.07729 0.13363,-0.133636 0.0199,-0.03984 -0.0199,-0.09379 0,-0.133636 0.0282,-0.05634 0.10547,-0.07729 0.13364,-0.133633 0.0199,-0.03984 -0.0199,-0.09379 0,-0.133635 0.0282,-0.05635 0.10546,-0.07729 0.13363,-0.133633 0.0199,-0.03984 -0.0199,-0.0938 0,-0.133636 0.0564,-0.112692 0.21093,-0.15458 0.26727,-0.267269 0.0199,-0.03984 -0.0199,-0.09379 0,-0.133636 0.0564,-0.112691 0.21093,-0.154577 0.26727,-0.267269 0.0199,-0.03984 -0.0199,-0.09379 0,-0.133635 0.0564,-0.112692 0.21092,-0.154578 0.26727,-0.267269 0.0199,-0.03984 -0.0199,-0.09379 0,-0.133636 0.0563,-0.112689 0.21093,-0.154578 0.26727,-0.267269 0.0199,-0.03984 -0.0315,-0.102137 0,-0.133636 0.0315,-0.0315 0.0938,0.01992 0.13364,0 0.0563,-0.02817 0.0891,-0.08909 0.13363,-0.133633 0.0786,-0.0786 0.47266,-0.503597 0.53454,-0.53454 0.0398,-0.01992 0.0938,0.01992 0.13363,0 0.11845,-0.05922 0.27926,-0.319805 0.40091,-0.400905 -0.14828,-0.186626 0.37132,-0.118843 0.4009,-0.133633 0.0564,-0.02817 0.0773,-0.105463 0.13364,-0.133636 0.0398,-0.01992 0.0938,0.01992 0.13363,0 0.0564,-0.02817 0.0773,-0.105462 0.13364,-0.133633 0.0398,-0.01992 0.0938,0.01992 0.13363,0 0.11269,-0.05635 0.15458,-0.210925 0.26727,-0.267271 0.0398,-0.01992 0.0938,0.01992 0.13364,0 0.0563,-0.02817 0.0773,-0.10546 0.13363,-0.133633 0.0398,-0.01992 0.0938,0.01992 0.13363,0 0.0564,-0.02817 0.0773,-0.105463 0.13364,-0.133636 0.0797,-0.03984 0.20427,0.063 0.26727,0 0.0315,-0.0315 -0.0315,-0.102137 0,-0.133636 0.063,-0.06299 0.20427,0.063 0.26727,0 0.0315,-0.0315 -0.0315,-0.102134 0,-0.133633 0.0315,-0.0315 0.0938,0.01992 0.13363,0 0.0563,-0.02817 0.0773,-0.105463 0.13364,-0.133636 0.0797,-0.03984 0.20427,0.063 0.26727,0 0.0315,-0.0315 -0.0315,-0.102137 0,-0.133633 0.0668,-0.06682 0.33409,0.06682 0.4009,0 0.0315,-0.0315 -0.0315,-0.102137 0,-0.133635 0.0315,-0.0315 0.0891,0 0.13364,0 0.0445,0 0.0891,0 0.13363,0 0.063,0 0.66212,0.0061 0.66818,0 0.0315,-0.0315 -0.0315,-0.102138 0,-0.133636 0.0315,-0.0315 0.0891,0 0.13363,0 0.0446,0 0.10214,-0.0315 0.13363,0 0.0315,0.0315 -0.0315,0.102137 0,0.133636 0.0668,0.06682 0.33409,-0.06682 0.40091,0 0.0315,0.0315 -0.0315,0.102137 0,0.133635 0.0315,0.0315 0.0914,-0.01408 0.13363,0 0.96798,0.322657 -0.21069,-0.03853 0.40091,0.267269 0.0398,0.01992 0.0938,-0.01992 0.13363,0 0.11269,0.05635 0.15458,0.210923 0.26727,0.267269 0.0398,0.01992 0.0938,-0.01992 0.13364,0 0.11269,0.05635 0.15458,0.210923 0.26727,0.267269 0.0398,0.01992 0.10213,-0.0315 0.13363,0 0.0315,0.0315 -0.0315,0.102137 0,0.133636 0.0315,0.0315 0.0938,-0.01992 0.13364,0 0.0563,0.02817 0.0773,0.105463 0.13363,0.133635 0.0398,0.01992 0.10214,-0.0315 0.13364,0 0.0315,0.0315 -0.0315,0.102135 0,0.133633 0.0315,0.0315 0.0938,-0.01992 0.13363,0 0.0563,0.02817 0.0773,0.105463 0.13363,0.133636 0.0399,0.01992 0.10214,-0.0315 0.13364,0 0.0315,0.0315 -0.0315,0.102137 0,0.133633 0.0315,0.0315 0.10214,-0.0315 0.13364,0 0.0315,0.0315 -0.0315,0.102137 0,0.133636 0.0315,0.0315 0.0938,-0.01992 0.13363,0 0.0564,0.02817 0.0773,0.105463 0.13364,0.133636 0.0398,0.01992 0.0938,-0.01992 0.13363,0 0.0563,0.02817 0.0773,0.10546 0.13363,0.133633 0.0399,0.01992 0.10214,-0.0315 0.13364,0 0.0315,0.0315 -0.0315,0.102137 0,0.133636 0.0315,0.0315 0.0938,-0.01992 0.13363,0 0.0564,0.02817 0.0773,0.105463 0.13364,0.133635 0.0398,0.01992 0.10214,-0.0315 0.13363,0 0.0315,0.0315 -0.0315,0.102135 0,0.133634 0.2765,0.276494 -0.0108,-0.422522 0.26727,0.133635 0.0199,0.03984 -0.0315,0.102137 0,0.133633 0.0315,0.0315 0.0938,-0.01992 0.13364,0 0.1315,0.06575 0.40304,0.468789 0.53454,0.534541 0.0398,0.01992 0.10213,-0.0315 0.13363,0 0.0315,0.0315 -0.0315,0.102137 0,0.133635 0.0315,0.0315 0.0938,-0.01992 0.13364,0 0.0563,0.02817 0.0773,0.105461 0.13363,0.133634 0.0398,0.01992 0.10214,-0.0315 0.13363,0 0.2765,0.276494 -0.42252,-0.01082 0.13364,0.267268 0.0398,0.01992 0.10214,-0.0315 0.13364,0 0.27649,0.276498 -0.42253,-0.01082 0.13363,0.267272 0.0398,0.01992 0.0966,-0.02471 0.13363,0 0.10484,0.06989 0.16648,0.191675 0.26727,0.267269 0.0797,0.05976 0.19684,0.0632 0.26727,0.133636 0.2765,0.276494 -0.42252,-0.01082 0.13364,0.267268 0.18433,0.09217 0.11953,-0.16184 0.26727,0.133633 0.0199,0.03984 -0.0315,0.102138 0,0.133636 0.0704,0.07043 0.18439,0.07838 0.26727,0.133636 0.0524,0.03494 0.0773,0.10546 0.13363,0.133633 0.0399,0.01992 0.10214,-0.0315 0.13364,0 0.0315,0.0315 -0.0315,0.102137 0,0.133636 0.0315,0.0315 0.0938,-0.01992 0.13363,0 0.11269,0.05635 0.15458,0.210923 0.26727,0.267269 0.0398,0.01992 0.0938,-0.01992 0.13364,0 0.0563,0.02817 0.0773,0.105463 0.13363,0.133635 0.0398,0.01992 0.10214,-0.0315 0.13364,0 0.0315,0.0315 -0.0315,0.102138 0,0.133636 0.063,0.063 0.20427,-0.063 0.26727,0 0.0315,0.0315 -0.0315,0.102135 0,0.133633 0.0315,0.0315 0.0938,-0.01992 0.13363,0 0.0563,0.02817 0.0773,0.105463 0.13363,0.133636 0.0399,0.01992 0.0938,-0.01992 0.13364,0 0.0564,0.02817 0.0773,0.10546 0.13363,0.133633 0.0399,0.01992 0.10214,-0.0315 0.13363,0 0.0315,0.0315 -0.0315,0.102137 0,0.133636 0.0315,0.0315 0.0938,-0.01992 0.13364,0 0.0714,0.03569 0.33055,0.330549 0.4009,0.400904 0.0704,0.07035 0.36523,0.329531 0.40092,0.400905 0.0198,0.03984 -0.0315,0.102137 0,0.133633 0.0315,0.0315 0.10213,-0.0315 0.13362,0 0.0315,0.0315 -0.0198,0.0938 0,0.133636 0.0282,0.05635 0.10546,0.07729 0.13364,0.133636 0.0198,0.03984 -0.0315,0.102137 0,0.133633 0.0315,0.0315 0.10213,-0.0315 0.13364,0 0.063,0.063 -0.063,0.204274 0,0.267271 0.0315,0.0315 0.10213,-0.0315 0.13364,0 0.0315,0.0315 -0.0198,0.09379 0,0.133633 0.0281,0.05635 0.10547,0.07729 0.13362,0.133636 0.0398,0.07968 -0.0398,0.187584 0,0.267269 0.0282,0.05635 0.10546,0.07729 0.13364,0.133636 0.0398,0.07968 -0.063,0.204271 0,0.267269 0.0315,0.0315 0.10213,-0.0315 0.13364,0 0.0315,0.0315 0,0.08909 0,0.133635 0,0.04454 0,0.08909 0,0.133633 0,0.400905 0,0.80181 0,1.202714 0,0.04454 0,0.08909 0,0.133633 0,0.04455 0.0315,0.102137 0,0.133636 -0.0315,0.0315 -0.10213,-0.0315 -0.13364,0 -0.0366,0.03657 0.0363,0.462045 0,0.53454 -0.0282,0.05634 -0.10547,0.07729 -0.13364,0.133634 -0.0398,0.07968 0.0398,0.187586 0,0.267268 -0.0282,0.05635 -0.10547,0.07729 -0.13362,0.133636 -0.0198,0.03984 0.0315,0.102137 0,0.133636 -0.0315,0.0315 -0.10215,-0.0315 -0.13364,0 -0.0315,0.0315 0.0198,0.09379 0,0.133633 -0.0564,0.112691 -0.21092,0.15458 -0.26728,0.267271 -0.0198,0.03984 0.0315,0.102135 0,0.133634 -0.0315,0.0315 -0.10213,-0.0315 -0.13362,0 -0.0315,0.0315 0.0198,0.09379 0,0.133635 -0.0282,0.05635 -0.10546,0.07729 -0.13364,0.133633 -0.0198,0.03984 0.0315,0.102138 0,0.133636 -0.0315,0.0315 -0.0938,-0.01992 -0.13364,0 -0.55615,0.278077 0.14285,-0.0092 -0.13364,0.267269 -0.0315,0.0315 -0.10213,-0.0315 -0.13364,0 -0.0315,0.0315 0.0315,0.102137 0,0.133636 -0.0315,0.0315 -0.10213,-0.0315 -0.13361,0 -0.0315,0.0315 0.0315,0.102137 0,0.133636 -0.0315,0.0315 -0.10216,-0.0315 -0.13365,0 -0.0315,0.0315 0.0315,0.102134 0,0.133633 -0.0315,0.0315 -0.10212,-0.0315 -0.13364,0 -0.0315,0.0315 0.0315,0.102137 0,0.133635 -0.0315,0.0315 -0.10213,-0.0315 -0.13363,0 -0.0315,0.0315 0.0315,0.102137 0,0.133636 -0.0315,0.0315 -0.10213,-0.0315 -0.13363,0 -0.0315,0.0315 0.0315,0.102135 0,0.133633 -0.0315,0.0315 -0.10214,-0.0315 -0.13364,0 -0.27649,0.276495 0.42252,-0.01082 -0.13363,0.267269 -0.0398,0.01992 -0.10214,-0.0315 -0.13363,0 -0.0315,0.0315 0.0199,0.0938 0,0.133636 -0.0802,0.160361 -0.32073,0.240543 -0.40091,0.400904 -0.0199,0.03984 0.0315,0.102138 0,0.133636 -0.0315,0.0315 -0.10214,-0.0315 -0.13363,0 -0.063,0.063 0.063,0.204272 0,0.267269 -0.0315,0.0315 -0.10214,-0.0315 -0.13364,0 -0.0469,0.04691 0.0462,0.575868 0,0.668173 -0.0282,0.05635 -0.10546,0.07729 -0.13363,0.133636 -0.006,0.01138 -0.006,0.523145 0,0.534538 0.0282,0.05635 0.10546,0.07729 0.13363,0.133636 0.0265,0.05298 -0.0273,0.373583 0,0.400904 0.0315,0.0315 0.10214,-0.0315 0.13364,0 0.063,0.063 -0.063,0.204272 0,0.267269 0.0315,0.0315 0.10213,-0.0315 0.13363,0 0.2765,0.276495 -0.42252,-0.01082 0.13364,0.267269 0.0398,0.01992 0.10213,-0.0315 0.13363,0 0.0315,0.0315 -0.0315,0.102137 0,0.133636 0.0315,0.0315 0.0891,0 0.13364,0 0.0947,0 0.76725,0.01728 0.8018,0 0.0564,-0.02817 0.0773,-0.105463 0.13365,-0.133636 0.0398,-0.01992 0.10212,0.0315 0.13361,0 0.0315,-0.0315 -0.0315,-0.102137 0,-0.133636 0.0315,-0.0315 0.0938,0.01992 0.13364,0 0.0355,-0.01773 0.38317,-0.365421 0.40092,-0.400902 0.0198,-0.03984 -0.0315,-0.102137 0,-0.133635 0.0315,-0.0315 0.10213,0.0315 0.13362,0 0.0315,-0.0315 -0.0198,-0.09379 0,-0.133636 0.0564,-0.112689 0.21092,-0.154578 0.26728,-0.267269 0.0198,-0.03984 -0.0198,-0.09379 0,-0.133636 0.0563,-0.112689 0.21093,-0.154577 0.26726,-0.267269 0.0198,-0.03984 -0.0315,-0.102137 0,-0.133633 0.0315,-0.0315 0.10215,0.0315 0.13364,0 0.0315,-0.0315 -0.0198,-0.0938 0,-0.133636 0.0282,-0.05635 0.10546,-0.07729 0.13364,-0.133635 0.0399,-0.07969 -0.0399,-0.187585 0,-0.267269 0.0282,-0.05635 0.10546,-0.07729 0.13364,-0.133636 0.0198,-0.03984 -0.0198,-0.09379 0,-0.133633 0.0281,-0.05635 0.10546,-0.07729 0.13361,-0.133636 0.0199,-0.03984 -0.0198,-0.09379 0,-0.133633 0.0282,-0.05635 0.10547,-0.07729 0.13365,-0.133636 0.0398,-0.07968 -0.0399,-0.187584 0,-0.267268 0.0282,-0.05635 0.10546,-0.07729 0.13364,-0.133636 0.0398,-0.07968 -0.063,-0.204274 0,-0.267269 0.0315,-0.0315 0.10213,0.0315 0.13364,0 0.0315,-0.0315 -0.014,-0.09138 0,-0.133636 0.32266,-0.967973 -0.0385,0.210691 0.26725,-0.400904 0.0199,-0.03984 -0.0315,-0.102137 0,-0.133633 0.0315,-0.0315 0.10216,0.0315 0.13364,0 0.0315,-0.0315 -0.0315,-0.102138 0,-0.133636 0.0315,-0.0315 0.0938,0.01992 0.13365,0 0.0563,-0.02817 0.0773,-0.105463 0.13364,-0.133636 0.0398,-0.01992 0.10213,0.0315 0.13361,0 0.0315,-0.0315 -0.0315,-0.102134 0,-0.133633 0.063,-0.063 0.20429,0.063 0.26728,0 0.0315,-0.0315 -0.0315,-0.102137 0,-0.133636 0.0315,-0.0315 0.0891,0 0.13364,0 0.0445,0 0.0891,0 0.13362,0 0.26728,0 0.53454,0 0.80182,0 0.0445,0 0.0891,0 0.13364,0 0.0445,0 0.0938,-0.01992 0.13361,0 0.0564,0.02817 0.0773,0.105463 0.13365,0.133636 0.0797,0.03984 0.18758,-0.03984 0.26728,0 0.0563,0.02817 0.0773,0.10546 0.13361,0.133633 0.0398,0.01992 0.0938,-0.01992 0.13364,0 0.11269,0.05635 0.14775,0.227428 0.26728,0.267272 0.0845,0.02817 0.18275,-0.02817 0.26726,0 0.0598,0.01992 0.0773,0.10546 0.13364,0.133633 0.0399,0.01992 0.0938,-0.01992 0.13364,0 0.11269,0.05635 0.15457,0.210925 0.26726,0.267271 0.0398,0.01992 0.0914,-0.01408 0.13364,0 0.96798,0.322657 -0.21069,-0.03853 0.4009,0.267269 0.0398,0.01992 0.0938,-0.01992 0.13364,0 0.11268,0.05635 0.16245,0.197382 0.26728,0.267269 0.0829,0.05525 0.18439,0.07838 0.26725,0.133636 0.0524,0.03494 0.0773,0.10546 0.13365,0.133633 0.0398,0.01992 0.10212,-0.0315 0.13364,0 0.0315,0.0315 -0.0315,0.102137 0,0.133635 0.0315,0.0315 0.0938,-0.01992 0.13361,0 0.0564,0.02817 0.0773,0.105463 0.13364,0.133636 0.0399,0.01992 0.10216,-0.0315 0.13364,0 0.0315,0.0315 -0.0315,0.102135 0,0.133633 0.0315,0.0315 0.0938,-0.01992 0.13364,0 0.0563,0.02817 0.0773,0.105463 0.13365,0.133636 0.0398,0.01992 0.10212,-0.0315 0.13361,0 0.27652,0.276495 -0.42251,-0.01082 0.13364,0.267269 0.35637,0 -0.0446,-0.04455 0.13364,0.133636 0.0315,0.0315 0.10213,-0.0315 0.13364,0 0.0315,0.0315 -0.0315,0.102137 0,0.133633 0.0315,0.0315 0.0938,-0.01992 0.13362,0 0.0564,0.02817 0.0773,0.105463 0.13364,0.133635 0.18433,0.09217 0.11954,-0.16184 0.26728,0.133636 0.0198,0.03984 -0.0198,0.09379 0,0.133633 0.0802,0.160362 0.3207,0.240544 0.4009,0.400905 0.0198,0.03984 -0.0315,0.102137 0,0.133636 0.0315,0.0315 0.10213,-0.0315 0.13364,0 0.0315,0.0315 -0.0315,0.102137 0,0.133633 0.0315,0.0315 0.10213,-0.0315 0.13361,0 0.0315,0.0315 -0.0315,0.102137 0,0.133636 0.0315,0.0315 0.10216,-0.0315 0.13364,0 0.0315,0.0315 -0.0198,0.09379 0,0.133635 0.0564,0.112689 0.21093,0.154578 0.26729,0.267269 0.0198,0.03984 -0.0315,0.102137 0,0.133633 0.0315,0.0315 0.10213,-0.0315 0.13364,0 0.0315,0.0315 -0.0315,0.102137 0,0.133636 0.0315,0.0315 0.10213,-0.0315 0.13361,0 0.0315,0.0315 -0.0315,0.102137 0,0.133636 0.0315,0.0315 0.10216,-0.0315 0.13364,0 0.0315,0.0315 -0.0315,0.102137 0,0.133633 0.0315,0.0315 0.10213,-0.0315 0.13364,0 0.0315,0.0315 -0.0198,0.09379 0,0.133636 0.0563,0.112691 0.21093,0.154577 0.26726,0.267268 0.0198,0.03984 -0.0315,0.102138 0,0.133636 0.0315,0.0315 0.10216,-0.0315 0.13364,0 0.0315,0.0315 -0.0198,0.09379 0,0.133633 0.0282,0.05635 0.10546,0.07729 0.13364,0.133636 0.0198,0.03984 -0.0315,0.102137 0,0.133636 0.0315,0.0315 0.10213,-0.0315 0.13364,0 0.063,0.06299 -0.0398,0.187584 0,0.267269 0.0281,0.05635 0.10547,0.07729 0.13362,0.133635 0.0198,0.03984 -0.0198,0.09379 0,0.133633 0.0282,0.05635 0.10546,0.07729 0.13364,0.133636 0.0198,0.03984 -0.0315,0.102137 0,0.133633 0.35637,0 -0.0445,-0.04454 0.13364,0.133636 0.0315,0.0315 0.10213,-0.0315 0.13364,0 0.0315,0.0315 -0.0198,0.09379 0,0.133636 0.0802,0.160361 0.3207,0.24054 0.4009,0.400904 0.0198,0.03984 -0.0315,0.102135 0,0.133634 0.0315,0.0315 0.10213,-0.0315 0.13364,0 0.0315,0.0315 -0.0315,0.102137 0,0.133635 0.0315,0.0315 0.0891,0 0.13361,0 0.0446,0 0.0891,0 0.13364,0 0.22273,0 0.44546,0 0.66818,0 0.0446,0 0.10213,0.0315 0.13364,0 0.0315,-0.0315 -0.0315,-0.102137 0,-0.133635 0.0315,-0.0315 0.0891,0 0.13364,0 0.0445,0 0.0891,0 0.13362,0 0.0947,0 0.76726,0.01728 0.80182,0 0.0564,-0.02817 0.0773,-0.105461 0.13364,-0.133634 0.0407,-0.02035 0.3407,0 0.4009,0 0.0929,0 0.61984,-0.02416 0.66818,0 0.0563,0.02817 0.0773,0.105461 0.13364,0.133634 0.0797,0.03984 0.18756,-0.03984 0.26725,0 0.0564,0.02817 0.0773,0.105462 0.13364,0.133635 0.0399,0.01992 0.0938,-0.01992 0.13364,0 0.0563,0.02817 0.0773,0.105463 0.13362,0.133636 0.0797,0.03984 0.18759,-0.03984 0.26728,0 0.0563,0.02817 0.0773,0.10546 0.13364,0.133633 0.0797,0.03984 0.20426,-0.063 0.26726,0 0.0315,0.0315 -0.0315,0.102137 0,0.133636 0.063,0.063 0.20428,-0.063 0.26728,0 0.0315,0.0315 -0.0315,0.102137 0,0.133633 0.063,0.063 0.18759,-0.03984 0.26726,0 0.0564,0.02817 0.0773,0.105463 0.13364,0.133636 0.0398,0.01992 0.10213,-0.0315 0.13364,0 0.0315,0.0315 -0.0315,0.102137 0,0.133635 0.0315,0.0315 0.0938,-0.01992 0.13364,0 0.0563,0.02817 0.0773,0.105461 0.13361,0.133634 0.0399,0.01992 0.0938,-0.01992 0.13364,0 0.0564,0.02817 0.0773,0.105462 0.13364,0.133635 0.0399,0.01992 0.10213,-0.0315 0.13365,0 0.0315,0.0315 -0.0315,0.102137 0,0.133636 0.0315,0.0315 0.10213,-0.0315 0.13361,0 0.0315,0.0315 -0.0315,0.102135 0,0.133633 0.0315,0.0315 0.10216,-0.0315 0.13364,0 0.0315,0.0315 -0.0198,0.09379 0,0.133636 0.0802,0.160361 0.32073,0.240543 0.4009,0.400905 0.0198,0.03984 -0.0315,0.102137 0,0.133633 0.0315,0.0315 0.10215,-0.0315 0.13364,0 0.0315,0.0315 -0.0315,0.102137 0,0.133635 0.0315,0.0315 0.10213,-0.0315 0.13364,0 0.0315,0.0315 -0.0198,0.09379 0,0.133636 0.0802,0.160361 0.32073,0.240541 0.4009,0.400902 0.0198,0.03984 -0.0199,0.0938 0,0.133636 0.0657,0.1315 0.46879,0.40304 0.53453,0.53454 0.0399,0.07968 -0.063,0.204272 0,0.267269 0.0315,0.0315 0.10216,-0.0315 0.13365,0 0.063,0.063 -0.063,0.204274 0,0.267269 0.0315,0.0315 0.10212,-0.0315 0.13364,0 0.0273,0.02732 -0.0265,0.347919 0,0.400904 0.0282,0.05635 0.10546,0.07729 0.13364,0.133636 0.0398,0.07968 -0.0399,0.187584 0,0.267269 0.0282,0.05635 0.10543,0.07729 0.13361,0.133633 0.0172,0.03455 0,0.707089 0,0.801809 0,0.04455 -0.0315,0.102137 0,0.133636 0.0315,0.0315 0.10216,-0.0315 0.13364,0 0.0469,0.04691 -0.0461,0.575868 0,0.668174 0.0282,0.05634 0.10547,0.07729 0.13364,0.133635 0.0265,0.05298 -0.0273,0.373584 0,0.400902 0.0315,0.0315 0.10213,-0.0315 0.13365,0 0.0315,0.0315 -0.0199,0.0938 0,0.133636 0.0281,0.05635 0.10546,0.07729 0.13361,0.133636 0.0198,0.03984 -0.0315,0.102137 0,0.133633 0.0315,0.0315 0.10216,-0.0315 0.13364,0 0.063,0.063 -0.063,0.204274 0,0.267271 0.0315,0.0315 0.10213,-0.0315 0.13364,0 0.0315,0.0315 -0.0315,0.102135 0,0.133633 0.0315,0.0315 0.10213,-0.0315 0.13364,0 0.0315,0.0315 -0.0315,0.102138 0,0.133636 0.0315,0.0315 0.10213,-0.0315 0.13362,0 0.0315,0.0315 -0.0315,0.102137 0,0.133636 0.0315,0.0315 0.10215,-0.0315 0.13364,0 0.0315,0.0315 -0.0315,0.102134 0,0.133633 0.0315,0.0315 0.0938,-0.01992 0.13364,0 0.0564,0.02817 0.0773,0.105463 0.13364,0.133636 0.0399,0.01992 0.10213,-0.0315 0.13362,0 0.0315,0.0315 -0.0315,0.102137 0,0.133633 0.063,0.063 0.18759,-0.03984 0.26728,0 0.0564,0.02817 0.0773,0.105463 0.13364,0.133636 0.0398,0.01992 0.0938,-0.01992 0.13361,0 0.0564,0.02817 0.0773,0.105463 0.13364,0.133635 0.0797,0.03984 0.18759,-0.03984 0.26729,0 0.0563,0.02817 0.0773,0.105461 0.13364,0.133633 0.0797,0.03984 0.18756,-0.03984 0.26725,0 0.0564,0.02817 0.0773,0.105463 0.13364,0.133636 0.053,0.02649 0.3736,-0.02732 0.4009,0 0.0315,0.0315 -0.0315,0.102137 0,0.133636 0.0366,0.03656 0.46204,-0.03625 0.53454,0 0.0564,0.02817 0.0773,0.10546 0.13364,0.133633 0.0797,0.03984 0.18759,-0.03984 0.26726,0 0.0564,0.02817 0.0773,0.105463 0.13364,0.133636 0.0797,0.03984 0.18759,-0.03984 0.26728,0 0.0563,0.02817 0.0773,0.10546 0.13364,0.133633 0.0398,0.01992 0.0938,-0.01992 0.13361,0 0.0564,0.02817 0.0773,0.105463 0.13364,0.133636 0.0797,0.03984 0.18759,-0.03984 0.26729,0 0.0563,0.02817 0.0773,0.105463 0.13361,0.133635 0.0797,0.03984 0.18759,-0.03984 0.26728,0 0.0563,0.02817 0.0773,0.105461 0.13364,0.133634 0.0398,0.01992 0.10213,-0.0315 0.13362,0 0.0315,0.0315 -0.0315,0.102137 0,0.133635 0.0315,0.0315 0.0938,-0.01992 0.13364,0 0.0564,0.02817 0.0773,0.105463 0.13364,0.133636 0.0399,0.01992 0.0938,-0.01992 0.13364,0 0.0563,0.02817 0.0773,0.10546 0.13362,0.133633 0.0398,0.01992 0.10215,-0.0315 0.13364,0 0.0315,0.0315 0,0.08909 0,0.133636 0.0446,0.04454 0.0812,0.09869 0.13364,0.133633 0.0829,0.05525 0.18439,0.07838 0.26725,0.133636 0.0524,0.03494 0.0773,0.105463 0.13365,0.133635 0.0398,0.01992 0.10215,-0.0315 0.13364,0 0.0315,0.0315 -0.0199,0.09379 0,0.133634 0.14774,0.295473 0.0829,0.04147 0.26728,0.133635 0.0619,0.03094 0.45593,0.455944 0.53454,0.534538 0.0445,0.04454 0.0773,0.105463 0.13361,0.133636 0.0399,0.01992 0.10216,-0.0315 0.13364,0 0.0315,0.0315 -0.0315,0.102137 0,0.133636 0.0315,0.0315 0.0938,-0.01992 0.13364,0 0.11269,0.05635 0.15457,0.210923 0.26726,0.267268 0.0797,0.03984 0.20428,-0.063 0.26728,0 0.0315,0.0315 -0.0315,0.102137 0,0.133636 0.063,0.063 0.18759,-0.03984 0.26726,0 0.0564,0.02817 0.0773,0.10546 0.13364,0.133633 0.0797,0.03984 0.18759,-0.03984 0.26728,0 0.0563,0.02817 0.0773,0.105463 0.13361,0.133636 0.0797,0.03984 0.18759,-0.03984 0.26729,0 0.0563,0.02817 0.0773,0.105463 0.13364,0.133633 0.0797,0.03984 0.18759,-0.03984 0.26725,0 0.0564,0.02817 0.0773,0.105463 0.13364,0.133636 0.0797,0.03984 0.20429,-0.063 0.26729,0 0.0315,0.0315 -0.0315,0.102137 0,0.133636 0.063,0.06299 0.20425,-0.063 0.26725,0 0.0315,0.0315 -0.0315,0.102137 0,0.133633 0.0891,0.08904 0.17822,-0.08904 0.26728,0 0.0315,0.0315 -0.0315,0.102137 0,0.133635 0.0315,0.0315 0.10213,-0.0315 0.13362,0 0.0315,0.0315 0.0446,0.133636 0,0.133636 -0.063,0 -0.13362,-0.196633 -0.13362,-0.133636 0,0.0996 0.10213,0.172776 0.13362,0.267269 0.014,0.04226 -0.0315,0.102137 0,0.133636 0.0315,0.0315 0.10215,-0.0315 0.13364,0 0.0315,0.0315 0,0.08909 0,0.133633 0,0.04454 0,0.08909 0,0.133636 0,0.04454 0,0.178181 0,0.133636 0,-0.08909 0,-0.35636 0,-0.267272 0,0.133636 0.0422,0.27413 0,0.400905 -0.014,0.04226 -0.0951,0.02238 -0.13364,0 -0.15497,-0.09 -0.28504,-0.217287 -0.42754,-0.32593 z"
       id="path946"
       inkscape:connector-curvature="0" />
  </g>
</svg>
