<?xml version="1.0" encoding="UTF-8" standalone="no"?>
<!-- Created with Inkscape (http://www.inkscape.org/) -->

<svg
   xmlns:dc="http://purl.org/dc/elements/1.1/"
   xmlns:cc="http://creativecommons.org/ns#"
   xmlns:rdf="http://www.w3.org/1999/02/22-rdf-syntax-ns#"
   xmlns:svg="http://www.w3.org/2000/svg"
   xmlns="http://www.w3.org/2000/svg"
   xmlns:sodipodi="http://sodipodi.sourceforge.net/DTD/sodipodi-0.dtd"
   xmlns:inkscape="http://www.inkscape.org/namespaces/inkscape"
   width="368.29999mm"
   height="275.16666mm"
   viewBox="0 0 368.29999 275.16666"
   version="1.1"
   id="svg8"
   sodipodi:docname="3_7_veia.svg"
   inkscape:version="0.92.4 (5da689c313, 2019-01-14)">
  <defs
     id="defs2" />
  <sodipodi:namedview
     id="base"
     pagecolor="#ffffff"
     bordercolor="#666666"
     borderopacity="1.0"
     inkscape:pageopacity="0.0"
     inkscape:pageshadow="2"
     inkscape:zoom="0.7"
     inkscape:cx="515.75502"
     inkscape:cy="493.17516"
     inkscape:document-units="mm"
     inkscape:current-layer="layer8"
     showgrid="false"
     fit-margin-top="0"
     fit-margin-left="0"
     fit-margin-right="0"
     fit-margin-bottom="0"
     inkscape:window-width="1920"
     inkscape:window-height="1001"
     inkscape:window-x="-9"
     inkscape:window-y="-9"
     inkscape:window-maximized="1" />
  <metadata
     id="metadata5">
    <rdf:RDF>
      <cc:Work
         rdf:about="">
        <dc:format>image/svg+xml</dc:format>
        <dc:type
           rdf:resource="http://purl.org/dc/dcmitype/StillImage" />
        <dc:title></dc:title>
      </cc:Work>
    </rdf:RDF>
  </metadata>
  <g
     inkscape:groupmode="layer"
     id="layer8"
     inkscape:label="veia">
    <path
       style="fill:none;stroke:#000000;stroke-width:0.26458332px;stroke-linecap:butt;stroke-linejoin:miter;stroke-opacity:1"
       d="m 305.02677,85.044641 c 14.28454,9.889287 0.64884,1.304002 6.42562,3.779764 0.41754,0.178945 0.7276,0.552794 1.13392,0.755951 0.11269,0.05635 0.28888,-0.08909 0.37796,0 0.0891,0.08909 -0.0891,0.288886 0,0.377976 0.0891,0.08909 0.2653,-0.05634 0.37798,0 0.15939,0.07968 0.2186,0.298291 0.37799,0.377976 0.11268,0.05635 0.28887,-0.08909 0.37798,0 0.0151,0.01521 0,1.373098 0,1.511906 0,0.170222 0.0575,1.018897 0,1.133927 -0.0797,0.159369 -0.29829,0.218607 -0.37798,0.377976 -0.0564,0.112691 0.0891,0.288888 0,0.377976 -0.0891,0.08909 -0.2889,-0.08909 -0.37799,0 -0.0891,0.08909 0.0891,0.288888 0,0.377978 -0.0891,0.08909 -0.28887,-0.08909 -0.37798,0 -0.0891,0.08909 0.0891,0.288886 0,0.377976 -0.0891,0.08909 -0.26527,-0.05634 -0.37796,0 -0.15938,0.07969 -0.21862,0.298291 -0.37798,0.377976 -0.11269,0.05635 -0.2653,-0.05635 -0.37798,0 -0.15936,0.07968 -0.2186,0.298291 -0.37796,0.377976 -0.2254,0.112691 -0.5778,-0.178181 -0.75597,0 -0.0891,0.08909 0.11269,0.32163 0,0.377976 -0.22537,0.112691 -0.53057,-0.112692 -0.75594,0 -0.11269,0.05634 0.0891,0.288885 0,0.377975 -0.0891,0.08909 -0.25845,-0.03984 -0.37798,0 -0.26729,0.08909 -0.48869,0.288888 -0.75594,0.377976 -0.11954,0.03984 -0.2653,-0.05634 -0.37799,0 -0.15938,0.07968 -0.2186,0.298294 -0.37798,0.377979 -0.11269,0.05634 -0.26527,-0.05635 -0.37799,0 -0.15935,0.07968 -0.20894,0.32163 -0.37795,0.377975 -1.72067,0 -0.0217,-0.178181 -1.13393,0.377976 -0.11271,0.05635 -0.2889,-0.08909 -0.37798,0 -0.0891,0.08909 0.0891,0.288886 0,0.377976 -0.17817,0.178178 -0.57777,-0.178181 -0.75597,0 -0.0891,0.08909 0.0891,0.288885 0,0.377976 -0.0891,0.08909 -0.28887,-0.08909 -0.37796,0 -0.0891,0.08909 0.0891,0.288885 0,0.377976 -0.0891,0.08909 -0.2889,-0.08909 -0.37798,0 -0.0891,0.08909 0.0891,0.288888 0,0.377976 -0.78206,0.782047 0.0306,-1.19507 -0.75594,0.377978 -0.0564,0.112689 0.0891,0.288885 0,0.377976 -0.0891,0.08909 -0.2889,-0.08909 -0.37799,0 -0.0891,0.08909 0.0563,0.265286 0,0.377976 -0.0797,0.15937 -0.29829,0.21861 -0.37798,0.37798 -0.0563,0.11269 0.0891,0.28888 0,0.37797 -0.0891,0.0891 -0.28887,-0.0891 -0.37798,0 -0.0891,0.0891 0.0891,0.28889 0,0.37798 -0.17817,0.17818 -0.57777,-0.17818 -0.75594,0 -0.0891,0.0891 0.0891,0.28888 0,0.37797 -0.0891,0.0891 -0.2653,-0.0563 -0.37799,0 -0.15936,0.0797 -0.2186,0.2983 -0.37795,0.37798 -0.2254,0.11269 -0.5778,-0.17818 -0.75597,0 -0.0891,0.0891 0.0891,0.28889 0,0.37798 -0.25241,0.25242 -0.50353,-0.25243 -0.75594,0 -0.0891,0.0891 0.0891,0.28888 0,0.37797 -0.0773,0.0773 -0.98407,-0.0749 -1.13393,0 -0.15938,0.0797 -0.21862,0.29829 -0.37798,0.37798 -0.11269,0.0563 -0.2653,-0.0563 -0.37799,0 -0.15935,0.0797 -0.21859,0.29829 -0.37798,0.37797 -0.22537,0.1127 -0.57777,-0.17817 -0.75594,0 -0.0891,0.0891 0.0891,0.28889 0,0.37798 -0.18899,0.18899 -0.94493,-0.18899 -1.13393,0 -0.0891,0.0891 0.0891,0.28889 0,0.37798 -0.18899,0.18899 -0.94493,-0.18899 -1.13392,0 -0.0891,0.0891 0.0891,0.28888 0,0.37797 -0.0773,0.0773 -0.98406,-0.0749 -1.13392,0 -0.15939,0.0797 -0.21863,0.2983 -0.37799,0.37798 -0.14986,0.0749 -1.05666,-0.0773 -1.13392,0 -0.0891,0.0891 0.0891,0.28889 0,0.37798 -0.1782,0.17817 -0.53057,-0.1127 -0.75597,0 -0.15936,0.0797 -0.2186,0.29829 -0.37796,0.37797 -0.2254,0.11269 -0.5778,-0.17818 -0.75597,0 -0.0891,0.0891 0.0891,0.28889 0,0.37798 -0.0909,0.091 -1.42094,-0.091 -1.5119,0 -0.0891,0.0891 0.0891,0.28889 0,0.37797 -0.0891,0.0891 -0.25199,0 -0.37796,0 -0.126,0 -0.25199,0 -0.37799,0 -1.00793,0 -2.01588,0 -3.02381,0 -0.62995,0 -1.25992,0 -1.88987,0 -0.12599,0 -0.25199,0 -0.37798,0 -0.126,0 -0.2653,0.0563 -0.37799,0 -0.15935,-0.0797 -0.21859,-0.29829 -0.37798,-0.37797 -0.11269,-0.0563 -0.28887,0.0891 -0.37796,0 -0.0891,-0.0891 0.0891,-0.28889 0,-0.37798 -0.0891,-0.0891 -0.26529,0.0563 -0.37798,0 -0.20188,-0.10093 -0.93493,-0.93493 -1.13392,-1.13393 -0.126,-0.12599 -0.25199,-0.25198 -0.37799,-0.37797 -0.12599,-0.126 -0.29829,-0.21861 -0.37798,-0.37798 -0.0563,-0.11269 0.0891,-0.28888 0,-0.37798 -0.0891,-0.0891 -0.28887,0.0891 -0.37796,0 -0.0891,-0.0891 0.0891,-0.28888 0,-0.37797 -0.0891,-0.0891 -0.2889,0.0891 -0.37798,0 -0.0891,-0.0891 0.0891,-0.28889 0,-0.37798 -0.25242,-0.25242 -0.50353,0.25243 -0.75594,0 -0.0891,-0.0891 0.0891,-0.28889 0,-0.37797 -0.0891,-0.0891 -0.2889,0.0891 -0.37799,0 -0.0891,-0.0891 0.0891,-0.28889 0,-0.37798 -0.0891,-0.0891 -0.2889,0.0891 -0.37798,0 -0.0891,-0.0891 0.0891,-0.28889 0,-0.37798 -0.0891,-0.0891 -0.28887,0.0891 -0.37799,0 -0.0891,-0.0891 0.0891,-0.28888 0,-0.37797 -0.0891,-0.0891 -0.28887,0.0891 -0.37795,0 -0.0891,-0.0891 0.0891,-0.28889 0,-0.37798 -0.0891,-0.0891 -0.2653,0.0563 -0.37799,0 -0.15936,-0.0797 -0.25199,-0.25198 -0.37798,-0.37797 -0.126,-0.126 -0.29829,-0.21861 -0.37796,-0.37798 0,-1.007939 0.12597,0.12599 -0.37798,-0.377976 -0.0891,-0.08909 0.0891,-0.288888 0,-0.377976 -0.0891,-0.08909 -0.2889,0.08909 -0.37799,0 -0.0891,-0.08909 0.0891,-0.288888 0,-0.377978 -0.0891,-0.08909 -0.26527,0.05635 -0.37798,0 -0.15936,-0.07968 -0.2186,-0.298292 -0.37796,-0.377976 -0.11268,-0.05635 -0.28889,0.08909 -0.37798,0 -0.0891,-0.08909 0.0891,-0.288886 0,-0.377976 -0.0891,-0.08909 -0.2889,0.08909 -0.37798,0 -0.0891,-0.08909 0.0891,-0.288885 0,-0.377976 -0.0891,-0.08909 -0.26528,0.05635 -0.37796,0 -0.15939,-0.07968 -0.21863,-0.298291 -0.37798,-0.377976 -0.11269,-0.05634 -0.2889,0.08909 -0.37799,0 -0.0891,-0.08909 0.0891,-0.288888 0,-0.377976 -0.0891,-0.08909 -0.26527,0.05635 -0.37798,0 -0.15936,-0.07968 -0.2186,-0.298293 -0.37796,-0.377975 -0.11269,-0.05635 -0.2653,0.05634 -0.37798,0 -0.15936,-0.07968 -0.2186,-0.298294 -0.37799,-0.377979 -0.11268,-0.05634 -0.26527,0.05635 -0.37795,0 -0.15939,-0.07968 -0.21863,-0.298291 -0.37799,-0.377976 -0.11268,-0.05634 -0.2653,0.05635 -0.37798,0 -0.15936,-0.07968 -0.2186,-0.298291 -0.37799,-0.377975 -0.11268,-0.05635 -0.26527,0.05634 -0.37795,0 -0.31875,-0.15937 -0.43723,-0.596583 -0.75597,-0.755952 -0.22537,-0.112691 -0.53057,0.112691 -0.75594,0 -0.15939,-0.07968 -0.2186,-0.298291 -0.37799,-0.377976 -0.11268,-0.05634 -0.26527,0.05635 -0.37798,0 -0.15936,-0.07968 -0.2186,-0.298294 -0.37796,-0.377976 -0.11268,-0.05635 -0.26529,0.05634 -0.37798,0 -0.15937,-0.07968 -0.21861,-0.298294 -0.37798,-0.377978 -0.11269,-0.05634 -0.26528,0.05635 -0.37797,0 -0.15937,-0.07969 -0.21861,-0.298291 -0.37798,-0.377976 -0.11269,-0.05635 -0.26528,0.05635 -0.37798,0 -0.31873,-0.159369 -0.43721,-0.596582 -0.75595,-0.755952 -0.22538,-0.112691 -0.57777,0.178179 -0.75595,0 -0.0891,-0.08909 0.0891,-0.288885 0,-0.377975 -0.18899,-0.18899 -0.94494,0.188986 -1.13393,0 -0.0891,-0.08909 0.0891,-0.288888 0,-0.377976 -0.17818,-0.178181 -0.57777,0.178178 -0.75595,0 -0.0891,-0.08909 0.0891,-0.288888 0,-0.377976 -0.17818,-0.178181 -0.53057,0.112689 -0.75595,0 -0.15937,-0.07968 -0.21861,-0.298294 -0.37798,-0.377978 -0.14986,-0.07493 -1.05665,0.07727 -1.13393,0 -0.0891,-0.08909 0.0891,-0.288886 0,-0.377976 -0.0891,-0.08909 -0.25198,0 -0.37797,0 -0.126,0 -0.25199,0 -0.37798,0 -0.0917,0 -1.12177,0.01217 -1.13393,0 -0.0891,-0.08909 0.0891,-0.288885 0,-0.377976 -0.0891,-0.08909 -0.25198,0 -0.37798,0 -0.12599,0 -0.25198,0 -0.37797,0 -0.26791,0 -2.17013,0.04886 -2.26786,0 -0.15937,-0.07968 -0.21861,-0.298291 -0.37797,-0.377976 -0.11504,-0.05751 -0.96371,0 -1.13393,0 -0.37798,0 -0.79586,-0.169037 -1.13393,0 -0.11269,0.05635 0.0891,0.288886 0,0.377976 -0.0891,0.08909 -0.25199,0 -0.37798,0 -0.159,0 -2.15542,-0.05622 -2.26786,0 -0.15936,0.07968 -0.2186,0.298291 -0.37797,0.377976 -0.22538,0.112691 -0.57777,-0.178179 -0.75595,0 -0.0891,0.08909 0.0891,0.288888 0,0.377976 -0.0891,0.08909 -0.26529,-0.05634 -0.37798,0 -0.15937,0.07968 -0.21861,0.298294 -0.37797,0.377978 -0.1127,0.05634 -0.26529,-0.05635 -0.37798,0 -0.15937,0.07968 -0.21861,0.298291 -0.37798,0.377976 -0.11269,0.05635 -0.28888,-0.08909 -0.37797,0 -0.0891,0.08909 0.0891,0.288885 0,0.377976 -0.0891,0.08909 -0.26529,-0.05635 -0.37798,0 -0.45357,0.226785 -0.68036,0.907142 -1.13393,1.133927 -0.11269,0.05635 -0.26529,-0.05635 -0.37797,0 -0.15937,0.07968 -0.21861,0.298291 -0.37798,0.377976 -0.11269,0.05635 -0.28889,-0.08909 -0.37798,0 -0.0891,0.08909 0.0891,0.288888 0,0.377978 -1.16016,1.160159 -0.31428,-0.220837 -1.5119,0.377976 -0.11269,0.05635 0.0891,0.288885 0,0.377976 -0.0891,0.08909 -0.26529,-0.05635 -0.37798,0 -0.15937,0.07968 -0.20894,0.32163 -0.37798,0.377976 -0.23905,0.07968 -0.53056,-0.112692 -0.75595,0 -0.11269,0.05634 0.0891,0.288885 0,0.377976 -0.0891,0.08909 -0.26528,-0.05635 -0.37797,0 -0.15937,0.07968 -0.21861,0.298291 -0.37798,0.377975 -0.11269,0.05635 -0.26528,-0.05634 -0.37797,0 -0.15937,0.07968 -0.21861,0.298292 -0.37798,0.377976 -0.22538,0.112692 -0.57777,-0.178178 -0.75595,0 -0.0891,0.08909 0.0891,0.288888 0,0.377979 -0.17818,0.178178 -0.57778,-0.178181 -0.75596,0 -0.0891,0.08909 0.0891,0.288885 0,0.377975 -0.17817,0.178179 -0.53057,-0.112691 -0.75595,0 -0.15937,0.07968 -0.21861,0.298292 -0.37797,0.377976 -0.30239,0.151191 -0.83155,-0.151191 -1.13393,0 -0.15937,0.07969 -0.21861,0.298292 -0.37798,0.377976 -0.14986,0.07493 -1.05666,-0.07727 -1.13393,0 -0.0891,0.08909 0.0891,0.288885 0,0.377976 -0.17818,0.178181 -0.57777,-0.178178 -0.75595,0 -0.0891,0.08909 0.0891,0.288885 0,0.377976 -0.0891,0.08909 -0.26529,-0.05635 -0.37798,0 -0.15937,0.07968 -0.2186,0.298291 -0.37797,0.377976 -0.11269,0.05635 -0.26529,-0.05634 -0.37798,0 -0.15937,0.07968 -0.21861,0.298293 -0.37797,0.377978 -0.1127,0.05634 -0.26529,-0.05635 -0.37798,0 -0.80876,0.404376 0.0528,0.351573 -0.75595,0.755952 -0.11269,0.0563 -0.26529,-0.0564 -0.37798,0 -0.10036,0.0502 -1.08375,1.03357 -1.13393,1.13393 -0.0563,0.11269 0.0891,0.28888 0,0.37797 -0.0891,0.0891 -0.26528,-0.0563 -0.37797,0 -0.15937,0.0797 -0.21861,0.2983 -0.37798,0.37798 -0.11269,0.0563 -0.26529,-0.0563 -0.37798,0 -0.31873,0.15937 -0.43721,0.59658 -0.75595,0.75595 -0.11269,0.0563 -0.28888,-0.0891 -0.37798,0 -0.0891,0.0891 0.0891,0.28889 0,0.37798 -0.17818,0.17818 -0.57777,-0.17818 -0.75595,0 -0.0891,0.0891 0.0891,0.28888 0,0.37797 -0.17818,0.17819 -0.57777,-0.17817 -0.75595,0 -0.0891,0.0891 0.0891,0.28889 0,0.37798 -0.0891,0.0891 -0.26529,-0.0563 -0.37798,0 -0.31874,0.15937 -0.43721,0.59659 -0.75595,0.75595 -0.22538,0.11269 -0.57777,-0.17818 -0.75595,0 -0.0891,0.0891 0.0891,0.28889 0,0.37798 -0.0891,0.0891 -0.28889,-0.0891 -0.37798,0 -0.0891,0.0891 0.0891,0.28889 0,0.37798 -0.18899,0.18898 -0.94494,-0.18899 -1.13393,0 -0.0891,0.0891 0.0891,0.28888 0,0.37797 -0.17817,0.17818 -0.57777,-0.17818 -0.75595,0 -0.0891,0.0891 0.0891,0.28889 0,0.37798 -0.17818,0.17818 -0.53057,-0.11269 -0.75595,0 -0.15937,0.0797 -0.21861,0.29829 -0.37798,0.37797 -0.22538,0.11269 -0.57777,-0.17817 -0.75595,0 -0.0891,0.0891 0.0891,0.28889 0,0.37798 -0.0891,0.0891 -0.26528,-0.0563 -0.37798,0 -0.15936,0.0797 -0.2186,0.29829 -0.37797,0.37798 -0.11269,0.0563 -0.28889,-0.0891 -0.37798,0 -0.0891,0.0891 0.0891,0.28888 0,0.37797 -0.0891,0.0891 -0.28888,-0.0891 -0.37798,0 -0.0891,0.0891 0.0891,0.28889 0,0.37798 -0.46036,0.46037 -0.84447,0.17705 -1.13392,0.75595 -0.0564,0.11269 0.0891,0.28889 0,0.37798 -0.0891,0.0891 -0.28889,-0.0891 -0.37798,0 -0.19921,0.19921 -0.2217,0.52154 -0.37797,0.75595 -0.19768,0.29651 -0.59659,0.43721 -0.75596,0.75595 -0.0563,0.11269 0.0564,0.26529 0,0.37798 -0.0797,0.15937 -0.29829,0.21861 -0.37797,0.37797 -0.0564,0.1127 0.0891,0.28889 0,0.37798 -0.0891,0.0891 -0.28889,-0.0891 -0.37798,0 -0.0773,0.0773 0.0749,0.98406 0,1.13393 -0.0797,0.15937 -0.29829,0.21861 -0.37798,0.37798 -0.15119,0.30238 0.15119,0.83154 0,1.13392 -0.0797,0.15937 -0.29829,0.21861 -0.37797,0.37798 -0.15119,0.30238 0.15119,0.83155 0,1.13393 -0.0797,0.15937 -0.29829,0.21861 -0.37798,0.37798 -0.13054,0.26108 0.13268,1.7572 0,1.88988 -0.0891,0.0891 -0.28889,-0.0891 -0.37797,0 -0.17818,0.17818 0.11269,0.53057 0,0.75595 -0.0797,0.15937 -0.2983,0.21861 -0.37798,0.37797 -0.11269,0.22539 0.17818,0.57778 0,0.75596 -0.0891,0.0891 -0.28889,-0.0891 -0.37798,0 -0.0891,0.0891 0.0891,0.28888 0,0.37797 -0.0891,0.0891 -0.28888,-0.0891 -0.37797,0 0,1.00794 0.12599,-0.12599 -0.37798,0.37798 -0.0891,0.0891 0.0891,0.28889 0,0.37798 -0.17818,0.17817 -0.57777,-0.17819 -0.75595,0 -0.0891,0.0891 0.0891,0.28888 0,0.37797 -0.0152,0.0152 -1.3731,0 -1.51191,0 -0.88194,0 -1.76388,0 -2.64583,0 -0.12599,0 -0.28889,0.0891 -0.37798,0 -0.0891,-0.0891 0.0891,-0.28888 0,-0.37797 -0.18899,-0.18899 -0.94494,0.18898 -1.13392,0 -0.0891,-0.0891 0.0891,-0.28889 0,-0.37798 -0.17818,-0.17818 -0.53057,0.11269 -0.75596,0 -0.15937,-0.0797 -0.2186,-0.29829 -0.37797,-0.37798 -0.22538,-0.11269 -0.53057,0.11269 -0.75596,0 -0.15936,-0.0797 -0.2186,-0.29829 -0.37797,-0.37797 -0.30238,-0.15119 -0.83155,0.15119 -1.13393,0 -0.15937,-0.0797 -0.21861,-0.2983 -0.37798,-0.37798 -0.20504,-0.10252 -1.40848,0.10342 -1.5119,0 -0.0891,-0.0891 0.0891,-0.28889 0,-0.37798 -0.0891,-0.0891 -0.25198,0 -0.37798,0 -1.00793,0 -2.01587,0 -3.02381,0 -1.13392,0 -2.26785,0 -3.40178,0 -0.12599,0 -0.25199,0 -0.37798,0 -0.12599,0 -0.28888,0.0891 -0.37797,0 -0.0891,-0.0891 0.0891,-0.28888 0,-0.37797 -0.0891,-0.0891 -0.25199,0 -0.37798,0 -0.12599,0 -0.28889,-0.0891 -0.37798,0 -0.0891,0.0891 0.0891,0.28888 0,0.37797 -0.0891,0.0891 -0.25198,0 -0.37797,0 -0.62996,0 -1.25992,0 -1.88988,0 -0.126,0 -0.25199,0 -0.37798,0 -0.12599,0 -0.28889,0.0891 -0.37798,0 -0.0891,-0.0891 0.0891,-0.28888 0,-0.37797 -0.0152,-0.0152 -1.37309,0 -1.5119,0 -0.12599,0 -0.28889,-0.0891 -0.37798,0 -0.0891,0.0891 0.0891,0.28888 0,0.37797 -0.0122,0.0121 -1.04226,0 -1.13393,0 -1.13392,0 -2.26785,0 -3.40178,0 -0.19765,0 -1.41252,-0.0497 -1.51191,0 -0.15937,0.0797 -0.20894,0.32163 -0.37797,0.37798 -0.20903,0.0697 -1.88722,0 -2.26786,0 -0.12599,0 -0.26529,-0.0563 -0.37798,0 -0.15937,0.0797 -0.2186,0.29829 -0.37797,0.37798 -0.22538,0.11269 -0.57778,-0.17818 -0.75595,0 -0.0891,0.0891 0.0891,0.28888 0,0.37797 -0.17818,0.17818 -0.53058,-0.11269 -0.75596,0 -0.15936,0.0797 -0.2186,0.2983 -0.37797,0.37798 -0.22538,0.11269 -0.53057,-0.11269 -0.75596,0 -0.15936,0.0797 -0.2186,0.29829 -0.37797,0.37798 -0.30238,0.15119 -0.83155,-0.15119 -1.13393,0 -0.15937,0.0797 -0.20894,0.32163 -0.37798,0.37797 -1.72065,0 -0.0216,-0.17818 -1.13392,0.37798 -0.1127,0.0563 -0.25199,0 -0.37798,0 -0.25198,0 -0.5169,-0.0797 -0.75595,0 -0.16904,0.0563 -0.21861,0.29829 -0.37798,0.37797 -0.22538,0.11269 -0.53057,-0.11269 -0.75595,0 -0.15937,0.0797 -0.21861,0.29829 -0.37798,0.37798 -0.22538,0.11269 -0.57777,-0.17818 -0.75595,0 -0.0891,0.0891 0.0891,0.28889 0,0.37798 -0.17818,0.17818 -0.53057,-0.11269 -0.75595,0 -0.15937,0.0797 -0.21861,0.29829 -0.37798,0.37797 -0.11269,0.0564 -0.25845,-0.0398 -0.37798,0 -0.26726,0.0891 -0.48868,0.28889 -0.75595,0.37798 -0.23905,0.0797 -0.57777,-0.17818 -0.75595,0 -0.0891,0.0891 0.11269,0.32163 0,0.37798 -0.22538,0.11269 -0.5169,-0.0797 -0.75595,0 -0.16904,0.0563 -0.21861,0.29829 -0.37798,0.37797 -0.11269,0.0563 -0.26528,-0.0563 -0.37797,0 -0.15937,0.0797 -0.21861,0.29829 -0.37798,0.37798 -0.22538,0.11269 -0.53057,-0.11269 -0.75595,0 -0.15937,0.0797 -0.21861,0.29829 -0.37798,0.37797 -0.22538,0.11269 -0.53057,-0.11269 -0.75595,0 -0.15937,0.0797 -0.21861,0.2983 -0.37798,0.37798 -0.14986,0.0749 -1.05665,-0.0773 -1.13393,0 -0.0891,0.0891 0.0891,0.28889 0,0.37798 -0.17818,0.17818 -0.57777,-0.17818 -0.75595,0 -0.0891,0.0891 0.0891,0.28888 0,0.37797 -0.17818,0.17818 -0.53057,-0.11269 -0.75595,0 -0.15937,0.0797 -0.21861,0.29829 -0.37798,0.37798 -0.22538,0.11269 -0.57777,-0.17818 -0.75595,0 -0.0891,0.0891 0.0891,0.28888 0,0.37797 -0.18899,0.18899 -0.94494,-0.18898 -1.13393,0 -0.0891,0.0891 0.0891,0.28889 0,0.37798 -0.0773,0.0773 -0.98406,-0.0749 -1.13393,0 -0.15937,0.0797 -0.21861,0.29829 -0.37797,0.37798 -0.22538,0.11269 -0.57778,-0.17818 -0.75596,0 -0.0891,0.0891 0.0891,0.28888 0,0.37797 -0.18898,0.18899 -0.94494,-0.18898 -1.13392,0 -0.0891,0.0891 0.0891,0.28889 0,0.37798 -0.17818,0.17818 -0.53058,-0.11269 -0.75596,0 -0.15936,0.0797 -0.2186,0.29829 -0.37797,0.37798 -0.22538,0.11269 -0.57777,-0.17819 -0.75596,0 -0.0891,0.0891 0.0891,0.28888 0,0.37797 -0.17817,0.17818 -0.53057,-0.11269 -0.75595,0 -0.15937,0.0797 -0.21861,0.29829 -0.37797,0.37798 -0.22539,0.11269 -0.53057,-0.11269 -0.75596,0 -0.15937,0.0797 -0.2186,0.29829 -0.37797,0.37797 -0.22538,0.11269 -0.53057,-0.11269 -0.75595,0 -0.15937,0.0797 -0.21861,0.29829 -0.37798,0.37798 -0.22538,0.11269 -0.53057,-0.11269 -0.75595,0 -0.15937,0.0797 -0.21861,0.29829 -0.37798,0.37798 -0.30238,0.15119 -0.83155,-0.15119 -1.13393,0 -0.15937,0.0797 -0.2186,0.29829 -0.37797,0.37797 -0.14987,0.0749 -1.05666,-0.0773 -1.13393,0 -0.0891,0.0891 0.0891,0.28889 0,0.37798 -0.18899,0.18899 -0.94494,-0.18899 -1.13393,0 -0.0891,0.0891 0.0891,0.28888 0,0.37797 -0.0891,0.0891 -0.26529,-0.0563 -0.37798,0 -1.25359,1.25359 0.35636,-0.17818 -0.75595,0.37798 -0.15937,0.0797 -0.21861,0.29829 -0.37798,0.37798 -0.11269,0.0563 -0.26528,-0.0564 -0.37797,0 -0.15937,0.0797 -0.21861,0.29829 -0.37798,0.37797 -0.11269,0.0564 -0.26528,-0.0563 -0.37797,0 -0.15937,0.0797 -0.21861,0.2983 -0.37798,0.37798 -0.11269,0.0563 -0.28889,-0.0891 -0.37798,0 -0.0891,0.0891 0.0891,0.28889 0,0.37798 -0.0891,0.0891 -0.26528,-0.0563 -0.37797,0 -0.15937,0.0797 -0.21861,0.29829 -0.37798,0.37797 -0.11269,0.0564 -0.26528,-0.0563 -0.37798,0 -0.15937,0.0797 -0.2186,0.29829 -0.37797,0.37798 -0.11269,0.0563 -0.26529,-0.0564 -0.37798,0 -0.31874,0.15937 -0.45944,0.55828 -0.75595,0.75595 -0.23441,0.15627 -0.55674,0.17877 -0.75595,0.37798 -0.0891,0.0891 0.0891,0.28888 0,0.37797 -0.0891,0.0891 -0.28889,-0.0891 -0.37798,0 -0.0891,0.0891 0.0891,0.28889 0,0.37798 -0.0891,0.0891 -0.26528,-0.0564 -0.37797,0 -1.57305,0.78652 0.40406,-0.0261 -0.37798,0.75595 -0.0891,0.0891 -0.28889,-0.0891 -0.37798,0 -0.0891,0.0891 0.0891,0.28889 0,0.37798 -0.0891,0.0891 -0.28888,-0.0891 -0.37797,0 -0.0891,0.0891 0.0891,0.28889 0,0.37797 -0.0891,0.0891 -0.28889,-0.0891 -0.37798,0 -0.17818,0.17818 0.17818,0.57778 0,0.75596 -0.0891,0.0891 -0.26529,-0.0563 -0.37798,0 -0.31873,0.15936 -0.43721,0.59658 -0.75595,0.75595 -0.11269,0.0563 -0.28888,-0.0891 -0.37797,0 -0.0891,0.0891 0.0563,0.26528 0,0.37797 -0.0797,0.15937 -0.25199,0.25199 -0.37798,0.37798 -0.12599,0.12599 -0.21861,0.29829 -0.37798,0.37798 -0.11269,0.0563 -0.26528,-0.0564 -0.37797,0 -0.20187,0.10093 -0.93494,0.93493 -1.13393,1.13393 -0.19899,0.19899 -1.033,0.93205 -1.13393,1.13392 -0.0563,0.1127 0.0563,0.26529 0,0.37798 -0.0797,0.15937 -0.25198,0.25198 -0.37798,0.37798 -0.12599,0.12599 -0.2186,0.29829 -0.37797,0.37797 -0.11269,0.0564 -0.28889,-0.0891 -0.37798,0 -0.0891,0.0891 0.0563,0.26529 0,0.37798 -0.15937,0.31874 -0.59658,0.43721 -0.75595,0.75595 -0.0564,0.11269 0.0891,0.28889 0,0.37798 -0.0891,0.0891 -0.28889,-0.0891 -0.37798,0 -0.0891,0.0891 0.0564,0.26528 0,0.37797 -0.0797,0.15937 -0.29829,0.21861 -0.37797,0.37798 -0.0564,0.11269 0.0891,0.28889 0,0.37798 -0.0891,0.0891 -0.28889,-0.0891 -0.37798,0 -0.0891,0.0891 0.0891,0.28888 0,0.37797 -0.0891,0.0891 -0.28889,-0.0891 -0.37798,0 -0.0891,0.0891 0.0563,0.26529 0,0.37798 -0.0875,0.17503 -1.2896,1.2896 -1.5119,1.5119 -0.22231,0.22231 -1.33687,1.42439 -1.51191,1.51191 -0.11269,0.0563 -0.28888,-0.0891 -0.37797,0 -0.0891,0.0891 0.0891,0.28888 0,0.37797 -0.0891,0.0891 -0.28889,-0.0891 -0.37798,0 -0.0891,0.0891 0,0.25199 0,0.37798 -0.25198,0.12599 -0.55674,0.17877 -0.75595,0.37798 -0.0891,0.0891 0.0563,0.26528 0,0.37797 -0.0362,0.0724 -1.43955,1.47573 -1.5119,1.51191 -0.1127,0.0563 -0.28889,-0.0891 -0.37798,0 -0.19921,0.19921 -0.17877,0.55674 -0.37798,0.75595 -0.0891,0.0891 -0.28888,-0.0891 -0.37797,0 -0.0891,0.0891 0.0563,0.26529 0,0.37798 -0.12038,0.24076 -1.59288,1.59288 -1.88988,1.88988 -0.126,0.12599 -0.2983,0.21861 -0.37798,0.37797 -0.0564,0.11269 0.0891,0.28889 0,0.37798 -0.0891,0.0891 -0.26529,-0.0564 -0.37798,0 -0.31873,0.15937 -0.43721,0.59658 -0.75595,0.75595 -0.11269,0.0564 -0.28889,-0.0891 -0.37798,0 -0.0891,0.0891 0.0891,0.28889 0,0.37798 -0.0891,0.0891 -0.25198,0 -0.37797,0 0,0.12599 0.0891,0.28888 0,0.37797 -0.0891,0.0891 -0.28889,-0.0891 -0.37798,0 -0.0891,0.0891 0.0891,0.28889 0,0.37798 -0.0891,0.0891 -0.28889,-0.0891 -0.37797,0 -0.0891,0.0891 0.0563,0.26529 0,0.37798 -0.0875,0.17503 -1.2896,1.2896 -1.51191,1.5119 -0.2223,0.22231 -1.33687,1.42439 -1.5119,1.51191 -0.11269,0.0563 -0.26529,-0.0563 -0.37798,0 -1.57305,0.78652 0.40407,-0.0261 -0.37798,0.75595 -0.0891,0.0891 -0.26528,-0.0564 -0.37797,0 -0.15937,0.0797 -0.21861,0.29829 -0.37798,0.37797 -0.11269,0.0563 -0.28888,-0.0891 -0.37797,0 -0.0891,0.0891 0.0891,0.28889 0,0.37798 -0.0891,0.0891 -0.26529,-0.0563 -0.37798,0 -0.15937,0.0797 -0.21861,0.29829 -0.37798,0.37798 -0.11269,0.0563 -0.28888,-0.0891 -0.37797,0 -0.0891,0.0891 0.0891,0.28888 0,0.37797 -0.0891,0.0891 -0.26529,-0.0563 -0.37798,0 -0.15937,0.0797 -0.21861,0.2983 -0.37798,0.37798 -0.11269,0.0563 -0.28888,-0.0891 -0.37797,0 -0.0891,0.0891 0.0891,0.28889 0,0.37798 -0.17818,0.17817 -0.53057,-0.1127 -0.75595,0 -0.15937,0.0797 -0.21861,0.29829 -0.37798,0.37797 -0.11269,0.0564 -0.26529,-0.0563 -0.37798,0 -0.15936,0.0797 -0.2186,0.29829 -0.37797,0.37798 -0.11269,0.0563 -0.26529,-0.0564 -0.37798,0 -0.15937,0.0797 -0.21861,0.29829 -0.37797,0.37797 -0.1127,0.0564 -0.26529,-0.0563 -0.37798,0 -0.15937,0.0797 -0.218607,0.29829 -0.377976,0.37798 -0.112692,0.0563 -0.265287,-0.0564 -0.377976,0 -0.159369,0.0797 -0.218609,0.29829 -0.377978,0.37798 -0.112689,0.0563 -0.265285,-0.0563 -0.377976,0 -0.159369,0.0797 -0.218607,0.29829 -0.377976,0.37797 -0.112691,0.0564 -0.265285,-0.0563 -0.377976,0 -0.318738,0.15937 -0.437216,0.59659 -0.755952,0.75596 -0.112691,0.0563 -0.288887,-0.0891 -0.377975,0 -0.08909,0.0891 0.08909,0.28888 0,0.37797 -0.08909,0.0891 -0.265287,-0.0563 -0.377979,0 -0.159366,0.0797 -0.218606,0.29829 -0.377976,0.37798 -0.112688,0.0563 -0.288885,-0.0891 -0.377975,0 -0.08909,0.0891 0.08909,0.28888 0,0.37797 -0.08909,0.0891 -0.265285,-0.0563 -0.377976,0 -0.159369,0.0797 -0.218607,0.29829 -0.377976,0.37798 -0.112691,0.0563 -0.288888,-0.0891 -0.377976,0 -0.08909,0.0891 0.08909,0.28889 0,0.37798 -0.08909,0.0891 -0.288888,-0.0891 -0.377976,0 -0.08909,0.0891 0.08909,0.28888 0,0.37797 -0.178181,0.17818 -0.577773,-0.17818 -0.755954,0 -0.08909,0.0891 0.08909,0.28889 0,0.37798 -0.178178,0.17818 -0.577771,-0.17818 -0.755951,0 -0.08909,0.0891 0.08909,0.28888 0,0.37797 -0.178179,0.17818 -0.577774,-0.17818 -0.755952,0 -0.08909,0.0891 0.08909,0.28889 0,0.37798 -0.178181,0.17818 -0.577773,-0.17818 -0.755954,0 -0.08909,0.0891 0.08909,0.28889 0,0.37798 -0.188987,0.18899 -0.944939,-0.18899 -1.133928,0 -0.08909,0.0891 0.08909,0.28888 0,0.37797 -0.178178,0.17818 -0.530571,-0.11269 -0.755951,0 -0.15937,0.0797 -0.21861,0.2983 -0.377976,0.37798 -0.225383,0.11269 -0.577773,-0.17818 -0.755954,0 -0.08909,0.0891 0.08909,0.28889 0,0.37798 -0.178179,0.17817 -0.530569,-0.1127 -0.755952,0 -0.159369,0.0797 -0.218607,0.29829 -0.377976,0.37797 -0.149865,0.0749 -1.056656,-0.0773 -1.13393,0 -0.08909,0.0891 0.08909,0.28889 0,0.37798 -0.08909,0.0891 -0.251984,0 -0.377976,0 -0.629959,0 -1.259919,0 -1.889879,0 -0.629962,0 -1.259922,0 -1.889882,0 -0.125991,0 -0.251983,0 -0.377975,0 -0.125992,0 -0.265287,0.0563 -0.377976,0 -0.159369,-0.0797 -0.218609,-0.29829 -0.377979,-0.37798 -0.205046,-0.10252 -1.40848,0.10342 -1.511903,0 -0.08909,-0.0891 0.08909,-0.28889 0,-0.37797 -0.08909,-0.0891 -0.265284,0.0563 -0.377976,0 -0.159369,-0.0797 -0.218609,-0.2983 -0.377975,-0.37798 -0.112692,-0.0564 -0.265288,0.0563 -0.377979,0 -0.159366,-0.0797 -0.218607,-0.29829 -0.377976,-0.37798 -0.112688,-0.0563 -0.288885,0.0891 -0.377975,0 -0.08909,-0.0891 0.08909,-0.28888 0,-0.37797 -0.08909,-0.0891 -0.265285,0.0563 -0.377976,0 -0.159369,-0.0797 -0.218607,-0.2983 -0.377976,-0.37798 -0.112691,-0.0563 -0.288888,0.0891 -0.377976,0 -0.08909,-0.0891 0.08909,-0.28889 0,-0.37798 -0.08909,-0.0891 -0.288888,0.0891 -0.377976,0 -0.08909,-0.0891 0.08909,-0.28888 0,-0.37797 -0.08909,-0.0891 -0.265287,0.0563 -0.377978,0 -0.318736,-0.15937 -0.437214,-0.59659 -0.755952,-0.75595 -0.112691,-0.0563 -0.288885,0.0891 -0.377976,0 -0.08909,-0.0891 0.08909,-0.28889 0,-0.37798 -0.08909,-0.0891 -0.265284,0.0563 -0.377975,0 -1.253591,-1.25359 0.356359,0.17818 -0.755952,-0.37798 -0.159369,-0.0797 -0.218609,-0.29829 -0.377978,-0.37797 -0.22538,-0.11269 -0.577771,0.17818 -0.755952,0 -0.08909,-0.0891 0.08909,-0.28889 0,-0.37798 -0.08909,-0.0891 -0.251984,0 -0.377976,0 -0.755952,0 -1.511906,0 -2.267857,0 -0.125992,0 -0.265285,-0.0563 -0.377976,0 -0.159369,0.0797 -0.218607,0.29829 -0.377976,0.37798 -0.149865,0.0749 -1.056656,-0.0773 -1.13393,0 -0.08909,0.0891 0.08909,0.28888 0,0.37797 -0.178178,0.17818 -0.530569,-0.11269 -0.755952,0 -0.159369,0.0797 -0.218606,0.29829 -0.377975,0.37798 -0.225383,0.11269 -0.530572,-0.11269 -0.755952,0 -0.159369,0.0797 -0.218609,0.29829 -0.377976,0.37798 -0.225383,0.11269 -0.577773,-0.17818 -0.755954,0 -0.08909,0.0891 0.08909,0.28888 0,0.37797 -0.09095,0.091 -1.42095,-0.0909 -1.511903,0 -0.08909,0.0891 0.08909,0.28889 0,0.37798 -0.18899,0.18899 -0.944941,-0.18899 -1.13393,0 -0.08909,0.0891 0.08909,0.28888 0,0.37797 -0.07727,0.0773 -0.984063,-0.0749 -1.133928,0 -0.159369,0.0797 -0.218607,0.2983 -0.377976,0.37798 -0.225382,0.11269 -0.577773,-0.17818 -0.755954,0 -0.08909,0.0891 0.08909,0.28889 0,0.37798 -0.188987,0.18899 -0.944938,-0.18899 -1.133927,0 -0.08909,0.0891 0.08909,0.28888 0,0.37797 -0.178179,0.17818 -0.530572,-0.11269 -0.755952,0 -0.159369,0.0797 -0.218609,0.2983 -0.377976,0.37798 -0.205049,0.10252 -1.408483,-0.10342 -1.511906,0 -0.08909,0.0891 0.08909,0.28889 0,0.37798 -0.08909,0.0891 -0.251984,0 -0.377976,0 -0.629959,0 -1.259922,0 -1.889881,0 -0.125992,0 -0.288886,0.0891 -0.377976,0 -0.08909,-0.0891 0.08909,-0.28889 0,-0.37798 -0.178178,-0.17818 -0.577773,0.17818 -0.755952,0 -0.08909,-0.0891 0.08909,-0.28889 0,-0.37798 -0.782047,-0.78204 0.03057,1.19507 -0.755954,-0.37797 -0.05634,-0.1127 0.08909,-0.28889 0,-0.37798 -0.08909,-0.0891 -0.288885,0.0891 -0.377976,0 -0.188986,-0.18899 0.18899,-0.94494 0,-1.13393 -0.08909,-0.0891 -0.288885,0.0891 -0.377975,0 -0.08909,-0.0891 0,-0.25198 0,-0.37797 0,-0.88195 0,-1.76389 0,-2.64584 0,-0.12599 0,-0.25198 0,-0.37797 0,-0.126 0.08909,-0.28889 0,-0.37798 -0.08909,-0.0891 -0.288886,0.0891 -0.377976,0 -0.07727,-0.0773 0.07493,-0.98406 0,-1.13393 -0.07969,-0.15937 -0.298292,-0.2186 -0.377976,-0.37797 -0.119227,-0.23846 0.119226,-1.65143 0,-1.88989 -0.07968,-0.15936 -0.298291,-0.2186 -0.377976,-0.37797 -0.04969,-0.0994 0,-1.31426 0,-1.51191 0,-1.00793 0.125992,0.12599 -0.377976,-0.37797 -0.01714,-0.0171 0,-1.71167 0,-1.88988 0,-0.126 0.08909,-0.28889 0,-0.37798 -0.08909,-0.0891 -0.288888,0.0891 -0.377978,0 -0.01214,-0.0121 0,-1.04226 0,-1.13393 0,-0.88194 0,-1.76389 0,-2.64583 0,-0.17023 -0.05752,-1.0189 0,-1.13393 0.07968,-0.15937 0.298294,-0.21861 0.377978,-0.37798 0.151188,-0.30238 -0.151191,-0.83154 0,-1.13392 0.07968,-0.15937 0.298292,-0.21861 0.377976,-0.37798 0.112689,-0.22538 -0.178181,-0.57777 0,-0.75595 0.08909,-0.0891 0.288885,0.0891 0.377976,0 0.08909,-0.0891 -0.08909,-0.28889 0,-0.37798 0.08909,-0.0891 0.265284,0.0563 0.377976,0 0.159369,-0.0797 0.218606,-0.29829 0.377976,-0.37798 0.225382,-0.11269 0.577773,0.17818 0.755951,0 0.08909,-0.0891 -0.08909,-0.28888 0,-0.37797 0.08909,-0.0891 0.251987,0 0.377979,0 0.755951,0 1.511903,0 2.267854,0 1.637898,0 3.275796,0 4.913691,0 0.262898,0 1.753193,0.0683 1.889882,0 0.159369,-0.0797 0.218607,-0.29829 0.377976,-0.37798 0.26108,-0.13054 1.757203,0.13268 1.889881,0 0.08909,-0.0891 -0.08909,-0.28889 0,-0.37797 0.08909,-0.0891 0.265285,0.0563 0.377976,0 0.159369,-0.0797 0.218607,-0.2983 0.377976,-0.37798 0.112691,-0.0563 0.265287,0.0563 0.377976,0 0.159369,-0.0797 0.218609,-0.29829 0.377976,-0.37798 0.112691,-0.0563 0.288888,0.0891 0.377978,0 0.08909,-0.0891 -0.08909,-0.28888 0,-0.37797 0.08909,-0.0891 0.288885,0.0891 0.377976,0 0.08909,-0.0891 -0.08909,-0.28889 0,-0.37798 0.08909,-0.0891 0.288885,0.0891 0.377976,0 0.08909,-0.0891 -0.05635,-0.26528 0,-0.37798 0.07968,-0.15936 0.298291,-0.2186 0.377976,-0.37797 0.05635,-0.11269 -0.08909,-0.28889 0,-0.37798 0.08909,-0.0891 0.265284,0.0564 0.377975,0 1.573046,-0.78652 -0.404069,0.0261 0.377976,-0.75595 0.08909,-0.0891 0.288888,0.0891 0.377976,0 0.178181,-0.17818 -0.178178,-0.57777 0,-0.75595 0.08909,-0.0891 0.288888,0.0891 0.377978,0 0.188987,-0.18899 -0.188989,-0.94494 0,-1.13393 0.08909,-0.0891 0.288886,0.0891 0.377976,0 0.07727,-0.0773 -0.07493,-0.98406 0,-1.13393 0.07968,-0.15937 0.298291,-0.21861 0.377976,-0.37798 0.112691,-0.22538 -0.178181,-0.57777 0,-0.75595 0.08909,-0.0891 0.288885,0.0891 0.377976,0 0.178181,-0.17818 -0.178179,-0.57777 0,-0.75595 0.08909,-0.0891 0.288885,0.0891 0.377976,0 0.08909,-0.0891 -0.05635,-0.26529 0,-0.37798 0.07968,-0.15936 0.298291,-0.2186 0.377975,-0.37797 0.05635,-0.11269 -0.05635,-0.26529 0,-0.37798 0.07968,-0.15937 0.298294,-0.21861 0.377976,-0.37798 0.05635,-0.11269 -0.08909,-0.28888 0,-0.37797 0.08909,-0.0891 0.288888,0.0891 0.377979,0 0.08909,-0.0891 -0.08909,-0.28889 0,-0.37798 0.08909,-0.0891 0.288885,0.0891 0.377975,0 0.08909,-0.0891 -0.08909,-0.28888 0,-0.37797 0.08909,-0.0891 0.288886,0.0891 0.377976,0 0.08909,-0.0891 -0.05634,-0.26529 0,-0.37798 0.05018,-0.10036 1.033571,-1.08375 1.133928,-1.13393 0.112691,-0.0563 0.288888,0.0891 0.377976,0 0.08909,-0.0891 -0.08909,-0.28888 0,-0.37797 0.08909,-0.0891 0.265287,0.0563 0.377978,0 0.318736,-0.15937 0.437213,-0.59659 0.755952,-0.75596 0.112691,-0.0563 0.265284,0.0564 0.377975,0 0.318739,-0.15936 0.437216,-0.59658 0.755952,-0.75595 0.112691,-0.0564 0.265287,0.0563 0.377976,0 0.404378,-0.20219 0.351576,-0.55376 0.755954,-0.75595 0.112691,-0.0564 0.288885,0.0891 0.377976,0 0.08909,-0.0891 -0.08909,-0.28889 0,-0.37798 0.08909,-0.0891 0.265284,0.0564 0.377976,0 0.159369,-0.0797 0.218606,-0.29829 0.377976,-0.37797 0.112691,-0.0563 0.288887,0.0891 0.377975,0 0.08909,-0.0891 -0.08909,-0.28889 0,-0.37798 0.782048,-0.78205 -0.03057,1.19507 0.755955,-0.37798 0.05634,-0.11269 -0.08909,-0.28888 0,-0.37797 0.08909,-0.0891 0.288885,0.0891 0.377975,0 0.08909,-0.0891 -0.08909,-0.28889 0,-0.37798 0.08909,-0.0891 0.288886,0.0891 0.377976,0 0.08909,-0.0891 -0.05634,-0.26528 0,-0.37798 0.159369,-0.31873 0.596583,-0.43721 0.755952,-0.75595 0.112691,-0.22538 -0.112692,-0.53057 0,-0.75595 0.07968,-0.15937 0.298291,-0.21861 0.377976,-0.37798 0.102523,-0.20504 -0.103423,-1.40848 0,-1.5119 0.08909,-0.0891 0.288888,0.0891 0.377975,0 0.08909,-0.0891 0,-0.25198 0,-0.37798 0,-0.26791 -0.04886,-2.17013 0,-2.26785 0.07968,-0.15937 0.298294,-0.21861 0.377979,-0.37798 0.05634,-0.11269 -0.05635,-0.26529 0,-0.37798 0.786521,-1.57304 -0.02609,0.40407 0.755951,-0.37797 0.08909,-0.0891 -0.08909,-0.28889 0,-0.37798 0.08909,-0.0891 0.288886,0.0891 0.377976,0 0.08909,-0.0891 -0.112691,-0.32163 0,-0.37797 0.225383,-0.1127 0.516901,0.0797 0.755952,0 0.169037,-0.0563 0.218609,-0.2983 0.377976,-0.37798 0.225382,-0.11269 0.577773,0.17818 0.755954,0 0.08909,-0.0891 -0.112691,-0.32163 0,-0.37798 0.22538,-0.11269 0.503968,0 0.755952,0 0.125992,0 0.288885,0.0891 0.377975,0 0.08909,-0.0891 -0.08909,-0.28888 0,-0.37797 0.178181,-0.17818 0.530572,0.11269 0.755952,0 0.159369,-0.0797 0.218609,-0.2983 0.377978,-0.37798 0.149863,-0.0749 1.056656,0.0773 1.133928,0 0.08909,-0.0891 -0.08909,-0.28889 0,-0.37798 0.08909,-0.0891 0.251984,0 0.377976,0 0.629959,0 1.259922,0 1.889881,0 2.141866,0 4.283729,0 6.425594,0 1.007939,0 -0.125992,-0.12599 0.377976,0.37798 0.08909,0.0891 0.251987,0 0.377979,0 0.170222,0 1.018897,0.0575 1.133927,0 0.159369,-0.0797 0.218607,-0.29829 0.377976,-0.37798 0.205047,-0.10252 1.408483,0.10343 1.511906,0 0.08909,-0.0891 -0.08909,-0.28888 0,-0.37797 0.08909,-0.0891 0.288886,0.0891 0.377976,0 0.0891,-0.0891 -0.0891,-0.28889 0,-0.37798 0.0891,-0.0891 0.28888,0.0891 0.37798,0 0.0891,-0.0891 -0.0891,-0.28888 0,-0.37797 0.0891,-0.0891 0.28888,0.0891 0.37797,0 0.0891,-0.0891 -0.0891,-0.28889 0,-0.37798 0.0891,-0.0891 0.28889,0.0891 0.37798,0 0.0891,-0.0891 -0.0563,-0.26529 0,-0.37798 0.0797,-0.15936 0.29829,-0.2186 0.37797,-0.37797 0.11269,-0.22538 -0.17818,-0.57777 0,-0.75596 0.0891,-0.0891 0.28889,0.0891 0.37798,0 0.0891,-0.0891 -0.0563,-0.26528 0,-0.37797 0.0797,-0.15937 0.29829,-0.21861 0.37798,-0.37798 0.11269,-0.22538 -0.11269,-0.53057 0,-0.75595 0.0797,-0.15937 0.29829,-0.21861 0.37797,-0.37798 0.0563,-0.11269 -0.0891,-0.28888 0,-0.37797 0.0891,-0.0891 0.28889,0.0891 0.37798,0 0.17818,-0.17818 -0.11269,-0.53057 0,-0.75595 0.0797,-0.15937 0.29829,-0.21861 0.37797,-0.37798 0.1127,-0.22538 -0.17817,-0.57777 0,-0.75595 0.0891,-0.0891 0.28889,0.0891 0.37798,0 0.0891,-0.0891 -0.0891,-0.28889 0,-0.37798 0.0891,-0.0891 0.28889,0.0891 0.37798,0 0.0891,-0.0891 -0.0564,-0.26529 0,-0.37798 0.0797,-0.15937 0.29829,-0.2186 0.37797,-0.37797 0.0564,-0.11269 -0.0891,-0.28889 0,-0.37798 0.0891,-0.0891 0.28889,0.0891 0.37798,0 0.17818,-0.17818 -0.17818,-0.57777 0,-0.75595 0.0891,-0.0891 0.28889,0.0891 0.37798,0 0.17817,-0.17818 -0.17818,-0.57777 0,-0.75595 0.0891,-0.0891 0.28888,0.0891 0.37797,0 0.0891,-0.0891 -0.0563,-0.26529 0,-0.37798 0.0362,-0.0724 1.43955,-1.47573 1.51191,-1.5119 0.11269,-0.0563 0.28888,0.0891 0.37797,0 0.0891,-0.0891 -0.0891,-0.28889 0,-0.37798 0.0891,-0.0891 0.26529,0.0563 0.37798,0 0.15937,-0.0797 0.21861,-0.29829 0.37798,-0.37798 0.20504,-0.10252 1.40848,0.10343 1.5119,0 0.0891,-0.0891 -0.11269,-0.32163 0,-0.37797 0.86033,-0.43017 0.62996,0.12599 1.13393,0.37797 0.23757,0.11879 1.27434,-0.11878 1.5119,0 0.15937,0.0797 0.21861,0.2983 0.37798,0.37798 0.22538,0.11269 0.57777,-0.17818 0.75595,0 0.0891,0.0891 -0.0891,0.28889 0,0.37798 0.0891,0.0891 0.25845,-0.0399 0.37798,0 0.26727,0.0891 0.48868,0.28888 0.75595,0.37797 0.14708,0.049 1.07527,-0.0587 1.13393,0 0.0891,0.0891 -0.11269,0.32163 0,0.37798 0.30238,0.15119 0.83155,-0.15119 1.13393,0 0.15937,0.0797 0.20894,0.32163 0.37797,0.37797 0.23906,0.0797 0.50397,0 0.75596,0 0.12599,0 0.26528,-0.0563 0.37797,0 0.31874,0.15937 0.43722,0.59659 0.75595,0.75596 0.1127,0.0563 0.25199,0 0.37798,0 0.12599,0.12599 0.21861,0.29829 0.37798,0.37797 0.22538,0.11269 0.57777,-0.17818 0.75595,0 0.0891,0.0891 -0.0891,0.28889 0,0.37798 0.18899,0.18899 0.94494,-0.18899 1.13393,0 0.0891,0.0891 -0.0891,0.28889 0,0.37798 0.17818,0.17817 0.53057,-0.1127 0.75595,0 0.0984,0.0492 0.46048,0.67345 0.75595,0.37797 0.17818,-0.17818 -0.17818,-0.57777 0,-0.75595 0.0891,-0.0891 0.28889,0.0891 0.37798,0 0.0891,-0.0891 -0.0891,-0.28889 0,-0.37798 0.0891,-0.0891 0.28888,0.0891 0.37798,0 0.0891,-0.0891 -0.0563,-0.26528 0,-0.37797 0.0797,-0.15937 0.29829,-0.21861 0.37797,-0.37798 0.0563,-0.11269 -0.0891,-0.28889 0,-0.37798 0.0891,-0.0891 0.28889,0.0891 0.37798,0 0.0891,-0.0891 -0.0891,-0.28888 0,-0.37797 0.0891,-0.0891 0.28888,0.0891 0.37797,0 0.0891,-0.0891 -0.0563,-0.26529 0,-0.37798 0.15937,-0.31874 0.59659,-0.43721 0.75596,-0.75595 0.0563,-0.11269 -0.0891,-0.28889 0,-0.37798 0.0891,-0.0891 0.28888,0.0891 0.37797,0 0.0891,-0.0891 -0.0563,-0.26528 0,-0.37797 0.0797,-0.15937 0.29829,-0.21861 0.37798,-0.37798 0.0563,-0.11269 -0.0891,-0.28888 0,-0.37797 0.0891,-0.0891 0.28888,0.0891 0.37797,0 0.0891,-0.0891 -0.0891,-0.28889 0,-0.37798 0.0891,-0.0891 0.28889,0.0891 0.37798,0 0.0891,-0.0891 -0.0891,-0.28889 0,-0.37798 0.0891,-0.0891 0.28889,0.0891 0.37798,0 0.0891,-0.0891 -0.0563,-0.26528 0,-0.37797 0.0797,-0.15937 0.29829,-0.21861 0.37797,-0.37798 0.0564,-0.11269 -0.0891,-0.28889 0,-0.37798 0.0891,-0.0891 0.26529,0.0563 0.37798,0 1.57305,-0.78652 -0.40407,0.0261 0.37798,-0.75595 0.0891,-0.0891 0.28888,0.0891 0.37797,0 0.78205,-0.78205 -1.19507,0.0306 0.37798,-0.75595 0.11269,-0.0564 0.28889,0.0891 0.37797,0 0.17818,-0.17818 -0.17818,-0.57777 0,-0.75595 1.00794,0 -0.12599,0.12599 0.37798,-0.37798 0.0891,-0.0891 0.28889,0.0891 0.37798,0 0.0891,-0.0891 -0.0563,-0.26528 0,-0.37798 0.0797,-0.15936 0.29829,-0.2186 0.37797,-0.37797 0.0564,-0.11269 -0.0891,-0.28889 0,-0.37798 0.0891,-0.0891 0.28889,0.0891 0.37798,0 0.0891,-0.0891 -0.0891,-0.28889 0,-0.37797 0.0891,-0.0891 0.28888,0.0891 0.37798,0 0.0891,-0.0891 -0.0891,-0.28889 0,-0.37798 0.0891,-0.0891 0.26528,0.0563 0.37797,0 0.15937,-0.0797 0.21861,-0.29829 0.37798,-0.37798 0.22538,-0.11269 0.57777,0.17818 0.75595,0 0.0891,-0.0891 -0.0891,-0.28888 0,-0.37797 0.18899,-0.18899 0.94494,0.18899 1.13393,0 0.0891,-0.0891 -0.0891,-0.28889 0,-0.37798 0.0909,-0.091 1.42095,0.0909 1.5119,0 0.0891,-0.0891 -0.0891,-0.28888 0,-0.37797 0.0891,-0.0891 0.25199,0 0.37798,0 0.88194,0 1.76389,0 2.64583,0 0.13881,0 1.4967,-0.0152 1.51191,0 0.0891,0.0891 -0.0891,0.28888 0,0.37797 0.0773,0.0773 0.98406,-0.0749 1.13393,0 0.15937,0.0797 0.2186,0.29829 0.37797,0.37798 0.30238,0.15119 0.83155,-0.15119 1.13393,0 0.15937,0.0797 0.21861,0.29829 0.37798,0.37797 0.30238,0.15119 0.83154,-0.15119 1.13393,0 0.15936,0.0797 0.2186,0.2983 0.37797,0.37798 0.30238,0.15119 0.83155,-0.15119 1.13393,0 0.15937,0.0797 0.21861,0.29829 0.37798,0.37798 0.22538,0.11269 0.53057,-0.11269 0.75595,0 0.15937,0.0797 0.21861,0.29829 0.37797,0.37797 0.22539,0.11269 0.53058,-0.11269 0.75596,0 0.15937,0.0797 0.21861,0.29829 0.37797,0.37798 0.22538,0.11269 0.53057,-0.11269 0.75596,0 0.15937,0.0797 0.2186,0.29829 0.37797,0.37797 0.14987,0.0749 1.05666,-0.0773 1.13393,0 0.0891,0.0891 -0.0891,0.28889 0,0.37798 0.10342,0.10342 1.30686,-0.10252 1.51191,0 0.15936,0.0797 0.2186,0.29829 0.37797,0.37798 0.11269,0.0563 0.25199,0 0.37798,0 0.12599,0 0.25198,0 0.37797,0 1.00794,0 -0.12599,-0.126 0.37798,0.37797 0.0909,0.091 1.42095,-0.0909 1.5119,0 0.0891,0.0891 -0.11269,0.32163 0,0.37798 0.30239,0.15119 0.83155,-0.15119 1.13393,0 0.15937,0.0797 0.21861,0.29829 0.37798,0.37798 0.13669,0.0683 1.62698,0 1.88988,0 1.00794,0 -0.12599,-0.126 0.37798,0.37797 0.0891,0.0891 0.25198,0 0.37797,0 0.25199,0 0.50397,0 0.75596,0 0.62996,0 1.25991,0 1.88988,0 0.12599,0 0.25198,0 0.37797,0 0.12599,0 0.26529,-0.0563 0.37798,0 0.15937,0.0797 0.21861,0.29829 0.37797,0.37798 0.11503,0.0575 0.96371,0 1.13393,0 1.00794,0 2.01588,0 3.02381,0 1.00794,0 2.01587,0 3.02381,0 0.19765,0 1.41252,0.0497 1.51191,0 0.15937,-0.0797 0.21861,-0.29829 0.37797,-0.37798 0.11269,-0.0563 0.25199,0 0.37798,0 0.62996,0 1.25992,0 1.88988,0 0.12599,0 0.25198,0 0.37798,0 0.12599,0 0.26528,0.0563 0.37797,0 0.15937,-0.0797 0.21861,-0.29829 0.37798,-0.37797 0.23757,-0.11879 1.27434,0.11878 1.5119,0 0.15937,-0.0797 0.21861,-0.2983 0.37798,-0.37798 0.11269,-0.0564 0.25199,0 0.37798,0 0.26791,0 2.17013,0.0489 2.26785,0 0.15937,-0.0797 0.20894,-0.32163 0.37798,-0.37798 0.23905,-0.0797 0.50397,0 0.75595,0 0.88195,0 1.76389,0 2.64584,0 0.37797,0 0.77534,0.11953 1.13392,0 0.16904,-0.0563 0.21861,-0.29829 0.37798,-0.37797 0.22952,-0.11476 2.03834,0.11475 2.26786,0 0.15937,-0.0797 0.20894,-0.32163 0.37797,-0.37798 0.25714,-0.0857 1.68947,0.10021 1.88988,0 0.15937,-0.0797 0.21861,-0.29829 0.37798,-0.37798 0.30238,-0.15119 0.83155,0.1512 1.13393,0 0.15937,-0.0797 0.21861,-0.29829 0.37798,-0.37797 0.30238,-0.15119 0.83154,0.15119 1.13392,0 0.15937,-0.0797 0.21861,-0.29829 0.37798,-0.37798 0.22538,-0.11269 0.53057,0.11269 0.75595,0 0.15937,-0.0797 0.21861,-0.29829 0.37798,-0.37797 0.30238,-0.15119 0.83155,0.15119 1.13393,0 0.15936,-0.0797 0.21861,-0.2983 0.37797,-0.37798 0.22538,-0.11269 0.53057,0.11269 0.75596,0 0.15937,-0.0797 0.2186,-0.29829 0.37797,-0.37798 0.22538,-0.11269 0.53057,0.11269 0.75595,0 0.15937,-0.0797 0.21861,-0.29829 0.37798,-0.37797 0.14986,-0.0749 1.05666,0.0773 1.13393,0 0.0891,-0.0891 -0.0891,-0.28889 0,-0.37798 0.17818,-0.17818 0.53057,0.11269 0.75595,0 0.15937,-0.0797 0.21861,-0.29829 0.37798,-0.37797 0.11269,-0.0563 0.26528,0.0563 0.37797,0 0.15937,-0.0797 0.21861,-0.2983 0.37798,-0.37798 0.22538,-0.11269 0.53057,0.11269 0.75595,0 0.15937,-0.0797 0.21861,-0.298292 0.37798,-0.377976 0.30238,-0.151191 0.83155,0.151191 1.13393,0 0.15936,-0.07968 0.21861,-0.298294 0.37797,-0.377976 0.11269,-0.05635 0.26529,0.05634 0.37798,0 0.15937,-0.07968 0.21861,-0.298294 0.37798,-0.377978 0.23756,-0.118783 1.27433,0.118784 1.5119,0 0.15937,-0.07968 0.21861,-0.298292 0.37797,-0.377976 0.23757,-0.118782 1.27434,0.118784 1.51191,0 0.15937,-0.07969 0.21861,-0.298292 0.37798,-0.377976 0.23756,-0.118782 1.27434,0.118785 1.5119,0 0.15937,-0.07968 0.21861,-0.298291 0.37798,-0.377976 0.11269,-0.05635 0.25198,0 0.37797,0 0.25199,0 0.5169,0.07968 0.75596,0 0.16903,-0.05635 0.2186,-0.298291 0.37797,-0.377976 0.23757,-0.118784 1.27434,0.118782 1.51191,0 0.15937,-0.07968 0.2186,-0.298291 0.37797,-0.377976 0.23757,-0.118784 1.27434,0.118783 1.51191,0 0.15937,-0.07968 0.21861,-0.298293 0.37797,-0.377975 0.20505,-0.102526 1.40849,0.10342 1.51191,0 0.0891,-0.08909 -0.0891,-0.288888 0,-0.377979 0.13268,-0.132675 1.6288,0.13054 1.88988,0 0.15937,-0.07968 0.21861,-0.298291 0.37798,-0.377976 0.22301,-0.111506 0.87394,0.08666 1.13393,0 0.26726,-0.08909 0.48868,-0.288885 0.75595,-0.377975 0.14708,-0.04903 1.07527,0.05866 1.13392,0 0.0891,-0.08909 -0.0891,-0.288886 0,-0.377976 0.11705,-0.117039 1.77285,0.117038 1.88989,0 0.0891,-0.08909 -0.0891,-0.288886 0,-0.377976 0.0773,-0.07727 0.98406,0.07493 1.13393,0 0.15936,-0.07968 0.2186,-0.298291 0.37797,-0.377976 0.11269,-0.05634 0.26529,0.05635 0.37798,0 0.15937,-0.07968 0.2186,-0.298294 0.37797,-0.377976 0.1127,-0.05635 0.26529,0.05634 0.37798,0 0.31874,-0.159369 0.43722,-0.596585 0.75595,-0.755954 0.11269,-0.05635 0.28889,0.08909 0.37798,0 0.0891,-0.08909 -0.0891,-0.288885 0,-0.377976 0.0891,-0.08909 0.28888,0.08909 0.37798,0 0.17817,-0.178178 -0.1127,-0.530571 0,-0.755951 0.0797,-0.159369 0.29829,-0.218607 0.37797,-0.377976 0.0497,-0.09939 0,-1.314254 0,-1.511906 0,-1.133927 0,-2.267857 0,-3.401785 0,-0.267912 -0.0489,-2.170131 0,-2.267857 0.0797,-0.15937 0.29829,-0.218607 0.37798,-0.377976 0.10252,-0.205047 -0.10343,-1.408483 0,-1.511906 0.0891,-0.08909 0.28888,0.08909 0.37797,0 0.17818,-0.178178 -0.17818,-0.577773 0,-0.755952 0.0891,-0.08909 0.28889,0.08909 0.37798,0 0.0891,-0.08909 -0.0891,-0.288885 0,-0.377976 0.0891,-0.08909 0.25198,0 0.37797,0 0,-0.125991 -0.0563,-0.265287 0,-0.377975 0.0797,-0.159369 0.25199,-0.251984 0.37798,-0.377976 0.12599,-0.125995 0.21861,-0.298294 0.37798,-0.377979 0.11269,-0.05634 0.28888,0.08909 0.37797,0 0.0891,-0.08909 -0.0891,-0.288885 0,-0.377975 0.0891,-0.08909 0.28889,0.08909 0.37798,0 0.0891,-0.08909 -0.0891,-0.288886 0,-0.377976 0.0891,-0.08909 0.28889,0.08909 0.37798,0 0,-1.007936 -0.126,0.125992 0.37797,-0.377976 0.0891,-0.08909 -0.0563,-0.265284 0,-0.377976 0.0797,-0.159369 0.2983,-0.218606 0.37798,-0.377976 0.0563,-0.112691 -0.0891,-0.288888 0,-0.377975 0.0891,-0.08909 0.28889,0.08909 0.37798,0 0.17817,-0.178181 -0.17818,-0.577774 0,-0.755955 0.0891,-0.08909 0.28888,0.08909 0.37797,0 0.0891,-0.08909 -0.0891,-0.288885 0,-0.377975 0.0891,-0.08909 0.28889,0.08909 0.37798,0 0.0891,-0.08909 -0.0564,-0.265285 0,-0.377976 0.0502,-0.100357 1.03357,-1.083749 1.13393,-1.133928 0.11269,-0.05634 0.28888,0.08909 0.37797,0 0.0891,-0.08909 -0.0891,-0.288888 0,-0.377978 0.0891,-0.08909 0.28889,0.08909 0.37798,0 0.0891,-0.08909 -0.0891,-0.288885 0,-0.377976 0.0891,-0.08909 0.26528,0.05635 0.37798,0 0.15936,-0.07969 0.2186,-0.298291 0.37797,-0.377976 0.11269,-0.05635 0.26529,0.05635 0.37798,0 0.15937,-0.07968 0.2186,-0.298291 0.37797,-0.377976 0.11269,-0.05634 0.28889,0.08909 0.37798,0 0.0891,-0.08909 -0.0891,-0.288885 0,-0.377975 0.17818,-0.178181 0.57777,0.178178 0.75595,0 0.0891,-0.08909 -0.0891,-0.288888 0,-0.377976 0.0891,-0.08909 0.26529,0.05634 0.37798,0 0.15937,-0.07968 0.21861,-0.298294 0.37797,-0.377976 0.1127,-0.05635 0.28889,0.08909 0.37798,0 0.0891,-0.08909 -0.0891,-0.288888 0,-0.377978 0.0891,-0.08909 0.26528,0.05634 0.37798,0 0.15937,-0.07968 0.2186,-0.298292 0.37797,-0.377976 0.11269,-0.05635 0.28889,0.08909 0.37798,0 0.0891,-0.08909 -0.0891,-0.288886 0,-0.377976 0.17818,-0.178178 0.57777,0.178181 0.75595,0 0.0891,-0.08909 -0.0891,-0.288885 0,-0.377976 0.0891,-0.08909 0.26529,0.05635 0.37798,0 0.31874,-0.159369 0.43721,-0.596582 0.75595,-0.755952 0.11269,-0.05634 0.28889,0.08909 0.37798,0 0.0891,-0.08909 -0.0891,-0.288887 0,-0.377975 0.0891,-0.08909 0.28888,0.08909 0.37797,0 0.78205,-0.782048 -1.19507,0.03057 0.37798,-0.755955 0.11269,-0.05635 0.28888,0.08909 0.37798,0 0.0891,-0.08909 -0.0563,-0.265284 0,-0.377975 0.22678,-0.45357 0.90714,-0.680358 1.13392,-1.133928 0.0564,-0.112691 -0.0891,-0.288888 0,-0.377976 0.0891,-0.08909 0.28889,0.08909 0.37798,0 0.0891,-0.08909 -0.0564,-0.265287 0,-0.377978 0.0797,-0.159367 0.29829,-0.218607 0.37797,-0.377976 0.0564,-0.112691 -0.0563,-0.265284 0,-0.377976 0.0797,-0.159369 0.2983,-0.218606 0.37798,-0.377975 0.15119,-0.302382 -0.15119,-0.831549 0,-1.133928 0.0797,-0.159369 0.29829,-0.218609 0.37798,-0.377978 0.01,-0.01977 0.01,-1.114153 0,-1.133928 -0.0797,-0.159369 -0.29829,-0.218606 -0.37798,-0.377976 -0.11475,-0.229515 0.11476,-2.038342 0,-2.267857 -0.0797,-0.159369 -0.29829,-0.218607 -0.37798,-0.377976 -0.0749,-0.149865 0.0773,-1.056656 0,-1.13393 -0.0891,-0.08909 -0.28888,0.08909 -0.37797,0 -0.10342,-0.10342 0.10252,-1.306856 0,-1.511903 -0.0797,-0.159369 -0.29829,-0.218607 -0.37798,-0.377976 -0.0563,-0.112691 0,-0.251984 0,-0.377976 0,-0.267912 0.0489,-2.170133 0,-2.267857 -0.0797,-0.159369 -0.29829,-0.21861 -0.37797,-0.377976 -0.0575,-0.115033 0,-0.963705 0,-1.13393 0,-0.755952 0,-1.511903 0,-2.267858 0,-0.755951 0,-1.511903 0,-2.267857 0,-0.125992 -0.0891,-0.288885 0,-0.377976 0.0891,-0.08909 0.28888,0.08909 0.37797,0 0.11704,-0.117038 -0.11704,-1.772841 0,-1.889879 0.0891,-0.08909 0.28889,0.08909 0.37798,0 0.17818,-0.178181 -0.17818,-0.577773 0,-0.755954 0.0891,-0.08909 0.28889,0.08909 0.37797,0 0.0891,-0.08909 -0.0891,-0.288886 0,-0.377976 0.0891,-0.08909 0.28889,0.08909 0.37798,0 0.0891,-0.08909 -0.0891,-0.288885 0,-0.377976 0.0891,-0.08909 0.28889,0.08909 0.37798,0 0.0891,-0.08909 -0.0891,-0.288885 0,-0.377976 0.0891,-0.08909 0.27314,0.06989 0.37797,0 0.25199,-0.251984 0.50397,-0.503967 0.75596,-0.755951 0.12599,0 0.26528,0.05634 0.37797,0 1.57305,-0.786525 -0.40407,0.02609 0.37798,-0.755955 0.19921,-0.19921 0.52154,-0.221702 0.75595,-0.377975 0.14826,-0.09884 0.21861,-0.298292 0.37798,-0.377976 0.11269,-0.05635 0.26528,0.05635 0.37797,0 0.83573,-0.417865 0.1173,-0.234588 0.37798,-0.755952 0.15937,-0.318738 0.59658,-0.437216 0.75595,-0.755954 0.0564,-0.112689 -0.0891,-0.288885 0,-0.377976 0.0891,-0.08909 0.28889,0.08909 0.37798,0 0.0891,-0.08909 -0.0891,-0.288885 0,-0.377976 0.0891,-0.08909 0.25198,0 0.37798,0 0.2679,0 2.17013,-0.04886 2.26785,0 0.15937,0.07968 0.21861,0.298292 0.37798,0.377976 0.26108,0.13054 1.7572,-0.132675 1.88988,0 0.0891,0.08909 -0.0891,0.288888 0,0.377976 0.18899,0.188989 0.94494,-0.188987 1.13393,0 0.0891,0.08909 -0.0891,0.288888 0,0.377978 0.17818,0.178179 0.57777,-0.178181 0.75595,0 0.0891,0.08909 -0.0891,0.288886 0,0.377976 0.0891,0.08909 0.28889,-0.08909 0.37798,0 0.0891,0.08909 -0.0891,0.288885 0,0.377976 0.0891,0.08909 0.26528,-0.05635 0.37797,0 0.15937,0.07968 0.25199,0.251984 0.37798,0.377976 0.12599,0.125992 0.29829,0.218606 0.37798,0.377976 0.0563,0.112691 -0.0891,0.288885 0,0.377975 0.0891,0.08909 0.28888,-0.08909 0.37797,0 0.0891,0.08909 -0.0891,0.288888 0,0.377976 0.0891,0.08909 0.28889,-0.08909 0.37798,0 0.0891,0.08909 -0.0891,0.288888 0,0.377979 0.0891,0.08909 0.28888,-0.08909 0.37797,0 0.0891,0.08909 -0.0891,0.288885 0,0.377975 0.0891,0.08909 0.28889,-0.08909 0.37798,0 0.0891,0.08909 -0.0564,0.265285 0,0.377976 0.18597,0.371938 1.32593,1.139966 1.5119,1.511904 0.0564,0.112691 -0.0891,0.288887 0,0.377978 0.0891,0.08909 0.28889,-0.08909 0.37798,0 0.0891,0.08909 -0.0564,0.265284 0,0.377976 0.10094,0.201869 0.93493,0.934937 1.13392,1.133927 0.126,0.125992 0.25199,0.251984 0.37799,0.377976 0.12599,0.125992 0.29829,0.218609 0.37798,0.377976 0.0563,0.112691 -0.0891,0.288888 0,0.377978 0.0891,0.08909 0.26527,-0.05635 0.37796,0 0.80875,0.404376 -0.0528,0.351573 0.75597,0.755952 0.11268,0.05635 0.28887,-0.08909 0.37795,0 0.0891,0.08909 -0.0891,0.288885 0,0.377976 0.0891,0.08909 0.2653,-0.05635 0.37799,0 0.45357,0.226785 0.68035,0.907142 1.13392,1.133927 0.11269,0.05635 0.2889,-0.08909 0.37799,0 0.0891,0.08909 -0.0891,0.288888 0,0.377979 0.0891,0.08909 0.26529,-0.05635 0.37798,0 0.15936,0.07968 0.2186,0.298291 0.37796,0.377975 0.11271,0.05635 0.2889,-0.08909 0.37798,0 0.0891,0.08909 -0.0891,0.288886 0,0.377976 0.25244,0.252423 0.50353,-0.252423 0.75597,0 0.0891,0.08909 -0.0891,0.288886 0,0.377976 0.17817,0.178178 0.57777,-0.178181 0.75594,0 0.0891,0.08909 -0.0891,0.288885 0,0.377976 0.0891,0.08909 0.2889,-0.08909 0.37798,0 0.0891,0.08909 -0.0891,0.288885 0,0.377976 0.17817,0.178181 0.57777,-0.178179 0.75594,0 0.0891,0.08909 -0.0891,0.288888 0,0.377975 0.25244,0.252424 0.50353,-0.25242 0.75597,0 0.0891,0.08909 -0.0891,0.288888 0,0.377979 0.17817,0.178178 0.57777,-0.178181 0.75594,0 0.0891,0.08909 -0.0891,0.288885 0,0.377976 0.17817,0.178178 0.53057,-0.112692 0.75594,0 0.15939,0.07968 0.21863,0.298291 0.37799,0.377975 0.2254,0.112692 0.57777,-0.178181 0.75597,0 0.0891,0.08909 -0.0891,0.288886 0,0.377976 0.0909,0.09095 1.42094,-0.09095 1.51188,0 0.0891,0.08909 -0.0891,0.288886 0,0.377976 0.17819,0.178181 0.57779,-0.178178 0.75597,0 0.0891,0.08909 -0.0891,0.288885 0,0.377976 0.0891,0.08909 0.28887,-0.08909 0.37798,0 0.0891,0.08909 -0.0891,0.288888 0,0.377976 0.0891,0.08909 0.26527,-0.05635 0.37796,0 0.15938,0.07968 0.25199,0.251984 0.37798,0.377978 0.12599,0.125992 0.25199,0.251984 0.37798,0.377976 0.199,0.19899 1.03299,0.932056 1.13393,1.133927 0.0563,0.112692 -0.0891,0.288886 0,0.377976 0.0891,0.08909 0.28887,-0.08909 0.37798,0 0.0891,0.08909 -0.0891,0.288888 0,0.377976 0.0891,0.08909 0.28887,-0.08909 0.37796,0 0.0891,0.08909 -0.0891,0.288888 0,0.377978 0.0891,0.08909 0.2889,-0.08909 0.37798,0 0.0891,0.08909 -0.0891,0.288886 0,0.377976 0.0891,0.08909 0.2889,-0.08909 0.37799,0 0.0891,0.08909 -0.0564,0.265285 0,0.377976 0.0797,0.159369 0.29829,0.218607 0.37795,0.377976 0.0564,0.112691 -0.0891,0.288885 0,0.377976 0.0891,0.08909 0.2889,-0.08909 0.37799,0 0.0891,0.08909 -0.0891,0.288885 0,0.377976 0.0891,0.08909 0.2889,-0.08909 0.37798,0 0.0891,0.08909 -0.0891,0.288887 0,0.377975 0.0891,0.08909 0.28887,-0.08909 0.37799,0 0.0891,0.08909 -0.0564,0.265287 0,0.377979 0.40436,0.808754 0.35155,-0.05281 0.75594,0.755951 0.0564,0.112692 -0.0891,0.288886 0,0.377976 0.0891,0.08909 0.28889,-0.08909 0.37798,0 0.17817,0.178179 -0.1782,0.577773 0,0.755952 0.0891,0.08909 0.28887,-0.08909 0.37796,0 0.0891,0.08909 -0.0891,0.288888 0,0.377976 0.0891,0.08909 0.2889,-0.08909 0.37798,0 0.17817,0.178181 -0.11268,0.530571 0,0.755954 0.0797,0.159369 0.29829,0.218607 0.37798,0.377976 0.0563,0.112691 -0.0891,0.288885 0,0.377976 0.0891,0.08909 0.28888,-0.08909 0.37799,0 0.18896,0.188989 -0.18899,0.94494 0,1.133927 0.0891,0.08909 0.28887,-0.08909 0.37796,0 0.0891,0.08909 -0.0891,0.288888 0,0.377978 0.0891,0.08909 0.28889,-0.08909 0.37798,0 0.0891,0.08909 -0.0564,0.265285 0,0.377976 0.0797,0.159369 0.29829,0.218607 0.37798,0.377976 0.0563,0.112691 -0.0564,0.265284 0,0.377976 0.15936,0.318738 0.59659,0.437216 0.75594,0.755951 0.0564,0.112692 -0.0891,0.288888 0,0.377976 0.0891,0.08909 0.2889,-0.08909 0.37799,0 0.0891,0.08909 -0.0891,0.288888 0,0.377979 0.0891,0.08909 0.28887,-0.08909 0.37798,0 0.0891,0.08909 -0.0564,0.265284 0,0.377975 0.0797,0.15937 0.29829,0.218607 0.37796,0.377976 0.0564,0.112692 -0.0891,0.288886 0,0.377976 0.0891,0.08909 0.2889,-0.08909 0.37798,0 0.0891,0.08909 -0.0891,0.288885 0,0.377976 0.0891,0.08909 0.2889,-0.08909 0.37799,0 0.0891,0.08909 -0.0891,0.288885 0,0.377976 0.78203,0.782047 -0.0306,-1.19507 0.75594,0.377976 0.0564,0.112691 -0.0891,0.288887 0,0.377978 0.0891,0.08909 0.2653,-0.05635 0.37798,0 0.15936,0.07968 0.2186,0.298291 0.37799,0.377976 0.11268,0.05634 0.28887,-0.08909 0.37795,0 0.0891,0.08909 -0.0891,0.288885 0,0.377976 0.0891,0.08909 0.2889,-0.08909 0.37799,0 0.0891,0.08909 -0.0564,0.265284 0,0.377975 0.78652,1.573046 -0.0262,-0.404069 0.75594,0.377976 0.0891,0.08909 -0.0891,0.288886 0,0.377976 0.0891,0.08909 0.2889,-0.08909 0.37798,0 0.0891,0.08909 -0.0891,0.288888 0,0.377976 0.0891,0.08909 0.2889,-0.08909 0.37798,0 0.0891,0.08909 -0.0891,0.288888 0,0.377978 0.0891,0.08909 0.26528,-0.05634 0.37799,0 0.31872,0.159367 0.4372,0.596583 0.75594,0.755952 0.11269,0.05635 0.2889,-0.08909 0.37798,0 0.0891,0.08909 -0.0891,0.288885 0,0.377976 0.0891,0.08909 0.28888,-0.08909 0.37796,0 0.0891,0.08909 -0.0891,0.288885 0,0.377976 0.0891,0.08909 0.2889,-0.08909 0.37798,0 0.0891,0.08909 -0.0891,0.288885 0,0.377975 0.0891,0.08909 0.2889,-0.08909 0.37799,0 0.0891,0.08909 -0.0891,0.288888 0,0.377976 1.00793,0 -0.126,-0.125992 0.37798,0.377979 0.17817,0.178178 0.57777,-0.178181 0.75594,0 0.0891,0.08909 -0.0891,0.288885 0,0.377975 0.0891,0.08909 0.2889,-0.08909 0.37799,0 0.0891,0.08909 -0.0891,0.288886 0,0.377976 0.0891,0.08909 0.28887,-0.08909 0.37795,0 0.0891,0.08909 -0.0891,0.288886 0,0.377976 0.0891,0.08909 0.2889,-0.08909 0.37799,0 0.0891,0.08909 -0.0891,0.288885 0,0.377976 0.0891,0.08909 0.2653,-0.05635 0.37798,0 0.15936,0.07968 0.2186,0.298291 0.37799,0.377976 0.11268,0.05635 0.28887,-0.08909 0.37795,0 0.0891,0.08909 -0.0891,0.288888 0,0.377975 0.0891,0.08909 0.2889,-0.08909 0.37799,0 0.0891,0.08909 -0.0891,0.288888 0,0.377979 0.17817,0.178178 0.57777,-0.178181 0.75594,0 0.0891,0.08909 -0.0891,0.288885 0,0.377976 0.0891,0.08909 0.2889,-0.08909 0.37798,0 0.17817,0.178178 -0.17817,0.57777 0,0.755951 0.0891,0.08909 0.2889,-0.08909 0.37798,0 0.0891,0.08909 -0.0891,0.288886 0,0.377976 0.0891,0.08909 0.28888,-0.08909 0.37799,0 0.0891,0.08909 -0.0891,0.288885 0,0.377976 0.0891,0.08909 0.28887,-0.08909 0.37796,0 0.0891,0.08909 -0.0891,0.288888 0,0.377976 0.0891,0.08909 0.28889,-0.08909 0.37798,0 0.0891,0.08909 -0.0891,0.288888 0,0.377978 0.0891,0.08909 0.25199,0 0.37798,0 0.126,0.503968 0.25199,1.007936 0.37796,1.511903 z"
       id="path929"
       inkscape:connector-curvature="0" />
  </g>
</svg>
