<?xml version="1.0" encoding="UTF-8" standalone="no"?>
<!-- Created with Inkscape (http://www.inkscape.org/) -->

<svg
   xmlns:dc="http://purl.org/dc/elements/1.1/"
   xmlns:cc="http://creativecommons.org/ns#"
   xmlns:rdf="http://www.w3.org/1999/02/22-rdf-syntax-ns#"
   xmlns:svg="http://www.w3.org/2000/svg"
   xmlns="http://www.w3.org/2000/svg"
   xmlns:sodipodi="http://sodipodi.sourceforge.net/DTD/sodipodi-0.dtd"
   xmlns:inkscape="http://www.inkscape.org/namespaces/inkscape"
   width="169.33333mm"
   height="127mm"
   viewBox="0 0 169.33333 127"
   version="1.1"
   id="svg8"
   inkscape:version="0.92.4 (5da689c313, 2019-01-14)"
   sodipodi:docname="3_8_macrofago_aoveolar.svg">
  <defs
     id="defs2" />
  <sodipodi:namedview
     id="base"
     pagecolor="#ffffff"
     bordercolor="#666666"
     borderopacity="1.0"
     inkscape:pageopacity="0.0"
     inkscape:pageshadow="2"
     inkscape:zoom="1.4"
     inkscape:cx="236.13688"
     inkscape:cy="269.6311"
     inkscape:document-units="mm"
     inkscape:current-layer="layer4"
     showgrid="false"
     fit-margin-top="0"
     fit-margin-left="0"
     fit-margin-right="0"
     fit-margin-bottom="0"
     inkscape:window-width="1920"
     inkscape:window-height="1001"
     inkscape:window-x="-9"
     inkscape:window-y="-9"
     inkscape:window-maximized="1" />
  <metadata
     id="metadata5">
    <rdf:RDF>
      <cc:Work
         rdf:about="">
        <dc:format>image/svg+xml</dc:format>
        <dc:type
           rdf:resource="http://purl.org/dc/dcmitype/StillImage" />
        <dc:title></dc:title>
      </cc:Work>
    </rdf:RDF>
  </metadata>
  <g
     inkscape:groupmode="layer"
     id="layer4"
     inkscape:label="macrofago aoveolar">
    <path
       style="fill:none;stroke:#000000;stroke-width:0.26458332px;stroke-linecap:butt;stroke-linejoin:miter;stroke-opacity:1"
       d="m 69.358631,63.122023 c 1.007935,-0.063 2.018054,-0.09756 3.023809,-0.188989 2.594094,-0.235826 0.113453,-0.06049 1.700892,-0.377976 0.18532,-0.03706 0.387676,0.05976 0.566965,0 0.133634,-0.04454 0.24434,-0.144444 0.377976,-0.188986 0.159115,-0.05304 0.832424,0.05626 0.944941,0 0.07968,-0.03984 0.104468,-0.160817 0.188987,-0.188989 0.200821,-0.06694 0.555133,0.06694 0.755954,0 0.133633,-0.04455 0.24434,-0.144444 0.377976,-0.18899 0.119525,-0.03984 0.258447,0.03984 0.377976,0 0.133635,-0.04454 0.24434,-0.144441 0.377975,-0.188986 0.129993,-0.04333 0.455457,0.05575 0.566965,0 0.07969,-0.03984 0.109302,-0.149146 0.188987,-0.188989 0.112691,-0.05635 0.265287,0.05635 0.377976,0 0.07968,-0.03984 0.109304,-0.149146 0.188989,-0.188987 0.112691,-0.05635 0.265284,0.05635 0.377976,0 0.07968,-0.03984 0.109304,-0.149146 0.188989,-0.188989 0.05635,-0.02817 0.132641,0.02817 0.188987,0 0.07968,-0.03984 0.109304,-0.149146 0.188989,-0.188987 0.151191,-0.0756 0.415774,0.07559 0.566965,0 0.07968,-0.03984 0.109302,-0.149148 0.188986,-0.188989 0.102524,-0.05126 0.704242,0.05171 0.755952,0 0.04454,-0.04454 -0.04454,-0.144444 0,-0.188989 0.03864,-0.03863 0.492032,0.03747 0.566965,0 0.07968,-0.03984 0.109305,-0.149146 0.188989,-0.188987 0.112692,-0.05635 0.265285,0.05635 0.377976,0 0.07968,-0.03984 0.109305,-0.149146 0.188987,-0.188989 0.118784,-0.05939 0.637169,0.05939 0.755954,0 0.07968,-0.03984 0.109302,-0.149146 0.188987,-0.188987 0.15119,-0.0756 0.415774,0.07559 0.566965,0 0.07968,-0.03984 0.109304,-0.149145 0.188989,-0.188989 0.07493,-0.03746 0.528328,0.03864 0.566962,0 0.04454,-0.04454 -0.04454,-0.144444 0,-0.188987 0.03864,-0.03864 0.492033,0.03746 0.566965,0 0.07968,-0.03984 0.109305,-0.149148 0.188989,-0.188989 0.112689,-0.05635 0.265285,0.05635 0.377976,0 0.626793,-0.626795 -0.178181,0.08909 0.377976,-0.188989 0.07968,-0.03984 0.109305,-0.149146 0.188987,-0.188987 0.05635,-0.02817 0.125994,0 0.188989,0 0.063,-0.063 0.109305,-0.149145 0.188989,-0.188989 0.05634,-0.02817 0.144441,0.04454 0.188987,0 0.04454,-0.04454 -0.02817,-0.132641 0,-0.188986 0.39326,-0.786525 -0.01304,0.202033 0.377976,-0.18899 0.04454,-0.04454 -0.02817,-0.132643 0,-0.188986 0.393263,-0.786524 -0.01304,0.202033 0.377975,-0.188989 0.04455,-0.04455 -0.04454,-0.144444 0,-0.18899 0.09961,-0.0996 0.260771,-0.110849 0.377979,-0.188986 0.148254,-0.09884 0.218606,-0.298291 0.377976,-0.377976 0.05634,-0.02817 0.144441,0.04454 0.188986,0 0.04454,-0.04454 -0.04454,-0.144444 0,-0.188989 0.04454,-0.04455 0.144444,0.04454 0.188989,0 0.04455,-0.04455 -0.04454,-0.144444 0,-0.188987 0.04455,-0.04454 0.144444,0.04454 0.188987,0 0.04454,-0.04454 0,-0.125994 0,-0.188989 0.063,0 0.132644,0.02817 0.188989,0 0.786524,-0.393261 -0.202036,0.01304 0.188989,-0.377976 0.04454,-0.04454 0.144442,0.04454 0.188987,0 0.08909,-0.08909 -0.08909,-0.288888 0,-0.377976 0.04454,-0.04454 0.144444,0.04455 0.188989,0 0.04454,-0.04454 -0.04454,-0.144444 0,-0.188989 0.04454,-0.04454 0.144442,0.04454 0.188987,0 0.08909,-0.08909 -0.08909,-0.288885 0,-0.377976 0.04454,-0.04454 0.144444,0.04455 0.188989,0 0.09449,-0.09449 -0.09449,-0.472469 0,-0.566965 0.04454,-0.04454 0.144444,0.04455 0.188987,0 0.04548,-0.04548 -0.04547,-0.710475 0,-0.755951 0.04454,-0.04455 0.144444,0.04454 0.188989,0 0.06634,-0.06634 -0.06527,-0.814401 0,-0.944941 0.03984,-0.07969 0.149145,-0.109305 0.188989,-0.188987 0.05634,-0.112691 -0.08909,-0.288888 0,-0.377978 0.04454,-0.04454 0.144441,0.04454 0.188987,0 0.08909,-0.08909 -0.05635,-0.265285 0,-0.377976 0.03984,-0.07969 0.149145,-0.109302 0.188989,-0.188987 0.05126,-0.102523 -0.05171,-0.704241 0,-0.755954 0.04454,-0.04454 0.144441,0.04454 0.188986,0 0.04455,-0.04454 0,-0.125992 0,-0.188986 0,-0.07471 -0.04036,-0.864228 0,-0.944941 0.03984,-0.07969 0.149146,-0.109305 0.18899,-0.18899 0.02817,-0.05634 0,-0.125991 0,-0.188986 0,-0.314981 0,-0.62996 0,-0.944941 0,-0.063 0,-0.125992 0,-0.188989 0,-0.063 -0.02817,-0.132641 0,-0.188987 0.03984,-0.07968 0.149145,-0.109304 0.188986,-0.188989 0.02442,-0.04886 0,-0.999972 0,-1.133927 0,-0.063 0.04455,-0.144444 0,-0.18899 -0.04454,-0.04454 -0.144441,0.04455 -0.188986,0 -0.05852,-0.05852 0.05852,-0.88642 0,-0.94494 -0.04455,-0.04454 -0.144444,0.04455 -0.18899,0 -0.0061,-0.0061 0,-0.521129 0,-0.566963 0,-0.08511 0.02876,-0.50945 0,-0.566965 -0.03984,-0.07968 -0.149145,-0.109305 -0.188986,-0.188989 -0.05961,-0.119227 0.05961,-0.825712 0,-0.944938 -0.03984,-0.07968 -0.149146,-0.109305 -0.188989,-0.18899 -0.05635,-0.112691 0.05634,-0.265284 0,-0.377975 -0.100595,-0.20119 -0.277382,-0.17679 -0.377976,-0.377976 -0.02817,-0.05635 0.02817,-0.132644 0,-0.188989 -0.03984,-0.07968 -0.149146,-0.109305 -0.188989,-0.188987 -0.02817,-0.05635 0.02817,-0.132644 0,-0.188989 -0.03984,-0.07969 -0.149146,-0.109305 -0.188987,-0.188989 -0.02817,-0.05634 0.02817,-0.132641 0,-0.188987 -0.03984,-0.07968 -0.149146,-0.109305 -0.188989,-0.188989 -0.02817,-0.05635 0.02817,-0.132641 0,-0.188987 -0.0181,-0.03618 -0.719775,-0.737865 -0.755952,-0.755954 -0.05634,-0.02817 -0.144444,0.04454 -0.188989,0 -0.04454,-0.04454 0.04454,-0.144441 0,-0.188987 -0.04454,-0.04454 -0.144441,0.04455 -0.188987,0 -0.04454,-0.04454 0.04455,-0.144444 0,-0.188989 -0.04454,-0.04455 -0.144444,0.04454 -0.188989,0 -0.04454,-0.04455 0.04454,-0.144441 0,-0.188986 -0.04454,-0.04455 -0.132641,0.02817 -0.188986,0 -0.226788,-0.113393 -0.34018,-0.453573 -0.566965,-0.566965 -0.05635,-0.02817 -0.144444,0.04454 -0.18899,0 -0.04454,-0.04455 0.04455,-0.144444 0,-0.18899 -0.09449,-0.09449 -0.472469,0.0945 -0.566962,0 -0.04454,-0.04454 0.04454,-0.144441 0,-0.188986 -0.04454,-0.04455 -0.132644,0.02817 -0.188989,0 -0.07969,-0.03984 -0.109302,-0.149146 -0.188987,-0.18899 -0.05635,-0.02817 -0.132643,0.02817 -0.188989,0 -0.07968,-0.03984 -0.109305,-0.149145 -0.188989,-0.188986 -0.112689,-0.05635 -0.288886,0.08909 -0.377976,0 -0.04454,-0.04454 0.04454,-0.144444 0,-0.188989 -0.09449,-0.09449 -0.472469,0.09449 -0.566963,0 -0.04454,-0.04455 0.04454,-0.144444 0,-0.188987 -0.08909,-0.08909 -0.265287,0.05634 -0.377978,0 -0.07968,-0.03984 -0.109302,-0.149148 -0.188987,-0.188989 -0.07493,-0.03747 -0.528327,0.03864 -0.566965,0 -0.04454,-0.04455 0.04455,-0.144444 0,-0.188989 -0.04454,-0.04454 -0.125992,0 -0.188986,0 -0.08911,0 -0.936376,0.0086 -0.944941,0 -0.04454,-0.04454 0.04454,-0.144442 0,-0.188987 -0.04454,-0.04454 -0.125992,0 -0.188989,0 -0.377976,0 -0.755952,0 -1.133928,0 -0.566965,0 -1.13393,0 -1.700892,0 -0.063,0 -0.125992,0 -0.188989,0 -0.063,0 -0.144444,-0.04454 -0.18899,0 -0.04454,0.04454 0.04455,0.144444 0,0.188987 -0.09449,0.0945 -0.472469,-0.09449 -0.566962,0 -0.04454,0.04455 0.04454,0.144444 0,0.188989 -0.0945,0.09449 -0.472472,-0.09449 -0.566965,0 -0.04454,0.04454 0.04454,0.144444 0,0.188989 -0.04454,0.04454 -0.132644,-0.02817 -0.188989,0 -0.07968,0.03984 -0.109302,0.149146 -0.188987,0.188987 -0.05634,0.02817 -0.132643,-0.02817 -0.188989,0 -0.07969,0.03984 -0.109302,0.149145 -0.188987,0.188989 -0.05634,0.02817 -0.132643,-0.02817 -0.188989,0 -0.226785,0.113392 -0.340177,0.45357 -0.566965,0.566962 -0.503968,0 0.063,-0.06299 -0.188986,0.18899 -0.04455,0.04454 -0.132644,-0.02817 -0.18899,0 -0.07968,0.03984 -0.125992,0.125991 -0.188986,0.188989 -0.063,0.06299 -0.149146,0.109302 -0.188989,0.188986 -0.02817,0.05635 0.04454,0.144444 0,0.18899 -0.04455,0.04454 -0.132644,-0.02817 -0.188987,0 -0.07968,0.03984 -0.125992,0.125991 -0.188989,0.188986 -0.063,0.063 -0.149146,0.109305 -0.18899,0.188989 -0.02817,0.05635 0.04455,0.144444 0,0.188987 -0.04454,0.04454 -0.144441,-0.04454 -0.188986,0 -0.04454,0.04454 0.04454,0.144444 0,0.188989 -0.04454,0.04454 -0.144444,-0.04454 -0.188989,0 -0.04455,0.04454 0.04454,0.144444 0,0.188989 -0.04455,0.04454 -0.144442,-0.04454 -0.188987,0 -0.04454,0.04454 0.02817,0.132641 0,0.188987 -0.09298,0.18597 -0.662969,0.569984 -0.755954,0.755952 -0.02817,0.05635 0.04454,0.144444 0,0.188989 -0.04454,0.04454 -0.144442,-0.04455 -0.188987,0 -0.08909,0.08909 0.08909,0.288885 0,0.377976 -0.04454,0.04454 -0.144444,-0.04455 -0.188989,0 -0.126368,0.126367 0.12637,0.251608 0,0.377975 -0.04454,0.04455 -0.144441,-0.04454 -0.188987,0 -0.04454,0.04455 0.02817,0.132644 0,0.18899 -0.03984,0.07968 -0.149145,0.109302 -0.188989,0.188986 -0.02817,0.05635 0.02817,0.132644 0,0.188989 -0.03984,0.07968 -0.149145,0.109305 -0.188986,0.18899 -0.02817,0.05634 0,0.125992 0,0.188986 -0.063,0.063 -0.149149,0.109305 -0.18899,0.188989 -0.02817,0.05635 0.04455,0.144442 0,0.188987 -0.04454,0.04454 -0.144444,-0.04455 -0.188989,0 -0.09449,0.0945 0.0945,0.472472 0,0.566965 -0.04454,0.04454 -0.144441,-0.04454 -0.188986,0 -0.03864,0.03864 0.03746,0.492032 0,0.566965 -0.03984,0.07968 -0.149146,0.109302 -0.18899,0.188987 -0.02817,0.05635 0.02817,0.132643 0,0.188989 -0.03984,0.07968 -0.149145,0.109302 -0.188986,0.188987 -0.0756,0.15119 0.07559,0.415774 0,0.566965 -0.03984,0.07968 -0.149146,0.109304 -0.188989,0.188989 -0.02817,0.05635 0.02817,0.132641 0,0.188986 -0.03984,0.07968 -0.149146,0.109305 -0.188987,0.18899 -0.05635,0.112691 0.08909,0.288885 0,0.377975 -0.04454,0.04455 -0.144444,-0.04454 -0.188989,0 -0.08909,0.08909 0.05634,0.265285 0,0.377976 -0.03984,0.07968 -0.149146,0.109305 -0.188989,0.188989 -0.02817,0.05635 0.02817,0.132641 0,0.188987 -0.03984,0.07968 -0.149146,0.109305 -0.188987,0.188989 -0.05635,0.112692 0.08909,0.288886 0,0.377976 -0.04454,0.04454 -0.144444,-0.04454 -0.188989,0 -0.04455,0.04454 0.02817,0.132644 0,0.188989 -0.626793,0.626793 0.08909,-0.178181 -0.188987,0.377976 -0.03984,0.07968 -0.149145,0.109302 -0.188989,0.188987 -0.02817,0.05635 0,0.125992 0,0.188989 -0.063,0.063 -0.149146,0.109302 -0.188987,0.188986 -0.05634,0.112692 0.08909,0.288888 0,0.377979 -0.04454,0.04454 -0.144444,-0.04454 -0.188989,0 -0.08909,0.08909 0.05635,0.265284 0,0.377976 -0.03984,0.07968 -0.149146,0.109302 -0.188989,0.188986 -0.02817,0.05635 0,0.125992 0,0.18899 -0.063,0.06299 -0.149146,0.109302 -0.188987,0.188986 -0.05634,0.112691 0.08909,0.288888 0,0.377979 -0.04454,0.04454 -0.144444,-0.04455 -0.188989,0 -0.08909,0.08909 0.05635,0.265284 0,0.377975 -0.03984,0.07968 -0.149146,0.109302 -0.188987,0.188987 -0.05634,0.112691 0.08909,0.288888 0,0.377976 -0.04454,0.04454 -0.144443,-0.04454 -0.188989,0 -0.08909,0.08909 0.08909,0.288888 0,0.377978 -0.04454,0.04454 -0.144444,-0.04454 -0.188986,0 -0.08909,0.08909 0.08909,0.288886 0,0.377976 -0.04455,0.04454 -0.144444,-0.04454 -0.18899,0 -0.03864,0.03863 0.03746,0.492032 0,0.566962 -0.03984,0.07968 -0.149145,0.109305 -0.188989,0.18899 -0.02817,0.05635 0.02817,0.132643 0,0.188989 -0.03984,0.07968 -0.149145,0.109302 -0.188986,0.188986 -0.02817,0.05635 0.04454,0.144444 0,0.18899 -0.04455,0.04454 -0.144444,-0.04455 -0.18899,0 -0.08909,0.08909 0.08909,0.288885 0,0.377975 -0.04454,0.04455 -0.144441,-0.04454 -0.188986,0 -0.252738,0.252736 0.252735,0.125241 0,0.377976 -0.04454,0.04455 -0.144444,-0.04454 -0.188989,0 -0.08909,0.08909 0.08909,0.288886 0,0.377976 -0.04455,0.04454 -0.144444,-0.04454 -0.188987,0 -0.04454,0.04454 0.02817,0.132644 0,0.188989 -0.03984,0.07968 -0.149148,0.109302 -0.188989,0.188987 -0.02817,0.05635 0.02817,0.132643 0,0.188989 -0.03984,0.07968 -0.149146,0.109302 -0.188989,0.188987 -0.02817,0.05635 0.04454,0.144444 0,0.188989 -0.04454,0.04454 -0.144442,-0.04454 -0.188987,0 -0.08909,0.08909 0.08909,0.288885 0,0.377976 -0.04454,0.04454 -0.144444,-0.04455 -0.188989,0 -0.04454,0.04454 0.02817,0.132643 0,0.188989 -0.03984,0.07968 -0.149146,0.109302 -0.188987,0.188987 -0.02817,0.05635 0.04454,0.144444 0,0.188989 -0.04454,0.04454 -0.144444,-0.04454 -0.188989,0 -0.08909,0.08909 0.08909,0.288885 0,0.377976 -0.04454,0.04454 -0.144444,-0.04455 -0.188987,0 -0.04454,0.04454 0.04454,0.144444 0,0.188989 -0.04454,0.04454 -0.144444,-0.04454 -0.188989,0 0,0.503968 0.063,-0.063 -0.188989,0.188986 -0.04454,0.04455 0.02817,0.132644 0,0.18899 -0.03984,0.07968 -0.149146,0.109302 -0.188987,0.188986 -0.02817,0.05635 0.04455,0.144444 0,0.188989 -0.04454,0.04455 -0.144444,-0.04454 -0.188989,0 -0.08909,0.08909 0.08909,0.288886 0,0.377976 -0.04454,0.04454 -0.144441,-0.04454 -0.188986,0 -0.04455,0.04454 0.02817,0.132644 0,0.188989 -0.03984,0.07968 -0.149146,0.109302 -0.18899,0.188987 -0.05635,0.112691 0.08909,0.288888 0,0.377976 -0.04454,0.04454 -0.144444,-0.04455 -0.188986,0 -0.04455,0.04454 0,0.125992 0,0.188989 0,0.314979 0,0.62996 0,0.944941 0,0.08911 -0.0086,0.936374 0,0.944941 0.04454,0.04454 0.144441,-0.04454 0.188986,0 0.08909,0.08909 -0.05635,0.265284 0,0.377976 0.03984,0.07968 0.149146,0.109302 0.18899,0.188986 0.02817,0.05635 -0.02817,0.132644 0,0.188989 0.03984,0.07969 0.149145,0.109302 0.188986,0.188987 0.02817,0.05635 -0.04454,0.144444 0,0.188989 0.04454,0.04454 0.144444,-0.04454 0.188989,0 0.08909,0.08909 -0.08909,0.288886 0,0.377976 0.04455,0.04454 0.144444,-0.04454 0.188987,0 0.04454,0.04454 -0.04454,0.144444 0,0.188989 0.125124,0.125122 0.252854,-0.125124 0.377978,0 0.04454,0.04454 -0.04454,0.144442 0,0.188987 0.04454,0.04454 0.125992,0 0.188987,0 0.063,0 0.144444,0.04454 0.188989,0 0.04454,-0.04454 -0.04454,-0.144442 0,-0.188987 0.05852,-0.05852 0.88642,0.05852 0.944941,0 0.04454,-0.04454 -0.04454,-0.144444 0,-0.188989 0.02779,-0.02779 0.566962,0.02222 0.566962,0 0,-0.259739 -0.125992,-0.503968 -0.188986,-0.755952 z"
       id="path847"
       inkscape:connector-curvature="0" />
  </g>
</svg>
