<?xml version="1.0" encoding="UTF-8" standalone="no"?>
<!-- Created with Inkscape (http://www.inkscape.org/) -->

<svg
   xmlns:dc="http://purl.org/dc/elements/1.1/"
   xmlns:cc="http://creativecommons.org/ns#"
   xmlns:rdf="http://www.w3.org/1999/02/22-rdf-syntax-ns#"
   xmlns:svg="http://www.w3.org/2000/svg"
   xmlns="http://www.w3.org/2000/svg"
   xmlns:sodipodi="http://sodipodi.sourceforge.net/DTD/sodipodi-0.dtd"
   xmlns:inkscape="http://www.inkscape.org/namespaces/inkscape"
   width="169.33333mm"
   height="127mm"
   viewBox="0 0 169.33333 127"
   version="1.1"
   id="svg2126"
   inkscape:version="0.92.4 (5da689c313, 2019-01-14)"
   sodipodi:docname="4_6_intersticio_renal.svg">
  <defs
     id="defs2120" />
  <sodipodi:namedview
     id="base"
     pagecolor="#ffffff"
     bordercolor="#666666"
     borderopacity="1.0"
     inkscape:pageopacity="0.0"
     inkscape:pageshadow="2"
     inkscape:zoom="1.4"
     inkscape:cx="334.49892"
     inkscape:cy="220.63404"
     inkscape:document-units="mm"
     inkscape:current-layer="layer20"
     showgrid="false"
     fit-margin-top="0"
     fit-margin-left="0"
     fit-margin-right="0"
     fit-margin-bottom="0"
     inkscape:window-width="1920"
     inkscape:window-height="1001"
     inkscape:window-x="-9"
     inkscape:window-y="-9"
     inkscape:window-maximized="1" />
  <metadata
     id="metadata2123">
    <rdf:RDF>
      <cc:Work
         rdf:about="">
        <dc:format>image/svg+xml</dc:format>
        <dc:type
           rdf:resource="http://purl.org/dc/dcmitype/StillImage" />
        <dc:title></dc:title>
      </cc:Work>
    </rdf:RDF>
  </metadata>
  <g
     inkscape:groupmode="layer"
     id="layer20"
     inkscape:label="intersticio_renal">
    <path
       style="fill:none;stroke:#000000;stroke-width:0.26458332px;stroke-linecap:butt;stroke-linejoin:miter;stroke-opacity:1"
       d="m 70.303572,85.044641 c 1.007935,0.18899 2.025568,0.332084 3.023809,0.566965 0.08672,0.0204 0.109302,0.149146 0.188986,0.188987 0.05635,0.02817 0.132644,-0.02817 0.18899,0 0.07968,0.03984 0.109304,0.149148 0.188986,0.188989 0.118785,0.05939 0.63717,-0.05939 0.755954,0 0.07969,0.03984 0.109302,0.149146 0.188987,0.188989 0.06834,0.03417 0.813493,0 0.944941,0 0.62996,0 1.259922,0 1.889882,0 0.818948,0 1.637897,0 2.456844,0 0.108894,0 0.876059,0.03444 0.94494,0 0.07968,-0.03984 0.104471,-0.160816 0.18899,-0.188989 0.119525,-0.03984 0.251984,0 0.377975,0 0.162206,0 1.411314,0.03353 1.511904,0 0.08452,-0.02817 0.10447,-0.160816 0.188989,-0.188989 0.1016,-0.03387 0.595945,0 0.755952,0 0.566965,0 1.13393,0 1.700892,0 1.259922,0 2.519841,0 3.779763,0 0.377976,0 0.755952,0 1.133928,0 0.08511,0 0.50945,0.02876 0.566965,0 0.07968,-0.03984 0.109305,-0.149146 0.188989,-0.188987 0.112689,-0.05634 0.265285,0.05635 0.377976,0 0.07968,-0.03984 0.109302,-0.149145 0.188986,-0.188989 0.112692,-0.05635 0.265288,0.05635 0.377976,0 0.864926,-0.432461 -0.801954,0.07833 0.566965,-0.377976 0.05976,-0.01992 0.129225,0.01992 0.18899,0 0.133633,-0.04454 0.251983,-0.125992 0.377975,-0.188986 0.125992,-0.063 0.260771,-0.110853 0.377976,-0.188989 0.07413,-0.04942 0.104471,-0.160817 0.188989,-0.18899 0.119526,-0.03984 0.258448,0.03984 0.377976,0 0.169035,-0.05634 0.229722,-0.279138 0.377976,-0.377975 0.09517,-0.416373 0.388784,-0.0999 0.566965,-0.188987 0.159367,-0.07968 0.218607,-0.298294 0.377976,-0.377976 0.05635,-0.02817 0.125992,0 0.188986,0 0.125992,-0.063 0.260771,-0.110852 0.377976,-0.188989 0.07413,-0.04942 0.104471,-0.160816 0.188989,-0.188989 0.119526,-0.03984 0.258451,0.03984 0.377976,0 0.08452,-0.02817 0.109305,-0.149146 0.188989,-0.188987 0.05635,-0.02817 0.129226,0.01992 0.188987,0 0.133636,-0.04454 0.244343,-0.144444 0.377976,-0.188989 0.05976,-0.01992 0.132643,0.02817 0.188989,0 0.07968,-0.03984 0.109305,-0.149146 0.188989,-0.188987 0.05634,-0.02817 0.132641,0.02817 0.188987,0 0.159369,-0.07968 0.218607,-0.298294 0.377976,-0.377975 0.05634,-0.02817 0.132643,0.02817 0.188989,0 0.07968,-0.03984 0.109305,-0.149149 0.188987,-0.18899 0.05635,-0.02817 0.132643,0.02817 0.188989,0 0.07968,-0.03984 0.109304,-0.149145 0.188989,-0.188989 0.112689,-0.05634 0.265284,0.05635 0.377976,0 0.226786,-0.113392 0.340176,-0.45357 0.566966,-0.566962 0.0563,-0.02817 0.13264,0.02817 0.18899,0 0.22678,-0.113393 0.34017,-0.453573 0.56696,-0.566965 0.0563,-0.02817 0.14444,0.04454 0.18899,0 0.0445,-0.04455 -0.0446,-0.144444 0,-0.18899 0.0445,-0.04454 0.13264,0.02817 0.18899,0 0.0797,-0.03984 0.12599,-0.125992 0.18898,-0.188986 0.063,-0.063 0.10931,-0.149146 0.18899,-0.188989 0.0563,-0.02817 0.14445,0.04454 0.18899,0 0.39102,-0.391023 -0.59753,0.01529 0.18899,-0.377976 0.0563,-0.02817 0.13264,0.02817 0.18899,0 0.0362,-0.0181 0.73786,-0.719775 0.75595,-0.755952 0.0282,-0.05634 -0.0446,-0.144444 0,-0.188989 0.0445,-0.04454 0.14444,0.04454 0.18899,0 0.0445,-0.04454 -0.0446,-0.144441 0,-0.188987 0.0445,-0.04454 0.13264,0.02817 0.18898,0 0.0362,-0.0181 0.73787,-0.719777 0.75596,-0.755954 0.0282,-0.05634 -0.0446,-0.144441 0,-0.188986 0.0445,-0.04455 0.12599,0 0.18899,0 0,-0.063 -0.0446,-0.144444 0,-0.18899 0.0445,-0.04454 0.14444,0.04455 0.18898,0 0.0446,-0.04454 -0.0445,-0.144441 0,-0.188986 0.0446,-0.04455 0.14445,0.04454 0.18899,0 0.0446,-0.04455 -0.0282,-0.132644 0,-0.188989 0.0398,-0.07968 0.12599,-0.125992 0.18899,-0.188987 0.063,-0.063 0.14915,-0.109305 0.18899,-0.188989 0.0282,-0.05635 -0.0282,-0.132644 0,-0.18899 0.39326,-0.786521 -0.013,0.202036 0.37797,-0.188986 0.0446,-0.04454 -0.0282,-0.132644 0,-0.188989 0.0399,-0.07968 0.14915,-0.109302 0.18899,-0.188987 0.0282,-0.05635 -0.0445,-0.144444 0,-0.188989 0.0446,-0.04454 0.14445,0.04454 0.18899,0 0.0445,-0.04454 -0.0282,-0.132644 0,-0.188987 0.0797,-0.159369 0.29829,-0.218609 0.37798,-0.377978 0.0282,-0.05634 -0.0282,-0.132641 0,-0.188987 0.0398,-0.07968 0.14914,-0.109304 0.18898,-0.188989 0.0282,-0.05635 -0.0282,-0.132641 0,-0.188987 0.0797,-0.159369 0.2983,-0.218609 0.37798,-0.377975 0.0282,-0.05635 0,-0.125992 0,-0.18899 0.063,-0.063 0.14915,-0.109304 0.18899,-0.188989 0.0563,-0.112689 -0.0891,-0.288885 0,-0.377976 0.0445,-0.04454 0.14444,0.04455 0.18899,0 0.0445,-0.04454 -0.0282,-0.132641 0,-0.188986 0.0398,-0.07968 0.14914,-0.109305 0.18898,-0.188989 0.0563,-0.112692 -0.0891,-0.288886 0,-0.377976 0.0446,-0.04454 0.14445,0.04454 0.18899,0 0.0585,-0.05852 -0.0585,-0.886421 0,-0.944941 0.0446,-0.04454 0.14445,0.04454 0.18899,0 0.0945,-0.09449 -0.0945,-0.472469 0,-0.566965 0.0446,-0.04454 0.14444,0.04454 0.18899,0 0.0891,-0.08909 -0.0891,-0.288885 0,-0.377976 0.0445,-0.04454 0.14444,0.04454 0.18899,0 0.0891,-0.08909 -0.0891,-0.288885 0,-0.377976 0.0445,-0.04454 0.14444,0.04455 0.18899,0 0.0386,-0.03863 -0.0375,-0.492032 0,-0.566965 0.0398,-0.07968 0.14914,-0.109302 0.18898,-0.188986 0.0564,-0.112692 -0.0563,-0.265287 0,-0.377976 0.0399,-0.07968 0.14915,-0.109305 0.18899,-0.188989 0.0282,-0.05635 0,-0.125992 0,-0.188987 0,-0.133956 -0.0244,-1.085067 0,-1.13393 0.0398,-0.07969 0.14915,-0.109305 0.18899,-0.188987 0.0594,-0.118784 -0.0594,-0.637169 0,-0.755954 0.0398,-0.07968 0.14915,-0.109302 0.18899,-0.188986 0.0756,-0.151191 -0.0756,-0.415775 0,-0.566965 0.0398,-0.07968 0.14914,-0.109305 0.18899,-0.18899 0.0756,-0.151188 -0.0756,-0.415771 0,-0.566962 0.0398,-0.07968 0.14914,-0.109305 0.18898,-0.188989 0.0282,-0.05635 -0.0282,-0.132644 0,-0.188987 0.0399,-0.07968 0.14915,-0.109305 0.18899,-0.188989 0.0563,-0.112691 -0.0563,-0.265285 0,-0.377976 0.0399,-0.07968 0.14915,-0.109305 0.18899,-0.188989 0.0564,-0.112692 -0.0563,-0.265285 0,-0.377976 0.0398,-0.07968 0.14915,-0.109305 0.18899,-0.188987 0.0563,-0.112691 -0.0563,-0.265287 0,-0.377978 0.0398,-0.07969 0.14914,-0.109302 0.18899,-0.188987 0.0282,-0.05635 0,-0.125992 0,-0.188989 0.063,-0.06299 0.14914,-0.109302 0.18898,-0.188986 0.0563,-0.112692 -0.0563,-0.265288 0,-0.377976 0.0399,-0.07969 0.14915,-0.109305 0.18899,-0.188989 0.0375,-0.07493 -0.0386,-0.528328 0,-0.566965 0.0445,-0.04455 0.14445,0.04454 0.18899,0 0.0445,-0.04455 -0.0282,-0.132641 0,-0.188987 0.0398,-0.07969 0.14915,-0.109305 0.18899,-0.188989 0.0282,-0.05635 -0.0282,-0.132644 0,-0.188987 0.0398,-0.07968 0.14914,-0.109305 0.18899,-0.188989 0.0282,-0.05635 -0.0282,-0.132644 0,-0.188989 0.0398,-0.07968 0.14914,-0.109302 0.18898,-0.188987 0.0563,-0.112691 -0.0891,-0.288888 0,-0.377976 0.0446,-0.04454 0.14445,0.04455 0.18899,0 0.0446,-0.04454 -0.0282,-0.132643 0,-0.188989 0.0398,-0.07968 0.14915,-0.109305 0.18899,-0.188987 0.0563,-0.112691 -0.0563,-0.265287 0,-0.377978 0.0398,-0.07969 0.14915,-0.109302 0.18899,-0.188987 0.0282,-0.05635 -0.0282,-0.132643 0,-0.188989 0.0398,-0.07968 0.14915,-0.109302 0.18899,-0.188986 0.0282,-0.05635 -0.0282,-0.132644 0,-0.18899 0.0398,-0.07968 0.14914,-0.109304 0.18899,-0.188986 0.0282,-0.05635 -0.0282,-0.132644 0,-0.188989 0.0398,-0.07969 0.14914,-0.109305 0.18898,-0.18899 0.0282,-0.05634 -0.0282,-0.132641 0,-0.188986 0.0399,-0.07968 0.14915,-0.109305 0.18899,-0.188989 0.0282,-0.05635 0,-0.125992 0,-0.188987 0.063,-0.063 0.14915,-0.109305 0.18899,-0.188989 0.0563,-0.112692 -0.0891,-0.288886 0,-0.377976 0.0446,-0.04454 0.14444,0.04454 0.18899,0 0.0445,-0.04454 -0.0282,-0.132644 0,-0.188989 0.0398,-0.07968 0.14914,-0.109302 0.18899,-0.188987 0.0282,-0.05635 -0.0282,-0.132643 0,-0.188989 0.0398,-0.07969 0.14914,-0.109302 0.18898,-0.188987 0.0282,-0.05635 -0.0445,-0.144444 0,-0.188989 0.0446,-0.04454 0.14445,0.04454 0.18899,0 0.0891,-0.08909 -0.0891,-0.288885 0,-0.377976 0.0446,-0.04454 0.14445,0.04455 0.18899,0 0.39102,-0.391022 -0.59753,0.01529 0.18899,-0.377976 0.0563,-0.02817 0.14444,0.04455 0.18899,0 0.39102,-0.391022 -0.59754,0.01529 0.18898,-0.377975 0.11269,-0.05635 0.28889,0.08909 0.37798,0 0.0445,-0.04455 -0.0445,-0.144444 0,-0.18899 0.0445,-0.04454 0.12599,0 0.18899,0 0.063,0 0.12599,0 0.18899,0 0.37797,0 0.75595,0 1.13393,0 0.063,0 0.14444,-0.04454 0.18898,0 0.25199,0.251984 -0.31498,0.18899 0.18899,0.18899 0.0891,0 0.93638,0.0086 0.94494,0 0.25199,-0.251984 -0.31498,-0.18899 0.18899,-0.18899 0.063,0 0.12599,0 0.18899,0 0.063,0 0.18899,-0.06299 0.18899,0 0,0.063 -0.25199,0 -0.18899,0 0.12599,0 0.26528,-0.05635 0.37797,0 0.0563,0.02817 0.063,0.18899 0,0.18899 -0.063,0 -0.063,-0.18899 0,-0.18899 0.0891,0 0.10931,0.149146 0.18899,0.18899 0.0563,0.02817 0.13265,-0.02817 0.18899,0 0.0797,0.03984 0.1093,0.149145 0.18899,0.188986 0.0749,0.03747 0.52833,-0.03863 0.56696,0 0.0446,0.04455 -0.0445,0.144444 0,0.188989 0.12637,0.126368 0.25161,-0.126367 0.37798,0 0.0445,0.04455 -0.0446,0.144444 0,0.188987 0.0445,0.04454 0.14444,-0.04454 0.18899,0 0.0445,0.04454 -0.0446,0.144444 0,0.188989 0.0445,0.04455 0.13264,-0.02817 0.18899,0 0.15936,0.07968 0.2186,0.298292 0.37797,0.377976 0.0563,0.02817 0.14444,-0.04454 0.18899,0 0.39102,0.391023 -0.59753,-0.01529 0.18899,0.377976 0.0563,0.02817 0.14444,-0.04455 0.18899,0 0.0445,0.04454 -0.0282,0.132643 0,0.188989 0.0797,0.159369 0.29829,0.218607 0.37797,0.377976 0.0563,0.112691 -0.0891,0.288885 0,0.377976 0.0446,0.04454 0.14445,-0.04455 0.18899,0 0.0445,0.04454 -0.0282,0.132643 0,0.188989 0.0398,0.07968 0.14915,0.109302 0.18899,0.188987 0.0563,0.112691 -0.0563,0.265287 0,0.377975 0.0398,0.07968 0.14914,0.109305 0.18899,0.18899 0.0282,0.05635 -0.0282,0.132643 0,0.188989 0.0398,0.07968 0.14914,0.109302 0.18898,0.188986 0.0282,0.05635 -0.0445,0.144444 0,0.18899 0.0446,0.04454 0.14445,-0.04455 0.18899,0 0.0891,0.08909 -0.0563,0.265284 0,0.377975 0.0398,0.07969 0.14915,0.109302 0.18899,0.188987 0.0282,0.05635 -0.0282,0.132644 0,0.188989 0.0398,0.07968 0.14915,0.109305 0.18899,0.188989 0.0282,0.05634 -0.0282,0.132641 0,0.188987 0.0398,0.07968 0.14914,0.109305 0.18899,0.188989 0.0282,0.05635 -0.0282,0.132641 0,0.188987 0.0398,0.07968 0.14914,0.109305 0.18898,0.188989 0.0282,0.05635 -0.0282,0.132644 0,0.188987 0.0399,0.07968 0.14915,0.109304 0.18899,0.188989 0.0282,0.05635 -0.0282,0.132643 0,0.188989 0.0398,0.07968 0.14915,0.109302 0.18899,0.188987 0.0282,0.05635 -0.0282,0.132643 0,0.188989 0.43246,0.864923 -0.0783,-0.801955 0.37798,0.566962 0.0199,0.05976 -0.0282,0.132644 0,0.18899 0.43246,0.864925 -0.0783,-0.801955 0.37797,0.566965 0.0199,0.05976 -0.0282,0.13264 0,0.188986 0.0797,0.159369 0.32163,0.208942 0.37798,0.377976 0.0398,0.119528 -0.0398,0.25845 0,0.377978 0.0563,0.169035 0.29829,0.218607 0.37798,0.377976 0.0282,0.05635 -0.0282,0.132641 0,0.188987 0.0398,0.07968 0.14914,0.109304 0.18898,0.188989 0.0282,0.05635 -0.0282,0.132644 0,0.188987 0.43247,0.864925 -0.0783,-0.801955 0.37798,0.566965 0.0199,0.05976 -0.0282,0.132643 0,0.188989 0.0398,0.07968 0.16081,0.104468 0.18899,0.188986 0.0398,0.119529 -0.0398,0.258451 0,0.377976 0.0282,0.08452 0.14914,0.109305 0.18899,0.18899 0.0282,0.05635 0,0.125991 0,0.188989 0.063,0.06299 0.14914,0.109302 0.18898,0.188986 0.0282,0.05635 -0.0199,0.129225 0,0.18899 0.0446,0.133633 0.14445,0.24434 0.18899,0.377975 0.0199,0.05976 -0.0282,0.132644 0,0.188987 0.0398,0.07968 0.14915,0.109305 0.18899,0.188989 0.0563,0.112691 -0.0563,0.265285 0,0.377976 0.0398,0.07968 0.14915,0.109305 0.18899,0.188989 0.0282,0.05635 -0.0446,0.144442 0,0.188987 0.0445,0.04454 0.14444,-0.04454 0.18899,0 0.0891,0.08909 -0.0564,0.265287 0,0.377976 0.0797,0.159369 0.29829,0.218609 0.37797,0.377978 0.0564,0.112689 -0.0563,0.265285 0,0.377976 0.0722,0.144364 0.52431,0.438991 0.56697,0.566962 0.0398,0.119528 -0.0399,0.258451 0,0.377979 0.0282,0.08452 0.13957,0.114861 0.18899,0.188986 0.0781,0.117205 0.11085,0.260771 0.18898,0.377976 0.0494,0.07413 0.13957,0.114861 0.18899,0.188989 0.63649,0.954731 0.002,0.0044 0.18899,0.566965 0.45631,1.368917 -0.0545,-0.29796 0.37798,0.566963 0.0282,0.05635 -0.0282,0.132643 0,0.188989 0.43246,0.864923 -0.0783,-0.801955 0.37797,0.566965 0.0199,0.05976 -0.0282,0.132641 0,0.188987 0.0797,0.159369 0.27914,0.229721 0.37798,0.377975 0.0781,0.117205 0.12599,0.251984 0.18899,0.377976 0.063,0.125992 0.14444,0.244343 0.18898,0.377979 0.0199,0.05976 -0.0282,0.132641 0,0.188986 0.0399,0.07968 0.13957,0.114861 0.18899,0.188989 0.0781,0.117206 0.12599,0.251984 0.18899,0.377976 0.063,0.125992 0.14444,0.24434 0.18899,0.377976 0.18753,0.562586 -0.4475,-0.387768 0.18899,0.566965 0.0494,0.07413 0.12599,0.125992 0.18898,0.188987 0.063,0.125992 0.11086,0.26077 0.18899,0.377975 0.0988,0.148257 0.27914,0.229722 0.37798,0.377979 0.0781,0.117205 0.11085,0.260771 0.18899,0.377976 0.11469,0.172037 0.48321,0.399457 0.56696,0.566962 0.0282,0.05635 -0.0282,0.132644 0,0.188989 0.0602,0.12038 0.79644,0.796441 0.94494,0.944941 0.063,0.063 0.12599,0.125992 0.18899,0.188987 0.063,0.063 0.14915,0.109304 0.18899,0.188989 0.0282,0.05635 -0.0445,0.144444 0,0.188989 0.0445,0.04454 0.14444,-0.04454 0.18899,0 0.39102,0.391023 -0.59754,-0.01529 0.18898,0.377976 0.0564,0.02817 0.14445,-0.04454 0.18899,0 0.39102,0.391022 -0.59753,-0.01529 0.18899,0.377976 0.0563,0.02817 0.14444,-0.04454 0.18899,0 0.0445,0.04454 -0.0445,0.144444 0,0.188986 0.0445,0.04455 0.13264,-0.02817 0.18899,0 0.22678,0.113396 0.34017,0.453573 0.56696,0.566965 0.0563,0.02817 0.13264,-0.02817 0.18899,0 0.0797,0.03984 0.1093,0.149146 0.18899,0.18899 0.0563,0.02817 0.13264,-0.02817 0.18898,0 0.0797,0.03984 0.10931,0.149145 0.18899,0.188986 0.0564,0.02817 0.13265,-0.02817 0.18899,0 0.0797,0.03984 0.10931,0.149146 0.18899,0.188989 0.11269,0.05635 0.26528,-0.05634 0.37798,0 0.0797,0.03984 0.1093,0.149146 0.18898,0.188987 0.0564,0.02817 0.13265,-0.02817 0.18899,0 0.6268,0.626795 -0.17818,-0.08909 0.37798,0.188989 0.0797,0.03984 0.1093,0.149146 0.18899,0.18899 0.11269,0.05634 0.28888,-0.08909 0.37797,0 0.0446,0.04454 -0.0445,0.144441 0,0.188986 0.0891,0.08909 0.26529,-0.05635 0.37798,0 0.0797,0.03984 0.1093,0.149146 0.18899,0.188989 0.0563,0.02817 0.13264,-0.02817 0.18898,0 0.15937,0.07969 0.21861,0.298292 0.37798,0.377976 0.0563,0.02817 0.13264,-0.02817 0.18899,0 0.0797,0.03984 0.1093,0.149146 0.18899,0.188987 0.0563,0.02817 0.13264,-0.02817 0.18898,0 0.15937,0.07968 0.21861,0.298294 0.37798,0.377978 0.0564,0.02817 0.13264,-0.02817 0.18899,0 0.0797,0.03984 0.1093,0.149146 0.18899,0.188987 0.0563,0.02817 0.14444,-0.04454 0.18899,0 0.0445,0.04454 -0.0446,0.144444 0,0.188989 0.0891,0.08909 0.28888,-0.08909 0.37797,0 0.0446,0.04454 -0.0445,0.144441 0,0.188987 0.0446,0.04454 0.13265,-0.02817 0.18899,0 0.0797,0.03984 0.1093,0.149145 0.18899,0.188989 0.0563,0.02817 0.14444,-0.04454 0.18899,0 0.0445,0.04454 -0.0445,0.144444 0,0.188986 0.0445,0.04455 0.13264,-0.02817 0.18898,0 0.0502,0.02508 0.54188,0.516787 0.56697,0.566965 0.0282,0.05635 0,0.125992 0,0.18899 0,0.06299 0.0445,0.144441 0,0.188986 -0.0445,0.04454 -0.14445,-0.04454 -0.18899,0 -0.0445,0.04454 0.0282,0.132644 0,0.188989 -0.39326,0.786522 0.013,-0.202035 -0.37798,0.188987 -0.0445,0.04454 0.0445,0.144444 0,0.188989 -0.0445,0.04454 -0.13264,-0.02817 -0.18898,0 -0.0797,0.03984 -0.10931,0.149146 -0.18899,0.188989 -0.15119,0.07559 -0.41578,-0.0756 -0.56697,0 -0.0797,0.03984 -0.1093,0.149146 -0.18898,0.188987 -0.20169,0.100843 -0.17629,-0.100843 -0.37798,0 -0.0797,0.03984 -0.1093,0.149146 -0.18899,0.188989 -0.15119,0.07559 -0.41577,-0.0756 -0.56696,0 -0.0797,0.03984 -0.10931,0.149146 -0.18899,0.188987 -0.0564,0.02817 -0.12599,0 -0.18899,0 -0.063,0 -0.12599,0 -0.18899,0 -0.1947,0 -1.26713,-0.02789 -1.32291,0 -0.0797,0.03984 -0.10931,0.149145 -0.18899,0.188989 -0.0564,0.02817 -0.12599,0 -0.18899,0 -0.44097,0 -0.88195,0 -1.32292,0 -0.0851,0 -0.50945,0.02876 -0.56696,0 -0.0797,-0.03984 -0.10931,-0.149146 -0.18899,-0.188989 -0.0564,-0.02817 -0.12599,0 -0.18899,0 -0.063,0 -0.12599,0 -0.18899,0 -0.37797,0 -0.75595,0 -1.13392,0 -0.063,0 -0.126,0 -0.18899,0 -0.063,0 -0.13264,0.02817 -0.18899,0 -0.0797,-0.03984 -0.1093,-0.149146 -0.18899,-0.188987 -0.104,-0.052 -0.98618,0.04925 -1.13393,0 -0.0845,-0.02817 -0.1093,-0.149145 -0.18899,-0.188989 -0.11269,-0.05635 -0.26528,0.05635 -0.37797,0 -0.0797,-0.03984 -0.10931,-0.149146 -0.18899,-0.188987 -0.11923,-0.05961 -0.82571,0.05961 -0.94494,0 -0.0797,-0.03984 -0.10447,-0.160816 -0.18899,-0.188989 -0.17929,-0.05976 -0.37797,0 -0.56696,0 -0.37798,0 -0.75595,0 -1.13393,0 -0.42697,0 0.0845,0.02817 -0.56696,-0.188989 -0.15912,-0.05304 -0.83243,0.05626 -0.94495,0 -0.0797,-0.03984 -0.10447,-0.160814 -0.18898,-0.188987 -0.17467,-0.05822 -0.76866,0.05876 -0.94494,0 -0.13364,-0.04454 -0.24435,-0.144444 -0.37798,-0.188989 -0.11953,-0.03984 -0.26529,0.05635 -0.37798,0 -0.0797,-0.03984 -0.10447,-0.160814 -0.18898,-0.188986 -0.17009,-0.0567 -0.39688,0.05669 -0.56697,0 -0.13363,-0.04455 -0.24434,-0.144444 -0.37797,-0.18899 -0.0598,-0.01992 -0.126,0 -0.18899,0 -0.126,0 -0.25845,0.03984 -0.37798,0 -0.0845,-0.02817 -0.10447,-0.160816 -0.18899,-0.188986 -0.11952,-0.03984 -0.25198,0 -0.37797,0 -0.063,0 -0.13265,0.02817 -0.18899,0 -0.0797,-0.03984 -0.10931,-0.149148 -0.18899,-0.188989 -0.0575,-0.02876 -0.48185,0 -0.56696,0 -0.44098,0 -0.88195,0 -1.32292,0 -0.1947,0 -1.26714,-0.02789 -1.32292,0 -0.0797,0.03984 -0.1093,0.149145 -0.18899,0.188989 -0.11269,0.05634 -0.26528,-0.05635 -0.37797,0 -0.0797,0.03984 -0.10931,0.149145 -0.18899,0.188986 -0.15119,0.0756 -0.41577,-0.07559 -0.56696,0 -0.0797,0.03984 -0.10931,0.149146 -0.18899,0.18899 -0.0563,0.02817 -0.13264,-0.02817 -0.18899,0 -0.0797,0.03984 -0.1093,0.149145 -0.18899,0.188986 -0.11878,0.05939 -0.63717,-0.05939 -0.75595,0 -0.0797,0.03984 -0.1093,0.149146 -0.18899,0.188989 -0.10021,0.05011 -0.81637,-0.04286 -0.94494,0 -0.0845,0.02817 -0.1093,0.149146 -0.18899,0.188987 -0.11737,0.05868 -1.01283,-0.06055 -1.13393,0 -0.0797,0.03984 -0.1093,0.149148 -0.18898,0.188989 -0.11879,0.05939 -0.63717,-0.05939 -0.75596,0 -0.0797,0.03984 -0.1093,0.149146 -0.18898,0.188989 -0.12254,0.06126 -0.95589,-0.05935 -1.13393,0 -0.13364,0.04454 -0.24434,0.144442 -0.37798,0.188987 -0.17009,0.0567 -0.39687,-0.0567 -0.56696,0 -0.0845,0.02817 -0.10447,0.160816 -0.18899,0.188989 -0.11953,0.03984 -0.25199,0 -0.37798,0 -0.063,0 -0.13264,-0.02817 -0.18899,0 -0.0797,0.03984 -0.1093,0.149146 -0.18898,0.188987 -0.11269,0.05635 -0.26529,-0.05635 -0.37798,0 -0.0797,0.03984 -0.1093,0.149145 -0.18899,0.188989 -0.11269,0.05635 -0.26528,-0.05635 -0.37797,0 -0.0797,0.03984 -0.10931,0.149146 -0.18899,0.188987 -0.11269,0.05635 -0.26529,-0.05634 -0.37798,0 -0.15937,0.07968 -0.21861,0.298294 -0.37797,0.377978 -0.0563,0.02817 -0.13265,-0.02817 -0.18899,0 -0.15937,0.07968 -0.21861,0.298291 -0.37798,0.377976 -0.0563,0.02817 -0.14444,-0.04454 -0.18899,0 -0.0445,0.04454 0.0446,0.144441 0,0.188987 -0.0445,0.04454 -0.14444,-0.04455 -0.18899,0 -0.0445,0.04454 0.0446,0.144443 0,0.188989 -0.0445,0.04454 -0.14444,-0.04455 -0.18898,0 -0.0446,0.04454 0.0445,0.144444 0,0.188986 -0.0446,0.04455 -0.14445,-0.04454 -0.18899,0 -0.0446,0.04455 0.0282,0.132644 0,0.18899 -0.0797,0.159369 -0.29829,0.218606 -0.37798,0.377975 -0.0282,0.05635 0.0282,0.132644 0,0.18899 -0.62679,0.626792 0.0891,-0.178181 -0.18899,0.377975 -0.0797,0.15937 -0.29829,0.218607 -0.37797,0.377976 -0.0282,0.05635 0.0282,0.132644 0,0.188989 -0.0398,0.07968 -0.14915,0.109302 -0.18899,0.188987 -0.0563,0.112691 0.0891,0.288888 0,0.377976 -0.0445,0.04454 -0.14444,-0.04454 -0.18899,0 -0.0445,0.04454 0.0282,0.132643 0,0.188989 -0.0398,0.07968 -0.14914,0.109302 -0.18899,0.188987 -0.0282,0.05635 0,0.125992 0,0.188989 -0.063,0.063 -0.14914,0.109305 -0.18898,0.188989 -0.0563,0.112689 0.0563,0.265285 0,0.377976 -0.0399,0.07968 -0.14915,0.109302 -0.18899,0.188986 -0.0563,0.112692 0.0563,0.265288 0,0.377976 -0.0398,0.07968 -0.14915,0.109305 -0.18899,0.188989 -0.0248,0.04969 0,0.657128 0,0.755952 0,0.443212 0.0446,-0.08909 -0.18899,0.377976 -0.0282,0.05635 0,0.125992 0,0.188989 0,0.063 0,0.125992 0,0.188989 0,0.377976 0,0.755952 0,1.133928 0,0.08511 0.0288,0.50945 0,0.566965 -0.0398,0.07968 -0.14914,0.109302 -0.18899,0.188986 -0.0563,0.112692 0.0891,0.288888 0,0.377976 -0.0445,0.04454 -0.14444,-0.04454 -0.18898,0 -0.0446,0.04454 0.0282,0.132644 0,0.188989 -0.0399,0.07969 -0.14915,0.109305 -0.18899,0.18899 -0.0282,0.05634 0.0445,0.144441 0,0.188986 -0.0446,0.04455 -0.14445,-0.04454 -0.18899,0 -0.39102,0.391023 0.59753,-0.01529 -0.18899,0.377976 -0.0563,0.02817 -0.14444,-0.04454 -0.18899,0 -0.0445,0.04454 0.0446,0.144444 0,0.188989 -0.008,0.0076 -0.68655,0 -0.75595,0 -0.0988,0 -0.70626,0.02484 -0.75595,0 -0.0797,-0.03984 -0.1093,-0.149145 -0.18899,-0.188989 -0.11269,-0.05635 -0.26529,0.05635 -0.37798,0 -0.0797,-0.03984 -0.1093,-0.149146 -0.18898,-0.188987 -0.1127,-0.05635 -0.28889,0.08909 -0.37798,0 -0.0445,-0.04454 0.0446,-0.144443 0,-0.188989 -0.0891,-0.08909 -0.28889,0.08909 -0.37798,0 -0.0445,-0.04454 0,-0.125992 0,-0.188986 -0.063,0 -0.14444,0.04454 -0.18898,0 -0.0446,-0.04455 0.0445,-0.144444 0,-0.18899 -0.0446,-0.04454 -0.13265,0.02817 -0.18899,0 -0.0797,-0.03984 -0.10931,-0.149145 -0.18899,-0.188989 -0.0564,-0.02817 -0.14444,0.04454 -0.18899,0 -0.04454,-0.04454 0.04455,-0.144441 0,-0.188986 -0.04454,-0.04455 -0.132641,0.02817 -0.188986,0 -0.07968,-0.03984 -0.109305,-0.149146 -0.188989,-0.18899 -0.05635,-0.02817 -0.144444,0.04455 -0.188987,0 -0.04454,-0.04454 0.04454,-0.144441 0,-0.188986 -0.08909,-0.08909 -0.288888,0.08909 -0.377978,0 -0.04454,-0.04454 0.04454,-0.144444 0,-0.188989 -0.08909,-0.08909 -0.265285,0.05634 -0.377976,0 -0.07969,-0.03984 -0.109302,-0.149146 -0.188987,-0.188987 -0.05635,-0.02817 -0.132643,0.02817 -0.188989,0 -0.07968,-0.03984 -0.109302,-0.149148 -0.188987,-0.188989 -0.151191,-0.07559 -0.415774,0.07559 -0.566965,0 -0.07968,-0.03984 -0.109304,-0.149146 -0.188989,-0.188989 -0.119226,-0.05961 -0.825712,0.05961 -0.944941,0 -0.07968,-0.03984 -0.109302,-0.149146 -0.188986,-0.188987 -0.05752,-0.02876 -0.481852,0 -0.566965,0 -0.377976,0 -0.755952,0 -1.133928,0 -0.377976,0 -0.755954,0 -1.13393,0 -0.08511,0 -0.509447,-0.02876 -0.566962,0 -0.07968,0.03984 -0.109305,0.149146 -0.18899,0.188987 -0.04886,0.02442 -0.999974,0 -1.133927,0 -0.063,0 -0.125992,0 -0.188989,0 -0.063,0 -0.144444,-0.04454 -0.188989,0 -0.04454,0.04454 0.04454,0.144444 0,0.188989 -0.06634,0.06634 -0.814398,-0.06527 -0.944939,0 -0.07968,0.03984 -0.109304,0.149145 -0.188989,0.188989 -0.151191,0.07559 -0.415774,-0.0756 -0.566965,0 -0.07968,0.03984 -0.109302,0.149146 -0.188986,0.188987 -0.118785,0.05939 -0.63717,-0.05939 -0.755955,0 -0.07968,0.03984 -0.109302,0.149145 -0.188986,0.188989 -0.07493,0.03746 -0.528328,-0.03864 -0.566965,0 -0.04455,0.04454 0.04454,0.144441 0,0.188986 -0.08909,0.08909 -0.265285,-0.05634 -0.377976,0 -0.07968,0.03984 -0.109305,0.149146 -0.188989,0.18899 -0.112689,0.05634 -0.265285,-0.05635 -0.377976,0 -0.07969,0.03984 -0.109302,0.149145 -0.188987,0.188986 -0.05634,0.02817 -0.132643,-0.02817 -0.188989,0 -0.07968,0.03984 -0.109302,0.149148 -0.188987,0.188989 -0.05635,0.02817 -0.132643,-0.02817 -0.188989,0 -0.07968,0.03984 -0.109304,0.149146 -0.188989,0.18899 -0.05634,0.02817 -0.144441,-0.04455 -0.188987,0 -0.04454,0.04454 0.04455,0.144441 0,0.188986 -0.08909,0.08909 -0.288888,-0.08909 -0.377975,0 -0.04455,0.04455 0.04454,0.144444 0,0.188989 -0.04455,0.04455 -0.132644,-0.02817 -0.18899,0 -0.07968,0.03984 -0.109302,0.149146 -0.188986,0.188987 -0.05635,0.02817 -0.132644,-0.02817 -0.188989,0 -0.07969,0.03984 -0.109305,0.149146 -0.18899,0.188989 -0.05634,0.02817 -0.144441,-0.04454 -0.188986,0 -0.04454,0.04455 0.04454,0.144444 0,0.188987 -0.04454,0.04454 -0.132644,-0.02817 -0.188989,0 -0.07968,0.03984 -0.109302,0.149148 -0.188987,0.188989 -0.05635,0.02817 -0.125992,0 -0.188989,0 -0.063,0.063 -0.109302,0.149146 -0.188987,0.188989 -0.05634,0.02817 -0.144444,-0.04454 -0.188989,0 -0.04454,0.04454 0.04454,0.144442 0,0.188987 -0.04454,0.04454 -0.132644,-0.02817 -0.188989,0 -0.07968,0.03984 -0.109302,0.149146 -0.188987,0.188989 -0.05635,0.02817 -0.144444,-0.04454 -0.188989,0 -0.04454,0.04454 0.04454,0.144441 0,0.188987 -0.09449,0.0945 -0.472469,-0.09449 -0.566962,0 -0.04455,0.04454 0.04454,0.144444 0,0.188989 -0.0076,0.0076 -0.686549,0 -0.755955,0 -0.314978,0 -0.629959,0 -0.944941,0 -0.06299,0 -0.144441,0.04454 -0.188986,0 -0.04454,-0.04454 0.04454,-0.144444 0,-0.188989 -0.04548,-0.04548 -0.710475,0.04548 -0.755952,0 -0.04454,-0.04455 0.04454,-0.144442 0,-0.188987 -0.08909,-0.08909 -0.265287,0.05635 -0.377978,0 -0.07968,-0.03984 -0.109302,-0.149145 -0.188987,-0.188989 -0.05634,-0.02817 -0.144444,0.04454 -0.188989,0 -0.04454,-0.04454 0.04454,-0.144444 0,-0.188987 -0.04454,-0.04454 -0.144441,0.04454 -0.188987,0 -0.04454,-0.04454 0.04455,-0.144444 0,-0.188989 -0.04454,-0.04454 -0.132643,0.02817 -0.188989,0 -0.07968,-0.03984 -0.125992,-0.125992 -0.188986,-0.188989 -0.063,-0.063 -0.149149,-0.109302 -0.18899,-0.188987 -0.02817,-0.05634 0.04455,-0.144444 0,-0.188989 -0.04454,-0.04454 -0.144444,0.04454 -0.188989,0 -0.08909,-0.08909 0.08909,-0.288885 0,-0.377976 -0.04454,-0.04454 -0.144441,0.04455 -0.188986,0 -0.04455,-0.04454 0.04454,-0.144444 0,-0.188986 -0.04455,-0.04455 -0.144444,0.04454 -0.18899,0 -0.391022,-0.391025 0.597535,0.01529 -0.188986,-0.377979 -0.05635,-0.02817 -0.144444,0.04454 -0.188989,0 -0.08909,-0.08909 0.08909,-0.288885 0,-0.377976 -0.04455,-0.04454 -0.144444,0.04455 -0.188987,0 -0.04454,-0.04454 0.04454,-0.144441 0,-0.188986 -0.04454,-0.04454 -0.125992,0 -0.188989,0 0,-0.063 0.02817,-0.132644 0,-0.188989 -0.03984,-0.07969 -0.125992,-0.125992 -0.18899,-0.188987 -0.1485,-0.148503 -0.884748,-0.824561 -0.944938,-0.944941 -0.02817,-0.05634 0.04454,-0.144444 0,-0.188989 -0.04454,-0.04454 -0.144444,0.04454 -0.188989,0 -0.04454,-0.04454 0.02817,-0.132644 0,-0.188987 -0.03984,-0.07968 -0.149146,-0.109304 -0.188989,-0.188989 -0.02817,-0.05635 0.04454,-0.144444 0,-0.188989 -0.391023,-0.391022 0.01529,0.597535 -0.377976,-0.188987 -0.02817,-0.05634 0.02817,-0.132643 0,-0.188989 -0.03984,-0.07968 -0.149146,-0.109302 -0.188987,-0.188986 -0.02817,-0.05635 0.04455,-0.144444 0,-0.18899 -0.04454,-0.04454 -0.144444,0.04455 -0.188989,0 -0.04454,-0.04454 0.02817,-0.132643 0,-0.188986 -0.07968,-0.159369 -0.298291,-0.21861 -0.377976,-0.377979 -0.02817,-0.05634 0.04455,-0.144441 0,-0.188986 -0.04454,-0.04455 -0.144444,0.04454 -0.188989,0 -0.04454,-0.04455 0.02817,-0.132644 0,-0.18899 -0.03984,-0.07968 -0.149145,-0.109302 -0.188986,-0.188986 -0.02817,-0.05635 0.04454,-0.144444 0,-0.188989 -0.04455,-0.04455 -0.144444,0.04454 -0.18899,0 -0.04454,-0.04455 0.02817,-0.132644 0,-0.188987 -0.0181,-0.03618 -0.719775,-0.737865 -0.755951,-0.755954 -0.05635,-0.02817 -0.132644,0.02817 -0.188989,0 -0.786522,-0.393261 0.202035,0.01304 -0.188987,-0.377976 -0.04454,-0.04454 -0.132644,0.02817 -0.188989,0 -0.267367,-0.133683 -0.110607,-0.244292 -0.377976,-0.377976 -0.05635,-0.02817 -0.144444,0.04454 -0.188987,0 -0.04454,-0.04454 0.04454,-0.144444 0,-0.188989 -0.04454,-0.04454 -0.132643,0.02817 -0.188989,0 -0.159369,-0.07969 -0.218607,-0.298291 -0.377976,-0.377976 -0.05634,-0.02817 -0.144444,0.04454 -0.188989,0 -0.04454,-0.04454 0.04454,-0.144441 0,-0.188986 -0.04454,-0.04455 -0.132641,0.02817 -0.188987,0 -0.07968,-0.03984 -0.109304,-0.149146 -0.188989,-0.18899 -0.05635,-0.02817 -0.144444,0.04455 -0.188986,0 -0.04455,-0.04454 0.04454,-0.144444 0,-0.188986 -0.04455,-0.04454 -0.144444,0.04454 -0.18899,0 -0.04454,-0.04454 0.04455,-0.144444 0,-0.188989 -0.04454,-0.04455 -0.144444,0.04454 -0.188989,0 -0.04454,-0.04455 0.04454,-0.144444 0,-0.18899 -0.04454,-0.04454 -0.144441,0.04455 -0.188986,0 -0.04455,-0.04454 0.04454,-0.144441 0,-0.188986 -0.04455,-0.04455 -0.144444,0.04454 -0.18899,0 -0.04454,-0.04455 0.04455,-0.144444 0,-0.188989 -0.04454,-0.04455 -0.144441,0.04454 -0.188986,0 -0.04454,-0.04455 0.04454,-0.144442 0,-0.188987 -0.04454,-0.04454 -0.144444,0.04454 -0.188989,0 -0.04455,-0.04454 0.04454,-0.144444 0,-0.188989 -0.04455,-0.04455 -0.144444,0.04454 -0.188987,0 -0.04454,-0.04455 0.04454,-0.144444 0,-0.188987 -0.04454,-0.04454 -0.125992,0 -0.188989,0 0,-0.063 0.04454,-0.144444 0,-0.188989 -0.04454,-0.04454 -0.144444,0.04454 -0.188989,0 -0.08909,-0.08909 0.08909,-0.288885 0,-0.377976 -0.04454,-0.04454 -0.144442,0.04454 -0.188987,0 -0.04454,-0.04454 0.04454,-0.144444 0,-0.188989 -0.04454,-0.04454 -0.144444,0.04454 -0.188989,0 -0.04454,-0.04454 0.02817,-0.132641 0,-0.188987 -0.03984,-0.07968 -0.149146,-0.109304 -0.188987,-0.188989 -0.02817,-0.05635 0,-0.125992 0,-0.188987 0,-0.063 0,-0.125991 0,-0.188989 0,-0.063 0,-0.125992 0,-0.188989 0,-0.063 -0.063,-0.188987 0,-0.188987 0.063,0 0,0.251984 0,0.188987 0,-0.125992 -0.03984,-0.258448 0,-0.377976 0.196631,-0.589891 0.125992,0.063 0.377976,-0.188986 0.04454,-0.04455 -0.04454,-0.144444 0,-0.18899 0.08909,-0.08909 0.265284,0.05635 0.377976,0 0.07968,-0.03984 0.109304,-0.149145 0.188989,-0.188986 0.05634,-0.02817 0.125992,0 0.188987,0 0.493331,0 0.501843,0.03096 1.13393,0.188986 z"
       id="path2685"
       inkscape:connector-curvature="0" />
    <path
       style="fill:none;stroke:#000000;stroke-width:0.26458332px;stroke-linecap:butt;stroke-linejoin:miter;stroke-opacity:1"
       d="m 52.916666,76.162201 c -0.02299,-1.363554 -1.358321,-1.960687 -1.889882,-3.023809 -0.02817,-0.05635 0.02817,-0.132644 0,-0.188987 -0.03984,-0.07968 -0.149145,-0.109305 -0.188986,-0.188989 -0.02817,-0.05635 0.01992,-0.129225 0,-0.188989 -0.04455,-0.133634 -0.144444,-0.244341 -0.188989,-0.377976 -0.01992,-0.05976 0.02817,-0.132641 0,-0.188987 -0.03984,-0.07968 -0.160814,-0.104471 -0.188987,-0.188989 -0.03984,-0.119526 0.03984,-0.25845 0,-0.377976 -0.02817,-0.08452 -0.160816,-0.104471 -0.188989,-0.188989 -0.03984,-0.119526 0.03056,-0.255744 0,-0.377976 -0.03417,-0.136657 -0.144444,-0.24434 -0.18899,-0.377976 -0.01992,-0.05976 0.01992,-0.129225 0,-0.188986 -0.08909,-0.267272 -0.309647,-0.48264 -0.377975,-0.755955 -0.03056,-0.122229 0.03056,-0.255746 0,-0.377975 0.113908,-0.342056 -0.30615,-0.351483 -0.377976,-0.566965 -0.03984,-0.119526 0.03984,-0.258448 0,-0.377976 -0.02817,-0.08452 -0.160814,-0.104468 -0.188987,-0.188987 -0.07968,-0.239053 0.07968,-0.5169 0,-0.755954 -0.02817,-0.08452 -0.160816,-0.104468 -0.188989,-0.188987 -0.07968,-0.239053 0.06112,-0.511492 0,-0.755951 -0.03417,-0.13666 -0.154824,-0.241319 -0.188989,-0.377979 -0.03056,-0.122229 0,-0.251984 0,-0.377976 0,-0.125991 0,-0.251983 0,-0.377975 0,-0.063 0.01992,-0.129225 0,-0.188987 -0.04454,-0.133636 -0.154824,-0.241318 -0.188987,-0.377978 -0.03056,-0.12223 0,-0.251984 0,-0.377976 0,-0.314979 0,-0.62996 0,-0.944941 0,-0.063 0.01992,-0.129223 0,-0.188987 -0.04454,-0.133635 -0.144444,-0.244342 -0.188989,-0.377975 -0.01992,-0.05976 0,-0.125992 0,-0.18899 0,-0.125992 -0.03984,-0.25845 0,-0.377975 0.02817,-0.08452 0.160816,-0.104471 0.188989,-0.18899 0.02884,-0.08651 0,-0.839454 0,-0.944938 0,-0.50397 0,-1.007938 0,-1.511906 0,-0.503967 0,-1.007935 0,-1.511906 0,-0.08511 0.02876,-0.509447 0,-0.566962 -0.03984,-0.07969 -0.149145,-0.109305 -0.188989,-0.188989 -0.05738,-0.114758 0.05738,-1.01917 0,-1.133928 -0.03984,-0.07968 -0.149146,-0.109304 -0.188987,-0.188989 -0.05961,-0.119226 0.05961,-0.825714 0,-0.944941 -0.03984,-0.07968 -0.149145,-0.109302 -0.188989,-0.188986 -0.07559,-0.151191 0.0756,-0.415774 0,-0.566965 -0.03984,-0.07969 -0.149145,-0.109305 -0.188986,-0.18899 -0.05635,-0.112688 0.05634,-0.265284 0,-0.377975 -0.03984,-0.07968 -0.149149,-0.109302 -0.18899,-0.188987 -0.05635,-0.112691 0.05635,-0.265287 0,-0.377976 -0.03984,-0.07968 -0.149145,-0.109304 -0.188989,-0.188989 -0.02817,-0.05635 0.02817,-0.132644 0,-0.188989 -0.03984,-0.07968 -0.149145,-0.109302 -0.188986,-0.188987 -0.02817,-0.05635 0.02817,-0.132643 0,-0.188989 -0.03984,-0.07969 -0.149146,-0.109302 -0.18899,-0.188987 -0.02817,-0.05635 0.02817,-0.132643 0,-0.188989 -0.03984,-0.07968 -0.149145,-0.109305 -0.188986,-0.188986 -0.02817,-0.05635 0.02817,-0.132644 0,-0.18899 -0.113393,-0.226785 -0.453573,-0.340177 -0.566965,-0.566965 -0.02817,-0.05635 0.02817,-0.132641 0,-0.188986 -0.07969,-0.159369 -0.298291,-0.21861 -0.377976,-0.377976 -0.02817,-0.05635 0.02817,-0.132644 0,-0.188989 -0.113393,-0.226785 -0.453573,-0.340178 -0.566965,-0.566965 -0.02817,-0.05635 0.04454,-0.144442 0,-0.188987 -0.04455,-0.04454 -0.132644,0.02817 -0.188987,0 -0.07968,-0.03984 -0.125992,-0.125992 -0.188989,-0.188989 -0.063,-0.063 -0.149146,-0.109305 -0.188989,-0.188987 -0.02817,-0.05635 0.02817,-0.132643 0,-0.188989 -0.208931,-0.417864 -0.117293,-0.05865 -0.377976,-0.188989 -0.07968,-0.03984 -0.125992,-0.125992 -0.188987,-0.188987 -0.111154,-0.111151 -0.668438,-0.712195 -0.755954,-0.755951 -0.05634,-0.02817 -0.132641,0.02817 -0.188986,0 -0.226785,-0.113395 -0.34018,-0.453573 -0.566965,-0.566965 -0.05635,-0.02817 -0.132644,0.02817 -0.188987,0 -0.07969,-0.03984 -0.109305,-0.149146 -0.188989,-0.18899 -0.202189,-0.101094 -0.175787,0.101095 -0.377976,0 -0.159369,-0.07968 -0.218607,-0.298291 -0.377976,-0.377975 -0.112691,-0.05635 -0.25845,0.03984 -0.377976,0 -0.133635,-0.04455 -0.244342,-0.144444 -0.377978,-0.188987 -0.05976,-0.01992 -0.132641,0.02817 -0.188987,0 -0.07968,-0.03984 -0.109304,-0.149148 -0.188989,-0.188989 -0.112689,-0.05635 -0.265284,0.05635 -0.377976,0 -0.07968,-0.03984 -0.109302,-0.149146 -0.188986,-0.188989 -0.112692,-0.05634 -0.265287,0.05635 -0.377979,0 -0.07968,-0.03984 -0.109302,-0.149146 -0.188986,-0.188987 -0.05635,-0.02817 -0.132644,0.02817 -0.18899,0 -0.07968,-0.03984 -0.109302,-0.149146 -0.188986,-0.188989 -0.112691,-0.05635 -0.265287,0.05635 -0.377976,0 -0.07968,-0.03984 -0.109305,-0.149146 -0.188989,-0.188987 -0.112691,-0.05635 -0.265285,0.05635 -0.377976,0 -0.07968,-0.03984 -0.109305,-0.149145 -0.188989,-0.188989 -0.151191,-0.07559 -0.415774,0.0756 -0.566963,0 -0.07968,-0.03984 -0.109304,-0.149146 -0.188989,-0.188987 -0.112691,-0.05635 -0.265284,0.05634 -0.377976,0 -0.626795,-0.626795 0.178179,0.08909 -0.377975,-0.188989 -0.07969,-0.03984 -0.109305,-0.149146 -0.18899,-0.188989 -0.05635,-0.02817 -0.129225,0.01992 -0.188986,0 -0.133636,-0.04454 -0.244343,-0.144441 -0.377979,-0.188987 -0.119525,-0.03984 -0.265284,0.05635 -0.377975,0 -0.07968,-0.03984 -0.109303,-0.149145 -0.188987,-0.188989 -0.05635,-0.02817 -0.132644,0.02817 -0.188989,0 -0.07968,-0.03984 -0.109302,-0.149146 -0.188987,-0.188987 -0.05635,-0.02817 -0.125992,0 -0.188989,0 -0.063,-0.063 -0.109305,-0.149145 -0.188989,-0.188989 -0.05634,-0.02817 -0.132641,0.02817 -0.188987,0 -0.07968,-0.03984 -0.109305,-0.149145 -0.188989,-0.188986 -0.05635,-0.02817 -0.132641,0.02817 -0.188987,0 -0.07968,-0.03984 -0.109304,-0.149149 -0.188989,-0.18899 -0.05635,-0.02817 -0.132644,0.02817 -0.188987,0 -0.07968,-0.03984 -0.10447,-0.160816 -0.188989,-0.188989 -0.119525,-0.03984 -0.25845,0.03984 -0.377976,0 -0.08452,-0.02817 -0.109304,-0.149145 -0.188989,-0.188986 -0.05635,-0.02817 -0.132641,0.02817 -0.188986,0 -0.07969,-0.03984 -0.109305,-0.149146 -0.18899,-0.18899 -0.05635,-0.02817 -0.132643,0.02817 -0.188986,0 -0.07968,-0.03984 -0.109305,-0.149145 -0.188989,-0.188986 -0.112692,-0.05635 -0.258451,0.03984 -0.377976,0 -0.133636,-0.04454 -0.244343,-0.144444 -0.377976,-0.188989 -0.05976,-0.01992 -0.132644,0.02817 -0.188989,0 -0.159369,-0.07968 -0.218607,-0.298292 -0.377976,-0.377976 -0.112691,-0.05635 -0.25845,0.03984 -0.377976,0 -0.133636,-0.04455 -0.244343,-0.144444 -0.377976,-0.188989 -0.05976,-0.01992 -0.132643,0.02817 -0.188989,0 -0.07968,-0.03984 -0.109302,-0.149146 -0.188986,-0.188987 -0.05635,-0.02817 -0.132644,0.02817 -0.18899,0 -0.07968,-0.03984 -0.109304,-0.149146 -0.188989,-0.188989 -0.05634,-0.02817 -0.132641,0.02817 -0.188987,0 -0.07968,-0.03984 -0.10447,-0.160814 -0.188989,-0.188987 -0.119525,-0.03984 -0.258447,0.03984 -0.377976,0 -0.169037,-0.05635 -0.208938,-0.321633 -0.377975,-0.377976 -0.119526,-0.03984 -0.258451,0.03984 -0.377976,0 -0.169037,-0.05635 -0.218607,-0.298294 -0.377976,-0.377978 -0.05635,-0.02817 -0.132644,0.02817 -0.188989,0 -0.07969,-0.03984 -0.109302,-0.149146 -0.188987,-0.188987 -0.05635,-0.02817 -0.132643,0.02817 -0.188989,0 -0.226786,-0.113392 -0.340178,-0.453572 -0.566964,-0.566965 -0.05635,-0.02817 -0.132643,0.02817 -0.188988,0 -0.07968,-0.03984 -0.125992,-0.125992 -0.188988,-0.188986 -0.111153,-0.111154 -0.668436,-0.712195 -0.755953,-0.755955 -0.05635,-0.02817 -0.125992,0 -0.188988,0 -0.125992,-0.06299 -0.260771,-0.110849 -0.377976,-0.188986 -0.626795,-0.626795 0.17818,0.08909 -0.377976,-0.188989 -0.07969,-0.03984 -0.109304,-0.149146 -0.188988,-0.188987 -0.05635,-0.02817 -0.125992,0 -0.188988,0 -0.125993,-0.063 -0.260771,-0.110852 -0.377977,-0.188989 -0.07413,-0.04942 -0.109303,-0.149146 -0.188988,-0.188989 -0.05635,-0.02817 -0.132642,0.02817 -0.188988,0 -0.07968,-0.03984 -0.114861,-0.139568 -0.188988,-0.188987 -0.09517,-0.416372 -0.388785,-0.0999 -0.566964,-0.188989 -0.159369,-0.07968 -0.218608,-0.298291 -0.377976,-0.377976 -0.05635,-0.02817 -0.132643,0.02817 -0.188988,0 -0.18597,-0.09299 -0.569983,-0.662966 -0.755953,-0.755952 -0.05635,-0.02817 -0.132643,0.02817 -0.188988,0 -0.07968,-0.03984 -0.125992,-0.125992 -0.188988,-0.188989 C 20.032738,36.285715 19.84375,36.096725 19.654762,35.907739 19.52877,35.781744 19.42504,35.628598 19.276786,35.52976 19.15958,35.45162 19.016015,35.41891 18.898809,35.340774 c -0.07413,-0.04942 -0.109303,-0.149146 -0.188988,-0.188989 -0.05635,-0.02817 -0.132642,0.02817 -0.188988,0 -0.18597,-0.09299 -0.569983,-0.662967 -0.755952,-0.755952 -0.05635,-0.02817 -0.132643,0.02817 -0.188988,0 -0.303284,-0.151641 -0.07469,-0.226335 -0.377977,-0.377976 -0.05635,-0.02817 -0.132642,0.02817 -0.188988,0 -0.226785,-0.113392 -0.340178,-0.453572 -0.566964,-0.566965 -0.05635,-0.02817 -0.132643,0.02817 -0.188988,0 -0.159369,-0.07969 -0.218607,-0.298291 -0.377976,-0.377976 -0.556156,-0.278077 0.248818,0.437806 -0.377976,-0.188989 -0.111153,-0.111151 -0.668436,-0.712192 -0.755953,-0.755952 -0.05635,-0.02817 -0.132642,0.02817 -0.188988,0 -0.07968,-0.03984 -0.109303,-0.149145 -0.188988,-0.188986 -0.05635,-0.02817 -0.132643,0.02817 -0.188988,0 -0.159369,-0.07968 -0.218607,-0.298294 -0.377976,-0.377979 -0.05635,-0.02817 -0.144443,0.04455 -0.188988,0 -0.04455,-0.04454 0.04454,-0.144441 0,-0.188986 -0.04455,-0.04454 -0.132643,0.02817 -0.188988,0 -0.07969,-0.03984 -0.109304,-0.149146 -0.188988,-0.188989 -0.05635,-0.02817 -0.144444,0.04454 -0.188989,0 -0.04454,-0.04455 0.02817,-0.132641 0,-0.188987 -0.393261,-0.786524 0.01305,0.202033 -0.377976,-0.188989 -0.04455,-0.04454 0.04454,-0.144444 0,-0.188987 -0.04455,-0.04454 -0.132643,0.02817 -0.188988,0 -0.159369,-0.07968 -0.218607,-0.298294 -0.377976,-0.377978 -0.05635,-0.02817 -0.144443,0.04454 -0.188988,0 -0.04454,-0.04454 0.04454,-0.144442 0,-0.188987 -0.04454,-0.04454 -0.132643,0.02817 -0.188988,0 -0.159369,-0.07968 -0.218608,-0.298291 -0.377976,-0.377976 -0.05635,-0.02817 -0.144444,0.04455 -0.188989,0 -0.04454,-0.04454 0.04454,-0.144444 0,-0.188989 -0.04454,-0.04454 -0.132642,0.02817 -0.188988,0 -0.07968,-0.03984 -0.109303,-0.149146 -0.188988,-0.188986 -0.05635,-0.02817 -0.132642,0.02817 -0.188988,0 -0.07968,-0.03984 -0.109303,-0.149149 -0.188988,-0.18899 -0.05635,-0.02817 -0.132643,0.02817 -0.188988,0 -0.07968,-0.03984 -0.109304,-0.149145 -0.188988,-0.188989 -0.056345,-0.02817 -0.1326428,0.02817 -0.1889882,0 -0.1593686,-0.07968 -0.2186075,-0.298291 -0.3779761,-0.377976 -0.056345,-0.02817 -0.1326427,0.02817 -0.1889881,0 -0.079684,-0.03984 -0.1093037,-0.149145 -0.1889882,-0.188986 -0.056345,-0.02817 -0.1444432,0.04454 -0.1889879,0 -0.3910232,-0.391025 0.597535,0.01529 -0.1889882,-0.377976 -0.056345,-0.02817 -0.1326428,0.02817 -0.1889882,0 -0.1593686,-0.07968 -0.2186074,-0.298294 -0.377976,-0.377979 -0.056345,-0.02817 -0.1326428,0.02817 -0.1889882,0 -0.1593689,-0.07968 -0.2186075,-0.298291 -0.3779761,-0.377975 -0.056345,-0.02817 -0.1444432,0.04454 -0.1889881,0 -0.044545,-0.04455 0.044545,-0.144442 0,-0.188987 -0.044545,-0.04454 -0.1326428,0.02817 -0.1889882,0 -0.1593686,-0.07968 -0.2186075,-0.298294 -0.3779761,-0.377976 -0.056345,-0.02817 -0.1326427,0.02817 -0.1889882,0 -0.1593688,-0.07968 -0.2186074,-0.298293 -0.377976,-0.377977 -0.056345,-0.02817 -0.1326428,0.02817 -0.1889882,0 -0.079684,-0.03984 -0.1093039,-0.149146 -0.1889882,-0.188988 -0.056345,-0.02817 -0.1326427,0.02817 -0.1889881,0 -0.079684,-0.03984 -0.1093036,-0.149146 -0.1889879,-0.188989 -0.1126908,-0.05635 -0.2652856,0.05635 -0.3779764,0 -0.079684,-0.03984 -0.1093036,-0.149145 -0.1889879,-0.188987 -0.056345,-0.02817 -0.1326427,0.02817 -0.1889881,0 -0.079684,-0.03984 -0.1093039,-0.149146 -0.1889882,-0.188989 -0.1126908,-0.05635 -0.2652855,0.05635 -0.3779761,0 -0.079685,-0.03984 -0.1093039,-0.149145 -0.1889881,-0.188988 -0.056345,-0.02817 -0.1326428,0.02817 -0.1889882,0 -0.079684,-0.03984 -0.1093036,-0.149146 -0.1889879,-0.188988 -0.1126908,-0.05635 -0.2652856,0.05635 -0.3779764,0 -0.079684,-0.03984 -0.1093036,-0.149146 -0.1889881,-0.188988 -0.1511904,-0.07559 -0.4157737,0.07559 -0.5669642,0 -0.079684,-0.03984 -0.1093037,-0.149146 -0.1889881,-0.188988 -0.1147578,-0.05738 -1.0191707,0.05738 -1.1339285,0 -0.079684,-0.03984 -0.1093038,-0.149146 -0.18898813,-0.188988 -0.0496928,-0.02485 -0.65712662,0 -0.75595238,0 -0.17799611,0 -0.83743228,-0.03584 -0.94494047,0 -0.084518,0.02817 -0.10930372,0.149146 -0.18898809,0.188988 -0.0563453,0.02817 -0.12599203,0 -0.18898813,0 -0.125992,0 -0.2519841,0 -0.3779761,0 -0.2519842,0 -0.5039683,0 -0.7559524,0 -0.1259921,0 -0.2584496,-0.03984 -0.3779762,0 -1.0707473,0.535374 0.2817268,-0.07043 -0.7559524,0.188988 -0.1366576,0.03416 -0.2413185,0.154824 -0.3779761,0.188988 -0.1222303,0.03056 -0.255746,-0.03056 -0.3779763,0 -0.1366576,0.03417 -0.2519842,0.125992 -0.3779761,0.188988 -0.1259922,0.063 -0.2607707,0.110851 -0.3779763,0.188988 -0.074127,0.04942 -0.10447,0.160816 -0.1889879,0.188989 -0.1195266,0.03984 -0.2584498,-0.03984 -0.3779764,0 -0.084518,0.02817 -0.1259919,0.125992 -0.1889879,0.188987 -0.1259922,0.125993 -0.2354326,0.271069 -0.3779763,0.377977 -0.1126908,0.08452 -0.2783708,0.08938 -0.3779761,0.188988 -0.099606,0.09961 -0.1044702,0.265284 -0.1889882,0.377976 -0.2138156,0.285088 -0.5421367,0.470866 -0.7559524,0.755951 -0.084518,0.112692 -0.1044699,0.265288 -0.1889881,0.377979 -0.1069078,0.142541 -0.2710683,0.235431 -0.3779761,0.377976 -0.1690362,0.22538 -0.2089401,0.530569 -0.3779761,0.755951 -0.1069078,0.142545 -0.2710685,0.235432 -0.3779763,0.377976 -0.084518,0.112691 -0.1259919,0.251984 -0.1889882,0.377976 -0.062996,0.125992 -0.1366726,0.24719 -0.1889879,0.377976 -0.1479703,0.369927 -0.230006,0.764003 -0.3779763,1.13393 -0.052315,0.130789 -0.1366727,0.247187 -0.1889879,0.377976 -0.245631,0.614076 -0.3861044,1.256871 -0.5669644,1.889881 -0.179747,0.629113 -0.259815,0.613947 -0.377976,1.322917 -0.02071,0.124277 0.02471,0.254431 0,0.377976 -0.03907,0.195342 -0.14992,0.37162 -0.188988,0.566965 -0.02471,0.123544 0.03056,0.255743 0,0.377976 -0.273507,1.094023 -0.188988,-0.496782 -0.188988,0.94494 0,0.62996 0,1.25992 0,1.889879 0,0.377976 -0.05345,0.759751 0,1.133931 0.02817,0.197207 0.156238,0.370464 0.188988,0.566962 0.06214,0.372835 -0.07413,0.763294 0,1.13393 0.02763,0.138128 0.161362,0.239847 0.188988,0.377976 0.06177,0.308864 -0.07639,0.639365 0,0.944941 0.03416,0.136657 0.161362,0.239847 0.188988,0.377975 0.07413,0.370637 -0.06214,0.761096 0,1.133928 0.23891,1.433462 0.182675,-0.434793 0.377976,1.322917 0.062611,0.563496 -0.07032,1.138308 0,1.700895 0.2501033,2.000824 0.1889882,-0.474332 0.1889882,1.511903 0,0.503968 0,1.007935 0,1.511906 0,0.188986 -0.031069,0.380547 0,0.566962 0.03275,0.196501 0.1499195,0.371623 0.1889882,0.566965 0.024709,0.123545 0,0.251984 0,0.377976 0,0.251984 0,0.503968 0,0.755954 0,0.125992 -0.030558,0.255744 0,0.377976 0.034164,0.136657 0.1548236,0.241319 0.1889879,0.377976 0.030558,0.122229 0,0.251984 0,0.377976 0,0.125992 0,0.251984 0,0.377975 0,0.063 -0.01992,0.129226 0,0.18899 0.044545,0.133633 0.1444432,0.24434 0.1889881,0.377975 0.056697,0.170091 -0.056697,0.396875 0,0.566966 0.028173,0.08452 0.1608154,0.104468 0.1889882,0.188986 0.056696,0.17009 -0.056696,0.396875 0,0.566965 0.044545,0.133633 0.1444432,0.24434 0.1889879,0.377976 0.056696,0.17009 -0.056696,0.396875 0,0.566965 0.028173,0.08452 0.1491459,0.109302 0.1889882,0.188987 0.056345,0.112691 -0.039842,0.25845 0,0.377975 0.044545,0.133636 0.1444432,0.244343 0.1889882,0.377979 0.01992,0.05976 -0.028173,0.132641 0,0.188986 0.039842,0.07968 0.1608153,0.104471 0.1889881,0.18899 0.039842,0.119525 -0.039842,0.258447 0,0.377975 0.028173,0.08452 0.1491459,0.109302 0.1889879,0.188987 0.028173,0.05635 -0.028173,0.132644 0,0.188989 0.039842,0.07968 0.1491459,0.109305 0.1889882,0.188989 0.028173,0.05634 -0.028173,0.132641 0,0.188987 0.039842,0.07968 0.1491459,0.109305 0.1889882,0.188989 0.028173,0.05635 -0.028173,0.132641 0,0.188987 0.039842,0.07968 0.1491459,0.109305 0.1889879,0.188989 0.028173,0.05635 -0.028173,0.132644 0,0.188987 0.050468,0.100936 0.467469,0.467471 0.5669645,0.566965 0.099495,0.0995 0.4660286,0.516495 0.5669642,0.566965 0.2606821,0.130341 0.1690447,-0.228875 0.3779761,0.188986 0.028173,0.05635 -0.044545,0.144444 0,0.18899 0.044545,0.04454 0.1326428,-0.02817 0.1889882,0 0.079684,0.03984 0.1093036,0.149145 0.1889881,0.188989 0.1126906,0.05634 0.2888861,-0.08909 0.3779761,0 0.044545,0.04454 -0.044545,0.144441 0,0.188986 0.066338,0.06634 0.8144002,-0.06527 0.9449406,0 0.079684,0.03984 0.1093036,0.149146 0.1889879,0.18899 0.1126908,0.05635 0.2652855,-0.05635 0.3779763,0 0.079684,0.03984 0.1093036,0.149145 0.1889879,0.188986 0.048863,0.02442 0.9999735,0 1.1339287,0 0.062996,0 0.1259921,0 0.1889881,0 0.062996,0 0.1444432,-0.04454 0.1889881,0 0.044545,0.04454 -0.044545,0.144444 0,0.188989 0.044545,0.04455 0.125992,0 0.1889881,0 0.062996,0 0.125992,0 0.1889881,0 0.098826,0 0.70625953,0.02484 0.75595233,0 0.0796844,-0.03984 0.10930371,-0.149145 0.18898809,-0.188989 0.15119048,-0.07559 0.41577381,0.0756 0.56696429,0 0.46706602,-0.233532 -0.0652345,-0.188986 0.37797618,-0.188986 0.062996,0 0.12599207,0 0.18898809,0 0.0629961,0 0.14444318,0.04454 0.18898809,0 0.0445449,-0.04455 -0.0445449,-0.144444 0,-0.18899 0.0944941,-0.09449 0.47247023,0.09449 0.56696433,0 0.2519841,-0.251984 -0.3149802,-0.188986 0.188988,-0.188986 0.062996,0 0.1259921,0 0.1889881,0 0.062996,0 0.1444432,0.04454 0.1889881,0 0.044545,-0.04454 -0.044545,-0.144444 0,-0.188989 0.08909,-0.08909 0.2652855,0.05635 0.3779762,0 0.079684,-0.03984 0.1093037,-0.149146 0.1889881,-0.18899 0.056345,-0.02817 0.1326427,0.02817 0.1889881,0 0.079684,-0.03984 0.1093037,-0.149145 0.1889881,-0.188986 0.1126908,-0.05635 0.2888864,0.08909 0.3779761,0 0.044545,-0.04455 -0.044545,-0.144444 0,-0.188989 0.08909,-0.08909 0.2888863,0.08909 0.3779763,0 0.044545,-0.04455 -0.044545,-0.144442 0,-0.188987 0.08909,-0.08909 0.2888864,0.08909 0.3779761,0 0.044545,-0.04454 -0.044545,-0.144444 0,-0.188989 0.08909,-0.08909 0.2888863,0.08909 0.3779763,0 0.044545,-0.04455 -0.044545,-0.144444 0,-0.188987 0.044545,-0.04454 0.1326428,0.02817 0.1889879,0 0.079685,-0.03984 0.1093039,-0.149148 0.1889882,-0.188989 0.056345,-0.02817 0.1326428,0.02817 0.1889882,0 0.079684,-0.03984 0.1093036,-0.149146 0.1889881,-0.188989 0.056345,-0.02817 0.1326425,0.02817 0.1889879,0 0.079685,-0.03984 0.1093039,-0.149146 0.1889882,-0.188987 0.056345,-0.02817 0.1326428,0.02817 0.1889882,0 0.079684,-0.03984 0.1093036,-0.149146 0.1889879,-0.188989 0.056345,-0.02817 0.1326427,0.02817 0.1889881,0 0.079684,-0.03984 0.1093039,-0.149146 0.1889882,-0.188987 0.056345,-0.02817 0.1444432,0.04455 0.1889882,0 0.044545,-0.04454 -0.044545,-0.144444 0,-0.188989 0.044545,-0.04454 0.1444432,0.04454 0.1889879,0 0.044545,-0.04454 -0.044545,-0.144444 0,-0.188987 0.044545,-0.04454 0.1326427,0.02817 0.1889882,0 0.079684,-0.03984 0.1093036,-0.149148 0.1889881,-0.188989 0.056345,-0.02817 0.1326428,0.02817 0.1889879,0 0.1593689,-0.07968 0.2186075,-0.298291 0.3779764,-0.377976 0.056345,-0.02817 0.1444431,0.04455 0.1889881,0 0.044545,-0.04454 -0.044545,-0.144444 0,-0.188989 0.044545,-0.04454 0.1326425,0.02817 0.1889879,0 0.1593689,-0.07968 0.2186075,-0.298291 0.3779764,-0.377976 0.056345,-0.02817 0.1326427,0.02817 0.1889879,0 0.079684,-0.03984 0.1093038,-0.149145 0.1889881,-0.188986 0.056345,-0.02817 0.1444432,0.04454 0.1889882,0 0.044545,-0.04454 -0.044545,-0.144444 0,-0.188989 0.044545,-0.04455 0.1326428,0.02817 0.1889882,0 0.079684,-0.03984 0.1093036,-0.149146 0.1889879,-0.18899 0.1126908,-0.05634 0.2652855,0.05635 0.3779763,0 0.079684,-0.03984 0.1093036,-0.149145 0.1889879,-0.188986 0.1126908,-0.05635 0.2652856,0.05635 0.3779764,0 0.07968,-0.03984 0.109304,-0.149146 0.188988,-0.188989 0.112691,-0.05635 0.265285,0.05635 0.377976,0 0.07968,-0.03984 0.109304,-0.149146 0.188988,-0.188987 0.07493,-0.03747 0.528329,0.03863 0.566965,0 0.04455,-0.04454 -0.04454,-0.144444 0,-0.188989 0.05592,-0.05592 0.63889,0.05853 0.755952,0 0.07968,-0.03984 0.109304,-0.149146 0.188988,-0.188987 0.112691,-0.05635 0.265285,0.05634 0.377976,0 0.07968,-0.03984 0.109304,-0.149148 0.188988,-0.188989 0.05635,-0.02817 0.125992,0 0.188988,0 0.125993,0 0.25845,0.03984 0.377977,0 0.08452,-0.02817 0.109303,-0.149146 0.188988,-0.188989 0.08409,-0.04205 0.669511,0.02882 0.755952,0 0.08452,-0.02817 0.10447,-0.160814 0.188988,-0.188987 0.100592,-0.03353 1.349698,0 1.511905,0 1.133928,0 2.267857,0 3.401786,0 0.426968,0 -0.08452,0.02817 0.566964,-0.188989 0.05976,-0.01992 0.125992,0 0.188988,0 0.443211,0 -0.08909,-0.04455 0.377976,0.188989 0.04969,0.02484 0.657127,0 0.755953,0 0.377976,0 0.755952,0 1.133928,0 0.08511,0 0.509449,-0.02876 0.566964,0 0.07969,0.03984 0.109304,0.149146 0.188988,0.188987 0.111507,0.05575 0.436973,-0.04333 0.566965,0 0.133634,0.04454 0.244341,0.144444 0.377976,0.188989 0.119526,0.03984 0.265285,-0.05635 0.377976,0 0.07968,0.03984 0.109304,0.149146 0.188988,0.188989 0.05635,0.02817 0.132643,-0.02817 0.188988,0 0.07968,0.03984 0.109304,0.149146 0.188988,0.188987 0.112691,0.05635 0.265286,-0.05635 0.377977,0 0.07968,0.03984 0.109303,0.149145 0.188988,0.188989 0.05635,0.02817 0.132642,-0.02817 0.188988,0 0.07968,0.03984 0.109303,0.149146 0.188988,0.188987 0.05635,0.02817 0.132643,-0.02817 0.188988,0 0.07968,0.03984 0.109304,0.149145 0.188988,0.188989 0.05635,0.02817 0.132644,-0.02817 0.188989,0 0.07969,0.03984 0.104468,0.160814 0.188987,0.188986 0.119528,0.03984 0.25845,-0.03984 0.377976,0 0.08452,0.02817 0.109304,0.149149 0.188989,0.18899 0.05635,0.02817 0.132643,-0.02817 0.188986,0 0.07969,0.03984 0.109305,0.149145 0.18899,0.188989 0.05635,0.02817 0.132643,-0.02817 0.188989,0 0.07968,0.03984 0.109302,0.149145 0.188986,0.188986 0.05635,0.02817 0.132644,-0.02817 0.18899,0 0.07968,0.03984 0.109302,0.149146 0.188986,0.18899 0.112692,0.05635 0.265287,-0.05635 0.377976,0 0.159369,0.07968 0.218609,0.298291 0.377979,0.377975 0.112688,0.05635 0.265284,-0.05635 0.377975,0 0.07969,0.03984 0.109302,0.149146 0.188987,0.188987 0.05635,0.02817 0.132643,-0.02817 0.188989,0 0.07969,0.03984 0.109305,0.149148 0.188987,0.188989 0.05635,0.02817 0.132643,-0.02817 0.188989,0 0.07969,0.03984 0.109305,0.149146 0.188989,0.188989 0.112689,0.05634 0.288885,-0.08909 0.377976,0 0.04454,0.04454 -0.04454,0.144442 0,0.188987 0.08909,0.08909 0.265284,-0.05635 0.377976,0 0.07968,0.03984 0.109304,0.149146 0.188986,0.188989 0.05635,0.02817 0.132644,-0.02817 0.18899,0 0.07968,0.03984 0.109304,0.149146 0.188989,0.188987 0.112689,0.05635 0.288885,-0.08909 0.377976,0 0.04454,0.04454 -0.04455,0.144444 0,0.188989 0.08909,0.08909 0.265284,-0.05635 0.377975,0 0.07968,0.03984 0.109305,0.149146 0.188987,0.188987 0.05635,0.02817 0.132644,-0.02817 0.188989,0 0.07968,0.03984 0.109305,0.149148 0.188989,0.188989 0.05634,0.02817 0.144442,-0.04454 0.188987,0 0.04454,0.04454 -0.04455,0.144444 0,0.188989 0.04454,0.04454 0.132644,-0.02817 0.188989,0 0.159369,0.07968 0.218607,0.298291 0.377976,0.377976 0.05635,0.02817 0.144444,-0.04454 0.188987,0 0.04455,0.04454 -0.04454,0.144441 0,0.188987 0.04455,0.04454 0.144444,-0.04455 0.188989,0 0.04454,0.04454 -0.04455,0.144443 0,0.188989 0.04454,0.04454 0.144444,-0.04455 0.188989,0 0.04454,0.04454 -0.04454,0.144444 0,0.188986 0.04454,0.04455 0.144441,-0.04454 0.188987,0 0.391022,0.391025 -0.597535,-0.01529 0.188989,0.377979 0.503968,0 -0.063,-0.063 0.188987,0.188986 0.04455,0.04455 0.144443,-0.04454 0.188989,0 0.04454,0.04455 -0.04455,0.144444 0,0.18899 0.04454,0.04454 0.132643,-0.02817 0.188986,0 0.159369,0.07968 0.21861,0.298291 0.377979,0.377975 0.05634,0.02817 0.132641,-0.02817 0.188986,0 0.159369,0.07969 0.218607,0.298292 0.377976,0.377976 0.05635,0.02817 0.144444,-0.04454 0.188989,0 0.04455,0.04454 -0.04454,0.144444 0,0.188989 0.04455,0.04454 0.125992,0 0.188987,0 0,0.063 -0.04454,0.144442 0,0.188987 0.04454,0.04454 0.132644,-0.02817 0.188989,0 0.786524,0.393261 -0.202036,-0.01304 0.188989,0.377976 0.04454,0.04454 0.144442,-0.04454 0.188987,0 0.04454,0.04454 -0.04455,0.144444 0,0.188989 0.04454,0.04454 0.144444,-0.04454 0.188989,0 0.04454,0.04454 -0.04454,0.144444 0,0.188987 0.04454,0.04454 0.144442,-0.04454 0.188987,0 0.04454,0.04454 -0.04454,0.144444 0,0.188989 0.04454,0.04454 0.125992,0 0.188989,0 0,0.06299 -0.02817,0.132643 0,0.188989 0.393261,0.786522 -0.01304,-0.202036 0.377976,0.188987 0.04454,0.04454 -0.02817,0.132643 0,0.188989 0.07968,0.159369 0.298291,0.218607 0.377976,0.377976 0.02817,0.05634 -0.02817,0.132643 0,0.188986 0.03984,0.07968 0.149145,0.109305 0.188989,0.18899 0.02817,0.05635 -0.04454,0.144443 0,0.188989 0.391022,0.391022 -0.01529,-0.597535 0.377976,0.188986 0.02817,0.05635 -0.02817,0.132644 0,0.18899 0.03984,0.07968 0.125992,0.125991 0.188986,0.188986 0.148503,0.148503 0.884751,0.824561 0.944941,0.944941 0.02817,0.05635 -0.04455,0.144444 0,0.188989 0.391025,0.391023 -0.01529,-0.597535 0.377976,0.188987 0.02817,0.05635 -0.04454,0.144444 0,0.188989 0.04454,0.04454 0.132643,-0.02817 0.188989,0 0.226785,0.113392 0.340178,0.45357 0.566965,0.566965 0.05635,0.02817 0.144442,-0.04454 0.188987,0 0.04454,0.04454 -0.04454,0.144441 0,0.188987 0.04454,0.04454 0.144444,-0.04455 0.188989,0 0.04454,0.04454 -0.02817,0.132643 0,0.188989 0.09298,0.185968 0.662966,0.569981 0.755952,0.755951 0.02817,0.05635 -0.04455,0.144444 0,0.18899 0.04454,0.04454 0.144444,-0.04455 0.188989,0 0.04454,0.04454 0,0.125992 0,0.188986 0.06299,0 0.132641,-0.02817 0.188986,0 0.07968,0.03984 0.125992,0.125992 0.18899,0.188989 0.06299,0.063 0.149145,0.109303 0.188986,0.188987 0.02817,0.05635 -0.02817,0.132644 0,0.188989 0.0181,0.03618 0.719778,0.737865 0.755954,0.755952 0.05635,0.02817 0.144442,-0.04454 0.188987,0 0.04454,0.04454 -0.04455,0.144444 0,0.188989 0.04454,0.04454 0.132644,-0.02817 0.188989,0 0.159369,0.07968 0.218607,0.298291 0.377976,0.377976 0.05635,0.02817 0.144444,-0.04454 0.188989,0 0.04454,0.04454 -0.04454,0.144444 0,0.188987 0.08909,0.08909 0.288886,-0.08909 0.377976,0 0.04454,0.04454 -0.04454,0.144444 0,0.188989 0.04454,0.04454 0.144441,-0.04454 0.188987,0 0.04454,0.04454 -0.04455,0.144444 0,0.188989 0.04454,0.04454 0.132643,-0.02817 0.188989,0 0.226785,0.113392 0.340177,0.45357 0.566965,0.566962 0.05634,0.02817 0.144441,-0.04454 0.188987,0 0.04454,0.04455 -0.04455,0.144444 0,0.18899 0.04454,0.04454 0.144444,-0.04455 0.188989,0 0.04454,0.04454 -0.04454,0.144444 0,0.188986 0.04454,0.04454 0.144441,-0.04454 0.188986,0 0.04455,0.04454 -0.04454,0.144444 0,0.188989 0.04455,0.04455 0.132644,-0.02817 0.18899,0 0.159369,0.07968 0.218606,0.298292 0.377975,0.377976 0.05635,0.02817 0.144444,-0.04454 0.18899,0 0.04454,0.04454 -0.04455,0.144444 0,0.188989 0.08909,0.08909 0.288885,-0.08909 0.377975,0 0.04455,0.04455 -0.04454,0.144442 0,0.188987 0.04455,0.04454 0.144442,-0.04454 0.188987,0 0.04454,0.04454 -0.04455,0.144444 0,0.188989 0.04454,0.04454 0.132644,-0.02817 0.188989,0 0.07968,0.03984 0.109305,0.149146 0.188987,0.188987 0.05635,0.02817 0.144444,-0.04454 0.188989,0 0.04454,0.04454 -0.04454,0.144444 0,0.188989 0.04454,0.04454 0.144444,-0.04454 0.188989,0 0.04454,0.04454 -0.04454,0.144444 0,0.188989 0.04454,0.04454 0.132641,-0.02817 0.188987,0 0.07968,0.03984 0.109305,0.149146 0.188989,0.188987 0.05635,0.02817 0.144441,-0.04454 0.188987,0 0.04454,0.04454 -0.04455,0.144444 0,0.188989 0.04454,0.04454 0.132643,-0.02817 0.188989,0 0.07968,0.03984 0.109305,0.149146 0.188986,0.188987 0.05635,0.02817 0.144444,-0.04455 0.18899,0 0.04454,0.04454 -0.04455,0.144444 0,0.188989 0.04454,0.04454 0.144444,-0.04454 0.188989,0 0.04454,0.04454 -0.04454,0.144444 0,0.188986 0.04454,0.04455 0.132641,-0.02817 0.188987,0 0.07968,0.03984 0.109304,0.149149 0.188989,0.18899 0.05635,0.02817 0.144441,-0.04455 0.188986,0 0.04455,0.04454 -0.04454,0.144444 0,0.188989 0.04455,0.04454 0.125992,0 0.18899,0 0.06299,0 0.125991,0 0.188986,0 0.063,0 0.251987,0 0.188989,0 -0.125992,0 -0.503967,0 -0.377975,0 0.188986,0 0.377975,0 0.566965,0 0.06299,0 0.188986,-0.063 0.188986,0 0,0.063 -0.251984,0 -0.188986,0 0.125992,0 0.251983,0 0.377975,0 0.063,0 0.144442,0.04454 0.188987,0 0.222726,-0.222726 0.377976,-0.50397 0.566965,-0.755954 z"
       id="path2689"
       inkscape:connector-curvature="0" />
  </g>
</svg>
