<?xml version="1.0" encoding="UTF-8" standalone="no"?>
<!-- Created with Inkscape (http://www.inkscape.org/) -->

<svg
   xmlns:dc="http://purl.org/dc/elements/1.1/"
   xmlns:cc="http://creativecommons.org/ns#"
   xmlns:rdf="http://www.w3.org/1999/02/22-rdf-syntax-ns#"
   xmlns:svg="http://www.w3.org/2000/svg"
   xmlns="http://www.w3.org/2000/svg"
   xmlns:sodipodi="http://sodipodi.sourceforge.net/DTD/sodipodi-0.dtd"
   xmlns:inkscape="http://www.inkscape.org/namespaces/inkscape"
   width="169.33333mm"
   height="127mm"
   viewBox="0 0 169.33333 127"
   version="1.1"
   id="svg3313"
   sodipodi:docname="4_8_tubulos_coletores.svg"
   inkscape:version="0.92.4 (5da689c313, 2019-01-14)">
  <defs
     id="defs3307" />
  <sodipodi:namedview
     id="base"
     pagecolor="#ffffff"
     bordercolor="#666666"
     borderopacity="1.0"
     inkscape:pageopacity="0.0"
     inkscape:pageshadow="2"
     inkscape:zoom="0.7"
     inkscape:cx="331.10078"
     inkscape:cy="222.95509"
     inkscape:document-units="mm"
     inkscape:current-layer="layer30"
     showgrid="false"
     fit-margin-top="0"
     fit-margin-left="0"
     fit-margin-right="0"
     fit-margin-bottom="0"
     inkscape:window-width="1920"
     inkscape:window-height="1001"
     inkscape:window-x="-9"
     inkscape:window-y="-9"
     inkscape:window-maximized="1" />
  <metadata
     id="metadata3310">
    <rdf:RDF>
      <cc:Work
         rdf:about="">
        <dc:format>image/svg+xml</dc:format>
        <dc:type
           rdf:resource="http://purl.org/dc/dcmitype/StillImage" />
        <dc:title></dc:title>
      </cc:Work>
    </rdf:RDF>
  </metadata>
  <g
     inkscape:groupmode="layer"
     id="layer30"
     inkscape:label="tubulos_coletores">
    <path
       style="fill:none;stroke:#000000;stroke-width:0.26458332px;stroke-linecap:butt;stroke-linejoin:miter;stroke-opacity:1"
       d="m 145.26099,49.358203 c -0.71272,-0.222726 -1.42544,-0.44545 -2.13816,-0.668176 -0.0445,0 -0.0904,0.0108 -0.13363,0 -0.13666,-0.03416 -0.26425,-0.09947 -0.40091,-0.133633 -0.0909,-0.02273 -0.32782,0.03654 -0.4009,0 -0.0563,-0.02817 -0.0773,-0.105463 -0.13364,-0.133636 -0.0797,-0.03984 -0.18758,0.03984 -0.26727,0 -0.0563,-0.02817 -0.0773,-0.105463 -0.13363,-0.133633 -0.0399,-0.01992 -0.0891,0 -0.13364,0 -0.0891,0 -0.18275,0.02817 -0.26727,0 -0.0598,-0.01992 -0.0773,-0.105463 -0.13363,-0.133636 -0.0797,-0.03984 -0.18759,0.03984 -0.26727,0 -0.0564,-0.02817 -0.0891,-0.08909 -0.13363,-0.133636 -0.0891,0 -0.18276,0.02817 -0.26728,0 -0.0598,-0.01992 -0.0739,-0.113712 -0.13363,-0.133633 -0.0845,-0.02817 -0.18275,0.02817 -0.26727,0 -0.0598,-0.01992 -0.0739,-0.113715 -0.13363,-0.133636 -0.0845,-0.02817 -0.18276,0.02817 -0.26727,0 -0.0598,-0.01992 -0.0739,-0.113712 -0.13364,-0.133635 -0.0845,-0.02817 -0.18275,0.02817 -0.26727,0 -0.0598,-0.01992 -0.0773,-0.105461 -0.13363,-0.133633 -0.0797,-0.03984 -0.18275,0.02817 -0.26727,0 -0.0945,-0.0315 -0.17278,-0.102138 -0.26727,-0.133636 -0.0423,-0.01408 -0.0938,0.01992 -0.13364,0 -0.0563,-0.02817 -0.0773,-0.105463 -0.13363,-0.133633 -0.0398,-0.01992 -0.0914,0.01408 -0.13363,0 -0.0945,-0.0315 -0.17278,-0.102137 -0.26728,-0.133636 -0.0423,-0.01408 -0.0938,0.01992 -0.13363,0 -0.0564,-0.02817 -0.0739,-0.113715 -0.13364,-0.133636 -0.0845,-0.02817 -0.18275,0.02817 -0.26726,0 -0.0598,-0.01992 -0.0739,-0.113712 -0.13364,-0.133633 -0.0845,-0.02817 -0.18084,0.02162 -0.26727,0 -0.0966,-0.02416 -0.17277,-0.102137 -0.26727,-0.133636 -0.0423,-0.01408 -0.0914,0.01408 -0.13363,0 -0.0945,-0.0315 -0.17278,-0.102137 -0.26727,-0.133635 -0.0423,-0.01408 -0.0914,0.01407 -0.13364,0 -0.0945,-0.0315 -0.17277,-0.102135 -0.26727,-0.133634 -0.0423,-0.01407 -0.0914,0.01408 -0.13363,0 -0.0945,-0.0315 -0.17278,-0.102137 -0.26727,-0.133635 -0.12027,-0.04009 -0.28063,0.04009 -0.40091,0 -0.0598,-0.01992 -0.0739,-0.113713 -0.13363,-0.133636 -0.12027,-0.04009 -0.28063,0.04009 -0.4009,0 -0.0945,-0.0315 -0.17278,-0.102134 -0.26728,-0.133633 -0.0884,-0.02946 -0.67052,0 -0.8018,0 -0.0445,0 -0.0938,0.01992 -0.13364,0 -0.0563,-0.02817 -0.0773,-0.105463 -0.13363,-0.133636 -0.0466,-0.02328 -0.70371,0 -0.80181,0 -0.1147,0 -0.72362,-0.02606 -0.80181,0 -0.0598,0.01992 -0.0739,0.113715 -0.13363,0.133636 -0.16904,0.05635 -0.36168,-0.04322 -0.53454,0 -0.0966,0.02416 -0.17064,0.109477 -0.26727,0.133633 -0.12965,0.03241 -0.27413,-0.04226 -0.40091,0 -0.75713,0.378568 0.19921,-0.0498 -0.53454,0.133636 -0.0966,0.02416 -0.17063,0.109476 -0.26727,0.133635 -0.0864,0.02162 -0.18084,-0.02162 -0.26726,0 -0.0966,0.02416 -0.17818,0.08909 -0.26728,0.133634 -0.0891,0.04454 -0.18439,0.07839 -0.26726,0.133635 -0.0524,0.03494 -0.0739,0.113713 -0.13364,0.133636 -0.0845,0.02817 -0.18084,-0.02162 -0.26727,0 -0.0966,0.02416 -0.17064,0.109477 -0.26727,0.133633 -0.0864,0.02162 -0.18084,-0.02162 -0.26727,0 -0.19326,0.04832 -0.34127,0.218953 -0.53454,0.267272 -0.0864,0.02162 -0.18084,-0.02162 -0.26727,0 -0.0966,0.02416 -0.17063,0.109476 -0.26726,0.133633 -0.0864,0.02162 -0.18084,-0.02162 -0.26728,0 -0.0966,0.02416 -0.17063,0.109476 -0.26726,0.133636 -0.0864,0.02162 -0.18084,-0.02162 -0.26727,0 -0.0966,0.02416 -0.17064,0.109476 -0.26727,0.133633 -0.0864,0.02162 -0.18084,-0.02162 -0.26727,0 -0.0966,0.02416 -0.17064,0.109476 -0.26727,0.133635 -0.0864,0.02162 -0.18084,-0.02162 -0.26727,0 -0.0966,0.02416 -0.17064,0.109477 -0.26727,0.133636 -0.0864,0.02162 -0.17818,0 -0.26727,0 -0.0891,0.04455 -0.17278,0.102137 -0.26727,0.133633 -0.142,0.04733 -0.39254,-0.04733 -0.53454,0 -0.0945,0.0315 -0.17277,0.102137 -0.26727,0.133636 -0.0423,0.01408 -0.0914,-0.01408 -0.13363,0 -0.0945,0.0315 -0.17278,0.102137 -0.26727,0.133636 -0.0845,0.02817 -0.18276,-0.02817 -0.26727,0 -0.0945,0.0315 -0.17278,0.102134 -0.26727,0.133633 -0.0423,0.01408 -0.0938,-0.01992 -0.13364,0 -0.0563,0.02817 -0.0739,0.113715 -0.13363,0.133636 -0.0845,0.02817 -0.18275,-0.02817 -0.26727,0 -0.0598,0.01992 -0.0812,0.09869 -0.13364,0.133633 -0.0829,0.05525 -0.17277,0.102137 -0.26726,0.133635 -0.0845,0.02817 -0.18276,-0.02817 -0.26728,0 -0.0945,0.0315 -0.17277,0.102138 -0.26727,0.133636 -0.0422,0.01408 -0.0938,-0.01992 -0.13363,0 -0.11269,0.05635 -0.15458,0.210923 -0.26727,0.267269 -0.0398,0.01992 -0.0938,-0.01992 -0.13363,0 -0.11269,0.05635 -0.15458,0.210923 -0.26727,0.267269 -0.0399,0.01992 -0.0938,-0.01992 -0.13364,0 -0.11269,0.05635 -0.16244,0.197382 -0.26727,0.267269 -0.0829,0.05525 -0.18439,0.07839 -0.26727,0.133635 -0.0524,0.03494 -0.0891,0.08909 -0.13363,0.133636 -0.13364,0.133633 -0.26727,0.267269 -0.40091,0.400905 -0.0445,0.04454 -0.0773,0.10546 -0.13363,0.133633 -0.23657,0.118282 -0.0457,-0.198774 -0.26727,0.133636 -0.0553,0.08288 -0.0784,0.184393 -0.13364,0.267269 -0.0699,0.104833 -0.17817,0.178181 -0.26726,0.267268 -0.22273,0.222727 -0.44545,0.44545 -0.66818,0.668174 -0.10438,0.104381 -0.32403,0.285591 -0.4009,0.400904 -0.29442,0.0673 -0.0706,0.274913 -0.13364,0.400905 -0.0282,0.05635 -0.0987,0.08122 -0.13363,0.133636 -0.0553,0.08288 -0.0784,0.184393 -0.13364,0.267269 -0.0349,0.05242 -0.0987,0.08122 -0.13363,0.133635 -0.29442,0.0673 -0.0706,0.274913 -0.13364,0.400905 -0.30579,0.611592 0.0554,-0.567068 -0.26727,0.400902 -0.0141,0.04226 0.0199,0.0938 0,0.133636 -0.0282,0.05635 -0.11371,0.07387 -0.13363,0.133635 -0.0282,0.08452 0.0282,0.182751 0,0.267269 -0.0398,0.119526 -0.21093,0.154578 -0.26727,0.267269 -0.0199,0.03984 0.0199,0.09379 0,0.133636 -0.0282,0.05635 -0.11371,0.07387 -0.13364,0.133636 -0.0282,0.08452 0,0.178178 0,0.267268 0,0.04455 0.0199,0.09379 0,0.133634 -0.0282,0.05635 -0.10546,0.07729 -0.13363,0.133635 -0.0398,0.07968 0.0398,0.187585 0,0.267269 -0.0282,0.05635 -0.10546,0.07729 -0.13363,0.133636 -0.0199,0.03984 0,0.08909 0,0.133636 0,0.07466 0.0263,0.589311 0,0.668173 -0.0315,0.09449 -0.10214,0.172776 -0.13364,0.267269 -0.0272,0.08153 0,0.698598 0,0.801809 0,0.301911 0.0199,-0.05976 -0.13364,0.400905 -0.0282,0.08452 0,0.178178 0,0.267269 0,0.267268 0,0.534537 0,0.801809 0,0.400902 0,0.801806 0,1.202711 0,0.107582 -0.0279,0.450662 0,0.53454 0.0315,0.09449 0.10214,0.172776 0.13364,0.267269 0.0141,0.04226 0,0.08909 0,0.133636 0,0.111879 -0.029,0.848447 0,0.935442 0.0315,0.09449 0.10214,0.172776 0.13364,0.267269 0.0306,0.09192 -0.0394,0.322059 0,0.400905 0.0282,0.05635 0.10546,0.07729 0.13363,0.133635 0.0534,0.106908 -0.0535,0.293997 0,0.400905 0.0282,0.05635 0.10546,0.07729 0.13363,0.133633 0.0399,0.07969 -0.0398,0.187587 0,0.267272 0.0282,0.05634 0.10547,0.07729 0.13364,0.133633 0.0398,0.07968 -0.0398,0.187584 0,0.267269 0.0282,0.05635 0.10546,0.07729 0.13363,0.133635 0.0199,0.03984 -0.0199,0.09379 0,0.133636 0.0282,0.05635 0.10547,0.07729 0.13364,0.133633 0.0199,0.03984 -0.0199,0.09379 0,0.133636 0.0282,0.05635 0.10546,0.07729 0.13363,0.133636 0.0199,0.03984 -0.0199,0.09379 0,0.133633 0.0128,0.02558 0.50896,0.52175 0.53454,0.53454 0.0398,0.01992 0.0938,-0.01992 0.13364,0 0.24602,0.12301 0.0212,0.277892 0.26727,0.400905 0.0398,0.01992 0.0938,-0.01992 0.13363,0 0.0564,0.02817 0.0739,0.113712 0.13364,0.133633 0.0845,0.02817 0.18275,-0.02817 0.26726,0 0.0598,0.01992 0.0773,0.105463 0.13364,0.133636 0.0398,0.01992 0.0914,-0.01408 0.13364,0 0.0945,0.0315 0.17277,0.102137 0.26727,0.133633 0.0422,0.01407 0.0914,-0.01408 0.13363,0 0.0945,0.0315 0.17064,0.109479 0.26727,0.133635 0.12964,0.03241 0.27413,-0.04226 0.4009,0 0.0945,0.0315 0.17278,0.102138 0.26727,0.133636 0.11201,0.03733 0.44598,-0.04428 0.53454,0 0.0563,0.02817 0.0739,0.113713 0.13364,0.133633 0.16903,0.05635 0.3655,-0.05635 0.53454,0 0.0598,0.01992 0.0739,0.113716 0.13363,0.133636 0.12027,0.04009 0.28063,-0.04009 0.4009,0 0.0945,0.0315 0.17278,0.102137 0.26727,0.133636 0.0845,0.02817 0.18276,-0.02817 0.26728,0 0.0945,0.0315 0.17277,0.102134 0.26726,0.133633 0.10757,0.03585 0.44915,-0.0427 0.53454,0 0.33027,0.165134 -0.0461,0.133636 0.26727,0.133636 0.063,0 0.66212,-0.0061 0.66818,0 0.0315,0.0315 -0.0315,0.102137 0,0.133633 0.0322,0.03216 0.50238,-0.03216 0.53453,0 0.0315,0.0315 -0.0315,0.102137 0,0.133635 0.0273,0.02732 0.34792,-0.02649 0.40091,0 0.0563,0.02817 0.0773,0.105463 0.13363,0.133636 0.0843,0.04215 0.58387,-0.04215 0.66818,0 0.0563,0.02817 0.0773,0.10546 0.13363,0.133633 0.10691,0.05345 0.294,-0.05345 0.40091,0 0.0563,0.02817 0.0773,0.105463 0.13363,0.133636 0.10691,0.05345 0.294,-0.05345 0.40091,0 0.0563,0.02817 0.0773,0.105463 0.13363,0.133636 0.0812,0.04057 0.72066,-0.04057 0.80181,0 0.0563,0.02817 0.0773,0.10546 0.13363,0.133633 0.0399,0.01992 0.0891,0 0.13364,0 0.22272,0 0.44545,0 0.66817,0 0.0446,0 0.0891,0 0.13364,0 0.0445,0 0.0938,-0.01992 0.13363,0 0.0564,0.02817 0.0773,0.105463 0.13364,0.133636 0.0483,0.02416 0.57522,0 0.66817,0 0.0947,0 0.76726,0.01728 0.80181,0 0.0563,-0.02817 0.0773,-0.105463 0.13363,-0.133636 0.0811,-0.04057 0.72067,0.04057 0.80181,0 0.0564,-0.02817 0.0773,-0.10546 0.13364,-0.133633 0.0811,-0.04057 0.72066,0.04057 0.80181,0 0.0563,-0.02817 0.0773,-0.105463 0.13363,-0.133636 0.0797,-0.03984 0.18759,0.03984 0.26727,0 0.0563,-0.02817 0.0739,-0.113713 0.13364,-0.133636 0.0845,-0.02817 0.17817,0 0.26726,0 0.0446,0 0.0938,0.01992 0.13364,0 0.0564,-0.02817 0.0773,-0.10546 0.13363,-0.133633 0.0797,-0.03984 0.18276,0.02817 0.26727,0 0.0945,-0.0315 0.17278,-0.102137 0.26727,-0.133636 0.12678,-0.04226 0.27126,0.03241 0.40091,0 0.0966,-0.02416 0.17277,-0.102137 0.26727,-0.133635 0.12677,-0.04226 0.27126,0.03241 0.4009,0 0.0966,-0.02416 0.17278,-0.102135 0.26727,-0.133633 0.0423,-0.01408 0.0914,0.01408 0.13364,0 0.0945,-0.0315 0.17063,-0.109477 0.26727,-0.133636 0.0864,-0.02162 0.18275,0.02817 0.26726,0 0.0598,-0.01992 0.0739,-0.113713 0.13364,-0.133633 0.0845,-0.02817 0.18084,0.02162 0.26727,0 0.0966,-0.02416 0.17064,-0.109477 0.26727,-0.133636 0.0864,-0.02162 0.18084,0.02162 0.26727,0 0.0966,-0.02416 0.1696,-0.114102 0.26727,-0.133636 0.13104,-0.02622 0.26986,0.02622 0.4009,0 0.0977,-0.01953 0.17064,-0.109476 0.26727,-0.133633 0.0864,-0.02162 0.18084,0.02162 0.26727,0 0.0966,-0.02416 0.17479,-0.09664 0.26727,-0.133636 0.13079,-0.05232 0.27012,-0.08132 0.4009,-0.133635 0.0925,-0.03699 0.17064,-0.109477 0.26728,-0.133633 0.9519,-0.237977 -0.67704,0.404447 0.66817,-0.133636 0.0925,-0.03699 0.17478,-0.09664 0.26727,-0.133633 0.13079,-0.05232 0.27011,-0.08132 0.4009,-0.133636 0.35636,-0.142544 0.22496,-0.178628 0.66818,-0.267269 0.0874,-0.01746 0.18084,0.02162 0.26726,0 0.0966,-0.02416 0.17819,-0.08909 0.26728,-0.133636 0.0891,-0.04454 0.17817,-0.08909 0.26726,-0.133635 0.17818,-0.08909 0.34958,-0.193284 0.53454,-0.267269 0.13079,-0.05232 0.27012,-0.08132 0.40091,-0.133633 0.18496,-0.07399 0.35636,-0.178181 0.53454,-0.267272 0.17818,-0.08909 0.36878,-0.156765 0.53454,-0.267269 0.0524,-0.03494 0.0739,-0.113712 0.13363,-0.133635 0.0845,-0.02817 0.18275,0.02817 0.26727,0 0.0598,-0.01992 0.0812,-0.09869 0.13364,-0.133634 -0.0152,-0.253161 0.31181,-0.08909 0.4009,-0.133635 0.0563,-0.02817 0.0739,-0.113713 0.13363,-0.133633 0.0845,-0.02817 0.18276,0.02817 0.26727,0 0.0598,-0.01992 0.0773,-0.105463 0.13364,-0.133636 0.0398,-0.01992 0.0938,0.01992 0.13363,0 0.0564,-0.02817 0.0739,-0.113713 0.13364,-0.133636 0.0845,-0.02817 0.18275,0.02817 0.26727,0 0.0598,-0.01992 0.0739,-0.113713 0.13363,-0.133633 0.0845,-0.02817 0.18275,0.02817 0.26727,0 0.11953,-0.03984 0.15458,-0.210926 0.26727,-0.267271 0.0797,-0.03984 0.18759,0.03984 0.26727,0 0.0564,-0.02817 0.0773,-0.105461 0.13364,-0.133634 0.0398,-0.01992 0.0938,0.01992 0.13363,0 0.0563,-0.02817 0.0773,-0.105463 0.13363,-0.133635 0.0399,-0.01992 0.0938,0.01992 0.13364,0 0.0563,-0.02817 0.0773,-0.105463 0.13363,-0.133633 0.0399,-0.01992 0.10214,0.0315 0.13364,0 0.0315,-0.0315 -0.0315,-0.102138 0,-0.133636 0.0315,-0.0315 0.0938,0.01992 0.13363,0 0.0564,-0.02817 0.0773,-0.105463 0.13364,-0.133636 0.0398,-0.01992 0.10214,0.0315 0.13363,0 0.0315,-0.0315 -0.0315,-0.102137 0,-0.133633 0.0315,-0.0315 0.10214,0.0315 0.13364,0 0.0315,-0.0315 -0.0315,-0.102137 0,-0.133636 0.0315,-0.0315 0.10213,0.0315 0.13363,0 0.0315,-0.0315 -0.0315,-0.102137 0,-0.133636 0.0315,-0.0315 0.10214,0.0315 0.13364,0 0.27649,-0.276494 -0.42252,0.01082 0.13363,-0.267268 0.0398,-0.01992 0.10214,0.0315 0.13364,0 0.0315,-0.0315 -0.0199,-0.09379 0,-0.133633 0.0563,-0.112692 0.21092,-0.154581 0.26727,-0.267272 0.0199,-0.03984 -0.0199,-0.09379 0,-0.133633 0.0802,-0.160364 0.32072,-0.240543 0.4009,-0.400905 0.0199,-0.03984 -0.0199,-0.09379 0,-0.133635 0.0282,-0.05635 0.0891,-0.08909 0.13364,-0.133636 0.0445,-0.04454 0.0773,-0.10546 0.13363,-0.133633 0.0398,-0.01992 0.10214,0.0315 0.13364,0 0.0315,-0.0315 -0.0199,-0.09379 0,-0.133636 0.0282,-0.05635 0.0987,-0.08122 0.13363,-0.133633 0.29442,-0.0673 0.0706,-0.274913 0.13363,-0.400905 0.0563,-0.112691 0.21093,-0.15458 0.26727,-0.267271 0.0199,-0.03984 -0.0199,-0.09379 0,-0.133633 0.0282,-0.05635 0.11372,-0.07387 0.13364,-0.133636 0.0282,-0.08452 -0.0282,-0.18275 0,-0.267269 0.0199,-0.05976 0.10546,-0.07729 0.13363,-0.133636 0.0199,-0.03984 -0.0141,-0.09137 0,-0.133633 0.0315,-0.0945 0.10214,-0.172775 0.13364,-0.267271 0.0401,-0.120269 -0.0401,-0.280633 0,-0.400902 0.0199,-0.05976 0.11371,-0.07387 0.13363,-0.133636 0.0282,-0.08452 -0.0282,-0.18275 0,-0.267269 0.0199,-0.05976 0.11372,-0.07387 0.13364,-0.133636 0.0282,-0.08452 -0.0282,-0.18275 0,-0.267268 0.0199,-0.05976 0.0891,-0.08909 0.13363,-0.133636 0.0446,-0.08909 0.10948,-0.170638 0.13364,-0.267269 0.0432,-0.17286 -0.0564,-0.365503 0,-0.53454 0.0199,-0.05976 0.11371,-0.07387 0.13363,-0.133633 0.0668,-0.200454 -0.0668,-0.467723 0,-0.668174 0.0199,-0.05976 0.11372,-0.07387 0.13364,-0.133636 0.0229,-0.06884 0,-0.79408 0,-0.935442 0,-0.222726 0,-0.44545 0,-0.668176 0,-0.04454 0,-0.08909 0,-0.133633 0,-0.04454 0.0199,-0.09379 0,-0.133636 -0.0282,-0.05635 -0.10547,-0.07729 -0.13364,-0.133633 -0.0265,-0.05298 0.0273,-0.373586 0,-0.400905 -0.0315,-0.0315 -0.10214,0.0315 -0.13363,0 -0.0273,-0.02732 0.0265,-0.347919 0,-0.400904 -0.0282,-0.05635 -0.10546,-0.07729 -0.13364,-0.133636 -0.0199,-0.03984 0.0199,-0.09379 0,-0.133633 -0.0282,-0.05635 -0.0891,-0.08909 -0.13363,-0.133636 -0.0446,-0.04454 -0.0773,-0.105463 -0.13364,-0.133636 -0.0398,-0.01992 -0.10213,0.0315 -0.13363,0 -0.0315,-0.0315 0.0199,-0.09379 0,-0.133633 -0.0128,-0.02558 -0.50896,-0.52175 -0.53454,-0.53454 -0.0398,-0.01992 -0.10214,0.0315 -0.13364,0 -0.0315,-0.0315 0.0315,-0.102137 0,-0.133633 -0.063,-0.063 -0.20427,0.063 -0.26726,0 -0.0315,-0.0315 0.0315,-0.102137 0,-0.133636 -0.0315,-0.0315 -0.0938,0.01992 -0.13364,0 -0.0564,-0.02817 -0.0773,-0.105463 -0.13363,-0.133636 -0.0399,-0.01992 -0.0938,0.01992 -0.13364,0 -0.0563,-0.02817 -0.0773,-0.10546 -0.13363,-0.133633 -0.0399,-0.01992 -0.10214,0.0315 -0.13364,0 -0.0315,-0.0315 0.0315,-0.102137 0,-0.133635 -0.063,-0.063 -0.20427,0.063 -0.26727,0 -0.0315,-0.0315 0.0315,-0.102138 0,-0.133636 -0.0315,-0.0315 -0.0938,0.01992 -0.13363,0 -0.0564,-0.02817 -0.0773,-0.10546 -0.13364,-0.133633 -0.0398,-0.01992 -0.10214,0.0315 -0.13363,0 -0.0315,-0.0315 0.0315,-0.102137 0,-0.133636 -0.0315,-0.0315 -0.0938,0.01992 -0.13364,0 -0.0563,-0.02817 -0.0773,-0.10546 -0.13363,-0.133633 -0.0797,-0.03984 -0.20427,0.06299 -0.26727,0 -0.0315,-0.0315 0.0315,-0.102137 0,-0.133636 -0.0668,-0.06682 -0.33409,0.06682 -0.40091,0 -0.0315,-0.0315 0.0315,-0.102137 0,-0.133636 -0.0273,-0.02732 -0.34792,0.02649 -0.4009,0 -0.0563,-0.02817 -0.0773,-0.10546 -0.13363,-0.133633 -0.053,-0.02649 -0.37359,0.02732 -0.40091,0 -0.0315,-0.0315 0.0315,-0.102137 0,-0.133636 -0.063,-0.06299 -0.22743,0.07968 -0.26727,0 -0.0821,-0.164274 -0.0891,-0.356359 -0.13363,-0.534537 z"
       id="path3879"
       inkscape:connector-curvature="0" />
    <path
       style="fill:none;stroke:#000000;stroke-width:0.26458332px;stroke-linecap:butt;stroke-linejoin:miter;stroke-opacity:1"
       d="m 159.02537,94.259481 c -1.05917,-0.765432 -2.12334,-1.616356 -3.34087,-2.138156 -1.12997,-0.484272 0.1476,0.07031 -0.66817,-0.133633 -0.0966,-0.02416 -0.17064,-0.109477 -0.26728,-0.133636 -0.0864,-0.02162 -0.17991,0.01746 -0.26727,0 -0.13812,-0.02763 -0.26277,-0.106008 -0.4009,-0.133636 -0.0874,-0.01746 -0.17991,0.01746 -0.26727,0 -0.13813,-0.02763 -0.26277,-0.106008 -0.4009,-0.133633 -0.24746,-0.04949 -0.68799,0.04949 -0.93545,0 -0.13812,-0.02763 -0.26277,-0.106011 -0.4009,-0.133636 -0.0874,-0.01746 -0.17818,0 -0.26727,0 -0.17818,0 -0.35636,0 -0.53454,0 -0.0891,0 -0.17991,0.01746 -0.26727,0 -0.13813,-0.02763 -0.26277,-0.106008 -0.4009,-0.133633 -0.0722,-0.01445 -0.73516,-0.01667 -0.80181,0 -0.0966,0.02416 -0.17064,0.109477 -0.26727,0.133633 -0.0864,0.02162 -0.17818,0 -0.26727,0 -0.26727,0 -0.53454,0 -0.80181,0 -0.0445,0 -0.0914,-0.01408 -0.13363,0 -0.0945,0.0315 -0.17064,0.109477 -0.26727,0.133636 -0.0864,0.02162 -0.17818,0 -0.26727,0 -0.0891,0 -0.17818,0 -0.26727,0 -0.0446,0 -0.0914,-0.01408 -0.13364,0 -0.75713,0.378566 0.19921,-0.0498 -0.53454,0.133633 -0.0966,0.02416 -0.17064,0.109477 -0.26727,0.133636 -0.0864,0.02162 -0.18084,-0.02162 -0.26727,0 -0.0966,0.02416 -0.17277,0.102137 -0.26726,0.133636 -0.0423,0.01408 -0.0914,-0.01408 -0.13364,0 -0.0945,0.0315 -0.17818,0.08909 -0.26727,0.133633 -0.0891,0.04454 -0.18439,0.07838 -0.26727,0.133635 -0.0524,0.03494 -0.0739,0.113713 -0.13363,0.133636 -0.0845,0.02817 -0.19315,-0.04942 -0.26727,0 -0.0829,0.05525 -0.0632,0.196837 -0.13364,0.267269 -0.0704,0.07043 -0.18439,0.07838 -0.26727,0.133633 -0.0524,0.03495 -0.0812,0.09869 -0.13363,0.133636 -0.0829,0.05525 -0.1844,0.07838 -0.26727,0.133636 -0.0524,0.03494 -0.0891,0.08909 -0.13364,0.133633 -0.0856,0.08558 -0.40948,0.451167 -0.53453,0.53454 -0.0829,0.05525 -0.1844,0.07838 -0.26728,0.133633 -0.10483,0.06989 -0.16243,0.197382 -0.26726,0.267272 -0.0829,0.05525 -0.1844,0.07838 -0.26727,0.133633 -0.10483,0.06989 -0.17818,0.178181 -0.26727,0.267271 -0.13364,0.133633 -0.26727,0.267269 -0.40091,0.400902 -0.10438,0.104381 -0.32403,0.285592 -0.4009,0.400905 -0.0553,0.08288 -0.0784,0.184393 -0.13364,0.267271 -0.10279,0.154194 -0.29811,0.246708 -0.4009,0.400902 -0.29442,0.0673 -0.0706,0.274913 -0.13364,0.400905 -0.0282,0.05635 -0.0987,0.08122 -0.13363,0.133636 -0.0553,0.08288 -0.0784,0.184393 -0.13363,0.267269 -0.035,0.05242 -0.10547,0.07729 -0.13364,0.133635 -0.0199,0.03984 0.0199,0.09379 0,0.133633 -0.0282,0.05635 -0.0987,0.08122 -0.13364,0.133636 -0.0553,0.08288 -0.0784,0.184394 -0.13363,0.267269 -0.0349,0.05242 -0.10546,0.07729 -0.13363,0.133636 -0.0199,0.03984 0.0199,0.09379 0,0.133635 -0.0282,0.05635 -0.11372,0.07387 -0.13364,0.133634 -0.0282,0.08452 0.0282,0.182753 0,0.267271 -0.0398,0.119526 -0.22743,0.147741 -0.26727,0.267269 -0.0282,0.08452 0.0216,0.18084 0,0.267269 -0.0242,0.09663 -0.10214,0.172775 -0.13363,0.267269 -0.0141,0.04226 0.0141,0.09138 0,0.133635 -0.0315,0.09449 -0.10214,0.172776 -0.13364,0.267269 -0.0423,0.126778 0.0324,0.271259 0,0.400905 -0.0241,0.09663 -0.10214,0.172775 -0.13363,0.267273 -0.0241,0.0723 0,0.48901 0,0.53454 0,0.26726 0,0.53453 0,0.80181 0,0.4009 0,0.8018 0,1.20271 0,0.13363 -0.0423,0.27412 0,0.4009 0.0199,0.0598 0.11371,0.0739 0.13363,0.13364 0.0564,0.16903 -0.0563,0.3655 0,0.53453 0.0199,0.0598 0.11371,0.0739 0.13364,0.13364 0.0563,0.16904 -0.0432,0.36168 0,0.53454 0.0242,0.0966 0.10213,0.17277 0.13363,0.26727 0.0141,0.0423 -0.0141,0.0914 0,0.13363 0.0315,0.0945 0.10948,0.17064 0.13364,0.26727 0.0324,0.12965 -0.0423,0.27413 0,0.40091 0.0315,0.0945 0.10213,0.17277 0.13363,0.26727 0.0141,0.0423 -0.0141,0.0914 0,0.13363 0.063,0.18899 0.20427,0.34555 0.26727,0.53454 0.0141,0.0423 -0.0141,0.0914 0,0.13363 0.0315,0.0945 0.10214,0.17278 0.13363,0.26728 0.0141,0.0422 -0.0141,0.0914 0,0.13363 0.0315,0.0945 0.10214,0.17277 0.13364,0.26727 0.0141,0.0423 -0.0141,0.0914 0,0.13363 0.0315,0.0945 0.10948,0.17064 0.13364,0.26727 0.0216,0.0864 -0.0282,0.18276 0,0.26727 0.0199,0.0598 0.0891,0.0891 0.13363,0.13364 0.0445,0.0891 0.10948,0.17063 0.13363,0.26727 0.0216,0.0864 -0.0282,0.18275 0,0.26727 0.0199,0.0598 0.0987,0.0812 0.13364,0.13363 0.29442,0.0673 0.0706,0.27491 0.13363,0.4009 0.0282,0.0563 0.10547,0.0773 0.13364,0.13364 0.0199,0.0398 -0.0141,0.0914 0,0.13364 0.0315,0.0945 0.10214,0.17277 0.13363,0.26727 0.0141,0.0423 -0.0199,0.0938 0,0.13363 0.0564,0.11269 0.21093,0.15458 0.26727,0.26727 0.0922,0.18433 -0.16184,0.11953 0.13364,0.26727 0.0398,0.0199 0.0938,-0.0199 0.13363,0 0.29548,0.14774 0.0415,0.0829 0.13364,0.26727 0.0282,0.0563 0.0891,0.0891 0.13363,0.13363 0.13364,0.13364 0.26727,0.26727 0.40091,0.40091 0.0445,0.0445 0.0987,0.0812 0.13363,0.13363 0.0553,0.0829 0.0784,0.18439 0.13364,0.26727 0.0699,0.10483 0.21092,0.15458 0.26726,0.26727 0.0199,0.0398 -0.0315,0.10214 0,0.13363 0.0315,0.0315 0.0938,-0.0199 0.13364,0 0.1315,0.0658 0.40304,0.4688 0.53454,0.53454 0.0398,0.0199 0.0938,-0.0199 0.13363,0 0.16036,0.0802 0.24055,0.32073 0.40091,0.40091 0.0398,0.0199 0.0938,-0.0199 0.13363,0 0.11269,0.0563 0.14775,0.22743 0.26727,0.26727 0.0845,0.0282 0.18275,-0.0282 0.26727,0 0.0598,0.0199 0.0739,0.11371 0.13364,0.13363 0.0845,0.0282 0.18275,-0.0282 0.26727,0 0.0598,0.0199 0.0812,0.0987 0.13363,0.13364 0.0829,0.0553 0.17278,0.10213 0.26727,0.13363 0.0423,0.0141 0.0914,-0.0141 0.13364,0 0.0945,0.0315 0.17277,0.10214 0.26726,0.13364 0.0423,0.0141 0.0914,-0.0141 0.13364,0 0.0945,0.0315 0.17277,0.10214 0.26727,0.13363 0.12027,0.0401 0.28063,-0.0401 0.4009,0 0.0598,0.0199 0.0739,0.11372 0.13364,0.13364 0.0845,0.0282 0.18275,-0.0282 0.26727,0 0.0598,0.0199 0.0739,0.11371 0.13363,0.13363 0.0845,0.0282 0.18275,-0.0282 0.26727,0 0.0598,0.0199 0.0739,0.11372 0.13364,0.13364 0.0845,0.0282 0.18084,-0.0216 0.26727,0 0.0966,0.0242 0.17277,0.10213 0.26727,0.13363 0.50201,0.16734 -0.47762,-0.29284 0.4009,0 0.0598,0.0199 0.0739,0.11371 0.13363,0.13363 0.12028,0.0401 0.28064,-0.0401 0.40091,0 0.0945,0.0315 0.17277,0.10214 0.26727,0.13364 0.0423,0.0141 0.0938,-0.0199 0.13363,0 0.0564,0.0282 0.0739,0.11371 0.13364,0.13364 0.0611,0.0204 0.47507,-0.0297 0.53454,0 0.0563,0.0282 0.0739,0.11371 0.13363,0.13363 0.142,0.0473 0.39254,-0.0473 0.53454,0 0.0945,0.0315 0.17278,0.10214 0.26727,0.13364 0.0845,0.0282 0.18275,-0.0282 0.26727,0 0.0945,0.0315 0.17278,0.10213 0.26727,0.13363 0.0723,0.0241 0.48901,0 0.53454,0 0.26727,0 0.53454,0 0.80181,0 0.0602,0 0.36023,-0.0203 0.4009,0 0.0563,0.0282 0.0773,0.10546 0.13364,0.13363 0.0398,0.0199 0.0891,0 0.13363,0 0.0891,0 0.18275,0.0282 0.26727,0 0.0598,-0.0199 0.0773,-0.10546 0.13363,-0.13363 0.0487,-0.0243 0.59118,0 0.66818,0 0.15524,0 0.54703,0.0303 0.66817,0 0.0966,-0.0242 0.17278,-0.10214 0.26727,-0.13363 0.12678,-0.0423 0.27126,0.0324 0.40091,0 0.0966,-0.0242 0.17064,-0.10948 0.26727,-0.13364 0.17286,-0.0432 0.36168,0.0432 0.53453,0 0.0966,-0.0242 0.17064,-0.10948 0.26728,-0.13363 0.0864,-0.0216 0.18083,0.0216 0.26726,0 0.0966,-0.0242 0.17064,-0.10948 0.26727,-0.13364 0.95191,-0.23798 -0.67703,0.40445 0.66818,-0.13364 0.18496,-0.074 0.34127,-0.21895 0.53454,-0.26726 0.0864,-0.0216 0.18084,0.0216 0.26727,0 0.19326,-0.0483 0.34555,-0.20428 0.53453,-0.26727 0.0423,-0.0141 0.0914,0.0141 0.13364,0 0.18899,-0.063 0.34127,-0.21896 0.53454,-0.26727 0.0864,-0.0216 0.18084,0.0216 0.26727,0 0.0966,-0.0242 0.17818,-0.0891 0.26727,-0.13364 0.0891,-0.0445 0.17818,-0.0891 0.26727,-0.13363 0.17818,-0.0891 0.35636,-0.17818 0.53454,-0.26727 0.0891,-0.0446 0.18439,-0.0784 0.26727,-0.13364 0.0524,-0.0349 0.0812,-0.0987 0.13363,-0.13363 0.16575,-0.1105 0.36879,-0.15677 0.53454,-0.26727 0.19664,-0.13109 0.3379,-0.40345 0.53454,-0.53454 0.0829,-0.0553 0.19684,-0.0632 0.26727,-0.13364 0.0704,-0.0704 0.0632,-0.19683 0.13363,-0.26726 0.0704,-0.0704 0.18439,-0.0784 0.26727,-0.13364 0.0524,-0.0349 0.0812,-0.0987 0.13364,-0.13363 0.0829,-0.0553 0.18439,-0.0784 0.26727,-0.13364 0.10483,-0.0699 0.16244,-0.19738 0.26727,-0.26727 0.0829,-0.0553 0.18439,-0.0784 0.26727,-0.13363 0.0556,-0.0371 0.51064,-0.48675 0.53454,-0.53454 0.0199,-0.0399 -0.0141,-0.0914 0,-0.13364 0.32265,-0.96797 -0.0385,0.21069 0.26726,-0.4009 0.0199,-0.0398 -0.0199,-0.0938 0,-0.13363 0.0282,-0.0563 0.0987,-0.0812 0.13364,-0.13364 0.29442,-0.0673 0.0706,-0.27491 0.13363,-0.40091 0.0282,-0.0563 0.11372,-0.0739 0.13364,-0.13363 0.0282,-0.0845 -0.0282,-0.18275 0,-0.26727 0.0398,-0.11953 0.22743,-0.14774 0.26727,-0.26727 0.0282,-0.0845 0,-0.17818 0,-0.26727 0,-0.0445 -0.0199,-0.0938 0,-0.13363 0.0282,-0.0564 0.0891,-0.0891 0.13363,-0.13364 0,-0.0891 -0.0282,-0.18275 0,-0.26727 0.0199,-0.0598 0.11372,-0.0739 0.13364,-0.13363 0.0423,-0.12678 -0.0423,-0.27413 0,-0.40091 0.0315,-0.0945 0.10213,-0.17277 0.13363,-0.26726 0.0401,-0.12028 -0.0401,-0.28064 0,-0.40091 0.0199,-0.0598 0.11372,-0.0739 0.13364,-0.13363 0.0282,-0.0845 0,-0.17818 0,-0.26727 0,-0.11191 -0.0254,-0.56655 0,-0.66818 0.0242,-0.0966 0.10214,-0.17277 0.13363,-0.26727 0.0258,-0.0774 0,-0.41873 0,-0.53454 0,-0.0455 0.0241,-0.46221 0,-0.53454 -0.0315,-0.0945 -0.10213,-0.17277 -0.13363,-0.26727 -0.0401,-0.12027 0.0401,-0.28063 0,-0.4009 -0.0199,-0.0598 -0.11372,-0.0739 -0.13364,-0.13363 -0.0401,-0.12027 0.0401,-0.28064 0,-0.40091 -0.0315,-0.0945 -0.10213,-0.17277 -0.13363,-0.26727 -0.0473,-0.142 0.0473,-0.39254 0,-0.53454 -0.0315,-0.0945 -0.10214,-0.17277 -0.13364,-0.26727 -0.0282,-0.0845 0.0398,-0.18758 0,-0.26726 -0.0282,-0.0563 -0.10546,-0.0773 -0.13363,-0.13364 -0.0199,-0.0398 0.0199,-0.0938 0,-0.13364 -0.0282,-0.0563 -0.10546,-0.0773 -0.13364,-0.13363 -0.0398,-0.0797 0.0282,-0.18275 0,-0.26727 -0.32265,-0.967971 0.0385,0.21069 -0.26727,-0.4009 -0.0199,-0.0399 0.0199,-0.0938 0,-0.13364 -0.0563,-0.11269 -0.21092,-0.154579 -0.26727,-0.267267 -0.0199,-0.03984 0.0199,-0.0938 0,-0.133636 -0.30579,-0.611595 0.0554,0.567073 -0.26726,-0.400905 -0.0141,-0.04226 0.0199,-0.09379 0,-0.133633 -0.0564,-0.112691 -0.21093,-0.15458 -0.26727,-0.267271 -0.0199,-0.03984 0.0199,-0.09379 0,-0.133633 -0.0178,-0.03548 -0.36543,-0.383165 -0.40091,-0.400905 -0.0398,-0.01992 -0.0938,0.01992 -0.13363,0 -0.11269,-0.05635 -0.15458,-0.210926 -0.26727,-0.267269 -0.0398,-0.01992 -0.0938,0.01992 -0.13364,0 -0.16036,-0.08018 -0.24054,-0.320725 -0.4009,-0.400905 -0.0398,-0.01992 -0.0938,0.01992 -0.13364,0 -0.16036,-0.08018 -0.24054,-0.320725 -0.4009,-0.400904 -0.18433,-0.09217 -0.11953,0.161838 -0.26727,-0.133636 -0.0199,-0.03984 0.0315,-0.102137 0,-0.133636 -0.0315,-0.0315 -0.0938,0.01992 -0.13364,0 -0.11269,-0.05634 -0.15458,-0.210923 -0.26726,-0.267268 -0.0399,-0.01992 -0.0938,0.01992 -0.13364,0 -0.11269,-0.05635 -0.15458,-0.210924 -0.26727,-0.267269 -0.0398,-0.01992 -0.10214,0.0315 -0.13363,0 -0.0315,-0.0315 0.0315,-0.102137 0,-0.133636 -0.0315,-0.0315 -0.0938,0.01992 -0.13364,0 -0.11269,-0.05635 -0.15458,-0.210923 -0.26727,-0.267269 -0.0398,-0.01992 -0.0938,0.01992 -0.13363,0 -0.0564,-0.02817 -0.0773,-0.105463 -0.13364,-0.133636 -0.0398,-0.01992 -0.10213,0.0315 -0.13363,0 -0.0315,-0.0315 0.0315,-0.102134 0,-0.133633 -0.0315,-0.0315 -0.0938,0.01992 -0.13364,0 -0.0563,-0.02817 -0.0773,-0.105463 -0.13363,-0.133636 -0.0398,-0.01992 -0.0938,0.01992 -0.13364,0 -0.0563,-0.02817 -0.0773,-0.10546 -0.13363,-0.133633 -0.0398,-0.01992 -0.10214,0.0315 -0.13364,0 -0.0315,-0.0315 0.0315,-0.102137 0,-0.133635 -0.0315,-0.0315 -0.10213,0.0315 -0.13363,0 -0.0315,-0.0315 0.0315,-0.102137 0,-0.133636 -0.063,-0.063 -0.20427,0.063 -0.26727,0 -0.0315,-0.0315 0.0315,-0.102137 0,-0.133633 -0.063,-0.063 -0.20427,0.06299 -0.26727,0 -0.0315,-0.0315 0.0315,-0.102137 0,-0.133636 -0.0315,-0.0315 -0.0938,0.01992 -0.13364,0 -0.0563,-0.02817 -0.0773,-0.105463 -0.13363,-0.133636 -0.0398,-0.01992 -0.10214,0.0315 -0.13364,0 -0.0315,-0.0315 0.0315,-0.102134 0,-0.133633 -0.0315,-0.0315 -0.0938,0.01992 -0.13363,0 -0.0563,-0.02817 -0.0844,-0.09428 -0.13363,-0.133636 -0.17392,-0.139133 -0.35636,-0.267268 -0.53454,-0.400904 z"
       id="path3881"
       inkscape:connector-curvature="0" />
    <path
       style="fill:none;stroke:#000000;stroke-width:0.26458332px;stroke-linecap:butt;stroke-linejoin:miter;stroke-opacity:1"
       d="m 129.75935,92.923134 c -0.66817,-0.356359 -1.31513,-0.755719 -2.00452,-1.069078 -0.29522,-0.134194 -0.62779,-0.164719 -0.93544,-0.267269 -0.53454,-0.178181 0.027,-0.12823 -0.66817,-0.267269 -0.0874,-0.01746 -0.18084,0.02162 -0.26727,0 -0.0966,-0.02416 -0.17064,-0.109479 -0.26727,-0.133636 -0.0864,-0.02162 -0.18276,0.02817 -0.26727,0 -0.0598,-0.01992 -0.0891,-0.08909 -0.13364,-0.133635 -0.0891,-0.04455 -0.17063,-0.109477 -0.26727,-0.133633 -0.0864,-0.02162 -0.18084,0.02162 -0.26727,0 -0.19326,-0.04832 -0.34127,-0.218956 -0.53454,-0.267272 -0.0864,-0.02162 -0.18084,0.02162 -0.26726,0 -0.0966,-0.02416 -0.17819,-0.08909 -0.26728,-0.133633 -0.0891,-0.04454 -0.17817,-0.08909 -0.26726,-0.133636 -0.26727,-0.133636 -0.53454,-0.267269 -0.80181,-0.400904 -0.0891,-0.04455 -0.17479,-0.09664 -0.26727,-0.133633 -0.82567,-0.330267 -0.0414,0.04613 -0.66818,-0.267272 -0.0891,-0.04454 -0.17818,-0.08909 -0.26726,-0.133633 -0.0891,-0.04454 -0.17065,-0.109477 -0.26728,-0.133636 -0.0864,-0.02162 -0.18084,0.02162 -0.26727,0 -0.0966,-0.02416 -0.17817,-0.08909 -0.26726,-0.133636 -0.0891,-0.04454 -0.17819,-0.08909 -0.26727,-0.133633 -0.26727,-0.133635 -0.53454,-0.267269 -0.80181,-0.400904 -0.17818,-0.08909 -0.34958,-0.193284 -0.53454,-0.267269 -0.13079,-0.05232 -0.27012,-0.08132 -0.40091,-0.133636 -0.0925,-0.03699 -0.16959,-0.114101 -0.26727,-0.133636 -0.13104,-0.02622 -0.26986,0.02622 -0.4009,0 -0.0991,-0.01982 -0.67745,-0.338722 -0.80181,-0.400902 -0.26727,-0.133635 -0.53454,-0.267271 -0.80181,-0.400904 -0.17818,-0.08909 -0.34957,-0.193286 -0.53454,-0.267272 -0.13079,-0.05231 -0.27011,-0.08132 -0.4009,-0.133633 -0.0925,-0.03699 -0.17064,-0.109476 -0.26727,-0.133636 -0.0864,-0.02162 -0.18084,0.02162 -0.26727,0 -0.19326,-0.04832 -0.34127,-0.218953 -0.53454,-0.267268 -0.0864,-0.02162 -0.18084,0.02162 -0.26727,0 -0.19326,-0.04832 -0.34555,-0.204275 -0.53454,-0.267269 -0.0423,-0.01408 -0.0914,0.01408 -0.13363,0 -0.18899,-0.063 -0.34128,-0.218956 -0.53454,-0.267272 -0.0864,-0.02162 -0.18084,0.02162 -0.26727,0 -0.19326,-0.04832 -0.34128,-0.218953 -0.53454,-0.267269 -0.17286,-0.04321 -0.3655,0.05635 -0.53454,0 -0.0598,-0.01992 -0.0739,-0.113712 -0.13363,-0.133633 -0.0845,-0.02817 -0.18084,0.02162 -0.26727,0 -0.0966,-0.02416 -0.17064,-0.109479 -0.26727,-0.133635 -0.23203,-0.058 -0.56979,0.058 -0.80181,0 -0.0966,-0.02416 -0.17064,-0.109477 -0.26727,-0.133636 -0.0864,-0.02162 -0.17818,0 -0.26727,0 -0.13363,0 -0.26727,0 -0.4009,0 -0.0891,0 -0.18084,0.02162 -0.26727,0 -0.0966,-0.02416 -0.1696,-0.114099 -0.26727,-0.133633 -0.13104,-0.02622 -0.26727,0 -0.40091,0 -0.0891,0 -0.18084,-0.02162 -0.26727,0 -0.0966,0.02416 -0.17064,0.109476 -0.26727,0.133633 -0.0864,0.02162 -0.17818,0 -0.26727,0 -0.22272,0 -0.44545,0 -0.66817,0 -0.35636,0 -0.71272,0 -1.06908,0 -0.0891,0 -0.17991,-0.01746 -0.26727,0 -0.13813,0.02763 -0.26277,0.10601 -0.4009,0.133636 -0.24746,0.04949 -0.68799,-0.04949 -0.93545,0 -0.13812,0.02763 -0.26195,0.110476 -0.4009,0.133635 -0.13182,0.02196 -0.26986,-0.02622 -0.4009,0 -0.0977,0.01953 -0.1696,0.114099 -0.26727,0.133633 -0.13104,0.02622 -0.26862,-0.01889 -0.40091,0 -0.18181,0.02598 -0.35636,0.08909 -0.53454,0.133636 -0.17818,0.04454 -0.36572,0.06129 -0.53454,0.133633 -0.14762,0.06327 -0.25328,0.204005 -0.4009,0.267272 -0.16881,0.07235 -0.36573,0.06128 -0.53454,0.133633 -0.14762,0.06327 -0.25328,0.204004 -0.4009,0.267271 -0.168817,0.07235 -0.365728,0.06129 -0.534543,0.133633 -0.295246,0.126535 -0.514501,0.390888 -0.801807,0.534541 -0.125992,0.06299 -0.274912,0.07064 -0.400904,0.133633 -0.143653,0.07183 -0.257252,0.195445 -0.400905,0.267271 -0.125992,0.063 -0.280114,0.06116 -0.400904,0.133634 -0.108038,0.06482 -0.166476,0.191674 -0.267269,0.267268 -0.07968,0.05976 -0.178181,0.08909 -0.267272,0.133636 -0.08909,0.04454 -0.174786,0.09664 -0.267269,0.133636 -0.130788,0.05231 -0.280114,0.06116 -0.400904,0.133633 -0.108038,0.06482 -0.166476,0.191675 -0.267269,0.267271 -0.07968,0.05976 -0.187584,0.07387 -0.267269,0.133634 -0.100793,0.0756 -0.166476,0.191674 -0.267269,0.267268 -0.07968,0.05976 -0.187587,0.07387 -0.267271,0.133636 -0.100793,0.0756 -0.166476,0.191675 -0.267269,0.267269 -0.07968,0.05976 -0.196837,0.0632 -0.267269,0.133636 -0.07043,0.07043 -0.0632,0.196837 -0.133636,0.267269 -0.07043,0.07043 -0.196836,0.0632 -0.267269,0.133635 -0.07043,0.07043 -0.07838,0.184394 -0.133635,0.267269 -0.102796,0.154194 -0.298109,0.246711 -0.400905,0.400905 -0.05525,0.08288 -0.07838,0.184393 -0.133633,0.267269 -0.0811,0.12165 -0.341683,0.282458 -0.400905,0.400904 -0.01992,0.03984 0.01992,0.09379 0,0.133636 -0.02817,0.05635 -0.105463,0.07729 -0.133635,0.133633 -0.01992,0.03984 0.01992,0.0938 0,0.133636 -0.02817,0.05635 -0.105461,0.07729 -0.133633,0.133636 -0.01992,0.03984 0.01992,0.09379 0,0.133633 -0.02817,0.05635 -0.113716,0.07387 -0.133636,0.133635 -0.02817,0.08452 0,0.178179 0,0.267269 0,0.04455 0.01992,0.09379 0,0.133636 -0.02817,0.05635 -0.113713,0.07387 -0.133636,0.133633 -0.04009,0.120272 0.04009,0.280633 0,0.400905 -0.0315,0.0945 -0.102137,0.172775 -0.133633,0.267271 -0.04733,0.142002 0.04733,0.392536 0,0.534538 -0.01992,0.05976 -0.105463,0.07729 -0.133636,0.133636 -0.01781,0.03561 0,0.741352 0,0.801806 0,0.400905 0,0.801809 0,1.202714 0,0.115806 -0.0258,0.457129 0,0.53454 0.0315,0.09449 0.102137,0.172776 0.133636,0.267269 0.01408,0.04226 0,0.08909 0,0.133633 0,0.109408 -0.02886,0.581592 0,0.668176 0.0315,0.09449 0.102137,0.172776 0.133633,0.267269 0.01408,0.04226 -0.01408,0.09138 0,0.133636 0.0315,0.09449 0.102137,0.172773 0.133636,0.267269 0.04226,0.126778 -0.03241,0.271259 0,0.400905 0.02416,0.09663 0.102137,0.172775 0.133636,0.267268 0.01408,0.04226 -0.01408,0.09138 0,0.133636 0.0315,0.09449 0.07838,0.184391 0.133633,0.267269 0.03494,0.05241 0.113715,0.07387 0.133635,0.133633 0.02817,0.08452 -0.02817,0.182753 0,0.267272 0.01992,0.05976 0.105463,0.07729 0.133634,0.133637 0.01992,0.0398 -0.01408,0.0914 0,0.13363 0.322659,0.96797 -0.03853,-0.210689 0.267271,0.40091 0.01992,0.0398 -0.01992,0.0938 0,0.13363 0.05635,0.11269 0.210923,0.15458 0.267269,0.26727 0.01992,0.0398 -0.01992,0.0938 0,0.13363 0.02817,0.0564 0.09869,0.0812 0.133636,0.13364 0.05525,0.0829 0.07838,0.18439 0.133633,0.26727 0.06989,0.10483 0.197382,0.16244 0.267269,0.26727 0.29442,0.0673 0.07064,0.27491 0.133635,0.4009 0.02817,0.0564 0.08909,0.0891 0.133636,0.13364 0.104381,0.10438 0.324027,0.28559 0.400905,0.4009 0.05525,0.0829 0.07838,0.1844 0.133633,0.26727 0.03494,0.0524 0.08909,0.0891 0.133636,0.13364 0.04454,0.0445 0.08122,0.0987 0.133635,0.13363 0.08288,0.0553 0.184391,0.0784 0.267269,0.13364 0.104831,0.0699 0.162438,0.19738 0.267269,0.26726 0.08288,0.0553 0.184393,0.0784 0.267269,0.13364 0.05242,0.0349 0.08122,0.0987 0.133636,0.13363 0.08288,0.0553 0.184393,0.0784 0.267268,0.13364 0.05242,0.0349 0.08122,0.0987 0.133636,0.13363 0.08288,0.0553 0.184394,0.0784 0.267269,0.13364 0.05242,0.0349 0.08122,0.0987 0.133636,0.13363 0.08288,0.0553 0.184391,0.0784 0.267269,0.13364 0.154193,0.1028 0.24671,0.29811 0.400904,0.4009 0.08288,0.0553 0.184394,0.0784 0.267269,0.13364 0.05242,0.0349 0.08122,0.0987 0.133636,0.13363 0.08288,0.0553 0.184391,0.0784 0.267269,0.13364 0.05242,0.0349 0.08122,0.0987 0.133635,0.13363 0.165754,0.1105 0.35636,0.17818 0.534538,0.26727 0.267269,0.13364 0.53454,0.26727 0.801812,0.40091 0.17818,0.0891 0.35636,0.17818 0.53454,0.26726 0.0891,0.0445 0.17063,0.10948 0.26727,0.13364 0.0864,0.0216 0.18083,-0.0216 0.26727,0 0.19326,0.0483 0.34957,0.19328 0.53453,0.26727 0.13079,0.0523 0.27012,0.0813 0.40091,0.13363 0.0925,0.037 0.17479,0.0966 0.26727,0.13364 0.13079,0.0523 0.27011,0.0813 0.4009,0.13363 0.0925,0.037 0.17479,0.0966 0.26727,0.13364 0.13079,0.0523 0.27012,0.0813 0.40091,0.13363 0.0925,0.037 0.1696,0.1141 0.26727,0.13364 0.13104,0.0262 0.26861,-0.0189 0.4009,0 0.18182,0.026 0.35636,0.0891 0.53454,0.13363 0.17818,0.0446 0.36572,0.0613 0.53454,0.13364 0.14762,0.0633 0.25725,0.19544 0.4009,0.26727 0.61524,0.30762 0.17698,0.009 0.80181,0.13363 0.23398,0.0468 0.56783,0.35411 0.80181,0.40091 0.13104,0.0262 0.26986,-0.0262 0.4009,0 0.006,10e-4 0.51607,0.25987 0.53454,0.26726 0.13079,0.0523 0.26727,0.0891 0.40091,0.13364 0.13363,0.0446 0.26277,0.10601 0.4009,0.13364 0.0874,0.0175 0.17991,-0.0175 0.26727,0 0.38467,0.0769 0.68441,0.32397 1.06908,0.4009 0.0874,0.0175 0.18084,-0.0216 0.26727,0 0.0966,0.0241 0.17818,0.0891 0.26727,0.13363 0.13363,0.0446 0.26277,0.10601 0.4009,0.13364 0.0874,0.0175 0.18084,-0.0216 0.26727,0 0.19326,0.0483 0.3392,0.2282 0.53454,0.26727 0.13104,0.0262 0.26987,-0.0262 0.40091,0 0.19534,0.0391 0.34554,0.20427 0.53453,0.26727 0.0423,0.0141 0.0914,-0.0141 0.13364,0 0.18899,0.063 0.34555,0.20427 0.53454,0.26727 0.0423,0.0141 0.0914,-0.0141 0.13363,0 0.0945,0.0315 0.17064,0.10948 0.26727,0.13363 0.0864,0.0216 0.18084,-0.0216 0.26727,0 0.0966,0.0242 0.17479,0.0966 0.26727,0.13364 0.13079,0.0523 0.27012,0.0813 0.4009,0.13363 0.0925,0.037 0.17064,0.10948 0.26728,0.13364 0.0864,0.0216 0.18084,-0.0216 0.26726,0 0.19327,0.0483 0.34958,0.19328 0.53454,0.26727 0.13079,0.0523 0.27012,0.0813 0.40091,0.13363 0.0925,0.037 0.17063,0.10948 0.26727,0.13363 0.0864,0.0216 0.17991,-0.0175 0.26727,0 0.13813,0.0276 0.27011,0.0813 0.4009,0.13364 0.0925,0.037 0.1696,0.1141 0.26727,0.13364 0.13104,0.0262 0.26909,-0.022 0.40091,0 0.13894,0.0232 0.26277,0.106 0.4009,0.13363 0.0874,0.0175 0.18084,-0.0216 0.26727,0 0.0966,0.0242 0.1696,0.1141 0.26727,0.13363 0.13104,0.0262 0.26986,-0.0262 0.4009,0 0.0977,0.0195 0.17479,0.0967 0.26727,0.13364 0.96893,0.38757 -0.0457,-0.009 0.66818,0.13363 0.13812,0.0276 0.26277,0.10601 0.4009,0.13364 0.21416,0.0428 0.45402,-0.0428 0.66818,0 0.0977,0.0195 0.17063,0.10948 0.26726,0.13363 0.0864,0.0216 0.17818,0 0.26727,0 0.0891,0 0.17818,0 0.26727,0 0.53454,0 1.06908,0 1.60362,0 0.26727,0 0.53454,0 0.80181,0 0.0891,0 0.18084,0.0216 0.26727,0 0.0966,-0.0242 0.17064,-0.10947 0.26727,-0.13363 0.12964,-0.0324 0.27412,0.0423 0.4009,0 0.75713,-0.37857 -0.19921,0.0498 0.53454,-0.13364 0.0966,-0.0242 0.17064,-0.10947 0.26727,-0.13363 0.0864,-0.0216 0.18084,0.0216 0.26727,0 0.19326,-0.0483 0.34555,-0.20427 0.53454,-0.26727 0.0423,-0.0141 0.0914,0.0141 0.13363,0 0.0945,-0.0315 0.17278,-0.10214 0.26727,-0.13363 0.0423,-0.0141 0.0938,0.0199 0.13364,0 0.0563,-0.0282 0.0773,-0.10547 0.13363,-0.13364 0.0398,-0.0199 0.0914,0.0141 0.13364,0 0.96797,-0.32266 -0.21069,0.0385 0.4009,-0.26727 0.0398,-0.0199 0.0938,0.0199 0.13364,0 0.0563,-0.0282 0.0773,-0.10546 0.13363,-0.13363 0.0398,-0.0199 0.0938,0.0199 0.13364,0 0.55615,-0.27808 -0.14286,0.009 0.13363,-0.26727 0.0315,-0.0315 0.0938,0.0199 0.13363,0 0.13151,-0.0657 0.40304,-0.46879 0.53454,-0.53454 0.0399,-0.0199 0.10214,0.0315 0.13364,0 0.0315,-0.0315 -0.0315,-0.10214 0,-0.13364 0.0315,-0.0315 0.0938,0.0199 0.13363,0 0.1127,-0.0563 0.16244,-0.19738 0.26727,-0.26727 0.0673,-0.29442 0.27492,-0.0706 0.40091,-0.13363 0.0563,-0.0282 0.0891,-0.0891 0.13363,-0.13364 0.10438,-0.10438 0.28559,-0.32402 0.40091,-0.4009 0.0829,-0.0553 0.19683,-0.0632 0.26727,-0.13363 0.0315,-0.0315 -0.0199,-0.0938 0,-0.13364 0.0282,-0.0563 0.0891,-0.0891 0.13363,-0.13363 0.10438,-0.10438 0.32403,-0.2856 0.40091,-0.40091 0.29441,-0.0673 0.0706,-0.27491 0.13363,-0.4009 0.0282,-0.0563 0.0987,-0.0812 0.13364,-0.13364 0.0553,-0.0829 0.0784,-0.18439 0.13363,-0.26727 0.0699,-0.10483 0.21092,-0.15458 0.26727,-0.26727 0.0199,-0.0398 -0.0199,-0.0938 0,-0.13363 0.0282,-0.0564 0.10546,-0.0773 0.13363,-0.13364 0.0199,-0.0398 -0.0199,-0.0938 0,-0.13363 0.0282,-0.0563 0.10547,-0.0773 0.13364,-0.13364 0.0199,-0.0398 -0.0141,-0.0914 0,-0.13363 0.0315,-0.0945 0.10214,-0.17278 0.13363,-0.26727 0.0141,-0.0423 -0.0199,-0.0938 0,-0.13363 0.3058,-0.6116 -0.0554,0.56706 0.26727,-0.40091 0.0141,-0.0423 -0.0141,-0.0914 0,-0.13363 0.0315,-0.0945 0.10214,-0.17278 0.13364,-0.26727 0.0141,-0.0423 -0.0141,-0.0914 0,-0.13364 0.063,-0.18899 0.20427,-0.34555 0.26727,-0.53454 0.0141,-0.0423 -0.0141,-0.0914 0,-0.13363 0.0315,-0.0945 0.10214,-0.17278 0.13363,-0.26727 0.0282,-0.0845 -0.0282,-0.18275 0,-0.26727 0.0315,-0.0945 0.10214,-0.17278 0.13364,-0.26727 0.0141,-0.0423 -0.0141,-0.0914 0,-0.13364 0.0315,-0.0945 0.10947,-0.17063 0.13363,-0.26727 0.0455,-0.18202 -0.0539,-0.64013 0,-0.8018 0.0199,-0.0598 0.11372,-0.0739 0.13364,-0.13364 0.0282,-0.0845 0,-0.17818 0,-0.26727 0,-0.26727 0,-0.53454 0,-0.80181 0,-0.1147 0.0261,-0.72362 0,-0.80181 -0.0199,-0.0598 -0.11372,-0.0739 -0.13364,-0.13363 -0.0423,-0.12678 0,-0.26727 0,-0.4009 0,-0.31182 0,-0.623632 0,-0.935449 0,-0.08909 0.0282,-0.18275 0,-0.267269 -0.0199,-0.05976 -0.10546,-0.07729 -0.13363,-0.133633 -0.042,-0.08399 0.042,-0.450548 0,-0.53454 -0.0282,-0.05635 -0.10547,-0.07729 -0.13364,-0.133636 -0.0534,-0.106908 0.0535,-0.293994 0,-0.400902 -0.0282,-0.05635 -0.10546,-0.07729 -0.13363,-0.133636 -0.0399,-0.07968 0.0398,-0.187584 0,-0.267269 -0.0282,-0.05635 -0.10546,-0.07729 -0.13364,-0.133635 -0.0398,-0.07968 0.0399,-0.187585 0,-0.267269 -0.0282,-0.05635 -0.10546,-0.07729 -0.13363,-0.133636 -0.0199,-0.03984 0.0199,-0.09379 0,-0.133636 -0.0282,-0.05634 -0.10546,-0.07729 -0.13364,-0.133633 -0.0199,-0.03984 0.0199,-0.09379 0,-0.133635 -0.0282,-0.05635 -0.10546,-0.07729 -0.13363,-0.133634 -0.0199,-0.03984 0.0199,-0.09379 0,-0.133635 -0.0282,-0.05635 -0.10546,-0.07729 -0.13364,-0.133636 -0.0398,-0.07968 0.0399,-0.187584 0,-0.267269 -0.0282,-0.05635 -0.10546,-0.07729 -0.13363,-0.133636 -0.0199,-0.03984 0.0199,-0.09379 0,-0.133633 -0.0564,-0.112691 -0.21092,-0.15458 -0.26727,-0.267269 -0.0199,-0.03984 0.0315,-0.102137 0,-0.133635 -0.0315,-0.0315 -0.10214,0.0315 -0.13364,0 -0.0315,-0.0315 0.0199,-0.09379 0,-0.133636 -0.0282,-0.05635 -0.10546,-0.07729 -0.13363,-0.133633 -0.0199,-0.03984 0.0315,-0.102137 0,-0.133636 -0.0315,-0.0315 -0.10214,0.0315 -0.13363,0 -0.0315,-0.0315 0.0315,-0.102137 0,-0.133636 -0.0315,-0.0315 -0.0891,0 -0.13364,0 0,-0.04454 0.0199,-0.09379 0,-0.133633 -0.27808,-0.556157 0.009,0.142859 -0.26727,-0.133636 -0.0315,-0.0315 0.0199,-0.09379 0,-0.133633 -0.27808,-0.556156 0.009,0.142859 -0.26727,-0.133635 -0.0315,-0.0315 0.0315,-0.102138 0,-0.133636 -0.0315,-0.0315 -0.10213,0.0315 -0.13363,0 -0.0315,-0.0315 0.0315,-0.102137 0,-0.133633 -0.0315,-0.0315 -0.10214,0.0315 -0.13364,0 -0.0315,-0.0315 0.0315,-0.102137 0,-0.133636 -0.0315,-0.0315 -0.10213,0.0315 -0.13363,0 -0.0315,-0.0315 0.0315,-0.102137 0,-0.133636 -0.063,-0.06299 -0.20428,0.063 -0.26727,0 -0.0315,-0.0315 0.0315,-0.102134 0,-0.133633 -0.0315,-0.0315 -0.10214,0.0315 -0.13364,0 -0.0315,-0.0315 0.0315,-0.102137 0,-0.133636 -0.0315,-0.0315 -0.0938,0.01992 -0.13363,0 -0.0563,-0.02817 -0.0773,-0.105463 -0.13364,-0.133633 -0.0398,-0.01992 -0.10213,0.0315 -0.13363,0 -0.0315,-0.0315 0.0267,-0.098 0,-0.133635 -0.11339,-0.151191 -0.26727,-0.267269 -0.40091,-0.400905 z"
       id="path3883"
       inkscape:connector-curvature="0" />
    <path
       style="fill:none;stroke:#000000;stroke-width:0.26458332px;stroke-linecap:butt;stroke-linejoin:miter;stroke-opacity:1"
       d="m 81.38357,70.606128 c -0.712719,-0.133633 -1.417796,-0.317786 -2.138156,-0.400905 -1.5909,-0.183565 -0.874969,-0.03235 -1.870887,0.133636 -0.08788,0.01466 -0.178179,0 -0.267269,0 -0.178181,0 -0.356359,0 -0.53454,0 -0.08909,0 -0.180838,-0.02162 -0.267269,0 -0.09663,0.02416 -0.169598,0.114102 -0.267269,0.133636 -0.244946,0.04899 -0.689004,-0.04929 -0.935442,0 -0.138129,0.02763 -0.262779,0.106008 -0.400905,0.133633 -0.246441,0.04929 -0.690499,-0.04899 -0.935445,0 -0.09767,0.01953 -0.170638,0.109477 -0.267269,0.133636 -0.17286,0.04321 -0.35982,-0.03494 -0.534538,0 -0.138128,0.02763 -0.262778,0.106008 -0.400904,0.133636 -0.08736,0.01746 -0.179911,-0.01746 -0.267272,0 -0.276254,0.05525 -0.525552,0.212015 -0.801806,0.267268 -0.08736,0.01746 -0.179912,-0.01746 -0.267272,0 -0.138125,0.02763 -0.267269,0.08909 -0.400904,0.133633 -0.133633,0.04455 -0.270116,0.08132 -0.400902,0.133636 -0.184965,0.07399 -0.341278,0.218953 -0.534541,0.267269 -0.08643,0.02162 -0.18084,-0.02162 -0.267268,0 -0.09663,0.02416 -0.178181,0.08909 -0.267269,0.133636 -0.178181,0.08909 -0.349578,0.193283 -0.534541,0.267269 -0.130788,0.05232 -0.270115,0.08132 -0.400904,0.133635 -0.09248,0.03699 -0.170638,0.109477 -0.267269,0.133634 -0.08643,0.02162 -0.182753,-0.02817 -0.267269,0 -0.05976,0.01992 -0.08122,0.09869 -0.133636,0.133635 -0.24671,0.164473 -0.555098,0.236432 -0.801809,0.400905 -0.05241,0.03494 -0.08122,0.09869 -0.133633,0.133636 -0.08288,0.05525 -0.184393,0.07838 -0.267271,0.133633 -0.05241,0.03494 -0.08122,0.09869 -0.133634,0.133635 -0.08288,0.05525 -0.184393,0.07838 -0.267268,0.133634 -0.05242,0.03495 -0.08909,0.08909 -0.133636,0.133635 -0.08909,0.08909 -0.178181,0.178181 -0.267269,0.267269 -0.08909,0.08909 -0.197382,0.162438 -0.267272,0.267272 -0.05525,0.08288 -0.07838,0.18439 -0.133633,0.267269 -0.03494,0.05242 -0.09869,0.08122 -0.133635,0.133633 -0.05525,0.08288 -0.07838,0.184393 -0.133636,0.267271 -0.03494,0.05241 -0.09869,0.08122 -0.133633,0.133633 -0.05525,0.08288 -0.07838,0.184394 -0.133636,0.267272 -0.06989,0.10483 -0.227428,0.14774 -0.267269,0.267269 -0.02817,0.08452 0.02817,0.18275 0,0.267268 -0.03984,0.119529 -0.227428,0.147744 -0.267269,0.267269 -0.02817,0.08452 0.02817,0.182753 0,0.267272 -0.01992,0.05976 -0.08909,0.08909 -0.133635,0.133633 -0.04455,0.08909 -0.109477,0.170638 -0.133636,0.267271 -0.02162,0.08643 0.02817,0.182751 0,0.267269 -0.01992,0.05976 -0.113713,0.07387 -0.133633,0.133633 -0.02817,0.08452 0.02162,0.18084 0,0.267272 -0.02416,0.09663 -0.109477,0.170638 -0.133636,0.267269 -0.02162,0.08643 0.02162,0.18084 0,0.267268 -0.02416,0.09663 -0.109477,0.170638 -0.133633,0.267269 -0.03241,0.129646 0.04226,0.27413 0,0.400905 -0.0315,0.0945 -0.109477,0.170638 -0.133636,0.267271 -0.03241,0.129644 0.04226,0.274127 0,0.400902 -0.0315,0.0945 -0.109477,0.170641 -0.133636,0.267272 -0.04321,0.172857 0.04322,0.361677 0,0.534538 -0.02416,0.09663 -0.109476,0.170637 -0.133633,0.267268 -0.04321,0.172861 0.04321,0.361681 0,0.534541 -0.02416,0.09663 -0.109476,0.170638 -0.133635,0.267269 -0.04322,0.17286 0.04321,0.36168 0,0.53454 -0.02416,0.09663 -0.109477,0.170638 -0.133636,0.267269 -0.02162,0.08643 0,0.178178 0,0.267269 0,0.222726 0,0.44545 0,0.668173 0,0.13897 -0.02627,0.69669 0,0.801809 0.02416,0.09663 0.109479,0.170638 0.133636,0.267269 0.03241,0.129646 -0.04226,0.27413 0,0.400905 0.0315,0.0945 0.109476,0.170638 0.133635,0.267271 0.03241,0.129643 -0.04226,0.274127 0,0.400902 0.0315,0.0945 0.07838,0.184394 0.133633,0.267272 0.03494,0.05241 0.113716,0.07387 0.133636,0.133633 0.02817,0.08452 -0.02817,0.182753 0,0.267271 0.01992,0.05976 0.113713,0.07387 0.133636,0.133633 0.02817,0.08452 -0.02817,0.182753 0,0.267269 0.03984,0.119528 0.227425,0.147744 0.267269,0.267272 0.02817,0.08452 -0.02817,0.18275 0,0.267269 0.03984,0.119525 0.227428,0.147743 0.267269,0.267268 0.02817,0.08452 -0.02817,0.182753 0,0.267269 0.02722,0.08165 0.459451,0.42191 0.53454,0.534541 0.05525,0.08288 0.07838,0.184393 0.133633,0.267269 0.03494,0.05242 0.08909,0.08909 0.133636,0.133635 0.04454,0.04455 0.08122,0.09869 0.133633,0.133633 0.08288,0.05525 0.184393,0.07839 0.267271,0.133636 0.196639,0.131093 0.3379,0.403447 0.534538,0.53454 0.08288,0.05525 0.184394,0.07838 0.267272,0.133634 0.10483,0.06989 0.162435,0.197381 0.267268,0.267268 0.08288,0.05525 0.184394,0.07839 0.267269,0.133636 0.196641,0.131093 0.3379,0.403447 0.534541,0.534541 0.165753,0.1105 0.368784,0.156765 0.534537,0.267268 0.05242,0.03494 0.08122,0.09869 0.133636,0.133633 0.08288,0.05525 0.178178,0.08909 0.267269,0.133636 0.08909,0.04454 0.172775,0.102137 0.267269,0.133636 0.04226,0.01408 0.09138,-0.01408 0.133636,0 0.188986,0.063 0.356359,0.178178 0.534537,0.267269 0.178181,0.08909 0.368787,0.156768 0.534541,0.267269 0.05242,0.03494 0.07387,0.113715 0.133633,0.133635 0.08452,0.02817 0.18084,-0.02162 0.267271,0 0.193262,0.04832 0.341276,0.218954 0.534538,0.267269 0.08643,0.02162 0.18084,-0.02162 0.267269,0 0.193265,0.04832 0.341278,0.218954 0.53454,0.267269 0.08643,0.02162 0.18084,-0.02162 0.267269,0 0.09663,0.02416 0.172775,0.102137 0.267269,0.133636 0.04226,0.01408 0.09138,-0.01408 0.133636,0 0.09449,0.0315 0.172775,0.102137 0.267268,0.133636 0.04226,0.01408 0.09138,-0.01408 0.133636,0 0.09449,0.0315 0.172776,0.102137 0.267269,0.133633 0.04226,0.01408 0.09379,-0.01992 0.133636,0 0.05635,0.02817 0.07387,0.113715 0.133635,0.133635 0.08452,0.02817 0.182751,-0.02817 0.267269,0 0.05976,0.01992 0.07387,0.113713 0.133633,0.133636 0.123802,0.04126 0.540126,-0.04269 0.668177,0 0.09449,0.0315 0.172772,0.102135 0.267268,0.133633 0.04226,0.01408 0.08909,0 0.133633,0 0.07459,0 0.607002,-0.0204 0.668177,0 0.05976,0.01992 0.07729,0.105463 0.133633,0.133636 0.05707,0.02853 0.615346,0 0.668173,0 0.04454,0 0.09379,0.01992 0.133636,0 0.05635,-0.02817 0.07729,-0.105463 0.133636,-0.133636 0.03514,-0.01757 0.464658,0 0.534537,0 0.09228,0 0.493909,0.02032 0.534541,0 0.05634,-0.02817 0.07729,-0.105463 0.133633,-0.133633 0.03984,-0.01992 0.08909,0 0.133636,0 0.08909,0 0.18275,0.02817 0.267268,0 0.05976,-0.01992 0.07729,-0.105463 0.133636,-0.133636 0.03984,-0.01992 0.09379,0.01992 0.133633,0 0.05635,-0.02817 0.07387,-0.113712 0.133636,-0.133635 0.08452,-0.02817 0.18275,0.02817 0.267269,0 0.05976,-0.01992 0.07729,-0.105461 0.133636,-0.133633 0.03984,-0.01992 0.09379,0.01992 0.133633,0 0.05634,-0.02817 0.07729,-0.105463 0.133635,-0.133636 0.03984,-0.01992 0.09138,0.01408 0.133636,0 0.09449,-0.0315 0.172776,-0.102137 0.267269,-0.133636 0.04226,-0.01408 0.09379,0.01992 0.133636,0 0.112688,-0.05634 0.154577,-0.210923 0.267269,-0.267269 0.03984,-0.01992 0.09138,0.01408 0.133633,0 0.967973,-0.322656 -0.210688,0.03853 0.400904,-0.267269 0.03984,-0.01992 0.09138,0.01408 0.133636,0 0.967973,-0.322656 -0.21069,0.03853 0.400905,-0.267268 0.03984,-0.01992 0.09138,0.01407 0.133635,0 0.967971,-0.32266 -0.21069,0.03853 0.400902,-0.267272 0.03984,-0.01992 0.0938,0.01992 0.133636,0 0.05635,-0.02817 0.07729,-0.10546 0.133636,-0.133633 0.03984,-0.01992 0.09379,0.01992 0.133633,0 0.112691,-0.05635 0.15458,-0.210926 0.267271,-0.267272 0.03984,-0.01992 0.08909,0 0.133634,0 0.08909,-0.04454 0.184393,-0.07838 0.267268,-0.133633 0.121651,-0.0811 0.282459,-0.341683 0.400905,-0.400904 0.03984,-0.01992 0.09379,0.01992 0.133636,0 0.112691,-0.05635 0.154577,-0.210923 0.267269,-0.267269 0.03984,-0.01992 0.09379,0.01992 0.133635,0 0.112692,-0.05635 0.154578,-0.210926 0.267269,-0.267272 0.03984,-0.01992 0.09379,0.01992 0.133636,0 0.05635,-0.02817 0.07729,-0.10546 0.133633,-0.133633 0.07968,-0.03984 0.187587,0.03984 0.267272,0 0.05634,-0.02817 0.07729,-0.105463 0.133633,-0.133635 0.07968,-0.03984 0.204274,0.063 0.267269,0 0.0315,-0.0315 -0.0315,-0.102138 0,-0.133634 0.0315,-0.0315 0.09379,0.01992 0.133635,0 0.05635,-0.02817 0.07729,-0.105462 0.133636,-0.133635 0.03984,-0.01992 0.09379,0.01992 0.133633,0 0.05635,-0.02817 0.07729,-0.105463 0.133636,-0.133636 0.07968,-0.03984 0.204274,0.063 0.267269,0 0.0315,-0.0315 -0.0315,-0.102137 0,-0.133633 0.063,-0.063 0.187587,0.03984 0.267269,0 0.05635,-0.02817 0.07729,-0.105463 0.133635,-0.133636 0.03984,-0.01992 0.102137,0.0315 0.133636,0 0.0315,-0.0315 -0.0315,-0.102137 0,-0.133636 0.0315,-0.0315 0.09379,0.01992 0.133633,0 0.05635,-0.02817 0.07729,-0.10546 0.133636,-0.133633 0.03984,-0.01992 0.09379,0.01992 0.133636,0 0.112688,-0.05635 0.162435,-0.197382 0.267269,-0.267269 0.08288,-0.05525 0.184393,-0.07838 0.267268,-0.133635 0.104834,-0.06989 0.154581,-0.210923 0.267269,-0.267269 0.03984,-0.01992 0.0938,0.01992 0.133636,0 0.295473,-0.147738 0.04147,-0.08294 0.133636,-0.267272 0.02817,-0.05634 0.08909,-0.08909 0.133633,-0.133633 0.0786,-0.0786 0.503597,-0.472657 0.53454,-0.53454 0.01992,-0.03984 -0.01992,-0.09379 0,-0.133633 0.02817,-0.05635 0.10546,-0.07729 0.133633,-0.133636 0.01992,-0.03984 -0.01992,-0.09379 0,-0.133636 0.08018,-0.160361 0.320726,-0.24054 0.400905,-0.400902 0.01992,-0.03984 -0.01992,-0.09379 0,-0.133635 0.02817,-0.05635 0.105463,-0.07729 0.133636,-0.133636 0.01992,-0.03984 -0.01992,-0.09379 0,-0.133633 0.02817,-0.05635 0.105463,-0.07729 0.133635,-0.133636 0.01992,-0.03984 -0.01992,-0.09379 0,-0.133636 0.02817,-0.05634 0.105461,-0.07729 0.133633,-0.133633 0.01992,-0.03984 -0.01992,-0.09379 0,-0.133636 0.02817,-0.05634 0.113716,-0.07387 0.133636,-0.133633 0.02817,-0.08452 -0.02817,-0.182753 0,-0.267271 0.03984,-0.119526 0.227428,-0.147744 0.267269,-0.267269 0.02817,-0.08452 -0.02817,-0.18275 0,-0.267269 0.03984,-0.119528 0.210923,-0.15458 0.267269,-0.267269 0.01992,-0.03984 -0.01992,-0.0938 0,-0.133636 0.305797,-0.611594 -0.05539,0.567069 0.267271,-0.400904 0.01408,-0.04226 -0.01992,-0.09379 0,-0.133636 0.05634,-0.112689 0.197382,-0.162435 0.267269,-0.267269 0.450064,-0.675097 0.0011,-0.0031 0.133633,-0.400904 0.32266,-0.967973 -0.03853,0.21069 0.267272,-0.400905 0.01992,-0.03984 -0.01408,-0.09137 0,-0.133633 0.0315,-0.0945 0.102137,-0.172776 0.133633,-0.267272 0.01408,-0.04226 -0.01408,-0.09137 0,-0.133633 0.0315,-0.09449 0.102137,-0.172775 0.133636,-0.267268 0.01408,-0.04226 -0.01408,-0.09138 0,-0.133636 0.0315,-0.09449 0.102137,-0.172776 0.133635,-0.267269 0.01408,-0.04226 -0.01408,-0.09138 0,-0.133636 0.0315,-0.09449 0.102135,-0.172775 0.133634,-0.267269 0.04733,-0.142002 -0.04733,-0.392538 0,-0.53454 0.01992,-0.05976 0.105462,-0.07729 0.133635,-0.133633 0.02854,-0.05707 0,-0.615347 0,-0.668174 0,-0.356359 0,-0.712718 0,-1.069078 0,-0.08909 0,-0.178181 0,-0.267271 0,-0.04454 0.01992,-0.09379 0,-0.133633 -0.02817,-0.05635 -0.105463,-0.07729 -0.133635,-0.133636 -0.042,-0.08399 0.042,-0.450546 0,-0.534538 -0.02817,-0.05634 -0.105461,-0.07729 -0.133634,-0.133635 -0.03984,-0.07968 0.03984,-0.187585 0,-0.267269 -0.02817,-0.05635 -0.105462,-0.07729 -0.133635,-0.133636 -0.03984,-0.07968 0.03984,-0.187584 0,-0.267269 -0.02817,-0.05635 -0.105463,-0.07729 -0.133636,-0.133636 -0.01992,-0.03984 0.01992,-0.09379 0,-0.133635 -0.02817,-0.05634 -0.10546,-0.07729 -0.133633,-0.133633 -0.01992,-0.03984 0.01992,-0.09379 0,-0.133636 -0.02817,-0.05635 -0.105463,-0.07729 -0.133636,-0.133633 -0.01992,-0.03984 0.01992,-0.0938 0,-0.133636 -0.08018,-0.160361 -0.320723,-0.240543 -0.400904,-0.400905 -0.01992,-0.03984 0.01992,-0.09379 0,-0.133635 -0.02817,-0.05634 -0.09869,-0.08122 -0.133634,-0.133633 -0.05525,-0.08288 -0.07838,-0.184394 -0.133635,-0.267269 -0.06989,-0.104834 -0.210924,-0.154581 -0.267269,-0.267272 -0.01992,-0.03984 0.0315,-0.102137 0,-0.133633 -0.0315,-0.0315 -0.0938,0.01992 -0.133636,0 -0.112691,-0.05635 -0.154577,-0.210926 -0.267269,-0.267271 -0.03984,-0.01992 -0.09379,0.01992 -0.133636,0 -0.112691,-0.05634 -0.154577,-0.210924 -0.267268,-0.267269 -0.03984,-0.01992 -0.09379,0.01992 -0.133636,0 -0.112691,-0.05635 -0.154578,-0.210923 -0.267269,-0.267269 -0.03984,-0.01992 -0.09379,0.01992 -0.133636,0 -0.112688,-0.05635 -0.162435,-0.197382 -0.267269,-0.267269 -0.0673,-0.29442 -0.274912,-0.07064 -0.400904,-0.133636 -0.05635,-0.02817 -0.07729,-0.105463 -0.133633,-0.133635 -0.03984,-0.01992 -0.0938,0.01992 -0.133636,0 -0.05635,-0.02817 -0.08122,-0.09869 -0.133636,-0.133634 -0.0673,-0.29442 -0.27491,-0.07064 -0.400904,-0.133635 -0.05634,-0.02817 -0.07729,-0.105463 -0.133633,-0.133633 -0.03984,-0.01992 -0.09379,0.01992 -0.133636,0 -0.05635,-0.02817 -0.07387,-0.113716 -0.133633,-0.133636 -0.08452,-0.02817 -0.182753,0.02817 -0.267272,0 -0.05976,-0.01992 -0.07729,-0.105463 -0.133633,-0.133636 -0.03984,-0.01992 -0.09379,0.01992 -0.133636,0 -0.05634,-0.02817 -0.07729,-0.10546 -0.133635,-0.133633 -0.07968,-0.03984 -0.187585,0.03984 -0.267269,0 -0.05635,-0.02817 -0.07729,-0.105463 -0.133633,-0.133636 -0.07968,-0.03984 -0.187587,0.03984 -0.267272,0 -0.112689,-0.05635 -0.154577,-0.210923 -0.267269,-0.267269 -0.0725,-0.03625 -0.497972,0.03657 -0.534537,0 -0.0315,-0.0315 0.0315,-0.102137 0,-0.133635 -0.02732,-0.02732 -0.34792,0.02649 -0.400905,0 -0.05635,-0.02817 -0.07729,-0.105463 -0.133636,-0.133633 -0.0725,-0.03625 -0.497972,0.03656 -0.534537,0 -0.0315,-0.0315 0.0315,-0.102138 0,-0.133636 -0.0061,-0.0061 -0.605166,0 -0.668177,0 -0.132135,0 -0.41838,0.02904 -0.534537,0 -0.136658,-0.03417 -0.541769,-0.133636 -0.400905,-0.133636 0.183663,0 0.579083,-0.04454 0.53454,0.133636 -0.04454,0.178178 -0.356359,-0.08909 -0.53454,-0.133636 z"
       id="path3885"
       inkscape:connector-curvature="0" />
    <path
       style="fill:none;stroke:#000000;stroke-width:0.26458332px;stroke-linecap:butt;stroke-linejoin:miter;stroke-opacity:1"
       d="m 15.768902,55.639035 c 1.050921,0.555358 1.416034,-0.561102 2.138156,-0.801809 0.30765,-0.10255 0.630676,-0.156445 0.935443,-0.267269 0.734992,-0.267269 0.300679,-0.200451 0.801809,-0.400904 0.130788,-0.05232 0.270116,-0.08132 0.400904,-0.133636 0.184963,-0.07398 0.349577,-0.193283 0.534539,-0.267269 0.130789,-0.05231 0.270116,-0.08132 0.400905,-0.133633 0.09248,-0.03699 0.174788,-0.09664 0.267269,-0.133636 0.130789,-0.05232 0.274912,-0.07064 0.400904,-0.133636 0.62749,-0.313742 0.168127,-0.200884 0.668174,-0.400904 0.130789,-0.05231 0.280115,-0.06116 0.400904,-0.133633 0.108038,-0.06482 0.166477,-0.191675 0.26727,-0.267269 0.07968,-0.05976 0.17818,-0.08909 0.267269,-0.133636 0.08909,-0.04454 0.174789,-0.09664 0.26727,-0.133636 0.825664,-0.330263 0.04138,0.04613 0.668174,-0.267268 0.08909,-0.04455 0.17818,-0.08909 0.267269,-0.133636 0.08909,-0.04454 0.169599,-0.114099 0.26727,-0.133633 0.13104,-0.02622 0.269865,0.02622 0.400904,0 0.09767,-0.01953 0.17818,-0.08909 0.26727,-0.133636 0.267269,-0.133633 0.534539,-0.267269 0.801808,-0.400905 0.08909,-0.04454 0.174789,-0.09664 0.267269,-0.133633 0.313032,-0.125214 0.64973,-0.210428 0.935445,-0.400904 0.05241,-0.03494 0.08122,-0.09869 0.133633,-0.133636 0.08288,-0.05525 0.184394,-0.07838 0.267269,-0.133633 0.05242,-0.03495 0.07729,-0.105463 0.133636,-0.133636 0.03984,-0.01992 0.09379,0.01992 0.133636,0 0.05635,-0.02817 0.07729,-0.105463 0.133633,-0.133636 0.03984,-0.01992 0.0938,0.01992 0.133636,0 0.112691,-0.05635 0.147743,-0.227425 0.267268,-0.267269 0.08452,-0.02817 0.182753,0.02817 0.267269,0 0.119528,-0.03984 0.15458,-0.210923 0.267272,-0.267268 0.03984,-0.01992 0.09379,0.01992 0.133633,0 0.05635,-0.02817 0.07729,-0.105463 0.133636,-0.133636 0.03984,-0.01992 0.09379,0.01992 0.133635,0 0.05635,-0.02817 0.07729,-0.105463 0.133634,-0.133633 0.03984,-0.01992 0.09379,0.01992 0.133635,0 0.112692,-0.05635 0.154578,-0.210926 0.267269,-0.267272 0.03984,-0.01992 0.09379,0.01992 0.133636,0 0.112691,-0.05635 0.154577,-0.210923 0.267269,-0.267269 0.03984,-0.01992 0.09138,0.01408 0.133635,0 0.09449,-0.0315 0.172776,-0.102137 0.267269,-0.133635 0.04226,-0.01408 0.09379,0.01992 0.133636,0 0.112689,-0.05634 0.147741,-0.227426 0.267269,-0.267269 0.08452,-0.02817 0.18275,0.02817 0.267269,0 0.05976,-0.01992 0.07729,-0.105463 0.133636,-0.133633 0.03984,-0.01992 0.09379,0.01992 0.133633,0 0.05635,-0.02817 0.08122,-0.09869 0.133635,-0.133636 0.08288,-0.05525 0.184394,-0.07838 0.267269,-0.133636 0.104833,-0.06989 0.162439,-0.197382 0.267269,-0.267269 0.08288,-0.05525 0.184393,-0.07838 0.267272,-0.133635 0.05241,-0.03494 0.08122,-0.09869 0.133633,-0.133633 0.08288,-0.05525 0.184393,-0.07839 0.267271,-0.133636 0.05241,-0.03494 0.08122,-0.09869 0.133633,-0.133633 0.08288,-0.05525 0.184394,-0.07839 0.267269,-0.133636 0.104833,-0.06989 0.162438,-0.197382 0.267272,-0.267269 0.08288,-0.05525 0.18439,-0.07838 0.267268,-0.133636 0.05242,-0.03494 0.08909,-0.08909 0.133636,-0.133635 0.133633,-0.133634 0.267269,-0.267269 0.400902,-0.400905 0.08909,-0.08909 0.162438,-0.197379 0.267272,-0.267269 0.08288,-0.05525 0.18439,-0.07838 0.267269,-0.133633 0.115313,-0.07688 0.296523,-0.296524 0.400904,-0.400905 0.133633,-0.133635 0.267269,-0.267271 0.400905,-0.400904 0.04454,-0.04455 0.09869,-0.08122 0.133633,-0.133636 0.05525,-0.08288 0.07839,-0.184393 0.133636,-0.267269 0.06989,-0.10483 0.197381,-0.162438 0.267268,-0.267269 0.05525,-0.08288 0.0632,-0.196839 0.133636,-0.267271 0.07043,-0.07043 0.196837,-0.0632 0.267269,-0.133633 0.0086,-0.0086 0.250674,-0.509649 0.267269,-0.534541 0.03495,-0.05241 0.09869,-0.08122 0.133636,-0.133633 0.05525,-0.08288 0.07838,-0.184393 0.133635,-0.267271 0.0811,-0.121648 0.341681,-0.282459 0.400905,-0.400902 0.01992,-0.03984 -0.01992,-0.0938 0,-0.133636 0.02817,-0.05635 0.113713,-0.07387 0.133633,-0.133636 0.02817,-0.08452 -0.02817,-0.18275 0,-0.267268 0.01992,-0.05977 0.105463,-0.07729 0.133636,-0.133636 0.04057,-0.08114 -0.04057,-0.720662 0,-0.801807 0.02817,-0.05635 0.113712,-0.07387 0.133633,-0.133636 0.02817,-0.08452 0,-0.178178 0,-0.267268 0,-0.04455 0.01992,-0.09379 0,-0.133636 -0.02817,-0.05635 -0.113713,-0.07387 -0.133633,-0.133633 -0.03483,-0.104476 0.03677,-0.728271 0,-0.801809 -0.02817,-0.05635 -0.105463,-0.07729 -0.133636,-0.133636 -0.03984,-0.07968 0.03984,-0.187584 0,-0.267269 -0.02817,-0.05635 -0.105463,-0.07729 -0.133633,-0.133636 -0.03984,-0.07968 0.063,-0.204271 0,-0.267269 -0.0315,-0.0315 -0.102137,0.0315 -0.133636,0 -0.0315,-0.0315 0.01992,-0.09379 0,-0.133635 -0.02817,-0.05635 -0.105463,-0.07729 -0.133636,-0.133633 -0.01992,-0.03984 0.01992,-0.09379 0,-0.133636 -0.02817,-0.05635 -0.10546,-0.07729 -0.133633,-0.133636 -0.01992,-0.03984 0.01992,-0.09379 0,-0.133633 -0.02817,-0.05635 -0.08909,-0.08909 -0.133635,-0.133636 -0.04455,-0.04454 -0.07729,-0.10546 -0.133636,-0.133633 -0.03984,-0.01992 -0.102135,0.0315 -0.133633,0 -0.0315,-0.0315 0,-0.08909 0,-0.133636 -0.04454,0 -0.09379,0.01992 -0.133636,0 -0.556157,-0.278077 0.142862,0.0092 -0.133633,-0.267269 -0.0315,-0.0315 -0.102137,0.0315 -0.133636,0 -0.0315,-0.0315 0.01992,-0.09379 0,-0.133635 -0.02817,-0.05635 -0.08909,-0.08909 -0.133636,-0.133636 -0.04454,-0.04454 -0.08909,-0.08909 -0.133633,-0.133633 -0.07035,-0.07035 -0.329533,-0.365218 -0.400904,-0.400905 -0.03984,-0.01992 -0.102137,0.0315 -0.133636,0 -0.0315,-0.0315 0.0315,-0.102137 0,-0.133635 -0.0315,-0.0315 -0.09379,0.01992 -0.133636,0 -0.05634,-0.02817 -0.07729,-0.105461 -0.133633,-0.133634 -0.03984,-0.01992 -0.09379,0.01992 -0.133636,0 -0.05635,-0.02817 -0.07729,-0.105462 -0.133633,-0.133635 -0.03984,-0.01992 -0.0938,0.01992 -0.133635,0 -0.05635,-0.02817 -0.07729,-0.105463 -0.133636,-0.133636 -0.07968,-0.03984 -0.187585,0.03984 -0.267269,0 -0.05635,-0.02817 -0.07729,-0.10546 -0.133636,-0.133633 -0.03984,-0.01992 -0.09379,0.01992 -0.133633,0 -0.05635,-0.02817 -0.07729,-0.105463 -0.133636,-0.133636 -0.03984,-0.01992 -0.09137,0.01408 -0.133633,0 -0.0945,-0.0315 -0.172775,-0.102137 -0.267271,-0.133633 -0.120272,-0.04009 -0.280633,0.04009 -0.400905,0 -0.05976,-0.01992 -0.07729,-0.105463 -0.133633,-0.133636 -0.03984,-0.01992 -0.08909,0 -0.133636,0 -0.08909,0 -0.18275,0.02817 -0.267269,0 -0.05976,-0.01992 -0.07729,-0.105463 -0.133635,-0.133636 -0.07968,-0.03984 -0.187585,0.03984 -0.267269,0 -0.05635,-0.02817 -0.07729,-0.10546 -0.133636,-0.133633 -0.08399,-0.042 -0.450546,0.042 -0.534538,0 -0.05634,-0.02817 -0.07729,-0.105463 -0.133635,-0.133635 -0.08681,-0.0434 -0.583407,0.04238 -0.668174,0 -0.05635,-0.02817 -0.07729,-0.105463 -0.133633,-0.133636 -0.084,-0.042 -0.450548,0.042 -0.53454,0 -0.05635,-0.02817 -0.07729,-0.10546 -0.133636,-0.133633 -0.0843,-0.04215 -0.583867,0.04215 -0.668173,0 -0.05635,-0.02817 -0.07729,-0.105463 -0.133634,-0.133636 -0.03514,-0.01757 -0.464658,0 -0.53454,0 -0.489995,0 -0.979987,0 -1.469983,0 -0.267268,0 -0.534537,0 -0.801809,0 -0.133633,0 -0.271258,0.03241 -0.400903,0 -0.09663,-0.02416 -0.169598,-0.114099 -0.267269,-0.133633 -0.2184,-0.04368 -0.445449,0 -0.668174,0 -0.534539,0 -1.069078,0 -1.603617,0 -0.222725,0 -0.44545,0 -0.668174,0 -0.08909,0 -0.18084,0.02162 -0.26727,0 -0.09663,-0.02416 -0.170638,-0.109479 -0.267269,-0.133636 -0.08643,-0.02162 -0.17818,0 -0.26727,0 -0.13897,0 -0.696689,0.02627 -0.801808,0 -0.09663,-0.02416 -0.172776,-0.102137 -0.26727,-0.133636 -0.04226,-0.01407 -0.08909,0 -0.133635,0 -0.08909,0 -0.180839,-0.02162 -0.267269,0 -0.09663,0.02416 -0.170638,0.109477 -0.26727,0.133636 -0.105119,0.02627 -0.662838,0 -0.801808,0 -0.08909,0 -0.17818,0 -0.26727,0 -0.08909,0 -0.180839,-0.02162 -0.267269,0 -0.09663,0.02416 -0.170638,0.109477 -0.26727,0.133636 -0.172859,0.04321 -0.361679,-0.04322 -0.534539,0 -0.09663,0.02416 -0.172775,0.102134 -0.267269,0.133633 -0.04226,0.01408 -0.09138,-0.01408 -0.133635,0 -0.09449,0.0315 -0.170638,0.109477 -0.26727,0.133636 -0.08643,0.02162 -0.182751,-0.02817 -0.267269,0 -0.05976,0.01992 -0.07387,0.113712 -0.133635,0.133633 -0.120271,0.04009 -0.280633,-0.04009 -0.400904,0 -0.09449,0.0315 -0.170638,0.109479 -0.26727,0.133636 -0.08643,0.02162 -0.182751,-0.02817 -0.267269,0 -0.05976,0.01992 -0.07387,0.113712 -0.133635,0.133635 -0.169036,0.05635 -0.361679,-0.04322 -0.534539,0 -0.09663,0.02416 -0.170638,0.109477 -0.267269,0.133633 -0.08643,0.02162 -0.182752,-0.02817 -0.26727,0 -0.05976,0.01992 -0.07387,0.113716 -0.133635,0.133636 -0.08452,0.02817 -0.18084,-0.02162 -0.267269,0 -0.09663,0.02416 -0.172776,0.102137 -0.26727,0.133636 -0.04226,0.01408 -0.09138,-0.01408 -0.133635,0 -0.09449,0.0315 -0.170638,0.109477 -0.267269,0.133633 -0.08643,0.02162 -0.182752,-0.02817 -0.26727,0 -0.05976,0.01992 -0.08909,0.08909 -0.133635,0.133636 -0.08909,0.04454 -0.170638,0.109476 -0.267269,0.133633 -0.08643,0.02162 -0.17991,-0.01746 -0.26727,0 -0.351337,0.07027 -0.612311,0.271653 -0.935443,0.400905 -0.130788,0.05232 -0.280115,0.06116 -0.400904,0.133635 -0.108038,0.06482 -0.166476,0.191675 -0.26727,0.267269 -0.36058,0.270436 -0.218993,-0.0021 -0.668174,0.267269 -0.108037,0.06482 -0.166475,0.191675 -0.267269,0.267271 -0.179084,0.134314 -0.475668,0.190268 -0.668174,0.267269 -0.3054707,0.122188 -0.3544286,0.212657 -0.6681737,0.400905 -0.2528342,0.151699 -0.5379966,0.268999 -0.8018086,0.400905 -0.08909,0.04455 -0.1875851,0.07387 -0.2672694,0.133633 -0.1007936,0.0756 -0.1664759,0.191674 -0.2672697,0.267271 -0.1593686,0.119526 -0.3936756,0.126405 -0.534539,0.267269 -0.070432,0.07043 -0.063203,0.196837 -0.1336347,0.267269 -0.070432,0.07043 -0.1968378,0.0632 -0.2672696,0.133636 -0.070432,0.07043 -0.063203,0.196836 -0.1336347,0.267268 -0.070432,0.07043 -0.1875851,0.07387 -0.2672694,0.133636 -0.1007938,0.07559 -0.1781797,0.178179 -0.2672696,0.267269 -0.1524757,0.152477 -0.501822,0.543409 -0.6681738,0.668173 -0.079684,0.05976 -0.1968378,0.0632 -0.2672696,0.133636 -0.070432,0.07043 -0.078384,0.184391 -0.1336347,0.267269 -0.069888,0.104831 -0.1973818,0.162438 -0.2672696,0.267269 -0.055251,0.08288 -0.078384,0.184393 -0.1336347,0.267269 -0.0811,0.12165 -0.3416816,0.282458 -0.4009044,0.400904 -0.01992,0.03984 0.01992,0.09379 0,0.133636 -0.056345,0.112691 -0.2109239,0.154578 -0.2672693,0.267269 -0.019921,0.03984 0.01992,0.09379 0,0.133636 -0.028173,0.05635 -0.1054622,0.07729 -0.133635,0.133633 -0.039842,0.07968 0.039842,0.187587 0,0.267271 -0.028173,0.05635 -0.1054619,0.07729 -0.1336347,0.133633 -0.039842,0.07968 0.028173,0.182753 0,0.267272 -0.031498,0.09449 -0.1021366,0.172775 -0.1336347,0.267269 -0.028173,0.08452 0.062996,0.204274 0,0.267269 -0.031498,0.0315 -0.1021368,-0.0315 -0.1336347,0 -0.031498,0.0315 0,0.08909 0,0.133635 0,0.09472 0.017275,0.767258 0,0.801807 -0.028173,0.05635 -0.1054621,0.07729 -0.1336349,0.133636 -0.020336,0.04067 0,0.34072 0,0.400904 0,0.267269 0,0.534538 0,0.801809 0,0.267269 0,0.534538 0,0.80181 0,0.06018 -0.020336,0.360233 0,0.400902 0.028173,0.05635 0.1054621,0.07729 0.1336349,0.133635 0.026492,0.05299 -0.02732,0.373584 0,0.400905 0.031498,0.0315 0.1021366,-0.0315 0.1336347,0 0.062996,0.06299 -0.039842,0.187584 0,0.267269 0.028173,0.05635 0.1054621,0.07729 0.1336347,0.133636 0.039842,0.07968 -0.039842,0.187584 0,0.267268 0.028173,0.05635 0.1054621,0.07729 0.1336347,0.133636 0.053454,0.106908 -0.053454,0.293995 0,0.400905 0.028173,0.05634 0.1054621,0.07729 0.133635,0.133633 0.039842,0.07968 -0.039842,0.187584 0,0.267269 0.028172,0.05635 0.1054621,0.07729 0.1336347,0.133635 0.039842,0.07968 -0.062996,0.204275 0,0.267269 0.031498,0.0315 0.1021368,-0.0315 0.1336346,0 0.062996,0.063 -0.039842,0.187587 0,0.267272 0.028173,0.05634 0.1054622,0.07729 0.133635,0.133633 0.01992,0.03984 -0.019921,0.09379 0,0.133636 0.028173,0.05635 0.1054619,0.07729 0.1336347,0.133633 0.01992,0.03984 -0.019921,0.0938 0,0.133636 0.028173,0.05635 0.1054621,0.07729 0.1336347,0.133635 0.039842,0.07969 -0.062996,0.204272 0,0.267269 0.031498,0.0315 0.1021368,-0.0315 0.1336347,0 0.031498,0.0315 -0.019921,0.09379 0,0.133636 0.028173,0.05634 0.1054621,0.07729 0.1336349,0.133633 0.019921,0.03984 -0.01992,0.09379 0,0.133636 0.028173,0.05635 0.1054619,0.07729 0.1336347,0.133633 0.019921,0.03984 -0.031498,0.102137 0,0.133636 0.031498,0.0315 0.1021368,-0.0315 0.1336347,0 0.031498,0.0315 -0.01992,0.09379 0,0.133635 0.056345,0.112689 0.2109242,0.154578 0.2672696,0.267269 0.01992,0.03984 -0.031498,0.102137 0,0.133636 0.031498,0.0315 0.1021366,-0.0315 0.1336347,0 0.031498,0.0315 -0.01992,0.09379 0,0.133633 0.056345,0.112691 0.2109243,0.15458 0.2672697,0.267269 0.01992,0.03984 -0.031498,0.102137 0,0.133636 0.031498,0.0315 0.1021366,-0.0315 0.1336347,0 0.031498,0.0315 -0.031498,0.102137 0,0.133635 0.031498,0.0315 0.1021365,-0.0315 0.1336347,0 0.031498,0.0315 -0.031498,0.102137 0,0.133633 0.031498,0.0315 0.1021368,-0.0315 0.1336346,0 0.031498,0.0315 -0.031498,0.102138 0,0.133636 0.2764952,0.276495 -0.010808,-0.422521 0.2672697,0.133636 0.019921,0.03984 -0.031498,0.102134 0,0.133633 0.031498,0.0315 0.093793,-0.01992 0.1336347,0 0.1126908,0.05635 0.1545788,0.210926 0.2672696,0.267269 0.039842,0.01992 0.1021366,-0.0315 0.1336347,0 0.031498,0.0315 -0.031498,0.102137 0,0.133636 0.062996,0.063 0.2042734,-0.063 0.2672697,0 0.031498,0.0315 -0.031498,0.102137 0,0.133635 0.062996,0.06299 0.2042734,-0.063 0.2672693,0 0.031498,0.0315 -0.031498,0.102138 0,0.133634 0.062996,0.063 0.2042735,-0.06299 0.2672697,0 0.031498,0.0315 -0.031498,0.102137 0,0.133635 0.062996,0.063 0.2042734,-0.063 0.2672694,0 0.031498,0.0315 -0.031498,0.102137 0,0.133636 0.062996,0.063 0.187585,-0.03984 0.2672696,0 0.056345,0.02817 0.077289,0.10546 0.1336347,0.133633 0.1069078,0.05345 0.2939965,-0.05345 0.4009043,0 0.056345,0.02817 0.077289,0.105463 0.1336347,0.133636 0.079684,0.03984 0.1875851,-0.03984 0.2672697,0 0.056345,0.02817 0.077289,0.105463 0.1336347,0.133636 0.1069078,0.05345 0.2939963,-0.05346 0.4009043,0 0.05634,0.02817 0.07729,0.10546 0.133635,0.133633 0.07968,0.03984 0.187585,-0.03984 0.267269,0 0.05635,0.02817 0.07729,0.105463 0.133635,0.133635 0.07249,0.03625 0.497974,-0.03657 0.534539,0 0.0315,0.0315 -0.0315,0.102138 0,0.133634 0.063,0.063 0.187585,-0.03984 0.267269,0 0.05635,0.02817 0.07729,0.105462 0.133635,0.133635 0.08399,0.042 0.450547,-0.042 0.534539,0 0.05635,0.02817 0.07729,0.105463 0.133635,0.133636 0.03984,0.01992 0.08909,0 0.133635,0 0.04455,0 0.08909,0 0.133635,0 0.222724,0 0.445449,0 0.668173,0 0.04454,0 0.09379,-0.01992 0.133635,0 0.05635,0.02817 0.07729,0.10546 0.133635,0.133633 0.03514,0.01757 0.464659,0 0.534539,0 0.04454,0 0.102137,0.0315 0.133635,0 0.0315,-0.0315 -0.0315,-0.102137 0,-0.133633 0.0061,-0.0061 0.605165,0 0.668174,0 0.03241,0 0.396606,0.0043 0.400904,0 0.0315,-0.0315 -0.04322,-0.122833 0,-0.133636 0.17286,-0.04321 0.356359,0 0.534539,0 z"
       id="path3887"
       inkscape:connector-curvature="0" />
    <path
       style="fill:none;stroke:#000000;stroke-width:0.26458332px;stroke-linecap:butt;stroke-linejoin:miter;stroke-opacity:1"
       d="m 34.745038,74.214267 c -0.712719,0.178181 -1.424011,0.362159 -2.138156,0.53454 -0.579083,0.133633 -1.158169,0.267269 -1.737252,0.400905 -0.267269,0.04454 -0.537305,0.07486 -0.801809,0.133633 -0.137509,0.03056 -0.261956,0.110477 -0.400904,0.133636 -0.131816,0.02196 -0.269087,-0.02196 -0.400905,0 -0.549188,0.09153 -0.252619,0.175738 -0.801807,0.267268 -0.131818,0.02196 -0.268613,-0.01889 -0.400904,0 -0.363636,0.05195 -0.705443,0.215324 -1.069078,0.267269 -0.132292,0.01889 -0.269865,-0.02619 -0.400905,0 -0.09767,0.01953 -0.169599,0.114102 -0.26727,0.133636 -0.131039,0.02619 -0.269088,-0.02196 -0.400904,0 -0.379895,0.06332 -0.356586,0.142634 -0.668174,0.267269 -0.64348,0.257392 -0.175145,0.01384 -0.935443,0.267271 -0.188988,0.063 -0.349577,0.193284 -0.534539,0.267269 -0.130789,0.05231 -0.274913,0.07064 -0.400905,0.133633 -0.05635,0.02817 -0.08122,0.09869 -0.133635,0.133636 -0.08288,0.05525 -0.178179,0.08909 -0.267269,0.133636 -0.08909,0.08909 -0.166476,0.191672 -0.26727,0.267269 -0.07968,0.05976 -0.187585,0.07387 -0.267269,0.133635 -0.100794,0.07559 -0.166476,0.191672 -0.26727,0.267269 -0.159368,0.119526 -0.37517,0.147744 -0.534539,0.267269 -0.100793,0.07559 -0.166475,0.191675 -0.267269,0.267269 -0.159369,0.119528 -0.393676,0.126407 -0.534539,0.267271 -0.07043,0.07043 -0.0632,0.196837 -0.133635,0.267269 -0.07043,0.07043 -0.187585,0.07387 -0.267269,0.133633 -0.01318,0.0099 -0.486883,0.463056 -0.534539,0.534541 -0.05525,0.08288 -0.07838,0.184393 -0.133635,0.267269 -0.06989,0.104833 -0.197382,0.162438 -0.26727,0.267268 -0.05525,0.08288 -0.07838,0.184394 -0.133634,0.267272 -0.06989,0.104831 -0.197382,0.162438 -0.26727,0.267269 -0.05525,0.08288 -0.07838,0.184393 -0.133635,0.267269 -0.06989,0.104833 -0.197382,0.162438 -0.267269,0.267268 -0.05525,0.08288 -0.07838,0.184394 -0.133635,0.267272 -0.03494,0.05241 -0.09869,0.08122 -0.133635,0.133633 -0.294419,0.0673 -0.07064,0.274913 -0.133635,0.400905 -0.02817,0.05634 -0.09869,0.08122 -0.133634,0.133635 -0.05525,0.08288 -0.07838,0.184394 -0.133635,0.267269 -0.03494,0.05242 -0.113714,0.07387 -0.133635,0.133636 -0.02817,0.08452 0.02161,0.18084 0,0.267269 0.08055,0.241871 -0.21648,0.248536 -0.267269,0.400904 -0.02817,0.08452 0.02161,0.180841 0,0.267269 -0.02416,0.09663 -0.102137,0.172776 -0.133635,0.267269 -0.01409,0.04226 0.01409,0.09138 0,0.133636 -0.0315,0.09449 -0.109477,0.170638 -0.133635,0.267269 -0.03241,0.129646 0.04226,0.274127 0,0.400904 -0.0315,0.09449 -0.102137,0.172776 -0.133635,0.267269 -0.01409,0.04226 0,0.08909 0,0.133636 0,0.08909 0,0.178181 0,0.267269 0,0.267271 0,0.53454 0,0.801809 0,0.356359 0,0.712719 0,1.069078 0,0.133636 -0.04226,0.274127 0,0.400905 0.01992,0.05976 0.113714,0.07387 0.133635,0.133635 0.02817,0.08452 0,0.178179 0,0.267269 0,0.04455 -0.01992,0.09379 0,0.133633 0.02817,0.05635 0.105462,0.07729 0.133635,0.133636 0.01992,0.03984 -0.01409,0.09138 0,0.133636 0.0315,0.09449 0.102136,0.172775 0.133635,0.267269 0.01409,0.04226 -0.01992,0.09379 0,0.133635 0.02817,0.05634 0.113713,0.07387 0.133634,0.133634 0.02817,0.08452 -0.02817,0.182753 0,0.267268 0.03984,0.119529 0.227428,0.147744 0.26727,0.267272 0.02817,0.08452 -0.02817,0.18275 0,0.267269 0.01992,0.05976 0.09869,0.08122 0.133635,0.133636 0.05525,0.08288 0.07838,0.18439 0.133634,0.267268 0.06989,0.104831 0.197382,0.162439 0.26727,0.267269 0.05525,0.08288 0.07838,0.184394 0.133635,0.267269 0.03494,0.05242 0.09869,0.08122 0.133634,0.133636 0.05525,0.08288 0.07838,0.184393 0.133635,0.267269 0.03494,0.05242 0.08909,0.08909 0.133635,0.133635 0.04455,0.04455 0.08122,0.09869 0.133635,0.133636 0.08288,0.05525 0.196838,0.0632 0.267269,0.133633 0.07043,0.07043 0.07838,0.184394 0.133635,0.267269 0.102796,0.154194 0.298108,0.246711 0.400904,0.400905 0.05525,0.08288 0.07838,0.184393 0.133635,0.267271 0.07688,0.115314 0.296524,0.296524 0.400904,0.400902 0.104381,0.104381 0.285591,0.32403 0.400905,0.400905 0.08288,0.05525 0.184392,0.07838 0.267269,0.133636 0.104832,0.06989 0.162438,0.197381 0.26727,0.267268 0.08288,0.05525 0.184392,0.07838 0.267269,0.133636 0.05242,0.03494 0.07387,0.113713 0.133635,0.133633 0.08452,0.02817 0.182751,-0.02817 0.267269,0 0.05976,0.01992 0.08122,0.09869 0.133635,0.133636 0.08288,0.05525 0.184393,0.07838 0.26727,0.133636 0.104832,0.06989 0.147743,0.227425 0.267269,0.267269 0.08452,0.02817 0.182752,-0.02817 0.26727,0 0.119526,0.03984 0.147743,0.227427 0.267269,0.267268 0.08452,0.02817 0.182752,-0.02817 0.26727,0 0.05976,0.01992 0.07729,0.105463 0.133635,0.133636 0.03984,0.01992 0.09137,-0.01408 0.133634,0 0.09449,0.0315 0.172776,0.102137 0.26727,0.133633 0.04226,0.01408 0.09379,-0.01992 0.133635,0 0.05635,0.02817 0.07387,0.113716 0.133634,0.133636 0.08452,0.02817 0.182752,-0.02817 0.26727,0 0.05976,0.01992 0.07729,0.105463 0.133635,0.133636 0.03984,0.01992 0.09379,-0.01992 0.133635,0 0.05635,0.02817 0.07729,0.10546 0.133634,0.133633 0.106908,0.05345 0.293997,-0.05345 0.400905,0 0.05635,0.02817 0.07729,0.105463 0.133634,0.133636 0.04833,0.02416 0.575226,0 0.668174,0 0.129256,0 0.762173,0.01982 0.801808,0 0.05635,-0.02817 0.07729,-0.105463 0.133636,-0.133636 0.08399,-0.042 0.450545,0.042 0.534537,0 0.05635,-0.02817 0.07387,-0.113713 0.133636,-0.133633 0.08452,-0.02817 0.178181,0 0.267269,0 0.04455,0 0.0938,0.01992 0.133636,0 0.05634,-0.02817 0.07387,-0.113715 0.133635,-0.133636 0.120269,-0.04009 0.280633,0.04009 0.400902,0 0.0945,-0.0315 0.172776,-0.102137 0.267272,-0.133636 0.08452,-0.02817 0.18275,0.02817 0.267269,0 0.09449,-0.0315 0.172775,-0.102134 0.267269,-0.133633 0.04226,-0.01408 0.09138,0.01408 0.133635,0 0.09449,-0.0315 0.170638,-0.109476 0.267269,-0.133636 0.08643,-0.02162 0.182753,0.02817 0.267269,0 0.05976,-0.01992 0.07387,-0.113712 0.133636,-0.133633 0.08452,-0.02817 0.18084,0.02162 0.267269,0 0.241871,0.08055 0.248539,-0.216482 0.400904,-0.267271 0.08452,-0.02817 0.18084,0.02162 0.267269,0 0.09663,-0.02416 0.178181,-0.08909 0.267272,-0.133633 0.08909,-0.04455 0.18439,-0.07839 0.267268,-0.133636 0.05242,-0.03494 0.08122,-0.09869 0.133636,-0.133636 0.165754,-0.1105 0.368784,-0.156765 0.534538,-0.267269 0.157247,-0.10483 0.249714,-0.287512 0.400904,-0.400904 0.07968,-0.05976 0.187585,-0.07387 0.267269,-0.133633 0.100793,-0.0756 0.166476,-0.191675 0.267269,-0.267272 0.159369,-0.119525 0.368787,-0.156765 0.53454,-0.267269 0.05242,-0.03494 0.08122,-0.09869 0.133636,-0.133633 0.08288,-0.05525 0.187585,-0.07387 0.267269,-0.133636 0.151191,-0.113392 0.243658,-0.296074 0.400905,-0.400904 0.165753,-0.110503 0.375168,-0.147743 0.534537,-0.267269 0.100793,-0.0756 0.166476,-0.191675 0.267269,-0.267269 0.07968,-0.05976 0.19684,-0.0632 0.267272,-0.133636 0.07043,-0.07043 0.0632,-0.196839 0.133633,-0.267268 0.501332,-0.501333 0.246367,-0.08455 0.668176,-0.400905 0.100793,-0.0756 0.166476,-0.191675 0.267269,-0.267272 0.07968,-0.05976 0.196837,-0.0632 0.267269,-0.133633 0.07043,-0.07043 0.0632,-0.196839 0.133635,-0.267268 0.0086,-0.0086 0.509646,-0.250677 0.534538,-0.267272 0.05242,-0.03494 0.08122,-0.09869 0.133636,-0.133633 0.08287,-0.05525 0.184393,-0.07839 0.267269,-0.133636 0.05242,-0.03494 0.08122,-0.09869 0.133635,-0.133636 0.08288,-0.05525 0.184391,-0.07838 0.267269,-0.133633 0.157247,-0.104833 0.249714,-0.287512 0.400905,-0.400904 0.07968,-0.05976 0.184393,-0.07838 0.267269,-0.133636 0.05242,-0.03494 0.08909,-0.08909 0.133635,-0.133633 0.133634,-0.133636 0.267269,-0.267272 0.400905,-0.400905 0.08909,-0.08909 0.178178,-0.178181 0.267269,-0.267269 0.04454,-0.04454 0.09869,-0.08122 0.133633,-0.133635 0.05525,-0.08288 0.0632,-0.196837 0.133636,-0.267269 0.07043,-0.07043 0.196837,-0.0632 0.267269,-0.133636 0.07043,-0.07043 0.07838,-0.184393 0.133635,-0.267269 0.03494,-0.05242 0.09869,-0.08122 0.133636,-0.133636 0.05525,-0.08288 0.0632,-0.196836 0.133633,-0.267268 0.07043,-0.07043 0.184394,-0.07838 0.267269,-0.133636 0.307009,-0.204671 -0.0573,-0.07633 0.267272,-0.400905 0.07043,-0.07043 0.196836,-0.0632 0.267268,-0.133633 0.0086,-0.0086 0.250675,-0.509648 0.267269,-0.53454 0.03494,-0.05241 0.09869,-0.08122 0.133636,-0.133633 0.05525,-0.08288 0.08909,-0.178181 0.133633,-0.267272 0.133636,-0.267269 0.267272,-0.534537 0.400905,-0.801806 0.04454,-0.08909 0.07839,-0.184394 0.133635,-0.267272 0.03494,-0.05241 0.09869,-0.08122 0.133636,-0.133633 0.110501,-0.165753 0.156766,-0.368787 0.267269,-0.53454 0.03494,-0.05241 0.113713,-0.07387 0.133633,-0.133633 0.02817,-0.08452 -0.02817,-0.182753 0,-0.267272 0.01992,-0.05976 0.08909,-0.08909 0.133636,-0.133633 0.04455,-0.08909 0.109477,-0.170638 0.133636,-0.267271 0.04321,-0.172858 -0.04321,-0.361678 0,-0.534538 0.02416,-0.09663 0.109476,-0.170638 0.133633,-0.267269 0.02162,-0.08643 -0.02162,-0.18084 0,-0.267272 0.02416,-0.09663 0.109476,-0.170637 0.133636,-0.267268 0.05402,-0.216075 -0.04368,-0.449773 0,-0.668174 0.01953,-0.09767 0.109476,-0.170638 0.133635,-0.267269 0.05801,-0.232023 -0.05801,-0.569785 0,-0.801809 0.02416,-0.09663 0.109477,-0.170638 0.133633,-0.267269 0.02162,-0.08643 0,-0.178181 0,-0.267269 0,-0.08909 0,-0.178181 0,-0.267271 0,-0.445447 0,-0.890897 0,-1.336347 0,-0.267269 0,-0.534538 0,-0.801809 0,-0.06018 0.02035,-0.360233 0,-0.400905 -0.02817,-0.05634 -0.10546,-0.07729 -0.133633,-0.133633 -0.05345,-0.106907 0.05345,-0.293997 0,-0.400904 -0.02817,-0.05635 -0.105463,-0.07729 -0.133635,-0.133636 -0.01992,-0.03984 0.01992,-0.09379 0,-0.133633 -0.02817,-0.05635 -0.105463,-0.07729 -0.133636,-0.133636 -0.01992,-0.03984 0.01992,-0.09379 0,-0.133636 -0.02817,-0.05635 -0.105461,-0.07729 -0.133633,-0.133633 -0.03984,-0.07968 0.03984,-0.187587 0,-0.267271 -0.27808,-0.556155 0.0092,0.142861 -0.267272,-0.133633 -0.276495,-0.276495 0.422524,0.0108 -0.133633,-0.267269 -0.03984,-0.01992 -0.09379,0.01992 -0.133636,0 -0.160361,-0.08018 -0.24054,-0.320726 -0.400904,-0.400905 -0.03984,-0.01992 -0.09379,0.01992 -0.133633,0 -0.05635,-0.02817 -0.07729,-0.105463 -0.133636,-0.133636 -0.03984,-0.01992 -0.09379,0.01992 -0.133636,0 -0.05634,-0.02817 -0.07729,-0.105463 -0.133633,-0.133635 -0.03984,-0.01992 -0.09379,0.01992 -0.133636,0 -0.112691,-0.05634 -0.154577,-0.210924 -0.267269,-0.267269 -0.03984,-0.01992 -0.08909,0 -0.133635,0 -0.08909,0 -0.182751,0.02817 -0.267269,0 -0.05976,-0.01992 -0.07729,-0.105461 -0.133636,-0.133633 -0.05946,-0.02973 -0.473416,0.02037 -0.534538,0 -0.05976,-0.01992 -0.07387,-0.113716 -0.133635,-0.133636 -0.126775,-0.04226 -0.267269,0 -0.400905,0 -0.222724,0 -0.445447,0 -0.668173,0 -0.04455,0 -0.08909,0 -0.133634,0 -0.04454,0 -0.09379,0.01992 -0.133635,0 -0.05635,-0.02817 -0.07729,-0.105463 -0.133636,-0.133636 -0.03984,-0.01992 -0.08909,0 -0.133633,0 -0.133636,0 -0.274127,-0.04226 -0.400905,0 -0.05976,0.01992 -0.07729,0.105463 -0.133635,0.133636 -0.08399,0.042 -0.450546,-0.042 -0.534538,0 -0.05635,0.02817 -0.07729,0.105463 -0.133636,0.133636 -0.03984,0.01992 -0.08909,0 -0.133633,0 -0.08909,0 -0.182753,-0.02817 -0.267272,0 -0.05976,0.01992 -0.07729,0.10546 -0.133633,0.133633 -0.07968,0.03984 -0.187587,-0.03984 -0.267271,0 -0.05634,0.02817 -0.07729,0.105463 -0.133633,0.133635 -0.07968,0.03984 -0.204274,-0.063 -0.267269,0 -0.0315,0.0315 0.0315,0.102138 0,0.133634 -0.02732,0.02732 -0.347922,-0.02649 -0.400905,0 -0.05635,0.02817 -0.07729,0.105462 -0.133635,0.133635 -0.03984,0.01992 -0.09379,-0.01992 -0.133636,0 -0.05635,0.02817 -0.07729,0.105463 -0.133633,0.133636 -0.03984,0.01992 -0.102137,-0.0315 -0.133636,0 -0.0315,0.0315 0.0315,0.102137 0,0.133633 -0.063,0.063 -0.187584,-0.03984 -0.267269,0 -0.05635,0.02817 -0.07729,0.105463 -0.133636,0.133636 -0.03984,0.01992 -0.09228,-0.01654 -0.133633,0 -0.184965,0.07399 -0.356359,0.178178 -0.53454,0.267269 z"
       id="path3889"
       inkscape:connector-curvature="0" />
  </g>
</svg>
