<?xml version="1.0" encoding="UTF-8" standalone="no"?>
<svg
   xmlns:dc="http://purl.org/dc/elements/1.1/"
   xmlns:cc="http://creativecommons.org/ns#"
   xmlns:rdf="http://www.w3.org/1999/02/22-rdf-syntax-ns#"
   xmlns:svg="http://www.w3.org/2000/svg"
   xmlns="http://www.w3.org/2000/svg"
   xmlns:sodipodi="http://sodipodi.sourceforge.net/DTD/sodipodi-0.dtd"
   xmlns:inkscape="http://www.inkscape.org/namespaces/inkscape"
   width="368.3mm"
   height="275.17mm"
   version="1.1"
   viewBox="0 0 368.3 275.17"
   id="svg4"
   sodipodi:docname="1_4_linfocito.svg"
   inkscape:version="0.92.4 (5da689c313, 2019-01-14)">
  <metadata
     id="metadata10">
    <rdf:RDF>
      <cc:Work
         rdf:about="">
        <dc:format>image/svg+xml</dc:format>
        <dc:type
           rdf:resource="http://purl.org/dc/dcmitype/StillImage" />
        <dc:title></dc:title>
      </cc:Work>
    </rdf:RDF>
  </metadata>
  <defs
     id="defs8" />
  <sodipodi:namedview
     pagecolor="#ffffff"
     bordercolor="#666666"
     borderopacity="1"
     objecttolerance="10"
     gridtolerance="10"
     guidetolerance="10"
     inkscape:pageopacity="0"
     inkscape:pageshadow="2"
     inkscape:window-width="1920"
     inkscape:window-height="1001"
     id="namedview6"
     showgrid="false"
     inkscape:zoom="0.22692032"
     inkscape:cx="695.99998"
     inkscape:cy="520.00632"
     inkscape:window-x="-9"
     inkscape:window-y="-9"
     inkscape:window-maximized="1"
     inkscape:current-layer="svg4" />
  <path
     d="m189.74 106.87c-1.002-1.2024-.59704-.78603-1.1339-1.3229-.0315-.0315-.0746-.0547-.0945-.0945-.0445-.0891-.063-.18899-.0945-.28349-.0698-.20946-.15846-.47392-.28348-.66145-.3134-.3134.0445.0891-.0945-.18899-.0398-.0797-.16081-.10447-.18899-.18899-.0199-.0598.0199-.12923 0-.18899-.0141-.0423-.0746-.0546-.0945-.0945-.0141-.0282.0141-.0663 0-.0945-.0199-.0398-.0746-.0546-.0945-.0945-.0141-.0282.0223-.0722 0-.0945s-.0646.01-.0945 0c-.68446-.22815.14898.0272-.28348-.18898-.10072-.0504-.0883.0504-.18899 0-.0398-.0199-.0546-.0746-.0945-.0945-.0282-.0141-.0722.0223-.0945 0s.0282-.0804 0-.0945c-.43016 0-.005.0445-.28348-.0945-.0375-.0187-.26416.0193-.28348 0-.0223-.0223.0223-.0722 0-.0945s-.063 0-.0945 0c-.0528 0-.42922.0144-.47247 0-.0423-.0141-.0547-.0746-.0945-.0945-.0282-.0141-.063 0-.0945 0h-.0945-.47247c-.0315 0-.0663.0141-.0945 0-.0398-.0199-.0546-.0746-.0945-.0945-.0564-.0282-.13265.0282-.18899 0-.0398-.0199-.0546-.0746-.0945-.0945-.0756-.0378-.20788.0378-.28348 0-.0398-.0199-.0546-.0746-.0945-.0945-.0564-.0282-.14445.0446-.18899 0-.0223-.0223.0223-.0722 0-.0945s-.0663.0141-.0945 0c-.0398-.0199-.0547-.0746-.0945-.0945-.0282-.0141-.0663.0141-.0945 0-.0399-.0199-.0546-.0746-.0945-.0945-.0563-.0282-.14444.0446-.18898 0-.0223-.0223.0223-.0722 0-.0945-.0445-.0446-.13265.0282-.18899 0-.0398-.0199-.0547-.0746-.0945-.0945-.0282-.0141-.0722.0223-.0945 0s.0223-.0722 0-.0945-.0663.0141-.0945 0c-.0398-.0199-.0547-.0746-.0945-.0945-.0282-.0141-.0663.0141-.0945 0-.30197-.15099.11298-.038-.18899-.18899-.0282-.0141-.0722.0223-.0945 0s.0223-.0722 0-.0945c-.19551-.19551.008.29877-.18898-.0945-.0652-.13034.11443-.0845-.0945-.18899-.0282-.0141-.0722.0223-.0945 0s.0141-.0663 0-.0945c-.19663-.39326.007.10101-.18899-.0945-.0223-.0223.0223-.0722 0-.0945s-.0663.0141-.0945 0c-.20169-.10085.0127-.0881-.18899-.18899-.0564-.0282-.13264.0282-.18899 0-.25164-.12582.0626-.0632-.18899-.18899-.0282-.0141-.0663.0141-.0945 0-.0399-.0199-.0547-.0746-.0945-.0945-.0282-.0141-.0663.0141-.0945 0-.0398-.0199-.0522-.0804-.0945-.0945-.0643-.0214-.42237.0251-.47247 0-.0399-.0199-.0547-.0746-.0945-.0945-.0282-.0141-.063 0-.0945 0h-.0945-.47247c-.063 0-.12922.0199-.18898 0-.0668-.0223-.12218-.0722-.18899-.0945-.0796-.0265-.41621.0281-.47247 0-.0399-.0199-.0547-.0746-.0945-.0945-.0594-.0297-.31858.0297-.37797 0-.0399-.0199-.0547-.0746-.0945-.0945-.0282-.0141-.063 0-.0945 0h-.0945-.66146-.18898c-.0315 0-.0663.0141-.0945 0-.0398-.0199-.0547-.0746-.0945-.0945-.0282-.0141-.063 0-.0945 0h-.0945-.56696c-.0426 0-.25473.0144-.28349 0-.0398-.0199-.0522-.0804-.0945-.09449-.0432-.01442-.33593.02103-.37797 0-.0399-.01992-.0547-.07457-.0945-.09449-.0619-.03096-.50847.02925-.56696 0-.0399-.01992-.0547-.07457-.0945-.09449-.0282-.01408-.063 0-.0945 0-.063 0-.12923.01992-.18899 0-.0423-.01408-.0547-.07457-.0945-.0945-.0564-.02817-.12923.01992-.18899 0-.0668-.02228-.12217-.07222-.18899-.09449-.0511-.01704-.34578 0-.37798 0-.0425 0-.25472.01437-.28348 0-.0398-.01992-.0546-.07457-.0945-.09449-.0136-.0068-.46818-.0013-.47247 0-.0423.01408-.0522.08041-.0945.09449-.14174.04725-.33073-.04725-.47247 0-.0423.01407-.0522.08041-.0945.09449-.0598.01992-.12599 0-.18899 0-.0315 0-.0663-.01408-.0945 0-.0399.01992-.0546.07457-.0945.0945-.0563.02817-.13264-.02817-.18898 0-.0399.01992-.0547.07457-.0945.09449-.0594.0297-.31859-.0297-.37798 0-.0398.01992-.0547.07457-.0945.09449-.0564.02817-.13264-.02817-.18899 0-.0398.01992-.0522.08041-.0945.09449-.43016 0-.005-.0445-.28348.0945-.0756.0378-.20789-.0378-.28349 0-.0398.0199-.0547.0746-.0945.0945-.0282.0141-.0663-.0141-.0945 0-.0399.0199-.0547.0746-.0945.0945-.0282.0141-.0663-.0141-.0945 0-.0398.0199-.0522.0804-.0945.0945-.0598.0199-.12599 0-.18899 0-.0315 0-.0663-.0141-.0945 0-.0398.0199-.0546.0746-.0945.0945-.0564.0282-.13265-.0282-.18899 0-.0398.0199-.0522.0804-.0945.0945-.0598.0199-.12923-.0199-.18899 0-.0423.0141-.0546.0746-.0945.0945-.0282.0141-.0663-.0141-.0945 0-.0398.0199-.0522.0804-.0945.0945-.0848.0598-.19384-.0299-.28349 0-.0668.0223-.12217.0722-.18899.0945-.0299.01-.0646-.01-.0945 0-.0668.0223-.12217.0722-.18899.0945-.0299.01-.0646-.01-.0945 0-.0668.0223-.12217.0722-.18899.0945-.0299.01-.0646-.01-.0945 0-.063.0315-.126.063-.18899.0945-.0315 0-.0646-.01-.0945 0-.13363.0446-.24434.14445-.37797.18899-.0299.01-.0646-.01-.0945 0-.063.0315-.12599.063-.18898.0945-.0315 0-.0646-.01-.0945 0-.0668.0223-.12066.0774-.18899.0945-.12223.0306-.25574-.0306-.37797 0-.0683.0171-.12066.0774-.18899.0945-.0917.0229-.19384-.0299-.28348 0-.0668.0223-.12066.0774-.18899.0945-.0611.0153-.12923-.0199-.18899 0-.0423.0141-.0574.0698-.0945.0945-.0476.20819-.1944.0499-.28348.0945-.0399.0199-.0522.0804-.0945.0945-.0598.0199-.12922-.0199-.18899 0-.0423.0141-.0547.0746-.0945.0945-.0282.0141-.063 0-.0945 0-.063 0-.12922-.0199-.18898 0-.0423.0141-.0546.0746-.0945.0945-.0282.0141-.0646-.01-.0945 0-.0668.0223-.12217.0722-.18899.0945-.0598.0199-.12922-.0199-.18899 0-.0668.0223-.12217.0722-.18899.0945-.0299.01-.0663-.0141-.0945 0-.0398.0199-.0547.0746-.0945.0945-.0282.0141-.0663-.0141-.0945 0-.0398.0199-.0547.0746-.0945.0945-.0282.0141-.0663-.0141-.0945 0-.0398.0199-.0546.0746-.0945.0945-.0282.0141-.0663-.0141-.0945 0-.0399.0199-.0547.0746-.0945.0945-.0282.0141-.0663-.0141-.0945 0-.0398.0199-.0547.0746-.0945.0945-.0282.0141-.0663-.0141-.0945 0-.0398.0199-.0546.0746-.0945.0945-.0282.0141-.0663-.0141-.0945 0-.0797.0398-.1093.14915-.18899.18899-.0563.0282-.14444-.0446-.18899 0-.0223.0223.0223.0722 0 .0945s-.0663-.0141-.0945 0c-.0398.0199-.0546.0746-.0945.0945-.0282.0141-.0663-.0141-.0945 0-.0398.0199-.0547.0746-.0945.0945-.0282.0141-.0663-.0141-.0945 0-.0399.0199-.0547.0746-.0945.0945-.0244.0122-.49999 0-.56696 0-.0315 0-.0663-.0141-.0945 0-.0398.0199-.0547.0746-.0945.0945-.0342.0171-.40675 0-.47247 0h-.94494c-.0657 0-.4383-.0171-.47247 0-.0398.0199-.0547.0746-.0945.0945-.0594.0297-.31858-.0297-.37797 0-.0398.0199-.0522.0804-.0945.0945-.0848.0598-.19383-.0299-.28348 0-.0668.0223-.12217.0722-.18899.0945-.0896.0299-.19383-.0299-.28348 0-.0423.0141-.0522.0804-.0945.0945-.0598.0199-.12923-.0199-.18899 0-.0845.0282-.11486.13957-.18899.18899-.0586.0391-.13038.0554-.18899.0945-.0371.0247-.0522.0804-.0945.0945-.0598.0199-.12922-.0199-.18899 0-.0845.0282-.1093.14915-.18899.18899-.0282.0141-.0722-.0223-.0945 0s.0223.0722 0 .0945-.0663-.0141-.0945 0c-.0251.0125-.27094.2584-.28349.28348-.0141.0282.0223.0722 0 .0945s-.0663-.0141-.0945 0c-.20893.10447-.0293.0587-.0945.18899-.0199.0398-.0746.0547-.0945.0945-.0141.0282.01.0646 0 .0945-.0223.0668-.0722.12217-.0945.18898-.0199.0598.0282.13265 0 .18899-.0199.0398-.0746.0546-.0945.0945-.0378.0756.0378.20788 0 .28348-.0199.0398-.0804.0522-.0945.0945-.0394.11817.0394.5433 0 .66146-.0141.0423-.0746.0547-.0945.0945-.0141.0282 0 .063 0 .0945v.0945.47247.75596c0 .0819-.0182.32323 0 .37797.0223.0668.0722.12217.0945.18899.01.0299 0 .063 0 .0945 0 .0791-.018.40061 0 .47247.0171.0683.0722.12217.0945.18899.01.0299 0 .063 0 .0945v.18898c0 .063-.0153.12788 0 .18899.0171.0683.0774.12066.0945.18899.0186.0743 0 .4687 0 .56697 0 .063-.0199.12922 0 .18898.0141.0423.0804.0522.0945.0945.0199.0598 0 .12599 0 .18898v.18899.66146 2.2679.94494.18899c0 .063-.0199.12922 0 .18898.0141.0423.0804.0522.0945.0945.0199.0598 0 .12599 0 .18899v.28348c0 .063-.0153.12787 0 .18899.0171.0683.063.12599.0945.18898 0 .0945-.0185.19083 0 .28349.0138.0691.0774.12066.0945.18899.0306.12223-.0247.25443 0 .37797.0627.3134.0882.22049.18899.47247.037.0925.063.18899.0945.28348.0315.0945.063.18899.0945.28349 0 .0945-.0229.19181 0 .28348.0108.0432.0804.0522.0945.0945.0283.0851-.0284.19844 0 .28348.0223.0668.0683.1236.0945.18899.037.0925.0575.191.0945.28348.0262.0654.0683.1236.0945.18899.037.0925.063.18899.0945.28349s.0703.18685.0945.28348c.0472.18898-.0945 0 0 .28348.0141.0423.0804.0522.0945.0945.0199.0598-.0124.12722 0 .18899.0195.0977.0671.18771.0945.28348.23731.83057-.0376-.0182.18899.66146.0315.0945.0499.19439.0945.28348.10158.20316.26529.36976.37798.56697.0699.1223.10711.26335.18899.37797.0777.10875.20581.17474.28348.28349.0819.11462.1191.25567.18899.37797.0563.0986.13056.1861.18899.28349.0362.0604.0522.13264.0945.18898.0534.0713.13957.11486.18899.18899.5582.8373-.13203-.0751.28348.75595.0704.14087.19194.24982.28348.37798.066.0924.13264.18488.18899.28348.0699.1223.0988.26976.18899.37798.0727.0872.18899.12599.28348.18899.0945.0945.19793.18082.28348.28348.0727.0872.11805.1948.18899.28348.0557.0696.13334.11942.18899.18899.58169.87253-.16061-.20076.37798.47247.46852.58565-.0109.0309.28348.47247.0494.0741.13957.11486.18899.18899.0391.0586.0722.12217.0945.18898.01.0299-.0223.0722 0 .0945s.0663-.0141.0945 0c.1134.0567.17009.22679.28348.28348.0282.0141.0663-.0141.0945 0 .39326.19663-.10102-.007.0945.18899.0223.0223.0663-.0141.0945 0 .11339.0567.17009.22678.28348.28348.0564.0282.13264-.0282.18899 0 .11339.0567.17009.22679.28348.28348.0282.0141.0663-.0141.0945 0 .39327.19663-.10101-.007.0945.18899.0223.0223.0663-.0141.0945 0 .0398.0199.063.063.0945.0945s.0746.0547.0945.0945c.0141.0282-.0223.0722 0 .0945s.0663-.0141.0945 0c.0797.0399.10931.14915.18899.18899.0282.0141.0663-.0141.0945 0 .0398.0199.0546.0746.0945.0945.15117.0756.0378-.0756.18899 0 .0398.0199.0547.0746.0945.0945.0282.0141.0663-.0141.0945 0 .0398.0199.0547.0746.0945.0945.0564.0282.13264-.0282.18899 0 .0398.0199.0547.0746.0945.0945.0564.0282.14445-.0445.18899 0 .0223.0223-.0223.0722 0 .0945.0473.0472.23624-.0473.28348 0 .0223.0223-.0223.0722 0 .0945.0472.0473.23624-.0472.28349 0 .0223.0223-.0223.0722 0 .0945s.0663-.0141.0945 0c.0398.0199.0547.0746.0945.0945.0282.0141.0722-.0223.0945 0s-.0223.0722 0 .0945c.0445.0445.14444-.0445.18898 0 .0223.0223-.0223.0722 0 .0945s.0663-.0141.0945 0c.0398.0199.0546.0746.0945.0945.0282.0141.0663-.0141.0945 0 .0398.0199.0547.0746.0945.0945.0564.0282.14444-.0446.18899 0 .0223.0223-.0223.0722 0 .0945.0445.0446.14444-.0445.18899 0 .0223.0223-.0223.0722 0 .0945.0445.0445.14444-.0446.18899 0 .0223.0223-.0223.0722 0 .0945s.0722-.0223.0945 0-.0141.0663 0 .0945c.0199.0398.063.063.0945.0945s.0574.0698.0945.0945c.0586.0391.13918.0447.18899.0945.0498.0498.0554.13038.0945.18899.14415.21623.0748-.0591.18899.28348.01.0299-.0223.0722 0 .0945s.0722-.0223.0945 0-.0141.0663 0 .0945c.009.0181.35989.36893.37798.37797.0282.0141.0663-.0141.0945 0 .0797.0399.10931.14915.18899.18899.0282.0141.0722-.0223.0945 0s-.0223.0722 0 .0945.063 0 .0945 0c0 .0315-.0223.0722 0 .0945s.0722-.0223.0945 0-.0223.0722 0 .0945.0722-.0223.0945 0-.0223.0722 0 .0945.0663-.0141.0945 0c.0398.0199.063.063.0945.0945l.0945.0945c.12599.12599.25198.25198.37798.37797l.0945.0945c.0315.0315.0547.0746.0945.0945.0282.0141.0722-.0223.0945 0s-.0223.0722 0 .0945.0722-.0223.0945 0-.0223.0722 0 .0945.0663-.0141.0945 0c.3134.31339-.0891-.0445.18899.0945.0398.0199.0547.0746.0945.0945.0282.0141.0663-.0141.0945 0 .0398.0199.0546.0746.0945.0945.0563.0282.13264-.0282.18898 0 .0399.0199.0547.0746.0945.0945.0282.0141.0663-.0141.0945 0 .0398.0199.0547.0746.0945.0945.0563.0282.13264-.0282.18898 0 .0399.0199.0547.0746.0945.0945.0756.0378.20789-.0378.28348 0 .0398.0199.0547.0746.0945.0945.0282.0141.0663-.0141.0945 0 .0398.0199.0547.0746.0945.0945.0564.0282.14445-.0446.18899 0 .0223.0223-.0223.0722 0 .0945.0306.0306.4125-.03.47247 0 .0398.0199.0547.0746.0945.0945.0756.0378.20789-.0378.28349 0 .0398.0199.0546.0746.0945.0945.0594.0297.31859-.0297.37798 0 .0398.0199.0547.0746.0945.0945.052.026.49309-.0246.56696 0 .0423.0141.0522.0804.0945.0945.43016 0 .005-.0445.28348.0945.0574.0287.50959-.0287.56697 0 .0398.0199.0547.0746.0945.0945.0282.0141.063 0 .0945 0 .063 0 .12923-.0199.18899 0 .0423.0141.0546.0746.0945.0945.0501.0251.40818-.0214.47247 0 .0423.0141.0546.0746.0945.0945.0404.0202.43512 0 .47247 0 .0315 0 .0663.0141.0945 0 .0399-.0199.0547-.0746.0945-.0945.0282-.0141.063 0 .0945 0 .063 0 .12648.008.18899 0 .19012-.0238.37685-.0707.56697-.0945.0625-.008.12922.0199.18898 0 .0423-.0141.0522-.0804.0945-.0945.28348-.0945.0945.0472.28348 0 .0966-.0242.18685-.0703.28348-.0945.0611-.0153.12787.0153.18899 0 .19326-.0483.3737-.14067.56696-.18899.18899-.0472 0 .0945.28349 0 .0423-.0141.0522-.0804.0945-.0945.0598-.0199.12599 0 .18899 0 .0315 0 .0663.0141.0945 0 .0398-.0199.0522-.0804.0945-.0945.0598-.0199.12922.0199.18899 0 .0422-.0141.0546-.0746.0945-.0945.0282-.0141.0646.01.0945 0 .0668-.0223.12217-.0722.18899-.0945.0598-.0199.13264.0282.18899 0 .0398-.0199.0522-.0804.0945-.0945.0897-.0299.19384.0299.28349 0 .0668-.0223.12065-.0774.18898-.0945.0611-.0153.12923.0199.18899 0 .0423-.0141.0574-.0698.0945-.0945.0602-.0401.50567-.26815.56696-.28348.0611-.0153.12787.0153.18899 0 .0613-.0153.50674-.24334.56696-.28348.0371-.0247.0522-.0804.0945-.0945.0598-.0199.12787.0153.18898 0 .0683-.0171.1236-.0683.18899-.0945.58384-.23353.0293.0326.47247-.18899.063-.0315.12599-.063.18899-.0945s.13264-.0522.18899-.0945c.18826-.1412.14925-.2263.37797-.28349.0611-.0153.12788.0153.18899 0 .0683-.0171.126-.063.18899-.0945.12599-.063.25198-.12599.37798-.18899.063-.0315.12066-.0774.18899-.0945.0611-.0153.12787.0153.18898 0 .0683-.0171.126-.063.18899-.0945.12599-.063.25198-.12599.37798-.18898.12599-.063.25198-.126.37797-.18899.063-.0315.13039-.0554.18899-.0945.11119-.0741.17658-.2033.28348-.28348.1127-.0845.26078-.11085.37798-.18899.11119-.0741.17658-.2033.28348-.28348.0564-.0423.13039-.0554.18899-.0945.0371-.0247.0574-.0698.0945-.0945.1172-.0781.26077-.11085.37797-.18899.0371-.0247.0574-.0698.0945-.0945.11721-.0781.26529-.10447.37798-.18899.11644-.0873.25768-.29777.37798-.37798.0586-.0391.13918-.0447.18899-.0945.0498-.0498.0447-.13918.0945-.18898.006-.006.36037-.17726.37797-.18899.1112-.0741.17658-.2033.28349-.28349.0563-.0423.13918-.0447.18899-.0945.0498-.0498.0522-.13264.0945-.18899.0534-.0713.12599-.12599.18899-.18899s.11771-.13553.18899-.18899c.0563-.0422.13264-.0522.18898-.0945.14255-.10691.23544-.27107.37798-.37797.0564-.0423.13918-.0447.18899-.0945.0498-.0498.0447-.13918.0945-.18899.0498-.0498.13919-.0447.18899-.0945s.0522-.13264.0945-.18899c.13229-.17639.34017-.29608.47246-.47247.0423-.0563.063-.12599.0945-.18899.063-.063.13553-.11771.18899-.18899.0845-.11269.0894-.27836.18899-.37797.0498-.0498.13918-.0447.18898-.0945.006-.006.17726-.36037.18899-.37797.0247-.0371.0698-.0574.0945-.0945.1163-.17446.16718-.39252.28348-.56697.0247-.0371.0804-.0522.0945-.0945.0199-.0598-.0153-.12788 0-.18899.0171-.0683.0722-.12217.0945-.18899.01-.0299-.01-.0646 0-.0945.0223-.0668.0722-.12218.0945-.18899.01-.0299-.01-.0646 0-.0945.0223-.0668.0722-.12217.0945-.18898.01-.0299-.01-.0646 0-.0945.0223-.0668.0722-.12217.0945-.18899.01-.0299-.0141-.0663 0-.0945.0199-.0398.0804-.0522.0945-.0945.0199-.0598 0-.12599 0-.18898 0-.063-.0199-.12923 0-.18899.0141-.0423.063-.063.0945-.0945.0315-.063.0774-.12067.0945-.18899.0153-.0611-.0153-.12788 0-.18899.0342-.13666.14444-.24434.18899-.37798.01-.0299-.01-.0646 0-.0945-.057-.17103.15307-.17574.18899-.28348.0199-.0598-.0199-.12923 0-.18899.0141-.0423.0746-.0546.0945-.0945.0141-.0282-.01-.0646 0-.0945.0223-.0668.0722-.12217.0945-.18899.0265-.0796-.0281-.41621 0-.47247.0199-.0398.0804-.0522.0945-.0945.0199-.0598 0-.12599 0-.18899v-.18899-.66146c0-.0945-.0299-.19383 0-.28348.0141-.0423.0746-.0546.0945-.0945.0141-.0282 0-.063 0-.0945v-.18898-.75596-.85044c0-.0653.0144-.34925 0-.37798-.0199-.0398-.0746-.0546-.0945-.0945-.0273-.0546.0232-.47426 0-.56697-.0171-.0683-.0722-.12217-.0945-.18899-.0302-.0905.0292-.38493 0-.47247-.0141-.0423-.0804-.0522-.0945-.0945-.0284-.085.0283-.19844 0-.28348-.0223-.0668-.0722-.12217-.0945-.18899-.0199-.0598.0282-.13264 0-.18899-.0199-.0398-.0746-.0546-.0945-.0945-.0141-.0282.0141-.0663 0-.0945-.0199-.0398-.0746-.0546-.0945-.0945-.0141-.0282.0141-.0663 0-.0945-.0199-.0398-.0804-.0522-.0945-.0945-.0199-.0598.0199-.12922 0-.18899-.0282-.0845-.14914-.1093-.18898-.18899-.0141-.0282.01-.0646 0-.0945-.0223-.0668-.0722-.12217-.0945-.18899-.0199-.0598.0199-.12922 0-.18898-.0223-.0668-.0722-.12218-.0945-.18899-.01-.0299.0141-.0663 0-.0945-.0199-.0398-.0804-.0522-.0945-.0945-.0199-.0598.0199-.12923 0-.18899-.0141-.0423-.0746-.0546-.0945-.0945-.0282-.0563.0282-.13265 0-.18899-.0199-.0398-.0804-.0522-.0945-.0945-.0283-.085.0283-.19843 0-.28348-.0223-.0668-.0722-.12217-.0945-.18899-.01-.0299.0141-.0663 0-.0945-.0199-.0398-.0804-.0522-.0945-.0945-.0199-.0598.0199-.12923 0-.18899-.0141-.0423-.0698-.0574-.0945-.0945-.0391-.0586-.063-.12599-.0945-.18899s-.0722-.12216-.0945-.18898c-.01-.0299.01-.0646 0-.0945.057-.17102-.15308-.17574-.18899-.28348-.0199-.0598.0199-.12922 0-.18899-.0141-.0423-.0804-.0522-.0945-.0945-.0199-.0598.0199-.12923 0-.18899-.023-.069-.35497-.30895-.37797-.37798-.0199-.0598.0199-.12922 0-.18898-.0282-.0845-.13957-.11487-.18899-.18899-.0391-.0586-.0554-.13039-.0945-.18899-.0494-.0741-.14914-.1093-.18898-.18899-.0141-.0282.01-.0646 0-.0945-.22816-.68446.0272.14898-.18899-.28348-.0141-.0282.0141-.0663 0-.0945-.0199-.0398-.0746-.0547-.0945-.0945-.0282-.0563.0282-.13265 0-.18899-.0199-.0398-.0746-.0546-.0945-.0945-.0141-.0282.0141-.0663 0-.0945-.0199-.0398-.0746-.0547-.0945-.0945-.0141-.0282.0141-.0663 0-.0945-.0199-.0398-.0746-.0546-.0945-.0945-.0141-.0282.0141-.0663 0-.0945-.0199-.0399-.0746-.0547-.0945-.0945-.0282-.0563.0445-.14444 0-.18899-.0223-.0223-.0722.0223-.0945 0-.0472-.0472.0472-.23623 0-.28348-.0223-.0223-.0722.0223-.0945 0s.0141-.0663 0-.0945c-.0199-.0398-.0746-.0546-.0945-.0945-.0282-.0563.0282-.13264 0-.18898-.0199-.0399-.0746-.0547-.0945-.0945-.0141-.0282.0223-.0722 0-.0945s-.0722.0223-.0945 0c-.0445-.0446.0445-.14445 0-.18899-.0223-.0223-.0722.0223-.0945 0-.0445-.0446.0446-.14444 0-.18899-.0223-.0223-.0722.0223-.0945 0-.0445-.0445.0282-.13264 0-.18899-.0199-.0398-.0746-.0546-.0945-.0945-.0282-.0563.0445-.14444 0-.18899-.0223-.0223-.0945.0315-.0945 0s.0945.0315.0945 0c0-.0445-.0746-.0546-.0945-.0945-.0187-.0375.0193-.26417 0-.28348-.0223-.0223-.0722.0223-.0945 0s0-.063 0-.0945c-.0945-.0315-.18899-.063-.28348-.0945z"
     fill="none"
     stroke="#000"
     stroke-width=".26458px"
     id="path2" />
</svg>
