<?xml version="1.0" encoding="UTF-8" standalone="no"?>
<!-- Created with Inkscape (http://www.inkscape.org/) -->

<svg
   width="169.33333mm"
   height="127mm"
   viewBox="0 0 169.33333 127"
   version="1.1"
   id="svg5"
   inkscape:version="1.1.2 (08b2f3d93c, 2022-04-05)"
   sodipodi:docname="ArteríolaRamoDaArtériaHepática.svg"
   xmlns:inkscape="http://www.inkscape.org/namespaces/inkscape"
   xmlns:sodipodi="http://sodipodi.sourceforge.net/DTD/sodipodi-0.dtd"
   xmlns="http://www.w3.org/2000/svg"
   xmlns:svg="http://www.w3.org/2000/svg">
  <sodipodi:namedview
     id="namedview7"
     pagecolor="#ffffff"
     bordercolor="#666666"
     borderopacity="1.0"
     inkscape:pageshadow="2"
     inkscape:pageopacity="0.0"
     inkscape:pagecheckerboard="0"
     inkscape:document-units="mm"
     showgrid="false"
     inkscape:zoom="2.0149341"
     inkscape:cx="512.67185"
     inkscape:cy="180.40292"
     inkscape:window-width="1366"
     inkscape:window-height="704"
     inkscape:window-x="0"
     inkscape:window-y="27"
     inkscape:window-maximized="1"
     inkscape:current-layer="layer2" />
  <defs
     id="defs2">
    <inkscape:path-effect
       effect="simplify"
       id="path-effect73"
       is_visible="true"
       lpeversion="1"
       steps="1"
       threshold="0.000408163"
       smooth_angles="360"
       helper_size="0"
       simplify_individual_paths="false"
       simplify_just_coalesce="false" />
    <inkscape:path-effect
       effect="simplify"
       id="path-effect69"
       is_visible="true"
       lpeversion="1"
       steps="1"
       threshold="0.000408163"
       smooth_angles="360"
       helper_size="0"
       simplify_individual_paths="false"
       simplify_just_coalesce="false" />
    <inkscape:path-effect
       effect="simplify"
       id="path-effect65"
       is_visible="true"
       lpeversion="1"
       steps="1"
       threshold="0.000408163"
       smooth_angles="360"
       helper_size="0"
       simplify_individual_paths="false"
       simplify_just_coalesce="false" />
    <inkscape:path-effect
       effect="simplify"
       id="path-effect61"
       is_visible="true"
       lpeversion="1"
       steps="1"
       threshold="0.000408163"
       smooth_angles="360"
       helper_size="0"
       simplify_individual_paths="false"
       simplify_just_coalesce="false" />
    <inkscape:path-effect
       effect="simplify"
       id="path-effect57"
       is_visible="true"
       lpeversion="1"
       steps="1"
       threshold="0.000408163"
       smooth_angles="360"
       helper_size="0"
       simplify_individual_paths="false"
       simplify_just_coalesce="false" />
  </defs>
  <g
     inkscape:groupmode="layer"
     id="layer2"
     inkscape:label="arteríola ramo da artéria hepática">
    <path
       style="fill:none;stroke:#000000;stroke-width:0.264583px;stroke-linecap:butt;stroke-linejoin:miter;stroke-opacity:1"
       d="m 149.29114,45.154249 c -0.85776,0.75451 -1.83101,1.404375 -2.91235,1.774168 -0.22574,0.0772 -0.47432,0.05302 -0.69423,0.156105 -0.43575,0.204269 -0.80052,0.523919 -1.18193,0.811457 -0.10085,0.07603 -0.19465,0.163986 -0.30629,0.223335 -0.24354,0.129473 -0.51576,0.187832 -0.77121,0.288228 -0.25677,0.100915 -0.53824,0.08483 -0.80817,0.07029 -0.2671,-0.01439 -0.54571,-0.02875 -0.79933,0.07224 -0.13542,0.05392 -0.25434,0.139833 -0.37844,0.214778 -0.62717,0.378756 -1.26821,0.744467 -1.82806,1.221814 -0.31119,0.265331 -0.57108,0.583978 -0.80854,0.915482 -0.28561,0.39873 -0.53201,0.825524 -0.83704,1.209921 -0.30514,0.38454 -0.72603,0.664901 -0.99823,1.077249 -0.36242,0.549022 -0.85684,0.989763 -1.33054,1.439385 -0.42549,0.403862 -0.81881,0.846237 -1.12105,1.354243 -0.11872,0.199547 -0.13204,0.435918 -0.17526,0.65838 -0.0237,0.12177 -0.0763,0.234555 -0.12984,0.345673 -0.18421,0.382036 -0.42141,0.746414 -0.52531,1.159685 -0.0605,0.240725 0.0552,0.494829 -0.0326,0.73129 -0.11951,0.321705 -0.35891,0.576144 -0.52853,0.870226 -0.0742,0.128731 -0.12116,0.270702 -0.15128,0.416652 -0.0974,0.471677 -0.31977,0.914646 -0.36915,1.394919 -0.0175,0.170315 0.0817,0.341282 0.023,0.507859 -0.1383,0.392287 -0.37139,0.745724 -0.48553,1.147459 -0.0695,0.244553 -0.13476,0.492369 -0.15852,0.74608 -0.007,0.07966 -9.3e-4,0.160359 0.0301,0.235934 0.12892,0.314372 0.33361,0.593026 0.56732,0.836969 0.2311,0.241223 0.49019,0.463504 0.79207,0.610409 0.22246,0.108257 0.49207,0.139286 0.67077,0.3202 0.43021,0.435538 0.80931,0.917563 1.19341,1.393286 0.24637,0.305141 0.43517,0.675342 0.75474,0.902758 0.12125,0.08628 0.2562,0.151201 0.38897,0.217595 0.29561,0.147822 0.59084,0.297298 0.89414,0.42857 0.23533,0.101852 0.49851,0.130695 0.75193,0.09397 0.31123,-0.0451 0.59275,-0.22274 0.904,-0.25358 0.0972,-0.0096 0.18676,0.04001 0.2712,0.08055 0.0359,0.01724 0.13692,0.04705 0.12061,-0.01906 -0.0163,-0.06629 -0.10032,-0.07644 -0.15551,-0.05319 -0.10074,0.04244 -0.17239,0.131624 -0.23559,0.217265"
       id="path63"
       inkscape:path-effect="#path-effect65"
       inkscape:original-d="m 149.29114,45.154249 c -0.85354,0.750432 -1.82323,1.346404 -2.87918,1.761979 -0.23585,0.09282 -0.47267,0.05016 -0.708,0.159216 -0.55354,0.256508 -0.96685,0.659696 -1.45139,1.008364 -0.17939,0.12908 -0.59099,0.227163 -0.8142,0.318431 -0.56422,0.230706 -1.22632,-0.113323 -1.76999,0.222901 -0.76896,0.475552 -1.68877,0.959731 -2.32459,1.613379 -0.51101,0.525333 -0.895,1.223555 -1.33339,1.815058 -0.31345,0.42292 -0.74753,0.692581 -1.0502,1.146349 -0.71167,1.06694 -1.85459,1.668082 -2.46619,2.823417 -0.13064,0.246771 -0.10341,0.57596 -0.2242,0.838536 -0.18823,0.409186 -0.44168,0.83331 -0.5782,1.263107 -0.073,0.229984 0.0456,0.509733 -0.0354,0.743003 -0.14825,0.426736 -0.58969,0.794509 -0.67259,1.24188 -0.0868,0.468286 -0.30273,0.961594 -0.3776,1.432939 -0.0288,0.181115 0.0835,0.358333 0.0118,0.551949 -0.13218,0.356698 -0.32688,0.665237 -0.4484,1.029587 -0.0629,0.188674 -0.23947,0.843362 -0.177,1.018976 0.20293,0.570471 0.85192,1.25136 1.39239,1.507242 0.22792,0.107905 0.50134,0.151463 0.6844,0.339658 0.67914,0.698186 1.2526,1.519889 1.91159,2.260862 0.0816,0.09175 1.06351,0.548754 1.2272,0.626245 0.63235,0.299355 1.11622,0.05098 1.71099,-0.127375 0.1153,-0.03458 0.32741,0.132696 0.3894,0.09553 0.0646,-0.03872 -0.0934,-0.27033 -0.3776,0.127367" />
    <path
       style="fill:none;stroke:#000000;stroke-width:0.264583px;stroke-linecap:butt;stroke-linejoin:miter;stroke-opacity:1"
       d="m 149.29114,45.154249 c 0.0695,0.0994 0.1037,0.22632 0.088,0.34764 -0.009,0.06704 -0.0675,0.110546 -0.13609,0.122276 -0.0704,0.01204 -0.11873,-0.0491 -0.14833,-0.103462 -0.0496,-0.09117 -0.0918,-0.201834 -0.0597,-0.305234 0.0231,-0.07439 0.11112,-0.09179 0.17909,-0.07919 0.0448,0.0083 0.0719,0.02078 0.11285,-0.02273 0.0865,-0.09183 0.17564,-0.189095 0.29399,-0.240614 0.0535,-0.02329 0.11766,-4.7e-5 0.14556,0.05137 0.0612,0.11279 0.0662,0.244819 0.0798,0.369837 0.0168,0.154517 0.0198,0.313833 0.0754,0.460867 0.0202,0.05349 0.0643,0.0946 0.1218,0.110034 0.21504,0.05774 0.45445,-0.05895 0.65571,0.04847 0.25548,0.136352 0.51639,0.264526 0.76007,0.421279 0.0854,0.05496 0.18374,0.09851 0.24826,0.17762 0.0933,0.114406 0.0903,0.270465 0.10755,0.409692 0.01,0.08018 0.0222,0.17168 0.0962,0.224113 0.3636,0.25772 0.79278,0.393228 1.1859,0.596741 0.1638,0.0848 0.35616,0.06495 0.52942,0.02164 0.20971,-0.05242 0.42003,-0.162325 0.63825,-0.124858 0.14785,0.02538 0.271,0.121634 0.37879,0.220086 0.23929,0.218553 0.44671,0.472068 0.61752,0.746473 0.0661,0.106206 0.14386,0.209351 0.18054,0.329756 0.0547,0.179509 -0.002,0.384127 0.0981,0.550362 0.15022,0.248579 0.31799,0.493177 0.39767,0.776765 0.0407,0.144713 0.0142,0.295387 -0.009,0.440788 -0.0281,0.179188 -0.0783,0.360694 -0.054,0.542468 0.0139,0.103807 0.0697,0.196208 0.12436,0.28333 0.0656,0.104531 0.16715,0.176783 0.25381,0.262016 0.12183,0.119818 0.15366,0.297154 0.16607,0.46033 0.0152,0.199638 0.0188,0.402575 -0.0261,0.599454 -0.0917,0.40243 -0.33756,0.757258 -0.38859,1.169655 -0.0213,0.172134 -0.0104,0.34632 0.002,0.5186 0.0148,0.19909 0.0214,0.402122 0.0779,0.59396 0.0513,0.174285 0.2041,0.287869 0.34114,0.393708 0.15209,0.117458 0.30348,0.25714 0.35964,0.447619 0.0648,0.219781 0.0171,0.455931 -0.0627,0.664395 -0.17913,0.467945 -0.57167,0.807793 -0.78191,1.259872 -0.0504,0.108482 -0.0783,0.227744 -0.0704,0.347899 0.0122,0.186317 0.0501,0.372316 0.0264,0.559826 -0.0359,0.283866 -0.17452,0.547649 -0.36749,0.757075 -0.3447,0.374097 -0.81045,0.618794 -1.12793,1.019742 -0.10949,0.138274 -0.19905,0.295714 -0.23481,0.470878 -0.0319,0.156235 -0.0582,0.315424 -0.13166,0.460253 -0.18287,0.360543 -0.44421,0.672716 -0.71469,0.970173 -0.2098,0.230721 -0.41399,0.46662 -0.60323,0.71486 -0.44797,0.587642 -0.84806,1.226176 -1.40451,1.715875 -0.15021,0.132191 -0.35821,0.170795 -0.50221,0.31561 -0.53606,0.539106 -1.03538,1.119387 -1.6362,1.590338 -0.13776,0.107983 -0.28635,0.201434 -0.4445,0.277214 -0.31178,0.14939 -0.64851,0.242113 -0.9543,0.403782 -0.35461,0.187483 -0.61087,0.504325 -0.90392,0.769353 -0.17614,0.159298 -0.36977,0.297716 -0.56238,0.436058 -0.47566,0.341644 -0.97636,0.670305 -1.53699,0.842982 -0.0905,0.02787 -0.16979,0.07967 -0.25027,0.128401 -0.0978,0.0592 -0.18841,0.151161 -0.30385,0.161416 -0.0681,0.006 -0.13616,-0.01252 -0.20259,-0.02622 -0.34805,-0.07177 -0.68717,-0.192646 -1.04647,-0.208165 -0.14556,-0.0063 -0.2901,0.01442 -0.43519,0.02351 -0.15385,0.0096 -0.29696,-0.06004 -0.43961,-0.107283 -0.0761,-0.02521 -0.14816,-0.06591 -0.23244,-0.062 -0.0806,0.0037 -0.17105,0.02312 -0.24267,-0.03189 -0.10814,-0.08306 -0.25216,-0.07809 -0.37356,-0.128755 -0.0885,-0.03693 -0.16329,-0.100079 -0.2355,-0.161717 -0.13335,-0.113832 -0.25599,-0.250594 -0.42774,-0.306915 -0.26369,-0.08647 -0.54913,-0.05298 -0.81269,0.0096 -0.0907,0.02154 -0.17974,0.04335 -0.27118,0.06788 -0.0423,0.01135 -0.14982,0.07861 -0.13323,0.0444 0.0268,-0.05538 0.0981,-0.07041 0.1528,-0.08778 0.15962,-0.05065 0.65231,-0.149244 0.48828,-0.116293 -0.35885,0.07209 -0.71677,0.148833 -1.07513,0.223332"
       id="path67"
       inkscape:path-effect="#path-effect69"
       inkscape:original-d="m 149.29114,45.154249 c 0.10708,0.138925 0.17298,0.507116 -0.0944,0.467029 -0.12592,-0.01889 -0.35828,-0.606637 0.0944,-0.467029 0.78195,-0.905521 0.40477,0.58719 0.7198,0.700542 0.22934,0.08252 0.49724,-0.04804 0.7198,0.0743 0.25746,0.141529 0.73202,0.384154 0.94399,0.551945 0.19274,0.152567 0.0856,0.55241 0.21241,0.647475 0.33902,0.254127 0.82009,0.404397 1.19179,0.60502 0.38782,0.20932 0.7806,-0.120436 1.16819,-0.09553 0.37295,0.02397 0.99765,0.886084 1.1682,1.231265 0.099,0.200297 0.0118,0.432699 0.1298,0.626245 0.15557,0.255193 0.38654,0.582392 0.413,0.891608 0.0209,0.244145 -0.15573,0.729086 -0.059,0.955292 0.24821,0.580482 0.531,0.231214 0.531,1.199419 0,0.591958 -0.4366,1.076283 -0.4366,1.634615 0,0.255661 0.026,0.651788 0.0826,0.923446 0.10286,0.493596 0.98365,0.477226 0.67259,1.464783 -0.1699,0.539409 -0.67419,0.917631 -0.84959,1.443549 -0.11171,0.334938 0.14643,0.617976 -0.118,1.18881 -0.3086,0.666178 -1.21164,0.968859 -1.54579,1.645224 -0.0972,0.196709 -0.0794,0.428709 -0.17701,0.626245 -0.33043,0.668742 -0.81024,1.042265 -1.25079,1.613386 -0.487,0.631354 -0.91004,1.247069 -1.475,1.81505 -0.13946,0.140213 -0.35782,0.170116 -0.49559,0.307816 -0.57026,0.569958 -1.15279,1.265296 -1.8172,1.730145 -0.32114,0.224687 -0.83561,0.369954 -1.19179,0.54133 -0.45664,0.219712 -0.74319,0.644257 -1.13279,0.944678 -0.64091,0.494208 -1.23225,0.876592 -1.99419,1.156965 -0.12303,0.04527 -0.40608,0.279887 -0.5192,0.265353 -0.37168,-0.04775 -0.76102,-0.215915 -1.1328,-0.233513 -0.66079,-0.03127 -0.40367,0.13461 -1.0856,-0.137985 -0.0948,-0.03791 -0.24718,0.03469 -0.33039,-0.03184 -0.15024,-0.120129 -0.32692,-0.09035 -0.4484,-0.169828 -0.33722,-0.220618 -0.38322,-0.426834 -0.7788,-0.477647 -0.27702,-0.03559 -0.55997,0.03705 -0.826,0.08491 -0.0356,0.0064 -0.20779,0.09319 -0.21239,0.08491 -0.0506,-0.09106 0.69259,-0.223364 0.63719,-0.212288 -0.35844,0.07165 -0.71581,0.148592 -1.07371,0.22289" />
  </g>
</svg>
