<?xml version="1.0" encoding="UTF-8" standalone="no"?>
<!-- Created with Inkscape (http://www.inkscape.org/) -->

<svg
   width="169.33333mm"
   height="127mm"
   viewBox="0 0 169.33333 127"
   version="1.1"
   id="svg5"
   inkscape:version="1.1.2 (08b2f3d93c, 2022-04-05)"
   sodipodi:docname="CamadaMuscular.svg"
   xmlns:inkscape="http://www.inkscape.org/namespaces/inkscape"
   xmlns:sodipodi="http://sodipodi.sourceforge.net/DTD/sodipodi-0.dtd"
   xmlns="http://www.w3.org/2000/svg"
   xmlns:svg="http://www.w3.org/2000/svg">
  <sodipodi:namedview
     id="namedview7"
     pagecolor="#ffffff"
     bordercolor="#666666"
     borderopacity="1.0"
     inkscape:pageshadow="2"
     inkscape:pageopacity="0.0"
     inkscape:pagecheckerboard="0"
     inkscape:document-units="mm"
     showgrid="false"
     inkscape:zoom="0.5766992"
     inkscape:cx="462.97966"
     inkscape:cy="273.10598"
     inkscape:window-width="1366"
     inkscape:window-height="704"
     inkscape:window-x="0"
     inkscape:window-y="27"
     inkscape:window-maximized="1"
     inkscape:current-layer="layer2" />
  <defs
     id="defs2">
    <inkscape:path-effect
       effect="simplify"
       id="path-effect65"
       is_visible="true"
       lpeversion="1"
       steps="1"
       threshold="0.000408163"
       smooth_angles="360"
       helper_size="0"
       simplify_individual_paths="false"
       simplify_just_coalesce="false" />
    <inkscape:path-effect
       effect="simplify"
       id="path-effect61"
       is_visible="true"
       lpeversion="1"
       steps="1"
       threshold="0.000408163"
       smooth_angles="360"
       helper_size="0"
       simplify_individual_paths="false"
       simplify_just_coalesce="false" />
    <inkscape:path-effect
       effect="simplify"
       id="path-effect57"
       is_visible="true"
       lpeversion="1"
       steps="1"
       threshold="0.000408163"
       smooth_angles="360"
       helper_size="0"
       simplify_individual_paths="false"
       simplify_just_coalesce="false" />
  </defs>
  <g
     inkscape:groupmode="layer"
     id="layer2"
     inkscape:label="Camada Muscular">
    <path
       style="fill:none;stroke:#000000;stroke-width:0.264583px;stroke-linecap:butt;stroke-linejoin:miter;stroke-opacity:1"
       d="m 67.768848,127.7485 c 0.257123,-0.37027 0.534628,-0.72745 0.740079,-1.13211 0.773794,-1.52407 1.192252,-3.18978 1.69974,-4.81268 0.295821,-0.94601 0.690282,-1.85722 1.11973,-2.74956 0.631458,-1.31209 1.31654,-2.60391 1.794207,-3.98423 0.485101,-1.4018 0.859957,-2.85731 1.597181,-4.15682 0.774376,-1.365 1.817809,-2.5586 2.537145,-3.9584 0.581447,-1.13147 1.058929,-2.32099 1.767927,-3.38398 0.802733,-1.20353 1.76797,-2.30241 2.423337,-3.6015 0.396065,-0.785095 0.760477,-1.597463 1.323052,-2.283913 0.541736,-0.661022 1.155709,-1.270348 1.574124,-2.026861 0.953674,-1.724283 2.003317,-3.398428 2.818222,-5.197507 0.470926,-1.039671 0.96378,-2.107731 1.786721,-2.920264 0.592207,-0.584717 1.324974,-0.997551 1.928744,-1.570949 1.192456,-1.13247 2.199336,-2.448324 3.456991,-3.51583 0.781956,-0.66373 1.84494,-1.002164 2.469312,-1.824796 0.140095,-0.18458 0.157412,-0.423964 0.269544,-0.625538 0.461179,-0.829038 0.996394,-1.620905 1.621262,-2.332854 0.477797,-0.544382 1.131963,-0.879019 1.721314,-1.283052 0.29901,-0.204988 0.56656,-0.453637 0.78579,-0.744039 0.26126,-0.346081 0.5257,-0.701171 0.89447,-0.944387 0.83106,-0.548113 1.83605,-0.738715 2.67404,-1.278683 1.16797,-0.752591 2.16293,-1.765185 3.4173,-2.382646 0.91192,-0.44889 1.92351,-0.632358 2.91927,-0.788439 1.03826,-0.162743 2.07934,-0.339687 3.07697,-0.689205 1.51178,-0.529648 3.12892,-0.630648 4.71919,-0.651481 0.56715,-0.0074 1.13451,0.02518 1.70134,0.0078 0.55462,-0.01698 1.13943,-0.117364 1.66724,0.09519 0.16997,0.06845 0.65745,0.321245 0.49965,0.228384 -0.26572,-0.156374 -0.59075,-0.08587 -0.87137,-0.01564 -0.16149,0.04042 -0.32001,0.09183 -0.48173,0.131322"
       id="path55"
       inkscape:path-effect="#path-effect57"
       inkscape:original-d="m 67.768848,127.7485 c 0.211378,-0.31022 0.455488,-0.60051 0.634134,-0.93067 0.9226,-1.70506 1.361686,-3.7737 2.00252,-5.59909 0.623084,-1.77483 1.575777,-3.34972 2.302891,-5.05869 0.678913,-1.59569 1.037257,-3.38821 1.835645,-4.9236 0.661189,-1.27154 1.573308,-2.331 2.302891,-3.54259 0.665737,-1.10556 1.114589,-2.32139 1.752211,-3.43751 0.759759,-1.32992 1.825707,-2.46802 2.586577,-3.79777 0.453335,-0.792281 0.771986,-1.648988 1.301637,-2.40176 0.541395,-0.769461 1.330362,-1.434898 1.78558,-2.266653 0.877324,-1.603005 1.968547,-3.307683 2.720086,-4.953617 0.520152,-1.139176 1.0224,-2.341816 1.919076,-3.25738 0.539975,-0.55135 1.23359,-0.935379 1.802275,-1.45606 1.289997,-1.181111 2.280089,-2.572782 3.704656,-3.737729 0.754581,-0.617067 1.707864,-1.054437 2.386333,-1.756281 0.09377,-0.097 0.168412,-0.43398 0.200258,-0.495363 0.407371,-0.785217 1.095499,-1.728412 1.652071,-2.416768 0.536705,-0.663784 1.528701,-1.074891 2.169391,-1.651204 0.40347,-0.362929 0.6545,-0.904226 1.10139,-1.245912 0.78458,-0.599892 1.83508,-0.783474 2.67002,-1.290944 1.34928,-0.820084 2.5778,-2.136114 4.07178,-2.701973 1.74351,-0.660366 3.6494,-0.581491 5.37343,-1.215887 2.01086,-0.739942 4.16483,-0.724385 6.27456,-0.690505 0.60209,0.0097 1.28699,-0.119927 1.86901,0.06004 0.19133,0.05916 0.72692,0.335293 0.55069,0.240176 -0.35686,-0.192612 -0.9572,0.04911 -1.31832,0.135101" />
    <path
       style="fill:none;stroke:#000000;stroke-width:0.264583px;stroke-linecap:butt;stroke-linejoin:miter;stroke-opacity:1"
       d="m 169.33058,83.391109 c -0.30702,-0.27893 -0.57239,-0.61342 -0.93069,-0.827652 -0.40928,-0.244713 -0.8866,-0.325431 -1.34211,-0.441684 -0.2951,-0.07531 -0.58201,-0.18251 -0.84825,-0.334266 -0.71065,-0.405066 -1.46423,-0.759025 -2.08084,-1.303877 -0.28625,-0.252938 -0.48319,-0.602509 -0.82451,-0.79521 -0.0861,-0.04858 -0.17968,-0.07139 -0.28352,-0.07797 -0.16169,-0.01024 -0.31069,-0.09031 -0.44581,-0.173364 -0.41213,-0.253327 -0.7432,-0.625446 -1.1908,-0.825831 -0.55877,-0.250156 -1.17778,-0.332888 -1.72542,-0.614284 -0.19138,-0.09834 -0.34161,-0.257261 -0.46361,-0.431911 -0.39088,-0.559544 -0.6507,-1.19634 -1.01195,-1.773812 -0.10328,-0.165099 -0.22987,-0.314391 -0.38293,-0.437974 -0.9249,-0.746779 -2.04535,-1.201446 -3.17756,-1.530878 -1.51472,-0.440731 -3.09006,-0.628888 -4.60753,-1.05513 -0.44391,-0.12469 -0.86637,-0.326359 -1.32824,-0.388508 -1.50609,-0.202658 -3.02362,-0.330464 -4.54281,-0.353652 -0.99217,-0.01514 -1.98741,0.150177 -2.97661,0.01311 -0.24643,-0.03415 -0.49504,-0.0817 -0.71664,-0.202065 -0.24944,-0.135484 -0.48445,-0.295926 -0.74587,-0.410743 -0.93923,-0.412521 -1.89844,-0.784526 -2.8848,-1.068577 -0.52216,-0.150372 -1.0573,-0.257716 -1.60018,-0.298575 -1.07814,-0.08114 -2.16807,0.03739 -3.23899,-0.147614 -0.31338,-0.05414 -0.61314,-0.162141 -0.91522,-0.260323 -0.45023,-0.146334 -0.92838,-0.179586 -1.37478,-0.343674 -0.67299,-0.247378 -1.31162,-0.59568 -2.01831,-0.745977 -0.91875,-0.195396 -1.86538,-0.150323 -2.79654,-0.09429 -0.44436,0.02674 -0.88848,0.09875 -1.33327,0.0795 -0.50432,-0.02183 -1.0043,-0.138633 -1.51036,-0.108308 -0.14475,0.0087 -0.30912,0.03896 -0.39494,0.16945 -0.14623,0.222359 -0.13154,0.504191 -0.21785,0.748819"
       id="path63"
       inkscape:path-effect="#path-effect65"
       inkscape:original-d="m 169.33058,83.391109 c -0.27256,-0.250179 -0.52287,-0.527018 -0.8177,-0.750543 -0.57757,-0.437901 -1.57204,-0.432475 -2.20277,-0.795581 -0.70951,-0.408456 -1.54652,-0.820986 -2.16939,-1.350986 -0.25722,-0.218869 -0.47366,-0.589272 -0.76763,-0.765562 -0.40277,-0.241527 -0.2173,-0.01516 -0.61744,-0.195143 -0.39318,-0.17684 -0.73456,-0.553712 -1.10138,-0.780569 -0.64432,-0.398459 -1.57165,-0.437488 -2.15272,-0.855625 -0.55135,-0.396759 -1.14121,-2.073206 -1.602,-2.461797 -2.1037,-1.774082 -5.30828,-1.994942 -7.8432,-2.656943 -0.44219,-0.115478 -0.8304,-0.325067 -1.30164,-0.390282 -1.44648,-0.20017 -3.02065,-0.31624 -4.48898,-0.360262 -1.15561,-0.03465 -2.27078,0.193715 -3.42097,-0.04504 -0.4092,-0.08494 -0.6645,-0.343898 -1.03463,-0.510368 -1.10282,-0.496004 -2.8523,-1.171393 -4.02173,-1.350986 -1.55994,-0.239567 -3.16908,0.124954 -4.62248,-0.435319 -0.42341,-0.163222 -0.90398,-0.184854 -1.335,-0.330243 -0.66796,-0.225319 -1.2722,-0.571426 -1.96915,-0.750546 -1.33619,-0.343413 -2.87042,-0.123153 -4.23866,-0.06004 -0.38666,0.01783 -1.46999,-0.211862 -1.83564,-0.06005 -0.29096,0.120801 -0.26384,0.573225 -0.36783,0.870607" />
  </g>
</svg>
