<?xml version="1.0" encoding="UTF-8" standalone="no"?>
<!-- Created with Inkscape (http://www.inkscape.org/) -->

<svg
   width="169.33333mm"
   height="127mm"
   viewBox="0 0 169.33333 127"
   version="1.1"
   id="svg5"
   inkscape:version="1.1.2 (08b2f3d93c, 2022-04-05)"
   sodipodi:docname="CelulaMuscular.svg"
   xmlns:inkscape="http://www.inkscape.org/namespaces/inkscape"
   xmlns:sodipodi="http://sodipodi.sourceforge.net/DTD/sodipodi-0.dtd"
   xmlns="http://www.w3.org/2000/svg"
   xmlns:svg="http://www.w3.org/2000/svg">
  <sodipodi:namedview
     id="namedview7"
     pagecolor="#ffffff"
     bordercolor="#666666"
     borderopacity="1.0"
     inkscape:pageshadow="2"
     inkscape:pageopacity="0.0"
     inkscape:pagecheckerboard="0"
     inkscape:document-units="mm"
     showgrid="false"
     inkscape:zoom="1.15"
     inkscape:cx="334.78261"
     inkscape:cy="289.13043"
     inkscape:window-width="1366"
     inkscape:window-height="704"
     inkscape:window-x="0"
     inkscape:window-y="27"
     inkscape:window-maximized="1"
     inkscape:current-layer="layer2" />
  <defs
     id="defs2">
    <inkscape:path-effect
       effect="simplify"
       id="path-effect65"
       is_visible="true"
       lpeversion="1"
       steps="1"
       threshold="0.000408163"
       smooth_angles="360"
       helper_size="0"
       simplify_individual_paths="false"
       simplify_just_coalesce="false" />
    <inkscape:path-effect
       effect="simplify"
       id="path-effect61"
       is_visible="true"
       lpeversion="1"
       steps="1"
       threshold="0.000408163"
       smooth_angles="360"
       helper_size="0"
       simplify_individual_paths="false"
       simplify_just_coalesce="false" />
    <inkscape:path-effect
       effect="simplify"
       id="path-effect57"
       is_visible="true"
       lpeversion="1"
       steps="1"
       threshold="0.000408163"
       smooth_angles="360"
       helper_size="0"
       simplify_individual_paths="false"
       simplify_just_coalesce="false" />
  </defs>
  <g
     inkscape:groupmode="layer"
     id="layer2"
     inkscape:label="CelulasMusculares">
    <path
       style="fill:none;stroke:#000000;stroke-width:0.264583px;stroke-linecap:butt;stroke-linejoin:miter;stroke-opacity:1"
       d="m 52.629082,54.572362 c 0.312868,-0.299423 0.737865,-0.44656 1.161279,-0.502945 0.639681,-0.08518 1.300749,0.02331 1.927468,-0.151179 0.352113,-0.09803 0.677693,-0.271876 0.996091,-0.447416 0.661985,-0.364967 1.294067,-0.819913 2.032753,-1.011079 0.516831,-0.133752 1.075085,-0.05338 1.573463,-0.267874 1.076156,-0.463155 2.00608,-1.216484 3.106917,-1.624922 0.42972,-0.159437 0.906416,-0.06287 1.333785,-0.239153 0.807002,-0.33288 1.442514,-0.987676 2.278638,-1.260321 1.387187,-0.452336 2.852049,-0.553498 4.293607,-0.707375 1.159488,-0.123768 2.32185,-0.304668 3.425277,-0.700118 2.125506,-0.761746 4.211627,-1.65685 6.161272,-2.800929 0.501413,-0.294236 0.987467,-0.614052 1.496113,-0.89626 0.731665,-0.405943 1.470558,-0.819369 2.26984,-1.069497 0.565401,-0.176937 1.167831,-0.224754 1.715767,-0.460481 0.164236,-0.07066 0.306375,-0.182449 0.423171,-0.31887 0.60892,-0.711238 1.147493,-1.479809 1.762839,-2.185805 0.154791,-0.177594 0.326707,-0.338953 0.519314,-0.476906 0.579619,-0.415146 1.216879,-0.778253 1.684898,-1.317327 0.159049,-0.183196 0.15232,-0.444909 0.26199,-0.653232 0.07104,-0.13494 0.183507,-0.24126 0.280328,-0.357658 0.362643,-0.435965 0.667875,-0.923023 1.071805,-1.321113 0.220821,-0.217628 0.560169,-0.303631 0.730491,-0.567095 0.242816,-0.375602 0.42463,-0.78602 0.641813,-1.176312 0.234786,-0.421925 0.488504,-0.845546 0.850903,-1.172672 0.149383,-0.134843 0.335802,-0.213038 0.523349,-0.281947 0.72712,-0.267161 1.396325,-0.686665 2.161043,-0.852082 1.084483,-0.234586 2.207418,-0.130623 3.296714,-0.3254 0.49935,-0.08929 1.01528,-0.264594 1.36381,-0.652668 0.35242,-0.392404 0.44458,-0.938944 0.46722,-1.451417 0.0108,-0.245425 -0.0408,-0.489051 -0.0316,-0.733693 0.0158,-0.425384 0.20312,-0.837946 0.12741,-1.267181 -0.0329,-0.186749 -0.13568,-0.397518 -0.3388,-0.435686 -0.24482,-0.046 -0.48438,0.06394 -0.69485,0.177115 -0.47345,0.254589 -0.88654,0.601409 -1.32012,0.915191 -0.13654,0.09881 -0.309377,0.113212 -0.47076,0.135409 -0.475365,0.06538 -0.965925,0.07034 -1.419839,0.247163 -1.726569,0.672581 -3.429384,1.423455 -5.028794,2.361896 -0.989206,0.580409 -1.96861,1.209327 -2.772302,2.034251 -0.463289,0.475528 -0.953461,1.016676 -1.047732,1.686359 -0.02993,0.212596 -0.138494,0.41209 -0.308145,0.546295 -0.313786,0.248225 -0.740796,0.284015 -1.06667,0.505349 -0.276996,0.188136 -0.31905,0.565672 -0.577734,0.772415 -0.423152,0.338188 -0.998224,0.403117 -1.420681,0.741116 -0.409693,0.327787 -0.906254,0.563529 -1.219897,0.999439 -0.279201,0.388041 -0.479018,0.847783 -0.863685,1.146761 -0.509459,0.395971 -1.112261,0.651684 -1.719986,0.85449 -1.569272,0.523688 -3.225916,0.708206 -4.811191,1.169792 -0.298756,0.08699 -0.605474,0.16142 -0.884235,0.300633 -0.305006,0.15232 -0.441847,0.483238 -0.662045,0.723836 -0.154997,0.169356 -0.35582,0.286692 -0.549165,0.406216 -0.496201,0.306747 -1.006722,0.58991 -1.52677,0.85344 -0.561875,0.284725 -1.189085,0.39629 -1.77768,0.609362 -0.695991,0.251949 -1.34478,0.614262 -1.987107,0.978206 -0.280015,0.158657 -0.540957,0.353272 -0.833082,0.487969 -0.35506,0.163716 -0.76278,0.165309 -1.105807,0.370474 -0.878908,0.525675 -1.828017,0.926301 -2.805777,1.228689 -0.918883,0.284179 -1.8689,0.460771 -2.782074,0.761614 -0.940954,0.309995 -1.649808,1.086108 -2.586494,1.393563 -0.49233,0.161601 -1.004825,0.252421 -1.500605,0.401849 -0.215212,0.06487 -0.468806,0.07543 -0.636316,0.228323 -0.265466,0.242301 -0.507422,0.509814 -0.741082,0.782479 -0.372035,0.43414 -0.763663,0.86605 -1.020216,1.379289 -0.08346,0.166969 -0.188737,0.349614 -0.153985,0.541279 0.02479,0.136704 0.179579,0.173748 0.300095,0.171461 0.105769,-0.002 0.210257,-0.02245 0.312668,-0.04767"
       id="path55"
       inkscape:path-effect="#path-effect57"
       inkscape:original-d="m 52.629082,54.572362 c 0.931651,-0.869992 2.29153,-0.325302 3.30798,-0.72531 0.915683,-0.360352 1.74003,-1.040868 2.708407,-1.357622 0.535697,-0.175226 1.139185,-0.06719 1.674667,-0.297561 1.048295,-0.450995 1.960909,-1.162905 3.039213,-1.599393 0.484317,-0.196048 0.906272,-0.07308 1.343869,-0.241768 0.823333,-0.317394 1.479886,-1.00311 2.336258,-1.283235 2.423096,-0.792612 5.156872,-0.505261 7.525663,-1.339022 2.351262,-0.82759 4.861025,-1.915236 6.988106,-3.254576 0.903425,-0.568851 2.06611,-1.181962 3.080562,-1.562203 0.532474,-0.199583 1.714262,-0.280813 2.108832,-0.70671 0.552038,-0.595863 1.771611,-2.3275 2.232901,-2.659454 0.625925,-0.450429 1.188945,-0.846349 1.798704,-1.394814 0.191402,-0.172162 0.168902,-0.569931 0.351483,-0.781101 0.426945,-0.493786 0.82731,-1.037193 1.240488,-1.525002 0.196636,-0.232151 0.626724,-0.389306 0.785651,-0.63232 0.439224,-0.671618 1.012886,-2.273451 1.881415,-2.566464 0.636979,-0.214897 1.233091,-0.57581 1.86073,-0.7811 2.317411,-0.757997 5.894659,0.597794 5.520199,-3.105798 -0.052,-0.51416 0.26968,-1.076312 0.0827,-1.580793 -0.37174,-1.003008 -2.11145,0.788506 -2.46032,0.874091 -0.579676,0.142203 -1.140606,0.07574 -1.716011,0.297561 -2.387103,0.920236 -8.36744,3.491103 -8.890214,6.155801 -0.126117,0.642853 -0.83924,0.718314 -1.323182,0.96707 -0.282945,0.145442 -0.346765,0.553694 -0.578903,0.762503 -0.388871,0.349793 -1.042119,0.440648 -1.467918,0.7811 -0.366692,0.293193 -0.883931,0.551082 -1.178463,0.948473 -0.340241,0.45906 -0.509926,0.917446 -0.992399,1.26464 -1.752695,1.261261 -5.274257,1.445773 -7.236216,2.213107 -0.4591,0.179557 -0.547537,0.650669 -0.909688,0.911281 -0.571233,0.411072 -1.208797,0.713174 -1.819389,1.060063 -0.471379,0.267796 -1.156766,0.439857 -1.674667,0.595128 -0.896715,0.26884 -2.125173,1.001646 -2.935832,1.487805 -0.323263,0.193863 -0.784778,0.17305 -1.116449,0.371951 -1.925955,1.154972 -3.403053,1.410343 -5.520195,1.989942 -0.97059,0.265713 -1.737061,1.035619 -2.667059,1.413415 -0.425098,0.172685 -1.929108,0.459118 -2.191538,0.650917 -0.198411,0.145013 -3.183935,3.296914 -1.30252,2.826835" />
  </g>
</svg>
