<?xml version="1.0" encoding="UTF-8" standalone="no"?>
<!-- Created with Inkscape (http://www.inkscape.org/) -->

<svg
   width="169.33333mm"
   height="127mm"
   viewBox="0 0 169.33333 127"
   version="1.1"
   id="svg5"
   inkscape:version="1.1.2 (08b2f3d93c, 2022-04-05)"
   sodipodi:docname="Celulas_Parietaais.svg"
   xmlns:inkscape="http://www.inkscape.org/namespaces/inkscape"
   xmlns:sodipodi="http://sodipodi.sourceforge.net/DTD/sodipodi-0.dtd"
   xmlns="http://www.w3.org/2000/svg"
   xmlns:svg="http://www.w3.org/2000/svg">
  <sodipodi:namedview
     id="namedview7"
     pagecolor="#ffffff"
     bordercolor="#666666"
     borderopacity="1.0"
     inkscape:pageshadow="2"
     inkscape:pageopacity="0.0"
     inkscape:pagecheckerboard="0"
     inkscape:document-units="mm"
     showgrid="false"
     inkscape:zoom="0.86772068"
     inkscape:cx="449.45339"
     inkscape:cy="301.36426"
     inkscape:window-width="1366"
     inkscape:window-height="704"
     inkscape:window-x="0"
     inkscape:window-y="27"
     inkscape:window-maximized="1"
     inkscape:current-layer="layer2" />
  <defs
     id="defs2" />
  <g
     inkscape:groupmode="layer"
     id="layer2"
     inkscape:label="Celulas_Parietais">
    <path
       style="fill:none;stroke:#000000;stroke-width:0.264583px;stroke-linecap:butt;stroke-linejoin:miter;stroke-opacity:1"
       d="m 126.46288,40.800213 c 0.0635,-0.208119 0.0762,-0.439225 0.19054,-0.624356 0.0952,-0.154138 0.32365,-0.175377 0.44912,-0.30606 0.14302,-0.148968 0.16358,-0.294555 0.23136,-0.477448 0.10803,-0.291521 0.58982,-0.440084 0.80299,-0.599874 0.48256,-0.361736 0.52537,-1.182645 0.96628,-1.579261 0.19419,-0.174686 0.51896,-0.373335 0.65327,-0.599874 0.19896,-0.335579 -0.21575,-1.35826 -0.39468,-1.726165 -0.0877,-0.18033 -0.28963,-0.211471 -0.36746,-0.403998 -0.0381,-0.09432 -0.0338,-0.283197 -0.12249,-0.355028 -0.12587,-0.101902 -0.44322,-0.02971 -0.59883,-0.0857 -0.35856,-0.129016 -0.74056,-0.32259 -1.06156,-0.526418 -0.19667,-0.12488 -0.23317,-0.395007 -0.42191,-0.538659 -1.05995,-0.806763 -1.98395,-1.023861 -3.00775,0.01225 -0.12775,0.129283 -0.56367,0.210145 -0.58522,0.403992 -0.0625,0.562139 -0.0481,1.202825 0.0408,1.762895 0.0751,0.473051 0.35758,0.958617 0.38107,1.444593 0.0288,0.595252 0.26139,1.381885 0.61244,1.873078 0.2337,0.327004 0.26296,0.718791 0.34024,1.089565 0.14795,0.709739 1.31873,1.090803 1.89176,1.236475 z"
       id="path55" />
    <path
       style="fill:none;stroke:#000000;stroke-width:0.264583px;stroke-linecap:butt;stroke-linejoin:miter;stroke-opacity:1"
       d="m 157.46591,22.718306 c -0.50981,0.395143 -0.94005,0.881445 -1.60595,0.881445 -0.22316,0 -0.40539,-0.07798 -0.62605,0 -0.63191,0.223316 -1.28327,-0.01579 -1.76926,-0.452966 -0.27655,-0.24877 -0.7242,-0.06445 -0.97991,-0.195877 -0.90997,-0.467696 -0.44054,-2.052143 0.13609,-2.570884 0.22972,-0.206652 1.94024,-1.090343 2.12313,-0.991632 0.23555,0.127136 0.48229,0.256851 0.77576,0.24485 0.44218,-0.01808 0.88232,-0.391757 1.33375,-0.391757 0.26746,0 0.5345,0.148649 0.80298,0.15915 0.22684,0.0089 1.12308,-0.03408 1.23848,0.208121 0.10065,0.211232 -0.73169,2.47752 -0.92546,2.668827 -0.15873,0.156717 -0.41325,0.236762 -0.50356,0.440723 -0.31982,0.722286 0.0271,0.937276 -0.39468,1.420106"
       id="path57" />
    <path
       style="fill:none;stroke:#000000;stroke-width:0.264583px;stroke-linecap:butt;stroke-linejoin:miter;stroke-opacity:1"
       d="m 93.404776,40.873669 c 0.164097,-0.725541 0.525402,-1.377215 0.65327,-2.105681 0.04365,-0.248677 -0.175573,-0.394415 -0.09527,-0.697812 0.121803,-0.46018 0.389871,-0.853377 0.122486,-1.33441 -0.136734,-0.245992 -0.739971,-0.428157 -0.979903,-0.624362 -1.567987,-1.282231 -1.744721,-1.344734 -3.375221,-0.171389 -0.207896,0.149604 -0.844364,0.109861 -0.96629,0.244846 -0.350591,0.388141 -0.214032,1.281398 -0.06805,1.762889 0.09227,0.304343 0.006,0.660795 0.08165,0.967145 0.351285,1.421773 1.598737,1.826178 2.844443,1.701684 0.151217,-0.01511 0.162343,0.124952 0.272195,0.146907 0.486117,0.09716 1.014931,0.09981 1.510681,0.110183 z"
       id="path59" />
    <path
       style="fill:none;stroke:#000000;stroke-width:0.264583px;stroke-linecap:butt;stroke-linejoin:miter;stroke-opacity:1"
       d="m 99.365854,38.694537 c -0.983596,-0.04807 -1.768382,0.91799 -2.653903,1.101804 -1.267563,0.263115 -0.276143,0.412814 -1.456245,0 -1.82784,-0.639397 -2.995983,-1.310227 -1.987026,-3.427846 0.09409,-0.197475 0.153355,-0.655659 0.340246,-0.795753 0.307046,-0.230164 0.635021,-0.270865 0.96629,-0.452964 1.070896,-0.588677 3.183935,-2.057995 4.137366,-0.465212 0.186722,0.311933 0.269931,1.718019 0.462733,2.20362 0.310676,0.782484 0.454149,0.94257 0.190539,1.836351 z"
       id="path61" />
    <path
       style="fill:none;stroke:#000000;stroke-width:0.264583px;stroke-linecap:butt;stroke-linejoin:miter;stroke-opacity:1"
       d="m 147.14971,31.826594 c -0.0503,-0.3052 -0.14557,-0.512003 -0.0953,-0.783513 0.2758,-1.488501 0.46788,-1.404819 0.34023,-3.011607 -0.008,-0.09996 -0.021,-0.402005 -0.10887,-0.465209 -0.65885,-0.474094 -1.39548,-0.530569 -2.27283,-0.293814 -0.3049,0.08228 -0.66834,0.0029 -0.9799,0.02447 -1.07384,0.07431 -1.98702,1.154543 -1.98702,2.179134 0,0.93712 3.24686,2.681068 4.23263,2.681068 0.41923,0 -0.21411,-0.378161 0.87102,-0.330541 z"
       id="path65" />
    <path
       style="fill:none;stroke:#000000;stroke-width:0.264583px;stroke-linecap:butt;stroke-linejoin:miter;stroke-opacity:1"
       d="m 156.28186,31.055325 c 0.18937,-0.483528 0.53438,-0.922789 0.59883,-1.444593 0.0487,-0.39448 -0.49321,-3.154867 -0.63966,-3.305427 -0.33352,-0.342872 -3.33047,-1.192565 -3.74268,-1.089566 -0.22536,0.05631 -0.63918,0.367965 -0.76215,0.575387 -0.68921,1.162483 0.35628,2.377833 0.66689,3.415609 0.20089,0.671226 0.31282,1.39895 0.91184,1.860833 0.22951,0.176964 0.78328,0.195233 1.06156,0.171394 0.22815,-0.01955 0.39477,0.0887 0.54439,-0.01225"
       id="path67" />
    <path
       style="fill:none;stroke:#000000;stroke-width:0.264583px;stroke-linecap:butt;stroke-linejoin:miter;stroke-opacity:1"
       d="m 127.17059,56.054148 c 0.75461,0.09124 1.30883,-0.151021 1.64678,-0.759029 0.11765,-0.211666 0.66091,-1.550204 0.63966,-1.664951 -0.24292,-1.311085 -3.30356,-2.34777 -4.35513,-1.579264 -1.37963,1.008275 -2.13949,3.95427 0.2722,3.95427 0.71885,0 0.9977,-0.222478 1.79649,0.04897 z"
       id="path69" />
    <path
       style="fill:none;stroke:#000000;stroke-width:0.264583px;stroke-linecap:butt;stroke-linejoin:miter;stroke-opacity:1"
       d="m 122.5841,56.066388 c -0.57029,-0.880597 -0.6996,-2.062274 -1.45624,-2.827975 -0.30705,-0.310727 -1.0604,-0.487098 -1.44264,-0.612117 -1.17895,-0.385593 -1.97552,-0.757354 -2.85805,0.367266 -0.45799,0.583631 -0.26229,0.847532 -0.1497,1.505812 0.23597,1.379763 0.41053,2.285103 1.94619,2.668823 0.71643,0.179017 1.54462,0.204063 2.19117,-0.183639 0.19945,-0.1196 0.61642,-0.161023 0.76215,-0.379505 0.0311,-0.04661 0.11274,-0.193522 0.0817,-0.146913 -0.0644,0.09647 -0.0598,0.115523 -0.0953,0.232603"
       id="path71" />
    <path
       style="fill:none;stroke:#000000;stroke-width:0.264583px;stroke-linecap:butt;stroke-linejoin:miter;stroke-opacity:1"
       d="m 113.20698,54.805428 c 0.93808,-0.508158 1.72027,-0.763928 2.06868,-1.86083 0.018,-0.05667 0.13714,-0.316735 0.0953,-0.379516 -0.21709,-0.325456 -0.50652,-0.72667 -0.95269,-0.771265 -0.0914,-0.0091 -0.28001,0.0521 -0.35385,0.01225 -0.15844,-0.08552 -0.18929,-0.320522 -0.38107,-0.355029 -0.6888,-0.12393 -1.47322,0.965576 -1.87815,1.407864 -0.16293,0.177954 -0.63465,0.528249 -0.61244,0.807993 0.0705,0.888291 1.8101,0.599868 1.8101,0.06121"
       id="path73" />
    <path
       style="fill:none;stroke:#000000;stroke-width:0.264583px;stroke-linecap:butt;stroke-linejoin:miter;stroke-opacity:1"
       d="m 115.72478,61.257132 c -0.3733,-0.955675 -0.23765,-3.293518 -1.06156,-3.942022 -0.39459,-0.310592 -2.5049,-0.648205 -2.9261,-0.269338 -0.3942,0.354584 -0.58383,0.720148 -0.87102,1.163021 -0.63638,0.981371 1.43227,2.695583 2.04146,3.121798 0.25208,0.176365 0.66343,0.02138 0.91185,0.244842 0.39914,0.359037 0.95332,0.522515 1.45625,0.67333 0.18843,0.05651 0.39626,0.06161 0.58522,0.110176 0.031,0.008 0.11303,0.03889 0.0953,0.01225 -0.0794,-0.119057 -0.21244,-0.192027 -0.31303,-0.293817"
       id="path75" />
    <path
       style="fill:none;stroke:#000000;stroke-width:0.264583px;stroke-linecap:butt;stroke-linejoin:miter;stroke-opacity:1"
       d="m 159.56181,61.881495 c 0.54308,0.03939 1.17007,0.01212 1.70123,0.171389 0.40581,0.121685 2.1339,0.234308 2.46336,0.03673 0.52975,-0.317695 -0.17165,-2.111346 -0.32663,-2.50967 -0.0851,-0.218753 -0.41996,-0.596035 -0.61244,-0.734545 -0.83468,-0.60062 -2.44013,-0.830265 -3.40245,-0.440727 -0.452,0.182968 -0.85656,0.490173 -1.30653,0.68557 -0.58958,0.256022 -2.00135,0.653092 -2.13674,1.444599 -0.0177,0.103147 -0.0389,0.317889 0.0408,0.403992 0.28961,0.312624 1.16546,0.116372 1.51069,0.293814 0.39468,0.202864 1.03551,0.462987 1.48346,0.550905 1.08606,0.213154 0.0922,-0.06481 1.46986,0.391761 0.0633,0.02098 0.2084,0.125473 0.19053,0.0612 -0.0415,-0.149145 -0.20027,-0.236117 -0.29941,-0.355018"
       id="path77" />
    <path
       style="fill:none;stroke:#000000;stroke-width:0.264583px;stroke-linecap:butt;stroke-linejoin:miter;stroke-opacity:1"
       d="m 158.93576,55.931723 c -0.40227,0.353115 -0.46751,0.498406 -0.62604,0.869206 0.32299,-0.02842 1.00075,0.04288 1.36098,-0.195875 0.65371,-0.433277 1.03486,-1.077764 1.57872,-1.567023 0.0583,-0.05245 0.18434,-0.0067 0.25859,-0.07345 0.12123,-0.109053 0.19648,-0.363423 0.28581,-0.489692 0.49271,-0.696469 0.43347,-0.890793 -0.0272,-1.615988 -0.11968,-0.188395 -0.20378,-0.501602 -0.36746,-0.648842 -0.46243,-0.41598 -1.3475,-0.255695 -1.89176,-0.146903 -2.07943,0.415654 -2.46276,0.610005 -3.55215,2.43622 -0.1378,0.230997 -0.32794,0.287602 -0.46274,0.489692 -0.0258,0.03877 -0.24721,0.65706 -0.23136,0.685569 0.0919,0.165325 0.34876,0.362174 0.51717,0.440727 0.27324,0.12745 0.56385,0.01049 0.84381,0.07345 0.34267,0.07706 0.60851,0.271265 0.96629,0.342779 0.19361,0.0387 0.71276,0.274029 0.72132,0.269336 0.31313,-0.171592 0.41736,-0.579471 0.62604,-0.869206 z"
       id="path79" />
    <path
       style="fill:none;stroke:#000000;stroke-width:0.264583px;stroke-linecap:butt;stroke-linejoin:miter;stroke-opacity:1"
       d="m 97.882391,96.656045 c 0.608407,-0.04146 0.793618,0.02138 1.265706,-0.183634 0.27223,-0.118216 0.561877,-0.541277 0.830194,-0.722299 0.526309,-0.355079 1.122419,-0.526577 1.660389,-0.881447 0.3604,-0.237738 1.59263,-1.780383 1.68761,-2.179134 0.0659,-0.276627 -0.0998,-0.371195 -0.1361,-0.599874 -0.0681,-0.428615 0.18892,-1.007994 -0.34024,-1.211988 -0.38969,-0.150227 -0.85082,-0.06584 -1.26571,-0.159149 -0.30536,-0.06868 -0.57097,-0.354981 -0.89824,-0.379516 -1.234254,-0.09253 -2.358042,0.821632 -3.293564,1.530295 -0.57267,0.433797 -1.236753,0.509468 -1.524291,1.285441 -0.09839,0.265522 -0.191582,0.723728 -0.16332,1.016113 0.02771,0.286661 0.223182,0.36475 0.299419,0.587632 0.137686,0.402537 0.06807,0.921258 0.29941,1.285441 0.163769,0.257805 0.449673,0.442217 0.694103,0.612119 0.0096,0.0067 0.30408,0.240443 0.326631,0.232606 0.190346,-0.06615 0.357576,-0.253532 0.558003,-0.232606 0.86033,0.08982 0.970005,0.573058 1.673998,0.134662 0.207666,-0.12932 0.981161,-1.367126 0.598831,-0.722294"
       id="path81" />
    <path
       style="fill:none;stroke:#000000;stroke-width:0.264583px;stroke-linecap:butt;stroke-linejoin:miter;stroke-opacity:1"
       d="m 151.94035,119.54918 c 1.69027,-0.57148 1.22439,-1.8899 0.91186,-3.183 -0.10184,-0.42133 -0.10015,-0.8015 -0.28582,-1.19975 -0.2585,-0.55448 -1.55144,-1.09479 -2.16395,-1.01611 -0.1917,0.0246 -0.36645,0.34072 -0.48995,0.47745 -0.15929,0.17635 -0.42755,0.2744 -0.61244,0.44072 -0.5804,0.52212 -0.69814,1.65814 -0.88463,2.36278 -0.0269,0.10149 -0.21961,0.1807 -0.16331,0.26932 0.16976,0.26726 1.73147,1.88532 2.1095,1.88532 0.0181,0 -0.0455,-0.23701 -0.0544,-0.26933"
       id="path83" />
    <path
       style="fill:none;stroke:#000000;stroke-width:0.264583px;stroke-linecap:butt;stroke-linejoin:miter;stroke-opacity:1"
       d="m 156.51322,120.1613 c 0.48988,-0.30838 1.09137,-0.60451 1.38821,-1.13853 0.10482,-0.18859 0.10332,-0.49143 0.13609,-0.69781 0.12892,-0.81192 0.95098,-2.43085 -0.12249,-2.91368 -0.51046,-0.22959 -1.68596,0.62336 -2.0959,0.8692 -0.52626,0.31561 -2.69811,1.49945 -2.17756,2.43623 0.74173,1.3348 1.97886,0.44202 2.44976,0.90593 0.1471,0.14493 1.33375,1.55737 1.33375,0.33054"
       id="path85" />
    <path
       style="fill:none;stroke:#000000;stroke-width:0.264583px;stroke-linecap:butt;stroke-linejoin:miter;stroke-opacity:1"
       d="m 154.17235,110.9918 c 0.80874,0.25853 0.89573,0.0826 1.34737,-0.45296 0.16617,-0.19704 0.37111,-0.32813 0.46272,-0.57539 0.064,-0.17276 -0.0316,-0.43227 0,-0.61212 0.0373,-0.21254 0.87547,-1.89631 0.84381,-1.93428 -0.0294,-0.0353 -0.24864,-0.10416 -0.29941,-0.12243 -0.20848,-0.075 -0.15055,-0.305 -0.32664,-0.40399 -0.22857,-0.1285 -0.54869,-0.21368 -0.76214,-0.36728 -0.27342,-0.19673 -0.0379,-0.69941 -0.68049,-0.79575 -0.30588,-0.0459 -0.51647,0.14273 -0.78937,0.18364 -1.58109,0.23701 -1.44023,0.40252 -2.74917,1.21199 -0.31349,0.19387 -0.93525,0.39253 -1.18405,0.66109 -0.24175,0.26094 -0.26346,0.51949 -0.35385,0.84472 -0.0591,0.21277 -0.24901,0.42121 -0.10888,0.67332 0.50047,0.90036 1.57564,1.10415 2.54502,1.32217 0.38791,0.0873 0.88784,-0.15432 1.32015,-0.0857 0.28421,0.0451 0.49374,0.29601 0.73493,0.45296 z"
       id="path87" />
    <path
       style="fill:none;stroke:#000000;stroke-width:0.264583px;stroke-linecap:butt;stroke-linejoin:miter;stroke-opacity:1"
       d="m 167.56435,102.6303 c 0.58019,-0.11808 1.1786,-0.38257 1.57874,-0.83248 0.033,-0.0371 -0.009,-0.40697 0.0136,-0.47745 0.0435,-0.13464 0.24182,-0.27406 0.16332,-0.39175 -0.11707,-0.17552 -0.18709,-0.28286 -0.23137,-0.50194 -0.13756,-0.680458 0.72708,-3.116635 0.16332,-3.623728 -1.05527,-0.94919 -2.87407,0.442225 -3.56576,1.297686 -0.25452,0.314783 -0.0613,1.106411 -0.1361,1.493562 -0.0903,0.46707 -0.41619,1.02784 -0.23137,1.50581 0.22385,0.57886 0.78255,0.33284 1.14323,0.69781 0.61789,0.62527 -0.0498,0.69611 1.10239,0.83248 z"
       id="path89" />
    <path
       style="fill:none;stroke:#000000;stroke-width:0.264583px;stroke-linecap:butt;stroke-linejoin:miter;stroke-opacity:1"
       d="m 116.59581,80.838962 c 0.59507,-0.262686 1.3889,-0.326874 1.94619,-0.66108 0.14445,-0.08662 0.22974,-0.266538 0.36746,-0.355028 0.74812,-0.480669 3.45455,-0.355732 1.61956,-2.387256 -0.25753,-0.28512 -0.24957,-0.789056 -0.61243,-0.942658 -0.48777,-0.206475 -1.54816,0.05489 -1.97342,0.281575 -0.47943,0.255564 -2.58223,1.986315 -2.68112,2.460705 -0.197,0.945078 0.64624,0.751599 1.27932,0.979387 0.19657,0.07073 -0.14938,0.578522 0.0544,0.624355 0.29232,0.06574 0.51756,-0.31279 0.80297,-0.403995 0.10027,-0.03204 0.75706,0.326192 0.50356,0.195877"
       id="path91" />
    <path
       style="fill:none;stroke:#000000;stroke-width:0.264583px;stroke-linecap:butt;stroke-linejoin:miter;stroke-opacity:1"
       d="m 116.59581,80.83896 c -0.77122,-0.187712 -1.54941,-0.348814 -2.31367,-0.563139 -0.0313,-0.0088 0.0316,-0.242248 0.0272,-0.281578 -0.0234,-0.210791 -0.14407,-0.423778 -0.1361,-0.624356 0.034,-0.856681 -0.49281,-1.016423 -0.80298,-1.713926 -0.27795,-0.625067 -0.3662,-1.71986 -1.22487,-1.84859 -0.49997,-0.07495 -0.9374,-0.0059 -1.33376,0.306059 -0.43499,0.342381 -1.51368,3.485854 -1.06156,3.966509 0.39567,0.420632 1.91537,-0.207926 2.3817,-0.232603 1.51108,-0.07996 3.10152,0.557723 4.46401,0.991624"
       id="path93" />
    <path
       style="fill:none;stroke:#000000;stroke-width:0.264583px;stroke-linecap:butt;stroke-linejoin:miter;stroke-opacity:1"
       d="m 115.72478,76.284819 c 0.44711,-1.189831 2.04346,-1.094184 2.59946,-2.044467 0.31696,-0.541716 -0.18029,-0.8563 -0.46273,-1.211987 -1.05574,-1.329537 -5.96498,1.329184 -3.32078,2.815732 0.53532,0.300953 0.53276,-0.01492 1.18405,0.440722 z"
       id="path95" />
    <path
       style="fill:none;stroke:#000000;stroke-width:0.264583px;stroke-linecap:butt;stroke-linejoin:miter;stroke-opacity:1"
       d="m 116.06503,71.37565 c 0.8426,-1.532059 2.36749,-0.267954 3.57936,-1.052838 0.26468,-0.171421 0.53305,-0.381325 0.77576,-0.575389 0.3037,-0.242835 0.47421,-0.562901 0.70771,-0.869207 0.35441,-0.464926 -0.44763,-0.532119 -0.8302,-0.697812 -0.21715,-0.09405 -0.4321,-0.389302 -0.65327,-0.452964 -0.14996,-0.04317 -0.52006,0.05293 -0.63966,-0.03673 -0.43221,-0.324006 -0.68619,-1.375876 -1.18405,-1.407864 -0.86686,-0.0557 -2.89981,1.34412 -3.49771,1.958769 -0.27742,0.285199 -1.19166,0.612714 -1.30653,0.991629 -0.2439,0.804529 0.2182,0.933341 0.68049,1.432351 0.13094,0.141343 0.2732,0.398147 0.47634,0.452966 0.3835,0.103495 0.78225,0.04034 1.17044,0.110181 0.26338,0.04738 0.35464,0.179017 0.72132,0.146907 0.29371,-0.02572 1.11993,-0.433647 1.2657,-0.171392"
       id="path97" />
    <path
       style="fill:none;stroke:#000000;stroke-width:0.264583px;stroke-linecap:butt;stroke-linejoin:miter;stroke-opacity:1"
       d="m 136.87435,79.810612 c 0.86431,0.05171 0.68145,-0.114893 1.15683,-0.575392 0.3009,-0.291484 0.74002,-0.319064 1.02073,-0.697812 0.28725,-0.387589 0.20579,-1.082384 0.0544,-1.518045 -0.0376,-0.108352 -0.18987,-0.105576 -0.21775,-0.195879 -0.31085,-1.006684 -0.68445,-1.212207 -1.76927,-1.273201 -0.19468,-0.01095 -0.64741,-0.111948 -0.80298,0 -0.85893,0.618109 -2.4534,1.718191 -1.98702,3.060581 0.11737,0.337833 0.67121,0.591381 0.96629,0.759023 0.79471,0.451485 0.50512,-0.27845 1.57874,0.440725 z"
       id="path99" />
    <path
       style="fill:none;stroke:#000000;stroke-width:0.264583px;stroke-linecap:butt;stroke-linejoin:miter;stroke-opacity:1"
       d="m 159.87483,77.398874 c 0.72436,-0.224568 1.26933,-0.560795 1.85093,-0.991629 1.00037,-0.741043 0.78763,-0.964272 0.12249,-1.811864 -0.95112,-1.212022 -1.08576,-1.550422 -2.70834,-1.824107 -0.54324,-0.09163 -1.15451,-0.257924 -1.70122,-0.06121 -0.54324,0.19546 -0.78482,0.416562 -1.06156,0.893688 -0.69225,1.19348 0.11336,1.236305 0.48995,2.252586 0.15019,0.405331 0.56154,0.981196 0.93908,1.17526 0.58061,0.298445 1.4454,0.262147 2.06867,0.367274 z"
       id="path101" />
    <path
       style="fill:none;stroke:#000000;stroke-width:0.264583px;stroke-linecap:butt;stroke-linejoin:miter;stroke-opacity:1"
       d="m 105.20444,50.850778 c 0.64292,-0.712986 0.69651,-0.137541 1.22488,-0.232606 0.345,-0.06207 0.43867,-0.389472 0.59883,-0.612113 0.0793,-0.110239 0.13392,-0.01958 0.21776,-0.07346 0.87881,-0.564674 0.83917,-1.059426 0.53078,-1.860833 -0.13367,-0.347332 -0.34395,-0.781667 -0.70771,-0.954903 -0.91258,-0.434594 -2.95723,-0.08759 -3.78352,0.452967 -0.4067,0.266067 -0.7833,0.854892 -1.07517,1.248717 -0.29837,0.40259 -0.97625,0.427577 -1.12961,0.979387 -0.0513,0.184724 0.37263,0.432464 0.46273,0.501935 0.42021,0.324001 1.53703,0.452258 2.04147,0.355029 0.29539,-0.05694 1.22191,-0.734155 0.95268,-0.330547"
       id="path103" />
  </g>
</svg>
