<?xml version="1.0" encoding="UTF-8" standalone="no"?>
<!-- Created with Inkscape (http://www.inkscape.org/) -->

<svg
   width="169.33333mm"
   height="127mm"
   viewBox="0 0 169.33333 127"
   version="1.1"
   id="svg5"
   sodipodi:docname="CelulasCaliciformes.svg"
   inkscape:version="1.1.2 (08b2f3d93c, 2022-04-05)"
   xmlns:inkscape="http://www.inkscape.org/namespaces/inkscape"
   xmlns:sodipodi="http://sodipodi.sourceforge.net/DTD/sodipodi-0.dtd"
   xmlns="http://www.w3.org/2000/svg"
   xmlns:svg="http://www.w3.org/2000/svg">
  <sodipodi:namedview
     id="namedview7"
     pagecolor="#ffffff"
     bordercolor="#666666"
     borderopacity="1.0"
     inkscape:pageshadow="2"
     inkscape:pageopacity="0.0"
     inkscape:pagecheckerboard="0"
     inkscape:document-units="mm"
     showgrid="false"
     inkscape:zoom="0.71"
     inkscape:cx="390.14085"
     inkscape:cy="224.64789"
     inkscape:window-width="1366"
     inkscape:window-height="704"
     inkscape:window-x="0"
     inkscape:window-y="27"
     inkscape:window-maximized="1"
     inkscape:current-layer="layer2" />
  <defs
     id="defs2">
    <inkscape:path-effect
       effect="simplify"
       id="path-effect105"
       is_visible="true"
       lpeversion="1"
       steps="1"
       threshold="0.000408163"
       smooth_angles="360"
       helper_size="0"
       simplify_individual_paths="false"
       simplify_just_coalesce="false" />
    <inkscape:path-effect
       effect="simplify"
       id="path-effect101"
       is_visible="true"
       lpeversion="1"
       steps="1"
       threshold="0.000408163"
       smooth_angles="360"
       helper_size="0"
       simplify_individual_paths="false"
       simplify_just_coalesce="false" />
    <inkscape:path-effect
       effect="simplify"
       id="path-effect97"
       is_visible="true"
       lpeversion="1"
       steps="1"
       threshold="0.000408163"
       smooth_angles="360"
       helper_size="0"
       simplify_individual_paths="false"
       simplify_just_coalesce="false" />
    <inkscape:path-effect
       effect="simplify"
       id="path-effect93"
       is_visible="true"
       lpeversion="1"
       steps="1"
       threshold="0.000408163"
       smooth_angles="360"
       helper_size="0"
       simplify_individual_paths="false"
       simplify_just_coalesce="false" />
    <inkscape:path-effect
       effect="simplify"
       id="path-effect89"
       is_visible="true"
       lpeversion="1"
       steps="1"
       threshold="0.000408163"
       smooth_angles="360"
       helper_size="0"
       simplify_individual_paths="false"
       simplify_just_coalesce="false" />
    <inkscape:path-effect
       effect="simplify"
       id="path-effect85"
       is_visible="true"
       lpeversion="1"
       steps="1"
       threshold="0.000408163"
       smooth_angles="360"
       helper_size="0"
       simplify_individual_paths="false"
       simplify_just_coalesce="false" />
    <inkscape:path-effect
       effect="simplify"
       id="path-effect81"
       is_visible="true"
       lpeversion="1"
       steps="1"
       threshold="0.000408163"
       smooth_angles="360"
       helper_size="0"
       simplify_individual_paths="false"
       simplify_just_coalesce="false" />
    <inkscape:path-effect
       effect="simplify"
       id="path-effect77"
       is_visible="true"
       lpeversion="1"
       steps="1"
       threshold="0.000408163"
       smooth_angles="360"
       helper_size="0"
       simplify_individual_paths="false"
       simplify_just_coalesce="false" />
    <inkscape:path-effect
       effect="simplify"
       id="path-effect73"
       is_visible="true"
       lpeversion="1"
       steps="1"
       threshold="0.000408163"
       smooth_angles="360"
       helper_size="0"
       simplify_individual_paths="false"
       simplify_just_coalesce="false" />
    <inkscape:path-effect
       effect="simplify"
       id="path-effect69"
       is_visible="true"
       lpeversion="1"
       steps="1"
       threshold="0.000408163"
       smooth_angles="360"
       helper_size="0"
       simplify_individual_paths="false"
       simplify_just_coalesce="false" />
    <inkscape:path-effect
       effect="simplify"
       id="path-effect65"
       is_visible="true"
       lpeversion="1"
       steps="1"
       threshold="0.000408163"
       smooth_angles="360"
       helper_size="0"
       simplify_individual_paths="false"
       simplify_just_coalesce="false" />
    <inkscape:path-effect
       effect="simplify"
       id="path-effect61"
       is_visible="true"
       lpeversion="1"
       steps="1"
       threshold="0.000408163"
       smooth_angles="360"
       helper_size="0"
       simplify_individual_paths="false"
       simplify_just_coalesce="false" />
    <inkscape:path-effect
       effect="simplify"
       id="path-effect57"
       is_visible="true"
       lpeversion="1"
       steps="1"
       threshold="0.000408163"
       smooth_angles="360"
       helper_size="0"
       simplify_individual_paths="false"
       simplify_just_coalesce="false" />
  </defs>
  <g
     inkscape:groupmode="layer"
     id="layer2"
     inkscape:label="Celulas Caliciformes">
    <path
       style="fill:none;stroke:#000000;stroke-width:0.264583px;stroke-linecap:butt;stroke-linejoin:miter;stroke-opacity:1"
       d="m 94.080056,127.52904 c -0.843604,-1.52237 -1.107834,-3.26725 -1.747473,-4.87188 -0.284252,-0.71309 -0.541018,-1.4659 -1.074641,-2.04151 -0.368932,-0.39796 -0.771511,-0.78634 -0.979315,-1.30213 -0.240603,-0.5972 -0.349673,-1.23459 -0.566515,-1.84101 -0.479755,-1.34169 -0.874901,-2.71398 -1.398697,-4.0394 -0.168969,-0.42756 -0.511199,-0.74307 -0.748492,-1.1335 -0.321282,-0.52862 -0.770389,-0.96248 -1.105097,-1.48304 -0.477544,-0.74271 -0.904708,-1.51723 -1.290124,-2.31048 -0.396677,-0.81643 -0.550137,-1.71813 -0.818424,-2.57934 -0.433882,-1.39277 -0.93067,-2.78625 -1.7306,-4.01771 -0.408098,-0.62825 -0.948698,-1.15378 -1.507358,-1.64809 -0.724918,-0.641415 -1.492869,-1.261748 -2.021097,-2.089502 -0.43656,-0.684107 -0.713447,-1.457995 -1.137814,-2.14781 -0.313707,-0.509935 -0.944579,-0.758761 -1.1811,-1.321899 -0.09907,-0.235871 -0.201374,-0.472131 -0.392228,-0.657921 -0.338022,-0.329053 -0.656018,-0.695779 -1.067991,-0.930797 -0.441864,-0.25207 -1.023555,-0.302388 -1.350058,-0.716434 -0.414527,-0.525672 -0.359149,-1.260438 -0.702356,-1.816844 -0.304575,-0.493776 -0.774556,-0.851968 -1.186603,-1.251021 -0.354264,-0.343092 -0.742052,-0.649028 -1.151488,-0.92451 -0.445078,-0.299463 -0.957787,-0.505822 -1.358473,-0.86218 -0.27376,-0.243474 -0.460836,-0.56038 -0.716957,-0.824246 -0.380267,-0.391766 -0.850028,-0.679709 -1.24487,-1.054274 -0.428742,-0.406725 -0.685293,-0.947685 -0.97635,-1.453438 -0.468781,-0.814574 -1.165528,-1.477378 -1.612617,-2.302613 -0.309589,-0.571439 -0.448186,-1.214771 -0.799296,-1.772344 -0.385164,-0.611652 -0.698289,-1.264552 -1.005974,-1.916985 -0.08209,-0.174062 -0.06645,-0.488182 -0.25844,-0.518996 -0.07141,-0.01146 -0.01168,0.15994 -0.07347,0.02567 -0.469076,-1.019313 -1.427783,-1.730821 -1.845772,-2.775274 -0.168382,-0.420746 -0.3094,-0.864362 -0.621881,-1.210687 -0.678193,-0.751646 -1.442394,-1.42603 -2.073928,-2.218297 C 57.395234,70.34216 57.005651,68.853583 56.255979,67.565465 55.514872,66.292064 54.627786,65.112535 53.812865,63.88625 53.094431,62.805157 52.768673,61.530169 52.165545,60.388923 51.68082,59.47172 51.115231,58.594056 50.43555,57.807478 49.972591,57.271707 49.492098,56.716776 49.267476,56.036787 48.995172,55.212451 48.530302,54.468238 48.004809,53.782443 46.980467,52.445625 45.705097,51.303849 44.822026,49.860448 44.619372,49.529205 44.434964,49.181509 44.354311,48.796546 44.265972,48.374899 44.184461,47.94439 43.957759,47.566 c -0.281932,-0.470576 -0.72798,-0.859723 -0.883971,-1.388476 -0.07422,-0.251575 0.05893,-0.781535 -0.203692,-0.760696 -0.175954,0.01396 0.06412,0.257269 0.136639,0.339354 0.03006,0.03402 0.06005,0.06852 0.08369,0.107462"
       id="path59"
       inkscape:path-effect="#path-effect61"
       inkscape:original-d="m 94.080056,127.52904 c -0.82414,-1.48488 -1.071856,-3.19906 -1.701329,-4.75619 -0.244774,-0.6055 -0.508158,-1.40513 -0.917382,-1.92047 -0.342074,-0.43079 -0.80918,-0.79655 -1.067487,-1.29033 -0.301483,-0.57632 -0.385022,-1.25137 -0.600467,-1.86047 -0.494355,-1.39764 -1.009772,-2.76814 -1.451128,-4.18604 -0.14023,-0.4505 -0.506392,-0.72045 -0.717222,-1.11028 -0.247799,-0.45817 -0.611569,-0.81767 -0.917382,-1.23031 -0.537009,-0.72459 -1.019908,-1.72984 -1.467808,-2.53563 -0.387437,-0.69702 -0.556125,-1.61919 -0.783947,-2.37059 -0.515311,-1.69958 -1.17076,-3.67532 -2.351823,-5.04126 -0.850929,-0.98413 -2.13926,-1.788609 -2.835534,-2.790697 -0.474258,-0.682556 -0.918766,-1.580232 -1.267654,-2.325579 -0.223218,-0.476869 -0.857186,-0.788533 -1.150897,-1.260319 -0.127524,-0.204835 -0.194085,-0.5324 -0.366951,-0.705173 -0.302048,-0.301887 -0.68816,-0.690618 -1.034135,-0.94524 -0.452633,-0.33311 -1.254434,-0.407704 -1.567886,-0.915228 -0.328893,-0.532516 -0.328956,-1.100563 -0.583785,-1.635405 -0.234251,-0.491649 -1.033467,-1.13401 -1.40109,-1.485374 -0.677354,-0.64739 -1.499526,-1.075862 -2.268432,-1.57539 -0.228922,-0.148722 -0.427651,-0.506317 -0.617143,-0.705181 -1.027099,-1.077888 -1.469821,-0.904078 -2.268432,-2.460614 -0.427497,-0.833215 -1.139338,-1.590143 -1.651283,-2.385594 -0.350284,-0.544264 -0.437713,-1.241367 -0.800621,-1.785448 -0.414192,-0.620969 -0.701151,-1.301454 -1.050816,-1.965489 -0.05935,-0.112713 -0.333592,-0.860145 -0.333592,-0.49512 -0.411404,-0.955119 -1.29348,-1.695887 -1.768045,-2.610654 -0.258781,-0.498825 -0.297549,-0.9642 -0.70054,-1.410353 -0.612572,-0.678182 -1.287041,-1.319642 -1.901477,-2.010501 -1.118466,-1.257579 -1.48609,-2.846785 -2.318471,-4.261067 -0.713398,-1.212119 -1.484865,-2.341967 -2.30179,-3.465863 -0.641236,-0.882189 -0.989963,-2.016562 -1.434449,-3.000749 -0.378561,-0.838213 -1.014535,-1.921685 -1.567881,-2.64066 -0.665488,-0.864684 -1.318232,-1.409175 -1.701324,-2.505625 -0.847515,-2.425679 -3.517057,-4.244397 -4.670295,-6.52663 -0.264174,-0.522795 -0.213194,-1.13374 -0.500392,-1.650414 -0.286014,-0.514544 -0.692949,-0.963596 -0.950739,-1.48537 -0.05293,-0.107141 -0.176067,-0.869657 -0.250193,-0.825206 -0.15098,0.09054 0.160114,0.313862 0.250193,0.465117" />
    <path
       style="fill:none;stroke:#000000;stroke-width:0.264583px;stroke-linecap:butt;stroke-linejoin:miter;stroke-opacity:1"
       d="m 103.20381,127.96415 c -0.53002,-1.62974 -1.32579,-3.17354 -1.72443,-4.84168 -0.12645,-0.52914 -0.16788,-1.0793 -0.39589,-1.58447 -0.56151,-1.24407 -1.22377,-2.44988 -1.571356,-3.78574 -0.145107,-0.55768 -0.590601,-0.98771 -0.683614,-1.56828 -0.223551,-1.39538 -0.532343,-2.7783 -0.69693,-4.18185 -0.07488,-0.63853 0.09025,-1.28396 -0.05715,-1.92059 -0.242708,-1.04828 -0.642153,-2.05224 -1.083751,-3.02876 -0.329883,-0.72948 -0.850959,-1.38075 -1.501338,-1.83837 -0.306447,-0.21562 -0.69408,-0.30038 -0.946154,-0.60551 -0.724588,-0.87711 -1.320628,-1.84561 -1.960864,-2.78448 -0.274412,-0.40241 -0.441266,-0.86332 -0.704863,-1.27426 -0.620401,-0.967183 -1.451247,-1.828021 -1.824826,-2.92898 -0.141357,-0.416587 -0.124781,-0.926441 -0.465747,-1.243744 -0.233292,-0.217101 -0.534472,-0.356583 -0.708015,-0.643152 -0.985677,-1.627636 -1.7403,-3.39358 -2.841017,-4.949914 -0.377815,-0.534203 -0.79047,-1.042463 -1.186564,-1.563174 -1.302891,-1.712799 -2.587435,-3.446881 -4.064328,-5.017982 -0.264563,-0.281439 -0.584679,-0.510113 -0.829081,-0.808326 -0.231324,-0.282255 -0.362411,-0.626957 -0.601094,-0.908448 -1.080431,-1.274206 -1.761388,-2.808784 -2.57987,-4.250188 -0.433443,-0.763323 -0.35718,-1.720049 -0.841769,-2.456706 -0.30945,-0.470416 -0.791402,-0.796895 -1.072725,-1.291795 -0.23416,-0.411932 -0.453705,-0.839539 -0.792453,-1.180697 -0.688579,-0.693478 -1.60348,-1.161997 -2.151618,-1.989163 -0.519924,-0.78459 -0.914494,-1.639997 -1.069616,-2.569786 -0.02353,-0.141013 -0.283056,-0.456187 -0.03651,-0.454312 0.268988,0.002 0.495538,0.183243 0.707814,0.329101 0.142726,0.09807 -0.162982,-0.0097 -0.225309,-0.02544 -0.291006,-0.07328 -0.651026,-0.03108 -0.868904,-0.237705 -0.211377,-0.200457 -0.345499,-0.467781 -0.48332,-0.72116 -0.784431,-1.442152 -1.448506,-2.94563 -2.18691,-4.411159 -0.272687,-0.541209 -0.507093,-1.110979 -0.907554,-1.576271 -0.430763,-0.5005 -0.926153,-0.947929 -1.282425,-1.511082 C 64.975467,59.207213 64.58649,58.165318 63.983103,57.238284 63.198691,56.033127 62.189693,54.952487 61.65342,53.603492 61.103062,52.219065 61.102277,50.68782 60.547114,49.302708 60.178746,48.383643 59.790441,47.472031 59.326148,46.597223 59.044652,46.066836 58.67343,45.589632 58.299535,45.122527 57.833349,44.540124 57.392667,43.927483 56.840806,43.42418 56.510683,43.123104 56.419097,42.659129 56.33169,42.241708 56.231456,41.763029 56.129353,41.280299 55.896639,40.83989 c -0.174902,-0.331 -0.42761,-0.649885 -0.446604,-1.037762"
       id="path63"
       inkscape:path-effect="#path-effect65"
       inkscape:original-d="m 103.20381,127.96415 c -0.51408,-1.57402 -1.20366,-3.10979 -1.68464,-4.69618 -0.15533,-0.51233 -0.15105,-1.08237 -0.36695,-1.57539 -0.58012,-1.32467 -1.332219,-2.50164 -1.634606,-3.91598 -0.111276,-0.52046 -0.586483,-0.95967 -0.683871,-1.56039 -0.222964,-1.37532 -0.430004,-2.72569 -0.683858,-4.09602 -0.116679,-0.62985 0.08608,-1.25578 -0.05004,-1.92048 -0.205917,-1.00553 -0.694544,-2.0872 -1.067501,-3.04576 -0.279887,-0.71935 -0.913371,-1.44472 -1.517846,-1.92049 -0.263655,-0.20751 -0.675989,-0.27483 -0.900694,-0.54012 -0.760683,-0.89809 -1.273866,-1.88188 -1.984881,-2.8057 -0.255952,-0.33256 -0.387712,-0.74197 -0.600464,-1.09528 -0.629507,-1.045397 -1.46178,-1.926039 -1.934842,-3.060765 -0.159184,-0.381836 -0.161954,-0.887283 -0.400307,-1.230308 -0.203332,-0.292626 -0.576524,-0.381344 -0.767262,-0.690168 -1.004978,-1.627171 -2.083798,-4.029466 -3.219175,-5.476369 -1.688581,-2.151896 -3.701156,-5.084702 -5.654392,-6.841707 -0.271161,-0.24392 -0.378563,-0.642096 -0.617143,-0.915234 -1.129266,-1.292846 -1.72665,-2.87179 -2.618703,-4.276066 -0.437134,-0.688139 -0.429088,-1.717199 -0.817301,-2.415601 -0.260469,-0.468585 -0.699809,-0.752128 -1.000778,-1.185299 -0.259022,-0.372792 -0.412115,-0.783539 -0.700545,-1.14028 -0.692415,-0.856398 -1.981677,-1.449257 -2.518622,-2.475621 -0.387191,-0.740114 -0.45121,-1.611691 -0.917379,-2.310575 -0.02093,-0.03136 -0.16881,-0.401484 -0.166796,-0.405106 0.13599,-0.24466 0.708366,0.15644 0.884018,0.300075 -0.378071,-0.100024 -0.762768,-0.177719 -1.134214,-0.300073 -0.378716,-0.12475 -2.720024,-5.298567 -3.185807,-6.136534 -0.395928,-0.712293 -1.060229,-1.183594 -1.517846,-1.830456 -0.557654,-0.788269 -0.900996,-1.680948 -1.367728,-2.52063 -0.775897,-1.395891 -1.966994,-2.620931 -2.63538,-4.081017 -0.543038,-1.186264 -0.59679,-2.661832 -0.984102,-3.91598 -0.334623,-1.083536 -0.97574,-2.14176 -1.401086,-3.225804 -0.238505,-0.607859 -2.064672,-2.83245 -2.535306,-3.255813 -0.483436,-0.434879 -0.493082,-1.602863 -0.75058,-2.220556 -0.205581,-0.493152 -0.617148,-0.963409 -0.617148,-1.380345" />
    <path
       style="fill:none;stroke:#000000;stroke-width:0.264583px;stroke-linecap:butt;stroke-linejoin:miter;stroke-opacity:1"
       d="m 31.381329,54.139496 c 0.923959,0.868203 1.973272,1.607071 2.793463,2.582515 0.389615,0.463365 0.695475,0.992599 0.922755,1.554838 0.55855,1.381729 1.344434,2.654762 1.999959,3.989963 0.198336,0.403979 0.307549,0.849315 0.566791,1.225217 0.8133,1.179287 1.724522,2.295849 2.410578,3.559424 1.036026,1.908147 1.811705,3.963979 3.046093,5.757803 0.131672,0.191347 0.250242,0.396178 0.429342,0.549792 0.182931,0.1569 0.375308,0.302213 0.541136,0.479487 1.159679,1.239726 2.289114,2.50904 3.529821,3.672133 0.623282,0.584292 1.015048,1.376676 1.684675,1.917258 1.164273,0.939903 2.488342,1.687621 3.549408,2.746751 0.315719,0.315143 0.487763,0.734914 0.678622,1.129474 0.131254,0.271339 0.307429,0.517521 0.503436,0.74599 0.501801,0.58491 1.12816,1.069976 1.5217,1.7421 0.307101,0.524495 0.467411,1.118836 0.778688,1.642246 0.599404,1.007893 1.444118,1.84749 2.020983,2.86923 0.350007,0.61993 0.577668,1.317634 1.049851,1.861772 0.217275,0.250385 0.495555,0.435865 0.760717,0.63073 0.439296,0.322835 0.903221,0.626792 1.264582,1.038774 0.162439,0.185194 0.3302,0.402162 0.330208,0.658951 1e-6,0.03208 -0.003,0.06417 -0.0092,0.09565"
       id="path67"
       inkscape:path-effect="#path-effect69"
       inkscape:original-d="m 31.381329,54.139496 c 1.335442,1.253464 2.975441,2.272877 3.66952,4.021008 0.564721,1.422331 1.297418,2.695281 2.018231,4.051011 0.207743,0.390729 0.291287,0.836504 0.550431,1.215303 0.761241,1.112726 1.684636,2.235608 2.335149,3.405854 1.14926,2.067473 2.020885,4.336881 3.385965,6.301566 0.165288,0.237889 0.469302,0.404799 0.667182,0.615161 1.191998,1.26718 2.276586,2.557949 3.569443,3.72092 0.631269,0.567852 1.034695,1.39581 1.701318,1.935488 1.167371,0.945068 2.410339,1.71804 3.536085,2.730685 0.442153,0.397727 0.622303,1.107485 0.967415,1.590397 0.509643,0.713132 1.272688,1.256681 1.734682,1.995496 0.308684,0.493641 0.453353,1.05565 0.733904,1.560385 0.556178,1.000615 1.4342,1.90504 2.034916,2.895725 0.399068,0.658137 0.651319,1.48023 1.184254,2.055516 0.504139,0.544203 2.443826,1.546574 2.285108,2.355585" />
    <path
       style="fill:none;stroke:#000000;stroke-width:0.264583px;stroke-linecap:butt;stroke-linejoin:miter;stroke-opacity:1"
       d="m 61.754937,94.589594 c 0.145474,0.67567 0.149644,1.397417 0.436721,2.027148 0.0603,0.132274 0.162178,0.240183 0.260364,0.34503 0.414519,0.442642 0.865451,0.849157 1.311821,1.259015 0.504595,0.46332 1.014539,0.920812 1.514102,1.389717 0.267605,0.251182 0.46755,0.563286 0.640889,0.884436 0.291244,0.5396 0.515657,1.1197 0.886943,1.61286 0.118006,0.15674 0.258137,0.29436 0.378232,0.44983 0.242834,0.31437 0.444903,0.66977 0.756563,0.92269 0.447578,0.36322 1.021084,0.54651 1.432057,0.95667 0.197649,0.19726 0.376812,0.41223 0.554079,0.6277 0.645645,0.78479 1.233484,1.62022 1.955554,2.3398 0.683589,0.68123 1.452552,1.28674 2.031339,2.06459 0.338099,0.45438 0.576119,0.97283 0.7952,1.49217 0.249372,0.59114 0.477719,1.19114 0.750551,1.77239 0.809456,1.72449 1.868049,3.32953 2.560905,5.10714 0.157096,0.40305 0.159843,0.84519 0.121742,1.27027 -0.04296,0.47925 -0.121654,0.95691 -0.103636,1.44024 0.03334,0.89434 0.309834,1.75479 0.43022,2.63712 0.02103,0.15414 0.05684,0.30815 0.05405,0.46403 -0.0051,0.28772 -0.158565,0.54092 -0.245638,0.80794 -0.137361,0.42123 -0.155824,0.87571 -0.07888,1.31112 0.06177,0.34955 0.174818,0.6872 0.286496,1.02324"
       id="path71"
       inkscape:path-effect="#path-effect73"
       inkscape:original-d="m 61.754937,94.589594 c 0.144555,0.672533 0.246727,1.355595 0.433666,2.017601 0.111098,0.393435 2.697987,2.573202 3.219169,3.135783 0.647652,0.699102 0.902957,1.858792 1.567886,2.565642 0.340606,0.36208 0.614831,0.90271 1.000774,1.2003 0.511209,0.39417 1.06164,0.55394 1.501171,1.03525 0.692973,0.75885 1.277329,1.62379 1.968193,2.40061 0.767649,0.86315 1.692095,1.54578 2.418546,2.46061 0.606115,0.7633 1.004549,2.01147 1.417772,2.94073 0.820328,1.84477 1.938777,3.57517 2.718779,5.44636 0.343104,0.8231 0.03336,1.70863 0.03336,2.55064 0,1.11656 0.363334,2.12792 0.483712,3.2108 0.03939,0.3543 -0.176194,0.66397 -0.266875,0.99025 -0.23133,0.83234 -0.02133,1.48642 0.233516,2.25057" />
    <path
       style="fill:none;stroke:#000000;stroke-width:0.264583px;stroke-linecap:butt;stroke-linejoin:miter;stroke-opacity:1"
       d="m 113.37838,127.90501 c 0.1285,-1.0496 0.44351,-2.09348 0.3138,-3.16165 -0.0794,-0.65403 -0.40879,-1.23427 -0.58476,-1.86337 -0.65951,-2.35772 -1.48591,-4.66603 -2.13845,-7.02521 -0.39623,-1.43251 -0.42059,-2.96056 -1.02118,-4.33747 -0.47982,-1.10003 -1.15257,-2.1026 -1.60469,-3.21794 -1.06494,-2.62711 -1.80846,-5.38861 -3.07886,-7.92664 -0.60766,-1.213993 -1.85421,-1.950907 -2.46075,-3.165386 -0.69526,-1.392127 -0.8786,-3.000013 -1.73101,-4.319476 -0.93001,-1.439586 -2.222152,-2.613248 -3.056806,-4.121513 -0.714764,-1.291618 -1.158407,-2.756762 -2.134196,-3.883592 -0.443624,-0.512292 -1.071192,-0.807093 -1.552114,-1.280542 -0.611111,-0.601615 -1.199438,-1.239102 -1.657254,-1.965258 -0.267914,-0.424946 -0.462151,-0.890685 -0.677344,-1.343411 -0.50721,-1.067073 -0.956835,-2.166938 -1.563382,-3.181519 -0.390587,-0.653341 -0.91166,-1.238532 -1.139744,-1.98234 -0.275631,-0.898866 -0.282648,-1.879495 -0.734106,-2.723129 -0.189666,-0.354426 -0.497458,-0.620735 -0.815747,-0.86023 -0.891433,-0.670754 -1.629403,-1.556202 -2.062505,-2.594429 -0.234903,-0.563107 -0.293985,-1.196076 -0.607555,-1.724488 -0.157926,-0.266129 -0.225281,0.132242 -0.222327,0.279403 0.0068,0.33912 0.60439,1.15782 0.307049,0.968349 -0.553207,-0.352513 -0.89186,-0.940329 -1.190141,-1.506517 -0.46832,-0.888951 -0.795339,-1.850194 -1.332513,-2.702328 -0.422504,-0.67023 -1.12065,-1.080646 -1.710945,-1.583653 C 80.295605,62.148178 79.930924,61.39422 79.493327,60.710863 78.884372,59.759911 78.102652,58.940887 77.427383,58.037648 76.793869,57.19026 75.903755,56.53716 75.429656,55.573513 75.022789,54.746521 74.967251,53.728454 74.354347,53.030445 74.21194,52.868264 74.129986,52.672211 74.080732,52.46103 c -0.136133,-0.583678 -0.09542,-1.230721 -0.393863,-1.755967 -0.266273,-0.468626 -0.595803,-0.898718 -0.917402,-1.330462 -0.456753,-0.613186 -0.967401,-1.194565 -1.334316,-1.86693 -0.2705,-0.495687 -0.487396,-1.019162 -0.826146,-1.479435 -0.604921,-0.821931 -1.245644,-1.657453 -1.533938,-2.6545 -0.281855,-0.974778 -0.413645,-1.986361 -0.805147,-2.936495 -0.427233,-1.03685 -0.783261,-2.103026 -1.08379,-3.182681 -0.21623,-0.776809 -0.476715,-1.555218 -0.524314,-2.362645 -0.0091,-0.154722 -0.02308,-0.317089 0.03029,-0.465817"
       id="path75"
       inkscape:path-effect="#path-effect77"
       inkscape:original-d="m 113.37838,127.90501 c 0.13446,-1.10194 0.49878,-2.22308 0.28356,-3.34584 -0.0994,-0.51852 -0.36047,-0.9819 -0.5004,-1.48537 -0.65695,-2.36389 -1.41658,-4.6793 -2.13498,-7.02175 -0.42831,-1.39655 -0.44176,-2.93119 -0.9841,-4.30607 -0.43005,-1.09023 -1.13978,-2.08863 -1.58456,-3.16579 -1.09719,-2.65715 -1.9388,-5.47215 -3.13577,-8.08703 -0.59613,-1.302288 -1.88932,-2.027781 -2.51864,-3.285816 -0.70156,-1.402461 -0.87804,-3.004378 -1.75135,-4.351086 -0.79838,-1.231141 -1.894656,-2.266937 -2.702106,-3.525877 -0.884449,-1.378998 -1.38866,-3.06405 -2.401863,-4.366094 -0.346938,-0.445841 -0.838338,-0.709533 -1.267648,-1.050263 -0.627986,-0.498409 -1.85846,-1.908895 -2.201717,-2.610654 -0.658656,-1.346576 -1.249257,-2.694424 -1.951516,-4.021003 -0.321718,-0.607729 -0.865119,-1.191051 -1.117529,-1.815452 -0.518136,-1.281744 -0.274495,-2.899439 -1.501169,-3.795945 -1.203568,-0.87962 -2.036916,-1.897367 -2.435228,-3.330834 -0.03103,-0.111657 -0.327567,-1.215305 -0.517062,-1.215305 -0.157625,0 -0.178916,0.991417 0.200147,1.350338 C 83.893661,67.711731 83.270357,64.874827 82.337598,63.878457 81.808447,63.31322 81.078355,62.908924 80.552876,62.318064 80.201577,61.923056 79.873118,61.3802 79.618819,60.922717 79.119845,60.025064 78.131733,59.042417 77.517183,58.162028 76.892338,57.266889 75.963346,56.608073 75.44891,55.611387 75.035773,54.81096 74.777976,53.521359 74.231297,52.865703 73.991766,52.578423 73.945927,51.1016 73.630831,50.600137 73.000724,49.597349 72.206943,48.704815 71.562558,47.719418 71.240417,47.226798 71.077692,46.660089 70.728575,46.189036 70.22872,45.514595 69.584819,44.685805 69.260768,43.908465 68.821328,42.854327 68.809867,41.576703 68.326706,40.562632 67.881315,39.627836 66.39611,35.136093 66.692103,34.426098" />
    <path
       style="fill:none;stroke:#000000;stroke-width:0.264583px;stroke-linecap:butt;stroke-linejoin:miter;stroke-opacity:1"
       d="m 106.66183,31.170284 c 0.57162,0.818384 1.07097,1.718557 1.24689,2.714527 0.0678,0.384141 0.0427,0.774815 0.0145,1.161674 -0.0797,1.091322 -0.13529,2.202362 -0.47964,3.248984 -0.24208,0.735787 -0.59421,1.432974 -0.74736,2.200899 -0.0796,0.399284 0.0127,0.809969 0.17836,1.176658 0.26194,0.579939 0.71188,1.088812 0.81023,1.7305 0.17779,1.159965 -0.0286,2.342828 0.1914,3.501086 0.19693,1.036962 0.23733,2.099783 0.45977,3.13096 0.1244,0.576675 0.40754,1.116831 0.43046,1.716248 0.029,0.758673 -0.17852,1.507972 -0.0847,2.269732 0.0677,0.550125 0.26764,1.071918 0.50188,1.571513 0.20914,0.446063 0.43611,0.889941 0.5329,1.378568 0.0942,0.475421 0.15652,0.956608 0.20492,1.438401 0.10509,1.046073 -0.202,2.105773 0.029,3.141795 0.25527,1.144861 0.79492,2.211102 0.95708,3.38078 0.124,0.894441 0.11508,1.821642 0.43685,2.676923 0.17651,0.469176 0.51871,0.846206 0.79627,1.255958 0.22156,0.327087 0.41647,0.692764 0.43191,1.100425 0.0404,1.066657 -0.424,2.09655 -0.29643,3.164158 0.0661,0.552854 0.2539,1.081771 0.44166,1.6029 0.28927,0.802862 0.62482,1.601314 0.73249,2.455849 0.0865,0.686308 0.0232,1.404262 0.25223,2.060659 0.16489,0.47263 0.62746,0.808183 0.69887,1.312944 0.0498,0.351874 0.0617,0.70826 0.0946,1.062116 0.0555,0.597465 0.0971,1.200849 0.24479,1.784006 0.0375,0.147922 0.1059,0.283709 0.2049,0.404243 0.41131,0.500785 0.51166,1.166039 0.86408,1.703736 0.57123,0.871533 1.03921,1.806509 1.43757,2.76885 0.30655,0.740547 0.53936,1.512985 0.89054,2.233355 0.23276,0.477461 0.62836,0.842501 0.90775,1.291734 0.52454,0.843418 0.88352,1.773728 1.31248,2.66762 0.26165,0.545246 0.64674,1.018335 1.02287,1.487297 0.62549,0.779865 1.32175,1.512537 1.8357,2.373175 0.21345,0.357433 0.43162,0.746816 0.44175,1.1738"
       id="path79"
       inkscape:path-effect="#path-effect81"
       inkscape:original-d="m 106.66183,31.170284 c 0.72579,1.03545 1.38081,2.253986 1.28433,3.555889 -0.0832,1.123119 -0.13944,2.426957 -0.48371,3.510878 -0.26532,0.835329 -0.67152,1.47529 -0.78394,2.385594 -0.13399,1.085022 0.87871,1.85225 1.01746,2.850711 0.15361,1.105488 -0.0488,2.245821 0.16679,3.360844 0.19342,1.000426 0.29098,2.043578 0.45035,3.075762 0.0831,0.538314 0.36165,1.043853 0.43367,1.605402 0.0992,0.77344 -0.16745,1.574289 -0.0834,2.355591 0.11808,1.097613 0.5027,1.610934 0.86733,2.475616 0.24059,0.570526 0.2752,1.270222 0.36696,1.87547 0.17359,1.145082 -0.20352,2.304605 0.0834,3.465864 0.22829,0.923967 0.62802,1.789366 0.83398,2.715681 0.23236,1.045069 0.14838,2.296379 0.5671,3.300822 0.27496,0.659585 1.13277,1.404387 1.18425,2.145536 0.0862,1.240321 -0.51331,2.372539 -0.23351,3.630914 0.23235,1.044913 0.74133,2.033995 1.00078,3.060763 0.21336,0.844423 0.14995,1.77564 0.35028,2.640656 0.11111,0.479805 0.67637,0.916133 0.73389,1.485365 0.0571,0.564991 0.1669,2.751786 0.46704,3.075776 0.44905,0.484738 0.52226,1.157213 0.88401,1.710425 1.17036,1.789753 1.52814,2.996219 2.31847,4.95123 0.20128,0.497872 0.5894,0.822809 0.86735,1.260319 0.56199,0.884627 0.97038,1.760538 1.36772,2.730685 0.56528,1.380175 3.33593,3.768799 3.33593,5.11628" />
    <path
       style="fill:none;stroke:#000000;stroke-width:0.264583px;stroke-linecap:butt;stroke-linejoin:miter;stroke-opacity:1"
       d="m 123.6584,99.512357 c 1.01931,0.339303 1.88624,1.008893 2.6564,1.741603 0.93782,0.89222 1.76191,1.92252 2.84592,2.64577 0.46613,0.311 1.0343,0.52671 1.35962,0.99596 0.17864,0.25767 0.30536,0.54704 0.45367,0.82264 0.29246,0.54345 0.56088,1.12524 1.01662,1.54956 0.2858,0.2661 0.6223,0.46995 0.9423,0.6914 0.63583,0.44002 1.29722,0.88596 1.74952,1.52674 0.24325,0.34462 0.35074,0.75726 0.50175,1.1455 0.17416,0.44776 0.39794,0.8748 0.68329,1.26547 0.24478,0.33512 0.58234,0.66447 0.60999,1.09111 0.0614,0.94815 0.0498,1.90045 4.2e-4,2.84892 -0.0567,1.0881 -0.13903,2.17612 -0.28636,3.25556 -0.1185,0.86818 -0.43431,1.71885 -0.3695,2.60486 0.0384,0.52485 0.19699,1.07523 0.56633,1.45138 0.33256,0.33869 0.76731,0.58308 1.22371,0.68314 0.14957,0.0328 0.28363,0.11225 0.38403,0.22811 0.12191,0.14069 0.2827,0.25382 0.47799,0.26204 0.43238,0.0182 0.82519,-0.20492 1.25355,-0.23256 0.31042,-0.02 0.62318,-0.0566 0.91325,-0.18058 0.77913,-0.33308 1.40275,-0.93713 1.94456,-1.57303 0.55364,-0.64979 1.05752,-1.33961 1.56065,-2.02844 0.45884,-0.6282 0.87938,-1.31468 1.02418,-2.0937 0.0983,-0.52902 -0.0842,-1.05153 -0.25755,-1.54258 -0.26063,-0.73842 -0.23756,-1.53067 -0.24082,-2.30135 -0.002,-0.51032 -0.0677,-1.01723 -0.16062,-1.51857 -0.31373,-1.69318 -0.94899,-3.30084 -1.52377,-4.9175 -0.4767,-1.34079 -0.92035,-2.69346 -1.31683,-4.05977 -0.17716,-0.61051 -0.23156,-1.25255 -0.48615,-1.84366 -0.57305,-1.3305 -1.14792,-2.686157 -1.35569,-4.128679 -0.0891,-0.618481 -0.13573,-1.257763 -0.004,-1.871791 0.1229,-0.571262 0.55129,-1.003775 0.78234,-1.525949 0.26607,-0.601315 0.14684,-1.274995 0.22609,-1.909295 0.0428,-0.342545 0.0766,-0.696669 -0.0447,-1.033874 -0.37295,-1.036764 -1.02607,-1.934294 -1.62591,-2.847021 -0.35142,-0.534731 -0.65404,-1.099667 -0.91881,-1.682358 -0.63341,-1.393965 -1.08277,-2.88792 -1.93756,-4.166836 -0.34002,-0.508727 -0.79939,-0.921322 -1.14969,-1.423625 -0.64636,-0.926823 -1.19154,-1.917093 -1.72409,-2.911656 -0.26032,-0.486165 -0.32137,-1.042042 -0.52909,-1.550685 -0.40743,-0.997677 -0.86295,-1.977816 -1.42453,-2.900245 -1.39173,-2.286011 -3.06196,-4.402519 -4.25036,-6.812245 -0.22856,-0.463453 -0.42056,-0.944643 -0.55735,-1.44365 -0.23624,-0.861823 -0.40167,-1.746273 -0.44952,-2.640201 -0.0421,-0.787024 0.22458,-1.538891 0.38359,-2.298505 0.11276,-0.538687 0.1041,-1.093455 0.0463,-1.638176 -0.10355,-0.975765 -0.30554,-1.9414 -0.59387,-2.878756 -0.22812,-0.741614 -0.62867,-1.41332 -1.10269,-2.036827 -0.28697,-0.377471 -0.42895,-0.837187 -0.66211,-1.246904 -0.69641,-1.223749 -1.1365,-2.590228 -1.28721,-3.991458 -0.0788,-0.732256 -0.0381,-1.469446 -0.0277,-2.205014 0.007,-0.516866 -0.0662,-1.051403 0.0899,-1.551546 0.0463,-0.148337 0.1241,-0.306602 0.2732,-0.374013"
       id="path83"
       inkscape:path-effect="#path-effect85"
       inkscape:original-d="m 123.6584,99.512357 c 2.32473,0.787293 3.53392,2.974563 5.38749,4.308413 0.46402,0.33392 1.28316,0.70305 1.56789,1.21531 0.36442,0.65561 0.9171,1.89456 1.53452,2.37059 0.85363,0.65814 2.35374,1.43159 2.76882,2.52063 0.18684,0.49021 0.40935,1.1377 0.68387,1.5904 0.27198,0.44853 0.85588,1.01372 0.88402,1.54538 0.10362,1.95787 -0.056,3.92496 -0.26688,5.82145 -0.16558,1.48925 -0.86742,2.76626 0.0834,4.15605 0.26951,0.39392 0.98018,0.694 1.41777,0.8252 0.2264,0.0679 0.33383,0.31519 0.53375,0.4051 0.33597,0.1511 0.82519,-0.0618 1.15089,-0.13504 0.33683,-0.0757 0.70946,-0.0405 1.03414,-0.15003 1.45874,-0.49205 2.56373,-2.16908 3.436,-3.31583 0.57064,-0.75022 1.23913,-1.65114 1.31769,-2.64065 0.0505,-0.63594 -0.30469,-1.26927 -0.41699,-1.87548 -0.16201,-0.87465 -0.0406,-1.83054 -0.16679,-2.71568 -0.25674,-1.80127 -0.87284,-3.4809 -1.50117,-5.17629 -0.51669,-1.39413 -0.9302,-2.86415 -1.40109,-4.27607 -0.19738,-0.59179 -0.21773,-1.25581 -0.46703,-1.83045 -0.76666,-1.76719 -1.69004,-3.976876 -1.45113,-5.911478 0.084,-0.680339 0.46269,-1.087458 0.76727,-1.63541 0.30438,-0.547606 0.22758,-1.257044 0.26687,-1.875468 0.0236,-0.372043 0.12619,-0.71706 0,-1.080267 -0.54846,-1.578631 -1.63317,-2.66854 -2.35182,-4.141039 -0.73455,-1.505058 -1.24539,-3.144252 -2.11832,-4.57614 -0.23213,-0.380767 -0.58423,-0.725705 -0.86734,-1.065268 -0.7532,-0.903402 -1.37602,-2.25551 -2.00155,-3.255812 -0.27982,-0.447461 -0.32177,-1.008512 -0.51708,-1.485373 -0.37589,-0.917787 -0.76248,-1.827348 -1.26765,-2.685669 -1.53528,-2.608567 -3.50751,-4.938737 -4.72033,-7.726932 -0.40818,-0.938384 -0.87022,-3.083967 -0.73391,-4.126029 0.11624,-0.888621 0.45036,-1.655675 0.45036,-2.56564 0,-0.959295 -0.23063,-2.149391 -0.46704,-3.060764 -0.24713,-0.952759 -0.56826,-1.87366 -1.25097,-2.610651 -0.22037,-0.237893 -0.44808,-0.862852 -0.61714,-1.15529 -1.13477,-1.962997 -1.53347,-3.93169 -1.38441,-6.211552 0.0316,-0.483407 -0.13145,-1.801336 0.36695,-2.025507" />
    <path
       style="fill:none;stroke:#000000;stroke-width:0.264583px;stroke-linecap:butt;stroke-linejoin:miter;stroke-opacity:1"
       d="m 123.34109,44.961071 c -0.43586,-0.64974 -0.96865,-1.242909 -1.30716,-1.949833 -0.0594,-0.124048 -0.0776,-0.262521 -0.0945,-0.397558 -0.0334,-0.267547 -0.0318,-0.539274 -0.0805,-0.804644 -0.0266,-0.144738 -0.0678,-0.286352 -0.10542,-0.428481 -0.30317,-1.14393 -0.66301,-2.274631 -1.1156,-3.368556 -0.17037,-0.411789 -0.34794,-0.821448 -0.55604,-1.215629 -0.0846,-0.160327 -0.20623,-0.298346 -0.34559,-0.413448 -0.13159,-0.108687 -0.26282,-0.218148 -0.38026,-0.342736 -0.62063,-0.65843 -1.11531,-1.440741 -1.41607,-2.295103 -0.165,-0.468716 -0.27303,-0.959602 -0.29464,-1.457248 -0.0308,-0.70884 0.0749,-1.418803 -0.004,-2.126722 -0.0272,-0.244107 -0.0868,-0.482981 -0.15674,-0.718116 -0.28904,-0.97149 -0.71101,-1.895007 -1.0526,-2.848032 -0.14959,-0.417351 -0.27368,-0.843991 -0.44814,-1.25242 -0.0327,-0.07651 -0.10091,-0.129201 -0.15971,-0.185321 -0.0396,-0.03776 -0.1136,-0.06044 -0.11723,-0.115536 -0.003,-0.04488 0.0682,-0.01762 0.0956,-0.0122 0.16742,0.03316 0.3337,0.07177 0.50018,0.109285"
       id="path87"
       inkscape:path-effect="#path-effect89"
       inkscape:original-d="m 123.34109,44.961071 c -0.43355,-0.645943 -0.91554,-1.261882 -1.30064,-1.937824 -0.14166,-0.248639 -0.11988,-0.98552 -0.20016,-1.305327 -0.39714,-1.582063 -1.00155,-3.425478 -1.73468,-4.876215 -0.2018,-0.399323 -0.43226,-0.472652 -0.70055,-0.750189 -0.8414,-0.870403 -1.49115,-2.030971 -1.70132,-3.24081 -0.19187,-1.10453 0.13928,-2.124498 -0.16679,-3.225808 -0.28952,-1.041765 -0.73332,-1.960737 -1.08418,-2.970739 -0.14602,-0.420364 -0.34126,-0.852805 -0.46703,-1.305328 -0.037,-0.13302 -0.3881,-0.336612 -0.25019,-0.330085 0.0548,0.0026 0.49979,0.104893 0.5671,0.12003" />
    <path
       style="fill:none;stroke:#000000;stroke-width:0.264583px;stroke-linecap:butt;stroke-linejoin:miter;stroke-opacity:1"
       d="m 135.08391,31.965482 c -0.14464,1.315287 0.15455,2.624555 0.49234,3.887456 0.29864,1.116541 0.59656,2.239112 0.70631,3.394532 0.0849,0.893476 0.20242,1.807215 0.61955,2.62075 0.20327,0.396438 0.49873,0.756467 0.61111,1.190199 0.0966,0.372781 0.0944,0.768246 0.25714,1.125706 0.21101,0.463484 0.50704,0.88348 0.67717,1.368018 0.24644,0.701857 0.42167,1.424863 0.64235,2.135343 0.79122,2.547285 0.79881,5.274982 1.68605,7.795511 0.7565,2.149106 2.28691,3.920764 3.0566,6.063774 0.5843,1.626842 0.63449,3.396897 1.30106,5.000526 0.48922,1.176953 1.14901,2.271984 1.64751,3.445833 1.17654,2.770459 1.95461,5.688968 3.05097,8.488791 0.66871,1.707716 1.76862,3.192369 2.79583,4.696128 0.833,1.219456 1.32283,2.627044 1.80394,4.011981 0.26068,0.750408 0.4818,1.516782 0.79886,2.245746 0.45935,1.056093 1.17767,1.973916 1.67944,3.006438 0.28627,0.589072 0.47996,1.217311 0.77874,1.801902 0.50528,0.988615 1.07803,1.940975 1.67146,2.87817 0.5081,0.802431 1.16702,1.537794 1.44244,2.463235 0.0895,0.300792 -0.002,0.629269 0.0845,0.932079 0.16601,0.57947 -0.12192,1.17583 0.0386,1.76032 0.21486,0.78213 0.80924,1.409 0.93779,2.22481 0.1861,1.18101 -0.22868,2.36198 -0.045,3.5449 0.17615,1.13445 0.72186,2.18971 0.76232,3.35033 0.0436,1.25134 -0.0964,2.51091 -0.41495,3.71962 -0.13298,0.5045 -0.38439,0.97055 -0.45467,1.49598 -0.17239,1.28884 0.0717,2.61124 -0.19954,3.88495 -0.11252,0.52834 -0.36015,1.02367 -0.38315,1.57394 -0.0238,0.57017 -0.004,1.15537 -0.21301,1.70126 -0.2759,0.72013 -0.64963,1.41155 -0.76479,2.18593 -0.0952,0.64007 -0.22887,1.27453 -0.4746,1.88119 -0.0871,0.21516 -0.26303,0.44712 -0.1812,0.67971 0.0469,0.13328 0.19913,0.17765 0.32461,0.19872"
       id="path91"
       inkscape:path-effect="#path-effect93"
       inkscape:original-d="m 135.08391,31.965482 c -0.25344,2.363779 0.87265,4.52684 1.1509,6.841712 0.10358,0.861758 0.12267,1.673592 0.41699,2.505625 0.19922,0.563197 0.55585,1.037169 0.80063,1.575393 0.13095,0.287943 0.12649,0.664617 0.20015,0.960239 0.12173,0.488521 0.46779,0.923777 0.66719,1.380347 0.29147,0.667387 0.45127,1.493168 0.68386,2.190543 0.84565,2.535592 0.88035,5.269839 1.68464,7.801952 0.71488,2.250665 2.29886,4.042944 3.11909,6.256562 0.54414,1.468488 0.61898,3.048368 1.11754,4.516125 0.4287,1.26206 1.15015,2.380427 1.68464,3.6009 1.23775,2.826292 2.08802,5.777428 3.13577,8.657169 0.65226,1.792756 1.79557,3.361441 2.86889,4.906219 1.17112,1.685531 1.75933,3.997441 2.46859,5.91148 0.41614,1.122997 1.16799,2.176264 1.73469,3.195793 0.29639,0.533236 0.45601,1.117132 0.71722,1.665415 0.49116,1.030949 1.13604,2.030354 1.718,3.015755 0.6277,1.062836 1.80947,2.260142 1.63461,3.570889 0.15182,0.50685 -0.0874,1.06396 0,1.58501 0.12591,0.75034 0.77727,1.47024 0.93405,2.17555 0.26741,1.20294 -0.15183,2.31813 -0.0334,3.52587 0.11371,1.15916 0.7098,2.25337 0.78395,3.42086 0.0774,1.21924 -0.10915,2.69239 -0.40032,3.87096 -0.11476,0.46455 -0.3597,0.86957 -0.43367,1.33534 -0.20575,1.29554 -0.0256,2.62052 -0.20015,3.91597 -0.0734,0.54463 -0.35875,1.01465 -0.40031,1.5754 -0.0388,0.52391 0.0163,1.15137 -0.15011,1.65042 -0.2382,0.71429 -0.66629,1.42041 -0.80063,2.17553 -0.13711,0.77077 -0.15389,1.31355 -0.50038,2.07052 -0.21369,0.46683 -0.38096,0.81609 0.13343,0.90023" />
    <path
       style="fill:none;stroke:#000000;stroke-width:0.264583px;stroke-linecap:butt;stroke-linejoin:miter;stroke-opacity:1"
       d="m 120.75611,127.60898 c -0.17685,-1.13145 -0.67449,-2.17699 -1.19406,-3.18597 -0.46451,-0.90205 -0.92989,-1.80941 -1.24316,-2.77835 -0.32388,-1.00175 -0.57804,-2.03386 -1.06532,-2.97511 -0.56339,-1.08826 -1.27092,-2.09723 -1.77133,-3.22025 -0.82672,-1.85531 -1.76018,-3.66254 -2.80888,-5.40476 -0.53196,-0.88375 -0.75902,-1.90195 -1.01933,-2.88845 -0.1984,-0.75189 -0.39157,-1.52239 -0.79208,-2.19461 -0.44954,-0.75451 -1.21925,-1.28128 -1.59175,-2.08099 -0.3093,-0.66404 -0.57261,-1.35162 -0.95268,-1.98149 -0.18587,-0.30803 -0.40885,-0.59251 -0.66634,-0.84442 -0.32761,-0.3205 -0.66385,-0.651379 -0.84927,-1.081076 -0.42442,-0.983555 -0.46184,-2.098024 -0.90723,-3.066844 -0.11988,-0.260764 -0.35846,-0.442774 -0.46085,-0.718426 -0.44489,-1.197726 -1.05684,-2.324895 -1.53778,-3.507239 -0.30496,-0.74972 -0.16601,-1.601663 -0.48675,-2.346577 -0.37186,-0.863634 -1.01684,-1.570041 -1.41624,-2.42051 -0.57729,-1.229264 -0.90975,-2.560479 -1.55312,-3.761698 -0.41932,-0.782903 -0.941087,-1.533696 -1.155372,-2.404141 -0.102267,-0.415418 -0.150202,-0.841987 -0.198633,-1.266341 -0.124996,-1.095208 -0.15369,-2.213979 -0.467375,-3.275137 -0.158764,-0.537079 -0.585944,-0.971256 -0.648077,-1.539675 -0.05196,-0.47534 0.05481,-0.950907 -0.0059,-1.427656 -0.104817,-0.823373 -0.49519,-1.569767 -0.883971,-2.287813 -0.126865,-0.234309 -0.213593,-0.488284 -0.25471,-0.752324 -0.08703,-0.558889 -0.05968,-1.140534 -0.275329,-1.676748 -0.501915,-1.248026 -1.232344,-2.435577 -1.439497,-3.772485 -0.03719,-0.24004 -0.157537,-0.452989 -0.252604,-0.673162 -0.06716,-0.155539 -0.125765,-0.324606 -0.09259,-0.496932 0.01911,-0.09925 -0.0092,-0.391221 -0.14351,-0.239122 -0.122509,0.13873 -0.111514,0.340429 -0.104224,0.513141 0.0056,0.132407 0.02367,0.263782 0.03639,0.395572"
       id="path95"
       inkscape:path-effect="#path-effect97"
       inkscape:original-d="m 120.75611,127.60898 c -0.32351,-2.03258 -1.59319,-3.62455 -2.2851,-5.52138 -0.38035,-1.0427 -0.60019,-2.14401 -1.08418,-3.15078 -0.5536,-1.15156 -1.3102,-2.15124 -1.83476,-3.33084 -0.85063,-1.91284 -1.72436,-3.72296 -2.83554,-5.49137 -0.93486,-1.48782 -0.97191,-3.43372 -1.76804,-4.99625 -0.43199,-0.84783 -1.35876,-1.51016 -1.73468,-2.35559 -0.35802,-0.80515 -0.60934,-1.4895 -1.13421,-2.22055 -0.41033,-0.571504 -0.978,-0.875415 -1.26766,-1.545385 -0.43024,-0.995151 -0.57816,-2.030225 -0.9007,-3.045759 -0.0759,-0.238985 -0.35865,-0.442733 -0.45034,-0.690174 -0.46085,-1.243647 -0.97765,-2.308653 -1.53453,-3.510878 -0.33826,-0.730252 -0.19316,-1.658072 -0.51707,-2.415606 -0.34284,-0.801798 -0.94511,-1.462743 -1.33437,-2.250559 -0.59575,-1.20574 -0.89339,-2.473179 -1.50116,-3.675919 -0.45238,-0.895221 -1.181071,-1.94691 -1.351053,-2.940733 C 98.982174,79.060849 98.98396,77.6778 98.638928,76.28116 98.50693,75.746858 98.091732,75.301204 97.98842,74.780787 c -0.07933,-0.399603 0.01622,-0.859131 0,-1.260319 -0.04109,-1.016545 -0.565258,-1.846572 -1.000778,-2.760689 -0.304096,-0.638272 -0.134115,-1.475083 -0.400307,-2.145535 -0.518744,-1.30656 -1.208018,-2.613578 -1.501169,-3.975991 -0.06916,-0.321411 -0.305406,-0.600628 -0.333592,-0.930233 -0.0019,-0.02011 0.07217,-0.442272 -0.06458,-0.403868 -0.268386,0.07537 -0.146632,0.767239 -0.133438,0.945235" />
    <path
       style="fill:none;stroke:#000000;stroke-width:0.264583px;stroke-linecap:butt;stroke-linejoin:miter;stroke-opacity:1"
       d="m 94.554536,64.249387 c 0.08935,0.109528 0.146709,0.240082 0.210995,0.364916 0.05839,0.113381 0.112225,0.231986 0.198093,0.32774 0.03738,0.04168 0.0956,0.08209 0.153024,0.06005 0.0441,-0.01692 0.09304,-0.0508 0.0983,-0.100014 0.006,-0.0559 -0.0382,-0.100274 -0.07757,-0.132586 -0.129668,-0.106424 -0.282847,-0.179873 -0.412916,-0.285776 -0.07307,-0.05949 -0.154282,-0.12951 -0.168836,-0.227004 -0.02558,-0.171364 0.03561,-0.340442 0.109347,-0.492448 0.100759,-0.207717 0.23236,-0.404688 0.282156,-0.633593 0.07527,-0.345983 0.06662,-0.703422 0.04136,-1.054492 -0.03682,-0.511732 -0.118919,-1.01976 -0.133813,-1.533197 -0.0046,-0.158957 0.0049,-0.318239 0.0307,-0.475284 0.05643,-0.343848 0.17276,-0.678373 0.185807,-1.028701 0.07087,-1.90293 -0.114206,-3.802701 -0.116311,-5.705157 -0.0012,-1.076364 0.07294,-2.150398 0.135049,-3.224354 0.02588,-0.44756 0.05358,-0.895204 0.09714,-1.341384 0.01414,-0.14489 0.05504,-0.288624 0.04849,-0.434176 -9.57e-4,-0.02129 0.01312,-0.02048 0.01496,0.0018 0.0048,0.0581 0.0042,0.116516 0.0046,0.174766"
       id="path99"
       inkscape:path-effect="#path-effect101"
       inkscape:original-d="m 94.554536,64.249387 c 0.205724,0.240059 0.377108,0.925901 0.617167,0.720179 0.240062,-0.205724 -0.576503,-0.406656 -0.617167,-0.720179 -0.04915,-0.37895 0.293235,-0.708997 0.383651,-1.08027 0.198602,-0.81552 -0.102975,-1.9279 -0.0834,-2.790698 0.01058,-0.466577 0.199556,-0.884174 0.216834,-1.350336 0.07019,-1.893983 -0.116756,-3.82321 -0.116756,-5.716428 0,-1.058665 0.09671,-2.108679 0.133438,-3.16579 0.0081,-0.233164 0.166796,-2.511494 0.166796,-1.635411" />
    <path
       style="fill:none;stroke:#000000;stroke-width:0.264583px;stroke-linecap:butt;stroke-linejoin:miter;stroke-opacity:1"
       d="m 95.255111,48.510494 c 0.05877,-0.04221 0.116984,-0.08692 0.163835,-0.143535 0.03395,-0.04103 -0.01261,-0.07856 -0.05434,-0.08743 -0.102233,-0.02171 -0.207714,-0.01738 -0.311537,-0.01599 -0.229866,0.0031 -0.462077,0.02381 -0.689895,-0.01288 -0.0884,-0.01424 -0.184177,-0.03069 -0.252824,-0.09197 -0.04693,-0.0419 -0.06627,-0.10501 -0.08115,-0.163833 -0.0455,-0.179892 -0.03459,-0.36837 -0.01185,-0.550613 0.0541,-0.43371 0.180387,-0.85407 0.247566,-1.285532 0.01824,-0.117154 0.02267,-0.235721 0.02392,-0.354209 0.0087,-0.820152 -0.0051,-1.643158 0.08871,-2.459289 0.02035,-0.17696 0.03898,-0.354529 0.07286,-0.529461 0.0361,-0.186403 0.114149,-0.361113 0.199807,-0.529443 0.082,-0.161136 0.165574,-0.327928 0.182605,-0.510252 0.01353,-0.144822 0.01761,-0.290436 0.02188,-0.43577 0.03572,-1.214416 -0.07441,-2.426126 -0.138176,-3.637722 -0.02661,-0.505538 -0.05845,-1.011887 -0.04437,-1.518044 0.01131,-0.406523 0.08589,-0.807437 0.144906,-1.208822 0.06292,-0.427889 0.120701,-0.862 0.08046,-1.294863 -0.02285,-0.245767 -0.08078,-0.490577 -0.192832,-0.711625"
       id="path103"
       inkscape:path-effect="#path-effect105"
       inkscape:original-d="m 95.255111,48.510494 c 0.721492,-0.493094 -0.999586,-0.0287 -1.184265,-0.4025 -0.244671,-0.495224 0.209116,-1.601428 0.216834,-2.205551 0.01339,-1.048599 -0.01114,-1.969267 0.150122,-3.015755 0.07984,-0.518099 0.374912,-0.736285 0.400307,-1.170292 0.103872,-1.775362 -0.166796,-3.664524 -0.166796,-5.461365 0,-0.994889 0.515318,-2.332112 0.03336,-3.285818" />
  </g>
</svg>
