<?xml version="1.0" encoding="UTF-8" standalone="no"?>
<!-- Created with Inkscape (http://www.inkscape.org/) -->

<svg
   width="169.33333mm"
   height="127mm"
   viewBox="0 0 169.33333 127"
   version="1.1"
   id="svg5"
   inkscape:version="1.1.2 (08b2f3d93c, 2022-04-05)"
   sodipodi:docname="Celulas_Parietais.svg"
   xmlns:inkscape="http://www.inkscape.org/namespaces/inkscape"
   xmlns:sodipodi="http://sodipodi.sourceforge.net/DTD/sodipodi-0.dtd"
   xmlns="http://www.w3.org/2000/svg"
   xmlns:svg="http://www.w3.org/2000/svg">
  <sodipodi:namedview
     id="namedview7"
     pagecolor="#ffffff"
     bordercolor="#666666"
     borderopacity="1.0"
     inkscape:pageshadow="2"
     inkscape:pageopacity="0.0"
     inkscape:pagecheckerboard="0"
     inkscape:document-units="mm"
     showgrid="false"
     inkscape:zoom="0.61580177"
     inkscape:cx="198.1157"
     inkscape:cy="120.98049"
     inkscape:window-width="1366"
     inkscape:window-height="704"
     inkscape:window-x="0"
     inkscape:window-y="27"
     inkscape:window-maximized="1"
     inkscape:current-layer="layer2" />
  <defs
     id="defs2" />
  <g
     inkscape:groupmode="layer"
     id="layer2"
     inkscape:label="Celulas_Parietais">
    <path
       style="fill:none;stroke:#000000;stroke-width:0.264583px;stroke-linecap:butt;stroke-linejoin:miter;stroke-opacity:1"
       d="m 84.625745,109.50463 c 0.891384,-0.38305 2.307027,-0.16001 3.109309,-0.64112 0.192302,-0.11532 0.282369,-0.23516 0.507826,-0.30454 0.112617,-0.0346 0.260879,-0.001 0.365276,-0.0561 0.03363,-0.0177 0.174087,-0.1794 0.23164,-0.19234 0.174265,-0.0392 0.24711,0.0765 0.365278,-0.10418 0.146727,-0.22438 0.06697,-1.15496 0.02673,-1.4265 -0.06465,-0.43615 -0.376354,-0.79098 -0.445458,-1.22615 -0.04543,-0.28609 -0.0278,-0.58706 -0.169275,-0.85751 -0.108067,-0.20658 -0.532268,-0.21088 -0.721646,-0.16829 -0.473938,0.10658 -1.087731,0.55515 -1.398744,0.6251 -0.185118,0.0416 -0.370676,-0.0194 -0.55237,0.0721 -0.728747,0.36711 -1.262645,0.94481 -2.049119,1.21012 -0.390448,0.13172 -1.401185,-0.0293 -1.683837,0.28851 -0.545571,0.61345 0.668986,1.19251 0.98892,1.54671 0.133485,0.14778 0.209727,0.4504 0.418735,0.52091 0.324445,0.10945 0.667996,0.11693 0.988919,0.23241 0.362276,0.13036 0.680662,0.38467 1.069105,0.38467"
       id="path57" />
    <path
       style="fill:none;stroke:#000000;stroke-width:0.264583px;stroke-linecap:butt;stroke-linejoin:miter;stroke-opacity:1"
       d="m 94.969324,96.906547 c 0.679817,-0.18229 1.624361,-0.371245 2.182754,-0.873532 0.249571,-0.224491 0.706141,-1.515478 0.579099,-1.763091 -0.137983,-0.268936 -0.918038,-1.005562 -1.202743,-1.121966 -0.548362,-0.224205 -1.134153,0.07861 -1.666021,0.120208 -0.806399,0.06307 -0.995611,-0.177038 -1.87984,0.1122 -0.760834,0.248872 -0.816356,2.367097 -0.294003,2.836971 0.324742,0.292115 0.687607,0.230904 1.051285,0.368649 0.479954,0.181782 0.650036,0.365884 1.229469,0.320561 z"
       id="path59" />
    <path
       style="fill:none;stroke:#000000;stroke-width:0.264583px;stroke-linecap:butt;stroke-linejoin:miter;stroke-opacity:1"
       d="m 103.55779,83.651309 c 0.81352,-0.27698 1.26174,0.53857 1.98675,0.657153 0.32905,0.05382 0.49678,-0.585449 0.54346,-0.809419 0.0662,-0.317378 0.0487,-0.807804 -0.0178,-1.121968 -0.0635,-0.299741 -0.4945,-2.388235 -0.56129,-2.468329 -0.12609,-0.151231 -0.27765,-0.348192 -0.49891,-0.424744 -0.47771,-0.165275 -2.56865,-0.393681 -3.05586,-0.288504 -0.48773,0.105291 -0.96111,0.379182 -1.25619,0.777361 -0.13549,0.18282 -0.2557,0.892493 -0.16928,1.073886 0.0823,0.17267 1.96578,2.216539 2.16494,2.316059 0.26827,0.134059 0.57582,0.194681 0.86419,0.288505 z"
       id="path61" />
    <path
       style="fill:none;stroke:#000000;stroke-width:0.264583px;stroke-linecap:butt;stroke-linejoin:miter;stroke-opacity:1"
       d="m 82.033167,77.809065 c -0.01633,-1.106852 -0.06612,-2.296985 -0.481094,-3.333845 -0.140473,-0.350988 -0.405157,-0.62757 -0.543462,-0.969698 -0.185717,-0.459396 -0.286351,-0.938321 -0.7751,-1.202108 -0.250534,-0.135215 -0.642448,-0.09896 -0.917649,-0.184324 -0.659336,-0.204513 -0.557726,0.06368 -1.122558,0.248435 -0.170805,0.05587 -0.399238,0.141518 -0.525645,0.280493 -0.216713,0.23826 -0.262515,0.463812 -0.276186,0.777362 -0.05067,1.162248 0.321982,1.545524 0.775102,2.564498 0.285737,0.642559 0.576051,2.567148 1.5502,2.676691 1.813141,0.203888 1.147548,-0.722707 2.316392,-0.857504 z"
       id="path63" />
    <path
       style="fill:none;stroke:#000000;stroke-width:0.264583px;stroke-linecap:butt;stroke-linejoin:miter;stroke-opacity:1"
       d="m 72.286505,104.55997 c 0.686789,-0.48482 0.707099,-1.14467 0.917646,-1.88331 0.188442,-0.66109 0.795981,-1.12243 0.926558,-1.8272 0.04552,-0.24567 -0.101182,-0.5481 -0.196004,-0.76134 -0.0891,-0.20037 -0.11014,-0.507781 -0.285093,-0.665163 -0.620687,-0.558345 -1.778037,-0.302829 -2.316393,0.232407 -0.604949,0.601446 -1.313566,2.379556 -1.176015,3.245696 0.05251,0.33065 0.234051,0.64491 0.409824,0.92161 0.07185,0.1131 0.137417,0.28802 0.249457,0.36864 0.09011,0.0648 0.238315,0.0541 0.33855,0.10419 0.390057,0.19493 0.693899,0.36286 1.13147,0.26447 z"
       id="path65" />
    <path
       style="fill:none;stroke:#000000;stroke-width:0.264583px;stroke-linecap:butt;stroke-linejoin:miter;stroke-opacity:1"
       d="m 98.720096,61.36668 c 0.06534,-0.144254 0.13067,-0.288507 0.196006,-0.432761 0.003,-0.008 0.0013,-0.02027 0.0089,-0.02405 0.10306,-0.05057 0.223038,-0.01442 0.329642,-0.0561 0.114122,-0.04463 0.177453,-0.169738 0.294002,-0.208362 0.467784,-0.155022 0.778114,-0.130929 1.149284,-0.464814 0.0446,-0.04009 0.0573,-0.254492 0.0891,-0.336593 0.12701,-0.32844 0.18252,-0.324445 0.16037,-0.673179 -0.0432,-0.67923 -0.74952,-0.945557 -1.265106,-1.306288 -0.423486,-0.296288 -1.144897,-0.926568 -1.6482,-1.065871 -0.593339,-0.164222 -2.894478,-0.205888 -3.358769,0.128225 -0.224679,0.161684 -0.276376,0.396444 -0.302914,0.641125 -0.02914,0.268669 -0.08329,0.480126 0.04454,0.729277 0.27899,0.543745 0.774528,0.869124 1.122561,1.354375 0.289865,0.404146 0.828138,0.643245 1.211649,0.961686 0.236255,0.196168 0.440362,0.473115 0.748374,0.577012 0.183068,0.06175 0.376904,-0.02262 0.561282,0 0.152294,0.01868 0.610925,0.165237 0.659278,0.17631 z"
       id="path67" />
    <path
       style="fill:none;stroke:#000000;stroke-width:0.264583px;stroke-linecap:butt;stroke-linejoin:miter;stroke-opacity:1"
       d="m 89.311984,42.29324 c 0.922203,0.03836 1.71074,-0.389792 2.45894,-0.873532 0.293925,-0.190032 0.450408,-0.121174 0.75728,-0.408718 0.1021,-0.09567 0.293388,-0.302651 0.33855,-0.440769 0.190407,-0.582351 0.303212,-2.424636 -0.267277,-2.772865 -0.320797,-0.195816 -3.419861,0.03618 -3.85768,0.272478 -0.719704,0.388435 -2.020303,1.625288 -2.102573,2.476342 -0.130159,1.346472 1.605616,1.939049 2.67276,1.747064 z"
       id="path69" />
    <path
       style="fill:none;stroke:#000000;stroke-width:0.264583px;stroke-linecap:butt;stroke-linejoin:miter;stroke-opacity:1"
       d="m 100.03866,45.338579 c 0.34642,0.244491 0.73379,0.426759 1.14928,0.232407 0.14347,-0.06711 0.29517,-0.216834 0.46328,-0.224393 0.39328,-0.01767 0.75548,-0.0205 1.10475,-0.240422 1.18486,-0.746061 1.29432,-1.115869 0.82855,-2.267976 -0.0891,-0.220485 -0.31879,-0.65273 -0.51673,-0.777362 -0.10729,-0.06755 -0.24534,-0.06999 -0.33855,-0.160282 -0.21759,-0.210785 -0.37876,-0.494921 -0.66819,-0.625096 -0.71111,-0.319829 -1.37464,-0.306219 -2.129299,-0.41673 -0.343078,-0.05024 -0.581922,-0.463812 -0.980014,-0.408718 -1.091187,0.151011 -2.351199,1.232774 -1.496746,2.356131 0.06583,0.08654 0.06164,0.208502 0.133639,0.288507 0.506896,0.563261 1.056936,0.937837 1.692748,1.346359 0.209495,0.134606 0.491167,0.744188 0.757282,0.897575 0.0589,0.03394 0.91988,0.343604 0.95328,0.352618"
       id="path71" />
    <path
       style="fill:none;stroke:#000000;stroke-width:0.264583px;stroke-linecap:butt;stroke-linejoin:miter;stroke-opacity:1"
       d="m 82.211351,69.825007 c 0.579181,-0.25259 0.677979,-0.879587 1.131469,-1.242179 0.347938,-0.278199 0.758878,-0.459455 1.00674,-0.87353 0.148338,-0.247809 0.0459,-1.152401 -0.142547,-1.378416 -0.17721,-0.212537 -0.557189,-0.528098 -0.837465,-0.585025 -1.102135,-0.223862 -2.168077,0.177845 -3.234039,0.344601 -0.849595,0.132911 -2.369619,0.0076 -2.824218,0.82545 -0.0039,0.007 0.145296,1.147283 0.169275,1.298273 0.07792,0.490609 -0.08281,0.982022 0.231641,1.426504 0.242337,0.342553 0.559667,0.405997 0.926554,0.544954 0.314545,0.119131 0.589865,0.321119 0.908738,0.416729 0.307264,0.09213 0.598602,-0.0254 0.89983,-0.06411 0.842303,-0.108249 1.028181,0.08104 1.764022,-0.713247 z"
       id="path73" />
    <path
       style="fill:none;stroke:#000000;stroke-width:0.264583px;stroke-linecap:butt;stroke-linejoin:miter;stroke-opacity:1"
       d="m 52.398614,87.147219 c 0.514697,-0.584118 0.97622,-1.169411 1.416564,-1.803162 0.163041,-0.234654 1.59613,-1.799585 1.603655,-1.867273 0.0306,-0.275193 0.127503,-0.866299 0.06236,-1.12998 -0.0848,-0.343273 -0.302726,-0.897231 -0.472189,-1.20211 -0.123909,-0.22292 -0.441317,-0.348113 -0.632552,-0.488858 -0.648973,-0.477626 -1.24487,-1.067906 -2.147118,-0.905584 -0.482036,0.08672 -0.703156,0.418582 -1.086921,0.665165 -0.156046,0.100267 -0.419748,0.17367 -0.534551,0.328576 -0.828159,1.117444 -0.472948,2.563786 -0.605827,3.838728 -0.03508,0.336553 0.264435,0.8866 0.507825,1.113954 0.124238,0.116054 0.340821,0.171649 0.445461,0.304533 0.295465,0.375222 0.100719,0.439036 0.579096,0.697225 0.417216,0.225176 0.714602,-0.119367 0.864192,0.448786 z"
       id="path75" />
    <path
       style="fill:none;stroke:#000000;stroke-width:0.264583px;stroke-linecap:butt;stroke-linejoin:miter;stroke-opacity:1"
       d="m 31.720364,97.18882 c 0.538017,-0.174961 1.268195,0.555779 1.746202,0.520917 0.55554,-0.04051 0.694039,-1.093552 0.730552,-1.498629 0.08453,-0.937754 -0.1392,-0.534733 -0.561277,-1.218133 -0.231942,-0.375547 -0.5685,-0.688081 -0.926557,-0.92963 -0.179795,-0.121293 -0.222047,-0.383503 -0.445461,-0.472829 -0.997085,-0.398653 -1.977628,0.152535 -2.931125,0.392687 -0.432518,0.108934 -1.032622,0.05966 -1.372019,0.392689 -0.246467,0.241851 -0.527571,0.458518 -0.784008,0.689208 -0.216688,0.194929 -0.32862,0.491606 -0.507825,0.713251 -0.351218,0.434398 -0.657965,0.598939 -0.516732,1.234164 0.01758,0.07906 0.07492,0.285899 0.142546,0.33659 1.597519,1.197541 2.283369,0.572199 4.053686,0.344604 0.174778,-0.02246 0.902261,-0.09067 0.971102,-0.144256 0.141841,-0.110413 0.222126,-0.342075 0.400916,-0.360633 0.195093,-0.02024 0.349001,0.179208 0.525642,0.264467 0.386659,0.186632 0.266959,0.120698 0.525642,0.376659"
       id="path77" />
    <path
       style="fill:none;stroke:#000000;stroke-width:0.264583px;stroke-linecap:butt;stroke-linejoin:miter;stroke-opacity:1"
       d="m 22.918073,85.279946 c 0.185752,-0.175593 0.512648,-0.01095 0.730555,-0.09617 0.641661,-0.250954 1.369073,-1.052033 1.32747,-1.763088 -0.06467,-1.10536 0.0513,-1.700612 -0.88201,-2.420244 -0.326856,-0.252024 -1.93771,-0.06158 -2.33421,0.008 -0.965135,0.169397 -2.533327,-0.226489 -2.833125,1.121965 -0.177882,0.800092 -0.03465,1.932713 0.463278,2.604569 0.263298,0.35527 1.075435,0.852363 1.541291,0.961684 0.351215,0.08242 0.805962,7.94e-4 1.176015,0.01603 0.118036,0.0048 0.50321,0.05307 0.596916,-0.04809 0.0997,-0.107616 0.142547,-0.25645 0.21382,-0.384672 z"
       id="path79" />
    <path
       style="fill:none;stroke:#000000;stroke-width:0.264583px;stroke-linecap:butt;stroke-linejoin:miter;stroke-opacity:1"
       d="m 20.218587,87.451749 c -0.03234,-0.635497 0.411536,-1.185177 0.347458,-1.819188 -0.02164,-0.214161 -0.08973,-0.424764 -0.10691,-0.641122 -0.03322,-0.41837 -0.253125,-0.616813 -0.392005,-0.977712 -0.203543,-0.528937 -0.464218,-0.82327 -0.837465,-1.226151 -0.131356,-0.141785 -0.392019,-0.163203 -0.561279,-0.23241 -1.251246,-0.511606 -3.180109,-0.481285 -4.23187,0.464818 -0.585706,0.526864 -0.65413,1.33315 -0.311822,2.051595 0.148765,0.312232 0.09909,0.723331 0.258366,1.0258 0.442555,0.840404 1.644276,1.599083 2.601486,1.626849 0.315458,0.0092 0.650644,-0.03521 0.962194,0.03206 0.122825,0.02652 0.234637,0.09617 0.365278,0.09617 0.632543,0 1.275752,-0.356193 1.906569,-0.400704 z"
       id="path81" />
    <path
       style="fill:none;stroke:#000000;stroke-width:0.264583px;stroke-linecap:butt;stroke-linejoin:miter;stroke-opacity:1"
       d="m 49.823856,103.27023 c 0.397246,-0.59173 0.669803,-0.22488 1.122558,-0.36063 0.217853,-0.0653 0.382419,-0.17014 0.588008,-0.25645 0.233876,-0.0982 0.403061,0.0278 0.605824,0.0962 0.188886,0.0637 0.462405,0.0259 0.668192,0.0721 0.174411,0.0392 0.294706,0.1846 0.454369,0.24843 0.143616,0.0574 0.720204,-0.1443 0.846373,-0.28049 0.206907,-0.22333 0.0024,-1.47313 -0.05345,-1.78713 -0.08852,-0.49766 0.319924,-0.94206 0.23164,-1.418489 -0.01471,-0.07945 -0.127828,-0.151276 -0.178186,-0.200348 -0.09207,-0.08972 -0.158006,-0.226317 -0.267274,-0.296521 -0.614236,-0.39465 -2.71099,-0.186151 -3.251861,0.344603 -0.325009,0.318927 -1.798254,2.019905 -1.666018,2.436275 0.191249,0.60216 0.813236,0.40584 1.265105,0.60906 0.128167,0.0577 0.498509,0.25645 0.605827,0.25645 0.04454,0 0.166756,-0.0298 0.133638,0 -0.236331,0.21259 0.173554,-0.26024 -0.169277,0.16028"
       id="path87" />
    <path
       style="fill:none;stroke:#000000;stroke-width:0.264583px;stroke-linecap:butt;stroke-linejoin:miter;stroke-opacity:1"
       d="m 44.567427,103.95944 c 0.854445,-0.78435 1.936308,-0.14968 2.548033,-1.25019 0.30105,-0.5416 0.183525,-1.09176 -0.03564,-1.62685 -0.08981,-0.21928 -0.174786,-0.50791 -0.338547,-0.68921 -0.749607,-0.829893 -2.981619,-0.753621 -3.964596,-0.36063 -0.175951,0.0703 -0.888217,0.2142 -0.926555,0.47283 -0.02445,0.16492 -0.0081,0.34516 -0.02673,0.5129 -0.08108,0.72932 0.658355,1.49995 1.193832,1.89131 0.08828,0.0645 0.286313,0.17477 0.338547,0.28049 0.217207,0.43964 0.827771,0.519 1.211652,0.76935 z"
       id="path89" />
    <path
       style="fill:none;stroke:#000000;stroke-width:0.264583px;stroke-linecap:butt;stroke-linejoin:miter;stroke-opacity:1"
       d="m 42.12631,105.68246 c -0.06773,-0.42121 0.0775,-1.09895 -0.24946,-1.46657 -0.364683,-0.41004 -1.249725,-0.34882 -1.737297,-0.39268 -0.760124,-0.0684 -2.569786,-0.19829 -3.136034,0.48084 -0.134001,0.16071 -0.203058,0.47416 -0.258369,0.67318 -0.06178,0.22228 -0.123142,0.47042 -0.08909,0.70523 0.03978,0.2743 0.341463,0.81612 0.561279,0.95368 0.186775,0.11687 0.414134,0.16277 0.596916,0.2885 0.184287,0.12676 0.267441,0.41319 0.436549,0.57701 0.160049,0.15504 0.451051,0.20414 0.650372,0.28851 0.66279,0.28056 1.765811,0.90023 2.485665,0.36063 0.798256,-0.59836 0.437306,-1.63482 0.739469,-2.46833 z"
       id="path91" />
    <path
       style="fill:none;stroke:#000000;stroke-width:0.264583px;stroke-linecap:butt;stroke-linejoin:miter;stroke-opacity:1"
       d="m 64.470578,13.916493 c 0.08533,-0.02939 0.393115,-0.09717 0.516734,-0.208367 0.141129,-0.126949 0.516115,-0.956728 0.596921,-1.154024 0.09171,-0.22391 0.268401,-0.416934 0.356365,-0.641122 0.05844,-0.14893 0.03494,-0.325363 0.106907,-0.472831 0.283583,-0.581051 0.09743,-0.787142 -0.392001,-1.154024 -0.656757,-0.4923053 -0.431752,-1.1056354 -1.478928,-1.2822466 -0.383567,-0.06469 -0.853628,0.015989 -1.229466,0.1041834 -0.698585,0.1639284 -2.375231,1.7413222 -2.441128,2.4523002 -0.04097,0.44209 -0.06236,0.886166 -0.06236,1.330331 0,0.586643 0.129042,1.288633 0.686012,1.594795 0.723884,0.397916 1.576318,-0.01577 2.271842,-0.328576 0.102669,-0.04617 0.212722,-0.205626 0.311824,-0.224393 0.242123,-0.04585 0.518734,-0.02069 0.75728,-0.01603 z"
       id="path93" />
  </g>
</svg>
