<?xml version="1.0" encoding="UTF-8" standalone="no"?>
<!-- Created with Inkscape (http://www.inkscape.org/) -->

<svg
   width="353.56799mm"
   height="264.16mm"
   viewBox="0 0 353.56799 264.16"
   version="1.1"
   id="svg5"
   inkscape:version="1.1.2 (08b2f3d93c, 2022-04-05)"
   sodipodi:docname="CelulasDePaneth.svg"
   xmlns:inkscape="http://www.inkscape.org/namespaces/inkscape"
   xmlns:sodipodi="http://sodipodi.sourceforge.net/DTD/sodipodi-0.dtd"
   xmlns="http://www.w3.org/2000/svg"
   xmlns:svg="http://www.w3.org/2000/svg">
  <sodipodi:namedview
     id="namedview7"
     pagecolor="#ffffff"
     bordercolor="#666666"
     borderopacity="1.0"
     inkscape:pageshadow="2"
     inkscape:pageopacity="0.0"
     inkscape:pagecheckerboard="0"
     inkscape:document-units="mm"
     showgrid="false"
     inkscape:zoom="0.43745166"
     inkscape:cx="706.36376"
     inkscape:cy="570.34874"
     inkscape:window-width="1366"
     inkscape:window-height="704"
     inkscape:window-x="0"
     inkscape:window-y="27"
     inkscape:window-maximized="1"
     inkscape:current-layer="layer2" />
  <defs
     id="defs2">
    <inkscape:path-effect
       effect="simplify"
       id="path-effect65"
       is_visible="true"
       lpeversion="1"
       steps="1"
       threshold="0.000408163"
       smooth_angles="360"
       helper_size="0"
       simplify_individual_paths="false"
       simplify_just_coalesce="false" />
    <inkscape:path-effect
       effect="simplify"
       id="path-effect61"
       is_visible="true"
       lpeversion="1"
       steps="1"
       threshold="0.000408163"
       smooth_angles="360"
       helper_size="0"
       simplify_individual_paths="false"
       simplify_just_coalesce="false" />
    <inkscape:path-effect
       effect="simplify"
       id="path-effect57"
       is_visible="true"
       lpeversion="1"
       steps="1"
       threshold="0.000408163"
       smooth_angles="360"
       helper_size="0"
       simplify_individual_paths="false"
       simplify_just_coalesce="false" />
  </defs>
  <g
     inkscape:groupmode="layer"
     id="layer2"
     inkscape:label="Celulas de Paneth">
    <path
       style="fill:none;stroke:#000000;stroke-width:0.264583px;stroke-linecap:butt;stroke-linejoin:miter;stroke-opacity:1"
       d="m 302.76879,146.47133 c -0.51868,0.3595 -1.05614,0.69191 -1.60804,0.99778 -0.58626,0.32491 -1.18671,0.62962 -1.81756,0.85827 -0.37216,0.13489 -0.7553,0.25393 -1.15117,0.28826 -0.23489,0.0204 -0.48126,0.0156 -0.70077,-0.0787 -0.2023,-0.0869 -0.37,-0.23653 -0.51702,-0.39736 -0.22998,-0.25158 -0.41899,-0.53597 -0.62305,-0.80805 -0.38035,-0.50713 -0.71025,-1.05852 -0.9212,-1.65859 -0.13794,-0.39238 -0.21714,-0.80481 -0.23736,-1.22039 -0.0267,-0.54821 0.0481,-1.09515 0.1483,-1.63293 0.0775,-0.41601 0.18806,-0.82648 0.24141,-1.24633 0.0269,-0.21168 -0.0126,-0.42738 0.0277,-0.63777 0.0183,-0.0956 0.0611,-0.18428 0.10581,-0.26977 0.13463,-0.25741 0.30676,-0.49364 0.49414,-0.71479 0.20346,-0.24013 0.42368,-0.46781 0.67097,-0.66323 0.18143,-0.14338 0.38644,-0.25458 0.59755,-0.34733 0.47599,-0.20912 0.99511,-0.3001 1.51156,-0.33091 0.82584,-0.0493 1.65126,0.0309 2.47721,0.036 0.42197,0.003 0.84508,0.0136 1.26388,0.0674 0.20802,0.0267 0.41931,0.0534 0.61597,0.12844 0.0817,0.0312 0.17327,0.0631 0.22438,0.13671 0.0461,0.0665 0.07,0.14574 0.0886,0.22353 0.0562,0.2348 0.0757,0.47657 0.0884,0.71699 0.0319,0.60424 0.0204,1.20956 0.0234,1.81436 0.002,0.38728 0.001,0.77527 0.0337,1.1615 0.0167,0.19911 0.0565,0.39519 0.0909,0.59174 0.0917,0.5247 0.18691,1.05323 0.18039,1.58795 -0.005,0.39772 -0.0779,0.79795 -0.2447,1.1611 -0.0808,0.17603 -0.18857,0.33786 -0.30309,0.49382 -0.0668,0.091 -0.1,0.20191 -0.16833,0.29174 -0.0409,0.0538 -0.0972,0.094 -0.15855,0.12134"
       id="path59"
       inkscape:path-effect="#path-effect61"
       inkscape:original-d="m 302.76879,146.47133 c -1.05063,0.73338 -3.99381,2.52485 -5.22729,2.08528 -0.48049,-0.17122 -0.84469,-0.77278 -1.13324,-1.14971 -0.61283,-0.8005 -1.10072,-1.69757 -1.19967,-2.73021 -0.10248,-1.06926 0.1878,-2.03655 0.36959,-3.07665 0.0392,-0.22434 -0.0225,-0.54289 0.0565,-0.7537 0.20341,-0.54234 0.93935,-1.38218 1.42661,-1.68618 1.28995,-0.80477 2.86655,-0.5147 4.34538,-0.5147 0.37513,0 1.98932,0.0131 2.18064,0.35625 0.31608,0.56685 0.0943,3.19401 0.24482,4.11009 0.20103,1.2237 0.54674,2.50782 -0.2845,3.59202 -0.1387,0.1809 -0.12833,0.34011 -0.34544,0.43837" />
    <path
       style="fill:none;stroke:#000000;stroke-width:0.264583px;stroke-linecap:butt;stroke-linejoin:miter;stroke-opacity:1"
       d="m 218.03624,48.401882 c -0.56618,-1.381793 -1.49072,-2.576843 -2.09967,-3.937919 -0.3337,-0.745865 -0.61213,-1.528639 -1.09237,-2.196141 -0.1521,-0.21141 -0.30924,-0.419304 -0.47007,-0.624137 -0.18809,-0.239546 -0.39419,-0.466759 -0.63812,-0.652208 -0.33615,-0.255556 -0.71314,-0.471098 -0.98165,-0.803589 -0.12874,-0.159415 -0.20697,-0.35099 -0.29371,-0.534587 -0.26562,-0.562196 -0.45751,-1.158221 -0.57324,-1.769525 -0.15587,-0.823357 -0.17607,-1.664732 -0.31672,-2.490294 -0.0859,-0.503895 -0.24759,-0.994301 -0.47897,-1.45 -0.1448,-0.285183 -0.29588,-0.569144 -0.48109,-0.83017 -0.33786,-0.476161 -0.72696,-0.915712 -1.03166,-1.415628 -0.0898,-0.147315 -0.14887,-0.309605 -0.20014,-0.473841 -0.27443,-0.879122 -0.51307,-1.769071 -0.73158,-2.663402 -0.24137,-0.987901 -0.30618,-2.007449 -0.35154,-3.019798 -0.0162,-0.362481 -0.0473,-0.724474 -0.053,-1.087244 -0.009,-0.580979 0.10082,-1.167398 -9.8e-4,-1.743523 -0.0601,-0.340061 -0.18294,-0.665065 -0.30773,-0.985583 -0.13017,-0.334346 -0.25232,-0.6722 -0.39617,-1.000839 -0.0672,-0.153457 -0.18818,-0.3065 -0.36437,-0.329886 -0.20398,-0.02707 -0.39593,0.07425 -0.56181,0.180967 -0.25031,0.16103 -0.48316,0.348093 -0.69534,0.555205 -0.0493,0.04812 -0.10652,0.06141 -0.15716,-0.0069 -0.14607,-0.197066 -0.2571,-0.41736 -0.36934,-0.635079 -0.0545,-0.105622 -0.0747,-0.223087 -0.0818,-0.341199 -0.0138,-0.231064 0.0683,-0.466854 0.23221,-0.632498 0.22652,-0.228894 0.53795,-0.344689 0.84095,-0.43253 0.44283,-0.128378 0.8924,-0.227717 1.34346,-0.323924 0.17452,-0.03722 0.35299,-0.01071 0.52993,-0.03387 0.58505,-0.07659 1.14528,-0.381708 1.73339,-0.345386 0.15816,0.0098 0.31149,0.05675 0.46279,0.100864 0.74406,0.216923 1.47548,0.47446 2.20716,0.729408 0.29197,0.101735 0.57904,0.217521 0.87231,0.315262 0.4153,0.138412 0.85719,0.133426 1.28919,0.15492 0.36736,0.01828 0.73563,0.08637 1.07197,0.240876 0.55559,0.255217 1.00381,0.692574 1.37938,1.166283 0.25682,0.323925 0.52169,0.64839 0.70837,1.016909 0.0791,0.156148 0.0758,0.33764 0.16649,0.492592 0.68927,1.177425 1.18424,2.453397 1.82676,3.655509 0.62333,1.166201 1.2823,2.326975 1.68589,3.591907 0.0878,0.275216 0.18928,0.549632 0.2296,0.835856 0.0489,0.346817 -0.0172,0.700168 -0.12455,1.029293 -0.0913,0.279896 -0.19004,0.569216 -0.37871,0.79726 -0.0948,0.114575 -0.21376,0.218814 -0.24573,0.374108 -0.14101,0.684917 -0.17139,1.388726 -0.14308,2.085695 0.0234,0.576382 0.0739,1.154323 0.1988,1.71818 0.23038,1.040387 0.7297,1.998095 1.30327,2.888107 0.54449,0.844885 1.21144,1.606638 1.73703,2.462696 0.21218,0.345587 0.25067,0.766993 0.46808,1.110857 0.20225,0.31989 0.52886,0.554003 0.67387,0.910067 0.19818,0.486611 0.20609,1.028315 0.12718,1.541775 -0.0629,0.409287 -0.19897,0.801898 -0.30921,1.200079 -0.12356,0.446299 -0.043,0.911881 -0.0736,1.367082 -0.03,0.44685 -0.0265,0.906237 -0.18455,1.332503 -0.0697,0.187863 -0.18636,0.353186 -0.29753,0.518055 -0.36871,0.546801 -0.74556,1.089885 -1.16562,1.598316 -0.0988,0.11956 -0.17622,0.266507 -0.30773,0.349632 -0.22057,0.139414 -0.49149,0.170558 -0.74699,0.157996 -0.49205,-0.02419 -0.95366,-0.25294 -1.32783,-0.564183 -0.57354,-0.477084 -0.97839,-1.113001 -1.47557,-1.661966 -0.36799,-0.40632 -0.84747,-0.688215 -1.23373,-1.07476 -0.12789,-0.127984 -0.24449,-0.267463 -0.34544,-0.417652 z"
       id="path63"
       inkscape:path-effect="#path-effect65"
       inkscape:original-d="m 218.03624,48.401882 c -0.54593,-1.335796 -1.45185,-2.515777 -2.05071,-3.829465 -0.38257,-0.839219 -0.69676,-1.730764 -1.26347,-2.472047 -0.22144,-0.289653 -0.51147,-0.697751 -0.78582,-0.945489 -0.38829,-0.350626 -1.06252,-0.67905 -1.30941,-1.162097 -0.61015,-1.193795 -0.76721,-2.002192 -0.89223,-3.246813 -0.1447,-1.440509 -0.1945,-2.130312 -1.016,-3.469712 -0.30727,-0.500988 -1.11669,-1.357209 -1.29434,-1.909355 -0.27955,-0.868855 -0.51017,-1.796838 -0.74615,-2.68605 -0.33916,-1.278017 -0.35494,-2.764245 -0.43075,-4.099094 -0.0337,-0.594186 0.10733,-1.402199 -0.0308,-2.001186 -0.1163,-0.504249 -0.45159,-1.263533 -0.649,-1.785398 -0.40752,-1.077299 -1.49491,0.318119 -1.74156,0.385366 -0.0634,0.01729 -0.46715,-0.681541 -0.49965,-0.867259 -0.21726,-1.241549 1.45844,-1.26563 2.35069,-1.542971 0.17081,-0.05309 0.32316,-0.01702 0.49439,-0.03643 0.5895,-0.06682 1.21399,-0.249435 1.80288,-0.354178 0.2517,-0.04477 3.02895,0.944612 3.42937,1.099363 0.68055,0.263018 1.26451,0.128858 1.93531,0.261278 1.21631,0.240106 2.00216,1.367522 2.62425,2.335363 0.0914,0.142193 0.07,0.329507 0.15893,0.479928 0.66895,1.132076 1.13493,2.348397 1.74884,3.505073 0.78486,1.478752 1.60803,2.889902 2.00127,4.538883 0.13047,0.547119 -0.16647,1.442437 -0.46065,1.869353 -0.0923,0.133866 -0.23022,0.213868 -0.26761,0.386368 -0.22218,1.024993 -0.18782,2.418196 -0.0177,3.472423 0.3536,2.190973 1.87593,3.937961 3.0794,5.662266 0.21525,0.308414 0.25776,0.727141 0.45067,1.076608 0.20997,0.380381 0.58289,0.625279 0.73537,1.025467 0.32967,0.865264 0.0899,1.819074 -0.17734,2.639608 -0.1506,0.46237 -0.0595,0.948512 -0.0924,1.420833 -0.034,0.487492 -0.0192,0.958279 -0.21573,1.419715 -0.14989,0.351919 -1.56034,2.277864 -1.75028,2.397114 -0.2732,0.171524 -0.7121,0.182129 -1.02397,0.114335 -1.1503,-0.250055 -1.75914,-1.342999 -2.48523,-2.154786 -0.53421,-0.597254 -1.15229,-0.846005 -1.61053,-1.527016 z" />
  </g>
</svg>
