<?xml version="1.0" encoding="UTF-8" standalone="no"?>
<!-- Created with Inkscape (http://www.inkscape.org/) -->

<svg
   width="169.33333mm"
   height="127mm"
   viewBox="0 0 169.33333 127"
   version="1.1"
   id="svg5"
   inkscape:version="1.1.2 (08b2f3d93c, 2022-04-05)"
   sodipodi:docname="desenho.svg"
   xmlns:inkscape="http://www.inkscape.org/namespaces/inkscape"
   xmlns:sodipodi="http://sodipodi.sourceforge.net/DTD/sodipodi-0.dtd"
   xmlns="http://www.w3.org/2000/svg"
   xmlns:svg="http://www.w3.org/2000/svg">
  <sodipodi:namedview
     id="namedview7"
     pagecolor="#ffffff"
     bordercolor="#666666"
     borderopacity="1.0"
     inkscape:pageshadow="2"
     inkscape:pageopacity="0.0"
     inkscape:pagecheckerboard="0"
     inkscape:document-units="mm"
     showgrid="false"
     inkscape:zoom="1.0824912"
     inkscape:cx="308.54754"
     inkscape:cy="304.39047"
     inkscape:window-width="1366"
     inkscape:window-height="704"
     inkscape:window-x="0"
     inkscape:window-y="27"
     inkscape:window-maximized="1"
     inkscape:current-layer="layer2" />
  <defs
     id="defs2" />
  <g
     inkscape:groupmode="layer"
     id="layer2"
     inkscape:label="Celulas_Principais">
    <path
       style="fill:none;stroke:#000000;stroke-width:0.264583px;stroke-linecap:butt;stroke-linejoin:miter;stroke-opacity:1"
       d="m 101.59121,95.274549 c 0.38804,-0.190986 0.8167,-0.315359 1.16411,-0.572957 0.76406,-0.566555 1.23252,-1.617748 1.97679,-2.212835 0.0837,-0.06692 0.50754,0.230193 0.65892,0.177818 0.46678,-0.161493 1.14174,-0.684625 1.49357,-0.948361 0.59539,-0.446302 1.04281,-1.182122 1.69125,-1.541071 0.85377,-0.472602 1.81169,-0.474689 2.72357,-0.731023 0.4068,-0.114353 0.61487,-0.501621 1.07625,-0.592725 0.19457,-0.03842 0.70139,0.409202 0.79071,0.355635 0.21665,-0.129924 0.25382,-0.457065 0.43929,-0.632243 0.38403,-0.362723 0.94013,-0.137962 1.33982,-0.533448 0.28083,-0.277876 0.28201,-0.60402 0.39535,-0.968113 0.55177,-1.772539 0.80824,-0.928846 0.46126,-2.48943 -0.0622,-0.279702 0.0724,-0.64719 -0.0439,-0.908844 -0.0193,-0.04349 -0.24249,0.07394 -0.28553,0.03952 -0.96104,-0.768405 -0.65597,-0.213765 -1.23,-0.572966 -0.28459,-0.178083 -0.43766,-0.508542 -0.72482,-0.691512 -1.25158,-0.797478 -4.73214,-0.931439 -6.0841,-0.276601 -0.62223,0.30139 -1.16535,0.76122 -1.80108,1.047144 -0.58262,0.262038 -1.25987,0.162148 -1.86696,0.474176 -0.26476,0.136081 -0.94485,-0.0068 -1.22999,0.01976 -0.66568,0.06194 -0.94176,0.513991 -1.44964,0.869326 -0.35356,0.247364 -0.9204,-0.01521 -1.361784,0.414906 -0.373218,0.363689 -0.08733,0.808599 -0.241617,1.224952 -0.894088,2.41282 -2.326987,4.185904 -0.768739,6.638491 0.468918,0.73805 2.39145,1.295744 2.48195,1.48181 0.14715,0.302532 0.0599,0.902838 0.39536,0.928595 0.53597,0.04115 0.91655,-0.567431 1.40572,-0.790295 0.13991,-0.06374 0.49498,0.15 0.46125,0 -0.0264,-0.117144 -0.23429,0.05269 -0.35143,0.07903"
       id="path55" />
    <path
       style="fill:none;stroke:#000000;stroke-width:0.264583px;stroke-linecap:butt;stroke-linejoin:miter;stroke-opacity:1"
       d="m 80.615344,69.570163 c -0.134707,-2.214002 1.445578,-2.896246 2.240357,-4.484937 0.243139,-0.48601 0.144801,-1.034714 0.285536,-1.541078 0.176064,-0.63349 0.653888,-1.179481 0.856599,-1.817677 0.801624,-2.523771 1.237596,-7.774602 0.571071,-10.372643 -0.02994,-0.1167 -0.445846,-0.274333 -0.527137,-0.316119 -1.310375,-0.67356 -1.836325,-0.9715 -3.426426,-0.869326 -3.403634,0.218713 -4.220821,4.408408 -4.919998,7.013882 -0.808548,3.013041 -2.154592,5.647087 -0.307493,8.554958 0.106931,0.168344 0.367024,0.183571 0.505176,0.355635 0.182312,0.227065 0.109691,0.54516 0.285536,0.750784 0.191267,0.22366 0.706721,0.338481 0.966428,0.513688 1.013968,0.684065 3.089965,0.197578 4.085349,0.197578 0.146508,0 1.186069,0.01532 1.186069,-0.05928 0,-0.05958 -0.106281,-0.25495 -0.131781,-0.316119"
       id="path57" />
    <path
       style="fill:none;stroke:#000000;stroke-width:0.264583px;stroke-linecap:butt;stroke-linejoin:miter;stroke-opacity:1"
       d="m 72.532496,66.962183 c 1.842278,-2.093486 1.966788,-4.771048 2.525887,-7.369516 0.389205,-1.808869 0.98335,-5.387192 0.153754,-7.09291 -0.415176,-0.853639 -2.125863,-1.459706 -2.987143,-1.343501 -0.48864,0.06593 -0.86533,0.404897 -1.361784,0.43466 -0.735449,0.04409 -1.728292,-0.363234 -2.416071,0.01976 -0.681723,0.379619 -1.653382,1.216099 -2.020708,1.876957 -0.736206,1.324501 -0.318299,2.960878 -0.417325,4.386146 -0.08312,1.196361 -0.606422,2.043245 -0.483208,3.299486 0.08012,0.81684 0.441661,1.473848 0.768744,2.193073 1.350902,2.970496 2.563868,5.563016 6.237854,3.595845 z"
       id="path59" />
    <path
       style="fill:none;stroke:#000000;stroke-width:0.264583px;stroke-linecap:butt;stroke-linejoin:miter;stroke-opacity:1"
       d="m 109.67406,81.622185 c -1.3396,-0.79818 -0.41291,-2.998134 -1.29589,-3.990999 -0.45245,-0.508767 -1.13399,-0.85907 -1.58142,-1.422532 -1.69807,-2.138403 1.43079,-4.369234 0.57107,-6.302613 -0.1418,-0.318892 -0.63429,-0.823881 -0.87858,-1.106422 -0.70724,-0.817962 -3.24522,0.362538 -4.08535,0.513697 -0.8647,0.155577 -0.77732,-1.394503 -1.62535,-1.22496 -0.961328,0.192193 -1.660627,0.980223 -2.591791,1.244719 -1.258154,0.357378 -4.910722,1.394634 -5.820523,1.343501 -1.214851,-0.06828 -1.853327,-0.949224 -2.943215,-1.22496 -0.910542,-0.230362 -2.282105,-0.500605 -3.031069,-1.126172 -1.412637,-1.179899 -0.604107,-3.783172 -0.373391,-5.235713 0.302239,-1.902815 -1.456356,-3.708366 0.549103,-5.512319 0.246923,-0.222112 0.484431,-0.593812 0.768755,-0.849566 0.425397,-0.382654 0.413589,-0.444677 0.966425,-0.454425 0.165217,-0.0029 1.677239,-0.220958 1.845003,-0.01974 0.08191,0.09823 0.03071,0.563589 0.06589,0.711263 0.178964,0.751226 0.811274,1.848123 1.64732,2.015257 0.269827,0.05394 0.582562,-0.02519 0.834633,-0.118549 1.101484,-0.407972 0.358812,-0.790443 0.856605,-1.46204 0.290906,-0.392477 1.102291,-0.689901 1.537507,-0.869333 0.408135,-0.168267 1.050594,-0.556509 1.537491,-0.493935 0.686194,0.08819 1.548505,-0.03623 2.19643,0.158059 0.39021,0.11701 0.810914,0.825971 1.14214,1.08666 0.481927,0.379293 4.067437,2.635612 4.700357,2.706761 0.49141,0.05524 1.03663,-0.273163 1.49357,-0.414898 1.80649,-0.560348 3.76494,-0.864208 5.44714,0.09878 0.23046,0.131929 0.40478,0.527827 0.59303,0.711274 0.41494,0.404344 0.97959,0.42677 1.2959,1.066895 0.3042,0.615593 -0.009,1.835592 0.37339,2.351132 0.29366,0.39619 1.09312,0.408041 1.31785,0.711264 0.29642,0.399944 1.55203,1.131152 1.6034,1.778167 0.0831,1.046591 -0.25506,2.148564 -0.13179,3.220465 0.19347,1.682232 0.60796,3.12243 1.1641,4.623229 0.25465,0.687189 2.42576,3.029178 2.96519,3.437792 0.17513,0.132662 0.55615,0.02543 0.61499,0.237091 0.0388,0.139771 -0.022,0.289586 -0.022,0.434657 0,0.02125 0.89437,2.759951 0.90052,2.766039 0.0781,0.07723 0.34124,0.119957 0.26358,0.197577 -0.15961,0.159531 -0.31224,0.154837 -0.41732,0.375389 -0.0569,0.119409 1.61623,0.340246 1.40571,0.592725 -0.54996,0.659593 -2.70313,2.115396 -2.06464,1.541078 0.19074,-0.171569 0.30625,0.240147 0.52714,0.19757 0.46484,-0.0896 0.87636,-0.228785 1.3618,-0.316119 0.26024,-0.04682 1.61982,-0.542118 1.95481,-0.316116 1.72151,1.16141 2.05232,1.337614 2.3941,3.694634 0.0552,0.380616 -0.30848,1.391565 -0.10981,1.659625 0.59633,0.804653 0.80719,-0.523404 0.46124,1.343501 -0.0771,0.415946 0.47538,2.423814 0.022,2.627733 -0.12984,0.05839 -0.18775,-0.219405 -0.30751,-0.296359 -0.23425,-0.150509 -0.46847,-0.257347 -0.74678,-0.276598 -0.43384,-0.03001 -0.81493,0.694144 -1.38376,0.493929 -0.3338,-0.117494 -2.90517,-1.882254 -3.20677,-2.153557 -0.69963,-0.629357 -1.33215,-1.647773 -2.17447,-2.114042 -0.23119,-0.127974 -0.50636,-0.09665 -0.74678,-0.197573 -0.19726,-0.08281 -0.32728,-0.396134 -0.52715,-0.434665 -0.43716,-0.08427 -1.35273,0.09993 -1.73517,-0.15806 -1.40008,-0.944475 -0.84549,-1.279046 -1.49357,-2.153554 -1.24846,-1.68464 -4.1685,-2.833064 -6.0841,-3.694634 z"
       id="path61" />
    <path
       style="fill:none;stroke:#000000;stroke-width:0.264583px;stroke-linecap:butt;stroke-linejoin:miter;stroke-opacity:1"
       d="m 74.904633,96.47975 c 0.51729,-1.425577 2.797075,-4.85163 2.569822,-6.282854 -0.09046,-0.569706 -0.443117,-0.672261 -0.571072,-1.066895 -0.37347,-1.151826 -1.284853,-1.955966 -2.438032,-2.370891 -0.592069,-0.213035 -0.716209,-1.066036 -1.515539,-1.145932 -1.371621,-0.137099 -2.357987,4.559734 -2.240348,5.512319 0.06082,0.492521 1.355759,2.71473 1.75714,3.141427 1.195713,1.271132 1.129694,-0.0468 2.438029,2.212826 z"
       id="path63" />
    <path
       style="fill:none;stroke:#000000;stroke-width:0.264583px;stroke-linecap:butt;stroke-linejoin:miter;stroke-opacity:1"
       d="m 129.72744,80.476253 c 0.51484,-1.15339 0.6049,-2.793809 0.0439,-3.97124 -0.0117,-0.02466 -2.83857,-2.074526 -1.01035,-2.074526 1.21638,0 1.61023,-0.605613 2.48196,-1.165691 0.80395,-0.51653 3.10359,-0.25005 4.12929,-0.335875 1.06424,-0.08905 1.97106,-0.516438 3.0091,-0.691507 0.86514,-0.14591 1.6578,0.263792 2.54784,0.07903 0.51849,-0.10763 0.91069,-0.534627 1.38376,-0.731022 0.83738,-0.347642 1.85921,-0.158711 2.65768,-0.671756 0.87801,-0.564155 1.03348,-2.384121 0.63696,-3.240215 -0.0847,-0.182933 -0.47367,-0.248846 -0.615,-0.43466 -0.16413,-0.215773 -0.24828,-0.757031 -0.50518,-0.889082 -0.49746,-0.255704 -3.71693,-0.195956 -4.39285,-0.07903 -0.85538,0.147971 -1.68428,0.489773 -2.5259,0.651997 -0.62787,0.121023 -1.25775,-0.112498 -1.88892,-0.138308 -3.32901,-0.136126 -2.06849,0.478149 -4.98589,-1.52132 -0.38888,-0.266525 -4.48256,-3.732736 -4.94196,-3.378515 -0.48711,0.375589 -0.70111,1.403747 -1.12018,1.896708 -0.86395,1.016265 -2.25485,2.163874 -2.67963,3.437792 -0.30846,0.925068 -0.0605,2.201421 -0.46126,3.04264 -0.27133,0.569468 -0.83963,-0.901872 -0.94446,-1.066904 -0.57753,-0.909195 -1.46261,-2.450666 -1.82302,-3.477297 -0.25323,-0.721296 -0.37926,-1.493647 -0.72482,-2.193073 -0.19576,-0.396216 -1.84609,-1.534906 -1.97679,-0.790302 -0.25098,1.429824 0.76989,2.968432 1.09821,4.346636 0.59304,2.489464 0.58134,5.070432 1.36178,7.527567 0.41125,1.294787 1.43782,2.117032 2.43803,2.90434 0.38306,0.301524 2.22456,1.927518 2.46001,2.351132 0.11448,0.20597 0.1881,0.541719 0.32945,0.711266 0.35319,0.42364 1.24072,0.15576 1.69126,0.335878 0.63385,0.253402 1.72518,0.712777 2.39411,0.612484 0.65571,-0.09831 1.43923,-0.757563 1.93285,-1.047144 z"
       id="path65" />
  </g>
</svg>
