<?xml version="1.0" encoding="UTF-8" standalone="no"?>
<!-- Created with Inkscape (http://www.inkscape.org/) -->

<svg
   width="169.33333mm"
   height="127mm"
   viewBox="0 0 169.33333 127"
   version="1.1"
   id="svg5"
   inkscape:version="1.1.2 (08b2f3d93c, 2022-04-05)"
   sodipodi:docname="CorteTransversal.svg"
   xmlns:inkscape="http://www.inkscape.org/namespaces/inkscape"
   xmlns:sodipodi="http://sodipodi.sourceforge.net/DTD/sodipodi-0.dtd"
   xmlns="http://www.w3.org/2000/svg"
   xmlns:svg="http://www.w3.org/2000/svg">
  <sodipodi:namedview
     id="namedview7"
     pagecolor="#ffffff"
     bordercolor="#666666"
     borderopacity="1.0"
     inkscape:pageshadow="2"
     inkscape:pageopacity="0.0"
     inkscape:pagecheckerboard="0"
     inkscape:document-units="mm"
     showgrid="false"
     inkscape:zoom="1.4247736"
     inkscape:cx="395.15051"
     inkscape:cy="169.50062"
     inkscape:window-width="1366"
     inkscape:window-height="704"
     inkscape:window-x="0"
     inkscape:window-y="27"
     inkscape:window-maximized="1"
     inkscape:current-layer="layer2" />
  <defs
     id="defs2">
    <inkscape:path-effect
       effect="simplify"
       id="path-effect61"
       is_visible="true"
       lpeversion="1"
       steps="1"
       threshold="0.000408163"
       smooth_angles="360"
       helper_size="0"
       simplify_individual_paths="false"
       simplify_just_coalesce="false" />
    <inkscape:path-effect
       effect="simplify"
       id="path-effect57"
       is_visible="true"
       lpeversion="1"
       steps="1"
       threshold="0.000408163"
       smooth_angles="360"
       helper_size="0"
       simplify_individual_paths="false"
       simplify_just_coalesce="false" />
  </defs>
  <g
     inkscape:groupmode="layer"
     id="layer2"
     inkscape:label="Corte Transversal">
    <path
       style="fill:none;stroke:#000000;stroke-width:0.264583px;stroke-linecap:butt;stroke-linejoin:miter;stroke-opacity:1"
       d="m 128.52215,45.360137 c -0.35034,-0.123447 -0.6459,-0.367334 -0.8759,-0.655438 -0.39979,-0.500793 -0.63873,-1.115042 -1.08401,-1.581907 -0.30784,-0.322762 -0.71575,-0.516646 -1.08776,-0.752097 -0.27353,-0.173122 -0.52495,-0.38831 -0.7056,-0.661137 -0.47293,-0.714232 -0.75852,-1.538132 -1.27108,-2.227543 -0.21155,-0.284544 -0.45138,-0.55959 -0.75435,-0.745832 -0.27563,-0.169437 -0.59759,-0.240248 -0.91279,-0.293503 -0.49982,-0.08445 -1.00813,-0.106471 -1.50578,-0.206829 -0.71434,-0.144056 -1.42511,-0.326825 -2.15361,-0.379233 -0.28146,-0.02025 -0.57109,-0.02391 -0.84322,0.06526 -0.46793,0.153324 -0.89137,0.41832 -1.27846,0.717813 -0.48585,0.375901 -0.93707,0.803063 -1.30545,1.295496 -0.0883,0.118088 -0.17602,0.239545 -0.21859,0.383843 -0.062,0.210331 -0.0883,0.435852 -0.21499,0.623456 -0.34119,0.505331 -0.77094,0.953971 -1.03531,1.508662 -0.24102,0.5057 -0.32171,1.068036 -0.37317,1.620469 -0.0491,0.527348 -0.0926,1.057774 -0.22329,1.573333 -0.21284,0.839691 -0.5605,1.647424 -0.66568,2.512442 -0.0502,0.412427 -0.0594,0.838208 0.044,1.24164 0.10638,0.414902 0.35356,0.770183 0.54591,1.147195 0.11999,0.23518 0.20591,0.487277 0.24896,0.748964 0.16882,1.026146 0.1661,2.076937 0.41715,3.090557 0.0694,0.28025 0.16614,0.554067 0.30144,0.809941 0.36521,0.690694 0.93159,1.253581 1.26971,1.960749 0.1825,0.381694 0.25391,0.804263 0.29656,1.221644 0.0776,0.759942 0.0192,1.535031 0.1844,2.28394 0.10581,0.479647 0.30503,0.93386 0.53693,1.364567 0.28566,0.530554 0.61948,1.038096 1.01992,1.489696 0.17572,0.198169 0.37719,0.374513 0.60667,0.508525 0.48607,0.283855 1.04089,0.407359 1.57397,0.570714 0.2711,0.08308 0.54231,0.173629 0.7891,0.31684 0.29521,0.171311 0.5767,0.371355 0.9011,0.48747 0.51268,0.183506 1.06439,0.195725 1.60281,0.195122 0.43151,-4.83e-4 0.86472,0.0027 1.29268,0.0682 0.67329,0.103085 1.3338,0.300031 2.01466,0.340442 0.33682,0.01999 0.6571,-0.150058 0.99402,-0.10847 0.72178,0.08909 1.43344,0.240716 2.14844,0.370561 0.59268,0.107632 1.19807,0.168091 1.80031,0.114829 0.72573,-0.06418 1.44874,-0.224502 2.11399,-0.515425 0.25254,-0.110439 0.44584,-0.314693 0.63478,-0.508331 0.16418,-0.168267 0.35053,-0.312401 0.50914,-0.486946 0.26872,-0.295709 0.45815,-0.668489 0.50643,-1.06804 0.059,-0.488107 -0.0594,-0.97391 -0.18025,-1.443172 -0.12482,-0.484541 -0.24005,-0.973434 -0.28431,-1.473632 -0.0794,-0.897205 -0.14493,-1.795953 -0.27191,-2.688646 -0.16646,-1.17023 -0.20931,-2.353232 -0.3352,-3.527786 -0.10215,-0.953058 -0.22794,-1.916359 -0.56224,-2.818925 -0.0951,-0.256896 -0.18724,-0.519916 -0.33737,-0.749687 -0.21648,-0.331308 -0.47775,-0.63063 -0.74065,-0.925246 -0.78292,-0.877382 -1.6032,-1.721543 -2.45461,-2.532279 -0.44477,-0.42352 -0.88452,-0.855227 -1.36876,-1.233783 -0.15372,-0.120172 -0.31863,-0.225394 -0.46199,-0.359352 -0.29603,-0.27661 -0.49164,-0.64256 -0.62143,-1.022757 -0.19301,-0.565409 -0.27127,-1.172505 -0.54699,-1.706828 -0.2245,-0.435057 -0.62061,-0.741757 -0.88886,-1.147099 -0.35277,-0.533054 -0.84162,-0.951846 -1.28848,-1.401957 -0.18085,-0.182167 -0.34563,-0.379113 -0.50875,-0.577249 -0.12402,-0.15064 -0.24398,-0.303999 -0.35332,-0.467582 -0.0379,-0.05673 -0.0288,-0.147225 0.0544,-0.15989 0.39437,-0.06006 0.79354,6.38e-4 1.18447,0.05712 0.11681,0.01688 0.23357,0.03422 0.3508,0.04796"
       id="path55"
       inkscape:path-effect="#path-effect57"
       inkscape:original-d="m 128.52215,45.360137 c -1.08217,-0.392938 -1.28208,-1.586256 -2.0192,-2.296679 -0.50828,-0.48987 -1.28289,-0.683691 -1.70214,-1.305948 -0.68746,-1.020345 -0.97243,-2.212528 -1.98583,-2.972174 -0.53154,-0.398441 -1.62007,-0.390535 -2.28621,-0.510375 -0.76233,-0.137145 -2.38017,-0.564156 -3.07053,-0.390282 -0.99904,0.251619 -2.26518,1.380056 -2.8369,2.221619 -0.15566,0.229129 -0.12681,0.557916 -0.28369,0.795581 -0.38231,0.579194 -0.89579,1.085561 -1.15144,1.756285 -0.35127,0.921584 -0.24782,1.877423 -0.46726,2.822062 -0.29821,1.283703 -0.92398,2.426092 -0.68419,3.812786 0.11268,0.65156 0.67716,1.200864 0.801,1.906392 0.20498,1.167704 0.15867,2.335371 0.51732,3.482541 0.34248,1.095412 1.36956,1.837986 1.65208,2.927135 0.25033,0.965089 0.12662,1.995292 0.30038,2.972173 0.1727,0.970905 1.05304,2.455477 1.76888,3.137287 0.65694,0.625705 1.64883,0.721204 2.4531,1.035756 0.36011,0.140843 0.68137,0.411541 1.03463,0.570423 0.93082,0.418648 1.97066,0.188688 2.92033,0.315233 0.68877,0.09178 1.40842,0.281726 2.13603,0.360262 0.34609,0.03736 0.70463,-0.147492 1.03463,-0.105082 2.50994,0.322572 3.30309,0.964001 6.02424,-0.015 0.33081,-0.11902 0.6028,-0.48042 0.86776,-0.705519 1.53501,-1.304081 0.51747,-2.550361 0.36712,-4.173048 -0.0838,-0.904793 -0.12794,-1.801347 -0.26699,-2.701973 -0.33816,-2.190266 -0.20487,-5.199914 -1.20152,-7.115196 -0.42598,-0.818602 -3.93919,-4.331277 -4.77266,-4.893572 -1.07305,-0.723924 -0.9642,-1.838029 -1.43514,-2.897119 -0.2041,-0.458996 -0.63144,-0.769998 -0.90113,-1.185867 -0.49043,-0.756243 -1.21087,-1.238118 -1.7689,-1.951424 -0.15904,-0.203295 -0.60518,-0.648848 -0.35044,-0.690504 0.48099,-0.07866 1.08374,0.05243 1.53527,0.105079" />
    <path
       style="fill:none;stroke:#000000;stroke-width:0.264583px;stroke-linecap:butt;stroke-linejoin:miter;stroke-opacity:1"
       d="m 136.11503,37.539424 c -0.28074,-0.02427 -0.58673,-0.0164 -0.83102,0.141795 -0.21665,0.14029 -0.33012,0.385358 -0.41029,0.621373 -0.12325,0.362823 -0.21052,0.750076 -0.44262,1.06215 -0.16517,0.222082 -0.3555,0.424168 -0.54182,0.628375 -0.36859,0.403967 -0.78609,0.778413 -1.05796,1.254599 -0.13722,0.240346 -0.16785,0.52114 -0.2092,0.789539 -0.0279,0.180763 -0.0811,0.355657 -0.14294,0.528033 -0.38589,1.075779 -0.5727,2.224565 -0.52314,3.367998 0.053,1.222839 0.36564,2.421672 0.81069,3.557144 0.14512,0.370251 0.34685,0.72559 0.63922,0.999393 0.1773,0.166038 0.36742,0.317444 0.53912,0.490125 0.66136,0.665136 1.10999,1.514165 1.39744,2.40096 0.41159,1.269753 0.53273,2.606113 0.71152,3.922213 0.0933,0.686566 0.18155,1.377956 0.38274,2.043453 0.35517,1.17486 0.93531,2.265401 1.55166,3.321318 0.29844,0.51128 0.62442,1.006183 0.91868,1.519788 0.32469,0.566713 0.44654,1.230476 0.81287,1.774688 0.0877,0.130285 0.17154,0.269109 0.2939,0.36902 0.25234,0.206037 0.56573,0.313553 0.82361,0.514175 0.99526,0.774279 1.99863,1.557859 3.13554,2.117098 0.55815,0.274551 1.1511,0.475319 1.75973,0.604836 0.81483,0.173396 1.67617,0.181745 2.44941,0.497299 0.23425,0.0956 0.43773,0.250511 0.64524,0.392309 0.20289,0.138643 0.40275,0.282578 0.6168,0.404854 0.0979,0.05593 0.21308,0.02987 0.31793,0.01757 0.4942,-0.05796 0.98594,-0.144517 1.46698,-0.270902 0.2177,-0.0572 0.44939,-0.09101 0.64342,-0.207289 0.17566,-0.105263 0.27979,-0.300089 0.46521,-0.391257 0.17256,-0.08485 0.32451,-0.225906 0.52043,-0.25237 0.0758,-0.01024 0.15663,0.0088 0.20952,0.0693 0.0399,0.04561 0.10875,0.106943 0.16683,0.05866 0.12998,-0.108054 0.24457,-0.23452 0.35577,-0.361673 0.64585,-0.738506 1.09077,-1.620085 1.60895,-2.446562 0.15043,-0.239931 0.30082,-0.48119 0.48774,-0.695673 0.22913,-0.262917 0.48373,-0.515273 0.62415,-0.841523 0.20572,-0.477954 0.28611,-0.998009 0.33973,-1.511929 0.0497,-0.476473 0.0884,-0.953992 0.1203,-1.431942 0.0536,-0.803848 0.0113,-1.614051 -0.11796,-2.408611 -0.0906,-0.55682 -0.17617,-1.131471 -0.43666,-1.633778 -0.0991,-0.191172 -0.29536,-0.300791 -0.40813,-0.484646 -0.35452,-0.577976 -0.62933,-1.201448 -0.86343,-1.836192 -0.50492,-1.369063 -0.59791,-2.854457 -1.13265,-4.213458 -0.12185,-0.30967 -0.2483,-0.622342 -0.43498,-0.898726 -0.29877,-0.442328 -0.62551,-0.865314 -0.96252,-1.278873 -0.28106,-0.344902 -0.55921,-0.694029 -0.87328,-1.009791 -0.19762,-0.198685 -0.45788,-0.316721 -0.71167,-0.425324 -0.27211,-0.116442 -0.53694,-0.261101 -0.74641,-0.476747 -0.21098,-0.217198 -0.30831,-0.514684 -0.35954,-0.807246 -0.0775,-0.442485 -0.0587,-0.900979 -0.19153,-1.333615 -0.0642,-0.209131 -0.19146,-0.394123 -0.35696,-0.539208 -0.5937,-0.520464 -1.25819,-0.954541 -1.83342,-1.497416 -0.85484,-0.806764 -1.58827,-1.731512 -2.45327,-2.528822 -1.1532,-1.062959 -2.36968,-2.075873 -3.73792,-2.851197 -0.92176,-0.522324 -1.92168,-0.94779 -2.98174,-1.072301 -0.69094,-0.08116 -1.40338,-0.01432 -2.05407,0.239007 z"
       id="path59"
       inkscape:path-effect="#path-effect61"
       inkscape:original-d="m 136.11503,37.539424 c -1.49091,-0.136109 -1.06299,1.089782 -1.76889,1.936417 -0.48302,0.579326 -1.04005,1.097028 -1.4852,1.726263 -0.22186,0.313616 -0.19735,0.862841 -0.33375,1.230897 -0.83799,2.261315 -0.72494,4.334717 0.0668,6.589811 0.23325,0.664395 0.42105,1.153636 0.96789,1.606174 2.3197,1.919674 2.19408,5.189889 2.67002,7.865745 0.34967,1.965952 1.60418,3.937886 2.61995,5.599091 0.44471,0.727276 0.50402,1.475068 1.0847,2.161574 0.17741,0.209738 0.60457,0.359577 0.8177,0.525381 1.41958,1.104395 2.89244,2.28029 4.67255,2.71699 0.89784,0.220263 1.81901,0.294889 2.72008,0.555408 0.36207,0.104677 1.1961,0.840611 1.40176,0.840611 0.42967,0 2.08555,-0.32326 2.35296,-0.510374 0.18358,-0.128447 0.23811,-0.27074 0.46725,-0.390287 0.19423,-0.101335 0.4076,-0.288086 0.61745,-0.225168 0.0957,0.02869 0.15063,0.216416 0.28369,0.09007 0.92271,-0.87612 1.48694,-2.134208 2.18608,-3.182321 0.23213,-0.348001 0.61626,-0.655169 0.80101,-1.020749 0.40224,-0.795954 0.41772,-2.027095 0.50063,-2.897119 0.11695,-1.22737 -0.0567,-3.061118 -0.53401,-4.18806 -0.072,-0.169992 -0.28333,-0.292135 -0.38382,-0.450324 -0.3372,-0.530817 -0.62191,-1.185455 -0.85106,-1.771292 -0.63733,-1.62936 -0.6664,-3.540554 -1.53527,-5.103728 -0.23413,-0.42123 -1.69316,-2.273215 -2.03589,-2.521844 -0.49493,-0.359043 -0.99485,-0.367345 -1.40176,-0.870636 -0.56534,-0.69924 -0.13101,-1.9642 -0.78432,-2.551861 -0.47609,-0.428257 -1.0272,-0.801515 -1.51857,-1.215887 -0.94878,-0.8001 -1.75298,-1.860333 -2.67004,-2.716985 -2.15806,-2.015911 -5.83365,-5.020644 -8.92789,-3.827799 z" />
  </g>
</svg>
