<?xml version="1.0" encoding="UTF-8" standalone="no"?>
<!-- Created with Inkscape (http://www.inkscape.org/) -->

<svg
   width="169.33333mm"
   height="127mm"
   viewBox="0 0 169.33333 127"
   version="1.1"
   id="svg5"
   inkscape:version="1.1.2 (08b2f3d93c, 2022-04-05)"
   sodipodi:docname="CorteLongitudinal.svg"
   xmlns:inkscape="http://www.inkscape.org/namespaces/inkscape"
   xmlns:sodipodi="http://sodipodi.sourceforge.net/DTD/sodipodi-0.dtd"
   xmlns="http://www.w3.org/2000/svg"
   xmlns:svg="http://www.w3.org/2000/svg">
  <sodipodi:namedview
     id="namedview7"
     pagecolor="#ffffff"
     bordercolor="#666666"
     borderopacity="1.0"
     inkscape:pageshadow="2"
     inkscape:pageopacity="0.0"
     inkscape:pagecheckerboard="0"
     inkscape:document-units="mm"
     showgrid="false"
     inkscape:zoom="0.66114484"
     inkscape:cx="502.15925"
     inkscape:cy="135.37124"
     inkscape:window-width="1366"
     inkscape:window-height="704"
     inkscape:window-x="0"
     inkscape:window-y="27"
     inkscape:window-maximized="1"
     inkscape:current-layer="layer2" />
  <defs
     id="defs2">
    <inkscape:path-effect
       effect="simplify"
       id="path-effect69"
       is_visible="true"
       lpeversion="1"
       steps="1"
       threshold="0.000408163"
       smooth_angles="360"
       helper_size="0"
       simplify_individual_paths="false"
       simplify_just_coalesce="false" />
    <inkscape:path-effect
       effect="simplify"
       id="path-effect65"
       is_visible="true"
       lpeversion="1"
       steps="1"
       threshold="0.000408163"
       smooth_angles="360"
       helper_size="0"
       simplify_individual_paths="false"
       simplify_just_coalesce="false" />
    <inkscape:path-effect
       effect="simplify"
       id="path-effect61"
       is_visible="true"
       lpeversion="1"
       steps="1"
       threshold="0.000408163"
       smooth_angles="360"
       helper_size="0"
       simplify_individual_paths="false"
       simplify_just_coalesce="false" />
    <inkscape:path-effect
       effect="simplify"
       id="path-effect57"
       is_visible="true"
       lpeversion="1"
       steps="1"
       threshold="0.000408163"
       smooth_angles="360"
       helper_size="0"
       simplify_individual_paths="false"
       simplify_just_coalesce="false" />
  </defs>
  <g
     inkscape:groupmode="layer"
     id="layer2"
     inkscape:label="Corte Longitudinal">
    <path
       style="fill:none;stroke:#000000;stroke-width:0.264583px;stroke-linecap:butt;stroke-linejoin:miter;stroke-opacity:1"
       d="m -0.40619767,47.955744 c 0.64185952,0.07834 1.19726794,0.484979 1.58084427,0.991433 0.4939326,0.652163 0.7442485,1.447901 0.9047594,2.241473 0.3229551,1.596702 0.3189884,3.251668 0.7737731,4.82168 0.2619647,0.904357 0.6678972,1.766218 0.8548425,2.691523 0.1330514,0.658552 0.028596,1.337413 0.1626606,1.997432 0.156069,0.768347 0.4611622,1.498161 0.5776914,2.277228 0.1255585,0.839433 0.1480733,1.718688 0.5056004,2.498973 0.2350794,0.513049 0.7333922,0.831876 0.9942993,1.332848 0.3201324,0.614691 0.7114631,1.195209 1.1986977,1.691044 0.4032357,0.410353 0.7936312,0.834374 1.2199914,1.220833 0.3128198,0.283544 0.7980844,0.31814 1.0718641,0.638978 0.1307758,0.153254 0.2243935,0.334979 0.3244793,0.509097 0.8676132,1.509374 1.3519632,3.203504 2.1995712,4.721399 0.354542,0.634913 0.702221,1.283125 1.171853,1.837326 0.201283,0.237529 0.48853,0.371176 0.710515,0.590142 0.844378,0.832893 1.667734,1.686408 2.500236,2.531241 1.243568,1.261989 2.381013,2.623565 3.473194,4.015842 0.211994,0.270243 0.151696,0.632686 0.281445,0.93741 0.246109,0.578003 0.62319,1.105773 1.102385,1.509951 0.605583,0.510781 1.37229,0.756371 2.084375,1.076313 0.613068,0.275453 1.204695,0.597126 1.785447,0.934661 1.367465,0.794775 2.707187,1.689442 3.772023,2.860291 0.485085,0.533379 0.707919,1.246014 1.199222,1.777581 0.636903,0.6891 1.360753,1.293345 2.113917,1.85001 0.729735,0.539349 1.473636,1.075612 2.299644,1.456171 0.659069,0.303647 1.363562,0.49695 2.071611,0.648722 0.430265,0.09223 0.870179,0.122521 1.309706,0.126563 0.543392,0.005 1.094739,0.02484 1.618027,0.197483 1.236228,0.407865 2.432762,0.984714 3.733738,1.154349 0.477244,0.06223 0.965376,0.09264 1.442304,-0.0067 0.537364,-0.111942 1.051284,-0.331304 1.604913,-0.367542 0.285186,-0.01867 0.570679,-0.07092 0.825667,-0.213898 0.661268,-0.370798 1.295674,-0.827999 1.75064,-1.440802 0.265513,-0.357625 0.49805,-0.805774 0.412519,-1.258637 -0.07999,-0.423541 -0.399923,-0.743835 -0.699198,-1.030612 -0.378738,-0.362922 -0.846926,-0.659261 -1.107397,-1.121944 -0.137172,-0.243663 -0.239005,-0.505491 -0.36079,-0.757193 -0.221071,-0.456903 -0.413624,-0.92753 -0.643998,-1.379695 -0.33353,-0.654635 -0.879313,-1.168905 -1.25493,-1.795143 C 44.91338,89.310486 44.788814,88.841193 44.542228,88.428812 44.050217,87.605991 43.372842,86.911076 42.906119,86.070311 42.638533,85.588276 42.501144,85.048786 42.27962,84.544161 42.108843,84.155137 41.660766,83.982315 41.471711,83.60854 41.292127,83.253491 41.28143,82.800362 40.992859,82.516454 40.808155,82.334735 40.544579,82.273827 40.3059,82.196651 40.080107,82.123642 39.863754,82.020777 39.683277,81.85921 39.021107,81.266422 38.474141,80.543412 37.750737,80.023542 37.413761,79.781376 37.056531,79.56886 36.70966,79.341236 35.868808,78.789451 35.022303,78.2226 34.329882,77.48623 c -0.397301,-0.422518 -0.705068,-0.918633 -1.000739,-1.414484 -0.744546,-1.248632 -1.284387,-2.621213 -2.146106,-3.79558 -0.293006,-0.399314 -0.687221,-0.736111 -0.855816,-1.21878 -0.332905,-0.953073 -0.292305,-1.98795 -0.617111,-2.944343 -0.381946,-1.124641 -1.072306,-2.103992 -1.668873,-3.120635 -0.173729,-0.296061 -0.37286,-0.580865 -0.503213,-0.899251 -0.293296,-0.716373 -0.267501,-1.535935 -0.656856,-2.21644 -0.35143,-0.61422 -0.922683,-1.064391 -1.27019,-1.683442 C 25.269575,59.585099 25.032811,58.919566 24.611234,58.354967 23.9167,57.424808 23.131943,56.550877 22.572646,55.529891 22.127533,54.717346 21.904113,53.807934 21.470088,52.988767 21.167497,52.417665 20.753876,51.908866 20.474578,51.326793 20.322571,51.010001 20.326937,50.647416 20.169133,50.328419 19.565149,49.107478 18.639948,48.078757 17.633152,47.175176 16.559507,46.2116 15.511031,45.216471 14.378615,44.321961 13.934704,43.97131 13.446722,43.68303 12.982593,43.361277 12.787114,43.225763 12.649028,43.024388 12.461995,42.87949 c -0.04528,-0.03508 -0.169123,-0.128302 -0.02664,-0.08685 0.332794,0.09681 0.690386,0.134369 0.996733,0.299805 0.301897,0.163033 0.567168,0.384645 0.855955,0.568891 0,0 0.02427,0.01629 0.02427,0.01629"
       id="path55"
       inkscape:path-effect="#path-effect57"
       inkscape:original-d="m -0.40619767,47.955744 c 1.31206614,0.175364 2.06509027,1.499402 2.36964747,2.716985 0.4214228,1.684801 0.4113766,3.459544 0.8343811,5.133748 0.2374146,0.939662 0.8508981,2.280158 0.9511987,3.152299 0.053176,0.462385 0.013655,0.934362 0.066748,1.396023 0.094563,0.822256 0.4662569,1.60011 0.6007573,2.416763 0.1427237,0.866581 0.1874208,1.840891 0.5173168,2.656943 0.2048592,0.506751 0.7289247,0.830344 0.9678828,1.290942 0.8002194,1.542438 1.2891434,1.768183 2.4363982,2.972167 0.2959631,0.310597 0.9705562,0.439523 1.1681354,0.750549 0.9943679,1.565323 1.5114919,3.313605 2.3529579,4.953622 0.355671,0.693205 0.856395,1.344771 1.251576,1.996456 0.11224,0.185092 0.480649,0.377076 0.617439,0.510373 0.835999,0.814671 1.584909,1.625748 2.403024,2.431769 1.31307,1.293662 2.489009,2.790093 3.654592,4.188066 0.248735,0.298326 0.161243,0.57023 0.283693,0.90066 0.206232,0.55652 0.654442,1.15909 1.084697,1.546119 0.67842,0.610267 1.699193,0.889209 2.503147,1.29095 1.923399,0.961136 3.572615,2.055622 5.12311,3.557593 0.463817,0.449302 0.712534,1.196509 1.134761,1.696241 0.936448,1.108348 3.277891,2.885318 4.639167,3.497556 0.685996,0.308528 1.757072,0.598988 2.503146,0.690499 0.738188,0.09054 1.551099,-0.03566 2.269517,0.195144 1.580472,0.507743 3.039081,1.260924 4.739296,1.260924 0.605975,0 1.349282,-0.325424 1.852326,-0.405294 0.323297,-0.05133 0.716884,-0.02537 1.01795,-0.180136 0.87457,-0.449591 2.302891,-1.497653 2.302891,-2.6119 0,-0.957961 -1.53144,-1.627619 -1.902391,-2.4618 -0.274394,-0.617043 -0.581975,-1.215189 -0.851069,-1.831335 -0.282959,-0.647896 -0.845103,-1.246328 -1.251572,-1.831337 -0.242313,-0.348747 -0.33904,-0.706581 -0.517319,-1.080799 -0.372705,-0.782333 -1.069773,-1.504654 -1.55195,-2.251636 -0.390483,-0.604936 -0.68974,-1.265846 -0.867757,-1.906392 -0.106989,-0.384977 -0.656764,-0.646282 -0.834384,-1.005745 -0.160592,-0.324998 -0.228905,-0.744008 -0.45057,-1.050761 -0.193699,-0.268054 -0.918665,-0.332835 -1.218192,-0.58543 -0.665162,-0.56094 -1.555792,-1.625335 -2.21946,-2.056495 -1.163399,-0.755814 -2.809978,-1.739352 -3.621222,-2.867096 -1.059204,-1.472441 -1.724829,-3.191314 -2.720086,-4.683424 -0.259101,-0.388448 -0.69528,-0.735931 -0.867759,-1.18586 -0.343821,-0.896906 -0.31082,-1.838875 -0.567381,-2.762017 -0.403516,-1.451917 -1.428207,-2.779607 -2.152703,-4.082987 -0.395504,-0.711517 -0.347517,-1.690941 -0.750948,-2.416762 -0.288301,-0.518689 -0.732736,-0.896853 -1.068007,-1.365999 -0.455819,-0.637828 -0.665832,-1.438796 -1.134761,-2.07151 -0.688333,-0.928754 -1.406634,-1.770166 -2.019203,-2.762017 -0.403401,-0.653174 -0.626645,-1.453851 -0.934512,-2.16158 -0.318854,-0.732988 -0.813599,-1.479481 -1.234883,-2.161579 -0.16488,-0.266957 -0.146546,-0.657847 -0.283693,-0.945695 -0.607722,-1.275498 -1.552331,-2.326987 -2.586584,-3.257373 -1.022369,-0.919694 -2.041967,-1.850244 -3.103902,-2.731998 -0.389854,-0.323707 -0.881676,-0.645829 -1.301636,-0.91567 -0.272725,-0.175236 -0.507774,-0.348816 -0.717573,-0.600437 -0.04288,-0.05143 -0.19819,-0.167386 -0.133496,-0.150111 1.280441,0.341934 0.889081,0.199133 1.935766,0.900662" />
    <path
       style="fill:none;stroke:#000000;stroke-width:0.264583px;stroke-linecap:butt;stroke-linejoin:miter;stroke-opacity:1"
       d="m 37.484452,32.93128 c 0.340045,0.0666 0.572409,0.34394 0.79141,0.587916 0.227308,0.25323 0.53677,0.404112 0.828735,0.5672 0.323411,0.180653 0.617294,0.423838 0.813153,0.744327 0.218654,0.357788 0.32033,0.77193 0.361578,1.186952 0.06701,0.674194 0.0075,1.369919 0.225272,2.023157 0.149713,0.449005 0.549106,0.747557 0.760208,1.15975 0.140245,0.273839 0.15197,0.592363 0.323447,0.857805 0.633399,0.980489 1.22766,1.986164 1.777082,3.015363 0.342722,0.642001 0.520191,1.36364 0.930941,1.972688 0.225655,0.334594 0.653438,0.488723 0.821686,0.865413 0.200738,0.449431 0.275902,0.940305 0.450088,1.400413 0.117511,0.310402 0.342082,0.560372 0.54547,0.816237 0.300361,0.377858 0.647891,0.719132 1.054487,0.988287 0.259289,0.171642 0.573829,0.311608 0.726963,0.591097 0.52327,0.955038 1.334403,1.698658 2.078962,2.477346 0.21726,0.227219 0.448133,0.44814 0.59421,0.732458 0.181217,0.352713 0.316778,0.730664 0.557878,1.051256 0.263936,0.350958 0.55051,0.684112 0.794152,1.050978 0.548042,0.825218 0.963836,1.7367 1.570087,2.521955 0.389382,0.504352 0.941044,0.877595 1.239057,1.453188 0.207969,0.401679 0.36998,0.829399 0.650911,1.191665 0.344697,0.444494 0.760634,0.8552 0.951374,1.39909 0.390665,1.113969 0.499854,2.298088 0.576287,3.46545 0.01686,0.257488 0.125963,0.493112 0.238005,0.721448 0.286802,0.584489 0.244264,1.25451 0.396629,1.874406 0.131417,0.534668 0.385982,1.029286 0.646207,1.510722 0.373966,0.691865 0.76571,1.383116 0.983281,2.14584 0.254244,0.891287 0.422248,1.813269 0.815507,2.660002 0.272825,0.587425 0.578409,1.164815 0.743173,1.79606 0.105018,0.402346 0.220496,0.805223 0.418903,1.174161 0.301852,0.561295 0.667916,1.086868 0.921652,1.675112 0.431639,1.00068 0.834392,2.023054 1.43573,2.937546 0.372186,0.566006 0.775448,1.111601 1.196838,1.64169 0.850786,1.070249 1.808793,2.094067 3.003768,2.779983 0.355533,0.204076 0.716316,0.425442 1.117561,0.512032 0.256103,0.05527 0.516473,-0.0066 0.776505,0.05026 0.526959,0.115157 1.074569,0.237505 1.615174,0.124132 0.367618,-0.07709 0.698889,-0.263301 1.049292,-0.391162 0.377194,-0.137637 0.789271,-0.17759 1.136751,-0.399033 0.268505,-0.171114 0.517449,-0.384203 0.833723,-0.470747 0.181731,-0.04973 0.388497,-0.102746 0.490395,-0.28006 0.09138,-0.159018 0.165015,-0.326041 0.261952,-0.483299 0.495413,-0.803693 0.751321,-1.733721 0.842102,-2.669035 0.09581,-0.987113 0.01043,-1.97871 -0.0034,-2.967452 -0.0079,-0.56427 0.08399,-1.152801 -0.09667,-1.692342 -0.0866,-0.258637 -0.267455,-0.476254 -0.322723,-0.748809 -0.06235,-0.307492 -0.07245,-0.627693 -0.211998,-0.918106 -0.200254,-0.416739 -0.46478,-0.817513 -0.520682,-1.288368 -0.03719,-0.313265 -0.0823,-0.627579 -0.199473,-0.924161 -0.174799,-0.44244 -0.4459,-0.868699 -0.453012,-1.358819 -0.0049,-0.338573 0.03101,-0.684061 -0.08641,-1.014305 -0.304987,-0.857727 -0.715865,-1.683 -0.910991,-2.575595 -0.1687,-0.771711 -0.172616,-1.581718 -0.473874,-2.322533 -0.344501,-0.847152 -0.915582,-1.585329 -1.19294,-2.463938 -0.162643,-0.515217 -0.306036,-1.037547 -0.544815,-1.526757 -0.261229,-0.535206 -0.507149,-1.088188 -0.902338,-1.543741 -0.319995,-0.368873 -0.643887,-0.747697 -0.826004,-1.209066 -0.174969,-0.443262 -0.308136,-0.907905 -0.582471,-1.307686 -0.19195,-0.279724 -0.447287,-0.532253 -0.54661,-0.861485 -0.153146,-0.507644 -0.0099,-1.04694 -0.104824,-1.561112 -0.03929,-0.212804 -0.250888,-0.310164 -0.422175,-0.397758 -0.148745,-0.07607 -0.190245,-0.244493 -0.268374,-0.378301 -0.160186,-0.274343 -0.309201,-0.554875 -0.411157,-0.859107 -0.618675,-1.846104 -1.526786,-3.589775 -2.628415,-5.192223 -0.81423,-1.184392 -1.762964,-2.273376 -2.810551,-3.259521 -0.939137,-0.884056 -1.882558,-1.805808 -2.512804,-2.937035 -0.183488,-0.329342 -0.270512,-0.703583 -0.488197,-1.017378 -0.350876,-0.505792 -0.811598,-0.933853 -1.076816,-1.501 -0.867611,-1.855319 -1.504983,-3.816646 -2.45195,-5.632314 -0.204954,-0.392969 -0.562106,-0.673083 -0.777464,-1.062968 -0.698214,-1.264048 -1.312156,-2.593269 -1.612632,-4.014816 -0.133025,-0.629339 -0.0937,-1.275718 -0.111639,-1.914406 -0.0049,-0.174925 -0.198425,-0.537377 -0.02349,-0.525355 0.03063,0.0021 0.0357,0.07092 0.04907,0.0979"
       id="path59"
       inkscape:path-effect="#path-effect61"
       inkscape:original-d="m 37.484452,32.93128 c 0.497472,0.105113 0.696222,0.593357 1.085593,0.838533 0.724318,0.456081 1.164468,0.553606 1.522196,1.411708 0.394387,0.946044 0.03342,2.22544 0.530994,3.12062 0.161267,0.290134 0.435526,0.560835 0.613598,0.849149 0.159539,0.25831 0.146482,0.593383 0.306798,0.838533 0.63717,0.974331 1.165447,1.983351 1.769996,2.99325 0.374195,0.625094 0.603324,1.685763 1.120995,2.229011 0.195903,0.205584 0.475173,0.353304 0.637196,0.615635 0.257371,0.416711 0.323987,1.365692 0.707996,1.868125 0.322384,0.421802 0.63564,0.846979 1.050197,1.18881 0.283403,0.233685 0.891926,0.511355 1.073796,0.838531 0.614767,1.10594 1.533168,1.878851 2.395392,2.802191 0.333473,0.357111 0.441216,0.869199 0.707993,1.27372 0.221874,0.336437 0.499494,0.6272 0.731599,0.955292 0.607878,0.859261 1.083583,1.848604 1.675593,2.685431 0.313651,0.443359 0.763003,0.780335 1.097394,1.210037 0.312536,0.401614 0.445765,0.945354 0.743397,1.369253 0.309978,0.441479 0.83021,0.928206 1.026594,1.432938 0.440788,1.132864 0.476827,2.493055 0.637199,3.68318 0.04449,0.330214 0.162015,0.473552 0.283199,0.764231 0.258977,0.621204 0.197379,1.371346 0.412999,2.006116 0.377439,1.111138 1.149662,2.079995 1.486792,3.163075 0.239257,0.768649 0.378806,1.566825 0.648999,2.324547 0.245864,0.689491 0.644739,1.32107 0.873193,2.006113 0.138232,0.414499 0.219062,0.886441 0.401199,1.28433 0.27469,0.600077 0.704913,1.14505 0.979397,1.772597 0.575678,1.316162 0.93204,2.308392 1.781792,3.502739 1.280766,1.800149 2.84421,3.736401 4.967779,4.500486 0.251413,0.09046 0.507278,-0.0053 0.766998,0.05307 1.160682,0.261038 1.535163,0.311637 2.63139,-0.201671 0.33809,-0.158313 0.750668,-0.178101 1.085596,-0.350279 0.25618,-0.131694 0.483023,-0.342048 0.743394,-0.477644 0.172059,-0.08961 0.472951,-0.119243 0.625396,-0.233514 0.155935,-0.116893 0.205708,-0.34127 0.306798,-0.498877 1.094954,-1.707155 1.002172,-3.502427 0.920395,-5.48762 -0.02651,-0.643678 0.03557,-1.241096 -0.0826,-1.87874 C 75.710234,77.1605 75.549625,76.964734 75.46849,76.757941 75.338635,76.426977 75.38594,76.062415 75.244288,75.738965 75.084109,75.373213 74.799486,74.948456 74.71329,74.56077 74.65015,74.27679 74.65,73.982785 74.571688,73.701004 74.441502,73.232609 74.157104,72.82632 74.052493,72.342371 c -0.08382,-0.387757 0.04892,-0.823 -0.0826,-1.199425 -0.280033,-0.8015 -0.658136,-1.614432 -0.884997,-2.430687 -0.217154,-0.781336 -0.192601,-1.59139 -0.460198,-2.367 -0.262054,-0.759542 -0.778981,-1.452472 -1.097399,-2.197169 -0.255471,-0.597482 -0.359418,-1.280726 -0.648994,-1.857515 -0.224493,-0.447159 -0.492408,-1.085008 -0.802396,-1.475391 -0.286835,-0.361225 -0.609018,-0.671078 -0.837798,-1.082669 -0.249473,-0.448816 -0.33297,-0.967084 -0.59,-1.411706 -0.18374,-0.317854 -0.571913,-0.737674 -0.684387,-1.061434 C 67.807556,56.809848 67.92174,56.171798 67.85752,55.709679 67.807588,55.350354 67.387866,55.360204 67.279323,55.125892 67.142674,54.8309 66.903231,54.516575 66.795527,54.181213 65.842654,51.214218 63.805384,47.903095 61.497349,45.764034 60.500582,44.840239 59.555686,43.861127 58.830561,42.707099 58.652232,42.423294 58.578493,42.070498 58.405762,41.783648 58.083973,41.249261 57.551785,40.812288 57.284765,40.244569 56.403602,38.3711 55.65703,36.441853 54.806775,34.555276 54.63532,34.174842 54.256431,33.89422 54.063381,33.546912 53.335888,32.238108 52.681303,30.88587 52.387785,29.407313 52.261224,28.769775 52.281589,28.211721 52.281589,27.57103 c 0,-0.174273 -0.08398,-0.84306 0.0236,-0.488259" />
    <path
       style="fill:none;stroke:#000000;stroke-width:0.264583px;stroke-linecap:butt;stroke-linejoin:miter;stroke-opacity:1"
       d="m 65.615531,27.43549 c 0.262049,1.572342 0.105939,3.174676 -0.0982,4.743959 -0.231433,1.779111 -0.5724,3.563269 -0.477267,5.363802 0.02801,0.530206 0.06481,1.066139 0.201125,1.580402 0.151946,0.573235 0.407557,1.113194 0.531142,1.696063 0.26297,1.240258 0.507501,2.490118 0.936634,3.687154 0.125876,0.351122 0.201729,0.717438 0.238386,1.089876 0.09591,0.974466 0.423918,1.911261 0.466022,2.894839 0.04342,1.014335 0.08113,2.038021 0.308854,3.029991 0.09363,0.407838 0.193186,0.832036 0.439139,1.176475 0.356532,0.499296 0.837144,0.897633 1.163457,1.421298 0.203039,0.325836 0.410839,0.651541 0.683332,0.926787 0.610148,0.616312 1.286339,1.182888 1.762145,1.917526 0.220456,0.340381 0.366005,0.72458 0.445425,1.122431 0.228007,1.142184 0.03715,2.334499 0.348941,3.462347 0.08065,0.291745 0.169102,0.590832 0.341646,0.841565 0.277091,0.402655 0.712648,0.646878 1.105359,0.919526 0.214392,0.148846 0.415086,0.322447 0.559107,0.543293 0.273371,0.419194 0.449505,0.896465 0.560409,1.382672 0.138398,0.606741 0.02108,1.22811 -0.05296,1.83457 -0.05177,0.424016 -0.05387,0.85739 0.04399,1.276156 0.144124,0.616727 0.402718,1.1975 0.56416,1.810138 0.342312,1.299002 0.715654,2.601576 1.312139,3.809 0.310987,0.62951 0.660139,1.267455 1.196317,1.731094 0.46158,0.399133 1.003325,0.68693 1.496123,1.044283 0.85086,0.617002 1.756744,1.285228 2.807983,1.414859 0.263437,0.03248 0.529256,-0.01793 0.78714,-0.06717 0.648917,-0.123914 1.282444,-0.31508 1.918723,-0.492526 0.181468,-0.05061 0.34027,-0.15447 0.481762,-0.2784 0.208957,-0.183021 0.393646,-0.427451 0.675159,-0.49659 0.176167,-0.04327 0.377724,0.0153 0.536512,-0.08129 0.104602,-0.06363 0.171553,-0.222156 0.310038,-0.200573 0.139846,0.02179 0.284222,0.110459 0.425223,0.02766 0.21922,-0.128735 0.347442,-0.36261 0.460313,-0.581258 0.20589,-0.398842 0.319657,-0.836763 0.502488,-1.245121 0.140909,-0.314725 0.372917,-0.59276 0.446403,-0.933692 0.03367,-0.156204 -0.0029,-0.352603 0.111031,-0.468286 0.212532,-0.215871 0.34915,-0.492758 0.476268,-0.763736 0.232492,-0.495604 0.456076,-1.001539 0.583659,-1.534777 0.107035,-0.447356 0.02184,-0.910308 -0.05606,-1.355301 -0.05606,-0.320279 -0.151491,-0.637498 -0.154453,-0.963809 -0.004,-0.445082 0.109181,-0.87787 0.139057,-1.32154 0.05252,-0.779975 0.234946,-1.546624 0.237255,-2.331651 0.0024,-0.80016 -0.135062,-1.614475 0.03958,-2.402007 0.09212,-0.415411 0.394024,-0.779733 0.370648,-1.218156 -0.02467,-0.46266 -0.333002,-0.841046 -0.447345,-1.278903 -0.195835,-0.749916 -0.13323,-1.548599 -0.389743,-2.285113 C 89.779906,57.387512 89.447692,56.968244 89.27823,56.468919 88.976806,55.580761 88.915585,54.623662 88.555558,53.755254 88.267837,53.061253 87.751682,52.477263 87.54703,51.7457 87.402404,51.22871 87.349767,50.688619 87.149016,50.185613 86.445945,48.423985 85.397039,46.828332 84.675407,45.074034 84.435504,44.490826 84.247329,43.885951 83.981827,43.314033 83.754845,42.82509 83.340043,42.450568 83.138789,41.945782 82.92364,41.406145 82.835707,40.825315 82.635826,40.281397 82.504856,39.925 82.301348,39.600842 82.182087,39.238618 81.96156,38.568826 81.849413,37.870722 81.653823,37.193605 c -0.325589,-1.127164 -0.61826,-2.263503 -0.848503,-3.416004 -0.11962,-0.598768 -0.448881,-1.131087 -0.560722,-1.73351 -0.104575,-0.563284 -0.125994,-1.141632 -0.303699,-1.692119 -0.397958,-1.232778 -0.781038,-2.490633 -0.839597,-3.793896 -0.02765,-0.615408 0.04308,-1.231003 0.168906,-1.834079 0.04785,-0.229355 0.05674,-0.483828 0.19373,-0.677479 0.07493,-0.105916 0.20081,-0.160589 0.313099,-0.2177 0.104331,-0.05306 0.211348,-0.100556 0.317031,-0.150809"
       id="path63"
       inkscape:path-effect="#path-effect65"
       inkscape:original-d="m 65.615531,27.43549 c 0.624072,3.723851 -1.108895,7.771264 -0.424799,11.463501 0.111458,0.60157 0.4236,1.181071 0.554598,1.793827 0.231394,1.082358 0.435856,2.178307 0.766998,3.237376 0.167651,0.536191 0.381389,0.983504 0.424797,1.549699 0.07675,1.001061 0.43044,1.899118 0.472,2.908331 0.04373,1.061884 0.133266,3.453649 0.766996,4.330658 0.306795,0.424566 0.727392,0.790083 1.014796,1.19942 0.251539,0.358254 0.416351,0.713671 0.731596,1.040206 0.801378,0.830078 1.918645,1.678231 2.230192,2.855259 0.382262,1.444205 -0.01233,3.026545 0.660794,4.415571 0.289962,0.598363 1.02956,0.89426 1.498597,1.316183 0.418016,0.376023 0.735428,1.230683 0.837798,1.783207 0.15502,0.836692 -0.144367,1.649034 -0.106201,2.473145 0.03514,0.758745 0.414819,1.47397 0.601792,2.197176 0.422471,1.634104 1.283346,4.707832 2.678592,5.806046 0.390898,0.307681 0.856276,0.561959 1.262594,0.859766 0.888537,0.651248 1.81065,1.208392 2.890986,1.486011 0.430625,0.11066 2.376672,-0.415848 2.86739,-0.605022 0.361696,-0.139436 0.608589,-0.591212 0.967594,-0.711158 0.172273,-0.05756 0.370107,-0.01781 0.542798,-0.0743 0.117581,-0.03846 0.20465,-0.226552 0.330401,-0.222903 0.119843,0.0035 0.236607,0.08806 0.353997,0.06369 0.506481,-0.105135 0.904658,-1.519611 1.0502,-1.8469 0.132651,-0.298302 0.325691,-0.551807 0.436597,-0.880997 0.03525,-0.104634 0.06091,-0.479359 0.141599,-0.551942 0.348721,-0.313671 0.995387,-1.908691 1.073796,-2.420072 0.095,-0.619538 -0.138321,-1.366766 -0.2242,-1.984886 -0.06412,-0.461544 0.09752,-0.940641 0.117999,-1.401095 0.03148,-0.707901 0.203536,-1.411261 0.235998,-2.112256 0.04146,-0.895176 -0.105712,-1.786094 0.0354,-2.674816 0.07097,-0.446937 0.431038,-0.867545 0.3776,-1.348023 C 90.73376,60.921037 90.424218,60.554404 90.312824,60.053399 90.153055,59.334838 90.188948,58.519723 89.935231,57.835 89.77459,57.401467 89.482132,57.035855 89.321634,56.593118 89.00226,55.712126 88.918768,54.782619 88.613632,53.907687 88.383993,53.249226 87.910328,52.699948 87.646038,52.039559 87.420883,51.47696 87.412842,50.865941 87.197638,50.30942 86.612861,48.797191 85.732762,47.394767 85.050047,45.936307 84.662533,45.108479 84.358675,44.25125 84.023456,43.410092 83.857691,42.994143 83.53367,42.659366 83.303657,42.28497 c -0.276419,-0.449935 -0.474501,-1.366989 -0.637199,-1.910583 -0.09964,-0.332907 -0.304091,-0.640175 -0.424799,-0.965904 -0.242967,-0.655637 -0.340646,-1.350857 -0.531,-2.016728 -0.346742,-1.212932 -0.690174,-2.327394 -0.896792,-3.566425 -0.08497,-0.509555 -0.371946,-1.00467 -0.507397,-1.507238 -0.164367,-0.60986 -0.137036,-1.261142 -0.330401,-1.85751 -0.601012,-1.8536 -1.168607,-3.707098 -0.719791,-5.668065 0.03058,-0.133605 0.113194,-0.696942 0.259593,-0.806692 0.165137,-0.123797 0.388572,-0.217512 0.578197,-0.307816" />
    <path
       style="fill:none;stroke:#000000;stroke-width:0.264583px;stroke-linecap:butt;stroke-linejoin:miter;stroke-opacity:1"
       d="m 160.89381,18.0728 c 0.0164,1.231435 -0.19127,2.456667 -0.51358,3.641961 -0.13049,0.47988 -0.41891,0.892036 -0.61047,1.346872 -0.29565,0.70198 -0.54107,1.422867 -0.82189,2.131185 -0.21327,0.537934 -0.32774,1.107901 -0.53844,1.647493 -0.47996,1.229168 -1.01154,2.444151 -1.33421,3.728613 -0.15024,0.598056 -0.16369,1.222225 -0.32795,1.816827 -0.12762,0.461956 -0.33397,0.902475 -0.39566,1.382646 -0.13827,1.076212 -0.22805,2.159636 -0.24676,3.244551 -0.0121,0.699252 0.009,1.400796 0.10838,2.094728 0.15212,1.057873 0.28484,2.128628 0.2125,3.19824 -0.0645,0.953666 -0.40026,1.872886 -0.41939,2.829149 -0.008,0.391978 0.11348,0.770675 0.12816,1.161832 0.0162,0.430315 -0.0272,0.876367 0.12048,1.28855 0.1461,0.407765 0.47129,0.714714 0.63898,1.113261 0.25535,0.606872 0.43329,1.241755 0.62675,1.871129 0.12062,0.392408 0.40467,0.711201 0.50847,1.111868 0.11933,0.460595 0.0789,0.961323 0.28233,1.397375 0.10924,0.234196 0.25216,0.451226 0.39551,0.665511 0.6067,0.906925 1.2805,1.769587 2.01435,2.576608 0.58249,0.640567 1.18582,1.275081 1.89698,1.773061 0.33363,0.23362 0.68721,0.486523 1.09714,0.537778 0.42317,0.05291 0.8397,0.176414 1.26822,0.170596 0.3438,-0.0047 0.6797,-0.08895 1.01852,-0.138047 0.2917,-0.04227 0.59383,-0.09855 0.88503,-0.03196 0.3221,0.07365 0.58627,0.313954 0.92184,0.342875 0.21033,0.01813 0.40548,-0.0883 0.56542,-0.216058 0.46037,-0.367729 0.79972,-0.866906 1.05144,-1.394225 0.29028,-0.608088 0.48541,-1.267816 0.5274,-1.94242 0.0388,-0.62364 -0.13841,-1.22988 -0.24144,-1.838739 -0.0629,-0.371516 -0.062,-0.749195 -0.081,-1.124431 -0.052,-1.025347 -0.10781,-2.053155 -0.26596,-3.068533 -0.0615,-0.394605 -0.15441,-0.78377 -0.27959,-1.163769 -0.14125,-0.428774 -0.26198,-0.868886 -0.28584,-1.322686 -0.0128,-0.243616 -0.0426,-0.487094 -0.11657,-0.721373 -0.22397,-0.70884 -0.57426,-1.371909 -0.76079,-2.09421 -0.29887,-1.157331 -0.33101,-2.359309 -0.36693,-3.547395 -0.0192,-0.634087 -0.0626,-1.266933 -0.11207,-1.899587 -0.067,-0.856418 0.0804,-1.708864 0.2229,-2.549941 0.0953,-0.562575 0.16387,-1.129468 0.2035,-1.698834 0.0873,-1.255048 0.0507,-2.523875 0.27719,-3.764933 0.11672,-0.639504 0.25987,-1.276613 0.47282,-1.891036 0.10047,-0.289883 0.19444,-0.590432 0.37401,-0.841554 0.15096,-0.211115 0.36226,-0.410504 0.38599,-0.679686 0.008,-0.08678 0.0229,-0.167615 0.0565,-0.250754 0.0608,-0.150646 0.29523,-0.341328 0.17793,-0.454454 -0.033,-0.03186 -0.0913,0.07869 -0.11606,0.117433 -0.0926,0.144867 -0.15467,0.306161 -0.238,0.456077"
       id="path67"
       inkscape:path-effect="#path-effect69"
       inkscape:original-d="m 160.89381,18.0728 c 0.0185,1.203838 -0.19226,2.454141 -0.50739,3.619496 -0.1302,0.48145 -0.37767,0.821538 -0.5664,1.252493 -0.3111,0.710358 -0.53233,1.455504 -0.8378,2.165328 -0.21517,0.499987 -0.32069,1.077467 -0.51919,1.592157 -0.50408,1.306943 -1.1315,2.667015 -1.4278,4.044063 -0.10867,0.505037 -0.14154,1.02788 -0.2596,1.528469 -0.11204,0.475107 -0.3466,0.926415 -0.413,1.411711 -0.18819,1.375513 -0.37636,3.887621 -0.17699,5.232876 0.15848,1.069422 0.29393,2.1688 0.24779,3.24799 -0.0422,0.986957 -0.36037,1.93353 -0.4248,2.91895 -0.0226,0.345451 0.0931,0.714896 0.118,1.061432 0.0324,0.452059 -0.0221,0.928602 0.1062,1.369253 0.1233,0.423457 0.46751,0.726551 0.6372,1.125122 0.25633,0.602062 0.47872,1.247428 0.6372,1.878737 0.0879,0.349996 0.35015,0.659808 0.47199,0.997754 0.18785,0.520992 0.12067,1.193597 0.3894,1.677062 0.75347,1.355516 3.78492,5.237046 5.40438,5.445165 0.41778,0.05369 0.89109,0.181385 1.30979,0.159218 0.5011,-0.02653 1.31219,-0.271711 1.7936,-0.169828 0.46415,0.09823 0.85553,0.594381 1.41599,0.191061 1.00992,-0.726758 1.70907,-2.471606 1.66379,-3.693801 -0.0249,-0.672912 -0.26378,-1.34281 -0.29499,-2.01673 -0.0569,-1.22954 -0.1502,-3.606348 -0.5192,-4.712769 -0.12062,-0.361651 -0.24557,-0.739624 -0.3068,-1.125122 -0.052,-0.32756 -0.0249,-0.655384 -0.118,-0.976519 -0.20087,-0.692621 -0.5464,-1.32407 -0.74339,-2.016728 -0.5133,-1.80485 -0.33368,-3.673153 -0.5192,-5.50885 -0.12363,-1.223248 0.20032,-2.364629 0.34219,-3.577035 0.16956,-1.448956 0.10396,-2.925013 0.3186,-4.373112 0.10427,-0.703451 0.50043,-2.415993 0.8968,-2.950792 0.19861,-0.267973 0.37759,-0.454454 0.37759,-0.785461 0,-0.03768 0.34919,-0.764196 0.17701,-0.55195 -0.13262,0.16347 -0.20454,0.367967 -0.3068,0.55195" />
  </g>
</svg>
