<?xml version="1.0" encoding="UTF-8" standalone="no"?>
<!-- Created with Inkscape (http://www.inkscape.org/) -->

<svg
   width="353.56799mm"
   height="264.16mm"
   viewBox="0 0 353.56799 264.16"
   version="1.1"
   id="svg5"
   inkscape:version="1.1.2 (08b2f3d93c, 2022-04-05)"
   sodipodi:docname="Ducto.svg"
   xmlns:inkscape="http://www.inkscape.org/namespaces/inkscape"
   xmlns:sodipodi="http://sodipodi.sourceforge.net/DTD/sodipodi-0.dtd"
   xmlns="http://www.w3.org/2000/svg"
   xmlns:svg="http://www.w3.org/2000/svg">
  <sodipodi:namedview
     id="namedview7"
     pagecolor="#ffffff"
     bordercolor="#666666"
     borderopacity="1.0"
     inkscape:pageshadow="2"
     inkscape:pageopacity="0.0"
     inkscape:pagecheckerboard="0"
     inkscape:document-units="mm"
     showgrid="false"
     inkscape:zoom="0.47393378"
     inkscape:cx="670.97981"
     inkscape:cy="499.01486"
     inkscape:window-width="1366"
     inkscape:window-height="704"
     inkscape:window-x="0"
     inkscape:window-y="27"
     inkscape:window-maximized="1"
     inkscape:current-layer="layer2" />
  <defs
     id="defs2">
    <inkscape:path-effect
       effect="simplify"
       id="path-effect61"
       is_visible="true"
       lpeversion="1"
       steps="1"
       threshold="0.000408163"
       smooth_angles="360"
       helper_size="0"
       simplify_individual_paths="false"
       simplify_just_coalesce="false" />
    <inkscape:path-effect
       effect="simplify"
       id="path-effect57"
       is_visible="true"
       lpeversion="1"
       steps="1"
       threshold="0.000408163"
       smooth_angles="360"
       helper_size="0"
       simplify_individual_paths="false"
       simplify_just_coalesce="false" />
  </defs>
  <g
     inkscape:groupmode="layer"
     id="layer2"
     inkscape:label="Ducto">
    <path
       style="fill:none;stroke:#000000;stroke-width:0.264583px;stroke-linecap:butt;stroke-linejoin:miter;stroke-opacity:1"
       d="m 194.06063,208.12337 c 1.04294,-0.63347 1.68787,-1.74305 2.04212,-2.88459 0.64247,-2.07032 0.58295,-4.26784 1.04393,-6.37465 0.24637,-1.12599 0.88197,-2.10815 1.46058,-3.08642 0.82873,-1.40114 1.79468,-2.79547 2.09546,-4.41855 0.45403,-2.45006 0.35897,-5.00032 1.0861,-7.39175 0.45008,-1.48025 1.78523,-2.49403 2.19567,-3.9957 0.26746,-0.97855 -0.007,-1.98651 -0.28146,-2.93022 -0.58284,-2.00494 -0.43776,-4.11094 -0.43733,-6.16997 1.5e-4,-0.72006 -0.12432,-1.43537 -0.37759,-2.11182 -0.36931,-0.98637 -0.82509,-1.95065 -0.96004,-3.01278 -0.18426,-1.45021 -0.27403,-2.92116 -0.71971,-4.32889 -0.85499,-2.7006 -2.32052,-5.17311 -3.09648,-7.89708 -0.55718,-1.95594 -0.3405,-4.03606 -0.93977,-5.98874 -0.42122,-1.37252 -0.97505,-2.72992 -1.01817,-4.19237 -0.0766,-2.59704 0.50324,-5.1588 1.26635,-7.62685 0.53456,-1.72888 1.24238,-3.40586 1.68256,-5.16115 0.42303,-1.6869 0.0277,-3.46322 0.53921,-5.14265 0.72566,-2.38259 2.26303,-4.41938 2.92503,-6.83325 0.53353,-1.94543 1.34089,-3.79812 2.1524,-5.64521 0.65314,-1.48661 0.7453,-3.13746 0.81359,-4.73617 0.0548,-1.28345 0.14869,-2.56531 0.35297,-3.83633 0.36204,-2.25258 1.00803,-4.483611 0.94663,-6.784257 -0.0348,-1.302474 -0.23494,-2.603764 -0.60583,-3.852732 -0.23671,-0.797119 -0.68563,-1.510591 -1.22624,-2.135564 -0.50385,-0.582472 -0.88984,-1.272834 -1.05032,-2.030642 -0.13294,-0.627762 -0.26647,-1.276079 -0.199,-1.916442 0.11656,-1.106324 0.89191,-1.998636 1.01588,-3.11394 0.30721,-2.763906 0.0225,-5.608129 -0.90842,-8.225782 -0.73927,-2.078803 -1.75411,-4.064715 -3.03119,-5.864366 -0.5547,-0.78168 -1.18967,-1.513297 -1.96174,-2.091218 -0.95118,-0.711987 -2.0267,-1.335375 -2.67691,-2.361472 -0.5449,-0.859906 -0.89568,-1.823676 -1.26444,-2.767359 -0.80252,-2.053695 -1.52939,-4.175082 -2.79449,-6.000661 -0.72744,-1.049718 -1.70138,-2.072475 -2.98577,-2.341792 -0.77465,-0.162433 -1.56273,0.04821 -2.31892,0.206884 -0.6562,0.137694 -1.34769,0.232809 -2.00355,0.02188 -0.69653,-0.224005 -1.36485,-0.550096 -2.11059,-0.609297 -2.64306,-0.209823 -5.2261,0.536085 -7.84735,0.71681 -1.36173,0.09389 -2.72326,-0.03547 -4.07686,-0.174572 -1.01012,-0.103806 -2.05212,-0.05858 -3.01261,0.301053 -1.51288,0.566455 -2.85405,1.514554 -4.0651,2.560737 -0.74229,0.641239 -1.13162,1.568363 -1.6002,2.406321 -0.43265,0.773701 -1.02769,1.437357 -1.57653,2.128197 -1.67753,2.11155 -3.38415,4.264373 -4.41103,6.784378 -0.71598,1.757038 -0.91273,3.71524 -0.53644,5.59111 0.20951,1.044444 0.8516,1.928499 1.56051,2.700306 0.59707,0.650046 1.2385,1.29017 1.56476,2.140512 0.58597,1.527231 1.37056,3.002385 1.65988,4.622163 0.17788,0.995866 0.0773,2.016324 -0.0177,3.015201 -0.1833,1.927363 -0.49657,3.876658 -0.18636,5.814112 0.14438,0.901745 0.60108,1.702987 1.05329,2.481215 0.48026,0.826497 0.89687,1.734758 0.89345,2.715686 -0.005,1.352997 -0.46145,2.679877 -0.32805,4.035217 0.0903,0.91766 0.68801,1.6711 1.22549,2.37617 0.48118,0.63122 0.84634,1.39672 0.80521,2.20769 -0.0982,1.9363 -0.50223,3.85273 -1.1777,5.67003 -0.63836,1.71745 -1.31323,3.42053 -1.85109,5.17628 -0.45903,1.49843 -0.52968,3.07232 -0.63192,4.62437 -0.0689,1.04607 -0.26025,2.07825 -0.50571,3.09656 -0.40555,1.68246 -0.79394,3.36804 -1.21277,5.04834 -0.32534,1.30522 -1.20615,2.48153 -1.15317,3.86513 0.0456,1.19043 0.49747,2.31551 0.96868,3.39311 0.71036,1.6245 1.47038,3.22695 2.32721,4.77871 0.15888,0.28774 0.17439,0.61585 0.14708,0.93685 -0.13842,1.62688 -0.41928,3.24031 -0.50461,4.87206 -0.0637,1.21868 -0.13948,2.4779 0.22685,3.65527 0.34628,1.11294 1.25607,1.90197 2.0669,2.68474 0.61634,0.59501 1.20682,1.2654 1.45318,2.11479 0.95336,3.28699 1.37831,6.77134 0.94837,10.14742 -0.0925,0.7262 0.48538,1.28953 0.50117,2.00956 0.0349,1.5889 -0.65615,3.08651 -1.52656,4.38077 -1.36578,2.03087 -3.2046,3.72917 -4.33629,5.91868 -0.67221,1.30054 -0.96491,2.83948 -0.58132,4.28035 0.33642,1.2637 0.91331,2.47538 0.97284,3.80518 0.0834,1.86351 -0.4942,3.7331 -0.11065,5.58425 0.27114,1.30863 1.19002,2.32898 1.79239,3.48792 1.24596,2.3972 1.75856,5.12372 3.22681,7.41523 0.59838,0.9339 1.40337,1.71499 2.29214,2.37557 2.87214,2.13472 6.16191,3.6017 9.42691,5.02416 1.59912,0.69669 3.24421,1.29641 4.78366,2.12239 0.86457,0.46388 1.79149,0.79355 2.74587,1.03319 0.43446,0.10909 0.89967,0.0997 1.31737,0.25818 0.42044,0.15949 0.77565,0.59165 1.26488,0.49032 0.7999,-0.16567 1.38672,-0.88106 2.2353,-0.90492 0.76603,-0.0215 1.54072,0.20719 2.30006,-0.0122 1.20305,-0.34754 2.20737,-1.15252 3.10575,-1.99207 0.63282,-0.59138 1.2867,-1.16555 1.86224,-1.81277 0.28258,-0.31777 0.42509,-0.7091 0.57097,-1.13114 0.10593,-0.30646 0.4643,-0.40748 0.73377,-0.5262 0.42274,-0.18624 0.85278,-0.35535 1.2823,-0.52518"
       id="path55"
       inkscape:path-effect="#path-effect57"
       inkscape:original-d="m 194.06063,208.12337 c 3.29125,-2.05076 2.16882,-7.60136 3.46156,-10.37922 0.94794,-2.03696 2.81525,-4.29036 3.21073,-6.5434 0.40307,-2.29618 0.45084,-4.74113 1.00335,-7.03983 0.4025,-1.67458 2.01471,-2.73556 2.30771,-4.46756 0.20561,-1.21542 -0.27746,-2.23539 -0.50168,-3.29428 -0.41937,-1.98057 -0.18418,-4.09499 -0.30101,-6.09215 -0.0893,-1.527 -1.02919,-2.73515 -1.25416,-4.15169 -0.23045,-1.45101 -0.22158,-2.91198 -0.65218,-4.33219 -0.8831,-2.91266 -2.14197,-5.11102 -3.11043,-7.94235 -0.65489,-1.91462 -0.40921,-3.89669 -0.903,-5.8214 -0.3572,-1.39233 -1.08745,-2.89845 -1.15385,-4.33218 -0.21981,-4.74648 1.49766,-8.55071 2.85954,-12.90633 0.5098,-1.63047 0.0966,-3.43033 0.50167,-5.00911 0.63417,-2.47191 2.3246,-4.59209 2.95992,-6.94955 0.55102,-2.04467 1.22141,-3.8822 2.1572,-5.77627 1.07753,-2.18094 0.75891,-5.45958 1.10369,-7.85211 0.61886,-4.29441 1.69036,-6.439631 0.65218,-10.875614 -0.77208,-3.29901 -2.41745,-2.410137 -2.6589,-6.317771 -0.0781,-1.264161 0.85512,-2.139183 1.00334,-3.339401 0.30952,-2.506324 0.072,-5.06593 -0.60199,-7.491098 -0.69455,-2.49918 -2.43517,-5.872866 -4.16392,-7.852095 -1.30522,-1.494327 -3.07174,-1.932472 -4.06358,-3.835794 -1.57367,-3.019819 -2.9314,-9.662769 -6.77261,-10.649974 -0.91346,-0.234765 -2.444,0.333819 -3.4114,0.361016 -1.06691,0.02999 -1.75045,-0.613169 -2.8094,-0.722032 -2.26087,-0.232421 -4.6271,0.323321 -6.82278,0.586637 -6.27026,0.751967 -6.4799,-1.987772 -12.3914,2.797878 -0.85332,0.690804 -1.38155,2.236317 -2.05687,3.113765 -2.92854,3.805082 -7.43197,8.486111 -6.02012,13.989376 0.55825,2.175967 2.47387,3.020628 3.01006,4.467579 0.55727,1.503836 1.72453,3.875852 1.80603,5.415248 0.1478,2.791423 -0.96844,6.202064 -0.10033,8.935143 0.38939,1.225918 1.45236,2.378234 1.7057,3.745548 0.30423,1.641922 -0.69393,4.036439 -0.10033,5.460369 0.63525,1.52381 1.97417,2.21183 1.85619,4.01631 -0.3281,5.01834 -2.00511,6.73284 -3.16055,11.23663 -0.51118,1.99253 -0.34897,4.11571 -0.75252,6.09215 -0.4063,1.98984 -1.01876,3.91545 -1.40469,5.91164 -0.26005,1.34506 -1.12544,2.50229 -1.20403,3.88093 -0.13941,2.44548 2.6482,6.6498 3.4114,8.7095 0.27374,0.73877 -1.07766,6.48345 -0.25084,9.1608 0.59882,1.93903 2.94703,2.9059 3.46158,4.60295 1.01546,3.34916 1.15572,6.99826 1.00335,10.42434 -0.0318,0.71466 0.47834,1.1336 0.50167,1.80508 0.18464,5.31414 -6.79793,8.36515 -6.62212,13.58324 0.044,1.3063 0.81115,2.70839 1.05352,4.0163 0.39587,2.13629 -0.45212,4.42863 0,6.54343 0.2306,1.07867 0.96699,2.00567 1.50502,2.93324 1.89907,3.27403 2.12935,7.40397 5.31776,9.92794 3.6585,2.89608 8.53508,4.80751 12.74257,6.58858 2.55602,1.08198 2.78695,1.69848 5.81946,2.16609 0.52449,0.0809 0.89121,0.656 1.45486,0.54151 0.61714,-0.12536 1.11166,-0.60321 1.70568,-0.8123 0.66189,-0.23297 1.53527,0.0403 2.20739,0 1.89195,-0.11346 3.85135,-2.21218 5.16724,-3.47477 2.1601,-2.07261 -0.51277,-1.23094 3.01008,-2.61738" />
  </g>
</svg>
