<?xml version="1.0" encoding="UTF-8" standalone="no"?>
<!-- Created with Inkscape (http://www.inkscape.org/) -->

<svg
   width="353.56799mm"
   height="264.16mm"
   viewBox="0 0 353.56799 264.16"
   version="1.1"
   id="svg5"
   inkscape:version="1.1.2 (08b2f3d93c, 2022-04-05)"
   sodipodi:docname="Enterócito.svg"
   xmlns:inkscape="http://www.inkscape.org/namespaces/inkscape"
   xmlns:sodipodi="http://sodipodi.sourceforge.net/DTD/sodipodi-0.dtd"
   xmlns="http://www.w3.org/2000/svg"
   xmlns:svg="http://www.w3.org/2000/svg">
  <sodipodi:namedview
     id="namedview7"
     pagecolor="#ffffff"
     bordercolor="#666666"
     borderopacity="1.0"
     inkscape:pageshadow="2"
     inkscape:pageopacity="0.0"
     inkscape:pagecheckerboard="0"
     inkscape:document-units="mm"
     showgrid="false"
     inkscape:zoom="0.30935922"
     inkscape:cx="103.43962"
     inkscape:cy="583.46411"
     inkscape:window-width="1366"
     inkscape:window-height="704"
     inkscape:window-x="0"
     inkscape:window-y="27"
     inkscape:window-maximized="1"
     inkscape:current-layer="layer2" />
  <defs
     id="defs2">
    <inkscape:path-effect
       effect="simplify"
       id="path-effect101"
       is_visible="true"
       lpeversion="1"
       steps="1"
       threshold="0.000408163"
       smooth_angles="360"
       helper_size="0"
       simplify_individual_paths="false"
       simplify_just_coalesce="false" />
    <inkscape:path-effect
       effect="simplify"
       id="path-effect97"
       is_visible="true"
       lpeversion="1"
       steps="1"
       threshold="0.000408163"
       smooth_angles="360"
       helper_size="0"
       simplify_individual_paths="false"
       simplify_just_coalesce="false" />
    <inkscape:path-effect
       effect="simplify"
       id="path-effect93"
       is_visible="true"
       lpeversion="1"
       steps="1"
       threshold="0.000408163"
       smooth_angles="360"
       helper_size="0"
       simplify_individual_paths="false"
       simplify_just_coalesce="false" />
    <inkscape:path-effect
       effect="simplify"
       id="path-effect89"
       is_visible="true"
       lpeversion="1"
       steps="1"
       threshold="0.000408163"
       smooth_angles="360"
       helper_size="0"
       simplify_individual_paths="false"
       simplify_just_coalesce="false" />
    <inkscape:path-effect
       effect="simplify"
       id="path-effect85"
       is_visible="true"
       lpeversion="1"
       steps="1"
       threshold="0.000408163"
       smooth_angles="360"
       helper_size="0"
       simplify_individual_paths="false"
       simplify_just_coalesce="false" />
    <inkscape:path-effect
       effect="simplify"
       id="path-effect81"
       is_visible="true"
       lpeversion="1"
       steps="1"
       threshold="0.000408163"
       smooth_angles="360"
       helper_size="0"
       simplify_individual_paths="false"
       simplify_just_coalesce="false" />
    <inkscape:path-effect
       effect="simplify"
       id="path-effect77"
       is_visible="true"
       lpeversion="1"
       steps="1"
       threshold="0.000408163"
       smooth_angles="360"
       helper_size="0"
       simplify_individual_paths="false"
       simplify_just_coalesce="false" />
    <inkscape:path-effect
       effect="simplify"
       id="path-effect73"
       is_visible="true"
       lpeversion="1"
       steps="1"
       threshold="0.000408163"
       smooth_angles="360"
       helper_size="0"
       simplify_individual_paths="false"
       simplify_just_coalesce="false" />
    <inkscape:path-effect
       effect="simplify"
       id="path-effect69"
       is_visible="true"
       lpeversion="1"
       steps="1"
       threshold="0.000408163"
       smooth_angles="360"
       helper_size="0"
       simplify_individual_paths="false"
       simplify_just_coalesce="false" />
    <inkscape:path-effect
       effect="simplify"
       id="path-effect65"
       is_visible="true"
       lpeversion="1"
       steps="1"
       threshold="0.000408163"
       smooth_angles="360"
       helper_size="0"
       simplify_individual_paths="false"
       simplify_just_coalesce="false" />
    <inkscape:path-effect
       effect="simplify"
       id="path-effect61"
       is_visible="true"
       lpeversion="1"
       steps="1"
       threshold="0.000408163"
       smooth_angles="360"
       helper_size="0"
       simplify_individual_paths="false"
       simplify_just_coalesce="false" />
    <inkscape:path-effect
       effect="simplify"
       id="path-effect57"
       is_visible="true"
       lpeversion="1"
       steps="1"
       threshold="0.000408163"
       smooth_angles="360"
       helper_size="0"
       simplify_individual_paths="false"
       simplify_just_coalesce="false" />
    <clipPath
       clipPathUnits="userSpaceOnUse"
       id="clipPath149">
      <path
         id="path151"
         style="fill:#ff0000;fill-opacity:1;fill-rule:nonzero;stroke:none;stroke-width:0.264583"
         d="m -6.4595539,82.683842 c 0,46.379428 -41.2569551,117.950658 0,139.138278 0.4057617,0.20838 0.6694321,0.73508 0.8505555,1.18213 0.2101631,0.51873 -0.010232,2.01312 0.3865779,1.62366 0.3340854,-0.3279 1.178589,0.28126 1.046927,0.0324 -0.1837366,-0.34727 -0.00989,-0.48282 -0.013915,-0.76559 -0.00445,-0.31261 -0.2234287,-0.90001 -0.030503,-0.95809 0.1981494,-0.0597 0.7677508,-0.54854 1.0920068,-0.30235 0.2384312,0.18103 0.2375841,0.0819 0.5880054,0.068 0.4619708,-0.0184 0.871364,-0.0253 1.3542088,0.13032 0.41342103,0.13325 0.47460258,0.49498 0.97046245,0.52418 0.57728537,0.034 0.7773524,0.40776 0.58929111,1.05511 -0.11641292,0.40072 -0.48554449,0.72206 -0.37019713,1.21108 0.09073168,0.38466 -0.08264037,0.89148 -0.53045133,0.7378 -0.2996449,-0.10283 -0.42484564,0.24418 -0.6770436,0.18898 -0.371235,-0.0813 -0.2342224,0.67056 -0.8534406,0.40245 -0.4487072,-0.19428 -0.1622386,0.65202 -0.1197672,0.93559 0.070839,0.47297 -0.4014264,1.43089 0.079286,1.43089 73.7655241,0 221.2965711,73.76552 221.2965711,0 0,-48.87828 48.87828,-146.634828 0,-146.634828 -75.21952,0 -150.439049,0 -225.6585739,0 z m 0.067696,140.531468 c -0.3661901,0.20755 0.3477246,0.0606 0,0 z m 0.1322917,0.12403 c -0.086794,0.19217 0.0071,0.0628 0,0 z m 2.0189981,0.47904 c 0.106218,0.16532 0.051039,0.16445 0,0 z m 2.8132651,2.71301 c 0,0 0.00103,0 0.00103,0 0,0 -0.00103,0 -0.00103,0 z"
         inkscape:original-d="M -6.4595539,82.683842 V 221.82212 c 0.017232,0.002 0.034632,0.006 0.051676,0.007 -0.00525,0.13469 0.176407,0.0904 0.227893,0.17001 0.153846,0.23773 0.305874,0.47733 0.4402834,0.72657 0.3121641,0.57886 0.3973853,1.26418 0.517281,1.90221 0.2622018,-0.13449 0.5630177,-0.11039 0.9828856,0.15865 0.026712,-0.0222 0.055689,-0.0442 0.0863,-0.0661 -0.1278506,-0.33201 -0.10977,-0.4813 0.067696,-0.55397 -0.00981,-0.022 -0.01986,-0.044 -0.029456,-0.0661 -0.019243,-0.0444 -0.036044,-0.0893 -0.053744,-0.13436 0.0097,0.0138 0.020421,0.0274 0.032039,0.0413 -0.00477,-0.0123 -0.00902,-0.0251 -0.013952,-0.0372 -0.010663,-0.0263 -0.039478,-0.047 -0.038757,-0.0754 0.00822,-0.32334 0.081476,-0.64593 0.07028,-0.96841 -0.046717,0.0211 -0.093678,0.0411 -0.1410766,0.0584 0.046055,-0.044 0.1330391,-0.19529 0.137976,-0.13177 0.00191,0.0244 0.00225,0.0489 0.0031,0.0734 0.2854942,-0.12911 0.561798,-0.30938 0.870231,-0.31109 0.1705253,-8e-4 0.3032342,0.10863 0.4103108,0.26199 0.00266,-0.002 0.00507,-0.004 0.00775,-0.006 0.08884,-0.0685 0.1791256,-0.15998 0.2909384,-0.16898 0.2413264,-0.0196 0.4049319,-0.028 0.530717,-0.0222 0.046631,-0.0271 0.09692,-0.0442 0.1519287,-0.046 0.3763971,-0.0114 0.7103587,0.25016 1.06556797,0.37518 0.0168664,0.0612 0.0324429,0.12289 0.0480591,0.18448 0.001704,0.007 0.003461,0.0134 0.005168,0.0202 0.00204,5.3e-4 0.004166,0.001 0.006201,0.002 1.58697006,0.41391 1.44995357,0.46739 0.98546955,1.44849 -0.0782157,0.14042 -0.16012957,0.27927 -0.24236247,0.41806 -0.0100210761,0.0694 -0.02812373,0.12138 -0.05684407,0.13953 -0.008593,0.0456 -0.01929384,0.0901 -0.03152262,0.13332 3.9872e-4,0.003 6.2785e-4,0.004 0.0010335,0.006 0.0084763,0.0551 0.01818418,0.10989 0.02738851,0.16485 0.08177378,0.13326 0.12554879,0.25551 0.05167643,0.29662 -0.14150759,0.0788 -0.29140463,0.13675 -0.4459676,0.18397 -0.009419,0.0503 -0.0199083,0.10047 -0.0356568,0.16589 -0.0151408,0.0629 0.0165081,0.1971 -0.0475423,0.1881 -0.1700276,-0.0241 -0.31850391,-0.0412 -0.45526936,-0.0548 -0.0504654,0.0855 -0.11171774,0.16543 -0.16381424,0.25011 -0.077129,-0.009 -0.1548777,-0.0157 -0.2330607,-0.0207 -0.3361816,0.6925 -0.2864993,0.60889 -0.8691977,0.31884 -0.015652,0.0958 -0.031348,0.19154 -0.047025,0.28732 -0.00119,0.005 -0.00244,0.01 -0.00362,0.015 0.062628,0.32305 0.1126531,0.64846 0.1550293,0.9772 0.02516,0.19518 0.054171,0.39082 0.058911,0.58756 0.00693,0.28756 0.0028,0.44813 -0.012919,0.59738 H 219.19902 V 82.683842 Z m 0.067696,140.531468 c -0.019259,8e-4 -0.043028,0.005 -0.067696,0.01 v 0.13797 c 0.059687,-0.0341 0.1149125,-0.0752 0.1648476,-0.12402 -0.020971,-0.0162 -0.051901,-0.0255 -0.097152,-0.0238 z m 0.1322917,0.12403 c -4.763e-4,1.2e-4 -0.00106,0.002 -0.00206,0.005 -0.011282,0.0309 -0.021312,0.0619 -0.030489,0.0935 0.00491,-0.008 0.00981,-0.0162 0.014986,-0.0238 0.00336,-0.005 0.00659,-0.0135 0.0093,-0.0227 0.00272,-0.009 0.0046,-0.019 0.0062,-0.0279 0.00124,-0.008 0.00159,-0.016 0.00206,-0.0238 z m 2.0189981,0.47904 c 0.00363,-0.002 0.019312,0.0223 0.047542,0.0879 0.0083,0.0193 0.016089,0.0389 0.02377,0.0584 -0.052886,-0.0752 -0.076999,-0.143 -0.071314,-0.14624 z m 2.8132651,2.71301 c 0.021985,0.0367 0.024931,0.0408 0.00103,0 -3.44e-4,-2e-5 -6.906e-4,2e-5 -0.00103,0 z" />
    </clipPath>
    <clipPath
       clipPathUnits="userSpaceOnUse"
       id="clipPath183">
      <path
         id="path185"
         style="fill:#ff0000;fill-opacity:1;fill-rule:nonzero;stroke:none;stroke-width:0.264583"
         d="M 4.6539736,-39.40707 V 184.0196 c 0.7712815,0.25831 0.6260344,0.44913 0.2532145,1.23662 -0.078216,0.14042 -0.1601295,0.27927 -0.2423625,0.41806 -0.00256,0.0178 -0.00719,0.0303 -0.010852,0.0455 v 0.48834 c 0.045871,0.0954 0.059276,0.17515 0.00258,0.2067 -8.135e-4,5.3e-4 -0.00177,5.3e-4 -0.00258,0.001 v 34.65887 c 0.1169722,0.0971 0.188761,0.30623 0.3777547,0.62838 -0.011043,0.13361 -0.00957,0.2685 -0.033073,0.40049 -0.065287,0.36662 -0.1988855,0.71369 -0.3446818,1.0547 v 1.59473 H 358.22205 v -264.1601 z" />
    </clipPath>
    <clipPath
       clipPathUnits="userSpaceOnUse"
       id="clipPath193">
      <path
         id="path195"
         style="fill:#ff0000;fill-opacity:1;fill-rule:nonzero;stroke:none;stroke-width:0.264583"
         d="m -0.52296549,260.41408 c 0.0156341,0.019 0.0233278,0.0634 0.0470256,0.0568 0.0241331,-0.007 0.0910274,-0.004 0.072347,-0.0202 -0.0128484,-0.0115 -0.021586,-0.0367 -0.0380959,-0.0367 -0.0270922,4e-5 -0.0541844,7e-5 -0.0812767,1e-4 z m 0.30489095,0 c -0.004276,0.0107 0.009137,0.005 0.0135609,0.004 0.0613265,-0.002 0.12495282,0.009 0.17720686,0.0426 0.06179201,0.04 0.10466917,0.10219 0.14129169,0.16457 0.0579384,0.0987 0.1080702,0.20164 0.16206699,0.30249 0.0327792,0.0612 0.10736569,0.11259 0.10170287,0.1818 -0.0115929,0.14169 -0.0113864,0.28464 -0.0375313,0.42494 -0.0571165,0.3065 -0.16170571,0.60174 -0.27987227,0.88948 -0.08505446,0.20711 -0.17945034,0.41022 -0.26665287,0.6164 -0.0220014,0.052 -0.0914569,0.10757 -0.0639661,0.15691 0.0375787,0.0674 0.0780848,0.2686 0.11523815,0.20092 0.005122,-0.009 0.0187141,-0.038 0.015503,-0.0279 -0.003663,0.0116 -0.0175662,0.0242 -0.0113688,0.0346 0.0150685,0.0254 0.0305076,0.10145 0.0454753,0.076 0.03779119,-0.0643 -0.002098,-0.21463 0.07160453,-0.20954 0.0083918,5.8e-4 0.0034097,0.0114 0.003441,0.0168 7.3171e-4,0.1258 0.0027166,0.25159 0.006388,0.37733 0.0022437,0.0768 0.0018696,0.15371 3.0472e-4,0.23057 -0.0012189,0.0599 -0.0077358,0.11992 -0.0031901,0.17963 0.0047205,0.062 -0.06721161,0.18604 -0.0051677,0.18604 0.62545713,0 1.8763714,0.62546 1.8763714,0 0,-1.28261 1.28261,-3.84768 0,-3.84783 -0.6874688,-8e-5 -1.37493756,-1.5e-4 -2.06240634,-2.3e-4 z m 0.10438639,2.86907 c -0.002596,0.0278 -0.004638,0.0565 -0.0219976,0.0798 0,0 -0.003324,0.006 -0.003324,0.006 0.008971,-0.0284 0.0172807,-0.0571 0.0253215,-0.0858 z m -0.18603516,0.55139 c -0.008282,0.0155 -0.015604,0.0305 -0.0181293,0.0487 -0.005517,0.0398 -0.0616619,0.11422 -0.0216617,0.11868 0.0298617,0.003 0.0356075,-0.0318 0.0362716,-0.0544 0.001112,-0.0378 -0.002687,-0.0755 0.003519,-0.11303 z"
         inkscape:original-d="m -0.52296549,260.41408 c 0.0156623,0.019 0.0306953,0.0383 0.0470256,0.0568 0.02526,-0.007 0.0494877,-0.0143 0.072347,-0.0202 -0.009157,-0.01 -0.0244017,-0.0249 -0.0356567,-0.0367 z m 0.30489095,0 c -9.414e-5,0.002 9.525e-5,0.003 0,0.005 0.29348983,-0.016 0.31597222,0.21388 0.59582927,0.69091 -0.0110435,0.13361 -0.009571,0.2685 -0.0330729,0.40049 -0.0929925,0.52225 -0.32241896,1.00548 -0.53226726,1.48673 -0.0289139,0.0663 -0.0559017,0.13326 -0.0826823,0.20051 4.4186e-4,10e-4 0.001162,0.002 0.00155,0.003 0.0373229,0.0664 0.0749164,0.13254 0.11368815,0.19792 0.004942,-0.009 0.0102364,-0.0185 0.015503,-0.0279 -0.003767,0.0119 -0.007571,0.0234 -0.0113688,0.0346 0.0150761,0.0254 0.0300355,0.0509 0.0454753,0.076 0.09755631,-0.16511 0.06703413,-0.42173 0.07906494,0.0842 0.0068595,0.28849 0.004567,0.1777 -5.1676e-4,0.51056 0.0046058,0.059 3.8047e-4,0.12201 -0.0051677,0.18604 h 1.8763714 v -3.84783 z m 0.10438639,2.86907 c -0.003881,0.0206 -0.001427,0.0433 -0.0118856,0.0615 -0.00475,0.008 -0.00895,0.0163 -0.0134359,0.0243 0.008394,-0.0266 0.0166729,-0.0549 0.0253215,-0.0858 z m -0.18603516,0.55139 c -0.005145,0.01 -0.0105603,0.0192 -0.015503,0.0289 -0.006905,0.0538 -0.0145399,0.0997 -0.024288,0.13849 8.599e-4,3e-5 0.001722,-3e-5 0.002585,0 0.0506546,0.002 0.027463,-0.0977 0.03514,-0.14779 8.4138e-4,-0.005 0.00181,-0.0128 0.002066,-0.0196 z" />
    </clipPath>
  </defs>
  <g
     inkscape:groupmode="layer"
     id="layer2"
     inkscape:label="Eritrócitos">
    <path
       style="fill:none;stroke:#000000;stroke-width:0.264583px;stroke-linecap:butt;stroke-linejoin:miter;stroke-opacity:1"
       d="m -0.6680405,207.40134 c 3.3676878,-4.95121 6.746699,-9.94678 11.0051035,-14.20545 0.97962,-0.97968 2.094072,-1.80609 3.252737,-2.56347 1.486577,-0.97173 3.019754,-1.98176 4.010626,-3.50422 0.93945,-1.44345 1.683779,-3.04509 2.993091,-4.22248 3.2671,-2.93792 6.380083,-6.12944 10.177533,-8.39046 2.455772,-1.46218 5.083904,-2.61567 7.459723,-4.22157 1.448451,-0.97906 3.377723,-1.39411 4.445994,-2.78463 0.400313,-0.52107 0.615898,-1.16494 0.855902,-1.77201 1.564903,-3.95827 3.041203,-7.95415 4.347,-12.00448 0.262908,-0.81549 0.557017,-1.62251 1.011861,-2.35722 0.57051,-0.92155 1.116256,-1.86181 1.428665,-2.91916 1.61035,-5.45025 4.424913,-10.57661 8.313263,-14.72596 1.277499,-1.36325 2.482381,-2.93966 4.174258,-3.73615 0.983441,-0.46298 2.095615,-0.56676 3.16507,-0.58507 0.555947,-0.01 1.106804,-0.0633 1.641321,-0.23072 0.455838,-0.1428 1.036839,-0.18182 1.359796,0.25216 0.331269,0.44515 0.485737,0.99495 0.937479,1.37228 1.8811,1.57126 2.824337,3.947 3.402463,6.26688 0.867566,3.48134 0.869981,7.11616 1.72411,10.59576 0.345879,1.40906 0.788293,2.95893 1.984123,3.87453 0.343793,0.26323 0.728981,0.45824 0.975368,0.84836 0.371713,0.58855 0.628098,1.29197 1.273603,1.66748 1.91035,1.1113 3.989689,1.90393 6.084245,2.58664 1.905067,0.62095 3.851576,1.14681 5.858951,1.33263 1.993524,0.18454 4.187384,0.17946 5.858764,1.37431 1.205983,0.86214 1.842731,2.2577 2.524159,3.52842 0.474832,0.88546 0.758512,2.00106 1.622652,2.5507 1.35017,0.85879 2.88872,1.38955 4.43279,1.76616 0.73076,0.17824 1.43942,0.53269 2.19152,0.54756 1.08426,0.0214 2.12523,-0.48712 3.22897,-0.24328 1.82124,0.40235 3.49988,1.28579 5.36597,1.54739 3.39875,0.47646 6.89211,-0.0636 10.06691,-1.33287 1.45031,-0.57982 2.90523,-1.19995 4.1948,-2.0819 1.59927,-1.09376 2.31698,-2.97091 3.52599,-4.41573 0.72894,-0.87112 1.74637,-1.47974 2.87158,-1.69886 1.31302,-0.2557 2.69525,-0.35142 3.87088,-1.08611 1.47471,-0.92159 2.53617,-2.45553 4.13912,-3.14525 2.87457,-1.23687 6.67055,-0.73604 8.89033,-2.93918 0.51884,-0.51495 0.86961,-1.17665 1.27619,-1.78069 0.41024,-0.60947 0.65013,-1.38006 1.23219,-1.82946 1.0044,-0.77549 2.51687,-0.68192 3.37368,-1.61409 0.85724,-0.93264 1.4105,-2.09152 2.03602,-3.18127 0.41333,-0.72008 0.88021,-1.47207 1.68483,-1.82338 1.05393,-0.46016 2.25603,-0.57746 3.17518,-1.37471 0.52065,-0.4516 0.44797,-1.19126 0.2452,-1.79195 -0.22354,-0.66221 -0.53012,-1.33963 -0.37728,-2.07021 0.29169,-1.39428 0.48129,-2.89153 1.27083,-4.07833 0.73174,-1.09991 1.67393,-2.0385 2.54035,-3.03071 0.84754,-0.97059 1.70625,-1.96091 2.19832,-3.17647 0.79699,-1.96879 1.07926,-4.15606 2.27472,-5.95682 0.55552,-0.8368 1.43479,-1.3745 2.35203,-1.74459 0.92479,-0.37314 1.87571,-0.8055 2.49404,-1.64 1.16028,-1.56592 1.82577,-3.43317 3.038,-4.97176 2.04567,-2.59643 4.76708,-4.57059 6.69765,-7.27584 1.95693,-2.74218 3.09541,-5.999455 5.08087,-8.710956 0.41594,-0.568041 1.28961,-0.645652 1.54963,-1.378329 0.22683,-0.639143 0.0671,-1.487343 0.63481,-1.943761 0.43451,-0.349337 0.99498,-0.567202 1.25754,-1.108945 0.2758,-0.569071 0.46947,-1.180012 0.92771,-1.656729 1.14906,-1.195379 2.67015,-2.01642 3.69789,-3.312762 0.71231,-0.898471 0.6138,-2.282559 1.55977,-3.012218 1.11284,-0.85837 2.58601,-1.132438 3.95288,-1.052975 0.55156,0.03207 1.23884,-0.116623 1.64469,0.264498 0.51054,0.479432 0.6834,1.200252 0.85407,1.853305 0.22332,0.854529 0.4598,1.705679 0.82302,2.514939 0.54186,1.207278 1.01312,2.585355 2.10428,3.376087 0.52909,0.383417 1.41087,0.359996 1.70571,0.947653 0.29687,0.591709 0.30829,1.281557 0.36924,1.930396 0.15405,1.639974 -0.0264,3.3216 0.3331,4.928913 0.20327,0.908854 1.23162,1.389874 1.32126,2.355784 0.0588,0.6338 0.0344,1.33939 0.53256,1.83955 0.40727,0.40891 1.18524,0.6434 1.20641,1.26505 0.0245,0.71786 -0.63191,1.1864 -1.11068,1.61127 -1.1962,1.06151 -2.75342,1.55538 -4.24698,2.02449 -1.17813,0.37004 -2.28474,0.92181 -3.34498,1.55087 -1.78578,1.05953 -3.64028,2.04037 -5.24557,3.35605 -1.02795,0.8425 -1.78048,1.95963 -2.57116,3.01426 -1.20705,1.60999 -2.28357,3.34735 -3.75209,4.73549 -1.06429,1.00604 -2.56856,1.24534 -3.94112,1.55708 -1.25346,0.28469 -2.58796,0.65986 -3.47072,1.66865 -1.51818,1.73494 -2.58558,3.79954 -3.69076,5.8066 -0.95652,1.73709 -1.9191,3.48605 -3.20186,5.01434 -1.33328,1.58848 -2.95745,2.90231 -4.3556,4.42987 -1.48573,1.62325 -2.04805,3.92002 -3.67903,5.41589 -1.80007,1.65095 -4.18917,2.37507 -6.21409,3.69029 -3.56925,2.3183 -7.08527,4.78547 -10.1032,7.77789 -0.93691,0.92899 -1.09786,2.3059 -1.30153,3.54409 -0.20864,1.2684 -0.3237,2.71249 -1.2841,3.65005 -1.30514,1.2741 -2.88162,2.22386 -4.42367,3.17853 -2.66257,1.64838 -5.44224,3.11346 -7.97556,4.96744 -3.82746,2.80108 -7.18483,6.18962 -10.99658,9.00577 -3.48894,2.57766 -7.69853,3.92033 -11.35226,6.21055 -1.13178,0.70942 -2.18524,1.59861 -3.50956,1.94939 -2.70335,0.71604 -5.51554,0.11662 -8.25907,0.53635 -3.44288,0.52672 -6.86193,1.54285 -10.38211,1.28878 -2.877855,-0.20771 -5.515069,-1.46543 -8.202879,-2.40358 -1.311974,-0.45793 -2.635775,-0.98552 -4.02689,-1.09463 -1.469182,-0.11523 -2.92122,0.22699 -4.398971,0.10274 -5.813795,-0.48882 -11.556824,-1.82861 -17.418238,-1.71894 -4.385263,0.0821 -8.789162,0.47793 -13.159658,0.0668 -2.027182,-0.19068 -3.940871,-1.20688 -6.024755,-0.94394 -0.886986,0.11192 -1.580199,0.74613 -2.220714,1.31092 -2.012218,1.77433 -3.83378,3.76043 -5.506347,5.85585 -0.59928,0.75079 -1.142416,1.55983 -1.43432,2.48444 -0.395042,1.2513 -1.440862,2.14834 -2.52397,2.80921 -2.392029,1.45952 -5.325686,1.82315 -7.558725,3.57742 -4.059428,3.18907 -7.351101,7.33954 -11.826836,9.98559 -1.779534,1.05206 -3.64311,1.97501 -5.270241,3.2722 -3.1886532,2.54207 -6.1976134,5.30618 -9.069723,8.19878 -1.52189494,1.53275 -2.89411379,3.20214 -4.3270972,4.82013 -0.870999,0.98345 -1.882046,1.8279 -2.9242279,2.64994 -0.2398287,0.18917 -1.3952839,0.15819 -1.0098349,-0.0822 0.6798272,-0.42398 1.4829434,-0.59583 2.2424716,-0.82615 0.5634568,-0.17086 1.1326257,-0.32696 1.6835903,-0.53593"
       id="path55"
       inkscape:path-effect="#path-effect57"
       inkscape:original-d="m -0.6680405,207.40134 c 3.59413,-5.28298 7.0923976,-10.71204 11.8897185,-15.02731 1.551154,-1.39529 3.51416,-2.30365 5.066927,-3.70038 1.914034,-1.72171 2.256595,-3.92522 4.163911,-5.64089 3.004225,-2.70237 6.251935,-5.91878 9.682345,-8.12287 2.239815,-1.43911 4.732049,-2.46962 6.973298,-3.88092 1.876882,-1.18187 3.545004,-2.51876 5.568608,-3.51991 0.553591,-0.27389 4.943607,-12.96634 5.518425,-14.71141 0.452681,-1.37428 1.623235,-2.54627 2.006711,-3.92606 1.969855,-7.0877 6.454961,-14.28499 12.441576,-18.77284 0.784601,-0.58817 3.089887,-0.68834 4.063561,-0.72203 0.512501,-0.0177 1.304333,-0.4212 1.806033,-0.27077 0.714735,0.21431 0.711687,1.14885 1.254201,1.57944 6.222133,4.9385 2.986911,18.60701 7.725799,21.16459 0.626856,0.33831 0.897015,1.6205 1.505038,2.03072 2.174732,1.46723 8.40002,3.64401 11.036868,3.97117 2.275864,0.28237 4.637675,0.22677 6.72247,1.30868 2.309262,1.1984 3.19455,5.57232 4.665581,6.40804 1.87854,1.06722 4.0204,1.56782 6.07028,2.12097 0.89511,0.24155 2.13936,-0.39556 3.11039,-0.27077 1.65209,0.21232 3.49385,1.2464 5.21743,1.53433 5.29403,0.88437 10.04831,-0.53774 14.5486,-3.11377 2.44623,-1.40025 2.86335,-4.51475 5.36794,-5.8665 1.32461,-0.71491 3.14973,-0.51308 4.56525,-1.17331 1.78297,-0.83162 3.52551,-2.99694 5.01677,-3.61016 2.79979,-1.1513 5.86947,-1.69428 8.67899,-2.84301 0.31133,-0.12729 2.25572,-3.41784 2.50838,-3.61015 0.91717,-0.69811 2.17497,-0.83961 3.16055,-1.44408 0.87175,-0.53466 2.25475,-3.63513 3.01006,-4.5127 1.11895,-1.30008 3.22728,-0.76474 4.31441,-2.30148 0.67471,-0.95375 -0.56129,-2.31107 -0.40134,-3.29427 0.20352,-1.25101 0.75916,-3.07302 1.2542,-4.24194 0.37983,-0.89686 3.44109,-3.87723 4.26424,-5.23473 1.39999,-2.30876 1.44392,-6.0498 3.56189,-7.89724 1.17684,-1.02652 2.87518,-1.10132 3.86292,-2.25634 1.05623,-1.23511 1.73813,-3.05832 2.65887,-4.42245 1.94044,-2.87485 4.87855,-4.82247 6.92314,-7.58134 2.13464,-2.88039 3.78033,-6.067038 5.41809,-9.160797 0.27741,-0.524034 1.03308,-0.645904 1.40471,-1.083048 0.40472,-0.476084 0.29773,-1.570244 0.65218,-2.120961 0.27185,-0.422397 0.88771,-0.568322 1.20401,-0.947669 0.42607,-0.511011 0.51583,-1.333005 0.95318,-1.805077 1.11703,-1.205706 2.55071,-2.29448 3.76257,-3.384534 0.84964,-0.764233 0.71874,-2.38769 1.75588,-3.204025 1.30762,-1.029235 3.83199,-1.231916 5.41809,-0.812276 0.72108,0.190778 1.13965,2.761668 1.45486,3.565041 0.50679,1.291592 1.39131,3.350765 2.45822,4.24194 0.32484,0.271341 1.46277,0.656285 1.70571,0.947653 0.48059,0.576389 0.52238,5.726072 0.70234,6.859309 0.10682,0.672679 0.93352,1.226339 1.20401,1.895344 0.28492,0.7047 -0.0143,1.395 0.45152,2.07585 0.333,0.48673 1.32379,0.90677 1.4047,1.48919 0.0764,0.54974 -0.53276,0.98547 -0.90303,1.39893 -1.39478,1.55748 -4.58446,2.07927 -6.42144,3.02352 -2.16707,1.11391 -4.40152,2.73055 -6.47163,4.0163 -1.5806,0.9817 -4.5251,6.10114 -6.57195,7.94236 -1.84989,1.66404 -5.36338,1.12345 -7.12381,2.93325 -2.04385,2.10116 -4.03126,6.57429 -5.71911,9.20591 -1.28611,2.00526 -3.75491,4.4607 -5.46827,6.00189 -1.37418,1.2361 -2.27095,3.806 -3.56189,5.27987 -1.48593,1.69651 -4.1793,2.55485 -6.07029,3.74553 -3.65758,2.30304 -7.14303,5.18169 -10.48502,7.98749 -1.93654,1.62584 -0.93738,5.5121 -2.75922,7.35571 -1.99133,2.01512 -7.77705,5.04229 -10.23418,6.63367 -4.48262,2.90319 -8.53829,6.85979 -12.64224,10.10845 -3.34151,2.64511 -7.82022,4.37209 -11.53856,6.40805 -1.04208,0.57058 -1.99329,1.47222 -3.11039,1.89532 -2.64514,1.00184 -5.67741,0.31514 -8.378,0.67692 -3.48024,0.46622 -6.9774,1.58722 -10.53519,1.39895 -4.502514,-0.23827 -7.593813,-2.48809 -11.990061,-3.42967 -1.57199,-0.33668 -3.045987,0.15897 -4.565235,0.0451 -5.999461,-0.4496 -11.707852,-1.87928 -17.809514,-1.75995 -4.275455,0.0836 -8.672324,0.27322 -12.943231,0.0903 -2.261621,-0.0969 -4.304512,-1.43508 -6.672294,-0.90255 -1.662137,0.37382 -7.515916,6.79577 -8.428162,8.61927 -0.466447,0.93238 -0.487611,1.62487 -1.304359,2.482 -2.549829,2.67589 -6.364708,2.65726 -9.180671,4.87369 -3.817773,3.00495 -6.804719,6.60499 -10.886363,9.38643 -1.795144,1.22331 -3.783446,2.03881 -5.518443,3.33941 -3.7485982,2.81004 -10.88355078,9.44142 -13.7459155,13.13196 -0.5770949,0.74407 -2.9827821,3.49213 -4.0635794,3.24914 -1.3178763,-0.29628 2.4551272,-1.13078 3.7124028,-1.62458"
       clip-path="url(#clipPath149)" />
    <path
       style="fill:none;stroke:#000000;stroke-width:0.264583px;stroke-linecap:butt;stroke-linejoin:miter;stroke-opacity:1"
       d="m 0.83845952,168.45487 c 0.97689958,0.12076 1.96458128,0.29794 2.85948488,0.72482 0.2486966,0.11863 0.4617521,0.30136 0.7099512,0.42094 0.2084177,0.10041 0.4443885,0.12262 0.6715493,0.14446 0.7296554,0.0701 1.4652834,0.10165 2.1965959,0.0581 0.2463437,-0.0147 0.5114272,0.001 0.7302431,-0.13246 0.3535474,-0.21606 0.7726196,-0.26771 1.164535,-0.37955 0.2107132,-0.0601 0.4485917,-0.0928 0.614408,-0.23896 0.1453501,-0.12809 0.2088778,-0.3287 0.3878101,-0.4272 0.225876,-0.12434 0.491696,-0.1866 0.671456,-0.38695 0.326091,-0.36344 0.541362,-0.81227 0.701391,-1.2692 0.162629,-0.46435 0.266557,-0.95123 0.281203,-1.44662 0.0054,-0.18221 -0.08231,-0.34874 -0.198177,-0.48535 -0.203677,-0.24015 -0.509337,-0.44616 -0.547174,-0.77654 -0.09677,-0.84498 0.198423,-1.68843 0.06317,-2.53114 -0.04137,-0.25774 -0.09924,-0.52265 -0.25798,-0.73855 -0.131729,-0.17917 -0.275064,-0.35511 -0.340573,-0.57427 -0.231021,-0.77289 -0.423704,-1.56002 -0.530312,-2.35971 -0.056925,-0.427 -0.1050187,-0.86105 -0.053086,-1.29178 0.014557,-0.12074 0.060019,-0.24045 0.1632778,-0.31498 0.276144,-0.19931 0.603981,-0.30947 0.925602,-0.4103 0.870725,-0.27299 1.761764,-0.47757 2.657875,-0.64419 0.965589,-0.17954 1.959725,-0.0378 2.925369,-0.19889 0.364147,-0.0607 0.725438,-0.18692 1.100826,-0.13595 0.398948,0.0542 0.758578,0.25819 1.161978,0.30115 0.404724,0.0431 0.830758,0.0414 1.200752,0.24011 0.391475,0.21021 0.799438,0.41651 1.111924,0.73692 0.210666,0.21601 0.359827,0.50098 0.634667,0.64659 0.418944,0.22195 0.89214,0.30288 1.346791,0.42031 0.391543,0.10113 0.855697,0.1462 1.125181,0.45475 0.10624,0.12164 0.130581,0.28755 0.238778,0.41244 0.381416,0.44025 0.749213,0.90816 1.229069,1.24323 0.272202,0.19007 0.567538,0.34432 0.858783,0.50269 0.571271,0.31063 1.134969,0.63977 1.732525,0.89704 0.408552,0.1759 0.864742,0.21249 1.255151,0.44452 1.68007,0.99852 3.508676,1.7904 5.444881,2.11919 0.826807,0.1404 1.668146,0.17168 2.505992,0.14174 0.430929,-0.0154 0.878388,-0.004 1.286303,-0.16529 0.16509,-0.0652 0.274947,-0.21083 0.413881,-0.31622 0.131372,-0.0996 0.294289,-0.15555 0.454688,-0.17604 0.30123,-0.0385 0.607465,-0.0548 0.90174,-0.13671 0.129202,-0.0359 0.159962,-0.18722 0.178786,-0.30357 0.02446,-0.15118 0.18352,-0.22002 0.304318,-0.28129 0.288743,-0.14645 0.668961,-0.1235 0.895349,-0.37084 0.227496,-0.24855 0.22404,-0.62054 0.451163,-0.87414 0.27841,-0.31086 0.665651,-0.52092 0.869377,-0.90007 0.15855,-0.29507 0.09874,-0.64309 0.03782,-0.95465 -0.04711,-0.24089 -0.05133,-0.48727 -0.02036,-0.7311 0.06836,-0.5382 0.144972,-1.07841 0.291582,-1.60022 0.07228,-0.25725 0.211344,-0.48982 0.255253,-0.75843 0.156751,-0.95891 0.193355,-1.94126 0.454658,-2.87969 0.195834,-0.70331 0.604832,-1.34255 0.685484,-2.07801 0.104945,-0.95699 0.09129,-1.91937 0.155878,-2.88034 0.04522,-0.6729 -0.07062,-1.34197 -0.148383,-2.00816 -0.05889,-0.50454 -0.123312,-1.01466 -0.06634,-1.52339 0.02179,-0.19453 0.102499,-0.37771 0.227668,-0.52838 0.128225,-0.15435 0.233215,-0.33111 0.264892,-0.53462 0.05781,-0.37139 -0.04288,-0.77499 0.125282,-1.12086 0.146456,-0.30122 0.450069,-0.4861 0.755291,-0.59749 0.315116,-0.115 0.642073,-0.2261 0.900851,-0.45081 0.420215,-0.3649 0.760843,-0.80945 1.10278,-1.24648 0.282284,-0.36079 0.442538,-0.7952 0.582202,-1.22652 0.127928,-0.39508 0.273479,-0.78519 0.477175,-1.15046 0.496448,-0.89024 0.816517,-1.88798 0.876692,-2.90718 0.04098,-0.69404 -0.02032,-1.42023 -0.336132,-2.04564 -0.19069,-0.37763 -0.516311,-0.68572 -0.618613,-1.10822 -0.07425,-0.30666 -0.126878,-0.61804 -0.194665,-0.92604"
       id="path63"
       inkscape:path-effect="#path-effect65"
       inkscape:original-d="m 0.83845952,168.45487 c 1.18740608,0.14481 2.54562898,0.40326 3.55130048,1.13392 0.3533632,0.25673 2.8747143,0.25396 3.3344265,0.18289 0.2207096,-0.0341 0.3508216,-0.15789 0.5421852,-0.23166 0.467088,-0.18006 1.0177769,-0.22182 1.4638933,-0.45113 0.1577136,-0.0811 0.2186003,-0.30653 0.365976,-0.41455 0.193993,-0.14219 0.482791,-0.19042 0.664174,-0.35359 0.600523,-0.54019 1.15427,-2.12863 1.057257,-2.91405 -0.05409,-0.43792 -0.705221,-0.68784 -0.745503,-1.21927 -0.07708,-1.01684 0.290522,-1.88598 -0.02711,-2.90186 -0.09442,-0.30199 -0.380071,-0.50158 -0.47441,-0.79252 -0.249367,-0.76907 -0.8244928,-3.12427 -0.569293,-3.88947 0.168097,-0.50403 2.871829,-1.0238 3.524192,-1.1705 0.980668,-0.22054 1.986444,-0.11286 2.982007,-0.21947 0.466817,-0.05 0.780244,-0.22565 1.274132,-0.14631 0.33611,0.054 0.650274,0.22966 1.003039,0.28043 0.394587,0.0568 0.87815,0.0299 1.24702,0.21947 0.349795,0.1798 0.816706,0.44202 1.111478,0.70717 0.303289,0.27282 0.3872,0.57475 0.813276,0.76814 0.71438,0.32425 1.694832,0.34988 2.344941,0.80472 0.08613,0.0603 0.137642,0.28898 0.203318,0.36578 0.355527,0.41575 0.9002,1.05175 1.369012,1.36558 0.229003,0.1533 2.158373,1.21549 2.602479,1.37777 0.334687,0.12231 0.759457,0.16688 1.070816,0.35359 2.398961,1.4386 5.038101,2.44112 7.875212,2.31662 0.460243,-0.0202 1.196178,0.009 1.585886,-0.24386 0.33714,-0.21902 0.127632,-0.26225 0.704839,-0.41455 0.08365,-0.0221 0.929463,-0.0677 1.016593,-0.19508 0.181303,-0.26502 -0.0585,-0.29618 0.379526,-0.52429 0.275617,-0.14353 0.621028,-0.15214 0.867498,-0.34139 0.230251,-0.17681 0.252187,-0.61365 0.433744,-0.8413 0.303406,-0.38044 0.728972,-0.54396 0.94882,-1.01199 0.185864,-0.39568 -0.02711,-0.91184 -0.02711,-1.31681 0,-0.44723 0.211516,-1.3925 0.298204,-1.85329 0.04945,-0.26284 0.213651,-0.48322 0.257534,-0.74376 0.157073,-0.93253 0.220689,-1.90695 0.433748,-2.8287 0.171439,-0.7417 0.631817,-1.43537 0.718391,-2.19468 0.106336,-0.93265 0.04521,-1.86977 0.149101,-2.80432 0.130902,-1.1775 -0.420082,-2.94434 -0.162653,-3.82851 0.08042,-0.27621 0.317085,-0.42648 0.406636,-0.68279 0.139578,-0.39949 -0.01953,-1.03554 0.216873,-1.38997 0.375568,-0.56305 1.007698,-0.50302 1.504559,-0.87787 0.431125,-0.32526 0.983003,-1.0051 1.301239,-1.46312 0.451874,-0.65036 0.528251,-1.50041 0.908161,-2.14592 0.801611,-1.36201 1.294887,-3.40241 0.637061,-4.96242 -0.157535,-0.37358 -0.531683,-0.73036 -0.637061,-1.10953 -0.07448,-0.26802 -0.201964,-0.97176 -0.216874,-1.012" />
    <path
       style="fill:none;stroke:#000000;stroke-width:0.264583px;stroke-linecap:butt;stroke-linejoin:miter;stroke-opacity:1"
       d="m 49.146996,130.84042 c 0.544341,-0.0132 1.031416,0.2669 1.489966,0.52519 0.453974,0.25571 0.957076,0.46374 1.490394,0.44429 0.425525,-0.0155 0.843579,-0.17152 1.169174,-0.44916 0.382231,-0.32593 0.696312,-0.7237 1.109079,-1.01854 0.790055,-0.56434 1.513952,-1.21388 2.305748,-1.77692 0.612378,-0.43546 1.258154,-0.8801 1.646979,-1.53901 0.151573,-0.25686 0.312302,-0.52351 0.361055,-0.82033 0.07563,-0.46044 -0.0845,-0.93606 0.07606,-1.38958 0.210796,-0.5954 0.613769,-1.109 0.752642,-1.73419 0.167475,-0.75395 0.01305,-1.54578 0.196122,-2.29337 0.08964,-0.36604 0.494334,-0.50982 0.627043,-0.85859 0.291437,-0.76592 0.280278,-1.64747 0.730871,-2.343 0.200519,-0.30952 0.461133,-0.57561 0.726034,-0.82938 0.219148,-0.20994 0.398227,-0.46159 0.65383,-0.63343 0.401563,-0.26996 0.889618,-0.36145 1.309475,-0.59314 0.236886,-0.13072 0.383428,-0.36955 0.529487,-0.58763 0.43087,-0.64334 0.748688,-1.36748 1.276845,-1.9419 0.207954,-0.22617 0.47401,-0.38394 0.710015,-0.57798 0.397885,-0.32713 0.825092,-0.62748 1.314952,-0.80672 0.293529,-0.1074 0.823459,-0.0236 0.878547,-0.33212 0.03309,-0.18532 0.205008,-0.28089 0.345985,-0.3802 0.441345,-0.3109 0.905987,-0.61375 1.426443,-0.7623 1.12984,-0.32248 2.320461,-0.40432 3.488693,-0.29073 1.223924,0.119 2.414758,0.59077 3.642926,0.55737 0.276911,-0.008 0.455907,-0.2702 0.737327,-0.28816 0.41199,-0.0263 0.853847,0.13012 1.238478,-0.0394 0.17488,-0.0771 0.330666,-0.26937 0.541124,-0.21548 0.270231,0.0692 0.513879,0.20729 0.785233,0.27932 0.918252,0.24376 1.801777,0.62439 2.59467,1.15049 0.5732,0.38033 1.140163,0.78126 1.626422,1.26698 0.366164,0.36576 0.497015,0.88306 0.679298,1.35148 0.120813,0.31046 0.261561,0.62512 0.516845,0.85584 0.218498,0.19747 0.518294,0.33895 0.637575,0.61744 0.09369,0.21874 -0.02181,0.45275 0.05034,0.68158 0.189913,0.6023 0.702555,1.04524 0.846784,1.66893 0.07159,0.30956 0.166192,0.61817 0.355269,0.88126 0.34951,0.48632 0.89979,0.82518 1.133202,1.38946 0.293304,0.70907 0.630778,1.41281 1.112087,2.01233 0.350178,0.43618 0.819454,0.74991 1.160572,1.20435 0.111634,0.14872 0.02791,0.33397 0.09128,0.50021 0.299991,0.78693 0.69776,1.53476 1.154152,2.23986 0.431605,0.66681 1.10031,1.12639 1.765962,1.53521 0.585614,0.35966 1.144828,0.75637 1.704149,1.16135 0.177001,0.12816 0.42455,0.19066 0.533225,0.38625 0.217802,0.39199 0.219154,0.85723 0.439349,1.25329 0.330236,0.59399 0.858201,1.16091 0.870088,1.84646 0.0017,0.0993 -0.180848,-0.0876 -0.111912,0.0671 0.403714,0.90612 0.987951,1.71337 1.621831,2.46617 0.108116,0.1284 0.02551,0.26079 -0.147597,0.26203 -0.228126,0.002 -0.455871,-0.0368 -0.684216,0.0144 -0.292039,0.0655 -0.555981,0.23906 -0.851925,0.27629 -0.239023,0.0301 -0.501078,-0.0987 -0.721386,0.0167 -0.182745,0.0957 0.03373,0.18404 0.154001,0.19072 0.278885,0.0155 0.559646,0.003 0.836086,0.0593 0.689008,0.13936 1.283325,0.53608 1.906159,0.84285 0.663351,0.32673 1.404211,0.49487 2.019301,0.9184 0.21828,0.1503 0.38814,0.36817 0.46344,0.62626 0.19184,0.65751 0.16032,1.3528 0.33749,2.0153 0.28452,1.06394 0.80195,2.04282 1.16582,3.07895 0.0584,0.16635 -0.0485,0.33308 0.0101,0.50162 0.16997,0.48896 0.66417,0.80791 0.76231,1.32686 0.0483,0.25552 0.0234,0.52816 0.16054,0.76478 0.32315,0.55773 0.89816,0.90571 1.21992,1.47072 0.42277,0.74238 1.07238,1.33255 1.80087,1.76975 0.76807,0.46095 1.62646,0.73665 2.44068,1.10165 0.39306,0.1762 0.77339,0.37689 1.18381,0.51901 0.76434,0.26468 1.36931,0.82417 2.07348,1.2044 0.35139,0.18974 0.68609,0.47354 1.09639,0.48998 0.0674,0.003 0.31934,0.13044 0.15452,0.12336 -0.0671,-0.003 -0.13128,-0.0294 -0.19868,-0.028"
       id="path67"
       inkscape:path-effect="#path-effect69"
       inkscape:original-d="m 49.146996,130.84042 c 1.198846,-0.0185 1.903381,1.25167 3.375089,0.91469 0.859258,-0.19675 1.141796,-0.89467 1.816314,-1.36558 0.719077,-0.50201 1.367415,-1.09697 2.073849,-1.60943 1.00362,-0.72805 1.7956,-1.19738 2.250062,-2.36539 0.190444,-0.48946 -0.05015,-1.02059 0.108442,-1.52408 0.167524,-0.53186 0.514117,-0.98176 0.691277,-1.4997 0.278127,-0.81313 0.138631,-1.71462 0.271092,-2.54828 0.06278,-0.39511 0.479944,-0.52385 0.609957,-0.84129 0.308526,-0.7533 0.357828,-1.69236 0.759055,-2.41415 0.151242,-0.27208 0.804347,-0.88967 1.043705,-1.1705 0.522605,-0.61317 1.516388,-0.67431 1.843426,-1.03638 0.634098,-0.70201 1.141135,-2.09894 1.897642,-2.63362 0.446466,-0.31555 0.811334,-0.68727 1.314794,-0.95103 0.415068,-0.21745 0.880769,-0.29657 1.287685,-0.4999 0.03539,-0.0177 0.03934,-0.13293 0.08133,-0.1707 0.414499,-0.37283 1.292812,-0.8782 1.80276,-1.01199 2.678694,-0.70278 4.441907,-0.0499 6.980607,0.29262 0.279303,0.0377 0.462048,-0.25488 0.731952,-0.28043 0.398745,-0.0378 0.889172,0.07 1.274122,-0.0366 0.107781,-0.0298 0.286123,-0.2053 0.44731,-0.23166 0.164571,-0.0269 0.570539,0.20237 0.73194,0.24386 1.816939,0.46697 2.864782,1.15096 4.323914,2.40196 0.576926,0.49463 0.638204,1.42824 1.043704,2.03618 0.19721,0.29566 0.750922,0.56327 0.867498,0.87787 0.06153,0.16603 -0.02652,0.3872 0.01355,0.56086 0.113157,0.49045 0.525664,0.92855 0.745504,1.38997 0.148952,0.31263 0.164118,0.68346 0.325305,0.9998 0.317018,0.62217 1.048538,1.04529 1.301244,1.6704 0.246298,0.60925 0.660228,1.40242 1.084361,1.96302 0.325755,0.43057 1.015476,0.8177 1.219917,1.31681 0.03311,0.0808 -0.0093,0.25544 0.02711,0.35359 0.286866,0.77413 0.689829,1.47478 1.097912,2.1703 0.791123,1.34835 2.426943,1.81732 3.510642,2.79212 0.103524,0.0931 0.489101,0.27029 0.569294,0.41456 0.208341,0.37481 0.188841,0.80305 0.393083,1.17049 0.325755,0.58605 0.725377,1.2322 0.908151,1.88987 0.07154,0.25743 -0.327369,-0.28522 0.04067,0.40236 0.408191,0.7626 1.023477,1.43518 1.477452,2.1703 0.04065,0.0658 0.0841,0.19994 0.01355,0.23166 -0.157949,0.071 -0.456285,-0.005 -0.650621,0.0122 -0.34335,0.0309 -0.927891,0.27415 -1.030145,0.30481 -0.16556,0.0496 -0.680466,-0.10561 -0.799719,0.0732 -0.106304,0.15936 0.364181,0.14631 0.555742,0.14631 0.819552,0 1.619189,0.44858 2.304274,0.84129 0.661962,0.37946 2.104032,0.67612 2.480492,1.35339 0.25063,0.45092 0.24776,1.39813 0.35242,1.90206 0.24591,1.18409 0.84854,2.25225 1.23346,3.37738 0.11464,0.33507 -0.10857,0.32286 0.0949,0.71937 0.19495,0.37993 0.5536,0.67646 0.67773,1.09734 0.0738,0.25008 0.0158,0.51558 0.13555,0.75595 0.2874,0.57671 0.90505,0.90881 1.21991,1.47531 0.89728,1.6144 2.45679,2.23287 4.1477,2.88967 0.42005,0.16316 0.79612,0.42222 1.23347,0.54867 0.74247,0.21466 1.42343,0.84502 2.11452,1.20707 0.32572,0.17065 0.63274,0.39857 0.98948,0.48771 0.009,0.002 0.36598,0.0514 0.36598,0.10974 0,0.0859 -0.17173,0.007 -0.25754,0.0122" />
    <path
       style="fill:none;stroke:#000000;stroke-width:0.264583px;stroke-linecap:butt;stroke-linejoin:miter;stroke-opacity:1"
       d="m 114.66982,152.2267 c 0.0215,0.29575 0.01,0.63262 0.20471,0.87093 0.15829,0.19344 0.42247,0.24294 0.5958,0.42317 0.35043,0.36438 0.44461,0.92015 0.84092,1.242 0.34323,0.27874 0.78838,0.38644 1.21546,0.45299 0.82735,0.12892 1.67764,0.1479 2.50341,0.0128 0.33258,-0.0544 0.75387,-0.02 0.97158,-0.28297 0.10957,-0.13234 0.21007,-0.30656 0.40283,-0.33254 0.64285,-0.0866 1.28648,-0.16763 1.92496,-0.28478 0.79677,-0.1462 1.58724,-0.33993 2.34629,-0.63029 0.19204,-0.0735 0.27997,-0.27439 0.46236,-0.36654 0.25719,-0.12994 0.55403,-0.14676 0.81889,-0.25593 0.1282,-0.0528 0.30259,-0.0758 0.36951,-0.20809 0.18479,-0.36519 0.32188,-0.77806 0.6274,-1.05895 0.24972,-0.22959 0.55775,-0.38203 0.82502,-0.58945 0.22677,-0.17599 0.47546,-0.33266 0.66467,-0.5498 0.23025,-0.26424 0.34829,-0.62248 0.65786,-0.81952 0.88313,-0.56211 1.95206,-0.71075 2.84863,-1.2496 0.58428,-0.35116 1.15039,-0.75795 1.81962,-0.94085 0.60192,-0.1645 1.25011,-0.19213 1.81409,-0.46119 0.27095,-0.12926 0.55188,-0.23894 0.84687,-0.30216 1.0037,-0.2151 2.06763,-0.0629 3.04224,-0.42654 0.40279,-0.1503 0.8023,-0.36503 1.05413,-0.72608 0.2575,-0.36918 0.56465,-0.7079 0.9429,-0.95729 0.61803,-0.40748 1.33966,-0.67928 2.08723,-0.70227 0.6473,-0.0199 1.29587,0.1477 1.93865,0.0627 0.40447,-0.0535 0.68925,-0.37159 0.97072,-0.6334 0.27783,-0.25842 0.65179,-0.35777 1.00838,-0.45519 0.3057,-0.0835 0.61897,-0.19801 0.8318,-0.45218 0.22139,-0.26439 0.42047,-0.5454 0.65858,-0.79719 0.58883,-0.62266 1.25507,-1.20513 1.63149,-1.9918 0.18198,-0.38032 0.33851,-0.78327 0.38384,-1.20268 0.0532,-0.49235 -0.19965,-0.98426 -0.0549,-1.47028 0.0871,-0.29249 0.38635,-0.42705 0.55647,-0.66388 0.33151,-0.46149 0.61869,-0.9636 0.79299,-1.50581 0.16259,-0.50579 0.0274,-1.04526 -0.16974,-1.52149 -0.24217,-0.58487 -0.57568,-1.14805 -0.63977,-1.79151 -0.12113,-1.21623 0.23938,-2.41133 0.22588,-3.62662 -0.006,-0.54024 0.0847,-1.10193 -0.10611,-1.62204 -0.14613,-0.39834 -0.36761,-0.77291 -0.41515,-1.20487 -0.15101,-1.37221 -0.11104,-2.7718 -0.47156,-4.11692 -0.25277,-0.94309 -0.577,-1.88032 -0.65583,-2.85616 -0.0225,-0.2784 -0.0838,-0.58674 0.0499,-0.84225 0.34036,-0.65015 0.89492,-1.18777 1.5753,-1.48245 0.31212,-0.13518 0.6501,-0.18372 0.9828,-0.23943 0.23086,-0.0387 0.43822,-0.15158 0.62231,-0.29531 0.62891,-0.49104 1.26153,-0.98023 1.84935,-1.51979 0.37843,-0.34736 0.51378,-0.86268 0.64042,-1.34144 0.1109,-0.41926 0.25255,-0.84262 0.54175,-1.17963 0.28881,-0.33655 0.67927,-0.56627 0.98741,-0.88142 0.17846,-0.18252 0.29524,-0.4603 0.57349,-0.51747 0.4002,-0.0822 0.86193,0.0697 1.2141,-0.17406 0.14697,-0.10171 0.29566,-0.23453 0.48772,-0.22109 0.3683,0.0258 0.83829,0.34206 1.10503,0.0855 0.12303,-0.11833 0.23043,-0.28123 0.37546,-0.39478 0.42994,-0.3366 0.93727,-0.57272 1.46482,-0.70687 0.42362,-0.10772 0.86957,0.0895 1.2865,-0.0685 0.45872,-0.17391 0.91092,-0.38648 1.30003,-0.68593 0.21604,-0.16626 0.37302,-0.39522 0.53048,-0.61412 0.30797,-0.42813 0.62842,-0.8677 0.77899,-1.37667 0.10202,-0.34486 0.0663,-0.72382 0.26854,-1.04491 0.46461,-0.73752 0.93612,-1.49305 1.61662,-2.05565 0.39365,-0.32545 0.80124,-0.65969 1.04137,-1.12238 0.21166,-0.40784 0.34578,-0.86086 0.6417,-1.22103 0.17815,-0.21683 0.36415,-0.427352 0.55792,-0.630413 0.15671,-0.164224 0.3178,-0.3522 0.53562,-0.424575 0.69704,-0.231602 1.38042,-0.501846 2.07978,-0.730387 0.0815,-0.02663 0.30528,-0.164383 0.10946,-0.186969 -0.0772,-0.0089 -0.15516,-0.0062 -0.23261,-0.0029"
       id="path71"
       inkscape:path-effect="#path-effect73"
       inkscape:original-d="m 114.66982,152.2267 c 0.059,1.32149 0.48792,0.80556 0.95071,1.47525 0.22049,0.31906 0.40172,0.81847 0.70484,1.07296 0.87774,0.73693 3.94854,0.63833 4.67633,0.17069 0.0547,-0.0352 0.16051,-0.29768 0.37954,-0.3292 0.4969,-0.0715 0.9936,-0.12122 1.491,-0.20727 0.92994,-0.16087 1.85655,-0.33337 2.73803,-0.68279 0.38191,-0.15139 0.21799,-0.29939 0.71839,-0.47551 0.0979,-0.0345 0.91345,-0.20621 0.98948,-0.36578 0.72034,-1.51191 0.58792,-0.90862 1.99253,-2.08496 0.3549,-0.29722 0.39688,-0.69918 0.77261,-0.93883 0.77656,-0.49533 1.60947,-0.64012 2.42626,-1.02419 0.6933,-0.326 1.26641,-0.84612 1.99253,-1.09734 0.54151,-0.18735 1.82185,-0.40152 2.18229,-0.58525 1.17452,-0.59871 2.62944,-0.2115 3.87661,-0.71937 0.9998,-0.40713 0.86704,-0.7313 1.50456,-1.329 0.49159,-0.46089 1.20696,-0.7907 1.74854,-0.92664 0.86153,-0.21628 1.70196,-0.002 2.57537,-0.0244 0.586,-0.0151 0.8663,-0.54563 1.3148,-0.81691 0.42663,-0.25805 0.98603,-0.26487 1.38256,-0.52428 0.2241,-0.14661 0.49426,-0.58951 0.69129,-0.80472 1.0114,-1.10476 1.82346,-1.62691 2.18228,-3.26764 0.11855,-0.54204 -0.19593,-1.11539 -0.0271,-1.62163 0.081,-0.243 0.33903,-0.37331 0.48796,-0.56086 0.32139,-0.40475 0.70766,-1.10658 0.85394,-1.58505 0.33866,-1.10773 -0.58629,-2.0548 -0.77261,-3.06037 -0.21897,-1.18181 0.21436,-2.59891 0.18976,-3.81631 -0.009,-0.44055 0.0602,-1.03519 -0.0407,-1.46312 -0.11627,-0.49306 -0.41393,-0.84327 -0.47441,-1.36559 -0.15104,-1.30433 -0.0957,-2.61492 -0.40664,-3.90165 -0.17564,-0.72676 -1.00511,-3.36318 -0.67773,-3.97482 0.43576,-0.81411 1.08752,-1.39628 2.00608,-1.62163 0.3212,-0.0788 0.66699,-0.0756 0.96238,-0.24385 0.21093,-0.12017 1.7301,-1.37338 2.04673,-1.65821 0.62685,-0.56388 0.57969,-1.5184 0.96238,-2.20687 0.24794,-0.44605 0.79325,-0.86194 1.1657,-1.15831 0.20858,-0.16597 0.30977,-0.49402 0.5964,-0.56086 0.35243,-0.0822 0.74533,0.009 1.09792,-0.10974 0.26381,-0.089 0.32999,-0.29262 0.63706,-0.29262 0.10201,0 1.10458,0.13433 1.13859,0.0732 0.27891,-0.50171 1.21267,-0.94254 1.78921,-1.08516 0.37408,-0.0925 0.71316,0.0236 1.0708,-0.0122 0.33603,-0.0336 1.4423,-0.60207 1.68077,-0.87787 0.39799,-0.46028 0.95514,-1.24893 1.15214,-1.8289 0.10972,-0.32303 0.0482,-0.71302 0.23044,-0.99981 0.40907,-0.64395 0.80844,-1.31568 1.35545,-1.85329 0.35131,-0.34527 0.77282,-0.61679 1.08437,-0.9998 0.511,-0.6282 0.44494,-1.15581 1.09792,-1.84109 0.28973,-0.304059 0.47068,-0.58842 0.85394,-0.816912 0.0743,-0.04428 3.34238,-1.002109 2.00608,-0.938837" />
    <path
       style="fill:none;stroke:#000000;stroke-width:0.264583px;stroke-linecap:butt;stroke-linejoin:miter;stroke-opacity:1"
       d="m 174.0272,98.359504 c -0.0982,-0.186704 -0.48576,-0.45649 -0.29435,-0.563825 0.14964,-0.08391 0.32547,-0.144412 0.48758,-0.217996 0.69166,-0.31396 1.40418,-0.652554 1.91948,-1.229523 0.25545,-0.286024 0.35978,-0.664202 0.4352,-1.032465 0.0808,-0.39474 0.19325,-0.811479 0.47337,-1.108625 0.28227,-0.299421 0.70992,-0.408544 0.96516,-0.746203 0.44407,-0.587471 0.61364,-1.326093 0.68012,-2.048373 0.0546,-0.593685 0.009,-1.198105 0.12188,-1.784242 0.0797,-0.41347 0.23278,-0.828574 0.15156,-1.257057 -0.1176,-0.620419 -0.39507,-1.215786 -0.37092,-1.860804 0.007,-0.196344 0.10142,-0.378854 0.25626,-0.502198 0.26837,-0.213776 0.57428,-0.41089 0.93022,-0.422858 0.56132,-0.01887 1.05553,0.28649 1.5435,0.524657 0.25641,0.125147 0.49325,0.29124 0.67627,0.513864 0.50241,0.611131 0.68217,1.462635 1.31071,1.96586 0.47067,0.376832 1.02314,0.642014 1.58995,0.838717 1.12963,0.392024 2.33963,0.536096 3.53376,0.466979 0.35342,-0.02046 0.70293,-0.08918 1.03458,-0.212379 0.38592,-0.143351 0.80087,-0.154634 1.19702,-0.255034 0.36885,-0.09348 0.66925,-0.363079 0.84477,-0.69826 0.21298,-0.406715 0.34903,-0.880944 0.72773,-1.175402 0.36891,-0.286846 0.831,-0.438089 1.15422,-0.79058 0.67399,-0.735033 1.07575,-1.681467 1.30291,-2.643537 0.11329,-0.479799 0.1454,-0.973894 0.12286,-1.466829 -0.037,-0.808102 -0.19133,-1.640704 0.0352,-2.431684 0.0673,-0.234862 0.0766,-0.639303 0.3215,-0.658151 0.15989,-0.01231 0.28977,0.115806 0.42639,0.183509 0.20667,0.102415 0.43813,0.149192 0.66413,0.18829 0.31478,0.05446 0.63338,0.116903 0.95286,0.106851 0.30854,-0.0097 0.52783,-0.255906 0.70151,-0.482794 0.1549,-0.202352 0.35485,-0.37686 0.61148,-0.442555 0.44551,-0.114047 0.9732,2.81e-4 1.34883,-0.297969 0.32431,-0.257504 0.57857,-0.592963 0.80745,-0.934796 0.32034,-0.478426 0.63656,-0.969654 0.8374,-1.509116 0.075,-0.201367 0.0469,-0.480254 0.23864,-0.604052 0.26739,-0.172664 0.52347,-0.423709 0.84128,-0.454108 0.21358,-0.02043 0.3942,0.149351 0.51266,0.308975 0.32742,0.441215 0.39544,1.026879 0.72621,1.459344 0.48527,0.634471 1.09559,1.160788 1.72328,1.647144 0.62038,0.480694 1.28051,0.942342 2.02529,1.190398 0.33416,0.111295 0.68643,0.170559 0.99541,0.355604 0.48014,0.287547 0.93786,0.627072 1.48776,0.783202 0.87388,0.248117 1.80463,0.363677 2.60571,0.807701 0.35721,0.197996 0.69738,0.432991 0.99658,0.711926 0.17872,0.166617 0.30665,0.395297 0.30314,0.644743 -0.005,0.323093 0.12433,0.630413 0.31523,0.887124 0.54156,0.72826 1.11096,1.435777 1.69492,2.130864 0.24235,0.288469 0.562,0.493805 0.86801,0.706953 1.25836,0.876487 2.52769,1.726083 3.79623,2.599831 0.27021,0.186116 0.64456,0.235624 0.85307,0.488108 0.10306,0.124795 0.32073,-0.0245 0.44243,-0.08045 0.28044,-0.128936 0.51155,-0.461279 0.81815,-0.431649 0.687,0.06639 1.36543,0.2018 2.04019,0.343158 0.75276,0.157698 1.52075,0.269179 2.24843,0.519363 0.19286,0.06631 0.35044,0.204319 0.51263,0.324195 0.50037,0.369831 0.96996,0.779336 1.46282,1.160768 0.14886,0.115206 0.14069,0.314771 0.16557,0.483539 0.0984,0.667303 0.1425,1.3612 0.44885,1.97806 0.14965,0.301331 0.43494,0.495993 0.69057,0.699403 0.74435,0.592304 1.55065,1.104795 2.28041,1.714483 0.75508,0.630843 1.4519,1.330827 2.09599,2.073326 0.44425,0.512123 0.81154,1.083355 1.22163,1.626848 0.12634,0.16744 -0.0701,0.37933 -0.006,0.55018 0.0387,0.1026 0.0319,0.30138 0.10821,0.38004 0.10546,0.10868 0.12489,0.3029 0.1411,0.45684 0.0428,0.40664 -0.18177,0.76836 -0.29072,1.14693 -0.29442,1.02301 -0.44891,2.08707 -0.81932,3.08617 -0.31475,0.84898 -0.83397,1.60375 -1.11004,2.47281 -0.14541,0.45775 -0.41473,0.88814 -0.44194,1.37323 -0.0256,0.456 0.22843,0.93419 0.0444,1.36546 -0.11564,0.27104 -0.26776,0.5256 -0.40643,0.78568 -0.37238,0.69842 -0.69692,1.43553 -0.80849,2.22751 -0.0823,0.58441 -0.14781,1.17774 -0.37061,1.73209 -0.44473,1.10651 -1.088,2.13473 -1.38703,3.29778 -0.0975,0.37922 -0.31105,0.71384 -0.51224,1.04444 -0.13351,0.21939 -0.34332,0.90186 -0.41047,0.65359 -0.0142,-0.0525 0.0793,-0.24916 -0.003,-0.0891 -0.22968,0.44701 -0.45133,0.89851 -0.62662,1.37068 -0.23912,0.6441 -0.48385,1.31041 -0.96589,1.82057 -0.64892,0.68677 -1.55755,1.01175 -2.37564,1.44238 -0.45246,0.23817 -0.94453,0.47232 -1.25135,0.88635 -0.31958,0.43125 -0.59787,0.91156 -0.71583,1.43079 -0.0405,0.17841 -0.1745,0.27153 -0.32371,0.3685 -0.49727,0.32318 -1.09908,0.53603 -1.47595,0.99436 -0.13777,0.16755 -0.16659,0.39847 -0.19042,0.60679 -0.0931,0.81401 -0.0663,1.63785 0.0102,2.45134 0.0538,0.57223 0.0722,1.15962 0.25586,1.70615 0.10914,0.32487 0.10605,0.67343 0.15595,1.01004 0.0436,0.29407 0.1211,0.58054 0.2174,0.86761 0.0397,0.11823 0.27489,0.14696 0.17855,-0.0185 -0.20344,-0.34948 -0.49588,-0.63947 -0.79554,-0.90581 -0.61834,-0.54958 -1.22477,-1.11198 -1.79898,-1.70956 -0.66293,-0.68991 -1.53235,-1.12403 -2.2683,-1.72332 -0.50599,-0.41203 -0.88785,-0.96616 -1.45165,-1.30903 -0.64727,-0.39363 -1.33325,-0.72877 -2.04841,-0.97696 -0.47149,-0.16363 -0.95979,-0.32874 -1.46576,-0.31888 -0.14927,0.003 -0.27658,0.0809 -0.40936,0.14581 -0.18154,0.0888 -0.39325,0.12187 -0.53251,0.29106 -0.29331,0.35636 -0.55465,0.76029 -0.97236,0.98994 -0.23228,0.1277 -0.45359,0.28475 -0.59956,0.51441 -0.31567,0.49667 -0.43728,1.08007 -0.69085,1.60768 -0.38891,0.80921 -0.73761,1.64284 -1.20947,2.40652 -0.14658,0.23723 -0.35999,0.45095 -0.38085,0.748 -0.0333,0.47395 0.39726,0.90046 0.25633,1.36188 -0.15616,0.5113 -0.27588,1.05338 -0.18495,1.58906 0.0765,0.45085 0.13205,0.89926 0.22736,1.3537 0.0425,0.20244 -0.23336,0.32092 -0.1986,0.49752 0.0437,0.22213 0.28149,-0.0394 0.36595,-0.12398 0.31002,-0.31035 0.60203,-0.63815 0.91022,-0.95032"
       id="path75"
       inkscape:path-effect="#path-effect77"
       inkscape:original-d="m 174.0272,98.359504 c -0.0986,-0.180613 -0.25801,-0.339566 -0.29586,-0.54184 -0.0124,-0.06599 0.11523,-0.06945 0.17621,-0.09754 0.55487,-0.255648 1.12166,-0.489693 1.62654,-0.841295 1.34054,-0.933553 0.76314,-1.502156 1.40968,-2.536079 0.25018,-0.400074 0.75269,-0.468006 1.03015,-0.829101 0.86343,-1.123699 0.69411,-2.395874 0.81328,-3.682193 0.0457,-0.493879 0.26813,-0.891053 0.18976,-1.402159 -0.0937,-0.611056 -0.53134,-1.506101 -0.33887,-2.133719 0.0652,-0.212718 0.30358,-0.356775 0.47442,-0.47552 0.78489,-0.545576 1.61085,-0.03281 2.39916,0.390165 0.91439,0.490627 1.0671,1.870175 1.9383,2.487313 1.39355,0.987156 3.65037,1.390508 5.35407,1.158304 0.38468,-0.05243 0.74226,-0.223764 1.12502,-0.292624 0.34983,-0.06294 0.69365,-0.07786 1.01659,-0.243853 0.68678,-0.35301 0.66759,-1.119905 1.13859,-1.621626 0.35121,-0.374113 0.86217,-0.47987 1.23347,-0.85349 0.83734,-0.842577 1.35331,-2.204046 1.49101,-3.365185 0.13708,-1.15597 -0.41261,-2.869449 0.35241,-3.90166 0.0714,-0.09631 0.4326,0.179723 0.51507,0.207277 0.45589,0.152316 0.9472,0.217117 1.42324,0.256048 0.6844,0.05597 0.78344,-0.685445 1.28768,-0.877874 0.50918,-0.19431 1.17559,-0.03186 1.59944,-0.426747 0.60421,-0.562919 1.16497,-1.54995 1.51812,-2.304417 0.0901,-0.192577 0.0892,-0.489543 0.24398,-0.646213 0.0542,-0.05486 0.78727,-0.491051 0.90816,-0.475515 0.65047,0.08358 0.89652,1.401138 1.2199,1.816711 0.4226,0.543055 0.99417,1.021263 1.51812,1.463122 0.60357,0.508993 1.41772,0.997657 2.12807,1.304618 0.2443,0.105567 0.63261,0.152729 0.88105,0.280432 0.50226,0.258173 0.96219,0.674608 1.51811,0.841296 0.93488,0.28031 2.20826,0.48174 2.99556,0.987608 1.68181,1.080624 0.67034,1.095195 1.35546,2.072756 0.2411,0.344003 1.63808,2.160897 1.97897,2.426348 1.42081,1.106369 3.03997,1.85928 4.39169,3.03598 0.13559,0.118033 0.86749,0.490956 0.86749,0.499901 0,0.244885 1.2175,-0.514768 1.26058,-0.512096 0.82585,0.05123 4.18695,0.777031 4.39168,0.902261 0.25182,0.154033 1.93718,1.384578 1.97897,1.585048 0.16255,0.77984 0.12897,1.838317 0.63707,2.523886 0.2328,0.314108 2.2099,1.732032 2.71091,2.109338 0.87237,0.656966 3.03024,2.8819 3.49709,3.90166 0.0391,0.0855 -0.0636,0.37789 -0.0542,0.45113 0.11187,0.87226 0.069,-0.10816 0.24398,0.80471 0.0656,0.34194 -0.15178,0.72415 -0.24398,1.03639 -0.29952,1.0143 -0.48841,2.03994 -0.79972,3.04816 -0.26571,0.86051 -0.8823,1.66457 -1.13859,2.54828 -0.12996,0.4481 -0.3763,0.90927 -0.46085,1.36558 -0.0863,0.46573 0.21584,1.14807 -0.0136,1.58505 -0.40748,0.77621 -0.88184,1.57049 -1.08437,2.43854 -0.15294,0.65551 -0.14383,1.36356 -0.37953,1.9996 -0.35426,0.95599 -0.88026,1.82676 -1.23347,2.77993 -0.40111,1.08244 -0.0601,0.57145 -0.73194,1.74355 -0.94699,1.65205 0.1017,-0.47531 -0.73195,1.19489 -0.38029,0.76191 -0.55016,1.64759 -1.07081,2.3288 -0.96785,1.26633 -2.64133,1.41347 -3.76817,2.49951 -0.38525,0.3713 -0.84681,1.71489 -0.89461,1.74355 -0.24809,0.14876 -1.65509,1.05885 -1.72143,1.15831 -0.41905,0.62824 -0.14569,4.06937 0.12199,4.79172 0.13434,0.36252 0.11038,1.92645 0.51508,1.92645 0.18781,0 -0.25771,-0.57055 -0.89461,-1.13392 -0.54508,-0.48215 -1.08356,-0.95113 -1.57233,-1.48751 -0.66107,-0.72547 -1.44993,-1.15962 -2.2365,-1.73136 -0.62928,-0.45741 -0.90427,-0.98607 -1.62656,-1.43874 -0.71461,-0.44786 -3.18766,-1.63764 -3.82239,-1.1705 -0.17301,0.12733 -0.41094,0.11298 -0.55573,0.28044 -0.23915,0.27657 -0.4376,0.59842 -0.71839,0.84129 -0.23132,0.20007 -0.58879,0.31674 -0.78617,0.56086 -0.36727,0.45425 -0.47606,1.07171 -0.7184,1.58505 -0.39611,0.83905 -0.83736,1.69237 -1.26057,2.52389 -0.11015,0.21641 -0.30719,0.39002 -0.37953,0.62183 -0.17841,0.5717 0.36774,1.09723 0.20332,1.62163 -0.50884,1.62285 0.13513,1.88352 0.0542,3.02378 -0.0106,0.14977 -0.25953,0.28964 -0.17621,0.41455 0.0976,0.14626 0.51911,-0.38778 1.26058,-1.14611" />
    <path
       style="fill:none;stroke:#000000;stroke-width:0.264583px;stroke-linecap:butt;stroke-linejoin:miter;stroke-opacity:1"
       d="m 209.31156,139.3582 c -0.5365,0.59462 -0.98772,1.27287 -1.26743,2.02896 -0.13459,0.36381 -0.19247,0.75096 -0.31518,1.11786 -0.0806,0.24109 -0.24604,0.4761 -0.1908,0.74543 0.0875,0.42683 0.45312,0.73663 0.54051,1.16009 0.0741,0.35893 -0.10248,0.73344 0.0406,1.08416 0.0787,0.19285 0.25168,0.3639 0.20845,0.59369 -0.0656,0.34895 -0.24494,0.68032 -0.22371,1.04348 0.01,0.16267 0.15999,0.25958 0.29866,0.30435 0.1237,0.0399 0.50891,0.15689 0.41911,0.10064 -0.46802,-0.29316 -0.89671,-0.65362 -1.22975,-1.10118 -0.29835,-0.40094 -0.41412,-0.89486 -0.60509,-1.34859 -0.14797,-0.35157 -0.28573,-0.74861 -0.60564,-0.97464 -0.23488,-0.16595 -0.52941,-0.21637 -0.80848,-0.24825 -0.79275,-0.0906 -1.60063,-0.0392 -2.37981,0.12516 -0.38772,0.0818 -0.76966,0.20926 -1.10092,0.43603 -0.2772,0.18976 -0.57556,0.37512 -0.92403,0.39461 -0.59726,0.0334 -1.19844,-0.23563 -1.78522,-0.0769 -0.23189,0.0627 -0.41689,0.2307 -0.59237,0.38586 -0.63217,0.55897 -1.22265,1.16632 -1.76168,1.81457 -0.24637,0.29629 -0.50515,0.59956 -0.64024,0.9636 -0.0664,0.17893 -0.15356,0.41127 -0.0374,0.57215 0.0836,0.11576 0.26473,0.20166 0.2013,0.37781 -0.0978,0.27162 -0.31593,0.47779 -0.52213,0.66998 -0.36665,0.34174 -0.80319,0.59798 -1.24589,0.82588 -0.33245,0.17114 -0.66812,0.36599 -1.05241,0.38994 -0.30936,0.0193 -0.63305,0.0244 -0.90997,0.1868 -0.49349,0.28941 -0.93405,0.66263 -1.34068,1.06252 -0.49867,0.4904 -1.00123,0.9986 -1.33038,1.62343 -0.2879,0.54652 -0.27924,1.17981 -0.45771,1.76058 -0.0942,0.30667 -0.2898,0.5645 -0.48222,0.81764 -0.19852,0.26116 -0.42498,0.49808 -0.64289,0.74314 -0.23243,0.26139 -0.48801,0.5059 -0.68706,0.79367 -0.20101,0.2906 -0.30521,0.64198 -0.56043,0.89774 -0.41928,0.42017 -0.89578,0.77549 -1.36404,1.13793 -0.56624,0.43828 -0.99872,1.0172 -1.39606,1.60643 -0.31767,0.47109 -0.65307,0.93515 -0.90148,1.44745 -0.12483,0.25744 -0.13467,0.55096 -0.15737,0.83074 -0.0634,0.7815 -0.0491,1.58513 -0.31026,2.33542 -0.14276,0.4101 -0.42959,0.77349 -0.82452,0.97033 -0.68746,0.34265 -1.47692,0.36068 -2.19518,0.60694 -0.70272,0.24093 -1.32224,0.66157 -1.95954,1.03355 -0.32725,0.19101 -0.54816,0.50551 -0.83473,0.74647 -1.05171,0.8843 -2.22032,1.63205 -3.20481,2.59171 -0.32361,0.31545 -0.60656,0.6782 -0.99394,0.92353 -0.67328,0.42639 -1.47169,0.56617 -2.19256,0.88819 -0.67081,0.29966 -1.31763,0.64853 -1.96605,0.99298 -1.10612,0.58759 -1.96241,1.53042 -3.03341,2.17385 -1.58625,0.95299 -3.3847,1.51559 -4.89885,2.5952 -0.85927,0.61267 -1.57989,1.40209 -2.19459,2.2552 -0.87361,1.21244 -1.42436,2.62097 -2.23235,3.87209 -0.18208,0.28194 -0.38791,0.55816 -0.46639,0.89294 -0.1598,0.68169 -0.13136,1.39284 -0.26846,2.07705 -0.0378,0.18865 -0.20706,0.31577 -0.36021,0.41276 -0.239,0.15137 -0.49111,0.28443 -0.6916,0.49301 -0.70881,0.73739 -1.34887,1.56648 -2.20319,2.13864 -0.32025,0.21448 -0.74279,0.31949 -0.95242,0.66387 -0.16357,0.26872 -0.191,0.59215 -0.27109,0.89008"
       id="path79"
       inkscape:path-effect="#path-effect81"
       inkscape:original-d="m 209.31156,139.3582 c -0.93139,1.04704 -1.27461,1.8018 -1.55822,3.06395 -0.0472,0.21015 -0.25339,0.51466 -0.23043,0.73155 0.0445,0.4201 0.36345,0.74286 0.51508,1.12173 0.16599,0.41475 -0.0827,0.79993 0.0813,1.21927 0.0621,0.15881 0.19803,0.29385 0.21687,0.46333 0.0322,0.28973 -0.42367,1.08583 -0.1491,1.35339 0.15379,0.14986 0.79167,0.32169 0.60995,0.20727 -0.5751,-0.36212 -0.98361,-0.70472 -1.3419,-1.29243 -0.32514,-0.53332 -0.58124,-1.93867 -1.23346,-2.20687 -0.86528,-0.35581 -2.86535,-0.19307 -3.74107,0.18289 -0.3035,0.13029 -0.58054,0.38731 -0.89461,0.52428 -0.6423,0.28013 -1.52684,-0.15376 -2.2365,0.0244 -0.4873,0.12233 -2.23297,2.04971 -2.52115,2.43854 -0.24469,0.33017 -0.5929,0.797 -0.50153,1.23146 0.0234,0.11133 0.16612,0.17693 0.21688,0.26824 0.15227,0.27393 -0.56256,0.89533 -0.74551,1.03638 -0.36721,0.28313 -1.37357,0.85673 -1.73498,0.96322 -0.33994,0.10018 -0.73408,0.0239 -1.07081,0.15851 -0.42246,0.16889 -1.12726,0.7739 -1.43679,1.07296 -0.52091,0.50328 -1.19636,1.17905 -1.47744,1.85329 -0.31267,0.74998 -0.162,1.52221 -0.7184,2.23126 -0.79067,1.00756 -0.29429,0.34379 -1.36901,1.58505 -0.33108,0.38237 -0.32184,0.70382 -0.70484,1.07296 -1.1583,1.11633 -1.57035,1.02676 -2.58892,2.51168 -0.20465,0.29835 -1.03353,1.48269 -1.11149,1.8411 -0.23813,1.09489 0.0783,3.11527 -1.04369,3.8407 -0.59369,0.38385 -1.50346,0.46669 -2.16874,0.64622 -0.71775,0.19368 -1.41508,0.64804 -2.04674,1.02418 -0.52868,0.3148 -0.4936,0.43526 -0.94882,0.81691 -1.02173,0.8566 -2.10057,1.62423 -3.104,2.4995 -0.31617,0.27578 -0.54323,0.60388 -0.88105,0.86568 -0.63779,0.49427 -1.40473,0.63205 -2.14162,0.92665 -0.70925,0.28355 -1.38867,0.68725 -2.07386,1.02418 -1.13067,0.55599 -1.92351,1.45647 -2.95489,2.10934 -1.99711,1.26417 -4.29132,1.79625 -6.03179,3.48711 -1.67185,1.62419 -2.37568,3.31076 -3.46998,5.27943 -0.15398,0.27702 -0.34766,0.48269 -0.46085,0.78033 -0.23033,0.60561 -0.28385,2.23174 -0.35242,2.36539 -0.17991,0.35062 -0.68115,0.4673 -0.94882,0.74375 -0.71824,0.74179 -1.38421,1.53559 -2.2094,2.1703 -0.31958,0.24581 -0.80444,0.36627 -1.03015,0.71936 -0.15472,0.24206 -0.19814,0.61664 -0.27109,0.89008" />
    <path
       style="fill:none;stroke:#000000;stroke-width:0.264583px;stroke-linecap:butt;stroke-linejoin:miter;stroke-opacity:1"
       d="m 151.44757,193.20477 c 0.25499,-0.2742 0.61291,-0.42436 0.86493,-0.70437 0.16719,-0.18576 -0.13434,-0.4093 -0.2969,-0.21105 -0.25208,0.30743 -0.32829,0.74326 -0.65798,0.99004 -0.50966,0.3815 -1.04973,0.72955 -1.62949,0.99375 -0.57027,0.25987 -1.21324,0.2352 -1.82572,0.22329 -0.43507,-0.008 -0.88408,-0.0773 -1.30671,0.0369 -0.29137,0.0787 -0.57257,0.19263 -0.87601,0.22836 -0.66543,0.0784 -1.33619,0.0522 -2.00482,0.0691 -1.23048,0.0311 -2.49041,-0.1448 -3.6915,0.14875 -0.49177,0.12019 -0.8385,0.52146 -1.16338,0.87968 -0.23816,0.2626 -0.52344,0.47416 -0.82897,0.65389 -1.17242,0.68968 -2.52589,1.02427 -3.66071,1.77851 -0.51094,0.33959 -0.90235,0.83883 -1.44183,1.13557 -0.30554,0.16806 -0.69422,0.22734 -0.9171,0.51617 -0.20244,0.26234 -0.21073,0.6424 -0.4632,0.86604 -0.16325,0.14461 -0.39989,0.13331 -0.59216,0.0885 -0.12562,-0.0293 -0.43435,0.0261 -0.39594,-0.15458 0.0866,-0.40772 0.26395,-0.78972 0.43002,-1.16984 0.28461,-0.65145 0.60913,-1.28429 0.92041,-1.92326 0.23327,-0.47883 0.31763,-1.04158 0.1574,-1.55756 -0.20556,-0.66195 -0.57928,-1.24801 -0.85501,-1.88314 -0.12521,-0.28841 -0.13682,-0.60509 -0.12793,-0.91337 0.006,-0.215 -0.066,-0.41834 -0.16397,-0.60709 -0.23167,-0.44634 -0.44305,-0.92351 -0.79907,-1.28059 -0.40438,-0.40558 -1.06782,-0.47681 -1.39749,-0.95635 -0.11771,-0.17122 -0.24668,-0.34046 -0.44186,-0.43506 -1.24301,-0.60244 -2.63558,-0.79762 -4.00103,-0.84894 -0.22857,-0.009 -0.45554,-0.0239 -0.67937,-0.0781 -0.20877,-0.0505 -0.38276,0.0971 -0.55316,0.19036 -0.5204,0.28483 -1.08813,0.47194 -1.67058,0.58407 -0.9738,0.18747 -2.00506,0.23164 -2.89648,0.70284 -0.42717,0.2258 -0.81714,0.55753 -1.02632,1.00475 -0.36985,0.79072 -0.64467,1.62203 -0.90282,2.45438 -0.2667,0.85992 -0.55294,1.7173 -0.73344,2.59977 -0.1796,0.87809 -0.0602,1.77725 0.0667,2.65388 0.10622,0.73367 0.19563,1.50526 -0.0543,2.22175 -0.25788,0.73928 -0.8204,1.33563 -1.45358,1.77218 -0.68966,0.47549 -1.54849,0.61114 -2.37116,0.60516 -1.26496,-0.009 -2.50869,-0.34618 -3.77433,-0.30308 -0.78367,0.0267 -1.50326,0.41762 -2.29407,0.41182 -0.72803,-0.005 -1.4509,-0.15563 -2.18263,-0.0722 -0.39841,0.0454 -0.8246,0.1968 -1.20418,0.0522 -0.29103,-0.11084 -0.51411,-0.34067 -0.749,-0.53688 -0.43565,-0.36391 -0.89009,-0.77784 -1.46592,-0.8723 -0.516885,-0.0848 -1.026785,0.0796 -1.545823,0.0794 -0.757054,-4.3e-4 -1.517715,-0.16156 -2.270366,-0.0579 -0.343879,0.0473 -0.70347,0.15048 -1.04244,0.0199 -0.683407,-0.26324 -1.17055,-0.83482 -1.698745,-1.31639 -0.209955,-0.19142 -0.402854,-0.4256 -0.667718,-0.53183 -0.348116,-0.13962 -0.731197,-0.0976 -1.087485,-0.23178 -0.889714,-0.33498 -1.810284,-0.59924 -2.750528,-0.74241 -0.428991,-0.0653 -0.866177,-0.0792 -1.298393,-0.009 -0.970187,0.15831 -1.982915,0.45541 -2.944886,0.19972 -0.512878,-0.13632 -0.828412,-0.62131 -1.311196,-0.81818 -0.221371,-0.0903 -0.459006,-0.0154 -0.684138,0.0151 -1.005892,0.13632 -2.298411,-0.12879 -2.979799,0.6298 -0.143304,0.15954 -0.285527,0.33706 -0.511384,0.39406 -1.243909,0.31393 -2.553665,0.25013 -3.801599,0.0157 -0.305057,-0.0573 -0.629156,-0.0601 -0.91409,-0.18348 -0.712104,-0.30834 -1.39125,-0.68695 -2.087948,-1.02778 -0.151553,-0.0741 -0.310427,-0.15047 -0.402814,-0.30049 -0.09413,-0.15285 -0.240619,-0.26171 -0.414324,-0.3152 -0.275261,-0.0848 -0.556732,-0.16644 -0.790533,-0.34639 -0.341695,-0.263 -0.644929,-0.58078 -1.043714,-0.76609 -0.299129,-0.139 -1.151325,-0.62779 -0.898663,-0.41598 0.131002,0.10982 0.590221,0.31096 0.419888,0.29617 -0.166021,-0.0144 -0.31617,-0.14123 -0.48239,-0.1655 -0.200336,-0.0293 -0.150991,-0.29955 -0.295625,-0.39169 -0.253753,-0.16166 -0.45196,-0.39114 -0.682768,-0.58116 -0.617094,-0.50804 -1.372565,-0.79638 -2.059311,-1.1919 -0.191898,-0.11052 -0.714156,-0.15633 -0.578189,-0.33317 0.03644,-0.0474 0.08942,-0.0274 -0.0078,-0.0378 -0.325168,-0.0348 -0.630749,-0.16198 -0.943551,-0.25122 -0.790224,-0.22545 -1.611987,-0.26804 -2.414211,-0.45256 -0.225254,-0.0518 -0.858898,0.14944 -0.687903,-0.005 0.447138,-0.40476 1.015511,-0.63459 1.551423,-0.8946 0.14879,-0.0722 0.297428,-0.14509 0.441102,-0.22713"
       id="path83"
       inkscape:path-effect="#path-effect85"
       inkscape:original-d="m 151.44757,193.20477 c 0.28006,-0.31883 1.15901,-0.67642 0.84019,-0.95649 -0.31883,-0.28006 -0.52253,0.6751 -0.84019,0.95649 -0.32124,0.28455 -1.48172,1.02978 -2.00628,1.17724 -0.85801,0.24119 -1.79208,0.0388 -2.67025,0.12192 -0.27884,0.0264 -0.49669,0.14828 -0.75905,0.20728 -0.59671,0.13419 -1.38464,0.0849 -1.99253,0.10974 -1.29598,0.053 -2.64063,-0.0501 -3.93083,0.14631 -0.70337,0.10707 -1.17076,0.97164 -1.74853,1.35339 -1.17969,0.77943 -2.59439,1.1512 -3.8224,1.87767 -0.53562,0.31686 -0.94061,0.79967 -1.45034,1.14611 -0.28548,0.19402 -0.64886,0.26194 -0.92172,0.46333 -0.41499,0.30629 -0.32657,1.10843 -0.88104,1.09734 -0.0848,-0.002 -0.58174,0.003 -0.69129,-0.0732 -0.16271,-0.11383 0.97717,-2.50832 1.21992,-2.95063 0.92727,-1.68961 -0.17663,-2.36968 -0.63707,-3.8407 -0.11025,-0.35225 -0.0371,-0.64752 -0.0949,-0.9998 -0.046,-0.28026 -0.74949,-1.4739 -0.98949,-1.68259 -0.37621,-0.32713 -0.86344,-0.44748 -1.21991,-0.76814 -0.23867,-0.21469 -0.23058,-0.41028 -0.56928,-0.57306 -1.38066,-0.6635 -2.85599,-0.80086 -4.35103,-0.86568 -0.18998,-0.008 -0.40138,-0.12583 -0.56929,-0.0366 -0.59142,0.31437 -0.96426,0.51784 -1.66722,0.6828 -1.31882,0.30947 -3.08028,0.27066 -4.02571,1.41435 -0.5402,0.65349 -1.72357,4.7372 -1.85697,5.45013 -0.48472,2.59039 1.35035,4.41278 -1.24703,6.47432 -1.74759,1.38707 -4.27719,0.39931 -6.30288,0.43894 -0.6361,0.0124 -1.21108,0.282 -1.82987,0.37797 -0.7487,0.11612 -1.51928,-0.0992 -2.26361,-0.0732 -0.5089,0.0178 -1.06031,0.16838 -1.57233,0.0975 -0.46347,-0.0641 -1.40671,-1.38371 -2.42628,-1.43875 -0.397446,-0.0215 -0.77421,0.088 -1.165692,0.0975 -0.75878,0.0184 -1.526072,-0.0996 -2.277169,-0.0731 -0.514866,0.0181 -0.836784,0.22273 -1.341903,0 -0.883372,-0.38951 -1.431557,-1.24221 -2.19584,-1.76794 -0.255852,-0.17599 -0.753195,-0.10599 -1.057257,-0.23166 -0.875374,-0.3618 -3.008915,-0.97759 -3.944384,-0.8291 -1.004282,0.15942 -2.070952,0.3868 -3.104002,0.24385 -0.57314,-0.0793 -1.106585,-0.93427 -1.640104,-0.86568 -1.062548,0.1366 -2.368884,0.3032 -3.388646,0.68279 -0.01699,0.006 -0.236731,0.31802 -0.406638,0.36579 -1.483289,0.41695 -3.245363,0.19686 -4.730549,-0.10975 -0.25092,-0.0518 -2.297102,-1.11966 -2.372053,-1.1583 -0.213328,-0.10999 -0.24502,-0.35686 -0.487963,-0.46332 -0.232902,-0.10206 -0.509323,-0.13949 -0.731949,-0.26824 -0.386654,-0.2236 -0.696312,-0.63259 -1.125032,-0.84129 -2.480402,-1.20747 0.61872,0.37932 -1.192802,-0.39017 -0.02178,-0.009 -0.105371,-0.29238 -0.17621,-0.3414 -0.237369,-0.16425 -0.353587,-0.25875 -0.555739,-0.46332 -0.504513,-0.51054 -1.513186,-0.92114 -2.087404,-1.25584 -0.215625,-0.12569 -0.87309,-0.41456 -0.623509,-0.41456 0.08223,0 -0.164568,-0.0152 -0.243985,-0.0366 -0.326869,-0.0879 -0.646428,-0.20302 -0.975929,-0.28044 -0.698998,-0.16423 -1.443511,-0.1727 -2.12807,-0.37797 -0.379998,-0.11395 -0.759667,-0.0238 -0.759056,-0.0244 0.460084,-0.4457 1.453656,-0.81264 1.992525,-1.12173" />
    <path
       style="fill:none;stroke:#000000;stroke-width:0.264583px;stroke-linecap:butt;stroke-linejoin:miter;stroke-opacity:1"
       d="m 63.450988,192.61394 c -0.382555,0.39991 -0.616764,0.93633 -1.070529,1.26548 -0.181976,0.132 -0.408094,0.26441 -0.639603,0.2079 -0.250352,-0.0611 -0.417466,-0.27434 -0.584933,-0.45366 -0.148904,-0.15944 -0.326411,-0.31716 -0.556708,-0.34122 -0.900794,-0.0941 -1.80595,0.031 -2.708501,-0.0463 -0.891655,-0.0764 -1.783505,-0.20001 -2.6815,-0.15271 -0.30335,0.016 -0.604794,0.0502 -0.906404,0.0856 -0.246228,0.0289 -0.505269,0.0457 -0.727858,0.16395 -0.109182,0.058 -0.142942,0.18514 -0.188609,0.29017 -0.187193,0.43054 -0.297611,0.91076 -0.613254,1.27035 -0.591965,0.67438 -1.337158,1.1929 -1.928478,1.86879 -0.271931,0.31082 -0.489383,0.66455 -0.672832,1.03421 -0.609575,1.22831 -1.047564,2.54575 -1.245979,3.90611 -0.136068,0.9329 -0.170288,1.89084 -0.482871,2.78943 -0.227276,0.65336 -0.638588,1.21982 -1.075083,1.75282 -0.161723,0.19748 -0.248156,0.45944 -0.465025,0.60965 -0.06471,0.0448 -0.209582,0.0999 -0.216607,-0.028 -0.0091,-0.16475 0.102334,-0.34686 0.01888,-0.49348 -0.05506,-0.0967 -0.182199,-0.11028 -0.281857,-0.11621 -0.622523,-0.037 -1.232551,0.12484 -1.833535,0.26314 -0.396578,0.0913 -0.800758,0.14184 -1.207071,0.16876 -0.615061,0.0408 -1.233468,0.01 -1.847115,0.0753 -0.522666,0.0556 -1.031258,0.23027 -1.477108,0.50722 -0.223831,0.13904 -0.456717,0.27316 -0.643866,0.45996 -0.266056,0.26556 -0.434777,0.60508 -0.667204,0.89852 -0.44876,0.56657 -0.859667,1.18682 -1.047576,1.89313 -0.151871,0.57085 -0.19661,1.16267 -0.312882,1.7407 -0.07238,0.35984 -0.137652,0.72363 -0.257348,1.07126 -0.156037,0.45317 -0.434187,0.8597 -0.558497,1.3222 -0.127354,0.47383 -0.326606,0.93159 -0.397537,1.41758 -0.01495,0.10241 -0.09567,0.13257 -0.189231,0.15394 -0.818329,0.18692 -1.668351,0.33784 -2.505908,0.21032 -0.334714,-0.051 -0.673591,-0.1268 -0.966584,-0.30577 -0.291718,-0.17819 -0.578347,-0.37902 -0.919756,-0.45574 -0.466872,-0.10491 -0.952712,-0.14137 -1.396715,-0.33561 -0.391519,-0.17128 -0.772077,-0.39363 -1.205269,-0.44609 -0.225342,-0.0273 -0.453856,-0.0596 -0.659872,-0.16753 -0.507027,-0.26562 -0.964006,-0.62933 -1.51588,-0.80823 -0.440906,-0.14293 -0.919407,-0.12693 -1.364236,-0.009 -0.756127,0.19965 -1.430364,0.61039 -2.101134,0.99809 -0.34391,0.19878 -0.702184,0.37325 -1.079642,0.5002 -0.78889,0.26533 -1.632121,0.39122 -2.365683,0.80431 -0.829182,0.46694 -1.504726,1.16578 -2.061206,1.929 -0.577688,0.79231 -1.012932,1.67839 -1.368995,2.59191 -0.170506,0.43745 -0.374265,0.87319 -0.428971,1.34283 -0.0198,0.16997 -0.03255,0.38621 0.11863,0.49883 0.172944,0.12883 0.405675,0.11842 0.607961,0.092 0.485071,-0.0634 0.944361,-0.24237 1.401688,-0.4074"
       id="path87"
       inkscape:path-effect="#path-effect89"
       inkscape:original-d="m 63.450988,192.61394 c -0.458333,0.47962 -0.758431,1.19402 -1.374997,1.43886 -0.670952,0.26645 -0.892882,-0.69368 -1.436783,-0.75594 -0.852972,-0.0977 -1.7194,0.0298 -2.575375,-0.0366 -1.2466,-0.0967 -2.150594,-0.28457 -3.429307,-0.10974 -0.152405,0.0208 -1.028919,0.0429 -1.152139,0.28044 -0.278497,0.53682 -0.354726,1.09622 -0.786167,1.56066 -0.831895,0.89552 -1.834747,1.47744 -2.426271,2.62143 -0.529275,1.0236 -0.969698,2.17593 -1.20636,3.30422 -0.434882,2.0733 -0.078,3.52238 -1.667211,5.30382 -0.207184,0.23224 -0.318317,0.63397 -0.623509,0.69498 -0.188619,0.0377 -0.005,-0.39122 -0.06777,-0.57306 -0.03717,-0.10773 -0.308787,-0.1206 -0.379531,-0.12192 -0.885177,-0.0166 -1.734328,0.34019 -2.616031,0.41455 -1.80345,0.15209 -2.611358,-0.20279 -4.147704,0.93883 -0.342998,0.25488 -0.48514,0.6158 -0.7455,0.93884 -1.501968,1.86352 -1.056447,2.37122 -1.612995,4.54788 -0.13352,0.52219 -0.434732,1.02683 -0.623515,1.53628 -0.02716,0.0733 -0.381495,1.55097 -0.474408,1.57286 -1.029814,0.24263 -2.162821,0.43242 -3.212439,0.10973 -0.440121,-0.13531 -0.741532,-0.48884 -1.206357,-0.60964 -0.402143,-0.1045 -0.824204,-0.12935 -1.219912,-0.25605 -0.43898,-0.14054 -0.739529,-0.367 -1.206359,-0.49989 -0.247537,-0.0705 -0.601909,-0.0531 -0.840383,-0.17071 -0.648015,-0.31966 -1.086051,-0.75961 -1.843421,-0.91444 -1.263969,-0.25841 -2.558308,0.70976 -3.605522,1.25584 -0.889832,0.46402 -1.861492,0.53852 -2.751582,0.93884 -1.705348,0.76699 -3.086686,2.86145 -3.700399,4.56007 -0.131451,0.36382 -0.624247,1.43256 -0.4473,1.84109 0.246501,0.56912 1.821023,-0.10426 2.100959,-0.19508" />
    <path
       style="fill:none;stroke:#000000;stroke-width:0.264583px;stroke-linecap:butt;stroke-linejoin:miter;stroke-opacity:1"
       d="m 18.172695,222.23065 c -0.834555,0.57867 -1.832111,0.97139 -2.503876,1.7367 -0.08182,0.0932 -0.03576,0.22597 -0.05122,0.33736 -0.01422,0.10239 -0.07207,0.1919 -0.122044,0.28018 -0.236486,0.41773 -0.517684,0.80832 -0.810108,1.18798 -0.467439,0.60689 -1.196583,0.97041 -1.620308,1.60714 -0.152039,0.22847 -0.249057,0.48809 -0.338682,0.7457 -0.192131,0.55225 -0.364187,1.11441 -0.464387,1.69061 -0.02486,0.14298 -0.09687,0.29419 -0.05205,0.43283 0.04692,0.14512 0.128584,0.27638 0.205693,0.40701 0.500542,0.84799 1.065549,1.6562 1.569145,2.50213 0.187847,0.31554 0.332425,0.65516 0.459133,0.99914 0.33506,0.90961 0.480199,1.88089 0.848665,2.77761 0.230177,0.56017 0.735348,0.96941 0.913568,1.55212 0.135526,0.44312 0.219619,0.89976 0.311386,1.35339 0.107612,0.53195 0.200628,1.07337 0.408217,1.57644 0.21426,0.51924 0.581116,0.9532 0.92937,1.3869 0.218282,0.27184 0.445428,0.54076 0.611788,0.84959 0.08816,0.16367 0.106524,0.35186 0.102659,0.53552 -0.0054,0.25539 -0.07404,0.50831 -0.05689,0.76331 0.02071,0.30806 0.246863,0.57049 0.234339,0.88151 -0.0084,0.20793 -0.139549,0.38579 -0.273587,0.53353 -0.323066,0.35609 -0.716455,0.63923 -1.112939,0.90708 -0.638407,0.43129 -1.325093,0.78409 -1.98079,1.18737 -1.375184,0.84579 -2.648503,1.84145 -3.945168,2.79968 -0.172396,0.1274 -0.360537,0.23481 -0.521885,0.3758 -0.199692,0.1745 -0.287361,0.43241 -0.454077,0.635 -0.223439,0.27152 -0.4594006,0.5322 -0.6880531,0.79954 -0.1924082,0.22496 -0.3837982,0.45156 -0.5585719,0.69043 -0.2918144,0.39884 -0.5073845,0.85754 -0.8724946,1.19989 -0.153636,0.14406 -0.2824182,0.32703 -0.4710688,0.42204 -0.069478,0.035 -0.1469275,0.0443 -0.2141059,0.092 -0.2838489,0.20151 -0.5412529,0.43742 -0.799158,0.67036 -1.1186239,1.01032 -1.9370491,2.32461 -3.1219548,3.258 -0.3367651,0.26528 -0.6919845,0.50609 -1.0335916,0.76502 -0.2993399,0.22689 -0.6098611,0.44478 -0.8697339,0.71713 -0.051297,0.0538 -0.1024242,0.1092 -0.1395909,0.174"
       id="path91"
       inkscape:path-effect="#path-effect93"
       inkscape:original-d="m 18.172695,222.23065 c -0.831347,0.57589 -1.718343,1.07877 -2.494041,1.72768 -0.111068,0.0929 -0.02131,0.29496 -0.08133,0.42674 -0.18496,0.40615 -0.594466,0.95811 -0.867494,1.32901 -0.466841,0.63419 -1.148212,1.03555 -1.640105,1.63382 -0.345174,0.41982 -0.887689,2.43562 -0.881048,2.88966 0.0031,0.21221 1.661664,2.68891 1.856979,3.06037 0.611284,1.16258 0.759654,2.32724 1.192803,3.54808 0.227923,0.6424 0.793064,1.08024 0.975929,1.73135 0.251522,0.89557 0.344709,1.85061 0.65062,2.73117 0.358933,1.03318 1.539587,1.93045 1.667215,2.58485 0.05766,0.29562 -0.03712,0.74754 -0.04066,1.01199 -0.0045,0.33354 0.277408,0.67366 0.230426,0.98761 -0.128455,0.85838 -2.945326,2.30833 -3.429307,2.60924 -1.501845,0.93374 -2.905662,2.08075 -4.351022,3.09694 -0.219716,0.15448 -0.293308,0.41778 -0.460857,0.62183 -0.9215046,1.12222 -0.40851,0.43125 -1.2199107,1.45093 -0.298215,0.37476 -0.5361003,0.89442 -0.8810482,1.23146 -1.0695453,1.04501 -0.053173,-0.0985 -1.5316678,1.23146 -1.1085926,0.99721 -1.9819861,2.24761 -3.1040009,3.24326 -0.2909941,0.25822 -1.8564584,1.29148 -2.0738509,1.68259" />
    <path
       style="fill:none;stroke:#000000;stroke-width:0.264583px;stroke-linecap:butt;stroke-linejoin:miter;stroke-opacity:1"
       d="m 1.6903235,261.06069 c -0.01914,-0.0625 -0.023006,-0.12814 -0.028132,-0.19289 -0.00593,-0.0749 -0.00765,-0.15076 -0.025605,-0.224 -0.0098,-0.04 -0.028937,-0.093 -0.076796,-0.097 -0.03267,-0.003 -0.079051,0.0161 -0.073097,0.0556 0.00633,0.0421 0.032294,0.0778 0.056197,0.11179 0.048866,0.0695 0.1049204,0.13441 0.1457221,0.20937 0.022169,0.0407 0.040985,0.0997 0.00171,0.13708 -0.056195,0.0534 -0.1312102,0.0825 -0.2069306,0.0944 -0.1129922,0.0178 -0.2276441,0.007 -0.3412887,0.004 -0.1022191,-0.003 -0.20767218,-0.004 -0.30523055,0.0298 -0.0785349,0.0275 -0.14765094,0.0762 -0.21074888,0.1294 -0.11574929,0.0976 -0.21703208,0.21082 -0.31372459,0.32687 -0.18780736,0.2254 -0.35515885,0.46679 -0.53705639,0.69682 -0.0620188,0.0784 -0.12314076,0.15844 -0.19609331,0.22706 -0.0443016,0.0417 -0.0931167,0.0782 -0.14168174,0.11467 -0.15416495,0.11578 -0.31142754,0.22771 -0.47443174,0.3307 -0.085464,0.054 -0.1690472,0.1136 -0.2633272,0.15047 -0.03452,0.0135 -0.082571,0.0552 -0.1095744,0.0269 -0.022736,-0.0238 -0.036538,-0.0558 -0.04964,-0.0859 -0.00613,-0.014 -0.010184,-0.0437 0.012116,-0.0419 0.043383,0.003 0.081581,0.0282 0.1178452,0.0503 0.1045145,0.0636 0.203052,0.13653 0.3003063,0.2106 0.2567585,0.19556 0.50563609,0.40117 0.75409222,0.60709 0.091674,0.076 0.1830864,0.15228 0.275045759406739,0.22792"
       id="path95"
       inkscape:path-effect="#path-effect97"
       inkscape:original-d="m 1.6903235,261.06069 c -0.055422,-0.1696 0.00334,-0.56423 -0.1662668,-0.50881 -0.169602,0.0554 0.2965662,0.38691 0.1662668,0.50881 -0.2076957,0.1943 -0.5723581,0.0409 -0.84399715,0.12521 -0.40198511,0.12471 -0.97540658,1.10815 -1.27412722,1.38996 -0.109019,0.10286 -0.93274303,0.69897 -0.98948513,0.60964 -0.3074073,-0.48395 0.97427511,0.61057 1.417285979406739,0.9745"
       clip-path="url(#clipPath193)" />
  </g>
</svg>
