<?xml version="1.0" encoding="UTF-8" standalone="no"?>
<!-- Created with Inkscape (http://www.inkscape.org/) -->

<svg
   width="353.56799mm"
   height="264.16mm"
   viewBox="0 0 353.56799 264.16"
   version="1.1"
   id="svg5"
   inkscape:version="1.1.2 (08b2f3d93c, 2022-04-05)"
   sodipodi:docname="EpitélioCilíndricoSimples.svg"
   xmlns:inkscape="http://www.inkscape.org/namespaces/inkscape"
   xmlns:sodipodi="http://sodipodi.sourceforge.net/DTD/sodipodi-0.dtd"
   xmlns="http://www.w3.org/2000/svg"
   xmlns:svg="http://www.w3.org/2000/svg">
  <sodipodi:namedview
     id="namedview7"
     pagecolor="#ffffff"
     bordercolor="#666666"
     borderopacity="1.0"
     inkscape:pageshadow="2"
     inkscape:pageopacity="0.0"
     inkscape:pagecheckerboard="0"
     inkscape:document-units="mm"
     showgrid="false"
     inkscape:zoom="0.4700973"
     inkscape:cx="610.5119"
     inkscape:cy="466.92461"
     inkscape:window-width="1366"
     inkscape:window-height="704"
     inkscape:window-x="0"
     inkscape:window-y="27"
     inkscape:window-maximized="1"
     inkscape:current-layer="layer2" />
  <defs
     id="defs2">
    <inkscape:path-effect
       effect="simplify"
       id="path-effect153"
       is_visible="true"
       lpeversion="1"
       steps="1"
       threshold="0.000408163"
       smooth_angles="360"
       helper_size="0"
       simplify_individual_paths="false"
       simplify_just_coalesce="false" />
    <inkscape:path-effect
       effect="simplify"
       id="path-effect149"
       is_visible="true"
       lpeversion="1"
       steps="1"
       threshold="0.000408163"
       smooth_angles="360"
       helper_size="0"
       simplify_individual_paths="false"
       simplify_just_coalesce="false" />
    <inkscape:path-effect
       effect="simplify"
       id="path-effect145"
       is_visible="true"
       lpeversion="1"
       steps="1"
       threshold="0.000408163"
       smooth_angles="360"
       helper_size="0"
       simplify_individual_paths="false"
       simplify_just_coalesce="false" />
    <inkscape:path-effect
       effect="simplify"
       id="path-effect141"
       is_visible="true"
       lpeversion="1"
       steps="1"
       threshold="0.000408163"
       smooth_angles="360"
       helper_size="0"
       simplify_individual_paths="false"
       simplify_just_coalesce="false" />
    <inkscape:path-effect
       effect="simplify"
       id="path-effect137"
       is_visible="true"
       lpeversion="1"
       steps="1"
       threshold="0.000408163"
       smooth_angles="360"
       helper_size="0"
       simplify_individual_paths="false"
       simplify_just_coalesce="false" />
    <inkscape:path-effect
       effect="simplify"
       id="path-effect133"
       is_visible="true"
       lpeversion="1"
       steps="1"
       threshold="0.000408163"
       smooth_angles="360"
       helper_size="0"
       simplify_individual_paths="false"
       simplify_just_coalesce="false" />
    <inkscape:path-effect
       effect="simplify"
       id="path-effect129"
       is_visible="true"
       lpeversion="1"
       steps="1"
       threshold="0.000408163"
       smooth_angles="360"
       helper_size="0"
       simplify_individual_paths="false"
       simplify_just_coalesce="false" />
    <inkscape:path-effect
       effect="simplify"
       id="path-effect125"
       is_visible="true"
       lpeversion="1"
       steps="1"
       threshold="0.000408163"
       smooth_angles="360"
       helper_size="0"
       simplify_individual_paths="false"
       simplify_just_coalesce="false" />
    <inkscape:path-effect
       effect="simplify"
       id="path-effect121"
       is_visible="true"
       lpeversion="1"
       steps="1"
       threshold="0.000408163"
       smooth_angles="360"
       helper_size="0"
       simplify_individual_paths="false"
       simplify_just_coalesce="false" />
    <inkscape:path-effect
       effect="simplify"
       id="path-effect117"
       is_visible="true"
       lpeversion="1"
       steps="1"
       threshold="0.000408163"
       smooth_angles="360"
       helper_size="0"
       simplify_individual_paths="false"
       simplify_just_coalesce="false" />
    <inkscape:path-effect
       effect="simplify"
       id="path-effect113"
       is_visible="true"
       lpeversion="1"
       steps="1"
       threshold="0.000408163"
       smooth_angles="360"
       helper_size="0"
       simplify_individual_paths="false"
       simplify_just_coalesce="false" />
    <inkscape:path-effect
       effect="simplify"
       id="path-effect109"
       is_visible="true"
       lpeversion="1"
       steps="1"
       threshold="0.000408163"
       smooth_angles="360"
       helper_size="0"
       simplify_individual_paths="false"
       simplify_just_coalesce="false" />
    <inkscape:path-effect
       effect="simplify"
       id="path-effect105"
       is_visible="true"
       lpeversion="1"
       steps="1"
       threshold="0.000408163"
       smooth_angles="360"
       helper_size="0"
       simplify_individual_paths="false"
       simplify_just_coalesce="false" />
    <inkscape:path-effect
       effect="simplify"
       id="path-effect101"
       is_visible="true"
       lpeversion="1"
       steps="1"
       threshold="0.000408163"
       smooth_angles="360"
       helper_size="0"
       simplify_individual_paths="false"
       simplify_just_coalesce="false" />
    <inkscape:path-effect
       effect="simplify"
       id="path-effect97"
       is_visible="true"
       lpeversion="1"
       steps="1"
       threshold="0.000408163"
       smooth_angles="360"
       helper_size="0"
       simplify_individual_paths="false"
       simplify_just_coalesce="false" />
    <inkscape:path-effect
       effect="simplify"
       id="path-effect93"
       is_visible="true"
       lpeversion="1"
       steps="1"
       threshold="0.000408163"
       smooth_angles="360"
       helper_size="0"
       simplify_individual_paths="false"
       simplify_just_coalesce="false" />
    <inkscape:path-effect
       effect="simplify"
       id="path-effect89"
       is_visible="true"
       lpeversion="1"
       steps="1"
       threshold="0.000408163"
       smooth_angles="360"
       helper_size="0"
       simplify_individual_paths="false"
       simplify_just_coalesce="false" />
    <inkscape:path-effect
       effect="simplify"
       id="path-effect85"
       is_visible="true"
       lpeversion="1"
       steps="1"
       threshold="0.000408163"
       smooth_angles="360"
       helper_size="0"
       simplify_individual_paths="false"
       simplify_just_coalesce="false" />
    <inkscape:path-effect
       effect="simplify"
       id="path-effect81"
       is_visible="true"
       lpeversion="1"
       steps="1"
       threshold="0.000408163"
       smooth_angles="360"
       helper_size="0"
       simplify_individual_paths="false"
       simplify_just_coalesce="false" />
    <inkscape:path-effect
       effect="simplify"
       id="path-effect77"
       is_visible="true"
       lpeversion="1"
       steps="1"
       threshold="0.000408163"
       smooth_angles="360"
       helper_size="0"
       simplify_individual_paths="false"
       simplify_just_coalesce="false" />
    <inkscape:path-effect
       effect="simplify"
       id="path-effect73"
       is_visible="true"
       lpeversion="1"
       steps="1"
       threshold="0.000408163"
       smooth_angles="360"
       helper_size="0"
       simplify_individual_paths="false"
       simplify_just_coalesce="false" />
    <inkscape:path-effect
       effect="simplify"
       id="path-effect69"
       is_visible="true"
       lpeversion="1"
       steps="1"
       threshold="0.000408163"
       smooth_angles="360"
       helper_size="0"
       simplify_individual_paths="false"
       simplify_just_coalesce="false" />
    <inkscape:path-effect
       effect="simplify"
       id="path-effect65"
       is_visible="true"
       lpeversion="1"
       steps="1"
       threshold="0.000408163"
       smooth_angles="360"
       helper_size="0"
       simplify_individual_paths="false"
       simplify_just_coalesce="false" />
    <inkscape:path-effect
       effect="simplify"
       id="path-effect61"
       is_visible="true"
       lpeversion="1"
       steps="1"
       threshold="0.000408163"
       smooth_angles="360"
       helper_size="0"
       simplify_individual_paths="false"
       simplify_just_coalesce="false" />
    <inkscape:path-effect
       effect="simplify"
       id="path-effect57"
       is_visible="true"
       lpeversion="1"
       steps="1"
       threshold="0.000408163"
       smooth_angles="360"
       helper_size="0"
       simplify_individual_paths="false"
       simplify_just_coalesce="false" />
    <clipPath
       clipPathUnits="userSpaceOnUse"
       id="clipPath241">
      <path
         id="path243"
         style="fill:#ff0000;fill-opacity:1;fill-rule:nonzero;stroke:none;stroke-width:0.264583"
         d="M 0.18780793,4.6963139 V 268.85641 H 353.75589 V 4.6963139 H 241.97511 c -0.0487,0.099999 -0.0962,0.2006157 -0.13125,0.3059245 -0.11613,0.3491024 -0.14834,0.7684203 -0.17674,1.1296467 -0.0225,0.1573135 -0.0545,0.3139115 -0.0672,0.4723227 -0.0304,0.3798969 -0.0238,0.7622983 -0.0615,1.1415325 -0.029,0.2914446 -0.0987,0.5774756 -0.13849,0.8676473 -0.10912,0.7960024 -0.18998,1.5958204 -0.308,2.3905514 -0.20954,1.411131 -0.47447,2.813605 -0.69866,4.222481 -0.0725,0.440443 -0.14694,0.88053 -0.21704,1.321367 -0.0477,0.299837 -0.0928,0.599988 -0.13798,0.900203 0.0826,0.07156 0.24197,-0.933106 0.0388,0.21394 -0.0671,0.327696 -0.0996,0.54052 -0.14573,0.67076 0.0148,0.03696 0.0301,0.07093 0.003,0.06666 -0.01,-0.0016 -0.0191,-0.0031 -0.0289,-0.0047 -0.094,0.182298 -0.35139,0.09177 -0.86868,-0.05168 -0.18559,1.639203 -0.39227,3.275425 -0.49816,4.921664 5.3e-4,0.05031 5.3e-4,0.100594 0.002,0.150895 0.0143,0.66199 0.19766,1.331383 0.0791,1.991093 -0.32454,0.0077 -0.64974,0.03375 -0.97462,0.05116 -0.038,0.169209 -0.0756,0.338525 -0.11007,0.508496 -0.0481,0.237362 -0.0869,0.476832 -0.12351,0.716235 -0.0332,0.216657 -0.0319,0.582194 -0.1266,0.81132 -0.0791,0.191215 -0.18869,0.368338 -0.28319,0.552421 -0.28831,-0.03804 -0.59529,-0.02282 -0.894,-0.03101 -0.0769,0.118435 -0.14702,0.240284 -0.20102,0.37052 -0.17203,0.414847 0.0265,1.048702 -0.34417,1.302246 -2.00636,1.372345 -2.48198,0.669395 -2.56108,-0.942578 -0.0244,-0.496579 0.56662,-0.899443 0.48782,-1.409216 0.0236,-0.1137 0.002,-0.247905 0.0708,-0.341065 0.0283,-0.03802 0.0712,0.07163 0.11834,0.07906 -0.0337,-0.171826 -0.06,-0.346854 -0.10077,-0.49506 -0.0357,-0.129537 -0.0439,-0.380808 0.0899,-0.393258 0.0444,-0.0041 0.0821,-0.0074 0.12505,-0.01137 0.10022,-0.131519 0.0825,-0.118899 0.1695,-0.434082 -0.002,-0.02289 -0.004,-0.0454 -0.006,-0.0677 -0.0662,-0.690793 -0.0293,-1.267187 0.0589,-1.952852 0.12627,-0.727525 0.36064,-1.42751 0.50177,-2.151807 1.3e-4,-6.35e-4 2.7e-4,-8.99e-4 5.3e-4,-0.0016 -0.0336,-0.201386 -0.0595,-0.396206 0.076,-0.447518 0.004,-0.0237 0.0133,-0.05238 0.0568,-0.201538 0.20595,0.04578 0.41632,0.07893 0.62787,0.109037 0.007,-0.111509 -0.0201,-0.277116 0.0729,-0.267167 0.0768,0.0082 0.15333,0.01942 0.22945,0.03152 0.10188,-0.607673 0.27511,-1.200392 0.53071,-1.778186 0.105,-0.221924 0.21054,-0.441868 0.3111,-0.663526 0.47492,-1.335547 1.0896,-2.61746 1.54719,-3.959448 0.0221,-0.03923 0.0416,-0.0699 0.0605,-0.09612 0.002,-0.02796 0.005,-0.0545 0.0258,-0.05116 0.005,8.46e-4 0.01,0.0012 0.015,0.0021 0.0121,-0.01144 0.0252,-0.0165 0.0383,-0.02274 0.20694,-1.206874 0.39896,-2.416576 0.63303,-3.618384 0.15215,-0.7812016 0.34261,-1.5546234 0.49765,-2.3352577 0.0566,-0.2847914 0.0757,-0.5762003 0.13745,-0.8598958 0.0795,-0.3646924 0.20378,-0.7184926 0.28578,-1.0826213 0.0385,-0.1711884 0.0498,-0.3477395 0.0749,-0.5214152 0.0784,-0.3318326 0.11346,-0.6796856 0.25218,-0.991154 0.0179,-0.040075 0.0401,-0.077866 0.0604,-0.1167731 z M 234.00402,26.140999 c -0.0172,0.0064 -0.0345,0.01247 -0.0517,0.0186 0.017,-0.0016 0.0349,-0.0031 0.0517,-0.0047 -1.6e-4,-0.0045 1.2e-4,-0.0094 0,-0.01395 z" />
    </clipPath>
    <clipPath
       clipPathUnits="userSpaceOnUse"
       id="clipPath251">
      <path
         id="path253"
         style="fill:#ff0000;fill-opacity:1;fill-rule:nonzero;stroke:none;stroke-width:0.264583"
         d="m 234.0963,0.18345133 c 0,5.88990727 -1.47663,23.37152667 0,17.66972167 0.0844,-0.325977 0.27474,-0.64869 0.23307,-0.982935 -0.0161,-0.12881 -0.10906,-0.322296 0.009,-0.394677 0.0814,-0.05003 0.0657,-0.150965 0.11641,-0.227796 0.0365,-0.05532 0.15361,0.0041 0.22158,0.01654 0.13748,0.02519 0.39814,0.20476 0.41405,0.06591 0.01,-0.08456 -0.0538,-0.22941 0.0322,-0.255761 0.0854,-0.02615 0.25542,0.107964 0.2701,0.02011 0.11862,-0.709723 0.35559,-1.394853 0.65858,-2.047923 0.0889,-0.19151 0.17811,-0.382478 0.25091,-0.581258 0.46458,-1.26851 0.58756,-2.756517 1.47951,-3.7719786 0.0536,-0.061045 0.1214,-0.079361 0.1364,-0.166406 0.23662,-1.3726653 0.45076,-2.7498475 0.73684,-4.1133903 0.13826,-0.6589988 0.31822,-1.3101718 0.42103,-1.9757277 0.0498,-0.3225072 0.0892,-0.6467867 0.17106,-0.9639576 0.10287,-0.3985098 0.24276,-0.7901802 0.28224,-1.2026367 0.019,-0.198611 0.0686,-0.39222954 0.10916,-0.58723884 0.0353,-0.16967216 0.31313,-0.50066633 0.13947,-0.50066448 -1.89376,2.018e-5 -3.78752,4.037e-5 -5.68128,6.055e-5 z m 7.09621,3.88916827 c -0.1197,0.9160923 -0.22245,1.8344609 -0.36674,2.7472889 -0.20775,1.314337 -0.43759,2.6249675 -0.6578,3.9372745 -0.11141,0.663931 -0.95318,2.216169 -0.3175,1.994493 0.0735,-0.02564 0.0859,-0.144149 0.10575,-0.216398 0.0132,-0.0479 0.043,-0.179245 0.0218,-0.06315 -0.066,0.361395 -0.0165,0.769467 -0.20967,1.082061 -0.0308,0.04992 0.0323,0.150163 -0.0136,0.148722 -0.0715,-0.0022 -0.10513,0.104015 -0.20517,0.103547 -0.18509,-8.66e-4 -0.35679,-0.09229 -0.53858,-0.114337 -0.0695,-0.0084 -0.15615,-0.09706 -0.1708,0.03188 -0.18322,1.612569 -0.46627,3.22093 -0.48945,4.84432 -0.009,0.664709 0.18331,1.322757 0.10358,1.987199 -0.01,0.08108 0.004,0.153442 -0.11377,0.157416 -0.29476,0.0099 -0.81768,-0.238949 -0.88333,0.04853 -0.10174,0.445533 -0.20339,0.893197 -0.24829,1.34819 -0.0271,0.274593 -0.0441,0.556849 -0.1677,0.811543 -0.0707,0.145606 -0.0669,0.449581 -0.22738,0.428739 -0.29646,-0.03851 -0.73268,-0.2817 -0.894,-0.03101 -0.12635,0.19635 -0.23568,0.409338 -0.26786,0.645403 -0.0377,0.276654 -0.006,0.566543 -0.11403,0.830808 -0.0661,0.161988 -0.22791,0.243324 -0.36671,0.331912 -0.33726,0.21526 -1.07454,0.130915 -1.07454,0.533336 0,7.595402 -7.5954,22.786207 0,22.786207 2.3654,0 7.09622,2.3654 7.0962,0 -1.5e-4,-14.791327 -3.1e-4,-29.582654 -4.6e-4,-44.3739804 z"
         inkscape:original-d="M 234.0963,0.18345133 V 17.853173 c 0.0841,-0.325312 0.16815,-0.650824 0.23255,-0.981335 1.2e-4,-6.35e-4 2.6e-4,-9e-4 5.2e-4,-0.0016 -0.0337,-0.201386 -0.0595,-0.396206 0.076,-0.447518 0.004,-0.0237 0.0133,-0.05238 0.0568,-0.201538 0.20595,0.04578 0.41632,0.07893 0.62787,0.109037 0.007,-0.111509 -0.0201,-0.277116 0.0729,-0.267167 0.0768,0.0082 0.15332,0.01942 0.22944,0.03152 0.10188,-0.607673 0.27511,-1.200392 0.53071,-1.778186 0.105,-0.221924 0.21054,-0.441868 0.3111,-0.663526 0.47493,-1.335547 1.0896,-2.61746 1.54719,-3.9594476 0.0221,-0.039235 0.0416,-0.069901 0.0605,-0.096118 0.002,-0.027965 0.005,-0.054497 0.0258,-0.05116 0.005,8.466e-4 0.01,0.00124 0.015,0.00206 0.0111,-0.010546 0.0232,-0.015076 0.0351,-0.021188 0.20708,-1.2075684 0.40193,-2.417431 0.63613,-3.6199339 0.15216,-0.7812017 0.34262,-1.5546237 0.49765,-2.3352581 0.0566,-0.2847914 0.0757,-0.5762003 0.13746,-0.8598958 0.0795,-0.3646923 0.20377,-0.7184926 0.28577,-1.0826213 0.0385,-0.1711884 0.0498,-0.3477395 0.0749,-0.5214152 0.0729,-0.30875192 0.11157,-0.63021355 0.22789,-0.92449132 z m 7.09621,3.88916827 c -0.0988,0.74466 -0.17801,1.4919629 -0.28835,2.2350058 -0.20955,1.4111303 -0.47448,2.8136051 -0.69867,4.2224806 -0.0725,0.440443 -0.14694,0.88053 -0.21704,1.321367 -0.0476,0.299838 -0.0928,0.599988 -0.13798,0.900203 0.0826,0.07156 0.24197,-0.933107 0.0388,0.213941 -0.0671,0.327695 -0.0996,0.540518 -0.14573,0.67076 0.0148,0.03696 0.0301,0.07093 0.003,0.06666 -0.01,-0.0016 -0.019,-0.003 -0.0289,-0.0047 -0.0978,0.189691 -0.30047,0.104154 -0.86868,-0.05116 -0.18558,1.639032 -0.39228,3.275079 -0.49816,4.921147 5.3e-4,0.05031 5.3e-4,0.100594 0.002,0.150895 0.0143,0.66199 0.19765,1.331383 0.0791,1.991093 -0.32454,0.0077 -0.64974,0.03375 -0.97462,0.05116 -0.038,0.169209 -0.0756,0.338525 -0.11007,0.508496 -0.0481,0.237362 -0.0869,0.476832 -0.1235,0.716235 -0.0332,0.216657 -0.0319,0.582194 -0.12661,0.81132 -0.0791,0.191215 -0.18869,0.368338 -0.28319,0.552421 -0.28831,-0.03804 -0.59529,-0.02282 -0.894,-0.03101 -0.0769,0.118436 -0.14702,0.240284 -0.20102,0.37052 -0.17202,0.414847 0.0265,1.048702 -0.34417,1.302246 -0.52455,0.358796 -0.94239,0.572767 -1.27795,0.668693 V 48.4466 h 7.0962 z" />
    </clipPath>
  </defs>
  <g
     inkscape:groupmode="layer"
     id="layer2"
     inkscape:label="epitélio cilíndrico simples"
     style="display:inline">
    <path
       style="fill:none;stroke:#000000;stroke-width:0.264583px;stroke-linecap:butt;stroke-linejoin:miter;stroke-opacity:1"
       d="m -0.56256493,163.01026 c 0.27584801,-0.47072 0.54484482,-0.98223 1.02834925,-1.26978 0.44439452,-0.26429 0.94997698,-0.41206 1.35746388,-0.74716 0.7701198,-0.63332 1.32243,-1.50065 2.1794971,-2.03849 0.4103833,-0.25753 0.7750714,-0.57633 1.0873004,-0.95165 1.2452698,-1.49688 2.4354823,-3.03558 3.5969494,-4.59955 0.4579726,-0.61668 0.7156598,-1.35092 1.2049468,-1.95431 0.9992551,-1.23229 2.3609191,-2.14891 3.2299231,-3.48371 0.697123,-1.07079 1.065243,-2.32753 1.883557,-3.32948 0.855443,-1.04741 1.917884,-1.93063 2.588967,-3.12518 0.660121,-1.17504 1.029805,-2.49264 1.672518,-3.67814 0.167127,-0.30827 -0.03438,-0.64038 0.02244,-0.95723 0.09999,-0.55757 0.09137,-1.187 0.429982,-1.64928 1.325119,-1.8091 3.148875,-3.24363 4.234017,-5.21909 0.557479,-1.01487 0.816972,-2.16302 1.446227,-3.14825 0.781548,-1.22368 1.911272,-2.29355 2.290772,-3.71167 0.261811,-0.97834 -0.04161,-2.17411 0.567396,-2.98054 0.589293,-0.78033 1.339657,-1.43618 1.799321,-2.3165 0.498449,-0.9546 0.884476,-1.98022 1.596065,-2.81265 0.449703,-0.52607 0.931361,-1.07155 1.08319,-1.77215 0.08288,-0.38244 0.242805,-0.73816 0.471789,-1.06255 0.770478,-1.09151 1.524476,-2.20534 2.013204,-3.46957 0.192004,-0.49667 0.492563,-0.93878 0.71991,-1.42104 0.532615,-1.12982 0.926516,-2.32821 1.638842,-3.37372 0.240737,-0.35334 0.535111,-0.69451 0.582739,-1.1412 0.0399,-0.37418 0.324988,-0.64596 0.541754,-0.92956 1.125861,-1.47299 2.500348,-2.809981 3.193712,-4.563955 0.275507,-0.696939 0.459353,-1.435907 0.446436,-2.193833 -0.01248,-0.732488 0.142809,-1.453752 0.268951,-2.171443 0.125942,-0.716554 0.412888,-1.39134 0.585232,-2.096587 0.131324,-0.537389 0.05614,-1.147469 0.436757,-1.607581 0.329572,-0.398402 0.910569,-0.704336 0.908454,-1.280824 -0.0036,-0.986788 0.475694,-1.882894 0.736732,-2.815144 0.06302,-0.225075 0.427281,-0.755208 0.280686,-0.71638 -0.195158,0.05169 -0.56143,0.361742 -0.322568,-0.01335 0.733038,-1.151108 0.759327,-2.559923 1.162535,-3.829946 0.309498,-0.974855 0.829025,-1.868983 1.382627,-2.722526 0.580281,-0.894676 1.257599,-1.73374 2.093531,-2.408114 0.639048,-0.515541 1.291021,-1.082604 1.586257,-1.879443 0.404352,-1.091342 0.453033,-2.294556 1.020592,-3.332865 0.375233,-0.686463 0.768774,-1.377236 0.908279,-2.165196 0.151117,-0.85355 0.163105,-1.752083 0.510668,-2.553306 0.332326,-0.766099 1.440416,-1.09606 1.531424,-1.90737 0.04563,-0.406735 0.340164,-0.695853 0.625704,-0.960781 0.404363,-0.375174 0.502225,-0.935574 0.832303,-1.371085 0.545395,-0.719605 1.232971,-1.336249 1.626207,-2.16653 0.283524,-0.598635 0.621328,-1.179184 1.106825,-1.640184 0.435338,-0.413372 0.835179,-0.868496 1.115962,-1.403532 0.262608,-0.500404 0.634609,-0.931608 1.077458,-1.284015 0.657415,-0.523153 1.320662,-1.037325 1.941792,-1.60619 1.156596,-1.059275 2.245251,-2.198781 3.509176,-3.136577 0.777347,-0.576769 1.27306,-1.434718 1.701384,-2.280556 0.308846,-0.609897 0.620064,-1.221595 1.037841,-1.766922 0.529565,-0.691246 1.047288,-1.39189 1.591598,-2.071579 1.102539,-1.376759 2.185904,-2.798403 3.533351,-3.934869 0.385865,-0.325447 0.854506,-0.525923 1.233741,-0.867844 0.718768,-0.648046 1.38179,-1.354221 2.155845,-1.944829 0.493213,-0.376324 1.061058,-0.681124 1.456971,-1.162887 0.287977,-0.350422 0.517946,-0.779883 0.973935,-0.955462 1.068036,-0.411247 2.234544,-0.270295 3.344187,-0.181313 0.654373,0.05247 1.315306,0.0052 1.947198,-0.187518 1.347078,-0.410916 2.639538,-0.974544 3.912547,-1.569842 1.369646,-0.640489 2.474467,-1.791978 3.918752,-2.25921 0.601922,-0.194724 1.238161,-0.225989 1.848392,-0.397756 1.024033,-0.288244 2.071647,-0.578184 2.98432,-1.132062 0.91317,-0.554179 1.69547,-1.371092 2.73402,-1.680211 0.17913,-0.05332 0.36952,-0.08537 0.55591,-0.05533"
       id="path55"
       inkscape:path-effect="#path-effect57"
       inkscape:original-d="m -0.56256493,163.01026 c 0.35620256,-0.57454 0.35142592,-0.6704 0.7629356,-1.06444 0.38381154,-0.36752 0.87517883,-0.45164 1.29232043,-0.71429 0.8202771,-0.51649 1.3561612,-1.4074 2.1019674,-1.98882 0.4078039,-0.31791 0.9354732,-0.58131 1.2767535,-0.98039 1.3476443,-1.57591 2.4106555,-3.22111 3.7368278,-4.76194 0.433079,-0.50318 0.6487713,-1.21955 1.0587699,-1.76473 0.9359713,-1.24458 2.1911543,-2.18096 3.1763043,-3.38938 0.797841,-0.97866 1.118224,-2.27284 1.852844,-3.30536 0.701063,-0.98535 1.651756,-1.76896 2.382229,-2.73111 0.748871,-0.98639 1.897923,-3.4803 2.242101,-4.6499 0.0803,-0.27287 -0.07402,-0.50326 -0.03114,-0.78432 0.05014,-0.3286 0.219681,-1.36785 0.451534,-1.68069 1.267611,-1.71041 2.858075,-3.10426 4.048229,-4.91601 0.619891,-0.94365 0.832029,-2.14017 1.416882,-3.10927 0.810521,-1.34304 1.834822,-2.44514 2.444512,-3.9076 0.204708,-0.49103 0.542261,-3.0076 0.607237,-3.09526 0.492847,-0.66494 1.127628,-1.19834 1.57258,-1.91878 0.569606,-0.92228 0.881489,-2.00748 1.557012,-2.88519 0.371944,-0.48326 0.931127,-1.0258 1.183331,-1.58264 0.192844,-0.42578 0.210312,-0.97065 0.482674,-1.35855 0.644014,-0.91722 1.51434,-2.04518 1.946267,-3.08126 0.150415,-0.36081 0.230034,-0.72484 0.435962,-1.06444 0.678553,-1.11902 1.021352,-2.33495 1.603727,-3.48742 0.269557,-0.53344 0.672121,-0.98938 0.980913,-1.49862 0.143656,-0.2369 0.124865,-0.6475 0.249124,-0.82633 1.514909,-2.1803 3.43118,-3.631632 4.017094,-6.442637 0.107249,-0.51454 0.01688,-1.096867 0.09342,-1.624666 0.17267,-1.190775 0.335243,-2.269302 0.762937,-3.375376 0.18044,-0.466646 0.0907,-1.023303 0.295833,-1.484609 0.255855,-0.57536 1.105482,-0.907137 1.105482,-1.582645 0,-0.942507 0.336285,-1.693487 0.638373,-2.563048 0.150474,-0.433136 0.463413,-0.989504 0.420397,-0.9804 -0.0816,0.01728 -0.413285,0.160417 -0.498248,0.196083 1.008072,-1.38736 0.857477,-3.149908 1.541443,-4.687978 0.53991,-1.214123 1.633335,-2.982019 2.584641,-3.907598 0.669029,-0.650936 1.606051,-1.196288 2.055251,-2.044834 0.476058,-0.899282 0.531704,-2.124908 0.903069,-3.095266 0.337858,-0.882803 0.959498,-1.585092 1.152193,-2.52103 0.161809,-0.785928 0.271033,-2.207022 0.591668,-2.899183 0.307688,-0.664214 1.031316,-1.195452 1.463593,-1.778727 0.123484,-0.166619 0.06327,-0.314287 0.171267,-0.476196 0.177348,-0.265872 0.455104,-0.47788 0.653947,-0.728297 0.211618,-0.266506 0.291997,-0.638529 0.482668,-0.924378 0.38686,-0.579972 0.880615,-1.052158 1.307893,-1.596652 0.46682,-0.594884 0.678278,-1.321391 1.121048,-1.918787 0.364966,-0.492422 0.861695,-0.86153 1.230047,-1.358554 0.347468,-0.468843 0.556015,-1.02663 0.980914,-1.456597 0.518125,-0.524305 1.22759,-0.979538 1.790561,-1.4706 1.126225,-0.982369 2.173075,-2.087742 3.316443,-3.067251 0.495828,-0.424769 1.067357,-0.744552 1.47916,-1.260515 0.568534,-0.712335 0.985908,-1.533698 1.385738,-2.324953 0.436604,-0.864031 1.141219,-1.651811 1.712716,-2.422989 1.178795,-1.590667 2.64623,-3.163464 4.01709,-4.593876 0.302548,-0.315691 0.74166,-0.472971 1.074347,-0.742304 0.536792,-0.434568 1.01835,-0.968506 1.525871,-1.44259 0.687465,-0.642173 1.484255,-1.095791 2.179818,-1.708698 0.270371,-0.238241 0.569046,-0.836553 0.887492,-1.008412 1.251667,-0.6755 3.103555,-0.224293 4.468635,-0.280114 1.30436,-0.05334 3.400022,-1.176138 4.686603,-1.652675 1.226589,-0.454317 2.602159,-1.66755 4.001523,-2.296939 0.554561,-0.249424 1.094847,-0.235441 1.666004,-0.378155 1.020076,-0.254884 2.212579,-0.640413 3.145165,-1.106451 0.926006,-0.46275 2.535422,-2.023601 3.518852,-1.862762" />
    <path
       style="fill:none;stroke:#000000;stroke-width:0.264583px;stroke-linecap:butt;stroke-linejoin:miter;stroke-opacity:1"
       d="m 102.20028,27.592864 c 0.31109,-0.130048 0.61085,-0.287156 0.91615,-0.430731 0.71032,-0.334048 1.41031,-0.706493 2.1637,-0.930392 0.17008,-0.05055 0.34503,-0.147602 0.52174,-0.116717 0.15654,0.02736 0.29015,0.147075 0.46453,0.106796 0.20587,-0.04755 0.35129,-0.213809 0.53841,-0.298105 0.48682,-0.21931 0.98306,-0.419028 1.48526,-0.600433 0.73187,-0.264369 1.47576,-0.533146 2.25108,-0.614921 0.81769,-0.08624 1.61561,0.226617 2.43623,0.142647 0.42529,-0.04352 0.80319,-0.260865 1.15559,-0.488967 0.48991,-0.317113 0.93312,-0.708501 1.454,-0.975499 0.25416,-0.130279 0.54026,-0.176049 0.8181,-0.226413 0.75884,-0.137551 1.52894,-0.189215 2.2964,-0.252372 0.83099,-0.06838 1.6591,0.06996 2.48381,0.164485 0.57192,0.06555 1.15167,-0.209806 1.71052,-0.05442 0.21784,0.06057 0.38701,0.219813 0.61215,0.273884 1.10298,0.2649 2.23206,0.44933 3.36942,0.451426 0.30871,5.69e-4 0.62667,-0.01795 0.91084,-0.154277 0.53666,-0.257465 0.86886,-0.813907 1.41918,-1.042839 0.10652,-0.04431 0.40323,-0.214271 0.32813,-0.137671 -0.0449,0.04583 -0.19737,0.161483 -0.0537,0.08164 0.18357,-0.101985 0.38942,-0.174598 0.54613,-0.315442 0.1612,-0.144884 0.32573,-0.324914 0.55491,-0.34112 0.41559,-0.02939 0.82801,-0.130318 1.24694,-0.09849 0.15606,0.01186 0.26806,0.130562 0.39089,0.213616 0.58171,0.393327 1.24828,0.694384 1.96055,0.733425 0.31517,0.01728 0.66363,-0.07083 0.94474,0.07778 0.12432,0.06572 0.18927,0.191631 0.33994,0.241628 0.49551,0.164419 1.01783,0.231407 1.53609,0.269025 0.34755,0.02523 0.6948,0.05898 1.04307,0.07062 0.29982,0.01002 0.60489,-0.03335 0.8761,-0.180926 0.27795,-0.151237 0.49573,-0.385652 0.68887,-0.631609 0.19249,-0.245123 0.45659,-0.421977 0.74584,-0.539974 0.1659,-0.06768 0.35098,-0.07843 0.51386,-0.150149 0.14559,-0.06411 0.23404,-0.247599 0.39829,-0.255085 0.14147,-0.0064 0.10961,0.186267 0.19143,0.248577 0.20219,0.153979 0.4272,0.279492 0.65351,0.395414 0.70845,0.362881 1.48566,0.600527 2.27647,0.66934 0.66368,0.05775 1.3368,-0.04866 1.99549,0.09355 0.26193,0.05655 0.47772,0.220046 0.71544,0.333534 0.54102,0.258289 1.1363,0.356905 1.70124,0.547568 0.8355,0.281973 1.65054,0.629817 2.51126,0.83351 0.62919,0.148901 1.27681,0.06262 1.91248,0.01952 0.87663,-0.05943 1.74533,0.116218 2.60713,0.253026 0.37171,0.05901 0.74247,0.133156 1.12057,0.140856 0.24185,0.0049 0.48243,0.03536 0.71566,0.108825 1.05321,0.33175 2.12987,0.592769 3.22169,0.76197 0.30347,0.04703 0.61199,0.05234 0.91528,0.09827 0.48489,0.07343 0.9372,0.291848 1.43476,0.311295 1.42386,0.05565 2.83976,-0.258892 4.26372,-0.124321 0.23147,0.02187 0.46149,0.048 0.69348,0.06939 0.26117,0.02408 0.53976,0.0097 0.77964,0.122555 0.17647,0.083 -0.0381,0.227129 -0.17573,0.210782 -0.2366,-0.0281 -0.45442,-0.140875 -0.69067,-0.1704"
       id="path67"
       inkscape:path-effect="#path-effect69"
       inkscape:original-d="m 102.20028,27.592864 c 0.0671,0.0036 2.71675,-1.373099 3.53673,-1.478481 0.1776,-0.02283 0.31371,0.170109 0.51381,0.112045 0.33729,-0.09787 0.35549,-0.223366 0.65395,-0.350143 1.10916,-0.471137 2.29223,-0.930602 3.50327,-1.14847 0.94378,-0.169786 1.94773,0.35529 2.94276,0.04202 0.79449,-0.250137 1.86219,-1.318187 2.49123,-1.484606 0.94468,-0.249929 1.77065,-0.256862 2.72476,-0.364148 0.8149,-0.09163 1.74408,0.01023 2.53793,0.140057 0.57249,0.09363 1.15411,-0.135483 1.72829,-0.05602 0.22988,0.03181 0.38504,0.214837 0.59166,0.266109 1.17957,0.292704 2.57111,0.523921 3.78354,0.462189 0.92263,-0.04698 1.2519,-0.811783 1.97741,-1.17648 0.94729,-0.47618 -0.45536,0.354413 0.71623,-0.294121 0.24385,-0.134986 0.35919,-0.411832 0.7318,-0.434178 0.30604,-0.01835 1.14375,-0.193728 1.35459,-0.04202 0.54605,0.392924 1.12475,0.728158 1.80614,0.854349 0.4233,0.07839 0.89455,0.01909 1.30789,0.112045 0.13535,0.03044 0.12675,0.151695 0.26469,0.210087 0.49957,0.211472 1.47311,0.304281 2.03969,0.336137 0.4126,0.0232 1.01471,0.115384 1.38575,-0.07003 0.97418,-0.486816 0.66362,-1.078849 2.02411,-1.372561 0.19105,-0.04124 0.36495,-0.357755 0.52938,-0.252102 0.10063,0.06466 0.0544,0.194251 0.14014,0.252102 0.85287,0.575382 1.73977,0.870069 2.7559,1.02242 0.76841,0.115209 1.84994,-0.137127 2.52237,0.266107 0.45134,0.270656 0.88054,0.398375 1.40131,0.532219 1.06686,0.274193 2.52637,0.990148 3.54999,1.092444 0.68731,0.06869 1.39372,-0.0814 2.07083,-0.05602 0.95755,0.03589 1.82542,0.243152 2.75591,0.378155 0.30738,0.0446 0.71724,0.0016 1.01205,0.09804 1.20511,0.394187 2.89737,0.804403 4.11052,0.882358 0.50535,0.03247 0.95752,0.297437 1.47916,0.322135 1.64945,0.0781 3.10584,-0.325807 4.76446,-0.07003 0.0918,0.01416 1.17802,0.03785 1.13662,0.224092 -0.0677,0.304289 -0.62396,-0.01185 -0.93421,-0.04202" />
    <path
       style="fill:none;stroke:#000000;stroke-width:0.264583px;stroke-linecap:butt;stroke-linejoin:miter;stroke-opacity:1"
       d="m 168.11089,26.506545 c 0.52633,0.345529 2.13251,1.33956 1.60296,0.999089 -0.52954,-0.340465 -2.23043,-1.050561 -1.60296,-0.999089 0.64858,0.0532 1.28155,0.18946 1.9051,0.439873 0.1817,0.07297 0.25413,0.249544 0.32571,0.416927 0.47346,1.107181 0.92792,2.223711 1.32502,3.360398 0.0809,0.231657 0.14876,0.468034 0.27367,0.682016 0.0969,0.166061 0.144,0.445247 0.33863,0.470687 0.17963,0.02348 0.32808,-0.142146 0.41249,-0.277383 0.0868,-0.139061 0.18603,-0.204937 0.37333,-0.143863 0.74097,0.241614 1.43758,0.590786 2.15423,0.896126 0.16053,0.0684 0.32981,0.0236 0.48823,-0.03115 0.38151,-0.131863 0.76275,-0.387755 1.17469,-0.319903 0.21268,0.03503 0.39343,0.165695 0.57537,0.273088 1.33722,0.789302 2.40923,1.939588 3.39918,3.117175 0.96782,1.151262 1.95771,2.28363 2.95202,3.412028 0.90903,1.031617 1.8031,2.076165 2.68579,3.130598 0.57723,0.689541 1.19823,1.350846 1.93459,1.876169 0.8988,0.64121 1.90595,1.175667 2.6064,2.052197 0.47581,0.595421 0.84985,1.272812 1.41255,1.798877 0.663,0.619839 1.46516,1.118267 1.9516,1.905237 0.30703,0.496721 0.17075,1.122852 0.45651,1.631569 0.33268,0.592241 0.93741,1.009257 1.16296,1.663447 0.15016,0.435522 0.13284,0.94165 0.42684,1.317606 0.4505,0.576076 1.02479,1.045186 1.41235,1.676665 0.89751,1.462367 1.87459,2.87968 2.68242,4.393352 0.259,0.485303 0.22725,1.080177 0.51365,1.548743 0.23355,0.382094 0.66834,0.597428 0.83946,1.033162 0.12368,0.314928 0.29042,0.609574 0.37467,0.943029 0.13422,0.531206 0.10064,1.081314 0.11683,1.62345 0.0183,0.613981 0.17177,1.24786 0.54105,1.733016 0.1595,0.209548 0.4608,0.0325 0.65437,0.167895 0.18583,0.129983 0.37755,0.238736 0.62282,0.246176 0.34936,0.0106 0.67754,-0.20896 1.02406,-0.144277 0.34827,0.06501 0.56395,0.390137 0.72236,0.677271 0.35445,0.64246 0.5125,1.397725 1.02632,1.948859 0.60766,0.651791 1.46566,1.047177 1.9603,1.807127 0.50963,0.782972 0.65562,1.760777 1.27418,2.481274 0.29213,0.340273 0.59053,0.678334 0.79745,1.083934 0.43976,0.861997 0.91824,1.714468 1.56768,2.442439 0.85831,0.962102 1.92834,1.694216 2.97488,2.432754 0.5414,0.382062 1.0703,0.785085 1.53947,1.255717 1.30739,1.311467 2.28149,2.912876 3.62505,4.193279 0.75737,0.721769 1.32722,1.635735 2.16541,2.273916 0.12712,0.09679 0.29535,0.05954 0.43455,0.159621 0.44642,0.32096 0.76613,0.785057 1.23927,1.077289 0.9113,0.562864 1.88586,1.011465 2.77476,1.618181 0.18082,0.123418 0.32443,0.36606 0.54462,0.369917 0.11816,0.0021 -0.0776,-0.301678 0.0668,-0.107704 0.21498,0.288701 0.51437,1.002203 0.77698,0.748882 0.0865,-0.08346 -0.23045,-0.300044 -0.15018,-0.249661 0.33208,0.208433 1.2449,0.956042 0.9604,0.68043 -0.0998,-0.09667 -0.40058,-0.375331 -0.34112,-0.337711 0.40807,0.258179 0.86305,0.432414 1.33279,0.539374 0.2511,0.05718 0.45849,0.221606 0.67196,0.35736 0.28618,0.18199 0.59812,0.315298 0.90315,0.461616 0.51959,0.249236 0.88756,0.722455 1.41527,0.961464 0.49746,0.225308 1.01208,0.447884 1.55831,0.506681 0.18907,0.02035 0.42102,0.01481 0.54456,-0.169068 0.13221,-0.196794 0.21839,-0.419149 0.33139,-0.626605"
       id="path71"
       inkscape:path-effect="#path-effect73"
       inkscape:original-d="m 168.11089,26.506545 c 0.55623,0.378553 3.31388,2.046351 0,0 0.84765,0.06893 1.45593,0.09201 2.08056,0.560226 0.11992,0.08989 1.51201,3.677197 1.57258,3.949613 0.0295,0.132692 0.39834,0.868356 0.54495,0.868356 0.22021,0 0.50964,-0.483826 0.56053,-0.476196 0.60374,0.09052 2.24854,1.04367 2.60021,0.980401 0.40939,-0.07365 1.15476,-0.558904 1.58815,-0.336136 1.93416,0.994178 3.28041,2.73938 4.68661,4.383789 1.30239,1.523001 2.64135,2.997126 3.93924,4.523848 0.68385,0.804413 1.42464,1.781227 2.22653,2.451006 0.97105,0.811072 2.17989,1.352626 3.02061,2.324948 0.45581,0.527155 0.77588,1.145647 1.2456,1.652675 0.69344,0.748508 1.65829,1.273022 2.21097,2.15688 0.26215,0.419251 0.20736,0.886189 0.32696,1.316538 0.18659,0.671335 0.9443,1.198231 1.24562,1.848757 0.202,0.436097 0.18031,1.064235 0.4671,1.44259 0.39571,0.522053 0.98492,0.978465 1.32346,1.526622 0.91889,1.48783 1.81422,3.000856 2.74034,4.481833 0.28027,0.448192 0.30432,1.069519 0.51381,1.54063 0.18428,0.414414 0.73316,0.654023 0.87194,1.078439 0.0849,0.259697 0.26817,0.530702 0.34253,0.798326 0.39364,1.416626 -0.19057,1.940016 0.68509,3.515439 0.11137,0.200357 0.31598,0.136263 0.51382,0.154061 0.24699,0.02222 0.35058,0.246298 0.5761,0.280114 0.77691,0.116497 1.18447,-0.530692 1.77499,0.266107 0.47631,0.642683 0.57222,1.475311 1.10547,2.114864 0.59926,0.718718 1.56844,1.136467 2.08641,1.960803 0.42424,0.675171 0.58819,1.480674 1.01206,2.128876 0.28684,0.438645 0.72115,0.777266 0.96534,1.260515 0.36503,0.722358 0.83137,1.627392 1.3546,2.254913 1.20364,1.443562 2.43439,2.128292 3.89253,3.221318 1.57533,1.180871 2.65138,3.021109 3.98596,4.439817 0.91278,0.970328 1.92447,1.700442 2.69363,2.801139 0.0753,0.107755 0.26328,0.05469 0.37368,0.126058 0.41359,0.267403 0.71399,0.69627 1.07434,0.966394 0.48127,0.360758 1.66132,0.916907 2.35109,1.330545 0.7916,0.474702 1.37302,1.086131 1.23004,0.700288 -0.10105,-0.272663 0.2503,0.441822 0.80964,0.756305 0.0836,0.04698 -0.0155,-0.245082 -0.10899,-0.266107 -0.23946,-0.05384 0.43384,0.250115 0.79408,0.574229 0.46065,0.414451 -0.3731,-0.312408 -0.20241,-0.210079 0.50982,0.305635 0.80436,0.409963 1.41688,0.560228 0.16328,0.04005 0.74142,0.479032 1.27675,0.700288 0.70913,0.293085 0.87002,0.634712 1.44803,0.966394 0.33852,0.194254 1.9491,0.881977 2.24209,0.490198 0.156,-0.208594 0.24912,-0.457524 0.37368,-0.686286" />
    <path
       style="fill:none;stroke:#000000;stroke-width:0.264583px;stroke-linecap:butt;stroke-linejoin:miter;stroke-opacity:1"
       d="m 235.94409,93.986111 c -0.36839,0.538982 -1.53577,1.123561 -1.10548,1.617173 0.20526,0.235467 0.43175,0.45279 0.64896,0.677588 0.32121,0.332436 0.72009,0.606014 0.95935,1.001663 0.35632,0.589231 0.58323,1.254127 1.01348,1.799887 0.40691,0.516159 0.89331,0.971778 1.21472,1.554968 0.12511,0.22701 0.0832,0.49612 0.0602,0.74265 -0.0218,0.23383 -0.096,0.47525 -0.0343,0.70534 0.0349,0.13016 0.14332,0.22263 0.23163,0.31805 0.65478,0.70745 1.40033,1.33606 2.23078,1.81342 0.22988,0.13214 0.4878,0.20617 0.74109,0.2788 0.79581,0.22821 1.60288,0.43129 2.42471,0.53262 0.27803,0.0343 0.56065,0.082 0.84054,0.0446 0.11914,-0.0159 0.18427,-0.128 0.2565,-0.21098 0.43675,-0.50179 0.83562,-1.03571 1.27304,-1.53707 0.0816,-0.0935 0.12899,-0.20854 0.14731,-0.33142 0.0277,-0.18582 0.0682,-0.37185 0.1795,-0.53251 0.26932,-0.38856 0.63463,-0.69313 0.98643,-1.0043 0.15238,-0.13478 0.33655,-0.24499 0.44783,-0.41555 0.14614,-0.22399 0.11687,-0.51031 0.25749,-0.74064 0.23923,-0.391853 0.55015,-0.732614 0.79178,-1.124015 0.30297,-0.490759 0.50414,-1.040738 0.59956,-1.609921 0.0546,-0.325389 -0.14889,-1.18354 0.11265,-0.98275 0.059,0.0453 0.11974,0.142661 0.15637,-0.0061 0.0848,-0.344236 0.19695,-0.689983 0.20121,-1.044568 0.004,-0.365455 -0.12701,-0.738598 -0.0106,-1.096897 0.10694,-0.32915 0.25365,-0.646512 0.43514,-0.940181 0.0592,-0.09574 0.0841,-0.25113 0.19487,-0.277286 0.0542,-0.0128 0.0393,0.14457 -0.0116,0.0491 -0.19409,-0.364018 -0.28303,-0.787679 -0.24183,-1.198634 0.047,-0.469178 0.33049,-0.876355 0.38936,-1.34116 0.05,-0.3951 -0.15925,-0.763147 -0.12817,-1.160461 0.0571,-0.729861 0.50132,-1.351546 0.59912,-2.075477 0.0221,-0.163663 -0.071,-0.313052 -0.14819,-0.449032 -0.33201,-0.585199 -0.72847,-1.130506 -1.11453,-1.68052 -0.51593,-0.735048 -1.05141,-1.457132 -1.53569,-2.213925 -0.13147,-0.205449 -0.2377,-0.426013 -0.30654,-0.661191 -0.17105,-0.584336 -0.22561,-1.194231 -0.3877,-1.781351 -0.16565,-0.600032 -0.43952,-1.162151 -0.65485,-1.745522 -0.19311,-0.523178 -0.16313,-1.09233 -0.30813,-1.627974 -0.28174,-1.040758 -0.73923,-2.021849 -1.02385,-3.063332 -0.33059,-1.20969 -0.81099,-2.36871 -1.26157,-3.536774 -0.11207,-0.290524 -0.34159,-0.543735 -0.37018,-0.857677 -0.0213,-0.234084 0.0735,-0.456862 0.13939,-0.676565 0.0943,-0.314362 0.0585,-0.649668 0.0121,-0.968299 -0.0521,-0.357682 -0.0913,-0.71699 -0.0988,-1.079164 -0.02,-0.972686 0.0599,-1.960067 -0.15973,-2.916524 -0.19563,-0.852124 -0.65228,-1.609609 -1.08511,-2.358551 -0.323,-0.558902 -0.6626,-1.117617 -0.86503,-1.733357 -0.19019,-0.578501 -0.10485,-1.197113 -0.22313,-1.788435 -0.15815,-0.790635 -0.41878,-1.552594 -0.62832,-2.331493 -0.11676,-0.434023 -0.32495,-0.835488 -0.52089,-1.237628 -0.26301,-0.539787 -0.55075,-1.07066 -0.7494,-1.638917 -0.16672,-0.476911 -0.12971,-0.990669 -0.10392,-1.485807 0.0252,-0.483212 -0.0601,-0.959468 -0.18582,-1.43529 -0.21189,-0.801833 -0.37607,-1.618285 -0.64214,-2.403831 -0.0242,-0.07148 7.2e-4,0.03784 0.004,0.05087"
       id="path83"
       inkscape:path-effect="#path-effect85"
       inkscape:original-d="m 235.94409,93.986111 c -0.3685,0.539056 -0.79109,1.044874 -1.10548,1.617173 -0.0115,0.02093 1.54761,1.573786 1.61929,1.69469 0.29995,0.505884 0.54346,1.15103 0.87194,1.610659 0.4547,0.636249 1.0212,1.06121 1.37017,1.778727 0.18916,0.38894 -0.14598,1.25594 0.0467,1.49861 0.62738,0.79011 1.63526,1.39324 2.3978,2.01683 0.3573,0.29219 3.75092,1.07559 4.11051,0.84034 0.0922,-0.0603 1.48064,-1.71083 1.54144,-1.86276 0.0867,-0.21679 0.0483,-0.45653 0.18684,-0.65827 0.45725,-0.66591 0.90953,-0.92202 1.43245,-1.42858 0.17764,-0.17209 0.14285,-0.50908 0.2647,-0.7283 0.1933,-0.34774 0.49336,-0.664746 0.71623,-1.008416 0.6358,-0.980443 0.7298,-1.657504 0.82521,-2.77313 0.002,-0.02692 0.10483,0.110643 0.12456,0.08403 0.0494,-0.06669 0.23355,-1.02675 0.23355,-1.148469 0,-0.396367 -0.12651,-0.719439 0,-1.120455 0.12689,-0.402225 0.71523,-1.507151 0.63838,-1.092449 -0.006,0.03207 -0.3157,-0.500377 -0.28027,-1.148469 0.0262,-0.479494 0.26395,-0.852823 0.37369,-1.30253 0.1137,-0.465918 -0.1337,-0.782553 -0.109,-1.232506 0.0434,-0.790263 0.55668,-1.411661 0.60724,-2.18489 0.0322,-0.491802 -2.7184,-3.92173 -3.0206,-4.691917 -0.19353,-0.493233 -0.25083,-1.039952 -0.35811,-1.554636 -0.15302,-0.734081 -0.43814,-1.503222 -0.74737,-2.170887 -0.19219,-0.414962 -0.18297,-1.083726 -0.29583,-1.540629 -0.25967,-1.051116 -0.7557,-2.025608 -1.02763,-3.081264 -0.31648,-1.228622 -0.87375,-2.405136 -1.27675,-3.61347 -0.0921,-0.275989 -0.34576,-0.63646 -0.38925,-0.910373 -0.0383,-0.241406 0.166,-0.647994 0.18684,-0.910376 0.0406,-0.510833 -0.10159,-1.006356 -0.12457,-1.512615 -0.0481,-1.059256 0.0716,-2.245203 -0.18684,-3.291345 -0.33976,-1.375277 -1.37445,-2.55552 -1.88399,-3.879588 -0.25581,-0.66475 -0.13495,-1.20995 -0.26469,-1.89077 -0.1472,-0.772499 -0.46732,-1.531758 -0.6228,-2.310945 -0.15697,-0.786707 -1.24862,-2.457135 -1.37017,-3.277338 -0.13337,-0.899991 0.17259,-1.709635 -0.20241,-2.577053 -4e-5,-9.2e-5 -0.77515,-2.968008 -0.63838,-2.352963" />
    <path
       style="fill:none;stroke:#000000;stroke-width:0.264583px;stroke-linecap:butt;stroke-linejoin:miter;stroke-opacity:1"
       d="m 239.5877,47.87176 c -0.087,0.155655 -0.17827,0.325058 -0.33768,0.417491 -0.10208,0.05919 -0.22527,0.0069 -0.29923,-0.07358 -0.17834,-0.194156 -0.28102,-0.441497 -0.39471,-0.675906 -0.11954,-0.246462 -0.24747,-0.491476 -0.43,-0.699505 -0.0793,-0.09038 -0.29203,-0.377878 -0.23999,-0.269454 0.0183,0.03806 0.0649,0.0723 0.024,0.01028 -0.13931,-0.211342 -0.30068,-0.407473 -0.44013,-0.61862 -0.0303,-0.04589 -0.084,0.02552 -0.0886,-0.05922 -0.009,-0.164774 -0.0702,-0.322023 -0.12608,-0.475541 -0.32249,-0.886075 -0.66812,-1.774486 -0.80882,-2.711733 -0.0754,-0.502526 -0.0872,-1.015549 -0.0163,-1.520209 0.0907,-0.645999 0.25775,-1.286836 0.23907,-1.943956 -0.007,-0.242667 -0.0664,-0.479132 -0.13759,-0.710664 -0.60123,-1.955969 -1.36547,-3.87231 -1.73047,-5.891638 -0.1337,-0.739673 -0.49971,-1.422762 -0.55901,-2.17888 -0.0667,-0.850833 0.12248,-1.692583 0.3147,-2.515727 0.17158,-0.734743 0.43082,-1.480228 0.35892,-2.235447 -0.03,-0.315127 -0.1008,-0.625042 -0.17779,-0.931472 -0.0824,-0.327786 -0.21011,-0.643115 -0.28644,-0.973022 -0.0161,-0.06963 -0.0378,-0.105415 -0.10693,-0.03134 -0.0367,0.03928 -0.0289,0.116496 0.0168,0.03932 0.0721,-0.121662 0.1042,-0.263046 0.19167,-0.376775 0.16067,-0.208908 0.34681,-0.408991 0.42374,-0.668227 0.11689,-0.393913 0.13473,-0.807334 0.16752,-1.214395 0.0384,-0.476737 0.13369,-0.94527 0.20162,-1.42169 0.007,-0.05064 0.0458,-0.147826 0.087,-0.05322 0.0445,0.102061 0.146,0.01139 0.18641,-0.04805 0.15053,-0.221431 0.27497,-0.459873 0.39411,-0.699262 0.2411,-0.484445 0.46819,-0.976163 0.67192,-1.477232 0.10461,-0.257285 0.20212,-0.516654 0.30044,-0.777264 0.0432,-0.114432 0.0995,-0.0082 0.088,0.07294 -0.015,0.105459 -0.1106,0.08949 -0.13287,-0.01063 -0.0551,-0.247467 -0.054,-0.503409 -0.0498,-0.755437 0.003,-0.20274 -0.007,-0.405903 0.005,-0.608205 0.0342,-0.548402 0.11553,-1.093152 0.21759,-1.63251 0.0834,-0.440791 0.16474,-0.884405 0.3068,-1.310799 0.11532,-0.346122 0.39311,-0.598733 0.65655,-0.836676 0.18878,-0.17051 0.417,-0.322591 0.52458,-0.556271 0.1058,-0.229815 0.0551,-0.49043 0.14008,-0.728535 0.2215,-0.62035 0.5991,-1.1658984 0.9145,-1.7419411 0.0522,-0.09541 0.14162,-0.1744575 0.16041,-0.2850248 0.0573,-0.3368918 0.0711,-0.6793262 0.0914,-1.01993 0.0309,-0.5173597 0.0223,-1.0378205 0.0821,-1.552655 0.0408,-0.350653 0.23437,-0.6813512 0.19816,-1.0384894 -0.0148,-0.1462622 -0.0758,-0.2821712 -0.11587,-0.4227654 -0.2969,-1.0414701 -0.36478,-2.1690691 -0.0657,-3.2173554 0.10474,-0.3671108 0.28138,-0.70769355 0.44641,-1.05237599 0.0462,-0.0964708 0.16866,-0.0966369 0.23582,-0.0148641 0.13881,0.16901225 0.20917,0.38118821 0.27836,0.58534321 0.0348,0.10262944 0.0659,0.20644454 0.0991,0.30957584"
       id="path87"
       inkscape:path-effect="#path-effect89"
       inkscape:original-d="m 239.5877,47.87176 c -0.64108,1.213083 -0.91348,-0.388059 -1.38594,-0.942903 -0.77991,-0.915916 0.25941,0.383767 -0.7318,-0.966393 -0.0222,-0.03024 -0.1465,-0.02801 -0.10899,-0.02801 0.099,0 -0.18493,-0.720249 -0.23354,-0.854351 -0.39465,-1.088689 -0.76665,-2.140042 -0.74737,-3.319359 0.0154,-0.944012 0.48282,-2.128396 0.20241,-3.053244 -0.61504,-2.028526 -1.39773,-4.036713 -1.79057,-6.106496 -0.12808,-0.674833 -0.48089,-1.358408 -0.54495,-2.072846 -0.14687,-1.63812 0.63587,-3.141348 0.66951,-4.775949 0.006,-0.306129 -0.41473,-2.030833 -0.52939,-2.030833 -0.007,0 -0.0854,0.119286 -0.0623,0.14006 0.0286,0.02575 0.15592,-0.313691 0.17128,-0.336142 0.13142,-0.192114 0.29401,-0.347579 0.40482,-0.560228 0.30924,-0.593451 0.17476,-1.996681 0.45153,-2.84316 0.0918,-0.280742 0.0426,0.308745 0.34254,-0.196082 0.40051,-0.674056 0.62903,-1.265761 0.96534,-2.002819 0.1283,-0.281156 0.35334,-1.128013 0.42041,-0.826335 0.0122,0.05478 -0.0469,0.171443 -0.0934,0.140055 -0.13374,-0.09024 -0.0869,-1.097404 -0.0934,-1.274517 -0.0208,-0.561228 0.32619,-2.656921 0.56052,-3.207311 0.23099,-0.542512 0.81565,-0.820962 1.12105,-1.260515 0.12602,-0.181372 0.0749,-0.515637 0.14014,-0.700288 0.27917,-0.790304 0.62614,-1.3448737 1.07433,-2.0168248 0.10937,-0.1639629 0.16116,-2.2978687 0.20242,-2.6750918 0.0348,-0.3187207 0.27887,-0.8257389 0.17126,-1.1484694 -0.4871,-1.4608043 -0.51907,-3.1458556 0.2647,-4.5238488 0.26744,-0.47020268 0.55081,0.5745042 0.63837,0.8403417"
       clip-path="url(#clipPath251)" />
    <path
       style="fill:none;stroke:#000000;stroke-width:0.264583px;stroke-linecap:butt;stroke-linejoin:miter;stroke-opacity:1"
       d="m -0.70147711,168.27477 c -0.20760314,0.28011 -0.41520629,0.56022 -0.62280459,0.84034"
       id="path91"
       inkscape:path-effect="#path-effect93"
       inkscape:original-d="m -0.70147711,168.27477 c -0.20760155,0.28011 -0.41520309,0.56022 -0.62280459,0.84034" />
    <path
       style="fill:none;stroke:#000000;stroke-width:0.264583px;stroke-linecap:butt;stroke-linejoin:miter;stroke-opacity:1"
       d="m 2.6616715,170.93585 c 0.2689864,-0.2925 0.5640632,-0.56659 0.7644716,-0.9158 0.360718,-0.62854 0.5828562,-1.32751 0.9886719,-1.93336 1.2163317,-1.81588 2.686899,-3.44256 4.1841596,-5.02751 0.4240169,-0.44885 0.8165684,-0.92975 1.2709538,-1.3477 0.5084186,-0.46765 1.1610896,-0.75298 1.6285176,-1.2722 0.529042,-0.58766 0.878723,-1.32685 1.483667,-1.8467 0.530386,-0.45578 1.226421,-0.71802 1.656159,-1.28427 0.465549,-0.61344 0.621464,-1.39282 1.045477,-2.03218 0.449759,-0.67818 1.024134,-1.26782 1.412558,-1.98942 0.561504,-1.04315 0.879034,-2.19989 1.453329,-3.23544 0.325737,-0.58736 0.860742,-1.00797 1.342852,-1.45888 0.633225,-0.59225 1.043036,-1.37016 1.439579,-2.12908 0.35814,-0.68542 0.74681,-1.36033 1.253126,-1.95063 1.343987,-1.56692 3.126315,-2.68774 4.436941,-4.28764 0.543796,-0.66382 0.957544,-1.41973 1.363247,-2.17184 0.236957,-0.43928 0.526277,-0.85476 0.70912,-1.31897 0.08075,-0.20501 0.05676,-0.43512 0.18198,-0.63087 0.436013,-0.68159 1.083136,-1.2168 1.426941,-1.95874 0.295176,-0.637 0.176346,-1.37075 0.455825,-2.01713 0.526493,-1.21767 1.301402,-2.31561 1.777173,-3.55525 0.366172,-0.95408 0.440093,-2.0123 0.931722,-2.91598 0.311897,-0.57331 0.865303,-0.9468 1.344335,-1.36745 0.358698,-0.31498 0.662813,-0.70325 0.811241,-1.16805 0.197631,-0.61888 0.511225,-1.19968 0.661759,-1.83208 0.105115,-0.44159 0.0109,-0.91894 0.207648,-1.34093 0.364008,-0.78074 1.037655,-1.35857 1.416339,-2.13348 0.377654,-0.7728 0.777445,-1.54489 1.014532,-2.3713 0.05778,-0.20141 0.03156,-0.42393 0.159043,-0.60862 0.32234,-0.46699 0.664994,-0.95943 0.74828,-1.5276 0.07197,-0.49096 -0.1086,-0.97429 -0.04962,-1.46877 0.105137,-0.88142 0.364002,-1.73604 0.446408,-2.62214 0.03844,-0.41335 0.245582,-0.77977 0.368464,-1.16951 0.09408,-0.29839 0.03889,-0.62466 -0.110697,-0.89754 -0.04167,-0.076 -0.08894,-0.14885 -0.139676,-0.21909"
       id="path99"
       inkscape:path-effect="#path-effect101"
       inkscape:original-d="m 2.6616715,170.93585 c 0.2127914,-0.2381 0.4591982,-0.44997 0.6383742,-0.71429 0.403261,-0.59489 0.6192973,-1.37838 1.0276309,-2.00282 1.4746829,-2.25514 3.5941983,-4.43274 5.4495437,-6.41461 0.3772477,-0.40298 1.0001857,-0.70303 1.4324487,-1.07845 0.620912,-0.53926 1.010486,-1.36694 1.588155,-1.9608 0.537513,-0.55257 1.314803,-0.83304 1.806133,-1.41458 0.370738,-0.43881 0.588732,-1.1731 0.856358,-1.69469 0.386067,-0.75242 1.079809,-1.39708 1.510304,-2.14288 0.613642,-1.06309 0.963501,-2.25126 1.510299,-3.33336 0.472994,-0.93603 1.288722,-1.32084 1.899556,-2.12887 0.774366,-1.02435 1.178486,-2.26101 1.977406,-3.26333 1.58312,-1.98617 3.903981,-3.21615 5.247136,-5.3782 0.507712,-0.81725 0.994077,-1.75815 1.46359,-2.61907 0.10491,-0.19237 0.0642,-0.44937 0.155705,-0.60225 0.432864,-0.72313 1.191088,-1.34412 1.5103,-2.11486 0.243461,-0.58784 0.135731,-1.26412 0.389255,-1.86276 0.498044,-1.176 1.219496,-2.26177 1.728285,-3.4314 0.420764,-0.96728 0.52329,-2.10131 0.980918,-3.05325 0.478751,-0.99587 1.828544,-1.43394 2.164244,-2.52103 0.18359,-0.59451 0.459084,-1.1872 0.653947,-1.79273 0.170442,-0.52964 0.0084,-0.99081 0.264689,-1.51262 0.35799,-0.72877 0.981867,-1.26087 1.339033,-1.97481 0.389194,-0.77796 0.74069,-1.63665 1.05877,-2.451 0.05975,-0.15298 0.03341,-0.44305 0.12456,-0.57423 0.319958,-0.4605 0.600562,-0.89671 0.762937,-1.4566 0.138732,-0.47836 -0.08161,-0.99918 -0.03114,-1.49861 0.09149,-0.90528 0.378365,-1.73945 0.451535,-2.66109 0.07646,-0.96305 0.83017,-1.37647 0.124556,-2.35296" />
    <path
       style="fill:none;stroke:#000000;stroke-width:0.264583px;stroke-linecap:butt;stroke-linejoin:miter;stroke-opacity:1"
       d="m 2.6616715,170.93585 c 0.2763753,-0.27692 0.5483695,-0.55822 0.8291756,-0.83072 0.00364,-0.004 0.010236,-0.0138 -0.00502,-0.009 -0.037657,0.012 -0.073201,0.0297 -0.1088249,0.0466 -0.040851,0.0194 -0.0839,0.0329 -0.1269027,0.0469 -0.072054,0.0234 -0.1364842,0.0687 -0.1830952,0.12857 -0.064063,0.0822 -0.099473,0.18148 -0.1403786,0.27616 -0.040808,0.0944 -0.089445,0.1884 -0.1641359,0.2605 -0.031794,0.0307 -0.061303,0.0751 -0.1048671,0.0817 -0.278697,0.0427 -0.5573017,0.0888 -0.8312807,0.15589 -0.1327306,0.0325 -0.2660237,0.0662 -0.39228,0.11898 -0.055614,0.0233 -0.1145065,0.0454 -0.1582003,0.0876 -0.038363,0.037 -0.073006,0.0778 -0.108324,0.11778 -0.1278265,0.14456 -0.24905403,0.29655 -0.39715791,0.42149 -0.0747248,0.063 -0.15271445,0.12357 -0.23912176,0.16929 -0.0665229,0.0352 -0.14090649,0.051 -0.21371922,0.0674 -0.074904,0.0169 -0.15114445,0.0312 -0.22228458,0.0612 -0.05002197,0.0211 -0.1018858,0.0592 -0.10918402,0.11629 -0.0052997,0.0414 -0.0022538,0.0836 0.0017079,0.12498 0.00513588,0.0537 0.0134643,0.10762 0.03223819,0.15864 0.0092759,0.0252 0.03528481,0.0575 0.06422437,0.0422 0.06585365,-0.0347 0.13035415,-0.0721 0.19488855,-0.10923 0.81917504,-0.47142 1.58633784,-1.02552 2.38254624,-1.53336"
       id="path103"
       inkscape:path-effect="#path-effect105"
       inkscape:original-d="m 2.6616715,170.93585 c 0.2750712,-0.27545 0.5558674,-0.54529 0.8252137,-0.82634 0.0494,-0.0515 -0.1332629,0.0523 -0.2024115,0.07 -0.3818731,0.0981 -0.2681803,0.53005 -0.6228022,0.75631 -0.00674,0.004 -1.2039572,0.16513 -1.4013097,0.37816 -0.26347817,0.28442 -0.38478336,0.48483 -0.71622965,0.68628 -0.17849228,0.10848 -0.5605239,0.0712 -0.5605239,0.28012 0,0.10455 0.01751426,0.34475 0.10898929,0.29412 0.88866271,-0.49193 1.71271596,-1.09246 2.56907396,-1.63868" />
    <path
       style="fill:none;stroke:#000000;stroke-width:0.264583px;stroke-linecap:butt;stroke-linejoin:miter;stroke-opacity:1"
       d="m 50.820079,102.48874 c -0.239672,-0.1199 -0.628806,-0.0965 -0.722605,-0.35531 -0.02109,-0.0582 -0.002,-0.13335 0.0033,-0.19758 0.04308,-0.52319 0.06871,-1.04886 0.145832,-1.56817 0.03967,-0.26709 0.0885,-0.532815 0.134669,-0.798875 0.174769,-1.007143 0.34095,-2.020184 0.637126,-2.999672 0.179558,-0.59382 0.47003,-1.149729 0.609039,-1.757076 0.285321,-1.246598 0.373791,-2.530666 0.684511,-3.771589 0.176425,-0.704588 0.495331,-1.363809 0.683975,-2.064243 0.160937,-0.597559 0.142501,-1.221333 0.162206,-1.834363 0.01372,-0.42674 0.06318,-0.853594 0.177274,-1.266854 0.385637,-1.396799 0.731048,-2.808801 1.256472,-4.162343 0.570695,-1.470165 1.268044,-2.892903 1.717229,-4.409277 0.237842,-0.802915 0.236391,-1.657822 0.506859,-2.45262 0.07407,-0.217656 0.172278,-0.425802 0.260876,-0.637722 0.431128,-1.031223 0.844054,-2.071974 1.342751,-3.072662 0.141731,-0.284398 0.270461,-0.579712 0.461114,-0.834999 0.04438,-0.05942 0.09625,-0.115058 0.16981,-0.142522 0.133425,-0.04982 0.27521,-0.08072 0.419083,-0.06869 0.111465,0.0093 0.222717,0.02141 0.33445,0.02734"
       id="path107"
       inkscape:path-effect="#path-effect109"
       inkscape:original-d="m 50.820079,102.48874 c -0.243933,-0.12138 -0.537152,-0.1735 -0.731801,-0.36415 -0.0067,-0.007 0.12835,-1.60097 0.171278,-1.84876 0.207957,-1.200305 0.405659,-2.440008 0.73179,-3.613475 0.170905,-0.614939 0.477224,-1.168196 0.622803,-1.792729 0.286157,-1.227619 0.389797,-2.489438 0.669515,-3.711517 0.164801,-0.720018 0.472006,-1.384038 0.685088,-2.086853 0.306768,-1.011817 0.05755,-2.083856 0.342545,-3.109272 0.343398,-1.235528 0.657926,-2.534936 1.089904,-3.739526 0.603123,-1.681834 1.449972,-3.270382 1.930696,-5.000045 0.240197,-0.864238 0.224361,-1.821072 0.591667,-2.647083 0.210256,-0.472829 1.728316,-4.266022 2.086395,-4.397795 0.359421,-0.132268 0.365329,-0.08091 0.794081,-0.05602" />
    <path
       style="fill:none;stroke:#000000;stroke-width:0.264583px;stroke-linecap:butt;stroke-linejoin:miter;stroke-opacity:1"
       d="m 66.545904,65.247522 c 0.02548,-0.611219 0.172333,-1.214384 0.41097,-1.776997 0.302171,-0.712402 0.741114,-1.355129 1.194315,-1.978406 0.508145,-0.69884 1.035738,-1.388243 1.450454,-2.148989 0.551534,-1.011722 0.99626,-2.080619 1.60464,-3.061432 0.34948,-0.563422 0.764297,-1.088653 1.254923,-1.537509 0.413639,-0.378423 0.74728,-0.831682 1.090772,-1.271897 0.170585,-0.21862 0.362117,-0.420023 0.533563,-0.638122 0.03059,-0.03892 0.02831,-0.10239 0.07059,-0.128874 0.03866,-0.02421 0.08258,0.01251 0.117034,0.03072 0.09602,0.05076 0.182233,0.117581 0.275779,0.172465"
       id="path111"
       inkscape:path-effect="#path-effect113"
       inkscape:original-d="m 66.545904,65.247522 c 0.108251,-2.431428 1.918504,-3.857675 3.005031,-5.812375 0.869651,-1.564536 1.516044,-3.436572 2.880477,-4.663908 0.638839,-0.574648 1.069517,-1.305727 1.650436,-1.932789 0.0402,-0.0434 0.0537,-0.1611 0.10899,-0.140057 0.129344,0.04922 0.238741,0.140057 0.358111,0.210087" />
    <path
       style="fill:none;stroke:#000000;stroke-width:0.264583px;stroke-linecap:butt;stroke-linejoin:miter;stroke-opacity:1"
       d="m 71.746331,55.601189 c 0.173536,-0.661031 0.482531,-1.283485 0.889347,-1.832025 0.500385,-0.674707 1.136303,-1.234097 1.797924,-1.745717 0.928689,-0.718139 1.922571,-1.354369 2.79307,-2.145941 0.589538,-0.536085 1.095732,-1.154569 1.591329,-1.776149 0.415436,-0.521042 0.83598,-1.037844 1.266237,-1.547126 0.120359,-0.142465 0.193731,-0.317676 0.24286,-0.496098 0.06249,-0.226929 0.09235,-0.46712 0.206142,-0.676056 0.120444,-0.221159 0.27467,-0.421433 0.427768,-0.620585 0.18771,-0.244175 0.384978,-0.485376 0.521146,-0.763567 0.09543,-0.194957 0.149457,-0.414174 0.127989,-0.632143 -0.002,-0.02061 -0.0047,-0.04116 -0.0079,-0.06162"
       id="path115"
       inkscape:path-effect="#path-effect117"
       inkscape:original-d="m 71.746331,55.601189 c 0.775745,-2.92051 3.643255,-3.97664 5.620817,-5.854393 0.966933,-0.918133 1.810911,-2.172705 2.69363,-3.165295 0.343368,-0.386109 0.266546,-0.847042 0.498245,-1.24651 0.413771,-0.713372 1.163333,-1.274442 1.043191,-2.030825" />
    <path
       style="fill:none;stroke:#000000;stroke-width:0.264583px;stroke-linecap:butt;stroke-linejoin:miter;stroke-opacity:1"
       d="m 96.315992,38.556226 c 0.333929,-0.253316 0.645099,-0.539983 1.008843,-0.75122 0.383319,-0.222605 0.807535,-0.361796 1.2318,-0.483065 0.544017,-0.155498 1.100021,-0.272644 1.631375,-0.469653 0.22568,-0.08367 0.44466,-0.184062 0.66419,-0.282381 1.52824,-0.68444 3.00834,-1.474838 4.43601,-2.349537 0.29898,-0.183178 0.59526,-0.370961 0.88302,-0.571488 0.70768,-0.493149 1.3618,-1.063693 2.09802,-1.514145 0.0917,-0.05609 0.2054,-0.05223 0.30678,-0.02911 0.17361,0.03958 0.33299,0.125623 0.50746,0.162029"
       id="path119"
       inkscape:path-effect="#path-effect121"
       inkscape:original-d="m 96.315992,38.556226 c 0.301019,-0.228762 0.585382,-0.48128 0.903057,-0.686282 0.88577,-0.571598 2.215465,-0.68639 3.191881,-1.106453 1.79246,-0.771141 3.59723,-1.734251 5.24713,-2.773135 0.91251,-0.574577 1.71421,-1.26915 2.60021,-1.848752 0.23287,-0.152334 0.55236,0.0715 0.82522,0.126048" />
    <path
       style="fill:none;stroke:#000000;stroke-width:0.264583px;stroke-linecap:butt;stroke-linejoin:miter;stroke-opacity:1"
       d="m 114.62953,33.178027 c -0.17955,-0.0756 -0.36769,-0.127496 -0.55451,-0.181557 -0.14286,-0.04134 -0.28623,-0.08329 -0.42223,-0.144201 -0.10863,-0.04865 -0.21213,-0.111326 -0.29835,-0.194075 -0.0766,-0.0735 -0.13703,-0.163041 -0.17988,-0.260036 -0.0323,-0.07314 -0.0551,-0.15025 -0.0709,-0.228545"
       id="path123"
       inkscape:path-effect="#path-effect125"
       inkscape:original-d="m 114.62953,33.178027 c -0.65913,-0.276931 -1.36757,-0.225216 -1.52587,-1.008414" />
    <path
       style="fill:none;stroke:#000000;stroke-width:0.264583px;stroke-linecap:butt;stroke-linejoin:miter;stroke-opacity:1"
       d="m 109.08349,32.267657 c -0.006,-0.203168 -0.12462,-0.407492 -0.0471,-0.609617 0.0434,-0.113144 0.18881,-0.09207 0.28635,-0.07073 0.0927,0.02027 0.14804,0.11606 0.10018,0.208979 -0.0904,0.175488 -0.36825,0.244879 -0.38248,0.437936 -0.006,0.08085 0.15047,0.01181 0.19397,-0.007 0.332,-0.14318 0.53066,-0.479139 0.86281,-0.622263 0.16843,-0.07258 0.3476,-0.0056 0.51461,0.03295 1.27257,0.293404 2.49964,0.764961 3.66705,1.340832 0.26723,0.131822 0.46132,0.372822 0.7433,0.484501 0.66562,0.263616 1.3489,0.49763 2.05715,0.613453 0.23224,0.03798 0.47017,0.05636 0.70341,0.01089 0.53064,-0.103449 1.03771,-0.300755 1.53304,-0.512327 0.72007,-0.307569 1.44659,-0.614148 2.11149,-1.027812 0.33159,-0.206297 0.57843,-0.519001 0.80923,-0.827531 0.52691,-0.704355 0.94682,-1.490359 1.5414,-2.141699 0.22677,-0.248418 0.47705,-0.514419 0.81094,-0.601326 0.21472,-0.05589 0.44509,-0.03244 0.65529,0.03048 0.39684,0.118792 0.69531,0.43432 0.91906,0.770406 0.3324,0.49929 0.50609,1.089249 0.85279,1.577799 0.30192,0.425454 0.63032,0.832288 0.97523,1.223465 0.67503,0.765569 1.40735,1.496542 2.26874,2.051237 0.54464,0.350721 1.15951,0.623599 1.81526,0.664452 0.71174,0.04434 1.40995,-0.14866 2.1175,-0.177717 0.53381,-0.02192 1.06596,0.113128 1.6002,0.02192 0.54198,-0.09253 1.05731,-0.310402 1.51674,-0.610952 0.56889,-0.372154 1.06888,-0.844849 1.66077,-1.181501 0.47636,-0.270943 1.02447,-0.407705 1.4631,-0.745789 0.36034,-0.277738 0.57476,-0.687722 0.86829,-1.026384 0.2143,-0.24725 0.5045,-0.418881 0.81733,-0.511525 0.58459,-0.173125 1.19173,-0.256488 1.79685,-0.315797 0.87194,-0.08546 1.75161,-0.154122 2.62602,-0.08797 0.22713,0.01718 0.46328,0.01246 0.67836,0.0906 0.17618,0.06401 0.29589,0.219461 0.47798,0.279005 0.54071,0.176809 1.11472,0.194851 1.67711,0.236093 0.40056,0.02937 0.79657,0.0985 1.19741,0.127534 1.62293,0.117555 3.25956,-0.09725 4.87511,0.1438 0.67073,0.100077 1.29435,0.38529 1.90071,0.675491 0.48172,0.23055 0.96569,0.456821 1.46492,0.64854 1.15429,0.443283 2.4153,0.653667 3.48174,1.279236 0.21907,0.128505 0.36231,0.348544 0.56691,0.497231 0.0483,0.03507 0.12539,0.04187 0.14359,-0.02998"
       id="path131"
       inkscape:path-effect="#path-effect133"
       inkscape:original-d="m 109.08349,32.267657 c -0.009,-0.214757 -0.14454,-0.4636 -0.0281,-0.644266 0.0719,-0.111564 0.38348,-0.04858 0.38926,0.08403 0.01,0.221983 -0.58188,0.586123 -0.3612,0.560234 0.47624,-0.05588 0.79406,-0.780285 1.26426,-0.686287 1.3258,0.265041 2.65521,0.823066 3.9081,1.386568 0.2475,0.111315 0.46095,0.369779 0.68509,0.46219 0.67931,0.280066 1.7399,0.641223 2.49122,0.686281 0.83738,0.05022 3.15714,-1.100579 3.97038,-1.554636 1.05753,-0.590447 2.20179,-3.569946 3.36315,-3.613478 1.40582,-0.0527 1.7153,1.69119 2.31995,2.507028 0.99392,1.34108 2.93591,3.544752 4.70218,3.809555 0.76723,0.115025 1.5289,-0.06934 2.2888,-0.140055 0.55149,-0.05132 1.09079,0.115406 1.63487,0.02801 1.40648,-0.225925 1.99625,-0.985205 3.09846,-1.708697 0.45039,-0.295646 0.95832,-0.4253 1.41688,-0.700286 0.80119,-0.480462 0.8484,-1.288291 1.72828,-1.624661 1.07584,-0.411287 4.1585,-0.599892 5.18485,-0.392165 0.2331,0.04718 0.30677,0.208354 0.49824,0.280119 0.6344,0.237781 1.52769,0.209783 2.21097,0.308121 1.87056,0.269219 3.74967,-0.05642 5.62081,0.224091 1.04704,0.156964 2.13926,0.856726 3.11403,1.232509 1.22578,0.472546 2.43607,0.9154 3.69012,1.358553 0.22107,0.07812 0.63957,0.725051 0.73179,0.476195" />
    <path
       style="fill:none;stroke:#000000;stroke-width:0.264583px;stroke-linecap:butt;stroke-linejoin:miter;stroke-opacity:1"
       d="m 178.79403,43.388197 c -0.0778,-0.242695 -0.11125,-0.503239 -0.23355,-0.728297 -0.0115,-0.02111 -0.027,0.009 -0.0313,0.02062 -0.0132,0.03616 -0.0251,0.0772 -0.0122,0.115292 0.0633,0.186962 0.19951,0.339427 0.25968,0.527569 0.0211,0.06582 0.0316,0.134396 0.0433,0.20232 0.0324,0.188221 0.0443,0.379425 0.0433,0.570332 -8.7e-4,0.166654 -0.009,0.33532 0.0264,0.499506 0.0302,0.138789 0.0932,0.267565 0.16216,0.390952 0.33373,0.596948 0.69698,1.180934 1.13542,1.707377 0.24124,0.289662 0.50042,0.566867 0.79431,0.803298 0.24928,0.200546 0.50198,0.396861 0.75754,0.589325 0.23598,0.177716 0.47047,0.358193 0.71819,0.519291 0.073,0.0475 0.14176,0.106687 0.22488,0.133456 0.0185,0.006 0.0525,0.03034 0.0607,0.0092 0.005,-0.01309 -0.004,-0.02675 -0.01,-0.0381"
       id="path135"
       inkscape:path-effect="#path-effect137"
       inkscape:original-d="m 178.79403,43.388197 c -0.0778,-0.242765 -0.12599,-0.497157 -0.23355,-0.728297 -0.0189,-0.04062 -0.0604,0.08338 -0.0467,0.126053 0.0676,0.210846 0.23497,0.385503 0.28026,0.602244 0.17088,0.817722 -0.0688,1.010727 0.23355,1.554637 0.51786,0.931666 1.11146,1.84146 1.93069,2.535036 0.13586,0.115014 1.94596,1.540031 1.775,1.2325" />
    <path
       style="fill:none;stroke:#000000;stroke-width:0.264583px;stroke-linecap:butt;stroke-linejoin:miter;stroke-opacity:1"
       d="m 188.91461,58.542388 c 0.14537,0.345071 0.40395,0.627087 0.67764,0.875818 0.55354,0.503055 1.19843,0.8978 1.72886,1.427017 0.2609,0.260302 0.49431,0.563517 0.60361,0.92109 0.23307,0.762486 0.6257,1.460605 0.98428,2.168425 0.30735,0.606693 0.62336,1.228665 0.7287,1.903943 0.0308,0.197131 0.007,0.397562 -0.0168,0.594028 -0.0459,0.381444 -0.12477,0.762684 -0.10695,1.148304 0.009,0.193031 0.0385,0.399364 0.16178,0.554555 0.0591,0.07439 0.13458,0.133123 0.20511,0.196051 0.42787,0.381774 0.85955,0.763661 1.33963,1.079214 0.26066,0.171331 0.5791,0.236614 0.82432,0.434439 0.0927,0.07481 0.16259,0.172733 0.23379,0.267007 0.26982,0.357275 0.53372,0.71973 0.77406,1.097437 0.0697,0.109506 0.14877,0.214763 0.20024,0.334252 0.11287,0.262019 0.16904,0.543691 0.22462,0.822139 0.0899,0.450258 0.14855,0.909733 0.29679,1.345572 0.0676,0.198687 0.14994,0.401124 0.29875,0.553942 0.0703,0.07215 0.16292,0.115983 0.25934,0.144366 0.58624,0.172568 1.1591,0.403967 1.76715,0.491531 0.35874,0.05166 0.72814,0.0584 1.08314,-0.01702 0.36101,-0.07669 0.68653,-0.257906 1.01597,-0.416706 0.25714,-0.12395 0.52162,-0.253776 0.8081,-0.282982 0.40694,-0.04149 0.81751,-0.08124 1.21162,-0.193532 0.14519,-0.04137 0.29556,-0.08374 0.41893,-0.174145 0.0503,-0.03687 0.0981,-0.09904 0.0781,-0.164351 -0.0264,-0.08599 -0.10516,-0.142167 -0.17764,-0.187497 -0.11449,-0.0716 -0.23918,-0.125313 -0.36444,-0.174871"
       id="path139"
       inkscape:path-effect="#path-effect141"
       inkscape:original-d="m 188.91461,58.542388 c 0.49765,1.195908 2.62118,1.941226 3.00504,3.20731 0.43017,1.418834 1.38807,2.564967 1.71272,4.061659 0.12379,0.570695 -0.405,1.932638 0.10899,2.394984 0.45145,0.406101 0.96945,0.868249 1.47916,1.204492 0.27476,0.181261 0.62416,0.243195 0.87192,0.476192 0.16528,0.155424 1.04681,1.411195 1.15219,1.638673 0.35707,0.770792 0.33289,2.663949 1.0432,2.871168 0.954,0.278313 1.74732,0.662493 2.80263,0.504211 0.65897,-0.09884 1.25404,-0.617505 1.89955,-0.71429 0.0975,-0.01463 2.87763,-0.233727 1.18333,-0.896374" />
    <path
       style="fill:none;stroke:#000000;stroke-width:0.264583px;stroke-linecap:butt;stroke-linejoin:miter;stroke-opacity:1"
       d="m 211.30639,88.705737 c 0.33916,-0.0725 0.69516,-0.08796 1.03458,-0.0064 0.31507,0.07574 0.60235,0.238412 0.85766,0.434809 0.24636,0.189513 0.45577,0.421036 0.68441,0.630768 0.13329,0.122269 0.2841,0.22345 0.42089,0.341582 0.0872,0.07528 0.17254,0.156164 0.22966,0.258156 0.16264,0.290413 0.29463,0.596466 0.43362,0.898527 0.18505,0.402176 0.36888,0.80811 0.61551,1.176982 0.14084,0.210644 0.29828,0.419016 0.50983,0.562381 0.33045,0.223943 0.70281,0.377476 1.0824,0.496547 0.38334,0.120248 0.78095,0.195545 1.15634,0.339272 0.15388,0.05892 0.27295,0.17886 0.37697,0.302575 0.15267,0.181575 0.27946,0.384581 0.4475,0.553358 0.0711,0.07144 0.15765,0.1241 0.23468,0.188652 0.2829,0.237088 0.49768,0.540587 0.71592,0.835067 0.18763,0.253179 0.38089,0.508513 0.63128,0.703776 0.0812,0.06331 0.1758,0.106348 0.26897,0.148575 0.32865,0.148958 0.66553,0.278991 1.00406,0.403462 0.14001,0.05148 0.55492,0.217403 0.42128,0.151077 -0.0349,-0.01734 -0.0794,-0.03177 -0.1187,-0.04619 -0.0877,-0.03223 -0.17557,-0.06397 -0.26348,-0.09562"
       id="path147"
       inkscape:path-effect="#path-effect149"
       inkscape:original-d="m 211.30639,88.705737 c 1.14059,-0.241065 1.78004,0.241286 2.5535,1.036425 0.15404,0.158369 0.54156,0.396172 0.65394,0.588241 0.42081,0.719214 0.88953,2.219626 1.60373,2.689095 0.71768,0.471765 1.46208,0.564965 2.19538,0.812334 0.39427,0.133001 0.61183,0.712396 0.94978,0.952392 0.6275,0.445627 0.92806,1.227894 1.49473,1.652674 0.30988,0.232289 2.57357,1.007243 1.29232,0.546222" />
    <path
       style="fill:none;stroke:#000000;stroke-width:0.264583px;stroke-linecap:butt;stroke-linejoin:miter;stroke-opacity:1"
       d="m 228.57365,103.18766 c 0.14203,0.34051 0.20393,0.75258 0.52645,0.97979 0.42668,0.30059 0.94341,0.42252 1.43288,0.5796 0.32671,0.10485 0.63878,0.25445 0.90733,0.47453 0.72522,0.59432 1.28006,1.40575 2.13017,1.83799 0.77437,0.39373 1.66585,0.38004 2.4945,0.58105 0.38619,0.0937 0.78743,0.21089 1.08175,0.49709 0.31318,0.30454 0.56283,0.70238 0.99086,0.86668 0.45168,0.17338 0.95637,0.1772 1.38145,0.43375 0.33464,0.20197 0.62136,0.51569 1.01247,0.59832 0.50035,0.10571 1.01706,0.0282 1.51709,0.1773 0.35286,0.10518 0.67249,0.30496 1.02935,0.39257 0.44919,0.11028 0.91605,0.0417 1.37019,0.006 1.18414,-0.0922 2.2942,-0.57251 3.33625,-1.11326 1.28869,-0.66873 2.56873,-1.3545 3.80307,-2.11971 0.31671,-0.19634 0.57826,-0.48118 0.94789,-0.59434 0.85122,-0.2606 1.74998,-0.32273 2.59116,-0.62717 0.52217,-0.18898 1.0578,-0.35395 1.54993,-0.61084 0.314,-0.16391 0.57728,-0.45022 0.95336,-0.47619 0.31106,-0.0215 0.6308,-0.003 0.92733,-0.12902 0.51283,-0.21867 1.04606,-0.41818 1.49478,-0.74833 0.15414,-0.11341 0.25131,-0.2976 0.45751,-0.34667 0.44129,-0.10501 0.94262,-0.0145 1.3353,-0.27218 0.28737,-0.18859 0.45012,-0.58978 0.29052,-0.91438 -0.23447,-0.47687 -0.80335,-0.76227 -0.89496,-1.30212 -0.23085,-1.360305 -0.58918,-2.695259 -0.99122,-4.01313 -0.16125,-0.528577 -0.4854,-1.025579 -0.46655,-1.594438 0.0183,-0.551717 0.24374,-1.082059 0.16782,-1.643302 -0.19856,-1.467944 -0.83809,-2.821182 -1.41322,-4.170617 -0.68963,-1.618084 -1.05069,-3.345983 -1.67088,-4.991253 -0.13983,-0.370945 -0.0434,-0.824678 -0.26782,-1.150756 -0.0491,-0.07134 -0.2142,-0.220028 -0.0154,-0.234737 0.18117,-0.0134 0.41981,0.347662 0.44318,0.24618 0.23179,-1.00643 0.44167,-2.037084 0.36846,-3.076365 -0.0328,-0.465038 -0.18683,-0.910771 -0.39622,-1.325404 -0.24119,-0.47761 -0.4987,-0.965096 -0.54631,-1.510324 -0.0752,-0.860578 0.18796,-1.718208 0.0374,-2.578686 -0.26146,-1.494326 -0.89488,-2.886636 -1.51627,-4.260498 -0.12961,-0.286562 -0.30686,-0.554652 -0.39855,-0.855377 -0.086,-0.281961 -0.10972,-0.585318 -0.27966,-0.839698 -0.32835,-0.491504 -0.91013,-0.727753 -1.23031,-1.235393 -0.30528,-0.484012 -0.44382,-1.043904 -0.62712,-1.580364 -0.31941,-0.934827 -1.10748,-1.620723 -1.47188,-2.527533 -0.14212,-0.353669 -0.0206,-0.736477 -0.10458,-1.104454 -0.26178,-1.146737 -0.73132,-2.256686 -0.77267,-3.445403 -0.0265,-0.761252 0.12049,-1.537184 -0.0947,-2.286504 -0.29585,-1.030272 -0.7659,-2.006996 -0.95811,-3.068835 -0.1516,-0.837513 -0.15607,-1.707937 -0.42974,-2.517579 -0.31857,-0.942482 -1.12844,-1.648366 -1.36045,-2.623865 -0.11606,-0.48799 0.17542,-0.984063 0.0279,-1.465262 -0.26745,-0.872395 -1.08334,-1.442423 -1.36502,-2.305007 -0.16951,-0.51909 -0.17085,-1.072468 -0.20184,-1.612347 -0.0315,-0.549531 -0.0224,-1.110676 -0.16924,-1.644725 -0.0938,-0.341246 -0.30339,-0.704249 -0.16202,-1.054195 0.35597,-0.881139 0.89463,-1.69477 1.08266,-2.639348 0.1011,-0.507873 0.12046,-1.036368 -0.006,-1.543941 -0.14718,-0.590913 -0.40411,-1.160011 -0.424,-1.778809 -0.0155,-0.481396 -0.006,-0.966424 -0.10914,-1.440966 -0.1145,-0.524563 -0.24857,-1.049464 -0.24286,-1.592616 0.005,-0.51091 0.0401,-1.022403 -0.0398,-1.533525 -0.0772,-0.49407 -0.12773,-0.99552 -0.0939,-1.499059 0.0126,-0.188171 0.14071,-0.323396 0.15762,-0.516661 0.0224,-0.256066 0.27237,-0.705382 0.0234,-0.771604 -0.15517,-0.04128 -0.3365,-0.04635 -0.50097,-0.07792 -0.1938,-0.03719 -0.34226,0.113026 -0.50239,0.192621"
       id="path151"
       inkscape:path-effect="#path-effect153"
       inkscape:original-d="m 228.57365,103.18766 c 0.1038,0.2521 0.16443,0.52668 0.31141,0.7563 0.37883,0.59185 1.77462,0.70563 2.35109,1.12046 0.88869,0.63953 1.53448,1.70402 2.60021,2.11487 0.92962,0.35838 1.94883,0.28059 2.8649,0.65826 0.54598,0.22509 0.73958,0.75123 1.1989,1.05043 0.34817,0.22679 0.93013,0.25711 1.30789,0.39216 0.43751,0.15642 0.90056,0.66409 1.32346,0.75632 0.45772,0.0998 0.95201,-0.001 1.40131,0.14005 1.28686,0.4038 0.87412,0.60232 2.67807,0.42017 2.31502,-0.23374 4.80808,-2.14369 6.88199,-3.16529 0.34744,-0.17114 0.56657,-0.48858 0.94978,-0.61625 0.78788,-0.26249 1.65626,-0.31041 2.44451,-0.57424 0.56282,-0.18837 1.16156,-0.43567 1.71272,-0.65827 0.2714,-0.1096 0.55147,-0.40125 0.82521,-0.47619 0.30553,-0.0836 0.64541,-0.007 0.94978,-0.098 0.36032,-0.10803 1.28273,-0.597 1.65043,-0.79833 0.14516,-0.0795 0.23535,-0.28513 0.38926,-0.33613 0.48778,-0.16166 1.28056,-0.009 1.61929,-0.4762 0.62139,-0.85708 -0.6734,-1.29785 -0.80965,-2.11486 -0.2146,-1.286918 -0.59995,-2.592875 -0.94978,-3.851577 -0.12811,-0.460975 -0.37706,-0.886108 -0.4671,-1.358553 -0.12035,-0.631489 0.23095,-1.214848 0.1557,-1.862759 -0.16933,-1.457945 -0.82626,-2.88561 -1.40131,-4.215728 -0.7049,-1.630434 -0.99407,-3.335026 -1.66601,-4.972029 -0.16868,-0.410962 -0.14685,-0.779082 -0.28026,-1.190488 -0.0296,-0.09118 -0.20298,-0.247319 -0.10898,-0.26611 0.20887,-0.04175 0.38055,0.146249 0.51381,0.26611 0.25342,-1.079881 0.58995,-2.647143 0.24912,-3.777644 -0.19511,-0.647173 -0.65619,-1.228825 -0.7785,-1.876766 -0.176,-0.932344 0.16306,-1.830436 0.0156,-2.759128 -0.27816,-1.751492 -1.1247,-3.516385 -1.88399,-5.098084 -0.11998,-0.249955 -0.11073,-0.54975 -0.23355,-0.798326 -0.30373,-0.614711 -0.94818,-0.782753 -1.29232,-1.344552 -0.34773,-0.567676 -0.44378,-0.934098 -0.63838,-1.568638 -0.28164,-0.918362 -1.05903,-1.712749 -1.47916,-2.563046 -0.15058,-0.304761 -0.0261,-0.708893 -0.0934,-1.022417 -0.25486,-1.186742 -0.72732,-2.246457 -0.79408,-3.48743 -0.0394,-0.733197 0.12851,-1.511822 -0.0623,-2.226909 -0.24428,-0.915608 -0.66562,-1.785106 -0.8875,-2.689099 -0.22992,-0.936733 -0.25025,-1.911846 -0.48267,-2.84316 -0.24631,-0.986998 -1.11288,-1.755896 -1.40131,-2.759129 -0.14481,-0.503686 0.1546,-1.054088 0.0156,-1.512615 -0.26826,-0.88475 -1.1037,-1.478954 -1.38575,-2.366969 -0.2371,-0.746494 -0.13248,-2.165565 -0.3114,-3.039242 -0.0843,-0.411603 -0.35069,-0.859628 -0.18685,-1.246509 0.52139,-1.231155 1.06309,-1.886782 1.15219,-3.249326 0.0509,-0.778618 -0.25401,-1.336383 -0.43595,-2.072848 -0.12463,-0.504449 -0.0607,-1.044266 -0.109,-1.554636 -0.0501,-0.52933 -0.23124,-1.031747 -0.29583,-1.554637 -0.0734,-0.593954 0.0425,-1.181876 -0.0156,-1.778724 -0.0102,-0.104243 -0.35229,-1.687682 -0.0311,-2.072848 0.061,-0.07315 0.10418,-1.003388 0.0623,-1.008413 -0.74293,-0.0891 -0.53161,-0.138055 -0.99649,0.126053" />
  </g>
</svg>
