<?xml version="1.0" encoding="UTF-8" standalone="no"?>
<!-- Created with Inkscape (http://www.inkscape.org/) -->

<svg
   width="169.33333mm"
   height="127mm"
   viewBox="0 0 169.33333 127"
   version="1.1"
   id="svg5"
   inkscape:version="1.1.2 (08b2f3d93c, 2022-04-05)"
   sodipodi:docname="Epitélio.svg"
   xmlns:inkscape="http://www.inkscape.org/namespaces/inkscape"
   xmlns:sodipodi="http://sodipodi.sourceforge.net/DTD/sodipodi-0.dtd"
   xmlns="http://www.w3.org/2000/svg"
   xmlns:svg="http://www.w3.org/2000/svg">
  <sodipodi:namedview
     id="namedview7"
     pagecolor="#ffffff"
     bordercolor="#666666"
     borderopacity="1.0"
     inkscape:pageshadow="2"
     inkscape:pageopacity="0.0"
     inkscape:pagecheckerboard="0"
     inkscape:document-units="mm"
     showgrid="false"
     inkscape:zoom="1.8950462"
     inkscape:cx="185.21976"
     inkscape:cy="160.15441"
     inkscape:window-width="1366"
     inkscape:window-height="704"
     inkscape:window-x="0"
     inkscape:window-y="27"
     inkscape:window-maximized="1"
     inkscape:current-layer="layer2" />
  <defs
     id="defs2">
    <inkscape:path-effect
       effect="simplify"
       id="path-effect89"
       is_visible="true"
       lpeversion="1"
       steps="1"
       threshold="0.000408163"
       smooth_angles="360"
       helper_size="0"
       simplify_individual_paths="false"
       simplify_just_coalesce="false" />
    <inkscape:path-effect
       effect="simplify"
       id="path-effect85"
       is_visible="true"
       lpeversion="1"
       steps="1"
       threshold="0.000408163"
       smooth_angles="360"
       helper_size="0"
       simplify_individual_paths="false"
       simplify_just_coalesce="false" />
    <inkscape:path-effect
       effect="simplify"
       id="path-effect81"
       is_visible="true"
       lpeversion="1"
       steps="1"
       threshold="0.000408163"
       smooth_angles="360"
       helper_size="0"
       simplify_individual_paths="false"
       simplify_just_coalesce="false" />
    <inkscape:path-effect
       effect="simplify"
       id="path-effect77"
       is_visible="true"
       lpeversion="1"
       steps="1"
       threshold="0.000408163"
       smooth_angles="360"
       helper_size="0"
       simplify_individual_paths="false"
       simplify_just_coalesce="false" />
    <inkscape:path-effect
       effect="simplify"
       id="path-effect73"
       is_visible="true"
       lpeversion="1"
       steps="1"
       threshold="0.000408163"
       smooth_angles="360"
       helper_size="0"
       simplify_individual_paths="false"
       simplify_just_coalesce="false" />
    <inkscape:path-effect
       effect="simplify"
       id="path-effect69"
       is_visible="true"
       lpeversion="1"
       steps="1"
       threshold="0.000408163"
       smooth_angles="360"
       helper_size="0"
       simplify_individual_paths="false"
       simplify_just_coalesce="false" />
    <inkscape:path-effect
       effect="simplify"
       id="path-effect65"
       is_visible="true"
       lpeversion="1"
       steps="1"
       threshold="0.000408163"
       smooth_angles="360"
       helper_size="0"
       simplify_individual_paths="false"
       simplify_just_coalesce="false" />
    <inkscape:path-effect
       effect="simplify"
       id="path-effect61"
       is_visible="true"
       lpeversion="1"
       steps="1"
       threshold="0.000408163"
       smooth_angles="360"
       helper_size="0"
       simplify_individual_paths="false"
       simplify_just_coalesce="false" />
    <inkscape:path-effect
       effect="simplify"
       id="path-effect57"
       is_visible="true"
       lpeversion="1"
       steps="1"
       threshold="0.000408163"
       smooth_angles="360"
       helper_size="0"
       simplify_individual_paths="false"
       simplify_just_coalesce="false" />
  </defs>
  <g
     inkscape:groupmode="layer"
     id="layer2"
     inkscape:label="Epitélio">
    <path
       style="fill:none;stroke:#000000;stroke-width:0.264583px;stroke-linecap:butt;stroke-linejoin:miter;stroke-opacity:1"
       d="m 0,127 c 0.38476925,-0.26872 0.77883689,-0.52671 1.1374092,-0.83079 0.2263492,-0.19195 0.4049129,-0.43599 0.5257917,-0.70696 0.1830954,-0.41044 0.3279809,-0.83653 0.4966276,-1.25293 0.2959443,-0.73071 0.6007409,-1.46829 1.0561503,-2.1171 0.3351564,-0.47749 0.782791,-0.869 1.2845149,-1.16407 0.7108441,-0.41805 1.4845225,-0.71427 2.2568681,-0.99547 0.776469,-0.2827 1.5384466,-0.63459 2.3613233,-0.76062 0.4661336,-0.0714 0.9399099,-0.0707 1.4100599,-0.0587 0.968483,0.0249 1.948832,0.14908 2.907709,-0.0229 0.305699,-0.0548 0.617546,-0.0642 0.927249,-0.0445 0.471248,0.03 0.949312,0.10653 1.418562,0.007 0.258136,-0.0548 0.490964,-0.18338 0.721991,-0.30831 0.261261,-0.14128 0.564842,-0.20617 0.788845,-0.41699 0.15646,-0.14725 0.179899,-0.37518 0.170721,-0.57774 -0.0197,-0.43481 -0.136358,-0.85863 -0.270764,-1.27001 -0.146,-0.44686 -0.307461,-0.88967 -0.502658,-1.31733 -0.380296,-0.8332 -0.94904,-1.57107 -1.272642,-2.431 -0.317254,-0.84306 -0.28833,-1.764 -0.537841,-2.6239 -0.188513,-0.64968 -0.4958,-1.25907 -0.653335,-1.91918 -0.264507,-1.10835 -0.272961,-2.26533 -0.602547,-3.3599 -0.128752,-0.42759 -0.325196,-0.83047 -0.521055,-1.23026 -0.632741,-1.29157 -1.376764,-2.523 -2.085384,-3.773353 C 10.760591,99.371504 10.325742,99.054684 9.8754495,98.810342 9.1965358,98.441944 8.448818,98.203868 7.8095337,97.761929 7.5219173,97.563099 7.2829363,97.301018 7.0939959,97.007518 6.6764524,96.358907 6.407435,95.626744 6.2005284,94.887745 5.8640619,93.686002 5.6634413,92.445178 5.6092104,91.198832 5.57877,90.499244 5.6115555,89.796949 5.7160569,89.102576 5.7590617,88.816825 5.7033635,88.507681 5.5174161,88.279361 5.2877219,87.997325 4.9434382,87.846073 4.61154,87.719946 4.1693321,87.551899 3.6955135,87.454785 3.2841479,87.215696 2.9341731,87.012288 2.6617096,86.70672 2.3699829,86.431788 2.1912258,86.263322 1.9746124,86.142578 1.7854727,85.984713 1.6236807,85.849674 1.4891088,85.685352 1.3546884,85.524003 0.98913073,85.085214 0.55087009,84.68614 0.30307381,84.171431 c -0.0243218,-0.05052 -0.13182043,-0.209735 -0.0957102,-0.184673 0.0417073,0.02895 0.0760273,0.06724 0.11193695,0.102783"
       id="path55"
       inkscape:path-effect="#path-effect57"
       inkscape:original-d="m 0,127 c 1.4813041,-1.01596 1.4892474,-1.04717 1.9218036,-2.17908 1.2414126,-3.2485 1.7027136,-3.73217 4.9102333,-4.91586 0.8812792,-0.32522 1.7197062,-0.71281 2.6708385,-0.77619 1.3585966,-0.0905 2.6580586,0.16509 4.0473456,-0.0554 1.08859,-0.1728 1.874351,0.33664 2.896834,-0.29569 0.301339,-0.18636 0.666375,-0.20874 0.903976,-0.51745 0.394635,-0.51275 -0.347239,-2.34769 -0.575256,-2.90147 -0.365276,-0.88716 -0.988501,-1.69502 -1.335419,-2.56881 -0.329503,-0.82992 -0.308306,-1.73398 -0.534168,-2.58729 -0.153945,-0.58161 -0.424959,-1.12394 -0.595804,-1.70023 -0.391437,-1.32039 -0.321226,-2.90528 -0.862887,-4.15815 -0.684546,-1.58336 -1.588449,-2.95663 -2.403754,-4.472314 C 10.315374,98.51796 8.2663212,98.450634 7.3251162,97.321689 5.9682599,95.694184 5.3227382,91.237471 5.7020658,89.190202 5.9848887,87.663776 3.9905873,87.736822 3.1339583,87.120372 2.6547426,86.775516 2.3111309,86.281222 1.798539,85.993043 1.5442642,85.850091 -0.29729821,83.455652 0.31930054,84.089541" />
    <path
       style="fill:none;stroke:#000000;stroke-width:0.264583px;stroke-linecap:butt;stroke-linejoin:miter;stroke-opacity:1"
       d="m 30.684676,1.4772988 c -0.05698,-0.51350074 -0.252244,-1.02255074 -0.188139,-1.54020104 0.02979,-0.24054554 0.334155,0.02702561 0.457383,0.09738157 0.823514,0.47017798 1.637743,0.97228247 2.353738,1.59679047 0.268705,0.2343711 0.523679,0.514918 0.585333,0.8845104 0.07783,0.4665701 0.01698,0.9414846 0.09968,1.4097919 0.11874,0.6723953 0.284986,1.3414749 0.261832,2.032759 -0.04711,1.4064089 -0.386077,2.8098445 -0.199891,4.2184349 0.078,0.590103 0.321988,1.14172 0.573141,1.674676 0.300852,0.638418 0.577697,1.308413 1.039232,1.846563 0.380004,0.443085 0.969926,0.648996 1.309245,1.139922 0.276234,0.399655 0.489763,0.847047 0.884992,1.158934 0.707525,0.558329 1.418081,1.121422 2.00487,1.814265 0.647465,0.764486 1.137379,1.654391 1.463452,2.602158 0.325683,0.946634 0.518471,1.937774 0.892183,2.866855 0.313639,0.779735 0.883613,1.46758 1.002833,2.315559 0.09254,0.658241 -0.01089,1.323858 0.09722,1.98392 0.114574,0.699487 0.293246,1.406867 0.175348,2.123157 -0.201948,1.226939 -0.553711,2.435095 -1.095726,3.557744 -0.236947,0.490777 -0.571464,0.92623 -0.955786,1.311072 -0.436403,0.436994 -0.866608,0.88452 -1.20695,1.404398 -0.562695,0.859526 -1.009951,1.807726 -1.756348,2.537554 -1.873833,1.832236 -3.825845,3.581635 -5.64339,5.474508 -0.780968,0.813335 -1.728027,1.494368 -2.300472,2.487249 -0.423995,0.7354 -0.733739,1.548943 -0.827309,2.399186 -0.04238,0.385057 0.06242,0.760955 0.139919,1.133937 0.08031,0.386538 -0.04113,0.771554 -0.119631,1.147053 -0.217095,1.038448 0.04745,3.96197 -0.608188,3.124752 -0.275232,-0.351459 -0.389835,-0.854843 -0.764017,-1.098164 -0.120766,-0.07853 0.0012,0.212229 0.01573,0.271689 0.214805,0.88195 0.09435,1.793955 -0.01898,2.681786 -0.09083,0.711594 -0.196388,1.457911 0.01792,2.15364 0.320985,1.042028 1.242586,1.775282 1.541057,2.826828 0.25142,0.885781 0.06568,1.810494 -0.06269,2.70116 -0.04865,0.337497 -0.108098,0.674484 -0.07423,1.019318 0.09489,0.96601 0.15868,1.939981 0.357596,2.890003 0.146636,0.700332 0.66499,1.238422 1.169795,1.710697 0.574682,0.537649 1.21268,1.031937 1.618663,1.722211 0.433273,0.736675 0.714974,1.547751 1.021543,2.341796 0.875768,2.268329 1.759963,4.542502 2.973104,6.664454 0.339527,0.59388 0.243667,1.347362 0.657235,1.909511 0.492025,0.668793 1.235385,1.076319 1.853638,1.612085 0.374708,0.324715 0.691692,0.745833 0.768318,1.25602 0.148175,0.986573 -0.0129,2.005055 0.218129,2.977835 0.129346,0.544626 0.487146,1.073197 0.372857,1.643235 -0.207142,1.033161 -0.730213,1.959765 -1.105937,2.934437 -0.268436,0.696355 -0.362513,1.470705 -0.18227,2.202559 0.169688,0.688997 0.517022,1.319734 0.903691,1.907417 0.220466,0.335078 0.48528,0.676987 0.887209,0.803206 0.578364,0.181626 1.179186,-0.04589 1.712354,-0.26663 0.745245,-0.308548 1.4793,-0.735573 2.305044,-0.759735 0.454014,-0.01329 0.952425,0.143013 1.205576,0.546078 0.330516,0.526245 0.362533,1.16655 0.456639,1.764163 0.0927,0.588706 0.178683,1.269612 0.664091,1.661993 0.294698,0.23822 0.64211,0.40129 0.976898,0.58296 0.228917,0.12422 0.353786,-0.10648 0.40514,-0.29756 0.06817,-0.25365 0.194915,-0.48271 0.330964,-0.705825 0.349218,-0.5727 0.706806,-1.144893 0.935737,-1.781675 0.600356,-1.66992 0.840212,-3.466557 1.656224,-5.057887 0.34158,-0.666126 0.812043,-1.2574 1.34701,-1.782866 0.290535,-0.285375 0.494501,-0.786116 0.900757,-0.825703 0.265284,-0.02585 0.536472,0.113094 0.795626,0.04695 0.790517,-0.201766 1.477491,-0.748791 2.298312,-0.816734 0.803138,-0.06648 1.616194,0.06821 2.413712,-0.101123 1.066153,-0.226374 2.137305,-0.507409 3.106011,-1.010825 0.399795,-0.207765 0.860126,-0.409872 1.085346,-0.815446 0.24551,-0.442112 0.150111,-0.969823 0.04851,-1.439318 -0.129693,-0.59928 -0.357066,-1.182439 -0.349164,-1.807223 0.0097,-0.763328 0.155743,-1.535719 -0.03357,-2.294884 -0.519396,-2.082836 -0.962043,-4.182491 -1.383119,-6.289592 -0.121782,-0.609408 -0.571136,-1.093249 -0.658247,-1.718814 -0.238971,-1.716115 -0.246227,-3.45718 -0.142914,-5.182455 0.06909,-1.153682 0.41387,-2.273443 0.48254,-3.425298 0.04128,-0.692487 -0.03006,-1.400476 0.17741,-2.076029 0.149588,-0.487089 0.317926,-0.971105 0.368421,-1.483647 0.08883,-0.90167 0.07221,-1.837778 0.446042,-2.686793 0.320157,-0.727106 0.846659,-1.379898 0.971759,-2.180099 0.123008,-0.78682 -0.04737,-1.59154 0.144939,-2.374604 0.350505,-1.427216 1.188483,-2.680849 1.487288,-4.127115 0.263503,-1.2754 0.225729,-2.596479 0.515382,-3.865181 0.300569,-1.316516 1.126272,-2.464988 1.298077,-3.817408 0.05583,-0.439517 0.02199,-0.897888 -0.171757,-1.303707 -0.190783,-0.399618 -0.410527,-0.787201 -0.528614,-1.218704 -0.352209,-1.287012 -0.542915,-2.610879 -0.825238,-3.913589 -0.143749,-0.663295 -0.436051,-1.346144 -0.274526,-2.024883 0.188169,-0.790698 0.19291,-1.627338 -0.03074,-2.413139 -0.171543,-0.602723 -0.387225,-1.190671 -0.569117,-1.790887 -0.188134,-0.620815 -0.438678,-1.254027 -0.893074,-1.709373 -0.123479,-0.123737 -0.09064,-0.234044 0.106095,-0.268571 0.148733,-0.0261 0.299548,-0.03733 0.448711,-0.06046"
       id="path59"
       inkscape:path-effect="#path-effect61"
       inkscape:original-d="m 30.684676,1.4772988 c -0.03478,-0.3754263 -0.281296,-1.32920963 -0.16436,-1.64478089 0.03052,-0.0823722 2.810369,1.52619809 3.246094,2.31008339 0.239372,0.4306367 0.130227,1.0296469 0.184908,1.4969324 0.07954,0.6797553 0.308172,1.3454755 0.308172,2.0328723 0,1.5100016 -0.450431,3.2699675 -0.16436,4.74953 0.136372,0.705317 1.17266,2.939874 1.705227,3.418924 0.333976,0.300415 0.750435,0.48774 1.047788,0.83163 0.321046,0.371291 0.502119,0.909385 0.883435,1.219725 0.694835,0.565502 1.334711,1.005185 1.931223,1.681742 1.64328,1.863788 1.71205,3.147794 2.465383,5.451796 0.257678,0.788085 0.786155,1.449111 1.027247,2.25464 0.165474,0.552859 0.0817,1.15153 0.102724,1.7187 0.02993,0.807679 0.379249,1.706209 0.267084,2.513372 -0.185395,1.334149 -0.681699,3.093605 -1.397055,4.232072 -0.403191,0.641668 -1.045039,1.129011 -1.52032,1.7187 -0.728404,0.903746 -1.175631,2.114143 -1.992858,2.919942 -1.88496,1.858604 -3.864201,3.519862 -5.649849,5.47028 -0.662626,0.723768 -1.503701,1.347141 -2.095583,2.125277 -0.615406,0.809063 -1.273751,2.310277 -1.150511,3.363477 0.04264,0.364397 0.207992,0.752032 0.143812,1.12732 -0.218933,1.280137 -0.600737,2.510451 -0.739628,3.810695 -0.275093,-0.338619 -0.918054,-1.455267 -0.801251,-1.034915 0.499284,1.796809 -0.241798,3.119948 -0.02053,4.712573 0.168111,1.210003 1.349671,2.054889 1.643592,3.271073 0.260019,1.075904 -0.06427,2.185098 -0.184907,3.234121 -0.03107,0.270134 0.314958,2.938097 0.369808,3.234113 0.232191,1.253215 1.75767,2.084284 2.485938,3.012347 0.482105,0.614371 0.760904,1.347293 1.047787,2.06983 0.970772,2.444983 1.835277,5.103646 3.225554,7.336825 0.326154,0.523896 0.279011,1.164669 0.534167,1.700226 0.544465,1.142796 2.536148,1.758378 2.753016,2.993863 0.165206,0.941205 0.06137,1.979335 0.205446,2.938425 0.09119,0.607016 0.536075,1.280859 0.390356,1.903508 -0.546399,2.33475 -2.192192,3.566438 -0.862886,6.09862 0.213321,0.406349 0.663335,1.237575 1.047787,1.49693 1.390719,0.938191 3.265268,-1.322184 4.951323,-0.776182 1.460034,0.472808 0.607462,3.01584 1.807951,3.954855 0.172066,0.13459 0.990274,0.70228 1.171064,0.49898 0.0933,-0.10491 0.192671,-0.50758 0.246531,-0.60986 0.330364,-0.627343 0.787799,-1.212643 1.047795,-1.885026 0.902824,-2.334826 1.00076,-4.944819 2.835203,-6.856323 0.390352,-0.361649 0.747664,-0.762604 1.171055,-1.084947 0.04983,-0.03794 0.654604,0.07985 0.760156,0.05544 0.75432,-0.174473 1.66249,-0.780315 2.403755,-0.83163 0.654062,-0.04528 1.375434,0.05486 2.013413,-0.03697 1.009408,-0.145278 3.911172,-0.94862 4.49933,-1.848055 0.495361,-0.757527 -0.202172,-2.142428 -0.267084,-2.901474 -0.06738,-0.787891 0.182259,-1.757127 0,-2.49489 -0.547092,-2.214565 -1.056422,-4.138555 -1.417596,-6.412782 -0.09884,-0.622388 -0.563337,-1.065461 -0.657439,-1.700225 -0.241362,-1.628111 -0.221438,-3.403202 -0.164367,-5.045219 0.03958,-1.138803 0.336078,-2.289762 0.472532,-3.418925 0.08086,-0.669142 -0.02719,-1.352729 0.123272,-2.01439 0.115031,-0.50586 0.339025,-0.979769 0.410896,-1.496932 0.113747,-0.818492 0.06319,-1.631978 0.287638,-2.439449 0.222718,-0.801255 0.802603,-1.521267 1.068336,-2.31008 0.273695,-0.812451 0.02893,-1.699717 0.184893,-2.513372 0.224526,-1.171335 0.905714,-2.337155 1.294338,-3.455883 0.482788,-1.389794 0.473339,-3.112116 0.719075,-4.564726 0.263508,-1.557663 1.484641,-3.055293 1.35596,-4.675607 -0.04572,-0.575629 -0.396634,-0.994218 -0.595803,-1.515415 -0.303627,-0.794548 -0.740689,-3.202846 -0.903983,-4.084227 -0.126583,-0.68323 -0.463771,-1.554802 -0.308165,-2.25464 0.144954,-0.651931 0.18965,-1.282408 0.06164,-1.95895 -0.132329,-0.699344 -0.435373,-1.354523 -0.616344,-2.032872 -0.346863,-1.300174 -1.221576,-2.062534 -0.986159,-2.125277 0.194196,-0.05176 0.397202,-0.0616 0.595803,-0.0924" />
    <path
       style="fill:none;stroke:#000000;stroke-width:0.264583px;stroke-linecap:butt;stroke-linejoin:miter;stroke-opacity:1"
       d="M 64.850861,-0.00722131 C 64.073993,0.8813487 63.115073,1.5946032 62.378144,2.5203585 61.980655,3.0196974 61.670201,3.594854 61.519602,4.2190204 c -0.161063,0.6675345 -0.469984,1.2848681 -0.717353,1.922111 -0.179145,0.4614928 -0.319665,0.9425734 -0.356184,1.4392546 -0.08843,1.2026583 0.06706,2.4032455 0.131985,3.6028 0.03499,0.6464 0.03154,1.295405 -0.03039,1.940375 -0.156597,1.630895 -0.566863,3.232228 -0.621111,4.873532 -0.01863,0.563629 -0.0061,1.132001 0.09323,1.688004 0.137548,0.769706 0.470618,1.486631 0.840519,2.169488 0.40076,0.739824 0.83924,1.461042 1.173879,2.235193 0.389037,0.899995 0.695829,1.833114 1.082212,2.734004 0.295745,0.689559 0.708625,1.333479 0.904052,2.06179 0.02408,0.08975 0.05408,0.177311 0.09276,0.262313 0.04402,0.09673 0.1084,0.209624 0.06242,0.314356 -0.06437,0.146605 -0.144455,0.28973 -0.253717,0.405911 -0.03909,0.04156 -0.124477,0.181639 -0.125153,0.123618 -5.38e-4,-0.04617 0.02325,-0.09029 0.03914,-0.133514 0.193949,-0.527606 0.459676,-1.024416 0.686249,-1.537942"
       id="path63"
       inkscape:path-effect="#path-effect65"
       inkscape:original-d="M 64.850861,-0.00722131 C 63.690796,1.3254992 61.950194,2.3792438 61.522583,4.2063751 c -0.252556,1.0791336 -0.971751,2.1413708 -1.068335,3.2710726 -0.150222,1.7570513 0.247277,3.5015703 0.12327,5.2854693 -0.152604,2.195293 -0.870784,4.4454 -0.595802,6.671521 0.205319,1.662179 1.310544,2.984379 1.972304,4.472322 0.407879,0.917109 0.729557,1.858634 1.10943,2.790579 0.315465,0.773938 0.769908,1.485786 0.986158,2.291599 0.04286,0.159702 0.185229,0.327199 0.123258,0.480499 -0.07575,0.187378 -0.436313,0.671351 -0.3698,0.480499 0.195392,-0.560668 0.479385,-1.086414 0.719079,-1.629622" />
    <path
       style="fill:none;stroke:#000000;stroke-width:0.264583px;stroke-linecap:butt;stroke-linejoin:miter;stroke-opacity:1"
       d="m 104.68743,1.0646584 c -0.99678,0.4743601 -1.85086,1.2060668 -2.56671,2.0393139 -1.09206,1.2711612 -1.9041,2.7452183 -2.829438,4.1348013 -0.367444,0.5517929 -0.760058,1.0873086 -1.19075,1.5919326 -0.516268,0.6048893 -1.065608,1.1985638 -1.424442,1.9153588 -0.183908,0.367368 -0.32055,0.756362 -0.451776,1.144875 -0.46539,1.377848 -0.695838,2.81777 -1.040214,4.227233 -0.245411,1.004419 -0.522922,2.018498 -1.030444,2.921933 -0.292653,0.520949 -0.839512,0.837174 -1.146958,1.345416 -0.229019,0.378594 -0.376726,0.800684 -0.489369,1.226785 -0.225613,0.853437 -0.290747,1.75422 -0.648093,2.568244 -0.179977,0.409982 -0.387872,0.807198 -0.595134,1.203885 -0.345752,0.661747 -0.738876,1.297891 -1.071143,1.96679 -0.307883,0.61981 -0.511947,1.286565 -0.642372,1.965311 -0.159605,0.830601 -0.235968,1.674047 -0.298821,2.516447 -0.05227,0.700504 -0.09149,1.407781 -0.0054,2.107124 0.03509,0.285067 0.09992,0.568565 0.227932,0.828163 0.272321,0.552232 0.728113,0.99819 0.940752,1.583429 0.274724,0.756115 0.51528,1.52542 0.689654,2.309958 0.05226,0.235136 0.03958,0.478346 0.0634,0.716937 0.02156,0.215881 0.0417,0.449563 0.175634,0.628511 0.05908,0.07894 0.149914,0.128755 0.249594,0.141125 0.640913,0.07954 1.284391,0.137134 1.927778,0.19223 0.77115,0.06604 1.543979,0.111549 2.315112,0.178915 0.106467,0.0093 0.212224,-0.0024 0.31698,-0.02332 0.448986,-0.08962 0.864403,-0.313525 1.318961,-0.371133 0.261546,-0.03315 0.533077,0.048 0.787682,-0.02194 0.193412,-0.05313 0.359414,-0.175375 0.509269,-0.304106 0.159199,-0.136758 0.282811,-0.308626 0.430057,-0.460075 0.06345,-0.06526 0.0124,-0.126927 -0.07269,-0.09533 -0.168071,0.06241 -0.318502,0.165031 -0.46871,0.260971"
       id="path67"
       inkscape:path-effect="#path-effect69"
       inkscape:original-d="m 104.68743,1.0646584 c -2.96385,1.4228579 -4.20588,4.6779098 -6.101842,7.1704967 -0.709219,0.9323967 -1.600304,1.7163169 -2.054482,2.8275439 -1.119714,2.739587 -1.041471,5.257841 -2.342131,7.909722 -0.28751,0.586192 -0.93948,0.945938 -1.253231,1.533897 -0.661173,1.239025 -0.565798,2.635224 -1.150512,3.862459 -1.410435,2.960321 -2.118846,3.060003 -2.444847,6.579109 -0.09134,0.985914 -0.237131,2.38936 -0.02053,3.363487 0.17105,0.769302 0.824418,1.282279 1.088877,1.995905 0.280619,0.75724 0.454662,1.560936 0.698521,2.328569 0.112104,0.352896 -0.042,1.322337 0.410908,1.496933 0.135578,0.05227 4.271206,0.419669 4.49933,0.388096 0.480343,-0.06648 0.938628,-0.290174 1.417598,-0.388096 0.239469,-0.04896 0.6741,0.01966 0.862885,-0.03696 0.5236,-0.157009 1.603095,-1.4049 0.369803,-0.591378" />
    <path
       style="fill:none;stroke:#000000;stroke-width:0.264583px;stroke-linecap:butt;stroke-linejoin:miter;stroke-opacity:1"
       d="m 131.45744,3.559548 c -2.23808,0.033714 -4.49421,0.051769 -6.69808,0.4902615 -1.61693,0.321713 -3.22841,0.8458003 -4.58817,1.7856984 -0.54409,0.3760878 -0.91158,0.9444721 -1.44137,1.3399961 -0.5972,0.4458539 -1.27175,0.8137337 -1.74741,1.3995446 -0.22616,0.278533 -0.39464,0.5978703 -0.57222,0.9079848 -0.81211,1.4182316 -1.42047,2.9410546 -1.95734,4.4814436 -0.58285,1.672319 -1.08896,3.380727 -1.86495,4.975575 -0.44031,0.904949 -1.11549,1.68132 -1.46857,2.632592 -0.56201,1.514183 -0.76778,3.12674 -0.96348,4.721041 -0.0983,0.800993 -0.16832,1.607306 -0.32377,2.399498 -0.19251,0.981074 -0.58743,1.916759 -0.68953,2.91707 -0.0296,0.290297 -0.004,0.58159 0.0245,0.871194 0.11443,1.146496 0.13921,2.311656 0.42813,3.431394 0.0813,0.315012 0.16447,0.635501 0.32137,0.922271 0.25734,0.470338 0.7138,0.772711 1.11431,1.108822 0.31756,0.266499 0.59772,0.602412 0.70902,1.008128 0.27851,1.015235 0.24122,2.09102 0.0634,3.119501 -0.2607,1.508152 -0.78758,2.962726 -1.47552,4.325952 -0.34285,0.679396 -0.70113,1.357453 -1.15862,1.966218 -0.31758,0.422591 -0.82153,0.655664 -1.32786,0.766388 -0.51481,0.112579 -1.04447,0.098 -1.56832,0.116733 -0.51946,0.01858 -1.03696,0.224024 -1.55067,0.144156 -0.20316,-0.03159 -0.37588,-0.157222 -0.54164,-0.270394 -0.24272,-0.165715 -0.47646,-0.34302 -0.73146,-0.491878 -0.77147,-0.450343 -1.52734,-0.974156 -2.06587,-1.699589 -0.47973,-0.646225 -0.79516,-1.392288 -1.13458,-2.116499 -0.222,-0.473671 -0.469273,-0.936278 -0.65095,-1.4282 -0.19889,-0.538529 -0.351286,-1.097747 -0.634696,-1.60174 -0.200542,-0.356627 -0.491217,-0.651552 -0.719068,-0.990025 -0.16709,-0.248212 -0.194713,-0.556954 -0.2274,-0.846901 -0.01733,-0.1537 0.1117,-0.45538 -0.04315,-0.462396 -0.07902,-0.0036 -0.104162,0.163026 -0.1209,0.240306 -0.04599,0.212348 -0.05372,0.43157 -0.04108,0.651319 0.0079,0.136685 0.152373,0.134336 0.237821,0.05355 0.215165,-0.203436 0.362755,-0.465591 0.506793,-0.720927 0.03797,-0.06731 0.0751,-0.135082 0.111611,-0.20319"
       id="path71"
       inkscape:path-effect="#path-effect73"
       inkscape:original-d="m 131.45744,3.559548 c -3.9323,0.056242 -7.74737,0.084391 -11.19698,2.2176822 -0.55464,0.342996 -0.91066,0.9169151 -1.41759,1.3121224 -0.67684,0.5276591 -1.58947,1.0027383 -2.05449,1.7556647 -2.1184,3.4299787 -2.55556,6.4030127 -4.12953,9.9425937 -0.4168,0.937313 -1.13172,1.719556 -1.49978,2.6797 -0.8601,2.24368 -0.92388,4.708563 -1.29433,7.041133 -0.1915,1.205859 -0.85473,2.549826 -0.71907,3.770056 0.14522,1.306292 0.18689,3.141392 0.67798,4.361433 0.41617,1.033913 1.62567,1.211205 1.93122,2.365529 0.75484,2.851592 -0.94184,6.960084 -2.52702,9.277289 -0.60823,0.889106 -1.78241,0.960993 -2.7941,0.960993 -0.5759,0 -1.10157,0.125037 -1.68469,0.147847 -0.27452,0.01074 -0.89175,-0.530387 -1.12996,-0.665303 -2.47158,-1.399839 -2.53448,-2.252541 -3.677539,-4.546246 -0.701984,-1.408625 -0.489132,-1.98616 -1.664139,-3.344994 -0.372009,-0.43021 -0.213077,-1.575639 -0.349274,-1.330611 -0.178022,0.320273 -0.363378,2.057829 0.739622,5e-6" />
    <path
       style="fill:none;stroke:#000000;stroke-width:0.264583px;stroke-linecap:butt;stroke-linejoin:miter;stroke-opacity:1"
       d="m 133.6732,49.613356 c -0.3421,-0.532764 -0.53329,-1.161303 -0.53474,-1.79588 -0.002,-0.799147 0.2553,-1.569691 0.54752,-2.303749 0.26784,-0.672824 0.55646,-1.33765 0.79085,-2.023569 0.39925,-1.168362 0.78311,-2.345053 1.06082,-3.547839 0.15364,-0.665435 -0.0122,-1.350376 0.0986,-2.021876 0.22294,-1.35048 0.41212,-2.711045 0.77852,-4.032649 0.11246,-0.405642 0.25888,-0.800841 0.42682,-1.186811 0.21788,-0.500752 0.43763,-1.006407 0.54178,-1.546449 0.0831,-0.430738 0.15119,-0.870936 0.34523,-1.27109 0.29491,-0.608164 0.6904,-1.183243 0.83064,-1.852163 0.0779,-0.371574 0.0294,-0.762338 0.16598,-1.124689 0.27183,-0.720987 0.67329,-1.387978 0.92071,-2.117797 0.21201,-0.625365 0.11931,-1.304622 0.30103,-1.93568 0.13979,-0.485443 0.40841,-0.919976 0.5612,-1.401343 0.29382,-0.925713 0.35113,-1.901798 0.44623,-2.862238 0.0523,-0.528516 0.10435,-1.05942 0.23287,-1.576478 0.15552,-0.625693 0.37785,-1.24719 0.37875,-1.89894 2.8e-4,-0.202432 -0.0203,-0.405529 -0.0829,-0.599789 -0.21052,-0.653107 -0.45656,-1.29429 -0.71187,-1.93093 -0.21607,-0.538788 -0.42729,-1.080347 -0.67538,-1.605427 -0.0832,-0.176026 -0.20737,-0.327902 -0.32422,-0.48214 -0.49138,-0.6486304 -1.0463,-1.254758 -1.43893,-1.9738193 -0.45112,-0.8261798 -0.83638,-1.6986237 -1.42963,-2.437769 -0.39746,-0.4952056 -0.90794,-0.9154983 -1.5085,-1.1320692 -0.70432,-0.2539898 -1.42773,-0.4523544 -2.12648,-0.7228326 -0.32959,-0.1275801 -0.6441,-0.2892384 -0.95815,-0.4511475 -0.31122,-0.1604478 -0.66194,-0.2433218 -0.95636,-0.4321609 -0.0852,-0.054635 -0.25118,-0.2937298 -0.22976,-0.195574 0.0178,0.081384 0.0561,0.1834139 0.10455,0.2612456 0.0419,0.067403 0.0714,0.2631471 0.1185,0.2286992 0.0369,-0.026961 0.0737,-0.053918 0.11057,-0.080854"
       id="path75"
       inkscape:path-effect="#path-effect77"
       inkscape:original-d="m 133.6732,49.613356 c -1.25871,-1.994148 0.009,-3.872928 0.69854,-5.821407 0.43114,-1.218872 0.81207,-2.532798 1.15051,-3.788532 0.17523,-0.650168 -0.007,-1.350528 0.10272,-2.014397 0.24145,-1.458309 0.47741,-3.219439 0.94508,-4.601684 0.21216,-0.627078 0.53254,-1.192011 0.71906,-1.829585 0.1474,-0.503881 0.16756,-1.092105 0.39035,-1.570855 0.29515,-0.634257 0.67839,-1.197457 0.86289,-1.88503 0.10059,-0.374872 0.0274,-0.776255 0.16437,-1.145801 0.26105,-0.704476 0.63225,-1.371488 0.90397,-2.06983 0.23044,-0.592289 0.16985,-1.215114 0.28762,-1.829587 0.10035,-0.523595 0.37737,-0.942947 0.55472,-1.441492 0.44783,-1.258851 0.42286,-2.72344 0.61635,-4.028787 0.13963,-0.942051 0.60746,-1.874821 0.47253,-2.84602 -0.0565,-0.406312 -1.31764,-3.603132 -1.52033,-3.899417 -0.50899,-0.744039 -1.19589,-1.4307907 -1.62304,-2.1991996 -0.80796,-1.4534409 -1.40641,-3.1392532 -3.12283,-3.733097 -0.94101,-0.3255671 -1.98358,-0.5890855 -2.85575,-1.0718797 -0.33099,-0.1832221 -0.70408,-0.3205798 -1.04778,-0.4804929 -0.0931,-0.043326 -0.29124,-0.2772809 -0.24654,-0.1848096 0.0685,0.1601666 0.13696,0.3203332 0.20544,0.4804998 0.0421,-0.030802 0.0842,-0.061603 0.12636,-0.092405" />
    <path
       style="fill:none;stroke:#000000;stroke-width:0.264583px;stroke-linecap:butt;stroke-linejoin:miter;stroke-opacity:1"
       d="m 160.09395,-0.72796396 c -0.71395,0.33164127 -1.32422,0.85774634 -1.80873,1.47448644 -0.8419,1.07166512 -1.37532,2.34916982 -2.2364,3.40827122 -0.57315,0.7049544 -1.23804,1.3472273 -1.67558,2.1522711 -0.27618,0.5081483 -0.464,1.0599387 -0.62136,1.6144659 -0.47833,1.6856325 -0.53867,3.4507973 -0.55703,5.1919803 -0.0199,1.886848 -0.0248,3.787458 -0.39087,5.649379 -0.16597,0.844208 -0.52683,1.629205 -0.81862,2.433466 -0.18416,0.507601 -0.30638,1.036101 -0.37259,1.572103 -0.12761,1.033104 -0.0672,2.08283 -0.23142,3.111186 -0.15958,0.999378 -0.53357,1.943937 -0.84178,2.902817 -0.24888,0.774304 -0.82082,1.391452 -1.07786,2.16386 -0.33441,1.004897 -0.36804,2.07228 -0.48936,3.11558 -0.0967,0.831437 -0.27268,1.667961 -0.67096,2.414469 -0.52252,0.97938 -1.04176,1.978459 -1.79049,2.809158 -1.04594,1.160439 -2.35579,2.052283 -3.35494,3.259471 -0.77117,0.931736 -1.48052,1.910945 -2.21271,2.873492 -0.29658,0.389888 -0.46418,0.888165 -0.85127,1.197352 -0.70011,0.559213 -1.36789,1.157715 -2.06172,1.724689 -0.74378,0.607794 -1.48546,1.231505 -2.32361,1.704708 -0.33397,0.188554 -0.68541,0.362278 -1.06816,0.432045 -0.14881,0.02712 -0.29196,-0.03321 -0.41764,-0.10619 -0.14141,-0.08212 -0.43153,0.0097 -0.45656,-0.154141 -0.0175,-0.114677 0.138,-0.1714 0.22728,-0.210592 0.093,-0.0408 0.145,-0.159511 0.0417,-0.234212 -0.10705,-0.07741 -0.23584,-0.118011 -0.36007,-0.158795"
       id="path79"
       inkscape:path-effect="#path-effect81"
       inkscape:original-d="m 160.09395,-0.72796396 c -1.96016,0.92698911 -2.54183,2.77592866 -3.67754,4.39839936 -0.75431,1.0776154 -1.73541,1.8281216 -2.25993,3.0862696 -1.64282,3.940615 -0.44146,8.265213 -1.41761,12.289638 -0.24722,1.019236 -0.77441,1.967645 -1.0067,3.012348 -0.25805,1.160616 -0.18774,2.475588 -0.32871,3.659174 -0.11694,0.981718 -0.56867,2.047041 -0.84234,2.993863 -0.21949,0.75937 -0.77779,1.359702 -1.04779,2.088314 -0.6572,1.773428 -0.27071,3.912407 -1.17106,5.599642 -0.4354,0.815938 -0.88956,1.699956 -1.45869,2.43945 -1.00471,1.305473 -2.51878,2.281897 -3.59536,3.548285 -0.81232,0.955537 -1.50767,2.004814 -2.30102,2.97539 -0.31453,0.384784 -0.58328,1.017323 -0.96562,1.312125 -1.0488,0.808659 -4.16505,3.752212 -5.44439,3.807018 -0.22347,0.0096 -0.32593,-0.132565 -0.51363,-0.166328 -0.98217,-0.176681 0.79377,-0.33178 -0.39036,-0.702268" />
    <path
       style="fill:none;stroke:#000000;stroke-width:0.264583px;stroke-linecap:butt;stroke-linejoin:miter;stroke-opacity:1"
       d="m 170.46364,19.582283 c -0.16715,0.234258 -0.35045,0.456447 -0.52926,0.681777 -0.51825,0.653093 -1.04736,1.300136 -1.50724,1.996192 -0.16913,0.255986 -0.33889,0.514868 -0.45819,0.798672 -0.0638,0.151707 -0.0854,0.316525 -0.10332,0.478702 -0.0706,0.638464 0.0165,1.286379 -0.0934,1.921507 -0.32988,1.906541 -0.9633,3.743457 -1.34722,5.637741 -0.15492,0.764379 -0.15817,1.555391 -0.37202,2.308194 -0.21763,0.766099 -0.5976,1.471362 -0.9727,2.169371 -0.37009,0.688693 -0.76237,1.377954 -0.97129,2.135468 -0.0533,0.193334 -0.10754,0.388541 -0.11998,0.58985 -0.0279,0.451141 -0.0201,0.903761 -0.003,1.355115 0.0267,0.725133 0.0623,1.452154 0.17257,2.169744 0.0422,0.2745 0.0712,0.557061 0.17904,0.814173 0.0311,0.07404 0.0535,0.17516 0.13247,0.20383 0.35662,0.12948 0.75187,0.156864 1.12151,0.06554 0.44714,-0.110469 0.83707,-0.375564 1.18293,-0.671141 0.53984,-0.461356 0.9896,-1.01832 1.53692,-1.471184 0.16831,-0.139263 0.34786,-0.26673 0.54582,-0.360944 0.40362,-0.192088 0.83129,-0.325819 1.2498,-0.480696 0.14401,-0.05329 0.29117,-0.100857 0.42744,-0.172501 0,0 0.006,-0.0035 0.006,-0.0035 0,0 0.006,-0.0035 0.006,-0.0035"
       id="path83"
       inkscape:path-effect="#path-effect85"
       inkscape:original-d="m 170.46364,19.582283 c -0.31328,0.459418 -2.37939,2.862684 -2.54757,3.640692 -0.15462,0.715295 -0.0176,1.509515 -0.14381,2.236158 -0.33115,1.906319 -0.9332,3.699876 -1.33542,5.581159 -0.17176,0.803367 -0.17068,1.665682 -0.41089,2.457931 -0.48842,1.610884 -1.68978,3.000545 -2.0134,4.601684 -0.1217,0.602107 0.0304,4.600371 0.47253,4.74953 1.847,0.623118 2.88053,-1.486202 4.12953,-2.310085 0.48274,-0.318431 1.69572,-0.648007 1.93122,-0.794665" />
    <path
       style="fill:none;stroke:#000000;stroke-width:0.264583px;stroke-linecap:butt;stroke-linejoin:miter;stroke-opacity:1"
       d="m 245.37287,19.359621 c -0.5472,-0.0856 -2.18879,-0.342411 -1.64159,-0.256808 0.5472,0.0856 1.09439,0.171205 1.64159,0.256808 z"
       id="path87"
       inkscape:path-effect="#path-effect89"
       inkscape:original-d="m 245.37287,19.359621 c -2.18879,-0.342411 -2.18879,-0.342411 0,0 z" />
  </g>
</svg>
