<?xml version="1.0" encoding="UTF-8" standalone="no"?>
<!-- Created with Inkscape (http://www.inkscape.org/) -->

<svg
   width="353.56799mm"
   height="264.16mm"
   viewBox="0 0 353.56799 264.16"
   version="1.1"
   id="svg5"
   inkscape:version="1.1.2 (08b2f3d93c, 2022-04-05)"
   sodipodi:docname="Fenda.svg"
   xmlns:inkscape="http://www.inkscape.org/namespaces/inkscape"
   xmlns:sodipodi="http://sodipodi.sourceforge.net/DTD/sodipodi-0.dtd"
   xmlns="http://www.w3.org/2000/svg"
   xmlns:svg="http://www.w3.org/2000/svg">
  <sodipodi:namedview
     id="namedview7"
     pagecolor="#ffffff"
     bordercolor="#666666"
     borderopacity="1.0"
     inkscape:pageshadow="2"
     inkscape:pageopacity="0.0"
     inkscape:pagecheckerboard="0"
     inkscape:document-units="mm"
     showgrid="false"
     inkscape:zoom="0.41012193"
     inkscape:cx="819.26855"
     inkscape:cy="493.7556"
     inkscape:window-width="1366"
     inkscape:window-height="704"
     inkscape:window-x="0"
     inkscape:window-y="27"
     inkscape:window-maximized="1"
     inkscape:current-layer="layer2" />
  <defs
     id="defs2">
    <inkscape:path-effect
       effect="simplify"
       id="path-effect129"
       is_visible="true"
       lpeversion="1"
       steps="1"
       threshold="0.000408163"
       smooth_angles="360"
       helper_size="0"
       simplify_individual_paths="false"
       simplify_just_coalesce="false" />
    <inkscape:path-effect
       effect="simplify"
       id="path-effect125"
       is_visible="true"
       lpeversion="1"
       steps="1"
       threshold="0.000408163"
       smooth_angles="360"
       helper_size="0"
       simplify_individual_paths="false"
       simplify_just_coalesce="false" />
    <inkscape:path-effect
       effect="simplify"
       id="path-effect121"
       is_visible="true"
       lpeversion="1"
       steps="1"
       threshold="0.000408163"
       smooth_angles="360"
       helper_size="0"
       simplify_individual_paths="false"
       simplify_just_coalesce="false" />
    <inkscape:path-effect
       effect="simplify"
       id="path-effect117"
       is_visible="true"
       lpeversion="1"
       steps="1"
       threshold="0.000408163"
       smooth_angles="360"
       helper_size="0"
       simplify_individual_paths="false"
       simplify_just_coalesce="false" />
    <inkscape:path-effect
       effect="simplify"
       id="path-effect113"
       is_visible="true"
       lpeversion="1"
       steps="1"
       threshold="0.000408163"
       smooth_angles="360"
       helper_size="0"
       simplify_individual_paths="false"
       simplify_just_coalesce="false" />
    <inkscape:path-effect
       effect="simplify"
       id="path-effect109"
       is_visible="true"
       lpeversion="1"
       steps="1"
       threshold="0.000408163"
       smooth_angles="360"
       helper_size="0"
       simplify_individual_paths="false"
       simplify_just_coalesce="false" />
    <inkscape:path-effect
       effect="simplify"
       id="path-effect105"
       is_visible="true"
       lpeversion="1"
       steps="1"
       threshold="0.000408163"
       smooth_angles="360"
       helper_size="0"
       simplify_individual_paths="false"
       simplify_just_coalesce="false" />
    <inkscape:path-effect
       effect="simplify"
       id="path-effect101"
       is_visible="true"
       lpeversion="1"
       steps="1"
       threshold="0.000408163"
       smooth_angles="360"
       helper_size="0"
       simplify_individual_paths="false"
       simplify_just_coalesce="false" />
    <inkscape:path-effect
       effect="simplify"
       id="path-effect97"
       is_visible="true"
       lpeversion="1"
       steps="1"
       threshold="0.000408163"
       smooth_angles="360"
       helper_size="0"
       simplify_individual_paths="false"
       simplify_just_coalesce="false" />
    <inkscape:path-effect
       effect="simplify"
       id="path-effect93"
       is_visible="true"
       lpeversion="1"
       steps="1"
       threshold="0.000408163"
       smooth_angles="360"
       helper_size="0"
       simplify_individual_paths="false"
       simplify_just_coalesce="false" />
    <inkscape:path-effect
       effect="simplify"
       id="path-effect89"
       is_visible="true"
       lpeversion="1"
       steps="1"
       threshold="0.000408163"
       smooth_angles="360"
       helper_size="0"
       simplify_individual_paths="false"
       simplify_just_coalesce="false" />
    <inkscape:path-effect
       effect="simplify"
       id="path-effect85"
       is_visible="true"
       lpeversion="1"
       steps="1"
       threshold="0.000408163"
       smooth_angles="360"
       helper_size="0"
       simplify_individual_paths="false"
       simplify_just_coalesce="false" />
    <inkscape:path-effect
       effect="simplify"
       id="path-effect81"
       is_visible="true"
       lpeversion="1"
       steps="1"
       threshold="0.000408163"
       smooth_angles="360"
       helper_size="0"
       simplify_individual_paths="false"
       simplify_just_coalesce="false" />
    <inkscape:path-effect
       effect="simplify"
       id="path-effect77"
       is_visible="true"
       lpeversion="1"
       steps="1"
       threshold="0.000408163"
       smooth_angles="360"
       helper_size="0"
       simplify_individual_paths="false"
       simplify_just_coalesce="false" />
    <inkscape:path-effect
       effect="simplify"
       id="path-effect73"
       is_visible="true"
       lpeversion="1"
       steps="1"
       threshold="0.000408163"
       smooth_angles="360"
       helper_size="0"
       simplify_individual_paths="false"
       simplify_just_coalesce="false" />
    <inkscape:path-effect
       effect="simplify"
       id="path-effect69"
       is_visible="true"
       lpeversion="1"
       steps="1"
       threshold="0.000408163"
       smooth_angles="360"
       helper_size="0"
       simplify_individual_paths="false"
       simplify_just_coalesce="false" />
    <inkscape:path-effect
       effect="simplify"
       id="path-effect65"
       is_visible="true"
       lpeversion="1"
       steps="1"
       threshold="0.000408163"
       smooth_angles="360"
       helper_size="0"
       simplify_individual_paths="false"
       simplify_just_coalesce="false" />
    <inkscape:path-effect
       effect="simplify"
       id="path-effect61"
       is_visible="true"
       lpeversion="1"
       steps="1"
       threshold="0.000408163"
       smooth_angles="360"
       helper_size="0"
       simplify_individual_paths="false"
       simplify_just_coalesce="false" />
    <inkscape:path-effect
       effect="simplify"
       id="path-effect57"
       is_visible="true"
       lpeversion="1"
       steps="1"
       threshold="0.000408163"
       smooth_angles="360"
       helper_size="0"
       simplify_individual_paths="false"
       simplify_just_coalesce="false" />
  </defs>
  <g
     inkscape:groupmode="layer"
     id="layer2"
     inkscape:label="Fenda">
    <path
       style="fill:none;stroke:#000000;stroke-width:0.264583px;stroke-linecap:butt;stroke-linejoin:miter;stroke-opacity:1"
       d="m 13.891463,102.70039 c -0.831451,0.12736 -1.592549,0.5025 -2.370815,0.80053 -0.526955,0.20179 -1.07765,0.35614 -1.6446255,0.38363 -0.8562704,0.0415 -1.7178336,-0.0284 -2.5577231,-0.19511 -0.7103571,-0.14101 -1.4268487,-0.32915 -2.0539906,-0.70069 -0.3595863,-0.21303 -0.7125502,-0.50413 -0.8452374,-0.91415 -0.1410197,-0.43577 -0.2131669,-0.89077 -0.2642482,-1.34458 -0.060203,-0.53485 -0.1007004,-1.074971 -0.06493,-1.613321 0.028114,-0.423122 0.2230421,-0.811262 0.4361777,-1.168765 0.1723033,-0.289013 0.3440532,-0.580583 0.5518203,-0.845162 0.3959994,-0.504281 0.8921307,-0.929475 1.2280965,-1.480371 0.088987,-0.145916 0.1398807,-0.309807 0.17183,-0.478387 0.1173107,-0.618988 0.4041542,-1.18854 0.7043851,-1.736603 0.2742064,-0.500556 0.5758279,-0.985584 0.8297952,-1.497664 0.1871289,-0.377312 0.3649896,-0.769827 0.6537107,-1.083218 0.1832716,-0.198931 0.4487891,-0.329832 0.72393,-0.310851 0.3558449,0.02455 0.6611655,0.230961 0.9479145,0.426 0.247999,0.168682 0.515236,0.352036 0.82628,0.359163 0.242781,0.0056 0.46282,-0.12079 0.661875,-0.244925 0.302923,-0.18891 0.534352,-0.488917 0.629869,-0.834616 0.139618,-0.505312 0.0682,-1.033373 0.07056,-1.549529 0.0019,-0.411778 0.0649,-0.846136 0.315611,-1.185725 0.179364,-0.242945 0.423113,-0.428502 0.666552,-0.601962 0.334453,-0.238311 0.687229,-0.468352 1.085453,-0.581164 0.205862,-0.05832 0.472181,-0.09349 0.631074,0.07418 0.170001,0.179393 0.202207,0.456131 0.401018,0.613623 0.137775,0.109141 0.329994,0.06177 0.466941,-0.021 0.174505,-0.105469 0.247121,-0.312626 0.292614,-0.499937 0.115909,-0.477235 0.123705,-0.972479 0.122443,-1.460989 -0.0014,-0.550653 -0.06113,-1.099481 -0.06651,-1.649803 -0.0064,-0.657633 0.194619,-1.298679 0.147658,-1.960506 -0.0242,-0.341065 -0.05661,-0.683547 -0.02065,-1.026713 0.01171,-0.111774 0.07806,-0.240716 0.211986,-0.227939 0.206128,0.01967 0.386415,0.137052 0.557288,0.244624 0.244765,0.154091 0.443716,0.381768 0.70618,0.502295 0.202163,0.09284 0.426631,0.126015 0.646089,0.145454 0.297123,0.02632 0.605117,0.04387 0.894674,-0.04163 0.105867,-0.03126 0.192642,-0.106245 0.234286,-0.215138 0.168162,-0.439721 0.09222,-0.92932 -0.05779,-1.361983 -0.26424,-0.762164 -0.71258,-1.439851 -1.117911,-2.13161 -0.257892,-0.440132 -0.542118,-0.876743 -0.68561,-1.369868 -0.0671,-0.230609 -0.124394,-0.512607 0.02385,-0.71663 0.146984,-0.202283 0.364857,-0.335108 0.560772,-0.484406 0.208336,-0.158764 0.362674,-0.373917 0.5223,-0.578505 0.245337,-0.314441 0.462626,-0.661291 0.775724,-0.912588 0.376181,-0.301928 0.850386,-0.434414 1.303987,-0.574607 0.19014,-0.05877 0.390195,-0.09068 0.57139,-0.174412 0.269721,-0.12464 0.473396,-0.367911 0.755604,-0.463303 0.268262,-0.09068 0.560448,-0.08874 0.819116,-0.218536 1.061994,-0.532908 2.059907,-1.208723 2.905308,-2.043128 0.355791,-0.351163 0.64562,-0.774226 1.054517,-1.067024 0.404481,-0.289636 0.894853,-0.406415 1.354644,-0.575785 0.36197,-0.133336 0.711215,-0.34209 0.934378,-0.659769 0.151881,-0.216207 0.383682,-0.353523 0.558672,-0.547586 0.130614,-0.14485 0.159421,-0.344692 0.16569,-0.534768 0.0069,-0.2077 -0.08967,-0.79465 0.02961,-0.622659 0.04774,0.06883 0.05725,0.165097 0.07718,0.248263 0.03911,0.163194 0.03581,0.363861 0.165589,0.478823 0.08966,0.07942 0.214156,0.101061 0.327503,0.126955 0.600131,0.137101 1.211011,0.221987 1.821853,0.29335 0.539506,0.06303 1.090798,0.03938 1.622856,0.150494 0.09475,0.01979 0.187007,-0.01487 0.175664,-0.132617 -0.02208,-0.229205 -0.125209,-0.440615 -0.226313,-0.643852 -0.327532,-0.658397 -0.78695,-1.243752 -1.109255,-1.903534 -0.03195,-0.0654 -0.116031,-0.145778 -0.0018,-0.199544 0.378065,-0.177882 0.797911,-0.244078 1.210496,-0.277937 0.74107,-0.06082 1.492822,-0.03873 2.223127,0.102586 0.276952,0.05359 0.554426,0.12065 0.81198,0.23823"
       id="path55"
       inkscape:path-effect="#path-effect57"
       inkscape:original-d="m 13.891463,102.70039 c -1.245221,0.19233 -2.296261,0.92377 -3.517197,1.13153 -1.4097118,0.23987 -5.2280676,-0.1672 -5.9061547,-1.63359 -0.2632075,-0.56919 -0.5081394,-2.650045 -0.3362568,-3.360018 0.1324461,-0.547076 0.5659035,-1.176271 0.8737433,-1.635167 0.345535,-0.515091 1.3648473,-1.365821 1.4587611,-1.979001 0.1493396,-0.975061 0.8443399,-2.01712 1.3098912,-2.848777 0.5198407,-0.92864 0.9019405,-2.418194 2.2370199,-1.647436 0.441798,0.255056 0.907523,0.750758 1.47309,0.507778 1.936479,-0.831961 0.377462,-2.767849 1.497922,-3.916138 0.293624,-0.300916 1.718729,-1.424503 2.242541,-0.942469 0.221801,0.20411 0.266163,0.920197 0.867959,0.592621 0.640985,-0.348906 0.349351,-3.117286 0.348291,-3.636706 -0.0011,-0.553566 0.16195,-1.102201 0.16195,-1.664083 0,-0.361987 -0.133241,-1.08711 0,-1.41926 0.167381,-0.417255 1.232937,0.523717 1.440775,0.641081 0.263989,0.149071 1.593716,0.306046 1.74989,-0.04993 0.760891,-1.734328 -2.369389,-4.46912 -1.836167,-5.599076 0.10608,-0.224795 0.56506,-0.471916 0.753943,-0.677222 0.363083,-0.394655 0.677126,-0.911267 1.039331,-1.26115 0.456502,-0.440973 1.248764,-0.606414 1.829554,-0.776639 0.294755,-0.08639 0.546223,-0.343643 0.812492,-0.481468 0.225631,-0.116789 0.579105,-0.0954 0.836362,-0.221982 1.043402,-0.513414 2.040808,-1.209313 2.906465,-2.015953 0.360905,-0.336302 0.803791,-0.9393 1.210337,-1.189239 0.799261,-0.491373 1.585521,-0.384178 2.215335,-1.199076 0.300691,-0.389054 0.70123,-0.454982 0.70123,-1.000651 0,-0.190826 0.03745,-0.371888 0.03745,-0.567452 0,-0.03566 -0.01638,-0.13865 0,-0.106979 0.08745,0.168989 0.09861,0.666194 0.283485,0.762476 0.448022,0.233315 3.809169,0.607941 3.872828,0.521333 0.265372,-0.361038 -1.467763,-2.780631 -1.375031,-2.832852 0.889973,-0.5012 3.354003,-0.417076 4.310734,0.0286" />
    <path
       style="fill:none;stroke:#000000;stroke-width:0.264583px;stroke-linecap:butt;stroke-linejoin:miter;stroke-opacity:1"
       d="m 37.391975,64.223489 c 0.359056,0.200722 0.742443,0.357667 1.139327,0.466198 0.410049,0.112131 0.832507,0.170043 1.254917,0.211029 0.362024,0.03513 0.724115,0.06927 1.086538,0.100324 0.2868,0.02458 0.574984,-0.01429 0.854639,-0.07703 0.447869,-0.100482 0.880019,-0.262739 1.33156,-0.347854 0.08851,-0.01668 0.177638,-0.03025 0.267257,-0.03936"
       id="path59"
       inkscape:path-effect="#path-effect61"
       inkscape:original-d="m 37.391975,64.223489 c 1.223176,0.681421 2.241594,0.643073 3.470989,0.776695 0.8358,0.07509 1.648661,-0.380625 2.463249,-0.463388" />
    <path
       style="fill:none;stroke:#000000;stroke-width:0.264583px;stroke-linecap:butt;stroke-linejoin:miter;stroke-opacity:1"
       d="m 13.891463,102.70039 c 0.502056,-0.9535 0.956621,-1.93354 1.506061,-2.860605 0.305051,-0.51471 0.726781,-0.945548 1.136218,-1.376943 0.371732,-0.391668 0.765643,-0.768676 1.071875,-1.215906 0.266703,-0.3895 0.389651,-0.857354 0.456832,-1.318936 0.08197,-0.563171 0.120452,-1.137487 0.305121,-1.680898 0.140076,-0.412191 0.374589,-0.783872 0.638175,-1.1282 0.634465,-0.828816 1.375587,-1.584578 1.885443,-2.501886 0.227207,-0.40878 0.410448,-0.852394 0.454966,-1.322838 0.0712,-0.752454 -0.100566,-1.510072 0.01683,-2.259941 0.03963,-0.253153 0.126569,-0.495026 0.190609,-0.742493 0.219797,-0.849351 0.397934,-1.711098 0.499387,-2.58159 0.04111,-0.352744 -0.06435,-0.706347 0.0084,-1.059437 0.147041,-0.713318 0.433317,-1.386826 0.673083,-2.072136 0.04568,-0.130562 0.163647,-0.227084 0.301262,-0.247763 0.191351,-0.02875 0.39005,-0.01627 0.573343,-0.09215 0.356351,-0.147517 0.669643,-0.381427 0.958483,-0.632821 0.365823,-0.318397 0.705392,-0.671282 0.982646,-1.071057 0.12861,-0.185444 0.206961,-0.400953 0.238464,-0.624701 0.06284,-0.446328 -0.01984,-0.912935 0.123356,-1.345344 0.06226,-0.187994 0.160263,-0.361398 0.24558,-0.539572 0.327823,-0.684617 0.608413,-1.402826 1.056922,-2.01749 0.222555,-0.305003 0.480516,-0.582287 0.737557,-0.858035 0.681883,-0.731509 1.365634,-1.464746 2.113036,-2.129425 0.183699,-0.163367 0.354941,-0.34804 0.569683,-0.46974 0.315381,-0.178735 0.711144,-0.09984 1.023647,-0.279941 0.185556,-0.10694 0.333567,-0.293332 0.558386,-0.321592 0.450707,-0.05666 0.908341,0.01008 1.358254,-0.06608 0.153259,-0.02594 0.289668,-0.107641 0.400734,-0.215203 0.342056,-0.331264 0.601576,-0.739161 0.963687,-1.051873 0.181595,-0.156822 0.425523,-0.190343 0.650379,-0.243009 0.241582,-0.05658 0.439336,-0.214594 0.63605,-0.356701 0.352984,-0.254997 0.684321,-0.562956 1.099287,-0.709188 0.525916,-0.18533 1.093321,-0.200205 1.644925,-0.174756 0.824656,0.03805 1.653825,0.200773 2.477117,0.08077 0.273009,-0.03979 0.55523,-0.08935 0.789438,-0.246597 0.502897,-0.337649 0.82044,-0.897466 1.351252,-1.195678 0.145978,-0.08201 0.312659,-0.163656 0.485917,-0.121113 0.256629,0.06302 0.439402,0.268738 0.654704,0.408269 0.0994,0.06442 0.123298,-0.132281 0.11739,-0.199088 -0.02273,-0.257024 -0.148796,-0.488069 -0.259717,-0.71585 -0.05571,-0.114409 -0.09604,-0.233964 -0.119068,-0.361184 -0.02274,-0.125632 0.02749,-0.322953 -0.09158,-0.373168 -0.08776,-0.03701 -0.202452,0.0034 -0.299197,0.01675 -0.250449,0.03461 -0.499925,0.07582 -0.750211,0.111545"
       id="path63"
       inkscape:path-effect="#path-effect65"
       inkscape:original-d="m 13.891463,102.70039 c 0.488441,-0.92931 0.965875,-1.86449 1.465324,-2.787928 0.558631,-1.032861 2.017603,-2.100585 2.414657,-2.952469 0.555376,-1.19157 0.108408,-2.290276 1.084043,-3.639159 0.775185,-1.071747 1.995813,-2.22595 2.393294,-3.518095 0.293844,-0.955236 -0.101516,-2.115032 0.180636,-3.063627 0.301175,-1.012549 0.442401,-1.96556 0.616675,-2.982124 0.05685,-0.331626 -0.05978,-0.694494 0,-1.025583 0.123511,-0.684096 0.434352,-1.485267 0.682059,-2.136767 0.132918,-0.349586 0.416982,-0.245819 0.716809,-0.306199 0.652952,-0.131496 1.955434,-1.339911 2.24663,-2.008259 0.233091,-0.534985 0.02492,-1.345827 0.280978,-1.869932 0.368613,-0.754484 0.782678,-1.704018 1.23329,-2.389574 0.353435,-0.537713 2.939311,-3.186605 3.41504,-3.46229 0.296548,-0.17185 0.62851,-0.125542 0.948317,-0.245221 0.219792,-0.08225 0.374417,-0.31377 0.606851,-0.357368 0.422878,-0.07932 1.246034,0.05016 1.612514,-0.145203 0.343032,-0.182861 0.813752,-0.97976 1.229505,-1.251648 0.249016,-0.162849 0.56759,-0.13412 0.831395,-0.289042 0.486508,-0.285707 1.042562,-0.836951 1.576036,-0.997529 1.423971,-0.42862 3.063282,0.23795 4.475734,-0.149365 0.716536,-0.196488 1.19217,-1.224196 1.938911,-1.467684 0.406863,-0.132665 0.89208,0.474869 0.941605,0.419852 0.230563,-0.256125 -0.223211,-0.905934 -0.295421,-1.173406 -0.01249,-0.04623 -0.06232,-0.519372 -0.137805,-0.510892 -0.34208,0.03843 -0.681551,0.09728 -1.022327,0.145917" />
    <path
       style="fill:none;stroke:#000000;stroke-width:0.264583px;stroke-linecap:butt;stroke-linejoin:miter;stroke-opacity:1"
       d="m 0.61768584,161.16573 c 0.23220438,-0.48488 0.46294646,-0.9704 0.72618156,-1.43992 0.7945718,-1.41725 1.6201539,-2.82804 2.1926805,-4.35539 0.521764,-1.39193 0.935727,-2.8484 1.7540049,-4.10403 0.3301118,-0.50655 0.7165109,-0.98287 1.2043966,-1.3501 0.4707745,-0.35435 1.010515,-0.63032 1.4088656,-1.07006 0.269508,-0.29751 0.4588674,-0.69864 0.8170009,-0.88737 0.1699709,-0.0896 0.3703025,-0.09 0.5577167,-0.1298 0.4241393,-0.09 0.7788164,-0.35865 1.0797714,-0.66205 0.651711,-0.65701 1.142454,-1.45614 1.517295,-2.29813 0.244242,-0.54863 0.504342,-1.0989 0.639481,-1.68395 0.138801,-0.60091 0.139923,-1.23962 0.374378,-1.81202 0.07498,-0.18306 0.213778,-0.33051 0.333017,-0.48599 0.388466,-0.50652 0.818743,-1.01019 1.402191,-1.29973 0.574432,-0.28507 1.211457,-0.43021 1.774924,-0.73469 0.687116,-0.3713 1.248044,-0.92517 1.814837,-1.45187 0.342316,-0.3181 0.626909,-0.69254 0.909349,-1.06296 0.453348,-0.59456 0.931885,-1.1757 1.310134,-1.82124 0.307393,-0.52461 0.412567,-1.1683 0.85674,-1.61012 0.529875,-0.52707 1.199249,-0.88994 1.880944,-1.17865 0.314891,-0.13336 0.6226,-0.30952 0.960677,-0.3618 0.205752,-0.0318 0.439514,0.0704 0.620499,-0.0821 1.115628,-0.9401 1.906026,-2.18403 2.702178,-3.38931 0.67658,-1.02426 1.346313,-2.09566 2.315591,-2.86324 0.476101,-0.37703 1.100847,-0.4236 1.660708,-0.60093 0.477801,-0.15134 0.881731,-0.48328 1.157785,-0.90227 0.711779,-1.08032 1.294242,-2.26124 1.596716,-3.52634 0.109867,-0.45952 0.128398,-0.93314 0.118132,-1.4038 -0.0092,-0.42123 0.03008,-0.84245 0.133446,-1.25317 0.23026,-0.91491 0.625686,-1.78551 0.800727,-2.71272 0.08906,-0.47175 -0.02027,-0.98609 0.222373,-1.42401 0.228001,-0.41149 0.418094,-0.86147 0.760257,-1.19336 0.348842,-0.33837 0.857873,-0.37061 1.31395,-0.44115 0.264774,-0.0409 0.542172,0.007 0.794606,-0.12459 0.918132,-0.47881 1.623164,-1.25495 2.341047,-1.98084 0.680427,-0.68802 1.022922,-1.61019 1.436395,-2.46495 0.236409,-0.48872 0.541974,-0.94303 0.921896,-1.33558 0.493772,-0.51019 0.955344,-1.08212 1.580015,-1.43165 0.434962,-0.24338 0.911411,-0.39891 1.373139,-0.58277 0.943219,-0.37558 1.76172,-0.99484 2.535652,-1.6383 0.582237,-0.48408 1.16759,-0.9663 1.695302,-1.51182 0.815638,-0.843159 1.58237,-1.762895 2.596978,-2.381906 0.811463,-0.495072 1.756865,-0.750848 2.529985,-1.30294 0.280844,-0.200553 0.526823,-0.446584 0.842757,-0.601508 1.061918,-0.520729 2.259222,-0.667193 3.429315,-0.661459"
       id="path67"
       inkscape:path-effect="#path-effect69"
       inkscape:original-d="m 0.61768584,161.16573 c 0.18334532,-0.374 0.34950019,-0.75693 0.55003596,-1.12199 0.7868847,-1.43249 1.6385453,-2.79716 2.2378226,-4.33043 0.7117014,-1.82091 1.1930181,-3.7793 2.506137,-5.27553 0.5185151,-0.59082 1.3148328,-0.94791 1.9112851,-1.50708 0.2119432,-0.1987 0.7626382,-0.98311 1.0004089,-1.01718 0.8437129,-0.1209 1.1490285,-0.29118 1.8301786,-1.06858 0.874331,-0.99787 1.413629,-2.31763 1.832979,-3.55885 0.119015,-0.35227 0.27367,-1.77836 0.464137,-2.03701 1.236918,-1.67969 1.414717,-1.56939 3.250811,-2.30515 0.699213,-0.28019 1.461306,-1.06366 2.040216,-1.5671 0.406744,-0.35371 1.837965,-2.27886 2.179198,-2.83874 0.279994,-0.4594 0.407565,-1.09783 0.759776,-1.51129 0.632527,-0.74254 1.977613,-1.33898 2.884131,-1.64415 0.241069,-0.0812 0.469473,0.0858 0.687968,-0.0989 2.065843,-1.74657 2.947589,-4.40053 4.939851,-6.18707 0.818883,-0.73433 2.03794,-0.29254 2.859513,-1.51356 0.78781,-1.17084 1.536584,-2.66973 1.720787,-4.08035 0.0834,-0.63871 -0.03818,-1.29257 0.109024,-1.92992 0.226115,-0.979 0.589108,-1.88402 0.835753,-2.84915 0.124216,-0.48606 -0.01553,-1.02579 0.226142,-1.48428 0.712181,-1.35119 0.8437,-1.54255 2.182995,-1.67542 0.191701,-0.019 0.436226,0.0171 0.614672,-0.0707 0.943491,-0.46412 1.638122,-1.25077 2.376879,-1.97346 1.12169,-1.0973 1.30698,-2.72053 2.288881,-3.7267 0.497882,-0.51019 1.25726,-1.37632 1.922529,-1.67424 0.637484,-0.28548 1.26493,-0.46629 1.872247,-0.80999 0.928415,-0.52544 1.884759,-1.34588 2.69721,-2.03158 1.089409,-0.91945 1.991638,-2.236675 3.183226,-3.013817 0.884007,-0.57654 1.732251,-0.859396 2.651604,-1.379027 0.289112,-0.163409 0.511188,-0.445947 0.814821,-0.601538 1.138092,-0.583189 2.303894,-0.727811 3.562816,-0.727811" />
    <path
       style="fill:none;stroke:#000000;stroke-width:0.264583px;stroke-linecap:butt;stroke-linejoin:miter;stroke-opacity:1"
       d="m -0.14728425,175.35499 c 0.11576416,-0.27536 0.14473672,-0.60261 0.33746176,-0.83048 0.13887234,-0.1642 0.24049519,-0.36093 0.36866283,-0.5363 0.50349566,-0.68893 1.16258356,-1.29193 1.45249776,-2.11325 0.137103,-0.38841 0.1038246,-0.80968 0.1584437,-1.21298 0.046979,-0.34689 0.059355,-0.78503 0.3685192,-0.99214 0.2946717,-0.1974 0.662902,-0.22565 1.0058221,-0.26521 0.4986591,-0.0575 1.0106734,-0.0157 1.4996667,-0.13172 0.1860912,-0.0442 0.3012268,-0.22138 0.3974503,-0.37239 0.2673788,-0.41962 0.262526,-0.96202 0.033498,-1.42804 -0.086295,-0.17559 -0.4312163,-0.45411 -0.2438225,-0.55624 0.1611688,-0.0878 0.3588165,0.009 0.5135501,0.0711 0.5603267,0.2254 1.0551571,0.64997 1.6584564,0.73056 1.0060201,0.13439 2.0369976,0.1244 3.0346352,-0.0702 0.934815,-0.18237 1.831814,-0.58241 2.561787,-1.20837 0.167719,-0.14382 0.408573,-0.25401 0.465956,-0.48025 0.118896,-0.46876 -0.100417,-0.93479 -0.347262,-1.32325 -0.311569,-0.49032 -0.699323,-0.94314 -0.863429,-1.51592 -0.324145,-1.13137 -0.103298,-2.33694 0.285692,-3.4242 0.202634,-0.56638 0.498754,-1.09202 0.750393,-1.63699 0.229924,-0.49794 0.31148,-1.09538 0.724939,-1.48401 0.256304,-0.24091 0.626545,-0.31347 0.967624,-0.3141 0.343844,-6.4e-4 0.644284,0.23408 0.788729,0.53912 0.250516,0.52904 0.293797,1.1234 0.376733,1.69474 0.101118,0.6966 0.194876,1.42471 0.571674,2.0365 0.251667,0.40862 0.694188,0.66802 1.165549,0.74674 0.383634,0.0641 0.814138,0.054 1.13652,-0.20564 0.362659,-0.29211 0.66821,-0.64639 0.967871,-0.99995 0.501342,-0.59152 0.675674,-1.37386 0.770962,-2.12314 0.07462,-0.58673 0.173243,-1.1697 0.303808,-1.74718 0.352593,-1.55949 0.954118,-3.06987 1.137102,-4.6593 0.07635,-0.6632 -0.253764,-1.35784 -0.0158,-1.99054 0.211062,-0.56118 0.463853,-1.10743 0.735588,-1.64176 0.60385,-1.1874 1.330704,-2.33715 2.327722,-3.23975 0.858941,-0.7776 1.854566,-1.42102 2.578572,-2.33315 0.657477,-0.82831 1.037872,-1.82372 1.517373,-2.756 0.18859,-0.36667 0.190127,-0.85628 0.518348,-1.1245 0.552384,-0.45141 1.196707,-0.77169 1.742035,-1.2357 1.210237,-1.02978 2.357793,-2.1786 3.156934,-3.54344 0.237189,-0.40509 0.133706,-0.89611 0.288172,-1.33008 0.280974,-0.78939 0.452691,-1.61951 0.470542,-2.4583 0.01262,-0.59318 0.0045,-1.18632 -0.02145,-1.78004 -0.01655,-0.37841 -0.06881,-0.77867 0.07361,-1.13956 0.07713,-0.19546 0.310711,-0.21681 0.48753,-0.25274 0.271823,-0.0552 0.4774,-0.25474 0.694903,-0.41215 0.361532,-0.26165 0.747642,-0.52086 1.20625,-0.5807 0.414102,-0.054 0.86802,0.0481 1.246362,-0.14226 0.645302,-0.32471 1.262921,-0.70381 1.861338,-1.10711 0.339272,-0.22865 0.728493,-0.40604 1.00092,-0.71266 0.290607,-0.32708 0.314121,-0.79569 0.307756,-1.21088 -0.0137,-0.89339 -0.226627,-1.76895 -0.250468,-2.66209 -0.0082,-0.30599 0.09942,-0.60511 0.296732,-0.84145 0.252985,-0.30303 0.549114,-0.57922 0.702907,-0.95373 0.194396,-0.47338 0.381759,-0.95092 0.535817,-1.43911 0.347418,-1.10093 0.0433,-2.61954 0.959095,-3.32682 0.138208,-0.10674 0.334911,-0.093 0.502292,-0.11315 0.26867,-0.0324 0.584723,0.0574 0.807424,-0.0987 0.288111,-0.20195 0.481278,-0.5071 0.67971,-0.79108 0.445436,-0.63748 0.898657,-1.2695 1.309997,-1.9307 0.124485,-0.2001 0.357204,-0.26569 0.581358,-0.28319 0.415335,-0.0324 0.828559,0.005 1.246592,-0.0392 0.266264,-0.0284 0.596243,-0.13254 0.81235,0.0657 0.225126,0.20648 0.207973,0.53907 0.23461,0.81799 0.04997,0.52327 0.06331,2.1001 0.07349,1.57458 0.0084,-0.43388 -0.01548,-0.87799 -0.19712,-1.28019 -0.46874,-1.03792 -0.929276,-2.09783 -1.129172,-3.22367 -0.09508,-0.53548 -0.164617,-1.10891 0.03756,-1.6297 0.09464,-0.2438 0.311647,-0.40309 0.543612,-0.5122 0.262037,-0.12326 0.533949,-0.23472 0.744803,-0.44753 0.284625,-0.28726 0.482588,-0.70899 0.876813,-0.84593 0.236896,-0.0823 0.495322,-0.0704 0.742709,-0.0725 1.353393,-0.0115 2.698034,0.21997 4.052149,0.1691 0.460791,-0.0173 0.923197,-0.12781 1.316023,-0.38043 0.758786,-0.48797 1.289984,-1.24052 2.034717,-1.75195 0.341666,-0.23463 1.173516,-0.36155 1.000246,-0.73885 -0.181463,-0.39514 -0.467543,-0.75745 -0.544057,-1.18684 -0.05884,-0.33022 0.07082,-0.671525 -0.07198,-0.997923 -0.400447,-0.915286 -1.387244,-1.543319 -1.55643,-2.532868 -0.07721,-0.451592 -0.182621,-0.910071 -0.148426,-1.367158 0.015,-0.20048 0.336724,-0.134199 0.493851,-0.143966 0.181839,-0.0113 0.363971,-0.01793 0.545607,-0.03243"
       id="path71"
       inkscape:path-effect="#path-effect73"
       inkscape:original-d="m -0.14728425,175.35499 c 0.58495892,-1.37244 0.15113714,-0.49491 0.47844087,-1.02856 0.53798009,-0.87715 1.36183728,-1.51431 1.70509918,-2.5217 0.1681277,-0.49342 0.00418,-1.83074 0.551285,-2.16952 0.563758,-0.34909 2.3666135,-0.22955 2.579447,-0.41247 0.4195201,-0.36055 0.6452526,-1.0368 0.4178292,-1.55592 -0.1112131,-0.25386 -0.5579766,-0.7532 -0.2823313,-0.78205 0.4432144,-0.0464 1.56988,0.77464 2.1909897,0.84829 1.80497,0.21402 4.0502906,0.008 5.4467166,-1.24443 0.134853,-0.12094 0.473477,-0.33111 0.519321,-0.5065 0.25735,-0.98457 -0.826715,-1.78554 -1.126925,-2.6205 -0.614541,-1.7092 0.06977,-3.63375 0.880201,-5.14385 0.351709,-0.65535 0.431459,-1.63676 1.188078,-1.86762 2.734934,-0.83446 0.721109,4.36007 3.388261,4.90937 0.332246,0.0684 0.802087,0.10293 1.09626,-0.0891 0.373917,-0.24407 0.677684,-0.64359 0.984678,-0.96393 0.89968,-0.93879 0.831242,-2.24209 1.063687,-3.39421 0.351306,-1.74126 0.909435,-3.4384 1.253631,-5.17805 0.126032,-0.63699 -0.204318,-1.61182 0.03799,-2.19625 0.603313,-1.45514 1.533045,-3.33171 2.71265,-4.47649 0.867802,-0.84218 1.910799,-1.54889 2.745115,-2.45575 0.708175,-0.76975 1.121166,-1.96487 1.645959,-2.89385 0.17875,-0.31642 0.286983,-0.95697 0.560028,-1.17692 0.472474,-0.38062 1.011124,-0.64654 1.477356,-1.01725 1.291154,-1.02662 2.362708,-2.41504 3.375629,-3.71129 0.232068,-0.29698 0.153633,-0.91797 0.272716,-1.2548 0.52904,-1.49639 0.519766,-2.27344 0.519766,-3.77181 0,-0.4256 -0.173635,-1.46453 0.09425,-1.8013 0.09197,-0.11562 0.512074,-0.15198 0.650041,-0.23773 0.397135,-0.24683 0.950349,-0.75126 1.417543,-0.86867 0.467947,-0.1176 0.966922,-0.0384 1.43805,-0.16198 0.284567,-0.0746 2.441122,-1.41789 2.878357,-1.79239 0.872696,-0.7475 -0.126045,-3.42208 0.173156,-4.35198 0.13289,-0.41301 0.532011,-0.68893 0.768131,-1.04265 0.190992,-0.28611 0.372282,-0.84031 0.469995,-1.08726 0.51557,-1.30292 0.700111,-2.72496 1.198875,-4.00788 0.05264,-0.13539 1.147857,-0.12131 1.309716,-0.21189 0.497213,-0.27825 1.602116,-2.36892 2.121615,-2.86579 0.219374,-0.20982 0.929867,-0.1358 1.220573,-0.1358 0.684252,0 1.381831,-0.38601 1.483638,0.47721 0.07656,0.6492 0.112281,1.28409 0.112281,1.93847 0,0.062 0,-0.12393 0,-0.1859 0,-0.56874 -0.06934,-0.8279 -0.303917,-1.33786 -0.422576,-0.91866 -1.757201,-4.06113 -0.745857,-4.94404 0.168399,-0.14702 0.608131,-0.29629 0.798266,-0.41293 0.421018,-0.25827 0.785455,-1.04823 1.288278,-1.10043 1.548315,-0.16075 4.113797,0.36878 5.332883,0.0386 1.010785,-0.27373 1.668148,-1.34608 2.462077,-1.90085 0.404154,-0.28241 0.824437,-0.55079 1.190607,-0.87045 -0.173096,-0.36718 -0.373269,-0.72278 -0.519287,-1.10154 -0.113836,-0.29529 0.06587,-0.6812 -0.05945,-0.994079 -0.384216,-0.959297 -1.214385,-1.642801 -1.593729,-2.622012 -0.03066,-0.07913 -0.198843,-1.45108 -0.133475,-1.46173 0.338131,-0.05509 0.683005,-0.05455 1.024507,-0.08182" />
    <path
       style="fill:none;stroke:#000000;stroke-width:0.264583px;stroke-linecap:butt;stroke-linejoin:miter;stroke-opacity:1"
       d="m 79.832633,82.271472 c 0.158504,-0.108645 0.252154,-0.288735 0.291808,-0.473285 0.08193,-0.381292 0.01073,-0.774089 0.06471,-1.158225 0.01803,-0.128283 0.06591,-0.250376 0.134872,-0.36072 0.26688,-0.427036 0.650123,-0.762345 1.031602,-1.084162 0.212722,-0.179453 0.433063,-0.350734 0.633284,-0.544319 0.199067,-0.19247 0.35418,-0.423643 0.540985,-0.627073 0.151557,-0.165045 0.350248,-0.278097 0.561968,-0.352984 0.132428,-0.04684 0.281027,-0.03549 0.407661,0.02448 0.204458,0.09683 0.360342,0.27008 0.491302,0.449921 0.124892,0.171508 0.113203,0.533553 0.324761,0.546177 0.06248,0.0037 0.125943,-0.0089 0.188535,-0.01457 0.259468,-0.02339 0.526243,-0.04066 0.781206,0.02471 0.106273,0.02725 0.205129,0.08354 0.27684,0.168213 0.170318,0.201102 0.311029,0.424893 0.458983,0.642397 0.155105,0.228016 0.289065,0.474359 0.478919,0.674974 0.0382,0.04036 0.07319,0.12081 0.12936,0.10754 0.0602,-0.01422 0.03977,-0.09976 0.03224,-0.1458 -0.03067,-0.187494 -0.07967,-0.372391 -0.144716,-0.550636 -0.166404,-0.45603 -0.425746,-0.8693 -0.662224,-1.2908 -0.245789,-0.438096 -0.488596,-0.888816 -0.597024,-1.383706 -0.07152,-0.326439 -0.05658,-0.670554 0.04687,-0.990252 0.119382,-0.368944 0.323471,-0.711689 0.603368,-0.981998 0.376784,-0.363877 0.850101,-0.598963 1.27685,-0.895699 0.390585,-0.27159 0.71303,-0.625061 1.023529,-0.982113 0.250053,-0.287543 0.484141,-0.591943 0.766936,-0.848071 0.255654,-0.231546 0.598335,-0.322375 0.885059,-0.50475 0.141203,-0.08981 0.268457,-0.199366 0.39589,-0.307265 0.371635,-0.314669 0.729237,-0.647452 1.054806,-1.009329 0.362862,-0.403329 0.610229,-0.891441 0.937132,-1.3218 0.09735,-0.12816 0.211645,-0.242019 0.333215,-0.347332 0.682501,-0.591236 1.378143,-1.167205 2.057664,-1.761893 0.389442,-0.340823 0.796475,-0.664826 1.151082,-1.042095 0.06563,-0.06982 0.157294,-0.127544 0.186797,-0.219606 0.110177,-0.343794 0.13981,-0.707987 0.139401,-1.06709 -4.7e-4,-0.412734 0.01277,-0.836501 -0.102696,-1.232504 -0.03468,-0.118934 -0.125709,-0.211462 -0.21472,-0.292358 -0.282049,-0.256336 -0.610658,-0.456604 -0.949083,-0.628575 -0.511441,-0.25989 -1.054825,-0.473941 -1.624544,-0.556623 -0.351276,-0.05098 -0.724477,-0.05623 -1.057334,0.08434 -0.211953,0.08951 -0.38072,0.259648 -0.492947,0.460222 -0.326298,0.583167 -0.507357,1.232961 -0.840339,1.814378 -0.115769,0.202143 -0.290714,0.359952 -0.459013,0.517245 -0.248519,0.232267 -0.515663,0.449766 -0.721982,0.722105 -0.08942,0.118036 -0.156792,0.253269 -0.182599,0.402488 -0.04054,0.234387 -0.09804,0.46679 -0.111985,0.705218 -0.0033,0.05592 0.01166,0.110065 0.04427,0.157189 0.147781,0.213527 0.356277,0.373289 0.547985,0.544771 0.151665,0.135664 0.307459,0.277065 0.396057,0.464595 0.132974,0.281457 0.159953,0.602502 0.128715,0.908549 -0.03022,0.296116 -0.15674,0.569145 -0.259953,0.850285 -0.02,0.05449 -0.08678,0.04317 -0.132699,0.04102 -0.09906,-0.0046 -0.203022,-0.05517 -0.296831,-0.02158 -0.13917,0.04984 -0.241874,0.174414 -0.388536,0.207189 -0.171562,0.03834 -0.350007,0.04158 -0.524556,0.02717 -0.490729,-0.04053 -0.947946,-0.241628 -1.390057,-0.444908 -0.47436,-0.218108 -0.950077,-0.462203 -1.471926,-0.538681 -0.187429,-0.02747 -0.381797,-0.05133 -0.567755,-0.01218 -0.19031,0.04006 -0.34514,0.171609 -0.47426,0.30997 -0.297344,0.318624 -0.505807,0.70498 -0.765544,1.052366 -0.09104,0.12176 -0.203632,0.224506 -0.30476,0.337596 -0.359394,0.401908 -0.639463,0.870391 -1.010969,1.260516 -0.178877,0.187842 -0.428034,0.288392 -0.603144,0.482391 -0.487536,0.540126 -0.928221,1.121277 -1.338412,1.721624 -0.312121,0.456814 -0.625191,0.916385 -0.872893,1.411473 -0.141152,0.282124 -0.156197,0.605717 -0.145365,0.915418 0.01356,0.387726 0.07627,0.778164 0.01598,1.164889 -0.02165,0.138836 -0.06412,0.275339 -0.139761,0.395045 -0.165609,0.262087 -0.387084,0.483179 -0.613053,0.692881 -0.59097,0.548428 -1.228575,1.043044 -1.873018,1.525737 -0.110876,0.08305 -0.20274,0.187183 -0.297184,0.287616 -0.200406,0.213114 -0.427191,0.407348 -0.586796,0.652763 -0.02052,0.03156 -0.09935,0.09232 -0.013,0.104223 0.385292,0.0531 0.773167,-0.06751 1.106771,-0.254549 0.488998,-0.274156 0.901413,-0.662298 1.290125,-1.061391 0.514199,-0.527931 0.97157,-1.1095 1.501518,-1.621927 0.161571,-0.156229 0.321674,-0.319812 0.515062,-0.435516 0.167066,-0.09996 0.376167,-0.0883 0.554746,-0.02804 0.294521,0.09937 0.551077,0.289234 0.767568,0.508048 0.200986,0.203143 0.388438,0.430863 0.493063,0.698982 0.03083,0.079 0.05478,0.162463 0.05525,0.247882"
       id="path75"
       inkscape:path-effect="#path-effect77"
       inkscape:original-d="m 79.832633,82.271472 c 0.580157,-0.410625 0.158663,-1.428012 0.453996,-1.930575 0.390533,-0.664564 1.051367,-1.10509 1.613961,-1.607261 0.493972,-0.440918 0.601903,-0.905756 1.234927,-1.075338 0.541813,-0.145148 0.994677,0.661106 1.180068,1.032986 0.01074,0.02154 0.871214,-0.150159 1.182724,0.113948 0.345988,0.293336 1.527858,2.505472 1.062294,0.926563 -0.334481,-1.134353 -1.677095,-2.434503 -1.275905,-3.736226 0.414967,-1.346417 1.414261,-1.453645 2.282677,-2.246551 0.504108,-0.460274 0.887023,-1.005157 1.364279,-1.482198 0.304662,-0.304528 0.728072,-0.378185 1.055542,-0.634439 0.458226,-0.358572 0.873749,-0.75718 1.276074,-1.176997 0.456899,-0.476758 0.791337,-1.222417 1.1903,-1.605052 0.341582,-0.327607 3.4402,-2.877878 3.52589,-3.145618 0.212334,-0.663448 0.139301,-1.605828 0.03681,-2.279153 -0.0878,-0.57685 -3.491796,-2.4248 -4.315989,-0.991433 -0.364932,0.634659 -0.508471,1.307859 -0.911738,1.93248 -0.272124,0.421489 -1.252516,1.043715 -1.312542,1.534871 -0.01873,0.153207 -0.167818,0.736897 -0.09892,0.854189 0.175236,0.298331 0.602038,0.568444 0.837581,0.844947 0.418711,0.491527 0.305403,1.491684 -0.01331,1.988685 -0.03488,0.05439 -0.365207,-0.02924 -0.429837,0 -0.174167,0.0788 -0.240172,0.188383 -0.443846,0.217413 -1.363107,0.194273 -2.470885,-1.105868 -3.830431,-0.990626 -0.573027,0.04857 -1.056534,1.148022 -1.409152,1.505749 -0.436986,0.443315 -0.78,0.957627 -1.177661,1.436968 -0.15222,0.183486 -0.424939,0.289404 -0.598373,0.478226 -0.764347,0.832154 -1.719379,2.196137 -2.221463,3.130137 -0.370121,0.688518 0.02974,1.595695 -0.191868,2.309522 -0.213664,0.688239 -2.015805,1.941412 -2.670699,2.491597 -0.02913,0.02447 -0.923502,0.951529 -0.845129,0.964187 1.652103,0.266792 3.231573,-2.502779 4.413223,-3.342455 0.653402,-0.464304 1.909591,0.814364 1.909591,1.401638" />
    <path
       style="fill:none;stroke:#000000;stroke-width:0.264583px;stroke-linecap:butt;stroke-linejoin:miter;stroke-opacity:1"
       d="m 77.041353,199.07865 c 0.516838,-1.83238 0.975832,-3.68096 1.365338,-5.54391 0.09912,-0.47409 0.0053,-0.98851 0.209612,-1.43588 0.374375,-0.81982 0.73562,-1.66117 1.295257,-2.37454 0.553888,-0.70604 1.302762,-1.21494 1.967931,-1.80603 1.015646,-0.90254 2.007047,-1.84632 2.8352,-2.92485 0.691392,-0.90042 1.101545,-1.97125 1.678126,-2.9414 0.589099,-0.99121 1.37242,-1.84731 2.182418,-2.66169 0.325669,-0.32743 0.626469,-0.71716 1.057527,-0.89861 0.137049,-0.0577 0.29003,-0.0398 0.427476,-0.10993 0.664894,-0.33945 1.305395,-0.72868 1.908647,-1.16828 0.34164,-0.24896 0.660563,-0.52898 0.934924,-0.85416 1.798473,-2.13159 3.741725,-4.1581 5.272782,-6.49951 0.220254,-0.33683 0.443063,-0.67581 0.589324,-1.05373 0.198537,-0.51299 0.336638,-1.05399 0.632255,-1.52573 0.321617,-0.51323 0.70097,-0.98843 0.99323,-1.52169 0.11505,-0.20992 0.11671,-0.45257 0.13678,-0.68429 0.0157,-0.18164 0.10238,-0.34507 0.21949,-0.48688 0.22503,-0.27249 0.50728,-0.49 0.73626,-0.75852 0.19822,-0.23245 0.26486,-0.54881 0.24324,-0.84615 -0.016,-0.21964 -0.008,-0.46171 -0.15077,-0.64567 -0.23452,-0.30197 -0.59543,-0.47293 -0.95184,-0.58297 -0.53153,-0.16411 -1.107969,-0.23086 -1.654683,-0.10666 -0.323935,0.0736 -0.653757,0.25177 -0.796727,0.56787 -0.378663,0.8372 -0.759577,1.70923 -1.396836,2.3701 -0.1946,0.20181 -0.421256,0.37011 -0.642111,0.5419 -0.354349,0.27562 -0.697339,0.56771 -1.069048,0.81922 -0.184144,0.1246 -0.43187,0.19385 -0.542385,0.39374 -0.168657,0.30505 -0.185092,0.66737 -0.354495,0.97301 -0.375152,0.67685 -1.022369,1.15021 -1.419266,1.81113 -0.247313,0.41183 -0.409681,0.86681 -0.617463,1.29858 -0.221639,0.46056 -0.517874,0.87972 -0.86868,1.26455 -0.08754,0.096 -0.208714,0.003 -0.31758,0.0324 -0.258818,0.0692 -0.489743,0.21819 -0.762767,0.2487 -0.537518,0.0601 -1.06508,-0.18385 -1.602897,-0.0691 -0.507408,0.10824 -0.899398,0.49162 -1.18885,0.90471 -0.159134,0.22711 -0.270843,0.48208 -0.404831,0.72369 -0.08517,0.15358 -0.411029,0.38785 -0.251737,0.46393 0.13429,0.0641 0.286983,0.0871 0.431871,0.12125 0.38218,0.0901 0.770882,0.15091 1.151854,0.24547 0.274085,0.068 0.551979,0.17123 0.749829,0.38451 0.341635,0.36828 0.572116,0.83902 0.665175,1.33024 0.06206,0.32759 0.07022,0.69779 -0.124216,0.98605 -0.105588,0.15654 -0.312725,0.20032 -0.48836,0.15572 -0.361194,-0.0917 -0.661452,-0.32771 -0.958302,-0.54187 -0.224023,-0.16162 -0.441298,-0.33954 -0.707184,-0.43361 -0.380795,-0.13473 -0.785337,-0.17214 -1.184777,-0.21333 -0.362099,-0.0373 -0.736372,-0.088 -1.095052,0.009 -0.159915,0.0431 -0.278449,0.17189 -0.336459,0.32573 -0.134289,0.35612 -0.03198,0.73778 -0.06798,1.10608 -0.01678,0.17173 -0.141893,0.32077 -0.309815,0.36564 -0.372428,0.0995 -0.75908,-0.0264 -1.095248,-0.18469 -0.357194,-0.16819 -0.696991,-0.37482 -1.007984,-0.61689 -0.1036,-0.0806 -0.230461,-0.38131 -0.324778,-0.25201 -0.10771,0.14766 -0.16592,0.32771 -0.214307,0.50273 -0.142509,0.51546 -0.103758,1.05929 -0.215167,1.57935 -0.04918,0.22957 -0.155412,0.44075 -0.229441,0.66291 -0.169285,0.50801 -0.325624,1.02632 -0.383398,1.55848 -0.03001,0.27639 -0.09042,0.55883 -0.04266,0.83388 0.02194,0.12638 0.175488,0.15939 0.275104,0.21419 0.33734,0.18556 0.7142,0.34403 0.952211,0.66104 0.213796,0.28476 0.209619,0.67103 0.115112,0.99915 -0.117484,0.40789 -0.330006,0.78426 -0.583583,1.12196 -0.145052,0.19317 -0.389572,0.3056 -0.633393,0.2709 -0.395089,-0.0562 -0.709224,-0.32593 -1.079711,-0.45261 -0.13514,-0.0462 -0.301513,-0.009 -0.376691,0.12046 -0.08055,0.13881 -0.166955,0.32492 -0.08581,0.4751 0.08443,0.15624 0.286143,0.17429 0.444064,0.18137 0.415023,0.0186 0.830905,-0.0792 1.244734,-0.0168 0.129742,0.0196 0.273381,0.1069 0.274436,0.25211 0.0018,0.24357 -0.138052,0.46028 -0.272514,0.65206 -0.102714,0.1465 -0.231783,0.28726 -0.412607,0.3357 -0.420778,0.11273 -0.859661,0.1335 -1.292907,0.14472 -0.611858,0.0158 -1.22687,0.0289 -1.835732,-0.0362 -0.226853,-0.0243 -0.478031,-0.13876 -0.688766,-0.0288 -0.177266,0.0925 -0.236396,0.30347 -0.277567,0.48354 -0.114184,0.49941 -0.113793,1.01354 -0.14636,1.52194 -0.01013,0.15809 -0.174548,0.23048 -0.279998,0.32631 -0.736685,0.66951 -1.308053,1.53686 -2.14913,2.07209 -0.243699,0.15508 -0.583468,0.12989 -0.784674,0.34977 -0.106863,0.11678 -0.129093,0.28192 -0.161607,0.43039 -0.171364,0.7825 -0.157116,1.5872 -0.156662,2.3826 1.27e-4,0.2225 0.05581,0.45055 -0.02707,0.66964 -0.122683,0.32429 -0.220667,0.66646 -0.415079,0.95439 -0.401315,0.59437 -0.899682,1.13551 -1.185235,1.79696 -0.0693,0.16053 -0.170124,0.34086 -0.112622,0.51736 0.09382,0.28799 0.377766,0.44838 0.645994,0.55075 0.230368,0.0879 0.491262,0.0928 0.706572,0.213 0.120683,0.0674 0.131285,0.22372 0.144817,0.34614 0.05388,0.4874 0.03669,0.98032 -0.0032,1.46806 -0.01034,0.12651 -0.02639,0.25551 -0.106134,0.36223 -0.29115,0.38966 -0.637221,0.73399 -0.975916,1.08168 -0.604402,0.62046 -1.272326,1.18113 -1.835192,1.83949 -0.135193,0.15813 -0.307328,0.27556 -0.455274,0.42241 -0.07725,0.0767 -0.06281,0.1986 0.06774,0.12425 0.32979,-0.18782 0.618346,-0.43805 0.913636,-0.67437 0.510379,-0.40845 1.090588,-0.76112 1.739646,-0.88974 0.43026,-0.0853 0.898729,-0.0143 1.260617,0.24255 0.192981,0.13699 0.408118,0.28474 0.497295,0.50358 0.08811,0.21623 -0.0097,0.48932 0.15165,0.67697 0.108007,0.12563 0.29675,0.13133 0.440881,0.0626 0.385363,-0.1837 0.634757,-0.57752 1.022037,-0.74696 0.455717,-0.19938 0.909731,-0.43078 1.403734,-0.51051 0.661592,-0.10678 1.340014,-0.0919 1.991398,-0.28308 0.204459,-0.06 0.370366,-0.20112 0.507048,-0.36036 0.386894,-0.45076 0.681238,-0.99395 1.17822,-1.34092 0.331246,-0.23126 0.79346,-0.30232 1.156768,-0.10016 0.481612,0.26799 0.730541,0.83342 1.243716,1.05059 0.309252,0.13087 0.640113,0.19995 0.969143,0.25706 0.213586,0.0371 0.450758,0.0985 0.656297,-0.007 0.23449,-0.12032 0.315651,-0.39459 0.356845,-0.63699 0.06118,-0.35998 0.02039,-0.74904 0.188692,-1.08144 0.10248,-0.2024 0.296598,-0.33809 0.483034,-0.45593 0.521763,-0.3298 1.147331,-0.4926 1.604997,-0.92161 0.372918,-0.34957 0.540417,-0.8443 0.760707,-1.29189 0.134663,-0.27361 0.269182,-0.57939 0.528371,-0.74643 0.324802,-0.20932 0.681448,-0.36534 1.041239,-0.50272 0.222004,-0.0848 0.439053,-0.22594 0.677604,-0.22399 0.09532,7.8e-4 0.232877,0.0433 0.256248,-0.10689 0.037,-0.23772 0.04479,-0.49197 0.192955,-0.69656 0.261029,-0.36045 0.731284,-0.56025 0.886139,-0.99057 0.18223,-0.50639 0.377051,-1.00993 0.495561,-1.53673 0.07979,-0.35468 0.184353,-0.70465 0.245438,-1.06277 0.02064,-0.12098 -0.06927,-0.32536 0.106753,-0.36776 0.473237,-0.114 0.95776,-0.17246 1.437789,-0.25023 0.339551,-0.055 0.724825,0.01 1.017998,-0.17045 0.110665,-0.068 0.168073,-0.19506 0.229574,-0.30476 0.313639,-0.55942 0.55043,-1.17455 0.973458,-1.66158 0.125684,-0.1447 0.27284,-0.32439 0.479063,-0.32828 0.165769,-0.003 0.254116,0.16544 0.289912,0.30589 0.06286,0.24664 0.06958,0.50143 0.09432,0.75371 0.07245,0.73879 -0.172569,1.4727 -0.05708,2.2117 0.03027,0.19372 0.123456,0.36675 0.225982,0.53323 0.220459,0.35797 0.366402,0.76187 0.634426,1.09116 0.08603,0.1057 0.246683,0.1953 0.372363,0.10039 0.180812,-0.13654 0.260777,-0.36106 0.342519,-0.56433 0.10849,-0.26978 0.161027,-0.56019 0.149057,-0.8517 -0.02885,-0.70263 -0.311484,-1.36903 -0.305495,-2.07675 0.0028,-0.32754 -0.0096,-0.65404 -0.01973,-0.98235 -0.01438,-0.46517 0.0069,-0.93229 0.06754,-1.39384 0.04587,-0.34892 0.234584,-0.65387 0.391307,-0.96131 0.105476,-0.20691 0.161448,-0.43236 0.214711,-0.65733 0.159418,-0.67333 0.411843,-1.31881 0.652963,-1.96683 0.204765,-0.55031 0.282625,-1.15628 0.615481,-1.6529 0.16354,-0.244 0.41158,-0.43242 0.70158,-0.4992 0.63252,-0.14566 1.29523,0.0791 1.92148,-0.0805 0.32637,-0.0832 0.63993,-0.21204 0.94651,-0.34987 0.54116,-0.24329 1.09059,-0.48732 1.56979,-0.83664 0.2006,-0.14623 0.3556,-0.35454 0.59692,-0.44598 0.57001,-0.216 1.19528,-0.18286 1.78076,-0.32746 0.32946,-0.0814 0.6095,-0.32302 0.94821,-0.3551 0.55538,-0.0526 1.25578,0.25096 1.66886,-0.12397 0.0707,-0.0642 0.0505,-0.20112 0.0294,-0.2912 -0.0749,-0.31967 -0.25952,-0.59496 -0.38335,-0.89655 -0.20132,-0.49032 -0.37144,-0.99675 -0.62318,-1.46316 -0.19624,-0.36358 -0.58616,-0.60903 -0.70406,-1.01157 -0.107,-0.36532 -0.11209,-0.75192 -0.0958,-1.12914 0.0135,-0.31247 0.0549,-0.62646 0.17304,-0.91957 0.2363,-0.58646 0.63424,-1.08714 0.90639,-1.65579 0.10425,-0.21783 0.21268,-0.43468 0.29576,-0.66215 0.0261,-0.0715 -0.0659,0.0222 -0.009,-0.0622 0.24462,-0.36146 0.53266,-0.69893 0.72484,-1.09062 0.14907,-0.30382 0.10952,-0.74554 0.38889,-0.93647 0.0827,-0.0565 0.20743,-0.0329 0.30293,-0.0123 0.35091,0.0756 0.60048,0.35743 0.83286,0.61025 0.23969,0.26077 0.48536,0.55083 0.84018,0.6519 0.44552,0.1269 0.9297,0.14301 1.37158,0.022 0.26727,-0.0732 0.45487,-0.29945 0.61007,-0.51465 0.29151,-0.40422 0.54247,-0.83856 0.73903,-1.29464 0.0789,-0.18298 0.1,-0.3884 0.23394,-0.55045 0.14727,-0.17815 0.39715,-0.20701 0.61378,-0.16477 0.32267,0.0629 0.62008,0.21514 0.95365,0.24272 0.44823,0.0371 0.89793,0.0574 1.34772,0.0575"
       id="path83"
       inkscape:path-effect="#path-effect85"
       inkscape:original-d="m 77.041353,199.07865 c 0.516721,-1.83066 0.880433,-3.64051 1.350068,-5.47821 0.117319,-0.45908 0.04108,-1.09727 0.233717,-1.52163 0.344157,-0.75815 0.753867,-1.66694 1.274646,-2.33936 0.50111,-0.64703 1.175711,-1.12019 1.784644,-1.64996 1.040373,-0.90512 2.083773,-1.9391 2.955303,-3.00217 0.645586,-0.78747 1.137634,-1.93282 1.616096,-2.79693 0.568412,-1.02656 1.346835,-1.92923 2.173994,-2.75261 0.328673,-0.32717 0.778015,-0.83522 1.202941,-1.04604 0.09985,-0.0495 0.259821,-0.0293 0.359929,-0.0771 0.693584,-0.3309 2.268728,-1.28935 2.772802,-1.8908 1.963208,-2.34246 4.100282,-4.54114 5.720836,-7.14814 0.373179,-0.60034 0.451975,-1.2295 0.759886,-1.83193 0.287102,-0.56172 0.982915,-1.34568 1.197225,-1.90652 0.12108,-0.31689 0.007,-0.69149 0.24008,-0.97377 0.69081,-0.83667 1.17847,-0.7998 1.01188,-2.04642 -0.12847,-0.96134 -3.011181,-1.54695 -3.52225,-0.40162 -0.359251,0.80509 -0.890281,1.67736 -1.396836,2.3701 -0.120883,0.16532 -1.459354,1.16619 -1.644042,1.3134 -0.15449,0.12314 -0.525478,0.27967 -0.619074,0.45813 -0.189431,0.3612 -0.144823,0.66487 -0.441206,1.12048 -0.426993,0.65639 -1.08204,1.15274 -1.440955,1.85496 -0.374637,0.73298 -0.732563,1.88216 -1.399194,2.37892 -0.06566,0.0489 -0.165055,-0.0144 -0.245668,0 -0.218017,0.0389 -0.436602,0.19448 -0.671012,0.23816 -0.480404,0.0895 -0.861595,-0.0607 -1.320814,-0.0833 -0.987414,-0.0486 -1.588828,0.77879 -1.967515,1.58706 -0.04236,0.0904 -0.271127,0.43821 -0.29263,0.5386 -0.0086,0.0403 1.19574,0.2859 1.253557,0.29663 0.285136,0.0529 0.710432,0.14305 0.941945,0.32788 0.542774,0.43333 1.019207,1.57751 0.779397,2.24854 -0.36031,1.00821 -1.636594,-0.36018 -2.07976,-0.55654 -0.358823,-0.15899 -0.811337,-0.23747 -1.203254,-0.26642 -0.351234,-0.0259 -1.272265,-0.20915 -1.520417,0.18389 -0.38861,0.61551 0.289822,1.60385 -0.675196,1.64108 -0.605872,0.0234 -1.369803,-0.47317 -1.855793,-0.82247 -0.09255,-0.0665 -0.164557,-0.23202 -0.274645,-0.26912 -0.06192,-0.0209 -0.07914,0.006 -0.114903,0.073 -0.386395,0.72919 -0.235903,1.72364 -0.44993,2.24294 -0.247356,0.60017 -0.416258,1.27249 -0.533765,1.91624 -0.02209,0.12101 -0.111773,0.93053 -0.02492,0.98339 0.686109,0.41757 1.546185,0.61644 1.345356,1.66425 -0.07862,0.41015 -0.326846,0.84945 -0.560467,1.18463 -0.7707,1.10575 -1.895489,-0.853 -2.225567,0.18891 -0.352226,1.11182 2.438173,-0.23538 1.887162,1.02237 -0.07878,0.17983 -0.300646,0.53015 -0.471596,0.62322 -0.486317,0.26476 -2.597049,0.22505 -3.230036,0.16948 -0.209275,-0.0184 -0.562367,-0.12252 -0.747448,-0.0246 -0.457499,0.24218 -0.322926,2.00656 -0.439772,2.10598 -0.818224,0.69616 -1.532683,1.569 -2.360345,2.263 -0.23523,0.19725 -0.789583,0.16607 -0.901898,0.51352 -0.263647,0.81561 -0.188905,1.79309 -0.235234,2.64129 -0.0096,0.17617 0.06075,0.46123 0,0.62764 -0.118813,0.32544 -0.244652,0.64972 -0.400991,0.9589 -0.154025,0.30459 -1.48952,1.90832 -1.344838,2.37096 0.203041,0.64926 1.216396,0.64234 1.401482,0.80811 0.202772,0.18161 0.129469,1.7141 0.06974,2.00059 -0.0742,0.35587 -2.45642,2.5871 -2.925431,3.10709 -0.08405,0.0932 -0.365636,0.2903 -0.419198,0.38307 -0.287396,0.49777 0.736367,-0.35353 1.009084,-0.57244 0.700058,-0.56193 1.807043,-1.17997 2.722406,-0.76668 0.303329,0.13696 0.525478,0.35336 0.722379,0.60448 0.155598,0.19845 -0.06031,0.72881 0.365019,0.82267 0.368027,0.0812 1.004654,-0.67709 1.321178,-0.81207 0.436123,-0.18597 0.993466,-0.4434 1.470311,-0.5056 0.657283,-0.0857 1.398288,-0.0504 2.008926,-0.31695 0.616243,-0.26902 1.078703,-1.75615 2.127183,-1.86412 0.890641,-0.0917 1.166053,0.90083 1.877201,1.18639 0.222805,0.0895 0.519506,0.14144 0.762455,0.19981 0.166362,0.04 0.540194,0.12854 0.719457,0.069 0.722397,-0.23982 0.296913,-1.45405 0.753796,-1.92237 0.536699,-0.55013 1.464487,-0.69539 2.013198,-1.25204 0.571233,-0.5795 0.615749,-1.38056 1.198359,-1.95769 0.205272,-0.20334 1.570752,-0.7705 1.794629,-0.7705 0.04404,0 0.202703,0.0336 0.218289,-0.0355 0.04172,-0.18481 0.03721,-0.38044 0.09811,-0.55985 0.158633,-0.46736 0.83726,-0.7405 1.012557,-1.24354 0.123638,-0.35478 0.265126,-0.70396 0.368777,-1.06509 0.134712,-0.46935 0.217844,-0.97151 0.347527,-1.44706 0.02696,-0.0989 -0.02365,-0.286 0.02458,-0.37005 0.05762,-0.10042 2.210795,-0.37 2.544778,-0.45924 0.245899,-0.0657 1.104509,-2.44384 1.74253,-2.28722 0.302006,0.0741 0.269386,0.69748 0.306126,0.91896 0.133638,0.80558 -0.226253,1.73588 0,2.51056 0.06836,0.23406 0.152135,0.28775 0.26733,0.50561 0.393493,0.74419 0.829146,1.88622 1.339884,0.28131 0.243933,-0.76651 -0.144404,-1.61614 -0.21386,-2.37109 -0.03803,-0.41339 0.01913,-0.83015 -0.02674,-1.24361 -0.03551,-0.32012 0.0072,-1.39943 0.106881,-1.69686 0.132527,-0.39569 0.42069,-0.7928 0.513019,-1.20318 0.161978,-0.71997 0.368139,-1.36521 0.662821,-2.07388 0.27147,-0.65286 0.337846,-1.58579 0.939011,-2.05391 0.61757,-0.4809 1.76131,-0.0761 2.47507,-0.30881 0.81403,-0.26545 1.59201,-0.6808 2.32575,-1.11581 0.18558,-0.11003 0.35974,-0.3514 0.54826,-0.43771 0.52435,-0.24006 1.24839,-0.25443 1.80238,-0.35296 0.33864,-0.0602 0.65299,-0.28262 0.98912,-0.36613 0.11379,-0.0283 1.71692,-0.11002 1.72664,-0.13524 0.11795,-0.30615 -0.20362,-0.75798 -0.31593,-1.03875 -0.20379,-0.5095 -0.42574,-1.03342 -0.63928,-1.52171 -0.1617,-0.36976 -0.54013,-0.64928 -0.71328,-1.01477 -0.18646,-0.39356 -0.15624,-1.508 -0.0397,-1.89088 0.20087,-0.65997 0.60875,-1.14042 0.92971,-1.77403 0.92116,-1.81851 -0.39759,0.29852 1.04257,-1.88293 0.1197,-0.1813 0.37683,-1.00443 0.44256,-1.01261 0.75153,-0.0935 1.10217,0.77552 1.66718,1.14322 0.41358,0.26915 1.13368,0.24044 1.63102,0.15638 0.55713,-0.0942 1.08317,-1.28663 1.34139,-1.74683 0.1375,-0.24506 0.0746,-0.44018 0.30818,-0.65886 0.38811,-0.3633 0.98756,0.0701 1.38945,0.10672 0.48728,0.0444 0.99444,0.0695 1.48526,0.0695" />
    <path
       style="fill:none;stroke:#000000;stroke-width:0.264583px;stroke-linecap:butt;stroke-linejoin:miter;stroke-opacity:1"
       d="m 77.041353,199.07865 c 0.04428,0.0656 -0.01703,0.13701 -0.06852,0.17592 -0.189879,0.14348 -0.411873,0.23134 -0.621795,0.34102 -0.06343,0.0331 -0.08298,0.1034 -0.09971,0.16747 -0.05239,0.20066 -0.02548,0.421 -0.115676,0.61012 -0.15976,0.33497 -0.377614,0.64825 -0.471248,1.00942 -0.02354,0.0908 -0.07231,0.2045 -0.01121,0.28386 0.12878,0.16726 0.345494,0.23611 0.548527,0.25244 0.240522,0.0194 0.483425,-0.0326 0.701248,-0.13774 0.480868,-0.23221 0.863587,-0.61951 1.202451,-1.02397 0.420245,-0.5016 0.791715,-1.04601 1.265066,-1.5017 0.588689,-0.56672 1.25626,-1.04619 1.953478,-1.47013 0.252529,-0.15355 0.51717,-0.28563 0.77492,-0.42996 0.44566,-0.24956 0.796085,-0.62846 1.151863,-0.9877 0.182621,-0.1844 0.361035,-0.37579 0.569203,-0.53159 0.348961,-0.26118 0.775552,-0.38185 1.142486,-0.61352 0.365219,-0.23059 0.711187,-0.48957 1.058169,-0.7462 0.68691,-0.50805 1.237001,-1.17633 1.944129,-1.66157 0.252927,-0.17356 0.57146,-0.18818 0.838412,-0.33366 1.00248,-0.54633 1.930997,-1.24948 3.006926,-1.64117 0.257962,-0.0939 0.541733,-0.0651 0.799687,-0.16353 0.343444,-0.13111 0.663327,-0.32248 0.947815,-0.55424 0.09494,-0.0773 0.191313,-0.15957 0.242838,-0.27431 0.116635,-0.25974 0.107659,-0.55085 0.163507,-0.82554 0.02714,-0.13348 0.08538,-0.25982 0.177065,-0.36422 0.373459,-0.42522 0.760384,-0.83898 1.118572,-1.27743 0.387819,-0.47472 0.678293,-1.01787 0.960266,-1.5591 0.127585,-0.24489 0.280183,-0.47854 0.381983,-0.73515 0.140451,-0.35404 0.236572,-0.7305 0.435645,-1.05694 0.04426,-0.0726 0.0995,-0.13742 0.17295,-0.18828 0.196469,-0.13604 0.380139,-0.2897 0.564657,-0.44129 0.56898,-0.46745 1.150421,-0.9215 1.69104,-1.4215 0.08945,-0.0827 0.159334,-0.18396 0.234162,-0.27961 0.316609,-0.40473 0.610039,-0.83031 0.964549,-1.20273 0.0691,-0.0726 0.12384,-0.17765 0.22155,-0.20452 0.24517,-0.0674 0.51277,-0.10899 0.76088,-0.03 0.19583,0.0623 0.34217,0.22579 0.42491,0.40929 0.13627,0.30223 0.17194,0.63592 0.22488,0.95974 0.0441,0.26973 0.0881,0.5444 0.20145,0.79535"
       id="path87"
       inkscape:path-effect="#path-effect89"
       inkscape:original-d="m 77.041353,199.07865 c 0.138724,0.21703 -0.693955,0.42923 -0.758153,0.58636 -0.08234,0.2015 -0.06314,0.45758 -0.130056,0.66409 -0.06137,0.18941 -0.661069,1.14096 -0.49262,1.34759 0.243335,0.2985 0.799251,0.29243 1.122995,0.15807 1.036286,-0.43007 1.628386,-1.5735 2.373109,-2.36274 0.762108,-0.80766 1.888389,-1.57441 2.854296,-2.06936 0.692959,-0.35509 1.132091,-0.98446 1.708488,-1.48565 0.351057,-0.30526 0.773946,-0.41263 1.148787,-0.63668 0.366651,-0.21916 0.719312,-0.49676 1.077161,-0.74958 0.718592,-0.5077 1.284539,-1.24059 2.028071,-1.72158 0.267586,-0.1731 0.536043,-0.16821 0.805614,-0.31488 1.028993,-0.55984 1.928341,-1.17431 2.998427,-1.64107 0.229103,-0.0999 0.516663,-0.0722 0.758193,-0.15095 0.390541,-0.12735 0.859906,-0.42334 1.144429,-0.68599 0.327067,-0.30191 0.154323,-1.0127 0.42677,-1.31971 1.467609,-1.65381 1.369862,-1.44481 2.477087,-3.57102 0.0809,-0.15535 0.397354,-1.19838 0.610135,-1.27577 0.119737,-0.0436 2.008645,-1.63499 2.294715,-1.89152 0.110403,-0.099 1.215279,-1.61823 1.407209,-1.67016 1.60223,-0.43358 1.19416,1.2502 1.60246,2.13783" />
    <path
       style="fill:none;stroke:#000000;stroke-width:0.264583px;stroke-linecap:butt;stroke-linejoin:miter;stroke-opacity:1"
       d="m 106.19481,180.65868 c -0.18973,-0.34123 -0.30137,-0.72406 -0.34029,-1.1115 -0.0372,-0.37066 -0.001,-0.75411 0.14531,-1.10106 0.0511,-0.12119 0.13424,-0.22397 0.2174,-0.3244 0.0816,-0.0986 0.15144,-0.20929 0.18213,-0.336 0.0451,-0.18612 0.0307,-0.38869 0.12557,-0.56072 0.0857,-0.15533 0.21387,-0.28187 0.34066,-0.40368 0.21243,-0.20409 0.44935,-0.39744 0.58294,-0.66643 0.0946,-0.19052 0.11148,-0.40724 0.11398,-0.61629 0.003,-0.29106 -0.0201,-0.58492 -0.0967,-0.8665 -0.0342,-0.12582 -0.0896,-0.24549 -0.16862,-0.35031 -0.18761,-0.24895 -0.40751,-0.47971 -0.53784,-0.76663 -0.0567,-0.12474 -0.0822,-0.26684 -0.0479,-0.40232 0.0599,-0.23663 0.20515,-0.44043 0.35939,-0.62486 0.35132,-0.42009 0.77781,-0.76776 1.14924,-1.16889 0.097,-0.10481 0.18212,-0.22028 0.25073,-0.34588 0.20246,-0.37065 0.32974,-0.77705 0.52113,-1.15265 0.2047,-0.40172 0.40595,-0.80522 0.61051,-1.20702 0.15899,-0.31229 0.30956,-0.6294 0.48495,-0.9328 0.15212,-0.26314 0.37353,-0.48926 0.47401,-0.77903 0.0444,-0.12813 -0.0167,-0.26225 -0.0852,-0.37006 -0.0475,-0.0748 -0.1198,-0.13112 -0.1667,-0.20575 -0.0602,-0.0957 -0.045,-0.21621 -0.0193,-0.31999 0.0611,-0.24658 0.17621,-0.47597 0.30154,-0.69525 0.10478,-0.18332 0.20247,-0.37399 0.3391,-0.53509 0.12685,-0.14957 0.26347,-0.30728 0.4516,-0.3773 0.13256,-0.0493 0.27513,-0.0649 0.40579,-0.12118 0.1298,-0.0559 0.25202,-0.13174 0.35082,-0.23462 0.21015,-0.21882 0.36388,-0.48767 0.59234,-0.68953 0.0655,-0.0578 0.14516,-0.0946 0.22789,-0.12299 0.38411,-0.13188 0.7465,-0.31839 1.10398,-0.50913 0.37738,-0.20136 0.76118,-0.39191 1.12691,-0.61374 0.15313,-0.0929 0.25043,-0.26476 0.42606,-0.32289 0.15819,-0.0524 0.33789,-0.0432 0.47997,-0.14088 0.2452,-0.16864 0.42042,-0.41498 0.65127,-0.60104 0.36844,-0.29696 0.78784,-0.52512 1.13883,-0.84574 0.83858,-0.76602 1.66853,-1.54624 2.58475,-2.22044"
       id="path91"
       inkscape:path-effect="#path-effect93"
       inkscape:original-d="m 106.19481,180.65868 c -0.34403,-0.60801 -0.51997,-1.63843 -0.14597,-2.30917 0.0933,-0.1673 0.27689,-0.3131 0.33401,-0.50242 0.0805,-0.26669 0.0224,-0.46886 0.19755,-0.71133 0.28347,-0.39234 0.77812,-0.64797 0.92232,-1.11775 0.11399,-0.37135 0.0682,-1.28306 -0.1507,-1.61839 -0.18582,-0.28472 -0.70916,-0.77809 -0.65393,-1.17613 0.0924,-0.66627 1.19837,-1.43774 1.64417,-2.00881 0.23834,-0.3053 0.55779,-1.17768 0.66997,-1.39554 0.34958,-0.6789 0.68324,-1.36606 1.04259,-2.03984 0.14871,-0.27884 0.38883,-0.53955 0.50315,-0.82822 0.0789,-0.19929 -0.10527,-0.43126 -0.23017,-0.56264 -0.28465,-0.29944 0.55906,-1.51943 0.59762,-1.56613 0.47796,-0.5789 0.56917,-0.30323 1.05627,-0.6068 0.30678,-0.19119 0.60378,-0.82717 0.93099,-0.93036 0.65824,-0.20756 1.60837,-0.78866 2.25584,-1.12588 0.15765,-0.0821 0.25802,-0.26527 0.43404,-0.3302 0.14605,-0.0539 0.34167,-0.0458 0.47824,-0.13536 0.22255,-0.14596 0.39061,-0.37467 0.58897,-0.54634 0.36383,-0.31486 0.80643,-0.53643 1.16708,-0.86554 0.84634,-0.77237 1.70549,-1.58294 2.63436,-2.26574" />
    <path
       style="fill:none;stroke:#000000;stroke-width:0.264583px;stroke-linecap:butt;stroke-linejoin:miter;stroke-opacity:1"
       d="m 118.93076,169.06582 c 0.2882,-0.0924 0.58746,-0.15448 0.86432,-0.27869 0.14655,-0.0657 0.27953,-0.15794 0.40582,-0.2562 0.25152,-0.19569 0.48258,-0.41652 0.70089,-0.64825 0.26487,-0.28115 0.51571,-0.57664 0.73618,-0.894 0.1203,-0.17317 0.23451,-0.35189 0.32234,-0.54404 0.0803,-0.17578 0.11797,-0.36763 0.13787,-0.55882 0.0238,-0.22827 0.0237,-0.45891 0.003,-0.68742 -0.0222,-0.24049 -0.0943,-0.47256 -0.17023,-0.70062 -0.10086,-0.30291 -0.21598,-0.60292 -0.27601,-0.91748 -0.0429,-0.22475 -0.0551,-0.46016 0.006,-0.68292"
       id="path95"
       inkscape:path-effect="#path-effect97"
       inkscape:original-d="m 118.93076,169.06582 c 0.28301,-0.0907 0.57479,-0.15761 0.84903,-0.27214 0.64752,-0.27042 1.93803,-1.70757 2.21324,-2.42755 0.12982,-0.33961 0.14463,-0.8594 0.10217,-1.21937 -0.0819,-0.69453 -0.6304,-1.52931 -0.43493,-2.24938" />
    <path
       style="fill:none;stroke:#000000;stroke-width:0.264583px;stroke-linecap:butt;stroke-linejoin:miter;stroke-opacity:1"
       d="m 120.47106,158.01609 c -0.0373,0.0516 -0.10914,0.0767 -0.13105,0.13719 -0.0163,0.0451 0.0409,0.0507 0.0608,0.0111 0.0278,-0.0555 0.0395,-0.12038 0.0885,-0.16482 0.26778,-0.24263 0.56776,-0.44768 0.83181,-0.69416 0.20605,-0.19234 0.37878,-0.41631 0.55686,-0.63384 0.19161,-0.23406 0.37746,-0.47699 0.60907,-0.67315 0.0856,-0.0725 0.17384,-0.14951 0.28096,-0.18534 0.12197,-0.0408 0.25543,-0.015 0.37631,-0.0657 0.53188,-0.22296 1.04517,-0.50203 1.49187,-0.86766 0.24872,-0.20358 0.47562,-0.43189 0.70479,-0.6568 0.13283,-0.13036 0.25982,-0.26702 0.3995,-0.39014 0.60894,-0.53673 1.25499,-1.02747 1.91355,-1.50125 0.095,-0.0683 0.21647,-0.072 0.32813,-0.0856 0.10886,-0.0132 0.20864,-0.0629 0.30469,-0.1126 0.28939,-0.14978 0.53383,-0.37343 0.82329,-0.52192 0.22111,-0.11343 0.46666,-0.16874 0.71021,-0.2081 0.51417,-0.0831 1.03594,-0.10294 1.55585,-0.11404 0.46317,-0.01 0.92637,-0.0125 1.38966,-0.0188 0.49057,-0.007 0.9848,0.0279 1.46261,0.14247 0.33696,0.0808 0.67267,0.19901 0.95398,0.40636 0.21064,0.15526 0.38283,0.37545 0.44182,0.63396 0.0649,0.28447 0.0327,0.58148 -0.0303,0.86288 -0.11024,0.49208 -0.30519,0.96177 -0.53838,1.40727 -0.23474,0.44847 -0.50332,0.88182 -0.82759,1.27135 -0.12918,0.15518 -0.27257,0.29862 -0.43174,0.4235 -0.38912,0.30529 -0.81564,0.56621 -1.16706,0.91688 -0.10363,0.10341 -0.20544,0.21236 -0.27103,0.34511 -0.11105,0.22476 -0.13622,0.47991 -0.13877,0.7272 -0.003,0.24791 0.0122,0.49546 0.0141,0.74338 0.001,0.18229 0.0505,0.36567 0.025,0.54614 -0.003,0.0193 -0.0338,-0.0195 -0.0446,-0.0293 -0.31115,-0.28248 -0.5494,-0.63764 -0.73075,-1.01456 -0.13724,-0.28524 -0.27253,-0.58044 -0.31409,-0.89442 -0.0346,-0.26146 -0.0595,-0.52412 -0.0891,-0.78618 -0.0236,-0.20894 -2.5e-4,-0.42927 -0.0729,-0.62662 -0.0161,-0.0437 -0.0731,-0.0617 -0.1123,-0.0849 -0.14199,-0.0842 -0.28222,-0.17403 -0.43533,-0.23631 -0.24511,-0.0997 -0.51453,-0.10247 -0.77494,-0.0989 -0.18061,0.002 -0.36116,-0.003 -0.54121,-0.0207 -0.20743,-0.0198 -0.41228,-0.0606 -0.6197,-0.0799 -0.1257,-0.0117 -0.26051,-0.008 -0.37146,0.06 -0.12892,0.0789 -0.21519,0.20849 -0.29372,0.33409 -0.0718,0.11481 -0.12784,0.23845 -0.19579,0.35537 -0.10372,0.17845 -0.24654,0.33679 -0.31423,0.53401 -0.0629,0.18319 -0.0571,0.37991 -0.0566,0.57094 5.4e-4,0.19404 0.007,0.39328 -0.0542,0.58024 -0.0388,0.11916 -0.11978,0.22131 -0.22269,0.29362 -0.26831,0.18853 -0.58701,0.28918 -0.90712,0.34714 -0.46465,0.0841 -0.9438,0.094 -1.39658,0.23934 -0.25263,0.0811 -0.48627,0.2162 -0.68724,0.38927 -0.31006,0.26701 -0.53129,0.61593 -0.80077,0.92022 -0.15769,0.17806 -0.32346,0.34879 -0.48228,0.52585 -0.17882,0.19936 -0.3646,0.39532 -0.51061,0.62083 -0.14569,0.22502 -0.23413,0.47995 -0.33256,0.72749 -0.0765,0.19231 -0.15515,0.38374 -0.23677,0.57393"
       id="path99"
       inkscape:path-effect="#path-effect101"
       inkscape:original-d="m 120.47106,158.01609 c -0.0399,0.0576 -0.1775,0.13302 -0.11984,0.17297 0.0576,0.0399 0.068,-0.1257 0.11984,-0.17297 0.25911,-0.23637 0.54183,-0.44555 0.80824,-0.67365 0.44342,-0.37963 0.97637,-1.28403 1.4614,-1.51812 0.11402,-0.055 0.262,-0.0183 0.38541,-0.0694 0.51839,-0.21476 1.02303,-0.49858 1.4661,-0.84052 0.36717,-0.28336 0.95369,-0.90897 1.12662,-1.0625 0.61527,-0.54623 1.30934,-0.988 1.92414,-1.51156 0.11544,-0.0983 0.31735,-0.0714 0.4482,-0.1197 0.35632,-0.13143 0.66379,-0.40427 0.98436,-0.59011 0.71841,-0.41647 2.74391,-0.3269 3.57677,-0.35707 0.84648,-0.0307 2.52691,0.0956 2.92204,1.026 0.43813,1.03159 -0.93178,3.43008 -1.69907,4.05559 -0.44199,0.36031 -1.01665,0.70132 -1.38992,1.1331 -0.35573,0.41149 -0.25223,1.05782 -0.25223,1.57925 0,0.40742 0.0304,0.64361 0.0249,0.63891 -0.54194,-0.46341 -0.93052,-1.24817 -1.08681,-1.93612 -0.0193,-0.085 -0.15382,-1.43156 -0.1682,-1.44124 -0.0965,-0.065 -0.41922,-0.25485 -0.54984,-0.30691 -0.37056,-0.14769 -0.78817,-0.073 -1.17625,-0.10461 -0.99085,-0.0808 -1.09782,-0.34865 -1.57914,0.59305 -0.0998,0.19521 -0.27344,0.38853 -0.34753,0.59278 -0.16164,0.44562 0.11056,1.13138 -0.31537,1.43594 -0.8513,0.60873 -1.92166,0.2562 -2.78506,0.8193 -0.48455,0.31603 -0.73213,0.77625 -1.11382,1.18808 -1.17273,1.26531 -0.87738,0.9566 -1.47504,2.35078" />
    <path
       style="fill:none;stroke:#000000;stroke-width:0.264583px;stroke-linecap:butt;stroke-linejoin:miter;stroke-opacity:1"
       d="m 145.29257,159.16101 c -0.6715,-1.15547 -1.53124,-2.18153 -2.29922,-3.27198 -0.13403,-0.19031 -0.29683,-0.36693 -0.36869,-0.59469 -0.0975,-0.30894 -0.13173,-0.63773 -0.27411,-0.93229 -0.0941,-0.19467 -0.29891,-0.333 -0.33661,-0.55113 -0.0207,-0.11959 0.005,-0.24095 -0.0275,-0.3612 -0.23746,-0.87582 -0.63842,-1.70186 -0.80906,-2.59741 -0.053,-0.27825 -0.0659,-0.56177 -0.069,-0.8445 -0.003,-0.30584 -0.0171,-0.61268 -0.0802,-0.91378 -0.2152,-1.02836 -0.52589,-2.04226 -0.6043,-3.09481 -0.0333,-0.44675 -9.6e-4,-0.89486 0.0494,-1.34011 0.0307,-0.27153 -0.0198,-0.55858 0.0866,-0.81637 0.11107,-0.26907 0.32865,-0.47754 0.55676,-0.64944 0.22256,-0.16772 0.45112,-0.3495 0.72071,-0.42085 0.12412,-0.0328 0.27511,0.007 0.37794,-0.0747 0.0614,-0.0488 0.0721,-0.13578 0.0964,-0.20697 0.19904,-0.58258 0.28733,-1.2041 0.56323,-1.75858 0.12578,-0.25278 0.35623,-0.44454 0.44475,-0.71707 0.15689,-0.48302 0.37566,-0.94348 0.61138,-1.39235 0.24328,-0.46326 0.51854,-0.9094 0.8227,-1.33538 0.46269,-0.64801 1.02892,-1.22731 1.41481,-1.9244 0.0706,-0.12748 0.0285,-0.29444 0.11551,-0.41221 0.5503,-0.74527 1.25908,-1.35121 1.86108,-2.05152 0.48152,-0.56015 0.75752,-1.26544 1.25434,-1.81407 0.24587,-0.27151 0.5345,-0.52209 0.87866,-0.64899 0.24499,-0.0903 0.5104,-0.076 0.76692,-0.0876 0.20072,-0.009 0.39854,-0.0467 0.59716,-0.0748 0.67361,-0.0953 1.35424,-0.183 2.00169,-0.40113 0.56217,-0.1894 1.05916,-0.5233 1.60405,-0.75206 0.32492,-0.13641 0.68543,-0.22147 1.03791,-0.15528 0.3393,0.0637 0.6538,0.24252 0.89296,0.48602 0.16375,0.16672 0.21066,0.4132 0.19313,0.63891 -0.0281,0.36174 -0.16442,0.7073 -0.34204,1.01994 -0.14758,0.25976 -0.32771,0.5036 -0.55546,0.70082 -0.55759,0.48285 -1.17086,0.91991 -1.86748,1.17766 -0.32784,0.1213 -0.67436,0.17968 -1.02211,0.21416 -0.21887,0.0217 -0.44284,0.0375 -0.65004,0.11652 -0.099,0.0378 -0.16617,0.12402 -0.23584,0.19924 -0.39846,0.43021 -0.65102,0.96713 -0.89197,1.4954 -0.13176,0.28887 -0.24787,0.58644 -0.40771,0.86104 -0.13366,0.22963 -0.33401,0.4245 -0.41065,0.68424 -0.0546,0.18512 -0.07,0.38492 -0.17974,0.55153 -0.2123,0.32237 -0.54256,0.53447 -0.84217,0.76637 -0.25072,0.19406 -0.45542,0.43861 -0.65659,0.68134 -0.33022,0.39845 -0.65415,0.80413 -0.93503,1.2392 -0.0831,0.12864 -0.15169,0.26533 -0.21063,0.4074 -0.15125,0.36458 -0.45175,0.65125 -0.57639,1.02674 -0.14654,0.44148 -0.21034,0.91804 -0.43233,1.32685 -0.0335,0.0617 -0.0891,0.1096 -0.13659,0.16126 -0.52673,0.57276 -1.07368,1.1276 -1.57925,1.71918 -0.0444,0.0519 -0.0872,0.10384 -0.11442,0.16881 -0.16184,0.38704 -0.42617,0.72773 -0.53645,1.13694 -0.11561,0.42898 -0.14184,0.87736 -0.12615,1.31954 0.0108,0.30302 0.0419,0.60878 0.14365,0.89704 0.13576,0.38456 0.38609,0.71086 0.60159,1.05222 0.13768,0.21809 0.24495,0.45438 0.32048,0.70133 0.21684,0.70896 0.1733,1.47741 0.42174,2.1744 0.0757,0.21249 0.19875,0.40379 0.31595,0.59521 0.19665,0.32117 0.4169,0.6289 0.58776,0.965 0.1551,0.3051 0.17642,0.65369 0.19892,0.98908 0.0226,0.33708 0.0213,0.69103 0.17355,0.99906 0.14231,0.28783 0.35846,0.53064 0.57673,0.76277 0.40802,0.43393 0.8656,0.827 1.20771,1.31834 0.18897,0.2714 0.31811,0.58884 0.33565,0.92568 0.0277,0.53188 0.0881,1.06505 0.0556,1.59703 -0.006,0.0992 0.0515,0.24761 -0.0362,0.2971 -0.0628,0.0354 -0.15008,0.0275 -0.22362,0.0333 -0.4484,0.0355 -0.90752,-0.009 -1.32988,-0.17066 -0.44425,-0.16995 -0.85181,-0.42823 -1.21312,-0.73316 -0.12574,-0.10612 -0.2424,-0.24572 -0.41213,-0.27413 -0.19106,-0.032 -0.38593,-0.0331 -0.57919,-0.0331 -0.1717,10e-6 -0.3447,0.004 -0.51558,6e-5 z"
       id="path107"
       inkscape:path-effect="#path-effect109"
       inkscape:original-d="m 145.29257,159.16101 c -0.66711,-1.14795 -1.54933,-2.13191 -2.27553,-3.23699 -0.12334,-0.18769 -0.29793,-0.35631 -0.37426,-0.57534 -0.11593,-0.33267 -0.12748,-0.6376 -0.2879,-0.97763 -0.091,-0.19295 -0.26475,-0.32793 -0.33326,-0.53103 -0.0337,-0.1 0.005,-0.23924 -0.0227,-0.34356 -0.26263,-0.99823 -0.75973,-1.92235 -0.86806,-2.97243 -0.0438,-0.42445 0.005,-0.90594 -0.0802,-1.3221 -0.3145,-1.53826 -0.81766,-2.91682 -0.58351,-4.4948 0.0375,-0.25275 -0.002,-0.56145 0.0727,-0.80681 0.14974,-0.49308 0.86428,-0.94422 1.28913,-1.12471 0.0832,-0.0353 0.38314,-0.0167 0.4218,-0.11676 0.23795,-0.61615 0.33432,-1.32197 0.61856,-1.91517 0.11784,-0.24594 0.36951,-0.47111 0.44783,-0.72051 0.2159,-0.68759 0.73293,-1.68216 1.14942,-2.31757 0.52754,-0.8048 1.16487,-1.5346 1.69536,-2.33192 0.0739,-0.11103 0.0511,-0.32721 0.12216,-0.42292 0.555,-0.74805 1.22754,-1.32945 1.82687,-2.01197 0.73789,-0.84032 0.94713,-1.89831 2.1125,-2.47846 0.28271,-0.14074 0.71693,-0.0838 1.02036,-0.12942 0.79332,-0.11939 1.69992,-0.20742 2.45334,-0.47696 1.24819,-0.44656 2.18539,-1.53179 3.44005,-0.44215 0.62427,0.54217 -0.12796,1.92661 -0.57661,2.32369 -0.812,0.71868 -1.75078,1.35422 -2.83313,1.45505 -0.19696,0.0184 -0.74204,0.0489 -0.88702,0.18529 -0.69925,0.65755 -0.97579,1.5943 -1.40213,2.42843 -0.11192,0.219 -0.29169,0.40362 -0.40098,0.62765 -0.0994,0.20363 -0.0869,0.43917 -0.19224,0.62036 -0.24674,0.42434 -0.71934,0.6631 -1.05154,0.97261 -0.36775,0.34262 -1.46244,1.71254 -1.60245,2.11059 -0.13241,0.37644 -0.41988,0.66374 -0.58993,1.05983 -0.0281,0.0656 -0.42787,1.34912 -0.45457,1.3839 -0.0499,0.065 -1.77308,1.90428 -1.79883,1.97248 -0.13021,0.3448 -0.36002,0.64927 -0.49994,1.01426 -0.19798,0.51647 -0.21915,1.31429 -0.15813,1.88528 0.0995,0.93127 0.71144,1.34184 0.98001,2.08625 0.27181,0.7534 0.27174,1.55943 0.4733,2.3265 0.0916,0.34848 0.76595,1.24879 0.94469,1.6568 0.26691,0.60926 0.0637,1.43791 0.38004,1.99735 0.52399,0.92662 2.07857,1.82603 2.07857,2.91344 0,0.085 0.12751,1.90636 0.004,1.92063 -1.1376,0.13174 -1.79692,-0.15556 -2.712,-0.85306 -0.17079,-0.13018 -0.27272,-0.28943 -0.51583,-0.31591 -0.34145,-0.0372 -0.68679,-0.0148 -1.03018,-0.0222 z" />
    <path
       style="fill:none;stroke:#000000;stroke-width:0.264583px;stroke-linecap:butt;stroke-linejoin:miter;stroke-opacity:1"
       d="m 115.87019,146.93448 c -0.44158,0.34482 -0.96534,0.56973 -1.50525,0.71099 -0.34417,0.0901 -0.70151,0.1166 -1.04753,0.19719 -0.18427,0.0429 -0.33919,0.15682 -0.51289,0.22746 -0.21753,0.0885 -0.42805,0.19402 -0.64924,0.27349 -0.10771,0.0387 -0.23117,0.0392 -0.33272,-0.0186 -0.17281,-0.0983 -0.32121,-0.23271 -0.47282,-0.35989 -0.22251,-0.18665 -0.50274,-0.31619 -0.66786,-0.56166 -0.0989,-0.147 -0.12499,-0.3285 -0.14129,-0.50072 -0.0165,-0.17491 -0.0469,-0.34763 -0.0744,-0.52143 -0.0276,-0.17457 -0.0449,-0.37633 0.0649,-0.52669 0.10032,-0.13735 0.28228,-0.17211 0.44198,-0.17465 0.41827,-0.007 0.82627,0.12889 1.24471,0.11136 0.15443,-0.006 0.33278,-0.0457 0.41859,-0.18604 0.0707,-0.11569 0.0916,-0.25433 0.1051,-0.38664 0.04,-0.39204 6e-4,-0.78995 -0.0898,-1.1729 -0.0452,-0.1914 -0.1296,-0.36984 -0.22493,-0.54127 -0.14656,-0.26354 -0.33622,-0.50509 -0.44807,-0.78614 -0.0417,-0.10483 -0.0958,-0.2431 -0.0175,-0.34042 0.0787,-0.0979 0.21583,-0.11181 0.33255,-0.11427 0.34471,-0.007 0.67965,0.0853 1.01954,0.12831 0.50043,0.0633 1.00894,0.11542 1.51147,0.057 0.23286,-0.0271 0.47573,-0.068 0.67419,-0.20172 0.11376,-0.0766 0.17934,-0.20969 0.18133,-0.34867 0.005,-0.32135 0.0841,-0.64093 0.032,-0.96385 -0.0918,-0.56868 -0.19091,-1.13437 -0.24011,-1.71225 -0.0136,-0.15987 -0.0616,-0.32124 -0.0319,-0.48181 0.0158,-0.0853 0.1232,-0.0819 0.18775,-0.0679 0.19109,0.0413 0.35393,0.15763 0.50978,0.26974 0.26006,0.18708 0.48723,0.4222 0.76814,0.57739 0.0769,0.0425 0.17084,0.12052 0.25488,0.0792 0.10282,-0.0506 0.18802,-0.13274 0.26535,-0.21597 0.26105,-0.28094 0.46694,-0.61011 0.62982,-0.95577 0.084,-0.17837 0.17159,-0.35922 0.20939,-0.55333 0.029,-0.14885 -0.059,-0.28484 -0.1544,-0.39416 -0.05,-0.0573 -0.19785,-0.0944 -0.16124,-0.16185 0.0335,-0.0616 0.13458,-0.0427 0.19791,-0.0432 0.18319,-0.001 0.32943,0.13023 0.43933,0.2634 0.19587,0.23733 0.31951,0.52601 0.52291,0.75737 0.078,0.0887 0.19478,0.1753 0.31863,0.13999 0.11794,-0.0336 0.22083,-0.11921 0.27935,-0.22346 0.0918,-0.16345 0.086,-0.36 0.062,-0.53949 -0.0543,-0.40628 -0.18821,-0.79833 -0.35421,-1.17114 -0.1239,-0.27826 -0.25037,-0.56057 -0.43662,-0.80293 -0.12197,-0.15872 -0.35267,-0.24409 -0.40333,-0.44255 -0.0352,-0.138 -0.0359,-0.2823 -0.0381,-0.42393 -0.006,-0.39329 -0.0148,-0.79032 0.0488,-1.17874 0.0169,-0.10288 0.0122,-0.21954 0.0742,-0.30567 0.0774,-0.10742 0.22361,-0.11191 0.34343,-0.10139 0.1472,0.0129 0.29594,0.0378 0.44366,0.005 0.30504,-0.068 0.58903,-0.23022 0.90773,-0.23503 0.17292,-0.003 0.33664,0.0714 0.47231,0.17454 0.13592,0.10332 0.28046,0.2033 0.45122,0.23934 0.31633,0.0668 0.64169,-0.0361 0.91808,-0.18644 0.23496,-0.12776 0.46557,-0.27658 0.64283,-0.47728 0.21456,-0.24294 0.30691,-0.56632 0.35847,-0.87914 0.10128,-0.61442 0.0809,-1.23965 0.0859,-1.86001 0.004,-0.44166 -0.0221,-0.89167 0.0794,-1.32336 0.0221,-0.0941 0.0412,-0.1888 0.037,-0.28656 -0.006,-0.13327 -0.0126,-0.27857 0.0734,-0.39225 0.10491,-0.13867 0.29296,-0.16749 0.45597,-0.16012 0.3426,0.0155 0.66177,0.15854 0.99658,0.2163 0.36923,0.0637 0.76249,0.0292 1.10226,-0.12913 0.12226,-0.057 0.24004,-0.1271 0.33325,-0.22874 0.0549,-0.0598 0.11245,-0.11849 0.19604,-0.1437 0.27673,-0.0835 0.56496,-0.1132 0.85232,-0.14204 0.0749,-0.008 0.18036,-0.004 0.21183,-0.0854 0.0418,-0.10832 0.029,-0.22799 0.024,-0.34138 -0.0199,-0.44993 -0.0522,-0.90072 -0.0324,-1.35081 0.009,-0.19742 0.0878,-0.38595 0.2079,-0.54191 0.13748,-0.17849 0.32488,-0.32562 0.41683,-0.53234 0.0557,-0.12523 0.007,-0.29479 0.11002,-0.39212 0.0633,-0.0596 0.15391,-0.0799 0.23695,-0.0945 0.19906,-0.0349 0.41673,-0.0142 0.59477,-0.12545 0.24891,-0.15559 0.39827,-0.44118 0.67025,-0.56097 0.11203,-0.0493 0.23518,-0.0631 0.35412,-0.0882 0.36338,-0.0767 0.74985,-0.12952 1.06285,-0.3326 0.18774,-0.12181 0.34783,-0.28177 0.53847,-0.39982 0.13744,-0.0851 0.30331,-0.17793 0.46722,-0.12937 0.10233,0.0303 0.1864,0.10103 0.2713,0.16273 0.32873,0.23892 0.57089,0.57035 0.80977,0.89456 0.0619,0.0841 0.0807,0.24529 0.18466,0.25321 0.0602,0.005 0.0497,-0.10352 0.0559,-0.14857 0.0151,-0.10969 0.006,-0.2328 0.069,-0.32684 0.12093,-0.17911 0.32957,-0.29245 0.42065,-0.48862 0.0695,-0.14965 0.028,-0.33467 0.13682,-0.47084 0.17243,-0.21575 0.3808,-0.40939 0.62717,-0.53623 0.14665,-0.0755 0.33151,-0.13396 0.48736,-0.0533 0.15782,0.0817 0.22254,0.26097 0.26516,0.42248 0.12029,0.4559 0.18596,0.92868 0.17295,1.40009 -0.01,0.34573 -0.0449,0.7066 -0.21538,1.01279 -0.0479,0.086 -0.10162,0.17543 -0.19637,0.21827 -0.19907,0.09 -0.41899,0.11944 -0.63406,0.14237 -0.14803,0.0158 -0.29534,0.0447 -0.4441,0.0474 -0.31222,0.006 -0.62416,-0.0776 -0.93614,-0.0239 -0.15179,0.0261 -0.30594,0.12054 -0.35028,0.27559 -0.0612,0.21417 -0.0568,0.43974 -0.0716,0.66022 -0.0148,0.22029 -0.0183,0.4471 -0.0949,0.65696 -0.0304,0.0833 -0.0961,0.1544 -0.18722,0.1739 -0.21025,0.045 -0.42712,0.0249 -0.64041,0.0348 -0.16771,0.008 -0.34829,0.004 -0.49732,0.0901 -0.10306,0.0593 -0.15515,0.1792 -0.1733,0.2914 -0.0353,0.21835 0.0653,0.43028 0.1819,0.60777 0.10833,0.16486 0.22882,0.32141 0.34961,0.47718 0.0633,0.0816 0.28487,0.28674 0.19071,0.24424 -0.0514,-0.0232 -0.0979,-0.0945 -0.13617,-0.14473 -0.37117,-0.48725 -0.69356,-1.01358 -1.10306,-1.46972 -0.074,-0.0824 -0.13468,-0.19282 -0.24006,-0.23132 -0.0717,-0.0262 -0.10645,0.0698 -0.12751,0.12153 -0.0562,0.13792 -0.0638,0.29118 -0.12024,0.42812 -0.0709,0.17197 -0.26532,0.27511 -0.30007,0.46082 -0.0867,0.46328 -0.0386,0.93642 -0.0191,1.40343 0.0141,0.33834 0.05,0.69033 -0.0561,1.01394 -0.0247,0.0753 -0.11654,0.0914 -0.18418,0.0998 -0.2515,0.0312 -0.50564,0.008 -0.7577,-0.003 -0.35305,-0.0159 -0.71085,-0.0578 -1.06097,7.9e-4 -0.13286,0.0222 -0.30101,0.0382 -0.37135,0.16199 -0.0558,0.0982 -0.0819,0.2109 -0.10327,0.3209 -0.079,0.40694 -0.005,0.82841 -0.0948,1.23333 -0.0882,0.39911 -0.38306,0.72307 -0.46611,1.11969 -0.0344,0.16413 0.0249,0.34262 -0.0461,0.49861 -0.033,0.0726 -0.10796,0.11047 -0.16938,0.15539 -0.63206,0.46232 -1.3601,0.76917 -2.09255,1.03159 -0.14567,0.0522 -0.28602,0.12223 -0.43636,0.1587 -0.19181,0.0465 -0.40395,-0.004 -0.58411,0.0811 -0.25111,0.11802 -0.45277,0.31763 -0.63398,0.52291 -0.23962,0.27145 -0.48297,0.54731 -0.65375,0.8662 -0.10825,0.20213 0.006,0.44913 -0.087,0.65123 -0.0905,0.19664 -0.20774,0.38013 -0.32888,0.55914 -0.33103,0.48914 -0.71762,0.94669 -0.95939,1.49152 -0.0739,0.16649 -0.12075,0.34354 -0.14449,0.52407 -0.0841,0.63969 -0.0542,1.29113 -0.1699,1.92678 -0.0431,0.23681 -0.10513,0.47907 -0.25377,0.67571 -0.36926,0.4885 -0.86883,0.8558 -1.37077,1.19712 -0.42532,0.28922 -0.87484,0.54561 -1.27421,0.8706 -0.53203,0.43294 -0.92571,1.00383 -1.42227,1.47322 -0.20615,0.19487 -0.44584,0.34809 -0.67037,0.51983 -0.16712,0.12783 -0.29898,0.30328 -0.35816,0.50765 -0.0483,0.16673 -0.0602,0.3417 -0.0606,0.51449"
       id="path111"
       inkscape:path-effect="#path-effect113"
       inkscape:original-d="m 115.87019,146.93448 c -0.75791,0.58575 -1.59813,0.77195 -2.51147,0.90069 -0.17818,0.0251 -0.33081,0.14174 -0.49692,0.21093 -1.00053,0.41676 -0.81376,0.48829 -1.54571,-0.10841 -0.20539,-0.16743 -0.59272,-0.3817 -0.69181,-0.64083 -0.1003,-0.26232 -0.0799,-0.54856 -0.14025,-0.82392 -0.35565,-1.62361 1.92107,-0.10493 2.19884,-0.96583 0.15059,-0.46669 0.061,-1.36731 -0.15211,-1.80629 -0.38444,-0.79176 -1.32294,-1.69102 0.37981,-1.37158 0.49127,0.0922 2.76957,0.41887 2.76957,-0.41698 0,-0.28998 0.0865,-0.61586 0.043,-0.90663 -0.0909,-0.60714 -0.25107,-1.14564 -0.25107,-1.78309 0,-0.0739 -0.0988,-0.49956 0.009,-0.54061 0.42762,-0.16302 1.43634,1.07907 1.7072,0.90488 0.4354,-0.27999 0.92762,-1.16358 1.06722,-1.66858 0.13316,-0.48173 -0.66179,-0.64039 -0.1079,-0.64347 0.67482,-0.004 0.88831,1.72572 1.52788,0.98207 0.37881,-0.44045 -0.34036,-2.09378 -0.6965,-2.55833 -0.11595,-0.15125 -0.31347,-0.26244 -0.39976,-0.43426 -0.0778,-0.15483 -0.0522,-1.73575 0.0814,-1.91663 0.14467,-0.19589 0.47594,-0.0524 0.69282,-0.08 0.36284,-0.0462 0.75954,-0.31869 1.14797,-0.23614 0.25259,0.0537 0.37806,0.22829 0.58586,0.33135 0.56798,0.2817 1.30284,-0.17311 1.69872,-0.54184 0.79589,-0.7413 0.32201,-3.12863 0.60174,-4.22367 0.0399,-0.15606 -0.0274,-0.35363 0.0444,-0.50361 0.22208,-0.46404 1.07723,-0.0949 1.47382,-0.0166 0.43897,0.0867 1.00301,-0.002 1.36656,-0.26278 0.0585,-0.042 0.16575,-0.19857 0.23508,-0.21974 1.45998,-0.44566 1.1036,0.48014 1.1036,-1.84752 0,-0.55376 0.31286,-0.68524 0.61429,-1.13781 0.078,-0.11718 0.0272,-0.38218 0.16749,-0.44962 0.27374,-0.13158 0.54998,-0.0297 0.81205,-0.20132 0.24025,-0.15735 0.46158,-0.5207 0.75122,-0.58173 0.45173,-0.0952 0.84459,-0.16788 1.27715,-0.3666 0.22952,-0.10545 0.76475,-0.73582 1.12798,-0.50928 0.55509,0.34619 0.80535,0.76425 1.16163,1.25484 0.0938,0.12921 0.0511,-0.32586 0.14101,-0.45781 0.11652,-0.17098 0.28865,-0.29828 0.40697,-0.46603 0.0803,-0.11385 0.0374,-0.33818 0.13213,-0.46882 0.24681,-0.34016 1.12148,-1.11717 1.37578,-0.26952 0.19112,0.63706 0.36539,1.99396 -0.10563,2.62578 -0.15125,0.20289 -0.90845,0.23469 -1.12127,0.26679 -0.33781,0.051 -1.07334,-0.20504 -1.31708,0.17551 -0.18504,0.28891 -0.006,1.42576 -0.33834,1.55689 -0.29337,0.11574 -1.09597,-0.0533 -1.27799,0.22066 -0.28307,0.42607 0.14981,0.89285 0.38154,1.21385 0.0766,0.10614 0.33274,0.40091 0.23303,0.31609 -0.16832,-0.14317 -1.31095,-1.87633 -1.4883,-1.84065 -0.1068,0.0215 -0.17481,0.41743 -0.20457,0.52121 -0.054,0.18819 -0.28256,0.32832 -0.31583,0.51272 -0.13907,0.77095 0.0986,1.64079 -0.0715,2.40021 -0.0728,0.32492 -2.20067,-0.19685 -2.39826,0.30352 -0.1778,0.45025 -0.0926,0.92333 -0.1524,1.38718 -0.0574,0.44547 -0.33434,0.80249 -0.48119,1.22042 -0.0531,0.15102 0.0371,0.47753 -0.10278,0.58646 -0.77587,0.60409 -1.68924,0.92666 -2.59335,1.26359 -0.18398,0.0686 -0.49213,0.0275 -0.65456,0.10461 -0.46073,0.21866 -0.96448,0.92965 -1.25339,1.35179 -0.14534,0.21235 -0.0172,0.5139 -0.12293,0.72167 -0.40192,0.7897 -1.06563,1.37719 -1.34279,2.19923 -0.21461,0.63656 -0.0614,2.32807 -0.45188,2.87703 -0.62179,0.87426 -1.75604,1.43022 -2.60186,2.06063 -0.53868,0.40149 -0.99628,1.05291 -1.47194,1.50566 -0.65202,0.62061 -1.12715,0.56516 -1.12715,1.57757" />
    <path
       style="fill:none;stroke:#000000;stroke-width:0.264583px;stroke-linecap:butt;stroke-linejoin:miter;stroke-opacity:1"
       d="m 119.96553,264.12069 c 0.57162,-0.59139 1.31323,-0.99214 1.83958,-1.63421 0.30932,-0.37732 0.58272,-0.78247 0.8282,-1.20403 0.21372,-0.36701 0.42979,-0.73237 0.62857,-1.10814 0.20434,-0.38628 0.42755,-0.77883 0.78115,-1.05299 0.55444,-0.42988 1.19682,-0.75072 1.6974,-1.24339 0.15192,-0.14952 0.23628,-0.39537 0.44381,-0.46222 0.24157,-0.0778 0.49709,-0.15776 0.68768,-0.32728 0.61314,-0.54536 1.19298,-1.12981 1.72231,-1.75633 0.74584,-0.88279 1.3172,-1.89422 2.04604,-2.79094 0.43425,-0.53428 0.9216,-1.02306 1.35842,-1.55477 0.37456,-0.45592 0.63529,-1.01325 1.09971,-1.38786 0.29373,-0.23693 0.63838,-0.39807 0.93223,-0.63691 0.56599,-0.46002 1.11421,-0.94375 1.61112,-1.47672 0.20148,-0.2161 0.19686,-0.52805 0.26672,-0.79813 0.0362,-0.13987 0.13446,-0.25077 0.26,-0.32708 0.84599,-0.51425 1.63525,-1.12886 2.3165,-1.84461 0.32066,-0.3369 0.56823,-0.75493 0.95921,-1.01481 0.22176,-0.1474 0.48208,-0.2292 0.68377,-0.41235 0.94666,-0.85966 1.85996,-1.76126 2.67269,-2.74664 0.31892,-0.38667 0.61406,-0.79579 0.98241,-1.1403 0.0905,-0.0847 0.20892,-0.11842 0.32225,-0.16335 0.33998,-0.13479 0.5936,-0.44396 0.96617,-0.50746 0.39,-0.0665 0.79047,0.0232 1.17826,-0.0841 0.69294,-0.19173 1.26676,-0.67715 1.96174,-0.85565 0.21262,-0.0546 0.46166,-0.006 0.64503,-0.13316 0.22068,-0.15289 0.40032,-0.35632 0.58365,-0.55045 0.48602,-0.51464 0.92512,-1.07587 1.44933,-1.55218 0.22685,-0.20612 0.46929,-0.39438 0.70779,-0.58682 0.55861,-0.45072 1.12196,-0.90357 1.75191,-1.25361 0.38747,-0.2153 0.83061,-0.28574 1.26427,-0.34375 0.46732,-0.0625 0.95779,-0.12855 1.35404,-0.40736 0.50459,-0.35504 0.81978,-0.89824 1.17533,-1.38754 0.22027,-0.30313 0.49853,-0.55533 0.76287,-0.8184 0.3821,-0.38026 0.79767,-0.73049 1.27594,-0.99197 0.21874,-0.11959 0.45253,-0.25686 0.57405,-0.47924 0.14502,-0.26539 0.0657,-0.60293 0.24589,-0.85394 0.12476,-0.1738 0.30063,-0.30297 0.47003,-0.43 0.62394,-0.46787 1.4683,-0.63328 1.99675,-1.20367 0.14717,-0.15885 0.26176,-0.3456 0.37931,-0.52684 0.35817,-0.55224 0.70904,-1.11019 1.024,-1.68846 0.0536,-0.0983 0.0907,-0.20246 0.0995,-0.31715 0.0176,-0.22967 -0.033,-0.47543 0.0548,-0.68965 0.0533,-0.13004 0.15697,0.0741 0.18765,0.13156 0.18271,0.3421 0.14368,0.74168 0.15264,1.11523 0.009,0.36921 0.0693,0.75564 -0.0533,1.10857 -0.12718,0.36636 -0.34084,0.69438 -0.5514,1.01709 -0.47177,0.72305 -0.98838,1.41487 -1.48324,2.12203 -0.21076,0.30118 -0.33066,0.6512 -0.44191,0.99829 -0.0804,0.25084 -0.17887,0.49754 -0.32869,0.71648 -0.12666,0.18509 -0.23759,0.37932 -0.32835,0.58567 -0.43389,0.98651 -0.90384,1.9575 -1.43062,2.89833 -0.48759,0.87084 -1.01425,1.75047 -1.78331,2.40266 -0.65355,0.55423 -1.50284,0.86229 -2.06867,1.51625 -0.31778,0.36728 -0.61287,0.76415 -0.9983,1.06222 -0.26934,0.20829 -0.60549,0.34244 -0.8181,0.61313 -0.16635,0.21179 -0.16574,0.49655 -0.17477,0.75211 -0.007,0.21105 -0.0547,0.41872 -0.15086,0.6101 -0.39315,0.78268 -0.78836,1.59373 -1.42359,2.19431 -0.11439,0.10815 -0.28298,0.12646 -0.43176,0.14589 -0.76223,0.0995 -1.54187,0.0455 -2.29577,0.20244 -0.18156,0.0378 -0.43352,0.0253 -0.52375,0.19238 -0.0676,0.12511 -0.0791,0.27304 -0.0974,0.41206 -0.10876,0.82408 -0.1742,1.65356 -0.21712,2.48332 -0.0166,0.32072 -0.0788,0.64391 -0.0409,0.96286 0.0293,0.24598 0.10522,0.48845 0.0889,0.73922 -0.01,0.15042 -0.1908,0.14863 -0.30117,0.17705 -0.51859,0.13352 -1.05453,0.20064 -1.56528,0.36131 -0.39371,0.12385 -0.7677,0.30297 -1.13484,0.48951 -0.43612,0.22159 -0.89346,0.42016 -1.27393,0.72916 -0.22232,0.18056 -0.43138,0.3775 -0.63805,0.57572 -0.30153,0.2892 -0.56717,0.63153 -0.68859,1.03763 -0.11974,0.40049 -0.16464,0.82028 -0.17316,1.23636 -0.008,0.39709 0.16789,0.85304 -0.0481,1.19222 -0.0822,0.12909 -0.20366,0.22881 -0.31487,0.33253 -0.52522,0.48983 -1.12098,0.91076 -1.58527,1.45919 -0.0815,0.0963 -0.17723,0.1839 -0.304,0.21652 -0.31587,0.0813 -0.64506,0.0218 -0.96317,-0.0148 -0.22722,-0.0262 -0.46145,-0.10768 -0.6855,-0.0523 -0.519,0.12831 -1.03458,0.27588 -1.53513,0.46309 -0.20518,0.0767 -0.43718,0.11438 -0.60759,0.25397 -0.42235,0.34597 -0.87783,0.67872 -1.17829,1.13856 -0.20147,0.30834 -0.17828,0.6909 -0.28157,1.03343 -0.24342,0.80721 -0.62757,1.56417 -0.8295,2.38704 -0.063,0.25665 0.0308,0.70898 -0.22962,0.76026 -0.049,0.01 -0.0818,-0.0302 -0.13814,0.0338 -0.50192,0.57057 -1.03413,1.11762 -1.61767,1.60291 -0.23556,0.1959 -0.53603,0.3348 -0.69966,0.59886 -0.10636,0.17164 -0.098,0.38473 -0.1326,0.57748"
       id="path115"
       inkscape:path-effect="#path-effect117"
       inkscape:original-d="m 119.96553,264.12069 c 0.55717,-0.57707 1.29044,-0.95481 1.79855,-1.58328 0.59495,-0.73587 0.69422,-0.96881 1.22971,-1.86549 0.26734,-0.44766 0.53126,-1.13508 0.96239,-1.48193 0.52059,-0.41882 1.20771,-0.83155 1.75868,-1.28888 0.13217,-0.10971 0.33402,-0.45335 0.50109,-0.49696 0.1599,-0.0417 0.53823,-0.21053 0.66893,-0.32677 0.54646,-0.48598 1.0552,-1.01407 1.54493,-1.55703 0.65109,-0.72187 1.14013,-1.54414 1.71213,-2.33412 0.54578,-0.75377 1.1405,-1.39133 1.75746,-2.08341 0.39492,-0.44299 0.66783,-0.9931 1.09605,-1.41219 0.26485,-0.25923 0.61281,-0.40098 0.90835,-0.62876 0.60681,-0.4677 1.13141,-1.0473 1.7085,-1.54913 0.32959,-0.2866 0.15312,-0.91356 0.49833,-1.11842 0.82363,-0.48876 1.60663,-1.13823 2.31481,-1.81946 0.3101,-0.29831 0.74216,-0.94137 1.12846,-1.14204 0.19104,-0.0992 0.37423,-0.16438 0.54047,-0.3145 0.95655,-0.86378 1.80034,-1.81131 2.67584,-2.7429 0.1936,-0.20601 0.88639,-1.224 1.24372,-1.30928 0.32901,-0.0785 0.6105,-0.4167 0.95133,-0.51196 0.37342,-0.10438 0.79466,0.007 1.16666,-0.0782 0.72486,-0.16589 1.32193,-0.64101 2.02053,-0.86881 0.20366,-0.0664 0.47801,-0.0543 0.67164,-0.13337 0.31258,-0.12762 1.70611,-1.84459 2.21492,-2.25117 0.69269,-0.55353 1.74857,-1.48517 2.53895,-1.81667 0.6454,-0.27068 1.36457,-0.20018 1.99923,-0.4371 0.91274,-0.34073 1.26851,-1.36593 1.91975,-2.00301 0.46676,-0.4566 0.99751,-1.0536 1.58058,-1.34674 0.22758,-0.11442 0.41876,-0.22838 0.60043,-0.42612 0.28821,-0.31369 0.0671,-0.74969 0.43667,-1.09396 0.69354,-0.64616 1.60076,-1.00961 2.35373,-1.50069 0.1282,-0.0836 1.37619,-2.06946 1.4848,-2.39125 0.0448,-0.1329 0.005,-1.00521 0.13795,-0.86679 0.26259,0.27304 0.27094,0.69084 0.27094,1.048 0,0.41389 0.0512,0.84903 -0.0267,1.25547 -0.13425,0.70038 -1.74815,2.69047 -2.16095,3.39342 -0.2407,0.40988 -0.30039,0.79592 -0.48119,1.22042 -0.11311,0.26556 -0.33711,0.51297 -0.44679,0.76185 -0.40875,0.92747 -0.80975,1.80235 -1.29937,2.69188 -0.52195,0.94827 -1.08878,1.96541 -1.91751,2.70502 -0.67453,0.60199 -1.63789,0.97621 -2.21657,1.66717 -0.24816,0.29631 -0.54164,0.63336 -0.85831,0.9202 -0.21328,0.19318 -0.78333,0.47739 -0.92466,0.73242 -0.18788,0.33902 -0.0568,0.8234 -0.21909,1.17355 -0.38634,0.83343 -1.05426,1.51993 -1.46932,2.29481 -0.18478,0.34496 -2.76312,0.12528 -3.26168,0.55647 -0.15297,0.1323 -0.35738,3.33369 -0.35738,3.82355 0,0.1609 0.17602,0.72511 0.0535,0.86901 -0.0374,0.0439 -1.47033,0.37775 -1.76562,0.42864 -0.3886,0.067 -2.15498,0.94326 -2.56418,1.30721 -1.04691,0.93116 -1.31007,1.21038 -1.4024,2.63608 -0.0269,0.41587 0.0511,0.92993 -0.0535,1.33193 -0.0369,0.1421 -1.58643,1.42801 -1.97366,1.87175 -0.33174,0.38015 -1.41422,0.0237 -1.8469,0.064 -0.15392,0.0143 -1.96758,0.55418 -2.17497,0.72244 -0.39288,0.31875 -0.83913,0.69352 -1.14952,1.09838 -0.21545,0.28103 -0.19301,0.66403 -0.28631,0.99161 -0.19974,0.70137 -0.53937,1.36014 -0.74851,2.05727 -0.10799,0.35994 -0.17063,0.80245 -0.3208,1.14903 -0.0365,0.0843 -0.0763,-0.0302 -0.11718,0.0169 -0.49354,0.56937 -1.04787,1.07641 -1.60326,1.59959 -0.18558,0.17482 -0.70321,0.4787 -0.79257,0.72465 -0.0575,0.15831 -0.0634,0.34015 -0.0889,0.49494" />
    <path
       style="fill:none;stroke:#000000;stroke-width:0.264583px;stroke-linecap:butt;stroke-linejoin:miter;stroke-opacity:1"
       d="m 164.36329,214.25764 c 0.16231,-0.21051 0.29862,-0.44752 0.51505,-0.61006 0.26014,-0.19537 0.56093,-0.32525 0.85424,-0.46165 0.21101,-0.0981 0.43072,-0.18388 0.62221,-0.31727 0.27703,-0.19298 0.4768,-0.47233 0.74298,-0.67882 0.37914,-0.29412 0.80279,-0.52629 1.23878,-0.72415 0.26499,-0.12026 0.53718,-0.22478 0.81666,-0.30656 0.49151,-0.14383 0.98923,-0.26843 1.49312,-0.36029 0.20839,-0.038 0.41945,-0.0658 0.63203,-0.0605 0.21895,0.005 0.44379,0.0143 0.65472,-0.0575 0.39687,-0.13512 0.77479,-0.3201 1.14436,-0.51637 0.55928,-0.29703 1.10439,-0.62194 1.62472,-0.98343 0.36149,-0.25114 0.67771,-0.55894 0.99986,-0.85701 0.35032,-0.32413 0.69473,-0.66474 1.10707,-0.90839 0.1429,-0.0844 0.31437,-0.11626 0.44016,-0.23104 0.21604,-0.19713 0.36725,-0.45103 0.52244,-0.69552 0.0981,-0.15449 0.21218,-0.29769 0.33133,-0.43632 0.12438,-0.14472 0.25674,-0.28257 0.38045,-0.42823 0.023,-0.0271 0.0145,0.0352 0.0371,0.013 0.0733,-0.0721 0.13323,-0.15712 0.19566,-0.23872 0.56981,-0.74476 1.12102,-1.50366 1.6935,-2.24635 0.32361,-0.41983 0.65765,-0.83602 0.91417,-1.3016 0.0993,-0.1803 0.17914,-0.37228 0.22075,-0.57499 0.10255,-0.49955 0.0946,-1.01305 0.077,-1.52003 -0.0111,-0.32016 -0.0169,-0.64043 -0.0253,-0.96072 -0.006,-0.24436 -0.0526,-0.49725 0.0228,-0.73404 0.0992,-0.31107 0.24204,-0.60567 0.3737,-0.90374 0.20664,-0.46784 0.42421,-0.93771 0.53034,-1.44017 0.0557,-0.2638 0.0926,-0.54814 -6e-4,-0.80725 -0.0506,-0.14061 -0.1426,-0.27395 -0.27504,-0.34699 -0.12344,-0.0681 -0.27276,-0.0318 -0.38849,0.0348 -0.20454,0.11767 -0.36539,0.29481 -0.52383,0.46649 -0.13699,0.14844 -0.25242,0.32125 -0.41552,0.44145 -0.20049,0.14775 -0.43172,0.24578 -0.65902,0.34408 -0.26071,0.11275 -0.5216,0.23342 -0.74481,0.41331 -0.26745,0.21554 -0.49982,0.48588 -0.81799,0.62915 -0.50528,0.22752 -1.0737,0.28505 -1.56261,0.55186 -0.13725,0.0749 -0.28514,0.14844 -0.38192,0.27177 -0.10165,0.12953 -0.17399,0.27905 -0.24221,0.42794 -0.0512,0.11168 -0.1055,0.22154 -0.16717,0.32815 -0.11437,0.1977 -0.23908,0.39377 -0.29911,0.61709 -0.11087,0.41247 -0.0889,0.84367 -0.0853,1.26634 0.003,0.39701 0.0157,0.81303 -0.14436,1.18181 -0.035,0.0808 -0.12878,0.10857 -0.20756,0.12335 -0.23189,0.0435 -0.46949,0.0351 -0.70417,0.0312 -0.52059,-0.009 -1.04692,-0.0463 -1.56219,0.0439 -0.24929,0.0436 -0.51704,0.1054 -0.70092,0.28784 -0.10479,0.10397 -0.18921,0.22701 -0.2668,0.35202 -0.14774,0.23803 -0.23351,0.51226 -0.25262,0.79192 -0.0225,0.32903 0.0193,0.66154 -0.0461,0.98819 -0.0486,0.24283 -0.17085,0.46144 -0.29041,0.67498 -0.34845,0.62235 -0.72932,1.22663 -1.13731,1.81143 -0.27109,0.38857 -0.53716,0.78475 -0.86304,1.12957 -0.11285,0.11941 -0.2307,0.24731 -0.39141,0.30087 -0.22584,0.0753 -0.46885,0.0615 -0.70232,0.0409 -0.33927,-0.0299 -0.67566,-0.10636 -1.01723,-0.0981 -0.15759,0.004 -0.32711,0.0289 -0.45114,0.13694 -0.18865,0.1643 -0.37621,0.34734 -0.47051,0.58423 -0.0892,0.22404 -0.0617,0.47039 -0.12227,0.70163 -0.0601,0.22945 -0.19295,0.43207 -0.34862,0.60824 -0.19263,0.21799 -0.40814,0.41389 -0.61859,0.61418 -0.79901,0.76045 -1.68189,1.42496 -2.5762,2.06652 -0.16697,0.11978 -0.38772,0.16328 -0.5254,0.31987 -0.30896,0.3514 -0.45902,0.80798 -0.72441,1.18789 -0.0826,0.11827 -0.17518,0.22885 -0.25307,0.3516 -0.0268,0.0422 1.7e-4,0.0513 0.0335,0.0217 0.0418,-0.0371 0.101,-0.0374 0.15345,-0.043 0.11461,-0.0122 0.22878,-0.0272 0.34038,-0.0601 0.2641,-0.078 0.54113,-0.0852 0.80972,-0.14339 0.29431,-0.0637 0.58793,-0.14593 0.88911,-0.16069 0.1824,-0.009 0.35856,0.0877 0.53921,0.059 0.46303,-0.0735 0.89712,-0.26435 1.30857,-0.48291 0.14138,-0.0751 0.28107,-0.1533 0.421,-0.23104"
       id="path119"
       inkscape:path-effect="#path-effect121"
       inkscape:original-d="m 164.36329,214.25764 c 0.12982,-0.16717 0.23902,-0.35263 0.38946,-0.50152 0.35948,-0.35577 1.09765,-0.58528 1.54019,-0.84788 0.26792,-0.15898 0.48225,-0.45037 0.71925,-0.64904 0.47345,-0.39688 1.18245,-0.75661 1.76438,-0.97633 0.49295,-0.18613 1.78043,-0.50483 2.27229,-0.54047 0.29103,-0.0211 0.56863,0.0385 0.85545,-0.0523 0.80838,-0.25606 2.47635,-1.21468 3.12775,-1.76088 0.56854,-0.47672 1.13886,-1.10484 1.75933,-1.50274 0.12323,-0.079 0.30535,-0.12044 0.40905,-0.20122 0.30173,-0.23501 0.52482,-0.71597 0.76863,-1.01127 1.38874,-1.68202 -0.6984,1.12149 2.34065,-2.93056 0.31897,-0.4253 1.05864,-1.3073 1.20751,-1.88982 0.1951,-0.76339 0.0802,-1.72669 0.0802,-2.52543 0,-0.25435 -0.0511,-0.57303 0.0251,-0.81873 0.26388,-0.85053 1.48378,-2.78267 0.69132,-3.44185 -0.46389,-0.38589 -1.11312,0.71186 -1.43323,0.92715 -0.34837,0.2343 -0.76258,0.34648 -1.12278,0.5579 -0.38974,0.22876 -0.66565,0.62656 -1.07934,0.80818 -0.63652,0.27945 -1.35693,0.30768 -1.90222,0.79125 -0.1177,0.10439 -0.32202,0.57801 -0.34521,0.62432 -0.0744,0.14858 -0.27608,0.44825 -0.34497,0.64091 -0.28347,0.79275 0.0326,1.76961 -0.27101,2.57981 -0.15515,0.41403 -2.60902,-0.21606 -3.23913,0.55445 -0.76462,0.935 -0.27683,1.48791 -0.56043,2.26949 -0.20866,0.5751 -1.87262,3.18956 -2.45942,3.62638 -0.53906,0.40127 -1.88208,-0.21795 -2.31585,0.14897 -0.79252,0.67037 -0.41215,0.89842 -0.68222,1.49841 -0.15812,0.3513 -0.51115,0.65031 -0.78974,0.92285 -0.82062,0.80276 -1.75316,1.4525 -2.66753,2.15792 -0.15721,0.12129 -0.42762,0.19916 -0.55259,0.34456 -0.30077,0.34994 -0.47474,0.77466 -0.70778,1.16727 -0.0424,0.0714 -0.26732,0.31362 -0.26732,0.39678 0,0.0305 0.0526,-0.0331 0.0824,-0.04 0.14722,-0.0338 0.27771,-0.0222 0.41822,-0.068 0.25962,-0.0847 0.5084,-0.0813 0.77348,-0.1389 0.31014,-0.0674 0.61981,-0.138 0.93565,-0.17435 0.18342,-0.0211 0.42159,0.0817 0.58047,0.0547 0.64683,-0.11008 1.16611,-0.40714 1.71445,-0.71179" />
    <path
       style="fill:none;stroke:#000000;stroke-width:0.264583px;stroke-linecap:butt;stroke-linejoin:miter;stroke-opacity:1"
       d="m 199.45985,193.61581 c 0.21351,-0.1241 0.34376,-0.35361 0.39166,-0.59108 0.0837,-0.41474 0.0148,-0.83848 0.005,-1.25661 -0.006,-0.26441 -0.027,-0.55504 0.11912,-0.78471 0.21045,-0.33084 0.54572,-0.55669 0.88444,-0.74038 0.59386,-0.32205 1.25177,-0.51773 1.82169,-0.88397 0.33138,-0.21295 0.60861,-0.49639 0.89364,-0.76537 0.17463,-0.1648 0.33856,-0.34518 0.53768,-0.47973 0.11573,-0.0782 0.26235,-0.029 0.38853,-0.0814 0.27521,-0.11432 0.52095,-0.28771 0.76296,-0.45881 0.70566,-0.4989 1.36113,-1.064 2.05243,-1.58178 0.23809,-0.17833 0.46958,-0.36901 0.72851,-0.51598 0.34226,-0.19427 0.73186,-0.29506 1.05326,-0.53034 0.66482,-0.48667 1.21646,-1.12337 1.9359,-1.53427 0.46032,-0.26291 0.97102,-0.42905 1.48894,-0.53486 0.37714,-0.077 0.76218,-0.098 1.14462,-0.1362 0.74948,-0.0748 1.47261,-0.31267 2.16317,-0.60373 0.31773,-0.13392 0.63977,-0.26175 0.94118,-0.42934 0.49486,-0.27515 0.85093,-0.72709 1.22317,-1.14123 0.33833,-0.37641 0.71996,-0.71125 1.11103,-1.03111 0.57169,-0.46758 1.16548,-0.91597 1.81851,-1.2642 0.43038,-0.2295 0.90471,-0.39649 1.39562,-0.41707 0.4389,-0.0184 0.86162,0.12186 1.27298,0.25627 0.50446,0.16483 1.02514,0.28345 1.55484,0.32761 0.67996,0.0567 1.36663,0.0365 2.04277,-0.0603 0.16809,-0.0241 0.25701,-0.18732 0.31807,-0.32805 0.10123,-0.23331 0.21536,-0.47237 0.42217,-0.63438 0.14093,-0.1104 0.31758,-0.15717 0.49319,-0.17543 0.16695,-0.0174 0.33311,-0.0478 0.48781,-0.1203 0.66057,-0.30972 1.31346,-0.63778 1.9977,-0.89452 1.21333,-0.45526 2.46009,-0.8529 3.58721,-1.50243 0.51757,-0.29826 1.03384,-0.63996 1.38866,-1.12872 0.0996,-0.13717 0.19247,-0.28595 0.21148,-0.46041 0.0354,-0.32467 -0.0429,-0.6507 0.0233,-0.97623 0.0954,-0.46907 0.0599,-0.96427 -0.0941,-1.41634 -0.0546,-0.16031 -0.12392,-0.32196 -0.25451,-0.43688 -0.25791,-0.22697 -0.5889,-0.34373 -0.90823,-0.45476 -0.28855,-0.10033 -0.58091,-0.19344 -0.8507,-0.3414 -0.71146,-0.39019 -1.32907,-0.95126 -2.09626,-1.23603 -0.4658,-0.1729 -0.97663,-0.20858 -1.42053,-0.44462 -0.47172,-0.25083 -0.88256,-0.59645 -1.36613,-0.8335 -0.12191,-0.0598 -0.26055,-0.0485 -0.38915,-0.0256 -0.13878,0.0248 -0.27843,-0.0121 -0.40179,-0.0748 -0.15769,-0.0802 -0.32406,-0.14092 -0.49723,-0.17947 -0.5342,-0.11893 -1.08843,-0.0245 -1.60446,0.13315 -0.68865,0.21033 -1.34698,0.51765 -2.05737,0.65852 -0.39865,0.079 -0.79353,0.17493 -1.19017,0.26381 -0.67592,0.15146 -1.37323,0.18556 -2.04327,0.36872 -1.03144,0.28195 -1.97295,0.80239 -2.9179,1.28923 -0.68499,0.35291 -1.47073,0.53371 -2.07653,1.01525 -0.16352,0.12998 -0.27683,0.31049 -0.38487,0.48612 -0.4649,0.75575 -0.82758,1.56893 -1.284,2.3294 -0.18257,0.30419 -0.4065,0.58068 -0.62747,0.85725 -0.46303,0.57953 -0.97626,1.12587 -1.35897,1.76289 -0.17541,0.29197 -0.1776,0.64888 -0.35432,0.94292 -0.7631,1.26972 -1.82885,2.33086 -2.57926,3.6062 -0.10773,0.18309 -0.0806,0.40655 -0.17713,0.59637 -0.58208,1.14416 -1.31055,2.22404 -2.21588,3.13283 -0.16977,0.17042 -0.35327,0.36993 -0.60558,0.39577 -0.21025,0.0215 -0.42295,0.0236 -0.6305,0.0692 -0.46533,0.10215 -0.91343,0.2668 -1.36654,0.41143 -0.1682,0.0537 -0.34689,0.0741 -0.51057,0.13957 -0.29737,0.11887 -0.50685,0.37332 -0.78017,0.5339 -0.6749,0.39652 -1.33526,0.82118 -2.05284,1.14201 -0.48052,0.21484 -0.96939,0.42489 -1.40194,0.72732 -0.1465,0.10243 -0.28644,0.22122 -0.37554,0.38186 -0.35047,0.63188 -0.64726,1.29152 -0.9286,1.95609 -0.15834,0.37402 -0.22684,0.78791 -0.46151,1.12878 -0.0847,0.12306 -0.12454,0.27218 -0.15167,0.4168 -0.0241,0.12864 -0.11227,0.28727 -0.0314,0.39429 0.0498,0.066 0.14761,0.0787 0.22514,0.0942 0.38765,0.0771 0.78602,0.0467 1.17735,0.0218 0.20841,-0.0133 0.41671,-0.0325 0.62567,-0.034"
       id="path123"
       inkscape:path-effect="#path-effect125"
       inkscape:original-d="m 199.45985,193.61581 c 0.84905,-0.51667 0.1066,-2.0512 0.54423,-2.67794 0.59164,-0.84731 2.09372,-1.09395 2.89939,-1.73627 0.41165,-0.3282 0.77108,-0.73212 1.17625,-1.06351 0.12027,-0.0984 0.20446,-0.056 0.3401,-0.0816 0.34077,-0.0644 1.35409,-0.85628 1.67015,-1.09988 0.60919,-0.46954 1.2039,-0.97765 1.84457,-1.4122 0.32509,-0.22049 0.76822,-0.32336 1.06765,-0.53044 0.74836,-0.51755 1.43953,-1.33446 2.27213,-1.7298 0.72725,-0.34531 1.47349,-0.48449 2.25908,-0.53329 1.03771,-0.0644 2.19865,-0.54277 3.13014,-0.98764 0.67536,-0.32253 1.10271,-0.99725 1.61165,-1.49012 0.72976,-0.70671 2.16617,-1.87346 3.15415,-2.23142 1.38177,-0.50063 1.82322,0.12587 3.3172,0.34857 0.74684,0.11133 1.70692,0.10834 2.44455,-0.0131 0.40198,-0.0662 0.28741,-0.77717 0.90785,-1.061 0.23159,-0.10595 0.51683,-0.0588 0.74597,-0.16563 0.47972,-0.22359 0.95293,-0.46144 1.43749,-0.67433 1.4535,-0.63861 4.85421,-1.51935 5.74483,-3.10067 0.16866,-0.29945 -0.003,-0.82667 0.079,-1.15622 0.13132,-0.5287 0.0618,-1.20682 -0.16641,-1.69537 -0.24329,-0.52089 -1.29305,-0.69769 -1.74946,-0.92392 -0.76322,-0.37829 -1.4311,-0.99143 -2.21883,-1.30758 -0.46572,-0.18691 -0.95325,-0.2065 -1.41683,-0.43586 -0.49879,-0.24678 -0.97951,-0.71998 -1.49704,-0.88916 -0.14957,-0.0489 -0.35018,0.0297 -0.50499,0 -0.16376,-0.0314 -0.32542,-0.14087 -0.48119,-0.19178 -1.3107,-0.42843 -2.52749,0.44513 -3.73775,0.69771 -0.4132,0.0862 -0.79346,0.1563 -1.20298,0.26152 -0.59938,0.15399 -1.21228,0.18573 -1.81784,0.31382 -1.16954,0.24737 -2.21786,0.82469 -3.26849,1.37004 -0.66284,0.34407 -1.45718,0.61185 -2.08187,1.0164 -0.43225,0.27993 -1.35926,2.40661 -1.84697,3.08016 -0.57513,0.7943 -1.24243,1.49579 -1.7911,2.31879 -0.20621,0.30932 -0.17242,0.63555 -0.36395,0.95675 -0.7585,1.27202 -1.79197,2.37499 -2.58625,3.61824 -0.1208,0.18907 -0.072,0.38448 -0.17488,0.58826 -0.55702,1.10349 -1.28106,2.1223 -2.1119,3.0336 -0.70916,0.77785 -0.64703,0.38962 -1.57051,0.64209 -0.52954,0.14478 -1.06943,0.35901 -1.59628,0.47994 -0.27058,0.0621 -0.54493,0.37957 -0.78298,0.51756 -0.64692,0.37503 -1.29589,0.82058 -1.9781,1.11817 -0.35574,0.15518 -1.65283,0.71516 -1.87265,1.09746 -0.34525,0.60043 -0.63955,1.32506 -0.93565,1.95266 -0.18461,0.39128 -0.23991,0.87111 -0.50706,1.21956 -0.0863,0.11252 -0.25678,0.77342 -0.14691,0.82403 0.4728,0.21779 1.50366,0.0526 2.00435,0.0526" />
  </g>
</svg>
