<?xml version="1.0" encoding="UTF-8" standalone="no"?>
<!-- Created with Inkscape (http://www.inkscape.org/) -->

<svg
   width="169.33333mm"
   height="127mm"
   viewBox="0 0 169.33333 127"
   version="1.1"
   id="svg5"
   inkscape:version="1.1.2 (08b2f3d93c, 2022-04-05)"
   sodipodi:docname="Glandulas_Gastricas.svg"
   xmlns:inkscape="http://www.inkscape.org/namespaces/inkscape"
   xmlns:sodipodi="http://sodipodi.sourceforge.net/DTD/sodipodi-0.dtd"
   xmlns="http://www.w3.org/2000/svg"
   xmlns:svg="http://www.w3.org/2000/svg">
  <sodipodi:namedview
     id="namedview7"
     pagecolor="#ffffff"
     bordercolor="#666666"
     borderopacity="1.0"
     inkscape:pageshadow="2"
     inkscape:pageopacity="0.0"
     inkscape:pagecheckerboard="0"
     inkscape:document-units="mm"
     showgrid="false"
     inkscape:zoom="1.0824912"
     inkscape:cx="326.09965"
     inkscape:cy="301.61908"
     inkscape:window-width="1366"
     inkscape:window-height="704"
     inkscape:window-x="0"
     inkscape:window-y="27"
     inkscape:window-maximized="1"
     inkscape:current-layer="layer2" />
  <defs
     id="defs2" />
  <g
     inkscape:groupmode="layer"
     id="layer2"
     inkscape:label="Glandulas_Gastricas">
    <path
       style="fill:none;stroke:#000000;stroke-width:0.264583px;stroke-linecap:butt;stroke-linejoin:miter;stroke-opacity:1"
       d="m 79.438809,70.607655 c -0.609241,-0.296085 -1.221015,-0.563841 -1.603394,-1.145924 -0.579281,-0.881832 -0.201483,-2.077297 -0.658924,-3.003129 -0.501462,-1.014929 -2.46173,-5.575335 -2.54786,-6.737279 -0.05323,-0.718113 0.283204,-1.447413 0.593039,-2.074526 1.477431,-2.990361 5.059601,-2.370892 7.797311,-2.370892 2.062969,0 4.005839,-0.549714 5.996247,0.276606 0.871278,0.361712 1.188796,2.753696 1.120174,3.556334 -0.07595,0.888341 -1.033309,1.520565 -1.29589,2.370891 -0.238032,0.770835 -0.401767,1.601653 -0.768752,2.331374 -0.482192,0.958799 -3.068087,4.795916 -3.86571,5.393771 -0.274151,0.205489 -0.999215,0.129853 -1.339816,0.237091 -0.255751,0.08052 -0.38971,0.28594 -0.614997,0.414906 -0.800431,0.4582 -1.925828,0.601414 -2.811428,0.750777 z"
       id="path55" />
    <path
       style="fill:none;stroke:#000000;stroke-width:0.264583px;stroke-linecap:butt;stroke-linejoin:miter;stroke-opacity:1"
       d="m 74.826314,59.662051 c 0.352192,-1.166492 1.209654,-1.773854 2.130528,-2.469673 0.498885,-0.37696 1.366412,-0.110234 1.932864,-0.474176 0.873519,-0.561234 1.994606,-1.245029 2.679639,-2.015263 0.228092,-0.25646 0.17323,-0.961411 0.285535,-1.264472 0.118446,-0.319633 0.405189,-0.931326 0.02196,-1.244711 -0.161401,-0.131985 -0.22207,-0.05007 -0.35143,-0.217337 -0.537041,-0.694436 -0.666483,-1.562129 -1.383745,-2.153555 -0.26597,-0.219313 -4.34816,-1.678617 -4.678389,-1.639869 -0.510902,0.05995 -0.837456,0.453641 -1.273929,0.671756 -1.878062,0.938498 -4.835736,3.226446 -4.370885,5.63086 0.190712,0.986451 2.253782,2.011047 3.14089,2.133801 0.493977,0.06836 1.732852,1.067824 1.669278,0.553207"
       id="path57" />
    <path
       style="fill:none;stroke:#000000;stroke-width:0.264583px;stroke-linecap:butt;stroke-linejoin:miter;stroke-opacity:1"
       d="m 79.438809,70.607655 c -0.300178,-0.401736 -0.637429,-0.77827 -0.900534,-1.205204 -0.299005,-0.48519 -0.328025,-0.875662 -0.724826,-1.30398 -0.31665,-0.341805 -0.847976,-0.533411 -1.120174,-0.908844 -0.555834,-0.766643 -0.813168,-1.778833 -1.383752,-2.54871 -0.82745,-1.116465 -1.817611,-2.503485 -2.240349,-3.872452 -0.322125,-1.043147 -0.970873,-3.271549 -2.152505,-3.714393 -3.101477,-1.162352 -5.20062,3.942662 -6.281771,5.887707 -0.394978,0.710586 -1.800022,2.04176 -1.669288,2.864829 0.119308,0.751128 2.100646,1.413033 2.789462,1.916467 0.659913,0.482309 1.126466,1.343541 1.691246,1.936226 0.44436,0.466315 1.171813,0.382338 1.625359,0.790294 0.436025,0.392197 0.581763,1.035892 1.142143,1.22496 1.379995,0.465603 2.567625,-0.520332 3.865708,-0.770535 0.589346,-0.113596 1.007266,0.260614 1.559464,0.177818 1.273305,-0.19092 2.50384,-0.442674 3.799817,-0.474183 z"
       id="path59" />
    <path
       style="fill:none;stroke:#000000;stroke-width:0.264583px;stroke-linecap:butt;stroke-linejoin:miter;stroke-opacity:1"
       d="M 87.80719,99.552261 C 87.034462,98.639362 85.700001,98.526109 84.842016,97.754344 84.322588,97.287116 84.12622,96.492151 83.743802,95.976177 83.57264,95.745241 83.130815,95.503795 82.90916,95.304424 c -2.44,-2.194732 -4.418547,-7.159773 -7.489817,-8.080791 -0.821904,-0.246472 -1.377725,0.737839 -1.823032,1.205201 -1.646052,1.727579 -0.47794,5.11442 -0.746778,7.290496 -0.157393,1.273995 -0.553101,2.508602 -0.812681,3.753895 -0.120579,0.578465 -0.0532,1.153795 -0.197681,1.738665 -0.149931,0.6069 -0.967343,2.48216 -0.219641,3.04264 1.716262,1.28651 3.652009,1.80274 5.776603,1.16568 0.705569,-0.21156 1.304538,-0.63483 2.020707,-0.84956 0.375195,-0.1125 1.097397,-0.0497 1.405718,-0.2766 0.208304,-0.1533 0.410626,-0.44149 0.658926,-0.53347 0.657591,-0.24357 1.411682,-0.13894 2.086603,-0.4149 0.252364,-0.10319 0.348808,-0.33544 0.527142,-0.51368 0.466077,-0.46583 1.752849,-0.33208 2.240357,-0.77055 0.08853,-0.0796 0.0084,-0.28915 0.06589,-0.37538 0.323543,-0.48506 1.222915,-0.19834 1.427679,-0.88909 0.11794,-0.39786 -0.0049,-0.830098 -0.02196,-1.244719 z"
       id="path61" />
    <path
       style="fill:none;stroke:#000000;stroke-width:0.264583px;stroke-linecap:butt;stroke-linejoin:miter;stroke-opacity:1"
       d="m 96.351295,77.127596 c 1.042249,-2.479214 3.649115,-4.249935 2.96517,-7.17193 -0.064,-0.273434 -0.0067,-0.710245 -0.153747,-0.948362 -0.305726,-0.494964 -0.791017,-0.83978 -0.988396,-1.501558 -0.0218,-0.0731 -0.04343,-0.651232 -0.131786,-0.790297 -0.55929,-0.880285 -1.684012,-1.362456 -2.240352,-2.291861 -0.335618,-0.560681 -0.857678,-2.757159 -1.757137,-2.667251 -1.29903,0.129849 -2.497305,0.255521 -2.701608,1.817685 -0.02408,0.18406 -0.02289,0.665789 0.08786,0.790294 0.189707,0.213305 0.604391,0.19826 0.746779,0.454419 0.285729,0.514033 -0.503119,2.091545 -0.812673,2.509192 -0.750821,1.012992 -4.791274,3.155625 -3.975537,4.623229 0.833007,1.498674 3.372681,3.215883 4.985891,3.73416 0.436033,0.140083 0.87839,-1.1e-5 1.317857,0.09879 0.758728,0.170574 1.998761,0.958244 2.657679,1.343493 z"
       id="path63" />
    <path
       style="fill:none;stroke:#000000;stroke-width:0.264583px;stroke-linecap:butt;stroke-linejoin:miter;stroke-opacity:1"
       d="m 101.55681,60.155989 c -1.50644,-2.763959 -0.1494,-5.717667 -1.18606,-8.515448 -0.0355,-0.09581 -1.901251,-3.361322 -1.932853,-3.398277 -0.430834,-0.503814 -1.095277,-0.739719 -1.47161,-1.205201 -0.525803,-0.650356 -0.12497,-1.818642 -1.31785,-1.639858 -1.00299,0.150323 -0.948576,2.140014 -1.054287,2.805549 -0.170604,1.074079 -1.141934,1.809745 -1.29589,2.825311 -0.40105,2.645508 0.07531,5.19036 0.768744,7.685632 0.245372,0.882957 3.634785,1.282888 4.458748,1.56083 0.945928,0.319085 3.698198,2.204469 3.031058,-0.118538 -0.17693,-0.616104 -0.64008,-1.113425 -0.90052,-1.699139"
       id="path65" />
    <path
       style="fill:none;stroke:#000000;stroke-width:0.264583px;stroke-linecap:butt;stroke-linejoin:miter;stroke-opacity:1"
       d="m 101.46896,93.07183 c -0.47033,-0.511704 -1.39946,-0.153369 -1.932854,-0.553199 -0.946034,-0.709149 -3.018335,-5.599128 -3.206784,-6.95461 -0.07831,-0.563248 0.01318,-1.558909 -0.26356,-2.015262 -0.970566,-1.600539 -3.398684,-1.862429 -4.832146,-3.022886 -1.194919,-0.967348 -0.862875,-1.83094 -1.05428,-2.054767 -0.503634,-0.588947 -1.313111,-0.799513 -1.82304,-1.323743 -1.236922,-1.271606 -0.717285,-0.948383 -2.328212,-0.750792 -0.166703,0.02045 -0.487341,-0.03765 -0.658923,0.03952 -0.263835,0.118655 -1.464154,4.389348 -3.250713,5.393769 -1.254662,0.705387 -2.746121,1.087247 -3.843748,2.074535 -0.461571,0.415171 -0.515342,1.18922 -0.878567,1.679379 -0.180081,0.243014 -0.727173,0.555641 -0.614998,0.908833 0.03795,0.119475 2.213957,2.522895 2.394106,2.627749 0.721702,0.420063 1.648307,0.486169 2.306243,0.908833 0.574186,0.368866 0.955636,1.1258 1.427676,1.600359 0.671645,0.675225 1.555994,0.943904 2.174465,1.738648 0.596559,0.766588 0.905449,1.757945 1.40571,2.60798 0.918271,1.560309 3.804412,4.617394 5.688743,4.899824 0.456253,0.0684 1.431565,0.14255 1.801074,-0.079 0.563883,-0.33811 1.166575,-1.329243 1.844993,-1.481815 0.460099,-0.103471 0.872484,-0.234519 1.164116,-0.671738 0.446143,-0.668861 0.946433,-1.40226 1.493557,-2.035016 0.427368,-0.494255 1.014746,-0.796205 1.405718,-1.323755 0.758104,-1.022938 -0.003,-2.054456 1.581424,-2.212827 z"
       id="path69" />
    <path
       style="fill:none;stroke:#000000;stroke-width:0.264583px;stroke-linecap:butt;stroke-linejoin:miter;stroke-opacity:1"
       d="m 106.14736,82.896772 c 0.52909,-1.046892 1.60837,-1.390171 2.02071,-2.449922 0.18982,-0.487868 0.0861,-1.014817 0.30749,-1.501569 0.56886,-1.250796 2.01785,-2.215107 2.24036,-3.615602 0.3562,-2.241889 -0.89124,-3.90829 -2.19643,-5.551832 -0.26394,-0.332372 -0.57383,-0.796369 -1.03232,-0.908841 -0.76003,-0.186441 -4.43687,0.08563 -5.20552,0.316116 -0.27301,0.08187 -0.28875,0.334749 -0.41732,0.553207 -0.23502,0.399317 -0.77654,0.855874 -0.81269,1.343509 -0.0399,0.5382 -0.13355,1.873832 -0.52714,2.272096 -0.646441,0.654127 -4.344255,3.34745 -3.865709,4.208336 0.199681,0.359219 0.763239,0.567124 1.120183,0.869317 0.474913,0.402069 0.258566,1.239195 0.658923,1.67938 0.530992,0.583808 1.162352,0.521234 1.801073,0.849579 0.66001,0.339291 1.58664,1.756252 1.88891,2.390635 0.43011,0.902666 2.02929,0.9271 2.92125,1.02739 0.36378,0.0409 1.68214,-0.0064 1.29589,-0.276598"
       id="path71" />
    <path
       style="fill:none;stroke:#000000;stroke-width:0.264583px;stroke-linecap:butt;stroke-linejoin:miter;stroke-opacity:1"
       d="m 98.789327,40.082462 c 0.131374,-0.803477 0.869736,-1.241963 1.142143,-1.936227 0.55822,-1.422688 0.45152,-4.306734 -0.35143,-5.630865 -0.441063,-0.727352 -0.947555,-1.645726 -1.471613,-2.331376 -0.188494,-0.246615 -0.472447,-0.289329 -0.636963,-0.572963 -0.601014,-1.03618 -0.722812,-2.288288 -1.31785,-3.358758 -0.300839,-0.541209 -3.456908,-2.312457 -4.239106,-2.528951 -1.225561,-0.339206 -2.49523,-0.389608 -3.733919,-0.612476 -0.779915,-0.140324 -1.497746,-0.528247 -2.284286,-0.691514 -1.460587,-0.303182 -4.950539,0.01108 -6.281779,0.671755 -1.298731,0.644543 -2.48234,1.475475 -3.689996,2.272103 -0.297241,0.196075 -0.675013,0.130726 -0.966428,0.375388 -0.504708,0.42374 -0.815512,1.133026 -1.361789,1.501567 -1.078859,0.727842 -2.189556,1.602237 -3.096956,2.509192 -0.990753,0.990266 -1.297064,2.488401 -2.306251,3.497056 -0.249671,0.249542 -0.643548,0.341789 -0.900533,0.572966 -2.278176,2.049385 -4.80686,3.918886 -7.489817,5.393772 -0.871418,0.479038 -1.735251,0.951235 -2.613747,1.402778 -1.67046,0.85861 -3.639056,-0.417412 -2.328212,2.825311 0.248335,0.614323 0.82151,0.920737 1.098217,1.501558 0.254987,0.535236 0.178742,1.171345 0.461251,1.699138 0.519438,0.970431 1.486402,1.946325 2.152496,2.84507 0.773293,1.04339 1.198563,2.382176 2.152494,3.240215 0.873617,0.785799 2.225344,0.732832 3.294639,1.007625 1.445236,0.371407 2.047894,0.256972 3.448394,-0.414901 0.289507,-0.138887 0.771435,-0.02564 1.010354,-0.197575 0.751525,-0.540816 1.221793,-2.161629 1.757137,-2.924098 0.406295,-0.578665 1.19561,-0.701979 1.735183,-1.106413 0.803505,-0.602269 1.20741,-1.797415 1.998747,-2.430164 0.274061,-0.219136 2.276232,-1.169027 2.855354,-1.462047 0.322289,-0.163071 2.719335,-0.854287 2.855357,-0.829813 0.381746,0.06868 1.494327,0.538914 1.823032,0.454424 1.67173,-0.429694 3.753676,-1.726506 5.425176,-2.370891 0.710718,-0.273992 1.778621,0.04828 2.701599,-0.276601 0.751639,-0.26457 1.474512,-0.797195 2.10857,-1.22496 0.430226,-0.29025 1.472126,0.0055 1.954821,-0.118549 2.150386,-0.552656 2.806399,-3.514561 5.095711,-0.750776 z"
       id="path73" />
    <path
       style="fill:none;stroke:#000000;stroke-width:0.264583px;stroke-linecap:butt;stroke-linejoin:miter;stroke-opacity:1"
       d="m 69.86239,125.52291 c 0.351427,-0.26343 0.712295,-0.51472 1.054279,-0.7903 0.05354,-0.0431 -0.004,-0.46523 0,-0.53344 0.05254,-0.89786 0.328026,-3.92283 0.08786,-4.64299 -0.262406,-0.78686 -0.503248,-1.52706 -0.988396,-2.21283 -1.401535,-1.98114 -3.847444,-0.81113 -5.644814,-2.05478 -0.548462,-0.37949 -1.106577,-0.95333 -1.779108,-1.12617 -0.333407,-0.0857 -0.860655,-0.13258 -1.164101,-0.29636 -0.351792,-0.18987 -0.626298,-0.48557 -1.032322,-0.5532 -1.261676,-0.21018 -2.140966,0.22871 -3.360531,0.53344 -2.303783,0.57565 -4.465426,1.1652 -3.997497,3.97124 0.08977,0.53835 0.580226,1.59838 0.966428,2.01526 1.04371,1.12662 5.260708,5.20358 6.545347,5.69013 0.865058,0.32764 1.930461,0.86683 2.877322,0.81006 1.601788,-0.096 2.270337,-1.43228 3.689996,-1.89671 0.937215,-0.3066 2.833412,-0.37547 3.49232,-1.2052"
       id="path75" />
    <path
       style="fill:none;stroke:#000000;stroke-width:0.264583px;stroke-linecap:butt;stroke-linejoin:miter;stroke-opacity:1"
       d="m 70.609173,123.23106 c 0.380717,0.28978 0.380717,0.28978 0,0 z"
       id="path77" />
    <path
       style="fill:none;stroke:#000000;stroke-width:0.264583px;stroke-linecap:butt;stroke-linejoin:miter;stroke-opacity:1"
       d="m 77.483988,124.53504 c -0.297471,-1.68222 -0.923875,-3.21672 -0.285536,-4.93935 0.178387,-0.4814 0.591754,-0.72293 0.680892,-1.28423 0.09257,-0.5829 -0.21022,-1.09373 -0.08786,-1.69914 0.125815,-0.62247 0.606012,-1.24336 0.702852,-1.89671 0.1249,-0.84264 -0.439282,-1.75346 -0.439282,-2.58822 0,-0.57521 0.0062,-2.36905 -0.790713,-2.60798 -0.527902,-0.15827 -0.981474,0.0536 -1.427678,0.27661 -2.071624,1.03528 -1.849199,1.32982 -2.416072,3.49706 -0.249203,0.95273 -1.400879,1.74 -1.559459,2.66725 -0.117983,0.68987 -0.382662,1.39659 -0.571069,2.07452 -0.194323,0.69922 0.468323,1.39542 0.658924,1.9955 0.359595,1.13212 1.022207,2.55926 1.932855,3.37852 0.251436,0.22621 0.755216,0.23609 1.054288,0.35564 0.342254,0.13681 0.588803,0.52106 0.944459,0.61247 0.861227,0.22135 0.334216,-0.45904 1.603394,0.15806 z"
       id="path79" />
    <path
       style="fill:none;stroke:#000000;stroke-width:0.264583px;stroke-linecap:butt;stroke-linejoin:miter;stroke-opacity:1"
       d="m 70.587208,117.36311 c 0.193307,-1.47354 0.812681,-2.39346 0.812681,-3.87246 0,-1.1508 0.134006,-2.45242 -0.549106,-3.41803 -0.229497,-0.32441 -1.296001,-2.32647 -1.427676,-2.37089 -0.568965,-0.19194 -1.745128,0.42439 -2.284285,0.63224 -0.788911,0.30414 -2.509843,0.74797 -2.921249,1.58059 -1.237681,2.50489 0.589608,6.28075 3.470354,6.61873 1.4594,0.17123 1.084213,1.30149 2.899281,0.82982 z"
       id="path81" />
    <path
       style="fill:none;stroke:#000000;stroke-width:0.264583px;stroke-linecap:butt;stroke-linejoin:miter;stroke-opacity:1"
       d="m 87.433802,117.38287 c -0.0489,-0.71445 -0.503279,-2.40855 0.263568,-2.98338 0.16171,-0.12122 0.457475,-0.10406 0.593039,-0.23709 0.381739,-0.3746 0.410716,-1.29306 0.571072,-1.79792 0.18433,-0.58035 0.122819,-1.07902 0.219641,-1.65962 0.07169,-0.42993 0.462997,-0.74745 0.483209,-1.16569 0.06615,-1.36889 -0.07289,-4.32764 -1.493571,-5.0579 -0.658111,-0.33828 -5.624912,1.84868 -6.457489,2.4104 -0.13258,0.0894 -0.359413,0.66637 -0.461248,0.84958 -0.151501,0.27255 -0.660226,0.81587 -0.724821,1.10641 -0.349774,1.57324 0.245187,3.38653 0.439285,4.89984 0.157909,1.23117 -1.398336,4.01765 -1.361784,4.24784 0.168833,1.06329 2.74097,0.36451 3.404457,0.31612 0.707597,-0.0516 1.383589,0.25296 2.086602,0 0.836959,-0.30115 1.641539,-0.51205 2.43804,-0.92859 z"
       id="path83" />
    <path
       style="fill:none;stroke:#000000;stroke-width:0.264583px;stroke-linecap:butt;stroke-linejoin:miter;stroke-opacity:1"
       d="m 95.582543,121.78877 c -2.983082,0.84993 -3.727498,-2.26581 -4.019463,-4.52445 -0.08866,-0.68587 -0.741497,-1.49537 -0.636965,-2.15356 0.133662,-0.84161 1.11316,-1.46132 1.208037,-2.2721 0.239273,-2.04479 0.48288,-3.42879 1.603391,-5.15668 0.09517,-0.14677 0.270502,-0.089 0.373388,-0.23709 0.452202,-0.65083 0.822862,-1.40183 1.317865,-1.99551 0.528106,-0.63338 -0.165647,-1.84223 0.94446,-3.24021 0.128349,-0.16163 0.172026,-0.44864 0.37339,-0.49393 0.377476,-0.0849 0.712806,-0.78436 1.164101,-1.08666 0.886216,-0.59364 1.586724,-0.56123 2.394113,-1.303993 0.16217,-0.14919 0.92807,-1.185441 1.18607,-1.185441 0.41581,0 2.29813,1.260432 2.56981,1.679379 0.34537,0.532575 0.34629,1.566195 0.48322,2.212835 0.0925,0.43688 0.48492,0.75381 0.54911,1.24471 0.19442,1.48688 -0.0779,2.97344 -0.2416,4.44542 -0.0547,0.49167 -0.78812,1.14244 -1.09823,1.56083 -0.32903,0.44395 -0.5547,1.22532 -0.70285,1.75841 -0.22839,0.82179 -0.21461,1.62933 -0.41731,2.44992 -0.14211,0.57531 -0.4626,1.09078 -0.63697,1.63986 -0.12044,0.37928 -0.0708,0.86643 -0.13178,1.26448 -0.13283,0.86628 -0.50725,1.70415 -0.70286,2.54871 -0.27975,1.20778 -1.329401,2.115 -1.9109,3.16118 -0.338082,0.60825 -4.974738,1.10682 -4.678381,1.81769"
       id="path85" />
    <path
       style="fill:none;stroke:#000000;stroke-width:0.264583px;stroke-linecap:butt;stroke-linejoin:miter;stroke-opacity:1"
       d="m 60.41776,66.810918 c -0.287928,-1.557954 0.188235,-2.955142 1.317847,-3.971239 0.302704,-0.272286 0.735732,-0.364681 1.032322,-0.651995 0.01717,-0.01664 1.51075,-2.263497 1.559465,-2.351132 0.05489,-0.09875 0.01958,-0.478938 0.04393,-0.632238 0.182147,-1.146961 -2.222889,-3.587967 -3.16285,-4.010758 -0.945989,-0.425503 -2.363208,0.837639 -3.074998,1.264478 -0.609534,0.365522 -4.149288,1.683597 -4.326959,1.896708 -0.499115,0.598678 -0.947793,1.896933 -0.724826,2.766039 0.181063,0.705758 0.90492,1.079672 1.164109,1.837439 0.356872,1.043342 1.455012,2.108994 2.416066,2.627738 0.177006,0.09554 0.597715,-0.02844 0.790718,-0.01976 0.772073,0.03473 0.99232,-0.400521 1.64732,-0.474176 0.83625,-0.09404 1.62125,-0.1383 2.481958,-0.1383"
       id="path91" />
    <path
       style="fill:none;stroke:#000000;stroke-width:0.264583px;stroke-linecap:butt;stroke-linejoin:miter;stroke-opacity:1"
       d="m 58.616685,55.351616 c -0.297661,-2.126364 1.273387,-2.354937 -0.593032,-3.753906 -0.456821,-0.34241 -1.277934,-0.714867 -1.669285,-1.0669 -0.498567,-0.44848 -1.519661,-2.035017 -2.262317,-2.035017 -0.767694,0 -2.013299,0.811014 -2.372146,1.402779 -0.10178,0.167846 -0.09316,0.470096 -0.263567,0.592725 -0.226531,0.163017 -0.980461,0.06183 -1.098217,0.414906 -0.09327,0.279681 0.07515,0.60833 0.04393,0.889085 -0.05949,0.535106 -0.917617,0.849492 -0.988388,1.422529 -0.301239,2.439181 2.253549,3.860568 4.239099,4.307121 0.455395,0.102417 0.882933,-0.138309 1.295897,-0.138309 0.340775,0 2.066377,-0.791853 2.328209,-1.027382 0.133538,-0.120123 0.215538,-0.594842 0.373391,-0.671756 0.306585,-0.149384 0.644284,-0.223917 0.966426,-0.335875 z"
       id="path93" />
  </g>
</svg>
