<?xml version="1.0" encoding="UTF-8" standalone="no"?>
<!-- Created with Inkscape (http://www.inkscape.org/) -->

<svg
   width="353.56799mm"
   height="264.16mm"
   viewBox="0 0 353.56799 264.16"
   version="1.1"
   id="svg5"
   inkscape:version="1.1.2 (08b2f3d93c, 2022-04-05)"
   sodipodi:docname="LaminaPropria.svg"
   xmlns:inkscape="http://www.inkscape.org/namespaces/inkscape"
   xmlns:sodipodi="http://sodipodi.sourceforge.net/DTD/sodipodi-0.dtd"
   xmlns="http://www.w3.org/2000/svg"
   xmlns:svg="http://www.w3.org/2000/svg">
  <sodipodi:namedview
     id="namedview7"
     pagecolor="#ffffff"
     bordercolor="#666666"
     borderopacity="1.0"
     inkscape:pageshadow="2"
     inkscape:pageopacity="0.0"
     inkscape:pagecheckerboard="0"
     inkscape:document-units="mm"
     showgrid="false"
     inkscape:zoom="0.37512071"
     inkscape:cx="519.83267"
     inkscape:cy="425.19647"
     inkscape:window-width="1366"
     inkscape:window-height="704"
     inkscape:window-x="0"
     inkscape:window-y="27"
     inkscape:window-maximized="1"
     inkscape:current-layer="layer2" />
  <defs
     id="defs2">
    <inkscape:path-effect
       effect="simplify"
       id="path-effect245"
       is_visible="true"
       lpeversion="1"
       steps="1"
       threshold="0.000408163"
       smooth_angles="360"
       helper_size="0"
       simplify_individual_paths="false"
       simplify_just_coalesce="false" />
    <inkscape:path-effect
       effect="simplify"
       id="path-effect241"
       is_visible="true"
       lpeversion="1"
       steps="1"
       threshold="0.000408163"
       smooth_angles="360"
       helper_size="0"
       simplify_individual_paths="false"
       simplify_just_coalesce="false" />
    <inkscape:path-effect
       effect="simplify"
       id="path-effect237"
       is_visible="true"
       lpeversion="1"
       steps="1"
       threshold="0.000408163"
       smooth_angles="360"
       helper_size="0"
       simplify_individual_paths="false"
       simplify_just_coalesce="false" />
    <inkscape:path-effect
       effect="simplify"
       id="path-effect200"
       is_visible="true"
       lpeversion="1"
       steps="1"
       threshold="0.000408163"
       smooth_angles="360"
       helper_size="0"
       simplify_individual_paths="false"
       simplify_just_coalesce="false" />
    <inkscape:path-effect
       effect="simplify"
       id="path-effect196"
       is_visible="true"
       lpeversion="1"
       steps="1"
       threshold="0.000408163"
       smooth_angles="360"
       helper_size="0"
       simplify_individual_paths="false"
       simplify_just_coalesce="false" />
    <inkscape:path-effect
       effect="simplify"
       id="path-effect85"
       is_visible="true"
       lpeversion="1"
       steps="1"
       threshold="0.000408163"
       smooth_angles="360"
       helper_size="0"
       simplify_individual_paths="false"
       simplify_just_coalesce="false" />
    <inkscape:path-effect
       effect="simplify"
       id="path-effect81"
       is_visible="true"
       lpeversion="1"
       steps="1"
       threshold="0.000408163"
       smooth_angles="360"
       helper_size="0"
       simplify_individual_paths="false"
       simplify_just_coalesce="false" />
    <inkscape:path-effect
       effect="simplify"
       id="path-effect77"
       is_visible="true"
       lpeversion="1"
       steps="1"
       threshold="0.000408163"
       smooth_angles="360"
       helper_size="0"
       simplify_individual_paths="false"
       simplify_just_coalesce="false" />
    <inkscape:path-effect
       effect="simplify"
       id="path-effect73"
       is_visible="true"
       lpeversion="1"
       steps="1"
       threshold="0.000408163"
       smooth_angles="360"
       helper_size="0"
       simplify_individual_paths="false"
       simplify_just_coalesce="false" />
    <inkscape:path-effect
       effect="simplify"
       id="path-effect69"
       is_visible="true"
       lpeversion="1"
       steps="1"
       threshold="0.000408163"
       smooth_angles="360"
       helper_size="0"
       simplify_individual_paths="false"
       simplify_just_coalesce="false" />
    <inkscape:path-effect
       effect="simplify"
       id="path-effect65"
       is_visible="true"
       lpeversion="1"
       steps="1"
       threshold="0.000408163"
       smooth_angles="360"
       helper_size="0"
       simplify_individual_paths="false"
       simplify_just_coalesce="false" />
    <inkscape:path-effect
       effect="simplify"
       id="path-effect61"
       is_visible="true"
       lpeversion="1"
       steps="1"
       threshold="0.000408163"
       smooth_angles="360"
       helper_size="0"
       simplify_individual_paths="false"
       simplify_just_coalesce="false" />
    <inkscape:path-effect
       effect="simplify"
       id="path-effect57"
       is_visible="true"
       lpeversion="1"
       steps="1"
       threshold="0.000408163"
       smooth_angles="360"
       helper_size="0"
       simplify_individual_paths="false"
       simplify_just_coalesce="false" />
    <clipPath
       clipPathUnits="userSpaceOnUse"
       id="clipPath475">
      <path
         id="path477"
         style="fill:#ff0000;fill-opacity:1;fill-rule:nonzero;stroke:none;stroke-width:0.264583"
         d="m 0.36018473,188.27533 c 0.0912036,0.20728 0.0396096,0.61097 0.26561687,0.62528 1.8246301,0.1155 3.6004062,0.65935 5.2523378,1.42745 0.5134325,0.23873 1.0301799,0.47781 1.5039353,0.78775 0.1175741,0.0769 0.2580871,0.1024 0.3843223,0.1619 0.2891135,0.13626 0.5618577,0.30396 0.8393907,0.4619 0.2584592,0.14709 0.5393456,0.25899 0.7796913,0.43372 1.03481,0.75228 2.103809,1.47875 2.98488,2.41494 0.233059,0.24764 0.388265,0.56699 0.646934,0.78792 1.167274,0.99695 2.475623,1.80452 3.687891,2.74496 1.576509,1.22301 3.20988,2.38443 4.649213,3.77203 0.56037,0.54023 1.117759,1.09059 1.747782,1.54776 0.107587,0.0781 0.294294,0.0934 0.327199,0.23342 0.02536,0.10791 -0.139615,0.0291 -0.190557,0.01 -0.04358,-0.0163 -0.180637,-0.0794 -0.07239,-0.0181 0.288476,0.16355 0.614797,0.2468 0.905732,0.40355 1.218951,0.65674 2.422053,1.33524 3.668783,1.95059 1.633835,0.80642 4.834329,4.36955 4.834329,2.54764 0,-6.76427 6.76427,-20.29281 0,-20.29281 -10.738362,10e-6 -21.476725,3e-5 -32.21508727,4e-5 z m 12.06386327,6.57686 c 0.09147,0.085 0.360238,0.34624 0.279569,0.25063 -0.0807,-0.0957 -0.186016,-0.16807 -0.279569,-0.25063 z m -21.0199057,17.63354 c -0.1136492,0.25728 -0.6564598,0.75551 -0.3751709,0.75551 0.4912706,0 1.1760831,0.39077 1.4738117,0 0.1801651,-0.23647 0.8341615,-0.71724 0.5369181,-0.7121 -0.545525,0.009 -1.0913738,-0.007 -1.6355589,-0.0434 z"
         inkscape:original-d="m 0.36018473,188.27533 c 0.091418,0.20777 0.17999649,0.41605 0.26561687,0.62528 1.8290645,0.1155 3.9011491,0.67725 6.1727497,1.88826 0.1997297,0.10648 0.4255045,0.23848 0.6764446,0.3793 0.4958773,0.16755 0.3739436,0.16581 1.8954917,0.99426 1.2786114,0.92983 2.7248004,1.90108 3.6468054,3.21376 1.158728,0.99059 2.495703,1.75696 3.67006,2.73109 1.521366,1.18351 3.1082,2.31293 4.599203,3.72019 0.578523,0.56215 1.166472,1.08695 1.792655,1.59629 0.117076,0.0952 0.326468,0.12942 0.358118,0.27698 0.02214,0.10317 -0.402182,-0.11058 -0.311092,-0.0574 0.284297,0.16635 0.60152,0.26874 0.90227,0.40308 1.242727,0.66557 2.395669,1.45396 3.712436,1.97404 1.63743,0.80832 3.20202,1.73483 4.834329,2.54764 v -20.29281 z m 12.06386327,6.57686 c -0.02455,-0.0196 0.16469,0.14812 0.279569,0.25063 -0.01354,-0.0149 -0.03735,-0.0434 -0.04858,-0.0553 -0.03594,-0.0307 -0.190885,-0.16332 -0.230993,-0.19533 z m -21.0199057,17.63354 c -0.116877,0.26462 -0.2419572,0.51682 -0.3751709,0.75551 h 1.4738117 c 0.1802053,-0.23652 0.3560479,-0.47594 0.5369181,-0.7121 -0.1333092,10e-4 -0.3155823,0.003 -0.3586342,0.003 -0.4393666,-0.002 -0.86403,-0.0188 -1.2769247,-0.0465 z" />
    </clipPath>
    <clipPath
       clipPathUnits="userSpaceOnUse"
       id="clipPath78">
      <path
         id="path80"
         style="fill:#ff0000;fill-opacity:1;fill-rule:nonzero;stroke:none;stroke-width:0.264583"
         d="M -12.094147,-9.8187237 V 177.63805 c 0.216857,0.47878 0.427018,0.95914 0.622184,1.44332 1.8299378,0.11494 3.9032562,0.67693 6.1763673,1.88878 0.1997297,0.10646 0.4255045,0.23848 0.6764446,0.3793 0.4958773,0.16755 0.3739436,0.16581 1.8954917,0.99425 1.2786074,0.92983 2.72480084,1.90109 3.6468055,3.21376 1.1587279,0.9906 2.4957037,1.75697 3.67006,2.7311 1.5213666,1.18351 3.1081996,2.31293 4.5992026,3.72019 0.5785231,0.56215 1.1664723,1.08694 1.7926553,1.59628 0.117076,0.0952 0.326468,0.12943 0.358118,0.27699 0.02213,0.10317 -0.402182,-0.11026 -0.311092,-0.0574 0.284297,0.16635 0.60152,0.26873 0.90227,0.40307 1.242727,0.66557 2.395661,1.45396 3.712436,1.97404 1.769248,0.8734 3.446344,1.89686 5.223971,2.75177 2.164334,1.0438 4.385561,1.96251 6.56704,2.97036 2.070682,0.92877 4.104712,1.93447 6.025989,3.1502 0.350107,0.20893 0.699405,0.41884 1.050065,0.62684 0.178718,0.10601 0.42668,0.13973 0.537951,0.31522 0.07222,0.11393 -0.511519,-0.157 -0.394806,-0.0894 0.530815,0.30744 1.136615,0.46395 1.692918,0.72244 0.05499,0.0255 -0.110305,-0.0511 -0.165365,-0.0765 1.49433,0.72811 3.070064,1.23848 4.571299,1.95027 1.022326,0.61114 1.701183,1.11939 2.641698,1.70635 0.222149,0.13864 0.944824,0.32599 0.688329,0.37879 -0.05103,0.0105 -0.387972,0.033 -0.596863,0.0506 1.803773,0.45679 4.252921,1.15196 2.882514,0.59066 -0.03326,-0.006 -0.06795,-0.01 -0.0956,-0.0186 -0.08983,-0.0282 -0.342151,-0.1572 -0.254249,-0.1235 0.16677,0.0639 0.238001,0.0963 0.349851,0.14211 0.372364,0.0618 1.043464,-0.0446 0.927592,0.25838 -0.04791,0.12527 -0.867489,0.12132 -1.496033,0.0977 0.527108,0.0335 1.308748,0.0861 2.903182,0.2098 0.455867,0.13933 0.914366,0.26965 1.367357,0.41806 0.05016,0.0165 0.19174,0.0736 0.139009,0.0754 -0.237093,0.0106 -0.931825,-0.13482 -0.710033,-0.0501 0.254675,0.0972 0.547505,0.0252 0.812353,0.0894 0.266009,0.0645 0.530106,0.137 0.793234,0.21239 1.779593,0.21962 4.683064,0.71755 2.611726,0.73845 0.713896,0.26224 0.859009,0.31629 1.503267,0.59635 l 0.989089,0.23771 c -3.117847,-0.92597 1.439296,0.26442 2.00556,0.48369 -0.01934,-0.003 -0.039,-0.003 -0.05839,-0.005 1.35233,0.32158 2.651119,0.86027 3.975983,1.28778 0.11634,0.0375 0.187823,0.16422 0.280604,0.24857 0.794785,0.32997 1.521995,0.74973 2.229321,1.22576 0.163449,0.0649 0.236916,0.0928 0.544153,0.21653 1.375436,0.69537 2.669614,1.50896 4.074171,2.14922 1.394314,0.69695 2.753656,1.52049 4.22248,2.04794 2.425438,0.69269 4.874868,1.30186 7.105509,2.52904 1.751838,0.81427 3.495546,1.69193 5.354196,2.23397 3.830577,1.40323 7.349308,3.40817 10.876336,5.44566 4.813076,2.78043 6.815006,6.27249 6.740666,9.17516 0.058,0.0209 0.1167,0.04 0.17467,0.061 8.73956,3.16681 9.92239,9.86498 6.09834,13.10876 H 341.47393 V -9.8187237 Z M 0.32990052,185.03346 c -0.0245533,-0.0196 0.16469016,0.14812 0.2795696,0.25063 -0.0135361,-0.0149 -0.0373467,-0.0433 -0.0485759,-0.0553 -0.0359415,-0.0307 -0.19088497,-0.16332 -0.23099369,-0.19534 z m -8.34574362,27.12755 c -0.4324157,0.2948 -0.8636786,0.59095 -1.2505695,0.94154 -0.4081143,0.36983 0.801167,-0.455 1.3410033,-0.86506 -0.030162,-0.0255 -0.060274,-0.051 -0.090434,-0.0765 z m 0.2247927,0.18965 c -0.4294495,0.55541 -0.7069694,0.96145 -1.0438641,1.56114 -0.5383882,1.11672 -1.2605335,2.11044 -2.0443195,3.05925 0.336524,-0.3638 -0.104424,0.17268 -0.574642,0.73122 -0.0162,0.0483 -0.03431,0.09 -0.04393,0.14521 -0.166295,0.43117 -0.376801,0.83615 -0.596346,1.23558 v 0.83303 c 0.48092,2.62235 0.710072,5.10396 0,5.29011 v 22.12062 c 0.874853,-0.29705 1.756792,-0.57038 2.4877034,-1.01855 1.9304462,-1.30475 4.1830891,-1.9155 6.4884928,-2.05517 4.9193157,0.42679 0.4431004,0.0488 0.101286,-0.0155 -0.1613834,-0.0303 0.3259807,-0.0432 0.4873088,-0.0739 0.3606268,-0.0685 1.4352404,-0.30831 1.0728023,-0.25011 1.97212796,-0.73139 4.0237405,-1.10018 6.1210735,-1.20716 2.1705049,0.0932 4.1732274,0.0343 6.4254472,0.39429 1.299429,0.21353 2.46647,0.72087 3.595646,1.35082 0.04401,-0.006 0.06587,-0.0106 0.146246,-0.0186 2.14576,0.6323 1.974233,0.45534 3.729487,1.36632 0.507862,0.26361 0.951352,0.64354 1.466061,0.89349 0.102963,0.05 -0.204028,-0.12006 -0.268718,-0.21446 -0.02988,-0.0436 0.101727,0.0311 0.152445,0.046 1.307978,0.44975 2.54277,1.09262 3.825091,1.60662 0.497314,0.002 0.994691,0.007 1.490864,0.0372 0.489127,0.0303 0.968962,0.14357 1.454692,0.20929 1.087583,0.0864 2.174857,0.17555 3.266467,0.154 -0.843868,-0.0879 0.0495,-0.27052 1.050065,-0.41032 0.04987,-0.0223 0.13344,-0.0614 0.164849,-0.0754 2.734913,-1.18118 5.750742,-1.28187 8.671303,-1.59577 1.840108,-0.26801 3.699558,-0.44698 5.515943,-0.85525 2.724587,-0.86245 5.532496,-1.19384 8.375716,-0.98133 1.678517,0.23983 2.166057,0.17415 3.545004,0.12454 2.254946,-0.0258 4.50944,0.008 6.764446,0.005 1.021948,-0.056 2.033379,-0.0375 3.032371,0.0605 -1.274278,-0.5661 -2.544738,-1.14381 -3.834907,-1.6738 -1.772939,-0.63976 -3.434588,-1.50248 -5.041035,-2.47633 -0.146413,-0.15376 -0.475062,-0.37612 -0.816489,-0.59377 -0.192664,-0.0784 -0.383648,-0.16083 -0.574124,-0.24649 -0.73333,-0.17386 -1.251715,-0.42592 -2.611729,-1.23662 -1.028991,-0.80269 -2.337594,-1.10779 -3.558955,-1.55959 -1.33128,-0.34263 -2.478434,-1.04674 -3.694864,-1.64435 -0.177853,-0.0874 0.340902,0.20308 0.500226,0.32091 0.04583,0.0339 -0.105084,-0.0439 -0.157096,-0.0672 -0.250132,-0.11218 -0.499573,-0.22643 -0.749308,-0.33951 -1.72113,-0.76254 -3.431185,-1.55462 -5.203298,-2.1916 -3.000854,-0.96427 -5.844712,-2.29763 -8.650118,-3.71657 -0.150342,-0.0749 -0.298138,-0.15549 -0.451136,-0.22479 -0.02522,-0.0114 -0.01744,-0.009 -0.02273,-0.0129 -0.793946,-0.28898 -1.587513,-0.57662 -2.382282,-0.8723 -2.267614,-0.57213 -4.381521,-1.52428 -6.522601,-2.44895 -2.553295,-1.01816 -5.004107,-2.25901 -7.387145,-3.62407 -2.060854,-1.48271 -4.290846,-2.68753 -6.4404343,-4.02611 -2.5633884,2.35255 -7.4447241,2.47482 -12.6860469,-1.95337 -1.5249628,-1.28838 -3.0495198,-2.5774 -4.5749147,-3.86539 z m 59.1658964,0.28784 c 0.54337,0.15986 1.084864,0.32746 1.632977,0.46973 0.123957,0.0322 -0.234945,-0.10196 -0.352433,-0.15296 -0.86637,-0.26322 -0.924126,-0.28978 -1.280544,-0.31677 z m 3.621485,1.20251 0.152445,0.0367 c -0.01119,-0.003 -0.03021,-0.0123 -0.03927,-0.0145 -0.03741,-0.009 -0.07562,-0.014 -0.113173,-0.0222 z m -1.671214,22.79344 c 0.06941,0.10181 0.318524,0.4558 0.830955,1.19631 0.184836,0.19188 0.314481,0.45999 0.554488,0.57567 0.03022,0.0145 0.0612,0.0274 0.09147,0.0419 -0.74503,-0.80847 -1.646568,-2.0627 -1.476912,-1.81384 z m -30.299959,11.48509 v 5.2e-4 c -0.35592,-0.005 -0.552551,-0.003 -0.37569,5.3e-4 0.173704,0.004 0.34762,0.003 0.521417,0.004 -0.0425,-7.9e-4 -0.106775,-0.004 -0.145727,-0.005 z m 0.748789,0.0248 c 0.318183,0.12679 0.638662,0.24769 0.964801,0.35295 1.507093,-0.22796 0.173931,-0.31632 -0.964801,-0.35295 z" />
    </clipPath>
    <clipPath
       clipPathUnits="userSpaceOnUse"
       id="clipPath177">
      <path
         id="path179"
         style="fill:#ff0000;fill-opacity:1;fill-rule:nonzero;stroke:none;stroke-width:0.264583"
         d="m 32.31224,207.95888 c 0,0.15727 -0.138535,0.39737 0,0.47181 0.365157,0.19622 0.73501,0.38292 1.110023,0.55998 2.084166,0.98405 4.202519,1.89248 6.303708,2.83926 2.02607,0.91293 3.980908,1.97365 5.897608,3.10208 0.35194,0.2072 0.688566,0.44289 1.054292,0.62443 0.16467,0.0817 0.670685,0.26424 0.474273,0.29548 -0.132651,0.0211 -0.508888,-0.19704 -0.401707,-0.11353 0.08567,0.0667 0.292816,0.16307 0.432571,0.22298 0.491226,0.21057 0.995682,0.38702 1.482053,0.61103 1.376225,0.63385 2.879489,0.99938 4.184944,1.76931 0.919011,0.54201 1.740185,1.24586 2.688855,1.73287 0.217763,0.11179 0.5943,0.0583 0.673069,0.29031 0.03881,0.11432 -0.226613,0.0763 -0.315727,0.0882 -0.08273,0.0111 -0.312105,0.0247 -0.291866,0.0297 0.988456,0.24727 1.945688,0.68835 2.96274,0.75238 0.07497,0.005 0.346275,0.0478 0.278265,0.01 -0.155181,-0.0869 -0.328032,-0.13674 -0.493883,-0.20179 -0.06713,-0.0263 -0.251914,-0.12225 -0.235624,-0.11711 0.167471,0.0528 0.32087,0.14185 0.50137,0.15853 0.236702,0.0219 0.497131,-0.0415 0.711242,0.0706 0.186229,0.0975 -0.0034,0.23423 -0.156682,0.25161 -0.422967,0.048 -1.698333,-0.01 -1.27452,0.0174 0.96831,0.0616 1.976753,-0.0785 2.903182,0.20981 0.482204,0.15006 0.984228,0.24698 1.447287,0.44867 0.175063,0.0762 -0.119957,0.0357 -0.183077,0.0296 -0.168749,-0.0164 -0.642797,-0.15959 -0.505029,-0.0608 0.108378,0.0777 0.295185,0.0887 0.439514,0.083 0.215402,-0.008 0.424536,0.0404 0.634003,0.0885 0.212179,0.0487 0.416766,0.13585 0.632239,0.16401 0.921043,0.12039 1.853234,0.20673 2.750143,0.45034 0.1691,0.0459 0.52682,-0.009 0.501391,0.16626 -0.01832,0.12659 -0.274276,0.094 -0.388735,0.10559 -0.08932,0.009 -0.330706,0.003 -0.297462,0.0145 0.504839,0.18051 0.97382,0.46699 1.494954,0.59223 0.326925,0.0786 1.302159,0.33453 0.980774,0.23571 -0.356161,-0.10951 -1.425187,-0.23496 -1.066419,-0.33617 0.0677,-0.0191 0.286999,0.0479 0.404465,0.0776 0.851496,0.21519 1.717938,0.39052 2.540712,0.69814 0.04023,0.015 -0.05112,0.0107 0.06841,0.0392 1.364996,0.32573 2.706179,0.75321 3.997287,1.29582 0.144027,0.0605 0.203834,0.21644 0.352132,0.2796 0.751104,0.31988 1.378717,0.88542 2.136489,1.18669 0.281938,0.11209 0.563309,0.22415 0.833145,0.36485 1.276385,0.66555 2.531457,1.36878 3.818248,2.01749 0.16573,0.0836 0.308949,0.24302 0.494031,0.25677 1.775142,0.13189 3.479845,0.77194 5.014316,1.65288 0.483053,0.27732 0.872166,0.74186 1.405446,0.90252 1.513351,0.45592 2.963255,1.08895 4.399881,1.75693 1.595846,0.74201 4.86002,3.8287 4.86002,2.06506 0,-9.41666 9.416657,-28.24994 0,-28.24997 -21.750784,-7e-5 -43.501569,-1.5e-4 -65.252353,-2.2e-4 z m 31.156753,14.49834 c 0.551828,0.16116 2.177105,0.72221 1.658241,0.4745 -0.251941,-0.12028 -0.519928,-0.20178 -0.787046,-0.28239 -0.28496,-0.086 -0.571126,-0.18016 -0.871195,-0.19211 z m 3.621485,1.20251 c 0.05082,0.0122 0.200041,0.0583 0.152445,0.0367 -0.04823,-0.0219 -0.10139,-0.0251 -0.152445,-0.0367 z M 32.31224,234.2751 c 0,6.18343 -6.18343,18.55029 0,18.55029 14.235996,0 56.025124,5.03165 42.707988,0 -1.651843,-0.62412 -3.46331,-1.1308 -4.734078,-2.35438 -0.243315,-0.23428 -0.502667,-0.47311 -0.816489,-0.59376 -0.205168,-0.0789 -0.394832,-0.20558 -0.608345,-0.2547 -0.861485,-0.19818 -1.608615,-0.69323 -2.376691,-1.10916 -0.247102,-0.13381 -0.460714,-0.3175 -0.702236,-0.46152 -0.948909,-0.56583 -1.995553,-0.94587 -3.057536,-1.21733 -1.325671,-0.33886 -4.799485,-2.47803 -3.720306,-1.65643 0.08936,0.068 0.273336,0.18048 0.405101,0.25214 0.05664,0.0308 0.195573,0.12158 0.04812,0.0541 -1.066857,-0.48825 -2.137065,-0.96963 -3.214058,-1.43515 -0.964972,-0.4171 -1.928298,-0.84606 -2.928629,-1.17045 -3.086174,-1.0008 -5.979937,-2.48813 -8.910256,-3.86725 -0.263025,-0.12379 -0.541831,-0.21165 -0.815343,-0.31022 -0.568136,-0.20474 -1.116603,-0.47362 -1.7018,-0.62176 -2.258169,-0.57164 -4.364521,-1.5906 -6.520501,-2.452 -1.034416,-0.41329 -2.050189,-0.87189 -3.054939,-1.35242 z m 33.107024,12.17807 c 0.283555,0.40413 0.514913,0.85082 0.848127,1.21452 0.189428,0.20676 0.312422,0.63455 0.605973,0.58876 0.02597,-0.004 -0.110531,-0.13646 -0.154084,-0.18611 -0.463069,-0.52786 -0.891016,-1.08508 -1.315822,-1.64379 0,0 0.01581,0.0267 0.01581,0.0267 0,0 -10e-7,-5e-5 -10e-7,-5e-5 z"
         inkscape:original-d="m 32.31224,207.95888 v 0.47181 c 0.219045,0.1113 0.430871,0.23491 0.652674,0.34158 2.164334,1.0438 4.385561,1.96251 6.56704,2.97036 2.070682,0.92877 4.104712,1.93446 6.025989,3.15019 0.350107,0.20893 0.699405,0.41884 1.050065,0.62684 0.178718,0.10601 0.42668,0.13974 0.537951,0.31523 0.07222,0.11393 -0.511519,-0.15703 -0.394806,-0.0894 0.525338,0.30425 1.123783,0.46142 1.675349,0.7152 1.450343,0.69087 2.97148,1.19257 4.423503,1.88102 1.022326,0.61115 1.701183,1.11939 2.641698,1.70635 0.222149,0.13866 0.944824,0.32599 0.688329,0.37879 -0.05103,0.0105 -0.387972,0.0333 -0.596863,0.0506 1.803773,0.45679 4.252921,1.15196 2.882514,0.59066 -0.03326,-0.006 -0.06795,-0.01 -0.0956,-0.0186 -0.08983,-0.0282 -0.342151,-0.15721 -0.254249,-0.12351 0.16677,0.0639 0.238001,0.0963 0.349851,0.14211 0.372364,0.0618 1.043464,-0.0446 0.927592,0.25838 -0.04791,0.12527 -0.867489,0.12133 -1.496033,0.0977 0.527108,0.0335 1.308748,0.0861 2.903182,0.20981 0.455867,0.13933 0.914366,0.26963 1.367357,0.41806 0.05016,0.0165 0.19174,0.0735 0.139009,0.0755 -0.237093,0.0106 -0.931825,-0.13493 -0.710033,-0.0501 0.254675,0.0972 0.547505,0.0252 0.812353,0.0894 0.266009,0.0645 0.530106,0.137 0.793234,0.21239 1.779593,0.21963 4.683064,0.71756 2.611726,0.73846 0.713896,0.26224 0.859009,0.31628 1.503267,0.59634 l 0.989089,0.23771 c -3.117847,-0.92597 1.439296,0.26443 2.00556,0.4837 -0.01934,-0.003 -0.039,-0.003 -0.05839,-0.005 1.35233,0.32155 2.651119,0.86027 3.975983,1.28778 0.11634,0.0375 0.187823,0.16421 0.280604,0.24856 0.794785,0.32997 1.521995,0.74971 2.229321,1.22577 0.163449,0.0649 0.236916,0.0928 0.544153,0.21652 1.375436,0.69537 2.669614,1.50896 4.074171,2.14922 0.176453,0.0882 0.351475,0.18197 0.5271,0.27337 1.93789,0.14144 4.13708,0.93277 6.419762,2.5554 1.506347,0.45555 2.986495,0.98096 4.381127,1.74821 1.600359,0.74387 3.198157,1.52831 4.878774,2.07378 V 207.9591 Z m 31.156753,14.49834 c 0.54337,0.15986 1.084864,0.32746 1.632977,0.46974 0.123957,0.0322 -0.234945,-0.10196 -0.352433,-0.15296 -0.86637,-0.26323 -0.924126,-0.28979 -1.280544,-0.31678 z m 3.621485,1.20251 0.152445,0.0367 c -0.01119,-0.003 -0.03021,-0.0123 -0.03927,-0.0145 -0.03741,-0.009 -0.07562,-0.014 -0.113173,-0.0222 z M 32.31224,234.2751 v 18.55029 h 42.707988 c -1.656929,-0.6265 -3.221783,-1.4376 -4.734078,-2.35438 -0.146413,-0.15376 -0.475062,-0.3761 -0.816489,-0.59376 -0.192664,-0.0784 -0.383648,-0.16085 -0.574124,-0.24649 -0.73333,-0.17386 -1.251715,-0.42592 -2.611729,-1.23662 -1.028991,-0.80269 -2.337594,-1.10779 -3.558955,-1.5596 -1.33128,-0.34262 -2.478434,-1.04673 -3.694864,-1.64434 -0.177853,-0.0874 0.340902,0.20309 0.500226,0.32091 0.04583,0.0339 -0.105084,-0.0439 -0.157096,-0.0672 -0.250132,-0.11219 -0.499573,-0.22643 -0.749308,-0.33951 -1.72113,-0.76254 -3.431185,-1.55462 -5.203298,-2.1916 -3.000854,-0.96427 -5.844712,-2.29763 -8.650118,-3.71657 -0.150342,-0.0749 -0.298138,-0.15549 -0.451136,-0.22479 -0.02522,-0.0114 -0.01744,-0.009 -0.02273,-0.0129 -0.793946,-0.28898 -1.587513,-0.57662 -2.382282,-0.8723 -2.267614,-0.57213 -4.381521,-1.52428 -6.522601,-2.44895 -1.04408,-0.41634 -2.067218,-0.87811 -3.079398,-1.36219 z m 33.107024,12.17807 c 0.06941,0.10181 0.318524,0.45581 0.830955,1.19631 0.184836,0.19188 0.314481,0.46 0.554488,0.57568 0.03022,0.0146 0.0612,0.0274 0.09147,0.0419 -0.74503,-0.80846 -1.646568,-2.0627 -1.476912,-1.81384 z" />
    </clipPath>
    <clipPath
       clipPathUnits="userSpaceOnUse"
       id="clipPath187">
      <path
         id="path189"
         style="fill:#ff0000;fill-opacity:1;fill-rule:nonzero;stroke:none;stroke-width:0.264583"
         d="m 96.078889,262.57312 c 0,1.1355 -0.648801,4.33839 0,3.4065 0.575141,-0.82609 1.177387,-1.63392 1.820288,-2.40868 0.04587,-0.0553 0.182635,-0.10882 0.138251,-0.16531 -0.142059,-0.1808 -0.204722,-0.49532 -0.430467,-0.53899 -0.509228,-0.0985 -1.017969,-0.1996 -1.528072,-0.29352 z"
         inkscape:original-d="m 96.078889,262.57312 v 3.4065 c 0.687258,-0.98761 1.340189,-1.8404 1.958539,-2.57399 -0.144577,-0.184 -0.287901,-0.36325 -0.430467,-0.53899 -0.50918,-0.0985 -1.017831,-0.19957 -1.528072,-0.29352 z" />
    </clipPath>
    <clipPath
       clipPathUnits="userSpaceOnUse"
       id="clipPath198">
      <path
         id="path200"
         style="fill:#ff0000;fill-opacity:1;fill-rule:nonzero;stroke:none;stroke-width:0.264583"
         d="m 97.292769,262.80515 c 0,0.50832 -0.312447,1.92593 0,1.52497 0.243228,-0.31213 0.989128,-0.61329 0.744659,-0.92449 -0.143162,-0.18224 -0.209661,-0.49655 -0.437185,-0.54054 -0.102511,-0.0198 -0.20497,-0.0404 -0.307474,-0.0599 z"
         inkscape:original-d="m 97.292769,262.80515 v 1.52497 c 0.252917,-0.32471 0.502245,-0.63691 0.744659,-0.92449 -0.147738,-0.18802 -0.292672,-0.36588 -0.437185,-0.54054 -0.102523,-0.0198 -0.204885,-0.0404 -0.307474,-0.0599 z" />
    </clipPath>
    <clipPath
       clipPathUnits="userSpaceOnUse"
       id="clipPath208">
      <path
         id="path210"
         style="fill:#ff0000;fill-opacity:1;fill-rule:nonzero;stroke:none;stroke-width:0.264583"
         d="m 97.349614,262.81651 c 0,0.47973 -0.295883,1.81681 0,1.43919 0.224818,-0.28692 0.912966,-0.5634 0.687814,-0.85007 -0.143414,-0.1826 -0.211286,-0.49656 -0.439251,-0.54054 -0.08289,-0.016 -0.165689,-0.0327 -0.248563,-0.0486 z"
         inkscape:original-d="m 97.349614,262.81651 v 1.43919 c 0.233434,-0.298 0.463376,-0.58381 0.687814,-0.85007 -0.148418,-0.18889 -0.294278,-0.36578 -0.439251,-0.54054 -0.08289,-0.016 -0.165632,-0.0327 -0.248563,-0.0486 z" />
    </clipPath>
    <clipPath
       clipPathUnits="userSpaceOnUse"
       id="clipPath218">
      <path
         id="path220"
         style="fill:#ff0000;fill-opacity:1;fill-rule:nonzero;stroke:none;stroke-width:0.264583"
         d="m -9.9544312,191.01108 c 0,2.29357 -2.2704338,7.20566 0,6.88071 1.0348511,-0.14811 2.0832118,-0.11424 3.1254731,-0.1745 0.1746835,-0.0101 0.3978034,0.0932 0.287238,-0.18569 -0.5668377,-1.42961 -0.6860766,-3.06213 -0.1756577,-4.52841 0.2567242,-0.73749 1.9806009,-1.99215 1.199885,-1.99214 -1.4789795,10e-6 -2.9579589,2e-5 -4.4369384,3e-5 z m 17.1493408,0 c 0.2479663,0.17004 0.5436529,0.23488 0.8030713,0.38406 0.4649671,0.26738 0.9693106,0.4736 1.4025045,0.78909 1.2690046,0.92421 2.6125746,1.8169 3.5511246,3.10022 0.148609,0.2032 0.36652,0.34444 0.564148,0.49754 1.072383,0.83074 2.203204,1.57936 3.278672,2.40842 1.654492,1.27542 3.313513,2.54822 4.846072,3.97518 0.480304,0.44721 0.856981,1.10569 1.486412,1.29135 0.09249,0.0273 0.443738,0.31999 0.229726,0.26557 -0.11102,-0.0282 -0.35479,-0.13753 -0.122345,-0.0196 0.375112,0.19031 0.772526,0.32665 1.14157,0.53362 1.120436,0.62838 2.252186,1.23017 3.406528,1.80443 1.95021,0.97019 3.818706,2.09668 5.79266,3.02172 2.100177,0.98419 4.231943,1.89829 6.344706,2.85499 1.983211,0.89804 3.878041,1.9723 5.76944,3.0535 0.355557,0.20325 0.68996,0.44803 1.062613,0.61775 0.138286,0.063 0.553994,0.26632 0.393131,0.27203 -0.12826,0.005 -0.453208,-0.14987 -0.39379,-0.1155 0.533683,0.30867 2.249581,0.98111 1.692918,0.72243 -0.09516,-0.0442 -0.236074,-0.11024 -0.06016,-0.0257 1.467414,0.70557 3.087493,1.08727 4.489995,1.91374 0.919897,0.54208 1.743806,1.24325 2.692258,1.73217 0.215502,0.11109 0.86654,0.16054 0.664631,0.29598 -0.160977,0.10798 -0.8515,0.0431 -0.647623,0.0933 1.04217,0.25671 2.11012,0.42911 3.123104,0.78481 0.133222,0.0468 0.20074,0.0201 0.0478,-0.0682 -0.208468,-0.12037 -0.880706,-0.3626 -0.656241,-0.27361 0.22176,0.0879 0.44161,0.13308 0.68617,0.17148 0.195694,0.0307 0.858898,0.0692 0.60927,0.23454 -0.199264,0.13197 -0.467188,0.10576 -0.699957,0.10938 -0.265403,0.004 -1.06094,-0.0285 -0.796076,-0.0117 0.96831,0.0616 1.977771,-0.0817 2.903182,0.20981 0.491349,0.1548 1.090504,0.11879 1.475446,0.46125 0.08632,0.0768 -0.250465,0.0139 -0.319995,0.004 -0.108949,-0.0162 -0.5863,-0.043 -0.261956,0.008 0.320657,0.0501 0.642836,0.038 0.964043,0.12294 0.294274,0.0778 0.586372,0.15061 0.889737,0.19399 0.916596,0.13107 1.811898,0.4142 2.7366,0.48319 0.106698,0.008 0.377194,0.11581 0.12544,0.17599 -0.165108,0.0395 -0.621565,0.0264 -0.562618,0.0472 0.505888,0.17841 0.975675,0.46536 1.496461,0.59051 0.320948,0.0771 1.277767,0.33029 0.962844,0.2314 -0.36086,-0.11332 -1.453872,-0.41139 -1.081604,-0.3459 0.527773,0.0928 1.045985,0.24102 1.562324,0.38463 0.510022,0.14185 2.053063,0.48357 1.52484,0.44497 -0.113304,-0.008 0.214999,0.0626 0.289122,0.0825 1.246313,0.33387 2.83683,0.23531 3.670125,1.21827 0.180366,0.21276 0.42879,0.30983 0.679204,0.42543 0.635631,0.29343 1.162758,0.80472 1.818738,1.04268 0.36626,0.13286 0.715135,0.30366 1.058656,0.48738 1.206322,0.64515 2.404609,1.30367 3.629114,1.91674 0.225618,0.11296 0.437971,0.21941 0.702203,0.24741 2.118713,0.22454 4.169875,1.04852 5.851767,2.32663 0.174899,0.13291 0.362226,0.22518 0.575894,0.29086 1.425107,0.43805 2.786585,1.04936 4.140065,1.68103 1.75165,0.8175 3.462315,1.80386 5.354231,2.2302 0.189796,0.0428 0.605896,0.34573 0.605896,0.2098 0,-15.19436 15.194357,-45.58307 0,-45.58309 -30.497364,-5e-5 -60.994729,-1.1e-4 -91.4920934,-1.6e-4 z m 5.2291384,3.84111 c 0.06384,0.0558 0.282323,0.25118 0.254413,0.22185 -0.07733,-0.0813 -0.169855,-0.14808 -0.254413,-0.22185 z m -18.8128052,3.05459 c -0.4639664,0.19773 -1.9053334,0.47361 -1.4076209,0.55496 0.2016524,0.033 0.5042544,-0.0333 0.7282396,-0.10163 0.2482524,-0.0757 0.8802794,-0.0458 0.7886866,-0.22996 -0.036916,-0.0742 -0.075337,-0.14773 -0.1093053,-0.22337 z m -3.565674,14.43684 c 0,1.55116 -0.5819258,6.09134 0,4.65347 0.123515,-0.30519 0.3223711,-0.56521 0.485982,-0.84847 0.7329064,-1.26888 3.9531474,-3.64202 2.4874799,-3.61948 -0.9937746,0.0153 -1.9896459,-0.045 -2.9734619,-0.18552 z m 14.0363525,9.63921 c -0.4600343,0.31961 -1.8736792,1.18558 -1.3352875,1.02384 0.1766224,-0.0531 0.3576645,-0.19685 0.5208896,-0.30725 0.305965,-0.20695 1.1857154,-0.40241 0.9037982,-0.64114 -0.029759,-0.0252 -0.059603,-0.0503 -0.0894,-0.0754 z m 0.2087729,0.17777 c -0.4996856,0.61498 -0.8804301,1.31243 -1.2554136,2.00854 -0.5057565,0.93887 -2.50356184,3.43688 -1.8203677,2.62063 0.085599,-0.10227 0.1544552,-0.15408 0.037806,-0.009 -0.2002809,0.24978 -0.51387178,0.43524 -0.6124476,0.73982 -0.18027723,0.55703 -0.85075185,1.01555 -0.74104006,1.58957 0.27337037,1.4303 0.58188427,2.87314 0.56374577,4.33268 -0.005804,0.46705 -0.009253,0.9563 -0.21225438,1.38959 -0.10578133,0.22578 -0.39172345,0.26031 -0.59832773,0.14417 -0.41913708,-0.23561 -1.0395616,-1.46582 -1.0171691,-0.99335 0.037546,0.7922 0.1626943,1.61647 -0.068515,2.37565 -0.067933,0.22306 -0.022268,0.44411 -0.00552,0.67092 0.079709,1.07919 -0.3298677,2.10328 -0.6188456,3.12272 -0.060059,0.21187 -0.2469648,0.84431 -0.164767,0.63997 0.1317323,-0.32748 0.4298011,-1.34122 0.3782238,-0.99094 -0.053059,0.36034 -0.1150137,0.72464 -0.168845,1.08709 -0.136552,0.91942 -0.304976,1.83517 -0.3592415,2.76525 -0.1229683,2.10762 0.4790616,4.26159 0.033921,6.32393 -0.1653508,0.76607 -0.7399404,3.04564 -0.4939462,2.29959 0.1312148,-0.39795 0.3385143,-1.62925 0.349265,-1.20952 0.00848,0.33106 -0.040797,0.66692 -0.061761,0.99928 -0.019735,0.31287 -0.076527,0.61901 -0.069453,0.93472 0.023704,1.05788 -0.15034,2.11549 -0.093331,3.1711 0.035892,0.66459 -0.9679205,1.95806 -0.307739,1.95316 0.2557973,-0.002 0.5740405,0.1963 0.7811667,0.0476 0.9485098,-0.68109 2.09592221,-0.97847 3.18353431,-1.35665 0.64253929,-0.22342 1.25726759,-0.51944 1.83487089,-0.88423 1.8481126,-1.16719 4.0275476,-2.04962 6.1919441,-1.86174 0.7613547,0.0661 3.044817,0.27104 2.283984,0.19919 -0.727821,-0.0687 -2.4455896,0.46653 -2.1826981,-0.21569 0.024959,-0.0648 0.3763168,-0.0492 0.5231437,-0.0803 0.3709053,-0.0786 1.4854854,-0.30211 1.1097214,-0.25197 -0.162019,0.0216 0.18461,-0.0847 0.251506,-0.10799 1.87953,-0.65507 3.861263,-1.17054 5.847655,-1.08824 2.257799,0.0935 4.545804,-0.003 6.766528,0.46662 1.131427,0.23944 2.065695,1.45572 3.203724,1.27685 0.278098,-0.0437 0.546328,0.0979 0.811975,0.17291 0.762894,0.21545 1.533241,0.41628 2.251667,0.76412 0.562877,0.27253 1.118323,0.56207 1.632137,0.9216 0.158117,0.11064 0.650293,0.37298 0.623295,0.36109 -0.07601,-0.0335 -0.394149,-0.25358 -0.142971,-0.16707 1.326225,0.45676 2.473727,1.61726 3.874509,1.62622 0.817471,0.005 1.638459,0.0175 2.44612,0.16717 0.68592,0.12712 1.385129,0.15393 2.08014,0.19366 0.561237,0.0321 2.246765,0.001 1.685763,0.0391 -0.124127,0.008 -0.504974,-0.0832 -0.209428,-0.17165 0.410121,-0.12274 0.870621,-0.0619 1.259493,-0.23815 1.954332,-0.88568 4.103698,-1.18901 6.21968,-1.41312 1.145955,-0.12137 2.294425,-0.21625 3.436968,-0.37151 1.58069,-0.2148 3.204448,-0.26913 4.72738,-0.75035 2.698294,-0.85261 5.583647,-1.38755 8.382906,-0.96621 0.912185,0.1373 1.835855,0.19064 2.758471,0.1485 1.357907,-0.062 2.717902,-0.0362 4.076765,-0.0358 1.192844,3.7e-4 2.387411,0.0612 3.578733,0.004 0.962857,-0.0463 3.770715,0.45722 2.888729,0.0679 -1.316189,-0.58101 -2.608739,-1.22285 -3.959384,-1.71915 -1.719941,-0.632 -3.579862,-1.18114 -4.916558,-2.43098 -0.255342,-0.23875 -0.528859,-0.48119 -0.852594,-0.60851 -0.267358,-0.10515 -0.527206,-0.22023 -0.805006,-0.30155 -0.84408,-0.2471 -1.656303,-0.63122 -2.344742,-1.16682 -0.998087,-0.77651 -2.234473,-1.12189 -3.415449,-1.50728 -0.400785,-0.13079 -0.807073,-0.24661 -1.199452,-0.40489 -0.921938,-0.37189 -3.495875,-1.86567 -2.675022,-1.30791 0.175618,0.11933 0.730295,0.4309 0.538432,0.34413 -1.576047,-0.71274 -3.152643,-1.42607 -4.752307,-2.08497 -0.699175,-0.28799 -1.414905,-0.5311 -2.129752,-0.77703 -2.884282,-0.99229 -5.487078,-2.66904 -8.353729,-3.69766 -0.812993,-0.29172 -1.598687,-0.67322 -2.435401,-0.88578 -2.271767,-0.57712 -4.391823,-1.60014 -6.559204,-2.47136 -2.526645,-1.01563 -5.110835,-2.01807 -7.321579,-3.60553 -2.050818,-1.47262 -4.565502,-5.72115 -6.415762,-4.00824 -1.176806,1.08945 -2.796893,1.60466 -4.383879,1.61343 -2.088526,0.0115 -4.102556,-0.76129 -5.879484,-1.81491 -1.129193,-0.66955 -2.1396541,-1.51174 -3.139911,-2.35691 -1.2900769,-1.09006 -2.5803375,-2.18005 -3.8706108,-3.26979 z m -5.6554687,11.82305 c -0.00895,-0.10531 -0.033284,-0.57007 -0.034228,-0.26295 -2.908e-4,0.0947 -0.062311,0.19548 0.034228,0.26295 z m -0.01757,-0.40101 c 0.019302,-0.17462 0.085544,-0.64101 0.07217,-0.57847 -0.0236,0.11036 -0.1148914,0.44546 -0.1086921,0.40431 0.04179,-0.2774 0.1201565,-0.55003 0.1634295,-0.82657 0.027805,-0.17769 0.077313,-0.58124 0.111104,-0.84688 0.010892,-0.0856 0.053469,-0.41938 0.041975,-0.34478 -0.1097526,0.71233 -1.1298387,1.51012 -0.6572233,2.04873 0.1040851,0.11862 0.3312013,0.50429 0.3418877,0.42799 0.014222,-0.10154 0.030308,-0.40112 0.030947,-0.38698 0.00155,0.0342 0.0025,0.0685 0.0044,0.10265 z m -0.3772379,-0.14366 c -0.2126654,-0.30707 -0.4977743,-1.29325 -0.6128825,-0.93793 -0.3825404,1.18085 -0.4712458,2.46104 -0.9878736,3.58926 -0.058393,0.12752 0.00299,0.30148 0.1368179,0.12847 0.3915312,-0.50617 0.6762345,-1.08552 0.9551605,-1.65845 0.1796895,-0.36909 0.3497981,-0.74287 0.5087777,-1.12135 z m -0.6128825,-0.93793 c 0.04199,-0.1531 0.1931945,-0.57273 0.1612621,-0.51095 -0.079703,0.1542 -0.3870745,0.29321 -0.1903299,0.46483 0,0 0.014354,0.0226 0.014354,0.0226 0,0 0.014713,0.0235 0.014713,0.0235 z m 0.179834,-0.53278 c 0.3094577,-0.36231 0.7794658,-0.64564 0.9069214,-1.10484 0.082358,-0.29672 -0.2795391,-0.16953 -0.400605,0.0116 -0.2240777,0.3352 -0.3648093,0.71801 -0.5063164,1.09327 z m 0.9069214,-1.10484 c -0.1395717,0.46387 -0.6264842,1.82917 -0.4185791,1.39164 0.1876018,-0.3948 0.78376708,-0.80831 0.5617228,-1.18494 -0.031035,-0.0526 -0.06759,-0.37149 -0.1431437,-0.2067 z m 0.1431437,0.2067 c 0.02605,0.0837 0.1085055,0.45616 0.1128586,0.18122 0.00202,-0.12743 0.021763,-0.49553 0.00873,-0.46361 -0.038742,0.0949 -0.080062,0.1887 -0.1215901,0.28239 z m 0.137976,-0.32298 c 0.0499445,-0.13399 0.18470325,-0.5012 0.15570455,-0.47194 -0.13748052,0.13874 -0.16930055,0.28065 -0.15570455,0.47194 z m 0.17621666,-0.50074 c 0.26009195,-0.36697 0.81690007,-0.69497 0.72760418,-1.13585 -0.32953644,-1.62702 -0.63412381,-3.27243 -1.20995254,-4.83052 -0.1071986,-0.29006 -0.06003,-0.91556 -0.3669346,-0.85608 -0.1812249,0.0351 -0.092674,0.41189 -0.083943,0.57692 0.1021013,1.92986 1.03949755,3.73688 1.03134523,5.66795 -8.2867e-4,0.19629 -0.0448861,0.38965 -0.0981192,0.57758 z M 63.468993,222.45722 c 0.551829,0.16115 2.179905,0.71626 1.658241,0.4745 -0.413645,-0.1917 -0.854126,-0.32425 -1.29749,-0.42592 -0.118527,-0.0272 -0.239671,-0.0397 -0.360751,-0.0486 z m 3.621485,1.20251 c 0.112205,0.031 0.208933,0.0432 0.02827,0.006 0,0 -0.02827,-0.006 -0.02827,-0.006 0,0 -2e-6,0 -2e-6,0 z m -68.5162307,10.29549 c -0.010486,0.0862 -0.015898,0.18809 0,0 z m 66.8450167,12.49795 c 0.289906,0.40977 0.536316,0.85455 0.865005,1.23313 0.183767,0.21166 0.812681,0.8005 0.611908,0.58076 -0.533233,-0.58361 -1.014076,-1.21215 -1.492719,-1.84051 0,0 0.01581,0.0267 0.01581,0.0267 0,0 -10e-7,-5e-5 -10e-7,-5e-5 z m -68.1369275,6.75049 c -0.023079,0.12313 -0.093097,0.48564 -0.083497,0.43313 0.026391,-0.14435 0.069349,-0.28749 0.083497,-0.43313 z m -2.907833,4.16047 c 0.3079373,0.13494 1.2219145,0.55823 0.9281089,0.39481 -0.3119382,-0.17351 -0.6495113,-0.29945 -0.9842775,-0.42144 0,0 0.015754,0.008 0.015754,0.008 0,0 0.040415,0.0183 0.040415,0.0183 0,0 3e-7,-2e-5 3e-7,-2e-5 z m 40.7448015,0.57413 c -0.128085,3.4e-4 -0.494801,-0.002 -0.424924,-1.8e-4 0.156012,0.005 0.574644,0.006 0.535429,0.004 -0.03683,-0.001 -0.07376,-0.003 -0.110505,-0.004 z m 0.748789,0.0248 c 0.318142,0.12679 0.628463,0.41789 0.964801,0.35295 0.222875,-0.043 0.796416,0.0272 0.665117,-0.16116 -0.103808,-0.14891 -0.411026,-0.12492 -0.598006,-0.13961 -0.343402,-0.027 -0.687692,-0.0407 -1.031912,-0.0522 z m -38.0312694,0.22427 c -0.1042443,-0.005 -0.176921,0.0828 -0.023578,0.009 0,0 0.023577,-0.009 0.023577,-0.009 0,0 6e-7,-4e-4 6e-7,-4e-4 z m 0.7265706,0.11214 c -0.1150249,0.007 -0.1917076,-0.0116 -0.032402,0.0246 0.112824,0.0256 0.51131104,0.007 0.1905812,-0.013 -0.052758,-0.003 -0.1057718,-0.006 -0.1581791,-0.0116 z m 18.8329588,8.85373 c -0.340465,0.0486 -1.337227,0.26355 -0.994255,0.26355 0.473012,0 1.882432,0.0949 1.419035,0 -0.17718,-0.0363 -0.693053,-0.0173 -0.602982,-0.12855 0.03948,-0.0488 0.179231,-0.0959 0.178202,-0.135 z m 2.63033,0.17312 c -0.09871,0.006 0.166261,0.12319 0.261571,0.0909 0.07382,-0.025 0.241855,-0.0851 0.03831,-0.0907 -0.09981,-0.003 -0.201043,-0.001 -0.299877,-1.8e-4 z m -0.268717,0.0124 c -0.387921,0.0207 -1.551205,0.078 -1.16272,0.078 0.430637,0 1.642735,0.24974 1.291911,0 -0.04112,-0.0293 -0.08931,-0.0468 -0.129191,-0.078 z"
         inkscape:original-d="m -9.9544312,191.01108 v 6.88071 c 0.8429522,-0.11562 1.7452568,-0.1779 2.7161133,-0.17104 0.2099866,0.002 0.493087,-0.005 0.7684286,-0.0114 -1.056767,-2.52923 -0.6097789,-5.00916 0.9523965,-6.6983 z m 17.1493408,0 c 0.095218,0.0541 0.1761762,0.0988 0.2800863,0.15709 0.4958773,0.16755 0.3739436,0.16581 1.8954917,0.99426 1.2786114,0.92983 2.7248004,1.90108 3.6468054,3.21376 1.158728,0.99059 2.495703,1.75696 3.67006,2.73109 1.521366,1.18351 3.1082,2.31293 4.599203,3.72019 0.578523,0.56215 1.166472,1.08695 1.792655,1.59629 0.117076,0.0952 0.326468,0.12942 0.358118,0.27698 0.02214,0.10317 -0.402182,-0.11018 -0.311092,-0.0574 0.284297,0.16635 0.60152,0.26874 0.90227,0.40308 1.242727,0.66557 2.395659,1.45396 3.712436,1.97404 1.769248,0.8734 3.446344,1.89686 5.223971,2.75177 2.164334,1.0438 4.385561,1.96251 6.56704,2.97036 2.070682,0.92877 4.104712,1.93446 6.025989,3.15019 0.350107,0.20893 0.699405,0.41884 1.050065,0.62684 0.178718,0.10601 0.42668,0.13974 0.537951,0.31523 0.07222,0.11393 -0.511519,-0.15703 -0.394806,-0.0894 0.530815,0.30743 1.136615,0.46394 1.692918,0.72243 0.05499,0.0255 -0.110305,-0.0511 -0.165365,-0.0765 1.49433,0.72811 3.070064,1.23849 4.571299,1.95027 1.022326,0.61115 1.701183,1.11939 2.641698,1.70635 0.222149,0.13866 0.944824,0.32599 0.688329,0.37879 -0.05103,0.0105 -0.387972,0.0333 -0.596863,0.0506 1.803773,0.45679 4.252921,1.15196 2.882514,0.59066 -0.03326,-0.006 -0.06795,-0.01 -0.0956,-0.0186 -0.08983,-0.0282 -0.342151,-0.15721 -0.254249,-0.12351 0.16677,0.0639 0.238001,0.0963 0.349851,0.14211 0.372364,0.0618 1.043464,-0.0446 0.927592,0.25838 -0.04791,0.12527 -0.867489,0.12127 -1.496033,0.0977 0.527108,0.0335 1.308748,0.0861 2.903182,0.20981 0.455867,0.13933 0.914366,0.26963 1.367357,0.41806 0.05016,0.0165 0.19174,0.0735 0.139009,0.0755 -0.237093,0.0106 -0.931825,-0.13499 -0.710033,-0.0501 0.254675,0.0972 0.547505,0.0252 0.812353,0.0894 0.266009,0.0645 0.530106,0.137 0.793234,0.21239 1.779593,0.21963 4.683064,0.71756 2.611726,0.73846 0.713896,0.26224 0.859009,0.31628 1.503267,0.59634 l 0.989089,0.23771 c -3.117847,-0.92597 1.439296,0.26443 2.00556,0.4837 -0.01934,-0.003 -0.039,-0.003 -0.05839,-0.005 1.35233,0.32155 2.651119,0.86027 3.975983,1.28778 0.11634,0.0375 0.187823,0.16421 0.280604,0.24856 0.794785,0.32997 1.521995,0.74971 2.229321,1.22577 0.163449,0.0649 0.236916,0.0928 0.544153,0.21652 1.375436,0.69537 2.669614,1.50896 4.074171,2.14922 0.176453,0.0882 0.351475,0.18197 0.5271,0.27337 1.93789,0.14144 4.13708,0.93277 6.419762,2.5554 1.506347,0.45555 2.986495,0.98096 4.381127,1.74821 1.751838,0.81427 3.495546,1.69194 5.354196,2.23398 0.219782,0.0805 0.429212,0.18125 0.646988,0.26561 v -45.62358 z m 5.2291384,3.84111 c -0.02455,-0.0196 0.16469,0.14812 0.279569,0.25063 -0.01354,-0.0149 -0.03735,-0.0434 -0.04858,-0.0553 -0.03594,-0.0307 -0.190885,-0.16332 -0.230993,-0.19533 z m -18.8128052,3.05459 c -0.4637159,0.19597 -1.7877116,0.63115 -1.3125815,0.56638 0.4860681,-0.0664 0.9627182,-0.18397 1.4376384,-0.3111 -0.041597,-0.0851 -0.086905,-0.17024 -0.1250569,-0.25528 z m -3.565674,14.43684 v 4.65347 c 0.087176,-0.18296 0.1713397,-0.36762 0.3007569,-0.52348 0.7827015,-1.39238 1.6616498,-2.7114 2.672705,-3.94447 -0.1229998,8e-4 -0.297393,0.003 -0.3379637,0.003 -0.9397209,-0.004 -1.816849,-0.0708 -2.6354982,-0.18862 z m 14.0363525,9.63921 c -0.432693,0.29499 -0.8670459,0.58763 -1.2541869,0.93844 -0.4057195,0.36766 0.7987464,-0.45031 1.3435872,-0.86299 -0.029791,-0.0252 -0.059612,-0.0504 -0.0894,-0.0754 z m 0.2087729,0.17777 c -0.4924536,0.62684 -0.6731746,0.93214 -1.0314617,1.56993 -0.5383882,1.11671 -1.2605333,2.11044 -2.0443196,3.05924 0.336524,-0.3638 -0.1044237,0.17268 -0.5746419,0.73122 -0.0161951,0.0483 -0.034314,0.09 -0.043925,0.14521 -0.19439361,0.50402 -0.43239776,0.98236 -0.69711506,1.44436 0.77499913,3.91945 1.07325117,7.89838 -1.26400544,4.87309 0.01418,0.36825 0.022694,0.7362 0.021187,1.10639 -0.035319,0.69073 -0.049188,1.12863 -0.1384929,1.55133 9.5e-5,0.004 4.234e-4,0.006 5.16e-4,0.009 0.2386161,1.49872 -0.4037906,2.68789 -0.7286377,4.07882 -0.074008,0.31689 0.2033935,-0.62127 0.3534668,-0.91002 0.047373,-0.0911 -0.023971,0.20383 -0.039274,0.30541 -0.09103,0.60424 -0.1863796,1.20785 -0.2795695,1.81178 -0.4754877,2.65712 -0.056656,5.35703 -0.1627808,8.04188 -0.1622935,0.74072 -0.3833716,1.47096 -0.4873089,2.22209 -0.053326,0.38537 0.1955364,-0.75484 0.3343467,-1.11828 0.027183,-0.0712 0.011348,0.15241 0.00568,0.22841 -0.031401,0.42504 -0.059309,0.85102 -0.1167888,1.27331 -0.00243,0.0178 -0.013702,0.0716 -0.01757,0.0956 2.133e-4,0.0132 -8.44e-4,0.041 -5.159e-4,0.0527 0.032261,1.15808 -0.00719,2.24751 -0.088883,3.40909 0.041745,0.68857 -0.1116251,1.34185 -0.3059245,1.98541 0.2432841,0.0343 0.4845824,0.0709 0.7084838,0.10025 0.064403,-0.0471 0.129561,-0.0932 0.1937867,-0.14056 1.37268868,-0.91481 3.2486873,-1.13061 4.6007527,-1.95957 1.9304461,-1.30475 4.183089,-1.9155 6.4884928,-2.05517 4.919318,0.4268 0.4431003,0.0474 0.1012859,-0.0165 -0.1613834,-0.0303 0.3259807,-0.0427 0.4873088,-0.0734 0.3606268,-0.0685 1.4352403,-0.30831 1.0728023,-0.25011 1.972128,-0.73139 4.023741,-1.10017 6.121074,-1.20716 2.170505,0.0932 4.173224,0.0348 6.425447,0.39481 1.299429,0.21353 2.46647,0.72086 3.595646,1.35082 0.04401,-0.006 0.06586,-0.0111 0.146245,-0.0191 2.145763,0.6323 1.974234,0.45533 3.729488,1.36632 0.507862,0.26358 0.951351,0.64354 1.466061,0.89349 0.102963,0.05 -0.204028,-0.12006 -0.268718,-0.21446 -0.02988,-0.0436 0.101727,0.0311 0.152445,0.046 1.307978,0.44975 2.54277,1.09263 3.825091,1.60662 0.497314,0.002 0.994691,0.007 1.490864,0.0372 0.489127,0.0303 0.968962,0.14358 1.454692,0.20929 1.087583,0.0864 2.174857,0.17503 3.266467,0.15348 -0.843868,-0.0879 0.0495,-0.27002 1.050065,-0.4098 0.04987,-0.0223 0.13344,-0.0604 0.164849,-0.0744 2.734913,-1.18118 5.750739,-1.28186 8.671303,-1.59577 1.840103,-0.26798 3.699558,-0.44646 5.515943,-0.85473 2.724587,-0.86245 5.532496,-1.19439 8.375716,-0.98185 1.678517,0.23979 2.166057,0.17414 3.545004,0.12454 2.254946,-0.0258 4.50944,0.008 6.764446,0.005 1.021948,-0.056 2.033379,-0.0375 3.032371,0.0605 -1.274278,-0.5661 -2.544738,-1.14381 -3.834907,-1.6738 -1.772939,-0.63976 -3.434588,-1.50248 -5.041035,-2.47633 -0.146413,-0.15376 -0.475062,-0.37611 -0.816489,-0.59376 -0.192664,-0.0784 -0.383648,-0.16083 -0.574124,-0.2465 -0.73333,-0.17386 -1.251715,-0.42592 -2.611729,-1.23662 -1.028991,-0.80269 -2.337594,-1.10779 -3.558955,-1.55959 -1.33128,-0.34263 -2.478434,-1.04674 -3.694864,-1.64435 -0.177853,-0.0874 0.340902,0.20308 0.500226,0.32091 0.04583,0.0339 -0.105084,-0.0439 -0.157096,-0.0672 -0.250132,-0.11222 -0.499573,-0.22644 -0.749308,-0.33952 -1.72113,-0.76254 -3.431185,-1.55462 -5.203298,-2.1916 -3.000854,-0.96427 -5.84471,-2.29761 -8.650119,-3.71657 -0.150341,-0.0749 -0.298137,-0.15549 -0.451135,-0.22479 -0.02522,-0.0114 -0.01744,-0.009 -0.02273,-0.0129 -0.793946,-0.28897 -1.587513,-0.57662 -2.382282,-0.8723 -2.267614,-0.57214 -4.381521,-1.52428 -6.522601,-2.44895 -2.553295,-1.01816 -5.004107,-2.25901 -7.387145,-3.62406 -2.060668,-1.48259 -4.290511,-2.68718 -6.439918,-4.0256 -2.563244,2.35301 -7.444873,2.47564 -12.6865635,-1.95285 -1.5289884,-1.29179 -3.0579094,-2.58381 -4.587317,-3.87522 z m -5.6554687,11.82305 c -0.00514,-0.1336 -0.010129,-0.26703 -0.01757,-0.40101 -0.014954,0.12729 -0.030398,0.24531 -0.039274,0.33073 0.020063,0.0265 0.037157,0.0448 0.056844,0.0703 z m -0.01757,-0.40101 c 0.017867,-0.15209 0.047427,-0.37978 0.078032,-0.61133 -0.031181,0.17625 -0.063682,0.33712 -0.097668,0.43563 -0.088243,0.25577 0.174244,-1.02888 0.1441773,-0.79892 0.072994,-0.52429 0.1473639,-1.15132 0.1612304,-1.2671 -0.054888,0.51784 -0.3297739,1.30408 -0.6630086,2.09806 0.1159437,0.16742 0.2320852,0.33425 0.3374471,0.47335 0.01213,-0.12096 0.021879,-0.24201 0.031006,-0.36328 0.00259,-0.0343 4.975e-4,-0.13775 0.00258,-0.10335 0.00282,0.0458 0.00366,0.0912 0.0062,0.13694 z m -0.3772379,-0.14366 c -0.190142,-0.27456 -0.3929515,-0.58288 -0.6128825,-0.93793 -0.263262,0.80018 -0.5741856,1.88598 -0.9570475,3.44682 -0.2824612,1.15153 0.8112121,-0.70113 1.56993,-2.50889 z m -0.6128825,-0.93793 c 0.061558,-0.1871 0.1240329,-0.37983 0.179834,-0.53278 -0.099269,0.11622 -0.1948667,0.23562 -0.2950725,0.35088 0.040845,0.0671 0.075403,0.11759 0.1152385,0.1819 z m 0.179834,-0.53278 c 0.3096664,-0.36255 0.61601,-0.72796 0.9069214,-1.10484 0.00897,-0.0298 0.017906,-0.0596 0.026872,-0.0894 -0.1562771,-0.24643 -0.4330748,-0.1782 -0.9337934,1.19424 z m 0.9069214,-1.10484 c -0.1395728,0.46387 -0.2790064,0.92776 -0.4185791,1.39164 0.1506939,-0.31959 0.3684189,-0.74882 0.5617228,-1.18494 -0.025617,-0.0944 -0.055204,-0.19001 -0.096635,-0.26613 -0.015293,0.0199 -0.031142,0.0395 -0.046509,0.0594 z m 0.1431437,0.2067 c 0.094817,0.34954 0.1042823,0.5541 0.137976,-0.32298 -0.043316,0.10859 -0.089721,0.21411 -0.137976,0.32298 z m 0.137976,-0.32298 c 0.068284,-0.17118 0.1299204,-0.33992 0.17621666,-0.50074 -0.0545101,0.0769 -0.11061033,0.15285 -0.1663981,0.22892 -0.00323,0.0883 -0.007065,0.20014 -0.009819,0.27182 z m 0.17621666,-0.50074 c 0.26038069,-0.3674 0.50388798,-0.74541 0.72760418,-1.13585 -0.66594197,-3.36791 -1.67959124,-6.68186 -1.67069904,-5.43791 0.014333,2.00514 0.89577937,3.92513 1.03869628,5.92522 0.0131802,0.18446 -0.0263239,0.40789 -0.0956014,0.64854 z M 63.468993,222.45722 c 0.54337,0.15986 1.084864,0.32746 1.632977,0.46974 0.123957,0.0322 -0.234945,-0.10196 -0.352433,-0.15296 -0.86637,-0.26323 -0.924126,-0.28979 -1.280544,-0.31678 z m 3.621485,1.20251 0.152445,0.0367 c -0.01119,-0.003 -0.03021,-0.0123 -0.03927,-0.0145 -0.03741,-0.009 -0.07562,-0.014 -0.113173,-0.0222 z m -68.5162307,10.29549 c -0.00413,0.0407 -0.0082,0.0763 -0.011369,0.10904 8.493e-4,-0.005 0.00226,-0.01 0.0031,-0.015 0.00518,-0.0311 0.00459,-0.0628 0.00827,-0.0941 z m 66.8450167,12.49795 c 0.06941,0.10181 0.318524,0.45581 0.830955,1.19631 0.184836,0.19188 0.314481,0.46 0.554488,0.57568 0.03022,0.0146 0.0612,0.0274 0.09147,0.0419 -0.74503,-0.80846 -1.646568,-2.0627 -1.476912,-1.81384 z m -68.1369275,6.75049 c -0.082905,0.42449 -0.1507471,0.75915 0,0.0346 4.763e-4,-0.0115 -4.233e-4,-0.0231 0,-0.0346 z m -2.907833,4.16047 c 0.3078612,0.13491 0.617909,0.26532 0.9281089,0.39481 -0.021154,-0.0117 -0.040659,-0.0263 -0.062012,-0.0377 -0.275472,-0.1468 -1.1519977,-0.48237 -0.8660972,-0.35709 z m 40.7448015,0.57413 v 5.3e-4 c -0.35592,-0.005 -0.552551,-0.003 -0.37569,5.3e-4 0.173704,0.004 0.34762,0.003 0.521417,0.004 -0.0425,-8e-4 -0.106775,-0.004 -0.145727,-0.005 z m 0.748789,0.0248 c 0.318183,0.1268 0.638662,0.24771 0.964801,0.35295 1.507093,-0.22795 0.173931,-0.31631 -0.964801,-0.35295 z m -38.0312694,0.22427 c 0.036897,-0.0135 -0.082245,0.006 -0.114205,0.0284 -0.00394,0.003 -0.013564,0.0101 -0.01757,0.0129 0.00522,7.9e-4 0.011332,0.002 0.016536,0.003 0.038305,-0.014 0.089264,-0.0344 0.1152384,-0.0439 z m 0.7265706,0.11214 c -0.049968,0.004 -0.099912,0.009 -0.1498617,0.0134 0.2194982,0.022 0.3858681,0.0333 0.4376994,0.0227 0.094687,-0.0194 -0.1919477,-0.0241 -0.2878377,-0.0362 z m 18.8329588,8.85373 c -0.336019,0.0478 -0.665918,0.15039 -0.994255,0.26355 h 1.419035 c -0.20431,-0.0143 -0.407786,-0.0402 -0.609782,-0.0878 -0.08046,-0.0275 0.269182,-0.18772 0.185002,-0.17571 z m 2.63033,0.17312 c -0.01837,0 -0.0369,0.003 -0.05529,0.003 0.115576,0.0461 0.12023,0.0565 0.181901,0.0879 h 0.157613 c 0.01822,-0.0358 0.16429,-0.0847 0.115238,-0.0873 -0.132638,-0.006 -0.265863,-0.006 -0.399459,-0.003 z m -0.268717,0.0124 c -0.386176,0.0206 -0.774965,0.0584 -1.16272,0.078 h 1.291911 c -0.041,-0.0292 -0.08945,-0.0469 -0.129191,-0.078 z" />
    </clipPath>
  </defs>
  <g
     inkscape:groupmode="layer"
     id="layer2"
     inkscape:label="Lamina Propria">
    <path
       style="fill:none;stroke:#000000;stroke-width:0.264583px;stroke-linecap:butt;stroke-linejoin:miter;stroke-opacity:1"
       d="m 2.5134129,102.44037 c 4.2578344,-0.22292 8.5292711,0.8333 12.7725901,0.0593 1.859093,-0.33911 3.543003,-1.27071 5.026568,-2.42122 2.113396,-1.638944 3.923036,-3.794282 6.448867,-4.795584 1.820856,-0.721832 3.850306,-0.580767 5.659742,-1.386194 1.826363,-0.812962 3.674405,-1.594718 5.404324,-2.596292 1.390591,-0.805113 2.212618,-2.357629 3.780141,-2.920153 2.680856,-0.962056 5.57398,-0.863093 8.37854,-0.987745 1.239883,-0.05511 2.500024,-0.108141 3.670554,-0.598258 1.619656,-0.678173 3.157909,-1.506434 4.853771,-2.054097 1.746706,-0.564083 2.758425,-2.325692 4.57133,-2.823155 1.47249,-0.404053 3.053694,-0.573078 4.342323,-1.486049 1.39595,-0.989006 2.683955,-2.291606 4.448867,-2.596916 5.497828,-0.951064 11.087704,-1.494734 16.669065,-1.314704 4.876107,0.157282 9.81215,0.916087 14.649925,-0.0069 1.17855,-0.224847 2.44218,-0.335064 3.47384,-0.952036 1.91024,-1.142392 3.6954,-2.482437 5.45904,-3.835961 2.14023,-1.642539 4.28423,-3.289955 6.27086,-5.119462 0.67804,-0.624415 1.01417,-1.506514 1.42953,-2.308088 1.41261,-2.726064 2.73899,-5.617683 5.08226,-7.691479 1.24113,-1.098401 2.62523,-2.081972 4.16898,-2.691156 1.4182,-0.559641 2.99557,-0.177301 4.30432,0.511785 1.98345,1.04433 3.65055,2.674539 5.84695,3.318659 2.41203,0.707356 4.88788,1.340875 7.41053,1.381482 0.91912,0.01479 1.85536,-0.138855 2.65276,-0.667236 5.07046,-3.35983 9.44681,-7.89856 15.09889,-10.253002 0.72538,-0.302166 1.38624,-0.729976 1.93512,-1.302619 0.67875,-0.708138 1.41994,-1.386303 2.40523,-1.674009 1.16346,-0.339731 2.56635,-0.183938 3.50957,-0.985011 0.5929,-0.503549 1.17416,-1.003271 2.01653,-1.124143 4.96108,-0.711871 9.99448,0.692001 14.93259,-0.199774 3.22046,-0.581584 6.18213,-2.318806 9.50753,-2.361151 1.07903,-0.01374 2.14462,-0.15329 3.20463,-0.396709 1.21828,-0.279764 2.48554,-0.489391 3.53838,-1.240663 1.90232,-1.35743 3.21085,-3.507012 5.42547,-4.422413 1.75771,-0.72654 3.81082,-0.375612 5.39208,0.651881 1.67936,1.09124 3.10015,2.533773 4.87484,3.497656 2.2069,1.198629 4.62051,2.16369 6.36286,4.066432 1.64986,1.80174 2.73833,4.100116 4.61713,5.678695 2.01177,1.690305 4.48665,2.653301 6.74172,3.959871 1.75867,1.018959 3.09404,2.578042 4.62969,3.880315 1.50227,1.273964 3.26429,2.550474 5.31873,2.541378 2.09695,-0.0093 3.98047,-1.238272 5.35202,-2.716134 1.62957,-1.755879 2.80565,-3.861311 4.09937,-5.8624 1.46306,-2.263026 2.91455,-4.599423 4.95309,-6.398575 1.0763,-0.94991 2.48757,-1.646517 3.96264,-1.471381 0.82257,0.09766 1.68051,0.02294 2.40984,-0.425258 1.18243,-0.726645 2.15383,-1.952052 3.62025,-2.094382 1.39055,-0.134966 2.80255,-0.757753 4.18322,-0.408297 2.16307,0.547485 3.95137,1.979938 5.60581,3.412746 2.77206,2.400715 5.45135,4.891478 8.09803,7.439323 0.51044,0.491379 1.16681,0.730227 1.88325,0.56632 0.9649,-0.220748 1.92348,0.134576 2.83293,0.415966 4.16125,1.287511 8.07511,3.261762 12.27561,4.441616 1.1236,0.315601 2.2916,0.319837 3.45185,0.361593 1.77725,0.06396 3.68978,0.223154 5.1591,1.337462 0.83589,0.633927 1.15746,1.672586 1.34208,2.673319 0.45823,2.483829 1.03678,4.999038 0.81472,7.543242 -0.18123,2.076411 -1.6452,3.78255 -3.31813,4.891594 -2.6703,1.770239 -5.86962,2.606468 -9.03159,2.841985 -2.61996,0.195146 -5.3464,0.123902 -7.81753,-0.841733 -1.53528,-0.599935 -2.98359,-1.616788 -3.72615,-3.132547 -0.33395,-0.681681 -0.702,-1.36502 -1.37175,-1.795519 -1.88712,-1.212998 -4.13958,-1.58541 -6.13339,-2.595919 -2.75221,-1.394883 -5.58575,-2.810306 -8.67373,-3.262963 -1.81083,-0.265444 -3.83057,0.05344 -5.18633,1.402806 -1.0694,1.064356 -1.46152,2.553154 -2.09054,3.879308 -1.64318,3.464319 -4.0014,6.603486 -6.98255,9.028814 -1.74471,1.419416 -3.5659,2.819697 -5.64076,3.686808 -1.96905,0.822893 -4.15464,0.584511 -6.22594,0.46555 -1.53697,-0.08827 -3.08099,-0.0055 -4.59576,0.343675 -5.33934,1.230804 -10.88307,1.264499 -16.17501,2.782365 -2.26754,0.650389 -4.45842,1.628577 -6.79162,1.995165 -2.14261,0.336643 -4.3777,-0.404043 -6.4659,0.310028 -2.43702,0.833351 -4.3935,2.795029 -6.9648,3.258486 -2.80782,0.506088 -5.67619,-0.570081 -8.46336,0.152271 -1.2495,0.323834 -2.06956,1.468347 -3.25084,1.90188 -1.66445,0.610859 -3.46847,0.645614 -5.22031,0.704576 -1.6182,0.05446 -3.24092,-0.106727 -4.85517,0.0016 -1.06341,0.07139 -2.22107,0.350386 -3.21427,-0.221143 -2.71241,-1.560828 -5.06961,-3.739044 -7.97922,-4.943862 -1.05413,-0.436497 -2.35927,-0.981799 -3.40701,-0.382529 -0.93894,0.537039 -1.17038,1.676071 -1.84905,2.464912 -1.8061,2.099289 -3.08856,4.655265 -3.57409,7.392602 -0.43152,2.432832 -0.52016,4.919272 -0.41416,7.379982 0.0558,1.29603 0.48812,2.67945 0.0182,3.89795 -0.26448,0.68584 -1.21967,0.74282 -1.85509,0.9365 -4.54061,1.38399 -9.35056,1.34571 -14.0486,1.20214 -5.60491,-0.17128 -11.26806,-0.81461 -16.83353,0.0899 -1.47272,0.23934 -2.98427,0.50004 -4.28487,1.29729 -2.07755,1.27351 -3.63754,3.38514 -6.00675,4.15252 -2.86026,0.92643 -6.09233,0.0606 -8.81488,1.39431 -2.41391,1.18252 -4.60686,2.75802 -6.84547,4.23457 -1.93381,1.27551 -3.82808,2.68023 -5.98707,3.53627 -1.75997,0.69783 -3.79632,0.6375 -5.408714,1.6936 -1.974686,1.2934 -2.451894,4.05617 -4.452632,5.22951 -0.911549,0.53458 -2.023366,0.40598 -3.036895,0.44505 -0.977565,0.0377 -2.188785,-0.18949 -2.909547,0.52484 -0.841639,0.83413 -1.168304,2.81184 -2.342436,2.66907 -0.965359,-0.11738 -1.623812,-0.92174 -2.278066,-1.5575 -0.51038,-0.49595 -1.113377,-0.87634 -1.81519,-1.08282 -3.003986,-0.8838 -5.570602,-3.00111 -8.726631,-3.3927 -4.845767,-0.60124 -9.781921,-0.4866 -14.594506,0.30167 -2.351081,0.38509 -4.667496,1.13681 -7.076626,1.0131"
       id="path55"
       inkscape:path-effect="#path-effect57"
       inkscape:original-d="m 2.5134129,102.44037 c 4.7997145,-0.26768 10.2821021,1.32506 14.8693631,-0.57251 3.372742,-1.39517 5.755614,-4.839607 9.044257,-6.436566 1.76829,-0.858679 3.788502,-0.600242 5.643993,-1.383718 1.87274,-0.790758 3.658272,-1.816828 5.508393,-2.624974 1.3366,-0.583837 2.268783,-2.303864 3.661976,-2.896986 3.06429,-1.304557 7.280971,-0.945004 10.612699,-1.244015 2.146541,-0.192643 4.233233,-2.041168 6.426525,-2.484353 1.640608,-0.331507 2.840943,-2.307209 4.406861,-2.770873 1.034698,-0.306371 2.17184,-0.485134 3.179278,-0.795332 2.11165,-0.650192 3.457461,-2.942555 5.893654,-3.37738 4.714846,-0.841531 10.053027,-1.371467 14.994472,-1.366557 6.619571,0.0066 13.291956,1.420434 19.674066,-0.817128 1.2508,-0.438526 11.7516,-8.369258 12.46514,-9.64478 2.8355,-5.068652 3.7651,-8.812601 9.53912,-11.826282 3.96454,-2.069248 6.89027,2.139768 10.05921,3.302056 1.71932,0.630608 8.51751,2.440321 10.4216,1.203886 5.34541,-3.471069 10.20926,-8.103725 16.09054,-10.789261 1.1176,-0.510326 1.89462,-1.861553 2.89538,-2.37743 1.12467,-0.579742 2.98286,-0.574127 4.14395,-1.172366 0.51443,-0.265054 1.05095,-1.052322 1.64118,-1.155467 4.85613,-0.84863 9.77547,0.374563 14.6691,-0.16795 3.25588,-0.360949 6.1992,-2.109755 9.41595,-2.428285 1.21698,-0.120507 2.5127,0.0087 3.69057,-0.337182 0.86987,-0.255415 2.21274,-0.423561 3.00445,-0.786659 2.7198,-1.247373 4.30599,-4.873265 7.64084,-5.32619 3.08697,-0.419256 4.7882,1.463903 7.10839,3.260797 2.392,1.852504 5.58854,2.624455 7.71614,4.704834 1.76392,1.724776 3.03662,4.042132 4.69327,5.798441 2.15326,2.282778 6.5566,3.461891 9.14398,5.83673 4.07617,3.741319 7.58471,7.714565 13.14656,2.527088 3.36759,-3.140911 7.33774,-13.44645 12.30334,-13.972854 0.75806,-0.08036 1.58927,0.14488 2.33606,0 1.66539,-0.323088 2.74317,-2.331593 4.64357,-2.511576 1.10252,-0.104415 3.09978,-0.657146 4.18322,-0.408297 4.70752,1.081217 10.08796,8.484954 14.42437,11.363094 0.47001,0.311955 1.52564,-0.109482 2.12011,0 4.6355,0.853705 12.4914,5.263219 16.54077,5.263219 2.66795,0 6.86678,0.107355 7.46866,3.506311 0.46712,2.638034 1.60628,7.157196 0.50892,9.64837 -2.64573,6.006166 -14.69678,7.50819 -20.02115,5.196893 -3.62781,-1.574837 -3.3754,-3.62036 -4.37891,-4.473401 -1.55821,-1.32458 -4.17044,-1.714772 -6.01734,-2.649246 -3.89834,-1.97245 -12.88661,-6.968974 -15.65058,-0.254 -2.77513,6.742134 -6.63255,10.935277 -13.07361,14.481836 -2.99504,1.649124 -7.41534,0.06011 -10.68174,0.882492 -4.85662,1.22275 -9.96826,1.232146 -14.79991,2.395675 -2.78154,0.669835 -5.49281,1.722924 -8.22542,2.416127 -2.14031,0.542946 -4.85614,-0.27972 -6.87967,0.380987 -2.09005,0.682421 -3.94505,2.272752 -6.08719,3.032672 -2.91867,1.035397 -6.36795,-0.360598 -9.33471,0.383019 -1.11996,0.280718 -1.91558,1.044284 -2.83816,1.661094 -1.89223,1.265084 -7.99763,0.951444 -10.13934,0.951444 -0.86698,0 -2.44479,0.376571 -3.27124,0 -2.67171,-1.21735 -8.49977,-6.649706 -11.6147,-5.59427 -0.93396,0.316455 -1.1908,1.573823 -1.83443,2.320933 -3.94138,4.575048 -4.18549,8.494074 -4.18549,14.61643 0,0.63145 0.37742,4.38493 -0.15406,4.60443 -9.93647,4.10368 -24.1873,-0.21902 -34.84923,2.33405 -3.15762,0.75611 -5.09583,4.10741 -8.13375,5.05405 -2.8596,0.89106 -6.55218,0.18175 -9.17757,1.58797 -4.08764,2.18943 -7.67912,5.22179 -11.81642,7.30472 -1.75249,0.8823 -4.27763,0.87907 -5.82645,1.85896 -2.027386,1.28266 -2.746772,3.74917 -4.433824,5.20378 -1.139158,0.98219 -4.398555,0.0939 -5.978506,0.99494 -0.329531,0.18794 -2.360316,2.73276 -2.423264,2.73073 -1.255868,-0.0406 -2.48685,-2.23033 -3.73672,-2.5438 -3.051226,-0.76526 -5.869342,-3.07029 -9.083167,-3.48922 -4.544735,-0.59241 -9.822167,-0.42241 -14.358909,0.26471 -2.523979,0.38227 -4.689094,1.1624 -7.312223,1.05006" />
    <path
       style="fill:none;stroke:#000000;stroke-width:0.264583px;stroke-linecap:butt;stroke-linejoin:miter;stroke-opacity:1"
       d="m 52.125625,131.88426 c 0.384842,0.0771 0.744475,0.24183 1.101194,0.40013 0.455479,0.20213 0.89948,0.44151 1.382075,0.57174 0.204229,0.0551 0.425319,0.10441 0.634117,0.0423 0.144983,-0.0431 0.240944,-0.17656 0.281266,-0.31859 0.04704,-0.16569 0.04027,-0.36344 -0.08052,-0.4973 -0.1418,-0.15715 -0.357118,-0.21815 -0.558766,-0.24963 -0.442859,-0.0691 -0.893332,-0.0414 -1.33863,-0.016 -0.473203,0.0271 -0.946309,0.0849 -1.420734,0.0673 -1.638028,-0.0607 -3.286209,-0.0918 -4.91554,0.11869 -1.294976,0.16731 -2.576728,0.52146 -3.728882,1.14745 -1.168554,0.6349 -2.174047,1.54348 -2.992359,2.58566 -0.396129,0.5045 -0.779217,1.02502 -1.068666,1.59986 -0.501472,0.99591 -0.801524,2.07938 -1.021953,3.16809 -0.215162,1.06269 -0.366298,2.13739 -0.488073,3.21423 -0.156295,1.3821 -0.09166,2.79148 0.224417,4.14813 0.337094,1.44684 0.960635,2.80633 1.645419,4.11786 0.690234,1.32197 1.463699,2.6028 2.0752,3.96372 0.398648,0.88721 0.607779,1.84673 0.740554,2.806 0.272715,1.97031 0.245359,3.96511 0.242792,5.94934"
       id="path59"
       inkscape:path-effect="#path-effect61"
       inkscape:original-d="m 52.125625,131.88426 c 1.137701,0.21066 3.202438,1.76968 3.413096,0.63198 0.210659,-1.1377 -2.256946,-0.58668 -3.413096,-0.63198 -5.49145,-0.21512 -9.171355,0.19194 -12.260339,4.69589 -1.25994,1.83707 -1.641006,4.65 -1.926309,6.89546 -0.662477,5.21396 1.735804,7.98649 3.850439,12.33247 1.146643,2.35657 1.049118,6.2982 1.049118,8.89521" />
    <path
       style="fill:none;stroke:#000000;stroke-width:0.264583px;stroke-linecap:butt;stroke-linejoin:miter;stroke-opacity:1"
       d="m 32.444258,207.96502 c 0.114415,2.55711 0.269893,5.13675 0.926903,7.62234 0.49977,1.89072 1.324993,3.71002 2.527656,5.25605 0.37418,0.48101 0.745868,0.97196 1.198219,1.38267 0.867683,0.7878 1.927295,1.30979 2.925844,1.90587 0.42337,0.25273 0.810592,0.55888 1.214742,0.84181 0.468431,0.32793 1.034288,0.46888 1.581371,0.6037 0.862919,0.21265 1.756562,0.35953 2.558252,0.76133 0.408846,0.20491 0.770286,0.5116 1.0069,0.90788 0.413941,0.69327 0.73519,1.43641 1.067985,2.17058 0.43748,0.96511 0.814942,1.96131 1.333881,2.88603 0.139701,0.24894 0.285138,0.50267 0.518555,0.6816 0.666469,0.51089 1.506581,0.7064 2.32119,0.83165 1.016848,0.15635 2.063161,0.21134 3.034733,0.58261 0.410877,0.15701 0.771125,0.41547 1.104431,0.69933 0.595545,0.5072 1.13729,1.0801 1.786571,1.52348 0.311679,0.21284 0.687493,0.284 1.048648,0.36479 0.88745,0.19853 1.826668,0.282 2.635323,0.71939 0.706254,0.382 1.348973,0.86774 1.996629,1.33925 0.879618,0.64038 1.776042,1.28153 2.795575,1.68502 1.648457,0.6524 3.404795,0.94823 5.122502,1.35615 0.907654,0.21555 1.833242,0.40687 2.684151,0.79321 0.839801,0.3813 1.505648,1.09642 2.396254,1.36376 0.42988,0.12904 0.877926,0.18653 1.323171,0.23223 1.247647,0.12806 2.524748,0.10362 3.736346,0.46804 1.528515,0.45974 2.954087,1.20188 4.324529,2.00925 0.909442,0.53578 1.772869,1.14498 2.66882,1.70232 1.171194,0.72856 2.509421,1.11164 3.817801,1.50959 1.51143,0.45971 3.024412,0.98116 4.367756,1.83078 0.351323,0.2222 0.68981,0.46476 1.012305,0.72708"
       id="path63"
       inkscape:path-effect="#path-effect65"
       inkscape:original-d="m 32.444258,207.96502 c 0.230831,5.3568 0.685734,9.89388 4.323866,13.93033 1.151562,1.27764 3.113167,1.96337 4.387887,3.0153 1.119442,0.92379 4.027114,0.70908 5.082701,2.1199 0.782897,1.04637 2.359557,5.35665 2.932885,5.84688 1.594864,1.36372 4.159756,0.72585 5.942418,1.73994 0.875294,0.49793 2.004584,1.96 2.891303,2.22008 1.053679,0.30905 2.428078,0.39817 3.391823,0.95612 1.407316,0.81477 2.811894,2.14173 4.285917,2.79205 2.419895,1.06763 5.513676,1.29802 8.003749,2.23358 0.898707,0.33766 1.804037,1.27432 2.768825,1.48674 1.572246,0.34616 3.225577,0.16614 4.807248,0.62983 2.321148,0.68048 4.831408,2.25279 6.841191,3.60322 2.523599,1.69568 6.230451,1.62483 9.37723,4.18382"
       clip-path="url(#clipPath177)" />
    <path
       style="fill:none;stroke:#000000;stroke-width:0.264583px;stroke-linecap:butt;stroke-linejoin:miter;stroke-opacity:1"
       d="m 32.444258,207.96502 c -0.240294,1.69106 0.01063,3.52804 -0.720637,5.07368 -0.04276,0.0904 -0.164017,0.0735 -0.243472,0.056 -0.328556,-0.0724 -0.634277,-0.22162 -0.932315,-0.37283 -0.997876,-0.50627 -1.951604,-1.09383 -2.903556,-1.68045 -0.739358,-0.45561 -1.444944,-0.96783 -2.20624,-1.38571 -0.397045,-0.21794 -0.807748,-0.41054 -1.217682,-0.60289 -1.547954,-0.72633 -3.157413,-1.32218 -4.662615,-2.13866 -1.126204,-0.6109 -2.169948,-1.37996 -3.056607,-2.30764 -0.450222,-0.47105 -0.855118,-0.98234 -1.292133,-1.46546 -0.95959,-1.06083 -1.997536,-2.07724 -3.231463,-2.81727 -0.891387,-0.5346 -1.850771,-0.94086 -2.7649141,-1.43333 -0.7391578,-0.3982 -1.4757554,-0.81004 -2.1502064,-1.31019 -0.5999087,-0.44487 -1.0809356,-1.025 -1.5393934,-1.60881 -0.5225637,-0.66544 -0.9945226,-1.37276 -1.567684,-1.99675 -0.8175595,-0.89006 -1.8778517,-1.51628 -2.97393647,-2.00159 -1.88067704,-0.83271 -3.88885783,-1.30655 -5.84743053,-1.91248 -0.4788358,-0.14814 -0.9491041,-0.32265 -1.4086164,-0.52333 -0.8656456,-0.37804 -1.7128123,-0.82737 -2.6425277,-1.02936 -0.2931992,-0.0637 -0.5927763,-0.10061 -0.893037,-0.10048"
       id="path67"
       inkscape:path-effect="#path-effect69"
       inkscape:original-d="m 32.444258,207.96502 c -0.238786,1.6861 -0.380502,3.38884 -0.716356,5.05832 -0.138968,0.69079 -5.898148,-3.17016 -6.380393,-3.41903 -3.619701,-1.86798 -6.69093,-2.41164 -9.349774,-5.55818 -3.951453,-4.67623 -4.73244,-3.64501 -8.8091467,-6.37737 -1.2031017,-0.80637 -2.2104686,-2.54921 -3.1820339,-3.63739 -2.1690344,-2.42937 -6.4085109,-3.11764 -9.4127234,-4.14884 -1.4662584,-0.50329 -2.8498085,-1.47502 -4.404039,-1.47502"
       clip-path="url(#clipPath475)" />
    <path
       style="fill:none;stroke:#000000;stroke-width:0.264583px;stroke-linecap:butt;stroke-linejoin:miter;stroke-opacity:1"
       d="m 97.481299,252.72281 c -0.08855,0.51115 -0.197141,1.01854 -0.306639,1.52551 -0.212413,0.98346 -0.427624,1.96672 -0.600714,2.95805 -0.155425,0.89016 -0.28184,1.78682 -0.335081,2.68936 -0.03898,0.66075 -0.04148,1.32552 0.03086,1.9841 0.05844,0.53205 0.165119,1.0617 0.355337,1.56317 0.158621,0.41817 0.374706,0.81964 0.672538,1.15477 0.09157,0.10304 0.178287,0.21499 0.291655,0.29381 0.0584,0.0406 0.123798,0.0698 0.189419,0.0965 0.165059,0.0671 0.335305,0.12044 0.506225,0.17024 0.368935,0.10749 0.742127,0.19972 1.116372,0.28662 0.500885,0.11631 1.00337,0.22607 1.50824,0.32358 0.0986,0.019 0.19712,0.039 0.29624,0.0554 0,0 0.009,8.5e-4 0.009,8.5e-4 -1.1933,-4.38178 -2.489104,-8.73465 -3.733647,-13.10194 0,0 -4e-6,0 -4e-6,0 z"
       id="path71"
       inkscape:path-effect="#path-effect73"
       inkscape:original-d="m 97.481299,252.72281 c -0.524542,3.05495 -2.619772,9.68933 0.08394,12.14958 0.35311,0.32131 3.652721,0.96342 3.649711,0.95236 -1.19325,-4.38161 -2.489097,-8.73463 -3.733647,-13.10194"
       clip-path="url(#clipPath187)" />
    <path
       style="fill:none;stroke:#000000;stroke-width:0.264583px;stroke-linecap:butt;stroke-linejoin:miter;stroke-opacity:1"
       d="m 97.481299,252.72281 c 0.26509,0.27882 0.494467,0.59219 0.674664,0.93238 0.173162,0.32691 0.298851,0.67812 0.380174,1.0388 0.09269,0.41108 0.128284,0.83343 0.126912,1.25431 -0.0016,0.49064 -0.05165,0.9798 -0.121718,1.46498 -0.123317,0.85386 -0.309807,1.69708 -0.437035,2.55028 -0.06885,0.4617 -0.121169,0.9269 -0.128498,1.39403 -0.0064,0.40495 0.02218,0.8119 0.107411,1.20843 0.02476,0.11519 0.05443,0.22942 0.09171,0.34125 0.08101,0.24301 0.193963,0.47416 0.321055,0.69614 0.229994,0.4017 0.505033,0.77525 0.741181,1.17318 0.06647,0.112 0.131809,0.22494 0.187887,0.3425 0.02726,0.0571 0.04399,0.11868 0.05669,0.18048 0.02276,0.11077 0.03402,0.22361 0.04023,0.33641 0.0091,0.16577 0.0086,0.33206 -9.65e-4,0.49778 -0.0055,0.0966 -0.01082,0.19362 -0.02775,0.28894 -0.0072,0.0406 -0.0077,0.085 -0.02954,0.12045 -0.0031,0.005 -0.0078,0.0156 -0.01439,0.0111 -0.01142,-0.008 -0.01429,-0.0231 -0.01719,-0.0357 -0.01199,-0.0521 -0.01724,-0.10545 -0.0248,-0.15829 -0.650381,-4.54464 -1.283955,-9.09166 -1.926033,-13.63748 z"
       id="path79"
       inkscape:path-effect="#path-effect81"
       inkscape:original-d="m 97.481299,252.72281 c 2.679081,2.82214 -0.146796,6.90555 0.635995,9.98844 0.227197,0.89477 0.897982,1.58736 1.305404,2.40307 0.20157,0.40357 0.06393,1.79986 0,1.35332 -0.65577,-4.58039 -1.294265,-9.16322 -1.941399,-13.74483"
       clip-path="url(#clipPath198)" />
    <path
       style="fill:none;stroke:#000000;stroke-width:0.264583px;stroke-linecap:butt;stroke-linejoin:miter;stroke-opacity:1"
       d="M 98.683028,267.28438 C 98.28244,262.43064 97.881852,257.5769 97.481264,252.72316"
       id="path83"
       inkscape:path-effect="#path-effect85"
       inkscape:original-d="M 98.683028,267.28438 97.481264,252.72316"
       clip-path="url(#clipPath208)" />
    <path
       style="fill:none;stroke:#000000;stroke-width:0.264583px;stroke-linecap:butt;stroke-linejoin:miter;stroke-opacity:1"
       d="m 1.521871,191.97432 c -0.4966933,-0.28026 -0.9288342,-0.77869 -1.49774319,-0.82949 -0.24087137,-0.0215 0.08922571,0.31637 0.1586712,0.40693 0.66157363,0.86275 1.32024399,1.81019 1.46500079,2.91164 0.060296,0.45879 0.019903,0.92198 0.00873,1.38267 -0.5521892,22.77134 -24.4231944,67.59324 -1.6565674,68.31403 32.894355,1.04143 65.788709,2.08285 98.683064,3.12428"
       id="path194"
       inkscape:path-effect="#path-effect196"
       inkscape:original-d="m 1.521871,191.97432 c -3.7000315,-2.17221 0.200062,0.21873 0.156581,2.96778 l -1.678488,69.218 98.683064,3.12428"
       clip-path="url(#clipPath218)" />
    <path
       style="fill:none;stroke:#000000;stroke-width:0.264583px;stroke-linecap:butt;stroke-linejoin:miter;stroke-opacity:1"
       d="m 137.67826,229.65948 c 3.06001,-1.32895 5.51445,-3.7989 8.66009,-4.92272 1.63754,-0.58503 3.40582,-0.38468 5.11092,-0.43738 0.63539,-0.0196 1.30427,0.0639 1.90587,-0.15298 1.79858,-0.6484 3.57239,-1.3758 5.2859,-2.22165 0.66713,-0.32932 1.35249,-0.63013 1.93091,-1.12194 0.79319,-0.67442 1.36839,-1.78196 2.38235,-2.02142 0.71422,-0.16867 1.38313,-0.50731 1.95896,-0.96892 2.03317,-1.62987 3.22606,-4.01356 5.10282,-5.80153 1.35762,-1.29339 2.74909,-2.54823 4.05937,-3.89461 0.64851,-0.66638 1.56199,-1.19637 1.82549,-2.11786 0.13158,-0.46016 0.60401,-0.51098 0.97432,-0.68236 0.9385,-0.43434 1.56055,-1.29112 2.32097,-1.95898 1.92602,-1.69158 4.06955,-3.1059 6.12686,-4.62815 4.16288,-3.0802 8.40414,-6.05455 12.85749,-8.72306 1.53124,-0.91754 2.40222,-2.53709 3.33317,-3.99454 0.79594,-1.24609 1.78728,-2.49282 3.2288,-3.01081 1.04609,-0.3759 2.25986,-0.40346 3.25698,0.15767 0.80567,0.45339 1.46349,1.53806 2.38783,1.41313 0.40605,-0.0549 0.78341,0.003 1.17293,0.18032 1.36716,0.62408 2.53783,1.75531 4.06878,1.95216 0.78286,0.10066 1.57056,0.17555 2.3246,0.44633 1.09888,0.39462 2.06034,1.09109 3.13629,1.53258 1.37507,0.56423 2.83513,0.89091 4.28994,1.17031 1.70518,0.32748 3.42687,0.75169 5.16584,0.67564 1.77565,-0.0776 3.4294,-0.96316 5.19203,-1.05199 0.47802,-0.0241 0.88509,-0.25997 1.25487,-0.55176 1.73722,-1.3708 3.34893,-2.89465 4.90954,-4.46024 1.37308,-1.37746 2.66437,-2.83289 3.97423,-4.27459 0.28653,-0.31537 0.37442,-0.73301 0.54355,-1.11108 0.43583,-0.97425 1.23083,-1.86254 1.20005,-2.97777 -0.0236,-0.85626 0.51103,-1.78473 0.14407,-2.5583 -0.13082,-0.27577 -0.005,-0.34873 0.23272,-0.18053 0.84686,0.59829 1.18847,1.64125 1.48344,2.58763 0.38876,1.24729 0.50655,2.6167 1.20916,3.73415 0.53542,0.85155 1.24687,1.60562 2.07736,2.15896 1.13615,0.75699 2.51023,1.05782 3.84426,1.21304 1.40961,0.16401 2.8679,0.29697 4.25524,-0.0359 1.00077,-0.24011 1.92561,-0.74608 2.97448,-0.82052 1.57065,-0.11147 3.16322,0.006 4.7099,-0.40255 0.98287,-0.25953 1.91657,-0.72481 2.92854,-0.85136 0.92854,-0.11612 1.958,0.11504 2.79134,-0.33754 0.63913,-0.34711 1.16993,-0.86558 1.68218,-1.3746 0.70152,-0.69709 1.46412,-1.32538 2.24662,-1.93033 3.76273,-2.90895 7.54654,-5.86456 11.84584,-7.96089 0.64028,-0.3122 1.29995,-0.57495 1.90516,-0.96363 0.50935,-0.32712 1.03855,-0.6308 1.64611,-0.76118 2.46094,-0.52811 4.96733,-0.78403 7.47019,-1.0483 1.36761,-0.1444 2.78829,-0.60528 4.1413,-0.1384 1.06768,0.36842 1.90706,1.30893 2.12974,2.42351 0.31157,1.55953 -0.10614,3.14141 -0.51653,4.63982 -0.24347,0.88895 -0.47606,1.78942 -0.47144,2.72163 0.005,0.90881 0.0495,1.81523 0.0113,2.72563 -0.0177,0.42196 0.0489,0.83756 0.25326,1.22577 1.56806,2.978 4.03714,5.32888 5.81876,8.16846 1.12078,1.78632 2.10506,3.75285 3.78965,5.07943 2.0232,1.59323 4.64204,2.16244 7.16757,2.28894 1.7832,0.0893 3.56104,-0.11937 5.33956,-0.21673 1.83503,-0.10045 3.73428,0.21246 5.50997,-0.33759 0.94126,-0.29157 1.95612,-0.53824 2.71459,-1.17924 1.58827,-1.34229 2.95943,-2.98368 4.84253,-3.94882 0.66352,-0.34007 1.40917,-0.47189 2.09151,-0.76216 0.51349,-0.21844 1.09301,-0.633 1.65866,-0.33425 1.2629,0.66699 2.15792,1.81477 3.1531,2.80444 0.63413,0.63062 1.19136,1.38589 1.35093,2.29341 0.0861,0.48955 0.27718,1.02052 0.10118,1.4842 -0.17983,0.47378 -0.64949,0.7892 -1.17181,0.77594 -0.66948,-0.017 -1.35984,-0.44483 -2.00788,-0.1517 -1.44804,0.655 -2.64785,1.82463 -4.24552,2.16022 -2.15411,0.45247 -4.3798,0.58131 -6.48143,1.2727 -0.9555,0.31434 -1.70453,1.01903 -2.46633,1.64399 -0.93429,0.76646 -1.71721,1.76128 -2.79182,2.31484 -0.8242,0.42457 -1.90164,-0.0662 -2.64009,0.54448 -0.67919,0.56163 -1.1097,1.37966 -1.37787,2.20448 -0.67141,2.0651 -0.54871,4.28363 -0.29559,6.41193 0.10314,0.86724 0.29118,1.71864 0.31662,2.5989 0.0215,0.74234 -0.0687,1.66732 0.54065,2.17685 1.39711,1.16823 3.05165,2.08029 4.18285,3.52153 0.247,0.3147 0.73745,0.73881 0.50005,1.11586 -0.23589,0.37465 -0.74825,0.42645 -1.14836,0.49811 -1.47932,0.26495 -2.93095,-0.31494 -4.24684,-0.92709 -1.26836,-0.59004 -2.56309,-1.1701 -3.96518,-1.36399 -1.69314,-0.23414 -3.40439,-0.23764 -5.10659,-0.38371 -3.222,-0.27648 -6.48169,-0.15605 -9.67936,-0.63496 -1.38746,-0.2078 -2.80179,-0.52447 -4.20904,-0.2937 -0.57579,0.0944 -1.14126,0.46742 -1.27147,1.08812 -0.73324,3.49516 -0.86374,7.12635 -0.32905,10.65506 0.21724,1.43367 -0.008,2.96038 0.50297,4.32145 0.30171,0.80403 0.81274,1.50915 1.26002,2.2369 0.71704,1.16668 1.31183,2.40747 2.07584,3.54924 0.23398,0.34967 0.0977,0.67352 -0.37482,0.7233 -1.07976,0.11375 -2.03764,-0.56593 -2.78984,-1.25282 -0.59603,-0.54428 -1.23965,-1.03952 -1.79754,-1.6225 -1.24194,-1.29779 -2.09492,-2.94227 -3.57129,-4.03254 -2.77002,-2.04559 -5.25495,-4.52831 -8.3334,-6.11363 -0.82424,-0.42446 -1.66666,-0.92355 -2.59746,-1.00653 -0.76527,-0.0682 -1.53383,0.0561 -2.29942,-0.0888 -1.15958,-0.21949 -2.30213,-0.53431 -3.49054,-0.59714 -1.74828,-0.0924 -3.54925,-0.16923 -5.24243,0.35631 -0.91506,0.28402 -1.77023,0.91106 -2.09653,1.85588 -0.39792,1.1522 -0.25032,2.43498 -0.84873,3.53878 -0.64141,1.18311 -1.12881,2.43387 -1.66119,3.6775 -0.42716,0.99784 -1.60818,1.58585 -1.78913,2.66816 -0.12379,0.74042 0.0979,1.50059 0.0127,2.24172 -0.0418,0.36352 0.19165,0.93359 -0.25135,1.10309 -0.85315,0.32643 -1.80254,0.42181 -2.69679,0.27764 -1.91341,-0.30847 -3.52179,-1.53943 -4.85127,-2.88193 -2.0139,-2.03362 -3.56493,-4.45661 -5.37651,-6.66002 -0.58501,-0.71154 -1.26489,-1.35221 -2.08469,-1.79229 -0.67394,-0.36178 -1.31619,-0.79668 -1.80042,-1.40584 -1.31715,-1.65697 -2.25925,-3.57532 -2.97101,-5.54597 -0.13922,-0.38546 -0.20052,-0.8074 -0.5473,-1.09812 -1.22633,-1.02809 -2.75692,-1.55659 -4.17929,-2.24512 -1.11861,-0.54149 -2.40697,-0.26786 -3.53851,0.0962 -1.15202,0.37068 -2.2339,1.01515 -3.44684,1.14796 -1.62401,0.17782 -3.25151,0.25381 -4.88821,0.2688 -0.4336,0.004 -0.62015,0.41009 -0.82598,0.7241 -0.53578,0.81738 -0.87348,1.83177 -1.65837,2.42367 -0.73035,0.55077 -1.61316,0.84483 -2.4412,1.2165 -0.69109,0.3102 -1.59602,0.36143 -2.06404,0.96252 -1.14367,1.46886 -2.40396,2.93434 -4.10451,3.78043 -1.46463,0.72871 -3.12995,0.88995 -4.74489,0.85019 -0.90456,-0.0223 -1.86295,0.16411 -2.71156,-0.14828 -0.36673,-0.135 -0.81783,-0.51047 -1.16856,-0.10612 -0.32545,0.37521 -0.50123,0.9038 -1.01194,1.09506 -1.01323,0.37945 -2.14568,0.27225 -3.17178,0.0126 -0.76753,-0.19423 -1.59776,-0.53918 -1.94642,-1.31338 -0.47517,-1.05513 -0.38429,-2.24772 -0.35449,-3.3753 0.0248,-0.93672 0.2171,-1.90678 -0.0554,-2.81644 -0.23874,-0.7968 -0.71108,-1.49086 -0.94987,-2.29439 -0.49095,-1.65203 -1.44711,-3.20092 -2.87322,-4.20532 -1.51908,-1.06988 -3.32138,-1.65647 -5.1171,-2.04754 -2.73647,-0.59594 -5.52912,-0.044 -8.28992,-0.0339 -1.69776,0.006 -3.40395,-0.78899 -5.07475,-0.31988 -1.32125,0.37097 -2.59902,0.89492 -3.82415,1.50732 -0.9003,0.45003 -1.82691,0.89834 -2.53277,1.65229 -0.55055,0.58806 -0.73362,1.38591 -0.94534,2.1418 -0.1518,0.54196 -0.34665,1.19672 -0.87231,1.44914 -1.09029,0.52355 -2.32091,0.59099 -3.4694,0.93688 -2.75986,0.83119 -5.396,2.05415 -7.80534,3.6973 -0.38376,0.26172 -0.52783,0.70438 -0.64223,1.14533 -0.21328,0.82206 -0.8487,1.4414 -1.44,2.0095 -1.11147,1.06786 -2.27212,2.11878 -3.61714,2.87821 -0.0802,0.0453 -0.16161,0.0887 -0.24513,0.12771"
       id="path243"
       inkscape:path-effect="#path-effect245"
       inkscape:original-d="m 137.67826,229.65948 c 2.94642,-1.27903 5.47869,-3.5474 8.41565,-4.82434 2.05825,-0.89489 4.84197,-0.34309 7.03264,-0.62794 0.58384,-0.0759 6.45459,-2.62055 7.00622,-3.0359 0.38963,-0.29337 2.67894,-2.37923 2.88331,-2.42071 0.98242,-0.19938 1.70701,-0.7267 2.46253,-1.43052 1.4957,-1.39332 2.61672,-3.38965 4.07,-4.85039 1.41086,-1.41811 2.96031,-2.63561 4.31218,-4.12766 0.54793,-0.60475 1.31337,-1.18139 1.77745,-1.84432 0.0908,-0.12976 0.40736,-0.88608 0.60714,-0.9463 1.28675,-0.38787 1.57354,-0.91977 2.61284,-1.88711 1.17886,-1.09723 2.61438,-2.14156 3.93074,-3.08591 5.08067,-3.64489 9.79145,-7.50048 15.24109,-10.48644 3.25703,-1.78459 3.5558,-6.84204 7.81053,-7.34697 2.05249,-0.24358 2.69945,1.02291 4.4625,1.80277 0.21124,0.0934 0.54013,-0.0777 0.75829,0 1.36453,0.48569 2.4291,1.47818 3.85202,1.98344 0.83435,0.29626 1.73209,0.19657 2.54266,0.44976 1.18607,0.37049 2.32685,0.96912 3.39737,1.58262 1.44115,0.82592 8.17946,2.14603 10.10778,1.94474 1.77022,-0.18479 3.51359,-0.83892 5.27034,-1.1197 0.98491,-0.15741 9.64463,-8.57698 9.99088,-9.76913 0.39236,-1.35089 1.40049,-2.14491 1.40049,-3.65797 0,-0.7688 0.15993,-1.50708 0.15993,-2.27627 0,-0.14918 -0.13343,-0.51428 0,-0.44755 1.89996,0.95031 1.85992,4.89775 3.01109,6.61381 0.44313,0.66057 1.16695,1.32412 1.76318,1.82962 1.68127,1.42544 6.18879,1.76312 8.2241,1.35721 0.90996,-0.18148 1.72961,-0.70064 2.71627,-0.80735 1.21767,-0.13168 2.46711,-0.0253 3.68988,-0.15826 1.35729,-0.14753 2.59104,-0.71812 3.88268,-1.05507 0.83346,-0.21743 2.74505,-0.0495 3.42135,-0.52754 1.04942,-0.74173 1.96943,-1.84516 3.00168,-2.64078 4.29902,-3.31349 8.69473,-6.91186 13.6454,-8.99487 0.51602,-0.21713 1.52779,-1.03553 2.1031,-1.1606 2.52865,-0.54971 4.94241,-0.91802 7.52655,-1.09772 1.58004,-0.10988 3.36155,-0.78132 4.87116,0.0242 3.12404,1.66696 1.35845,5.8465 0.83148,8.24818 -0.21862,0.99651 -0.0745,2.21216 -0.0745,3.23777 0,0.40291 -0.12168,1.40508 0.0709,1.78058 1.55289,3.02756 3.61243,4.90862 5.45457,7.65467 1.37549,2.05044 2.61326,4.72031 4.6787,6.15717 3.31534,2.30635 7.70091,2.18734 11.52475,1.83109 1.82441,-0.16997 3.82786,0.0719 5.63676,-0.26377 0.75525,-0.14014 2.64605,-0.81373 3.25295,-1.34561 2.43657,-2.13539 3.47789,-3.74587 6.65189,-4.58461 0.58645,-0.15498 1.2075,-0.75132 1.88023,-0.41036 1.08199,0.54839 1.99067,1.63811 2.84417,2.49132 1.39753,1.39708 1.76104,1.9485 1.76104,4.09073 -0.72618,1.58201 -2.19956,0.18493 -3.17969,0.62424 -1.34935,0.6048 -2.4603,1.70079 -3.91269,2.08071 -1.89973,0.49694 -6.25442,0.74987 -7.76331,1.81592 -1.45712,1.02947 -2.74032,2.28673 -4.14505,3.38669 -0.84447,0.66126 -2.19734,-0.0686 -3.05848,0.87728 -2.1577,2.36994 -1.73631,6.94506 -1.17593,9.86877 0.18343,0.95702 -0.13116,2.43167 0.55329,3.23606 0.48965,0.57545 6.19049,4.29154 4.43651,4.96485 -2.80246,1.07578 -5.17197,-1.0465 -7.77783,-1.79003 -1.77068,-0.50522 -3.75447,-0.41008 -5.58137,-0.5803 -3.41604,-0.31828 -6.82901,-0.4223 -10.25958,-0.68045 -0.97746,-0.0736 -5.27018,-1.21993 -5.68537,0.69698 -0.66559,3.07307 -0.81438,6.42183 -0.48255,9.645 0.18262,1.77387 0.62908,3.56 0.62908,5.31899 0,0.75805 4.15016,6.2403 3.36821,6.50386 -1.6943,0.57106 -3.2989,-1.33113 -4.45616,-2.29172 -1.47353,-1.22311 -2.33742,-3.26048 -3.87684,-4.36566 -3.12366,-2.24255 -7.05935,-6.10929 -10.72508,-7.19601 -0.75612,-0.22415 -1.52691,-0.006 -2.29292,-0.10551 -1.15699,-0.15091 -2.29882,-0.56558 -3.46431,-0.63691 -2.06107,-0.12616 -5.88526,-0.39671 -7.34581,1.35749 -0.94669,1.13703 -0.54559,2.92625 -1.16961,4.11593 -0.70914,1.35198 -1.3156,2.35078 -1.74349,3.78612 -0.29893,1.00276 -1.75975,1.99278 -1.87541,2.99727 -0.0836,0.7263 0.17805,2.93201 0,3.04864 -0.63053,0.41307 -2.24616,0.51381 -3.06022,0.35974 -3.53877,-0.66977 -6.34186,-4.66965 -8.40185,-7.36107 -0.76502,-0.99952 -1.92433,-2.66315 -2.92682,-3.42499 -0.74483,-0.56603 -1.70718,-0.88998 -2.32079,-1.57235 -1.47973,-1.64552 -2.24344,-3.89758 -3.24672,-5.84607 -0.14799,-0.28742 -0.1503,-0.73501 -0.37527,-0.96587 -1.00056,-1.02676 -2.93484,-1.65182 -4.22319,-2.3543 -2.18391,-1.19079 -4.80409,0.67489 -6.81194,1.11138 -1.23352,0.26816 -4.69831,0.0259 -5.5964,0.43534 -0.22594,0.10299 -1.5566,2.61172 -2.16272,3.08554 -0.93068,0.72753 -4.16927,1.75985 -4.48429,2.16892 -1.81694,2.35939 -3.41657,3.97539 -6.39912,4.46253 -1.4326,0.23399 -3.55358,0.10356 -5.00843,-3.5e-4 -0.314,-0.0224 -0.57498,-0.31557 -0.88977,-0.31653 -0.51157,-0.002 -0.66914,0.78378 -1.07465,1.09564 -1.01822,0.78306 -3.86418,0.38861 -4.88062,-0.39232 -1.5702,-1.2064 -0.67526,-4.7128 -0.89421,-6.50119 -0.11017,-0.89992 -0.71938,-1.61183 -0.95263,-2.42805 -1.13708,-3.97903 -3.57775,-5.35691 -7.5846,-6.412 -2.98173,-0.78516 -5.80327,-0.14699 -8.84909,-0.15026 -1.58156,-0.002 -3.48563,-0.70292 -5.07828,-0.30192 -1.196,0.30113 -4.96452,1.91431 -5.78422,2.64136 -1.78037,1.57914 -0.99215,2.6318 -2.08175,3.91278 -0.4284,0.50364 -2.54583,0.77792 -3.22537,0.97488 -2.90099,0.84084 -6.02211,1.94538 -8.3375,3.88297 -0.68554,0.57368 -0.41393,0.86547 -0.7509,1.55088 -0.62977,1.28095 -3.95992,4.01529 -5.13919,4.56461" />
  </g>
</svg>
