<?xml version="1.0" encoding="UTF-8" standalone="no"?>
<!-- Created with Inkscape (http://www.inkscape.org/) -->

<svg
   width="169.33333mm"
   height="127mm"
   viewBox="0 0 169.33333 127"
   version="1.1"
   id="svg47"
   inkscape:version="1.1.2 (08b2f3d93c, 2022-04-05)"
   sodipodi:docname="desenho.svg"
   xmlns:inkscape="http://www.inkscape.org/namespaces/inkscape"
   xmlns:sodipodi="http://sodipodi.sourceforge.net/DTD/sodipodi-0.dtd"
   xmlns="http://www.w3.org/2000/svg"
   xmlns:svg="http://www.w3.org/2000/svg">
  <sodipodi:namedview
     id="namedview49"
     pagecolor="#ffffff"
     bordercolor="#666666"
     borderopacity="1.0"
     inkscape:pageshadow="2"
     inkscape:pageopacity="0.0"
     inkscape:pagecheckerboard="0"
     inkscape:document-units="mm"
     showgrid="false"
     fit-margin-top="0"
     fit-margin-left="0"
     fit-margin-right="0"
     fit-margin-bottom="0"
     inkscape:zoom="1.0076756"
     inkscape:cx="296.72247"
     inkscape:cy="323.02061"
     inkscape:window-width="1366"
     inkscape:window-height="704"
     inkscape:window-x="0"
     inkscape:window-y="27"
     inkscape:window-maximized="1"
     inkscape:current-layer="layer4" />
  <defs
     id="defs44" />
  <g
     inkscape:groupmode="layer"
     id="layer4"
     inkscape:label="Estomago_Mucosa">
    <path
       style="fill:none;stroke:#000000;stroke-width:0.264583px;stroke-linecap:butt;stroke-linejoin:miter;stroke-opacity:1"
       d="m 36.968948,0.903607 c -0.110109,0.3961877 -0.217305,0.7931965 -0.330324,1.1885631 -0.151376,0.5295343 -0.504524,0.9269813 -0.589881,1.4644768 -0.11408,0.7183508 -0.0588,1.5937401 -0.23595,2.2710028 -0.112122,0.4286554 -0.291978,0.086479 -0.330324,0.1485678 -0.366623,0.5936221 -0.193771,2.639242 -0.0236,3.2897717 0.184631,0.7058173 0.854562,1.4249238 0.896607,2.1436538 0.07371,1.260085 -0.197522,2.610228 -0.09438,3.862825 0.04576,0.555737 0.283138,1.149154 0.283138,1.697945 0,3.554572 -0.519514,7.045358 0.731444,10.421135 0.515154,1.390168 -0.275657,5.650386 0.0236,7.534629 0.08131,0.511932 0.367396,0.945938 0.519086,1.400807 0.31599,0.947537 0.217226,2.110701 0.542685,3.098755 0.177964,0.540269 0.64049,0.990127 0.778642,1.549374 0.128709,0.521025 0.106868,1.146199 0.141565,1.676715 0.02818,0.430905 0.373018,0.883848 0.471906,1.315907 0.374052,1.634316 0.799026,3.211695 1.156155,4.817925 0.249341,1.121442 -0.695907,2.44229 -0.589873,3.586904 0.09437,1.018727 0.588545,1.914787 0.660659,2.822837 0.184748,2.326327 -0.02344,4.543245 0.18876,6.834227 0.08023,0.866264 0.72214,1.452205 0.943797,2.249775 0.342056,1.230802 0.178848,2.507152 0.401119,3.756708 0.238578,1.341239 1.18331,2.379313 1.297718,3.820377 0.09122,1.148948 -0.764572,2.151335 -0.943795,3.226088 -0.105183,0.630748 0.09925,1.291484 0.07079,1.931414 -0.03841,0.863616 -0.201308,1.790718 -0.283143,2.674262 -0.108419,1.170522 -0.64261,2.268583 -0.802233,3.417118 -0.188494,1.356259 0.410258,2.749706 0.353931,4.117512 -0.07169,1.741022 -0.317373,4.033742 -0.141571,5.773018 0.0422,0.417483 0.388392,0.796636 0.471898,1.209778 0.196252,0.97097 0.19065,2.184297 0.235947,3.162435 0.03097,0.668782 -0.441161,1.460365 -0.330324,2.058746 0.10778,0.581891 0.540181,1.104681 0.61347,1.697961 0.16781,1.35844 0.318284,2.71015 0.589873,4.05384 0.289153,1.43059 1.018283,2.825 1.25054,4.28731 0.08452,0.53217 0.04226,2.61943 -0.259548,3.16241 -0.319964,0.57565 -0.804151,1.50479 -0.873017,2.18611 -0.02455,0.24286 -0.04463,0.66921 0.141571,0.87021 0.203411,0.21955 0.525013,0.32896 0.731446,0.55181 0.339796,0.36683 0.722913,1.34266 0.920205,1.80408 0.105322,0.24633 0.57463,0.74285 0.306736,0.74285 -0.134421,0 0,0.26884 0,0.40326 0,0.40807 -0.07079,0.80737 -0.07079,1.20978 0,0.69104 -0.207082,1.47825 -0.259549,2.1861 -0.04153,0.56029 0.278525,1.05879 0.306737,1.59184 0.0627,1.18466 -0.176776,2.46001 0.117975,3.58691"
       id="path320" />
    <path
       style="fill:none;stroke:#000000;stroke-width:0.264583px;stroke-linecap:butt;stroke-linejoin:miter;stroke-opacity:1"
       d="m 110.06631,0.73381284 c 2.7e-4,0.95467406 0.0955,1.77923406 0.23595,2.69548826 0.0368,0.2398445 0.27356,0.368645 0.33033,0.6367282 0.23715,1.1200064 0.14661,2.3952993 0.4483,3.4807882 0.10408,0.3744918 0.39655,0.5781294 0.4719,1.0187688 0.22801,1.3334074 -0.15052,2.8025357 0.0708,4.0962907 0.19521,1.141243 0.54989,2.285635 0.66066,3.480788 0.0484,0.521988 -0.0821,1.074961 0,1.591822 0.19792,1.246468 1.09981,2.192724 1.29773,3.43834 0.18855,1.18665 -0.0901,2.331569 0.18875,3.502014 0.0899,0.377264 0.65524,0.729846 0.70785,1.06121 0.39917,2.513985 -0.52115,5.143996 -0.11797,7.683205 0.11225,0.706919 0.69403,1.399265 0.77864,2.122426 0.28636,2.447626 1.25893,4.414108 1.88759,6.770558 0.19463,0.729538 0.0251,1.625262 0.11798,2.377125 0.1189,0.96279 0.42244,1.971223 0.4719,2.950181 0.0503,0.995807 -0.49036,2.26024 -0.40111,3.183644 0.11079,1.146286 0.79996,2.55918 0.58988,3.693036 -0.15149,0.817589 -0.54429,1.416272 -0.30674,2.270992 0.0868,0.312172 0.0708,0.675855 0.0708,0.997548 0,0.120529 0.13661,0.402688 0.0236,0.360815 -0.31987,-0.118514 -0.34103,0.636919 -0.30673,0.976313 0.0931,0.921279 0.27514,2.325097 0.14157,3.226096 -0.16483,1.111875 -0.56629,2.371365 -0.56629,3.48079 0,0.586978 0.63896,1.533461 0.75504,2.186104 0.087,0.488846 -0.0993,1.076295 -0.0472,1.591825 0.15467,1.530737 0.52809,3.137988 0.75503,4.669349 0.0302,0.203694 -0.71505,3.459562 -0.37752,3.459562 0.0797,0 -0.84456,0.372464 -0.70785,0.700402 0.53007,1.271534 1.64975,2.591861 1.53368,4.053842 -0.0641,0.80767 -0.72021,1.69381 -0.63707,2.292229 0.0921,0.662487 0.65195,2.14707 1.10896,2.653035 0.18935,0.209635 1.28664,0.760399 1.29773,0.870191 0.0704,0.696515 -0.33033,1.427123 -0.33033,2.14367 0,0.449014 0.2666,0.963284 0.33033,1.422021 0.19764,1.422559 -0.0236,2.882792 -0.0236,4.287309 0,0.517019 0.70564,0.608089 0.61347,1.188558 -0.0893,0.562692 -0.46395,0.9705 -0.68426,1.48571 -0.0963,0.225327 0.33371,0.429043 0.42472,0.551836 0.0584,0.07882 -0.0333,0.473313 -0.0472,0.573053 -0.13103,0.943154 0.084,2.435514 -0.14157,3.247324 -0.20323,0.73127 -0.93705,2.51912 -0.58988,3.26854 0.20489,0.44227 0.68098,0.80664 0.9674,1.16734 0.28274,0.35606 -0.65261,1.72541 -0.73145,2.07998 -0.1111,0.49971 -0.0959,1.20347 -0.11797,1.71916 -0.0288,0.67452 0.94505,1.70956 0.56628,2.50448 -0.86099,1.80697 -0.19488,1.78416 -0.40111,3.26854 -0.0795,0.57228 -0.55447,1.12837 -0.68426,1.63427 -0.12261,0.47791 0.26594,0.83927 0.44831,1.16734 0.26403,0.47499 -0.59359,1.86527 -0.63706,2.33467 -0.03,0.32421 -0.0168,0.64889 0.14157,0.93387 0.11113,0.19994 0.50018,0.37999 0.37751,0.57306 -0.52149,0.82075 -0.53867,1.39358 -0.87301,1.99509 -0.18827,0.33872 -0.68633,0.55412 -0.82583,0.91264 -0.079,0.2031 0.46749,1.54873 0.54268,1.7404"
       id="path324" />
    <path
       style="fill:none;stroke:#000000;stroke-width:0.264583px;stroke-linecap:butt;stroke-linejoin:miter;stroke-opacity:1"
       d="m 36.968948,0.903607 c 0.314598,3e-8 0.314598,3e-8 0,0 z"
       id="path338" />
    <path
       style="fill:none;stroke:#000000;stroke-width:0.264583px;stroke-linecap:butt;stroke-linejoin:miter;stroke-opacity:1"
       d="m 36.968948,0.903607 c -0.03145,-0.0848944 -0.03145,-0.0848944 0,0 z"
       id="path340" />
    <path
       style="fill:none;stroke:#000000;stroke-width:0.264583px;stroke-linecap:butt;stroke-linejoin:miter;stroke-opacity:1"
       d="m 110.06631,0.73381284 c -0.11798,0.26176666 -0.6157,0.66732346 -0.35393,0.78529996 0.26177,0.1179766 0.50382,-0.54040546 0.35393,-0.78529996 -0.32548,-0.53177072 -0.98392,-0.76919824 -1.51008,-1.10366202 -0.41578,-0.26429227 -5.86751,-0.19102044 -6.81897,-0.19102044 -3.460912,0 -7.0157,0.2606403 -10.476178,0.42448541 -1.019286,0.04826072 -2.008261,0.36379955 -3.020171,0.42448939 -2.376294,0.14251954 -4.805944,-0.89794676 -7.220066,-0.74285143 -2.061697,0.13245364 -4.234331,-0.1987551 -6.276279,0.0636708 -3.385415,0.43508474 -7.059398,0.6854776 -10.476188,0.55183503 -2.818688,-0.11024877 -5.59263,-0.39874301 -8.376229,-0.48816019 -2.019916,-0.0648856 -4.088003,0.47595339 -6.111105,0.65795434 -1.592501,0.14326325 -3.005204,-0.22915075 -4.553842,-0.40326312 -1.054171,-0.11851988 -2.146853,-0.03462045 -3.208917,-0.08489708 -1.421876,-0.0673096 -2.84504,-0.0399966 -4.247107,0.2122427 -0.573582,0.10319111 -1.286446,0.47802469 -1.533676,0.7004029 -0.211135,0.18991305 -0.56924,0.93880827 -0.330324,0.78529997 0.347194,-0.22308 0.707845,-0.4244881 1.06177,-0.63673209"
       id="path348" />
    <path
       style="fill:none;stroke:#000000;stroke-width:0.264583px;stroke-linecap:butt;stroke-linejoin:miter;stroke-opacity:1"
       d="M 118.86724,128.50418 45.958646,127.76133"
       id="path531" />
  </g>
</svg>
