<?xml version="1.0" encoding="UTF-8" standalone="no"?>
<!-- Created with Inkscape (http://www.inkscape.org/) -->

<svg
   width="353.56799mm"
   height="264.16mm"
   viewBox="0 0 353.56799 264.16"
   version="1.1"
   id="svg5"
   inkscape:version="1.1.2 (08b2f3d93c, 2022-04-05)"
   sodipodi:docname="MuscularExterna.svg"
   xmlns:inkscape="http://www.inkscape.org/namespaces/inkscape"
   xmlns:sodipodi="http://sodipodi.sourceforge.net/DTD/sodipodi-0.dtd"
   xmlns="http://www.w3.org/2000/svg"
   xmlns:svg="http://www.w3.org/2000/svg">
  <sodipodi:namedview
     id="namedview7"
     pagecolor="#ffffff"
     bordercolor="#666666"
     borderopacity="1.0"
     inkscape:pageshadow="2"
     inkscape:pageopacity="0.0"
     inkscape:pagecheckerboard="0"
     inkscape:document-units="mm"
     showgrid="false"
     inkscape:zoom="0.33"
     inkscape:cx="193.93939"
     inkscape:cy="546.9697"
     inkscape:window-width="1366"
     inkscape:window-height="704"
     inkscape:window-x="0"
     inkscape:window-y="27"
     inkscape:window-maximized="1"
     inkscape:current-layer="layer2" />
  <defs
     id="defs2">
    <inkscape:path-effect
       effect="simplify"
       id="path-effect122"
       is_visible="true"
       lpeversion="1"
       steps="1"
       threshold="0.000408163"
       smooth_angles="360"
       helper_size="0"
       simplify_individual_paths="false"
       simplify_just_coalesce="false" />
    <inkscape:path-effect
       effect="simplify"
       id="path-effect85"
       is_visible="true"
       lpeversion="1"
       steps="1"
       threshold="0.000408163"
       smooth_angles="360"
       helper_size="0"
       simplify_individual_paths="false"
       simplify_just_coalesce="false" />
    <inkscape:path-effect
       effect="simplify"
       id="path-effect81"
       is_visible="true"
       lpeversion="1"
       steps="1"
       threshold="0.000408163"
       smooth_angles="360"
       helper_size="0"
       simplify_individual_paths="false"
       simplify_just_coalesce="false" />
    <inkscape:path-effect
       effect="simplify"
       id="path-effect77"
       is_visible="true"
       lpeversion="1"
       steps="1"
       threshold="0.000408163"
       smooth_angles="360"
       helper_size="0"
       simplify_individual_paths="false"
       simplify_just_coalesce="false" />
    <inkscape:path-effect
       effect="simplify"
       id="path-effect73"
       is_visible="true"
       lpeversion="1"
       steps="1"
       threshold="0.000408163"
       smooth_angles="360"
       helper_size="0"
       simplify_individual_paths="false"
       simplify_just_coalesce="false" />
    <inkscape:path-effect
       effect="simplify"
       id="path-effect69"
       is_visible="true"
       lpeversion="1"
       steps="1"
       threshold="0.000408163"
       smooth_angles="360"
       helper_size="0"
       simplify_individual_paths="false"
       simplify_just_coalesce="false" />
    <inkscape:path-effect
       effect="simplify"
       id="path-effect65"
       is_visible="true"
       lpeversion="1"
       steps="1"
       threshold="0.000408163"
       smooth_angles="360"
       helper_size="0"
       simplify_individual_paths="false"
       simplify_just_coalesce="false" />
    <inkscape:path-effect
       effect="simplify"
       id="path-effect61"
       is_visible="true"
       lpeversion="1"
       steps="1"
       threshold="0.000408163"
       smooth_angles="360"
       helper_size="0"
       simplify_individual_paths="false"
       simplify_just_coalesce="false" />
    <inkscape:path-effect
       effect="simplify"
       id="path-effect57"
       is_visible="true"
       lpeversion="1"
       steps="1"
       threshold="0.000408163"
       smooth_angles="360"
       helper_size="0"
       simplify_individual_paths="false"
       simplify_just_coalesce="false" />
  </defs>
  <g
     inkscape:groupmode="layer"
     id="layer2"
     inkscape:label="Muscular Externa">
    <path
       style="fill:none;stroke:#000000;stroke-width:0.264583px;stroke-linecap:butt;stroke-linejoin:miter;stroke-opacity:1"
       d="m 0.93447541,107.35049 c 0.004512,-0.38312 -0.19172727,-0.82377 0.0134069,-1.15171 0.34243268,-0.54743 0.78039958,-1.02915 1.20929898,-1.50944 0.7398378,-0.82849 1.3919667,-1.76133 2.2756007,-2.43546 0.9000177,-0.68663 2.0487138,-0.88882 3.0128764,-1.46698 2.0511747,-1.229977 4.1905916,-2.302673 6.2856156,-3.454504 1.577417,-0.867254 3.123356,-1.840295 4.872341,-2.338034 3.152049,-0.897033 6.586717,-0.52983 9.63247,-1.765185 0.251672,-0.102078 0.567543,-0.115826 0.755403,-0.316723 0.522499,-0.558758 0.955307,-1.202847 1.304507,-1.879919 0.134436,-0.260661 0.288056,-0.52547 0.240333,-0.844552 -0.09978,-0.667148 -0.552618,-1.287257 -0.392507,-1.984238 0.194499,-0.846673 0.902651,-1.438672 1.602867,-1.887766 0.748051,-0.479774 1.521511,-0.958557 2.059297,-1.698119 0.471652,-0.648615 0.694664,-1.42667 1.039714,-2.140764 0.422551,-0.874485 1.233602,-1.510967 2.113149,-1.872011 0.639671,-0.262578 1.323835,-0.441401 1.881067,-0.880462 0.987412,-0.778014 1.776481,-1.794727 2.878234,-2.433862 1.603244,-0.930054 3.471017,-1.31292 5.005519,-2.378752 1.016077,-0.705745 1.957237,-1.517868 3.030102,-2.142959 1.036046,-0.603639 2.085595,-1.200309 3.20281,-1.634064 0.736364,-0.285891 1.557876,-0.348777 2.227455,-0.815385 1.200102,-0.836311 2.409071,-1.661408 3.658469,-2.424883 0.699277,-0.42731 1.530043,-0.487676 2.313578,-0.651928 1.241348,-0.260224 2.325694,-1.008882 3.567406,-1.253392 0.833319,-0.164092 1.708827,-0.111682 2.506569,-0.454889 0.758428,-0.326293 1.463106,-0.761894 2.242138,-1.048709 1.539433,-0.56677 3.074585,-1.199777 4.700138,-1.466679 1.712693,-0.28121 3.504231,0.05924 5.175794,-0.410701 0.383897,-0.107929 0.461778,-0.635414 0.889125,-0.691805 2.452152,-0.323574 4.826048,-1.04666 7.163438,-1.822467 1.656432,-0.549789 2.937894,-1.819983 4.522292,-2.513986 1.373453,-0.601604 3.03409,-0.505649 4.25863,-1.387912 0.38521,-0.277538 0.547128,-0.74376 0.874355,-1.085675 0.369859,-0.386461 0.881695,-0.591967 1.412135,-0.661223 0.389981,-0.05092 0.831243,0.06261 1.173485,-0.133302 0.299929,-0.171688 0.614173,-0.267797 0.967243,-0.309631 1.50959,-0.178868 2.82025,-1.014775 4.08858,-1.79536 0.57891,-0.356285 1.12572,-0.78085 1.75472,-1.042616 0.67065,-0.279099 1.39996,-0.417358 2.0106,-0.843693 0.51143,-0.357069 1.02455,-0.792924 1.69036,-0.821674 0.55563,-0.02399 1.22693,0.211941 1.67196,-0.172884 0.22125,-0.191317 0.37136,-0.454089 0.65618,-0.580136 0.65098,-0.288091 1.45429,-0.188188 2.02919,-0.625398 0.28423,-0.216157 0.42277,-0.618337 0.80834,-0.703569 0.80414,-0.17776 1.72049,-0.115749 2.39436,-0.651888 0.17436,-0.138722 0.36601,-0.4699 0.61858,-0.254285 0.41643,0.355499 0.59112,0.938816 1.11756,1.192805 0.73511,0.354664 1.58613,0.18413 2.31977,-0.0928 0.70641,-0.266655 1.33418,-0.712477 2.04656,-0.958298 0.75113,-0.259194 1.57453,0.06006 2.31732,-0.216392 0.41294,-0.153689 1.3427,-0.983365 1.19801,-0.554337 -0.0351,0.10405 -0.43409,0.259215 -0.0805,0.202115 0.87109,-0.140671 1.89583,-0.01879 2.585,-0.569519 0.42706,-0.341274 0.81188,-0.743969 1.17869,-1.151773 0.42977,-0.477805 0.90144,-0.939849 1.51639,-1.178982 0.59233,-0.230339 1.24163,-0.250323 1.84486,-0.43528 0.98648,-0.302469 1.65103,-1.139728 2.38756,-1.807009 0.39292,-0.355976 0.89812,-0.551298 1.30711,-0.885071 0.16429,-0.134077 0.42309,-0.260674 0.50305,-0.428588 0,0 -0.0462,0.01076 -0.0462,0.01076"
       id="path55"
       inkscape:path-effect="#path-effect57"
       inkscape:original-d="m 0.93447541,107.35049 c 0,-0.37071 -0.0552566,-0.74557 0,-1.11214 0.0494551,-0.32808 3.15264569,-3.72845 3.54264149,-4.02079 0.7918839,-0.5936 1.9644281,-0.82872 2.8293573,-1.3474 1.9803827,-1.187599 3.9223758,-2.228417 5.9678038,-3.293632 1.63698,-0.852504 3.131108,-1.891067 4.921664,-2.459533 3.464078,-1.099769 7.316749,-0.795559 10.675478,-2.117336 0.338135,-0.133067 1.697929,-2.274654 1.6881,-2.566461 -0.03637,-1.079931 -0.942737,-1.699156 -0.07133,-2.994212 0.744956,-1.107128 2.298523,-1.501828 3.114675,-2.54508 1.339726,-1.712516 0.732189,-2.865136 3.019568,-4.127736 0.630946,-0.348276 1.405691,-0.456168 1.997197,-0.876877 0.955164,-0.679362 1.704533,-1.6736 2.639147,-2.309815 1.483683,-1.00998 3.218913,-1.366506 4.755224,-2.224275 1.036791,-0.578871 1.939374,-1.409975 2.924458,-2.074558 1.128289,-0.761199 2.617586,-1.494258 3.851735,-2.074558 0.690811,-0.324821 1.641615,-0.356907 2.25873,-0.791329 0.899255,-0.63304 3.153023,-2.230046 4.089495,-2.673409 0.822407,-0.389358 1.637659,-0.356864 2.496497,-0.620228 0.93323,-0.286179 1.805958,-0.752658 2.758027,-1.047975 0.696288,-0.215979 1.455283,-0.169095 2.163628,-0.320804 0.921266,-0.197313 1.734836,-0.828771 2.615377,-1.154912 1.41198,-0.522986 2.992678,-1.143519 4.469905,-1.475719 1.880081,-0.422793 3.829349,-0.188629 5.706274,-0.513291 0.321236,-0.05557 0.471765,-0.638072 0.832167,-0.68439 2.431701,-0.312515 4.672407,-1.118733 7.037732,-1.775143 1.563301,-0.433837 3.007944,-1.738365 4.4699,-2.459532 1.417272,-0.699127 3.128772,-0.760439 4.493686,-1.497105 0.25269,-0.136382 0.507407,-0.695859 0.713295,-0.919647 0.877954,-0.954283 1.433182,-0.777568 2.591588,-0.919654 0.284988,-0.03496 0.512721,-0.301104 0.808395,-0.320808 2.25917,-0.150542 3.93616,-1.625081 5.84892,-2.716178 0.63965,-0.364873 1.40887,-0.431368 2.04476,-0.812707 0.46307,-0.277704 1.07009,-0.852339 1.59299,-0.962425 0.64926,-0.136691 1.37031,0.118229 1.97342,-0.171106 0.19284,-0.09251 0.33364,-0.389355 0.52308,-0.513291 0.57974,-0.379273 1.54615,-0.336021 2.1874,-0.705782 0.24002,-0.138395 0.4755,-0.638548 0.73705,-0.70577 0.81766,-0.210148 1.83535,-0.139126 2.54405,-0.705779 0.1411,-0.112816 0.2787,-0.351311 0.45175,-0.299424 0.36502,0.109453 0.64721,0.915668 1.04615,1.154912 1.4477,0.868177 3.08844,-0.269298 4.35103,-0.855488 0.78401,-0.363998 1.55269,-0.09255 2.30629,-0.235265 0.5102,-0.09662 0.8998,-0.534027 1.379,-0.620228 0.21122,-0.038 -0.24714,0.213876 -0.1902,0.213876 0.40063,0 2.7203,-0.543523 2.7818,-0.598842 1.97009,-1.772058 1.55039,-2.262135 4.25593,-2.694789 1.34514,-0.215109 2.2371,-1.765544 3.23355,-2.288435 0.30006,-0.15745 1.50463,-0.991438 1.16503,-0.876876" />
    <path
       style="fill:none;stroke:#000000;stroke-width:0.264583px;stroke-linecap:butt;stroke-linejoin:miter;stroke-opacity:1"
       d="m 138.52688,39.638546 c 0.0625,0.108059 -0.0355,0.316846 0.084,0.359107 0.0582,0.02057 0.13579,-0.02731 0.19845,-0.04569 0.40856,-0.119848 0.87582,-0.05097 1.25014,-0.252084 0.10346,-0.05559 0.17876,-0.150826 0.25284,-0.239585 0.36736,-0.440162 0.69308,-0.912886 1.0406,-1.368456 0.16999,-0.22284 0.32612,-0.45935 0.52637,-0.656175 1.50619,-1.480423 3.23127,-2.708357 4.90754,-3.985214 0.41701,-0.317647 0.75742,-0.719976 1.12172,-1.093707 0.35825,-0.367529 0.73539,-0.736289 1.20399,-0.959311 0.30782,-0.1465 0.64937,-0.206732 0.98598,-0.237966 0.8753,-0.08122 1.74647,0.114461 2.5819,0.358094 1.04336,0.304269 2.06484,0.707457 3.14589,0.862998 0.45525,0.0655 0.91905,0.07101 1.37537,0.0086 0.84575,-0.115689 1.68306,-0.288025 2.51252,-0.487714 0.72748,-0.175137 1.45558,-0.356671 2.1606,-0.609429 0.22323,-0.08003 0.44102,-0.177451 0.63886,-0.310032 0.50463,-0.338179 0.94604,-0.758254 1.40809,-1.150075 0.33486,-0.283964 0.69073,-0.542201 1.06388,-0.774487 1.11319,-0.692952 2.18917,-1.444754 3.31782,-2.113013 0.95788,-0.567149 1.9753,-1.031183 3.02941,-1.391188 0.37639,-0.128547 0.76228,-0.225757 1.14286,-0.340504 0.86788,-0.261673 1.66942,-0.693474 2.52789,-0.983935 0.3682,-0.12458 0.71502,-0.307901 1.08624,-0.424553 0.0503,-0.01582 0.0624,-0.03527 8.6e-4,-0.05403 -0.20395,-0.06221 -0.41118,0.02667 -0.59242,0.115267 -0.15729,0.0769 -0.30887,0.167445 -0.47507,0.224571"
       id="path59"
       inkscape:path-effect="#path-effect61"
       inkscape:original-d="m 138.52688,39.638546 c 0.32859,0.591124 -0.53326,0.363908 1.52168,0.06416 0.21769,-0.03175 1.46367,-1.906804 1.83076,-2.267042 1.52298,-1.494531 3.20138,-2.721293 4.89788,-3.978024 0.82474,-0.610949 1.59824,-1.897726 2.66293,-2.181497 2.44081,-0.650544 4.90642,1.258437 7.32305,1.154911 1.06812,-0.04576 4.79344,-0.883179 5.58739,-1.347398 0.77201,-0.45139 1.55985,-1.357143 2.47272,-1.924849 2.79655,-1.739159 4.27452,-3.031308 7.46569,-3.892472 0.94825,-0.255893 1.72888,-0.720396 2.61538,-1.005199 0.71391,-0.229359 1.26494,-0.479055 1.23636,-0.491907 -0.35345,-0.158932 -0.75027,0.196937 -1.11747,0.320805" />
    <path
       style="fill:none;stroke:#000000;stroke-width:0.264583px;stroke-linecap:butt;stroke-linejoin:miter;stroke-opacity:1"
       d="m 175.02321,24.090035 c 1.06015,-0.148579 2.04329,-0.607577 2.9731,-1.118977 0.89316,-0.491244 1.75049,-1.071247 2.71695,-1.406231 0.60517,-0.209758 1.26684,-0.21727 1.84794,-0.512095 1.35964,-0.689822 2.61795,-1.611715 4.08321,-2.064972 0.69974,-0.216455 1.37873,-0.50161 2.0988,-0.652716 0.60005,-0.125919 1.2302,0.110442 1.81658,-0.09729 0.85173,-0.30174 1.55922,-0.881625 2.28693,-1.398071 0.59249,-0.420483 1.2337,-0.790235 1.94578,-0.972227 5.00786,-1.279895 10.06902,-2.32383 15.09544,-3.53425 1.14864,-0.276606 4.67982,-0.46637 3.49894,-0.456443 -0.0672,5.65e-4 -0.31788,-0.03396 -0.13612,-0.118881 0.27091,-0.126579 0.56294,-0.196574 0.83018,-0.334334 1.21804,-0.627892 2.48504,-1.150889 3.73462,-1.7114828 1.03412,-0.4639317 2.17754,-0.5891616 3.24981,-0.9342275 0.55533,-0.1787095 0.98453,-0.601469 1.52835,-0.8106372 0.80446,-0.3094201 1.67557,-0.4051081 2.47716,-0.7177417 0.43145,-0.1682733 0.76961,-0.4970259 1.18682,-0.6960579 1.23194,-0.5877024 2.60028,-0.823554 3.81223,-1.4633841 0.85463,-0.4511869 1.67007,-1.0000746 2.6093,-1.2697946 1.12843,-0.3240521 2.33681,-0.3744351 3.41056,-0.8764738 1.04328,-0.4877912 1.88231,-1.3272415 2.94842,-1.7713276 0.70786,-0.29485886 1.4844,-0.32512707 2.2378,-0.39207353 0.72086,-0.0640549 1.45431,-0.18747613 2.09835,-0.5366031 0.37828,-0.20506114 0.75458,-0.42815092 1.18081,-0.52220745 0.26584,-0.058663 0.53883,-0.0781275 0.8106,-0.0782666"
       id="path63"
       inkscape:path-effect="#path-effect65"
       inkscape:original-d="m 175.02321,24.090035 c 2.1354,-0.309443 3.65711,-1.695343 5.57641,-2.482092 0.60114,-0.246417 1.2852,-0.216894 1.87831,-0.513292 1.42196,-0.710608 2.79761,-1.671865 4.32725,-2.160108 0.66852,-0.21338 1.37302,-0.522475 2.06853,-0.62023 0.56179,-0.07896 1.16217,0.112243 1.71188,-0.08555 1.46011,-0.525366 2.5565,-1.937198 4.08949,-2.331204 5.0092,-1.287456 10.11804,-2.19146 15.07405,-3.528895 1.18109,-0.31873 2.45249,-0.213763 3.63775,-0.491903 0.0725,-0.01701 -0.19404,0.0076 -0.21398,-0.06417 -0.0149,-0.05362 0.67867,-0.268385 0.73705,-0.299416 1.21147,-0.643937 2.52099,-1.143937 3.75664,-1.7323636 1.05502,-0.5024094 2.20439,-0.710493 3.32866,-0.9838142 0.50033,-0.121638 0.96361,-0.5639004 1.45034,-0.7699386 0.77873,-0.3296438 1.74535,-0.487309 2.54403,-0.7485573 0.44253,-0.1447482 0.73293,-0.4577413 1.14126,-0.6630006 1.07813,-0.5419526 2.26381,-0.7689815 3.35243,-1.2404603 0.93124,-0.40332 1.8402,-1.0716006 2.75803,-1.4115579 1.15478,-0.427718 2.42071,-0.4550534 3.61398,-0.9196469 1.25989,-0.4905313 2.36245,-1.7072175 3.66152,-2.031788 1.02992,-0.25732535 2.08998,-0.1561439 3.13845,-0.47052197 1.09668,-0.32883226 1.26709,-0.8982575 2.71048,-0.8982575" />
    <path
       style="fill:none;stroke:#000000;stroke-width:0.264583px;stroke-linecap:butt;stroke-linejoin:miter;stroke-opacity:1"
       d="m 38.037984,207.01787 c 1.059515,0.072 2.11763,-0.27262 2.974792,-0.89287 0.971772,-0.70318 1.802522,-1.57383 2.716084,-2.34809 1.095914,-0.92881 2.232165,-1.82923 3.545617,-2.45081 0.925802,-0.43813 1.947793,-0.79561 2.655095,-1.56651 0.51335,-0.55951 0.564406,-1.34774 0.963167,-1.98345 1.08341,-1.72719 2.124025,-3.52963 3.6119,-4.9385 0.550259,-0.52104 1.15806,-1.10436 1.939703,-1.19793 0.815339,-0.0976 1.646989,0.0701 2.452179,-0.18723 1.168211,-0.37339 2.25564,-1.04175 3.513433,-1.09782 1.422398,-0.0634 2.848522,0.18987 4.188476,0.62907 0.620334,0.20333 1.109893,0.70775 1.786582,0.77707 0.583263,0.0598 1.206537,0.0389 1.716312,0.39918 0.692523,0.4894 1.291436,1.10164 2.052551,1.50121 1.259806,0.66137 2.60701,1.20535 4.029359,1.391 0.687159,0.0897 1.378348,-0.0704 1.996459,-0.37941 1.253375,-0.62655 2.329031,-1.53737 3.559665,-2.20877 3.394672,-1.85204 6.589299,-4.04467 9.936241,-5.97847 1.478084,-0.85401 3.347696,-0.7879 4.727099,-1.82784 1.399383,-1.055 2.854866,-2.04156 4.383882,-2.8992 1.73294,-0.97202 3.77602,-1.16394 5.56112,-1.99415 0.3614,-0.16808 0.63692,-0.45183 1.02427,-0.59646 1.21503,-0.45366 2.56825,-0.63395 3.64925,-1.35025 0.39805,-0.26376 0.43172,-0.79153 0.49963,-1.2221 0.0818,-0.51881 -1.9e-4,-1.11693 0.36953,-1.54218 0.25874,-0.2976 0.504,-0.60221 0.65666,-0.97891 0.78294,-1.93193 1.73748,-3.80669 3.01534,-5.46745 0.81924,-1.06472 1.53939,-2.25624 2.62013,-3.06762 0.44264,-0.33232 0.89429,-0.66369 1.19968,-1.14604 1.02757,-1.623 1.64801,-3.51222 2.9733,-4.9384 0.80471,-0.86597 1.9527,-1.28047 2.78485,-2.12533 0.7378,-0.74907 1.28554,-1.71707 2.1991,-2.26653 1.15727,-0.69604 2.62847,-0.64132 3.71537,-1.48741 0.4894,-0.38097 1.00508,-0.72232 1.55813,-1.00913 2.44224,-1.26653 4.95391,-2.54824 7.68769,-2.99578 1.09652,-0.17951 2.20368,-0.28997 3.3095,-0.39495 1.74103,-0.16529 3.50998,-0.17369 5.23339,0.1841 1.71419,0.35588 3.44555,1.08332 5.20036,0.79957 0.48133,-0.0778 0.93746,-0.25001 1.42985,-0.29523 2.91166,-0.26742 5.87971,-0.40486 8.76217,0.15684 1.13846,0.22185 2.26543,0.54454 3.29861,1.09464 0.65712,0.34987 1.3021,0.81231 2.05307,0.89523 0.4423,0.0488 0.93856,-0.0264 1.3144,0.30039 1.32199,1.14951 2.86041,2.02841 4.48355,2.68154 2.77651,1.11723 5.75175,1.59168 8.60799,2.44905 1.29784,0.38958 2.59432,1.03784 3.98281,0.87729 1.01269,-0.1171 1.93357,-0.59108 2.93906,-0.76053 1.12339,-0.18932 2.40188,0.0959 3.3814,-0.49726 0.30719,-0.18602 0.49513,-0.48213 0.85195,-0.64278 1.54234,-0.69438 2.99777,-1.62248 4.67798,-1.98631 0.76246,-0.1651 1.56768,-0.16532 2.29881,-0.43924 0.54728,-0.20504 1.04654,-0.5449 1.65055,-0.59139 0.72364,-0.0557 1.4625,-0.0263 2.16217,-0.26974 1.07208,-0.37297 2.06716,-0.92669 3.13913,-1.30652 1.15383,-0.40883 2.47413,-0.42484 3.50862,-1.07731 0.30768,-0.19406 0.3654,-0.58713 0.7648,-0.73566 0.50681,-0.18848 1.07861,-0.19564 1.55259,-0.46805 0,0 0.0306,-0.0252 0.0306,-0.0252 0,0 0.0459,-0.0543 0.0459,-0.0543"
       id="path67"
       inkscape:path-effect="#path-effect69"
       inkscape:original-d="m 38.037984,207.01787 c 2.46281,0.1191 3.602146,-1.46002 5.302075,-2.90867 0.919779,-0.78382 1.848236,-1.60505 2.87691,-2.24565 1.031147,-0.64214 3.065661,-1.21712 3.827952,-2.24566 0.365834,-0.49361 0.404355,-1.1292 0.713285,-1.62543 1.103439,-1.77244 3.368056,-5.49088 5.254524,-6.24507 0.714455,-0.28563 1.746867,-0.004 2.520273,-0.19248 0.974786,-0.23748 1.902407,-0.78499 2.876907,-1.04798 1.571008,-0.42396 3.543162,0.0813 5.088088,0.44914 0.542483,0.12917 0.971008,0.56373 1.497899,0.72716 0.564668,0.17514 1.284203,0.0382 1.806982,0.29942 0.634201,0.31694 1.284325,1.06822 1.949644,1.45433 1.349361,0.78309 3.573743,1.75706 5.183195,1.62543 1.415706,-0.11578 3.107917,-1.68166 4.35103,-2.35259 3.517683,-1.89855 6.881133,-3.99322 10.247506,-6.13814 1.490252,-0.94952 3.55087,-0.89545 4.969214,-1.98901 1.148871,-0.88578 3.472664,-2.44073 4.731442,-3.05837 1.58068,-0.77557 3.35693,-1.11849 4.99299,-1.71098 0.45316,-0.16411 0.60198,-0.44384 0.9035,-0.55607 1.28443,-0.4781 2.54567,-0.93094 3.82795,-1.41155 0.68596,-0.2571 0.5258,-1.88975 0.71328,-2.41676 0.16179,-0.4548 0.60629,-0.69241 0.78461,-1.13353 0.76268,-1.88661 1.61376,-3.74832 2.87692,-5.38957 0.80511,-1.0461 1.67728,-2.28386 2.63914,-3.1867 0.43819,-0.41129 0.93997,-0.61789 1.28391,-1.13352 1.08052,-1.61992 1.78766,-3.79202 3.16223,-5.1971 0.70024,-0.71577 1.56113,-1.03515 2.30629,-1.6682 0.83927,-0.71301 1.44602,-1.71959 2.30628,-2.43814 0.87971,-0.73481 2.31867,-0.81889 3.32865,-1.28324 0.66304,-0.30483 1.16615,-0.85772 1.80699,-1.19768 2.68167,-1.4226 5.97289,-3.01884 8.98737,-3.3578 2.11374,-0.23767 4.47112,-0.56338 6.58599,-0.27803 2.04324,0.27569 4.09621,1.11555 6.18179,1.0052 0.43323,-0.0229 0.83558,-0.2356 1.26014,-0.27803 3.5233,-0.35216 7.85277,-0.47315 11.19855,0.68439 1.02664,0.35518 1.89682,1.08018 2.97201,1.39017 0.48047,0.13852 1.10235,-0.0564 1.47412,0.27803 0.78195,0.70336 1.92875,1.48623 2.85314,1.96762 3.08211,1.6051 6.65362,2.26035 10.00975,3.14393 1.29913,0.34202 2.511,0.98381 3.89928,0.98381 0.94059,0 1.69355,-0.38431 2.56782,-0.62023 1.32901,-0.35863 2.76934,-0.2826 4.08949,-0.64162 0.27458,-0.0747 0.38954,-0.43776 0.66574,-0.55607 1.25708,-0.53845 2.53133,-1.34673 3.80418,-1.79652 0.96411,-0.3407 2.16084,-0.45218 3.16223,-0.663 0.53705,-0.11307 0.9927,-0.48524 1.49788,-0.59885 0.70485,-0.15851 1.43475,-0.0265 2.16363,-0.21387 0.94776,-0.24358 1.85418,-0.77217 2.75804,-1.13352 1.36662,-0.54637 2.83806,-0.9294 4.23214,-1.3474 0.31173,-0.0935 0.32243,-0.52321 0.5944,-0.663 0.53459,-0.27477 1.66658,-0.33731 1.85454,-0.64162" />
    <path
       style="fill:none;stroke:#000000;stroke-width:0.264583px;stroke-linecap:butt;stroke-linejoin:miter;stroke-opacity:1"
       d="m 214.90339,149.54444 c 0.12154,0.29376 0.023,0.69497 0.28103,0.9108 0.1961,0.16401 0.46014,0.0178 0.65278,-0.073 0.65191,-0.30744 1.2024,-0.84053 1.90024,-1.02586 0.30218,-0.0803 0.61801,-0.098 0.92737,-0.14286 1.7065,-0.24743 3.4411,-0.57016 4.9848,-1.36469 1.15192,-0.59288 2.13242,-1.51625 3.37884,-1.91592 0.68042,-0.21818 1.39421,-0.30084 2.07188,-0.53627 1.68556,-0.58558 3.26638,-1.42201 4.93378,-2.05689 1.91675,-0.72982 3.76431,-1.67683 5.76296,-2.16037 1.48796,-0.35999 3.0807,-0.27239 4.50537,-0.87208 0.42781,-0.18008 0.86972,-0.40007 1.15961,-0.77193 0.27341,-0.35073 0.43368,-0.82952 0.86584,-1.02477 0.65223,-0.29467 1.3638,-0.42115 2.05877,-0.57302 0.79697,-0.17416 1.62002,-0.26251 2.38719,-0.54494 0.74885,-0.27569 1.3817,-0.78981 2.15192,-1.02682 1.56389,-0.48123 3.20753,-0.68361 4.7482,-1.23145 0.57522,-0.20454 0.86281,-0.8502 1.45879,-1.01551 0.68664,-0.19046 1.42168,0.0186 2.1015,-0.23345 0.60674,-0.22491 1.1514,-0.60512 1.80389,-0.71683 0.68642,-0.11752 1.43491,-0.0977 2.04071,-0.47935 0.40694,-0.25635 0.68586,-0.66862 1.1165,-0.89903 0.66499,-0.35579 1.43744,-0.50236 2.02858,-0.99869 0.84832,-0.71226 1.47957,-1.65195 2.35705,-2.33028 0.82449,-0.63737 1.85243,-0.93235 2.70332,-1.52304 0.66546,-0.46196 1.23404,-1.06223 1.97678,-1.41442 1.20993,-0.57372 2.58566,-0.72279 3.74415,-1.42103 0.92671,-0.55854 1.75155,-1.28862 2.77086,-1.69387 2.12619,-0.84532 4.36094,-1.44306 6.38735,-2.51625 1.13421,-0.60068 2.02161,-1.5867 3.21774,-2.08832 1.22806,-0.51501 2.41836,-1.13514 3.6969,-1.51727 1.01951,-0.30471 2.12867,-0.43144 3.0211,-1.04705 0.75943,-0.52387 1.63354,-0.84808 2.5233,-1.07599 0.84817,-0.21726 1.75129,-0.34239 2.50435,-0.79854 0.36442,-0.22074 0.682,-0.50863 1.07106,-0.69543 1.27703,-0.61313 2.69317,-0.86802 3.97075,-1.47571 0.74636,-0.35501 1.34686,-0.95149 2.0692,-1.34311 0.37377,-0.20264 0.81654,-0.25193 1.15683,-0.52738 0.32004,-0.25906 0.61567,-0.54702 0.9678,-0.76718 1.38157,-0.86379 2.936,-1.38795 4.45153,-1.96502 0.59816,-0.22776 1.15894,-0.54182 1.73936,-0.81007 0.70239,-0.32462 1.39164,-0.73897 2.16085,-0.85148 0.18193,-0.0266 0.45932,-0.10059 0.56995,0.0965"
       id="path75"
       inkscape:path-effect="#path-effect77"
       inkscape:original-d="m 214.90339,149.54444 c 0.12894,0.32422 0.0578,0.85649 0.38683,0.97265 0.41558,0.14672 2.05737,-1.12906 2.5916,-1.19769 1.85091,-0.23777 3.74841,-0.55238 5.46851,-1.32601 1.17126,-0.52679 2.21284,-1.47569 3.42376,-1.96761 0.67785,-0.27537 1.35933,-0.31234 2.04474,-0.5347 1.7282,-0.56065 3.22282,-1.40994 4.89789,-2.03178 1.93307,-0.71763 3.8933,-1.65314 5.87271,-2.22427 1.73879,-0.5017 4.35223,-0.30055 5.73004,-1.53988 0.26019,-0.23403 0.47783,-0.772 0.76084,-1.02658 0.59836,-0.53825 3.43914,-0.87547 4.58879,-1.24046 0.75243,-0.23889 1.33859,-0.77947 2.13985,-1.02658 1.66957,-0.51492 2.98443,-0.75829 4.77899,-1.24047 0.62935,-0.16909 0.87203,-0.8014 1.49791,-1.02658 0.4911,-0.17669 1.28456,-0.0423 1.80698,-0.14972 0.67372,-0.13852 1.27448,-0.63367 1.90209,-0.76993 0.64556,-0.14017 1.31841,-0.13038 1.94965,-0.36359 0.69027,-0.25502 0.80015,-0.70547 1.42655,-1.04797 0.51596,-0.28211 1.10231,-0.42099 1.61679,-0.70578 0.86077,-0.47649 1.89325,-1.93508 2.75802,-2.60924 0.7458,-0.58144 1.63099,-0.9077 2.44895,-1.36878 0.70604,-0.398 1.25588,-1.04621 1.94964,-1.43295 1.11532,-0.62174 2.34632,-0.75861 3.49509,-1.28323 1.13604,-0.51881 2.01462,-1.46304 3.16222,-1.92485 2.12215,-0.85398 4.32769,-1.51014 6.39578,-2.5023 1.19411,-0.57289 2.06152,-1.61681 3.30488,-2.13873 1.12003,-0.47017 2.20895,-1.00012 3.35243,-1.41156 1.20364,-0.43307 2.41289,-0.5018 3.49509,-1.21907 1.71805,-1.1387 2.98934,-0.98344 4.80277,-1.75375 0.38486,-0.16348 0.67379,-0.493 1.04616,-0.68439 1.20222,-0.61796 2.60221,-0.92398 3.85173,-1.43295 0.86934,-0.3541 1.55757,-0.90124 2.30629,-1.43294 0.27691,-0.19665 0.6748,-0.24443 0.97483,-0.40636 0.37685,-0.20339 0.63058,-0.53177 0.97481,-0.76994 1.32847,-0.91923 3.25773,-1.62463 4.77901,-2.1601 0.68672,-0.24173 4.12988,-2.1844 4.39856,-1.53988" />
    <path
       style="fill:none;stroke:#000000;stroke-width:0.264583px;stroke-linecap:butt;stroke-linejoin:miter;stroke-opacity:1"
       d="m 321.28417,105.02657 c 2.16451,-2.06198 4.3824,-4.08293 6.30878,-6.375979 0.66118,-0.787029 1.28493,-1.606254 1.85163,-2.464349 0.48374,-0.732481 0.96585,-1.475269 1.5839,-2.103921 0.2553,-0.259678 0.52696,-0.502438 0.79202,-0.752015 0.82467,-0.776498 1.65081,-1.554212 2.54428,-2.253216 0.22382,-0.175105 0.46601,-0.325703 0.72122,-0.450919 0.54737,-0.268557 1.13585,-0.456396 1.64661,-0.797635 0.64337,-0.429835 1.16488,-1.007071 1.71976,-1.539408 0.69999,-0.67155 1.52613,-1.199513 2.38984,-1.634383 1.50552,-0.758016 3.1219,-1.254109 4.72128,-1.768961 0.91501,-0.294549 1.88498,-0.348593 2.8399,-0.343621 1.11149,0.0058 2.22726,0.05963 3.33491,-0.08056 0.5125,-0.06486 1.03533,-0.111115 1.54904,-0.02915 0.17079,0.02725 0.33082,0.09395 0.49351,0.151504 0.34381,0.121628 0.69259,0.234127 1.05019,0.305326 0.0849,0.0169 0.22398,0.119897 0.2572,0.03933 0.0206,-0.04996 -0.10141,-0.0886 -0.1508,-0.111823 -0.0647,-0.03042 -0.13024,-0.0589 -0.19604,-0.0868"
       id="path79"
       inkscape:path-effect="#path-effect81"
       inkscape:original-d="m 321.28417,105.02657 c 2.6229,-2.4991 5.46317,-5.067184 7.61257,-8.041696 0.79663,-1.102415 1.35985,-2.202394 2.40141,-3.165311 0.98644,-0.911989 2.14077,-2.07405 3.23355,-2.865887 0.65614,-0.475467 1.44328,-0.637093 2.11606,-1.069361 0.91474,-0.587743 1.51379,-1.411063 2.35384,-2.074561 1.86338,-1.471718 4.30107,-2.181116 6.51465,-2.908662 2.01501,-0.662274 4.088,-0.148858 6.13426,-0.427744 0.61216,-0.08344 1.49259,-0.173487 2.06851,0.08555 0.29594,0.133109 2.15455,0.650367 1.02238,0.171098" />
    <path
       style="fill:none;stroke:#000000;stroke-width:0.264583px;stroke-linecap:butt;stroke-linejoin:miter;stroke-opacity:1"
       d="m 38.037984,207.01787 c 0.12644,0.0891 0.209774,0.24378 0.187007,0.40072 -0.03417,0.23558 -0.190151,0.43178 -0.351748,0.59596 -0.385697,0.39185 -0.851353,0.69453 -1.326556,0.96537 -0.89014,0.50734 -1.857225,0.85586 -2.809247,1.23152 -0.351961,0.13888 -0.602638,0.43295 -0.880537,0.67601 -0.15434,0.13499 -0.33546,0.23279 -0.520193,0.31995 -0.961136,0.4535 -1.986322,0.75764 -3.022536,0.98294 -0.873842,0.19 -1.759357,0.33242 -2.652988,0.38694 -1.637408,0.0999 -3.287437,-0.02 -4.916013,0.22234 -0.668445,0.0994 -1.322374,0.27843 -1.960214,0.50117 -2.461993,0.85974 -4.752943,2.12413 -7.029197,3.38032 -2.248753,1.24101 -4.5072311,2.50286 -6.9420023,3.34453 -1.343384,0.46439 -2.7454471,0.75037 -4.0635014,1.28854 -0.5840664,0.23848 -1.14394941,0.54573 -1.62922456,0.95487 -0.26100974,0.22006 -0.53109737,0.44023 -0.85303146,0.56549 -0.35017668,0.13625 -0.70563458,0.25928 -1.06549368,0.36691 -0.2175929,0.0651 -0.5232271,0.35447 -0.6596571,0.17255 -0.017234,-0.023 0.091136,-0.0558 0.1272925,-0.0721 0.8587746,-0.38578 1.74889783,-0.72179 2.53550793,-1.24782 0.20307264,-0.1358 0.39808371,-0.28377 0.58232578,-0.44423"
       id="path120"
       inkscape:path-effect="#path-effect122"
       inkscape:original-d="m 38.037984,207.01787 c 0.896554,0.68027 -1.520333,2.2628 -4.240435,3.17162 -0.522623,0.17462 -0.790869,0.68234 -1.287478,0.93293 -1.327439,0.66983 -3.070207,1.09202 -4.541946,1.31899 -2.687752,0.4145 -5.154487,-0.14749 -7.832179,0.73989 -5.010017,1.66032 -9.23168,5.01363 -14.1622833,6.78789 -1.9343944,0.69608 -4.4294342,1.0911 -5.75790068,2.21973 -0.76723104,0.65182 -0.75232921,0.58284 -1.96698692,0.99728 -0.2202925,0.0752 -0.8917961,0.25631 -0.6795076,0.16085 1.2346401,-0.55516 2.28928857,-0.92812 3.21871021,-1.73719" />
  </g>
</svg>
