<?xml version="1.0" encoding="UTF-8" standalone="no"?>
<!-- Created with Inkscape (http://www.inkscape.org/) -->

<svg
   width="353.56799mm"
   height="264.16mm"
   viewBox="0 0 353.56799 264.16"
   version="1.1"
   id="svg5"
   inkscape:version="1.1.2 (08b2f3d93c, 2022-04-05)"
   sodipodi:docname="MuscularInterna.svg"
   xmlns:inkscape="http://www.inkscape.org/namespaces/inkscape"
   xmlns:sodipodi="http://sodipodi.sourceforge.net/DTD/sodipodi-0.dtd"
   xmlns="http://www.w3.org/2000/svg"
   xmlns:svg="http://www.w3.org/2000/svg">
  <sodipodi:namedview
     id="namedview7"
     pagecolor="#ffffff"
     bordercolor="#666666"
     borderopacity="1.0"
     inkscape:pageshadow="2"
     inkscape:pageopacity="0.0"
     inkscape:pagecheckerboard="0"
     inkscape:document-units="mm"
     showgrid="false"
     inkscape:zoom="0.35455254"
     inkscape:cx="784.0869"
     inkscape:cy="351.14683"
     inkscape:window-width="1366"
     inkscape:window-height="704"
     inkscape:window-x="0"
     inkscape:window-y="27"
     inkscape:window-maximized="1"
     inkscape:current-layer="layer2" />
  <defs
     id="defs2">
    <inkscape:path-effect
       effect="simplify"
       id="path-effect239"
       is_visible="true"
       lpeversion="1"
       steps="1"
       threshold="0.000408163"
       smooth_angles="360"
       helper_size="0"
       simplify_individual_paths="false"
       simplify_just_coalesce="false" />
    <inkscape:path-effect
       effect="simplify"
       id="path-effect235"
       is_visible="true"
       lpeversion="1"
       steps="1"
       threshold="0.000408163"
       smooth_angles="360"
       helper_size="0"
       simplify_individual_paths="false"
       simplify_just_coalesce="false" />
    <inkscape:path-effect
       effect="simplify"
       id="path-effect231"
       is_visible="true"
       lpeversion="1"
       steps="1"
       threshold="0.000408163"
       smooth_angles="360"
       helper_size="0"
       simplify_individual_paths="false"
       simplify_just_coalesce="false" />
    <inkscape:path-effect
       effect="simplify"
       id="path-effect227"
       is_visible="true"
       lpeversion="1"
       steps="1"
       threshold="0.000408163"
       smooth_angles="360"
       helper_size="0"
       simplify_individual_paths="false"
       simplify_just_coalesce="false" />
    <inkscape:path-effect
       effect="simplify"
       id="path-effect223"
       is_visible="true"
       lpeversion="1"
       steps="1"
       threshold="0.000408163"
       smooth_angles="360"
       helper_size="0"
       simplify_individual_paths="false"
       simplify_just_coalesce="false" />
    <inkscape:path-effect
       effect="simplify"
       id="path-effect219"
       is_visible="true"
       lpeversion="1"
       steps="1"
       threshold="0.000408163"
       smooth_angles="360"
       helper_size="0"
       simplify_individual_paths="false"
       simplify_just_coalesce="false" />
    <inkscape:path-effect
       effect="simplify"
       id="path-effect215"
       is_visible="true"
       lpeversion="1"
       steps="1"
       threshold="0.000408163"
       smooth_angles="360"
       helper_size="0"
       simplify_individual_paths="false"
       simplify_just_coalesce="false" />
    <inkscape:path-effect
       effect="simplify"
       id="path-effect211"
       is_visible="true"
       lpeversion="1"
       steps="1"
       threshold="0.000408163"
       smooth_angles="360"
       helper_size="0"
       simplify_individual_paths="false"
       simplify_just_coalesce="false" />
    <inkscape:path-effect
       effect="simplify"
       id="path-effect207"
       is_visible="true"
       lpeversion="1"
       steps="1"
       threshold="0.000408163"
       smooth_angles="360"
       helper_size="0"
       simplify_individual_paths="false"
       simplify_just_coalesce="false" />
    <inkscape:path-effect
       effect="simplify"
       id="path-effect57"
       is_visible="true"
       lpeversion="1"
       steps="1"
       threshold="0.000408163"
       smooth_angles="360"
       helper_size="0"
       simplify_individual_paths="false"
       simplify_just_coalesce="false" />
  </defs>
  <g
     inkscape:groupmode="layer"
     id="layer2"
     inkscape:label="Muscular Interna">
    <path
       style="fill:none;stroke:#000000;stroke-width:0.264583px;stroke-linecap:butt;stroke-linejoin:miter;stroke-opacity:1"
       d="m 354.54775,133.94305 c -0.85098,0.002 -1.65202,0.37946 -2.31553,0.89311 -0.54715,0.42357 -1.09955,0.85144 -1.55678,1.36961 -0.17895,0.2028 -0.26393,0.48091 -0.52366,0.62027 -1.23065,0.66031 -2.6,0.97828 -3.88147,1.52228 -0.79171,0.33609 -1.6185,0.72543 -2.49624,0.66765 -0.23911,-0.0157 -0.57063,0.0367 -0.69807,-0.1678 -0.12304,-0.19741 0.11951,-0.48908 -0.17717,-0.64236 -0.3469,-0.17922 -0.83555,0.0103 -1.11109,-0.28016 -0.33498,-0.35307 -0.12271,-0.95164 -0.44499,-1.29448 -0.32843,-0.34938 -0.88224,-0.24925 -1.23475,-0.57683 -0.54616,-0.50754 -0.72823,-1.32992 -1.3734,-1.73682 -0.54438,-0.34333 -1.19964,-0.44751 -1.7362,-0.81377 -0.44319,-0.30252 -0.87486,-0.62041 -1.3547,-0.86923 -1.0432,-0.54095 -2.02517,-1.28944 -3.19716,-1.49826 -0.63085,-0.1124 -1.27378,0.0335 -1.90684,-0.10578 -0.80729,-0.17762 -1.59981,-0.43973 -2.43902,-0.45763 -1.05862,-0.0226 -2.12849,0.11657 -3.17758,-0.055 -0.3576,-0.0585 -0.72979,-0.11948 -1.08688,0.0123 -0.82236,0.3036 -1.55235,0.80514 -2.26711,1.30402 -0.20537,0.14334 -0.29778,0.38121 -0.33812,0.62191 -0.0452,0.26951 -0.16482,0.54259 -0.42575,0.66321 -0.25556,0.11814 -0.23194,0.42008 -0.25738,0.65349 -0.0688,0.63113 -0.41433,1.31581 -0.16134,1.89871 0.091,0.20958 0.34958,0.28979 0.55404,0.34818 0.59442,0.16974 0.9353,0.73485 1.4231,1.06995 0.71673,0.49236 1.66191,0.45071 2.36957,0.97018 0.45305,0.33257 0.87963,0.70462 1.38873,0.95643 0.69457,0.34355 1.48578,0.59466 1.98454,1.21912 0.29119,0.36458 0.67069,0.71402 0.75554,1.18706 0.10093,0.56267 -0.12738,1.12642 0.007,1.69252 0.25579,1.07356 0.89385,2.04239 0.97067,3.1598 0.0331,0.48101 -0.10556,0.98292 -0.45726,1.33465 -0.51694,0.51698 -1.20999,0.83307 -1.64587,1.44095 -0.51631,0.72006 -0.89208,1.52511 -1.25796,2.32726 -0.22851,0.50098 -0.13592,1.07928 -0.39831,1.57705 -0.82487,1.56483 -1.66838,3.12198 -2.59566,4.62832 -0.24435,0.39694 -0.39782,0.88151 -0.76269,1.17295 -0.46825,0.37401 -1.03482,0.60398 -1.59197,0.81053 -1.52004,0.56351 -3.12945,0.82955 -4.67892,1.29465 -0.86671,0.26016 -1.56469,0.87175 -2.41018,1.18728 -0.80286,0.29962 -1.64672,0.52761 -2.50126,0.55678 -0.84135,0.0287 -1.63063,-0.31525 -2.40445,-0.59731 -0.5088,-0.18546 -1.03972,-0.31231 -1.58419,-0.33078 -1.28027,-0.0434 -2.57691,-0.0496 -3.83596,0.19449 -0.48021,0.0931 -1.03077,0.12409 -1.40028,0.46155 -0.36259,0.33114 -0.52963,0.80899 -0.7288,1.24399 -0.16032,0.35015 -0.42299,0.63479 -0.71862,0.88074 -0.51214,0.42607 -1.16684,0.72838 -1.52168,1.30137 -0.63437,1.02439 -1.13956,2.15113 -1.97144,3.0346 -0.40043,0.42526 -0.94315,0.74768 -1.19125,1.29103 -0.18109,0.3966 -0.20938,0.85333 -0.49117,1.20946 -0.36292,0.45866 -0.70783,0.9397 -1.13792,1.33725 -1.16364,1.0756 -2.42329,2.26533 -3.99483,2.54849 -0.24625,0.0444 -0.63396,0.35706 -0.76472,0.13519 -0.14339,-0.2433 -0.40726,-0.36769 -0.64419,-0.50045 -0.46483,-0.26047 -1.00196,-0.40054 -1.54356,-0.32974 -1.4832,0.1939 -2.86552,0.89055 -4.3596,0.99302 -0.79481,0.0545 -1.57923,-0.14488 -2.37702,-0.0836 -0.45881,0.0353 -0.92854,0.007 -1.36022,-0.1748 -0.71933,-0.30283 -1.4721,-0.57271 -2.0971,-1.03917 -0.49102,-0.36647 -0.66679,-0.99336 -1.10554,-1.41143 -0.30215,-0.28791 -0.58452,-0.60101 -0.76509,-0.98476 -0.50108,-1.06489 -0.81769,-2.2178 -0.94387,-3.3867 -0.0818,-0.75767 -0.0453,-1.5513 0.29532,-2.25034 0.45466,-0.93323 1.22361,-1.65173 1.7945,-2.51013 0.58196,-0.87505 0.93842,-1.89567 1.01825,-2.94506 0.0562,-0.7381 0.0388,-1.48737 -0.13953,-2.21022 -0.13698,-0.55519 -0.23906,-1.12007 -0.24288,-1.69514 -0.002,-0.32201 -0.0457,-0.69882 -0.35931,-0.88098 -0.22332,-0.12973 -0.49588,-0.16167 -0.73881,-0.0477 -0.61274,0.28753 -1.13146,0.74273 -1.59753,1.2239 -0.38685,0.39938 -0.80274,0.79248 -1.06266,1.28967 -0.45284,0.8662 -0.38384,2.02247 -1.08987,2.70886 -0.38317,0.37251 -0.97757,0.32499 -1.39504,0.66162 -1.30808,1.05479 -2.90807,1.62427 -4.42911,2.29022 -1.28581,0.56296 -2.54256,1.28054 -3.47468,2.35443 -0.75014,0.86423 -1.10944,1.97463 -1.723,2.92549 -0.35416,0.54886 -0.71903,1.09859 -0.92513,1.7264 -0.27578,0.84007 -0.40918,1.71914 -0.73395,2.54671 -0.31524,0.80328 -0.83505,1.52657 -1.06396,2.35751 -0.16068,0.58326 -0.0997,1.22035 -0.40139,1.76866 -0.38457,0.69885 -1.03199,1.20014 -1.424,1.89905 -0.35685,0.63622 -0.60424,1.33982 -1.10337,1.89045 -0.83907,0.92565 -1.81784,1.71621 -2.84274,2.42442 -0.71764,0.49589 -1.43655,1.01632 -2.25252,1.33364 -0.7297,0.28377 -1.56802,0.25649 -2.24662,0.6596 -0.85366,0.5071 -1.24474,1.55198 -2.1575,1.97824 -0.50737,0.23694 -1.00029,0.49997 -1.50612,0.74298 -0.80328,0.38592 -1.70655,0.61418 -2.59476,0.54722 -0.58455,-0.0441 -1.73712,-0.83503 -1.73969,-0.24945 -5.3e-4,0.12066 0.0434,0.23773 0.0715,0.35388"
       id="path205"
       inkscape:path-effect="#path-effect207"
       inkscape:original-d="m 354.54775,133.94305 c -1.69958,0.0314 -2.67264,1.21929 -3.84456,2.23581 -0.14978,0.1299 -0.26945,0.48763 -0.42918,0.57906 -1.03441,0.5921 -2.29502,0.90119 -3.39751,1.33506 -1.04516,0.41131 -2.5822,1.27949 -3.77304,0.77208 -0.16976,-0.0723 0.0487,-0.44041 -0.0715,-0.56297 -0.31041,-0.31645 -1.01248,-0.11301 -1.2696,-0.40213 -0.2686,-0.30203 -0.18912,-0.88969 -0.37552,-1.20638 -0.21013,-0.35702 -0.8355,-0.31333 -1.14443,-0.5308 -0.59899,-0.42167 -0.85304,-1.39733 -1.4663,-1.81761 -0.43957,-0.30126 -0.98446,-0.39791 -1.4484,-0.6434 -0.51547,-0.27273 -0.95682,-0.70155 -1.48418,-0.9651 -1.06546,-0.53244 -2.13368,-1.27657 -3.29023,-1.57633 -0.56674,-0.14689 -1.17713,0.0137 -1.75242,-0.0804 -0.79658,-0.13028 -1.58686,-0.46628 -2.39614,-0.49864 -1.0799,-0.0432 -2.17334,0.0651 -3.25446,-0.0322 -0.30818,-0.0277 -0.81983,-0.1724 -1.12654,-0.0804 -0.79809,0.23932 -1.62663,0.78269 -2.30674,1.25463 -0.60061,0.41677 -0.36206,0.57262 -0.60799,1.10987 -0.0976,0.21315 -0.36446,0.27297 -0.48281,0.45038 -0.055,0.0825 -0.28845,2.34068 -0.23246,2.42884 0.12755,0.20078 0.69093,0.33749 0.85833,0.4343 0.4005,0.23159 0.69146,0.59316 1.03714,0.88467 0.51081,0.43077 1.43031,0.50159 2.03851,0.78817 0.50877,0.23972 0.89771,0.67018 1.37689,0.9651 0.89435,0.55043 1.77163,0.68099 2.46767,1.52807 0.23426,0.28508 0.59676,0.70808 0.6795,1.06161 0.12001,0.51277 -0.1052,1.03663 -0.018,1.56025 0.21143,1.26786 1.37776,2.8608 0.8941,4.16602 -0.26228,0.70779 -1.28039,1.11467 -1.7703,1.67285 -0.61798,0.70413 -0.98213,1.70258 -1.43052,2.50926 -0.28067,0.50492 -0.14512,1.03066 -0.37552,1.52807 -0.29821,0.64378 -3.11817,5.72061 -3.46906,5.98363 -1.23754,0.92768 -4.56144,1.67043 -6.07976,2.02671 -0.81782,0.19191 -1.44195,0.737 -2.19945,1.0777 -0.84548,0.38027 -1.78393,0.57202 -2.70013,0.69165 -1.15048,0.15024 -2.49359,-0.70089 -3.61211,-0.86858 -0.87998,-0.13193 -4.8899,-0.10597 -5.77578,0.61123 -0.43063,0.34863 -0.64907,1.3278 -1.09077,1.80152 -0.47445,0.50884 -1.59041,1.13565 -1.93122,1.70501 -0.55216,0.92243 -1.06344,1.91448 -1.75241,2.76663 -0.36854,0.45585 -0.93732,0.82081 -1.26961,1.31897 -0.2132,0.31964 -0.24384,0.78711 -0.41127,1.12595 -0.0977,0.19772 -1.03267,1.32188 -1.21594,1.49591 -1.26442,1.20057 -2.98874,2.43094 -4.73866,2.81488 -0.11745,0.0258 -0.16989,-0.17205 -0.26821,-0.24128 -0.49729,-0.35007 -1.18253,-0.72359 -1.82393,-0.65948 -1.46677,0.14659 -2.9173,0.79469 -4.38103,0.99727 -0.65727,0.091 -1.30955,-0.0577 -1.96699,-0.0804 -0.51186,-0.0177 -1.08429,0.0982 -1.59147,-0.0322 -0.51996,-0.13365 -1.80451,-0.80665 -2.39614,-1.12595 -0.34801,-0.18783 -0.62947,-0.74533 -0.84043,-1.06161 -0.27551,-0.41306 -0.72215,-0.68793 -0.96562,-1.12595 -0.69091,-1.24299 -1.35982,-3.81588 -1.01925,-5.21155 0.25246,-1.03455 0.93183,-1.70254 1.55572,-2.50927 1.19539,-1.54573 1.58896,-2.8364 1.51993,-4.76116 -0.0285,-0.79387 -0.29509,-1.41907 -0.3755,-2.17148 -0.0858,-0.80223 0.14229,-1.39954 -0.71528,-1.59241 -0.70365,-0.15826 -2.66546,1.86125 -3.00413,2.46101 -0.49472,0.87612 -0.59613,1.90218 -1.10865,2.76661 -0.22368,0.37726 -1.00947,0.37126 -1.35901,0.65949 -2.38924,1.97009 -5.54702,2.18448 -7.72489,4.42338 -0.85414,0.87809 -1.20713,1.80014 -1.77028,2.84705 -0.28927,0.53776 -0.67161,1.00274 -0.92985,1.56025 -0.40818,0.88119 -0.47464,1.73946 -0.76891,2.60577 -0.3137,0.92349 -0.80713,1.83921 -1.19808,2.71838 -0.16737,0.3764 -0.1355,1.09907 -0.2861,1.52806 -0.28552,0.81328 -0.91949,1.23376 -1.39478,1.94629 -0.32382,0.48547 -0.55038,1.08104 -0.84043,1.59242 -0.73646,1.2984 -4.02003,3.71271 -5.45392,4.32687 -0.63826,0.27339 -1.45783,0.32882 -2.12792,0.59515 -0.92777,0.36875 -1.40487,1.60385 -2.32461,2.05888 -0.4531,0.22416 -0.91802,0.39504 -1.35901,0.65949 -0.76483,0.45865 -2.1223,0.75197 -3.05777,0.62732 -0.1355,-0.018 -1.46065,-0.24806 -1.4663,-0.2252 -0.0141,0.0571 0.0662,0.33309 0.0715,0.35388" />
    <path
       style="fill:none;stroke:#000000;stroke-width:0.264583px;stroke-linecap:butt;stroke-linejoin:miter;stroke-opacity:1"
       d="m 240.53353,189.29152 c 0.51902,0.0794 2.08087,0.31882 1.55661,0.24952 -0.71222,-0.0941 -1.4151,-0.26019 -2.14451,-0.24371 -0.30274,0.007 -0.60895,0.0661 -0.90954,-0.0215 -0.97202,-0.28333 -1.98462,-0.47388 -2.89747,-0.91193 -2.16193,-1.03745 -4.0856,-2.53951 -6.34332,-3.38118 -1.92674,-0.71828 -4.04325,-0.73362 -5.9363,-1.57598 -0.30485,-0.13565 -0.60018,-0.30611 -0.81699,-0.56546 -0.1878,-0.22465 -0.42097,-0.39926 -0.66546,-0.55949 -0.53727,-0.35211 -1.14593,-0.60015 -1.64456,-1.00386 -0.48952,-0.39633 -0.85246,-0.94747 -1.3887,-1.27801 -0.21825,-0.13453 -0.0874,0.28747 -0.0809,0.40695 0.07,1.27194 -0.14581,2.55167 0.001,3.817 0.10507,0.90294 0.70045,1.70488 0.64639,2.62992 -0.0387,0.66285 -0.38981,1.33007 -0.19346,1.98387 0.26629,0.88669 0.65603,1.74847 0.7403,2.68243 0.035,0.38834 -0.0893,0.7916 -0.38037,1.06228 -0.44933,0.41786 -1.1052,0.44969 -1.68689,0.4325 -0.75795,-0.0224 -1.51113,-0.24389 -2.26817,-0.158 -1.53478,0.17413 -3.06299,0.42021 -4.60831,0.49596 -0.35721,0.0175 -0.70963,-0.0457 -1.05042,-0.1556 -1.49407,-0.48189 -2.76713,-1.4932 -4.28914,-1.89328 -0.95281,-0.25046 -1.96559,-0.29038 -2.86622,-0.72765 -0.73158,-0.35519 -1.41875,-0.80375 -2.19595,-1.06405 -1.37399,-0.46017 -2.82559,-0.61166 -4.20411,-1.06411 -1.1993,-0.39363 -2.39772,-0.86728 -3.67126,-0.94704 -0.56841,-0.0356 -1.13585,0.0901 -1.65271,0.32697 -0.50312,0.23058 -1.054,0.39915 -1.62093,0.3089 -0.62604,-0.0997 -1.2475,-0.3617 -1.89342,-0.24668 -0.25176,0.0448 -0.45517,0.21159 -0.53077,0.46889 -0.18725,0.63728 -0.2401,1.30587 -0.28356,1.9678 -0.0254,0.38674 0.3546,0.63536 0.43493,0.98573 0.12197,0.53201 0.0247,1.102 0.25976,1.61211 0.13947,0.30267 0.24733,0.62167 0.23978,0.96567 -0.0124,0.56375 -0.27106,1.17444 -0.0448,1.69165 0.17762,0.40609 0.29625,0.83818 0.35498,1.27865 0.13049,0.9786 0.10566,1.96852 0.21369,2.94999 0.0459,0.41675 0.006,0.87495 0.21697,1.24359 0.1379,0.24113 0.48858,0.38888 0.49416,0.66535 0.01,0.48519 -0.37451,0.86251 -0.77292,1.078 -0.86793,0.46943 -1.85684,0.62614 -2.81202,0.82249 -0.53457,0.10989 -1.05349,0.2848 -1.57502,0.45027 -0.16046,0.0509 0.0314,0.14875 -0.18887,0.17831 -2.46116,0.33031 -4.93038,0.75237 -7.41318,0.72145 -0.39747,-0.005 -0.75739,-0.18895 -1.15508,-0.22851 -1.16366,-0.11575 -2.3392,-0.20355 -3.50335,-0.10234 -0.65772,0.0572 -1.27717,0.35783 -1.94969,0.32268 -0.17621,-0.009 -0.61348,-0.2742 -0.53204,-0.27255 0.0888,0.002 0.42051,0.0125 0.16688,-0.0684 -0.50648,-0.16153 -1.04763,-0.15878 -1.5739,-0.18324 -0.26532,-0.0123 -1.061,-0.034 -0.79779,-0.0199 0.0823,0.004 0.28701,-0.0255 0.0897,-0.0174 -0.43148,0.0179 -0.90008,-0.0748 -1.22891,-0.34767 -0.14639,-0.12147 -0.17859,-0.28958 -0.42593,-0.31636 -0.81695,-0.0884 -1.63974,-0.0854 -2.46053,-0.0529 -0.67273,0.0267 -2.68337,0.0911 -2.02129,-0.039 0.13297,-0.0261 0.58645,-0.0863 0.28819,-0.2266 -0.37545,-0.17663 -0.80114,-0.19683 -1.20825,-0.23488 -0.43449,-0.0406 -1.17406,0.34348 -1.30712,-0.0704 -0.0422,-0.13139 0.16694,-0.32665 -0.10317,-0.37302 -0.69525,-0.11935 -1.40042,0.0347 -2.09945,-0.0962 -0.85714,-0.16058 -1.71965,-0.39953 -2.45155,-0.86166 -0.25424,-0.16053 -0.42866,-0.40817 -0.71866,-0.53806 -1.4024,-0.62814 -2.78603,-1.3385 -3.94848,-2.33778 -0.1853,-0.15929 -0.27674,-0.42094 -0.48228,-0.54745 -0.56643,-0.34865 -1.21727,-0.52772 -1.85284,-0.70264 -1.48918,-0.40985 -2.99494,-0.76829 -4.5199,-1.00525 -0.39411,-0.0612 -0.81156,-0.1345 -1.20378,-0.009 -0.28195,0.0905 -0.18843,0.40858 -0.0942,0.60889 0.11627,0.24716 0.24072,0.49206 0.2575,0.77458 0.0533,0.89756 -0.0595,1.79634 -0.20507,2.67957 -0.10225,0.62039 -0.16206,1.25482 -0.39924,1.84401 -0.47963,1.19149 -1.17542,2.28263 -1.91774,3.3246 -0.74579,1.04684 -1.39487,3.78569 -2.41642,3.00384 -0.23768,-0.18191 -0.48845,0.0768 -0.69521,0.1992 -1.0337,0.61218 -2.00424,1.3852 -3.19477,1.68246 -2.1172,0.52864 -4.29489,0.80734 -6.36792,1.52005 -0.43874,0.15084 -0.84779,0.38193 -1.29063,0.51732 -0.32682,0.0999 -0.68001,0.18051 -0.91908,0.46736 -0.2377,0.2852 -0.35486,0.63945 -0.45348,0.99326 -0.0308,0.11061 -0.0629,0.22089 -0.0968,0.33059"
       id="path209"
       inkscape:path-effect="#path-effect211"
       inkscape:original-d="m 240.53353,189.29152 c 0.48763,0.0732 0.98771,0.0879 1.46288,0.21962 0.47516,0.13174 -0.97117,-0.18276 -1.46288,-0.21962 -0.41745,-0.0313 -0.83653,0.0395 -1.25514,0.0427 -0.13871,0.001 -2.97641,-0.89013 -3.16505,-0.98118 -2.08444,-1.00612 -3.99143,-2.45788 -6.16918,-3.31351 -2.11327,-0.8303 -4.39521,-0.709 -6.41952,-1.80153 -0.32502,-0.17542 -0.48599,-0.42226 -0.75103,-0.67557 -0.18134,-0.17332 -1.6103,-1.0432 -1.94911,-1.22246 -0.32373,-0.17129 -1.61536,-1.61762 -1.59146,-1.35114 0.12353,1.37785 -0.0368,2.69332 0.0179,4.06951 0.0351,0.88335 0.6336,1.75511 0.66163,2.63794 0.0208,0.65432 -0.37814,1.54627 -0.17883,2.20365 0.26396,0.87058 1.03648,2.55872 0.59011,3.36177 -0.7432,1.33706 -3.01347,0.47294 -4.2022,0.59514 -1.06121,0.1091 -4.44431,0.65797 -5.2751,0.45039 -1.49888,-0.37452 -2.86482,-1.39026 -4.32736,-1.89804 -0.91093,-0.31626 -1.91118,-0.3214 -2.80743,-0.65948 -0.7319,-0.2761 -1.3843,-0.74706 -2.09215,-1.04553 -1.33759,-0.56401 -2.82223,-0.68001 -4.20219,-1.09378 -1.39981,-0.41973 -3.26447,-1.25167 -4.75653,-1.09378 -0.90395,0.0956 -1.27161,0.52039 -2.09216,0.6434 -0.86363,0.12946 -2.05313,-0.65762 -2.86107,-0.1126 -0.29268,0.19745 -0.53124,2.17258 -0.42916,2.50927 0.0735,0.24246 0.37012,0.58319 0.41128,0.75599 0.0924,0.38809 0.0518,0.79816 0.12518,1.19029 0.0844,0.45088 0.35179,0.74741 0.37551,1.17421 0.0157,0.28185 -0.10111,1.80915 -0.0358,1.94629 0.53934,1.13197 0.37697,2.59575 0.53646,3.973 0.0526,0.45458 0.0601,0.92827 0.1967,1.36722 0.067,0.21522 0.53645,0.6676 0.53645,0.756 0,1.46483 -3.03157,1.72355 -4.22008,2.0428 -1.97693,0.53102 -0.26936,0.37929 -1.44842,0.5308 -2.32739,0.29909 -4.71445,0.52151 -7.06326,0.67557 -0.3214,0.0211 -0.68273,-0.17686 -1.00137,-0.2091 -1.59529,-0.16144 -2.52736,-0.13342 -3.52269,-0.12868 -0.86509,0.004 -1.94966,0.69113 -2.59284,0.11259 -0.30956,-0.10693 0.27008,-0.0144 0.21457,-0.0643 -0.30105,-0.27089 -2.3732,-0.2475 -2.46767,-0.25736 -0.0602,-0.006 0.12358,-0.007 0.17882,-0.0322 0.0438,-0.0197 -0.0951,0.0161 -0.14305,0.0161 -0.23443,0 -0.47744,-0.0495 -0.69739,-0.12868 -1.32777,-0.47777 0.26565,-0.49991 -1.89546,-0.61123 -1.16078,-0.0598 -2.33557,0.14324 -3.48692,-0.0161 -0.0838,-0.0116 0.36994,-0.0414 0.37551,-0.0965 0.0413,-0.40826 -2.49328,-0.42061 -2.59284,-0.43429 -0.11686,-0.0161 0.11464,-0.32611 0,-0.35387 -0.64296,-0.15571 -1.34058,0.0195 -1.98487,-0.0804 -1.03169,-0.16001 -1.7175,-0.53282 -2.64649,-0.88467 -0.22209,-0.0841 -0.36963,-0.39109 -0.62586,-0.49864 -1.43223,-0.60123 -2.63307,-1.66791 -4.05914,-2.38059 -0.10666,-0.0533 -0.47844,-0.54381 -0.4828,-0.54688 -0.93741,-0.65991 -4.42324,-1.31156 -5.63273,-1.56025 -0.48216,-0.0991 -1.81432,-0.4714 -2.12792,-0.0483 -0.15442,0.20835 0.23906,0.75903 0.28611,0.98119 0.187,0.88315 -0.16905,2.99463 -0.32187,3.95691 -0.31251,1.96772 -3.27095,5.81915 -4.57771,7.17392 -0.0334,0.0346 -0.11585,-0.13106 -0.26823,-0.0482 -0.23125,0.12568 -0.45536,0.26417 -0.6795,0.40213 -0.94979,0.58456 -1.77324,1.23571 -2.87895,1.51199 -2.70479,0.67583 -4.88714,0.7906 -7.56395,1.99454 -0.31533,0.14182 -0.78945,0.15408 -1.01926,0.45038 -0.43263,0.5578 -0.37942,0.65927 -0.60798,1.3994" />
    <path
       style="fill:none;stroke:#000000;stroke-width:0.264583px;stroke-linecap:butt;stroke-linejoin:miter;stroke-opacity:1"
       d="m 123.86957,214.58744 c 0.63501,-0.76113 2.45435,-1.45097 1.90615,-2.28383 -0.0722,-0.10966 -0.3176,-0.004 -0.44945,0.0297 -0.6306,0.16139 -1.26773,0.30094 -1.88022,0.527 -0.97683,0.36053 -1.94765,0.78083 -2.99612,0.8927 -1.17245,0.1251 -2.33575,-0.11735 -3.49297,-0.26612 -1.10647,-0.14225 -2.22093,0.002 -3.33076,-0.0396 -1.39268,-0.0517 -2.78323,-0.14037 -4.17,-0.28007 -0.6358,-0.064 -1.17882,-0.43061 -1.72238,-0.73339 -0.32059,-0.17858 -0.66681,-0.30189 -1.02343,-0.39221 -0.63052,-0.15969 -1.37714,-0.0806 -1.892,-0.47793 -0.39141,-0.30207 -0.46936,-0.81812 -0.68853,-1.23356 -0.14749,-0.27957 -0.41501,-0.47 -0.71017,-0.57631 -1.16932,-0.42115 -2.36621,-0.75877 -3.566191,-1.07892 -0.626128,-0.16705 -1.279664,-0.019 -1.889302,0.14463 -0.5305,0.14242 -1.061078,0.29541 -1.612963,0.3373 -0.738817,0.0561 -1.502245,-0.0608 -2.218903,0.14515 -0.406338,0.11676 -0.770177,0.33714 -1.17305,0.46899 -1.121818,0.36713 -2.24419,0.73683 -3.390221,1.01974 -0.694601,0.17147 -1.410854,0.23237 -2.122109,0.28678 -0.446523,0.0342 -0.891873,0.0879 -1.338959,0.11098 -0.33376,0.0172 -0.661219,-0.11548 -0.900565,-0.34834 -0.164322,-0.15987 -0.35682,-0.29571 -0.59469,-0.33308 -0.998725,-0.15692 -2.022429,-0.15993 -3.007031,-0.38888 -0.405659,-0.0943 -0.722697,-0.40057 -1.14053,-0.47106 -0.810206,-0.13669 -1.643001,-0.0624 -2.4437,0.0963 -0.578585,0.11464 -1.141628,0.3048 -1.667069,0.57852 -0.922853,0.48074 -1.850494,0.96063 -2.708613,1.55418 -0.292908,0.2026 -0.521484,0.47782 -0.72754,0.76579 -0.878096,1.22718 -1.177913,2.77825 -2.056844,3.99452 -0.218079,0.30178 -0.666088,0.393 -0.806808,0.74523 -0.147997,0.37045 0.135399,0.75913 -0.01262,1.13494 -0.167291,0.42473 -0.564248,0.70093 -0.726746,1.13395 -0.0808,0.21532 -0.176689,0.45758 -0.414514,0.55374 -1.043477,0.42189 -1.990999,1.06533 -2.802558,1.83694 -0.689262,0.65533 -1.242993,1.45783 -2.041538,1.99569 -0.259459,0.17476 -0.564202,0.25199 -0.86119,0.33839 -1.584625,0.46098 -3.002021,1.37088 -4.618253,1.7449 -1.203762,0.27857 -2.46229,0.40867 -3.585093,0.96127 -0.900905,0.44339 -1.750493,1.00258 -2.721307,1.29582 -1.222054,0.36913 -2.502545,0.56251 -3.664011,1.12397 -1.469722,0.71047 -2.956103,1.38501 -4.442715,2.0594 -0.747618,0.33915 -1.553708,0.52302 -2.316235,0.8218 -0.677521,0.26547 -1.257607,0.72069 -1.940941,0.98047 -1.434244,0.54525 -2.913743,0.95515 -4.370013,1.43614 -0.603261,0.19925 -1.233341,0.34674 -1.790352,0.65222 -0.116388,0.0638 -0.464115,0.0534 -0.418733,0.0973 0.09286,0.0899 0.203051,0.15872 0.30365,0.23917"
       id="path213"
       inkscape:path-effect="#path-effect215"
       inkscape:original-d="m 123.86957,214.58744 c 0.63538,-0.76128 1.37988,-1.44341 1.90615,-2.28383 0.0843,-0.13463 -0.52776,0.0583 -1.30536,0.24128 -1.28695,0.30277 -2.39677,0.98382 -3.73728,1.1742 -1.52944,0.21722 -2.73711,-0.16228 -4.22007,-0.27344 -0.97512,-0.0731 -1.95584,0.0374 -2.9326,0 -1.35539,-0.0519 -2.67142,-0.2278 -4.04126,-0.27344 -0.88687,-0.0296 -1.70692,-0.82631 -2.55708,-1.06161 -0.20201,-0.0559 -2.12857,-0.52058 -2.16368,-0.5469 -0.53948,-0.4044 -0.44657,-1.29745 -1.12655,-1.68892 -0.48384,-0.27855 -3.06969,-0.943 -3.755147,-1.17421 -0.879909,-0.2968 -2.004915,0.15756 -2.861067,0.35387 -0.919808,0.2109 -1.917607,0.0587 -2.843188,0.22519 -0.355185,0.0639 -0.71958,0.30355 -1.055018,0.41821 -1.161071,0.39687 -2.361568,0.68073 -3.504806,1.06161 -0.684826,0.22815 -2.501974,0.33049 -3.379642,0.41821 -1.049065,0.10486 -1.065583,-0.57317 -1.609349,-0.65948 -1.008513,-0.1601 -2.001369,-0.23572 -3.004127,-0.38604 -0.399455,-0.0599 -0.701268,-0.36199 -1.055018,-0.45038 -1.091658,-0.27278 -3.091672,0.0248 -4.059137,0.5308 -0.812043,0.42469 -2.818969,1.40787 -3.361759,2.05888 -1.074629,1.2889 -1.473155,2.89442 -2.306732,4.31079 -0.175827,0.29875 -0.570969,0.43271 -0.786795,0.70774 -0.245678,0.31307 0.05546,0.77033 -0.03577,1.12595 -0.09415,0.36705 -0.420346,0.63065 -0.625856,0.94902 -0.173736,0.26915 -0.203221,0.70141 -0.500684,0.82033 -1.006194,0.40226 -1.822484,0.97293 -2.664373,1.68893 -0.880993,0.74925 -1.712258,2.14279 -2.825305,2.42884 -1.41401,0.36339 -2.607244,1.08886 -3.969734,1.56025 -1.270855,0.43968 -2.666865,0.49958 -3.951846,0.98118 -0.972997,0.36468 -1.909617,1.07489 -2.95048,1.43157 -1.200729,0.41146 -2.674731,0.58562 -3.808798,1.14203 -1.452462,0.71262 -2.956891,1.3468 -4.398891,2.0428 -0.755957,0.36487 -1.577232,0.61797 -2.378266,0.8686 -0.655164,0.20498 -1.234607,0.69199 -1.877573,0.94901 -1.304351,0.52141 -2.793995,0.91439 -4.130667,1.36723 -0.654029,0.22157 -1.274072,0.42255 -1.91334,0.67557 -0.291555,0.1154 -0.379092,0.1615 -0.643742,0.20911 -0.0089,0.002 -0.127243,-0.002 -0.125171,0 0.09578,0.0985 0.214579,0.17157 0.32187,0.25735" />
    <path
       style="fill:none;stroke:#000000;stroke-width:0.264583px;stroke-linecap:butt;stroke-linejoin:miter;stroke-opacity:1"
       d="m 33.631433,235.78776 c -0.478079,-0.0192 -0.949968,0.1327 -1.355806,0.37989 -0.653099,0.3978 -1.164948,0.97543 -1.742842,1.46761 -0.388142,0.33057 -0.826509,0.61575 -1.323406,0.75547 -1.020766,0.28703 -2.104419,0.27364 -3.142615,0.0928 -1.148064,-0.20002 -2.280527,-0.52886 -3.327101,-1.03472 -0.213036,-0.10297 -0.325133,-0.32814 -0.406041,-0.53876 -0.133205,-0.34676 -0.20492,-0.71894 -0.39486,-1.04284 -0.09101,-0.15519 -0.235262,-0.26877 -0.391038,-0.35474 -0.470893,-0.25987 -0.994527,-0.4183 -1.446617,-0.71161 -0.135944,-0.0882 -0.295415,-0.17722 -0.355619,-0.33238 -0.05283,-0.13614 0.0211,-0.27624 0.0704,-0.40179 0.03554,-0.0905 0.144424,-0.23941 0.05341,-0.28953 -0.117227,-0.0645 -0.244514,-0.11013 -0.368869,-0.15948 -1.002757,-0.39793 -1.957308,-0.97641 -3.019538,-1.16472 -0.07237,-0.0128 -0.109051,-0.076 -0.116624,-0.14784 -0.0087,-0.0827 -0.01048,-0.17328 -0.07528,-0.23923 -0.414941,-0.42234 -0.830095,-0.84589 -1.277733,-1.23406 -0.159382,-0.13821 -0.332404,-0.2633 -0.528505,-0.34512 -0.493282,-0.20581 -1.046352,-0.23487 -1.523547,-0.48223 -0.161162,-0.0835 -0.336467,-0.17886 -0.422727,-0.3402 -0.06603,-0.12351 -0.02372,-0.26867 0.0024,-0.39741 0.02613,-0.1289 0.09227,-0.26685 0.04498,-0.39493 -0.06197,-0.16782 -0.180576,-0.30745 -0.297926,-0.43912 -0.245582,-0.27554 -0.52044,-0.52391 -0.808463,-0.75501 -0.09736,-0.0781 -0.211366,-0.12942 -0.327309,-0.17348 -0.569616,-0.21648 -1.1565825,-0.38753 -1.7515752,-0.51735 -0.5251103,-0.11457 -1.0594964,-0.22637 -1.5986522,-0.20828 -0.2304338,0.008 -0.4855822,0.0103 -0.6761007,0.15018 -0.1503883,0.11038 -0.2673242,0.2612 -0.3639154,0.41912 -0.31507,0.51511 -0.4326976,1.118 -0.6917082,1.6589 -0.1501965,0.31366 -0.3720035,0.58558 -0.5940935,0.85041 -0.1554187,0.18533 -0.3643117,0.33482 -0.4713895,0.55166 -0.065391,0.13242 -0.096721,0.27872 -0.1308139,0.42154 -0.189244,0.79279 -0.3161984,1.59932 -0.5098489,2.39095 -0.062068,0.25373 -0.1481176,0.50062 -0.2150826,0.75323 -0.1593954,0.60128 -0.2527505,1.22788 -0.1925719,1.85055 0.05218,0.53991 0.1790869,1.06888 0.2443796,1.60716 0.053899,0.44435 0.1876987,0.90692 0.075458,1.34012 -0.032317,0.12473 -0.136012,0.21292 -0.2298492,0.29327 -0.2325464,0.19913 -0.5184756,0.33434 -0.7288028,0.55702 -0.2393236,0.25338 -0.4370049,0.54252 -0.6282201,0.83287 -0.3176433,0.48232 -0.6330995,0.97729 -1.0681672,1.36446 -0.2975606,0.2648 -0.64029997,0.47097 -0.97213482,0.68879 -0.47418268,0.31126 -0.95601007,0.6369 -1.30476086,1.09213 -0.14606274,0.19066 -0.26416721,0.40345 -0.34090727,0.63136"
       id="path221"
       inkscape:path-effect="#path-effect223"
       inkscape:original-d="m 33.631433,235.78776 c -1.85778,-0.0575 -2.736903,2.09869 -4.320614,2.57358 -2.161061,0.64803 -4.516865,-0.0589 -6.544695,-0.90075 -0.574632,-0.23857 -0.493808,-1.36044 -1.001372,-1.80152 -0.394824,-0.34312 -1.73478,-0.71622 -2.002749,-1.15812 -0.138179,-0.22787 0.179199,-0.52978 0.107292,-0.72383 -0.01869,-0.0504 -3.373116,-1.30434 -3.451166,-1.35114 -0.09102,-0.0546 -0.02573,-0.25441 -0.107292,-0.33779 -0.296689,-0.30328 -1.201676,-1.23438 -1.591465,-1.47983 -0.630228,-0.39684 -1.662367,-0.31559 -2.163686,-0.91684 -0.153932,-0.18462 0.07174,-0.57456 0.03576,-0.78817 -0.05355,-0.31793 -1.010876,-1.21064 -1.28748,-1.33505 -0.687618,-0.30927 -3.5941897,-1.17425 -4.2379593,-0.59515 -0.6107202,0.54938 -0.7168816,1.62312 -1.1265413,2.26799 -0.261075,0.41097 -0.6293919,0.79778 -0.9298474,1.15812 -0.1436455,0.17229 -0.5512769,2.54789 -0.6973856,3.0079 -0.8266903,2.60276 -0.035762,2.75533 -0.035762,5.34022 0,0.26328 -0.7843938,0.67286 -1.0013775,0.91686 -0.6749707,0.75898 -1.0147963,1.70776 -1.9133409,2.36449 -0.83768503,0.61225 -1.99730771,1.13058 -2.36038065,2.20365" />
    <path
       style="fill:none;stroke:#000000;stroke-width:0.264583px;stroke-linecap:butt;stroke-linejoin:miter;stroke-opacity:1"
       d="m 122.58165,223.49879 c 0.14978,-0.19229 0.33262,-0.35634 0.47785,-0.55237 0.0581,-0.0784 0.10751,-0.16298 0.14801,-0.25188 0.0184,-0.0403 0.004,-0.0863 -0.0172,-0.12243 -0.0399,-0.0668 -0.0982,-0.12026 -0.13778,-0.18731 -0.022,-0.0372 -0.0337,-0.0832 -0.019,-0.12564 0.018,-0.0519 0.0401,-0.10231 0.0619,-0.1527 0.0563,-0.13003 0.11956,-0.25712 0.17194,-0.38879 0.009,-0.0222 0.0199,-0.0438 0.0252,-0.0671 0,0 -0.002,-10e-5 -0.002,-10e-5 -0.0188,0.0243 -0.0322,0.0525 -0.0477,0.079"
       id="path225"
       inkscape:path-effect="#path-effect227"
       inkscape:original-d="m 122.58165,223.49879 c 0.20862,-0.26808 0.49231,-0.49191 0.62586,-0.80425 0.0596,-0.13941 -0.20834,-0.26951 -0.17882,-0.41821 0.0181,-0.091 0.3965,-0.87418 0.21459,-0.5469" />
    <path
       style="fill:none;stroke:#000000;stroke-width:0.264583px;stroke-linecap:butt;stroke-linejoin:miter;stroke-opacity:1"
       d="m 0.1815668,137.812 c 0.13777381,0.47123 0.44265646,0.84603 0.9106896,1.08991 0.938414,0.48898 1.6440116,1.34046 2.6867111,1.67632 0.8315618,0.26785 1.7831985,-0.29558 2.5538938,0.0648 0.5790554,0.27073 1.2329627,0.11165 1.7899736,-0.16179 1.7230035,-0.84584 3.1352411,-2.27813 4.9995721,-2.83495 0.547761,-0.1636 1.270169,-0.53205 1.74139,-0.0984 0.429914,0.3956 1.018526,0.52683 1.593644,0.50799 1.036484,-0.034 2.317734,-1.24869 3.046295,-0.5135 0.306809,0.3096 0.781632,0.2514 1.185605,0.26399 1.481801,0.0462 3.016752,0.40549 4.454817,-0.0227 0.624781,-0.18604 1.183749,-0.5165 1.849709,-0.62138 0.324205,-0.0511 0.47533,-0.24893 0.862957,-0.60372 0.80868,-0.74018 1.236903,-1.84271 2.202172,-2.43792 0.789313,-0.48671 2.291844,-0.52713 2.358126,-1.48943 0.02441,-0.35432 -0.282495,-0.64571 0.06417,-1.03634 0.386461,-0.43547 1.102026,-0.58211 1.323231,-1.1187 0.185894,-0.45093 0.3299,-0.86196 0.833895,-1.12478 0.841378,-0.43875 1.618662,-0.98536 2.312886,-1.63964 0.934951,-0.88115 1.744739,-1.95434 2.895942,-2.55396 0.711918,-0.37081 1.452055,-0.64463 2.147893,-1.09023 0.492475,-0.31537 1.111335,-0.11786 1.658449,-0.1693 0.369506,-0.0347 0.594148,-0.0999 1.035469,-0.40177 0.642485,-0.43953 1.451378,-0.51409 2.202135,-0.60593 1.527162,-0.18681 3.258444,0.26685 4.588889,-0.53023 0.377277,-0.22603 0.666567,-0.5683 1.154412,-0.63024 0.737293,-0.0936 1.557368,0.0454 2.189655,-0.46352 0.369152,-0.29712 0.78045,-0.53251 1.273317,-0.59501 0.731857,-0.0928 1.881183,0.25175 2.176398,-0.44157 0.232462,-0.54594 0.868294,-0.52813 1.374149,-0.47465 1.017027,0.10752 2.015813,0.32948 3.046935,0.34749 1.911203,0.0334 3.827714,-0.35031 5.730821,-0.1133 1.15982,0.14444 3.223288,1.58577 3.488044,0.42461 0.04737,-0.20775 -0.45085,-0.59565 0.07839,-0.51593 0.686618,0.10343 1.3916,0.24404 2.096035,0.10199 0.297644,-0.06 -0.09718,-0.29773 0.302285,-0.2998 0.811539,-0.004 1.832805,0.48816 2.439829,-0.0778 0.302392,-0.28196 0.584787,-0.56938 1.073119,-0.55112 0.87448,0.0327 1.713227,0.33302 2.59792,0.3097 1.285433,-0.0339 2.562941,-0.19054 3.837469,-0.39139 0.814786,-0.1284 1.624461,-0.30242 2.366931,-0.70434 0.676093,-0.36599 1.31135,-0.93682 2.112751,-0.96485 0.898184,-0.0314 1.829642,0.46784 2.691686,0.0391 0.769653,-0.38276 1.660995,-0.31009 2.475147,-0.55403 0.448697,-0.13444 1.102319,0.009 1.443276,-0.42778 0.205833,-0.26342 0.653373,-0.32751 0.983475,-0.47457 0.485646,-0.21635 1.452242,-0.19193 1.425839,-0.72534 -0.01695,-0.34244 0.95122,-0.21602 1.12198,-0.56048 0.246546,-0.49734 0.264213,-1.08739 0.639039,-1.55118 0.763024,-0.94413 2.014064,-1.26032 3.153564,-1.47638 0.88987,-0.16873 1.80313,-0.12879 2.68856,0.0566 0.58261,0.12199 1.20324,0.10017 1.74244,-0.18664 0.61377,-0.32648 1.23548,-0.65463 1.92777,-0.78262 1.00226,-0.1853 1.97776,-0.47829 2.94713,-0.79061 0.846,-0.27257 1.83067,-0.26095 2.54796,-0.78635 0.73871,-0.54109 1.69879,-0.51749 2.55978,-0.38364 0.78781,0.12247 1.59877,0.0747 2.35501,-0.19741 0.87767,-0.31576 1.7507,-0.66167 2.68858,-0.77094 0.78091,-0.091 1.55737,-0.2547 2.26483,-0.63016 0.56929,-0.30213 1.19689,-0.6499 1.87447,-0.48009 0.61929,0.1552 1.22055,0.38605 1.88273,0.359 1.75584,-0.0717 3.50762,-0.19262 5.25909,-0.3489 0.51251,-0.0457 0.19282,0.21605 -0.0927,0.3414 -0.48894,0.21466 0.42441,0.0759 0.58718,0.0559 1.38386,-0.17058 2.6892,-0.72491 4.06634,-0.91525 0.55934,-0.0773 1.33943,0.2505 1.68908,-0.21145 0.24382,-0.32213 0.57673,-0.57924 1.00798,-0.3695 0.63494,0.30881 0.0215,-0.45494 0.72024,-0.62057 0.18131,-0.043 1.16734,0.0313 0.6258,-0.14604 -0.19039,-0.0623 -0.61951,-0.13432 -0.20678,-0.30848 0.60215,-0.25409 1.40974,-0.40347 1.65416,-1.05937 0.21627,-0.58035 0.58522,-1.02269 1.18144,-1.31385 2.16667,-1.05809 4.52675,-1.84532 6.97153,-1.82773 1.20231,0.009 2.38508,0.25388 3.55127,0.5305 0.59877,0.14203 1.14886,-0.34606 1.71179,-0.27034 0.51619,0.0694 1.01844,0.30344 1.55315,0.15471 0.69055,-0.19208 1.39758,-0.35348 2.12397,-0.29086 1.09894,0.0947 2.21907,0.36689 3.31519,0.0364 1.17603,-0.35463 2.2762,-0.960949 3.5502,-1.005256 0.7478,-0.02601 2.12343,0.511454 2.2467,-0.252439 0.0737,-0.456852 0.78742,-0.367201 1.17949,-0.416338 0.91464,-0.114629 1.79489,-0.415466 2.58826,-0.900138 0.69877,-0.426878 1.41662,-0.865924 2.26336,-0.956817 0.68264,-0.07328 1.27802,-0.447222 1.89279,-0.724166 0.9719,-0.437823 1.97702,-0.788319 2.96079,-1.211625 0.65428,-0.281531 1.21452,-0.739367 1.8179,-1.113458 0.71525,-0.443447 1.45806,-1.001332 2.30737,-1.030193 0.55351,-0.01881 1.10916,0.169064 1.65918,-0.03226 0.51029,-0.186777 1.03374,-0.318092 1.58917,-0.320567 0.76907,-0.0034 1.62198,0.439542 2.30632,0.08515 0.42559,-0.220396 0.65449,-0.664331 1.16797,-0.810027 1.31669,-0.373599 2.71736,-0.604643 4.06914,-0.389735 0.69919,0.111158 1.26883,0.573827 1.86132,0.927557 0.67712,0.404253 1.48185,0.715026 2.29107,0.498918 0.95022,-0.253762 2.26115,-0.224984 2.74456,-1.107481 0.20212,-0.368983 0.59903,-0.473365 0.97013,-0.610098 1.03572,-0.381614 1.94723,-1.349769 3.04785,-1.290489 0.44888,0.02418 0.88427,0.03548 1.3253,-0.150059 0.96274,-0.405024 2.03211,-0.359317 3.05012,-0.324381 1.07125,0.03676 2.11789,0.309822 3.17625,0.460917 0.79303,0.113216 1.66637,0.555553 2.399,0.214455 0.42018,-0.195627 0.76193,-0.541707 1.18057,-0.790368 0.50461,-0.299726 1.03576,-0.522347 1.49602,-0.931968 0.49024,-0.436303 1.10602,-0.70502 1.69506,-0.981486 0.9143,-0.42913 1.8413,-0.863008 2.86169,-0.997247 0.99749,-0.131226 2.09858,-0.0962 2.94429,-0.729805 0.5989,-0.448694 1.1844,-0.96675 1.94613,-1.121017 0.63476,-0.128553 1.27622,-0.225427 1.86021,-0.547896 0.76923,-0.424755 1.55341,-0.809107 2.36965,-1.154628 0.93717,-0.396713 1.82329,-0.99564 2.85451,-1.10834 0.3243,-0.03544 0.68182,0.11738 0.75166,0.465209"
       id="path229"
       inkscape:path-effect="#path-effect231"
       inkscape:original-d="m 0.1815668,137.812 c 0.41643396,1.1908 0.62508917,0.80324 1.3947712,1.38331 1.0907337,0.82203 1.5090428,1.36604 2.9862362,1.52807 0.3566017,0.0391 1.7252923,-0.10066 1.7702871,-0.0804 0.3877953,0.17443 0.9209095,0.21405 1.3590092,0.0322 1.885015,-0.78259 3.1423585,-2.17503 5.1499225,-2.92747 2.525678,-0.94663 1.616463,0.2161 3.308113,0.30561 1.093266,0.0579 2.188429,-0.43847 3.290228,-0.51472 0.19203,-0.0133 0.189445,0.17381 0.357631,0.19302 0.338607,0.0387 0.678718,0.0669 1.019256,0.0804 1.360547,0.0541 2.781205,0.24367 4.130667,0.0161 0.527365,-0.0889 1.027035,-0.43664 1.502064,-0.57905 0.355124,-0.10648 1.178476,-0.062 1.466295,-0.45038 0.05488,-0.0741 -0.08893,-0.22563 -0.05365,-0.25736 0.631269,-0.56784 1.032058,-1.39997 1.591471,-1.96238 0.802042,-0.80633 2.257454,-1.03046 2.932597,-1.89803 0.204867,-0.26325 -0.280583,-0.56589 -0.08941,-0.8525 0.35606,-0.53381 0.970275,-0.8209 1.430533,-1.25464 0.224507,-0.21156 0.28212,-0.85547 0.464923,-0.9651 0.811737,-0.48678 1.514073,-0.78534 2.235211,-1.41548 1.037235,-0.90635 1.92504,-1.99975 3.057766,-2.81488 0.613362,-0.44138 1.405474,-0.58776 2.056397,-0.9651 0.35724,-0.20709 0.430408,-0.45093 0.894077,-0.51472 0.586423,-0.0807 1.556306,0.0964 2.145803,-0.0804 0.04619,-0.0139 0.06697,-0.28846 0.107294,-0.32171 0.380725,-0.31393 1.184799,-0.45259 1.662993,-0.5308 1.63943,-0.26812 3.31511,-0.14501 4.953225,-0.54689 0.529185,-0.12983 0.509098,-0.48684 1.01926,-0.62732 0.647933,-0.17842 1.392084,-0.0151 2.02062,-0.24128 0.470104,-0.16914 0.908616,-0.75026 1.448419,-0.83641 0.816189,-0.13026 1.583441,-0.0979 2.360385,-0.41822 0.393031,-0.16204 0.138957,-0.43946 0.697386,-0.5308 0.831884,-0.13607 2.157714,0.25258 2.968358,0.30562 2.102255,0.13753 3.990432,-0.19709 6.044009,-0.12868 1.326669,0.0442 2.697419,0.64158 4.023376,0.48254 0.180626,-0.0217 -0.274095,-0.58211 -0.125169,-0.56297 0.510842,0.0657 1.922841,0.43658 2.43191,0.0804 0.192672,-0.1348 -0.28882,-0.24128 0.196694,-0.24128 0.882766,0 1.408583,0.14842 2.30674,-0.0322 0.40323,-0.0811 0.381355,-0.51777 0.858311,-0.57906 0.731499,-0.094 1.539301,0.20417 2.270974,0.27344 0.809051,0.0766 3.324368,-0.0892 4.041265,-0.27344 0.684509,-0.17592 1.550119,-0.21297 2.199449,-0.48255 0.800307,-0.33226 1.409216,-0.87876 2.217328,-1.1903 0.750546,-0.28934 1.838444,0.16915 2.592834,0.1126 0.462889,-0.0347 0.988499,-0.35415 1.448419,-0.48255 0.967748,-0.27016 1.978962,-0.19023 2.95048,-0.41821 0.18828,-0.0442 0.104518,-0.3285 0.23246,-0.38604 0.05523,-0.0248 0.119211,-0.0215 0.178816,-0.0322 0.548371,-0.24128 1.111571,-0.45132 1.645113,-0.72383 1.151168,-0.58795 -0.156821,-0.14844 0.8762,-0.57906 0.247012,-0.10297 0.571362,-0.0586 0.751033,-0.28952 0.183314,-0.23557 0.143928,-0.4934 0.23246,-0.77209 0.336823,-1.06027 1.224433,-1.60432 2.288853,-1.94629 0.95997,-0.3084 2.19551,-0.51293 3.18294,-0.38604 0.58529,0.0752 1.18918,0.2665 1.78817,0.19302 0.57445,-0.0705 1.2398,-0.55833 1.78817,-0.77207 0.74366,-0.28988 1.59099,-0.37156 2.36037,-0.59515 1.35331,-0.39329 2.71077,-0.88916 4.0055,-1.23855 1.36081,-0.92558 2.63481,-0.13757 4.01732,-0.35384 0.91527,-0.14319 1.66716,-0.5629 2.5392,-0.80426 0.83279,-0.23049 1.75657,-0.21262 2.57496,-0.48255 0.61203,-0.20187 1.3699,-0.78499 2.02063,-0.86859 0.6721,-0.0863 1.46262,0.44156 2.16368,0.41821 1.65039,-0.055 3.31533,-0.27864 4.97111,-0.35387 2.09121,-0.095 -0.0865,0.46701 0.37551,0.45038 1.53631,-0.0553 3.02113,-0.62029 4.50619,-0.93293 0.57563,-0.12118 1.25794,-0.0252 1.80604,-0.17693 0.33133,-0.0917 0.37631,-0.46263 0.67951,-0.53081 0.22803,-0.0513 0.65345,0.19421 0.80467,0.1126 0.0642,-0.0347 -0.0498,-0.605 0.10729,-0.62732 0.5274,-0.0749 1.09079,0.071 1.09079,0 0,-0.22517 -0.75249,-0.27909 -0.55434,-0.38604 0.65548,-0.35376 1.1002,-0.32353 1.68088,-0.93293 0.30372,-0.31874 0.39854,-1.04925 0.82256,-1.27072 1.94105,-1.01383 4.39059,-1.97887 6.6341,-2.07496 1.56705,-0.0671 2.78151,0.10593 4.30948,0.49863 0.46834,0.12037 1.17601,-0.0428 1.48418,-0.20911 0.33583,-0.18124 1.08743,0.22602 1.50207,0.17694 0.57784,-0.0684 1.07429,-0.29463 1.64511,-0.35387 1.11188,-0.1154 2.31515,0.31674 3.4154,0.19302 1.24823,-0.14036 2.37906,-0.953367 3.59422,-1.125952 0.79622,-0.113086 2.28816,0.107648 2.95048,-0.289533 0.11592,-0.06952 -0.0425,-0.195519 0.0894,-0.225187 0.87143,-0.195971 1.82679,-0.235408 2.66437,-0.562979 0.89291,-0.349207 1.57729,-0.982254 2.48556,-1.335052 0.44903,-0.174421 0.95959,-0.101633 1.39477,-0.289533 1.12934,-0.487625 2.31205,-1.092801 3.48693,-1.560246 0.34997,-0.139243 0.7644,-0.186402 1.09078,-0.386039 1.20988,-0.740052 2.14195,-1.526919 3.54056,-1.946289 0.46318,-0.138883 0.89431,0.0461 1.35902,0.03217 0.52833,-0.01584 1.10165,-0.377476 1.64511,-0.418209 0.89498,-0.06708 1.77271,0.117615 2.66437,0.09651 0.41278,-0.0098 0.57134,-0.521454 0.92985,-0.691656 0.44101,-0.20937 1.20581,-0.347085 1.68088,-0.434297 0.63324,-0.116248 2.55106,-0.247257 3.12929,-0.01609 1.0748,0.429695 2.32773,1.702803 3.62998,1.383312 0.82959,-0.203529 2.35031,-0.570979 2.96836,-1.206376 0.14053,-0.144478 0.1211,-0.256399 0.33975,-0.337786 1.22779,-0.457001 2.37238,-0.896053 3.54058,-1.479822 0.18126,-0.09058 0.57362,0.04348 0.78678,0.01609 0.37069,-0.04763 0.72664,-0.269637 1.09079,-0.353869 0.73483,-0.169976 1.79385,-0.119518 2.57496,-0.160853 1.01769,-0.05386 5.36281,1.063552 5.79367,0.579062 0.50356,-0.566246 1.37672,-0.871728 2.05639,-1.238545 0.21944,-0.118435 0.34278,-0.364271 0.53644,-0.514723 0.47643,-0.370117 2.73964,-1.446024 3.36176,-1.640672 1.10213,-0.344833 2.32494,-0.197876 3.39752,-0.595146 0.58564,-0.216914 1.18563,-0.865933 1.75241,-1.174206 0.62886,-0.342037 1.18402,-0.335887 1.87757,-0.498636 0.68828,-0.161511 1.93121,-1.125948 2.93259,-1.415482 0.80299,-0.232171 3.48073,-2.020437 3.82669,-0.723826" />
    <path
       style="fill:none;stroke:#000000;stroke-width:0.264583px;stroke-linecap:butt;stroke-linejoin:miter;stroke-opacity:1"
       d="m 236.37458,82.0774 c 0.74988,0.365773 1.61499,0.295084 2.41224,0.146927 0.83033,-0.154303 1.64439,-0.409223 2.49416,-0.449637 0.39442,-0.01876 1.56321,-0.138981 1.18477,-0.02905 -0.12804,0.03719 -0.20736,0.115093 -0.0204,0.04287 0.28858,-0.111445 0.56961,-0.224033 0.88108,-0.280663 1.72532,-0.313692 3.45342,-0.651069 5.10738,-1.265414 0.31213,-0.115937 0.60608,-0.291124 0.94912,-0.310525 0.90978,-0.05145 1.93453,-0.283134 2.71776,0.174546 0.16132,0.09427 0.28728,0.172109 0.51068,0.182208 1.33121,0.06018 5.3088,-0.286 3.9858,-0.155738 -0.11425,0.01125 -0.45995,0.06445 -0.39693,0.07643 0.44684,0.08493 1.79363,0.306051 1.34442,0.23441 -0.10896,-0.01738 -0.45889,-0.02728 -0.18503,0.07321 0.32623,0.119697 1.35009,0.130712 1.01674,0.06949 -0.18166,-0.03336 -0.24759,0.08423 -0.10261,0.212279 0.30438,0.268839 0.73556,0.235627 1.1124,0.273547 0.20281,0.02041 0.24945,0.223476 0.45019,0.403589 0.16599,0.148936 0.40519,0.203362 0.61668,0.266197 0.37361,0.111 0.82379,0.371635 1.15723,0.161648 0.23241,-0.146361 0.40167,-0.375468 0.586,-0.57648 0.20395,-0.222402 0.34853,-0.509424 0.59576,-0.681714 0.38527,-0.268492 1.40315,0.03529 1.30379,-0.414645 -0.0163,-0.07381 -0.31701,-0.09906 -0.11294,-0.247892 0.15138,-0.110403 0.45434,-0.08704 0.51757,-0.24889 0.0102,-0.02608 0.33327,0.01563 0.4649,0.01085 0.52843,-0.01922 1.0404,0.133228 1.55114,0.245786 0.47485,0.104648 0.93263,0.309823 1.41648,0.348691 0.2297,0.01845 0.50963,-0.176622 0.68754,-0.02091 0.24382,0.213401 -0.35614,0.138457 -0.23581,0.13738 0.67835,-0.0061 1.3267,-0.245316 2.01253,-0.220855 0.57965,0.02067 2.29593,-0.04359 1.7382,0.137319 -0.14178,0.04599 -0.56158,0.03673 -0.49813,0.03175 0.35183,-0.02763 0.76104,0.126955 1.0573,-0.06626 0.20871,-0.136116 0.47118,-0.07279 0.70537,-0.06816 0.42047,0.0083 0.83367,0.132858 1.25281,0.116605 0.26993,-0.01047 0.65678,0.140953 0.80875,-0.08321 0.0621,-0.09161 -0.15789,-0.223054 0.0436,-0.327343 0.6219,-0.321857 1.50226,-0.02931 1.99379,-0.525559 0.10935,-0.110399 -0.33293,-0.157302 -0.0554,-0.244426 0.48934,-0.153626 1.00887,-0.0035 1.5058,-0.139745 0.57751,-0.158366 1.10533,-0.495084 1.70026,-0.573734 0.41356,-0.05467 0.84613,0.0215 1.24236,-0.173572 0.64629,-0.31818 1.373,-0.43504 2.02181,-0.741124 0.41378,-0.195205 0.64216,-0.686158 1.12254,-0.762412 0.39053,-0.06199 1.06148,0.186424 1.17297,-0.221612 0.0713,-0.261134 0.33456,-0.248759 0.57308,-0.29773 0.0984,-0.02021 0.39387,-0.04883 0.18394,0.09363 -0.2481,0.168368 0.22784,0.151114 0.33862,0.146714 0.46908,-0.01863 0.96418,-0.319906 1.40041,-0.138392 0.26829,0.111634 0.43423,-0.161785 0.64833,-0.273373 0.56848,-0.296286 1.41744,-0.190447 1.76974,-0.73907 0.14827,-0.230897 0.35177,-0.333453 0.66836,-0.300029 0.60177,0.06353 1.20246,-0.07427 1.79238,-0.189507 0.24007,-0.0469 0.43548,-0.196298 0.60449,-0.367331 0.16807,-0.170082 0.38171,-0.257716 0.62802,-0.32161 0.43354,-0.112464 0.75929,-0.439967 1.12049,-0.686036 0.37294,-0.254064 0.8242,-0.33583 1.25156,-0.451544 0.35229,-0.09539 1.18583,-0.612682 1.06115,-0.269667 -0.0386,0.106114 -0.41604,0.421293 -0.15412,0.225846 0.16517,-0.123249 0.32424,-0.177422 0.55993,-0.04328 0.46436,0.264291 1.01201,0.347436 1.5373,0.365801 0.3939,0.01377 0.81453,0.0038 1.15814,-0.225151 0.2071,-0.137976 0.44416,-0.211034 0.69987,-0.216898 0.56473,-0.01295 1.17661,0.0468 1.68432,-0.253914 0.69558,-0.411992 1.32809,-0.970374 2.09677,-1.219998 0.431,-0.139964 0.94104,-0.06258 1.31659,-0.342055 0.22308,-0.166011 0.22484,-0.471053 0.25487,-0.721078 0.0852,-0.709719 -0.0102,-1.489358 0.37974,-2.120436 0.36865,-0.596563 0.93507,-1.040427 1.25972,-1.673537 0.21615,-0.421524 0.27796,-1.653819 0.58467,-1.294893 0.1534,0.179514 0.33043,0.408489 0.517,0.591397 0.27957,0.27408 0.64993,0.570402 0.6462,0.99447 -0.002,0.249035 -0.17069,0.520804 -0.003,0.749518 0.26337,0.358689 0.67771,0.565611 1.07195,0.744647 0.30599,0.138958 0.60504,0.305096 0.92918,0.395535 0.12854,0.03586 0.53492,0.06534 0.43514,0.110495 -0.12921,0.05848 -0.2039,0.05919 -0.0352,-0.0079 0.57841,-0.230135 1.1887,-0.750129 1.78006,-0.546272 0.33111,0.114141 0.26315,-0.318417 0.49198,-0.431548 0.59403,-0.293677 1.28913,-0.278972 1.87079,-0.621325 0.49302,-0.29018 0.91006,-0.749033 1.47833,-0.878131 0.36487,-0.08289 0.96944,0.09757 1.09425,-0.25656 0.202,-0.573136 0.33145,-1.169622 0.543,-1.740894 0.29616,-0.799761 0.43253,-1.655948 0.80641,-2.426977 0.35578,-0.733712 1.05033,-1.22928 1.77701,-1.553453 0.2627,-0.117191 0.55823,-0.290867 0.84839,-0.153392 0.42965,0.203562 0.7439,0.585554 1.18568,0.776336 0.36608,0.158092 0.83263,0.30691 1.17002,0.09922 0.17862,-0.109953 -0.0325,-0.387591 0.21287,-0.527447 1.66368,-0.948304 3.27245,-1.963703 4.80663,-3.128745 0.36413,-0.276517 0.67445,-0.633272 1.11667,-0.802599 0.46433,-0.177792 0.92221,-0.475897 1.42494,-0.451159 0.58454,0.02876 1.66473,0.810467 1.73695,0.225926 0.0144,-0.116639 -0.17073,-0.270322 -0.0522,-0.454139 0.0716,-0.111016 0.18294,0.09202 0.29505,-0.104204 0.0603,-0.105598 0.10495,-0.497598 0.27923,-0.246905 0.20015,0.287912 0.24726,0.735603 0.59408,0.876641 0.29554,0.120186 0.60509,-0.04656 0.86652,-0.174005 0.64301,-0.31347 1.0876,-0.910412 1.68589,-1.28483 0.39332,-0.246145 0.84559,-0.0058 1.27123,-0.04385 0.29342,-0.02625 0.34921,-0.317761 0.40692,-0.557568 0.0712,-0.296028 0.10707,-0.849601 0.42907,-0.809931 0.50344,0.06202 1.01794,0.129414 1.52453,0.04114 0.25204,-0.04392 0.41926,-0.264665 0.47057,-0.50494 0.0737,-0.345096 0.26804,-0.653329 0.55563,-0.871207 0.27811,-0.210695 0.62832,-0.254647 0.96415,-0.308451 0.63069,-0.101045 1.15403,-0.494786 1.68296,-0.822871 0.81396,-0.504881 1.86438,-0.41999 2.65838,-0.945473 0.39504,-0.261443 0.49517,-0.840688 0.97603,-0.993817 0.32855,-0.104625 0.67341,-0.126751 1.00238,-0.243451 1.10701,-0.392701 2.2224,-0.893863 3.41952,-0.877194 0.4918,0.0068 0.98324,0.119779 1.42071,0.346869"
       id="path233"
       inkscape:path-effect="#path-effect235"
       inkscape:original-d="m 236.37458,82.0774 c 1.29652,0.615027 2.67775,0.03711 4.20687,-0.238011 0.38623,-0.06949 1.38684,-0.09651 1.87758,-0.09651 0.0523,0 -0.19534,0.06434 -0.14305,0.06434 0.22645,0 0.47535,-0.199671 0.69738,-0.241279 2.25427,-0.42246 3.90392,-0.629764 5.93672,-1.544161 0.55917,-0.251527 2.38929,0.03511 3.11141,0.08043 0.22808,0.01431 0.14434,0.168526 0.32187,0.176932 1.65172,0.0782 2.64454,-0.07101 4.20219,-0.144767 0.13861,-0.0066 -0.28715,0.0024 -0.41128,0.06434 -0.0336,0.0168 0.80498,0.130543 1.35901,0.241279 0.0937,0.01873 -0.36364,-0.03971 -0.2861,0.01609 0.2718,0.195593 0.78743,0.109413 1.10866,0.12868 0.10471,0.0063 -0.22264,-0.0063 -0.17882,0.08042 0.27943,0.552964 1.29386,0.224348 1.60935,0.579059 0.235,0.264205 -0.24624,0.173067 0.42917,0.418214 0.39266,0.142521 0.96316,0.293045 1.39477,0.241274 0.13873,-0.01664 1.04841,-1.118516 1.12654,-1.206373 0.26275,-0.295455 1.05436,-0.274638 1.35901,-0.466466 0.0717,-0.04513 -0.21348,-0.07783 -0.1967,-0.160853 0.0341,-0.168598 0.78561,-0.25789 0.57222,-0.353867 -0.033,-0.01484 0.0713,0.01283 0.10729,0.01609 0.30856,0.02776 0.64836,-0.0084 0.94771,0.04826 0.81455,0.15425 1.52599,0.336619 2.32463,0.546886 0.26697,0.07029 0.82257,-0.179554 0.82257,0.09651 0,0.107826 -0.42971,0.03217 -0.3219,0.03217 0.70845,0 1.21595,-0.25632 1.93125,-0.225187 0.60891,0.0265 1.23362,-0.02302 1.82393,0.12868 0.14515,0.03731 -0.29718,0.04825 -0.44706,0.04825 -0.23866,0 0.4768,-0.02283 0.71527,-0.03216 0.71758,-0.02806 -0.0114,-0.174001 1.1802,-0.09651 0.96496,0.06275 0.77941,0.166095 1.71664,0.06434 0.53769,-0.05838 -0.13739,-0.18881 0.26821,-0.386041 0.59153,-0.287615 1.30527,-0.209057 1.91336,-0.482552 0.30779,-0.13843 -0.47805,-0.166082 0.12515,-0.305615 0.25961,-0.06005 0.71935,-0.01408 0.96562,-0.03217 0.57973,-0.04257 1.11816,-0.362071 1.94911,-0.611227 0.40468,-0.121343 0.91474,0.03775 1.30538,-0.160853 0.66246,-0.336812 1.33701,-0.512196 2.0385,-0.755994 0.41725,-0.14501 0.68512,-0.670729 1.09078,-0.772083 0.37988,-0.09492 0.82002,0.01206 1.1802,-0.176935 0.35583,-0.18673 -0.0527,-0.296392 0.55432,-0.353867 0.94552,-0.08953 -0.15716,0.173733 0.35762,0.225187 0.49022,0.049 1.07653,-0.144767 1.59149,-0.144767 0.1192,0 0.269,0.07972 0.35764,0 0.58581,-0.526939 1.42107,-0.509998 2.09214,-0.949013 0.17102,-0.111884 0.28699,-0.471569 0.57221,-0.38604 0.50382,0.151077 1.67309,-0.03849 2.16368,-0.225192 0.31158,-0.118576 0.56989,-0.611233 0.92986,-0.611233 0.47072,0 1.04822,-0.728824 1.66298,-0.916845 0.56354,-0.172354 1.26564,-0.358005 1.85971,-0.498633 0.0394,-0.0093 -0.23988,0.280098 -0.25035,0.289525 -0.14269,0.128342 0.41354,-0.356502 0.53644,-0.2091 0.31634,0.379394 1.86581,0.593318 2.50343,0.402127 0.23826,-0.07144 0.52457,-0.353203 0.82257,-0.369959 0.55403,-0.03115 1.3272,0.06731 1.84181,-0.241273 0.67276,-0.403421 1.35158,-0.810131 2.0564,-1.206379 0.33983,-0.19105 1.41364,-0.08177 1.5557,-0.611232 0.20584,-0.767107 0.0494,-1.695498 0.37552,-2.428838 0.24138,-0.542817 0.86114,-1.02399 1.1802,-1.544159 0.29149,-0.475247 0.42561,-0.895244 0.66162,-1.399399 0.0325,-0.06945 0.0879,-0.260046 0.12517,-0.193019 0.25733,0.462981 0.64019,0.654603 0.94774,1.077698 0.71347,0.98158 -1.09916,1.021651 2.03851,2.348412 0.18542,0.07841 0.40648,0.0461 0.59007,0.128681 0.0527,0.02371 -0.21362,0.08803 -0.16092,0.06434 0.61259,-0.27551 1.27177,-0.302786 1.89545,-0.595146 0.3429,0.0866 0.25101,-0.287739 0.41129,-0.38604 0.41752,-0.256061 1.0485,-0.291333 1.50207,-0.450379 0.66945,-0.234757 1.18528,-0.838721 1.85968,-1.077698 0.088,-0.03117 0.98795,-0.180509 1.16231,-0.273447 0.0301,-0.01603 0.36923,-1.274889 0.41127,-1.383313 0.86699,-2.235565 0.48609,-3.430212 3.05776,-4.48772 0.86749,-0.356721 1.14959,1.15859 2.80742,0.884677 0.33546,-0.05543 -0.11827,-0.32126 0.304,-0.562972 1.63076,-0.933437 3.06123,-2.333866 4.73864,-3.088325 0.14219,-0.06395 0.65979,-0.634675 0.98351,-0.755997 0.38417,-0.143986 1.23383,-0.535236 1.62721,-0.51472 0.48308,0.02519 1.18182,0.249036 1.69876,0.225189 0.10282,-0.0047 -0.1325,-0.189743 -0.10729,-0.289531 0.10787,-0.426849 0.15349,-0.05761 0.28612,-0.176932 0.12557,-0.112972 0.18106,-0.550484 0.28609,-0.418214 0.31986,0.402765 0.38206,1.166884 1.05503,0.965102 0.88659,-0.265837 1.39848,-0.875104 2.07428,-1.415481 0.52401,-0.419018 1.15221,0.186045 1.62724,-0.241276 0.12489,-0.112342 0.11713,-0.960273 0.55433,-1.222459 2.96465,0.424344 1.27339,-0.730115 2.80143,-1.47984 0.34435,-0.168957 0.69299,-0.115512 1.03714,-0.241276 0.5839,-0.213377 1.02093,-0.575911 1.5557,-0.852506 0.76179,-0.394013 1.69313,-0.408946 2.4319,-0.820336 0.32606,-0.181566 0.47263,-0.649507 0.76893,-0.884676 0.28677,-0.227618 0.7089,-0.186201 1.05501,-0.305616 1.56524,-0.540041 3.37555,-1.442871 5.02475,-0.595146" />
  </g>
</svg>
