<?xml version="1.0" encoding="UTF-8" standalone="no"?>
<!-- Created with Inkscape (http://www.inkscape.org/) -->

<svg
   width="169.33333mm"
   height="127mm"
   viewBox="0 0 169.33333 127"
   version="1.1"
   id="svg5"
   sodipodi:docname="Muscular_da_Mucosa.svg"
   inkscape:version="1.1.2 (08b2f3d93c, 2022-04-05)"
   xmlns:inkscape="http://www.inkscape.org/namespaces/inkscape"
   xmlns:sodipodi="http://sodipodi.sourceforge.net/DTD/sodipodi-0.dtd"
   xmlns="http://www.w3.org/2000/svg"
   xmlns:svg="http://www.w3.org/2000/svg">
  <sodipodi:namedview
     id="namedview7"
     pagecolor="#ffffff"
     bordercolor="#666666"
     borderopacity="1.0"
     inkscape:pageshadow="2"
     inkscape:pageopacity="0.0"
     inkscape:pagecheckerboard="0"
     inkscape:document-units="mm"
     showgrid="false"
     inkscape:zoom="1.1575153"
     inkscape:cx="461.33299"
     inkscape:cy="124.83636"
     inkscape:window-width="1366"
     inkscape:window-height="704"
     inkscape:window-x="0"
     inkscape:window-y="27"
     inkscape:window-maximized="1"
     inkscape:current-layer="layer2" />
  <defs
     id="defs2" />
  <g
     inkscape:groupmode="layer"
     id="layer2"
     inkscape:label="Muscular_da_Mucosa">
    <path
       style="fill:none;stroke:#000000;stroke-width:0.264583px;stroke-linecap:butt;stroke-linejoin:miter;stroke-opacity:1"
       d="m 117.57302,126.5241 c 0.31495,-0.22172 0.66122,-0.40458 0.94487,-0.66515 0.0493,-0.0453 0.0753,-0.58468 0.0822,-0.64669 0.1093,-0.98311 0.72928,-1.615 0.88325,-2.5498 0.12776,-0.77569 0.15231,-1.60972 0.26703,-2.38352 0.064,-0.43195 -0.22062,-0.90253 -0.0822,-1.34881 0.17486,-0.56363 0.84285,-1.05672 0.94486,-1.60749 0.11748,-0.63423 -0.31122,-1.5198 -0.22595,-2.23569 0.0761,-0.63865 0.45787,-1.19091 0.59568,-1.81073 0.1151,-0.51763 0.01,-1.19834 -0.0205,-1.71834 -0.0498,-0.85126 -0.61109,-1.52901 -0.71893,-2.34656 -0.14832,-1.12458 0.0657,-2.27401 -0.0616,-3.38127 -0.0608,-0.52841 -0.51895,-0.88018 -0.55459,-1.44119 -0.0403,-0.63525 0.43326,-0.81159 0.49297,-1.34882 0.0751,-0.67572 0.0206,-1.41383 0.0206,-2.08787 0,-0.74794 -0.32134,-1.491891 -0.4519,-2.235701 -0.10296,-0.586552 0.0478,-1.159536 0,-1.718344 -0.0536,-0.626976 -0.47924,-1.516214 -0.67784,-2.08788 -0.27908,-0.803312 -0.0205,-1.766586 -0.0205,-2.568282 0,-0.809421 -0.50772,-1.70081 -0.57515,-2.549808 -0.0405,-0.510053 -0.23848,-1.563428 -0.1027,-2.069401 0.30841,-1.149321 1.0346,-1.505072 0.94487,-2.716094 -0.0721,-0.973314 -0.0566,-2.355918 -0.53405,-3.214975 -0.18583,-0.334312 -0.47631,-0.620173 -0.61623,-0.997744 -0.21788,-0.587976 -0.18505,-1.183254 -0.34919,-1.77378 -0.18924,-0.680881 -0.71652,-1.368496 -0.80108,-1.977022 -0.20838,-1.499569 0.22046,-3.034374 0.41081,-4.489868 0.13889,-1.06199 0.18434,-2.660674 0.24649,-3.750802 0.0455,-0.797555 -0.39073,-0.832422 -0.69839,-1.478143 -0.17447,-0.366186 -0.0391,-0.813993 -0.0822,-1.200994 -0.0476,-0.428164 -0.435,-0.874032 -0.47243,-1.311859 -0.0997,-1.165879 0.09,-2.397604 0.47243,-3.492125 0.21667,-0.620119 0.55617,-1.088543 0.61622,-1.736823 0.047,-0.507359 0.33322,-0.96688 0.36973,-1.459663 0.0835,-1.126676 0.015,-2.360369 0.20541,-3.473646 0.11925,-0.697259 0.37537,-1.43237 0.28757,-2.143316 -0.2092,-1.693957 -0.57088,-3.286508 -0.69838,-5.007218 -0.0113,-0.15163 -0.6469,-0.282683 -0.71892,-0.628213 -0.17702,-0.849202 0.30811,-1.603161 0.30811,-2.401988 0,-0.850117 -0.69396,-1.6206 -0.96542,-2.401996 -0.45715,-1.315921 0.22759,-3.177461 -0.32865,-4.249666 -0.21499,-0.414407 -0.47168,-0.73773 -0.67784,-1.108612 -0.22129,-0.398114 -0.2564,-0.987539 -0.41081,-1.404242 -0.0279,-0.07535 0.0392,-0.293942 -0.0205,-0.240199 -0.10555,0.09495 0.0184,1.732126 0.0205,1.82921 -0.10497,-1.682893 -0.89667,-3.165915 -1.23254,-4.777203 -0.24551,-1.177802 -0.23342,-2.368352 -0.45189,-3.547553 -0.10157,-0.548206 -0.45189,-1.054232 -0.45189,-1.699866 0,-0.67274 0.3256,-1.093533 0.45189,-1.718344 0.16326,-0.80779 -0.10808,-1.747415 -0.24649,-2.494373 -0.12415,-0.670006 0.3726,-1.509335 0.0411,-2.180273 -0.26397,-0.534242 -1.17294,-0.892066 -0.76001,-1.681387 0.14716,-0.281284 0.29411,-0.426596 0.22595,-0.794508 -0.0914,-0.493455 -0.78073,-1.183015 -0.98594,-1.699865 -0.58226,-1.466499 -0.76016,-3.605414 -0.84218,-5.15504 -0.0317,-0.598339 -0.076,-1.2676479 0,-1.8661584 0.10219,-0.804303 0.46554,-1.3740366 0.36974,-2.2357016 -0.088,-0.7919934 -0.52021,-1.4157654 -0.67784,-2.1248337 -0.14552,-0.6545434 -0.22485,-1.3068987 -0.36974,-1.9585444 -0.10351,-0.4655691 -0.34918,-0.9813107 -0.34918,-1.4227188 0,-0.1279658 0.0705,-0.89444705 -0.10271,-0.84993282 -0.16492,0.0423861 -0.11599,0.74989132 -0.12324,0.88688992"
       id="path57" />
    <path
       style="fill:none;stroke:#000000;stroke-width:0.264583px;stroke-linecap:butt;stroke-linejoin:miter;stroke-opacity:1"
       d="m 117.57302,126.5241 c -0.84217,0.0629 -1.6821,0.17529 -2.5265,0.18875 -0.34997,0.006 -0.0611,-1.22814 -0.0205,-1.33033 0.29996,-0.75553 -0.1876,-2.27774 -0.12324,-3.0302 0.0736,-0.86053 0.32361,-2.54805 0.6573,-3.36279 0.43497,-1.06201 0.0376,-2.34448 0.49298,-3.43669 0.0926,-0.22214 0.36058,-0.36334 0.45189,-0.60974 0.12173,-0.32849 0.0966,-0.82327 0.30811,-1.1086 0.1426,-0.19241 0.36758,-0.27767 0.43135,-0.53583 0.29423,-1.1911 0.26505,-2.46449 0.47244,-3.6769 0.0732,-0.42784 0.46474,-0.87281 0.43135,-1.29337 -0.14893,-1.87597 -0.93232,-3.87203 -1.43785,-5.69087 -0.17568,-0.6321 -0.22653,-1.35238 -0.32865,-1.9955 -0.0543,-0.34188 -0.40387,-0.760897 -0.49297,-1.145561 -0.34516,-1.490218 -0.72086,-2.886409 -0.94487,-4.397489 -0.11677,-0.787636 0.24649,-1.517436 0.24649,-2.272652 0,-2.684206 0.72941,-5.023691 0.47243,-7.79722 -0.0256,-0.276006 -0.32368,-0.512855 -0.36973,-0.79451 -0.13268,-0.811604 -0.30068,-1.518721 -0.47243,-2.29113 -0.24372,-1.096087 0.13963,-2.226701 -0.0205,-3.307352 -0.10574,-0.713388 -0.9883,-1.650241 -0.84217,-2.438937 0.10728,-0.579023 0.54018,-1.046766 0.57514,-1.644444 0.0918,-1.568664 -0.82162,-2.904598 -0.82162,-4.47139 0,-2.251416 0.57513,-4.46859 0.57513,-6.725568 0,-2.911797 -0.72774,-3.708564 0.36973,-6.67014 0.10857,-0.292973 0.51807,-3.278732 0.57514,-2.457416 -0.10958,-0.406491 -0.2424,-0.807418 -0.32874,-1.219472 -0.12476,-0.595503 0.86061,-2.916693 0.43136,-4.268153 -0.56171,-1.76848 -0.90489,-3.519433 -1.37622,-5.321329 -0.35808,-1.3689 -1.1824,-2.625492 -1.45839,-3.990996 -0.17813,-0.88129 -0.11232,-1.821965 -0.32866,-2.697616 -0.12528,-0.507126 -0.51419,-0.787865 -0.63676,-1.256426 -0.3001,-1.147331 -0.43312,-2.450234 -0.61621,-3.602985 -0.074,-0.466012 -0.33305,-0.923703 -0.36973,-1.385762 -0.0687,-0.865665 0.002,-1.739265 -0.0822,-2.605234 -0.009,-0.09573 -0.42283,-0.728265 -0.30811,-0.831458 0.16564,-0.148997 0.671,-0.07961 0.86271,-0.09239"
       id="path59" />
    <path
       style="fill:none;stroke:#000000;stroke-width:0.264583px;stroke-linecap:butt;stroke-linejoin:miter;stroke-opacity:1"
       d="m 111.02052,26.956401 c -0.14377,0.08709 -0.51842,0.117506 -0.43132,0.261281 0.0871,0.143774 0.51743,-0.11692 0.43132,-0.261281 -0.31277,-0.524319 -0.90701,-0.818552 -1.33511,-1.253821 -1.28331,-1.304785 -0.92318,-6.917684 -1.1092,-8.75802 -0.0358,-0.35453 -0.3158,-0.951396 -0.36973,-1.53358 -0.15458,-1.668952 0.30886,-3.276921 0.20541,-4.951793 -0.0529,-0.8559549 -0.70256,-1.6262329 -0.88325,-2.4389408 -0.0894,-0.4021452 -0.004,-0.857845 -0.18487,-1.2379475 -0.16031,-0.3364868 -0.47577,-0.7510831 -0.57513,-1.1086113 -0.44932,-1.6167508 -0.39753,-3.0272278 -0.47244,-4.71159283 -0.008,-0.19058866 -0.13149,-1.22224787 -0.47244,-1.1455651 -0.0605,0.0135977 -0.0763,0.15775094 -0.0205,0.184768 1.15444,0.55926208 2.34165,1.04817783 3.51247,1.57226673"
       id="path63" />
  </g>
</svg>
