<?xml version="1.0" encoding="UTF-8" standalone="no"?>
<!-- Created with Inkscape (http://www.inkscape.org/) -->

<svg
   width="169.33333mm"
   height="127mm"
   viewBox="0 0 169.33333 127"
   version="1.1"
   id="svg5"
   inkscape:version="1.1.2 (08b2f3d93c, 2022-04-05)"
   sodipodi:docname="MuscularDaMucosa.svg"
   xmlns:inkscape="http://www.inkscape.org/namespaces/inkscape"
   xmlns:sodipodi="http://sodipodi.sourceforge.net/DTD/sodipodi-0.dtd"
   xmlns="http://www.w3.org/2000/svg"
   xmlns:svg="http://www.w3.org/2000/svg">
  <sodipodi:namedview
     id="namedview7"
     pagecolor="#ffffff"
     bordercolor="#666666"
     borderopacity="1.0"
     inkscape:pageshadow="2"
     inkscape:pageopacity="0.0"
     inkscape:pagecheckerboard="0"
     inkscape:document-units="mm"
     showgrid="false"
     inkscape:zoom="0.57875767"
     inkscape:cx="575.37034"
     inkscape:cy="120.0848"
     inkscape:window-width="1366"
     inkscape:window-height="704"
     inkscape:window-x="0"
     inkscape:window-y="27"
     inkscape:window-maximized="1"
     inkscape:current-layer="layer2" />
  <defs
     id="defs2">
    <inkscape:path-effect
       effect="simplify"
       id="path-effect81"
       is_visible="true"
       lpeversion="1"
       steps="1"
       threshold="0.000408163"
       smooth_angles="360"
       helper_size="0"
       simplify_individual_paths="false"
       simplify_just_coalesce="false" />
    <inkscape:path-effect
       effect="simplify"
       id="path-effect77"
       is_visible="true"
       lpeversion="1"
       steps="1"
       threshold="0.000408163"
       smooth_angles="360"
       helper_size="0"
       simplify_individual_paths="false"
       simplify_just_coalesce="false" />
    <inkscape:path-effect
       effect="simplify"
       id="path-effect73"
       is_visible="true"
       lpeversion="1"
       steps="1"
       threshold="0.000408163"
       smooth_angles="360"
       helper_size="0"
       simplify_individual_paths="false"
       simplify_just_coalesce="false" />
    <inkscape:path-effect
       effect="simplify"
       id="path-effect69"
       is_visible="true"
       lpeversion="1"
       steps="1"
       threshold="0.000408163"
       smooth_angles="360"
       helper_size="0"
       simplify_individual_paths="false"
       simplify_just_coalesce="false" />
    <inkscape:path-effect
       effect="simplify"
       id="path-effect65"
       is_visible="true"
       lpeversion="1"
       steps="1"
       threshold="0.000408163"
       smooth_angles="360"
       helper_size="0"
       simplify_individual_paths="false"
       simplify_just_coalesce="false" />
    <inkscape:path-effect
       effect="simplify"
       id="path-effect61"
       is_visible="true"
       lpeversion="1"
       steps="1"
       threshold="0.000408163"
       smooth_angles="360"
       helper_size="0"
       simplify_individual_paths="false"
       simplify_just_coalesce="false" />
    <inkscape:path-effect
       effect="simplify"
       id="path-effect57"
       is_visible="true"
       lpeversion="1"
       steps="1"
       threshold="0.000408163"
       smooth_angles="360"
       helper_size="0"
       simplify_individual_paths="false"
       simplify_just_coalesce="false" />
  </defs>
  <g
     inkscape:groupmode="layer"
     id="layer2"
     inkscape:label="MusculardaMucosa">
    <path
       style="fill:none;stroke:#000000;stroke-width:0.264583px;stroke-linecap:butt;stroke-linejoin:miter;stroke-opacity:1"
       d="m 52.960769,45.333708 c 0.480374,0.275133 1.053818,0.332088 1.596292,0.255103 0.652883,-0.09265 1.276416,-0.381387 1.937685,-0.385846 0.299006,-0.002 0.603042,0.253345 0.886572,0.09406 0.37057,-0.208178 0.713916,-0.463224 1.043764,-0.732258 0.242382,-0.197694 0.384186,-0.480162 0.538454,-0.745097 0.127153,-0.218368 0.298867,-0.413085 0.528245,-0.534748 0.702601,-0.372663 1.388421,-0.773799 2.058201,-1.206846 0.51209,-0.331092 1.136455,-0.396247 1.7287,-0.450686 0.502528,-0.04619 1.007977,-0.103689 1.489582,-0.266409 0.658068,-0.222341 1.336058,-0.413832 1.937492,-0.761678 0.218782,-0.126535 0.372084,-0.335405 0.528613,-0.528181 0.24402,-0.300528 0.63157,-0.402494 0.97096,-0.551936 0.223407,-0.09837 0.413502,-0.261337 0.545676,-0.467888 0.138559,-0.216529 0.298905,-0.429522 0.534738,-0.550962 0.327738,-0.168766 0.661411,-0.333608 1.024173,-0.40522 0.201987,-0.03987 0.411881,-0.01501 0.616119,-0.0028 0.932352,0.05581 1.859008,0.195612 2.792329,0.22762 0.324889,0.01114 0.56152,-0.258425 0.844263,-0.374206 0.669762,-0.274262 1.371626,-0.461136 2.072108,-0.638418 0.429229,-0.108632 0.857918,-0.22723 1.302355,-0.259774 0.800542,-0.05862 1.606847,0.01866 2.404576,-0.105335 0.507583,-0.0789 1.037605,-0.108216 1.50949,-0.320052 0.264696,-0.118826 0.505279,-0.298425 0.807135,-0.330393 1.074076,-0.113749 2.136456,0.191564 3.21003,0.146254 0.427914,-0.01806 0.847338,-0.176923 1.172303,-0.458615 0.36378,-0.315338 0.700359,-0.662749 1.114264,-0.920128 0.157001,-0.09763 0.337798,-0.153877 0.469792,-0.292958 0.114262,-0.120397 0.230491,-0.241674 0.394886,-0.302465 0.520579,-0.192503 1.083436,-0.183865 1.630287,-0.187949 0.310627,-0.0023 0.619837,-0.0352 0.923573,-0.105195 0.317887,-0.07326 0.656201,-0.150757 0.975875,-0.03855 0.23524,0.08257 0.489155,0.09099 0.73289,0.03542 0.676569,-0.15426 1.344534,-0.361297 1.975364,-0.649213 0.247511,-0.112966 0.45382,-0.302076 0.70807,-0.409001 0.234316,-0.09854 0.862142,0.09899 0.744485,-0.122193 -0.06507,-0.122332 -0.239465,0.03734 -0.33117,0.07968 -0.06372,0.02942 -0.12299,0.04098 -0.02382,0.01472 1.330695,-0.352413 2.718317,-0.302231 4.078016,-0.437332 0.26903,-0.02673 0.54307,-0.05588 0.78601,-0.190798 0.45297,-0.251567 0.8169,-0.712996 1.35298,-0.770741 0.30323,-0.03266 0.59268,-0.205348 0.89882,-0.162994 0.35659,0.04933 0.72448,0.179901 1.08216,0.08458 0.36606,-0.09755 0.69517,-0.304625 1.07981,-0.348742 0.60912,-0.06986 1.23642,0.0644 1.83298,-0.122971 0.55119,-0.173118 1.0459,-0.548518 1.63503,-0.570605 0.71521,-0.02681 1.43298,-0.01634 2.14417,-0.123916 0.29653,-0.04486 0.58482,-0.143845 0.89021,-0.126541 0.5513,0.03124 1.08791,0.166213 1.65388,0.119835 0.11209,-0.0092 0.0206,-0.04377 0.13128,-0.195186 0.0725,-0.09918 0.24782,0.02815 0.33641,0.08126 0.11932,0.07153 0.25938,-0.03122 0.36127,-0.09406 0.23267,-0.143487 0.43925,-0.335367 0.7158,-0.403688 0.92907,-0.229524 1.88832,-0.35635 2.84728,-0.313506 0.28343,0.01266 0.55969,-0.05735 0.82829,-0.143314 0.26228,-0.08395 0.53958,-0.07666 0.81158,-0.05498 0.85103,0.06782 1.7079,0.208735 2.55964,0.119263 0.25469,-0.02675 0.62391,0.0342 0.74758,-0.200956 0.0743,-0.141257 0.21198,-0.210263 0.36331,-0.255105 0.7223,-0.214035 1.47173,-0.318276 2.2007,-0.505372 0.26042,-0.06684 0.55151,-0.08073 0.77295,-0.236519 0.17293,-0.12166 0.24015,-0.336617 0.43344,-0.446196 0.34282,-0.194352 0.74433,-0.319807 0.99572,-0.644302 0.26929,-0.347597 0.46195,-0.743685 0.74584,-1.085301 0.26103,-0.314106 0.48985,-0.655507 0.67887,-1.021301 0.0746,-0.144407 0.0193,-0.298874 -0.11565,-0.396794 -0.33094,-0.240117 -0.72233,-0.379426 -1.10896,-0.510005 -0.1522,-0.0514 -0.32227,0.0017 -0.39569,0.160628 -0.15604,0.337788 -0.48634,0.568304 -0.84909,0.651558 -0.30376,0.06971 -0.65886,0.02337 -0.91272,0.212307 -0.50927,0.379026 -0.83371,0.976043 -1.40245,1.278911 -0.46083,0.245402 -0.99663,0.297844 -1.51034,0.297925 -0.86372,1.36e-4 -1.73335,-0.134642 -2.59309,0.02442 -0.85204,0.157638 -1.66943,0.448531 -2.49057,0.717114 -0.59359,0.194154 -1.08218,0.63314 -1.70945,0.745768 -1.23332,0.221445 -2.50078,-0.0029 -3.73192,0.222349 -0.89848,0.164368 -1.73673,0.59207 -2.65915,0.642963 -0.88299,0.04872 -1.7659,-0.08411 -2.6494,0.0073 -1.08636,0.112377 -2.16394,0.29348 -3.23982,0.477504 -0.36737,0.06284 -0.72577,0.237291 -0.95225,0.543109 -0.21194,0.286188 -0.40167,0.599582 -0.70237,0.807892 -0.34197,0.236897 -0.77643,0.251396 -1.17723,0.265425 -0.51377,0.01798 -1.02829,-0.01873 -1.542138,0.02209 -0.169629,0.01347 -0.320917,0.100217 -0.432705,0.226817 -0.132875,0.150481 -0.292314,0.288355 -0.501803,0.321005 -0.694766,0.108283 -1.400454,-0.191279 -2.087883,-0.0069 -0.652962,0.175157 -1.155765,0.726392 -1.836551,0.806285 -0.418809,0.04915 -0.828839,-0.07572 -1.245886,-0.0994 -1.264223,-0.07179 -2.544543,-0.0093 -3.780559,0.273893 -0.681206,0.156103 -1.224583,0.620064 -1.8031,0.984165 -0.228929,0.144081 -0.450318,0.332383 -0.717914,0.381963 -0.496037,0.0919 -1.013532,-0.02265 -1.50359,0.09617 -0.305981,0.07419 -0.783356,0.03781 -0.881089,0.337594 -0.01689,0.05182 0.316295,0.02244 0.210247,0.01689 -0.221251,-0.01157 -0.44104,0.04536 -0.655463,0.09453 -0.361584,0.08291 -0.724369,0.160719 -1.094496,0.198471 -0.757362,0.07725 -1.535174,0.0928 -2.256677,0.374161 -0.663656,0.258799 -1.387781,0.185286 -2.083152,0.16711 -0.552336,-0.01444 -1.126167,0.01532 -1.631783,0.267745 -0.859088,0.428888 -1.581106,1.08365 -2.435483,1.519666 -0.253502,0.12937 -0.538097,0.217319 -0.827806,0.17102 -0.292853,-0.0468 -0.583483,-0.112528 -0.88539,-0.09053 -1.993718,0.145288 -4.018638,-0.08444 -5.988442,0.291696 -0.478453,0.09136 -0.968888,0.241172 -1.345117,0.554065 -0.202762,0.168628 -0.282799,0.498041 -0.549128,0.565251 -0.177959,0.04491 -0.364893,-0.0041 -0.546031,0.02592 -0.278381,0.04618 -0.535798,0.17581 -0.779343,0.312519 -0.696334,0.390871 -1.296467,0.932131 -2.012642,1.292052 -0.657363,0.330364 -1.377239,0.566128 -1.944267,1.048338 -0.118182,0.100504 -0.237039,0.190625 -0.388393,0.244297 -0.871871,0.309176 -1.836254,0.40372 -2.63539,0.869631 -0.168602,0.0983 -0.263458,-0.121283 -0.431632,-0.107909 -0.218468,0.01737 -0.349626,0.216445 -0.465161,0.37677 -0.421388,0.584748 -0.793526,1.208313 -1.083831,1.867135 -0.112647,0.255643 -0.282031,0.507441 -0.28874,0.789452 -0.0055,0.230731 0.186483,0.0052 0.269573,-0.02462"
       id="path59"
       inkscape:path-effect="#path-effect61"
       inkscape:original-d="m 52.960769,45.333708 c 1.196994,0.658193 2.257915,0.0089 3.46669,-0.126992 0.362403,-0.04075 0.665898,0.268549 1.01962,0.05644 0.366474,-0.219758 0.829879,-0.528185 1.129419,-0.846617 0.285004,-0.302982 0.43907,-0.874768 0.831373,-1.086493 0.71805,-0.387532 1.383192,-0.707519 2.086293,-1.213487 0.783241,-0.56364 2.025433,-0.419762 2.917671,-0.649076 0.758828,-0.195025 1.52957,-0.617053 2.274525,-0.860727 0.203261,-0.06649 0.525346,-0.556072 0.705885,-0.691406 0.334227,-0.250537 0.843259,-0.335206 1.145109,-0.606745 0.222742,-0.200377 0.326112,-0.503603 0.564708,-0.691404 0.329361,-0.259247 0.832284,-0.307089 1.207854,-0.522081 0.171159,-0.09798 3.074297,0.225763 3.451006,0.225763 0.297518,0 0.609481,-0.305504 0.878435,-0.409199 0.828812,-0.319551 1.7057,-0.529061 2.556886,-0.747847 0.977283,-0.251196 2.005242,-0.05133 2.980412,-0.197541 0.468093,-0.07018 1.281549,-0.167193 1.694132,-0.352758 0.221507,-0.09962 0.43742,-0.277943 0.6902,-0.310428 1.037939,-0.133387 2.074958,0.141105 3.105901,0.141105 1.500548,0 1.504583,-0.958914 2.760811,-1.523915 0.188354,-0.08472 0.332753,-0.358077 0.50196,-0.423305 0.774808,-0.298693 1.349451,-0.179935 2.149041,-0.239876 0.378563,-0.02838 0.752131,-0.183436 1.129419,-0.183436 0.317703,0 0.495898,0.170011 0.878435,0.126995 0.573489,-0.06449 2.545117,-0.724035 2.854923,-1.072388 0.09415,-0.105868 0.768633,-0.12977 0.768633,-0.1411 0,-0.146105 -0.280064,0.08523 -0.423529,0.112882 1.461713,-0.402207 2.95803,-0.302925 4.486309,-0.493862 0.68588,-0.08569 1.10751,-0.835762 1.85099,-0.931275 0.22713,-0.02918 0.63686,-0.186733 0.84707,-0.155217 0.28086,0.04211 0.73365,0.155943 1.01961,0.09878 0.3355,-0.06707 0.63888,-0.278622 0.97256,-0.338652 0.51445,-0.09255 1.05845,-0.0039 1.58432,-0.05644 0.72554,-0.07249 1.38602,-0.633886 2.08629,-0.663182 0.74844,-0.03131 1.54837,0.03191 2.5412,-0.211653 0.71696,-0.175886 1.48767,0.302458 2.25884,0.04233 0.12324,-0.04157 -0.0273,-0.137883 -0.0157,-0.169324 0.0365,-0.09851 0.38309,0.133067 0.40784,0.126994 0.39093,-0.0959 0.5936,-0.422667 0.9255,-0.507975 0.87613,-0.225197 1.89211,-0.381263 2.79218,-0.338647 0.78078,0.03697 0.78667,-0.164381 1.36471,-0.211652 0.45221,-0.03698 3.56291,0.460102 3.79611,-0.169324 0.0914,-0.246678 2.70704,-0.612824 3.23139,-0.87484 0.16282,-0.08136 0.23226,-0.311916 0.37647,-0.409199 0.29508,-0.199055 0.7307,-0.311835 1.00393,-0.60674 0.28877,-0.311676 0.45636,-0.777622 0.76864,-1.114716 0.19709,-0.212756 0.93763,-1.128392 0.73726,-1.368698 -0.16464,-0.197464 -0.60656,-0.407188 -0.83138,-0.493861 -1.0815,-0.416938 -0.4875,0.149787 -1.34903,0.592631 -0.30719,0.157902 -1.01497,0.142432 -1.25491,0.338647 -0.57119,0.467097 -0.92331,1.129846 -1.63139,1.368698 -1.13125,0.381598 -2.39048,-0.0093 -3.5608,0.155217 -0.94907,0.133383 -1.75803,0.482237 -2.6667,0.733734 -0.6285,0.173955 -1.08655,0.639275 -1.74118,0.761958 -1.18545,0.222159 -2.37889,0.0509 -3.56082,0.197541 -0.88354,0.109623 -1.71424,0.538767 -2.57256,0.649076 -0.88382,0.113585 -1.834,-0.06383 -2.72943,0.01411 -1.10255,0.09597 -2.25148,0.314047 -3.35689,0.479752 -1.28611,0.192793 -1.03971,0.965481 -1.88237,1.439251 -0.71014,0.399265 -2.487678,0.02358 -2.886291,0.310423 -0.240447,0.173028 -0.305421,0.393595 -0.627458,0.451529 -0.607728,0.10933 -1.284045,-0.123256 -1.91374,-0.04233 -0.732426,0.09413 -1.331595,0.748697 -2.039231,0.846616 -0.334833,0.04633 -0.704,-0.05875 -1.035299,-0.08466 -1.273173,-0.09958 -2.744772,-0.02127 -3.968659,0.253988 -0.961934,0.21634 -1.602641,0.960681 -2.447078,1.340475 -0.28668,0.128937 -1.208825,0.03901 -1.600013,0.126994 -0.449919,0.101187 -0.918265,0.338281 -0.894124,0.352758 0.06739,0.04041 0.2353,0.09269 0.2353,0.01411 0,-0.08701 -1.069196,0.173895 -1.113736,0.183435 -0.938479,0.200999 -1.960155,0.08568 -2.854924,0.451528 -1.065971,0.435844 -2.168385,0.02198 -3.26277,0.268094 -1.055623,0.237394 -2.660945,1.842831 -3.513748,1.89078 -0.334906,0.01883 -0.67186,-0.140086 -1.019615,-0.112882 -2.005218,0.15686 -3.994285,-0.0016 -5.992202,0.282205 -0.48155,0.0684 -1.01446,0.263445 -1.411774,0.536193 -0.258342,0.177348 -0.392532,0.620853 -0.705889,0.620853 -0.222015,0 -0.41213,-0.02668 -0.643141,0.05644 -0.841329,0.30271 -1.427011,0.879274 -2.196095,1.34048 -0.881894,0.528857 -1.706084,0.688019 -2.525509,1.425139 -0.08151,0.07332 -2.848939,0.973611 -2.917669,0.973611 -0.182787,0 -0.15466,-0.212445 -0.470592,-0.09877 -0.401846,0.144586 -1.901035,2.90409 -1.694131,3.09016 0.06821,0.06134 0.163646,-0.08483 0.250983,-0.112882" />
    <path
       style="fill:none;stroke:#000000;stroke-width:0.264583px;stroke-linecap:butt;stroke-linejoin:miter;stroke-opacity:1"
       d="m 52.463832,98.174814 c 1.060806,-0.299812 2.094841,-0.691651 3.162463,-0.965536 0.73608,-0.188832 1.509144,0.07183 2.242137,-0.121418 0.971101,-0.256024 1.919292,-0.596703 2.838629,-1.000004 0.348602,-0.152927 0.691694,-0.31851 1.021505,-0.509494 0.372267,-0.215569 0.753421,-0.423279 1.170982,-0.541485 1.258613,-0.356296 2.594292,-0.349625 3.839359,-0.757408 0.808043,-0.264649 1.592914,-0.613739 2.43488,-0.768639 0.361703,-0.06654 0.73576,-0.02631 1.084732,0.0856 0.338138,0.108429 0.678524,0.218999 0.992171,0.384665 0.137741,0.07275 0.2168,0.247155 0.385887,0.259557 0.330842,0.02427 0.66316,-2.83e-4 0.993188,-0.0255 0.563203,-0.04304 1.130502,-0.07111 1.68502,-0.17989 1.003601,-0.196879 1.980279,-0.538128 2.88349,-1.017403 0.537095,-0.285001 0.987041,-0.732087 1.573653,-0.920137 1.323557,-0.424293 2.612975,-0.960696 3.957137,-1.313996 0.278926,-0.07331 0.574116,0.0089 0.851172,-0.09377 0.619419,-0.22957 1.13984,-0.678511 1.772245,-0.869019 0.310543,-0.09355 0.641231,-0.06605 0.958587,-0.03218 0.801414,0.08553 1.601183,0.280686 2.41053,0.211967 0.301977,-0.02564 0.629742,-0.05545 0.875857,-0.237609 0.217128,-0.160709 0.291648,-0.435121 0.43967,-0.649913 0.09671,-0.140339 0.236942,-0.241599 0.365025,-0.351194 0.548479,-0.469307 1.163037,-0.86511 1.834108,-1.13717 0.382465,-0.155056 0.782834,-0.257468 1.170793,-0.397636 1.05659,-0.381741 2.078985,-0.876913 3.186886,-1.102584 0.307292,-0.06259 0.631202,-0.09918 0.937395,-0.007 0.324256,0.09763 0.604731,0.309224 0.940682,0.373854 0.330909,0.06366 0.66707,-0.01557 0.989661,-0.08713 0.32369,-0.0718 0.649704,-0.132806 0.982794,-0.155246 0.22624,-0.01524 0.40125,-0.185622 0.61116,-0.248305 0.34228,-0.102211 0.69987,-0.143805 1.055,-0.170712 0.24606,-0.01864 0.49109,-0.0569 0.73771,-0.06183 0.24613,-0.0049 0.49057,0.05836 0.73767,0.02589 0.0945,-0.01242 0.18952,-0.127033 0.12828,-0.208815 -0.0844,-0.112669 -0.22948,-0.155104 -0.35854,-0.19159 -0.4617,-0.13053 -0.94003,-0.19252 -1.41709,-0.230716 -0.31621,-0.02532 -0.63674,-0.04599 -0.95102,0.01791 -0.75692,0.153887 -1.436541,0.592487 -2.212778,0.659592 -1.400886,0.121105 -2.807122,0.272291 -4.21261,0.212591 -0.367237,-0.0156 -0.727272,-0.15093 -1.0987,-0.08773 -0.528262,0.08989 -0.978542,0.464118 -1.51559,0.491813 -0.55372,0.02855 -1.075071,0.256526 -1.540521,0.544701 -0.877396,0.543224 -1.628008,1.258672 -2.436197,1.894513 -0.588553,0.463043 -1.211959,0.901678 -1.921641,1.162934 -0.385393,0.141875 -0.805327,0.118199 -1.203818,0.05245 -0.467551,-0.07715 -0.945578,-0.177482 -1.420494,-0.08614 -1.509164,0.290253 -2.924441,0.9187 -4.427703,1.238997 -0.632038,0.134667 -1.205282,0.450794 -1.74264,0.799355 -0.589908,0.382648 -1.181824,0.778584 -1.84971,1.014276 -0.464454,0.163902 -0.953823,0.278124 -1.446693,0.277829 -0.403988,-2.42e-4 -0.807284,-0.06892 -1.211892,-0.01744 -0.522717,0.06652 -1.045798,0.25422 -1.574886,0.16304 -0.504712,-0.08698 -0.999661,-0.221772 -1.501288,-0.32419 -0.528897,-0.107986 -1.064616,-0.207575 -1.606975,-0.204453 -0.413962,0.0024 -0.805127,0.172993 -1.149563,0.3907 -0.583985,0.369119 -1.072637,0.879709 -1.704607,1.176371 -0.468499,0.219925 -1.004442,0.150334 -1.487522,0.330285 -0.988915,0.368378 -2.043047,0.527409 -3.019954,0.93447 -1.206643,0.502788 -2.38276,1.089839 -3.648132,1.443968 -0.301828,0.08447 -0.614259,0.116373 -0.92607,0.139221 -0.325162,0.02383 -0.665799,0.01407 -0.968745,0.140476 -0.239316,0.09986 -0.425496,0.295697 -0.676793,0.37437 -0.44549,0.139468 -0.912767,0.191371 -1.375926,0.231155 -0.21377,0.01836 -0.42796,0.03268 -0.64236,0.04071 z"
       id="path63"
       inkscape:path-effect="#path-effect65"
       inkscape:original-d="m 52.463832,98.174814 c 1.042299,-0.295645 2.053587,-0.634561 3.090219,-0.945393 0.768739,-0.230505 1.598261,0.05011 2.368645,-0.15521 1.081159,-0.288158 2.298404,-0.742368 3.309829,-1.227601 0.489868,-0.23501 0.984052,-0.600093 1.505895,-0.761957 1.244846,-0.386117 2.612176,-0.401492 3.85885,-0.76195 0.735108,-0.212548 1.804823,-0.728538 2.729434,-0.832511 0.730726,-0.08217 1.274482,0.255383 1.898054,0.479753 0.141878,0.05105 0.223507,0.242805 0.392158,0.268091 0.396361,0.05943 2.284838,-0.119644 2.745115,-0.21165 0.967912,-0.193482 1.956292,-0.546765 2.823554,-1.001835 0.541967,-0.284382 1.016135,-0.743701 1.600007,-0.93128 1.311606,-0.421381 2.597129,-0.85666 3.905917,-1.298146 0.265501,-0.08956 0.565364,0.0074 0.831376,-0.08466 0.612963,-0.212072 1.186627,-0.642885 1.788247,-0.87484 0.86223,-0.332436 3.009575,0.570198 4.235326,-0.04233 0.283826,-0.141832 0.371337,-0.602128 0.596085,-0.804285 0.826812,-0.743702 1.580536,-1.23589 2.635319,-1.552133 1.39591,-0.418521 2.650458,-1.142916 4.062769,-1.354588 0.808363,-0.121152 1.03667,0.281829 1.631384,0.409194 0.539861,0.115618 1.334302,-0.239871 1.913745,-0.239871 0.31906,0 0.54195,-0.221932 0.72157,-0.2681 0.57995,-0.14905 1.09064,-0.149447 1.67845,-0.21165 0.31547,-0.03338 0.94118,0.176125 0.94118,-0.141108 0,-0.3297 -1.97669,-0.51626 -2.40002,-0.493858 -0.85217,0.0451 -1.698262,0.629412 -2.572564,0.705517 -1.355291,0.117975 -2.783554,0.211653 -4.141205,0.211653 -0.36317,0 -0.702295,-0.147611 -1.082371,-0.09877 -0.575911,0.07401 -1.097957,0.469971 -1.647068,0.50797 -1.981761,0.137147 -3.893958,3.016033 -5.929453,3.626348 -0.854358,0.256167 -1.627539,-0.232947 -2.494137,-0.07055 -1.487511,0.278746 -2.905742,0.937178 -4.376507,1.227598 -1.852624,0.365818 -2.606355,1.910204 -4.956898,2.102437 -0.397496,0.03251 -0.803936,-0.05937 -1.207849,-0.02822 -0.615061,0.04743 -1.199592,0.280871 -1.819622,0.169323 -0.867926,-0.156147 -2.60368,-0.685665 -3.43532,-0.465641 -1.007034,0.266428 -1.607455,1.178836 -2.541196,1.552133 -0.405731,0.162206 -0.92429,0.110408 -1.333344,0.2681 -0.959512,0.369896 -1.998491,0.515869 -2.949038,0.903057 -1.314477,0.535427 -2.592925,1.235673 -4.000032,1.552134 -0.537234,0.120824 -1.092771,0.06258 -1.631384,0.211653 -0.175019,0.04844 -0.383958,0.229806 -0.533339,0.310428 -0.460393,0.248473 -1.753899,0.336282 -2.211781,0.352758 z" />
    <path
       style="fill:none;stroke:#000000;stroke-width:0.264583px;stroke-linecap:butt;stroke-linejoin:miter;stroke-opacity:1"
       d="m 129.79211,66.670877 c 0.16705,0.01257 0.34114,0.01321 0.49939,-0.04915 0.15055,-0.05933 0.27001,-0.171351 0.39583,-0.269337 0.15468,-0.120466 0.32359,-0.222398 0.502,-0.303436 0.0314,-0.01427 0.12148,-0.06426 0.0939,-0.0436 -0.0376,0.02819 -0.0921,0.04729 -0.10664,0.09329 -0.0146,0.0462 0.0525,0.04595 0.0825,0.04546 0.1131,-0.0019 0.22578,-0.01962 0.33518,-0.0476 0.0735,-0.01879 0.15312,-0.02898 0.21573,-0.0718 0.0304,-0.02076 0.11478,-0.07493 0.077,-0.08299 -0.0408,-0.0087 -0.083,0.01393 -0.1152,0.03695 -0.031,0.0222 -0.12233,0.06656 -0.0848,0.08139 0.0411,0.01624 0.0877,-0.0113 0.12312,-0.0315 0.0675,-0.03852 0.11997,-0.0989 0.18595,-0.140333 0.0105,-0.0066 0.0213,-0.02722 -0.002,-0.0206 -0.0129,0.0037 -0.06,0.03003 -0.0235,0.03113 0.071,0.0022 0.14168,-0.0094 0.21129,-0.02196 0.10671,-0.01923 0.21701,-0.03187 0.31648,-0.07568 0.0529,-0.02331 0.10319,-0.05231 0.15435,-0.07926 0.24005,-0.126462 0.50351,-0.215725 0.72069,-0.378346 0.0162,-0.01215 0.0722,-0.04041 0.0532,-0.03728 -0.0488,0.0081 -0.0937,0.03316 -0.14246,0.04135 -0.0169,0.0028 -0.0639,0.02142 -0.0524,0.0079 0.0311,-0.03664 0.0758,-0.0593 0.11695,-0.08319 0.12299,-0.0714 0.24998,-0.135904 0.37948,-0.194923 0.0865,-0.03943 0.1839,-0.03643 0.27653,-0.02773 0.10012,0.0094 0.20793,0.03047 0.302,-0.01241 0.0647,-0.02949 0.0977,-0.09631 0.13625,-0.151773 0.03,-0.04309 0.075,-0.07564 0.12981,-0.0836 0.009,-0.0012 0.0328,7.59e-4 0.0123,0.0066 -0.0544,0.01553 -0.21814,0.05889 -0.16565,0.03774 0.039,-0.01572 0.0809,-0.02647 0.12253,-0.03371 0.0648,-0.01126 0.13432,-0.0033 0.19408,-0.03583 0.0429,-0.0233 0.11274,-0.04781 0.10769,-0.09953 -0.003,-0.03112 -0.05,-0.01944 -0.0716,-0.0135 -0.0359,0.0099 -0.13749,0.02781 -0.1031,0.04163 0.0274,0.01101 0.0726,-0.0052 0.10236,-0.02165 0.0639,-0.03536 0.10074,-0.10554 0.16335,-0.141111 0.0544,-0.03089 0.11955,-0.03344 0.18064,-0.03323 0.10134,3.62e-4 0.20491,0.01447 0.30465,-0.01523 0.0407,-0.01211 0.008,-0.06108 -0.003,-0.08551 -0.0177,-0.04281 -0.0154,-0.09355 0.0237,-0.128847 0.0727,-0.06562 0.1703,-0.08824 0.26057,-0.119552 0.0443,-0.01538 0.0951,-0.02196 0.13095,-0.05286 0.0501,-0.04316 0.0657,-0.110278 0.0889,-0.169348 0.0158,-0.04024 0.0393,-0.07831 0.0763,-0.10333 0.12568,-0.08484 0.27858,-0.111849 0.42583,-0.133506 0.13327,-0.0196 0.26929,-0.03012 0.39784,-0.07281 0.0526,-0.01746 0.10417,-0.05379 0.11906,-0.110166 0.0169,-0.06391 0.0105,-0.132303 0.0399,-0.193975 0.0259,-0.05444 0.0856,-0.07939 0.14141,-0.09134 0.11849,-0.02534 0.24689,-0.0038 0.35889,-0.0529 0.0347,-0.01519 0.11045,-0.04369 0.0874,-0.07933 -0.013,-0.02015 -0.0559,-0.0247 -0.0377,-0.06045 0.0568,-0.111112 0.14687,-0.201387 0.24771,-0.273534 0.0925,-0.06617 0.19029,-0.124856 0.27534,-0.20147 0.12731,-0.114689 0.24357,-0.241716 0.37849,-0.347861 0.10829,-0.08519 0.23702,-0.142877 0.37236,-0.169319 0.0447,-0.0087 0.0937,3.7e-5 0.13547,-0.01829 0.0174,-0.0076 -0.0135,-0.02154 -0.0214,-0.02743 -0.0215,-0.016 -0.0813,-0.04875 -0.0425,-0.07349 0.0406,-0.02585 0.0928,-0.02834 0.13764,-0.01749 0.0347,0.0084 0.12609,0.01966 0.10014,0.05598 -0.0285,0.0399 -0.0857,0.01592 -0.12392,0.0024 -0.0362,-0.01284 -0.0815,-0.07681 -0.0303,-0.09547 0.05,-0.01822 0.104,0.0088 0.15478,-0.0089 0.0384,-0.01336 0.0575,-0.05298 0.0585,-0.09101 0.001,-0.0452 0.0444,-0.0672 0.0827,-0.08051 0.0656,-0.02277 0.14424,-0.02538 0.19457,-0.07593 0.0427,-0.04292 0.0506,-0.106387 0.0826,-0.157916 0.0766,-0.123175 0.18071,-0.225777 0.26511,-0.343286 0.0307,-0.04274 0.0671,-0.0836 0.0846,-0.13331 0.0197,-0.05611 0.007,-0.117075 0.0129,-0.17516 0.002,-0.02622 -0.0133,-0.08774 0.0145,-0.08017 0.0524,0.01427 0.0589,0.08455 0.0246,0.124981 -0.0512,0.06045 -0.12284,0.09875 -0.19216,0.134553 -0.11255,0.05814 -0.23777,0.08968 -0.34745,0.152695 -0.0675,0.0388 -0.13691,0.07436 -0.20773,0.106904 -0.17837,0.08196 -0.36401,0.157921 -0.51407,0.288355 -0.0954,0.08295 -0.16142,0.192733 -0.22726,0.299067 -0.1003,0.161989 -0.18581,0.334358 -0.30437,0.484009 -0.0453,0.05712 -0.0964,0.117731 -0.17014,0.137617 -0.0898,0.02421 -0.18772,-0.01411 -0.27406,0.0261 -0.0743,0.03459 -0.11482,0.110233 -0.15367,0.177729 -0.0312,0.05429 -0.0802,0.09473 -0.13195,0.128707 -0.13007,0.08535 -0.28385,0.125646 -0.41293,0.212806 -0.0517,0.0349 -0.0815,0.09161 -0.11446,0.142688 -0.0486,0.07541 -0.094,0.156296 -0.16736,0.211316 -0.11665,0.08751 -0.25074,0.147379 -0.38167,0.209861 -0.13548,0.06465 -0.27519,0.122807 -0.40089,0.205758 -0.0367,0.02419 -0.0656,0.05729 -0.0967,0.08832 -0.0648,0.06452 -0.14319,0.113301 -0.22121,0.160013 -0.23954,0.143425 -0.48915,0.269466 -0.74236,0.38665 -0.18036,0.08347 -0.36315,0.161728 -0.54838,0.234133 -0.12292,0.04805 -0.25758,0.03654 -0.38498,0.06276 -0.053,0.01091 -0.11699,0.01709 -0.15049,0.06032 -0.0293,0.03779 0.008,0.09956 -0.0281,0.130129 -0.0357,0.03003 -0.0796,0.04845 -0.12203,0.06677 -0.18729,0.08088 -0.3809,0.146099 -0.57483,0.209052 -0.0689,0.02236 -0.13957,0.0382 -0.20936,0.05728 -0.21817,0.05965 -0.41132,0.182098 -0.5991,0.304496 -0.14123,0.09206 -0.27907,0.194717 -0.43869,0.252614 -0.0873,0.03165 -0.17966,0.05633 -0.25615,0.110241 -0.046,0.03239 -0.0787,0.07914 -0.12332,0.113521 -0.0455,0.03505 -0.091,0.07286 -0.14466,0.09319 -0.0512,0.01942 -0.10556,0.03351 -0.16012,0.03456 -0.0171,3.28e-4 0.0196,-0.004 0.0231,-0.0058 0.021,-0.01117 0.0711,0.01131 0.0402,0.03136 -0.0383,0.02489 -0.0855,0.03023 -0.12965,0.03725 -0.0508,0.0081 -0.20453,0.01909 -0.15336,0.01704 0.10807,-0.0043 0.42082,-0.08506 0.3207,-0.04487 -0.0218,0.0088 -0.0717,-0.0033 -0.0688,0.02012 0.003,0.02392 0.0397,0.07824 0.0554,0.05465 0.0317,-0.04739 -0.0286,-0.07893 -0.0698,-0.08551 -0.0973,-0.01552 -0.19729,-0.0066 -0.29298,0.0139 -0.0771,0.01652 -0.14941,0.04924 -0.22159,0.07999 -0.28933,0.123239 -0.56162,0.282109 -0.84499,0.417591 z"
       id="path71"
       inkscape:path-effect="#path-effect73"
       inkscape:original-d="m 129.79211,66.670877 c 0.72125,0.05742 0.64256,-0.261699 1.36261,-0.605377 0.40383,-0.192747 -0.32518,0.143049 0.24925,0.06727 0.13626,-0.01797 0.27167,-0.05246 0.39882,-0.104635 0.036,-0.01476 0.1137,-0.08968 0.0748,-0.08968 -0.0719,0 -0.24643,0.127053 -0.17448,0.127053 0.11429,0 0.38673,-0.241205 0.2825,-0.194318 -0.16979,0.07637 0.4235,-0.01932 0.54005,-0.08221 0.0617,-0.03328 0.58961,-0.309385 0.79762,-0.418531 0.28317,-0.148579 -0.0954,0.01024 -0.0914,-0.01495 0.005,-0.0312 0.40032,-0.247139 0.53175,-0.291475 0.17398,-0.05869 0.35921,0.03436 0.53175,-0.02241 0.12567,-0.04136 0.13887,-0.253574 0.29911,-0.23916 0.0323,0.0029 -0.3173,0.08034 -0.10801,0.02241 0.14587,-0.04037 0.18281,0.0091 0.31572,-0.08969 0.0219,-0.01627 0.0598,-0.06875 0.0332,-0.07474 -0.056,-0.0126 -0.11264,0.02421 -0.16617,0.04484 -0.0155,0.006 0.0337,0.0041 0.0498,0 0.10921,-0.02807 0.17381,-0.147844 0.23264,-0.171894 0.14617,-0.05976 0.34138,0.01836 0.48189,-0.04484 0.0296,-0.01331 -0.0693,-0.135215 -0.008,-0.194317 0.11159,-0.108096 0.23565,-0.109863 0.3822,-0.171898 0.0983,-0.0416 0.0941,-0.217395 0.17448,-0.276526 0.2222,-0.163534 0.55799,-0.133832 0.81424,-0.20927 0.22884,-0.06737 0.10536,-0.209428 0.1994,-0.33632 0.0955,-0.128876 0.42424,-0.04529 0.54837,-0.156945 0.0741,-0.06667 -0.0406,-0.05047 -0.0166,-0.09716 0.13123,-0.25576 0.349,-0.321408 0.49852,-0.455901 0.34247,-0.308068 0.46823,-0.524082 0.91394,-0.560533 0.0388,-0.0032 -0.0968,-0.05756 -0.0748,-0.08969 0.0459,-0.06708 0.30137,-0.01699 0.24095,0.03737 -0.046,0.04133 -0.18933,-0.02492 -0.16617,-0.08221 0.0221,-0.05471 0.12066,-0.0057 0.17448,-0.0299 0.0863,-0.0388 0.0326,-0.112461 0.0914,-0.149476 0.0726,-0.04573 0.24522,-0.04818 0.27419,-0.141999 0.0599,-0.193919 0.26619,-0.344366 0.39881,-0.582957 0.0419,-0.07545 -0.0143,-0.31183 0.0499,-0.254108 0.1752,0.157578 -0.47078,0.364535 -0.54837,0.411059 -0.23681,0.14201 -0.5373,0.213008 -0.74777,0.426006 -0.18473,0.186949 -0.42902,0.753033 -0.60652,0.859483 -0.11516,0.06906 -0.24285,-0.0063 -0.34897,0.05979 -0.0871,0.05424 -0.12162,0.176668 -0.19109,0.239163 -0.14821,0.13331 -0.3722,0.176355 -0.50682,0.284003 -0.0576,0.04603 -0.14234,0.225309 -0.21603,0.29895 -0.19277,0.192673 -0.78539,0.363615 -0.91394,0.530641 -0.14299,0.18579 -1.2656,0.715055 -1.56201,0.807164 -0.15956,0.04958 -0.3501,0.0136 -0.49021,0.104635 -0.0414,0.02687 -0.002,0.112419 -0.0415,0.142002 -0.10553,0.0791 -0.68506,0.277373 -0.84748,0.313899 -0.45012,0.101224 -0.78454,0.465651 -1.10504,0.575479 -0.38508,0.131958 -0.19175,0.13013 -0.49851,0.306425 -0.0492,0.02829 -0.22206,0.04742 -0.16618,0.03737 0.0219,-0.0039 0.0587,-0.01344 0.0665,0.0075 0.0223,0.06003 -0.33223,0.07474 -0.2908,0.07474 0.11384,0 0.46465,-0.07647 0.25757,-0.02989 -0.0253,0.0057 0.0373,0.08247 0.0498,0.05979 0.0705,-0.126804 -0.29593,-0.102504 -0.43204,-0.05232 -0.34585,0.127532 -0.66469,0.318881 -0.99703,0.478322 z" />
  </g>
</svg>
