<?xml version="1.0" encoding="UTF-8" standalone="no"?>
<!-- Created with Inkscape (http://www.inkscape.org/) -->

<svg
   width="169.33333mm"
   height="127mm"
   viewBox="0 0 169.33333 127"
   version="1.1"
   id="svg5"
   inkscape:version="1.1.2 (08b2f3d93c, 2022-04-05)"
   sodipodi:docname="Muscular_da_Mucosa.svg"
   xmlns:inkscape="http://www.inkscape.org/namespaces/inkscape"
   xmlns:sodipodi="http://sodipodi.sourceforge.net/DTD/sodipodi-0.dtd"
   xmlns="http://www.w3.org/2000/svg"
   xmlns:svg="http://www.w3.org/2000/svg">
  <sodipodi:namedview
     id="namedview7"
     pagecolor="#ffffff"
     bordercolor="#666666"
     borderopacity="1.0"
     inkscape:pageshadow="2"
     inkscape:pageopacity="0.0"
     inkscape:pagecheckerboard="0"
     inkscape:document-units="mm"
     showgrid="false"
     inkscape:zoom="1.0076756"
     inkscape:cx="386.03692"
     inkscape:cy="239.66045"
     inkscape:window-width="1366"
     inkscape:window-height="704"
     inkscape:window-x="0"
     inkscape:window-y="27"
     inkscape:window-maximized="1"
     inkscape:current-layer="layer2" />
  <defs
     id="defs2" />
  <g
     inkscape:groupmode="layer"
     id="layer2"
     inkscape:label="Muscular_da_Mucosa">
    <path
       style="fill:none;stroke:#000000;stroke-width:0.264583px;stroke-linecap:butt;stroke-linejoin:miter;stroke-opacity:1"
       d="m 129.75705,128.19062 c -1.62082,-2.94566 -1.813,-6.33968 -2.61905,-9.52971 -0.45936,-1.818 -1.29107,-3.62161 -1.84041,-5.43343 -0.58104,-1.91638 -1.13093,-4.054 -1.3685,-6.04893 -0.0649,-0.54479 0.13079,-1.16864 0,-1.69795 -0.13286,-0.53774 -0.33154,-1.11146 -0.37752,-1.67672 -0.073,-0.89769 -0.3437,-2.05641 -0.23595,-2.92895 0.0996,-0.80633 0.49419,-1.47247 0.35392,-2.355904 -0.0487,-0.306961 -0.28537,-0.586128 -0.30674,-0.912643 -0.0237,-0.362019 0.18399,-0.730707 0.11799,-1.146106 -0.34762,-2.187898 -2.11317,-1.620033 -1.93481,-4.987716 0.0311,-0.587716 -0.23898,-1.741278 0.0944,-2.228559 1.43387,-2.095844 2.86005,-0.02564 2.40669,-4.308533 -0.0364,-0.343511 -0.44858,-0.806942 -0.63706,-1.061217 -0.13751,-0.185513 -0.90571,-2.413114 -1.01458,-2.844057 -0.30662,-1.213667 -0.011,-2.406613 -0.44831,-3.586911 -0.21011,-0.567005 -0.96991,-0.887868 -1.32132,-1.37958 -0.4123,-0.576908 -0.4119,-1.401818 -0.80224,-2.016305 -0.22663,-0.356774 -0.53645,-0.402042 -0.66066,-0.848976 -0.21977,-0.790721 -0.51848,-2.023105 -0.44829,-2.844057 0.0522,-0.610306 0.24365,-1.140714 0.18875,-1.782839 -0.18559,-2.170665 -0.8797,-2.875984 -1.46289,-4.7118 -0.26102,-0.82164 2.78088,-2.221119 3.20892,-2.631819 0.20396,-0.195693 -0.4977,-0.277891 -0.70785,-0.466928 -0.22198,-0.199687 -0.20237,-0.765683 -0.25955,-1.039993 -0.13314,-0.638722 0.16313,-1.116404 0.0708,-1.697947 -0.13683,-0.861711 -0.64794,-1.062752 -0.99099,-1.78284 -0.61267,-1.285999 -0.53665,-2.30361 -1.55727,-3.374665 -1.16026,-1.217591 -0.31852,-2.864871 -0.44831,-4.032623 -0.0617,-0.555059 -1.23462,-1.114327 -1.55727,-1.443252 -0.44435,-0.452998 -1.96749,-2.529117 -2.19434,-3.141199 -0.43067,-1.161994 1.03619,-5.314318 1.27414,-6.813 0.15682,-0.987679 0.54268,-1.99821 0.54268,-2.992633 0,-0.357857 0.0646,-1.051142 -0.11798,-1.37958 -0.0472,-0.08489 -0.23715,-0.237492 -0.14156,-0.25469 0.41502,-0.07466 0.83378,-0.126754 1.25053,-0.191021"
       id="path154" />
    <path
       style="fill:none;stroke:#000000;stroke-width:0.264583px;stroke-linecap:butt;stroke-linejoin:miter;stroke-opacity:1"
       d="m 115.81242,32.617537 c -0.62921,1.153186 -1.22744,2.323827 -1.88762,3.459562 -0.0316,0.05429 0.0415,-0.503656 -0.11797,-0.933866 -0.11535,-0.311242 -0.37575,-0.832985 -0.40113,-1.06122 -0.0259,-0.232915 0.0908,-0.964411 -0.0708,-1.146106 -1.29477,-1.455928 -0.11668,-3.519273 -0.58988,-5.008943 -0.27249,-0.857827 -0.21756,-1.821498 -0.16516,-2.716706 0.0642,-1.097289 -0.3749,-2.872085 -0.58988,-4.032624 -0.0592,-0.319461 0.17841,-0.708141 0.23595,-1.018764 0.17317,-0.934831 0.0248,-4.259356 -0.16516,-5.284854 -0.21589,-1.165422 -0.61751,-2.275182 -0.80225,-3.43834 -0.0662,-0.416889 0.16942,-1.010167 -0.0236,-1.400805 C 110.884,9.3245301 109.95239,8.0306838 109.77206,7.381831 109.43978,6.1861816 109.491,4.9690583 109.135,3.7949235 c -0.1418,-0.4677111 -2.0859,-4.6581595 -2.43029,-4.3722076 -0.17576,0.14593683 -0.45508,0.71259561 -0.51908,0.82774851"
       id="path156" />
    <path
       style="fill:none;stroke:#000000;stroke-width:0.264583px;stroke-linecap:butt;stroke-linejoin:miter;stroke-opacity:1"
       d="m 129.75705,128.19062 c -0.0634,-0.094 -1.56106,-1.62875 -2.35949,-1.20978 -0.096,0.0504 -0.42749,0.41428 -0.49551,0.42448 -0.67904,0.10177 -1.4322,-0.25598 -2.14714,-0.12735 -0.25278,0.0455 -0.5095,0.45847 -0.75505,0.40326 -0.17364,-0.039 -0.5394,-1.56022 -0.80222,-1.97386 -1.55923,-2.454 -3.21676,-7.44951 -3.75161,-10.33624 -0.11287,-0.60917 -0.10769,-3.5291 -0.37752,-3.82037 -1.16181,-1.25413 -1.02443,-4.96801 -1.98198,-6.34608 -0.15306,-0.22027 -0.45677,-0.35104 -0.58987,-0.5306 -0.60117,-0.81101 -0.62114,-1.83189 -1.01458,-2.71672 -0.61735,-1.38837 -2.0956,-1.83167 -2.00559,-3.693016 0.0588,-1.21674 0.86877,-2.484075 1.32133,-3.502025 0.0539,-0.121182 -0.0154,-0.550164 0.0236,-0.700395 0.14707,-0.566959 0.46879,-1.06745 0.5191,-1.655503 0.0691,-0.808222 -0.19326,-1.595723 -0.0944,-2.440789 0.13941,-1.19153 0.67984,-2.332702 0.5427,-3.565686 -0.001,-0.0091 -2.61546,-2.855709 -2.73702,-4.605676 -0.052,-0.747755 0.0959,-1.540217 0.18875,-2.292221 0.0104,-0.08431 -0.32237,-1.454578 -0.23595,-2.03754 0.14047,-0.94751 0.72013,-1.744538 0.82583,-2.695488 0.15843,-1.42539 0.33563,-7.172047 -0.0472,-8.319928 -0.36997,-1.109316 -1.21066,-2.156831 -1.76963,-3.162419 -0.29259,-0.526373 -0.19779,-1.193374 -0.44831,-1.719176 -0.12838,-0.269451 -0.37488,-0.48342 -0.51908,-0.742846 -0.26833,-0.482772 -0.18945,-1.111912 -0.47189,-1.591829 -0.25081,-0.426146 -0.68213,-0.764085 -0.89662,-1.188559 -0.50985,-1.008962 -0.002,-2.267627 -0.11798,-3.310993 -0.10643,-0.957297 -0.8354,-1.809154 -0.96739,-2.759159 -0.33673,-2.423689 -0.30134,-4.771525 -0.49549,-7.216267 -0.085,-1.070301 -0.49832,-1.783398 -0.44831,-2.907729 0.0556,-1.250719 1.03362,-2.509721 0.70785,-3.799149 -0.22293,-0.88234 -0.36789,-1.969164 -0.73145,-2.801612 -0.33447,-0.765834 -1.02953,-1.415947 -1.20334,-2.249776 -0.20527,-0.984747 -0.17925,-2.649474 -0.61347,-3.586911 -0.31733,-0.685057 -1.00686,-1.290455 -1.17976,-2.016313 -0.31716,-1.331535 -0.91544,-4.84965 -1.79321,-5.836684 -0.4271,-0.480259 -3.183537,-4.197577 -3.185331,-4.202413 C 99.257627,16.298825 99.4734,15.11419 99.059948,14.025042 98.739501,13.180885 98.307026,12.32573 98.21053,11.41445 98.125443,10.61089 98.46916,9.7541764 98.328505,8.9948797 98.162228,8.0972728 97.758706,7.2778339 97.597059,6.4055148 c -0.09411,-0.507877 0.07872,-0.9342345 0.165164,-1.400806 0.143303,-0.7734565 0.02299,-2.1493684 -0.07078,-2.992628 C 97.484026,0.14655534 96.96949,1.6636612 97.431895,-0.53483557"
       id="path158" />
  </g>
</svg>
