<?xml version="1.0" encoding="UTF-8" standalone="no"?>
<!-- Created with Inkscape (http://www.inkscape.org/) -->

<svg
   width="353.56799mm"
   height="264.16mm"
   viewBox="0 0 353.56799 264.16"
   version="1.1"
   id="svg5"
   inkscape:version="1.1.2 (08b2f3d93c, 2022-04-05)"
   sodipodi:docname="NoduloLinfatico.svg"
   xmlns:inkscape="http://www.inkscape.org/namespaces/inkscape"
   xmlns:sodipodi="http://sodipodi.sourceforge.net/DTD/sodipodi-0.dtd"
   xmlns="http://www.w3.org/2000/svg"
   xmlns:svg="http://www.w3.org/2000/svg">
  <sodipodi:namedview
     id="namedview7"
     pagecolor="#ffffff"
     bordercolor="#666666"
     borderopacity="1.0"
     inkscape:pageshadow="2"
     inkscape:pageopacity="0.0"
     inkscape:pagecheckerboard="0"
     inkscape:document-units="mm"
     showgrid="false"
     inkscape:zoom="0.47393378"
     inkscape:cx="455.75987"
     inkscape:cy="615.06483"
     inkscape:window-width="1366"
     inkscape:window-height="704"
     inkscape:window-x="0"
     inkscape:window-y="27"
     inkscape:window-maximized="1"
     inkscape:current-layer="layer2" />
  <defs
     id="defs2">
    <inkscape:path-effect
       effect="simplify"
       id="path-effect57"
       is_visible="true"
       lpeversion="1"
       steps="1"
       threshold="0.000408163"
       smooth_angles="360"
       helper_size="0"
       simplify_individual_paths="false"
       simplify_just_coalesce="false" />
  </defs>
  <g
     inkscape:groupmode="layer"
     id="layer2"
     inkscape:label="Nodulo Linfoide">
    <path
       style="fill:none;stroke:#000000;stroke-width:0.264583px;stroke-linecap:butt;stroke-linejoin:miter;stroke-opacity:1"
       d="m 61.113108,158.86317 c 0.635785,-1.70167 0.516134,-3.56025 0.307166,-5.33082 -0.240179,-2.03502 -0.657813,-4.08555 -0.401847,-6.14233 0.135591,-1.08952 0.582722,-2.11289 1.177882,-3.03287 0.465722,-0.7199 1.091118,-1.34122 1.464459,-2.11363 0.463618,-0.95919 0.463525,-2.0498 0.533175,-3.09113 0.03659,-0.54701 -0.0386,-1.12864 0.169179,-1.6383 0.422862,-1.03721 0.977796,-2.01423 1.467169,-3.02063 0.480103,-0.98734 0.991565,-1.97819 1.184562,-3.07395 0.225731,-1.28161 0.268591,-2.59743 0.658658,-3.84899 0.636417,-2.042 1.600372,-3.97983 2.802164,-5.74456 1.002852,-1.4726 2.181067,-2.86771 3.690089,-3.85213 3.052464,-1.9913 6.533784,-3.15056 9.922377,-4.42068 1.425638,-0.53436 2.795047,-1.20467 4.206741,-1.77496 1.689795,-0.68264 3.625151,-0.29151 5.287218,-1.048 1.421336,-0.64692 2.818916,-1.34618 4.194971,-2.08349 3.213959,-1.72209 6.096559,-3.99022 8.837469,-6.37919 0.47039,-0.40999 0.92128,-0.84968 1.48123,-1.14264 1.51431,-0.79227 3.13646,-1.353962 4.75767,-1.880481 2.73073,-0.886857 5.4931,-1.681352 8.28691,-2.344665 1.56218,-0.370897 3.22068,-0.426517 4.7766,0.04558 1.26064,0.382503 2.32526,1.205265 3.3205,2.036476 2.50743,2.094169 4.77862,4.453259 6.98648,6.855229 2.29076,2.49216 4.65563,4.93457 6.68332,7.64506 0.86929,1.16201 1.20261,2.60682 1.54485,3.99064 0.12602,0.50955 0.24226,1.02576 0.21329,1.5569 -0.0918,1.68276 -0.80323,3.25374 -1.02167,4.91341 -0.23813,1.80925 0.028,3.62971 -0.0806,5.44701 -0.35432,5.92982 -1.18393,11.83568 -2.62175,17.61384 -0.15887,0.63845 -0.40724,1.25814 -0.42155,1.92905 -0.0245,1.14595 0.2212,2.30173 -0.0385,3.4411 -0.44647,1.9589 -1.43784,3.73398 -1.92665,5.68419 -1.07984,4.30823 -1.49441,8.7924 -3.04852,12.97086 -0.92676,2.49173 -2.70622,4.62511 -3.31558,7.23191 -0.20031,0.85691 0.13175,1.83241 -0.33145,2.60791 -1.10693,1.85326 -2.76984,3.2825 -4.45881,4.5893 -1.81857,1.40707 -3.68989,2.78769 -5.16341,4.5781 -1.09019,1.32464 -1.94866,2.84167 -3.14968,4.06807 -0.88278,0.90143 -2.25273,1.20123 -2.99057,2.25938 -1.5639,2.24281 -3.61449,4.08418 -5.68023,5.85067 -1.82316,1.55905 -3.652,3.11543 -5.34888,4.81457 -1.93493,1.93751 -3.62055,4.10039 -5.356054,6.21606 -1.348328,1.64368 -3.085653,2.90763 -4.424827,4.56709 -1.140565,1.41335 -2.570237,2.61074 -3.504247,4.17136 -0.430611,0.7195 -0.460795,1.60987 -0.986917,2.29096 -0.754849,0.97718 -1.824156,1.67446 -2.456725,2.75888 -0.727959,1.24795 -0.85215,2.7161 -1.010317,4.12022 -0.119708,1.0627 -0.362401,2.11793 -0.829782,3.0867 -0.785982,1.62916 -1.807633,3.16572 -3.111531,4.42048 -0.627383,0.60374 -1.283677,1.26447 -2.128476,1.51983 -1.297115,0.39209 -2.669045,0.0807 -3.988858,0.37223 -2.280585,0.50375 -4.655234,0.73013 -6.974325,0.33343 -1.669141,-0.28552 -3.247537,-0.93012 -4.778379,-1.64024 -2.094597,-0.97163 -4.382181,-1.47342 -6.421284,-2.57205 -1.729588,-0.93187 -3.197816,-2.35171 -4.174175,-4.05442 -1.030895,-1.79782 -1.347223,-3.89454 -1.445714,-5.93721 -0.09485,-1.96717 0.09777,-3.95116 -0.162461,-5.9052 -0.156733,-1.1769 -0.77043,-2.29273 -0.613816,-3.50847 0.198939,-1.5443 1.05299,-2.87834 1.714698,-4.25306 0.149225,-0.31002 0.274485,-0.63736 0.240973,-0.994 -0.101518,-1.08037 -0.782067,-2.09347 -0.634389,-3.1795 0.225797,-1.66052 1.181692,-3.11436 1.407985,-4.78105 0.272796,-2.00919 0.156226,-4.10334 0.882989,-6.02536 0.674743,-1.78445 2.118109,-3.35694 2.200266,-5.2817 0.02961,-0.69368 -0.130197,-1.37968 -0.255212,-2.05787 -0.337079,-1.8286 -0.803574,-3.63885 -0.980254,-5.49226 -0.07276,-0.76327 0.01034,-1.52933 0.06235,-2.29115 0.19734,-2.89085 0.42353,-5.79985 1.095221,-8.62043 0.271207,-1.13886 0.877807,-2.21199 0.829034,-3.41741 -0.04726,-1.16804 -0.426134,-2.33197 -0.184469,-3.50466 0.353966,-1.71764 1.361595,-3.19545 2.004235,-4.80576 0.179282,-0.44924 0.392627,-0.91026 0.314454,-1.41752 -0.103,-0.66836 -0.588242,-1.31483 -0.398552,-1.99195 0.11297,-0.40326 0.388874,-0.73828 0.64052,-1.06397 1.182062,-1.52987 2.798253,-2.63559 4.139055,-4.01127"
       id="path55"
       inkscape:path-effect="#path-effect57"
       inkscape:original-d="m 61.113108,158.86317 c 1.509395,-4.04228 -1.1758,-8.92807 0.250836,-12.90633 0.474165,-1.32224 1.408083,-2.35173 2.157201,-3.47478 0.808585,-1.2122 0.562165,-3.42227 0.802682,-4.82859 0.09733,-0.56909 2.062186,-4.03302 2.458212,-5.27986 0.425998,-1.3412 0.381966,-2.76166 0.702352,-4.10656 0.759169,-3.18681 3.519559,-8.12563 6.270953,-10.01821 4.347157,-2.99024 9.693545,-4.13272 14.297763,-6.3629 1.697128,-0.82205 3.882525,-0.41494 5.568601,-1.17331 1.152239,-0.51826 2.413714,-1.18614 3.561905,-1.75995 3.621167,-1.80965 7.181007,-4.6544 10.133857,-7.31058 1.84298,-1.657835 12.59743,-4.540732 14.44827,-4.873713 1.64678,-0.296273 3.08349,-0.263776 4.66558,0.361016 3.92617,1.550498 13.69853,13.014897 16.35465,16.200597 1.06137,1.27299 1.43743,3.19107 1.80603,4.73833 0.38211,1.60396 -0.75112,4.34398 -0.95319,5.91165 -0.2149,1.66723 0.0426,3.29637 -0.0502,4.96397 -0.35219,6.33524 -1.11875,13.0614 -2.95991,19.13387 -0.29497,0.97285 0.11653,2.74096 -0.0502,3.79066 -0.31294,1.97065 -1.40718,3.82266 -1.90638,5.73114 -1.13604,4.3432 -1.59894,8.83018 -3.0602,13.13197 -0.8648,2.54587 -2.71221,4.89672 -3.4114,7.49107 -0.2187,0.81149 0.059,2.01661 -0.40134,2.75275 -2.14259,3.42627 -5.72124,5.09648 -8.47833,7.85211 -1.5083,1.5075 -2.72568,3.50159 -4.11375,5.14448 -0.81853,0.9688 -2.37659,1.32828 -3.11039,2.39174 -2.21644,3.21214 -5.92596,5.96234 -8.8295,8.57412 -2.81638,2.53339 -5.0883,5.08635 -7.374629,8.07775 -1.260493,1.64922 -3.111963,2.90847 -4.414747,4.55781 -1.153811,1.46074 -2.519045,2.81233 -3.612079,4.28707 -0.472718,0.6378 -0.468656,1.57838 -0.953175,2.25636 -0.822094,1.15034 -1.867521,1.64495 -2.608714,2.97838 -1.057566,1.90259 -0.740614,3.99995 -1.354532,6.00189 -0.694457,2.26456 -3.210116,5.84029 -5.367938,6.94956 -1.089091,0.55987 -2.835587,0.17512 -4.063564,0.45127 -4.250944,0.95598 -7.517796,0.89402 -11.638888,-1.08304 -3.872632,-1.85787 -7.309707,-1.86553 -10.284359,-5.77625 -2.814966,-3.70078 -1.938851,-8.33447 -2.25755,-12.63558 -0.08942,-1.20682 -0.783822,-2.38652 -0.652176,-3.61015 0.191074,-1.77603 1.252357,-3.19503 1.906378,-4.78346 0.353497,-0.85855 -0.740817,-2.83816 -0.551847,-3.92606 0.261774,-1.50703 1.129668,-2.89401 1.354532,-4.37732 0.315717,-2.0826 0.190032,-4.39509 0.953172,-6.36292 0.655055,-1.68911 1.761122,-3.36319 2.157217,-5.14448 0.195744,-0.88028 -1.336143,-6.53455 -1.254202,-8.30337 0.149802,-3.23354 0.518319,-6.89312 1.153853,-10.06332 0.198594,-0.99063 0.782069,-2.04994 0.852861,-3.06865 0.08024,-1.15479 -0.348292,-2.33517 -0.250838,-3.47478 0.170918,-1.99869 1.70856,-4.14875 2.357879,-6.04701 0.322456,-0.94269 -0.760471,-2.12229 -0.250836,-2.97839 1.139328,-1.91388 3.110389,-3.18898 4.665583,-4.78346" />
  </g>
</svg>
