<?xml version="1.0" encoding="UTF-8" standalone="no"?>
<!-- Created with Inkscape (http://www.inkscape.org/) -->

<svg
   width="169.33333mm"
   height="127mm"
   viewBox="0 0 169.33333 127"
   version="1.1"
   id="svg5"
   inkscape:version="1.1.2 (08b2f3d93c, 2022-04-05)"
   sodipodi:docname="PlacasDeLobulosHepaticos.svg"
   xmlns:inkscape="http://www.inkscape.org/namespaces/inkscape"
   xmlns:sodipodi="http://sodipodi.sourceforge.net/DTD/sodipodi-0.dtd"
   xmlns="http://www.w3.org/2000/svg"
   xmlns:svg="http://www.w3.org/2000/svg">
  <sodipodi:namedview
     id="namedview7"
     pagecolor="#ffffff"
     bordercolor="#666666"
     borderopacity="1.0"
     inkscape:pageshadow="2"
     inkscape:pageopacity="0.0"
     inkscape:pagecheckerboard="0"
     inkscape:document-units="mm"
     showgrid="false"
     inkscape:zoom="1.6407498"
     inkscape:cx="205.39389"
     inkscape:cy="386.71343"
     inkscape:window-width="1366"
     inkscape:window-height="704"
     inkscape:window-x="0"
     inkscape:window-y="27"
     inkscape:window-maximized="1"
     inkscape:current-layer="layer2" />
  <defs
     id="defs2">
    <inkscape:path-effect
       effect="simplify"
       id="path-effect485"
       is_visible="true"
       lpeversion="1"
       steps="1"
       threshold="0.000408163"
       smooth_angles="360"
       helper_size="0"
       simplify_individual_paths="false"
       simplify_just_coalesce="false" />
    <inkscape:path-effect
       effect="simplify"
       id="path-effect481"
       is_visible="true"
       lpeversion="1"
       steps="1"
       threshold="0.000408163"
       smooth_angles="360"
       helper_size="0"
       simplify_individual_paths="false"
       simplify_just_coalesce="false" />
    <inkscape:path-effect
       effect="simplify"
       id="path-effect477"
       is_visible="true"
       lpeversion="1"
       steps="1"
       threshold="0.000408163"
       smooth_angles="360"
       helper_size="0"
       simplify_individual_paths="false"
       simplify_just_coalesce="false" />
    <inkscape:path-effect
       effect="simplify"
       id="path-effect147"
       is_visible="true"
       lpeversion="1"
       steps="1"
       threshold="0.000408163"
       smooth_angles="360"
       helper_size="0"
       simplify_individual_paths="false"
       simplify_just_coalesce="false" />
    <inkscape:path-effect
       effect="simplify"
       id="path-effect110"
       is_visible="true"
       lpeversion="1"
       steps="1"
       threshold="0.000408163"
       smooth_angles="360"
       helper_size="0"
       simplify_individual_paths="false"
       simplify_just_coalesce="false" />
    <inkscape:path-effect
       effect="simplify"
       id="path-effect106"
       is_visible="true"
       lpeversion="1"
       steps="1"
       threshold="0.000408163"
       smooth_angles="360"
       helper_size="0"
       simplify_individual_paths="false"
       simplify_just_coalesce="false" />
    <inkscape:path-effect
       effect="simplify"
       id="path-effect102"
       is_visible="true"
       lpeversion="1"
       steps="1"
       threshold="0.000408163"
       smooth_angles="360"
       helper_size="0"
       simplify_individual_paths="false"
       simplify_just_coalesce="false" />
    <inkscape:path-effect
       effect="simplify"
       id="path-effect98"
       is_visible="true"
       lpeversion="1"
       steps="1"
       threshold="0.000408163"
       smooth_angles="360"
       helper_size="0"
       simplify_individual_paths="false"
       simplify_just_coalesce="false" />
    <inkscape:path-effect
       effect="simplify"
       id="path-effect94"
       is_visible="true"
       lpeversion="1"
       steps="1"
       threshold="0.000408163"
       smooth_angles="360"
       helper_size="0"
       simplify_individual_paths="false"
       simplify_just_coalesce="false" />
    <inkscape:path-effect
       effect="simplify"
       id="path-effect90"
       is_visible="true"
       lpeversion="1"
       steps="1"
       threshold="0.000408163"
       smooth_angles="360"
       helper_size="0"
       simplify_individual_paths="false"
       simplify_just_coalesce="false" />
  </defs>
  <g
     inkscape:groupmode="layer"
     id="layer2"
     inkscape:label="Placa de Lobulos Hepáticos">
    <path
       style="fill:none;stroke:#000000;stroke-width:0.264583px;stroke-linecap:butt;stroke-linejoin:miter;stroke-opacity:1"
       d="m 96.825892,68.044562 c -0.192189,0.609972 -0.182027,1.259305 -0.130345,1.890276 0.03876,0.473213 0.122904,0.944879 0.113699,1.420084 -0.0079,0.40548 -0.137762,0.799856 -0.10263,1.209569 0.101771,1.186867 0.29442,2.369638 0.280032,3.563449 -0.0089,0.741378 -0.150266,1.491494 -0.02016,2.225171 0.06799,0.383403 0.221788,0.744409 0.35997,1.106344 0.148428,0.388771 0.331676,0.76864 0.419921,1.176534 0.12365,0.571548 -0.01289,1.15133 -0.02429,1.726437 -0.0078,0.390963 0.108577,0.771262 0.264519,1.126137 0.213813,0.486572 0.481821,0.956417 0.585736,1.484394 0.07036,0.35749 0.129443,0.722314 0.295266,1.053163 0.299709,0.597976 0.644232,1.178052 1.084032,1.686008 0.31462,0.363377 0.63787,0.725241 0.86481,1.155261 0.14591,0.276482 0.26994,0.567526 0.47116,0.811401 0.22935,0.277963 0.49263,0.539881 0.62689,0.882718 0.20506,0.523611 0.35602,1.066379 0.49951,1.609334 0.0983,0.371871 0.21297,0.739328 0.30615,1.112476 0.30973,1.240386 0.30479,2.528725 0.50352,3.786453 0.19439,1.23024 0.64156,2.398928 0.99557,3.588109 0.19508,0.6553 0.19865,1.363 0.49621,1.98827 0.15828,0.3326 0.40084,0.61323 0.62915,0.8985 0.26066,0.32568 0.50551,0.66469 0.70891,1.03009 0.28065,0.50418 0.5367,1.04036 0.97001,1.43645 0.30105,0.27519 0.67885,0.44123 1.04469,0.61009 0.31561,0.14568 0.63434,0.28892 0.92138,0.48807 0.32877,0.2281 0.65718,0.46687 0.92237,0.76602 0.12027,0.13567 0.12795,0.3258 0.23726,0.4724 0.44915,0.60237 0.97033,1.16622 1.2817,1.85689 0.12786,0.28361 0.23647,0.57915 0.42255,0.83256 0.3034,0.41318 0.72103,0.718 1.09009,1.06776 0.31918,0.30249 0.64693,0.60569 0.89033,0.97354 0.1698,0.25662 0.26707,0.57588 0.5089,0.7716 0.47403,0.38365 1.05065,0.60699 1.61883,0.81064 0.27894,0.1 1.06724,0.49403 0.83127,0.3217 -0.10323,-0.0754 0.0571,-0.0972 0.0703,0.0102 0.0124,0.1006 -0.0436,-0.0759 -0.0518,-0.10532 -0.0272,-0.0979 -0.0502,-0.19691 -0.0724,-0.29606"
       id="path92"
       inkscape:path-effect="#path-effect94"
       inkscape:original-d="m 96.825892,68.044562 c -0.333791,1.076666 -0.06382,2.128017 -0.01783,3.210113 0.01831,0.431114 -0.14292,0.816499 -0.107061,1.24392 0.09434,1.124484 0.266737,2.255848 0.285496,3.386669 0.01312,0.791832 -0.109625,1.633027 -0.02677,2.415611 0.05717,0.540015 0.603269,1.640414 0.767266,2.255102 0.181774,0.681329 -0.06355,1.400667 0.0089,2.078551 0.07868,0.735994 0.562885,1.360874 0.767265,2.054471 0.128241,0.4352 0.128151,0.859266 0.330102,1.267997 0.241798,0.489381 0.537679,1.027393 0.874326,1.460601 0.323464,0.416247 0.712654,0.775483 0.990304,1.22787 0.0776,0.126444 0.32211,0.638286 0.40147,0.770424 0.22304,0.37138 0.58434,0.640334 0.76727,1.035265 0.25082,0.54148 0.57891,1.866476 0.76727,2.511911 0.38033,1.303309 0.38252,2.580259 0.56206,3.916342 0.16787,1.249159 0.62055,2.507456 0.99923,3.699651 0.2671,0.84092 0.19276,1.67599 0.73158,2.42364 0.28814,0.39982 0.65906,0.81357 0.92785,1.23589 0.42851,0.67325 0.67527,1.42401 1.34718,1.91804 0.35066,0.25783 1.06136,0.53992 1.40963,0.72228 0.4476,0.23437 0.90697,0.62545 1.2758,0.97106 0.14167,0.13275 0.12279,0.31014 0.23196,0.45744 0.42489,0.57331 0.96059,1.17833 1.2758,1.82174 0.16108,0.3288 0.21649,0.56833 0.44609,0.89081 0.2631,0.36952 0.63484,0.64914 0.96354,0.955 0.35009,0.32578 0.6921,0.65324 0.98139,1.03527 0.16603,0.21926 0.3789,0.70818 0.59775,0.87475 0.75144,0.57195 1.62628,0.74752 2.40885,1.09947 0.0182,0.008 -0.0485,-0.0328 -0.0357,-0.0481 0.1333,-0.15988 0.17092,0.50385 -0.0179,-0.34509" />
    <path
       style="fill:none;stroke:#000000;stroke-width:0.264583px;stroke-linecap:butt;stroke-linejoin:miter;stroke-opacity:1"
       d="m 116.73901,114.59126 c -0.0484,0.31334 -0.15617,0.61348 -0.21371,0.92499 -0.0394,0.21352 -0.0513,0.43562 5e-5,0.64855 0.0708,0.29365 0.2299,0.55661 0.40548,0.79883 0.27457,0.37877 0.60364,0.71437 0.87671,1.09423 0.10507,0.14616 0.19709,0.30245 0.26257,0.47068 0.15909,0.40877 0.18668,0.85576 0.34807,1.2634 0.0482,0.12172 0.10235,0.24396 0.18541,0.346 0.15218,0.18695 0.36398,0.30941 0.53836,0.4731 0.0739,0.0694 0.13272,0.15234 0.18596,0.23828 0.24993,0.40342 0.4062,0.85494 0.5487,1.30506 0.12348,0.39004 0.22682,0.78939 0.40168,1.16002 0.10947,0.23203 0.30454,0.41432 0.39776,0.65462 0.0516,0.13304 0.008,0.27986 0.0552,0.41467 0.0304,0.0861 0.0946,0.15624 0.17141,0.20476 0.0796,0.0503 0.17389,0.0908 0.22123,0.17684 0.14919,0.27102 0.3651,0.5006 0.49659,0.78199 0.0726,0.15533 0.12508,0.31894 0.19015,0.47741 0.0599,0.14579 0.12671,0.29056 0.22408,0.41614 0.18212,0.23489 0.39011,0.45132 0.5457,0.70547 0.048,0.0785 0.0927,0.1613 0.10922,0.25333 0.0345,0.19172 0.0444,0.3909 0.11598,0.57317 0.0203,0.0517 0.042,0.11054 0.0925,0.13957 0.0424,0.0244 0.0901,-0.005 0.11747,-0.0382 0.0669,-0.0821 0.10638,-0.18226 0.14117,-0.28106 0.10952,-0.31103 0.17118,-0.63584 0.24722,-0.95606 0.003,-0.0112 0.005,-0.0223 0.008,-0.0334"
       id="path100"
       inkscape:path-effect="#path-effect102"
       inkscape:original-d="m 116.73901,114.59126 c -0.0663,0.44531 -0.29323,0.94683 -0.2408,1.41845 0.0926,0.83304 1.04916,1.57044 1.45424,2.27115 0.31842,0.55083 0.27641,1.25944 0.59775,1.78162 0.17231,0.27998 0.54362,0.42683 0.73158,0.71425 0.50376,0.77032 0.62754,1.66925 0.98139,2.50388 0.10272,0.24229 0.3114,0.44045 0.41039,0.68215 0.0547,0.1335 0.006,0.2713 0.0535,0.4093 0.0877,0.25238 0.30458,0.22696 0.40147,0.40126 0.16518,0.29714 0.38545,0.51446 0.52638,0.85068 0.0865,0.20635 0.20152,0.57276 0.33903,0.7624 0.17824,0.24584 0.58351,0.67324 0.67804,0.93896 0.0478,0.13425 0.0829,0.83321 0.27657,0.7945 0.22208,-0.0444 0.42916,-1.20042 0.46393,-1.31615" />
    <path
       style="fill:none;stroke:#000000;stroke-width:0.264583px;stroke-linecap:butt;stroke-linejoin:miter;stroke-opacity:1"
       d="m 103.81157,42.651343 c 0.22204,-0.158741 0.43445,-0.3412 0.70322,-0.420069 0.47071,-0.13813 0.96534,-0.122675 1.4489,-0.179149 0.90816,-0.106062 1.83713,-0.177293 2.69743,-0.510041 0.57726,-0.223273 1.09926,-0.589472 1.70231,-0.738114 0.31446,-0.07751 0.62641,-0.176334 0.9014,-0.362415 0.25042,-0.169453 0.55615,-0.237935 0.85357,-0.262586 0.33568,-0.02782 0.67336,-0.04342 1.00281,-0.123643 0.47356,-0.115317 0.94625,-0.234848 1.41528,-0.367265 0.98089,-0.276925 1.92838,-0.658876 2.92119,-0.900161 1.13106,-0.274885 2.24748,-0.605336 3.37756,-0.884643 1.4749,-0.364531 2.97884,-0.659842 4.38815,-1.234994 0.67792,-0.276665 1.27955,-0.712033 1.97539,-0.951442 0.72998,-0.251155 1.49311,-0.399822 2.20379,-0.71062 1.1869,-0.519061 2.26639,-1.264502 3.47849,-1.724481 0.80919,-0.307078 1.70015,-0.296291 2.50306,-0.631456 0.59549,-0.24858 1.12871,-0.630094 1.73162,-0.858564 0.62141,-0.235479 1.2976,-0.210768 1.95102,-0.240307 0.43609,-0.01971 0.89723,-0.0089 1.29672,-0.201358 0.43785,-0.21095 0.71778,-0.667405 1.18831,-0.818916 0.38943,-0.125398 0.8391,0.0061 1.1992,-0.201762 0.16403,-0.09469 0.29266,-0.238426 0.46709,-0.320144 0.33443,-0.156672 0.68287,-0.284889 1.03842,-0.382147 0.42092,-0.115139 0.97905,0.02612 1.27289,-0.305722 0.0822,-0.09285 0.12837,-0.225103 0.24842,-0.281955 0.21555,-0.10208 0.45118,-0.154626 0.67804,-0.226592 0.16134,-0.05118 0.32985,-0.04057 0.49911,-0.05994 0.0775,-0.0089 0.26207,0.04705 0.26231,-0.08102 2.6e-4,-0.137522 0.17654,-0.172133 0.28381,-0.193141 0.55382,-0.108465 1.11449,-0.224886 1.678,-0.209648 0.10547,0.0029 0.0776,-0.05875 -0.007,-0.07649 -0.0582,-0.01218 -0.27156,-0.122485 -0.10714,-0.109992 0.14852,0.01129 0.27524,-0.06801 0.41902,-0.08175 0.16751,-0.016 0.57389,0.138847 0.50412,-0.01529 -0.0429,-0.09475 -0.17517,-0.227594 0.0203,-0.272487 0.25351,-0.05821 0.5097,-0.19804 0.76717,-0.141199 1.01333,0.223713 2.01099,0.537589 3.04321,0.659037 1.06362,0.125142 2.13788,0.02789 3.19643,-0.0986 1.31576,-0.15723 2.61795,-0.419729 3.93804,-0.539523 1.86801,-0.169515 3.75175,0.108689 5.61472,-0.114255 1.11307,-0.133202 2.12384,-0.674205 3.2226,-0.868835 0.4257,-0.07541 0.87011,-0.08706 1.28919,0.03212"
       id="path104"
       inkscape:path-effect="#path-effect106"
       inkscape:original-d="m 103.81157,42.651343 c 0.16357,-0.112355 0.31249,-0.249772 0.49069,-0.337063 0.43284,-0.212018 1.01029,-0.183422 1.48101,-0.24076 0.85683,-0.10437 1.69201,-0.161293 2.52483,-0.409287 0.67681,-0.201535 1.21625,-0.558633 1.87356,-0.802531 0.27736,-0.102915 0.55353,-0.123246 0.82079,-0.256807 0.3352,-0.167508 0.18306,-0.16641 0.54423,-0.304962 0.39896,-0.153051 0.81832,-0.120039 1.23119,-0.176554 0.34409,-0.0471 1.0832,-0.265006 1.44531,-0.353113 1.03323,-0.251399 2.01419,-0.697523 3.05122,-0.938958 0.97971,-0.228095 1.92288,-0.512763 2.89955,-0.762405 1.66004,-0.42431 3.31965,-0.769945 4.9337,-1.35627 0.62019,-0.225295 1.19222,-0.639395 1.81109,-0.890807 0.73948,-0.300408 1.54254,-0.422489 2.28396,-0.730303 1.22304,-0.507764 2.35539,-1.248611 3.56867,-1.765562 0.77598,-0.330621 1.64016,-0.309128 2.4267,-0.601895 0.61172,-0.227695 1.21271,-0.607055 1.80218,-0.882783 0.96702,-0.452329 2.42169,-0.138342 3.28319,-0.45744 0.43271,-0.16028 0.76784,-0.654714 1.1955,-0.826601 0.38464,-0.154593 0.83418,-0.05446 1.21335,-0.200633 0.16208,-0.06248 0.2762,-0.212927 0.42824,-0.296937 0.2836,-0.156707 0.70131,-0.286515 1.00815,-0.393237 0.4472,-0.155543 0.97788,-0.132093 1.40071,-0.345091 0.0596,-0.03002 0.0865,-0.22874 0.3301,-0.321008 0.16844,-0.0638 0.61067,-0.200194 0.81187,-0.24076 0.18396,-0.03709 0.38494,0.02987 0.56207,-0.0321 0.0319,-0.01117 -0.16798,-0.142653 0.26765,-0.248783 0.36767,-0.08957 1.62062,-0.174289 1.73973,-0.224708 0.0898,-0.03803 -0.19057,-0.07497 -0.2498,-0.152482 -0.0167,-0.02185 0.25184,-0.02741 0.27656,-0.04012 0.23096,-0.118718 0.45672,-0.0286 0.71374,-0.07223 0.0494,-0.0084 -0.1489,-0.198917 -0.0714,-0.240758 0.17082,-0.0922 0.61372,-0.06336 0.8654,-0.176556 0.93172,0.207581 1.85395,0.463673 2.79517,0.622743 2.07815,0.351215 5.16787,-0.380944 7.27486,-0.591548 1.8359,-0.183506 3.73745,0.0493 5.58974,-0.11091 1.61817,-0.139963 3.18949,-1.259318 4.64442,-0.850344" />
    <path
       style="fill:none;stroke:#000000;stroke-width:0.264583px;stroke-linecap:butt;stroke-linejoin:miter;stroke-opacity:1"
       d="m 52.539767,52.551128 c -1.050816,-0.923334 -2.092126,-1.865512 -3.24885,-2.657453 -0.401,-0.274541 -0.828508,-0.506846 -1.263151,-0.723314 -0.418951,-0.208653 -0.827804,-0.439346 -1.204143,-0.720377 -0.597575,-0.446239 -1.169374,-0.943115 -1.845954,-1.267167 -0.656203,-0.314292 -1.384774,-0.412516 -2.093487,-0.539211 -0.504695,-0.09022 -1.005952,-0.21289 -1.479326,-0.414852 -0.806572,-0.344118 -1.550714,-0.841926 -2.404045,-1.069164 -0.789188,-0.210157 -1.613951,-0.183102 -2.422789,-0.163867 -0.69428,0.01651 -1.392933,0.0026 -2.07835,-0.128536 -1.707779,-0.326857 -3.389751,-0.801763 -5.12732,-0.966952 -0.463495,-0.04406 -0.930392,-0.02126 -1.391762,0.03694 -0.611924,0.0772 -1.2244,0.177787 -1.845435,0.14805 -0.896662,-0.04293 -1.796653,-0.04256 -2.689688,-0.139958 -0.366319,-0.03995 -0.726549,-0.11967 -1.089584,-0.181185 -1.099595,-0.186323 -2.209381,-0.352059 -3.326166,-0.352878 -1.174133,-8.61e-4 -2.304849,0.366278 -3.465641,0.486733 -0.345497,0.03585 -0.69762,0.08352 -1.041486,0.03089 -0.287578,-0.04401 -0.524168,-0.233279 -0.810575,-0.288332 -0.343715,-0.06607 -0.69581,-0.06973 -1.037599,-0.15351 -0.78243,-0.191782 -1.533706,-0.53309 -2.345894,-0.585225 -0.6606433,-0.04241 -1.3189307,0.06089 -1.9704851,0.15732 -0.7150613,0.105825 -1.4311491,0.245762 -2.1565942,0.237267 -0.5613371,-0.0066 -1.1083109,-0.155282 -1.642223,-0.315778 -0.6049734,-0.181857 -1.197387,-0.443093 -1.8284507,-0.501582 -0.3880737,-0.03597 -0.7768514,0.02117 -1.1648324,0.03226 -0.2588079,0.0074 -0.5314743,0.045 -0.7775196,-0.04664 -0.11524844,-0.04292 -0.18125077,-0.22246 -0.30385805,-0.201017 -0.0752796,0.01317 -0.12430525,0.09519 -0.15142023,0.161744 -0.0791132,0.194194 -0.0573215,0.411857 -0.12041042,0.610219"
       id="path483"
       inkscape:path-effect="#path-effect485"
       inkscape:original-d="m 52.539767,52.551128 c -1.131805,-0.995309 -2.600523,-2.33757 -3.927067,-3.07627 -0.548111,-0.305221 -1.125945,-0.538589 -1.63748,-0.912448 -0.637572,-0.465971 -1.397744,-1.121357 -2.115691,-1.433851 -0.98149,-0.427207 -2.151096,-0.41271 -3.15904,-0.782106 -0.975267,-0.35742 -1.896419,-1.025027 -2.912689,-1.238329 -1.348489,-0.28303 -2.741912,0.04359 -4.115448,-0.20856 -1.841985,-0.338138 -3.681291,-0.914689 -5.564548,-1.016733 -1.059637,-0.05742 -1.938057,0.260106 -2.854729,0.208565 -0.800243,-0.045 -2.445264,-0.06334 -3.15904,-0.195529 -1.278389,-0.236763 -2.597689,-0.444559 -3.898085,-0.482296 -1.579932,-0.04585 -3.04961,0.591476 -4.608139,0.521401 -0.28224,-0.0127 -0.511232,-0.206415 -0.782514,-0.273733 -0.331133,-0.08217 -0.668366,-0.06884 -0.99988,-0.143388 C 11.865691,43.306536 11.106403,42.912244 10.124579,42.89217 8.7858972,42.864801 6.9957936,43.423062 5.8062592,43.270188 4.7751846,43.137677 3.7985575,42.669131 2.7921286,42.488088 2.29307,42.398312 1.147559,42.628272 0.74889692,42.448977 0.70661569,42.429953 0.51049927,42.231799 0.4590757,42.266491 0.23592243,42.417034 0.29556019,42.779431 0.2127283,43.035555" />
  </g>
</svg>
