<?xml version="1.0" encoding="UTF-8" standalone="no"?>
<!-- Created with Inkscape (http://www.inkscape.org/) -->

<svg
   width="353.56799mm"
   height="264.16mm"
   viewBox="0 0 353.56799 264.16"
   version="1.1"
   id="svg5"
   inkscape:version="1.1.2 (08b2f3d93c, 2022-04-05)"
   sodipodi:docname="Serosa.svg"
   xmlns:inkscape="http://www.inkscape.org/namespaces/inkscape"
   xmlns:sodipodi="http://sodipodi.sourceforge.net/DTD/sodipodi-0.dtd"
   xmlns="http://www.w3.org/2000/svg"
   xmlns:svg="http://www.w3.org/2000/svg">
  <sodipodi:namedview
     id="namedview7"
     pagecolor="#ffffff"
     bordercolor="#666666"
     borderopacity="1.0"
     inkscape:pageshadow="2"
     inkscape:pageopacity="0.0"
     inkscape:pagecheckerboard="0"
     inkscape:document-units="mm"
     showgrid="false"
     inkscape:zoom="0.76351725"
     inkscape:cx="420.42272"
     inkscape:cy="266.52967"
     inkscape:window-width="1366"
     inkscape:window-height="704"
     inkscape:window-x="0"
     inkscape:window-y="27"
     inkscape:window-maximized="1"
     inkscape:current-layer="layer2" />
  <defs
     id="defs2">
    <inkscape:path-effect
       effect="simplify"
       id="path-effect132"
       is_visible="true"
       lpeversion="1"
       steps="1"
       threshold="0.000408163"
       smooth_angles="360"
       helper_size="0"
       simplify_individual_paths="false"
       simplify_just_coalesce="false" />
    <inkscape:path-effect
       effect="simplify"
       id="path-effect65"
       is_visible="true"
       lpeversion="1"
       steps="1"
       threshold="0.000408163"
       smooth_angles="360"
       helper_size="0"
       simplify_individual_paths="false"
       simplify_just_coalesce="false" />
    <inkscape:path-effect
       effect="simplify"
       id="path-effect61"
       is_visible="true"
       lpeversion="1"
       steps="1"
       threshold="0.000408163"
       smooth_angles="360"
       helper_size="0"
       simplify_individual_paths="false"
       simplify_just_coalesce="false" />
    <inkscape:path-effect
       effect="simplify"
       id="path-effect57"
       is_visible="true"
       lpeversion="1"
       steps="1"
       threshold="0.000408163"
       smooth_angles="360"
       helper_size="0"
       simplify_individual_paths="false"
       simplify_just_coalesce="false" />
  </defs>
  <g
     inkscape:groupmode="layer"
     id="layer2"
     inkscape:label="Serosa">
    <path
       style="fill:none;stroke:#000000;stroke-width:0.264583px;stroke-linecap:butt;stroke-linejoin:miter;stroke-opacity:1"
       d="M 1.6700605,58.591515 C 1.9235003,58.088304 1.9472706,57.372578 2.437538,57.0789 2.972235,56.758608 3.6192931,56.706652 4.2255245,56.651182 6.485229,56.44442 8.7586406,56.503253 11.024674,56.548794 c 1.409152,0.02832 2.82403,0.16372 4.183843,0.553162 1.44408,0.413576 2.865916,0.99874 4.072142,1.896326 1.138461,0.84716 2.036258,2.089473 3.421194,2.549212 0.995502,0.330464 2.110359,0.104223 2.969501,-0.487575 0.919355,-0.633274 1.701452,-1.553927 2.827429,-1.809907 0.941082,-0.213946 1.915567,-0.157648 2.873717,-0.183526 1.490147,-0.04025 2.96155,-0.314726 4.424471,-0.578378 2.66959,-0.481121 5.343763,-0.962794 8.054308,-1.164827 2.028953,-0.15123 4.095744,-0.166034 6.066465,-0.70696 1.312358,-0.360218 2.586427,-0.87487 3.947689,-1.045911 0.859787,-0.108031 1.712749,-0.267084 2.538227,-0.545437 1.379074,-0.465026 2.84769,-0.799435 4.059278,-1.616776 0.5516,-0.372111 0.909677,-1.033281 1.609646,-1.184207 2.097386,-0.452233 4.202153,-0.89025 6.334049,-1.133024 0.373473,-0.04253 0.604445,-0.35447 0.874141,-0.578839 1.368553,-1.138548 3.113624,-1.730661 4.497573,-2.839252 0.455782,-0.365097 0.551195,-1.062882 1.139474,-1.298434 0.8233,-0.329657 1.738688,-0.366636 2.521391,-0.830206 1.214997,-0.719604 2.120672,-1.865797 3.339195,-2.569875 0.871028,-0.503291 2.051112,-0.350961 2.800601,-1.023101 0.343226,-0.307804 0.64324,-0.675588 1.150325,-0.758168 1.251346,-0.203785 2.443091,0.349158 3.577714,0.792315 0.987118,0.385545 2.086993,0.613537 3.140371,0.303453 0.78723,-0.231738 1.277081,-0.924701 1.811651,-1.494384 0.914175,-0.974222 2.309878,-1.271699 3.219549,-2.266708 0.795049,-0.869634 1.395011,-2.039324 2.549852,-2.470498 1.25257,-0.467662 2.61016,-0.223481 3.90118,-0.107173 0.73773,0.06646 1.50737,0.07552 2.19568,-0.243231 0.74912,-0.346915 1.53809,-0.602158 2.35699,-0.730068 1.84097,-0.287554 3.7559,-0.06228 5.55151,-0.615562 0.88861,-0.273808 1.70201,-0.802928 2.65369,-0.861712 0.51105,-0.03157 1.00598,-0.158764 1.46819,-0.401287 1.38617,-0.727323 2.4824,-1.861288 3.63938,-2.890117 0.88581,-0.787692 1.91298,-1.397682 3.00325,-1.864367 1.54668,-0.662047 3.31774,-1.047899 4.51913,-2.273524 0.77285,-0.788437 1.37729,-1.722137 2.0909,-2.561966 0.45018,-0.529807 0.81072,-1.237659 1.46836,-1.489524 1.30231,-0.498763 2.56025,-1.1861 3.96626,-1.359687 0.47948,-0.0592 0.94398,0.09693 1.33841,0.379439 0.47385,0.339394 1.08321,0.32354 1.63808,0.375619 1.43918,0.135078 2.89613,-0.266504 4.10829,-1.047145 1.49014,-0.959662 2.83335,-2.138995 4.37642,-3.016875 0.58252,-0.331405 1.26028,-0.401274 1.90325,-0.547994 1.48556,-0.338993 3.34095,0.02379 4.4582,-1.012066 0.89048,-0.825614 1.97,-1.403751 3.07838,-1.889481 0.78321,-0.343229 1.65723,-0.60454 2.2657,-1.213389 0.38118,-0.381417 0.52921,-0.947261 0.98004,-1.27272 1.02535,-0.740214 2.33418,-0.879302 3.56447,-0.898412 1.53123,-0.02379 3.09513,0.282844 4.59678,-0.06686 0.7329,-0.170676 1.3161,-0.6842025 2.06692,-0.8380334 0.82475,-0.168978 1.7734,-0.1402521 2.43565,-0.7332674 0.30926,-0.27693 0.66616,-0.4823042 1.06341,-0.6204873 1.74889,-0.6083441 3.46573,-1.28812 5.15785,-2.0651943 1.11122,-0.5103081 2.36288,-0.4076104 3.54965,-0.3777142 0.89784,0.022618 1.7976,-0.093958 2.64894,-0.394349 1.71745,-0.6059917 3.25208,-1.631663 5.01666,-2.1360711 0.64647,-0.1847949 1.27512,-0.5234581 1.65476,-1.0990616 0.35595,-0.539681 0.97179,-0.8444492 1.63291,-0.8853881 0.52302,-0.032387 1.15895,0.1579767 1.57986,-0.215579 0.48913,-0.43410137 0.4583,-1.12844999 0.76315,-1.67669535 0.22457,-0.40386551 0.005,0.35759824 -0.0361,0.4992657 -0.21946,0.76128544 -0.57438,1.47306115 -0.91384,2.18583965"
       id="path59"
       inkscape:path-effect="#path-effect61"
       inkscape:original-d="m 1.6700605,58.591515 c 0.2283618,-0.476191 0.3859698,-0.993333 0.6850853,-1.428578 0.6419798,-0.934151 9.0185372,-0.645371 10.2762852,-0.532225 2.282228,0.205309 4.340823,0.920165 6.259191,2.100863 1.400119,0.861732 2.637968,2.730021 4.359635,2.941198 2.72172,0.333844 3.337211,-2.275649 5.792089,-2.521029 1.18318,-0.118269 2.367804,-0.02307 3.549989,-0.168063 3.204144,-0.393015 6.31322,-1.172287 9.528916,-1.51262 2.376778,-0.251548 4.777097,-0.246523 7.131121,-0.700289 1.191882,-0.229748 2.329061,-0.729226 3.518845,-1.008409 1.042416,-0.244605 2.158904,-0.255442 3.176309,-0.588243 1.33627,-0.437102 3.208465,-1.036989 4.421913,-1.708698 0.503015,-0.278444 0.932717,-1.005943 1.463593,-1.176483 1.001929,-0.321863 6.622012,-1.054645 6.913141,-1.316532 1.505768,-1.354526 3.136125,-2.307346 4.951294,-3.249332 0.45058,-0.233831 0.578972,-1.033187 1.089914,-1.288518 0.682532,-0.34108 1.583748,-0.340159 2.304375,-0.700289 1.248296,-0.623832 2.353678,-1.831594 3.487708,-2.633075 0.82463,-0.582811 1.974141,-0.606565 2.864909,-1.064437 0.38091,-0.195797 0.568698,-0.676571 0.996481,-0.78432 2.478834,-0.624364 4.506698,1.854136 7.006564,1.036423 1.098693,-0.359384 1.429004,-1.279387 2.273242,-1.904783 0.644956,-0.477774 1.370687,-0.763656 2.024115,-1.204489 1.327441,-0.895546 1.919991,-2.818913 3.674546,-3.249332 1.449139,-0.355494 3.019829,0.08237 4.484199,0.05603 0.80297,-0.01445 1.30817,-0.34022 2.02412,-0.616254 2.0923,-0.806691 4.7817,-0.384297 6.91313,-0.952384 0.6863,-0.182917 1.37428,-0.565549 2.05526,-0.784328 0.59242,-0.190325 1.3862,-0.09391 1.9307,-0.364141 2.40503,-1.193585 3.37057,-2.870454 5.4184,-4.145695 1.86252,-1.159838 4.43019,-1.576218 6.07234,-3.053255 0.78933,-0.709963 2.78031,-3.766183 3.64341,-4.089668 1.2487,-0.468004 3.21829,-1.554033 4.54648,-1.28853 0.4324,0.08643 0.76629,0.514948 1.21447,0.588242 1.75139,0.286418 3.09332,0.227943 4.70219,-0.616245 1.37541,-0.721686 4.33744,-3.27165 5.44953,-3.557455 0.65142,-0.167412 5.72733,-1.258295 5.79209,-1.316543 1.99773,-1.79708 3.29468,-1.735176 5.13815,-2.941199 0.84434,-0.55238 0.37439,-1.356589 2.36667,-2.016825 1.99166,-0.660032 4.76657,-0.02835 6.88197,-0.364145 0.52999,-0.08413 0.99091,-0.424805 1.46361,-0.644265 0.75739,-0.3516392 1.83029,-0.262958 2.67805,-0.6442646 0.43921,-0.1975491 0.76776,-0.6516008 1.21447,-0.8123328 1.88943,-0.6798386 3.6017,-1.1319621 5.32499,-2.100857 1.48267,-0.8336033 3.76097,-0.2085075 5.44955,-0.5882417 2.05666,-0.4625089 3.68904,-1.7910196 5.66753,-2.324948 2.14741,-0.5795163 1.57402,-1.3802243 2.80261,-1.9327886 0.64404,-0.2896595 1.83108,0.08963 2.30438,-0.3361367 0.48082,-0.43251964 0.38443,-1.07432173 0.71623,-1.59665716 0.0488,-0.0767787 0.16997,-0.31392532 0.15571,-0.2240911 -0.15737,0.99112984 -0.63148,1.93232216 -1.05878,2.82915826" />
    <path
       style="fill:none;stroke:#000000;stroke-width:0.264583px;stroke-linecap:butt;stroke-linejoin:miter;stroke-opacity:1"
       d="M 0.92269703,73.605651 C 1.6633954,73.705309 2.3355793,74.043035 3.0339183,74.293386 3.657252,74.516848 4.2274922,74.033661 4.712502,73.713889 4.8727591,73.60823 5.3247272,73.37153 4.9212589,73.600032 4.538955,73.816548 4.6086657,74.05372 5.0246564,74.325951 c 0.1790713,0.117187 0.9523857,0.188598 0.7247772,0.316126 -0.1958134,0.109713 -1.1625268,-0.115172 -0.6564044,0.189463 0.7629356,0.459211 1.6854187,0.208557 2.4677966,-0.01718 0.3471459,-0.100159 0.3929814,-0.165814 0.5574441,0.39971 0.1579229,0.543036 0.8319094,0.180697 1.1416992,-0.06255 0.4483469,-0.352038 1.0495809,-0.32166 1.5676319,-0.130578 0.844902,0.31164 1.621658,0.847212 2.584456,0.818977 0.712577,-0.0209 1.50733,-0.372147 2.15097,-0.02207 0.732981,0.398671 1.584077,0.972017 2.393185,0.724032 0.417407,-0.127932 0.994526,-0.196145 1.228611,0.2459 0.230435,0.435153 0.7209,0.491967 1.161865,0.587078 0.396655,0.08555 0.859294,0.127393 1.05872,0.589116 0.203463,0.471069 -0.132225,1.028876 0.08538,1.468721 0.239812,0.48473 0.908933,0.380387 1.353609,0.362098 1.270518,-0.05225 2.628011,-0.390031 3.499771,-1.389511 0.802168,-0.919693 1.266298,-2.16541 2.386776,-2.782807 1.071505,-0.590412 2.338145,-0.581337 3.437407,-1.134168 1.22904,-0.618098 2.179502,-1.712728 3.443219,-2.241888 0.647422,-0.271097 1.344225,-0.392006 1.948463,-0.793477 1.137791,-0.755977 2.158605,-1.719546 3.405378,-2.282042 0.474269,-0.213972 1.017149,-0.07368 1.505938,-0.302072 1.321908,-0.617679 2.3367,-1.884622 3.840463,-2.087369 3.307333,-0.445916 6.70324,0.03467 9.968367,-0.736697 2.439324,-0.576273 4.741064,-1.841239 7.292654,-1.850678 2.267703,-0.0084 4.472831,0.818842 6.766329,0.530976 1.025536,-0.128719 1.795467,-0.867643 2.694601,-1.304586 2.435512,-1.18356 5.0342,-2.016734 7.693453,-2.535776 1.447325,-0.282494 2.954244,-0.355298 4.339213,-0.864294 0.585787,-0.215285 0.948618,-0.777543 1.577554,-0.944865 1.036783,-0.275826 2.154591,-0.180102 3.13332,-0.745052 0.806945,-0.465791 1.520173,-1.167173 2.484531,-1.310791 0.994108,-0.148048 2.080141,0.120336 2.995185,-0.345257 0.693615,-0.352925 0.9565,-1.194074 1.719719,-1.487444 1.222371,-0.469862 2.652445,-0.457752 3.728021,-1.231067 0.87325,-0.627847 1.21432,-1.809904 2.25858,-2.251318 1.40604,-0.594342 2.92438,-0.836881 4.33374,-1.438313 2.81863,-1.202828 5.36153,-3.119856 8.34802,-3.844965 0.7278,-0.176707 1.47827,-0.218129 2.20062,-0.44102 1.71201,-0.528267 3.37621,-1.466542 5.21799,-1.357859 1.28433,0.07579 2.51026,0.515568 3.79545,0.612935 1.94201,0.147128 4.10378,0.184763 5.72509,-0.904691 0.99447,-0.668244 1.8943,-1.474141 2.73158,-2.326847 0.63091,-0.642537 1.41229,-1.210955 1.7421,-2.072315 0.21578,-0.56355 0.75369,-0.849634 1.26462,-1.098804 1.19212,-0.581373 2.55305,-0.982122 3.42556,-2.040529 0.33459,-0.405878 0.91696,-0.444958 1.39662,-0.557229 1.45194,-0.339843 2.97559,-0.394467 4.38401,-0.882218 0.82509,-0.285738 1.55541,-0.767636 2.33324,-1.160965 1.6007,-0.809432 2.95045,-2.026644 4.59531,-2.772377 1.172,-0.531352 2.50081,-0.839483 3.47222,-1.700889 0.52001,-0.461122 0.92759,-1.05614 1.61826,-1.322058 4.53897,-1.747577 8.80033,-4.184459 13.4147,-5.739306 0.66406,-0.22376 1.34025,0.566256 1.94342,0.210385 0.72833,-0.429712 1.27703,-1.144754 2.12258,-1.393083 2.23495,-0.656377 4.61699,-0.667385 6.8279,-1.394838 0.95232,-0.313341 1.71022,-1.122653 2.71559,-1.255559 0.7589,-0.100324 1.93202,0.728026 2.27722,0.05469 0.25191,-0.491372 0.73265,-0.671352 1.28188,-0.73836 1.65499,-0.201912 3.31299,0.239832 4.96753,0.05536 1.00508,-0.112061 1.83758,-0.72194 2.62528,-1.305487 1.2155,-0.900477 2.78968,-0.925545 4.22609,-1.183901 0.50934,-0.09161 1.05463,-0.08822 1.49784,-0.421428 0.42953,-0.322922 1.00463,-0.269917 1.51098,-0.280724 1.67238,-0.03569 3.39437,0.149374 5.00979,-0.421928 1.3277,-0.469548 2.70762,-0.881793 3.8912,-1.649437 0.41113,-0.26665 0.64094,-0.714488 1.05475,-0.994252 1.22639,-0.829132 2.55112,-1.585653 3.99806,-1.913094 0.77499,-0.1753792 1.70365,-0.1260304 2.27337,-0.7897978 0.59284,-0.6907058 0.87096,-1.7048259 1.6849,-2.1474905 0.43262,-0.2352836 0.95314,-0.1889937 1.43024,-0.1949413 1.10847,-0.013818 2.23143,-0.093561 3.3267,0.089236 0.59698,0.099634 1.36199,0.6043541 1.85495,0.1116857 0.36241,-0.3621963 0.54297,-0.8672833 1.05584,-1.1065706 0.89214,-0.4162405 1.94283,-0.3642117 2.76788,-0.9828306 1.11777,-0.8381021 1.98431,-2.0435565 3.23893,-2.655897 0.64702,-0.3157897 1.35019,0.058495 1.94542,0.3169009 0.42835,0.1859588 0.99663,0.3043931 1.35842,-0.084287 0.65723,-0.7060823 0.91095,-1.68122231 1.11294,-2.59554499 0.15627,-0.70736116 0.33684,-1.40805491 0.60188,-2.08376091 0.0858,-0.2188712 0.25294,-0.9374846 0.23887,-0.9059211 -0.0671,0.1505265 -0.16782,0.2823351 -0.25947,0.4182284"
       id="path130"
       inkscape:path-effect="#path-effect132"
       inkscape:original-d="m 0.92269703,73.605651 c 2.62644597,0.427527 1.83403027,1.520558 4.14165117,-0.14006 0.2104719,-0.151458 -0.6005832,0.443926 -0.4359624,0.644271 0.2626119,0.319604 1.5059697,0.380733 1.1210478,0.532215 -0.2421012,0.09527 -0.9152234,-0.16533 -0.7785079,0.05603 0.062854,0.101767 0.1693328,0.179358 0.2802673,0.224091 0.9244113,0.372745 1.8172816,-0.140059 2.7403414,-0.140059 0.6984005,0 -0.3054799,0.461227 0.3736846,0.700286 0.5488352,0.193185 0.9536252,-0.682946 1.806133,-0.616255 0.885557,0.06927 1.726263,0.787017 2.553502,0.952392 0.752175,0.15037 2.308469,-0.3023 2.896042,0.02801 0.640228,0.359915 1.362851,0.627547 2.117539,0.700288 0.410014,0.03952 0.678388,-0.227113 1.121048,-0.02801 0.374291,0.168344 0.441907,0.593744 0.840786,0.72829 0.294817,0.09944 1.412892,0.193315 1.55701,0.420179 0.816392,1.285113 -0.913469,2.351141 1.961839,2.10085 3.940017,-0.342969 3.383871,-2.936756 5.511827,-4.145685 0.907267,-0.515434 1.979401,-0.498522 2.927181,-0.896374 1.391203,-0.583988 2.521958,-1.59636 3.767973,-2.380972 0.458266,-0.288567 1.231091,-0.356002 1.74385,-0.644257 0.640178,-0.359889 3.521599,-2.521527 3.985956,-2.605064 0.402103,-0.07234 0.786511,0.0011 1.183325,-0.168074 1.422046,-0.605922 2.424724,-1.948238 4.048234,-2.156878 2.999623,-0.385485 6.062662,-0.08062 9.061815,-0.560229 2.737898,-0.437832 5.3579,-2.016831 8.189891,-2.016831 2.27544,0 4.625028,1.004705 6.975422,0.476197 0.744622,-0.167436 1.285735,-0.649121 1.89955,-0.980395 1.531532,-0.826569 3.571618,-1.603148 5.231558,-2.100863 2.364724,-0.709039 4.845024,-0.969838 7.224543,-1.540624 0.526201,-0.126222 0.834433,-0.610582 1.245606,-0.812332 0.873577,-0.428643 2.028033,-0.241972 2.95833,-0.588242 0.703381,-0.261811 1.895025,-1.301073 2.553496,-1.512621 1.049454,-0.337156 2.753603,-0.0127 3.612277,-0.504211 0.58161,-0.33292 0.808122,-1.113618 1.52587,-1.400564 1.176441,-0.470323 2.571745,-0.609626 3.674548,-1.176483 0.91027,-0.467892 1.25771,-1.826178 2.30438,-2.29694 1.26293,-0.568026 2.59328,-0.737979 3.83025,-1.232501 2.96049,-1.183563 5.7501,-2.954139 8.75041,-4.033649 0.58656,-0.211045 1.16581,-0.194723 1.775,-0.336138 1.75023,-0.406291 3.2399,-1.3291 5.07586,-1.51262 1.24511,-0.12446 2.26921,0.232691 3.26973,0.42018 2.2992,0.430852 4.82421,0.210317 6.97542,-0.700289 0.59444,-0.251629 3.66667,-3.082459 4.20392,-3.837572 0.25299,-0.355579 0.47836,-1.043432 0.87194,-1.288532 1.56098,-0.972105 3.04353,-1.11063 4.26621,-2.577047 0.31514,-0.377959 4.81858,-1.076256 5.60524,-1.288528 0.63408,-0.171101 1.46433,-0.768808 2.0864,-1.036426 1.31471,-0.565589 2.5566,-1.659599 3.83026,-2.38097 1.39565,-0.790461 2.95454,-1.19004 4.32848,-2.072849 0.60661,-0.389768 0.93412,-1.136435 1.61929,-1.400574 4.57805,-1.764869 9.1831,-3.539728 13.57716,-5.798365 0.54745,-0.281404 1.38492,0.378383 1.89956,0.224091 0.49888,-0.149569 1.20878,-1.128096 2.11754,-1.400575 2.15322,-0.64562 4.4632,-0.778931 6.66401,-1.344547 0.9585,-0.246334 1.73083,-0.930895 2.64692,-1.260515 0.62652,-0.225426 1.8594,0 2.52237,0 0.26085,0 0.30559,-0.473955 0.52938,-0.560228 1.46735,-0.565671 4.0052,0.0263 5.54297,-0.112045 1.95102,-0.175517 2.52622,-1.375496 3.92368,-1.904775 1.3266,-0.502443 2.79771,-0.51691 4.17279,-0.756315 0.34633,-0.0603 0.57822,-0.425633 0.9342,-0.476191 1.7756,-0.252179 3.67295,0.148476 5.44955,-0.308128 1.02965,-0.264632 3.65298,-1.312925 4.54648,-1.848757 0.35602,-0.213509 0.50491,-0.591536 0.84078,-0.840342 1.10958,-0.821967 2.74344,-1.634893 4.0171,-2.016825 0.66717,-0.2000652 1.63215,-0.1456922 2.21094,-0.5882367 0.67586,-0.5167625 1.4368,-2.400277 2.24209,-2.5210301 0.80048,-0.1200306 3.57096,-0.1091444 4.35964,0 0.51452,0.071204 1.11782,0.3906744 1.65045,0.2801138 0.46953,-0.097463 0.64535,-0.6912763 0.84078,-0.8963647 0.67293,-0.7061946 1.9481,-0.6163272 2.77147,-1.0084151 0.64177,-0.3056073 2.92799,-2.3815569 3.67457,-2.9411986 0.8113,-0.6081523 2.22821,0.648416 2.98945,0.4201682 1.13114,-0.3391545 1.55805,-3.26461451 1.80614,-4.0616595 0.0812,-0.2608401 0.39372,-1.0307812 0.43596,-1.3725607 0.019,-0.1538875 0.16609,-0.5975805 0.12458,-0.4481822 -0.0405,0.1456452 -0.21018,0.3711184 -0.28027,0.4761962" />
  </g>
</svg>
