<?xml version="1.0" encoding="UTF-8" standalone="no"?>
<!-- Created with Inkscape (http://www.inkscape.org/) -->

<svg
   width="353.56799mm"
   height="264.16mm"
   viewBox="0 0 353.56799 264.16"
   version="1.1"
   id="svg5"
   inkscape:version="1.1.2 (08b2f3d93c, 2022-04-05)"
   sodipodi:docname="Serosa.svg"
   xmlns:inkscape="http://www.inkscape.org/namespaces/inkscape"
   xmlns:sodipodi="http://sodipodi.sourceforge.net/DTD/sodipodi-0.dtd"
   xmlns="http://www.w3.org/2000/svg"
   xmlns:svg="http://www.w3.org/2000/svg">
  <sodipodi:namedview
     id="namedview7"
     pagecolor="#ffffff"
     bordercolor="#666666"
     borderopacity="1.0"
     inkscape:pageshadow="2"
     inkscape:pageopacity="0.0"
     inkscape:pagecheckerboard="0"
     inkscape:document-units="mm"
     showgrid="false"
     inkscape:zoom="0.2883496"
     inkscape:cx="138.7205"
     inkscape:cy="95.370342"
     inkscape:window-width="1366"
     inkscape:window-height="704"
     inkscape:window-x="0"
     inkscape:window-y="27"
     inkscape:window-maximized="1"
     inkscape:current-layer="layer2" />
  <defs
     id="defs2">
    <inkscape:path-effect
       effect="simplify"
       id="path-effect77"
       is_visible="true"
       lpeversion="1"
       steps="1"
       threshold="0.000408163"
       smooth_angles="360"
       helper_size="0"
       simplify_individual_paths="false"
       simplify_just_coalesce="false" />
    <inkscape:path-effect
       effect="simplify"
       id="path-effect73"
       is_visible="true"
       lpeversion="1"
       steps="1"
       threshold="0.000408163"
       smooth_angles="360"
       helper_size="0"
       simplify_individual_paths="false"
       simplify_just_coalesce="false" />
    <inkscape:path-effect
       effect="simplify"
       id="path-effect69"
       is_visible="true"
       lpeversion="1"
       steps="1"
       threshold="0.000408163"
       smooth_angles="360"
       helper_size="0"
       simplify_individual_paths="false"
       simplify_just_coalesce="false" />
    <inkscape:path-effect
       effect="simplify"
       id="path-effect65"
       is_visible="true"
       lpeversion="1"
       steps="1"
       threshold="0.000408163"
       smooth_angles="360"
       helper_size="0"
       simplify_individual_paths="false"
       simplify_just_coalesce="false" />
    <inkscape:path-effect
       effect="simplify"
       id="path-effect61"
       is_visible="true"
       lpeversion="1"
       steps="1"
       threshold="0.000408163"
       smooth_angles="360"
       helper_size="0"
       simplify_individual_paths="false"
       simplify_just_coalesce="false" />
    <inkscape:path-effect
       effect="simplify"
       id="path-effect57"
       is_visible="true"
       lpeversion="1"
       steps="1"
       threshold="0.000408163"
       smooth_angles="360"
       helper_size="0"
       simplify_individual_paths="false"
       simplify_just_coalesce="false" />
  </defs>
  <g
     inkscape:groupmode="layer"
     id="layer2"
     inkscape:label="Serosa">
    <path
       style="fill:none;stroke:#000000;stroke-width:0.264583px;stroke-linecap:butt;stroke-linejoin:miter;stroke-opacity:1"
       d="m 0.8914581,63.620504 c 0.4844369,-0.203217 1.0224519,-0.53616 1.558696,-0.269221 0.5104782,0.254113 0.9504304,0.665074 1.5554985,0.710184 0.9912925,0.07391 2.0682396,0.0056 2.9152821,-0.514559 0.4110985,-0.252456 0.7312795,-0.668761 1.2353578,-0.749163 0.51935,-0.08284 0.9887238,-0.495944 1.0202184,-1.029308 0.028992,-0.49098 -0.1585403,-1.015495 0.1233071,-1.47156 0.2231623,-0.361105 0.4920762,-0.778508 0.970812,-0.827261 0.812675,-0.08276 1.673791,-0.525666 2.445582,-0.233043 0.467036,0.177076 0.940212,0.276239 1.455344,0.2529 2.868757,-0.129974 6.200171,0.304107 8.47241,-1.463357 0.365291,-0.284142 0.307945,-0.814852 0.318486,-1.231681 0.01729,-0.683632 -0.22382,-1.423159 0.163375,-2.047731 0.495888,-0.799902 1.450049,-1.329404 2.359909,-1.301046 1.003657,0.03128 1.958873,0.404045 2.984665,0.354534 0.584183,-0.0282 1.004115,-0.473777 1.534918,-0.665599 1.146394,-0.414285 2.345607,-0.794626 3.570328,-0.784792 0.515697,0.0041 1.123138,0.173508 1.390169,0.639612 0.312245,0.545026 -0.337239,1.300225 0.151754,1.727809 0.334532,0.292521 0.791909,0.489252 1.2305,0.502613 0.522746,0.01592 1.012792,-0.197288 1.369235,-0.603169 0.664723,-0.756918 1.860722,-0.46041 2.576959,-1.127877 0.344812,-0.321333 0.813152,-0.399074 1.24232,-0.574757 0.549565,-0.224969 1.145937,-0.08587 1.722953,-0.128073 1.48157,-0.108351 3.217889,0.455926 4.440826,-0.388412 0.412466,-0.284774 -0.138812,-0.838505 -0.124371,-1.221687 0.01379,-0.365835 0.30748,-0.619402 0.31725,-1.039523 0.013,-0.558951 0.680845,-0.463598 0.974445,-0.763815 0.377642,-0.386154 0.794095,-0.721259 1.372145,-0.81451 1.397026,-0.225369 2.817077,-0.334347 4.193131,-0.663647 0.811884,-0.19429 1.567761,-0.571087 2.429902,-0.609685 1.356997,-0.06075 2.676973,-0.456451 4.042194,-0.44476 0.951526,0.0081 1.898145,-0.09378 2.830464,-0.287861 1.146094,-0.238586 2.348931,-0.325241 3.422651,-0.790405 0.50396,-0.218329 1.024588,-0.450499 1.592032,-0.384036 0.559997,0.06559 1.110844,-0.06473 1.622837,-0.298816 0.744114,-0.340211 1.54797,-0.0021 2.259692,0.252687 0.631278,0.226006 1.201189,0.625209 1.851263,0.781977 1.718989,0.41454 3.497872,0.557998 5.207554,1.007763 0.424774,0.111745 0.826584,-0.02361 1.243113,-0.161283 0.496113,-0.163974 1.026174,-0.185894 1.53803,-0.293628 1.208666,-0.254397 2.714281,0.0541 3.621445,-0.784786 0.364656,-0.33721 0.83851,-0.360209 1.312788,-0.375765 1.232002,-0.04041 2.503847,-0.105984 3.629583,-0.679852 0.487052,-0.248285 1.027478,-0.428298 1.584885,-0.33094 0.519035,0.09066 1.039796,0.141737 1.56566,0.198675 0.910856,0.09862 1.801148,0.492004 2.734103,0.288202 0.718269,-0.156904 1.44597,-0.304651 2.192834,-0.197209 0.595605,0.08568 1.202297,0.164866 1.804677,-0.04995 0.70708,-0.252157 1.38424,-0.689477 2.17031,-0.649923 0.40842,0.02055 1.11088,0.329969 1.23282,-0.07631 0.12805,-0.426627 0.61929,-0.43322 0.97757,-0.548123 0.84979,-0.272536 1.69252,-0.566378 2.52523,-0.900489 0.38727,-0.155385 -0.10196,-0.823848 0.36092,-0.873059 0.51835,-0.05511 0.94901,0.300665 1.20478,0.728028 0.29244,0.488626 0.75975,1.264666 1.36659,1.033315 0.49179,-0.187491 1.01239,-0.264758 1.52877,-0.03953 0.63416,0.276598 1.34178,0.208288 2.01384,0.194299 0.71165,-0.01481 1.76035,0.523015 2.13724,-0.08207 0.25168,-0.404064 0.71189,-0.48079 1.15957,-0.468607 1.47558,0.04016 2.85871,0.644048 4.18994,1.22589 0.8782,0.383836 1.68299,1.000719 2.62655,1.170585 0.54951,0.09893 1.11176,0.08142 1.66512,0.03864 0.62566,-0.04837 0.94311,-0.765857 1.5122,-0.894847 0.22178,-0.05027 0.30883,0.0571 0.57892,-0.131636 0.9128,-0.637856 1.79732,-1.619153 2.96018,-1.586153 0.3588,0.01018 0.68157,0.18348 1.06347,0.390281 0.51379,0.278221 1.13821,0.170964 1.70392,0.228924 0.44078,0.04516 0.81167,-0.180368 1.2554,-0.228169 1.06337,-0.114552 2.3058,-0.259733 3.15824,0.392438 0.42391,0.324318 0.77156,0.873474 1.36366,0.861063 0.48785,-0.01023 0.87896,0.225582 1.16967,0.650849 0.24961,0.365141 0.47015,0.905136 1.00047,0.902269 0.97365,-0.0053 2.0228,-0.405229 2.93529,0.03276 0.39479,0.189496 0.52847,0.653839 0.71272,1.020418 0.24502,0.487487 0.6738,0.953751 1.23228,0.977488 0.53032,0.02254 0.92299,0.390908 1.47472,0.39527 1.75288,0.01386 3.48891,-0.315098 5.23722,-0.405266 0.57414,-0.02961 1.05679,-0.359391 1.63549,-0.414253 1.54913,-0.146861 3.15922,0.220799 4.65924,-0.228763 1.00824,-0.302173 1.8142,-1.081 2.88964,-1.229607 1.61142,-0.222671 3.24606,-0.241247 4.86658,-0.162597 1.39618,0.06776 2.78191,0.416154 4.18555,0.23641 0.77639,-0.09942 1.55291,-0.01974 2.32911,0.08624 0.52456,0.07162 1.89177,0.502287 1.59748,0.05179 -0.2842,-0.435052 0.38204,-0.572017 0.68817,-0.640555 0.47404,-0.106132 1.27007,0.175073 1.42917,-0.292493 0.17749,-0.521598 0.71231,-0.324011 1.12962,-0.427012 0.79678,-0.196661 1.53888,-0.60163 2.34979,-0.724516 0.71892,-0.108945 1.45303,0.04137 2.16346,-0.30386 0.42173,-0.204939 1.10231,0.04636 1.34378,-0.387871 0.38656,-0.695126 0.12327,-1.565232 0.48394,-2.251643 0.24228,-0.4611 0.69949,-0.747653 0.89298,-1.262342 0.28751,-0.764767 0.28595,-1.768741 0.95482,-2.267328 0.46442,-0.346185 1.05971,-0.475447 1.62039,-0.579103 1.17863,-0.217902 2.4109,-0.0077 3.56988,-0.297087 1.10064,-0.274827 2.05082,-0.959914 3.17822,-1.168446 1.1645,-0.215394 2.3542,-0.298185 3.48461,-0.699304 0.93915,-0.333251 1.8442,-0.965687 2.85139,-0.91987 0.53454,0.02432 1.06337,-0.0272 1.58363,-0.18668 0.48855,-0.149758 0.91667,-0.499295 1.41969,-0.567742 0.31648,-0.04306 0.62801,0.04387 0.97073,-0.217031 0.48072,-0.365958 1.10173,-0.505948 1.69349,-0.586458 0.58832,-0.08004 0.28431,0.729253 0.27513,1.065783 -0.0142,0.518623 0.61988,0.635227 1.0232,0.680724 0.78231,0.08825 1.57976,0.02577 2.33373,-0.222524 0.59024,-0.194375 1.43279,-0.115722 1.74949,-0.653343 0.22601,-0.383664 0.51196,-0.563934 1.03724,-0.593041 0.38304,-0.02123 0.62081,-0.285778 1.06345,-0.342216 0.74541,-0.09504 1.49446,-0.226943 2.24665,-0.157903 0.42136,0.03867 0.32763,-0.402559 0.74289,-0.643978 0.37987,-0.220846 0.43651,-1.030574 0.89115,-0.930143 0.46182,0.102017 0.79051,-0.304697 1.20843,-0.305901 0.48737,-0.0014 0.97656,0.213612 1.45341,-0.08637 0.61384,-0.386162 1.08415,-1.010797 1.83002,-1.181504 0.96827,-0.221607 1.98779,0.314246 2.92693,0.05301 0.58538,-0.162835 1.05698,-0.635501 1.69758,-0.631174 0.60538,0.0041 1.2158,-0.05533 1.77918,-0.287562 0.99459,-0.409983 2.0838,-0.323399 3.13248,-0.327423 0.75394,-0.0029 1.48275,-0.204315 2.18504,-0.485437 0.42528,-0.170237 0.93871,-0.450119 1.36025,-0.234832 0.31971,0.163282 0.53849,0.463787 0.80926,0.690494"
       id="path55"
       inkscape:path-effect="#path-effect57"
       inkscape:original-d="m 0.8914581,63.620504 c 0.2836894,-0.115086 0.5553171,-0.266163 0.8510681,-0.345255 0.696856,-0.186359 1.1718772,0.463867 1.7522029,0.675492 0.8647644,0.315354 2.561868,0.01524 3.3709072,-0.375267 0.2995308,-0.144579 0.5226225,-0.418491 0.801007,-0.585433 0.4105188,-0.246179 0.9258646,-0.198916 1.2348863,-0.600437 0.7180363,-0.932961 -0.2728534,-1.341435 0.6675054,-2.491817 0.1964359,-0.240308 0.2958632,-0.382273 0.634131,-0.420312 0.716001,-0.08051 1.550057,-0.270192 2.26952,-0.270192 0.454451,0 0.774985,0.318706 1.26826,0.300217 3.07172,-0.115138 5.934614,-0.504253 8.844456,-1.456063 0.657899,-0.215196 0.236315,-2.22114 0.333754,-2.74701 0.2019,-1.089633 1.359704,-1.645745 2.302894,-1.831334 0.908832,-0.178832 2.128863,0.570759 3.504405,0.28521 0.265308,-0.05507 0.533371,-0.256178 0.767636,-0.390287 0.80291,-0.459634 3.654594,-1.235869 4.572415,-0.960699 2.060223,0.617669 0.05682,2.002803 1.418447,2.551861 0.626097,0.252465 0.754026,0.341588 1.501894,0.180131 0.513863,-0.110937 0.714187,-0.647393 1.151446,-0.855626 0.499067,-0.237664 1.035574,-0.291073 1.55195,-0.450328 0.465474,-0.143558 0.75587,-0.53511 1.168136,-0.720527 0.274444,-0.123433 0.614984,-0.159885 0.901131,-0.270192 0.217604,-0.08389 0.909153,-0.02529 1.01795,-0.03003 0.950629,-0.04138 4.861496,-0.339286 4.989607,-0.435319 0.31921,-0.239282 -0.243853,-0.998075 -0.200255,-1.350987 0.02188,-0.17703 0.224155,-0.24907 0.250315,-0.390281 0.04819,-0.260168 0.05283,-0.63418 0.216937,-0.855631 0.139903,-0.18878 0.527285,-0.175294 0.700884,-0.300217 0.353753,-0.254572 0.7044,-0.801111 1.168135,-0.870633 1.437815,-0.215548 2.861696,-0.489958 4.305416,-0.675492 0.79923,-0.102711 1.583749,-0.645475 2.436397,-0.645475 1.162114,0 2.330395,-0.344868 3.504407,-0.420306 0.89435,-0.05747 1.794957,2.64e-4 2.686711,-0.150111 1.367742,-0.230683 2.754053,-0.574451 4.088471,-0.885646 0.419304,-0.09778 0.81506,-0.369638 1.23489,-0.435318 0.44505,-0.06962 0.906561,0.0367 1.351701,-0.03002 0.62189,-0.09323 0.912497,-0.435313 1.585322,-0.435313 0.728012,0 2.60009,0.805651 3.270777,1.14083 0.343672,0.171752 5.348213,1.110811 5.857367,1.110811 0.331695,0 0.693068,-0.273333 1.034634,-0.31523 1.658483,-0.203433 3.127433,-0.719048 4.739288,-0.9607 0.265462,-0.0398 0.441061,-0.339021 0.700884,-0.360267 1.246661,-0.101952 2.566093,-0.0071 3.754718,-0.465338 0.457782,-0.176477 0.872879,-0.421831 1.318334,-0.555406 0.665763,-0.199638 1.431586,0.150112 2.119331,0.150112 0.607915,0 1.373542,0.253463 1.985822,0.345249 0.846715,0.126934 1.536663,-0.213304 2.336271,-0.285205 0.746583,-0.06713 1.472311,0.223494 2.186086,0.165119 0.32783,-0.02681 1.54082,-0.65259 2.06927,-0.780569 0.58979,-0.142832 1.22069,0.131519 1.81895,-0.09007 0.0985,-0.0365 0.11943,-0.283141 0.25032,-0.330237 0.69262,-0.249214 2.95675,-0.828363 3.38759,-1.215893 0.16651,-0.149773 -0.10406,-0.77733 0.20025,-0.795581 1.28536,-0.07709 1.15718,1.105323 2.06927,1.636199 0.59013,0.343482 0.86499,-0.09007 1.40176,-0.09007 0.41987,0 0.80887,0.275016 1.2182,0.330245 0.35917,0.04846 3.43445,0.06454 3.62122,-0.04503 0.1683,-0.09873 0.23455,-0.342474 0.43388,-0.390287 2.07474,-0.497665 5.50352,1.508083 7.47607,2.296673 0.32108,0.128363 1.16676,0.02855 1.55195,0.06005 0.66185,0.05412 1.05087,-0.491324 1.56864,-0.840613 0.32619,-0.220052 0.68075,0.226901 0.65082,-0.150106 1.08138,-0.752347 2.50951,-2.10505 3.95245,-1.45607 0.14996,0.06744 -0.0108,0.209453 0.25032,0.300219 0.6027,0.209465 1.30612,0.150112 1.83564,0.150112 0.19183,0 0.3738,-0.157663 0.56738,-0.180131 1.36007,-0.15786 2.17794,-0.132309 3.45434,0.285206 0.3685,0.120537 0.58447,0.634169 1.15145,0.855624 0.26993,0.105432 0.93821,0.06337 1.16814,0.2702 0.3555,0.319791 0.62986,1.091468 1.01795,1.290943 0.49132,0.252538 2.44887,-0.407808 3.40427,0.165119 0.11758,0.07051 0.34261,0.541313 0.40051,0.645474 0.48641,0.875076 0.6925,1.180126 1.76889,1.350987 0.2003,0.0318 0.47539,0.260373 0.63413,0.285206 1.16457,0.182184 5.14599,-0.25083 6.04093,-0.420306 0.31659,-0.05995 0.65747,-0.287004 1.01795,-0.330243 1.54034,-0.184762 3.12636,0.03416 4.65585,-0.195144 1.06404,-0.159523 1.86152,-1.081888 2.9704,-1.260918 1.50717,-0.243334 3.01438,-0.210156 4.53904,-0.210156 1.15702,0 2.27087,0.226321 3.42097,0.300224 0.86697,0.05571 1.74834,-0.150504 2.58659,-0.10508 0.74577,0.04041 1.87261,0.378212 2.61995,0.210156 0.099,-0.02226 -0.10266,-0.213466 -0.0501,-0.300219 0.0832,-0.137238 0.30767,-0.218781 0.45058,-0.2702 0.53475,-0.192405 1.19182,-0.141737 1.68545,-0.34525 0.16243,-0.06697 0.2017,-0.321348 0.31706,-0.360262 0.16262,-0.05485 0.41257,0.0085 0.58406,-0.03002 0.75077,-0.168838 1.55999,-0.486631 2.30291,-0.720525 0.70865,-0.223107 1.39916,0.02023 2.08595,-0.165118 0.17496,-0.04722 0.48139,-0.280265 0.61744,-0.315231 0.18484,-0.04751 0.49684,0.05085 0.65081,-0.07506 0.13615,-0.111327 0.40463,-0.05319 0.48395,-0.210155 0.41193,-0.81513 0.21046,-1.683939 0.48394,-2.251643 0.18975,-0.393892 0.60038,-0.599641 0.78433,-0.990724 0.27726,-0.589472 0.65005,-2.369471 1.21819,-2.65694 1.38445,-0.700509 3.15288,-0.575561 4.70592,-0.705515 0.86041,-0.072 1.88599,-0.73253 2.68671,-1.005734 1.15916,-0.395506 2.36228,-0.347769 3.52109,-0.660484 1.13123,-0.305272 2.18313,-0.901192 3.33754,-1.140833 0.39482,-0.08196 0.8048,0.01444 1.20151,-0.04503 0.63117,-0.09463 1.37987,-0.447979 1.95245,-0.705515 0.24045,-0.10815 0.61557,0.0377 0.88445,-0.03002 0.26566,-0.06691 0.11567,-0.140652 0.28368,-0.270197 0.37964,-0.292714 1.4317,-0.619472 1.90239,-0.525384 0.15888,0.03176 0.033,0.903858 0.0167,1.050768 -0.0994,0.894512 2.26393,0.735836 2.61996,0.660481 0.49347,-0.104446 2.19657,-0.644873 2.48646,-0.855624 0.20168,-0.146625 0.2461,-0.495534 0.48394,-0.570416 0.22152,-0.06974 0.50344,-3.62e-4 0.73425,-0.03002 0.18425,-0.02368 0.13435,-0.152832 0.28369,-0.225166 0.16225,-0.07859 1.88548,-0.271528 2.1694,-0.285209 0.17521,-0.0084 0.67636,0.04464 0.86775,0 0.0667,-0.01557 0.13689,-0.355409 0.18358,-0.420306 0.12351,-0.171713 0.34628,-0.1459 0.48394,-0.285209 0.22152,-0.224175 0.35872,-0.608478 0.65082,-0.810591 0.12935,-0.0895 0.43077,-0.01353 0.56737,-0.04503 0.60433,-0.13939 0.19931,-0.06455 0.53401,-0.240175 0.37409,-0.196288 0.97521,0.135728 1.30164,0.03002 0.73469,-0.237915 1.14386,-0.945131 1.81894,-1.230899 1.02713,-0.434791 2.25581,-0.07505 3.32084,-0.07505 0.15002,0 1.06047,-0.517646 1.13477,-0.540397 0.48631,-0.148919 1.02026,-0.06606 1.51857,-0.150109 0.60324,-0.101742 1.15232,-0.395147 1.75221,-0.48035 1.14459,-0.162565 2.46468,0.06386 3.58785,-0.255187 0.67793,-0.192574 1.26536,-0.627832 2.05257,-0.570416 0.26989,0.01969 0.71394,0.560049 0.91782,0.720525" />
    <path
       style="fill:none;stroke:#000000;stroke-width:0.264583px;stroke-linecap:butt;stroke-linejoin:miter;stroke-opacity:1"
       d="m 237.15264,28.059568 c 0.70588,-0.02981 1.61214,-0.58595 2.11859,-0.09229 0.14569,0.142011 0.23156,0.333682 0.33035,0.509574 0.25141,0.447625 0.45402,0.92927 0.77406,1.332443 0.19812,0.24958 0.52353,0.392012 0.64114,0.707168 0.205,0.549346 0.23074,1.168575 0.54367,1.672439 0.12322,0.198401 0.30432,0.350715 0.47822,0.502884 0.0822,0.07193 0.31646,0.297261 0.28244,0.254579 -0.10012,-0.125598 -0.46205,-0.385853 -0.30077,-0.377693 0.1221,0.0062 0.26591,0.146318 0.36912,0.236191 0.1575,0.137149 0.40502,0.2428 0.43313,0.460159 0.0256,0.197848 0.0443,0.420347 0.18559,0.566024 0.17854,0.184071 0.45333,0.202308 0.69197,0.232247 0.20458,0.02567 0.39955,0.165142 0.44381,0.376354 0.031,0.148043 0.0742,0.317865 0.23105,0.384618 0.38962,0.165799 0.81034,0.244708 1.22647,0.30852 0.44276,0.0679 0.89144,0.175794 1.33859,0.130217 0.32627,-0.03326 0.65637,-0.138096 0.89494,-0.379997 0.47942,-0.486122 0.69831,-1.147029 1.025,-1.731726 0.46207,-0.826991 1.13042,-1.507109 1.67178,-2.280421 0.57116,-0.815881 1.24843,-1.550907 1.93949,-2.265212 0.83376,-0.861811 1.6795,-1.714321 2.57729,-2.509162 0.73992,-0.655074 1.60341,-1.186175 2.21844,-1.969418 0.35854,-0.456601 0.64017,-0.96805 1.02693,-1.405197 0.49401,-0.558368 1.0752,-1.054253 1.45702,-1.698737 0.19981,-0.337266 0.27334,-0.766148 0.58647,-1.022491 0.25219,-0.206457 0.60077,-0.228521 0.84502,-0.458684 1.05941,-0.998318 2.18736,-1.945306 3.46308,-2.651872 0.74688,-0.413663 1.55298,-0.700848 2.32712,-1.057509 2.04617,-0.942713 4.10986,-1.854687 6.09669,-2.917035 0.51501,-0.275373 0.8369,-0.780047 1.25495,-1.169242 0.19052,-0.17737 0.41055,-0.320113 0.65658,-0.413016 1.14084,-0.430797 2.28999,-0.839972 3.44637,-1.227025 0.23848,-0.07982 0.479,-0.1537806 0.73223,-0.1751226 0.48464,-0.040844 0.99855,-0.033931 1.43404,-0.2781835 0.34711,-0.1946836 0.59045,-0.5246427 0.95087,-0.7067163 0.79748,-0.4028669 1.58485,-0.8313009 2.41329,-1.1670137 1.04255,-0.4224798 2.17307,-0.5956311 3.19928,-1.0557358 0.55802,-0.250189 1.0254,-0.6941141 1.64247,-0.8164319 0.9688,-0.1920398 1.98134,0.1795205 2.92928,-0.093706 0.22257,-0.064152 0.39117,-0.231647 0.61358,-0.3054121 1.23641,-0.4100651 2.56883,-0.511972 3.75751,-1.0606447 0.63058,-0.2910635 1.16461,-0.7902319 1.86085,-0.9374329 0.79603,-0.1682988 1.64747,0.02381 2.41666,-0.2503376 0.45481,-0.1620989 0.83876,-0.466367 1.24625,-0.7170451 0.32764,-0.2015546 0.66574,-0.4014227 1.04716,-0.4946207 0.17493,-0.042743 0.29058,0.071217 0.47473,-0.055646 0.668,-0.4601968 1.29941,-0.9752927 1.98997,-1.40159845 0.0634,-0.0391634 0.10364,-0.1050132 0.003,-0.0442507 -0.23921,0.14492205 -0.51463,0.26827199 -0.67656,0.49776427 -0.11814,0.1674364 0.20115,0.050122 0.27234,0.026086 1.03462,-0.34931221 1.88043,-1.06257674 2.81409,-1.60386021 0.33884,-0.19644048 0.70064,-0.34861783 1.04805,-0.52871679 0.17146,-0.088885 -0.0626,0.11601274 -0.10326,0.16317077 0,0 -0.0127,0.0130066 -0.0127,0.0130066 0,0 -0.0126,0.0130879 -0.0126,0.0130879"
       id="path63"
       inkscape:path-effect="#path-effect65"
       inkscape:original-d="m 237.15264,28.059568 c 0.70164,-0.0322 1.40287,-0.118095 2.10492,-0.09661 0.13058,0.004 0.75678,1.380051 1.11808,1.846342 0.16701,0.215556 0.47815,0.367321 0.60075,0.61545 0.22212,0.449553 0.3282,1.56202 0.71757,1.936416 1.65515,1.59154 -0.60966,-0.619831 0.83438,0.555408 0.48226,0.392488 0.17413,0.348459 0.45057,0.870636 0.13245,0.250205 0.65827,0.230428 0.86776,0.315227 0.40813,0.165208 0.23445,0.508868 0.45056,0.675492 0.31695,0.244374 2.26548,0.541803 2.68671,0.480356 0.36096,-0.05266 0.60389,-0.119989 0.85107,-0.375275 0.57912,-0.598103 0.74754,-1.332261 1.20151,-2.02648 0.43793,-0.669679 1.00415,-1.250246 1.45183,-1.921404 0.90631,-1.358765 3.12466,-3.505632 4.38885,-4.683424 0.71818,-0.669094 1.61346,-1.243767 2.26952,-1.981442 0.37988,-0.427132 0.62923,-0.94518 1.00126,-1.381012 0.51294,-0.600894 1.0963,-1.134244 1.55195,-1.786305 0.2257,-0.322987 0.3409,-0.884758 0.66751,-1.125819 0.23461,-0.17316 0.55579,-0.189155 0.76763,-0.390287 1.00954,-0.958537 2.09656,-1.840613 3.28747,-2.566873 0.72877,-0.444443 1.48895,-0.700193 2.25282,-1.050769 2.11336,-0.969906 4.24233,-1.973191 6.32463,-3.017204 0.75441,-0.378246 1.02894,-1.099335 1.73551,-1.516105 0.18976,-0.111918 3.89593,-1.429916 4.15523,-1.4710745 0.5915,-0.093895 1.05471,-0.021145 1.61869,-0.2701997 0.37007,-0.1634098 0.58814,-0.5195387 0.9512,-0.7055125 0.55584,-0.2847088 1.98758,-1.0120823 2.5866,-1.2459115 0.97795,-0.3817567 2.02417,-0.6005507 3.00379,-0.9757121 0.57049,-0.2184869 1.04917,-0.7075927 1.65205,-0.8406122 1.03019,-0.2272972 1.9848,0.069424 2.9871,-0.1050806 0.20854,-0.036308 0.36721,-0.2163207 0.56737,-0.2852063 1.20102,-0.4133474 2.58858,-0.562197 3.75473,-1.0507681 0.62658,-0.2625093 1.16086,-0.7765542 1.81896,-0.9456875 0.78483,-0.2017149 1.64562,-0.075745 2.45308,-0.2551872 0.77314,-0.1718199 2.0856,-1.533209 2.70341,-1.1858679 4.58829,-3.1044508 0.44959,-0.6197122 1.67569,-1.005726 1.0158,-0.31980336 1.85198,-1.03170927 2.77015,-1.56114261 0.34912,-0.20130861 0.71279,-0.39797431 1.0847,-0.55540589 0.0496,-0.021018 0.18472,-0.1014541 0.15019,-0.060044 -0.062,0.074319 -0.1335,0.14010387 -0.20026,0.21015584" />
    <path
       style="fill:none;stroke:#000000;stroke-width:0.264583px;stroke-linecap:butt;stroke-linejoin:miter;stroke-opacity:1"
       d="m 280.23267,-0.69296528 c 0.0225,0.13464991 -0.10377,0.23289716 -0.19936,0.3031907 -0.46448,0.34157196 -1.02634,0.54060197 -1.454,0.93229767 -0.11403,0.10444087 -0.20393,0.24399324 -0.19671,0.41126135 0.0249,0.57659206 -0.0811,1.17942806 -0.41911,1.65981656 -0.27835,0.3955449 -0.65699,0.7262604 -1.09156,0.9303833 -0.41473,0.1948059 -0.88336,0.2212007 -1.33407,0.2289191 -0.93743,0.016053 -1.87723,-0.1177808 -2.81214,-0.017593 -0.35921,0.038494 -0.72446,0.1213436 -1.02798,0.3302327 -0.21459,0.1476871 -0.4333,0.2905716 -0.68404,0.3768748 -2.34582,0.8074167 -4.50659,2.0593022 -6.84751,2.8817896 -2.18458,0.7675568 -4.44656,1.3474642 -6.53411,2.3625398 -0.75057,0.364966 -1.35758,0.974251 -2.11952,1.31343 -0.33802,0.15047 -0.73723,0.130411 -1.05388,0.32633 -0.36041,0.222998 -0.6302,0.559699 -0.8982,0.881326 -0.35305,0.423696 -0.69972,0.851815 -1.06546,1.266941 -0.0276,0.03134 0.0711,-0.08622 0.09,-0.131146 0.10196,-0.242272 0.19596,-0.487159 0.27886,-0.737201 0.10672,-0.321888 0.19222,-0.663648 0.139,-1.002907 -0.0276,-0.175741 -0.0206,-0.368303 -0.1137,-0.524085 -0.15402,-0.257649 -0.40893,-0.426694 -0.61416,-0.639819 -0.34771,-0.361091 -0.79788,-0.6498947 -1.30617,-0.7042842 -0.54458,-0.058272 -1.10324,0.040413 -1.59526,0.2617542 -0.24513,0.110275 -0.40695,0.337858 -0.5657,0.544997 -0.21082,0.275089 -0.37538,0.595893 -0.64787,0.81451 -0.52978,0.425039 -1.15735,0.696113 -1.76977,0.977252 -0.50882,0.233578 -1.0031,0.5295 -1.36728,0.964998 -0.27953,0.334272 -0.43861,0.744854 -0.61247,1.141255 -0.11952,0.272505 -0.36151,0.512834 -0.37059,0.812827 -0.006,0.212113 0.0306,0.423653 0.0527,0.634405 0.0545,0.52026 0.0159,1.05496 0.14115,1.563566 0.044,0.178681 -0.14177,0.223887 -0.27272,0.263994 -0.55338,0.169487 -1.13875,0.188969 -1.69001,0.374277 -0.8978,0.301798 -1.7532,0.7692 -2.70546,0.877884 -0.6912,0.07889 -1.38596,-0.01106 -2.06862,-0.119829 -0.63467,-0.101121 -1.28218,-0.159378 -1.92332,-0.07739 -0.37051,0.04738 -0.73294,0.141149 -1.10482,0.182444 -1.41844,0.157509 -2.84045,-0.04647 -4.2588,-0.0959 -0.39525,-0.01377 -0.79162,-0.01738 -1.18548,0.02873 -1.16288,0.136139 -2.32157,0.318477 -3.46451,0.571636 -0.60528,0.134068 -1.21168,0.275315 -1.79509,0.48967 -0.15901,0.05842 -0.29195,0.163613 -0.43303,0.255493 -0.23554,0.153403 -0.4977,0.291298 -0.78136,0.316617 -0.23537,0.02101 -0.50446,-0.049 -0.70565,0.08734 -0.48791,0.330633 -1.06308,0.552683 -1.47541,0.974944 -0.12991,0.133038 -0.19892,0.321077 -0.37812,0.409379 -0.42453,0.209194 -0.91488,0.288269 -1.29628,0.579509 -0.12378,0.09452 -0.23095,0.228202 -0.24013,0.389638"
       id="path67"
       inkscape:path-effect="#path-effect69"
       inkscape:original-d="m 280.23267,-0.69296528 c 0.11316,0.40463202 -1.87929,1.00892268 -1.85232,1.59116166 0.0552,1.19258052 -0.3474,1.95461572 -1.41844,2.59689282 -1.05428,0.6322142 -3.69212,-0.081346 -4.95625,0.4203115 -0.31536,0.1251474 -0.56713,0.403338 -0.88442,0.5103691 -2.29751,0.7749717 -4.37833,1.9926654 -6.6417,2.8070484 -2.22236,0.7996301 -4.57607,1.4301702 -6.7585,2.4317795 -0.76391,0.3505913 -1.40351,0.9394943 -2.13602,1.3209623 -0.30333,0.157963 -0.68507,0.178324 -1.00126,0.300218 -0.65513,0.252561 -1.51157,1.689872 -2.10264,2.221624 -0.0304,0.02737 0.0692,-0.05169 0.0834,-0.09006 0.0708,-0.190968 0.16755,-0.381663 0.23362,-0.58543 0.21797,-0.672238 0.27726,-0.890317 0.15019,-1.57615 -0.0535,-0.288595 -0.41166,-0.518252 -0.60075,-0.720524 -0.88605,-0.9478101 -1.6881,-0.9419038 -2.95372,-0.525387 -0.43127,0.141931 -0.8732,1.08665 -1.25157,1.381011 -1.47046,1.143961 -2.96557,0.919069 -3.70466,3.002192 -0.0766,0.215985 -0.37889,0.686818 -0.4005,0.900656 -0.0192,0.1899 0.29244,2.273945 0.16688,2.341711 -0.41295,0.222856 -1.20536,0.254566 -1.66877,0.390287 -1.02509,0.300221 -2.04469,0.897239 -3.12059,0.975712 -1.61309,0.117653 -2.56154,-0.503064 -4.28873,-0.135099 -1.78473,0.380224 -3.78397,-0.01929 -5.60705,0 -0.77854,0.0082 -5.37952,0.727198 -6.05761,1.260918 -0.22262,0.17522 -0.48573,0.315366 -0.76764,0.390287 -0.21464,0.05705 -0.67274,-0.01148 -0.86776,0.120087 -0.46373,0.312863 -0.97094,0.595226 -1.41844,0.930681 -0.14333,0.107441 -0.18977,0.307736 -0.35045,0.405294 -0.43535,0.26434 -1.56218,0.432461 -1.60201,1.005737" />
    <path
       style="fill:none;stroke:#000000;stroke-width:0.264583px;stroke-linecap:butt;stroke-linejoin:miter;stroke-opacity:1"
       d="m 218.45495,22.979332 c -0.15029,-0.200015 -0.24917,-0.502006 -0.55745,-0.512701 -1.0828,-0.03756 -2.16537,0.190702 -3.24461,0.110072 -1.79529,-0.134126 -3.5566,-0.639736 -5.37572,-0.529703 -0.74109,0.04483 -1.4147,0.387698 -2.04148,0.757789 -0.59507,0.351369 -1.2385,0.617878 -1.91904,0.757353 -1.14861,0.235404 -2.37201,0.272866 -3.41544,0.875565 -0.96364,0.55661 -1.77838,1.464137 -2.90845,1.655011 -1.01678,0.171738 -2.00655,-0.229915 -3.02198,-0.240415 -0.96361,-0.01 -1.91126,0.187147 -2.855,0.355122 -0.54561,0.09711 -1.06762,0.291213 -1.55523,0.557741 -1.12578,0.615347 -2.18446,1.446436 -3.47227,1.676767 -1.15239,0.206111 -2.32537,0.257189 -3.49118,0.349297 -0.79304,0.06266 -1.62869,-0.182799 -2.38349,0.100629 -0.40474,0.15198 -0.73746,0.432291 -1.13648,0.60642 -0.67387,0.294072 -1.4179,0.30477 -2.14026,0.322252 -0.75323,0.01823 -1.50715,0.11589 -2.25969,0.07003 -0.76959,-0.0469 -1.54476,-0.306654 -2.30955,-0.162712 -0.82733,0.155712 -1.39344,0.861502 -2.14941,1.170634 -0.77401,0.316507 -1.62726,0.400483 -2.45293,0.365384 -1.1125,-0.04729 -2.10376,-0.663668 -3.22068,-0.713071 -1.48533,-0.0657 -2.97623,0.109939 -4.40977,0.465329 -0.51998,0.128909 -0.88373,0.594785 -1.42751,0.677329 -0.39383,0.05978 -0.78755,0.110767 -1.16515,0.260439 -1.93351,0.766401 -3.75799,1.877108 -5.81123,2.281199 -1.58558,0.312053 -3.1986,-0.08815 -4.79506,0.11241 -0.91639,0.115125 -1.90209,0.0874 -2.72358,0.510166 -0.31531,0.162269 -0.61468,0.350131 -0.99227,0.367019 -0.6249,0.02795 -1.25618,0.03149 -1.87519,-0.05402 -1.12242,-0.15504 -2.17015,-0.638481 -3.28331,-0.826717 -1.21155,-0.204874 -2.46151,0.02728 -3.66052,-0.325045 -1.62125,-0.476396 -3.21468,-1.22139 -4.91843,-1.246529 -0.52815,-0.0078 -1.04616,0.114005 -1.5778,0.09288 -1.59017,-0.06318 -3.14894,-0.471395 -4.75029,-0.410172 -0.97826,0.0374 -1.96188,0.245094 -2.93556,0.11948 -0.47457,-0.06122 -0.87748,-0.338825 -1.36087,-0.399302 -1.09117,-0.136517 -2.22463,0.144139 -3.28817,-0.123596 -0.53577,-0.134874 -0.91492,-0.566711 -1.40582,-0.802997 -0.92459,-0.445036 -1.96777,-0.602369 -2.87076,-1.086417 -0.23864,-0.127923 -0.45046,-0.352613 -0.74473,-0.321631 -0.32422,0.03414 -0.59796,-0.165512 -0.90105,-0.240682 -0.36357,-0.09017 -0.74399,-0.08883 -1.11701,-0.104895 -1.34179,-0.05778 -2.70888,-0.08272 -4.02012,0.227636 -0.53731,0.127176 -1.03908,0.552 -1.58677,0.468598 -0.26326,-0.04009 -0.51483,0.01464 -0.76699,0.102579 -0.87426,0.304903 -1.73373,0.659785 -2.64451,0.850811 -1.833408,0.384539 -3.728392,0.525768 -5.592509,0.330887 -1.073065,-0.112182 -2.173026,-0.519024 -3.235434,-0.235962 -0.70466,0.187746 -1.267529,0.686806 -1.971455,0.89169 -0.706005,0.205489 -1.441627,0.351846 -2.07329,0.760998 -0.700283,0.4536 -1.277016,1.226337 -2.114541,1.345262 -0.602342,0.08553 -1.214682,0.08353 -1.82239,0.09072 -1.559125,0.01844 -3.118125,-0.02475 -4.677559,-0.06478 -0.321568,-0.0083 -0.62951,-0.10011 -0.919251,-0.239433 -0.638349,-0.306952 -1.254601,-0.654969 -1.938932,-0.870639 -0.501386,-0.158014 -1.162343,-0.175507 -1.452444,-0.628095 -0.158779,-0.247712 -0.13692,-0.521577 -0.145645,-0.823587 -0.0041,-0.143165 -0.342824,-0.238853 -0.137522,-0.0571 0,0 0.04652,0.02605 0.04652,0.02605"
       id="path71"
       inkscape:path-effect="#path-effect73"
       inkscape:original-d="m 218.45495,22.979332 c -0.1271,-0.16012 -0.19675,-0.392408 -0.3813,-0.48036 -0.29048,-0.138444 -3.00352,0.112432 -3.47103,0.07505 -1.84737,-0.147712 -3.82347,-0.786449 -5.6738,-0.48035 -1.00314,0.165948 -1.81598,0.887699 -2.75346,1.2309 -1.19957,0.439151 -2.51099,0.36411 -3.68797,0.825605 -1.17485,0.460659 -2.09549,1.566364 -3.33754,1.906393 -0.82697,0.226395 -1.83448,-0.101609 -2.67002,-0.180131 -0.69966,-0.06575 -1.52254,0.0097 -2.21946,0.135094 -0.72491,0.130417 -1.65578,0.227012 -2.31957,0.555406 -1.26601,0.626317 -2.3377,1.519891 -3.72135,1.846347 -0.87065,0.20542 -3.10819,0.37636 -4.02173,0.390287 -0.60229,0.0092 -1.2921,-0.07687 -1.8857,0.06004 -0.35421,0.0817 -0.66046,0.374208 -0.98457,0.52538 -0.68594,0.31994 -1.20684,0.404908 -1.98583,0.420307 -0.78532,0.01553 -1.56841,0.07197 -2.35296,0.09007 -0.76126,0.01754 -2.13273,-0.331237 -2.78684,-0.135099 -0.69466,0.208299 -1.17411,0.690028 -1.78558,1.035754 -0.66808,0.37774 -1.74266,0.452676 -2.50314,0.465344 -1.05473,0.01757 -2.02974,-0.585819 -3.05384,-0.690504 -1.47205,-0.150477 -3.23771,0.232709 -4.68924,0.435316 -0.37347,0.05213 -0.80436,0.469963 -1.15144,0.600437 -0.40643,0.152789 -0.85495,0.102296 -1.25157,0.255188 -1.92078,0.740429 -3.78084,1.77822 -5.79062,2.311686 -1.48351,0.393777 -3.20333,-0.01865 -4.7226,0.135102 -0.96052,0.0972 -2.00415,0.279603 -2.93703,0.510373 -0.28313,0.07004 -0.52586,0.33777 -0.81769,0.375274 -0.58509,0.0752 -1.24246,0.02178 -1.83565,0 -0.91785,-0.0337 -2.35687,-0.555738 -3.32084,-0.795581 -1.18577,-0.295028 -2.55238,0.01209 -3.70466,-0.315229 -1.69037,-0.480172 -3.25267,-1.12222 -5.02298,-1.305957 -0.47238,-0.04903 -0.92475,0.09007 -1.38507,0.09007 -1.38622,0 -2.78355,-0.360611 -4.15523,-0.420312 -1.2198,-0.05309 -2.47216,0.171649 -3.70465,0.135099 -0.56331,-0.01669 -0.82955,-0.317648 -1.3517,-0.390281 -1.14125,-0.158753 -2.24004,-0.07858 -3.37091,-0.135099 -0.40699,-0.02035 -0.91925,-0.524227 -1.26826,-0.705517 -0.91256,-0.474022 -1.89098,-0.700926 -2.8369,-1.080788 -0.4266,-0.17131 -0.4123,-0.241951 -0.70088,-0.390287 -0.12043,-0.0619 -0.45999,-0.03472 -0.60076,-0.06004 -0.2301,-0.0414 -0.52802,-0.247872 -0.80101,-0.270192 -1.50831,-0.123331 -3.27089,-0.144394 -4.77267,0.135093 -0.55642,0.103553 -1.11218,0.382167 -1.68545,0.495361 -0.14977,0.02958 -0.33797,-0.04377 -0.48394,0 -0.81159,0.243377 -1.59394,0.611018 -2.41971,0.825606 -1.81225,0.47094 -4.088271,0.652997 -6.007551,0.480351 -1.0668,-0.09596 -2.227521,-0.429104 -3.287469,-0.2702 -0.516673,0.07746 -1.187532,0.574092 -1.602015,0.750548 -0.586885,0.249854 -1.572609,0.384617 -2.152705,0.690507 -0.836226,0.440952 -1.618216,1.257739 -2.503149,1.57615 -0.349213,0.12565 -6.38525,0.165327 -7.008812,-0.04503 -0.621475,-0.209656 -1.262103,-0.66929 -1.902392,-0.900655 -0.439295,-0.15874 -1.435285,-0.363117 -1.869016,-0.735537 -0.180853,-0.155289 -0.04765,-0.477398 -0.116816,-0.705519 -0.143238,-0.472437 -0.43316,-0.318969 -0.150188,-0.180131" />
    <path
       style="fill:none;stroke:#000000;stroke-width:0.264583px;stroke-linecap:butt;stroke-linejoin:miter;stroke-opacity:1"
       d="m 75.431168,31.644629 c -0.328869,-0.114474 -0.710829,-0.07984 -0.997602,0.127928 -0.40106,0.290572 -0.633361,0.745642 -0.845007,1.180413 -0.232562,0.477738 -0.414818,0.981631 -0.702055,1.431826 -0.120688,0.189158 -0.312428,0.31905 -0.528936,0.381705 -0.340243,0.09846 -0.717137,0.07733 -1.032285,0.251503 -0.257826,0.142493 -0.34538,0.479581 -0.605774,0.605436 -0.256825,0.12413 -0.546976,0.05592 -0.820067,0.119097 -1.168476,0.270326 -2.333282,0.648137 -3.544022,0.641801 -0.866442,-0.0045 -1.704119,-0.276755 -2.574075,-0.269451 -0.909412,0.0076 -1.823369,0.155962 -2.727903,0.05317 -0.426423,-0.04846 -0.801623,-0.33294 -1.24528,-0.290669 -0.879156,0.08376 -1.75057,0.257529 -2.594429,0.520599 -0.549221,0.171218 -1.043701,0.474314 -1.510751,0.804655 -0.652967,0.461839 -1.296828,1.00002 -2.093007,1.180111 -0.824997,0.186609 -1.68547,0.110905 -2.507123,-0.05335 -0.834309,-0.166789 -1.663386,-0.374692 -2.514359,-0.443738 -1.270492,-0.103085 -2.555437,-0.04958 -3.808913,0.18988 -1.900562,0.363072 -3.740262,0.984167 -5.547659,1.663858 -0.616504,0.231843 -1.232504,0.465071 -1.862435,0.659735 -0.831071,0.256821 -1.692919,0.434792 -2.486695,0.793333 -0.756412,0.341664 -1.31088,1.007368 -2.081012,1.328229 -0.321291,0.13386 -0.673188,0.113681 -1.013118,0.124825 -0.321593,0.01054 -0.636073,0.129452 -0.881387,0.33894 -0.18972,0.162013 -0.398116,0.298322 -0.619713,0.414157 -0.643371,0.336308 -1.25083,0.765966 -1.944424,0.980625 -0.272234,0.08425 -0.56216,0.07661 -0.844154,0.08142 -0.278525,0.0048 -0.548189,0.08554 -0.817806,0.147649 -0.835204,0.1924 -1.642274,0.521092 -2.506169,0.574193 -0.512811,0.03152 -1.022689,-0.06284 -1.534949,-0.07981 -0.195657,-0.0065 -0.406111,0.09022 -0.587351,-0.03885 -0.299189,-0.213072 -0.501656,-0.531879 -0.81484,-0.731643 -0.631316,-0.402683 -1.304112,-0.752474 -2.019385,-0.975272 -0.405514,-0.126312 -0.839407,-0.265975 -1.263961,-0.177467 -0.513074,0.106962 -0.895047,0.503953 -1.21504,0.894274 -0.369743,0.451006 -0.641191,0.997535 -1.106509,1.357179 -0.385467,0.297927 -0.854631,0.461342 -1.317372,0.59389 -1.315181,0.376722 -2.687093,0.49882 -4.048581,0.563931 -1.5018896,0.07183 -3.0119699,0.01859 -4.5070269,0.187349 -0.8320055,0.09392 -1.6448272,0.308231 -2.4801497,0.384582 -1.0487997,0.09586 -2.1284682,0.241953 -3.15736461,0.0079 -0.16014549,-0.03643 -0.36757136,-0.03382 -0.46470096,-0.169798 -0.11961378,-0.167452 -0.0536073,-0.421509 -0.22320083,-0.564244 -0.10163249,-0.08554 -0.32130377,-0.223618 -0.39970255,-0.07792 -0.0213338,0.03965 -0.0173811,0.08726 -0.009158,0.129851"
       id="path75"
       inkscape:path-effect="#path-effect77"
       inkscape:original-d="m 75.431168,31.644629 c -1.721779,-0.551349 -1.995226,2.507528 -2.812918,3.013218 -0.32675,0.202076 -0.872707,0.167352 -1.234887,0.330242 -0.320432,0.144116 -0.464916,0.546849 -0.6842,0.64547 -0.219852,0.09888 -0.482525,0.03651 -0.717565,0.09007 -1.165874,0.265684 -2.442777,0.67346 -3.654592,0.660482 -0.800968,-0.0086 -1.574319,-0.270193 -2.369651,-0.270193 -0.938416,0 -1.881933,0.08684 -2.820212,0.06004 -0.450839,-0.01289 -0.827476,-0.336886 -1.284944,-0.300217 -0.930986,0.07462 -2.410946,0.356044 -3.237407,0.765556 -1.143616,0.566663 -1.992339,1.619779 -3.304156,1.801318 -1.573308,0.217722 -2.798405,-0.327576 -4.288727,-0.510376 -0.898244,-0.110178 -1.984695,-0.123571 -2.886961,-0.04503 -2.433518,0.211831 -5.387681,1.271617 -7.676319,2.146567 -1.099375,0.420294 -2.330572,0.689618 -3.454342,1.110811 -0.871625,0.326689 -1.574255,1.272979 -2.469771,1.456063 -0.416878,0.08523 -0.779603,-0.01953 -1.20151,0.135099 -0.368173,0.134924 -0.543235,0.395258 -0.86776,0.570412 -0.685466,0.369962 -1.417066,0.695773 -2.102646,1.065782 -0.191323,0.103256 -0.915313,0.07554 -1.068006,0.105079 -2.041142,0.394843 -2.381306,0.929098 -4.622479,0.630462 -0.167347,-0.0223 -0.395378,0.0806 -0.550691,0 -0.240569,-0.124846 -0.526049,-0.513455 -0.700882,-0.64548 -0.596153,-0.450186 -2.569979,-1.482328 -3.487722,-1.275929 -1.012294,0.227661 -1.550532,1.574866 -2.252832,2.206617 -0.482258,0.433811 -1.591623,0.715669 -2.202769,0.84061 -2.447559,0.500383 -5.0277993,0.335418 -7.5094391,0.525384 -0.8078708,0.06184 -1.5920727,0.288435 -2.4030244,0.375279 -1.0979275,0.117576 -2.2843991,0.165304 -3.38759392,0.04503 -0.11914865,-0.01299 -0.47374933,-0.104804 -0.53400099,-0.195143 -0.0763834,-0.114528 -0.0556602,-0.338635 -0.15019149,-0.480351 -0.12448874,-0.186624 -0.5299838,-0.325382 -0.46725297,-0.01503" />
  </g>
</svg>
