<?xml version="1.0" encoding="UTF-8" standalone="no"?>
<!-- Created with Inkscape (http://www.inkscape.org/) -->

<svg
   width="353.56799mm"
   height="264.16mm"
   viewBox="0 0 353.56799 264.16"
   version="1.1"
   id="svg5"
   inkscape:version="1.1.2 (08b2f3d93c, 2022-04-05)"
   sodipodi:docname="Submucosa.svg"
   xmlns:inkscape="http://www.inkscape.org/namespaces/inkscape"
   xmlns:sodipodi="http://sodipodi.sourceforge.net/DTD/sodipodi-0.dtd"
   xmlns="http://www.w3.org/2000/svg"
   xmlns:svg="http://www.w3.org/2000/svg">
  <sodipodi:namedview
     id="namedview7"
     pagecolor="#ffffff"
     bordercolor="#666666"
     borderopacity="1.0"
     inkscape:pageshadow="2"
     inkscape:pageopacity="0.0"
     inkscape:pagecheckerboard="0"
     inkscape:document-units="mm"
     showgrid="false"
     inkscape:zoom="0.33080921"
     inkscape:cx="450.41067"
     inkscape:cy="593.99797"
     inkscape:window-width="1366"
     inkscape:window-height="704"
     inkscape:window-x="0"
     inkscape:window-y="27"
     inkscape:window-maximized="1"
     inkscape:current-layer="layer2" />
  <defs
     id="defs2">
    <inkscape:path-effect
       effect="simplify"
       id="path-effect73"
       is_visible="true"
       lpeversion="1"
       steps="1"
       threshold="0.000408163"
       smooth_angles="360"
       helper_size="0"
       simplify_individual_paths="false"
       simplify_just_coalesce="false" />
    <inkscape:path-effect
       effect="simplify"
       id="path-effect69"
       is_visible="true"
       lpeversion="1"
       steps="1"
       threshold="0.000408163"
       smooth_angles="360"
       helper_size="0"
       simplify_individual_paths="false"
       simplify_just_coalesce="false" />
    <inkscape:path-effect
       effect="simplify"
       id="path-effect65"
       is_visible="true"
       lpeversion="1"
       steps="1"
       threshold="0.000408163"
       smooth_angles="360"
       helper_size="0"
       simplify_individual_paths="false"
       simplify_just_coalesce="false" />
    <inkscape:path-effect
       effect="simplify"
       id="path-effect61"
       is_visible="true"
       lpeversion="1"
       steps="1"
       threshold="0.000408163"
       smooth_angles="360"
       helper_size="0"
       simplify_individual_paths="false"
       simplify_just_coalesce="false" />
    <inkscape:path-effect
       effect="simplify"
       id="path-effect57"
       is_visible="true"
       lpeversion="1"
       steps="1"
       threshold="0.000408163"
       smooth_angles="360"
       helper_size="0"
       simplify_individual_paths="false"
       simplify_just_coalesce="false" />
  </defs>
  <g
     inkscape:groupmode="layer"
     id="layer2"
     inkscape:label="Submucosa">
    <path
       style="fill:none;stroke:#000000;stroke-width:0.264583px;stroke-linecap:butt;stroke-linejoin:miter;stroke-opacity:1"
       d="m -0.31846001,249.34674 c 2.88569411,-2.54601 6.10381161,-4.66953 9.18570461,-6.97511 1.0019867,-0.74959 1.8441754,-1.73366 3.0297764,-2.22241 1.856563,-0.76535 3.833856,-1.19135 5.81078,-1.53005 1.334705,-0.22867 2.706652,0.32253 4.016045,-0.0141 1.038829,-0.26708 2.088218,-0.89475 3.190523,-0.56182 0.690861,0.20866 1.372309,0.50176 2.120393,0.43682 1.269733,-0.11023 2.490135,-0.55571 3.584823,-1.22263 2.95448,-1.79996 5.77742,-3.84529 8.917499,-5.31593 1.943074,-0.91003 4.130062,-1.34362 5.9016,-2.56842 0.579671,-0.40077 1.177046,-0.78 1.884347,-0.94957 2.818253,-0.67564 5.669313,-1.23538 8.444012,-2.07378 0.48008,-0.14506 0.845875,-0.51479 1.243345,-0.80789 0.587463,-0.43321 1.264973,-0.74169 2.000506,-0.82098 0.56056,-0.0604 1.088135,-0.25517 1.56041,-0.59486 0.501506,-0.36072 0.95665,-0.79356 1.572454,-0.98881 1.464021,-0.46419 2.952081,-1.01058 4.144666,-1.96573 0.313545,-0.25112 1.402357,-0.97435 1.054719,-0.73758 -0.202923,0.13821 -0.369927,0.33564 0.01255,0.25808 1.213427,-0.24605 3.411742,0.2244 3.573946,-1.00168 0.02799,-0.21158 -0.340716,-0.29716 -0.08167,-0.67418 0.417524,-0.60768 0.970028,-1.09633 1.575876,-1.51548 0.981674,-0.67916 2.177,-1.08513 3.000092,-1.95628 0.498411,-0.52751 0.851183,-1.19751 1.56539,-1.51764 2.348205,-1.05255 5.026272,-0.75196 7.433033,-1.57213 1.912428,-0.65171 3.615728,-1.8624 5.648909,-2.18551 2.687679,-0.42712 5.409491,-0.60936 8.100791,-1.01745 0.969504,-0.14701 1.883552,0.30785 2.704152,0.76 0.94421,0.52026 1.92472,1.00102 3.00215,1.18588 1.49904,0.2572 3.03918,0.34033 4.47664,0.895 1.19229,0.46007 2.3878,0.92471 3.66503,1.12415 2.77543,0.43339 5.58738,0.50988 8.39583,0.57372 1.75969,0.04 3.54988,0.75291 5.27658,0.2727 1.79732,-0.49985 3.60057,-1.04512 5.27042,-1.87567 0.5345,-0.26585 1.31212,-0.45488 1.40986,-1.13033 0.0843,-0.58243 0.41703,-1.06371 0.91882,-1.40433 0.5971,-0.40532 1.06729,-0.9641 1.5539,-1.49126 0.80031,-0.86701 1.70222,-1.74243 1.98434,-2.93519 0.22678,-0.95879 0.52006,-1.96145 1.26243,-2.66451 0.59253,-0.56115 1.10149,-1.29765 1.86713,-1.5952 1.06497,-0.41388 2.41145,-0.21988 3.26748,-1.0301 0.44678,-0.42287 -0.0459,-1.1783 0.54551,-1.5465 0.61571,-0.38336 1.23189,-0.76049 1.95439,-0.94737 0.59398,-0.15364 1.36286,0.0376 1.79996,-0.40473 0.40212,-0.40697 0.95994,-0.40231 1.47636,-0.15732 0.66133,0.31374 1.69936,0.54675 1.78164,1.27841 0.0691,0.61432 0.63145,0.93908 1.11809,1.24975 1.26906,0.81017 2.77499,1.17807 4.27422,1.17762 1.16895,-3.5e-4 2.33417,0.0594 3.49833,0.20096 1.85834,0.22597 3.6711,0.79115 5.31412,1.6945 1.75728,0.96617 3.82452,0.87351 5.71012,1.44201 1.338,0.4034 2.63073,1.07974 4.03355,1.15887 1.23321,0.0696 4.93732,0.17993 3.70275,0.1462 -0.33564,-0.009 -0.33731,-0.0175 0.002,-0.0519 2.09546,-0.21243 4.24783,-0.39756 6.17467,-1.39341 0.91864,-0.47478 1.21046,-1.87211 2.22643,-2.03015 0.54849,-0.0853 0.98024,-0.44235 1.14771,-0.9983 0.42823,-1.4216 -0.0117,-2.90031 -0.29844,-4.30144 -0.42645,-2.08396 -0.0417,-4.18983 -0.10196,-6.30023 -0.021,-0.73659 -0.4077,-1.69639 0.1312,-2.22074 0.36361,-0.35379 0.96799,0.0206 1.33965,0.22738 0.67085,0.37332 1.39608,0.61963 2.15333,0.77045 0.95184,0.18958 2.14535,0.0982 2.8043,0.84244 0.19461,0.2198 0.83884,0.29439 1.20972,0.37294 1.96946,0.41711 4.08431,-0.009 5.97735,0.69171 0.6996,0.25911 1.35979,0.60939 2.09817,0.7753 1.57724,0.3544 3.17778,0.58992 4.73939,1.02532 2.49867,0.69666 5.05158,1.10406 7.69641,1.20223 0.57172,0.0212 0.94995,-0.38464 1.37628,-0.73029 0.47277,-0.3833 1.11354,-0.62733 1.38538,-1.21308 0.3391,-0.73068 -0.12305,-1.4805 -0.12976,-2.23224 -0.009,-0.97247 0.64022,-1.75744 1.23198,-2.46083 0.50883,-0.60481 0.54018,-1.41689 0.5178,-2.19016 -0.0171,-0.59247 -0.31623,-1.41922 0.18796,-1.79791 0.3664,-0.2752 0.89794,-0.13937 1.28701,0.0168 1.34723,0.54081 2.30735,1.74003 3.72932,2.16521 2.12026,0.63397 4.34889,0.72377 6.47785,1.35547 1.79392,0.53229 3.58888,1.24436 5.46941,1.28421 0.5097,0.0108 1.07999,0.0722 1.35852,-0.56606 0.1761,-0.40351 0.3704,-0.82124 0.80658,-1.02223 0.53023,-0.24433 1.05877,-0.46724 1.56514,-0.78553 1.05659,-0.66415 2.06352,-1.47083 3.24768,-1.86533 0.56387,-0.18785 1.17863,-0.23357 1.66571,-0.63757 0.65324,-0.54182 1.25597,-1.19292 2.13493,-1.40338 0.61619,-0.14754 1.23645,-0.32375 1.7278,-0.76722 0.69451,-0.62683 1.31453,-1.36613 2.2402,-1.7075 0.89179,-0.32888 1.846,-0.37966 2.77696,-0.53346 0.85871,-0.14186 1.37286,-0.93873 1.78235,-1.62361 0.54976,-0.91948 1.22023,-1.77499 1.65409,-2.75717 0.30853,-0.69845 0.37608,-1.46983 0.51113,-2.21496 0.2573,-1.41962 0.97474,-2.83474 0.76029,-4.26141 -0.10316,-0.6863 -0.92534,-1.24417 -0.6844,-1.93181 0.17457,-0.49821 0.97829,-0.69027 1.41598,-0.46703"
       id="path55"
       inkscape:path-effect="#path-effect57"
       inkscape:original-d="M -0.31846001,249.34674 C 2.5263457,246.848 5.4507164,244.5785 8.6023034,242.55356 c 0.9610534,-0.6175 1.7038326,-1.57118 2.7139866,-2.12287 1.573039,-0.8591 5.074634,-1.73409 6.961968,-1.86813 0.953366,-0.0677 2.620774,0.25787 3.445588,0.0425 0.805308,-0.21031 1.524326,-0.58975 2.359994,-0.6581 0.836967,-0.0684 1.564301,0.4518 2.336383,0.53072 0.962109,0.0983 2.7263,-0.33288 3.587188,-0.84914 2.906343,-1.74291 5.747711,-3.73499 8.755563,-5.30718 2.041025,-1.06683 4.285189,-1.66302 6.324777,-2.7385 0.637162,-0.33598 1.187133,-0.90889 1.911586,-1.08267 0.862494,-0.20689 8.743354,-2.03766 9.038764,-2.25024 0.611092,-0.43976 1.452245,-1.12408 2.147594,-1.35864 0.62638,-0.21128 1.259985,-0.14598 1.88799,-0.42457 0.362497,-0.1608 1.412078,-1.15141 1.722792,-1.23126 1.476033,-0.37935 3.031625,-1.28927 4.413184,-2.01673 0.444695,-0.23416 0.473585,-0.77401 1.132789,-0.82792 0.121735,-0.01 -0.334052,0.30078 -0.235997,0.31843 0.370472,0.0667 3.301338,-0.84015 3.823186,-1.01898 0.171006,-0.0586 -0.355422,-0.35256 -0.235997,-0.48826 0.268335,-0.3049 0.570939,-0.76832 0.873191,-1.0402 1.0601,-0.95359 2.507549,-1.56986 3.657991,-2.4413 0.563909,-0.42716 0.837486,-1.23158 1.463191,-1.5497 2.121966,-1.07884 4.696285,-0.97691 7.009175,-1.50724 1.93163,-0.4429 3.886906,-1.88742 5.711169,-2.27147 1.660903,-0.34966 8.792024,-1.28945 9.534358,-1.14635 1.505883,0.29027 2.749113,1.42483 4.247993,1.80444 1.32354,0.33521 2.71344,0.34484 4.03557,0.67932 1.43228,0.36234 2.78921,1.16436 4.24798,1.40109 2.91851,0.47364 5.708,0.71144 8.61398,0.65809 1.72288,-0.0316 3.85491,0.61867 5.49876,0.29721 1.00533,-0.1966 5.9177,-1.92966 6.48998,-2.505 0.42722,-0.42949 0.28216,-0.98224 0.6372,-1.44355 0.28005,-0.36387 0.72744,-0.52007 1.0384,-0.84914 0.82648,-0.87464 1.91752,-1.89118 2.59598,-2.90834 0.69216,-1.0377 0.48758,-2.35875 1.4868,-3.54519 0.25801,-0.30636 1.71588,-1.71356 2.12398,-1.86812 1.02618,-0.38868 2.14217,-0.3394 3.11519,-0.91284 0.64165,-0.37815 0.15368,-1.19967 0.49559,-1.50724 0.23971,-0.21562 0.61914,-0.40015 0.89681,-0.59441 0.84431,-0.5907 1.82153,-0.55439 2.78478,-0.78545 0.26604,-0.0638 0.65832,-0.42816 0.80241,-0.46704 0.77052,-0.20792 2.59417,1.12104 2.78478,1.5497 0.11289,0.25388 -0.0749,0.29304 0.2832,0.5944 0.85737,0.72146 1.9858,1.26958 3.06799,1.52847 1.51903,0.36341 3.01752,0.11878 4.55478,0.2972 2.6086,0.30277 4.12276,0.66693 6.34838,1.86813 1.48561,0.80181 3.46063,0.79149 5.07397,1.23126 1.41872,0.38671 2.84011,1.01173 4.36599,1.29496 0.31701,0.0588 5.17757,0.22013 3.58717,0.14859 2.25162,-0.26485 4.62469,-0.21689 6.68623,-1.54973 0.6907,-0.44656 1.11323,-1.26967 1.76999,-1.76198 0.47043,-0.35264 0.92585,-0.13093 1.25079,-0.76423 0.80827,-1.57529 -0.0997,-3.84376 -0.25959,-5.49824 -0.16413,-1.69783 0.19665,-3.46919 0.0472,-5.11612 -0.0276,-0.30392 -0.24035,-2.77366 0.3068,-2.7385 0.73574,0.0473 1.54422,0.65964 2.24199,0.8916 1.06363,0.35359 2.34475,0.36466 3.37479,0.82792 1.13988,0.51268 -0.32644,0.13179 1.20359,0.53072 2.05777,0.53654 4.111,0.29181 6.15958,0.72177 0.65082,0.1366 1.22466,0.54595 1.86439,0.72178 1.42035,0.3904 2.86766,0.53081 4.27157,0.89161 3.05414,0.78491 6.0853,1.97782 9.29836,1.37987 0.24177,-0.045 0.8146,-0.71329 0.94401,-0.78547 2.62514,-1.46405 0.41388,-2.28943 1.32159,-4.33065 0.50962,-1.146 1.47629,-1.49784 1.55759,-2.88711 0.0321,-0.54912 -0.37685,-2.54047 0.3776,-2.65358 1.53378,-0.22995 2.91692,1.64818 4.29518,2.14409 2.08083,0.74871 4.27268,0.71882 6.37198,1.33742 1.53469,0.45222 5.83848,1.89181 7.22157,1.35863 0.0188,-0.007 0.43558,-1.09207 0.63719,-1.2525 0.52798,-0.42013 1.25719,-0.46743 1.7936,-0.91283 0.31675,-0.263 2.79966,-1.69994 3.30399,-1.93181 0.45487,-0.20913 1.01668,-0.17407 1.4396,-0.4458 0.69098,-0.44397 1.20454,-1.20304 1.98237,-1.50724 0.20985,-0.0821 1.31043,-0.29273 1.652,-0.48826 0.85893,-0.49169 1.52671,-1.65413 2.45439,-1.9955 3.60933,-1.32816 3.18287,0.56409 5.40438,-3.09939 0.47662,-0.78601 1.03965,-1.52093 1.32159,-2.42007 9.6e-4,-0.003 1.10596,-5.82533 1.08561,-5.9865 -0.0769,-0.60853 -0.8069,-1.32562 -0.6844,-1.93181 0.0971,-0.48074 1.1124,-0.70111 1.41598,-0.46703" />
    <path
       style="fill:none;stroke:#000000;stroke-width:0.264583px;stroke-linecap:butt;stroke-linejoin:miter;stroke-opacity:1"
       d="m 260.23198,165.49339 c 0.51123,-0.55099 0.8634,-1.30693 1.53389,-1.65355 0.25764,-0.13319 0.52474,-0.24779 0.79006,-0.36487 0.89705,-0.39585 1.80299,-0.77122 2.70267,-1.16122 0.14967,-0.0649 0.3067,-0.10826 0.46659,-0.14053 0.6571,-0.13261 1.33535,-0.15109 1.97896,-0.35612 1.14541,-0.36488 2.26126,-0.8442 3.27024,-1.50089 0.20962,-0.13643 0.42876,-0.2619 0.61944,-0.42398 0.33139,-0.28168 0.54716,-0.6831 0.91993,-0.91992 0.27953,-0.17759 0.57714,-0.32356 0.86464,-0.48719 0.29219,-0.1663 0.50653,-0.43291 0.70213,-0.70101 0.2179,-0.29867 0.44614,-0.58969 0.67956,-0.87701 0.10012,-0.12324 0.26772,-0.14016 0.41031,-0.18342 0.10036,-0.0305 0.22534,-0.035 0.29432,-0.12035 0.0342,-0.0423 0.002,-0.12145 -0.0423,-0.0447 -0.0609,0.10537 -0.084,0.24329 -0.18097,0.31815 -0.80482,0.62139 -1.444,1.43274 -1.9568,2.30537 -0.30847,0.52492 -0.60091,1.06189 -0.83268,1.62467 -0.10969,0.26635 -0.0739,0.56579 0.0177,0.83263 0.12724,0.3708 0.3598,0.71879 0.36972,1.11864 0.008,0.31481 -0.14515,0.59954 -0.24416,0.88977 -0.06,0.17579 -0.077,0.36298 -0.0578,0.54858 0.0475,0.45932 0.2471,0.88694 0.31292,1.34173 0.0599,0.41403 -0.0228,0.83094 -0.10022,1.23679 -0.10049,0.52649 -0.23615,1.05709 -0.2013,1.59711 0.0213,0.33038 0.13326,0.66717 0.37558,0.90415 0.31836,0.31135 0.68631,0.5653 1.02948,0.84759 0.23364,0.19219 0.47531,0.38246 0.65702,0.62726 0.0595,0.0802 0.0802,0.17748 0.0907,0.27765 0.055,0.52237 0.1361,1.04175 0.22338,1.55954 0.0851,0.50473 0.25373,0.99837 0.28167,1.50972 0.008,0.13963 0.11894,0.20462 0.2333,0.26805 0.83686,0.46419 1.77141,0.72201 2.70837,0.88809 1.43257,0.25392 2.89384,0.33238 4.34566,0.2764 0.29305,-0.0113 0.58809,-0.007 0.87894,-0.0449 0.0839,-0.011 0.21622,-0.0483 0.20072,-0.15102 -0.0121,-0.0802 -0.0698,-0.17214 0.0669,-0.18976 0.66345,-0.0855 1.33665,0.0481 1.99803,-0.0733 0.83441,-0.15318 1.62662,-0.49394 2.47443,-0.58339 0.27675,-0.0292 0.55561,-0.007 0.82958,0.0402 1.1742,0.2026 2.28587,0.71741 3.47967,0.79691 0.10902,0.007 0.22225,0.0448 0.32807,0.0168 0.16738,-0.0443 0.29464,-0.17222 0.42753,-0.27601 0.13029,-0.10176 0.24733,-0.23819 0.41072,-0.2831 0.32382,-0.089 0.67694,0.0604 0.98931,-0.0811 0.16124,-0.073 0.31357,-0.211 0.33469,-0.39825 0.0184,-0.16294 0.0467,-0.33386 0.15578,-0.46562 0.31483,-0.38036 0.65664,-0.73757 1.00154,-1.09046 0.39403,-0.40316 0.78655,-0.80889 1.20599,-1.18592 0.17843,-0.16039 0.39952,-0.26369 0.61979,-0.35272 0.65513,-0.26479 1.37861,-0.34689 2.00062,-0.69336 0.30552,-0.17018 0.59917,-0.40143 0.74605,-0.72785 0.16335,-0.36301 0.13516,-0.77298 0.0943,-1.15861 -0.0483,-0.45566 -0.13103,-0.92214 -0.0264,-1.37678 0.0553,-0.24054 0.19101,-0.45148 0.34627,-0.64198 0.26602,-0.32639 0.38251,-0.74428 0.43588,-1.15558 0.0723,-0.55753 0.0372,-1.137 0.23036,-1.67251 0.10449,-0.28965 0.26702,-0.55485 0.44363,-0.80507 0.14182,-0.20093 0.31167,-0.37911 0.47763,-0.56336 0.0628,-0.0697 0.17869,-0.0612 0.18864,0.051 0.0163,0.18448 -0.0336,0.36856 -0.0737,0.54701"
       id="path59"
       inkscape:path-effect="#path-effect61"
       inkscape:original-d="m 260.23198,165.49339 c 0.5113,-0.55119 0.96292,-1.16446 1.53389,-1.65355 0.0751,-0.0644 3.45392,-1.5416 3.72879,-1.61338 0.6999,-0.18279 1.42634,-0.16165 2.124,-0.38213 1.46367,-0.46257 2.69025,-1.03856 3.89398,-1.88935 0.35451,-0.25058 0.5988,-0.73281 0.9912,-0.97652 0.84926,-0.52749 1.04675,-0.4496 1.55758,-1.16757 0.11761,-0.1653 0.63675,-0.88453 0.7788,-0.97653 0.19341,-0.12527 0.75081,-0.1333 0.6136,-0.31842 -0.0138,-0.0184 -0.15841,0.31895 -0.21239,0.36088 -1.28164,0.99565 -2.06285,2.35599 -2.76119,3.86363 -0.33033,0.71315 0.26948,1.26881 0.35399,1.95304 0.0568,0.46021 -0.33237,0.90842 -0.30681,1.37987 0.0262,0.48126 0.20394,0.91717 0.30681,1.37986 0.22675,1.01978 -0.69419,2.64501 -0.0708,3.63011 0.31914,0.50432 1.93521,1.42169 1.93521,1.88935 0,0.27768 0.46281,3.22656 0.56637,3.29045 2.08777,1.28775 5.85086,1.36608 8.02396,1.23127 0.49808,-0.0309 0.16513,-0.32119 0.28321,-0.33966 0.58307,-0.0912 1.18227,0.0112 1.76999,-0.0425 1.03177,-0.0941 2.31497,-0.76951 3.39839,-0.61563 1.32815,0.18864 2.61924,0.78862 3.96478,0.84915 0.22992,0.0103 0.63005,-0.47436 0.8496,-0.55195 0.35605,-0.12582 0.81394,0.0942 1.15639,-0.16983 0.29244,-0.22548 0.14213,-0.35148 0.28321,-0.67932 0.0928,-0.21568 2.11055,-2.29104 2.40718,-2.48375 0.90077,-0.5852 2.18508,-0.524 2.9736,-1.29495 0.96393,-0.94247 -0.26668,-2.45739 0.63719,-3.50274 0.77412,-0.89532 0.3233,-2.13801 0.8024,-3.09939 0.30385,-0.60974 1.30702,-2.0215 0.94398,-0.55195" />
    <path
       style="fill:none;stroke:#000000;stroke-width:0.264583px;stroke-linecap:butt;stroke-linejoin:miter;stroke-opacity:1"
       d="m 302.75895,163.01179 c 0.0324,0.30048 0.0828,0.61785 0.27026,0.86594 0.11922,0.15782 0.33571,0.21156 0.52227,0.15626 0.33531,-0.0994 0.61048,-0.34126 0.82559,-0.60633 0.12241,-0.15084 0.24862,-0.30287 0.33688,-0.47817 0.0655,-0.13003 -0.0581,-0.24125 -0.18887,-0.24842 -0.20825,-0.0114 -0.41922,0.059 -0.59067,0.18166 -0.1203,0.0861 -0.0546,0.24114 0.056,0.30636 0.24586,0.14507 0.53241,0.20435 0.81153,0.2413 0.30791,0.0408 0.61778,0.0484 0.92731,0.0791 0.24876,0.0247 0.5092,0.10936 0.7506,0.038 1.1135,-0.32936 2.18808,-0.81948 3.34375,-0.98281 1.03898,-0.14684 2.10392,-0.0353 3.1326,-0.26264 0.39198,-0.0866 0.78899,-0.21508 1.1075,-0.46628 0.28156,-0.22206 0.39453,-0.57447 0.52115,-0.89478 0.12499,-0.31619 0.33531,-0.59262 0.59459,-0.8126 0.41668,-0.35351 0.94085,-0.58988 1.26835,-1.04013 0.23442,-0.32228 0.1176,-0.77887 0.37007,-1.09008 0.15388,-0.18968 0.35847,-0.33256 0.56821,-0.45398 0.60267,-0.34888 1.30104,-0.45837 1.97579,-0.58396 0.30032,-0.0559 0.64731,-0.0182 0.89513,-0.19726 0.10483,-0.0758 -0.0772,-0.17249 -0.13622,-0.21776 -0.15752,-0.12083 -0.36854,-0.20999 -0.44783,-0.39883 -0.10638,-0.25337 -0.0759,-0.54563 0.0458,-0.78921 0.15835,-0.31706 0.37359,-0.60257 0.51402,-0.93004 0.24073,-0.56138 0.37135,-1.17452 0.72441,-1.68463 0.33263,-0.48059 0.81678,-0.85443 1.07002,-1.38645 0.23599,-0.49578 0.16253,-1.08086 0.41461,-1.57093 0.29203,-0.56773 0.89418,-0.90518 1.15371,-1.49557 0.28104,-0.63931 0.33099,-1.35492 0.62728,-1.98881 0.1619,-0.34638 0.47673,-0.57955 0.76319,-0.81702 0.25418,-0.21071 0.56859,-0.41336 0.66475,-0.73466 0.0407,-0.13606 -0.10099,-0.29798 0.0102,-0.41186 0.17135,-0.17555 0.3996,-0.28035 0.61386,-0.3932 0.38865,-0.20469 0.79981,-0.38322 1.13491,-0.67371 0.12311,-0.10672 0.20373,-0.25186 0.24392,-0.41086 0.10632,-0.42064 0.21809,-0.84546 0.23945,-1.27953 0.006,-0.11525 0.0118,-0.24573 -0.0936,-0.33193 -0.10692,-0.0874 -0.4667,-0.16805 -0.34357,-0.22893 0.0959,-0.0474 0.21888,-0.0257 0.32626,-0.0244 0.42149,0.005 0.85233,0.0459 1.26494,-0.0551 0.13051,-0.0319 0.3068,-0.0955 0.30663,-0.25443 -2.1e-4,-0.1976 -0.15734,-0.34475 -0.28622,-0.47596 -0.16334,-0.16629 -0.37194,-0.29941 -0.48087,-0.50975 -0.055,-0.1061 -0.002,-0.22236 0.003,-0.33406 0.0227,-0.56042 -0.16271,-1.10041 -0.32905,-1.6277 -0.086,-0.27275 -0.23235,-0.53642 -0.24689,-0.8223 -0.0112,-0.21976 0.12848,-0.40531 0.22291,-0.59204 0.0949,-0.18774 0.12023,-0.40747 0.055,-0.61348 -0.11029,-0.34839 -0.18132,-0.72548 -0.40434,-1.02165 -0.18607,-0.2471 -0.51205,-0.34219 -0.68767,-0.59924 -0.0918,-0.13432 -0.0388,-0.29897 -0.0186,-0.44524 0.15132,-1.09594 0.46895,-2.1789 0.47233,-3.28529 4.2e-4,-0.13754 0.0675,-0.25029 0.22039,-0.2739 0.25813,-0.0399 0.51087,0.0423 0.7706,0.044 0.52871,0.004 1.05793,-0.0461 1.58584,-0.018 0.12075,0.006 0.29462,0.001 0.33846,0.13905 0.0644,0.20264 0.12125,0.40871 0.21992,0.59917 0.21133,0.40793 0.51114,0.75969 0.79248,1.11968 0.35583,0.4553 0.65359,0.95245 1.00345,1.41308 0.22798,0.30016 0.52641,0.5375 0.82611,0.76156 0.62755,0.46917 1.27948,0.91522 1.98701,1.25262 0.25613,0.12214 0.51765,0.25636 0.80759,0.27279 0.83649,0.0474 1.68472,-0.0129 2.51013,0.13881 0.17497,0.0322 0.41422,-6.1e-4 0.51651,0.15125 0.0973,0.14451 0.18321,0.29846 0.28378,0.44221 0.55488,0.79312 1.39374,1.36815 2.31856,1.64498 1.20088,0.35946 2.7355,0.62554 3.67565,-0.18981 0.10659,-0.0924 0.16227,-0.22991 0.22161,-0.35578 0.0573,-0.12154 0.17448,-0.18391 0.28763,-0.24551 0.39043,-0.21255 0.72842,-0.50959 1.01735,-0.84574 0.23841,-0.27737 0.50153,-0.54981 0.84599,-0.69372 0.30839,-0.12884 0.64283,-0.19804 0.9761,-0.20572 0.34119,-0.008 0.67821,-0.0109 1.02516,-0.0862 0.16358,-0.0355 0.0645,-0.19471 0.009,-0.27922 -0.0708,-0.10812 -0.077,-0.21908 0.0206,-0.33219 0.28883,-0.33472 0.66134,-0.5883 1.04995,-0.79102 0.25975,-0.1355 0.52434,-0.28273 0.82327,-0.30905 0.60035,-0.0529 1.19591,0.16634 1.79352,0.0813 0.14832,-0.0211 0.35823,-0.0177 0.4204,-0.15654 0.0487,-0.10873 -0.0631,-0.20432 -0.11456,-0.29153 -0.0786,-0.13339 -0.0877,-0.29648 -0.17978,-0.42584 -0.0915,-0.12856 -0.26829,-0.10726 -0.40303,-0.0808 -0.24639,0.0484 -0.48958,0.1122 -0.7369,0.15621"
       id="path63"
       inkscape:path-effect="#path-effect65"
       inkscape:original-d="m 302.75895,163.01179 c 0.15901,1.71437 1.2364,1.00523 1.87576,0.085 0.61833,-0.88991 -2.06415,-0.0657 0.0708,0.31843 0.25633,0.0461 0.51906,0.0442 0.77878,0.0637 0.0668,0.005 0.82669,0.12009 1.01481,0.0637 1.02894,-0.30854 2.12489,-0.7644 3.18598,-0.95529 1.29529,-0.23304 3.11293,0.0509 4.24799,-0.6581 0.55573,-0.34715 0.51086,-0.88295 0.87318,-1.40109 0.42897,-0.6134 1.18578,-0.84504 1.6284,-1.42232 0.28731,-0.37473 0.0918,-0.868 0.49559,-1.23127 0.92364,-0.83083 2.18416,-0.79254 3.30399,-1.10389 0.27373,-0.0761 -0.46768,-0.37047 -0.5664,-0.63687 -0.22174,-0.5984 0.20005,-0.97038 0.47202,-1.50723 0.26453,-0.52218 0.38097,-1.13121 0.66077,-1.63461 0.32523,-0.58508 0.84606,-0.98645 1.18002,-1.5497 0.30617,-0.5164 0.18179,-1.21189 0.51919,-1.76198 0.29035,-0.47342 0.77912,-0.78608 1.03838,-1.27372 0.36579,-0.68798 0.4118,-1.86522 0.87321,-2.39885 0.38264,-0.44252 0.93601,-0.70742 1.22719,-1.23126 0.0803,-0.14452 -0.10631,-0.32105 0.0472,-0.46703 0.39798,-0.37845 1.75508,-0.77938 1.93519,-1.33741 0.0817,-0.25319 0.34261,-1.39565 0.25961,-1.63461 -0.0352,-0.10118 -0.42479,-0.29755 -0.42479,-0.31843 0,-0.0988 1.76514,0.14753 1.88796,-0.27598 0.11906,-0.41053 -0.83725,-0.85194 -0.77878,-1.16758 0.14751,-0.79626 -0.34081,-1.82361 -0.54282,-2.61112 -0.0892,-0.34765 0.44239,-0.70898 0.28321,-1.21004 -0.097,-0.30545 -0.22987,-0.84836 -0.44839,-1.10389 -0.22568,-0.26392 -0.73548,-0.41807 -0.70799,-0.76424 0.006,-0.0723 0.50051,-3.67699 0.54279,-3.71502 0.21082,-0.18963 0.56605,-0.0425 0.8496,-0.0425 2.97704,0 1.44468,-0.2766 2.57239,1.23127 0.49651,0.66393 1.0088,1.26129 1.4396,1.97427 0.39438,0.65277 2.78733,2.17239 3.46916,2.31393 0.38325,0.0795 3.05308,0.0156 3.23321,0.33966 1.21097,2.1783 3.8568,2.76658 6.25395,1.86812 0.0854,-0.032 0.21395,-0.44659 0.37762,-0.53072 1.45812,-0.74949 1.14215,-1.61002 2.78479,-1.80444 0.43246,-0.0512 0.93988,0.0992 1.29799,-0.1486 0.0523,-0.0362 -0.18785,-0.3745 -0.1416,-0.4458 0.28718,-0.44286 1.07918,-0.91008 1.5812,-1.12512 0.73681,-0.31562 1.95874,0.26538 2.57238,-0.1486 0.11811,-0.0797 -0.10488,-0.26567 -0.1416,-0.40335 -0.16772,-0.62854 -0.31141,-0.43396 -1.27439,-0.25474" />
    <path
       style="fill:none;stroke:#000000;stroke-width:0.264583px;stroke-linecap:butt;stroke-linejoin:miter;stroke-opacity:1"
       d="m 284.35667,264.11554 c -0.55032,-0.17744 -1.14497,-0.2626 -1.64561,-0.55358 -0.49666,-0.28866 -0.83056,-0.77903 -1.35115,-1.04742 -1.38799,-0.71557 -2.91351,-1.08417 -4.41027,-1.49119 -0.26959,-0.0733 -0.2887,-0.38103 -0.33592,-0.60979 -0.0699,-0.33867 -0.38584,-0.5396 -0.64018,-0.73407 -0.82875,-0.63365 -1.69043,-1.23677 -2.62452,-1.70179 -1.30798,-0.65115 -2.82104,-0.80569 -4.05584,-1.62626 -1.47661,-0.98126 -2.54958,-2.44951 -4.07096,-3.38094 -2.19424,-1.34338 -4.29468,-2.83482 -6.50196,-4.15923 -1.11628,-0.66979 -2.43726,-0.83058 -3.61348,-1.36737 -1.425,-0.65033 -2.72321,-1.62448 -4.25875,-1.99102 -0.7669,-0.18306 -1.59491,-0.12584 -2.30983,-0.51257 -0.76205,-0.41222 -1.36824,-1.08462 -2.21265,-1.35579 -0.86226,-0.2769 -1.77968,-0.3344 -2.62098,-0.7006 -2.39206,-1.04121 -4.72007,-2.29713 -7.24678,-2.96007 -0.85581,-0.22454 -1.74559,-0.032 -2.61387,-0.19913 -1.88227,-0.36229 -3.71899,-1.02476 -5.66148,-1.04037 -0.45422,-0.004 -0.89769,0.13348 -1.34925,0.13483 -0.9307,0.003 -1.77131,-0.43986 -2.6065,-0.79116 -0.4228,-0.17784 -0.87639,-0.24424 -1.32624,-0.31805 -1.63949,-0.26899 -3.19219,-0.93672 -4.85909,-1.07326 -1.1061,-0.0906 -2.21622,-0.1119 -3.3251,-0.14493 -3.84922,-0.11464 -7.68718,0.39696 -11.5332,0.36887 -1.05158,-0.008 -2.08581,-0.22667 -3.13816,-0.25082 -1.60607,-0.0368 -3.21212,-0.004 -4.81869,-0.0139 -3.80867,-0.0237 -7.60693,0.29595 -11.41357,0.37878 -1.7927,0.039 -3.58208,0.21287 -5.37496,0.20454 -1.01162,-0.005 -2.0446,-0.21262 -3.04098,0.0488 -0.78456,0.20584 -1.5288,0.62747 -2.36441,0.60732 -0.64021,-0.0154 -1.28854,-0.1286 -1.92581,0.0626 -3.27667,0.98325 -6.7025,1.26155 -10.0871,1.62787 -0.62902,0.0681 -1.25793,0.15288 -1.86071,0.36204 -0.84733,0.29402 -1.67833,0.66095 -2.58509,0.75713 -2.37798,0.25223 -4.81039,0.28721 -7.10809,1.01853 -0.56604,0.18016 -1.10135,0.48338 -1.68986,0.56665 -0.39303,0.0556 -0.80916,-0.0555 -1.18293,0.17155 -0.89054,0.54108 -1.85294,0.95059 -2.77148,1.43984 -0.21405,0.11401 -0.84204,0.16562 -0.66274,0.31899 0.14095,0.12057 0.33247,0.0248 0.4956,0.0425"
       id="path67"
       inkscape:path-effect="#path-effect69"
       inkscape:original-d="m 284.35667,264.11554 c -0.0101,-0.003 -1.27341,-0.38169 -1.55757,-0.50949 -0.47892,-0.2154 -0.80127,-0.75953 -1.29799,-1.01897 -1.51064,-0.78902 -2.87285,-1.08405 -4.5076,-1.5497 -0.49078,-0.1398 -0.23699,-0.59886 -0.5192,-0.91284 -0.49882,-0.55498 -2.38844,-1.78409 -3.16238,-2.16533 -1.1548,-0.56886 -2.4793,-0.7276 -3.61079,-1.35863 -1.62481,-0.90615 -2.72825,-2.55408 -4.27159,-3.50274 -2.21025,-1.3586 -4.46441,-2.70497 -6.58436,-4.20329 -0.86058,-0.60823 -2.33144,-0.86699 -3.28038,-1.25249 -1.51922,-0.61717 -2.86662,-1.588 -4.48398,-2.12287 -0.70412,-0.23286 -1.46179,-0.16196 -2.14759,-0.40334 -0.8851,-0.31154 -1.47019,-1.07042 -2.31281,-1.42233 -0.89258,-0.37278 -1.84637,-0.34501 -2.71398,-0.72177 -2.46514,-1.07048 -4.77745,-2.15023 -7.33957,-3.01448 -0.76816,-0.25911 -1.70338,-0.0474 -2.50158,-0.19105 -2.36743,-0.42593 -4.53678,-1.40859 -6.93838,-0.97653 -1.24201,0.22345 -2.63744,-0.86096 -3.82318,-1.01897 -1.47702,-0.19683 -2.46437,-0.60728 -3.91758,-0.93407 -1.26907,-0.28539 -2.66569,-0.25901 -3.96479,-0.31843 -4.00957,-0.18341 -8.04941,0.2131 -12.05955,0.33966 -0.95211,0.0301 -1.92548,-0.19452 -2.87918,-0.23351 -1.55612,-0.0636 -3.11554,0.007 -4.67278,-0.0212 -3.83243,-0.069 -7.63898,0.29935 -11.46955,0.36088 -1.87781,0.0302 -3.73673,0.14725 -5.61678,0.2123 -0.99181,0.0343 -2.2646,-0.21062 -3.20959,0.0212 -0.6271,0.15385 -1.22332,0.45521 -1.86439,0.5944 -0.7234,0.15706 -1.68925,-0.16001 -2.33639,0.0425 -3.52011,1.10136 -7.41183,1.3347 -11.06835,1.78321 -1.17972,0.1447 -2.28224,0.87224 -3.39839,0.99775 -2.32419,0.26136 -4.75615,0.29405 -7.00917,0.93406 -0.66654,0.18934 -1.29928,0.46035 -1.95879,0.6581 -0.35152,0.1054 -0.86446,-0.0754 -1.17999,0.12736 -0.7422,0.47688 -1.70233,0.91957 -2.5252,1.33741 -0.55795,0.28333 -1.05165,0.45179 -1.01479,0.48826 0.11786,0.11662 0.3304,0.0283 0.4956,0.0425" />
    <path
       style="fill:none;stroke:#000000;stroke-width:0.264583px;stroke-linecap:butt;stroke-linejoin:miter;stroke-opacity:1"
       d="m 143.65408,244.20307 c -1.18903,-0.0562 -2.40032,-0.40584 -3.56716,-0.16934 -0.19691,0.0399 -0.22583,0.28319 -0.36611,0.39554 -0.16697,0.13373 -0.37602,0.20546 -0.57575,0.27487 -0.42995,0.14941 -0.86507,0.3589 -1.32218,0.34704 -1.71821,-0.0446 -3.4384,0.0235 -5.15023,0.19154 -0.44126,0.0433 -0.87695,0.13667 -1.31935,0.16492 -1.07667,0.0688 -2.14652,-0.32425 -3.21374,-0.18152 -1.08494,0.1451 -2.18921,0.19493 -3.25153,0.46039 -0.16263,0.0406 -0.31363,-0.0379 -0.43607,-0.13912 -0.15466,-0.12791 -0.31952,-0.24396 -0.51824,-0.30095 -0.85899,-0.24633 -1.76428,-0.11262 -2.62674,0.0372 -0.68177,0.11843 -1.36963,0.21276 -2.06408,0.2093 -1.09132,-0.005 -2.17392,-0.26019 -3.26327,-0.20586 -0.37233,0.0186 -0.63201,0.3227 -0.84837,0.59177 -0.21849,0.27171 -0.48276,0.60063 -0.85806,0.59392 -1.67551,-0.0299 -3.35084,-0.0894 -5.02676,-0.10738 -2.84643,-0.0305 -5.71956,-0.0564 -8.52539,0.44989 -0.91023,0.16423 -1.746684,0.6071 -2.671342,0.71585 -0.95581,0.11241 -1.950268,-0.007 -2.871753,0.31578 -0.985482,0.34573 -1.952646,0.74256 -2.908108,1.1632 -0.599,0.26371 -1.21516,0.49729 -1.781799,0.82603 -0.671023,0.3893 -1.2645,0.91078 -1.991,1.2072 -2.974898,1.21379 -6.222024,1.60743 -9.160068,2.91865 -0.446704,0.19936 -0.891877,0.40753 -1.294356,0.69042 -0.98694,0.6937 -1.929658,1.44674 -2.871908,2.199 -0.186407,0.14882 -0.42477,0.19711 -0.646327,0.27019 -0.908681,0.29972 -1.840703,0.60858 -2.606396,1.20538 -0.551917,0.43018 -1.027772,0.98321 -1.67915,1.26499 -0.449391,0.1944 -0.969193,0.27153 -1.344109,0.60066 -0.255506,0.2243 -0.326595,0.57849 -0.381005,0.89795 -0.09501,0.55785 -0.116368,1.15316 -0.420899,1.6508 -0.14562,0.23796 -0.391166,0.37976 -0.621349,0.52487 -1.033937,0.65181 -1.961542,1.47621 -3.08656,1.98098 -0.376617,0.16898 -0.87267,0.18216 -1.131479,0.50733 -0.104241,0.13097 -0.03995,0.3234 -0.01838,0.47616 0.128782,0.91236 0.393937,1.81694 0.368432,2.74066 -0.0059,0.21448 0.06677,0.51297 -0.119835,0.64104 -0.188108,0.1291 -0.430471,-0.0309 -0.610894,-0.11167 -0.565747,-0.25336 -1.050267,-0.64908 -1.590199,-0.94843"
       id="path71"
       inkscape:path-effect="#path-effect73"
       inkscape:original-d="m 143.65408,244.20307 c -1.18262,-0.0566 -2.36421,-0.14173 -3.54785,-0.16988 -0.2107,-0.005 -0.26606,0.34009 -0.4484,0.44579 -0.39893,0.23126 -1.5476,0.58275 -1.88798,0.57318 -2.03153,-0.0571 -4.0516,0.0166 -6.06518,0.31843 -1.14599,0.1718 -2.36832,-0.18156 -3.51639,-0.1486 -0.21557,0.006 -3.3141,0.52731 -3.49279,0.46703 -0.23819,-0.0804 -0.39918,-0.32247 -0.63719,-0.40335 -1.32284,-0.44951 -2.84383,0.10929 -4.17718,0.19107 -1.30736,0.0802 -2.54351,-0.15619 -3.82318,-0.19107 -0.85741,-0.0234 -0.99227,1.20893 -1.86439,1.18881 -4.4064,-0.10164 -8.95014,-0.31023 -13.33395,0.31844 -0.8498,0.12186 -1.59973,0.5168 -2.430797,0.67931 -1.008432,0.19721 -2.03759,0.0404 -3.067978,0.31843 -0.696849,0.18804 -3.928819,1.54316 -4.743582,1.97427 -0.698117,0.36939 -1.243264,0.91332 -2.005992,1.23127 -3.243291,1.35198 -6.93103,1.74848 -10.053558,3.33291 -0.802894,0.4074 -3.30641,2.54148 -3.563585,2.63236 -0.916218,0.32377 -1.802869,0.5485 -2.643191,1.06143 -0.717121,0.43772 -1.251071,1.11534 -1.982387,1.50724 -0.418243,0.22413 -1.328952,0.39314 -1.604794,0.80669 -0.482184,0.72291 -0.09193,2.20628 -1.085593,2.80218 -1.28088,0.76816 -2.156063,1.6812 -3.587189,2.22902 -0.06465,0.0249 -0.80546,0.30271 -0.873199,0.42458 -0.142563,0.25646 0.861719,4.06085 0.0944,3.86363 -0.745879,-0.19172 -1.356079,-0.73044 -2.029592,-1.10392" />
  </g>
</svg>
