<?xml version="1.0" encoding="UTF-8" standalone="no"?>
<!-- Created with Inkscape (http://www.inkscape.org/) -->

<svg
   width="353.56799mm"
   height="264.16mm"
   viewBox="0 0 353.56799 264.16"
   version="1.1"
   id="svg5"
   inkscape:version="1.1.2 (08b2f3d93c, 2022-04-05)"
   sodipodi:docname="Submucosa.svg"
   xmlns:inkscape="http://www.inkscape.org/namespaces/inkscape"
   xmlns:sodipodi="http://sodipodi.sourceforge.net/DTD/sodipodi-0.dtd"
   xmlns="http://www.w3.org/2000/svg"
   xmlns:svg="http://www.w3.org/2000/svg">
  <sodipodi:namedview
     id="namedview7"
     pagecolor="#ffffff"
     bordercolor="#666666"
     borderopacity="1.0"
     inkscape:pageshadow="2"
     inkscape:pageopacity="0.0"
     inkscape:pagecheckerboard="0"
     inkscape:document-units="mm"
     showgrid="false"
     inkscape:zoom="0.47393378"
     inkscape:cx="702.6298"
     inkscape:cy="499.01486"
     inkscape:window-width="1366"
     inkscape:window-height="704"
     inkscape:window-x="0"
     inkscape:window-y="27"
     inkscape:window-maximized="1"
     inkscape:current-layer="layer2" />
  <defs
     id="defs2">
    <inkscape:path-effect
       effect="simplify"
       id="path-effect85"
       is_visible="true"
       lpeversion="1"
       steps="1"
       threshold="0.000408163"
       smooth_angles="360"
       helper_size="0"
       simplify_individual_paths="false"
       simplify_just_coalesce="false" />
    <inkscape:path-effect
       effect="simplify"
       id="path-effect81"
       is_visible="true"
       lpeversion="1"
       steps="1"
       threshold="0.000408163"
       smooth_angles="360"
       helper_size="0"
       simplify_individual_paths="false"
       simplify_just_coalesce="false" />
    <inkscape:path-effect
       effect="simplify"
       id="path-effect77"
       is_visible="true"
       lpeversion="1"
       steps="1"
       threshold="0.000408163"
       smooth_angles="360"
       helper_size="0"
       simplify_individual_paths="false"
       simplify_just_coalesce="false" />
    <inkscape:path-effect
       effect="simplify"
       id="path-effect73"
       is_visible="true"
       lpeversion="1"
       steps="1"
       threshold="0.000408163"
       smooth_angles="360"
       helper_size="0"
       simplify_individual_paths="false"
       simplify_just_coalesce="false" />
    <inkscape:path-effect
       effect="simplify"
       id="path-effect69"
       is_visible="true"
       lpeversion="1"
       steps="1"
       threshold="0.000408163"
       smooth_angles="360"
       helper_size="0"
       simplify_individual_paths="false"
       simplify_just_coalesce="false" />
    <inkscape:path-effect
       effect="simplify"
       id="path-effect65"
       is_visible="true"
       lpeversion="1"
       steps="1"
       threshold="0.000408163"
       smooth_angles="360"
       helper_size="0"
       simplify_individual_paths="false"
       simplify_just_coalesce="false" />
    <inkscape:path-effect
       effect="simplify"
       id="path-effect61"
       is_visible="true"
       lpeversion="1"
       steps="1"
       threshold="0.000408163"
       smooth_angles="360"
       helper_size="0"
       simplify_individual_paths="false"
       simplify_just_coalesce="false" />
    <inkscape:path-effect
       effect="simplify"
       id="path-effect57"
       is_visible="true"
       lpeversion="1"
       steps="1"
       threshold="0.000408163"
       smooth_angles="360"
       helper_size="0"
       simplify_individual_paths="false"
       simplify_just_coalesce="false" />
    <clipPath
       clipPathUnits="userSpaceOnUse"
       id="clipPath239">
      <path
         id="path241"
         style="fill:#ff0000;fill-opacity:1;fill-rule:nonzero;stroke:none;stroke-width:0.264583"
         d="m 80.496378,142.98765 c 0,16.65204 -16.65204,49.95613 0,49.95613 17.100764,0 60.249852,14.57317 51.302292,0 -0.29445,-0.47958 -0.20575,-1.32673 -0.73432,-1.51567 -0.0539,-0.0193 0.0239,0.14237 0.0338,0.19598 0.0183,0.0995 0.11868,0.34036 0.11748,0.33811 -0.10316,-0.19259 -0.0795,-0.47684 -0.25926,-0.60123 -0.16228,-0.11229 -0.35247,-0.17173 -0.52648,-0.26496 -0.74119,-0.39712 -1.48684,-0.90507 -1.88222,-1.63984 -0.20882,-0.38807 -0.5376,-0.71766 -0.63201,-1.16478 -0.0358,-0.16946 -0.0185,-0.34484 -0.0504,-0.51369 -0.0273,-0.14485 -0.0995,-0.27192 -0.13338,-0.41729 -0.033,-0.14155 0.0745,-0.38114 -0.0602,-0.43074 -0.15718,-0.0579 -0.11247,-0.26307 -0.13688,-0.39499 -0.0211,-0.11403 -0.0213,-0.23634 -0.0663,-0.3428 -0.10055,-0.23784 -0.1525,-0.49174 -0.16812,-0.74985 -0.02,-0.33041 -0.0693,-0.65782 -0.09,-0.98873 -0.0148,-0.23617 0.0653,-0.94107 0.0492,-0.70599 -0.011,0.16078 -0.0346,0.3217 -0.004,0.48549 0.0416,0.21979 0.0996,0.88453 0.11406,0.6613 0.006,-0.0955 0.0152,-0.38141 0.0318,-0.29219 0.0309,0.16627 -0.0266,0.32892 5.5e-4,0.49804 0.0195,0.12166 0.0674,0.48067 0.0901,0.35847 0.12984,-0.69668 0.57087,-1.27808 0.84434,-1.92155 0.0705,-0.16593 0.0638,0.1135 0.073,0.1827 0.16922,1.2756 -0.48528,3.11544 0.59833,3.81263 0.17978,0.11567 0.42836,0.13212 0.6031,-0.004 0.28068,-0.21883 0.42397,-0.56338 0.53602,-0.88938 0.31808,-0.92543 0.47115,-1.89593 0.6645,-2.85234 0.17219,-0.85175 0.29465,-1.72663 0.63313,-2.53045 0.12556,-0.29818 0.26712,-0.62412 0.55152,-0.80354 0.20758,-0.13096 0.4728,-0.0597 0.65937,0.0754 0.39277,0.2844 0.67926,0.6886 0.92224,1.10051 0.18883,0.32011 0.41602,0.61911 0.57671,0.9542 0.12159,0.25355 0.14365,0.53864 0.18976,0.81232 0.0413,0.24545 0.10288,0.48859 0.1428,0.73338 0.0259,0.15857 0.007,0.32907 0.0596,0.47983 0.058,0.16731 -0.0121,0.41373 0.13431,0.51341 0.5071,0.34528 1.00519,0.70398 1.48676,1.08447 0.13425,0.10607 0.51892,0.44454 0.40046,0.32109 -0.0361,-0.0376 -0.16584,-0.18797 -0.0495,-0.0857 0.0473,0.0416 0.20096,0.20731 0.17106,0.18331 -0.063,-0.0506 -0.16411,-0.14925 -0.06,-0.0274 0.36259,0.42454 0.68163,0.8833 0.98593,1.35565 0.10492,0.16286 0.11951,0.34851 0.1626,0.52958 0.0399,0.16768 0.22608,0.21871 0.33913,0.32988 0.0492,0.0484 0.27754,0.14332 0.19937,0.15925 -0.0866,0.0176 -0.29549,-0.13958 -0.13012,-0.0227 0.13808,0.0976 0.46563,0.44946 0.41945,0.28643 -0.0157,-0.0553 -0.25866,-0.18777 -0.0879,-0.0818 0.15585,0.0968 -0.20983,-0.23754 -0.0424,-0.0683 0.0944,0.0954 0.21057,0.15706 0.33036,0.21626 0.13093,0.0647 0.26221,0.25315 0.39435,0.19095 0.15496,-0.0729 0.43719,0.19306 0.43719,0.0552 0,-15.51995 15.51995,-46.55978 0,-46.55986 -19.7138,-1e-4 -39.42759,-2e-4 -59.141392,-3e-4 z m 48.511762,44.54457 c -0.35395,-0.21901 -0.55952,-0.59998 -0.82499,-0.91063 -0.0577,-0.0675 -0.18372,-0.30149 -0.18077,-0.2646 0.0111,0.13946 0.076,0.55295 0.0136,0.41874 -0.0736,-0.15828 -0.0424,0.13506 -0.0689,0.19905 -0.07,0.16891 0.0822,0.26751 0.17146,0.38891 0.27188,0.36984 0.89861,0.74192 0.72815,1.16761 -0.028,0.0699 -0.16659,-0.10371 -0.20952,-0.14989 -0.27376,-0.29449 -0.66453,-1.35829 -0.7328,-0.95869 -0.0304,0.17776 -0.0118,0.35992 0.0727,0.51949 0.21036,0.3973 0.48753,0.75507 0.7049,1.15099 0.0705,0.12841 0.29796,0.23157 0.32411,0.014 0.0627,-0.52182 0.0442,-1.05209 0.002,-1.57497 z m -1.0542,0.36484 c -0.0354,-0.0678 -0.11069,-0.19255 -0.0687,-0.0455 0.0989,0.34678 0.34562,1.39325 0.32268,1.0332 -0.008,-0.13077 -0.0555,-0.26801 -0.0905,-0.39822 -0.0529,-0.19693 -0.10801,-0.39332 -0.16343,-0.58952 z m -0.46147,-2.43862 c -0.0343,0.14026 -0.0219,0.28639 0.0484,0.41777 0.0811,0.15165 0.25151,0.62588 0.24512,0.45401 -0.005,-0.12806 0.059,-0.25939 -0.0127,-0.38234 -0.0948,-0.16234 -0.19956,-0.31971 -0.28083,-0.48944 z m 0.006,0.33642 c -0.0677,-0.16982 -0.0352,0.1003 -0.0264,0.16912 0.022,0.1706 0.0225,0.34588 0.10854,0.50033 0.0379,0.068 0.12376,-0.0805 0.0939,0.12374 -0.0107,0.0734 0.0684,0.27031 0.0664,0.24319 -0.0129,-0.17659 0.0745,-0.36281 -0.0311,-0.52757 -0.0997,-0.1556 -0.17465,-0.32859 -0.21139,-0.50881 z m -0.0429,0.0289 c 0.004,-0.0764 -0.0563,-0.30722 -0.0347,-0.11932 0.009,0.0798 0.0361,0.28589 0.0358,0.27974 -0.002,-0.0534 -0.003,-0.1071 -0.001,-0.16042 z m 0.002,0.18345 c -0.008,0.0742 0.0527,0.35717 0.0219,0.15173 -0.008,-0.0505 -0.015,-0.10127 -0.0219,-0.15173 z m -0.0755,-1.03973 c -0.0206,-0.2167 -0.0133,0.19532 0,0 z m 0.14934,1.53117 c 0.0417,0.14709 0.15524,0.58657 0.15196,0.43698 -0.004,-0.17346 -0.12168,-0.32013 -0.15515,-0.48991 -0.0135,-0.0685 0.003,0.0481 0.003,0.0529 z m 6.59495,-3.4587 c 0.10062,0.2096 0.28885,0.87874 0.25528,0.64854 -0.0341,-0.23376 -0.13645,-0.44697 -0.25528,-0.64854 z m 0.21497,1.04903 c -0.0147,0.0346 0.0287,0.085 0,0 z m 0.0904,0.16123 c -0.002,0.0636 0.13809,0.0153 0.0155,0.0606 -0.0195,0.007 0.005,-0.0669 -0.0155,-0.0606 z m -1.62988,0.10025 c 0.0514,0.0116 0.30485,0.0582 0.20137,0.0386 -0.0672,-0.0127 -0.13427,-0.0257 -0.20137,-0.0386 z m -5.11803,2.50424 c -0.0391,0.0617 0.0413,-0.0697 0.0258,0.0552 -0.002,0.0179 -0.0245,-0.0765 -0.0258,-0.0552 z m 0.003,0.11266 c 0.0109,0.0521 0.0862,0.19939 0.0311,0.0728 -0.0105,-0.0242 -0.0213,-0.0485 -0.0311,-0.0728 z m 9.45576,0.30075 c 0.11617,0.23231 0.45939,0.93034 0.3729,0.68518 -0.0543,-0.15392 -0.10398,-0.30898 -0.19918,-0.44565 -0.0563,-0.0808 -0.11017,-0.16501 -0.17372,-0.23953 z m 0.57102,1.53841 c -0.0227,0.31476 -0.41133,0.95515 -0.0961,0.94154 0.10077,-0.004 0.16158,-0.003 0.16948,-0.13665 0.011,-0.18677 0.0949,-0.38143 0.0388,-0.55993 -0.0271,-0.0861 -0.0716,-0.16488 -0.11218,-0.24496 z m 0.0667,0.92243 c -0.0444,0.11935 0.27487,-0.033 0.0944,-0.0113 -0.0315,0.004 -0.0629,0.008 -0.0944,0.0113 z m -0.003,0.0496 c -0.10673,0.01 -0.16672,0.0237 -0.17227,0.1597 -0.0106,0.25973 -0.20163,0.76904 0.0597,0.77776 0.0752,0.003 0.0651,-0.21906 0.0721,-0.30508 0.0172,-0.21051 0.0284,-0.42162 0.0404,-0.63238 z m -0.16433,0.032 c 0.0221,-0.12606 -0.18471,-0.0412 -0.26815,-0.0276 -0.19521,0.0318 -0.4125,-0.003 -0.5873,0.0889 -0.0456,0.0241 -0.23875,0.13335 -0.18394,0.12482 0.3476,-0.0541 0.69526,-0.1188 1.03939,-0.18607 z m 1.15187,-0.4749 c 0.0594,0.0481 0.22692,0.19083 0.21828,0.18287 -0.0699,-0.0643 -0.14302,-0.12518 -0.21828,-0.18287 z m -7.95972,0.10748 c -0.0617,0.29082 -0.003,1.18517 -0.0112,0.88729 -0.009,-0.29572 0.002,-0.59207 0.0112,-0.88729 z m 7.24348,0.12403 c 4e-4,0.0603 0.0715,0.19458 0.0209,0.0567 -0.007,-0.0189 -0.0143,-0.0381 -0.0209,-0.0567 z m 0.0455,0.12454 c 0.0167,0.0504 0.24048,-0.0227 0.19156,-0.0181 -0.0639,0.006 -0.12776,0.0115 -0.19156,0.0181 z m 0.007,0.0227 c -0.0349,-0.0694 -0.087,0.0418 0,0 z m -7.36441,0.45372 c -0.0132,0.10109 0.0622,0.38172 0.064,0.33537 0.004,-0.11693 -0.0345,-0.22443 -0.064,-0.33537 z m 2.78639,4.28036 c 0.0753,0.0496 0.11289,0.0808 0.0151,0.0129 0,0 -0.0151,-0.0129 -0.0151,-0.0129 z"
         inkscape:original-d="m 80.496378,142.98765 v 49.95613 h 51.302292 c -0.3275,-0.52521 -0.63676,-1.29919 -0.73432,-1.51567 -0.009,-0.006 -0.018,-0.011 -0.0269,-0.0165 0.0186,0.071 0.0574,0.20321 0.12505,0.42788 0.0213,0.0478 0.089,0.18914 0.0641,0.14315 -0.11836,-0.21844 -0.20577,-0.42253 -0.27027,-0.62167 -0.0244,-0.0153 -0.049,-0.03 -0.0734,-0.0455 -0.0117,-0.009 -0.0238,-0.0168 -0.0357,-0.0253 -0.91693,-0.36437 -1.66051,-1.06104 -2.2996,-1.834 -0.21052,-0.38834 -0.56681,-0.72789 -0.63201,-1.16478 -0.0217,-0.14575 -0.0298,-0.29266 -0.0305,-0.43977 -0.0182,-0.0667 -0.0349,-0.13044 -0.0512,-0.19379 -0.0142,-0.0294 -0.0343,-0.0708 -0.0408,-0.0848 -0.0615,-0.13156 -0.0937,-0.3913 -0.10904,-0.61236 -0.004,-0.0104 -0.008,-0.0207 -0.0124,-0.031 -0.10113,-0.0442 -0.10011,-0.0345 -0.14056,-0.43098 -0.0241,-0.0976 -0.0421,-0.19289 -0.0548,-0.2868 -0.042,-0.10665 -0.0813,-0.21433 -0.11266,-0.32453 -0.0627,-0.22006 -0.0561,-0.45403 -0.0842,-0.6811 2.1e-4,-0.0252 2.7e-4,-0.0337 5.3e-4,-0.0574 -0.0286,-0.17756 -0.049,-0.40277 -0.0718,-0.72554 -0.0113,-0.15898 0.0158,-0.31861 0.0284,-0.47748 0.005,-0.0645 0.0278,-0.25684 0.0248,-0.19224 -0.0308,0.27371 -0.024,0.15782 -0.031,0.34623 0.0719,0.37035 0.1111,0.61161 0.13953,0.79427 0.003,-0.43188 0.0778,-0.37175 0.0119,0.0734 0.0405,0.26353 0.0545,0.36588 0.11058,0.49092 0.10877,-0.61635 0.44058,-1.22438 0.88574,-1.99316 0.15659,1.35648 0.51344,2.70989 0.62993,4.06694 1.85131,1.06579 1.5896,-7.22034 3.26337,-7.14995 0.35958,0.0151 0.80862,0.41556 1.387,1.37769 0.76866,1.27863 0.43497,0.51963 0.8294,2.34508 -5.3e-4,0.0293 -7.9e-4,0.0188 -0.001,0.0413 0.0226,0.13673 0.0391,0.27775 0.0475,0.42633 0.0677,0.18927 0.11565,0.37133 0.14677,0.54881 0.0406,0.0276 0.0816,0.0567 0.12298,0.0873 0.63957,0.42762 1.15923,0.82716 1.76424,1.31826 -0.12254,-0.14082 -0.16192,-0.18805 0.003,-0.0387 0.0454,0.0502 0.18886,0.19373 0.13643,0.15089 -0.0482,-0.0394 -0.092,-0.074 -0.13901,-0.11214 0.29431,0.33822 1.12318,1.27797 1.1529,1.77457 10e-4,0.0204 10e-4,0.0406 0.002,0.061 0.0374,0.0797 0.0733,0.15968 0.10593,0.24081 0.0625,0.0444 0.12416,0.089 0.2558,0.18759 0.0704,0.0528 0.27913,0.14266 0.25012,0.1726 -0.003,0.003 -0.009,0.006 -0.0186,0.008 -0.0515,0.009 -0.13635,-0.0349 -0.20877,-0.0811 0.44055,0.32855 0.53928,0.38235 0.49455,0.32556 -0.18224,-0.1252 -0.24658,-0.14763 -0.031,-0.0341 -0.0385,-0.0403 -0.0974,-0.0959 -0.1571,-0.14986 0.0308,0.0271 0.14163,0.1225 0.19741,0.17105 0.0855,0.0444 0.19319,0.0989 0.35553,0.17725 0.035,0.0168 0.15251,0.0737 0.23306,0.11214 0.0736,-0.0146 0.14703,-0.0297 0.22066,-0.0439 0.0711,0.0376 0.14461,0.0712 0.21653,0.10749 v -46.56822 z m 48.511762,44.54457 c -0.28112,-0.16184 -0.61185,-0.54269 -1.00459,-1.19786 -0.006,0.12065 -0.016,0.24173 -0.0279,0.36277 0.0145,0.0287 0.0252,0.0482 0.0403,0.0786 -0.0133,-0.0229 -0.0273,-0.0452 -0.0414,-0.0677 -0.0141,0.14227 -0.0295,0.2845 -0.0444,0.42685 0.18106,0.19572 0.45879,0.57781 0.89142,1.34565 0.19402,0.34435 -0.61045,-0.52508 -0.81028,-0.86609 -0.0382,-0.0651 -0.0731,-0.12886 -0.10697,-0.19172 -0.006,0.0819 -0.0129,0.16378 -0.016,0.24546 0.0207,0.0723 0.0473,0.16426 0.0656,0.22893 0.31984,0.62771 1.00104,1.85846 1.06505,1.11879 0.0428,-0.49517 0.0315,-0.98967 -0.0109,-1.48363 z m -1.0542,0.36484 c -0.0235,-0.0462 -0.049,-0.0958 -0.0682,-0.13436 -5.3e-4,0.0297 -5.3e-4,0.0592 -5.3e-4,0.0889 0.23182,0.85173 0.56727,1.80598 0.0687,0.0455 z m -0.46147,-2.43862 c -0.0113,0.0643 -0.02,0.12859 -0.0263,0.19327 0.01,0.0496 0.0209,0.0972 0.032,0.14315 0.0719,0.13932 0.16484,0.30441 0.28784,0.53536 0.0111,-0.10429 0.0229,-0.20538 0.0357,-0.30127 -0.17971,-0.30186 -0.27736,-0.45497 -0.32918,-0.57051 z m 0.006,0.33642 c -0.0135,-0.0261 -0.0262,-0.0513 -0.0382,-0.076 -0.002,0.0349 -0.004,0.0698 -0.005,0.10491 0.0247,0.20325 0.0397,0.33541 0.0537,0.46715 0.0541,0.13229 0.10988,0.26397 0.16381,0.39636 -0.002,-0.11974 0.004,-0.15123 0.008,0.0191 0.0202,0.05 0.0398,0.0999 0.0584,0.15038 0.009,-0.13488 0.0229,-0.29008 0.0388,-0.447 -0.0929,-0.14053 -0.17986,-0.28369 -0.23254,-0.44235 -0.0172,-0.0519 -0.0326,-0.11085 -0.0475,-0.1726 z m -0.0429,0.0289 c -0.006,-0.0523 -0.0108,-0.0948 -0.0181,-0.15245 -0.009,-0.02 -0.0179,-0.0398 -0.0263,-0.0594 0.0122,0.12109 0.027,0.25083 0.0465,0.39533 -0.003,-0.0615 -0.004,-0.1229 -0.002,-0.18345 z m 0.002,0.18345 c 0.003,0.0675 0.01,0.13564 0.0191,0.20464 0.006,0.014 0.0114,0.0279 0.0171,0.0418 -0.0129,-0.0847 -0.0257,-0.16872 -0.0362,-0.24649 z m -0.0755,-1.03973 c -0.003,-0.0196 -0.009,-0.0519 -0.0119,-0.0734 -2.7e-4,0.0414 2.6e-4,0.088 0.002,0.13849 0.004,-0.022 0.007,-0.0447 0.0103,-0.0651 z m 0.14934,1.53117 c 0.0343,0.13885 0.0813,0.28218 0.14056,0.43098 0.003,0.001 0.008,0.004 0.0114,0.006 -0.002,-0.0333 -0.003,-0.062 -0.005,-0.0925 -0.0636,-0.14116 -0.12917,-0.30669 -0.15554,-0.41909 0.002,0.0223 0.006,0.0549 0.008,0.0749 z m 6.59495,-3.4587 c 0.10446,0.21778 0.1899,0.43053 0.25528,0.64854 -0.046,-0.26037 -0.11213,-0.39598 -0.25528,-0.64854 z m 0.21497,1.04903 c -0.002,-0.001 -0.005,0.006 -0.007,0.0134 0.006,0.0116 0.0104,0.023 0.016,0.0346 -0.004,-0.0291 -0.006,-0.0465 -0.009,-0.0481 z m 0.0904,0.16123 c 0.004,0.0271 0.007,0.0574 0.01,0.0873 0.006,0.0146 0.0126,0.0294 0.0186,0.0439 -0.008,-0.0507 -0.0175,-0.0938 -0.0284,-0.13126 z m -1.62988,0.10025 c 0.0777,0.0274 0.15267,0.0531 0.22531,0.0775 -0.001,-0.0117 -0.003,-0.0234 -0.004,-0.0351 -0.0481,-0.009 -0.13888,-0.0264 -0.22118,-0.0424 z m -5.11803,2.50424 c 5.3e-4,0.0293 7.9e-4,0.0465 0.001,0.0816 0.0146,0.007 0.0295,0.0138 0.0486,0.0259 3e-5,-5.3e-4 5.3e-4,-0.001 5.3e-4,-0.002 -0.0159,-0.0321 -0.0323,-0.0667 -0.0501,-0.10593 z m 0.003,0.11266 c 0.0172,0.0589 0.0236,0.0827 0.0398,0.13849 2e-5,-0.001 -3e-5,-0.003 0,-0.004 2.7e-4,-0.0102 0.002,-0.0262 0.002,-0.0372 -0.0144,-0.0327 -0.0286,-0.065 -0.0419,-0.0971 z m 9.45576,0.30075 c -0.003,-0.002 -0.001,0.003 0.006,0.017 0.12182,0.22867 0.24832,0.44903 0.3669,0.66818 -0.0326,-0.0963 -0.0661,-0.19208 -0.10025,-0.28784 -0.0148,-0.0415 -0.25268,-0.38552 -0.27285,-0.39739 z m 0.57102,1.53841 c -0.0226,0.31378 -0.0699,0.62859 -0.0961,0.94154 0.0542,-0.007 0.10851,-0.0126 0.16278,-0.0191 0.0142,-0.25347 0.029,-0.49161 0.0455,-0.67748 -0.009,-0.0266 -0.0192,-0.0532 -0.0294,-0.0796 -0.0267,-0.0558 -0.0544,-0.11099 -0.0827,-0.16536 z m 0.0667,0.92243 c -0.001,0.017 -0.002,0.0326 -0.003,0.0496 0.0515,-0.0102 0.10308,-0.0196 0.15451,-0.03 -2.4e-4,-0.0126 -1.9e-4,-0.0253 -5.3e-4,-0.0377 -0.0503,0.006 -0.10057,0.0121 -0.15089,0.0181 z m -0.003,0.0496 c -0.0547,0.0108 -0.10956,0.0214 -0.16433,0.032 -0.0201,0.27268 -0.0217,0.54382 0.0279,0.81184 0.0676,0.36485 0.10216,-0.23128 0.13642,-0.84387 z m -0.16433,0.032 c 0.002,-0.0208 0.003,-0.0417 0.005,-0.0625 -0.26501,0.0331 -0.52963,0.0686 -0.79375,0.10439 -0.0954,0.0129 -0.34573,0.15898 -0.25064,0.14418 0.34785,-0.0541 0.69419,-0.11872 1.03973,-0.18604 z m 1.15187,-0.4749 c 0.0906,0.0784 0.0931,0.0814 0.22841,0.19792 0.002,-2.7e-4 0.003,-7.9e-4 0.005,-0.001 -0.0809,-0.0757 -0.15882,-0.13933 -0.23306,-0.19689 z m -7.95972,0.10748 c -0.007,0.035 -0.0147,0.0699 -0.0212,0.10491 -0.0462,0.30987 -0.0357,0.56032 0.01,0.78238 -0.008,-0.27088 3e-5,-0.56084 0.0114,-0.88729 z m 7.24348,0.12403 c 2.7e-4,0.008 7.9e-4,0.0159 0.001,0.0238 0.0119,0.0304 0.033,0.0867 0.0393,0.10129 0.002,-1.8e-4 0.003,-2.7e-4 0.005,-5.3e-4 -0.007,-0.0213 -0.0261,-0.0725 -0.0455,-0.12454 z m 0.0455,0.12454 c 0.003,0.01 0.007,0.021 0.007,0.0227 0.0706,-0.0143 0.14125,-0.0289 0.21187,-0.0434 -0.0728,0.007 -0.14581,0.0131 -0.21859,0.0207 z m 0.007,0.0227 c -1.3e-4,0.003 -0.004,-0.005 -0.0119,-0.0222 -0.0122,10e-4 -0.0245,0.003 -0.0367,0.004 -6e-5,0.009 -8e-4,0.019 -0.001,0.0284 0.0166,-0.003 0.0331,-0.007 0.0496,-0.0103 z m -7.36441,0.45372 c 7.9e-4,0.0372 7.9e-4,0.0773 0.002,0.11214 0.003,0.0687 0.0264,0.15076 0.0631,0.2403 -0.003,-0.0454 -0.005,-0.0917 -0.007,-0.13798 -0.0183,-0.0699 -0.0381,-0.13941 -0.0584,-0.21446 z m 2.78639,4.28036 c 0.0146,0.01 0.0687,0.0474 0.0894,0.0615 -0.0415,-0.0244 -0.073,-0.0456 -0.0894,-0.0615 z" />
    </clipPath>
    <clipPath
       clipPathUnits="userSpaceOnUse"
       id="clipPath249">
      <path
         id="path251"
         style="fill:#ff0000;fill-opacity:1;fill-rule:nonzero;stroke:none;stroke-width:0.264583"
         d="m 61.119785,104.31611 c 0,48.64216 -48.64216,145.92649 0,145.92649 45.436845,0 136.310535,45.43685 136.310535,0 0,-48.64216 48.64216,-145.92649 0,-145.92649 -45.43684,0 -90.87369,0 -136.310535,0 z m 71.151725,76.06616 c 0.52278,0.0783 0.86363,0.5557 1.12521,0.96716 0.27279,0.42909 0.64857,0.81779 0.79095,1.30574 0.1382,0.47361 0.23033,0.96098 0.30024,1.44987 0.053,0.37073 0.005,0.89659 0.31625,1.10374 0.61166,0.40682 2.24747,1.87114 1.76424,1.31826 -0.31634,-0.36194 -0.33299,-0.40147 4.2e-4,5e-5 0.42971,0.51749 1.22686,0.99643 1.13829,1.67652 -0.0529,0.40605 0.8649,0.81753 0.60986,0.76805 -0.1839,-0.0357 -0.2354,-0.1371 -0.0592,0.0295 0.11874,0.11231 -0.18999,-0.14253 0.1803,0.10834 0.32257,0.21854 -0.1748,-0.20755 0.0659,9e-5 0.2973,0.25644 0.72213,0.23191 1.03396,0.39986 0.6966,0.37519 1.52263,0.59519 2.06133,1.19033 0.73795,0.81526 1.11585,1.87797 1.41413,2.91584 0.42636,1.48351 0.81555,3.03509 0.57072,4.59154 -0.18052,1.14759 -0.81008,2.28832 -1.88022,2.83168 -1.00943,0.51253 -2.25058,0.26746 -3.13195,-0.396 -1.28352,-0.96619 -2.26585,-2.49654 -2.27488,-4.05944 -0.002,-0.38578 -0.26277,-0.56109 -0.60101,-0.71941 -0.50831,-0.23793 -1.89654,-1.19596 -1.44032,-0.86736 0.12938,0.0932 0.76056,0.47718 0.34061,0.19305 -0.17229,-0.11657 -0.62726,-0.43689 -0.58327,-0.39714 0.124,0.11204 0.36777,0.262 0.0764,0.0916 -0.12222,-0.0715 -0.5186,-0.38322 -0.40633,-0.33561 0.19346,0.082 0.82163,0.35492 0.76015,0.31683 -0.63587,-0.39391 -1.36471,-0.62979 -1.91875,-1.15684 -0.29047,-0.27632 -0.59502,-0.52483 -0.80232,-0.88599 -0.25618,-0.44633 -0.32498,-1.78576 -0.65753,-1.39417 -0.0593,0.0698 0.13507,0.87858 0.0601,0.35366 -0.0568,-0.39769 -0.37466,-0.51433 -0.69461,-0.68576 -0.74119,-0.39712 -1.46135,-0.91937 -1.88222,-1.63984 -0.26536,-0.45426 -0.65357,-0.87335 -0.65827,-1.43919 -0.003,-0.36325 0.009,-0.75109 -0.20528,-1.05631 -0.23413,-0.33352 -0.3289,-0.81018 -0.35608,-1.24064 -0.0413,-0.65384 0.0798,-2.61659 -0.0666,-1.96643 -0.0866,0.38449 0.14248,1.52167 0.10853,1.1405 -0.0189,-0.21206 0.12186,-0.40049 0.0304,-0.0753 -0.0451,0.16039 0.0871,0.65777 0.1029,0.58183 0.14621,-0.70081 0.7937,-2.6377 0.87489,-1.9354 0.15765,1.36364 -0.48916,3.26964 0.62993,4.06694 0.3413,0.24316 0.73379,-0.0365 0.90052,-0.3597 0.45502,-0.88207 0.59829,-1.88005 0.79774,-2.842 0.22866,-1.1028 0.32932,-2.26078 0.82683,-3.2795 0.14511,-0.29713 0.3586,-0.67499 0.73795,-0.66905 z m -3.26337,7.14995 c -0.44623,-0.28818 -0.89453,-1.70585 -1.00459,-1.19786 -0.037,0.17082 -0.008,0.36083 -0.0343,0.42702 -0.15589,0.3863 0.20209,0.60796 0.3686,0.91617 0.13584,0.25144 0.58706,0.97282 0.46711,0.86088 -0.34927,-0.32596 -0.81658,-1.58872 -0.9006,-1.11571 -0.0824,0.46408 0.2629,0.84827 0.46779,1.23096 0.1104,0.2062 0.59942,0.90898 0.64686,0.36222 0.0428,-0.49355 0.0314,-0.99058 -0.0108,-1.48368 z m -1.0542,0.36484 c -0.16653,-0.32009 0.0257,0.31309 0.0664,0.42588 0.0443,0.12254 0.19656,0.5646 0.18523,0.51525 -0.0727,-0.31654 -0.16494,-0.62828 -0.25165,-0.94113 z m -0.46147,-2.43862 c -0.12017,0.25719 0.27847,0.86425 0.302,0.79419 0.10423,-0.31041 -0.20879,-0.51937 -0.302,-0.79419 z m 0.006,0.33642 c -0.10125,-0.13349 -0.043,0.37494 0.0105,0.49606 0.0577,0.13076 0.16425,0.17623 0.16859,0.32378 0.007,0.22133 0.004,0.27791 0.0784,0.0268 0.0964,-0.32302 -0.24118,-0.52442 -0.25752,-0.84667 z m -0.0429,0.0289 c -0.0968,-0.63457 0.0242,0.54542 0,0 z m 0.002,0.18345 c 0.003,0.18061 0.0565,0.33229 0.008,0.0594 0,0 -0.008,-0.0594 -0.008,-0.0594 0,0 0,5e-5 0,5e-5 z m -0.0755,-1.03973 c -0.0194,-0.25834 -0.0156,0.23751 0,0 z m 0.14934,1.53117 c 0.016,0.16457 0.48191,0.45333 0.0995,0.23525 -0.026,-0.0148 -0.14723,-0.47049 -0.0995,-0.23525 z m 6.30505,8.12819 c -0.44107,-0.25216 0.41932,0.34544 2.7e-4,2.9e-4 0,0 -2.7e-4,-2.9e-4 -2.7e-4,-2.9e-4 z m 0.2899,-11.58689 c 0.0949,0.17117 0.25274,0.63806 0.24641,0.60112 -0.0371,-0.21646 -0.1376,-0.41299 -0.24641,-0.60112 z m 0.21497,1.04903 c -0.0306,0.0241 0.0513,0.10094 0,0 z m 0.0904,0.16123 c 0.007,0.13133 0.0615,0.21239 0,0 z m -1.62988,0.10025 c 0.16187,0.0854 0.33026,0.0571 0.0626,0.0121 0,0 -0.0625,-0.0121 -0.0625,-0.0121 0,0 -1.3e-4,0 -1.3e-4,0 z m -5.11803,2.50424 c -0.0159,0.17553 0.11562,0.13979 0,0 z m 0.003,0.11266 c 0.0451,0.18026 0.0649,0.15037 0,0 z m 9.45576,0.30075 c 0.0917,0.17133 0.36195,0.67078 0.34829,0.61304 -0.0557,-0.2356 -0.20378,-0.42565 -0.34829,-0.61304 z m 0.57102,1.53841 c 0.0292,0.28582 -0.18397,1.07298 -0.0147,0.9318 0.1616,-0.13482 0.16183,-0.71543 0.0147,-0.9318 z m 0.0667,0.92243 c 0.0383,0.13917 0.28948,-0.0934 9e-5,0 0,0 -9e-5,0 -9e-5,0 z m -0.003,0.0496 c -0.3379,0.0699 -0.40089,0.93444 -0.12413,0.90122 0.13071,-0.0157 0.0818,-0.61656 0.12091,-0.8439 0,0 0.003,-0.0574 0.003,-0.0574 0,0 1e-5,3e-5 1e-5,3e-5 z m -0.16433,0.032 c -0.16166,-0.11082 -0.6307,-0.0236 -0.88153,0.0719 -0.22645,0.0863 -0.19421,0.12125 0.0377,0.0826 0.2819,-0.0469 0.56451,-0.0999 0.84388,-0.15458 z m 1.15187,-0.4749 c 0.0841,0.0773 0.44904,0.12531 0.11438,0.0917 -0.0479,-0.005 -0.0656,-0.0877 -0.11438,-0.0917 z m -7.95972,0.10748 c -0.0726,0.24612 -0.0105,0.92956 -0.0125,0.83627 -0.006,-0.27875 0.004,-0.55804 0.0125,-0.83627 z m 7.24348,0.12403 c 0.0233,0.12562 0.0739,0.16712 0,0 z m 0.0455,0.12454 c 0.11043,0.0364 0.32236,-0.0558 0.0549,-0.005 0,0 -0.0546,0.005 -0.0546,0.005 0,0 -2.8e-4,0 -2.8e-4,0 z m 0.007,0.0227 c -0.0337,-0.0904 -0.0989,0.0643 0,0 z m -7.36441,0.45372 c -0.0295,0.16347 0.13752,0.50873 0.0441,0.16202 -0.0146,-0.054 -0.0302,-0.10841 -0.0441,-0.16202 z m 5.08858,4.82193 c -0.0194,0.17149 0.2327,0.57352 0.0879,0.21346 -0.0285,-0.0709 -0.0563,-0.14564 -0.0879,-0.21346 z m 2.00659,1.53583 c 0.008,0.0207 0.0417,-0.018 0,0 z"
         inkscape:original-d="M 61.119785,104.31611 V 250.2426 H 197.43032 V 104.31611 Z m 71.151725,76.06616 c 0.35958,0.0151 0.80863,0.41556 1.387,1.37769 0.76866,1.27863 0.43497,0.51963 0.8294,2.34508 -5.3e-4,0.0293 -7.9e-4,0.0188 -0.001,0.0413 0.0226,0.13673 0.0391,0.27775 0.0475,0.42633 0.0676,0.18927 0.11565,0.37133 0.14677,0.54881 0.0406,0.0276 0.0816,0.0567 0.12298,0.0873 0.63957,0.42762 1.15923,0.82716 1.76424,1.31826 -0.12254,-0.14082 -0.16192,-0.18805 0.003,-0.0387 0.0454,0.0502 0.18886,0.19373 0.13643,0.15089 -0.0482,-0.0394 -0.092,-0.074 -0.13901,-0.11214 0.29431,0.33822 1.12318,1.27797 1.1529,1.77457 0.001,0.0204 0.001,0.0406 0.002,0.061 0.0374,0.0797 0.0733,0.15968 0.10593,0.24081 0.0625,0.0444 0.12416,0.089 0.2558,0.18759 0.0704,0.0528 0.27913,0.14266 0.25012,0.1726 -0.003,0.003 -0.009,0.006 -0.0186,0.008 -0.0515,0.009 -0.13636,-0.0349 -0.20878,-0.0811 0.44055,0.32855 0.53928,0.38235 0.49455,0.32556 -0.18224,-0.1252 -0.24658,-0.14763 -0.031,-0.0341 -0.0385,-0.0403 -0.0974,-0.0959 -0.1571,-0.14986 0.0308,0.0271 0.14163,0.1225 0.19741,0.17105 0.0855,0.0444 0.19319,0.0989 0.35553,0.17725 0.035,0.0168 0.15251,0.0737 0.23306,0.11214 0.0736,-0.0146 0.14703,-0.0297 0.22066,-0.0439 0.61999,0.32782 1.27568,0.59534 1.85984,0.98341 1.17966,0.78368 1.83661,3.46557 2.13423,4.71702 h 5.3e-4 c 1.66225,6.98964 -5.37052,8.68644 -7.05538,1.70222 -0.0757,-0.31366 -0.12313,-0.53034 -0.16743,-0.72399 -0.11075,-0.0692 -0.22233,-0.13626 -0.33745,-0.19016 -0.56986,-0.25583 -1.11456,-0.55616 -1.5999,-0.94052 0.32451,0.21633 0.63725,0.40904 0.49041,0.29973 -0.0854,-0.0636 -0.43972,-0.30884 -0.76636,-0.53382 0.0885,0.0804 0.17917,0.15762 0.27233,0.23151 -0.2914,-0.19437 -0.59023,-0.40618 -0.57722,-0.4408 -0.0168,-0.0115 -0.0472,-0.0327 -0.0615,-0.0424 0.0193,0.0113 0.0465,0.0252 0.0698,0.0377 0.0146,-0.002 0.0473,0.007 0.10387,0.03 0.0164,0.0165 0.0331,0.0323 0.0496,0.0486 0.34426,0.16804 0.81041,0.35717 0.60668,0.23823 -1.19468,-0.69752 -1.20242,-0.44987 -2.21898,-1.44023 -0.44135,-0.20707 -1.01925,-1.68528 -1.15962,-1.99677 -0.009,-0.006 -0.018,-0.011 -0.0269,-0.0165 0.0186,0.071 0.0574,0.20321 0.12505,0.42788 0.0213,0.0478 0.089,0.18914 0.0641,0.14315 -0.11836,-0.21844 -0.20577,-0.42253 -0.27027,-0.62167 -0.0244,-0.0153 -0.049,-0.03 -0.0734,-0.0455 -0.0117,-0.009 -0.0238,-0.0168 -0.0357,-0.0253 -0.91693,-0.36437 -1.66051,-1.06104 -2.2996,-1.834 -0.21052,-0.38834 -0.56681,-0.72789 -0.63201,-1.16478 -0.0217,-0.14575 -0.0298,-0.29266 -0.0305,-0.43977 -0.0182,-0.0667 -0.035,-0.13044 -0.0512,-0.19379 -0.0142,-0.0294 -0.0343,-0.0708 -0.0408,-0.0848 -0.0615,-0.13156 -0.0937,-0.3913 -0.10904,-0.61236 -0.004,-0.0104 -0.008,-0.0207 -0.0124,-0.031 -0.10113,-0.0442 -0.10011,-0.0345 -0.14056,-0.43098 -0.0241,-0.0976 -0.0421,-0.19289 -0.0548,-0.2868 -0.042,-0.10665 -0.0813,-0.21433 -0.11266,-0.32453 -0.0627,-0.22006 -0.0561,-0.45403 -0.0842,-0.6811 2.1e-4,-0.0252 2.7e-4,-0.0337 5.3e-4,-0.0574 -0.0286,-0.17756 -0.049,-0.40277 -0.0718,-0.72554 -0.0113,-0.15898 0.0158,-0.31861 0.0284,-0.47748 0.005,-0.0645 0.0278,-0.25684 0.0248,-0.19224 -0.0308,0.27371 -0.024,0.15782 -0.031,0.34623 0.0719,0.37035 0.1111,0.61161 0.13953,0.79427 0.003,-0.43188 0.0778,-0.37175 0.0119,0.0734 0.0405,0.26353 0.0545,0.36588 0.11058,0.49092 0.10877,-0.61635 0.44058,-1.22438 0.88574,-1.99316 0.15659,1.35648 0.51344,2.70989 0.62993,4.06694 1.85131,1.06579 1.5896,-7.22034 3.26337,-7.14995 z m -3.26337,7.14995 c -0.28112,-0.16184 -0.61185,-0.54269 -1.00459,-1.19786 -0.006,0.12065 -0.016,0.24173 -0.0279,0.36277 0.0145,0.0287 0.0252,0.0482 0.0403,0.0786 -0.0133,-0.0229 -0.0273,-0.0452 -0.0414,-0.0677 -0.0141,0.14227 -0.0295,0.2845 -0.0444,0.42685 0.18106,0.19572 0.45879,0.57781 0.89142,1.34565 0.19402,0.34435 -0.61045,-0.52508 -0.81028,-0.86609 -0.0382,-0.0651 -0.0731,-0.12886 -0.10697,-0.19172 -0.006,0.0819 -0.0129,0.16378 -0.016,0.24546 0.0207,0.0723 0.0473,0.16426 0.0656,0.22893 0.31984,0.62771 1.00104,1.85846 1.06505,1.11879 0.0428,-0.49517 0.0315,-0.98967 -0.0109,-1.48363 z m -1.0542,0.36484 c -0.0235,-0.0462 -0.049,-0.0958 -0.0682,-0.13436 -5.3e-4,0.0297 -5.3e-4,0.0592 -5.3e-4,0.0889 0.23182,0.85173 0.56727,1.80598 0.0687,0.0455 z m -0.46147,-2.43862 c -0.0113,0.0643 -0.02,0.12859 -0.0263,0.19327 0.01,0.0496 0.0209,0.0972 0.032,0.14315 0.0719,0.13932 0.16484,0.30441 0.28784,0.53536 0.0111,-0.10429 0.0229,-0.20538 0.0357,-0.30127 -0.17971,-0.30186 -0.27736,-0.45497 -0.32918,-0.57051 z m 0.006,0.33642 c -0.0135,-0.0261 -0.0262,-0.0513 -0.0382,-0.076 -0.002,0.0349 -0.004,0.0698 -0.005,0.10491 0.0247,0.20325 0.0397,0.33541 0.0537,0.46715 0.0541,0.13229 0.10988,0.26397 0.16381,0.39636 -0.002,-0.11974 0.004,-0.15123 0.008,0.0191 0.0202,0.05 0.0398,0.0999 0.0584,0.15038 0.009,-0.13488 0.0229,-0.29008 0.0388,-0.447 -0.0929,-0.14053 -0.17986,-0.28369 -0.23254,-0.44235 -0.0172,-0.0519 -0.0326,-0.11085 -0.0475,-0.1726 z m -0.0429,0.0289 c -0.006,-0.0523 -0.0108,-0.0948 -0.0181,-0.15245 -0.009,-0.02 -0.0179,-0.0398 -0.0263,-0.0594 0.0122,0.12109 0.027,0.25083 0.0465,0.39533 -0.003,-0.0615 -0.004,-0.1229 -0.002,-0.18345 z m 0.002,0.18345 c 0.003,0.0675 0.01,0.13564 0.0191,0.20464 0.006,0.014 0.0114,0.0279 0.0171,0.0418 -0.0129,-0.0847 -0.0257,-0.16872 -0.0362,-0.24649 z m -0.0755,-1.03973 c -0.003,-0.0196 -0.009,-0.0519 -0.0119,-0.0734 -2.7e-4,0.0414 2.6e-4,0.088 0.002,0.13849 0.004,-0.022 0.007,-0.0447 0.0103,-0.0651 z m 0.14934,1.53117 c 0.0343,0.13885 0.0813,0.28218 0.14056,0.43098 0.003,0.001 0.008,0.004 0.0114,0.006 -0.002,-0.0333 -0.003,-0.062 -0.005,-0.0925 -0.0636,-0.14116 -0.12917,-0.30669 -0.15554,-0.41909 0.002,0.0223 0.006,0.0549 0.008,0.0749 z m 6.30505,8.12819 c -0.0569,-0.0278 -0.107,-0.0534 -0.15348,-0.0786 -0.005,5.3e-4 -0.007,0.002 -0.008,0.005 0.083,0.0567 0.18395,0.12598 0.30489,0.20929 -0.0484,-0.044 -0.0962,-0.0893 -0.14314,-0.1354 z m 0.2899,-11.58689 c 0.10446,0.21778 0.1899,0.43053 0.25528,0.64854 -0.046,-0.26037 -0.11213,-0.39598 -0.25528,-0.64854 z m 0.21497,1.04903 c -0.002,-0.001 -0.005,0.006 -0.007,0.0134 0.006,0.0116 0.0104,0.023 0.016,0.0346 -0.004,-0.0291 -0.006,-0.0465 -0.009,-0.0481 z m 0.0904,0.16123 c 0.004,0.0271 0.007,0.0574 0.01,0.0873 0.006,0.0146 0.0126,0.0294 0.0186,0.0439 -0.008,-0.0507 -0.0175,-0.0938 -0.0284,-0.13126 z m -1.62988,0.10025 c 0.0777,0.0274 0.15267,0.0531 0.22531,0.0775 -0.001,-0.0117 -0.003,-0.0234 -0.004,-0.0351 -0.0481,-0.009 -0.13888,-0.0264 -0.22118,-0.0424 z m -5.11803,2.50424 c 5.3e-4,0.0293 7.9e-4,0.0465 0.001,0.0816 0.0146,0.007 0.0295,0.0138 0.0486,0.0259 3e-5,-5.3e-4 5.3e-4,-0.001 5.3e-4,-0.002 -0.0159,-0.0321 -0.0323,-0.0667 -0.0501,-0.10593 z m 0.003,0.11266 c 0.0172,0.0589 0.0236,0.0827 0.0398,0.13849 2e-5,-0.001 -3e-5,-0.003 0,-0.004 2.7e-4,-0.0102 0.002,-0.0262 0.002,-0.0372 -0.0144,-0.0327 -0.0286,-0.065 -0.0419,-0.0971 z m 9.45576,0.30075 c -0.003,-0.002 -0.001,0.003 0.006,0.017 0.12182,0.22867 0.24832,0.44903 0.3669,0.66818 -0.0326,-0.0963 -0.0661,-0.19208 -0.10025,-0.28784 -0.0148,-0.0415 -0.25268,-0.38552 -0.27285,-0.39739 z m 0.57102,1.53841 c -0.0226,0.31378 -0.0699,0.62859 -0.0961,0.94154 0.0542,-0.007 0.10851,-0.0126 0.16278,-0.0191 0.0142,-0.25347 0.029,-0.49161 0.0455,-0.67748 -0.009,-0.0266 -0.0192,-0.0532 -0.0294,-0.0796 -0.0267,-0.0558 -0.0544,-0.11099 -0.0827,-0.16536 z m 0.0667,0.92243 c -0.001,0.017 -0.002,0.0326 -0.003,0.0496 0.0515,-0.0102 0.10308,-0.0196 0.15451,-0.03 -2.4e-4,-0.0126 -1.9e-4,-0.0253 -5.3e-4,-0.0377 -0.0503,0.006 -0.10057,0.0121 -0.15089,0.0181 z m -0.003,0.0496 c -0.0547,0.0108 -0.10956,0.0214 -0.16433,0.032 -0.0201,0.27268 -0.0217,0.54382 0.0279,0.81184 0.0676,0.36485 0.10216,-0.23128 0.13642,-0.84387 z m -0.16433,0.032 c 0.002,-0.0208 0.003,-0.0417 0.005,-0.0625 -0.26501,0.0331 -0.52963,0.0686 -0.79375,0.10439 -0.0954,0.0129 -0.34573,0.15898 -0.25064,0.14418 0.34785,-0.0541 0.69419,-0.11872 1.03973,-0.18604 z m 1.15187,-0.4749 c 0.0906,0.0784 0.0931,0.0814 0.22841,0.19792 0.002,-2.7e-4 0.003,-7.9e-4 0.005,-0.001 -0.0809,-0.0757 -0.15882,-0.13933 -0.23306,-0.19689 z m -7.95972,0.10748 c -0.007,0.035 -0.0147,0.0699 -0.0212,0.10491 -0.0462,0.30987 -0.0357,0.56032 0.01,0.78238 -0.008,-0.27088 3e-5,-0.56084 0.0114,-0.88729 z m 7.24348,0.12403 c 2.7e-4,0.008 7.9e-4,0.0159 0.001,0.0238 0.0119,0.0304 0.033,0.0867 0.0393,0.10129 0.002,-1.8e-4 0.003,-2.7e-4 0.005,-5.3e-4 -0.007,-0.0213 -0.0261,-0.0725 -0.0455,-0.12454 z m 0.0455,0.12454 c 0.003,0.01 0.007,0.021 0.007,0.0227 0.0706,-0.0143 0.14125,-0.0289 0.21187,-0.0434 -0.0728,0.007 -0.14581,0.0131 -0.21859,0.0207 z m 0.007,0.0227 c -1.3e-4,0.003 -0.004,-0.005 -0.0119,-0.0222 -0.0122,10e-4 -0.0245,0.003 -0.0367,0.004 -6e-5,0.009 -8e-4,0.019 -0.001,0.0284 0.0166,-0.003 0.0331,-0.007 0.0496,-0.0103 z m -7.36441,0.45372 c 7.9e-4,0.0372 7.9e-4,0.0773 0.002,0.11214 0.003,0.0687 0.0264,0.15076 0.0631,0.2403 -0.003,-0.0454 -0.005,-0.0917 -0.007,-0.13798 -0.0183,-0.0699 -0.0381,-0.13941 -0.0584,-0.21446 z m 5.08858,4.82193 c -0.006,-0.001 0.004,0.0734 0.0114,0.10025 0.0241,0.0948 0.0792,0.20128 0.14469,0.29456 -0.0418,-0.1151 -0.0893,-0.23879 -0.15244,-0.38912 -0.002,-0.004 -0.003,-0.006 -0.004,-0.006 z m 2.00659,1.53583 c 0.003,0.002 0.007,0.004 0.0103,0.006 0.003,-0.002 0.006,-0.004 0.009,-0.006 -0.007,-3e-5 -0.0131,3e-5 -0.0196,0 z" />
    </clipPath>
    <clipPath
       clipPathUnits="userSpaceOnUse"
       id="clipPath261">
      <path
         id="path263"
         style="fill:#ff0000;fill-opacity:1;fill-rule:nonzero;stroke:none;stroke-width:0.264583"
         d="m -0.60616454,70.643234 c 0,24.963849 -24.96385046,74.891546 0,74.891546 27.20316354,0 81.60948954,27.20316 81.60948954,0 0,-24.96385 24.963845,-74.891546 0,-74.891546 -27.203163,0 -54.406326,0 -81.60948954,0 z M 37.309867,81.128381 c 0.364204,0.03328 0.594717,0.366475 0.764297,0.654558 0.274495,0.466312 0.443509,0.982053 0.642548,1.482152 0.102764,0.258201 0.09772,0.535309 0.168736,0.802683 0.05476,0.20617 -0.03085,0.459703 0.09564,0.63145 0.245292,0.333063 0.468739,0.685938 0.762743,0.977717 0.451407,0.447991 0.998072,0.927915 1.080506,1.573246 0.02313,0.181064 0.08132,0.335572 0.171919,0.498851 0.229557,0.41371 0.271408,0.926031 0.560384,1.302375 0.25339,0.329999 0.41068,0.73735 0.711586,1.025261 0.336285,0.321762 0.568332,0.768522 0.972032,1.004072 0.327649,0.191176 0.608371,0.455027 0.938576,0.640708 0.211698,0.119042 0.406421,0.260839 0.63346,0.355681 0.843495,0.352357 1.625803,0.900253 2.170128,1.630081 0.06657,0.08925 0.383608,0.150759 0.09632,0.203425 -0.04876,0.0089 0.215141,0.200239 0.294728,0.262893 0.229469,0.180647 0.426505,0.4077 0.676383,0.557133 0.604888,0.361737 2.425611,1.307151 1.714038,1.244349 -0.116602,-0.01029 -0.470797,-0.11085 -0.41806,-0.08216 0.216748,0.117914 0.466843,0.129865 0.700858,0.205176 0.952508,0.306536 1.880504,0.710003 2.704038,1.287312 0.325293,0.228035 0.53671,0.718247 0.93334,0.739934 0.473687,0.0259 0.888749,0.296733 1.263244,0.56463 0.452989,0.324049 1.139039,1.617402 1.274067,1.077647 0.0252,-0.100718 0.06887,0.06447 0.132927,0.127682 0.685033,0.676003 1.360631,1.368733 1.936397,2.140993 0.799714,1.07264 1.42007,2.35371 1.431751,3.7172 0.0081,0.94059 -0.38122,1.90464 -1.140545,2.48965 -0.761187,0.58644 -1.799623,0.68928 -2.711816,0.45539 -1.353739,-0.34711 -2.473917,-1.27656 -3.378722,-2.3091 -0.272894,-0.31142 -0.431669,-0.77878 -0.813903,-0.93844 -0.552367,-0.23072 -1.020884,-0.61357 -1.526058,-0.92741 -0.176143,-0.10943 -0.303024,-0.17508 -0.50399,-0.32356 -0.303244,-0.22404 -0.590027,-0.46774 -0.868406,-0.72233 -0.154406,-0.14121 -0.337443,-0.23613 -0.53813,-0.30494 -0.8244,-0.28265 -1.714542,-0.51742 -2.376187,-1.08072 -0.504588,-0.42959 -1.041129,-0.81897 -1.607038,-1.16884 -0.525645,-0.32498 -1.010842,-0.71202 -1.473228,-1.119778 -0.381537,-0.336461 -0.633933,-0.826435 -1.072248,-1.083796 -0.504921,-0.29647 -1.993306,-1.229251 -1.497582,-0.917773 0.06257,0.03931 0.360762,0.21502 0.157439,0.07746 -0.354371,-0.239747 -0.717923,-0.464724 -1.077956,-0.695954 -0.48838,-0.31366 -1.806802,-1.435267 -1.324807,-1.117356 0.101164,0.06672 0.379135,0.31378 0.349848,0.274921 -0.425944,-0.565168 -0.758901,-1.221301 -1.297334,-1.681194 -0.189124,-0.161537 0.08714,0.243932 0.11175,0.319416 0.06428,0.197148 0.464469,0.627232 0.326723,0.529269 -0.254803,-0.181212 -0.478061,-0.408482 -0.690929,-0.637575 -0.161555,-0.173869 -0.373688,-0.324198 -0.46095,-0.544839 -0.121398,-0.306954 -0.255981,-0.618246 -0.468694,-0.869139 -0.07024,-0.08285 0.03003,0.163628 -0.08636,0.003 -0.08297,-0.114499 -0.308962,-0.472561 -0.239203,-0.350786 0.05664,0.09888 0.242371,0.252636 0.279158,0.28967 0.0094,0.0095 0.225443,0.195798 0.322338,0.259773 0.415479,0.274321 0.852883,0.51833 1.312601,0.7155 0.232645,0.09978 0.111589,-0.12196 0.02748,-0.224566 -0.768946,-0.938033 -2.067786,-1.2946 -2.777053,-2.268323 -0.207561,-0.284952 -0.08057,-0.698538 -0.24868,-0.994657 -0.04145,-0.07301 -0.232729,-0.382515 -0.101272,-0.178147 0.05772,0.08973 0.04477,0.213966 0.09829,0.03264 0.06065,-0.205488 -0.101029,-0.331651 -0.227011,-0.460453 -0.207827,-0.212479 -0.443208,-0.406671 -0.591985,-0.670413 -0.169187,-0.299923 -0.416429,-0.544578 -0.6301,-0.813093 -0.165742,-0.208284 -0.707675,-0.786118 -0.498698,-0.622036 0.127147,0.09983 0.267393,0.283057 0.406821,0.414518 0.09669,0.09117 0.264081,0.219734 0.296956,0.25499 0.164867,0.176808 0.402319,0.652994 0.560672,0.469155 0.04239,-0.04922 0.04338,-0.300827 -0.01657,-0.436423 -0.205945,-0.465781 -0.157647,-1.308119 -0.662454,-1.376571 -0.100081,-0.01357 -0.189039,-0.108793 -0.127219,0.04918 0.115179,0.294335 0.500801,0.617844 0.335677,0.88719 -0.07046,0.114936 -0.261735,-0.161256 -0.326389,-0.239928 -0.31257,-0.380342 -0.649012,-0.75903 -0.846887,-1.212638 -0.125863,-0.288528 0.07939,-0.948426 -0.230975,-0.909561 -0.196398,0.02459 -0.122303,-0.279683 -0.137674,-0.436247 -0.05253,-0.535016 -0.283696,-2.112558 -0.07127,-1.612672 0.03724,0.08765 0.02957,0.353015 0.03241,0.511144 0.0019,0.108965 0.01335,0.421987 0.01635,0.393719 0.01317,-0.124156 0.03514,0.20248 0.04678,0.261807 0.04689,0.23895 0.110884,0.498151 0.301268,0.677045 0.295539,0.277702 0.423726,0.671232 0.640661,1.004971 0.1319,0.202919 0.126333,0.603964 0.367289,0.625971 0.348688,0.03185 0.614257,-0.257805 0.796223,-0.51698 0.138079,-0.196667 0.255883,-0.402802 0.343352,-0.631194 0.06489,-0.169424 0.185992,-0.261022 0.270415,-0.434419 0.602603,-1.237693 1.004118,-2.575085 1.719522,-3.753842 0.222928,-0.367314 0.446354,-0.790767 0.849116,-0.979078 0.08297,-0.03879 0.17471,-0.06131 0.266623,-0.05666 z m -2.960026,5.039487 c -0.08565,0.189512 -0.207644,0.359057 -0.250028,0.568777 -0.152523,0.754705 -0.373618,1.520555 -0.308595,2.286862 0.0086,0.101529 0.202909,0.451127 0.0951,0.371896 -0.227855,-0.167458 -0.05215,0.263008 -0.0043,0.370873 0.113529,0.255846 0.305369,0.45879 0.492449,0.668694 0.113224,0.127037 0.06385,-0.209233 0.06944,-0.295155 0.0058,-0.08939 0.01914,-0.419436 0.01039,-0.167242 -0.0048,0.137278 0.04117,0.508527 0.04337,0.473884 0.07261,-1.140148 0.397075,-2.289641 0.175166,-3.427393 -0.05385,-0.276121 -0.115946,-0.559977 -0.257199,-0.805627 0,0 -0.03331,-0.03268 -0.03331,-0.03268 0,0 -0.0325,-0.01294 -0.0325,-0.01294 0,0 6e-6,5e-5 6e-6,5e-5 z m 0.07958,4.320148 c -0.03341,0.106135 0.134768,0.140866 0.03042,0.02937 0,0 -0.03048,-0.02937 -0.03048,-0.02937 0,0 6e-5,0 6e-5,0 z m -2.498037,-4.669481 c -0.138468,0.041 0.130658,0.358614 0.105431,0.292402 -0.03689,-0.09683 -0.07102,-0.19471 -0.105431,-0.292402 z m -0.02635,0.122473 c -0.138593,-0.235969 0.09322,0.29821 0.03658,0.120794 -0.01279,-0.04008 -0.02519,-0.0803 -0.03658,-0.120794 z m 7.355107,-0.880567 c 0.02755,0.0608 0.287605,0.370426 0.271786,0.349792 -0.08984,-0.117181 -0.180693,-0.233606 -0.271786,-0.349792 z m 0.288869,0.37207 c 0.01975,0.03001 0.005,0.0016 0,0 z m 0.0093,0.01188 c 0.06202,0.108131 0.0809,0.133583 -0.0083,0.01685 -0.144699,-0.189447 -0.262942,-0.398384 -0.425508,-0.57189 -0.06341,-0.06768 -0.07644,-0.263394 -0.140638,-0.06213 -0.07586,0.237803 0.170038,0.328261 0.320347,0.454506 0.139743,0.117371 0.518534,0.510078 0.408128,0.364777 -0.05125,-0.06745 -0.10257,-0.134851 -0.154064,-0.202106 z m -0.72812,-1.506368 c 0.03159,0.210688 0.07516,0.847279 0.05942,0.640786 -0.01629,-0.213725 -0.0064,-0.43142 -0.05942,-0.640786 z m 0.03617,0.639754 c -0.0069,0.06108 0.02678,0.03661 0,0 z m 0.0052,0.03721 c -0.0039,0.07147 -0.0056,0.404447 0.02147,0.161631 0.0062,-0.05533 -0.01246,-0.107734 -0.02147,-0.161631 z m 0.0067,-0.02273 c 2.07e-4,0.08759 0.04235,0.213752 0,0 z m -5.23844,5.004864 c 0.04952,0.09464 0.267319,0.318699 0.216003,0.257347 -0.07185,-0.0859 -0.143794,-0.17175 -0.216003,-0.257347 z m 8.252724,0.134874 c 0.07104,0.06869 0.18281,0.165856 0.06184,0.03944 0,0 -0.03198,-0.02563 -0.03198,-0.02563 0,0 -0.02986,-0.01382 -0.02986,-0.01382 z m -7.380943,0.835607 c 0.07031,0.218697 0.300468,0.363772 0.478978,0.503746 0.107063,0.08395 -0.193749,-0.217293 -0.270772,-0.29565 -0.06878,-0.06997 -0.138264,-0.139323 -0.208206,-0.208096 z m 7.03058,8.024317 c 0.08431,0.07207 0.110462,0.05123 0,0 z m 11.411704,0.03824 c -0.484654,0.100195 -1.352818,-0.237161 -1.463993,0.245461 -0.423533,1.8386 -1.010639,3.6429 -1.319831,5.50408 -0.02687,0.16175 0.07424,-0.15572 0.09381,-0.21176 0.565453,-1.6199 1.173843,-3.24438 2.090856,-4.701374 0.182762,-0.290382 0.379292,-0.572743 0.599162,-0.836407 z m -0.682644,6.956681 c 0.109706,0.0685 0.458926,0.0132 0.410504,0.0141 -0.136943,0.002 -0.274112,-0.001 -0.410504,-0.0141 z"
         inkscape:original-d="M -0.60616454,70.643234 V 145.53478 H 81.003325 V 70.643234 Z M 37.309867,81.128381 c 0.388575,0.01799 0.790247,0.488807 1.210262,1.650028 0.08621,0.238342 0.214972,0.465498 0.258382,0.715204 0.02156,0.123981 0.0355,0.248846 0.04651,0.374136 0.08966,0.264192 0.143383,0.537438 0.156065,0.831475 0.05945,0.07835 0.102555,0.133969 0.165364,0.217556 0.03776,0.04739 0.07541,0.09487 0.113689,0.143661 0.04789,0.04438 0.245454,0.2877 0.48369,0.6165 0.554294,0.535043 1.096156,1.217599 1.119828,1.838129 0.289041,0.500052 0.542049,0.990889 0.692981,1.536343 0.249235,0.323294 0.513604,0.687816 0.711586,1.025261 0.31949,0.296642 0.675161,0.638725 0.852659,0.851109 0.03034,0.03629 0.07586,0.096 0.119373,0.152963 0.05235,0.0363 0.128534,0.08293 0.250631,0.152961 0.08012,0.05345 0.162026,0.104069 0.240295,0.160197 0.23523,0.168701 0.345792,0.2524 0.412896,0.305925 0.186316,0.115856 0.357954,0.223618 0.483174,0.308509 0.984842,0.335047 2.013061,1.192448 2.569353,1.976623 -0.580486,-0.380063 0.65074,0.538932 0.812868,0.71882 0.0552,0.03721 0.106942,0.0706 0.13126,0.08061 0.573527,0.335124 1.234453,0.72812 1.623155,1.190625 -0.139411,-0.02748 -0.539178,-0.156464 -0.41806,-0.08216 0.156189,0.09582 0.35397,0.09451 0.528648,0.14986 0.735426,0.233043 1.463474,0.502346 2.140956,0.875917 0.600173,0.342598 1.153699,0.748956 1.668632,1.206645 0.646517,0.003 1.653931,0.799606 2.537311,1.642277 0.02798,-0.06213 0.03284,-0.05898 0.0155,0.01447 0.840801,0.803865 1.565275,1.643505 1.748729,1.866035 4.570161,5.54363 -0.800155,10.1804 -5.494237,4.74131 -0.435597,-0.50473 -0.594408,-0.70825 -0.813903,-0.93844 -0.459145,-0.17933 -0.874363,-0.52077 -1.715659,-1.04748 0.134091,0.15592 -0.760132,-0.54656 -0.794785,-0.57516 -0.23699,-0.19688 -0.443708,-0.4399 -0.714684,-0.58653 -0.91131,-0.28569 -1.701001,-0.68895 -2.568318,-1.13326 -0.828096,-0.70908 -1.198857,-0.93848 -1.392164,-1.05058 -0.46273,-0.25002 -0.873183,-0.56967 -1.277959,-0.90124 -0.560366,-0.427635 -1.032523,-0.917451 -1.501716,-1.437124 -0.873446,-0.513405 -1.717276,-1.061141 -1.497582,-0.917773 0.01342,0.0073 0.359881,0.220162 0.209807,0.114204 -0.278739,-0.196797 -0.566663,-0.379492 -0.849045,-0.571023 -0.0013,-5.3e-4 -0.0024,-0.0013 -0.0036,-0.0021 -0.611209,-0.310219 -1.093875,-0.828125 -1.602486,-1.276927 0.116708,0.09171 0.43824,0.39416 0.349848,0.274921 -1.728155,-2.331408 -1.533639,-1.93212 -1.006655,-1.061951 0.04711,0.0778 0.230153,0.190863 0.147794,0.229442 -0.03229,0.01513 -0.474973,-0.428257 -0.743107,-0.68833 -0.752697,-0.893397 -0.07031,-0.0276 -0.877466,-1.363223 -0.01225,-0.0096 -0.02498,-0.01947 -0.03669,-0.02894 0.01577,0.04782 0.03209,0.101915 0.01085,0.0863 -0.08833,-0.06494 -0.143121,-0.162949 -0.200507,-0.258897 -0.05398,-0.05753 -0.09208,-0.108509 -0.09922,-0.146246 0.03763,0.04464 0.06866,0.09515 0.09922,0.146246 0.04885,0.05206 0.112271,0.110056 0.189654,0.172598 -0.01355,-0.04108 -0.02678,-0.07773 -0.01498,-0.05839 0.02191,0.03589 0.03167,0.05422 0.05168,0.08733 0.65673,0.516843 2.049835,1.261504 1.686203,0.781862 -0.733401,-0.967369 -1.969654,-1.440203 -2.810682,-2.31562 -0.203483,-0.211801 -0.270373,-0.620376 -0.285253,-1.036629 -0.0602,-0.101127 -0.07029,-0.117727 -0.161748,-0.269235 0.05382,0.08101 0.107416,0.161867 0.16123,0.24288 -0.0032,-0.106487 -0.0037,-0.211387 -0.0016,-0.315225 -0.09042,-0.09672 -0.177887,-0.19803 -0.258381,-0.303858 -0.312846,-0.287414 -0.422818,-0.381733 -0.667661,-0.808736 -0.298193,-0.353986 -0.593169,-0.708477 -0.866613,-1.083654 -0.139719,-0.140049 -0.205997,-0.22075 -0.117306,-0.162782 0.03842,0.05488 0.078,0.108855 0.117306,0.162782 0.137422,0.137742 0.345384,0.331555 0.558107,0.518829 -0.01074,-0.02029 -0.01722,-0.03156 -0.02842,-0.05271 0.01204,0.01982 0.02413,0.0396 0.03617,0.05943 0.215037,0.189018 0.428215,0.364689 0.569989,0.457854 -0.0029,-0.05373 -0.0028,-0.10744 0.0036,-0.160714 0.0044,-0.03652 0.01177,-0.106402 0.01654,-0.147793 -0.276296,-0.634873 -0.517456,-1.134541 -0.726569,-1.522905 -0.05574,-0.0074 -0.111774,-0.02273 -0.16795,-0.05116 0.1074,0.263049 0.224393,0.561803 0.353986,0.910537 0.19326,0.520076 -0.833742,-0.764674 -1.092957,-1.25522 -0.166999,-0.316031 -0.228824,-0.672928 -0.288872,-1.029909 -0.03568,-0.0083 -0.06328,-0.01445 -0.08165,-0.02842 -0.0096,0.03599 -0.01479,0.04064 -0.02273,-0.03256 -0.01058,-0.02682 -0.01413,-0.07104 -0.01291,-0.141078 -0.0083,-0.09679 -0.02469,-0.284229 -0.04186,-0.476972 0,0 0,-5.3e-4 0,-5.3e-4 -0.03261,-0.185763 -0.05342,-0.424616 -0.07545,-0.776181 -0.01204,-0.191945 0.02503,-0.766911 0.03979,-0.575159 0.02376,0.30844 0.01257,0.619728 0.03307,0.92811 0.009,-0.251648 0.0037,0.0071 0.09612,0.515731 0.04091,0.110768 0.08875,0.219594 0.128159,0.33073 0.106842,-0.01384 0.292688,0.155868 0.623218,0.847492 0.144624,0.200014 0.313315,0.469204 0.510046,0.834575 0.36708,0.04838 0.72509,-0.342276 1.079521,-0.952913 0.06212,-0.238045 0.130331,-0.388194 0.205671,-0.379822 0.968901,-1.88444 1.918327,-5.087697 2.960026,-5.039487 z m -2.960026,5.039487 c -0.0684,0.133037 -0.137036,0.261569 -0.205671,0.379822 -0.162068,0.62103 -0.277469,1.818963 -0.352952,2.475817 0.04411,0.101341 0.0879,0.201526 0.133842,0.310058 0.04268,0.100825 -0.02821,0.08111 -0.153995,-0.0016 0.01691,0.30915 0.18052,0.622499 0.398425,0.90899 0.07213,0.06626 0.159922,0.150389 0.259932,0.247012 0.0067,-0.244689 0.02196,-0.472189 0.02997,-0.634585 -0.01519,0.211416 0.0037,0.426628 0.03617,0.625801 0.08793,-1.395847 0.500536,-2.854095 -0.01085,-4.135149 -0.04713,-0.11806 -0.09208,-0.171461 -0.134877,-0.176216 z m 0.07958,4.320148 c -5.29e-4,0.019 -0.0011,0.03763 -0.0016,0.05685 0.01976,0.02114 0.03998,0.04036 0.05995,0.06098 0.0011,-0.01923 0.0026,-0.03862 0.0036,-0.05788 -0.0218,-0.02135 -0.0416,-0.04022 -0.06201,-0.05995 z m -2.498037,-4.669481 c -0.01987,0.0026 -0.03684,0.01125 -0.05168,0.02429 0.0084,0.03268 0.01603,0.06507 0.02532,0.09819 0.03146,0.05717 0.0661,0.118272 0.106969,0.184999 0.01251,0.0064 0.02516,0.01365 0.03876,0.0217 -0.0371,-0.09738 -0.07478,-0.200252 -0.112139,-0.309544 -0.0024,-0.0066 -0.0049,-0.01307 -0.0072,-0.01963 z m -0.02635,0.122473 c -0.01421,-0.0258 -0.03193,-0.05466 -0.04444,-0.07958 -0.0086,0.01087 -0.01588,0.02313 -0.02273,0.03617 0.01032,0.05908 0.02103,0.118007 0.03101,0.177253 0.02387,0.0056 0.05284,0.01492 0.08578,0.02739 -0.01752,-0.05392 -0.03463,-0.107892 -0.04961,-0.16123 z m 7.355107,-0.880567 c -0.0058,-0.0054 -0.01119,-0.01037 -0.01241,-0.0098 0.05957,0.07979 0.115083,0.155755 0.172082,0.233061 0.04336,0.04931 0.08775,0.09818 0.129191,0.148828 -0.09081,-0.118706 -0.185788,-0.240671 -0.28887,-0.372071 z m 0.288869,0.37207 c 0.003,0.0039 0.0064,0.008 0.0093,0.01188 -7.93e-4,-0.0013 -0.0013,-0.0024 -0.0021,-0.0036 -0.0024,-0.0028 -0.0049,-0.0054 -0.0072,-0.0083 z m 0.0093,0.01188 c 0.02141,0.03893 0.04269,0.07786 0.06408,0.11679 -0.06341,-0.08816 -0.128177,-0.176605 -0.202573,-0.277503 -0.06045,-0.06874 -0.118774,-0.138946 -0.165881,-0.217041 -0.0069,-0.01138 -0.0078,-0.01532 -0.0062,-0.01603 -0.03733,-0.05 -0.06402,-0.08425 -0.101285,-0.133843 -0.05942,-0.07455 -0.110501,-0.136919 -0.164849,-0.20257 0.0038,0.09954 0.003,0.201451 -0.0031,0.306441 0.186341,0.141978 0.412705,0.327583 0.644922,0.542602 2.64e-4,2.64e-4 7.93e-4,7.93e-4 0.0011,0.0011 0.02936,0.0272 0.05843,0.05408 0.08785,0.08216 -0.04591,-0.06043 -0.09327,-0.122637 -0.153996,-0.202055 z m -0.72812,-1.506368 c 0.01556,0.202038 0.02434,0.404934 0.0341,0.607716 0.0083,0.0109 0.0168,0.02191 0.02532,0.03307 -0.01609,-0.213686 -0.007,-0.435809 -0.05943,-0.640789 z m 0.03617,0.639754 c 2.59e-4,0.0052 7.93e-4,0.01032 0.0011,0.01551 0.0016,0.0072 0.0026,0.0145 0.0041,0.0217 5.3e-4,-0.0081 0.0016,-0.02492 0.0021,-0.02894 -0.0021,-0.0026 -0.0051,-0.0057 -0.0073,-0.0083 z m 0.0052,0.03721 c -2.65e-4,0.0051 -0.0013,0.01778 -0.0016,0.02429 0.0042,0.07808 0.0077,0.156266 0.01394,0.234096 1.53e-4,2.64e-4 -1.53e-4,7.93e-4 0,0.0011 0.0016,0.0027 0.0031,0.0051 0.0047,0.0078 0.0033,-0.02233 0.0047,-0.08797 0.0047,-0.155027 -1.29e-4,-7.94e-4 1.3e-4,-0.0013 0,-0.0021 -0.0072,-0.03675 -0.01418,-0.07345 -0.0217,-0.110069 z m 0.0067,-0.02273 c 0.0027,0.01744 0.0085,0.06816 0.01498,0.130741 -7.4e-5,-0.03616 0.0011,-0.07722 -0.0011,-0.09922 -5.29e-4,-0.0054 -5.29e-4,-0.01109 -0.0011,-0.01654 -0.0041,-0.0048 -0.0089,-0.01035 -0.01291,-0.01498 z m -5.23844,5.004864 c 0.01458,0.024 0.02936,0.04783 0.04392,0.07183 0.05746,0.06182 0.226235,0.250258 0.172083,0.185517 -0.07237,-0.08652 -0.143653,-0.171587 -0.216006,-0.257346 z m 8.252724,0.134874 c 0.03777,0.03413 0.08759,0.08006 0.130742,0.119372 -0.04765,-0.06378 -0.09251,-0.10957 -0.130742,-0.119372 z m -7.380943,0.835607 c 0.0048,0.02558 0.0088,0.05214 0.01394,0.077 0.183804,0.185801 0.370801,0.350496 0.524,0.475421 -0.222346,-0.237741 -0.390512,-0.407471 -0.537951,-0.55242 z m 7.03058,8.024317 c -0.0033,0.0019 0.04712,0.0404 0.06924,0.04547 0.0041,0.0011 0.0083,0.0016 0.01241,0.0026 -0.02656,-0.01643 -0.05727,-0.03655 -0.077,-0.04651 -0.0029,-0.0016 -0.0042,-0.0019 -0.0047,-0.0016 z m 11.411704,0.03824 c -0.355328,0.06968 -0.797653,0.170886 -1.463993,0.245461 -2.568376,11.04934 -1.061037,2.77787 1.463993,-0.245461 z m -0.682644,6.956681 c 0.156065,0.0601 0.304332,0.0742 0.440799,0.0134 -0.162584,0.004 -0.308938,-7.9e-4 -0.440799,-0.0134 z" />
    </clipPath>
    <clipPath
       clipPathUnits="userSpaceOnUse"
       id="clipPath271">
      <path
         id="path273"
         style="fill:#ff0000;fill-opacity:1;fill-rule:nonzero;stroke:none;stroke-width:0.264583"
         d="m -2.4670329,35.684127 c 0,23.980791 -23.9807911,71.942373 0,71.942373 18.7485539,0 71.1138909,11.42121 56.2456619,0 -0.633421,-0.48657 -1.163153,-1.08845 -1.678333,-1.69517 -0.138077,-0.16261 -0.225592,-0.3989 -0.422829,-0.4804 -0.526825,-0.2177 -0.984253,-0.56569 -1.454285,-0.88127 -0.127612,-0.0857 -0.24352,-0.12816 -0.324116,-0.18628 -0.381738,-0.2753 -0.747341,-0.57173 -1.098288,-0.88656 -0.150968,-0.13543 -0.321541,-0.24466 -0.517933,-0.30999 -0.833933,-0.27741 -1.730588,-0.51082 -2.398824,-1.07833 -0.505285,-0.42912 -1.036596,-0.82668 -1.605418,-1.17267 -0.516623,-0.31424 -0.989916,-0.6943 -1.445273,-1.089662 -0.400514,-0.347747 -0.664213,-0.858249 -1.121148,-1.126613 -0.504886,-0.296526 -2.011452,-1.198305 -1.497582,-0.917773 0.06577,0.0359 0.251372,0.143627 0.23233,0.130464 -0.30667,-0.211986 -0.603979,-0.442819 -0.932097,-0.619066 -0.588728,-0.316232 -2.093906,-1.616905 -1.545557,-1.247244 0.103644,0.06987 0.380372,0.315379 0.349848,0.274921 -0.42622,-0.564931 -0.788635,-1.188617 -1.297334,-1.681194 -0.179255,-0.173574 0.03554,0.19505 0.07407,0.254461 0.108554,0.16736 0.218299,0.330135 0.339055,0.494208 0.127526,0.173272 -0.09037,0.01753 -0.153268,-0.04255 -0.285569,-0.272812 -0.529848,-0.584984 -0.823368,-0.850802 -0.136514,-0.12363 -0.184857,-0.300417 -0.272112,-0.456245 -0.116363,-0.207811 -0.209964,-0.43776 -0.365027,-0.616455 -0.04862,-0.05602 0.05318,0.147494 -0.03891,0.04604 -0.08765,-0.09655 -0.28383,-0.415627 -0.254291,-0.362305 0.05634,0.101701 0.275961,0.320093 0.265344,0.272665 -0.0036,-0.01626 0.155144,0.143482 0.230462,0.195488 0.426898,0.294767 0.917212,0.484056 1.35567,0.764096 0.09193,0.05872 0.278087,0.05688 0.162255,-0.09802 -0.577071,-0.771703 -1.46091,-1.209558 -2.204397,-1.793764 -0.245194,-0.192665 -0.527366,-0.365261 -0.692122,-0.631728 -0.174426,-0.282107 -0.05559,-0.666919 -0.215184,-0.94835 -0.04098,-0.07226 -0.257637,-0.359469 -0.101272,-0.178143 0.04007,0.04647 0.05549,0.230744 0.09886,0.07221 0.05746,-0.210035 -0.08672,-0.337058 -0.212099,-0.480456 -0.171236,-0.195851 -0.383471,-0.355878 -0.531553,-0.574754 -0.105071,-0.155303 -0.198853,-0.315074 -0.321567,-0.459078 -0.260903,-0.306167 -0.412522,-0.729306 -0.752458,-0.943153 -0.06019,-0.03786 -0.175419,-0.257648 -0.06298,-0.09623 0.159068,0.228351 0.385642,0.398175 0.586754,0.587816 0.04052,0.03821 -0.01834,-0.07512 0.03123,8.2e-5 0.09178,0.139258 0.224783,0.253481 0.366884,0.339007 0.09149,0.05506 0.169123,0.281122 0.239205,0.05759 0.067,-0.213711 -0.07171,-0.399136 -0.156098,-0.585301 -0.172425,-0.380361 -0.134254,-1.087839 -0.550261,-1.125428 -0.09507,-0.0086 -0.191247,-0.114912 -0.127219,0.04918 0.114879,0.294425 0.462055,0.597657 0.335677,0.88719 -0.05128,0.117481 -0.226333,-0.124065 -0.280097,-0.187291 -0.320081,-0.376408 -0.651003,-0.75784 -0.865387,-1.204653 -0.145996,-0.304281 0.07236,-1.018754 -0.258767,-0.970184 -0.190119,0.02789 -0.121685,-0.256105 -0.134894,-0.404552 -0.04304,-0.483651 -0.09126,-0.966053 -0.09162,-1.455162 -5.7e-5,-0.07623 0.0233,-0.309275 0.03577,-0.113312 0.01843,0.289765 0.0201,1.160477 0.02901,0.870246 0.007,-0.228101 0.04019,0.150485 0.04832,0.220541 0.0201,0.172991 0.101915,0.328289 0.128872,0.501642 0.0269,0.172974 0.203456,0.189113 0.31406,0.335372 0.187814,0.248359 0.297912,0.541242 0.469283,0.7998 0.143676,0.216773 0.138366,0.644823 0.397003,0.671172 0.318403,0.03244 0.57338,-0.217102 0.746026,-0.451573 0.126997,-0.172475 0.330421,-0.331398 0.345214,-0.544925 0.01456,-0.210094 0.180836,-0.307259 0.262047,-0.470851 0.624345,-1.257692 1.039273,-2.617113 1.753054,-3.828407 0.218391,-0.370612 0.451287,-0.759964 0.824223,-0.995327 0.213914,-0.135003 0.497023,-0.08836 0.68294,0.07564 0.360365,0.317886 0.576608,0.76538 0.734094,1.209017 0.09779,0.275459 0.219703,0.541432 0.319701,0.815857 0.08638,0.237055 0.0799,0.489689 0.1467,0.732513 0.05889,0.214078 -0.0286,0.477466 0.102438,0.656676 0.244211,0.333977 0.468176,0.686381 0.762743,0.977718 0.438609,0.4338 0.884843,0.911178 1.064266,1.513735 0.05231,0.175686 0.06774,0.343214 0.162134,0.511606 0.24003,0.428195 0.286502,0.958552 0.586409,1.349131 0.25339,0.329999 0.410076,0.737983 0.711586,1.02526 0.337068,0.321156 0.570999,0.764041 0.972032,1.004073 0.313565,0.187679 0.583165,0.44314 0.903822,0.619082 0.188344,0.103343 0.35219,0.257205 0.552486,0.332921 0.817695,0.309105 1.538274,0.84658 2.12392,1.488791 0.13412,0.147074 0.533364,0.585544 0.376121,0.46342 -0.07608,-0.05909 -0.222219,-0.136193 -0.0734,-0.01422 0.308847,0.253135 0.584589,0.555362 0.926649,0.759928 0.604883,0.361746 2.42616,1.300642 1.714039,1.244349 -0.113422,-0.009 -0.470096,-0.110468 -0.418061,-0.08216 0.216748,0.117914 0.466879,0.129751 0.700858,0.205176 0.94213,0.303703 1.861094,0.700492 2.677651,1.268877 0.334856,0.233085 0.552277,0.738183 0.959727,0.758369 0.43918,0.02176 0.828748,0.262834 1.179832,0.506262 0.48568,0.336752 1.191291,1.702337 1.357479,1.136015 0.02945,-0.100368 0.05086,0.04725 0.113484,0.108799 0.653045,0.641823 1.29455,1.300903 1.854201,2.026293 0.750657,0.97296 1.357771,2.10617 1.504345,3.34152 0.0974,0.82093 -1.361639,2.38234 -0.523365,2.38234 0.858689,0 2.576068,0.85869 2.576068,0 0,-23.980781 23.980781,-71.942343 0,-71.942343 -21.40437,0 -42.808741,0 -64.2131109,0 z M 39.260137,85.060441 c 0.02755,0.0608 0.287605,0.370426 0.271786,0.349792 -0.08984,-0.117181 -0.180691,-0.233605 -0.271786,-0.349792 z m 0.288869,0.37207 c 0.01975,0.03001 0.005,0.0016 0,0 z m 0.0093,0.01188 c 0.03273,0.06012 0.09926,0.170671 0.01614,0.05043 -0.120741,-0.174676 -0.2309,-0.358428 -0.377379,-0.511284 -0.06193,-0.06462 -0.205157,-0.286419 -0.214259,-0.231899 -0.03095,0.185392 0.02862,0.291492 0.181069,0.414453 0.189235,0.152629 0.695581,0.673977 0.548495,0.48041 -0.05125,-0.06745 -0.102569,-0.134853 -0.154065,-0.202106 z m -5.208469,0.723471 c -0.07871,0.180112 -0.202146,0.338498 -0.242804,0.535407 -0.158015,0.765271 -0.471086,1.555465 -0.315818,2.320233 0.02409,0.11864 0.224743,0.419402 0.120019,0.378083 -0.09665,-0.03813 -0.156955,-0.112858 -0.127136,0.04644 0.05691,0.304035 0.160243,0.645851 0.413165,0.818599 0.09606,0.06561 0.226636,0.34644 0.236723,0.08583 0.0064,-0.166457 0.0421,-0.664811 0.0254,-0.499076 -0.01777,0.176428 0.03374,0.664183 0.03829,0.593074 0.07161,-1.119742 0.38525,-2.245716 0.185463,-3.364721 -0.0531,-0.29743 -0.07764,-0.630175 -0.267496,-0.868298 -0.01677,-0.02103 -0.03745,-0.04177 -0.06581,-0.04557 z m 0.07958,4.320149 c -0.03126,0.108287 -0.116271,0.0051 0.03042,0.02936 0.01382,0.0023 -0.04446,-0.03173 -0.03042,-0.02936 z M 31.931396,85.81853 c -0.139595,0.03642 0.1332,0.365185 0.10543,0.292402 -0.03694,-0.09681 -0.07101,-0.194713 -0.10543,-0.292402 z m -0.02635,0.122473 c -0.108207,-0.223803 0.0895,0.28499 0.04308,0.141014 -0.01508,-0.04678 -0.02976,-0.09371 -0.04308,-0.141014 z m 6.925159,-2.00298 c 0.03227,0.210436 0.07516,0.847246 0.05942,0.640786 -0.01629,-0.213725 -0.0064,-0.43142 -0.05942,-0.640786 z m 0.03617,0.639754 c -0.0069,0.06108 0.02678,0.03661 0,0 z m 0.0052,0.03721 c -0.004,0.07456 -0.0052,0.400581 0.02147,0.161631 0.0062,-0.05533 -0.01246,-0.107734 -0.02147,-0.161631 z m 0.0067,-0.02273 c 0.0091,0.181028 0.0388,0.141274 0,0 z m -5.23844,5.004864 c 0.03525,0.07936 0.210885,0.251228 0.202446,0.241141 -0.06734,-0.08049 -0.134779,-0.160927 -0.202446,-0.241141 z m 8.252724,0.134874 c 0.0662,0.06309 0.187434,0.171525 0.06184,0.03944 0,0 -0.03198,-0.02563 -0.03198,-0.02563 0,0 -0.02986,-0.01382 -0.02986,-0.01382 z m -7.380943,0.835607 c 0.02825,0.157295 0.18885,0.251201 0.304035,0.352452 0.05964,0.05243 0.230289,0.196099 0.213218,0.177879 -0.168846,-0.180209 -0.341042,-0.357351 -0.517253,-0.530331 z m 7.03058,8.024317 c 0.08431,0.07207 0.110462,0.05123 0,0 z m 11.411704,0.03824 c -0.484602,0.100421 -1.352827,-0.23716 -1.463993,0.245461 -0.423502,1.83861 -0.992862,3.64594 -1.319831,5.50408 -0.02867,0.16293 0.06807,-0.13786 0.08664,-0.19118 0.555436,-1.59497 1.154856,-3.19189 2.043471,-4.634209 0.19802,-0.321408 0.411823,-0.633959 0.653713,-0.924152 z m -0.682644,6.956681 c 0.109706,0.0685 0.458926,0.0132 0.410504,0.0141 -0.136943,0.002 -0.274112,-0.001 -0.410504,-0.0141 z"
         inkscape:original-d="M -2.4670329,35.684127 V 107.6265 H 53.778629 c -0.429451,-0.3346 -0.86101,-0.74323 -1.287259,-1.23713 -0.435597,-0.50474 -0.594408,-0.70825 -0.813903,-0.93844 -0.459145,-0.17933 -0.874363,-0.52077 -1.715659,-1.04748 0.134091,0.15592 -0.760132,-0.54656 -0.794785,-0.57516 -0.23699,-0.19688 -0.443708,-0.4399 -0.714684,-0.58653 -0.91131,-0.28569 -1.701001,-0.68895 -2.568318,-1.13326 -0.828096,-0.70908 -1.198857,-0.93848 -1.392164,-1.05059 -0.46273,-0.25002 -0.873183,-0.56966 -1.277959,-0.90123 -0.560366,-0.427636 -1.032523,-0.917451 -1.501716,-1.437125 -0.873446,-0.513405 -1.717276,-1.06114 -1.497582,-0.917773 0.01342,0.0073 0.359881,0.220162 0.209807,0.114205 -0.278739,-0.196797 -0.566663,-0.379492 -0.849045,-0.571024 -0.0013,-5.29e-4 -0.0024,-0.0013 -0.0036,-0.0021 -0.611209,-0.310218 -1.093875,-0.828124 -1.602486,-1.276927 0.116708,0.09171 0.43824,0.394161 0.349848,0.274921 -1.728155,-2.331408 -1.533639,-1.93212 -1.006655,-1.06195 0.04711,0.07779 0.230153,0.190862 0.147794,0.229441 -0.03229,0.01513 -0.474973,-0.428257 -0.743107,-0.688329 -0.752697,-0.893398 -0.07031,-0.0276 -0.877466,-1.363223 -0.01225,-0.0096 -0.02498,-0.01947 -0.03669,-0.02894 0.01577,0.04782 0.03209,0.101915 0.01085,0.0863 -0.08833,-0.06494 -0.143121,-0.162949 -0.200507,-0.258898 -0.05398,-0.05753 -0.09208,-0.108508 -0.09922,-0.146246 0.03763,0.04464 0.06866,0.09515 0.09922,0.146246 0.04885,0.05206 0.112271,0.110056 0.189654,0.172598 -0.01355,-0.04108 -0.02678,-0.07773 -0.01498,-0.05839 0.02191,0.03589 0.03167,0.05422 0.05168,0.08733 0.65673,0.516842 2.049835,1.261504 1.686203,0.781862 -0.733401,-0.96737 -1.969654,-1.440204 -2.810682,-2.31562 -0.203483,-0.211802 -0.270373,-0.620377 -0.285253,-1.03663 -0.0602,-0.101126 -0.07029,-0.117726 -0.161748,-0.269235 0.05382,0.08102 0.107416,0.161867 0.16123,0.24288 -0.0032,-0.106487 -0.0037,-0.211386 -0.0016,-0.315225 -0.09042,-0.09672 -0.177887,-0.19803 -0.258381,-0.303858 -0.312846,-0.287414 -0.422818,-0.381733 -0.667661,-0.808736 -0.298193,-0.353986 -0.593169,-0.708477 -0.866613,-1.083654 -0.139719,-0.140049 -0.205997,-0.220749 -0.117306,-0.162782 0.03842,0.05488 0.078,0.108855 0.117306,0.162782 0.137422,0.137742 0.345384,0.331555 0.558107,0.51883 -0.01074,-0.02029 -0.01722,-0.03156 -0.02842,-0.05271 0.01204,0.01982 0.02413,0.0396 0.03617,0.05943 0.215037,0.189018 0.428215,0.364688 0.569989,0.457853 -0.0029,-0.05373 -0.0028,-0.107439 0.0036,-0.160713 0.0044,-0.03653 0.01177,-0.106402 0.01654,-0.147794 -0.276296,-0.634873 -0.517456,-1.134541 -0.726569,-1.522904 -0.05574,-0.0074 -0.111774,-0.02273 -0.16795,-0.05116 0.1074,0.263049 0.224393,0.561803 0.353986,0.910537 0.19326,0.520075 -0.833742,-0.764675 -1.092957,-1.255221 -0.166999,-0.316031 -0.228824,-0.672928 -0.288872,-1.029909 -0.03568,-0.0083 -0.06328,-0.01445 -0.08165,-0.02842 -0.0096,0.03599 -0.01479,0.04064 -0.02273,-0.03255 -0.01058,-0.02682 -0.01413,-0.07104 -0.01291,-0.141079 -0.0083,-0.09679 -0.02469,-0.284228 -0.04186,-0.476972 0,0 0,-5.29e-4 0,-5.29e-4 -0.03261,-0.185764 -0.05342,-0.424617 -0.07545,-0.776182 -0.01204,-0.191944 0.02503,-0.76691 0.03979,-0.575159 0.02376,0.308441 0.01257,0.619728 0.03307,0.928111 0.009,-0.251648 0.0037,0.0071 0.09612,0.515731 0.04091,0.110768 0.08875,0.219593 0.128159,0.330729 0.106842,-0.01384 0.292688,0.155869 0.623218,0.847492 0.144624,0.200015 0.313315,0.469204 0.510046,0.834575 0.36708,0.04838 0.72509,-0.342275 1.079521,-0.952912 0.06212,-0.238046 0.130331,-0.388194 0.205671,-0.379823 0.968901,-1.884439 1.918327,-5.087697 2.960026,-5.039487 0.388575,0.01799 0.790247,0.488807 1.210262,1.650029 0.08621,0.238342 0.214972,0.465497 0.258382,0.715203 0.02156,0.123981 0.0355,0.248846 0.04651,0.374137 0.08966,0.264192 0.143383,0.537437 0.156065,0.831474 0.05945,0.07835 0.102555,0.133969 0.165364,0.217556 0.03776,0.04739 0.07541,0.09487 0.113689,0.143661 0.04789,0.04438 0.245454,0.2877 0.48369,0.616501 0.554294,0.535043 1.096156,1.217599 1.119828,1.838129 0.289041,0.500052 0.542049,0.990888 0.692981,1.536343 0.249235,0.323294 0.513604,0.687816 0.711586,1.02526 0.31949,0.296643 0.675161,0.638725 0.85266,0.851109 0.03033,0.0363 0.07586,0.096 0.119372,0.152964 0.05235,0.0363 0.128534,0.08293 0.250632,0.152961 0.08012,0.05345 0.162025,0.104068 0.240294,0.160197 0.235231,0.168701 0.345792,0.252399 0.412896,0.305924 0.186317,0.115856 0.357954,0.223618 0.483174,0.30851 0.984842,0.335047 2.013061,1.192448 2.569353,1.976622 -0.580486,-0.380063 0.65074,0.538933 0.812868,0.71882 0.0552,0.03721 0.106942,0.0706 0.13126,0.08061 0.573527,0.335124 1.234453,0.72812 1.623156,1.190625 -0.139412,-0.02748 -0.539179,-0.156464 -0.418061,-0.08216 0.156189,0.09582 0.35397,0.09451 0.528648,0.14986 0.735426,0.233042 1.463474,0.502346 2.140956,0.875916 0.600173,0.342599 1.1537,0.748956 1.668632,1.206646 0.646517,0.003 1.653931,0.799605 2.537311,1.642277 0.02798,-0.06213 0.03284,-0.05898 0.01551,0.01447 0.840801,0.803872 1.565275,1.643502 1.748729,1.866042 1.995236,2.42023 2.095077,4.66688 1.184426,5.97844 h 2.576068 V 35.684127 Z M 39.260137,85.060441 c -0.0058,-0.0054 -0.01119,-0.01037 -0.01241,-0.0098 0.05957,0.07979 0.115083,0.155755 0.172082,0.233061 0.04336,0.04931 0.08775,0.09818 0.129191,0.148828 -0.09081,-0.118706 -0.185788,-0.240671 -0.288869,-0.372071 z m 0.288869,0.37207 c 0.003,0.0039 0.0064,0.008 0.0093,0.01188 -7.94e-4,-0.0013 -0.0013,-0.0024 -0.0021,-0.0036 -0.0024,-0.0028 -0.0049,-0.0054 -0.0072,-0.0083 z m 0.0093,0.01188 c 0.02141,0.03893 0.04268,0.07786 0.06408,0.11679 -0.06341,-0.08816 -0.128177,-0.176605 -0.202573,-0.277503 -0.06045,-0.06874 -0.118774,-0.138946 -0.16588,-0.217041 -0.0069,-0.01138 -0.0078,-0.01532 -0.0062,-0.01603 -0.03733,-0.05 -0.06402,-0.08425 -0.101286,-0.133843 -0.05941,-0.07455 -0.1105,-0.136919 -0.164848,-0.20257 0.0038,0.09954 0.003,0.201451 -0.0031,0.306441 0.186341,0.141978 0.412705,0.327583 0.644922,0.542602 2.65e-4,2.64e-4 7.94e-4,7.93e-4 0.0011,0.0011 0.02936,0.0272 0.05843,0.05408 0.08785,0.08216 -0.04591,-0.06043 -0.09327,-0.122637 -0.153995,-0.202055 z m -5.208469,0.723471 c -0.0684,0.133038 -0.137035,0.26157 -0.205671,0.379823 -0.162068,0.62103 -0.277468,1.818963 -0.352951,2.475817 0.04411,0.101341 0.0879,0.201525 0.133842,0.310057 0.04268,0.100825 -0.02821,0.08111 -0.153996,-0.0016 0.01691,0.30915 0.18052,0.622498 0.398426,0.908989 0.07213,0.06627 0.159922,0.150389 0.259932,0.247013 0.0067,-0.24469 0.02196,-0.472189 0.02997,-0.634585 -0.01519,0.211415 0.0037,0.426627 0.03617,0.6258 0.08793,-1.395846 0.500536,-2.854094 -0.01085,-4.135149 -0.04713,-0.118059 -0.09208,-0.17146 -0.134877,-0.176215 z m 0.07958,4.320149 c -5.29e-4,0.019 -0.0011,0.03763 -0.0016,0.05684 0.01976,0.02114 0.03998,0.04037 0.05995,0.06098 0.0011,-0.01923 0.0026,-0.03862 0.0036,-0.05788 -0.0218,-0.02135 -0.0416,-0.04022 -0.06201,-0.05995 z M 31.931396,85.81853 c -0.01987,0.0026 -0.03684,0.01125 -0.05168,0.02429 0.0084,0.03268 0.01603,0.06507 0.02532,0.09819 0.03146,0.05717 0.0661,0.118271 0.106968,0.184999 0.01252,0.0063 0.02516,0.01365 0.03876,0.0217 -0.0371,-0.09738 -0.07478,-0.200253 -0.112138,-0.309544 -0.0024,-0.0066 -0.0049,-0.01307 -0.0072,-0.01963 z m -0.02635,0.122473 c -0.01421,-0.0258 -0.03192,-0.05466 -0.04444,-0.07958 -0.0086,0.01087 -0.01587,0.02313 -0.02273,0.03617 0.01032,0.05908 0.02104,0.118007 0.03101,0.177252 0.02387,0.0056 0.05284,0.01492 0.08578,0.02739 -0.01751,-0.05391 -0.03463,-0.107891 -0.04961,-0.161229 z m 6.925159,-2.00298 c 0.01556,0.202038 0.02434,0.404934 0.0341,0.607716 0.0083,0.0109 0.0168,0.02191 0.02532,0.03307 -0.01609,-0.213686 -0.007,-0.435809 -0.05943,-0.640789 z m 0.03617,0.639754 c 2.59e-4,0.0052 7.93e-4,0.01032 0.0011,0.01551 0.0016,0.0072 0.0026,0.0145 0.0041,0.0217 5.3e-4,-0.0081 0.0016,-0.02492 0.0021,-0.02894 -0.0021,-0.0026 -0.0051,-0.0057 -0.0073,-0.0083 z m 0.0052,0.03721 c -2.65e-4,0.0051 -0.0013,0.01778 -0.0016,0.02429 0.0042,0.07808 0.0077,0.156266 0.01394,0.234096 1.53e-4,2.64e-4 -1.53e-4,7.93e-4 0,0.0011 0.0016,0.0027 0.0031,0.0051 0.0047,0.0078 0.0033,-0.02233 0.0047,-0.08797 0.0047,-0.155027 -1.29e-4,-7.94e-4 1.3e-4,-0.0013 0,-0.0021 -0.0072,-0.03675 -0.01418,-0.07345 -0.0217,-0.110069 z m 0.0067,-0.02273 c 0.0027,0.01744 0.0085,0.06816 0.01498,0.130741 -7.4e-5,-0.03616 0.0011,-0.07722 -0.0011,-0.09922 -5.29e-4,-0.0054 -5.29e-4,-0.01109 -0.0011,-0.01654 -0.0041,-0.0048 -0.0089,-0.01035 -0.01291,-0.01498 z m -5.23844,5.004864 c 0.01458,0.024 0.02936,0.04783 0.04392,0.07183 0.05746,0.06182 0.226235,0.250258 0.172083,0.185517 -0.07237,-0.08652 -0.143653,-0.171587 -0.216006,-0.257346 z m 8.252724,0.134874 c 0.03777,0.03413 0.08759,0.08006 0.130742,0.119372 -0.04765,-0.06378 -0.09251,-0.10957 -0.130742,-0.119372 z m -7.380943,0.835607 c 0.0048,0.02558 0.0088,0.05214 0.01394,0.077 0.183804,0.185801 0.370801,0.350496 0.524,0.475421 -0.222346,-0.237741 -0.390512,-0.407471 -0.537951,-0.55242 z m 7.03058,8.024317 c -0.0033,0.0019 0.04712,0.0404 0.06924,0.04547 0.0041,0.0011 0.0083,0.0016 0.01241,0.0026 -0.02656,-0.01643 -0.05727,-0.03655 -0.077,-0.04651 -0.0029,-0.0016 -0.0042,-0.0019 -0.0047,-0.0016 z m 11.411704,0.03824 c -0.355328,0.06968 -0.797653,0.170886 -1.463993,0.245461 -2.568376,11.04934 -1.061037,2.77787 1.463993,-0.245461 z m -0.682644,6.956681 c 0.156065,0.0601 0.304332,0.0742 0.440799,0.0134 -0.162584,0.004 -0.308938,-7.9e-4 -0.440799,-0.0134 z" />
    </clipPath>
  </defs>
  <g
     inkscape:groupmode="layer"
     id="layer2"
     inkscape:label="Submucosa" />
  <path
     style="fill:none;stroke:#000000;stroke-width:0.264583px;stroke-linecap:butt;stroke-linejoin:miter;stroke-opacity:1"
     d="m -0.49326574,70.711588 c 0.54972076,0.906911 0.91705867,1.95246 1.65061424,2.720656 0.377888,0.395733 0.841154,0.696567 1.2916642,1.001857 1.2414402,0.841267 2.5983911,1.518323 3.7674169,2.458003 0.1832836,0.147326 0.4249474,0.260361 0.5260778,0.479177 0.5476966,1.185055 1.3350617,2.244103 2.1951849,3.218285 1.1362717,1.28695 2.3884027,2.497087 3.8427647,3.416016 1.249678,0.789601 2.586284,1.428688 3.856195,2.183934 1.223413,0.727593 2.434193,1.528628 3.375445,2.612512 0.361752,0.41657 0.62059,0.905902 0.866629,1.397824 1.826545,3.651942 4.769445,7.005495 8.604224,8.388934 0.586607,0.211625 1.213085,0.273327 1.82407,0.380403 0.555316,0.09732 1.126878,0.153832 1.65494,0.36081 0.297747,0.116704 0.438086,0.429738 0.575558,0.695011 0.170367,0.32875 0.281578,0.74123 0.608737,0.93557 0.484578,0.28785 1.0222,0.47152 1.546724,0.67165 0.999987,0.38155 2.035891,0.67801 3.00173,1.14051 1.015659,0.48636 1.847066,1.27646 2.597913,2.10009 1.318898,1.44674 2.399785,3.08547 3.636736,4.59898 0.875461,1.0712 2.088638,1.77847 3.26581,2.46844 1.0688,0.62645 2.120028,1.30491 2.994117,2.20372 0.64081,0.65893 1.532219,0.98022 2.401191,1.21142 1.100867,0.2929 2.254983,0.34789 3.345466,0.67347 0.718395,0.21449 1.341926,0.6568 1.913029,1.12819 0.965815,0.79718 1.839118,1.70924 2.586743,2.71445 0.45003,0.60508 0.766332,1.29275 1.121731,1.95425 0.795524,1.48071 1.540486,2.99653 2.48384,4.38902 0.224435,0.33129 0.404082,0.72245 0.736861,0.95073 0.424814,0.29141 0.931437,0.42563 1.413087,0.59177 0.547472,0.18885 1.099351,0.37152 1.62112,0.63244 0.191073,0.0956 0.247197,0.29811 0.25431,0.51445 0.0062,0.1893 -0.09703,0.46465 -0.33229,0.24276 -0.122916,-0.11593 0.123646,0.12743 0.16478,0.17253 0.421071,0.46164 0.892242,0.94066 1.049069,1.55434 0.135868,0.53167 0.165754,1.08448 0.20186,1.63012 0.08054,1.2171 0.02636,2.48211 0.469759,3.63444 0.196096,0.50962 0.453598,0.99966 0.77637,1.43998 0.197926,0.27001 0.482651,0.55186 0.844633,0.51533 0.23077,-0.0233 0.488103,-0.0278 0.67246,0.13688 0.400345,0.35758 0.712853,0.80378 0.996403,1.25633 0.645088,1.02957 0.921609,2.30955 1.769586,3.18162 0.323215,0.3324 0.71623,0.58795 1.102766,0.83993 0.92423,0.60249 1.852132,1.22748 2.883193,1.62447 0.288834,0.11121 0.608866,0.35659 0.904559,0.23869 0.208086,-0.083 0.253736,-0.36115 0.280321,-0.55912 0.08209,-0.61134 -0.10303,-1.21398 -0.222396,-1.80738"
     id="path71"
     inkscape:path-effect="#path-effect73"
     inkscape:original-d="m -0.49326574,70.711588 c 0.53512014,0.887495 1.01402558,1.811412 1.60536044,2.662484 0.5441461,0.783156 5.4020294,3.483784 5.6187742,3.971187 0.9860413,2.217359 3.7946251,5.258154 6.2207791,6.769049 2.323071,1.446702 6.516277,3.132225 7.775982,5.776264 1.805939,3.790551 4.934588,6.843755 8.678997,8.66439 0.757981,0.368551 3.354245,0.482775 3.762568,0.902539 0.372679,0.383119 0.502267,1.041169 0.903018,1.444059 0.385784,0.38785 3.862459,1.47607 4.765924,1.94046 2.384994,1.2259 4.48334,4.73918 6.170612,6.72393 1.676215,1.97174 4.501285,2.69209 6.120448,4.51271 1.25699,1.41339 4.121845,1.52881 5.769271,1.94046 1.591098,0.39757 4.185219,3.10697 4.966605,4.51271 0.527907,0.94972 3.123528,6.02493 3.913073,6.63367 0.658956,0.50806 2.988226,0.90448 3.260879,1.44406 0.09965,0.19721 -0.0364,0.77955 -0.200663,0.63177 -0.696875,-0.62694 0.962139,0.77034 1.153853,1.80509 0.318635,1.7198 0.03787,3.9577 0.802683,5.5055 1.236638,2.50267 1.484611,0.9939 2.257549,1.80508 1.162209,1.2197 1.715714,2.9482 2.608715,4.28707 0.32444,0.48643 4.681013,3.2061 5.016754,2.66248 0.391879,-0.63452 0.08992,-1.60846 -0.05018,-2.30147"
     clip-path="url(#clipPath261)" />
  <path
     style="fill:none;stroke:#000000;stroke-width:0.264583px;stroke-linecap:butt;stroke-linejoin:miter;stroke-opacity:1"
     d="m 80.627735,143.00508 c 0.139101,1.03838 0.118526,2.08772 0.127156,3.13281 0.0067,0.81439 0.06525,1.655 0.41986,2.40267 0.335941,0.7083 0.893292,1.2867 1.494025,1.77708 1.006209,0.82138 2.229912,1.30849 3.452153,1.70965 1.413089,0.4638 2.865001,0.87544 4.145318,1.6574 0.69247,0.42293 1.297349,0.96866 1.905416,1.50114 2.210501,1.93571 4.086083,4.22192 6.288703,6.16265 0.620938,0.54711 1.464202,0.80509 2.004694,1.44592 0.51409,0.60953 0.93633,1.28981 1.45563,1.89623 0.19097,0.22301 0.46598,0.33993 0.72137,0.47053 1.13453,0.58018 2.31615,1.07984 3.38185,1.78507 0.32509,0.21513 0.61546,0.4763 0.88249,0.76189 0.75105,0.80326 1.55411,1.56944 2.47121,2.18286 0.45407,0.30371 0.9591,0.52005 1.47852,0.68718 0.88722,0.28548 1.8065,0.49005 2.64645,0.90828 0.33606,0.16733 0.61532,0.42075 0.88782,0.67481 1.99096,1.85625 3.73391,3.95636 5.42823,6.08057 0.76312,0.95674 1.56332,1.88547 2.28466,2.87401 0.59594,0.81669 0.83285,1.84616 1.49184,2.62157 0.23202,0.27301 0.59781,0.35836 0.93518,0.41575 0.3208,0.0546 0.64432,0.17795 0.86349,0.4331 0.67469,0.78548 1.24576,1.68531 2.08935,2.30327 0.36667,0.2686 0.77003,0.48206 1.16604,0.70327 1.48116,0.82738 3.05729,1.4785 4.68182,1.96718 0.96692,0.29086 1.97679,0.42905 2.93326,0.75142 0.39194,0.1321 0.71369,0.40875 1.0049,0.69234 0.47441,0.462 1.02259,0.9105 1.26809,1.52599 0.0296,0.0742 0.17633,0.32087 0.0917,0.2762 -0.18354,-0.0969 -0.34738,-0.28947 -0.3088,-0.51124 0.0559,-0.32146 0.27846,-0.57902 0.47941,-0.82291 0.24517,-0.29755 0.52246,-0.57259 0.7249,-0.90282"
     id="path75"
     inkscape:original-d="m 80.627735,143.00508 c 0.377931,2.96891 -0.384686,4.67377 1.153874,6.45317 2.57592,2.97914 6.39844,2.43031 9.331169,4.82858 2.86353,2.34167 4.675209,4.53368 7.274301,6.9947 0.615772,0.58306 1.484759,0.85579 2.056871,1.48918 0.44391,0.49146 1.30954,1.88344 1.7057,2.12098 1.03886,0.62291 3.7117,1.66895 4.61543,2.6625 0.83623,0.91934 2.14284,2.20477 3.36122,2.75274 1.15413,0.51908 3.02386,0.73446 3.96323,1.57944 2.85873,2.57149 5.54669,6.15167 7.9265,9.11567 0.63728,0.79372 0.90467,1.92742 1.55519,2.70762 0.50572,0.60652 1.28806,0.25836 1.80603,0.8574 0.7057,0.81615 1.46833,1.96365 2.40804,2.52711 2.89255,1.73442 5.1678,2.47085 8.42817,3.20403 1.06959,0.24052 3.07255,3.12495 2.25753,2.39173 -0.58686,-0.52797 0.65312,-1.44065 1.05352,-2.12098"
     inkscape:path-effect="#path-effect77"
     clip-path="url(#clipPath239)" />
  <path
     style="fill:none;stroke:#000000;stroke-width:0.264583px;stroke-linecap:butt;stroke-linejoin:miter;stroke-opacity:1"
     d="m 126.68161,188.53823 c -0.23877,0.24418 -0.38177,-0.41182 -0.44657,-0.59107 -0.30378,-0.84033 -0.66434,-1.65875 -0.91926,-2.51977 -0.0931,-0.31442 -0.46727,-0.25127 -0.33883,0.10408 0.32351,0.89506 0.84088,1.70531 1.34232,2.50839 0.74215,1.18858 1.27207,2.57047 2.30487,3.51638 1.78377,1.6337 3.61669,3.21327 5.44672,4.79479 1.2146,1.04966 2.58754,1.93474 3.66727,3.12204 0.62154,0.68346 0.92004,1.58342 1.23685,2.43337 0.42356,1.13634 0.69369,2.3478 1.31882,3.39458 0.56237,0.94169 1.62045,1.39141 2.57865,1.8228 0.92482,0.41636 2.02532,0.7064 2.62513,1.56353 0.31646,0.45222 0.57654,0.94213 0.89599,1.39423 0.88505,1.25256 1.85615,2.44924 2.94467,3.53501 0.40716,0.40613 1.01259,0.46031 1.5422,0.59921 0.64051,0.16798 1.34635,0.21388 1.90718,0.58267 0.43849,0.28834 -0.10126,0.97991 0.3866,1.22132 0.40033,0.1981 0.58491,-0.80551 0.96093,-0.4589 0.4828,0.44503 0.79375,1.04068 1.11934,1.60258 0.64094,1.10612 1.12584,2.30245 1.82868,3.36983 0.27278,0.41426 0.89065,0.12938 1.20403,0.4964 0.65656,0.76893 1.47416,1.46265 2.48515,1.6877 0.78947,0.17574 1.55254,0.48423 2.19902,0.98186 1.08788,0.83739 1.50683,2.19496 2.07121,3.38676 0.45286,0.9563 1.13671,1.77322 1.76897,2.61281 1.14231,1.5169 2.53327,2.86819 3.45918,4.52616 0.40135,0.71867 0.50451,1.55165 0.7077,2.33843 0.20987,0.81263 0.62727,1.68593 1.45676,2.01812 0.53286,0.2134 1.39096,0.0899 1.60563,0.62597 0.13461,0.33614 0.28433,0.67789 0.58594,0.91623 0.54161,0.428 1.37147,0.39748 1.84196,0.88828 0.27937,0.29143 0.2347,0.7326 0.25658,1.10545 0.0242,0.41255 0.42098,0.62688 0.71035,0.85083 1.40789,1.08959 2.75192,2.29254 4.30986,3.15381 0.43256,0.23913 0.97639,-0.0609 1.40359,0.28803 0.85292,0.69676 1.47804,1.70911 2.49049,2.17246 0.49922,0.22847 1.04172,0.73145 1.57041,0.53424 0.31483,-0.11744 0.56784,-0.36676 0.80057,-0.60478 0.3756,-0.38413 0.62414,0.3681 0.73271,0.63808 0.16507,0.41046 0.45295,1.09055 0.94112,0.9393 0.64595,-0.20014 1.19704,-0.61751 1.76776,-0.96826 0.45429,-0.2792 0.8969,-0.61869 1.462,-0.64768 0.59425,-0.0305 1.23817,0.29984 1.78375,0.0205 0.27989,-0.14329 0.0187,-0.99047 0.41302,-0.58503 0.18837,0.1937 0.44591,0.85235 0.63266,0.25587 0.29034,-0.92735 0.77568,-1.84004 0.77132,-2.81172 -0.004,-0.93141 0.66595,-1.67857 0.73084,-2.60265 0.12165,-1.7323 0.0213,-3.47562 -0.19363,-5.19534 -0.15887,-1.27114 -0.22831,-2.59403 -0.74736,-3.77199 -0.85619,-1.9431 -2.40949,-3.46968 -4.05287,-4.76621 -2.1595,-1.70372 -4.48579,-3.2405 -6.29234,-5.34844 -0.5653,-0.65961 -1.01906,-1.41737 -1.7174,-1.95943 -1.46109,-1.13411 -3.32784,-1.46963 -5.07688,-1.91591 -1.33613,-0.34092 -2.75359,-0.66206 -3.84403,-1.5429 -1.1876,-0.95932 -1.86418,-2.39756 -3.12688,-3.29531 -1.738,-1.23568 -3.41887,-2.54515 -5.0782,-3.89082 -1.7989,-1.45885 -4.20665,-1.9395 -5.91722,-3.52602 -1.13828,-1.05573 -2.31992,-2.11426 -3.14404,-3.43883 -0.46867,-0.75327 -0.7438,-1.60498 -1.04478,-2.43404 -0.68021,-1.87365 -1.29048,-3.82782 -2.52165,-5.43045 -0.7971,-1.0376 -1.95892,-1.72871 -3.21024,-2.12491 -1.3829,-0.43786 -2.63701,-1.19927 -3.84211,-1.98889 -2.96522,-1.94291 -5.77612,-4.12419 -8.39787,-6.5071 -1.42606,-1.29615 -2.85299,-2.62301 -3.94094,-4.23135 -1.1502,-1.70037 -1.91039,-3.69564 -3.36342,-5.15947 -0.97288,-0.98011 -2.38833,-1.26027 -3.48372,-2.07217 -1.77096,-1.31263 -3.5234,-2.67595 -5.03965,-4.27867 -1.71333,-1.81104 -2.63874,-4.21028 -4.28378,-6.06644 -0.51692,-0.58326 -1.34268,-0.62523 -2.06264,-0.68523 -0.47278,-0.0394 -0.91821,-0.21772 -1.30567,-0.4986 -1.11408,-0.80764 -2.13665,-1.73517 -3.11434,-2.69941 -1.76736,-1.74304 -3.00774,-3.93814 -4.85467,-5.61798 -1.95644,-1.77944 -3.64485,-3.86837 -5.76633,-5.44783 -0.86375,-0.64307 -1.956321,-0.86962 -2.793143,-1.57454 -1.785424,-1.504 -3.719814,-2.86416 -5.282217,-4.59887 -0.318819,-0.35398 -0.59694,-0.74556 -0.895821,-1.11843 -0.589296,-0.73518 -1.137061,-1.5389 -1.329095,-2.49052 -0.122235,-0.60573 -0.269613,-1.2184 -0.642642,-1.73823 -2.042004,-2.84559 -4.490045,-5.36434 -6.982004,-7.81909 -0.504067,-0.49654 -0.574955,-1.26915 -1.141855,-1.73369 -0.403616,-0.33074 -1.024465,-0.49658 -1.225539,-0.97894 -0.168634,-0.40454 -0.11067,-0.85672 -0.225963,-1.27216 -0.165616,-0.59677 -0.57301,-1.09174 -0.970605,-1.5505 -1.765423,-2.03702 -3.992969,-3.58186 -6.020646,-5.33655 -3.46164,-2.99559 -7.078908,-5.85236 -10.123957,-9.28314 -1.00619,-1.13365 -2.063094,-2.28552 -2.659126,-3.69363 -0.177691,-0.41979 -0.319621,-0.87612 -0.267427,-1.33726"
     id="path79"
     inkscape:original-d="m 126.68161,188.53823 c -0.3114,0.78798 -1.14247,-3.80086 -1.7057,-3.29425 -0.41217,0.37074 3.24086,5.71885 3.61206,6.27264 0.14432,0.2153 8.17354,7.20247 8.98001,7.807 1.23639,0.92681 1.89486,4.84133 2.85955,6.18238 1.20625,1.67685 4.34737,1.81922 5.2676,3.47478 0.70002,1.25937 2.64116,3.80488 3.81273,4.78346 0.50397,0.42095 3.15442,0.6532 3.4114,1.17331 0.20286,0.41058 -0.22233,0.89888 0.35119,1.12819 0.18275,0.0731 0.49895,-0.67811 0.80266,-0.54154 0.62281,0.28005 2.51864,4.19303 3.01006,5.0091 0.24701,0.41021 0.8748,0.11947 1.20403,0.4964 2.01492,2.3068 2.74023,1.22821 4.61543,2.61737 1.48605,1.10088 1.70148,3.01264 2.70904,4.42245 1.53676,2.15025 3.14921,4.1138 4.61541,6.09214 0.47618,0.64251 0.60518,2.36191 1.05352,3.24914 0.70122,1.38766 1.36852,1.10226 2.70905,1.75997 0.3248,0.15935 -0.268,0.91358 2.40805,1.80508 0.41792,0.13922 0.18572,1.17045 0.4515,1.48921 0.37101,0.44495 4.85383,3.65983 4.9666,3.70041 0.39106,0.14072 0.89865,-0.10243 1.2542,0.18049 0.84084,0.6691 1.77543,1.84752 2.60872,2.25636 0.28379,0.13924 1.24639,0.63093 1.60535,0.49639 0.15134,-0.0567 0.87174,-0.76865 0.95319,-0.72203 0.54927,0.31439 0.50927,1.54583 1.35453,1.71482 0.3999,0.0799 2.37052,-1.35295 2.70905,-1.48918 0.84383,-0.33957 1.56794,0.11269 2.35788,-0.0903 0.22101,-0.0568 0.24652,-0.768 0.25083,-0.76714 0.16611,0.0332 0.52795,0.63238 0.70234,0.72203 0.0916,0.0471 0.89917,-2.98233 0.90302,-3.11376 0.0287,-0.98167 0.59069,-1.50966 0.70235,-2.34662 0.27258,-2.04323 -0.21619,-7.81315 -1.00335,-9.43155 -2.28632,-4.70063 -7.64154,-6.17476 -10.93654,-10.78535 -2.16358,-3.02743 -6.56318,-2.4617 -9.53185,-4.24192 -1.35908,-0.81501 -2.07374,-2.53028 -3.26089,-3.38455 -1.76952,-1.27335 -3.53691,-2.45949 -5.16726,-3.92606 -1.68063,-1.51181 -4.31748,-2.0786 -6.02011,-3.61016 -1.01998,-0.91748 -2.98403,-2.80699 -3.56191,-4.10654 -1.5116,-3.39936 -2.15776,-8.24944 -6.37129,-9.38644 -3.62051,-0.97698 -12.58127,-8.34032 -15.1506,-11.28174 -1.73764,-1.98929 -2.72467,-4.48673 -4.36459,-6.4983 -0.78069,-0.95762 -2.3715,-1.31848 -3.36123,-2.03071 -1.67177,-1.20304 -3.71991,-2.89062 -5.1171,-4.28707 -1.72608,-1.72518 -2.82652,-4.20039 -4.36457,-6.13729 -0.82651,-1.04084 -2.25924,-0.5039 -3.16056,-1.08304 -1.00832,-0.64789 -2.15747,-1.76017 -3.06024,-2.57224 -1.85633,-1.66984 -3.0915,-4.04452 -4.91642,-5.686 -1.98959,-1.78961 -3.90746,-3.78562 -5.91977,-5.59576 -0.64535,-0.58052 -1.72309,-0.824 -2.508381,-1.3538 -0.459377,-0.30992 -5.652182,-4.81783 -5.819436,-5.05424 -0.643398,-0.90942 -1.58641,-1.82271 -1.956536,-2.88812 -0.162845,-0.46874 -0.254605,-1.5897 -0.602022,-2.07584 -2.223817,-3.1118 -4.448093,-5.49205 -7.123795,-8.03261 -0.444291,-0.42185 -0.53712,-1.0406 -0.903015,-1.53432 -0.122409,-0.16517 -1.452975,-1.07212 -1.505021,-1.21843 -0.442302,-1.24331 0.14333,-1.01094 -0.752528,-2.25635 -1.452801,-2.01967 -4.32453,-3.98024 -6.22078,-5.686 -2.753855,-2.4772 -13.712518,-11.14531 -13.294416,-14.53089"
     inkscape:path-effect="#path-effect81"
     clip-path="url(#clipPath249)" />
  <path
     style="fill:none;stroke:#000000;stroke-width:0.264583px;stroke-linecap:butt;stroke-linejoin:miter;stroke-opacity:1"
     d="m -2.3494629,40.476471 c 0.7423356,-1.453185 1.171122,-3.107318 2.25362555,-4.349891 0.10736846,-0.123245 0.27816605,-0.459482 0.44647461,-0.234866 0.22276981,0.297297 0.31943105,0.665138 0.4290787,1.014545 0.084823,0.2703 0.008684,0.643718 0.23204744,0.817466 1.0289348,0.800377 1.8346676,1.835946 2.6373061,2.852554 0.487921,0.617992 0.9521919,1.262276 1.5204682,1.808415 0.6715329,0.645373 1.5844389,1.016839 2.1495223,1.773738 0.6078048,0.814122 0.8151332,1.828825 1.1074095,2.780497 0.2151011,0.700384 0.5251341,1.384466 1.0230707,1.935269 0.9847928,1.08935 2.2789768,1.814345 3.4612938,2.660073 0.71472,0.511249 1.376976,1.102963 1.910934,1.806452 0.717761,0.945649 1.36106,1.942565 2.059436,2.903663 0.647773,0.891458 0.921391,1.977839 1.197691,3.026704 0.263697,1.001022 0.553471,2.033042 1.201295,2.863058 0.623367,0.79868 1.535916,1.295822 2.437224,1.717795 1.272659,0.595831 2.625857,1.040748 3.804465,1.822046 0.543286,0.360144 1.012778,0.829505 1.361296,1.382314 0.637538,1.011243 1.107941,2.114981 1.590947,3.205076 0.522235,1.178632 0.990863,2.386561 1.63031,3.508161 0.166954,0.29284 0.349001,0.585113 0.625952,0.790643 0.616536,0.457542 1.40798,0.620203 2.008261,1.093951 0.420951,0.332219 0.770574,0.744438 1.116402,1.151219 1.225492,1.441487 2.396075,2.932472 3.465293,4.493045 0.426675,0.622752 0.92325,1.215912 1.209018,1.916452 0.355303,0.870999 0.701417,1.746234 1.07146,2.61136 0.972253,2.273039 1.969787,4.546397 3.234576,6.67328 0.550836,0.926292 1.131762,1.849539 1.886106,2.627319 0.276553,0.285145 0.615337,0.497461 0.97489,0.664172 1.408562,0.653099 2.961663,0.861356 4.454739,1.237975 1.061371,0.267724 2.1669,0.582889 3.007552,1.306588 0.595386,0.512555 1.04423,1.166832 1.49437,1.803886 0.657841,0.931 1.254523,1.91913 2.060342,2.73221 0.37721,0.38061 0.828414,0.72234 1.373131,0.82132 0.850109,0.15448 1.751533,-0.0164 2.570563,0.29054 0.258756,0.097 0.559247,0.20673 0.695022,0.45356 0.139299,0.25324 -0.0081,0.54341 -0.123131,0.77543 -0.165221,0.33315 -0.473751,0.63528 -0.474438,1.01347 -5.93e-4,0.3266 0.150087,0.64384 0.353526,0.88601 0.105422,0.12549 0.299308,0.50276 0.376202,0.34415 0.06555,-0.13522 0.01848,-0.30673 0.0087,-0.45629 -0.05818,-0.89107 0.433124,-2.07071 -0.22993,-2.66865 -1.222964,-1.10287 -2.495523,-2.1531 -3.668989,-3.30866 -1.094266,-1.077572 -1.8094,-2.453703 -2.599922,-3.752077 -0.629142,-1.03332 -1.351231,-2.031886 -2.300726,-2.797887 -1.549439,-1.250002 -3.455299,-1.999796 -4.912633,-3.368298 -0.52586,-0.493806 -1.004147,-1.035527 -1.488052,-1.569692 -1.775234,-1.959615 -3.543487,-3.945129 -5.625893,-5.595806 -0.333529,-0.264381 -0.709528,-0.472414 -1.033522,-0.747696 -0.810978,-0.689048 -1.330372,-1.64606 -2.07983,-2.39202 -0.249013,-0.247851 -0.533653,-0.540508 -0.904435,-0.542871 -0.350386,-0.0022 -0.593111,0.302693 -0.754034,0.579081 -0.10599,0.18204 -0.191472,0.375279 -0.267606,0.571439"
     id="path83"
     inkscape:original-d="m -2.3494629,40.476471 c 0.7903482,-1.549485 1.3315913,-3.277706 2.45821051,-4.602956 0.3871409,-0.455396 0.8568206,1.813851 0.90301579,1.85021 1.6492472,1.298072 2.5203661,2.87124 4.0134053,4.512702 0.6572446,0.722582 1.7216824,1.149725 2.3077136,1.940472 0.9755616,1.316347 0.8973809,3.2424 1.9565368,4.512694 1.4866509,1.783003 3.8925339,2.614549 5.3177629,4.377317 0.770854,0.953412 1.454303,2.138307 2.157209,3.023515 1.472726,1.854687 1.129602,4.536202 2.709047,6.272657 1.712731,1.882995 5.531437,2.240888 7.123804,4.287073 1.279326,1.64393 2.631474,5.840478 3.762568,7.536211 0.447622,0.671074 1.796304,1.030632 2.408044,1.489192 1.011145,0.75796 5.318014,6.393598 5.819445,7.671588 1.036425,2.641526 4.501499,11.048794 6.772626,12.274561 2.353027,1.269968 5.582526,1.076846 7.675645,2.617353 1.496054,1.10108 3.166528,5.00611 4.866253,5.41525 1.111163,0.26747 2.504827,-0.08 3.361227,0.67687 0.478827,0.42316 -0.359986,1.22713 -0.501673,1.85024 -0.103021,0.45306 0.776689,1.63731 0.752509,1.17331 -0.05263,-1.00995 -0.167226,-2.0157 -0.250836,-3.02355 -1.170577,-1.05295 -2.354871,-2.09084 -3.511731,-3.15885 -1.948926,-1.799226 -2.710014,-4.603863 -4.71575,-6.408046 -1.673686,-1.505502 -4.039728,-2.359233 -5.618774,-4.016302 -2.437224,-2.557651 -4.560718,-5.367019 -7.575311,-7.400835 -1.62437,-1.095892 -3.028408,-5.006774 -4.214076,-1.940454"
     inkscape:path-effect="#path-effect85"
     clip-path="url(#clipPath271)" />
</svg>
