<?xml version="1.0" encoding="UTF-8" standalone="no"?>
<!-- Created with Inkscape (http://www.inkscape.org/) -->

<svg
   width="353.56799mm"
   height="264.16mm"
   viewBox="0 0 353.56799 264.16"
   version="1.1"
   id="svg5"
   inkscape:version="1.1.2 (08b2f3d93c, 2022-04-05)"
   sodipodi:docname="Vilosidade1.svg"
   xmlns:inkscape="http://www.inkscape.org/namespaces/inkscape"
   xmlns:sodipodi="http://sodipodi.sourceforge.net/DTD/sodipodi-0.dtd"
   xmlns="http://www.w3.org/2000/svg"
   xmlns:svg="http://www.w3.org/2000/svg">
  <sodipodi:namedview
     id="namedview7"
     pagecolor="#ffffff"
     bordercolor="#666666"
     borderopacity="1.0"
     inkscape:pageshadow="2"
     inkscape:pageopacity="0.0"
     inkscape:pagecheckerboard="0"
     inkscape:document-units="mm"
     showgrid="false"
     inkscape:zoom="0.31261654"
     inkscape:cx="1180.3598"
     inkscape:cy="580.58348"
     inkscape:window-width="1366"
     inkscape:window-height="704"
     inkscape:window-x="0"
     inkscape:window-y="27"
     inkscape:window-maximized="1"
     inkscape:current-layer="layer2" />
  <defs
     id="defs2">
    <inkscape:path-effect
       effect="simplify"
       id="path-effect300"
       is_visible="true"
       lpeversion="1"
       steps="1"
       threshold="0.000408163"
       smooth_angles="360"
       helper_size="0"
       simplify_individual_paths="false"
       simplify_just_coalesce="false" />
    <inkscape:path-effect
       effect="simplify"
       id="path-effect296"
       is_visible="true"
       lpeversion="1"
       steps="1"
       threshold="0.000408163"
       smooth_angles="360"
       helper_size="0"
       simplify_individual_paths="false"
       simplify_just_coalesce="false" />
    <inkscape:path-effect
       effect="simplify"
       id="path-effect89"
       is_visible="true"
       lpeversion="1"
       steps="1"
       threshold="0.000408163"
       smooth_angles="360"
       helper_size="0"
       simplify_individual_paths="false"
       simplify_just_coalesce="false" />
    <inkscape:path-effect
       effect="simplify"
       id="path-effect85"
       is_visible="true"
       lpeversion="1"
       steps="1"
       threshold="0.000408163"
       smooth_angles="360"
       helper_size="0"
       simplify_individual_paths="false"
       simplify_just_coalesce="false" />
    <inkscape:path-effect
       effect="simplify"
       id="path-effect81"
       is_visible="true"
       lpeversion="1"
       steps="1"
       threshold="0.000408163"
       smooth_angles="360"
       helper_size="0"
       simplify_individual_paths="false"
       simplify_just_coalesce="false" />
    <inkscape:path-effect
       effect="simplify"
       id="path-effect77"
       is_visible="true"
       lpeversion="1"
       steps="1"
       threshold="0.000408163"
       smooth_angles="360"
       helper_size="0"
       simplify_individual_paths="false"
       simplify_just_coalesce="false" />
    <inkscape:path-effect
       effect="simplify"
       id="path-effect73"
       is_visible="true"
       lpeversion="1"
       steps="1"
       threshold="0.000408163"
       smooth_angles="360"
       helper_size="0"
       simplify_individual_paths="false"
       simplify_just_coalesce="false" />
    <inkscape:path-effect
       effect="simplify"
       id="path-effect69"
       is_visible="true"
       lpeversion="1"
       steps="1"
       threshold="0.000408163"
       smooth_angles="360"
       helper_size="0"
       simplify_individual_paths="false"
       simplify_just_coalesce="false" />
    <inkscape:path-effect
       effect="simplify"
       id="path-effect65"
       is_visible="true"
       lpeversion="1"
       steps="1"
       threshold="0.000408163"
       smooth_angles="360"
       helper_size="0"
       simplify_individual_paths="false"
       simplify_just_coalesce="false" />
    <inkscape:path-effect
       effect="simplify"
       id="path-effect61"
       is_visible="true"
       lpeversion="1"
       steps="1"
       threshold="0.000408163"
       smooth_angles="360"
       helper_size="0"
       simplify_individual_paths="false"
       simplify_just_coalesce="false" />
    <inkscape:path-effect
       effect="simplify"
       id="path-effect57"
       is_visible="true"
       lpeversion="1"
       steps="1"
       threshold="0.000408163"
       smooth_angles="360"
       helper_size="0"
       simplify_individual_paths="false"
       simplify_just_coalesce="false" />
    <clipPath
       clipPathUnits="userSpaceOnUse"
       id="clipPath257">
      <path
         id="path259"
         style="fill:#ff0000;fill-opacity:1;fill-rule:nonzero;stroke:none;stroke-width:0.264583"
         d="m 330.4713,135.04809 c -47.12942,1.7e-4 -141.38827,-47.1289 -141.38827,5.2e-4 0,11.33299 -11.33299,33.99896 0,33.99896 48.77618,0 188.70478,24.15306 146.32855,0 -1.15154,-0.65634 -1.91699,-1.95556 -3.17143,-2.37976 -0.9316,-0.31503 -1.71714,-0.9861 -2.65925,-1.25832 -0.56826,-0.1642 -1.00633,-0.63771 -1.57355,-0.79323 -0.45449,-0.12461 -0.88252,-0.31748 -1.33468,-0.45217 -0.50431,-0.15023 -0.96156,-0.46428 -1.47705,-0.55182 -2.58318,-0.43867 -5.05206,-1.34331 -7.54268,-2.14819 -0.52849,-0.17079 -1.07855,-0.25465 -1.61729,-0.39068 -1.1674,-0.29476 -2.38618,-0.54385 -3.40411,-1.22456 -0.40685,-0.27207 -0.7402,-0.7706 -0.58484,-1.27492 0.21745,-0.70588 0.81038,-1.21437 1.37878,-1.64105 1.71825,-1.28985 3.65865,-2.23575 5.51611,-3.30216 1.36855,-0.78571 2.82293,-1.4958 3.95909,-2.60475 0.40953,-0.39972 0.91735,-0.91445 0.80486,-1.5271 -0.11192,-0.60954 -0.70604,-0.96625 -1.22289,-1.20229 -1.14542,-0.52309 -2.37249,-0.85677 -3.61221,-1.02908 -0.16497,-0.0229 -0.65604,-0.0631 -0.53121,-0.0618 0.37801,0.004 0.7475,0.0874 1.12143,0.13884 1.45297,0.19976 2.87438,0.62601 4.18503,1.2898 0.5558,0.28149 1.80035,1.17381 1.77061,0.55625 -0.0127,-0.26372 -0.13617,-1.03273 -0.0444,-0.83467 0.12303,0.2655 -0.0901,0.82728 0.15548,0.86071 0.30353,0.0413 0.0882,-0.51166 0.0545,-0.71046 -0.0777,-0.45731 -0.263,-0.90292 -0.27271,-1.3649 -0.02,-0.95187 -0.0371,-1.90614 0.0177,-2.85707 0.13267,-2.30147 0.66781,-4.65102 1.97167,-6.58454 0.77977,-1.15634 1.86147,-2.14155 3.17279,-2.65156 z m 3.96669,0 c 1.68069,0.6571 2.94291,2.08819 3.72294,3.68123 1.04734,2.13896 1.31917,4.56083 1.31395,6.9191 -6e-4,0.27109 -0.007,0.79622 -0.003,0.91007 0.0171,0.46267 -0.32868,1.13974 0.0669,1.38545 0.25598,0.159 0.51959,0.31025 0.80424,0.40692 0.19015,0.0646 0.37623,0.31379 0.43845,-0.0432 0.11351,-0.65123 0.24811,-1.31543 0.57383,-1.90609 0.14917,-0.27051 0.50978,-0.29753 0.72978,-0.0773 0.47727,0.47782 0.71622,1.13353 0.9283,1.7605 0.19294,0.57038 -0.05,1.44644 0.47452,1.74169 1.98657,1.1182 3.82154,2.66502 4.87516,4.72377 0.76461,1.49403 0.9888,3.29949 0.41376,4.90099 -0.46957,1.30775 -3.07045,1.70897 -2.69217,3.03751 0.47975,1.68492 0.40674,3.58202 -0.47229,5.12909 -0.30567,0.53797 -1.78981,1.42865 -1.17103,1.42865 2.94246,0 8.82737,2.94246 8.82737,0 0,-11.33281 11.33281,-33.99842 0,-33.99842 -6.27691,0 -12.55381,0 -18.83072,0 z m 2.67322,7.58868 c 0.0335,0.28717 0.21203,0.58644 0.34035,0.8614 0.41288,0.88471 0.81306,1.78636 1.38226,2.5849 0.18733,0.26281 -0.004,-0.2971 -0.0356,-0.41198 -0.16713,-0.60552 -0.28045,-1.25122 -0.62205,-1.7829 -0.28129,-0.43781 -1.49973,-1.12464 -0.98529,-1.21073 0.0811,-0.0136 -0.1103,-0.0407 -0.0797,-0.0407 z m 0.84801,3.86023 c 0.20523,0.31533 0.30654,0.73928 0.62476,0.93999 0.3506,0.22114 -0.0777,-0.26871 -0.17255,-0.3923 -0.14415,-0.18786 -0.29545,-0.37031 -0.45221,-0.54769 z m 1.51826,1.12655 c -0.0411,0.15716 0.0788,0.48384 0.0225,0.13717 -0.007,-0.0457 -0.0153,-0.0915 -0.0225,-0.13717 z m 0.0403,0.38292 c 0.013,0.0432 0.0484,-0.0129 0,0 z m 0.0305,0.009 c 0.11489,0.0544 0.55577,0.18901 0.22429,0.069 -0.0733,-0.0266 -0.15241,-0.0483 -0.22429,-0.069 z m 0.37208,0.15658 c 0.123,0.0623 0.4907,0.31543 0.41963,0.2388 -0.11364,-0.12253 -0.26802,-0.17917 -0.41963,-0.2388 z m 0.58963,0.44131 c 0.041,0.28786 -0.26356,0.92209 0.0844,0.87535 0.10637,-0.0143 0.0958,-0.43406 0.0439,-0.59859 -0.0306,-0.0972 -0.0725,-0.1913 -0.1283,-0.27676 z m -14.79135,0.60462 c -0.0567,0.0483 0.0689,0.0716 0,0 z m 13.93042,0.22582 c -0.10006,0.13496 0.0617,0.5603 0.0348,0.22968 -0.006,-0.0771 -0.012,-0.15838 -0.0348,-0.22968 z m -8.91315,15.59595 c 0.31685,0.12442 0.65987,0.18871 0.99715,0.23384 0.13571,0.0182 0.42487,-0.011 0.12893,-0.061 -0.37443,-0.0634 -0.75,-0.12043 -1.12608,-0.1728 z"
         inkscape:original-d="m 330.4713,135.04809 -141.38827,5.2e-4 v 33.99896 h 146.32855 c -1.03582,-0.59049 -2.09571,-1.36453 -3.16053,-2.36936 -0.004,-0.003 -0.007,-0.007 -0.0109,-0.0104 -0.74602,-0.24835 -1.59845,-0.66035 -2.65925,-1.25832 -0.52543,-0.14842 -1.07076,-0.44959 -1.57355,-0.79323 -0.26416,-0.0745 -0.53973,-0.17365 -0.85421,-0.31006 -0.64497,-0.17574 -1.27095,-0.40738 -1.89704,-0.68368 -2.58093,-0.43482 -5.12894,-1.18866 -7.56594,-2.14767 -0.20521,-0.0592 -0.30038,-0.0895 -0.43048,-0.12919 -0.0608,-0.011 -0.074,-0.0118 -0.14883,-0.0258 -0.55054,-0.10431 -1.09111,-0.25596 -1.63658,-0.38396 -13.66504,-3.20637 18.45427,-10.23289 4.7692,-13.35267 -0.45784,-0.10438 -0.9135,-0.21931 -1.37303,-0.31574 -0.17317,-0.0203 -0.34655,-0.0401 -0.52091,-0.0568 -0.0284,-0.003 -0.0283,-0.004 -0.0103,-0.005 0.0539,-0.001 0.26797,0.007 0.35192,0.0238 0.0599,0.0118 0.11954,0.0252 0.17931,0.0377 1.40462,0.16491 2.77021,0.45251 4.07725,1.03973 0.44691,0.18295 0.86337,0.44372 1.32604,0.58187 0.37677,0.11252 0.7588,0.20984 1.14255,0.30179 -0.0633,-0.60229 -0.0961,-1.03776 -0.0212,-0.76429 0.0696,0.25324 0.0816,0.51684 0.092,0.78083 0.0537,0.0127 0.10748,0.0253 0.16124,0.0377 0.006,-0.0582 0.019,-0.14784 0.0305,-0.23357 -0.11499,-0.59862 -0.22683,-1.19816 -0.3669,-1.78904 -0.003,-0.13262 -0.009,-0.12428 -0.0161,-0.48162 0.003,-0.4458 0.003,-0.31047 0,-0.50695 0,-0.30765 -5e-5,-0.61529 0,-0.92294 -5e-5,-0.015 -1.3e-4,-0.03 0,-0.045 0.0431,-5.71892 2.39692,-9.13041 5.17435,-10.21747 z m 3.96669,0 c 2.73045,1.07203 5.01711,4.42067 5.0369,10.07276 2.1e-4,0.0638 0,0.12793 0,0.19172 -3e-5,0.29862 0,0.59694 0,0.89556 0,0.15237 -0.004,0.79295 -0.003,0.35036 0.004,0.15293 0.0111,0.52296 0.008,0.91261 0.0172,0.13974 0.0387,0.31093 0.0589,0.47284 0.0475,0.0283 0.15272,0.0917 0.23411,0.14004 0.14943,0.0537 0.28101,0.11673 0.39428,0.19121 0.17719,0.0746 0.39492,0.17307 0.58293,0.25424 0.21701,-1.61918 0.56494,-2.33265 0.95755,-2.36368 v -5.3e-4 c 0.6042,-0.0478 1.3049,1.48932 1.78025,3.66128 7.03405,3.9525 6.9506,10.3047 2.59675,12.66227 0.75499,2.7244 0.0209,5.11484 -1.64332,6.55774 h 8.82737 v -33.99842 z m 2.67322,7.58868 c -0.0233,0.003 -0.0206,0.0429 0.0169,0.12971 0.97115,2.24016 1.49757,3.09008 1.79578,3.42511 -0.16063,-0.69633 -0.34353,-1.38509 -0.61238,-2.04535 -0.19277,-0.47342 -1.07447,-1.52604 -1.20044,-1.50947 z m 0.84801,3.86023 c 0.25427,0.39006 0.43905,0.66373 0.62476,0.93999 0.0541,0.0249 0.11512,0.0598 0.17053,0.0868 -0.22643,-0.3404 -0.48916,-0.68033 -0.79529,-1.02681 z m 1.51826,1.12655 c 0,0.0596 -0.003,0.11765 -0.003,0.17621 0.0132,0.0615 0.0138,0.0687 0.0254,0.12196 0.007,0.004 0.0127,0.006 0.0196,0.0103 0.003,8e-4 0.008,0.005 0.009,0.006 -0.019,-0.11897 -0.0251,-0.15752 -0.0512,-0.31419 z m 0.0403,0.38292 c 2.1e-4,0.001 0,0.002 0,0.003 0.008,0.003 0.0161,0.006 0.0238,0.009 -1.8e-4,-0.001 0,-0.003 0,-0.005 -0.008,-0.002 -0.0151,-0.005 -0.0233,-0.007 z m 0.0305,0.009 c 2.6e-4,0.002 0,0.004 0,0.006 0.1212,0.0486 0.24349,0.098 0.37105,0.15089 -0.0587,-0.0352 -0.0957,-0.0574 -0.14676,-0.0879 -0.0704,-0.0253 -0.14706,-0.0474 -0.22532,-0.0687 z m 0.37208,0.15658 c 0.18032,0.10813 0.34412,0.20684 0.46974,0.28887 -0.0645,-0.0684 -0.13814,-0.13023 -0.22222,-0.18552 -0.0833,-0.0351 -0.16671,-0.0699 -0.24752,-0.10335 z m 0.58963,0.44131 c -0.0217,0.25619 -0.0497,0.51163 -0.0749,0.7674 0.0725,0.0497 0.14409,0.0972 0.20928,0.14211 0.0132,-0.14865 0.0265,-0.30009 0.0408,-0.4408 -0.0325,-0.1789 -0.0886,-0.33607 -0.17518,-0.46871 z m -14.79135,0.60462 c 0,0.0141 -0.003,0.0283 -0.003,0.0424 0.004,7.9e-4 0.008,0.002 0.0114,0.003 -0.003,-0.015 -0.006,-0.0299 -0.009,-0.045 z m 13.93042,0.22582 c -0.007,0.0324 -0.0154,0.0696 -0.0243,0.10698 0,0.0589 0,0.1414 -0.003,0.21911 0.0251,0.019 0.0486,0.0346 0.0734,0.0527 -0.007,-0.0995 -0.0146,-0.1989 -0.0259,-0.29766 -0.007,-0.0271 -0.014,-0.0542 -0.0217,-0.0811 z m -8.91315,15.59595 c 0.0376,0.0175 0.0756,0.0342 0.11316,0.0517 0.27892,0.0593 0.55814,0.11856 0.83717,0.17673 0.10194,0.0212 0.41317,-0.0149 0.31057,-0.0326 -0.48689,-0.0841 -0.89184,-0.14423 -1.2609,-0.19586 z" />
    </clipPath>
  </defs>
  <g
     inkscape:groupmode="layer"
     id="layer2"
     inkscape:label="Vilosidade 1">
    <path
       style="fill:none;stroke:#000000;stroke-width:0.264583px;stroke-linecap:butt;stroke-linejoin:miter;stroke-opacity:1"
       d="m 104.63739,183.97352 c 0.69439,-0.16779 1.39762,-0.30572 2.06993,-0.55728 0.95907,-0.35886 1.8892,-0.80123 2.8727,-1.08959 0.40601,-0.11904 0.83283,-0.13988 1.25283,-0.16087 1.44204,-0.0721 2.90875,0.10175 4.32833,-0.21978 0.48337,-0.10948 0.97675,-0.24315 1.39226,-0.51807 0.61649,-0.4079 1.02219,-1.05763 1.66608,-1.43882 1.73767,-1.02871 3.30298,-2.34907 5.15212,-3.18598 1.56019,-0.70613 3.2795,-0.94128 4.97157,-1.08304 1.80398,-0.15114 3.66679,-0.0674 5.39753,-0.62591 0.61838,-0.19954 0.911,-0.91544 1.51991,-1.10599 0.36232,-0.11338 0.71567,-0.25432 1.05711,-0.42143 1.00598,-0.49235 1.94339,-1.12077 2.98634,-1.53926 0.35441,-0.14221 0.73243,-0.20213 1.11078,-0.24202 1.14412,-0.12064 2.29637,-0.23784 3.44732,-0.17278 0.47643,0.0269 0.95408,0.10922 1.39156,0.31754 0.33351,0.15881 0.63198,0.42282 0.75257,0.7812 0.12567,0.37348 0.18902,0.76631 0.22955,1.15706 0.0655,0.63133 -0.0518,1.29722 -0.42097,1.82486 -0.44515,0.63625 -1.12114,1.05238 -1.77375,1.44547 -0.47766,0.28771 -1.79551,1.30501 -1.4056,0.90647 0.22244,-0.22736 0.47809,-0.4248 0.72031,-0.6323 0.42062,-0.36034 0.85189,-0.7101 1.32501,-1.00097 0.75849,-0.46631 1.55039,-0.87523 2.34759,-1.26994 1.28438,-0.63592 2.59101,-1.2337 3.93933,-1.71975 0.61409,-0.22137 1.22762,-0.48468 1.87941,-0.5549 1.16773,-0.1258 2.33932,-0.48538 3.28355,-1.17395 0.31301,-0.22826 0.50183,-0.59539 0.87472,-0.7581 0.88899,-0.3879 1.84566,-0.65244 2.6386,-1.2329 0.81181,-0.59427 1.49391,-1.35736 2.35844,-1.87971 0.26418,-0.15962 0.51969,-0.36054 0.82139,-0.43203 0.61175,-0.14497 1.24174,-0.19429 1.86676,-0.24417 2.60513,-0.20791 5.21815,-0.31508 7.83086,-0.3462 1.5498,-0.0185 3.10164,-0.0348 4.64997,0.0535 0.43401,0.0248 0.86909,0.0946 1.27185,0.26676 0.71774,0.30673 1.33914,0.78501 2.00128,1.19078 0.70347,0.4311 1.42088,0.85094 2.05463,1.38349 0.30846,0.2592 0.54972,0.59657 0.67655,0.98082 0.17975,0.54459 0.38765,1.0812 0.66346,1.58551 0.2619,0.47888 0.55419,0.9423 0.91264,1.35716 0.35045,0.4056 0.7101,0.82871 0.86484,1.35524 0.24946,0.84881 0.3439,1.73273 0.45552,2.60741 0.1568,1.22871 0.23486,2.47739 0.56479,3.67421 0.11942,0.4332 0.24407,0.88981 0.54278,1.23724 0.14502,0.16867 0.35958,0.24363 0.52722,0.38762 0.76681,0.65863 1.37096,1.49852 2.19661,2.08699 0.26481,0.18874 0.57716,0.44915 0.9115,0.36559 0.39421,-0.0985 0.69617,-0.42225 0.87619,-0.77304 0.3519,-0.68574 0.43784,-1.47225 0.45272,-2.23126 0.0301,-1.53363 -0.17739,-3.06322 -0.48853,-4.56106 -0.18175,-0.87496 -0.37238,-1.75256 -0.69959,-2.58809 -0.45049,-1.15034 -1.0863,-2.23111 -1.40468,-3.4302 -0.24766,-0.93275 -0.33474,-1.89732 -0.46368,-2.85093"
       id="path55"
       inkscape:path-effect="#path-effect57"
       inkscape:original-d="m 104.63739,183.97352 c 0.47886,-0.11339 0.96167,-0.21125 1.43658,-0.34019 0.75481,-0.20493 3.13642,-1.27984 3.80689,-1.37866 2.10088,-0.30964 4.48524,0.23787 6.44946,-0.70072 0.71143,-0.33995 1.11383,-1.11269 1.79831,-1.5115 1.94048,-1.13063 3.78362,-2.74029 5.90554,-3.50908 3.10294,-1.12424 6.49654,-0.67398 9.64446,-1.42233 0.67101,-0.15952 1.06624,-0.98276 1.69779,-1.16405 1.43553,-0.41208 3.32241,-1.96568 4.72544,-2.12629 1.07585,-0.12316 3.86028,-0.42865 4.88346,-0.0117 0.96767,0.39428 1.0501,0.80912 1.20266,1.69855 0.4575,2.66721 -1.62187,3.14331 -3.46974,4.48341 -0.40067,0.29057 0.73577,-0.66261 1.11662,-0.97873 0.83027,-0.68915 1.93633,-1.2044 2.88714,-1.71175 1.20071,-0.6407 4.89025,-2.29638 6.1553,-2.4366 1.14709,-0.12714 2.22661,-0.56162 3.19654,-1.13344 0.31087,-0.18327 0.49935,-0.59752 0.82827,-0.74855 0.72898,-0.33471 1.59205,-0.5785 2.32861,-1.00914 1.13824,-0.6655 1.94517,-1.8098 3.46823,-2.53805 0.98474,-0.47085 13.33743,-0.88382 15.16241,-0.49879 0.90065,0.19002 1.58209,0.78125 2.35309,1.23838 4.04325,2.39722 2.14013,1.81913 4.07616,4.8495 0.35832,0.56086 0.98838,1.07818 1.23741,1.69809 0.72276,1.79912 0.61208,7.3 1.87264,7.94664 0.83831,0.43004 2.6153,3.0099 3.52498,2.63325 2.28681,-0.94686 0.72509,-7.73133 0.3991,-9.00692 -0.36648,-1.43404 -1.16144,-2.71691 -1.64042,-4.1082 -0.34725,-1.00867 -0.4548,-2.24011 -0.59672,-3.28855" />
    <path
       style="fill:none;stroke:#000000;stroke-width:0.264583px;stroke-linecap:butt;stroke-linejoin:miter;stroke-opacity:1"
       d="m 189.0876,168.89812 c 0.66299,-0.0236 1.343,0.0864 1.99099,-0.069 0.50464,-0.12102 0.92165,-0.49288 1.17796,-0.91406 0.36533,-0.60032 0.53786,-1.29241 0.75258,-1.95577 0.2923,-0.90305 0.53419,-1.84376 1.10096,-2.62754 1.02553,-1.4182 2.63207,-2.21632 3.908,-3.36973 1.14476,-1.03484 1.78968,-2.49781 2.98745,-3.49199 1.46551,-1.21642 3.31471,-1.9648 5.19668,-2.12331 0.79572,-0.067 1.59914,-0.0518 2.38063,-0.29039 0.46474,-0.14191 0.97567,-0.11373 1.40132,-0.40368 1.04694,-0.71315 1.84816,-1.7949 3.07026,-2.24188 1.41584,-0.51784 2.98991,-0.0641 4.40387,-0.52898 0.81884,-0.26921 1.46189,-0.95951 2.35346,-1.041 0.99848,-0.0913 2.06976,-0.12182 2.97423,0.38182 0.39845,0.22187 0.75304,0.51257 1.15362,0.7321 0.52097,0.2855 0.82283,0.83774 0.95031,1.4007 0.37054,1.63632 0.0448,3.34566 0.45104,4.97965 0.16447,0.66148 0.56275,1.22463 0.92534,1.78836 0.42545,0.66147 0.91372,1.27779 1.42011,1.88736 0.29787,0.35856 0.67846,0.0174 0.95912,-0.18022 1.05265,-0.74128 1.76963,-1.88958 2.08716,-3.1294 0.30355,-1.18522 0.37662,-2.42123 0.32314,-3.63839 -0.0359,-0.81778 -0.19858,-1.67843 0.0914,-2.46202 0.17807,-0.48118 0.63728,-0.78532 1.05936,-1.03213 0.89552,-0.52366 1.83784,-0.93512 2.72229,-1.50645 0.72592,-0.46893 1.64489,-0.52022 2.47182,-0.39964 0.38473,0.0561 0.79564,0.0783 1.12587,0.31003 0.303,0.21264 0.67632,0.0125 0.95907,-0.13874 0.55067,-0.29445 1.08165,-0.65547 1.72841,-0.72892 1.42418,-0.16175 2.89209,0.38645 4.27693,8.3e-4 1.10102,-0.30659 2.17229,-0.717 3.21847,-1.1734 0.65684,-0.28655 1.38279,-0.47368 1.94542,-0.92125 0.64283,-0.51137 1.03904,-1.32094 1.81291,-1.66539 0.46306,-0.20611 0.96171,0.0215 1.35133,0.27249 0.28094,0.181 0.60785,0.2426 0.93875,0.26495 0.46886,0.0317 0.76999,0.46136 0.97722,0.83301 0.62851,1.12719 0.6182,2.52831 1.4264,3.56561 0.55222,0.70876 1.44271,1.11867 1.87424,1.91622 0.24845,0.45919 0.35319,0.97673 0.65696,1.41705 0.4682,0.67867 1.10689,1.23917 1.50776,1.95811 0.35228,0.6318 0.0471,1.4521 0.46897,2.05021 0.20973,0.29731 0.58412,0.35565 0.89028,0.51576 0.64682,0.33826 1.28625,0.80159 2.03601,0.83332 0.45434,0.0192 0.81692,-0.33116 1.08185,-0.6555 0.63091,-0.77239 0.65126,-1.82793 0.61447,-2.77815 -0.0439,-1.13362 -0.27229,-2.29775 0.0384,-3.41253 0.24473,-0.87816 0.96206,-1.50927 1.69353,-1.99884 0.73773,-0.49376 1.465,-1.03871 1.95328,-1.80366 0.42933,-0.67259 0.43494,-1.69349 1.1354,-2.10104 0.42157,-0.24528 0.9248,-0.2903 1.39939,-0.35596 0.95856,-0.13262 1.94107,-0.0762 2.88892,-0.26609 0.48782,-0.0977 0.85708,-0.45335 1.34651,-0.57679 1.97322,-0.49766 3.83425,-1.41077 5.88463,-1.62501 0.72411,-0.0757 1.4436,0.0758 2.16893,0.0644 0.81206,-0.0128 1.72864,-0.0734 2.34772,-0.65382 0.37618,-0.35272 0.616,-0.97192 1.16391,-1.03874 1.24375,-0.15167 2.53467,-0.12401 3.72414,-0.52377 0.82903,-0.27862 1.59563,-0.69901 2.38982,-1.06388 0.60686,-0.27881 1.18655,-0.62462 1.85484,-0.76222 2.02467,-0.41687 4.12261,-0.54495 6.07677,-1.24996 1.58813,-0.57296 2.99559,-1.72262 4.69815,-1.88799 1.21179,-0.1177 2.43371,-0.12149 3.64857,-0.0711 0.91887,0.0381 1.87699,-0.0635 2.75263,0.2289 0.89958,0.30035 1.66109,0.8966 2.57531,1.17791 1.18382,0.36427 2.44921,0.17831 3.64069,0.51228 1.52778,0.42823 2.86988,1.32398 4.12496,2.26546 1.15438,0.86594 2.30241,1.74009 3.49519,2.55429 0.91121,0.622 1.87073,1.19785 2.94233,1.50552 0.85423,0.24526 1.74861,0.52988 2.37592,1.19535 1.37567,1.45935 2.53026,3.24573 2.84076,5.23485 0.10178,0.65202 0.11723,1.32236 0.39766,1.94112 0.55071,1.21514 1.24859,2.41919 1.36911,3.76781 0.0453,0.50646 0.0729,1.18612 -0.37978,1.47147 -0.46929,0.29579 -1.04201,0.35207 -1.58112,0.40338 -1.28383,0.12219 -2.9359,0.98383 -3.86427,0.0912 -0.1477,-0.14202 0.30819,-0.27549 0.44136,-0.34233 0.44779,-0.22476 0.96425,-0.35708 1.33148,-0.70734 1.17131,-1.11719 2.03454,-2.50847 2.77512,-3.92896 0.63605,-1.21999 1.06815,-2.56061 1.89351,-3.6702 0.18669,-0.25098 0.41313,-0.51605 0.79473,-0.44919 1.58178,0.27713 3.12181,0.78583 4.71431,0.98678 2.11936,0.26743 4.28662,0.0918 6.37968,0.58323 0.61924,0.14539 1.18318,0.44968 1.68809,0.84269 0.39896,0.31054 0.77247,0.67355 1.28315,0.81426 0.18219,0.0502 0.35447,0.14846 0.46574,0.30433"
       id="path59"
       inkscape:path-effect="#path-effect61"
       inkscape:original-d="m 189.0876,168.89812 c 2.2586,-0.0212 2.11019,0.11498 3.10229,-0.90205 0.4698,-0.48161 1.03327,-3.032 1.47297,-3.92441 0.98379,-1.99667 3.09126,-2.86789 4.52638,-4.27179 0.92319,-0.9031 1.52437,-2.15804 2.45997,-3.01922 1.49777,-1.37863 3.28881,-2.06457 5.199,-2.38756 0.96956,-0.16395 1.71573,0.0333 2.69663,-0.32361 0.40195,-0.14627 0.91825,-0.0846 1.2957,-0.32258 1.03196,-0.65062 1.82998,-1.73044 2.94399,-2.22742 1.43257,-0.63911 2.97903,-0.29268 4.46751,-0.58495 0.89924,-0.17657 1.5356,-1.00841 2.55972,-1.09371 1.34506,-0.11204 2.37807,-0.11766 3.49193,0.71255 0.37047,0.27613 0.84557,0.45651 1.13778,0.82365 1.19038,1.49559 0.11724,4.98818 1.26407,6.81878 0.24525,0.39147 1.87604,3.29485 2.43216,2.96711 2.55826,-1.5077 2.92958,-3.99524 2.92958,-6.76047 0,-0.79887 -0.29319,-2.53757 0.29599,-3.17221 0.9372,-1.00951 2.41833,-1.21436 3.44863,-2.07893 0.79614,-0.66809 2.37619,-0.59184 3.3623,-0.35766 0.17892,0.0425 0.45006,0.2801 0.60499,0.27476 0.65427,-0.0225 1.41079,-0.80366 2.15837,-0.92571 1.47285,-0.24045 2.97523,0.16987 4.44149,-0.0159 0.64402,-0.0816 4.63377,-1.65443 5.24373,-2.09201 0.68433,-0.49093 1.38947,-1.89566 2.36848,-1.75821 0.4583,0.0643 0.78234,0.36019 1.19673,0.52034 0.2955,0.11421 0.72007,0.018 0.98547,0.23533 1.14579,0.93809 1.03797,2.90338 1.8933,4.1222 0.48657,0.69334 1.28304,1.15051 1.81676,1.81775 0.37966,0.47464 0.36967,0.99967 0.69577,1.47866 0.4799,0.70489 1.01079,1.35242 1.55269,2.02376 0.53716,0.66547 -0.0415,2.11435 0.94488,2.43596 0.6219,0.20277 2.20169,1.44132 2.98396,0.94614 2.2936,-1.45185 0.56433,-4.78293 1.31861,-6.87987 0.53962,-1.50014 2.09404,-1.92723 3.06448,-2.95567 0.94925,-1.00603 0.95994,-1.95958 1.62666,-2.75861 0.3619,-0.43371 3.54859,-0.5833 4.2404,-0.64924 0.4894,-0.0467 0.81851,-0.43786 1.26939,-0.54766 2.38972,-0.58198 4.18928,-1.6903 6.67914,-1.6903 1.07306,0.0962 2.81448,0.26469 3.77421,-0.46646 0.41282,-0.3145 0.77621,-1.08403 1.33031,-1.14608 1.15731,-0.1296 2.34853,-0.24865 3.4882,-0.46878 0.61141,-0.11809 1.73148,-0.79593 2.35562,-1.02206 0.57904,-0.2098 1.19396,-0.66249 1.80054,-0.7938 1.93626,-0.41917 3.99088,-0.59048 5.9091,-1.16158 1.72302,-0.51299 3.27682,-1.67773 5.04928,-2.01922 0.83233,-0.16036 5.69164,-0.15134 6.586,0.17271 0.70453,0.25527 1.3645,0.75119 2.07451,1.01425 1.98651,0.73602 3.00971,-0.0296 5.49027,1.20751 2.00079,0.99785 3.64844,2.52997 5.50712,3.79988 0.90136,0.61583 2.04391,1.44184 3.07953,1.79474 1.16214,0.39603 2.14314,0.51372 3.03357,1.49776 1.30714,1.44456 2.20195,3.04804 2.66846,4.88057 0.14662,0.57597 0.0924,1.28088 0.30573,1.83582 0.42956,1.11739 2.22732,4.08012 1.22088,5.47259 -0.50737,0.70196 -4.4191,0.59539 -5.42538,0.59539 -0.77044,0 1.22183,-0.64859 1.6053,-1.00586 1.1665,-1.08681 1.93546,-2.49799 2.75592,-3.85144 0.49333,-0.8138 1.64213,-3.86709 2.45171,-4.27529 0.16408,-0.0827 4.80865,0.98395 4.97529,1.00724 2.08857,0.29189 5.21774,0.0424 7.15558,0.82517 0.70364,0.28421 1.14467,0.81734 1.73827,1.22438 0.32999,0.22628 0.69592,0.1328 0.97195,0.5017"
       clip-path="url(#clipPath257)" />
    <path
       style="fill:none;stroke:#000000;stroke-width:0.264583px;stroke-linecap:butt;stroke-linejoin:miter;stroke-opacity:1"
       d="m 353.08383,162.50879 c 0.0842,0.14812 0.12498,0.31642 0.15184,0.48319 0.053,0.32918 0.061,0.66382 0.0556,0.99652 -0.0102,0.63628 -0.066,1.27078 -0.1308,1.90349 -0.0984,0.96 -0.23172,1.9161 -0.32774,2.87632 -0.0387,0.38659 -0.0805,0.77393 -0.0821,1.1627 -6.7e-4,0.16418 -0.0198,0.33565 0.0338,0.4916 0.0131,0.0382 0.0113,0.0926 0.0476,0.11531 0.0832,0.0521 0.1708,0.0967 0.25685,0.14377 0.13812,0.0756 0.27938,0.1466 0.41009,0.23463 0.0249,0.0167 0.05,0.0335 0.0717,0.0545"
       id="path63"
       inkscape:path-effect="#path-effect65"
       inkscape:original-d="m 353.08383,162.50879 c 0.7071,1.21344 -0.64235,7.21512 -0.26582,8.01727 0.0138,0.0295 0.65034,0.34183 0.75268,0.44472" />
    <path
       style="fill:none;stroke:#000000;stroke-width:0.264583px;stroke-linecap:butt;stroke-linejoin:miter;stroke-opacity:1"
       d="m 353.568,264.16 c -1.86062,-0.24344 -3.89453,0.0909 -5.58187,-0.73031 -0.0529,-0.0258 -0.0528,-0.0989 -0.0568,-0.14967 -0.0156,-0.20033 -0.006,-0.40162 0.004,-0.60197 0.0343,-0.7336 0.0783,-1.46799 0.0534,-2.20262 -0.0178,-0.52616 -0.0582,-1.05616 -0.19289,-1.56659 -0.0845,-0.32003 -0.20542,-0.63796 -0.4112,-0.90103 -0.15228,-0.19467 -0.36345,-0.34549 -0.60351,-0.4107 -0.29675,-0.0806 -0.61233,-0.0384 -0.90176,0.0513 -0.30801,0.0954 -0.6031,0.23724 -0.86321,0.42824 -0.21194,0.15563 -0.40578,0.34601 -0.52737,0.58155 -0.0763,0.14783 -0.11576,0.3113 -0.14932,0.47307 -0.0894,0.43103 -0.13921,0.86922 -0.17795,1.3073 -0.0794,0.89804 -0.11673,1.79982 -0.11447,2.70125 0.002,0.64571 0.0121,1.29296 0.0827,1.93516 0.0303,0.27558 0.0653,0.55245 0.142,0.81958 0,0 0.005,0.0158 0.005,0.0158"
       id="path67"
       inkscape:path-effect="#path-effect69"
       inkscape:original-d="m 353.568,264.16 c -1.86063,-0.24344 -3.72417,-0.46546 -5.58187,-0.73031 -0.35202,-0.0502 1.0069,-6.67498 -2.06398,-5.79464 -0.54629,0.1566 -1.21026,0.53845 -1.4568,1.0661 -0.41788,0.89443 -0.59928,5.8779 -0.19108,7.20917" />
    <path
       style="fill:none;stroke:#000000;stroke-width:0.264583px;stroke-linecap:butt;stroke-linejoin:miter;stroke-opacity:1"
       d="m 333.46114,263.17721 c -0.41128,-1.60645 -0.51166,-3.27124 -0.54646,-4.923 -0.0412,-1.95586 0.005,-3.92209 -0.27296,-5.86415 -0.0778,-0.54366 -0.2236,-1.07464 -0.32125,-1.61502 -0.0557,-0.30797 0.0711,-0.61824 0.007,-0.92586 -0.20153,-0.96539 -0.56221,-1.89479 -0.68561,-2.87699 -0.0688,-0.54799 -0.0296,-1.10105 -0.0181,-1.6511 0.0116,-0.55515 0.0214,-1.11839 -0.10225,-1.66278 -0.075,-0.33019 -0.20583,-0.6456 -0.35718,-0.9474 -0.31961,-0.63734 -0.78594,-1.18775 -1.29586,-1.68094 -0.65622,-0.6347 -1.37492,-1.2054 -1.9856,-1.88639 -0.58166,-0.64863 -1.09464,-1.3547 -1.66285,-2.01475 -0.48372,-0.56191 -0.99729,-1.11265 -1.62095,-1.52161 -0.43869,-0.28767 -0.95119,-0.48726 -1.48266,-0.48197 -0.54728,0.005 -1.07083,0.23437 -1.50265,0.55845 -0.1523,0.1143 -0.29921,0.23583 -0.4581,0.34149 -0.34676,0.23059 -0.72011,0.43293 -1.00857,0.73965 -0.20121,0.21395 -0.32588,0.48775 -0.41284,0.76476 -0.19078,0.60774 -0.17929,1.25904 -0.0883,1.88326 0.12924,0.88686 0.42407,1.73689 0.7006,2.58608 0.37546,1.15299 0.58101,2.35335 0.71521,3.55631 0.11328,1.01546 0.14481,2.03984 0.28864,3.05135 0.0545,0.38348 0.24633,0.72712 0.42742,1.06323 0.16695,0.30986 0.35629,0.62452 0.39759,0.97914 0.0195,0.1676 0.0263,0.33642 0.0403,0.50461 0.0798,0.96317 0.23777,1.9185 0.30851,2.88232 0.0859,1.16986 -0.0152,2.3416 -0.0473,3.51145 -0.0272,0.99165 -0.0145,1.99522 0.20669,2.96746 0.0541,0.23773 0.13152,0.46945 0.17413,0.71018 0.0891,0.50323 0.0773,1.01974 0.18778,1.51968 0.0671,0.30357 0.20461,0.59872 0.43427,0.81427 0.12274,0.1152 0.26675,0.20614 0.41917,0.27672"
       id="path71"
       inkscape:path-effect="#path-effect73"
       inkscape:original-d="m 333.46114,263.17721 c -1.03777,-4.06406 -0.0908,-8.31866 -1.1312,-12.35966 -0.0772,-0.29997 0.0627,-0.65165 0,-0.95563 -0.22436,-1.08694 -0.6754,-2.17563 -0.72178,-3.29512 -0.0393,-0.94805 0.15087,-2.25762 -0.16579,-3.19239 -0.68519,-2.02275 -2.32449,-2.81104 -3.68831,-4.37526 -1.66812,-1.91319 -3.64871,-5.35977 -6.3277,-3.17073 -0.4663,0.38103 -1.1716,0.64733 -1.49013,1.22637 -0.76346,1.38778 -0.12256,3.35842 0.35737,4.78423 0.76703,2.2789 0.80962,4.36183 1.04987,6.71198 0.0811,0.79383 0.79576,1.45557 0.84259,2.20246 0.065,1.03637 0.22243,2.05787 0.32218,3.09893 0.21336,2.22659 -0.37089,4.84524 0.26247,6.99317 0.33739,1.14427 -0.0779,2.43068 1.12802,2.9901" />
    <path
       style="fill:none;stroke:#000000;stroke-width:0.264583px;stroke-linecap:butt;stroke-linejoin:miter;stroke-opacity:1"
       d="m 300.86945,264.68657 c 0.12168,-0.25188 0.10336,-0.54703 0.0249,-0.80863 -0.12159,-0.40541 -0.34763,-0.77021 -0.59392,-1.1105 -0.58179,-0.80383 -1.30262,-1.49132 -1.95443,-2.23605 -0.17354,-0.19828 -0.35243,-0.39554 -0.48709,-0.62329 -0.0648,-0.10961 -0.0948,-0.23436 -0.13857,-0.35294 -0.20254,-0.54883 -0.48857,-1.07235 -0.88347,-1.50762 -0.42649,-0.47009 -0.96978,-0.81042 -1.51037,-1.13464 -0.15188,-0.0911 -0.31016,-0.17121 -0.45666,-0.27155 -0.17708,-0.12128 -0.35369,-0.2529 -0.5612,-0.31737 -0.0952,-0.0296 -0.19674,-0.022 -0.29267,0.009 -0.39522,0.12654 -0.74825,0.37649 -1.00064,0.70627 -0.32524,0.42496 -0.49541,0.94664 -0.58933,1.46751 -0.14216,0.78841 -0.13771,1.59384 -0.11153,2.39167 0.0193,0.58867 0.0485,1.17694 0.0557,1.7661 0.007,0.57884 0.0827,1.15365 0.12714,1.73026 0.008,0.10877 0.0331,0.2192 0.0155,0.32732 -0.0103,0.0634 -0.0853,0.002 -0.11531,-0.0163 -0.22878,-0.13776 -0.43744,-0.30605 -0.64335,-0.47517 -0.67981,-0.55836 -1.33498,-1.14638 -1.97293,-1.75184 -0.41111,-0.39017 -0.82324,-0.78049 -1.20549,-1.19934 -0.1034,-0.1133 -0.20145,-0.23271 -0.27528,-0.36804 -0.20272,-0.37155 -0.34182,-0.77837 -0.58504,-1.12689 -0.0944,-0.13528 -0.20209,-0.27917 -0.36036,-0.3385 -0.15326,-0.0575 -0.32104,-0.0575 -0.48207,-0.0505 -0.47252,0.0208 -0.93976,0.10537 -1.40121,0.20451 -0.90612,0.19467 -1.80262,0.43853 -2.67658,0.7468 -0.43002,0.15168 -0.867,0.29681 -1.26517,0.52066 -0.12305,0.0692 -0.25759,0.13349 -0.3464,0.24596 -0.15458,0.19575 -0.22862,0.43866 -0.28871,0.67687 -0.0655,0.25972 -0.13695,0.52331 -0.28226,0.75198 -0.16873,0.26554 -0.42572,0.46276 -0.69898,0.6116 -0.28129,0.15321 -0.59541,0.22876 -0.90737,0.29097 -0.28141,0.0561 -0.57214,0.11334 -0.81682,0.27272 -0.19259,0.12545 -0.34027,0.30909 -0.45034,0.50885"
       id="path75"
       inkscape:path-effect="#path-effect77"
       inkscape:original-d="m 300.86945,264.68657 c 0.67789,-1.4251 -2.79776,-4.09314 -3.06906,-4.90448 -0.55586,-1.66221 -1.39374,-2.27089 -2.77193,-3.03784 -0.22257,-0.12385 -0.65347,-0.52093 -0.9593,-0.42831 -2.29177,0.69406 -1.69992,4.27847 -1.69992,6.21443 0,1.14479 0.21603,2.25132 0.12369,2.22086 -0.49374,-0.16287 -3.68755,-3.10839 -4.10266,-3.69495 -0.28186,-0.39827 -0.57634,-1.41984 -1.03518,-1.6105 -0.82087,-0.34109 -5.71328,1.07831 -6.17143,1.66748 -0.41585,0.53478 -0.19757,1.23246 -0.91459,1.80532 -1.02518,0.81904 -1.93542,0.23671 -2.52989,1.30767" />
    <path
       style="fill:none;stroke:#000000;stroke-width:0.264583px;stroke-linecap:butt;stroke-linejoin:miter;stroke-opacity:1"
       d="m 246.91008,265.1615 c 0.0936,-0.70206 0.11322,-1.42286 -0.0333,-2.11944 -0.11133,-0.52929 -0.3356,-1.03537 -0.66238,-1.46753 -0.36978,-0.48903 -0.85828,-0.87414 -1.37539,-1.19673 -0.71105,-0.44358 -1.47442,-0.79293 -2.21414,-1.18438 -0.73124,-0.38696 -1.45053,-0.81592 -2.05899,-1.38112 -0.0871,-0.0809 -0.176,-0.16066 -0.24983,-0.2544 -0.17453,-0.22161 -0.33848,-0.45139 -0.51547,-0.6711 -0.17605,-0.21854 -0.35445,-0.43895 -0.57101,-0.61864 -0.10057,-0.0835 -0.2092,-0.16505 -0.33712,-0.20025 -0.0718,-0.0198 -0.15298,-0.0123 -0.215,0.0321 -0.45662,0.32638 -0.80918,0.78084 -1.0661,1.27633 -0.32506,0.6269 -0.51748,1.31396 -0.64271,2.00619 -0.17814,0.98471 -0.22968,1.98725 -0.24303,2.98629 -0.0116,0.87045 0.0162,1.74072 0.0193,2.61111 0,0 2e-5,0.0304 2e-5,0.0304"
       id="path79"
       inkscape:path-effect="#path-effect81"
       inkscape:original-d="m 246.91008,265.1615 c 0.70522,-5.23761 -3.79995,-4.85319 -6.50469,-7.50094 -0.2489,-0.24366 -1.27324,-1.88712 -1.72794,-1.56058 -2.30291,1.6538 -1.9325,6.32514 -1.9325,8.91031" />
    <path
       style="fill:none;stroke:#000000;stroke-width:0.264583px;stroke-linecap:butt;stroke-linejoin:miter;stroke-opacity:1"
       d="m 198.01391,265.77324 c -0.15817,-2.45905 0.14885,-4.93096 -0.13119,-7.38407 -0.0698,-0.61153 -0.14249,-1.22982 -0.33319,-1.81567 -0.23144,-0.711 -0.76518,-1.28695 -0.95184,-2.01486 -0.15573,-0.60728 -0.0928,-1.23932 -0.0647,-1.85764 0.0212,-0.46667 0.0444,-0.94679 -0.0898,-1.39861 -0.0962,-0.3241 -0.34683,-0.56773 -0.51475,-0.85456 -0.12712,-0.21713 -0.14728,-0.47623 -0.16717,-0.72146 -0.035,-0.43189 0.01,-0.87233 -0.0801,-1.2975 -0.043,-0.20367 -0.12821,-0.39597 -0.21476,-0.58425 -0.18864,-0.41038 -0.47523,-0.78156 -0.85468,-1.03307 -0.42858,-0.28407 -0.93781,-0.3991 -1.42434,-0.54827 -0.18304,-0.0561 -0.36388,-0.19268 -0.55839,-0.14814 -0.12329,0.0282 -0.18736,0.15292 -0.24009,0.25527 -0.20041,0.38901 -0.33719,0.80711 -0.46065,1.22554 -0.11558,0.39174 -0.24232,0.78293 -0.30569,1.18672 -0.37721,2.40371 -0.31687,4.8471 -0.21105,7.26941 0.0695,1.59187 0.0718,3.18607 0.15416,4.77774 0.0315,0.60842 0.12093,1.22443 0.0254,1.82909 -0.0288,0.18239 -0.0372,0.40581 -0.18864,0.52512 -0.0957,0.0754 -0.21813,0.10936 -0.33439,0.13811 -0.52433,0.12968 -1.06955,0.081 -1.60283,0.0546 -0.30303,-0.015 -0.60831,-0.0269 -0.90943,0.0296 -0.44431,0.0833 -0.87796,0.25233 -1.33622,0.24189 -0.23229,-0.005 -0.45391,-0.0999 -0.63417,-0.24446 -0.37872,-0.30382 -0.64571,-0.71982 -0.8863,-1.13514 -0.44374,-0.76599 -0.77415,-1.59246 -1.23065,-2.35107 -0.16579,-0.27551 -0.36286,-0.536 -0.61903,-0.7365 -0.41295,-0.32321 -0.92471,-0.49009 -1.43801,-0.56826 -0.69733,-0.1062 -1.40835,-0.10102 -2.09998,-0.25188 -1.02394,-0.22334 -1.97177,-0.69981 -2.98755,-0.94838 -0.81854,-0.2003 -1.66951,-0.12436 -2.4974,-0.26619 -1.21949,-0.20891 -2.45682,-0.28952 -3.67604,-0.49979 -0.96332,-0.16614 -1.91209,-0.45876 -2.76578,-0.94306 -0.53118,-0.30134 -1.03918,-1.50796 -1.47426,-1.0801 -0.62355,0.6132 -1.09885,1.42642 -1.87087,1.83996 -0.14888,0.0797 -0.32636,0.0707 -0.48934,0.0582 -0.54147,-0.0416 -1.07375,-0.16325 -1.5955,-0.30856 -0.45697,-0.12727 -0.91411,-0.26168 -1.35052,-0.44954 -0.33824,-0.1456 -0.56095,-0.451 -0.79665,-0.71896 -0.20672,-0.23501 -0.46908,-0.45479 -0.79083,-0.49143 -0.52852,-0.0602 -1.06176,-0.0636 -1.593,-0.0657 -1.77817,-0.007 -3.55796,0.0277 -5.33146,0.15703 -0.76237,0.0556 -1.53497,0.0726 -2.28053,0.2459 -0.16405,0.0381 -0.36369,0.0341 -0.48305,0.1573 -0.10268,0.10595 -0.14469,0.25576 -0.18018,0.39497 -0.12775,0.50109 -0.17688,1.0183 -0.21447,1.53263 -0.0413,0.56558 -0.0648,1.13268 -0.0669,1.69979"
       id="path83"
       inkscape:path-effect="#path-effect85"
       inkscape:original-d="m 198.01391,265.77324 c -0.19526,-2.96972 0.3021,-6.18054 -0.42985,-9.07875 -0.187,-0.74044 -0.8191,-1.42351 -0.99981,-2.18958 -0.23719,-1.00548 0.10461,-2.11233 -0.11556,-3.10522 -0.078,-0.3516 -0.29514,-0.64177 -0.51161,-0.91175 -0.32077,-0.40006 -0.13966,-1.70597 -0.31334,-2.20436 -0.44378,-1.27349 -1.10096,-1.69215 -2.42403,-2.01131 -0.16346,-0.0394 -0.47322,-0.22412 -0.6415,-0.14029 -0.33593,0.16734 -0.89419,2.25907 -0.95561,2.65069 -0.61717,3.93448 -0.0588,7.95872 -0.0588,11.96974 0,0.39444 0.2292,2.26107 -0.2202,2.47185 -0.64982,0.30479 -1.64116,0.13597 -2.36795,0.13597 -0.72602,0 -1.5831,0.52551 -2.21743,0.16062 -1.15407,-0.66385 -1.91532,-3.46185 -2.75862,-4.21515 -0.97445,-0.87045 -2.17893,-0.68933 -3.35233,-0.88052 -1.11202,-0.1812 -2.12227,-0.67215 -3.20957,-0.98238 -0.80634,-0.23007 -1.68328,-0.13707 -2.50033,-0.27767 -3.16471,-0.54459 -5.4791,-0.22961 -8.02699,-2.54175 -0.6173,0.60859 -1.19579,1.25922 -1.85189,1.82576 -0.37002,0.31951 -2.99982,-0.43518 -3.54419,-0.73004 -0.532,-0.28816 -0.74563,-0.96122 -1.37233,-1.14194 -0.76912,-0.2218 -9.43117,-0.0325 -9.83841,0.49485 -0.35061,0.454 -0.43644,2.76962 -0.43644,3.60292" />
    <path
       style="fill:none;stroke:#000000;stroke-width:0.264583px;stroke-linecap:butt;stroke-linejoin:miter;stroke-opacity:1"
       d="m 325.61736,140.67679 c 0.35774,0.007 0.71448,0.10483 1.01956,0.29427 0.40608,0.25215 0.70612,0.63173 1.04779,0.95866 0.14601,0.13971 0.2911,0.28557 0.46545,0.38872 0.24371,0.14419 0.52073,0.21913 0.79449,0.28158 0.83751,0.19105 1.69754,0.26698 2.53055,0.47972 0.25212,0.0644 0.49606,0.15701 0.73021,0.27114 0.52349,0.25517 1.00033,0.61052 1.37758,1.05614 0.46168,0.54535 0.78519,1.19158 1.05101,1.84925 0.1669,0.41293 0.47411,0.75889 0.6006,1.18874 0.13201,0.44861 0.12357,0.92167 0.11081,1.38443 -0.01,0.35659 -0.009,0.71396 0.0285,1.06959 0.083,0.78399 0.16272,1.57138 0.14699,2.36034 -0.007,0.33199 -0.0237,0.66685 -0.10163,0.99126 -0.0275,0.11458 -0.0833,0.21868 -0.13961,0.32137 -0.37455,0.6825 -0.74672,1.37154 -1.2192,1.99216 -0.13431,0.17642 -0.2687,0.35531 -0.43097,0.50686 -0.16765,0.15657 -0.39126,0.22544 -0.60475,0.29352 -0.20429,0.0651 -0.40773,0.15973 -0.55141,0.32291 -0.13623,0.15472 -0.25805,0.32169 -0.37789,0.48922 -0.51679,0.72244 -0.93513,1.51855 -1.52609,2.1845 -0.21595,0.24335 -0.5384,0.3627 -0.74669,0.6134 -0.0925,0.1113 -0.14344,0.2491 -0.19516,0.38214 -0.17592,0.4525 -0.31671,0.92035 -0.39957,1.39872 -0.0492,0.28421 -0.0934,0.57559 -0.0561,0.86358 0.0156,0.12023 0.0492,0.24856 0.1485,0.32821 0.13864,0.11121 0.3236,0.13666 0.49552,0.1377 0.32647,0.002 0.64961,-0.0638 0.96225,-0.15276 0.1201,-0.0342 0.23843,-0.076 0.36413,-0.0876 0.35049,-0.0322 0.7028,0.0367 1.05294,-0.0111 0.11881,-0.0162 0.22491,-0.0744 0.32794,-0.13253 0.67655,-0.38185 1.23078,-0.94439 1.70822,-1.55026 0.57675,-0.73189 1.09079,-1.50992 1.58553,-2.29813 0.12561,-0.20012 0.13418,-0.44484 0.13421,-0.67403 3e-5,-0.21833 0.003,-0.43781 0.052,-0.65325 0.10741,-0.47185 0.11587,-0.9589 0.11877,-1.44057 0.005,-0.81854 -0.0462,-1.64197 0.0617,-2.45572 0.0562,-0.4239 0.15293,-0.85513 0.38349,-1.22165 0.12147,-0.1931 0.29331,-0.34573 0.45739,-0.50117 0.52575,-0.49805 1.08599,-0.96598 1.70755,-1.33984 0.31264,-0.18805 0.63508,-0.37867 0.9919,-0.46026 0.25865,-0.0591 0.52231,0.0771 0.77842,0.009 0.71061,-0.18782 1.45443,-0.18687 2.18244,-0.13188 0.65935,0.0498 1.31824,0.10538 1.97496,0.18327 0.20015,0.0237 0.40204,0.0643 0.60427,0.0419 0.0623,-0.007 0.12252,-0.0344 0.1592,-0.0898 0.11829,-0.1785 0.14395,-0.39912 0.15381,-0.60788 0.0135,-0.28514 -0.0165,-0.56986 -0.0198,-0.85481"
       id="path294"
       inkscape:path-effect="#path-effect296"
       inkscape:original-d="m 325.61736,140.67679 c 1.26148,0.0338 1.6256,0.97292 2.46502,1.59602 0.67519,0.50119 2.90777,0.52949 3.93739,0.99083 1.47894,0.66263 2.04052,1.65247 2.63512,3.04129 0.16997,0.39701 0.48197,0.77286 0.5937,1.18862 0.20066,0.74669 0.0308,1.53954 0.11425,2.3034 0.0893,0.81791 0.32144,3.03526 -0.0268,3.67198 -0.43034,0.78685 -1.02515,1.8803 -1.65295,2.54933 -0.37542,0.40006 -0.87562,0.25147 -1.26524,0.73285 -0.64506,0.79695 -1.15819,1.77958 -1.83116,2.58982 -0.2418,0.29116 -0.6868,0.43736 -0.84722,0.76028 -0.2694,0.54229 -0.73165,2.08692 -0.53118,2.68243 0.1813,0.5385 1.38118,0.21398 1.72205,0.10219 0.41372,-0.13568 1.10452,0.0725 1.46719,-0.11664 1.54898,-0.80769 2.44398,-2.51584 3.40222,-3.8908 0.25347,-0.36366 0.0856,-0.89656 0.19056,-1.30153 0.37589,-1.45085 -0.28903,-4.33565 0.76475,-5.40578 0.74496,-0.75652 1.93487,-1.75102 2.94531,-2.05854 0.24908,-0.0758 0.56142,0.0659 0.81383,0 1.33253,-0.34761 2.73802,-0.0377 4.11687,0.0517 0.12872,0.008 0.66011,0.11955 0.76785,-0.0129 0.27066,-0.33284 0.15827,-1.08615 0.15827,-1.4951" />
  </g>
</svg>
