<?xml version="1.0" encoding="UTF-8" standalone="no"?>
<!-- Created with Inkscape (http://www.inkscape.org/) -->

<svg
   width="353.56799mm"
   height="264.16mm"
   viewBox="0 0 353.56799 264.16"
   version="1.1"
   id="svg5"
   inkscape:version="1.1.2 (08b2f3d93c, 2022-04-05)"
   sodipodi:docname="Vilosidade3.svg"
   xmlns:inkscape="http://www.inkscape.org/namespaces/inkscape"
   xmlns:sodipodi="http://sodipodi.sourceforge.net/DTD/sodipodi-0.dtd"
   xmlns="http://www.w3.org/2000/svg"
   xmlns:svg="http://www.w3.org/2000/svg">
  <sodipodi:namedview
     id="namedview7"
     pagecolor="#ffffff"
     bordercolor="#666666"
     borderopacity="1.0"
     inkscape:pageshadow="2"
     inkscape:pageopacity="0.0"
     inkscape:pagecheckerboard="0"
     inkscape:document-units="mm"
     showgrid="false"
     inkscape:zoom="0.41012193"
     inkscape:cx="202.37884"
     inkscape:cy="157.2703"
     inkscape:window-width="1366"
     inkscape:window-height="704"
     inkscape:window-x="0"
     inkscape:window-y="27"
     inkscape:window-maximized="1"
     inkscape:current-layer="layer2" />
  <defs
     id="defs2">
    <inkscape:path-effect
       effect="simplify"
       id="path-effect61"
       is_visible="true"
       lpeversion="1"
       steps="1"
       threshold="0.000408163"
       smooth_angles="360"
       helper_size="0"
       simplify_individual_paths="false"
       simplify_just_coalesce="false" />
    <inkscape:path-effect
       effect="simplify"
       id="path-effect57"
       is_visible="true"
       lpeversion="1"
       steps="1"
       threshold="0.000408163"
       smooth_angles="360"
       helper_size="0"
       simplify_individual_paths="false"
       simplify_just_coalesce="false" />
  </defs>
  <g
     inkscape:groupmode="layer"
     id="layer2"
     inkscape:label="Vilosidade3">
    <path
       style="fill:none;stroke:#000000;stroke-width:0.264583px;stroke-linecap:butt;stroke-linejoin:miter;stroke-opacity:1"
       d="m 11.785324,36.336962 c 0.581745,0.140408 1.158412,-0.130562 1.628933,-0.458445 0.559161,-0.389652 0.992426,-1.007379 1.654673,-1.203615 0.350873,-0.10397 0.694757,-0.231931 1.019848,-0.401941 0.412298,-0.215616 0.863804,-0.343958 1.328627,-0.380886 0.494977,-0.03932 0.99605,-0.14154 1.41942,-0.424094 0.61884,-0.413009 1.112306,-1.022732 1.843949,-1.264644 1.24897,-0.412963 2.513187,-0.802455 3.694827,-1.3924 0.609695,-0.304396 1.074183,-0.815036 1.519813,-1.316609 0.294672,-0.331664 0.636327,-0.613984 0.984383,-0.889874 0.7041,-0.558112 1.285616,-1.280468 2.078441,-1.718038 0.245472,-0.135479 0.570326,-0.153175 0.732563,-0.4137 0.269804,-0.433261 0.281769,-0.961225 0.342662,-1.453715 0.05324,-0.430584 0.04672,-0.89309 0.265835,-1.27909 0.13453,-0.236994 0.435936,-0.245747 0.673259,-0.267002 1.047054,-0.09377 2.089302,0.103183 3.121789,0.253891 0.978957,0.142894 1.96716,0.271822 2.962272,0.191359 1.15826,-0.09365 2.349708,-0.0026 3.473463,-0.32713 0.805752,-0.232716 1.454444,-0.818003 2.284713,-1.003261 1.182941,-0.26395 2.48609,0.06772 3.600141,-0.397746 0.260714,-0.10893 0.389093,-0.389617 0.513323,-0.62388 0.146743,-0.276715 0.40956,-0.459941 0.637491,-0.664928 0.728726,-0.65537 1.546364,-1.218581 2.207294,-1.94237 0.316475,-0.346574 0.460456,-0.812221 0.811161,-1.137521 0.617973,-0.573207 1.370223,-0.984015 2.145705,-1.306985 0.575053,-0.239496 1.204863,-0.247149 1.818601,-0.272595 0.412831,-0.01712 0.846301,0.02609 1.236555,-0.119979 0.404361,-0.151351 0.754555,-0.421121 1.199241,-0.48565 1.329473,-0.192922 2.68481,-0.267511 4.023809,-0.09294 2.063244,0.268992 4.139251,0.655481 6.229268,0.460948 1.93192,-0.179818 3.912599,-0.260016 5.740204,-0.908892 0.253263,-0.08992 0.290325,-0.385075 0.44019,-0.583661 0.481025,-0.637408 1.136881,-1.238513 1.247767,-2.054788 0.04458,-0.3282 0.02298,-0.669857 0.190767,-0.975797 0.398354,-0.726348 0.869365,-1.426513 1.470709,-1.9984142 0.239237,-0.2275235 0.516079,-0.4457586 0.86186,-0.4771286 0.258517,-0.023453 0.513128,-0.078454 0.771046,-0.1011534 0.329224,-0.028975 0.598776,0.2251186 0.708281,0.5211584 0.244287,0.6604168 0.07161,1.4018168 0.299349,2.0587468 0.213779,0.616668 0.592227,1.161373 0.981387,1.679609 0.20196,0.268946 0.45066,0.522426 0.789239,0.608451 0.351008,0.08918 0.706103,0.156876 1.055137,0.257699 0.855815,0.247213 1.747105,0.415964 2.641787,0.347456 0.933628,-0.07149 1.867045,-0.140756 2.803153,-0.182026 0.851811,-0.03755 1.723096,-0.03631 2.544454,-0.283169 0.721572,-0.216866 1.289748,-0.73301 1.950538,-1.074454 0.872323,-0.450747 1.781129,-0.828693 2.628869,-1.328409 1.028186,-0.606083 2.061729,-1.257968 3.241109,-1.5243595 1.602826,-0.3620364 3.251101,-0.1282427 4.874451,-0.1227623 0.57566,0.00194 1.16033,-0.033716 1.70457,-0.2477012 1.08903,-0.428185 1.91011,-1.2920408 2.88411,-1.9102145 0.36374,-0.2308567 0.78851,-0.3233143 1.21145,-0.3806374 0.93589,-0.1268469 1.92238,-0.012141 2.81366,-0.3452532 0.41808,-0.1562551 0.80274,-0.3978424 1.25606,-0.4647254 1.30564,-0.1926364 2.65944,0.192643 3.93746,-0.1774816 0.63384,-0.1835654 1.28685,-0.2941139 1.94823,-0.3156447 1.40816,-0.045841 3.06227,0.784065 4.22527,-0.021278 0.2048,-0.1418173 0.20252,-0.4448231 0.23244,-0.671623 0.0678,-0.5137853 -0.25236,-1.1859612 0.11697,-1.5485021 0.15176,-0.148971 0.40005,-0.2031967 0.61004,-0.2432987 1.03985,-0.1985837 2.10449,-0.072868 3.15508,-0.1113695 0.5252,-0.019247 1.09102,0.012172 1.56519,-0.2416538 0.57839,-0.3096179 0.86745,-0.9299747 1.16834,-1.4789732 0.27462,-0.5010678 0.64057,-1.00292099 1.21316,-1.17758817"
       id="path55"
       inkscape:path-effect="#path-effect57"
       inkscape:original-d="m 11.785324,36.336962 c 1.433471,0.316082 2.38537,-1.438574 3.45871,-1.72103 0.564012,-0.148423 1.036028,-0.495136 1.574393,-0.630182 0.520485,-0.130559 1.083988,-0.07975 1.601079,-0.289621 0.771078,-0.312957 1.365453,-1.194975 2.120589,-1.446345 1.162186,-0.386873 3.332918,-1.01832 4.313787,-1.736098 0.685545,-0.501668 1.17704,-1.299355 1.861446,-1.785159 0.678715,-0.481767 1.667372,-1.611567 2.379538,-1.906903 0.168426,-0.06984 0.349951,-0.08889 0.513451,-0.250663 0.633976,-0.62729 0.222419,-2.832708 0.92861,-3.01967 1.577787,-0.417715 4.533125,0.560311 6.244704,0.391039 1.163876,-0.115105 2.455283,-0.06486 3.597357,-0.313132 0.817208,-0.17765 1.445665,-0.787543 2.20663,-0.98597 1.213985,-0.316554 2.565794,-0.28985 3.802523,-0.447962 0.287123,-0.03671 0.532569,-0.700454 0.697553,-0.855214 0.842219,-0.79004 1.752047,-1.520675 2.604431,-2.298949 0.312992,-0.285778 0.422217,-0.647427 0.645152,-0.943138 0.541817,-0.718689 2.12842,-1.629027 3.1066,-1.783688 0.702188,-0.111024 1.443162,-0.03328 2.146329,-0.141392 0.426784,-0.06561 0.806104,-0.4416 1.211453,-0.507691 1.104567,-0.180095 2.605141,-0.312118 3.744407,-0.179206 1.978798,0.230856 3.972015,0.64764 5.988466,0.565442 2.151594,-0.08771 4.269652,-0.72707 6.402204,-0.948625 0.241414,-0.02508 0.270542,-0.303002 0.390772,-0.467442 0.485356,-0.663834 1.088956,-1.26468 1.315881,-2.067727 0.08131,-0.287751 0.01339,-0.644762 0.133829,-0.918646 0.282816,-0.643209 1.406678,-2.2901048 2.130422,-2.5852787 0.153189,-0.062477 0.6545,-0.091095 0.821989,-0.1288754 1.339792,-0.3022171 1.020098,1.6971721 1.224672,2.4947191 0.145854,0.56863 0.840099,1.601513 1.253191,2.033674 0.357036,0.373519 0.856673,0.352157 1.286306,0.479587 2.429536,0.720607 2.691564,0.38372 5.12437,0.276522 0.932411,-0.04109 1.948831,-0.0452 2.871227,-0.232114 0.834816,-0.169171 1.264404,-0.598076 1.932525,-0.97846 0.662807,-0.37736 1.364821,-0.667172 2.045303,-1.008555 1.376283,-0.690447 2.444723,-1.57162 3.967144,-1.972917 1.814711,-0.478342 3.884383,-0.074452 5.755363,-0.1851998 1.95563,-0.115759 3.25202,-2.1574853 4.60797,-2.4383617 1.01531,-0.2103146 2.1253,-0.1364276 3.13436,-0.3778686 0.4456,-0.1066184 0.75767,-0.3874833 1.22917,-0.479734 1.32813,-0.2598534 2.89613,0.1252947 4.18645,-0.2258394 0.43957,-0.1196191 0.87771,-0.2282269 1.33231,-0.2675038 1.57166,-0.1357884 3.21455,0.1395535 4.7805,-0.053493 0.32131,-0.039611 0.29628,-2.2143233 0.36051,-2.2510168 1.17803,-0.6730068 4.25988,-0.023275 5.29331,-0.5518777 1.11361,-0.5696192 1.117,-2.24932225 2.4074,-2.67011397" />
    <path
       style="fill:none;stroke:#000000;stroke-width:0.264583px;stroke-linecap:butt;stroke-linejoin:miter;stroke-opacity:1"
       d="m 11.785324,36.336962 c 0.328712,0.09658 0.67771,0.124139 0.996554,0.24886 0.06159,0.02409 0.202037,0.02822 0.181518,0.101974 -0.02091,0.07515 -0.09771,0.117262 -0.158705,0.15727 -0.306892,0.201288 -0.615014,0.400583 -0.925587,0.596346 -0.477604,0.301047 -0.97255,0.578999 -1.494913,0.793752 C 10.063198,38.36713 9.7314188,38.496561 9.3820245,38.518731 9.2155213,38.529296 9.0364467,38.495095 8.9112803,38.37053 8.5305636,37.991643 8.3306559,37.472368 8.2151664,36.95767 8.0298147,36.13162 8.009776,35.280835 7.9858026,34.438042 7.962166,33.60709 7.9636719,32.771336 7.8348481,31.947899 7.7878719,31.647629 7.7001627,31.356186 7.5989983,31.069633 7.2732595,30.146961 6.968927,29.215838 6.7158315,28.270637 6.5890075,27.797005 6.452166,27.322645 6.393861,26.834986 6.3475667,26.447783 6.4017208,26.043462 6.2719484,25.670853 6.133281,25.272704 5.8757918,24.933117 5.6821802,24.561893 5.5965289,24.397668 5.5433682,24.219751 5.5022771,24.039062 4.8891236,21.342861 4.3344641,18.633278 3.6886937,15.944587 3.5440125,15.342201 3.2137989,14.808303 2.8822321,14.292839 2.6323494,13.904364 2.3224478,13.540974 2.1692501,13.104068 2.1282982,12.987277 2.2057813,12.873828 2.2704156,12.783074 2.3479062,12.674268 2.4200753,12.559888 2.4482512,12.424834 2.6502751,11.456483 2.7452754,10.467292 2.7617264,9.4791467 2.7709983,8.922222 2.7709691,8.3628451 2.7058611,7.8093583 2.5952544,6.8690839 2.1574954,5.9974914 2.084526,5.0512839 2.0574882,4.7006798 2.0694783,4.3397387 2.1807007,4.0034333 2.3111595,3.6089623 2.6023633,3.2877063 2.9410152,3.0562493 3.4898301,2.6811531 4.1301942,2.4809605 4.7356103,2.2196709 5.0651776,2.077434 5.4271117,1.9544437 5.672289,1.6883648 5.7793928,1.5721303 5.8241021,1.4142514 5.865589,1.2657416 5.9636921,0.91456363 6.0044443,0.55109784 6.082752,0.19566483 c 0,0 0.00381,-0.0146719 0.00381,-0.0146719 0,0 0.00378,-0.013587 0.00378,-0.013587"
       id="path59"
       inkscape:path-effect="#path-effect61"
       inkscape:original-d="m 11.785324,36.336962 c 1.526468,0.434364 1.57025,0.115927 0.127105,1.082545 -0.29942,0.200552 -2.4278961,1.490422 -2.9668084,0.984147 C 7.4620167,37.009906 8.346237,33.102137 7.6483082,31.205556 7.3188448,30.310256 6.5195746,27.847438 6.393861,26.834986 6.3485463,26.470041 6.3881989,25.984267 6.2573836,25.628592 6.0794092,25.144693 5.6390288,24.641479 5.5314548,24.167545 4.9091839,21.426028 4.2745781,18.719118 3.7056012,16.01974 3.4793499,14.946342 2.6390329,14.069561 2.1774541,13.123301 2.077404,12.918194 2.3856185,12.711667 2.4344596,12.488746 2.7317462,11.131872 2.832931,9.3501362 2.7202426,7.953825 2.6204087,6.7167926 1.9151012,5.5919015 2.1040932,4.32177 2.3574403,2.6191375 4.6606039,2.5465071 5.6607955,1.6988007 5.908255,1.4890679 6.0100945,0.44543027 6.0903423,0.16740585" />
  </g>
</svg>
