<?xml version="1.0" encoding="UTF-8" standalone="no"?>
<!-- Created with Inkscape (http://www.inkscape.org/) -->

<svg
   width="353.56799mm"
   height="264.16mm"
   viewBox="0 0 353.56799 264.16"
   version="1.1"
   id="svg5"
   inkscape:version="1.1.2 (08b2f3d93c, 2022-04-05)"
   sodipodi:docname="Vilosidades.svg"
   xmlns:inkscape="http://www.inkscape.org/namespaces/inkscape"
   xmlns:sodipodi="http://sodipodi.sourceforge.net/DTD/sodipodi-0.dtd"
   xmlns="http://www.w3.org/2000/svg"
   xmlns:svg="http://www.w3.org/2000/svg">
  <sodipodi:namedview
     id="namedview7"
     pagecolor="#ffffff"
     bordercolor="#666666"
     borderopacity="1.0"
     inkscape:pageshadow="2"
     inkscape:pageopacity="0.0"
     inkscape:pagecheckerboard="0"
     inkscape:document-units="mm"
     showgrid="false"
     inkscape:zoom="0.35455254"
     inkscape:cx="592.29586"
     inkscape:cy="604.98792"
     inkscape:window-width="1366"
     inkscape:window-height="704"
     inkscape:window-x="0"
     inkscape:window-y="27"
     inkscape:window-maximized="1"
     inkscape:current-layer="layer2" />
  <defs
     id="defs2">
    <inkscape:path-effect
       effect="simplify"
       id="path-effect170"
       is_visible="true"
       lpeversion="1"
       steps="1"
       threshold="0.000408163"
       smooth_angles="360"
       helper_size="0"
       simplify_individual_paths="false"
       simplify_just_coalesce="false" />
    <inkscape:path-effect
       effect="simplify"
       id="path-effect166"
       is_visible="true"
       lpeversion="1"
       steps="1"
       threshold="0.000408163"
       smooth_angles="360"
       helper_size="0"
       simplify_individual_paths="false"
       simplify_just_coalesce="false" />
    <inkscape:path-effect
       effect="simplify"
       id="path-effect162"
       is_visible="true"
       lpeversion="1"
       steps="1"
       threshold="0.000408163"
       smooth_angles="360"
       helper_size="0"
       simplify_individual_paths="false"
       simplify_just_coalesce="false" />
    <inkscape:path-effect
       effect="simplify"
       id="path-effect158"
       is_visible="true"
       lpeversion="1"
       steps="1"
       threshold="0.000408163"
       smooth_angles="360"
       helper_size="0"
       simplify_individual_paths="false"
       simplify_just_coalesce="false" />
    <inkscape:path-effect
       effect="simplify"
       id="path-effect69"
       is_visible="true"
       lpeversion="1"
       steps="1"
       threshold="0.000408163"
       smooth_angles="360"
       helper_size="0"
       simplify_individual_paths="false"
       simplify_just_coalesce="false" />
    <inkscape:path-effect
       effect="simplify"
       id="path-effect65"
       is_visible="true"
       lpeversion="1"
       steps="1"
       threshold="0.000408163"
       smooth_angles="360"
       helper_size="0"
       simplify_individual_paths="false"
       simplify_just_coalesce="false" />
    <inkscape:path-effect
       effect="simplify"
       id="path-effect61"
       is_visible="true"
       lpeversion="1"
       steps="1"
       threshold="0.000408163"
       smooth_angles="360"
       helper_size="0"
       simplify_individual_paths="false"
       simplify_just_coalesce="false" />
    <inkscape:path-effect
       effect="simplify"
       id="path-effect57"
       is_visible="true"
       lpeversion="1"
       steps="1"
       threshold="0.000408163"
       smooth_angles="360"
       helper_size="0"
       simplify_individual_paths="false"
       simplify_just_coalesce="false" />
    <clipPath
       clipPathUnits="userSpaceOnUse"
       id="clipPath119">
      <path
         id="path121"
         style="fill:#ff0000;fill-opacity:1;fill-rule:nonzero;stroke:none;stroke-width:0.264583"
         d="m 22.305615,77.779748 c 0,59.315932 -59.31593,177.947792 0,177.947792 53.125955,0 159.377865,53.12596 159.377865,0 0,-59.31593 59.31593,-177.947792 0,-177.947792 -53.12596,0 -106.25191,0 -159.377865,0 z M 140.02814,205.90009 c 0.52588,-0.0492 0.83383,0.47067 0.90176,0.93288 0.12995,0.88426 -0.39246,1.78615 -0.19327,2.64778 0.13038,0.56399 0.3572,1.20617 0.10504,1.74508 -0.0966,0.20643 -0.0727,0.20414 -0.11982,0.43167 -0.0971,0.46946 -0.38381,0.86136 -0.58229,1.29049 -0.0987,0.21342 -0.0513,0.46837 -0.051,0.70295 6.2e-4,0.51366 -0.51246,1.52687 0.001,1.54099 0.17414,0.005 0.85433,0.0175 0.72767,0.0198 -0.36495,0.007 -0.72606,-0.18274 -0.72929,0.38859 -0.002,0.34001 -0.13078,0.58533 0.37434,0.65777 0.25138,0.036 1.02298,0.10562 0.86087,0.12108 -0.386,0.0368 -1.23546,0.36468 -1.23809,0.0527 -0.003,-0.39755 -0.84555,-0.48617 -1.00819,-0.2119 -0.34341,0.5791 -0.89743,0.99252 -1.27799,1.54 -0.19986,0.28752 -1.03857,0.60135 -0.90757,0.61291 0.57808,0.051 -0.79238,0.41437 -0.62873,0.29138 0.43173,-0.32447 -0.87991,0.24433 -0.21096,0.0447 0.44156,-0.13179 -0.41975,0.73804 -0.38332,0.53871 0.0668,-0.3657 0.13718,-0.3955 -0.0196,-0.11173 -0.16296,0.29496 0.0936,-0.0255 -0.0513,0.30372 -0.0887,0.20154 -0.21203,0.42086 -0.0652,0.0989 0.22993,-0.50418 -0.44996,0.11882 -0.61487,0.13271 -0.48865,0.0412 -0.72472,0.51308 -0.91893,0.89725 -0.17098,0.33822 -0.86706,1.20151 -0.58699,1.0781 0.36745,-0.16191 0.65446,-0.32914 0.87311,-0.75251 0.21377,-0.41392 -0.22182,0.4455 0.19969,0.18299 0.39307,-0.2448 0.4865,-0.77392 0.45514,-1.19438 -0.0261,-0.34996 0.0922,0.36695 0.0604,0.50351 -0.1183,0.50801 0.34756,-0.25508 0.40948,-0.43192 0.14495,-0.41394 -0.0584,0.36458 -0.16436,0.48031 -0.33622,0.36717 -0.41125,0.83342 -0.59211,1.27952 -0.0887,0.21869 -0.52426,0.68179 -0.51718,0.66982 0.17571,-0.29696 0.56063,-0.97647 0.1907,-1.13933 -0.22592,-0.0995 -0.18926,0.56138 -0.23766,0.80233 -0.0393,0.19556 -0.032,0.43203 -0.0628,0.46388 -0.13711,0.14206 -0.34321,-0.0717 -0.0514,0.0634 0.0919,0.0425 -0.17145,0.5944 -0.3178,0.79754 -0.71176,0.98799 -1.94602,1.33106 -3.04523,1.701 -1.3437,0.45222 -2.8905,0.62184 -4.2049,-0.0414 -0.96338,-0.48613 -1.54491,-1.61113 -1.34079,-2.68471 0.25587,-1.34574 1.51456,-2.11067 2.59975,-2.84286 0.33521,-0.22617 0.99915,-0.15808 1.11097,-0.51513 0.19656,-0.6276 0.62427,-1.14499 0.94639,-1.70407 0.22234,-0.3859 0.21366,-0.84572 0.40729,-1.23722 0.19976,-0.40389 0.56026,-0.68407 0.79121,-1.07016 0.2309,-0.38601 0.65224,-0.37571 1.06196,-0.49508 0.46109,-0.13434 1.16808,-0.0482 1.35364,-0.49227 0.15801,-0.37813 -0.44403,0.0859 -0.40419,-0.0562 0.0477,-0.17007 -0.49773,-0.0269 -0.64171,0.0903 -0.16384,0.1333 -0.85832,0.5609 -0.39596,0.1372 0.41431,-0.37967 0.73853,-0.96126 1.28532,-1.09063 0.2363,-0.0559 0.21715,0.16232 0.0544,-0.12393 -0.0945,-0.16626 0.25781,-0.0557 0.3433,-0.38699 0.11909,-0.4615 0.18769,-0.92613 0.3409,-1.39134 0.12941,-0.39295 0.42037,-0.66441 0.40649,-1.15241 -0.0114,-0.40039 -0.33119,-1.54124 0.0377,-1.31495 0.17926,0.10997 0.16566,0.24693 0.37874,0.0426 0.2806,-0.2691 0.51941,0.0119 0.8436,-0.32364 0.35425,-0.36667 0.73805,-0.13671 1.1779,-0.51116 0.86517,-0.73653 1.72144,-1.5819 2.82246,-1.92747 0.14331,-0.045 0.29185,-0.0767 0.44234,-0.0812 z m -3.65456,2.35903 c -0.18483,0.18859 -0.77094,0.67328 -0.58599,0.57307 0.36622,-0.19842 1.56539,-0.10036 1.19993,-0.30234 -0.1957,-0.10816 -0.39674,-0.21323 -0.61394,-0.27073 z m -1.76836,0.66043 c -0.15404,0.29146 -0.0438,1.1732 -0.045,1.05159 -0.004,-0.36138 0.40873,-0.76518 0.045,-1.05159 z m -0.0858,1.12499 c -0.12262,0.16186 -0.26055,-0.15114 -0.0251,0.13446 0.0123,0.0149 0.0731,-0.14079 0.0251,-0.13446 z m -1.53944,3.80597 c 0.18918,-0.0838 0.66226,-0.82976 0.27613,-0.38763 -0.10461,0.11978 -0.19625,0.25035 -0.27613,0.38763 z m 1.93787,5.82032 c -0.006,-0.19609 -0.0893,-0.35546 -0.0135,-0.0624 0,0 0.0135,0.0623 0.0135,0.0623 0,0 0,1.6e-4 0,1.6e-4 z m 1.47485,-1.13999 c 0.15409,-0.0625 0.66509,-0.0523 0.21128,-0.14262 -0.1027,-0.0204 -0.13906,0.10061 -0.21128,0.14262 z m 4.2354,-7.03626 c -0.029,-0.0721 -0.0649,0.0896 0,0 z m -5.8074,-1.99213 c -0.17055,0.1634 -0.30233,0.63536 -0.10089,0.20359 0.0319,-0.0683 0.10045,-0.12314 0.10089,-0.20359 z m 5.94744,0.7953 c 0.004,0.19874 0.074,0.38653 0,0 z m -0.56844,0.30128 c 0.0632,0.21212 0.0241,-0.18137 0.1871,0.37778 0.0702,0.24096 0.0515,0.33573 0.0628,0.0321 0.01,-0.26297 0.0339,0.24601 -0.0631,-0.0332 -0.0462,-0.1328 -0.11002,-0.25923 -0.1868,-0.37675 z m 0.25786,0.65371 c 0.003,0.16024 0.0278,0.15112 0,0 z m 0.016,0.11782 c -0.0541,0.31053 0.28064,0.141 0,0 z m 0.10439,0.15038 c -0.05,0.1133 0.0519,-0.0386 0,0 z m -0.29559,-0.30903 c -0.17016,-0.10468 -0.64745,-0.59932 -0.59757,-0.46514 0.1031,0.27732 0.33458,1.10711 0.57507,0.7029 0.0444,-0.0746 0.0204,-0.15823 0.0225,-0.23776 z m -0.25993,0.90744 c -0.0306,0.16904 0.10205,0.0594 0,0 z m -6.34122,1.01234 c -0.004,0.1538 0.0346,0.19639 0,0 z m 0.12557,0.52038 c -0.4265,-0.003 -0.11562,0.35079 0.0233,0.005 0,0 -0.0233,-0.005 -0.0233,-0.005 0,0 -1e-5,-1.4e-4 -1e-5,-1.4e-4 z m -0.293,0.0589 c -0.18779,0.0769 -0.002,0.39632 0.008,0.0893 0,0 -0.008,-0.0893 -0.008,-0.0893 0,0 1e-5,0 1e-5,0 z m -1.86242,0.64079 c -0.14132,0.10773 -0.26982,0.19615 0,0 z m 5.14956,3.82096 c -0.0527,0.0261 9.4e-4,0.0138 0,0 z m -7.15667,0.58239 c -0.22893,-6.2e-4 -0.45677,0.32021 0,0 z m 6.06991,0.0775 c -0.23085,0.0293 -0.7179,0.45174 -0.64279,0.42648 0.25512,-0.0858 0.58093,-0.10614 0.64279,-0.42648 z m -0.87023,0.48473 c -0.01,0.0124 0.0166,0.0117 0,0 z m -5.9893,1.67432 c 0.0219,0.21318 0.11942,0.37296 0.0199,0.0698 0,0 -0.0199,-0.0698 -0.0199,-0.0698 0,0 0,3e-5 0,3e-5 z"
         inkscape:original-d="M 22.305615,77.779748 V 255.72754 H 181.68348 V 77.779748 Z M 140.02814,205.90009 c 0.82536,-0.0204 1.24917,0.87102 0.70849,3.58066 0.0191,0.0563 0.0391,0.13303 0.0594,0.23358 0.22,1.08619 0.12616,1.61183 -0.16794,1.78025 0.02,0.0156 0.0424,0.0346 0.062,0.0496 0.14587,0.11145 -0.22826,0.75489 -0.43253,1.09968 -0.0219,0.0682 -0.0441,0.13618 -0.0656,0.20412 -0.0326,0.0684 -0.072,0.1318 -0.10542,0.19947 5.3e-4,0.0428 0.002,0.0847 0.002,0.12815 v 0.11266 0.31109 0.35554 0.67334 0.44804 0.003 c 0.001,0.001 8e-4,0.0721 0.001,0.11266 0.99599,0.022 1.18944,0.0288 0,0.008 0.001,0.20117 -0.005,0.71029 -0.005,1.04387 1.43284,0.047 1.95655,0.13427 0.004,0.26199 -0.004,2.4e-4 -0.004,-0.10995 -0.004,-0.26199 -0.29826,-0.01 -0.6448,-0.0175 -1.00769,-0.0238 -0.23519,0.38281 -0.52729,0.74706 -0.88676,1.08417 -0.0573,0.0802 -0.11701,0.15851 -0.18242,0.23203 -0.47766,0.53694 -0.72676,0.67025 -1.17926,0.83715 0.71527,-0.0106 -0.0127,0.17071 -0.56585,0.29094 0.043,-0.0444 0.0858,-0.0889 0.13022,-0.13281 -0.1684,0.0616 -0.35368,0.13108 -0.58343,0.22686 0.0767,-0.0155 0.25373,-0.0508 0.45269,-0.0941 -0.19461,0.20076 -0.3806,0.40289 -0.59376,0.58343 0.005,-0.048 0.0107,-0.0961 0.016,-0.14418 l -0.003,0.003 c -0.0182,0.052 -0.0366,0.10392 -0.0543,0.15606 0.009,-0.0483 0.0152,-0.0877 0.0217,-0.12661 -0.006,0.005 -0.0113,0.0108 -0.0171,0.016 -0.0157,0.0539 -0.0308,0.10819 -0.0444,0.16278 0.0101,-0.008 0.0205,-0.0157 0.0305,-0.0238 0.003,-0.007 0.005,-0.0138 0.007,-0.0207 -7.9e-4,0.006 -0.001,0.011 -0.003,0.0171 0.0156,-0.0128 0.0307,-0.0257 0.046,-0.0388 -10e-4,0.011 -0.002,0.022 -0.004,0.0331 -0.0329,0.0739 -0.10005,0.24299 -0.13177,0.31368 -0.0174,0.0558 -0.0345,0.11153 -0.0527,0.16691 0.0359,-0.14888 0.0696,-0.29846 0.10697,-0.447 -0.15061,0.11891 -0.31625,0.22618 -0.51005,0.31368 -0.0427,0.009 -0.0999,0.0258 -0.15296,0.0403 0.003,0.0201 0.005,0.0405 0.007,0.0605 -0.004,-0.0195 -0.009,-0.0389 -0.0129,-0.0584 -0.10627,0.0292 -0.22374,0.0639 -0.3545,0.10542 -0.31329,0.39656 -0.70004,0.96644 -1.17977,1.79679 -0.13966,0.24173 0.5336,-0.17201 0.7829,-0.29765 0.005,-0.003 0.0103,-0.006 0.0155,-0.008 0.0284,-0.14593 0.0667,-0.28844 0.12351,-0.4253 0.0854,-0.20576 0.0704,0.0118 0.0295,0.33797 0.13607,-0.0857 0.26422,-0.18898 0.38447,-0.30179 0.15426,-0.36294 0.25251,-0.73792 0.21135,-1.14825 0.0532,0.25005 0.0957,0.49995 0.0594,0.7493 -0.007,0.0487 -0.0145,0.0924 -0.0217,0.13798 0.13501,-0.15814 0.25465,-0.32613 0.35501,-0.49196 0.0665,-0.10998 0.11242,-0.2298 0.15297,-0.35243 -0.0399,0.16509 -0.0838,0.32894 -0.14832,0.48576 -0.0986,0.23979 -0.24703,0.45564 -0.41289,0.65732 -0.159,0.79242 -0.39387,1.05699 -0.82114,1.51929 0.1159,-0.14013 0.20607,-0.2696 0.11317,-0.24133 0.0166,-0.22841 0.0857,-0.67859 0.12764,-1.01389 -0.05,0.0315 -0.10108,0.0606 -0.15296,0.0873 -0.079,0.40632 -0.0775,0.83848 -0.15555,1.24334 0.0169,-0.0183 0.0332,-0.0368 0.0496,-0.0548 -0.0171,0.0206 -0.0331,0.0401 -0.0517,0.0615 5.3e-4,-0.002 10e-4,-0.005 0.002,-0.007 -0.0666,0.0722 -0.11959,0.12887 -0.19638,0.21498 -0.068,0.0763 0.0626,-0.0566 0.19379,-0.20671 -0.0352,0.17933 -0.0857,0.3534 -0.16691,0.51728 -0.62983,1.27064 -2.15171,1.6806 -3.35897,2.07326 h -5.3e-4 c -5.89184,1.9163 -7.78379,-4.11927 -1.87172,-5.97224 0.0388,-0.0122 0.0779,-0.0233 0.11679,-0.0352 0.17215,-0.61055 0.54234,-1.14056 0.93792,-1.72806 l 0.0129,-0.0129 c 0.0806,-0.20571 0.15958,-0.40303 0.22582,-0.55965 0.16938,-0.75785 0.003,-0.38413 0.54209,-1.32757 0.58368,-0.62551 0.62093,-0.68221 0.76791,-0.79788 -0.0153,0.0182 -0.01,0.0249 0.0274,0.0139 0.69989,-0.20406 1.42715,-0.382 2.08101,-0.70021 0.004,-0.0802 0.0101,-0.16044 0.0191,-0.2403 -0.10417,0.0271 -0.21849,0.0587 -0.33177,0.0894 -0.0308,0.0359 -0.0482,0.0575 -0.0816,0.0961 -0.0337,0.0389 -0.005,-0.0145 0.0367,-0.0842 -0.2647,0.0717 -0.52478,0.14183 -0.68833,0.17311 -1.64525,1.13305 0.65886,-0.78482 0.88936,-0.95343 0.0997,-0.0248 0.19898,-0.0553 0.29817,-0.0879 -0.47567,-0.0389 -0.31332,-0.11745 0.062,-0.19843 0.036,-0.22959 0.06,-0.36744 0.11162,-0.5085 0.0356,-0.63772 0.22519,-1.1627 0.64906,-1.75442 0.0243,-0.0705 0.0508,-0.14013 0.0816,-0.20877 -0.21564,-1.06384 -0.32348,-2.08283 0.22169,-1.39268 0.15024,-0.29493 0.43632,-0.34305 0.8077,-0.23461 0.19612,-0.43495 0.53698,-0.53481 0.96066,-0.42582 1.15296,-1.04884 2.67916,-2.33496 3.65456,-2.35902 z m -3.65456,2.35903 c -0.22031,0.20044 -0.42425,0.388 -0.61029,0.56017 0.008,0.003 0.0166,0.009 0.0243,0.0129 0.37336,-0.2018 0.77268,-0.30334 1.17203,-0.30334 0.009,0 0.0186,8e-4 0.0279,0.001 -0.21618,-0.12099 -0.42536,-0.22227 -0.61392,-0.27079 z m -1.76836,0.66043 c -0.11289,0.22159 -0.14871,0.5838 -0.0858,1.12499 0.0136,-0.0245 0.0265,-0.0485 0.0408,-0.0734 0.0429,-0.21072 0.11082,-0.45937 0.21497,-0.77928 0.002,-0.009 0.004,-0.0145 0.007,-0.0227 -0.0654,-0.1003 -0.124,-0.18285 -0.17673,-0.2496 z m -0.0858,1.12499 c -0.05,0.0902 -0.096,0.17895 -0.1359,0.26768 0.004,0.0196 0.008,0.0389 0.0119,0.0584 0.0425,-0.0877 0.087,-0.17176 0.13332,-0.25322 -0.003,-0.0246 -0.007,-0.0489 -0.009,-0.0729 z m -1.53944,3.80597 c 0.0153,-0.004 0.0296,-0.008 0.045,-0.0119 0.16651,-0.19403 0.29527,-0.3486 0.39481,-0.47232 0.007,-0.0312 0.0131,-0.0624 0.0207,-0.0935 -0.12628,0.11625 -0.24569,0.252 -0.35915,0.416 -0.0242,0.0349 -0.067,0.10418 -0.10128,0.16175 z m 1.93787,5.82032 c 0.002,-5.3e-4 0.004,-0.001 0.006,-0.002 -0.008,-0.0604 -0.0182,-0.12093 -0.0326,-0.18294 -0.006,-0.024 -0.0131,-0.0475 -0.0196,-0.0713 -0.002,0.002 -0.005,0.004 -0.007,0.007 0.0172,0.0831 0.0351,0.16597 0.0532,0.24908 z m 1.47485,-1.13999 c 0.16465,-0.0601 0.31072,-0.11225 0.43511,-0.15813 -0.005,6e-5 -0.008,-8e-5 -0.0124,0 -0.0943,0.002 -0.1881,0.0108 -0.28164,0.0253 -0.0479,0.044 -0.0955,0.0878 -0.14107,0.13281 z m 4.2354,-7.03626 c -0.007,-0.006 -0.0146,-0.012 -0.0217,-0.0176 -0.005,0.0143 -0.01,0.0262 -0.0145,0.0377 0.0126,-0.006 0.0242,-0.0133 0.0362,-0.0202 z m -5.8074,-1.99213 c -0.11803,0.13186 -0.19504,0.27622 -0.2372,0.42995 0.0672,-0.11502 0.14468,-0.24053 0.22531,-0.37 -5.3e-4,-0.0146 0.003,-0.0332 0.0119,-0.0599 z m 5.94744,0.7953 c 0.0134,0.0757 0.0191,0.15239 0.0196,0.22996 0.0213,-0.10476 0.0127,-0.14828 -0.0196,-0.22996 z m -0.56844,0.30128 c 0.0468,0.21014 0.0727,0.41567 0.0827,0.61288 0.0114,0.01 0.0233,0.0204 0.0346,0.03 0.0245,-0.0906 0.0467,-0.17724 0.0698,-0.2651 0.0326,0.093 0.0553,0.18488 0.0708,0.27596 -0.009,-0.14789 -0.0102,-0.32803 -0.006,-0.52297 -0.0202,0.0794 -0.0437,0.16417 -0.0651,0.24598 -0.0152,-0.0431 -0.0323,-0.0866 -0.0517,-0.13023 -0.0382,-0.0862 -0.0842,-0.16769 -0.13488,-0.24649 z m 0.25786,0.65371 c 0.002,0.0396 0.005,0.0777 0.008,0.11162 0.003,0.002 0.005,0.004 0.008,0.006 -0.004,-0.0392 -0.009,-0.0783 -0.016,-0.11782 z m 0.016,0.11782 c 0.004,0.0381 0.006,0.0764 0.008,0.1142 0.005,0.0247 0.009,0.0446 0.015,0.0615 0.0286,-0.006 0.0557,-0.0147 0.0816,-0.0253 0.004,-0.0191 0.007,-0.04 0.0103,-0.0584 -0.0376,-0.0297 -0.0758,-0.0602 -0.11472,-0.092 z m 0.10439,0.15038 c -0.002,0.0129 -0.005,0.0261 -0.008,0.0393 0.007,-0.0116 0.0143,-0.0276 0.0217,-0.0455 -0.005,0.002 -0.009,0.004 -0.0134,0.006 z m -0.29559,-0.30903 c -0.18678,-0.15851 -0.42665,-0.37151 -0.63356,-0.55655 0.0977,0.24122 0.18178,0.50267 0.24909,0.78496 0.11717,0.0449 0.23419,0.0898 0.33486,0.10542 0.0177,-0.0632 0.0367,-0.12926 0.0537,-0.1912 -7.9e-4,-0.0469 -0.002,-0.0946 -0.004,-0.14263 z m -0.25993,0.90744 c 0.005,0.0365 0.009,0.074 0.0129,0.1111 0.009,-0.0294 0.0182,-0.0606 0.0269,-0.0899 -0.0128,-0.007 -0.0268,-0.014 -0.0398,-0.0212 z m -6.34122,1.01234 c -0.003,0.005 -0.005,0.0111 -0.008,0.0165 0.0123,0.0762 0.0307,0.19251 0.0248,0.14056 -0.006,-0.0537 -0.0113,-0.10519 -0.0165,-0.1571 z m 0.12557,0.52038 c -0.0524,0.004 -0.14142,0.0229 -0.24236,0.0465 0.009,0.0517 0.0201,0.10318 0.0326,0.15451 0.0654,-0.0371 0.12987,-0.0755 0.19327,-0.11627 0.0269,-0.0173 0.0269,-0.0239 0.0398,-0.0357 v -0.0439 c -0.01,-7.9e-4 -0.008,-0.006 -0.0233,-0.005 z m -0.293,0.0589 c -0.0162,0.004 -0.0316,0.007 -0.0486,0.0114 -0.0172,0.0742 -0.0318,0.14895 -0.0429,0.22479 0.037,-0.0189 0.0741,-0.0379 0.11059,-0.0579 -0.009,-0.0592 -0.0151,-0.11866 -0.0191,-0.17829 z m -1.86242,0.64079 c -0.0799,0.0603 -0.10367,0.0769 -0.15968,0.11834 0.0522,-0.0385 0.1,-0.0749 0.13074,-0.10129 0.008,-0.007 0.0378,-0.0238 0.0289,-0.0171 z m 5.14956,3.82096 c 7.9e-4,-0.001 -0.009,0.007 -0.0196,0.015 0.002,-5.3e-4 0.004,-0.002 0.006,-0.002 0.009,-0.008 0.0129,-0.0119 0.0134,-0.0129 z m -7.15667,0.58239 c -0.0254,-0.004 -0.11134,0.0213 -0.22531,0.0786 -0.0129,0.0225 -0.0246,0.0423 -0.0367,0.063 0.22462,-0.0839 0.29494,-0.13632 0.262,-0.14159 z m 6.06991,0.0775 c -0.11133,0.0357 -0.32454,0.0683 -0.7121,0.44701 0.18489,-0.0546 0.3694,-0.11016 0.5488,-0.17364 0.0352,-0.0478 0.0703,-0.0956 0.10646,-0.14263 0.0422,-0.0864 0.0283,-0.0575 0.0548,-0.1111 8e-4,-0.007 0.001,-0.0131 0.002,-0.0196 z m -0.87023,0.48473 c 5.3e-4,0.003 0.001,0.006 0.002,0.009 2.6e-4,-1.1e-4 7.9e-4,9e-5 10e-4,0 -7.9e-4,-0.003 -0.002,-0.006 -0.003,-0.009 z m -5.9893,1.67432 c 0.004,0.0349 0.007,0.0595 0.0109,0.0966 0.0216,0.0611 0.0797,0.24655 0.0646,0.18345 -0.0225,-0.094 -0.0489,-0.18703 -0.0755,-0.28008 z" />
    </clipPath>
  </defs>
  <g
     inkscape:groupmode="layer"
     id="layer2"
     inkscape:label="Vilosidades">
    <path
       style="fill:none;stroke:#000000;stroke-width:0.264583px;stroke-linecap:butt;stroke-linejoin:miter;stroke-opacity:1"
       d="m 8.1923063,8.0657292 c 2.0878497,0.9772545 4.0065907,2.2654918 5.9829537,3.4424408 1.867034,1.111842 3.79699,2.167273 5.895231,2.777203 0.850583,0.247253 1.73114,0.374118 2.614853,0.421658 1.527209,0.08216 3.077132,-0.01316 4.579497,0.32998 1.91444,0.437254 3.647748,1.452096 5.581522,1.819736 1.0918,0.207568 2.209491,0.125814 3.30701,0.01683 1.872809,-0.185968 3.757833,-0.154677 5.636362,-0.112526 0.870744,0.01954 1.741888,0.0074 2.612539,0.02824 1.970395,0.04707 3.930207,0.293565 5.898805,0.367134 1.441998,0.05389 2.846104,-0.366942 4.287804,-0.366866 3.744997,1.97e-4 7.491324,0.157167 11.234799,0.05079 2.470125,-0.07019 4.94434,-0.220477 7.413368,-0.0826 0.683634,0.03818 1.40372,-0.02136 2.042562,0.233081 0.128482,0.05117 0.344562,0.05893 0.377296,0.207841 0.119729,0.544663 0.178053,1.101008 0.242286,1.654314 0.290256,2.500272 0.575097,5.002836 0.744304,7.514175 0.02684,0.398281 0.122066,0.79992 0.07045,1.196007 -0.0708,0.54336 -0.398518,1.010154 -0.747438,1.413519 -0.257076,0.29719 -0.514965,0.595719 -0.800256,0.865946 -0.49727,0.471014 -1.164861,0.726432 -1.840287,0.797954 -1.131513,0.119818 -2.25082,-0.183977 -3.37858,-0.203585 -0.428662,-0.0075 -0.908327,0.01899 -1.248973,0.309851 -0.31546,0.269358 -0.361748,0.71206 -0.351031,1.102016 0.0163,0.59302 0.172425,1.180051 0.112626,1.775625 -0.03011,0.299834 -0.209043,0.578589 -0.488455,0.712385 -0.637575,0.305303 -1.353221,0.389386 -2.050509,0.432241 -1.198678,0.07367 -2.398173,-0.04897 -3.596997,-0.02693 -1.746667,0.03211 -3.484853,0.345466 -5.23584,0.213616 -0.437248,-0.03293 -0.867723,-0.126271 -1.281755,-0.272059 -0.647891,-0.228134 -1.286479,-0.505785 -1.97762,-0.585774 -2.194434,-0.253973 -4.404997,-0.377258 -6.613549,-0.358666 -1.519539,0.01279 -3.048061,0.05179 -4.547565,0.314334 -1.837311,0.321693 -3.526389,1.150949 -5.227266,1.897912 -0.511548,0.224653 -1.103477,0.126528 -1.608838,0.384101 -0.643681,0.328073 -1.153971,0.921292 -1.869189,1.091485 -0.39371,0.09369 -0.7982,0.135897 -1.200304,0.175964 -1.63512,0.16293 -3.286658,0.156974 -4.909116,0.45565 -1.910899,0.351775 -3.866089,0.142167 -5.772714,-0.129758 -2.196934,-0.313329 -4.401448,-0.761487 -6.630805,-0.638829 -0.955427,0.05257 -1.930001,0.15961 -2.817694,0.523753 -0.766891,0.314588 -1.444704,0.805146 -2.103418,1.299885 -1.1511729,0.864609 -2.226099,1.82815 -3.4042892,2.657075 -0.4009108,0.282064 -0.8313338,0.529533 -1.3045761,0.669909 -1.2317336,0.365363 -2.5385115,0.19233 -3.7887156,0.44618 -1.05401237,0.214014 -1.98317095,0.848577 -3.0646151,0.957574 -0.1129297,0.01138 -0.226426,0.01721 -0.3399305,0.0172"
       id="path55"
       inkscape:path-effect="#path-effect57"
       inkscape:original-d="m 8.1923063,8.0657292 c 4.0686277,1.883992 8.3791827,5.6198908 12.9432517,6.4693228 1.839287,0.342315 3.779556,0.08765 5.639849,0.404147 2.005936,0.341275 3.791723,1.403868 5.774312,1.856405 1.701247,0.388319 3.15964,0.06724 4.859972,-0.01582 2.062559,-0.100758 4.160978,0 6.226641,0 2.083837,0 4.387312,0.229069 6.494512,0.367868 1.455293,0.09586 2.841848,-0.358128 4.282668,-0.358128 3.74116,0 7.48825,0.05304 11.232036,0.05304 1.098068,0 8.997865,-0.422045 9.985586,0.296542 0.191463,0.139294 1.134735,9.972759 1.082818,10.424059 -0.09029,0.784907 -0.858808,1.54577 -1.36335,2.094386 -1.403652,1.526267 -3.434472,0.908521 -5.214437,0.78858 -3.337076,-0.224867 -0.704147,3.12371 -2.114344,3.865076 -1.412899,0.742783 -4.271597,0.400695 -5.768943,0.432188 -1.785009,0.03755 -3.80473,0.427355 -5.613895,0.159124 -0.905229,-0.13421 -1.738275,-0.67173 -2.663679,-0.786681 -3.0938,-0.38431 -8.182679,-0.570494 -11.154058,-0.08809 -1.873674,0.304191 -3.668755,1.028718 -5.339231,1.903262 -0.437282,0.228928 -1.070502,0.136694 -1.54817,0.355176 -0.731877,0.334759 -1.353836,1.046864 -2.156333,1.182934 -1.913427,0.324437 -3.90503,0.191987 -5.810057,0.567756 -4.879089,0.962403 -10.261407,-1.824514 -15.125506,-0.297582 -1.755523,0.551092 -4.5044007,3.348196 -6.2279891,4.35987 -1.4763589,0.866561 -3.3699172,0.418999 -4.9372188,0.875387 -1.03729137,0.302051 -1.90889664,0.887185 -3.0504886,0.887185" />
    <path
       style="fill:none;stroke:#000000;stroke-width:0.264583px;stroke-linecap:butt;stroke-linejoin:miter;stroke-opacity:1"
       d="m 148.878,77.899325 c -1.63921,-0.115624 -3.28927,-0.138054 -4.91652,-0.3845 -0.94816,-0.143598 -1.90054,-0.503014 -2.55508,-1.234382 -0.83886,-0.937327 -1.38854,-2.084867 -1.93622,-3.204233 -0.3983,-0.814057 -0.80524,-1.624778 -1.32124,-2.374198 -0.6599,-0.958423 -1.31428,-1.954056 -1.57485,-3.114794 -0.26952,-1.200612 -0.28026,-2.437613 -0.45159,-3.651763 -0.0547,-0.387487 -0.25174,-0.796497 -0.66114,-0.918399 -0.63366,-0.188677 -1.32213,-0.369776 -1.77433,-0.900969 -0.32505,-0.381828 -0.54596,-1.076068 -1.09288,-1.065251 -0.38898,0.0077 -0.69661,0.309933 -0.95835,0.562612 -0.68392,0.660232 -1.38923,1.350908 -1.79584,2.211024 -0.50449,1.067176 -0.31322,2.271118 -0.38907,3.409771 -0.035,0.525842 -0.24614,1.017647 -0.55979,1.44171 -0.73817,0.998015 -1.78067,1.768688 -2.33764,2.894938 -0.4888,0.9884 -0.24591,2.118018 -0.5541,3.158181 -0.44106,1.488627 -1.39199,2.78258 -2.55458,3.787582 -0.6798,0.587652 -1.3503,1.185418 -1.99082,1.816669 -0.82395,0.812027 -1.71337,1.559588 -2.69746,2.17668 -2.03089,1.273507 -4.0682,2.566039 -5.82576,4.217126 -1.88848,1.774079 -3.11053,4.154851 -5.16663,5.77032 -0.34688,0.272542 -0.79426,0.40799 -1.11028,0.712839 -0.5527,0.533159 -0.71589,1.455651 -1.42367,1.796171 -0.4209,0.202499 -0.87589,0.330209 -1.30743,0.513631 -2.4295,1.032628 -4.63678,2.568578 -6.502279,4.432593 -2.05206,2.050427 -3.485965,4.622127 -4.659576,7.247907 -0.337059,0.75412 -0.737391,1.48463 -1.004621,2.26623 -0.22507,0.65829 -0.137208,1.45538 -0.590328,2.00447 -0.532475,0.64525 -1.354077,0.92554 -2.069647,1.31056 -0.476474,0.25637 -0.946648,0.59075 -1.166375,1.11758 -0.443696,1.06383 -0.610739,2.2213 -1.113418,3.2661 -0.910789,1.89305 -2.25818,3.52676 -3.615598,5.10897 -1.803265,2.10189 -3.951561,3.8678 -6.061545,5.64798 -2.703075,2.28057 -5.515028,4.47408 -7.845506,7.14781 -1.002362,1.15 -2.028653,2.35708 -2.531364,3.80837 -0.400095,1.15505 0.377586,2.53881 -0.27246,3.56465 -0.25855,0.40802 -0.734946,0.60575 -1.146083,0.82409 -0.801083,0.42543 -1.629186,0.80648 -2.507774,1.04638 -2.394514,0.65384 -4.91155,0.45456 -7.345528,0.16076 -1.47399,-0.17792 -2.933743,-0.52828 -4.418343,-0.56503 -0.715827,-0.0177 -1.476464,0.0147 -2.118368,0.37704 -0.345889,0.19525 -0.426721,0.60127 -0.503229,0.95508 -0.118212,0.54667 -0.340483,1.14288 -0.131151,1.68201 0.164314,0.42319 0.686257,0.42582 1.063038,0.45052 0.654602,0.0429 1.228599,0.39557 1.706556,0.86071 0.261511,0.2545 0.318989,0.61434 0.355196,0.96053 0.205525,1.9651 0.282852,3.94212 0.308705,5.9166 0.0143,1.09176 0.196296,2.20463 -0.0165,3.27644 -0.110182,0.55496 -0.716619,0.92291 -0.777831,1.47307 -0.138074,1.24097 0.381578,2.54354 -0.03391,3.7348 -0.247004,0.7082 -0.776195,1.26843 -1.27124,1.81343 -0.72969,0.80332 -1.535234,1.53677 -2.174511,2.42231 -1.424546,1.97331 -2.525298,4.18685 -4.247165,5.94287 -1.67061,1.70375 -3.428224,3.33295 -4.917012,5.20662 -0.215324,0.27099 -0.354379,0.57045 -0.4312,0.92513 -0.09554,0.4411 -0.440779,0.76994 -0.74816,1.07585 -0.622252,0.61927 -1.273517,1.21342 -1.786443,1.93492 -0.592106,0.83288 -1.238137,1.64577 -1.665543,2.57295 -0.364378,0.79045 -0.0213,1.70685 -0.427344,2.50005 -1.059505,2.0697 -2.01081,4.23857 -3.585552,5.98633 -0.61609,0.68378 -1.307528,1.29713 -2.042545,1.85007"
       id="path59"
       inkscape:path-effect="#path-effect61"
       inkscape:original-d="m 148.878,77.899325 c -7.20031,-0.436406 -7.0679,-0.06485 -9.90803,-5.834687 -0.72517,-1.473216 -1.92154,-2.589165 -2.31529,-4.135472 -0.31029,-1.21853 -0.35672,-2.405872 -0.48212,-3.633088 -0.17581,-1.720506 -0.83093,-1.009994 -2.13331,-1.838632 -0.50372,-0.320485 -0.83294,-1.309698 -1.4451,-1.40661 -0.6673,-0.10564 -2.59137,2.336689 -2.8154,2.900238 -0.49068,1.234302 -0.11691,2.549829 -0.41977,3.822144 -0.27855,1.170192 -2.17974,2.486912 -2.80552,3.797673 -0.46618,0.97648 -0.21583,1.920034 -0.47767,2.892981 -0.51477,1.912686 -1.6461,3.245411 -3.14125,4.496911 -1.27088,1.063779 -2.31586,2.36169 -3.7843,3.299177 -2.41949,1.544651 -4.4738,2.687849 -6.56183,4.806185 -1.95954,1.987968 -3.26268,4.717974 -5.84218,6.081887 -0.4933,0.260835 -0.97269,1.710669 -1.71922,1.957631 -3.12694,1.034455 -6.425815,3.33991 -8.579377,5.914377 -2.002769,2.3942 -3.282194,5.25714 -4.56845,8.12208 -0.305564,0.68061 -0.303728,1.44998 -0.573878,2.08902 -0.455605,1.07774 -2.788269,1.43989 -3.279545,2.4575 -0.430974,0.8927 -0.566849,1.8735 -0.931741,2.82882 -0.761148,1.99274 -2.335606,3.82521 -3.647977,5.4592 -4.069069,5.06629 -14.108401,11.00589 -16.619431,16.73908 -0.502709,1.14778 0.01847,2.53315 -0.322527,3.68959 -0.118581,0.40215 -1.264735,0.90317 -1.585352,1.07673 -4.110143,2.22488 -9.027641,0.95544 -13.489138,0.45501 -0.698116,-0.0783 -2.586334,-0.10798 -2.855153,0.84204 -1.193903,4.21933 1.19974,1.29892 2.735908,3.76885 0.333113,0.5356 0.569296,8.88633 0.419439,9.89299 -0.05973,0.40121 -0.766895,1.29685 -0.78164,1.45931 -0.105294,1.16014 0.207393,2.44277 0,3.59554 -0.188339,1.04685 -2.359118,2.92329 -2.954322,3.66084 -1.623912,2.01227 -2.698372,4.48547 -4.490426,6.34001 -1.602222,1.65809 -4.212527,4.03427 -5.473769,5.88206 -0.186513,0.27325 -0.06336,0.55004 -0.282398,0.87733 -0.510775,0.7632 -1.44195,1.43035 -2.033394,2.17779 -0.730827,0.92359 -1.314043,1.93768 -1.951871,2.91721 -0.471421,0.72397 -0.05946,1.76825 -0.447905,2.52619 -1.655752,3.23072 -2.520429,5.5661 -5.685986,7.94961" />
    <path
       style="fill:none;stroke:#000000;stroke-width:0.264583px;stroke-linecap:butt;stroke-linejoin:miter;stroke-opacity:1"
       d="m 27.628074,195.82684 c -0.213203,1.07796 -0.255113,2.20419 -0.639445,3.23412 -0.108743,0.29141 -0.382117,0.46964 -0.613079,0.65695 -0.165143,0.13393 -0.287465,0.30822 -0.37764,0.50316 -0.530255,1.14628 -0.888759,2.38958 -1.598544,3.43574 -0.217964,0.32126 -0.565488,0.51997 -0.895168,0.70778 -0.694882,0.39585 -1.480774,0.58508 -2.253905,0.76041 -0.801502,0.18176 -1.605265,0.35508 -2.392742,0.59641 -0.464493,0.14235 -0.987488,0.13356 -1.423475,-0.098 -0.54386,-0.2889 -0.922446,-0.79295 -1.297235,-1.26531 -0.428575,-0.54015 -0.884392,-1.09375 -1.51509,-1.40902 -0.965673,-0.48271 -2.022693,-0.76924 -3.096585,-0.87652 -0.755483,-0.0755 -1.515567,-0.0265 -2.2735095,-0.0343 -0.5738065,-0.006 -1.1474861,0.0517 -1.7223281,0.0266 -0.2212561,-0.01 -0.3100504,0.20695 -0.401002,0.3691 -0.404148,0.72053 -0.4577618,1.58478 -0.3179292,2.38544 0.2106881,1.20637 0.7415952,2.32332 1.2603786,3.42226 0.4609324,0.97639 0.9921832,1.93252 1.2797844,2.97763 0.1861887,0.67659 0.2617346,1.37856 0.3028312,2.07703 0.1168042,1.98518 -0.017757,3.98047 -0.3224225,5.9431 -0.1411037,0.90898 -0.2843057,1.82456 -0.571012,2.69967 -0.371646,1.13437 -1.0869288,2.10765 -1.7664824,3.07337 -0.686106,0.97503 -1.3908798,1.97604 -1.7195762,3.13691 -0.1815797,0.64129 -0.228533,1.31122 -0.2588738,1.97373 -0.1144761,2.49964 0.3001514,4.99966 0.05621,7.49689 -0.05676,0.58105 -0.1601292,1.15871 -0.3463983,1.71378 -0.2845676,0.84799 -0.6585665,1.66617 -0.8572952,2.54311 -0.5142925,2.26945 -0.4544411,4.61886 -0.2681618,6.92385 0.2281853,2.82353 0.6676706,5.65331 0.4431352,8.49077 -0.041863,0.52903 0.029033,1.09865 -0.1932453,1.58057 -0.102985,0.22328 -0.3205697,0.36237 -0.5155655,0.49801 -0.4088782,0.28441 -0.8815798,0.48568 -1.240194,0.83401 -0.1748943,0.16988 -0.3013345,0.38172 -0.4426547,0.57905 -1.38911408,1.93963 -2.8238486,3.84998 -4.1102642,5.8595 -0.2335878,0.36489 -0.5411885,0.69834 -0.6775666,1.11061 -0.066477,0.20096 0.1780419,-0.0553 0.2253936,-0.10591 0.7393897,-0.79049 1.4155899,-1.63745 2.09712643,-2.47743 C -0.54197967,264.83403 -0.27063543,264.4973 0,264.16"
       id="path63"
       inkscape:path-effect="#path-effect65"
       inkscape:original-d="m 27.628074,195.82684 c -0.209592,1.06529 -0.381441,2.13871 -0.628777,3.19588 -0.09652,0.41255 -0.756428,0.67241 -0.938871,1.06355 -0.534363,1.14564 -1.044436,2.41516 -1.635126,3.52576 -0.170545,0.32065 -0.644483,0.59415 -0.950246,0.76926 -1.189975,0.68152 -3.146312,0.84583 -4.487084,1.29918 -2.261706,0.76473 -2.665981,-1.88395 -4.325778,-2.71138 -1.72677,-0.86081 -3.289399,-1.01961 -5.3175766,-0.93125 -0.1979091,0.009 -1.9070581,-0.0765 -2.0324598,0.10178 -1.9319364,2.74604 1.6105399,6.7794 2.1414761,9.50455 0.3457152,1.77446 0.2680692,4.22869 0.081322,5.99408 -0.1400318,1.32378 -0.3621087,2.8057 -0.7052836,4.06692 -0.6837424,2.51285 -3.3272402,4.42576 -3.6993438,7.12303 -0.4321588,3.13258 0.3554854,6.46306 -0.1613382,9.55786 -0.1871075,1.12042 -0.7690596,2.12501 -1.0386242,3.22375 -1.3970155,5.69423 0.8771146,11.52212 -0.070159,17.22045 -0.073111,0.43981 -1.5663387,1.06019 -1.8852023,1.50259 C 0.64621433,262.17646 -7.5539046,273.57496 0,264.16" />
    <path
       style="fill:none;stroke:#000000;stroke-width:0.264583px;stroke-linecap:butt;stroke-linejoin:miter;stroke-opacity:1"
       d="m 148.878,77.899325 c 1.61022,0.763325 2.59902,2.452259 2.90508,4.156255 0.16889,0.940311 0.37195,2.002565 -0.0689,2.856817 -0.49925,0.967377 -1.23088,1.794415 -1.95971,2.592997 -0.6062,0.664217 -1.24121,1.365868 -2.12564,1.659929 -0.89315,0.296961 -1.83792,0.37647 -2.72849,0.699631 -1.57383,0.571092 -3.20596,1.105896 -4.90695,1.044442 -2.68057,-0.09685 -5.18161,-1.501823 -7.88448,-1.297475 -1.15347,0.08721 -2.27139,0.434003 -3.35956,0.806467 -1.16869,0.400026 -2.16282,1.18195 -3.30949,1.63822 -1.17459,0.467378 -2.47154,0.0022 -3.66986,0.385252 -1.18398,0.378433 -2.31692,0.913629 -3.36792,1.565665 -1.48085,0.918711 -2.62968,2.568377 -4.33619,2.917821 -1.10374,0.226014 -2.31062,-0.174542 -3.34343,0.38458 -0.73803,0.399541 -1.29739,1.046373 -1.8815,1.633368 -2.06735,2.077576 -4.18814,4.117316 -6.04056,6.389596 -0.32573,0.39956 -0.66572,0.79537 -0.81432,1.31096 -0.29454,1.02193 -0.81741,1.96441 -1.49776,2.7827 -2.905729,3.49484 -6.471962,6.36676 -9.495491,9.74778 -1.689678,1.88946 -2.898875,4.12992 -4.232557,6.26818 -0.749196,1.20117 -0.66142,2.6652 -0.648882,4.02232 0.0085,0.92211 -0.08201,1.86701 -0.518475,2.70502 -1.005061,1.9297 -2.520519,3.51906 -4.008735,5.07876 -3.167752,3.31991 -6.43694,6.53557 -9.423637,10.03991 -0.881177,1.0339 -2.15437,1.65841 -2.902172,2.83496 -1.126828,1.77289 -1.893501,3.79171 -3.349229,5.34444 -0.760372,0.81104 -1.526364,1.62484 -2.109661,2.58008 -0.474661,0.77733 -1.067447,1.46662 -1.696017,2.1282 -1.331913,1.40187 -2.515908,2.97778 -4.150903,4.06091 -1.340258,0.88788 -2.773339,1.69135 -3.833309,2.93624 -1.497816,1.75912 -2.425096,3.90697 -3.767332,5.77313 -0.64268,0.89354 -1.491439,1.64493 -2.016218,2.61349 -0.593704,1.09577 -0.220624,2.39486 -0.654529,3.54281 -0.531171,1.40528 -1.491337,2.59112 -1.949664,4.04357 -0.504586,1.59904 -0.693744,3.26871 -1.00622,4.9096 -0.436047,2.28979 -1.600867,4.34229 -2.789873,6.31504 -2.376472,3.94294 -5.042304,7.69529 -7.577819,11.53718 -0.80189,1.21505 -1.976862,2.25587 -2.360231,3.68479 -0.573257,2.13668 -0.357815,4.36759 -0.400354,6.55221 -0.04233,2.17365 0.127298,4.44548 -0.679716,6.46625 -0.367994,0.92146 -1.002531,1.77679 -1.107315,2.76442 -0.10222,0.96346 0.392201,1.84764 0.468976,2.80107 0.290656,3.60953 0.669062,7.29612 -0.03718,10.86023 -0.217851,1.0994 -1.234272,1.76812 -1.759098,2.70193 -0.465841,0.82886 -0.836247,1.70896 -1.223315,2.57692 -0.866412,1.94284 -1.834206,3.83631 -2.835472,5.71542 -0.700835,1.31528 -1.22887,2.71384 -1.896991,4.05201 -0.21519,0.431 -0.03376,0.86807 0.441643,1.03893 1.135473,0.40809 2.362299,0.44259 3.555375,0.4657 3.25972,0.0631 6.506637,-0.31493 9.761147,-0.41924 2.540638,-0.0814 5.116393,0.41862 7.623753,-0.0362 0.971388,-0.17621 2.042325,-0.48856 2.645983,-1.3033 0.379532,-0.51224 0.481655,-1.16335 0.748699,-1.73498 0.317654,-0.67997 0.811277,-1.29197 1.494865,-1.65134 2.783943,-1.46354 5.581899,-2.91104 8.468328,-4.15922 0.388641,-0.16806 0.752198,-0.59502 1.1657,-0.51358 0.470363,0.0926 0.81405,-0.14371 1.156894,-0.45986 1.136434,-1.04795 2.1775,-2.19834 3.401332,-3.15191 1.809994,-1.41029 3.709446,-2.74216 5.798274,-3.69896 2.820171,-1.29179 5.992481,-1.58581 8.753363,-3.04536 4.186138,-2.21302 7.62488,-5.52382 11.385158,-8.34863 0.989746,-0.74352 1.990226,-1.47809 3.110244,-2.02678 1.291347,-0.63262 2.663292,-1.2113 3.657607,-2.30925 1.46342,-1.61595 2.893957,-3.2708 4.510876,-4.73874 0.33375,-0.303 0.73314,-0.4914 1.16327,-0.64641 1.56481,-0.56392 2.96103,-1.53174 4.18061,-2.65091 0.73788,-0.67713 0.98501,-1.69222 1.06038,-2.66137 0.071,-0.91331 0.10318,-1.86725 0.52023,-2.71094 0.21053,-0.4259 0.8791,-0.0993 1.03168,-0.49499 0.15419,-0.39983 0.26059,-0.83029 0.40287,-1.24192 0.23633,-0.6837 0.70141,-1.27717 0.89028,-1.97138 0.15167,-0.55747 -0.0491,-1.29719 0.38623,-1.69192 0.38817,-0.35195 1.03108,-0.35863 1.49016,-0.15185 1.00073,0.45076 1.56744,1.44769 2.21053,2.28701 0.36882,0.48136 0.62812,1.14219 1.21013,1.37964 0.90305,0.36842 1.91253,0.2535 2.86802,0.37429 0.46686,0.059 0.8341,-0.19845 0.97793,-0.6564 0.13907,-0.44279 0.43469,-0.73674 0.83691,-1.01219 0.81267,-0.55654 1.52957,-1.23346 2.30046,-1.84589 0.73476,-0.58373 1.3618,-1.39662 2.25944,-1.68526 0.67842,-0.21815 1.51275,0.10298 2.09019,-0.3992 0.44202,-0.38441 0.57541,-0.98234 1.02164,-1.38812 1.80209,-1.63874 2.92992,-3.8506 4.64781,-5.57086 1.59653,-1.59873 3.58418,-2.82294 4.90864,-4.67366 0.69599,-0.97253 1.11498,-2.23312 2.1513,-2.88413 0.91934,-0.57752 2.04772,-0.59586 3.05612,-0.93849 0.79437,-0.26991 1.65597,-0.62615 2.12681,-1.32963 0.51465,-0.76893 0.4916,-1.73886 0.89345,-2.56374 0.58121,-1.19306 1.40505,-2.24094 2.00726,-3.42685 0.7761,-1.52834 1.20377,-3.37691 2.53251,-4.48301 0.65651,-0.54651 1.51321,-0.75358 2.30946,-1.01509 1.05008,-0.34488 2.18071,-0.5411 3.1156,-1.14768 1.59315,-1.03367 2.26288,-2.98868 3.88392,-4.00253 0.76114,-0.47604 1.14316,-1.33103 1.58647,-2.07456 0.57802,-0.96947 1.12229,-2.08854 2.17235,-2.62127 2.46563,-1.2509 4.88404,-2.59355 7.36621,-3.81474 0.45093,-0.22185 0.84049,-0.59791 0.86898,-1.14196 0.0572,-1.09196 -0.36159,-2.13598 -0.71538,-3.14843 -0.37919,-1.08513 -0.7357,-2.17583 -1.11154,-3.26838 -0.15471,-0.44973 0.17737,-0.83745 0.65607,-0.8759 0.72946,-0.0586 1.44075,0.11968 2.1788,0.0682 2.23053,-0.1557 4.47942,-0.51175 6.70575,-0.25248 0.52603,0.0613 1.12621,0.0965 1.49985,0.55103 0.87205,1.0609 1.00098,2.50124 1.02652,3.82081 0.0282,1.45901 -0.0581,2.9202 0.13975,4.37681 0.26294,1.93544 0.6559,3.9182 0.28553,5.85944 -0.29759,1.55975 -1.15977,2.93709 -2.02216,4.23931 -0.38332,0.57882 -0.41458,1.71662 -1.10393,1.76692 -0.44703,0.0326 -0.63186,0.31653 -0.75725,0.74975 -0.53815,1.85931 -1.01608,3.78034 -2.11437,5.41562 -0.38085,0.56706 -0.33186,1.29995 -0.72684,1.87455 -1.08347,1.57617 -2.52081,2.8631 -3.94785,4.11906 -1.96185,1.72666 -3.97564,3.39147 -5.89996,5.16303 -2.03156,1.87029 -4.13079,3.70029 -5.7621,5.95792 -0.94596,1.30915 -1.74559,2.77132 -2.97773,3.82752 -0.82746,0.70931 -1.84449,1.12428 -2.70745,1.79684 -1.37206,1.06933 -2.70352,2.18875 -4.07772,3.25649 -1.96856,1.52955 -4.40543,2.24682 -6.77132,2.93058 -0.69365,0.20047 -1.53622,0.0901 -2.09601,0.57264 -1.02633,0.88465 -1.69394,2.09492 -2.33433,3.26758 -0.76607,1.40281 -1.46416,2.84488 -2.38088,4.16223 -1.03469,1.48688 -2.05645,2.98272 -3.11073,4.4559 -0.83401,1.16539 -4.74748,3.02431 -3.28673,2.74713 0.40748,-0.0773 0.70342,-0.34135 0.99044,-0.63934 0.3612,-0.375 0.76281,-0.7207 1.22277,-0.96903"
       id="path67"
       inkscape:path-effect="#path-effect69"
       inkscape:original-d="m 148.878,77.899325 c 2.34393,1.102797 3.44612,4.279977 2.89091,6.85087 -0.16309,0.755184 -2.46757,3.350387 -3.11588,3.862154 -1.06564,0.841208 -2.22607,0.723818 -3.39635,1.128297 -1.92741,0.666166 -3.4021,1.296631 -5.56275,1.153668 -2.80881,-0.185848 -5.70259,-1.796616 -8.60491,-1.138579 -1.94745,0.441542 -3.85603,1.102278 -5.50919,2.220794 -0.69648,0.471236 -2.22689,0.213601 -3.0822,0.308615 -1.24936,0.138793 -2.77753,1.10308 -3.89901,1.615752 -0.59634,0.272606 -4.4799,3.014665 -4.53275,3.02445 -1.42548,0.263834 -2.54459,-0.292955 -3.81296,0.683466 -0.91379,0.703461 -7.93954,7.957118 -8.15204,8.662708 -0.41658,1.38325 -0.7173,2.09579 -1.75353,3.32454 -2.780906,3.29757 -5.985664,6.11182 -9.024081,9.22573 -1.79651,1.84114 -3.031688,4.32894 -4.451156,6.44492 -1.254858,1.87059 -0.499981,3.89048 -0.885434,5.87996 -0.190831,0.98495 -1.380429,2.68376 -2.029968,3.46112 -3.666209,4.38765 -8.209288,8.00254 -11.68287,12.53994 -0.780902,1.02006 -2.110298,1.62404 -2.805049,2.65328 -0.911233,1.34994 -1.640337,3.04771 -2.597999,4.47564 -0.725183,1.08129 -1.782315,1.95792 -2.498339,2.92887 -0.660421,0.89556 -1.102177,1.81719 -1.911826,2.60925 -1.286534,1.25858 -2.379662,2.82425 -3.808084,3.92165 -1.329455,1.02137 -2.853016,1.7007 -4.037087,2.89563 -1.557867,1.57217 -2.680957,3.89854 -3.861287,5.73134 -0.6844,1.06273 -1.553718,1.97113 -2.27145,2.96502 -0.70267,0.97303 -0.400437,2.14446 -0.64529,3.24852 -0.3137,1.4145 -1.520822,2.72453 -1.957387,4.08826 -1.349664,4.21606 -0.529352,5.53719 -2.803679,9.71736 -2.531771,4.65334 -5.814218,8.79898 -8.573672,13.29878 -0.728146,1.18737 -2.22871,2.74571 -2.559343,4.10388 -0.547489,2.24897 -0.220475,4.74473 -0.381823,7.07452 -0.132885,1.91882 -0.64424,3.82933 -0.64424,5.75169 -0.35783,0.87836 -0.759465,1.74012 -1.07349,2.63507 -0.229029,0.65272 0.347595,1.92506 0.406641,2.59896 0.308147,3.51694 0.492795,7.64443 0,11.13627 -0.167551,1.18723 -1.461984,2.05943 -1.956104,3.09063 -1.168823,2.43927 -2.161191,4.9453 -3.533814,7.35542 -0.231031,0.40566 -2.753147,4.87127 -2.263703,5.3963 1.362594,1.46167 11.477066,0.41324 13.788238,0.34474 2.424153,-0.0719 4.901157,0.18926 7.319541,0 1.016894,-0.0796 2.79084,-0.68525 3.196653,-1.76779 0.383182,-1.02216 0.576731,-1.80234 1.438867,-2.62017 0.457814,-0.43429 9.92182,-4.95911 10.161727,-5.01023 0.01159,-0.002 0.633122,0.003 0.637278,0 0.484731,-0.29866 2.467924,-2.38112 3.028408,-2.85742 1.806447,-1.53512 4.065951,-3.08598 6.186363,-4.19166 2.828934,-1.47514 6.063359,-1.66012 8.942187,-3.12768 4.947969,-2.52235 8.828242,-6.53363 13.348248,-9.71726 1.407546,-0.99139 3.590574,-1.56027 4.797771,-2.76458 0.52521,-0.52396 4.663763,-5.39096 5.671323,-5.65976 1.49631,-0.39919 3.30635,-1.61094 4.46249,-2.68807 1.61786,-1.50732 0.846,-3.24827 1.46415,-5.03648 0.12615,-0.36494 0.19709,-0.44421 0.55478,-0.82586 0.16451,-0.17554 0.65,0.0918 0.70768,-0.14173 0.29055,-1.17654 0.65525,-1.91084 1.17946,-2.94132 0.22415,-0.44062 0.19418,-1.8432 0.58925,-2.01619 2.11633,-0.92671 3.41313,2.40994 4.48258,3.43828 0.60309,0.57991 2.88446,0.66431 3.70205,0.5134 0.39242,-0.0724 0.55645,-1.22469 0.8931,-1.38992 0.8261,-0.40545 1.64017,-1.30336 2.45344,-1.88382 0.27955,-0.19952 2.10713,-1.80005 2.60026,-1.90725 0.67027,-0.14571 1.39289,0.0813 1.98279,-0.36231 0.36632,-0.27549 0.48709,-0.90999 0.85488,-1.23707 1.81103,-1.61058 2.57025,-3.24043 4.17096,-5.04224 1.67246,-1.88258 3.73043,-3.15139 5.33846,-5.07401 0.75636,-0.90433 1.54314,-2.83218 2.67445,-3.34229 1.39989,-0.6312 2.98687,-0.37283 4.66887,-1.86196 0.61797,-0.54712 0.62135,-1.59981 0.91394,-2.36307 0.4459,-1.16322 1.28079,-2.13814 1.87055,-3.23545 0.86729,-1.6137 1.6209,-3.5664 2.77934,-5.02061 0.70336,-0.88293 4.24199,-1.42466 5.49915,-2.24456 1.41027,-0.91975 2.07006,-2.57082 3.34481,-3.629 0.33449,-0.27766 0.7558,-0.45702 1.04201,-0.78423 1.01498,-1.16042 1.77874,-3.52543 3.19589,-4.25438 1.20079,-0.61766 7.56808,-3.71025 8.03508,-4.27713 1.21157,-1.47069 -2.06575,-6.65697 -1.5276,-7.69572 0.29348,-0.56648 1.71343,-0.20391 2.16514,-0.20391 0.84187,0 7.80299,-0.77024 8.63282,0.0436 1.83801,1.80267 0.99109,5.49777 1.27723,7.73702 0.27341,2.13959 0.89759,5.26469 0.16267,7.37467 -0.63423,1.82089 -1.92214,3.46215 -2.85087,5.10633 -0.12022,0.21284 -0.58955,0.0795 -0.66341,0.31251 -0.68583,2.16356 -0.95522,4.05358 -2.29951,5.96258 -0.28225,0.40082 -0.27419,1.14463 -0.57475,1.63887 -1.63645,2.69103 -6.79112,6.44703 -9.29149,8.8387 -1.8729,1.79148 -4.24981,3.69019 -5.82202,5.75294 -1.11276,1.45994 -2.11998,3.12457 -3.384,4.46325 -0.71858,0.76102 -1.79028,1.1029 -2.60251,1.75032 -1.34006,1.06816 -2.78407,2.12037 -4.0664,3.23545 -1.94775,1.69371 -4.76651,2.62841 -7.27539,3.24565 -0.47233,0.11621 -1.54385,0.22458 -1.91911,0.52871 -1.61322,1.30746 -3.06846,4.91511 -4.10955,6.52246 -0.96514,1.49011 -2.09138,2.9745 -3.09048,4.45538 -0.99022,1.46774 -2.13238,3.13678 -3.86696,3.6406 -0.23829,0.0692 0.52206,-0.11842 0.67506,-0.31378 0.36025,-0.45997 0.9789,-1.01224 1.49247,-1.28019"
       clip-path="url(#clipPath119)" />
    <path
       style="fill:none;stroke:#000000;stroke-width:0.264583px;stroke-linecap:butt;stroke-linejoin:miter;stroke-opacity:1"
       d="m 140.76814,210.29775 c -0.40348,-0.27014 -0.73546,-0.92409 -1.21073,-0.81096 -0.17283,0.0411 -0.3099,0.1796 -0.4434,0.29196 -0.99166,0.83463 -1.77889,1.92219 -2.86902,2.62201 -0.37029,0.23771 -0.77854,0.41326 -1.18686,0.57528 -1.37321,0.54489 -2.82954,0.88414 -4.13902,1.58755 -0.48953,0.26296 -0.91105,0.62731 -1.35335,0.95906 -1.16885,0.8767 -2.38455,1.70158 -3.45887,2.69322 -0.24077,0.22224 -0.53559,0.41554 -0.67998,0.71345 -0.68036,1.40374 -1.6102,2.70691 -2.83215,3.68953 -1.14141,0.91786 -2.46132,1.58039 -3.79542,2.16709 -0.669,0.29421 -1.31854,0.64875 -2.02041,0.85196 -0.56367,0.1632 -1.19621,0.10659 -1.71402,0.39652 -0.23584,0.13205 -0.42055,0.33795 -0.60328,0.53316 -0.75003,0.80128 -1.34627,1.74779 -2.22165,2.43123 -2.5531,1.9933 -5.37578,3.63931 -7.78138,5.81724 -0.4123,0.37328 -0.84912,0.72896 -1.1967,1.16414 -0.30398,0.38059 -0.55829,0.80399 -0.93932,1.12082 -0.96676,0.80387 -2.15308,1.26056 -3.298361,1.74431 -0.996671,0.42098 -2.010693,0.87915 -2.797584,1.64264 -1.044799,1.01373 -1.831164,2.25253 -2.844101,3.29713 -1.442961,1.48806 -3.080881,2.78474 -4.431188,4.36048 -0.975096,1.13789 -1.664464,2.51133 -2.778703,3.52965 -0.380419,0.34767 -0.806602,0.66409 -1.309771,0.80923 -0.892864,0.25755 -1.837384,0.21999 -2.753469,0.14694 -1.404148,-0.11197 -2.787845,-0.42815 -4.19579,-0.48341 -0.456326,-0.0179 -1.046888,-0.21404 -1.36674,0.1215 -0.121215,0.12716 -0.172834,0.30649 -0.230899,0.46905 -0.40822,1.14289 -0.744797,2.30985 -1.073675,3.47743 -0.09292,0.32989 -0.189089,0.66253 -0.375842,0.95521 -0.480914,0.75369 -1.127158,1.38639 -1.801724,1.96425 -0.333067,0.28532 -0.64366,0.60486 -1.015562,0.83769 -0.622513,0.38973 -1.397753,0.2319 -2.063591,0.4959 -1.280785,0.50782 -2.397907,1.35799 -3.696164,1.82477 -0.482116,0.17334 -1.001093,0.21667 -1.510471,0.16955 -0.206386,-0.0191 -0.462156,-0.0347 -0.596116,0.15641 -0.199455,0.28449 -0.258444,0.63821 -0.32421,0.97212 -0.03157,0.1603 -0.05983,0.32125 -0.08666,0.48241"
       id="path156"
       inkscape:path-effect="#path-effect158"
       inkscape:original-d="m 140.76814,210.29775 c -0.40358,-0.27032 -0.7736,-0.59915 -1.21073,-0.81096 -0.19054,-0.0923 -3.19829,2.85479 -3.35231,2.94486 -1.77376,1.03721 -4.4002,1.32276 -6.02613,2.62645 -0.59319,0.47563 -4.43386,3.22192 -4.75206,3.87122 -0.70752,1.44371 -1.617,2.73866 -2.95647,3.78868 -1.55304,1.21744 -3.73229,2.11156 -5.60074,2.88731 -0.44332,0.18406 -1.56844,0.19347 -1.95681,0.5278 -0.97516,0.83945 -1.54801,1.97676 -2.57537,2.7889 -2.76329,2.18442 -6.48534,4.38656 -8.90749,6.86888 -0.38542,0.395 -0.57713,0.85446 -1.00771,1.2259 -1.6922,1.4598 -3.904228,1.7553 -5.624869,2.99061 -1.129744,0.81108 -2.119542,2.40112 -3.106036,3.45391 -1.45021,1.54767 -3.110727,2.90425 -4.573796,4.49716 -1.1981,1.30443 -2.044883,3.18786 -3.564978,4.20932 -2.060641,1.3847 -7.353167,-0.53242 -9.005768,0.10169 -0.220866,0.0847 -1.238602,3.74689 -1.429732,4.37197 -0.32935,1.07714 -2.098193,2.55649 -2.913131,3.22085 -0.648705,0.52884 -1.456303,0.30742 -2.190594,0.59572 -1.188511,0.46664 -2.269664,1.24022 -3.456873,1.73409 -2.155807,0.89679 -2.334938,-0.82284 -2.784581,1.88216" />
    <path
       style="fill:none;stroke:#000000;stroke-width:0.264583px;stroke-linecap:butt;stroke-linejoin:miter;stroke-opacity:1"
       d="m 165.8656,265.76049 c 3.55789,-4.02277 7.79793,-7.39138 11.22885,-11.53054 1.82959,-2.20727 3.33613,-4.66172 5.218,-6.82937 1.88023,-2.16576 3.87684,-4.2595 5.3984,-6.70344 1.3893,-2.23151 3.09768,-4.28556 5.16158,-5.9251 0.49949,-0.39679 1.02453,-0.77172 1.61855,-1.01567 0.52328,-0.2149 1.0709,-0.39944 1.51824,-0.76016 0.61968,-0.49969 1.0788,-1.16205 1.5037,-1.82622 0.96077,-1.50178 1.69106,-3.13272 2.48365,-4.72547 0.1488,-0.29902 0.15209,-0.63632 0.19324,-0.96028 0.0529,-0.4162 0.3818,-0.71164 0.67717,-0.97636 0.56917,-0.51011 1.15489,-1.01031 1.81745,-1.39988 0.36222,-0.21298 0.79158,-0.22135 1.19711,-0.2705 0.47971,-0.0581 0.96327,-0.10327 1.43371,-0.2259 0.19254,-0.0502 0.26958,-0.2478 0.36582,-0.39967 0.47348,-0.74717 0.76637,-1.59783 0.90424,-2.46973 0.15334,-0.96974 0.20768,-1.95644 0.463,-2.90928 0.3007,-1.12221 0.87701,-2.18516 0.96205,-3.35009 0.0586,-0.80247 -0.0456,-1.6096 0.0631,-2.41149 0.0368,-0.27182 0.19704,-0.50032 0.37316,-0.70336 0.35665,-0.41117 0.88467,-0.62821 1.41642,-0.70082 0.897,-0.12248 1.8224,0.0476 2.70377,-0.21202 0.3818,-0.11248 0.70576,-0.35398 0.99686,-0.61902 1.04545,-0.95186 1.8082,-2.15749 2.56637,-3.33774 0.53185,-0.82793 1.13583,-1.60524 1.69691,-2.41546 0.25189,-0.36374 0.41524,-0.79698 0.7446,-1.10094 0.15351,-0.14167 0.37676,-0.11487 0.5694,-0.13402 2.73977,-0.27229 5.50427,-0.0153 8.24356,-0.24697 1.01931,-0.0862 2.04693,-0.30085 3.06686,-0.16221 0.28529,0.0388 0.64631,0.0489 0.81654,0.29884 0.17679,0.25957 0.23737,0.57791 0.28899,0.88168 0.0978,0.57526 0.20512,1.16404 0.13663,1.74488 -0.0359,0.30481 -0.14716,0.59643 -0.26217,0.87909 -0.34013,0.83594 -0.95973,1.54698 -1.72921,2.0177 -0.86946,0.53188 -1.86657,0.88281 -2.87617,0.93273 -0.33616,0.0166 -0.69073,-0.16615 -1.00757,-0.036 -0.17425,0.0716 -0.22203,0.28351 -0.28618,0.44266 -0.51711,1.28299 -0.95283,2.60942 -1.65755,3.80654 -0.20897,0.35498 -0.46996,0.67561 -0.76765,0.96275 -0.85175,0.82156 -1.65038,1.72388 -2.6708,2.34487 -0.70739,0.43049 -1.53671,0.56352 -2.33453,0.72678 -0.70136,0.14352 -1.42247,0.37567 -1.94639,0.88515 -0.39827,0.38729 -0.71874,0.87473 -0.84512,1.42075 -0.12223,0.5281 0.0601,1.07636 0.36549,1.50991 0.37038,0.52589 1.53146,1.99641 1.32116,1.39287 -0.0394,-0.11313 -0.29379,-0.38373 -0.32583,-0.17166 -0.0448,0.29622 0.0291,0.59572 0.0882,0.88465 0.23626,1.15486 0.17607,2.34346 0.34063,3.50739 0.0663,0.46865 0.1557,0.94144 0.38185,1.36533 0.25272,0.4737 0.5658,0.92304 0.69781,1.45357 0.24534,0.98601 0.41067,1.99457 0.46748,3.00849 0.0348,0.62168 0.0714,1.25845 -0.0796,1.86779 -0.0572,0.23093 -0.17787,0.47235 -0.42101,0.56066 -0.54355,0.19741 -1.11944,0.28664 -1.68891,0.37138 -1.8018,0.26813 -3.61588,0.46938 -5.43542,0.54817 -0.5321,0.023 -1.07711,0.14022 -1.59872,0.0272 -0.59019,-0.12787 -1.14096,-0.38582 -1.6996,-0.60826 -0.76852,-0.30601 -1.54497,-0.64449 -2.37559,-0.72243 -0.25259,-0.0237 -0.73565,-0.20573 -0.75745,0.0485 -0.0173,0.20202 0.0118,0.40587 -0.0499,0.60851 -0.17335,0.56952 -0.53147,1.0536 -0.83304,1.55903 -0.60506,1.01408 -1.23875,2.04624 -2.16481,2.80364 -1.16657,0.9541 -2.38972,1.8385 -3.52997,2.82469 -0.64185,0.55513 -1.28165,1.12264 -1.81463,1.78741 -0.20455,0.25513 -0.33668,0.55861 -0.40988,0.87663 -0.21594,0.93816 -0.10954,1.9064 -0.12003,2.85905 -0.008,0.74633 -0.10104,1.51719 -0.48657,2.17703 -1.14905,1.9666 -2.60219,3.72638 -3.9206,5.57762 -0.8488,1.19184 -2.10602,2.03129 -2.89174,3.27392 -0.33562,0.53079 -0.56915,1.12714 -0.65843,1.75192 -0.094,0.65771 -0.12477,1.33767 -0.39943,1.95532 -0.4314,0.97011 -1.02161,1.86812 -1.71667,2.6678 -0.58764,0.67609 -1.24307,1.32794 -2.05538,1.7248 -0.15951,0.0779 -0.32508,0.14417 -0.4962,0.19193"
       id="path160"
       inkscape:path-effect="#path-effect162"
       inkscape:original-d="m 165.8656,265.76049 c 3.5383,-3.99133 7.47136,-7.14355 10.94326,-11.19182 1.89544,-2.2101 3.36709,-4.692 5.25968,-6.88631 2.08473,-2.41707 4.08734,-4.50179 5.71907,-7.10696 1.46223,-2.33454 3.38329,-4.5875 5.63139,-6.21656 1.44365,-1.04613 2.14525,-0.5626 3.45271,-2.27113 1.23777,-1.61745 2.19359,-3.75927 3.08914,-5.56748 0.40791,-0.82361 -0.0665,-1.12278 0.72509,-1.84701 0.55243,-0.50539 1.53973,-1.41275 2.2623,-1.68562 0.47512,-0.17942 2.33523,-0.18276 2.54496,-0.4883 1.41979,-2.06848 1.00818,-3.5887 1.53337,-5.58494 0.30614,-1.16364 0.74469,-2.09069 0.96542,-3.29584 0.12089,-0.66004 -0.14606,-2.38475 0.22614,-2.95233 1.23884,-1.88913 3.55395,-0.37033 5.07075,-1.59529 1.83823,-1.48456 2.97655,-4.11647 4.4937,-5.92993 0.22553,-0.26957 0.6321,-1.2125 0.96648,-1.25097 2.78174,-0.32005 5.67017,-0.17928 8.52022,-0.28253 0.73175,-0.0265 3.39273,-0.49485 3.98292,0.11267 0.33695,0.34684 0.5288,2.37262 0.418,2.80495 -0.62181,2.42626 -2.53843,3.33604 -4.81884,3.66573 -0.2595,0.0375 -0.89352,-0.14708 -1.10222,0 -0.27041,0.19057 -1.31357,3.917 -2.49368,5.03645 -0.90244,0.85605 -1.84683,1.94563 -2.91943,2.54488 -1.60592,0.8972 -3.51782,0.32999 -4.68152,2.16871 -1.05565,1.66798 0.30257,2.69491 1.32863,3.69926 0.0595,0.0582 -0.0761,-0.15641 -0.14478,-0.20337 -0.37594,-0.257 -0.0624,0.91508 0,1.36617 0.17502,1.26402 0.1078,2.5666 0.39233,3.79479 0.14534,0.62733 0.59673,1.13213 0.83022,1.71153 0.32554,0.80782 1.04756,5.07807 0.25759,5.72424 -0.68837,0.56305 -8.2236,1.18402 -8.9334,1.033 -1.16667,-0.24823 -3.47414,-1.64437 -4.79442,-1.27568 -0.0197,0.005 0.009,0.32459 0,0.38277 -0.0593,0.40193 -0.28647,0.80391 -0.50135,1.15231 -0.67736,1.09829 -1.33711,2.3703 -2.34296,3.26161 -1.18993,1.05442 -5.35312,3.95796 -5.84766,5.29689 -0.59159,1.60172 0.19216,3.82375 -0.66362,5.31059 -1.12946,1.96232 -2.62369,3.70302 -3.89657,5.55936 -1.0849,1.5822 -2.76417,2.44286 -3.44826,4.365 -0.29102,0.81772 -0.18695,1.74202 -0.50699,2.55327 -0.63279,1.60407 -2.59062,4.26976 -4.33984,4.7575" />
    <path
       style="fill:none;stroke:#000000;stroke-width:0.264583px;stroke-linecap:butt;stroke-linejoin:miter;stroke-opacity:1"
       d="m 140.76814,210.29775 c -0.0298,0.001 -0.0698,-0.0153 -0.0628,-0.0518 0.01,-0.052 0.0447,-0.0952 0.0777,-0.13471 0.0966,-0.11598 0.2074,-0.21926 0.31946,-0.32002 0.2886,-0.25949 0.58975,-0.50453 0.8903,-0.74993 0.43839,-0.35795 0.883,-0.70872 1.30826,-1.08232 0.17484,-0.1536 0.35172,-0.30637 0.50734,-0.47973 0.0587,-0.0654 0.11993,-0.13104 0.15947,-0.21007 0.0175,-0.0349 0.0424,-0.0894 0.006,-0.11795 -0.0345,-0.0273 -0.0803,-0.0341 -0.1213,-0.0478 -1.26778,-0.4235 -2.55002,-0.80164 -3.82475,-1.20329"
       id="path164"
       inkscape:path-effect="#path-effect166"
       inkscape:original-d="m 140.76814,210.29775 c -0.634,-0.0258 3.71636,-2.98229 3.17605,-3.16383 -1.29732,-0.43588 -2.61066,-0.82257 -3.91599,-1.23386" />
  </g>
</svg>
