<svg width="368.3mm" height="275.17mm" version="1.1" viewBox="0 0 368.3 275.17" xmlns="http://www.w3.org/2000/svg">
 <g>
  <path d="m160.09 144.2c.31182-.62363.55667-1.2855.93545-1.8709.0852-.13162.76592-.54103.93544-.66818.0504-.0378.0891-.0891.13364-.13363.0891-.0445.18439-.0784.26727-.13363.0524-.035.0812-.0987.13363-.13364.0829-.0553.18439-.0784.26727-.13363.10483-.0699.15458-.21093.26727-.26727.0398-.0199.0938.0199.13363 0 .0564-.0282.0773-.10546.13364-.13364.0797-.0398.18758.0398.26727 0 .0564-.0282.0773-.10546.13363-.13363.0399-.0199.0938.0199.13364 0 .0563-.0282.0773-.10546.13363-.13364.0398-.0199.0938.0199.13364 0 .0563-.0282.0773-.10546.13363-.13363.0398-.0199.0938.0199.13364 0 .0563-.0282.0739-.11371.13363-.13364.0845-.0282.17818 0 .26727 0 .0446 0 .0938.0199.13364 0 .0563-.0282.0773-.10546.13363-.13363.0797-.0398.18759.0398.26727 0 .0564-.0282.0773-.10546.13364-.13364.1069-.0534.29399.0535.4009 0 .0563-.0282.0773-.10546.13363-.13363.10691-.0534.294.0534.40091 0 .0563-.0282.0773-.10546.13363-.13364.0843-.0421.58387.0422.66818 0 .0563-.0282.0773-.10546.13363-.13363.0868-.0434.58341.0424.66818 0 .0563-.0282.0773-.10546.13363-.13363.084-.042.45055.042.53454 0 .0563-.0282.0773-.10547.13363-.13364.0346-.0173.70709 0 .80181 0 .0929 0 .61985-.0242.66818 0 .0563.0282.0773.10546.13363.13364.10691.0534.294-.0535.40091 0 .0563.0282.0773.10546.13363.13363.084.042.45055-.042.53454 0 .0564.0282.0773.10546.13363.13363.10691.0535.294-.0534.40091 0 .0563.0282.0773.10547.13363.13364.0725.0363.49798-.0366.53454 0 .0315.0315-.0315.10213 0 .13363.063.063.18759-.0398.26727 0 .0563.0282.0773.10547.13364.13364.0797.0398.18758-.0398.26727 0 .0563.0282.0773.10546.13363.13363.0398.0199.0938-.0199.13364 0 .0563.0282.0773.10547.13363.13364.0398.0199.0938-.0199.13364 0 .0563.0282.0773.10546.13363.13363.0398.0199.0938-.0199.13363 0 .0564.0282.0773.10546.13364.13364.0398.0199.0938-.0199.13364 0 .0563.0282.0773.10546.13363.13363.0398.0199.0938-.0199.13363 0 .0564.0282.0773.10547.13364.13364.0398.0199.10213-.0315.13363 0s-.0315.10213 0 .13363c.0704.0704.1844.0784.26727.13364.0524.0349.0773.10546.13364.13363.0398.0199.10214-.0315.13363 0 .0315.0315-.0315.10214 0 .13364.063.063.20428-.063.26727 0 .0315.0315-.0315.10213 0 .13363.063.063.18759-.0398.26727 0 .11269.0563.15458.21092.26727.26727.0398.0199.10214-.0315.13364 0s-.0315.10214 0 .13364.0938-.0199.13363 0c.0355.0177.38316.36542.40091.4009.0199.0398-.0315.10214 0 .13363.0315.0315.10213-.0315.13363 0 .063.063-.063.20428 0 .26727.0315.0315.10214-.0315.13364 0s-.0315.10214 0 .13364.10213-.0315.13363 0-.0315.10214 0 .13363c.0315.0315.10214-.0315.13363 0 .063.063-.063.20428 0 .26727.0315.0315.10214-.0315.13364 0 .063.063-.063.20428 0 .26727.0315.0315.10214-.0315.13363 0 .0315.0315-.0315.10214 0 .13364s.10214-.0315.13364 0-.0199.0938 0 .13363c.0282.0564.10546.0773.13363.13364.0199.0398-.0199.0938 0 .13363.0282.0563.10546.0773.13364.13364.0398.0797-.063.20427 0 .26727.0315.0315.10213-.0315.13363 0s-.0315.10213 0 .13363.10214-.0315.13364 0c.063.063-.063.20427 0 .26727.0315.0315.10213-.0315.13363 0s-.0199.0938 0 .13363c.0282.0563.10547.0773.13364.13364.0199.0398-.0199.0938 0 .13363.0282.0563.10546.0773.13363.13364.0199.0398-.0199.0938 0 .13364.0282.0563.10546.0773.13364.13363.0199.0398-.0315.10214 0 .13363.0315.0315.10213-.0315.13363 0s-.0315.10214 0 .13364.10214-.0315.13364 0-.0315.10213 0 .13363.10213-.0315.13363 0-.0199.0938 0 .13364c.0282.0563.10546.0773.13363.13363.0199.0399-.0315.10214 0 .13364s.10214-.0315.13364 0-.0199.0938 0 .13363c.0282.0564.10546.0773.13364.13364.0199.0398-.0199.0938 0 .13363.0282.0564.10546.0773.13363.13364.0398.0797-.0398.18758 0 .26727.0282.0563.10546.0773.13363.13363.0535.10691-.0534.294 0 .4009.0282.0564.10547.0773.13364.13364.0199.0398-.0199.0938 0 .13363.0282.0563.10546.0773.13363.13364.0199.0398-.0199.0938 0 .13363.0282.0563.10547.0773.13364.13364.0398.0797-.0398.18758 0 .26727.27808.55615-.009-.14286.26727.13363.063.063-.0398.18759 0 .26727.0802.16037.32072.24054.4009.40091.0398.0797-.0398.18758 0 .26727.0282.0563.10547.0773.13364.13363.0265.053-.0273.37359 0 .40091.0315.0315.10213-.0315.13363 0s0 .0891 0 .13363c0 .063-.006.66212 0 .66817.0315.0315.10214-.0315.13364 0 .004.004 0 .3685 0 .40091 0 .0602-.0204.36023 0 .4009.0282.0564.10546.0773.13363.13364.042.084-.042.45054 0 .53454.0282.0563.10546.0773.13364.13363.0199.0398 0 .0891 0 .13364v.13363.66817.13364c0 .0445-.0199.0938 0 .13363.0282.0563.10546.0773.13363.13364.006.0114.006.52315 0 .53454-.0282.0563-.10546.0773-.13363.13363-.0362.0725.0366.49798 0 .53454-.0315.0315-.10214-.0315-.13364 0-.0668.0668.0668.33409 0 .40091-.0315.0315-.10213-.0315-.13363 0-.063.063.063.20427 0 .26726-.0315.0315-.10214-.0315-.13364 0-.0668.0668.0668.33409 0 .40091-.0315.0315-.10214-.0315-.13363 0-.0207.0207.0173.3489 0 .4009-.0315.0945-.10214.17278-.13364.26727-.0306.0919.0394.32206 0 .40091-.0282.0563-.10546.0773-.13363.13363-.0242.0483 0 .57523 0 .66818v1.7372c0 .0491-.005.52916 0 .53454.0315.0315.10213-.0315.13363 0 .005.005 0 .48546 0 .53454 0 .0445.0315.10213 0 .13363s-.10213-.0315-.13363 0c-.0322.0322.0322.50238 0 .53454-.0315.0315-.10214-.0315-.13364 0-.0273.0273.0265.34792 0 .4009-.0282.0564-.10546.0773-.13363.13364-.0535.10691.0534.294 0 .4009-.0282.0564-.10546.0773-.13364.13364-.0534.10691.0535.29399 0 .4009-.0282.0563-.10546.0773-.13363.13364-.0199.0398.0199.0938 0 .13363-.0282.0563-.10546.0773-.13364.13364-.0199.0398.0199.0938 0 .13363-.0282.0564-.10546.0773-.13363.13364-.0199.0398.0199.0938 0 .13363-.0282.0564-.10546.0773-.13364.13364-.0398.0797.063.20427 0 .26727-.0315.0315-.10213-.0315-.13363 0-.063.063.063.20427 0 .26726-.0315.0315-.10214-.0315-.13363 0-.0315.0315.0199.0938 0 .13364-.0802.16036-.32073.24054-.40091.4009-.0199.0399.0199.0938 0 .13364-.0282.0563-.10546.0773-.13363.13363-.0199.0398.0199.0938 0 .13364-.0282.0563-.10546.0773-.13364.13363-.0199.0399.0315.10214 0 .13364s-.10213-.0315-.13363 0 .0315.10214 0 .13363c-.0315.0315-.10214-.0315-.13364 0s.0199.0938 0 .13364c-.0282.0563-.10546.0773-.13363.13363-.0199.0398.0315.10214 0 .13364s-.10214-.0315-.13364 0c-.063.063.0398.18758 0 .26727-.0282.0563-.10546.0773-.13363.13363-.0535.10691.0534.294 0 .4009-.0282.0563-.10546.0773-.13364.13364-.0398.0797.063.20427 0 .26727-.0315.0315-.10213-.0315-.13363 0s.0315.10214 0 .13364-.0938-.0199-.13364 0c-.0563.0282-.0773.10546-.13363.13363-.0797.0398-.18759-.0398-.26727 0-.0563.0282-.0773.10546-.13364.13363-.0398.0199-.0891 0-.13363 0h-.13363-.80181-.13364c-.0445 0-.10213-.0315-.13363 0s.0315.10214 0 .13364-.10214-.0315-.13364 0 .0315.10213 0 .13363-.10214-.0315-.13363 0c-.0315.0315.0315.10214 0 .13364-.0668.0668-.33409-.0668-.40091 0-.0315.0315.0315.10214 0 .13363-.063.063-.20427-.063-.26727 0-.0315.0315.0315.10214 0 .13364s-.10213-.0315-.13363 0 .0315.10213 0 .13363-.10214-.0315-.13364 0 .0199.0938 0 .13364c-.0282.0563-.10546.0773-.13363.13363-.0199.0398.0315.10214 0 .13364s-.10214-.0315-.13364 0 .0315.10213 0 .13363-.10213-.0315-.13363 0 .0199.0938 0 .13364c-.0282.0563-.10546.0773-.13363.13363-.0399.0797.0398.18759 0 .26727-.0282.0564-.10547.0773-.13364.13363-.0199.0399.0199.0938 0 .13364-.0563.11269-.21092.15458-.26727.26727-.0199.0398.0315.10214 0 .13363-.0315.0315-.10214-.0315-.13363 0-.0315.0315.0315.10214 0 .13364s-.10214-.0315-.13364 0 .0315.10214 0 .13363c-.0315.0315-.0938-.0199-.13363 0-.11269.0564-.15458.21093-.26727.26727-.0399.0199-.0938-.0199-.13364 0-.0563.0282-.0773.10547-.13363.13364-.0398.0199-.10214-.0315-.13364 0s.0315.10214 0 .13363c-.0315.0315-.0938-.0199-.13363 0-.11269.0564-.15458.21093-.26727.26727-.0399.0199-.10214-.0315-.13364 0s.0315.10214 0 .13364c-.063.063-.20427-.063-.26727 0-.0315.0315.0315.10213 0 .13363-.063.063-.18758-.0398-.26727 0-.0563.0282-.0739.11371-.13363.13364-.076.0253-.54231 0-.66817 0-.0446 0-.10214-.0315-.13364 0-.17818.17818.22273.13363-.13363.13363h-.93545c-.0445 0-.10214-.0315-.13363 0-.0315.0315.0398.11372 0 .13364-.0391.0196-.69243 0-.80181 0-.0446 0-.10214-.0315-.13364 0s.0315.10213 0 .13363c-.0668.0668-.33408-.0668-.4009 0-.0315.0315.0315.10214 0 .13364s-.0899-.009-.13363 0c-1.3891.27782.0408-.0136-.80181.26726-.11859.0395-.58067-.0437-.66818 0-.0563.0282-.0773.10547-.13363.13364-.0351.0176-.46466 0-.53454 0h-1.2027-.66818-.13363c-.0445 0-.0938.0199-.13364 0-.0563-.0282-.0773-.10546-.13363-.13364-.0398-.0199-.0938.0199-.13364 0-.0563-.0282-.0773-.10546-.13363-.13363-.0797-.0398-.18759.0398-.26727 0-.11269-.0563-.16244-.19738-.26727-.26727-.0829-.0553-.17818-.0891-.26727-.13363-.0891-.0445-.17278-.10214-.26727-.13364-.0423-.0141-.0938.0199-.13363 0-.0564-.0282-.0773-.10546-.13364-.13363-.0398-.0199-.0938.0199-.13363 0-.0564-.0282-.0773-.10547-.13364-.13364-.0398-.0199-.0938.0199-.13363 0-.0564-.0282-.0773-.10546-.13364-.13363-.0797-.0398-.18758.0398-.26727 0-.0563-.0282-.0773-.10546-.13363-.13364-.0398-.0199-.0938.0199-.13364 0-.0563-.0282-.0773-.10546-.13363-.13363-.0398-.0199-.10214.0315-.13364 0s.0315-.10214 0-.13364-.0938.0199-.13363 0c-.11269-.0563-.15458-.21092-.26727-.26727-.0398-.0199-.0938.0199-.13363 0-.0563-.0282-.0773-.10546-.13364-.13363-.0398-.0199-.10214.0315-.13364 0s.0315-.10214 0-.13364-.0938.0199-.13363 0c-.0563-.0282-.0773-.10546-.13364-.13363-.0797-.0398-.20427.063-.26726 0-.0315-.0315.0315-.10214 0-.13364-.063-.063-.20428.063-.26727 0-.0315-.0315.0315-.10213 0-.13363s-.0938.0199-.13364 0c-.0563-.0282-.0773-.10546-.13363-.13363-.0399-.0199-.0938.0199-.13364 0-.0563-.0282-.0773-.10547-.13363-.13364-.0797-.0398-.18759.0398-.26727 0-.0563-.0282-.0773-.10546-.13364-.13364-.0398-.0199-.10213.0315-.13363 0s.0315-.10213 0-.13363c-.063-.063-.18759.0398-.26727 0-.0564-.0282-.0773-.10546-.13364-.13363-.0398-.0199-.0938.0199-.13363 0-.0564-.0282-.0773-.10547-.13363-.13364-.0399-.0199-.10214.0315-.13364 0s.0315-.10213 0-.13363-.0938.0199-.13364 0c-.11268-.0563-.15457-.21093-.26726-.26727-.0399-.0199-.0938.0199-.13364 0-.0851-.0426-.56317-.56317-.66817-.66818-.0446-.0445-.0773-.10546-.13364-.13363-.0398-.0199-.10213.0315-.13363 0s.0199-.0938 0-.13364c-.14774-.29547-.0829-.0415-.26727-.13363-.11269-.0564-.15458-.21093-.26727-.26727-.0398-.0199-.0938.0199-.13364 0-.0563-.0282-.0812-.0987-.13363-.13363-.0829-.0553-.17818-.0891-.26727-.13364-.0891-.0445-.17818-.0891-.26727-.13364-.0891-.0445-.19684-.0632-.26727-.13363-.0315-.0315.0315-.10214 0-.13364s-.0938.0199-.13363 0c-.1127-.0563-.15458-.21092-.26727-.26726-.0399-.0199-.0938.0199-.13364 0-.0563-.0282-.0773-.10547-.13363-.13364-.0399-.0199-.10214.0315-.13364 0s.0315-.10214 0-.13363c-.0315-.0315-.10213.0315-.13363 0s.0398-.11372 0-.13364c-.0797-.0398-.18759.0398-.26727 0-.0399-.0199.0315-.10214 0-.13363-.0315-.0315-.10214.0315-.13364 0s.0399-.11372 0-.13364c-.0797-.0398-.18275.0282-.26727 0-.41711-.13904.0446-.0891-.13363-.26727-.2765-.27649.0108.42252-.26727-.13363-.0199-.0399.0199-.0938 0-.13364-.0592-.11844-.31981-.27925-.40091-.4009-.0553-.0829-.0784-.18439-.13363-.26727-.0811-.12165-.34168-.28246-.4009-.40091-.0199-.0398.0315-.10213 0-.13363s-.10214.0315-.13364 0 .0199-.0938 0-.13363c-.0282-.0564-.10546-.0773-.13364-.13364-.0199-.0398.0315-.10214 0-.13363-.0315-.0315-.10213.0315-.13363 0s.0199-.0938 0-.13364c-.0282-.0563-.10546-.0773-.13363-.13363-.0199-.0399.0199-.0938 0-.13364-.0282-.0563-.10546-.0773-.13364-.13363-.0265-.053.0273-.37359 0-.40091-.0315-.0315-.10213.0315-.13363 0-.0668-.0668.0668-.33409 0-.4009-.0315-.0315-.10214.0315-.13364 0-.0668-.0668.0668-.33409 0-.4009-.0315-.0315-.10214.0315-.13363 0-.0273-.0273.0265-.34792 0-.40091-.0282-.0563-.10546-.0773-.13364-.13364-.0265-.053.0273-.37358 0-.4009-.0315-.0315-.10213.0315-.13363 0-.0273-.0273.0265-.34792 0-.4009-.0282-.0563-.10546-.0773-.13364-.13364-.0265-.053.0273-.37358 0-.4009-.0315-.0315-.10213.0315-.13363 0-.063-.063.0398-.18759 0-.26727-.0282-.0564-.10546-.0773-.13364-.13364-.0265-.053.0273-.37358 0-.4009-.0315-.0315-.10213.0315-.13363 0-.0668-.0668.0668-.33409 0-.40091-.0315-.0315-.10214.0315-.13364 0-.063-.063.0399-.18758 0-.26726-.0282-.0564-.10546-.0773-.13363-.13364-.0199-.0398.0199-.0938 0-.13363-.0282-.0564-.10546-.0773-.13364-.13364-.0199-.0398.0315-.10214 0-.13364s-.10213.0315-.13363 0 .0199-.0938 0-.13363c-.0282-.0563-.10546-.0773-.13363-.13363-.0199-.0398.0199-.0938 0-.13364-.0564-.11269-.21093-.15458-.26727-.26727-.0199-.0398.0199-.0938 0-.13363-.0282-.0563-.10547-.0773-.13364-.13364-.0199-.0398.0199-.0938 0-.13363-.0802-.16036-.32072-.24054-.4009-.40091-.0199-.0398.0199-.0938 0-.13363-.0282-.0564-.10547-.0773-.13364-.13364-.0199-.0398.0315-.10213 0-.13363s-.10213.0315-.13363 0c-.0322-.0322.0322-.50238 0-.53454-.0315-.0315-.10214.0315-.13364 0s.0199-.0938 0-.13364c-.0282-.0563-.10546-.0773-.13363-.13363-.0398-.0797.063-.20427 0-.26727-.0315-.0315-.10214.0315-.13364 0-.0273-.0273.0265-.34792 0-.4009-.0282-.0564-.10546-.0773-.13363-.13364-.0199-.0398 0-.0891 0-.13363v-.66818-.13363c0-.0445.0199-.0938 0-.13364-.0282-.0563-.11372-.0739-.13364-.13363-.0282-.0845 0-.17818 0-.26727 0-.0446-.0199-.0938 0-.13363.16514-.33027.13364.0461.13364-.26728 0-.0947-.0173-.76725 0-.8018.0282-.0564.10546-.0773.13363-.13364.0535-.10691-.0534-.29399 0-.4009.0282-.0563.10547-.0773.13364-.13364.0534-.10691-.0535-.29399 0-.4009.0282-.0564.10546-.0773.13363-.13364.0265-.053-.0273-.37358 0-.4009.0315-.0315.10214.0315.13364 0 .0273-.0273-.0265-.34792 0-.4009.0282-.0564.10546-.0773.13363-.13364.0534-.10691-.0534-.294 0-.4009.0282-.0564.10546-.0773.13364-.13364.0398-.0797-.0398-.18758 0-.26727.0563-.11269.19738-.16244.26727-.26727.0553-.0829.0891-.17818.13363-.26727.0445-.0891.10214-.17277.13364-.26727.0141-.0423-.0199-.0938 0-.13363.0282-.0563.0891-.0891.13363-.13364.0446-.0445.0773-.10546.13364-.13363.18433-.0922.11953.16184.26726-.13364.0199-.0398-.0199-.0938 0-.13363.0282-.0564.0891-.0891.13364-.13364.0446-.0445.0891-.0891.13363-.13363l.53454-.53454c.0786-.0786.47266-.5036.53454-.53454.0398-.0199.0938.0199.13364 0 .1315-.0657.40304-.46879.53453-.53454.0399-.0199.0938.0199.13364 0 .1315-.0658.40304-.46879.53454-.53453.0398-.0199.0938.0199.13363 0 .1127-.0564.15458-.21093.26727-.26728.0399-.0199.0938.0199.13364 0 .16036-.0802.24054-.32072.4009-.4009.0398-.0199.0938.0199.13364 0 .55615-.27808-.14286.009.13363-.26727.0315-.0315.0938.0199.13364 0 .0619-.0309.45594-.45594.53454-.53454.0445-.0445.0773-.10546.13363-.13363.0398-.0199.10214.0315.13364 0s-.0199-.0938 0-.13364c.14773-.29547.0829-.0415.26727-.13363.11269-.0564.14774-.22743.26726-.26727.0845-.0282.18276.0282.26727 0 .0598-.0199.0773-.10546.13364-.13364.0398-.0199.0938.0199.13364 0 .0563-.0282.0773-.10546.13363-.13363.0398-.0199.0938.0199.13363 0 .0564-.0282.0773-.10546.13364-.13364.0797-.0398.18758.0399.26727 0 .0563-.0282.0773-.10546.13363-.13363.0399-.0199.0891 0 .13364 0h.13363c.0699 0 .4994.0176.53454 0 .0563-.0282.0773-.10546.13364-.13364.0345-.0173.70708 0 .80181 0h.8018c.0602 0 .36024-.0203.40091 0 .0563.0282.0773.10547.13363.13364.0797.0398.20428-.063.26727 0 .0315.0315-.0315.10214 0 .13363.063.063.20428-.063.26727 0 .0315.0315-.0315.10214 0 .13364.063.063.20427-.063.26727 0 .0315.0315-.0315.10213 0 .13363s.0938-.0199.13363 0c.0564.0282.0773.10547.13364.13364.0398.0199.10214-.0315.13363 0 .0315.0315-.0315.10213 0 .13363s.10214-.0315.13364 0-.0315.10214 0 .13364.0891 0 .13364 0c-.0891.17818-.17819.35636-.26728.53454z" fill="none" stroke="#000" stroke-width=".26458px"/>
 </g>
</svg>
