<?xml version="1.0" encoding="UTF-8" standalone="no"?>
<!-- Created with Inkscape (http://www.inkscape.org/) -->

<svg
   xmlns:dc="http://purl.org/dc/elements/1.1/"
   xmlns:cc="http://creativecommons.org/ns#"
   xmlns:rdf="http://www.w3.org/1999/02/22-rdf-syntax-ns#"
   xmlns:svg="http://www.w3.org/2000/svg"
   xmlns="http://www.w3.org/2000/svg"
   xmlns:sodipodi="http://sodipodi.sourceforge.net/DTD/sodipodi-0.dtd"
   xmlns:inkscape="http://www.inkscape.org/namespaces/inkscape"
   width="169.33333mm"
   height="127mm"
   viewBox="0 0 169.33333 127"
   version="1.1"
   id="svg8"
   inkscape:version="0.92.4 (5da689c313, 2019-01-14)"
   sodipodi:docname="1_7_megacariocitos.svg">
  <defs
     id="defs2" />
  <sodipodi:namedview
     id="base"
     pagecolor="#ffffff"
     bordercolor="#666666"
     borderopacity="1.0"
     inkscape:pageopacity="0.0"
     inkscape:pageshadow="2"
     inkscape:zoom="1.4"
     inkscape:cx="310.68449"
     inkscape:cy="232.2314"
     inkscape:document-units="mm"
     inkscape:current-layer="layer2"
     showgrid="false"
     fit-margin-top="0"
     fit-margin-left="0"
     fit-margin-right="0"
     fit-margin-bottom="0"
     inkscape:window-width="1920"
     inkscape:window-height="1001"
     inkscape:window-x="-9"
     inkscape:window-y="-9"
     inkscape:window-maximized="1" />
  <metadata
     id="metadata5">
    <rdf:RDF>
      <cc:Work
         rdf:about="">
        <dc:format>image/svg+xml</dc:format>
        <dc:type
           rdf:resource="http://purl.org/dc/dcmitype/StillImage" />
        <dc:title></dc:title>
      </cc:Work>
    </rdf:RDF>
  </metadata>
  <g
     inkscape:groupmode="layer"
     id="layer2"
     inkscape:label="megacariocito">
    <path
       style="fill:none;stroke:#000000;stroke-width:0.26458332px;stroke-linecap:butt;stroke-linejoin:miter;stroke-opacity:1"
       d="m 106.02232,81.453867 c -0.81895,0.503968 -1.6379,1.007938 -2.45685,1.511906 -0.063,0 -0.13264,-0.02817 -0.18898,0 -0.0797,0.03984 -0.10931,0.149146 -0.18899,0.188987 -0.0563,0.02817 -0.13264,-0.02817 -0.18899,0 -0.0797,0.03984 -0.10447,0.160816 -0.18899,0.188989 -0.11952,0.03984 -0.26528,-0.05635 -0.37797,0 -0.0563,0.02817 0.0445,0.144444 0,0.188989 -0.0446,0.04454 -0.12599,0 -0.18899,0 -0.12599,0.063 -0.27837,0.08938 -0.37798,0.188987 -0.0445,0.04454 0.0446,0.144444 0,0.188989 -0.0445,0.04454 -0.13264,-0.02817 -0.18899,0 -0.0797,0.03984 -0.1093,0.149146 -0.18898,0.188987 -0.1127,0.05635 -0.26529,-0.05635 -0.37798,0 -0.22679,0.113392 -0.34018,0.453572 -0.56696,0.566965 -0.0563,0.02817 -0.13265,-0.02817 -0.18899,0 -0.0797,0.03984 -0.11486,0.13957 -0.18899,0.188989 -0.11721,0.07814 -0.260771,0.11085 -0.377976,0.188986 -0.08011,0.0534 -0.527868,0.48877 -0.566965,0.566965 -0.02817,0.05635 0.04454,0.144444 0,0.188987 -0.04454,0.04454 -0.132644,-0.02817 -0.188989,0 -0.07968,0.03984 -0.125992,0.125992 -0.188987,0.188989 -0.063,0.063 -0.149146,0.109305 -0.188989,0.188989 0,0.503968 0.063,-0.063 -0.188987,0.188987 -0.04454,0.04454 0.04454,0.144444 0,0.188989 -0.04454,0.04455 -0.144444,-0.04454 -0.188989,0 -0.04454,0.04455 0.04454,0.144442 0,0.188987 -0.04454,0.04454 -0.144444,-0.04454 -0.188987,0 -0.391025,0.391025 0.597535,-0.01529 -0.188989,0.377976 -0.05635,0.02817 -0.144444,-0.04454 -0.188989,0 -0.04454,0.04454 0.04454,0.144444 0,0.188989 -0.04454,0.04454 -0.144441,-0.04454 -0.188987,0 -0.04454,0.04454 0.04455,0.144444 0,0.188989 -0.04454,0.04454 -0.144444,-0.04454 -0.188989,0 -0.04454,0.04454 0.04454,0.144441 0,0.188987 -0.315135,0.315137 -0.06284,-0.315138 -0.377976,0 -0.04454,0.04454 0.04455,0.144444 0,0.188989 -0.04454,0.04454 -0.132643,-0.02817 -0.188986,0 -0.07968,0.03984 -0.109305,0.149146 -0.18899,0.188987 -0.112691,0.05635 -0.288885,-0.08909 -0.377975,0 -0.04455,0.04454 0.04454,0.144443 0,0.188989 -0.0076,0.0076 -0.686549,0 -0.755952,0 -0.063,0 -0.144444,0.04454 -0.188989,0 -0.04454,-0.04455 0.04454,-0.144444 0,-0.188989 -0.08909,-0.08909 -0.265285,0.05635 -0.377976,0 -0.07968,-0.03984 -0.109305,-0.149146 -0.188989,-0.188987 -0.112689,-0.05635 -0.265285,0.05635 -0.377976,0 -0.07968,-0.03984 -0.109302,-0.149146 -0.188987,-0.188989 -0.102526,-0.05126 -0.704241,0.05171 -0.755954,0 -0.04454,-0.04455 0.04454,-0.144444 0,-0.188987 -0.01889,-0.01889 -0.548066,-0.01889 -0.566962,0 -0.04455,0.04454 0.04454,0.144441 0,0.188987 -0.04455,0.04454 -0.125992,0 -0.188989,0 -0.08911,0 -0.936377,-0.0086 -0.944941,0 -0.04455,0.04454 0.04454,0.144444 0,0.188989 -0.09449,0.09449 -0.472469,-0.0945 -0.566965,0 -0.04454,0.04454 0.04454,0.144441 0,0.188987 -0.08909,0.08909 -0.265285,-0.05635 -0.377976,0 -0.07969,0.03984 -0.109302,0.149145 -0.188987,0.188989 -0.112691,0.05634 -0.288888,-0.08909 -0.377976,0 -0.251983,0.251984 0.314979,0.188986 -0.188989,0.188986 -0.06299,0 -0.125992,0 -0.188989,0 -0.063,0 -0.144441,0.04455 -0.188987,0 -0.04454,-0.04454 0.04455,-0.144441 0,-0.188986 -0.04454,-0.04455 -0.144444,0.04454 -0.188989,0 -0.04454,-0.04455 0.04454,-0.144444 0,-0.188989 -0.04454,-0.04455 -0.144441,0.04454 -0.188986,0 -0.04455,-0.04455 0.04454,-0.144442 0,-0.188987 -0.04455,-0.04454 -0.144444,0.04454 -0.18899,0 -0.09449,-0.0945 0.09449,-0.472472 0,-0.566965 -0.04454,-0.04454 -0.144444,0.04454 -0.188986,0 -0.04454,-0.04454 0,-0.125992 0,-0.188989 0,-0.063 0,-0.125992 0,-0.188987 0,-0.503968 0,-1.007938 0,-1.511906 0,-0.06299 0,-0.125992 0,-0.188986 0,-0.063 -0.04454,-0.144444 0,-0.18899 0.04454,-0.04454 0.144441,0.04455 0.188986,0 0.08909,-0.08909 -0.08909,-0.288885 0,-0.377975 0.04455,-0.04455 0.144444,0.04454 0.18899,0 0.04454,-0.04455 -0.02817,-0.132644 0,-0.18899 0.03984,-0.07968 0.149145,-0.109302 0.188986,-0.188986 0.02817,-0.05635 -0.04454,-0.144444 0,-0.188989 0.04454,-0.04455 0.144444,0.04454 0.188989,0 0.04455,-0.04455 0,-0.125992 0,-0.188987 0,-0.08911 0.0086,-0.936376 0,-0.944941 -0.04454,-0.04454 -0.144444,0.04454 -0.188989,0 -0.08909,-0.08909 0.08909,-0.288888 0,-0.377976 -0.04454,-0.04454 -0.144441,0.04455 -0.188986,0 -0.04455,-0.04454 0.02817,-0.132643 0,-0.188989 -0.197282,-0.394562 -0.180695,0.01659 -0.377976,-0.377976 -0.02817,-0.05634 0.04454,-0.144444 0,-0.188989 -0.04454,-0.04454 -0.132644,0.02817 -0.188989,0 -0.07969,-0.03984 -0.109305,-0.149146 -0.18899,-0.188987 -0.05634,-0.02817 -0.144441,0.04455 -0.188986,0 -0.04455,-0.04454 0.04454,-0.144443 0,-0.188989 -0.04455,-0.04454 -0.144444,0.04455 -0.188989,0 -0.04455,-0.04454 0.04454,-0.144441 0,-0.188986 -0.04455,-0.04455 -0.144442,0.04454 -0.188987,0 -0.04454,-0.04455 0.04454,-0.144444 0,-0.18899 -0.04454,-0.04454 -0.144444,0.04455 -0.188989,0 -0.04455,-0.04454 0.04454,-0.144444 0,-0.188986 -0.04455,-0.04454 -0.129225,0.01992 -0.188987,0 -0.133636,-0.04454 -0.244343,-0.144444 -0.377978,-0.188989 -0.05976,-0.01992 -0.132641,0.02817 -0.188987,0 -0.159369,-0.07969 -0.218607,-0.298292 -0.377976,-0.377976 -0.112691,-0.05635 -0.265287,0.05635 -0.377976,0 -0.07968,-0.03984 -0.109304,-0.149146 -0.188989,-0.188989 -0.05634,-0.02817 -0.132643,0.02817 -0.188989,0 -0.07968,-0.03984 -0.109302,-0.149146 -0.188987,-0.188987 -0.05634,-0.02817 -0.144444,0.04454 -0.188989,0 -0.04454,-0.04454 0.04454,-0.144444 0,-0.188989 -0.08909,-0.08909 -0.288885,0.08909 -0.377976,0 -0.04454,-0.04454 0.04455,-0.144444 0,-0.188987 -0.04454,-0.04454 -0.144444,0.04454 -0.188986,0 -0.04454,-0.04454 0.04454,-0.144444 0,-0.188989 -0.08909,-0.08909 -0.265287,0.05635 -0.377979,0 -0.07968,-0.03984 -0.109302,-0.149146 -0.188986,-0.188989 -0.05635,-0.02817 -0.132644,0.02817 -0.188989,0 -0.07968,-0.03984 -0.109302,-0.149146 -0.188987,-0.188987 -0.112691,-0.05634 -0.288888,0.08909 -0.377976,0 -0.04454,-0.04454 0.04454,-0.144444 0,-0.188989 -0.08909,-0.08909 -0.265287,0.05635 -0.377978,0 -0.07968,-0.03984 -0.109302,-0.149146 -0.188987,-0.188987 -0.05751,-0.02876 -0.481851,0 -0.566965,0 -0.62996,0 -1.259919,0 -1.889882,0 -0.09882,0 -0.706257,0.02484 -0.755951,0 -0.07969,-0.03984 -0.109302,-0.149145 -0.188987,-0.188989 -0.118784,-0.05939 -0.637169,0.05939 -0.755954,0 -0.07969,-0.03984 -0.109302,-0.149145 -0.188987,-0.188986 -0.112691,-0.05635 -0.265287,0.05634 -0.377975,0 -0.07968,-0.03984 -0.109305,-0.149149 -0.18899,-0.18899 -0.112691,-0.05634 -0.265284,0.05635 -0.377975,0 -0.07969,-0.03984 -0.109305,-0.149145 -0.18899,-0.188989 -0.118782,-0.05939 -0.637169,0.05939 -0.755951,0 -0.07969,-0.03984 -0.109305,-0.149145 -0.18899,-0.188986 -0.102523,-0.05126 -0.704238,0.05171 -0.755951,0 -0.04454,-0.04455 0.04454,-0.144444 0,-0.18899 -0.04454,-0.04454 -0.132644,0.02817 -0.188987,0 -0.07968,-0.03984 -0.109304,-0.149145 -0.188989,-0.188986 -0.05635,-0.02817 -0.132644,0.02817 -0.188989,0 -0.07968,-0.03984 -0.109302,-0.149146 -0.188987,-0.188989 -0.05634,-0.02817 -0.144444,0.04454 -0.188989,0 -0.04454,-0.04455 0.04454,-0.144444 0,-0.188987 -0.04454,-0.04454 -0.132641,0.02817 -0.188987,0 -0.07968,-0.03984 -0.109304,-0.149148 -0.188989,-0.188989 -0.05635,-0.02817 -0.132643,0.02817 -0.188986,0 -0.159369,-0.07969 -0.21861,-0.298292 -0.377979,-0.377976 -0.05634,-0.02817 -0.144441,0.04454 -0.188986,0 -0.04455,-0.04454 0.02817,-0.132644 0,-0.188989 -0.03984,-0.07968 -0.149146,-0.109302 -0.18899,-0.188987 -0.02817,-0.05635 0.04455,-0.144444 0,-0.188989 -0.391022,-0.391023 0.01529,0.597535 -0.377975,-0.188987 -0.05635,-0.112691 0.05635,-0.265287 0,-0.377978 -0.03984,-0.07968 -0.149146,-0.109302 -0.188987,-0.188987 -0.02817,-0.05634 0.04454,-0.144444 0,-0.188989 -0.04454,-0.04454 -0.144444,0.04454 -0.188989,0 -0.08909,-0.08909 0.05634,-0.265284 0,-0.377976 -0.03984,-0.07968 -0.149146,-0.109304 -0.188989,-0.188986 -0.05939,-0.118785 0.05939,-0.63717 0,-0.755955 -0.03984,-0.07968 -0.149146,-0.109302 -0.188987,-0.188986 -0.05738,-0.114758 0.05738,-1.019173 0,-1.13393 -0.03984,-0.07968 -0.149146,-0.109302 -0.188989,-0.188987 -0.02817,-0.05635 0,-0.125992 0,-0.188989 0,-0.063 0,-0.125992 0,-0.188987 0,-0.04584 0.0061,-0.560887 0,-0.566965 -0.04455,-0.04454 -0.144442,0.04455 -0.188987,0 -0.08909,-0.08909 0.05635,-0.265287 0,-0.377976 -0.626795,-0.626795 0.08909,0.178179 -0.188989,-0.377975 -0.03984,-0.07968 -0.149146,-0.109305 -0.188987,-0.18899 -0.05634,-0.112691 0.08909,-0.288885 0,-0.377975 -0.04454,-0.04455 -0.144444,0.04454 -0.188989,0 -0.09449,-0.09449 0.09449,-0.472472 0,-0.566965 -0.04454,-0.04455 -0.125992,0 -0.188989,0 0,-0.063 0.02817,-0.132644 0,-0.188987 -0.03984,-0.07968 -0.149146,-0.109305 -0.188987,-0.188989 -0.05634,-0.112692 0.08909,-0.288886 0,-0.377976 -0.04454,-0.04454 -0.144444,0.04454 -0.188989,0 -0.08909,-0.08909 0.05635,-0.265287 0,-0.377976 -0.03984,-0.07968 -0.149146,-0.109304 -0.188987,-0.188989 -0.05634,-0.112691 0.05635,-0.265285 0,-0.377976 -0.03984,-0.07968 -0.149145,-0.109305 -0.188989,-0.188989 -0.07559,-0.151188 0.0756,-0.415772 0,-0.566962 -0.03984,-0.07969 -0.160813,-0.104471 -0.188986,-0.18899 -0.03484,-0.104513 0,-0.943607 0,-1.133927 0,-0.063 0.02817,-0.132644 0,-0.188989 -0.03984,-0.07968 -0.160817,-0.104471 -0.18899,-0.188987 -0.03583,-0.107508 0,-0.766945 0,-0.944941 0,-0.377976 0,-0.755954 0,-1.13393 0,-0.08511 -0.02876,-0.509447 0,-0.566962 0.03984,-0.07969 0.149146,-0.109305 0.18899,-0.188989 0.07559,-0.151191 -0.0756,-0.415775 0,-0.566965 0.03984,-0.07968 0.149145,-0.109303 0.188986,-0.188987 0.02817,-0.05635 -0.04454,-0.144444 0,-0.188989 0.04455,-0.04455 0.144444,0.04454 0.188989,0 0.04455,-0.04455 -0.02817,-0.132644 0,-0.188987 0.432462,-0.864925 -0.07833,0.801955 0.377976,-0.566965 0.01992,-0.05976 -0.02817,-0.132643 0,-0.188989 0.07968,-0.159369 0.279141,-0.229722 0.377976,-0.377976 0.07814,-0.117205 0.110853,-0.260771 0.188989,-0.377976 0.04942,-0.07413 0.149146,-0.109304 0.188987,-0.188989 0.02817,-0.05634 -0.04454,-0.144441 0,-0.188987 0.04454,-0.04454 0.144444,0.04455 0.188989,0 0.04454,-0.04454 -0.02817,-0.132643 0,-0.188989 0.113393,-0.226785 0.45357,-0.340177 0.566963,-0.566962 0.02817,-0.05635 -0.02817,-0.132644 0,-0.188989 0.03984,-0.07969 0.125994,-0.125992 0.188989,-0.18899 0.063,-0.06299 0.125992,-0.125992 0.188989,-0.188986 0.09949,-0.0995 0.466026,-0.516496 0.566962,-0.566965 0.05635,-0.02817 0.144444,0.04454 0.18899,0 0.0996,-0.09961 0.110849,-0.260771 0.188986,-0.377976 0.114694,-0.17204 0.483211,-0.399457 0.566965,-0.566965 0.02817,-0.05635 -0.04454,-0.144441 0,-0.188987 0.04454,-0.04454 0.144444,0.04455 0.188989,0 0.391023,-0.391025 -0.597535,0.01529 0.188987,-0.377975 0.05635,-0.02817 0.144444,0.04454 0.188989,0 0.04454,-0.04455 -0.02817,-0.132644 0,-0.18899 0.07968,-0.159369 0.298291,-0.218606 0.377976,-0.377976 0.02817,-0.05635 -0.02817,-0.132643 0,-0.188989 0.113393,-0.226785 0.453573,-0.340177 0.566965,-0.566962 0.02817,-0.05635 -0.02817,-0.132644 0,-0.188989 0.03984,-0.07969 0.125992,-0.125992 0.188987,-0.18899 0.063,-0.06299 0.109304,-0.149145 0.188989,-0.188986 0.05635,-0.02817 0.144444,0.04454 0.188986,0 0.391026,-0.391023 -0.597535,0.01529 0.18899,-0.377976 0.05634,-0.02817 0.132643,0.02817 0.188989,0 0.159366,-0.07969 0.218607,-0.298294 0.377976,-0.377976 0.112691,-0.05635 0.288885,0.08909 0.377976,0 0.04454,-0.04454 -0.04455,-0.144444 0,-0.188989 0.04454,-0.04454 0.132643,0.02817 0.188986,0 0.626795,-0.626795 -0.178178,0.08909 0.377979,-0.188989 0.07968,-0.03984 0.109302,-0.149146 0.188986,-0.188987 0.05635,-0.02817 0.129225,0.01992 0.188989,0 0.133633,-0.04454 0.24434,-0.144444 0.377976,-0.188989 0.05976,-0.01992 0.132644,0.02817 0.188987,0 0.07968,-0.03984 0.109304,-0.149146 0.188989,-0.188987 0.05635,-0.02817 0.132644,0.02817 0.188989,0 0.159367,-0.07968 0.218607,-0.298294 0.377976,-0.377975 0.05635,-0.02817 0.132641,0.02817 0.188987,0 0.159369,-0.07968 0.218609,-0.298294 0.377975,-0.377979 0.05635,-0.02817 0.132644,0.02817 0.18899,0 0.226785,-0.113392 0.340177,-0.45357 0.566965,-0.566962 0.05634,-0.02817 0.132641,0.02817 0.188986,0 0.226788,-0.113393 0.34018,-0.453573 0.566965,-0.566965 0.05635,-0.02817 0.132644,0.02817 0.18899,0 0.159366,-0.07969 0.218606,-0.298292 0.377975,-0.377976 0.05635,-0.02817 0.132641,0.02817 0.188987,0 0.626795,-0.626795 -0.178178,0.08909 0.377976,-0.188989 0.07968,-0.03984 0.109304,-0.149146 0.188989,-0.188987 0.05635,-0.02817 0.132644,0.02817 0.188989,0 0.07969,-0.03984 0.109302,-0.149146 0.188987,-0.188989 0.112691,-0.05635 0.288888,0.08909 0.377976,0 0.04454,-0.04455 -0.04455,-0.144444 0,-0.188987 0.0945,-0.0945 0.472471,0.09449 0.566965,0 0.04454,-0.04454 -0.04455,-0.144444 0,-0.188989 0.04454,-0.04454 0.125992,0 0.188989,0 0.314978,0 0.62996,0 0.944938,0 0.08511,0 0.50945,-0.02876 0.566965,0 0.07968,0.03984 0.109305,0.149146 0.188989,0.188989 0.06835,0.03417 0.813491,0 0.944941,0 0.063,0 0.125992,0 0.188987,0 0.063,0 0.132643,0.02817 0.188989,0 0.07968,-0.03984 0.109302,-0.149148 0.188987,-0.188989 0.04969,-0.02484 0.657127,0 0.755954,0 0.629959,0 1.259919,0 1.889879,0 0.04584,0 0.560887,-0.0061 0.566965,0 0.04454,0.04454 -0.04454,0.144444 0,0.188989 0.04548,0.04547 0.710475,-0.04548 0.755951,0 0.04455,0.04454 -0.04454,0.144442 0,0.188987 0.08909,0.08909 0.288888,-0.08909 0.377976,0 0.04455,0.04454 -0.04454,0.144444 0,0.188989 0.04455,0.04454 0.144444,-0.04454 0.188989,0 0.04455,0.04454 -0.04454,0.144441 0,0.188987 0.09449,0.0945 0.47247,-0.09449 0.566966,0 0.04454,0.04454 -0.04455,0.144444 0,0.188989 0.04454,0.04454 0.125991,0 0.188986,0 0.314981,0 0.629962,0 0.944941,0 0.440973,0 0.881946,0 1.322917,0 0.063,0 0.144444,0.04454 0.188989,0 0.04454,-0.04454 -0.04454,-0.144444 0,-0.188989 0.04454,-0.04455 0.125992,0 0.188986,0 0.314982,0 0.629963,0 0.944941,0 0.063,0 0.125992,0 0.188989,0 0.063,0 0.144442,-0.04455 0.188987,0 0.04454,0.04454 -0.04454,0.144444 0,0.188989 0.04548,0.04548 0.710478,-0.04548 0.755954,0 0.04454,0.04454 -0.04454,0.144444 0,0.188986 0.08909,0.08909 0.288886,-0.08909 0.377976,0 0.04454,0.04455 -0.04454,0.144444 0,0.18899 0.08909,0.08909 0.288885,-0.08909 0.377976,0 0.04454,0.04454 -0.04454,0.144444 0,0.188989 0.04454,0.04454 0.125992,0 0.188987,0 0,0.063 -0.04454,0.144441 0,0.188987 0.08909,0.08909 0.288887,-0.08909 0.377978,0 0.04454,0.04454 -0.04454,0.144443 0,0.188989 0.04454,0.04454 0.132641,-0.02817 0.188987,0 0.626795,0.626792 -0.178179,-0.08909 0.377975,0.188986 0.07968,0.03984 0.12599,0.125992 0.18899,0.18899 0.063,0.06299 0.1093,0.149145 0.18899,0.188986 0.0563,0.02817 0.14444,-0.04454 0.18899,0 0.0445,0.04454 -0.0446,0.144444 0,0.188989 0.0445,0.04455 0.14444,-0.04454 0.18898,0 0.0446,0.04455 -0.0282,0.132644 0,0.18899 0.0399,0.07968 0.14915,0.109302 0.18899,0.188986 0.0282,0.05635 -0.0445,0.144444 0,0.188989 0.0446,0.04455 0.14445,-0.04454 0.18899,0 0.0446,0.04455 -0.0445,0.144442 0,0.188987 0.0446,0.04454 0.14444,-0.04455 0.18899,0 0.0445,0.04454 -0.0446,0.144444 0,0.188989 0.0445,0.04454 0.14444,-0.04454 0.18899,0 0.0445,0.04454 -0.0446,0.144444 0,0.188987 0.0445,0.04454 0.14444,-0.04454 0.18898,0 0.0891,0.08909 -0.0891,0.288888 0,0.377978 0.0446,0.04454 0.14445,-0.04454 0.18899,0 0.0446,0.04454 -0.0445,0.144442 0,0.188987 0.0446,0.04454 0.14445,-0.04455 0.18899,0 0.0891,0.08909 -0.0563,0.265284 0,0.377976 0.0398,0.07968 0.14915,0.109304 0.18899,0.188989 0.0563,0.112691 -0.0891,0.288885 0,0.377976 0.0445,0.04454 0.14444,-0.04455 0.18899,0 0.0891,0.08909 -0.0563,0.265284 0,0.377975 0.0398,0.07968 0.14914,0.109305 0.18898,0.18899 0.10135,0.202692 -0.10134,0.175281 0,0.377975 0.0399,0.07969 0.14915,0.109303 0.18899,0.188987 0.0282,0.05635 -0.0445,0.144444 0,0.188989 0.0445,0.04455 0.14445,-0.04454 0.18899,0 0.12637,0.126368 -0.12637,0.251608 0,0.377976 0.0445,0.04454 0.14444,-0.04454 0.18899,0 0.0891,0.08909 -0.0891,0.288888 0,0.377976 0.39102,0.391025 -0.0153,-0.597535 0.37797,0.188989 0.0282,0.05635 -0.0282,0.132644 0,0.188987 0.0399,0.07968 0.14915,0.109304 0.18899,0.188989 0.0282,0.05635 -0.0445,0.144444 0,0.188989 0.0446,0.04454 0.14445,-0.04454 0.18899,0 0.0446,0.04454 -0.0445,0.144442 0,0.188987 0.0446,0.04454 0.14444,-0.04455 0.18899,0 0.0445,0.04454 -0.0282,0.132643 0,0.188989 0.0797,0.159369 0.29829,0.218607 0.37798,0.377976 0.0282,0.05635 -0.0446,0.144444 0,0.188986 0.0445,0.04455 0.14444,-0.04454 0.18898,0 0.0446,0.04455 -0.0282,0.132644 0,0.18899 0.0399,0.07968 0.14915,0.109304 0.18899,0.188989 0.0563,0.112689 -0.0891,0.288885 0,0.377976 0.0446,0.04454 0.14445,-0.04455 0.18899,0 0.0891,0.08909 -0.0891,0.288885 0,0.377975 0.0446,0.04455 0.14444,-0.04454 0.18899,0 0.0445,0.04455 -0.0282,0.132644 0,0.188987 0.0398,0.07968 0.14914,0.109305 0.18899,0.188989 0.0563,0.112692 -0.0891,0.288886 0,0.377976 0.0445,0.04454 0.14444,-0.04454 0.18898,0 0.0446,0.04454 -0.0282,0.132644 0,0.188989 0.0399,0.07968 0.14915,0.109302 0.18899,0.188987 0.0563,0.112691 -0.0891,0.288888 0,0.377976 0.0446,0.04454 0.14445,-0.04454 0.18899,0 0.0386,0.03864 -0.0375,0.492032 0,0.566965 0.0398,0.07968 0.14915,0.109304 0.18899,0.188989 0.0563,0.112689 -0.0563,0.265284 0,0.377976 0.0398,0.07968 0.14914,0.109302 0.18899,0.188986 0.0594,0.118785 -0.0594,0.63717 0,0.755955 0.0398,0.07968 0.16081,0.104468 0.18898,0.188986 0.0288,0.08644 -0.042,0.671857 0,0.755954 0.0399,0.07968 0.14915,0.109302 0.18899,0.188987 0.0594,0.118785 -0.0594,0.63717 0,0.755952 0.0398,0.07968 0.14915,0.109304 0.18899,0.188989 0.0756,0.151191 -0.0756,0.415774 0,0.566965 0.0398,0.07968 0.14915,0.109302 0.18899,0.188986 0.0375,0.07493 -0.0386,0.528328 0,0.566966 0.0445,0.04454 0.14444,-0.04455 0.18899,0 0.0386,0.03864 -0.0375,0.492032 0,0.566965 0.0398,0.07968 0.14914,0.109302 0.18898,0.188986 0.0756,0.151191 -0.0756,0.415774 0,0.566965 0.0399,0.07968 0.14915,0.109305 0.18899,0.188989 0.0564,0.112689 -0.0563,0.265285 0,0.377976 0.0398,0.07968 0.14915,0.109302 0.18899,0.188987 0.0563,0.112691 -0.0891,0.288888 0,0.377976 0.0446,0.04454 0.14444,-0.04454 0.18899,0 0.0445,0.04454 -0.0282,0.132643 0,0.188989 0.19728,0.394562 0.18069,-0.01659 0.37798,0.377976 0.0282,0.05635 -0.0446,0.144444 0,0.188989 0.0445,0.04454 0.14444,-0.04454 0.18898,0 0.0446,0.04454 -0.0445,0.144441 0,0.188986 0.0446,0.04455 0.14445,-0.04454 0.18899,0 0.0446,0.04455 -0.0445,0.144444 0,0.18899 0.0446,0.04454 0.14445,-0.04455 0.18899,0 0.0446,0.04454 -0.0445,0.144444 0,0.188986 0.0446,0.04454 0.13264,-0.02817 0.18899,0 0.15937,0.07968 0.21861,0.298294 0.37797,0.377979 0.0563,0.02817 0.14445,-0.04455 0.18899,0 0.0446,0.04454 -0.0445,0.144441 0,0.188986 0.0446,0.04455 0.14445,-0.04454 0.18899,0 0.0445,0.04455 -0.0445,0.144444 0,0.188989 0.0445,0.04455 0.14444,-0.04454 0.18899,0 0.0445,0.04455 -0.0446,0.144442 0,0.188987 0.0445,0.04454 0.14444,-0.04454 0.18899,0 0.0445,0.04454 -0.0446,0.144444 0,0.188989 0.0445,0.04455 0.14444,-0.04454 0.18898,0 0.0446,0.04455 -0.0445,0.144444 0,0.188987 0.0446,0.04454 0.14445,-0.04454 0.18899,0 0.0445,0.04454 -0.0282,0.132643 0,0.188989 0.0398,0.07968 0.14915,0.109305 0.18899,0.188989 0.0282,0.05634 -0.0445,0.144442 0,0.188987 0.0445,0.04454 0.14444,-0.04454 0.18899,0 0.0891,0.08909 -0.0891,0.288888 0,0.377976 0.0445,0.04454 0.14444,-0.04455 0.18899,0 0.0517,0.05171 -0.0513,0.653428 0,0.755954 0.0398,0.07968 0.14914,0.109302 0.18898,0.188987 0.0342,0.06834 0,0.813493 0,0.94494 0,0.063 -0.0445,0.144444 0,0.18899 0.0446,0.04454 0.14445,-0.04455 0.18899,0 0.0446,0.04454 0,0.125992 0,0.188986 0,0.063 0,0.125992 0,0.188989 0,0.440971 0,0.881944 0,1.322917 0,0.063 -0.0445,0.144441 0,0.188987 0.0446,0.04454 0.14444,-0.04455 0.18899,0 0.0945,0.0945 -0.0945,0.472471 0,0.566965 0.0446,0.04454 0.14444,-0.04455 0.18899,0 0.0445,0.04454 0,0.125992 0,0.188989 0,0.063 0.0445,0.144441 0,0.188987 -0.0446,0.04454 -0.14444,-0.04455 -0.18899,0 -0.0446,0.04454 0.0282,0.132643 0,0.188989 -0.0398,0.07968 -0.14915,0.109302 -0.18899,0.188986 -0.0282,0.05635 0.0446,0.144444 0,0.18899 -0.0445,0.04454 -0.14444,-0.04455 -0.18899,0 -0.0445,0.04454 0.0446,0.144444 0,0.188986 -0.0445,0.04454 -0.12599,0 -0.18898,0 0,0.063 0.0445,0.144444 0,0.188989 -0.0446,0.04455 -0.14445,-0.04454 -0.18899,0 -0.0446,0.04455 0.0445,0.144444 0,0.18899 -0.0446,0.04454 -0.14445,-0.04455 -0.18899,0 -0.0445,0.04454 0.0445,0.144441 0,0.188986 -0.0445,0.04454 -0.13264,-0.02817 -0.18899,0 -0.0797,0.03984 -0.1093,0.149146 -0.18899,0.188989 -0.0563,0.02817 -0.14444,-0.04454 -0.18898,0 -0.0446,0.04455 0.0445,0.144442 0,0.188987 -0.0446,0.04454 -0.14445,-0.04454 -0.18899,0 -0.0891,0.08909 0.0891,0.288888 0,0.377976 -0.0446,0.04454 -0.14445,-0.04454 -0.18899,0 -0.0891,0.08909 0.0891,0.288888 0,0.377978 -0.0891,0.08909 -0.28889,-0.08909 -0.37798,0 -0.0445,0.04454 0.0446,0.144442 0,0.188987 -0.0891,0.08909 -0.26528,-0.05635 -0.37797,0 -0.0797,0.03984 -0.10931,0.149145 -0.18899,0.188989 -0.0749,0.03746 -0.52833,-0.03864 -0.56696,0 -0.0446,0.04454 0.0445,0.144441 0,0.188987 -0.0455,0.04548 -0.71048,-0.04548 -0.75596,0 -0.0445,0.04454 0.0446,0.144444 0,0.188989 -0.0445,0.04454 -0.14444,-0.04454 -0.18899,0 -0.0445,0.04454 0.0446,0.144444 0,0.188986 -0.0445,0.04455 -0.14444,-0.04454 -0.18898,0 -0.0891,0.08909 0.0891,0.288888 0,0.377979 -0.0446,0.04454 -0.14445,-0.04454 -0.18899,0 -0.0891,0.08909 0.0891,0.288885 0,0.377976 -0.0446,0.04454 -0.14445,-0.04455 -0.18899,0 -0.0445,0.04454 0.0445,0.144441 0,0.188986 -0.0445,0.04455 -0.14444,-0.04454 -0.18899,0 -0.0445,0.04455 0.063,0.188989 0,0.188989 -0.25974,0 -0.50396,-0.125991 -0.75595,-0.188989 z"
       id="path829"
       inkscape:connector-curvature="0" />
  </g>
</svg>
